<?xml version="1.0" encoding="utf-8"?>
<!-- Generator: Adobe Illustrator 19.0.0, SVG Export Plug-In . SVG Version: 6.00 Build 0)  -->
<svg version="1.0" id="Layer_1" xmlns="http://www.w3.org/2000/svg" xmlns:xlink="http://www.w3.org/1999/xlink" x="0px" y="0px"
	 width="98.3px" height="115.5px" viewBox="0 0 98.3 115.5" enable-background="new 0 0 98.3 115.5" xml:space="preserve">
<g id="XMLID_2_">
	
		<path id="XMLID_192_" fill="none" stroke="#000000" stroke-width="0.25" stroke-linecap="round" stroke-linejoin="round" stroke-miterlimit="10" d="
		M9.95,53.05l-4.4,2.5 M11.25,66.35l2.2-1.2 M21.95,74.25v2.4 M27.25,74.25v2.4 M29.55,51.35l0.1,0.2l0.1,0.3l0.1,0.2l0.1,0.2
		l0.2,0.3 M3.55,41.75l-1.8-1.1 M6.25,37.05l-1.9-1 M7.45,32.95l-1.8-1.1 M21.95,65.55v2.4 M27.25,65.55v2.4 M7.45,24.95l-1.8-1
		 M14.05,47.75l-1.8-1 M16.75,43.15l-1.9-1.1 M18.15,73.35v2.3 M2.45,45.45l-1.9-1.1 M12.95,51.55l-1.8-1.1 M18.15,64.65v2.4
		 M6.25,22.25l-1.9-1.1 M3.95,51.95l5.8-3.3 M3.55,20.75l-1.8-1.1 M4.55,19.05l-1.3,0.7 M31.35,50.95h-0.3l-0.2-0.1h-0.3h-0.3
		 M17.95,39.05l-1.8-1.1 M14.55,0.25v0.1v0.2 M28.75,0.25v0.1v0.1 M31.45,75.25v2.4 M14.25,0.75l-0.4-0.1h-0.8 M63.25,93.55v2.4
		 M15.65,59.15l11.6-6.7 M29.55,48.25v-26.6 M31.45,66.55v2.4 M14.15,15.55l-0.7,0.4 M31.55,51.25v0.1l-0.1,0.2l-0.1,0.3l-0.1,0.2
		 M63.25,84.85v2.4 M2.95,18.55l-2.3-1.3 M18.15,14.95v2.4 M77.75,96.85l5.1,3 M32.95,70.95l27.2,15.7 M81.75,96.35l-2.1-1.2
		 M21.95,15.95v2.3 M82.35,96.25v-0.1l0.3-0.5l0.2-0.5l0.1-0.5 M85.75,96.35l-0.2,0.1l-0.7,0.2l-0.6,0.2 M27.25,15.95v2.3
		 M59.75,88.25l-29.6-17.1 M81.35,100.65l-5.1-2.9 M17.05,67.55l-3.5,2 M68.75,74.85l-32.5-18.8 M28.25,54.15l-11.6,6.7
		 M70.45,94.45l0.7-0.4 M77.05,106.75l1.4-0.8 M97.45,109.25l-0.1,0.2 M75.15,96.35l6.5-3.7 M75.55,89.75l-1.4,0.9 M96.55,110.05
		l0.2-0.1 M96.85,109.85l0.1-0.2l0.1-0.4 M79.45,81.45l0.1,0.2l0.1,0.3l0.1,0.2l0.1,0.2l0.2,0.2 M66.55,92.55v2.4 M77.25,78.15
		l-1.8-1.1 M76.35,88.15l-4.3-2.5 M74.65,82.75l-1.9-1.1 M85.15,102.25l1.3-0.8 M80.65,82.75L80.65,82.75l0.2-0.2l0.2-0.2l0.1-0.2
		 M97.15,108.05L97.15,108.05l0.3-0.1l0.3-0.1h0.1l0.1-0.1 M31.55,22.45v25.8 M37.25,54.35l32.4,18.8 M78.55,73.95l-1.9-1.1
		 M79.65,83.35l-3.9,2.3 M88.15,87.35l-6.6-3.8 M31.45,16.95v2.3 M78.55,65.95l-1.9-1 M86.05,92.25l1.1-0.6 M66.55,101.25v2.4
		 M31.05,0.75h-0.1h-0.4l-0.4,0.1 M79.65,81.05l0.3-0.1h0.2h0.3h0.3 M91.85,35.95l-0.1-0.1h-0.3l-0.4,0.1 M63.25,35.25v2.4
		 M88.45,95.15l-4.7-2.7 M90.05,91.65l-1.8-1.1 M77.25,63.25l-1.8-1.1 M92.75,87.05l-1.9-1.1 M75.15,83.65l3.6-2.1 M79.45,79.65
		v-14.3 M74.95,61.35l-0.4,0.2 M93.95,82.85l-1.9-1 M81.45,66.45v13.3 M82.55,81.85l6.6,3.7 M93.95,74.95l-1.9-1.1 M92.75,72.15
		l-1.9-1 M93.55,37.65l-0.2-0.3l-0.3-0.3l-0.5-0.3l-0.5-0.1 M74.65,61.75l-1.9-1.1 M90.05,70.65l-1.8-1.1 M97.25,49.15l-0.2-0.3
		l-0.4-0.3l-0.4-0.3l-0.5-0.1 M98.05,53.55l-0.1,0.3l-0.1,0.4l-0.1,0.5l-0.3,0.4 M97.95,52.35h-0.1l-0.1-0.1h-0.2h-0.2 M94.15,46.35
		l-2.6-8.1 M91.05,36.45h-0.1v-0.1h-0.1v-0.1h-0.1 M82.75,31.55l-45.1-26 M29.65,0.95L29.65,0.95l-0.1-0.1h-0.1h-0.1l-0.2-0.1
		 M27.05,0.75h-10.7 M13.15,1.65l-7.4,4.3 M95.75,108.65l-5.4,3.1 M96.85,106.45v-14.6 M96.35,88.15v-20.4 M96.85,64.35v-7.4
		 M66.55,42.95v2.4 M86.95,67.05l-13.3-7.7 M93.35,48.85l-6.7,3.9 M95.75,56.75l-5.4,3.1 M96.95,55.65L96.95,55.65v-0.5l0.1-1.1
		 M96.55,51.45h-0.1l-0.3-0.8l-0.3-0.8l-0.4-0.7"/>
	
		<path id="XMLID_3_" fill="none" stroke="#000000" stroke-width="0.5" stroke-linecap="round" stroke-linejoin="round" stroke-miterlimit="10" d="
		M21.95,76.85h-0.6h-0.5l-0.5-0.1l-0.5-0.1l-0.5-0.2l-0.4-0.1l-0.5-0.2l-0.3-0.2 M0.25,44.15v-0.4l0.1-0.5l0.1-0.4l0.1-0.5l0.2-0.5
		l0.2-0.5l0.2-0.4l0.2-0.5 M27.25,76.85h-5.3 M31.45,77.85l-0.4-0.2l-0.5-0.2l-0.5-0.2l-0.5-0.1l-0.6-0.1l-0.5-0.1l-0.6-0.1h-0.6
		 M1.35,40.45l2.7-4.6 M4.05,35.85l0.3-0.5l0.2-0.6l0.2-0.5l0.2-0.5l0.2-0.5l0.1-0.6v-0.5v-0.5 M21.95,68.15h-0.6h-0.5l-0.5-0.1
		l-0.5-0.1l-0.5-0.1l-0.4-0.2l-0.5-0.2l-0.3-0.2 M5.25,31.65v-7.9 M27.25,68.15h-5.3 M31.45,69.15l-0.4-0.2l-0.5-0.2l-0.5-0.2
		l-0.5-0.1l-0.6-0.1l-0.5-0.1h-0.6l-0.6-0.1 M10.75,50.25l0.1-0.4v-0.5l0.1-0.4l0.1-0.5l0.2-0.5l0.2-0.5l0.2-0.5l0.3-0.4
		 M5.25,23.75v-0.5v-0.4l-0.1-0.4l-0.2-0.4l-0.2-0.3l-0.2-0.3l-0.2-0.3l-0.3-0.2 M11.95,46.55l2.6-4.6 M14.55,41.95l0.3-0.6l0.2-0.5
		l0.3-0.5l0.1-0.5l0.2-0.6l0.1-0.5v-0.5l0.1-0.5 M18.15,75.95l-13.9-8 M0.25,61.05v-16.9 M12.75,69.95l-0.3-0.2l-0.4-0.4l-0.3-0.3
		l-0.3-0.5l-0.3-0.5l-0.2-0.4l-0.1-0.5l-0.1-0.5 M4.65,56.05l0.7,0.5l0.7,0.6l0.7,0.7l0.7,0.7l0.6,0.8l0.6,0.9l0.5,0.9l0.4,0.9
		l0.4,0.9l0.3,1l0.3,0.9l0.2,0.9v0.9 M4.65,56.05l-0.4-0.3l-0.3-0.3l-0.3-0.4l-0.3-0.5l-0.3-0.5l-0.1-0.5l-0.1-0.4l-0.1-0.5
		 M4.25,67.95l-0.5-0.4l-0.6-0.4l-0.5-0.6l-0.5-0.6l-0.5-0.6l-0.4-0.7l-0.3-0.7l-0.3-0.8l-0.2-0.7l-0.1-0.7l-0.1-0.7 M6.85,63.85
		v0.4l-0.1,0.3l-0.2,0.2l-0.2,0.2l-0.3,0.1h-0.4l-0.3-0.2l-0.4-0.2l-0.3-0.2l-0.3-0.4l-0.3-0.4l-0.3-0.5l-0.1-0.4l-0.1-0.5l-0.1-0.4
		l0.1-0.4l0.1-0.3l0.1-0.3l0.3-0.1l0.3-0.1h0.3l0.3,0.1l0.4,0.2l0.3,0.3l0.4,0.4l0.3,0.4l0.2,0.4l0.2,0.5l0.1,0.4V63.85
		 M18.15,67.25l-5.3-3 M10.75,60.75v-10.5 M12.85,64.25l-0.4-0.3l-0.4-0.4l-0.4-0.4l-0.3-0.4l-0.2-0.5l-0.2-0.5l-0.1-0.5l-0.1-0.5
		 M14.35,62.15l-0.2-0.1l-0.2-0.2l-0.2-0.2l-0.2-0.2l-0.1-0.3l-0.1-0.2v-0.3v-0.2 M4.05,20.95l-2.7-1.5 M2.75,52.65v-7 M6.55,22.45
		l-2.7-1.6 M7.75,25.15v-0.5v-0.4l-0.1-0.4l-0.2-0.4l-0.2-0.3l-0.2-0.3l-0.2-0.2l-0.3-0.2 M7.75,33.15v-8 M6.55,37.25l0.3-0.5
		l0.2-0.5l0.2-0.5l0.2-0.6l0.2-0.5l0.1-0.5v-0.5v-0.5 M3.85,41.85l2.7-4.6 M2.75,45.65v-0.4l0.1-0.5l0.1-0.5l0.1-0.5l0.2-0.4
		l0.2-0.5l0.2-0.5l0.2-0.5 M10.85,22.45v25.5 M10.85,47.95l0.1,0.4l0.1,0.3 M1.35,19.45l-0.2-0.2l-0.2-0.2l-0.2-0.2l-0.2-0.3
		l-0.1-0.4l-0.1-0.3l-0.1-0.4v-0.5 M3.85,20.85h-0.1l-0.1-0.1l-0.1-0.1l-0.1-0.2l-0.1-0.1l-0.1-0.1l-0.1-0.2l-0.1-0.1 M3.05,19.95
		l-0.1-0.6l0.2-0.4l0.2-0.2 M15.85,22.35v15.4 M63.25,96.25l-31.8-18.4 M64.95,98.65v-0.4l-0.1-0.3l-0.2-0.3l-0.2-0.3l-0.2-0.3
		l-0.3-0.3l-0.4-0.3l-0.3-0.2 M18.35,20.95l-5,2.9 M18.35,39.25v-18.3 M18.35,39.25l-0.1,0.4v0.6l-0.1,0.5l-0.2,0.5l-0.1,0.5
		l-0.2,0.6l-0.3,0.5l-0.3,0.5 M17.05,43.35l-2.6,4.6 M14.45,47.95l-0.3,0.5l-0.2,0.5l-0.2,0.4l-0.2,0.5l-0.1,0.5l-0.1,0.5v0.4v0.5
		 M13.35,51.75v8.7 M63.25,87.55l-31.8-18.4 M64.95,89.95v-0.3l-0.1-0.4l-0.2-0.3l-0.2-0.3l-0.2-0.3l-0.3-0.3l-0.4-0.3l-0.3-0.2
		 M66.55,103.95l-0.4-0.3l-0.3-0.2l-0.3-0.3l-0.2-0.3l-0.2-0.2l-0.1-0.3l-0.1-0.3v-0.3 M64.95,98.85v2.9 M18.15,17.65l-3.8-2.2
		 M6.85,13.85v0.4l-0.1,0.4l-0.2,0.2l-0.2,0.2l-0.3,0.1l-0.4-0.1l-0.3-0.1l-0.4-0.2l-0.3-0.3l-0.3-0.3l-0.3-0.4l-0.3-0.5l-0.1-0.4
		l-0.1-0.5l-0.1-0.4l0.1-0.4l0.1-0.3l0.1-0.3l0.3-0.2h0.3h0.3l0.3,0.1l0.4,0.2l0.3,0.3l0.4,0.4l0.3,0.4l0.2,0.4l0.2,0.5l0.1,0.4
		V13.85 M0.25,9.05l0.1-0.6l0.1-0.6l0.2-0.5l0.3-0.4l0.3-0.3l0.4-0.3l0.5-0.1h0.5h0.5l0.6,0.2l0.5,0.3 M0.25,16.95v-7.9 M3.35,18.75
		l0.2-0.1h0.1h0.2h0.2h0.1l0.2,0.1l0.2,0.1l0.2,0.1 M4.75,18.95l8.6,4.9 M13.35,16.05v7.8 M13.35,16.05v-0.3v-0.1l0.1-0.2l0.1-0.1
		h0.2l0.2-0.1l0.2,0.1l0.2,0.1 M21.95,18.55h-0.6l-0.5-0.1h-0.5l-0.5-0.1l-0.5-0.2l-0.4-0.1l-0.5-0.2l-0.3-0.2 M27.25,18.55h-5.3
		 M31.45,19.55l-0.4-0.2l-0.5-0.2l-0.5-0.2l-0.5-0.2l-0.6-0.1h-0.5l-0.6-0.1h-0.6 M66.55,95.25l-0.4-0.2l-0.3-0.3l-0.3-0.3l-0.2-0.2
		l-0.2-0.3l-0.1-0.3l-0.1-0.3v-0.3 M64.95,90.15v2.9 M18.15,73.05l-5.4-3.1 M21.95,73.95h-0.6h-0.5l-0.5-0.1l-0.5-0.1l-0.5-0.1
		l-0.4-0.2l-0.5-0.2l-0.3-0.2 M27.25,73.95h-5.3 M31.45,74.95l-0.4-0.2l-0.5-0.2l-0.5-0.2l-0.5-0.1l-0.6-0.1l-0.5-0.1l-0.6-0.1h-0.6
		 M63.25,93.35l-31.8-18.4 M64.95,95.75v-0.3l-0.1-0.4l-0.2-0.3l-0.2-0.3l-0.2-0.3l-0.3-0.3l-0.4-0.3l-0.3-0.2 M64.95,98.85v-3.1
		 M66.55,101.05l-0.4-0.3l-0.3-0.2l-0.3-0.3l-0.2-0.2l-0.2-0.3l-0.1-0.3l-0.1-0.3v-0.3 M64.95,90.15v0.3l0.1,0.3l0.1,0.3l0.2,0.3
		l0.2,0.3l0.3,0.2l0.3,0.3l0.4,0.2 M14.35,62.15l3.8,2.2 M18.15,64.35l0.3,0.2l0.5,0.2l0.4,0.2l0.5,0.1l0.5,0.1l0.5,0.1h0.5h0.6
		 M21.95,65.25h5.3 M27.25,65.25l0.6,0.1h0.6l0.5,0.1l0.6,0.1l0.5,0.1l0.5,0.2l0.5,0.2l0.4,0.2 M31.45,66.25l31.8,18.4 M63.25,84.65
		l0.3,0.2l0.4,0.3l0.3,0.3l0.2,0.3l0.2,0.3l0.2,0.3l0.1,0.4v0.3 M64.95,87.05v3.1 M71.35,93.95v-8.7 M75.85,89.65l1.3,0.7
		 M71.85,98.25l-5.3-3 M73.85,97.15l-0.1,0.4l-0.1,0.4l-0.2,0.3l-0.2,0.2l-0.3,0.1h-0.4l-0.3-0.1l-0.4-0.2 M73.85,90.75v6.4
		 M73.85,90.75v-0.4l0.1-0.4l0.2-0.3l0.3-0.2l0.3-0.1h0.3l0.4,0.1l0.4,0.2 M71.35,93.95v0.2l-0.1,0.2l-0.1,0.1l-0.1,0.1l-0.2,0.1
		h-0.1h-0.2l-0.2-0.1 M66.55,92.35l3.8,2.2 M72.45,81.45l2.7-4.6 M80.15,88.65l-3,1.7 M77.15,88.55v1.8 M75.15,76.85l0.2-0.5
		l0.3-0.5l0.2-0.6l0.2-0.5l0.1-0.5l0.1-0.5l0.1-0.6v-0.4 M71.35,85.25v-0.5l0.1-0.4v-0.5l0.2-0.5l0.1-0.5l0.2-0.4l0.2-0.5l0.3-0.5
		 M77.25,87.35v0.2v0.2l-0.1,0.1v0.1v0.2v0.1v0.2v0.1 M74.95,86.05l-0.1-0.1l-0.2-0.1l-0.1-0.2l-0.1-0.2l-0.1-0.2l-0.1-0.2v-0.3
		v-0.2l0.1-0.2v-0.3 M80.15,88.65l3.3,1.9 M80.15,85.75v2.9 M98.05,90.15L98.05,90.15h-0.1h-0.1h-0.1h-0.2h-0.1h-0.2l-0.2,0.1h-0.2
		 M76.35,72.75v-8 M74.95,86.05l2.3,1.3 M80.15,85.75l-2.9,1.6 M85.95,89.15l-5.8-3.4 M85.95,89.15l-2.9,1.6 M63.25,37.85
		l-31.8-18.3 M76.35,64.75v-0.5l-0.1-0.4l-0.1-0.4l-0.1-0.4l-0.2-0.3l-0.2-0.3l-0.3-0.2l-0.2-0.2 M89.25,112.45v0.6l-0.1,0.6
		l-0.2,0.5l-0.3,0.4l-0.4,0.3l-0.4,0.3l-0.4,0.1h-0.5l-0.6-0.1l-0.5-0.1l-0.6-0.3 M82.95,93.75v-1.8 M82.95,93.75l1.8,1
		 M84.75,94.75l0.4,0.3l0.4,0.3l0.3,0.4l0.3,0.5l0.3,0.5l0.2,0.5l0.1,0.5v0.5 M86.75,98.25v2.9 M86.75,101.15v0.4l-0.1,0.4l-0.2,0.3
		l-0.2,0.2l-0.3,0.1h-0.3h-0.4l-0.4-0.2 M78.75,105.85l0.1-0.7l0.2-0.8l0.2-0.6l0.3-0.6l0.4-0.5l0.5-0.4l0.5-0.3l0.5-0.2l0.7-0.1
		l0.6,0.1l0.7,0.1l0.7,0.2l0.7,0.3 M78.75,105.85l-0.1,0.4l-0.1,0.4l-0.2,0.2l-0.2,0.2l-0.3,0.1h-0.4l-0.3-0.1l-0.4-0.1
		 M76.75,106.95l-10.2-5.9 M85.25,114.75l-18.7-10.8 M86.05,109.55v0.4l-0.1,0.3l-0.2,0.3l-0.2,0.1l-0.3,0.1h-0.3l-0.4-0.1l-0.4-0.2
		l-0.3-0.3l-0.3-0.4l-0.3-0.4l-0.3-0.4l-0.1-0.5l-0.1-0.4l-0.1-0.5l0.1-0.4l0.1-0.3l0.1-0.2l0.3-0.2l0.3-0.1h0.3l0.3,0.1l0.4,0.3
		l0.4,0.2l0.3,0.4l0.3,0.4l0.2,0.4l0.2,0.5l0.1,0.5V109.55 M64.95,40.35v-0.4l-0.1-0.3l-0.2-0.3l-0.2-0.4l-0.2-0.3l-0.3-0.3
		l-0.4-0.2l-0.3-0.3 M87.85,90.35l-0.1,0.2v0.1l-0.1,0.2l-0.1,0.1v0.2l-0.1,0.1l-0.1,0.2v0.1 M87.35,91.55l-0.2,0.2l-0.1,0.3
		l-0.1,0.1l-0.2,0.2l-0.2,0.1h-0.1h-0.2h-0.2h-0.1l-0.1-0.1 M83.05,90.75l2.8,1.6 M82.95,91.95v-0.2v-0.1v-0.1v-0.2l0.1-0.1v-0.2
		v-0.1v-0.2 M90.55,85.75l-2.7,4.6 M75.15,62.05l-2.7-1.6 M91.75,81.65v0.5l-0.1,0.5l-0.1,0.5l-0.1,0.5l-0.2,0.5l-0.2,0.6l-0.2,0.5
		l-0.3,0.5 M77.65,78.35l-2.7,4.6 M74.95,82.95l-0.1,0.1l-0.1,0.1v0.2l-0.1,0.1l-0.1,0.2v0.1l-0.1,0.2l-0.1,0.1 M74.95,61.95
		l2.7,1.5 M77.65,63.45l0.2,0.2l0.3,0.2l0.2,0.3l0.2,0.4l0.1,0.3l0.1,0.4l0.1,0.5v0.4 M78.85,66.15v8 M78.85,74.15v0.5l-0.1,0.5
		l-0.1,0.5l-0.1,0.5l-0.2,0.6l-0.2,0.5l-0.3,0.5l-0.2,0.6 M91.75,73.65v8 M66.55,45.55l-0.4-0.2l-0.3-0.2l-0.3-0.3l-0.2-0.3
		l-0.2-0.3l-0.1-0.3l-0.1-0.3v-0.3 M64.95,40.45v2.9 M90.55,70.95l0.3,0.2l0.2,0.2l0.2,0.3l0.2,0.3l0.1,0.4l0.1,0.4l0.1,0.4v0.5
		 M96.35,90.35l0.3-0.1l0.3-0.1l0.1-0.2l0.1-0.2l0.1-0.1 M87.85,69.35l2.7,1.6 M74.55,61.55v0.1h0.1v0.1h0.1v0.1h0.1l0.1,0.1
		 M74.55,61.55l-0.1-0.1l-0.1-0.1v-0.1v-0.1h0.1h0.1h0.2h0.1l0.1,0.1h0.1 M85.95,67.55l-10.9-6.3 M85.95,67.55l0.3,0.3l0.4,0.3
		l0.3,0.3l0.2,0.3l0.3,0.3 M87.45,69.05L87.45,69.05l0.1,0.1l0.1,0.1h0.1v0.1h0.1 M72.45,60.45l-0.3-0.2l-0.2-0.2l-0.2-0.2l-0.1-0.3
		l-0.2-0.4v-0.3l-0.1-0.4v-0.4 M96.85,65.25l0.2-0.3l0.2-0.2l0.2-0.3l0.1-0.3l0.2-0.4l0.1-0.5l0.1-0.4l0.1-0.4v-0.6 M79.45,47.75
		l0.4,0.2l0.3,0.1h0.5h0.4l0.4-0.1l0.4-0.1l0.3-0.2l0.2-0.2l0.1-0.2v-0.3v-0.2l-0.2-0.2l-0.3-0.2l-0.3-0.2l-0.4-0.1h-0.4h-0.4
		l-0.5,0.1l-0.3,0.1l-0.3,0.2l-0.2,0.2l-0.2,0.2v0.3l0.1,0.2l0.2,0.2L79.45,47.75 M11.75,8.65l0.3,0.2l0.4,0.1h0.4h0.5l0.4-0.1
		l0.3-0.1l0.3-0.2l0.2-0.2l0.2-0.2v-0.3l-0.1-0.2l-0.2-0.2l-0.2-0.2l-0.4-0.2l-0.3-0.1h-0.5h-0.4l-0.4,0.1l-0.4,0.1l-0.3,0.2
		l-0.2,0.2l-0.1,0.2v0.3v0.2l0.2,0.2L11.75,8.65 M18.15,14.75l-13.9-8 M21.95,15.65h-0.6l-0.5-0.1h-0.5l-0.5-0.1l-0.5-0.2l-0.4-0.1
		l-0.5-0.2l-0.3-0.2 M27.25,15.65h-5.3 M31.45,16.65l-0.4-0.2l-0.5-0.2l-0.5-0.2l-0.5-0.1l-0.6-0.2h-0.5l-0.6-0.1h-0.6 M63.25,34.95
		l-31.8-18.3 M64.95,37.45v-0.4l-0.1-0.3l-0.2-0.3l-0.2-0.4l-0.2-0.3l-0.3-0.2l-0.4-0.3l-0.3-0.3 M64.95,40.45v-3 M66.55,42.65
		l-0.4-0.2l-0.3-0.2l-0.3-0.3l-0.2-0.3l-0.2-0.3l-0.1-0.3l-0.1-0.3v-0.3 M90.35,91.85l-0.2,0.4l-0.2,0.5l-0.2,0.5l-0.2,0.5l-0.1,0.5
		l-0.1,0.4l-0.1,0.5v0.4 M89.25,95.55v16.9 M96.85,90.25h-0.2l-0.1,0.1h-0.2 M96.35,65.55l0.2-0.1l0.1-0.1l0.2-0.1 M89.25,68.35v0.4
		l0.1,0.4l0.1,0.4l0.1,0.3l0.2,0.3l0.2,0.3l0.2,0.2l0.2,0.2 M90.35,70.85l2.7,1.5 M93.05,72.35l0.3,0.2l0.2,0.3l0.2,0.2l0.2,0.4
		l0.1,0.3l0.1,0.4l0.1,0.5v0.4 M94.25,75.05v8 M94.25,83.05v0.5l-0.1,0.5l-0.1,0.5l-0.1,0.6l-0.2,0.5l-0.2,0.5l-0.2,0.5l-0.3,0.6
		 M93.05,87.25l-2.7,4.6 M86.05,59.65v0.4l-0.1,0.3l-0.2,0.2l-0.2,0.2l-0.3,0.1h-0.3l-0.4-0.1l-0.4-0.3l-0.3-0.2l-0.3-0.4l-0.3-0.4
		l-0.3-0.4l-0.1-0.5l-0.1-0.5l-0.1-0.4l0.1-0.4l0.1-0.3l0.1-0.3l0.3-0.1l0.3-0.1h0.3l0.3,0.1l0.4,0.2l0.4,0.3l0.3,0.4l0.3,0.4
		l0.2,0.4l0.2,0.5l0.1,0.4V59.65 M85.25,53.55l-18.7-10.9 M70.35,47.75l-3.8-2.2 M70.35,47.75l0.2,0.2l0.2,0.1l0.1,0.2l0.2,0.3
		l0.1,0.2l0.1,0.3l0.1,0.2v0.3 M71.35,58.05v-8.5 M89.25,60.45v7.9 M85.25,53.55l0.6,0.3l0.5,0.5l0.6,0.5l0.5,0.6l0.4,0.7l0.4,0.7
		l0.4,0.7l0.3,0.8l0.2,0.7l0.1,0.7v0.7 M31.25,0.85l-0.5-0.2l-0.5-0.2l-0.6-0.1l-0.6-0.1h-0.3 M14.55,0.25h-0.5l-0.9,0.1l-0.9,0.2
		l-0.8,0.3l-0.8,0.3l-0.3,0.2 M28.75,0.25h-14.2 M10.35,1.35l-8.9,5.1 M96.55,110.15l0.3-0.2l0.3-0.3l0.3-0.3v-0.1 M73.25,98.45
		l9.7-5.6 M97.55,109.15l0.3-0.5l0.1-0.5l0.1-0.4v-0.2 M88.05,115.05l8.5-4.9 M86.75,98.55l-6.1,3.6 M98.05,107.55v-17.4
		 M98.05,90.15l-0.8-2.6 M92.05,35.95l-60.8-35.1 M93.75,38.05l-0.2-0.5l-0.3-0.5l-0.3-0.4l-0.4-0.3l-0.5-0.4 M97.25,89.65v-24.9
		 M97.45,49.45l-3.7-11.4 M98.05,61.85v-8.7 M98.05,52.45l-0.1-0.4l-0.1-0.5l-0.1-0.6l-0.1-0.6l-0.1-0.5l-0.1-0.4 M98.05,53.15v-0.4
		l-0.1-0.3"/>
</g>
</svg>
