<?xml version="1.0" encoding="utf-8"?>
<!-- Generator: Adobe Illustrator 19.0.0, SVG Export Plug-In . SVG Version: 6.00 Build 0)  -->
<svg version="1.0" id="Layer_1" xmlns="http://www.w3.org/2000/svg" xmlns:xlink="http://www.w3.org/1999/xlink" x="0px" y="0px"
	 width="98.4px" height="111.6px" viewBox="0 0 98.4 111.6" enable-background="new 0 0 98.4 111.6" xml:space="preserve">
<g id="XMLID_2_">
	
		<path id="XMLID_163_" fill="none" stroke="#000000" stroke-width="0.25" stroke-linecap="round" stroke-linejoin="round" stroke-miterlimit="10" d="
		M0.25,58.25L0.25,58.25l0.1,0.3 M3.45,63.85v-0.1l-0.2-0.2 M22.15,59.95l-1.8,1.1 M19.85,30.95l-1.9-1.1 M9.85,31.85l-1.9,1.1
		 M16.05,35.45l-1.9,1.1 M17.15,51.35l-1.9,1 M16.15,35.45l-1.9,1.1 M17.15,37.25l-1.9,1.1 M0.35,55.05v0.2l0.1,0.3 M6.95,31.15
		l1.9-1.1 M0.25,9.15l0.1,0.2l0.1,0.3 M7.55,18.25l-0.8,0.4 M2.55,2.15l0.2-0.1h0.5 M0.25,6.05v0.1l0.1,0.2 M3.15,5.05l0.1-0.4
		l0.2-0.4l0.3-0.4l0.3-0.4l0.3-0.4 M17.15,20.05l-1.9,1 M17.15,19.85l-1.9,1.1 M6.25,65.35l-0.2-0.1l-0.2-0.3 M66.25,85.45l-1.9,1.1
		 M81.95,109.05l-0.1-0.1l-0.2-0.3 M84.65,110.65L84.65,110.65l-0.2-0.2 M90.05,108.55l-0.1,0.8l-0.2,0.5 M86.95,108.65l0.4,0.1h0.5
		h0.5h0.4l0.5-0.2 M76.65,79.05l1.3-0.8 M5.75,6.95l0.1-0.4l0.2-0.5l0.3-0.5l0.3-0.5l0.3-0.4 M86.55,105.45l0.5,0.1l0.5,0.1h0.5h0.6
		l0.5-0.1 M7.75,1.05l-2.3,1.3 M5.45,2.75l1,0.6 M17.05,9.45l57.2,33 M92.75,106.65l-2.3,1.4 M90.15,64.85v34.7 M90.05,105.55v1
		 M86.05,99.55v-34.7 M72.25,45.95l-57.2-33.1 M1.15,15.85v34.7 M15.05,69.45l57.2,33 M83.75,47.95l0.9,0.6 M81.55,50.75l0.1-0.5
		l0.2-0.5l0.2-0.5l0.3-0.4l0.4-0.4 M86.55,59.45l0.5,0.2l0.5,0.1h0.5h0.6l0.5-0.1 M90.05,56.65v1.3 M92.75,54.75l-2.3,1.3
		 M88.75,47.75l-2.3,1.4 M86.95,56.45l0.4,0.1l0.5,0.1h0.5h0.4l0.5-0.1 M86.95,49.95l0.1,0.1l0.7,0.6l0.6,0.7l0.5,0.8l0.4,0.9
		l0.4,0.8 M84.25,51.95l0.2-0.4l0.2-0.5l0.2-0.4l0.3-0.4l0.3-0.4"/>
	
		<path id="XMLID_3_" fill="none" stroke="#000000" stroke-width="0.5" stroke-linecap="round" stroke-linejoin="round" stroke-miterlimit="10" d="
		M4.95,56.65h-0.1l-0.3,0.1l-0.3,0.1l-0.1,0.3l-0.2,0.3v0.4v0.4l0.2,0.5l0.1,0.4l0.3,0.5l0.3,0.4l0.3,0.3l0.3,0.3l0.4,0.2l0.3,0.2
		h0.4l0.3-0.1l0.2-0.2l0.2-0.2 M1.15,56.15l-0.2,0.2l-0.1,0.3l-0.1,0.4l-0.1,0.3v0.4v0.4v0.5l0.1,0.4 M0.75,59.05l0.2,0.5l0.2,0.6
		l0.2,0.5l0.3,0.5l0.3,0.5l0.3,0.5l0.4,0.4l0.4,0.4 M3.05,62.95l0.3,0.3l0.4,0.2l0.3,0.3l0.4,0.1l0.3,0.2h0.3l0.4,0.1h0.3
		 M17.65,29.65l0.4-0.2l0.4-0.1h0.3l0.3,0.1 M27.45,64.55v-1.9 M27.45,62.65l-4.9-2.8 M24.95,64.15l2.5-1.5 M22.55,59.85l-0.7-0.4
		l-0.5-0.5l-0.6-0.5l-0.6-0.7l-0.5-0.6l-0.5-0.7l-0.4-0.8l-0.4-0.7l-0.3-0.8l-0.2-0.8l-0.2-0.8l-0.1-0.7l-0.1-0.7 M10.45,31.15
		l-0.3,0.5 M10.45,31.15l0.3-0.5l0.2-0.5l0.2-0.5l0.2-0.5l0.1-0.5l0.1-0.5l0.1-0.5v-0.5 M11.65,20.45v6.7 M9.15,29.95v0.2l0.1,0.3
		v0.2l0.2,0.3l0.1,0.2l0.2,0.2l0.2,0.2l0.2,0.1 M22.15,33.25v-1 M22.15,32.25v-0.4l-0.1-0.4l-0.2-0.3l-0.3-0.2l-0.3-0.1h-0.3h-0.4
		l-0.4,0.2 M17.45,43.75l0.2-0.4l0.2-0.5l0.2-0.5l0.3-0.5 M18.35,41.85l2.6-4.6 M22.15,33.25v0.5l-0.1,0.5l-0.1,0.5l-0.1,0.5
		l-0.2,0.5l-0.2,0.5l-0.2,0.5l-0.3,0.5 M16.35,35.25l-1.7-1 M20.15,31.05l-5.5,3.2 M17.65,29.65l-3.5,2 M14.15,31.65l-0.4,0.2
		l-0.5,0.2l-0.6,0.1h-0.5h-0.6l-0.5-0.1l-0.5-0.2l-0.4-0.2 M16.45,35.35v-0.1h-0.1 M17.45,51.15v-14.1 M17.45,37.05v-0.2v-0.3
		l-0.1-0.2l-0.2-0.3l-0.1-0.2l-0.2-0.2l-0.2-0.2l-0.2-0.1 M9.15,29.95v-10.9 M8.15,0.85l-0.6-0.3l-0.6-0.2l-0.5-0.1h-0.5l-0.5,0.2
		l-0.2,0.1 M17.15,20.45l0.2-0.1l0.1-0.1v-0.2v-0.2 M4.95,6.75h-0.1h-0.3l-0.3,0.2l-0.1,0.3l-0.2,0.3v0.4v0.4l0.2,0.5l0.1,0.4
		l0.3,0.5l0.3,0.4l0.3,0.3l0.3,0.3l0.4,0.2l0.3,0.1l0.4,0.1l0.3-0.1l0.2-0.2l0.2-0.2 M5.75,7.55l-0.3-0.4l-0.4-0.3l-0.3-0.3
		l-0.3-0.3l-0.4-0.2l-0.3-0.2l-0.4-0.2l-0.3-0.1 M3.05,5.55h-0.4h-0.4l-0.3,0.1l-0.3,0.1l-0.3,0.2l-0.2,0.3l-0.2,0.3l-0.2,0.3
		 M0.75,6.85l-0.1,0.4v0.3v0.4v0.5l0.1,0.4l0.1,0.4l0.1,0.5l0.2,0.4 M17.45,19.85v-0.2 M55.35,80.65v-1.9 M55.35,78.75l-25.4-14.6
		 M29.95,64.15l-2.5,1.4 M52.85,80.25l2.5-1.5 M17.45,19.65l0.1-0.7l0.1-0.6l0.2-0.6l0.1-0.2 M26.55,20.15l-1.6,0.9 M66.55,85.25
		l-8.7-5 M57.85,80.25l-2.5,1.4 M68.95,84.95l-0.1-0.2l-0.1-0.3v-0.4 M68.75,84.05v-3 M67.05,78.65l0.4,0.3l0.3,0.2l0.3,0.3l0.2,0.3
		l0.2,0.3l0.1,0.3l0.1,0.3l0.1,0.4 M67.05,78.65l-31.8-18.3 M31.25,59.45h0.6h0.5l0.6,0.1l0.5,0.1l0.5,0.1l0.5,0.2l0.4,0.2l0.4,0.2
		 M31.25,59.45h-5.3 M25.95,59.45l-0.5-0.1h-0.6l-0.5-0.1l-0.6-0.1l-0.5-0.1l-0.4-0.2l-0.5-0.2l-0.4-0.2 M21.95,58.45l-2.3-1.3
		 M27.45,64.55l-2.5,1.4 M55.35,80.65l-2.5,1.4 M68.65,85.95l-0.3-0.1l-0.6-0.1l-0.6-0.2l-0.6-0.3 M91.95,109.05l0.2-0.1l0.3-0.3
		l0.3-0.5l0.2-0.5l0.1-0.5l0.1-0.7 M78.15,78.15l-0.1,0.5l0.1,0.6l0.2,0.4 M84.15,102.35h-0.1l-0.3,0.1l-0.3,0.2l-0.1,0.2l-0.1,0.3
		l-0.1,0.4l0.1,0.5l0.1,0.4l0.1,0.5l0.3,0.4l0.3,0.4l0.3,0.4l0.3,0.3l0.4,0.2l0.3,0.1h0.4l0.3-0.1l0.2-0.1l0.2-0.3 M81.45,107.85
		l0.3,0.4l0.4,0.3l0.3,0.3l0.3,0.3l0.4,0.2l0.4,0.2l0.3,0.2l0.3,0.1 M84.15,109.85h0.4h0.4l0.3-0.1l0.3-0.1l0.3-0.2l0.2-0.3l0.2-0.3
		l0.2-0.3 M86.45,108.55l0.1-0.4v-0.4v-0.4v-0.4l-0.1-0.4l-0.1-0.5l-0.1-0.4l-0.2-0.5 M77.65,73.55l-0.8-0.4 M77.65,77.15v-3.6
		 M76.35,77.95v1.2 M76.35,77.95l1.3-0.8 M77.65,73.55l-2.5,1.5 M54.45,36.25l-1.6,0.9 M82.65,81.25l-3.6-2 M82.45,82.65l0.2,0.1
		 M79.05,79.25l-1.3,0.7 M76.35,79.15l1.4,0.8 M76.35,79.15l-1.2,0.7 M82.45,82.65l0.2-0.1 M78.15,78.15l0.1-0.2l0.1-0.1l0.1-0.2
		v-0.2l0.1-0.2l0.1-0.1l0.1-0.2l0.1-0.2 M78.85,76.75l2.7-4.6 M82.65,68.25v0.4v0.5l-0.1,0.5l-0.2,0.5l-0.1,0.5l-0.2,0.5l-0.3,0.5
		l-0.2,0.5 M82.65,68.25v-0.8 M83.45,78.95l-0.8,0.4 M76.85,73.15v-9.1 M76.85,73.15l-2.5,1.4 M70.35,36.75l18.8,10.8 M68.75,34.45
		v0.3l0.1,0.3l0.1,0.3l0.2,0.3l0.2,0.3l0.3,0.3l0.3,0.3l0.4,0.2 M68.75,31.35v3.1 M68.75,31.35l-0.1-0.3l-0.1-0.3l-0.1-0.3l-0.2-0.3
		l-0.2-0.3l-0.3-0.3l-0.3-0.3l-0.4-0.2 M35.25,10.75l31.8,18.3 M35.25,10.75l-0.4-0.3l-0.4-0.1l-0.5-0.2l-0.5-0.1l-0.5-0.2h-0.6
		l-0.5-0.1h-0.6 M25.95,9.75h5.3 M21.95,8.75l0.4,0.3l0.5,0.2l0.4,0.1l0.5,0.2l0.6,0.1h0.5l0.6,0.1h0.5 M8.15,0.85l13.8,7.9
		 M93.15,62.65v-8.1 M93.15,106.45v-16.8 M93.15,89.65v-0.5v-0.5l0.1-0.5l0.2-0.5l0.1-0.5l0.2-0.5l0.3-0.5l0.2-0.5 M94.25,85.65
		l2.7-4.6 M98.15,77.15v0.4l-0.1,0.5l-0.1,0.5l-0.1,0.5l-0.2,0.5l-0.2,0.5l-0.2,0.5l-0.3,0.5 M98.15,77.15v-7.8 M96.95,66.75
		l0.3,0.2l0.2,0.3l0.2,0.2l0.2,0.3l0.1,0.4l0.1,0.4l0.1,0.4v0.4 M96.95,66.75l-2.7-1.5 M94.25,65.25l-0.2-0.2l-0.3-0.2l-0.2-0.3
		l-0.1-0.3l-0.2-0.3l-0.1-0.4v-0.4v-0.5 M83.45,67.95l-9.1-5.3 M83.45,79.85v-11.9 M82.65,79.35l0.8,0.5 M82.65,84.15v-4.8
		 M75.15,79.85l7.5,4.3 M75.15,75.05v4.8 M74.35,74.55l0.8,0.5 M74.35,62.65v11.9 M52.85,37.15l-25.4-14.6 M52.85,35.25v1.9
		 M55.35,36.75l-2.5-1.5 M55.35,38.55v-1.8 M64.05,43.65l-8.7-5.1 M69.05,52.35v-0.8l-0.1-0.7l-0.2-0.8l-0.3-0.8l-0.3-0.7l-0.4-0.8
		l-0.4-0.7l-0.5-0.8l-0.5-0.6l-0.5-0.6l-0.6-0.6l-0.6-0.4l-0.6-0.4 M69.05,83.75v-31.4 M64.05,86.65l0.6,0.3l0.6,0.3l0.6,0.1h0.5
		h0.5l0.5-0.2l0.4-0.3l0.4-0.3l0.3-0.4l0.3-0.5l0.2-0.6l0.1-0.6v-0.7 M55.35,81.65l8.7,5 M55.35,83.45v-1.8 M52.85,82.05l2.5,1.4
		 M52.85,80.25v1.8 M27.45,65.55l25.4,14.7 M27.45,67.45v-1.9 M24.95,65.95l2.5,1.5 M24.95,64.15v1.8 M19.95,61.25l5,2.9
		 M14.95,52.55l0.1,0.7l0.1,0.8l0.2,0.8l0.2,0.7l0.3,0.8l0.4,0.8l0.4,0.7l0.5,0.7l0.5,0.7l0.6,0.6l0.5,0.5l0.6,0.5l0.6,0.4
		 M14.95,38.55v14 M13.95,36.75l0.2,0.1l0.2,0.2l0.2,0.2l0.1,0.2l0.2,0.3l0.1,0.3v0.2v0.3 M13.85,36.65L13.85,36.65v0.1h0.1
		 M7.65,33.15l6.2,3.5 M7.65,33.15l-0.2-0.2l-0.2-0.2l-0.2-0.2l-0.1-0.2l-0.2-0.2l-0.1-0.3v-0.2v-0.3 M6.65,18.75v12.6 M6.65,18.75
		v-0.2v-0.2l0.1-0.1l0.2-0.1l0.1-0.1h0.2h0.2l0.2,0.1 M13.85,21.75l-6.2-3.6 M13.95,21.85L13.95,21.85l-0.1-0.1 M14.95,21.25v0.2
		v0.2l-0.1,0.2l-0.2,0.1h-0.1h-0.2h-0.2l-0.2-0.1 M14.95,21.05v0.2 M19.95,18.15l-0.6-0.3l-0.6-0.2l-0.5-0.1h-0.6h-0.5l-0.5,0.2
		l-0.4,0.2l-0.4,0.4l-0.3,0.4l-0.2,0.5l-0.2,0.5l-0.1,0.7l-0.1,0.6 M24.95,21.05l-5-2.9 M24.95,19.25v1.8 M27.45,20.65l-2.5-1.4
		 M27.45,22.55v-1.9 M1.15,10.15l0.2,0.7l0.4,0.6l0.4,0.5l0.4,0.6l0.4,0.4l0.5,0.5l0.5,0.3l0.5,0.2l0.5,0.2l0.4,0.1l0.5-0.1l0.4-0.1
		l0.3-0.2l0.3-0.2l0.2-0.4l0.2-0.4l0.1-0.5v-0.6v-0.6l-0.1-0.6l-0.2-0.6l-0.3-0.7l-0.3-0.6l-0.3-0.6l-0.4-0.5 M5.75,64.15l0.4-0.1
		l0.3-0.2l0.3-0.3l0.3-0.3l0.2-0.4l0.1-0.5v-0.6v-0.5l-0.1-0.7l-0.2-0.6l-0.2-0.6l-0.3-0.6l-0.3-0.6l-0.4-0.6l-0.5-0.5l-0.4-0.5
		l-0.5-0.4l-0.5-0.3l-0.5-0.2l-0.5-0.2h-0.4h-0.4l-0.4,0.2l-0.4,0.2l-0.2,0.3 M86.05,105.15l-0.2-0.6l-0.4-0.6l-0.4-0.6l-0.4-0.5
		l-0.4-0.5l-0.5-0.4l-0.5-0.3l-0.5-0.2l-0.5-0.2l-0.4-0.1h-0.5l-0.3,0.2l-0.4,0.2l-0.3,0.2l-0.2,0.4l-0.2,0.4l-0.1,0.5v0.6v0.6
		l0.1,0.6l0.2,0.6l0.3,0.6l0.3,0.7l0.3,0.5l0.4,0.6 M84.15,52.45h-0.1l-0.3,0.1l-0.3,0.1l-0.1,0.3l-0.1,0.3l-0.1,0.4l0.1,0.4
		l0.1,0.5l0.1,0.4l0.3,0.5l0.3,0.4l0.3,0.4l0.3,0.2l0.4,0.2l0.3,0.2h0.4l0.3-0.1l0.2-0.2l0.2-0.2 M84.15,52.45l-0.3-0.3l-0.3-0.3
		l-0.4-0.2l-0.4-0.1l-0.3-0.2l-0.3-0.1h-0.4h-0.3 M81.45,51.25l-0.4,0.1l-0.3,0.2l-0.3,0.3l-0.3,0.3l-0.2,0.4l-0.1,0.5v0.5v0.6
		l0.1,0.6l0.2,0.7l0.2,0.6l0.3,0.6l0.4,0.6l0.3,0.6l0.5,0.5l0.4,0.5l0.5,0.3l0.5,0.4l0.5,0.2l0.5,0.1l0.4,0.1h0.4l0.4-0.2l0.4-0.2
		l0.2-0.3 M86.05,59.25l0.2-0.3l0.1-0.3l0.1-0.3l0.1-0.4v-0.3v-0.5v-0.4l-0.1-0.4 M93.15,54.55l-0.1-0.7l-0.1-0.7l-0.2-0.8l-0.3-0.7
		l-0.3-0.7l-0.4-0.7l-0.5-0.7l-0.5-0.6l-0.5-0.5l-0.6-0.5l-0.5-0.4 M86.45,56.35l-0.2-0.6l-0.2-0.5l-0.2-0.5l-0.3-0.5l-0.3-0.5
		l-0.3-0.5l-0.4-0.4l-0.4-0.4 M0.25,58.15v0.2l0.1,0.7l0.2,0.6l0.2,0.7l0.3,0.7l0.3,0.6l0.5,0.6l0.4,0.5l0.5,0.5l0.6,0.5l0.2,0.1
		 M0.25,54.95v0.1v0.4v0.5v0.8v0.8v0.6 M3.55,63.85l0.5,0.3l0.7,0.5l0.7,0.3l0.5,0.3l0.4,0.2 M21.55,30.95l-2.5-1.5 M0.25,9.05v45.9
		 M0.25,5.95v0.4v0.9v0.7v0.6v0.5 M5.25,0.55l-3,1.7 M2.25,2.25l-0.3,0.2l-0.4,0.4l-0.4,0.4l-0.3,0.5l-0.2,0.5l-0.2,0.5l-0.1,0.6
		l-0.1,0.6 M14.65,21.95l2.5-1.5 M6.35,65.45l75.7,43.7 M82.05,109.15l0.4,0.2l0.5,0.4l0.6,0.3l0.7,0.4l0.5,0.3 M88.95,110.85l3-1.8
		 M84.75,110.75l0.2,0.1l0.6,0.2l0.6,0.2l0.6,0.1h0.5l0.6-0.1l0.5-0.2l0.6-0.2v-0.1"/>
</g>
</svg>
