<?xml version="1.0" encoding="utf-8"?>
<!-- Generator: Adobe Illustrator 19.0.0, SVG Export Plug-In . SVG Version: 6.00 Build 0)  -->
<svg version="1.0" id="Layer_1" xmlns="http://www.w3.org/2000/svg" xmlns:xlink="http://www.w3.org/1999/xlink" x="0px" y="0px"
	 width="104.9px" height="97px" viewBox="0 0 104.9 97" enable-background="new 0 0 104.9 97" xml:space="preserve">
<g id="XMLID_2_">
	
		<path id="XMLID_323_" fill="none" stroke="#000000" stroke-width="0.25" stroke-linecap="round" stroke-linejoin="round" stroke-miterlimit="10" d="
		M31.85,55.85l-0.2-0.1l-0.4-0.1l-0.4-0.2l-0.3-0.2l-0.2-0.3l-0.1-0.2v-0.3 M23.45,47.65l0.2-0.1h0.3l0.3,0.1l0.4,0.1l0.3,0.2
		l0.3,0.3l0.3,0.3l0.3,0.4l0.2,0.4l0.2,0.5l0.1,0.4l0.1,0.4v0.4l-0.1,0.3l-0.1,0.3l-0.2,0.2l-0.1,0.1 M64.85,15.95v-0.2
		 M63.75,14.75l1.3-0.7 M60.85,18.25v-0.2 M58.15,30.45v-0.6 M84.15,33.15l1.1-0.7 M70.55,14.75l-1.3-0.7 M66.85,15.95v-0.2
		 M82.95,44.55h0.1 M85.95,31.15v0.4 M82.85,25.15v-0.2 M83.05,44.65v0.1v0.1 M87.15,24.35l-1.3-0.7 M83.05,41.25v2.9 M84.45,45.15
		l0.4,0.1l0.7,0.2l0.7,0.1h0.7h0.7l0.7-0.1l0.7-0.1l0.6-0.2l0.6-0.2l0.6-0.2l0.5-0.3 M93.35,42.35l0.1,0.3v0.4l-0.1,0.5l-0.2,0.4
		l-0.2,0.4l-0.4,0.4l-0.4,0.4l-0.5,0.3l-0.6,0.3l-0.7,0.3l-0.6,0.2l-0.8,0.1l-0.7,0.1 M85.55,51.35l0.4,0.2 M87.05,28.05l-1.1-1.8
		 M97.25,45.35v1.8 M80.25,32.65l0.1,0.6 M80.05,32.15l-1.1-1.8 M47.05,16.65l-1.3,0.7 M53.75,27.55v-1.1 M46.45,27.55v-1.1
		 M53.65,25.15v-1 M46.65,25.15v-1 M53.55,22.85v-1 M46.65,22.85v-1 M79.25,49.75v-0.2 M60.25,30.45v-0.3 M39.95,30.45v-0.3
		 M68.25,30.35v-0.2 M32.05,30.35v-0.2 M35.95,30.45v-0.3 M64.25,30.45v-0.3 M16.65,56.55v-0.1v-0.1v-0.2v-0.1v-0.2 M20.35,32.05
		l-1.3,0.7 M80.15,49.15l0.1,1 M13.45,55.95h-0.2l-0.6-0.3l-0.5-0.4l-0.5-0.3l-0.3-0.4l-0.3-0.4l-0.2-0.5 M17.05,55.75L17.05,55.75
		l-0.1-0.1h-0.1 M11.55,52.95v0.2l0.2,0.4l0.3,0.4l0.4,0.3l0.4,0.3l0.6,0.3l0.5,0.3 M16.65,51.55L16.65,51.55 M16.65,55.55v-0.5
		 M6.55,55.55v1.7 M14.05,59.25v-2 M81.15,33.85l-1.3-0.7 M16.05,59.25v-2 M16.75,56.55l0.1-0.1l0.1-0.1v-0.1l0.1-0.1v-0.1
		 M58.15,35.35v-1.3 M42.15,35.35v-1.3 M26.45,62.15l0.1-0.1l0.1-0.1l0.1-0.1v-0.1l0.1-0.1 M23.05,61.95v-0.8 M52.95,37.85v-0.9
		 M47.25,37.85v-0.9 M18.35,56.45l7.3,4.2 M17.15,55.55v0.2 M26.85,58.75v-1.2 M26.85,61.25v-0.6 M27.05,61.65L27.05,61.65v-0.1
		l-0.1-0.1 M24.25,63.65l-0.5-1 M62.05,35.35v-1.3 M38.15,35.35v-1.3 M53.05,40.15v-0.9 M47.15,40.15v-0.9 M32.25,65.55v-0.1v-0.1
		v-0.1l0.1-0.2v-0.1 M26.55,62.25l0.1-0.1h0.1l0.1-0.1l0.1-0.1l0.1-0.1 M32.75,64.75h-0.1h-0.1l-0.1-0.1 M65.95,35.45v-1.3
		 M34.25,35.45v-1.3 M27.25,62.15l0.1,0.3l0.3,0.4l0.4,0.4l0.4,0.3l0.5,0.3l0.6,0.3 M32.35,64.25v-2.4 M27.05,61.15v0.4
		 M27.05,57.75v0.8 M53.15,42.45v-1 M47.05,42.45v-1 M32.35,65.55h0.1l0.1-0.1l0.1-0.2v-0.1l0.1-0.1 M37.25,68.45l0.1-0.1l0.1-0.1
		l0.1-0.1v-0.2l0.1-0.1 M54.15,68.05l-0.1-0.1v-0.1l-0.1-0.2v-0.1l-0.1-0.1 M51.95,68.45v-0.1l-0.1-0.1v-0.1v-0.1v-0.2 M54.35,68.05
		l0.1-0.1l0.1-0.1v-0.1l0.1-0.2v-0.1 M54.65,67.15h-0.1h-0.1h-0.1h-0.2h-0.1 M54.65,64.95l0.1,2 M54.95,67.35l1.2,0.7 M33.35,65.15
		l3.7,2.1 M32.75,61.65v2.7 M51.75,67.65L51.75,67.65h-0.1h-0.1 M37.65,67.15v-3.1 M37.85,67.85L37.85,67.85v-0.1 M51.85,68.55
		l-0.1-0.1l-0.1-0.1l-0.1-0.1v-0.2l-0.1-0.1 M48.05,69.65l2.9-1.6 M51.45,67.25l0.1-3.1 M47.95,70.75l-0.1-0.1l-0.1-0.1l-0.1-0.1
		v-0.1l-0.1-0.1 M37.35,68.45h0.1l0.1-0.1h0.1l0.1-0.1l0.1-0.1 M18.95,37.45l-0.1,3.8 M81.55,46.95l-0.2-7.7 M81.05,37.65l-1.1-1.9
		 M20.25,34.55l-1.1,1.9 M37.85,64.35v3 M38.25,68.85l0.2,0.2l0.3,0.4l0.5,0.3l0.5,0.3l0.5,0.3l0.7,0.2l0.6,0.2l0.7,0.1l0.7,0.1h0.7
		l0.7-0.1 M47.55,66.45v3 M53.85,66.75l-0.1-2.4 M54.65,54.65v7.8 M47.65,61.55v-7 M51.95,63.95l-0.1,3.2 M52.15,67.55h0.4l0.7-0.2
		 M55.65,68.85l-1.2-0.6 M53.95,68.15l-0.4,0.2l-0.8,0.1 M51.45,68.85l-2.9,1.7 M46.55,71.45l-0.4,0.1l-0.7,0.2l-0.7,0.1l-0.8,0.1
		h-0.8l-0.7-0.1l-0.8-0.1l-0.7-0.1l-0.7-0.3l-0.6-0.2l-0.6-0.3 M36.55,68.15l-3.7-2.1 M31.15,65.55l-0.4-0.1l-0.7-0.1l-0.7-0.2
		l-0.6-0.3l-0.5-0.3l-0.5-0.3l-0.5-0.3 M26.15,62.15l-1.3-0.8 M46.65,74.65v1.7 M39.55,74.65v1.7 M54.35,52.95l-1-1.8 M47.85,52.95
		l1.1-1.8 M67.05,4.35h0.1l0.2-0.1h0.3l0.4,0.1l0.3,0.1 M68.35,4.45l0.3,0.3l0.4,0.3l0.3,0.3l0.3,0.4l0.2,0.5l0.1,0.4l0.2,0.5v0.4
		v0.4l-0.1,0.3l-0.1,0.3l-0.2,0.2h-0.1 M94.55,20.25L94.55,20.25l0.3-0.1h0.3h0.3l0.4,0.2 M95.85,20.35l0.3,0.2l0.3,0.3l0.3,0.4
		l0.3,0.4l0.2,0.4l0.2,0.5l0.1,0.4l0.1,0.4v0.4l-0.1,0.3l-0.2,0.3l-0.2,0.2l-0.1,0.1 M85.25,36.35L85.25,36.35l0.1,0.3l0.1,0.2
		l0.2,0.3l0.3,0.2 M85.95,37.35l0.4,0.2l0.4,0.1l0.5,0.1h0.5h0.5l0.4-0.1l0.5-0.1l0.4-0.1l0.3-0.2l0.2-0.3l0.2-0.2l0.1-0.3v-0.1
		 M45.05,96.25l0.2-0.1 M41.15,96.25l-0.2-0.1 M19.65,46.05v0.1l-0.1,0.3l-0.2,0.3l-0.3,0.2l-0.3,0.2l-0.4,0.2l-0.5,0.1h-0.5h-0.4
		h-0.5l-0.5-0.1l-0.4-0.2l-0.4-0.1l-0.2-0.3l-0.3-0.2l-0.1-0.3v-0.2 M7.75,39.15l0.3-0.1h0.3l0.3,0.1l0.3,0.1l0.4,0.2l0.3,0.3
		l0.3,0.4l0.3,0.3l0.2,0.5l0.2,0.4l0.1,0.4l0.1,0.5v0.4l-0.1,0.3l-0.1,0.3l-0.2,0.2l-0.1,0.1 M96.75,64.15l0.4-14.4 M6.55,59.85
		l0.5,14.4 M39.55,93.15v-14.2 M46.65,78.95v14.2 M46.05,61.25v0.1v0.3l-0.2,0.2l-0.2,0.3l-0.3,0.2 M45.35,62.35l-0.4,0.2l-0.4,0.1
		l-0.5,0.1h-0.4h-0.5l-0.5-0.1l-0.4-0.1l-0.4-0.2l-0.4-0.2l-0.2-0.2l-0.2-0.3l-0.1-0.3v-0.1 M34.25,54.45h0.1l0.3-0.1h0.3l0.3,0.1
		l0.4,0.2l0.3,0.2l0.3,0.3l0.3,0.4l0.3,0.4l0.2,0.5l0.1,0.4l0.1,0.4l0.1,0.5 M37.35,57.75l-0.1,0.3l-0.1,0.4l-0.1,0.2l-0.2,0.2h-0.1
		"/>
	
		<path id="XMLID_3_" fill="none" stroke="#000000" stroke-width="0.5" stroke-linecap="round" stroke-linejoin="round" stroke-miterlimit="10" d="
		M15.95,52.85v-0.3l0.1-0.4l0.2-0.2l0.2-0.2l0.2-0.1h0.3h0.3l0.4,0.2l0.3,0.2l0.3,0.3l0.3,0.3l0.3,0.4l0.2,0.4l0.2,0.4l0.1,0.4
		l0.1,0.4v0.4l-0.1,0.4l-0.1,0.3l-0.2,0.2l-0.2,0.1l-0.3,0.1h-0.3l-0.3-0.1l-0.3-0.2l-0.4-0.2l-0.3-0.3l-0.3-0.4l-0.2-0.4l-0.2-0.4
		l-0.2-0.5l-0.1-0.4V52.85 M65.35,29.05l1,0.6 M66.35,29.65l0.5-0.1h0.1 M66.35,28.95v0.7 M70.25,14.65l0.4,0.2 M63.65,14.85
		l0.4-0.2 M60.95,28.25v0.5 M85.65,33.05l-0.1-0.1l-0.1-0.3v-0.3 M57.75,18.25l5.9-3.4 M52.15,17.15l0.5,0.3 M45.65,17.45l0.4-0.3
		 M85.45,32.35v-1 M97.25,47.45l0.4-0.3l0.4-0.4l0.3-0.3l0.2-0.4l0.1-0.4v-0.2 M85.25,39.35l-1.8-1.1 M85.65,31.25l0.1,1.4
		 M85.35,34.95h-0.1l-0.3-0.1l-0.2-0.1l-0.3-0.3l-0.2-0.2l-0.2-0.4l-0.1-0.3v-0.3 M83.95,33.25v-0.9 M70.65,14.85l16.7,9.6
		 M87.35,24.45l0.6,0.5l0.5,0.5l0.2,0.5 M92.75,42.35v-0.1 M84.45,39.95l0.5,0.2l0.5,0.2l0.5,0.1l0.6,0.1h0.5h0.6l0.6-0.1l0.5-0.1
		l0.5-0.2l0.5-0.2l0.3-0.2l0.3-0.3l0.3-0.3l0.1-0.4v-0.3v-0.3l-0.1-0.3l-0.3-0.4 M83.45,39.35l1,0.6 M82.85,40.65l0.2,0.1
		 M83.05,40.75l0.6,0.3l0.6,0.2l0.6,0.2l0.7,0.2h0.7l0.7,0.1h0.7l0.7-0.1l0.7-0.1l0.6-0.2l0.6-0.2l0.6-0.2l0.5-0.3l0.4-0.3l0.4-0.4
		l0.3-0.4l0.2-0.4l0.1-0.4v-0.4l-0.1-0.4l-0.1-0.4l-0.3-0.4l-0.3-0.4l-0.4-0.3l-0.4-0.3 M91.15,36.15l-0.8-0.4 M83.25,25.65
		L83.25,25.65l-0.1-0.2l-0.1-0.1l-0.2-0.1 M82.85,25.25l-16-9.3 M66.85,15.95l-0.2-0.1l-0.3-0.1h-0.3h-0.2h-0.3h-0.3l-0.2,0.1
		l-0.2,0.1 M64.85,15.95l-4,2.3 M60.85,18.25l-0.2,0.2l-0.2,0.1v0.2 M97.25,45.15l0.4-0.3l0.4-0.4l0.3-0.4l0.2-0.4l0.1-0.4v-0.4
		l-0.1-0.4l-0.2-0.4l-0.3-0.3l-0.4-0.4l-0.4-0.3 M97.25,41.05l-4.5-2.6 M82.85,39.65l0.6-0.3 M83.45,39.35l-0.1-5.6 M83.35,33.75
		v-0.2l0.1-0.3v-0.3l0.2-0.2l0.1-0.2l0.2-0.2l0.2-0.2l0.2-0.2 M84.35,31.95l1.9-1 M87.15,28.55l-6.9,4 M85.45,50.75v0.6
		 M85.95,51.55l11.3-6.4 M85.95,51.55l-0.1,0.1h-0.1h-0.1l-0.1-0.1v-0.1l-0.1-0.1 M84.15,54.95l13.1-7.5 M82.85,26.05l0.2-0.1
		l0.1-0.1l0.1-0.2v-0.1v-0.2l-0.1-0.1l-0.1-0.2l-0.2-0.1 M78.85,28.45l4-2.4 M76.85,28.45l0.2,0.1h0.3l0.2,0.1h0.3h0.3l0.2-0.1h0.3
		l0.2-0.1 M60.85,19.15l16,9.3 M60.85,17.95l-0.2,0.2l-0.2,0.1v0.2l-0.1,0.1l0.1,0.2v0.1l0.2,0.2l0.2,0.1 M64.85,15.65l-4,2.3
		 M66.85,15.65l-0.2-0.1h-0.3l-0.3-0.1h-0.2h-0.3l-0.3,0.1h-0.2l-0.2,0.1 M82.85,24.95l-16-9.3 M58.15,18.05l-0.9,0.4l-1,0.3
		 M56.25,18.75h-0.6h-0.7 M78.75,29.95l7-4.1 M85.75,25.85l0.3-0.2l0.3-0.3l0.2-0.3v-0.3v-0.3l-0.2-0.3l-0.3-0.3l-0.3-0.2
		 M85.75,23.65l-16.6-9.6 M69.15,14.05l-0.5-0.2l-0.4-0.2l-0.6-0.1h-0.5h-0.5l-0.6,0.1l-0.4,0.2l-0.4,0.2 M65.25,14.05l-7.1,4
		 M82.65,53.55l-2-1.2 M82.65,53.55v0.5 M82.65,54.05l1.5,0.9 M84.15,51.45v3.5 M79.05,49.65l0.2,0.1 M82.05,47.75l2.1,3.7
		 M85.45,50.75l-1.3,0.7 M83.15,46.55l2.3,4.2 M83.15,46.55l-0.2-0.4v-0.4 M80.25,32.55l-0.4,0.4l-0.1,0.1 M77.65,31.05l0.4-0.6
		l0.7-0.5 M77.65,31.05l-0.2,0.4v0.3 M34.25,35.65l-1.1,0.7 M18.95,32.75l26.7-15.3 M5.05,55.55v0.2l0.1,0.4l0.2,0.4l0.3,0.4
		l0.4,0.3l0.5,0.3 M59.55,30.95l-0.2-0.3l-0.6-0.5l-0.7-0.4l-0.7-0.5l-0.8-0.4h-0.2 M43.85,28.85h-0.1l-0.9,0.4l-0.7,0.5l-0.7,0.4
		l-0.6,0.5l-0.2,0.3 M63.75,30.85l-0.2-0.3l-0.6-0.7l-0.6-0.6l-0.7-0.5l-0.8-0.6l-0.9-0.5l-0.9-0.4l-0.1-0.1 M41.35,27.15l-0.2,0.1
		l-0.9,0.4l-0.9,0.5l-0.8,0.6l-0.7,0.5l-0.6,0.6l-0.5,0.7l-0.3,0.3 M67.75,30.85l-0.2-0.4l-0.5-0.7l-0.5-0.7l-0.6-0.6l-0.7-0.7
		l-0.8-0.6l-0.9-0.5l-0.9-0.5l-0.9-0.5l-0.3-0.2 M38.85,25.45l-0.3,0.2l-1,0.5l-0.9,0.5l-0.9,0.5l-0.7,0.6l-0.7,0.7l-0.7,0.6
		l-0.5,0.7l-0.5,0.7l-0.2,0.4 M80.25,50.35l-1-0.6 M52.65,17.45l2.4,1.3 M51.05,16.55l1.6,0.9 M78.55,32.35l2.7,1.6 M77.45,31.75
		l1.1,0.6 M68.15,26.35l9.3,5.4 M54.95,18.75l5.2,3 M18.95,36.85l-0.6-0.5l-0.5-0.5l-0.3-0.5v-0.5v-0.6l0.3-0.5l0.5-0.5l0.6-0.5
		 M80.65,52.35v-2.7l-0.1-0.9 M80.25,50.35l0.3,0.2h0.1 M11.45,48.35l-4.9,2.8 M6.55,51.15l-0.5,0.3l-0.4,0.4l-0.3,0.4l-0.2,0.4
		l-0.1,0.4v0.4l0.1,0.4l0.2,0.4l0.3,0.3l0.4,0.4l0.5,0.3 M82.05,47.85l-0.1,0.1l-0.2,0.1l-0.2,0.1 M82.05,47.75v0.1 M82.05,47.75
		l0.3-0.4l0.3-0.5l0.2-0.5l0.1-0.6 M16.05,59.55l-0.2-0.1h-0.3l-0.2-0.1h-0.3h-0.3l-0.3,0.1h-0.2l-0.2,0.1 M11.95,57.45l-0.8,0.5
		 M6.55,55.25l4.6,2.7 M6.55,57.55l6,3.5 M14.05,60.15v-0.6 M12.55,61.05v-3.3 M14.05,60.15l-1.5,0.9 M81.25,33.95l0.7,0.4l0.4,0.5
		l0.3,0.6l0.1,0.5l-0.1,0.5l-0.3,0.6l-0.4,0.5l-0.7,0.4 M59.55,35.15h-0.1h-0.4h-0.3l-0.3,0.1l-0.2,0.1l-0.1,0.2 M42.15,35.55
		l-0.2-0.2l-0.2-0.1l-0.3-0.1h-0.3h-0.3h-0.2 M63.75,35.15h-0.1h-0.4h-0.3h-0.3l-0.2,0.1l-0.2,0.2l-0.2,0.2 M38.15,35.65l-0.1-0.2
		l-0.2-0.2l-0.3-0.1h-0.3h-0.3h-0.3h-0.2 M67.75,35.25l-0.3-0.1h-0.3h-0.3h-0.3l-0.3,0.2l-0.2,0.1l-0.1,0.2 M34.25,35.65l-0.1-0.2
		l-0.2-0.1l-0.3-0.2h-0.3h-0.3h-0.3l-0.3,0.1 M20.85,49.15v-0.3 M21.75,62.85l-5.7-3.3 M58.15,35.55l-0.4,0.5l-0.4,0.5l-0.6,0.4
		l-0.4,0.3 M43.85,37.25l-0.4-0.3l-0.5-0.4l-0.5-0.5l-0.3-0.5 M57.15,32.25v-0.3l-0.1-0.4l-0.2-0.5l-0.3-0.4l-0.4-0.4l-0.5-0.4
		l-0.5-0.3l-0.6-0.3l-0.7-0.3l-0.7-0.2l-0.7-0.2l-0.8-0.1l-0.7-0.1h-0.8h-0.8l-0.8,0.1l-0.8,0.1l-0.7,0.2l-0.7,0.2l-0.7,0.3
		l-0.5,0.3l-0.6,0.3l-0.4,0.4l-0.4,0.4l-0.3,0.4l-0.2,0.5l-0.2,0.4v0.3 M24.65,61.25l-0.2-0.1 M24.45,61.15l-0.8-0.5 M23.65,62.45
		l0.2-0.2l0.2-0.2l0.2-0.3v-0.2v-0.3l-0.2-0.2l-0.2-0.2l-0.2-0.2 M23.65,60.65l-7.1-4.1 M16.55,56.55l-0.3-0.1l-0.4-0.1l-0.4-0.1
		h-0.4h-0.4l-0.5,0.1l-0.3,0.1l-0.4,0.1 M13.45,56.55l-1.5,0.9 M11.95,57.45l0.6,0.3 M12.55,57.75l1.5-0.8 M14.05,56.95l0.2-0.1
		l0.2-0.1l0.3-0.1h0.3h0.3l0.2,0.1l0.3,0.1l0.2,0.1 M16.05,56.95l7,4 M23.05,60.95l0.2,0.1l0.1,0.2l0.1,0.1v0.2v0.2l-0.1,0.1
		l-0.1,0.2l-0.2,0.1 M23.05,62.15l-1.5,0.8 M22.15,63.35l1.5-0.9 M62.05,35.65l-0.3,0.6l-0.4,0.6l-0.5,0.5l-0.6,0.6l-0.7,0.5
		l-0.6,0.4 M41.35,38.85l-0.7-0.4l-0.7-0.5l-0.6-0.6l-0.5-0.5l-0.4-0.6l-0.3-0.6 M36.55,61.45v-2.4 M40.95,63.95l-1,0.6
		 M38.45,62.55v-3.5 M28.85,57.55v-0.5 M65.95,35.65l-0.2,0.7l-0.4,0.6l-0.4,0.7l-0.6,0.6l-0.6,0.6l-0.6,0.6l-0.8,0.5l-0.8,0.5
		l-0.1,0.1 M38.85,40.55l-0.2-0.1l-0.8-0.5l-0.7-0.5l-0.7-0.6l-0.6-0.6l-0.5-0.6l-0.5-0.7l-0.3-0.6l-0.3-0.7 M53.75,64.05h0.2
		l0.3,0.1l0.2,0.2l0.2,0.3 M54.65,64.65l1.7,2.9 M55.55,63.15l2.1,3.7 M36.55,27.05l-0.6,0.4l-0.9,0.6l-0.9,0.6l-0.4,0.3
		 M66.45,28.95l-0.2-0.2l-0.8-0.6l-0.9-0.6l-0.9-0.5 M39.65,63.95v-0.7 M46.25,65.15v-3.1 M46.05,61.85l0.3,0.1 M54.65,63.75
		l0.9-0.6 M55.55,63.15l26-15 M45.15,35.05l0.5,0.3l0.7,0.3l0.7,0.2l0.7,0.2l0.8,0.1l0.8,0.1h0.8h0.8l0.7-0.1l0.8-0.1l0.7-0.2
		l0.7-0.2l0.7-0.3l0.6-0.3l0.5-0.3l0.5-0.4l0.4-0.4l0.3-0.4l0.2-0.5l0.1-0.4l0.1-0.5l-0.1-0.5l-0.1-0.4l-0.2-0.4l-0.3-0.5l-0.4-0.4
		l-0.5-0.3l-0.5-0.4l-0.6-0.3l-0.7-0.3l-0.7-0.2l-0.7-0.2l-0.8-0.1l-0.7-0.1h-0.8h-0.8l-0.8,0.1l-0.8,0.1l-0.7,0.2l-0.7,0.2
		l-0.7,0.3l-0.5,0.3l-0.6,0.4l-0.4,0.3l-0.4,0.4l-0.3,0.5l-0.2,0.4l-0.2,0.4v0.5v0.5l0.2,0.4l0.2,0.5l0.3,0.4l0.4,0.4l0.4,0.4
		L45.15,35.05 M47.25,27.55l0.3-0.1l0.2-0.1l0.2-0.2l0.1-0.2l-0.1-0.2l-0.1-0.1l-0.2-0.2l-0.2-0.1l-0.3-0.1h-0.3h-0.4 M42.15,30.55
		l0.3-0.5l0.5-0.5l0.5-0.5l0.7-0.4l0.7-0.3l0.7-0.3l0.8-0.3l0.9-0.2 M39.95,30.05v0.2v0.2l0.1,0.2l0.2,0.1l0.3,0.1l0.3,0.1h0.3
		l0.3-0.1h0.3l0.2-0.2l0.2-0.1 M46.45,26.25l-0.9,0.3l-1,0.3l-0.8,0.3l-0.9,0.4l-0.7,0.4l-0.7,0.5l-0.6,0.5l-0.5,0.5l-0.4,0.6
		 M47.15,25.25l0.3-0.1l0.3-0.1l0.1-0.1l0.1-0.2l0.1-0.2l-0.1-0.2l-0.2-0.1l-0.2-0.2l-0.3-0.1h-0.3h-0.3 M38.15,30.45l0.3-0.6
		l0.4-0.6l0.5-0.6l0.6-0.5l0.7-0.6l0.7-0.4l0.9-0.5l0.9-0.4l0.9-0.3l1-0.3l1-0.2l1.1-0.2 M35.95,30.15v0.2v0.1l0.2,0.2l0.2,0.1
		l0.3,0.1l0.3,0.1h0.3l0.3-0.1l0.3-0.1l0.2-0.1l0.1-0.2 M46.65,23.95l-1.2,0.2l-1.2,0.3l-1,0.3l-1.1,0.3l-1,0.4l-0.9,0.5l-0.9,0.5
		l-0.8,0.5l-0.7,0.6l-0.6,0.6l-0.5,0.6l-0.5,0.7l-0.3,0.7 M38.15,33.85l-0.1-0.2l-0.2-0.1l-0.3-0.1l-0.3-0.1h-0.3l-0.3,0.1l-0.3,0.1
		l-0.2,0.1l-0.2,0.2v0.1v0.2 M47.15,39.05l-1.1-0.2l-1-0.2l-1-0.3l-0.9-0.3l-0.9-0.4l-0.9-0.5l-0.7-0.4l-0.7-0.6l-0.6-0.5l-0.5-0.6
		l-0.4-0.6l-0.3-0.6 M46.65,40.35h0.3h0.3l0.3-0.1l0.2-0.1l0.2-0.2l0.1-0.2l-0.1-0.2l-0.1-0.1l-0.1-0.2l-0.3-0.1l-0.3-0.1
		 M35.95,34.15l0.3,0.7l0.5,0.7l0.5,0.6l0.6,0.6l0.7,0.6l0.8,0.5l0.9,0.5l0.9,0.5l1,0.4l1.1,0.3l1,0.3l1.2,0.3l1.2,0.2 M34.25,33.95
		l-0.1-0.2l-0.2-0.2l-0.3-0.1l-0.3-0.1h-0.3l-0.3,0.1h-0.3l-0.2,0.2l-0.2,0.1v0.2v0.2 M47.05,41.35l-1.1-0.2l-1.2-0.2l-1.1-0.3
		l-1.1-0.3l-1-0.3l-1-0.4l-1-0.4l-0.9-0.5l-0.8-0.5l-0.7-0.6l-0.7-0.5l-0.6-0.6l-0.5-0.7l-0.5-0.6l-0.3-0.7l-0.3-0.6 M46.65,42.65
		h0.3l0.3-0.1l0.3-0.1l0.3-0.1l0.1-0.2l0.1-0.2l-0.1-0.1l-0.1-0.2l-0.2-0.2l-0.3-0.1h-0.3 M32.05,34.15l0.3,0.7l0.3,0.7l0.5,0.7
		l0.5,0.7l0.7,0.7l0.7,0.6l0.7,0.6l0.9,0.6l0.9,0.5l1,0.5l1,0.4l1.1,0.4l1.1,0.4l1.2,0.3l1.2,0.3l1.3,0.2l1.2,0.2 M53.05,39.05
		l-0.3,0.1l-0.2,0.1l-0.2,0.2l-0.1,0.1v0.2l0.1,0.2l0.1,0.2l0.3,0.1l0.2,0.1h0.4h0.3 M62.05,33.85l-0.3,0.6l-0.4,0.6l-0.5,0.6
		l-0.6,0.5l-0.7,0.6l-0.7,0.4l-0.8,0.5l-0.9,0.4l-1,0.3l-1,0.3l-1,0.2l-1.1,0.2 M64.25,34.15l0.1-0.2l-0.1-0.1l-0.1-0.2l-0.3-0.1
		l-0.2-0.1l-0.4-0.1h-0.3l-0.3,0.1l-0.2,0.1l-0.2,0.1l-0.2,0.2 M53.65,40.35l1.1-0.2l1.2-0.3l1.1-0.3l1-0.3l1-0.4l0.9-0.5l0.9-0.5
		l0.8-0.5l0.7-0.6l0.6-0.6l0.6-0.6l0.4-0.7l0.3-0.7 M52.95,36.75l-0.3,0.1l-0.2,0.1l-0.2,0.2v0.2v0.2l0.1,0.1l0.2,0.2l0.2,0.1
		l0.3,0.1h0.4h0.3 M58.15,33.85l-0.4,0.5l-0.4,0.4l-0.6,0.5l-0.6,0.4l-0.7,0.3l-0.8,0.4l-0.8,0.2l-0.9,0.2 M60.25,34.25l0.1-0.2
		l-0.1-0.2l-0.1-0.1l-0.2-0.2l-0.2-0.1l-0.3-0.1h-0.4l-0.3,0.1l-0.3,0.1l-0.2,0.1l-0.1,0.2 M53.75,38.05l1-0.3l0.9-0.3l0.9-0.3
		l0.8-0.4l0.7-0.4l0.7-0.5l0.6-0.5l0.5-0.5l0.4-0.6 M53.15,41.35h-0.3l-0.3,0.1l-0.2,0.2l-0.1,0.2v0.1v0.2l0.2,0.2l0.2,0.1l0.3,0.1
		l0.3,0.1h0.3 M65.95,33.95l-0.2,0.6l-0.4,0.7l-0.4,0.6l-0.6,0.7l-0.6,0.6l-0.6,0.5l-0.8,0.6l-0.8,0.5l-0.9,0.5l-0.9,0.4l-1,0.4
		l-1.1,0.3l-1.1,0.3l-1.1,0.3l-1.1,0.2l-1.2,0.2 M68.25,34.15v-0.2l-0.1-0.2l-0.2-0.1l-0.2-0.2h-0.3l-0.3-0.1h-0.3l-0.3,0.1
		l-0.3,0.1l-0.2,0.2l-0.1,0.2 M53.55,42.65l1.3-0.2l1.2-0.2l1.2-0.3l1.2-0.3l1.1-0.4l1.1-0.4l1.1-0.4l0.9-0.5l0.9-0.5l0.9-0.6
		l0.8-0.6l0.7-0.6l0.6-0.7l0.5-0.7l0.5-0.7l0.4-0.7l0.3-0.7 M42.15,33.85l-0.2-0.2l-0.2-0.1l-0.3-0.1l-0.3-0.1h-0.3l-0.3,0.1
		l-0.3,0.1l-0.2,0.2l-0.1,0.1v0.2v0.2 M47.25,36.75l-0.9-0.2l-0.8-0.2l-0.7-0.4l-0.7-0.3l-0.7-0.4l-0.5-0.5l-0.5-0.4l-0.3-0.5
		 M46.45,38.05h0.4h0.3l0.3-0.1l0.2-0.1l0.2-0.2l0.1-0.1l0.1-0.2l-0.1-0.2l-0.2-0.2l-0.2-0.1l-0.3-0.1 M39.95,34.25l0.4,0.6l0.5,0.5
		l0.6,0.5l0.7,0.5l0.7,0.4l0.9,0.4l0.8,0.3l1,0.3l0.9,0.3 M47.05,22.95h0.3l0.3-0.1l0.2-0.2l0.1-0.1l0.1-0.2l-0.1-0.2l-0.1-0.2
		l-0.3-0.1l-0.3-0.1l-0.3-0.1l-0.3,0.1 M34.25,30.45l0.3-0.7l0.3-0.7l0.5-0.6l0.5-0.7l0.6-0.6l0.7-0.5l0.7-0.6l0.8-0.5l0.9-0.5
		l1-0.4l1-0.4l1-0.3l1.1-0.3l1.1-0.3l1.2-0.2l1.1-0.2 M32.05,30.15v0.2v0.2l0.2,0.1l0.2,0.2l0.3,0.1h0.3h0.3l0.3-0.1l0.3-0.1
		l0.2-0.2l0.1-0.1 M46.65,21.75l-1.2,0.1l-1.3,0.2l-1.2,0.3l-1.2,0.3l-1.1,0.4l-1.1,0.4l-1,0.4l-1,0.5l-0.9,0.6l-0.9,0.5l-0.7,0.6
		l-0.7,0.6l-0.7,0.7l-0.5,0.7l-0.5,0.7l-0.3,0.7l-0.3,0.7 M62.05,30.45l0.2,0.2l0.2,0.1l0.2,0.1l0.3,0.1h0.3l0.4-0.1l0.2-0.1
		l0.3-0.1l0.1-0.2l0.1-0.1l-0.1-0.2 M53.05,25.25l1.1,0.2l1,0.2l1,0.3l1,0.3l0.9,0.4l0.8,0.5l0.7,0.4l0.7,0.6l0.6,0.5l0.5,0.6
		l0.4,0.6l0.3,0.6 M53.65,23.95h-0.3h-0.4l-0.2,0.1l-0.3,0.2l-0.1,0.1l-0.1,0.2v0.2l0.1,0.2l0.2,0.1l0.2,0.1l0.3,0.1 M64.25,30.15
		l-0.3-0.7l-0.4-0.7l-0.6-0.6l-0.6-0.6l-0.7-0.6l-0.8-0.5l-0.9-0.5l-0.9-0.5l-1-0.4l-1-0.3l-1.1-0.3l-1.2-0.3l-1.1-0.2 M58.15,30.55
		l0.1,0.1l0.2,0.2h0.3l0.3,0.1h0.4l0.3-0.1l0.2-0.1l0.2-0.1l0.1-0.2l0.1-0.2l-0.1-0.2 M52.95,27.55l0.9,0.2l0.8,0.3l0.8,0.3l0.7,0.3
		l0.6,0.4l0.6,0.5l0.4,0.5l0.4,0.5 M53.75,26.25h-0.3h-0.4l-0.3,0.1l-0.2,0.1l-0.2,0.2l-0.1,0.1v0.2v0.2l0.2,0.2l0.2,0.1l0.3,0.1
		 M60.25,30.05l-0.4-0.6l-0.5-0.5l-0.6-0.5l-0.7-0.5l-0.7-0.4l-0.8-0.4l-0.9-0.3l-0.9-0.3l-1-0.3 M65.95,30.45l0.1,0.1l0.2,0.2
		l0.3,0.1l0.3,0.1h0.3h0.3l0.3-0.1l0.2-0.2l0.2-0.1l0.1-0.2v-0.2 M53.15,22.95l1.2,0.2l1.1,0.2l1.1,0.3l1.1,0.3l1.1,0.3l1,0.4
		l0.9,0.4l0.9,0.5l0.8,0.5l0.8,0.6l0.6,0.5l0.6,0.6l0.6,0.7l0.4,0.6l0.4,0.7l0.2,0.7 M53.55,21.75l-0.3-0.1l-0.3,0.1l-0.3,0.1
		l-0.2,0.1l-0.2,0.2v0.2v0.2l0.1,0.1l0.2,0.2l0.3,0.1h0.3 M68.25,30.15l-0.3-0.7l-0.4-0.7l-0.5-0.7l-0.5-0.7l-0.6-0.7l-0.7-0.6
		l-0.8-0.6l-0.9-0.5l-0.9-0.6l-0.9-0.5l-1.1-0.4l-1.1-0.4l-1.1-0.4l-1.2-0.3l-1.2-0.3l-1.2-0.2l-1.3-0.1 M21.55,66.25l18,10.4
		 M22.95,64.65l-0.8-1.3 M21.55,62.95l0.6,0.4 M21.55,66.25v-3.3 M81.25,37.95l-26.6,15.4 M47.65,53.35l-28.7-16.5 M46.65,76.65
		l11-6.4 M57.65,70.25v-3.4 M56.35,67.55l1.3-0.7 M56.35,67.55v0.6 M56.35,68.15v0.1l-0.1,0.1v0.2l-0.1,0.1v0.1l-0.1,0.1l-0.1,0.1
		l-0.1,0.1 M35.55,40.55l1,0.5l1.1,0.5l1.1,0.5l1.1,0.4l1.2,0.4l1.3,0.3l1.2,0.3l1.3,0.2l1.4,0.2l1.3,0.1l1.4,0.1h1.3h1.4l1.3-0.1
		l1.4-0.2l1.3-0.2l1.3-0.2l1.3-0.3l1.2-0.3l1.2-0.4l1.2-0.4l1-0.5l1.1-0.5l1-0.5l0.9-0.6l0.8-0.6l0.8-0.7l0.7-0.7l0.6-0.7l0.5-0.7
		l0.5-0.7l0.4-0.8l0.2-0.7l0.2-0.8l0.1-0.8v-0.8v-0.8l-0.2-0.8l-0.3-0.7l-0.3-0.8l-0.4-0.7l-0.5-0.8l-0.6-0.7l-0.7-0.6l-0.8-0.7
		l-0.8-0.6l-0.9-0.6l-1-0.6l-1-0.5l-1.1-0.5l-1.1-0.4l-1.2-0.4l-1.2-0.3l-1.3-0.3l-1.3-0.3l-1.3-0.2l-1.3-0.1l-1.4-0.1l-1.3-0.1
		h-1.4l-1.3,0.1l-1.4,0.1l-1.3,0.2l-1.3,0.2l-1.3,0.2l-1.3,0.3l-1.2,0.4l-1.2,0.4l-1.1,0.4l-1,0.5l-1.1,0.6l-0.9,0.5l-0.9,0.6
		l-0.8,0.7l-0.7,0.6l-0.7,0.7l-0.6,0.7l-0.5,0.8l-0.4,0.7l-0.3,0.8l-0.2,0.7l-0.2,0.8v0.8v0.8l0.1,0.8l0.2,0.7l0.3,0.8l0.4,0.8
		l0.5,0.7l0.6,0.7l0.6,0.7l0.7,0.7l0.8,0.6l0.9,0.6L35.55,40.55 M29.55,30.45v0.2l-0.3,0.7l-0.2,0.8l-0.2,0.8v0.8l0.1,0.8l0.1,0.8
		l0.2,0.8l0.4,0.7l0.4,0.8l0.5,0.7l0.5,0.8l0.7,0.7l0.7,0.6l0.8,0.7l0.9,0.6l0.9,0.6 M35.05,42.35l1,0.5l1.1,0.5l1.1,0.5l1.2,0.4
		l1.2,0.4l1.3,0.3l1.2,0.3l1.4,0.2l1.3,0.2l1.3,0.2h1.4l1.4,0.1h1.4l1.3-0.1l1.4-0.1l1.3-0.2l1.4-0.2l1.3-0.3l1.2-0.3l1.2-0.4
		l1.2-0.4l1.2-0.4l1-0.5l1.1-0.6l0.9-0.5l0.9-0.7l0.8-0.6l0.8-0.7l0.6-0.7l0.6-0.7l0.5-0.7l0.5-0.8l0.3-0.7l0.3-0.8l0.1-0.8l0.1-0.8
		v-0.8l-0.1-0.8l-0.2-0.8l-0.3-0.7l-0.1-0.4 M20.55,31.95l-0.4,0.2l-0.2,0.3l-0.2,0.3v0.3v0.3l0.2,0.3l0.2,0.3l0.4,0.3 M20.55,34.25
		l28.6,16.5 M53.05,50.75l26.7-15.4 M79.75,35.35l0.3-0.2l0.3-0.3l0.1-0.3l0.1-0.3l-0.1-0.3l-0.1-0.3l-0.3-0.3l-0.3-0.2
		 M59.95,21.75l-8.9-5.2 M79.75,33.15l-11.6-6.7 M51.05,16.55l-0.4-0.2l-0.5-0.1l-0.5-0.1h-0.5h-0.6l-0.5,0.1l-0.5,0.1l-0.4,0.2
		 M47.15,16.55l-26.6,15.4 M39.75,58.25l-1.3,0.8 M27.85,51.25l2.1,1.2 M19.65,46.55l2.9,1.7 M14.45,45.25l-1.4,0.8 M13.05,46.05
		l-0.5,0.3l-0.4,0.3l-0.3,0.4l-0.2,0.4l-0.2,0.4v0.4v0.4l0.1,0.4l0.2,0.4l0.3,0.4l0.4,0.4l0.4,0.3l0.6,0.3l0.5,0.2l0.7,0.2l0.6,0.2
		l0.7,0.1h0.7 M21.75,54.35l5.1,3 M26.85,57.35L26.85,57.35h0.1v0.1h0.1v0.1 M27.05,57.55l0.1,0.5l0.2,0.4 M33.15,60.95l4.5,2.6
		 M37.65,63.55l0.1,0.1h0.1v0.1v0.1 M37.85,63.85l0.1,0.4l0.2,0.4l0.3,0.4l0.3,0.3l0.5,0.4l0.5,0.3l0.5,0.2l0.7,0.3l0.6,0.1l0.7,0.1
		l0.7,0.1h0.7h0.7l0.7-0.1l0.7-0.1l0.7-0.2l0.6-0.3l0.5-0.2 M47.55,65.95l4-2.4 M51.55,63.55h0.2l0.2-0.1 M46.35,61.95l1.3,0.7
		 M46.25,62.05l0.1-0.1 M39.65,63.25v0.4v0.3l0.2,0.3l0.2,0.4l0.3,0.2l0.4,0.3l0.4,0.2l0.5,0.2l0.5,0.2l0.6,0.1h0.6h0.6l0.5-0.1
		l0.6-0.1l0.5-0.1l0.5-0.2l0.4-0.3l0.4-0.2l0.2-0.3l0.2-0.3l0.2-0.4v-0.3l-0.1-0.4l-0.1-0.3l-0.3-0.3l-0.3-0.3l-0.4-0.2
		 M34.45,60.25l5.2,3 M28.85,57.05v0.3v0.2 M23.05,53.65l5.8,3.4 M17.65,50.55l0.4,0.3 M14.55,46.65l-0.3,0.1l-0.4,0.3l-0.3,0.3
		l-0.2,0.3l-0.1,0.4l-0.1,0.3l0.1,0.4l0.1,0.3l0.3,0.3l0.3,0.3l0.4,0.3l0.4,0.2l0.6,0.2l0.5,0.1l0.6,0.1h0.6h0.6 M20.85,48.85
		l0.1-0.3v-0.4l-0.1-0.3l-0.2-0.4l-0.2-0.3l-0.4-0.3l-0.4-0.2 M21.15,49.05l-0.3-0.2 M30.25,54.25l-4.1-2.4 M38.45,59.05l-0.9-0.6
		 M54.65,63.75l-0.3,0.1l-0.3,0.1l-0.3,0.1 M51.95,63.45l-0.7,0.1h-0.6l-0.7-0.1l-0.7-0.1l-0.6-0.2l-0.5-0.2l-0.5-0.3 M46.65,74.35
		l9.2-5.3 M24.45,63.85l0.3-0.3l0.3-0.2l0.2-0.3l0.1-0.3v-0.3v-0.4l-0.2-0.3l-0.2-0.2l-0.3-0.3 M22.95,64.65l1.5-0.8 M22.95,64.65
		l16.6,9.7 M39.55,76.65l0.6,0.3l0.6,0.2l0.6,0.2l0.7,0.1h0.7h0.7h0.7l0.7-0.1l0.6-0.2l0.6-0.2l0.6-0.3 M39.55,74.35l0.6,0.2
		l0.6,0.3l0.6,0.1l0.7,0.2h0.7h0.7h0.7l0.7-0.2l0.6-0.1l0.6-0.3l0.6-0.2 M49.15,50.75l0.4,0.2l0.5,0.1l0.5,0.1l0.6,0.1l0.5-0.1
		l0.5-0.1l0.5-0.1l0.4-0.2 M54.65,53.35l-0.8,0.4l-0.9,0.2l-0.9,0.2l-0.9,0.1l-1-0.1l-0.9-0.2l-0.9-0.2l-0.7-0.4 M74.05,0.35h0.1
		l0.2-0.1h0.4h0.3l0.3,0.2 M75.35,0.45l0.4,0.2l0.3,0.3l0.3,0.4l0.3,0.4l0.2,0.4l0.2,0.5l0.1,0.4v0.4v0.4l-0.1,0.3l-0.1,0.3
		l-0.2,0.2l-0.1,0.1 M96.65,66.45l0.6-0.4l0.5-0.5l0.3-0.5v-0.5 M101.55,16.15L101.55,16.15l0.3-0.1h0.3l0.3,0.1l0.4,0.1
		 M102.85,16.25l0.3,0.3l0.4,0.3l0.3,0.3l0.2,0.4l0.3,0.5l0.1,0.4l0.1,0.5l0.1,0.4v0.4l-0.1,0.3l-0.2,0.3l-0.2,0.2 M5.65,74.65
		l0.1,0.5l0.3,0.5l0.4,0.5l0.6,0.5 M95.15,67.35l-50.1,28.9 M96.65,66.45l-1.5,0.9 M8.65,77.55l-1.6-0.9 M39.75,95.45l-31.1-17.9
		 M41.15,96.25l-1-0.5 M45.25,96.15l1.4-0.8 M40.95,96.15l-1.4-0.8 M45.05,96.25l-0.4,0.2l-0.5,0.2l-0.5,0.1h-0.6h-0.5l-0.5-0.1
		l-0.5-0.2l-0.4-0.2 M0.25,44.35v-0.3l0.1-0.4l0.2-0.2l0.2-0.2l0.3-0.1h0.3h0.3l0.3,0.2l0.4,0.2l0.3,0.3l0.3,0.3l0.3,0.4l0.2,0.4
		l0.2,0.5l0.1,0.4l0.1,0.4v0.4l-0.1,0.4l-0.1,0.3l-0.2,0.2l-0.2,0.1l-0.3,0.1h-0.3l-0.3-0.1l-0.4-0.2l-0.3-0.2l-0.3-0.4l-0.3-0.3
		l-0.3-0.4l-0.2-0.5l-0.2-0.4l-0.1-0.4V44.35 M46.65,95.35l50-28.9 M7.05,76.65l32.5,18.7 M62.25,30.65h0.1l0.3-0.3l0.2-0.2v-0.3
		 M34.95,37.05l-0.7,0.5 M37.95,35.35l-0.9,0.5 M5.05,55.45v0.3l0.1,0.4l0.2,0.4l0.3,0.4l0.4,0.3l0.5,0.3 M6.55,57.55l33,19.1
		 M46.65,76.65l50.6-29.2 M97.25,47.45l0.4-0.3l0.4-0.4l0.3-0.3l0.2-0.4l0.1-0.4v-0.3 M39.55,95.35l0.8,0.4l0.9,0.3l0.9,0.1l0.9,0.1
		l1-0.1l0.9-0.1l0.9-0.3l0.8-0.4 M39.55,76.65l0.6,0.3l0.6,0.2l0.6,0.2l0.7,0.1h0.7h0.7h0.7l0.7-0.1l0.6-0.2l0.6-0.2l0.6-0.3
		 M30.35,61.75l-0.1,0.4l-0.1,0.3l-0.1,0.3l-0.2,0.2l-0.3,0.1h-0.3l-0.3-0.1l-0.4-0.1l-0.3-0.2l-0.3-0.3l-0.3-0.4l-0.3-0.3l-0.3-0.5
		l-0.1-0.4l-0.2-0.5v-0.4v-0.4v-0.3l0.2-0.3l0.1-0.2l0.3-0.2l0.3-0.1l0.3,0.1l0.3,0.1l0.3,0.1l0.4,0.3l0.3,0.3l0.3,0.4l0.3,0.4
		l0.2,0.4l0.1,0.5l0.1,0.4L30.35,61.75 M35.15,60.65v-0.9 M30.25,54.45v2.3 M25.95,51.95l0.3-0.1l0.5-0.3l0.4-0.1l0.4-0.1l0.4-0.1
		h0.4h0.2h0.3l0.2,0.1l0.3,0.2l0.2,0.2l0.1,0.2l0.2,0.3l0.1,0.4l0.1,0.4l0.1,0.5l0.1,0.5v0.4 M35.15,53.95v-0.9l-0.2-0.9l-0.2-0.8
		l-0.3-0.8l-0.3-0.7l-0.4-0.7l-0.5-0.6l-0.5-0.6l-0.5-0.4l-0.6-0.4l-0.6-0.3l-0.7-0.3l-0.7-0.2l-0.7-0.1h-0.7l-0.8,0.1l-0.8,0.1
		l-0.8,0.2l-0.7,0.2l-0.9,0.4l-0.8,0.4 M23.45,47.65l-7,4.1 M18.95,56.05l7-4.1 M70.25,14.65l-0.7-0.4l-0.7-0.4 M65.45,13.85
		l-0.2,0.1 M52.15,17.15l-1.3-0.7 M47.35,16.45l-1.3,0.7 M98.65,45.45v-2.4 M92.75,42.25v-3.8 M5.05,53.25v2.3 M17.55,34.75
		l-0.2,4.9 M83.05,46.25l-0.3-10.3 M11.45,48.35v4 M30.25,29.05l-0.7,1.4 M70.65,30.45l-0.6-1.4 M69.65,8.75l7-4 M74.05,0.35l-7,4
		 M67.05,4.35l-0.4,0.3l-0.8,0.5l-0.8,0.6l-0.7,0.7l-0.7,0.7l-0.7,0.7l-0.7,0.8l-0.6,0.8l-0.6,0.9l-0.5,0.9l-0.6,0.9l-0.4,1
		l-0.4,0.9l-0.4,1l-0.3,1l-0.2,0.9l-0.2,1l-0.1,0.2 M64.65,14.35l0.4-0.7l0.4-0.7l0.5-0.7l0.5-0.7l0.5-0.6l0.6-0.5l0.5-0.5l0.5-0.5
		l0.6-0.4l0.5-0.3 M98.05,64.55l0.6-19.1 M97.05,24.65l7.1-4.1 M101.55,16.15l-7,4.1 M90.35,39.45v-3.1 M85.25,36.35v4 M5.05,55.55
		l0.6,19.1 M94.55,20.25l-0.4,0.2l-0.8,0.6l-0.8,0.6l-0.7,0.6l-0.8,0.7l-0.7,0.8l-0.6,0.8l-0.7,0.8l-0.5,0.9l-0.6,0.8l-0.5,1
		l-0.5,0.9l-0.4,1l-0.3,0.9l-0.3,1l-0.3,1l-0.2,1l-0.1,0.9l-0.1,1v0.6 M90.35,36.35v-0.3l0.1-0.7v-0.7l0.2-0.7l0.2-0.7l0.2-0.8
		l0.3-0.7l0.3-0.8l0.4-0.7l0.4-0.8l0.5-0.7l0.5-0.7l0.5-0.6l0.5-0.6l0.5-0.6l0.6-0.5l0.5-0.4l0.5-0.4l0.5-0.3 M19.65,49.85v-3.8
		 M14.55,46.05v4 M39.95,95.55l0.5,0.3l0.5,0.3 M45.25,96.15l0.5-0.3l0.5-0.3 M10.35,43.55l0.3-0.1l0.4-0.2l0.5-0.2l0.4-0.1l0.4-0.1
		h0.3h0.3l0.2,0.1l0.3,0.1l0.2,0.1l0.2,0.2l0.1,0.2l0.2,0.3l0.1,0.3l0.1,0.5l0.1,0.4l0.1,0.6v0.4 M19.65,46.05v-0.5l-0.1-0.9
		l-0.1-0.9l-0.2-0.9l-0.3-0.8l-0.4-0.7l-0.4-0.7l-0.4-0.6l-0.5-0.5l-0.6-0.5l-0.6-0.4l-0.6-0.3l-0.7-0.3l-0.7-0.2l-0.7-0.1h-0.7
		h-0.8l-0.8,0.1l-0.7,0.2l-0.8,0.3l-0.9,0.4l-0.7,0.3l-0.2,0.1 M7.75,39.15l-7,4.1 M3.35,47.65l7-4.1 M46.05,65.35v-4.1
		 M40.95,61.25v4.1 M36.75,58.85l0.3-0.1l0.5-0.3l0.5-0.1l0.4-0.1l0.3-0.1h0.4h0.3h0.2l0.2,0.1l0.2,0.2l0.2,0.2l0.2,0.2l0.1,0.3
		l0.2,0.3l0.1,0.4l0.1,0.5v0.5v0.4 M46.05,61.25v-0.5v-0.9l-0.2-0.9l-0.2-0.8l-0.3-0.8l-0.3-0.7l-0.4-0.7l-0.5-0.6l-0.5-0.6
		l-0.5-0.4l-0.6-0.4l-0.7-0.4l-0.6-0.2l-0.7-0.2l-0.7-0.1h-0.8h-0.7l-0.8,0.1l-0.8,0.2l-0.8,0.3l-0.8,0.3l-0.8,0.4l-0.1,0.1
		 M34.25,54.45l-7,4.1 M29.75,62.95l7-4.1"/>
</g>
</svg>
