<?xml version="1.0" encoding="utf-8"?>
<!-- Generator: Adobe Illustrator 19.0.0, SVG Export Plug-In . SVG Version: 6.00 Build 0)  -->
<svg version="1.0" id="Layer_1" xmlns="http://www.w3.org/2000/svg" xmlns:xlink="http://www.w3.org/1999/xlink" x="0px" y="0px"
	 width="33.4px" height="31.1px" viewBox="0 0 33.4 31.1" enable-background="new 0 0 33.4 31.1" xml:space="preserve">
<g id="XMLID_2_">
	
		<path id="XMLID_210_" fill="none" stroke="#000000" stroke-width="0.25" stroke-linecap="round" stroke-linejoin="round" stroke-miterlimit="10" d="
		M21.85,19.35h0.1v-0.1v-0.1h0.1 M20.25,19.75l0.2,0.1h0.1h0.2h0.1h0.2 M19.55,18.85L19.55,18.85l-0.1,0.1v0.1v0.1 M21.15,18.45
		l-0.1-0.1h-0.2h-0.1h-0.2h-0.1 M18.75,19.65v0.1v0.2l0.1,0.1l0.1,0.1l0.1,0.1l0.1,0.2l0.2,0.1l0.2,0.1h0.2l0.2,0.1h0.3l0.2,0.1h0.2
		h0.3l0.2-0.1h0.3l0.2-0.1h0.2l0.2-0.1l0.2-0.1l0.1-0.1l0.1-0.1l0.1-0.2l0.1-0.1v-0.1l0.1-0.2 M5.35,9.85L5.35,9.85l0.1-0.1v-0.1
		v-0.1 M3.75,10.25h0.1h0.2h0.1h0.2h0.1 M3.05,9.25h-0.1v0.1v0.1l-0.1,0.1 M4.65,8.85h-0.2h-0.1h-0.2h-0.1h-0.2 M2.15,10.15v0.1
		l0.1,0.1v0.1l0.1,0.2l0.1,0.1l0.2,0.1l0.2,0.1l0.1,0.1l0.3,0.1h0.2l0.2,0.1h0.2h0.3h0.2h0.3l0.2-0.1h0.2l0.2-0.1l0.2-0.1l0.2-0.1
		l0.2-0.1l0.1-0.1l0.1-0.1l0.1-0.2v-0.1v-0.1 M30.45,14.45L30.45,14.45l0.1-0.1v-0.1v-0.1 M28.85,14.85h0.1l0.2,0.1h0.1h0.2l0.1-0.1
		 M28.05,13.85v0.1l-0.1,0.1v0.1 M29.75,13.45h-0.2h-0.1h-0.2h-0.1h-0.2 M27.25,14.75v0.1l0.1,0.1v0.2l0.1,0.1l0.1,0.1l0.2,0.1
		l0.2,0.1l0.1,0.1l0.2,0.1l0.3,0.1h0.2h0.2h0.3h0.2h0.3h0.2l0.2-0.1l0.2-0.1h0.2l0.2-0.1l0.2-0.2l0.1-0.1l0.1-0.1v-0.1l0.1-0.2v-0.1
		 M0.65,12.35h-0.1l-0.1-0.1 M1.05,10.65v-0.1h0.2 M5.75,11.45L5.75,11.45 M33.15,16.55v0.1l-0.1,0.1 M31.85,15.25h0.1h0.1
		 M15.25,17.85v-0.3 M14.55,18.15v-0.3 M2.15,10.45l-0.4,0.2 M6.05,8.15l-0.9,0.6 M31.65,15.25l-0.3-0.2 M0.65,12.55v0.4
		 M32.75,17.15v0.4 M0.75,12.15v-0.1v-0.2l0.1-0.2l0.1-0.2l0.1-0.2l0.2-0.2 M17.35,22.05l-14.3-8.3 M20.25,21.35l0.4,0.3
		 M17.75,19.95l0.9,0.6 M4.95,12.55l8.3,4.8 M1.75,10.75l0.5,0.3 M31.45,17.85l-8.4,4.8 M31.95,15.45l0.1,0.1l0.2,0.2l0.1,0.1
		l0.1,0.2l0.1,0.2l0.1,0.2 M31.25,15.65l0.4-0.3 M23.55,20.05l5.4-3.1 M20.75,21.65l0.5-0.3 M21.75,23.55v0.4 M19.75,23.55v0.4
		 M20.55,21.85l-0.1,0.1l-0.2,0.1l-0.1,0.2l-0.1,0.2l-0.1,0.2l-0.1,0.2 M21.45,23.55h-0.1l-0.2,0.1h-0.2h-0.2h-0.2h-0.3
		 M20.95,21.85l0.1,0.1l0.1,0.1l0.2,0.2l0.1,0.2l0.1,0.2l0.1,0.2 M6.15,11.75L6.15,11.75 M6.25,11.85v-0.1 M6.25,6.65L6.25,6.65
		 M6.35,6.25L6.35,6.25h0.1 M10.35,6.15L10.35,6.15 M22.95,7.25L22.95,7.25h-0.1 M23.05,7.55L23.05,7.55 M26.85,15.35L26.85,15.35
		 M19.45,7.25L19.45,7.25 M13.85,0.35L13.85,0.35v-0.1 M10.35,6.15L10.35,6.15h0.1 M10.65,2.15L10.65,2.15h-0.1 M10.35,2.45
		L10.35,2.45h0.1 M15.75,16.95l0.1,0.1v0.1l0.1,0.1 M6.35,11.85L6.35,11.85l-0.1,0.1 M26.65,15.45L26.65,15.45h0.1 M26.65,11.95
		L26.65,11.95h0.1 M26.45,11.65L26.45,11.65h0.1 M15.25,17.05L15.25,17.05v0.1 M15.65,17.05h0.1v0.1v0.1h0.1 M13.85,0.35h0.1v-0.1
		 M19.35,7.35L19.35,7.35 M19.35,3.65L19.35,3.65 M19.25,3.35L19.25,3.35h-0.1 M19.45,7.75v-0.1h-0.1v-0.1v-0.1 M10.35,6.55
		L10.35,6.55v-0.1h0.1v-0.1 M24.25,11.75L24.25,11.75 M16.25,9.55L16.25,9.55l-0.1-0.1v-0.1 M15.65,9.25v0.1v0.1h-0.1v0.1
		 M22.25,8.95v-0.1h0.1 M24.15,11.75L24.15,11.75h0.1 M24.15,10.25L24.15,10.25l0.1-0.1 M23.95,9.85L23.95,9.85h0.1 M18.65,12.65
		L18.65,12.65 M15.85,16.95L15.85,16.95l0.1-0.1h0.1v0.1 M15.85,13.45L15.85,13.45h0.1h0.1 M16.15,12.85h0.1v0.1v0.1h0.1
		 M26.65,15.55L26.65,15.55v0.1h0.1v0.1 M16.05,17.25L16.05,17.25v-0.1h0.1v-0.1 M22.25,8.95l-0.1-0.1 M18.65,12.65L18.65,12.65
		 M13.45,0.55l-2.4,1.4 M18.45,2.95l-3.9-2.3 M10.45,2.95v2.8 M11.15,6.55l3.9,2.3 M19.25,6.95v-2.8 M16.45,9.05l2.5-1.4
		 M18.65,11.05L18.65,11.05v0.1 M18.75,10.85l0.1-0.1 M19.55,7.65L19.55,7.65h0.1v-0.1 M19.15,7.95l-2.5,1.4 M15.55,9.65h0.1h0.1
		h0.1h0.1h0.2 M14.85,9.25l-3.9-2.3 M10.25,6.15L10.25,6.15l-0.1,0.1v0.1 M10.25,6.15l0.1-0.1 M19.35,7.25h0.1 M22.35,7.05l-2.6-1.5
		 M9.95,4.35l-3,1.7 M6.35,7.25v3.9 M7.45,12.45l6.7,3.9 M22.85,9.15L22.85,9.15l-0.1-0.1 M23.05,9.05v-1.2 M15.65,16.95h0.1
		 M15.75,16.55v-2.7 M16.05,12.85L16.05,12.85l-0.1,0.1v0.1l-0.1,0.1v0.1 M16.45,12.55l1.9-1 M19.25,3.65v-0.1v-0.1l-0.1-0.1
		 M16.25,4.95l2.5-1.4 M18.95,3.95l-2.5,1.4 M10.65,2.25h-0.1v0.1l-0.1,0.1 M15.05,5.15l-3.9-2.3 M11.35,2.55l3.9,2.3 M15.75,9.25
		L15.75,9.25h0.1h0.1 M16.05,5.95v2.8 M15.65,8.75v-2.8 M6.45,6.35L6.45,6.35l-0.1,0.1v0.1 M14.15,11.25l-6.7-4 M7.65,6.95l6.7,3.9
		 M22.15,8.15l-5.6,3.2 M22.85,7.35L22.85,7.35h0.1v0.1v0.1 M16.35,10.95l5.6-3.2 M15.25,16.35v-3.9 M15.65,17.05h-0.1h-0.1h-0.1
		 M15.65,12.45v3.9 M18.55,13.05h0.1v-0.1v-0.1h0.1 M24.15,11.85v0.1v0.1h0.1 M15.75,5.55L15.75,5.55h0.1h0.1 M16.05,5.45
		L16.05,5.45v-0.1l-0.1-0.1 M15.65,5.45h0.1v-0.1v-0.1h0.1 M15.55,11.55L15.55,11.55l0.1,0.1v0.1 M15.45,11.55L15.45,11.55h-0.1v0.1
		l-0.1,0.1 M15.65,11.85h-0.1h-0.1h-0.1 M20.95,14.05v-0.1h-0.1v-0.1 M20.25,14.05l0.1-0.1v-0.1h0.1 M23.75,9.75l-1.3-0.7
		 M21.85,9.15l-2.5,1.4 M18.75,11.35v1.2 M18.95,12.85l1.3,0.7 M21.25,13.45l2.5-1.4 M24.15,11.65v-1.2 M23.75,10.45l-2.5,1.5
		 M23.95,9.95h0.1v0.1h0.1v0.1 M21.05,11.55l2.5-1.4 M19.15,10.95l1.3,0.7 M18.75,11.15v-0.1v-0.1h0.1v-0.1 M20.25,12.05l-1.3-0.8
		 M20.45,13.75h0.1h0.1h0.1 M20.85,12.35v1.2 M20.45,13.55v-1.2 M20.45,12.15h0.1h0.1h0.1 M20.85,12.05L20.85,12.05h-0.1v-0.1v-0.1
		 M20.45,12.05L20.45,12.05v-0.1h0.1v-0.1 M24.25,11.65h0.1 M24.35,12.15h0.1v-0.1v-0.1h0.1 M23.95,12.35l-2.5,1.5 M20.35,14.15h0.1
		h0.1h0.1h0.1h0.1 M20.05,13.95l-1.3-0.8 M18.45,12.65L18.45,12.65v0.1h-0.1v0.1 M18.55,12.65l0.1-0.1 M26.15,11.45l-1.7-0.9
		 M18.35,11.95l-1.7,1 M26.65,15.05v-2.6 M22.25,18.05l3.8-2.2 M16.15,13.85v2.7 M16.55,17.15l2.3,1.3 M25.85,12.45l-4.7,2.7
		 M26.55,11.65v0.1h0.1v0.1 M20.95,14.85l4.7-2.8 M16.15,13.45l0.1-0.1v-0.1l0.1-0.1 M19.45,15.35l-2.8-1.6 M16.85,13.35l2.8,1.7
		 M20.35,15.95v2 M19.95,18.05v-2.1 M20.15,15.35h-0.1v0.1h-0.1v0.1 M19.95,15.65h0.1h0.1h0.1 M20.15,15.35h0.1v0.1h0.1v0.1
		 M27.85,13.55l-0.9-0.6 M26.75,15.25l0.1,0.1 M27.05,15.65v-0.1 M18.55,18.75l-2.2-1.2 M15.95,17.25l-0.1,0.1 M15.45,17.45
		L15.45,17.45h0.1h0.2 M6.05,11.75L6.05,11.75 M6.15,11.65h0.1 M30.35,20.65l-0.7-0.4 M24.85,26.15l0.8,0.5 M25.15,22.85l0.7,0.5
		 M25.65,23.75l-0.8-0.5 M0.65,18.95h-0.1l-0.1-0.1 M33.15,23.15v0.1l-0.1,0.1 M0.65,19.15v0.1l0.1,0.1 M32.55,24.25L32.55,24.25
		l0.1-0.1 M21.45,30.65l0.1-0.1l0.1-0.1 M19.95,30.65v-0.1l-0.1-0.1 M3.05,20.35l14.3,8.3 M0.65,13.75v4.5 M23.05,29.25l8.4-4.8
		 M32.75,22.95v-4.6 M19.75,29.25v-4.5 M21.45,30.15h-0.1l-0.2,0.1h-0.2h-0.2h-0.2h-0.3 M21.75,24.75v4.5"/>
	
		<path id="XMLID_3_" fill="none" stroke="#000000" stroke-width="0.5" stroke-linecap="round" stroke-linejoin="round" stroke-miterlimit="10" d="
		M19.95,18.95v-0.6 M20.75,18.85l-0.6-0.4 M21.35,18.45l-0.6,0.4 M20.75,19.35v-0.5 M21.45,18.95v-0.6 M19.65,18.75l0.6,0.4
		 M21.25,19.15l0.6-0.4 M20.25,19.65v-0.5 M20.25,19.15l-0.6,0.3 M21.85,19.45l-0.6-0.3 M21.25,19.65v-0.5 M21.25,19.15l-0.5,0.2
		 M20.75,19.35l-0.5-0.2 M20.75,19.35l0.6,0.4 M20.15,19.75l0.6-0.4 M18.75,20.25v0.1v0.1l0.1,0.2l0.1,0.1l0.1,0.1l0.1,0.1l0.2,0.1
		l0.2,0.1l0.2,0.1l0.2,0.1h0.3h0.2l0.2,0.1l0.3-0.1h0.2h0.3l0.2-0.1h0.2l0.2-0.1l0.2-0.1l0.1-0.1l0.1-0.2l0.1-0.1l0.1-0.1v-0.2
		l0.1-0.1 M21.45,18.35l-0.1,0.1 M21.95,18.65l-0.4-0.2l-0.1-0.1 M21.85,18.75L21.85,18.75l0.1-0.1 M21.95,19.55l-0.1-0.1
		 M21.45,19.85l0.4-0.2l0.1-0.1 M21.35,19.75L21.35,19.75l0.1,0.1 M19.95,19.85l0.1-0.1h0.1 M19.45,19.55l0.4,0.2l0.1,0.1
		 M19.65,19.45h-0.1l-0.1,0.1 M19.45,18.65l0.1,0.1h0.1 M19.95,18.35l-0.4,0.3h-0.1 M20.15,18.45h-0.1l-0.1-0.1 M3.45,9.35v-0.5
		 M4.15,9.25l-0.6-0.4 M4.75,8.85l-0.6,0.4 M4.15,9.85v-0.6 M4.95,9.35v-0.5 M3.05,9.15l0.6,0.4 M4.65,9.55l0.6-0.4 M3.65,10.15
		v-0.6 M3.65,9.55l-0.6,0.3 M5.25,9.85l-0.6-0.3 M4.65,10.15v-0.6 M4.65,9.55l-0.5,0.3 M4.15,9.85l-0.5-0.3 M4.15,9.85l0.6,0.3
		 M3.55,10.15l0.6-0.3 M2.15,10.75L2.15,10.75l0.1,0.2v0.1l0.1,0.1l0.1,0.2l0.2,0.1l0.2,0.1l0.1,0.1l0.3,0.1h0.2l0.2,0.1h0.2h0.3
		h0.2h0.3l0.2-0.1h0.2l0.2-0.1l0.2-0.1l0.2-0.1l0.2-0.1l0.1-0.1l0.1-0.2l0.1-0.1v-0.1v-0.1 M4.95,8.85h-0.1h-0.1 M5.45,9.15
		l-0.4-0.3h-0.1 M5.25,9.15h0.1h0.1 M5.45,9.95h-0.1l-0.1-0.1 M4.95,10.25l0.4-0.2l0.1-0.1 M4.75,10.15l0.1,0.1h0.1 M3.45,10.25h0.1
		v-0.1 M2.95,9.95l0.4,0.3h0.1 M3.05,9.85v0.1h-0.1 M2.95,9.15L2.95,9.15h0.1 M3.45,8.85l-0.4,0.2l-0.1,0.1 M3.55,8.85h-0.1
		 M28.55,14.05v-0.6 M29.25,13.85l-0.6-0.3 M29.85,13.55l-0.6,0.3 M29.25,14.45v-0.6 M30.05,14.05v-0.6 M28.15,13.85l0.6,0.3
		 M29.75,14.15l0.6-0.3 M28.75,14.75v-0.6 M28.75,14.15l-0.6,0.4 M30.35,14.55l-0.6-0.4 M29.75,14.75v-0.6 M29.75,14.15l-0.5,0.3
		 M29.25,14.45l-0.5-0.3 M29.25,14.45l0.6,0.4 M28.65,14.85l0.6-0.4 M27.25,15.35v0.1l0.1,0.1v0.1l0.1,0.2l0.1,0.1l0.2,0.1l0.2,0.1
		l0.1,0.1l0.2,0.1h0.3l0.2,0.1h0.2h0.3h0.2h0.3h0.2l0.2-0.1l0.2-0.1l0.2-0.1l0.2-0.1l0.2-0.1l0.1-0.1l0.1-0.1v-0.2l0.1-0.1v-0.1
		 M30.05,13.45h-0.1l-0.1,0.1 M30.55,13.75l-0.4-0.2l-0.1-0.1 M30.35,13.85l0.1-0.1h0.1 M30.55,14.65l-0.1-0.1h-0.1 M30.05,14.95
		l0.4-0.3h0.1 M29.85,14.85h0.1l0.1,0.1 M28.55,14.95l0.1-0.1 M28.05,14.65l0.4,0.2l0.1,0.1 M28.15,14.55L28.15,14.55l-0.1,0.1
		 M28.05,13.75L28.05,13.75l0.1,0.1 M28.55,13.45l-0.4,0.3h-0.1 M28.65,13.55l-0.1-0.1 M0.25,12.45v0.1l0.1,0.1l0.1,0.2l0.1,0.1
		l0.1,0.1 M6.25,11.25l-0.5,0.3 M5.75,11.55h-0.1v0.1 M28.05,13.55l-1.3-0.7 M28.45,13.45l-1.7-1 M32.75,17.65l0.1-0.1l0.2-0.1v-0.1
		l0.1-0.2v-0.1 M15.35,17.75L15.35,17.75l-0.1,0.1 M15.25,17.85l-0.6,0.3 M14.55,17.85L14.55,17.85v0.1h-0.1v0.1h0.1v0.1
		 M15.25,17.45l-0.7,0.4 M15.25,17.15v0.1h0.1v0.1v0.1h-0.1 M5.75,11.75l9.5,5.4 M5.55,11.55L5.55,11.55l0.1,0.1l0.1,0.1
		 M6.25,10.85l-0.1,0.1 M27.25,14.55L27.25,14.55 M27.15,14.75L27.15,14.75v-0.1h0.1v-0.1 M27.15,15.45v-0.7 M27.05,15.65
		L27.05,15.65v-0.1h0.1v-0.1 M21.95,18.55l5.1-2.9 M18.05,19.85l0.7-0.4 M17.55,19.85l0.1,0.1h0.1h0.1h0.1h0.1v-0.1 M0.65,13.05
		l19.1,11 M21.75,24.05l11-6.4 M14.55,18.15l3,1.7 M19.75,24.05h0.1l0.2,0.1l0.2,0.1h0.3h0.2h0.2h0.2l0.2-0.1l0.2-0.1h0.2
		 M29.45,20.15h0.1h0.1 M24.85,26.25L24.85,26.25h-0.1v-0.1 M28.35,20.35l0.5,0.2 M29.45,20.15l-4.5,2.6 M24.75,23.25v2.9
		 M24.75,23.25v-0.1v-0.1l0.1-0.1v-0.1h0.1v-0.1 M29.55,24.75l0.5-0.3 M28.45,25.45l0.5-0.3 M25.95,26.85l1.8-1 M30.75,22.95v-2
		 M30.75,20.95v-0.1v-0.1h-0.1h-0.1h-0.1 M30.45,20.75l-4.5,2.6 M25.95,23.35v0.1h-0.1v0.1l-0.1,0.1v0.1v0.1 M25.75,23.85v2.8
		 M25.75,26.65v0.1v0.1h0.1h0.1 M27.55,23.75h-0.1l-0.1-0.1h-0.1l-0.1,0.1h-0.1l-0.1,0.1l-0.1,0.1l-0.1,0.2l-0.1,0.1l-0.1,0.1v0.2
		v0.1l-0.1,0.2l0.1,0.1v0.1v0.1h0.1v0.1 M28.65,23.05L28.65,23.05h-0.1h-0.1h-0.1l-0.2,0.1l-0.1,0.1l-0.1,0.1l-0.1,0.1l-0.1,0.2v0.1
		l-0.1,0.1 M29.85,22.45l-0.1-0.1h-0.1h-0.1l-0.1,0.1l-0.1,0.1h-0.1l-0.2,0.2v0.1l-0.1,0.1l-0.1,0.2 M29.85,23.85l-0.1-0.1v-0.1
		h-0.1h-0.1h-0.1h-0.1l-0.2,0.1l-0.1,0.1l-0.1,0.1l-0.1,0.1l-0.1,0.2v0.1l-0.1,0.1 M28.65,24.45L28.65,24.45l-0.1-0.1l-0.1-0.1h-0.1
		h-0.1l-0.1,0.1h-0.1l-0.1,0.1l-0.1,0.1l-0.1,0.1l-0.1,0.2l-0.1,0.1v0.2v0.1v0.1v0.2v0.1v0.1h0.1l0.1,0.1h0.1h0.1l0.1-0.1l0.1-0.1
		l0.1-0.1l0.1-0.1l0.1-0.1l0.1-0.1l0.1-0.2v-0.1 M28.65,24.95l0.1,0.1l0.1,0.1h0.1h0.1h0.1l0.2-0.1l0.1-0.1l0.1-0.1l0.1-0.1l0.1-0.2
		v-0.1l0.1-0.2 M29.85,24.25v0.1l0.1,0.1h0.1v0.1l0.2-0.1h0.1l0.1-0.1h0.1l0.1-0.1l0.1-0.2l0.1-0.1v-0.1l0.1-0.2v-0.1v-0.2v-0.1
		v-0.1l-0.1-0.1v-0.1h-0.1h-0.1h-0.1l-0.1,0.1h-0.1l-0.1,0.1l-0.2,0.1v0.2l-0.1,0.1l-0.1,0.1v0.2 M28.55,20.45v-0.4 M28.55,20.45
		l-0.2-0.1 M29.25,20.35v-0.7 M25.25,22.65v-0.7 M29.25,19.65l3.5-2 M32.75,17.65l0.1-0.1l0.2-0.1v-0.1l0.1-0.2v-0.1 M0.25,12.45
		v0.1l0.1,0.1l0.1,0.2l0.1,0.1l0.1,0.1 M0.65,13.05l19.1,11 M19.75,24.05h0.1l0.2,0.1l0.2,0.1h0.3h0.2h0.2h0.2l0.2-0.1l0.2-0.1h0.2
		 M21.75,24.05l3.5-2.1 M22.75,20.25v-0.6 M18.75,19.65v0.6 M19.45,18.55l-0.1,0.1l-0.2,0.1l-0.1,0.1l-0.1,0.2l-0.1,0.1l-0.1,0.2
		v0.2v0.1 M22.75,19.65l-0.1-0.1v-0.2v-0.2l-0.1-0.1l-0.1-0.2l-0.2-0.1l-0.1-0.1l-0.2-0.1l-0.2-0.1l-0.2-0.1h-0.2l-0.2-0.1h-0.2
		h-0.3h-0.2h-0.2l-0.3,0.1l-0.2,0.1h-0.2l-0.1,0.1 M6.15,10.75v-0.6 M2.15,10.15v0.6 M2.95,8.95l-0.1,0.1l-0.2,0.1l-0.1,0.2
		l-0.2,0.1v0.2l-0.1,0.1l-0.1,0.2v0.2 M6.15,10.15v-0.2v-0.2l-0.1-0.1l-0.1-0.2l-0.1-0.1l-0.1-0.1l-0.2-0.2l-0.1-0.1l-0.2-0.1h-0.2
		l-0.3-0.1h-0.2l-0.2-0.1h-0.2h-0.3l-0.2,0.1h-0.2l-0.2,0.1l-0.2,0.1h-0.1 M31.25,15.35v-0.6 M27.25,14.75v0.6 M28.05,13.65h-0.1
		l-0.2,0.2l-0.2,0.1l-0.1,0.1v0.2l-0.1,0.1l-0.1,0.2v0.2 M31.25,14.75v-0.2v-0.1l-0.1-0.2l-0.1-0.1l-0.1-0.2l-0.1-0.1l-0.2-0.1
		l-0.1-0.1l-0.2-0.1l-0.2-0.1l-0.3-0.1h-0.2h-0.2h-0.2h-0.3h-0.2l-0.2,0.1h-0.2l-0.2,0.1l-0.1,0.1 M2.25,9.95l-1.3,0.7 M6.25,7.65
		l-1.9,1 M0.25,11.85v0.6 M0.95,10.65l-0.1,0.1l-0.2,0.1l-0.1,0.1l-0.1,0.2l-0.1,0.2v0.1l-0.1,0.2v0.2 M29.05,13.35l-2.3-1.4
		 M32.45,15.25l-1.2-0.7 M33.15,17.05v-0.6 M33.15,16.45v-0.1v-0.2l-0.1-0.2l-0.1-0.2l-0.1-0.1l-0.1-0.2l-0.1-0.1l-0.2-0.1
		 M15.35,17.75v-0.4 M6.25,11.75L6.25,11.75 M10.35,3.95l-4,2.3 M6.25,6.55v5.2 M6.35,6.25v0.1h-0.1v0.1v0.1 M14.05,0.35l-0.1-0.1
		h-0.1h-0.1v0.1 M10.35,6.15L10.35,6.15 M22.95,7.25l-3.6-2.1 M23.05,9.35v-1.8 M23.05,7.55v-0.1v-0.1l-0.1-0.1 M26.75,15.35
		L26.75,15.35 M19.35,7.35L19.35,7.35v-0.1 M13.75,0.35l-3.2,1.8 M10.35,2.45v3.7 M10.55,2.15L10.55,2.15l-0.1,0.1v0.1h-0.1v0.1
		 M26.65,11.65l-2.4-1.4 M26.75,15.35v-3.5 M26.75,11.85L26.75,11.85v-0.1l-0.1-0.1 M22.35,8.85L22.35,8.85h-0.1h-0.1h-0.1
		 M19.25,3.35l-5.2-3 M19.35,7.25v-3.7 M19.35,3.55L19.35,3.55v-0.1v-0.1h-0.1 M24.25,11.75L24.25,11.75v-0.1 M24.05,9.85l-1.7-1
		 M24.25,11.65v-1.5 M24.25,10.15v-0.1l-0.1-0.1l-0.1-0.1 M18.65,12.65L18.65,12.65 M22.05,8.85l-3.3,2 M18.65,11.05v1.6
		 M18.75,10.85L18.75,10.85l-0.1,0.1v0.1 M30.65,20.75l-1-0.6 M24.85,26.25l1,0.6 M29.75,24.35l0.2,0.1 M30.85,22.95l-1-0.5
		 M28.65,25.05l0.2,0.1 M29.65,23.65l-1-0.6 M26.65,25.25l1,0.5 M28.55,24.35l-1-0.6 M0.25,18.45v0.2l0.1,0.2v0.1l0.1,0.2l0.1,0.2
		l0.1,0.1l0.2,0.1l0.1,0.1 M0.25,12.45v6 M32.45,24.35l0.2-0.1l0.1-0.2l0.1-0.1l0.1-0.2l0.1-0.1l0.1-0.2v-0.2v-0.2 M33.15,23.05v-6
		 M0.95,19.65l19.1,11 M21.45,30.65l11-6.3 M20.05,30.65l0.1,0.1l0.2,0.1h0.2h0.2h0.2h0.1l0.2-0.1l0.2-0.1"/>
</g>
</svg>
