<?xml version="1.0" encoding="utf-8"?>
<!-- Generator: Adobe Illustrator 19.0.0, SVG Export Plug-In . SVG Version: 6.00 Build 0)  -->
<svg version="1.0" id="Layer_1" xmlns="http://www.w3.org/2000/svg" xmlns:xlink="http://www.w3.org/1999/xlink" x="0px" y="0px"
	 width="36.4px" height="297.3px" viewBox="0 0 36.4 297.3" enable-background="new 0 0 36.4 297.3" xml:space="preserve">
<path id="XMLID_1_" fill="none" stroke="#000000" stroke-width="0.25" stroke-miterlimit="10" d="M30.65,36.45v0.3l-0.1,0.3
	l-0.1,0.4l-0.1,0.3l-0.2,0.3l-0.2,0.3l-0.2,0.2l-0.2,0.3l-0.3,0.2l-0.2,0.1l-0.2,0.1h-0.3h-0.2h-0.2l-0.2-0.1l-0.1-0.2l-0.1-0.2
	l-0.1-0.3v-0.2v-0.3l0.1-0.3l0.1-0.4l0.1-0.3l0.2-0.3l0.2-0.3l0.2-0.2l0.3-0.3l0.2-0.2l0.2-0.1l0.3-0.1h0.2h0.2h0.2l0.2,0.2l0.1,0.1
	l0.1,0.2l0.1,0.3V36.45 M30.65,198.55v0.3l-0.1,0.3l-0.1,0.3l-0.1,0.3l-0.2,0.3l-0.2,0.3l-0.2,0.3l-0.2,0.2l-0.3,0.2l-0.2,0.1
	l-0.2,0.1l-0.3,0.1h-0.2l-0.2-0.1l-0.2-0.1l-0.1-0.2l-0.1-0.2l-0.1-0.2v-0.3v-0.3l0.1-0.3l0.1-0.3l0.1-0.4l0.2-0.3l0.2-0.3l0.2-0.2
	l0.3-0.2l0.2-0.2l0.2-0.2l0.3-0.1h0.2h0.2l0.2,0.1l0.2,0.1l0.1,0.1l0.1,0.2l0.1,0.3V198.55 M30.65,59.65v0.3l-0.1,0.3l-0.1,0.3
	l-0.1,0.3l-0.2,0.3l-0.2,0.3l-0.2,0.3l-0.2,0.2l-0.3,0.2l-0.2,0.2h-0.2l-0.3,0.1h-0.2l-0.2-0.1l-0.2-0.1l-0.1-0.2l-0.1-0.2l-0.1-0.2
	v-0.3v-0.3l0.1-0.3l0.1-0.3l0.1-0.3l0.2-0.3l0.2-0.3l0.2-0.3l0.3-0.2l0.2-0.2l0.2-0.2h0.3l0.2-0.1h0.2l0.2,0.1l0.2,0.1l0.1,0.2
	l0.1,0.2l0.1,0.2V59.65 M30.65,175.35v0.3l-0.1,0.3l-0.1,0.3l-0.1,0.4l-0.2,0.3l-0.2,0.3l-0.2,0.2l-0.2,0.3l-0.3,0.1l-0.2,0.2
	l-0.2,0.1h-0.3h-0.2l-0.2-0.1l-0.2-0.1l-0.1-0.1l-0.1-0.2l-0.1-0.3v-0.3v-0.2l0.1-0.4l0.1-0.3l0.1-0.3l0.2-0.3l0.2-0.3l0.2-0.3
	l0.3-0.2l0.2-0.2l0.2-0.1l0.3-0.1l0.2-0.1l0.2,0.1h0.2l0.2,0.1l0.1,0.2l0.1,0.2l0.1,0.2V175.35 M30.65,82.75v0.3l-0.1,0.3l-0.1,0.4
	l-0.1,0.3l-0.2,0.3l-0.2,0.3l-0.2,0.2l-0.2,0.3l-0.3,0.2l-0.2,0.1l-0.2,0.1h-0.3h-0.2h-0.2l-0.2-0.2l-0.1-0.1l-0.1-0.2l-0.1-0.3
	v-0.2v-0.3l0.1-0.3l0.1-0.4l0.1-0.3l0.2-0.3l0.2-0.3l0.2-0.2l0.3-0.3l0.2-0.2l0.2-0.1l0.3-0.1h0.2h0.2h0.2l0.2,0.1l0.1,0.2l0.1,0.2
	l0.1,0.3V82.75 M30.65,129.05v0.3l-0.1,0.3l-0.1,0.4l-0.1,0.3l-0.2,0.3l-0.2,0.3l-0.2,0.2l-0.2,0.3l-0.3,0.1l-0.2,0.2l-0.2,0.1h-0.3
	h-0.2h-0.2l-0.2-0.2l-0.1-0.1l-0.1-0.2l-0.1-0.3v-0.2v-0.3l0.1-0.4l0.1-0.3l0.1-0.3l0.2-0.3l0.2-0.3l0.2-0.3l0.3-0.2l0.2-0.2
	l0.2-0.1l0.3-0.1h0.2h0.2h0.2l0.2,0.1l0.1,0.2l0.1,0.2l0.1,0.2V129.05 M30.65,105.95v0.3l-0.1,0.3l-0.1,0.3l-0.1,0.3l-0.2,0.3
	l-0.2,0.3l-0.2,0.3l-0.2,0.2l-0.3,0.2l-0.2,0.1l-0.2,0.1l-0.3,0.1h-0.2l-0.2-0.1l-0.2-0.1l-0.1-0.2l-0.1-0.2l-0.1-0.2v-0.3v-0.3
	l0.1-0.3l0.1-0.3l0.1-0.3l0.2-0.3l0.2-0.3l0.2-0.3l0.3-0.2l0.2-0.2l0.2-0.2l0.3-0.1h0.2h0.2l0.2,0.1l0.2,0.1l0.1,0.2l0.1,0.2
	l0.1,0.2V105.95 M30.65,244.85v0.2l-0.1,0.4l-0.1,0.3l-0.1,0.3l-0.2,0.3l-0.2,0.3l-0.2,0.3l-0.2,0.2l-0.3,0.2l-0.2,0.1l-0.2,0.1
	l-0.3,0.1l-0.2-0.1h-0.2l-0.2-0.1l-0.1-0.2l-0.1-0.2l-0.1-0.2v-0.3v-0.3l0.1-0.3l0.1-0.3l0.1-0.4l0.2-0.3l0.2-0.3l0.2-0.2l0.3-0.3
	l0.2-0.1l0.2-0.2l0.3-0.1h0.2h0.2l0.2,0.1l0.2,0.1l0.1,0.1l0.1,0.2l0.1,0.3V244.85 M30.65,152.25v0.3l-0.1,0.3l-0.1,0.3l-0.1,0.3
	l-0.2,0.3l-0.2,0.3l-0.2,0.3l-0.2,0.2l-0.3,0.2l-0.2,0.1l-0.2,0.1l-0.3,0.1h-0.2l-0.2-0.1l-0.2-0.1l-0.1-0.2l-0.1-0.2l-0.1-0.2v-0.3
	v-0.3l0.1-0.3l0.1-0.3l0.1-0.3l0.2-0.4l0.2-0.2l0.2-0.3l0.3-0.2l0.2-0.2l0.2-0.2l0.3-0.1h0.2h0.2l0.2,0.1l0.2,0.1l0.1,0.1l0.1,0.3
	l0.1,0.2V152.25 M30.65,221.65v0.3l-0.1,0.3l-0.1,0.3l-0.1,0.4l-0.2,0.3l-0.2,0.3l-0.2,0.2l-0.2,0.2l-0.3,0.2l-0.2,0.2l-0.2,0.1
	h-0.3h-0.2l-0.2-0.1l-0.2-0.1l-0.1-0.1l-0.1-0.2l-0.1-0.3v-0.3v-0.3l0.1-0.3l0.1-0.3l0.1-0.3l0.2-0.3l0.2-0.3l0.2-0.3l0.3-0.2
	l0.2-0.2l0.2-0.1l0.3-0.1l0.2-0.1h0.2l0.2,0.1l0.2,0.1l0.1,0.2l0.1,0.2l0.1,0.2V221.65 M30.65,267.95v0.3l-0.1,0.3l-0.1,0.3
	l-0.1,0.3l-0.2,0.4l-0.2,0.2l-0.2,0.3l-0.2,0.2l-0.3,0.2l-0.2,0.2l-0.2,0.1h-0.3h-0.2l-0.2-0.1l-0.2-0.1l-0.1-0.1l-0.1-0.3l-0.1-0.2
	v-0.3v-0.3l0.1-0.3l0.1-0.3l0.1-0.3l0.2-0.3l0.2-0.3l0.2-0.3l0.3-0.2l0.2-0.2l0.2-0.1l0.3-0.1l0.2-0.1h0.2l0.2,0.1l0.2,0.1l0.1,0.2
	l0.1,0.2l0.1,0.2V267.95"/>
<path id="XMLID_13_" fill="none" stroke="#000000" stroke-width="0.25" stroke-linecap="round" stroke-linejoin="round" stroke-miterlimit="10" d="
	M33.95,150.25h0.1 M34.35,140.75v0.5v0.9l-0.1,0.9v0.9v0.5l-0.1,1.1v0.5v0.5v0.9v0.4 M33.45,138.95L33.45,138.95l0.3,0.1h0.3
	 M7.45,8.45v1.7 M7.95,8.35v2 M11.35,32.85v228.3 M6.15,9.05v0.5 M1.15,34.35v228.2 M8.15,36.05v228.3 M5.65,36.95v228.3
	 M6.65,36.95v228.3 M11.85,32.95v228.3 M19.45,12.85v2.1 M12.65,40.95v228.3 M29.15,40.65v16.6 M29.15,16.15v17.8 M29.15,272.15
	v17.9 M29.15,248.95v16.6 M29.15,225.75v16.7 M29.15,202.65v16.6 M29.15,179.45v16.7 M29.15,156.35v16.6 M29.15,133.15v16.7
	 M29.15,110.05v16.6 M29.15,86.85v16.7 M29.15,63.75v16.6 M17.15,271.85V43.55 M21.15,43.55v228.3"/>
<path id="XMLID_42_" fill="none" stroke="#000000" stroke-width="0.5" stroke-linecap="round" stroke-linejoin="round" stroke-miterlimit="10" d="
	M34.35,149.95l0.7-0.6l0.6-0.9l0.3-1l0.2-1.2v-1.4l-0.2-1.4l-0.3-1.5l-0.6-1.5l-0.7-1.4 M34.35,139.05l-0.5-0.9l-0.5-0.8
	 M11.35,285.85h0.1l0.1,0.1h0.1h0.1l0.1,0.1 M8.35,285.85h3 M1.15,287.35l-0.4-0.3l-0.3-0.2l-0.1-0.4l-0.1-0.3 M8.15,289.05h0.1
	v-0.1l0.1-0.1v-0.1 M1.15,287.35l4.5,2.6 M6.65,289.95l1.5-0.9 M5.65,289.95h0.1l0.1,0.1h0.1h0.2h0.1h0.1l0.2-0.1h0.1 M11.85,286.05
	l0.6,0.3 M29.15,35.95l0.2-0.1l0.1-0.1h0.1h0.2h0.1h0.1l0.1,0.1l0.1,0.1l0.1,0.1v0.1l0.1,0.1v0.3v0.1v0.1v0.3l-0.1,0.2l-0.1,0.3
	l-0.1,0.2v0.1l-0.1,0.2l-0.1,0.1l-0.1,0.1v0.1l-0.2,0.1l-0.1,0.1l-0.1,0.1v0.1h-0.1l-0.1,0.1 M29.15,59.05l0.4-0.2l0.4,0.1l0.2,0.1
	l0.2,0.4v0.4l-0.1,0.6l-0.2,0.5l-0.3,0.5l-0.4,0.4l-0.2,0.1 M29.15,82.25l0.1-0.1l0.1-0.1h0.1h0.1h0.2h0.1h0.1l0.1,0.1h0.1v0.1
	l0.1,0.1v0.1l0.1,0.1v0.2v0.2v0.1v0.3l-0.1,0.1v0.1l-0.1,0.3l-0.1,0.1v0.2l-0.1,0.1l-0.1,0.1l-0.1,0.2v0.1l-0.1,0.1l-0.1,0.1
	l-0.1,0.1l-0.1,0.1h-0.2 M29.15,105.35l0.2-0.1h0.1l0.1-0.1h0.2h0.1h0.1l0.1,0.1l0.1,0.1l0.1,0.1v0.1l0.1,0.1v0.1v0.2v0.2v0.3
	l-0.1,0.3l-0.1,0.3l-0.1,0.2l-0.1,0.2l-0.1,0.1l-0.1,0.2l-0.2,0.2l-0.1,0.1l-0.1,0.1h-0.1l-0.1,0.1 M29.15,128.45l0.4-0.1h0.4
	l0.2,0.2l0.2,0.3v0.5l-0.1,0.5l-0.2,0.6l-0.3,0.5l-0.4,0.3l-0.2,0.1 M29.15,151.65l0.2-0.1l0.2-0.1h0.2h0.2l0.1,0.1l0.1,0.1l0.1,0.2
	l0.1,0.2v0.2v0.2v0.3l-0.1,0.3l-0.1,0.2l-0.1,0.3l-0.2,0.3l-0.1,0.2l-0.2,0.2l-0.2,0.2l-0.2,0.1 M29.15,174.75l0.4-0.1h0.4l0.2,0.2
	l0.2,0.3v0.5l-0.1,0.5l-0.2,0.6l-0.3,0.5l-0.4,0.3l-0.2,0.1 M29.15,197.95l0.1-0.1h0.1l0.1-0.1h0.1h0.2h0.1h0.1l0.1,0.1h0.1v0.1
	l0.1,0.1v0.1v0.1l0.1,0.1v0.2v0.1v0.1v0.3l-0.1,0.1v0.2l-0.1,0.2l-0.1,0.2v0.1l-0.1,0.1l-0.1,0.2l-0.1,0.1v0.1l-0.1,0.1l-0.1,0.1
	l-0.1,0.1l-0.1,0.1l-0.2,0.1 M29.15,221.05l0.2-0.1h0.2l0.2-0.1l0.2,0.1h0.1l0.1,0.2l0.1,0.1l0.1,0.2v0.2v0.3v0.2l-0.1,0.3l-0.1,0.3
	l-0.1,0.3l-0.2,0.2l-0.1,0.3l-0.2,0.2l-0.2,0.1l-0.2,0.1 M29.15,244.25l0.4-0.2h0.4l0.2,0.2l0.2,0.3v0.5l-0.1,0.6l-0.2,0.5l-0.3,0.5
	l-0.4,0.4l-0.2,0.1 M29.15,267.35l0.4-0.1h0.4l0.2,0.1l0.2,0.4v0.5l-0.1,0.5l-0.2,0.5l-0.3,0.5l-0.4,0.4l-0.2,0.1 M29.15,291.95
	l1.2-0.8l1.1-0.9l0.8-0.9l0.6-1.1l0.4-1l0.1-1.1 M33.35,150.75v-0.9v-0.6v-0.5l-0.1-1.2l0.1-0.6v-0.6v-1.3v-0.7v-0.5 M12.45,293.65
	v0.1v0.1l0.1,0.1h0.1 M12.65,293.95l4.5,2.6 M29.15,35.95l-0.5,0.3l-0.4,0.6l-0.2,0.6l-0.1,0.6l0.1,0.5l0.2,0.3l0.4,0.1l0.5-0.1
	 M21.15,296.55l8-4.6 M29.15,267.35l-0.5,0.4l-0.4,0.6l-0.2,0.6l-0.1,0.6l0.1,0.5l0.2,0.3l0.4,0.1l0.5-0.2 M29.15,244.25l-0.5,0.4
	l-0.4,0.5l-0.2,0.6l-0.1,0.6l0.1,0.5l0.2,0.4h0.4l0.5-0.1 M29.15,221.05l-0.5,0.4l-0.4,0.6l-0.2,0.6l-0.1,0.6l0.1,0.5l0.2,0.3
	l0.4,0.1l0.5-0.2 M29.15,197.95l-0.5,0.4l-0.4,0.5l-0.2,0.6l-0.1,0.7l0.1,0.4l0.2,0.4h0.4l0.5-0.1 M29.15,174.75l-0.5,0.4l-0.4,0.6
	l-0.2,0.6l-0.1,0.6l0.1,0.5l0.2,0.3l0.4,0.1l0.5-0.2 M29.15,151.65l-0.5,0.4l-0.4,0.5l-0.2,0.6l-0.1,0.7l0.1,0.5l0.2,0.3h0.4
	l0.5-0.1 M29.15,128.45l-0.5,0.4l-0.4,0.6l-0.2,0.6l-0.1,0.6l0.1,0.5l0.2,0.3l0.4,0.1l0.5-0.2 M29.15,105.35l-0.5,0.4l-0.4,0.5
	l-0.2,0.7l-0.1,0.6l0.1,0.5l0.2,0.3l0.4,0.1l0.5-0.2 M29.15,82.25l-0.5,0.3l-0.4,0.6l-0.2,0.6l-0.1,0.6l0.1,0.5l0.2,0.3l0.4,0.1
	l0.5-0.2 M29.15,59.05l-0.5,0.4l-0.4,0.5l-0.2,0.7l-0.1,0.6l0.1,0.5l0.2,0.3l0.4,0.1l0.5-0.2 M9.15,2.65l-8,4.6 M1.15,7.25l-0.4,0.3
	l-0.3,0.2l-0.1,0.4l-0.1,0.3l0.1,0.3l0.1,0.3l0.3,0.3l0.4,0.2 M1.15,9.55l4.5,2.6 M5.65,12.15l0.1,0.1h0.1h0.1l0.2,0.1l0.1-0.1h0.1
	h0.2l0.1-0.1 M6.65,12.15l1.5-0.8 M8.15,11.35l0.1-0.1v-0.1h0.1v-0.1v-0.1l-0.1-0.1v-0.1h-0.1 M8.15,10.75l-2-1.2 M6.15,9.55h-0.1
	l-0.1-0.1v-0.1v-0.1v-0.1l0.1-0.1h0.1 M6.15,9.05l1.3-0.8 M7.45,8.25L7.45,8.25h0.1v-0.1h0.1h0.1h0.1h0.1 M7.95,8.15h3.4
	 M11.35,8.15h0.1h0.1h0.1l0.1,0.1h0.1 M11.85,8.25l7.6,4.4 M19.45,12.65L19.45,12.65l0.1,0.1l0.1,0.1v0.1 M19.65,12.95v2
	 M19.65,14.95L19.65,14.95v0.1h-0.1v0.1h-0.1 M19.45,15.15l-1.3,0.8 M18.15,15.95h-0.1l-0.1,0.1h-0.2h-0.1h-0.1h-0.2l-0.1-0.1h-0.1
	 M17.15,15.95l-2-1.2 M15.15,14.75h-0.1l-0.1-0.1h-0.2h-0.1h-0.1h-0.2l-0.1,0.1h-0.1 M14.15,14.75l-1.5,0.9 M12.65,15.65l-0.1,0.1
	h-0.1v0.1v0.1v0.1v0.1h0.1l0.1,0.1 M12.65,16.25l4.5,2.6 M21.15,18.85l8-4.6 M29.15,14.25l1.2-0.8l1.1-0.9l0.8-1l0.6-1l0.4-1.1
	l0.1-1l-0.1-1.1l-0.4-1l-0.6-1.1l-0.8-0.9l-1.1-0.9l-1.2-0.8l-1.4-0.7l-1.5-0.6l-1.7-0.5l-1.7-0.3l-1.8-0.2l-1.9-0.1l-1.8,0.1
	l-1.9,0.2l-1.7,0.3l-1.7,0.5l-1.5,0.6l-1.4,0.7 M16.65,9.85l0.7,0.3l0.9,0.2l0.9,0.1l0.9-0.1l0.9-0.2l0.7-0.3l0.6-0.4l0.3-0.5
	l0.1-0.5l-0.1-0.6l-0.3-0.4l-0.6-0.5l-0.7-0.3l-0.9-0.2l-0.9-0.1l-0.9,0.1l-0.9,0.2l-0.7,0.3l-0.6,0.5l-0.3,0.4l-0.1,0.6l0.1,0.5
	l0.3,0.5L16.65,9.85 M17.15,18.85l0.4,0.2l0.5,0.1l0.5,0.1l0.6,0.1l0.6-0.1l0.5-0.1l0.5-0.1l0.4-0.2 M21.15,296.55l-0.4,0.2
	l-0.5,0.2l-0.5,0.1h-0.6h-0.6l-0.5-0.1l-0.5-0.2l-0.4-0.2 M33.95,150.25L33.95,150.25l0.3-0.2 M33.35,151.25v-0.2l0.2-0.3l0.4-0.5
	 M0.25,8.45v277.7 M8.35,288.75V11.05 M33.35,286.15v-135.4 M33.35,143.85V8.45 M12.45,15.95v277.7"/>
</svg>
