<?xml version="1.0" encoding="utf-8"?>
<!-- Generator: Adobe Illustrator 19.0.0, SVG Export Plug-In . SVG Version: 6.00 Build 0)  -->
<svg version="1.0" id="Layer_1" xmlns="http://www.w3.org/2000/svg" xmlns:xlink="http://www.w3.org/1999/xlink" x="0px" y="0px"
	 width="69.5px" height="72.2px" viewBox="0 0 69.5 72.2" enable-background="new 0 0 69.5 72.2" xml:space="preserve">
<path fill="none" stroke="#000000" stroke-width="0.25" stroke-linecap="round" stroke-linejoin="round" stroke-miterlimit="10" d="
	M13.65,42.95l0.3-0.1l0.2-0.1h0.3h0.3 M13.45,43.05v0.2 M15.25,41.75l-0.2-0.1h-0.3h-0.3h-0.3 M28.05,39.85l-0.2-0.2l-0.3-0.3
	l-0.2-0.4l-0.3-0.3l-0.2-0.4l-0.1-0.4 M25.55,37.75v0.2l0.2,0.5l0.1,0.4l0.2,0.4l0.3,0.3l0.2,0.4 M0.45,40.65L0.45,40.65l0.1,0.5
	l0.1,0.5l0.2,0.5l0.2,0.4 M5.55,45.45L5.55,45.45l-0.3-0.3l-0.2-0.3l-0.2-0.4l-0.2-0.5 M10.45,44.85v0.1 M9.75,0.35L9.75,0.35h-0.1
	 M9.55,0.55l-0.1-0.1h-0.1 M8.85,1.15L8.85,1.15 M26.55,36.55h0.1l0.1-0.2l0.1-0.1 M26.35,36.75l-0.7,0.4 M26.45,35.05v-14.8
	 M23.65,37.35l0.3,0.1h0.3h0.2h0.3 M25.45,20.35v15.2 M8.85,1.45v2.5 M9.45,0.55L9.45,0.55l-0.1,0.1h-0.2 M9.15,2.45v-0.1l-0.1-0.6
	 M0.25,39.85v0.1l0.1,0.1 M28.65,40.05L28.65,40.05l0.2-0.1h0.2 M25.95,18.45l-0.4,0.2 M42.75,48.35l-12.1-7 M28.35,40.25l-0.7,0.4
	 M13.65,11.65l0.3-0.1h0.2h0.3h0.3 M29.75,42.05l12.9,7.4 M26.45,42.25l0.1-0.1v-0.2l0.1-0.3l0.1-0.2 M15.25,10.55l-0.2-0.1
	l-0.3-0.1h-0.3h-0.3 M23.45,35.55v-15.2 M19.45,16.65v19.6 M25.85,41.95l-0.1-0.1l-0.4-0.3l-0.4-0.4l-0.3-0.5l-0.3-0.5l-0.3-0.5
	l-0.2-0.5l-0.1-0.5 M23.65,18.85h0.3l0.3,0.1h0.2h0.3 M25.55,18.05v0.3l-0.1,0.4 M23.45,18.55l0.1-0.3 M0.45,19.05v19 M0.95,40.45
	l3,1.7 M0.25,16.75L0.25,16.75v0.1l0.1,0.1 M5.15,8.25L5.15,8.25h0.1 M13.45,10.35l-0.1-0.2l-0.1-0.3l-0.1-0.2l-0.1-0.3l-0.2-0.2
	 M4.45,40.35v-19 M6.25,42.55l-0.3,0.1h-0.2h-0.3h-0.3 M6.55,43.35v0.1l0.1,0.4l0.2,0.4l0.2,0.3l0.3,0.3l0.3,0.2l0.3,0.1l0.4,0.1
	h0.4 M10.85,44.55l2.2-1.3 M13.45,42.95v-1 M15.45,37.15v-22.4 M13.45,11.65v-0.9 M13.05,10.85l-2.2,1.2 M6.45,21.35v19 M4.65,8.85
	l-0.2,0.1l-0.5,0.4l-0.4,0.5l-0.5,0.5l-0.4,0.5l-0.4,0.6l-0.4,0.6l-0.3,0.6 M3.95,18.95l-3-1.7 M15.45,43.15v0.1l0.1,0.2
	 M10.45,12.05l-0.1-0.2l-0.1-0.2l-0.1-0.3l-0.1-0.2l-0.2-0.2 M4.55,18.35v-0.2l0.1-0.7l0.2-0.6l0.2-0.6l0.2-0.7l0.3-0.6l0.4-0.6
	l0.3-0.6 M6.25,19.35l-0.3,0.1l-0.2,0.1h-0.3h-0.3 M9.85,12.75l-0.3,0.2l-0.4,0.4l-0.4,0.5l-0.4,0.4l-0.4,0.5l-0.3,0.6 M15.45,41.95
	v1 M19.25,45.25l21.8,12.6 M41.05,56.65l-21.8-12.6 M15.45,41.65L15.45,41.65l0.1-0.3l0.1-0.2l0.1-0.3 M28.85,43.85l13.7,7.8
	 M20.35,38.95l5.2,3 M15.35,39.75L15.35,39.75h0.2l0.2,0.1h0.1l0.2,0.1 M20.15,42.25l21.1,12.2 M41.25,53.25l-20.9-12 M68.55,68.45
	v0.1 M68.25,68.55v0.1 M61.35,63.85v0.1l0.1,0.1l0.1,0.2v0.1l0.1,0.1 M61.95,64.55L61.95,64.55l0.1-0.1l0.1-0.1l0.1-0.1
	 M62.05,64.65l0.9,0.6 M60.15,65.55l1.4-0.8 M63.25,65.35h0.4 M59.35,65.05v0.1l0.1,0.1v0.1l0.1,0.1l0.1,0.1 M67.75,68.95h-0.1v-0.1
	 M63.15,65.35v0.2v0.1v0.1v0.1 M62.65,65.35h-0.4l-0.4,0.1h-0.4l-0.4,0.1 M55.45,68.25l0.7-0.6l1.5-0.8 M49.95,33.85v-0.1
	 M46.45,69.05L46.45,69.05l-0.3-0.3l-0.2-0.3l-0.2-0.4l-0.2-0.5 M54.85,70.95v0.1 M49.35,68.85v0.1l0.1,0.5l0.1,0.5l0.2,0.4l0.2,0.4
	 M50.25,33.55v-0.3l-0.1-0.5 M15.65,12.35L15.65,12.35l-0.1-0.2 M15.45,10.75v0.9 M20.15,14.45l27.1,15.6 M47.55,29.15l-27.3-15.8
	 M15.45,10.45v-0.1l0.1-0.2l0.1-0.3l0.1-0.2 M52.35,31.95v0.6 M61.45,63.65h0.1h0.2h0.1h0.1 M62.35,61.45v-21.4 M64.25,64.75
	l-1.6-0.9 M64.45,40.65v21.9 M64.55,64.95L64.55,64.95l0.1,0.1h0.1 M52.35,31.75v-0.1l0.1-0.2l0.1-0.3l0.1-0.2 M52.45,31.95l0.1,0.1
	l0.1,0.1 M63.45,37.75l0.9,0.5 M69.25,67.35L69.25,67.35l-0.1,0.1v0.1 M64.45,38.25L64.45,38.25v-0.1h-0.1v-0.1h-0.1v-0.1
	 M64.55,38.35L64.55,38.35h0.1l0.1,0.1 M10.45,0.25h-0.1h-0.2l-0.2,0.1 M68.45,68.45l-0.1,0.1 M69.05,67.65L69.05,67.65l-0.1,0.2
	v0.1l-0.1,0.1 M69.05,38.05v26.6 M52.65,32.35h0.1h0.2 M44.95,65.55v0.1l0.1,0.1l0.1,0.2 M69.25,34.95L69.25,34.95l-0.1,0.1v0.1
	 M68.65,33.95l-0.1-0.1h-0.1l-0.2,0.1 M68.65,34.85h0.1h0.1h0.1 M68.25,68.65h-0.1h-0.1h-0.1 M68.25,65.55v-27.6 M68.15,34.05
	l0.1,0.1v0.1l0.1,0.1l0.1,0.2v0.1 M68.35,34.95l0.1-0.1 M67.85,34.25h0.1l0.1,0.2l0.1,0.1l0.1,0.1v0.1 M68.25,35.05h-0.1h-0.1
	l-0.1,0.1 M45.35,63.95v-19 M48.85,68.05l-3-1.7 M57.35,38.85l-0.5,0.1l-0.7,0.3l-0.6,0.2 M63.15,37.65L63.15,37.65 M50.25,68.45
	h-0.1h-0.2h-0.1h-0.2 M49.35,47.25v19 M49.65,34.15l0.1-0.1h0.2 M44.95,42.45L44.95,42.45l0.1,0.2l0.1,0.1 M61.95,37.45l-0.8,0.1
	l-1,0.2l-1,0.3l-0.9,0.2l-1,0.3 M63.55,37.35L63.55,37.35h0.2l0.1,0.1h0.2l0.1,0.1h0.2l0.1,0.1l0.2,0.1l0.1,0.1v0.1 M64.95,62.65
	v-21.8 M64.95,65.25L64.95,65.25l-0.1,0.3 M55.75,68.15l0.7-0.3l0.8-0.3l1-0.3l0.9-0.3l1-0.2 M65.85,68.55h-0.2h-1h-1l-0.9,0.1
	l-1,0.1l-1,0.2l-0.9,0.1l-0.9,0.3l-0.9,0.2 M67.65,38.15v27.5 M50.35,66.25v-19 M53.95,71.35L53.95,71.35l-0.5,0.2h-0.4h-0.5
	l-0.4-0.1l-0.3-0.1l-0.4-0.2l-0.3-0.2l-0.2-0.3l-0.2-0.4 M54.85,68.85v1.9 M58.75,65.25l-0.4,0.3l-1,0.8l-1.3,1.1 M61.05,63.85
	l-1.4,0.9 M61.35,40.15v21.3 M59.35,38.25h0.1 M55.55,39.55l0.5-0.1l1.3-0.3l1-0.4 M54.85,37.65v1.9 M9.75,0.45l-0.1,0.1 M9.85,1.75
	v0.6l-0.1,0.6l-0.1,0.6l-0.2,0.6l-0.3,0.6l-0.3,0.5l-0.4,0.6l-0.5,0.5l-0.5,0.5 M5.95,8.55l3,1.8 M9.85,10.35l2.2-1.2 M12.85,8.65
	l0.3-0.1l0.4-0.1h0.5l0.4-0.1l0.5,0.1h0.4 M21.25,11.65l27.3,15.8 M53.75,32.15l0.1-0.1l0.2-0.2l0.1-0.3v-0.2v-0.3l-0.1-0.2
	l-0.2-0.3 M50.75,33.95l2.2-1.2 M67.95,34.05l-0.1,0.1 M60.45,29.65l-43.1-24.9 M67.75,34.25L67.75,34.25v0.1v0.1l-0.1,0.1v0.2
	 M65.95,34.05l-0.2-0.1h-1.1l-1,0.1h-1.1l-1,0.2l-1,0.1l-1,0.2l-0.9,0.3l-1,0.2 M56.25,36.75l0.1-0.1l0.8-0.3l0.9-0.3l0.9-0.3
	l0.9-0.2l0.9-0.2l1-0.2l1-0.1h0.9 M53.85,36.25l-3-1.7 M45.35,41.95l0.1-0.2l0.1-0.7l0.2-0.6l0.2-0.6l0.2-0.7l0.3-0.6l0.3-0.6
	l0.4-0.6 M45.85,43.15l3,1.8 M50.25,45.25h-0.1l-0.2,0.1h-0.1h-0.2 M50.35,44.35l0.1-0.3l0.1-0.6l0.2-0.6l0.2-0.6l0.2-0.6l0.3-0.6
	l0.4-0.6 M54.85,37.25v-0.1l-0.1-0.1l-0.1-0.1v-0.2l-0.1-0.1 M53.55,37.05l-0.2,0.2l-0.5,0.4l-0.4,0.4l-0.5,0.5l-0.4,0.6l-0.4,0.5
	l-0.3,0.6l-0.4,0.6"/>
<path fill="none" stroke="#000000" stroke-width="0.5" stroke-linecap="round" stroke-linejoin="round" stroke-miterlimit="10" d="
	M7.75,39.45l0.2-0.1l0.2-0.4l0.2-0.3l0.2-0.4v-0.1 M7.15,41.85l0.3-0.2l0.4-0.3l0.3-0.3l0.4-0.4l0.3-0.5l0.4-0.4l0.2-0.5l0.3-0.5
	l0.2-0.5l0.1-0.5l0.2-0.5v-0.5v-0.3 M9.15,2.75v-0.1 M7.75,16.35l0.2-0.2l0.2-0.3l0.2-0.4l0.2-0.3v-0.2 M7.15,18.65l0.3-0.1l0.4-0.3
	l0.3-0.4l0.4-0.4l0.3-0.4l0.4-0.5l0.2-0.5l0.3-0.5l0.2-0.5l0.1-0.5l0.2-0.5v-0.5v-0.2 M13.75,15.05l-0.1-0.4v-0.4l-0.2-0.4l-0.1-0.3
	l-0.2-0.3l-0.3-0.2l-0.2-0.1l-0.4-0.1l-0.3-0.1h-0.3l-0.4,0.1l-0.4,0.2l-0.4,0.2l-0.4,0.2l-0.4,0.3l-0.4,0.4l-0.3,0.4l-0.4,0.4
	l-0.3,0.5l-0.2,0.4l-0.3,0.5l-0.2,0.5l-0.1,0.5l-0.2,0.5v0.5l-0.1,0.5l0.1,0.4v0.4l0.2,0.4l0.1,0.3l0.2,0.3l0.3,0.2l0.2,0.2l0.3,0.1
	h0.4h0.3l0.4-0.1l0.4-0.1l0.4-0.2l0.4-0.3l0.4-0.3l0.4-0.3l0.3-0.4l0.3-0.4l0.4-0.5l0.2-0.5l0.3-0.5l0.2-0.5l0.1-0.5l0.2-0.5v-0.5
	L13.75,15.05 M13.75,38.25l-0.1-0.4v-0.5l-0.2-0.3l-0.1-0.3l-0.2-0.3l-0.3-0.2l-0.2-0.2l-0.4-0.1h-0.3h-0.3l-0.4,0.1l-0.4,0.1
	l-0.4,0.2l-0.4,0.3l-0.4,0.3l-0.4,0.3l-0.3,0.4l-0.4,0.4l-0.3,0.5l-0.2,0.5l-0.3,0.5l-0.2,0.5l-0.1,0.5l-0.2,0.5v0.5l-0.1,0.5
	l0.1,0.4v0.4l0.2,0.4l0.1,0.3l0.2,0.3l0.3,0.2l0.2,0.1l0.3,0.1l0.4,0.1h0.3l0.4-0.1l0.4-0.2l0.4-0.2l0.4-0.2l0.4-0.3l0.4-0.4
	l0.3-0.4l0.3-0.4l0.4-0.5l0.2-0.4l0.3-0.5l0.2-0.5l0.1-0.6l0.2-0.5v-0.4L13.75,38.25 M13.45,41.85L13.45,41.85l0.2-0.3l0.1-0.2
	l0.2-0.3l0.1-0.2l0.2-0.2l0.1-0.2l0.2-0.2l0.1-0.2l0.2-0.1l0.2-0.2l0.1-0.1 M14.45,12.15h-0.1h-0.1l-0.2-0.1h-0.1l-0.2-0.1l-0.1-0.1
	l-0.2-0.1 M16.75,39.15l0.3-0.1l0.4-0.1l0.4-0.1l0.4-0.1l0.5-0.2l0.4-0.1l0.3-0.1 M15.15,39.65l0.3-0.1 M16.75,39.15h-0.2h-0.2
	l-0.1,0.1h-0.2l-0.2,0.1l-0.1,0.1h-0.2l-0.1,0.1 M53.25,66.15l0.1-0.2l0.3-0.3l0.2-0.3l0.2-0.3l0.2-0.4l0.1-0.4v-0.1 M53.25,43.05
	l0.1-0.2l0.3-0.3l0.2-0.3l0.2-0.4l0.2-0.4l0.1-0.3v-0.2 M56.55,64.75v-0.3l-0.1-0.3l-0.1-0.2l-0.2-0.2l-0.2-0.1l-0.2-0.1h-0.3
	l-0.2,0.1l-0.3,0.1l-0.3,0.2l-0.3,0.2l-0.3,0.3l-0.2,0.3l-0.2,0.3l-0.2,0.4l-0.2,0.4l-0.1,0.4v0.3v0.3v0.3l0.1,0.3l0.2,0.2l0.2,0.2
	l0.2,0.1h0.2h0.3l0.3-0.1l0.3-0.2l0.3-0.2l0.2-0.2l0.3-0.3l0.2-0.4l0.2-0.3l0.2-0.4l0.1-0.4l0.1-0.3V64.75 M56.55,41.65v-0.3
	l-0.1-0.3l-0.1-0.3l-0.2-0.1l-0.2-0.2h-0.2h-0.3h-0.2l-0.3,0.1l-0.3,0.2l-0.3,0.3l-0.3,0.2l-0.2,0.4l-0.2,0.3l-0.2,0.4l-0.2,0.3
	l-0.1,0.4v0.4v0.3v0.3l0.1,0.3l0.2,0.2l0.2,0.1l0.2,0.1l0.2,0.1l0.3-0.1l0.3-0.1l0.3-0.1l0.3-0.2l0.2-0.3l0.3-0.3l0.2-0.3l0.2-0.4
	l0.2-0.3l0.1-0.4l0.1-0.4V41.65 M13.15,43.65h0.1l0.2-0.1l0.2-0.1h0.3l0.2-0.1h0.3h0.3l0.3,0.1h0.3l0.2,0.1l0.2,0.1 M10.15,45.35
	l3-1.7 M0.25,39.85v0.3v0.5l0.1,0.5l0.2,0.5l0.2,0.4l0.2,0.4l0.3,0.4l0.3,0.3l0.3,0.2 M29.15,40.05l-0.1-0.1l-0.2-0.2l-0.3-0.2
	l-0.2-0.2l-0.3-0.3l-0.2-0.4l-0.3-0.3l-0.1-0.4l-0.2-0.4l-0.1-0.3l-0.2-0.4v-0.3v-0.3l-0.1-0.2 M1.85,43.35l4.1,2.3 M5.95,45.65
	l0.3,0.2l0.4,0.1l0.4,0.1l0.4,0.1h0.5l0.5-0.1l0.5-0.1l0.5-0.2l0.5-0.2l0.2-0.2 M8.85,1.15v3.1 M10.55,0.35l-0.2-0.1h-0.3h-0.2h-0.2
	l-0.2,0.1 M9.45,0.35l-0.2,0.1 M9.25,0.45l-0.1,0.1l-0.1,0.1l-0.1,0.1v0.1l-0.1,0.1v0.1v0.1 M26.85,36.05v-17.2 M9.15,2.75v0.3
	l-0.1,0.5l-0.1,0.5l-0.2,0.5l-0.3,0.5l-0.3,0.5l-0.3,0.5l-0.4,0.4l-0.5,0.5l-0.5,0.4l-0.5,0.4l-0.6,0.4l-0.3,0.1 M0.25,16.65v23.2
	 M44.95,49.15l-15.8-9.1 M14.45,12.15L14.45,12.15h0.3h0.3l0.3,0.1l0.2,0.1h0.2v0.1 M5.05,8.25l-0.2,0.2l-0.5,0.3l-0.5,0.4l-0.4,0.4
	l-0.4,0.4l-0.4,0.5l-0.4,0.5l-0.4,0.5l-0.3,0.6l-0.3,0.6l-0.3,0.6l-0.2,0.6l-0.2,0.6l-0.1,0.5l-0.1,0.6l-0.1,0.6v0.5 M15.75,43.65
	l29.2,16.8 M68.15,68.85l0.2-0.1 M68.35,68.75l0.2-0.1l0.2-0.2l0.2-0.2l0.1-0.2l0.1-0.3l0.1-0.3v-0.2 M67.75,68.95L67.75,68.95h0.1
	h0.1h0.1l0.1-0.1 M49.95,33.65v0.3 M54.65,71.25l0.4-0.2l0.7-0.3l0.7-0.3l0.7-0.3l0.8-0.3l0.8-0.2l0.9-0.2l0.9-0.2l0.8-0.2l0.9-0.1
	l0.9-0.1h1h0.9h0.9l0.9,0.1h0.9 M44.95,65.45v0.3v0.6l0.1,0.5l0.2,0.5l0.2,0.5l0.3,0.4l0.3,0.4l0.3,0.3l0.4,0.3 M49.45,31.85
	l0.1,0.3l0.2,0.3l0.1,0.4v0.3l0.1,0.3v0.2 M46.75,69.25l4.1,2.3 M50.75,71.55l0.4,0.2l0.4,0.1l0.4,0.1h0.4h0.5l0.4-0.1l0.5-0.1
	l0.5-0.2l0.4-0.3 M15.75,12.45l35.8,20.6 M52.85,32.25L52.85,32.25l-0.1,0.1h-0.1v0.1 M69.25,67.25v-32.4 M63.15,37.65L63.15,37.65
	h0.3l0.3,0.1h0.2l0.1,0.1 M68.75,33.95l-58.2-33.6 M52.65,32.45l-3,1.7 M44.95,42.35v23.1 M69.25,34.85v-0.2l-0.1-0.2l-0.1-0.2
	l-0.1-0.2l-0.2-0.1 M57.85,38.65h0.1l0.8-0.3l0.8-0.2l0.9-0.1l0.9-0.2l0.9-0.1l0.9-0.1 M49.65,34.15l-0.3,0.2l-0.5,0.3l-0.4,0.4
	l-0.5,0.4l-0.4,0.5l-0.4,0.5l-0.4,0.5l-0.4,0.5l-0.3,0.6l-0.3,0.6l-0.2,0.5l-0.2,0.6l-0.2,0.7l-0.1,0.6l-0.1,0.6v0.5v0.2"/>
</svg>
