<?xml version="1.0" encoding="utf-8"?>
<!-- Generator: Adobe Illustrator 19.0.0, SVG Export Plug-In . SVG Version: 6.00 Build 0)  -->
<svg version="1.0" id="Layer_1" xmlns="http://www.w3.org/2000/svg" xmlns:xlink="http://www.w3.org/1999/xlink" x="0px" y="0px"
	 width="111.1px" height="124.9px" viewBox="0 0 111.1 124.9" enable-background="new 0 0 111.1 124.9" xml:space="preserve">
<path fill="none" stroke="#000000" stroke-width="0.25" stroke-linecap="round" stroke-linejoin="round" stroke-miterlimit="10" d="
	M16.05,104.35L16.05,104.35 M16.05,104.85v0.1 M16.25,103.45v0.4l-0.1,0.7 M16.15,105.35v0.1v0.1l-0.1,0.2 M16.45,105.15v-0.2
	 M16.55,105.45L16.55,105.45l0.2,0.3l0.3,0.2 M16.55,106.75v-0.2l-0.1-0.8 M18.65,108.25l0.3-0.5l0.2-0.5 M18.65,106.45v0.1v0.1v0.4
	l-0.1,0.1l-0.1,0.6l-0.4,0.6 M21.85,113.15l-0.9,1.2l-1.5,2.4 M16.25,102.75L16.25,102.75 M16.45,104.65v-0.4 M18.55,98.35l-0.3,0.4
	l-0.9,1.3l-0.5,1.2 M16.55,105.05v0.1l0.2,0.2l0.3,0.2 M16.65,104.05L16.65,104.05l0.3-1l0.5-1.1l0.8-1.3l0.7-1 M18.25,108.55
	l-0.6,0.2 M16.05,104.35L16.05,104.35 M20.05,108.35v0.2v0.1v0.2v0.3 M18.55,121.55l-0.1-0.5l-0.1-0.9 M18.75,111.35l-0.2,0.2
	l-0.6,0.5l-0.7,0.4l-0.8,0.4l-0.8,0.4l-1,0.3l-1,0.3l-1,0.2l-1,0.1h-1.1h-1.1h-1 M18.65,108.55h0.1l0.2,0.1l0.3,0.1l0.2,0.2l0.1,0.2
	 M12.05,102.55l-0.7-0.1h-0.9h-1l-1,0.1l-0.9,0.1l-1,0.2l-0.8,0.3l-0.8,0.3l-0.8,0.4l-0.6,0.4l-0.6,0.5l-0.5,0.5l-0.3,0.5l-0.3,0.5
	l-0.1,0.6l-0.1,0.6l0.1,0.5l0.2,0.6l0.3,0.5l0.4,0.5l0.5,0.5l0.6,0.5 M91.05,15.55l0.2,0.8 M91.35,16.35L91.35,16.35v-0.1v-0.2v-0.1
	v-0.3v-0.3 M94.75,18.45L94.75,18.45v0.2v0.1v0.2 M95.95,19.35h-0.1l-0.1,0.1l-0.3,0.2 M91.15,16.95h0.1 M96.45,20.35v0.1l-0.1,0.2
	v0.1v0.1l-0.1,0.1 M94.65,18.35v0.1v0.1l0.1,0.2v0.2 M97.35,21.75l0.1-0.1l0.1-0.2l0.2-0.2 M92.65,18.85L92.65,18.85l0.1,0.2
	l0.1,0.3l0.1,0.2v0.2 M90.55,19.45l0.4-0.2l0.8-0.3 M92.85,18.55l0.4-0.1l0.8-0.1 M93.15,16.85l-0.2,0.3l-0.3,0.2l-0.3,0.2
	 M91.85,17.75l-0.6,0.2 M101.45,22.35l-0.1,0.1l-0.8,0.9l-0.7,1.1l-0.6,1.2 M89.45,17.55h0.2 M90.35,18.45v0.3 M89.35,18.55
	l-0.2,0.1l-0.6,0.2l-0.6,0.3l-0.4,0.2l-0.3,0.1l-0.7,0.4l-0.6,0.5l-0.7,0.4l-0.3,0.3l-0.4,0.3 M90.35,19.75L90.35,19.75l0.1,0.2
	l0.1,0.2v0.3l0.1,0.2 M84.75,22.75l0.3-0.2l0.5-0.5l0.6-0.4l0.6-0.5l0.6-0.3l0.7-0.4l0.6-0.3l0.4-0.2 M98.65,22.95l0.2-0.3l0.5-0.6
	l0.5-0.5 M91.05,15.25l0.1-0.5 M96.05,19.35L96.05,19.35v0.2v0.1l0.1,0.2 M96.45,20.25l1.3,0.8 M103.35,20.95l0.9-0.5l1.9-1.2
	l1.8-1.1 M100.65,21.25l0.2,0.2l0.2,0.1l0.2,0.1l0.3,0.1 M93.55,4.25h0.5l0.7,0.1l0.8,0.2l0.7,0.4l0.7,0.4l0.8,0.5l0.7,0.5l0.7,0.7
	l0.7,0.7l0.7,0.8l0.6,0.9l0.6,0.9l0.5,0.9 M90.95,15.35L90.95,15.35 M101.75,18.65l0.1-0.6v-0.8l-0.1-0.8l-0.1-0.9l-0.2-0.9
	l-0.3-0.9l-0.4-0.9l-0.4-0.9l-0.5-0.9l-0.6-0.8l-0.6-0.8l-0.6-0.7l-0.7-0.7l-0.7-0.5l-0.7-0.5l-0.7-0.4l-0.7-0.3l-0.7-0.1l-0.6-0.1
	 M89.75,15.15L89.75,15.15 M18.95,96.95v0.1 M83.05,21.95L83.05,21.95 M90.55,15.15L90.55,15.15 M89.75,16.05l-1.4,1.7
	 M16.45,100.75l-0.3,0.3l-1.4,1.2 M19.25,97.55l0.2,0.3l0.2,0.4l0.2,0.5 M83.95,23.65l-0.2-0.4l-0.2-0.4l-0.1-0.4 M73.75,33.75
	l-44.9,52.5 M90.45,17.05l0.6-0.6 M19.95,98.85L19.95,98.85l0.2,0.2l0.2,0.2l0.2,0.2 M84.15,23.75L84.15,23.75l0.2,0.2l0.2,0.2
	l0.2,0.2 M29.45,87.45l44.9-52.6 M20.65,100.75v0.1l-0.6,0.9l-0.6,1.1l-0.4,1.1l-0.2,0.9 M18.75,105.65l-0.1,0.3 M18.95,105.85
	l1.2-0.5 M92.65,20.55l-0.5,0.1l-0.8,0.3 M89.75,21.55l-0.4,0.2l-1,0.6l-1,0.8l-1,0.8 M75.85,36.15l-44.9,52.5 M100.05,27.45
	l-1.4,0.9 M22.95,112.65l0.2,0.3l0.5,0.9l0.5,0.9 M96.05,21.15l-0.2-0.2l-0.2-0.3 M94.75,19.75L94.75,19.75 M94.45,19.85h-0.2
	 M31.35,92.55l50.8-59.4 M86.95,36.75l-53,62.1 M97.25,21.85l0.1,0.1l0.1,0.1l0.1,0.2 M21.25,111.05L21.25,111.05l0.2,0.2l0.2,0.2
	l0.2,0.2 M19.95,112.25l0.9-1.1 M32.45,97.55l53.3-62.4 M97.15,21.75l-1-0.5 M84.75,34.55l-53.3,62.4"/>
<path fill="none" stroke="#000000" stroke-width="0.5" stroke-linecap="round" stroke-linejoin="round" stroke-miterlimit="10" d="
	M18.95,121.55l-0.4,0.4 M18.95,121.55l0.9-0.8l1.1-1l1.1-1.2l1.2-1.2l1.4-1.5 M16.25,102.75L16.25,102.75 M13.15,110.55
	L13.15,110.55l0.2-0.4v-0.3l-0.1-0.4l-0.2-0.3l-0.2-0.3l-0.4-0.3 M12.45,108.55l-0.5-0.2l-0.5-0.2l-0.6-0.1h-0.6h-0.6l-0.6,0.1
	l-0.5,0.2l-0.5,0.2l-0.4,0.2l-0.4,0.3l-0.2,0.4l-0.1,0.3l0.1,0.4l0.1,0.3v0.1 M14.65,104.75l-0.6-0.4l-0.7-0.2l-0.8-0.2l-0.8-0.2
	l-0.8-0.1h-0.9h-0.8l-0.9,0.1l-0.8,0.2l-0.7,0.2l-0.7,0.3l-0.6,0.4l-0.6,0.3l-0.4,0.5l-0.3,0.4l-0.3,0.5l-0.1,0.5v0.4l0.1,0.5
	l0.2,0.5l0.3,0.5l0.4,0.4l0.5,0.4l0.6,0.3l0.7,0.3l0.7,0.3l0.8,0.1l0.9,0.2h0.8h0.8l0.9-0.1l0.8-0.1l0.8-0.2l0.7-0.3l0.7-0.3
	l0.5-0.3l0.5-0.4l0.4-0.5l0.3-0.4l0.2-0.5l0.1-0.5l-0.1-0.5l-0.1-0.4l-0.3-0.5l-0.4-0.5l-0.4-0.4L14.65,104.75 M17.55,108.85
	L17.55,108.85l-0.1-0.1v-0.2l-0.2-0.4l-0.5-0.7l-0.2-0.5 M16.05,105.85l0.1,0.1l0.1,0.2v0.1l0.1,0.2l0.1,0.1v0.2v0.1l0.1,0.1
	 M16.05,105.85l-0.2-0.4l0.1-0.5l0.1-0.6 M20.05,108.15L20.05,108.15 M0.25,118.85l0.1,0.6l0.1,0.6l0.3,0.6l0.4,0.6l0.5,0.6l0.6,0.5
	l0.7,0.4l0.7,0.5l0.9,0.3l0.9,0.4l1,0.2l1,0.2l1,0.2h1.1l1,0.1l1.1-0.1l1-0.1l1.1-0.2l0.9-0.3l0.9-0.3l0.9-0.3l0.8-0.5l0.7-0.4
	l0.6-0.5 M18.25,119.25L18.25,119.25l0.6-2.2l0.5-2.3l0.2-1.1l0.2-1.1 M105.25,22.05l-2.5,2.6l-2.4,2.7 M105.25,22.05l1.3-1.5
	l1.3-1.4l0.9-1.1l0.9-0.9 M97.15,9.65l-0.2,0.1h-0.4l-0.3,0.2l-0.2,0.3l-0.2,0.4v0.4v0.5v0.5l0.2,0.6l0.2,0.5l0.3,0.6l0.4,0.5
	l0.4,0.4l0.4,0.3l0.4,0.3l0.4,0.2l0.4,0.1l0.4-0.1l0.3-0.1l0.3-0.2l0.2-0.3 M91.15,14.65L91.15,14.65l0.8,0.8l0.8,0.7l0.5,0.5
	 M93.25,16.65l0.1,0.2l0.2,0.2l0.2,0.3l0.2,0.2l0.1,0.2l0.2,0.1l0.2,0.2l0.2,0.2 M94.65,18.25L94.65,18.25 M94.65,18.25l0.2,0.2
	l0.2,0.1l0.1,0.1l0.2,0.2l0.2,0.1l0.2,0.1l0.1,0.1l0.2,0.1 M97.85,21.05L97.85,21.05v0.2l0.3,0.6l0.2,1 M100.35,16.45l-0.1-0.7
	l-0.1-0.7l-0.2-0.8l-0.3-0.8l-0.3-0.7l-0.4-0.8l-0.5-0.7l-0.5-0.7l-0.5-0.6l-0.6-0.5l-0.6-0.5l-0.6-0.3l-0.6-0.3l-0.6-0.2h-0.5h-0.5
	l-0.5,0.1l-0.5,0.2l-0.3,0.4l-0.3,0.4l-0.3,0.5l-0.1,0.6l-0.1,0.6v0.7l0.1,0.7l0.1,0.8l0.3,0.8l0.3,0.7l0.3,0.8l0.5,0.7l0.5,0.7
	l0.5,0.7l0.5,0.5l0.6,0.5l0.6,0.4l0.6,0.4l0.6,0.2l0.6,0.1h0.5h0.5l0.5-0.2l0.4-0.3l0.3-0.4l0.3-0.4l0.2-0.6l0.1-0.6L100.35,16.45
	 M109.65,17.15l0.7-1 M98.85,0.65l0.4-0.1l0.6-0.2l0.6-0.1h0.7l0.7,0.1l0.7,0.2l0.8,0.3l0.7,0.5l0.8,0.5l0.7,0.6l0.7,0.6l0.7,0.8
	l0.7,0.8l0.6,0.8l0.5,0.9l0.5,1l0.5,0.9l0.4,1l0.3,1l0.2,0.9l0.1,1l0.1,0.9v0.8l-0.1,0.8l-0.2,0.8l-0.2,0.7 M15.05,102.95l0.3,0.1
	l0.6,0.3l0.2,0.1 M98.35,28.45L98.35,28.45l-0.1-1.4l-0.1-1.6l0.1-0.9l0.1-1 M24.65,115.85l0.2-0.2l0.2-0.2 M100.35,27.35
	l-75.3,88.1 M20.45,105.25L20.45,105.25l-0.4,0.3l-0.7,0.6 M19.35,106.15l0.1-0.1l0.1-0.1h0.1l0.1,0.1l0.1,0.1l0.1,0.4l0.1,0.4
	 M20.05,110.25v-0.2v-0.3v-0.2v-0.2v-0.1 M98.35,23.55v-0.2 M98.35,22.85v0.1v0.2v0.2 M19.75,112.55l0.2-0.8l0.1-0.7v-0.8
	 M16.05,104.85v0.1 M16.25,102.75l-0.2,2.1 M20.05,108.15v-0.3v-0.5v-0.4 M17.75,98.65l-2,1.8l-2.2,1.9l-0.1,0.1 M18.95,96.95
	l-0.3,0.4l-0.6,0.7l-0.5,0.8l-0.4,0.8l-0.4,0.8l-0.2,0.8l-0.2,0.8l-0.1,0.7 M0.25,108.45v10.4 M20.05,109.25v-1.1 M15.05,102.95
	l-0.7-0.2l-1-0.3l-0.9-0.2l-1-0.1h-1h-1l-1,0.1l-1,0.1l-1,0.2l-0.9,0.3l-0.9,0.3l-0.8,0.4l-0.7,0.4l-0.7,0.5l-0.7,0.6l-0.5,0.6
	l-0.4,0.6l-0.3,0.6l-0.2,0.7l-0.1,0.7v0.2 M90.75,15.35l0.1,0.1l0.2,0.5l0.1,0.4l0.1,0.3v0.3 M90.35,14.45l-0.6,0.7 M91.35,16.65
	v0.1l-0.1,0.1l-0.1,0.1h-0.1 M91.05,16.95l-1.6,0.6 M89.45,17.55l-0.8,0.2l-0.8,0.4l-0.8,0.4l-0.8,0.6l-0.8,0.5l-0.8,0.7l-0.7,0.6
	l-0.7,0.7l-0.2,0.3 M98.85,0.65l-7,4.1 M91.85,4.75l-0.5,0.4l-0.5,0.4l-0.4,0.5l-0.4,0.6l-0.3,0.7l-0.2,0.7l-0.1,0.8l-0.1,0.8
	l0.1,0.9l0.1,0.9l0.2,0.9l0.2,1l0.3,0.9l0.4,0.9l0.1,0.2 M89.75,15.15l-3.3,3.8 M83.05,21.95l-64.1,75"/>
</svg>
