<?xml version="1.0" encoding="utf-8"?>
<!-- Generator: Adobe Illustrator 19.0.0, SVG Export Plug-In . SVG Version: 6.00 Build 0)  -->
<svg version="1.0" id="Layer_1" xmlns="http://www.w3.org/2000/svg" xmlns:xlink="http://www.w3.org/1999/xlink" x="0px" y="0px"
	 width="111.1px" height="124.9px" viewBox="0 0 111.1 124.9" enable-background="new 0 0 111.1 124.9" xml:space="preserve">
<path fill="none" stroke="#000000" stroke-width="0.25" stroke-linecap="round" stroke-linejoin="round" stroke-miterlimit="10" d="
	M95.05,104.35v0.1 M95.05,104.95L95.05,104.95 M95.05,105.45v0.4 M94.85,103.45v0.4l0.1,0.7 M94.65,105.25v-0.3 M94.65,106.75v-0.1
	v-0.1v-0.2v-0.2v-0.2v-0.2v-0.1 M94.55,105.45v0.1l-0.2,0.2l-0.2,0.2 M92.45,106.45v0.1v0.1v0.1v0.2v0.1l0.1,0.1v0.1v0.1l0.1,0.1
	v0.2l0.1,0.1v0.2l0.1,0.1l0.1,0.2l0.1,0.1 M92.55,108.25l-0.4-0.4l-0.2-0.6 M89.25,113.15l0.1,0.1l0.9,1.2l1.4,2.3 M94.85,102.85
	L94.85,102.85 M94.65,104.75v-0.5 M92.55,98.35l0.3,0.5l0.5,0.6l0.4,0.7l0.3,0.5l0.3,0.6l0.2,0.6 M94.55,105.05v0.1l-0.2,0.2
	l-0.2,0.2 M94.55,104.05L94.55,104.05l-0.2-0.4l-0.1-0.5l-0.3-0.6l-0.3-0.6l-0.3-0.6l-0.4-0.6l-0.4-0.5 M95.05,104.35L95.05,104.35
	 M92.85,108.55l0.6,0.3 M92.55,121.55l0.1-0.5l0.1-0.9 M91.05,108.35v0.4 M99.05,102.55l0.7-0.1h1h0.9l1,0.1l1,0.1l0.9,0.3l0.8,0.2
	l0.9,0.3l0.7,0.4l0.6,0.4l0.6,0.5l0.5,0.5l0.4,0.5l0.2,0.6l0.2,0.5v0.6l-0.1,0.6l-0.2,0.5l-0.3,0.6l-0.4,0.5l-0.5,0.5l-0.6,0.4
	 M92.45,108.55L92.45,108.55l-0.3,0.1l-0.2,0.1l-0.2,0.2l-0.2,0.2 M92.35,111.35l0.2,0.2l0.6,0.5l0.7,0.5l0.8,0.4l0.9,0.4l0.9,0.3
	l1,0.2l1,0.2l1.1,0.1l1,0.1h1.1l1.1-0.1 M20.05,15.55l-0.2,0.8 M19.75,16.45v-0.5l0.1-0.5 M16.45,18.45L16.45,18.45l-0.1,0.2v0.2
	v0.2 M15.15,19.35l0.1,0.1l0.2,0.1l0.3,0.1 M19.95,17.05h-0.1 M14.65,20.45l0.1,0.1v0.1v0.1v0.1l0.1,0.2 M16.45,18.45L16.45,18.45
	v0.2v0.2l-0.1,0.2 M13.85,21.75l-0.1-0.1l-0.2-0.2l-0.1-0.2 M18.45,18.95L18.45,18.95l-0.1,0.2l-0.1,0.2l-0.1,0.2v0.3 M20.55,19.45
	l-0.4-0.1l-0.8-0.3 M19.35,17.85l0.5,0.2 M18.05,16.85l0.4,0.5 M18.25,18.65L18.25,18.65l-0.4-0.2h-0.4l-0.4-0.1 M9.65,22.35
	l0.1,0.1l0.8,0.9l0.7,1.1l0.6,1.2l0.2,0.5l0.2,0.4 M21.65,17.55h-0.2 M21.85,18.65l0.4,0.1l1.3,0.6l1.3,0.8l1.3,0.9 M20.75,18.45
	l0.1,0.3 M26.35,22.85l-0.2-0.2l-1.2-1l-1.2-0.8l-1.3-0.7 M20.75,19.85L20.75,19.85l-0.1,0.2v0.2l-0.1,0.2v0.2 M14.65,20.35
	l-1.3,0.7 M15.05,19.35v0.1v0.1v0.2v0.1 M20.05,15.25l-0.1-0.5 M12.55,23.05l-0.7-0.9 M7.85,21.05l-0.9-0.6l-2-1.1l-1.8-1.1
	 M10.55,21.25l-0.2,0.2l-0.3,0.2l-0.2,0.1h-0.2 M9.45,18.75l-0.1-0.6l-0.1-0.8l0.1-0.9l0.1-0.8l0.2-0.9l0.3-1l0.4-0.9l0.4-0.9
	l0.5-0.8l0.6-0.9l0.6-0.8l0.6-0.7l0.7-0.6l0.7-0.6l0.7-0.5l0.7-0.3l0.7-0.3l0.7-0.2l0.7-0.1 M20.15,15.45h0.1 M17.55,4.35h-0.5
	l-0.7,0.1l-0.7,0.2l-0.8,0.3l-0.7,0.4l-0.8,0.5l-0.7,0.6l-0.7,0.7l-0.7,0.7l-0.7,0.8l-0.6,0.8l-0.5,0.9l-0.6,1 M21.35,15.15v0.1
	 M92.15,97.05L92.15,97.05 M28.05,21.95v0.1 M94.65,100.75l0.4,0.3l1.3,1.2 M21.35,16.05l1.4,1.7 M20.55,15.15l0.4,0.5 M91.85,97.55
	l-0.2,0.4l-0.2,0.4l-0.1,0.4 M37.35,33.75l44.9,52.6 M27.15,23.65l0.2-0.4l0.2-0.3l0.2-0.4 M20.65,17.15l-0.5-0.7 M91.15,98.85v0.1
	l-0.2,0.2l-0.2,0.1l-0.2,0.2 M81.75,87.45l-45-52.5 M27.05,23.75l-0.1,0.1l-0.2,0.2l-0.2,0.1l-0.2,0.2 M90.45,100.85L90.45,100.85
	l0.3,0.5l0.3,0.4l0.3,0.6l0.3,0.5l0.3,0.6l0.2,0.5l0.1,0.5 M35.25,36.15l44.9,52.6 M21.35,21.65l0.4,0.2l1.1,0.6l1,0.7l0.9,0.8
	 M18.55,20.55l0.4,0.2l0.8,0.3 M92.15,105.95l-1.2-0.5 M92.45,105.75v0.2 M11.05,27.55l1.4,0.8 M88.15,112.65l-0.2,0.3l-0.5,0.9
	l-0.5,1 M15.05,21.15l0.2-0.1l0.3-0.3 M79.85,92.65l-50.8-59.5 M16.65,19.85l0.3,0.1l0.6,0.2 M16.35,19.75h0.1 M24.15,36.85l53,62
	 M89.95,111.05l-0.1,0.1l-0.2,0.1l-0.2,0.2l-0.2,0.2 M13.85,21.95L13.85,21.95l-0.2,0.2l-0.1,0.1 M26.35,34.65l53.3,62.3
	 M13.95,21.85l1-0.6 M78.65,97.55l-53.3-62.3 M91.15,112.35l-0.4-0.6"/>
<path fill="none" stroke="#000000" stroke-width="0.5" stroke-linecap="round" stroke-linejoin="round" stroke-miterlimit="10" d="
	M92.15,121.65l0.4,0.3 M92.15,121.65l-0.9-0.9l-1.1-1l-1.1-1.1l-1.2-1.2l-0.7-0.8l-0.6-0.7 M94.85,102.75L94.85,102.75
	 M97.95,110.55L97.95,110.55l-0.1-0.3l-0.1-0.4l0.1-0.3l0.2-0.3l0.3-0.3l0.4-0.3 M98.75,108.65l0.4-0.2l0.6-0.2l0.5-0.1l0.6-0.1
	l0.6,0.1l0.6,0.1l0.6,0.1l0.5,0.2l0.4,0.3l0.3,0.3l0.2,0.3l0.1,0.4v0.3l-0.2,0.3v0.1 M96.45,104.75l0.7-0.3l0.7-0.3l0.7-0.2l0.8-0.1
	l0.9-0.1l0.8-0.1l0.9,0.1l0.8,0.1l0.8,0.2l0.7,0.2l0.7,0.3l0.6,0.3l0.6,0.4l0.4,0.4l0.4,0.4l0.2,0.5l0.1,0.5v0.5l-0.1,0.5l-0.2,0.4
	l-0.3,0.5l-0.4,0.4l-0.5,0.4l-0.6,0.4l-0.7,0.3l-0.7,0.2l-0.8,0.2l-0.8,0.1l-0.9,0.1h-0.8l-0.9-0.1l-0.8-0.2l-0.8-0.2l-0.7-0.2
	l-0.6-0.3l-0.6-0.4l-0.5-0.4l-0.4-0.4l-0.3-0.5l-0.2-0.4v-0.5v-0.5l0.2-0.5l0.2-0.5l0.4-0.4l0.5-0.4L96.45,104.75 M95.05,105.95
	l0.2-0.4v-0.6l-0.2-0.6 M95.05,105.95l-0.1,0.1v0.1l-0.1,0.2l-0.1,0.1v0.2l-0.1,0.1v0.1v0.2 M93.65,108.85L93.65,108.85v-0.1v-0.2
	l0.2-0.4l0.5-0.6l0.3-0.5 M92.85,119.35L92.85,119.35l-0.6-2.3l-0.5-2.3l-0.2-1.1l-0.2-1.1 M110.85,118.95v0.6l-0.2,0.6l-0.3,0.6
	l-0.4,0.6l-0.5,0.5l-0.6,0.5l-0.6,0.5l-0.8,0.4l-0.9,0.4l-0.9,0.3l-0.9,0.3l-1,0.2l-1.1,0.1l-1,0.1h-1.1l-1.1-0.1l-1-0.1l-1-0.2
	l-1-0.2l-0.9-0.3l-0.9-0.4l-0.8-0.4l-0.7-0.5l-0.6-0.5 M91.05,108.15L91.05,108.15 M5.95,22.05l2.4,2.6l2.5,2.7 M5.95,22.05
	l-1.4-1.4l-1.3-1.5l-0.9-1l-0.9-1 M13.95,9.75h0.2l0.4,0.1l0.3,0.2l0.2,0.3l0.2,0.3l0.1,0.5v0.5l-0.1,0.5l-0.2,0.5l-0.2,0.6
	l-0.3,0.5l-0.4,0.5l-0.3,0.4l-0.5,0.4l-0.4,0.3l-0.4,0.1l-0.4,0.1h-0.4l-0.3-0.2l-0.3-0.2l-0.1-0.2 M13.35,21.15L13.35,21.15
	l-0.1,0.1l-0.2,0.6l-0.3,1 M16.45,18.35l-0.2,0.1l-0.2,0.2l-0.1,0.1l-0.2,0.1l-0.2,0.1l-0.1,0.1l-0.2,0.1l-0.2,0.1 M16.45,18.25
	L16.45,18.25v0.1 M17.85,16.65l-0.1,0.3l-0.2,0.2l-0.2,0.2l-0.1,0.2l-0.2,0.2l-0.2,0.2l-0.2,0.2l-0.2,0.1 M19.95,14.65L19.95,14.65
	l-0.8,0.8l-0.8,0.7l-0.5,0.5 M10.85,16.55v-0.7l0.1-0.8l0.2-0.7l0.3-0.8l0.3-0.8l0.4-0.7l0.5-0.7l0.5-0.7l0.5-0.6l0.6-0.5l0.6-0.5
	l0.6-0.4l0.6-0.3l0.6-0.1l0.5-0.1h0.6l0.4,0.2l0.5,0.2l0.4,0.3l0.3,0.4l0.2,0.5l0.1,0.6l0.1,0.7v0.7l-0.1,0.7l-0.1,0.7l-0.2,0.8
	l-0.3,0.8l-0.4,0.7l-0.5,0.8l-0.4,0.7l-0.6,0.6l-0.5,0.6l-0.6,0.5l-0.6,0.4l-0.6,0.3l-0.6,0.2l-0.6,0.2h-0.5l-0.5-0.1l-0.5-0.2
	l-0.4-0.3l-0.3-0.3l-0.3-0.5l-0.2-0.5l-0.1-0.6V16.55 M12.25,0.75l-0.4-0.2l-0.5-0.2l-0.7-0.1h-0.7l-0.7,0.1l-0.7,0.3l-0.7,0.3
	l-0.8,0.4l-0.7,0.5l-0.8,0.6l-0.7,0.7l-0.7,0.7l-0.6,0.8l-0.7,0.9l-0.5,0.9l-0.5,0.9l-0.5,1l-0.3,0.9l-0.3,1l-0.3,1l-0.1,0.9
	l-0.1,0.9v0.9l0.1,0.8l0.2,0.7l0.2,0.7 M1.45,17.15l-0.7-1 M96.15,102.95l-0.4,0.2l-0.6,0.2l-0.2,0.1 M10.85,27.35l75.3,88.1
	 M86.55,115.95l-0.2-0.2l-0.2-0.3 M12.75,28.55L12.75,28.55l0.1-1.5l0.1-1.5v-1l-0.2-1 M91.05,110.35v-0.8v-0.3 M91.75,106.15
	l-0.1-0.1h-0.1h-0.1h-0.1l-0.1,0.1l-0.1,0.4l-0.1,0.4 M90.65,105.35L90.65,105.35l0.4,0.3l0.7,0.5 M12.75,22.85v0.2v0.2v0.2
	 M12.75,23.55v-0.1 M91.35,112.55l-0.1-0.8l-0.1-0.7l-0.1-0.7 M95.05,105.05L95.05,105.05v-0.1v-0.1 M95.05,104.85l-0.2-2.1
	 M91.05,106.95v0.1v0.5v0.6 M97.65,102.55l-1.8-1.6l-2.2-2l-0.2-0.3 M94.85,102.75v-0.2l-0.1-0.7l-0.2-0.8l-0.3-0.8l-0.4-0.8
	l-0.5-0.8l-0.5-0.8l-0.6-0.7l-0.1-0.1 M91.05,108.15v1.1 M110.85,118.95v-10.4 M110.85,108.45v-0.4l-0.1-0.6l-0.2-0.6l-0.3-0.6
	l-0.4-0.6l-0.5-0.6l-0.6-0.5l-0.7-0.5l-0.7-0.4l-0.8-0.4l-0.9-0.3l-0.9-0.3l-1-0.2l-0.9-0.2h-1l-1-0.1l-1,0.1l-1,0.1l-1,0.1
	l-0.9,0.3l-0.8,0.2 M19.85,16.95v-0.1l0.1-0.3l0.1-0.4l0.2-0.5l0.1-0.2 M21.35,15.15l-0.4-0.5l-0.2-0.2 M20.05,17.05L20.05,17.05
	l-0.1-0.1l-0.1-0.1l-0.1-0.1v-0.1 M21.75,17.55l-1.7-0.5 M28.05,21.95l-0.3-0.4l-0.7-0.7l-0.7-0.6l-0.8-0.6l-0.8-0.6l-0.8-0.5
	l-0.8-0.4l-0.9-0.4l-0.5-0.2 M19.25,4.75l-7-4 M20.35,15.45l0.2-0.5l0.4-0.9l0.3-1l0.2-0.9l0.2-0.9l0.1-0.9v-0.9l-0.1-0.8l-0.2-0.8
	l-0.2-0.8l-0.4-0.7l-0.4-0.5l-0.5-0.5l-0.5-0.5l-0.2-0.1 M24.65,18.95l-3.3-3.8 M92.15,97.05l-64.1-75.1"/>
</svg>
