<?xml version="1.0" encoding="utf-8"?>
<!-- Generator: Adobe Illustrator 19.0.0, SVG Export Plug-In . SVG Version: 6.00 Build 0)  -->
<svg version="1.0" id="Layer_1" xmlns="http://www.w3.org/2000/svg" xmlns:xlink="http://www.w3.org/1999/xlink" x="0px" y="0px"
	 width="20.3px" height="21px" viewBox="0 0 20.3 21" enable-background="new 0 0 20.3 21" xml:space="preserve">
<path fill="none" stroke="#000000" stroke-width="0.5" stroke-linecap="round" stroke-linejoin="round" stroke-miterlimit="10" d="
	M11.65,11.75h-0.4h-0.3l-0.4,0.1h-0.3h-0.4h-0.3l-0.4-0.1h-0.3l-0.4-0.1h-0.3l-0.3-0.1l-0.4-0.1l-0.3-0.1l-0.3-0.1l-0.2-0.1
	l-0.3-0.2l-0.3-0.1 M6.05,10.85l-0.2-0.1l-0.2-0.2l-0.2-0.2l-0.2-0.1l-0.2-0.2l-0.2-0.2l-0.1-0.2l-0.1-0.2l-0.1-0.2l-0.1-0.2v-0.2
	v-0.2v-0.2v-0.2v-0.2l0.1-0.2v-0.2 M15.65,7.65l0.1,0.1v0.2l0.1,0.2v0.2v0.2v0.2v0.2l-0.1,0.2l-0.1,0.2 M15.65,9.35l-0.1,0.2
	l-0.1,0.2l-0.2,0.2l-0.1,0.2l-0.2,0.2l-0.2,0.1l-0.2,0.2l-0.2,0.1l-0.3,0.2l-0.3,0.1l-0.2,0.1l-0.3,0.2l-0.3,0.1l-0.3,0.1h-0.4
	l-0.3,0.1l-0.3,0.1 M4.55,7.65l1.5,3.2 M4.55,7.65v-5.1 M11.65,11.75l4-2.4 M15.65,9.35v-5.1 M4.45,11.55v0.1v0.2v0.2l0.1,0.2
	l0.1,0.2l0.1,0.2l0.1,0.2l0.2,0.2l0.2,0.2l0.2,0.1l0.2,0.2l0.2,0.2l0.2,0.1 M6.05,13.85l0.3,0.2l0.3,0.1l0.2,0.1l0.3,0.1l0.3,0.1
	l0.4,0.1l0.3,0.1h0.3l0.4,0.1h0.3l0.4,0.1h0.3h0.4h0.3h0.4l0.3-0.1h0.4l0.3-0.1l0.3-0.1h0.4l0.3-0.1l0.3-0.1l0.3-0.2l0.2-0.1
	l0.3-0.1l0.3-0.2l0.2-0.1l0.2-0.2l0.2-0.1l0.2-0.2l0.1-0.2l0.2-0.2l0.1-0.2l0.1-0.2l0.1-0.2l0.1-0.2v-0.2v-0.2 M0.25,14.95v0.3v0.2
	v0.3l0.1,0.3l0.1,0.2l0.1,0.3l0.2,0.3l0.1,0.2l0.2,0.2l0.2,0.3l0.2,0.2l0.2,0.3l0.3,0.2l0.3,0.2l0.2,0.2l0.3,0.2l0.4,0.2
	 M3.15,19.05l0.3,0.2l0.3,0.2l0.4,0.1l0.4,0.2l0.4,0.1l0.4,0.2l0.4,0.1l0.4,0.1l0.4,0.1l0.5,0.1l0.4,0.1h0.4l0.5,0.1h0.5l0.4,0.1
	h0.5h0.4h0.5l0.5-0.1h0.4h0.5l0.4-0.1l0.5-0.1h0.4l0.4-0.1l0.5-0.1l0.4-0.1l0.4-0.2l0.4-0.1l0.4-0.2l0.3-0.1l0.4-0.2l0.3-0.2
	l0.4-0.1l0.3-0.2l0.3-0.2l0.3-0.3l0.2-0.2l0.3-0.2l0.2-0.2l0.2-0.3l0.2-0.2l0.2-0.3l0.1-0.2l0.2-0.3l0.1-0.2l0.1-0.3v-0.3l0.1-0.2
	v-0.3v-0.2 M4.55,6.75l-0.3,0.2l-0.4,0.1l-0.3,0.2l-0.4,0.2l-0.3,0.2l-0.3,0.2l-0.3,0.2l-0.2,0.2l-0.3,0.2l-0.2,0.2l-0.3,0.3
	l-0.2,0.2l-0.1,0.3l-0.2,0.2l-0.1,0.3l-0.2,0.2l-0.1,0.3v0.2l-0.1,0.3v0.3v0.2v0.3v0.3v0.2l0.1,0.3l0.1,0.3l0.1,0.2l0.2,0.3l0.1,0.2
	l0.2,0.3l0.2,0.2l0.2,0.3l0.2,0.2l0.3,0.2l0.3,0.2l0.2,0.2l0.3,0.2l0.4,0.2 M3.15,15.55l0.3,0.2l0.3,0.2l0.4,0.2l0.4,0.1l0.4,0.2
	l0.4,0.1l0.4,0.1l0.4,0.1l0.4,0.1l0.5,0.1l0.4,0.1l0.4,0.1h0.5l0.5,0.1h0.4h0.5h0.4h0.5h0.5l0.4-0.1h0.5l0.4-0.1h0.5l0.4-0.1
	l0.4-0.1l0.5-0.1l0.4-0.1l0.4-0.1l0.4-0.2l0.4-0.1l0.3-0.2l0.4-0.2l0.3-0.1l0.4-0.2l0.3-0.2l0.3-0.2l0.3-0.2l0.2-0.2l0.3-0.3
	l0.2-0.2l0.2-0.2l0.2-0.3l0.2-0.2l0.1-0.3l0.2-0.2l0.1-0.3l0.1-0.3v-0.2l0.1-0.3v-0.3v-0.2v-0.3l-0.1-0.3v-0.2l-0.1-0.3l-0.1-0.2
	l-0.1-0.3l-0.2-0.2l-0.1-0.3l-0.2-0.2l-0.2-0.3l-0.3-0.2l-0.2-0.2l-0.3-0.3l-0.2-0.2l-0.3-0.2l-0.3-0.2l-0.4-0.2l-0.3-0.1l-0.4-0.2
	l-0.3-0.2l-0.3-0.1 M8.45,4.35l0.2,0.1l0.2,0.1l0.2,0.1h0.2l0.2,0.1h0.2h0.2h0.3h0.2h0.2h0.2l0.2-0.1h0.2l0.2-0.1l0.2-0.1h0.2
	l0.1-0.1l0.2-0.1l0.1-0.2l0.1-0.1l0.1-0.1l0.1-0.1v-0.1v-0.2v-0.1v-0.1l-0.1-0.2v-0.1l-0.1-0.1l-0.1-0.1l-0.1-0.1l-0.2-0.1l-0.1-0.1
	l-0.2-0.1l-0.2-0.1h-0.2l-0.2-0.1h-0.2l-0.3-0.1h-0.2h-0.2h-0.2l-0.3,0.1h-0.2h-0.2l-0.2,0.1l-0.2,0.1l-0.2,0.1h-0.1l-0.2,0.1
	l-0.1,0.2l-0.1,0.1l-0.1,0.1l-0.1,0.1v0.1l-0.1,0.2v0.1l0.1,0.1v0.2v0.1l0.1,0.1l0.1,0.1l0.1,0.1l0.2,0.1L8.45,4.35 M15.65,4.25
	l-4,2.4 M14.15,1.05l1.5,3.2 M8.65,0.25l5.5,0.8 M4.55,2.55l4.1-2.3 M6.05,5.75l-1.5-3.2 M6.05,10.85l5.6,0.9 M11.65,11.75v-5.1
	 M11.65,6.65l-5.6-0.9 M6.05,10.85v-5.1 M15.85,11.55v-3 M4.45,8.55v3 M20.05,14.95v-3.4 M0.25,11.55v3.4"/>
</svg>
