<?xml version="1.0" encoding="utf-8"?>
<!-- Generator: Adobe Illustrator 19.0.0, SVG Export Plug-In . SVG Version: 6.00 Build 0)  -->
<svg version="1.0" id="Layer_1" xmlns="http://www.w3.org/2000/svg" xmlns:xlink="http://www.w3.org/1999/xlink" x="0px" y="0px"
	 width="43.8px" height="32.7px" viewBox="0 0 43.8 32.7" enable-background="new 0 0 43.8 32.7" xml:space="preserve">
<path fill="none" stroke="#000000" stroke-width="0.25" stroke-linecap="round" stroke-linejoin="round" stroke-miterlimit="10" d="
	M40.25,12.85l0.1-0.3 M9.35,5.55v-0.1 M40.35,7.35v0.1v0.1l-0.1,0.3l-0.2,0.2 M9.35,5.95v-0.3 M35.05,2.15l-0.3-0.1 M16.25,0.25
	h-0.4 M39.75,12.05v-3.3 M9.35,5.05v-0.2l0.2-0.7l0.3-0.7l0.4-0.6 M9.45,5.75v-0.1 M0.35,21.35v0.2l0.2,0.2l0.2,0.3l0.2,0.3l0.3,0.2
	l0.3,0.3l0.3,0.2l0.4,0.2l0.4,0.1l0.4,0.2 M2.95,11.05l0.1,0.1 M4.05,18.55h-0.1l-0.3-0.1h-0.3l-0.5-0.1l-0.5-0.2l-0.4-0.2l-0.4-0.2
	l-0.4-0.3l-0.3-0.2 M39.45,8.45l-0.1,0.1l-0.2,0.1l-0.2,0.1l-0.2,0.3l-0.1,0.3l-0.1,0.2 M37.95,3.85l0.5,0.4l0.5,0.6l0.4,0.6
	l0.3,0.7l0.1,0.8 M5.05,24.25L5.05,24.25v-0.1 M38.35,26.85h0.1h0.5l0.5-0.1l0.5-0.1l0.5-0.1l0.4-0.2l0.4-0.1l0.4-0.2l0.4-0.2
	l0.3-0.2l0.3-0.3l0.2-0.2l0.3-0.3 M43.35,19.45l-0.1,0.2l-0.4,0.5l-0.3,0.3l-0.3,0.3l-0.4,0.2l-0.4,0.2l-0.3,0.1l-0.4,0.1l-0.4,0.1
	l-0.2,0.1h-0.3l-0.3,0.1h-0.3h-0.3 M40.75,14.75h0.1l0.4-0.1h0.4 M36.95,26.95L36.95,26.95v0.1 M5.05,23.45v-4.4 M6.85,24.15
	l0.2,0.1l0.7,0.1l0.6,0.2l0.7,0.2l0.6,0.2l0.5,0.3l0.6,0.2l0.5,0.3l0.5,0.3l0.4,0.3l0.5,0.4l0.3,0.3 M14.45,29.35v0.1v0.1
	 M25.05,30.35v0.1v0.1l-0.1,0.1 M26.05,29.45l0.2-0.1l0.4-0.4l0.5-0.3l0.5-0.2l0.6-0.3l0.6-0.2l0.6-0.3l0.6-0.2l0.6-0.1l0.7-0.2
	l0.7-0.1l0.7-0.1l0.7-0.1 M36.95,26.35v-4.3 M14.45,28.95v-4.4 M15.05,30.45L15.05,30.45l0.3,0.3l0.3,0.2l0.4,0.2l0.3,0.2l0.5,0.2
	l0.4,0.2l0.4,0.1l0.5,0.1l0.5,0.1l0.5,0.1h0.5h0.5h0.5l0.5-0.1h0.5l0.5-0.1l0.5-0.2 M25.05,29.85v-4.4 M4.75,17.95l-0.2-0.7
	l-0.2-0.7l-0.2-0.7l-0.1-0.7l-0.1-0.7 M14.05,22.55v-0.1l-0.4-0.8l-0.5-0.8l-0.6-0.7l-0.7-0.6l-0.8-0.5l-0.8-0.4l-1-0.3
	 M14.45,23.85l0.1-0.2l0.2-0.4 M23.95,26.05l-0.2,0.1l-0.4,0.2l-0.3,0.2l-0.4,0.1l-0.5,0.2l-0.6,0.2l-0.6,0.1h-0.9h-0.9l-0.6-0.1
	l-0.6-0.1l-0.5-0.2l-0.4-0.1l-0.4-0.2l-0.3-0.2 M21.95,22.05l0.6,0.3l0.6,0.4l0.5,0.4l0.5,0.5l0.4,0.5 M35.15,20.85l-0.7-0.2
	l-0.8-0.1l-0.9-0.1h-0.8l-0.8,0.1l-0.8,0.2l-0.8,0.2l-0.7,0.3l-0.7,0.4l-0.6,0.4l-0.7,0.5 M38.95,16.85l-0.1,0.1l-0.2,0.6l-0.2,0.7
	l-0.3,0.7 M11.45,5.65l-0.2,0.2 M10.45,6.65l-0.7,0.7l-0.9,0.7l-0.9,0.6l-0.9,0.7l-1.1,0.7 M3.15,11.85h-0.1l-0.2,0.2l-0.1,0.2
	l-0.2,0.2l-0.1,0.2v0.2v0.2l0.1,0.1l0.1,0.1 M5.05,12.95l0.8-0.1l0.9-0.1h0.9l1.2,0.1l1.1,0.1 M13.55,14.25l0.3,0.1 M14.85,15.15
	l0.7,0.6l0.7,0.8l0.6,0.8l0.5,0.8l0.4,1 M18.35,21.95l0.1,0.2l0.2,0.2l0.2,0.2l0.2,0.1l0.2,0.1l0.2,0.1h0.3l0.3-0.1l0.2-0.1l0.2-0.1
	 M21.75,20.55l0.2-0.3l0.5-0.7l0.6-0.6l0.8-0.8l0.9-0.7l0.9-0.6 M28.35,15.75l0.3-0.1 M30.05,15.35l1.2-0.2l1.3-0.1l1.2,0.1l1.3,0.1
	l1.3,0.2 M39.65,16.65l0.2,0.1h0.3h0.2h0.3l0.1-0.1l0.2-0.1l0.1-0.2v-0.2v-0.1l-0.1-0.3v-0.2 M39.35,13.85l-0.2-0.2l-0.6-0.6
	l-0.6-0.7l-0.7-0.8l-0.6-0.8l-0.5-0.8 M35.35,8.05l-0.1-0.2 M35.15,6.95l-0.1-0.3l0.1-0.3v-0.6l0.2-0.6l0.3-0.5l0.4-0.5l0.4-0.3
	 M37.45,3.35l0.1-0.1v-0.1l-0.1-0.1l-0.1-0.1l-0.2-0.1l-0.2-0.1l-0.2-0.1l-0.3-0.1l-0.2-0.1 M33.95,2.25l-0.4-0.1h-0.9h-0.9h-1.2
	h-1.2l-1.3-0.1 M24.85,1.85h-0.4 M23.25,1.65h-0.2l-0.6-0.1h-0.7l-1.2-0.2l-1.1-0.2l-1.1-0.2 M14.95,0.45L14.95,0.45h-0.3h-0.2h-0.3
	l-0.3,0.1h-0.2l-0.3,0.1l-0.2,0.1h-0.2l-0.1,0.1 M12.95,1.65v0.1l0.1,0.3v0.4l-0.1,0.5l-0.1,0.5l-0.3,0.7"/>
<path fill="none" stroke="#000000" stroke-width="0.5" stroke-linecap="round" stroke-linejoin="round" stroke-miterlimit="10" d="
	M30.25,30.55L30.25,30.55l-0.6,0.3l-0.5,0.2l-0.6,0.3l-0.5,0.2l-0.7,0.2l-0.6,0.2l-0.6,0.1l-0.7,0.1l-0.7,0.1l-0.7,0.1h-0.7h-0.7
	h-0.7h-0.4 M10.05,25.45L10.05,25.45l0.1,0.5l0.2,0.4l0.2,0.4l0.3,0.4l0.2,0.4l0.4,0.4l0.4,0.4l0.4,0.3l0.4,0.4l0.5,0.3l0.5,0.4
	 M23.15,31.85h0.1h0.8l0.7-0.1l0.8-0.1l0.7-0.1l0.7-0.1l0.7-0.2l0.7-0.2l0.7-0.2l0.6-0.2l0.6-0.2l0.6-0.3l0.6-0.3l0.5-0.3l0.5-0.3
	l0.5-0.4l0.4-0.3l0.4-0.4l0.4-0.4l0.3-0.4l0.2-0.3 M13.65,29.75l0.6,0.3l0.6,0.2 M40.25,12.95L40.25,12.95l0.1-0.3v-0.3v-0.1
	 M9.25,5.15v0.9 M40.35,12.25v-5.1 M16.45,0.25h-0.5h-0.4h-0.2h-0.3h-0.2l-0.1,0.1h-0.2h-0.2l-0.3,0.1h-0.3l-0.2,0.1l-0.3,0.1h-0.2
	l-0.1,0.1h-0.2l-0.2,0.1l-0.3,0.1l-0.3,0.1l-0.3,0.2l-0.2,0.1l-0.2,0.1l-0.1,0.1l-0.3,0.2l-0.3,0.3l-0.2,0.3l-0.2,0.2l-0.1,0.1
	l-0.1,0.2l-0.1,0.2l-0.2,0.3l-0.1,0.5l-0.1,0.4l-0.1,0.4l-0.1,0.5 M40.35,7.15v-0.7l-0.1-0.5l-0.1-0.4l-0.2-0.3l-0.1-0.2l-0.1-0.2
	l-0.1-0.2l-0.2-0.2l-0.2-0.3l-0.2-0.3l-0.2-0.1l-0.2-0.2l-0.2-0.1l-0.4-0.3l-0.5-0.3l-0.5-0.3l-0.5-0.1l-0.6-0.2l-0.5-0.2l-0.5-0.1
	h-0.6 M34.35,1.95h-0.4l-0.8-0.1h-0.8h-0.7l-0.8-0.1h-0.8h-0.7h-0.7l-0.7-0.1h-0.7h-0.7l-0.8-0.1l-0.7-0.1h-0.7l-0.6-0.1l-0.7-0.1
	l-0.7-0.1l-0.7-0.1h-0.7l-0.6-0.1l-0.6-0.1l-0.6-0.1l-0.7-0.2l-0.7-0.1l-0.7-0.1l-0.6-0.1 M0.25,20.65v0.2v0.3l0.1,0.3l0.1,0.3
	l0.2,0.3l0.2,0.3l0.2,0.3l0.3,0.2l0.3,0.2l0.3,0.3l0.4,0.2l0.4,0.1l0.4,0.2l0.4,0.1l0.5,0.1l0.4,0.1l0.5,0.1h0.1 M9.55,5.65
	L9.55,5.65l-0.1,0.1v0.1l-0.1,0.2l-0.1,0.1l-0.2,0.2l-0.2,0.2l-0.2,0.2l-0.2,0.3l-0.3,0.2l-0.3,0.3l-0.3,0.3l-0.4,0.3l-0.4,0.3
	l-0.4,0.3l-0.5,0.4l-0.5,0.3l-0.5,0.3l-0.5,0.4l-0.5,0.3l-0.5,0.4l-0.5,0.3 M30.25,30.55l1.5-0.8 M13.65,29.75l1.3,0.7 M0.25,15.75
	v5 M37.05,27.15h0.2l0.5,0.1l0.5-0.1h0.4h0.5l0.5-0.1l0.4-0.1l0.4-0.2l0.5-0.1l0.4-0.2l0.3-0.2l0.4-0.2l0.3-0.2l0.3-0.3l0.2-0.3
	l0.2-0.2l0.2-0.3l0.1-0.3l0.1-0.4l0.1-0.3v-0.1 M2.85,11.15l-0.3,0.2l-0.4,0.3l-0.2,0.2l-0.3,0.4l-0.2,0.2l-0.1,0.1l-0.1,0.2
	l-0.2,0.2l-0.1,0.3l-0.2,0.3l-0.1,0.2l-0.1,0.3l-0.1,0.2l-0.1,0.3l-0.1,0.3v0.4v0.5 M41.95,14.75l-0.1-0.1l-0.4-0.3l-0.3-0.4
	l-0.4-0.4l-0.3-0.3l-0.3-0.4l-0.3-0.3l-0.2-0.3l-0.2-0.4l-0.2-0.3l-0.2-0.2l-0.2-0.3l-0.1-0.2l-0.1-0.2v-0.2l-0.1-0.1v-0.1v-0.1
	 M5.05,24.25h0.3l0.7,0.1l0.7,0.1l0.6,0.1l0.6,0.2l0.6,0.2l0.6,0.1l0.6,0.3l0.5,0.2l0.5,0.2l0.5,0.3l0.5,0.2l0.4,0.3l0.4,0.3
	l0.3,0.3l0.4,0.3l0.3,0.4l0.2,0.3l0.3,0.3l0.1,0.4l0.2,0.3l0.1,0.4 M43.55,23.65v-5 M43.55,18.65l-0.1-0.5v-0.3v-0.2l-0.1-0.2v-0.2
	l-0.1-0.2l-0.1-0.2l-0.1-0.3l-0.1-0.3l-0.1-0.1l-0.1-0.2l-0.2-0.3l-0.2-0.4l-0.4-0.5 M24.95,30.65l0.2-0.2l0.3-0.3l0.4-0.3l0.4-0.3
	l0.4-0.3l0.4-0.3l0.5-0.2l0.5-0.3l0.6-0.2l0.5-0.2l0.6-0.2l0.6-0.2l0.6-0.1l0.7-0.1l0.6-0.2h0.7l0.6-0.1h0.7l0.7-0.1h0.7l0.6,0.1
	h0.7h0.1 M14.45,29.55l0.1,0.1l0.1,0.3l0.1,0.3l0.2,0.3l0.3,0.3l0.3,0.2l0.3,0.2l0.3,0.3l0.4,0.1l0.4,0.2l0.4,0.2l0.4,0.1l0.5,0.1
	l0.4,0.1h0.5l0.5,0.1h0.4h0.5l0.5-0.1h0.5l0.4-0.1l0.5-0.1l0.4-0.2l0.4-0.1l0.4-0.2l0.3-0.2l0.4-0.2l0.3-0.3l0.3-0.2v-0.1"/>
</svg>
