<?xml version="1.0" encoding="utf-8"?>
<!-- Generator: Adobe Illustrator 19.0.0, SVG Export Plug-In . SVG Version: 6.00 Build 0)  -->
<svg version="1.0" id="Layer_1" xmlns="http://www.w3.org/2000/svg" xmlns:xlink="http://www.w3.org/1999/xlink" x="0px" y="0px"
	 width="136.3px" height="87px" viewBox="0 0 136.3 87" enable-background="new 0 0 136.3 87" xml:space="preserve">
<path fill="none" stroke="#000000" stroke-width="0.25" stroke-linecap="round" stroke-linejoin="round" stroke-miterlimit="10" d="
	M118.65,65.65v4.7 M129.45,68.85l5.7-3.3 M128.45,54.15v13.1 M89.45,79.25l-0.4,0.2 M116.55,70.55v-4 M127.55,59.65v-6.1
	 M77.45,77.65v6.2 M63.15,85.15v-6.1 M1.25,43.25v6.2"/>
<path fill="none" stroke="#000000" stroke-width="0.5" stroke-linecap="round" stroke-linejoin="round" stroke-miterlimit="10" d="
	M118.65,71.15l-0.3-0.1l-0.2-0.1h-0.3h-0.3h-0.3h-0.3l-0.2,0.1l-0.2,0.1 M1.25,50.45l-0.4-0.7l-0.3-0.8l-0.2-0.7l-0.1-0.7v-0.2
	 M134.35,68.95L134.35,68.95l0.4-0.4l0.4-0.4l0.3-0.5l0.3-0.5l0.2-0.7l0.1-0.7v-0.7 M124.65,62.05l0.3,0.4l0.5,0.5l0.6,0.4
	 M128.05,70.05l-0.1,0.7l-0.2,0.7l-0.2,0.7l-0.3,0.5l-0.4,0.4l-0.4,0.4l-0.5,0.3l-0.6,0.1l-0.6,0.1l-0.7-0.1l-0.6-0.1l-0.7-0.3
	l-0.7-0.3 M119.95,64.25l0.3,0.4l0.5,0.5l0.5,0.5l0.6,0.4l0.5,0.3l0.6,0.2l0.5,0.1l0.5,0.1l0.5-0.1l0.4-0.2l0.4-0.3l0.3-0.3l0.2-0.5
	l0.2-0.5l0.1-0.6v-0.6l-0.1-0.7l-0.1-0.7l-0.2-0.7 M122.05,73.15l-3.4-2 M136.05,65.05v-17.4 M128.05,60.35l-0.1,0.1h-0.1l-0.1,0.1
	h-0.1l-0.1,0.1 M128.05,70.05v-9.7 M128.45,69.35v0.1l-0.4,0.6 M94.85,77.75l21.3-6.3 M87.35,80.05l2.6-0.8 M116.15,71.45l0.4-0.3
	 M127.55,60.65l-50.1,24.2 M77.45,84.85l-1,0.4l-1,0.4l-1.2,0.3l-1.2,0.3l-1.2,0.2l-1.2,0.2h-1.3l-1.2,0.1l-1.3-0.1l-1.3-0.1
	l-1.2-0.2l-1.2-0.2 M63.15,86.15l-3.2-0.8l-3.1-0.8l-3.1-0.9l-3.1-0.9l-3-1l-3-1.1l-2.9-1.1l-2.8-1.1l-2.7-1.2l-2.7-1.3l-2.7-1.3
	l-2.5-1.3l-2.5-1.4l-2.4-1.4l-2.4-1.5l-2.2-1.5l-2.2-1.6l-2.1-1.6l-1.9-1.6l-1.9-1.7l-1.9-1.7l-1.7-1.7l-1.6-1.8l-1.5-1.8l-1.5-1.8
	l-1.3-1.8 M33.05,30.15l0.3,0.3l0.3,0.2l0.1,0.3v0.3l-0.1,0.3l-0.2,0.3l-0.3,0.2l-0.4,0.2l-0.5,0.2l-0.5,0.1h-0.5h-0.5l-0.5-0.1
	l-0.4-0.2l-0.4-0.2l-0.3-0.3l-0.1-0.3l-0.1-0.3v-0.2l0.2-0.3l0.2-0.3l0.4-0.2l0.4-0.2l0.5-0.1l0.5-0.1h0.5l0.5,0.1l0.5,0.1
	L33.05,30.15 M84.15,59.65l0.3,0.3l0.3,0.2l0.1,0.3v0.3l-0.1,0.3l-0.2,0.3l-0.3,0.2l-0.4,0.2l-0.4,0.2l-0.5,0.1h-0.6h-0.5l-0.5-0.1
	l-0.4-0.2l-0.4-0.2l-0.3-0.3l-0.1-0.2l-0.1-0.3v-0.3l0.2-0.3l0.2-0.3l0.4-0.2l0.4-0.2l0.5-0.1l0.5-0.1h0.5l0.5,0.1l0.5,0.1
	L84.15,59.65 M77.45,76.75l50.1-24.2 M127.55,52.55l0.1-0.1l0.2-0.1h0.1l0.1-0.1h0.1l0.1-0.1l0.1-0.1h0.1 M128.45,52.05l7.6-4.4
	 M136.05,47.65l-82.2-47.4 M46.35,4.55l7.5-4.3 M46.35,4.55l-0.1,0.1l-0.2,0.1h-0.1l-0.1,0.1l-0.1,0.1h-0.1l-0.1,0.1l-0.1,0.1
	 M45.45,5.15l-41.9,28.9 M3.55,34.05l-0.8,0.6l-0.6,0.6l-0.6,0.6l-0.5,0.7l-0.3,0.7l-0.3,0.7l-0.2,0.8v0.7l0.1,0.7l0.2,0.7l0.3,0.8
	l0.4,0.7 M1.25,42.35l1.3,1.8l1.5,1.8l1.5,1.8l1.6,1.8l1.7,1.7l1.9,1.7l1.9,1.7l1.9,1.6l2.1,1.6l2.2,1.6l2.2,1.5l2.4,1.5l2.4,1.4
	l2.5,1.4l2.5,1.3l2.7,1.3l2.7,1.3l2.7,1.2l2.8,1.1l2.9,1.1l3,1.1l3,1l3.1,0.9l3.1,0.9l3.1,0.8l3.2,0.8 M63.15,78.05l1.2,0.2l1.2,0.2
	l1.3,0.1l1.3,0.1l1.2-0.1h1.3l1.2-0.2l1.2-0.2l1.2-0.3l1.2-0.3l1-0.4l1-0.4 M0.25,39.25v8.1 M126.25,73.55l8.1-4.6 M89.25,79.15
	l0.8,0.1l0.8,0.1h0.9l0.8-0.2l0.7-0.3l0.7-0.4l0.7-0.4l0.6-0.6l0.5-0.7l0.4-0.7l0.1-0.3"/>
</svg>
