<?xml version="1.0" encoding="utf-8"?>
<!-- Generator: Adobe Illustrator 19.0.0, SVG Export Plug-In . SVG Version: 6.00 Build 0)  -->
<svg version="1.0" id="Layer_1" xmlns="http://www.w3.org/2000/svg" xmlns:xlink="http://www.w3.org/1999/xlink" x="0px" y="0px"
	 width="115.5px" height="140px" viewBox="0 0 115.5 140" enable-background="new 0 0 115.5 140" xml:space="preserve">
<path fill="none" stroke="#000000" stroke-width="0.25" stroke-linecap="round" stroke-linejoin="round" stroke-miterlimit="10" d="
	M0.75,105.35l-0.1-0.2v-0.1 M0.75,92.15l-0.1-0.3 M0.25,88.25L0.25,88.25v0.1 M111.55,89.55L111.55,89.55 M111.45,90.15v-0.1
	 M111.45,90.15l-0.2,0.5 M111.45,89.75v-1.6 M0.25,74.65v-0.1 M0.35,73.85l-0.1,0.4 M8.45,98.25l-0.1,0.1 M9.95,52.95l0.1-0.1
	l0.1,0.1 M14.05,53.05h-0.1 M110.35,96.95h0.1 M99.25,116.55h0.1H99.25h-0.1 M10.15,52.95v-0.1 M13.35,53.15L13.35,53.15l-0.1,0.1
	 M111.25,73.25v-0.2 M111.45,75.45v-2 M0.65,71.95L0.65,71.95 M1.65,57.65h0.1h0.1 M6.95,54.75v-0.4 M6.95,55.35v-0.5 M9.45,54.75
	v-0.2 M1.45,57.95l-0.1-0.1l-0.1,0.1 M0.85,58.95l-0.1-0.2v-0.1 M6.45,55.55v-0.3 M0.85,87.25v-9.8 M9.55,55.75v-0.3 M1.85,57.65
	h0.1 M7.55,56.05v-0.1 M11.05,57.85v0.8 M12.65,57.05v-0.2 M4.75,58.85L4.75,58.85h-0.1 M4.85,59.05L4.85,59.05 M5.25,54.25
	L5.25,54.25l0.2-0.1h0.2h0.2 M9.65,56.05l0.2,0.2l0.2,0.2l0.2,0.3l0.2,0.2l0.2,0.3 M111.05,95.05l0.1-0.1 M0.85,58.85v-0.1l0.1-0.1
	l0.1-0.1 M111.05,63.95v-0.1 M13.35,92.65v-1.4 M13.05,92.65L13.05,92.65h0.1v0.1 M12.95,92.35v-1.4 M13.05,90.75L13.05,90.75v0.1
	h0.1v0.1 M13.35,93.25L13.35,93.25l-0.1-0.2v-0.1l-0.1-0.1h-0.1 M12.95,93.15L12.95,93.15v0.1l0.1,0.1l0.1,0.1l0.1,0.1
	 M110.95,64.05l0.1-0.1 M111.05,63.75v0.1 M110.95,63.75L110.95,63.75 M111.05,63.75l-0.1-0.1 M3.85,61.75l1.6,0.1 M110.95,63.55
	h-0.1 M111.05,63.75v-0.1 M110.95,63.75v0.2 M110.75,63.55l0.1,0.1 M109.45,65.05v-0.4 M14.45,94.15l-0.6-1.9 M11.95,92.75h0.1
	l0.4,0.3l0.3,0.3l0.4,0.3l0.4,0.3 M13.15,90.15l-0.8,1.3l-0.7,1 M109.75,64.65h0.2 M110.05,64.55v-0.1 M109.45,64.55l0.2,0.1
	 M109.75,64.45v0.1 M109.95,64.25l-0.1-0.1 M109.75,64.35h-0.1 M109.75,64.35h0.1 M109.55,64.35l-0.1,0.1 M109.75,64.05l-0.1,0.1
	 M108.05,63.55l0.2,0.2 M0.75,70.95v-7.6 M0.25,74.65l0.4-1.1l0.1-1.4 M0.25,74.65L0.25,74.65 M102.45,62.65v-0.9 M104.95,62.15
	v-0.3 M101.95,62.85v-0.3 M105.05,63.15v-0.3 M103.05,63.35v-0.1 M99.05,64.25v-0.3 M103.05,68.55h0.1 M103.05,68.25l0.1,0.1
	 M103.05,68.25L103.05,68.25l-0.1,0.1 M103.05,68.25v-0.1 M102.95,68.05h-0.1l-0.1,0.1 M100.25,66.25L100.25,66.25 M106.55,65.25
	v1.3 M97.85,68.55h0.1h0.1 M102.95,68.35l0.1,0.1 M102.75,68.15l0.1,0.1 M101.75,69.25v-0.1 M101.65,69.35h0.1 M101.65,69.05v-0.1
	 M101.65,69.15v-0.1 M101.45,69.35h0.1 M101.65,69.15v0.1 M101.55,69.15v-0.1 M97.85,118.15v0.1 M100.75,61.55L100.75,61.55h0.2h0.2
	h0.2 M105.15,63.35l0.2,0.2l0.2,0.3l0.2,0.2l0.2,0.2l0.2,0.3 M61.05,139.55l0.1-0.1 M98.25,69.05v-0.4 M101.35,69.35v0.2
	 M101.45,69.05v0.2 M101.55,68.85l-0.1,0.1 M98.25,68.55v-0.1v-0.2 M100.95,69.25l-1.3-0.3 M59.75,139.65v-0.1 M0.85,105.55
	l-0.1-0.1 M43.05,120.25l-0.3,0.1 M9.55,101.05l-0.1,0.1 M35.15,106.15l0.3,0.1l0.2,0.1l0.2,0.1l0.3,0.2 M37.15,107.05l0.2,0.1
	l0.3,0.1l0.2,0.1l0.3,0.1l0.3,0.1 M38.95,107.75L38.95,107.75v0.1 M38.65,107.85l-0.2-0.1l-0.3-0.1l-0.2-0.1l-0.3-0.1l-0.2-0.1
	 M36.95,107.25v0.1v0.1v0.1v0.1v0.1 M36.65,107.85l-0.2-0.2l-0.3-0.3l-0.2-0.3l-0.3-0.2l-0.2-0.3 M39.25,107.75l0.2,0.1h0.3l0.2,0.1
	l0.3,0.1h0.3 M33.75,105.15v0.1l0.2,0.1l0.1,0.1l0.2,0.1l0.2,0.1 M35.15,105.95h0.1h0.2h0.2l0.3-0.1 M36.95,105.85v0.1v0.2v0.1v0.1
	 M37.15,106.85h0.2l0.1,0.1l0.2,0.1h0.2l0.2,0.1 M38.45,107.15v-0.1v-0.1v-0.1l0.1-0.1 M38.55,106.35l0.1,0.1h0.1h0.1 M39.05,106.65
	l-0.1,0.2v0.1v0.2v0.1 M97.85,69.15v-0.5 M72.65,83.15l21.7-12.5 M97.65,68.25L97.65,68.25l0.1,0.1v0.1 M69.25,85.65l-0.1-0.4
	 M69.15,85.05v-0.1l-0.1-0.1l-0.1-0.1 M69.05,85.35L69.05,85.35v-0.1 M69.95,87.65v-0.1v-0.1 M69.85,87.75l0.1-0.1 M69.95,87.45v0.1
	 M69.95,87.45h-0.1 M69.95,87.45l-0.1-0.1 M44.25,119.05l0.2-0.1 M69.85,87.25h-0.1 M69.95,87.45v-0.1 M68.75,85.25h0.1h0.1
	 M52.85,13.65l-0.2,0.4 M69.85,87.55v0.1 M69.65,87.25l0.1,0.1 M68.05,88.55v0.4 M68.45,88.55l0.1-0.1 M68.65,88.45v-0.2
	 M68.05,88.45l0.2,0.1 M68.35,88.35v0.1 M68.55,88.15l-0.1-0.1 M68.35,88.25h-0.1 M68.45,88.25L68.45,88.25 M68.15,88.25l-0.1,0.1
	 M68.35,87.95l-0.1,0.1 M66.65,87.45l0.2,0.2 M54.95,12.25l-0.5-0.2l-0.6-0.1h-0.6h-0.6l-0.6,0.1 M55.25,11.45l-0.5-0.2l-0.7-0.1
	h-0.8h-0.7l-0.7,0.1 M7.95,85.65l0.2,5.9 M36.65,110.15L36.65,110.15l1.6,0.6h1.4l1.1-0.7l0.4-0.5l0.2-0.7v-0.7 M37.95,103.15
	l-1.5-0.6h-1.5l-1,0.6l-0.6,1.1 M23.05,103.45L23.05,103.45l0.4,0.2l0.4,0.2l0.4,0.2l0.3,0.2 M22.75,103.05v-0.7 M23.05,102.45v0.1
	l0.4,0.2l0.4,0.2l0.4,0.2l0.3,0.2 M25.75,104.85v-0.7 M25.85,91.35L25.85,91.35l-0.6-0.2l-0.5-0.3l-0.5-0.6l-0.4-0.7l-0.3-0.7
	l-0.1-0.7l0.1-0.6l0.3-0.4 M26.85,91.15l0.6,0.6 M26.55,86.65l-0.1-0.1l-1-0.8l-1.1-0.5l-0.9-0.1l-0.8,0.4l-0.4,0.7l-0.2,1.1
	l0.2,1.3l0.4,1.3 M27.95,89.05h-0.7h-0.6 M14.45,97.45v-0.7 M12.15,95.75l0.1,0.1l0.3,0.2l0.3,0.3l0.3,0.2l0.3,0.3 M11.95,95.45
	v-0.7 M12.15,94.85h0.1l0.3,0.3l0.3,0.2l0.3,0.3l0.3,0.3 M30.25,90.85v-2.1 M30.35,91.15l0.1,0.1h0.1l0.1,0.1 M30.85,91.45l1-1.1
	l0.7-0.8 M32.85,89.65l0.2,0.1l0.3,0.1l0.2,0.1l0.3,0.1 M34.55,90.45l-1.2,1.3l-1,1.1 M32.65,93.55l0.9,1.8 M32.85,96.55l0.2,0.1
	l0.3,0.1l0.2,0.1l0.3,0.2 M32.35,95.95l-0.7-1.5 M30.35,92.65h0.1l0.1,0.1h0.1 M30.25,94.95v-2 M28.95,94.65l0.2,0.1l0.2,0.1
	l0.2,0.1l0.1,0.1 M28.75,93.75v-5.3 M28.95,87.75l0.2,0.1l0.2,0.1l0.2,0.1l0.1,0.1 M11.25,92.45l1.1-1.7l0.8-1.3 M13.45,90.35
	l0.8,2.5 M11.65,92.85h0.1l0.4,0.4l0.5,0.4l0.5,0.4l0.5,0.4 M20.45,89.85L20.45,89.85l0.2,0.1l0.2,0.1l0.2,0.1l0.1,0.1 M20.35,88.85
	v-5.2 M20.45,82.95L20.45,82.95l0.2,0.1l0.2,0.1l0.2,0.1l0.1,0.1 M21.65,89.75v-5.2 M23.15,100.75v-2.7 M23.45,98.15l1.1,1.3
	 M25.75,100.85l-1.5,0.2l-1.1,0.1 M15.35,84.65L15.35,84.65l0.4,0.3l0.4,0.3l0.4,0.3l0.4,0.3 M18.25,85.75v0.1l0.2,0.1v0.2v0.2v0.2
	 M19.05,82.25l-0.1-0.1l-0.6-0.6l-0.7-0.5l-0.8-0.6l-0.9-0.5l-0.7,0.2l-0.2,0.6l-0.1,0.8 M16.95,82.15L16.95,82.15l0.4,0.3l0.3,0.2
	l0.4,0.3l0.4,0.3 M16.45,82.75L16.45,82.75l-0.1-0.2l-0.1-0.2v-0.2v-0.2 M17.85,83.75v0.1l0.7,0.5l0.6,0.8l0.5,0.9l0.2,1l-0.1,0.8
	l-0.3,0.5l-0.8,0.2l-0.9-0.5 M55.95,14.55l0.2-0.3l0.1-0.5l-0.2-0.5l-0.4-0.5l-0.6-0.3l-0.7-0.2 M61.05,86.55v-0.9 M50.75,12.65
	l-0.1,0.1l-0.3,0.3l-0.2,0.4l-0.1,0.3 M55.45,15.05L55.45,15.05 M55.15,15.15l0.2-0.1 M50.85,12.85l-0.2,0.2l-0.3,0.4l-0.1,0.5
	 M51.05,12.45v0.1h0.1 M63.55,86.05v-0.3 M56.75,14.15l0.2-0.4l0.1-0.4l-0.1-0.5 M55.55,12.35l0.3-0.5 M56.15,14.55l0.1-0.1l0.2-0.3
	v-0.4 M55.95,14.85L55.95,14.85h0.1 M50.25,11.95l-0.1,0.1l-0.4,0.4l-0.2,0.4 M50.55,11.75L50.55,11.75v-0.1h-0.1 M60.55,86.75v-0.3
	 M63.65,87.05v-0.3 M61.65,87.25v-0.1 M65.65,136.65l16.1-9.3 M99.05,116.75l-0.5,0.8 M100.75,113.55l1.1-2l1.3-2.5l1.4-2.5l1.4-2.4
	l1.5-2.4 M111.05,95.35l-0.1,0.2l-0.1,0.5 M111.05,70.55v12.2 M57.65,88.15v-0.3 M59.85,139.35l0.1,0.1h0.3h0.3 M61.15,139.25
	l-0.3,0.1 M61.25,101.25v18.9 M54.05,90.85l-0.5-1.2 M61.65,92.45h0.1 M61.65,92.15l0.1,0.1 M61.65,92.15L61.65,92.15l-0.1,0.1
	 M61.65,92.15v-0.1 M61.55,91.95h-0.1l-0.1,0.1 M58.85,90.15L58.85,90.15 M11.05,65.75l0.5,0.5l2,1.6l2.3,1.8l2.8,2l3.5,2.3l4.3,2.5
	l4.4,2.5l4.2,2.1 M69.95,87.95l-0.1-0.2 M68.85,88.35l0.9-0.5 M68.65,88.55v0.4 M61.65,92.55v0.4 M111.05,66.75l-0.1-2.3
	 M110.15,64.45l0.7-0.4 M110.05,65.05v-0.4 M103.05,69.15v-0.5 M101.95,69.25l0.9-0.5 M101.75,69.35v0.2 M61.55,92.25l0.1,0.1
	 M61.35,92.05l0.1,0.1 M61.25,92.75l0.2-0.1 M65.15,89.15v1.2 M61.15,93.15v1.4 M59.85,92.95h0.2h0.4h0.4 M61.15,92.65L61.15,92.65
	l-0.1-0.2v-0.1 M59.35,85.45L59.35,85.45h0.2h0.2h0.2 M63.75,87.25l0.2,0.2l0.2,0.3l0.2,0.2l0.2,0.2l0.3,0.3 M59.85,92.45h-0.1v0.2
	 M0.75,91.55l-0.1-1.5 M0.75,93.75v10 M5.15,110.75l1.8,2l3.7,3.5l4.2,3.4l4.5,3.2l4.9,3l5.2,2.8l5.5,2.6 M59.65,101.35v19
	 M59.65,93.25v2.4 M58.85,92.65l-3.9-1.3 M3.05,61.45l-2-2.3 M0.85,59.35l-0.1,2.3 M1.35,62.85l0.1,0.2l0.7,1l0.8,0.9l0.8,1
	 M102.35,57.85l-9.5-6.1 M15.05,52.45l6-3.4 M13.45,53.25h0.1l0.2-0.1 M12.85,53.15l-1.3-0.1 M9.05,53.55l0.9-0.6 M5.95,59.35
	l0.2,0.1l1.9,0.1l1.9-0.3l1.6-0.7l1.1-0.9 M2.15,57.85l1.2,0.5 M1.45,57.85l0.2-0.1 M1.15,58.45v-0.1 M3.55,61.15l-1.4-1.5l-0.9-1.2
	 M4.15,61.25l1.6,0.1 M11.25,65.15l0.1,0.1l4.6,3.7l5.1,3.6l5.7,3.4l6.1,3.3 M54.45,90.35l-0.5-1.1 M59.05,92.05l-2.2-0.7
	 M60.05,92.35l0.1,0.1h0.3 M60.95,92.25l0.2-0.1 M61.05,91.75l-1.2-0.8 M58.25,89.75l-0.6-0.6l-0.4-1.2 M66.45,86.65l0.8,0.5
	 M68.55,87.85l0.9-0.5 M68.75,85.45l0.5,0.9 M68.85,84.75l-0.1,0.1l-0.1,0.1 M72.45,82.65l21.6-12.5 M98.25,68.05h-0.1h-0.3
	 M101.05,68.75l-1.3-0.3 M101.65,68.75l1-0.5 M102.45,67.85l-1.2-0.8 M99.65,65.85l-0.6-0.6l-0.4-1.2 M107.85,62.75l0.8,0.5
	 M109.85,63.95l0.7-0.4 M109.55,59.55l0.7,2.2l0.4,1.8 M109.15,59.25l0.2,0.2 M105.35,59.25h1.8 M35.95,24.25L35.95,24.25
	 M36.15,23.85L36.15,23.85l0.2-0.3l0.2-0.4l0.2-0.3 M37.95,21.45v-0.1h-0.1l-0.1,0.1 M38.15,21.55L38.15,21.55h0.2l0.1,0.1l0.2,0.1
	l0.1,0.1 M50.05,11.85l-0.1,0.1l-0.4,0.4l-0.2,0.4l-0.1,0.5 M55.35,11.25l-0.6-0.1l-0.7-0.2h-0.8h-0.8l-0.7,0.2 M69.85,1.15
	L69.85,1.15l0.5,0.3l0.6,0.3l0.5,0.3l0.5,0.3 M38.85,22.45l-0.4,0.2l-0.4,0.3l-0.4,0.3l-0.4,0.3 M31.25,20.55l-0.2-0.2l-1.4-2.3
	l-0.8-2.5l0.1-2.5l0.7-2.4l1.6-2.3l2.2-2.2l2.8-1.8l3.3-1.6 M75.35,22.05l-0.9,1l-1.5,1.1l-1.6,1.1l-1.7,0.9l-1.9,0.9l-2.1,0.7
	l-2.2,0.6l-2.2,0.6l-2.4,0.3l-2.3,0.3l-2.5,0.1h-2.4l-2.4-0.2l-2.4-0.3l-2.3-0.4l-2.2-0.5l-2.1-0.7 M49.05,15.75l-1.4,0.8l-1.4,0.9
	l-1.4,0.9l-1.4,0.9 M39.35,22.15L39.35,22.15l0.2,0.1l0.1,0.1l0.2,0.1l0.1,0.1 M40.35,23.05h0.1l0.1-0.1 M39.75,23.25l-0.4,0.2
	l-0.5,0.1l-0.5,0.2l-0.5,0.2l-0.5,0.1 M36.05,24.35l0.1,0.1h0.1 M36.05,24.35L36.05,24.35v0.1h-0.1 M77.55,12.75v0.1l0.1,2.5
	l-0.6,2.5l-1.4,2.3l-2.1,2.2l-2.7,1.9l-3.3,1.6l-3.7,1.3l-4,0.9l-4.2,0.4 M74.05,3.55L74.05,3.55l0.5,0.3l0.5,0.3l0.6,0.3l0.5,0.3
	 M71.45,4.05l-0.1,0.1l-2.2,0.9l-2.1,1l-2.2,1l-2.2,1.1 M56.45,14.55h0.1l0.4-0.4l0.2-0.5l0.1-0.4 M51.15,15.15l0.6,0.2l0.7,0.1
	l0.8,0.1l0.8-0.1l0.7-0.1 M115.15,85.45l-0.4,0.4 M111.85,88.55l1.4-0.8 M83.55,136.55v-2.1 M93.85,131.65v-2.2 M84.95,134.55v2.2"
	/>
<path fill="none" stroke="#000000" stroke-width="0.5" stroke-linecap="round" stroke-linejoin="round" stroke-miterlimit="10" d="
	M0.65,87.55h-0.1 M0.25,88.25v-0.2v-0.2l0.1-0.1l0.2-0.2 M1.15,89.15l-0.1,0.1 M111.25,86.85l0.1,0.2l0.2,0.2v0.2v0.2l-0.1,0.2
	 M111.45,87.85l-0.2,0.4 M0.25,74.45v0.1v0.2 M0.25,74.45v-0.1 M0.85,88.85l-0.1-0.2l-0.1-0.3v-0.2 M1.05,75.75L1.05,75.75
	 M0.45,73.55l-0.1,0.2 M8.35,97.75l0.1-0.1 M1.15,89.25l-0.1,0.1 M111.45,75.75l0.1-0.2v-0.2 M111.45,73.15l0.1-0.1v-0.2v-0.2
	l-0.1-0.2l-0.2-0.3 M22.55,45.95l-12,6.9 M111.45,75.75l-0.2,0.4 M111.45,73.15l-0.2,0.1 M0.85,75.85l-0.1-0.3l-0.1-0.3v-0.1
	 M0.65,61.75v0.1l0.1,0.2 M8.45,55.55h-0.1h-0.1h-0.1l-0.1,0.1 M7.55,56.05h0.1l0.1-0.1l0.2-0.1l0.1-0.1 M0.85,75.85l0.8,1l0.8,1.1
	l0.8,1l0.9,1l0.8,1l1,1l0.9,1l1,1 M8.45,97.55l-1.1-1l-1-1.1l-1-1.1l-1-1l-0.9-1.1l-0.9-1.1l-0.9-1.2l-0.8-1.1 M6.95,54.25h-0.1
	h-0.1 M6.95,54.25l0.2,0.1h0.2h0.2l0.2-0.1h0.1l0.1-0.1l0.1-0.1 M8.55,54.05L8.55,54.05v-0.1h-0.1h-0.1h-0.1h-0.1h-0.1v0.1
	 M8.55,54.05v0.1v0.1l0.1,0.1l0.2,0.1h0.2l0.2,0.1h0.2 M9.65,54.85h0.1l0.1-0.1h0.1l-0.1-0.1l-0.1-0.1h-0.1h-0.1l-0.1-0.1v0.1
	 M9.65,54.85h-0.2h-0.1l-0.1,0.1l-0.1,0.1l0.1,0.1l0.1,0.2l0.1,0.1h0.1 M9.35,55.85h0.1l0.1-0.1h0.1v-0.1v-0.1h-0.1v-0.1
	 M9.45,53.65l0.4,0.1l0.8,0.3l0.8,0.4l0.5,0.5l0.3,0.6l0.1,0.6l-0.2,0.6l-0.4,0.5l-0.7,0.5 M5.05,54.25l0.8-0.4l0.8-0.2
	 M107.85,59.15l-22-12.7 M3.85,57.15l-1.3,0.7 M12.35,57.15v0.1l0.2,0.3 M4.25,58.75l-0.1-0.1l-0.3-0.6v-0.4 M109.25,59.15h-0.1v0.1
	h-0.1 M104.85,59.25L104.85,59.25h-0.1 M11.05,57.75l-0.8,0.4l-0.9,0.2l-1,0.1h-1.1l-0.9-0.2l-0.9-0.3l-0.7-0.4l-0.6-0.5l-0.3-0.6
	v-0.6l0.2-0.6l0.4-0.5l0.6-0.5 M9.15,55.75h0.1h0.1v0.1 M9.15,55.75l-0.1-0.2h-0.2h-0.2h-0.2l-0.2,0.1l-0.1,0.1v0.2 M7.55,55.95
	L7.55,55.95v0.1l0.1,0.1h0.1h0.1h0.1h0.1v-0.1l0.1-0.1 M7.55,55.95v-0.2v-0.1l-0.1-0.2h-0.2l-0.1-0.1l-0.2,0.1h-0.2l-0.1,0.1
	 M6.45,55.15l-0.1,0.1h-0.1v0.1v0.1v0.1h0.1h0.1h0.1h0.1 M6.45,55.15h0.2l0.1-0.1l0.1-0.2l0.1-0.1v-0.1h-0.1l-0.2-0.1 M6.75,54.25
	l-0.1,0.1h-0.1l-0.1,0.1v0.1h0.1h0.1 M111.05,63.85L111.05,63.85 M3.25,61.65v0.1 M3.55,61.15L3.55,61.15l-0.1,0.1l-0.1,0.1
	l-0.1,0.2v0.1 M111.05,63.85v-0.1 M109.95,59.75l0.6,2.3l0.5,1.7 M109.55,59.55L109.55,59.55h0.1h0.1h0.1l0.1,0.1v0.1 M0.25,74.75
	l0.4,0.5l0.4,0.5 M1.05,75.75L1.05,75.75 M7.65,83.45l-2.4-2.5l-2.2-2.6l-2-2.6 M7.65,83.45l0.2-0.1 M7.05,69.65l0.4,7.7l0.2,6.1
	 M103.95,62.85h-0.1h-0.1l-0.1,0.1h-0.1v0.1 M103.05,63.35h0.1h0.2l0.1-0.1l0.1-0.1v-0.1 M107.85,64.95v0.2l-0.2,0.5l-0.4,0.6
	l-0.7,0.5 M99.15,64.85l0.2-0.2 M102.45,61.65h-0.1h-0.1 M102.45,61.65h0.2h0.2h0.2h0.2l0.1-0.1h0.1l0.1-0.1v-0.1 M104.05,61.45
	L104.05,61.45v-0.1h-0.1l-0.1-0.1h-0.1l-0.1,0.1h-0.1 M104.05,61.45v0.1v0.1h0.1l0.2,0.1l0.2,0.1h0.2h0.2 M105.15,62.15h0.1h0.1
	l0.1-0.1l-0.1-0.1h-0.1l-0.1-0.1h-0.1h-0.1 M105.15,62.15h-0.2l-0.1,0.1h-0.1v0.2v0.1l0.1,0.1l0.1,0.1h0.1 M104.85,63.15h0.1h0.1
	l0.1-0.1v-0.1l-0.1-0.1v-0.1 M104.95,61.05l0.4,0.1l0.8,0.3l0.8,0.4l0.5,0.5l0.3,0.6l0.1,0.5l-0.2,0.6l-0.4,0.6l-0.7,0.4
	 M100.55,61.65l0.8-0.4l0.8-0.2 M109.45,65.15h0.1h0.1h0.1h0.1h0.1h0.1 M107.85,64.15l1.6,1 M99.35,64.55l-0.2,0.4 M105.35,67.15
	v0.1l-0.9,0.2h-0.9h-0.9l-0.8-0.2l-0.1-0.1 M103.05,69.15L103.05,69.15l0.1-0.1v-0.1 M99.45,65.55l-0.1-0.1v-0.5 M100.05,66.35
	l-0.4-0.4l-0.1-0.3 M106.55,66.75l-0.8,0.3l-0.9,0.3l-1,0.1l-1-0.1l-1-0.1l-0.5-0.2 M106.55,65.05l-0.8,0.4l-0.9,0.2l-1,0.1h-1
	l-1-0.2l-0.9-0.3l-0.7-0.4l-0.6-0.5l-0.3-0.6v-0.6l0.2-0.5l0.4-0.6l0.6-0.4 M104.65,63.05l0.1,0.1h0.1 M104.65,63.05l-0.1-0.1
	l-0.2-0.1h-0.2l-0.2,0.1h-0.2l-0.1,0.2v0.1 M103.05,63.25v0.1v0.1h0.1l0.1,0.1h0.1h0.1l0.1-0.1l0.1-0.1v-0.1 M103.05,63.25v-0.2
	v-0.1l-0.1-0.1l-0.1-0.1h-0.2h-0.2l-0.2,0.1h-0.1 M101.95,62.55h-0.1l-0.1,0.1v0.1v0.1h0.1v0.1h0.1l0.1-0.1h0.1 M101.95,62.55
	l0.2-0.1l0.2-0.1l0.1-0.1v-0.1v-0.1l-0.1-0.1h-0.2v-0.1 M102.25,61.65h-0.1h-0.1v0.1h-0.1v0.1h0.1h0.1 M61.05,139.55l-0.3,0.1
	 M60.75,139.65l-0.2,0.1h-0.2 M60.85,139.45v0.1l-0.1,0.1 M59.85,139.65h-0.1 M69.75,0.95L69.75,0.95l-0.2-0.1h-0.2 M41.05,108.15
	l-0.2,1.1l-0.6,0.7l-0.9,0.4l-1.1,0.1l-1.3-0.5l-1.3-0.8l-1.1-1.3l-0.7-1.3l-0.2-1.3v-0.2 M33.65,105.05l0.2-1l0.5-0.8l0.8-0.3h1.2
	l1.2,0.4l1.3,0.9l1.2,1.2l0.7,1.3l0.3,1.2v0.2 M78.05,5.85l8.1,41.9 M77.65,5.65h0.2l0.1,0.1l0.1,0.1 M101.75,69.55L101.75,69.55
	h-0.1l-0.1,0.1h-0.1h-0.1 M101.35,69.65l-3.1-0.5 M97.85,69.15h0.1h0.1h0.1h0.1 M97.85,69.15l-28.5,16.5 M69.25,85.75L69.25,85.75
	l0.1-0.1 M70.05,87.65v0.1v0.1l-0.1,0.1 M69.95,87.45L69.95,87.45 M52.85,13.55l-0.2-0.1v-0.1v-0.2l0.2-0.1l0.2-0.1h0.2h0.3l0.2,0.1
	 M69.95,87.45L69.95,87.45 M69.05,85.45l0.5,1.1l0.4,0.8 M53.75,13.05l0.1,0.1v0.2v0.1l-0.1,0.1l-0.2,0.1h-0.3h-0.2l-0.2-0.1
	 M42.65,120.15l0.4,0.1 M43.05,120.25h0.5h0.3l0.3-0.2 M44.45,118.95l1.2-15l0.9-11.5 M43.95,119.85L43.95,119.85l0.4-0.4l0.1-0.5
	 M8.45,97.55v0.5v0.4 M9.45,100.95l-0.3-0.5l-0.3-0.6l-0.3-0.7l-0.1-0.7 M9.45,100.95l4.4,4.6l4.9,4.1l5.4,3.6l5.9,2.9l6.1,2.3
	l6.5,1.7 M44.15,119.05l-0.1,0.6l-0.4,0.4l-0.5,0.1h-0.5 M44.15,119.05l1.2-14.9l0.9-11.8 M7.25,69.75l0.3,8l0.3,6.2 M52.65,14.15
	l-0.2-0.1v-0.2v-0.1 M54.05,13.75l0.1,0.1l-0.1,0.2l-0.2,0.1l-0.3,0.1l-0.3,0.1l-0.3-0.1l-0.3-0.1 M55.95,14.85l0.5-0.3l0.1-0.2
	 M55.75,14.95l0.2-0.2 M50.55,14.85l0.6,0.3l0.7,0.2l0.7,0.1h0.7h0.8l0.7-0.1l0.6-0.2l0.6-0.3 M50.05,14.45l0.1,0.1l0.4,0.3
	 M62.55,86.75h-0.1h-0.1l-0.1,0.1h-0.1v0.1 M61.75,87.25L61.75,87.25h0.2l0.1-0.1l0.1-0.1v-0.1 M66.45,88.85v0.2l-0.2,0.5l-0.4,0.6
	l-0.7,0.4 M111.15,66.55l0.1,0.2 M111.05,67.15L111.05,67.15l0.1-0.1v-0.1 M111.05,67.15l-49.8,28.8 M111.05,67.15l0.1-0.1l0.1-0.1
	v-0.1v-0.1 M59.65,96.05l0.2,0.1h0.2h0.2h0.2h0.2l0.2-0.1l0.2-0.1h0.2 M61.05,85.55L61.05,85.55h-0.1h-0.1 M61.05,85.55h0.2h0.2h0.2
	h0.2l0.1-0.1l0.1-0.1h0.1v-0.1 M62.65,85.35h0.1l-0.1-0.1h-0.1l-0.1-0.1h-0.1h-0.1v0.1h-0.1 M62.65,85.35v0.1l0.1,0.1h0.1l0.1,0.1
	l0.2,0.1h0.2h0.2 M63.75,86.05h0.1h0.1l0.1-0.1v-0.1h-0.1l-0.1-0.1h-0.1h-0.1h-0.1 M63.75,86.05h-0.1l-0.2,0.1h-0.1v0.2v0.1l0.1,0.1
	l0.1,0.1h0.1 M63.55,87.05L63.55,87.05h0.1l0.1-0.1v-0.1v-0.1l-0.1-0.1 M63.65,84.95l0.3,0.1l0.9,0.3l0.7,0.4l0.5,0.5l0.3,0.5
	l0.1,0.6l-0.2,0.6l-0.4,0.6l-0.7,0.4 M59.15,85.55l0.8-0.4l0.8-0.2 M68.05,89.05h0.1h0.1h0.1h0.1h0.1h0.1 M66.45,88.05l1.6,1
	 M57.95,88.45L57.95,88.45l-0.2,0.4 M63.95,91.05L63.95,91.05l-0.8,0.3h-1h-0.9l-0.8-0.3h-0.1 M52.85,89.45l0.2-0.5l0.1-0.3
	 M7.25,63.05l-0.1-0.5v-0.5 M61.65,93.05L61.65,93.05l0.1-0.1v-0.1 M7.35,61.55L7.35,61.55l-0.1,0.1v0.1l-0.1,0.1v0.2 M7.15,62.05
	L7.15,62.05 M53.15,88.65v-0.1 M53.15,88.55v-0.1l0.1-0.1l0.1-0.1l0.1-0.1h0.1 M68.65,89.05l-7,4 M61.25,95.95l49.8-28.8
	 M110.05,65.15l-7,4 M101.75,69.55l-31.8,18.4 M58.05,89.45v-0.1l-0.1-0.5 M58.65,90.25l-0.3-0.4l-0.2-0.3 M65.15,90.55l-0.8,0.4
	l-0.9,0.3l-1,0.1l-1-0.1l-1-0.1l-0.5-0.2 M59.65,96.05l0.4,0.1h0.4l0.4-0.1l0.4-0.1 M65.15,88.95l-0.8,0.4l-0.9,0.2l-1,0.1h-1
	l-1-0.2l-0.9-0.3l-0.7-0.4l-0.5-0.5l-0.3-0.6l-0.1-0.6l0.2-0.5l0.4-0.6l0.6-0.4 M63.25,86.95l0.1,0.1h0.1h0.1 M63.25,86.95l-0.1-0.1
	l-0.2-0.1h-0.2h-0.2l-0.2,0.1l-0.1,0.1v0.2 M61.65,87.15v0.1l0.1,0.1l0.1,0.1h0.1h0.1l0.1-0.1l0.1-0.1v-0.1 M61.65,87.15l0.1-0.2
	l-0.1-0.1l-0.1-0.1l-0.1-0.1h-0.2h-0.2l-0.2,0.1h-0.1 M60.55,86.45h-0.1v0.1l-0.1,0.1v0.1h0.1l0.1,0.1l0.1-0.1h0.1 M60.55,86.45
	l0.2-0.1l0.2-0.1l0.1-0.1v-0.1v-0.1l-0.1-0.1h-0.2v-0.1 M60.85,85.55h-0.1h-0.1v0.1h-0.1v0.1h0.1h0.1 M52.85,89.45l-4.4-1.4
	l-4.3-1.5l-4.2-1.6l-4.1-1.7l-3.9-1.9l-3.7-1.9l-3.6-2.1l-3.4-2.2l-3.2-2.2l-3-2.4l-2.8-2.4l-2.6-2.5l-2.4-2.6 M7.25,63.05l-3.9-0.6
	 M53.95,91.75l-1.1-2.3 M54.45,90.55L54.45,90.55v0.1h-0.1l-0.1,0.1l-0.1,0.2v0.1 M54.15,91.05L54.15,91.05 M44.45,119.25l1.2-15
	l0.9-11.8 M42.75,120.45h0.4l0.4-0.1l0.5-0.2l0.3-0.4l0.1-0.5 M9.45,101.15l3.9,4.2l4.4,3.8l4.9,3.4l5.2,2.9l3.6,1.6l3.6,1.3
	l3.8,1.1l3.9,1 M9.45,101.15l-0.3-0.4l-0.2-0.4l-0.4-0.7l-0.1-0.7l-0.1-0.6 M8.35,97.75v0.3v0.3 M8.35,97.75l-2.7-2.7l-2.5-2.8
	l-2.1-2.9 M1.05,89.35v-0.1 M1.05,89.25l-0.5-0.6l-0.3-0.4 M59.65,96.05L59.65,96.05 M46.55,92.45l1.6,0.5l1.6,0.5l1.6,0.5l1.7,0.4
	l1.6,0.5l1.7,0.4l1.6,0.4l1.7,0.4 M53.95,91.75l0.1-0.4l0.1-0.3 M3.35,62.45l2.3,2.7l2.6,2.7l2.8,2.5l3,2.5l3.2,2.3l3.4,2.3l3.6,2.2
	l3.8,2.1l3.9,1.9l4.1,1.9l4.3,1.7l4.4,1.6l4.5,1.5l4.7,1.4 M3.35,62.45l-0.1-0.4v-0.3 M0.75,62.05L0.75,62.05 M7.25,69.75
	L7.25,69.75h-0.1v-0.1h-0.1 M7.25,69.75l2.6,2.5l2.9,2.5l3,2.3l3.2,2.3l3.5,2.1l3.5,2.1l3.8,2l3.9,1.9l4.1,1.7l4.2,1.6l4.3,1.6
	 M46.55,92.45L46.55,92.45l-0.1-0.1h-0.1h-0.1 M86.15,47.75l-1.4,1.7 M64.15,1.75l0.7-0.1l0.6-0.1l0.7-0.1l0.6-0.1l0.7-0.1l0.6-0.2
	l0.7-0.1l0.6-0.1 M75.15,8.15l0.2-0.1h0.1h0.1 M28.35,17.25l-0.2-1.2l-0.1-1.4l0.2-1.4l0.4-1.4l0.1-0.2 M77.75,11.65l0.3,0.6
	l0.3,1.4l0.1,1.4l-0.1,1.4l-0.2,0.8 M77.65,5.65l-0.3,0.3l-0.3,0.3l-0.3,0.3l-0.3,0.3l-0.3,0.3l-0.4,0.4l-0.3,0.3l-0.3,0.3
	 M79.05,23.55v0.9l-0.2,1.4l-0.4,1.4l-0.6,1.4l-0.9,1.3l-1,1.3l-1.3,1.2l-1.5,1.2l-1.6,1l-1.9,1l-1.9,0.8l-2.1,0.7l-2.2,0.7
	l-2.3,0.5l-2.4,0.3l-2.4,0.3l-2.5,0.1l-2.4-0.1l-2.5-0.1l-2.4-0.3l-2.3-0.5l-2.3-0.5l-2.1-0.7l-2-0.8l-1.9-0.9l-1.8-1l-1.5-1.1
	l-1.4-1.2l-1.2-1.2l-0.9-1.3l-0.8-1.4l-0.5-1.4l-0.3-1.4l-0.1-1.4v-0.2 M86.75,58.65l0.2,1.2l0.1,1.7l-0.1,1.8l-0.4,1.7l-0.7,1.7
	l-0.8,1.6l-1.1,1.6l-1.4,1.5l-1.5,1.4l-1.6,1.4l-2,1.2l-2.1,1.1l-2.1,1l-2.3,0.8l-2.5,0.8l-2.7,0.6l-2.6,0.4l-2.7,0.4l-2.8,0.1
	l-2.8,0.1l-2.8-0.1l-2.8-0.2l-2.8-0.4l-2.8-0.5l-2.7-0.6l-2.6-0.7l-2.5-0.9l-2.4-1l-2.2-1l-2.1-1.1l-1.9-1.3l-1.8-1.3l-1.5-1.3
	l-1.3-1.4l-1.1-1.5l-0.9-1.5l-0.6-1.5l-0.4-1.6l-0.2-1.6l0.1-1.5l0.2-0.9 M114.25,88.35l0.3-0.3l0.4-0.8l0.2-0.8l0.1-1.1
	 M115.25,85.35l-0.1-1.1l-0.2-1.1l-0.4-1.2l-0.6-1.2l-0.7-1.1l-0.8-1.1l-0.8-0.8l-0.4-0.4 M111.25,78.45l0.7,0.8l0.8,1l0.6,1.2
	l0.6,1.2l0.4,1.2l0.2,1.2l0.1,1.1l-0.1,1.1l-0.2,0.9l-0.4,0.7l-0.6,0.6l-0.2,0.1 M113.45,87.65l-0.1,1.1l-0.2,1l-0.4,0.8l-0.6,0.6
	l-0.5,0.4 M113.45,87.25v0.4 M111.25,80.75l0.2,0.2l0.7,1.3l0.6,1.3l0.4,1.3l0.2,1.2l0.1,1.2 M113.45,87.65L113.45,87.65
	 M111.25,80.95l0.3,0.4l0.6,1.2l0.6,1.3l0.4,1.3l0.2,1.3l0.1,1.2 M93.95,131.75L93.95,131.75v0.1l-0.1,0.1 M88.45,131.55l-0.2-0.1
	l-0.9-0.2h-0.8l-0.9,0.1l-0.6,0.2 M74.55,131.75l9,5.2 M84.95,137.15h-0.2h-0.2h-0.2h-0.2h-0.1l-0.2-0.1h-0.2l-0.1-0.1
	 M84.95,137.15l1.5-0.4l1.5-0.4l1.3-0.6l1.2-0.6l1.1-0.7l0.9-0.8l0.8-0.8l0.6-0.9 M88.85,128.85l-0.6-0.3l-0.9-0.1l-0.8-0.1
	l-0.9,0.1l-0.7,0.3l-0.6,0.3l-0.5,0.5l-0.1,0.4v0.5l0.3,0.5l0.5,0.4l0.7,0.3l0.8,0.2h0.9l0.9-0.1l0.7-0.2l0.6-0.4l0.4-0.4l0.2-0.5
	v-0.5l-0.3-0.5L88.85,128.85 M77.05,130.35l6.5,3.7 M83.55,134.05l0.1,0.1h0.2l0.2,0.1h0.1h0.2h0.2h0.2h0.2 M84.95,134.25l1.5-0.4
	l1.5-0.4l1.3-0.5l1.2-0.7l1.1-0.7l0.9-0.7l0.8-0.9l0.6-0.8 M93.85,129.15l0.1-0.2v-0.1v-0.1v-0.1l-0.1-0.1l-0.1-0.1l-0.1-0.1
	l-0.1-0.1 M93.55,128.25l-6.5-3.7 M0.65,105.05l0.1,0.3l0.1,0.2 M0.65,91.85v13.2 M0.25,87.95L0.25,87.95v0.1v0.1v0.1v0.1
	 M0.25,88.25l0.3,1.9l0.1,1.7 M111.45,90.15l0.1-0.3v-0.4 M111.55,89.45v-2 M111.25,90.85l0.2-0.7 M97.75,118.35l0.9-0.8l0.7-1
	 M110.45,96.95l0.3-0.5l0.3-0.5l0.1-0.6l0.1-0.5 M0.35,73.85h-0.1v0.2v0.2v0.1 M0.35,73.65v0.2 M0.65,75.25v12.9 M0.65,71.85
	l-0.1,1.1l-0.1,0.7 M10.15,52.85L10.15,52.85h-0.1h-0.1 M111.55,75.35v-2.5 M21.95,48.35l-8,4.7 M9.95,52.95l-1.2,0.6 M13.95,53.05
	h-0.2l-0.1,0.1h-0.1h-0.2 M99.35,116.55l1.3-2.6l1.2-2.1l0.9-1.8l0.8-1.4l0.6-1.1l1-1.7l1.4-2.4l1.7-2.9l2.2-3.6 M13.35,53.15
	l-3.2-0.3 M0.65,61.75v10.1 M2.05,57.65h-0.1h-0.1h-0.1 M1.65,57.65l-0.4,0.3 M8.05,55.75v-1.7 M8.55,54.15v1.4 M0.75,58.65
	l-0.1,1.6v1.6 M6.95,55.45v-0.7 M1.25,57.95l-0.2,0.1l-0.2,0.2l-0.1,0.2v0.2 M9.15,55.05v0.7 M7.55,56.05v-0.3 M4.75,58.85l-2.7-1.2
	 M8.15,55.95L8.15,55.95 M12.35,57.65v-1.7 M9.45,53.65h-0.3l-0.4-0.1h-0.3h-0.4h-0.3h-0.4l-0.4,0.1h-0.3 M109.95,59.65l-0.8-0.5
	 M104.85,59.25l-3.3-2.2l-3.1-2l-2.5-1.5l-1.8-1.2l-1.8-1l-1.7-1.1l-4.3-2.5l-0.3-0.2 M3.85,55.95v1.7 M109.25,59.15l-4.4,0.1
	 M12.65,57.05l-0.2,0.6l-0.5,0.6l-0.7,0.4l-0.8,0.3l-1.1,0.3l-1.3,0.2 M8.05,59.45h-0.1l-1.6-0.1l-0.9-0.2l-0.7-0.3 M111.25,94.85
	v-12.7v-15.2 M111.15,66.95l-0.1-3.1 M111.05,63.85v-0.1 M111.05,63.65l-1.1-4 M103.55,63.05v-1.6 M104.05,61.55v1.3 M102.45,62.75
	v-0.6 M104.75,62.45v0.6 M103.05,63.45v-0.3 M103.65,63.25v0.1 M107.85,64.95v-1.6 M100.25,66.25l-0.8-0.8 M99.45,65.45l-0.1-0.1
	l-0.3-1 M104.95,61.05l-0.3-0.1h-0.4l-0.3-0.1h-0.4h-0.3l-0.4,0.1h-0.3l-0.4,0.1 M103.15,68.35L103.15,68.35l-0.1-0.1v-0.1h-0.1
	 M103.15,68.95v-0.5 M102.95,68.05l-2.7-1.8 M99.35,63.35v1.6 M61.15,139.55l16.6-9.6l20-11.6 M59.75,139.65h0.2l0.3,0.1h0.1
	 M0.85,105.65l1.7,2.3l1.6,1.9l1.5,1.7l1.2,1.3l1.1,1.1l2.4,2.2l2.7,2.3l5.1,3.8l5.5,3.5l4.4,2.4l4.7,2.4l4.9,2.1l2.1,0.8l2.1,0.8
	l2.2,0.8l2.8,1l3.6,1.1l4.2,1.2l5.1,1.3 M43.65,120.05l0.3-0.2 M77.85,5.65l-2.2-1.3l-4.4-2.6l-1.5-0.8 M52.65,13.25l-0.2,0.5
	 M70.05,87.75l-0.1-0.3 M69.95,87.55v-0.2 M69.95,87.35l-0.9-2.1 M54.05,13.75l-0.2-0.5 M56.55,14.35l-0.1,0.1 M56.45,14.45
	l-0.5,0.4 M62.15,86.95v-1.6 M62.65,85.45v1.3 M61.05,86.65v-0.6 M63.35,86.35v0.6 M50.45,14.75l-0.2-0.1 M50.25,14.65L50.25,14.65
	l-0.1-0.2 M61.75,87.35v-0.3 M62.25,87.15v0.1 M66.45,88.85v-1.6 M58.85,90.15l-0.8-0.8 M58.05,89.35l-0.1-0.1l-0.3-1 M63.65,84.95
	l-0.4-0.1h-0.4l-0.3-0.1h-0.4h-0.3l-0.4,0.1h-0.3l-0.4,0.1 M61.75,92.25L61.75,92.25l-0.1-0.1v-0.1h-0.1 M61.75,92.85v-0.5
	 M61.55,91.95l-2.7-1.8 M57.95,87.25v1.6 M64.65,1.85l-0.1-0.1l-2.1-0.5l-2.2-0.5l-2.2-0.3l-2.2-0.2h-2.3h-2.3l-2.2,0.2l-2.3,0.3
	l-2.1,0.4l-2.1,0.5l-2,0.6l-2,0.7l-1.8,0.9l-1.6,0.9l-1.5,1l-1.4,1.1l-1.2,1.2l-1,1.2l-0.8,1.3l-0.4,0.9 M77.75,11.45l-0.1-0.2
	l-0.7-1.3l-0.9-1.2l-0.6-0.7 M28.05,14.55l-0.6,9 M79.05,23.55l-0.6-9 M27.55,22.95l-7.8,35.9 M86.75,58.65l-7.8-35.7 M111.25,91.85
	l0.4-0.3 M93.95,131.75v-2.9"/>
</svg>
