<?xml version="1.0" encoding="utf-8"?>
<!-- Generator: Adobe Illustrator 19.0.0, SVG Export Plug-In . SVG Version: 6.00 Build 0)  -->
<svg version="1.0" id="Layer_1" xmlns="http://www.w3.org/2000/svg" xmlns:xlink="http://www.w3.org/1999/xlink" x="0px" y="0px"
	 width="118.1px" height="74.7px" viewBox="0 0 118.1 74.7" enable-background="new 0 0 118.1 74.7" xml:space="preserve">
<path fill="none" stroke="#000000" stroke-width="0.25" stroke-linecap="round" stroke-linejoin="round" stroke-miterlimit="10" d="
	M109.75,59.75l-0.8-0.5 M3.65,33.55v-4.8 M110.85,69.05l6-3.5 M69.75,71.75v-4.8 M85.75,71.75v-4.8"/>
<path fill="none" stroke="#000000" stroke-width="0.5" stroke-linecap="round" stroke-linejoin="round" stroke-miterlimit="10" d="
	M3.65,34.35l-0.7-0.5l-0.7-0.4l-0.5-0.5l-0.5-0.6l-0.4-0.6l-0.3-0.5l-0.1-0.6l-0.1-0.6l-0.1-0.3 M116.15,68.95l0.2-0.2l0.4-0.3
	l0.3-0.4l0.3-0.5l0.2-0.6l0.2-0.6l0.1-0.6v-0.7 M44.85,58.15l-0.4-0.1l-0.9-0.3l-0.8-0.3l-0.7-0.3l-0.7-0.4l-0.6-0.5l-0.5-0.4
	l-0.5-0.5l-0.2-0.2 M105.65,61.05l0.3,0.4l0.4,0.6l0.5,0.5l0.5,0.4l0.5,0.4 M103.85,73.15l-9.5-5.5 M109.85,69.65v0.7l-0.1,0.7
	l-0.2,0.6l-0.2,0.5l-0.3,0.5l-0.3,0.4l-0.4,0.3l-0.5,0.3l-0.5,0.2l-0.5,0.1h-0.6l-0.6-0.1l-0.6-0.2l-0.6-0.2l-0.6-0.3 M101.25,63.65
	l0.1,0.1l0.4,0.5l0.5,0.6l0.4,0.5l0.5,0.4l0.6,0.3l0.5,0.3l0.5,0.2l0.5,0.1l0.4,0.1l0.5-0.1l0.4-0.1l0.3-0.2l0.3-0.3l0.3-0.4
	l0.2-0.5l0.1-0.5l0.1-0.5v-0.6l-0.1-0.6l-0.1-0.7l-0.2-0.6l-0.3-0.7l-0.2-0.6 M69.75,72.55l-66.1-38.2 M108.85,59.25l-23.1,13.3
	 M108.85,59.25l0.2-0.1l0.2-0.1h0.2l0.1,0.1l0.1,0.1l0.1,0.2l0.1,0.1v0.3 M109.85,59.85v9.8 M117.85,65.05v-17.4 M85.75,72.55
	l-0.7,0.4l-0.9,0.4l-0.9,0.3l-0.9,0.2l-1,0.3l-1,0.1l-1,0.1l-1,0.1h-1.1l-1-0.1l-1.1-0.1l-1-0.1l-1-0.3l-0.9-0.2l-0.9-0.3l-0.8-0.4
	l-0.8-0.4 M86.65,44.25l0.4,0.1l0.3,0.1l0.4,0.1h0.5l0.4-0.1l0.3-0.1l0.3-0.2l0.3-0.1l0.1-0.3l0.1-0.2l-0.1-0.2l-0.1-0.3l-0.2-0.2
	l-0.3-0.1l-0.4-0.2h-0.3l-0.5-0.1l-0.4,0.1l-0.3,0.1l-0.4,0.1l-0.3,0.2l-0.1,0.2l-0.2,0.2v0.3l0.1,0.2l0.2,0.2L86.65,44.25
	 M41.55,18.25l0.4,0.1l0.3,0.1h0.4h0.5h0.4l0.3-0.1l0.3-0.2l0.3-0.2l0.1-0.2l0.1-0.2l-0.1-0.3l-0.1-0.2l-0.2-0.2l-0.3-0.2l-0.3-0.1
	l-0.4-0.1h-0.4h-0.5l-0.3,0.1l-0.4,0.2l-0.2,0.1l-0.2,0.3l-0.2,0.2v0.2l0.1,0.3l0.2,0.2L41.55,18.25 M48.25,14.35l0.3,0.2l0.4,0.1
	h0.4h0.4l0.4-0.1l0.4-0.1l0.3-0.1l0.2-0.2l0.2-0.3v-0.2v-0.2l-0.1-0.2l-0.2-0.3l-0.3-0.1l-0.4-0.1l-0.4-0.1h-0.4h-0.4l-0.4,0.1
	l-0.3,0.1l-0.3,0.2l-0.2,0.2l-0.1,0.2v0.3l0.1,0.2l0.2,0.2L48.25,14.35 M93.35,40.35l0.3,0.2l0.4,0.1h0.4h0.4h0.4l0.4-0.1l0.3-0.2
	l0.2-0.2l0.2-0.2v-0.3v-0.2l-0.1-0.2l-0.2-0.2l-0.3-0.2l-0.4-0.1l-0.4-0.1h-0.4h-0.4l-0.4,0.1l-0.3,0.2l-0.3,0.1l-0.2,0.2l-0.1,0.3
	v0.2l0.1,0.2l0.2,0.3L93.35,40.35 M117.85,47.65l-82.2-47.4 M3.65,18.75l32-18.5 M3.65,18.75l-0.7,0.4l-0.7,0.5l-0.5,0.5l-0.5,0.6
	l-0.4,0.5l-0.3,0.6l-0.1,0.6l-0.1,0.6v0.6l0.1,0.6l0.1,0.6l0.3,0.6l0.4,0.5l0.5,0.6l0.5,0.5l0.7,0.5l0.7,0.4 M3.65,27.95l66.1,38.2
	 M69.75,66.15l0.8,0.4l0.8,0.4l0.9,0.3l0.9,0.3l1,0.2l1,0.2l1.1,0.1h1h1.1h1l1-0.1l1-0.2l1-0.2l0.9-0.3l0.9-0.3l0.9-0.4l0.7-0.4
	 M85.75,66.15l32.1-18.5 M52.15,38.15l0.4,0.3l0.4,0.3l0.2,0.4l0.2,0.4l0.1,0.3v0.4v0.4l-0.2,0.4l-0.3,0.3l-0.3,0.4l-0.4,0.3
	l-0.5,0.2l-0.6,0.2l-0.6,0.2l-0.6,0.2h-0.7h-0.6h-0.7l-0.6-0.1l-0.7-0.1l-0.5-0.2l-0.6-0.2l-0.4-0.3l-0.5-0.3l-0.3-0.4l-0.2-0.3
	l-0.2-0.4v-0.4v-0.4l0.1-0.3l0.3-0.4l0.3-0.3l0.3-0.4l0.5-0.2l0.5-0.3l0.6-0.2l0.6-0.1l0.7-0.1l0.6-0.1h0.7l0.6,0.1l0.7,0.1l0.6,0.2
	l0.5,0.2L52.15,38.15 M0.25,23.35v6.4 M108.05,73.55l8.1-4.6"/>
</svg>
