<?xml version="1.0" encoding="utf-8"?>
<!-- Generator: Adobe Illustrator 19.0.0, SVG Export Plug-In . SVG Version: 6.00 Build 0)  -->
<svg version="1.0" id="Layer_1" xmlns="http://www.w3.org/2000/svg" xmlns:xlink="http://www.w3.org/1999/xlink" x="0px" y="0px"
	 width="67.8px" height="60.3px" viewBox="0 0 67.8 60.3" enable-background="new 0 0 67.8 60.3" xml:space="preserve">
<path fill="none" stroke="#000000" stroke-width="0.25" stroke-linecap="round" stroke-linejoin="round" stroke-miterlimit="10" d="
	M7.55,23.05l0.2-0.2l0.3-0.3l0.2-0.3l0.3-0.4l0.2-0.4l0.2-0.4l0.1-0.4 M6.95,23.25l-4.4-2.5 M8.55,29.45l2-1.1 M21.65,27.65
	l-0.1,0.3l-0.1,0.4l-0.2,0.4l-0.2,0.4l-0.2,0.3l-0.3,0.4l-0.3,0.3 M2.35,26.95v2.4 M21.25,26.95l-0.3-0.1l-0.4-0.1l-0.4-0.1h-0.5
	h-0.4 M21.65,26.25v0.7 M21.75,27.15l2.6,1.5 M19.35,30.45v-0.1l-0.3-0.2l-0.3-0.3l-0.3-0.4 M14.05,29.15l3-1.7 M17.65,26.65v-2.4
	 M18.95,31.05l-3.5,2 M22.35,32.15l-2.6-1.5 M14.45,36.35v-2.5 M4.55,17.25l4.4,2.5 M9.25,19.95l0.5,0.4 M20.45,33.85v2.5
	 M17.15,23.95l-2,1.2 M15.15,12.75v-5.6 M17.65,16.45v0.1l0.1,0.4l0.1,0.4l0.2,0.4 M17.45,16.25l0.2-0.1 M17.65,16.05v-0.5
	 M21.25,15.95l-0.3-0.1l-0.4-0.1l-0.4-0.1h-0.5h-0.4 M43.65,44.45l-1.1-0.7 M53.65,46.25v0.2l-0.1,0.4l-0.2,0.4l-0.2,0.4l-0.2,0.3
	l-0.3,0.4l-0.3,0.3 M40.65,47.95l2-1.1 M19.55,19.65l-0.8,0.5 M21.65,16.65l-0.1,0.3l-0.1,0.4l-0.2,0.4l-0.2,0.4l-0.2,0.3l-0.3,0.4
	l-0.3,0.3 M44.45,33.85l-24-13.8 M47.15,31.45v0.2l-0.1,0.4l-0.2,0.4l-0.2,0.4l-0.3,0.4l-0.2,0.3l-0.3,0.3 M51.45,48.95L51.45,48.95
	l-0.3-0.3l-0.3-0.3l-0.3-0.4 M46.15,34.65L46.15,34.65 M44.25,34.85l0.8-0.4 M52.65,49.05l0.2-0.1l0.3-0.3l0.2-0.4l0.3-0.4l0.2-0.3
	l0.1-0.5l0.2-0.4 M22.45,16.65l24,13.8 M21.65,10.75v4.4 M40.45,48.95v2.4 M47.25,29.95v-4.5 M47.55,31.15v-0.1l-0.3-0.2
	 M58.25,52.25l0.1-0.1l0.3-0.3l0.3-0.4l0.2-0.3l0.2-0.4l0.2-0.4l0.1-0.5 M46.15,47.75l3-1.7 M52.15,49.35l-0.4-0.2 M50.95,49.55
	l-3.5,2 M62.35,55.25l-4.4-2.6 M52.45,58.25v-2.4 M53.35,45.45l-0.3-0.1l-0.4-0.1l-0.5-0.1h-0.4h-0.5 M49.75,43.85v-8.2 M11.95,1.25
	l-2.1,1.2 M62.55,55.85v2.4 M67.05,38.85l-2.1,1.2 M59.95,31.35l2.1-1.2 M53.75,30.85v12.2 M53.75,45.65l0.5,0.3 M54.55,46.15
	l0.3,0.2l0.5,0.5l0.5,0.5 M59.95,49.25l4.4,2.5"/>
<path fill="none" stroke="#000000" stroke-width="0.5" stroke-linecap="round" stroke-linejoin="round" stroke-miterlimit="10" d="
	M2.35,20.65l0.3-0.2l0.3-0.3l0.3-0.3l0.3-0.4l0.2-0.3l0.2-0.4l0.2-0.4l0.1-0.4l0.1-0.4v-0.4 M2.35,29.85l-0.4-0.3l-0.5-0.3l-0.3-0.3
	l-0.3-0.4l-0.2-0.4l-0.2-0.4l-0.1-0.4l-0.1-0.4 M9.95,28.25l-0.2-0.1l-0.3-0.1l-0.3-0.1h-0.4h-0.4h-0.4h-0.4l-0.3,0.1l-0.3,0.2h-0.1
	 M10.55,28.05l0.1-0.1l0.1-0.2v-0.2v-0.2l-0.1-0.3l-0.1-0.2l-0.2-0.2l-0.3-0.1 M10.05,26.55l-0.3-0.2l-0.3-0.1l-0.3-0.1h-0.4h-0.4
	h-0.4h-0.4l-0.3,0.1l-0.3,0.2l-0.3,0.1l-0.3,0.2l-0.2,0.2l-0.1,0.2l-0.1,0.2v0.2l0.1,0.3l0.1,0.2 M12.05,24.35l-0.2-0.1l-0.3-0.2
	l-0.4-0.2l-0.4-0.2l-0.5-0.2l-0.5-0.1l-0.5-0.1h-0.6h-0.5h-0.5l-0.5,0.1 M7.15,23.35l-0.5,0.1l-0.5,0.1l-0.4,0.2l-0.4,0.2l-0.4,0.2
	l-0.3,0.3l-0.3,0.2l-0.2,0.3l-0.1,0.3l-0.1,0.3v0.3v0.3l0.1,0.3l0.2,0.3l0.2,0.3l0.3,0.3l0.3,0.2l0.4,0.2l0.4,0.2l0.4,0.2l0.5,0.1
	l0.5,0.1h0.5l0.6,0.1l0.5-0.1h0.5l0.5-0.1l0.5-0.1l0.5-0.2h0.2 M2.35,20.65l-0.4,0.3l-0.5,0.3l-0.3,0.3l-0.3,0.4l-0.2,0.4l-0.2,0.4
	l-0.1,0.4l-0.1,0.4l0.1,0.4l0.1,0.4l0.2,0.4l0.2,0.3l0.3,0.4l0.3,0.3l0.5,0.4l0.4,0.3 M13.25,10.25v0.3l0.1,0.3l0.1,0.4l0.1,0.3
	l0.2,0.3l0.2,0.4l0.3,0.2l0.2,0.3l0.3,0.2 M8.85,0.55l0.4-0.1l0.4-0.1l0.4-0.1h0.4l0.5,0.1l0.5,0.1l0.5,0.2l0.4,0.3 M12.75,9.75
	h-0.2l-0.2,0.1h-0.2l-0.2,0.2l-0.1,0.2l-0.1,0.2l-0.1,0.3v0.3v0.3l0.1,0.4l0.1,0.4l0.2,0.3l0.2,0.3l0.2,0.4l0.2,0.2l0.3,0.3l0.3,0.2
	l0.2,0.2l0.3,0.1h0.3h0.2l0.2-0.1l0.2-0.1l0.2-0.1l0.1-0.3 M2.35,29.85l12.1,7 M2.35,26.45l5.8,3.3 M20.45,36.85l-0.4,0.2l-0.4,0.1
	l-0.5,0.2l-0.5,0.1h-0.5l-0.5,0.1h-0.5l-0.5-0.1h-0.5l-0.5-0.1l-0.4-0.2l-0.5-0.1l-0.3-0.2 M14.65,33.45l0.4,0.2l0.5,0.2l0.5,0.1
	l0.5,0.1h0.5h0.5h0.6l0.5-0.1l0.5-0.1l0.4-0.1l0.5-0.2l0.4-0.2 M14.55,33.45h0.1 M15.05,14.35v-0.3l-0.1-0.4l-0.1-0.5l-0.2-0.5
	l-0.2-0.5l-0.2-0.5l-0.3-0.4l-0.3-0.4l-0.3-0.5l-0.4-0.3l-0.3-0.4l-0.4-0.2l-0.4-0.3 M11.85,9.15l-0.3-0.2l-0.4-0.1l-0.4-0.1h-0.3
	h-0.3l-0.3,0.1l-0.3,0.2l-0.2,0.2l-0.2,0.2l-0.2,0.3l-0.1,0.3l-0.1,0.4v0.4v0.5l0.1,0.4l0.1,0.5l0.1,0.5l0.2,0.5l0.2,0.4l0.2,0.5
	l0.3,0.5l0.3,0.4l0.4,0.4l0.3,0.3l0.4,0.3l0.4,0.3l0.3,0.2l0.4,0.2l0.4,0.1h0.3h0.4h0.3l0.2-0.2l0.3-0.1l0.1-0.1 M9.35,2.65
	l-0.5-0.2l-0.4-0.2l-0.5-0.2h-0.5h-0.4h-0.4l-0.4,0.1l-0.4,0.2l-0.3,0.2l-0.3,0.3l-0.3,0.3l-0.2,0.4l-0.2,0.5l-0.1,0.5v0.5l-0.1,0.5
	 M4.35,17.15V5.55 M27.45,32.75v-3.3 M24.45,28.75v-1.1 M22.45,32.15l0.3-0.2l0.3-0.2l0.3-0.3l0.2-0.4l0.3-0.4l0.2-0.3l0.2-0.5
	l0.1-0.4v-0.4l0.1-0.3 M20.45,33.35l2-1.2 M20.45,36.85l7-4.1 M44.45,40.85l-0.1,0.2l-0.1,0.4l-0.2,0.4l-0.2,0.4l-0.2,0.4l-0.3,0.3
	l-0.3,0.3l-0.3,0.3l-0.3,0.2 M42.45,43.75l-2,1.2 M40.45,51.85l-0.3-0.2l-0.3-0.3l-0.3-0.2l-0.1-0.3l-0.2-0.3v-0.3v-0.1
	 M40.45,44.95l-0.3,0.2l-0.3,0.2l-0.3,0.3l-0.2,0.3l-0.1,0.3v0.3v0.3l0.1,0.3l0.1,0.3l0.2,0.3l0.3,0.2l0.3,0.3 M40.25,48.25l0.1,0.1
	 M55.05,54.25h-0.2l-0.3-0.2h-0.3l-0.4-0.1h-0.4h-0.4l-0.4,0.1l-0.3,0.1l-0.3,0.1h-0.1 M40.45,51.85l12,7 M55.65,54.15l0.1-0.1
	l0.1-0.3v-0.2v-0.2l-0.1-0.2l-0.1-0.2l-0.2-0.2l-0.3-0.2 M55.15,52.55l-0.3-0.1l-0.3-0.2h-0.3l-0.4-0.1h-0.4h-0.4l-0.4,0.1l-0.3,0.1
	l-0.3,0.1l-0.3,0.1l-0.3,0.2l-0.2,0.2l-0.1,0.2l-0.1,0.3v0.2l0.1,0.2l0.1,0.2v0.1 M57.75,52.55l0.1-0.3l0.1-0.3v-0.3l-0.1-0.3
	l-0.1-0.3l-0.2-0.3l-0.2-0.2l-0.4-0.3l-0.3-0.2l-0.4-0.2l-0.4-0.2l-0.5-0.1l-0.5-0.1l-0.5-0.1l-0.6-0.1h-0.5l-0.5,0.1h-0.5
	 M58.35,36.25v0.3l0.1,0.3l0.1,0.4l0.1,0.3l0.2,0.4l0.2,0.3l0.3,0.3l0.2,0.2l0.3,0.2 M46.75,52.05l5.7,3.3 M52.25,49.35l-0.5,0.1
	l-0.5,0.2l-0.4,0.2l-0.4,0.1l-0.4,0.3l-0.3,0.2l-0.3,0.3l-0.2,0.3l-0.1,0.3l-0.1,0.3v0.3v0.3l0.1,0.3l0.2,0.2l0.2,0.3l0.3,0.3
	l0.3,0.2l0.4,0.2l0.4,0.2l0.4,0.2l0.5,0.1l0.5,0.1l0.5,0.1h0.6h0.5l0.5-0.1l0.5-0.1l0.5-0.1l0.5-0.1l0.4-0.2l0.4-0.2l0.3-0.2
	l0.3-0.3l0.2-0.3l0.2-0.3 M62.55,58.85l-0.6,0.2l-0.5,0.3l-0.6,0.2l-0.6,0.1l-0.7,0.2l-0.7,0.1h-0.7l-0.7,0.1l-0.6-0.1h-0.7
	l-0.7-0.1l-0.7-0.2l-0.6-0.1l-0.6-0.2l-0.6-0.3l-0.5-0.2 M52.45,55.35l0.5,0.3l0.6,0.2l0.6,0.2l0.6,0.2l0.7,0.1l0.7,0.1l0.7,0.1h0.6
	h0.7l0.7-0.1l0.7-0.1l0.7-0.1l0.6-0.2l0.6-0.2l0.5-0.2l0.6-0.3 M57.85,35.85h-0.2h-0.2l-0.2,0.1l-0.2,0.1l-0.1,0.2l-0.1,0.3
	l-0.1,0.2v0.4v0.3l0.1,0.3l0.1,0.4l0.2,0.3l0.2,0.4l0.2,0.3l0.2,0.3l0.3,0.2l0.3,0.2l0.2,0.2l0.3,0.1l0.3,0.1l0.2-0.1h0.2l0.2-0.1
	l0.2-0.2l0.1-0.2 M12.35,0.95l50.2,28.9 M9.35,2.65l5.8,3.4 M21.65,9.75l25.6,14.8 M43.05,46.65l-0.2,0.4l-0.1,0.3l-0.3,0.4
	l-0.2,0.2l-0.3,0.3l-0.3,0.1l-0.3,0.1h-0.4h-0.3l-0.3-0.1 M40.35,48.35h0.1 M46.75,52.05l-6.3-3.7 M46.75,52.05l-0.3-0.2l-0.3-0.3
	l-0.2-0.3l-0.2-0.3l-0.1-0.4l-0.2-0.4v-0.4l-0.1-0.4v-0.5l0.1-0.4l0.1-0.4 M45.55,48.05l4.2-14.1 M49.75,33.95l0.2-0.7l0.2-0.6
	l0.2-0.6l0.2-0.5l0.3-0.5l0.2-0.5l0.3-0.5l0.3-0.4l0.2-0.4l0.3-0.3l0.2-0.3l0.3-0.2l0.2-0.1l0.3-0.1l0.2-0.1l0.2,0.1h0.2
	 M53.75,28.25l-6.5-3.7 M47.25,24.55l0.1,0.1l0.2,0.2l0.1,0.2l0.2,0.3l0.1,0.4v0.4l0.1,0.4v0.5v0.5v0.6l-0.1,0.6v0.6l-0.1,0.6
	l-0.2,0.6l-0.1,0.6l-0.2,0.7l-0.1,0.6 M46.95,33.35l0.3-0.9 M46.95,33.35l-0.1,0.4l-0.2,0.3l-0.2,0.4l-0.3,0.2l-0.2,0.3l-0.3,0.1
	l-0.3,0.1l-0.3,0.1h-0.3l-0.3-0.1l-0.3-0.2 M18.55,20.25l25.6,14.7 M18.55,20.25l-0.3-0.2l-0.2-0.3l-0.2-0.2l-0.2-0.4l-0.2-0.4
	l-0.1-0.4l-0.1-0.4v-0.4v-0.4v-0.5l0.1-0.4 M17.35,16.25l0.3-0.9 M17.65,15.35l0.2-0.6l0.2-0.6l0.2-0.6l0.3-0.5l0.2-0.6l0.3-0.5
	l0.2-0.4l0.3-0.4l0.2-0.4l0.3-0.3l0.3-0.3l0.2-0.2l0.3-0.1l0.2-0.1l0.2-0.1h0.2l0.2,0.1 M15.15,6.05l6.5,3.7 M15.15,6.05l0.2,0.1
	l0.1,0.2l0.2,0.2l0.1,0.3l0.1,0.4l0.1,0.4v0.4v0.5v0.5v0.6v0.6l-0.1,0.6l-0.1,0.6l-0.1,0.6l-0.2,0.6l-0.1,0.7l-0.2,0.6 M10.95,28.05
	l4.2-14.1 M10.95,28.05l-0.1,0.4l-0.2,0.4l-0.2,0.3l-0.2,0.3l-0.3,0.2l-0.3,0.2l-0.3,0.1h-0.3h-0.3l-0.3-0.1l-0.3-0.1 M8.15,29.75
	l6.3,3.6 M14.45,33.35L14.45,33.35l0.1,0.1 M14.55,33.45l-0.3-0.3l-0.3-0.3l-0.2-0.3l-0.2-0.4l-0.1-0.4l-0.1-0.4v-0.5v-0.4v-0.5
	l0.1-0.4 M13.45,29.55l1.3-4.2 M14.75,25.35l0.1-0.4l0.2-0.3l0.2-0.3l0.2-0.3l0.3-0.2l0.3-0.2l0.3-0.1l0.3-0.1l0.3,0.1h0.3l0.3,0.2
	 M17.55,23.75l25.5,14.7 M43.05,38.45l0.3,0.2l0.3,0.3l0.2,0.3l0.2,0.3l0.2,0.4l0.1,0.4l0.1,0.4v0.4v0.4l-0.1,0.5l-0.1,0.4
	 M43.05,46.65l1.2-4.2 M64.55,51.85l-0.1,0.4v0.4l-0.2,0.4l-0.1,0.4l-0.2,0.4l-0.3,0.4l-0.2,0.3l-0.3,0.3l-0.3,0.3l-0.3,0.2
	 M67.55,55.95l-5,2.9 M67.55,38.55v17.4 M62.55,29.85l0.4,0.3l0.5,0.4l0.5,0.4l0.5,0.5l0.4,0.5l0.4,0.5l0.4,0.6l0.4,0.6l0.3,0.6
	l0.3,0.6l0.3,0.6l0.2,0.7l0.2,0.6l0.1,0.6v0.6l0.1,0.6 M56.95,35.15l-0.3-0.1l-0.4-0.2l-0.4-0.1h-0.3l-0.3,0.1h-0.3l-0.3,0.2
	l-0.2,0.2l-0.2,0.2l-0.2,0.3l-0.1,0.4l-0.1,0.4v0.4v0.4l0.1,0.5l0.1,0.4l0.1,0.5l0.2,0.5l0.2,0.5l0.2,0.4l0.3,0.5l0.3,0.4l0.4,0.4
	l0.3,0.3l0.4,0.4l0.4,0.2l0.3,0.2l0.4,0.2l0.4,0.1l0.3,0.1h0.3l0.4-0.1l0.2-0.1l0.3-0.2l0.2-0.2l0.2-0.3l0.1-0.3l0.1-0.4l0.1-0.4
	v-0.4v-0.4l-0.1-0.5l-0.1-0.5l-0.2-0.5l-0.2-0.5l-0.2-0.4l-0.3-0.5l-0.3-0.4l-0.3-0.4l-0.4-0.4l-0.3-0.3l-0.4-0.3L56.95,35.15
	 M53.75,28.25l5.7,3.4 M64.55,51.85v-11.6 M64.55,40.25l-0.1-0.5v-0.6l-0.2-0.7l-0.1-0.6l-0.2-0.6l-0.3-0.7l-0.3-0.6l-0.3-0.6
	l-0.4-0.6l-0.4-0.6l-0.4-0.5l-0.4-0.5l-0.5-0.5l-0.5-0.4l-0.5-0.3l-0.5-0.3 M0.25,23.55v3.4 M8.85,0.55l-3,1.8 M39.25,46.65v3.5"/>
</svg>
