<?xml version="1.0" encoding="utf-8"?>
<!-- Generator: Adobe Illustrator 19.0.0, SVG Export Plug-In . SVG Version: 6.00 Build 0)  -->
<svg version="1.0" id="Layer_1" xmlns="http://www.w3.org/2000/svg" xmlns:xlink="http://www.w3.org/1999/xlink" x="0px" y="0px"
	 width="205.9px" height="142.4px" viewBox="0 0 205.9 142.4" enable-background="new 0 0 205.9 142.4" xml:space="preserve">
<path fill="none" stroke="#000000" stroke-width="0.25" stroke-linecap="round" stroke-linejoin="round" stroke-miterlimit="10" d="
	M7.45,49.25L7.45,49.25 M6.95,19.85l-0.1,0.7 M11.35,16.95l5.1-3.2 M9.45,52.35l0.4,0.2 M9.45,51.05v0.1 M163.45,139.95l-0.1,0.1
	 M163.45,141.25l0.3,0.2 M9.85,20.35l-0.4,0.8 M36.25,3.75l-19.4,12.2 M163.85,109.25l-0.4,0.7 M168.25,106.55l17.3-10.5
	 M165.45,140.35l-0.1,0.1 M166.05,141.75l0.6,0.3 M166.65,111.95l-0.7,0.5 M193.65,95.45l-5.7,3.5"/>
<path fill="none" stroke="#000000" stroke-width="0.5" stroke-linecap="round" stroke-linejoin="round" stroke-miterlimit="10" d="
	M9.85,52.65l-0.3-0.3 M37.85,0.35l-1.2,0.3l-1.1,0.5l-0.6,0.3 M0.25,32.25v-0.5v-1.7l0.1-1.6l0.3-1.5l0.4-1.4l0.5-1.3l0.6-1.1l0.8-1
	l0.9-0.9l0.9-0.7l1.1-0.5l1.2-0.4 M37.85,0.35l0.7-0.1l0.6,0.1l0.8,0.3l0.7,0.3 M7.05,19.65h1.3l1.5,0.6 M163.85,141.55l-154-88.9
	 M166.75,142.15h-1.4l-1.5-0.6 M9.85,20.25l154,88.9 M195.25,90.25L40.65,0.95 M163.85,109.15l1.5,1.2l1.4,1.5 M195.25,90.25
	l0.7,0.5l0.7,0.6l0.7,0.7l0.7,0.7 M163.45,139.95l1.1,0.4h0.9 M165.45,140.35l1.1-0.3l0.8-0.4 M5.55,22.65l-0.2,0.1l-0.9,0.7
	l-0.8,0.8l-0.7,1l-0.5,1.1l-0.5,1.2l-0.3,1.4l-0.2,1.5l-0.1,1.5l0.1,1.7l0.2,1.7l0.3,1.7l0.5,1.8l0.5,1.8l0.7,1.8l0.8,1.7l0.9,1.8
	l1.1,1.6l1,1.6 M7.45,49.15l1,1.1l1,0.8 M9.45,51.05l154,88.9 M165.35,140.45l1.1-0.4l1-0.5l0.9-0.6l0.8-0.9l0.7-1l0.6-1.1l0.5-1.2
	l0.3-1.4l0.2-1.5l0.1-1.5l-0.1-1.7l-0.2-1.7l-0.3-1.7l-0.5-1.8l-0.6-1.8l-0.7-1.7l-0.8-1.8l-0.9-1.7l-1-1.7l-1.1-1.6 M163.35,140.05
	l1.1,0.4h0.9 M9.35,51.15l154,88.9 M7.35,49.25l1,1.1l1,0.8 M7.35,21.95l-1,0.3l-1.1,0.5l-0.9,0.7l-0.8,0.9l-0.7,0.9l-0.5,1.2
	l-0.5,1.2l-0.3,1.4l-0.2,1.4l-0.1,1.6l0.1,1.6l0.2,1.7l0.3,1.8l0.5,1.7l0.5,1.8l0.7,1.8l0.8,1.8l0.9,1.7l1.1,1.7l1,1.6 M9.35,22.35
	l-1-0.4h-1 M163.35,111.25l-154-88.9 M165.35,113.15l-0.9-1.1l-1.1-0.8 M163.35,141.15l1.4,0.6h1.2 M165.95,112.55l-1.2-1.4
	l-1.4-1.1 M163.35,110.05l-154-88.9 M9.35,21.15l-1.3-0.5h-1.2 M6.85,20.65l-1.1,0.4l-1.1,0.5l-0.9,0.6l-0.9,0.9l-0.7,0.9l-0.6,1.1
	l-0.5,1.3l-0.4,1.3l-0.3,1.5l-0.1,1.5v1.6l0.1,1.7l0.3,1.8l0.4,1.8l0.5,1.8l0.6,1.8l0.7,1.8l0.9,1.8l0.9,1.8l1.1,1.7l1.1,1.6
	 M6.85,49.85l1.2,1.4l1.3,1 M9.35,52.25l154,88.9 M165.95,141.75l1.1-0.4l1-0.5l1-0.7l0.8-0.8l0.7-1l0.7-1.1l0.5-1.2l0.4-1.3
	l0.2-1.5l0.1-1.5v-1.7l-0.1-1.7l-0.2-1.7l-0.4-1.8l-0.5-1.8l-0.7-1.8l-0.7-1.8l-0.8-1.8l-1-1.8l-1-1.7l-1.1-1.6 M166.75,111.85
	l1.2,1.7l1,1.8l1,1.8l0.9,1.9l0.7,1.9l0.7,1.8l0.5,1.9l0.4,1.9l0.2,1.8l0.2,1.7v1.7l-0.2,1.6l-0.2,1.5l-0.4,1.4l-0.5,1.3l-0.7,1.1
	l-0.7,1l-0.9,0.9l-1,0.7l-1,0.5l-1.2,0.4 M200.35,124.75l1-0.6l0.9-0.7l0.8-0.9l0.7-1.1l0.6-1.2l0.5-1.3l0.4-1.4l0.2-1.5l0.2-1.6
	v-1.7l-0.2-1.8l-0.2-1.8l-0.4-1.8l-0.5-1.9l-0.6-1.9l-0.7-1.8l-0.8-1.9l-0.9-1.8l-1-1.8l-1.2-1.8l-1.1-1.7 M9.05,52.05l0.5,0.4
	 M0.25,32.25v0.5 M34.95,1.45l-30.3,19.2 M168.55,141.45l31.8-16.7"/>
</svg>
