<?xml version="1.0" encoding="utf-8"?>
<!-- Generator: Adobe Illustrator 19.0.0, SVG Export Plug-In . SVG Version: 6.00 Build 0)  -->
<svg version="1.0" id="Layer_1" xmlns="http://www.w3.org/2000/svg" xmlns:xlink="http://www.w3.org/1999/xlink" x="0px" y="0px"
	 width="109.8px" height="78.5px" viewBox="0 0 109.8 78.5" enable-background="new 0 0 109.8 78.5" xml:space="preserve">
<path fill="none" stroke="#000000" stroke-width="0.25" stroke-linecap="round" stroke-linejoin="round" stroke-miterlimit="10" d="
	M9.95,18.95L9.95,18.95 M42.55,37.75h-0.1 M75.05,56.55L75.05,56.55 M30.95,1.75l0.6-0.1 M65.95,20.75l-0.8-0.3 M96.15,39.35
	l0.5-0.1 M54.25,15.45L54.25,15.45h0.1 M54.15,17.35l-0.3-0.3 M54.15,15.55L54.15,15.55 M57.65,16.25L57.65,16.25 M58.55,16.75
	l5.5,3.2 M54.35,15.45h-0.1 M55.45,16.05l6.7,3.9 M63.15,20.55L63.15,20.55v0.1 M66.25,22.35v0.4 M64.95,20.45L64.95,20.45
	 M54.25,17.45v0.1 M54.35,17.25v0.1v0.1 M67.05,24.85l-11-6.4 M65.85,20.95l5.4,3.2 M63.35,20.55l0.8-0.1 M63.55,20.85l2.3,1.3
	 M72.25,24.65L72.25,24.65 M72.35,24.75l0.1,0.1l0.2,0.2l0.2,0.1 M67.85,23.25l3.6,2.1 M71.95,25.75h0.1 M72.15,25.85L72.15,25.85
	v-0.1 M54.25,17.15l-0.4-0.3l-0.1-0.5 M67.15,24.65l-11-6.3 M71.35,25.45l-3.7-2.2 M65.75,22.15l-2.3-1.3 M61.95,20.05l-6.7-3.9
	 M68.85,25.95v-0.1 M72.75,25.65L72.75,25.65l-0.5,0.2 M72.25,25.85h-0.1 M72.05,25.95L72.05,25.95 M71.95,25.95v-0.1v-0.1
	 M71.45,25.85l-0.4,0.1l-0.9,0.1l-0.6-0.1 M68.85,25.85v-0.1 M71.55,26.05l-0.4,0.1l-1,0.1l-0.7-0.2 M25.85,8.05v0.5 M29.05,6.35
	v-1.1 M28.95,4.95l-0.1-0.2 M22.65,9.45v0.3 M30.65,5.85h-0.1 M28.85,9.75v0.5 M32.05,8.05v-1.1 M31.95,6.75l-0.1-0.3 M25.65,11.15
	v0.3 M33.75,7.55l-0.2,0.1 M31.85,11.55v0.5 M35.05,9.85v-1.2 M34.95,8.45l-0.1-0.2 M28.65,12.95v0.3 M36.75,9.25l-0.2,0.1
	 M8.35,10.85l0.5-0.4l0.8-0.3l0.9-0.2l0.9-0.1 M9.35,16.75l-0.4-0.2l-1-0.4l-0.9-0.3 M34.85,13.25v0.5 M38.05,11.55v-1.1
	 M38.05,10.15l-0.2-0.2 M31.65,14.65v0.3 M39.75,11.05l-0.2,0.1 M37.85,14.95v0.5 M41.05,13.25v-1.1 M41.05,11.95l-0.2-0.3
	 M34.65,16.35v0.4 M42.75,12.75l-0.2,0.1 M40.85,16.75v0.5 M44.05,15.05v-1.2 M44.05,13.65l-0.2-0.2 M53.55,16.85l-0.1-0.4
	 M37.65,18.15v0.3 M45.75,14.45l-0.2,0.1 M43.85,18.45v0.5 M47.05,16.75v-1.1 M47.05,15.35l-0.2-0.2 M40.65,19.85v0.3 M48.75,16.25
	l-0.2,0.1 M46.85,20.15v0.6 M50.05,18.55v-1.2 M50.05,17.15l-0.2-0.3 M43.65,21.55v0.4 M51.75,17.95l-0.2,0.1 M49.85,21.95v0.5
	 M53.05,20.25v-1.1 M53.05,18.85l-0.2-0.2 M46.65,23.35v0.3 M54.75,19.65l-0.2,0.1 M52.85,23.65v0.5 M56.05,21.95v-1.1 M56.05,20.65
	l-0.2-0.3 M49.65,25.05v0.3 M57.75,21.45l-0.2,0.1 M55.85,25.35v0.6 M59.05,23.75v-1.2 M59.05,22.35l-0.1-0.2 M54.15,17.45
	L54.15,17.45 M52.65,26.75v0.4 M60.75,23.15l-0.1,0.1 M68.65,25.85L68.65,25.85 M58.85,27.15v0.5 M62.05,25.45v-1.1 M62.05,24.05
	l-0.1-0.2 M55.65,28.55v0.3 M63.75,24.85l-0.1,0.1 M61.85,28.85v0.5 M65.05,27.15v-1.1 M65.05,25.85l-0.1-0.3 M58.65,30.25v0.3
	 M66.75,26.65l-0.1,0.1 M64.85,30.65v0.5 M68.15,28.95v-1.2 M68.05,27.55l-0.1-0.2 M61.65,32.05v0.3 M69.75,28.35l-0.1,0.1
	 M67.95,32.35v0.5 M71.15,30.65v-1.1 M71.05,29.25l-0.1-0.2 M64.65,33.75v0.3 M72.75,30.15h-0.1 M70.95,34.05v0.5 M74.15,32.35v-1.1
	 M74.05,31.05l-0.1-0.3 M67.75,35.45v0.3 M75.75,31.85l-0.1,0.1 M73.95,35.85v0.5 M77.15,34.15v-1.2 M77.05,32.75l-0.1-0.2
	 M70.75,37.25v0.3 M78.85,33.55l-0.2,0.1 M76.95,37.55v0.5 M80.15,35.85v-1.1 M80.05,34.45l-0.1-0.2 M9.85,39.25L9.85,39.25
	 M73.75,38.95v0.3 M81.85,35.35l-0.2,0.1 M10.05,37.55l-0.2,0.1 M79.95,39.25v0.5 M83.15,37.55v-1.1 M83.15,36.25l-0.2-0.3
	 M76.75,40.65v0.4 M84.85,37.05l-0.2,0.1 M82.95,41.05v0.5 M86.15,39.35v-1.2 M86.15,37.95l-0.2-0.2 M79.75,42.45v0.3 M87.85,38.75
	l-0.2,0.1 M85.95,42.75v0.5 M89.15,41.05v-1.1 M89.15,39.65l-0.2-0.2 M82.75,44.15v0.3 M90.85,40.55l-0.2,0.1 M28.65,2.95l-1.7,1
	l-1.7,1.2l-1.8,1.1l-1.7,1.2 M55.85,18.45l11,6.4 M53.65,15.65l-0.3,0.3v0.6 M9.95,17.05h-0.1v0.1 M15.65,12.15l-0.7,0.6l-0.9,0.7
	l-0.8,0.7l-0.8,0.7l-0.9,0.7 M17.95,21.65l49.2,28.4 M73.75,44.35l-49.2-28.4 M74.95,75.25l0.2-0.1 M83.45,47.65l1.7-1.3l1.7-1.3
	l1.8-1.2l1.7-1.1 M66.95,50.25l-49.1-28.4 M0.35,22.55v-0.4l0.1-1l0.2-1l0.3-0.9l0.3-0.8l0.5-0.7l0.6-0.6l0.6-0.5 M9.55,39.05
	l-0.7-0.4 M17.85,43.85l49.1,28.4 M74.95,54.85L74.95,54.85v-0.1h0.1v-0.1 M84.05,74.35l-0.2,0.5l-0.3,0.8l-0.5,0.7l-0.6,0.6
	l-0.6,0.4l-0.7,0.4 M74.95,54.85l0.2,0.1 M75.05,76.95h-0.1 M85.15,51.65l0.8,0.7l0.9,1l0.9,1.2l0.9,1.2l0.8,1.3l0.8,1.3l0.6,1.4
	l0.6,1.3l0.5,1.4l0.4,1.4l0.3,1.3l0.2,1.4l0.1,1.2v1.3l-0.1,1.1 M75.95,53.85l0.8-0.7l0.8-0.7l0.8-0.7l0.9-0.7l0.8-0.7 M84.45,73.85
	l0.2-0.9l0.1-1v-1.2l-0.1-1.1l-0.2-1.3l-0.3-1.2l-0.4-1.3l-0.5-1.2l-0.5-1.3l-0.7-1.2l-0.7-1.2l-0.8-1.1"/>
<path fill="none" stroke="#000000" stroke-width="0.5" stroke-linecap="round" stroke-linejoin="round" stroke-miterlimit="10" d="
	M5.15,17.85l-0.3,0.2 M81.25,75.25L81.25,75.25l0.4-0.2 M42.45,37.75l32.6,18.8 M42.45,37.75l-32.5-18.8 M1.95,23.55v-1l0.2-0.9
	l0.2-0.9l0.4-0.7l0.4-0.7l0.5-0.6l0.6-0.4l0.7-0.3l0.7-0.2h0.8l0.8,0.1l0.9,0.2l0.9,0.3l0.9,0.5 M9.95,37.45l-0.9-0.6l-0.9-0.7
	l-0.9-0.8l-0.8-0.8l-0.8-1l-0.7-1l-0.7-1.1l-0.6-1.1l-0.5-1.2l-0.4-1.1l-0.4-1.2l-0.2-1.1l-0.2-1.1v-1.1 M42.45,56.25l-32.5-18.8
	 M42.45,56.25l32.6,18.8 M83.05,70.45v1l-0.2,0.9l-0.2,0.9l-0.4,0.7l-0.4,0.7l-0.5,0.5l-0.6,0.5l-0.7,0.3l-0.7,0.1l-0.8,0.1
	l-0.8-0.1l-0.9-0.2l-0.9-0.3l-0.9-0.5 M83.05,69.45v1 M75.05,56.55l0.8,0.5 M27.25,0.45l0.6-0.1l0.6-0.1h0.4l0.4,0.1 M28.75,0.95
	l0.1-0.1h0.1 M23.85,3.95l2.7-1.7l2.2-1.3 M28.75,0.95l-1.5-0.5 M27.25,0.45l-2,1.1l-1.6,1 M23.65,2.55l-1-0.2l-1.1-0.1l-0.9,0.1
	l-1,0.1l-0.9,0.3l-0.8,0.5h-0.1 M16.15,4.45l0.1-0.1l0.8-0.5l0.8-0.3l0.9-0.3l0.9-0.1h1l1,0.2l1.1,0.2l1.1,0.4 M28.95,0.85l1.8,0.9
	 M28.95,0.85v0.4 M54.25,15.55v-0.2 M54.25,15.35l-23.5-13.6 M57.85,16.25l-0.8-0.4l-0.4-0.1l-0.6-0.2l-0.2-0.1l-0.8-0.1h-0.8
	 M72.35,24.65l-0.1-0.1 M72.35,25.85l0.5-0.2l0.2-0.3v-0.2l-0.2-0.1l-0.2-0.2l-0.3-0.2 M95.85,39.35l1.6,1.1l1.6,1.3l1.6,1.5
	l1.5,1.7l1.3,1.8l1.2,1.9l1.1,2.1l0.9,2.1l0.7,2.1l0.6,2.1l0.3,2l0.1,2l-0.1,1.8l-0.3,1.6l-0.6,1.5l-0.7,1.3l-0.9,1l-0.3,0.3
	 M95.85,39.35l-23.5-13.5 M72.35,25.85v0.2 M53.65,16.35v-0.1l0.1-0.3l0.3-0.3 M53.55,16.55l0.1-0.1 M54.05,15.65v-0.1h0.1
	 M54.35,15.45h0.7l0.9,0.1l0.5,0.1l0.4,0.2l0.4,0.2l0.4,0.2 M66.15,22.45v-0.1h0.1 M66.25,22.35L66.25,22.35 M67.25,22.85h0.2v-0.1
	v-0.1l-0.2-0.1l-0.2-0.1l-0.1-0.1h-0.2l-0.2-0.1l-0.3,0.1 M67.25,22.95v-0.1 M67.25,22.95h-0.1h-0.1 M66.15,22.45l-0.1,0.1v0.1
	l0.1,0.1l0.1,0.1h0.1l0.3,0.1h0.2h0.2 M72.95,25.45L72.95,25.45 M29.05,6.55l0.1-0.1l0.2-0.1h0.3h0.2 M29.05,5.05l0.1-0.1l0.2-0.1
	h0.4h0.4l0.4,0.1l0.2,0.2l0.1,0.3l-0.1,0.2l-0.1,0.1l-0.1,0.2 M25.65,8.75l0.2-0.1 M32.05,8.25l0.2-0.1h0.2l0.2-0.1h0.2 M32.05,6.75
	l0.2-0.1h0.1l0.4-0.1h0.4l0.4,0.2l0.2,0.2l0.1,0.2l-0.1,0.3l-0.1,0.1l-0.1,0.1 M29.05,6.55l-0.4,0.2l-0.4,0.3l-0.3,0.2l-0.4,0.2
	l-0.4,0.3l-0.3,0.2l-0.4,0.3l-0.4,0.2 M25.85,8.65l0.2-0.2 M22.65,9.35l0.8-0.5l0.8-0.6l0.8-0.6l0.8-0.5l0.8-0.6l0.8-0.5l0.8-0.5
	l0.8-0.5 M28.75,10.45l0.1-0.1 M35.05,10.05l0.2-0.1l0.2-0.1h0.2h0.2 M22.65,9.85l3.2-1.9 M25.85,7.95l-0.3,0.2l-0.1,0.2l0.1,0.3
	l0.3,0.2l0.1,0.1 M35.05,8.55l0.2-0.1l0.2-0.1l0.3-0.1l0.4,0.1l0.4,0.1l0.2,0.2l0.1,0.3l-0.1,0.2l-0.1,0.1l-0.1,0.1 M22.35,10.15
	v-0.1l0.3-0.2 M30.55,5.95l-0.8,0.5l-0.8,0.5l-0.8,0.5l-0.8,0.6l-0.8,0.5l-0.8,0.6l-0.8,0.5l-0.8,0.6 M22.35,9.05l0.3,0.3
	 M22.55,10.35l-0.2-0.1v-0.2l-0.1-0.1l0.1-0.3l0.1-0.1l0.2-0.2 M32.05,8.25l-0.4,0.3l-0.4,0.2l-0.4,0.3l-0.4,0.3l-0.4,0.2l-0.4,0.3
	l-0.4,0.3l-0.4,0.2 M30.45,1.85h-0.2l-0.1-0.1l-0.1-0.1h-0.1l-0.1-0.1l-0.1-0.1h-0.2l-0.1-0.1 M28.05,1.45l0.3-0.1l0.2-0.1h0.2h0.1
	h0.3l0.3,0.1 M28.05,1.45l-1.1,0.7l-0.9,0.5 M21.25,3.45l0.6,0.1h0.5h0.7l0.6-0.1l1.3-0.3l0.6-0.2l0.5-0.3 M21.25,3.45l-1.7-0.1
	l-1.6,0.3l-1.5,0.6l-0.2,0.2 M25.65,11.15l0.8-0.6l0.8-0.6l0.8-0.5l0.8-0.6l0.8-0.5l0.8-0.5l0.8-0.6l0.8-0.5 M31.75,12.25l0.1-0.1
	 M38.05,11.75l0.2-0.1l0.2-0.1h0.2h0.2 M28.85,9.65l-0.3,0.2v0.3v0.2l0.3,0.2l0.1,0.1 M25.65,11.55l3.2-1.9 M38.05,10.25l0.2-0.1
	l0.2-0.1h0.3h0.4l0.4,0.2l0.2,0.2l0.1,0.2l-0.1,0.2l-0.1,0.1l-0.1,0.2 M25.35,11.85v-0.1l0.3-0.2 M33.55,7.65l-0.8,0.5l-0.8,0.5
	l-0.8,0.5l-0.8,0.6l-0.8,0.5l-0.8,0.6l-0.8,0.6l-0.8,0.5 M25.35,10.75l0.3,0.4 M25.55,12.15l-0.2-0.2v-0.1l-0.1-0.2l0.1-0.3l0.1-0.1
	l0.2-0.1 M35.05,10.05l-0.4,0.2l-0.4,0.3l-0.4,0.2l-0.4,0.3l-0.4,0.3l-0.4,0.2l-0.4,0.3l-0.4,0.3 M28.65,12.85l0.8-0.6l0.8-0.5
	l0.8-0.6l0.8-0.5l0.8-0.6l0.8-0.5l0.8-0.5l0.8-0.5 M34.75,13.95l0.1-0.1 M41.05,13.45l0.2-0.1h0.2l0.2-0.1h0.2 M31.85,11.45
	l-0.3,0.2v0.2v0.2l0.3,0.2l0.2,0.1 M28.65,13.25l3.2-1.8 M41.05,11.95l0.2-0.1h0.2l0.3-0.1l0.5,0.1l0.3,0.1l0.2,0.2l0.1,0.2
	l-0.1,0.3l-0.1,0.1l-0.1,0.1 M28.35,13.55v-0.1l0.3-0.2 M36.55,9.35l-0.8,0.5l-0.8,0.6l-0.8,0.5l-0.8,0.5l-0.8,0.6l-0.8,0.5
	l-0.8,0.6l-0.8,0.6 M28.35,12.55l0.3,0.3 M28.55,13.85l-0.2-0.2v-0.1v-0.2v-0.2l0.1-0.1l0.2-0.2 M6.05,36.05l0.1,0.2l0.9,0.9
	l0.9,0.8l1,0.8l1,0.6 M5.05,15.75l-0.6,0.1l-0.8,0.2l-0.7,0.4l-0.7,0.5l-0.5,0.6l-0.5,0.7l-0.4,0.8l-0.3,0.9l-0.2,1l-0.1,1.1v1.1
	l0.1,1.2l0.2,1.2l0.3,1.3l0.3,0.8 M38.05,11.75l-0.4,0.3l-0.4,0.2l-0.4,0.3l-0.4,0.2l-0.4,0.3l-0.4,0.3l-0.4,0.2l-0.4,0.3
	 M31.65,14.55l0.8-0.5l0.8-0.6l0.8-0.6l0.8-0.5l0.8-0.5l0.8-0.6l0.8-0.5l0.8-0.5 M37.75,15.65l0.1-0.1 M44.05,15.25l0.2-0.1l0.2-0.1
	h0.2h0.2 M34.85,13.15l-0.2,0.2l-0.1,0.3l0.1,0.2l0.2,0.2l0.2,0.1 M31.65,15.05l3.2-1.9 M44.05,13.75l0.2-0.1l0.2-0.1h0.4h0.4
	l0.3,0.1l0.2,0.2l0.1,0.3l-0.1,0.2l-0.1,0.1l-0.1,0.1 M31.35,15.35v-0.1l0.3-0.2 M39.55,11.15l-0.8,0.5l-0.8,0.5l-0.8,0.5l-0.8,0.6
	l-0.8,0.5l-0.8,0.6l-0.8,0.5l-0.8,0.6 M31.35,14.25l0.3,0.3 M31.55,15.55l-0.2-0.1v-0.2v-0.1v-0.3l0.1-0.1l0.2-0.2 M41.05,13.45
	l-0.4,0.3l-0.4,0.2l-0.4,0.3l-0.4,0.3l-0.4,0.2l-0.4,0.3l-0.4,0.3l-0.4,0.2 M34.65,16.35l0.8-0.6l0.8-0.6l0.8-0.5l0.8-0.6l0.8-0.5
	l0.8-0.5l0.8-0.6l0.8-0.5 M40.75,17.45l0.1-0.1 M47.05,16.95l0.2-0.1l0.2-0.1h0.2h0.2h0.1 M37.85,14.95l-0.2,0.2l-0.1,0.2l0.1,0.2
	l0.2,0.2l0.2,0.1 M34.65,16.75l3.2-1.8 M47.05,15.45l0.2-0.1l0.2-0.1h0.4h0.4l0.3,0.2l0.2,0.2l0.1,0.2v0.2l-0.1,0.2l-0.2,0.1
	 M34.35,17.05v-0.1l0.3-0.2 M42.55,12.85l-0.8,0.5l-0.8,0.5l-0.8,0.6l-0.8,0.5l-0.8,0.5l-0.8,0.6l-0.8,0.6l-0.8,0.5 M34.45,15.95
	l0.2,0.4 M34.65,17.35l-0.2-0.2l-0.1-0.1v-0.2v-0.3l0.1-0.1l0.2-0.1 M44.05,15.25l-0.4,0.2l-0.4,0.3l-0.4,0.2l-0.4,0.3l-0.4,0.3
	l-0.4,0.2l-0.4,0.3l-0.4,0.3 M37.65,18.05l0.8-0.6l0.8-0.5l0.8-0.6l0.8-0.5l0.8-0.6l0.8-0.5l0.8-0.5l0.8-0.5 M53.55,16.85
	L53.55,16.85v-0.2 M53.95,15.55v0.2 M53.95,15.55L53.95,15.55v-0.1h-0.1 M43.75,19.15l0.1-0.1 M50.05,18.65l0.2-0.1h0.2l0.2-0.1h0.2
	h0.1 M40.85,16.65l-0.2,0.2l-0.1,0.2l0.1,0.3l0.2,0.2h0.2 M37.65,18.45l3.2-1.8 M50.05,17.15l0.2-0.1h0.2l0.4-0.1l0.4,0.1l0.3,0.1
	l0.2,0.2l0.1,0.2v0.3l-0.1,0.1l-0.2,0.1 M37.35,18.75l0.1-0.1l0.2-0.2 M45.55,14.55l-0.8,0.5l-0.8,0.6l-0.8,0.5l-0.8,0.5l-0.8,0.6
	l-0.8,0.5l-0.8,0.6l-0.8,0.6 M37.45,17.75l0.2,0.3 M37.65,19.05l-0.2-0.2l-0.1-0.1v-0.1l0.1-0.3v-0.1l0.2-0.2 M47.05,16.95l-0.4,0.3
	l-0.4,0.2l-0.4,0.3l-0.4,0.2l-0.4,0.3l-0.4,0.3l-0.4,0.2l-0.4,0.3 M40.65,19.75l0.8-0.5l0.8-0.6l0.8-0.6l0.8-0.5l0.8-0.5l0.8-0.6
	l0.8-0.5l0.8-0.5 M46.75,20.85l0.1-0.1 M53.05,20.45l0.2-0.1l0.2-0.1h0.2h0.2h0.1 M43.85,18.35l-0.2,0.2l-0.1,0.3l0.1,0.2l0.2,0.2
	l0.2,0.1 M40.65,20.25l3.2-1.9 M53.05,18.95l0.2-0.1l0.2-0.1h0.4h0.4l0.3,0.1l0.3,0.2v0.3v0.2l-0.1,0.1l-0.2,0.1 M40.35,20.55
	l0.1-0.1l0.2-0.2 M48.55,16.35l-0.8,0.5l-0.8,0.5l-0.8,0.5l-0.8,0.6l-0.8,0.5l-0.8,0.6l-0.8,0.5l-0.8,0.6 M40.45,19.45l0.2,0.3
	 M40.65,20.75l-0.2-0.1l-0.1-0.2v-0.1l0.1-0.3v-0.1l0.2-0.2 M50.05,18.65l-0.4,0.3l-0.4,0.3l-0.4,0.2l-0.4,0.3l-0.4,0.2l-0.4,0.3
	l-0.4,0.3l-0.4,0.2 M43.65,21.55l0.8-0.6l0.8-0.6l0.8-0.5l0.8-0.6l0.8-0.5l0.8-0.5l0.8-0.6l0.8-0.5 M49.75,22.65l0.1-0.1
	 M56.05,22.15l0.2-0.1h0.2l0.2-0.1h0.2h0.1 M46.85,20.15l-0.2,0.2l-0.1,0.2l0.1,0.2l0.2,0.2l0.2,0.1 M43.65,21.95l3.2-1.8
	 M56.05,20.65l0.2-0.1l0.2-0.1h0.4h0.4l0.3,0.2l0.3,0.2v0.2v0.2l-0.1,0.2l-0.2,0.1 M43.35,22.25l0.1-0.1l0.2-0.2 M51.55,18.05
	l-0.8,0.5l-0.8,0.5l-0.8,0.6l-0.8,0.5l-0.8,0.5l-0.8,0.6l-0.8,0.6l-0.8,0.6 M43.45,21.25l0.2,0.3 M43.65,22.55l-0.2-0.2l-0.1-0.1
	v-0.2l0.1-0.3v-0.1l0.2-0.1 M53.05,20.45l-0.4,0.2l-0.4,0.3l-0.4,0.2l-0.4,0.3l-0.4,0.3l-0.4,0.2l-0.4,0.3l-0.4,0.3 M46.65,23.25
	l0.8-0.6l0.8-0.5l0.8-0.6l0.8-0.5l0.8-0.6l0.8-0.5l0.8-0.5l0.8-0.5 M52.75,24.35l0.1-0.1 M59.05,23.85h0.2l0.2-0.1h0.2l0.2-0.1h0.1
	 M49.85,21.85l-0.2,0.2l-0.1,0.2l0.1,0.3l0.2,0.2h0.2 M46.65,23.65l3.2-1.8 M59.05,22.35l0.2-0.1h0.2l0.4-0.1l0.4,0.1l0.3,0.1
	l0.3,0.2v0.2v0.3l-0.1,0.1l-0.2,0.1 M46.35,23.95l0.1-0.1l0.2-0.2 M54.55,19.75l-0.8,0.5l-0.8,0.6l-0.8,0.5l-0.8,0.5l-0.8,0.6
	l-0.8,0.5l-0.8,0.6l-0.8,0.6 M46.45,22.95l0.2,0.3 M46.65,24.25l-0.2-0.2l-0.1-0.1v-0.1l0.1-0.3v-0.1l0.2-0.2 M56.05,22.15l-0.4,0.3
	l-0.4,0.2l-0.4,0.3l-0.4,0.2l-0.4,0.3l-0.4,0.3l-0.4,0.2l-0.4,0.3 M49.65,25.05l0.8-0.6l0.8-0.6l0.8-0.5l0.8-0.6l0.8-0.5l0.8-0.6
	l0.8-0.5l0.8-0.5 M55.75,26.05l0.1-0.1 M62.05,25.65l0.2-0.1l0.2-0.1h0.2h0.2h0.1 M52.85,23.55l-0.2,0.2l-0.1,0.3l0.1,0.2l0.2,0.2
	l0.2,0.1 M49.65,25.45l3.2-1.9 M62.05,24.15l0.2-0.1l0.2-0.1h0.4h0.4l0.3,0.1l0.3,0.2l0.1,0.3l-0.1,0.2l-0.1,0.1l-0.2,0.1
	 M49.35,25.75l0.1-0.1l0.2-0.2 M57.55,21.55l-0.8,0.5l-0.8,0.5l-0.8,0.5l-0.8,0.6l-0.8,0.5l-0.8,0.6l-0.8,0.5l-0.8,0.6 M49.45,24.65
	l0.2,0.4 M49.65,25.95l-0.2-0.1l-0.1-0.2v-0.1l0.1-0.3v-0.1l0.2-0.1 M59.05,23.85l-0.4,0.3l-0.4,0.3l-0.4,0.2l-0.4,0.3l-0.4,0.2
	l-0.4,0.3l-0.4,0.3l-0.4,0.2 M52.65,26.75l0.8-0.6l0.8-0.6l0.8-0.5l0.8-0.6l0.8-0.5l0.8-0.5l0.8-0.5l0.8-0.6 M58.75,27.85l0.1-0.1
	 M65.05,27.35l0.2-0.1h0.2l0.2-0.1h0.3 M55.85,25.35l-0.2,0.2l-0.1,0.2l0.1,0.2l0.2,0.2l0.2,0.1 M52.65,27.15l3.2-1.8 M65.05,25.85
	l0.2-0.1h0.2l0.4-0.1h0.4l0.4,0.2l0.2,0.2l0.1,0.2l-0.1,0.2l-0.1,0.2l-0.1,0.1 M52.35,27.45l0.1-0.1l0.2-0.2 M60.55,23.25l-0.8,0.5
	l-0.8,0.5l-0.8,0.6l-0.8,0.5l-0.8,0.6l-0.8,0.5l-0.8,0.6l-0.8,0.6 M72.15,25.95h-0.1 M52.45,26.45l0.2,0.3 M52.65,27.75l-0.2-0.2
	l-0.1-0.1v-0.2l0.1-0.3h0.1l0.1-0.2 M62.05,25.65l-0.4,0.2l-0.4,0.3l-0.4,0.3l-0.4,0.2l-0.4,0.3l-0.4,0.2l-0.4,0.3l-0.4,0.3
	 M55.65,28.45l0.8-0.6l0.8-0.5l0.8-0.6l0.8-0.5l0.8-0.6l0.8-0.5l0.8-0.5l0.8-0.5 M61.75,29.55l0.1-0.1 M68.15,29.15l0.1-0.1l0.2-0.1
	h0.2l0.3-0.1v0.1 M58.85,27.05l-0.2,0.2l-0.1,0.2l0.1,0.3l0.2,0.2l0.2,0.1 M55.65,28.95l3.2-1.9 M68.15,27.55h0.1l0.2-0.1l0.4-0.1
	l0.4,0.1l0.4,0.1l0.2,0.2l0.1,0.3l-0.1,0.2l-0.1,0.1l-0.1,0.1 M55.35,29.25l0.1-0.1l0.2-0.2 M63.55,24.95l-0.8,0.6l-0.8,0.5
	l-0.8,0.5l-0.8,0.5l-0.8,0.6l-0.8,0.6l-0.8,0.5l-0.8,0.6 M55.45,28.15l0.2,0.3 M55.65,29.45l-0.2-0.2l-0.1-0.1v-0.1l0.1-0.3l0.1-0.1
	l0.1-0.2 M65.05,27.35l-0.4,0.3l-0.4,0.2l-0.4,0.3l-0.4,0.2l-0.4,0.3l-0.4,0.3l-0.4,0.2l-0.4,0.3 M58.65,30.25l0.8-0.6l0.8-0.6
	l0.8-0.5l0.8-0.6l0.8-0.5l0.8-0.6l0.8-0.5l0.8-0.5 M64.75,31.25h0.1 M71.15,30.85l0.1-0.1l0.2-0.1h0.3h0.2 M61.85,28.75l-0.2,0.2
	l-0.1,0.3l0.1,0.2l0.2,0.2l0.2,0.1 M58.65,30.65l3.2-1.9 M71.15,29.35l0.1-0.1l0.2-0.1h0.4h0.4l0.4,0.1l0.2,0.2l0.1,0.3l-0.1,0.2
	l-0.1,0.1l-0.1,0.2 M58.35,30.95l0.1-0.1l0.2-0.2 M66.65,26.75l-0.9,0.5l-0.8,0.5l-0.8,0.5l-0.8,0.6l-0.8,0.5l-0.8,0.6l-0.8,0.6
	l-0.8,0.5 M58.45,29.85l0.2,0.4 M58.65,31.25l-0.2-0.2l-0.1-0.2v-0.1l0.1-0.3l0.1-0.1l0.1-0.1 M68.15,29.15l-0.4,0.2l-0.4,0.3
	l-0.4,0.2l-0.5,0.3l-0.4,0.2l-0.4,0.3l-0.4,0.3l-0.4,0.3 M61.65,31.95l0.8-0.6l0.8-0.5l0.8-0.6l0.8-0.6l0.8-0.5l0.8-0.5l0.8-0.5
	l0.9-0.6 M67.75,33.05l0.2-0.1 M74.15,32.55l0.1-0.1h0.2l0.3-0.1h0.2 M64.85,30.55l-0.2,0.2l-0.1,0.2l0.1,0.2l0.2,0.2l0.2,0.1
	 M61.65,32.35l3.2-1.8 M74.15,31.05l0.1-0.1h0.2l0.4-0.1h0.4l0.4,0.2l0.2,0.2l0.1,0.2l-0.1,0.3l-0.1,0.1l-0.1,0.1 M61.45,32.65v-0.1
	l0.2-0.2 M69.65,28.45l-0.8,0.5l-0.9,0.5l-0.8,0.6l-0.8,0.5l-0.8,0.6l-0.8,0.5l-0.8,0.6l-0.8,0.6 M61.45,31.65l0.2,0.3 M61.65,32.95
	l-0.2-0.2v-0.1l-0.1-0.2l0.1-0.2l0.1-0.1l0.1-0.2 M71.15,30.85l-0.4,0.2l-0.4,0.3l-0.4,0.3l-0.4,0.2l-0.4,0.3l-0.4,0.2l-0.4,0.3
	l-0.4,0.3 M64.65,33.65l0.8-0.5l0.8-0.6l0.8-0.6l0.8-0.5l0.8-0.6l0.9-0.5l0.8-0.5l0.8-0.5 M70.85,34.75l0.1-0.1 M77.15,34.35
	l0.2-0.1l0.2-0.1h0.2h0.2 M67.95,32.25l-0.3,0.2l-0.1,0.2l0.1,0.3l0.3,0.2l0.1,0.1 M64.65,34.15l3.3-1.9 M77.15,32.85l0.2-0.1
	l0.1-0.1l0.4-0.1l0.4,0.1l0.4,0.1l0.2,0.2l0.1,0.3l-0.1,0.2l-0.1,0.1l-0.1,0.1 M64.45,34.45v-0.1l0.2-0.2 M72.65,30.25l-0.8,0.5
	l-0.8,0.5l-0.8,0.5l-0.8,0.6l-0.9,0.5l-0.8,0.6l-0.8,0.5l-0.8,0.6 M64.45,33.35l0.2,0.3 M64.65,34.65l-0.2-0.1v-0.2l-0.1-0.1
	l0.1-0.3l0.1-0.1l0.1-0.2 M74.15,32.55l-0.4,0.3l-0.4,0.2l-0.4,0.3l-0.4,0.3l-0.4,0.2l-0.4,0.3l-0.4,0.3l-0.4,0.2 M67.75,35.45
	l0.8-0.6l0.8-0.6l0.8-0.5l0.8-0.6l0.8-0.5l0.8-0.5l0.8-0.6l0.8-0.5 M73.85,36.55l0.1-0.1 M80.15,36.05l0.2-0.1l0.2-0.1h0.2h0.2
	 M70.95,33.95l-0.3,0.2l-0.1,0.3l0.1,0.2l0.3,0.2l0.1,0.1 M67.75,35.85l3.2-1.9 M80.15,34.55l0.2-0.1l0.2-0.1h0.3h0.4l0.4,0.2
	l0.2,0.2l0.1,0.2l-0.1,0.2l-0.1,0.1l-0.1,0.2 M67.45,36.15v-0.1l0.3-0.2 M75.65,31.95l-0.8,0.5l-0.8,0.5l-0.8,0.5l-0.8,0.6l-0.8,0.5
	l-0.8,0.6l-0.8,0.6l-0.8,0.5 M67.45,35.05l0.3,0.4 M67.65,36.45l-0.2-0.2v-0.1l-0.1-0.2l0.1-0.3l0.1-0.1l0.2-0.1 M77.15,34.35
	l-0.4,0.2l-0.4,0.3l-0.4,0.2l-0.4,0.3l-0.4,0.3l-0.4,0.2l-0.4,0.3l-0.4,0.3 M70.75,37.15l0.8-0.6l0.8-0.5l0.8-0.6l0.8-0.5l0.8-0.6
	l0.8-0.5l0.8-0.5l0.8-0.5 M76.85,38.25l0.1-0.1 M83.15,37.75l0.2-0.1h0.2l0.2-0.1h0.2 M73.95,35.75l-0.3,0.2v0.2v0.2l0.3,0.2
	l0.1,0.1 M70.75,37.55l3.2-1.8 M83.15,36.25l0.2-0.1h0.2l0.3-0.1l0.4,0.1l0.4,0.1l0.2,0.2l0.1,0.2l-0.1,0.3l-0.1,0.1l-0.1,0.1
	 M70.45,37.85v-0.1l0.3-0.2 M78.65,33.65l-0.8,0.5l-0.8,0.6l-0.8,0.5l-0.8,0.5l-0.8,0.6l-0.8,0.5l-0.8,0.6l-0.8,0.6 M70.45,36.85
	l0.3,0.3 M70.65,38.15l-0.2-0.2v-0.1l-0.1-0.2l0.1-0.2l0.1-0.1l0.2-0.2 M80.15,36.05l-0.4,0.3l-0.4,0.2l-0.4,0.3l-0.4,0.2l-0.4,0.3
	l-0.4,0.3l-0.4,0.2l-0.4,0.3 M73.75,38.85l0.8-0.5l0.8-0.6l0.8-0.6l0.8-0.5l0.8-0.5l0.8-0.6l0.8-0.5l0.8-0.5 M79.85,39.95l0.1-0.1
	 M86.15,39.55l0.2-0.1l0.2-0.1h0.2h0.2 M76.95,37.45l-0.3,0.2v0.3v0.2l0.3,0.2l0.2,0.1 M73.75,39.35l3.2-1.9 M86.15,38.05l0.2-0.1
	l0.2-0.1h0.3h0.5l0.3,0.1l0.2,0.2l0.1,0.3l-0.1,0.2l-0.1,0.1l-0.1,0.1 M73.45,39.65v-0.1l0.3-0.2 M81.65,35.45l-0.8,0.5l-0.8,0.5
	l-0.8,0.5l-0.8,0.6l-0.8,0.5l-0.8,0.6l-0.8,0.5l-0.8,0.6 M73.45,38.55l0.3,0.3 M73.65,39.85l-0.2-0.1v-0.2v-0.1v-0.3l0.1-0.1
	l0.2-0.2 M83.15,37.75l-0.4,0.3l-0.4,0.2l-0.4,0.3l-0.4,0.3l-0.4,0.2l-0.4,0.3l-0.4,0.3l-0.4,0.2 M76.75,40.65l0.8-0.6l0.8-0.6
	l0.8-0.5l0.8-0.6l0.8-0.5l0.8-0.5l0.8-0.6l0.8-0.5 M82.85,41.65l0.1-0.1 M89.15,41.25l0.2-0.1l0.2-0.1h0.2h0.2 M79.95,39.25
	l-0.3,0.2v0.2v0.2l0.3,0.2l0.2,0.1 M76.75,41.05l3.2-1.8 M89.15,39.75l0.2-0.1l0.2-0.1h0.4h0.4l0.3,0.2l0.2,0.2l0.1,0.2l-0.1,0.2
	l-0.1,0.2l-0.1,0.1 M76.45,41.35v-0.1l0.3-0.2 M84.65,37.15l-0.8,0.5l-0.8,0.5l-0.8,0.6l-0.8,0.5l-0.8,0.5l-0.8,0.6l-0.8,0.6
	l-0.8,0.5 M76.45,40.25l0.3,0.4 M76.65,41.65l-0.2-0.2v-0.1v-0.2v-0.3l0.1-0.1l0.2-0.1 M86.15,39.55l-0.4,0.2l-0.3,0.2l-0.4,0.3
	l-0.4,0.2l-0.3,0.2l-0.4,0.3l-0.4,0.2l-0.3,0.3 M82.95,41.55l0.3-0.1 M79.75,42.35l0.8-0.6l0.8-0.5l0.8-0.6l0.8-0.5l0.8-0.6l0.8-0.5
	l0.8-0.5l0.8-0.5 M85.85,43.45l0.1-0.1 M82.95,40.95l-0.2,0.2l-0.1,0.2l0.1,0.3l0.2,0.2h0.2 M79.75,42.75l3.2-1.8 M79.45,43.05v-0.1
	l0.3-0.2 M87.65,38.85l-0.8,0.5l-0.8,0.6l-0.8,0.5l-0.8,0.5l-0.8,0.6l-0.8,0.5l-0.8,0.6l-0.8,0.6 M79.55,42.05l0.2,0.3 M79.75,43.35
	l-0.2-0.2l-0.1-0.1v-0.1v-0.3l0.1-0.1l0.2-0.2 M89.15,41.25l-0.4,0.3l-0.4,0.2l-0.4,0.3l-0.4,0.2l-0.4,0.3l-0.4,0.3l-0.4,0.2
	l-0.4,0.3 M82.75,44.05l0.8-0.5l0.8-0.6l0.8-0.6l0.8-0.5l0.8-0.5l0.8-0.6l0.8-0.5l0.8-0.5 M85.95,42.65l-0.2,0.2l-0.1,0.3l0.1,0.2
	l0.2,0.2l0.2,0.1 M82.75,44.55l3.2-1.9 M82.45,44.85l0.1-0.1l0.2-0.2 M90.65,40.65l-0.8,0.5l-0.8,0.5l-0.8,0.5l-0.8,0.6l-0.8,0.5
	l-0.8,0.6l-0.8,0.5l-0.8,0.6 M82.55,43.75l0.2,0.3 M82.75,45.05l-0.2-0.1l-0.1-0.2v-0.1l0.1-0.3v-0.1l0.2-0.2 M30.45,1.85l23.4,13.6
	 M72.15,25.95l23.4,13.5 M68.65,25.85l0.9,0.3l1,0.1h0.8l0.8-0.3 M33.75,7.55l-0.8,0.5l-0.8,0.5l-0.8,0.5l-0.9,0.6l-0.8,0.5
	l-0.8,0.6l-0.8,0.6l-0.8,0.5 M25.35,10.75l-0.3,0.3l-0.1,0.4l0.1,0.3l0.3,0.3l0.5,0.1l0.5,0.1l0.5-0.1l0.4-0.3 M25.35,10.75l0.8-0.5
	l0.8-0.6l0.8-0.6l0.8-0.5l0.8-0.6l0.9-0.5l0.8-0.5l0.8-0.5 M33.75,7.55l0.3-0.3l0.1-0.3l-0.1-0.3l-0.3-0.3l-0.5-0.1l-0.5-0.1
	l-0.5,0.1l-0.4,0.2 M36.75,9.25l-0.8,0.5l-0.8,0.5l-0.8,0.6l-0.8,0.5l-0.8,0.6l-0.9,0.5l-0.8,0.6l-0.8,0.6 M28.35,12.55l-0.3,0.3
	l-0.1,0.3l0.1,0.4l0.3,0.2l0.5,0.2h0.5l0.5-0.1l0.4-0.2 M28.35,12.55l0.8-0.6l0.8-0.6l0.8-0.5l0.9-0.6l0.8-0.5l0.8-0.6l0.8-0.5
	l0.8-0.5 M36.75,9.25l0.3-0.3l0.1-0.3l-0.1-0.3l-0.3-0.2l-0.5-0.2h-0.5h-0.5l-0.4,0.2 M39.75,10.95l-0.8,0.6l-0.8,0.5l-0.8,0.5
	l-0.8,0.6l-0.8,0.5l-0.8,0.6l-0.8,0.5l-0.8,0.6 M31.35,14.25l-0.2,0.3l-0.1,0.4l0.1,0.3l0.2,0.3l0.5,0.1h0.5l0.5-0.1l0.5-0.2
	 M31.35,14.25l0.8-0.6l0.9-0.5l0.8-0.6l0.8-0.5l0.8-0.6l0.8-0.5l0.8-0.5l0.8-0.5 M39.75,10.95l0.3-0.2l0.1-0.3l-0.1-0.3l-0.3-0.3
	l-0.4-0.2h-0.6l-0.5,0.1l-0.4,0.2 M42.75,12.75l-0.8,0.5l-0.8,0.5l-0.8,0.5l-0.8,0.6l-0.8,0.5l-0.8,0.6l-0.8,0.6l-0.8,0.5
	 M34.45,15.95l-0.3,0.4l-0.1,0.3l0.1,0.3l0.3,0.3l0.4,0.2h0.5l0.5-0.1l0.5-0.3 M34.45,15.95l0.8-0.5l0.8-0.6l0.8-0.6l0.8-0.5
	l0.8-0.6l0.8-0.5l0.8-0.5l0.8-0.5 M42.75,12.75l0.3-0.3l0.1-0.3l-0.1-0.3l-0.3-0.3l-0.4-0.1l-0.6-0.1l-0.5,0.1l-0.4,0.2
	 M45.75,14.45l-0.8,0.5l-0.8,0.6l-0.8,0.5l-0.8,0.5l-0.8,0.6l-0.8,0.5l-0.8,0.6l-0.8,0.6 M37.45,17.75l-0.3,0.3l-0.1,0.3l0.1,0.4
	l0.3,0.2l0.4,0.2h0.5l0.5-0.1l0.5-0.2 M37.45,17.75l0.8-0.6l0.8-0.6l0.8-0.5l0.8-0.6l0.8-0.5l0.8-0.5l0.8-0.6l0.8-0.5 M45.75,14.45
	l0.3-0.2l0.1-0.4l-0.1-0.3l-0.3-0.2l-0.4-0.2h-0.5h-0.6l-0.4,0.2 M48.75,16.25l-0.8,0.5l-0.8,0.5l-0.8,0.5l-0.8,0.6l-0.8,0.5
	l-0.8,0.6l-0.8,0.5l-0.8,0.6 M40.45,19.45l-0.3,0.3l-0.1,0.4l0.1,0.3l0.3,0.3l0.4,0.1l0.5,0.1l0.5-0.2l0.5-0.2 M40.45,19.45l0.8-0.6
	l0.8-0.5l0.8-0.6l0.8-0.5l0.8-0.6l0.8-0.5l0.8-0.5l0.8-0.5 M48.75,16.25l0.3-0.3l0.1-0.3l-0.1-0.3l-0.3-0.3l-0.4-0.2h-0.5l-0.6,0.1
	l-0.4,0.2 M51.75,17.95l-0.8,0.5l-0.8,0.5l-0.8,0.6l-0.8,0.5l-0.8,0.5l-0.8,0.6l-0.8,0.6l-0.8,0.6 M43.45,21.25l-0.3,0.3l-0.1,0.3
	l0.1,0.3l0.3,0.3l0.4,0.2h0.5l0.5-0.1l0.5-0.2 M43.45,21.25l0.8-0.6l0.8-0.6l0.8-0.6l0.8-0.5l0.8-0.5l0.8-0.6l0.8-0.5l0.8-0.5
	 M51.75,17.95l0.3-0.3l0.1-0.3l-0.1-0.3l-0.3-0.2l-0.4-0.2l-0.5-0.1l-0.6,0.1l-0.4,0.2 M54.75,19.65l-0.8,0.5l-0.8,0.6l-0.8,0.5
	l-0.8,0.5l-0.8,0.6l-0.8,0.5l-0.8,0.6l-0.8,0.6 M46.45,22.95l-0.3,0.3l-0.1,0.3l0.1,0.4l0.3,0.2l0.4,0.2h0.5l0.5-0.1l0.5-0.2
	 M46.45,22.95l0.8-0.6l0.8-0.6l0.8-0.5l0.8-0.6l0.8-0.5l0.8-0.5l0.8-0.6l0.8-0.5 M54.75,19.65l0.3-0.2l0.1-0.4l-0.1-0.3l-0.3-0.2
	l-0.4-0.2h-0.5h-0.5l-0.5,0.2 M57.75,21.45l-0.8,0.5l-0.8,0.5l-0.8,0.5l-0.8,0.6l-0.8,0.5l-0.8,0.6l-0.8,0.5l-0.8,0.6 M49.45,24.65
	l-0.3,0.3l-0.1,0.4l0.1,0.3l0.3,0.3l0.4,0.1l0.5,0.1l0.6-0.1l0.4-0.3 M49.45,24.65l0.8-0.6l0.8-0.5l0.8-0.6l0.8-0.5l0.8-0.6l0.8-0.5
	l0.8-0.5l0.8-0.5 M57.75,21.45l0.3-0.3l0.1-0.3l-0.1-0.3l-0.3-0.3l-0.4-0.1l-0.5-0.1l-0.5,0.1l-0.5,0.2 M60.75,23.15l-0.8,0.5
	l-0.8,0.5l-0.8,0.6l-0.8,0.5l-0.8,0.6l-0.8,0.5l-0.8,0.6l-0.8,0.6 M52.45,26.45l-0.3,0.3l-0.1,0.3l0.1,0.4l0.3,0.2l0.4,0.2h0.5
	l0.6-0.1l0.4-0.2 M52.45,26.45l0.8-0.6l0.8-0.6l0.8-0.5l0.8-0.6l0.8-0.5l0.8-0.6l0.8-0.5l0.8-0.5 M60.75,23.15l0.3-0.3l0.1-0.3
	l-0.1-0.3l-0.3-0.2l-0.4-0.2l-0.5-0.1l-0.5,0.1l-0.5,0.2 M63.75,24.85l-0.8,0.5l-0.8,0.6l-0.8,0.5l-0.8,0.5l-0.8,0.6l-0.8,0.5
	l-0.8,0.6l-0.8,0.6 M55.45,28.15l-0.3,0.3l-0.1,0.4l0.1,0.3l0.3,0.2l0.4,0.2h0.5l0.6-0.1l0.4-0.2 M55.45,28.15l0.8-0.6l0.8-0.6
	l0.8-0.5l0.8-0.6l0.8-0.5l0.8-0.5l0.8-0.6l0.8-0.5 M63.75,24.85l0.3-0.2l0.1-0.3l-0.1-0.4l-0.3-0.2l-0.4-0.2h-0.5h-0.5l-0.5,0.2
	 M66.75,26.65l-0.8,0.5l-0.8,0.5l-0.8,0.5l-0.8,0.6l-0.8,0.5l-0.8,0.6l-0.8,0.6l-0.8,0.5 M58.45,29.85l-0.3,0.3l-0.1,0.4l0.1,0.3
	l0.3,0.3l0.4,0.1l0.6,0.1l0.5-0.1l0.4-0.3 M58.45,29.85l0.8-0.5l0.8-0.6l0.8-0.6l0.8-0.5l0.8-0.6l0.8-0.5l0.8-0.5l0.8-0.5
	 M66.75,26.65l0.3-0.3l0.1-0.3l-0.1-0.3l-0.3-0.3l-0.4-0.1l-0.5-0.1l-0.5,0.1l-0.5,0.2 M69.75,28.35l-0.8,0.5l-0.8,0.5l-0.8,0.6
	l-0.8,0.5l-0.8,0.6l-0.8,0.5l-0.8,0.6l-0.8,0.6 M61.45,31.65l-0.3,0.3l-0.1,0.3l0.1,0.4l0.3,0.2l0.4,0.2h0.6l0.5-0.1l0.4-0.2
	 M61.45,31.65l0.8-0.6l0.8-0.6l0.8-0.5l0.8-0.6l0.8-0.5l0.8-0.6l0.8-0.5l0.8-0.5 M69.75,28.35l0.3-0.3l0.1-0.3l-0.1-0.3l-0.2-0.2
	l-0.5-0.2l-0.5-0.1l-0.5,0.1l-0.5,0.2 M72.85,30.05l-0.9,0.6l-0.8,0.5l-0.8,0.5l-0.8,0.5l-0.8,0.6l-0.8,0.6l-0.8,0.5l-0.8,0.6
	 M64.45,33.35l-0.3,0.3l-0.1,0.4l0.1,0.3l0.3,0.3l0.5,0.1h0.5l0.5-0.1l0.4-0.2 M64.45,33.35l0.8-0.6l0.8-0.5l0.8-0.6l0.8-0.6
	l0.8-0.5l0.8-0.5l0.8-0.5l0.9-0.6 M72.85,30.05l0.2-0.2l0.2-0.3l-0.1-0.3l-0.3-0.3l-0.5-0.2h-0.5l-0.5,0.1l-0.4,0.1 M75.85,31.85
	l-0.8,0.5l-0.9,0.5l-0.8,0.5l-0.8,0.6l-0.8,0.5l-0.8,0.6l-0.8,0.6l-0.8,0.5 M67.45,35.05l-0.3,0.3l-0.1,0.4l0.1,0.3l0.3,0.3l0.5,0.1
	l0.5,0.1l0.5-0.1l0.4-0.3 M67.45,35.05l0.8-0.5l0.8-0.6l0.8-0.6l0.8-0.5l0.8-0.6l0.8-0.5l0.9-0.5l0.8-0.5 M75.85,31.85l0.3-0.3
	l0.1-0.3l-0.1-0.3l-0.3-0.3l-0.5-0.1l-0.5-0.1l-0.5,0.1l-0.4,0.2 M78.85,33.55l-0.8,0.5l-0.8,0.5l-0.8,0.6l-0.9,0.5l-0.8,0.6
	l-0.8,0.5l-0.8,0.6l-0.8,0.6 M70.45,36.85l-0.3,0.3l-0.1,0.3l0.1,0.4l0.3,0.2l0.5,0.2h0.5l0.5-0.1l0.4-0.2 M70.45,36.85l0.8-0.6
	l0.8-0.6l0.8-0.5l0.8-0.6l0.8-0.5l0.9-0.6l0.8-0.5l0.8-0.5 M78.85,33.55l0.3-0.3l0.1-0.3l-0.1-0.3l-0.3-0.2l-0.5-0.2h-0.5h-0.5
	l-0.4,0.2 M81.85,35.25l-0.8,0.6l-0.8,0.5l-0.8,0.5l-0.8,0.6l-0.9,0.5l-0.8,0.6l-0.8,0.5l-0.8,0.6 M73.45,38.55l-0.3,0.3l-0.1,0.4
	l0.1,0.3l0.3,0.3l0.5,0.1h0.5l0.5-0.1l0.4-0.2 M73.45,38.55l0.8-0.6l0.8-0.5l0.8-0.6l0.8-0.5l0.9-0.6l0.8-0.5l0.8-0.5l0.8-0.6
	 M81.85,35.25l0.3-0.2l0.1-0.3l-0.1-0.3l-0.3-0.3l-0.5-0.2h-0.5l-0.5,0.1l-0.4,0.1 M84.85,37.05l-0.8,0.5l-0.8,0.5l-0.8,0.5
	l-0.8,0.6l-0.8,0.5l-0.8,0.6l-0.8,0.6l-0.8,0.5 M76.45,40.25l-0.2,0.4l-0.2,0.3l0.2,0.3l0.2,0.3l0.5,0.2h0.5l0.5-0.1l0.5-0.3
	 M76.45,40.25l0.8-0.5l0.8-0.6l0.9-0.6l0.8-0.5l0.8-0.6l0.8-0.5l0.8-0.5l0.8-0.5 M84.85,37.05l0.3-0.3l0.1-0.3l-0.1-0.3l-0.3-0.3
	l-0.4-0.1l-0.6-0.1l-0.5,0.1l-0.4,0.2 M87.85,38.75l-0.8,0.5l-0.8,0.6l-0.8,0.5l-0.8,0.5l-0.8,0.6l-0.8,0.5l-0.8,0.6l-0.8,0.6
	 M79.55,42.05l-0.3,0.3l-0.1,0.3l0.1,0.4l0.3,0.2l0.4,0.2h0.5l0.5-0.1l0.5-0.2 M79.55,42.05l0.8-0.6l0.8-0.6l0.8-0.5l0.8-0.6
	l0.8-0.5l0.8-0.5l0.8-0.6l0.8-0.5 M87.85,38.75l0.3-0.2l0.1-0.4l-0.1-0.3l-0.3-0.2l-0.4-0.2h-0.6h-0.5l-0.4,0.2 M90.85,40.55
	l-0.8,0.5l-0.8,0.5l-0.8,0.5l-0.8,0.6l-0.8,0.5l-0.8,0.6l-0.8,0.5l-0.8,0.6 M82.55,43.75l-0.3,0.3l-0.1,0.4l0.1,0.3l0.3,0.3l0.4,0.1
	l0.5,0.1l0.5-0.2l0.5-0.2 M82.55,43.75l0.8-0.6l0.8-0.5l0.8-0.6l0.8-0.5l0.8-0.6l0.8-0.5l0.8-0.5l0.8-0.5 M90.85,40.55l0.3-0.3
	l0.1-0.3l-0.1-0.3l-0.3-0.3l-0.4-0.2h-0.5l-0.6,0.1l-0.4,0.2 M30.75,5.75l-0.8,0.6l-0.8,0.5l-0.9,0.5l-0.8,0.5l-0.8,0.6l-0.8,0.6
	l-0.8,0.5l-0.8,0.6 M22.35,9.05l-0.3,0.3l-0.1,0.4l0.1,0.3l0.3,0.3l0.5,0.1h0.5l0.5-0.1l0.4-0.2 M22.35,9.05l0.8-0.6l0.8-0.5
	l0.8-0.6l0.8-0.6l0.8-0.5l0.8-0.5l0.9-0.5l0.8-0.6 M30.75,5.75l0.3-0.2l0.1-0.3l-0.1-0.3l-0.3-0.3l-0.5-0.2h-0.5l-0.5,0.1l-0.4,0.1
	 M3.95,18.55l0.3-0.3l0.3-0.2 M81.15,75.55l-0.3,0.1l-0.4,0.1 M104.45,69.35l0.2-0.2l0.7-0.5l0.7-0.7l0.5-0.8l0.5-0.9l0.4-0.9
	l0.3-1.1l0.2-1.2l0.1-1.2v-1.3l-0.1-1.4l-0.2-1.4l-0.3-1.4l-0.4-1.4l-0.5-1.5l-0.5-1.4l-0.7-1.5l-0.7-1.4l-0.8-1.3l-0.9-1.3l-1-1.3
	l-1-1.2l-1-1.1l-1.1-1l-1.1-0.9l-1.1-0.8l-1.1-0.8 M7.95,37.95v-0.1l-1-0.8l-0.9-0.9l-0.8-1l-0.9-1l-0.7-1.2l-0.7-1.1l-0.6-1.2
	l-0.6-1.3l-0.5-1.2l-0.3-1.2l-0.3-1.3l-0.2-1.1 M74.95,75.25l-65.1-37.6 M1.75,23.55v1.1l0.2,1.1l0.2,1.2l0.4,1.1l0.4,1.2l0.5,1.2
	l0.6,1.1l0.7,1.1l0.8,1l0.8,1l0.8,0.9l0.9,0.8l0.9,0.7l0.9,0.6 M9.85,18.85l-0.9-0.5l-0.9-0.3l-0.9-0.2l-0.8-0.1l-0.8,0.1l-0.8,0.1
	l-0.7,0.3l-0.6,0.5l-0.5,0.5l-0.4,0.7l-0.4,0.8l-0.2,0.8l-0.2,1v1 M9.85,18.85l65.1,37.6 M83.05,70.55v-1.1l-0.2-1.1l-0.2-1.2
	l-0.4-1.1l-0.4-1.2l-0.5-1.2l-0.6-1.1l-0.7-1.1l-0.8-1.1l-0.8-0.9l-0.8-0.9l-0.9-0.8l-0.9-0.7l-0.9-0.6 M74.95,75.25l0.9,0.4
	l0.9,0.4l0.9,0.2l0.8,0.1l0.8-0.1l0.8-0.1l0.7-0.4l0.6-0.4l0.5-0.5l0.4-0.7l0.4-0.8l0.2-0.8l0.2-1v-1 M75.25,55.05l0.7,0.4l0.9,0.7
	l1,0.9l0.9,0.9l0.8,1l0.9,1l0.7,1.1l0.7,1.2l0.6,1.2l0.6,1.2l0.5,1.3l0.3,1.2l0.3,1.3l0.2,1.2l0.1,1.1v1.1l-0.1,1.1v0.1
	 M75.05,76.95L75.05,76.95 M75.05,76.95l1,0.5l1,0.4l0.9,0.2l0.9,0.2h0.9l0.8-0.1l0.8-0.3l0.7-0.3l0.7-0.5l0.5-0.6l0.2-0.3
	 M31.85,12.25l1.7-0.9 M82.95,41.75l1.7-0.9 M28.85,10.55l1.7-1 M76.95,38.35l1.7-1 M73.95,36.55l1.7-0.9 M70.85,34.85l1.8-1
	 M67.85,33.15l1.8-1 M64.85,31.35l1.8-0.9 M61.85,29.65l1.8-1 M49.85,22.75l1.7-1 M46.85,20.95l1.7-0.9 M43.85,19.25l1.7-1
	 M40.85,17.45l1.7-0.9 M37.85,15.75l1.7-1 M34.85,14.05l1.7-1 M79.95,40.05l1.7-1 M4.85,18.05l-0.6,0.3 M80.75,75.65l0.5-0.4
	 M33.55,2.05l-1.2-0.7l-1.5-0.6l-1.6-0.4 M17.95,3.25l-1.5,1 M66.05,20.75l-16.2-9.3l-16.4-9.5 M98.65,39.65l-16.5-9.6l-16.1-9.3
	 M106.45,67.55l0.2-0.3l0.3-0.4l0.3-0.4l0.4-0.7l0.5-1l0.5-1.1l0.4-1.2l0.2-1.2l0.2-1.3l0.1-1.3l-0.1-1.3l-0.1-1.4l-0.2-1.3
	l-0.3-1.2l-0.4-1.3l-0.4-1.1l-0.4-1l-0.4-0.8l-0.4-0.8l-0.4-0.8 M106.45,47.65l-0.8-1.2l-0.4-0.5l-0.5-0.8l-0.7-0.9l-0.7-0.8
	l-0.8-0.8l-0.9-0.8l-0.9-0.8l-1-0.7l-1-0.7h-0.1 M54.25,15.45l-0.1,0.1 M53.55,16.45v0.4 M64.95,20.45l-7.3-4.2 M72.25,24.65
	l-7.3-4.2 M72.95,25.55v-0.1 M16.15,4.45L16.15,4.45l-2.5,1.8l-2.3,1.9l-2.3,1.9l-1.4,1.3 M7.65,11.35l-0.6,0.6l-2.2,2.1l-2,2.2
	l-1,1.1 M54.15,17.45l-0.3-0.2l-0.2-0.3l-0.1-0.1 M53.55,16.85l-0.1-0.1v-0.3 M68.65,25.85l-14.5-8.4 M9.85,39.35l65.2,37.6
	 M88.55,76.15l2.3-0.7l2.9-1.1l2.9-1.2l2.8-1.2l2.8-1.4l2.1-1.2 M80.45,78.15l2-0.4l3-0.7l3-0.9h0.1"/>
</svg>
