<?xml version="1.0" encoding="utf-8"?>
<!-- Generator: Adobe Illustrator 19.0.0, SVG Export Plug-In . SVG Version: 6.00 Build 0)  -->
<svg version="1.0" id="Layer_1" xmlns="http://www.w3.org/2000/svg" xmlns:xlink="http://www.w3.org/1999/xlink" x="0px" y="0px"
	 width="138.4px" height="88.2px" viewBox="0 0 138.4 88.2" enable-background="new 0 0 138.4 88.2" xml:space="preserve">
<path fill="none" stroke="#000000" stroke-width="0.25" stroke-linecap="round" stroke-linejoin="round" stroke-miterlimit="10" d="
	M129.95,64.85l-1.5-0.9 M131.15,69.05l6.1-3.5 M127.25,54.95v6.3 M118.25,65.25v-6.1 M12.45,79.65l0.8,0.5l1.4,0.8 M72.65,82.55
	v-6.1"/>
<path fill="none" stroke="#000000" stroke-width="0.5" stroke-linecap="round" stroke-linejoin="round" stroke-miterlimit="10" d="
	M136.45,68.95l0.2-0.2l0.5-0.4l0.4-0.5l0.3-0.6l0.2-0.7l0.1-0.7v-0.8 M127.05,62.35l0.4,0.4l0.6,0.5l0.1,0.1 M124.15,73.15l-9.5-5.5
	 M130.15,69.65v0.8l-0.1,0.7l-0.3,0.7l-0.3,0.6l-0.3,0.5l-0.5,0.4l-0.5,0.3l-0.6,0.2l-0.6,0.1l-0.6-0.1l-0.7-0.1l-0.8-0.3l-0.7-0.3
	 M122.35,64.55v0.1l0.6,0.6l0.5,0.4l0.6,0.4l0.6,0.4l0.6,0.2l0.5,0.1l0.5-0.1l0.5-0.1l0.4-0.2l0.4-0.3l0.3-0.5l0.2-0.5l0.1-0.6v-0.6
	 M128.15,63.85v-0.6l-0.2-0.5l-0.3-0.6 M127.25,62.25l0.6-0.1h0.5l0.4,0.2l0.5,0.2l0.3,0.3l0.3,0.4l0.2,0.5l0.1,0.6v0.7
	 M130.15,65.05v4.6 M138.15,65.05v-17.4 M126.15,62.65l-0.9,0.5l-1,0.5l-0.9,0.5l-1,0.4l-1,0.5l-1,0.4l-1,0.4l-1.1,0.4
	 M126.15,62.65l0.6-0.2l0.5-0.2 M12.85,81.25h-0.1l-0.3-0.3l-0.2-0.4l-0.2-0.4l-0.1-0.6v-0.2 M15.95,81.65l0.1,0.6l0.1,0.5l0.2,0.4
	l0.3,0.3l0.3,0.2l0.5,0.2h0.4l0.5-0.1l0.2-0.1 M18.55,83.65l1.5-0.6 M118.25,66.25l-45.6,17.3 M72.65,83.55l-2,0.7l-2.1,0.7
	l-2.1,0.6l-2.1,0.5l-2.2,0.5l-2.3,0.4l-2.2,0.3l-2.3,0.3l-2.4,0.2l-2.3,0.1l-2.3,0.1h-2.4l-2.3-0.1l-2.4-0.1l-2.3-0.2l-2.3-0.3
	l-2.3-0.3l-2.2-0.4l-2.2-0.5l-2.2-0.5l-2.1-0.6l-2.1-0.6l-2-0.7l-1.9-0.8l-1.9-0.8l-1.8-0.9 M11.95,79.35v-0.5 M15.95,81.65v-0.5
	 M11.95,78.85l-1.5-1l-1.4-1.1l-1.3-1.1l-1.2-1.2l-1.2-1.2l-1-1.2l-0.9-1.2l-0.8-1.3l-0.7-1.3l-0.6-1.3l-0.4-1.4l-0.4-1.3l-0.2-1.3
	l-0.1-1.4v-0.6 M34.65,60.05l0.3,0.2l0.2,0.3l0.1,0.3v0.3l-0.1,0.3l-0.2,0.2l-0.3,0.3l-0.4,0.1l-0.5,0.2h-0.5h-0.5h-0.6l-0.4-0.2
	l-0.4-0.1l-0.4-0.3l-0.2-0.2l-0.1-0.3v-0.3l0.1-0.3l0.2-0.3l0.4-0.2l0.4-0.2l0.4-0.2h0.6h0.5h0.5l0.5,0.2L34.65,60.05 M29.45,48.95
	l0.4,0.2l0.2,0.3l0.1,0.3v0.3l-0.1,0.3l-0.2,0.3l-0.4,0.2l-0.4,0.2l-0.4,0.1l-0.6,0.1h-0.5l-0.5-0.1l-0.5-0.1l-0.4-0.2l-0.3-0.2
	l-0.2-0.3l-0.1-0.3v-0.3l0.1-0.3l0.2-0.3l0.3-0.2l0.4-0.2l0.5-0.1l0.5-0.1h0.5l0.6,0.1l0.4,0.1L29.45,48.95 M43.55,40.85l0.3,0.2
	l0.2,0.3l0.1,0.3v0.3l-0.1,0.3l-0.2,0.3l-0.3,0.2l-0.4,0.2l-0.5,0.1l-0.5,0.1h-0.5l-0.6-0.1l-0.4-0.1l-0.4-0.2l-0.4-0.2l-0.2-0.3
	l-0.1-0.3v-0.3l0.1-0.3l0.2-0.3l0.4-0.2l0.4-0.2l0.4-0.1l0.6-0.1h0.5l0.5,0.1l0.5,0.1L43.55,40.85 M62.65,43.85l0.4,0.2l0.2,0.3
	l0.1,0.3v0.3l-0.1,0.3l-0.2,0.2l-0.4,0.3l-0.4,0.1l-0.4,0.2h-0.6h-0.5h-0.5l-0.5-0.2l-0.4-0.1l-0.3-0.3l-0.2-0.2l-0.1-0.3v-0.3
	l0.1-0.3l0.2-0.3l0.3-0.2l0.4-0.2l0.5-0.2h0.5h0.5h0.6l0.4,0.2L62.65,43.85 M67.85,54.85l0.3,0.3l0.2,0.2l0.1,0.3v0.3l-0.1,0.3
	l-0.2,0.3l-0.3,0.2l-0.4,0.2l-0.5,0.1l-0.5,0.1h-0.5l-0.6-0.1l-0.4-0.1l-0.4-0.2l-0.4-0.2l-0.2-0.3l-0.1-0.3v-0.3l0.1-0.3l0.2-0.2
	l0.4-0.3l0.4-0.2l0.4-0.1l0.6-0.1h0.5l0.5,0.1l0.5,0.1L67.85,54.85 M54.25,62.85l0.3,0.3l0.2,0.3l0.1,0.3v0.3l-0.1,0.2l-0.2,0.3
	l-0.3,0.3l-0.4,0.1l-0.5,0.2h-0.5h-0.6h-0.5l-0.4-0.2l-0.4-0.1l-0.4-0.3l-0.2-0.3l-0.1-0.2v-0.3l0.1-0.3l0.2-0.3l0.4-0.3l0.4-0.1
	l0.4-0.2h0.5h0.6h0.5l0.5,0.2L54.25,62.85 M50.35,50.95l0.5,0.3l0.4,0.4l0.3,0.4l0.2,0.4v0.4v0.4l-0.2,0.5l-0.3,0.4l-0.4,0.3
	l-0.5,0.4l-0.5,0.2l-0.7,0.3l-0.7,0.1l-0.7,0.1l-0.8,0.1l-0.7-0.1l-0.7-0.1l-0.7-0.1l-0.7-0.3l-0.5-0.2l-0.5-0.4l-0.4-0.3l-0.3-0.4
	l-0.2-0.5v-0.4v-0.4l0.2-0.4l0.3-0.4l0.4-0.4l0.5-0.3l0.5-0.3l0.7-0.3l0.7-0.1l0.7-0.1l0.7-0.1l0.8,0.1l0.7,0.1l0.7,0.1l0.7,0.3
	L50.35,50.95 M72.65,75.45l45.6-17.3 M118.25,58.15l1.2-0.4l1.2-0.5l1.2-0.5l1.1-0.6l1.1-0.5l1.1-0.6l1.1-0.5l1-0.6 M127.25,53.95
	l10.9-6.3 M138.15,47.65l-82.1-47.4 M45.15,6.55l10.9-6.3 M45.15,6.55l-1,0.6l-1,0.6l-1,0.6l-0.9,0.6l-0.9,0.7l-0.9,0.7l-0.9,0.7
	l-0.8,0.7 M37.75,11.75l-29.9,26.3 M7.85,38.05l-1.2,1.1l-1.1,1.2l-1,1.2l-1,1.3l-0.8,1.2l-0.7,1.3l-0.6,1.3l-0.4,1.3l-0.4,1.3
	l-0.3,1.4l-0.1,1.3v1.3l0.1,1.4l0.2,1.3l0.3,1.3l0.4,1.4l0.6,1.3l0.7,1.2l0.7,1.3l0.9,1.2l1,1.3l1.1,1.1l1.2,1.2l1.3,1.1l1.3,1.1
	l1.5,1l1.6,1l1.6,1l1.7,0.9l1.8,0.8l1.9,0.8l1.9,0.8l2,0.6l2.1,0.7l2.1,0.5l2.1,0.5l2.2,0.5l2.2,0.4l2.3,0.3l2.3,0.2l2.3,0.2
	l2.3,0.1l2.3,0.1h2.3l2.3-0.1l2.4-0.1l2.3-0.2l2.2-0.3l2.3-0.4l2.2-0.4l2.2-0.4l2.1-0.6l2.1-0.6l2-0.6l2-0.7 M128.45,73.55l8-4.6
	 M12.85,81.25l0.6,0.4l1.6,1l1.6,0.8l0.3,0.2 M0.25,52.85v8.1"/>
</svg>
