<?xml version="1.0" encoding="utf-8"?>
<!-- Generator: Adobe Illustrator 19.0.0, SVG Export Plug-In . SVG Version: 6.00 Build 0)  -->
<svg version="1.0" id="Layer_1" xmlns="http://www.w3.org/2000/svg" xmlns:xlink="http://www.w3.org/1999/xlink" x="0px" y="0px"
	 width="131px" height="106.8px" viewBox="0 0 131 106.8" enable-background="new 0 0 131 106.8" xml:space="preserve">
<path fill="none" stroke="#000000" stroke-width="0.25" stroke-linecap="round" stroke-linejoin="round" stroke-miterlimit="10" d="
	M58.65,30.95l0.3,1.2 M69.75,32.25l-4.8,2.1 M65.15,36.85h8.8 M50.65,35.15l4.8,0.4 M51.25,40.45l5.9-2.9 M64.65,37.25l8.4,0.9
	 M72.55,27.05h-0.3l-0.4,0.2 M53.15,41.45l4.7-3.6 M64.35,41.85l-3.1-3.6 M108.55,8.05L108.55,8.05 M108.55,8.65L108.55,8.65h-0.1
	v-0.1v-0.1 M108.65,8.05l0.1-0.1h0.2l0.1-0.1h0.2 M109.45,8.05L109.45,8.05h0.1v0.1v0.1 M108.65,8.65l0.6-0.6 M109.55,8.65
	L109.55,8.65h-0.1v-0.1 M109.25,8.65L109.25,8.65l-0.3,0.1h-0.1h-0.1 M108.55,8.85L108.55,8.85v-0.1 M108.45,8.85l-0.1-0.1
	 M109.35,8.85h-0.1l-0.2,0.1h-0.2h-0.1 M108.55,8.05l0.2-0.1l0.3-0.1l0.1-0.1l0.2,0.1 M108.15,8.65l0.1-0.2 M109.75,7.65l-0.1,0.1
	v0.1 M109.65,7.95h0.1l0.1,0.1 M108.35,9.05L108.35,9.05h-0.1 M84.95,22.35l-0.2,0.7l-0.1,1.1l0.2,1.1 M97.75,13.35l-0.9-0.6
	l-1.3-0.9 M111.45,2.05h-0.2l-0.7,0.2l-0.8,0.4l-1,0.5l-1,0.6l-1,0.8l-1.1,0.9l-1.1,1 M107.95,8.85v-0.1l-0.1-0.2l0.1-0.3l0.3-0.3
	l0.3-0.3l0.4-0.1 M80.95,47.85h-0.1v0.1l-0.1,0.1v0.1 M83.25,49.75l0.1,0.1 M80.25,48.05h-0.1 M83.65,49.35l-0.1,0.1l-0.1,0.1
	l-0.1,0.2 M77.45,36.25l1.3-0.5l1.6-0.8l1.6-0.9l1.5-1.1l1.4-1.2 M83.35,49.95v-0.1 M83.45,49.95l0.3,0.2 M88.25,29.55l1.6,1.4
	 M102.95,16.45l-2-1.2 M88.95,26.65l7.8-10.8 M83.65,50.55L83.65,50.55 M82.75,49.65l0.1-0.1 M84.35,50.05l-0.1,0.1l-0.2,0.1v0.1
	 M83.95,50.45l0.1,0.3 M55.65,52.15l0.1-0.1l0.1-0.2 M107.35,10.15l-0.7,0.9l-1.2,2.1l-1,1.9 M115.55,4.95l-0.9,0.1l-1.6,0.5
	 M109.95,7.85l0.1,0.2v0.1l-0.1,0.3l-0.2,0.3l-0.4,0.3 M40.65,31.95l0.7-0.1h1.1l2,0.2 M74.85,51.25L74.85,51.25l0.7,0.1l0.7,0.2
	l0.6,0.3l0.4,0.3 M55.65,52.75v-0.5 M54.75,54.15l0.8-1.8 M55.35,51.75v0.1h0.1l0.1,0.1v0.1 M56.15,51.85v-0.1h0.1 M74.15,51.25v0.2
	 M65.35,52.35l1-0.3l2.5-0.5l2.6-0.3 M74.15,50.65v0.1v0.1v0.1v0.1 M54.65,54.35v0.5 M55.15,53.95L55.15,53.95l0.2-0.1 M55.45,55.15
	l-0.2-0.2 M57.15,50.65L57.15,50.65l0.1,0.1v0.1v0.1 M78.35,47.45L78.35,47.45v0.1v0.1 M54.55,54.65v-0.2 M54.35,53.95L54.35,53.95
	h0.1l0.1,0.1l0.1,0.1 M63.95,53.05v-0.2 M78.55,47.75L78.55,47.75l0.1,0.1 M57.45,51.05L57.45,51.05l0.1,0.1 M62.25,54.35l0.1-0.2
	l0.2-0.4l0.4-0.4 M62.45,55.35l-0.2-0.4v-0.2 M63.95,52.75v-0.1v-0.1l-0.1-0.1v-0.1 M102.45,19.55l-0.8,1.8l-0.9,2.1l-0.8,1.8
	l-0.7,1.5l-0.5,1.2l-0.7,1.5l-0.8,1.7 M108.35,19.55l-2-1.2 M28.65,31.15l-0.6-0.3 M121.15,7.85l-1.2-0.2l-1.3,0.1l-1.4,0.3
	l-1.2,0.5l-1.3,0.7l-1.1,0.9l-1,1l-0.9,1.1l-0.8,1.3 M104.45,38.95l-2.1-0.8l-3.5-1.6 M94.45,36.95v0.1l-0.1,0.2l-0.2,0.4l-0.2,0.3
	l-0.2,0.3l-0.2,0.3v0.1l-0.2,0.2l-0.5,0.7l-0.3,0.4l-0.3,0.4l-0.4,0.5l-0.4,0.5l-0.5,0.6l-1.6,1.8l-1.6,1.4 M77.95,53.45v0.1
	 M77.95,53.45v0.3 M78.25,53.05L78.25,53.05h-0.1l-0.1,0.1v0.1h-0.1 M26.95,26.05l-0.4,0.5 M103.15,53.75l4.6,7.6 M62.35,55.55
	L62.35,55.55h0.1h0.1 M22.45,25.15l0.5,0.6 M109.95,20.45l0.3,0.1l0.8,0.4l0.8,0.4l0.8,0.4l1.3,0.5 M106.35,36.55l2.2-13.7
	 M128.65,24.25l0.3-0.1l0.2-0.1l0.2-0.2 M37.45,32.45l0.6,1 M27.45,20.45l0.1,0.1l0.2,0.4l0.2,0.5 M28.35,32.85l-0.5-0.6
	 M69.85,59.85L69.85,59.85 M75.45,59.05L75.45,59.05h-0.1 M112.25,56.65l-0.7,4.7 M24.25,31.85l0.1-0.5 M22.75,27.15l-0.5-0.4
	 M83.65,51.35v0.4 M83.55,51.15v-0.2 M83.15,51.75l-3.9,8.3 M83.55,50.75L83.55,50.75l-0.1-0.1l-0.1-0.1 M84.35,50.85h-0.1l-0.2,0.1
	 M101.15,54.45l5.8,7.2 M55.55,55.65v-0.1 M55.55,55.55v-0.3 M55.55,55.15v-0.1l0.1-0.2l0.1-0.1 M68.75,62.85l-11.4-6.6
	 M54.95,55.45h0.1v-0.1 M128.05,37.35l-0.6,0.6l-1,0.8l-1.3,0.7l-1.4,0.6l-1.7,0.5l-1.7,0.4l-1.9,0.3l-2,0.1 M105.55,41.45v0.1
	l-0.4,1.9l-0.5,1.8l-0.4,1.7l-0.5,1.6l-0.4,1.4 M68.75,59.45l-1.2-0.4l-2.1-1 M62.05,55.15h-0.1l-0.1-0.5v-0.5l0.1-0.4 M65.15,51.85
	l1-0.4l2.6-0.5l2.7-0.3 M74.95,50.65L74.95,50.65l0.8,0.2l0.7,0.2l0.7,0.3l0.5,0.4 M78.35,53.65l-0.1,1l-0.5,1.5 M74.95,59.45
	l-0.5,0.3l-0.7,0.2l-0.8,0.2h-0.8h-0.8 M60.65,50.65l14.9-2.3 M56.55,51.65v-0.1l0.3-0.2 M55.55,53.65l0.8-1.7 M55.75,54.65
	l-0.1-0.1l-0.2-0.3 M69.35,62.45l-11.6-6.7 M82.75,51.45l-4.1,8.7 M82.85,49.65l0.2,0.2l0.1,0.2 M80.45,48.25l2,1.2 M78.85,47.85
	h0.2h0.4l0.3,0.1 M8.05,18.35l0.4-0.2l1.3-0.4l1.5-0.2l1.6,0.1l1.8,0.1l1.8,0.4l1.8,0.5l1.8,0.7l1.7,0.8 M39.75,37.45v0.1l1.4,0.9
	l1.4,0.8l1.5,0.6l1.6,0.5 M32.85,49.65l0.8-0.9l1.6-2.4l1.3-2.4 M28.85,26.05l8.3,8.9 M27.45,24.75l-0.2,0.5 M94.05,59.05l-0.4-0.2
	 M105.65,63.95l-3.6-1.5 M114.25,64.05l1.2-0.3 M106.35,65.55h-1.8 M9.15,42.65l-0.9,0.2 M18.15,38.95l-0.9,0.5 M11.15,37.05
	l-0.3-0.6 M18.05,38.75l-0.8,0.6 M9.15,42.75l-0.9,0.2 M16.65,48.55l-1.4-3.3 M106.75,65.75l-1.9,0.2 M106.85,67.85l2.1-1.6
	 M41.65,70.45l1.5-7.6 M24.15,31.95l-0.5,1.1 M7.25,22.05l1.8-0.6l2.3-0.4l2.5,0.1l2.4,0.5l2.3,0.8 M34.95,68.45l2.8,3.4
	 M40.75,70.45v-7.5 M45.75,71.15l7-5.3 M129.65,59.35l-0.3-0.2l-0.8-0.3l-1-0.2l-1.1-0.3l-1.3-0.2l-2.7-0.5l-3.1-0.5 M30.55,48.35
	l-5.7-12.6 M23.25,33.85l-0.2,0.2l-0.6,1l-0.9,1 M7.05,43.05L7.05,43.05h-1.1l-0.9-0.1l-0.9-0.1l-0.7-0.3 M57.15,71.55l-9.5,1.9
	 M39.25,60.75l-0.9-0.7l-0.6-0.6l-0.7-0.7l-0.7-0.7l-0.6-0.8l-1.1-1.4l-1-1.5 M7.15,54.75l0.2,0.1l1.4,0.6l1.6,0.5l1.9,0.4l2.1,0.2
	l2.1,0.1h2.2l2.2-0.3l2.2-0.5 M52.95,43.75L52.95,43.75v2.1l-0.4,2.1l-0.6,2.2l-0.8,2.1 M86.75,48.05l1.7,0.8l3.7,1.7 M83.55,46.15
	l-1.8-1.1l-2.8-2.2 M68.25,63.15l-11.4-6.6 M54.75,55.35l-0.2-0.2l-0.3-0.4 M54.35,53.65l0.8-1.7 M55.35,51.55l0.1-0.2l0.5-0.3
	 M60.25,50.15l15-2.3 M78.75,47.35h0.3h0.7l0.7,0.2 M81.35,47.95l2,1.2 M83.75,49.45l0.4,0.2 M84.35,50.05L84.35,50.05l0.1,0.4
	l-0.1,0.4 M83.95,51.85l-3.8,8.1 M38.75,75.25l-0.9,0.5 M16.85,77.25l0.5-0.4l0.8-0.5l1.1-0.6l1.1-0.6l1.2-0.6l1.3-0.6l2.8-1.4
	l3-1.4 M56.95,72.75l-9.4,1.2 M49.05,76.65l-4.6-0.9 M64.75,69.05l-2.7,0.9 M36.05,77.25l-0.7,0.6l-2.1,2.1l-1.9,2l-1.2,1.6l-1,1.5
	 M120.05,81.35v-0.5l-0.2-1.2l-0.4-1.2l-0.6-1.1l-0.7-1.2l-0.8-1.1l-2.1-2.1l-2.4-1.9 M66.65,68.05l0.4-0.8 M64.15,73.25l-2.3,1.6
	 M64.85,75.65l0.1-0.8 M61.75,73.35l-0.4-0.1 M44.75,93.25l-0.3-0.7l-0.2-1.2l-0.2-1.2v-1.3l0.1-1.2l0.2-1.3l0.8-2.5l1.1-2.5
	 M66.75,67.95l0.4-0.9 M64.85,75.55l0.2-0.7 M108.95,77.15v0.7l-0.3,1.5l-0.6,1.5l-1,1.4 M100.65,78.25l-0.1-0.2l-0.3-0.5
	 M101.85,78.05l0.3-0.1l0.4-0.2l0.4-0.2l0.3-0.1l0.2-0.2l0.2-0.1l0.2-0.1l0.1-0.1l0.6-0.4l0.1-0.1l0.1-0.1l0.1-0.1l0.3-0.3l0.3-0.3
	l0.3-0.4l0.2-0.3 M67.35,89.25l-0.5-0.2l-1-0.4l-1.8-1l-1.5-1.1l-1.3-1.3l-1.1-1.3l-0.8-1.4 M65.55,77.35l0.3,0.3l0.6,0.8l0.4,0.5
	l0.5,0.4l0.6,0.5l0.5,0.4l0.6,0.3l0.4,0.2l0.5,0.3l0.7,0.3l0.8,0.3l1,0.3l0.5,0.1 M84.25,60.35l0.4,0.3l0.6,0.8l0.6,1.3
	 M98.35,74.75l-5.3-0.5 M83.45,76.05l-2.9,1.6 M16.25,80.45l0.5,1l1.5,2.3 M24.05,85.95l-1.6-1.1l-2.4-2.1 M15.55,77.75l-0.7-0.9
	l-1-1.8 M127.85,74.45l-1,1.8l-2.1,2.9 M117.55,85.75l-0.7,0.5l-2.4,1.1l-1.5,0.6l-1.5,0.3 M103.65,85.05l-1.7-4.1l-1.2-2.5
	 M100.15,78.65l-3,0.8 M81.55,82.05l-0.9,0.1l-1.6,0.1h-1 M75.45,83.05l-0.1,0.3l-1,1.3l-0.9,1.2 M68.35,92.15l-0.7,0.6l-1.7,1.1
	l-1.8,0.9l-1.9,0.8l-2.1,0.6l-3.3,0.5 M44.25,95.25l-1.8-0.5l-3.8-1.2l-3.5-1.4 M40.15,98.55l0.5,0.2l3.8,1.2l3.8,1.1l4,0.9
	 M77.95,103.35l2-0.1l4.6-0.5l4.5-0.8 M108.85,95.15l1.1-0.5l3.2-1.9l2.9-2.1"/>
<path fill="none" stroke="#000000" stroke-width="0.5" stroke-linecap="round" stroke-linejoin="round" stroke-miterlimit="10" d="
	M59.05,32.45l0.7-0.1l0.8,0.1l0.8,0.2l0.7,0.3l0.7,0.3l0.5,0.5l0.4,0.5l0.3,0.5 M56.35,35.65l-0.2-0.5v-0.6l0.2-0.5l0.3-0.5l0.5-0.4
	l0.5-0.4l0.7-0.2l0.7-0.1 M63.95,34.75l0.2,1.1l-0.4,0.9 M63.75,36.75l-0.3,0.4 M58.65,30.75l1.5-0.2l1.6-0.1h1.6l1.5,0.1l1.5,0.2
	l1.5,0.3l1.4,0.3l1.5,0.5 M49.75,35.05l0.7-0.8l0.8-0.7l1-0.6l1-0.6l1.2-0.5l1.2-0.4l1.4-0.4l1.6-0.3 M57.75,37.25l-0.9-0.7
	l-0.5-0.9 M57.75,37.25l0.5,0.3 M61.05,38.05l1.3-0.3l1.1-0.6 M70.75,31.85l1.2,0.5l1.2,0.6l1.1,0.7l0.7,0.7l0.4,0.7l0.2,0.9l-0.2,1
	 M58.25,37.55l1.4,0.4l1.4,0.1 M108.55,8.05v0.1 M109.45,7.95L109.45,7.95h-0.1 M109.75,8.35L109.75,8.35l-0.1,0.2v0.1l-0.1,0.1
	 M93.95,10.05l0.3-0.5l0.3-0.5l0.3-0.7l0.5-0.8l0.5-0.8l0.4-0.8l0.4-0.7l0.5-0.8l0.5-0.6l0.2-0.4l0.3-0.3l0.2-0.2l0.1-0.1
	 M93.95,10.05l-1.4,2.2 M87.25,18.25L87.25,18.25l0.2-0.2l0.4-0.4l0.3-0.3l0.5-0.5l0.4-0.5l0.6-0.6l0.7-0.7l0.4-0.3 M87.25,18.35
	L87.25,18.35h-0.1H87.25 M92.55,12.25l-0.7,1l-0.7,1l-0.6,0.7l-0.7,0.8l-0.3,0.3l-0.3,0.4l-0.3,0.3l-0.3,0.3l-0.3,0.3l-0.2,0.2
	l-0.3,0.3l-0.2,0.2l-0.1,0.1l-0.2,0.1 M116.25,4.95l-1-0.6l-0.9-0.7l-0.9-0.6l-0.2-0.2l-0.3-0.2l-0.2-0.2l-0.2-0.1l-0.1-0.1
	l-0.1-0.1 M74.35,38.25l0.7-0.7l0.2-0.3l0.1-0.3 M123.65,8.65l-0.9-0.5l-0.4-0.2l-0.3-0.1l-0.2-0.1l-0.1-0.1l-0.5-0.2l-0.4-0.2
	l-0.4-0.2l-0.3-0.2l-0.4-0.1l-1-0.5l-0.9-0.4l-0.8-0.5l-0.8-0.4 M50.65,40.75l-0.9-0.8l-0.5-0.8l-0.3-0.8l-0.1-0.8l0.2-0.9l0.3-0.8
	l0.4-0.8 M56.05,51.85L56.05,51.85h0.1 M62.25,54.75v-0.1 M124.25,9.05l-0.6-0.4 M77.95,53.75l-0.1,1 M100.15,53.15l1.1-0.4l1.1-0.3
	 M23.35,16.55l-0.2-0.2l-0.9-0.5l-1-0.4l-1-0.4l-1.1-0.3l-1.1-0.3l-1-0.1l-0.8-0.1 M74.15,51.45l1.4,0.2l0.7,0.2l0.6,0.2l0.4,0.4
	l0.4,0.4l0.2,0.4l0.1,0.4 M63.95,53.05l2.4-0.7l2.5-0.6l2.6-0.3h2.7 M62.25,54.95l0.1-0.6l0.6-0.7l1-0.6 M77.95,53.65v0.4
	 M27.25,20.15v0.1 M27.75,32.15l-0.3,0.4l-0.3,0.2l-0.4,0.2l-0.5-0.1l-0.5-0.2l-0.5-0.3l-0.5-0.5l-0.4-0.5 M27.95,30.75v0.8
	l-0.2,0.6 M26.45,26.65l0.6,0.9l0.5,1.1l0.3,1.1l0.1,1 M26.45,26.65l-0.7-0.8l-0.8-0.6l-0.7-0.2l-0.6,0.2 M23.65,25.25l-0.3,0.2
	l-0.3,0.4 M22.85,27.05l0.1-0.7l0.1-0.5 M22.85,27.15v-0.1 M24.35,31.35l-0.6-1l-0.5-1l-0.3-1.1l-0.1-1.1 M119.85,24.75l0.1,0.8
	l0.3,0.7l0.5,0.6l0.5,0.5l0.7,0.4l0.7,0.3l0.8,0.1l0.8-0.1l0.8-0.2l0.7-0.4l0.6-0.5l0.6-0.6l0.4-0.7l0.3-0.7l0.1-0.8v-0.8
	 M127.75,23.35l-0.1-0.8l-0.3-0.7l-0.5-0.6l-0.5-0.5l-0.7-0.4l-0.7-0.3l-0.8-0.1l-0.8,0.1l-0.8,0.2l-0.7,0.4l-0.6,0.5l-0.6,0.6
	l-0.4,0.7l-0.3,0.7l-0.2,0.8l0.1,0.8 M128.45,23.25v1 M116.85,23.25l0.2-0.7l0.3-0.6l0.4-0.7l0.4-0.6l0.4-0.6l0.6-0.6l1-0.7l1.1-0.5
	l0.4-0.2l0.5-0.1l0.6-0.1h0.6h0.6l0.7,0.1l0.7,0.3l0.4,0.2l0.4,0.2l0.3,0.2l0.3,0.3l0.2,0.2l0.3,0.3l0.3,0.4l0.2,0.4l0.2,0.3
	l0.1,0.4l0.2,0.5l0.1,0.6l0.1,0.5v0.5 M116.85,23.25l-0.4,1.3l-0.2,1.4 M116.25,25.95l-0.1,1.2l-0.1,1.3l0.1,1.3l0.1,0.6l0.1,0.7
	l0.1,0.7l0.1,0.5l0.2,0.6l0.2,0.6l0.2,0.6l0.2,0.3l0.2,0.5l0.2,0.4l0.4,0.5l0.4,0.5l0.4,0.4l0.8,0.5l0.8,0.3h0.9l0.4-0.1l0.5-0.2
	l0.3-0.2l0.4-0.2l0.4-0.2l0.3-0.4l0.6-0.6l0.6-0.7l0.6-0.8l0.4-0.7l0.5-0.9l0.3-0.8l0.4-0.9l0.3-0.9l0.3-0.9l0.2-0.9l0.3-1.9
	l0.2-1.9 M111.35,62.15h0.8l0.6,0.2l0.6,0.1l0.4,0.3l0.3,0.3l0.1,0.3v0.4l-0.2,0.4 M108.55,62.65l1.4-0.3l1.4-0.2 M108.55,62.65
	l-0.5,0.2 M108.05,62.85l-1,0.7l-0.6,0.7 M102.35,52.45l1.5-0.1l1.5,0.1l1.5,0.3l1.3,0.5l1.7,0.8l1.4,0.9l1.1,0.9 M83.95,51.15
	l-0.2-0.3h-0.1 M54.65,54.95l0.4-0.7 M83.65,50.85v0.1l-0.1,0.3 M83.55,51.25l-4.5,9.7 M70.35,64.15l-14.8-8.6 M55.55,55.55
	l-0.3-0.2l-0.2-0.3l-0.1-0.3 M79.15,60.95l4.5-9.7 M83.65,50.65v0.3v0.3 M55.55,55.55l-0.4-0.2l-0.2-0.3v-0.3 M55.55,55.55l14.8,8.6
	 M6.15,20.05L6.15,20.05v0.1v0.1v0.1v0.2l-0.1,0.2l-0.1,0.3l-0.1,0.3l-0.1,0.4l-0.2,0.7l-0.4,0.8 M22.35,25.05l0.4-0.5l0.5-0.4
	l0.5-0.2h0.7l0.7,0.3l0.6,0.4l0.4,0.2l0.3,0.3l0.5,0.8 M6.45,19.65l0.1-0.1 M50.65,40.75l0.9,0.6l1.2,0.4 M28.75,31.25v0.9l-0.2,0.8
	 M28.55,32.95l-0.4,0.5l-0.4,0.3l-0.5,0.2l-0.6-0.1l-0.6-0.2l-0.6-0.4l-0.6-0.6l-0.6-0.8 M26.95,25.95l0.8,1.3l0.6,1.4l0.3,1.5
	l0.1,1.1 M106.45,64.25l-0.1,0.7l0.4,0.6 M113.95,64.15l-0.3,0.4l-0.4,0.3l-0.5,0.4l-0.7,0.3l-0.7,0.2l-0.8,0.2l-0.7,0.1l-0.8,0.1
	 M107.05,65.75l-0.3-0.2 M43.35,61.85h-1.4l-1.2,0.1 M109.05,66.15l-1.1-0.1l-0.9-0.3 M17.05,39.45l-0.4-0.7l-0.4-0.7l-0.6-0.5
	l-0.7-0.4 M14.95,37.15l-0.9-0.3l-1-0.1l-0.9,0.1l-0.9,0.3 M9.35,42.55l-0.3-0.7l-0.1-0.7v-0.8l0.2-0.8l0.4-0.8l0.5-0.7l0.5-0.5
	l0.7-0.4 M9.35,42.65v-0.1 M14.95,44.45l-0.8,0.3l-0.8,0.2h-0.8l-0.8-0.2l-0.8-0.4l-0.6-0.4l-0.6-0.6l-0.4-0.7 M17.25,40.95
	l-0.2,1.1l-0.5,1l-0.7,0.8l-0.9,0.6 M17.05,39.55l0.2,1.4 M17.05,39.45v0.1 M22.15,26.75l0.3,1.3l0.5,1.4l0.7,1.3l0.6,1.1
	 M22.35,25.05l-0.1,0.5l-0.1,0.3v0.9 M1.05,31.25l0.1-0.4l0.1-0.4l0.2-0.5l0.2-0.5l0.3-0.6l0.2-0.4l0.3-0.5l0.3-0.5l0.2-0.4l0.5-0.8
	l0.4-0.7l0.3-0.6l0.6-0.9l0.4-0.8 M8.05,42.95v-0.1 M8.05,42.85l-0.3-0.9l-0.1-1l0.1-0.9l0.3-1l0.5-0.8l0.6-0.7l0.8-0.7l0.8-0.5
	 M10.75,36.35l1-0.4l1.1-0.2h1.1l1.1,0.1l1,0.4l0.9,0.5l0.8,0.9l0.5,1 M18.25,38.65v0.1l0.1,0.1 M23.65,33.15l-0.9-1.7l-1.1-1.9
	l-1-1.2l-1.2-1.1l-1.3-1l-1.1-0.6l-1.2-0.5l-1.2-0.3l-1.3-0.3l-1.3-0.1h-1.3l-1.3,0.2l-1.3,0.3l-1.2,0.4l-1.1,0.6l-1.1,0.6l-1,0.8
	l-0.9,0.9l-0.7,0.9l-0.6,1l-0.5,1l-0.3,1.1 M44.55,72.15l-0.7-0.3l-0.7-0.2l-0.9-0.2h-0.8 M41.45,71.45h-0.7 M38.25,72.45l0.4-0.4
	l0.6-0.2l0.7-0.2l0.8-0.2 M38.35,74.75l-0.5-0.5l-0.2-0.7l0.2-0.6l0.4-0.5 M38.85,75.15l-0.5-0.4 M45.65,73.85v-0.4l-0.2-0.5
	l-0.4-0.4l-0.5-0.4 M130.45,60.15v-0.1 M112.35,55.85l1.1,1l0.9,1l0.7,1l0.5,1l0.3,1l0.2,1l-0.1,0.9l-0.3,1 M115.65,63.75l-0.5,0.8
	l-0.7,0.8l-0.9,0.6l-1,0.6l-1.2,0.5l-1.4,0.4l-1.5,0.3l-1.7,0.2 M18.35,38.85l0.3,1.3l0.2,1.3v1.4l-0.1,1.4l-0.1,1.3l-0.3,1.4
	l-0.4,1l-0.5,0.9l-0.5,0.5 M16.95,49.35l-0.6,0.3l-0.8,0.1h-0.7l-0.8-0.3l-1.3-0.7l-1.3-0.9l-1-1.1l-1-1.2l-0.8-1.3l-0.6-1.3
	 M45.55,74.25l0.1-0.4 M34.55,67.85l0.6-1.4l0.7-1.3l1-1.2l0.8-0.8l1-0.5l1-0.5l1.1-0.2 M5.65,53.45v0.1 M74.35,38.25l-0.9,0.7
	l-1.1,0.6l-1.1,0.6l-1.2,0.5l-1.7,0.6l-1.9,0.5l-1.9,0.4 M64.55,42.15l-2,0.2l-1.9,0.1h-2l-2-0.1l-2-0.3l-1.9-0.3 M43.35,61.85
	l1.5,0.2l1.5,0.2l1.4,0.3l1.3,0.4l1.8,0.6l1.6,0.6l1.5,0.8 M53.95,64.95l1.4,0.9l1.1,0.9l1,1l0.8,1.1l0.6,1.1l0.3,1.1 M93.45,59.05
	l0.1-0.2 M93.55,58.85l0.6-1.2l0.8-1l1-1l1.3-0.9l1.4-0.9l1.5-0.7 M43.65,75.65l-1,0.2h-1.1l-1.1-0.1l-1-0.3 M38.85,75.15l0.6,0.3
	 M37.75,75.75l-1-0.6l-0.8-0.8l-0.5-0.5l-0.4-0.6l-0.3-0.7l-0.3-0.7l-0.1-0.7l-0.1-0.8v-1.2l0.3-1.3 M25.15,86.75l0.3,0.1h0.3
	l0.4,0.2l0.6,0.2l0.7,0.3l0.7,0.4 M33.05,97.45l-0.8-0.5l-0.9-0.5l-0.9-0.6l-0.4-0.2l-0.5-0.4l-0.6-0.4l-0.6-0.4l-0.4-0.3l-0.3-0.3
	l-0.3-0.2l-0.3-0.3l-0.2-0.2l-0.6-0.5l-0.4-0.5l-0.8-1l-0.2-0.5l-0.3-0.5 M28.85,88.35L28.85,88.35l-0.2,0.2v0.2v0.4l0.2,0.4
	l0.3,0.5l0.4,0.5l0.5,0.6l0.6,0.6l0.6,0.5l0.6,0.5l0.6,0.5l0.6,0.4 M33.05,93.65l0.6,0.3l0.5,0.2h0.4h0.3l0.1-0.2h0.1 M45.55,74.25
	l-0.2,0.4l-0.5,0.4l-0.5,0.3l-0.7,0.3 M59.15,71.05v0.8l-0.2,0.6 M101.95,94.95l0.7-0.2l0.8-0.2l0.7-0.3l0.8-0.3l0.7-0.4l0.6-0.4
	l0.4-0.4l0.4-0.5l0.2-0.4l0.1-0.3l-0.1-0.4l-0.3-0.2l-0.3-0.2l-0.5-0.1h-0.6h-0.7 M101.05,92.05l-0.5,0.4l-0.5,0.4l-0.3,0.4
	l-0.3,0.4v0.4l0.1,0.3l0.2,0.3l0.4,0.2l0.5,0.1h0.6h0.7 M104.85,90.65l-0.5,0.1 M72.85,102.55l-0.1-0.4l-0.3-0.4l-0.4-0.4l-0.5-0.4
	l-0.7-0.2l-0.7-0.3l-0.8-0.1l-0.8-0.1h-0.8l-0.8,0.1l-0.7,0.1l-0.6,0.2l-0.5,0.3l-0.4,0.4l-0.2,0.4v0.4 M64.55,102.15l0.1,0.4
	l0.2,0.4l0.4,0.3l0.6,0.4l0.6,0.3l0.8,0.2l0.8,0.2h0.8h0.8h0.8l0.7-0.2l0.6-0.2l0.5-0.3l0.3-0.3l0.2-0.4l0.1-0.4 M49.85,76.75
	l-1.8,0.3l-1.8,0.2h-1.2h-1.2h-1.1l-1.5-0.2l-1.3-0.4l-1.2-0.4l-1-0.5 M28.15,87.95l0.5,0.3l0.5,0.3l0.3,0.2l0.4,0.3l0.5,0.3
	l0.3,0.3l0.3,0.2l0.2,0.3l0.3,0.2l0.3,0.2 M106.75,67.95h-0.7 M121.75,85.85l0.3-0.3l0.5-1 M122.55,84.55l0.4-0.7 M106.55,96.35
	l-0.6,0.7l-0.6,0.6l-0.6,0.6l-0.8,0.6l-0.4,0.3l-0.5,0.3l-0.5,0.3l-0.4,0.2l-0.4,0.2l-0.4,0.2l-0.7,0.3 M100.65,100.65l-1,0.4
	l-1.3,0.5l-0.9,0.3l-0.7,0.1l-0.8,0.2h-0.3h-0.4h-0.3h-0.4l-0.4-0.2l-0.3-0.1l-0.2-0.3l-0.2-0.6 M75.25,103.55v0.8l-0.1,0.3
	l-0.2,0.4l-0.7,0.5l-0.4,0.2l-0.6,0.2h-0.1h-0.1l-0.4,0.1l-0.2,0.1h-0.2h-0.2l-0.4,0.1h-0.5l-0.4,0.1h-0.9h-0.9h-0.9l-1.4-0.1
	l-1.4-0.1l-0.5-0.1l-0.5-0.1h-0.5l-0.6-0.2l-0.4-0.1l-0.4-0.2l-0.4-0.1l-0.3-0.2l-0.4-0.2l-0.3-0.3l-0.3-0.4l-0.1-0.3l-0.1-0.4
	l0.1-0.4 M37.15,97.35l0.2,0.9l0.1,0.3v0.3l-0.3,0.3h-0.2l-0.2,0.1l-0.2-0.1l-0.4-0.1l-0.5-0.2l-0.3-0.2l-0.5-0.2l-0.4-0.2l-0.5-0.3
	l-0.4-0.2l-0.5-0.3 M58.95,72.45l-0.5,0.6l-0.7,0.6l-1,0.6l-1.1,0.6l-1.3,0.5l-1.4,0.6l-1.5,0.4l-1.6,0.4 M64.95,74.75v0.1l-0.1,0.1
	l-0.1,0.1l-0.1,0.1h-0.1v0.1h-0.1h-0.1v-0.1h-0.1v-0.1v-0.3v-0.5l0.1-0.5l0.1-0.6 M64.95,74.75h0.1 M65.05,74.75l0.3-0.4l0.3-0.5
	l0.3-0.7l0.2-0.4 M67.55,67.95v-0.2l-0.1-0.3 M67.45,67.45h-0.1h-0.2l-0.3,0.3l-0.2,0.3 M66.65,68.05l-0.1,0.1 M66.05,69.15l0.5-1
	 M64.45,73.15l0.3-0.8l0.2-0.8l0.5-1.2l0.3-0.8l0.3-0.4 M107.05,72.75l0.1,0.1h0.1h0.2h0.1h0.1l0.1-0.2l0.1-0.2v-0.2v-0.3v-0.4
	l-0.2-0.6l-0.3-0.7l-0.4-0.8l-0.5-0.9l-0.3-0.4l-0.3-0.5l-0.3-0.4l-0.4-0.5l-0.2-0.3l-0.3-0.4l-0.4-0.5l-0.3-0.3l-0.3-0.3l-0.5-0.6
	l-0.5-0.6l-0.4-0.5 M107.05,72.75l-0.3-0.3l-0.2-0.3l-0.4-0.5l-0.1-0.2l-0.1-0.3l-0.2-0.3l-0.2-0.2l-0.2-0.5l-0.2-0.3l-0.2-0.3
	l-0.1-0.2 M100.45,61.05l0.2,0.2l0.3,0.3l0.3,0.5 M104.85,69.35l-0.6-1l-0.5-0.9l-0.4-0.7l-0.3-0.6l-0.4-0.6l-0.4-0.7l-0.3-0.6
	l-0.3-0.6l-0.5-0.8l-0.3-0.6l-0.3-0.5l-0.2-0.4v-0.3 M101.25,62.05l1,1.2 M91.95,74.25l-0.1,0.6l-0.2,0.6l-0.4,0.7l-0.6,0.6
	l-0.6,0.6l-0.7,0.4l-0.7,0.3l-0.8,0.2l-0.7,0.1h-0.7l-0.7-0.2l-0.7-0.3l-0.5-0.4l-0.3-0.6l-0.2-0.5l-0.1-0.6 M96.55,79.65l0.5-0.3
	l0.6-0.4l0.5-0.5l0.4-0.4l0.4-0.5l0.3-0.4l0.3-1.1 M99.45,74.85l0.1,0.6v0.6 M98.05,73.05l-0.8-1.5l-0.9-1.6l-0.9-1.6l-1-1.6
	l-0.9-1.6l-0.9-1.5l-0.8-1.3l-0.7-1.1l-0.6-0.8l-0.4-0.7l-0.3-0.3l-0.2-0.1 M67.15,67.05l-0.7,0.8l-0.6,0.8l-0.5,0.5l-0.5,0.7
	l-0.6,0.7l-0.7,1l-0.8,1.1l-0.7,1.2l-0.3,0.6l-0.2,0.6 M61.55,75.05l-0.2,0.6l-0.1,0.5l0.1,0.4l0.1,0.3l0.4,0.3l0.6,0.1l0.6-0.2
	l0.6-0.3l0.6-0.4l0.6-0.6 M67.15,67.05h0.1v-0.1 M67.25,66.95l0.4-0.4l0.1-0.2l0.1-0.1l0.1-0.1v0.1v0.2l-0.1,0.2v0.4l-0.1,0.4
	l-0.2,0.4l-0.3,1.1 M67.25,68.95l-0.2,0.9l-0.3,0.9l-0.3,1l-0.3,0.9l-0.3,0.9l-0.3,0.8l-0.3,0.7l-0.4,0.6 M64.85,75.65v0.1
	 M83.85,60.35v-0.1 M76.15,82.25l0.4-0.6l0.5-0.7l0.5-0.9l0.8-1.7l0.4-1l0.4-1.1l0.3-1.1l0.3-1.2l0.3-1.2l0.2-1.2l0.1-1.3l0.2-1.2
	v-1.2v-1.1v-1.1l-0.1-0.9l-0.2-0.9l-0.2-0.8l-0.3-0.6l-0.3-0.5l-0.3-0.4l-0.4-0.3l-0.5-0.1h-0.3 M80.05,77.95l-0.1,0.6v0.6l0.1,0.7
	l0.3,0.5l0.2,0.4l0.3,0.3l0.4,0.3l0.6,0.3l0.6,0.4 M91.95,74.25l-0.1-0.7l-0.2-0.6l-0.4-0.5l-0.5-0.4l-0.6-0.3l-0.6-0.1l-0.8-0.1
	l-0.8,0.1l-0.7,0.2l-0.8,0.3l-0.7,0.5l-0.6,0.5l-0.5,0.6l-0.4,0.7l-0.2,0.6l-0.1,0.7 M98.05,73.05l0.9,0.9l0.5,0.9 M88.25,71.15
	l1.2-0.2h1.4l1.3,0.1l1.4,0.2l1.3,0.3l1.2,0.4l0.6,0.3l0.8,0.5l0.6,0.3 M88.25,71.15l-1.4,0.4l-1.3,0.5l-0.8,0.5l-0.8,0.5l-0.8,0.6
	l-0.7,0.6l-0.6,0.7l-0.6,0.7l-0.4,0.6l-0.3,0.5l-0.5,1.2 M24.55,90.15l-0.3-1.1l-0.2-1l0.1-0.7l0.3-0.4l0.7-0.2 M96.55,79.65
	l-1.8,1.1l-2,0.9l-2.2,0.7l-2.1,0.4l-1.9,0.1l-1.7-0.2l-1.2-0.3l-1.2-0.3 M31.75,90.55l1.1,1l1.1,1.1l0.9,1.1l0.9,1.1l0.8,1.3
	l0.6,1.2 M60.55,103.15L60.55,103.15 M60.55,103.15l0.4-0.9l0.7-0.8l0.7-0.5l0.9-0.5l1.1-0.4l1.3-0.2l1.1-0.1h1.2l1.2,0.1l1,0.2
	l1.1,0.2l0.9,0.4l0.9,0.4l0.7,0.5l0.7,0.6l0.5,0.7l0.2,0.6 M75.15,103.45l0.1,0.1 M93.45,100.95v-0.9l0.3-1l0.6-1.2l0.8-1.2l1.2-1.3
	l1.3-1.1l1.4-1l1.4-0.9l1.3-0.6l1.2-0.6l1.2-0.3l1-0.3l0.6-0.1h0.8l0.7,0.1l0.5,0.2l0.4,0.4l0.2,0.5v0.6l-0.1,0.8l-0.3,0.8l-0.6,1.2
	l-0.8,1.3 M122.95,83.85l0.8-1.5l0.8-1.5l0.8-1.5l0.9-1.5l0.6-1.2l0.6-1.2l0.4-0.9l0.2-0.3 M72.95,27.05h-3.6l-4,0.2l-4.1,0.3
	l-4.2,0.5l-4.4,0.8l-4.4,0.9l-4.4,1.1l-4.4,1.4 M85.25,21.65l-0.5,0.8l-0.4,0.5l-0.4,0.4l-0.2,0.2l-0.1,0.2l-0.3,0.2l-0.3,0.3
	l-0.3,0.2l-0.4,0.4l-0.5,0.2l-0.3,0.2l-0.4,0.2l-0.6,0.3l-0.5,0.2l-0.5,0.2l-0.4,0.1l-0.7,0.2l-0.7,0.1l-0.6,0.1l-0.5,0.1l-0.6,0.1
	l-0.8,0.1h-1.1l-1.2,0.1 M109.45,7.95l-0.1-0.1h-0.1h-0.1h-0.2l-0.2,0.1l-0.2,0.1 M108.55,8.05l-0.1,0.2l-0.1,0.2v0.1 M109.75,8.35
	v-0.1l-0.1-0.1l-0.1-0.1l-0.1-0.1 M108.35,9.05l-0.1-0.1l-0.1-0.2 M109.75,8.65v-0.4 M108.35,8.55v0.5 M109.85,8.35v0.1l-0.1,0.2
	l-0.2,0.2l-0.1,0.1l-0.2,0.1l-0.3,0.1h-0.3h-0.1l-0.2-0.1 M112.45,2.15l-1.8-0.9l-1.7-0.6l-0.9-0.2l-0.8-0.1l-0.8-0.1l-1.6,0.1
	l-1.6,0.3l-1.6,0.5l-1.2,0.6l-1.2,0.6l-0.8,0.6 M87.25,18.35l-0.8,1.2l-1.3,2.2 M80.25,48.05L80.25,48.05l-0.3-0.2h-0.3l-0.2-0.1
	h-0.4 M79.05,47.75h-0.5 M82.95,49.65l-2.7-1.6 M83.65,51.55v-0.6 M83.65,50.85v-0.3 M83.65,50.55l-0.1-0.2l-0.1-0.3l-0.2-0.3
	l-0.3-0.1 M84.05,50.85v0.2 M57.45,51.05l-0.4,0.1l-0.4,0.2l-0.4,0.2l-0.2,0.3 M38.25,33.05L38.25,33.05l-0.1-0.1h-0.1l-0.1-0.1
	l-0.1-0.1l-0.2-0.1l-0.2-0.3l-0.3-0.3 M39.45,32.25l-0.8,0.3l-0.7,0.2h-0.1 M56.05,51.85l-1,2.2 M54.95,54.75v0.5 M54.95,54.35v0.4
	 M55.05,54.05L55.05,54.05l-0.1,0.3 M55.15,55.45l-0.2-0.1l-0.2-0.2l-0.1-0.2l-0.1-0.1v-0.2 M78.55,47.75l-21.1,3.3 M62.55,55.55
	l-0.2-0.4l-0.1-0.4 M130.35,22.55l0.1-0.9v-1v-0.8v-0.7l-0.1-0.7l-0.1-1.1l-0.2-0.9l-0.3-0.8l-0.4-1.2l-0.7-1.2l-0.6-0.9l-0.2-0.3
	l-0.4-0.4l-0.5-0.5l-0.7-0.7l-1.1-0.8l-0.9-0.6 M77.95,54.35l-0.1,0.6 M77.85,54.95l-0.1,0.3l-0.3,0.9l-0.3,0.6l-0.3,0.5l-0.4,0.6
	l-0.5,0.6l-0.7,0.6 M69.95,59.85l-1.7-0.6l-1.3-0.6l-0.8-0.4l-0.7-0.4l-0.7-0.4l-0.6-0.5l-0.8-0.6l-0.7-0.8 M27.25,20.15l-0.7-0.8
	l-0.8-0.8l-0.7-0.7l-0.5-0.5l-0.7-0.5l-0.5-0.3 M16.25,14.25h-0.8l-1,0.1l-1.1,0.2l-1.3,0.3l-1.3,0.6l-1.4,0.9l-0.7,0.5l-0.8,0.8
	l-0.7,1l-0.7,1 M128.85,35.95l0.4-3.1l0.3-2.8l0.3-2.7l0.3-2.6l0.2-2.2 M37.25,32.15l-1.3-1.6l-1.5-1.8l-1.7-2.1l-1.9-2.3l-2.1-2.4
	l-1.5-1.7 M75.25,59.05l-0.5,0.4l-0.5,0.2l-0.7,0.3l-0.7,0.1l-0.7,0.1l-0.7-0.1h-0.8l-0.7-0.2 M84.05,51.05l-4.6,9.9 M70.25,64.15
	l-15.1-8.7 M130.55,60.05l-0.3-1.6l-0.2-1.8l-0.3-1.7l-0.2-1.6l-0.2-1.7l-0.3-1.9l-0.2-2.1l-0.2-2l-0.1-1.8v-0.9v-0.8v-1.1v-1.5
	l0.1-1.8l0.2-1.9 M6.55,19.45l-0.4,0.6 M29.15,95.05h0.1 M15.65,79.25l0.6,1.3l0.6,1.1l0.5,0.9l0.4,0.8l0.7,0.9l0.5,0.8l0.5,0.7
	l0.7,0.9l0.7,0.9l0.7,0.7l0.5,0.6l0.8,0.8l0.9,0.9l0.8,0.8l0.9,0.8l0.6,0.5l0.8,0.7l1.1,0.8l0.7,0.5 M1.05,31.25l-0.3,1.1
	 M0.75,32.25l-0.3,1.4l-0.2,1.3v1.1l0.1,1l0.1,0.8l0.2,0.6v0.2v0.2l0.1,0.2l0.1,0.3l0.1,0.4l0.2,0.5v0.1v0.1l0.1,0.1 M128.55,73.25
	l0.2-0.5l0.5-1.3l0.5-1.6l0.5-1.7l0.3-1.8l0.2-2v-2.1l-0.2-2.1 M1.15,40.45l0.3,0.9l0.4,1.1l0.4,1.2l0.4,1.4l0.6,1.7l0.7,1.9
	l0.8,2.3l0.9,2.5 M5.65,53.55l0.7,2.2l0.8,2.3l0.7,2l0.6,1.9l0.6,1.6l0.4,1.3l0.6,1.6l0.6,1.7l0.8,1.8l0.8,2.1 M34.85,98.45l0.3,0.2
	l2.2,1l1.9,0.9l1.8,0.7l1.5,0.6l1.3,0.4l0.9,0.3l0.7,0.3l0.5,0.1l0.5,0.2l0.5,0.1l0.6,0.2l1.5,0.4l1.8,0.4l2.4,0.6l2.7,0.5l3,0.4
	l2.9,0.4l3.3,0.2l3.5,0.2h3.7l3.9-0.2l3.4-0.3l3.2-0.3l2.7-0.5l2.5-0.4l2-0.5l1.7-0.4l0.7-0.2l0.7-0.1l0.6-0.2l0.5-0.1l0.3-0.1
	l0.4-0.2l0.8-0.2l0.9-0.3l1.2-0.4l1.4-0.5l1.4-0.5l1.2-0.5l1.2-0.5l2.2-1.1l1.8-0.9l1.5-0.8l1.2-0.8l1.1-0.6l0.8-0.5l0.8-0.6l1-0.7
	l1.1-0.9l1.3-1.1l1.4-1.3l1.5-1.4l1-1.1l0.8-0.9l0.7-0.9l0.5-0.7 M108.95,76.05l-0.3-1.3l-0.3-1.1l-0.2-1l-0.2-0.8l-0.2-0.7
	 M100.35,60.95l-0.2-0.1l-0.8-0.4l-0.9-0.4l-1.1-0.3l-1-0.3l-0.8-0.2h-0.6l-0.7-0.1l-0.8-0.1h-1.1l-1.4,0.1l-1.3,0.2 M89.75,59.35
	l-3,0.4l-2.9,0.5 M64.65,70.05l-0.7,1l-1.6,1.9l-1.3,1.9l-1.2,1.7 M77.95,61.15l-1.3,0.2l-1.2,0.3l-0.9,0.3l-0.6,0.2l-0.6,0.2
	l-0.7,0.3l-1.1,0.7l-0.9,0.5l-0.7,0.5l-0.6,0.5l-0.6,0.5l-0.7,0.7l-0.2,0.3 M83.85,60.25l-1.2,0.2l-1.3,0.2l-1.6,0.2l-1.9,0.3
	 M128.05,74.25l0.5-1 M12.25,72.05l3.4,7.2"/>
</svg>
