<?xml version="1.0" encoding="utf-8"?>
<!-- Generator: Adobe Illustrator 19.0.0, SVG Export Plug-In . SVG Version: 6.00 Build 0)  -->
<svg version="1.0" id="Layer_1" xmlns="http://www.w3.org/2000/svg" xmlns:xlink="http://www.w3.org/1999/xlink" x="0px" y="0px"
	 width="222.7px" height="237.1px" viewBox="0 0 222.7 237.1" enable-background="new 0 0 222.7 237.1" xml:space="preserve">
<g id="XMLID_2_">
	
		<path id="XMLID_544_" fill="none" stroke="#000000" stroke-width="0.25" stroke-linecap="round" stroke-linejoin="round" stroke-miterlimit="10" d="
		M20.25,99.25l-0.6-0.4l-1,0.2l-0.8,0.4 M17.85,99.45l-1,0.6l-0.8,1l-0.6,1l-0.6,1.2l-0.4,1.2l-0.2,1l0.2,1l0.4,0.8l0.6,0.4
		 M57.65,50.05l-0.8,0.2l-0.4,0.2 M70.45,55.65L70.45,55.65l0.2-0.2 M55.65,54.85l4.4-2.6 M54.45,51.45v-0.2 M69.85,55.65h0.2v0.2
		 M63.65,59.45l4.2-2.6 M51.85,152.65l-2.6-1.6 M61.45,128.65l-1.8,1 M68.65,141.05l-1.8,1.2 M57.45,131.25l-1.8,1 M64.45,143.25
		l-1.8,1 M53.65,133.45l-1.8,1.2 M60.45,145.45l-1.8,1 M51.85,100.65l-0.2,0.2 M55.85,107.45l-0.4,0.2 M60.05,114.45l-0.6,0.2
		 M80.25,149.45l-0.6,0.4 M84.25,156.45l-0.4,0.4 M88.05,163.45l-0.2,0.2 M105.05,183.45l-2.4-1.6 M69.45,56.25l-5,3.2 M67.85,59.05
		l1.2-0.6 M70.85,55.65h-0.4 M113.25,179.05l5-2.8 M116.65,174.85l-2.2,1.2 M45.05,77.65v-2.8 M155.25,181.25l0.4-0.2
		 M151.65,179.65l4.4-2.6 M156.05,172.85l-4.4,2.4 M70.65,113.25l-2.4,1.2 M86.65,140.85l-2.4,1.4 M80.05,119.65l-1.6,0.8
		 M85.85,129.45l-1.6,1 M117.25,171.25l-0.4,0.2 M116.65,174.45l-2.4-1.6 M66.65,106.25l-2.2,1.4 M90.65,147.65l-2.2,1.4
		 M84.05,117.05l-1.6,1 M89.85,127.45l-1.6,0.8 M125.25,175.85l-0.4,0.2 M151.45,167.65l2.4,1.4 M151.85,174.65l4.4-2.4
		 M135.85,102.05h0.2h0.2h0.4h0.2h0.4 M62.85,99.45l-2.2,1.4 M94.65,154.45l-2.4,1.4 M139.85,175.25l1.4,0.8 M130.85,182.45
		l-2.6-1.4 M87.85,114.65l-1.6,1 M93.85,125.25l-1.6,1 M151.45,159.25l2.4,1.4 M135.85,99.85h0.2l0.2-0.2h0.4h0.2l0.4,0.2
		 M139.85,166.85l1.4,1 M151.45,151.05l2.4,1.2 M126.85,93.65l2.6-1.6 M115.05,167.65l-0.2,0.2 M139.85,158.65l1.4,0.8
		 M115.05,130.65l-0.2,0.2 M136.45,105.25l-0.4-0.8l-0.2-0.8l-0.2-0.6 M67.25,61.05l-13,8 M116.65,113.25l16.2-9.4 M135.65,102.05
		v-1.8 M139.85,150.25l1.4,0.8 M49.45,75.05l2.2-3.8 M111.45,179.45h-4.2 M151.45,134.25l2.4,1.4 M151.65,123.65l4.4-2.8
		 M132.65,101.65l-17.4,10 M135.65,99.25l-0.2-1l-0.4-1.6 M130.45,92.85l-3.8,2.4 M107.65,99.85l13.4-7.6 M139.85,142.05l1.4,0.8
		 M107.25,113.25h4.2 M102.85,105.65l2-3.6 M133.85,112.45l0.8-0.6 M132.65,110.85l-13.4,7.8 M140.25,177.45l14.4-7.6
		 M151.65,119.45l4.4-2.6 M145.65,101.05h-0.2 M116.45,120.65l-2,3.8 M137.05,178.65h-4.2 M137.05,96.45l0.4,1.6 M137.65,100.25v1.8
		 M137.65,102.65L137.65,102.65l0.2,0.6v0.4 M142.05,102.25l0.4-1 M156.65,182.25L156.65,182.25l-1.2,0.4 M155.85,129.85l-6.6,3.8
		 M156.05,122.05l-4.2,2.6 M128.65,132.45l-0.6,0.8 M136.85,140.25l-4-0.2 M21.45,123.45l-0.8-0.2h-0.8l-1,0.4l-1,0.8l-0.8,0.8
		l-0.8,1.2l-0.6,1.2l-0.2,1.2l-0.2,1.2l0.2,1l0.2,0.8l0.6,0.4 M21.45,62.25l-0.8-0.2l-0.8,0.2l-1,0.4 M18.85,62.65l-1,0.6l-0.8,1
		l-0.8,1l-0.6,1.2l-0.2,1.2l-0.2,1.2l0.2,1l0.2,0.8l0.6,0.6 M48.45,62.25l0.6-0.2l1,0.2l0.8,0.4 M50.85,62.65l1,0.6l0.8,1l0.8,1
		l0.4,0.6 M141.05,184.05l0.4-0.6l0.4-0.8l0.2-1l-0.2-1.2v-0.4 M141.05,193.65l-0.8-0.2h-0.8l-1,0.4l-1,0.8l-0.8,0.8l-0.8,1.2
		l-0.6,1.2l-0.4,1.2v1 M134.85,200.05v1.2l0.4,0.6l0.6,0.6 M141.05,120.45l0.4-0.4l0.4-0.8l0.2-1l-0.2-1.2l-0.4-1.2l-0.4-1.2l-0.8-1
		l-0.8-1l-1-0.6l-1-0.4l-0.8-0.2l-0.8,0.2 M141.05,130.25l-0.8-0.2h-0.8l-1,0.4l-1,0.8l-0.8,0.8l-0.8,1.2l-0.6,1.2l-0.4,1.2v1
		 M134.85,136.65v1l0.4,0.8l0.6,0.6 M168.65,175.05L168.65,175.05h0.2 M179.05,177.65L179.05,177.65 M182.05,181.05L182.05,181.05
		v0.2 M182.65,181.25h0.2 M169.05,175.45L169.05,175.45l-0.2-0.2 M178.85,177.65L178.85,177.65h0.2 M175.45,179.05L175.45,179.05
		 M176.25,179.25L176.25,179.25v-0.2 M179.05,177.45l0.2-0.2h0.2h0.2 M179.05,173.45L179.05,173.45h0.2 M168.85,172.25v2.6
		 M169.65,175.65l5,2.8 M176.65,178.85l2-1.2 M179.05,176.85v-2.8 M171.25,171.65l4,2.4 M174.85,174.65l-4.4-2.6 M179.05,173.45
		L179.05,173.45v-0.2 M176.25,174.25l1.8-1.2 M178.65,173.65l-2,1.2 M175.65,179.05L175.65,179.05h0.2h0.2 M176.25,175.45v3
		 M175.45,178.45v-3 M175.65,175.05L175.65,175.05h0.2h0.2 M176.25,174.85L176.25,174.85v-0.2h-0.2v-0.2 M175.45,174.85
		L175.45,174.85l0.2-0.2l0.2-0.2 M183.05,181.05l0.8-0.6 M179.85,174.25v2.8 M179.05,177.85l0.2,0.2h0.2l0.2-0.2 M179.05,177.85
		h-0.2 M178.05,178.85l3.4,1.8 M182.05,181.05h0.2h0.2h0.2 M182.85,173.85v6.2 M182.05,180.05v-5.8 M176.05,168.45v-0.2
		 M180.05,173.65v0.2 M180.85,173.65v0.2 M165.65,143.85L165.65,143.85 M165.45,144.45L165.45,144.45 M168.85,151.25L168.85,151.25
		 M162.45,168.25L162.45,168.25v-0.2 M175.85,168.25L175.85,168.25l0.2-0.2 M169.45,171.85L169.45,171.85h0.2 M168.85,171.85
		L168.85,171.85 M169.25,151.45h-0.2 M162.25,167.85L162.25,167.85 M169.25,151.45L169.25,151.45l0.2-0.2v-0.2h0.2 M162.65,155.25
		L162.65,155.25 M162.25,155.85L162.25,155.85 M176.65,167.85L176.65,167.85h-0.2h-0.2 M176.05,155.85h0.2h0.2h0.2 M175.65,155.25
		l0.2-0.2v-0.2l0.2-0.2 M174.85,154.85l-4.8-2.8 M168.45,152.05l-4.8,2.8 M176.05,166.45v-9 M170.45,171.25l4.8-2.8 M162.45,157.45
		v9 M163.25,168.45l4.8,2.8 M176.05,155.85v-0.2h-0.2v-0.2 M170.05,158.45l4.8-2.8 M175.25,156.45l-4.8,2.8 M163.65,155.65l4.8,2.8
		 M162.45,155.85v-0.2v-0.2h0.2 M168.05,159.25l-4.8-2.8 M169.45,171.65L169.45,171.65l-0.2,0.2h-0.2v-0.2 M169.65,161.05v9.2
		 M168.85,170.25v-9.2 M168.85,159.65h0.2h0.2h0.2 M169.65,159.45L169.65,159.45l-0.2-0.2v-0.2h-0.2 M168.85,159.45L168.85,159.45
		v-0.2l0.2-0.2 M169.85,141.65l-3.4,1.8 M181.45,173.45l3.6-2.2 M176.05,168.45h0.2h0.2h0.2 M176.05,168.45l-0.2-0.2 M168.85,151.45
		v-0.2 M169.45,150.85L169.45,150.85l-0.2-0.2h-0.2v0.2 M170.45,151.25l4.8,2.8 M176.85,155.65l-0.2-0.2v-0.2v-0.2l-0.2-0.2h-0.2
		 M176.85,157.45v9 M174.05,170.25l5.2,3 M165.45,145.65v6.8 M185.05,150.65l-3.6,2 M181.05,151.85l3.4-1.8 M165.85,143.85h-0.2v0.2
		v0.2h-0.2 M178.25,151.85l-11-6.4 M167.65,144.85l11,6.4 M180.05,171.05v-15.6 M180.85,173.65l-0.2,0.2h-0.2h-0.2 M180.85,155.45
		v15.6 M180.65,152.25v0.2l0.2,0.2v0.2 M180.45,152.25v0.2h-0.2v0.2l-0.2,0.2 M180.85,153.05h-0.2h-0.2h-0.2 M208.05,145.05v-0.4
		 M47.25,8.05h-0.4 M58.85,6.45l0.4-0.4l0.4-0.8l0.2-1l-0.4-0.8l-0.4-1l-1-0.6l-1-0.8l-1.4-0.4l-1.4-0.4h-1.6h-1.6l-1.6,0.2
		l-1.4,0.6l-1.2,0.6l-0.8,0.6l-0.8,1l-0.2,0.8v1l0.4,0.8l0.8,0.8l1,0.8 M182.65,86.45l-0.2-0.2 M194.45,84.65l0.2-0.4l0.4-0.8l0.2-1
		l-0.2-0.8l-0.6-0.8l-0.8-0.8l-1.2-0.8l-1.2-0.4l-1.6-0.4h-1.6h-1.6l-1.4,0.2l-1.4,0.6l-1.2,0.6l-1,0.8l-0.6,0.8l-0.4,0.8l0.2,1
		l0.4,0.8l0.6,0.8l1,0.8 M39.45,77.05v-0.2 M84.05,2.85L84.05,2.85v0.2v0.4v0.4 M70.25,33.65v0.2 M80.85,33.65v0.2 M221.45,221.05
		l-0.4,0.2l-0.4,0.6 M219.65,222.65l0.2-0.4 M220.05,222.25l0.4-1.4v-1l-0.2-0.6v-0.4l-0.2-0.2v-0.2 M220.25,218.45h1.2 M88.65,4.05
		l-0.4-0.2h-0.8 M210.25,74.25h-0.4l-0.6-0.2 M207.25,186.05h-0.2 M212.45,176.85L212.45,176.85 M215.05,152.65L215.05,152.65
		 M211.85,146.85l-3.8-2.2 M213.65,77.65l-0.6-0.6l-0.6-0.6l-0.8-0.4l-1-0.4 M207.05,144.05l-1-0.6 M220.85,100.65l-0.4-0.6
		l-0.6-0.6l-1-0.4l-0.8-0.4 M222.45,109.65v0.4l-0.2,0.8l-0.8,2 M222.45,107.25v-0.2h-0.2 M215.25,96.45l-6-18.8 M208.45,75.45
		L208.45,75.45v-0.2h-0.2v-0.2 M192.85,66.05l-92-53 M85.85,4.25h-0.2l-0.4-0.2h-0.2h-0.2h-0.2 M80.45,3.85l-16.8,0.2 M43.45,11.05
		l-7.2,4.2 M218.25,219.65l-11.4,6.6 M220.05,214.25v-27 M219.25,177.05v-37.4 M220.05,130.65v-13.8 M213.45,99.85l-14.2,8.2
		 M218.25,115.65l-11.4,6.6 M220.25,113.45l0.2-0.8v-2.2 M219.45,105.65l-0.2-0.8l-0.8-1.8l-0.8-1.8 M25.65,141.85L25.65,141.85
		l-0.4-0.4 M38.45,78.05l-3.8,2 M32.25,76.85l1.8-1 M19.25,32.65l0.2,0.4l0.2,0.6 M33.85,50.85l-1.6,0.8 M23.85,18.65l0.4-0.2
		 M19.25,26.25v0.2l0.2,0.6 M25.05,24.45l0.2-0.8l0.4-0.8l0.6-1l0.6-0.6l0.6-0.8 M31.25,145.05l-0.4-0.4l-0.4-0.6 M151.25,185.05
		l-3.8,2.2 M182.65,232.45l-0.2-0.2l-0.4-0.6 M188.05,235.65L188.05,235.65l-0.4-0.6 M198.85,231.45l-0.2,1.4 M192.65,231.65
		l0.8,0.2h1h1l0.8-0.2l1-0.2 M30.25,28.25l0.2-0.8l0.4-1l0.6-1l0.6-1l0.6-0.8 M191.85,225.05l1,0.4l1,0.2h1h1.2l1-0.2 M34.25,16.25
		l-4.6,2.8 M29.65,19.85l2,1.2 M52.85,33.05l114.4,66.2 M204.25,227.65l-4.6,2.6 M199.05,144.05v69.4 M198.85,225.45v2
		 M190.85,213.45v-69.4 M163.05,106.05l-114.2-66 M21.05,111.85v9.8 M21.05,76.45v19.8 M21.05,38.05v20.6 M48.85,153.25l114.2,66
		 M186.25,110.25l1.8,1 M181.85,115.65l0.2-0.8l0.4-1l0.4-1l0.6-1l0.8-0.8 M191.85,133.25l1,0.2l1,0.2l1,0.2l1.2-0.2l1-0.2
		 M198.85,127.45v2.6 M204.25,123.65l-4.6,2.8 M196.25,109.85l-4.6,2.6 M192.65,127.25l0.8,0.2l1,0.2h1l0.8-0.2h1 M192.65,114.25
		l0.2,0.2l2.6,2.6l1.8,3.2 M187.25,118.25l0.4-0.8l0.4-1l0.4-0.8l0.6-0.8l0.6-0.8"/>
	
		<path id="XMLID_3_" fill="none" stroke="#000000" stroke-width="0.5" stroke-linecap="round" stroke-linejoin="round" stroke-miterlimit="10" d="
		M6.25,91.05l-0.6-0.2h-1l-0.8,0.4 M3.85,91.25l-1,0.8l-0.8,0.8l-0.8,1l-0.4,1.2l-0.4,1.2l-0.2,1.2l0.2,1l0.4,0.6l0.4,0.6
		 M45.25,142.45L45.25,142.45l-0.2-1.8 M52.05,152.85l-1.4-1l-0.2-0.2 M46.85,58.05v0.6 M46.85,58.65h0.2 M56.45,50.45l-0.2,0.2
		 M63.65,60.05h-0.4l-0.2-0.2 M63.05,59.85l-8.2-4.6 M54.85,55.25l-1.4-0.8l-1.2-0.2l-1.4-0.2l-1.2,0.4l-1,0.6l-0.8,0.8l-0.4,1.2
		l-0.4,1.4l-0.2,1.4l0.2,1.8l0.2,1.2 M59.05,62.65l-0.6-1.2l-1-1.2l-1.2-1.2l-1-0.8l-1.2-0.6l-1.2-0.2h-1l-0.8,0.2l-0.8,0.8
		l-0.6,0.8l-0.2,1.2v1.2 M95.05,154.25l2.2,1.2 M105.25,183.65l-53.2-30.8 M74.25,62.65l2.4-1.6 M71.25,60.85l2.4-4.2 M69.45,57.85
		l2.2-3.4 M69.45,57.85l-0.6,0.8l-0.4,0.4l-0.4,0.2h-0.4 M61.45,115.05l-0.2,1l-0.4,1.8v1.8v2l0.2,1.2 M73.65,144.45l0.8,0.6l1.6,1
		l1.8,1l1.6,0.6l1,0.2 M57.25,108.05l-0.8,1.6l-0.6,2l-0.2,2.4l-0.2,2.6l0.2,2.6v0.8 M73.25,150.45l0.6,0.4l2.2,1.6l2.2,1l2.2,1
		l2.2,0.4l1.8,0.2 M53.05,101.05l-1,2l-0.8,2.2l-0.8,2.6l-0.2,2.8l-0.2,2.8l0.2,3v0.8 M72.85,156.45l0.6,0.6l2.6,1.6l2.6,1.2
		l2.6,1.2l2.6,0.6l2.4,0.4h2.2 M70.45,111.45l-1,0.6 M74.45,107.25v0.2 M74.45,101.05v0.2 M74.45,62.45v0.2 M45.05,105.05v-30.6
		 M45.05,140.65v-17.6 M45.05,140.65v3.6 M112.45,179.45l-0.2,1.6l-0.4,1.4l-0.8,1l-0.8,0.6l-1,0.4h-1.2l-1.2-0.2l-1.6-0.6
		 M62.65,60.45l1-0.4 M69.25,59.85l-0.4-0.4l-0.6-0.2h-0.6 M45.05,74.45l0.2-1.6l0.4-1.2l0.6-1l0.8-0.6l1-0.4l1.2-0.2l1.4,0.4
		l1.4,0.6 M68.85,110.85l0.4,0.8l0.4,0.8l0.6,0.4l0.6,0.2 M87.05,140.65l-0.2,0.6v0.8l0.4,0.8l0.4,0.8 M64.65,103.65l0.2,0.6
		l0.4,0.6l0.6,0.8l0.6,0.4h0.6 M91.05,147.45l-0.2,0.6v0.8l0.2,0.8l0.6,0.8l0.4,0.4 M60.85,96.65L60.85,96.65l0.2,0.8l0.4,0.8
		l0.6,0.6l0.6,0.4h0.6 M95.05,154.25l-0.4,0.6v0.6l0.4,0.8l0.4,0.8l0.6,0.6 M148.25,160.65v-0.2 M140.85,156.65l-0.4-0.2h-0.2
		 M114.05,176.25l-0.4-1.4l-0.8-1.2l-0.4-0.4 M117.05,174.65l-1.2-0.4l-1,0.2l-0.6,0.6l-0.2,1.2 M148.05,178.45v-1.8 M144.45,182.05
		h0.6h1l0.8-0.6l0.6-0.8l0.4-1l0.2-1.2 M141.45,183.65l1.4,1l1.4,0.6l1.4,0.4h1.2l1.2-0.2l1-0.6l0.8-0.8l0.6-1.2l0.2-1.4l0.2-1.4
		 M150.85,180.05v-4.4 M150.85,175.65v-0.4l0.2-0.2 M70.85,113.05h1.4l1.2,0.4l1.4,0.4l0.8,0.6 M88.05,136.05v0.8l-0.2,1.4l-0.4,1.4
		l-0.4,1 M66.25,117.85l-0.8,0.6l-0.8,1.2l-0.6,1.2l-0.4,1.6v1.8 M63.65,124.25v1.8l0.4,2l0.6,2l0.8,2l1,2l1.2,1.8l1.4,1.8l1.4,1.6
		l1.6,1.2l1.6,1l1.6,0.8l1.4,0.6h1.4l1.4-0.2l1-0.2 M151.25,167.45l0.6-0.6l0.6-0.8l0.2-0.2 M147.85,160.25l0.4,0.2 M148.25,160.45
		l-8,4.6 M131.05,182.65l-14-8 M67.05,106.05h1.8l2,0.2l2.2,0.6l2,1l1,0.4 M93.45,138.65v1.2l-0.2,2.2l-0.6,2l-0.6,1.8l-1,1.6
		 M151.25,159.05l0.6-0.6l0.6-0.6l0.2-0.2 M140.05,173.65l11.2-6.2 M151.05,175.05l-0.2,0.2 M63.25,99.25l2.2-0.2h2.2l2.4,0.6
		l2.4,0.6l2.4,1.2l1.4,0.8 M98.85,141.45v1.6l-0.2,2.8l-0.6,2.4l-0.8,2.2l-1,2l-1.2,1.8 M151.25,150.85l0.6-0.6l0.6-0.8l0.2-0.2
		 M138.05,178.65l-0.2,1.6l-0.4,1.2l-0.6,1l-0.8,0.8l-1.2,0.4h-1l-1.4-0.2l-1.4-0.8 M140.05,165.25l11.2-6.2 M140.05,157.05
		l11.2-6.2 M124.25,91.65l3-5.2 M125.85,95.65l0.2-0.6l0.2-1h0.2 M126.45,94.05l3-5.2 M151.25,134.05l0.6-0.4l0.6-0.8l0.2-0.2
		 M140.05,148.65l6.4-3.6 M51.25,105.25L51.25,105.25l-0.4,2.8l-0.2,2.8 M77.85,158.85l0.8,0.4l2.6,1.4l2.6,1 M50.65,110.85v1
		 M69.25,59.85l2,1 M123.25,90.85l-52-30 M63.05,124.45l0.2,1.8l0.4,2l0.6,2l0.8,2.2l1,1.8l1.2,2l1.2,1.6l1.6,1.6l1.4,1.4l1.6,1
		l1.6,0.8l1.6,0.4l1.4,0.2l1.4-0.2l1.2-0.6l1-0.8l0.8-1l0.6-1.4l0.4-1.4v-1.8v-1.8l-0.4-2l-0.6-2.2l-0.8-2l-1-1.8l-1.2-2l-1.4-1.6
		l-1.4-1.6l-1.6-1.4l-1.6-1l-1.6-0.8l-1.4-0.4l-1.6-0.2l-1.2,0.2l-1.2,0.6l-1,0.8l-0.8,1l-0.6,1.4l-0.4,1.4L63.05,124.45
		 M78.25,120.65l0.6,0.6l0.6,0.2h0.6l0.4-0.4v-0.6v-0.8l-0.4-0.8l-0.4-0.8 M67.85,114.65l1.4,0.2l1.2,0.4l1.4,0.4l1.2,0.8l1.4,0.8
		l1.2,1l1.4,1.2l1.2,1.2 M66.65,110.65h-0.6l-0.4,0.6v0.6l0.2,0.8l0.4,0.8l0.4,0.6l0.6,0.6h0.6 M79.65,118.05l-1.6-1.6l-1.6-1.4
		l-1.6-1.4l-1.8-1l-1.6-0.8l-1.8-0.6l-1.6-0.4l-1.4-0.2 M82.05,118.25l0.6,0.6l0.6,0.2h0.6l0.4-0.2l0.2-0.6v-0.8l-0.2-0.8l-0.6-0.6
		 M64.05,107.85h1.8l2,0.2l2,0.6l2.2,0.8l2,1.4l2.2,1.4l2,1.8l2,2l1.8,2.2 M62.45,103.65l-0.4,0.2l-0.4,0.6v0.6l0.2,0.8l0.4,0.8
		l0.6,0.6l0.6,0.4l0.6,0.2 M83.65,116.05l-1.8-2.4l-2.2-2.2l-2.2-2l-2.2-1.6l-2.2-1.4l-2.2-1.2l-2.2-0.8l-2.2-0.6l-2-0.2h-2
		 M58.05,111.25l0.4-0.6l-0.2-0.8l-0.2-0.8l-0.4-0.6l-0.6-0.6l-0.6-0.4h-0.6l-0.4,0.2 M58.05,132.05l-0.8-2.8l-0.8-2.6l-0.6-2.6
		l-0.2-2.6v-2.4l0.2-2.4l0.6-2l0.8-1.8l0.8-1.6 M55.45,132.25l0.4,0.8l0.6,0.8l0.6,0.4h0.6l0.4-0.2l0.2-0.6l0.2-0.6l-0.4-0.8
		 M55.45,107.65l-1.2,1.8l-0.8,1.8l-0.6,2.2l-0.2,2.4l-0.2,2.4l0.2,2.8l0.2,2.6l0.6,3l0.8,2.8l1.2,2.8 M54.25,104.45l0.2-0.4v-0.8
		l-0.2-0.8l-0.4-0.8l-0.6-0.6l-0.6-0.4h-0.6l-0.6,0.2 M54.25,134.25l-1.4-3.2l-1-3.2l-0.8-3.2l-0.6-3.2l-0.2-3v-2.8l0.2-2.6l0.6-2.6
		l0.8-2.2l1-2l1.4-1.8 M51.45,134.65l0.6,0.8l0.6,0.6l0.6,0.4h0.6l0.4-0.2l0.2-0.6v-0.6l-0.2-0.8 M51.45,100.85l-1.2,1.8l-1.2,2
		l-0.8,2.4l-0.8,2.6l-0.2,2.6l-0.2,3l0.2,3l0.2,3.2l0.8,3.2l0.8,3.4l1.2,3.4l1.2,3.2 M64.05,142.25l-0.6-0.6l-0.6-0.2h-0.6l-0.4,0.2
		l-0.2,0.6v0.8l0.4,0.8l0.4,0.6 M82.05,152.65h-1.8l-2-0.2l-2-0.6l-2.2-0.8l-2-1.4l-2.2-1.4l-2-1.8l-2-2l-1.8-2.2 M83.65,156.85
		l0.6-0.2l0.2-0.6v-0.6l-0.2-0.8l-0.4-0.8l-0.6-0.6l-0.6-0.4l-0.6-0.2 M62.45,144.45l2,2.4l2,2.2l2.2,2l2.2,1.6l2.2,1.4l2.2,1.2
		l2.2,0.8l2.2,0.6l2.2,0.2h1.8 M67.85,139.85l-0.6-0.6l-0.6-0.2h-0.4l-0.4,0.4l-0.2,0.6v0.8l0.4,0.8l0.6,0.8 M78.25,145.85l-1.2-0.2
		l-1.4-0.4l-1.2-0.4l-1.4-0.8l-1.2-0.8l-1.4-1l-1.2-1.2l-1.4-1.2 M79.65,149.85h0.4l0.4-0.6v-0.6v-0.8l-0.4-0.8l-0.6-0.6l-0.6-0.6
		h-0.6 M66.65,142.45l1.4,1.6l1.6,1.4l1.8,1.4l1.6,1l1.8,0.8l1.6,0.6l1.6,0.4l1.6,0.2 M60.25,144.65l-0.6-0.6l-0.6-0.4h-0.6
		l-0.4,0.2l-0.2,0.6v0.6l0.2,0.8l0.4,0.8 M85.85,159.45l-2,0.2h-2.2l-2.4-0.4l-2.4-0.8l-2.6-1.2l-2.4-1.4l-2.4-1.8l-2.4-2l-2.4-2.2
		l-2.2-2.4l-2.2-2.8 M87.65,163.65l0.6-0.4l0.2-0.4v-0.8l-0.2-0.8l-0.6-0.8l-0.6-0.6l-0.6-0.4h-0.6 M58.45,146.65l2.2,2.8l2.4,2.8
		l2.4,2.4l2.4,2.2l2.6,1.8l2.6,1.6l2.6,1.4l2.6,1l2.4,0.8l2.6,0.4h2.2l2.2-0.2 M62.25,118.05l0.2-0.6l-0.2-0.8l-0.2-0.8l-0.6-0.8
		l-0.6-0.4l-0.6-0.4l-0.6,0.2l-0.4,0.4 M62.25,129.85l-0.6-1.6l-0.4-1.8l-0.2-1.6v-1.6v-1.4l0.2-1.4l0.4-1.2l0.6-1.2 M59.25,129.85
		l0.4,0.8l0.6,0.6l0.6,0.6h0.6h0.6l0.2-0.4l0.2-0.8l-0.2-0.8 M59.25,114.85l-0.6,1.4l-0.4,1.6l-0.4,1.8v1.8v2l0.4,2l0.4,2.2l0.6,2.2
		 M85.85,115.85l0.6,0.6l0.6,0.4h0.6l0.6-0.2l0.2-0.6v-0.6l-0.2-0.8l-0.6-0.8 M60.25,101.05l2.2-0.2h2.2l2.4,0.4l2.4,0.8l2.4,1.2
		l2.4,1.4l2.6,1.6l2.4,2.2l2.4,2.2l2.2,2.4l2,2.8 M58.45,96.85l-0.4,0.4l-0.2,0.4v0.8l0.2,0.8l0.4,0.8l0.6,0.6l0.6,0.4h0.6
		 M87.65,113.85l-2.2-2.8l-2.2-2.8l-2.6-2.4l-2.4-2.2l-2.6-1.8l-2.6-1.6l-2.6-1.4l-2.6-1l-2.4-0.8l-2.4-0.4h-2.4l-2.2,0.2
		 M88.05,149.25l-0.2,0.6v0.8l0.2,0.8l0.6,0.6l0.6,0.6l0.6,0.4h0.4l0.6-0.2 M88.05,128.45l1,2.8l0.6,2.6l0.6,2.6l0.2,2.6v2.4
		l-0.2,2.4l-0.6,2l-0.6,1.8l-1,1.6 M90.85,128.25l-0.6-0.8l-0.4-0.8l-0.6-0.4h-0.6l-0.6,0.2l-0.2,0.6v0.6l0.2,0.8 M90.85,152.85
		l1-1.8l0.8-1.8l0.6-2.2l0.4-2.4v-2.4v-2.8l-0.4-2.6l-0.6-3l-0.8-2.8l-1-2.8 M83.85,142.45v0.6v0.8l0.4,0.8l0.4,0.8l0.6,0.4l0.6,0.4
		l0.6-0.2l0.4-0.4 M83.85,130.65l0.6,1.6l0.4,1.8l0.2,1.6v1.6v1.4l-0.2,1.4l-0.4,1.2l-0.6,1.2 M86.85,130.65l-0.4-0.8l-0.6-0.6
		l-0.6-0.6l-0.6-0.2l-0.4,0.2l-0.4,0.4v0.8v0.8 M86.85,145.65l0.6-1.4l0.4-1.6l0.4-1.8v-1.8v-2l-0.4-2l-0.4-2.2l-0.6-2.2
		 M92.05,156.05l-0.4,0.4v0.8l0.4,0.8l0.4,0.8l0.6,0.6l0.6,0.4h0.6l0.4-0.2 M92.05,126.25l1.2,3.2l1,3.2l0.8,3.2l0.6,3.2l0.2,3v2.8
		l-0.2,2.6l-0.6,2.6l-0.8,2.2l-1,2l-1.2,1.8 M94.65,125.85l-0.4-0.8l-0.6-0.6l-0.6-0.4h-0.6l-0.4,0.2l-0.4,0.6v0.6l0.4,0.8
		 M94.65,159.65l1.4-1.8l1-2l1-2.4l0.6-2.6l0.4-2.6v-3v-3l-0.4-3.2l-0.6-3.2l-1-3.4l-1-3.4l-1.4-3.2 M112.45,119.65l0.4-1l0.8-2
		l0.4-2 M114.05,114.65l0.2,1.6l0.6,1.4l1,1.4l1.2,0.8 M52.05,70.45l53.2,30.8 M112.45,119.65l-3,0.8 M112.45,113.45v6.2
		 M112.45,173.25v6.2 M109.45,172.45l3,0.8 M149.45,135.05l1.8-1 M44.05,113.45v3.2l0.4,3.2l0.6,3.2l0.8,3.4l1,3.4l1.4,3.6l1.4,3.4
		l1.8,3.2l1.8,3.2l2,3.2l2.2,3l2.2,3l2.4,2.6l2.6,2.4l2.6,2.2l2.6,2l2.6,1.8l2.6,1.4l2.6,1.2l2.6,1l2.6,0.6l2.4,0.2h2.4l2.2-0.4
		l2.2-0.8l1.8-0.8l1.8-1.4l1.6-1.4l1.4-2l1.2-2l0.8-2.4l0.8-2.4l0.4-2.8l0.4-2.8v-3.2l-0.4-3.2l-0.4-3.2l-0.8-3.4l-0.8-3.4l-1.2-3.4
		l-1.4-3.4l-1.6-3.4l-1.8-3.2l-1.8-3.2l-2.2-3.2l-2.2-3l-2.4-2.6l-2.4-2.6l-2.6-2.4l-2.6-2.2l-2.6-1.8l-2.6-1.6l-2.6-1.4l-2.6-1
		l-2.6-0.6l-2.6-0.4l-2.4-0.2l-2.2,0.2l-2.2,0.6l-2,0.8l-1.8,1l-1.8,1.4l-1.4,1.8l-1.4,2l-1,2.2l-0.8,2.4l-0.6,2.6l-0.4,2.8V113.45
		 M90.85,167.45l1.4-0.2l2.2-0.6l2-0.8l1.8-1.2l1.8-1.4l1.4-1.8l1.4-2l1-2.2l0.8-2.6l0.6-2.6l0.4-3l0.2-3l-0.2-3.2l-0.4-3.2
		l-0.6-3.4l-0.8-3.4l-1-3.6l-1.4-3.4l-1.4-3.4l-1.8-3.4l-1.8-3.4l-2-3.2l-2.2-3.2l-2.4-2.8l-2.4-2.8l-2.4-2.6l-2.6-2.2l-2.8-2.2
		l-2.6-1.8l-2.8-1.6l-2.6-1.2l-2.6-1l-2.6-0.6l-2.6-0.4l-2.4-0.2l-2.4,0.4l-2.2,0.6l-2,0.8l-1.8,1.2l-1.6,1.4l-1.6,1.8l-0.2,0.2
		 M49.05,75.85l-1.4-0.6l-1.4,0.2l-0.8,1l-0.4,1.6 M45.05,123.65v20.6 M45.05,78.05v26.6 M45.05,144.25l0.4,1.8l0.8,2l1.4,1.6
		l1.4,1.4 M49.05,151.05l53.2,30.6 M102.25,181.65l1.6,0.6l1.2-0.2l0.8-1l0.4-1.6 M106.25,179.45v-66.2 M102.25,106.45l-53.2-30.6
		 M125.25,175.65l0.4,0.2l0.4,0.2h0.2h0.2 M115.65,129.45h-0.2v0.4l-0.2,0.4v0.4 M115.25,130.65v37 M115.25,167.65v0.4l0.2,0.6v0.4
		l0.4,0.6l0.2,0.4l0.4,0.4l0.4,0.4l0.4,0.2 M117.25,171.05l8,4.6 M124.25,91.65l0.8,1.2l0.6,1.2l0.2,1.6 M123.25,90.85l0.4,0.2
		l0.4,0.2l0.4,0.4 M105.25,101.25l1.6,1l1.2,1.2l1.2,1.4l1,1.6l0.8,1.6l0.8,1.8l0.4,1.8l0.2,1.8 M106.25,113.25l-0.4-1.8l-0.8-2
		l-1.2-1.8l-1.6-1.2 M154.05,169.25l0.8-0.6l0.6-0.8l0.4-0.8l0.2-1l-0.2-0.6l-0.4-0.6h-0.6l-0.8,0.2 M141.45,176.25l12.6-7
		 M141.45,172.05l-0.6,0.6l-0.6,0.8l-0.4,0.8l-0.2,1l0.2,0.6l0.4,0.6h0.6l0.6-0.2 M154.05,165.05l-12.6,7 M154.05,160.85l0.8-0.6
		l0.6-0.8l0.4-0.8l0.2-0.8l-0.2-0.8l-0.4-0.4l-0.6-0.2l-0.8,0.2 M141.45,167.85l12.6-7 M141.45,163.65l-0.6,0.6l-0.6,0.8l-0.4,1
		l-0.2,0.8l0.2,0.8l0.4,0.4h0.6l0.6-0.2 M154.05,156.65l-12.6,7 M154.05,152.45l0.8-0.4l0.6-0.8l0.4-1l0.2-0.8l-0.2-0.8l-0.4-0.4
		l-0.6-0.2l-0.8,0.4 M141.45,159.65l12.6-7.2 M141.45,155.45l-0.6,0.6l-0.6,0.6l-0.4,1l-0.2,0.8l0.2,0.8l0.4,0.4l0.6,0.2l0.6-0.2
		 M154.05,148.45l-12.6,7 M141.45,151.25l8-4.4 M141.45,147.05l-0.6,0.6l-0.6,0.8l-0.4,0.8l-0.2,1l0.2,0.6l0.4,0.6h0.6l0.6-0.2
		 M145.65,144.65l-4.2,2.4 M154.05,135.85l0.8-0.6l0.6-0.8l0.4-0.8l0.2-0.8l-0.2-0.8l-0.4-0.4l-0.6-0.2l-0.8,0.2 M152.45,136.85
		l1.6-1 M141.45,142.85l0.6-0.2 M139.65,141.25v0.6l0.2,0.8l0.4,0.4h0.6l0.6-0.2 M154.05,131.65l-5.4,3 M148.05,121.05v-2.8
		 M151.05,125.05L151.05,125.05l-0.2-0.4v-0.4 M150.85,124.25v-4.4 M150.85,119.85l-0.2-1.6l-0.2-1.8l-0.6-1.8l-0.8-1.8l-1-1.8
		l-1.2-1.6l-1.2-1.4l-1.4-1.2l-1.4-1l-1.4-0.6l-1.4-0.4h-1.2l-1.2,0.2l-1,0.6l-0.8,1l-0.6,1l-0.4,1.4v1.6 M134.85,110.65v1.2
		 M134.85,111.85v0.2l-0.2,0.2v0.2h-0.2v0.2h-0.2h-0.2l-0.2-0.2 M134.25,112.65l-0.4-0.2 M148.05,118.25l-0.2-1.4l-0.4-1.6l-0.6-1.4
		l-0.8-1.4l-1-1.4l-1-1l-1.2-0.8l-1.2-0.6l-1-0.2l-1,0.2l-0.8,0.4l-0.8,0.8l-0.2,0.8 M117.05,119.85l9.6,5.6 M138.05,140.25v38.4
		 M124.65,176.05l0.4,0.2h0.4h0.4h0.2l0.4-0.2l0.2-0.4v-0.4v-0.4 M116.65,171.45l8,4.6 M114.65,167.85v0.6l0.2,0.4l0.2,0.6l0.2,0.4
		l0.4,0.6l0.2,0.4l0.4,0.2l0.4,0.4 M114.65,130.85v37 M116.65,129.65h-0.4l-0.4-0.2h-0.2l-0.4,0.2l-0.2,0.2l-0.2,0.2l-0.2,0.4v0.4
		 M124.65,134.45l-8-4.8 M126.65,137.85v-0.4v-0.6l-0.2-0.4l-0.4-0.6l-0.2-0.4l-0.4-0.4l-0.4-0.4l-0.4-0.2 M126.65,174.85v-37
		 M114.05,125.25l-1.6-1.2l-1.6-1.4 M110.85,122.65l-1.4-2.2 M109.45,120.45v52 M110.85,171.85l-1.4,0.6 M110.85,171.85l1.6,0.2
		l1.6,0.6 M114.05,172.65l14,8.2 M128.05,180.85l1.4,0.6l1.4-0.4l0.8-1l0.2-1.4 M131.85,178.65v-38.6 M128.05,133.45l-14-8.2
		 M148.05,121.05l1.2,1.2l1,1.4l0.8,1.4 M138.45,126.85l9.6-5.8 M138.45,126.85l-0.8,0.4h-0.2 M131.85,140.05l-0.2-1.8l-0.8-2
		l-1.4-1.6l-1.4-1.2 M7.45,115.45l-0.8-0.4l-1,0.2l-0.8,0.4l-1,0.6l-0.8,1l-0.8,1l-0.6,1.2l-0.4,1.2v1.2v1l0.4,0.8l0.6,0.6
		 M7.45,54.25l-0.8-0.2h-1l-0.8,0.4 M4.85,54.45l-1,0.8l-0.8,0.8l-0.8,1.2l-0.6,1.2l-0.4,1.2v1v1.2l0.4,0.8l0.6,0.4 M148.85,208.25
		l0.2,1l0.2,0.8l0.6,0.6l0.8,0.2l0.8-0.2l1-0.4l1-0.6l0.8-1l0.8-1l0.6-1.2l0.2-1.2l0.2-1.2l-0.2-1l-0.2-0.8l-0.6-0.6l-0.8-0.2
		l-0.8,0.2l-1,0.4l-1,0.6l-0.8,1l-0.8,1l-0.6,1.2l-0.2,1.2L148.85,208.25 M96.85,151.65l1.4,0.8 M90.85,148.05l1.8,1.2
		 M148.85,144.85l0.2,1l0.2,0.8l0.6,0.6l0.8,0.2l0.8-0.2l1-0.4l1-0.6l0.8-1l0.8-1l0.6-1.2l0.2-1.2l0.2-1.2l-0.2-1l-0.2-0.8l-0.6-0.6
		l-0.8-0.2l-0.8,0.2l-1,0.4l-1,0.6l-0.8,1l-0.8,1l-0.6,1.2l-0.2,1.2L148.85,144.85 M27.45,136.25l-0.8,0.2 M31.85,140.05l0.6-0.6
		l0.6-0.8l0.4-1v-0.6 M22.25,134.85v0.2l0.8,1.4l1,1.4l1,1.2l1.2,0.8l1,0.8l1.2,0.4h1l1-0.2l0.8-0.6l0.6-0.8l0.4-1.2v-1.2
		 M32.25,137.05v-0.4 M28.85,136.45h-2.2 M26.65,136.45l-0.4-0.6 M187.25,226.45l-0.8-1 M186.45,225.45l-1-1.2 M185.45,224.25
		l-2.2,1.2 M185.45,224.25v-1.4 M187.25,226.85l-2,1.2 M185.45,222.85v0.4v0.2v0.4l0.2,0.4l0.2,0.2v0.4l0.2,0.4l0.4,0.2
		 M186.45,225.45l0.2,0.2l0.2,0.4l0.2,0.2h0.2 M190.25,231.45l0.6-0.4l0.6-0.8l0.4-1.2v-0.6 M185.85,217.85L185.85,217.85l-1.2-0.4
		h-1l-1,0.2l-0.2,0.2 M190.65,228.45v-1.4l-0.4-1.4l-0.6-1.6l-0.8-1.4l-1-1.2l-1-1.2l-1.2-1l-1-0.6l-1.2-0.4h-1l-1,0.2l-0.8,0.6
		l-0.6,0.8l-0.4,1v1.2v1.4l0.4,1.6l0.6,1.4l0.8,1.4l1,1.4l1,1.2l1.2,1l1,0.6l1.2,0.4h1l1-0.2l0.8-0.6l0.6-0.8l0.4-1V228.45
		 M187.25,227.85l-2,0.2 M185.25,228.05l-2-2.6 M183.25,225.45v-2.6 M183.25,222.85l2-0.2 M185.25,222.65l2,2.4 M187.25,225.05v2.8
		 M28.85,35.25l-0.8-1 M28.05,34.25l-1.2-1.4 M26.85,32.85l-2.2,1.4 M26.85,32.85v-1.2 M28.85,35.45l-2.2,1.2 M26.85,31.65l0.2,0.2
		v0.4v0.4l0.2,0.2l0.2,0.4v0.4l0.2,0.2l0.4,0.4 M28.05,34.25l0.2,0.2l0.2,0.2l0.2,0.2h0.2 M28.85,36.45l-2.2,0.2 M26.65,36.65
		l-2-2.4 M24.65,34.25v-2.8 M24.65,31.45h2 M26.65,31.45l2.2,2.4 M28.85,33.85v2.6 M31.85,40.05l0.6-0.4l0.6-0.8l0.4-1v-0.6
		 M27.45,26.65L27.45,26.65l-1.2-0.4h-1l-1,0.2h-0.2 M32.25,37.25v-1.4l-0.4-1.4l-0.6-1.6l-0.8-1.4l-1-1.4l-1-1.2l-1.2-0.8l-1-0.8
		l-1.2-0.4h-1l-1,0.2l-0.8,0.6l-0.6,0.8l-0.4,1.2v1.2v1.4l0.4,1.4l0.6,1.6l0.8,1.4l1,1.4l1,1l1.2,1l1,0.6l1.2,0.4l1,0.2l1-0.4
		l0.8-0.4l0.6-0.8l0.4-1.2V37.25 M187.25,126.65l-0.8-1 M186.45,125.65l-1-1.2 M185.45,124.45l-2.2,1.2 M185.45,124.45v-1.4
		 M187.25,127.05l-2,1.2 M185.45,123.05v0.4v0.2v0.4l0.2,0.4l0.2,0.2v0.4l0.2,0.2l0.4,0.4 M186.45,125.65l0.2,0.2l0.2,0.2l0.2,0.4
		h0.2 M187.25,128.05l-2,0.2 M185.25,128.25l-2-2.6 M183.25,125.65v-2.6 M183.25,123.05l2-0.2 M185.25,122.85l2,2.4 M187.25,125.25
		v2.8 M190.25,131.65l0.6-0.4l0.6-1l0.4-1v-0.6 M185.85,118.05L185.85,118.05l-1.2-0.4h-1l-1,0.2l-0.2,0.2 M190.65,128.65v-1.4
		l-0.4-1.4l-0.6-1.6l-0.8-1.4l-1-1.4l-1-1l-1.2-1l-1-0.6l-1.2-0.4l-1-0.2l-1,0.4l-0.8,0.4l-0.6,0.8l-0.4,1.2v1.2v1.4l0.4,1.6
		l0.6,1.4l0.8,1.4l1,1.4l1,1.2l1.2,0.8l1,0.8l1.2,0.4h1l1-0.2l0.8-0.6l0.6-0.8l0.4-1.2V128.65 M48.05,17.85l0.2,0.2l0.2,0.6l0.6,0.6
		l0.8,0.6l1,0.4h1.2h1.2l1.2-0.2l1-0.4l0.6-0.6l0.4-0.6l0.2-0.6 M48.25,17.25v0.6l0.2,0.6l0.6,0.6l0.8,0.6l1,0.2l1.2,0.2h1.2
		l1.2-0.2l1-0.4l0.6-0.6l0.4-0.8l0.2-0.6v-0.2 M48.05,16.65l0.2,0.2l0.2,0.8l0.6,0.6l0.8,0.4l1,0.4l1.2,0.2l1.2-0.2l1.2-0.2l1-0.4
		l0.6-0.6l0.4-0.6l0.2-0.6 M48.25,16.05v0.6l0.2,0.6l0.6,0.6l0.8,0.6l1,0.4h1.2h1.2l1.2-0.2l1-0.4l0.6-0.6l0.4-0.6l0.2-0.8v-0.2
		 M48.05,15.65h0.2l0.2,0.8l0.6,0.6l0.8,0.4l1,0.4l1.2,0.2h1.2l1.2-0.4l1-0.4l0.6-0.6l0.4-0.6l0.2-0.4 M48.25,15.25v0.2l0.2,0.8
		l0.6,0.6l0.8,0.4l1,0.4l1.2,0.2l1.2-0.2l1.2-0.2l1-0.4l0.6-0.6l0.4-0.6l0.2-0.6 M49.45,5.65l2-0.2 M51.45,5.45l2-0.4 M53.45,5.05
		v-3 M55.05,6.05l-1.6-1 M55.25,6.25l-0.2-0.2 M48.45,15.25L48.45,15.25l0.6,0.6l0.8,0.6l1,0.2l1.2,0.2h1.2l1.2-0.2l1-0.6l0.6-0.4
		l0.4-0.4 M49.45,5.65v-3 M55.25,6.25l-0.2-0.2 M55.05,6.05l-0.4-0.2l-0.4-0.2l-0.4-0.2h-0.6h-0.4l-0.4-0.2l-0.6,0.2h-0.4
		 M51.45,5.45h-0.4l-0.4,0.2l-0.4,0.2h-0.4 M55.45,6.05l-4.2,0.8 M48.25,5.05l3,1.8 M48.25,5.05l1.2-2.4 M49.45,2.65l4-0.6
		 M56.45,3.85l-3-1.8 M55.45,6.05l1-2.2 M44.65,11.45v0.6l0.4,1l0.8,0.8l1,0.8 M46.85,14.65l1.2,0.6l1.6,0.4l1.6,0.2h1.6l1.6-0.2
		l1.4-0.2l1.4-0.6l1.2-0.6l0.8-0.8l0.6-1l0.4-0.8v-0.2 M46.85,8.05l-1-0.8l-0.8-0.8l-0.4-1v-1l0.2-0.8l0.6-1l0.8-0.6l1.2-0.8
		l1.4-0.4l1.6-0.4l1.6-0.2h1.6l1.6,0.4l1.4,0.4l1.2,0.6l1,0.6l0.8,1l0.4,0.8l0.2,1l-0.4,0.8l-0.6,1l-0.8,0.8l-1.2,0.6l-1.4,0.6
		l-1.4,0.2l-1.6,0.2h-1.6l-1.6-0.2l-1.6-0.4l-0.8-0.6 M47.25,7.45l1.2,0.6l1.4,0.4l1.6,0.2h1.6l1.6-0.2l1.4-0.4l1.2-0.4l1.2-0.8
		l0.4-0.4 M183.65,96.05v0.2l0.2,0.6l0.6,0.8l0.8,0.4l1.2,0.4h1.2h1.2l1-0.2l1-0.4l0.8-0.6l0.4-0.6v-0.6 M183.65,95.45v0.6l0.2,0.6
		l0.6,0.6l0.8,0.6l1.2,0.2l1.2,0.2h1.2l1-0.2l1-0.4l0.8-0.6l0.4-0.6v-0.8v-0.2 M183.65,94.85v0.2l0.2,0.8l0.6,0.6l0.8,0.4l1.2,0.4
		l1.2,0.2l1.2-0.2l1-0.2l1-0.4l0.8-0.6l0.4-0.6v-0.6 M183.65,94.25v0.6l0.2,0.6l0.6,0.6l0.8,0.6l1.2,0.4h1.2h1.2l1-0.2l1-0.4
		l0.8-0.6l0.4-0.6v-0.8v-0.2 M183.65,93.85L183.65,93.85l0.2,0.8l0.6,0.6l0.8,0.4l1.2,0.4l1.2,0.2h1.2l1-0.4l1-0.4l0.8-0.6l0.4-0.6
		v-0.4 M183.65,93.45v0.2l0.2,0.8l0.6,0.6l0.8,0.4l1.2,0.4l1.2,0.2l1.2-0.2l1-0.2l1-0.4l0.8-0.6l0.4-0.6v-0.6 M185.05,83.85l1.8-0.2
		 M186.85,83.65l2.2-0.4 M189.05,83.25v-3 M190.45,84.25l-1.4-1 M190.85,84.45l-0.4-0.2 M183.85,93.45L183.85,93.45l0.6,0.6l0.8,0.6
		l1.2,0.2l1.2,0.2h1.2l1-0.2l1-0.6l0.8-0.4l0.2-0.4 M184.85,83.85v-3 M190.65,84.45l-0.2-0.2 M190.45,84.25l-0.4-0.2l-0.4-0.2
		l-0.4-0.2h-0.4h-0.6h-0.4h-0.4h-0.6 M186.85,83.65h-0.4l-0.4,0.2l-0.4,0.2l-0.2,0.2 M190.85,84.45l-4,0.6 M183.85,83.25l3,1.8
		 M183.85,83.25l1-2.4 M184.85,80.85l4.2-0.6 M191.85,82.05l-2.8-1.8 M190.85,84.45l1-2.4 M180.05,89.65l0.2,0.6l0.4,1l0.6,0.8
		l1.2,0.8 M182.45,92.85l1.2,0.6l1.4,0.4l1.6,0.2h1.6l1.6-0.2l1.6-0.2l1.4-0.6l1-0.6l1-0.8l0.6-0.8l0.2-1v-0.2 M195.65,83.05v0.2
		l-0.2,1l-0.6,0.8l-1,0.8l-1,0.6l-1.4,0.6l-1.6,0.2l-1.6,0.2h-1.6l-1.6-0.2l-1.4-0.4l-1-0.4 M182.45,86.25l-1.2-0.8l-0.6-0.8l-0.4-1
		l-0.2-0.6 M182.65,85.65l1.2,0.6l1.4,0.4l1.6,0.2h1.6l1.6-0.2l1.4-0.2l1.4-0.6l1-0.8l0.6-0.4 M42.05,64.65v-9.4 M39.45,77.05
		l0.6-1.2l0.4-0.4 M39.05,77.65l0.4-0.6 M29.25,15.45l0.6-0.4l1.2-0.2h1.2l1.4,0.4l1.4,0.6 M222.45,182.85v-0.2h-0.2h-0.6l-1.6,0.2
		 M205.05,227.25l-0.2,1.6l-0.4,1.2l-0.6,1.2l-0.8,0.8l-0.4,0.4 M156.25,83.05v-0.8v-0.4 M156.25,83.45v0.8 M207.45,144.25l0.6,0.4
		l0.6,0.4l0.4,0.6v0.2 M219.25,183.25l1-0.6l0.6-0.6v-0.4 M205.85,143.25l1.6,1 M220.05,132.85l1.6-2.2l0.6-1.6l0.2-1.8v-1.2
		 M186.25,98.25v0.2l1,0.2h1.2l1-0.2l0.2-0.2 M50.65,20.05h0.2l1,0.2h1l1.2-0.2 M62.65,31.85l-27.6-16 M70.25,33.65h-1h-1l-1.2-0.2
		l-1-0.2l-0.8-0.2l-1-0.4l-0.8-0.4l-0.8-0.4 M80.85,33.65h-10.6 M89.25,35.65l-0.8-0.4l-1-0.4l-1-0.4l-1-0.2l-1-0.2l-1.2-0.2
		l-1.2-0.2h-1.2 M152.85,72.45l-63.6-36.8 M156.25,77.25v-0.6l-0.2-0.8l-0.2-0.6l-0.4-0.6l-0.6-0.6l-0.6-0.6l-0.6-0.6l-0.8-0.4
		 M156.25,83.45v-6.2 M159.45,87.85l-0.6-0.6l-0.8-0.4l-0.4-0.6l-0.6-0.4l-0.2-0.6l-0.4-0.6v-0.6l-0.2-0.6 M207.25,186.05l-0.6,1
		l-0.4,0.8l-0.4,1l-0.2,1l-0.4,1l-0.2,1v0.8v1 M205.05,193.65v33.6 M220.05,182.85l-0.2,0.2h-0.4l-0.2,0.2 M219.25,133.45l0.2-0.2
		l0.4-0.2l0.2-0.2 M205.05,139.05v1v0.8l0.2,0.6l0.4,0.8l0.2,0.6l0.4,0.4l0.4,0.4l0.6,0.4 M207.25,144.05l5.2,3 M212.45,147.05
		l0.6,0.4l0.6,0.6l0.4,0.6l0.4,0.6l0.2,0.8l0.2,0.8l0.2,0.8v1 M215.05,152.65v15.8 M215.05,168.45v1l-0.2,1l-0.2,1.2l-0.2,1l-0.4,1
		l-0.4,1.2l-0.6,1l-0.6,1 M212.45,176.85l-5.2,9.2 M197.05,109.45l-37.6-21.6 M205.05,123.25v15.8 M197.05,109.45l1.2,1l1.4,1.2
		l1.4,1.4l1,1.6l1,1.6l0.8,1.8l0.6,1.8l0.4,1.8l0.2,1.6 M20.85,134.45h0.2l0.4,1.2l0.6,1l0.6,1l0.6,0.8l0.8,1l0.8,0.8 M24.85,140.25
		l0.6,0.6l0.8,0.4l0.6,0.4l0.8,0.4l0.6,0.2l0.6,0.2l0.8,0.2l0.6-0.2 M39.65,76.65l-0.6,1 M39.65,76.65l0.6-1v-0.2 M42.05,55.25v9.4
		 M37.25,75.65l0.4,0.4l0.2,0.6l0.4,0.4l0.4,0.2l0.4,0.4 M45.05,78.25l-1,0.2l-1,0.2l-1.2-0.2l-1-0.2l-1-0.2l-0.8-0.4 M37.05,65.45
		v-13 M35.05,15.85l-1.4-0.6l-1.4-0.4h-1.2l-1.2,0.2l-0.6,0.4 M30.25,29.25l-0.6-0.6l-0.8-0.8l-0.6-0.6l-0.6-0.4l-0.8-0.6l-0.6-0.4
		l-0.8-0.2l-0.6-0.2 M24.85,25.45l-0.8-0.2l-0.8,0.2h-0.6l-0.6,0.4l-0.6,0.4l-0.4,0.4l-0.4,0.6l-0.4,0.8 M20.25,28.05l-0.2,0.6v0.8
		v0.8v0.8l0.2,1l0.2,0.8l0.2,1l0.4,0.8 M92.25,150.25l-1.2-0.6 M97.85,153.65l-1.6-1 M53.85,52.05v-0.2l0.4-1.6l0.4-1 M71.25,54.85
		l-2.6,1.6 M151.85,184.85l-1.2-0.8 M156.05,186.05h-1l-1.6-0.6l-1.6-0.6 M202.65,232.45l0.4-0.4l0.8-0.8l0.6-1.2l0.4-1.2l0.2-1.6
		 M181.65,230.05l0.6,0.6l0.8,0.8l0.6,0.6l0.6,0.6l0.8,0.4l0.8,0.4l0.6,0.2l0.6,0.2 M187.05,233.85l0.8,0.2h0.8l0.6-0.2l0.6-0.2
		l0.6-0.4l0.4-0.6l0.4-0.6l0.4-0.8 M191.65,231.25l0.2-0.6v-0.8v-0.8v-0.8l-0.2-0.8l-0.2-1l-0.2-0.8l-0.4-1 M126.85,87.05l-2.4,1.6
		 M185.65,172.05l-1.6,1 M159.45,87.85l37.6,21.6 M156.25,83.25v0.6l0.2,0.6l0.2,0.6l0.4,0.6l0.4,0.6l0.6,0.6l0.6,0.4l0.8,0.6
		 M156.25,77.05v6.2 M156.25,77.05l-0.2-0.6l-0.2-0.8l-0.2-0.6l-0.4-0.6l-0.4-0.6l-0.6-0.4l-0.6-0.6l-0.8-0.4 M89.25,35.65
		l63.6,36.8 M89.25,35.65l-0.8-0.4l-0.8-0.4l-1-0.2l-1-0.4l-1-0.2l-1.2-0.2h-1h-1.2 M70.65,33.85h10.6 M62.65,31.85l0.8,0.4l1,0.4
		l0.8,0.4l1,0.2l1.2,0.2l1,0.2l1.2,0.2h1 M35.05,15.85l27.6,16 M205.05,139.65v-16.4 M205.05,227.25v-33.6 M205.05,193.65v-1v-1
		l0.2-1l0.4-1l0.2-1l0.4-1l0.6-1l0.4-1 M207.25,185.65l5.4-9.2 M215.05,168.45v1l-0.2,1l-0.2,1l-0.2,1l-0.4,1l-0.4,1l-0.4,1l-0.6,1
		 M215.05,168.45v-15.4 M212.65,147.85l0.6,0.4l0.4,0.4l0.4,0.6l0.4,0.6l0.2,0.8l0.2,0.6l0.2,1v0.8 M212.65,147.85l-5.4-3
		 M207.25,144.85l-0.4-0.4l-0.6-0.4l-0.4-0.6l-0.2-0.6l-0.4-0.8l-0.2-0.8v-0.8v-0.8 M185.65,150.05l-18.2-10.4 M185.65,174.05v-24
		 M184.05,173.05l1.6,1 M184.05,182.65v-9.6 M177.05,178.65l7,4 M167.45,139.65v3 M124.45,88.65l-50.8-29.4 M124.45,84.85v3.8
		 M129.45,87.85l-5-3 M129.45,91.45v-3.6 M146.85,101.45l-17.4-10 M156.85,118.85l-0.2-1.8l-0.2-2l-0.6-2l-0.8-2l-1.2-2l-1.2-1.8
		l-1.2-1.8l-1.6-1.6l-1.4-1.2l-1.6-1.2 M156.85,181.85v-63 M146.85,187.65l1.6,0.8l1.4,0.4l1.6,0.2l1.2-0.2l1.2-0.6l1.2-0.6l0.8-1.2
		l0.6-1.2l0.2-1.6l0.2-1.8 M140.65,184.05l6.2,3.6 M34.05,80.45l11,6.4 M34.05,80.45l-0.4-0.2l-0.4-0.4l-0.4-0.4l-0.2-0.4l-0.4-0.6
		l-0.2-0.4v-0.6v-0.4 M32.05,75.65v1.4 M32.05,51.85v13.6 M32.05,51.85v-0.4v-0.4l0.2-0.4l0.4-0.2h0.2h0.4h0.4l0.4,0.2 M46.45,57.85
		l-12.4-7.2 M46.65,57.85L46.65,57.85h-0.2 M47.05,58.05L47.05,58.05l-0.4-0.2 M58.65,50.65l-1.4-0.8l-1.6-0.4l-1.4-0.2l-1.4,0.2
		l-1.2,0.6l-1,0.8l-0.8,1l-0.6,1.4l-0.4,1.4v0.2 M68.65,56.45l-10-5.8 M68.65,52.65v3.8 M73.65,55.65l-5-3 M73.65,59.25v-3.6
		 M21.05,34.65l0.6,1.6l1,1.6l1.2,1.4l1.2,1.2l1.2,1l1.2,0.8l1.4,0.4h1.2l1-0.2l0.8-0.4l0.8-0.8l0.6-1.2l0.2-1.2v-1.6l-0.2-1.6
		l-0.4-1.6l-0.8-1.6l-0.8-1.6l-1-1.6 M30.25,142.45l1-0.2l0.8-0.6l0.8-0.8l0.4-1.2l0.2-1.4v-1.4 M190.85,224.65l-0.6-1.6l-1-1.6
		l-1.2-1.4l-1.2-1.2l-1.2-1l-1.2-0.8l-1.4-0.4h-1.2l-1,0.2l-0.8,0.6l-0.8,0.8l-0.6,1l-0.2,1.4v1.4l0.2,1.6l0.4,1.6l0.8,1.6l0.8,1.6
		l1,1.6 M187.05,119.25l-0.6-0.6l-0.6-0.6l-0.8-0.4l-0.8-0.4l-0.6-0.2l-0.6-0.2h-0.8h-0.6 M181.65,116.85l-1,0.2l-0.8,0.6l-0.8,1
		l-0.4,1l-0.2,1.4v1.4l0.2,1.6l0.6,1.8l0.8,1.6l0.8,1.6l1,1.4l1.2,1.2l1.4,1.2l1.2,0.6l1.2,0.6l1.2,0.2l1.2-0.2l1-0.4l0.6-0.8
		 M190.85,132.85l0.4-0.6l0.2-0.6l0.2-0.6l0.2-0.8v-0.8v-0.8v-0.8l-0.2-1 M205.05,123.25l-0.2-1.6l-0.4-1.8l-0.6-1.8l-0.8-1.8
		l-1-1.6l-1-1.6l-1.4-1.4l-1.4-1.2l-1.2-1 M191.65,126.85l-0.4-1l-0.4-1l-0.4-1l-0.6-1.2l-0.6-1l-0.6-0.8l-0.8-0.8l-0.8-0.8
		 M20.25,99.25l-14-8.2 M1.25,99.65l14.2,8 M15.45,107.65l1.2,0.8l2.4,1l2.4,1l2.8,0.6l2.6,0.6l2.8,0.4l3,0.2h2.8l3-0.2l2.8-0.4
		l2.6-0.6h0.2 M45.05,100.25L45.05,100.25l-2,0.8l-2,0.4l-2,0.4l-2.4,0.4h-2.2h-2.4l-2.2-0.2l-2.4-0.4l-2-0.4l-2-0.6l-1.6-0.8
		l-1.6-0.6 M45.25,144.65v0.6 M48.25,150.45l1.2,0.6l1,0.8 M56.25,50.65l-7,4 M110.05,184.25l12.2-6.6 M62.65,60.45l-15.8,9.6
		 M148.45,185.25l6.6-3.8 M135.85,183.25l15-8 M87.65,167.85l3.2-0.4 M49.65,96.25l-1.8,2.6 M143.85,101.65l-6.6,3.8 M21.45,123.45
		l-14-8 M2.25,124.25l14,8 M16.25,132.25l1.2,0.8l2.4,1l2.6,1l2.6,0.6l2.8,0.6l2.8,0.4l3,0.2h2.8l3-0.2l2.8-0.4l2.6-0.6h0.2
		 M45.05,124.85l-1,0.4l-2,0.6l-2.2,0.4l-2.2,0.2l-2.2,0.2h-2.4l-2.2-0.2l-2.2-0.4l-2.2-0.6l-2-0.6l-1.6-0.6l-1.4-0.8 M21.45,62.25
		l-14-8 M2.25,63.05l14,8.2 M55.25,58.25l-6.8,4 M16.25,71.25l1.2,0.6l2.4,1l2.6,1l2.6,0.8l2.8,0.4l2.8,0.4l3,0.2h2.8l3-0.2l2.8-0.4
		l2.6-0.6h0.2 M48.45,62.25l-0.8,0.6l-1.8,0.6l-1.8,0.8l-2,0.4l-2.2,0.4l-2.2,0.4h-2.2h-2.4l-2.2-0.2l-2.2-0.4l-2.2-0.4l-2-0.6
		l-1.6-0.8l-1.4-0.8 M141.05,184.05l6.8-4 M141.05,193.65l-0.8-0.4l-1.2-0.8l-0.8-1l-0.6-0.8l-0.4-0.6l-0.2-0.6l-0.2-0.6l0.2-0.8
		l0.2-0.6l0.4-0.8l0.8-0.8l1-0.8l1.2-0.8l0.4-0.2 M128.85,181.45l-0.6,1.2l-0.8,2l-0.6,2l-0.2,1.8l0.2,2l0.4,2l0.6,1.8l1,1.8
		l1.2,1.6l1.6,1.6l1.6,1.6l2,1.4l0.6,0.2 M135.85,202.45l14,8.2 M155.05,201.65l-14-8 M141.25,108.65l-5.4,3 M141.05,120.45l6.8-3.8
		 M141.05,130.25l-0.8-0.4l-1.2-1l-0.8-0.8l-0.6-0.8l-0.4-0.6l-0.2-0.6l-0.2-0.8l0.2-0.6l0.2-0.6l0.4-0.8l0.8-0.8l1-1l1.2-0.8
		l0.4-0.2 M135.85,111.65l-1.2,0.8l-2,1.4l-1.8,1.6l-1.4,1.8l-1.2,2l-0.8,2l-0.6,1.8l-0.2,2l0.2,2l0.4,2l0.6,1.8l1,1.8l1.2,1.6
		l1.6,1.6l1.6,1.6l2,1.2l0.6,0.4 M135.85,139.05l14,8.2 M155.05,138.25l-14-8 M168.65,174.85v0.2h0.2v0.2v0.2h0.2 M168.65,171.85v3
		 M182.65,181.25l1.4-0.8 M177.45,178.45l4.6,2.8 M178.85,177.65h0.2 M182.05,181.25h0.2v0.2h0.2h0.2v-0.2 M169.05,175.45l6.6,3.8
		 M176.25,179.25l2.6-1.6 M175.65,179.25L175.65,179.25h0.2h0.2h0.2 M162.25,167.65v0.2v0.2h0.2v0.2 M173.05,169.85l7.2,4
		 M180.85,173.85l4.8-2.6 M175.85,168.25h0.2 M180.25,173.85v0.2h0.2h0.2l0.2-0.2 M170.05,141.25l-4.4,2.6 M165.25,144.25v9.4
		 M165.65,143.85h-0.2v0.2h-0.2v0.2 M169.05,151.45L169.05,151.45h-0.2 M162.45,168.25l6.4,3.6 M169.45,171.85l6.4-3.6
		 M168.85,171.85l0.2,0.2h0.2h0.2v-0.2 M168.85,151.45l-6.4,3.8 M162.25,155.65v12 M162.45,155.25L162.45,155.25h-0.2v0.2v0.2
		 M208.85,145.65v-0.2 M30.65,140.65l1.2-0.6 M182.45,217.85l-1.2,0.6 M189.05,232.05l1.2-0.6 M24.05,26.45l-1.2,0.8 M30.65,40.85
		l1.2-0.8 M182.45,118.05l-1.2,0.6 M189.05,132.25l1.2-0.6 M56.65,17.85v-0.2 M48.05,17.65v0.2 M56.65,16.65v-0.2 M48.05,16.45v0.2
		 M56.65,15.65v-0.4 M48.05,15.25v0.4 M60.25,11.45v-6.6 M44.65,4.85v6.6 M192.05,96.05v-0.2 M183.65,95.85v0.2 M192.05,94.85v-0.2
		 M183.65,94.65v0.2 M192.05,93.85v-0.4 M183.65,93.45v0.4 M195.65,89.65v-6.6 M180.05,83.05v6.6 M88.85,4.05l-1-0.4l-1.4-0.4
		l-1.6-0.4h-0.8 M84.05,2.85l-24.6,0.2 M44.65,6.45l-15.4,9 M221.45,220.65l0.4-0.4l0.4-1.2l0.2-1.2v-0.4 M202.65,232.45l17-9.8
		 M222.45,217.45v-34.6 M222.45,182.85l-1.6-5.4 M210.45,74.45L88.85,4.05 M213.85,78.45l-0.6-1.2l-0.6-1.2l-1-0.8l-1.2-0.8
		 M220.85,181.65v-50 M221.25,101.45l-7.4-23 M222.45,126.05v-17.4 M222.45,107.25l-0.2-0.8l-0.2-1.4l-0.2-1.6l-0.4-1.4l-0.2-0.6
		 M222.45,108.85v-0.8v-0.8 M19.85,134.05l0.4,1l0.8,1.6l1,1.6l1.2,1.4l1.2,1.4l1.4,1 M25.85,142.05l1,0.6l1.8,1l1.6,1l1,0.4h0.2
		 M19.25,109.65v12.6 M19.25,72.65v26 M19.25,32.45v28.6 M19.25,26.05v1.2v2.4v1.2v1.2v0.4 M29.25,15.45l-6,3.4 M23.25,18.85
		l-0.8,0.6l-1,1l-0.8,1l-0.8,1.4l-0.4,1.4l-0.2,1.4v0.4 M31.45,145.05l151.4,87.6 M182.85,232.65l1,0.4l0.8,0.6l1.6,1l1.4,0.8
		l0.6,0.2 M196.65,235.85l6-3.4 M188.25,235.65l1,0.6l1.4,0.4l1.6,0.2h1.4l1.4-0.2l1.4-0.6l0.2-0.2"/>
</g>
</svg>
