<?xml version="1.0" encoding="utf-8"?>
<!-- Generator: Adobe Illustrator 19.0.0, SVG Export Plug-In . SVG Version: 6.00 Build 0)  -->
<svg version="1.1" id="Layer_1" xmlns="http://www.w3.org/2000/svg" xmlns:xlink="http://www.w3.org/1999/xlink" x="0px" y="0px"
	 width="841.9px" height="595.3px" viewBox="0 0 841.9 595.3" style="enable-background:new 0 0 841.9 595.3;" xml:space="preserve"
	>
<style type="text/css">
	.st0{fill:none;stroke:#0B0620;stroke-width:0.5;stroke-linecap:round;stroke-linejoin:round;}
	.st1{fill:#FFFFFF;}
</style>
<g id="XMLID_1_">
	<g>
		<path id="XMLID_375_" class="st0" d="M313,189.4c0.2-0.4,0.2-0.4,0.3-0.8c0.4-0.6,0.4-0.6,0.7-1.2c0.3-0.3,0.3-0.3,0.7-0.7
			c0.7-0.5,0.7-0.5,1.3-1"/>
		<path id="XMLID_374_" class="st0" d="M316.1,185.8c14.4-8.4,14.4-8.4,29-16.7c5.2-2.2,5.2-2.1,10.5-4.1c1.2-0.3,1.2-0.4,2.4-0.7
			c6.1-1,6.1-1,12.2-2.1c1.3-0.1,1.3-0.1,2.6-0.2c6.4,0.1,6.4,0.1,12.8,0.2c1.2,0.1,1.3,0.1,2.5,0.3c6.1,1.2,6.1,1.2,12.1,2.5
			c1.1,0.3,1.1,0.3,2.2,0.7c5.1,2.3,5.1,2.3,10.2,4.6c0.9,0.5,0.9,0.5,1.7,1c3.7,3.1,3.7,3.1,7.4,6.2c0.5,0.6,0.5,0.6,1,1.2
			c1.9,3.6,1.9,3.6,3.8,7.2"/>
		<path id="XMLID_373_" class="st0" d="M421.7,203.2c-4.4,3.7-4.5,3.7-9,7.2c-13.3,7.8-13.4,7.8-26.8,15.5c-1.4,0.6-1.4,0.6-2.9,1.2
			c-1.7,0.3-1.7,0.3-3.4,0.6c-1.8,0.1-1.8,0-3.5,0c-1.5-0.3-1.5-0.3-3-0.6c-0.2,0-0.2,0-0.3-0.1c-1.4-0.6-1.4-0.6-2.9-1.2
			c-26.9-15.5-26.9-15.5-53.8-31c-0.9-0.7-0.9-0.7-1.8-1.4"/>
		<path id="XMLID_372_" class="st0" d="M513.8,532.2c-8.5-4.8-8.5-4.8-16.9-9.8c-0.9-0.7-0.9-0.7-1.6-1.6
			c-52.8-79.1-52.8-79.1-105.4-158.3c-0.5-1.1-0.5-1.1-1-2.2"/>
		<path id="XMLID_371_" class="st0" d="M489.6,420.4c4.5,0.3,4.5,0.3,8.9,0.7c1,0,1,0,2,0c0.7-0.1,0.7-0.1,1.4-0.2
			c0.5-0.1,0.5-0.1,0.9-0.3c2.5-1.3,2.5-1.3,5-2.6"/>
		<path id="XMLID_370_" class="st0" d="M497.6,441.7c0.8,0.3,0.8,0.3,1.6,0.7c1.1,0.3,1.1,0.2,2.2,0.5c3.2,1.1,3.2,1.1,6.4,2.3
			c2.6,1.6,2.6,1.7,5.1,3.4c2.3,2.2,2.3,2.2,4.5,4.5c6.4,7.5,6.4,7.5,12.8,15.1"/>
		<path id="XMLID_369_" class="st0" d="M518.4,428.5c-5,2.5-5,2.5-9.9,5c-4.2,2.2-4.2,2.2-8.4,4.5c-0.9,0.6-0.9,0.6-1.7,1.2
			c-0.5,0.5-0.5,0.5-0.9,1"/>
		<path id="XMLID_368_" class="st0" d="M507.4,459.9c1.5-0.3,1.5-0.3,3.1-0.5c1.1,0.1,1.1,0.1,2.2,0.3c1.1,0.5,1.1,0.5,2.2,1
			c3.4,3,3.4,3,6.7,6.1c0.8,0.9,0.8,0.9,1.5,1.8"/>
		<path id="XMLID_367_" class="st0" d="M528.9,486.7c-0.7,0.5-0.7,0.5-1.4,0.9c-3.1,0.8-3.1,0.8-6.2,1.5c-0.8,0.1-0.9,0.1-1.7,0.1
			c-1.3-0.1-1.3-0.1-2.5-0.1c-3.8-0.3-3.8-0.3-7.7-0.5"/>
		<path id="XMLID_366_" class="st0" d="M533.9,536.4c-0.9-1.5-0.9-1.5-1.8-3c-1.1-1.2-1.1-1.2-2.3-2.4c-0.7-0.5-0.7-0.4-1.4-0.9
			c-0.4-0.2-0.4-0.2-0.8-0.3"/>
		<path id="XMLID_365_" class="st0" d="M551.5,540.3c-3.9-4.6-3.9-4.6-7.8-9.3c-2.9-3.1-2.8-3.1-5.8-6.2c-3.1-2.4-3.1-2.4-6.3-4.6
			c-1.1-0.4-1.1-0.4-2.3-0.8c-1.1-0.1-1.1-0.1-2.2-0.1c-1.6,0.4-1.7,0.4-3.3,0.9"/>
		<path id="XMLID_364_" class="st0" d="M554.2,533.5c-13-13.8-13-13.8-26.1-27.6c-0.5-0.5-0.5-0.5-0.9-1.1c-0.3-0.5-0.3-0.5-0.5-1
			c-0.2-0.8-0.2-0.8-0.5-1.6"/>
		<path id="XMLID_363_" class="st0" d="M557.6,532.3c-5.3-12.6-5.3-12.6-10.6-25.2c-0.2-0.5-0.2-0.5-0.5-1c-0.3-0.5-0.3-0.5-0.7-1
			c-0.4-0.5-0.4-0.5-0.9-1c-1.7-1.6-1.7-1.6-3.4-3.2"/>
		<path id="XMLID_362_" class="st0" d="M549,325.6c0.2-0.4,0.2-0.4,0.3-0.7c0.4-0.6,0.3-0.6,0.7-1.2c0.3-0.3,0.3-0.3,0.7-0.7
			c0.7-0.5,0.7-0.5,1.4-1"/>
		<path id="XMLID_361_" class="st0" d="M588.3,561.4c-6.4-11.2-6.4-11.3-12.5-22.6c-4.3-10.5-4.2-10.5-8.2-21.1
			c-2.5-8.3-2.5-8.3-4.9-16.7c-3.8-16.4-4-16.4-7.5-32.8c-1.1-11.9-1.1-12-1.8-24"/>
		<path id="XMLID_360_" class="st0" d="M605.9,551.2c-3.7-12.8-3.7-12.9-7.1-25.8c-1.4-12.2-1.3-12.2-2.4-24.4
			c-0.1-9.8-0.1-9.8,0-19.5c0.3-5.2,0.3-5.2,0.7-10.3"/>
		<path id="XMLID_359_" class="st0" d="M637.2,460c-0.5-0.7-0.5-0.7-1-1.4c-0.2-0.4-0.2-0.4-0.4-0.8c-0.2-1-0.2-1-0.4-2
			c-0.1-0.5-0.1-0.5-0.1-1c0.1-1.2,0.1-1.2,0.2-2.4c0.1-0.6,0.1-0.6,0.3-1.2c0.4-1.3,0.4-1.3,0.8-2.5c0.3-0.7,0.3-0.7,0.6-1.3
			c0.7-1.2,0.7-1.2,1.3-2.4c0.4-0.6,0.4-0.6,0.9-1.2c0.8-1,0.8-1,1.7-2c0.5-0.5,0.5-0.5,1-0.9c0.9-0.7,0.9-0.7,1.8-1.4
			c0.5-0.3,0.5-0.3,1.1-0.6c0.9-0.3,0.9-0.3,1.8-0.6c0.5-0.1,0.5-0.1,1-0.2c0.8,0.1,0.8,0.1,1.6,0.2c0.4,0.1,0.4,0.1,0.9,0.3"/>
		<path id="XMLID_358_" class="st0" d="M640.4,460.2c-0.3-0.3-0.3-0.3-0.5-0.7c-0.4-0.6-0.4-0.6-0.7-1.2c-0.1-0.5-0.1-0.5-0.3-1
			c-0.1-0.9-0.1-0.9-0.2-1.8c0-0.6,0-0.6,0.1-1.2c0.2-1,0.2-1,0.4-2c0.2-0.6,0.2-0.6,0.3-1.2c0.7-1.6,0.7-1.7,1.5-3.3
			c0.6-1,0.7-1,1.3-2c0.4-0.5,0.4-0.5,0.8-1c0.8-0.8,0.8-0.8,1.6-1.6c0.5-0.4,0.5-0.4,0.9-0.7c0.9-0.5,0.9-0.5,1.7-1
			c0.4-0.2,0.4-0.2,0.9-0.3c0.9-0.2,0.9-0.2,1.7-0.4c0.4,0,0.4,0,0.8,0.1c0.7,0.2,0.7,0.2,1.4,0.3"/>
		<path id="XMLID_357_" class="st0" d="M180.1,186.3v38.9"/>
		<path id="XMLID_356_" class="st0" d="M378.5,343.2L184.3,231.1"/>
		<path id="XMLID_355_" class="st0" d="M184.3,192.1l425.5,245.7"/>
		<path id="XMLID_354_" class="st0" d="M195.7,173.9l-11.5,6.6"/>
		<path id="XMLID_353_" class="st0" d="M193.8,187.1l3.6,2.1l-4.1-2.3l2.4-1.4"/>
		<path id="XMLID_352_" class="st0" d="M193.8,187.1l-0.8-0.5l-1-0.3"/>
		<path id="XMLID_351_" class="st0" d="M197.4,189.2l12.1,7l-3-1.7"/>
		<path id="XMLID_350_" class="st0" d="M209.5,196.2l12.5,7.2l2-1.2l-2,1.2v0.3"/>
		<path id="XMLID_349_" class="st0" d="M222,203.4l-0.3-0.2"/>
		<path id="XMLID_348_" class="st0" d="M224.1,202.3l9.7-5.6l-2.2,1.2"/>
		<path id="XMLID_347_" class="st0" d="M233.8,196.7l3-1.8l-2.2,1.3"/>
		<path id="XMLID_346_" class="st0" d="M236.8,194.9l12.1-7l-3,1.8"/>
		<path id="XMLID_345_" class="st0" d="M248.9,187.9l1.8-1l-3-1.8"/>
		<path id="XMLID_344_" class="st0" d="M255.5,178l-7.9-4.5"/>
		<path id="XMLID_343_" class="st0" d="M250.2,187.1l0.8-0.5l0.9-0.3"/>
		<path id="XMLID_342_" class="st0" d="M309.4,178l24-13.9"/>
		<path id="XMLID_341_" class="st0" d="M314.3,193.4l-0.3-0.2l-1.1-1.9v-2"/>
		<path id="XMLID_340_" class="st0" d="M426.5,185.9l0.2,1.4l-0.2,7.5l-0.7,1.3l-4.1,7.1"/>
		<path id="XMLID_339_" class="st0" d="M314.3,193.4l2,1.5l2.1,1.2"/>
		<path id="XMLID_338_" class="st0" d="M313.7,191.7v0.4"/>
		<path id="XMLID_337_" class="st0" d="M313.7,190.9L313.7,190.9v1.4"/>
		<path id="XMLID_336_" class="st0" d="M314.4,193.6l-0.9-1.5l0,0.1"/>
		<path id="XMLID_335_" class="st0" d="M342.8,210.3l1.8,1"/>
		<path id="XMLID_334_" class="st0" d="M367,224.3l2.9,1.6"/>
		<path id="XMLID_333_" class="st0" d="M388.2,224.6l-2.3,1.3"/>
		<path id="XMLID_332_" class="st0" d="M388.9,360.4l16.9,9.8"/>
		<path id="XMLID_331_" class="st0" d="M397.3,219.4l3-1.8"/>
		<path id="XMLID_330_" class="st0" d="M512.1,530.6L406.7,372.4l-1-2.2"/>
		<path id="XMLID_329_" class="st0" d="M407.4,364.7l2.2-1.3"/>
		<path id="XMLID_328_" class="st0" d="M412.4,210.6l2.9-2.3"/>
		<path id="XMLID_327_" class="st0" d="M609.7,476.7L415.5,364.6"/>
		<path id="XMLID_326_" class="st0" d="M418.5,205.9l2.9-2.3"/>
		<path id="XMLID_325_" class="st0" d="M421.4,203.5l4.5-8l0,0.1"/>
		<path id="XMLID_324_" class="st0" d="M422.3,164.1l191.2,110.4"/>
		<path id="XMLID_323_" class="st0" d="M463.1,491.3l-6-5.6l1.6-14.5l-1.3-7"/>
		<path id="XMLID_322_" class="st0" d="M472.9,522.3L574,580.7"/>
		<path id="XMLID_321_" class="st0" d="M496.3,420.8l8.3-4.8"/>
		<path id="XMLID_320_" class="st0" d="M498.9,440.3l20.6-11.8"/>
		<path id="XMLID_319_" class="st0" d="M502.3,463.3l1.5-1.5l3.6-1.9"/>
		<path id="XMLID_318_" class="st0" d="M528.4,478.8l0.7,3l0.5,2.9l-0.7,2"/>
		<path id="XMLID_317_" class="st0" d="M527.7,529.9l-2.8,0l-3.1,1.2l-0.8,0.5"/>
		<path id="XMLID_316_" class="st0" d="M523.9,520.3l-3.7,2.4"/>
		<path id="XMLID_315_" class="st0" d="M535.3,470l-0.1-1.1l-10.2-34.8l-0.5-1.2"/>
		<path id="XMLID_314_" class="st0" d="M526.2,502.2l3.9-2.2"/>
		<path id="XMLID_313_" class="st0" d="M524.9,505.9l2.1,0"/>
		<path id="XMLID_312_" class="st0" d="M525.9,500.9L525.9,500.9l0,0.4l0.3,0.9"/>
		<path id="XMLID_311_" class="st0" d="M526,500.9l0.1-0.1l-0.1,0L526,500.9"/>
		<path id="XMLID_310_" class="st0" d="M526,500.7l-1,0.3"/>
		<path id="XMLID_309_" class="st0" d="M525.5,500.9l0.5-0.2"/>
		<path id="XMLID_308_" class="st0" d="M526.4,500.7l-0.3,0.1l1.2-0.3l10.6-1.6"/>
		<path id="XMLID_307_" class="st0" d="M526.5,500.6l-0.4,0.2l0.1-0.1"/>
		<path id="XMLID_306_" class="st0" d="M524.8,501l0.8-0.2"/>
		<path id="XMLID_305_" class="st0" d="M528.9,530.4l-0.6-0.3"/>
		<path id="XMLID_304_" class="st0" d="M534.6,438.7l-1.9-6.5"/>
		<path id="XMLID_303_" class="st0" d="M557.2,531.2l-22.9-31.8"/>
		<path id="XMLID_302_" class="st0" d="M536.6,486.4l-1.8-6l7.8,0.1l11.1,10.8l3.2,10.7L549,502l-11-10.8L536.6,486.4"/>
		<path id="XMLID_301_" class="st0" d="M533.9,470.8l1.3-0.8"/>
		<path id="XMLID_300_" class="st0" d="M538,491.2l2.7-1.6"/>
		<path id="XMLID_299_" class="st0" d="M557.7,534.7l0.3-0.4v-0.9l-0.4-1.2"/>
		<path id="XMLID_298_" class="st0" d="M541.4,442.8l-0.1-5.6"/>
		<path id="XMLID_297_" class="st0" d="M549,502l2.2-1.3"/>
		<path id="XMLID_296_" class="st0" d="M551.7,330.9l-1.4-1.2l1.8,1.4l1.8,1.1L551.7,330.9"/>
		<path id="XMLID_295_" class="st0" d="M550.3,329.7l-0.3-0.2l-1.1-1.9v-2"/>
		<path id="XMLID_294_" class="st0" d="M552.1,322.1l28.7-16.5"/>
		<path id="XMLID_293_" class="st0" d="M549.7,328v0.1"/>
		<path id="XMLID_292_" class="st0" d="M549.7,328.5v-1.4v0.2"/>
		<path id="XMLID_291_" class="st0" d="M549.6,328.4l0-0.1l0.9,1.5"/>
		<path id="XMLID_290_" class="st0" d="M583.8,561l4.5,0.3"/>
		<path id="XMLID_289_" class="st0" d="M553.9,332.2l40.3,23.3"/>
		<path id="XMLID_288_" class="st0" d="M585.9,581.9l16.8-9.7"/>
		<path id="XMLID_287_" class="st0" d="M605.2,569.9l-16.8,9.7"/>
		<path id="XMLID_286_" class="st0" d="M588.3,561.4l0.7-0.4"/>
		<path id="XMLID_285_" class="st0" d="M594.2,414.8l-3.1,1.8l0.4,0.2l-0.8-0.5l-0.9-0.3"/>
		<path id="XMLID_284_" class="st0" d="M591.6,416.8l5.2,3l-2.6-1.5"/>
		<path id="XMLID_283_" class="st0" d="M596.8,419.8l9.4,5.4l-3-1.7"/>
		<path id="XMLID_282_" class="st0" d="M606.2,425.3l13.6,7.9l10.7-6.1l-3,1.7"/>
		<path id="XMLID_281_" class="st0" d="M618.4,432.3l1.4,0.9l0.1,0.3"/>
		<path id="XMLID_280_" class="st0" d="M619.9,479.1v-38.9"/>
		<path id="XMLID_279_" class="st0" d="M630,476.7l20-11.6"/>
		<path id="XMLID_278_" class="st0" d="M630,437.8l27.6-16"/>
		<path id="XMLID_277_" class="st0" d="M630.5,427l6.1-3.5l-3,1.8"/>
		<path id="XMLID_276_" class="st0" d="M640.6,461l-1.2,0.1l-1.5-0.7l-0.7-0.4"/>
		<path id="XMLID_275_" class="st0" d="M650.3,438.5l1.8,1.6l0.3,0.8l-0.2-0.5"/>
		<path id="XMLID_274_" class="st0" d="M636.5,423.5l3-1.7l-2,1.1"/>
		<path id="XMLID_273_" class="st0" d="M643.2,461l-0.9,0.1l-0.8-0.3l-1.1-0.6"/>
		<path id="XMLID_272_" class="st0" d="M652,441.1l1.6,1.4l0.1,0.3"/>
		<path id="XMLID_271_" class="st0" d="M639.5,421.8l6.1-3.5l-2.7,1.6"/>
		<path id="XMLID_270_" class="st0" d="M643.1,461.1l-1.6,0.1l-1.1-0.4l-0.6,0.1"/>
		<path id="XMLID_269_" class="st0" d="M646.1,417.9l2-1.1l-2.5,1.4"/>
		<path id="XMLID_268_" class="st0" d="M646.1,415.2l2.4,1.4l-0.4,0.2l0.7-0.4l1-0.3"/>
		<path id="XMLID_267_" class="st0" d="M657.6,410.2l-11.5-6.6"/>
		<path id="XMLID_266_" class="st0" d="M658.3,351.7l-12.2,7"/>
		<path id="XMLID_265_" class="st0" d="M650.1,438.8l3.3,2.9l0.5,1"/>
		<path id="XMLID_264_" class="st0" d="M661.7,320.7l0.8,1.5l0.2,1.4l-0.2,7.5l-0.7,1.3l-2.5,4.4"/>
		<path id="XMLID_263_" class="st0" d="M661.6,438v-3v12.3"/>
		<path id="XMLID_262_" class="st0" d="M661.6,416.8v18.1"/>
		<path id="XMLID_261_" class="st0" d="M661.6,417.3v-2.6"/>
		<path id="XMLID_260_" class="st0" d="M661.8,332l0.1-0.2L661.8,332"/>
		<path id="XMLID_259_" class="st0" d="M675.9,425.1v-8.3v2.6"/>
		<path id="XMLID_258_" class="st0" d="M675.9,416.8v-45.3v3"/>
		<path id="XMLID_257_" class="st0" d="M675.9,371.5v-45.3"/>
		<path id="XMLID_256_" class="st0" d="M675.9,332.2v-0.5"/>
		<path id="XMLID_255_" class="st0" d="M675.9,326v-5.7"/>
		<path id="XMLID_254_" class="st0" d="M564.6,549.4l1.5-1.4"/>
		<path id="XMLID_253_" class="st0" d="M463.4,491.1l1.6-1.5"/>
		<path id="XMLID_252_" class="st0" d="M405.4,370c0.2-6.1,4.7-8.5,10.1-5.4"/>
		<path id="XMLID_251_" class="st0" d="M309.4,178c-14.9,8.6-39,8.6-53.9,0"/>
		<path id="XMLID_250_" class="st0" d="M657.6,410.2c5.6,3.2,5.6,8.5,0,11.7c0,0,0,0,0,0"/>
		<path id="XMLID_249_" class="st0" d="M564.6,549.4c1.4-3.3,7.3-1.4,13.2,4.2c2.3,2.2,4.5,4.8,6,7.3"/>
		<path id="XMLID_248_" class="st0" d="M669.7,309.4c12.6,14,7.9,31.1-11.4,42.3"/>
		<path id="XMLID_247_" class="st0" d="M521,531.5c-3.7,2.1-7.1,1.8-8.8-0.9"/>
		<path id="XMLID_246_" class="st0" d="M605.9,551.2c3.4,9.5,2.1,17.9-3.1,20.9"/>
		<path id="XMLID_245_" class="st0" d="M537.9,498.8c0.8-0.3,2.3,0.5,3.8,1.9"/>
		<path id="XMLID_244_" class="st0" d="M333.5,164.1c24.5-14.2,64.3-14.2,88.8,0c0,0,0,0,0,0"/>
		<path id="XMLID_243_" class="st0" d="M184.3,192.1c-5.6-3.2-5.6-8.5,0-11.7c0,0,0,0,0,0"/>
		
			<ellipse id="XMLID_242_" transform="matrix(0.866 -0.5 0.5 0.866 -203.7095 362.1919)" class="st0" cx="574" cy="561.2" rx="4.7" ry="8.1"/>
		<path id="XMLID_241_" class="st0" d="M630,437.8c-5.6,3.2-14.6,3.2-20.2,0c0,0,0,0,0,0"/>
		<path id="XMLID_240_" class="st0" d="M589,561c4.3,12,1,21.9-7.3,22c-2.4,0-5-0.7-7.7-2.3"/>
		<path id="XMLID_239_" class="st0" d="M184.3,231.1c-2.7-1.5-4.2-3.7-4.2-5.8"/>
		<path id="XMLID_238_" class="st0" d="M472.9,522.3c-9.3-5.4-16.9-18.5-16.9-29.2c0-2.8,0.5-5.2,1.5-7.1"/>
		<path id="XMLID_237_" class="st0" d="M463.4,491.1c1.3-3.3,7.2-1.5,13.2,4.1c2.1,1.9,4,4.2,5.5,6.4"/>
		<path id="XMLID_236_" class="st0" d="M675.9,413.8c2.9,10.5-2.3,21.2-14.3,29.2"/>
		<path id="XMLID_235_" class="st0" d="M378.5,343.2c5.4,3.1,9.9,10.6,10.1,17"/>
		
			<ellipse id="XMLID_234_" transform="matrix(0.866 -0.5 0.5 0.866 -188.0619 303.7968)" class="st0" cx="472.9" cy="502.8" rx="4.7" ry="8.1"/>
		<path id="XMLID_233_" class="st0" d="M630,476.7c-5.6,3.2-14.6,3.2-20.2,0c0,0,0,0,0,0"/>
		<path id="XMLID_232_" class="st0" d="M541.4,442.8c0.3,1.6-0.9,2-2.8,0.8c-1.8-1.1-3.5-3.2-3.9-4.9"/>
		<path id="XMLID_231_" class="st0" d="M535.2,470.1c-0.1,1.3-1.7,1-3.6-0.5c-0.5-0.4-1-0.9-1.4-1.4"/>
		<path id="XMLID_230_" class="st0" d="M523,468.6c3,3.6,5,7.4,5.4,10.2"/>
		<path id="XMLID_229_" class="st0" d="M518.4,428.5c0.8-0.6,2.9,0.5,4.5,2.5c0.7,0.8,1.2,1.6,1.5,2.4"/>
		<path id="XMLID_228_" class="st0" d="M661,321.4c2.3,5.5,1.7,11.2-1.7,16.4"/>
		<path id="XMLID_227_" class="st0" d="M557.7,534.7c-1,0.3-2.2-0.3-3.3-1.4"/>
	</g>
	<g>
		<path id="XMLID_226_" class="st0" d="M182.5,75.2c0.1-0.7,0.1-0.7,0.2-1.4c0.5-1.3,0.5-1.3,1-2.6c0.1-0.3,0.1-0.3,0.2-0.6
			c0.7-1.2,0.7-1.2,1.5-2.4c0.1-0.3,0.1-0.3,0.3-0.5c1.1-1.2,1.1-1.2,2.2-2.4c0.2-0.1,0.2-0.1,0.4-0.3"/>
		<path id="XMLID_225_" class="st0" d="M187.9,65.2c-1.1,1.2-1.2,1.2-2.2,2.4c-0.9,1.4-0.9,1.4-1.8,2.9c-0.6,1.5-0.6,1.6-1.2,3.1
			c-0.1,0.7-0.1,0.7-0.2,1.5"/>
		<path id="XMLID_224_" class="st0" d="M194.9,63.2c-1-0.2-1-0.2-1.9-0.3c-0.1,0-0.1,0-0.1,0c-1.2,0.3-1.2,0.3-2.4,0.7
			c-1.1,0.7-1.1,0.7-2.1,1.4"/>
		<path id="XMLID_223_" class="st0" d="M188.3,65l-0.4,0.3"/>
		<path id="XMLID_222_" class="st0" d="M188.3,65l2.1-1.4"/>
		<path id="XMLID_221_" class="st0" d="M242,109.5l5.8,3.3"/>
		<path id="XMLID_220_" class="st0" d="M248.4,99.5l5.8,3.3"/>
		<path id="XMLID_219_" class="st0" d="M251.5,112.6l0.8-0.5"/>
		<path id="XMLID_218_" class="st0" d="M255.3,105.9v-1.2"/>
		
			<ellipse id="XMLID_217_" transform="matrix(0.866 0.5 -0.5 0.866 87.989 -111.4835)" class="st0" cx="252" cy="108.4" rx="2.7" ry="4.8"/>
		<path id="XMLID_216_" class="st0" d="M251.5,112.6c-2.3,1.6-4.4,0.7-4.6-1.8s1.5-5.9,3.8-7.5c2.2-1.5,4.1-0.8,4.5,1.4"/>
	</g>
	<g>
		<path id="XMLID_215_" class="st0" d="M186.3,176.6c-1.2,0.9-1.2,0.9-2.4,1.8c-1.1,1.3-1.1,1.3-2.1,2.6c-0.9,1.5-0.9,1.5-1.7,3
			c-0.5,1.6-0.5,1.6-1,3.1c-0.1,1.4-0.1,1.5-0.2,2.9"/>
		<path id="XMLID_214_" class="st0" d="M191.9,176.1l-0.6-0.3l-0.1-0.1l-2.2-0.1l-0.1,0l-2.4,0.9l-0.1,0.1"/>
		<path id="XMLID_213_" class="st0" d="M178.9,190.1v0.1l0.6,2.4l0.1,0.1l0.5,0.6"/>
		<path id="XMLID_212_" class="st0" d="M186.3,176.5L186.3,176.5l-0.4,0.3l-2,1.6l-0.4,0.5l-1.8,2.1l-0.3,0.5l-1.4,2.5l-0.2,0.6
			l-0.8,2.6l0,0.6l-0.2,2.4v0"/>
	</g>
	<g>
		<path id="XMLID_211_" class="st0" d="M205.3,52c-2.4-10.4-2.4-10.4-5-20.7c-1.3-3.3-1.3-3.3-2.7-6.5c-2.3-2.9-2.3-2.9-4.7-5.7
			c-3-2.2-3.1-2.2-6.2-4.3c-3.4-1.3-3.5-1.3-6.9-2.4c-3.4-0.2-3.5-0.2-6.9-0.2"/>
		<path id="XMLID_210_" class="st0" d="M166.1,14.6c-2.3,2-2.3,2-4.5,4.1c-0.2,0.3-0.3,0.3-0.5,0.6c-1.2,2.8-1.2,2.8-2.4,5.6"/>
		<path id="XMLID_209_" class="st0" d="M158.6,32c1,3.3,1,3.3,2.3,6.5c2.1,3,2.1,3,4.4,5.9c2.9,2.4,2.9,2.4,6,4.6
			c9.6,5.6,9.6,5.5,19.2,11.1c1.2,0.7,1.2,0.7,2.4,1.5c1,0.8,1,0.8,2,1.6c0.5,0.4,0.5,0.4,0.9,0.9"/>
		<path id="XMLID_208_" class="st0" d="M185.3,48.5c-5.2-2.9-5.2-2.9-10.4-6c-2.2-1.6-2.2-1.6-4.3-3.3c-1.6-2.1-1.6-2.1-3.1-4.2
			c-0.8-2.1-0.8-2.1-1.5-4.3"/>
		<path id="XMLID_207_" class="st0" d="M193.1,33.3c-0.9-2.3-0.9-2.3-1.9-4.6c-1.6-2.1-1.6-2.1-3.4-4.1c-2.2-1.6-2.2-1.6-4.5-3.1
			c-2.4-0.9-2.5-0.9-5-1.7c-2.2-0.1-2.2-0.1-4.5-0.1"/>
		<path id="XMLID_206_" class="st0" d="M202.9,60.9c-0.6-0.7-0.6-0.7-1.2-1.4c-1-1-1-1-2-2c-1.3-1-1.3-1-2.6-2.1c-1.5-1-1.5-1-3-1.9
			c-4.5-2.5-4.5-2.5-8.9-5.1"/>
		<path id="XMLID_205_" class="st0" d="M193.1,33.3c2.4,10.3,2.4,10.3,4.9,20.5c0.4,1.2,0.5,1.2,0.9,2.5c0.1,0.3,0.1,0.3,0.3,0.6
			c0.2,0.3,0.2,0.3,0.4,0.5"/>
		<path id="XMLID_204_" class="st0" d="M196.1,64.4c4.3,5.2,4.3,5.2,8.6,10.5c0.3,0.3,0.4,0.3,0.7,0.6c1.2,1,1.2,1,2.4,1.9
			c1.6,0.7,1.7,0.7,3.4,1.4c10.1,2.8,10.1,2.7,20.2,5.5c0.8,0.3,0.8,0.3,1.6,0.7"/>
		<path id="XMLID_203_" class="st0" d="M250.6,94.3c-5.4-6.6-5.4-6.6-10.8-13.2c-0.3-0.3-0.4-0.3-0.7-0.6c-1.2-1-1.2-1-2.4-2
			c-1.6-0.7-1.7-0.7-3.4-1.4c-3.3-0.9-3.3-0.9-6.5-1.8"/>
		<path id="XMLID_202_" class="st0" d="M205.6,52.7l-0.3-0.7"/>
		<path id="XMLID_201_" class="st0" d="M172.8,12.3l-6,2l-0.7,0.3"/>
		<path id="XMLID_200_" class="st0" d="M158.7,24.9l-0.1,0.7l-0.1,6.4"/>
		<path id="XMLID_199_" class="st0" d="M184.9,48.2l0.4,0.3"/>
		<path id="XMLID_198_" class="st0" d="M166,30.8l0-4.2"/>
		<path id="XMLID_197_" class="st0" d="M170,21.1l-2.6,2.4l-1.4,3.1"/>
		<path id="XMLID_196_" class="st0" d="M173.9,19.7l-3.9,1.3"/>
		<path id="XMLID_195_" class="st0" d="M185.3,48.5l8.9,5.1"/>
		<path id="XMLID_194_" class="st0" d="M202.4,60.2l0.4,0.3l0.2,0.1"/>
		<path id="XMLID_193_" class="st0" d="M232.9,85l1.2,1L245,99.3"/>
		<path id="XMLID_192_" class="st0" d="M234.9,70.5l33.7,19.5"/>
		<path id="XMLID_191_" class="st0" d="M264.6,96.3l-23.5-13.6"/>
		
			<ellipse id="XMLID_190_" transform="matrix(-0.6343 -0.7731 0.7731 -0.6343 330.0003 349.4255)" class="st0" cx="247.7" cy="96.7" rx="2.8" ry="3.8"/>
		
			<ellipse id="XMLID_189_" transform="matrix(-0.866 -0.5 0.5 -0.866 450.7444 306.8714)" class="st0" cx="266.5" cy="93" rx="2.2" ry="3.8"/>
	</g>
	<g>
		<path id="XMLID_188_" class="st0" d="M648.5,300.2c9.5-2.7,9.5-2.7,19-5.5c3-0.7,3-0.7,6-1.4c2-0.3,2-0.2,4-0.4
			c0.5,0.1,0.6,0.1,1.1,0.2c1.1,0.3,1.1,0.3,2.2,0.6c0.5,0.3,0.5,0.3,1,0.6"/>
		<path id="XMLID_187_" class="st0" d="M683.2,296.3c0,0.6,0,0.6,0.1,1.2c0,0.8,0,0.8-0.1,1.6c-0.2,0.6-0.2,0.6-0.3,1.1"/>
		<path id="XMLID_186_" class="st0" d="M682.9,300.3c-0.3,0.5-0.3,0.5-0.7,0.9c-1.1,1.1-1.1,1.2-2.2,2.2c-2,1.4-2,1.3-4.1,2.7
			c-0.3,0.2-0.3,0.2-0.6,0.4c-2.6,1.3-2.6,1.4-5.2,2.7c-3,1.3-3,1.3-6,2.5c-3,1.1-3,1.1-6,2.1c-2.7,0.7-2.7,0.7-5.4,1.4
			c-0.4,0.1-0.4,0.1-0.8,0.2c-2.2,0.3-2.2,0.3-4.3,0.6c-1.2-0.1-1.2-0.2-2.5-0.4c-0.6-0.1-0.6-0.1-1.2-0.2"/>
		<path id="XMLID_185_" class="st0" d="M647,308.5c1.9-0.2,1.9-0.2,3.8-0.5c2.5-0.6,2.5-0.7,5-1.3c2.8-1,2.8-1,5.6-2
			c2.8-1.2,2.8-1.2,5.6-2.4c2.4-1.2,2.4-1.2,4.9-2.5c1.7-1.1,1.7-1.1,3.4-2.3"/>
		<path id="XMLID_184_" class="st0" d="M601.3,290.7l-28-16.2"/>
		<path id="XMLID_183_" class="st0" d="M603.5,283.3l-26.2-15.1"/>
		<path id="XMLID_182_" class="st0" d="M600.8,281.7l-9.5-11.5"/>
		<path id="XMLID_181_" class="st0" d="M607.5,278.1l-10.6-13"/>
		<path id="XMLID_180_" class="st0" d="M642.9,314.8l-5-2.9l-8.8-5.1"/>
		<path id="XMLID_179_" class="st0" d="M633.4,300.6l8.2,4.7l5,3"/>
		<path id="XMLID_178_" class="st0" d="M646.9,300.4l1.6-0.2"/>
		<path id="XMLID_177_" class="st0" d="M682,294.3l0.8,0.9l0.5,1.1"/>
		<path id="XMLID_176_" class="st0" d="M643.9,315.4l-1-0.6l-5.3-3.2l0.1,0.1"/>
		<path id="XMLID_175_" class="st0" d="M637.9,302.2l1.4,1.8"/>
		<path id="XMLID_174_" class="st0" d="M646.1,300.3L646.1,300.3L646.1,300.3l-0.3-0.3l-6.7-8.1"/>
		<path id="XMLID_173_" class="st0" d="M647.6,308.4l-1.9-0.3"/>
		<path id="XMLID_172_" class="st0" d="M647.3,307.8l1.3-0.2l-2,0.3L647.3,307.8"/>
		<path id="XMLID_171_" class="st0" d="M645.7,307.8l0.9,0.2"/>
		<path id="XMLID_170_" class="st0" d="M648.6,307.7l2-0.3L648.6,307.7"/>
		<path id="XMLID_169_" class="st0" d="M646.1,300.3l0.8,0.1"/>
		<path id="XMLID_168_" class="st0" d="M650.7,307.3l10.1-2.9L650.7,307.3"/>
		<path id="XMLID_167_" class="st0" d="M664.8,303.3l-4.1,1.2l1-0.3"/>
		<path id="XMLID_166_" class="st0" d="M675.3,297.6l1.3-1.2"/>
		<path id="XMLID_165_" class="st0" d="M591.3,270.2c-1-1.2-0.4-3.2,1.2-4.5c1.5-1.2,3.4-1.4,4.4-0.5"/>
		<path id="XMLID_164_" class="st0" d="M573.3,274.5c-0.9-0.8-0.7-2.9,0.5-4.6c1.1-1.6,2.6-2.3,3.5-1.8"/>
	</g>
	<g>
		<path id="XMLID_163_" class="st0" d="M649.8,325.8c4,2.3,4,2.3,8,4.6c0.1,0.1,0.1,0.1,0.1,0.1c0.6,0.9,0.6,0.9,1.2,1.8
			c0,0.1,0,0.1,0.1,0.1c0.2,1.3,0.2,1.3,0.4,2.6c0,0.1,0,0.1,0,0.1c-0.2,1.5-0.2,1.5-0.4,3c-0.5,1.6-0.6,1.6-1.2,3.1
			c-0.9,1.5-0.9,1.5-1.8,2.9c-1.1,1.2-1.1,1.2-2.2,2.4c-1.2,0.8-1.2,0.8-2.4,1.6c-0.1,0-0.1,0-0.1,0.1c-1.2,0.3-1.2,0.3-2.4,0.7
			c-0.1,0-0.1,0-0.1,0c-1-0.2-1-0.2-2.1-0.4c-0.1,0-0.1,0-0.1-0.1"/>
		<path id="XMLID_162_" class="st0" d="M645.3,346.9c-0.3-0.9-0.3-0.9-0.6-1.8c0-0.3,0-0.3-0.1-0.5c0-1.2,0-1.2,0.1-2.3
			c0.1-0.3,0.1-0.3,0.1-0.6"/>
		<path id="XMLID_161_" class="st0" d="M644.8,341.7c0.4-1.3,0.4-1.3,0.7-2.6c0.1-0.3,0.1-0.3,0.2-0.6c0.7-1.3,0.7-1.3,1.3-2.6
			c0.1-0.3,0.1-0.3,0.3-0.5c0.9-1.1,0.9-1.1,1.7-2.2c0.2-0.2,0.2-0.2,0.4-0.4c1-0.8,1-0.8,2-1.6c0.2-0.1,0.2-0.1,0.4-0.3
			c1-0.5,1-0.5,2-0.9c0.2-0.1,0.2-0.1,0.4-0.1c0.9,0,0.9,0,1.9-0.1"/>
		<path id="XMLID_160_" class="st0" d="M646.7,348.7l-8.2-4.8"/>
		<path id="XMLID_159_" class="st0" d="M651.5,348.4l-0.5,0.1l-1.9,0.5l-0.4,0l-1.6-0.3l-0.3-0.2l-1.2-1.1l-0.2-0.4"/>
		<path id="XMLID_158_" class="st0" d="M656.2,329.9l0.3,0.1l1.5,0.8l0.2,0.3l1,1.6l0.1,0.4l0.3,2.2v0"/>
		<path id="XMLID_157_" class="st0" d="M648.8,341.3v2.5l3.4,0.3l3.5-4.3v-4.6l-3.5-0.3l-3.4,4.3V341.3"/>
		<path id="XMLID_156_" class="st0" d="M648.8,341.6l3.2-4v-2.4"/>
		<path id="XMLID_155_" class="st0" d="M648.8,342.1l3.4,2"/>
		<path id="XMLID_154_" class="st0" d="M649.3,338.6l1.1,1"/>
		<path id="XMLID_153_" class="st0" d="M652,335.4l-0.1,0"/>
		<path id="XMLID_152_" class="st0" d="M652,337.7l3.7,2.1"/>
		<path id="XMLID_151_" class="st0" d="M638.4,343.9c-3-1.7-3-7.2,0-12.4c3-5.1,7.8-7.9,10.7-6.2c0.2,0.1,0.4,0.3,0.6,0.5"/>
		<path id="XMLID_150_" class="st0" d="M652,335.2c0.1,2.1-1.3,4.7-3.2,5.9"/>
	</g>
	<g>
		<path id="XMLID_149_" class="st0" d="M197.4,240.4c-0.4-0.2-0.4-0.2-0.7-0.4c-0.1-0.1-0.1-0.1-0.3-0.2c-0.1-0.2-0.1-0.2-0.3-0.3
			c-0.1-0.2-0.1-0.2-0.2-0.4c-0.1-0.2-0.1-0.2-0.1-0.4c0-0.2,0-0.2-0.1-0.4c0-0.3,0-0.5,0-0.6"/>
		<path id="XMLID_148_" class="st0" d="M240.7,73.8c0.1-5.6,0.1-5.6,0-11.3c-0.4-2.4-0.5-2.4-0.9-4.8c-0.4-1.7-0.4-1.7-0.7-3.4"/>
		<path id="XMLID_147_" class="st0" d="M234.2,47.8c-3-1.8-3-1.8-6-3.5c-1.6-0.5-1.7-0.5-3.3-0.9c-1.8-0.2-1.8-0.2-3.7-0.3
			c-1.8,0.2-1.8,0.2-3.6,0.4c-1.6,0.5-1.6,0.5-3.2,1.1c-1.4,0.7-1.4,0.8-2.7,1.6c-1.6,1.1-1.6,1.1-3.3,2.2"/>
		<path id="XMLID_146_" class="st0" d="M203.9,55.2c-0.5,2.3-0.5,2.3-0.9,4.7c-0.1,1.8-0.1,1.8-0.3,3.6c0,1,0,1,0,2.1"/>
		<path id="XMLID_145_" class="st0" d="M234,113.3c-2.7,1-2.7,1-5.4,1.9c-0.9,0.2-0.9,0.2-1.7,0.3c-2.2,0.2-2.2,0.3-4.5,0.4
			c-2.6-0.1-2.6-0.1-5.3-0.4"/>
		<path id="XMLID_144_" class="st0" d="M220.3,253.6c0.2,0.1,0.2,0.1,0.4,0.2c0.2,0.1,0.2,0.1,0.4,0.2c0.3,0,0.3,0,0.5,0
			c0.2,0,0.2,0,0.5,0"/>
		<path id="XMLID_143_" class="st0" d="M232.4,72.7c0.5-0.5,0.5-0.5,1-1.1c0.7-0.6,0.7-0.6,1.4-1.1c0.6-0.3,0.6-0.3,1.3-0.7
			c0.5-0.1,0.5-0.1,1.1-0.2"/>
		<path id="XMLID_142_" class="st0" d="M196.9,240.1l0.5,0.3"/>
		<path id="XMLID_141_" class="st0" d="M195.7,237.7v0.4"/>
		<path id="XMLID_140_" class="st0" d="M197.4,240.4l12.1,7l-3-1.8"/>
		<path id="XMLID_139_" class="st0" d="M195.7,237.7v0.6"/>
		<path id="XMLID_138_" class="st0" d="M195.7,187.4v0.9v-1.1V187.4"/>
		<path id="XMLID_137_" class="st0" d="M195.7,187.4v0.8v-1.1V187.4"/>
		<path id="XMLID_136_" class="st0" d="M195.7,186.1v1v-3V186.1"/>
		<path id="XMLID_135_" class="st0" d="M195.7,186.2v1v-3V186.2"/>
		<path id="XMLID_134_" class="st0" d="M195.7,184.1V172v3"/>
		<path id="XMLID_133_" class="st0" d="M195.7,172v-55.9"/>
		<path id="XMLID_132_" class="st0" d="M202.7,90.1l0.1-17.5"/>
		<path id="XMLID_131_" class="st0" d="M239.1,54.3l-2.6-3.9l-2.2-2.6"/>
		<path id="XMLID_130_" class="st0" d="M208.4,48.4l-1.8,2.7l-2.6,4"/>
		<path id="XMLID_129_" class="st0" d="M209.5,247.4l11.2,6.4"/>
		<path id="XMLID_128_" class="st0" d="M214.3,116.2l7.4,4.3"/>
		<path id="XMLID_127_" class="st0" d="M222.1,254l0.6-0.2l0.4-0.2l-0.2,0.1"/>
		<path id="XMLID_126_" class="st0" d="M223.1,253.6l0.1-0.1"/>
		<path id="XMLID_125_" class="st0" d="M221.7,253.1v-0.4"/>
		<path id="XMLID_124_" class="st0" d="M221.7,120.5v82.7"/>
		<path id="XMLID_123_" class="st0" d="M228.1,116.8l-6.4,3.7"/>
		<path id="XMLID_122_" class="st0" d="M237.2,69.7L238,70l0.5,0.9l0.2,1.3l0,0.3"/>
		<path id="XMLID_121_" class="st0" d="M235.2,112.7l0.3-0.2"/>
		<path id="XMLID_120_" class="st0" d="M247.6,112.7v75.9"/>
		<path id="XMLID_119_" class="st0" d="M230.5,76.4l0.1-0.2l0.5-1.6l1.3-1.9"/>
		
			<ellipse id="XMLID_118_" transform="matrix(0.866 0.5 -0.5 0.866 108.8939 -96.8481)" class="st0" cx="235.2" cy="154.8" rx="3.3" ry="5.7"/>
		
			<ellipse id="XMLID_117_" transform="matrix(0.866 0.5 -0.5 0.866 99.1615 -99.4574)" class="st0" cx="235.2" cy="135.3" rx="3.3" ry="5.7"/>
		
			<ellipse id="XMLID_116_" transform="matrix(-0.866 -0.5 0.5 -0.866 351.7108 442.7152)" class="st0" cx="235.2" cy="174.2" rx="3.3" ry="5.7"/>
		<path id="XMLID_115_" class="st0" d="M231.6,197.9c-1-1.7-0.2-5,1.7-7.3c2-2.3,4.4-2.8,5.4-1.1c0.6,1,0.6,2.6,0,4.3"/>
	</g>
	<g>
		<path id="XMLID_114_" class="st0" d="M577.6,333.8c-1-2.9-1-2.9-1.7-5.8c-0.1-4.5,0-4.6,0-9.1c0.3-3,0.3-3,0.6-6"/>
		<path id="XMLID_113_" class="st0" d="M601.6,320.5c2.4,1,2.4,1,4.8,1.9c2.8,0.4,2.8,0.4,5.7,0.7c3-0.2,3-0.2,6-0.5
			c2.9-0.7,2.9-0.7,5.7-1.6c2.4-1.1,2.4-1.2,4.8-2.4c5.1-2.9,5-2.9,10.1-5.8c0.2-0.1,0.2-0.1,0.4-0.3"/>
		<path id="XMLID_112_" class="st0" d="M617.3,345.3c3.8-1.5,3.8-1.5,7.6-3.1c3.3-1.9,3.3-2,6.5-3.9c1.1-0.8,1.1-0.8,2.1-1.5"/>
		<path id="XMLID_111_" class="st0" d="M617.3,336.3c3.8-1.4,3.8-1.4,7.6-3c3.3-1.9,3.3-1.9,6.5-3.9c0.4-0.3,0.4-0.3,0.9-0.6"/>
		<path id="XMLID_110_" class="st0" d="M632.2,328.9c11.6-6.7,11.6-6.7,23.2-13.4c0.4-0.2,0.4-0.2,0.8-0.3c1.6-0.9,1.6-0.9,3.1-1.8"
			/>
		<path id="XMLID_109_" class="st0" d="M657.3,297.7c-4-2.4-4-2.4-8.1-4.6c-5-2.1-5-2-10-4.1c-0.2-0.1-0.2-0.1-0.5-0.1"/>
		<path id="XMLID_108_" class="st0" d="M663.9,318.4c-1.4,1.5-1.4,1.5-2.8,3c-2.4,1.4-2.4,1.3-4.9,2.6c-1,0.5-1,0.5-2.1,0.9"/>
		<path id="XMLID_107_" class="st0" d="M576.5,312.8l2.8-5.7l4.9-4.8l0.8-0.6l16.1-9.3"/>
		<path id="XMLID_106_" class="st0" d="M575.9,318.8l1.7,5.7"/>
		<path id="XMLID_105_" class="st0" d="M587.1,343.4V334"/>
		<path id="XMLID_104_" class="st0" d="M601.2,303.5l-3,2.7l-1.8,3.8v4l1.8,3.7l3.5,2.9"/>
		<path id="XMLID_103_" class="st0" d="M596.3,310v0.4"/>
		<path id="XMLID_102_" class="st0" d="M598.7,318.1v-1.6l-0.1-0.6l-0.2-0.4l-0.3-0.1l-0.3,0.1l-0.3,0.4l-0.1,0.2"/>
		<path id="XMLID_101_" class="st0" d="M601.2,347.4l8-0.3l8.1-1.8v-9l-8.1,1.7l-8,0.1"/>
		<path id="XMLID_100_" class="st0" d="M629,339.7l9.8,5.7"/>
		<path id="XMLID_99_" class="st0" d="M635.4,339.5v-1.9"/>
		<path id="XMLID_98_" class="st0" d="M664.5,311.6v3.6l-0.6,3.2"/>
		<path id="XMLID_97_" class="st0" d="M663.4,303.9l-0.1-0.2"/>
		<path id="XMLID_96_" class="st0" d="M663.9,318.4v-6.5"/>
		<path id="XMLID_95_" class="st0" d="M633.5,336.8l0.6-0.3l0.5-0.1l0.4,0.2l0.3,0.4l0.1,0.6"/>
		<path id="XMLID_94_" class="st0" d="M601.2,338.1c-10.9-0.9-19.6-6-23.6-13.6"/>
		<path id="XMLID_93_" class="st0" d="M601.2,347.4c-10.9-0.8-19.6-5.8-23.6-13.6"/>
		<path id="XMLID_92_" class="st0" d="M641,345.4c-3.4,0.6-5.7-1.8-5.7-5.9"/>
		<path id="XMLID_91_" class="st0" d="M652.3,327.3c0.2-1,1-2.1,1.8-2.4"/>
	</g>
	<g>
		<path id="XMLID_90_" class="st0" d="M184.5,101.1c3.9,2.4,4,2.5,8.1,4.7c5,1.2,5,1.2,10.1,2.2c3.9,0,4,0,7.9-0.1
			c4.1-0.8,4.1-0.8,8.1-1.7"/>
		<path id="XMLID_89_" class="st0" d="M180.8,76.9c2.4-2.4,2.4-2.4,4.9-4.8c0.4-0.3,0.4-0.3,0.8-0.6c5.2-3,5.2-3,10.5-6.1"/>
		<path id="XMLID_88_" class="st0" d="M234.2,86.2c-2,1.2-2,1.2-4.1,2.4c-2.4,1.2-2.4,1.2-4.8,2.4c-2.8,0.8-2.8,0.8-5.7,1.6
			c-3,0.3-3,0.3-6,0.5c-2.8-0.3-2.8-0.3-5.7-0.7c-2.4-0.9-2.4-0.9-4.8-1.9"/>
		<path id="XMLID_87_" class="st0" d="M218.7,115.2c3.8-1.5,3.9-1.5,7.6-3.1c3.3-1.9,3.3-2,6.5-3.9c1-0.7,1-0.7,2.1-1.5"/>
		<path id="XMLID_86_" class="st0" d="M218.7,106.2c3.8-1.4,3.9-1.4,7.6-2.9c3.3-1.9,3.3-1.9,6.5-3.9c0.4-0.3,0.4-0.3,0.8-0.6
			c3.7-2.1,3.7-2.1,7.4-4.3"/>
		<path id="XMLID_85_" class="st0" d="M179.1,103.7l-1.7-5.8v-9.2l1.7,5.7l5.5,6.7"/>
		<path id="XMLID_84_" class="st0" d="M218.7,106.2v9l-8.1,1.8l-7.9,0.3"/>
		<path id="XMLID_83_" class="st0" d="M177.3,88.7l0.6-6l2.9-5.7"/>
		<path id="XMLID_82_" class="st0" d="M188.6,113.3v-9.8"/>
		<path id="XMLID_81_" class="st0" d="M200.2,88v-1.6l-0.1-0.6l-0.2-0.4l-0.3-0.1l-0.3,0.2l-0.3,0.4l-0.1,0.1"/>
		<path id="XMLID_80_" class="st0" d="M203.1,90.5l-3.5-2.9l-1.8-3.7v-4l1.8-3.8l3.1-2.8"/>
		<path id="XMLID_79_" class="st0" d="M240.3,115.3l-9.8-5.6"/>
		<path id="XMLID_78_" class="st0" d="M236.8,109.4v-1.9"/>
		<path id="XMLID_77_" class="st0" d="M245.6,76.7v-2.1l-1.8-2.9l-3-2.3"/>
		<path id="XMLID_76_" class="st0" d="M240,58.7l0.7,0.2"/>
		<path id="XMLID_75_" class="st0" d="M251.3,88.6l-3.7,2.1"/>
		<path id="XMLID_74_" class="st0" d="M253.7,97.8v1.9l-0.3,2.6"/>
		<path id="XMLID_73_" class="st0" d="M259.1,93.1l-1.4,0.7l-2.1,0.9"/>
		<path id="XMLID_72_" class="st0" d="M265.4,88.1v-8.8l-2.9,3.1l-3.6,2"/>
		<path id="XMLID_71_" class="st0" d="M265.4,79.3l0.6-3.3v9.2l-0.6,3"/>
		<path id="XMLID_70_" class="st0" d="M266,75.9l-1.7-3.5"/>
		<path id="XMLID_69_" class="st0" d="M236.8,107.5l-0.1-0.6l-0.3-0.4l-0.4-0.2l-0.5,0.1l-0.6,0.3"/>
		<path id="XMLID_68_" class="st0" d="M247.5,112.7c-4.5,4-9.1,3.6-10.3-0.9c-0.2-0.7-0.3-1.5-0.3-2.4"/>
		<path id="XMLID_67_" class="st0" d="M202.7,117.3c-10.9-0.8-19.6-5.8-23.6-13.6"/>
		<path id="XMLID_66_" class="st0" d="M240.7,58.9c10.9,3.7,19.6,8.7,23.6,13.6"/>
		<path id="XMLID_65_" class="st0" d="M253.7,97.8c0-1.1,0.8-2.4,1.7-2.9c0.1,0,0.1-0.1,0.2-0.1"/>
	</g>
	<g>
		<path id="XMLID_64_" class="st0" d="M594.2,467.8c0,0.9,0,0.3,0,0.6c0,0.2,0,0.2,0.1,0.4c0.1,0.2,0.1,0.2,0.1,0.4
			c0.1,0.2,0.1,0.2,0.2,0.4c0.1,0.2,0.1,0.2,0.3,0.3c0.1,0.1,0.1,0.1,0.3,0.2c0.9,0.5,0.9,0.5,1.9,1.1"/>
		<path id="XMLID_63_" class="st0" d="M601.2,320.2c-0.1-14.3-0.1-14.2-0.1-28.4c0.4-2.4,0.5-2.4,0.9-4.8c0.6-1.7,0.6-1.7,1.2-3.4
			c1.2-1.9,1.2-1.9,2.5-3.8c1.3-1.3,1.3-1.3,2.6-2.5c1.6-1,1.6-0.9,3.2-1.9c1.4-0.7,1.4-0.7,2.8-1.4c1.7-0.4,1.7-0.4,3.4-0.8
			c1.8-0.1,1.9-0.1,3.7-0.1c1.8,0.3,1.8,0.3,3.5,0.6c1.5,0.6,1.5,0.6,3,1.2c1.5,0.9,1.5,0.9,3,1.7c1.5,1.2,1.5,1.1,3,2.4
			c1.2,1.8,1.2,1.8,2.4,3.7c0.9,1.6,0.9,1.6,1.7,3.3c0.5,2.3,0.5,2.4,0.9,4.7c0,1.1,0,1.2,0,2.3"/>
		<path id="XMLID_62_" class="st0" d="M634.1,342.6c-2,1-2,1-4.1,1.8c-2.2,0.6-2.2,0.6-4.5,1.1c-0.7,0.1-0.7,0.1-1.3,0.2
			c-3.1,0.1-3.1,0.1-6.3,0.1c-1.1-0.1-1.1-0.1-2.2-0.3"/>
		<path id="XMLID_61_" class="st0" d="M635.2,299.8c-0.6,0.2-0.6,0.2-1.2,0.4c-0.7,0.4-0.7,0.4-1.4,0.9c-0.7,0.6-0.7,0.6-1.4,1.2
			c-0.6,0.7-0.6,0.7-1.2,1.5c-0.4,0.8-0.4,0.8-0.8,1.6c-0.2,0.8-0.2,0.8-0.3,1.6"/>
		<path id="XMLID_60_" class="st0" d="M597.1,471.2l-1.9-1.1"/>
		<path id="XMLID_59_" class="st0" d="M597.1,471.2l22.1,12.8"/>
		<path id="XMLID_58_" class="st0" d="M594.2,346.2v72.1"/>
		<path id="XMLID_57_" class="st0" d="M606.2,476.5l1.4,0.8"/>
		<path id="XMLID_56_" class="st0" d="M620.2,350.6l-7.4-4.3"/>
		<path id="XMLID_55_" class="st0" d="M632.8,477.2l0.7-0.4l-12.3,7.1l-0.6,0.2l-1,0l-0.4-0.2l-0.9-0.5"/>
		<path id="XMLID_54_" class="st0" d="M620.2,484.1V479"/>
		<path id="XMLID_53_" class="st0" d="M620.2,350.6v82.3"/>
		<path id="XMLID_52_" class="st0" d="M626.6,346.9l-6.4,3.7"/>
		<path id="XMLID_51_" class="st0" d="M637.1,302.7v-1l-0.3-1.1l-0.6-0.7l-0.9-0.1"/>
		<path id="XMLID_50_" class="st0" d="M629,307l0.3,1.4l0.8,1.1l1.2,0.6h1.4l1-0.4l0.3-0.2"/>
		<path id="XMLID_49_" class="st0" d="M633.5,476.8l11.7-6.7"/>
		<path id="XMLID_48_" class="st0" d="M639.2,303.9l0-0.1"/>
		<path id="XMLID_47_" class="st0" d="M643.3,471.2l1.9-1.1l0.5-0.4l0.5-0.9l0.1-0.5v-1v0.8"/>
		<path id="XMLID_46_" class="st0" d="M646.1,417.3v0.7v-1.1V417.3"/>
		<path id="XMLID_45_" class="st0" d="M646.1,417.9v-1.1V417.9"/>
		<path id="XMLID_44_" class="st0" d="M646.1,416.2v0.6v-3V416.2"/>
		<path id="XMLID_43_" class="st0" d="M646.1,416v0.9v-3V416"/>
		<path id="XMLID_42_" class="st0" d="M646.1,413.8v-12.1v3"/>
		<path id="XMLID_41_" class="st0" d="M646.1,401.7v-53.3"/>
		
			<ellipse id="XMLID_40_" transform="matrix(0.866 0.5 -0.5 0.866 277.3237 -265.2776)" class="st0" cx="633.7" cy="384.9" rx="3.3" ry="5.7"/>
		<path id="XMLID_39_" class="st0" d="M629.8,427.4c-0.7-2.1,0.6-5.4,2.7-7.4c2.1-2,4.4-1.9,5,0.2c0.2,0.8,0.2,1.7,0,2.7"/>
		
			<ellipse id="XMLID_38_" transform="matrix(0.866 0.5 -0.5 0.866 287.0555 -262.6715)" class="st0" cx="633.7" cy="404.3" rx="3.3" ry="5.7"/>
		
			<ellipse id="XMLID_37_" transform="matrix(0.866 0.5 -0.5 0.866 267.5913 -267.8869)" class="st0" cx="633.7" cy="365.4" rx="3.3" ry="5.7"/>
	</g>
	<g>
		<path id="XMLID_36_" class="st0" d="M654.2,442.9c4.1,2.4,4.1,2.4,8.2,4.7c0.1,0.1,0.1,0.1,0.1,0.1c0.7,0.8,0.7,0.8,1.4,1.6
			c0,0.1,0,0.1,0.1,0.1c0.3,1.2,0.3,1.2,0.6,2.4c0,0.1,0,0.1,0,0.1c-0.1,1.5-0.1,1.5-0.2,2.9c-0.5,1.6-0.5,1.6-1,3.1
			c-0.8,1.5-0.8,1.5-1.7,3c-1,1.3-1,1.3-2.1,2.6c-1.2,0.9-1.2,0.9-2.4,1.8c-0.1,0-0.1,0-0.1,0.1c-1.2,0.5-1.2,0.5-2.4,0.9
			c-0.1,0-0.1,0-0.1,0c-1.1-0.1-1.1-0.1-2.2-0.1c-0.1,0-0.1,0-0.1-0.1"/>
		<path id="XMLID_35_" class="st0" d="M650.7,465c-0.4-0.9-0.4-0.9-0.8-1.7c-0.1-0.2-0.1-0.2-0.1-0.5c-0.1-1.1-0.1-1.1-0.1-2.2
			c0-0.3,0-0.3,0.1-0.6"/>
		<path id="XMLID_34_" class="st0" d="M649.8,460c0.3-1.3,0.3-1.3,0.5-2.5c0.1-0.3,0.1-0.3,0.2-0.6c0.6-1.3,0.6-1.3,1.2-2.6
			c0.1-0.3,0.1-0.3,0.3-0.5c0.8-1.2,0.8-1.2,1.6-2.3c0.2-0.2,0.2-0.2,0.4-0.5c1-0.9,1-0.9,2-1.8c0.2-0.2,0.2-0.2,0.4-0.3
			c1-0.6,1-0.6,2-1.1c0.2-0.1,0.2-0.1,0.4-0.1c1-0.1,1-0.1,1.9-0.3"/>
		<path id="XMLID_33_" class="st0" d="M652.2,466.4l-8-4.6"/>
		<path id="XMLID_32_" class="st0" d="M657.2,465.6L657.2,465.6l-0.5,0.2l-2,0.7h-0.4l-1.7-0.1l-0.4-0.2l-1.3-0.9l-0.2-0.3"/>
		<path id="XMLID_31_" class="st0" d="M660.7,447.4l0.3,0.1l1.6,0.6l0.2,0.2l1.1,1.4l0.1,0.4l0.5,2"/>
		<path id="XMLID_30_" class="st0" d="M653.3,459.4l2-5.1l4-2.3l2,2.8l-2,5.1l-4,2.3L653.3,459.4"/>
		<path id="XMLID_29_" class="st0" d="M653.5,459l0.1-0.1l-0.1-0.1"/>
		<path id="XMLID_28_" class="st0" d="M653.6,458.9l2-1.2l3.7,2.2"/>
		<path id="XMLID_27_" class="st0" d="M655.6,457.7l1.8-4.7"/>
		<path id="XMLID_26_" class="st0" d="M655.8,453.9l1.1,0.1"/>
		<path id="XMLID_25_" class="st0" d="M661.3,454.8l-3.5-2"/>
		<path id="XMLID_24_" class="st0" d="M657,453.2c-0.1,2.2-1.7,4.7-3.6,5.7"/>
		<path id="XMLID_23_" class="st0" d="M644.2,461.8c-3.3-1.1-3.9-6.2-1.3-11.5c2.6-5.3,7.3-8.8,10.6-7.7c0.3,0.1,0.5,0.2,0.7,0.3"/>
	</g>
	<g>
		<path id="XMLID_22_" class="st0" d="M540,483.7c0-1.5,0,1.6,0,3.1c0.4,1.7,0.4,1.7,0.9,3.5c0.8,1.7,0.8,1.7,1.7,3.4
			c1.1,1.5,1.1,1.5,2.2,3c1.3,1.2,1.3,1.2,2.6,2.3"/>
		<path id="XMLID_21_" class="st0" d="M546.9,485.8c0.1,0.9,0.1,0.9,0.2,1.7c0.3,0.9,0.3,0.9,0.7,1.8c0.5,0.9,0.5,0.9,1,1.7
			c0.6,0.7,0.6,0.7,1.3,1.4c0.7,0.5,0.7,0.5,1.4,0.9"/>
		<path id="XMLID_20_" class="st0" d="M548.7,486.5c0.3,0.9,0.3,0.9,0.7,1.8c0.5,0.8,0.5,0.8,1,1.7c0.6,0.7,0.6,0.7,1.3,1.4
			c0.7,0.5,0.7,0.5,1.4,0.9"/>
		<path id="XMLID_19_" class="st0" d="M540.9,480.4L540,483l0,0.8"/>
		<path id="XMLID_18_" class="st0" d="M547.4,499l0.5,0.3l2.9,1.4l2.6,0.2l0.9,0.1l0.9-0.3l1.1-0.5"/>
		<path id="XMLID_17_" class="st0" d="M541.3,480.4l-0.4,0.4l-0.6,1.4l-0.3,1.1"/>
		<path id="XMLID_16_" class="st0" d="M547.4,499l2,1l1,0.5l1.6,0.1l0.9,0l1.4-0.6l0.7-0.4l0.8-1.1"/>
		<path id="XMLID_15_" class="st0" d="M547.7,488.8l0.3,0.7"/>
		<path id="XMLID_14_" class="st0" d="M548.8,490.8l0.2,0.3"/>
		<path id="XMLID_13_" class="st0" d="M547.1,484.8l-0.1,0.9"/>
		<path id="XMLID_12_" class="st0" d="M551.5,493.2l1.3,0.4l1-0.2"/>
		<path id="XMLID_11_" class="st0" d="M548.7,486.4l0,0.2"/>
		<path id="XMLID_10_" class="st0" d="M553.1,492.3l0.7,0.2"/>
		<path id="XMLID_9_" class="st0" d="M550.3,489.8l0.2,0.3"/>
		<path id="XMLID_8_" class="st0" d="M549.7,488.9l-0.5-0.9"/>
		<path id="XMLID_7_" class="st0" d="M553.5,491.2c-0.8-0.6-1.6-1.4-2.3-2.3"/>
		<path id="XMLID_6_" class="st0" d="M554.2,492.9c-2.1,0-4.6-2.5-5.6-5.5c-0.2-0.5-0.3-1.1-0.4-1.6"/>
		<path id="XMLID_5_" class="st0" d="M553.8,493.5c-1.6,1-4.3-0.5-6-3.4c-1.2-2-1.6-4.2-1-5.7"/>
		<path id="XMLID_4_" class="st0" d="M553.4,491c1.3,4.4-0.3,7.7-3.5,7.4c-3.2-0.4-6.9-4.3-8.1-8.8c-1.1-4,0-7.1,2.7-7.4"/>
		<path id="XMLID_3_" class="st0" d="M553.7,494.9c-2,1.1-5.2-0.8-7.2-4.2c-1.5-2.7-1.9-5.6-0.9-7.3"/>
		<path id="XMLID_2_" class="st0" d="M553.1,496.8c-3.1,0.1-6.8-3.5-8.4-7.9c-0.9-2.6-0.9-5-0.1-6.5"/>
	</g>
</g>
<g id="XMLID_378_">
	<g id="XMLID_381_">
		<path id="XMLID_394_" d="M813.4,3c14,0,25.5,11.4,25.5,25.5v538.3c0,14-11.4,25.5-25.5,25.5H28.5c-14,0-25.5-11.4-25.5-25.5V28.5
			C3,14.4,14.4,3,28.5,3H813.4 M813.4,0H28.5C12.8,0,0,12.8,0,28.5v538.3c0,15.7,12.8,28.5,28.5,28.5h784.9
			c15.7,0,28.5-12.8,28.5-28.5V28.5C841.9,12.8,829.1,0,813.4,0L813.4,0z"/>
	</g>
	<g id="XMLID_380_">
		<path id="XMLID_407_" d="M1.5,83.5V28.5c0-14.9,12.1-27,27-27h55.1v55.1c0,14.9-12.1,27-27,27H1.5z"/>
		<g id="XMLID_403_">
			<path id="XMLID_404_" d="M82,3v53.6C82,70.6,70.6,82,56.6,82H3V28.5C3,14.4,14.4,3,28.5,3H82 M85,0H28.5C12.8,0,0,12.8,0,28.5V85
				h56.6C72.2,85,85,72.2,85,56.6V0L85,0z"/>
		</g>
	</g>
	<g id="XMLID_382_">
		<path id="XMLID_383_" class="st1" d="M54.3,50.1h-3.8v7.3h-6.5v-7.3H30.4v-5.8l12.5-20.6h7.5v21.2h3.8V50.1z M43.9,44.9V30.2
			l-8.5,14.6H43.9z"/>
	</g>
</g>
</svg>
