<?xml version="1.0" encoding="utf-8"?>
<!-- Generator: Adobe Illustrator 19.0.0, SVG Export Plug-In . SVG Version: 6.00 Build 0)  -->
<svg version="1.1" id="Layer_1" xmlns="http://www.w3.org/2000/svg" xmlns:xlink="http://www.w3.org/1999/xlink" x="0px" y="0px"
	 width="841.9px" height="595.3px" viewBox="0 0 841.9 595.3" style="enable-background:new 0 0 841.9 595.3;" xml:space="preserve"
	>
<style type="text/css">
	.st0{fill:none;stroke:#0B0620;stroke-width:0.5;stroke-linecap:round;stroke-linejoin:round;}
	.st1{fill:none;stroke:#000000;stroke-linecap:round;stroke-linejoin:round;stroke-dasharray:4.7,3.1,1.6,3.1;}
	.st2{stroke:#000000;stroke-width:8.800000e-02;stroke-linecap:round;stroke-linejoin:round;}
	.st3{fill:#FFFFFF;stroke:#000000;stroke-linecap:round;stroke-linejoin:round;stroke-opacity:0.98;}
	.st4{fill:none;stroke:#000000;stroke-width:0.25;stroke-linecap:round;stroke-linejoin:round;}
	.st5{stroke:#000000;stroke-width:0.25;stroke-linecap:round;stroke-linejoin:round;}
	.st6{fill:none;stroke:#0B0620;stroke-width:0.25;stroke-linecap:round;stroke-linejoin:round;}
	.st7{fill:#FFFFFF;}
</style>
<g id="XMLID_2_">
	<g id="XMLID_889_">
		<path id="XMLID_519_" class="st0" d="M225.4,286.8c1.6,0.6,1.6,0.6,3.3,1.1c1.9,0.2,1.9,0.2,3.7,0.4c1.9-0.1,1.9-0.1,3.7-0.3
			c1.7-0.5,1.7-0.5,3.4-1"/>
		<path id="XMLID_518_" class="st0" d="M244.5,280.7c-0.2-0.7-0.2-0.7-0.5-1.4c-0.2-0.4-0.2-0.4-0.4-0.8c-0.6-0.6-0.6-0.6-1.2-1.2
			c-0.5-0.4-0.5-0.4-0.9-0.7c-0.9-0.5-0.9-0.5-1.8-1c-0.6-0.2-0.6-0.2-1.2-0.4c-1.1-0.3-1.1-0.3-2.2-0.6c-0.7-0.1-0.7-0.1-1.5-0.2
			c-1.2-0.1-1.2-0.1-2.4-0.1c-0.8,0-0.8,0-1.5,0.1c-1.1,0.2-1.1,0.2-2.3,0.3c-0.7,0.2-0.7,0.2-1.4,0.4c-1,0.4-1,0.4-2,0.7
			c-0.6,0.3-0.6,0.3-1.2,0.6c-0.7,0.5-0.7,0.5-1.4,1.1c-0.4,0.4-0.4,0.4-0.8,0.8c-0.4,0.6-0.4,0.6-0.7,1.3c-0.2,0.5-0.2,0.5-0.3,0.9
			"/>
		<path id="XMLID_517_" class="st0" d="M219.6,278.5l0.3,2.3l0.2,0.9l0.5,0.8l1.6,2.2l2.7,1.7l0.5,0.3"/>
		<path id="XMLID_516_" class="st0" d="M239.5,286.9l0.4-0.2l-0.1,0v0"/>
		<path id="XMLID_515_" class="st0" d="M245.7,278.1v0.4l-0.4,2.5l-0.2,1l-0.5,0.8l-1.7,2.1l-2.9,1.8l2.6-1.6l1.1-1.3l0.6-0.8
			l0.3-1.4l0.1-0.8"/>
		<path id="XMLID_514_" class="st0" d="M220.7,280.6l0.1,1.3l0.2,0.9l0.9,1.2l0.7,0.9l2.7,1.7"/>
		<path id="XMLID_513_" class="st0" d="M238.6,278.2c0.7,1.9-1.4,3.8-4.7,4.2c-3.3,0.4-6.6-0.8-7.4-2.7c-0.2-0.5-0.2-1,0-1.5"/>
		<ellipse id="XMLID_512_" class="st0" cx="232.6" cy="282.2" rx="9.1" ry="5.2"/>
		<path id="XMLID_511_" class="st0" d="M241.2,280.6c-1.5,2.8-6.6,4.3-11.4,3.4c-2.8-0.5-5-1.8-5.9-3.4"/>
	</g>
	<g id="XMLID_612_">
		<path id="XMLID_510_" class="st0" d="M203.9,132.7c0.4,0.1,0.4,0.1,0.7,0.2c0.6,0.1,0.6,0.1,1.2,0.1c0.4,0,0.4,0,0.8-0.1
			c0.7-0.2,0.7-0.2,1.4-0.5c0.4-0.2,0.4-0.2,0.9-0.4c0.7-0.5,0.7-0.6,1.5-1.1c0.4-0.4,0.4-0.4,0.8-0.7c0.6-0.8,0.6-0.8,1.3-1.6
			c0.3-0.5,0.3-0.5,0.6-0.9c0.8-1.4,0.8-1.4,1.5-2.9c0.4-1,0.4-1,0.6-2c0.1-0.5,0.1-0.5,0.2-1c0.1-1,0.1-1,0.1-1.9
			c0-0.4,0-0.4,0-0.8c-0.1-0.8-0.1-0.8-0.3-1.5c-0.1-0.4-0.1-0.4-0.3-0.7c-0.4-0.5-0.4-0.5-0.8-1.1"/>
		<path id="XMLID_509_" class="st0" d="M211.7,115.7c0.2,0.2,0.2,0.2,0.4,0.5c0.3,0.5,0.3,0.5,0.5,1c0.1,0.4,0.1,0.4,0.2,0.7
			c0.1,0.7,0.1,0.7,0.1,1.4c0,0.5,0,0.5,0,0.9c-0.1,0.8-0.1,0.8-0.3,1.6c-0.1,0.5-0.1,0.5-0.2,1c-0.6,1.3-0.6,1.3-1.2,2.6
			c-0.8,1.2-0.8,1.2-1.6,2.3c-0.6,0.6-0.6,0.6-1.3,1.2c-0.3,0.3-0.3,0.3-0.7,0.6c-0.7,0.4-0.7,0.4-1.4,0.8c-0.3,0.1-0.3,0.1-0.7,0.2
			c-0.6,0.2-0.6,0.2-1.3,0.3c-0.3,0-0.3,0-0.6,0c-0.6-0.1-0.6-0.1-1.1-0.3"/>
		<path id="XMLID_508_" class="st0" d="M200.7,127.5c0-1.1,0-1.2,0-2.3c0.3-1.3,0.3-1.3,0.7-2.6c0.6-1.2,0.6-1.3,1.2-2.5
			c0.8-1.1,0.8-1.1,1.7-2.2c1-0.9,1-0.9,1.9-1.7c1.2-0.6,1.2-0.6,2.4-1.1"/>
		<path id="XMLID_507_" class="st0" d="M205.5,269.5c0.3,1.4,0.3,1.4,0.6,2.9c0.1,3.5,0.1,3.5,0.2,7.1c0.1,0.7,0.1,0.7,0.2,1.4
			c1.2,2.4,1.2,2.4,2.5,4.8c0.3,0.6,0.3,0.6,0.7,1.1c2.4,2,2.4,2,4.9,4c0.4,0.3,0.4,0.3,0.9,0.5c3.2,1.4,3.2,1.4,6.5,2.7
			c3.8,0.7,3.9,0.7,7.7,1.3c4,0,4,0,8-0.2c3.7-0.7,3.7-0.7,7.5-1.7c3.1-1.4,3-1.5,6.1-3c0.5-0.3,0.5-0.3,1-0.6
			c2.2-2.1,2.2-2.1,4.3-4.2c0.4-0.5,0.4-0.5,0.7-1.1c0.9-2.4,0.9-2.4,1.7-4.9c0.2-0.7,0.2-0.7,0.3-1.4c-0.1-3.5-0.1-3.6-0.2-7.1"/>
		<path id="XMLID_506_" class="st0" d="M271.3,280.1c-1.6-2.8-1.6-2.8-3.1-5.7c-2.2-3.8-2.2-3.8-4.5-7.6c-0.3-0.7-0.3-0.7-0.6-1.3
			c-0.2-0.7-0.2-0.7-0.4-1.4c0-0.6,0-0.6,0-1.3"/>
		<path id="XMLID_505_" class="st0" d="M262.7,262.9c-0.2,1.7-0.2,1.7-0.5,3.4c-1.1,3.2-1.1,3.2-2.4,6.3c-0.4,0.6-0.4,0.6-0.7,1.2"
			/>
		<path id="XMLID_504_" class="st0" d="M238.2,342c3.2,17.1,3.2,17.1,6.1,34.3c1.2,16.3,1.1,16.3,2,32.7c0,7.6,0.1,7.6,0,15.3
			c-0.9,8.5-0.7,8.6-1.9,17c-2.6,7-2.6,7.1-5.5,13.9"/>
		<path id="XMLID_503_" class="st0" d="M244.9,198.3c-0.5,1.6-0.5,1.6-0.9,3.1c-0.2,1.3-0.2,1.4-0.3,2.7c0.2,4,0.2,4,0.5,8"/>
		<path id="XMLID_502_" class="st0" d="M244.9,198.3c0.4-1.6,0.4-1.6,1-3.2c1.6-3,1.6-3,3.2-5.8c3-4,2.9-4,6-7.9
			c4.2-4.2,4.3-4.2,8.6-8.3c3.4-2.6,3.4-2.6,6.9-5.1"/>
		<path id="XMLID_501_" class="st0" d="M252.7,447.2c5.1-8.1,5.1-8.1,9.8-16.4c3.4-9.7,3.3-9.8,6.4-19.6c2-8.7,2-8.7,3.9-17.5
			c3-18.6,3.2-18.6,5.9-37.3c1.1-19.4,1.1-19.4,1.7-38.8c-1-9.7-1-9.7-2.4-19.4c-3.1-9.1-3.1-9.2-6.6-18.1"/>
		<path id="XMLID_500_" class="st0" d="M285.1,422.3c-4.2,11.3-4.2,11.3-8.3,22.5c-0.1,0.6-0.1,0.6-0.3,1.1c0,0.7,0,0.7,0,1.3
			c0.1,0.6,0.1,0.6,0.3,1.3"/>
		<path id="XMLID_499_" class="st0" d="M281.5,464.1c3-1.7,3-1.7,6.1-3.2c4.8-1.7,4.8-1.7,9.7-3.4c0.8-0.2,0.8-0.1,1.6-0.3
			c0.9,0,0.9,0,1.8,0c1.3,0.2,1.3,0.2,2.6,0.4c1.4,0.3,1.4,0.3,2.9,0.6"/>
		<path id="XMLID_498_" class="st0" d="M300.8,444.3c0.1-0.3,0.1-0.3,0.2-0.6c0.2-1,0.2-1,0.5-2c0.1-0.6,0.1-0.6,0.1-1.3"/>
		<path id="XMLID_497_" class="st0" d="M289.5,337.9c0.1-9.4,0.1-9.4,0.2-18.8c0-1.6,0-1.6-0.1-3.2c0-0.6,0-0.6,0.1-1.2
			c0.2-0.5,0.2-0.5,0.4-1.1"/>
		<path id="XMLID_496_" class="st0" d="M293.4,312.9c0.4,0.4,0.4,0.4,0.8,0.8c0.3,0.5,0.3,0.5,0.6,1.1c1,2.4,1,2.4,1.9,4.7
			c0.4,1.5,0.5,1.5,0.9,3c0.2,1.5,0.2,1.5,0.3,3.1c-0.1,1.5-0.1,1.5-0.4,3c-1.3,6.1-1.3,6.1-2.6,12.1"/>
		<path id="XMLID_495_" class="st0" d="M288.4,270.2c-0.2,1.9-0.2,1.9-0.2,3.8c0.4,2,0.4,2,0.9,3.9c4.6,11.7,4.6,11.7,9.3,23.5
			c0.3,0.5,0.3,0.5,0.6,1.1c0.4,0.4,0.4,0.4,0.8,0.8"/>
		<path id="XMLID_494_" class="st0" d="M303.4,301.4c2.3-11,2.3-11.1,4.8-22c2.8-8.8,2.8-8.8,5.8-17.5c1.9-4.1,2-4,4-8.1
			c0.7-1.5,0.7-1.5,1.4-3c0.5-1.5,0.5-1.5,0.9-3.1c0.1-1.4,0.1-1.4,0.2-2.9c-0.1-0.8-0.1-0.8-0.2-1.6"/>
		<path id="XMLID_493_" class="st0" d="M305.6,466.3c-0.3,0.2-0.3,0.2-0.6,0.4c-1.2,0.9-1.2,0.9-2.5,1.9c-1.1,1.3-1.1,1.3-2.2,2.6
			c-0.9,1.2-0.8,1.2-1.7,2.5c-1.6,2-1.6,2-3.2,4"/>
		<path id="XMLID_492_" class="st0" d="M324.5,199c-3.5,2.5-3.5,2.5-7,5.2c-4.4,4.1-4.4,4.1-8.6,8.3c-3,3.9-3,3.9-6,7.8
			c-3.3,5.7-3.2,5.7-6.4,11.5c-2.4,3.9-2.4,3.9-4.9,7.7"/>
		<path id="XMLID_491_" class="st0" d="M314.5,421.6c-1.4,1.2-1.4,1.2-2.9,2.4c-1.5,0.7-1.5,0.7-3.1,1.2c-1,0.1-1,0.1-2,0.2"/>
		<path id="XMLID_490_" class="st0" d="M305.2,425.1c-0.5-0.3-0.5-0.3-0.9-0.6c-0.8-0.8-0.9-0.8-1.6-1.6c-1.1-1.5-1.1-1.5-2.1-3
			c-0.1-0.2-0.1-0.2-0.2-0.5c-0.5-1.5-0.6-1.5-1.1-2.9c-0.3-1.9-0.3-1.9-0.5-3.7c0.1-1.8,0.2-1.8,0.4-3.6c0.2-1.7,0.2-1.7,0.5-3.4"
			/>
		<path id="XMLID_489_" class="st0" d="M298.3,388.4c6.8-3.6,6.8-3.6,13.5-7.2c4.5-2.5,4.5-2.4,9-4.9c0.9-0.6,0.9-0.6,1.7-1.2
			c0.6-0.7,0.6-0.7,1.2-1.4"/>
		<path id="XMLID_488_" class="st0" d="M298,262.7c1.2-0.6,1.2-0.7,2.4-1.4c0.4-0.4,0.4-0.4,0.9-0.8c0.4-0.4,0.4-0.4,0.6-0.9
			c0.2-0.5,0.2-0.5,0.4-0.9c0.1-0.5,0.1-0.5,0.1-1c0-0.9,0-0.9,0-1.8c0.1-2.1,0.1-2.1,0.3-4.1c0.5-1.8,0.5-1.9,1.1-3.6
			c0.9-1.6,0.9-1.6,1.9-3.2"/>
		<path id="XMLID_487_" class="st0" d="M320.2,395.2c-2-0.4-2-0.4-4-0.9c-1.2-0.1-1.2-0.1-2.4-0.2c-0.8,0-0.8,0-1.7,0.1
			c-0.7,0.2-0.7,0.2-1.4,0.4c-3.3,1.7-3.3,1.7-6.6,3.5"/>
		<path id="XMLID_486_" class="st0" d="M320,239.6c0.5,0.2,0.5,0.2,0.9,0.4c0.5,0.1,0.5,0.1,1,0.2c1.1-0.1,1.1-0.1,2.2-0.1
			c1.2-0.4,1.2-0.4,2.4-0.9c1.1-0.6,1.1-0.6,2.2-1.4c1-0.9,1-0.9,1.9-1.7c2.5-2.6,2.4-2.6,5-5.2c6.6-5.2,6.6-5.2,13.4-10.2
			c5.5-3.3,5.5-3.3,11.2-6.5"/>
		<path id="XMLID_485_" class="st0" d="M337.1,200.9c-1.3,0.7-1.3,0.7-2.6,1.5c-4.5,3.1-4.6,3.1-9,6.3c-4.4,4.1-4.4,4.1-8.6,8.3
			c-3,3.9-3,3.9-6,7.9c-1.7,2.9-1.7,2.9-3.3,5.8c-0.5,1.6-0.5,1.6-0.9,3.2"/>
		<path id="XMLID_484_" class="st0" d="M314.2,248.6c-0.1-0.6-0.1-0.6-0.3-1.2c-0.2-0.5-0.2-0.5-0.4-1c-0.3-0.4-0.3-0.4-0.6-0.8
			c-0.4-0.3-0.4-0.3-0.7-0.6c-0.8-0.3-0.8-0.3-1.6-0.6"/>
		<path id="XMLID_483_" class="st0" d="M307.4,346.7c2.8,7.2,2.8,7.2,5.7,14.4c1.1,2.1,1.1,2.2,2.2,4.3c1.4,1.7,1.4,1.7,2.8,3.4
			c0.7,0.6,0.8,0.6,1.5,1.2c0.8,0.5,0.8,0.5,1.6,0.9c1.1,0.5,1.1,0.4,2.1,0.9c0.4,0.3,0.4,0.3,0.7,0.6"/>
		<path id="XMLID_482_" class="st0" d="M330.1,350.1c-0.4,0.4-0.4,0.4-0.8,0.8c-1.9,1.1-1.9,1.1-3.7,2.2c-1.2,0.4-1.2,0.4-2.4,0.6"
			/>
		<path id="XMLID_481_" class="st0" d="M320.4,353.1c-0.4-0.3-0.4-0.3-0.7-0.6c-0.6-0.8-0.6-0.8-1.2-1.6c-1.1-2.1-1.1-2.1-2.2-4.2
			c-3.6-9-3.6-9-7.1-17.9"/>
		<path id="XMLID_480_" class="st0" d="M308.4,319.6c3.8-17.8,3.8-17.8,7.8-35.6c2.8-8.8,2.9-8.8,5.8-17.5c2.3-4.8,2.4-4.7,4.8-9.4
			c0.9-1.4,1-1.4,2-2.7c1.2-1.1,1.2-1.2,2.5-2.3c1.3-0.8,1.3-0.8,2.7-1.5c0.6-0.2,0.6-0.2,1.3-0.4c0.6-0.1,0.6-0.1,1.2-0.2
			c0.5,0,0.6,0,1.1,0.1c0.5,0.2,0.5,0.2,1,0.4"/>
		<path id="XMLID_479_" class="st0" d="M312.3,487.4c-0.3-1.4-0.3-1.4-0.6-2.9c0.1-1.6,0.1-1.6,0.4-3.1c0.3-0.9,0.4-0.9,0.7-1.7
			c0.3-0.5,0.3-0.5,0.6-1c1.1-1.3,1.1-1.3,2.2-2.6c1.2-1,1.2-1,2.5-1.9c0.3-0.2,0.3-0.2,0.6-0.4"/>
		<path id="XMLID_478_" class="st0" d="M320.4,243.3c-0.1-0.4-0.1-0.4-0.2-0.7c-0.2-0.4-0.2-0.4-0.5-0.9c-0.4-0.3-0.4-0.3-0.7-0.6"
			/>
		<path id="XMLID_477_" class="st0" d="M326.7,490.1c-1.7-4.4-1.7-4.4-3.5-8.8c-1.4-2.9-1.5-2.9-2.9-5.8c-0.4-1.1-0.4-1.1-0.6-2.2"
			/>
		<path id="XMLID_476_" class="st0" d="M328.8,254.4c0.5,0,0.5,0,0.9,0.1c0.5,0.2,0.5,0.2,0.9,0.4c2.2,1.2,2.2,1.2,4.4,2.5
			c1.3,1,1.3,1,2.5,2"/>
		<path id="XMLID_475_" class="st0" d="M338.7,261.4c0.4,1.5,0.4,1.5,0.6,3c-0.2,2.6-0.2,2.6-0.5,5.2c-0.1,0.4-0.1,0.4-0.2,0.9
			c-0.7,1.7-0.7,1.7-1.4,3.5"/>
		<path id="XMLID_474_" class="st0" d="M340.2,454.2c-1.2,12.9-1.2,12.9-2.4,25.9c-0.1,0.6-0.1,0.6-0.2,1.2c-0.2,0.5-0.2,0.5-0.5,1"
			/>
		<path id="XMLID_473_" class="st0" d="M338.5,250.3c2.2,1.3,2.2,1.3,4.4,2.5c1.5,0.7,1.5,0.7,3,1.3c1.4,0.6,1.5,0.5,2.9,1.1
			c1.9,0.8,1.9,0.8,3.8,1.6c4.1,1.9,4.1,1.9,8.2,3.7"/>
		<path id="XMLID_472_" class="st0" d="M362.8,221.8c-3,1.6-3,1.6-5.9,3.4c-6.7,5.1-6.7,5.1-13.4,10.3c-2.5,2.5-2.5,2.6-4.9,5.1
			c-0.7,1-0.7,1-1.4,2.1c-0.4,1.1-0.4,1.1-0.7,2.2"/>
		<path id="XMLID_471_" class="st0" d="M355.6,506.6c-0.8-11.3-0.8-11.4-1.2-22.7c1.1-10.9,1.2-10.9,2.7-21.8
			c1.8-8.8,1.8-8.8,3.8-17.5c4.9-17.5,4.8-17.5,9.9-34.9c6.7-16,6.7-16,13.8-31.8c4.5-6.4,4.5-6.5,9.4-12.5"/>
		<path id="XMLID_470_" class="st0" d="M394.1,365.3c6-3.7,6.1-3.7,12.2-7.3c2.3-0.7,2.3-0.6,4.6-1.1c5.7-0.6,5.7-0.6,11.4-1.1"/>
		<path id="XMLID_469_" class="st0" d="M422.3,355.8c-1.8,0.4-1.8,0.4-3.6,0.9c-4.2,1.4-4.2,1.4-8.5,2.8c-1.1,0.4-1.1,0.4-2.1,0.9
			c-3.4,1.6-3.4,1.6-6.8,3.2c-1,0.5-1,0.5-2,1.1c-2.6,1.6-2.6,1.6-5.1,3.2c-0.7,0.6-0.7,0.6-1.5,1.1c-1.7,1.7-1.7,1.7-3.4,3.4
			c-0.5,0.8-0.5,0.8-1,1.6"/>
		<path id="XMLID_468_" class="st0" d="M364.4,380.8c1.3-6.1,1.3-6.1,2.7-12.1c0.4-1.3,0.4-1.3,0.9-2.6c0.7-1.1,0.7-1.1,1.4-2.1"/>
		<path id="XMLID_467_" class="st0" d="M369.4,364c0.9-0.7,0.9-0.7,1.9-1.4c1.6-0.9,1.6-0.9,3.3-1.7c0.5-0.1,0.5-0.1,0.9-0.2"/>
		<path id="XMLID_466_" class="st0" d="M377.2,361.3c0.4,0.5,0.4,0.5,0.7,0.9c0.2,0.6,0.3,0.6,0.5,1.2c0.1,0.6,0.1,0.6,0.2,1.2
			c0,0.6,0,0.6-0.1,1.2c-0.2,0.5-0.2,0.5-0.4,1c-0.6,1.2-0.7,1.2-1.3,2.4c-3.6,7.5-3.6,7.5-7.2,15"/>
		<path id="XMLID_465_" class="st0" d="M374.2,336.5c-0.6,2.6-0.6,2.6-1.1,5.1c-0.1,0.6-0.1,0.6-0.1,1.2c0.1,0.6,0.1,0.6,0.2,1.3
			c0.2,0.6,0.2,0.6,0.5,1.1c0.3,0.5,0.3,0.5,0.7,0.9"/>
		<path id="XMLID_464_" class="st0" d="M377,346.7c8.2-4.4,8.2-4.4,16.3-8.7c3.3-1.8,3.3-1.8,6.5-3.6c4.5-2.5,4.5-2.5,9-5"/>
		<path id="XMLID_463_" class="st0" d="M384.4,230c0.4,1.5,0.4,1.5,0.7,3c-0.1,2.2-0.1,2.2-0.3,4.5c-0.3,0.9-0.3,0.9-0.6,1.8"/>
		<path id="XMLID_462_" class="st0" d="M444.3,378.1c0.1,3.6,0.1,3.6,0.2,7.1c-0.1,0.7-0.1,0.7-0.2,1.4c-0.9,2.5-0.9,2.5-1.8,4.9
			c-0.4,0.5-0.4,0.6-0.7,1.1c-2.1,2.1-2.1,2.1-4.3,4.1c-0.5,0.3-0.5,0.3-0.9,0.6c-3.1,1.5-3.1,1.6-6.1,3c-3.7,0.9-3.7,0.9-7.4,1.7
			c-4,0.1-4,0.1-8,0.2c-3.8-0.6-3.9-0.6-7.6-1.3c-3.3-1.2-3.3-1.3-6.5-2.7c-0.4-0.2-0.4-0.2-0.9-0.5c-2.5-2-2.5-2-4.9-4
			c-0.4-0.5-0.4-0.5-0.7-1.1c-1.2-2.4-1.3-2.4-2.5-4.8c-0.1-0.7-0.1-0.7-0.2-1.4c-0.1-3.5-0.1-3.5-0.2-7.1c-0.2-1.4-0.2-1.4-0.6-2.9
			"/>
		<path id="XMLID_461_" class="st0" d="M405.9,325.1c0.3-1.1,0.3-1.1,0.6-2.3c0.2-3.8,0.2-3.8,0.3-7.6c-0.1-1.1-0.1-1.1-0.2-2.1
			c-0.9-3-0.9-3-1.9-5.9c-2-3.6-2.1-3.6-4.3-7.1c-3.2-3.8-3.2-3.7-6.5-7.5c-0.8-0.7-0.8-0.6-1.6-1.2c-0.5-0.2-0.5-0.2-1-0.4"/>
		<path id="XMLID_460_" class="st0" d="M394.9,282.8c3.5,2.5,3.6,2.6,7,5.2c3.3,3.7,3.3,3.7,6.5,7.5c2.2,3.5,2.1,3.6,4.3,7.1
			c1,1.7,0.9,1.7,1.9,3.4c0.9,1.5,0.9,1.5,1.9,3"/>
		<path id="XMLID_459_" class="st0" d="M416.4,308.9c0.6,4.6,0.6,4.6,1.2,9.2c0.2,2.2,0.2,2.2,0.3,4.4c0,6,0,6,0,11.9"/>
		<path id="XMLID_458_" class="st0" d="M399,287.4c-0.5-0.2-0.5-0.2-0.9-0.3c-0.5-0.1-0.5-0.1-1.1-0.1c-0.4,0-0.4,0-0.8,0.1"/>
		<path id="XMLID_457_" class="st0" d="M398.1,282.7c0-1.1,0-1.1,0-2.2c0.3-1.1,0.3-1.1,0.7-2.2c0.7-1,0.7-1.1,1.4-2.1
			c2.4-2.6,2.4-2.6,4.9-5.1c6.7-5.2,6.7-5.2,13.4-10.3c5.5-3.3,5.6-3.3,11.2-6.5"/>
		<path id="XMLID_456_" class="st0" d="M452.7,267.7c-1.4,0.7-1.4,0.7-2.7,1.5c-4.5,3.1-4.6,3.1-9,6.3c-4.4,4.1-4.4,4.1-8.6,8.3
			c-3,3.9-3,3.9-5.9,7.9c-3.3,5.7-3.2,5.7-6.5,11.5c-1.8,2.9-1.8,2.9-3.6,5.7"/>
		<path id="XMLID_455_" class="st0" d="M447.6,371.5c-0.4-1.2-0.4-1.2-0.9-2.4c-0.9-1.5-0.9-1.6-1.9-3.1c-1-1.1-1-1.1-2.1-2.1
			c-1.8-1.3-1.8-1.3-3.6-2.5c-1.5-0.8-1.5-0.8-3.1-1.6c-2.5-0.9-2.5-0.9-4.9-1.7c-2.9-0.6-2.9-0.7-5.7-1.2c-2.6-0.3-2.6-0.3-5.3-0.5
			"/>
		<path id="XMLID_454_" class="st0" d="M430.2,305.3c-0.5,1.6-0.5,1.6-0.9,3.2c-0.1,4-0.1,4-0.1,8c0.1,1.3,0.1,1.3,0.4,2.6"/>
		<path id="XMLID_453_" class="st0" d="M430.2,305.3c0.4-1.6,0.4-1.6,1-3.2c1.6-3,1.6-3,3.3-5.9c2.9-4,2.9-4,5.9-7.8
			c4.2-4.2,4.3-4.2,8.6-8.3c3.4-2.6,3.4-2.6,6.8-5.1"/>
		<path id="XMLID_452_" class="st0" d="M509.8,306c-3.5,2.5-3.5,2.5-7,5.2c-4.4,4.1-4.4,4.1-8.6,8.3c-3,3.9-3,3.9-6,7.9
			c-3.3,5.7-3.2,5.7-6.4,11.5c-2.4,3.9-2.4,3.9-4.9,7.7"/>
		<path id="XMLID_451_" class="st0" d="M183.9,268.3v-8.1v3.6"/>
		<path id="XMLID_450_" class="st0" d="M183.9,260.2v-4v3.1"/>
		<path id="XMLID_449_" class="st0" d="M183.9,256.3v-31.7v4"/>
		<path id="XMLID_448_" class="st0" d="M183.9,224.6v-29.7"/>
		<path id="XMLID_447_" class="st0" d="M183.9,196.8v-6.4"/>
		<path id="XMLID_446_" class="st0" d="M183.9,192.9V186"/>
		<path id="XMLID_445_" class="st0" d="M195.1,151.4v-2.1v1.1"/>
		<path id="XMLID_444_" class="st0" d="M195.1,149.3v-15.9v4"/>
		<path id="XMLID_443_" class="st0" d="M195.1,133.4v-14.7"/>
		<path id="XMLID_442_" class="st0" d="M195.1,121.6v-0.7"/>
		<path id="XMLID_441_" class="st0" d="M197.7,243.7l29.6-17.1"/>
		<path id="XMLID_440_" class="st0" d="M211.3,162.5l-13.6,7.8"/>
		<path id="XMLID_439_" class="st0" d="M198.2,155l18.3,10.6"/>
		<path id="XMLID_438_" class="st0" d="M198.2,145.8l21.7-12.5"/>
		<path id="XMLID_437_" class="st0" d="M219.9,102.7l-21.7,12.5"/>
		<path id="XMLID_436_" class="st0" d="M202.3,130.8l0.2,0.6l1.4,1.3"/>
		<path id="XMLID_435_" class="st0" d="M214.2,115.8l-1.7-0.8l-0.9,0.1"/>
		<path id="XMLID_434_" class="st0" d="M206.2,116.1l2.2-1l0.7-0.1l1.1-0.1l1.5,0.7"/>
		<path id="XMLID_433_" class="st0" d="M202.6,130.7l-1.2-1.1l-0.7-1.9v-0.2l0,0.4l0.9,2.3l2.6,2.3"/>
		<path id="XMLID_432_" class="st0" d="M208.5,115l2.4-0.2l0.9,0.3l0.5,0"/>
		<path id="XMLID_431_" class="st0" d="M205,272.4l1,1.5"/>
		<path id="XMLID_430_" class="st0" d="M250.1,149.7l-0.8-0.4l1.1,0.6l-22.5,13l-22.5-13l0.3-0.2l-0.6,0.4l-0.7,0.2"/>
		<path id="XMLID_429_" class="st0" d="M205.7,149.7l0.8-0.4L205.7,149.7"/>
		<path id="XMLID_428_" class="st0" d="M206.5,149.3l13.6-7.9l-4,2.3"/>
		<path id="XMLID_427_" class="st0" d="M244.2,288.9l4.2-9.2l-11.6-6.7l-15.9,2.5l-4.3,9.2l11.6,6.7L244.2,288.9l-0.6-5"/>
		<path id="XMLID_426_" class="st0" d="M216.6,190l48.2-27.8l-9,6.3l-8.6,8.3"/>
		<path id="XMLID_425_" class="st0" d="M222.9,308.1l48.4-28"/>
		<path id="XMLID_424_" class="st0" d="M220.1,141.4l7.9-4.5l0,0.1v25.9"/>
		<path id="XMLID_423_" class="st0" d="M227.9,136.7l0,0.2l12,6.9l-3.7-2.1"/>
		<path id="XMLID_422_" class="st0" d="M227.9,131.4v-30.6"/>
		<path id="XMLID_421_" class="st0" d="M228.3,291.3l0.1-3.6"/>
		<path id="XMLID_420_" class="st0" d="M299.1,262L231,222.7"/>
		<path id="XMLID_419_" class="st0" d="M232.6,217.4v-6.1"/>
		<path id="XMLID_418_" class="st0" d="M235.8,133.3l152.5,88"/>
		<path id="XMLID_417_" class="st0" d="M235.8,102.7l334.1,192.9"/>
		<path id="XMLID_416_" class="st0" d="M239.3,470.3l13.2-7.6"/>
		<path id="XMLID_415_" class="st0" d="M236.5,193.5l8.3,4.8"/>
		<path id="XMLID_414_" class="st0" d="M239.9,143.9l9.4,5.5"/>
		<path id="XMLID_413_" class="st0" d="M243.8,203.2l0,2.8"/>
		<path id="XMLID_412_" class="st0" d="M250.6,484.2l79.4,45.9"/>
		<path id="XMLID_411_" class="st0" d="M250,149.7l0.7,0.4l0.7,0.2"/>
		<path id="XMLID_410_" class="st0" d="M252.7,447.2l-0.6,0.3l3.7,4.3L252.7,447.2"/>
		<path id="XMLID_409_" class="st0" d="M255.8,451.8L255.8,451.8"/>
		<path id="XMLID_408_" class="st0" d="M259.1,273.4l-0.1,0.7"/>
		<path id="XMLID_407_" class="st0" d="M259,177.7l35.4,20.5"/>
		<path id="XMLID_406_" class="st0" d="M343.3,522.4l-79.4-45.9"/>
		<path id="XMLID_405_" class="st0" d="M265.3,450.6l-1.3,0.7"/>
		<path id="XMLID_404_" class="st0" d="M278.5,450.8l8.6-2"/>
		<path id="XMLID_403_" class="st0" d="M289.3,420.2l-2.7,0.2l-0.7,0.4l-0.5,0.6l-0.4,0.8"/>
		<path id="XMLID_402_" class="st0" d="M277.5,402.9l-0.1-0.2l2.5-11.3l8.7-1.4l6.2,9.9l-2.5,11.3l-8.6,1.4L277.5,402.9"/>
		<path id="XMLID_401_" class="st0" d="M288.5,390l-9.6,5.5"/>
		<path id="XMLID_400_" class="st0" d="M280.3,450.8l19.4-5.7l0.9-0.4l0.3-0.3"/>
		<path id="XMLID_399_" class="st0" d="M301.6,440.5l-0.2-0.6"/>
		<path id="XMLID_398_" class="st0" d="M295.8,446.2l-12.9-18"/>
		<path id="XMLID_397_" class="st0" d="M294.6,399.9l-14,8.1"/>
		<path id="XMLID_396_" class="st0" d="M323.9,193.3l-43.3-25"/>
		<path id="XMLID_395_" class="st0" d="M290.9,420.6l-6.6,3.8"/>
		<path id="XMLID_394_" class="st0" d="M290.2,313.6l0.6-0.8l0.8-0.4h0.9l0.9,0.4"/>
		<path id="XMLID_393_" class="st0" d="M297.7,324l-8.1,4.7"/>
		<path id="XMLID_392_" class="st0" d="M289.5,267.7l-1,2.6"/>
		<path id="XMLID_391_" class="st0" d="M299.8,303.2l0.9,0.4h0.9l0.8-0.4l0.6-0.8l0.4-1"/>
		<path id="XMLID_390_" class="st0" d="M320.4,243.3l12.9,7.5l-2,1.2l1.3-0.7"/>
		<path id="XMLID_389_" class="st0" d="M287.8,269.1l1.6-1.4l2.1-1.2l-2.1,1.2"/>
		<path id="XMLID_388_" class="st0" d="M295,263.5l2.9-0.9l-6.5,3.8l0.5-0.3"/>
		<path id="XMLID_387_" class="st0" d="M300.6,438.1l-8.4-16"/>
		<path id="XMLID_386_" class="st0" d="M302.9,345.5l-0.4,1.1l-8,36.5l-0.1,1.2"/>
		<path id="XMLID_385_" class="st0" d="M294.5,383l1.2,2"/>
		<path id="XMLID_384_" class="st0" d="M294.4,235.2v-37.1"/>
		<path id="XMLID_383_" class="st0" d="M312.6,480.2l-13.4-7.7"/>
		<path id="XMLID_382_" class="st0" d="M301.2,443l-3.9,2.2"/>
		<path id="XMLID_381_" class="st0" d="M306.5,425.4l-1.3-0.3"/>
		<path id="XMLID_380_" class="st0" d="M305.6,245l0.1-7.8l1-3.2l-8.6-5"/>
		<path id="XMLID_379_" class="st0" d="M294.4,198.1l18.9-10.9"/>
		<path id="XMLID_378_" class="st0" d="M300.4,444.7l-0.5,0.2l0.6-0.3"/>
		<path id="XMLID_377_" class="st0" d="M300.6,444.9l0.7-0.1"/>
		<path id="XMLID_376_" class="st0" d="M300.4,444.7l-0.1,0.1"/>
		<path id="XMLID_375_" class="st0" d="M302.5,439.8l-0.5-0.2"/>
		<path id="XMLID_374_" class="st0" d="M299.2,387.4l22.9-13.2"/>
		<path id="XMLID_373_" class="st0" d="M304.8,344.4l-1.9,1.1"/>
		<path id="XMLID_372_" class="st0" d="M305.6,245l0.6-1.5l1.4-1.5l4.3-2.1h6.5l7,2.8l-5.3-3.1"/>
		<path id="XMLID_371_" class="st0" d="M360.1,214.2l-23-13.3"/>
		<path id="XMLID_370_" class="st0" d="M320.6,244.9l-6.4,3.7"/>
		<path id="XMLID_369_" class="st0" d="M310.5,244.4h-4.6"/>
		<path id="XMLID_368_" class="st0" d="M309.6,462.7l13.2,7.7"/>
		<path id="XMLID_367_" class="st0" d="M323.1,353.7l-1.6-0.1l-1.1-0.5"/>
		<path id="XMLID_366_" class="st0" d="M338.5,250.3l-0.8-0.6l-0.6-0.7l-0.7-1.9v-2.2v0.7"/>
		<path id="XMLID_365_" class="st0" d="M309.2,241.2l-1.8,1.1"/>
		<path id="XMLID_364_" class="st0" d="M396,235.1l-0.7,2.6l-82.8,219.8"/>
		<path id="XMLID_363_" class="st0" d="M313.4,254.4l0.7-3l0-2.7l0,1.3"/>
		<path id="XMLID_362_" class="st0" d="M318.9,241.2l-0.9-0.4l-1-0.1l3.1,0.1l2.2,0.5"/>
		<path id="XMLID_361_" class="st0" d="M321.6,213.8l-0.8-0.5"/>
		<path id="XMLID_360_" class="st0" d="M325.1,466.5l8.4,16"/>
		<path id="XMLID_359_" class="st0" d="M409.2,242.8l-0.7,2.6l-82.8,219.9"/>
		<path id="XMLID_358_" class="st0" d="M325.6,353.1l0.3-0.2"/>
		<path id="XMLID_357_" class="st0" d="M325.3,239.6V216"/>
		<path id="XMLID_356_" class="st0" d="M326,197v-0.2"/>
		<path id="XMLID_355_" class="st0" d="M326,196.3v-0.2"/>
		<path id="XMLID_354_" class="st0" d="M337.5,259.3l1.2,2.1"/>
		<path id="XMLID_353_" class="st0" d="M325.3,216l18.9-10.9"/>
		<path id="XMLID_352_" class="st0" d="M333.3,456l6.8-3.9l0.2,1l0,1"/>
		<path id="XMLID_351_" class="st0" d="M337.1,482.3l-0.9,0.7"/>
		<path id="XMLID_350_" class="st0" d="M331.6,449.7l4.8-2.8"/>
		<path id="XMLID_349_" class="st0" d="M334.8,446.7l-2.4,0.7"/>
		<path id="XMLID_348_" class="st0" d="M339.4,531l13.2-7.6"/>
		<path id="XMLID_347_" class="st0" d="M340.1,452.1l-0.4-1l-2-3"/>
		<path id="XMLID_346_" class="st0" d="M339.1,438.1l-0.1,0.2l6.2,9.9l8.6-1.4l2.5-11.3l-6.2-9.9l-8.7,1.4L339.1,438.1"/>
		<path id="XMLID_345_" class="st0" d="M336.4,244.9v2.2"/>
		<path id="XMLID_344_" class="st0" d="M342.3,443.6l14-8.1"/>
		<path id="XMLID_343_" class="st0" d="M350.2,425.6l-9.6,5.5"/>
		<path id="XMLID_342_" class="st0" d="M355.1,258l-16,9.3"/>
		<path id="XMLID_341_" class="st0" d="M344.7,496.5l-1.3,0.7"/>
		<path id="XMLID_340_" class="st0" d="M347.8,415.2l0.4-0.9l4.6-20.8"/>
		<path id="XMLID_339_" class="st0" d="M355.6,506.6l-0.5,0.3l-3.7,0.1L355.6,506.6"/>
		<path id="XMLID_338_" class="st0" d="M388.4,373.9l-0.7,4l0.2,1.5l0.8,2.2"/>
		<path id="XMLID_337_" class="st0" d="M357.2,230.1l15.2-8.8"/>
		<path id="XMLID_336_" class="st0" d="M375.4,360.5l0.9,0.2l0.9,0.6"/>
		<path id="XMLID_335_" class="st0" d="M374.3,346.2l0.9,0.6l0.9,0.2l0.9-0.2"/>
		<path id="XMLID_334_" class="st0" d="M408.8,329.5l-1,0.5"/>
		<path id="XMLID_333_" class="st0" d="M373.3,221.8l7,4.1l2.6,2l1.4,2.1"/>
		<path id="XMLID_332_" class="st0" d="M388.2,375l0.9,3.5l2.2,2.7"/>
		<path id="XMLID_331_" class="st0" d="M391.4,380.9l-1-1.5"/>
		<path id="XMLID_330_" class="st0" d="M393.4,285.5l2.9,1.6l-1.7,0.5l-2.6,1.5"/>
		<path id="XMLID_329_" class="st0" d="M398.1,281.4v-0.9v2.2l0.7,1.8l0.6,0.7l0.8,0.6l-5.3-3.1"/>
		<path id="XMLID_328_" class="st0" d="M397.2,284.5l1.7,1.9l1.4,2.5l-0.5-0.8l-0.7-0.6"/>
		<path id="XMLID_327_" class="st0" d="M429.8,254.4l23,13.3"/>
		<path id="XMLID_326_" class="st0" d="M396,235.1l13.2,7.6"/>
		<path id="XMLID_325_" class="st0" d="M402,391.6l4.3-9.1l15.9-2.5l11.6,6.7l-4.2,9.2l-15.9,2.5L402,391.6"/>
		<path id="XMLID_324_" class="st0" d="M416.5,252.9l-5.9,3.4l-8.7,6.7"/>
		<path id="XMLID_323_" class="st0" d="M403.1,304.6l7.9-4.6"/>
		<path id="XMLID_322_" class="st0" d="M486.1,369.9l-68.2-39.4l-10.2,5.9"/>
		<path id="XMLID_321_" class="st0" d="M406.6,317.7l0-2.5"/>
		<path id="XMLID_320_" class="st0" d="M409.3,242.6l7.2,4.1"/>
		<path id="XMLID_319_" class="st0" d="M413.6,398.3l0.1-3.6"/>
		<path id="XMLID_318_" class="st0" d="M414.2,267.3l-2.3-1.3"/>
		<path id="XMLID_317_" class="st0" d="M417.9,306.5v-37.1"/>
		<path id="XMLID_316_" class="st0" d="M417.4,238.1l152.5,88"/>
		<path id="XMLID_315_" class="st0" d="M444.4,381.4l2.9-4.3l0.4-2.4l0-3.2"/>
		<path id="XMLID_314_" class="st0" d="M421.6,300.4l8.6,5"/>
		<path id="XMLID_313_" class="st0" d="M417.9,269.4l18.9-10.9"/>
		<path id="XMLID_312_" class="st0" d="M418.6,249.8v-0.1"/>
		<path id="XMLID_311_" class="st0" d="M418.6,250.5v-0.1"/>
		<path id="XMLID_310_" class="st0" d="M422.4,355.7l0.8-0.1L422.4,355.7L422.4,355.7"/>
		<path id="XMLID_309_" class="st0" d="M429.5,395.9l-0.6-5"/>
		<path id="XMLID_308_" class="st0" d="M446,378l-1.6,2.4l-0.1,0.5"/>
		<path id="XMLID_307_" class="st0" d="M479.7,305.1l-35.4-20.5"/>
		<path id="XMLID_306_" class="st0" d="M482.3,373.9L452.8,391"/>
		<path id="XMLID_305_" class="st0" d="M465.9,275.3l43.3,25"/>
		<path id="XMLID_304_" class="st0" d="M479.7,305.1v37.1"/>
		<path id="XMLID_303_" class="st0" d="M483.4,336l8.2,4.7"/>
		<path id="XMLID_302_" class="st0" d="M479.7,305.1l18.9-10.9"/>
		<path id="XMLID_301_" class="st0" d="M487.7,364.7v-6.1"/>
		<path id="XMLID_300_" class="st0" d="M502.2,324.1l8.6-8.3l9.1-6.3"/>
		<path id="XMLID_299_" class="st0" d="M511.3,303.9v0.1"/>
		<path id="XMLID_298_" class="st0" d="M532.3,347.8L514,337.3"/>
		<path id="XMLID_297_" class="st0" d="M516.7,330.7l0.7-0.2l4-2.4l-3.5,2"/>
		<path id="XMLID_296_" class="st0" d="M521.5,328.1l18.7-10.8l22.6,12.9l-22.5,13l-22.5-13l0.3-0.2"/>
		<path id="XMLID_295_" class="st0" d="M529.3,323.6l-3.8,2.2"/>
		<path id="XMLID_294_" class="st0" d="M540.3,317.3v26"/>
		<path id="XMLID_293_" class="st0" d="M541.4,317.9l-1.1-0.6l-2.9,1.6"/>
		<path id="XMLID_292_" class="st0" d="M569.9,335.3l-21.7,12.5"/>
		<path id="XMLID_291_" class="st0" d="M551.2,323.6l2,1.2"/>
		<path id="XMLID_290_" class="st0" d="M561.2,329.3l1.3,0.7"/>
		<path id="XMLID_289_" class="st0" d="M562.4,330.1l0.7,0.4l0.7,0.2"/>
		<path id="XMLID_288_" class="st0" d="M573.1,299.1v30.6"/>
		<path id="XMLID_287_" class="st0" d="M383,391l-3.5-1.4"/>
		<path id="XMLID_286_" class="st0" d="M344.3,415.9l1.1,0.6h0.9l0.8-0.4l0.7-0.9"/>
		<path id="XMLID_285_" class="st0" d="M409.5,242.7c0-5.1,3.5-7.2,7.9-4.6c0,0,0,0,0,0"/>
		<path id="XMLID_284_" class="st0" d="M337.5,496.4c4-2.7,9.4-0.1,12,5.8c0.6,1.4,1,2.9,1.3,4.4"/>
		<path id="XMLID_283_" class="st0" d="M496,332.3c6.8,0.4,13.1,2.2,18,5"/>
		<path id="XMLID_282_" class="st0" d="M325.7,465.2c-1.4,3.7-4.1,7.1-6.9,8.7"/>
		<path id="XMLID_281_" class="st0" d="M339.4,531c-2.5,1.4-5.9,1.1-9.4-0.9"/>
		<path id="XMLID_280_" class="st0" d="M334.8,446.7c1-0.3,2.2,0.3,2.9,1.5"/>
		<path id="XMLID_279_" class="st0" d="M337.5,496.4c3.5-1.6,9,1.8,12.1,7.7c0.4,0.8,0.8,1.7,1.2,2.5"/>
		<path id="XMLID_278_" class="st0" d="M197.7,284c-19.3-11.1-19.3-29.2,0-40.3c0,0,0,0,0,0"/>
		<path id="XMLID_277_" class="st0" d="M487.6,358.6c0-11.2,5.7-24.7,14.5-34.5"/>
		<path id="XMLID_276_" class="st0" d="M183.9,194.9c-2.5-9,2.7-18.1,13.8-24.6"/>
		<path id="XMLID_275_" class="st0" d="M195.1,120.8c-0.6-2,0.6-4.1,3.2-5.6"/>
		<path id="XMLID_274_" class="st0" d="M256.3,452.1c2.3-3.5,7.5-2.2,11.7,2.8c1.4,1.7,2.6,3.8,3.4,5.9"/>
		<path id="XMLID_273_" class="st0" d="M487.7,364.7c0,3.4-2.4,7.5-5.3,9.2c0,0,0,0,0,0"/>
		<path id="XMLID_272_" class="st0" d="M323.9,193.3c2.7,1.5,2.9,4,0.6,5.7"/>
		<path id="XMLID_271_" class="st0" d="M219.9,102.7c4.4-2.5,11.5-2.5,15.9,0"/>
		
			<ellipse id="XMLID_270_" transform="matrix(-0.866 0.5 -0.5 -0.866 894.1782 774.6654)" class="st0" cx="343.3" cy="507.1" rx="3.7" ry="6.3"/>
		<path id="XMLID_269_" class="st0" d="M548.2,347.9c-4.4,2.5-11.5,2.5-15.9,0"/>
		<path id="XMLID_268_" class="st0" d="M569.9,295.6c1.7,1,2.8,2.2,3.2,3.6"/>
		<path id="XMLID_267_" class="st0" d="M355.1,506.9c3.3,9.4,0.8,17.2-5.7,17.3c-1.9,0-4-0.6-6.1-1.8"/>
		<path id="XMLID_266_" class="st0" d="M219.9,133.3c4.4-2.5,11.5-2.5,15.9,0"/>
		
			<ellipse id="XMLID_265_" transform="matrix(-0.866 -0.5 0.5 -0.866 323.8561 332.2131)" class="st0" cx="206.4" cy="122.7" rx="2.8" ry="4.8"/>
		<path id="XMLID_264_" class="st0" d="M289.3,420.2c1-0.2,2.2,0.5,2.8,1.8"/>
		<path id="XMLID_263_" class="st0" d="M309.2,328.7c-1.2-2.9-1.5-6.2-0.8-9.1"/>
		<path id="XMLID_262_" class="st0" d="M362.8,221.8c2.9-1.7,7.7-1.7,10.6,0c0,0,0,0,0,0"/>
		<path id="XMLID_261_" class="st0" d="M298.3,388.4c-1.3,0.7-2.9-0.3-3.6-2.1c-0.3-0.7-0.4-1.5-0.3-2.2"/>
		<path id="XMLID_260_" class="st0" d="M263.9,476.6c-7.3-4.2-13.2-14.5-13.2-22.9c0-2.4,0.5-4.5,1.5-6.2"/>
		<path id="XMLID_259_" class="st0" d="M299.7,405.9c0.4-3.6,2-6.5,4.4-7.8"/>
		<path id="XMLID_258_" class="st0" d="M256.4,452.2c3.2-4.1,8.7-3.3,12.3,1.7c1.4,2,2.4,4.4,2.7,7"/>
		<path id="XMLID_257_" class="st0" d="M399.2,397.2c-6.1-1.4-11.6-3.6-16.3-6.2"/>
		<path id="XMLID_256_" class="st0" d="M452.8,391c-4.6,2.6-10,4.7-16,6.2"/>
		<path id="XMLID_255_" class="st0" d="M250.7,484.2c-7.3-4.2-13.2-14.5-13.2-22.9c0-2.4,0.5-4.5,1.5-6.1"/>
		<path id="XMLID_254_" class="st0" d="M388.3,221.3c4.4,2.5,7.9,8.7,7.9,13.8c0,0.1,0,0.1,0,0.2"/>
		<path id="XMLID_253_" class="st0" d="M239.7,143.7c-1.4,1.4-3,1.5-3.5,0.2c-0.2-0.6-0.2-1.4,0-2.2"/>
		<path id="XMLID_252_" class="st0" d="M232.6,217.4c0,3.4-2.4,7.5-5.3,9.2c0,0,0,0,0,0"/>
		<path id="XMLID_251_" class="st0" d="M198.2,155c-4.4-2.5-4.4-6.6,0-9.2c0,0,0,0,0,0"/>
		<path id="XMLID_250_" class="st0" d="M312.5,457.5c-1.4,3.7-4.1,7.1-6.9,8.7"/>
		<path id="XMLID_249_" class="st0" d="M303,345.5c0.9-1.4,2.5-1.4,3.7,0c0.3,0.4,0.6,0.8,0.8,1.3"/>
		
			<ellipse id="XMLID_248_" transform="matrix(-0.866 0.5 -0.5 -0.866 723.0578 728.8061)" class="st0" cx="263.9" cy="461.3" rx="3.7" ry="6.3"/>
		<path id="XMLID_247_" class="st0" d="M270.5,168c3-1.4,7.3-1.3,10.1,0.3"/>
		<path id="XMLID_246_" class="st0" d="M197.7,284c18.6,10.7,35.1,34.3,40.5,58"/>
		<path id="XMLID_245_" class="st0" d="M232.6,211.3c0-11.2,5.7-24.7,14.5-34.5"/>
		<path id="XMLID_244_" class="st0" d="M294.8,340.6c-0.4,1.8-1.9,2.6-3.4,1.8c-1.4-0.8-2.2-2.7-2-4.5"/>
		<path id="XMLID_243_" class="st0" d="M569.9,326.1c4.4,2.5,4.4,6.6,0,9.2c0,0,0,0,0,0"/>
		<path id="XMLID_242_" class="st0" d="M216.6,165.6c11.7,6.8,11.7,17.7,0,24.5c0,0,0,0,0,0"/>
		<path id="XMLID_241_" class="st0" d="M552.6,324.4c-1.7,1.9-3.8,2.3-4.6,0.8c-0.5-0.8-0.5-2.1,0-3.5"/>
		<path id="XMLID_240_" class="st0" d="M416.5,246.7c2.9,1.7,3,4.4,0,6.1c0,0,0,0,0,0"/>
		<path id="XMLID_239_" class="st0" d="M369.6,384.4c-0.6,1.7-2.2,2.1-3.6,1c-1.2-1-1.8-2.9-1.5-4.5"/>
		<path id="XMLID_238_" class="st0" d="M455.8,275c3-1.4,7.4-1.3,10.1,0.2"/>
		<path id="XMLID_237_" class="st0" d="M509.2,300.3c2.7,1.5,2.9,4,0.6,5.7"/>
		<path id="XMLID_236_" class="st0" d="M280.3,450.8c-1,0.7-2.6-0.1-3.7-1.8c0-0.1-0.1-0.1-0.1-0.2"/>
		<path id="XMLID_235_" class="st0" d="M336.3,483c-0.6,0.6-1.7,0.4-2.7-0.5"/>
	</g>
	<g id="XMLID_602_">
		<path id="XMLID_234_" class="st0" d="M429.8,387.7c-0.2-0.7-0.2-0.7-0.5-1.4c-0.2-0.4-0.2-0.4-0.4-0.8c-0.6-0.6-0.6-0.6-1.2-1.3
			c-0.5-0.3-0.5-0.3-0.9-0.6c-0.9-0.5-0.9-0.5-1.8-1c-0.6-0.2-0.6-0.2-1.2-0.5c-1.1-0.3-1.1-0.3-2.2-0.6c-0.7-0.1-0.7-0.1-1.5-0.2
			c-1.2-0.1-1.2-0.1-2.4-0.1c-0.8,0-0.8,0-1.5,0.1c-1.1,0.1-1.1,0.1-2.3,0.3c-0.7,0.2-0.7,0.2-1.4,0.4c-1,0.4-1,0.4-2,0.7
			c-0.6,0.3-0.6,0.3-1.2,0.6c-0.7,0.5-0.7,0.5-1.4,1.1c-0.4,0.4-0.4,0.4-0.8,0.8c-0.4,0.6-0.4,0.6-0.7,1.2c-0.1,0.5-0.2,0.5-0.3,0.9
			"/>
		<path id="XMLID_233_" class="st0" d="M424.8,393.8c-1.6,0.5-1.7,0.6-3.4,1c-1.9,0.2-1.9,0.2-3.7,0.3c-1.9-0.1-1.9-0.1-3.7-0.4
			c-1.6-0.5-1.6-0.5-3.3-1.1"/>
		<path id="XMLID_232_" class="st0" d="M425.1,393.7L425.1,393.7l2.7-1.6l1.1-1.3l0.6-0.7l0.3-1.4l0.1-0.8"/>
		<path id="XMLID_231_" class="st0" d="M406,387.5l0.1,1.3l0.2,1l0.9,1.2l0.7,0.9l2.7,1.7"/>
		<path id="XMLID_230_" class="st0" d="M431,385.1v0.4l-0.4,2.5l-0.2,0.9l-0.5,0.8l-1.7,2.1l-2.8,1.7l-0.5,0.3"/>
		<path id="XMLID_229_" class="st0" d="M410.7,393.7l-0.5-0.3l-2.7-1.7l-1.6-2.1l-0.5-0.8l-0.2-1l-0.3-2.3"/>
		<path id="XMLID_228_" class="st0" d="M423.9,385.2c0.7,1.9-1.4,3.8-4.7,4.2c-3.3,0.4-6.6-0.8-7.4-2.7c-0.2-0.5-0.2-1,0-1.5"/>
		<path id="XMLID_227_" class="st0" d="M426.6,387.6c-1.5,2.8-6.6,4.3-11.4,3.4c-2.8-0.5-5-1.8-5.9-3.4"/>
		<ellipse id="XMLID_226_" class="st0" cx="417.9" cy="389.2" rx="9.1" ry="5.2"/>
	</g>
	<g id="XMLID_564_">
		<path id="XMLID_225_" class="st0" d="M576.8,229.8c2.2,2.1,2.2,2.1,4.3,4.2c0.9,0.9,0.9,0.9,1.7,1.8c1,0.7,1,0.7,1.9,1.4
			c0.9,0.4,0.9,0.4,1.9,0.8c0.9,0.1,0.9,0.1,1.7,0.2"/>
		<path id="XMLID_224_" class="st0" d="M595.2,234.4c0.6-0.9,0.6-0.9,1.1-1.7c0.1-0.3,0.1-0.3,0.3-0.6c0.2-1.2,0.2-1.2,0.4-2.4
			c0-0.2,0-0.2,0-0.5"/>
		<path id="XMLID_223_" class="st0" d="M596.9,229.1c-0.1-1.3-0.1-1.3-0.3-2.6c-0.5-1.4-0.5-1.4-1-2.7c-0.7-1.3-0.7-1.3-1.5-2.5
			c-1-1.1-1-1.1-2-2.1c-1-0.7-1-0.7-2.1-1.4c-0.2-0.1-0.2-0.1-0.5-0.3c-1.1-0.3-1.1-0.3-2.2-0.6c-0.4,0-0.4,0-0.7-0.1
			c-1,0.2-1,0.2-2,0.4c-0.4,0.1-0.4,0.1-0.7,0.2"/>
		<path id="XMLID_222_" class="st0" d="M584.1,238.9c-1.5-2.5-1.5-2.5-3-4.9c-0.7-1.1-0.8-1.1-1.5-2.2c-0.6-1.2-0.6-1.2-1.2-2.5
			c-0.4-1.2-0.4-1.2-0.7-2.5c-0.1-1.1-0.1-1.1-0.2-2.3c-0.3-2.2-0.3-2.2-0.7-4.5"/>
		<path id="XMLID_221_" class="st0" d="M584.5,218.6c-0.3,0.6-0.3,0.6-0.5,1.2c-0.1,0.4-0.1,0.4-0.2,0.8c-0.1,0.8-0.1,0.8-0.1,1.6
			c0,0.5,0,0.5,0.1,1c0.1,0.9,0.1,0.9,0.4,1.7c0.1,0.5,0.1,0.5,0.4,1.1c0.4,0.9,0.4,0.9,0.7,1.7c0.3,0.5,0.3,0.5,0.6,1
			c0.5,0.8,0.5,0.8,1.1,1.6c0.4,0.5,0.4,0.5,0.8,0.9c0.6,0.6,0.6,0.6,1.2,1.2c0.4,0.4,0.4,0.4,0.9,0.7c0.6,0.4,0.6,0.4,1.3,0.7
			c0.4,0.2,0.4,0.2,0.9,0.3c0.6,0.1,0.6,0.1,1.2,0.2c0.4,0,0.4,0,0.8,0"/>
		<path id="XMLID_220_" class="st0" d="M587,225.5c0.5,0.6,0.5,0.6,0.9,1.2c0.4,0.7,0.4,0.7,0.7,1.4c0.1,0.5,0.1,0.5,0.2,1"/>
		<path id="XMLID_219_" class="st0" d="M590.1,230.1c0-0.6,0-0.6,0-1.2c-0.1-0.7-0.1-0.7-0.4-1.4c-0.3-0.7-0.3-0.7-0.7-1.4
			c-0.4-0.6-0.4-0.6-0.9-1.2c-0.5-0.5-0.5-0.5-1.1-0.9c-0.5-0.3-0.5-0.3-1.1-0.5"/>
		<path id="XMLID_218_" class="st0" d="M587.3,222.7c0.5,0.2,0.6,0.2,1.1,0.5c0.5,0.5,0.5,0.5,1,0.9c0.5,0.6,0.5,0.6,0.9,1.2
			c0.3,0.7,0.4,0.7,0.7,1.4c0.2,0.7,0.2,0.7,0.3,1.4c0,0.6,0,0.6,0,1.2"/>
		<path id="XMLID_217_" class="st0" d="M591.5,236.7l-0.2,1.5l-4.4,2.5l-4.3,0.7l-3-0.1l-4.3-4.1l-3-4.9l-0.6-4.5l0.6-5.2l4.4-2.5
			l3.3-0.5"/>
		<path id="XMLID_216_" class="st0" d="M572.4,232.4l4.4-2.5"/>
		<path id="XMLID_215_" class="st0" d="M588.4,238.2l1.5-0.5l4.7-2.9l0.6-0.5"/>
		<path id="XMLID_214_" class="st0" d="M583.9,217.4l-4.4,2.5l-1.2,1.1l-0.7,1.6l-0.9,7.3"/>
		<path id="XMLID_213_" class="st0" d="M571.7,227.9l0.2-2l0.1-0.5"/>
		<path id="XMLID_212_" class="st0" d="M591.4,238.2l-3,0l-4.3,0.7l-4.4,2.5"/>
		<path id="XMLID_211_" class="st0" d="M589.7,217.6l-1.4-0.4l-0.7-0.2l-1.2,0.2l-0.6,0.1l-0.9,0.7l-0.4,0.5"/>
		<path id="XMLID_210_" class="st0" d="M594,234.1l1-0.4l0.6-0.4l0.6-0.9l0.4-0.7l0.2-1.4l0.1-0.9"/>
		<path id="XMLID_209_" class="st0" d="M586.5,225.1l0.5,0.4"/>
		<path id="XMLID_208_" class="st0" d="M590.1,230.3l0.1-0.2"/>
		<path id="XMLID_207_" class="st0" d="M588.2,224.8L588.2,224.8"/>
		<path id="XMLID_206_" class="st0" d="M588.9,225.8l0.4,0.6"/>
		<path id="XMLID_205_" class="st0" d="M588.6,228.3l-0.1-0.4"/>
		<path id="XMLID_204_" class="st0" d="M587.7,226.4l0.5,0.8"/>
		<path id="XMLID_203_" class="st0" d="M587,225.5L587,225.5"/>
		<path id="XMLID_202_" class="st0" d="M586,222.7l0.2-0.1l1,0.1"/>
		<path id="XMLID_201_" class="st0" d="M591.4,229.4l-0.3,1l-0.4,0.4"/>
		<path id="XMLID_200_" class="st0" d="M591.1,226.9l-0.1-0.4"/>
		<path id="XMLID_199_" class="st0" d="M590.1,225l0.4,0.7"/>
		<path id="XMLID_198_" class="st0" d="M589.9,227.6l-0.2-0.4"/>
		<path id="XMLID_197_" class="st0" d="M589.4,224.1L589.4,224.1"/>
		<path id="XMLID_196_" class="st0" d="M571.7,227.9l0.2,2.3l0.1,0.6"/>
		<path id="XMLID_195_" class="st0" d="M586.1,221.5c1.6-0.8,4.1,0.7,5.6,3.4c1.5,2.6,1.5,5.5,0,6.4"/>
		
			<ellipse id="XMLID_194_" transform="matrix(0.866 -0.5 0.5 0.866 -33.4358 325.6394)" class="st0" cx="590.9" cy="225.2" rx="4" ry="7"/>
		<path id="XMLID_193_" class="st0" d="M586.3,224.5c1.5,1.1,2.8,3.2,2.9,5.1"/>
		<path id="XMLID_192_" class="st0" d="M586.1,223.1c1.7,0.3,3.6,2.4,4.2,4.8c0.3,1,0.3,1.9,0,2.6"/>
		<path id="XMLID_191_" class="st0" d="M586,222.6c1.3-0.7,3.4,0.5,4.7,2.7c1.3,2.2,1.3,4.7,0,5.4c0,0,0,0,0,0"/>
		<path id="XMLID_190_" class="st0" d="M586.6,220.1c2.4-0.1,5.4,2.7,6.6,6.2c0.7,2.1,0.7,4,0,5.3"/>
		<path id="XMLID_189_" class="st0" d="M578.1,239.9c-2-1.5-3.9-3.8-5-6.5"/>
	</g>
	<g id="XMLID_520_">
		<path id="XMLID_188_" class="st0" d="M650,273.8c-0.9,0-0.9,0-1.7-0.1c-1-0.4-1-0.4-1.9-0.8c-1-0.7-1-0.7-1.9-1.4
			c-0.9-0.9-0.9-0.9-1.7-1.9"/>
		<path id="XMLID_187_" class="st0" d="M656.9,270c0.6-0.9,0.6-0.9,1.1-1.7c0.2-0.3,0.2-0.3,0.3-0.6c0.2-1.2,0.2-1.2,0.4-2.4
			c0-0.3,0-1.9,0-0.5"/>
		<path id="XMLID_186_" class="st0" d="M658.6,264.8c-0.1-1.3-0.1-1.3-0.3-2.6c-0.5-1.4-0.5-1.4-1-2.7c-0.7-1.3-0.7-1.3-1.5-2.5
			c-1-1.1-1-1.1-2-2.1c-1-0.7-1-0.7-2.1-1.4c-0.2-0.1-0.2-0.1-0.5-0.3c-1.1-0.3-1.1-0.3-2.2-0.6c-0.4,0-0.4,0-0.7,0
			c-1,0.2-1,0.2-2,0.4c-0.4,0.1-0.4,0.1-0.7,0.2"/>
		<path id="XMLID_185_" class="st0" d="M639.1,260.2c0.1,1.1,0.1,1.1,0.2,2.3c0.4,1.2,0.4,1.2,0.7,2.5c0.6,1.2,0.6,1.2,1.2,2.4
			c0.7,1.1,0.7,1.1,1.5,2.2"/>
		<path id="XMLID_184_" class="st0" d="M646.2,254.1c-0.3,0.6-0.3,0.6-0.5,1.2c-0.1,0.4-0.1,0.4-0.2,0.8c-0.1,0.8-0.1,0.8-0.1,1.5
			c0,0.5,0,0.5,0.1,1c0.1,0.9,0.1,0.9,0.3,1.7c0.2,0.5,0.2,0.5,0.4,1.1c0.4,0.9,0.4,0.9,0.7,1.7c0.3,0.5,0.3,0.5,0.6,1
			c0.5,0.8,0.5,0.8,1.1,1.6c0.4,0.4,0.4,0.4,0.8,0.9c0.6,0.6,0.6,0.6,1.2,1.2c0.4,0.4,0.4,0.4,0.9,0.6c0.6,0.4,0.6,0.4,1.3,0.7
			c0.4,0.2,0.4,0.2,0.9,0.3c0.6,0.1,0.6,0.1,1.2,0.2c0.4,0,0.4,0,0.8,0"/>
		<path id="XMLID_183_" class="st0" d="M648.7,261.1c0.5,0.6,0.5,0.6,0.9,1.2c0.4,0.7,0.4,0.7,0.7,1.4c0.1,0.5,0.1,0.5,0.2,1"/>
		<path id="XMLID_182_" class="st0" d="M647.8,259c0.5,0.2,0.6,0.2,1.1,0.5c0.5,0.4,0.5,0.4,1.1,0.9c0.5,0.6,0.5,0.6,0.9,1.2
			c0.4,0.7,0.4,0.7,0.7,1.4c0.2,0.7,0.2,0.7,0.4,1.4c0,0.6,0,1.9,0,1.3"/>
		<path id="XMLID_181_" class="st0" d="M649,258.3c0.5,0.2,0.6,0.2,1.1,0.5c0.5,0.4,0.6,0.5,1.1,0.9c0.5,0.6,0.5,0.6,0.9,1.2
			c0.3,0.7,0.3,0.7,0.6,1.4c0.2,0.7,0.2,0.7,0.4,1.4c0,0.6,0,0.6,0,1.2"/>
		<path id="XMLID_180_" class="st0" d="M641.3,277l4.4-2.5l4.3-0.7"/>
		<path id="XMLID_179_" class="st0" d="M642.8,269.6l-4.3-4.1l-4.4,2.5l3,4.9l4.3,4.1l3,0l4.3-0.7l4.4-2.5l-3-0.1l1.5-0.4l4.7-2.9
			l0.6-0.5"/>
		<path id="XMLID_178_" class="st0" d="M645.6,253l-4.4,2.5l-1.2,1.1l-0.7,1.6l-0.2,2l-0.7-4.5l3.3-0.5"/>
		<path id="XMLID_177_" class="st0" d="M634.1,268l-0.6-4.5l0.6-5.2l4.4-2.5"/>
		<path id="XMLID_176_" class="st0" d="M633.4,263.5l0.2-2l0.1-0.5"/>
		<path id="XMLID_175_" class="st0" d="M638.5,265.4l0.7-5.2"/>
		<path id="XMLID_174_" class="st0" d="M642.8,269.6l3,4.9"/>
		<path id="XMLID_173_" class="st0" d="M639.1,260.2L639.1,260.2"/>
		<path id="XMLID_172_" class="st0" d="M651.4,253.2l-1.4-0.4l-0.7-0.2l-1.2,0.2l-0.6,0.1l-0.9,0.7l-0.4,0.5"/>
		<path id="XMLID_171_" class="st0" d="M655.6,269.7l1-0.4l0.6-0.4l0.6-0.9l0.4-0.7l0.2-1.4l0.1-1"/>
		<path id="XMLID_170_" class="st0" d="M648.2,260.7l0.5,0.4"/>
		<path id="XMLID_169_" class="st0" d="M651.8,265.7l-0.1,0.2"/>
		<path id="XMLID_168_" class="st0" d="M647.7,258.3l0.2-0.1l1,0.1"/>
		<path id="XMLID_167_" class="st0" d="M653,265l-0.4,1l-0.4,0.4"/>
		<path id="XMLID_166_" class="st0" d="M652.2,261.3l-0.4-0.7"/>
		<path id="XMLID_165_" class="st0" d="M649.9,260.4L649.9,260.4"/>
		<path id="XMLID_164_" class="st0" d="M650.5,261.3l0.5,0.7"/>
		<path id="XMLID_163_" class="st0" d="M651.5,263.2l-0.1-0.4"/>
		<path id="XMLID_162_" class="st0" d="M650.3,263.9l-0.1-0.4"/>
		<path id="XMLID_161_" class="st0" d="M649.8,262.8l-0.5-0.7"/>
		<path id="XMLID_160_" class="st0" d="M648.7,261.1L648.7,261.1"/>
		<path id="XMLID_159_" class="st0" d="M651.1,259.7L651.1,259.7"/>
		<path id="XMLID_158_" class="st0" d="M653,273.9l0.2-1.5"/>
		<path id="XMLID_157_" class="st0" d="M652.8,262.5l-0.1-0.3"/>
		<path id="XMLID_156_" class="st0" d="M633.4,263.5l0.2,2.3l0.1,0.6"/>
		<path id="XMLID_155_" class="st0" d="M648,260.1c1.5,1.1,2.8,3.2,2.9,5.1"/>
		<path id="XMLID_154_" class="st0" d="M647.7,258.8c1.7,0.3,3.6,2.4,4.2,4.8c0.3,1,0.3,1.9,0,2.6"/>
		<path id="XMLID_153_" class="st0" d="M647.7,258.3c1.3-0.7,3.4,0.5,4.7,2.7c1.3,2.2,1.3,4.7,0,5.4"/>
		
			<ellipse id="XMLID_152_" transform="matrix(0.866 -0.5 0.5 0.866 -42.979 361.2527)" class="st0" cx="652.6" cy="260.8" rx="4" ry="7"/>
		<path id="XMLID_151_" class="st0" d="M639.8,275.5c-2-1.5-3.9-3.8-5-6.5"/>
		<path id="XMLID_150_" class="st0" d="M647.8,257.1c1.6-0.8,4.1,0.7,5.6,3.4c1.5,2.6,1.5,5.5,0,6.4"/>
		<path id="XMLID_149_" class="st0" d="M648.3,255.7c2.4-0.1,5.4,2.7,6.6,6.2c0.7,2.1,0.7,4,0,5.3"/>
	</g>
	<g id="XMLID_144_">
		<path id="XMLID_148_" class="st1" d="M635.6,270.7L340.7,440.9"/>
	</g>
	<g id="XMLID_17_">
		<path id="XMLID_147_" class="st1" d="M573.9,235.1L279,405.3"/>
	</g>
	<g id="XMLID_4_">
		<path id="XMLID_146_" class="st2" d="M500.8,129.3c0,0,28.2,76.7,75.9,90.8c-30.9-24-59.3-102.1-59.3-102.1L500.8,129.3z"/>
		<g id="XMLID_9_">
			<circle id="XMLID_142_" class="st3" cx="495.1" cy="118.3" r="54.9"/>
			<g id="XMLID_11_">
				<g id="XMLID_95_">
					<path id="XMLID_141_" class="st4" d="M460,98.4c-0.1-0.1-0.1-0.1-0.3-0.3c0-0.1,0-0.1-0.1-0.1c-0.1-0.3-0.1-0.3-0.2-0.6
						c0-0.1,0-0.1,0-0.2c0-0.4,0-0.4,0-0.8c0-0.2,0-0.2,0-0.3c0-0.2,0-0.2,0.1-0.3c0.1-0.4,0.1-0.4,0.3-0.7c0.1-0.2,0.1-0.2,0.1-0.3
						c0.1-0.2,0.1-0.2,0.3-0.5c0.1-0.3,0.1-0.3,0.3-0.5c0.1-0.2,0.1-0.2,0.2-0.4c0.2-0.4,0.2-0.4,0.5-0.7c0.3-0.4,0.3-0.4,0.5-0.7
						c0.4-0.6,0.4-0.6,0.9-1.2c0.4-0.4,0.4-0.4,0.7-0.9c0.3-0.3,0.3-0.3,0.5-0.7c0.6-0.7,0.6-0.7,1.1-1.3c0.3-0.3,0.3-0.3,0.6-0.7
						c0.7-0.8,0.7-0.8,1.4-1.5c0.6-0.6,0.6-0.6,1.2-1.2c0.6-0.6,0.6-0.6,1.2-1.2c0.6-0.6,0.6-0.6,1.2-1.2c0.3-0.3,0.3-0.3,0.6-0.6
						c0.4-0.3,0.4-0.3,0.8-0.7c0.4-0.3,0.4-0.3,0.8-0.6c0.6-0.5,0.6-0.5,1.2-0.9c0.3-0.2,0.3-0.2,0.7-0.5c0.3-0.2,0.3-0.2,0.6-0.5
						c0.2-0.2,0.2-0.2,0.5-0.3c0.2-0.1,0.2-0.1,0.5-0.3c0.1-0.1,0.1-0.1,0.3-0.2c0.2-0.1,0.2-0.1,0.4-0.2c0.4-0.2,0.4-0.2,0.9-0.4
						c0.1,0,0.1,0,0.2-0.1c0.1,0,0.1,0,0.2,0c0.4,0,0.4,0,0.8,0c0.1,0,0.1,0,0.1,0c0.3,0.1,0.3,0.1,0.6,0.2c0.1,0,0.1,0,0.1,0.1
						c0.3,0.2,0.3,0.2,0.6,0.4"/>
					<path id="XMLID_140_" class="st4" d="M507.6,107.8c0.1,0.3,0.1,0.3,0.1,0.6c0,0.1,0,0.1,0,0.3c0,0.4,0,0.4,0,0.9
						c0,0.2,0,0.2-0.1,0.3c0,0.1,0,0.1-0.1,0.2c-0.2,0.4-0.2,0.4-0.3,0.8c-0.1,0.3-0.1,0.3-0.2,0.5c-0.2,0.3-0.2,0.3-0.3,0.6
						c-0.1,0.2-0.1,0.2-0.2,0.4c-0.2,0.3-0.2,0.3-0.4,0.7c-0.2,0.3-0.2,0.3-0.5,0.7c-0.2,0.2-0.2,0.2-0.3,0.5
						c-0.2,0.3-0.2,0.3-0.5,0.6c-0.3,0.4-0.3,0.4-0.7,0.9c-0.4,0.5-0.4,0.5-0.9,1c-0.2,0.3-0.2,0.3-0.5,0.5c-0.4,0.5-0.4,0.5-0.9,1
						c-0.5,0.5-0.5,0.5-0.9,0.9c-0.5,0.4-0.5,0.4-0.9,0.9c-0.2,0.2-0.2,0.2-0.5,0.4c-0.3,0.2-0.3,0.2-0.5,0.5
						c-0.3,0.3-0.3,0.3-0.7,0.6c-0.3,0.3-0.3,0.3-0.7,0.5c-0.5,0.4-0.5,0.4-1,0.8c-0.4,0.3-0.4,0.3-0.8,0.6
						c-0.2,0.1-0.2,0.1-0.4,0.3c-0.2,0.1-0.2,0.1-0.4,0.2c-0.2,0.1-0.2,0.1-0.5,0.3c-0.4,0.2-0.4,0.2-0.9,0.4
						c-0.2,0.1-0.2,0.1-0.4,0.1c-0.1,0-0.1,0-0.2,0c-0.4,0-0.4,0-0.7,0.1c-0.1,0-0.1,0-0.2,0c-0.4-0.1-0.4-0.1-0.7-0.2
						c-0.1,0-0.1,0-0.1,0c-0.2-0.1-0.2-0.1-0.5-0.3c0,0,0,0-0.1-0.1"/>
					<path id="XMLID_139_" class="st4" d="M477.8,88.1c-0.5,0.4-0.5,0.4-1,0.8c-0.5,0.4-0.5,0.4-1,0.8c-0.2,0.2-0.2,0.2-0.4,0.3
						c-0.3,0.3-0.3,0.3-0.7,0.6c-0.5,0.5-0.5,0.5-0.9,1c-0.4,0.5-0.4,0.5-0.9,0.9c-0.2,0.2-0.2,0.2-0.3,0.4
						c-0.3,0.3-0.3,0.3-0.6,0.7c-0.4,0.5-0.4,0.5-0.8,1c-0.1,0.2-0.1,0.2-0.3,0.4c-0.2,0.3-0.2,0.3-0.5,0.7"/>
					<path id="XMLID_138_" class="st4" d="M479.8,107.2c0.3,0.2,0.3,0.2,0.5,0.4c0.2,0.1,0.2,0.1,0.5,0.2c0.1,0,0.1,0,0.3,0.1
						c0.2,0,0.2,0,0.5,0"/>
					<path id="XMLID_137_" class="st4" d="M481.6,107.9c0.2-0.1,0.2-0.1,0.4-0.2c0.2-0.1,0.2-0.2,0.4-0.3c0.1-0.1,0.1-0.1,0.1-0.1
						c0.1-0.2,0.1-0.2,0.2-0.4"/>
					<path id="XMLID_136_" class="st4" d="M482.9,106.3c0-0.2,0-0.2-0.1-0.5c-0.1-0.2-0.1-0.2-0.2-0.4c-0.2-0.2-0.2-0.2-0.3-0.4
						c-0.1-0.1-0.1-0.1-0.1-0.1"/>
					<path id="XMLID_135_" class="st4" d="M480.1,105.9c0-0.1,0-0.1,0-0.2c0-0.1,0-0.1,0-0.2c0.1-0.1,0.1-0.1,0.1-0.2
						c0.1-0.1,0.1-0.1,0.2-0.2"/>
					<path id="XMLID_134_" class="st4" d="M483.1,103.5C483,103.5,483,103.5,483.1,103.5c-0.1-0.1-0.1-0.1-0.2-0.2
						c0-0.1,0-0.1-0.1-0.2"/>
					<path id="XMLID_133_" class="st4" d="M482.9,102.7c0.1-0.1,0.1-0.1,0.1-0.2c0,0,0,0,0.1-0.1c0.1,0,0.1,0,0.1-0.1"/>
					<path id="XMLID_132_" class="st4" d="M487,99.2c0-0.1,0-0.1,0-0.2c0.1-0.2,0.1-0.3,0.2-0.5c0.1-0.2,0.1-0.2,0.3-0.4"/>
					<path id="XMLID_131_" class="st4" d="M490.3,97.5c0.2,0.2,0.2,0.2,0.4,0.5c0.2,0.3,0.2,0.3,0.3,0.6c0.1,0.3,0.1,0.3,0.1,0.5
						c0,0.3,0,0.3-0.1,0.6c0,0.1,0,0.1,0,0.2c-0.1,0.3-0.1,0.3-0.3,0.5c-0.2,0.2-0.2,0.2-0.4,0.5c-0.2,0.2-0.2,0.2-0.4,0.4
						c-0.2,0.1-0.2,0.1-0.5,0.3c-0.2,0.1-0.2,0.1-0.5,0.1"/>
					<path id="XMLID_130_" class="st4" d="M480.4,77.6l26.7,29.5l0.5,0.7"/>
					<path id="XMLID_129_" class="st4" d="M490.6,124.3l-30.5-25.6l-0.2-0.2"/>
					<path id="XMLID_128_" class="st4" d="M468.6,99.6L481,86.7"/>
					<path id="XMLID_127_" class="st4" d="M490.3,118.7l-21.8-19.1"/>
					<path id="XMLID_126_" class="st4" d="M482.8,106.8l0.1-0.5"/>
					<path id="XMLID_125_" class="st4" d="M479.5,106.7l0.7-0.6l0,0"/>
					<path id="XMLID_124_" class="st4" d="M480.2,106.2l-0.1-0.3"/>
					<path id="XMLID_123_" class="st4" d="M480.5,105.3l0.2-0.1l0.2,0l0.2,0.1l0.3,0.2"/>
					<path id="XMLID_122_" class="st4" d="M480.8,106.8L480.8,106.8"/>
					<path id="XMLID_119_" class="st5" d="M482.8,105.8c-0.1-0.2-0.1-0.2-0.2-0.4c-0.1-0.2-0.1-0.2-0.3-0.3l-0.1-0.1
						c-0.2-0.1-0.2-0.1-0.4-0.3c-0.2-0.1-0.2-0.1-0.5-0.1c0,0,0,0-0.1,0c-0.2,0-0.2,0-0.4,0c-0.2,0.1-0.2,0.1-0.4,0.2
						c-0.2,0.2-0.2,0.2-0.4,0.3c-0.1,0.1-0.1,0.1-0.1,0.2c-0.1,0.2-0.1,0.2-0.3,0.5c0,0.2,0,0.2-0.1,0.3c0,0.1,0,0.1,0,0.3l0,0.2
						l0.1,0.4l0.7-0.6l-0.1-0.3c0-0.1,0-0.1,0-0.2c0-0.1,0-0.1,0-0.2c0.1-0.1,0.1-0.1,0.1-0.2c0.1-0.1,0.1-0.1,0.2-0.2l0.2-0.1
						l0.2,0l0.2,0.1l0.3,0.2l-1.6,1.7l0.3,0.2c0.1,0.1,0.1,0.1,0.2,0.2c0.2,0.1,0.2,0.1,0.5,0.2c0.1,0,0.1,0,0.3,0.1
						c0.2,0,0.2,0,0.5,0c0.2-0.1,0.2-0.1,0.4-0.2c0.2-0.1,0.2-0.2,0.4-0.3c0.1-0.1,0.1-0.1,0.1-0.1c0.1-0.2,0.1-0.2,0.2-0.4l0.1-0.5
						C482.8,106,482.8,106,482.8,105.8z M482.1,106.6c0,0.1,0,0.1-0.1,0.2c-0.1,0.1-0.1,0.1-0.1,0.2c0,0,0,0-0.1,0.1
						c-0.1,0-0.1,0-0.2,0.1c-0.1,0-0.1,0-0.2,0c-0.1,0-0.1,0-0.1,0c-0.1,0-0.1,0-0.2-0.1c-0.2-0.1-0.2-0.1-0.3-0.2l0,0l0.9-1
						l0.1,0.1l0.2,0.3c0,0.1,0,0.1,0.1,0.3C482.1,106.5,482.1,106.5,482.1,106.6z"/>
					<path id="XMLID_118_" class="st4" d="M480.8,106.9l1-1"/>
					<path id="XMLID_117_" class="st4" d="M482.5,103L482.5,103"/>
					<path id="XMLID_116_" class="st4" d="M482.9,103.2l0-0.2l0.1-0.2"/>
					<path id="XMLID_115_" class="st4" d="M483.3,102.4l0.1,0l0.2,0l0.2,0.1"/>
					<path id="XMLID_114_" class="st4" d="M501.6,107l-18.9-20"/>
					<path id="XMLID_113_" class="st5" d="M484.6,100.7l-0.3-0.3l0.6-0.7l3.3,3.2l-0.6,0.7L484.6,100.7"/>
					<path id="XMLID_112_" class="st4" d="M485.4,104.1l0.6-0.7"/>
					<path id="XMLID_111_" class="st5" d="M484.4,101.9l0.5,0.4l0.9,0.8l0.3,0.3l-0.3-0.3l0.3,0.3l-0.6,0.7l-1.2-1.1l0,0l0,0
						l-0.5-0.5l-0.2-0.1l-0.1,0l-0.1,0c-0.1,0-0.1,0-0.1,0.1c0,0,0,0-0.1,0.1c-0.1,0.1-0.1,0.1-0.1,0.2l0,0.2l0,0.2l0.1,0.2l0.1,0.1
						l0.2,0.2l0.2,0.3l0.1,0.1l-0.2-0.2l-0.2-0.2l0.2,0.3l0.1,0.1l0.9,0.8l-0.6,0.7l0.6-0.7l0,0l-0.6,0.7l-2.4-2.3l0.6-0.7l0.4,0.3
						l0-0.4l0.1-0.4c0.1-0.2,0.1-0.2,0.2-0.3c0.1-0.1,0.1-0.1,0.3-0.2c0.1-0.1,0.1-0.1,0.3-0.1l0.3,0c0.1,0,0.1,0,0.3,0.1
						C484.2,101.7,484.2,101.7,484.4,101.9c0.2,0.2,0.2,0.2,0.5,0.4"/>
					<path id="XMLID_110_" class="st4" d="M487.3,100.8l1.4-1.5l-0.2-0.2"/>
					<path id="XMLID_109_" class="st4" d="M487.3,99.5l-0.4-0.3"/>
					<path id="XMLID_108_" class="st4" d="M487,99.2L487,99.2"/>
					<path id="XMLID_107_" class="st4" d="M488.3,103L488.3,103l-0.7,0.6"/>
					<path id="XMLID_106_" class="st4" d="M488.2,103l-0.3-0.3"/>
					<path id="XMLID_105_" class="st4" d="M489,101.6l-0.5,0l-0.5-0.2"/>
					<path id="XMLID_104_" class="st4" d="M488.8,99.4L488.8,99.4"/>
					<path id="XMLID_103_" class="st4" d="M489.7,98.2L489.7,98.2L489.7,98.2"/>
					<path id="XMLID_102_" class="st4" d="M490.3,118.7l11.3-11.8"/>
					<path id="XMLID_101_" class="st4" d="M497.1,122.9l-0.2-0.2"/>
					<path id="XMLID_100_" class="st4" d="M506,113.6l-0.2-0.2"/>
					<path id="XMLID_99_" class="st4" d="M506.1,113.4l-0.1,0l-0.1,0"/>
					<path id="XMLID_98_" class="st4" d="M507.4,107.5l0.2,0.3"/>
					<path id="XMLID_97_" class="st5" d="M486,99.6l1.3,1.3l1.4-1.5l-0.6-0.5l-0.8,0.8l-0.1-0.1l-0.3-0.3l0.4,0.4l-0.1-0.1l-0.3-0.3
						c0-0.1,0-0.1,0-0.2c0.1-0.3,0.1-0.3,0.2-0.5c0.1-0.2,0.1-0.2,0.3-0.4l0,0c0.5-0.5,1.2-0.6,1.7-0.2l0,0c0.2,0.2,0.2,0.2,0.4,0.3
						c0.1,0.1,0.1,0.1,0.2,0.2c0.1,0.2,0.1,0.2,0.3,0.4c0.1,0.2,0.1,0.2,0.1,0.4c0,0.2,0,0.2,0,0.3c-0.1,0.2-0.1,0.2-0.1,0.4
						c-0.1,0.2-0.1,0.2-0.3,0.4c-0.1,0.1-0.1,0.1-0.2,0.2c-0.1,0.1-0.1,0.1-0.3,0.2c-0.1,0-0.1,0-0.2,0.1c-0.2,0-0.2,0-0.3,0
						l-0.3-0.1l-0.5,0.8l0.5,0.2l0.5,0c0.2,0,0.2-0.1,0.5-0.1c0.2-0.1,0.2-0.1,0.5-0.3c0.2-0.2,0.2-0.2,0.4-0.4
						c0.2-0.2,0.2-0.2,0.4-0.5c0.1-0.3,0.1-0.3,0.3-0.5c0-0.1,0-0.1,0-0.2c0-0.3,0-0.3,0.1-0.6c0-0.3,0-0.3-0.1-0.5
						c-0.1-0.3-0.1-0.3-0.3-0.6c-0.2-0.2-0.2-0.2-0.4-0.5c-0.1-0.1-0.1-0.1-0.3-0.2c-0.3-0.2-0.3-0.2-0.5-0.3
						c-0.3-0.1-0.3-0.1-0.5-0.2c-0.3,0-0.3,0-0.6,0c-0.3,0.1-0.3,0.1-0.5,0.1c-0.3,0.1-0.3,0.1-0.5,0.3c-0.2,0.2-0.2,0.2-0.4,0.4
						c-0.1,0.1-0.1,0.1-0.1,0.1c-0.2,0.3-0.2,0.3-0.4,0.6c-0.1,0.3-0.1,0.3-0.3,0.6C486.1,99.3,486.1,99.3,486,99.6z"/>
					<path id="XMLID_96_" class="st4" d="M487.5,98.1c0.5-0.5,1.2-0.6,1.8-0.2c0,0,0,0,0,0l0,0l0.4,0.3"/>
				</g>
				<path id="XMLID_94_" class="st5" d="M521.4,156.1c-0.1-0.3-0.1-0.3-0.1-0.7c0-0.4,0-0.4,0-0.8c0-0.4,0-0.4,0.1-0.8
					c0.1-0.4,0.1-0.4,0.2-0.7c0.2-0.3,0.2-0.3,0.3-0.7c0-0.1,0-0.1,0.1-0.1c0.2-0.3,0.2-0.3,0.4-0.5c0.4-0.5,0.4-0.5,0.8-1.1
					c0.4-0.6,0.4-0.6,0.7-1.1c0.3-0.6,0.3-0.6,0.6-1.2c0.3-0.6,0.3-0.6,0.5-1.2c0.2-0.6,0.2-0.6,0.4-1.3c0.2-0.7,0.2-0.7,0.3-1.3
					c0.1-0.7,0.1-0.7,0.2-1.3c0-0.5,0-0.5,0-1l0,0c0,0.5,0,0.5,0,1c0.1,0.7,0.1,0.7,0.2,1.3c0.1,0.7,0.1,0.7,0.3,1.3
					c0.2,0.6,0.2,0.6,0.4,1.3c0.3,0.6,0.3,0.6,0.5,1.2c0.3,0.6,0.3,0.6,0.6,1.2c0.4,0.6,0.4,0.6,0.7,1.1c0.4,0.5,0.4,0.5,0.8,1.1
					c0.2,0.3,0.2,0.3,0.4,0.5c0,0.1,0,0.1,0.1,0.1c0.2,0.3,0.2,0.3,0.3,0.7c0.1,0.4,0.1,0.4,0.2,0.7c0.1,0.4,0.1,0.4,0.1,0.8
					c0,0.4,0,0.4,0,0.8c-0.1,0.4-0.1,0.4-0.1,0.8c0,0.1,0,0.1,0,0.1c-0.1,0.4-0.1,0.4-0.3,0.7c-0.2,0.3-0.2,0.3-0.4,0.7
					c-0.2,0.3-0.2,0.3-0.5,0.6c-0.1,0-0.1,0-0.1,0.1c-0.3,0.2-0.3,0.2-0.6,0.5c-0.3,0.2-0.3,0.2-0.6,0.4c-0.1,0-0.1,0-0.1,0.1
					c-0.3,0.1-0.3,0.1-0.6,0.2c-0.1,0-0.1,0-0.1,0c-0.1,0-0.1,0-0.2,0c-0.3,0-0.3,0-0.6,0.1c0,0,0,0-0.1,0c-0.1,0-0.1,0-0.1,0
					c-0.1,0-0.1,0-0.2,0c-0.1,0-0.1,0-0.2,0c-0.1,0-0.1,0-0.1,0c0,0,0,0-0.1,0c-0.3,0-0.3,0-0.6-0.1c-0.1,0-0.1,0-0.2,0
					c-0.1,0-0.1,0-0.1,0c-0.3-0.1-0.3-0.1-0.6-0.2c-0.1,0-0.1,0-0.1-0.1c-0.3-0.2-0.3-0.2-0.6-0.4c-0.3-0.2-0.3-0.2-0.6-0.5
					c-0.1-0.1-0.1,0-0.1-0.1c-0.2-0.3-0.2-0.3-0.5-0.6c-0.2-0.3-0.2-0.3-0.4-0.7c-0.1-0.3-0.1-0.4-0.3-0.7"/>
				<path id="XMLID_93_" class="st6" d="M521.4,156.3l0-0.2L521.4,156.3"/>
				<path id="XMLID_92_" class="st6" d="M525.9,143.2l0-1"/>
				<path id="XMLID_91_" class="st6" d="M526,143.2l0-1"/>
				<path id="XMLID_90_" class="st6" d="M526,143.2l0-1"/>
				<path id="XMLID_89_" class="st6" d="M526,143.2L526,143.2"/>
				<g id="XMLID_12_">
					<path id="XMLID_88_" class="st4" d="M496.1,124.8c0.2,0,0.2,0,0.4-0.1c0.4-0.1,0.4-0.1,0.7-0.3c0.1-0.1,0.1-0.1,0.2-0.1"/>
					<path id="XMLID_87_" class="st4" d="M497.5,124.4c0.3-0.2,0.3-0.2,0.6-0.3c0.5-0.3,0.5-0.3,1-0.6c0.1-0.1,0.1-0.1,0.2-0.1"/>
					<path id="XMLID_86_" class="st4" d="M499.8,127.9c0.2,0.3,0.2,0.3,0.4,0.6c0.3,0.4,0.3,0.4,0.6,0.7c0.3,0.4,0.3,0.4,0.6,0.7
						c0.3,0.3,0.3,0.3,0.7,0.7"/>
					<path id="XMLID_85_" class="st4" d="M499.9,127.9c0.3,0.4,0.3,0.4,0.5,0.7c0.3,0.3,0.3,0.3,0.6,0.7c0.3,0.3,0.3,0.3,0.6,0.7
						c0.3,0.3,0.3,0.3,0.6,0.6c0.1,0,0.1,0,0.1,0.1c0,0,0,0,0.1,0c0.1,0,0.1,0,0.2,0c0.1,0,0.1,0,0.2,0"/>
					<path id="XMLID_84_" class="st4" d="M502.8,130.7c0.1,0,0.1,0,0.2-0.1c0.1,0,0.1,0,0.2-0.1c0.1-0.1,0.1-0.1,0.3-0.1"/>
					<path id="XMLID_83_" class="st4" d="M506.5,115.7c0.1-0.1,0.1-0.1,0.1-0.2c0.3-0.5,0.3-0.5,0.6-1c0.1-0.3,0.1-0.3,0.3-0.6"/>
					<path id="XMLID_82_" class="st4" d="M514,122c0.7,0.8,0.7,0.8,1.4,1.6c1.3,1.5,1.3,1.5,2.6,3c0,0,0,0,0,0c0,0.1,0,0.1,0.1,0.3"
						/>
					<path id="XMLID_81_" class="st4" d="M518,126.9c0,0.2,0,0.2,0,0.4c0,0.2,0,0.2-0.1,0.4c-0.1,0.2-0.1,0.2-0.2,0.5
						c-0.1,0.2-0.1,0.2-0.3,0.5c-0.2,0.3-0.2,0.3-0.3,0.5c-0.2,0.3-0.2,0.3-0.4,0.6c-0.2,0.3-0.2,0.3-0.4,0.6
						c-0.2,0.3-0.2,0.3-0.5,0.6c-0.3,0.3-0.3,0.3-0.5,0.6c-0.3,0.3-0.3,0.3-0.6,0.6c-0.3,0.3-0.3,0.3-0.6,0.5
						c-0.3,0.2-0.3,0.2-0.6,0.5c-0.3,0.2-0.3,0.2-0.6,0.4c-0.3,0.2-0.3,0.2-0.5,0.4c-0.2,0.1-0.2,0.1-0.5,0.3
						c-0.2,0.1-0.2,0.1-0.5,0.2c-0.2,0.1-0.2,0.1-0.4,0.1c-0.2,0-0.2,0-0.4,0"/>
					<path id="XMLID_80_" class="st4" d="M507.9,112.6c0,0.2,0,0.2-0.1,0.4c-0.1,0.4-0.1,0.4-0.2,0.7c0,0.1,0,0.1-0.1,0.2"/>
					<path id="XMLID_79_" class="st4" d="M511.1,134.4c0.2-0.1,0.2-0.1,0.4-0.1c0.2-0.1,0.2-0.1,0.4-0.2c0.2-0.1,0.2-0.1,0.5-0.3
						c0.3-0.2,0.3-0.2,0.5-0.4c0.3-0.2,0.3-0.2,0.6-0.4c0.3-0.2,0.3-0.2,0.6-0.5c0.3-0.3,0.3-0.3,0.6-0.5c0.3-0.3,0.3-0.3,0.6-0.6
						c0.1-0.1,0.1-0.1,0.2-0.2c0.2-0.2,0.2-0.2,0.4-0.4c0.3-0.3,0.3-0.3,0.5-0.6c0.2-0.3,0.2-0.3,0.5-0.6c0.2-0.3,0.2-0.3,0.4-0.6
						c0.2-0.3,0.2-0.3,0.3-0.5c0.1-0.2,0.1-0.2,0.3-0.5c0.1-0.2,0.1-0.2,0.2-0.4c0.1-0.2,0.1-0.2,0.1-0.4"/>
					<path id="XMLID_78_" class="st4" d="M514.3,120.1c0-0.1,0-0.1,0-0.2c0-0.2,0-0.2,0-0.5c0-0.1,0-0.1,0-0.1"/>
					<path id="XMLID_77_" class="st4" d="M511.1,116.3c0.4,0.2,0.4,0.2,0.7,0.5c0.4,0.3,0.4,0.3,0.7,0.5c0.3,0.3,0.3,0.3,0.7,0.6
						c0.3,0.3,0.3,0.3,0.6,0.6"/>
					<path id="XMLID_76_" class="st4" d="M514,118.4c-0.4-0.3-0.4-0.3-0.7-0.7c-0.4-0.3-0.4-0.3-0.7-0.6c-0.4-0.3-0.4-0.3-0.8-0.6
						c-0.3-0.2-0.3-0.2-0.7-0.4"/>
					<path id="XMLID_75_" class="st4" d="M517.6,128.2c2.8,3.3,2.8,3.3,5.7,6.6c0,0,0,0,0.1,0.1c0,0.1,0,0.1,0.1,0.2c0,0,0,0,0,0.1
						c0,0.1,0,0.1,0,0.3c0,0.2,0,0.2-0.1,0.3c-0.1,0.2-0.1,0.2-0.2,0.4c-0.1,0.2-0.1,0.2-0.2,0.4c-0.2,0.2-0.2,0.2-0.3,0.4
						c-0.2,0.2-0.2,0.2-0.4,0.4c-0.2,0.2-0.2,0.2-0.4,0.4c-0.2,0.2-0.2,0.2-0.4,0.4c-0.2,0.2-0.2,0.2-0.4,0.4
						c-0.2,0.2-0.2,0.2-0.4,0.3c-0.2,0.1-0.2,0.1-0.4,0.3c-0.2,0.1-0.2,0.1-0.4,0.2c-0.1,0.1-0.1,0.1-0.3,0.1c-0.1,0-0.1,0-0.3,0
						c0,0,0,0-0.1,0c-0.1,0-0.1,0-0.2-0.1c0,0,0,0,0,0"/>
					<path id="XMLID_74_" class="st4" d="M513.9,118.5c0.1,0.1,0.1,0.1,0.1,0.2c0.1,0.1,0.1,0.1,0.1,0.2c0,0.1,0,0.1,0.1,0.2
						c0,0.1,0,0.1,0.1,0.3"/>
					<path id="XMLID_73_" class="st4" d="M519.4,139.5c0.2-0.1,0.2-0.1,0.3-0.1c0.2-0.1,0.2-0.1,0.4-0.2c0.2-0.1,0.2-0.1,0.4-0.3
						c0.2-0.2,0.2-0.2,0.4-0.3c0.2-0.2,0.2-0.2,0.4-0.4c0.2-0.2,0.2-0.2,0.4-0.4c0.2-0.2,0.2-0.2,0.4-0.4c0.2-0.2,0.2-0.2,0.4-0.5
						c0.2-0.2,0.2-0.2,0.3-0.4c0.1-0.2,0.1-0.2,0.2-0.4c0.1-0.2,0.1-0.2,0.2-0.4c0-0.2,0-0.2,0.1-0.3"/>
					<path id="XMLID_72_" class="st4" d="M525.4,138.4C525.5,138.5,525.5,138.5,525.4,138.4c0,0.1,0,0.1,0,0.2c0,0,0,0,0,0.1
						c0,0.1,0,0.1-0.1,0.2c-0.1,0.2-0.1,0.2-0.2,0.3c-0.1,0.2-0.1,0.2-0.2,0.3c-0.1,0.2-0.1,0.2-0.3,0.3c-0.2,0.2-0.2,0.2-0.3,0.3
						c-0.2,0.2-0.2,0.2-0.3,0.3c-0.2,0.1-0.2,0.1-0.3,0.3c-0.2,0.1-0.2,0.1-0.3,0.2c-0.1,0.1-0.1,0.1-0.3,0.2
						c-0.1,0.1-0.1,0.1-0.3,0.1c0,0,0,0,0,0c-0.1,0-0.1,0-0.2,0c0,0,0,0-0.1,0c0,0,0,0,0,0"/>
					<path id="XMLID_71_" class="st4" d="M525.5,138.7c0,0.1,0,0.1-0.1,0.2c-0.1,0.2-0.1,0.2-0.2,0.3c-0.1,0.2-0.1,0.2-0.2,0.3
						c-0.1,0.2-0.1,0.2-0.3,0.4c-0.2,0.2-0.2,0.2-0.3,0.4c-0.2,0.2-0.2,0.2-0.4,0.3c-0.2,0.1-0.2,0.1-0.3,0.3
						c-0.2,0.1-0.2,0.1-0.3,0.2c-0.1,0.1-0.1,0.1-0.3,0.2c-0.1,0-0.1,0-0.2,0.1"/>
					<path id="XMLID_70_" class="st4" d="M499.3,127.9l-0.7,0l-3.4-3.3l-0.5-0.5"/>
					<path id="XMLID_69_" class="st4" d="M504.5,131.1l-0.2,0.1l-3.7-3.6l-1.1,0.5l-3.4-3.3l-0.2,0l-0.5-0.1l-0.2-0.1"/>
					<path id="XMLID_68_" class="st4" d="M497.5,124.4l7.1,6.9l1.7-1.1"/>
					<path id="XMLID_67_" class="st4" d="M506.3,112.6l-0.1,0.6l-0.3,0.7l-0.4,0.3l-0.4,0.7l-0.2,0.3l0.4-0.2l-0.6,0.9l-0.7,0.9
						l-0.3,0.1l-0.8,1l-0.1,0.2l0.2,0l-0.8,0.9l-0.9,0.9l-0.1-0.2l-0.2,0.1l-1,0.9l0,0.3l-0.9,0.7l-0.8,0.6l0.2-0.4l-0.3,0.2
						l-0.7,0.4l-0.3,0.4l-0.7,0.3l-0.6,0.2"/>
					<path id="XMLID_66_" class="st4" d="M496.5,122.9l0.2,0.1"/>
					<path id="XMLID_65_" class="st4" d="M499.2,123.3l7.1,6.9l1.9-1.6"/>
					<path id="XMLID_64_" class="st4" d="M498.6,121.7l0.2,0.1"/>
					<path id="XMLID_63_" class="st4" d="M502.1,130.7l-2.9-2.8"/>
					<path id="XMLID_62_" class="st4" d="M510.3,126.6l-0.4-0.4L510.3,126.6L510.3,126.6l-2,2l-7.1-6.9l-1.2,1l-0.8,0.6"/>
					<path id="XMLID_61_" class="st4" d="M500.1,128.1l-0.2-0.2"/>
					<path id="XMLID_60_" class="st4" d="M502.8,130.7l-2.7-2.6"/>
					<path id="XMLID_59_" class="st4" d="M499.9,127.9L499.9,127.9"/>
					<path id="XMLID_58_" class="st4" d="M509.9,126.3l-6.7-6.4l-1,1l-0.9,0.9l0,0"/>
					<path id="XMLID_57_" class="st4" d="M501.4,119.6l-0.1-0.1"/>
					<path id="XMLID_56_" class="st4" d="M502.1,130.7L502.1,130.7"/>
					<path id="XMLID_55_" class="st4" d="M502.8,117.9l0.1,0.1"/>
					<path id="XMLID_54_" class="st4" d="M503.2,119.8l1-1.1l0.8-1l7.1,6.9l-0.1,0l-1.7,2.1"/>
					<path id="XMLID_53_" class="st4" d="M504.9,115.1l0.2,0.2"/>
					<path id="XMLID_52_" class="st4" d="M512.1,124.6l-7.1-6.8"/>
					<path id="XMLID_51_" class="st4" d="M507.5,113.9l7,6.8l-0.1,0.1l-0.3,0.8l-0.5,1l-7.1-6.9l-0.6,0.8l-0.9,1.2"/>
					<path id="XMLID_50_" class="st4" d="M510.8,134.4l-0.3-0.1l0,0l-4.7-3.8"/>
					<path id="XMLID_49_" class="st4" d="M506,113.1L506,113.1"/>
					<path id="XMLID_48_" class="st4" d="M506,113.1l0.1,0.1"/>
					<path id="XMLID_47_" class="st4" d="M513.7,122.6l-0.1,0.1l-7.1-6.8"/>
					<path id="XMLID_46_" class="st4" d="M507.9,112.6v-0.2l-0.1-0.4l-0.1-0.2l-0.6-0.5"/>
					<path id="XMLID_45_" class="st4" d="M514.4,120.8l-7-6.7"/>
					<path id="XMLID_44_" class="st4" d="M514.5,120.7v-0.4l-3.6-3.5l0.2-0.9l0.1-0.1l-3.4-3.3"/>
					<path id="XMLID_43_" class="st4" d="M511.1,115.9l-3.3-3.2"/>
					<path id="XMLID_42_" class="st4" d="M507.9,112.2l3,2.9l0.1-0.1l-3.4-3.3"/>
					<path id="XMLID_41_" class="st4" d="M510.9,115.1l0.4,0.7v0"/>
					<path id="XMLID_40_" class="st4" d="M514.3,119.3l-3.2-3.1"/>
					<path id="XMLID_39_" class="st4" d="M513.9,118.5L513.9,118.5"/>
					<path id="XMLID_38_" class="st4" d="M511.1,116.3L511.1,116.3"/>
					<path id="XMLID_37_" class="st4" d="M514,118.4l-2.7-2.6"/>
					<path id="XMLID_36_" class="st4" d="M518.9,139.4l-6.8-5.5"/>
					<path id="XMLID_35_" class="st4" d="M512.2,124.6l1.4-2"/>
					<path id="XMLID_34_" class="st4" d="M515.3,123.6L514,122"/>
					<path id="XMLID_27_" class="st4" d="M515.3,123.6L515.3,123.6"/>
					<path id="XMLID_26_" class="st4" d="M519.9,139.3l0.9,0.7L519.9,139.3"/>
					<path id="XMLID_25_" class="st4" d="M523.7,136.4l-0.4-0.4l2,2.4l0,0.1"/>
					<path id="XMLID_24_" class="st4" d="M522.5,141.4l-1.7-1.4l0.2,0.2"/>
					<path id="XMLID_23_" class="st4" d="M520.2,139.5l0.2,0.1"/>
					<path id="XMLID_19_" class="st4" d="M525.3,142.5l-1.8-1.4"/>
					<path id="XMLID_18_" class="st4" d="M523.4,136l-0.1-0.1"/>
					<path id="XMLID_16_" class="st4" d="M526.7,141.1l-1.5-1.7"/>
					<path id="XMLID_14_" class="st4" d="M507,111.3c0.3,1.6-2.3,5.5-5.9,8.9c-2.6,2.5-5.1,4-6.3,3.8"/>
					<path id="XMLID_13_" class="st4" d="M526.7,141.1c0.1,0.1,0,0.5-0.4,0.9s-0.8,0.7-0.9,0.6c0,0,0,0,0,0"/>
				</g>
			</g>
		</g>
	</g>
</g>
<g id="XMLID_10_">
	<g id="XMLID_5_">
		<path id="XMLID_20_" d="M813.4,3c14,0,25.5,11.4,25.5,25.5v538.3c0,14-11.4,25.5-25.5,25.5H28.5c-14,0-25.5-11.4-25.5-25.5V28.5
			C3,14.4,14.4,3,28.5,3H813.4 M813.4,0H28.5C12.8,0,0,12.8,0,28.5v538.3c0,15.7,12.8,28.5,28.5,28.5h784.9
			c15.7,0,28.5-12.8,28.5-28.5V28.5C841.9,12.8,829.1,0,813.4,0L813.4,0z"/>
	</g>
	<g id="XMLID_3_">
		<path id="XMLID_33_" d="M1.5,83.5V28.5c0-14.9,12.1-27,27-27h55.1v55.1c0,14.9-12.1,27-27,27H1.5z"/>
		<g id="XMLID_29_">
			<path id="XMLID_30_" d="M82,3v53.6C82,70.6,70.6,82,56.6,82H3V28.5C3,14.4,14.4,3,28.5,3H82 M85,0H28.5C12.8,0,0,12.8,0,28.5V85
				h56.6C72.2,85,85,72.2,85,56.6V0L85,0z"/>
		</g>
	</g>
	<g id="XMLID_6_">
		<path id="XMLID_7_" class="st7" d="M32.2,50.7c1-2.3,3.2-4.7,6.8-7.2c3.1-2.2,5.1-3.8,6-4.7c1.4-1.5,2.1-3.1,2.1-4.9
			c0-1.4-0.4-2.6-1.2-3.6s-1.9-1.4-3.4-1.4c-2,0-3.4,0.8-4.1,2.3c-0.4,0.9-0.7,2.3-0.8,4.2H31c0.1-2.9,0.6-5.2,1.6-7
			c1.8-3.4,5-5.1,9.5-5.1c3.6,0,6.5,1,8.6,3c2.1,2,3.2,4.6,3.2,7.9c0,2.5-0.8,4.8-2.3,6.7c-1,1.3-2.6,2.7-4.9,4.3l-2.7,1.9
			c-1.7,1.2-2.8,2-3.4,2.6s-1.1,1.1-1.6,1.9h14.8v5.9H30.7C30.7,55,31.3,52.7,32.2,50.7z"/>
	</g>
</g>
</svg>
