<?xml version="1.0" encoding="utf-8"?>
<!-- Generator: Adobe Illustrator 19.0.0, SVG Export Plug-In . SVG Version: 6.00 Build 0)  -->
<svg version="1.1" id="Layer_1" xmlns="http://www.w3.org/2000/svg" xmlns:xlink="http://www.w3.org/1999/xlink" x="0px" y="0px"
	 width="841.9px" height="595.3px" viewBox="0 0 841.9 595.3" style="enable-background:new 0 0 841.9 595.3;" xml:space="preserve"
	>
<style type="text/css">
	.st0{fill:#FFFFFF;}
	.st1{fill:none;stroke:#0B0620;stroke-width:0.5;stroke-linecap:round;stroke-linejoin:round;}
	.st2{fill:none;stroke:#000000;stroke-linecap:round;stroke-linejoin:round;stroke-dasharray:4.7,3.1,1.6,3.1;}
	.st3{stroke:#000000;stroke-width:8.800000e-02;stroke-linecap:round;stroke-linejoin:round;}
	.st4{fill:#FFFFFF;stroke:#000000;stroke-linecap:round;stroke-linejoin:round;stroke-opacity:0.98;}
	.st5{fill:none;stroke:#000000;stroke-width:0.25;stroke-linecap:round;stroke-linejoin:round;}
	.st6{stroke:#000000;stroke-width:0.25;stroke-linecap:round;stroke-linejoin:round;}
	.st7{fill:none;stroke:#0B0620;stroke-width:0.25;stroke-linecap:round;stroke-linejoin:round;}
</style>
<g id="XMLID_316_">
	<g id="XMLID_319_">
		<path id="XMLID_332_" d="M813.4,3c14,0,25.5,11.4,25.5,25.5v538.3c0,14-11.4,25.5-25.5,25.5H28.5c-14,0-25.5-11.4-25.5-25.5V28.5
			C3,14.4,14.4,3,28.5,3H813.4 M813.4,0H28.5C12.8,0,0,12.8,0,28.5v538.3c0,15.7,12.8,28.5,28.5,28.5h784.9
			c15.7,0,28.5-12.8,28.5-28.5V28.5C841.9,12.8,829.1,0,813.4,0L813.4,0z"/>
	</g>
	<g id="XMLID_318_">
		<path id="XMLID_345_" d="M1.5,83.5V28.5c0-14.9,12.1-27,27-27h55.1v55.1c0,14.9-12.1,27-27,27H1.5z"/>
		<g id="XMLID_341_">
			<path id="XMLID_342_" d="M82,3v53.6C82,70.6,70.6,82,56.6,82H3V28.5C3,14.4,14.4,3,28.5,3H82 M85,0H28.5C12.8,0,0,12.8,0,28.5V85
				h56.6C72.2,85,85,72.2,85,56.6V0L85,0z"/>
		</g>
	</g>
	<g id="XMLID_315_">
		<path id="XMLID_320_" class="st0" d="M32.5,34v-4.5c2.1-0.1,3.6-0.2,4.4-0.4c1.3-0.3,2.4-0.9,3.3-1.8c0.6-0.6,1-1.4,1.3-2.4
			c0.2-0.6,0.3-1.1,0.3-1.4h5.6v34h-6.8V34H32.5z"/>
	</g>
</g>
<g id="XMLID_314_">
	<g id="XMLID_1_">
		<g>
			<path id="XMLID_313_" class="st1" d="M377.2,424.5c-2.4-0.9-2.4-0.9-4.8-1.9c-1.2-0.5-1.2-0.5-2.4-1c-1.4-0.4-1.4-0.4-2.9-0.7
				c-1.5-0.1-1.5-0.1-3.1-0.3c-1.5,0.1-1.5,0.1-3,0.3c-1.4,0.3-1.4,0.3-2.8,0.7c-1.2,0.5-1.2,0.5-2.4,1.1c-0.9,0.7-1,0.7-1.9,1.4
				c-0.6,0.8-0.6,0.8-1.2,1.6"/>
			<path id="XMLID_312_" class="st1" d="M352.4,427.4c0,2.5,0,2.5,0.1,5c0.1,1.1,0.1,1.1,0.3,2.2c0.1,0.4,0.1,0.4,0.2,0.9"/>
			<path id="XMLID_311_" class="st1" d="M354.8,438.1c1.2,0.8,1.2,0.8,2.4,1.6c0.2,0.1,0.2,0.1,0.5,0.3c1.4,0.5,1.4,0.5,2.9,1
				c1.6,0.2,1.7,0.2,3.3,0.3c1.7-0.1,1.7-0.1,3.3-0.3c1.5-0.4,1.5-0.5,3-0.9c0.2-0.1,0.2-0.1,0.5-0.3c1.3-0.8,1.3-0.8,2.5-1.5"/>
			<path id="XMLID_310_" class="st1" d="M374.7,434.6c-0.2-0.7-0.2-0.7-0.4-1.3c-0.2-0.4-0.2-0.4-0.4-0.7c-0.5-0.6-0.5-0.6-1.1-1.1
				c-0.4-0.3-0.4-0.3-0.8-0.6c-0.8-0.5-0.8-0.5-1.6-0.9c-0.5-0.2-0.5-0.2-1.1-0.4c-1-0.3-1-0.3-2-0.5c-0.7-0.1-0.7-0.1-1.3-0.2
				c-1-0.1-1-0.1-2.1-0.1c-0.7,0-0.7,0-1.4,0.1c-1,0.1-1,0.1-2,0.3c-0.7,0.2-0.7,0.2-1.3,0.3c-0.9,0.3-0.9,0.3-1.8,0.7
				c-0.5,0.3-0.5,0.3-1,0.6c-0.6,0.5-0.6,0.5-1.2,1c-0.4,0.3-0.4,0.3-0.7,0.7c-0.3,0.5-0.3,0.5-0.6,1.1c-0.1,0.4-0.1,0.4-0.3,0.9"/>
			<path id="XMLID_309_" class="st1" d="M375.8,428.1l1.4-3.6"/>
			<path id="XMLID_308_" class="st1" d="M352.8,425.6l-0.4,1.7"/>
			<path id="XMLID_307_" class="st1" d="M352.9,435.4l0.5,0.7l1.4,1.9"/>
			<path id="XMLID_306_" class="st1" d="M373.3,438.2l1.5-1.9l0.5-0.7l0.1-0.9l0.4-2.2l0-5.2l-0.4-1.8l-1.2-1.6l-1.8-1.4l-4.8-3.6
				l-6.5,1.9l-6.5,0.1l-1.8,4.6l-1.7,2.9l1.4,1"/>
			<path id="XMLID_305_" class="st1" d="M351.1,428.5v-6.2l1.7-4.6l1.8-2.9v6.2"/>
			<path id="XMLID_304_" class="st1" d="M370.5,439.9l2.4-1.5l1-1.2l0.5-0.7l0.3-1.3l0.1-0.7"/>
			<path id="XMLID_303_" class="st1" d="M353.5,434.4l0.1,1.2l0.1,0.9l0.8,1.1l0.6,0.8l2.4,1.5"/>
			<path id="XMLID_302_" class="st1" d="M354.5,414.8l6.5-1.9l6.5-0.1v6.2"/>
			<path id="XMLID_301_" class="st1" d="M367.6,412.8l4.8,1.9l2.3,1.7l-0.4-0.3"/>
			<path id="XMLID_300_" class="st1" d="M374.6,416.4l2.5,1.9v6.2"/>
			<path id="XMLID_299_" class="st1" d="M369.3,413.4l0.7,0.2l2.4,1.1l1.8,1.4"/>
			<path id="XMLID_298_" class="st1" d="M357,414.1c2.6-1.2,6-1.6,9.2-1.3"/>
			<path id="XMLID_297_" class="st1" d="M369.5,432.3c0.6,1.7-1.2,3.4-4.2,3.8c-3,0.4-5.9-0.7-6.6-2.4c-0.2-0.4-0.2-0.9,0-1.4"/>
			<ellipse id="XMLID_296_" class="st1" cx="364.1" cy="435.8" rx="8.1" ry="4.7"/>
			<path id="XMLID_295_" class="st1" d="M371.8,434.4c-1.4,2.5-5.9,3.8-10.2,3.1c-2.5-0.5-4.5-1.6-5.3-3.1"/>
		</g>
		<g>
			<path id="XMLID_294_" class="st1" d="M338.5,87c0.3,0.1,0.3,0.1,0.6,0.2c0.6,0.1,0.6,0.1,1.1,0.1c0.4,0,0.4-0.1,0.7-0.1
				c0.7-0.2,0.7-0.2,1.3-0.5c0.4-0.2,0.4-0.2,0.7-0.4c0.7-0.5,0.7-0.5,1.3-1c0.4-0.3,0.4-0.3,0.7-0.7c0.6-0.7,0.6-0.7,1.2-1.4
				c0.3-0.4,0.3-0.4,0.6-0.8c0.7-1.3,0.7-1.3,1.3-2.6c0.3-0.9,0.3-0.9,0.6-1.8c0.1-0.4,0.1-0.4,0.2-0.8c0.1-0.9,0.1-0.9,0.1-1.7
				c0-0.4,0-0.4,0-0.7c-0.1-0.7-0.1-0.7-0.3-1.4c-0.1-0.3-0.1-0.3-0.3-0.5c-0.4-0.5-0.4-0.5-0.7-1"/>
			<path id="XMLID_293_" class="st1" d="M345.5,71.7c0.2,0.2,0.2,0.2,0.4,0.5c0.3,0.4,0.3,0.4,0.5,0.9c0.1,0.3,0.1,0.3,0.2,0.7
				c0.1,0.6,0.1,0.6,0.1,1.2c0,0.4,0,0.4-0.1,0.8c-0.1,0.7-0.1,0.7-0.3,1.4c-0.1,0.4-0.1,0.4-0.2,0.9c-0.5,1.2-0.5,1.2-1,2.3
				c-0.7,1-0.7,1-1.5,2.1c-0.6,0.6-0.6,0.6-1.1,1.1c-0.3,0.3-0.3,0.3-0.6,0.5c-0.6,0.4-0.6,0.4-1.2,0.7c-0.3,0.1-0.3,0.1-0.6,0.3
				c-0.6,0.1-0.6,0.1-1.2,0.3c-0.3,0-0.3,0-0.5,0c-0.5-0.1-0.5-0.1-1-0.2"/>
			<path id="XMLID_292_" class="st1" d="M335.6,82.3c0-1,0-1,0-2.1c0.3-1.1,0.3-1.1,0.6-2.3c0.5-1.1,0.5-1.2,1.1-2.3
				c0.7-1,0.7-1,1.5-2c0.9-0.8,0.9-0.8,1.7-1.5c1-0.5,1-0.5,2.1-1"/>
			<path id="XMLID_291_" class="st1" d="M387.7,210.6c0.1,3.2,0.1,3.2,0.1,6.3c-0.1,0.6-0.1,0.7-0.2,1.3c-0.8,2.2-0.8,2.2-1.6,4.4
				c-0.3,0.5-0.3,0.5-0.7,1c-1.9,1.9-1.9,1.9-3.8,3.7c-0.4,0.3-0.4,0.3-0.9,0.5c-2.7,1.3-2.7,1.4-5.4,2.7c-3.3,0.8-3.3,0.8-6.7,1.5
				c-3.5,0.2-3.6,0.2-7.1,0.2c-3.4-0.5-3.5-0.5-6.9-1.2c-2.9-1.1-2.9-1.2-5.8-2.4c-0.4-0.2-0.4-0.2-0.8-0.5
				c-2.2-1.7-2.2-1.7-4.4-3.5c-0.3-0.5-0.3-0.5-0.7-1c-1.1-2.1-1.1-2.1-2.2-4.3c-0.1-0.6-0.1-0.6-0.2-1.2c-0.1-3.2-0.1-3.2-0.2-6.3
				c-0.2-1.3-0.2-1.3-0.5-2.6"/>
			<path id="XMLID_290_" class="st1" d="M398.7,218.7c3.1,8,3.1,8.1,5.9,16.2c1.3,8.6,1.3,8.6,2.2,17.3c-0.6,17.3-0.6,17.3-1.5,34.6
				c-2.4,16.7-2.6,16.7-5.2,33.3c-1.7,7.9-1.6,7.9-3.4,15.6c-2.8,8.8-2.7,8.9-5.8,17.5c-4.2,7.4-4.2,7.5-8.8,14.7"/>
			<path id="XMLID_289_" class="st1" d="M375.1,145.6c-0.5,1.4-0.5,1.4-0.9,2.8c-0.1,1.2-0.1,1.2-0.2,2.4c0.2,3.5,0.2,3.6,0.4,7.1"
				/>
			<path id="XMLID_288_" class="st1" d="M369.7,375.1c2.6-6.1,2.7-6.2,4.9-12.4c1-7.6,0.9-7.6,1.7-15.2c0.1-6.8,0.1-6.8,0-13.7
				c-0.9-14.6-0.7-14.6-1.8-29.2c-2.5-15.3-2.5-15.4-5.4-30.6"/>
			<path id="XMLID_287_" class="st1" d="M375.1,145.6c0.4-1.4,0.4-1.4,0.9-2.8c1.4-2.6,1.4-2.6,2.9-5.2c2.6-3.5,2.6-3.5,5.3-7
				c3.8-3.8,3.8-3.8,7.7-7.4c3-2.3,3-2.3,6.2-4.5"/>
			<path id="XMLID_286_" class="st1" d="M398.7,218.7c-1.4-2.6-1.4-2.6-2.8-5.1c-2-3.4-2-3.4-4-6.8c-0.3-0.6-0.3-0.6-0.5-1.2
				c-0.2-0.6-0.2-0.6-0.3-1.2c0-0.6,0-0.6,0-1.2"/>
			<path id="XMLID_285_" class="st1" d="M391,203.3c-0.2,1.5-0.2,1.5-0.5,3c-1,2.8-1,2.8-2.1,5.7c-0.3,0.5-0.3,0.5-0.6,1"/>
			<path id="XMLID_284_" class="st1" d="M403.6,369.2c-0.2-0.6-0.2-0.6-0.3-1.1c0-0.6,0-0.6,0-1.2c0.1-0.5,0.1-0.5,0.3-1"/>
			<path id="XMLID_283_" class="st1" d="M403.6,365.8c3.7-10.1,3.7-10.1,7.4-20.1c0.2-0.4,0.2-0.4,0.3-0.8c0.2-0.3,0.2-0.3,0.5-0.6"
				/>
			<path id="XMLID_282_" class="st1" d="M429.8,377.8c-1.3-0.3-1.3-0.3-2.6-0.6c-1.2-0.2-1.2-0.2-2.3-0.3c-0.8,0-0.8,0-1.6,0
				c-0.7,0.1-0.7,0.1-1.4,0.3c-4.3,1.5-4.3,1.4-8.6,3c-2.7,1.4-2.7,1.4-5.5,2.9"/>
			<path id="XMLID_281_" class="st1" d="M414.9,270.3c0.1-8.4,0.1-8.4,0.2-16.8c0-1.4-0.1-1.4-0.1-2.8c0.1-0.6,0.1-0.6,0.1-1.1
				c0.1-0.5,0.1-0.5,0.3-1"/>
			<path id="XMLID_280_" class="st1" d="M418.5,247.9c0.4,0.3,0.4,0.3,0.7,0.7c0.3,0.5,0.3,0.5,0.5,1c0.9,2.1,0.9,2.1,1.7,4.2
				c0.4,1.3,0.4,1.3,0.8,2.7c0.1,1.4,0.1,1.4,0.2,2.7c-0.1,1.3-0.1,1.3-0.3,2.7c-1.2,5.4-1.2,5.4-2.4,10.8"/>
			<path id="XMLID_279_" class="st1" d="M442.6,185.8c0.1,0.7,0.1,0.7,0.2,1.4c-0.1,1.3-0.1,1.3-0.2,2.6c-0.4,1.4-0.4,1.4-0.8,2.7
				c-0.6,1.3-0.6,1.3-1.2,2.6c-1.8,3.6-1.9,3.6-3.6,7.2c-2.7,7.8-2.7,7.8-5.2,15.7c-2.2,9.8-2.2,9.8-4.3,19.6
				c-0.2,0.5-0.2,0.5-0.4,1"/>
			<path id="XMLID_278_" class="st1" d="M422.9,237.7c-4.2-10.5-4.2-10.5-8.3-21c-0.5-1.7-0.5-1.7-0.8-3.5c0.1-1.7,0.1-1.7,0.2-3.4"
				/>
			<path id="XMLID_277_" class="st1" d="M422.5,203.1c1-0.6,1-0.6,2.1-1.2c0.4-0.3,0.4-0.4,0.8-0.7c0.3-0.4,0.3-0.4,0.6-0.8
				c0.2-0.4,0.2-0.4,0.3-0.8c0.1-0.4,0.1-0.4,0.1-0.9c0-0.8,0-0.8,0-1.6c0.1-1.8,0.1-1.8,0.3-3.7c0.4-1.6,0.4-1.6,1-3.3
				c0.8-1.4,0.8-1.4,1.7-2.8"/>
			<path id="XMLID_276_" class="st1" d="M429.3,385c-0.3,0.2-0.3,0.2-0.5,0.3c-1.1,0.9-1.1,0.8-2.2,1.7c-1,1.1-1,1.2-2,2.3
				c-0.8,1.1-0.8,1.1-1.5,2.2c-1.4,1.8-1.4,1.8-2.9,3.6"/>
			<path id="XMLID_275_" class="st1" d="M445.7,302.3c-0.5,0.6-0.6,0.6-1.1,1.2c-0.8,0.6-0.8,0.6-1.6,1.1c-4,2.2-4,2.2-8,4.4
				c-6.1,3.2-6.1,3.2-12.1,6.4"/>
			<path id="XMLID_274_" class="st1" d="M422.7,173c2.1-3.9,2.1-3.9,4.3-7.7c2.6-3.5,2.6-3.6,5.3-7c3.8-3.8,3.8-3.7,7.7-7.4
				c3.1-2.4,3.1-2.4,6.3-4.6"/>
			<path id="XMLID_273_" class="st1" d="M424.1,331c-0.3,1.5-0.3,1.5-0.5,3c-0.2,1.6-0.2,1.6-0.3,3.2c0.2,1.6,0.2,1.7,0.4,3.3
				c0.5,1.3,0.5,1.3,1,2.6c0.1,0.2,0.1,0.2,0.2,0.5c0.9,1.3,0.9,1.4,1.9,2.7c0.7,0.8,0.7,0.8,1.4,1.5c0.4,0.3,0.4,0.3,0.8,0.5"/>
			<path id="XMLID_272_" class="st1" d="M430.2,348.5c0.9,0,0.9,0,1.8-0.1c1.4-0.5,1.4-0.5,2.7-1.2c1.3-1,1.3-1,2.6-2.1"/>
			<path id="XMLID_271_" class="st1" d="M442.4,321.5c-1.8-0.4-1.8-0.4-3.6-0.8c-1.1-0.1-1.1-0.1-2.2-0.2c-0.8,0-0.8,0-1.5,0.1
				c-0.7,0.2-0.7,0.1-1.3,0.4c-2.9,1.5-2.9,1.5-5.8,3.1"/>
			<path id="XMLID_270_" class="st1" d="M442.2,182.4c0.4,0.2,0.4,0.2,0.8,0.4c0.4,0.1,0.4,0.1,0.9,0.2c1-0.1,1,0,2-0.1
				c1-0.3,1.1-0.4,2.1-0.7c1-0.6,1-0.6,2-1.2c0.9-0.8,0.9-0.8,1.7-1.6c2.2-2.3,2.2-2.4,4.4-4.6c5.9-4.6,5.9-4.7,12-9.2
				c5-2.9,5-2.9,10-5.8"/>
			<path id="XMLID_269_" class="st1" d="M457.5,147.9c-1.2,0.7-1.2,0.7-2.4,1.4c-4,2.8-4.1,2.8-8.1,5.7c-3.9,3.7-3.9,3.7-7.7,7.4
				c-2.7,3.5-2.7,3.5-5.3,7c-1.5,2.6-1.5,2.6-2.9,5.2c-0.5,1.4-0.5,1.4-0.9,2.8"/>
			<path id="XMLID_268_" class="st1" d="M445.8,301c-0.3-0.3-0.3-0.3-0.6-0.5c-0.9-0.4-0.9-0.4-1.9-0.8c-0.7-0.4-0.7-0.4-1.4-0.8
				c-0.7-0.5-0.7-0.5-1.4-1.1c-1.3-1.5-1.3-1.5-2.5-3c-1-1.9-1-1.9-2-3.8c-2.6-6.4-2.6-6.4-5.1-12.9"/>
			<path id="XMLID_267_" class="st1" d="M432.6,262c3.1,8,3.1,8,6.3,16c1,1.9,1,1.9,2,3.8c0.5,0.7,0.5,0.7,1,1.4
				c0.3,0.3,0.3,0.3,0.7,0.6"/>
			<path id="XMLID_266_" class="st1" d="M431.8,254c3.4-15.9,3.4-15.9,7-31.8c2.5-7.9,2.5-7.9,5.2-15.6c2.1-4.3,2.1-4.3,4.3-8.4
				c0.9-1.2,0.9-1.2,1.8-2.4c1.1-1,1.1-1,2.2-2c1.2-0.7,1.2-0.7,2.4-1.4c0.6-0.2,0.6-0.2,1.2-0.4c0.6-0.1,0.6-0.1,1.1-0.2
				c0.5,0,0.5,0,1,0.1c0.4,0.1,0.4,0.1,0.9,0.3"/>
			<path id="XMLID_265_" class="st1" d="M437,190.6c-0.1-0.5-0.1-0.5-0.2-1.1c-0.2-0.4-0.2-0.4-0.4-0.9c-0.3-0.4-0.3-0.4-0.5-0.7
				c-0.3-0.3-0.3-0.3-0.7-0.5c-0.7-0.3-0.7-0.3-1.4-0.6"/>
			<path id="XMLID_264_" class="st1" d="M435.4,403.9c-0.3-1.2-0.3-1.3-0.5-2.6c0.1-1.4,0.1-1.4,0.3-2.8c0.3-0.8,0.3-0.8,0.7-1.5
				c0.3-0.5,0.3-0.5,0.6-0.9c1-1.1,1-1.2,2-2.3c1.1-0.9,1.1-0.8,2.2-1.7c0.3-0.2,0.3-0.2,0.5-0.3"/>
			<path id="XMLID_263_" class="st1" d="M441.9,391.3c0.3,1,0.3,1,0.6,2c1.2,2.6,1.3,2.6,2.6,5.2c1.6,3.9,1.6,3.9,3.1,7.9"/>
			<path id="XMLID_262_" class="st1" d="M442.6,185.8c-0.1-0.3-0.1-0.3-0.2-0.6c-0.2-0.4-0.2-0.4-0.5-0.7c-0.3-0.3-0.3-0.3-0.7-0.6"
				/>
			<path id="XMLID_261_" class="st1" d="M457.6,213.3c0.6-1.6,0.6-1.6,1.2-3.1c0.1-0.4,0.1-0.4,0.2-0.8c0.2-2.3,0.3-2.4,0.4-4.7
				c-0.2-1.3-0.2-1.4-0.5-2.7"/>
			<path id="XMLID_260_" class="st1" d="M457.9,200.1c-1.1-0.9-1.1-0.9-2.3-1.8c-1.9-1.2-2-1.1-3.9-2.2c-0.4-0.2-0.4-0.2-0.8-0.3
				c-0.4-0.1-0.4-0.1-0.9-0.1"/>
			<path id="XMLID_259_" class="st1" d="M458.2,397.4c1-11.6,1-11.6,2.1-23.2c0-0.4,0-0.4,0-0.9c-0.1-0.5-0.1-0.5-0.1-1"/>
			<path id="XMLID_258_" class="st1" d="M456.9,187.2c0.3-1,0.3-1,0.7-2c0.6-0.9,0.6-0.9,1.2-1.8c2.2-2.3,2.2-2.4,4.4-4.6
				c6-4.6,6-4.6,12-9.2c2.6-1.6,2.6-1.6,5.2-3"/>
			<path id="XMLID_257_" class="st1" d="M458.8,192c1.9,1.1,1.9,1.1,3.9,2.2c1.3,0.6,1.3,0.6,2.7,1.2c1.3,0.5,1.3,0.5,2.6,1
				c1.7,0.7,1.7,0.7,3.4,1.4c3.7,1.6,3.7,1.6,7.3,3.3"/>
			<path id="XMLID_256_" class="st1" d="M474,421c-0.7-10.1-0.7-10.2-1.1-20.3c1-9.8,1.1-9.8,2.4-19.5c1.6-7.8,1.6-7.8,3.4-15.6
				c4.4-15.6,4.3-15.7,8.9-31.2c6-14.3,6-14.3,12.3-28.4c4-5.7,4.1-5.8,8.4-11.2"/>
			<path id="XMLID_255_" class="st1" d="M508.4,294.8c5.4-3.3,5.4-3.3,10.9-6.5c2-0.6,2.1-0.6,4.2-1c4-0.4,4-0.4,8-0.8
				c1.4-0.2,1.4-0.2,2.8-0.4"/>
			<path id="XMLID_254_" class="st1" d="M534.3,286.1c-2,0.4-2,0.4-3.9,0.9c-3.8,1.2-3.8,1.2-7.6,2.5c-1,0.4-1,0.4-1.9,0.8
				c-3,1.4-3,1.4-6,2.8c-0.9,0.5-0.9,0.5-1.8,1c-2.3,1.4-2.3,1.4-4.6,2.9c-0.7,0.5-0.7,0.5-1.3,1c-1.5,1.5-1.5,1.5-3,3
				c-0.4,0.7-0.4,0.7-0.8,1.4"/>
			<path id="XMLID_253_" class="st1" d="M481.9,308.7c1.2-5.4,1.2-5.4,2.4-10.8c0.4-1.2,0.4-1.2,0.8-2.4c0.6-1,0.6-1,1.2-1.9"/>
			<path id="XMLID_252_" class="st1" d="M486.4,293.6c0.8-0.7,0.8-0.7,1.6-1.3c1.5-0.8,1.5-0.8,2.9-1.6c0.4-0.1,0.4-0.1,0.7-0.2"/>
			<path id="XMLID_251_" class="st1" d="M493.3,291.2c0.3,0.4,0.3,0.4,0.6,0.9c0.2,0.5,0.2,0.5,0.4,1c0.1,0.6,0.1,0.6,0.2,1.1
				c0,0.5,0,0.6-0.1,1.1c-0.2,0.5-0.2,0.5-0.4,0.9c-0.6,1.1-0.6,1-1.2,2.1c-3.2,6.7-3.2,6.7-6.4,13.4"/>
			<path id="XMLID_250_" class="st1" d="M490.6,269.1c-0.5,2.3-0.5,2.3-1,4.5c-0.1,0.6-0.1,0.6-0.1,1.1c0.1,0.6,0.1,0.6,0.2,1.1
				c0.2,0.5,0.2,0.5,0.4,1c0.3,0.4,0.3,0.4,0.6,0.8"/>
			<path id="XMLID_249_" class="st1" d="M493.1,278.2c7.3-3.9,7.3-3.9,14.6-7.7c2.9-1.6,2.9-1.6,5.8-3.2c4-2.2,4-2.2,8-4.5"/>
			<path id="XMLID_248_" class="st1" d="M499.8,173.9c0.4,1.3,0.4,1.4,0.7,2.7c-0.1,2-0.1,2-0.3,4c-0.2,0.8-0.2,0.8-0.5,1.6"/>
			<path id="XMLID_247_" class="st1" d="M505.5,304.8c0.3,1.2,0.3,1.3,0.5,2.6c0.1,3.2,0.1,3.2,0.2,6.3c0.1,0.6,0.1,0.6,0.2,1.2
				c1.1,2.2,1.1,2.1,2.2,4.3c0.3,0.5,0.3,0.5,0.7,1c2.2,1.8,2.2,1.8,4.3,3.5c0.4,0.2,0.4,0.2,0.8,0.5c2.9,1.2,2.9,1.3,5.8,2.4
				c3.4,0.7,3.4,0.7,6.8,1.2c3.6,0,3.6,0,7.1-0.2c3.3-0.7,3.3-0.7,6.6-1.5c2.7-1.2,2.7-1.3,5.5-2.7c0.4-0.2,0.4-0.2,0.9-0.5
				c1.9-1.8,1.9-1.8,3.8-3.7c0.3-0.5,0.3-0.5,0.7-1c0.8-2.2,0.8-2.2,1.6-4.4c0.1-0.7,0.1-0.7,0.3-1.3c0-2,0-2-0.1-4.1"/>
			<path id="XMLID_246_" class="st1" d="M519,258.9c0.3-1,0.3-1,0.5-2c0.2-3.4,0.2-3.4,0.3-6.8c-0.1-0.9-0.1-0.9-0.2-1.9
				c-0.8-2.6-0.8-2.7-1.6-5.3c-1.8-3.2-1.9-3.2-3.8-6.3c-2.8-3.4-2.9-3.3-5.8-6.7c-0.7-0.6-0.7-0.6-1.4-1.1
				c-0.5-0.2-0.5-0.2-0.9-0.3"/>
			<path id="XMLID_245_" class="st1" d="M510.3,224.9c0.3-0.1,0.4-0.1,0.7-0.1c0.5,0,0.5,0,0.9,0.1c0.4,0.1,0.4,0.1,0.9,0.3"/>
			<path id="XMLID_244_" class="st1" d="M509.2,221.1c3.1,2.3,3.1,2.3,6.2,4.7c2.9,3.3,2.9,3.3,5.8,6.7c1.3,2,1.3,2,2.4,4"/>
			<path id="XMLID_243_" class="st1" d="M512,219.1c0.3-1,0.3-1,0.7-2c0.6-0.9,0.6-0.9,1.2-1.8c2.2-2.3,2.2-2.4,4.4-4.6
				c6-4.6,6-4.6,12-9.2c4.9-2.9,5-2.9,10-5.8"/>
			<path id="XMLID_242_" class="st1" d="M560.8,207.5c-1.2,0.7-1.2,0.7-2.4,1.4c-4.1,2.8-4.1,2.8-8.1,5.7c-3.9,3.7-3.9,3.7-7.7,7.4
				c-2.7,3.5-2.7,3.5-5.3,7c-2.9,5.1-2.9,5.2-5.8,10.3c-1.6,2.6-1.6,2.6-3.3,5.2"/>
			<path id="XMLID_241_" class="st1" d="M529.7,267.2c0-5.3,0-5.3,0-10.6c-0.1-2-0.1-2-0.3-4c-0.5-4.1-0.5-4.1-1.1-8.2"/>
			<path id="XMLID_240_" class="st1" d="M556.3,300.3c-0.4-1.1-0.4-1.1-0.8-2.1c-0.8-1.4-0.8-1.4-1.7-2.7c-0.9-1-0.9-1-1.9-1.9
				c-1.6-1.2-1.6-1.2-3.2-2.3c-1.4-0.7-1.4-0.7-2.8-1.4c-2.2-0.8-2.2-0.8-4.4-1.6c-2.5-0.6-2.5-0.6-5.1-1.1
				c-2.3-0.3-2.4-0.3-4.7-0.4"/>
			<path id="XMLID_239_" class="st1" d="M540.7,241.2c-0.5,1.4-0.5,1.4-0.8,2.8c-0.1,3.6-0.1,3.6-0.1,7.1c0.1,1.2,0.1,1.2,0.3,2.3"
				/>
			<path id="XMLID_238_" class="st1" d="M540.7,241.2c0.4-1.4,0.4-1.4,0.9-2.8c1.4-2.6,1.4-2.7,2.9-5.2c2.6-3.5,2.6-3.6,5.3-7
				c3.8-3.7,3.8-3.7,7.7-7.4c3-2.3,3-2.3,6.1-4.5"/>
			<path id="XMLID_237_" class="st1" d="M582.5,278c2.2-3.4,2.2-3.4,4.4-6.9c2.9-5.1,2.8-5.2,5.8-10.3c2.6-3.5,2.6-3.5,5.3-7
				c3.8-3.8,3.8-3.8,7.7-7.4c3.1-2.4,3.1-2.4,6.3-4.6"/>
			<path id="XMLID_236_" class="st1" d="M320.6,208.1v-6.7v2.7"/>
			<path id="XMLID_235_" class="st1" d="M320.6,201.4v-3.2v1.9"/>
			<path id="XMLID_234_" class="st1" d="M320.6,198.2v-28.7v3.2"/>
			<path id="XMLID_233_" class="st1" d="M320.6,169.6v-27"/>
			<path id="XMLID_232_" class="st1" d="M320.6,144.1v-5.6"/>
			<path id="XMLID_231_" class="st1" d="M320.6,140.9v-6.4"/>
			<path id="XMLID_230_" class="st1" d="M330.6,90v-3.2v16.8"/>
			<path id="XMLID_229_" class="st1" d="M330.6,86.8V74.5"/>
			<path id="XMLID_228_" class="st1" d="M330.6,77.3v-0.9"/>
			<path id="XMLID_227_" class="st1" d="M332.9,186.1l26.4-15.3"/>
			<path id="XMLID_226_" class="st1" d="M332.9,120.6l12.1-7"/>
			<path id="XMLID_225_" class="st1" d="M333.4,106.8l16.4,9.4"/>
			<path id="XMLID_224_" class="st1" d="M333.4,98.6l19.4-11.2"/>
			<path id="XMLID_223_" class="st1" d="M333.4,71.3l19.4-11.2"/>
			<path id="XMLID_222_" class="st1" d="M337,85.3l0.2,0.5l1.2,1.2"/>
			<path id="XMLID_221_" class="st1" d="M347.7,71.9l-1.5-0.7l-0.9,0.1"/>
			<path id="XMLID_220_" class="st1" d="M340.5,72.2l2-1l0.7-0.1l1-0.1l1.3,0.7"/>
			<path id="XMLID_219_" class="st1" d="M337.3,85.1l-1.1-1l-0.2-0.5l0.4,1l2.3,2.1"/>
			<path id="XMLID_218_" class="st1" d="M336,83.6l-0.4-1.4l0,0.4L336,83.6"/>
			<path id="XMLID_217_" class="st1" d="M342.6,71.1l2.1-0.1l0.8,0.3l0.4,0"/>
			<path id="XMLID_216_" class="st1" d="M339.5,211.7l0.9,1.4"/>
			<path id="XMLID_215_" class="st1" d="M340.5,101.9l-0.4,0.3l19.8-11.4l20.2,11.6l-20.1,11.6l-20-11.5l-0.1-0.1l0.3-0.1l-0.6,0.3
				l-0.7,0.2"/>
			<path id="XMLID_214_" class="st1" d="M346.9,98.3l3.2-1.8"/>
			<path id="XMLID_213_" class="st1" d="M349.9,222.7l3.8-8.2l14.2-2.2l10.4,6l-3.8,8.2l-14.2,2.2L349.9,222.7"/>
			<path id="XMLID_212_" class="st1" d="M349.8,138.1l43.1-24.9l-8.1,5.7l-7.7,7.4"/>
			<path id="XMLID_211_" class="st1" d="M355.4,243.7l43.3-25"/>
			<path id="XMLID_210_" class="st1" d="M382.1,367.9l-0.5,0.3l3.3,3.9L382.1,367.9"/>
			<path id="XMLID_209_" class="st1" d="M360.3,228.7l0.3-6v-9.2"/>
			<path id="XMLID_208_" class="st1" d="M362.7,167.3l60.9,35.1"/>
			<path id="XMLID_207_" class="st1" d="M359.9,90.5v0.3v23.1"/>
			<path id="XMLID_206_" class="st1" d="M362.8,92.4l-2.9-1.6"/>
			<path id="XMLID_205_" class="st1" d="M359.9,85.8V58.4"/>
			<path id="XMLID_204_" class="st1" d="M364.1,162.7v-5.4"/>
			<path id="XMLID_203_" class="st1" d="M367.6,141.3l7.5,4.3"/>
			<path id="XMLID_202_" class="st1" d="M367,87.5l136.3,78.7"/>
			<path id="XMLID_201_" class="st1" d="M367,60.1l298.5,172.4"/>
			<path id="XMLID_200_" class="st1" d="M382,381.8l-11.8,6.8"/>
			<path id="XMLID_199_" class="st1" d="M369.7,96.4l2.6,1.5"/>
			<path id="XMLID_198_" class="st1" d="M374.5,226.5l-0.7-5.9v-4.9"/>
			<path id="XMLID_197_" class="st1" d="M374.1,150v2.5"/>
			<path id="XMLID_196_" class="st1" d="M378.6,101.5l1.6,0.9l0.7,0.2"/>
			<path id="XMLID_195_" class="st1" d="M380.2,401l71,41"/>
			<path id="XMLID_194_" class="st1" d="M387.8,212.7l-0.1,0.7"/>
			<path id="XMLID_193_" class="st1" d="M419.3,145.4l-31.7-18.3"/>
			<path id="XMLID_192_" class="st1" d="M392.1,394.2l71,41"/>
			<path id="XMLID_191_" class="st1" d="M392.2,371.7l1.2-0.7"/>
			<path id="XMLID_190_" class="st1" d="M411.8,344.4l0.6-0.3l2.4-0.2"/>
			<path id="XMLID_189_" class="st1" d="M405.1,371.2l7.7-1.8"/>
			<path id="XMLID_188_" class="st1" d="M406.7,371.1l17.6-5.2l0.6-0.3l0.2-0.3l0.4-1.1"/>
			<path id="XMLID_187_" class="st1" d="M419.6,325.7l-2.2,10.1l-7.7,1.2l-5.5-8.9l2.2-10.1l7.7-1.2L419.6,325.7l-12.5,7.2"/>
			<path id="XMLID_186_" class="st1" d="M414,316.8l-8.5,4.9"/>
			<path id="XMLID_185_" class="st1" d="M407,118.7l38.7,22.3"/>
			<path id="XMLID_184_" class="st1" d="M420.6,367.1L409,351"/>
			<path id="XMLID_183_" class="st1" d="M416.2,344.2l-5.9,3.4"/>
			<path id="XMLID_182_" class="st1" d="M414.8,207.6l1.9-1.1L414.8,207.6l-1.4,1.2"/>
			<path id="XMLID_181_" class="st1" d="M415.5,248.6l0.6-0.7l0.7-0.4h0.8l0.8,0.4"/>
			<path id="XMLID_180_" class="st1" d="M422.3,257.9l-7.2,4.2"/>
			<path id="XMLID_179_" class="st1" d="M453.5,192.8l-1.2,0.7l1.8-1.1l-11.6-6.7"/>
			<path id="XMLID_178_" class="st1" d="M427,238.7l-0.6,0.7l-0.7,0.4h-0.8l-0.8-0.4l-0.7-0.7l-0.5-1"/>
			<path id="XMLID_177_" class="st1" d="M414,209.8l0.9-2.3"/>
			<path id="XMLID_176_" class="st1" d="M424.8,359.8l-7.5-14.3"/>
			<path id="XMLID_175_" class="st1" d="M419.4,310.6l1.1,1.8"/>
			<path id="XMLID_174_" class="st1" d="M419.3,311.9l0.1-1.1l7.2-32.7l0.4-1"/>
			<path id="XMLID_173_" class="st1" d="M417.2,206.2l-0.4,0.2l5.8-3.4l-2.6,0.8"/>
			<path id="XMLID_172_" class="st1" d="M429.3,187.3l0.1-7l0.8-2.8l-7.7-4.4l-1.4,2.5l-4.3,6.9"/>
			<path id="XMLID_171_" class="st1" d="M419.3,145.4v33.2"/>
			<path id="XMLID_170_" class="st1" d="M425.6,361.4l0.2,0.5v0.7l-0.3,1.7l-3.4,1.9"/>
			<path id="XMLID_169_" class="st1" d="M419.3,145.4l16.9-9.8"/>
			<path id="XMLID_168_" class="st1" d="M435.6,397.5l-11.9-6.9"/>
			<path id="XMLID_167_" class="st1" d="M424.9,365.9l0.6,0"/>
			<path id="XMLID_166_" class="st1" d="M424.8,365.7L424.8,365.7"/>
			<path id="XMLID_165_" class="st1" d="M426.5,361.3l-0.4-0.2"/>
			<path id="XMLID_164_" class="st1" d="M429,348.2l1.2,0.3"/>
			<path id="XMLID_163_" class="st1" d="M423.6,314.5l20.5-11.8"/>
			<path id="XMLID_162_" class="st1" d="M428.7,276.1l-1.6,1"/>
			<path id="XMLID_161_" class="st1" d="M429.3,187.3l0.6-1.3l1.2-1.3l3.8-1.9h5.8l6.2,2.5l-4.7-2.7"/>
			<path id="XMLID_160_" class="st1" d="M478.1,159.8l-20.5-11.8"/>
			<path id="XMLID_159_" class="st1" d="M442.6,283.9l1,0.5l1.4,0.1l2.2-0.6l0.3-0.2l-0.3,0.2"/>
			<path id="XMLID_158_" class="st1" d="M458.8,192l-0.7-0.5l-0.5-0.7l-0.7-1.7v-1.9v0.8"/>
			<path id="XMLID_157_" class="st1" d="M442.8,187.2l-5.8,3.3"/>
			<path id="XMLID_156_" class="st1" d="M433.7,186.8h-4.2"/>
			<path id="XMLID_155_" class="st1" d="M432.5,183.9l-1.6,0.9"/>
			<path id="XMLID_154_" class="st1" d="M432.9,381.8l11.8,6.8"/>
			<path id="XMLID_153_" class="st1" d="M435.5,377.2l74-196.4l0.7-2.3"/>
			<path id="XMLID_152_" class="st1" d="M436.3,195.6l0.7-2.7v-2.4v1.2"/>
			<path id="XMLID_151_" class="st1" d="M441.2,183.9l-0.8-0.3l-0.9-0.1l2.8,0.1l2,0.5"/>
			<path id="XMLID_150_" class="st1" d="M443.7,159.4l-0.8-0.4"/>
			<path id="XMLID_149_" class="st1" d="M454.3,399.5l-7.5-14.3"/>
			<path id="XMLID_148_" class="st1" d="M447.3,384l5.3-13.9l4.3-2.4"/>
			<path id="XMLID_147_" class="st1" d="M447.5,283.7l3-1.8l0.8-0.7"/>
			<path id="XMLID_146_" class="st1" d="M446.9,182.5v-21.1"/>
			<path id="XMLID_145_" class="st1" d="M458.9,202l-1.1-1.9"/>
			<path id="XMLID_144_" class="st1" d="M446.9,161.3l16.9-9.8"/>
			<path id="XMLID_143_" class="st1" d="M456.8,400l0.7-0.7l0.5-0.9l0.2-1.1"/>
			<path id="XMLID_142_" class="st1" d="M460.2,372.4l-6,3.5"/>
			<path id="XMLID_141_" class="st1" d="M452.6,370.1l68.7-182.5l0.7-2.3"/>
			<path id="XMLID_140_" class="st1" d="M453.3,368.1l2.1-0.6"/>
			<path id="XMLID_139_" class="st1" d="M458,368.8l1.8,2.6l0.3,0.9"/>
			<path id="XMLID_138_" class="st1" d="M459.6,442.8l11.8-6.8"/>
			<path id="XMLID_137_" class="st1" d="M474.7,357.5l-2.2,10.1l-7.7,1.2l-5.5-8.9l2.2-10.1l7.7-1.2L474.7,357.5l-12.5,7.2"/>
			<path id="XMLID_136_" class="st1" d="M469.2,348.6l-8.6,4.9"/>
			<path id="XMLID_135_" class="st1" d="M459.2,207.1l14.3-8.3"/>
			<path id="XMLID_134_" class="st1" d="M464.3,412l-1.2,0.7"/>
			<path id="XMLID_133_" class="st1" d="M467,339.5l0.4-1l4.1-18.5"/>
			<path id="XMLID_132_" class="st1" d="M470.2,421.4l3.8-0.4l-0.5,0.3l-3.7,0.1"/>
			<path id="XMLID_131_" class="st1" d="M503.4,302.5l-0.7,3.5l0.2,1.3l0.7,2"/>
			<path id="XMLID_130_" class="st1" d="M475.4,174l13.5-7.8"/>
			<path id="XMLID_129_" class="st1" d="M491.7,290.6l0.9,0.2l0.8,0.5"/>
			<path id="XMLID_128_" class="st1" d="M490.7,277.7l0.8,0.5l0.8,0.2l0.8-0.2"/>
			<path id="XMLID_127_" class="st1" d="M521.6,262.8l-0.9,0.5"/>
			<path id="XMLID_126_" class="st1" d="M489.9,166.6l6.3,3.6l2.3,1.8l1.3,1.8"/>
			<path id="XMLID_125_" class="st1" d="M503.2,303.4l0.9,3.2l2,2.4"/>
			<path id="XMLID_124_" class="st1" d="M505.1,307.3l0.9,1.4"/>
			<path id="XMLID_123_" class="st1" d="M553.4,308.5l0,0.2"/>
			<path id="XMLID_122_" class="st1" d="M507.8,223.5l2.6,1.5l-1.4,0.5l-2.3,1.3"/>
			<path id="XMLID_121_" class="st1" d="M512.8,225.2l0.7,0.5l0.5,0.7l-1.3-2.2l-1.5-1.7"/>
			<path id="XMLID_120_" class="st1" d="M513.8,223.7l-4.6-2.6"/>
			<path id="XMLID_119_" class="st1" d="M523.6,236.4l-7.1,4.1"/>
			<path id="XMLID_118_" class="st1" d="M513.9,223.8l-0.7-0.5l-0.5-0.7L512,221v-1.9v1"/>
			<path id="XMLID_117_" class="st1" d="M540.3,195.7l20.5,11.8"/>
			<path id="XMLID_116_" class="st1" d="M528.3,244.4l-1.7-2.6l-3.1-5.3"/>
			<path id="XMLID_115_" class="st1" d="M522,185.3l-11.8-6.8"/>
			<path id="XMLID_114_" class="st1" d="M517.1,319.2l8.8,5.1l14.2-2.2l3.8-8.2l-10.4-6l-14.2,2.2l-3.8,8.2L517.1,319.2"/>
			<path id="XMLID_113_" class="st1" d="M528.4,194.3l-5.2,3l-7.8,6"/>
			<path id="XMLID_112_" class="st1" d="M520.5,269l9.2-5.3l60.9,35.2"/>
			<path id="XMLID_111_" class="st1" d="M519.7,252.3V250"/>
			<path id="XMLID_110_" class="st1" d="M526.4,207.2l-2-1.2"/>
			<path id="XMLID_109_" class="st1" d="M522,185.2l6.4,3.7"/>
			<path id="XMLID_108_" class="st1" d="M525.9,324.3l0.3-6v-9.2"/>
			<path id="XMLID_107_" class="st1" d="M529.7,242.3v-33.2"/>
			<path id="XMLID_106_" class="st1" d="M530.3,192.2V192"/>
			<path id="XMLID_105_" class="st1" d="M529.3,181.1l136.3,78.7"/>
			<path id="XMLID_104_" class="st1" d="M553.4,309.1l2.6-3.8l0.3-2.2l0-2.9"/>
			<path id="XMLID_103_" class="st1" d="M534.3,286.1l0.1-0.1"/>
			<path id="XMLID_102_" class="st1" d="M533,236.8l7.7,4.4"/>
			<path id="XMLID_101_" class="st1" d="M529.7,209.1l16.9-9.8"/>
			<path id="XMLID_100_" class="st1" d="M540.1,322.1l-0.7-5.9v-4.9"/>
			<path id="XMLID_99_" class="st1" d="M553.2,306.2l0.1,2.3l0.1-0.3l1.4-2.1"/>
			<path id="XMLID_98_" class="st1" d="M584.9,241l-31.7-18.3"/>
			<path id="XMLID_97_" class="st1" d="M560.8,317.7l26.4-15.3"/>
			<path id="XMLID_96_" class="st1" d="M611.3,236.7l-38.7-22.3"/>
			<path id="XMLID_95_" class="st1" d="M584.9,274.1V241"/>
			<path id="XMLID_94_" class="st1" d="M588.3,268.6l7.3,4.3"/>
			<path id="XMLID_93_" class="st1" d="M584.9,241l16.9-9.8"/>
			<path id="XMLID_92_" class="st1" d="M592,294.2v-5.4"/>
			<path id="XMLID_91_" class="st1" d="M605,258l7.7-7.4l8.1-5.7"/>
			<path id="XMLID_90_" class="st1" d="M613.2,239.4v-0.2"/>
			<path id="XMLID_89_" class="st1" d="M631.9,279.2l-16.4-9.4"/>
			<path id="XMLID_88_" class="st1" d="M660.1,263.8l-0.7-0.2l-0.5-0.3l0.3,0.1l-20.1,11.6l-20.1-11.6l1.2-0.7l-0.9,0.5"/>
			<path id="XMLID_87_" class="st1" d="M618,263.8l0.7-0.2l0.6-0.3"/>
			<path id="XMLID_86_" class="st1" d="M620.1,262.8l9.5-5.5l-2.4,1.4"/>
			<path id="XMLID_85_" class="st1" d="M629.6,257.3l9.5-5.4l0,0.1v23.1"/>
			<path id="XMLID_84_" class="st1" d="M639,251.9l0.1,0l-0.1-0.3"/>
			<path id="XMLID_83_" class="st1" d="M639.1,251.9l19.7,11.3l-0.6-0.3"/>
			<path id="XMLID_82_" class="st1" d="M665.5,268l-19.4,11.2"/>
			<path id="XMLID_81_" class="st1" d="M648.7,257.4l2.2,1.3"/>
			<path id="XMLID_80_" class="st1" d="M658.9,263.3L658.9,263.3"/>
			<path id="XMLID_79_" class="st1" d="M668.4,235.7V263"/>
			<path id="XMLID_78_" class="st1" d="M498.5,317.7l-3.1-1.2"/>
			<path id="XMLID_77_" class="st1" d="M330.6,74.5v1.8"/>
			<path id="XMLID_76_" class="st1" d="M668.4,235.7l-1-1.7l-1.8-1.4"/>
			<path id="XMLID_75_" class="st1" d="M522.2,185.3c0-4.5,3.1-6.4,7.1-4.1c0,0,0,0,0,0"/>
			<path id="XMLID_74_" class="st1" d="M457.9,412c3.6-2.4,8.4,0,10.7,5.2c0.6,1.2,0.9,2.6,1.1,4"/>
			<path id="XMLID_73_" class="st1" d="M599.5,265.3c6.1,0.4,11.7,1.9,16.1,4.4"/>
			<path id="XMLID_72_" class="st1" d="M447.3,384.1c-1.3,3.3-3.6,6.3-6.2,7.8"/>
			<path id="XMLID_71_" class="st1" d="M459.6,442.8c-2.2,1.3-5.2,1-8.4-0.8"/>
			<path id="XMLID_70_" class="st1" d="M455.4,367.5c0.9-0.3,1.9,0.3,2.6,1.3"/>
			<path id="XMLID_69_" class="st1" d="M457.9,412c3.1-1.5,8,1.6,10.9,6.9c0.4,0.7,0.7,1.5,1,2.3"/>
			<path id="XMLID_68_" class="st1" d="M332.9,222.1c-17.2-9.9-17.2-26,0-36"/>
			<path id="XMLID_67_" class="st1" d="M592,288.8c0-10,5.1-22.1,13-30.8"/>
			<path id="XMLID_66_" class="st1" d="M320.6,142.5c-2.2-8,2.4-16.2,12.4-22"/>
			<path id="XMLID_65_" class="st1" d="M330.6,74.5c0.3-1.2,1.3-2.3,2.8-3.2"/>
			<path id="XMLID_64_" class="st1" d="M385.3,372.4c2-3.1,6.7-2,10.4,2.5c1.3,1.5,2.3,3.4,3,5.2"/>
			<path id="XMLID_63_" class="st1" d="M592,294.2c0,3-2.1,6.7-4.7,8.2c0,0,0,0,0,0"/>
			<path id="XMLID_62_" class="st1" d="M445.7,141.1c2.4,1.4,2.6,3.6,0.5,5.1"/>
			<path id="XMLID_61_" class="st1" d="M352.8,60.1c3.9-2.3,10.3-2.3,14.2,0"/>
			
				<ellipse id="XMLID_60_" transform="matrix(-0.866 0.5 -0.5 -0.866 1074.8022 555.0469)" class="st1" cx="463" cy="421.5" rx="3.3" ry="5.7"/>
			<path id="XMLID_59_" class="st1" d="M646.1,279.2c-3.9,2.3-10.3,2.3-14.2,0"/>
			<path id="XMLID_58_" class="st1" d="M473.5,421.3c3,8.4,0.7,15.4-5.1,15.5c-1.7,0-3.5-0.5-5.4-1.6"/>
			<path id="XMLID_57_" class="st1" d="M352.8,87.4c3.9-2.3,10.3-2.3,14.2,0"/>
			
				<ellipse id="XMLID_56_" transform="matrix(-0.866 -0.5 0.5 -0.866 596.8174 315.9514)" class="st1" cx="340.7" cy="78" rx="2.5" ry="4.3"/>
			<path id="XMLID_55_" class="st1" d="M414.8,343.9c0.9-0.2,1.9,0.5,2.5,1.6"/>
			<path id="XMLID_54_" class="st1" d="M432.6,262c-1-2.6-1.3-5.5-0.7-8.1"/>
			<path id="XMLID_53_" class="st1" d="M480.4,166.6c2.6-1.5,6.9-1.5,9.5,0c0,0,0,0,0,0"/>
			<path id="XMLID_52_" class="st1" d="M422.8,315.4c-1.1,0.6-2.6-0.2-3.2-1.9c-0.2-0.6-0.3-1.3-0.3-1.9"/>
			<path id="XMLID_51_" class="st1" d="M392.1,394.2c-6.5-3.8-11.8-12.9-11.8-20.5c0-2.2,0.5-4.1,1.3-5.5"/>
			<path id="XMLID_50_" class="st1" d="M424.1,331c0.3-3.2,1.8-5.8,4-7"/>
			<path id="XMLID_49_" class="st1" d="M385.4,372.4c2.9-3.6,7.8-3,11,1.5c1.3,1.8,2.1,4,2.4,6.2"/>
			<path id="XMLID_48_" class="st1" d="M513,323.3c-5.4-1.3-10.4-3.2-14.5-5.6"/>
			<path id="XMLID_47_" class="st1" d="M560.8,317.7c-4.1,2.4-8.9,4.2-14.3,5.5"/>
			<path id="XMLID_46_" class="st1" d="M380.2,401c-6.5-3.8-11.8-12.9-11.8-20.5c0-2.2,0.4-4.1,1.3-5.5"/>
			<path id="XMLID_45_" class="st1" d="M503.3,166.1c3.9,2.3,7.1,7.8,7.1,12.3c0,0.1,0,0.1,0,0.2"/>
			<path id="XMLID_44_" class="st1" d="M370.4,96.8c-1.3,1.3-2.7,1.3-3.1,0.2c-0.2-0.5-0.2-1.2,0-1.9"/>
			<path id="XMLID_43_" class="st1" d="M364.1,162.7c0,3-2.1,6.7-4.7,8.2c0,0,0,0,0,0"/>
			<path id="XMLID_42_" class="st1" d="M333.4,106.8c-3.9-2.3-3.9-5.9,0-8.2"/>
			<path id="XMLID_41_" class="st1" d="M435.5,377.2c-1.3,3.3-3.6,6.3-6.2,7.8"/>
			<path id="XMLID_40_" class="st1" d="M427,277c0.8-1.3,2.2-1.3,3.3,0c0.3,0.3,0.5,0.7,0.7,1.1"/>
			
				<ellipse id="XMLID_39_" transform="matrix(-0.866 0.5 -0.5 -0.866 921.8931 514.0749)" class="st1" cx="392.1" cy="380.5" rx="3.3" ry="5.7"/>
			<path id="XMLID_38_" class="st1" d="M398,118.5c2.7-1.3,6.6-1.2,9,0.2"/>
			<path id="XMLID_37_" class="st1" d="M332.9,222.1c16.6,9.6,31.3,30.6,36.2,51.8"/>
			<path id="XMLID_36_" class="st1" d="M364.1,157.2c0-10,5.1-22.1,13-30.8"/>
			<path id="XMLID_35_" class="st1" d="M419.7,272.7c-0.4,1.6-1.7,2.3-3,1.6c-1.2-0.7-1.9-2.4-1.7-4"/>
			<path id="XMLID_34_" class="st1" d="M665.5,259.8c3.9,2.3,3.9,5.9,0,8.2"/>
			<path id="XMLID_33_" class="st1" d="M349.8,116.3c10.5,6,10.5,15.8,0,21.9c0,0,0,0,0,0"/>
			<path id="XMLID_32_" class="st1" d="M650.1,258.3c-1.5,1.7-3.4,2.1-4.1,0.7c-0.4-0.7-0.4-1.9,0-3.1"/>
			<path id="XMLID_31_" class="st1" d="M528.4,188.8c2.6,1.5,2.6,3.9,0,5.5c0,0,0,0,0,0"/>
			<path id="XMLID_30_" class="st1" d="M486.5,311.8c-0.6,1.5-2,1.9-3.2,0.9c-1.1-0.9-1.6-2.6-1.3-4.1"/>
			<path id="XMLID_29_" class="st1" d="M563.6,214.1c2.7-1.3,6.6-1.2,9,0.2"/>
			<path id="XMLID_28_" class="st1" d="M467.1,339.2c-0.6,1.5-2,1.9-3.2,0.9c0,0,0,0-0.1,0"/>
			<path id="XMLID_27_" class="st1" d="M611.3,236.7c2.4,1.4,2.6,3.6,0.5,5.1"/>
			<path id="XMLID_26_" class="st1" d="M406.7,371.2c-0.9,0.7-2.3-0.1-3.3-1.6c0,0-0.1-0.1-0.1-0.1"/>
			<path id="XMLID_25_" class="st1" d="M456.8,400c-0.6,0.5-1.5,0.3-2.4-0.5"/>
		</g>
		<g>
			<path id="XMLID_24_" class="st1" d="M542.8,520.1c-2.4-0.9-2.4-0.9-4.8-1.9c-1.2-0.5-1.2-0.6-2.4-1.1c-1.4-0.4-1.4-0.4-2.9-0.7
				c-1.5-0.1-1.5-0.1-3.1-0.2c-1.5,0.1-1.5,0.1-3,0.2c-1.4,0.3-1.4,0.3-2.8,0.7c-1.2,0.5-1.2,0.5-2.4,1.1c-0.1,0.1-0.1,0.1-0.2,0.2
				c-0.8,0.6-0.9,0.6-1.6,1.2c-0.6,0.8-0.6,0.8-1.2,1.6"/>
			<path id="XMLID_23_" class="st1" d="M533.2,514.6c2.4,1.8,2.4,1.8,4.8,3.6c0.9,0.7,0.9,0.7,1.8,1.4c0.6,0.8,0.6,0.8,1.2,1.6"/>
			<path id="XMLID_22_" class="st1" d="M541.4,523c0,2.6,0,2.6,0,5.2c-0.2,1.1-0.2,1.1-0.4,2.2c-0.1,0.4-0.1,0.4-0.2,0.9"/>
			<path id="XMLID_21_" class="st1" d="M538.8,533.9c-1.2,0.8-1.2,0.8-2.5,1.5c-0.2,0.1-0.2,0.1-0.5,0.3c-1.5,0.5-1.5,0.5-3,0.9
				c-1.7,0.2-1.7,0.2-3.3,0.3c-1.7-0.1-1.7-0.1-3.3-0.4c-1.5-0.4-1.5-0.5-2.9-0.9c-0.2-0.1-0.2-0.1-0.5-0.3
				c-1.2-0.8-1.2-0.8-2.4-1.6"/>
			<path id="XMLID_20_" class="st1" d="M540.3,530.2c-0.2-0.6-0.2-0.6-0.4-1.2c-0.2-0.4-0.2-0.4-0.4-0.7c-0.5-0.6-0.5-0.6-1.1-1.1
				c-0.4-0.3-0.4-0.3-0.8-0.6c-0.8-0.4-0.8-0.4-1.6-0.9c-0.6-0.2-0.6-0.2-1.1-0.4c-1-0.3-1-0.3-2-0.5c-0.7-0.1-0.7-0.1-1.3-0.2
				c-1.1-0.1-1.1-0.1-2.1-0.1c-0.7,0.1-0.7,0.1-1.4,0.1c-1,0.1-1,0.1-2,0.3c-0.7,0.1-0.7,0.2-1.3,0.3c-0.9,0.3-0.9,0.3-1.7,0.7
				c-0.5,0.3-0.5,0.3-1,0.6c-0.7,0.5-0.7,0.5-1.2,0.9c-0.4,0.4-0.4,0.4-0.7,0.7c-0.3,0.6-0.3,0.6-0.6,1.1c-0.2,0.4-0.2,0.4-0.3,0.8"
				/>
			<path id="XMLID_19_" class="st1" d="M541.4,523.7l1.4-3.6"/>
			<path id="XMLID_18_" class="st1" d="M518.4,521.2l1.8-4.6l6.5-0.2l6.5-1.9"/>
			<path id="XMLID_17_" class="st1" d="M541,521.2l0.4,1.8"/>
			<path id="XMLID_16_" class="st1" d="M540.8,531.2l-0.5,0.7l-1.5,1.9"/>
			<path id="XMLID_15_" class="st1" d="M520.4,533.7l-1.4-2l-0.5-0.7l-0.2-0.9L518,528l-0.1-5l0.4-1.7l-1.8,2.9l1.4,1"/>
			<path id="XMLID_14_" class="st1" d="M533.2,514.6v-6.2l-6.5,0.2l-6.5,1.9l-1.8,2.9l-1.8,4.6v6.2"/>
			<path id="XMLID_13_" class="st1" d="M536.1,535.5l2.4-1.5l1-1.2l0.5-0.7l0.3-1.3l0.1-0.7"/>
			<path id="XMLID_12_" class="st1" d="M519.1,530l0.1,1.2l0.2,0.9l0.8,1.1l0.6,0.8l2.4,1.5"/>
			<path id="XMLID_11_" class="st1" d="M520.1,510.4v6.2"/>
			<path id="XMLID_10_" class="st1" d="M542.8,520.1v-6.2l-4.8-3.6l-4.8-1.9"/>
			<path id="XMLID_9_" class="st1" d="M540.2,512l-0.4-0.3"/>
			<path id="XMLID_8_" class="st1" d="M522.5,509.7c2.6-1.2,6-1.6,9.2-1.3"/>
			<path id="XMLID_7_" class="st1" d="M534.5,508.9c2.3,0.6,4.1,1.6,5.4,2.8"/>
			<path id="XMLID_6_" class="st1" d="M535.1,527.9c0.6,1.7-1.2,3.4-4.2,3.8c-3,0.4-5.9-0.7-6.6-2.4c-0.2-0.4-0.2-0.9,0-1.4"/>
			<path id="XMLID_5_" class="st1" d="M537.4,530c-1.4,2.5-5.9,3.8-10.2,3.1c-2.5-0.5-4.5-1.6-5.3-3.1"/>
			<ellipse id="XMLID_4_" class="st1" cx="529.7" cy="531.5" rx="8.1" ry="4.7"/>
		</g>
		<g>
			<path id="XMLID_3_" class="st2" d="M529.7,308.5v199.8"/>
		</g>
		<g>
			<path id="XMLID_2_" class="st2" d="M364.1,212.9v199.8"/>
		</g>
	</g>
	<g id="XMLID_7702_">
		<path id="XMLID_7936_" class="st3" d="M270,482.8c0,0,59,0.8,81-60.3c-32.9,48-80.4,40.1-80.4,40.1L270,482.8z"/>
		<g id="XMLID_7703_">
			<circle id="XMLID_7777_" class="st4" cx="228.3" cy="469.6" r="54.9"/>
			<g id="XMLID_7545_">
				<g id="XMLID_7627_">
					<path id="XMLID_7701_" class="st5" d="M193.2,449.7c-0.1-0.1-0.1-0.1-0.3-0.3c0-0.1,0-0.1-0.1-0.1c-0.1-0.3-0.1-0.3-0.2-0.6
						c0-0.1,0-0.1,0-0.2c0-0.4,0-0.4,0-0.8c0-0.2,0-0.2,0-0.3c0-0.2,0-0.2,0.1-0.3c0.1-0.4,0.1-0.4,0.3-0.7c0.1-0.2,0.1-0.2,0.1-0.3
						c0.1-0.2,0.1-0.2,0.3-0.5c0.1-0.3,0.1-0.3,0.3-0.5c0.1-0.2,0.1-0.2,0.2-0.4c0.2-0.4,0.2-0.4,0.5-0.7c0.3-0.4,0.3-0.4,0.5-0.7
						c0.4-0.6,0.4-0.6,0.9-1.2c0.4-0.4,0.4-0.4,0.7-0.9c0.3-0.3,0.3-0.3,0.5-0.7c0.6-0.7,0.6-0.7,1.1-1.3c0.3-0.3,0.3-0.3,0.6-0.7
						c0.7-0.8,0.7-0.8,1.4-1.5c0.6-0.6,0.6-0.6,1.2-1.2c0.6-0.6,0.6-0.6,1.2-1.2c0.6-0.6,0.6-0.6,1.2-1.2c0.3-0.3,0.3-0.3,0.6-0.6
						c0.4-0.3,0.4-0.3,0.8-0.7c0.4-0.3,0.4-0.3,0.8-0.6c0.6-0.5,0.6-0.5,1.2-0.9c0.3-0.2,0.3-0.2,0.7-0.5c0.3-0.2,0.3-0.2,0.6-0.5
						c0.2-0.2,0.2-0.2,0.5-0.3c0.2-0.1,0.2-0.1,0.5-0.3c0.1-0.1,0.1-0.1,0.3-0.2c0.2-0.1,0.2-0.1,0.4-0.2c0.4-0.2,0.4-0.2,0.9-0.4
						c0.1,0,0.1,0,0.2-0.1c0.1,0,0.1,0,0.2,0c0.4,0,0.4,0,0.8,0c0.1,0,0.1,0,0.1,0c0.3,0.1,0.3,0.1,0.6,0.2c0.1,0,0.1,0,0.1,0.1
						c0.3,0.2,0.3,0.2,0.6,0.4"/>
					<path id="XMLID_7700_" class="st5" d="M240.8,459.1c0.1,0.3,0.1,0.3,0.1,0.6c0,0.1,0,0.1,0,0.3c0,0.4,0,0.4,0,0.9
						c0,0.2,0,0.2-0.1,0.3c0,0.1,0,0.1-0.1,0.2c-0.2,0.4-0.2,0.4-0.3,0.8c-0.1,0.3-0.1,0.3-0.2,0.5c-0.2,0.3-0.2,0.3-0.3,0.6
						c-0.1,0.2-0.1,0.2-0.2,0.4c-0.2,0.3-0.2,0.3-0.4,0.7c-0.2,0.3-0.2,0.3-0.5,0.7c-0.2,0.2-0.2,0.2-0.3,0.5
						c-0.2,0.3-0.2,0.3-0.5,0.6c-0.3,0.4-0.3,0.4-0.7,0.9c-0.4,0.5-0.4,0.5-0.9,1c-0.2,0.3-0.2,0.3-0.5,0.5c-0.4,0.5-0.4,0.5-0.9,1
						c-0.5,0.5-0.5,0.5-0.9,0.9c-0.5,0.4-0.5,0.4-0.9,0.9c-0.2,0.2-0.2,0.2-0.5,0.4c-0.3,0.2-0.3,0.2-0.5,0.5
						c-0.3,0.3-0.3,0.3-0.7,0.6c-0.3,0.3-0.3,0.3-0.7,0.5c-0.5,0.4-0.5,0.4-1,0.8c-0.4,0.3-0.4,0.3-0.8,0.6
						c-0.2,0.1-0.2,0.1-0.4,0.3c-0.2,0.1-0.2,0.1-0.4,0.2c-0.2,0.1-0.2,0.1-0.5,0.3c-0.4,0.2-0.4,0.2-0.9,0.4
						c-0.2,0.1-0.2,0.1-0.4,0.1c-0.1,0-0.1,0-0.2,0c-0.4,0-0.4,0-0.7,0.1c-0.1,0-0.1,0-0.2,0c-0.4-0.1-0.4-0.1-0.7-0.2
						c-0.1,0-0.1,0-0.1,0c-0.2-0.1-0.2-0.1-0.5-0.3c0,0,0,0-0.1-0.1"/>
					<path id="XMLID_7699_" class="st5" d="M211,439.4c-0.5,0.4-0.5,0.4-1,0.8c-0.5,0.4-0.5,0.4-1,0.8c-0.2,0.2-0.2,0.2-0.4,0.3
						c-0.3,0.3-0.3,0.3-0.7,0.6c-0.5,0.5-0.5,0.5-0.9,1c-0.4,0.5-0.4,0.5-0.9,0.9c-0.2,0.2-0.2,0.2-0.3,0.4
						c-0.3,0.3-0.3,0.3-0.6,0.7c-0.4,0.5-0.4,0.5-0.8,1c-0.1,0.2-0.1,0.2-0.3,0.4c-0.2,0.3-0.2,0.3-0.5,0.7"/>
					<path id="XMLID_7697_" class="st5" d="M213,458.5c0.3,0.2,0.3,0.2,0.5,0.4c0.2,0.1,0.2,0.1,0.5,0.2c0.1,0,0.1,0,0.3,0.1
						c0.2,0,0.2,0,0.5,0"/>
					<path id="XMLID_7696_" class="st5" d="M214.8,459.2c0.2-0.1,0.2-0.1,0.4-0.2c0.2-0.1,0.2-0.2,0.4-0.3c0.1-0.1,0.1-0.1,0.1-0.1
						c0.1-0.2,0.1-0.2,0.2-0.4"/>
					<path id="XMLID_7695_" class="st5" d="M216.1,457.6c0-0.2,0-0.2-0.1-0.5c-0.1-0.2-0.1-0.2-0.2-0.4c-0.2-0.2-0.2-0.2-0.3-0.4
						c-0.1-0.1-0.1-0.1-0.1-0.1"/>
					<path id="XMLID_7690_" class="st5" d="M213.3,457.2c0-0.1,0-0.1,0-0.2c0-0.1,0-0.1,0-0.2c0.1-0.1,0.1-0.1,0.1-0.2
						c0.1-0.1,0.1-0.1,0.2-0.2"/>
					<path id="XMLID_7685_" class="st5" d="M216.3,454.8C216.2,454.8,216.2,454.8,216.3,454.8c-0.1-0.1-0.1-0.1-0.2-0.2
						c0-0.1,0-0.1-0.1-0.2"/>
					<path id="XMLID_7684_" class="st5" d="M216.1,454c0.1-0.1,0.1-0.1,0.1-0.2c0,0,0,0,0.1-0.1c0.1,0,0.1,0,0.1-0.1"/>
					<path id="XMLID_7678_" class="st5" d="M220.2,450.5c0-0.1,0-0.1,0-0.2c0.1-0.2,0.1-0.3,0.2-0.5c0.1-0.2,0.1-0.2,0.3-0.4"/>
					<path id="XMLID_7677_" class="st5" d="M223.5,448.8c0.2,0.2,0.2,0.2,0.4,0.5c0.2,0.3,0.2,0.3,0.3,0.6c0.1,0.3,0.1,0.3,0.1,0.5
						c0,0.3,0,0.3-0.1,0.6c0,0.1,0,0.1,0,0.2c-0.1,0.3-0.1,0.3-0.3,0.5c-0.2,0.2-0.2,0.2-0.4,0.5c-0.2,0.2-0.2,0.2-0.4,0.4
						c-0.2,0.1-0.2,0.1-0.5,0.3c-0.2,0.1-0.2,0.1-0.5,0.1"/>
					<path id="XMLID_7676_" class="st5" d="M213.6,428.9l26.7,29.5l0.5,0.7"/>
					<path id="XMLID_7675_" class="st5" d="M223.8,475.6l-30.5-25.6l-0.2-0.2"/>
					<path id="XMLID_7674_" class="st5" d="M201.8,450.9l12.4-12.9"/>
					<path id="XMLID_7673_" class="st5" d="M223.5,470l-21.8-19.1"/>
					<path id="XMLID_7670_" class="st5" d="M216,458.1l0.1-0.5"/>
					<path id="XMLID_7669_" class="st5" d="M212.7,458l0.7-0.6l0,0"/>
					<path id="XMLID_7667_" class="st5" d="M213.4,457.5l-0.1-0.3"/>
					<path id="XMLID_7666_" class="st5" d="M213.7,456.6l0.2-0.1l0.2,0l0.2,0.1l0.3,0.2"/>
					<path id="XMLID_7665_" class="st5" d="M214,458.1L214,458.1"/>
					<path id="XMLID_7645_" class="st6" d="M216,457.1c-0.1-0.2-0.1-0.2-0.2-0.4c-0.1-0.2-0.1-0.2-0.3-0.3l-0.1-0.1
						c-0.2-0.1-0.2-0.1-0.4-0.3c-0.2-0.1-0.2-0.1-0.5-0.1c0,0,0,0-0.1,0c-0.2,0-0.2,0-0.4,0c-0.2,0.1-0.2,0.1-0.4,0.2
						c-0.2,0.2-0.2,0.2-0.4,0.3c-0.1,0.1-0.1,0.1-0.1,0.2c-0.1,0.2-0.1,0.2-0.3,0.5c0,0.2,0,0.2-0.1,0.3c0,0.1,0,0.1,0,0.3l0,0.2
						l0.1,0.4l0.7-0.6l-0.1-0.3c0-0.1,0-0.1,0-0.2c0-0.1,0-0.1,0-0.2c0.1-0.1,0.1-0.1,0.1-0.2c0.1-0.1,0.1-0.1,0.2-0.2l0.2-0.1
						l0.2,0l0.2,0.1l0.3,0.2l-1.6,1.7l0.3,0.2c0.1,0.1,0.1,0.1,0.2,0.2c0.2,0.1,0.2,0.1,0.5,0.2c0.1,0,0.1,0,0.3,0.1
						c0.2,0,0.2,0,0.5,0c0.2-0.1,0.2-0.1,0.4-0.2c0.2-0.1,0.2-0.2,0.4-0.3c0.1-0.1,0.1-0.1,0.1-0.1c0.1-0.2,0.1-0.2,0.2-0.4l0.1-0.5
						C216,457.3,216,457.3,216,457.1z M215.3,457.9c0,0.1,0,0.1-0.1,0.2c-0.1,0.1-0.1,0.1-0.1,0.2c0,0,0,0-0.1,0.1
						c-0.1,0-0.1,0-0.2,0.1c-0.1,0-0.1,0-0.2,0c-0.1,0-0.1,0-0.1,0c-0.1,0-0.1,0-0.2-0.1c-0.2-0.1-0.2-0.1-0.3-0.2l0,0l0.9-1
						l0.1,0.1l0.2,0.3c0,0.1,0,0.1,0.1,0.3C215.3,457.8,215.3,457.8,215.3,457.9z"/>
					<path id="XMLID_7663_" class="st5" d="M214,458.2l1-1"/>
					<path id="XMLID_7659_" class="st5" d="M215.7,454.3L215.7,454.3"/>
					<path id="XMLID_7657_" class="st5" d="M216.1,454.5l0-0.2l0.1-0.2"/>
					<path id="XMLID_7656_" class="st5" d="M216.5,453.7l0.1,0l0.2,0l0.2,0.1"/>
					<path id="XMLID_7654_" class="st5" d="M234.9,458.3l-18.9-20"/>
					<path id="XMLID_7649_" class="st6" d="M217.8,452l-0.3-0.3l0.6-0.7l3.3,3.2l-0.6,0.7L217.8,452"/>
					<path id="XMLID_7648_" class="st5" d="M218.6,455.4l0.6-0.7"/>
					<path id="XMLID_7647_" class="st6" d="M217.6,453.2l0.5,0.4l0.9,0.8l0.3,0.3l-0.3-0.3l0.3,0.3l-0.6,0.7l-1.2-1.1l0,0l0,0
						l-0.5-0.5l-0.2-0.1l-0.1,0l-0.1,0c-0.1,0-0.1,0-0.1,0.1c0,0,0,0-0.1,0.1c-0.1,0.1-0.1,0.1-0.1,0.2l0,0.2l0,0.2l0.1,0.2l0.1,0.1
						l0.2,0.2l0.2,0.3l0.1,0.1l-0.2-0.2l-0.2-0.2l0.2,0.3l0.1,0.1l0.9,0.8l-0.6,0.7l0.6-0.7l0,0l-0.6,0.7l-2.4-2.3l0.6-0.7l0.4,0.3
						l0-0.4l0.1-0.4c0.1-0.2,0.1-0.2,0.2-0.3c0.1-0.1,0.1-0.1,0.3-0.2c0.1-0.1,0.1-0.1,0.3-0.1l0.3,0c0.1,0,0.1,0,0.3,0.1
						C217.4,453,217.4,453,217.6,453.2c0.2,0.2,0.2,0.2,0.5,0.4"/>
					<path id="XMLID_7644_" class="st5" d="M220.5,452.1l1.4-1.5l-0.2-0.2"/>
					<path id="XMLID_7643_" class="st5" d="M220.5,450.8l-0.4-0.3"/>
					<path id="XMLID_7642_" class="st5" d="M220.2,450.5L220.2,450.5"/>
					<path id="XMLID_7641_" class="st5" d="M221.5,454.3L221.5,454.3l-0.7,0.6"/>
					<path id="XMLID_7639_" class="st5" d="M221.4,454.3l-0.3-0.3"/>
					<path id="XMLID_7638_" class="st5" d="M222.2,452.9l-0.5,0l-0.5-0.2"/>
					<path id="XMLID_7637_" class="st5" d="M222,450.6L222,450.6"/>
					<path id="XMLID_7636_" class="st5" d="M222.9,449.5L222.9,449.5L222.9,449.5"/>
					<path id="XMLID_7634_" class="st5" d="M223.5,470l11.3-11.8"/>
					<path id="XMLID_7633_" class="st5" d="M230.3,474.1l-0.2-0.2"/>
					<path id="XMLID_7632_" class="st5" d="M239.2,464.9l-0.2-0.2"/>
					<path id="XMLID_7631_" class="st5" d="M239.3,464.7l-0.1,0l-0.1,0"/>
					<path id="XMLID_7630_" class="st5" d="M240.6,458.8l0.2,0.3"/>
					<path id="XMLID_7629_" class="st6" d="M219.2,450.9l1.3,1.3l1.4-1.5l-0.6-0.5l-0.8,0.8l-0.1-0.1l-0.3-0.3l0.4,0.4l-0.1-0.1
						l-0.3-0.3c0-0.1,0-0.1,0-0.2c0.1-0.3,0.1-0.3,0.2-0.5c0.1-0.2,0.1-0.2,0.3-0.4l0,0c0.5-0.5,1.2-0.6,1.7-0.2l0,0
						c0.2,0.2,0.2,0.2,0.4,0.3c0.1,0.1,0.1,0.1,0.2,0.2c0.1,0.2,0.1,0.2,0.3,0.4c0.1,0.2,0.1,0.2,0.1,0.4c0,0.2,0,0.2,0,0.3
						c-0.1,0.2-0.1,0.2-0.1,0.4c-0.1,0.2-0.1,0.2-0.3,0.4c-0.1,0.1-0.1,0.1-0.2,0.2c-0.1,0.1-0.1,0.1-0.3,0.2c-0.1,0-0.1,0-0.2,0.1
						c-0.2,0-0.2,0-0.3,0l-0.3-0.1l-0.5,0.8l0.5,0.2l0.5,0c0.2,0,0.2-0.1,0.5-0.1c0.2-0.1,0.2-0.1,0.5-0.3c0.2-0.2,0.2-0.2,0.4-0.4
						c0.2-0.2,0.2-0.2,0.4-0.5c0.1-0.3,0.1-0.3,0.3-0.5c0-0.1,0-0.1,0-0.2c0-0.3,0-0.3,0.1-0.6c0-0.3,0-0.3-0.1-0.5
						c-0.1-0.3-0.1-0.3-0.3-0.6c-0.2-0.2-0.2-0.2-0.4-0.5c-0.1-0.1-0.1-0.1-0.3-0.2c-0.3-0.2-0.3-0.2-0.5-0.3
						c-0.3-0.1-0.3-0.1-0.5-0.2c-0.3,0-0.3,0-0.6,0c-0.3,0.1-0.3,0.1-0.5,0.1c-0.3,0.1-0.3,0.1-0.5,0.3c-0.2,0.2-0.2,0.2-0.4,0.4
						c-0.1,0.1-0.1,0.1-0.1,0.1c-0.2,0.3-0.2,0.3-0.4,0.6c-0.1,0.3-0.1,0.3-0.3,0.6C219.3,450.6,219.3,450.6,219.2,450.9z"/>
					<path id="XMLID_7628_" class="st5" d="M220.7,449.4c0.5-0.5,1.2-0.6,1.8-0.2c0,0,0,0,0,0l0,0l0.4,0.3"/>
				</g>
				<path id="XMLID_7625_" class="st6" d="M254.6,507.4c-0.1-0.3-0.1-0.3-0.1-0.7c0-0.4,0-0.4,0-0.8c0-0.4,0-0.4,0.1-0.8
					c0.1-0.4,0.1-0.4,0.2-0.7c0.2-0.3,0.2-0.3,0.3-0.7c0-0.1,0-0.1,0.1-0.1c0.2-0.3,0.2-0.3,0.4-0.5c0.4-0.5,0.4-0.5,0.8-1.1
					c0.4-0.6,0.4-0.6,0.7-1.1c0.3-0.6,0.3-0.6,0.6-1.2c0.3-0.6,0.3-0.6,0.5-1.2c0.2-0.6,0.2-0.6,0.4-1.3c0.2-0.7,0.2-0.7,0.3-1.3
					c0.1-0.7,0.1-0.7,0.2-1.3c0-0.5,0-0.5,0-1l0,0c0,0.5,0,0.5,0,1c0.1,0.7,0.1,0.7,0.2,1.3c0.1,0.7,0.1,0.7,0.3,1.3
					c0.2,0.6,0.2,0.6,0.4,1.3c0.3,0.6,0.3,0.6,0.5,1.2c0.3,0.6,0.3,0.6,0.6,1.2c0.4,0.6,0.4,0.6,0.7,1.1c0.4,0.5,0.4,0.5,0.8,1.1
					c0.2,0.3,0.2,0.3,0.4,0.5c0,0.1,0,0.1,0.1,0.1c0.2,0.3,0.2,0.3,0.3,0.7c0.1,0.4,0.1,0.4,0.2,0.7c0.1,0.4,0.1,0.4,0.1,0.8
					c0,0.4,0,0.4,0,0.8c-0.1,0.4-0.1,0.4-0.1,0.8c0,0.1,0,0.1,0,0.1c-0.1,0.4-0.1,0.4-0.3,0.7c-0.2,0.3-0.2,0.3-0.4,0.7
					c-0.2,0.3-0.2,0.3-0.5,0.6c-0.1,0-0.1,0-0.1,0.1c-0.3,0.2-0.3,0.2-0.6,0.5c-0.3,0.2-0.3,0.2-0.6,0.4c-0.1,0-0.1,0-0.1,0.1
					c-0.3,0.1-0.3,0.1-0.6,0.2c-0.1,0-0.1,0-0.1,0c-0.1,0-0.1,0-0.2,0c-0.3,0-0.3,0-0.6,0.1c0,0,0,0-0.1,0c-0.1,0-0.1,0-0.1,0
					c-0.1,0-0.1,0-0.2,0s-0.1,0-0.2,0c-0.1,0-0.1,0-0.1,0c0,0,0,0-0.1,0c-0.3,0-0.3,0-0.6-0.1c-0.1,0-0.1,0-0.2,0
					c-0.1,0-0.1,0-0.1,0c-0.3-0.1-0.3-0.1-0.6-0.2c-0.1,0-0.1,0-0.1-0.1c-0.3-0.2-0.3-0.2-0.6-0.4c-0.3-0.2-0.3-0.2-0.6-0.5
					c-0.1-0.1-0.1,0-0.1-0.1c-0.2-0.3-0.2-0.3-0.5-0.6c-0.2-0.3-0.2-0.3-0.4-0.7c-0.1-0.3-0.1-0.4-0.3-0.7"/>
				<path id="XMLID_7624_" class="st7" d="M254.6,507.6l0-0.2L254.6,507.6"/>
				<path id="XMLID_7623_" class="st7" d="M259.1,494.5l0-1"/>
				<path id="XMLID_7622_" class="st7" d="M259.2,494.5l0-1"/>
				<path id="XMLID_7621_" class="st7" d="M259.2,494.5l0-1"/>
				<path id="XMLID_7620_" class="st7" d="M259.2,494.5L259.2,494.5"/>
				<g id="XMLID_7552_">
					<path id="XMLID_7617_" class="st5" d="M229.3,476.1c0.2,0,0.2,0,0.4-0.1c0.4-0.1,0.4-0.1,0.7-0.3c0.1-0.1,0.1-0.1,0.2-0.1"/>
					<path id="XMLID_7616_" class="st5" d="M230.7,475.7c0.3-0.2,0.3-0.2,0.6-0.3c0.5-0.3,0.5-0.3,1-0.6c0.1-0.1,0.1-0.1,0.2-0.1"/>
					<path id="XMLID_7615_" class="st5" d="M233,479.2c0.2,0.3,0.2,0.3,0.4,0.6c0.3,0.4,0.3,0.4,0.6,0.7c0.3,0.4,0.3,0.4,0.6,0.7
						c0.3,0.3,0.3,0.3,0.7,0.7"/>
					<path id="XMLID_7614_" class="st5" d="M233.1,479.2c0.3,0.4,0.3,0.4,0.5,0.7c0.3,0.3,0.3,0.3,0.6,0.7c0.3,0.3,0.3,0.3,0.6,0.7
						c0.3,0.3,0.3,0.3,0.6,0.6c0.1,0,0.1,0,0.1,0.1c0,0,0,0,0.1,0c0.1,0,0.1,0,0.2,0c0.1,0,0.1,0,0.2,0"/>
					<path id="XMLID_7613_" class="st5" d="M236,482c0.1,0,0.1,0,0.2-0.1c0.1,0,0.1,0,0.2-0.1c0.1-0.1,0.1-0.1,0.3-0.1"/>
					<path id="XMLID_7612_" class="st5" d="M239.7,467c0.1-0.1,0.1-0.1,0.1-0.2c0.3-0.5,0.3-0.5,0.6-1c0.1-0.3,0.1-0.3,0.3-0.6"/>
					<path id="XMLID_7611_" class="st5" d="M247.2,473.3c0.7,0.8,0.7,0.8,1.4,1.6c1.3,1.5,1.3,1.5,2.6,3c0,0,0,0,0,0
						c0,0.1,0,0.1,0.1,0.3"/>
					<path id="XMLID_7610_" class="st5" d="M251.2,478.1c0,0.2,0,0.2,0,0.4c0,0.2,0,0.2-0.1,0.4c-0.1,0.2-0.1,0.2-0.2,0.5
						c-0.1,0.2-0.1,0.2-0.3,0.5c-0.2,0.3-0.2,0.3-0.3,0.5c-0.2,0.3-0.2,0.3-0.4,0.6c-0.2,0.3-0.2,0.3-0.4,0.6
						c-0.2,0.3-0.2,0.3-0.5,0.6c-0.3,0.3-0.3,0.3-0.5,0.6c-0.3,0.3-0.3,0.3-0.6,0.6c-0.3,0.3-0.3,0.3-0.6,0.5
						c-0.3,0.2-0.3,0.2-0.6,0.5c-0.3,0.2-0.3,0.2-0.6,0.4c-0.3,0.2-0.3,0.2-0.5,0.4c-0.2,0.1-0.2,0.1-0.5,0.3
						c-0.2,0.1-0.2,0.1-0.5,0.2c-0.2,0.1-0.2,0.1-0.4,0.1c-0.2,0-0.2,0-0.4,0"/>
					<path id="XMLID_7609_" class="st5" d="M241.1,463.8c0,0.2,0,0.2-0.1,0.4c-0.1,0.4-0.1,0.4-0.2,0.7c0,0.1,0,0.1-0.1,0.2"/>
					<path id="XMLID_7608_" class="st5" d="M244.3,485.7c0.2-0.1,0.2-0.1,0.4-0.1c0.2-0.1,0.2-0.1,0.4-0.2c0.2-0.1,0.2-0.1,0.5-0.3
						c0.3-0.2,0.3-0.2,0.5-0.4c0.3-0.2,0.3-0.2,0.6-0.4c0.3-0.2,0.3-0.2,0.6-0.5c0.3-0.3,0.3-0.3,0.6-0.5c0.3-0.3,0.3-0.3,0.6-0.6
						c0.1-0.1,0.1-0.1,0.2-0.2c0.2-0.2,0.2-0.2,0.4-0.4c0.3-0.3,0.3-0.3,0.5-0.6c0.2-0.3,0.2-0.3,0.5-0.6c0.2-0.3,0.2-0.3,0.4-0.6
						c0.2-0.3,0.2-0.3,0.3-0.5c0.1-0.2,0.1-0.2,0.3-0.5c0.1-0.2,0.1-0.2,0.2-0.4c0.1-0.2,0.1-0.2,0.1-0.4"/>
					<path id="XMLID_7607_" class="st5" d="M247.5,471.4c0-0.1,0-0.1,0-0.2c0-0.2,0-0.2,0-0.5c0-0.1,0-0.1,0-0.1"/>
					<path id="XMLID_7606_" class="st5" d="M244.3,467.5c0.4,0.2,0.4,0.2,0.7,0.5c0.4,0.3,0.4,0.3,0.7,0.5c0.3,0.3,0.3,0.3,0.7,0.6
						c0.3,0.3,0.3,0.3,0.6,0.6"/>
					<path id="XMLID_7605_" class="st5" d="M247.2,469.7c-0.4-0.3-0.4-0.3-0.7-0.7c-0.4-0.3-0.4-0.3-0.7-0.6
						c-0.4-0.3-0.4-0.3-0.8-0.6c-0.3-0.2-0.3-0.2-0.7-0.4"/>
					<path id="XMLID_7604_" class="st5" d="M250.8,479.5c2.8,3.3,2.8,3.3,5.7,6.6c0,0,0,0,0.1,0.1c0,0.1,0,0.1,0.1,0.2
						c0,0,0,0,0,0.1c0,0.1,0,0.1,0,0.3c0,0.2,0,0.2-0.1,0.3c-0.1,0.2-0.1,0.2-0.2,0.4c-0.1,0.2-0.1,0.2-0.2,0.4
						c-0.2,0.2-0.2,0.2-0.3,0.4c-0.2,0.2-0.2,0.2-0.4,0.4c-0.2,0.2-0.2,0.2-0.4,0.4c-0.2,0.2-0.2,0.2-0.4,0.4
						c-0.2,0.2-0.2,0.2-0.4,0.4c-0.2,0.2-0.2,0.2-0.4,0.3c-0.2,0.1-0.2,0.1-0.4,0.3c-0.2,0.1-0.2,0.1-0.4,0.2
						c-0.1,0.1-0.1,0.1-0.3,0.1c-0.1,0-0.1,0-0.3,0c0,0,0,0-0.1,0c-0.1,0-0.1,0-0.2-0.1c0,0,0,0,0,0"/>
					<path id="XMLID_7603_" class="st5" d="M247.1,469.8c0.1,0.1,0.1,0.1,0.1,0.2c0.1,0.1,0.1,0.1,0.1,0.2c0,0.1,0,0.1,0.1,0.2
						c0,0.1,0,0.1,0.1,0.3"/>
					<path id="XMLID_7602_" class="st5" d="M252.6,490.8c0.2-0.1,0.2-0.1,0.3-0.1c0.2-0.1,0.2-0.1,0.4-0.2c0.2-0.1,0.2-0.1,0.4-0.3
						c0.2-0.2,0.2-0.2,0.4-0.3c0.2-0.2,0.2-0.2,0.4-0.4c0.2-0.2,0.2-0.2,0.4-0.4c0.2-0.2,0.2-0.2,0.4-0.4c0.2-0.2,0.2-0.2,0.4-0.5
						c0.2-0.2,0.2-0.2,0.3-0.4c0.1-0.2,0.1-0.2,0.2-0.4c0.1-0.2,0.1-0.2,0.2-0.4c0-0.2,0-0.2,0.1-0.3"/>
					<path id="XMLID_7601_" class="st5" d="M258.7,489.7C258.7,489.8,258.7,489.8,258.7,489.7c0,0.1,0,0.1,0,0.2c0,0,0,0,0,0.1
						c0,0.1,0,0.1-0.1,0.2c-0.1,0.2-0.1,0.2-0.2,0.3c-0.1,0.2-0.1,0.2-0.2,0.3c-0.1,0.2-0.1,0.2-0.3,0.3c-0.2,0.2-0.2,0.2-0.3,0.3
						c-0.2,0.2-0.2,0.2-0.3,0.3c-0.2,0.1-0.2,0.1-0.3,0.3c-0.2,0.1-0.2,0.1-0.3,0.2c-0.1,0.1-0.1,0.1-0.3,0.2
						c-0.1,0.1-0.1,0.1-0.3,0.1c0,0,0,0,0,0c-0.1,0-0.1,0-0.2,0c0,0,0,0-0.1,0c0,0,0,0,0,0"/>
					<path id="XMLID_7600_" class="st5" d="M258.7,490c0,0.1,0,0.1-0.1,0.2c-0.1,0.2-0.1,0.2-0.2,0.3c-0.1,0.2-0.1,0.2-0.2,0.3
						c-0.1,0.2-0.1,0.2-0.3,0.4c-0.2,0.2-0.2,0.2-0.3,0.4c-0.2,0.2-0.2,0.2-0.4,0.3c-0.2,0.1-0.2,0.1-0.3,0.3
						c-0.2,0.1-0.2,0.1-0.3,0.2c-0.1,0.1-0.1,0.1-0.3,0.2c-0.1,0-0.1,0-0.2,0.1"/>
					<path id="XMLID_7599_" class="st5" d="M232.5,479.2l-0.7,0l-3.4-3.3l-0.5-0.5"/>
					<path id="XMLID_7598_" class="st5" d="M237.7,482.4l-0.2,0.1l-3.7-3.6l-1.1,0.5l-3.4-3.3l-0.2,0l-0.5-0.1l-0.2-0.1"/>
					<path id="XMLID_7597_" class="st5" d="M230.7,475.7l7.1,6.9l1.7-1.1"/>
					<path id="XMLID_7596_" class="st5" d="M239.5,463.8l-0.1,0.6l-0.3,0.7l-0.4,0.3l-0.4,0.7l-0.2,0.3l0.4-0.2l-0.6,0.9l-0.7,0.9
						L237,468l-0.8,1l-0.1,0.2l0.2,0l-0.8,0.9l-0.9,0.9l-0.1-0.2l-0.2,0.1l-1,0.9l0,0.3l-0.9,0.7l-0.8,0.6l0.2-0.4l-0.3,0.2
						l-0.7,0.4l-0.3,0.4l-0.7,0.3l-0.6,0.2"/>
					<path id="XMLID_7595_" class="st5" d="M229.7,474.2l0.2,0.1"/>
					<path id="XMLID_7594_" class="st5" d="M232.5,474.6l7.1,6.9l1.9-1.6"/>
					<path id="XMLID_7593_" class="st5" d="M231.8,473l0.2,0.1"/>
					<path id="XMLID_7592_" class="st5" d="M235.4,482l-2.9-2.8"/>
					<path id="XMLID_7591_" class="st5" d="M243.5,477.9l-0.4-0.4L243.5,477.9L243.5,477.9l-2,2l-7.1-6.9l-1.2,1l-0.8,0.6"/>
					<path id="XMLID_7590_" class="st5" d="M233.3,479.4l-0.2-0.2"/>
					<path id="XMLID_7589_" class="st5" d="M236,482l-2.7-2.6"/>
					<path id="XMLID_7588_" class="st5" d="M233.1,479.2L233.1,479.2"/>
					<path id="XMLID_7587_" class="st5" d="M243.1,477.6l-6.7-6.4l-1,1l-0.9,0.9l0,0"/>
					<path id="XMLID_7586_" class="st5" d="M234.6,470.9l-0.1-0.1"/>
					<path id="XMLID_7585_" class="st5" d="M235.4,482L235.4,482"/>
					<path id="XMLID_7584_" class="st5" d="M236,469.2l0.1,0.1"/>
					<path id="XMLID_7583_" class="st5" d="M236.4,471.1l1-1.1l0.8-1l7.1,6.9l-0.1,0l-1.7,2.1"/>
					<path id="XMLID_7582_" class="st5" d="M238.1,466.4l0.2,0.2"/>
					<path id="XMLID_7581_" class="st5" d="M245.3,475.9l-7.1-6.8"/>
					<path id="XMLID_7580_" class="st5" d="M240.7,465.2l7,6.8l-0.1,0.1l-0.3,0.8l-0.5,1l-7.1-6.9l-0.6,0.8l-0.9,1.2"/>
					<path id="XMLID_7579_" class="st5" d="M244,485.7l-0.3-0.1l0,0l-4.7-3.8"/>
					<path id="XMLID_7578_" class="st5" d="M239.2,464.4L239.2,464.4"/>
					<path id="XMLID_7577_" class="st5" d="M239.2,464.4l0.1,0.1"/>
					<path id="XMLID_7576_" class="st5" d="M246.9,473.9l-0.1,0.1l-7.1-6.8"/>
					<path id="XMLID_7575_" class="st5" d="M241.1,463.8v-0.2l-0.1-0.4l-0.1-0.2l-0.6-0.5"/>
					<path id="XMLID_7574_" class="st5" d="M247.6,472.1l-7-6.7"/>
					<path id="XMLID_7573_" class="st5" d="M247.8,472v-0.4l-3.6-3.5l0.2-0.9l0.1-0.1l-3.4-3.3"/>
					<path id="XMLID_7572_" class="st5" d="M244.3,467.2l-3.3-3.2"/>
					<path id="XMLID_7571_" class="st5" d="M241.1,463.5l3,2.9l0.1-0.1l-3.4-3.3"/>
					<path id="XMLID_7570_" class="st5" d="M244.1,466.4l0.4,0.7v0"/>
					<path id="XMLID_7569_" class="st5" d="M247.5,470.6l-3.2-3.1"/>
					<path id="XMLID_7568_" class="st5" d="M247.1,469.8L247.1,469.8"/>
					<path id="XMLID_7567_" class="st5" d="M244.3,467.5L244.3,467.5"/>
					<path id="XMLID_7566_" class="st5" d="M247.2,469.7l-2.7-2.6"/>
					<path id="XMLID_7565_" class="st5" d="M252.1,490.7l-6.8-5.5"/>
					<path id="XMLID_7564_" class="st5" d="M245.4,475.9l1.4-2"/>
					<path id="XMLID_7563_" class="st5" d="M248.5,474.9l-1.4-1.6"/>
					<path id="XMLID_7562_" class="st5" d="M248.5,474.9L248.5,474.9"/>
					<path id="XMLID_7561_" class="st5" d="M253.1,490.6l0.9,0.7L253.1,490.6"/>
					<path id="XMLID_7560_" class="st5" d="M256.9,487.7l-0.4-0.4l2,2.4l0,0.1"/>
					<path id="XMLID_7559_" class="st5" d="M255.7,492.7l-1.7-1.4l0.2,0.2"/>
					<path id="XMLID_7558_" class="st5" d="M253.4,490.8l0.2,0.1"/>
					<path id="XMLID_7557_" class="st5" d="M258.5,493.8l-1.8-1.4"/>
					<path id="XMLID_7556_" class="st5" d="M256.6,487.3l-0.1-0.1"/>
					<path id="XMLID_7555_" class="st5" d="M259.9,492.4l-1.5-1.7"/>
					<path id="XMLID_7554_" class="st5" d="M240.2,462.6c0.3,1.6-2.3,5.5-5.9,8.9c-2.6,2.5-5.1,4-6.3,3.8"/>
					<path id="XMLID_7553_" class="st5" d="M259.9,492.4c0.1,0.1,0,0.5-0.4,0.9s-0.8,0.7-0.9,0.6c0,0,0,0,0,0"/>
				</g>
			</g>
		</g>
	</g>
</g>
</svg>
