<?xml version="1.0" encoding="utf-8"?>
<!-- Generator: Adobe Illustrator 19.0.0, SVG Export Plug-In . SVG Version: 6.00 Build 0)  -->
<svg version="1.1" id="Layer_1" xmlns="http://www.w3.org/2000/svg" xmlns:xlink="http://www.w3.org/1999/xlink" x="0px" y="0px"
	 width="841.9px" height="595.3px" viewBox="0 0 841.9 595.3" style="enable-background:new 0 0 841.9 595.3;" xml:space="preserve"
	>
<style type="text/css">
	.st0{fill:none;stroke:#0B0620;stroke-width:0.5;stroke-linecap:round;stroke-linejoin:round;}
	.st1{fill:#FFFFFF;}
</style>
<g id="XMLID_1_">
	<g>
		<path id="XMLID_345_" class="st0" d="M428.1,327.5c-0.3,1.4-0.3,1.4-0.5,2.7c0,1.6,0,1.6,0.1,3.3c0.1,0.3,0.1,0.3,0.2,0.6
			c0.8,1.4,0.8,1.4,1.5,2.7c0.2,0.3,0.2,0.3,0.5,0.5c0.5,0.5,0.5,0.5,1,0.9c0.5,0.3,0.5,0.3,0.9,0.6"/>
		<path id="XMLID_344_" class="st0" d="M437,325.9c0.4-0.3,0.4-0.3,0.7-0.7c0.9-1.5,0.9-1.5,1.8-3c0.1-0.3,0.1-0.3,0.2-0.5"/>
		<path id="XMLID_343_" class="st0" d="M439.8,321.8c0.3-2,0.3-2,0.5-4.1c0-0.2,0-0.2,0-0.4c-0.4-2.3-0.4-2.3-0.8-4.6
			c-0.9-2.4-0.9-2.4-2-4.7c-1.3-2.1-1.4-2-2.7-4.1c-0.1-0.1-0.1-0.1-0.2-0.3c-1.8-1.7-1.7-1.7-3.5-3.4c-2-1.2-2.1-1.2-4.1-2.3"/>
		<path id="XMLID_342_" class="st0" d="M558.2,400c0,0.3,0,0.3-0.1,0.6c0,0.5,0,0.5,0.1,1.1c0.2,0.5,0.2,0.5,0.4,0.9
			c0,0.1,0,0.1,0.1,0.1"/>
		<path id="XMLID_341_" class="st0" d="M440.5,318.7c1.3-0.4,1.3-0.4,2.5-0.8c0.6-0.2,0.6-0.2,1.2-0.3c0.8,0,0.8,0,1.5,0
			c0.9,0.1,0.9,0.1,1.9,0.1c0.3,0,0.3,0,0.5,0.1c0.6,0.2,0.6,0.2,1.2,0.5c0.7,0.3,0.7,0.3,1.4,0.6"/>
		<path id="XMLID_340_" class="st0" d="M446.7,316.7c-0.3-0.1-0.3-0.1-0.6-0.3c-0.5-0.1-0.5-0.1-0.9-0.2c-1.8,0.1-1.8,0.1-3.5,0.2
			c-0.2,0.1-0.2,0.1-0.5,0.1c-0.5,0.2-0.5,0.2-0.9,0.4"/>
		<path id="XMLID_339_" class="st0" d="M450.1,318.1c52.3,33,52.3,33,104.6,66.1c1.3,1.1,1.3,1.2,2.5,2.3c0.1,0.2,0.1,0.2,0.3,0.3
			c0.3,0.4,0.3,0.4,0.5,0.8c0.7,1.7,0.7,1.7,1.4,3.5c0,0.3,0,0.3,0.1,0.5c0.1,0.9,0.1,0.9,0.2,1.8c0.2,2.1,0.1,2.1,0.3,4.3
			c0.1,0.8,0.1,0.8,0.2,1.6"/>
		<path id="XMLID_338_" class="st0" d="M570.4,413.4c-3.2-3.6-3.2-3.6-6.4-7.1c-0.2-0.3-0.2-0.3-0.5-0.5c-0.3-0.2-0.3-0.2-0.5-0.4
			c-2.2-1.4-2.2-1.4-4.4-2.7"/>
		<path id="XMLID_337_" class="st0" d="M559.2,390.6c0.4-0.3,0.4-0.3,0.9-0.5c2.2-0.7,2.2-0.8,4.4-1.4c2.5-0.3,2.5-0.3,5-0.5
			c2.5,0.2,2.5,0.2,5,0.5c2.2,0.6,2.3,0.6,4.4,1.4c1.9,1.1,2,1.2,3.8,2.4"/>
		<path id="XMLID_336_" class="st0" d="M562.8,421.6c1.9,0.9,1.9,0.9,3.9,1.7c0.8,0.2,0.8,0.2,1.6,0.4c2.5,0.3,2.5,0.3,4.9,0.5
			c1.2-0.1,1.2-0.1,2.4-0.3"/>
		<path id="XMLID_335_" class="st0" d="M431.8,338.9l120.5,76.1l10.4,6.5l-17.4-10l-121.7-76.8"/>
		<path id="XMLID_334_" class="st0" d="M428.4,335.1l-3.5-2"/>
		<path id="XMLID_333_" class="st0" d="M433.1,325.5h2.5l1.1,0.2l0.4,0.2"/>
		<path id="XMLID_332_" class="st0" d="M427,297.9l-3.3-0.4"/>
		<path id="XMLID_331_" class="st0" d="M558.2,401.4l-60.3-38.1l-60.1-38"/>
		<path id="XMLID_330_" class="st0" d="M558.6,402.6l-13-8.1L437,325.9l0.7-0.7"/>
		<path id="XMLID_329_" class="st0" d="M545.3,395l-108.6-68.6"/>
		<path id="XMLID_328_" class="st0" d="M440.2,318.9l0.4-0.2"/>
		<path id="XMLID_327_" class="st0" d="M446.1,316.4l0.6,0.3"/>
		<path id="XMLID_326_" class="st0" d="M449.5,317.8l0.6,0.3l-0.9-0.5l-2.5-0.9l0.9,0.4L449.5,317.8"/>
		<path id="XMLID_325_" class="st0" d="M554.4,384.7l-103.9-65.7"/>
		<path id="XMLID_324_" class="st0" d="M546,412L546,412"/>
		<path id="XMLID_323_" class="st0" d="M565.8,423l-3.1-6.4l-6.4-12.9"/>
		<path id="XMLID_322_" class="st0" d="M558.6,402.6L558.6,402.6"/>
		<path id="XMLID_321_" class="st0" d="M558.1,400.9v-0.5v0.2"/>
		<path id="XMLID_320_" class="st0" d="M559.1,400.4l0.1-0.1"/>
		<path id="XMLID_319_" class="st0" d="M559.9,398.1l-0.3-4.7"/>
		<path id="XMLID_318_" class="st0" d="M560.3,399.6l-0.2,1.3"/>
		<path id="XMLID_317_" class="st0" d="M560.3,399.6l-0.1-0.5"/>
		<path id="XMLID_316_" class="st0" d="M560,401.5l-0.5-0.5"/>
		<path id="XMLID_315_" class="st0" d="M582.7,392.4l2.1,2.7l0.3,0.5l0.1,0.6l0.5,3.1l-0.2,17.8"/>
		<path id="XMLID_314_" class="st0" d="M423.8,312.6l0.1,0.1"/>
		<path id="XMLID_313_" class="st0" d="M428.2,325.4l0,1.1l-0.1,0.6"/>
		<path id="XMLID_312_" class="st0" d="M427.6,320.7l0.3,1.3l0.1,0.6"/>
		<path id="XMLID_311_" class="st0" d="M426,316.4l0.6,1.5"/>
		<path id="XMLID_310_" class="st0" d="M585.5,417c-0.8,2.6-3.4,4.9-7.4,6.4"/>
		<path id="XMLID_309_" class="st0" d="M559.7,394.9c1.6-3.2,7.4-5,12.9-4s8.6,4.3,7,7.4c-1.6,3.2-7.4,5-12.9,4
			c-2.9-0.5-5.2-1.7-6.5-3.3"/>
	</g>
	<g>
		<path id="XMLID_308_" class="st0" d="M369.9,369.1c-24.8-14.3-24.8-14.3-49.5-28.6c-0.2-0.1-0.2-0.1-0.5-0.2
			c-0.2-0.1-0.2-0.1-0.3-0.1c-0.3,0-0.3,0-0.5-0.1c-0.2,0-0.2,0-0.4-0.1c-0.3,0-0.3,0-0.5,0c-0.2,0-0.2,0-0.4,0
			c-0.3,0-0.3,0-0.5,0.1c-0.2,0-0.2,0-0.4,0.1c-0.3,0.1-0.3,0.1-0.5,0.2c-0.2,0.1-0.2,0.1-0.3,0.1c-2.5,1.4-2.5,1.4-4.9,2.8
			c-0.8,0.5-0.8,0.5-1.5,1.1c-0.4,0.4-0.4,0.4-0.8,0.7c-0.7,0.8-0.7,0.8-1.4,1.5c-0.4,0.5-0.4,0.5-0.7,1c-0.6,0.9-0.6,0.9-1.2,1.8
			c-0.3,0.5-0.3,0.5-0.5,1.1c-0.4,1-0.4,1-0.8,1.9c-0.2,0.6-0.2,0.6-0.3,1.2c-0.2,0.9-0.2,0.9-0.3,1.9c0,0.5,0,0.5,0,1.1"/>
		<path id="XMLID_307_" class="st0" d="M303.5,356.6c0,18.9,0,18.9,0,37.7c0.1,0.8,0.1,0.8,0.1,1.6c0.1,0.5,0.1,0.5,0.2,0.9
			c0.3,0.6,0.3,0.6,0.6,1.2c0.2,0.3,0.2,0.3,0.5,0.6"/>
		<path id="XMLID_306_" class="st0" d="M305.8,399.9c1.1,0,1.1,0,2.3,0c0.3,0,0.3,0,0.5,0c1.2-0.5,1.2-0.5,2.4-1
			c2.5-1.5,2.6-1.5,5.1-2.9"/>
		<path id="XMLID_305_" class="st0" d="M316.3,395.9c0.3-0.1,0.3-0.1,0.6-0.3c0.4-0.1,0.4-0.1,0.9-0.2c0.5,0,0.5,0,0.9,0
			c0.5,0.1,0.5,0.1,0.9,0.2c0.3,0.1,0.3,0.1,0.6,0.3"/>
		<path id="XMLID_304_" class="st0" d="M320.3,396c-0.3-0.1-0.3-0.1-0.6-0.3c-0.5-0.1-0.5-0.1-1-0.2c-0.5,0-0.5,0-1,0
			c-0.5,0.1-0.5,0.1-1,0.2c-0.3,0.1-0.3,0.1-0.6,0.3"/>
		<path id="XMLID_303_" class="st0" d="M325.6,387.6c-1.3,0.4-1.3,0.4-2.5,0.7c-1,0.3-1,0.2-2.1,0.5c-0.6,0.2-0.6,0.3-1.2,0.5
			c-0.2,0.1-0.2,0.1-0.5,0.2c-0.4,0.3-0.4,0.3-0.8,0.6c-0.5,0.6-0.5,0.6-1,1.2c-0.3,0.4-0.3,0.4-0.5,0.8"/>
		<path id="XMLID_302_" class="st0" d="M317.6,344.5c0.3,0,0.3,0,0.6,0c0.7,0.1,0.7,0.1,1.5,0.3c0.4,0.2,0.4,0.2,0.8,0.4"/>
		<path id="XMLID_301_" class="st0" d="M367.9,409.5c-14.8-8.5-14.8-8.5-29.6-17.1c-0.2-0.2-0.2-0.2-0.5-0.3
			c-0.3-0.3-0.3-0.3-0.7-0.5c-0.2-0.3-0.2-0.3-0.5-0.5c-0.3-0.4-0.3-0.4-0.6-0.7c-0.2-0.3-0.2-0.3-0.4-0.6c-0.2-0.4-0.2-0.4-0.5-0.9
			c-0.1-0.3-0.1-0.3-0.3-0.6c-0.1-0.5-0.1-0.5-0.3-0.9c-0.1-0.3-0.1-0.3-0.1-0.6c0-0.5,0-0.5-0.1-0.9"/>
		<path id="XMLID_300_" class="st0" d="M334.6,385.9c0-15.1,0-15.1,0-30.2c0-0.2,0-0.3,0-0.5c0.1-0.4,0.1-0.4,0.2-0.7
			c0.1-0.2,0.1-0.2,0.2-0.4c0.2-0.2,0.2-0.2,0.3-0.5"/>
		<path id="XMLID_299_" class="st0" d="M344,391.1c-0.9-0.5-0.9-0.5-1.7-1c-0.6-0.4-0.6-0.4-1.2-0.9c-0.5-0.6-0.5-0.6-1.1-1.2
			c-0.4-0.7-0.4-0.7-0.8-1.5c-0.3-0.7-0.3-0.7-0.5-1.5c-0.1-0.7-0.1-0.7-0.2-1.5c0-1.5,0-1.5,0-3"/>
		<path id="XMLID_298_" class="st0" d="M338.5,380.7c0,4.1,0,1.4,0,2.7c0.1,0.8,0.1,0.8,0.2,1.5c0.3,0.8,0.3,0.8,0.6,1.6
			c0.4,0.8,0.4,0.8,0.9,1.5c0.5,0.6,0.5,0.6,1.1,1.3c0.6,0.5,0.6,0.5,1.2,0.9"/>
		<path id="XMLID_297_" class="st0" d="M367.9,429.5c0,1.7,0,1.1,0,2.2c0.2,1.3,0.2,1.3,0.4,2.6c0.1,0.3,0.1,0.3,0.2,0.5
			c0.6,1,0.6,1,1.2,1.9"/>
		<path id="XMLID_296_" class="st0" d="M367.9,412.1c0-9.2,0-9.2,0-18.3c0.2-1.5,0.2-1.5,0.4-3c0.5-1.5,0.5-1.5,1.1-3.1
			c0.2-0.4,0.2-0.4,0.5-0.8"/>
		<path id="XMLID_295_" class="st0" d="M367.9,394.6c0-0.4,0-0.5,0-1c0.2-1.5,0.2-1.5,0.4-2.9c0.5-1.5,0.5-1.5,1.1-3
			c0.3-0.5,0.3-0.5,0.5-0.9"/>
		<path id="XMLID_294_" class="st0" d="M295,389.8l0.4,2.6l0.1,0.2l1.2,2l0.2,0.2l6.5,3.8l0,0"/>
		<path id="XMLID_293_" class="st0" d="M297.8,344.5l8,4.6"/>
		<path id="XMLID_292_" class="st0" d="M305,398.7l1,0.6l0.7,0.3l1.3,0.1l0.8,0l2.4-0.9"/>
		<path id="XMLID_291_" class="st0" d="M305.3,399.7l0.6,0.2"/>
		<path id="XMLID_290_" class="st0" d="M305.3,399.7l-1.8-1"/>
		<path id="XMLID_289_" class="st0" d="M309.7,330.1l0,0.3l-0.1,0.2"/>
		<path id="XMLID_288_" class="st0" d="M309.7,329.6L309.7,329.6"/>
		<path id="XMLID_287_" class="st0" d="M309.8,325.6l0.4-0.2l0.5-0.2h0.7l0.3,0.1l2.3,1.3l-2.3-1.3"/>
		<path id="XMLID_286_" class="st0" d="M310.2,325.4l-0.4,0.2L310.2,325.4"/>
		<path id="XMLID_285_" class="st0" d="M309.8,325.5L309.8,325.5"/>
		<path id="XMLID_284_" class="st0" d="M313.9,326.6l56,32.3"/>
		<path id="XMLID_283_" class="st0" d="M317.1,344.2l0.5,0.3"/>
		<path id="XMLID_282_" class="st0" d="M320.4,396l47.6,27.5"/>
		<path id="XMLID_281_" class="st0" d="M318.3,394.6v-1.9"/>
		<path id="XMLID_280_" class="st0" d="M318.5,390.4l49.5,28.6"/>
		<path id="XMLID_279_" class="st0" d="M318.3,341.7v1.9"/>
		<path id="XMLID_278_" class="st0" d="M320.1,344.8l49.9,28.8"/>
		<path id="XMLID_277_" class="st0" d="M323.2,388.3v-41.7"/>
		<path id="XMLID_276_" class="st0" d="M324.2,388l43.7,25.2"/>
		<path id="XMLID_275_" class="st0" d="M338.9,387.8l-1.6,0.9"/>
		<path id="XMLID_274_" class="st0" d="M342.5,390.2l16.9,9.8l-3.3-1.9"/>
		<path id="XMLID_273_" class="st0" d="M338.5,380.7v-14v3.5"/>
		<path id="XMLID_272_" class="st0" d="M338.5,366.7v-11.2"/>
		<path id="XMLID_271_" class="st0" d="M367.9,405l-8.6-5"/>
		<path id="XMLID_270_" class="st0" d="M367.9,431.8v-2.2"/>
		<path id="XMLID_269_" class="st0" d="M369.7,436.8l0.2,0.2"/>
		<path id="XMLID_268_" class="st0" d="M367.9,429.5v-17.4v3.5"/>
		
			<ellipse id="XMLID_267_" transform="matrix(-0.866 -0.5 0.5 -0.866 405.4299 813.5745)" class="st0" cx="311.7" cy="352.5" rx="4.4" ry="7.5"/>
		
			<ellipse id="XMLID_266_" transform="matrix(0.866 0.5 -0.5 0.866 236.8888 -103.5777)" class="st0" cx="311.7" cy="390.2" rx="4.4" ry="7.5"/>
		<path id="XMLID_356_" class="st0" d="M307.6,336c-2.5,1.4-2.5,1.4-4.9,2.8c-0.8,0.5-0.8,0.5-1.5,1.1c-0.4,0.4-0.4,0.4-0.8,0.7
			c-0.7,0.8-0.7,0.8-1.4,1.5c-0.4,0.5-0.4,0.5-0.7,1c-0.6,0.9-0.6,0.9-1.2,1.8c-0.3,0.5-0.3,0.5-0.5,1.1c-0.4,1-0.4,1-0.8,1.9
			c-0.2,0.6-0.2,0.6-0.3,1.2c-0.2,0.9-0.2,0.9-0.3,1.9c0,0.5,0,0.5,0,1.1c0,18.9,0,18.9,0,37.7c0.1,0.8,0.1,0.8,0.1,1.6
			c0.1,0.5,0.1,0.5,0.2,0.9c0.3,0.6,0.3,0.6,0.6,1.2c0.2,0.3,0.2,0.3,0.5,0.6"/>
	</g>
	<g>
		<path id="XMLID_265_" class="st0" d="M283.5,48.3c0.3,0.1,0.3,0.1,0.6,0.2c0.2,0,0.2,0,0.4,0c0.3-0.1,0.3-0.1,0.6-0.2"/>
		<path id="XMLID_264_" class="st0" d="M257.3,490.9l7.4,4.3"/>
		<path id="XMLID_263_" class="st0" d="M256,489.4v-453"/>
		<path id="XMLID_262_" class="st0" d="M264.9,42.3l-7.5-4.4"/>
		<path id="XMLID_261_" class="st0" d="M257.3,34.1l13.1-7.5"/>
		<path id="XMLID_260_" class="st0" d="M265.5,495.3v-453"/>
		<path id="XMLID_259_" class="st0" d="M266.3,495.2l2.5-1.4"/>
		<path id="XMLID_258_" class="st0" d="M266.3,42.2l2.5-1.4"/>
		<path id="XMLID_257_" class="st0" d="M268,39.4v-3.7"/>
		<path id="XMLID_256_" class="st0" d="M265.5,38l3.3,1.9"/>
		<path id="XMLID_255_" class="st0" d="M274,35.6l-5.9,0l-0.5,0.2l-2.1,1.2"/>
		<path id="XMLID_254_" class="st0" d="M269.1,493.4v-1V493.4"/>
		<path id="XMLID_253_" class="st0" d="M269.1,492.3V265.5v3.5"/>
		<path id="XMLID_252_" class="st0" d="M269.1,488.6h4.9"/>
		<path id="XMLID_251_" class="st0" d="M269.1,265.5V40.4"/>
		<path id="XMLID_250_" class="st0" d="M275.8,489.3l-1-0.5"/>
		<path id="XMLID_249_" class="st0" d="M274.4,35.7v453"/>
		<path id="XMLID_248_" class="st0" d="M274.8,35.8l12.4,7.2"/>
		<path id="XMLID_247_" class="st0" d="M275.8,501.4v-2.1V501.4"/>
		<path id="XMLID_246_" class="st0" d="M276.1,501.8l7.4,4.2"/>
		<path id="XMLID_245_" class="st0" d="M275.8,501.3V272.5v3.5"/>
		<path id="XMLID_244_" class="st0" d="M275.8,272.5V48.2v0.9v-0.6"/>
		<path id="XMLID_243_" class="st0" d="M283.5,53l-7.4-4.3"/>
		<path id="XMLID_242_" class="st0" d="M276.1,47.9l2.5-1.4"/>
		<path id="XMLID_241_" class="st0" d="M283.5,48.3l-3.3-1.9"/>
		<path id="XMLID_240_" class="st0" d="M285.1,48.3l2.1-1.2"/>
		<path id="XMLID_239_" class="st0" d="M286.7,506.8v-453"/>
		<path id="XMLID_238_" class="st0" d="M287.4,46.9v-3.7"/>
		<path id="XMLID_237_" class="st0" d="M287.5,46.6v-3.2"/>
		<path id="XMLID_236_" class="st0" d="M290,506l13.1-7.5"/>
		<path id="XMLID_235_" class="st0" d="M290,53l13.1-7.5"/>
		<path id="XMLID_234_" class="st0" d="M302.9,463.2l0.2-0.1"/>
		<path id="XMLID_233_" class="st0" d="M303.1,458.4l-0.2,0.1"/>
		<path id="XMLID_232_" class="st0" d="M303.1,420.6l-0.2,0.1"/>
		<path id="XMLID_231_" class="st0" d="M302.9,312.2l0.2-0.1"/>
		<path id="XMLID_230_" class="st0" d="M303.1,307.4l-0.2,0.1"/>
		<path id="XMLID_229_" class="st0" d="M302.9,269.7l0.2-0.1"/>
		<path id="XMLID_228_" class="st0" d="M309.7,399.4l-0.1,91.7"/>
		<path id="XMLID_227_" class="st0" d="M309.8,269.1l0-0.1l-0.1,60.6"/>
		<path id="XMLID_226_" class="st0" d="M309.8,269l0.3-1.1l0,0.1"/>
		<path id="XMLID_225_" class="st0" d="M311.5,266.9l-1,0.8l-0.5,0.8"/>
		<path id="XMLID_224_" class="st0" d="M309.9,268.7L309.9,268.7"/>
		<path id="XMLID_223_" class="st0" d="M309.8,257.1v0.5l-0.1-84.7"/>
		<path id="XMLID_222_" class="st0" d="M309.6,101.4L309.5,34"/>
		<path id="XMLID_221_" class="st0" d="M314.5,259.6l-3.4,2.1"/>
		<path id="XMLID_220_" class="st0" d="M264.7,495.2l0.3,0.1l0.7,0.1l0.6-0.2"/>
		<path id="XMLID_219_" class="st0" d="M269.1,493.4l-0.4,0.4"/>
		<path id="XMLID_218_" class="st0" d="M274.8,488.8l-0.8-0.2"/>
		<path id="XMLID_217_" class="st0" d="M256,489.4l0.5,0.8l0.9,0.7"/>
		<path id="XMLID_216_" class="st0" d="M278.6,46.4l0.6-0.2l0.7,0.1l0.3,0.1"/>
		<path id="XMLID_215_" class="st0" d="M265.5,37l-0.3,0.4v0.2l0.1,0.2l0.2,0.2"/>
		<path id="XMLID_214_" class="st0" d="M268.7,39.8l0.4,0.4v0.2l-0.4,0.4"/>
		<path id="XMLID_213_" class="st0" d="M264.7,42.2l0.3,0.1l0.7,0.1l0.6-0.2"/>
		<path id="XMLID_212_" class="st0" d="M287.5,46.6l0,0.2l-0.3,0.3"/>
		<path id="XMLID_211_" class="st0" d="M287.5,43.4l0-0.2l-0.3-0.3"/>
		<path id="XMLID_210_" class="st0" d="M274.8,35.8l-0.8-0.2"/>
		<path id="XMLID_209_" class="st0" d="M275.8,501.2v0.2l0.3,0.4"/>
		<path id="XMLID_208_" class="st0" d="M276.1,48.8l-0.2-0.2l-0.1-0.2v-0.2l0.3-0.4"/>
		
			<ellipse id="XMLID_207_" transform="matrix(-0.866 -0.5 0.5 -0.866 448.4294 588.6127)" class="st0" cx="303.1" cy="234.2" rx="1.7" ry="2.9"/>
		
			<ellipse id="XMLID_206_" transform="matrix(-0.866 -0.5 0.5 -0.866 429.5446 659.0699)" class="st0" cx="303.1" cy="272" rx="1.7" ry="2.9"/>
		<path id="XMLID_205_" class="st0" d="M309.6,491.1c-0.8,2.8-3,5.4-6.5,7.3"/>
		<path id="XMLID_204_" class="st0" d="M303,312.1c-1.1,0.6-2,0-2-1.3c0-1.2,0.9-2.7,1.9-3.4"/>
		<path id="XMLID_203_" class="st0" d="M302.9,307.5c1.1-0.7,2.1-0.3,2.2,0.9s-0.8,2.9-1.9,3.6c-0.1,0-0.1,0.1-0.2,0.1"/>
		<path id="XMLID_202_" class="st0" d="M290,506c-1.8,1-4.7,1-6.5,0c0,0,0,0,0,0"/>
		<path id="XMLID_201_" class="st0" d="M302.9,458.5c1.1-0.7,2.1-0.3,2.2,0.9c0.1,1.3-0.8,2.9-1.9,3.6c-0.1,0-0.1,0.1-0.2,0.1"/>
		<path id="XMLID_200_" class="st0" d="M303,463.1c-1.1,0.6-2,0-2-1.3c0-1.2,0.9-2.7,1.9-3.4"/>
		<path id="XMLID_199_" class="st0" d="M257.3,37.9c-1.8-1-1.8-2.7,0-3.8c0,0,0,0,0,0"/>
		
			<ellipse id="XMLID_198_" transform="matrix(-0.866 -0.5 0.5 -0.866 467.3049 518.1659)" class="st0" cx="303.1" cy="196.5" rx="1.7" ry="2.9"/>
		
			<ellipse id="XMLID_197_" transform="matrix(-0.866 -0.5 0.5 -0.866 354.049 940.8333)" class="st0" cx="303.1" cy="423" rx="1.7" ry="2.9"/>
		
			<ellipse id="XMLID_196_" transform="matrix(-0.866 -0.5 0.5 -0.866 523.925 306.8494)" class="st0" cx="303.1" cy="83.2" rx="1.7" ry="2.9"/>
		<ellipse id="XMLID_195_" class="st0" cx="286.7" cy="36.1" rx="5.8" ry="3.3"/>
		<path id="XMLID_194_" class="st0" d="M309.8,246.4c5.1,7.2,6.2,16.1,2.5,19.9c-0.2,0.2-0.5,0.5-0.8,0.7"/>
		<path id="XMLID_193_" class="st0" d="M290,53c-1.8,1-4.7,1-6.5,0c0,0,0,0,0,0"/>
		<path id="XMLID_192_" class="st0" d="M270.4,26.6c9-5.2,23.7-5.2,32.7,0c9,5.2,9,13.7,0,18.9"/>
	</g>
	<g>
		<path id="XMLID_191_" class="st0" d="M369.9,142.6c-24.8-14.3-24.8-14.3-49.5-28.6c-0.2-0.1-0.2-0.1-0.5-0.2
			c-0.2-0.1-0.2-0.1-0.3-0.1c-0.3-0.1-0.3-0.1-0.5-0.1c-0.2,0-0.2,0-0.4,0c-0.3,0-0.3,0-0.5,0c-0.2,0-0.2,0-0.4,0
			c-0.3,0-0.3,0-0.5,0.1c-0.2,0.1-0.2,0.1-0.4,0.1c-0.3,0.1-0.3,0.1-0.5,0.2c-0.2,0.1-0.2,0.1-0.3,0.2c-2.5,1.4-2.5,1.4-4.9,2.8
			c-0.8,0.5-0.8,0.5-1.5,1.1c-0.4,0.4-0.4,0.4-0.8,0.7c-0.7,0.7-0.7,0.7-1.4,1.5c-0.4,0.5-0.4,0.5-0.7,1c-0.6,0.9-0.6,0.9-1.2,1.8
			c-0.3,0.5-0.3,0.5-0.5,1.1c-0.4,1-0.4,1-0.8,1.9c-0.2,0.6-0.2,0.6-0.3,1.2c-0.2,0.9-0.2,0.9-0.3,1.9c0,0.5,0,0.5,0,1.1"/>
		<path id="XMLID_349_" class="st0" d="M303.5,130.1c0,8.7,0,26.5,0,37.6c0.1,0.9,0.1,0.9,0.1,1.7c0.1,0.5,0.1,0.5,0.2,0.9
			c0.3,0.6,0.3,0.6,0.6,1.2c0.2,0.4,0.2,0.4,0.5,0.7"/>
		<path id="XMLID_189_" class="st0" d="M305.8,173.4c1.1,0,1.1,0,2.3,0c0.3,0,0.3,0,0.5,0c1.2-0.5,1.2-0.5,2.4-1
			c2.5-1.5,2.6-1.5,5.1-2.9"/>
		<path id="XMLID_188_" class="st0" d="M316.3,169.4c0.3-0.1,0.3-0.1,0.6-0.2c0.4-0.1,0.4-0.1,0.9-0.2c0.5,0,0.5,0,0.9,0
			c0.5,0.1,0.5,0.1,0.9,0.2c0.3,0.1,0.3,0.1,0.6,0.2"/>
		<path id="XMLID_187_" class="st0" d="M320.3,169.5c-0.3-0.2-0.3-0.2-0.6-0.3c-0.5-0.1-0.5-0.1-1-0.2c-0.5,0-0.5,0-1,0
			c-0.5,0.1-0.5,0.1-1,0.2c-0.3,0.1-0.3,0.1-0.6,0.3"/>
		<path id="XMLID_186_" class="st0" d="M325.6,161.1c-1.3,0.4-1.3,0.4-2.5,0.7c-1,0.2-1,0.2-2.1,0.5c-0.6,0.2-0.6,0.3-1.2,0.5
			c-0.2,0.1-0.2,0.1-0.5,0.3c-0.4,0.3-0.4,0.3-0.8,0.6c-0.5,0.6-0.5,0.6-1,1.2c-0.3,0.4-0.3,0.4-0.5,0.8"/>
		<path id="XMLID_185_" class="st0" d="M317.6,118c0.3,0,0.3,0,0.6,0c0.7,0.1,0.7,0.1,1.5,0.3c0.4,0.2,0.4,0.2,0.8,0.4"/>
		<path id="XMLID_184_" class="st0" d="M335.3,127.1c-0.2,0.2-0.2,0.2-0.3,0.5c-0.1,0.2-0.1,0.2-0.2,0.4c-0.1,0.4-0.1,0.4-0.2,0.7
			c0,0.3,0,0.3,0,0.5"/>
		<path id="XMLID_183_" class="st0" d="M334.6,129.2c0,15.1,0,15.1,0,30.2c0,0.4,0,0.4,0.1,0.8c0,0.3,0.1,0.3,0.1,0.6
			c0.1,0.5,0.1,0.5,0.3,0.9c0.1,0.3,0.1,0.3,0.3,0.6c0.2,0.4,0.2,0.4,0.5,0.9c0.2,0.3,0.2,0.3,0.4,0.6c0.3,0.4,0.3,0.4,0.6,0.7
			c0.2,0.2,0.2,0.2,0.5,0.5c0.4,0.3,0.4,0.3,0.7,0.6c0.3,0.2,0.3,0.2,0.5,0.3"/>
		<path id="XMLID_182_" class="st0" d="M341.6,163.1c-0.2-0.2-0.3-0.2-0.5-0.4c-0.5-0.6-0.5-0.6-1.1-1.2c-0.4-0.7-0.4-0.7-0.8-1.4
			c-0.3-0.8-0.3-0.8-0.5-1.5c-0.1-0.7-0.1-0.7-0.2-1.5c0-1.7,0-1.7,0-3.4"/>
		<path id="XMLID_181_" class="st0" d="M338.5,153.8c0,1.6,0,1.6,0,3.1c0.1,0.8,0.1,0.8,0.2,1.5c0.3,0.8,0.3,0.8,0.6,1.6
			c0.4,0.7,0.4,0.7,0.9,1.5c0.5,0.6,0.5,0.6,1.1,1.3c0.6,0.5,0.6,0.5,1.2,0.9c0.4,0.3,0.4,0.3,0.9,0.5"/>
		<path id="XMLID_180_" class="st0" d="M367.9,202.7c0,1.6,0,1.3,0,2.6c0.2,1.3,0.2,1.3,0.4,2.6c0.1,0.2,0.1,0.2,0.2,0.5
			c0.6,1,0.6,1,1.2,1.9"/>
		<path id="XMLID_179_" class="st0" d="M367.9,185.2c0-26.9,0-9,0-17.9c0.2-1.5,0.2-1.5,0.4-3c0.5-1.5,0.5-1.5,1.1-3.1
			c0.2-0.5,0.2-0.5,0.5-0.9"/>
		<path id="XMLID_178_" class="st0" d="M367.9,167.1c0.2-1.4,0.2-1.5,0.4-2.9c0.5-1.5,0.5-1.5,1.1-3c0.3-0.5,0.3-0.5,0.5-0.9"/>
		<path id="XMLID_177_" class="st0" d="M295,163.4l0.4,2.6l0.1,0.2l1.2,2l0.2,0.2l6.5,3.8v0"/>
		<path id="XMLID_176_" class="st0" d="M305.8,122.6l-8-4.6"/>
		<path id="XMLID_175_" class="st0" d="M305,172.3l1,0.6l0.7,0.3l1.3,0h0.8l2.4-0.9"/>
		<path id="XMLID_174_" class="st0" d="M303.5,172.2l1.8,1l0.6,0.2"/>
		<path id="XMLID_173_" class="st0" d="M305.3,173.2L305.3,173.2"/>
		<path id="XMLID_172_" class="st0" d="M309.6,101.4l0.1,1.6l-0.1,0.9l-0.1,0.1"/>
		<path id="XMLID_171_" class="st0" d="M310.2,98.8l-0.5,0.3"/>
		<path id="XMLID_170_" class="st0" d="M310,99l-0.2,0.1l0.4-0.2L310,99"/>
		<path id="XMLID_169_" class="st0" d="M309.8,99.1L309.8,99.1l0.4-0.2l0.5-0.2l0.7,0l0.3,0.1l2.3,1.4l-2.3-1.4"/>
		<path id="XMLID_168_" class="st0" d="M317.1,117.7l0.5,0.3"/>
		<path id="XMLID_167_" class="st0" d="M313.9,100.1l45.4,26.2l-0.8-0.5"/>
		<path id="XMLID_166_" class="st0" d="M318.3,168.1v-1.9"/>
		<path id="XMLID_165_" class="st0" d="M367.9,197l-47.6-27.5"/>
		<path id="XMLID_164_" class="st0" d="M318.5,163.9l49.5,28.5"/>
		<path id="XMLID_163_" class="st0" d="M318.3,117.1v-1.9"/>
		<path id="XMLID_162_" class="st0" d="M369.9,147.1l-49.9-28.8"/>
		<path id="XMLID_161_" class="st0" d="M323.2,161.8v-41.7"/>
		<path id="XMLID_160_" class="st0" d="M324.2,161.5l43.7,25.2"/>
		<path id="XMLID_159_" class="st0" d="M338.3,165.9l29.6,17.1"/>
		<path id="XMLID_158_" class="st0" d="M338.9,161.3l-1.6,1"/>
		<path id="XMLID_157_" class="st0" d="M343.3,164.3l-1.1-0.6l-0.7-0.5"/>
		<path id="XMLID_156_" class="st0" d="M338.5,153.8v-14v3.5"/>
		<path id="XMLID_155_" class="st0" d="M338.5,139.8V129"/>
		<path id="XMLID_154_" class="st0" d="M343.3,164.3l16,9.3l-3.5-2"/>
		<path id="XMLID_153_" class="st0" d="M359.4,126.3l10.5,6.1"/>
		<path id="XMLID_152_" class="st0" d="M367.9,178.4l-8.6-4.9"/>
		<path id="XMLID_151_" class="st0" d="M367.9,205.3v-2.6"/>
		<path id="XMLID_150_" class="st0" d="M369.7,210.3l0.2,0.2"/>
		<path id="XMLID_149_" class="st0" d="M367.9,202.7v-17.4v3.5"/>
		<path id="XMLID_148_" class="st0" d="M367.9,167.7v-0.6"/>
		
			<ellipse id="XMLID_147_" transform="matrix(0.866 0.5 -0.5 0.866 123.6335 -133.9265)" class="st0" cx="311.7" cy="163.7" rx="4.4" ry="7.5"/>
		
			<ellipse id="XMLID_146_" transform="matrix(-0.866 -0.5 0.5 -0.866 518.6749 390.9236)" class="st0" cx="311.7" cy="126" rx="4.4" ry="7.5"/>
		<path id="XMLID_346_" class="st0" d="M307.6,109.5c-2.5,1.4-2.5,1.4-4.9,2.8c-0.8,0.5-0.8,0.5-1.5,1.1c-0.4,0.4-0.4,0.4-0.8,0.7
			c-0.7,0.8-0.7,0.8-1.4,1.5c-0.4,0.5-0.4,0.5-0.7,1c-0.6,0.9-0.6,0.9-1.2,1.8c-0.3,0.5-0.3,0.5-0.5,1.1c-0.4,1-0.4,1-0.8,1.9
			c-0.2,0.6-0.2,0.6-0.3,1.2c-0.2,0.9-0.2,0.9-0.3,1.9c0,0.5,0,0.5,0,1.1c0,18.9,0,18.9,0,37.7c0.1,0.8,0.1,0.8,0.1,1.6
			c0.1,0.5,0.1,0.5,0.2,0.9c0.3,0.6,0.3,0.6,0.6,1.2c0.2,0.3,0.2,0.3,0.5,0.6"/>
	</g>
	<g>
		<path id="XMLID_145_" class="st0" d="M426.7,331.2c-0.6,0.7-0.6,0.7-1.3,1.5c-0.5,0.4-0.5,0.4-1,0.8c-0.3,0.4-0.3,0.4-0.5,0.8"/>
		<path id="XMLID_144_" class="st0" d="M371.2,556.7l7.4,4.2"/>
		<path id="XMLID_143_" class="st0" d="M369.9,555.2v-3.5V555.2"/>
		<path id="XMLID_142_" class="st0" d="M369.9,551.7V102.2"/>
		<path id="XMLID_141_" class="st0" d="M369.9,104.9v-2.7"/>
		<path id="XMLID_140_" class="st0" d="M371.2,103.7l7.4,4.3"/>
		<path id="XMLID_139_" class="st0" d="M384.3,92.4l-13.1,7.5"/>
		<path id="XMLID_138_" class="st0" d="M379.4,561.1v-453"/>
		<path id="XMLID_137_" class="st0" d="M380.2,560.9l2.5-1.4"/>
		<path id="XMLID_136_" class="st0" d="M380.2,108l2.5-1.4"/>
		<path id="XMLID_135_" class="st0" d="M379.1,103.2v0.1"/>
		<path id="XMLID_134_" class="st0" d="M379.4,102.8l2.1-1.2"/>
		<path id="XMLID_133_" class="st0" d="M379.4,103.7l3.3,1.9"/>
		<path id="XMLID_132_" class="st0" d="M383,559.1v-0.4V559.1"/>
		<path id="XMLID_131_" class="st0" d="M383,559.2V331.8v3.5"/>
		<path id="XMLID_130_" class="st0" d="M383,554.3h4.9"/>
		<path id="XMLID_129_" class="st0" d="M383,331.8V106.2"/>
		<path id="XMLID_128_" class="st0" d="M383,106.2v2.2V106"/>
		<path id="XMLID_127_" class="st0" d="M381.9,105.2v-3.7"/>
		<path id="XMLID_126_" class="st0" d="M382.3,101.3h5.6"/>
		<path id="XMLID_125_" class="st0" d="M389.7,342.3v-3.5v228.4"/>
		<path id="XMLID_124_" class="st0" d="M397.3,571.8l-7.4-4.3"/>
		<path id="XMLID_123_" class="st0" d="M388.3,101.4v453"/>
		<path id="XMLID_122_" class="st0" d="M388.7,554.5l1,0.6"/>
		<path id="XMLID_121_" class="st0" d="M389.7,338.8v-17.4v0.8"/>
		<path id="XMLID_120_" class="st0" d="M389.7,321.3V114"/>
		<path id="XMLID_119_" class="st0" d="M389.7,115.4v-1.2"/>
		<path id="XMLID_118_" class="st0" d="M390,114.6l7.4,4.2"/>
		<path id="XMLID_117_" class="st0" d="M390,113.6l2.5-1.4"/>
		<path id="XMLID_116_" class="st0" d="M388.7,101.5l12.4,7.2"/>
		<path id="XMLID_115_" class="st0" d="M394.1,112.2l3.3,1.9"/>
		<path id="XMLID_114_" class="st0" d="M400.6,572.6v-453"/>
		<path id="XMLID_113_" class="st0" d="M399,114.1l2.3-1.4l0.2-0.3v-1.2"/>
		<path id="XMLID_112_" class="st0" d="M403.9,571.8l13.1-7.5"/>
		<path id="XMLID_111_" class="st0" d="M403.9,118.8l13.1-7.5"/>
		<path id="XMLID_110_" class="st0" d="M401.3,112.6V109"/>
		<path id="XMLID_109_" class="st0" d="M401.4,112.4v-3.2"/>
		<path id="XMLID_108_" class="st0" d="M423.5,556.9l0.3-222.2v0.2"/>
		<path id="XMLID_107_" class="st0" d="M423.8,334.4L423.8,334.4"/>
		<path id="XMLID_106_" class="st0" d="M424,333.8L424,333.8l-0.3,1"/>
		<path id="XMLID_105_" class="st0" d="M425,327.4l3.2-1.9"/>
		<path id="XMLID_104_" class="st0" d="M423.7,322.9l0,0.6l-0.3-223.7"/>
		<path id="XMLID_103_" class="st0" d="M428.2,327.6l0.1-0.3"/>
		<path id="XMLID_102_" class="st0" d="M428.2,322.8l0.2,2.5"/>
		<path id="XMLID_101_" class="st0" d="M427.8,320.7l-0.9-2.9"/>
		<path id="XMLID_100_" class="st0" d="M388.7,554.5l-0.8-0.2"/>
		<path id="XMLID_99_" class="st0" d="M379.4,102.8l-0.3,0.4v0.2l0.1,0.2l0.2,0.2"/>
		<path id="XMLID_98_" class="st0" d="M382.3,101.3l-0.8,0.2"/>
		<path id="XMLID_97_" class="st0" d="M401.4,109.2l-0.2-0.4l-0.2-0.1"/>
		<path id="XMLID_96_" class="st0" d="M389.7,567.2l0.3,0.4"/>
		<path id="XMLID_95_" class="st0" d="M399,114.1l-0.6,0.2l-0.7-0.1l-0.3-0.1"/>
		<path id="XMLID_94_" class="st0" d="M394.1,112.2l-0.3-0.1l-0.7-0.1l-0.6,0.2"/>
		<path id="XMLID_93_" class="st0" d="M382.6,106.5l0.3-0.4V106l-0.1-0.2l-0.2-0.2"/>
		<path id="XMLID_92_" class="st0" d="M380.2,108l-0.6,0.2l-0.7-0.1l-0.3-0.1"/>
		<path id="XMLID_91_" class="st0" d="M388.7,101.5l-0.8-0.2"/>
		<path id="XMLID_90_" class="st0" d="M380.2,560.9l-0.6,0.2l-0.7-0.1l-0.3-0.1"/>
		<path id="XMLID_89_" class="st0" d="M369.9,555.2l0.5,0.8l0.8,0.7"/>
		<path id="XMLID_88_" class="st0" d="M383,559v0.2l-0.1,0.2l-0.2,0.2"/>
		<path id="XMLID_87_" class="st0" d="M390,113.6l-0.3,0.4v0.2l0.3,0.4"/>
		<path id="XMLID_86_" class="st0" d="M371.2,103.7c-1.8-1-1.8-2.7,0-3.8c0,0,0,0,0,0"/>
		<path id="XMLID_85_" class="st0" d="M423.5,556.9c-0.8,2.8-3,5.4-6.5,7.3"/>
		<path id="XMLID_84_" class="st0" d="M403.9,571.8c-1.8,1-4.7,1-6.5,0c0,0,0,0,0,0"/>
		<path id="XMLID_83_" class="st0" d="M423.7,312.1c1.2,1.8,2.3,3.7,3.1,5.7"/>
		<path id="XMLID_82_" class="st0" d="M384.3,92.4c9-5.2,23.7-5.2,32.7,0c9,5.2,9,13.7,0,18.9"/>
		<path id="XMLID_81_" class="st0" d="M403.9,118.8c-1.8,1-4.7,1-6.5,0c0,0,0,0,0,0"/>
		<ellipse id="XMLID_80_" class="st0" cx="400.6" cy="101.8" rx="5.8" ry="3.3"/>
	</g>
	<g>
		<path id="XMLID_79_" class="st0" d="M553.6,426.7v-5.6"/>
		<path id="XMLID_78_" class="st0" d="M560.5,421.6v-1.3"/>
		<path id="XMLID_77_" class="st0" d="M585.9,426.7v-5.6"/>
		<path id="XMLID_76_" class="st0" d="M578.2,423.4c-2.2,2.7-7.8,3.8-12.5,2.5c-2.9-0.8-4.9-2.4-5.2-4.3"/>
		<path id="XMLID_75_" class="st0" d="M584.6,417.3c3.6,4.7-0.1,10.2-8.3,12.3c-8.2,2.1-17.7-0.1-21.3-4.8c-1.9-2.4-1.8-5.2,0.1-7.6
			"/>
		<path id="XMLID_74_" class="st0" d="M585.9,426.7c0,5.2-7.2,9.3-16.2,9.3c-8.9,0-16.2-4.2-16.2-9.3"/>
	</g>
	<g>
		<path id="XMLID_73_" class="st0" d="M313.5,232.3c1.9,1.1,1.9,1.1,3.7,2.2c1.8,1.7,1.8,1.7,3.5,3.5c1.5,2.2,1.5,2.2,2.8,4.4
			c0.9,2.4,0.9,2.4,1.8,4.8c0.4,2.3,0.3,2.3,0.6,4.6c0,0.2,0,0.2,0,0.4c-0.4,2-0.4,2-0.7,3.9c-0.1,0.3-0.1,0.3-0.2,0.5
			c-1,1.4-1,1.4-2,2.8c-1.3,1.4-1.4,1.4-2.6,2.8c-1,1.7-1,1.7-1.9,3.5c-0.5,1.4-0.5,1.5-1,2.9"/>
		<path id="XMLID_72_" class="st0" d="M311.1,268.2c0.6-0.2,0.6-0.2,1.2-0.4c0.9-0.5,0.9-0.5,1.8-0.9c0.4-0.2,0.4-0.2,0.8-0.5
			c1.2-0.5,1.2-0.5,2.4-1.1c0.6-0.3,0.6-0.3,1.2-0.5c0.2-0.1,0.2-0.1,0.5-0.3"/>
		<path id="XMLID_71_" class="st0" d="M369.9,310.3l-15.2-8.8l-4.1-2.9l-40.9-28.3"/>
		<path id="XMLID_70_" class="st0" d="M309.8,231.5l3.3,0.6l0.4,0.2"/>
		<path id="XMLID_69_" class="st0" d="M369.9,310l-55-38.2l-3.1-2.2l-0.6-1.2v-0.6l0.4-0.8"/>
		<path id="XMLID_68_" class="st0" d="M311.2,267.5l-0.3-0.2"/>
		<path id="XMLID_67_" class="st0" d="M321.9,260.7l48,33.3"/>
		<path id="XMLID_66_" class="st0" d="M369.9,292.1L323,259.5"/>
		<path id="XMLID_65_" class="st0" d="M369.9,293.4l-47.7-33.1"/>
		<path id="XMLID_64_" class="st0" d="M369.9,277.9l-44.8-31"/>
		<path id="XMLID_63_" class="st0" d="M324.8,245.9l45.1,31.3"/>
		<path id="XMLID_62_" class="st0" d="M369.9,275.4l-2.1,0.3"/>
	</g>
	<g>
		<path id="XMLID_61_" class="st0" d="M357.6,319.2v-5.6"/>
		<path id="XMLID_60_" class="st0" d="M364.6,312.9l-0.1-3.7l5.4,4.4v-3.3"/>
		<path id="XMLID_59_" class="st0" d="M364.5,307.1v2"/>
		<path id="XMLID_58_" class="st0" d="M369.8,313.5L369.8,313.5"/>
		<path id="XMLID_57_" class="st0" d="M369.9,313.6c-3.1-0.8-5.1-2.5-5.4-4.4"/>
		<path id="XMLID_56_" class="st0" d="M369.9,318.5c-3.7-1-5.9-3.3-5.4-5.6"/>
		<path id="XMLID_55_" class="st0" d="M369.9,328.3c-7.2-1-12.3-4.8-12.3-9.1"/>
		<path id="XMLID_54_" class="st0" d="M369.9,322.6c-8.7-1.2-14-6.3-11.8-11.3c0.8-1.9,2.6-3.6,5.2-4.9"/>
	</g>
	<g>
		<path id="XMLID_53_" class="st0" d="M570.3,397.7c-0.5,0-0.5,0-0.9,0c-0.5,0.1-0.5,0.1-0.9,0.2c-0.2,0.1-0.2,0.1-0.4,0.1"/>
		<path id="XMLID_52_" class="st0" d="M561.1,397.9v-1.4"/>
		<path id="XMLID_51_" class="st0" d="M572.1,397.5v-2.4l0.9,1.8l-2.4,1.4l-3.2-0.5l-0.9-1.9l2.4-1.4v2.8l-0.8,0.5"/>
		<path id="XMLID_50_" class="st0" d="M568.9,394.6l3.2,0.5"/>
		<path id="XMLID_49_" class="st0" d="M568.9,397.5l2.6,0.4"/>
		<path id="XMLID_48_" class="st0" d="M571.2,397.9l-0.1,0.2"/>
		<path id="XMLID_47_" class="st0" d="M578.5,396.5v0.9"/>
		<path id="XMLID_46_" class="st0" d="M577.6,399.8L577.6,399.8"/>
		<path id="XMLID_45_" class="st0" d="M571.3,398L571.3,398l-0.8-0.2l-0.2,0"/>
		<path id="XMLID_44_" class="st0" d="M564.1,401.7c-2.2-1.1-3.3-2.8-2.9-4.5"/>
		<ellipse id="XMLID_43_" class="st0" cx="569.8" cy="396.5" rx="8.7" ry="5"/>
	</g>
	<g>
		<path id="XMLID_42_" class="st0" d="M316,160.3c0,0.7,0,0.9,0,1.7c-0.2,0.9-0.2,0.9-0.5,1.8c-0.4,0.9-0.4,0.9-0.9,1.8
			c-0.6,0.8-0.6,0.8-1.2,1.6c-0.7,0.6-0.7,0.6-1.4,1.2"/>
		<path id="XMLID_41_" class="st0" d="M312.9,157.1l1.6,1l0.1,0.1l0.9,0.8l0,0.1l0.5,1.3"/>
		<path id="XMLID_40_" class="st0" d="M312,168.6L312,168.6l-1.5,0.7l-1.4,0.1l-0.1,0l-1.1-0.5l-1.4-0.8"/>
		<path id="XMLID_39_" class="st0" d="M312,168.6L312,168.6l-0.3,0.1l-1.2,0.6l-0.3,0l-1.1,0.1l-0.2-0.1l-0.8-0.4l-0.2-0.2l-0.5-0.9
			l-0.1-0.3l-0.2-1.3v-0.3l0.2-1.5l0.1-0.3l0.6-1.5l0.1-0.3l0.9-1.4l0.2-0.3l1.1-1.2l0.2-0.2l1.2-0.8l0.2-0.1l1.2-0.3h0.2l1,0.2
			l0.1,0.1l0.7,0.7l0.1,0.2l0.4,1.1"/>
		<path id="XMLID_38_" class="st0" d="M309.6,166.4l2.1,0.2l2.1-2.6v-2.8l-2.1-0.2l-2.1,2.6V166.4"/>
		<path id="XMLID_37_" class="st0" d="M309.6,165.3l2.1,1.2"/>
		<path id="XMLID_36_" class="st0" d="M313.8,163.9l-2.1-1.2l-2.1,2.5"/>
		<path id="XMLID_35_" class="st0" d="M311.7,162.7V161"/>
		<path id="XMLID_34_" class="st0" d="M311.7,161.3l-0.3,0"/>
		<path id="XMLID_33_" class="st0" d="M311.7,161c0.1,1.2-0.7,2.9-1.8,3.7c-0.1,0.1-0.2,0.1-0.2,0.2"/>
	</g>
	<g>
		<path id="XMLID_32_" class="st0" d="M316.1,387.7c-0.1,0.9-0.1,0.9-0.3,1.8c-0.3,0.9-0.3,1-0.7,1.9c-0.5,0.9-0.5,0.9-1.1,1.7
			c-0.6,0.7-0.6,0.7-1.3,1.5c-0.7,0.5-0.7,0.5-1.5,1"/>
		<path id="XMLID_31_" class="st0" d="M316.1,387.6L316.1,387.6L316.1,387.6"/>
		<path id="XMLID_30_" class="st0" d="M311.3,395.5L311.3,395.5l-1.5,0.5h-0.1l-1.2-0.2l-0.1,0l-1.9-1.1"/>
		<path id="XMLID_29_" class="st0" d="M312.8,383.6l2.2,1.3l0.1,0.1l0.7,1.1l0,0.1l0.3,1.5v0l-0.2-1.3l-0.1-0.2l-0.5-0.9l-0.1-0.1
			l-0.9-0.5l-0.2-0.1l-1.1,0.1l-0.2,0l-1.2,0.5l-0.3,0.2l-1.2,1l-0.2,0.2l-1,1.3l-0.2,0.3l-0.8,1.5l-0.1,0.3l-0.4,1.5l0,0.3
			l-0.1,1.4l0.1,0.3l0.4,1.1l0.1,0.2l0.7,0.7l0.2,0.1l1,0.2l0.3,0l1.1-0.3l0.3-0.1"/>
		<path id="XMLID_28_" class="st0" d="M311.7,393l-2.1-0.2v-2.8l2.1-2.6l2.1,0.2v2.8L311.7,393l-2.1-1.2"/>
		<path id="XMLID_27_" class="st0" d="M309.6,391.8l2.1-2.6v-1.7"/>
		<path id="XMLID_26_" class="st0" d="M309.6,390.3l0.5,0.8"/>
		<path id="XMLID_25_" class="st0" d="M313.8,390.4l-2.1-1.2"/>
		<path id="XMLID_24_" class="st0" d="M311.6,388.6l-0.8-0.1"/>
		<path id="XMLID_23_" class="st0" d="M311.7,387.5c0.1,1.2-0.7,2.9-1.8,3.7c-0.1,0.1-0.2,0.1-0.2,0.2"/>
	</g>
	<g>
		<path id="XMLID_22_" class="st0" d="M316.1,123.4c-0.1,0.9-0.1,0.9-0.3,1.8c-0.3,1-0.3,1-0.7,1.9c-0.5,0.9-0.5,0.9-1.1,1.7
			c-0.6,0.7-0.6,0.7-1.3,1.5c-0.7,0.5-0.7,0.5-1.5,1"/>
		<path id="XMLID_21_" class="st0" d="M312.8,119.3l2.2,1.3l0.1,0.1l0.7,1.1l0,0.1l0.3,1.5v0.1"/>
		<path id="XMLID_20_" class="st0" d="M311.3,131.2L311.3,131.2l-1.5,0.5h-0.1l-1.2-0.2l-0.1,0l-1.9-1.1"/>
		<path id="XMLID_19_" class="st0" d="M316.1,123.4l-0.2-1.3l-0.1-0.2l-0.5-0.9l-0.1-0.1l-0.9-0.5l-0.2-0.1l-1.1,0.1l-0.2,0
			l-1.2,0.5l-0.3,0.2l-1.2,1l-0.2,0.2l-1,1.3l-0.2,0.3l-0.8,1.5l-0.1,0.4l-0.4,1.5l0,0.3l-0.1,1.4l0.1,0.3l0.4,1.1l0.1,0.2l0.7,0.7
			l0.2,0.1l1,0.2l0.3,0l1.1-0.3l0.3-0.1"/>
		<path id="XMLID_18_" class="st0" d="M310.4,128.7l-0.8-0.1v-2.8l2.1-2.6l2.1,0.2v2.8l-2.1,2.6L310.4,128.7"/>
		<path id="XMLID_17_" class="st0" d="M309.6,127.6l2.1,1.2"/>
		<path id="XMLID_16_" class="st0" d="M309.6,127.5l2.1-2.6v-1.7"/>
		<path id="XMLID_15_" class="st0" d="M310.1,126.8l-0.5-0.8"/>
		<path id="XMLID_14_" class="st0" d="M311.7,124.9l2.1,1.2"/>
		<path id="XMLID_13_" class="st0" d="M311.6,124.4l-0.8-0.1"/>
		<path id="XMLID_12_" class="st0" d="M311.7,123.3c0.1,1.2-0.7,2.9-1.8,3.7c-0.1,0.1-0.2,0.1-0.2,0.2"/>
	</g>
	<g>
		<path id="XMLID_11_" class="st0" d="M316.1,349.9c-0.1,0.9-0.1,0.9-0.3,1.8c-0.3,0.9-0.3,0.9-0.7,1.9c-0.5,0.9-0.5,0.9-1.1,1.7
			c-0.6,0.7-0.6,0.7-1.3,1.4c-0.7,0.5-0.7,0.5-1.5,1"/>
		<path id="XMLID_10_" class="st0" d="M312.8,345.8l2.2,1.3l0.1,0.1l0.7,1.1l0,0.1l0.3,1.5v0.1"/>
		<path id="XMLID_9_" class="st0" d="M311.3,357.7L311.3,357.7l-1.5,0.5h-0.1l-1.2-0.2l-0.1,0l-1.9-1.1"/>
		<path id="XMLID_8_" class="st0" d="M316.1,349.9l-0.2-1.3l-0.1-0.3l-0.5-0.9l-0.1-0.2l-0.9-0.5l-0.2-0.1l-1.1,0l-0.2,0.1l-1.2,0.5
			l-0.3,0.1l-1.2,1l-0.2,0.2l-1,1.3l-0.2,0.3l-0.8,1.5l-0.1,0.4l-0.4,1.5l0,0.4l-0.1,1.4l0.1,0.3l0.4,1.1l0.1,0.2l0.7,0.7l0.2,0.1
			l1,0.2h0.3l1.1-0.3l0.3-0.1"/>
		<path id="XMLID_7_" class="st0" d="M311.7,355.3l-2.1-0.2v-2.8l2.1-2.6l2.1,0.2v2.8L311.7,355.3l-2.1-1.2"/>
		<path id="XMLID_6_" class="st0" d="M311.7,349.8v1.7l-2.1,2.5"/>
		<path id="XMLID_5_" class="st0" d="M309.6,352.5l0.5,0.8"/>
		<path id="XMLID_4_" class="st0" d="M313.8,352.7l-2.1-1.2"/>
		<path id="XMLID_3_" class="st0" d="M311.6,350.9l-0.8-0.1"/>
		<path id="XMLID_2_" class="st0" d="M311.7,349.8c0.1,1.2-0.7,2.9-1.8,3.7c-0.1,0.1-0.2,0.1-0.2,0.2"/>
	</g>
</g>
<g id="XMLID_348_">
	<g id="XMLID_351_">
		<path id="XMLID_367_" d="M813.4,3c14,0,25.5,11.4,25.5,25.5v538.3c0,14-11.4,25.5-25.5,25.5H28.5c-14,0-25.5-11.4-25.5-25.5V28.5
			C3,14.4,14.4,3,28.5,3H813.4 M813.4,0H28.5C12.8,0,0,12.8,0,28.5v538.3c0,15.7,12.8,28.5,28.5,28.5h784.9
			c15.7,0,28.5-12.8,28.5-28.5V28.5C841.9,12.8,829.1,0,813.4,0L813.4,0z"/>
	</g>
	<g id="XMLID_350_">
		<path id="XMLID_380_" d="M1.5,83.5V28.5c0-14.9,12.1-27,27-27h55.1v55.1c0,14.9-12.1,27-27,27H1.5z"/>
		<g id="XMLID_376_">
			<path id="XMLID_377_" d="M82,3v53.6C82,70.6,70.6,82,56.6,82H3V28.5C3,14.4,14.4,3,28.5,3H82 M85,0H28.5C12.8,0,0,12.8,0,28.5V85
				h56.6C72.2,85,85,72.2,85,56.6V0L85,0z"/>
		</g>
	</g>
	<g id="XMLID_352_">
		<path id="XMLID_353_" class="st1" d="M46.8,32c0-0.5-0.2-1.1-0.6-1.8c-0.7-1.1-1.8-1.6-3.3-1.6c-2.2,0-3.7,1.2-4.6,3.7
			c-0.5,1.3-0.8,3.3-1,6c0.8-1,1.8-1.7,2.9-2.2s2.3-0.7,3.8-0.7c3,0,5.5,1,7.4,3.1s2.9,4.7,2.9,7.9c0,3.2-0.9,6-2.8,8.4
			s-4.8,3.6-8.8,3.6c-4.3,0-7.4-1.8-9.5-5.4c-1.6-2.8-2.4-6.4-2.4-10.8c0-2.6,0.1-4.7,0.3-6.3c0.4-2.9,1.1-5.3,2.3-7.2
			c1-1.6,2.2-3,3.8-4s3.4-1.5,5.6-1.5c3.2,0,5.7,0.8,7.5,2.4s2.9,3.8,3.2,6.5H46.8z M38.9,51.1c1,1.2,2.2,1.7,3.8,1.7
			c1.5,0,2.7-0.6,3.5-1.7s1.3-2.6,1.3-4.3c0-2-0.5-3.5-1.5-4.6s-2.2-1.6-3.6-1.6c-1.1,0-2.1,0.3-3,1c-1.3,1-2,2.7-2,4.9
			C37.4,48.5,37.9,50,38.9,51.1z"/>
	</g>
</g>
</svg>
