<?xml version="1.0" encoding="utf-8"?>
<!-- Generator: Adobe Illustrator 19.0.0, SVG Export Plug-In . SVG Version: 6.00 Build 0)  -->
<svg version="1.0" id="Layer_1" xmlns="http://www.w3.org/2000/svg" xmlns:xlink="http://www.w3.org/1999/xlink" x="0px" y="0px"
	 width="841.9px" height="595.3px" viewBox="0 -0.02 841.9 595.3" enable-background="new 0 -0.02 841.9 595.3"
	 xml:space="preserve">
<g id="XMLID_1_">
	<g>
		<path id="XMLID_263_" fill="none" stroke="#0B0620" stroke-width="0.5" stroke-linecap="round" stroke-linejoin="round" d="
			M112.5,512.28c-0.4-0.3-0.4-0.3-0.8-0.7c-0.1-0.2-0.1-0.3-0.3-0.5c-0.1-0.5-0.1-0.5-0.3-1"/>
		<path id="XMLID_262_" fill="none" stroke="#0B0620" stroke-width="0.5" stroke-linecap="round" stroke-linejoin="round" d="
			M76.8,485.58v-24.5"/>
		<path id="XMLID_261_" fill="none" stroke="#0B0620" stroke-width="0.5" stroke-linecap="round" stroke-linejoin="round" d="
			M94,501.58l-11.9-6.9"/>
		<path id="XMLID_260_" fill="none" stroke="#0B0620" stroke-width="0.5" stroke-linecap="round" stroke-linejoin="round" d="
			M81.9,445.98l6.8-3.9l-0.9,0.5"/>
		<path id="XMLID_259_" fill="none" stroke="#0B0620" stroke-width="0.5" stroke-linecap="round" stroke-linejoin="round" d="
			M87.8,489.88l10.2-5.9"/>
		<path id="XMLID_258_" fill="none" stroke="#0B0620" stroke-width="0.5" stroke-linecap="round" stroke-linejoin="round" d="
			M87.4,484.58v4"/>
		<path id="XMLID_257_" fill="none" stroke="#0B0620" stroke-width="0.5" stroke-linecap="round" stroke-linejoin="round" d="
			M92.7,481.18l-5.1,2.9"/>
		<path id="XMLID_256_" fill="none" stroke="#0B0620" stroke-width="0.5" stroke-linecap="round" stroke-linejoin="round" d="
			M89.2,482.98l2.7-1.6l-4.1,2.4"/>
		<path id="XMLID_255_" fill="none" stroke="#0B0620" stroke-width="0.5" stroke-linecap="round" stroke-linejoin="round" d="
			M88.7,490.88l5.3,3.1"/>
		<path id="XMLID_254_" fill="none" stroke="#0B0620" stroke-width="0.5" stroke-linecap="round" stroke-linejoin="round" d="
			M101.6,434.58l3.2-1.9l-16.2,9.4"/>
		<path id="XMLID_253_" fill="none" stroke="#0B0620" stroke-width="0.5" stroke-linecap="round" stroke-linejoin="round" d="
			M94.9,501.68l0.1-0.1l-0.3,0.1"/>
		<path id="XMLID_252_" fill="none" stroke="#0B0620" stroke-width="0.5" stroke-linecap="round" stroke-linejoin="round" d="
			M95.1,501.58l16.7-9.6l1.6,0.9"/>
		<path id="XMLID_251_" fill="none" stroke="#0B0620" stroke-width="0.5" stroke-linecap="round" stroke-linejoin="round" d="
			M94.9,494.98l11-6.3"/>
		<path id="XMLID_250_" fill="none" stroke="#0B0620" stroke-width="0.5" stroke-linecap="round" stroke-linejoin="round" d="
			M91.9,481.38l0.4-0.2"/>
		<path id="XMLID_249_" fill="none" stroke="#0B0620" stroke-width="0.5" stroke-linecap="round" stroke-linejoin="round" d="
			M93.2,481.28l18.5,10.7"/>
		<path id="XMLID_248_" fill="none" stroke="#0B0620" stroke-width="0.5" stroke-linecap="round" stroke-linejoin="round" d="
			M95.3,500.78v-4.6"/>
		<path id="XMLID_247_" fill="none" stroke="#0B0620" stroke-width="0.5" stroke-linecap="round" stroke-linejoin="round" d="
			M104.8,432.78l9.7-5.6l-3.2,1.9"/>
		<path id="XMLID_246_" fill="none" stroke="#0B0620" stroke-width="0.5" stroke-linecap="round" stroke-linejoin="round" d="
			M111.2,509.98v-4.6"/>
		<path id="XMLID_245_" fill="none" stroke="#0B0620" stroke-width="0.5" stroke-linecap="round" stroke-linejoin="round" d="
			M112.5,512.28l11.9,6.9"/>
		<path id="XMLID_244_" fill="none" stroke="#0B0620" stroke-width="0.5" stroke-linecap="round" stroke-linejoin="round" d="
			M117.9,507.68l-5.3-3.1"/>
		<path id="XMLID_243_" fill="none" stroke="#0B0620" stroke-width="0.5" stroke-linecap="round" stroke-linejoin="round" d="
			M111.5,504.68l3.1-1.8l-2.8,1.6"/>
		<path id="XMLID_242_" fill="none" stroke="#0B0620" stroke-width="0.5" stroke-linecap="round" stroke-linejoin="round" d="
			M111.5,504.68l6.8-3.9l-4-6.9"/>
		<path id="XMLID_241_" fill="none" stroke="#0B0620" stroke-width="0.5" stroke-linecap="round" stroke-linejoin="round" d="
			M114.6,427.18l6.5-3.7l-3.2,1.9"/>
		<path id="XMLID_240_" fill="none" stroke="#0B0620" stroke-width="0.5" stroke-linecap="round" stroke-linejoin="round" d="
			M119.2,506.98v-4.4l-0.9-1.8"/>
		<path id="XMLID_239_" fill="none" stroke="#0B0620" stroke-width="0.5" stroke-linecap="round" stroke-linejoin="round" d="
			M118.9,507.68l-0.1,0.1"/>
		<path id="XMLID_238_" fill="none" stroke="#0B0620" stroke-width="0.5" stroke-linecap="round" stroke-linejoin="round" d="
			M124.1,421.58l-3.1,1.8l3.3-1.9L124.1,421.58"/>
		<path id="XMLID_237_" fill="none" stroke="#0B0620" stroke-width="0.5" stroke-linecap="round" stroke-linejoin="round" d="
			M391.8,266.68l1.2-0.8l-268.7,155.7L392,266.98"/>
		<path id="XMLID_236_" fill="none" stroke="#0B0620" stroke-width="0.5" stroke-linecap="round" stroke-linejoin="round" d="
			M128.1,519.48l1.3-0.8l-1.9,1.1"/>
		<path id="XMLID_235_" fill="none" stroke="#0B0620" stroke-width="0.5" stroke-linecap="round" stroke-linejoin="round" d="
			M128.7,519.08l244.9-141.4"/>
		<path id="XMLID_234_" fill="none" stroke="#0B0620" stroke-width="0.5" stroke-linecap="round" stroke-linejoin="round" d="
			M129.8,516.08v-24.5"/>
		<path id="XMLID_233_" fill="none" stroke="#0B0620" stroke-width="0.5" stroke-linecap="round" stroke-linejoin="round" d="
			M374.9,376.98l141.2-81.5l-0.2,0.1"/>
		<path id="XMLID_232_" fill="none" stroke="#0B0620" stroke-width="0.5" stroke-linecap="round" stroke-linejoin="round" d="
			M398,269.68l-2.5-3.7"/>
		<path id="XMLID_231_" fill="none" stroke="#0B0620" stroke-width="0.5" stroke-linecap="round" stroke-linejoin="round" d="
			M393,265.88l0.7-0.7l0.7-1.4l0.3-2.1"/>
		<path id="XMLID_230_" fill="none" stroke="#0B0620" stroke-width="0.5" stroke-linecap="round" stroke-linejoin="round" d="
			M414.8,277.08l-6.5-1.5"/>
		<path id="XMLID_229_" fill="none" stroke="#0B0620" stroke-width="0.5" stroke-linecap="round" stroke-linejoin="round" d="
			M425,247.48l298-171.6"/>
		<path id="XMLID_228_" fill="none" stroke="#0B0620" stroke-width="0.5" stroke-linecap="round" stroke-linejoin="round" d="
			M427.1,247.68l6.6,1.5"/>
		<path id="XMLID_227_" fill="none" stroke="#0B0620" stroke-width="0.5" stroke-linecap="round" stroke-linejoin="round" d="
			M431.3,248.28h0.4l-2.4-0.1l1.3-0.1l-1.3,0.1"/>
		<path id="XMLID_226_" fill="none" stroke="#0B0620" stroke-width="0.5" stroke-linecap="round" stroke-linejoin="round" d="
			M439.4,279.28l-0.2-6.1"/>
		<path id="XMLID_225_" fill="none" stroke="#0B0620" stroke-width="0.5" stroke-linecap="round" stroke-linejoin="round" d="
			M446.4,258.78l-2.5-3.7"/>
		<path id="XMLID_224_" fill="none" stroke="#0B0620" stroke-width="0.5" stroke-linecap="round" stroke-linejoin="round" d="
			M516.1,295.48l246.8-142.5"/>
		<path id="XMLID_223_" fill="none" stroke="#0B0620" stroke-width="0.5" stroke-linecap="round" stroke-linejoin="round" d="
			M762.9,152.98l-0.2,0.1l1.4-0.8"/>
		<path id="XMLID_222_" fill="none" stroke="#0B0620" stroke-width="0.5" stroke-linecap="round" stroke-linejoin="round" d="
			M765.1,149.28v-24.5"/>
		<path id="XMLID_221_" fill="none" stroke="#0B0620" stroke-width="0.5" stroke-linecap="round" stroke-linejoin="round" d="
			M111.2,505.38l0.3-0.8l0.3-0.2h0.4l0.4,0.2"/>
		<path id="XMLID_220_" fill="none" stroke="#0B0620" stroke-width="0.5" stroke-linecap="round" stroke-linejoin="round" d="
			M114.3,493.88l-0.9-1"/>
		<path id="XMLID_219_" fill="none" stroke="#0B0620" stroke-width="0.5" stroke-linecap="round" stroke-linejoin="round" d="
			M93.2,481.28l-0.3-0.1l-0.6,0.1"/>
		<path id="XMLID_218_" fill="none" stroke="#0B0620" stroke-width="0.5" stroke-linecap="round" stroke-linejoin="round" d="
			M117.9,507.68l0.8,0.1l0.3-0.2l0.2-0.3l0.1-0.4"/>
		<path id="XMLID_217_" fill="none" stroke="#0B0620" stroke-width="0.5" stroke-linecap="round" stroke-linejoin="round" d="
			M87.8,483.78l-0.3,0.5v0.4"/>
		<path id="XMLID_216_" fill="none" stroke="#0B0620" stroke-width="0.5" stroke-linecap="round" stroke-linejoin="round" d="
			M94,493.88l0.4,0.3l0.7,0.9l0.3,1"/>
		<path id="XMLID_215_" fill="none" stroke="#0B0620" stroke-width="0.5" stroke-linecap="round" stroke-linejoin="round" d="
			M87.4,488.58l0.3,1l0.7,1l0.4,0.3"/>
		<path id="XMLID_214_" fill="none" stroke="#0B0620" stroke-width="0.5" stroke-linecap="round" stroke-linejoin="round" d="
			M95.3,500.78l-0.3,0.8l-0.3,0.1h-0.4l-0.4-0.2"/>
		<path id="XMLID_213_" fill="none" stroke="#0B0620" stroke-width="0.5" stroke-linecap="round" stroke-linejoin="round" d="
			M129.8,516.08c0,3.4-2.4,4.7-5.3,3.1l0,0"/>
		<path id="XMLID_212_" fill="none" stroke="#0B0620" stroke-width="0.5" stroke-linecap="round" stroke-linejoin="round" d="
			M76.8,461.08c0.1-16.8,12-23.5,26.7-15c14.5,8.5,26.2,28.8,26.3,45.5"/>
		<path id="XMLID_211_" fill="none" stroke="#0B0620" stroke-width="0.5" stroke-linecap="round" stroke-linejoin="round" d="
			M82.1,494.68c-2.9-1.7-5.3-5.8-5.3-9.2"/>
		<path id="XMLID_210_" fill="none" stroke="#0B0620" stroke-width="0.5" stroke-linecap="round" stroke-linejoin="round" d="
			M765.1,149.28c0,2-0.8,3.3-2.2,3.7"/>
		<path id="XMLID_209_" fill="none" stroke="#0B0620" stroke-width="0.5" stroke-linecap="round" stroke-linejoin="round" d="
			M395.5,265.98c-3.4-8.1,5.2-16.3,19.2-18.3c4.1-0.6,8.3-0.6,12.4,0"/>
		<path id="XMLID_208_" fill="none" stroke="#0B0620" stroke-width="0.5" stroke-linecap="round" stroke-linejoin="round" d="
			M446.4,258.78c3.4,8.1-5.2,16.3-19.2,18.3c-4.1,0.6-8.3,0.6-12.4,0"/>
		
			<ellipse id="XMLID_207_" transform="matrix(0.5 0.866 -0.866 0.5 464.1606 148.7591)" fill="none" stroke="#0B0620" stroke-width="0.5" stroke-linecap="round" stroke-linejoin="round" cx="103.249" cy="476.36" rx="9.4" ry="5.4"/>
		
			<ellipse id="XMLID_206_" fill="none" stroke="#0B0620" stroke-width="0.5" stroke-linecap="round" stroke-linejoin="round" cx="420.9" cy="262.38" rx="6.2" ry="3.6"/>
		<path id="XMLID_205_" fill="none" stroke="#0B0620" stroke-width="0.5" stroke-linecap="round" stroke-linejoin="round" d="
			M723.1,75.88c11.8-3.1,28.4,9.5,37,28.1c3.3,7.1,5.1,14.4,5.1,20.9"/>
	</g>
	<g>
		<path id="XMLID_204_" fill="none" stroke="#0B0620" stroke-width="0.5" stroke-linecap="round" stroke-linejoin="round" d="
			M418.3,153.28c-0.8,0.1-0.9,0.1-1.7,0.3c-1.4,0.7-1.4,0.7-2.7,1.5c-1,0.5-1,0.5-1.9,1c-0.3,0.2-0.3,0.2-0.7,0.5"/>
		<path id="XMLID_203_" fill="none" stroke="#0B0620" stroke-width="0.5" stroke-linecap="round" stroke-linejoin="round" d="
			M412.4,157.38c0.6-0.5,0.6-0.5,1.2-1c1-0.7,1-0.7,2-1.3c1.3-0.9,1.3-0.9,2.7-1.8"/>
		<path id="XMLID_202_" fill="none" stroke="#0B0620" stroke-width="0.5" stroke-linecap="round" stroke-linejoin="round" d="
			M419.6,154.08c-1.6,1-1.6,1-3.2,2c-1.4,0.7-1.4,0.7-2.7,1.4c-0.7,0.3-0.7,0.3-1.3,0.7"/>
		<path id="XMLID_201_" fill="none" stroke="#0B0620" stroke-width="0.5" stroke-linecap="round" stroke-linejoin="round" d="
			M412.4,158.18c0.2,0.1,0.2,0.1,0.5,0.3s0.3,0.2,0.6,0.4c0.1,0.1,0.1,0.1,0.3,0.3c0.3,0.2,0.3,0.2,0.5,0.3c0.5,0.3,0.5,0.3,1,0.6"
			/>
		<path id="XMLID_200_" fill="none" stroke="#0B0620" stroke-width="0.5" stroke-linecap="round" stroke-linejoin="round" d="
			M415.3,160.08c1.3-0.9,1.3-0.9,2.6-1.7c1.5-1.1,1.5-1.1,2.9-2.3c1.5-1.4,1.5-1.4,2.9-2.8"/>
		<path id="XMLID_199_" fill="none" stroke="#0B0620" stroke-width="0.5" stroke-linecap="round" stroke-linejoin="round" d="
			M422.5,154.08c-1.7,1.3-1.7,1.3-3.3,2.6c-1.6,1-1.6,1-3.2,1.9c-0.9,0.5-0.9,0.5-1.7,0.9"/>
		<path id="XMLID_198_" fill="none" stroke="#0B0620" stroke-width="0.5" stroke-linecap="round" stroke-linejoin="round" d="
			M411.9,155.68c0.3-0.4,0.3-0.4,0.5-0.7c0.6-0.5,0.7-0.5,1.3-1c1-0.7,1-0.7,2.1-1.4"/>
		<path id="XMLID_197_" fill="none" stroke="#0B0620" stroke-width="0.5" stroke-linecap="round" stroke-linejoin="round" d="
			M416.4,153.58c-1.3,0.7-1.3,0.7-2.7,1.4c-0.9,0.5-0.9,0.5-1.9,1c-0.3,0.2-0.3,0.2-0.7,0.5"/>
		<path id="XMLID_196_" fill="none" stroke="#0B0620" stroke-width="0.5" stroke-linecap="round" stroke-linejoin="round" d="
			M419.4,154.08c-1.6,1-1.6,1-3.2,2c-1.3,0.7-1.3,0.7-2.6,1.4c-0.6,0.3-0.6,0.3-1.2,0.7"/>
		<path id="XMLID_195_" fill="none" stroke="#0B0620" stroke-width="0.5" stroke-linecap="round" stroke-linejoin="round" d="
			M416.3,151.78c-1.3-1.7-1.3-1.7-2.6-3.5c-1-1.9-1-2-1.9-3.9c-0.2-0.7-0.2-0.7-0.4-1.4"/>
		<path id="XMLID_194_" fill="none" stroke="#0B0620" stroke-width="0.5" stroke-linecap="round" stroke-linejoin="round" d="
			M416.8,160.48c1-0.6,1-0.6,2-1.2c1.7-1.2,1.7-1.2,3.3-2.5c1.6-1.6,1.6-1.6,3.2-3.1"/>
		<path id="XMLID_193_" fill="none" stroke="#0B0620" stroke-width="0.5" stroke-linecap="round" stroke-linejoin="round" d="
			M428,152.48c-1.4,1.9-1.4,1.9-2.7,3.7c-1.6,1.6-1.6,1.6-3.3,3.1c-1,0.8-1,0.8-2.1,1.6"/>
		<path id="XMLID_192_" fill="none" stroke="#0B0620" stroke-width="0.5" stroke-linecap="round" stroke-linejoin="round" d="
			M416.8,160.48c-0.5-0.1-0.5-0.1-1-0.2c-0.3-0.1-0.3-0.1-0.5-0.2c-0.2-0.1-0.2-0.1-0.5-0.3c-0.2-0.1-0.2-0.1-0.4-0.3"/>
		<path id="XMLID_191_" fill="none" stroke="#0B0620" stroke-width="0.5" stroke-linecap="round" stroke-linejoin="round" d="
			M417.7,160.88c1.4-1.1,1.4-1.1,2.9-2.2c1.5-1.4,1.5-1.4,2.9-2.8c0.6-0.7,0.6-0.7,1.2-1.4"/>
		<path id="XMLID_190_" fill="none" stroke="#0B0620" stroke-width="0.5" stroke-linecap="round" stroke-linejoin="round" d="
			M413.5,158.88c1-0.7,1-0.7,2-1.3c1.3-0.9,1.3-0.9,2.6-1.8c1.5-1.1,1.5-1.1,2.9-2.3"/>
		<path id="XMLID_189_" fill="none" stroke="#0B0620" stroke-width="0.5" stroke-linecap="round" stroke-linejoin="round" d="
			M414.4,159.58c0.9-0.5,0.9-0.5,1.8-0.9c1.6-1,1.6-1,3.2-2c1.7-1.3,1.7-1.3,3.4-2.6"/>
		<path id="XMLID_188_" fill="none" stroke="#0B0620" stroke-width="0.5" stroke-linecap="round" stroke-linejoin="round" d="
			M419.3,152.38c-1.6-1.5-1.6-1.5-3.1-3c-1.3-1.7-1.3-1.7-2.6-3.5c-0.5-0.9-0.5-0.9-1-1.7"/>
		<path id="XMLID_187_" fill="none" stroke="#0B0620" stroke-width="0.5" stroke-linecap="round" stroke-linejoin="round" d="
			M419,152.28c-1.5-1.5-1.5-1.5-3-3c-1.3-1.7-1.3-1.8-2.6-3.5c-0.5-0.9-0.5-0.9-0.9-1.7"/>
		<path id="XMLID_186_" fill="none" stroke="#0B0620" stroke-width="0.5" stroke-linecap="round" stroke-linejoin="round" d="
			M414.9,145.28c0.7,0.9,0.7,0.9,1.4,1.7c1.5,1.5,1.5,1.5,3.1,2.9c1.6,1.2,1.6,1.2,3.2,2.4"/>
		<path id="XMLID_185_" fill="none" stroke="#0B0620" stroke-width="0.5" stroke-linecap="round" stroke-linejoin="round" d="
			M426.3,139.18c-0.5-0.6-0.5-0.6-1.1-1.1c-0.8-0.4-0.8-0.4-1.6-0.8c-1-0.3-1-0.3-2-0.5c-1-0.1-1-0.1-2-0.1c-1,0.2-1,0.2-1.9,0.4
			c-0.7,0.3-0.7,0.3-1.5,0.7"/>
		<path id="XMLID_184_" fill="none" stroke="#0B0620" stroke-width="0.5" stroke-linecap="round" stroke-linejoin="round" d="
			M425.3,137.48c-0.8-0.4-0.8-0.4-1.6-0.8c-1-0.3-1-0.3-2-0.5c-1,0-1,0-2-0.1c-0.9,0.2-0.9,0.2-1.9,0.3c-0.8,0.3-0.8,0.3-1.5,0.7"/>
		<path id="XMLID_183_" fill="none" stroke="#0B0620" stroke-width="0.5" stroke-linecap="round" stroke-linejoin="round" d="
			M417,160.48c1-0.7,1-0.7,2-1.3c1.7-1.2,1.7-1.2,3.4-2.6c1.6-1.6,1.6-1.6,3.2-3.2"/>
		<path id="XMLID_182_" fill="none" stroke="#0B0620" stroke-width="0.5" stroke-linecap="round" stroke-linejoin="round" d="
			M425.3,151.88c-1.5-0.9-1.5-0.9-3.1-1.9c-1.6-1.2-1.6-1.2-3.2-2.4c-0.8-0.7-0.8-0.7-1.6-1.4"/>
		<path id="XMLID_181_" fill="none" stroke="#0B0620" stroke-width="0.5" stroke-linecap="round" stroke-linejoin="round" d="
			M423.1,140.98c-0.8-0.2-0.8-0.2-1.6-0.4c-1,0-1,0-2,0c-0.7,0.1-0.7,0.1-1.3,0.3"/>
		<path id="XMLID_180_" fill="none" stroke="#0B0620" stroke-width="0.5" stroke-linecap="round" stroke-linejoin="round" d="
			M417.7,140.38c0.9-0.2,1-0.2,1.9-0.3c1,0,1,0,2,0c1,0.2,1,0.2,2,0.4c0.3,0.1,0.3,0.1,0.5,0.3"/>
		<path id="XMLID_179_" fill="none" stroke="#0B0620" stroke-width="0.5" stroke-linecap="round" stroke-linejoin="round" d="
			M416.3,139.78c0.7-0.4,0.7-0.4,1.4-0.7c0.9-0.2,1-0.2,1.9-0.4c1,0,1,0,2,0c1,0.2,1,0.2,2,0.5c0.8,0.4,0.8,0.4,1.6,0.8
			c0.2,0.1,0.2,0.1,0.3,0.3"/>
		<path id="XMLID_178_" fill="none" stroke="#0B0620" stroke-width="0.5" stroke-linecap="round" stroke-linejoin="round" d="
			M425.9,140.08c-0.3-0.3-0.3-0.3-0.7-0.7c-0.8-0.4-0.8-0.4-1.6-0.8c-1-0.2-1-0.2-2-0.5c-1,0-1,0-2,0c-1,0.1-1,0.1-1.9,0.3
			c-0.7,0.3-0.7,0.3-1.5,0.7"/>
		<path id="XMLID_177_" fill="none" stroke="#0B0620" stroke-width="0.5" stroke-linecap="round" stroke-linejoin="round" d="
			M430.8,149.18c-0.5,2.2-0.5,2.2-1,4.5c-1,2.1-1,2.1-2,4.1c-0.8,1.2-0.8,1.2-1.7,2.4"/>
		<path id="XMLID_176_" fill="none" stroke="#0B0620" stroke-width="0.5" stroke-linecap="round" stroke-linejoin="round" d="
			M428.2,150.68c-1.3-0.7-1.3-0.7-2.6-1.3c-1.5-0.9-1.5-0.9-3.1-1.8c-0.8-0.6-0.8-0.6-1.6-1.1"/>
		<path id="XMLID_175_" fill="none" stroke="#0B0620" stroke-width="0.5" stroke-linecap="round" stroke-linejoin="round" d="
			M420.6,146.38c0.8,0.6,0.8,0.6,1.6,1.2c1.5,0.9,1.5,0.9,3.1,1.9c1.3,0.7,1.3,0.7,2.6,1.3"/>
		<path id="XMLID_174_" fill="none" stroke="#0B0620" stroke-width="0.5" stroke-linecap="round" stroke-linejoin="round" d="
			M426,150.68c-1.2-0.8-1.2-0.8-2.5-1.7c-1.4-1.1-1.4-1.1-2.7-2.2c-0.4-0.4-0.4-0.4-0.8-0.8"/>
		<path id="XMLID_173_" fill="none" stroke="#0B0620" stroke-width="0.5" stroke-linecap="round" stroke-linejoin="round" d="
			M419.7,134.88c1,0,1,0,2,0.1c1,0.2,1,0.2,2,0.5c0.8,0.4,0.8,0.4,1.6,0.8"/>
		<path id="XMLID_172_" fill="none" stroke="#0B0620" stroke-width="0.5" stroke-linecap="round" stroke-linejoin="round" d="
			M426.7,134.78c-0.8-0.5-0.8-0.6-1.6-1.1c-1-0.4-1-0.3-2.1-0.7c-0.1,0-0.1,0-0.1,0c-1.3-0.1-1.3-0.1-2.7-0.3"/>
		<path id="XMLID_171_" fill="none" stroke="#0B0620" stroke-width="0.5" stroke-linecap="round" stroke-linejoin="round" d="
			M423,160.78c1-1,1-1,2-2c1.4-1.8,1.4-1.8,2.8-3.7c1-2,1-2,2-4.1"/>
		<path id="XMLID_170_" fill="none" stroke="#0B0620" stroke-width="0.5" stroke-linecap="round" stroke-linejoin="round" d="
			M428.3,159.08c0.7-1.3,0.7-1.3,1.2-2.6c0.6-2.2,0.7-2.2,1.2-4.4c0.1-1.3,0.1-1.3,0-2.6"/>
		<path id="XMLID_169_" fill="none" stroke="#0B0620" stroke-width="0.5" stroke-linecap="round" stroke-linejoin="round" d="
			M424.1,146.18c0.7,0.4,0.7,0.4,1.5,0.9c1.3,0.7,1.3,0.7,2.6,1.3c0.9,0.5,0.9,0.5,1.9,0.9"/>
		<path id="XMLID_168_" fill="none" stroke="#0B0620" stroke-width="0.5" stroke-linecap="round" stroke-linejoin="round" d="
			M423.8,146.18c0.8,0.5,0.8,0.5,1.5,0.9c1.3,0.7,1.3,0.7,2.6,1.3c1,0.5,1,0.5,2,0.9"/>
		<path id="XMLID_167_" fill="none" stroke="#0B0620" stroke-width="0.5" stroke-linecap="round" stroke-linejoin="round" d="
			M425.9,160.18c0.9-1.2,0.9-1.2,1.7-2.4c1.1-2,1.1-2,2.1-4.1c0.6-2.2,0.6-2.2,1.1-4.4"/>
		<path id="XMLID_166_" fill="none" stroke="#0B0620" stroke-width="0.5" stroke-linecap="round" stroke-linejoin="round" d="
			M430.8,150.28c0,1.8,0,1.8-0.1,3.7c0,0.3,0,0.3,0,0.7c-0.3,1.4-0.3,1.4-0.6,2.8"/>
		<path id="XMLID_165_" fill="none" stroke="#0B0620" stroke-width="0.5" stroke-linecap="round" stroke-linejoin="round" d="
			M428.4,158.98c0.7-1.3,0.7-1.3,1.2-2.6c0.6-2.2,0.6-2.2,1.1-4.4c0-0.3,0-0.3,0-0.7c0-0.9,0-0.9,0-1.9"/>
		<path id="XMLID_164_" fill="none" stroke="#0B0620" stroke-width="0.5" stroke-linecap="round" stroke-linejoin="round" d="
			M427,145.28c0.6,0.3,0.6,0.3,1.2,0.6c0.9,0.5,0.9,0.5,1.9,0.9c0.5,0.3,0.5,0.3,1,0.6"/>
		<path id="XMLID_163_" fill="none" stroke="#0B0620" stroke-width="0.5" stroke-linecap="round" stroke-linejoin="round" d="
			M429.3,148.18c-0.7-0.5-0.7-0.5-1.3-1c-1-0.6-1-0.6-2-1.3c-0.3-0.2-0.3-0.2-0.5-0.3"/>
		<path id="XMLID_162_" fill="none" stroke="#0B0620" stroke-width="0.5" stroke-linecap="round" stroke-linejoin="round" d="
			M426.7,145.38c0.6,0.3,0.6,0.3,1.2,0.6c1,0.5,1,0.5,2,0.9c0.5,0.3,0.5,0.3,1.1,0.6"/>
		<path id="XMLID_161_" fill="none" stroke="#0B0620" stroke-width="0.5" stroke-linecap="round" stroke-linejoin="round" d="
			M430,146.58c-0.3-0.4-0.3-0.4-0.7-0.8c-0.7-0.5-0.7-0.5-1.3-1c-0.1-0.1-0.1-0.1-0.1-0.1"/>
		<path id="XMLID_160_" fill="none" stroke="#0B0620" stroke-width="0.5" stroke-linecap="round" stroke-linejoin="round" d="
			M412.4,158.18v1.9"/>
		<path id="XMLID_159_" fill="none" stroke="#0B0620" stroke-width="0.5" stroke-linecap="round" stroke-linejoin="round" d="
			M411.7,161.88v-2.4"/>
		<path id="XMLID_158_" fill="none" stroke="#0B0620" stroke-width="0.5" stroke-linecap="round" stroke-linejoin="round" d="
			M411.2,156.48l0.5,0.4l0.7,0.5"/>
		<path id="XMLID_157_" fill="none" stroke="#0B0620" stroke-width="0.5" stroke-linecap="round" stroke-linejoin="round" d="
			M418.3,153.28l1.1,0.8h0.2"/>
		<path id="XMLID_156_" fill="none" stroke="#0B0620" stroke-width="0.5" stroke-linecap="round" stroke-linejoin="round" d="
			M423.8,153.28l-1,0.8h-0.2"/>
		<path id="XMLID_155_" fill="none" stroke="#0B0620" stroke-width="0.5" stroke-linecap="round" stroke-linejoin="round" d="
			M414.3,159.48l0.1,0.1l0.4,0.3"/>
		<path id="XMLID_154_" fill="none" stroke="#0B0620" stroke-width="0.5" stroke-linecap="round" stroke-linejoin="round" d="
			M412.4,157.38l-0.1,0.3v0.4l0.1,0.1"/>
		<path id="XMLID_153_" fill="none" stroke="#0B0620" stroke-width="0.5" stroke-linecap="round" stroke-linejoin="round" d="
			M415.8,152.58l0.6,1"/>
		<path id="XMLID_152_" fill="none" stroke="#0B0620" stroke-width="0.5" stroke-linecap="round" stroke-linejoin="round" d="
			M411.2,156.38l1-1"/>
		<path id="XMLID_151_" fill="none" stroke="#0B0620" stroke-width="0.5" stroke-linecap="round" stroke-linejoin="round" d="
			M412.4,157.38L412.4,157.38"/>
		<path id="XMLID_150_" fill="none" stroke="#0B0620" stroke-width="0.5" stroke-linecap="round" stroke-linejoin="round" d="
			M411.2,156.38v0.1"/>
		<path id="XMLID_149_" fill="none" stroke="#0B0620" stroke-width="0.5" stroke-linecap="round" stroke-linejoin="round" d="
			M411.9,153.28l0.6-0.8l1.3-1l0.1,1l0.2,0.1l-2,1l-1,0.7v0.4l0.5,0.5l0.4,0.5"/>
		<path id="XMLID_148_" fill="none" stroke="#0B0620" stroke-width="0.5" stroke-linecap="round" stroke-linejoin="round" d="
			M413.9,152.48l-1.9,1l-0.7,0.6l1.1-1.1"/>
		<path id="XMLID_147_" fill="none" stroke="#0B0620" stroke-width="0.5" stroke-linecap="round" stroke-linejoin="round" d="
			M411,154.68v-0.5l0.2-0.2"/>
		<path id="XMLID_146_" fill="none" stroke="#0B0620" stroke-width="0.5" stroke-linecap="round" stroke-linejoin="round" d="
			M411.7,152.98l0.3,0.3"/>
		<path id="XMLID_145_" fill="none" stroke="#0B0620" stroke-width="0.5" stroke-linecap="round" stroke-linejoin="round" d="
			M411.1,149.88v0.1v-0.7v0.1V149.88"/>
		<path id="XMLID_144_" fill="none" stroke="#0B0620" stroke-width="0.5" stroke-linecap="round" stroke-linejoin="round" d="
			M411.6,152.98l-0.5-0.4l-0.1-0.8l1-0.7l0.2-0.5l-1,1"/>
		<path id="XMLID_143_" fill="none" stroke="#0B0620" stroke-width="0.5" stroke-linecap="round" stroke-linejoin="round" d="
			M411.1,151.78l0.2-0.2"/>
		<path id="XMLID_142_" fill="none" stroke="#0B0620" stroke-width="0.5" stroke-linecap="round" stroke-linejoin="round" d="
			M412.1,150.98l0.1,0.1l1.7,0.3"/>
		<path id="XMLID_141_" fill="none" stroke="#0B0620" stroke-width="0.5" stroke-linecap="round" stroke-linejoin="round" d="
			M412.3,150.58l0.3-0.5l-1.4-0.6"/>
		<path id="XMLID_140_" fill="none" stroke="#0B0620" stroke-width="0.5" stroke-linecap="round" stroke-linejoin="round" d="
			M412.2,151.08l-1,0.7l0.1,0.7"/>
		<path id="XMLID_139_" fill="none" stroke="#0B0620" stroke-width="0.5" stroke-linecap="round" stroke-linejoin="round" d="
			M412.6,149.98l-0.7,0.9"/>
		<path id="XMLID_138_" fill="none" stroke="#0B0620" stroke-width="0.5" stroke-linecap="round" stroke-linejoin="round" d="
			M411.6,150.48l0.3,0.4"/>
		<path id="XMLID_137_" fill="none" stroke="#0B0620" stroke-width="0.5" stroke-linecap="round" stroke-linejoin="round" d="
			M411.1,149.98L411.1,149.98l0.6,0.7"/>
		<path id="XMLID_136_" fill="none" stroke="#0B0620" stroke-width="0.5" stroke-linecap="round" stroke-linejoin="round" d="
			M411.1,149.28l0.5-0.5"/>
		<path id="XMLID_135_" fill="none" stroke="#0B0620" stroke-width="0.5" stroke-linecap="round" stroke-linejoin="round" d="
			M411.4,147.88l-0.3-0.3v-0.1"/>
		<path id="XMLID_134_" fill="none" stroke="#0B0620" stroke-width="0.5" stroke-linecap="round" stroke-linejoin="round" d="
			M411.1,147.58l0.4,0.4"/>
		<path id="XMLID_133_" fill="none" stroke="#0B0620" stroke-width="0.5" stroke-linecap="round" stroke-linejoin="round" d="
			M410.8,145.08v2.4l0.5,0.2"/>
		<path id="XMLID_132_" fill="none" stroke="#0B0620" stroke-width="0.5" stroke-linecap="round" stroke-linejoin="round" d="
			M410.8,147.38l-0.1-0.2v-2.3"/>
		<path id="XMLID_131_" fill="none" stroke="#0B0620" stroke-width="0.5" stroke-linecap="round" stroke-linejoin="round" d="
			M410.8,142.58v2.2l0.9,4.2l0.1,0.2l-1-4.1V142.58"/>
		<path id="XMLID_130_" fill="none" stroke="#0B0620" stroke-width="0.5" stroke-linecap="round" stroke-linejoin="round" d="
			M411.8,149.18l1.1,0.1"/>
		<path id="XMLID_129_" fill="none" stroke="#0B0620" stroke-width="0.5" stroke-linecap="round" stroke-linejoin="round" d="
			M410.8,142.58L410.8,142.58l1,4.2l1.9,3.9l-0.2-0.1l-1.8-3.9L410.8,142.58"/>
		<path id="XMLID_128_" fill="none" stroke="#0B0620" stroke-width="0.5" stroke-linecap="round" stroke-linejoin="round" d="
			M411.4,143.18l0.3,1.1l1.8,3.9l2.6,3.5l0.3,0.1"/>
		<path id="XMLID_127_" fill="none" stroke="#0B0620" stroke-width="0.5" stroke-linecap="round" stroke-linejoin="round" d="
			M409.3,139.38v-2.4"/>
		<path id="XMLID_126_" fill="none" stroke="#0B0620" stroke-width="0.5" stroke-linecap="round" stroke-linejoin="round" d="
			M414.4,165.68l0.2,0.1"/>
		<path id="XMLID_125_" fill="none" stroke="#0B0620" stroke-width="0.5" stroke-linecap="round" stroke-linejoin="round" d="
			M425.5,153.58l0.2-0.1l0.6-1h1.8"/>
		<path id="XMLID_124_" fill="none" stroke="#0B0620" stroke-width="0.5" stroke-linecap="round" stroke-linejoin="round" d="
			M419.9,160.88h-1.4l-0.8-0.1l-0.4-0.2l-0.2-0.1l-0.2-0.1"/>
		<path id="XMLID_123_" fill="none" stroke="#0B0620" stroke-width="0.5" stroke-linecap="round" stroke-linejoin="round" d="
			M415.3,160.08l1.8,0.7l0.5,0.1"/>
		<path id="XMLID_122_" fill="none" stroke="#0B0620" stroke-width="0.5" stroke-linecap="round" stroke-linejoin="round" d="
			M421,153.48l1.4,0.6"/>
		<path id="XMLID_121_" fill="none" stroke="#0B0620" stroke-width="0.5" stroke-linecap="round" stroke-linejoin="round" d="
			M414.1,152.58h1.8"/>
		<path id="XMLID_120_" fill="none" stroke="#0B0620" stroke-width="0.5" stroke-linecap="round" stroke-linejoin="round" d="
			M415.2,150.58l-1.5,0.1"/>
		<path id="XMLID_119_" fill="none" stroke="#0B0620" stroke-width="0.5" stroke-linecap="round" stroke-linejoin="round" d="
			M421.5,151.98l0.7,0.4l-2.4-1.8L421.5,151.98l-0.7-0.4l-1.5,0.7l-0.3-0.1"/>
		<path id="XMLID_118_" fill="none" stroke="#0B0620" stroke-width="0.5" stroke-linecap="round" stroke-linejoin="round" d="
			M414.5,144.88l0.1,0.3l0.3,0.1l0.1-0.3"/>
		<path id="XMLID_117_" fill="none" stroke="#0B0620" stroke-width="0.5" stroke-linecap="round" stroke-linejoin="round" d="
			M422.5,152.38h-0.3"/>
		<path id="XMLID_116_" fill="none" stroke="#0B0620" stroke-width="0.5" stroke-linecap="round" stroke-linejoin="round" d="
			M419.8,150.48l-0.8-0.6l-3-3l-1.4-1.7"/>
		<path id="XMLID_115_" fill="none" stroke="#0B0620" stroke-width="0.5" stroke-linecap="round" stroke-linejoin="round" d="
			M416,139.98l-0.9-1l-0.3-1.1l0.5-1.1l1-0.9l1.6-0.7l1-0.2"/>
		<path id="XMLID_114_" fill="none" stroke="#0B0620" stroke-width="0.5" stroke-linecap="round" stroke-linejoin="round" d="
			M426.4,139.38l-0.1-0.2"/>
		<path id="XMLID_113_" fill="none" stroke="#0B0620" stroke-width="0.5" stroke-linecap="round" stroke-linejoin="round" d="
			M416.3,137.78l-0.9,0.9l-0.1,0.5"/>
		<path id="XMLID_112_" fill="none" stroke="#0B0620" stroke-width="0.5" stroke-linecap="round" stroke-linejoin="round" d="
			M426.5,139.18l-0.2-0.5l-1.1-1.1"/>
		<path id="XMLID_111_" fill="none" stroke="#0B0620" stroke-width="0.5" stroke-linecap="round" stroke-linejoin="round" d="
			M416.3,137.18l-0.9,0.9l-0.3,0.9"/>
		<path id="XMLID_110_" fill="none" stroke="#0B0620" stroke-width="0.5" stroke-linecap="round" stroke-linejoin="round" d="
			M425.6,153.48l-3.1,3.3"/>
		<path id="XMLID_109_" fill="none" stroke="#0B0620" stroke-width="0.5" stroke-linecap="round" stroke-linejoin="round" d="
			M417.7,160.88l2.2,0.3"/>
		<path id="XMLID_108_" fill="none" stroke="#0B0620" stroke-width="0.5" stroke-linecap="round" stroke-linejoin="round" d="
			M416.6,153.58h-0.2"/>
		<path id="XMLID_107_" fill="none" stroke="#0B0620" stroke-width="0.5" stroke-linecap="round" stroke-linejoin="round" d="
			M418.1,151.28l-1.8,0.4"/>
		<path id="XMLID_106_" fill="none" stroke="#0B0620" stroke-width="0.5" stroke-linecap="round" stroke-linejoin="round" d="
			M418.3,146.58l1,0.9l3.2,2.4l3.1,1.8l-0.3,0.1"/>
		<path id="XMLID_105_" fill="none" stroke="#0B0620" stroke-width="0.5" stroke-linecap="round" stroke-linejoin="round" d="
			M417.5,146.08l0.3,0.1l0.5,0.5"/>
		<path id="XMLID_104_" fill="none" stroke="#0B0620" stroke-width="0.5" stroke-linecap="round" stroke-linejoin="round" d="
			M417.8,146.18v-0.3"/>
		<path id="XMLID_103_" fill="none" stroke="#0B0620" stroke-width="0.5" stroke-linecap="round" stroke-linejoin="round" d="
			M417.2,145.68l0.3,0.4"/>
		<path id="XMLID_102_" fill="none" stroke="#0B0620" stroke-width="0.5" stroke-linecap="round" stroke-linejoin="round" d="
			M417.3,140.58l0.4-0.2"/>
		<path id="XMLID_101_" fill="none" stroke="#0B0620" stroke-width="0.5" stroke-linecap="round" stroke-linejoin="round" d="
			M416,139.98l0.3-0.3"/>
		<path id="XMLID_100_" fill="none" stroke="#0B0620" stroke-width="0.5" stroke-linecap="round" stroke-linejoin="round" d="
			M416.3,139.18l-0.6,0.6"/>
		<path id="XMLID_99_" fill="none" stroke="#0B0620" stroke-width="0.5" stroke-linecap="round" stroke-linejoin="round" d="
			M425.2,158.78l2.7-3.7l2-4.2l-0.5-1l1.4-0.6v-0.1"/>
		<path id="XMLID_98_" fill="none" stroke="#0B0620" stroke-width="0.5" stroke-linecap="round" stroke-linejoin="round" d="
			M426.1,160.18l-1.8,0.6l-1.1,0.3v-0.1l2.1-2.2l-2,2H423l-1.6,0.3l-1,0.1l-0.3-0.2l-0.1-0.1h-0.2"/>
		<path id="XMLID_97_" fill="none" stroke="#0B0620" stroke-width="0.5" stroke-linecap="round" stroke-linejoin="round" d="
			M420.1,160.98l2.2-1.7l3.2-3.1l-2.2,2.3"/>
		<path id="XMLID_96_" fill="none" stroke="#0B0620" stroke-width="0.5" stroke-linecap="round" stroke-linejoin="round" d="
			M420.4,161.18l2.9-2.7l1-1.1"/>
		<path id="XMLID_95_" fill="none" stroke="#0B0620" stroke-width="0.5" stroke-linecap="round" stroke-linejoin="round" d="
			M421,153.48l-1.4,0.6"/>
		<path id="XMLID_94_" fill="none" stroke="#0B0620" stroke-width="0.5" stroke-linecap="round" stroke-linejoin="round" d="
			M420.8,151.58l-1.8-1.7"/>
		<path id="XMLID_93_" fill="none" stroke="#0B0620" stroke-width="0.5" stroke-linecap="round" stroke-linejoin="round" d="
			M428,150.78l0.2-0.1"/>
		<path id="XMLID_92_" fill="none" stroke="#0B0620" stroke-width="0.5" stroke-linecap="round" stroke-linejoin="round" d="
			M421,146.38h-0.3"/>
		<path id="XMLID_91_" fill="none" stroke="#0B0620" stroke-width="0.5" stroke-linecap="round" stroke-linejoin="round" d="
			M428,150.78l-1.9-0.1"/>
		<path id="XMLID_90_" fill="none" stroke="#0B0620" stroke-width="0.5" stroke-linecap="round" stroke-linejoin="round" d="
			M425.3,151.88l-1.8-0.5l-2.7-2.2l-1.6-1.5"/>
		<path id="XMLID_89_" fill="none" stroke="#0B0620" stroke-width="0.5" stroke-linecap="round" stroke-linejoin="round" d="
			M421.5,147.18l-1.4-1.2"/>
		<path id="XMLID_88_" fill="none" stroke="#0B0620" stroke-width="0.5" stroke-linecap="round" stroke-linejoin="round" d="
			M421,146.38l-0.1-0.3"/>
		<path id="XMLID_87_" fill="none" stroke="#0B0620" stroke-width="0.5" stroke-linecap="round" stroke-linejoin="round" d="
			M420.6,146.38l-0.5-0.4"/>
		<path id="XMLID_86_" fill="none" stroke="#0B0620" stroke-width="0.5" stroke-linecap="round" stroke-linejoin="round" d="
			M419.4,134.88h0.3"/>
		<path id="XMLID_85_" fill="none" stroke="#0B0620" stroke-width="0.5" stroke-linecap="round" stroke-linejoin="round" d="
			M425.3,136.18l1.1,1.1l0.4,1.1"/>
		<path id="XMLID_84_" fill="none" stroke="#0B0620" stroke-width="0.5" stroke-linecap="round" stroke-linejoin="round" d="
			M425.9,140.08l1.3-1.1l0.6-1.4l-0.2-1.4l-0.9-1.3"/>
		<path id="XMLID_83_" fill="none" stroke="#0B0620" stroke-width="0.5" stroke-linecap="round" stroke-linejoin="round" d="
			M423.1,161.08l1.6-1.8"/>
		<path id="XMLID_82_" fill="none" stroke="#0B0620" stroke-width="0.5" stroke-linecap="round" stroke-linejoin="round" d="
			M423.2,160.78l-0.1,0.1"/>
		<path id="XMLID_81_" fill="none" stroke="#0B0620" stroke-width="0.5" stroke-linecap="round" stroke-linejoin="round" d="
			M429.8,150.98l-1.6,0.3v1l-0.1,0.1"/>
		<path id="XMLID_80_" fill="none" stroke="#0B0620" stroke-width="0.5" stroke-linecap="round" stroke-linejoin="round" d="
			M425.4,160.58l1.4-0.6l1.6-0.9"/>
		<path id="XMLID_79_" fill="none" stroke="#0B0620" stroke-width="0.5" stroke-linecap="round" stroke-linejoin="round" d="
			M423.8,153.28l1.7,0.3"/>
		<path id="XMLID_78_" fill="none" stroke="#0B0620" stroke-width="0.5" stroke-linecap="round" stroke-linejoin="round" d="
			M423.5,151.38l-1,1"/>
		<path id="XMLID_77_" fill="none" stroke="#0B0620" stroke-width="0.5" stroke-linecap="round" stroke-linejoin="round" d="
			M424,145.88l0.1,0.3"/>
		<path id="XMLID_76_" fill="none" stroke="#0B0620" stroke-width="0.5" stroke-linecap="round" stroke-linejoin="round" d="
			M430.1,149.18l-0.1,0.2l-1.9,0.2l0.2,1.1"/>
		<path id="XMLID_75_" fill="none" stroke="#0B0620" stroke-width="0.5" stroke-linecap="round" stroke-linejoin="round" d="
			M423.3,145.98l0.5,0.3"/>
		<path id="XMLID_74_" fill="none" stroke="#0B0620" stroke-width="0.5" stroke-linecap="round" stroke-linejoin="round" d="
			M422.8,145.98l0.7,0.6l2.5,1.7l2,1.3"/>
		<path id="XMLID_73_" fill="none" stroke="#0B0620" stroke-width="0.5" stroke-linecap="round" stroke-linejoin="round" d="
			M423.8,146.18l0.3-0.1"/>
		<path id="XMLID_72_" fill="none" stroke="#0B0620" stroke-width="0.5" stroke-linecap="round" stroke-linejoin="round" d="
			M423.5,133.18l-1.1-0.3"/>
		<path id="XMLID_71_" fill="none" stroke="#0B0620" stroke-width="0.5" stroke-linecap="round" stroke-linejoin="round" d="
			M427.9,165.38l0.2-0.1"/>
		<path id="XMLID_70_" fill="none" stroke="#0B0620" stroke-width="0.5" stroke-linecap="round" stroke-linejoin="round" d="
			M427.6,159.48l-0.9,0.5"/>
		<path id="XMLID_69_" fill="none" stroke="#0B0620" stroke-width="0.5" stroke-linecap="round" stroke-linejoin="round" d="
			M425.7,160.38l0.1-0.1l0.2-0.1"/>
		<path id="XMLID_68_" fill="none" stroke="#0B0620" stroke-width="0.5" stroke-linecap="round" stroke-linejoin="round" d="
			M430.8,151.88v-1.7"/>
		<path id="XMLID_67_" fill="none" stroke="#0B0620" stroke-width="0.5" stroke-linecap="round" stroke-linejoin="round" d="
			M430.1,157.48l-0.1,0.1l-1.3,1.1l-0.2,0.1"/>
		<path id="XMLID_66_" fill="none" stroke="#0B0620" stroke-width="0.5" stroke-linecap="round" stroke-linejoin="round" d="
			M428.3,159.08l0.1-0.1"/>
		<path id="XMLID_65_" fill="none" stroke="#0B0620" stroke-width="0.5" stroke-linecap="round" stroke-linejoin="round" d="
			M425.4,156.08l2.7-3.7"/>
		<path id="XMLID_64_" fill="none" stroke="#0B0620" stroke-width="0.5" stroke-linecap="round" stroke-linejoin="round" d="
			M426,150.68l-0.4,1.1"/>
		<path id="XMLID_63_" fill="none" stroke="#0B0620" stroke-width="0.5" stroke-linecap="round" stroke-linejoin="round" d="
			M426.9,145.18l0.1,0.2"/>
		<path id="XMLID_62_" fill="none" stroke="#0B0620" stroke-width="0.5" stroke-linecap="round" stroke-linejoin="round" d="
			M431.1,147.38l-0.1,0.2l-1.7,0.6"/>
		<path id="XMLID_61_" fill="none" stroke="#0B0620" stroke-width="0.5" stroke-linecap="round" stroke-linejoin="round" d="
			M427,145.28l-0.3,0.1l-0.3-0.1"/>
		<path id="XMLID_60_" fill="none" stroke="#0B0620" stroke-width="0.5" stroke-linecap="round" stroke-linejoin="round" d="
			M426.8,138.18l-0.3,1.1l-0.7,0.8"/>
		<path id="XMLID_59_" fill="none" stroke="#0B0620" stroke-width="0.5" stroke-linecap="round" stroke-linejoin="round" d="
			M429.6,159.38v-1.4"/>
		<path id="XMLID_58_" fill="none" stroke="#0B0620" stroke-width="0.5" stroke-linecap="round" stroke-linejoin="round" d="
			M430.2,161.88v-2.4"/>
		<path id="XMLID_57_" fill="none" stroke="#0B0620" stroke-width="0.5" stroke-linecap="round" stroke-linejoin="round" d="
			M430.3,156.58l0.5-0.8v-0.1v-2.6v2.7"/>
		<path id="XMLID_56_" fill="none" stroke="#0B0620" stroke-width="0.5" stroke-linecap="round" stroke-linejoin="round" d="
			M430,157.58l0.7-2.8l0.1-2.9"/>
		<path id="XMLID_55_" fill="none" stroke="#0B0620" stroke-width="0.5" stroke-linecap="round" stroke-linejoin="round" d="
			M430.9,153.08v-0.1l-0.1-0.4l0.1,0.3l0,0"/>
		<path id="XMLID_54_" fill="none" stroke="#0B0620" stroke-width="0.5" stroke-linecap="round" stroke-linejoin="round" d="
			M430.9,152.98v-0.1"/>
		<path id="XMLID_53_" fill="none" stroke="#0B0620" stroke-width="0.5" stroke-linecap="round" stroke-linejoin="round" d="
			M429.8,150.98l0.1-0.1"/>
		<path id="XMLID_52_" fill="none" stroke="#0B0620" stroke-width="0.5" stroke-linecap="round" stroke-linejoin="round" d="
			M430.8,150.08v0.2"/>
		<path id="XMLID_51_" fill="none" stroke="#0B0620" stroke-width="0.5" stroke-linecap="round" stroke-linejoin="round" d="
			M430.8,149.18l-1-0.8l0.7-0.6"/>
		<path id="XMLID_50_" fill="none" stroke="#0B0620" stroke-width="0.5" stroke-linecap="round" stroke-linejoin="round" d="
			M430.8,149.18v-1.5V149.18"/>
		<path id="XMLID_49_" fill="none" stroke="#0B0620" stroke-width="0.5" stroke-linecap="round" stroke-linejoin="round" d="
			M430.1,149.18l-0.7-1"/>
		<path id="XMLID_48_" fill="none" stroke="#0B0620" stroke-width="0.5" stroke-linecap="round" stroke-linejoin="round" d="
			M431.1,147.38l-1.2-1"/>
		<path id="XMLID_47_" fill="none" stroke="#0B0620" stroke-width="0.5" stroke-linecap="round" stroke-linejoin="round" d="
			M429.7,148.68L429.7,148.68v-0.7"/>
		<path id="XMLID_46_" fill="none" stroke="#0B0620" stroke-width="0.5" stroke-linecap="round" stroke-linejoin="round" d="
			M429.2,144.08l-0.1,0.1l0.9,0.4l1.1,0.7l0.1,0.5l-1.2,0.7"/>
		<path id="XMLID_45_" fill="none" stroke="#0B0620" stroke-width="0.5" stroke-linecap="round" stroke-linejoin="round" d="
			M431.1,145.78l-0.1-0.7v-0.1l-1-0.6l-0.7-0.4"/>
		<path id="XMLID_44_" fill="none" stroke="#0B0620" stroke-width="0.5" stroke-linecap="round" stroke-linejoin="round" d="
			M430.9,142.78L430.9,142.78l0.2,0.6l-0.2,0.1l-0.8,0.7"/>
		<path id="XMLID_43_" fill="none" stroke="#0B0620" stroke-width="0.5" stroke-linecap="round" stroke-linejoin="round" d="
			M429,144.08L429,144.08"/>
		<path id="XMLID_42_" fill="none" stroke="#0B0620" stroke-width="0.5" stroke-linecap="round" stroke-linejoin="round" d="
			M430,146.48L430,146.48"/>
		<path id="XMLID_29_" fill="none" stroke="#0B0620" stroke-width="0.5" stroke-linecap="round" stroke-linejoin="round" d="
			M430.5,143.78l-0.4,0.5"/>
		<path id="XMLID_28_" fill="none" stroke="#0B0620" stroke-width="0.5" stroke-linecap="round" stroke-linejoin="round" d="
			M431.1,145.08l-0.6-0.4l-0.7-0.8"/>
		<path id="XMLID_27_" fill="none" stroke="#0B0620" stroke-width="0.5" stroke-linecap="round" stroke-linejoin="round" d="
			M431.1,143.38l-0.1-0.6v-0.1l-0.1-0.1"/>
		<path id="XMLID_26_" fill="none" stroke="#0B0620" stroke-width="0.5" stroke-linecap="round" stroke-linejoin="round" d="
			M432.6,139.38v-2.4"/>
		<path id="XMLID_25_" fill="none" stroke="#0B0620" stroke-width="0.5" stroke-linecap="round" stroke-linejoin="round" d="
			M424.9,133.68l0.3,0.2"/>
		<path id="XMLID_21_" fill="none" stroke="#0B0620" stroke-width="0.5" stroke-linecap="round" stroke-linejoin="round" d="
			M418.9,134.98c3-0.6,6.4,0.2,7.5,2c0.2,0.4,0.4,0.8,0.4,1.2"/>
		<path id="XMLID_20_" fill="none" stroke="#0B0620" stroke-width="0.5" stroke-linecap="round" stroke-linejoin="round" d="
			M425.4,160.58c-1.7,0.6-3.6,0.8-5.5,0.7"/>
		<path id="XMLID_19_" fill="none" stroke="#0B0620" stroke-width="0.5" stroke-linecap="round" stroke-linejoin="round" d="
			M429.8,157.78c1.6,2.8-1.1,5.8-6,6.7s-10.1-0.7-11.7-3.5c-0.7-1.2-0.6-2.5,0.3-3.7"/>
		<path id="XMLID_10_" fill="none" stroke="#0B0620" stroke-width="0.5" stroke-linecap="round" stroke-linejoin="round" d="
			M432.6,139.28c-0.1,3.7-5.4,6.7-11.9,6.7c-6.3-0.1-11.4-3-11.5-6.7"/>
		<path id="XMLID_9_" fill="none" stroke="#0B0620" stroke-width="0.5" stroke-linecap="round" stroke-linejoin="round" d="
			M427.9,165.38c-3.2,2.2-9,2.5-12.8,0.6c-0.2-0.1-0.4-0.2-0.6-0.3"/>
		<path id="XMLID_8_" fill="none" stroke="#0B0620" stroke-width="0.5" stroke-linecap="round" stroke-linejoin="round" d="
			M430.2,161.88c0,3-4.2,5.4-9.3,5.4c-5.1,0-9.3-2.4-9.3-5.4"/>
		
			<ellipse id="XMLID_7_" fill="none" stroke="#0B0620" stroke-width="0.5" stroke-linecap="round" stroke-linejoin="round" cx="420.9" cy="136.98" rx="7.3" ry="4.2"/>
		
			<ellipse id="XMLID_6_" fill="none" stroke="#0B0620" stroke-width="0.5" stroke-linecap="round" stroke-linejoin="round" cx="420.9" cy="136.98" rx="11.7" ry="6.7"/>
		<path id="XMLID_5_" fill="none" stroke="#0B0620" stroke-width="0.5" stroke-linecap="round" stroke-linejoin="round" d="
			M429.6,149.38c-0.9,2.7-5.6,4.5-10.3,4c-3.6-0.4-6.4-2.1-7-4.1"/>
		<path id="XMLID_4_" fill="none" stroke="#0B0620" stroke-width="0.5" stroke-linecap="round" stroke-linejoin="round" d="
			M429.6,159.38c0,2.8-3.9,5-8.7,5c-4.3,0-8-1.9-8.6-4.4"/>
	</g>
	<g>
		
			<path id="XMLID_3_" fill="none" stroke="#000000" stroke-linecap="round" stroke-linejoin="round" stroke-dasharray="4.7,3.1,1.6,3.1" d="
			M420.9,262.38v-95.2"/>
	</g>
	<g id="XMLID_2_">
		<path id="XMLID_308_" stroke="#000000" stroke-width="0.088" stroke-linecap="round" stroke-linejoin="round" d="M294.537,196.248
			c0,0,30.463-50.668,116.463-59.268c-96.307-17.22-134.17,42.441-134.17,42.441L294.537,196.248z"/>
		<g id="XMLID_14_">
			
				<circle id="XMLID_304_" fill="#FFFFFF" stroke="#000000" stroke-linecap="round" stroke-linejoin="round" stroke-opacity="0.98" cx="259.842" cy="218.33" r="54.85"/>
			<g id="XMLID_17_">
				<defs>
					<circle id="XMLID_23_" cx="259.842" cy="218.33" r="54.85"/>
				</defs>
				<clipPath id="XMLID_33_">
					<use xlink:href="#XMLID_23_"  overflow="visible"/>
				</clipPath>
				
					<path id="XMLID_310_" clip-path="url(#XMLID_33_)" fill="none" stroke="#000000" stroke-width="0.25" stroke-linecap="round" stroke-linejoin="round" d="
					M278.766,207.412l0.17-0.085l0.383-0.085h0.426l0.426,0.128l0.468,0.213l0.468,0.341l0.468,0.383l0.426,0.468l0.383,0.553
					l0.341,0.553l0.255,0.596l0.213,0.596l0.128,0.596l0.043,0.596l-0.043,0.511l-0.128,0.426l-0.213,0.383l-0.255,0.298
					l-0.17,0.085 M275.702,209.37l0.085-0.085l0.255-0.298l0.341-0.17l0.383-0.128l0.426,0.043l0.426,0.128l0.468,0.213l0.468,0.298
					l0.468,0.426l0.426,0.468l0.383,0.511l0.341,0.596l0.255,0.596l0.213,0.596l0.085,0.596l0.043,0.553l-0.043,0.511l-0.085,0.468
					l-0.213,0.383l-0.255,0.298l-0.341,0.17l-0.383,0.085h-0.128 M301.581,195.664l0.17-0.085l0.341-0.043l0.341,0.085l0.426,0.17
					 M302.857,195.792l0.383,0.298l0.341,0.341l0.34,0.426l0.298,0.468l0.213,0.511l0.17,0.511l0.043,0.468v0.426l-0.128,0.383
					l-0.17,0.298l-0.17,0.17 M300.942,196.005l0.085-0.043l0.298-0.17h0.298l0.383,0.043l0.426,0.17 M302.432,196.005l0.383,0.298
					l0.383,0.341l0.34,0.468l0.255,0.468l0.255,0.511l0.128,0.511l0.085,0.468l-0.043,0.468l-0.085,0.383l-0.213,0.255l-0.255,0.213
					l-0.128,0.085 M301.581,196.048h0.128l0.341,0.043l0.341,0.17 M302.389,196.26l0.383,0.255l0.34,0.341l0.298,0.426l0.255,0.426
					l0.213,0.468l0.085,0.468l0.043,0.426l-0.043,0.383l-0.085,0.341l-0.085,0.128 M300.729,196.09l0.17-0.085h0.341l0.383,0.085
					l0.383,0.17 M302.006,196.26l0.383,0.255l0.341,0.341l0.341,0.426l0.298,0.468l0.213,0.468l0.17,0.511l0.085,0.511v0.426
					l-0.085,0.383l-0.17,0.341l-0.213,0.213h-0.043 M300.091,196.473l0.085-0.085l0.298-0.128l0.341-0.043l0.34,0.085l0.426,0.17
					 M301.581,196.473l0.383,0.255l0.341,0.383l0.341,0.383l0.298,0.511l0.255,0.468l0.128,0.511l0.085,0.511v0.426l-0.085,0.383
					l-0.128,0.341l-0.255,0.213l-0.255,0.128 M300.687,196.516h0.128l0.383,0.043l0.34,0.17 M301.538,196.729l0.383,0.255
					l0.341,0.34l0.34,0.426l0.255,0.426l0.17,0.468l0.128,0.511l0.043,0.426l-0.043,0.426l-0.128,0.298l-0.043,0.128
					 M299.835,196.558l0.17-0.085l0.341-0.043l0.383,0.085l0.426,0.17 M301.155,196.686l0.383,0.298l0.383,0.34l0.341,0.426
					l0.255,0.468l0.255,0.511l0.17,0.511l0.085,0.468v0.468l-0.085,0.426l-0.17,0.298l-0.255,0.255 M299.197,196.899l0.085-0.085
					l0.298-0.128l0.341-0.043l0.383,0.085l0.426,0.17 M300.729,196.899l0.383,0.298l0.383,0.34l0.34,0.468l0.298,0.468l0.213,0.511
					l0.17,0.511l0.085,0.468v0.468l-0.085,0.426l-0.17,0.298l-0.213,0.255l-0.255,0.128 M299.835,196.941h0.128l0.341,0.043
					l0.383,0.17 M300.687,197.154l0.383,0.298l0.383,0.34l0.298,0.426l0.255,0.468l0.213,0.468l0.128,0.468l0.043,0.468
					l-0.043,0.426l-0.128,0.341l-0.085,0.128 M298.984,196.984l0.17-0.085h0.341l0.383,0.043l0.426,0.213 M300.304,197.154
					l0.383,0.255l0.383,0.383l0.34,0.426l0.298,0.468l0.255,0.511l0.17,0.553l0.043,0.468v0.468l-0.043,0.426l-0.17,0.34
					l-0.255,0.213l-0.043,0.043 M298.303,197.367l0.128-0.085l0.298-0.128l0.34-0.043l0.383,0.085l0.383,0.17 M299.835,197.367
					l0.426,0.298l0.383,0.34l0.341,0.468l0.298,0.468l0.255,0.511l0.17,0.511l0.085,0.511v0.468l-0.085,0.426l-0.17,0.341
					l-0.255,0.255l-0.213,0.128 M298.984,197.367h0.128l0.383,0.085l0.34,0.17 M299.835,197.622l0.383,0.255l0.341,0.341l0.34,0.426
					l0.255,0.426l0.213,0.511l0.128,0.468l0.085,0.468l-0.043,0.426l-0.085,0.341l-0.128,0.213 M298.09,197.41l0.17-0.043
					l0.383-0.043l0.383,0.085l0.383,0.17 M299.41,197.58l0.426,0.298l0.383,0.383l0.383,0.426l0.298,0.511l0.213,0.511l0.17,0.511
					l0.085,0.511v0.511l-0.085,0.383l-0.17,0.341l-0.213,0.255h-0.043 M297.452,197.793l0.128-0.085l0.298-0.128l0.341-0.043
					l0.383,0.085l0.383,0.213 M298.984,197.835l0.426,0.255l0.383,0.34l0.34,0.468l0.298,0.468l0.255,0.511l0.17,0.511l0.085,0.511
					l0.043,0.468l-0.043,0.426l-0.17,0.341l-0.213,0.255l-0.255,0.213h-0.085 M298.09,197.835h0.17l0.341,0.043l0.383,0.17
					 M298.984,198.048l0.383,0.298l0.383,0.341l0.298,0.426l0.298,0.468l0.213,0.468l0.128,0.511l0.085,0.468l-0.043,0.426
					l-0.085,0.34l-0.128,0.213 M297.197,197.878l0.255-0.085h0.341l0.383,0.043l0.383,0.213 M298.559,198.048l0.426,0.255
					l0.383,0.383l0.34,0.426l0.341,0.468l0.213,0.511l0.213,0.553l0.085,0.511v0.468l-0.043,0.426l-0.128,0.341l-0.213,0.298
					l-0.128,0.085 M296.558,198.218l0.128-0.085l0.298-0.128h0.383l0.383,0.085l0.383,0.17 M298.133,198.261l0.426,0.298l0.383,0.34
					l0.383,0.468l0.298,0.468l0.255,0.511l0.17,0.511l0.085,0.553l0.043,0.468l-0.085,0.426l-0.128,0.383l-0.213,0.255l-0.298,0.17
					l-0.043,0.043 M297.239,198.261h0.128l0.383,0.085l0.383,0.17 M298.133,198.516l0.383,0.255l0.383,0.383l0.341,0.426
					l0.298,0.468l0.213,0.511l0.128,0.468l0.085,0.511l-0.043,0.426l-0.085,0.383l-0.128,0.213 M296.345,198.303l0.213-0.085h0.383
					l0.383,0.085l0.383,0.17 M297.707,198.474l0.426,0.298l0.383,0.383l0.383,0.426l0.298,0.511l0.255,0.511l0.17,0.511l0.128,0.553
					v0.468l-0.043,0.426l-0.17,0.383l-0.213,0.255l-0.128,0.128 M295.707,198.686l0.085-0.085l0.341-0.128l0.34-0.043l0.426,0.085
					l0.383,0.213 M297.282,198.729l0.426,0.255l0.383,0.383l0.383,0.468l0.298,0.468l0.255,0.553l0.213,0.511l0.085,0.553
					l0.043,0.468l-0.085,0.426l-0.128,0.383l-0.213,0.298l-0.298,0.17h-0.085 M296.388,198.729h0.128l0.383,0.043l0.383,0.213
					 M297.282,198.984l0.426,0.255l0.341,0.383l0.341,0.426l0.298,0.468l0.213,0.511l0.17,0.511l0.043,0.511v0.426l-0.128,0.383
					l-0.085,0.213 M295.451,198.772l0.255-0.085l0.34-0.043l0.426,0.085l0.383,0.213 M296.856,198.942l0.426,0.298l0.426,0.383
					l0.341,0.426l0.341,0.511l0.255,0.511l0.17,0.553l0.128,0.511v0.511l-0.043,0.468l-0.17,0.341l-0.213,0.298l-0.128,0.085
					 M294.813,199.112l0.128-0.085l0.298-0.128h0.383l0.383,0.085l0.426,0.17 M296.43,199.155l0.426,0.298l0.426,0.383l0.341,0.468
					l0.341,0.468l0.255,0.553l0.17,0.553l0.128,0.511v0.511l-0.043,0.468l-0.128,0.34l-0.255,0.298l-0.298,0.213h-0.043
					 M295.494,199.155h0.17l0.383,0.085l0.383,0.17 M296.43,199.41l0.383,0.298l0.383,0.341l0.341,0.426l0.298,0.468l0.213,0.511
					l0.17,0.511l0.085,0.468v0.468l-0.085,0.383l-0.17,0.341 M294.558,199.197l0.298-0.085h0.341l0.426,0.085l0.383,0.17
					 M296.005,199.368l0.426,0.298l0.383,0.383l0.383,0.426l0.298,0.468l0.298,0.553l0.17,0.511l0.128,0.553l0.043,0.468
					l-0.043,0.468l-0.128,0.383l-0.17,0.298l-0.213,0.213 M293.919,199.58l0.17-0.128l0.341-0.128h0.34l0.426,0.085l0.383,0.213
					 M295.579,199.623l0.426,0.255l0.426,0.383l0.341,0.468l0.34,0.468l0.255,0.511l0.213,0.553l0.085,0.553l0.043,0.468
					l-0.043,0.468l-0.085,0.383l-0.213,0.341l-0.255,0.213l-0.17,0.085 M294.643,199.623h0.17l0.383,0.043l0.383,0.213
					 M295.579,199.878l0.426,0.255l0.341,0.383l0.383,0.426l0.298,0.468l0.213,0.511l0.17,0.511l0.085,0.511v0.468l-0.085,0.383
					l-0.17,0.34 M293.706,199.665l0.255-0.085l0.383-0.043l0.426,0.085l0.383,0.213 M295.153,199.836l0.426,0.298l0.426,0.383
					l0.341,0.426l0.341,0.511l0.255,0.511l0.213,0.553l0.128,0.553l0.043,0.468l-0.043,0.468l-0.128,0.426l-0.213,0.298l-0.213,0.17
					 M293.068,200.006l0.128-0.085l0.341-0.128h0.383l0.383,0.085l0.426,0.17 M294.728,200.049l0.426,0.298l0.426,0.383l0.383,0.468
					l0.298,0.468l0.298,0.553l0.17,0.553l0.128,0.511l0.043,0.511l-0.043,0.468l-0.128,0.426l-0.17,0.298l-0.298,0.213l-0.17,0.085
					 M293.749,200.049h0.17l0.426,0.085l0.383,0.17 M294.728,200.304l0.426,0.298l0.383,0.383l0.341,0.426l0.298,0.468l0.255,0.553
					l0.17,0.511l0.085,0.511v0.468l-0.085,0.426l-0.17,0.298 M292.812,200.091l0.298-0.085h0.383l0.383,0.085l0.426,0.213
					 M294.302,200.304l0.426,0.255l0.426,0.383l0.383,0.468l0.341,0.511l0.255,0.553l0.213,0.553l0.128,0.511l0.043,0.553
					l-0.043,0.468l-0.128,0.383l-0.213,0.298l-0.213,0.213 M292.174,200.474l0.17-0.128l0.341-0.128h0.341l0.426,0.085l0.426,0.213
					 M293.877,200.517l0.426,0.298l0.426,0.383l0.383,0.468l0.341,0.468l0.255,0.553l0.213,0.553l0.128,0.553l0.043,0.553
					l-0.043,0.468l-0.128,0.383l-0.213,0.341l-0.255,0.213l-0.17,0.085 M292.898,200.474h0.213l0.383,0.085l0.383,0.213
					 M293.877,200.772l0.426,0.255l0.383,0.383l0.341,0.426l0.298,0.468l0.255,0.511l0.17,0.511l0.085,0.511l0.043,0.468
					l-0.085,0.426l-0.128,0.383l-0.043,0.085 M291.961,200.559l0.255-0.085l0.383-0.043l0.426,0.085l0.426,0.213 M293.451,200.73
					l0.426,0.298l0.426,0.383l0.383,0.468l0.341,0.511l0.298,0.553l0.213,0.553l0.128,0.553l0.043,0.553l-0.043,0.468l-0.128,0.383
					l-0.213,0.341l-0.255,0.213 M291.28,200.9l0.213-0.128l0.341-0.085l0.383-0.043l0.383,0.128l0.426,0.17 M293.025,200.942
					l0.426,0.298l0.426,0.383l0.383,0.426l0.341,0.511l0.255,0.553l0.213,0.553l0.128,0.511l0.085,0.553l-0.043,0.468l-0.085,0.426
					l-0.17,0.341l-0.255,0.255l-0.298,0.17 M292.046,200.942h0.17l0.383,0.085l0.426,0.17 M293.025,201.198l0.426,0.298l0.383,0.383
					l0.341,0.426l0.341,0.468l0.255,0.553l0.17,0.511l0.085,0.511l0.043,0.511l-0.085,0.426l-0.128,0.341l-0.043,0.085
					 M291.067,200.985l0.341-0.085h0.383l0.383,0.085l0.426,0.213 M292.6,201.198l0.426,0.298l0.426,0.34l0.383,0.468l0.341,0.511
					l0.298,0.511l0.213,0.553l0.128,0.553l0.043,0.553v0.468l-0.128,0.426l-0.17,0.341l-0.255,0.255l-0.043,0.043 M290.429,201.368
					l0.17-0.128l0.34-0.128h0.383l0.426,0.085l0.426,0.213 M292.174,201.411l0.426,0.298l0.426,0.383l0.383,0.426l0.341,0.511
					l0.298,0.553l0.213,0.553l0.128,0.553l0.085,0.553l-0.043,0.468l-0.085,0.426l-0.17,0.341l-0.255,0.298l-0.298,0.128
					 M291.152,201.368h0.213l0.383,0.085l0.426,0.213 M292.174,201.666l0.426,0.298l0.383,0.34l0.383,0.468l0.298,0.511l0.255,0.511
					l0.213,0.553l0.085,0.511l0.043,0.511l-0.085,0.426l-0.128,0.383l-0.085,0.085 M290.174,201.453l0.341-0.128h0.383l0.426,0.085
					l0.426,0.213 M291.748,201.623l0.426,0.298l0.426,0.383l0.383,0.468l0.383,0.511l0.255,0.553l0.213,0.553l0.17,0.553
					l0.043,0.553v0.468l-0.128,0.426l-0.17,0.383l-0.255,0.255l-0.043,0.043 M289.535,201.794l0.213-0.128l0.341-0.128h0.383
					l0.426,0.128l0.426,0.17 M291.323,201.836l0.468,0.341l0.383,0.383l0.426,0.426l0.341,0.553l0.298,0.511l0.213,0.596
					l0.128,0.553l0.085,0.553l-0.043,0.468l-0.085,0.468l-0.213,0.341l-0.255,0.255l-0.255,0.17 M290.301,201.836h0.213l0.383,0.085
					l0.426,0.17 M291.323,202.092l0.426,0.298l0.383,0.383l0.341,0.426l0.341,0.468l0.255,0.511l0.213,0.553l0.085,0.511
					l0.043,0.511l-0.043,0.468l-0.085,0.383l-0.128,0.17 M289.322,201.879l0.34-0.085h0.383l0.426,0.085l0.426,0.213
					 M290.897,202.092l0.468,0.298l0.426,0.383l0.383,0.468l0.341,0.511l0.298,0.553l0.213,0.596l0.17,0.553l0.043,0.553v0.468
					l-0.128,0.468l-0.17,0.341l-0.255,0.298l-0.085,0.043 M288.684,202.262l0.17-0.128l0.34-0.128h0.426l0.426,0.085l0.426,0.213
					 M290.471,202.304l0.468,0.298l0.426,0.383l0.383,0.468l0.341,0.553l0.298,0.553l0.255,0.553l0.128,0.596l0.043,0.553v0.511
					l-0.128,0.426l-0.17,0.34l-0.255,0.298l-0.298,0.128 M289.45,202.262h0.213l0.383,0.085l0.426,0.213 M290.471,202.56
					l0.426,0.298l0.383,0.341l0.383,0.468l0.34,0.468l0.255,0.553l0.17,0.553l0.128,0.511l0.043,0.511l-0.043,0.468l-0.128,0.383
					l-0.085,0.213 M288.428,202.347l0.043-0.043l0.341-0.085h0.383l0.426,0.085l0.426,0.213 M290.046,202.517l0.426,0.298
					l0.426,0.383l0.426,0.468l0.341,0.511l0.298,0.553l0.213,0.553l0.17,0.553l0.085,0.553v0.511l-0.085,0.426l-0.17,0.383
					l-0.213,0.298l-0.17,0.128 M287.79,202.687l0.213-0.128l0.383-0.128h0.383l0.426,0.128l0.426,0.213 M289.62,202.773l0.468,0.298
					l0.383,0.383l0.426,0.426l0.341,0.511l0.298,0.553l0.213,0.596l0.17,0.553l0.085,0.553v0.511l-0.085,0.426l-0.17,0.383
					l-0.213,0.298l-0.298,0.213l-0.085,0.043 M288.556,202.73h0.213l0.426,0.085l0.426,0.17 M289.62,202.985l0.426,0.298
					l0.426,0.383l0.341,0.468l0.341,0.511l0.298,0.511l0.17,0.553l0.128,0.553l0.043,0.511l-0.043,0.468l-0.128,0.383l-0.085,0.213
					 M287.535,202.773h0.043l0.341-0.128h0.426l0.426,0.128l0.426,0.213 M289.195,202.985l0.468,0.298l0.426,0.383l0.383,0.468
					l0.341,0.511l0.298,0.553l0.255,0.553l0.17,0.596l0.085,0.553v0.511l-0.085,0.468l-0.17,0.383l-0.255,0.298l-0.17,0.128
					 M286.896,203.156l0.255-0.17l0.34-0.085h0.426l0.426,0.085l0.426,0.213 M288.769,203.198l0.468,0.298l0.426,0.383l0.383,0.468
					l0.383,0.511l0.298,0.596l0.213,0.553l0.17,0.596l0.085,0.553v0.511l-0.085,0.468l-0.17,0.383l-0.213,0.298l-0.298,0.213
					l-0.085,0.043 M287.705,203.156h0.213l0.426,0.085l0.426,0.213 M288.769,203.454l0.426,0.298l0.426,0.383l0.383,0.468
					l0.341,0.511l0.255,0.553l0.213,0.553l0.128,0.553l0.043,0.511l-0.043,0.468l-0.128,0.426l-0.085,0.17 M286.683,203.241v-0.043
					l0.383-0.085h0.383l0.468,0.085l0.426,0.213 M288.343,203.411l0.468,0.34l0.426,0.383l0.383,0.468l0.383,0.511l0.298,0.553
					l0.255,0.596l0.128,0.596l0.085,0.553v0.511l-0.085,0.468l-0.128,0.383l-0.255,0.298l-0.17,0.128 M286.045,203.581l0.213-0.128
					l0.383-0.128h0.383l0.426,0.128l0.468,0.213 M287.918,203.666l0.468,0.298l0.426,0.383l0.426,0.468l0.341,0.553l0.298,0.553
					l0.255,0.596l0.17,0.553l0.085,0.596v0.511l-0.085,0.468l-0.17,0.383l-0.255,0.341l-0.298,0.213h-0.085 M286.854,203.581
					l0.213,0.043l0.426,0.085l0.426,0.213 M287.918,203.922l0.426,0.255l0.426,0.383l0.383,0.468l0.298,0.511l0.298,0.511
					l0.213,0.553l0.128,0.553l0.085,0.511l-0.043,0.511l-0.085,0.426l-0.17,0.298 M285.789,203.666h0.043l0.341-0.128h0.426
					l0.426,0.128l0.468,0.213 M287.492,203.879l0.468,0.298l0.426,0.426l0.426,0.468l0.341,0.511l0.341,0.596l0.213,0.553
					l0.17,0.596l0.085,0.596v0.511l-0.085,0.468l-0.17,0.426l-0.213,0.298l-0.17,0.128 M285.151,204.05l0.213-0.17l0.383-0.085
					h0.426l0.426,0.085l0.468,0.213 M287.066,204.092l0.468,0.34l0.426,0.383l0.426,0.468l0.383,0.553l0.298,0.553l0.255,0.596
					l0.17,0.596l0.085,0.596v0.511l-0.085,0.468l-0.17,0.426l-0.255,0.298l-0.298,0.213l-0.085,0.043 M285.96,204.05h0.255
					l0.426,0.085l0.426,0.213 M287.066,204.347l0.426,0.298l0.426,0.383l0.383,0.468l0.341,0.511l0.298,0.553l0.213,0.553
					l0.128,0.553l0.085,0.511l-0.043,0.511l-0.085,0.426l-0.17,0.298 M284.938,204.135l0.043-0.043l0.383-0.085h0.383l0.468,0.085
					l0.426,0.213 M286.641,204.305l0.468,0.341l0.426,0.383l0.383,0.468l0.383,0.511l0.298,0.553l0.255,0.596l0.17,0.553
					l0.128,0.596v0.511l-0.043,0.468l-0.128,0.426l-0.213,0.341l-0.298,0.255 M284.257,204.475l0.298-0.17l0.341-0.085h0.426
					l0.426,0.128l0.468,0.213 M286.215,204.56l0.468,0.298l0.426,0.383l0.426,0.468l0.341,0.511l0.341,0.596l0.255,0.553l0.17,0.596
					l0.085,0.596l0.043,0.511l-0.085,0.511l-0.128,0.383l-0.213,0.34l-0.298,0.255l-0.213,0.128 M285.108,204.475h0.255l0.426,0.128
					l0.426,0.213 M286.215,204.816l0.426,0.298l0.426,0.383l0.383,0.468l0.383,0.511l0.255,0.553l0.255,0.553l0.128,0.596
					l0.043,0.511v0.511l-0.085,0.426l-0.17,0.34 M284.002,204.603l0.128-0.085l0.341-0.085h0.426l0.426,0.128l0.468,0.213
					 M285.789,204.773l0.468,0.298l0.426,0.426l0.426,0.468l0.383,0.511l0.298,0.553l0.255,0.596l0.17,0.596l0.128,0.596v0.511
					l-0.043,0.511l-0.17,0.426l-0.213,0.341l-0.255,0.255h-0.043 M276.298,209.029l0.128-0.043l0.341-0.128l0.426,0.043l0.468,0.085
					l0.426,0.213 M278.085,209.2l0.468,0.34l0.426,0.383l0.426,0.468l0.383,0.511l0.298,0.596l0.255,0.553l0.17,0.596l0.128,0.596
					v0.553l-0.043,0.468l-0.128,0.426l-0.255,0.34l-0.255,0.255h-0.043 M259.741,217.627l0.255-0.128l0.426-0.043l0.468,0.043
					l0.511,0.128l0.468,0.255 M261.869,217.883l0.511,0.34l0.511,0.426l0.468,0.511l0.426,0.553l0.383,0.596l0.341,0.638
					l0.213,0.681l0.213,0.638l0.085,0.638l0.043,0.596l-0.085,0.553l-0.128,0.468l-0.213,0.426l-0.298,0.298l-0.128,0.085
					 M254.803,220.053l0.383-0.17l0.468-0.043l0.468,0.043l0.553,0.17l0.511,0.255 M257.187,220.309l0.553,0.341l0.511,0.468
					l0.511,0.511l0.426,0.596l0.426,0.638l0.341,0.638l0.298,0.724l0.17,0.681l0.128,0.681l0.043,0.638l-0.043,0.596l-0.128,0.511
					l-0.17,0.468l-0.298,0.341l-0.341,0.298 M254.165,220.437l0.213-0.128l0.383-0.17l0.468-0.043l0.468,0.043l0.553,0.128
					l0.511,0.298 M256.761,220.564l0.553,0.341l0.511,0.426l0.511,0.553l0.426,0.553l0.426,0.638l0.341,0.681l0.298,0.681
					l0.17,0.724l0.128,0.638l0.043,0.638l-0.043,0.596l-0.128,0.553l-0.17,0.426l-0.298,0.383l-0.341,0.255l-0.213,0.128
					 M254.633,220.351l0.213-0.085l0.426-0.043l0.468,0.043l0.511,0.17l0.511,0.213 M256.761,220.649l0.511,0.383l0.511,0.426
					l0.468,0.511l0.468,0.553l0.383,0.596l0.341,0.681l0.255,0.638l0.213,0.681l0.128,0.638l0.043,0.638l-0.043,0.553l-0.128,0.511
					l-0.213,0.468l-0.255,0.341l-0.128,0.128 M253.909,220.564l0.426-0.17l0.468-0.085l0.468,0.085l0.553,0.128l0.511,0.255
					 M256.335,220.777l0.553,0.383l0.511,0.426l0.511,0.511l0.426,0.596l0.426,0.638l0.341,0.681l0.298,0.681l0.17,0.681
					l0.128,0.681l0.043,0.638l-0.043,0.596l-0.128,0.553l-0.17,0.426l-0.298,0.383l-0.341,0.255 M253.313,220.947l0.17-0.17
					l0.426-0.128l0.468-0.085l0.468,0.043l0.553,0.17l0.511,0.255 M255.91,221.032l0.553,0.34l0.511,0.468l0.511,0.511l0.426,0.596
					l0.426,0.638l0.341,0.681l0.298,0.681l0.17,0.681l0.128,0.681l0.043,0.638l-0.043,0.596l-0.128,0.511l-0.17,0.468l-0.298,0.383
					l-0.341,0.255l-0.213,0.085 M253.782,220.82l0.213-0.043l0.426-0.085l0.468,0.085l0.511,0.128l0.511,0.255 M255.91,221.16
					l0.511,0.341l0.511,0.426l0.468,0.511l0.468,0.553l0.383,0.638l0.34,0.638l0.255,0.681l0.213,0.681l0.128,0.638l0.043,0.638
					l-0.043,0.553l-0.128,0.511l-0.213,0.426l-0.255,0.383l-0.128,0.128 M253.058,221.032l0.426-0.17l0.468-0.043l0.468,0.043
					l0.553,0.17l0.511,0.255 M255.484,221.288l0.553,0.34l0.511,0.468l0.511,0.511l0.426,0.596l0.426,0.638l0.341,0.638l0.298,0.724
					l0.17,0.681l0.128,0.681l0.043,0.638l-0.043,0.596l-0.128,0.511l-0.17,0.468l-0.298,0.341l-0.341,0.298 M252.462,221.415
					l0.17-0.128l0.426-0.17l0.468-0.043l0.468,0.043l0.553,0.17l0.511,0.255 M255.059,221.543l0.553,0.34l0.511,0.426l0.511,0.553
					l0.426,0.596l0.426,0.638l0.341,0.638l0.298,0.681l0.17,0.724l0.128,0.638l0.043,0.681l-0.043,0.553l-0.128,0.553l-0.17,0.468
					l-0.298,0.341l-0.341,0.255l-0.213,0.128 M252.93,221.33l0.17-0.085l0.468-0.043l0.468,0.043l0.511,0.17l0.511,0.255
					 M255.059,221.671l0.511,0.34l0.511,0.426l0.468,0.511l0.468,0.553l0.383,0.638l0.341,0.638l0.255,0.638l0.213,0.681
					l0.128,0.681l0.043,0.596l-0.043,0.596l-0.128,0.511l-0.213,0.426l-0.255,0.341l-0.128,0.128 M252.207,221.543l0.426-0.17
					l0.468-0.043l0.468,0.043l0.553,0.128l0.511,0.255 M254.633,221.756l0.553,0.383l0.511,0.426l0.468,0.553l0.468,0.553
					l0.426,0.638l0.341,0.681l0.298,0.681l0.17,0.681l0.128,0.681l0.043,0.638l-0.043,0.596l-0.128,0.553l-0.17,0.426l-0.298,0.383
					l-0.341,0.255 M251.611,221.926l0.17-0.128l0.426-0.17l0.468-0.085l0.468,0.043l0.553,0.17l0.511,0.255 M254.207,222.011
					l0.553,0.383l0.511,0.426l0.468,0.511l0.468,0.596l0.426,0.638l0.341,0.681l0.298,0.681l0.17,0.681l0.128,0.681l0.043,0.638
					l-0.043,0.596l-0.128,0.511l-0.17,0.468l-0.298,0.383l-0.341,0.255l-0.213,0.128 M252.079,221.799l0.17-0.043l0.468-0.043
					l0.468,0.043l0.511,0.128l0.511,0.255 M254.207,222.139l0.511,0.34l0.511,0.426l0.468,0.511l0.468,0.596l0.383,0.596l0.34,0.638
					l0.255,0.681l0.213,0.681l0.128,0.638l0.043,0.638l-0.043,0.553l-0.128,0.511l-0.213,0.426l-0.255,0.383l-0.128,0.128
					 M251.355,222.011l0.426-0.17l0.468-0.043l0.468,0.043l0.553,0.17l0.511,0.255 M253.782,222.267l0.553,0.341l0.511,0.468
					l0.468,0.511l0.468,0.596l0.426,0.638l0.341,0.681l0.255,0.681l0.213,0.681l0.128,0.681l0.043,0.638l-0.043,0.596l-0.128,0.511
					l-0.213,0.468l-0.255,0.341l-0.341,0.298 M250.76,222.394l0.17-0.128l0.426-0.17l0.468-0.043l0.468,0.043l0.511,0.17
					l0.553,0.255 M253.356,222.522l0.553,0.34l0.511,0.468l0.468,0.511l0.468,0.596l0.426,0.638l0.341,0.638l0.255,0.724
					l0.213,0.681l0.128,0.681l0.043,0.638l-0.043,0.596l-0.128,0.511l-0.213,0.468l-0.255,0.34l-0.341,0.298l-0.255,0.085
					 M251.228,222.309l0.17-0.085l0.468-0.043l0.468,0.043l0.511,0.17l0.511,0.255 M253.356,222.65l0.511,0.341l0.511,0.426
					l0.468,0.511l0.468,0.553l0.383,0.638l0.341,0.638l0.255,0.681l0.213,0.638l0.128,0.681l0.043,0.596l-0.043,0.596l-0.128,0.511
					l-0.213,0.426l-0.255,0.341l-0.128,0.128 M250.504,222.522l0.426-0.17l0.468-0.043l0.468,0.043l0.511,0.128l0.553,0.298
					 M252.93,222.778l0.553,0.34l0.511,0.426l0.468,0.553l0.468,0.553l0.426,0.638l0.341,0.681l0.255,0.681l0.213,0.724l0.128,0.638
					l0.043,0.638l-0.043,0.596l-0.128,0.553l-0.213,0.426l-0.255,0.383l-0.341,0.255 M249.908,222.905l0.17-0.128l0.426-0.17
					l0.468-0.085l0.468,0.085l0.511,0.128l0.553,0.255 M252.505,222.99l0.553,0.383l0.511,0.426l0.468,0.511l0.468,0.596
					l0.426,0.638l0.341,0.681l0.255,0.681l0.213,0.681l0.128,0.681l0.043,0.638l-0.043,0.596l-0.128,0.553l-0.213,0.426
					l-0.255,0.383l-0.341,0.255l-0.255,0.128 M250.377,222.778l0.17-0.043l0.468-0.043l0.468,0.043l0.511,0.128l0.511,0.255
					 M252.505,223.118l0.511,0.341l0.511,0.468l0.468,0.468l0.468,0.596l0.383,0.596l0.34,0.681l0.255,0.638l0.213,0.681
					l0.128,0.638l0.043,0.638l-0.043,0.553l-0.128,0.511l-0.213,0.468l-0.255,0.34l-0.128,0.128 M249.653,223.033l0.426-0.17
					l0.468-0.085l0.468,0.043l0.511,0.17l0.553,0.255 M252.079,223.246l0.553,0.383l0.511,0.426l0.468,0.511l0.468,0.596
					l0.426,0.638l0.341,0.681l0.255,0.681l0.213,0.681l0.128,0.681l0.043,0.638l-0.043,0.596l-0.128,0.511l-0.213,0.468
					l-0.255,0.383l-0.341,0.255 M249.014,223.416l0.213-0.17l0.426-0.17l0.468-0.043l0.468,0.043l0.511,0.17l0.553,0.255
					 M251.653,223.501l0.511,0.341l0.553,0.468l0.468,0.511l0.468,0.596l0.426,0.638l0.341,0.681l0.255,0.681l0.213,0.681
					l0.128,0.681l0.043,0.638l-0.043,0.596l-0.128,0.511l-0.213,0.468l-0.255,0.341l-0.341,0.298l-0.255,0.085 M249.525,223.288
					l0.17-0.043l0.468-0.085l0.468,0.043l0.511,0.17l0.511,0.255 M251.653,223.629l0.511,0.34l0.511,0.426l0.468,0.511l0.468,0.553
					l0.383,0.638l0.34,0.638l0.255,0.681l0.213,0.638l0.128,0.681l0.043,0.596l-0.043,0.596l-0.128,0.511l-0.213,0.426l-0.255,0.383
					l-0.17,0.085 M248.802,223.501l0.426-0.17l0.468-0.043l0.468,0.043l0.511,0.17l0.553,0.255 M251.228,223.756l0.511,0.341
					l0.553,0.468l0.468,0.511l0.468,0.596l0.426,0.638l0.341,0.638l0.255,0.724l0.213,0.681l0.128,0.681l0.043,0.638l-0.043,0.596
					l-0.128,0.511l-0.213,0.468l-0.255,0.34l-0.341,0.298 M248.163,223.884l0.213-0.128l0.426-0.17l0.426-0.043l0.511,0.043
					l0.511,0.128l0.553,0.298 M250.802,224.012l0.511,0.341l0.553,0.426l0.468,0.553l0.468,0.553l0.426,0.638l0.341,0.681
					l0.255,0.681l0.213,0.724l0.128,0.638l0.043,0.638l-0.043,0.596l-0.128,0.553l-0.213,0.426l-0.255,0.383l-0.341,0.255
					l-0.255,0.128 M248.674,223.799l0.17-0.085l0.468-0.043l0.468,0.043l0.511,0.17l0.511,0.213 M250.802,224.097l0.511,0.383
					l0.511,0.426l0.468,0.511l0.468,0.553l0.383,0.596l0.34,0.681l0.255,0.638l0.213,0.681l0.128,0.638l0.043,0.638l-0.043,0.553
					l-0.128,0.511l-0.213,0.468l-0.255,0.341l-0.17,0.128 M247.95,224.012l0.426-0.17l0.426-0.085l0.511,0.085l0.511,0.128
					l0.553,0.255 M250.377,224.225l0.511,0.383l0.553,0.426l0.468,0.511l0.468,0.596l0.426,0.638l0.341,0.681l0.255,0.681
					l0.213,0.681l0.128,0.681l0.043,0.638l-0.043,0.596l-0.128,0.553l-0.213,0.426l-0.255,0.383l-0.341,0.255 M247.312,224.395
					l0.213-0.17l0.426-0.128l0.426-0.085l0.511,0.043l0.511,0.17l0.553,0.255 M249.951,224.48l0.511,0.34l0.553,0.468l0.468,0.511
					l0.468,0.596l0.426,0.638l0.341,0.681l0.255,0.681l0.213,0.681l0.128,0.681l0.043,0.638l-0.043,0.596l-0.128,0.511l-0.213,0.468
					l-0.255,0.383l-0.341,0.255l-0.255,0.085 M247.823,224.267l0.17-0.043l0.468-0.085l0.468,0.085l0.511,0.128l0.511,0.255
					 M249.951,224.608l0.511,0.341l0.511,0.426l0.468,0.511l0.468,0.553l0.383,0.638l0.34,0.638l0.255,0.681l0.213,0.681
					l0.128,0.638l0.043,0.638l-0.043,0.553l-0.128,0.511l-0.213,0.426l-0.255,0.383l-0.17,0.128 M247.099,224.48l0.426-0.17
					l0.426-0.043l0.511,0.043l0.511,0.17l0.553,0.255 M249.525,224.735l0.511,0.341l0.553,0.468l0.468,0.511l0.468,0.596
					l0.426,0.638l0.341,0.638l0.255,0.724l0.213,0.681l0.128,0.681l0.043,0.638l-0.043,0.596l-0.128,0.511l-0.213,0.468
					l-0.255,0.341l-0.341,0.298 M246.461,224.863l0.213-0.128l0.426-0.17l0.426-0.043l0.511,0.043l0.511,0.17l0.553,0.255
					 M249.1,224.991l0.511,0.341l0.553,0.426l0.468,0.553l0.468,0.596l0.383,0.638l0.383,0.638l0.255,0.681l0.213,0.724l0.128,0.638
					l0.043,0.681l-0.043,0.553l-0.128,0.553l-0.213,0.468l-0.255,0.341l-0.383,0.255l-0.213,0.128 M246.971,224.778l0.17-0.085
					l0.468-0.043l0.468,0.043l0.511,0.17l0.511,0.255 M249.1,225.118l0.511,0.341l0.511,0.426l0.468,0.511l0.426,0.553l0.426,0.638
					l0.34,0.638l0.255,0.638l0.213,0.681l0.128,0.638v0.638v0.596l-0.128,0.511l-0.213,0.426l-0.255,0.34l-0.17,0.128
					 M246.248,224.991l0.426-0.17l0.426-0.043l0.511,0.043l0.511,0.128l0.553,0.255 M248.674,225.204l0.511,0.383l0.553,0.426
					l0.468,0.553l0.468,0.553l0.383,0.638l0.383,0.681l0.255,0.681l0.213,0.681l0.128,0.681l0.043,0.638l-0.043,0.596l-0.128,0.553
					l-0.213,0.426l-0.255,0.383l-0.383,0.255 M245.609,225.374l0.213-0.128l0.426-0.17l0.426-0.085l0.511,0.043l0.511,0.17
					l0.553,0.255 M248.248,225.459l0.511,0.383l0.553,0.426l0.468,0.511l0.468,0.596l0.383,0.638l0.383,0.681l0.255,0.681
					l0.213,0.681l0.128,0.681l0.043,0.638l-0.043,0.596l-0.128,0.511l-0.213,0.468l-0.255,0.383l-0.383,0.255l-0.213,0.128
					 M246.12,225.246l0.17-0.043l0.468-0.043l0.468,0.043l0.511,0.128l0.511,0.255 M248.248,225.587l0.511,0.341l0.511,0.426
					l0.468,0.511l0.426,0.596l0.426,0.596l0.34,0.638l0.255,0.681l0.213,0.681l0.085,0.638l0.043,0.638l-0.043,0.553l-0.085,0.511
					l-0.213,0.426l-0.255,0.383l-0.17,0.128 M245.397,225.459l0.426-0.17l0.426-0.043l0.511,0.043l0.511,0.17l0.553,0.255
					 M247.823,225.714l0.511,0.341l0.553,0.468l0.468,0.511l0.468,0.596l0.383,0.638l0.383,0.681l0.255,0.681l0.213,0.681
					l0.128,0.681l0.043,0.638l-0.043,0.596l-0.128,0.511l-0.213,0.468l-0.255,0.34l-0.383,0.298 M244.758,225.842l0.213-0.128
					l0.426-0.17l0.426-0.043l0.511,0.043l0.511,0.17l0.553,0.255 M247.397,225.97l0.511,0.341l0.511,0.468l0.511,0.511l0.468,0.596
					l0.383,0.638l0.383,0.638l0.255,0.724l0.213,0.681l0.128,0.681l0.043,0.638l-0.043,0.596l-0.128,0.511l-0.213,0.468l-0.255,0.34
					l-0.383,0.298l-0.213,0.085 M245.269,225.757l0.17-0.085l0.426-0.043l0.511,0.043l0.511,0.17l0.511,0.255 M247.397,226.097
					l0.511,0.341l0.511,0.426l0.468,0.511l0.426,0.553l0.426,0.638l0.34,0.638l0.255,0.681l0.213,0.638l0.085,0.681l0.043,0.596
					l-0.043,0.596l-0.085,0.511l-0.213,0.426l-0.255,0.341l-0.17,0.128 M244.545,225.97l0.426-0.17l0.426-0.043l0.511,0.043
					l0.511,0.128l0.553,0.298 M246.971,226.225l0.511,0.34l0.511,0.426l0.511,0.553l0.468,0.553l0.383,0.638l0.383,0.681
					l0.255,0.681l0.213,0.724l0.128,0.638l0.043,0.638l-0.043,0.596l-0.128,0.553l-0.213,0.426l-0.255,0.383l-0.383,0.255
					 M239.012,232.354v-0.085l-0.128-0.638l-0.043-0.638l0.043-0.553l0.128-0.511l0.213-0.426l0.255-0.383l0.341-0.255l0.383-0.17
					l0.468-0.043l0.468,0.043l0.511,0.17l0.511,0.255 M242.162,229.119l0.511,0.34l0.511,0.426l0.468,0.511l0.468,0.553l0.383,0.638
					l0.341,0.638l0.255,0.681l0.213,0.638l0.128,0.681l0.043,0.596l-0.043,0.596l-0.128,0.511l-0.213,0.426l-0.255,0.34
					l-0.341,0.255l-0.383,0.17l-0.468,0.085l-0.468-0.085l-0.511-0.128l-0.511-0.255l-0.511-0.34l-0.511-0.426l-0.043-0.043
					 M239.055,232.312l-0.043-0.383l-0.085-0.596l0.043-0.553l0.085-0.511l0.17-0.468l0.255-0.341l0.341-0.255l0.341-0.17
					l0.426-0.085l0.468,0.043l0.511,0.128l0.468,0.255 M242.034,229.375l0.511,0.341l0.511,0.426l0.468,0.468l0.383,0.553
					l0.383,0.638l0.341,0.596l0.255,0.681l0.17,0.638l0.085,0.638l0.043,0.553l-0.085,0.553l-0.128,0.468l-0.213,0.426l-0.298,0.298
					l-0.341,0.213l-0.383,0.128h-0.468l-0.468-0.085l-0.511-0.213l-0.468-0.255l-0.511-0.383l-0.17-0.17 M241.268,226.693
					l0.213-0.085l0.468-0.128l0.511-0.043l0.553,0.085l0.596,0.17l0.596,0.298 M244.205,226.991l0.553,0.383l0.596,0.468
					l0.553,0.553l0.511,0.638l0.468,0.681l0.426,0.724l0.341,0.724l0.298,0.766l0.17,0.766l0.128,0.724l0.043,0.724l-0.043,0.638
					l-0.128,0.596l-0.17,0.511l-0.298,0.426l-0.341,0.341l-0.213,0.128 M239.225,229.46l0.043-0.255l0.128-0.596l0.213-0.511
					l0.255-0.426l0.341-0.341l0.426-0.255l0.468-0.128h0.511l0.553,0.043l0.596,0.213l0.596,0.298 M243.354,227.502l0.553,0.383
					l0.596,0.468l0.553,0.553l0.511,0.638l0.468,0.681l0.426,0.681l0.341,0.766l0.255,0.766l0.213,0.724l0.128,0.766l0.043,0.681
					l-0.043,0.681l-0.128,0.553l-0.213,0.553l-0.255,0.426l-0.341,0.34l-0.426,0.213l-0.468,0.128l-0.511,0.043l-0.553-0.085
					l-0.596-0.17l-0.213-0.085 M239.523,229.119l0.043-0.213l0.17-0.511l0.255-0.426l0.34-0.34l0.383-0.255l0.468-0.128l0.511-0.043
					l0.511,0.085l0.553,0.17l0.596,0.255 M243.354,227.715l0.553,0.383l0.553,0.468l0.511,0.553l0.511,0.596l0.468,0.681
					l0.383,0.681l0.34,0.724l0.255,0.766l0.17,0.724l0.128,0.681v0.681l-0.043,0.638l-0.17,0.553l-0.213,0.468l-0.298,0.383
					l-0.341,0.298l-0.426,0.213l-0.511,0.085l-0.511-0.043l-0.553-0.128 M224.711,241.378l0.17-0.043h0.255l0.298,0.128
					 M225.434,241.463l0.255,0.213l0.298,0.298l0.213,0.34l0.128,0.383l0.085,0.383l-0.043,0.298l-0.085,0.255l-0.17,0.17
					 M220.241,245.081l0.979,0.553 M221.22,245.506l-0.979-0.553 M224.03,241.803l0.213-0.085h0.255l0.298,0.085 M224.796,241.803
					l0.255,0.255l0.298,0.298l0.213,0.34l0.128,0.383l0.085,0.341l-0.043,0.34l-0.085,0.255l-0.213,0.17h-0.043 M221.22,245.634
					l0.255-0.043l0.255-0.043l0.255-0.085l0.213-0.043l0.213-0.043 M220.241,245.081v-0.043v-0.043v-0.043 M220.241,244.953
					l0.255-0.255l0.255-0.255l0.298-0.255l0.255-0.213l0.298-0.213l0.255-0.17l0.213-0.128l0.213-0.085l0.17-0.043h0.128
					l0.085,0.043l0.043,0.085v0.17l-0.043,0.17l-0.128,0.213l-0.128,0.213l-0.213,0.255l-0.213,0.255l-0.255,0.255l-0.255,0.298
					l-0.255,0.213 M221.22,245.506v0.043v0.043v0.043 M321.415,195.239l0.128,0.043l0.341,0.085l0.383-0.085l0.383-0.128
					l0.298-0.298l0.255-0.34 M323.203,194.515l0.17-0.383l0.085-0.426l-0.043-0.383l-0.128-0.34l-0.255-0.298l-0.128-0.085
					 M278.766,207.412l-2.554,1.447 M280.001,215.457l2.554-1.49 M301.581,195.664l-0.426,0.213 M303.751,200.346l0.426-0.255
					 M300.729,196.09l-0.468,0.213 M302.943,200.9l0.383-0.298 M299.835,196.558l-0.426,0.213 M302.091,201.411l0.426-0.255
					 M298.984,196.984l-0.468,0.213 M301.283,201.964l0.383-0.255 M298.09,197.41l-0.426,0.255 M300.431,202.517l0.426-0.298
					 M297.197,197.878l-0.426,0.213 M299.623,203.028l0.426-0.255 M296.345,198.303l-0.468,0.255 M298.814,203.581l0.383-0.255
					 M295.451,198.772l-0.426,0.213 M297.963,204.135l0.426-0.298 M294.558,199.197l-0.426,0.255 M297.154,204.645l0.426-0.255
					 M293.706,199.665l-0.468,0.213 M296.303,205.199l0.426-0.298 M292.812,200.091l-0.426,0.255 M295.494,205.709l0.426-0.255
					 M291.961,200.559l-0.468,0.213 M294.685,206.263l0.383-0.255 M291.067,200.985l-0.426,0.255 M293.834,206.816l0.426-0.298
					 M290.174,201.453l-0.426,0.213 M293.025,207.327l0.426-0.255 M289.322,201.879l-0.468,0.213 M292.217,207.88l0.383-0.255
					 M288.428,202.347l-0.426,0.213 M291.365,208.434l0.426-0.298 M287.535,202.773l-0.426,0.213 M290.557,208.944l0.383-0.255
					 M286.683,203.241l-0.468,0.213 M289.705,209.498l0.426-0.298 M285.789,203.666l-0.426,0.213 M288.897,210.008l0.426-0.255
					 M284.938,204.135l-0.468,0.213 M288.088,210.562l0.383-0.255 M283.065,213.499l4.554-2.639 M284.002,204.603l-4.554,2.639
					 M265.018,223.927l14.897-8.64 M276.298,209.029l-14.897,8.598 M259.741,217.627l-4.852,2.384 M259.698,228.353l4.512-3.022
					 M259.187,228.651l0.426-0.213 M254.803,220.053l-0.426,0.255 M258.336,229.162l0.426-0.255 M253.909,220.564l-0.426,0.213
					 M257.485,229.63l0.426-0.213 M253.058,221.032l-0.426,0.255 M256.633,230.141l0.426-0.255 M252.207,221.543l-0.426,0.255
					 M255.782,230.652l0.426-0.255 M251.355,222.011l-0.426,0.255 M254.931,231.12l0.426-0.255 M250.504,222.522l-0.426,0.255
					 M254.08,231.631l0.426-0.255 M249.653,223.033l-0.426,0.213 M253.228,232.099l0.426-0.213 M248.802,223.501l-0.426,0.255
					 M252.377,232.61l0.426-0.255 M247.95,224.012l-0.426,0.213 M251.483,233.078l0.468-0.213 M247.099,224.48l-0.426,0.255
					 M250.632,233.589l0.426-0.255 M246.248,224.991l-0.426,0.255 M249.781,234.099l0.426-0.255 M245.397,225.459l-0.426,0.255
					 M247.993,235.759l0.043-0.043l0.128-0.255l0.213-0.298l0.341-0.341l0.468-0.383l0.213-0.085 M244.545,225.97l-0.213,0.128
					l-0.553,0.213l-0.511,0.128h-0.383h-0.255 M245.226,236.1l0.17-0.298l0.341-0.681l0.468-0.681l0.596-0.724l0.255-0.298
					 M244.247,228.396l-0.511,0.128l-0.894,0.128l-0.809,0.085l-0.724-0.043l-0.383-0.043 M246.248,237.292l0.851-0.511
					 M241.268,226.693l-0.851,0.511 M226.924,244.102l18.09-10.471 M242.97,230.056l-18.09,10.471 M225.477,244.144l0.638-0.34
					 M224.711,241.378l-0.638,0.383 M225.647,244.059l0.043,0.043l0.34,0.128h0.341l0.298-0.043l0.213-0.085 M224.881,240.527
					l-0.17,0.128l-0.255,0.255l-0.128,0.298l-0.085,0.341v0.128 M222.412,245.379l2.979-1.192 M224.03,241.803l-2.809,2.213
					 M322.905,192.6l-0.553-0.298l-0.979-0.426l-1.064-0.383l-1.064-0.255l-1.149-0.17l-1.149-0.043h-1.192l-1.234,0.128
					l-1.234,0.213l-1.277,0.298l-1.277,0.426l-1.319,0.511l-1.277,0.596l-1.319,0.681l-0.468,0.255 M307.88,196.729l0.596-0.34
					l1.192-0.596l1.149-0.511l1.149-0.426l1.107-0.34l1.107-0.255l1.064-0.17l1.064-0.043h0.979l0.979,0.085l0.936,0.213
					l0.894,0.255l0.851,0.383l0.468,0.255 M306.348,194.132l-3.235,1.873 M304.645,198.601l3.235-1.873"/>
			</g>
		</g>
	</g>
</g>
<g id="XMLID_11_">
	<g id="XMLID_18_">
		<path id="XMLID_38_" d="M813.4,2.98c14,0,25.5,11.4,25.5,25.5v538.3c0,14-11.4,25.5-25.5,25.5H28.5c-14,0-25.5-11.4-25.5-25.5
			V28.48c0-14.1,11.4-25.5,25.5-25.5H813.4 M813.4-0.02H28.5C12.8-0.02,0,12.78,0,28.48v538.3c0,15.7,12.8,28.5,28.5,28.5h784.9
			c15.7,0,28.5-12.8,28.5-28.5V28.48C841.9,12.78,829.1-0.02,813.4-0.02L813.4-0.02z"/>
	</g>
	<g id="XMLID_16_">
		<path id="XMLID_273_" d="M1.5,83.48v-55c0-14.9,12.1-27,27-27h55.1v82H1.5z"/>
		<g id="XMLID_269_">
			<path id="XMLID_270_" d="M82,2.98v79H3v-53.5c0-14.1,11.4-25.5,25.5-25.5H82 M85-0.02H28.5C12.8-0.02,0,12.78,0,28.48v56.5h85
				V-0.02L85-0.02z"/>
		</g>
	</g>
	<g id="XMLID_12_">
		<path id="XMLID_31_" fill="#FFFFFF" d="M32.5,33.98v-4.5c2.1-0.1,3.6-0.2,4.4-0.4c1.3-0.3,2.4-0.9,3.3-1.8c0.6-0.6,1-1.4,1.3-2.4
			c0.2-0.6,0.3-1.1,0.3-1.4h5.6v34h-6.8v-23.5H32.5z"/>
	</g>
	<g id="XMLID_15_">
		<path id="XMLID_279_" fill="#FFFFFF" d="M86.5,83.48v-82h82v55.2c0,14.8-12,26.8-26.8,26.8H86.5z"/>
		<g id="XMLID_275_">
			<path id="XMLID_276_" d="M167.1,2.98v53.7c0,14-11.4,25.3-25.3,25.3H88v-79H167.1 M170.1-0.02H85v85h56.7
				c15.6,0,28.3-12.8,28.3-28.3v-56.7H170.1z"/>
		</g>
	</g>
	<g id="XMLID_13_">
		<path id="XMLID_22_" d="M122.7,32.28l4.3,4.3l-8.1,8.1l8.1,8l-4.3,4.4l-8.1-8.1l-8.1,8.1l-4.3-4.4l8.1-8l-8.1-8.1l4.3-4.3l8.1,8.1
			L122.7,32.28z"/>
		<path id="XMLID_24_" d="M131.3,50.68c1-2.3,3.2-4.7,6.8-7.2c3.1-2.2,5.1-3.8,6-4.7c1.4-1.5,2.1-3.1,2.1-4.9c0-1.4-0.4-2.6-1.2-3.6
			s-1.9-1.4-3.4-1.4c-2,0-3.4,0.8-4.1,2.3c-0.4,0.9-0.7,2.3-0.8,4.2h-6.5c0.1-2.9,0.6-5.2,1.6-7c1.8-3.4,5-5.1,9.5-5.1
			c3.6,0,6.5,1,8.6,3s3.2,4.6,3.2,7.9c0,2.5-0.8,4.8-2.3,6.7c-1,1.3-2.6,2.7-4.9,4.3l-2.7,1.9c-1.7,1.2-2.8,2-3.4,2.6
			s-1.1,1.1-1.6,1.9H153v5.9h-23.3C129.8,54.98,130.3,52.68,131.3,50.68z"/>
	</g>
</g>
</svg>
