<?xml version="1.0" encoding="utf-8"?>
<!-- Generator: Adobe Illustrator 19.0.0, SVG Export Plug-In . SVG Version: 6.00 Build 0)  -->
<svg version="1.1" id="Layer_1" xmlns="http://www.w3.org/2000/svg" xmlns:xlink="http://www.w3.org/1999/xlink" x="0px" y="0px"
	 width="841.9px" height="595.3px" viewBox="0 0 841.9 595.3" style="enable-background:new 0 0 841.9 595.3;" xml:space="preserve"
	>
<style type="text/css">
	.st0{fill:none;stroke:#0B0620;stroke-width:0.5;stroke-linecap:round;stroke-linejoin:round;}
	.st1{fill:#FFFFFF;}
</style>
<g id="XMLID_1_">
	<g>
		<path id="XMLID_343_" class="st0" d="M458.7,444.8c63.8-24,63.8-24,127.5-48.2c11.1-4.9,11-5,22-10c1.6-0.7,1.6-0.6,3.2-1.3
			c0.1,0,0.1,0,0.3-0.1"/>
		<path id="XMLID_342_" class="st0" d="M493.2,409.1c46.6-17.4,46.6-17.4,93-35.2c12.7-5.8,12.7-5.8,25.2-11.8
			c15.3-8.7,15.3-8.7,30.4-17.6"/>
		<path id="XMLID_341_" class="st0" d="M300.5,438.2v1.4l0.5,2.9l1.4,2.1l-4.7-2.5l-6.1-3.7l-1.6-1.8l-0.7-2.8l0-2.1"/>
		<path id="XMLID_340_" class="st0" d="M302.3,444.6l2.1,0.9l2.6-0.3l4.8-1.9"/>
		<path id="XMLID_339_" class="st0" d="M641.8,344.6l-89.4-51.6"/>
		<path id="XMLID_338_" class="st0" d="M576.1,400.4l26.5,15.3"/>
		<path id="XMLID_337_" class="st0" d="M612.2,385.1l0.4,0.5l0.9,2"/>
		<path id="XMLID_336_" class="st0" d="M616.2,415.5l22.4-12.9l-0.1,0"/>
		<path id="XMLID_335_" class="st0" d="M619.4,406V393"/>
		<path id="XMLID_334_" class="st0" d="M641.8,393v-48.4"/>
		<path id="XMLID_333_" class="st0" d="M638.6,402.6l2.4-4l0.8-5.6"/>
		<path id="XMLID_332_" class="st0" d="M611.5,385.2c4.7-1,7.9,2.1,7.9,7.8"/>
		<path id="XMLID_331_" class="st0" d="M619.4,406c0,10.7-7.5,15-16.8,9.7"/>
		<path id="XMLID_330_" class="st0" d="M289.3,431.7c-17.4-11.4-28.5-25.5-31.8-40.5"/>
		<path id="XMLID_329_" class="st0" d="M458.7,444.8c-49.3,18.6-114.1,15.9-158.2-6.6"/>
		<path id="XMLID_328_" class="st0" d="M613.7,388.2c0.7,7.5-3.7,11.4-9.8,8.7c-2.3-1-4.7-2.9-6.7-5.4"/>
	</g>
	<g>
		<path id="XMLID_327_" class="st0" d="M191.2,230.5c-0.1,0.4-0.1,0.4-0.2,0.7c-0.3,2.6-0.4,2.6-0.6,5.3c0.1,2,0.2,2,0.4,4
			c0.3,2.1,0.3,2.1,0.6,4.2c0.7,2.6,0.8,2.6,1.5,5.3c0.7,2,0.7,2,1.3,4c5.6,16.4,5.6,16.4,11.1,32.8c0.1,0.2,0.1,0.2,0.2,0.5
			c0.5,1.2,0.5,1.2,1,2.5"/>
		<path id="XMLID_326_" class="st0" d="M191,231.2c0.3-1.6,0.3-1.6,0.7-3.3c0.9-2.9,0.9-2.9,1.8-5.9c0.8-2,0.8-2.1,1.7-4.1
			c1.8-3.4,1.9-3.4,3.8-6.8c1.9-3.2,1.9-3.2,3.8-6.4c0.7-1.3,0.7-1.3,1.4-2.6c0.4-0.9,0.4-0.9,0.8-1.8c0.7-2,0.7-2,1.4-4.1
			c0.3-1.3,0.3-1.3,0.5-2.7"/>
		<path id="XMLID_325_" class="st0" d="M206.9,193.6c1.5-2.5,1.5-2.5,3.2-5c2.9-3,3-2.9,6-5.9c0.7-0.5,0.7-0.5,1.5-1
			c3-1.4,3-1.4,6-2.7c1-0.4,1-0.4,2-0.8c2.1-0.3,2.1-0.3,4.2-0.5"/>
		<path id="XMLID_324_" class="st0" d="M268.4,400.7c3.4,2.4,3.4,2.4,6.9,4.8c3.8,2.3,3.9,2.3,7.7,4.6c2.8,1.5,2.8,1.5,5.6,3
			c1.8,0.7,1.8,0.7,3.5,1.3"/>
		<path id="XMLID_323_" class="st0" d="M294.2,412.4c-0.3-1.5-0.4-1.5-0.8-3c-1.9-3.5-1.9-3.5-3.9-7c-2.2-2.8-2.2-2.8-4.4-5.5
			c-2.7-2.7-2.7-2.7-5.4-5.4c-2.7-2.3-2.7-2.3-5.4-4.6c-3-2.1-3-2.1-6-4.1c-2.9-1.4-2.9-1.4-5.8-2.6c-1.2-0.3-1.2-0.3-2.4-0.5"/>
		<path id="XMLID_322_" class="st0" d="M256.9,383.3c0.1,0.6,0.1,0.6,0.2,1.2c0.7,2.4,0.7,2.4,1.4,4.8c1,1.8,1,1.8,2.1,3.7
			c1.6,1.9,1.6,1.9,3.2,3.7c2.3,2,2.3,2,4.7,4"/>
		<path id="XMLID_321_" class="st0" d="M268.4,400.7c-3.2-2.5-3.2-2.5-6.4-5.1c-2.2-2.1-2.2-2.1-4.4-4.3c-7.2-7.8-7.3-7.7-14.4-15.6
			c-2.2-3.3-2.1-3.4-4.1-6.8c-4.4-8.8-4.4-8.8-8.7-17.6c-0.9-1.8-0.9-1.8-1.8-3.7c-2.6-5.2-2.7-5.1-5.2-10.3
			c-2.4-5.9-2.4-5.9-4.8-11.8c-3.3-9.4-3.3-9.4-6.6-18.8c-1.6-5-1.5-5-3.1-10c-1.6-4.7-1.6-4.7-3.2-9.5"/>
		<path id="XMLID_320_" class="st0" d="M222,270.7c-1.5-1.2-1.5-1.2-2.9-2.5c-2.7-3.6-2.7-3.7-5.2-7.4c-0.9-1.8-0.8-1.8-1.6-3.6
			c-0.1-0.2-0.1-0.2-0.1-0.3c-0.5-2.5-0.5-2.5-1-5"/>
		<path id="XMLID_319_" class="st0" d="M211.9,247.6c1-2.1,1-2.1,2.2-4.1c1.6-1.6,1.6-1.6,3.3-3.1c1.2-0.8,1.2-0.8,2.4-1.4
			c2.5-0.8,2.5-0.9,5-1.6c2.8-0.1,2.8-0.1,5.6-0.1"/>
		<path id="XMLID_318_" class="st0" d="M229.8,177.7c2.3-0.3,2.3-0.3,4.6-0.5c2.3,0.1,2.4,0.1,4.6,0.4c2.9,0.6,2.9,0.6,5.9,1.3
			c2.9,1.1,2.9,1.1,5.8,2.2c1.8,0.9,1.8,1,3.5,2c0.8,0.5,0.8,0.5,1.5,1"/>
		<path id="XMLID_317_" class="st0" d="M255.6,183.9c2.6,2.1,2.6,2.1,5.2,4.3c2.6,2.8,2.6,2.8,5.2,5.6
			c14.4,17.1,14.3,17.3,28.8,34.4c2,1.6,2,1.7,4.2,3.1"/>
		<path id="XMLID_316_" class="st0" d="M265,194.7c8.8,10.3,8.8,10.3,17.5,20.7c6.5,7.9,6.5,8,13.1,15.9c2,1.8,2,1.8,4,3.5"/>
		<path id="XMLID_315_" class="st0" d="M288.7,413.1c7.5,3.4,7.5,3.4,15.1,6.6c13,4.1,13.1,4,26.2,8c1.3,0.4,1.3,0.4,2.7,0.7
			c13.5,2.4,13.5,2.5,27,4.7c7.8,0.6,7.8,0.6,15.6,0.9"/>
		<path id="XMLID_314_" class="st0" d="M375.2,434.1c-3.5-0.4-3.5-0.4-6.9-0.9c-2.5-0.7-2.5-0.7-5-1.4c-1.5-0.8-1.5-0.8-2.9-1.7"/>
		<path id="XMLID_313_" class="st0" d="M387.4,213.1c-8.7,0.1-8.7,0.1-17.5,0.5c-11.7,1.2-11.7,1.2-23.4,2.7
			c-11.3,2.1-11.3,2.2-22.7,4.4c-1.8,0.5-1.8,0.5-3.7,1c-12.3,3.6-12.3,3.6-24.7,7.1"/>
		<path id="XMLID_312_" class="st0" d="M394.2,229.4c-3.5-1.6-3.5-1.6-7-3.1c-4-1.2-4.1-1.2-8.1-2.3c-4.1-0.7-4.1-0.7-8.3-1.2
			c-4.6-0.1-4.6-0.2-9.2-0.2c-4.1,0.3-4.1,0.3-8.3,0.8c-4.1,0.9-4.1,0.9-8.1,1.8c-3.4,1.2-3.4,1.2-6.8,2.6c-2.7,1.5-2.7,1.5-5.4,3.2
			c-2.2,2.2-2.3,2.2-4.4,4.5"/>
		<path id="XMLID_311_" class="st0" d="M422.7,275.7c-3.9-2.3-3.9-2.3-7.9-4.6c-0.7-0.3-0.7-0.3-1.4-0.5c-0.6-0.1-0.6-0.1-1.2-0.3
			c-0.4,0-0.4,0-0.7-0.1c-1,0-1,0-1.9,0"/>
		<path id="XMLID_310_" class="st0" d="M409.5,270.3c-30,4.6-30,4.6-59.9,9.2c-0.5,0.1-0.5,0.1-0.9,0.2c-0.6,0.2-0.6,0.2-1.2,0.4
			c-0.5,0.2-0.5,0.2-1,0.5c-0.6,0.4-0.6,0.4-1.2,0.9c-0.3,0.4-0.3,0.5-0.6,0.9c-1.4,2.9-1.4,2.9-2.7,5.9c-0.1,0.3-0.1,0.3-0.1,0.5
			c-0.1,0.2-0.1,0.2-0.1,0.4"/>
		<path id="XMLID_309_" class="st0" d="M342,290.3c0.4,0.5,0.4,0.5,0.8,1c0.5,0.4,0.5,0.4,1,0.7c0.5,0.3,0.5,0.3,1,0.5"/>
		<path id="XMLID_308_" class="st0" d="M347.2,281.1c-0.1,0.1-0.1,0.1-0.2,0.2c-0.2,0.3-0.2,0.3-0.4,0.6c-1.4,3-1.4,3-2.7,5.9
			c-0.1,0.3-0.1,0.4-0.1,0.7"/>
		<path id="XMLID_307_" class="st0" d="M350.1,279.9c29.5-4.6,29.5-4.6,59-9.1c0.5-0.1,0.5-0.1,1.1-0.1c0.7,0,0.7,0,1.4,0.1
			c0.7,0.1,0.7,0.1,1.3,0.3c0.6,0.3,0.6,0.3,1.1,0.5c1.9,1.1,1.9,1.1,3.9,2.2"/>
		<path id="XMLID_306_" class="st0" d="M361.6,228.7c1.6,0.7,1.6,0.7,3.1,1.6c1.1,0.9,1.1,0.9,2.2,2c0.8,1.1,0.8,1.1,1.4,2.3"/>
		<path id="XMLID_305_" class="st0" d="M368,239.5c-0.4,0.5-0.4,0.5-0.8,1c-0.5,0.5-0.5,0.5-1,0.9c-1.3,0.8-1.3,0.8-2.7,1.5
			c-1.7,0.4-1.7,0.3-3.3,0.7c-0.3,0-0.3,0-0.7,0c-1.6-0.1-1.6-0.1-3.3-0.3"/>
		<path id="XMLID_304_" class="st0" d="M379.6,322.6c-1,3.7-1,3.7-2,7.5c-1.4,4.6-1.4,4.6-2.7,9.2c-0.7,2.1-0.7,2.1-1.4,4.2
			c-0.8,1.8-0.8,1.8-1.6,3.5c-0.5,0.9-0.5,0.9-1,1.7c-0.9,1-0.9,1-1.8,2c-1.8,1.1-1.8,1.1-3.7,2.1"/>
		<path id="XMLID_303_" class="st0" d="M369.1,285.3c-0.4,0.1-0.4,0.1-0.7,0.2c-1,0.5-1,0.4-1.9,0.9c-1,0.8-1,0.8-2,1.7"/>
		<path id="XMLID_302_" class="st0" d="M383.3,318.8c-1.8,1.5-1.8,1.5-3.7,3.1c-0.4,0.5-0.4,0.5-0.9,0.9c-2.6,3.1-2.6,3.1-5.2,6.2
			c-2.9,3.6-2.9,3.6-5.8,7.2c-0.5,0.7-0.5,0.7-0.9,1.3"/>
		<path id="XMLID_301_" class="st0" d="M369.1,285.3c6.4-1.8,6.4-1.8,12.9-3.3c7.4-0.6,7.4-0.5,14.9-1c1.8,0.1,1.8,0.2,3.5,0.4
			c1.6,0.5,1.6,0.5,3.2,1.1c1.1,0.7,1.1,0.7,2.2,1.5"/>
		<path id="XMLID_300_" class="st0" d="M378.6,359.6c-2.4-2.5-2.4-2.5-4.8-5c-0.6-1-0.5-1-1-2c-0.4-0.7-0.4-0.7-0.9-1.4
			c-0.6-1.3-0.6-1.3-1.1-2.6"/>
		<path id="XMLID_299_" class="st0" d="M375.2,434.1c1.5,0.1,1.5,0.1,3.1,0.1c2.6,0.1,2.6,0.1,5.1,0.1c3.7-0.2,3.7-0.2,7.3-0.5
			c2.5-0.5,2.5-0.5,4.9-1.1c1.4-0.7,1.4-0.7,2.8-1.6"/>
		<path id="XMLID_298_" class="st0" d="M397.9,423c-1.5-1.4-1.5-1.4-3-2.7c-2.1-1.2-2.1-1.2-4.3-2.2c-2.7-0.8-2.7-0.8-5.4-1.5
			c-1.4-0.2-1.4-0.2-2.9-0.3"/>
		<path id="XMLID_297_" class="st0" d="M373.4,299.5c5.8,2.6,5.9,2.6,11.8,5c2,0.4,2,0.4,4,0.7c2.1,0,2.1,0,4.2-0.1
			c1.9-0.5,1.9-0.5,3.8-1c1.5-0.8,1.5-0.9,2.9-1.8"/>
		<path id="XMLID_296_" class="st0" d="M524.7,382.7c-3.7,4-3.7,4-7.4,8c-2.2,2.2-2.2,2.2-4.4,4.3c-9.2,6.7-9.2,6.9-18.6,13.4
			c-11.3,5.6-11.3,5.6-22.7,11c-12.9,4.3-13,4.1-26,8.2c-1.4,0.4-1.4,0.4-2.7,0.8c-13.5,2.4-13.5,2.6-27,4.8c-14,1-14,0.9-28.1,1.7
			c-4.8-0.2-4.8-0.2-9.5-0.5"/>
		<path id="XMLID_295_" class="st0" d="M379.6,322.6c2.6-2.6,2.6-2.6,5.2-5.1c1.4-1.1,1.5-1.1,3-2.1c2.5-1.5,2.5-1.6,5.1-3
			c2.7-1.1,2.7-1.1,5.5-2.2c2.1-0.5,2.2-0.5,4.3-0.9"/>
		<path id="XMLID_294_" class="st0" d="M397.6,213.1c3.8-0.6,3.8-0.6,7.6-1.2c3.7-0.9,3.7-0.9,7.5-1.9c1.1-0.4,1.1-0.4,2.2-0.8"/>
		<path id="XMLID_293_" class="st0" d="M417.9,273.8c1.8,1,1.8,1,3.5,2c0.4,0.3,0.4,0.3,0.7,0.5c0.3,0.4,0.3,0.4,0.6,0.8"/>
		<path id="XMLID_292_" class="st0" d="M413,358.3c0.2-1.6,0.2-1.6,0.4-3.3c0.3-0.9,0.3-0.9,0.6-1.8c1.2-2.2,1.2-2.3,2.6-4.5
			c2.2-2.4,2.2-2.5,4.4-4.8c3.5-2.6,3.5-2.6,7.2-5c3.9-1.5,3.9-1.5,7.9-2.8c4.3-0.4,4.4-0.4,8.8-0.6c4.8,0.8,4.9,0.8,9.7,1.8
			c3.9,1.6,3.8,1.7,7.7,3.4c0.7,0.4,0.7,0.4,1.3,0.9c1.6,1.6,1.6,1.6,3.1,3.2c0.4,0.8,0.4,0.8,0.8,1.6c0.3,1.4,0.2,1.4,0.5,2.8
			c0,0.3,0,0.3-0.1,0.6c-0.3,1-0.3,1-0.6,2.1c-1,1.6-1,1.7-2.1,3.2c-2.8,2.4-2.8,2.5-5.7,4.8c-3.7,2.2-3.8,2.1-7.5,4.2
			c-1.6,0.7-1.6,0.7-3.3,1.4c-3.9,1.2-3.9,1.2-7.9,2.3c-2,0.4-2,0.4-4,0.6c-3.9,0.1-3.9,0.1-7.7,0.1c-1.1-0.1-1.1-0.1-2.2-0.3
			c-3.3-0.9-3.4-0.9-6.7-1.8c-2.1-1.1-2.1-1.2-4.1-2.4"/>
		<path id="XMLID_291_" class="st0" d="M425,201.8c-1.3,1.4-1.3,1.4-2.7,2.7c-1.3,1-1.3,1-2.6,2c-2.4,1.4-2.4,1.4-4.8,2.7"/>
		<path id="XMLID_290_" class="st0" d="M418.4,292.8c2.5-5.3,2.5-5.3,4.9-10.6c0.1-0.1,0.1-0.1,0.1-0.2c0.1-1.2,0.1-1.2,0.1-2.3"/>
		<path id="XMLID_289_" class="st0" d="M425.6,305.6c7.3-1.2,7.3-1.2,14.7-2.5c3.7-0.4,3.7-0.4,7.4-0.8c1.8,0,1.8,0,3.5,0
			c4,0.5,4.1,0.5,8.1,1.1c4.7,1.6,4.7,1.7,9.4,3.4c0.6,0.4,0.6,0.4,1.2,0.8"/>
		<path id="XMLID_288_" class="st0" d="M442.8,178.8c-3.8,3.8-3.8,3.8-7.6,7.7c-1,1-1,1-1.9,2.1c-2.8,4.7-2.8,4.8-5.6,9.5
			c-1.3,1.9-1.3,1.9-2.6,3.8"/>
		<path id="XMLID_287_" class="st0" d="M433.1,188.8c0.6-0.5,0.6-0.5,1.2-1c1.6-1.6,1.6-1.6,3.3-3.2c2.6-2.9,2.6-2.9,5.2-5.8
			c2.7-3.5,2.7-3.5,5.4-7.1c2-3.2,2-3.2,4-6.4c3.3-5.8,3.3-5.9,6.5-11.7c1.1-1.9,1.1-1.9,2.3-3.7c1-1.5,1-1.5,2.1-2.9
			c0.8-0.9,0.8-0.9,1.6-1.6c1.2-0.9,1.2-0.9,2.6-1.7c3.1-1.5,3.1-1.5,6.3-2.9c2.2-0.6,2.2-0.6,4.4-1.2c3.4-0.7,3.4-0.7,6.7-1.4
			c1.6,0,1.6,0,3.2,0c1.5,0.2,1.5,0.2,3,0.4c4.2,1.3,4.2,1.3,8.4,2.7c2,0.9,2.1,0.9,4.1,2c2.8,2.1,2.7,2.2,5.5,4.3
			c3.2,2,3.2,2,6.4,4.1"/>
		<path id="XMLID_286_" class="st0" d="M454.3,422.5c1.8,0.1,1.8,0.1,3.5,0c3.1-0.7,3.1-0.7,6.2-1.4c3.5-1.2,3.5-1.2,6.9-2.6
			c3.6-1.8,3.6-1.8,7.1-3.7c2.7-1.9,2.7-1.9,5.3-3.9c2-2.1,2-2.2,3.9-4.3c1.5-2.3,1.5-2.3,2.9-4.7c1-2.2,1-2.2,1.8-4.3
			c0.3-1.8,0.3-1.8,0.5-3.6"/>
		<path id="XMLID_285_" class="st0" d="M488.6,390c-2.1,0-2.1,0-4.1,0c-1.7,0.3-1.7,0.3-3.4,0.7c-2.5,0.8-2.5,0.8-4.9,1.7
			c-3.5,1.7-3.5,1.7-6.9,3.4c-1.9,1.2-1.9,1.2-3.8,2.4c-2,1.5-2,1.5-4,3c-2,1.8-2,1.8-3.9,3.6"/>
		<path id="XMLID_284_" class="st0" d="M490.7,336.4c-0.5-1.4-0.5-1.4-1-2.8c-0.6-1.2-0.6-1.2-1.2-2.5c-1.1-1.8-1.1-1.8-2.3-3.7
			c-1.4-2-1.4-2-2.8-3.9c-2.2-2.7-2.2-2.7-4.5-5.5c-1.7-2-1.8-2-3.5-4.1c-2.4-3-2.4-3-4.8-5.9"/>
		<path id="XMLID_283_" class="st0" d="M469.9,307.7c0.2,0.7,0.2,0.7,0.5,1.4c0.7,1.4,0.7,1.4,1.4,2.9c4.8,8.6,4.8,8.6,9.6,17.1
			c2.7,4.7,2.7,4.7,5.5,9.3c0.9,1.1,0.9,1.1,1.8,2.2"/>
		<path id="XMLID_282_" class="st0" d="M486.1,327.4c5.4-0.8,5.4-0.8,10.7-1.8c3.5-1.1,3.5-1.1,7-2.4c2.9-1.7,2.9-1.7,5.7-3.6"/>
		<path id="XMLID_281_" class="st0" d="M512.8,305.6c-1.6-3.2-1.6-3.2-3.5-6.3c-2.8-3-2.8-3-5.8-6c-4-2.8-4.1-2.9-8.2-5.6"/>
		<path id="XMLID_280_" class="st0" d="M486.9,316.8c0.1-0.2,0.1-0.2,0.3-0.4c0.9-0.9,0.8-0.9,1.7-1.8c1.3-0.8,1.3-0.8,2.6-1.6
			c0.7-0.3,0.7-0.3,1.4-0.6c1.7-0.5,1.7-0.5,3.4-1c1.7-0.3,1.7-0.2,3.4-0.5c0.5,0,0.5,0,1,0c1.7,0.1,1.7,0.1,3.3,0.3
			c1.2,0.4,1.2,0.4,2.4,0.8"/>
		<path id="XMLID_279_" class="st0" d="M492.2,161.2c0-0.2,0-0.2,0-0.3c0.1-0.1,0.1-0.2,0.1-0.3c0.2-0.3,0.2-0.3,0.4-0.6
			c0.2-0.2,0.2-0.2,0.4-0.3c0.2-0.1,0.2-0.1,0.5-0.2c0.3-0.1,0.3-0.1,0.6-0.1c0.2,0,0.2,0,0.5,0c0.2,0.1,0.2,0.1,0.5,0.1
			c0.2,0.1,0.2,0.1,0.3,0.1c0.2,0.1,0.2,0.1,0.3,0.3c0.1,0.1,0.1,0.1,0.2,0.3c0.1,0.2,0.1,0.2,0.1,0.4"/>
		<path id="XMLID_278_" class="st0" d="M520.3,237.6c-0.8-1-0.9-1-1.6-2c-1.2-2.4-1.2-2.4-2.2-4.8c-1.2-5-1.2-5.1-2.2-10.1
			c0-5.4,0-5.5,0.2-10.9c0.8-3.9,0.8-3.9,1.8-7.7c1.5-3.4,1.5-3.4,3.2-6.7c2-2.3,2-2.3,4.2-4.5c2.3-1.4,2.3-1.4,4.7-2.7
			c2.4-0.6,2.4-0.6,4.9-1.1"/>
		<path id="XMLID_277_" class="st0" d="M545.7,193c1.1,2.4,1.1,2.4,2.1,4.8c0.4,2.2,0.3,2.3,0.7,4.5c0,1.4,0,1.4,0,2.7
			c0,1,0,1-0.1,2c-0.7,4.5-0.7,4.6-1.4,9.1c-1.6,5-1.6,5.1-3.4,10.1c-2.3,4.2-2.3,4.3-4.7,8.3c-2.4,2.6-2.4,2.6-4.9,5"/>
		<path id="XMLID_276_" class="st0" d="M515.3,151.6c3.4,1.8,3.4,1.8,6.9,3.5c3.8,1.8,3.8,1.8,7.6,3.6c2.6,1.4,2.6,1.4,5.3,2.7
			c1.1,0.7,1.1,0.7,2.2,1.4c1.2,0.9,1.2,0.9,2.4,1.7c2.1,1.8,2.1,1.9,4.2,3.7c1.8,1.8,1.8,1.8,3.5,3.6c1.5,2.2,1.5,2.2,2.9,4.5
			c1,2.7,1,2.7,2,5.4c0.4,1.3,0.5,1.3,0.9,2.7c0.5,2.3,0.5,2.3,0.9,4.6c0.1,2.3,0.1,2.3,0.2,4.6c-0.2,3.5-0.2,3.5-0.4,7
			c-0.2,2.4-0.2,2.4-0.5,4.9c-1.8,16.1-1.8,16.1-3.7,32.2c-0.4,4-0.4,4-0.8,8"/>
		<path id="XMLID_275_" class="st0" d="M548,343c-0.9,2-0.9,2-1.8,4.1c-1.4,2.7-1.4,2.7-2.8,5.4c-3.3,6.2-3.3,6.2-6.7,12.4
			c-2.3,4.4-2.3,4.4-4.6,8.7c-0.8,1.4-0.8,1.4-1.6,2.7c-0.3,0.4-0.3,0.4-0.6,0.8"/>
		<path id="XMLID_274_" class="st0" d="M548.1,342.9c0.4-0.8,0.4-0.8,0.7-1.6c2-5.7,2-5.7,3.9-11.3c0.8-3.4,0.8-3.4,1.5-6.8
			c0.4-4.8,0.4-4.8,0.6-9.6c-0.3-4.4-0.3-4.4-0.8-8.8c-0.9-6.5-0.9-6.6-1.9-13.1"/>
		<path id="XMLID_273_" class="st0" d="M552.1,291.4c-1.1-8.2-1.1-8.3-2.2-16.5c-0.4-4.6-0.4-4.6-0.8-9.2c-0.3-4.9-0.3-4.9-0.5-9.8
			c0-4.3,0-4.3,0-8.6"/>
		<path id="XMLID_272_" class="st0" d="M229.8,177.7L229.8,177.7"/>
		<path id="XMLID_271_" class="st0" d="M193.4,222l-0.5,1.1l-1.1,4.4"/>
		<path id="XMLID_270_" class="st0" d="M191.9,227.1l-0.1,0.5"/>
		<path id="XMLID_269_" class="st0" d="M292.2,414.4l1.6-0.4l0.4-1.6"/>
		<path id="XMLID_268_" class="st0" d="M260,379.7l-2,0.4l-0.6,0.6l-0.6,2.6"/>
		<path id="XMLID_267_" class="st0" d="M205.5,287l0.1,0.2"/>
		<path id="XMLID_266_" class="st0" d="M211.2,198.4l-6.2,2"/>
		<path id="XMLID_265_" class="st0" d="M213.7,185.4l-4.1,4.5l-0.7,1l0-0.1"/>
		<path id="XMLID_264_" class="st0" d="M211.2,252l0.7-4.4"/>
		<path id="XMLID_263_" class="st0" d="M255,385.9l1.7,1.9l1.8,1.6"/>
		<path id="XMLID_262_" class="st0" d="M262.8,191.4l-4.3-4.6l-2.9-2.9"/>
		<path id="XMLID_261_" class="st0" d="M270.1,224.5l24.9,24.7l9.3,7.7"/>
		<path id="XMLID_260_" class="st0" d="M288.7,413.1l1.6,0.7"/>
		<path id="XMLID_259_" class="st0" d="M301.4,228l-5.8,0.9"/>
		<path id="XMLID_258_" class="st0" d="M387.3,213.1L387.3,213.1"/>
		<path id="XMLID_257_" class="st0" d="M297.8,229.4l-1.7-0.2"/>
		<path id="XMLID_256_" class="st0" d="M301.1,231l-4.6-1.4"/>
		<path id="XMLID_255_" class="st0" d="M341.7,289.2l0.2,1.1"/>
		<path id="XMLID_254_" class="st0" d="M344.7,292.7l-0.9-0.5l-0.7-0.5l-0.1-1.4l0.2,0.8l0.6,0.9L344.7,292.7l41.5,23.8"/>
		<path id="XMLID_253_" class="st0" d="M344.7,292.7L366,305l-3.1-1.8"/>
		<path id="XMLID_252_" class="st0" d="M343.2,291.7l-0.3-0.2l-0.6-0.8l-0.2-0.9"/>
		<path id="XMLID_251_" class="st0" d="M343.1,290.3l0.2-0.8"/>
		<path id="XMLID_250_" class="st0" d="M342.4,290.8l1-2.1"/>
		<path id="XMLID_249_" class="st0" d="M386.2,316.4l-41.4-23.9l-1-0.8l-0.5-1l0-1.5l0.2-0.9l-0.1,0.2"/>
		<path id="XMLID_248_" class="st0" d="M342.3,290.6l-0.2-0.2"/>
		<path id="XMLID_247_" class="st0" d="M343.8,287.8l2.7-5.8l0.5-0.7l0.3-0.3"/>
		<path id="XMLID_246_" class="st0" d="M343.7,288.6l0.1,0.3l0.1,0.5l0.6,0.8l0.7,0.5l42.7,24.6"/>
		<path id="XMLID_245_" class="st0" d="M343.9,287.9l2.8-6.1l0.4-0.6l-0.7,0.8"/>
		<path id="XMLID_244_" class="st0" d="M346.9,281.4l-0.6,0.8l-2.8,6"/>
		<path id="XMLID_243_" class="st0" d="M344.2,287.9l2.8-6.1l0.4-0.6"/>
		<path id="XMLID_242_" class="st0" d="M344.7,285.7l0.7-1.5"/>
		<path id="XMLID_241_" class="st0" d="M347.2,281.1l0.5-0.4L347.2,281.1"/>
		<path id="XMLID_240_" class="st0" d="M347.9,280.6l-0.2,0.1l1.4-0.6l1-0.2"/>
		<path id="XMLID_239_" class="st0" d="M417.9,273.8l-3.2-1.8"/>
		<path id="XMLID_238_" class="st0" d="M367.9,336.3l-11.8,16.1l0.7-1l-0.5,0.7"/>
		<path id="XMLID_237_" class="st0" d="M356.8,351.4l6.9-9"/>
		<path id="XMLID_236_" class="st0" d="M356.5,351.1l2.2-2.3"/>
		<path id="XMLID_235_" class="st0" d="M368.4,234.5l0.4,2.5l-0.8,2.5"/>
		<path id="XMLID_234_" class="st0" d="M365.3,352.8l-1.2,0"/>
		<path id="XMLID_233_" class="st0" d="M366,305l20,11.6"/>
		<path id="XMLID_232_" class="st0" d="M365.5,293.4l0.5,0.4l-1.6-1.3l-0.2-0.4l0.3,0.5L365.5,293.4"/>
		<path id="XMLID_231_" class="st0" d="M368.4,285.5l0.7-0.2"/>
		<path id="XMLID_230_" class="st0" d="M364.5,288.1l-0.8,1.5l-0.1,1.4l-0.4-0.8l0.3-2.4"/>
		<path id="XMLID_229_" class="st0" d="M363.6,290.9l-0.1-0.4l0.3,0.7l0.5,0.9"/>
		<path id="XMLID_228_" class="st0" d="M363.6,291l0.1,0.2"/>
		<path id="XMLID_227_" class="st0" d="M363.6,289.6V289"/>
		<path id="XMLID_226_" class="st0" d="M365.6,286.5l0.9-0.7"/>
		<path id="XMLID_225_" class="st0" d="M366,293.8l6.1,4.8l-2.7-2.1"/>
		<path id="XMLID_224_" class="st0" d="M405.8,284l1.4,1.9l0.3,1"/>
		<path id="XMLID_223_" class="st0" d="M368.2,284.9l13.6-3.5"/>
		<path id="XMLID_222_" class="st0" d="M372.1,298.6l1.2,0.9l-0.3-0.1"/>
		<path id="XMLID_221_" class="st0" d="M398.4,431.2l1.4-2l0-2.6l-0.1-0.5l-1.8-3.2"/>
		<path id="XMLID_220_" class="st0" d="M400.1,302.2l-0.4,0.3"/>
		<path id="XMLID_219_" class="st0" d="M375.8,356.7l-0.2-0.2"/>
		<path id="XMLID_218_" class="st0" d="M524.6,382.7L524.6,382.7"/>
		<path id="XMLID_217_" class="st0" d="M379.7,322.5L379.7,322.5"/>
		<path id="XMLID_216_" class="st0" d="M402.6,309.3l-1.8,0.4"/>
		<path id="XMLID_215_" class="st0" d="M379.3,322.3l4.2-3.6"/>
		<path id="XMLID_214_" class="st0" d="M384.4,304.1l0.5,0.2"/>
		<path id="XMLID_213_" class="st0" d="M381.9,281.1l8.3-0.7"/>
		<path id="XMLID_212_" class="st0" d="M385.4,363.8l4.4,1.4"/>
		<path id="XMLID_211_" class="st0" d="M385.2,304.5L385.2,304.5"/>
		<path id="XMLID_210_" class="st0" d="M393.2,212.9l-5.8,0.2l10.2-0.4"/>
		<path id="XMLID_209_" class="st0" d="M390.2,280.5l0.3,0l-1.8,0.1"/>
		<path id="XMLID_208_" class="st0" d="M390.5,280.4l3.4-0.1"/>
		<path id="XMLID_207_" class="st0" d="M395.9,366.6l-2.7-0.3"/>
		<path id="XMLID_206_" class="st0" d="M397.2,304l-0.1,0l0.3-0.1"/>
		<path id="XMLID_205_" class="st0" d="M398.8,280.6l1.6,0.2"/>
		<path id="XMLID_204_" class="st0" d="M414.9,209.2l-1.2,0.7"/>
		<path id="XMLID_203_" class="st0" d="M401.6,367.2h0.7"/>
		<path id="XMLID_202_" class="st0" d="M408.4,308.2l-1.8,0.2l-4,0.9l4.5-0.9"/>
		<path id="XMLID_201_" class="st0" d="M403.3,298.7L403.3,298.7l-3.7,3.8"/>
		<path id="XMLID_200_" class="st0" d="M399.9,302.3l-0.2,0.1"/>
		<path id="XMLID_199_" class="st0" d="M405.8,294.7l-2.4,3.9"/>
		<path id="XMLID_198_" class="st0" d="M423.2,306l-2.3,0.3l4.6-0.7L423.2,306l-16.1,2.4l0.6-0.1"/>
		<path id="XMLID_197_" class="st0" d="M405.8,294.7l1.6-7.9"/>
		<path id="XMLID_196_" class="st0" d="M406,283.7l1.4,1.9"/>
		<path id="XMLID_195_" class="st0" d="M411.6,307.7l12.9-27.8"/>
		<path id="XMLID_194_" class="st0" d="M422.7,277.2l0.2,0.8l-0.1,0.3l-0.1,0.3l-13.6,29.4"/>
		<path id="XMLID_193_" class="st0" d="M423.3,278.9l0.2,0.8l-0.2,0.7l-12.7,27.4"/>
		<path id="XMLID_192_" class="st0" d="M423.3,279.2l0,1l-0.1,0.2l-12.7,27.4"/>
		<path id="XMLID_191_" class="st0" d="M413.5,303.3l0.4-0.8l-2.4,5.2"/>
		<path id="XMLID_190_" class="st0" d="M414.9,362.6l-1.1-1.4l-0.7-2.9"/>
		<path id="XMLID_189_" class="st0" d="M416,364l-1.1-1.4"/>
		<path id="XMLID_188_" class="st0" d="M413.9,302.5l4.2-9.2"/>
		<path id="XMLID_187_" class="st0" d="M414.9,272.1l-0.8-0.5"/>
		<path id="XMLID_186_" class="st0" d="M424.7,202.3l0.4-0.5"/>
		<path id="XMLID_185_" class="st0" d="M414.9,209.2l0.2-0.1"/>
		<path id="XMLID_184_" class="st0" d="M419.3,425L419.3,425"/>
		<path id="XMLID_183_" class="st0" d="M424.4,279.3L424.4,279.3l-0.2,0.7l-1,2.1"/>
		<path id="XMLID_182_" class="st0" d="M424.2,280.3l-0.2-0.4l-0.6-0.5"/>
		<path id="XMLID_181_" class="st0" d="M423.3,279.1l0-0.5l-0.2-1.1l-0.8-1l-1.3-0.9"/>
		<path id="XMLID_180_" class="st0" d="M425.7,305.6l-0.2,0"/>
		<path id="XMLID_179_" class="st0" d="M469.8,307.6l-5.5-2.3"/>
		<path id="XMLID_178_" class="st0" d="M425.2,279.3l0-2.2"/>
		<path id="XMLID_177_" class="st0" d="M424.4,279.3l0.1-0.2L424.4,279.3"/>
		<path id="XMLID_176_" class="st0" d="M424.3,280.1l-0.3,0.5"/>
		<path id="XMLID_175_" class="st0" d="M425,201.8l0.1-0.1"/>
		<path id="XMLID_174_" class="st0" d="M515.3,151.6l-6.6,0.3l-12.5-7.2"/>
		<path id="XMLID_173_" class="st0" d="M492.4,393.9l-1.1-2.6l-2.6-1.2"/>
		<path id="XMLID_172_" class="st0" d="M470.5,308l-0.6-0.4"/>
		<path id="XMLID_171_" class="st0" d="M488.6,340.5l1.7,0.3l0.7-1.9l-0.4-2.5l2.8,13.3"/>
		<path id="XMLID_170_" class="st0" d="M470.5,308l-0.7-0.4l0.1,0"/>
		<path id="XMLID_169_" class="st0" d="M481.2,390.9l3.8-0.8"/>
		<path id="XMLID_168_" class="st0" d="M509.5,319.6l3.3-4.3l0.9-3.8l-0.9-5.9"/>
		<path id="XMLID_167_" class="st0" d="M486.7,318.7l-0.1-0.2l0.3-1.8"/>
		<path id="XMLID_166_" class="st0" d="M506.5,312l1.6,1.3"/>
		<path id="XMLID_165_" class="st0" d="M490.1,165.1l2.6-2.3"/>
		<path id="XMLID_164_" class="st0" d="M494.1,349.5l-1-2.8l-1.9-8.2"/>
		<path id="XMLID_163_" class="st0" d="M493.1,346.8L493.1,346.8"/>
		<path id="XMLID_162_" class="st0" d="M492.6,345.3l0.7,3"/>
		<path id="XMLID_161_" class="st0" d="M491.2,339.1l-0.1-0.6"/>
		<path id="XMLID_160_" class="st0" d="M491.8,161.4l0,0.6l0-0.1l0.1,0.3l0-0.1"/>
		<path id="XMLID_159_" class="st0" d="M492,162.3l0.2,0.2l-0.1-0.1"/>
		<path id="XMLID_158_" class="st0" d="M492.2,162.5l0.3,0.2l-0.1,0"/>
		<path id="XMLID_157_" class="st0" d="M492.2,162.6v-0.5v0.1"/>
		<path id="XMLID_156_" class="st0" d="M493.9,162.8l0.7-0.1l1.5-0.9l-0.9,0.6l-0.9,0.4"/>
		<path id="XMLID_155_" class="st0" d="M494.1,162.8l0.6-0.3"/>
		<path id="XMLID_154_" class="st0" d="M493.2,162.9l-0.5-0.1"/>
		<path id="XMLID_153_" class="st0" d="M493.2,162.9h0.4"/>
		<path id="XMLID_152_" class="st0" d="M493.1,162.9l1-0.1"/>
		<path id="XMLID_151_" class="st0" d="M492.7,162.8l-0.3-0.1"/>
		<path id="XMLID_150_" class="st0" d="M494.1,162.9l0.5-0.3"/>
		<path id="XMLID_149_" class="st0" d="M493.2,162.3l0.3,0"/>
		<path id="XMLID_148_" class="st0" d="M492.2,162.3v-0.1"/>
		<path id="XMLID_147_" class="st0" d="M492.2,161.4v0.7v-0.9v0.1"/>
		<path id="XMLID_146_" class="st0" d="M492.4,161.8L492.4,161.8"/>
		<path id="XMLID_145_" class="st0" d="M491.8,161.5l0,0.2"/>
		<path id="XMLID_144_" class="st0" d="M491.5,160.4l0.5-0.9l0.9-0.6l1-0.4l-2,1l-0.7,1.7L491.5,160.4"/>
		<path id="XMLID_143_" class="st0" d="M496.2,160.4l0,0.4"/>
		<path id="XMLID_142_" class="st0" d="M492.2,161.5L492.2,161.5"/>
		<path id="XMLID_141_" class="st0" d="M492.2,161L492.2,161"/>
		<path id="XMLID_140_" class="st0" d="M494,158.5l1.1,0.1l-0.9,0"/>
		<path id="XMLID_139_" class="st0" d="M494,158.7l1-0.1"/>
		<path id="XMLID_138_" class="st0" d="M494,158.5l2.1,0.3l-1-0.1l0.9,0.3l-0.8-0.3"/>
		<path id="XMLID_137_" class="st0" d="M495.4,162.2l0.6-0.4"/>
		<path id="XMLID_136_" class="st0" d="M495.8,161.4l0.1-0.1"/>
		<path id="XMLID_135_" class="st0" d="M496.6,160.6l-0.1,0.5l0.2-0.4l-0.5,1l0.5-0.7l0.2-0.8l-0.1-0.9l0.1,0.9l-0.3,0.5l0-0.4
			L496.6,160.6l0-0.5l0,0.2"/>
		<path id="XMLID_134_" class="st0" d="M496.5,160.5v0.2"/>
		<path id="XMLID_133_" class="st0" d="M496.1,161.8L496.1,161.8"/>
		<path id="XMLID_132_" class="st0" d="M495.7,162l0.6-0.7l-0.1,0.1"/>
		<path id="XMLID_131_" class="st0" d="M496.1,161.5l0-0.9"/>
		<path id="XMLID_130_" class="st0" d="M495.6,159.5l0.2,0.1"/>
		<path id="XMLID_129_" class="st0" d="M496.1,160.8l0-0.3"/>
		<path id="XMLID_128_" class="st0" d="M495.2,158.7l6.2-3.7l0.7-0.3"/>
		<path id="XMLID_127_" class="st0" d="M533.1,187.2l5.2,0.5l3.9,1.8l3.5,3.5"/>
		<path id="XMLID_126_" class="st0" d="M533.9,239.7l-2.6,1.3"/>
		<path id="XMLID_125_" class="st0" d="M524.7,382.7l5.2-5.6l-0.9,1.2L524.7,382.7"/>
		<path id="XMLID_124_" class="st0" d="M538.4,357.2l10.6-16.6l3.3-9.7l1.9-7.7"/>
	</g>
	<g>
		<path id="XMLID_123_" class="st0" d="M646,383.3c-0.2,0-0.2,0-0.4,0c-0.1,0-0.1,0-0.2-0.1c-0.2-0.1-0.2-0.1-0.4-0.2"/>
		<path id="XMLID_122_" class="st0" d="M645.9,383.1c0.4-0.1,0.4-0.1,0.7-0.3c0.4-0.2,0.3-0.3,0.7-0.5c0.2-0.2,0.2-0.2,0.4-0.4"/>
		<path id="XMLID_121_" class="st0" d="M648.6,379.8c-0.2,0.2-0.2,0.2-0.4,0.4c-0.3,0.3-0.3,0.3-0.6,0.5c-0.3,0.1-0.3,0.1-0.6,0.3
			c-0.1,0-0.1,0-0.1,0c-0.2,0-0.2,0-0.4,0"/>
		<path id="XMLID_120_" class="st0" d="M647.3,378.9c0.2,0,0.2,0,0.4-0.1c0.3-0.1,0.3-0.1,0.5-0.3c0.3-0.3,0.3-0.3,0.5-0.5
			c0.2-0.2,0.2-0.2,0.3-0.5"/>
		<path id="XMLID_119_" class="st0" d="M647.7,376.5c0.2-0.1,0.2-0.1,0.4-0.1c0.2-0.1,0.2-0.1,0.4-0.3c0.3-0.3,0.3-0.3,0.5-0.6
			c0.1-0.2,0.1-0.2,0.3-0.5"/>
		<path id="XMLID_118_" class="st0" d="M647.2,373.9c0.1,0,0.1,0,0.1,0.1c0.1,0,0.1,0,0.2,0c0.1,0,0.1,0,0.2,0c0.1,0,0.1,0,0.2-0.1"
			/>
		<path id="XMLID_117_" class="st0" d="M647.9,373.9c0.2-0.1,0.2-0.1,0.4-0.2c0.2-0.2,0.2-0.2,0.4-0.3c0.2-0.2,0.1-0.2,0.3-0.4
			c0.1-0.2,0.1-0.2,0.3-0.5"/>
		<path id="XMLID_116_" class="st0" d="M649.2,369.8c-0.1,0.2-0.1,0.2-0.3,0.5c-0.2,0.2-0.1,0.2-0.3,0.4c-0.2,0.2-0.2,0.2-0.4,0.3
			c-0.2,0.1-0.2,0.1-0.4,0.2c-0.1,0-0.1,0-0.2,0c-0.1,0-0.1,0-0.2,0c-0.1,0-0.1,0-0.2,0c-0.1,0-0.1,0-0.1-0.1
			c-0.3-0.1-0.3-0.1-0.5-0.3"/>
		<path id="XMLID_115_" class="st0" d="M651.5,358.1c0,2,0,3.3,0,6.7c0,4.5,0,4.5,0,9c-0.3,2.5-0.3,2.5-0.7,4.9
			c-0.5,1.4-0.6,1.4-1.2,2.7"/>
		<path id="XMLID_114_" class="st0" d="M647.2,368.7c0.1,0,0.1,0,0.1,0.1c0.1,0,0.1,0,0.2,0c0.1,0,0.1,0,0.2,0c0.1,0,0.1,0,0.2-0.1"
			/>
		<path id="XMLID_113_" class="st0" d="M647.9,368.7c0.2-0.1,0.2-0.1,0.4-0.2c0.2-0.2,0.2-0.2,0.4-0.3c0.2-0.2,0.1-0.2,0.3-0.4
			c0.1-0.3,0.1-0.3,0.3-0.5"/>
		<path id="XMLID_112_" class="st0" d="M646.7,383l-0.2,0.1l-0.5,0.2"/>
		<path id="XMLID_111_" class="st0" d="M645,383.1l-3.2-1.8"/>
		<path id="XMLID_110_" class="st0" d="M641.8,381.1l3.3,1.9l0.3,0.1h0.5"/>
		<path id="XMLID_109_" class="st0" d="M647.8,381.9L647.8,381.9L647.8,381.9"/>
		<path id="XMLID_108_" class="st0" d="M648.2,379.6l0.4,0.2"/>
		<path id="XMLID_107_" class="st0" d="M646.5,381.1l-0.3-0.1l0,0L646.5,381.1l-4.7-2.6"/>
		<path id="XMLID_106_" class="st0" d="M644.7,380.1l-1-0.6l3,1.7"/>
		<path id="XMLID_105_" class="st0" d="M646.6,381.3l-3-1.8L646.6,381.3l-0.2-0.1"/>
		<path id="XMLID_104_" class="st0" d="M644.3,379.9l-0.7-0.4l3,1.7"/>
		<path id="XMLID_103_" class="st0" d="M643.6,379.5l2.6,1.5L643.6,379.5"/>
		<path id="XMLID_102_" class="st0" d="M646.7,378.7l-4.9-2.8"/>
		<path id="XMLID_101_" class="st0" d="M643.6,377l3.3,1.9l0.1,0.1l0.3,0"/>
		<path id="XMLID_100_" class="st0" d="M649.1,377.5l-1.8-1l0.2,0.1h0.3"/>
		<path id="XMLID_99_" class="st0" d="M649.2,375l-2-1.1"/>
		<path id="XMLID_98_" class="st0" d="M649.2,372.4l-7.4-4.3"/>
		<path id="XMLID_97_" class="st0" d="M647.4,376.5l-5.6-3.2"/>
		<path id="XMLID_96_" class="st0" d="M641.8,370.7l4.3,2.5"/>
		<path id="XMLID_95_" class="st0" d="M648.7,366.8l-6.9-4"/>
		<path id="XMLID_94_" class="st0" d="M641.8,365.6l7.4,4.3"/>
		<path id="XMLID_93_" class="st0" d="M641.8,363l1.8,1l-0.7-0.4"/>
		<path id="XMLID_92_" class="st0" d="M643.6,364l3.1,1.8L643.6,364"/>
		<path id="XMLID_91_" class="st0" d="M641.8,352.5l9.7,5.6"/>
		<path id="XMLID_90_" class="st0" d="M649.6,381.3l-0.1,0.1l-2.8,1.6"/>
		<path id="XMLID_89_" class="st0" d="M646.5,383.1l2.9-1.7"/>
		<path id="XMLID_88_" class="st0" d="M646.4,381.1l-0.2-0.1"/>
		<path id="XMLID_87_" class="st0" d="M646.6,381.3l0.5,0.3l-0.3-0.2"/>
		<path id="XMLID_86_" class="st0" d="M646.7,376.2l0.6,0.4"/>
		<path id="XMLID_85_" class="st0" d="M645.3,372.7l2,1.1"/>
		<path id="XMLID_84_" class="st0" d="M645.4,365l2.2,1.3l-0.3-0.2l0.2,0.1"/>
		<path id="XMLID_83_" class="st0" d="M647,378.9l-0.1-0.1l0.6,0.4l0,0"/>
		<path id="XMLID_82_" class="st0" d="M646.9,378.9L646.9,378.9l0.1,0.1"/>
		<path id="XMLID_81_" class="st0" d="M647.1,379l-0.2-0.1v0"/>
		<path id="XMLID_80_" class="st0" d="M647,378.9L647,378.9L647,378.9"/>
		<path id="XMLID_79_" class="st0" d="M646.7,378.7l0.3,0.2"/>
		<path id="XMLID_78_" class="st0" d="M647.5,379.2l0.3,0.2L647.5,379.2"/>
		<path id="XMLID_77_" class="st0" d="M647.8,379.4l0.5,0.3"/>
		<path id="XMLID_76_" class="st0" d="M647.1,381.6L647.1,381.6l-0.3-0.2"/>
		<path id="XMLID_75_" class="st0" d="M647.1,381.6l0.6,0.3l-0.2-0.1"/>
		<path id="XMLID_74_" class="st0" d="M647,381.5l-0.2-0.1"/>
		<path id="XMLID_73_" class="st0" d="M648,379.5l-0.8-0.5"/>
		<path id="XMLID_72_" class="st0" d="M647.6,379.3l-0.1-0.1"/>
		<path id="XMLID_71_" class="st0" d="M647.8,379.3l-0.3-0.2"/>
		<path id="XMLID_70_" class="st0" d="M647.2,379L647.2,379"/>
		<path id="XMLID_69_" class="st0" d="M648.2,379.6L648.2,379.6"/>
		<path id="XMLID_68_" class="st0" d="M647.9,379.4l-0.5-0.3"/>
		<path id="XMLID_67_" class="st0" d="M647.4,381.7l-0.3-0.1"/>
		<path id="XMLID_66_" class="st0" d="M647,381.5l-0.2-0.1"/>
		<path id="XMLID_65_" class="st0" d="M647.4,381.7L647.4,381.7"/>
		<path id="XMLID_64_" class="st0" d="M648.7,377.3l-0.5-0.3"/>
		<path id="XMLID_63_" class="st0" d="M648.6,377.2l-0.1-0.1L648.6,377.2"/>
		<path id="XMLID_62_" class="st0" d="M648.6,377.2L648.6,377.2"/>
		<path id="XMLID_61_" class="st0" d="M647.4,376.6l0.1,0.1"/>
		<path id="XMLID_60_" class="st0" d="M648.4,377.2l-0.3-0.2"/>
		<path id="XMLID_59_" class="st0" d="M648.7,377.3l-0.2-0.1"/>
		<path id="XMLID_58_" class="st0" d="M647.8,376.8l0.9,0.5"/>
		<path id="XMLID_57_" class="st0" d="M648.4,377.1l-0.2-0.1"/>
		<path id="XMLID_56_" class="st0" d="M648.7,377.3l-0.3-0.1"/>
		<path id="XMLID_55_" class="st0" d="M648.2,377L648.2,377"/>
		<path id="XMLID_54_" class="st0" d="M648.6,377.3l-0.1-0.1"/>
		<path id="XMLID_53_" class="st0" d="M648.1,374.4v-0.6"/>
		<path id="XMLID_52_" class="st0" d="M647.4,374l1.2,0.7"/>
		<path id="XMLID_51_" class="st0" d="M647.9,374.2l-0.4-0.3"/>
		<path id="XMLID_50_" class="st0" d="M646.7,373.6l0.3,0.2"/>
		<path id="XMLID_49_" class="st0" d="M648.9,374.8L648.9,374.8L648.9,374.8"/>
		<path id="XMLID_48_" class="st0" d="M648.9,374.9L648.9,374.9"/>
		<path id="XMLID_47_" class="st0" d="M647.9,374.2l-0.4-0.3"/>
		<path id="XMLID_46_" class="st0" d="M647.9,374.2l0.7,0.4"/>
		<path id="XMLID_45_" class="st0" d="M648.1,371.8v-0.6"/>
		<path id="XMLID_44_" class="st0" d="M648.5,372l-0.6-0.4l1.3,0.8l-1.6-0.9"/>
		<path id="XMLID_43_" class="st0" d="M647.6,368.9l1.3,0.7L647.6,368.9l1.3,0.7"/>
		<path id="XMLID_42_" class="st0" d="M647.3,371.3l0.6,0.4"/>
		<path id="XMLID_41_" class="st0" d="M648.9,372.3L648.9,372.3l-1.3-0.8"/>
		<path id="XMLID_40_" class="st0" d="M648.9,372.3L648.9,372.3"/>
		<path id="XMLID_39_" class="st0" d="M647.6,371.5l0.3,0.2"/>
		<path id="XMLID_38_" class="st0" d="M648.1,369.2v-0.6"/>
		<path id="XMLID_37_" class="st0" d="M647.6,368.9l-0.9-0.5l0.4,0.2"/>
		<path id="XMLID_30_" class="st0" d="M649.2,367.3l-0.7-0.4"/>
		<path id="XMLID_29_" class="st0" d="M649.2,367.3l-1.7-1"/>
		<path id="XMLID_28_" class="st0" d="M647.6,368.9l0.3,0.2"/>
		<path id="XMLID_27_" class="st0" d="M647.9,369.1l0.5,0.3"/>
		<path id="XMLID_26_" class="st0" d="M648.1,366.6v-0.2l3.4-1.9"/>
		<path id="XMLID_22_" class="st0" d="M648.1,366.6l-1.4-0.8L648.1,366.6"/>
		<path id="XMLID_21_" class="st0" d="M648,366.6l-1.3-0.8l0.9,0.5"/>
		<path id="XMLID_20_" class="st0" d="M647.2,366.1L647.2,366.1"/>
		<path id="XMLID_18_" class="st0" d="M646.7,365.8l0.8,0.5"/>
		<path id="XMLID_17_" class="st0" d="M651.5,373.7v-6.5v-9.2"/>
		<path id="XMLID_16_" class="st0" d="M651.5,365v-1.1"/>
		<path id="XMLID_15_" class="st0" d="M651.5,364.2v0.5"/>
		<path id="XMLID_14_" class="st0" d="M651.5,364.9v0.5v1.8"/>
		<path id="XMLID_13_" class="st0" d="M651.5,363.9L651.5,363.9"/>
		<path id="XMLID_12_" class="st0" d="M651.5,363.9v-3.4"/>
	</g>
	<g>
		<path id="XMLID_11_" class="st0" d="M613.4,393l-1.4,0.8l-2.4,1.2l-0.2,0.1h-0.2l-2.9-0.2l-3.2-1.5l-0.1-0.1l-3.1-2.6l-0.1-0.2"/>
		<path id="XMLID_4_" class="st0" d="M613.5,387.6l0.1,0.5l0,0.6l-0.5,2.7l-0.2,0.4l-1.3,1.9l-0.4,0.2l-2,0.9h-0.5l-2.4-0.2
			l-0.5-0.3l-2.6-1.3h0"/>
		<path id="XMLID_2_" class="st0" d="M604.1,388.4l3.9-0.3v-1.4"/>
	</g>
</g>
<g id="XMLID_10_">
	<g id="XMLID_5_">
		<path id="XMLID_23_" d="M813.4,3c14,0,25.5,11.4,25.5,25.5v538.3c0,14-11.4,25.5-25.5,25.5H28.5c-14,0-25.5-11.4-25.5-25.5V28.5
			C3,14.4,14.4,3,28.5,3H813.4 M813.4,0H28.5C12.8,0,0,12.8,0,28.5v538.3c0,15.7,12.8,28.5,28.5,28.5h784.9
			c15.7,0,28.5-12.8,28.5-28.5V28.5C841.9,12.8,829.1,0,813.4,0L813.4,0z"/>
	</g>
	<g id="XMLID_3_">
		<path id="XMLID_36_" d="M1.5,83.5V28.5c0-14.9,12.1-27,27-27h55.1v55.1c0,14.9-12.1,27-27,27H1.5z"/>
		<g id="XMLID_32_">
			<path id="XMLID_33_" d="M82,3v53.6C82,70.6,70.6,82,56.6,82H3V28.5C3,14.4,14.4,3,28.5,3H82 M85,0H28.5C12.8,0,0,12.8,0,28.5V85
				h56.6C72.2,85,85,72.2,85,56.6V0L85,0z"/>
		</g>
	</g>
	<g id="XMLID_6_">
		<path id="XMLID_7_" class="st1" d="M54.3,50.1h-3.8v7.3h-6.5v-7.3H30.4v-5.8l12.5-20.6h7.5v21.2h3.8V50.1z M43.9,44.9V30.2
			l-8.5,14.6H43.9z"/>
	</g>
</g>
</svg>
