<?xml version="1.0" encoding="utf-8"?>
<!-- Generator: Adobe Illustrator 19.0.0, SVG Export Plug-In . SVG Version: 6.00 Build 0)  -->
<svg version="1.1" id="Layer_1" xmlns="http://www.w3.org/2000/svg" xmlns:xlink="http://www.w3.org/1999/xlink" x="0px" y="0px"
	 width="841.9px" height="595.3px" viewBox="0 0 841.9 595.3" style="enable-background:new 0 0 841.9 595.3;" xml:space="preserve"
	>
<style type="text/css">
	.st0{fill:none;stroke:#0B0620;stroke-width:0.5;stroke-linecap:round;stroke-linejoin:round;}
	.st1{fill:none;stroke:#000000;stroke-linecap:round;stroke-linejoin:round;stroke-dasharray:4.7,3.1,1.6,3.1;}
	.st2{stroke:#000000;stroke-width:8.800000e-02;stroke-linecap:round;stroke-linejoin:round;}
	.st3{fill:#FFFFFF;stroke:#000000;stroke-linecap:round;stroke-linejoin:round;stroke-opacity:0.98;}
	.st4{fill:#FFFFFF;}
	.st5{fill:none;stroke:#000000;stroke-width:0.5;stroke-linecap:round;stroke-linejoin:round;}
	.st6{fill:none;stroke:#000000;stroke-width:0.25;stroke-linecap:round;stroke-linejoin:round;}
</style>
<g id="XMLID_1_">
	<g>
		<path id="XMLID_539_" class="st0" d="M334.5,287.1c8.7-5,8.7-5,17.3-10c0.9-0.7,0.9-0.7,1.7-1.5c0.7-1,0.7-1,1.3-2.2
			c0.4-1.3,0.4-1.3,0.8-2.6c0.1-1.4,0.1-1.4,0.2-2.8c-0.2-1.4-0.2-1.4-0.5-2.7c-6.2-21.3-6.2-21.3-12.6-42.5
			c-2.2-5.7-2.3-5.7-4.7-11.3c-1.2-1.9-1.3-1.9-2.7-3.7c-0.6-0.6-0.6-0.6-1.3-1.2c-0.6-0.4-0.6-0.4-1.2-0.7"/>
		<path id="XMLID_538_" class="st0" d="M429.1,150.2c0.6,0.3,0.6,0.4,1.2,0.7c0.7,0.6,0.7,0.6,1.3,1.2c1.4,1.8,1.4,1.8,2.7,3.7
			c2.4,5.6,2.4,5.6,4.7,11.3c0.4,1.3,0.4,1.4,0.8,2.7c0.3,1.4,0.3,1.4,0.5,2.7c-0.1,1.4-0.1,1.4-0.2,2.8c-0.3,1.3-0.3,1.3-0.8,2.6
			c-0.7,1.1-0.7,1.1-1.3,2.2c-0.9,0.8-0.9,0.8-1.7,1.5c-1.5,0.9-1.6,0.9-3.1,1.8"/>
		<path id="XMLID_537_" class="st0" d="M353.7,225.4c-0.8-0.9-0.8-0.9-1.5-1.8c-0.6-1.2-0.5-1.2-1-2.4c-0.4-1.3-0.4-1.3-0.8-2.7
			c-1.2-6.3-1.3-6.3-2.4-12.6c-0.1-2.6,0-2.6,0-5.2c0.1-0.9,0.1-0.9,0.3-1.7c0-0.2,0-0.2,0.1-0.5c0.3-0.9,0.3-0.9,0.5-1.7
			c0.3-0.7,0.3-0.7,0.7-1.3"/>
		<path id="XMLID_536_" class="st0" d="M439.3,192.2c-38.4,22.1-38.4,22.1-76.7,44.3c-0.9,0.7-0.9,0.7-1.7,1.5c-0.7,1-0.7,1-1.3,2.2
			c-0.4,1.3-0.4,1.3-0.8,2.6c-0.1,1.4-0.1,1.4-0.2,2.8c0.2,1.4,0.2,1.4,0.5,2.7c1.8,6.3,1.8,6.3,3.7,12.6c0.5,1.2,0.5,1.2,1,2.4
			c0.7,0.9,0.7,0.9,1.6,1.8"/>
		<path id="XMLID_535_" class="st0" d="M448.1,221.5c0.2-0.1,0.2-0.1,0.4-0.2c0.7-0.6,0.7-0.6,1.3-1.2c0.7-1,0.7-1,1.3-2.2
			c0.4-1.3,0.4-1.3,0.8-2.6c0.1-1.4,0.1-1.4,0.2-2.8c-0.2-1.4-0.2-1.4-0.5-2.7c-1.8-6.3-1.8-6.3-3.7-12.6c-0.5-1.2-0.5-1.2-1-2.4
			c-0.7-0.9-0.7-0.9-1.5-1.8"/>
		<path id="XMLID_534_" class="st0" d="M445.6,139.8c-0.4,0.6-0.4,0.6-0.7,1.3c-0.3,0.9-0.3,0.9-0.5,1.7c-0.2,1-0.2,1-0.3,2.1
			c0,2.6-0.1,2.6,0,5.3c1.1,6.3,1.1,6.3,2.4,12.6"/>
		<path id="XMLID_533_" class="st0" d="M446.5,162.8c6.2,21.2,6.2,21.3,12.6,42.5c0.5,1.2,0.5,1.2,1,2.4c0.7,0.9,0.8,0.9,1.6,1.8"/>
		<path id="XMLID_532_" class="st0" d="M289.4,236.7v52.1l15,8.7"/>
		<path id="XMLID_531_" class="st0" d="M293.8,221.9l9,5.2"/>
		<path id="XMLID_530_" class="st0" d="M298.4,241.9v34.7"/>
		<path id="XMLID_529_" class="st0" d="M300.1,282.6l14.3-8.2"/>
		<path id="XMLID_528_" class="st0" d="M304.4,210.7l150.4-86.8"/>
		<path id="XMLID_527_" class="st0" d="M313.4,215.9l150.4-86.8"/>
		<path id="XMLID_526_" class="st0" d="M319.4,301.1v-10.4"/>
		<path id="XMLID_525_" class="st0" d="M331.1,264.7l1.4-0.8"/>
		<path id="XMLID_524_" class="st0" d="M332.9,205.8l-1.1-0.2"/>
		<path id="XMLID_523_" class="st0" d="M334.5,297.5l36.1-20.9"/>
		<path id="XMLID_522_" class="st0" d="M340.9,263.9l14.3,8.2"/>
		<path id="XMLID_521_" class="st0" d="M428,150l1.1,0.2"/>
		<path id="XMLID_520_" class="st0" d="M433.2,183.5L359.6,226l-2,0.7l-2-0.2l-1.9-1.1"/>
		<path id="XMLID_519_" class="st0" d="M350.8,220.3l78-45"/>
		<path id="XMLID_518_" class="st0" d="M360.3,247.8l-1.1,0.7"/>
		<path id="XMLID_517_" class="st0" d="M444.1,192.2l-0.8-0.5l-2-0.2l-2,0.7"/>
		<path id="XMLID_516_" class="st0" d="M365.4,265.2l1.9,1.1l2,0.2l1.6-0.5l0.3-0.2"/>
		<path id="XMLID_515_" class="st0" d="M370.6,255.8l-6-3.5"/>
		<path id="XMLID_514_" class="st0" d="M374.2,268.5v-3.1v7.2V268.5v2.9"/>
		<path id="XMLID_513_" class="st0" d="M374.2,265.3V261"/>
		<path id="XMLID_512_" class="st0" d="M374.2,262.2v-2.3"/>
		<path id="XMLID_511_" class="st0" d="M430.7,231.5l-21.1-12.2v-10"/>
		<path id="XMLID_510_" class="st0" d="M418.7,204.1v3.1"/>
		<path id="XMLID_509_" class="st0" d="M420.4,213.1l8.3-4.8"/>
		<path id="XMLID_508_" class="st0" d="M424.7,217.6l6,3.5"/>
		<path id="XMLID_507_" class="st0" d="M433,201v-5.2"/>
		<path id="XMLID_506_" class="st0" d="M437.2,208.3l14.3,8.2"/>
		<path id="XMLID_505_" class="st0" d="M437.2,175.3l2.6,1.4"/>
		<path id="XMLID_504_" class="st0" d="M439.7,233.7v-10.4"/>
		<path id="XMLID_503_" class="st0" d="M445.2,192.8l-1-0.5"/>
		<path id="XMLID_502_" class="st0" d="M461.7,209.6l1.9,1.1l2,0.2l2-0.7l17.3-10"/>
		<path id="XMLID_501_" class="st0" d="M448.8,231.5l36.1-20.8"/>
		<path id="XMLID_500_" class="st0" d="M465.4,122.8l9,5.2"/>
		<path id="XMLID_499_" class="st0" d="M466.4,186.6l14.2-8.2"/>
		<path id="XMLID_498_" class="st0" d="M478.8,172.5v-34.7"/>
		<path id="XMLID_497_" class="st0" d="M490.8,203.9v-10.4v0.1"/>
		<path id="XMLID_496_" class="st0" d="M455.8,194.1c4.2-3.5,12.5-4.4,18.6-2c6.1,2.4,7.7,7.2,3.5,10.8c-4.2,3.5-12.5,4.4-18.6,2
			c-0.1,0-0.2-0.1-0.3-0.1"/>
		<path id="XMLID_495_" class="st0" d="M446.8,164c0.4-6.3,5-13.4,10.2-15.9c5.2-2.5,9.1,0.5,8.6,6.8c-0.4,6.3-5,13.4-10.2,15.9
			c-2.7,1.3-5.1,1.1-6.7-0.4"/>
		<path id="XMLID_494_" class="st0" d="M484.9,182.9c8.3,4.8,8.3,12.6,0,17.4c0,0,0,0,0,0"/>
		<path id="XMLID_493_" class="st0" d="M289.4,236.7c0-9.6,6.7-21.2,15-26c0,0,0,0,0,0"/>
		<path id="XMLID_492_" class="st0" d="M490.8,203.9c-0.7,2.6-2.8,4.9-6,6.8"/>
		<path id="XMLID_491_" class="st0" d="M448.8,231.5c-5,2.9-13.1,2.9-18,0"/>
		<path id="XMLID_490_" class="st0" d="M484.9,182.9c-3.3-1.9-6-6.6-6-10.4"/>
		<path id="XMLID_489_" class="st0" d="M317,229.9c-0.2,3-2.2,6.4-4.7,8.1"/>
		<path id="XMLID_488_" class="st0" d="M334.5,287.1c-8.3,4.8-21.8,4.8-30.1,0"/>
		<path id="XMLID_487_" class="st0" d="M463.8,129.1c8.3-4.8,15-0.9,15,8.7c0,0,0,0,0,0"/>
		<path id="XMLID_486_" class="st0" d="M326.8,283.9c2.7-1.3,6.7-1.3,9.4,0"/>
		<path id="XMLID_485_" class="st0" d="M374.1,272.6c-0.4,1.5-1.7,3-3.6,4.1"/>
		<path id="XMLID_484_" class="st0" d="M304.4,287.1c-3.3-1.9-6-6.6-6-10.4"/>
		<path id="XMLID_483_" class="st0" d="M298.4,241.9c0-9.6,6.7-21.2,15-26c0,0,0,0,0,0"/>
		<path id="XMLID_482_" class="st0" d="M334.5,297.5c-8.3,4.8-21.8,4.8-30.1,0"/>
		<path id="XMLID_481_" class="st0" d="M424.7,217.6c-3.3-1.9-6-6.6-6-10.4"/>
		<path id="XMLID_480_" class="st0" d="M448,221.5c-5.1,2.5-12.6,2.3-17.3-0.4"/>
		<path id="XMLID_479_" class="st0" d="M452.4,151.8c-0.2,3-2.2,6.5-4.7,8.1"/>
		<path id="XMLID_478_" class="st0" d="M370.6,255.8c4.7,2.7,5,7.1,0.7,10"/>
		<path id="XMLID_477_" class="st0" d="M454.8,123.8c4-2.3,7.8-2.7,10.6-1.1"/>
		<path id="XMLID_476_" class="st0" d="M364.6,252.3c-2.7-1.6-5.1-5.1-5.8-8.5"/>
		<path id="XMLID_475_" class="st0" d="M459.7,204.2c-0.7-2.3,2-4.4,5.9-4.8c3.9-0.4,7.7,1.1,8.3,3.4c0.2,0.8,0.1,1.6-0.5,2.4"/>
		<path id="XMLID_474_" class="st0" d="M453.8,150.3c2.6-0.3,3.9,2.3,2.9,5.9c-1,3.6-4,6.9-6.6,7.2c-1.6,0.2-2.8-0.7-3.2-2.5"/>
		<path id="XMLID_473_" class="st0" d="M331.7,268.9c7.4,0.1,13.3,3.6,13.2,7.8s-6.2,7.7-13.6,7.6c-2.3,0-4.5-0.4-6.4-1"/>
		<path id="XMLID_472_" class="st0" d="M318.4,228.5c2.6-0.3,3.9,2.3,2.9,6c-1,3.6-4,6.8-6.6,7.2c-1.3,0.2-2.4-0.4-2.9-1.7"/>
		<path id="XMLID_471_" class="st0" d="M324.9,283.4c-1.6-2.1,0-4.6,3.7-5.5c3.6-0.9,7.9,0,9.5,2.1c0.8,1.1,0.8,2.3,0,3.4"/>
		
			<ellipse id="XMLID_470_" transform="matrix(0.866 0.5 -0.5 0.866 161.7735 -128.6398)" class="st0" cx="320.9" cy="237.6" rx="7.7" ry="13.4"/>
		<path id="XMLID_469_" class="st0" d="M462.1,205.7c2.7-1.3,6.7-1.3,9.4,0"/>
	</g>
	<g>
		<path id="XMLID_468_" class="st0" d="M203.2,426.8v-19.1"/>
		<path id="XMLID_467_" class="st0" d="M213.2,440.7l69.2,39.9"/>
		<path id="XMLID_466_" class="st0" d="M213.2,421.6l96.2,55.6v52.1"/>
		<path id="XMLID_465_" class="st0" d="M411.7,279.2L213.2,393.8"/>
		<path id="XMLID_464_" class="st0" d="M285.4,515.3v-29.5"/>
		<path id="XMLID_463_" class="st0" d="M288.8,525.6l24,13.9l-0.1-0.1"/>
		<path id="XMLID_462_" class="st0" d="M309.4,477.2L556,334.8v37"/>
		<path id="XMLID_461_" class="st0" d="M327.5,539.7L538,418.1"/>
		<path id="XMLID_460_" class="st0" d="M459.8,279.2l96.2,55.6"/>
		<path id="XMLID_459_" class="st0" d="M288.8,525.6l-2.6-4.3l-0.9-6"/>
		<path id="XMLID_458_" class="st0" d="M213.2,421.6c-13.3-7.7-13.3-20.1,0-27.8c0,0,0,0,0,0"/>
		<ellipse id="XMLID_457_" class="st0" cx="348.5" cy="357.4" rx="14.4" ry="8.3"/>
		<path id="XMLID_456_" class="st0" d="M411.7,279.2c13.3-7.7,34.8-7.7,48.1,0c0,0,0,0,0,0"/>
		<path id="XMLID_455_" class="st0" d="M327.5,539.7c-10,5.7-18,1.1-18-10.4"/>
		<path id="XMLID_454_" class="st0" d="M213.2,440.7c-6.4-3.7-10-8.7-10-13.9"/>
		<ellipse id="XMLID_453_" class="st0" cx="466.3" cy="347.2" rx="5.3" ry="3.1"/>
		<path id="XMLID_452_" class="st0" d="M282.4,480.6c1.7,1,3,3.3,3,5.2c0,0,0,0,0,0"/>
		<path id="XMLID_451_" class="st0" d="M549.8,406.3c-3.3,5.1-7.4,9.3-11.8,11.8"/>
		<ellipse id="XMLID_450_" class="st0" cx="330.9" cy="425.3" rx="5.3" ry="3.1"/>
		<ellipse id="XMLID_449_" class="st0" cx="350.9" cy="436.9" rx="5.3" ry="3.1"/>
		<ellipse id="XMLID_448_" class="st0" cx="486.3" cy="358.7" rx="5.3" ry="3.1"/>
		<path id="XMLID_447_" class="st0" d="M320.8,507.6c0.6-4.6,4-9.5,7.7-11c1.4-0.6,2.7-0.5,3.7,0"/>
		<path id="XMLID_446_" class="st0" d="M531.3,386c0.6-4.6,4-9.5,7.7-11c1.4-0.6,2.7-0.5,3.7,0"/>
	</g>
	<g>
		<path id="XMLID_445_" class="st0" d="M530,404.5c0.1,0.3,0.1,0.3,0.2,0.5c0.2,0.2,0.2,0.2,0.3,0.4c0.2,0.2,0.2,0.2,0.4,0.4"/>
		<path id="XMLID_444_" class="st0" d="M533.8,408c-0.7-1.4-0.7-1.4-1.3-2.9c-0.4-2.6-0.4-2.6-0.7-5.3c0-4.4,0-4.4,0-8.8
			c0-0.1,0-0.1,0-0.2c0-0.1,0-0.1,0.1-0.1c0.1-0.1,0.1-0.1,0.1-0.2c0.1-0.1,0.1-0.1,0.1-0.1c0.2-0.1,0.2-0.1,0.4-0.2
			c0.3-0.1,0.3-0.1,0.5-0.1c0.3,0,0.3,0,0.6-0.1"/>
		<path id="XMLID_443_" class="st0" d="M529.1,401.4c0.1,0.5,0.1,0.5,0.2,0.9c0.1,0.3,0.1,0.3,0.3,0.6c0.1,0.1,0.1,0.1,0.2,0.3
			c0.2,0.2,0.2,0.2,0.4,0.5"/>
		<path id="XMLID_442_" class="st0" d="M528.8,396c0,0.5,0,0.4,0,0.9c0.1,0.3,0.1,0.3,0.1,0.5c0.1,0.3,0.1,0.3,0.3,0.5
			c0.1,0.3,0.1,0.3,0.3,0.5"/>
		<path id="XMLID_441_" class="st0" d="M529.6,401.1c-0.2-0.3-0.2-0.3-0.3-0.5c-0.2-0.3-0.2-0.3-0.3-0.7c-0.1-0.3-0.1-0.3-0.1-0.5
			c0-0.3,0-0.3,0-0.6"/>
		<path id="XMLID_440_" class="st0" d="M529.4,395.6c-0.1-0.3-0.1-0.3-0.3-0.5c-0.1-0.3-0.1-0.3-0.3-0.5c-0.1-0.3-0.1-0.3-0.1-0.5
			c0-0.4,0-0.4,0-0.9"/>
		<path id="XMLID_439_" class="st0" d="M529.4,392.9c-0.1-0.3-0.1-0.3-0.3-0.5c-0.1-0.3-0.1-0.3-0.3-0.5c-0.1-0.3-0.1-0.3-0.1-0.5
			c0-0.4,0-0.4,0-0.9"/>
		<path id="XMLID_438_" class="st0" d="M528.8,388.1c0-0.2,0,0.2,0,0.5c0.1,0.3,0.1,0.3,0.1,0.5c0.1,0.3,0.1,0.3,0.3,0.5
			c0.1,0.3,0.1,0.3,0.3,0.5"/>
		<path id="XMLID_437_" class="st0" d="M528.8,388.1c0-0.3,0-0.1,0-0.2c0-0.1,0-0.1,0.1-0.2c0-0.1,0-0.1,0.1-0.2
			c0.1-0.1,0.1-0.1,0.1-0.1c0.1-0.1,0.1-0.1,0.1-0.1"/>
		<path id="XMLID_436_" class="st0" d="M534,408.1c0.1,0.1,0.1,0.1,0.1,0.1c0.1,0,0.1,0,0.2,0.1c0.2,0,0.2,0,0.4,0.1
			c0.2,0,0.2,0,0.4,0"/>
		<path id="XMLID_435_" class="st0" d="M560.6,369.6c-0.2,0-0.2,0-0.5,0c-0.1,0-0.1,0-0.2,0.1c-0.2,0.1-0.2,0.1-0.4,0.2"/>
		<path id="XMLID_434_" class="st0" d="M558.6,388c0.1,0.9,0.1,0.9,0.3,1.7c-0.1,0.5-0.1,0.5-0.1,1c-0.1,0.5-0.1,0.5-0.1,1
			c-0.4,1.1-0.4,1.1-0.8,2.1c-0.6,1-0.6,1-1.2,2c-0.7,0.8-0.7,0.8-1.5,1.6c-0.8,0.6-0.8,0.6-1.6,1.1"/>
		<path id="XMLID_433_" class="st0" d="M566.4,379.8c-0.3-2.6-0.3-2.7-0.7-5.3c-0.6-1.5-0.7-1.5-1.3-2.9c0-0.1,0-0.1-0.1-0.1"/>
		<path id="XMLID_432_" class="st0" d="M533.9,382.1c0-0.2,0-0.2,0.1-0.4c0.1-0.2,0.1-0.2,0.1-0.3c0.1-0.2,0.1-0.2,0.2-0.4
			c0.1-0.1,0.1-0.1,0.2-0.3c0.1-0.1,0.1-0.1,0.3-0.2"/>
		<path id="XMLID_431_" class="st0" d="M531,405.8l-0.2,0.1L531,405.8l-0.1,0.1"/>
		<path id="XMLID_430_" class="st0" d="M530.9,406.3l0.1,0.1h0l0,0"/>
		<path id="XMLID_429_" class="st0" d="M531,406.4l-0.3-0.5h0"/>
		<path id="XMLID_428_" class="st0" d="M530.9,405.9L530.9,405.9L530.9,405.9"/>
		<path id="XMLID_427_" class="st0" d="M530.9,405.9L530.9,405.9"/>
		<path id="XMLID_426_" class="st0" d="M531,406.4l2.9,1.7l-0.1-0.1"/>
		<path id="XMLID_425_" class="st0" d="M533.6,389.9h10.2l18.6-10.7l1.6-7.5l0.1-0.1l-3.3-1.9l0.2,0.1l3.1,1.8h-0.1"/>
		<path id="XMLID_424_" class="st0" d="M531,406.4l2.8,1.6"/>
		<path id="XMLID_423_" class="st0" d="M529.3,401.3L529.3,401.3l-0.2,0.1"/>
		<path id="XMLID_422_" class="st0" d="M530.1,403.6l-0.2,0.1"/>
		<path id="XMLID_421_" class="st0" d="M529.8,403.8L529.8,403.8l0.3-0.2"/>
		<path id="XMLID_420_" class="st0" d="M529.9,403.7L529.9,403.7"/>
		<path id="XMLID_419_" class="st0" d="M529.7,403.8L529.7,403.8L529.7,403.8l0.3,0.7"/>
		<path id="XMLID_418_" class="st0" d="M529.9,403.7l-0.2,0.1"/>
		<path id="XMLID_417_" class="st0" d="M529.7,403.8l0.3-0.2"/>
		<path id="XMLID_416_" class="st0" d="M530.1,403.6l-0.3,0.2"/>
		<path id="XMLID_415_" class="st0" d="M528.8,396L528.8,396"/>
		<path id="XMLID_414_" class="st0" d="M529.4,398.4l-0.3,0.2v0"/>
		<path id="XMLID_413_" class="st0" d="M529.1,398.6l-0.3,0.2l0.1-0.1l-0.1,0.1"/>
		<path id="XMLID_412_" class="st0" d="M529.4,398.4l-0.6,0.4L529.4,398.4"/>
		<path id="XMLID_411_" class="st0" d="M528.8,398.8L528.8,398.8L528.8,398.8"/>
		<path id="XMLID_410_" class="st0" d="M528.8,398.8l0.1-0.1"/>
		<path id="XMLID_409_" class="st0" d="M529.1,398.6L529.1,398.6"/>
		<path id="XMLID_408_" class="st0" d="M529.5,401.2L529.5,401.2L529.5,401.2"/>
		<path id="XMLID_407_" class="st0" d="M529.4,401.2l-0.1,0.1l0.3-0.2l-0.4,0.2"/>
		<path id="XMLID_406_" class="st0" d="M529,398.7L529,398.7"/>
		<path id="XMLID_405_" class="st0" d="M529,398.7l0.5-0.3"/>
		<path id="XMLID_404_" class="st0" d="M529.1,401.5L529.1,401.5"/>
		<path id="XMLID_403_" class="st0" d="M529.2,401.3l0.1-0.1"/>
		<path id="XMLID_402_" class="st0" d="M528.8,396l0.7-0.4"/>
		<path id="XMLID_401_" class="st0" d="M528.8,393.2L528.8,393.2"/>
		<path id="XMLID_400_" class="st0" d="M529,395.9L529,395.9"/>
		<path id="XMLID_399_" class="st0" d="M529,395.9l0.1,0"/>
		<path id="XMLID_398_" class="st0" d="M529,393.1L529,393.1l0.1,0L529,393.1"/>
		<path id="XMLID_397_" class="st0" d="M529,393.1L529,393.1"/>
		<path id="XMLID_396_" class="st0" d="M528.8,393.2l0.7-0.4"/>
		<path id="XMLID_395_" class="st0" d="M528.8,390.5l0.4-0.2"/>
		<path id="XMLID_394_" class="st0" d="M528.8,388.3v-0.2l3.6,2.1"/>
		<path id="XMLID_393_" class="st0" d="M528.8,390.4l0.3-0.1L528.8,390.4"/>
		<path id="XMLID_392_" class="st0" d="M528.9,388.9l-0.1-0.5v-0.3"/>
		<path id="XMLID_391_" class="st0" d="M529.4,390.1l-0.6,0.4"/>
		<path id="XMLID_390_" class="st0" d="M528.9,390.4l-0.1,0.1"/>
		<path id="XMLID_389_" class="st0" d="M529.1,387.3l7.8-4.5"/>
		<path id="XMLID_388_" class="st0" d="M528.8,387.9v0.6"/>
		<path id="XMLID_387_" class="st0" d="M535.1,408.4l12.7-0.9l18.6-10.7v0"/>
		<path id="XMLID_386_" class="st0" d="M533.9,384.5v-2.4"/>
		<path id="XMLID_385_" class="st0" d="M534.2,381.2l2.7,1.6"/>
		<path id="XMLID_384_" class="st0" d="M534.8,380.5l7.2-4.2"/>
		<path id="XMLID_383_" class="st0" d="M543.9,399.8v-9.9"/>
		<path id="XMLID_382_" class="st0" d="M560.9,369.6l-0.3-0.1"/>
		<path id="XMLID_381_" class="st0" d="M559.5,369.8l-14.8,8.6"/>
		<path id="XMLID_380_" class="st0" d="M554.2,386.8l1-0.5l1.5-0.1l1.2,0.6l0.8,1.2"/>
		<path id="XMLID_379_" class="st0" d="M553.5,398.5l-1.6,0.5l-1.4-0.3l-1-0.9l-0.6-1.6"/>
		<path id="XMLID_378_" class="st0" d="M548.7,376l-1.3-0.7"/>
		<path id="XMLID_377_" class="st0" d="M566.4,379.9L566.4,379.9"/>
		<path id="XMLID_376_" class="st0" d="M564.3,371.5l-0.5-0.3"/>
		<path id="XMLID_375_" class="st0" d="M564.3,371.5L564.3,371.5"/>
		<path id="XMLID_374_" class="st0" d="M566.4,396.6L566.4,396.6v-9.8v-6.9"/>
		<path id="XMLID_373_" class="st0" d="M566.4,386.8L566.4,386.8"/>
		
			<ellipse id="XMLID_372_" transform="matrix(-0.866 -0.5 0.5 -0.866 839.2337 1011.4639)" class="st0" cx="555.1" cy="393.3" rx="5" ry="8.7"/>
		<path id="XMLID_371_" class="st0" d="M542,376.4c1.9-1.1,3.8-1.5,5.3-1.1"/>
		<path id="XMLID_370_" class="st0" d="M547.8,407.4c-2.5-1-3.9-3.8-3.9-7.6"/>
		<path id="XMLID_369_" class="st0" d="M562.5,379.2c2.5,1,3.9,3.8,3.9,7.6"/>
	</g>
	<g>
		<path id="XMLID_368_" class="st0" d="M318.2,517.6c0,0.4,0,0.4,0,0.9c0.1,0.3,0.1,0.3,0.1,0.5c0.1,0.3,0.1,0.3,0.2,0.5
			c0.1,0.3,0.1,0.3,0.3,0.5"/>
		<path id="XMLID_367_" class="st0" d="M318.3,520.3c0,0.3,0,0.3,0,0.6c0.1,0.3,0.1,0.3,0.1,0.5c0.1,0.3,0.2,0.3,0.3,0.7
			c0.2,0.3,0.2,0.3,0.3,0.5"/>
		<path id="XMLID_366_" class="st0" d="M318.6,522.9c0.1,0.5,0.1,0.5,0.2,0.9c0.1,0.3,0.1,0.3,0.3,0.6c0.1,0.1,0.1,0.1,0.2,0.3
			c0.2,0.2,0.2,0.2,0.4,0.5"/>
		<path id="XMLID_365_" class="st0" d="M318.2,514.8c0,0.4,0,0.4,0,0.9c0.1,0.3,0.1,0.3,0.1,0.5c0.1,0.3,0.1,0.3,0.2,0.5
			c0.1,0.3,0.1,0.3,0.3,0.5"/>
		<path id="XMLID_364_" class="st0" d="M318.9,514.4c-0.2-0.3-0.2-0.3-0.3-0.5c-0.1-0.3-0.1-0.3-0.2-0.5c-0.1-0.3-0.1-0.3-0.1-0.5
			c0-0.4,0-0.4,0-0.9"/>
		<path id="XMLID_363_" class="st0" d="M326.4,504.3c-3.9,2.3-3.9,2.3-7.8,4.5c-0.1,0.1-0.1,0.1-0.1,0.1c-0.1,0.1-0.1,0.1-0.1,0.1
			c-0.1,0.1-0.1,0.1-0.1,0.2c0,0.1,0,0.1-0.1,0.2c0,0.3,0,0.3,0,0.6c0.1,0.3,0.1,0.3,0.1,0.5c0.1,0.3,0.1,0.3,0.2,0.5
			c0.1,0.3,0.1,0.3,0.3,0.5"/>
		<path id="XMLID_362_" class="st0" d="M319.5,526.1c0.1,0.3,0.1,0.3,0.2,0.5c0.2,0.2,0.2,0.2,0.3,0.4c0.2,0.2,0.2,0.2,0.4,0.4"/>
		<path id="XMLID_361_" class="st0" d="M333.3,511.5c-5.1,0-5.1,0-10.2,0c-0.3,0-0.3,0-0.6,0.1c-0.3,0.1-0.3,0.1-0.5,0.1
			c-0.2,0.1-0.2,0.1-0.4,0.2c-0.1,0.1-0.1,0.1-0.2,0.1c-0.1,0.1-0.1,0.1-0.1,0.2c-0.1,0.1-0.1,0.1-0.1,0.1c0,0.1,0,0.1,0,0.2"/>
		<path id="XMLID_360_" class="st0" d="M321.3,512.5c0,4.4,0,4.4,0,8.8c0.3,2.7,0.3,2.7,0.7,5.3c0.6,1.4,0.6,1.5,1.3,2.9"/>
		<path id="XMLID_359_" class="st0" d="M323.3,529.5c0.1,0.1,0.1,0.1,0.2,0.1c0.1,0.1,0.1,0.1,0.1,0.1c0.1,0,0.1,0,0.1,0.1
			c0.2,0,0.2,0,0.4,0.1c0.2,0,0.2,0,0.4,0"/>
		<path id="XMLID_358_" class="st0" d="M334.2,499.9c7.4-4.3,7.4-4.3,14.8-8.5c0.2-0.1,0.2-0.1,0.4-0.2c0.1,0,0.1,0,0.2-0.1
			c0.2,0,0.2,0,0.5,0"/>
		<path id="XMLID_357_" class="st0" d="M343,520.1c0.8-0.5,0.8-0.5,1.6-1.1c0.8-0.8,0.8-0.8,1.5-1.6c0.6-1,0.6-1,1.2-2
			c0.4-1,0.4-1.1,0.8-2.1c0.1-0.5,0.1-0.5,0.1-1c0.1-0.5,0.1-0.5,0.1-1c-0.1-0.9-0.1-0.9-0.3-1.7"/>
		<path id="XMLID_356_" class="st0" d="M355.9,518.2c0-5,0-5,0-9.9c0-3.5,0-3.5,0-6.9c-0.3-2.6-0.3-2.7-0.7-5.3
			c-0.6-1.4-0.7-1.4-1.3-2.9c-0.1-0.1-0.1-0.1-0.1-0.1"/>
		<path id="XMLID_355_" class="st0" d="M324.3,502.1c-0.1,0.1-0.1,0.1-0.3,0.2c-0.1,0.1-0.1,0.1-0.3,0.3c-0.1,0.2-0.1,0.2-0.2,0.3
			c-0.1,0.2-0.1,0.2-0.1,0.4c0,0.2,0,0.2,0,0.4"/>
		<path id="XMLID_354_" class="st0" d="M319.4,525.2l-0.2,0.1l0.3,0.7l0,0"/>
		<path id="XMLID_353_" class="st0" d="M319.2,525.3L319.2,525.3"/>
		<path id="XMLID_352_" class="st0" d="M318.3,517.6L318.3,517.6"/>
		<path id="XMLID_351_" class="st0" d="M318.9,520L318.9,520l-0.6,0.4"/>
		<path id="XMLID_350_" class="st0" d="M319,522.6l-0.3,0.2"/>
		<path id="XMLID_349_" class="st0" d="M318.8,522.8l-0.2,0.1"/>
		<path id="XMLID_348_" class="st0" d="M319.6,525.1l-0.3,0.2"/>
		<path id="XMLID_347_" class="st0" d="M318.6,522.9L318.6,522.9"/>
		<path id="XMLID_346_" class="st0" d="M318.9,522.7l0.2-0.1l-0.3,0.2L318.9,522.7"/>
		<path id="XMLID_345_" class="st0" d="M318.8,522.8l-0.1,0.1"/>
		<path id="XMLID_344_" class="st0" d="M318.9,520l-0.6,0.4l0.1-0.1"/>
		<path id="XMLID_343_" class="st0" d="M318.3,520.3l0.6-0.4l-0.5,0.3"/>
		<path id="XMLID_342_" class="st0" d="M318.6,520.1L318.6,520.1"/>
		<path id="XMLID_341_" class="st0" d="M318.4,520.2L318.4,520.2"/>
		<path id="XMLID_340_" class="st0" d="M318.4,520.3l-0.1,0.1"/>
		<path id="XMLID_339_" class="st0" d="M318.5,517.4L318.5,517.4"/>
		<path id="XMLID_338_" class="st0" d="M318.3,514.8L318.3,514.8"/>
		<path id="XMLID_337_" class="st0" d="M318.9,517.2l-0.7,0.4"/>
		<path id="XMLID_336_" class="st0" d="M318.5,517.4L318.5,517.4"/>
		<path id="XMLID_335_" class="st0" d="M318.2,514.8l0.4-0.2l-0.1,0.1l0.1,0"/>
		<path id="XMLID_334_" class="st0" d="M318.5,514.7L318.5,514.7"/>
		<path id="XMLID_333_" class="st0" d="M318.6,514.6l0.3-0.2"/>
		<path id="XMLID_332_" class="st0" d="M318.2,512L318.2,512"/>
		<path id="XMLID_331_" class="st0" d="M318.9,514.4L318.9,514.4"/>
		<path id="XMLID_330_" class="st0" d="M318.2,509.7l3.6,2.1"/>
		<path id="XMLID_329_" class="st0" d="M318.7,511.7l-0.3,0.2l0.5-0.3"/>
		<path id="XMLID_328_" class="st0" d="M323.7,502.8l2.7,1.6"/>
		<path id="XMLID_327_" class="st0" d="M318.9,511.6l-0.5,0.3"/>
		<path id="XMLID_326_" class="st0" d="M318.6,511.8l-0.3,0.2l0.1-0.1"/>
		<path id="XMLID_325_" class="st0" d="M318.2,509.9l0.1,0.5"/>
		<path id="XMLID_324_" class="st0" d="M318.4,511.9l-0.1,0.1"/>
		<path id="XMLID_323_" class="st0" d="M319.6,525.1l-0.3,0.2L319.6,525.1"/>
		<path id="XMLID_322_" class="st0" d="M320.5,527.4l-0.3,0.1l0.3,0.5h0l-0.1-0.2"/>
		<path id="XMLID_321_" class="st0" d="M333.3,521.3v-9.9"/>
		<path id="XMLID_320_" class="st0" d="M324.6,529.9l12.7-0.9l18.6-10.7v0"/>
		<path id="XMLID_319_" class="st0" d="M320.5,528L320.5,528"/>
		<path id="XMLID_318_" class="st0" d="M320.3,527.5L320.3,527.5l0.1-0.1L320.3,527.5"/>
		<path id="XMLID_317_" class="st0" d="M319.2,525.3l0.3-0.2"/>
		<path id="XMLID_316_" class="st0" d="M320.4,527.4l-0.1,0.1"/>
		<path id="XMLID_315_" class="st0" d="M320.3,527.5L320.3,527.5"/>
		<path id="XMLID_314_" class="st0" d="M320.5,528l1.9,1.1L320.5,528"/>
		<path id="XMLID_313_" class="st0" d="M323.5,529.7l-1.1-0.6l0.5,0.3"/>
		<path id="XMLID_312_" class="st0" d="M323.4,503.7v2.4"/>
		<path id="XMLID_311_" class="st0" d="M331.5,497.9l-7.2,4.1"/>
		<path id="XMLID_310_" class="st0" d="M327.3,503.8l-0.9,0.5"/>
		<path id="XMLID_309_" class="st0" d="M333.3,511.5l18.6-10.7l1.6-7.5l0.1-0.1l-3.3-1.9l0.2,0.1l3.1,1.8h-0.1"/>
		<path id="XMLID_308_" class="st0" d="M350.1,491.1l0.3,0.1"/>
		<path id="XMLID_307_" class="st0" d="M338.2,497.6l-1.3-0.7"/>
		<path id="XMLID_306_" class="st0" d="M338.5,517.8l0.6,1.6l1,0.9l1.4,0.3l1.6-0.5"/>
		<path id="XMLID_305_" class="st0" d="M348.1,509.6l-0.8-1.2l-1.2-0.6l-1.5,0.1l-1,0.5"/>
		<path id="XMLID_304_" class="st0" d="M355.9,518.2L355.9,518.2"/>
		<path id="XMLID_303_" class="st0" d="M353.8,493.1l-0.5-0.3"/>
		<path id="XMLID_302_" class="st0" d="M353.8,493.1L353.8,493.1"/>
		<path id="XMLID_301_" class="st0" d="M355.9,508.3L355.9,508.3"/>
		<path id="XMLID_300_" class="st0" d="M355.9,501.4L355.9,501.4"/>
		
			<ellipse id="XMLID_299_" transform="matrix(-0.866 -0.5 0.5 -0.866 385.6182 1133.0115)" class="st0" cx="344.6" cy="514.8" rx="5" ry="8.7"/>
		<path id="XMLID_298_" class="st0" d="M337.3,529c-2.5-1-3.9-3.8-3.9-7.6"/>
		<path id="XMLID_297_" class="st0" d="M351.9,500.7c2.5,1,3.9,3.8,3.9,7.6"/>
		<path id="XMLID_296_" class="st0" d="M331.5,497.9c1.9-1.1,3.8-1.5,5.3-1.1"/>
	</g>
	<g>
		<path id="XMLID_295_" class="st0" d="M540.2,375.8c-1,0.3-1,0.3-2,0.8c-1,0.7-1,0.7-2,1.5c-0.9,1-0.9,1-1.8,2.1
			c-0.7,1.1-0.7,1.1-1.2,2.3"/>
		<path id="XMLID_294_" class="st0" d="M539.6,376.3c-1,0.5-1,0.5-2,1.1c-0.9,0.9-0.9,0.9-1.9,1.8c-0.4,0.6-0.4,0.6-0.8,1.2"/>
		<path id="XMLID_293_" class="st0" d="M533.2,382.6l0.1-0.1L533.2,382.6l-0.8,2.6l0,0.2"/>
		<path id="XMLID_292_" class="st0" d="M542.4,376.2l-0.4-0.3l-1.7-0.1"/>
		<path id="XMLID_291_" class="st0" d="M533.3,382.5l0.1-0.1l0,0"/>
		<path id="XMLID_290_" class="st0" d="M532.9,385.1l0.2-1l0.9-2"/>
		<path id="XMLID_289_" class="st0" d="M533.4,382.4l1.1-2"/>
		<path id="XMLID_288_" class="st0" d="M542.3,376.3l-0.9-0.3l-1.9,0.3"/>
		<path id="XMLID_287_" class="st0" d="M534.5,380.2l-0.1,0.2"/>
		<path id="XMLID_286_" class="st0" d="M539.6,374.9l1,0.3l-0.7-0.4"/>
		<path id="XMLID_285_" class="st0" d="M540.6,375.2l0.4,0.1l0.5,0.6"/>
		<path id="XMLID_284_" class="st0" d="M540.4,375l0.7,0.3"/>
		<path id="XMLID_283_" class="st0" d="M542.4,376.2L542.4,376.2"/>
		<path id="XMLID_282_" class="st0" d="M551.6,396.4l-0.2,0.1"/>
		<path id="XMLID_281_" class="st0" d="M556,389.2L556,389.2"/>
		<path id="XMLID_280_" class="st0" d="M555.7,386.3c1,2.3-0.1,6.2-2.6,8.8c-1.2,1.3-2.5,2-3.7,2.2"/>
	</g>
	<g>
		<path id="XMLID_279_" class="st0" d="M323.4,502.8c-0.4,0.7-0.4,0.7-0.8,1.4c-0.4,1.3-0.4,1.3-0.8,2.6c0,0.1,0,0.1,0,0.2"/>
		<path id="XMLID_278_" class="st0" d="M324,501.8c0.9-1.1,0.9-1.1,1.8-2.1c1-0.8,1-0.8,2-1.5c1-0.4,1-0.4,2-0.8"/>
		<path id="XMLID_277_" class="st0" d="M329,497.8c-1,0.6-1,0.6-2,1.2c-1,0.9-1,0.9-1.9,1.8c-0.4,0.6-0.4,0.6-0.8,1.2"/>
		<path id="XMLID_276_" class="st0" d="M322.8,503.9l0.5-1l0.1-0.1"/>
		<path id="XMLID_275_" class="st0" d="M323.4,503.6l-0.9,2l-0.2,1"/>
		<path id="XMLID_274_" class="st0" d="M322.8,503.9l-0.2,0.3"/>
		<path id="XMLID_273_" class="st0" d="M323.9,501.9l-0.5,0.9l0.6-1"/>
		<path id="XMLID_272_" class="st0" d="M329.7,497.4l1.7,0.1l0.4,0.3"/>
		<path id="XMLID_271_" class="st0" d="M331.8,497.8l-0.9-0.3l-1.9,0.3"/>
		<path id="XMLID_270_" class="st0" d="M323.9,501.9l0.1-0.1"/>
		<path id="XMLID_269_" class="st0" d="M331,497.4l-0.5-0.6l-1.4-0.5"/>
		<path id="XMLID_268_" class="st0" d="M330.1,496.8l-0.7-0.4"/>
		<path id="XMLID_267_" class="st0" d="M329.9,496.6l0.6,0.3"/>
		<path id="XMLID_266_" class="st0" d="M331.8,497.7L331.8,497.7"/>
		<path id="XMLID_265_" class="st0" d="M341.1,517.9l-0.2,0.1"/>
		<path id="XMLID_264_" class="st0" d="M345.5,510.7v-0.1"/>
		<path id="XMLID_263_" class="st0" d="M345.2,507.9c1,2.3-0.1,6.2-2.6,8.8c-1.2,1.3-2.5,2-3.7,2.2"/>
	</g>
	<g>
		<path id="XMLID_262_" class="st0" d="M337.6,164.4c-0.5,0.5-0.5,0.6-0.9,1.1c-0.3,0.3-0.3,0.3-0.7,0.5c-0.4,0.2-0.4,0.2-0.8,0.4
			c-0.9,0.3-0.9,0.3-1.9,0.5c-1,0.1-1,0.1-2.1,0.2c-1-0.1-1-0.1-2-0.3c-0.9-0.3-0.9-0.3-1.8-0.6c-0.7-0.5-0.7-0.5-1.4-0.9"/>
		<path id="XMLID_261_" class="st0" d="M326.6,166c0.8,0.4,0.8,0.4,1.6,0.8c1,0.3,1,0.3,2,0.5c0.8,0,0.8,0,1.6,0"/>
		<path id="XMLID_260_" class="st0" d="M326,166.8c0.7,0.5,0.7,0.5,1.4,0.9c0.9,0.3,0.9,0.3,1.8,0.6c1,0.2,1,0.1,2,0.3
			c0.3,0,0.3,0,0.5,0c0.8-0.1,0.8,0,1.6-0.1c1-0.3,1-0.3,1.9-0.5c0.7-0.4,0.7-0.4,1.5-0.9"/>
		<path id="XMLID_259_" class="st0" d="M331.7,164c-0.8,0-0.8,0-1.6,0c-1-0.2-1-0.2-2-0.4c-0.8-0.4-0.8-0.4-1.6-0.8"/>
		<path id="XMLID_258_" class="st0" d="M326,162c0.7,0.5,0.7,0.5,1.4,0.9c0.9,0.3,0.9,0.3,1.8,0.6c1,0.1,1,0.1,2,0.3
			c1-0.1,1-0.1,2.1-0.1c0.9-0.3,0.9-0.3,1.9-0.5c0.4-0.2,0.4-0.2,0.8-0.4c0.3-0.2,0.3-0.2,0.7-0.5c0.5-0.5,0.5-0.5,0.9-1.1"/>
		<path id="XMLID_257_" class="st0" d="M337.6,162.8c-0.5,0.6-0.5,0.6-0.9,1.1c-0.3,0.2-0.3,0.2-0.7,0.5c-0.4,0.2-0.4,0.2-0.8,0.4
			c-0.9,0.3-0.9,0.3-1.9,0.5c-1,0.1-1,0.1-2.1,0.1c-1-0.1-1-0.1-2-0.3c-0.9-0.3-0.9-0.3-1.8-0.6c-0.7-0.4-0.7-0.5-1.4-0.9"/>
		<path id="XMLID_256_" class="st0" d="M326,158.8c0.7,0.5,0.7,0.5,1.4,0.9c0.9,0.3,0.9,0.3,1.8,0.6c1,0.1,1,0.1,2,0.2
			c1-0.1,1-0.1,2.1-0.1c0.9-0.3,0.9-0.3,1.9-0.5c0.4-0.2,0.4-0.2,0.8-0.4c0.3-0.2,0.3-0.2,0.7-0.5c0.5-0.5,0.5-0.5,0.9-1.1"/>
		<path id="XMLID_255_" class="st0" d="M337.2,158.7c-0.6,0.5-0.6,0.5-1.2,1c-0.9,0.4-0.9,0.4-1.7,0.7c-1,0.2-1,0.2-2,0.3
			c-1,0-1,0-2.1-0.1c-0.2,0-0.2-0.1-0.5-0.1c-0.7-0.2-0.7-0.2-1.5-0.3c-0.8-0.4-0.8-0.4-1.6-0.8"/>
		<path id="XMLID_254_" class="st0" d="M337.6,159.5c-0.5,0.6-0.5,0.6-0.9,1.1c-0.3,0.2-0.3,0.2-0.7,0.5c-0.4,0.2-0.4,0.2-0.8,0.4
			c-0.9,0.3-0.9,0.3-1.9,0.5c-1,0.1-1,0.1-2.1,0.1c-1-0.1-1-0.1-2-0.3c-0.9-0.3-0.9-0.3-1.8-0.6c-0.7-0.4-0.7-0.4-1.4-0.9"/>
		<path id="XMLID_253_" class="st0" d="M326.6,161.1c0.8,0.4,0.8,0.4,1.6,0.8c1,0.2,1,0.2,2,0.4c1,0.1,1,0.1,2.1,0.1
			c0.8-0.1,0.8-0.1,1.5-0.3"/>
		<path id="XMLID_252_" class="st0" d="M326,155.5c0.7,0.5,0.7,0.5,1.4,0.9c0.9,0.3,0.9,0.3,1.8,0.6c1,0.1,1,0.1,2,0.3
			c1-0.1,1-0.1,2.1-0.2c0.9-0.2,0.9-0.3,1.9-0.5c0.4-0.2,0.4-0.2,0.8-0.4c0.3-0.2,0.3-0.2,0.7-0.5c0.5-0.5,0.5-0.5,0.9-1.1"/>
		<path id="XMLID_251_" class="st0" d="M332.3,159.2c0.3,0,0.3,0,0.7-0.1c0.4-0.1,0.4-0.1,0.8-0.2c0.2,0,0.2,0,0.5-0.1"/>
		<path id="XMLID_250_" class="st0" d="M337.6,156.3c-0.5,0.5-0.5,0.5-0.9,1.1c-0.3,0.3-0.3,0.3-0.7,0.5c-0.4,0.2-0.4,0.2-0.8,0.4
			c-0.9,0.3-0.9,0.3-1.9,0.5c-1,0.1-1,0.1-2.1,0.1c-1-0.1-1-0.1-2-0.2c-0.9-0.3-0.9-0.3-1.8-0.6c-0.7-0.5-0.7-0.5-1.4-0.9"/>
		<path id="XMLID_249_" class="st0" d="M332.3,159.2c-1,0-1,0-2.1,0c-0.2-0.1-0.2-0.1-0.5-0.1c-0.7-0.2-0.7-0.2-1.5-0.3
			c-0.8-0.4-0.8-0.4-1.6-0.8"/>
		<path id="XMLID_248_" class="st0" d="M337.6,151.5c-0.5,0.6-0.5,0.6-0.9,1.1c-0.3,0.2-0.3,0.2-0.7,0.5c-0.4,0.2-0.4,0.2-0.8,0.4
			c-0.9,0.3-0.9,0.3-1.9,0.5c-1,0.1-1,0.1-2.1,0.1c-1-0.1-1-0.1-2-0.3c-0.9-0.3-0.9-0.3-1.8-0.6c-0.7-0.4-0.7-0.4-1.4-0.9"/>
		<path id="XMLID_247_" class="st0" d="M326,153.9c0.7,0.5,0.7,0.5,1.4,0.9c0.9,0.3,0.9,0.3,1.8,0.6c1,0.1,1,0.1,2,0.3
			c1-0.1,1-0.1,2.1-0.2c0.9-0.2,0.9-0.3,1.9-0.5c0.4-0.2,0.4-0.2,0.8-0.4c0.3-0.2,0.3-0.2,0.7-0.5c0.5-0.5,0.5-0.5,0.9-1.1"/>
		<path id="XMLID_246_" class="st0" d="M333.8,155.7c-0.8,0.2-0.8,0.2-1.5,0.3c-1,0-1,0-2.1-0.1c-1-0.2-1-0.2-2-0.5
			c-0.8-0.4-0.8-0.4-1.6-0.8"/>
		<path id="XMLID_245_" class="st0" d="M326.6,153.1c0.8,0.4,0.8,0.4,1.6,0.8c1,0.3,1,0.3,2,0.5c0.8,0,0.8,0,1.6,0"/>
		<path id="XMLID_244_" class="st0" d="M337.2,150.7c-0.6,0.5-0.6,0.5-1.2,1c-0.5,0.2-0.5,0.2-1,0.4c-0.4,0.1-0.4,0.2-0.8,0.3
			c-1,0.2-1,0.2-2,0.3c-1,0-1,0-2.1-0.1c-0.2-0.1-0.2-0.1-0.5-0.1c-0.7-0.2-0.7-0.1-1.5-0.3c-0.8-0.4-0.8-0.4-1.6-0.8"/>
		<path id="XMLID_243_" class="st0" d="M335.1,147.5c-0.7,0.2-0.7,0.2-1.3,0.5c-0.3,0.1-0.3,0-0.5,0.1c-0.8,0.1-0.8,0.1-1.5,0.2
			c-0.3,0-0.3,0-0.6-0.1c-0.8,0-0.8,0-1.5-0.1c-0.3-0.1-0.3-0.1-0.5-0.2c-0.7-0.2-0.7-0.2-1.4-0.4c-0.2-0.1-0.2-0.1-0.4-0.2
			c-0.5-0.3-0.5-0.3-1.1-0.6"/>
		<path id="XMLID_242_" class="st0" d="M332.3,167.2c1-0.2,1-0.2,2-0.4c0.9-0.3,0.9-0.3,1.7-0.7c0.6-0.5,0.6-0.5,1.2-1"/>
		<path id="XMLID_241_" class="st0" d="M332.3,165.6c1-0.2,1-0.2,2-0.4c0.9-0.3,0.9-0.3,1.7-0.7c0.6-0.5,0.6-0.5,1.2-1"/>
		<path id="XMLID_240_" class="st0" d="M332.3,154.3c1-0.2,1-0.2,2-0.3c0.9-0.3,0.9-0.3,1.7-0.7c0.6-0.5,0.6-0.5,1.2-1"/>
		<path id="XMLID_239_" class="st0" d="M326.2,146.7L326.2,146.7l-4.4-2.6"/>
		<path id="XMLID_238_" class="st0" d="M319.7,140.1v-2.1"/>
		<path id="XMLID_237_" class="st0" d="M337.7,162.7l0.2,0.5l-0.3,1.2"/>
		<path id="XMLID_236_" class="st0" d="M326,165.2l-0.8-1.1l-0.1-1.2l0.1-0.3"/>
		<path id="XMLID_235_" class="st0" d="M325.2,163.2l-0.1,0.6l0.4,1.2l1.1,1"/>
		<path id="XMLID_234_" class="st0" d="M331.7,167.2l-0.5,0l-1.1-0.1"/>
		<path id="XMLID_233_" class="st0" d="M325.3,164.2l-0.1,0.2l0.1,1.2l0.8,1.1"/>
		<path id="XMLID_232_" class="st0" d="M336.6,167l-1.8,1.1"/>
		<path id="XMLID_231_" class="st0" d="M330.2,164l1.1,0.1l0.5,0"/>
		<path id="XMLID_230_" class="st0" d="M326.6,162.7l-1.1-1l-0.3-0.8l0,0l0.8,1.1"/>
		<path id="XMLID_229_" class="st0" d="M337.6,161.1l0.3-1.2l-0.2-0.5"/>
		<path id="XMLID_228_" class="st0" d="M337.7,161.1l0.2,0.5l-0.3,1.2"/>
		<path id="XMLID_227_" class="st0" d="M326,163.6l-0.8-1.1l-0.1-1.2l0.1-0.3"/>
		<path id="XMLID_226_" class="st0" d="M330.2,165.6l1.6,0l-0.5,0L330.2,165.6l-2-0.5l-1.6-0.8l-1.1-1l-0.4-1.2l0.1-0.5"/>
		<path id="XMLID_225_" class="st0" d="M325.1,161.3l0,0.4"/>
		<path id="XMLID_224_" class="st0" d="M325.1,162.9l0,0.4"/>
		<path id="XMLID_223_" class="st0" d="M325.4,157.9l0.6,0.9"/>
		<path id="XMLID_222_" class="st0" d="M337.6,157.9l0.3-1.2l0,0.9l-0.6,1.2"/>
		<path id="XMLID_221_" class="st0" d="M326.6,159.5l-1.1-1l-0.4-1.2l0.1-0.6l0.1,0.9l0.2,0.3"/>
		<path id="XMLID_220_" class="st0" d="M337.7,157.9l0.2,0.5l-0.3,1.2"/>
		<path id="XMLID_219_" class="st0" d="M326,160.4l-0.8-1.1l-0.1-0.9l-0.1,0.5l0.4,1.2l1.1,1"/>
		<path id="XMLID_218_" class="st0" d="M333.8,162.1l-0.8,0.1l-0.7,0.1"/>
		<path id="XMLID_217_" class="st0" d="M325.2,158.3l0-0.3l0.1-0.3"/>
		<path id="XMLID_216_" class="st0" d="M325.2,160l-0.1,0.5l0.1,0.4l-0.1-1.2l0.1-0.3"/>
		<path id="XMLID_215_" class="st0" d="M325.1,158l0,0.4"/>
		<path id="XMLID_214_" class="st0" d="M325.1,159.6l0,0.4"/>
		<path id="XMLID_213_" class="st0" d="M330.2,157.5l1.6,0l-0.5,0L330.2,157.5l-2-0.5l-1.6-0.8l-1.1-1l-0.4-1.2l0.1-0.6l0.1,0.9
			l0.8,1.1"/>
		<path id="XMLID_212_" class="st0" d="M337.6,154.7l0.3-1.2l-0.2-0.5"/>
		<path id="XMLID_211_" class="st0" d="M333.8,158.9l-1.5,0.3"/>
		<path id="XMLID_210_" class="st0" d="M334.3,158.8l1.7-0.7l1.2-1l0.6-1.2l0-0.9l-0.3,1.2"/>
		<path id="XMLID_209_" class="st0" d="M326,157.2l-0.8-1.1l-0.1-1.2l0.1-0.3"/>
		<path id="XMLID_208_" class="st0" d="M326.6,157.9l-1.1-1l-0.4-1.2l0.1-0.6"/>
		<path id="XMLID_207_" class="st0" d="M325.2,156.7l0-0.3l0.1-0.3"/>
		<path id="XMLID_206_" class="st0" d="M325.1,154.8l0,0.4"/>
		<path id="XMLID_205_" class="st0" d="M325.1,156.4l0,0.4"/>
		<path id="XMLID_204_" class="st0" d="M337.7,149.8l0.2,0.5l-0.3,1.2"/>
		<path id="XMLID_203_" class="st0" d="M326,152.3l-0.8-1.1l-0.1-1.2l0.1-0.3"/>
		<path id="XMLID_202_" class="st0" d="M325.3,151.3l-0.1,0.3l0.1,1.2l0.8,1.1"/>
		<path id="XMLID_201_" class="st0" d="M337.6,153.1l0.3-1.2l-0.2-0.5"/>
		<path id="XMLID_200_" class="st0" d="M332.3,156l0.7-0.1l0.8-0.2"/>
		<path id="XMLID_199_" class="st0" d="M326.6,154.7l-1.1-1l-0.4-1.2l0.1-0.5"/>
		<path id="XMLID_198_" class="st0" d="M325.3,152.9l-0.1,0.3l0,0.3"/>
		<path id="XMLID_197_" class="st0" d="M325.2,150.3l-0.1,0.5l0.4,1.2l1.1,1"/>
		<path id="XMLID_196_" class="st0" d="M331.7,154.3l-0.5,0l-1.1-0.1"/>
		<path id="XMLID_195_" class="st0" d="M325.1,151.6l0,0.4"/>
		<path id="XMLID_194_" class="st0" d="M325.1,153.2l0,0.4"/>
		<path id="XMLID_193_" class="st0" d="M337.8,146.1v3.5l-0.6,1.2"/>
		<path id="XMLID_192_" class="st0" d="M326.6,151.5l-1.1-1l-0.4-1.2V146"/>
		<path id="XMLID_191_" class="st0" d="M325.1,150l0,0.4"/>
		<path id="XMLID_190_" class="st0" d="M327.4,167.7l1.1,0.6"/>
		<path id="XMLID_189_" class="st0" d="M336,147.1l-0.4,0.3l-0.5,0.2"/>
		<path id="XMLID_188_" class="st0" d="M326.2,146.7L326.2,146.7"/>
		<path id="XMLID_187_" class="st0" d="M328,139.5v-3.5l-1.3,2.7l3.5,2l4.7-0.7l1.3-2.7l-3.5-2l-4.7,0.7"/>
		<path id="XMLID_186_" class="st0" d="M334.5,140.2l-1.7-1l-4.3,0.7"/>
		<path id="XMLID_185_" class="st0" d="M331.7,167.2l0.5,0"/>
		<path id="XMLID_184_" class="st0" d="M337.2,165.2l0.4-0.9l0.2,0.5l-0.3,1.2l-0.9,1.1"/>
		<path id="XMLID_183_" class="st0" d="M331.7,165.6l0.5,0"/>
		<path id="XMLID_182_" class="st0" d="M337.2,163.6l0.6-1.2l0-0.9"/>
		<path id="XMLID_181_" class="st0" d="M330.2,162.3l1.1,0.1l0.6-0.1"/>
		<path id="XMLID_180_" class="st0" d="M331.7,164l0.5,0l1.5-0.3l-0.8,0.1l-0.7,0.1"/>
		<path id="XMLID_179_" class="st0" d="M331.9,159.2l-0.6,0l-1.1-0.1"/>
		<path id="XMLID_178_" class="st0" d="M330.2,160.7l1.1,0.1l0.4,0"/>
		<path id="XMLID_177_" class="st0" d="M330.2,155.9l1.1,0.1l0.6,0"/>
		<path id="XMLID_176_" class="st0" d="M332.3,157.5l0.7-0.1l0.8-0.2L332.3,157.5h-0.5"/>
		<path id="XMLID_175_" class="st0" d="M331.6,152.7l-0.4,0l-1.1-0.1"/>
		<path id="XMLID_174_" class="st0" d="M331.7,154.3l0.5,0"/>
		<path id="XMLID_173_" class="st0" d="M337.2,152.3l0.6-1.2l0-0.9"/>
		<path id="XMLID_172_" class="st0" d="M329.3,139.8l0.4,0.7"/>
		<path id="XMLID_171_" class="st0" d="M332.3,167.2l0.7-0.1l0.8-0.2"/>
		<path id="XMLID_170_" class="st0" d="M334,165.3l-1,0.2l-0.7,0.1"/>
		<path id="XMLID_169_" class="st0" d="M333.8,162.1l0.5-0.1l1.7-0.7l1.2-1l0.6-1.2l0-0.9"/>
		<path id="XMLID_168_" class="st0" d="M333.8,163.8l0.5-0.1l1.7-0.7l1.2-1l0.6-1.2l0-0.9"/>
		<path id="XMLID_167_" class="st0" d="M332.3,160.8l0.7-0.1l1-0.2"/>
		<path id="XMLID_166_" class="st0" d="M333.8,155.7l0.5-0.1l1.7-0.7l1.2-1l0.6-1.2l0-0.9"/>
		<path id="XMLID_165_" class="st0" d="M333.8,157.3l0.5-0.1l1.7-0.7l1.2-1l0.6-1.2l0-0.9"/>
		<path id="XMLID_164_" class="st0" d="M334,154l-1,0.2l-0.7,0.1"/>
		<path id="XMLID_163_" class="st0" d="M334,152.4l-1,0.2l-0.7,0.1"/>
		<path id="XMLID_162_" class="st0" d="M332.7,139.2v-3.8"/>
		<path id="XMLID_161_" class="st0" d="M337.6,164.3l0.2-0.3l0-0.9"/>
		<path id="XMLID_160_" class="st0" d="M337.7,154.6l0.2,0.5"/>
		<path id="XMLID_159_" class="st0" d="M337.7,156.2l0.2,0.5"/>
		<path id="XMLID_158_" class="st0" d="M335.6,147.3l3.5-2"/>
		<path id="XMLID_157_" class="st0" d="M343.3,140.1v-2.1"/>
		<path id="XMLID_156_" class="st0" d="M334.8,168.2c-1.8,0.9-4.4,0.9-6.4,0.2"/>
		<path id="XMLID_155_" class="st0" d="M343.1,139.1c1,3.7-3.4,7.2-9.9,7.8c-6.4,0.6-12.4-2-13.4-5.7c-0.1-0.3-0.1-0.7-0.1-1"/>
		<ellipse id="XMLID_154_" class="st0" cx="331.5" cy="138.1" rx="11.8" ry="6.8"/>
		<path id="XMLID_153_" class="st0" d="M328.8,140c1.7-0.8,4.1-0.7,5.7,0.2"/>
	</g>
	<g>
		<path id="XMLID_152_" class="st0" d="M472,88.9c-0.7,0.4-0.7,0.4-1.5,0.9c-0.9,0.3-0.9,0.3-1.9,0.5c-0.8,0.1-0.8,0.1-1.6,0.1
			c-0.3,0-0.3,0-0.5,0.1c-1-0.1-1-0.1-2.1-0.3c-0.9-0.3-0.9-0.3-1.8-0.6c-0.7-0.4-0.7-0.4-1.4-0.9"/>
		<path id="XMLID_151_" class="st0" d="M461.3,85.5c0.7,0.5,0.7,0.5,1.4,0.9c0.9,0.3,0.9,0.3,1.8,0.6c1,0.1,1,0.1,2,0.2
			c1-0.1,1-0.1,2.1-0.1c0.9-0.3,0.9-0.3,1.9-0.5c0.4-0.2,0.4-0.2,0.8-0.4c0.3-0.2,0.3-0.2,0.7-0.5c0.5-0.5,0.5-0.5,0.9-1.1"/>
		<path id="XMLID_150_" class="st0" d="M472.5,85.4c-0.6,0.5-0.6,0.5-1.2,1c-0.9,0.4-0.9,0.4-1.7,0.7c-1,0.2-1,0.2-2,0.3
			c-1,0-1,0-2.1-0.1c-0.3,0-0.3-0.1-0.5-0.1c-0.7-0.2-0.7-0.2-1.4-0.3c-0.8-0.4-0.8-0.4-1.6-0.8"/>
		<path id="XMLID_149_" class="st0" d="M467.6,89.1c1-0.1,1-0.1,2-0.3c0.9-0.3,0.9-0.3,1.7-0.7c0.6-0.5,0.6-0.5,1.2-1"/>
		<path id="XMLID_148_" class="st0" d="M472.9,86.2c-0.5,0.6-0.5,0.6-0.9,1.1c-0.3,0.2-0.3,0.2-0.7,0.5c-0.4,0.2-0.4,0.2-0.8,0.4
			c-1,0.3-1,0.3-1.9,0.5c-1,0.1-1,0.1-2.1,0.1c-1-0.1-1-0.1-2-0.3c-0.9-0.3-0.9-0.3-1.8-0.6c-0.7-0.5-0.7-0.5-1.4-0.9"/>
		<path id="XMLID_147_" class="st0" d="M461.9,87.8c0.8,0.4,0.8,0.4,1.6,0.8c1,0.2,1,0.2,2,0.4c0.5,0.1,0.5,0.1,1.1,0.1
			c0.3,0,0.3,0,0.5,0"/>
		<path id="XMLID_146_" class="st0" d="M472.9,81.4c-0.5,0.5-0.5,0.6-0.9,1.1c-0.3,0.3-0.3,0.3-0.7,0.5c-0.4,0.2-0.4,0.2-0.8,0.4
			c-1,0.3-1,0.3-1.9,0.5c-1,0.1-1,0.1-2.1,0.2c-1-0.1-1-0.1-2-0.3c-0.9-0.3-0.9-0.3-1.8-0.6c-0.7-0.5-0.7-0.5-1.4-0.9"/>
		<path id="XMLID_145_" class="st0" d="M461.9,83c0.8,0.4,0.8,0.4,1.6,0.8c1,0.3,1,0.2,2,0.5c0.5,0,0.5,0,1.1,0.1c0.3,0,0.3,0,0.5,0
			"/>
		<path id="XMLID_144_" class="st0" d="M467.6,85.9c1-0.1,1-0.1,2-0.3c0.9-0.3,0.9-0.3,1.7-0.7c0.6-0.5,0.6-0.5,1.2-1"/>
		<path id="XMLID_143_" class="st0" d="M472.9,83c-0.5,0.5-0.5,0.5-0.9,1.1c-0.3,0.3-0.3,0.3-0.7,0.5c-0.4,0.2-0.4,0.2-0.8,0.4
			c-1,0.3-1,0.3-1.9,0.5c-1,0.1-1,0.1-2.1,0.2c-1-0.1-1-0.1-2-0.3c-0.9-0.3-0.9-0.3-1.8-0.6c-0.7-0.5-0.7-0.5-1.4-0.9"/>
		<path id="XMLID_142_" class="st0" d="M461.9,84.6c0.8,0.4,0.8,0.4,1.6,0.8c1,0.3,1,0.2,2,0.5c0.8,0,0.8,0,1.6,0"/>
		<path id="XMLID_141_" class="st0" d="M461.3,79c0.7,0.5,0.7,0.5,1.4,0.9c0.9,0.3,0.9,0.3,1.8,0.6c1,0.1,1,0.1,2,0.3
			c1-0.1,1-0.1,2.1-0.1c0.9-0.3,0.9-0.3,1.9-0.5c0.4-0.2,0.4-0.2,0.8-0.4c0.3-0.2,0.3-0.2,0.7-0.5c0.5-0.5,0.5-0.5,0.9-1.1"/>
		<path id="XMLID_140_" class="st0" d="M472.5,79c-0.6,0.5-0.6,0.5-1.2,1c-0.9,0.4-0.9,0.4-1.7,0.7c-1,0.2-1,0.2-2,0.3
			c-1,0-1,0-2.1-0.1c-0.3-0.1-0.3-0.1-0.5-0.1c-0.7-0.2-0.7-0.1-1.4-0.3c-0.8-0.4-0.8-0.4-1.6-0.8"/>
		<path id="XMLID_139_" class="st0" d="M472.9,79.8c-0.5,0.6-0.5,0.6-0.9,1.1c-0.3,0.3-0.3,0.3-0.7,0.5c-0.4,0.2-0.4,0.2-0.8,0.4
			c-1,0.3-1,0.3-1.9,0.5c-1,0.1-1,0.1-2.1,0.1c-1-0.1-1-0.1-2-0.3c-0.9-0.3-0.9-0.3-1.8-0.6c-0.7-0.4-0.7-0.5-1.4-0.9"/>
		<path id="XMLID_138_" class="st0" d="M461.9,81.4c0.8,0.4,0.8,0.4,1.6,0.8c1,0.3,1,0.3,2,0.5c1,0,1,0,2.1,0.1
			c0.3-0.1,0.3-0.1,0.7-0.1c0.4-0.1,0.4-0.1,0.8-0.2"/>
		<path id="XMLID_137_" class="st0" d="M472.9,75c-0.5,0.5-0.5,0.5-0.9,1.1c-0.3,0.2-0.3,0.2-0.7,0.5c-0.4,0.2-0.4,0.2-0.8,0.4
			c-1,0.3-1,0.3-1.9,0.5c-1,0.1-1,0.1-2.1,0.1c-1-0.1-1-0.1-2-0.2c-0.9-0.3-0.9-0.3-1.8-0.6c-0.7-0.5-0.7-0.5-1.4-0.9"/>
		<path id="XMLID_136_" class="st0" d="M467.1,77.8c-0.8,0-0.8,0-1.6-0.1c-1-0.2-1-0.2-2-0.4c-0.8-0.4-0.8-0.4-1.6-0.8"/>
		<path id="XMLID_135_" class="st0" d="M461.3,77.4c0.7,0.5,0.7,0.5,1.4,0.9c0.9,0.3,0.9,0.3,1.8,0.6c1,0.1,1,0.1,2,0.3
			c1-0.1,1-0.1,2.1-0.1c0.9-0.3,0.9-0.3,1.9-0.5c0.4-0.2,0.4-0.2,0.8-0.4c0.3-0.2,0.3-0.2,0.7-0.5c0.5-0.5,0.5-0.5,0.9-1.1"/>
		<path id="XMLID_134_" class="st0" d="M472.5,77.4c-0.6,0.5-0.6,0.5-1.2,1c-0.9,0.4-0.9,0.4-1.7,0.7c-1,0.2-1,0.2-2,0.3
			c-1,0-1,0-2.1-0.1c-1-0.2-1-0.2-2-0.4c-0.8-0.4-0.8-0.4-1.6-0.8"/>
		<path id="XMLID_133_" class="st0" d="M472.5,72.6c-0.6,0.5-0.6,0.5-1.2,1c-0.9,0.4-0.9,0.4-1.7,0.7c-0.3,0.1-0.3,0.1-0.5,0.1
			c-0.4,0.1-0.4,0.1-0.8,0.2c-0.3,0.1-0.3,0.1-0.7,0.1c-1,0-1,0-2.1,0c-0.7-0.2-0.7-0.2-1.5-0.3c-0.3-0.1-0.3-0.1-0.5-0.1
			c-0.8-0.4-0.8-0.4-1.6-0.8"/>
		<path id="XMLID_132_" class="st0" d="M472.9,73.4c-0.5,0.5-0.5,0.5-0.9,1.1c-0.3,0.3-0.3,0.2-0.7,0.5c-0.4,0.2-0.4,0.2-0.8,0.4
			c-1,0.3-1,0.3-1.9,0.5c-1,0.1-1,0.1-2.1,0.1c-1-0.1-1-0.1-2-0.2c-0.9-0.3-0.9-0.3-1.8-0.6c-0.7-0.5-0.7-0.5-1.4-0.9"/>
		<path id="XMLID_131_" class="st0" d="M461.9,74.9c0.8,0.4,0.8,0.4,1.6,0.8c1,0.2,1,0.2,2,0.4c1,0.1,1,0.1,2.1,0.1
			c0.7-0.1,0.7-0.1,1.5-0.3"/>
		<path id="XMLID_130_" class="st0" d="M470.5,69.4c-0.7,0.3-0.7,0.3-1.3,0.5c-0.3,0-0.3,0-0.5,0.1c-0.8,0.1-0.8,0.1-1.5,0.2
			c-0.3,0-0.3,0-0.5-0.1c-0.8-0.1-0.8-0.1-1.6-0.1c-0.3-0.1-0.3-0.1-0.5-0.1c-0.7-0.2-0.7-0.2-1.4-0.4c-0.2-0.1-0.2-0.1-0.4-0.3
			c-0.5-0.3-0.5-0.3-1.1-0.6"/>
		<path id="XMLID_129_" class="st0" d="M472.5,82.2c-0.6,0.5-0.6,0.5-1.2,1c-0.9,0.4-0.9,0.4-1.7,0.7c-1,0.2-1,0.2-2,0.3
			c-0.3,0-0.3,0-0.5,0"/>
		<path id="XMLID_128_" class="st0" d="M472.5,75.8c-0.6,0.5-0.6,0.5-1.2,1c-0.9,0.4-0.9,0.4-1.7,0.7c-1,0.2-1,0.2-2,0.3
			c-0.3,0-0.3,0-0.5,0"/>
		<path id="XMLID_127_" class="st0" d="M455,62v-2"/>
		<path id="XMLID_126_" class="st0" d="M457.2,66l4.3,2.5l0.1,0.1"/>
		<path id="XMLID_125_" class="st0" d="M470.2,90l1.8-1.1"/>
		<path id="XMLID_124_" class="st0" d="M461.3,88.7l-0.7-1.1l-0.1-1.2l0.1-0.2"/>
		<path id="XMLID_123_" class="st0" d="M460.9,84.9l0.4,0.6"/>
		<path id="XMLID_122_" class="st0" d="M472.9,84.6l0.3-1.2l-0.1,0.9l-0.6,1.2"/>
		<path id="XMLID_121_" class="st0" d="M461.9,86.2l-1.1-1l-0.4-1.2l0.1-0.6l0.1,0.9l0.3,0.5"/>
		<path id="XMLID_120_" class="st0" d="M467.1,89.1h0.5"/>
		<path id="XMLID_119_" class="st0" d="M472.5,87l0.6-1.2l0.1-0.9l-0.3,1.2"/>
		<path id="XMLID_118_" class="st0" d="M461.3,87.1l-0.7-1.1l-0.1-0.9l-0.1,0.5l0.4,1.2l1.1,1"/>
		<path id="XMLID_117_" class="st0" d="M467.1,89.1l-1.6-0.1"/>
		<path id="XMLID_116_" class="st0" d="M460.5,85l0-0.3l0.1-0.3"/>
		<path id="XMLID_115_" class="st0" d="M460.5,84.7l0,0.4"/>
		<path id="XMLID_114_" class="st0" d="M473,79.7l0.2,0.5l-0.3,1.2"/>
		<path id="XMLID_113_" class="st0" d="M461.3,82.2l-0.7-1.1l-0.1-0.9l-0.1,0.6l0.4,1.2l1.1,1"/>
		<path id="XMLID_112_" class="st0" d="M467.1,84.2l-1.6,0"/>
		<path id="XMLID_111_" class="st0" d="M467.1,85.9h0.5"/>
		<path id="XMLID_110_" class="st0" d="M472.5,83.8l0.6-1.2l0.1-0.9l-0.3,1.2"/>
		<path id="XMLID_109_" class="st0" d="M461.3,83.8l-0.7-1.1l-0.1-0.9l-0.1,0.6l0.4,1.2l1.1,1"/>
		<path id="XMLID_108_" class="st0" d="M467.1,85.9l-0.5,0l-1.1-0.1"/>
		<path id="XMLID_107_" class="st0" d="M460.6,82.9l-0.1,0.3l0,0.3"/>
		<path id="XMLID_106_" class="st0" d="M460.5,81.9l0-0.4L460.5,81.9"/>
		<path id="XMLID_105_" class="st0" d="M460.5,83.1l0,0.4"/>
		<path id="XMLID_104_" class="st0" d="M460.6,76.4l-0.1,0.3l0.1,1.2l0.7,1.1"/>
		<path id="XMLID_103_" class="st0" d="M472.9,78.2l0.3-1.2l-0.2-0.5"/>
		<path id="XMLID_102_" class="st0" d="M473.2,77l-0.1,0.9l-0.6,1.2"/>
		<path id="XMLID_101_" class="st0" d="M461.9,79.8l-1.1-1l-0.4-1.2l0.1-0.5"/>
		<path id="XMLID_100_" class="st0" d="M469.1,82.4l0.5-0.1l1.7-0.7l1.2-1l0.6-1.2l0.1-0.9l-0.3,1.2"/>
		<path id="XMLID_99_" class="st0" d="M461.3,80.6l-0.7-1.1l-0.1-0.9l-0.1,0.5l0.4,1.2l1.1,1"/>
		<path id="XMLID_98_" class="st0" d="M469.1,82.4l-1.5,0.3"/>
		<path id="XMLID_97_" class="st0" d="M460.5,78.6l0-0.3L460.5,78.6"/>
		<path id="XMLID_96_" class="st0" d="M460.5,81.5l0.1-0.3"/>
		<path id="XMLID_95_" class="st0" d="M460.5,80.2l0-0.3l0.1-0.3"/>
		<path id="XMLID_94_" class="st0" d="M460.5,79.9l0,0.4"/>
		<path id="XMLID_93_" class="st0" d="M473,73.3l0.2,0.5l-0.3,1.2"/>
		<path id="XMLID_92_" class="st0" d="M461.3,75.8l-0.7-1.1l-0.1-1.2l0.1-0.3"/>
		<path id="XMLID_91_" class="st0" d="M465.5,77.8l1.1,0.1l0.5,0"/>
		<path id="XMLID_90_" class="st0" d="M461.9,76.5l-1.1-1l-0.4-1.2l0.1-0.6"/>
		<path id="XMLID_89_" class="st0" d="M472.9,76.6l0.3-1.2l-0.1,0.9l-0.6,1.2"/>
		<path id="XMLID_88_" class="st0" d="M461.9,78.1l-1.1-1l-0.4-1.2l0.1-0.5l0.1,0.9l0.7,1.1"/>
		<path id="XMLID_87_" class="st0" d="M460.5,78.3l0.1-0.3"/>
		<path id="XMLID_86_" class="st0" d="M460.5,75.4l0-0.3l0.1-0.3"/>
		<path id="XMLID_85_" class="st0" d="M460.5,75.4l0-0.4"/>
		<path id="XMLID_84_" class="st0" d="M460.5,76.7l0,0.4"/>
		<path id="XMLID_83_" class="st0" d="M473.1,67.9v3.5l-0.6,1.2"/>
		<path id="XMLID_82_" class="st0" d="M461.9,73.3l-1.1-1l-0.4-1.2v-3.2"/>
		<path id="XMLID_81_" class="st0" d="M473,71.7l0.2,0.5l-0.3,1.2"/>
		<path id="XMLID_80_" class="st0" d="M461.3,74.2l-0.7-1.1l-0.1-1.2l0.1-0.3"/>
		<path id="XMLID_79_" class="st0" d="M460.5,72.2L460.5,72.2l-0.1,0.5l0.4,1.2l1.1,1"/>
		<path id="XMLID_78_" class="st0" d="M469.1,75.9l-0.8,0.2l-0.7,0.1"/>
		<path id="XMLID_77_" class="st0" d="M460.5,73.4l0,0.4"/>
		<path id="XMLID_76_" class="st0" d="M460.5,72.1L460.5,72.1l0-0.3"/>
		<path id="XMLID_75_" class="st0" d="M471.3,69l-0.4,0.3l-0.5,0.1"/>
		<path id="XMLID_74_" class="st0" d="M461.6,68.6L461.6,68.6"/>
		<path id="XMLID_73_" class="st0" d="M462.7,89.6l1.1,0.6"/>
		<path id="XMLID_72_" class="st0" d="M462.6,59.5l-0.5,1.2l3.5,2l4.7-0.7l1.3-2.7l-3.5-2l-4.8,0.7L462.6,59.5"/>
		<path id="XMLID_71_" class="st0" d="M463.3,61.4v-3.5"/>
		<path id="XMLID_70_" class="st0" d="M463.8,61.7l4.3-0.7v-3.8"/>
		<path id="XMLID_69_" class="st0" d="M464.6,61.7l0.4,0.7"/>
		<path id="XMLID_68_" class="st0" d="M467.6,89.1l0.7-0.1l0.8-0.1"/>
		<path id="XMLID_67_" class="st0" d="M465.5,87.4l1.1,0.1l0.4,0"/>
		<path id="XMLID_66_" class="st0" d="M467.6,87.5l0.7-0.1l1-0.2"/>
		<path id="XMLID_65_" class="st0" d="M467.6,85.9l0.7-0.1l1-0.2"/>
		<path id="XMLID_64_" class="st0" d="M465.5,82.6l1.1,0.1l0.4,0"/>
		<path id="XMLID_63_" class="st0" d="M473.2,80.2l-0.1,0.9l-0.6,1.2"/>
		<path id="XMLID_62_" class="st0" d="M467.6,84.2l0.7-0.1l1-0.2"/>
		<path id="XMLID_61_" class="st0" d="M467.1,81l-0.5,0l-1.1-0.1"/>
		<path id="XMLID_57_" class="st0" d="M465.5,79.4l1.1,0.1l0.6-0.1"/>
		<path id="XMLID_56_" class="st0" d="M467.6,79.4l0.7-0.1l1-0.2"/>
		<path id="XMLID_55_" class="st0" d="M469.3,80.7l-1,0.2l-0.7,0.1"/>
		<path id="XMLID_54_" class="st0" d="M467,76.2l-0.4,0l-1.1-0.1"/>
		<path id="XMLID_53_" class="st0" d="M473.2,73.8l-0.1,0.9l-0.6,1.2"/>
		<path id="XMLID_52_" class="st0" d="M467.6,77.8l0.7-0.1l1-0.2"/>
		<path id="XMLID_51_" class="st0" d="M467.6,74.6l1.5-0.3"/>
		<path id="XMLID_50_" class="st0" d="M467.1,74.6l-0.5,0l-1.1-0.1"/>
		<path id="XMLID_49_" class="st0" d="M469.1,75.9l0.5-0.1l1.7-0.7l1.2-1l0.6-1.2l0.1-0.9"/>
		<path id="XMLID_45_" class="st0" d="M470.9,69.2l3.5-2"/>
		<path id="XMLID_44_" class="st0" d="M468.1,61l1.7,1"/>
		<path id="XMLID_43_" class="st0" d="M473,86.2l0.2,0.5l-0.3,1.2l-0.9,1.1"/>
		<path id="XMLID_32_" class="st0" d="M473.2,85l-0.2-0.5"/>
		<path id="XMLID_30_" class="st0" d="M473.2,81.8l-0.2-0.5"/>
		<path id="XMLID_29_" class="st0" d="M473,82.9l0.2,0.5"/>
		<path id="XMLID_28_" class="st0" d="M473.2,78.6l-0.2-0.5"/>
		<path id="XMLID_27_" class="st0" d="M473.2,75.4l-0.2-0.5"/>
		<path id="XMLID_22_" class="st0" d="M478.6,62v-2"/>
		<path id="XMLID_18_" class="st0" d="M478.5,61c1,3.7-3.4,7.2-9.9,7.8c-6.4,0.6-12.4-2-13.4-5.7c-0.1-0.3-0.1-0.7-0.1-1"/>
		<path id="XMLID_16_" class="st0" d="M470.2,90c-1.8,0.9-4.4,0.9-6.4,0.2"/>
		<ellipse id="XMLID_14_" class="st0" cx="466.8" cy="59.9" rx="11.8" ry="6.8"/>
		<path id="XMLID_13_" class="st0" d="M464.1,61.9c1.7-0.8,4.1-0.7,5.7,0.2"/>
	</g>
	<g>
		<path id="XMLID_12_" class="st1" d="M466.2,347.2l0.3-125.9"/>
		<path id="XMLID_11_" class="st1" d="M466.6,206.2l0.3-115.5"/>
	</g>
	<g>
		<path id="XMLID_9_" class="st1" d="M331.2,298.9l-0.3,126.5"/>
		<path id="XMLID_4_" class="st1" d="M331.2,284.3l0.2-115.5"/>
	</g>
	<g id="XMLID_19_">
		<path id="XMLID_7543_" class="st2" d="M570.3,92.5c0,0-33.6-48.5-96.2-30.9c58.2-1.2,79.4,42.1,79.4,42.1L570.3,92.5z"/>
		<g id="XMLID_21_">
			<circle id="XMLID_7704_" class="st3" cx="583.8" cy="134.1" r="54.9"/>
			<g id="XMLID_20_">
				<path id="XMLID_7539_" class="st4" d="M586.8,137.9l2.1,0.6l1.2,0.6l1.8,1.2l1.1,1l1,1.2l0.6,1.3l0.3,1.6l-0.1,1.4l-0.4,1.2
					l-0.5,0.9l-0.7,1l-0.5,0.6l-1.3,1l-1.6,0.9l-1.6,0.6l-1.7,0.4l-2.2,0.3l0.1,1.6l-0.2-0.1l-2.3-3l-0.1-0.1l0-0.2l2.2-3.3l0.1,1.6
					l0.8-0.1l1.4-0.3l1.5-0.6l1-0.8l0.7-0.8l0.5-1l0.1-0.4v-1.2l-0.1-0.5l-0.4-0.8l-0.6-0.8l-0.8-0.7l-1.4-0.7l-1.2-0.4l-1.1-0.2
					v-3.4l1,0L586.8,137.9z M582.8,141.1l-1.2,0.3l-0.8,0.3l-0.8,0.4l-1.1,0.7l-0.5,0.6l-0.4,0.7l-0.3,0.6l-0.1,0.7v0.7l0.1,0.6
					l0.2,0.5l0.6,1l-3.7,1.7l-0.4,0.1l-0.9-1.3l-0.5-1.2l-0.2-1v-1.2l0.1-0.8l0.4-1.3l0.7-1.2l1-1.2l1.5-1.2l1.7-0.9l1.7-0.6l2-0.4
					l0.7,0V141.1z"/>
				<path id="XMLID_7538_" class="st4" d="M586,171l2.3,0.1l-1.9,1.8l-0.9,0.8l-1.7,1.7h-0.5l-1.8-1.8l-0.9-0.8l-1.1-1l-0.7-0.6
					l0-0.1l2.2-0.1l0.1-7.4h4.8L586,171z"/>
				<path id="XMLID_7537_" class="st5" d="M584.6,153.7l-0.4,0l0.1,1.7l-1.5-1.9"/>
				<path id="XMLID_7536_" class="st5" d="M584.6,150.2l-0.6,0.1l-0.1-1.7l-1.1,1.7"/>
				<path id="XMLID_7535_" class="st5" d="M582.8,141.1C582.8,141.1,582.8,141.2,582.8,141.1c-0.1,0-0.1,0-0.1,0c0,0,0,0,0,0
					c0,0,0,0-0.1,0c-0.4,0.1-0.8,0.1-1.1,0.3c-0.3,0.1-0.7,0.3-1,0.4c-1.8,0.9-3.4,2.7-2.8,4.9c0.2,0.6,0.5,1,0.8,1.5"/>
				<path id="XMLID_7534_" class="st5" d="M574.5,150c-2.4-3-2-6.9,0.9-9.4c0.8-0.7,1.7-1.2,2.6-1.7c0.6-0.2,1.1-0.4,1.7-0.7
					c0.6-0.1,1.2-0.3,1.8-0.4c0.4-0.1,0.9-0.1,1.3-0.1"/>
				<path id="XMLID_7533_" class="st5" d="M584.6,153.7L584.6,153.7c0.5-0.1,1-0.1,1.5-0.2c0.6-0.1,1.2-0.3,1.8-0.4
					c2.7-0.9,5.6-2.6,6.5-5.5c0.9-2.8-0.2-5.6-2.5-7.4c-1.4-1.1-3.1-1.8-4.8-2.3c-0.6-0.1-1.3-0.2-1.9-0.3c-0.3,0-0.5-0.1-0.8,0"/>
				<path id="XMLID_7532_" class="st5" d="M584.6,150.2L584.6,150.2c0.1,0,0.2,0,0.3,0c0.1,0,0.2,0,0.3,0c0.4-0.1,0.7-0.1,1-0.3
					c0.3-0.1,0.7-0.2,1-0.4c2.9-1,3.9-4.5,1.7-6.7c-0.5-0.5-1.3-1-2-1.3c-0.3-0.1-0.7-0.2-1-0.3c-0.4-0.1-0.7-0.1-1.1-0.2l0,0l0,0
					c0,0,0,0,0,0l0,0l0,0c0,0,0,0,0,0l0,0l0,0l0,0c0,0,0,0,0,0l0,0l0,0l0,0"/>
				<path id="XMLID_7531_" class="st5" d="M578.5,148.1l-4,1.8"/>
				<path id="XMLID_7530_" class="st5" d="M582.8,153.6l-1.2-1.5l1.2-1.8"/>
				<path id="XMLID_7529_" class="st5" d="M579.4,171h-0.5l4.7,4.5l4.7-4.5h-2.4v-7.5h-4.8v7.5H579.4"/>
				<path id="XMLID_33_" class="st6" d="M580.2,108.4L580.2,108.4c0.1-0.9,0.2-1.8,0.2-2.7"/>
				<path id="XMLID_7528_" class="st6" d="M584.5,109.4c-0.1,0.5-0.3,0.9-0.7,1.2c0,0-0.1,0.1-0.1,0.1c0,0-0.1,0.1-0.1,0.1l0,0
					c-0.1,0-0.1,0.1-0.1,0.1c0,0,0,0-0.1,0c0,0,0,0,0,0l0,0c-0.6,0.4-1.6,0.3-2.2-0.1c0,0-0.1-0.1-0.1-0.1c-0.7-0.6-1-1.2-1-2.2"/>
				<path id="XMLID_7527_" class="st6" d="M580.4,105.7c-0.4-0.3-0.8-0.4-1.2-0.7c0,0-0.1,0-0.1-0.1c0,0,0-0.1-0.1-0.1
					c0,0-0.1-0.1-0.1-0.1"/>
				<path id="XMLID_7526_" class="st6" d="M579,104.8c-0.3,0.7-0.7,1.5-1.1,2.2c0,0,0,0,0,0.1c0,0,0,0,0,0c0,0,0,0-0.1,0.1
					c0,0.1-0.1,0.1-0.1,0.1c0,0,0,0.1-0.1,0.1c0,0,0,0,0,0c0,0,0,0,0,0c-0.1,0.1-0.1,0.1-0.1,0.1c0,0-0.1,0-0.1,0.1l0,0c0,0,0,0,0,0
					c0,0,0,0-0.1,0c0,0,0,0-0.1,0c0,0-0.1,0-0.1,0c0,0-0.1,0-0.1,0c0,0-0.1,0-0.1,0c0,0,0,0-0.1,0"/>
				<path id="XMLID_34_" class="st6" d="M576.4,104.1c0.6-1,1.3-2.3,1.4-3.5c0-0.1,0.1-0.1,0.1-0.2c0-0.1,0.1-0.1,0.1-0.1"/>
				<path id="XMLID_7525_" class="st6" d="M576.8,107.8C576.8,107.8,576.8,107.8,576.8,107.8c-0.1,0-0.1,0-0.2-0.1l0,0
					c0,0-0.1,0-0.1-0.1c0,0-0.1,0-0.1-0.1c0,0,0,0,0-0.1c0,0,0,0,0,0c0,0,0,0,0,0c0,0,0-0.1-0.1-0.1c-0.5-1-0.4-2.3,0.1-3.3"/>
				<path id="XMLID_7524_" class="st6" d="M577.8,111.6c-0.1-0.1-0.1-0.1-0.1-0.2c-0.2-0.3-0.4-0.7-0.7-1.1"/>
				<path id="XMLID_7523_" class="st6" d="M576.9,102L576.9,102L576.9,102L576.9,102L576.9,102L576.9,102L576.9,102l0.1-0.1l0,0h0v0
					l0,0l0,0l0,0v0c0,0,0,0,0.1-0.1l0,0c0-0.1,0.1-0.1,0.1-0.1v0c0,0,0,0,0.1-0.1v0l0,0v0c0.1-0.1,0.1-0.1,0.1-0.2l0,0l0,0h0v0l0,0
					l0,0v0l0,0l0,0h0v0l0,0l0,0v0l0,0h0"/>
				<path id="XMLID_7522_" class="st6" d="M577,102L577,102L577,102L577,102L577,102L577,102L577,102l0.1-0.1l0,0l0,0l0,0l0,0l0,0v0
					h0v0l0,0l0,0c0-0.1,0.1-0.1,0.1-0.2v0l0,0v0c0,0,0.1-0.1,0.1-0.1c0-0.1,0-0.1,0.1-0.2l0,0c0-0.1,0.1-0.1,0.1-0.1v0l0,0v0l0,0
					l0,0l0,0v0c0-0.1,0.1-0.1,0.1-0.2"/>
				<path id="XMLID_7519_" class="st6" d="M579.4,113.7c-0.6-1.2-1.6-2-2.3-2.9"/>
				<path id="XMLID_7518_" class="st6" d="M577,107.8L577,107.8C577.1,107.8,577.1,107.8,577,107.8c0.1,0,0.1,0,0.1,0
					c0,0,0.1,0,0.1,0l0,0c0,0,0,0,0.1,0l0,0c0,0,0,0,0.1,0l0,0c0,0,0,0,0.1,0c0,0,0.1-0.1,0.1-0.1l0,0c0,0,0,0,0,0l0,0c0,0,0,0,0,0
					c0,0,0,0,0,0l0,0c0,0,0,0,0.1-0.1c0,0,0,0,0,0c0,0,0,0,0,0c0.1-0.1,0.1-0.1,0.1-0.1c0-0.1,0.1-0.1,0.1-0.1c0,0,0,0,0,0
					c0.3-0.5,0.7-1.2,0.9-1.8c0-0.2,0.1-0.3,0.2-0.5"/>
				<path id="XMLID_7517_" class="st6" d="M578.1,113.5c0,0.3-0.1,0.9-0.3,1.2c0,0,0,0,0,0s0,0,0,0c0,0,0,0,0,0
					c-0.2,0.7-0.1,1.4,0.1,2c0,0,0,0.1,0,0.1c0,0,0.1,0.1,0.1,0.1c0,0,0,0.1,0.1,0.1c0,0,0,0,0,0c0,0,0,0,0,0c0,0,0,0,0,0
					c0,0,0,0,0.1,0.1l0,0c0,0,0,0,0,0c0,0,0,0,0.1,0c0,0,0,0,0,0c0,0,0.1,0,0.1,0l0,0c0,0,0,0,0,0c0,0,0,0,0.1,0c0,0,0.1,0,0.1,0
					c0,0,0,0,0,0c0,0,0.1,0,0.1,0l0,0l0,0c0,0,0,0,0,0l0,0l0,0c0,0,0,0,0,0l0,0l0,0c0,0,0,0,0,0"/>
				<path id="XMLID_7516_" class="st6" d="M578.2,112L578.2,112C578.2,112.1,578.2,112.1,578.2,112
					C578.2,112.1,578.2,112.1,578.2,112C578.3,112.1,578.3,112.1,578.2,112c0.5,0.5,1,1.1,1.2,1.6"/>
				<path id="XMLID_7515_" class="st6" d="M578,100.7L578,100.7c0,0,0-0.1,0-0.1l0,0l0,0l0,0v0l0,0c0,0,0-0.1,0-0.1l0,0l0,0v-0.1
					l0,0c0,0,0-0.1,0-0.1l0,0l0,0v0l0,0c0-0.1,0-0.1,0-0.2l0,0l0,0c0,0,0,0,0-0.1h0v0l0,0l0,0v0h0v0l0,0l0,0v0h0c0,0,0,0,0-0.1"/>
				<path id="XMLID_7514_" class="st6" d="M589.2,112.2L589.2,112.2C589.2,112.3,589.2,112.3,589.2,112.2l0,0.1l0,0v0l0,0v0l0,0l0,0
					c0,0,0,0.1,0,0.1c0,0.2-0.2,0.6-0.3,0.7v0l0,0v0l0,0l0,0l0,0v0.1c-0.1,0.2-0.3,0.4-0.5,0.6c-0.4,0.3-0.8,0.7-1.2,1
					c-0.2,0.1-0.3,0.1-0.5,0.2c-0.1,0-0.3,0.2-0.5,0.2l0,0l0,0l0,0l0,0c-0.2,0.1-0.4,0.1-0.5,0.1l0,0c-1.6,0.2-3.1,0.2-4.6-0.3
					c-0.6-0.3-1.2-0.6-1.6-1.1v0c-0.1-0.1-0.1-0.1-0.2-0.2c-0.1-0.2-0.3-0.3-0.4-0.5v-0.1c0,0,0-0.1-0.1-0.1v0l0,0v0l0,0
					c0-0.1,0-0.1-0.1-0.2c-0.1-0.1-0.2-0.4-0.2-0.5l0,0l0,0c0,0,0-0.1,0-0.1v0l0,0v0l0,0v0h0c0,0,0-0.1,0-0.1"/>
				<path id="XMLID_7513_" class="st6" d="M578.7,98L578.7,98C578.7,98,578.7,98,578.7,98L578.7,98L578.7,98L578.7,98L578.7,98
					L578.7,98L578.7,98L578.7,98L578.7,98C578.8,98,578.8,98,578.7,98L578.7,98c0.5,0.9,1,2,1.2,2.9c0.2,1-0.3,2-0.6,2.9"/>
				<path id="XMLID_7512_" class="st6" d="M579.4,103.8L579.4,103.8L579.4,103.8L579.4,103.8L579.4,103.8L579.4,103.8L579.4,103.8
					C579.4,103.8,579.4,103.8,579.4,103.8L579.4,103.8L579.4,103.8L579.4,103.8L579.4,103.8L579.4,103.8L579.4,103.8l0.1,0.1l0,0
					l0,0c0.1,0,0.2,0.1,0.2,0.2h0c0,0,0,0,0.1,0.1h0c0.1,0.1,0.1,0.1,0.2,0.1c0,0,0.1,0,0.1,0.1h0l0,0h0l0,0l0,0l0,0h0l0,0h0l0,0h0
					c0,0,0.1,0,0.1,0.1"/>
				<path id="XMLID_7511_" class="st6" d="M580.5,104.5c-0.1-1,0.2-2.1,0.2-2.9c0,0,0,0,0.1-0.1c0-0.1,0.1-0.2,0.2-0.2c0,0,0,0,0,0
					c0,0,0.1,0,0.1-0.1l0,0c0.1,0,0.3-0.1,0.5-0.1c0.3,0,0.6,0,0.9,0c0.2,0,0.4,0,0.5,0.1c0.3,0,0.7,0.2,1,0.3c0.1,0,0.1,0,0.2,0.1
					c0,0,0.1,0,0.1,0.1c0.1,0,0.1,0,0.1,0.1c0,0,0,0,0,0c0.1,0,0.1,0.1,0.2,0.2c0.1,0,0.1,0.1,0.2,0.2c0,0.1,0.1,0.1,0.1,0.2
					c0.2,0.9,0,1.9-0.1,2.8"/>
				<path id="XMLID_60_" class="st6" d="M585.7,102.5c0-0.4,0.1-0.6,0.2-1c0,0,0.1-0.1,0.1-0.1c0,0,0-0.1,0.1-0.1c0,0,0,0,0-0.1
					c0-0.1,0.1-0.2,0.2-0.2c0,0,0,0,0,0c0,0,0,0,0,0c0,0,0.1-0.1,0.1-0.1c0,0,0,0,0.1-0.1c0-0.1,0.1-0.1,0.1-0.1
					c0.1-0.2,0.4-0.4,0.6-0.6c0.2-0.1,0.3-0.2,0.5-0.4c0,0,0.1,0,0.1-0.1c0,0,0,0,0.1,0c0,0,0,0,0,0c0,0,0.1,0,0.1-0.1
					c0,0,0,0,0.1,0c0,0,0,0,0,0c0,0,0,0,0,0l0,0c0,0,0,0,0.1,0c0.1,0,0,0,0.1,0c0,0,0,0,0,0c0,0,0,0,0,0c0,0,0,0,0.1,0l0,0
					c0,0,0,0,0,0c0,0,0,0,0,0l0,0l0,0c0,0,0,0,0,0c0,0,0,0,0,0l0,0"/>
				<path id="XMLID_7510_" class="st6" d="M586.2,104.8L586.2,104.8c0,0,0-0.1,0-0.1l0,0c0,0,0-0.1,0-0.1l0,0c0,0,0-0.1,0-0.1l0,0
					c0,0,0-0.1,0-0.1l0,0c-0.1-0.3-0.2-0.6-0.2-0.9l0,0c-0.1-0.3-0.1-0.6-0.2-0.9"/>
				<path id="XMLID_7509_" class="st6" d="M588.2,121.3c0,0.2,0,0.3,0,0.5c0,0,0,0.1,0,0.1c0,0,0,0.1,0,0.1c-0.1,0.4-0.3,0.7-0.5,1
					c0,0,0,0,0,0c0,0,0,0,0,0c0,0,0,0,0,0.1c-0.1,0.1-0.1,0.1-0.2,0.2c-0.3,0.3-0.7,0.6-1,0.8c-0.1,0-0.1,0.1-0.2,0.1
					c-1.6,1-3.8,0.6-5.3-0.1c-0.3-0.2-0.7-0.5-1-0.7c0,0,0,0,0,0c0,0,0,0-0.1-0.1c0,0-0.1-0.1-0.1-0.1c0,0,0,0,0,0
					c0,0,0-0.1-0.1-0.1c-0.2-0.3-0.4-0.6-0.5-0.9c0,0,0,0,0-0.1c0-0.2-0.1-0.5-0.1-0.8"/>
				<path id="XMLID_7508_" class="st6" d="M579.6,114.5L579.6,114.5L579.6,114.5L579.6,114.5L579.6,114.5L579.6,114.5L579.6,114.5
					L579.6,114.5L579.6,114.5L579.6,114.5L579.6,114.5L579.6,114.5L579.6,114.5L579.6,114.5l0,0.1l0,0v0l0,0c0,0,0,0.1,0,0.1l0,0
					l0,0c0,0,0,0.1,0,0.1l0,0c0,0,0,0.1,0,0.1l0,0c0,0.1,0,0.2,0,0.3l0,0c0,0.1,0,0.1,0,0.2l0,0v0.1l0,0c0,0,0,0.1,0,0.1l0,0
					c0,0,0,0.1,0,0.1l0,0c0,0,0,0.1,0,0.1l0,0c0,0,0,0.1,0,0.1l0,0c0,0,0,0.1,0,0.1l0,0c0,0,0,0.1,0,0.1l0,0v0.1l0,0v0h0
					c0,0,0,0,0,0.1l0,0l0,0l0,0l0,0v0l0,0v0h0c0,0,0,0,0,0.1h0l0,0c0,0,0,0,0,0.1h0l0,0v0h0v0l0,0l0,0l0,0l0,0v0h0v0l0,0l0,0l0,0
					c0,0,0,0,0,0v0l0,0c0,0,0,0,0,0v0c0,0,0,0,0,0l0,0v0h0l0,0v0c0,0,0,0,0,0v0h0l0,0c0,0,0,0,0,0v0c0,0,0,0,0,0l0,0l0,0v0h0
					c0,0,0,0,0,0l0,0l0,0c0,0,0,0,0,0s0,0,0,0l0,0v0h0l0,0c0,0,0,0,0,0c0,0,0,0,0,0v0h0"/>
				<path id="XMLID_7507_" class="st6" d="M578.8,117.3L578.8,117.3c0.1,0,0.2-0.1,0.3-0.1l0,0c0.1,0,0,0,0.1,0c0,0,0,0,0.1,0
					c0,0,0-0.1,0.1-0.1c0,0,0,0,0,0l0,0l0,0c0,0,0,0,0,0l0,0c0,0,0,0,0,0l0,0c0,0,0-0.1,0.1-0.1c0,0,0,0,0,0l0,0
					c0,0,0.1-0.1,0.1-0.2c0,0,0,0,0-0.1l0,0c0,0,0-0.1,0-0.1c0.1-0.2,0.1-0.3,0.1-0.5c0-0.1,0.1-0.3,0.1-0.5c0.1-0.3,0-0.7,0-1"/>
				<path id="XMLID_7506_" class="st6" d="M580.6,115.1c0,0.8-0.1,1.8,0,2.6c0,0.1,0.1,0.3,0.1,0.4c0,0.1,0.1,0.2,0.1,0.3
					c0,0,0,0,0,0l0,0c0,0,0,0,0,0c0,0,0,0,0,0c0,0,0.1,0.1,0.1,0.1c0,0.1,0,0.1,0.1,0.1c0,0,0,0,0,0.1c0,0,0.1,0.1,0.1,0.1
					c0,0,0,0,0,0c0,0,0,0,0,0c0,0,0,0,0,0c0,0,0,0.1,0.1,0.1c0,0,0,0.1,0.1,0.1c0,0,0,0,0,0c0,0,0,0,0,0c0,0,0.1,0.1,0.1,0.1
					c0,0,0.1,0,0.1,0.1c0.1,0,0.1,0.1,0.2,0.1c0,0,0.1,0,0.1,0.1c0,0,0,0,0.1,0c0,0,0.1,0,0.1,0c0,0,0,0,0.1,0c0.1,0,0.2,0,0.2,0.1
					c0,0,0.1,0,0.1,0c0.5,0,1.1,0,1.4-0.3c0,0,0,0,0.1,0c0,0,0,0,0,0c0,0,0.1-0.1,0.1-0.1c0,0,0.1-0.1,0.1-0.1c0,0,0,0,0.1-0.1
					c0.1-0.1,0.1-0.1,0.2-0.2c0,0,0,0,0-0.1c0,0,0-0.1,0.1-0.1c0,0,0,0,0-0.1c0,0,0.1-0.1,0.1-0.1c0,0,0-0.1,0.1-0.1
					c0-0.1,0.1-0.2,0.1-0.2c0,0,0-0.1,0.1-0.1"/>
				<path id="XMLID_7505_" class="st6" d="M579.4,103.8c0.3-0.7,0.7-1.7,0.7-2.4c0-1.1-0.7-2.4-1.3-3.4"/>
				<path id="XMLID_7504_" class="st6" d="M579.4,113.7L579.4,113.7L579.4,113.7L579.4,113.7L579.4,113.7L579.4,113.7
					C579.5,113.8,579.5,113.8,579.4,113.7L579.4,113.7c0.1,0.1,0.1,0.1,0.1,0.1l0,0l0,0h0v0h0l0,0l0,0c0.1,0,0.1,0.1,0.2,0.1h0
					c0,0,0,0,0.1,0.1h0c0.1,0.1,0.2,0.1,0.3,0.2l0,0l0,0c0,0,0,0,0,0l0,0l0,0c0,0,0,0,0,0l0,0l0,0c0,0,0,0,0,0l0,0h0l0,0"/>
				<path id="XMLID_7503_" class="st6" d="M580.8,113C580.8,113,580.7,113,580.8,113L580.8,113l-0.1,0c0,0,0,0,0,0s0,0,0,0
					c0,0,0,0,0,0l0,0l0,0c0,0,0,0,0,0s0,0,0,0s0,0,0,0l0,0v0h0l0,0l0,0c0,0,0,0,0,0l0,0c0,0,0,0,0,0v0h0l0,0l0,0l0,0c0,0,0,0,0,0v0
					l0,0l0,0c0,0,0,0,0,0l0,0l0,0v0c0,0,0,0,0,0l0,0"/>
				<path id="XMLID_7502_" class="st6" d="M580.7,101.8c0.1-0.2,0.1-0.3,0.3-0.5c0.1,0,0.9-0.3,1.1-0.3c0.6,0,1.3,0.1,1.9,0.4
					c1.5,0.7,1,2.3,0.9,3.7l0,0l0,0l0,0c0,0,0,0,0,0l0,0l0,0l0,0l0,0l0,0l0,0l0,0"/>
				<path id="XMLID_7501_" class="st6" d="M584.5,131c-0.2,0-0.3,0.1-0.5,0.1c-0.2,0-0.5,0-0.8,0c0,0-0.1,0-0.1,0
					c-0.1,0-0.2,0-0.3-0.1c-0.1,0-0.1,0-0.2-0.1c-0.1,0-0.1-0.1-0.2-0.1c-0.1,0-0.1-0.1-0.2-0.1"/>
				<path id="XMLID_7499_" class="st6" d="M583.1,160.3L583.1,160.3L583.1,160.3l0.9,0.1"/>
				<path id="XMLID_7498_" class="st6" d="M584,160.5l0,1.8"/>
				<path id="XMLID_7497_" class="st6" d="M583.5,113.4c0.4,0.1,0.7,0.3,1,0.5c0,0,0.1,0.1,0.1,0.1l0,0c0,0,0,0,0,0l0,0c0,0,0,0,0,0
					c0.1,0.3,0.2,0.6,0.2,1"/>
				<path id="XMLID_7496_" class="st6" d="M584.8,115c0.1,0,0.3-0.1,0.4-0.1l0,0c0.3,0,0.7-0.2,1-0.3"/>
				<path id="XMLID_7495_" class="st6" d="M586.2,114.7c0-0.1,0-0.1,0.1-0.1c0,0,0-0.1,0-0.1c0.5-1,1.4-1.5,2.3-2.4"/>
				<path id="XMLID_7494_" class="st6" d="M584.8,115c0-0.3-0.1-0.8-0.3-1c0,0,0,0,0,0l0,0c-0.3-0.2-0.6-0.4-0.9-0.5"/>
				<path id="XMLID_7493_" class="st6" d="M584.7,106.3L584.7,106.3C584.8,106.3,584.8,106.3,584.7,106.3
					C584.8,106.3,584.8,106.3,584.7,106.3C584.8,106.3,584.8,106.3,584.7,106.3c0.1,0,0.1,0,0.1,0l0,0c0,0,0,0,0,0h0v0
					c0,0,0,0,0.1,0c0.1,0,0.3,0,0.4-0.1l0,0c0.1,0,0.2,0,0.3-0.1c0.1,0,0.1-0.1,0.2-0.1l0,0c0.1,0,0.1,0,0.1,0l0,0h0.1l0,0
					c0.1,0,0.2,0,0.3-0.1"/>
				<path id="XMLID_31_" class="st6" d="M590.4,106.2c-0.1-0.4-0.3-0.8-0.4-1.2c-0.2-0.5-0.3-1-0.5-1.5"/>
				<path id="XMLID_23_" class="st6" d="M587.4,108.4c-0.1,0.3,0.5,0.8,0.6,0.9c0.3,0.2,0.8,0.4,1.2,0.1c0.1,0,0.2-0.1,0.3-0.1
					c0.1,0,0.6-0.5,0.5-0.6c0.4-0.5,0.7-1.6,0.3-2.5"/>
				<path id="XMLID_7492_" class="st6" d="M586.5,105.9L586.5,105.9c0.1,0.3,0.2,0.6,0.3,1c0.1,0.3,0.2,0.6,0.3,1
					c0,0.2,0.1,0.4,0.2,0.6"/>
				<path id="XMLID_7491_" class="st6" d="M584.9,115.8L584.9,115.8c0,0.2,0,0.4,0,0.5l0,0c0,0.3,0,0.6,0,1l0,0c0,0.1,0,0.2,0,0.3
					l0,0v0l0,0c0,0.1,0,0.2,0,0.2l0,0l0,0c0,0,0,0.1,0,0.1h0v0l0,0c0,0,0,0,0,0.1l0,0v0l0,0c0,0,0,0.1,0,0.1"/>
				<path id="XMLID_7490_" class="st6" d="M584.8,118.1L584.8,118.1C584.8,118.1,584.8,118,584.8,118.1L584.8,118.1L584.8,118.1
					L584.8,118.1V118l0,0v0l0,0v0l0,0c0,0,0,0,0-0.1h0v0l0,0c0-0.2,0-0.3,0-0.5l0,0v-0.1l0,0c0-0.3,0-0.6,0-1l0,0c0-0.2,0-0.4,0-0.6
					"/>
				<path id="XMLID_7489_" class="st6" d="M586,115.5c-0.1,0.9,0,1.9,0.3,2.5c0.1,0.1,0.1,0.1,0.1,0.2c0,0,0.1,0,0.1,0.1
					c0,0,0,0,0,0c0,0,0.1,0.1,0.1,0.1c0,0,0,0,0,0l0,0c0.1,0,0,0,0.1,0c0.1,0,0.2,0.1,0.3,0.1c0,0,0,0,0.1,0c0,0,0,0,0,0
					c0,0,0,0,0,0l0,0c0,0,0,0,0.1,0c0,0,0,0,0,0l0,0c0,0,0,0,0,0l0,0c0,0,0,0,0,0l0,0c0.1,0,0.3,0,0.4,0c0.1,0,0.1,0,0.1,0l0,0
					c0,0,0.1,0,0.1,0c0,0,0,0,0.1,0c0.1,0,0.1,0,0.1-0.1c0,0,0.1,0,0.1-0.1c0,0,0,0,0,0c0.8-0.6,1.1-1.7,0.9-3c0,0,0,0,0-0.1l0,0
					c0,0,0,0,0,0c0,0,0,0,0,0"/>
				<path id="XMLID_7488_" class="st6" d="M584.8,105.1L584.8,105.1C584.9,105.1,584.9,105.1,584.8,105.1l0.1,0c0,0,0,0,0.1,0
					c0,0,0,0,0,0c0,0,0,0,0.1,0l0,0c0,0,0.1,0,0.1,0c0.1,0,0.2-0.1,0.4-0.1l0,0h0.1l0,0c0.1,0,0.2,0,0.3-0.1l0,0l0,0l0,0
					c0,0,0,0,0,0s0,0,0,0l0,0l0,0l0,0c0,0,0,0,0,0s0,0,0,0l0,0"/>
				<path id="XMLID_35_" class="st6" d="M585.8,102C585.8,102,585.8,101.9,585.8,102c0.1-0.1,0.1-0.2,0.1-0.2c0-0.1,0.1-0.2,0.1-0.2
					c0,0,0,0,0-0.1c0,0,0,0,0-0.1c0,0,0,0,0.1-0.1c0,0,0-0.1,0.1-0.1c0,0,0,0,0,0c0,0,0,0,0.1-0.1c0-0.1,0.1-0.1,0.1-0.1
					c0,0,0,0,0,0c0,0,0,0,0,0c0-0.1,0.1-0.1,0.1-0.2c0.1-0.1,0.1-0.1,0.2-0.2c0.2-0.1,0.3-0.3,0.5-0.5c0.2-0.1,0.3-0.2,0.5-0.4l0,0
					c0,0,0,0,0,0c0,0,0,0,0,0c0,0,0,0,0.1,0l0,0c0,0,0,0,0,0c0,0,0,0,0.1,0l0,0c0,0,0,0,0,0c0,0,0,0,0,0c0,0,0,0,0,0l0,0l0,0
					c0,0,0,0,0.1-0.1l0,0c0,0,0.1,0,0.1,0l0,0c0,0,0,0,0,0c0.1,0,0,0,0.1,0c0,0,0,0,0,0s0,0,0,0l0,0c0,0,0,0,0.1,0"/>
				<path id="XMLID_7487_" class="st6" d="M586.2,104.8c-0.2-0.9-0.5-1.9-0.5-2.8"/>
				<path id="XMLID_7486_" class="st6" d="M586.8,118.4C586.8,118.4,586.8,118.4,586.8,118.4L586.8,118.4L586.8,118.4L586.8,118.4
					C586.7,118.3,586.7,118.3,586.8,118.4L586.8,118.4L586.8,118.4c-0.1-0.1-0.1-0.1-0.2-0.1l0,0c0,0,0,0,0,0c0,0,0,0,0,0
					c0,0,0-0.1-0.1-0.1c0,0,0,0,0,0c0,0,0,0,0,0c0,0,0,0-0.1-0.1c0-0.1-0.1-0.1-0.1-0.1c0-0.1-0.1-0.2-0.1-0.3
					c-0.2-0.7-0.1-1.4-0.1-2.2"/>
				<path id="XMLID_7485_" class="st6" d="M588.5,112.1c-0.9,0.6-1.7,1.4-2.2,2.2c0,0,0,0,0,0c0,0,0,0.1-0.1,0.1
					c0,0.1-0.1,0.2-0.1,0.3"/>
				<path id="XMLID_7484_" class="st6" d="M586.5,105.9L586.5,105.9c0.1,0.3,0.2,0.6,0.3,0.9c0.1,0.3,0.2,0.7,0.3,1
					c0.1,0.1,0.2,0.4,0.2,0.5l0,0c0,0,0,0,0,0.1l0,0c0,0,0,0,0,0l0,0v0l0,0l0,0c0,0,0,0,0,0v0l0,0c0,0,0,0,0,0l0,0l0,0v0l0,0l0,0
					l0,0l0,0l0,0l0,0v0l0,0l0,0c0,0,0,0,0,0l0,0l0,0v0.1c0,0,0.1,0,0.1,0.1v0h0v0l0,0c0,0,0,0.1,0.1,0.1v0.1l0,0c0,0,0,0,0.1,0v0h0
					v0h0v0l0,0h0v0h0v0h0v0l0,0c0,0,0,0,0.1,0v0h0v0c0,0,0,0,0.1,0v0l0,0h0v0c0,0,0,0,0.1,0"/>
				<path id="XMLID_7483_" class="st6" d="M588.5,99.5C588.5,99.5,588.5,99.5,588.5,99.5C588.5,99.5,588.5,99.5,588.5,99.5
					L588.5,99.5c0.1,0.1,0.1,0.1,0.1,0.2l0,0c0,0,0,0,0,0.1c0,0,0,0.1,0,0.1c0.1,0.2,0,0.5,0.1,0.7c0,0.3,0.1,0.6,0.2,0.9
					c0.1,0.3,0.1,0.6,0.2,0.9"/>
				<path id="XMLID_7482_" class="st6" d="M589.5,101.3c0,0,0-0.1-0.1-0.1c0-0.1,0-0.1-0.1-0.1c0,0,0-0.1-0.1-0.1
					c-0.2-0.5-0.3-1.1-0.5-1.6c-0.1-0.6-0.1-1.3-0.2-1.9c0-0.1,0-0.1,0-0.2"/>
				<path id="XMLID_7481_" class="st6" d="M589.4,101.3c0-0.1-0.1-0.1-0.1-0.2c-0.2-0.5-0.5-1.1-0.5-1.6c0-0.1-0.1-0.2-0.1-0.4
					c0-0.6-0.1-1.3-0.1-1.8"/>
				<path id="XMLID_7480_" class="st6" d="M589.1,112.5C589.1,112.5,589.1,112.5,589.1,112.5L589.1,112.5
					C589.1,112.5,589.1,112.6,589.1,112.5L589.1,112.5L589.1,112.5c0,0.1,0,0.1,0,0.1c0,0,0,0,0,0c-0.2,0.6-0.2,1.1-0.2,1.7
					c0,0.3,0.1,0.8,0.2,1"/>
				<path id="XMLID_7479_" class="st6" d="M589.1,112.7L589.1,112.7c0,0.1,0,0.1,0,0.2l0,0c0,0,0,0.1,0,0.1l0,0c0,0,0,0.1,0,0.1l0,0
					c0,0.1,0,0.2,0,0.2l0,0l0,0c0,0.1,0,0.1,0,0.2l0,0l0,0c0,0,0,0,0,0.1l0,0c0,0,0,0,0,0.1l0,0l0,0l0,0c0,0,0,0,0,0.1l0,0
					c0,0,0,0,0,0.1l0,0l0,0c0,0,0,0,0,0.1l0,0v0l0,0l0,0l0,0v0l0,0l0,0v0l0,0l0,0v0l0,0l0,0v0l0,0l0,0v0l0,0l0,0v0l0,0l0,0l0,0l0,0
					v0l0,0v0l0,0l0,0l0,0l0,0l0,0l0,0l0,0v0l0,0l0,0h0v0l0,0l0,0v0h0v0l0,0l0,0l0,0c0,0,0,0,0,0v0l0,0l0,0l0,0c0,0,0,0,0,0l0,0v0
					l0,0l0,0h0"/>
				<path id="XMLID_7478_" class="st6" d="M589.7,114.6L589.7,114.6L589.7,114.6L589.7,114.6L589.7,114.6L589.7,114.6L589.7,114.6
					C589.7,114.6,589.6,114.6,589.7,114.6L589.7,114.6L589.7,114.6L589.7,114.6L589.7,114.6C589.6,114.5,589.6,114.5,589.7,114.6
					L589.7,114.6L589.7,114.6C589.6,114.6,589.6,114.5,589.7,114.6L589.7,114.6c-0.1-0.1-0.1-0.1-0.1-0.1c0,0,0,0,0,0l0,0
					c0,0,0,0,0,0l0,0c0,0,0-0.1-0.1-0.1c0,0,0,0,0-0.1c0,0,0-0.1-0.1-0.1c0,0,0,0,0-0.1c0-0.1-0.1-0.1-0.1-0.2
					c-0.1-0.5-0.2-1.1-0.1-1.7"/>
				<path id="XMLID_7477_" class="st6" d="M589.1,102.3L589.1,102.3L589.1,102.3L589.1,102.3L589.1,102.3L589.1,102.3
					C589.2,102.2,589.2,102.2,589.1,102.3L589.1,102.3L589.1,102.3L589.1,102.3L589.1,102.3L589.1,102.3L589.1,102.3L589.1,102.3
					L589.1,102.3C589.2,102.2,589.2,102.2,589.1,102.3c0.1-0.2,0.1-0.2,0.1-0.3l0,0c0,0,0,0,0-0.1l0,0c0,0,0-0.1,0-0.1l0,0
					c0-0.1,0-0.1,0.1-0.2l0,0l0,0c0,0,0,0,0-0.1l0,0c0,0,0,0,0-0.1c0,0,0,0,0,0v0l0,0c0,0,0,0,0-0.1l0,0c0,0,0,0,0-0.1"/>
				<path id="XMLID_7476_" class="st6" d="M589.5,103.5L589.5,103.5c0-0.1,0.1-0.2,0.1-0.2c0,0,0,0,0-0.1l0,0v-0.1l0,0
					c0-0.1,0-0.2,0.1-0.2l0,0c0-0.1,0-0.2,0.1-0.4l0,0c0,0,0-0.1,0-0.1l0,0v-0.1l0,0v0l0,0v0l0,0l0,0v0l0,0l0,0l0,0v0l0,0l0,0v0l0,0
					v0"/>
				<path id="XMLID_7475_" class="st6" d="M589.8,102.1L589.8,102.1c0,0.1,0.3,0.6,0.4,0.7c0,0.1,0.4,0.6,0.4,0.7
					c0,0,0.1,0.1,0.1,0.1c0.1,0.1,0.1,0.2,0.2,0.3c0,0,0.1,0,0.1,0.1l0,0c0,0,0,0,0,0l0,0l0,0c0,0,0,0,0,0c0,0,0,0,0,0l0,0
					c0,0,0,0,0,0l0,0c0,0,0,0,0,0c0,0,0.1,0.1,0.1,0.1c0.1,0,0,0,0.1,0l0,0l0,0c0,0,0,0,0,0l0,0c0,0,0,0,0,0l0,0c0,0,0,0,0,0l0,0
					l0,0c0,0,0,0,0,0l0,0l0,0l0,0h0"/>
				<path id="XMLID_7474_" class="st6" d="M591.3,104.2L591.3,104.2C591.3,104.2,591.3,104.2,591.3,104.2L591.3,104.2L591.3,104.2
					C591.3,104.2,591.3,104.2,591.3,104.2C591.3,104.2,591.3,104.2,591.3,104.2L591.3,104.2c-0.1,0-0.1,0-0.1-0.1l0,0l0,0l0,0
					c0,0,0,0,0,0l0,0l0,0l0,0c0,0,0,0,0,0l0,0l0,0c-0.1-0.1-0.1-0.1-0.2-0.2l0,0c0,0,0,0,0,0l0,0c0,0,0,0,0,0l0,0l0,0c0,0,0,0,0,0
					l0,0c0,0,0,0,0,0c0-0.1-0.1-0.1-0.1-0.2c-0.3-0.4-0.7-0.9-0.9-1.5"/>
				<path id="XMLID_7473_" class="st6" d="M576.2,108.9l-0.1-0.3"/>
				<path id="XMLID_7472_" class="st6" d="M584.5,109.4l0-0.2L584.5,109.4L584.5,109.4"/>
				<path id="XMLID_7471_" class="st6" d="M576.9,102.1L576.9,102.1L576.9,102.1L576.9,102.1"/>
				<path id="XMLID_7470_" class="st6" d="M577.2,125.2l0-0.5"/>
				<path id="XMLID_7469_" class="st6" d="M580.3,113.2L580.3,113.2"/>
				<path id="XMLID_7468_" class="st6" d="M580.5,114.4c-0.4-0.2-0.8-0.4-1.1-0.7h0.1"/>
				<path id="XMLID_7467_" class="st6" d="M577,107.8L577,107.8"/>
				<path id="XMLID_7466_" class="st6" d="M577.3,101.4L577.3,101.4"/>
				<path id="XMLID_7465_" class="st6" d="M578.1,113.6l0-0.1"/>
				<path id="XMLID_7464_" class="st6" d="M578.8,117.3L578.8,117.3"/>
				<path id="XMLID_7463_" class="st6" d="M578.1,113.5l0.1-0.4"/>
				<path id="XMLID_7462_" class="st6" d="M578.3,112.3L578.3,112.3l-0.1-0.3"/>
				<path id="XMLID_7461_" class="st6" d="M577.9,100.4c-0.1,0.2-0.2,0.4-0.4,0.7"/>
				<path id="XMLID_7460_" class="st6" d="M578.1,100.4l-0.1,0.3"/>
				<path id="XMLID_7459_" class="st6" d="M578.3,99.6L578.3,99.6c-0.1,0.3-0.2,0.5-0.2,0.8c0.1-0.4,0.3-0.9,0.4-1.3"/>
				<path id="XMLID_7458_" class="st6" d="M578.5,122.6l-0.1,0.1L578.5,122.6"/>
				<path id="XMLID_7457_" class="st6" d="M578.2,112.8L578.2,112.8L578.2,112.8"/>
				<path id="XMLID_7456_" class="st6" d="M578.2,112.9l0,0.1"/>
				<path id="XMLID_7455_" class="st6" d="M578.2,112l0.2,0.2l0-0.1"/>
				<path id="XMLID_7454_" class="st6" d="M578.2,112.1l0.1,0.2"/>
				<path id="XMLID_7453_" class="st6" d="M578.3,112.4L578.3,112.4"/>
				<path id="XMLID_7452_" class="st6" d="M578.3,112.7l0-0.2"/>
				<path id="XMLID_7451_" class="st6" d="M578.3,99.7l0.1-0.3"/>
				<path id="XMLID_7450_" class="st6" d="M584.8,105.1c0.4,0,1.1-0.1,1.4-0.4"/>
				<path id="XMLID_7449_" class="st6" d="M588.3,99.4l0.1,0.1"/>
				<path id="XMLID_7448_" class="st6" d="M578.8,98L578.8,98L578.8,98L578.8,98"/>
				<path id="XMLID_7447_" class="st6" d="M578.7,98L578.7,98"/>
				<path id="XMLID_7446_" class="st6" d="M579.3,129.7v-0.5"/>
				<path id="XMLID_7445_" class="st6" d="M579.1,121.8l0-0.4"/>
				<path id="XMLID_7444_" class="st6" d="M579,121.9l-0.1,0.2v0"/>
				<path id="XMLID_7443_" class="st6" d="M579.1,121.7L579,122"/>
				<path id="XMLID_7442_" class="st6" d="M578.8,122.2L578.8,122.2l0.1-0.2"/>
				<path id="XMLID_7441_" class="st6" d="M579.1,120.4l0.1,0.2"/>
				<path id="XMLID_7440_" class="st6" d="M579.2,120.7L579.2,120.7"/>
				<path id="XMLID_7439_" class="st6" d="M579,119.9l0.2,0.3"/>
				<path id="XMLID_7438_" class="st6" d="M579.2,120.3l-0.1-0.3"/>
				<path id="XMLID_7437_" class="st6" d="M579.7,114.6L579.7,114.6"/>
				<path id="XMLID_7436_" class="st6" d="M579.7,114.6c0.3,0.2,0.6,0.4,0.9,0.6"/>
				<path id="XMLID_7435_" class="st6" d="M584.8,118.1L584.8,118.1"/>
				<path id="XMLID_7434_" class="st6" d="M579.4,103.8L579.4,103.8"/>
				<path id="XMLID_7433_" class="st6" d="M578.8,97.6l0,0.2"/>
				<path id="XMLID_7432_" class="st6" d="M579.6,130.1L579.6,130.1"/>
				<path id="XMLID_7431_" class="st6" d="M579.4,103.8c0.3,0.3,0.7,0.5,1.1,0.7"/>
				<path id="XMLID_7430_" class="st6" d="M580.5,114.4c0-0.4-0.3-0.7-0.3-1l0,0c0,0,0,0,0,0c0-0.1,0.1-0.2,0.2-0.2
					c0.1-0.1,0.3-0.1,0.5-0.1"/>
				<path id="XMLID_7429_" class="st6" d="M580.7,101.8L580.7,101.8"/>
				<path id="XMLID_7428_" class="st6" d="M582,130.6v-0.1l2.5,0.4v0.1"/>
				<path id="XMLID_7427_" class="st6" d="M582,130.4h-0.1"/>
				<path id="XMLID_7426_" class="st6" d="M582.8,137.6v3.5"/>
				<path id="XMLID_7425_" class="st6" d="M582.8,131L582.8,131l-0.1,5.2"/>
				<path id="XMLID_7424_" class="st6" d="M582.7,130.9l-0.1,0"/>
				<path id="XMLID_7423_" class="st6" d="M583.3,162.2v-1.5l0-0.2l-0.1-0.1l0,0"/>
				<path id="XMLID_7422_" class="st6" d="M584,160.5l0.1-0.1L584,160.5"/>
				<path id="XMLID_7421_" class="st6" d="M583.1,160.3L583.1,160.3"/>
				<path id="XMLID_7420_" class="st6" d="M584.8,115.1L584.8,115.1"/>
				<path id="XMLID_7419_" class="st6" d="M586.2,114.7L586.2,114.7"/>
				<path id="XMLID_7418_" class="st6" d="M584.1,160.4L584.1,160.4L584.1,160.4"/>
				<path id="XMLID_7417_" class="st6" d="M584,160.5L584,160.5L584,160.5"/>
				<path id="XMLID_7416_" class="st6" d="M584.2,160.3l0.3-0.3"/>
				<path id="XMLID_7415_" class="st6" d="M584.6,160L584.6,160"/>
				<path id="XMLID_7414_" class="st6" d="M584.6,137.6l0,3.5"/>
				<path id="XMLID_7413_" class="st6" d="M584.2,136.3v-5.3"/>
				<path id="XMLID_7412_" class="st6" d="M584.5,131c0.1,0,0.2,0,0.3-0.1l-0.3-0.1"/>
				<path id="XMLID_7411_" class="st6" d="M584.5,131l0.3-0.1l0,0"/>
				<path id="XMLID_7410_" class="st6" d="M584.5,109.4L584.5,109.4"/>
				<path id="XMLID_7409_" class="st6" d="M584.8,106.3c-0.1,0.9-0.2,1.9-0.3,2.8L584.8,106.3"/>
				<path id="XMLID_7408_" class="st6" d="M585.2,130.9l-0.4-0.1"/>
				<path id="XMLID_7407_" class="st6" d="M584.9,115.8c0.4-0.1,0.7-0.1,1.1-0.3"/>
				<path id="XMLID_7406_" class="st6" d="M584.8,115.1c0.5-0.1,0.9-0.2,1.4-0.3"/>
				<path id="XMLID_7405_" class="st6" d="M588.3,99.4l0.1,0L588.3,99.4"/>
				<path id="XMLID_7404_" class="st6" d="M586,115.5L586,115.5"/>
				<path id="XMLID_7403_" class="st6" d="M586.7,118.3L586.7,118.3"/>
				<path id="XMLID_7402_" class="st6" d="M588.2,121.1v0.3v-0.1"/>
				<path id="XMLID_7401_" class="st6" d="M588.3,121.5L588.3,121.5v-0.1"/>
				<path id="XMLID_7400_" class="st6" d="M588.2,121.1l0.1-0.4"/>
				<path id="XMLID_7399_" class="st6" d="M588.2,109.4L588.2,109.4"/>
				<path id="XMLID_7398_" class="st6" d="M588.8,122.4c-0.2-0.1-0.3-0.3-0.4-0.5"/>
				<path id="XMLID_7397_" class="st6" d="M588.7,122.2L588.7,122.2"/>
				<path id="XMLID_7396_" class="st6" d="M588.4,122L588.4,122"/>
				<path id="XMLID_7395_" class="st6" d="M588.3,121.7L588.3,121.7"/>
				<path id="XMLID_7394_" class="st6" d="M588.5,122l0.1,0.1L588.5,122"/>
				<path id="XMLID_7393_" class="st6" d="M588.6,122.2L588.6,122.2"/>
				<path id="XMLID_7392_" class="st6" d="M588.4,120l0.1-0.1"/>
				<path id="XMLID_7391_" class="st6" d="M588.3,120.2L588.3,120.2"/>
				<path id="XMLID_7390_" class="st6" d="M588.4,99.4L588.4,99.4"/>
				<path id="XMLID_7389_" class="st6" d="M589.2,102.4c0.1-0.3,0.2-0.7,0.3-1h-0.1"/>
				<path id="XMLID_7388_" class="st6" d="M588.6,97.3l-0.1-0.6"/>
				<path id="XMLID_7387_" class="st6" d="M589.4,123.6L589.4,123.6"/>
				<path id="XMLID_7386_" class="st6" d="M589.1,113.1l0-0.3"/>
				<path id="XMLID_7385_" class="st6" d="M589.5,114.5l0.1,0.1l0.1,0l-0.1,0"/>
				<path id="XMLID_7384_" class="st6" d="M589.2,112.9v-0.2"/>
				<path id="XMLID_7383_" class="st6" d="M589.3,112.9v0.1"/>
				<path id="XMLID_7382_" class="st6" d="M589.1,112.7v-0.1"/>
				<path id="XMLID_7381_" class="st6" d="M589.1,112.2L589.1,112.2l0.1-0.2l-0.2,0.3"/>
				<path id="XMLID_7380_" class="st6" d="M589.2,112.2l-0.1,0.2l0.1-0.3h0"/>
				<path id="XMLID_7379_" class="st6" d="M589.2,112.7L589.2,112.7v-0.2"/>
				<path id="XMLID_7378_" class="st6" d="M589.3,112L589.3,112"/>
				<path id="XMLID_7377_" class="st6" d="M589.3,100.1l-0.2-0.5"/>
				<path id="XMLID_7376_" class="st6" d="M589.7,114.5L589.7,114.5"/>
				<path id="XMLID_7375_" class="st6" d="M589.7,114.2L589.7,114.2"/>
				<path id="XMLID_7374_" class="st6" d="M591.4,104.2L591.4,104.2L591.4,104.2"/>
				<path id="XMLID_7373_" class="st6" d="M589.5,100.5L589.5,100.5"/>
				<path id="XMLID_7372_" class="st6" d="M590.2,126.3l0-0.2"/>
				<path id="XMLID_7371_" class="st6" d="M590.1,111.1l0.3-0.5l0,0"/>
				<path id="XMLID_7370_" class="st6" d="M590.3,110.7L590.3,110.7"/>
				<path id="XMLID_7369_" class="st6" d="M590.4,110.7l-0.1,0.1"/>
				<path id="XMLID_7368_" class="st6" d="M590.4,110.7L590.4,110.7"/>
				<path id="XMLID_7367_" class="st6" d="M591.4,103.9L591.4,103.9"/>
				<path id="XMLID_7366_" class="st6" d="M584.5,131c-0.5,0.2-1.2,0.1-1.7-0.1"/>
				<path id="XMLID_7365_" class="st6" d="M588.5,112.2L588.5,112.2c0.6-0.5,1.2-1,1.8-1.5h0l0,0"/>
				<path id="XMLID_7364_" class="st6" d="M588.5,112.2L588.5,112.2c0.5-0.5,1.1-1,1.7-1.4"/>
				<path id="XMLID_7363_" class="st6" d="M576.9,110.4L576.9,110.4C576.9,110.4,576.9,110.3,576.9,110.4l-0.1-0.1
					c0,0-0.1-0.1-0.1-0.1v-0.1c0,0-0.1-0.1-0.1-0.1c0,0,0,0-0.1-0.1v-0.1c0,0,0,0-0.1-0.1v0c0,0-0.1-0.1-0.1-0.1c0,0,0,0-0.1-0.1
					c0,0,0-0.1,0-0.1l0,0v0l0,0v0l0,0v0l0,0"/>
				<path id="XMLID_7362_" class="st6" d="M577.2,110.8L577.2,110.8c-0.4-0.6-0.7-1.2-1-1.9l0,0v-0.1l0,0c0-0.1,0-0.1,0-0.2"/>
				<path id="XMLID_7361_" class="st6" d="M580.9,113L580.9,113c0.9-0.1,1.8,0.1,2.6,0.4"/>
				<path id="XMLID_7360_" class="st6" d="M580.9,113L580.9,113c0.9-0.1,1.9,0.1,2.8,0.5"/>
				<path id="XMLID_7359_" class="st6" d="M576.1,108.6c-0.5-2.1-0.5-4.7,0.8-6.5"/>
				<path id="XMLID_7358_" class="st6" d="M576.9,102L576.9,102L576.9,102L576.9,102L576.9,102C576.9,102,576.9,102,576.9,102
					L576.9,102L576.9,102C576.9,102,576.9,102,576.9,102C576.9,102,576.9,102,576.9,102L576.9,102c0.9-1.3,1.5-2.5,1.8-4l0,0
					c0,0,0,0,0,0l0,0c0,0,0,0,0,0l0,0c0,0,0,0,0,0l0,0l0,0l0,0"/>
				<path id="XMLID_7357_" class="st6" d="M576.3,109.3c0.2,0.4,0.3,0.8,0.6,1.2c0.3,0.5,0.8,0.9,1.1,1.4c0,0,0.1,0.1,0.1,0.1
					c0,0,0,0,0,0c0,0,0.1,0.1,0.1,0.1"/>
				<path id="XMLID_7356_" class="st6" d="M578.2,112L578.2,112c0,0.1,0,0.1,0,0.2c0,0,0,0.1,0,0.2c0,0.2,0,0.3,0,0.5
					c0,0,0,0.1,0,0.1c0,0,0,0.1,0,0.1c-0.5,1-1,2.7-0.6,3.8c0,0.2,0.1,0.3,0.1,0.5c0.1,0.2,0.1,0.4,0.2,0.6c0,0.1,0.1,0.4,0.2,0.5
					c0,0.2,0.2,0.4,0.3,0.6c0.2,0.3,0.5,0.7,0.6,1l0,0c0,0,0,0,0,0c0,0,0,0,0,0l0,0c0,0,0,0,0,0c0.2,0.6,0.2,1.3,0,1.8l0,0
					c0,0.1,0,0.1-0.1,0.1l0,0c0,0,0,0,0,0l0,0l0,0c0,0,0,0,0,0.1c-0.1,0.1-0.1,0.1-0.2,0.2c0,0,0,0-0.1,0.1
					c-0.1,0.1-0.1,0.1-0.1,0.2c0,0-0.1,0.1-0.1,0.1"/>
				<path id="XMLID_59_" class="st6" d="M579.1,129.6L579.1,129.6c-0.6-1.4-1.3-2.7-1.9-4.1c0,0,0,0,0-0.1l0,0c0,0,0,0,0-0.1
					c0,0,0,0,0-0.1c0,0,0,0,0-0.1c0,0,0-0.1,0-0.1l0,0c0-0.1,0-0.2,0-0.3c0-0.1,0-0.1,0-0.2c0,0,0-0.1,0-0.1v0l0,0v0l0,0v0l0,0v0
					l0,0c0,0,0-0.1,0-0.1l0,0c0,0,0,0,0,0l0,0l0,0v0l0,0l0,0l0,0v0l0,0l0,0h0v0l0,0l0,0v0l0,0l0,0l0,0c0,0,0,0,0,0l0,0l0,0v0l0,0
					l0,0h0v0l0,0l0,0l0,0c0.2-0.3,0.4-0.6,0.6-0.9c0-0.1,0.1-0.1,0.1-0.2c0,0,0-0.1,0.1-0.1c0-0.1,0-0.1,0.1-0.1c0,0,0-0.1,0.1-0.1
					c0,0,0,0,0-0.1h0c0,0,0,0,0-0.1c0,0,0.1-0.1,0.1-0.1"/>
				<path id="XMLID_58_" class="st6" d="M579.8,130.1c-0.2,0-0.3-0.2-0.5-0.3c0,0,0,0-0.1-0.1l0,0c0,0,0,0,0,0c0,0-0.1-0.1-0.1-0.1"
					/>
				<path id="XMLID_7354_" class="st6" d="M581.9,130.4c-0.7-0.1-1.4-0.2-2.1-0.3"/>
				<path id="XMLID_7353_" class="st6" d="M584.6,92.8c-0.8-0.3-2,0-2.7,0.3c-0.7,0.3-1.3,0.8-1.8,1.3c0,0,0,0.1,0,0.1v0h0
					c0,0-0.1,0.1-0.1,0.1c-0.1,0-0.1,0.1-0.1,0.2c-0.1,0.1-0.2,0.3-0.3,0.5h0c0,0.1-0.1,0.2-0.1,0.3c-0.1,0.1-0.1,0.2-0.1,0.3
					c-0.1,0.2-0.1,0.5-0.2,0.7c-0.1,0.2,0,0.3-0.1,0.6c0,0.2-0.1,0.3-0.1,0.5"/>
				<path id="XMLID_39_" class="st6" d="M582.8,159.8l0.3,0.5"/>
				<path id="XMLID_7352_" class="st6" d="M582.8,153.6L582.8,153.6v6.2"/>
				<path id="XMLID_7351_" class="st6" d="M590.2,126.3c0,0.2,0,0.5,0,0.7c0,0,0,0,0,0l0,0c0,0.1,0,0.1,0,0.1c0,0.1-0.2,0.5-0.3,0.5
					"/>
				<path id="XMLID_48_" class="st6" d="M586.1,130.8l-0.4,0.2"/>
				<path id="XMLID_7350_" class="st6" d="M589.9,127.6L589.9,127.6c-1.3,1.1-2.5,2.1-3.8,3.2"/>
				<path id="XMLID_7348_" class="st6" d="M584.6,92.8L584.6,92.8L584.6,92.8L584.6,92.8C584.6,92.8,584.6,92.8,584.6,92.8
					C584.6,92.8,584.6,92.8,584.6,92.8L584.6,92.8L584.6,92.8C584.6,92.8,584.6,92.8,584.6,92.8c0.6,0,1.4,0.4,1.8,0.7
					c1.2,0.8,1.8,1.9,2.2,3.3c0.3,1.2,0.4,2.5,1,3.7c0.6,1.2,1.6,2.3,1.9,3.6l0,0c0,0,0,0,0,0c0,0,0,0,0,0l0,0c0,0,0,0,0,0"/>
				<path id="XMLID_7347_" class="st6" d="M591.4,104.2L591.4,104.2c0,0.1,0.1,0.2,0.1,0.3l0,0c0,0.1,0,0.2,0.1,0.3l0,0
					c0,0.1,0,0.2,0,0.3l0,0c0,0.1,0,0.3,0.1,0.4l0,0c0,0.2,0,0.4,0,0.7l0,0c0,0.1,0,0.3,0,0.4l0,0c0,0.1,0,0.2,0,0.3l0,0
					c-0.1,0.5-0.1,0.9-0.3,1.3l0,0c-0.1,0.4-0.3,0.9-0.5,1.3l0,0c-0.2,0.3-0.4,0.7-0.6,1"/>
				<path id="XMLID_7346_" class="st6" d="M590.4,110.7L590.4,110.7C590.4,110.7,590.4,110.7,590.4,110.7L590.4,110.7
					c-0.1,0.1-0.1,0.1-0.1,0.1v0l0,0v0h0l0,0v0c0,0-0.1,0.1-0.1,0.1l0,0c-0.1,0.1-0.1,0.2-0.2,0.3v0c-0.1,0-0.1,0.1-0.1,0.2l-0.1,0
					l0,0c0,0.1-0.1,0.1-0.2,0.2v0h0c0,0-0.1,0.1-0.1,0.1v0c0,0-0.1,0-0.1,0.1"/>
				<path id="XMLID_7345_" class="st6" d="M589.3,112c0,0.1,0,0,0,0.1c0,0,0,0.1,0,0.1c0,0,0,0.1,0,0.1c0,0.1,0,0,0,0.1
					c0,0,0,0.1,0,0.1c0,0.1,0,0.1,0,0.2c0,0,0,0,0,0.1c0.1,0.3,0.3,0.6,0.4,0.9c0,0,0.1,0.2,0.1,0.2c0,0.1,0.1,0.2,0.1,0.3
					c0,0,0,0,0,0c0,0,0,0,0,0.1c0,0,0,0,0,0.1l0,0l0,0c0,0,0,0,0,0l0,0l0,0c0,0,0,0,0,0l0,0l0,0c0,0,0,0,0,0"/>
				<path id="XMLID_7344_" class="st6" d="M589.7,114.5c0.4,2-0.1,3.9-1.3,5.4c0,0,0,0,0,0c0,0,0,0.1,0,0.1c0,0.1,0,0.1-0.1,0.1
					c-0.1,0.5-0.1,1.2,0.1,1.6c0,0,0,0.1,0.1,0.1"/>
				<path id="XMLID_7343_" class="st6" d="M588.5,122C588.5,122,588.5,122,588.5,122C588.5,122,588.5,122,588.5,122
					C588.5,122,588.5,122,588.5,122L588.5,122c0.1,0.1,0.1,0.1,0.1,0.1c0,0,0,0,0,0c0,0,0,0.1,0.1,0.1c0,0,0,0,0,0
					c0.8,0.9,1.1,2.6,1.6,4c0,0,0,0,0,0c0,0,0,0,0,0.1c0,0,0,0,0,0.1"/>
				<path id="XMLID_7342_" class="st6" d="M576.9,102.1L576.9,102.1"/>
				<path id="XMLID_7341_" class="st6" d="M578.7,98c0,0,0.1-0.1,0.1-0.1L578.7,98"/>
				<path id="XMLID_47_" class="st6" d="M582.2,135c0.1,0.2,0.3,0.6,0.3,0.9l0,0c0,0,0,0,0.1,0.1c0,0,0,0.1,0.1,0.1
					c0,0.1,0.2,0.1,0.3,0.2c0,0,0.1,0,0.1,0c0,0,0.1,0,0.1,0c0,0.1,0.2,0.1,0.2,0.1c0,0,0.1,0,0.1,0c0,0,0.1,0,0.1,0c0,0,0,0,0.1,0
					c0,0,0,0,0.1,0c0.1,0,0.2,0,0.3,0c0,0,0.1,0,0.1,0c0.1,0,0.2,0,0.2-0.1c0,0,0,0,0,0c0,0,0,0,0.1,0c0,0,0.2-0.1,0.2-0.1
					c0,0,0,0,0,0c0,0,0,0,0,0c0,0,0,0,0.1,0l0,0c0,0,0,0,0.1-0.1c0,0,0,0,0,0c0,0,0.2-0.2,0.2-0.2c0,0,0.1-0.1,0.1-0.1
					c0.1-0.1,0.1-0.2,0.2-0.2"/>
				<path id="XMLID_7340_" class="st6" d="M582.8,137.6v-1.5"/>
				<path id="XMLID_7339_" class="st6" d="M582.2,135v-4.4l-0.2-0.1l-0.1-0.1"/>
				<path id="XMLID_7338_" class="st6" d="M577.2,125.3L577.2,125.3"/>
				<path id="XMLID_7337_" class="st6" d="M578.8,97.9v-0.1"/>
				<path id="XMLID_7336_" class="st6" d="M578.8,97.6l0,0.3l0.1-0.5"/>
				<path id="XMLID_7335_" class="st6" d="M584.5,92.7L584.5,92.7"/>
				<path id="XMLID_46_" class="st6" d="M584.6,159.8v-6.1"/>
				<path id="XMLID_7334_" class="st6" d="M583.1,160.3v1.5l0.2,0.5l0.7,0.1l0.4-0.3v-1.5l0.1-0.2l0.1-0.2l0.1-0.1l0-0.1"/>
				<path id="XMLID_7333_" class="st6" d="M582.8,141.1v9.2"/>
				<path id="XMLID_7332_" class="st6" d="M584.6,150.2v-9.1"/>
				<path id="XMLID_7331_" class="st6" d="M585.7,131l-0.3,0l-0.2,0v4.6"/>
				<path id="XMLID_7330_" class="st6" d="M584.6,136.1v1.5"/>
				<path id="XMLID_7329_" class="st6" d="M591.4,104.2L591.4,104.2"/>
				<path id="XMLID_7328_" class="st6" d="M590.4,110.6L590.4,110.6L590.4,110.6"/>
				<path id="XMLID_7327_" class="st6" d="M589.8,114.5L589.8,114.5"/>
				<path id="XMLID_7318_" class="st6" d="M588.8,122.4L588.8,122.4L588.8,122.4"/>
				<path id="XMLID_7317_" class="st6" d="M588.7,122.3L588.7,122.3"/>
				<path id="XMLID_7316_" class="st6" d="M588.6,122.2L588.6,122.2"/>
				<path id="XMLID_7311_" class="st6" d="M576.3,109.3c-0.1-0.2-0.2-0.4-0.2-0.7"/>
			</g>
		</g>
	</g>
</g>
<g id="XMLID_2_">
	<g id="XMLID_541_">
		<path id="XMLID_37_" d="M813.4,3c14,0,25.5,11.4,25.5,25.5v538.3c0,14-11.4,25.5-25.5,25.5H28.5c-14,0-25.5-11.4-25.5-25.5V28.5
			C3,14.4,14.4,3,28.5,3H813.4 M813.4,0H28.5C12.8,0,0,12.8,0,28.5v538.3c0,15.7,12.8,28.5,28.5,28.5h784.9
			c15.7,0,28.5-12.8,28.5-28.5V28.5C841.9,12.8,829.1,0,813.4,0L813.4,0z"/>
	</g>
	<g id="XMLID_540_">
		<path id="XMLID_556_" d="M1.5,83.5V28.5c0-14.9,12.1-27,27-27h55.1v55.1c0,14.9-12.1,27-27,27H1.5z"/>
		<g id="XMLID_552_">
			<path id="XMLID_553_" d="M82,3v53.6C82,70.6,70.6,82,56.6,82H3V28.5C3,14.4,14.4,3,28.5,3H82 M85,0H28.5C12.8,0,0,12.8,0,28.5V85
				h56.6C72.2,85,85,72.2,85,56.6V0L85,0z"/>
		</g>
	</g>
	<g id="XMLID_542_">
		<path id="XMLID_543_" class="st4" d="M32.2,50.7c1-2.3,3.2-4.7,6.8-7.2c3.1-2.2,5.1-3.8,6-4.7c1.4-1.5,2.1-3.1,2.1-4.9
			c0-1.4-0.4-2.6-1.2-3.6s-1.9-1.4-3.4-1.4c-2,0-3.4,0.8-4.1,2.3c-0.4,0.9-0.7,2.3-0.8,4.2H31c0.1-2.9,0.6-5.2,1.6-7
			c1.8-3.4,5-5.1,9.5-5.1c3.6,0,6.5,1,8.6,3c2.1,2,3.2,4.6,3.2,7.9c0,2.5-0.8,4.8-2.3,6.7c-1,1.3-2.6,2.7-4.9,4.3l-2.7,1.9
			c-1.7,1.2-2.8,2-3.4,2.6s-1.1,1.1-1.6,1.9h14.8v5.9H30.7C30.7,55,31.3,52.7,32.2,50.7z"/>
	</g>
</g>
</svg>
