<?xml version="1.0" encoding="utf-8"?>
<!-- Generator: Adobe Illustrator 19.0.0, SVG Export Plug-In . SVG Version: 6.00 Build 0)  -->
<svg version="1.1" id="Layer_1" xmlns="http://www.w3.org/2000/svg" xmlns:xlink="http://www.w3.org/1999/xlink" x="0px" y="0px"
	 width="841.9px" height="595.3px" viewBox="0 0 841.9 595.3" style="enable-background:new 0 0 841.9 595.3;" xml:space="preserve"
	>
<style type="text/css">
	.st0{fill:none;stroke:#0B0620;stroke-width:0.5;stroke-linecap:round;stroke-linejoin:round;}
	.st1{fill:#FFFFFF;}
</style>
<g id="XMLID_1_">
	<g>
		<path id="XMLID_783_" class="st0" d="M189.8,204.6l6.6-3.8"/>
		<path id="XMLID_782_" class="st0" d="M458.5,414.8L214.1,273.7"/>
		<path id="XMLID_781_" class="st0" d="M460.6,413.6L216.2,272.5"/>
		<path id="XMLID_780_" class="st0" d="M458.1,345.1l-244-140.9"/>
		<path id="XMLID_779_" class="st0" d="M479.8,416.9l2.1-1.2"/>
		<path id="XMLID_778_" class="st0" d="M476.2,418.4l7.2-4.2l-0.6,0.3"/>
		<path id="XMLID_777_" class="st0" d="M488.5,395.1c1.1,19.8-11.5,29-28,20.7c-0.7-0.3-1.3-0.7-2-1.1"/>
		<path id="XMLID_776_" class="st0" d="M483,414.9c-5.7,4.1-13.9,3.6-22.5-1.3"/>
		<path id="XMLID_775_" class="st0" d="M214.1,273.7c-16.6-9.6-30.1-32.9-30.1-52.1c0-19.2,13.5-26.9,30.1-17.4l0,0"/>
		<path id="XMLID_774_" class="st0" d="M216.2,272.5c-16.6-9.6-30.1-32.9-30.1-52.1c0-10,3.7-17.3,10.2-20.2"/>
	</g>
	<g>
		<path id="XMLID_773_" class="st0" d="M463.7,374.1l-0.8-2.3l-0.5-2.3l1.1-0.7l0.5,0.1"/>
		<path id="XMLID_772_" class="st0" d="M470.9,381l-0.1,0.5l-1.1,0.7l-1.7-1.6l-1.6-1.9"/>
		<path id="XMLID_771_" class="st0" d="M466.8,377.6L466.8,377.6"/>
		<path id="XMLID_770_" class="st0" d="M466.8,377.6l-0.1,0.6l-0.3,0.5"/>
		<path id="XMLID_769_" class="st0" d="M469.6,382.1c0.1-1.1,1-1.5,2.1-0.8c0.5,0.4,1,0.9,1.3,1.6"/>
		<path id="XMLID_768_" class="st0" d="M463.7,374.1c0.8-0.3,2,0.5,2.6,1.8c0.3,0.6,0.4,1.1,0.4,1.7"/>
		<path id="XMLID_767_" class="st0" d="M463.3,366.1c0.8,1.2,1,2.7,0.3,3.2c-0.3,0.3-0.8,0.3-1.3,0.1"/>
	</g>
	<g>
		<path id="XMLID_766_" class="st0" d="M459.9,370.4L459.9,370.4"/>
		<path id="XMLID_765_" class="st0" d="M473.2,387.4c-6.5-2.6-12.7-11.3-13.7-19.4c-0.2-1.5-0.2-3,0-4.3"/>
		<path id="XMLID_764_" class="st0" d="M471.6,392.4c-7.8-2.5-15.5-12.7-17.2-22.7c-0.4-2.6-0.4-5,0-7.1"/>
	</g>
	<g>
		<path id="XMLID_763_" class="st0" d="M184.1,198.7c6.3-7,6.3-7,12.6-13.9c5.3-5.2,5.2-5.3,10.6-10.5c10.4-8.8,10.5-8.7,20.9-17.4
			c3.2-2.3,3.2-2.3,6.3-4.6"/>
		<path id="XMLID_762_" class="st0" d="M213.8,197.5C336.1,268,336.2,268,458.2,338.7c5.7,4.1,5.7,4.1,11.1,8.5
			c5.1,5.7,5.2,5.8,10.1,11.7c4.1,6.8,4.1,6.9,8,13.8c2.7,7.2,2.7,7.3,5.1,14.5"/>
		<path id="XMLID_761_" class="st0" d="M485.9,423.3c-3.1,1.5-3.1,1.5-6.3,2.9c-0.8,0.2-0.8,0.2-1.5,0.4c-4.3-0.1-4.3-0.1-8.6-0.3
			c-0.4-0.1-0.4-0.1-0.8-0.2c-5.3-2.1-5.3-2.1-10.5-4.3"/>
		<path id="XMLID_760_" class="st0" d="M260.8,167.2c12-8.2,12.1-8.2,24.2-16.4c0.7-0.3,0.7-0.3,1.4-0.6c0.8-0.2,0.8-0.2,1.6-0.3
			c0.4,0,0.4,0,0.8,0c0.8,0.1,0.8,0.1,1.6,0.2c0.7,0.2,0.7,0.2,1.4,0.5c0.1,0.1,0.1,0.1,0.3,0.2c0.4,0.3,0.4,0.3,0.8,0.5"/>
		<path id="XMLID_759_" class="st0" d="M292.1,155c-12.1,8.2-12.1,8.2-24.2,16.4c-0.7,0.4-0.7,0.4-1.4,0.7c-0.8,0.2-0.8,0.2-1.6,0.4
			c-0.4,0.1-0.4,0.1-0.9,0.1c-0.8-0.1-0.8,0-1.6-0.1c-0.7-0.2-0.7-0.2-1.4-0.4c-0.5-0.3-0.5-0.3-1-0.7"/>
		<path id="XMLID_758_" class="st0" d="M378.8,191.1c-43.9-25.4-43.9-25.4-87.9-50.7c-1.8-1-1.8-1-3.6-1.9c-0.4-0.2-0.5-0.2-0.9-0.3
			c-0.5-0.1-0.6-0.1-1.1-0.1c-0.6,0-0.6,0-1.2,0.1c-0.6,0.1-0.6,0.1-1.1,0.3c-0.5,0.2-0.5,0.2-0.9,0.4c-3.7,2.2-3.7,2.3-7.4,4.5
			c-1.6,0.8-1.6,0.8-3.1,1.5c-1.7,0.5-1.8,0.5-3.5,1c-2,0.3-2,0.3-3.9,0.7c-2,0.1-2,0.1-4,0.1c-0.9-0.1-0.9-0.1-1.7-0.1"/>
		<path id="XMLID_757_" class="st0" d="M291.6,152.1c-0.5-0.3-0.5-0.3-1-0.5c-0.6-0.1-0.6-0.1-1.2-0.3c-0.7,0-0.7,0-1.3,0
			c-0.6,0.1-0.6,0.1-1.2,0.3c-0.6,0.2-0.6,0.2-1.1,0.5"/>
		<path id="XMLID_756_" class="st0" d="M273.2,166c0.2-0.2,0.3-0.2,0.5-0.5c0.5-0.3,0.5-0.3,1-0.6c5.5-3.6,5.5-3.6,11-7.2
			c0.5-0.3,0.5-0.3,1-0.5c0.6-0.1,0.6-0.1,1.2-0.3c0.5,0,0.5,0,0.9,0"/>
		<path id="XMLID_755_" class="st0" d="M271.4,177.9c0.5,0.4,0.5,0.4,1,0.7c0.7,0.2,0.7,0.2,1.4,0.4c0.8,0.1,0.8,0.1,1.6,0.1
			c0.4,0,0.4,0,0.9-0.1c0.8-0.2,0.8-0.2,1.6-0.4c0.7-0.4,0.7-0.4,1.4-0.7"/>
		<path id="XMLID_754_" class="st0" d="M304.1,157.8c-0.4-0.3-0.4-0.3-0.7-0.5c-0.1-0.1-0.1-0.1-0.3-0.2c-0.7-0.2-0.7-0.3-1.4-0.5
			c-0.8-0.1-0.8-0.1-1.6-0.2c-0.4,0-0.4,0-0.8,0c-0.8,0.1-0.8,0.1-1.6,0.3c-0.7,0.3-0.7,0.3-1.4,0.6"/>
		<path id="XMLID_753_" class="st0" d="M272.9,175c12-8.2,12-8.2,24.1-16.3c0.5-0.3,0.5-0.3,1.1-0.5c0.6-0.1,0.6-0.1,1.2-0.3
			c0.7,0,0.7,0,1.3,0c0.6,0.1,0.6,0.1,1.2,0.3c0.4,0.2,0.4,0.2,0.7,0.3c0.1,0.1,0.1,0.1,0.3,0.1"/>
		<path id="XMLID_752_" class="st0" d="M283.4,180.3c12-8.2,12-8.2,24.1-16.4c0.7-0.3,0.7-0.3,1.4-0.6c0.8-0.2,0.8-0.2,1.6-0.3
			c0.4,0,0.4,0,0.8-0.1c0.8,0.1,0.8,0.1,1.6,0.2c0.7,0.2,0.7,0.3,1.4,0.5c0.1,0.1,0.1,0.1,0.3,0.2c0.4,0.3,0.4,0.3,0.8,0.5"/>
		<path id="XMLID_751_" class="st0" d="M314.6,168c-12,8.2-12,8.2-24.1,16.4c-0.7,0.4-0.7,0.4-1.4,0.8c-0.8,0.2-0.8,0.2-1.6,0.4
			c-0.4,0.1-0.4,0.1-0.9,0.1c-0.8,0-0.8,0-1.6-0.1c-0.7-0.2-0.7-0.2-1.4-0.4c-0.5-0.3-0.5-0.3-0.9-0.7"/>
		<path id="XMLID_750_" class="st0" d="M284.2,181.5c12-8.2,12-8.2,24.1-16.3c0.5-0.3,0.5-0.3,1.1-0.5c0.6-0.1,0.6-0.1,1.2-0.3
			c0.7,0,0.7,0,1.3,0c0.6,0.1,0.6,0.1,1.2,0.3c0.5,0.2,0.5,0.2,1,0.5"/>
		<path id="XMLID_749_" class="st0" d="M300.2,163.6c-0.5,0-0.5,0-0.9,0c-0.6,0.1-0.6,0.1-1.2,0.3c-0.5,0.2-0.5,0.2-1,0.5
			c-6,3.9-6,3.9-12,7.9c-0.3,0.2-0.3,0.2-0.5,0.4"/>
		<path id="XMLID_748_" class="st0" d="M294.7,186.8c12-8.2,12-8.2,24.1-16.4c0.7-0.3,0.7-0.3,1.4-0.6c0.8-0.2,0.8-0.1,1.6-0.3
			c0.4,0,0.4,0,0.8,0c0.8,0.1,0.8,0.1,1.6,0.2c0.7,0.2,0.7,0.2,1.4,0.5c0.1,0.1,0.1,0.1,0.3,0.2c0.4,0.3,0.4,0.3,0.8,0.5"/>
		<path id="XMLID_747_" class="st0" d="M325.9,174.5c-12,8.2-12,8.2-24.1,16.4c-0.7,0.4-0.7,0.4-1.4,0.7c-0.8,0.3-0.8,0.2-1.6,0.5
			c-0.4,0.1-0.4,0.1-0.9,0.1c-0.8,0-0.8,0-1.6-0.1c-0.7-0.2-0.7-0.2-1.4-0.5c-0.1-0.1-0.1-0.1-0.3-0.2"/>
		<path id="XMLID_746_" class="st0" d="M325.4,171.7c-0.1-0.1-0.1-0.1-0.3-0.1c-0.4-0.2-0.4-0.2-0.7-0.4c-0.6-0.1-0.6-0.1-1.2-0.3
			c-0.7,0-0.7,0-1.3,0c-0.6,0.1-0.6,0.1-1.2,0.3c-0.6,0.2-0.6,0.2-1.1,0.5"/>
		<path id="XMLID_745_" class="st0" d="M311.5,170.1c-0.5,0-0.5,0-0.9,0c-0.6,0.1-0.6,0.1-1.2,0.3c-0.5,0.2-0.5,0.2-1,0.5
			c-6,3.9-6,3.9-12,7.9c-0.2,0.2-0.2,0.2-0.4,0.4"/>
		<path id="XMLID_744_" class="st0" d="M305.9,193.3c12-8.2,12-8.2,24.1-16.4c0.7-0.3,0.7-0.3,1.4-0.6c0.8-0.2,0.8-0.2,1.6-0.3
			c0.4,0,0.4,0,0.8,0c0.8,0.1,0.8,0.1,1.6,0.2c0.7,0.2,0.7,0.2,1.4,0.5c0.1,0.1,0.1,0.1,0.3,0.2c0.4,0.3,0.4,0.3,0.8,0.6"/>
		<path id="XMLID_743_" class="st0" d="M337.2,181.1c-12,8.2-12,8.2-24.1,16.4c-0.7,0.4-0.7,0.4-1.4,0.7c-0.8,0.2-0.8,0.2-1.6,0.5
			c-0.4,0-0.4,0-0.9,0.1c-0.8-0.1-0.8,0-1.6-0.1c-0.7-0.2-0.7-0.2-1.4-0.4c-0.2-0.1-0.2-0.1-0.3-0.2"/>
		<path id="XMLID_742_" class="st0" d="M306.8,194.5c12-8.2,12-8.2,24.1-16.3c0.5-0.3,0.5-0.3,1.1-0.5c0.6-0.1,0.6-0.1,1.2-0.3
			c0.7,0,0.7,0,1.3,0c0.6,0.1,0.6,0.1,1.2,0.3c0.4,0.2,0.4,0.2,0.7,0.4c0.1,0.1,0.1,0.1,0.3,0.1"/>
		<path id="XMLID_741_" class="st0" d="M322.8,176.6c-0.5,0-0.5,0-0.9,0c-0.6,0.1-0.6,0.1-1.2,0.3c-0.5,0.2-0.5,0.2-1,0.5
			c-6,3.9-6,3.9-12,7.9c-0.2,0.2-0.2,0.2-0.4,0.4"/>
		<path id="XMLID_740_" class="st0" d="M348,184.7c-0.5-0.3-0.5-0.3-1-0.5c-0.6-0.1-0.6-0.1-1.2-0.3c-0.7,0-0.7,0-1.3,0
			c-0.5,0.1-0.5,0.1-1,0.2c-0.7,0.3-0.7,0.3-1.3,0.5"/>
		<path id="XMLID_739_" class="st0" d="M317.2,199.8c12-8.2,12-8.2,24.1-16.4c0.7-0.3,0.7-0.3,1.4-0.6c0.8-0.2,0.8-0.2,1.6-0.3
			c0.4,0,0.4,0,0.8,0c0.8,0.1,0.8,0.1,1.6,0.2c0.7,0.2,0.7,0.2,1.4,0.5c0.6,0.4,0.6,0.4,1.1,0.7"/>
		<path id="XMLID_738_" class="st0" d="M348.5,187.6c-12,8.2-12,8.2-24.1,16.4c-0.7,0.4-0.7,0.4-1.4,0.7c-0.8,0.2-0.8,0.2-1.6,0.4
			c-0.4,0.1-0.4,0.1-0.9,0.1c-0.8,0-0.8,0-1.6-0.1c-0.6-0.1-0.6-0.1-1.1-0.3"/>
		<path id="XMLID_737_" class="st0" d="M334.1,183.1c-0.5,0-0.5,0-0.9,0c-0.6,0.1-0.6,0.1-1.2,0.3c-0.5,0.2-0.5,0.2-1,0.5
			c-6,3.9-6,3.9-12,7.9c-0.2,0.2-0.2,0.2-0.4,0.4"/>
		<path id="XMLID_736_" class="st0" d="M328.5,206.3c12-8.2,12-8.2,24.1-16.4c0.7-0.3,0.7-0.3,1.4-0.6c0.8-0.2,0.8-0.2,1.6-0.3
			c0.4,0,0.4,0,0.8-0.1c0.8,0.1,0.8,0.1,1.6,0.2c0.7,0.2,0.7,0.3,1.4,0.5c0.1,0.1,0.1,0.1,0.3,0.2c0.4,0.3,0.4,0.3,0.8,0.5"/>
		<path id="XMLID_735_" class="st0" d="M359.8,194.1c-12,8.2-12,8.2-24.1,16.4c-0.7,0.4-0.7,0.4-1.4,0.8c-0.8,0.2-0.8,0.2-1.6,0.4
			c-0.4,0.1-0.4,0.1-0.9,0.1c-0.8,0-0.8,0-1.6-0.1c-0.7-0.2-0.7-0.2-1.4-0.5c-0.1-0.1-0.1-0.1-0.3-0.2"/>
		<path id="XMLID_734_" class="st0" d="M359.3,191.2c-0.1-0.1-0.1-0.1-0.3-0.1c-0.4-0.2-0.4-0.2-0.7-0.4c-0.6-0.1-0.6-0.1-1.2-0.3
			c-0.7,0-0.7,0-1.3,0c-0.5,0.1-0.5,0.1-1,0.2c-0.7,0.3-0.7,0.3-1.3,0.5"/>
		<path id="XMLID_733_" class="st0" d="M345.3,189.6c-0.5,0-0.5,0-0.9,0c-0.6,0.1-0.6,0.1-1.2,0.3c-0.5,0.2-0.5,0.2-1,0.5
			c-6,3.9-6,3.9-12,7.9c-0.2,0.2-0.2,0.2-0.5,0.4"/>
		<path id="XMLID_732_" class="st0" d="M371.8,196.9c-0.5-0.4-0.5-0.4-1.1-0.7c-0.7-0.3-0.7-0.3-1.4-0.5c-0.8-0.1-0.8-0.1-1.6-0.2
			c-0.4,0-0.4,0-0.8,0c-0.8,0.2-0.8,0.1-1.6,0.3c-0.7,0.3-0.7,0.3-1.4,0.6"/>
		<path id="XMLID_731_" class="st0" d="M339,216.9c0.5,0.4,0.5,0.4,1.1,0.7c0.7,0.3,0.7,0.3,1.4,0.5c0.8,0.1,0.8,0.1,1.6,0.1
			c0.4,0,0.4,0,0.8-0.1c0.8-0.2,0.8-0.2,1.6-0.5c0.6-0.3,0.6-0.3,1.1-0.6"/>
		<path id="XMLID_730_" class="st0" d="M340.6,214c12-8.2,12-8.2,24.1-16.3c0.6-0.3,0.7-0.3,1.3-0.6c0.5-0.1,0.5-0.1,1-0.2
			c0.7,0,0.7,0,1.3,0c0.6,0.1,0.6,0.1,1.2,0.3c0.5,0.2,0.5,0.2,1,0.5"/>
		<path id="XMLID_729_" class="st0" d="M356.6,196.1c-0.5,0-0.5,0-0.9,0c-0.6,0.1-0.6,0.1-1.2,0.3c-0.5,0.2-0.5,0.2-1,0.5
			c-6,3.9-6,3.9-12,7.9c-0.2,0.2-0.2,0.2-0.5,0.4"/>
		<path id="XMLID_728_" class="st0" d="M351.1,219.3c12-8.2,12-8.2,24.1-16.4c0.7-0.3,0.7-0.3,1.4-0.6c0.8-0.2,0.8-0.2,1.6-0.3
			c0.4,0,0.4,0,0.8,0c0.8,0.1,0.8,0.1,1.6,0.2c0.7,0.2,0.7,0.2,1.4,0.5c0.1,0.1,0.1,0.1,0.3,0.2c0.4,0.3,0.4,0.3,0.8,0.5"/>
		<path id="XMLID_727_" class="st0" d="M382.3,207.1c-12.1,8.2-12.1,8.2-24.2,16.4c-0.7,0.4-0.7,0.4-1.4,0.7
			c-0.8,0.2-0.8,0.2-1.6,0.4c-0.4,0.1-0.4,0.1-0.8,0.1c-0.8-0.1-0.8-0.1-1.6-0.1c-0.2,0-0.2,0-0.4-0.1"/>
		<path id="XMLID_726_" class="st0" d="M381.9,204.2c-0.5-0.3-0.5-0.3-1-0.5c-0.6-0.1-0.6-0.1-1.2-0.3c-0.7,0-0.7,0-1.3,0
			c-0.5,0.1-0.5,0.1-1.1,0.2c-0.7,0.3-0.7,0.3-1.3,0.5"/>
		<path id="XMLID_725_" class="st0" d="M367.9,202.7c-0.5,0-0.5,0-0.9,0c-0.6,0.1-0.6,0.1-1.2,0.3c-0.5,0.2-0.5,0.2-1,0.5
			c-6,3.9-6,3.9-12,7.9c-0.2,0.2-0.2,0.2-0.5,0.4"/>
		<path id="XMLID_724_" class="st0" d="M361.6,230c0.5,0.4,0.5,0.4,1.1,0.7c0.7,0.2,0.7,0.2,1.4,0.4c0.8,0.1,0.8,0.1,1.6,0.1
			c0.4,0,0.4,0,0.9-0.1c0.8-0.2,0.8-0.2,1.6-0.4c0.7-0.4,0.7-0.4,1.4-0.7"/>
		<path id="XMLID_723_" class="st0" d="M394.4,209.9c-0.4-0.3-0.4-0.3-0.8-0.5c-0.1-0.1-0.1-0.1-0.3-0.2c-0.7-0.2-0.7-0.3-1.4-0.5
			c-0.8-0.1-0.8-0.1-1.6-0.2c-0.4,0-0.4,0-0.8,0.1c-0.8,0.1-0.8,0.1-1.6,0.3c-0.7,0.3-0.7,0.3-1.4,0.6"/>
		<path id="XMLID_722_" class="st0" d="M393.1,210.8c-0.2-0.1-0.2-0.1-0.4-0.2c-0.3-0.2-0.3-0.2-0.6-0.3c-0.6-0.1-0.6-0.1-1.2-0.3
			c-0.7,0-0.7,0-1.3,0c-0.5,0.1-0.5,0.1-1,0.2c-0.7,0.3-0.7,0.3-1.3,0.5"/>
		<path id="XMLID_721_" class="st0" d="M379.2,209.2c-0.5,0-0.5,0-0.9,0c-0.6,0.1-0.6,0.1-1.2,0.3c-0.5,0.2-0.5,0.2-1,0.5
			c-6,3.9-6,3.9-12,7.9c-0.2,0.2-0.2,0.2-0.5,0.4"/>
		<path id="XMLID_720_" class="st0" d="M372.9,236.5c0.5,0.4,0.5,0.4,1.1,0.7c0.7,0.2,0.7,0.2,1.4,0.4c0.8,0.1,0.8,0.1,1.6,0.1
			c0.4,0,0.4,0,0.9-0.1c0.8-0.2,0.8-0.2,1.6-0.4c0.7-0.4,0.7-0.4,1.4-0.8"/>
		<path id="XMLID_719_" class="st0" d="M405.7,216.4c-0.5-0.4-0.5-0.4-1.1-0.7c-0.7-0.3-0.7-0.3-1.4-0.5c-0.8-0.1-0.8-0.1-1.6-0.2
			c-0.4,0-0.4,0-0.8,0.1c-0.8,0.1-0.8,0.1-1.6,0.3c-0.7,0.3-0.7,0.3-1.4,0.6"/>
		<path id="XMLID_718_" class="st0" d="M374.5,233.6c12-8.2,12-8.2,24.1-16.3c0.6-0.3,0.6-0.3,1.3-0.5c0.5-0.1,0.5-0.1,1.1-0.2
			c0.7,0,0.7,0,1.3,0c0.6,0.1,0.6,0.1,1.2,0.3c0.4,0.2,0.4,0.2,0.7,0.4c0.1,0.1,0.1,0.1,0.3,0.1"/>
		<path id="XMLID_717_" class="st0" d="M390.4,215.7c-0.5,0-0.5,0-0.9,0c-0.6,0.1-0.6,0.1-1.2,0.3c-0.5,0.2-0.5,0.2-1,0.5
			c-6,3.9-6,3.9-12,7.9c-0.2,0.2-0.2,0.2-0.5,0.4"/>
		<path id="XMLID_716_" class="st0" d="M384.2,243c0.5,0.4,0.5,0.4,1.1,0.8c0.7,0.2,0.7,0.2,1.4,0.4c0.8,0.1,0.8,0.1,1.6,0.1
			c0.4,0,0.4,0,0.9-0.1c0.8-0.2,0.8-0.2,1.6-0.5c0.7-0.3,0.7-0.3,1.4-0.7"/>
		<path id="XMLID_715_" class="st0" d="M416.9,222.9c-0.4-0.3-0.4-0.3-0.8-0.6c-0.1-0.1-0.1-0.1-0.3-0.2c-0.7-0.3-0.7-0.3-1.4-0.5
			c-0.8-0.1-0.8-0.1-1.6-0.2c-0.4,0-0.4,0-0.8,0c-0.8,0.2-0.8,0.1-1.6,0.3c-0.7,0.3-0.7,0.3-1.4,0.6"/>
		<path id="XMLID_714_" class="st0" d="M415.7,223.8c-0.5-0.3-0.5-0.3-1-0.5c-0.6-0.1-0.6-0.1-1.2-0.3c-0.7,0-0.7,0-1.3,0
			c-0.5,0.1-0.5,0.1-1.1,0.2c-0.7,0.3-0.7,0.3-1.3,0.6"/>
		<path id="XMLID_713_" class="st0" d="M401.7,222.2c-0.5,0-0.5,0-0.9,0c-0.6,0.1-0.6,0.1-1.2,0.3c-0.5,0.2-0.5,0.2-1,0.5
			c-6,3.9-6,3.9-12,7.9c-0.2,0.2-0.2,0.2-0.5,0.4"/>
		<path id="XMLID_712_" class="st0" d="M413,228.7c-0.4,0-0.4,0-0.9,0c-0.6,0.1-0.6,0.1-1.2,0.3c-0.5,0.2-0.5,0.2-1,0.5
			c-6,3.9-6,3.9-12,7.9c-0.2,0.2-0.2,0.2-0.5,0.4"/>
		<path id="XMLID_711_" class="st0" d="M396.2,245.4c12-8.2,12-8.2,24.1-16.4c0.7-0.3,0.7-0.3,1.4-0.6c0.8-0.2,0.8-0.2,1.6-0.3
			c0.4,0,0.4,0,0.8,0c0.8,0.1,0.8,0.1,1.6,0.2c0.7,0.2,0.7,0.2,1.4,0.5c0.1,0.1,0.1,0.1,0.3,0.2c0.4,0.3,0.4,0.3,0.8,0.5"/>
		<path id="XMLID_710_" class="st0" d="M427.5,233.2c-12.1,8.2-12.1,8.2-24.1,16.4c-0.7,0.4-0.7,0.4-1.4,0.7
			c-0.8,0.2-0.8,0.2-1.6,0.4c-0.4,0.1-0.4,0.1-0.9,0.1c-0.8-0.1-0.8,0-1.6-0.1c-0.7-0.2-0.7-0.2-1.4-0.4c-0.5-0.3-0.5-0.3-1-0.7"/>
		<path id="XMLID_709_" class="st0" d="M427,230.3c-0.1-0.1-0.1-0.1-0.3-0.1c-0.4-0.2-0.3-0.2-0.7-0.4c-0.6-0.1-0.6-0.1-1.2-0.3
			c-0.6,0-0.7,0-1.3,0c-0.5,0.1-0.5,0.1-1.1,0.2c-0.7,0.3-0.7,0.3-1.3,0.5"/>
		<path id="XMLID_708_" class="st0" d="M407.5,251.9c12.1-8.2,12.1-8.2,24.2-16.4c0.7-0.3,0.7-0.3,1.4-0.6c0.8-0.2,0.8-0.2,1.6-0.3
			c0.4,0,0.4,0,0.8-0.1c0.8,0.1,0.8,0.1,1.6,0.2c0.7,0.2,0.7,0.2,1.4,0.5c0.3,0.2,0.2,0.2,0.5,0.3c0.3,0.2,0.3,0.2,0.6,0.4"/>
		<path id="XMLID_707_" class="st0" d="M438.7,239.6c-12.1,8.2-12.1,8.2-24.2,16.4c-0.7,0.4-0.7,0.4-1.4,0.7
			c-0.8,0.2-0.8,0.2-1.6,0.4c-0.4,0.1-0.4,0.1-0.9,0.1c-0.8,0-0.8,0-1.6-0.1c-0.7-0.2-0.7-0.2-1.4-0.4c-0.3-0.2-0.3-0.2-0.6-0.4"/>
		<path id="XMLID_706_" class="st0" d="M408.3,253.1c12-8.2,12-8.2,24.1-16.3c0.7-0.3,0.7-0.3,1.3-0.5c0.5-0.1,0.5-0.1,1.1-0.2
			c0.6,0,0.6,0,1.3,0c0.6,0.1,0.6,0.1,1.2,0.3c0.5,0.2,0.5,0.2,1,0.5"/>
		<path id="XMLID_705_" class="st0" d="M409.1,243.8c6-4,6-4,12-7.9c0.5-0.3,0.5-0.3,1-0.5c0.6-0.1,0.6-0.1,1.2-0.3
			c0.5,0,0.5,0,0.9,0"/>
		<path id="XMLID_704_" class="st0" d="M418.7,258.4c12-8.2,12-8.2,24.2-16.4c0.7-0.3,0.7-0.3,1.4-0.6c0.8-0.2,0.8-0.2,1.6-0.3
			c0.4,0,0.4,0,0.8-0.1c0.8,0.1,0.8,0.1,1.6,0.2c0.7,0.2,0.7,0.2,1.4,0.5c0.1,0.1,0.1,0.1,0.3,0.2c0.4,0.3,0.4,0.3,0.8,0.5"/>
		<path id="XMLID_703_" class="st0" d="M450,246.2c-12.1,8.2-12.1,8.2-24.2,16.4c-0.7,0.4-0.7,0.4-1.4,0.8c-0.8,0.2-0.8,0.2-1.6,0.4
			c-0.4,0.1-0.4,0.1-0.9,0.1c-0.8,0-0.8,0-1.6-0.1c-0.7-0.2-0.7-0.2-1.4-0.5c-0.3-0.2-0.3-0.2-0.7-0.5"/>
		<path id="XMLID_702_" class="st0" d="M419.6,259.7c12-8.2,12-8.2,24.1-16.3c0.7-0.3,0.7-0.3,1.3-0.5c0.5-0.1,0.5-0.1,1.1-0.2
			c0.6,0,0.6,0,1.3,0c0.6,0.1,0.6,0.1,1.2,0.3c0.4,0.2,0.4,0.2,0.7,0.4c0.1,0.1,0.1,0.1,0.3,0.1"/>
		<path id="XMLID_701_" class="st0" d="M420.3,250.3c6-3.9,6-3.9,12-7.9c0.5-0.3,0.5-0.3,1-0.5c0.6-0.1,0.6-0.1,1.2-0.3
			c0.5,0,0.5,0,0.9,0"/>
		<path id="XMLID_700_" class="st0" d="M430,264.9c12-8.2,12.1-8.2,24.2-16.4c0.7-0.3,0.7-0.3,1.4-0.7c0.8-0.2,0.8-0.1,1.6-0.3
			c0.4,0,0.4,0,0.8,0c0.8,0.1,0.8,0.1,1.6,0.2c0.7,0.2,0.7,0.2,1.4,0.5c0.1,0.1,0.1,0.1,0.3,0.2c0.4,0.3,0.4,0.3,0.8,0.5"/>
		<path id="XMLID_699_" class="st0" d="M461.3,252.7c-12.1,8.2-12.1,8.2-24.2,16.4c-0.7,0.4-0.7,0.4-1.4,0.7
			c-0.8,0.3-0.8,0.2-1.6,0.5c-0.4,0.1-0.4,0.1-0.9,0.1c-0.8,0-0.8,0-1.6-0.1c-0.7-0.2-0.7-0.2-1.4-0.5c-0.1-0.1-0.1-0.1-0.3-0.2"/>
		<path id="XMLID_698_" class="st0" d="M430.9,266.1c12-8.2,12-8.2,24.1-16.3c0.5-0.3,0.5-0.3,1.1-0.5c0.6-0.1,0.6-0.1,1.2-0.3
			c0.7,0,0.7,0,1.3,0c0.6,0.1,0.6,0.1,1.2,0.3c0.4,0.2,0.4,0.2,0.7,0.4c0.1,0.1,0.1,0.1,0.3,0.1"/>
		<path id="XMLID_697_" class="st0" d="M431.6,256.8c6-3.9,6-3.9,12-7.9c0.5-0.2,0.5-0.2,1-0.5c0.6-0.1,0.6-0.1,1.3-0.3
			c0.5,0,0.5,0,0.9,0"/>
		<path id="XMLID_696_" class="st0" d="M441.3,271.4c12-8.2,12.1-8.2,24.2-16.4c0.7-0.3,0.7-0.3,1.4-0.6c0.8-0.2,0.8-0.2,1.6-0.3
			c0.4,0,0.4,0,0.8,0c0.8,0.1,0.8,0.1,1.6,0.2c0.7,0.2,0.7,0.2,1.4,0.5c0.1,0.1,0.1,0.1,0.3,0.2c0.4,0.3,0.4,0.3,0.8,0.5"/>
		<path id="XMLID_695_" class="st0" d="M472.6,259.2c-12.1,8.2-12.1,8.2-24.2,16.4c-0.7,0.4-0.7,0.4-1.4,0.7
			c-0.8,0.2-0.8,0.2-1.6,0.4c-0.4,0.1-0.4,0.1-0.9,0.1c-0.8-0.1-0.8,0-1.6-0.1c-0.6-0.2-0.6-0.2-1.2-0.4"/>
		<path id="XMLID_694_" class="st0" d="M472.1,256.3c-0.1-0.1-0.1-0.1-0.3-0.1c-0.4-0.2-0.4-0.2-0.7-0.4c-0.6-0.1-0.6-0.1-1.2-0.3
			c-0.7,0-0.7,0-1.3,0c-0.6,0.1-0.6,0.1-1.2,0.3c-0.6,0.2-0.6,0.2-1.1,0.5"/>
		<path id="XMLID_693_" class="st0" d="M440.3,231.7c0.2,0.1,0.2,0.1,0.5,0.1c1.7-0.1,1.7-0.1,3.5-0.3c1.5-0.4,1.5-0.4,3-0.9"/>
		<path id="XMLID_692_" class="st0" d="M442.9,263.4c6-4,6-4,12-7.9c0.5-0.3,0.5-0.3,1-0.5c0.6-0.1,0.6-0.1,1.2-0.3
			c0.5,0,0.5,0,0.9,0"/>
		<path id="XMLID_691_" class="st0" d="M453.3,282.9c0.5,0.2,0.5,0.2,1,0.3c0.8,0.1,0.8,0.1,1.6,0.1c0.4,0,0.4,0,0.9-0.1
			c0.8-0.2,0.8-0.2,1.6-0.4c0.7-0.4,0.7-0.4,1.4-0.7"/>
		<path id="XMLID_690_" class="st0" d="M484.6,262c-0.5-0.4-0.5-0.4-1-0.7c-0.7-0.2-0.7-0.2-1.3-0.4c-0.9-0.1-0.9-0.1-1.7-0.2
			c-0.4,0-0.4,0-0.8,0.1c-0.8,0.1-0.8,0.1-1.6,0.3c-0.7,0.3-0.7,0.3-1.4,0.6"/>
		<path id="XMLID_689_" class="st0" d="M453.4,279.2c12-8.2,12-8.2,24.1-16.3c0.5-0.3,0.5-0.3,1.1-0.5c0.6-0.1,0.6-0.1,1.2-0.3
			c0.7,0,0.7,0,1.3,0c0.6,0.1,0.6,0.1,1.2,0.3c0.4,0.2,0.4,0.2,0.7,0.3c0.1,0.1,0.1,0.1,0.3,0.1"/>
		<path id="XMLID_688_" class="st0" d="M469.4,261.3c-0.5,0-0.5,0-0.9,0c-0.6,0.1-0.6,0.1-1.2,0.3c-0.5,0.2-0.5,0.2-1,0.5
			c-6,3.9-6,3.9-12,7.9c-0.2,0.2-0.3,0.2-0.5,0.4"/>
		<path id="XMLID_687_" class="st0" d="M464.7,285.7c12-8.2,12-8.2,24.1-16.3c0.5-0.3,0.5-0.3,1.1-0.5c0.6-0.1,0.6-0.1,1.2-0.3
			c0.7,0,0.7,0,1.3,0c0.6,0.1,0.6,0.1,1.2,0.3c0.5,0.2,0.5,0.2,1,0.5"/>
		<path id="XMLID_686_" class="st0" d="M495.9,268.5c-0.5-0.4-0.5-0.4-1-0.7c-0.7-0.2-0.7-0.2-1.3-0.5c-0.9-0.1-0.9-0.1-1.7-0.2
			c-0.4,0-0.4,0-0.8,0.1c-0.8,0.1-0.8,0.1-1.6,0.3c-0.7,0.3-0.7,0.3-1.4,0.6"/>
		<path id="XMLID_685_" class="st0" d="M463.1,288.6c0.5,0.4,0.5,0.4,1.1,0.7c0.7,0.3,0.7,0.3,1.4,0.5c0.8,0.1,0.8,0.1,1.6,0.1
			c0.4,0,0.4,0,0.9-0.1c0.8-0.2,0.8-0.2,1.6-0.4c0.5-0.3,0.5-0.3,1-0.5"/>
		<path id="XMLID_684_" class="st0" d="M465.5,276.4c6-3.9,6-3.9,12-7.9c0.5-0.2,0.5-0.2,1-0.5c0.6-0.1,0.6-0.1,1.2-0.3
			c0.5,0,0.5,0,0.9,0"/>
		<path id="XMLID_683_" class="st0" d="M474.4,295.1c0.5,0.4,0.6,0.4,1.1,0.8c0.7,0.2,0.7,0.2,1.4,0.4c0.8,0.1,0.8,0.1,1.6,0.1
			c0.4,0,0.4,0,0.9-0.1c0.8-0.2,0.8-0.2,1.6-0.5c0.7-0.3,0.7-0.3,1.4-0.7"/>
		<path id="XMLID_682_" class="st0" d="M507.2,275c-0.4-0.3-0.4-0.3-0.8-0.6c-0.1-0.1-0.1-0.1-0.3-0.2c-0.7-0.3-0.7-0.3-1.4-0.5
			c-0.8-0.1-0.8-0.1-1.6-0.2c-0.4,0-0.4,0-0.8,0c-0.8,0.2-0.8,0.1-1.6,0.3c-0.7,0.3-0.7,0.3-1.4,0.6"/>
		<path id="XMLID_681_" class="st0" d="M505.9,275.9c-0.1-0.1-0.1-0.1-0.3-0.1c-0.4-0.2-0.4-0.2-0.7-0.4c-0.6-0.1-0.6-0.1-1.2-0.3
			c-0.7,0-0.7,0-1.3,0c-0.6,0.1-0.6,0.1-1.2,0.3c-0.6,0.2-0.6,0.2-1.1,0.5"/>
		<path id="XMLID_680_" class="st0" d="M476.7,282.9c6-3.9,6-3.9,12-7.9c0.5-0.3,0.5-0.3,1-0.5c0.6-0.1,0.6-0.1,1.2-0.3
			c0.5,0,0.5,0,0.9,0"/>
		<path id="XMLID_679_" class="st0" d="M479.5,426.3c6.4-1.4,6.4-1.4,12.8-2.8c7-1.9,7-1.9,14-3.9c15-5.2,15.1-5.2,30-10.7
			c13.5-6.5,13.5-6.5,26.8-13.4"/>
		<path id="XMLID_678_" class="st0" d="M486.4,297.5c12-8.2,12-8.2,24.1-16.4c0.7-0.3,0.7-0.3,1.4-0.6c0.8-0.2,0.8-0.2,1.6-0.3
			c0.4,0,0.4,0,0.8,0c0.8,0.1,0.8,0.1,1.6,0.2c0.7,0.2,0.7,0.2,1.4,0.5c0.1,0.1,0.1,0.1,0.3,0.2c0.4,0.3,0.4,0.3,0.8,0.5"/>
		<path id="XMLID_677_" class="st0" d="M517.7,285.3c-12,8.2-12,8.2-24.1,16.4c-0.7,0.4-0.7,0.4-1.4,0.7c-0.8,0.2-0.8,0.2-1.6,0.4
			c-0.4,0.1-0.4,0.1-0.9,0.1c-0.8-0.1-0.8,0-1.6-0.1c-0.7-0.2-0.7-0.2-1.4-0.4c-0.5-0.3-0.5-0.3-1.1-0.7"/>
		<path id="XMLID_676_" class="st0" d="M517.2,282.4c-0.1-0.1-0.1-0.1-0.3-0.1c-0.4-0.2-0.4-0.2-0.7-0.4c-0.6-0.1-0.6-0.1-1.2-0.3
			c-0.7,0-0.7,0-1.3,0c-0.6,0.1-0.6,0.1-1.3,0.3c-0.5,0.2-0.5,0.2-1.1,0.5"/>
		<path id="XMLID_675_" class="st0" d="M487.5,289.8c0.2-0.2,0.2-0.2,0.5-0.5c0.5-0.3,0.5-0.3,1-0.6c5.5-3.6,5.5-3.6,11-7.2
			c0.5-0.3,0.5-0.3,1-0.5c0.6-0.1,0.6-0.1,1.2-0.3c0.5,0,0.5,0,0.9,0"/>
		<path id="XMLID_674_" class="st0" d="M491.5,416.5c1.6-4.8,1.6-4.9,2.9-9.8c0.1-2.7,0-2.8,0-5.5c0-3.2,0.1-3.2,0-6.4
			c-1.4-6.6-1.4-6.6-2.9-13.1"/>
		<path id="XMLID_673_" class="st0" d="M514.5,287.3c-0.5,0-0.5,0-0.9,0c-0.6,0.1-0.6,0.1-1.2,0.3c-0.5,0.2-0.5,0.2-1,0.5
			c-6,3.9-6,3.9-12,7.9c-0.2,0.2-0.2,0.2-0.4,0.4"/>
		<path id="XMLID_672_" class="st0" d="M178.3,222v2.2l0.7,3"/>
		<path id="XMLID_671_" class="st0" d="M179.1,209.4l-0.9,2.9v2.9"/>
		<path id="XMLID_670_" class="st0" d="M182.9,241.8l-1.8-4.5l-0.3-1.4"/>
		<path id="XMLID_669_" class="st0" d="M180.4,205.3l0.8-2.8l2.2-2.8"/>
		<path id="XMLID_668_" class="st0" d="M190.8,257.3l-4-6.8l-0.7-1.4"/>
		<path id="XMLID_667_" class="st0" d="M186.8,195.7l5.9-2.7l1.8-0.5"/>
		<path id="XMLID_666_" class="st0" d="M193.5,261.6l1,1.3l-0.2-0.3"/>
		<path id="XMLID_665_" class="st0" d="M194.5,262.9l4.5,5.2"/>
		<path id="XMLID_664_" class="st0" d="M205.9,274.7l-1.7-1.3"/>
		<path id="XMLID_663_" class="st0" d="M214,280.9l2.9,1.6l-3.1-1.8"/>
		<path id="XMLID_662_" class="st0" d="M213.7,274.4l244.4,141.1"/>
		<path id="XMLID_661_" class="st0" d="M213.7,204l244.7,141.3"/>
		<path id="XMLID_660_" class="st0" d="M216.8,272.7l244.4,141.1"/>
		<path id="XMLID_659_" class="st0" d="M458.2,421.9L216.9,282.5"/>
		<path id="XMLID_658_" class="st0" d="M260.2,171.4l-0.7-1l-0.1-1.1l0.5-1.1l1-1"/>
		<path id="XMLID_657_" class="st0" d="M292.8,151.3l0.6,0.9l0.1,1l-0.4,0.8l-0.1,0.2l-0.9,0.8"/>
		<path id="XMLID_656_" class="st0" d="M378.5,192l0.6-0.7l-0.2-0.2"/>
		<path id="XMLID_655_" class="st0" d="M261.3,170.3l12.4-7.1"/>
		<path id="XMLID_654_" class="st0" d="M292.5,153.4l0,0.2l-0.3-0.9l-0.7-0.7"/>
		<path id="XMLID_653_" class="st0" d="M285.7,152.1l-24.1,16.3l-0.8,0.8l-0.4,0.9l0,0.5l0.3,0.8l0.7,0.7l0.3,0.1"/>
		<path id="XMLID_652_" class="st0" d="M288.9,157.1l-21,14.2"/>
		<path id="XMLID_651_" class="st0" d="M270.7,175.8l0.1,1.1l0.6,1"/>
		<path id="XMLID_650_" class="st0" d="M279.2,177.9l24.1-16.4l1-0.9l0.1-0.2l0.4-0.8l-0.1-1l-0.6-0.9"/>
		<path id="XMLID_649_" class="st0" d="M296.2,157.4l-24.1,16.4l-1,1l-0.5,1.1"/>
		<path id="XMLID_648_" class="st0" d="M273,178.8l-0.3-0.1l-0.7-0.7l-0.3-0.8l0-0.5l0.4-0.8l0.8-0.9"/>
		<path id="XMLID_647_" class="st0" d="M302.9,158.7l0.7,0.7l0.2,0.7v0.5l-0.4,0.8l-0.7,0.7l-23.4,15.9"/>
		<path id="XMLID_646_" class="st0" d="M272.9,176.6l12-6.9"/>
		<path id="XMLID_645_" class="st0" d="M282.8,184.5l-0.1-0.1l-0.6-1l-0.1-1.1l0.5-1.1l1-1"/>
		<path id="XMLID_644_" class="st0" d="M315.4,164.3l0.6,0.9l0.1,1l-0.4,0.8l-0.1,0.2l-1,0.9"/>
		<path id="XMLID_643_" class="st0" d="M284.3,185.3l-0.3-0.1l-0.7-0.7l-0.3-0.9l0-0.5l0.4-0.9l0.8-0.8"/>
		<path id="XMLID_642_" class="st0" d="M314.2,165.2l0.7,0.7l0.2,0.7l0,0.6l0.1-0.5l0-0.1"/>
		<path id="XMLID_641_" class="st0" d="M296.3,176.1l-12,6.9"/>
		<path id="XMLID_640_" class="st0" d="M288.3,303.3l23.2,13.4"/>
		<path id="XMLID_639_" class="st0" d="M288.9,157.1l2.4-1.7l0.8-0.7l0.3-0.8l0-0.3l-0.1,0.3"/>
		<path id="XMLID_638_" class="st0" d="M290.5,184.3l23.4-15.9l0.8-0.7l0.3-0.7"/>
		<path id="XMLID_637_" class="st0" d="M294.7,191.4l-0.8-0.5l-0.6-1l-0.1-1.1l0.5-1.1l1-1"/>
		<path id="XMLID_636_" class="st0" d="M326.7,170.8l0.6,0.9l0.1,1l-0.4,0.8l-0.1,0.2l-1,0.9"/>
		<path id="XMLID_635_" class="st0" d="M301.8,190.8l23.4-15.9l0.8-0.7l0.3-0.7V173l-0.2-0.6l-0.7-0.7"/>
		<path id="XMLID_634_" class="st0" d="M319.6,171.7L295.5,188l-0.8,0.8l-0.4,0.9l0,0.5l0.3,0.9l0.7,0.7l0.3,0.1"/>
		<path id="XMLID_633_" class="st0" d="M295.5,189.6l12-6.9"/>
		<path id="XMLID_632_" class="st0" d="M306,197.9l-0.8-0.5l-0.6-1l-0.1-1.1l0.5-1.1l1-1"/>
		<path id="XMLID_631_" class="st0" d="M338,177.3l0.6,0.9l0.1,1l-0.4,0.8l-0.1,0.1l-1,0.9"/>
		<path id="XMLID_630_" class="st0" d="M306.8,198.3l-0.3-0.1l-0.7-0.7l-0.3-0.8l0-0.5l0.4-0.9l0.8-0.8"/>
		<path id="XMLID_629_" class="st0" d="M336.7,178.2l0.7,0.7l0.2,0.7l0,0.5l-0.3,0.7l-0.8,0.7l-23.4,15.9"/>
		<path id="XMLID_628_" class="st0" d="M303.8,160.5l0.1-0.5l0-0.1"/>
		<path id="XMLID_627_" class="st0" d="M306.8,196.1l12-7"/>
		<path id="XMLID_626_" class="st0" d="M348.9,186v0.6l0.1-0.5l-0.3-0.8l-0.7-0.7"/>
		<path id="XMLID_625_" class="st0" d="M342.1,184.7L318.1,201l-0.8,0.8l-0.4,0.9l0,0.5l0.3,0.8l0.7,0.7l-0.3-0.1l-1.1-0.7l-0.6-1
			l-0.1-1.1l0.5-1.1l1-1"/>
		<path id="XMLID_624_" class="st0" d="M349.3,183.8l0.6,0.9l0.1,1l-0.5,1l-1,0.9"/>
		<path id="XMLID_623_" class="st0" d="M317.8,204.7l0.3,0.1"/>
		<path id="XMLID_622_" class="st0" d="M318.1,202.6l12.2-7"/>
		<path id="XMLID_621_" class="st0" d="M324.3,203.9l23.4-15.9l0.8-0.7l0.3-0.7"/>
		<path id="XMLID_620_" class="st0" d="M326.3,173.5l0.1-0.4l-0.1-0.1"/>
		<path id="XMLID_619_" class="st0" d="M328.5,211l-0.8-0.5l-0.6-1l-0.1-1.1l0.5-1.1l1-1"/>
		<path id="XMLID_618_" class="st0" d="M360.5,190.3l0.6,0.9l0.1,1l-0.4,0.8l-0.1,0.2l-1,0.9"/>
		<path id="XMLID_617_" class="st0" d="M335.6,210.4l8.1-5.5v-0.1l15.3-10.4l0.8-0.7l0.3-0.7l0.1-0.4l-0.3-0.8l-0.7-0.7"/>
		<path id="XMLID_616_" class="st0" d="M353.4,191.2l-24.1,16.3l-0.8,0.8l-0.4,0.9l0,0.5l0.3,0.8l0.7,0.7l0.3,0.1"/>
		<path id="XMLID_615_" class="st0" d="M329.4,209.1l12.2-7"/>
		<path id="XMLID_614_" class="st0" d="M337.6,180.1v-0.6"/>
		<path id="XMLID_613_" class="st0" d="M371.5,199.3V199v0.5l-0.3,0.7l-0.8,0.7l-23.7,16.1l24.4-16.5l1-0.9l0.5-1l-0.1-1l-0.6-0.9"
			/>
		<path id="XMLID_612_" class="st0" d="M363.9,196.4l-24.1,16.4l-1,1l-0.5,1.1l0.1,1.1l0.6,1"/>
		<path id="XMLID_611_" class="st0" d="M346.6,217.1l-0.3,0.2"/>
		<path id="XMLID_610_" class="st0" d="M340.7,217.9l-0.3-0.1l-0.7-0.7l-0.3-0.9l0-0.5l0.4-0.9l0.8-0.8"/>
		<path id="XMLID_609_" class="st0" d="M370.6,197.7l0.7,0.7l0.2,0.6"/>
		<path id="XMLID_608_" class="st0" d="M340.6,215.7l12.2-7.1"/>
		<path id="XMLID_607_" class="st0" d="M352.4,224.5l-1-0.3l-1.1-0.7l-0.6-1l-0.1-1.1l0.4-0.9l0.1-0.2l1-1"/>
		<path id="XMLID_606_" class="st0" d="M383.1,203.4l0.6,0.9l0.1,1l-0.4,0.8l-0.1,0.1l-1,0.9"/>
		<path id="XMLID_605_" class="st0" d="M382.7,205.5v0.2l0.1-0.1l-0.3-0.8l-0.7-0.7"/>
		<path id="XMLID_604_" class="st0" d="M376,204.2l-24.1,16.3l-0.8,0.8l-0.4,0.9l0,0.5l0.3,0.8l0.7,0.7l0.3,0.1"/>
		<path id="XMLID_603_" class="st0" d="M364.1,215.1l-12.2,7.1"/>
		<path id="XMLID_602_" class="st0" d="M358.2,223.4l23.5-15.9l0.8-0.7l0.3-0.7v-0.3"/>
		<path id="XMLID_601_" class="st0" d="M360.9,227.9l0.1,1.1l0.6,1"/>
		<path id="XMLID_600_" class="st0" d="M369.5,230l24.1-16.4l1-0.9l0.1-0.2l0.4-0.8l-0.1-1l-0.6-0.9"/>
		<path id="XMLID_599_" class="st0" d="M386.5,209.5l-24.1,16.4l-1,1l-0.5,1.1"/>
		<path id="XMLID_598_" class="st0" d="M360.2,192.8v-0.3"/>
		<path id="XMLID_597_" class="st0" d="M369.4,229.9l23.5-15.9l0.8-0.7l0.3-0.7l0.1-0.4l-0.3-0.8l-0.7-0.7"/>
		<path id="XMLID_596_" class="st0" d="M387.3,210.8l-24.1,16.3l-0.8,0.8l-0.4,0.9l0,0.5l0.3,0.8l0.7,0.7l0.3,0.1"/>
		<path id="XMLID_595_" class="st0" d="M363.2,228.7l12.2-7.1"/>
		<path id="XMLID_594_" class="st0" d="M372.2,234.5l0.1,1.1l0.3,0.5l0.3,0.4"/>
		<path id="XMLID_593_" class="st0" d="M380.8,236.5l24.1-16.4l1-0.9l0.1-0.2l0.4-0.8l-0.1-1l-0.6-0.9"/>
		<path id="XMLID_592_" class="st0" d="M397.8,216l-24.1,16.4l-1,1l-0.5,1.1"/>
		<path id="XMLID_591_" class="st0" d="M374.5,237.4l-0.3-0.1l-0.6-0.6l-0.3-0.9l0.1-0.5l0.3-0.9l0.8-0.8"/>
		<path id="XMLID_590_" class="st0" d="M404.4,217.3l0.7,0.7l0.2,0.7v0.5l-0.3,0.7l-0.8,0.7l-23.4,15.9"/>
		<path id="XMLID_589_" class="st0" d="M374.5,235.2l12.2-7.1"/>
		<path id="XMLID_588_" class="st0" d="M378,195.8l-0.2,0.5"/>
		<path id="XMLID_587_" class="st0" d="M377.9,196.6l0.2,0.5l-0.7-1.8l0.1,0.3"/>
		<path id="XMLID_586_" class="st0" d="M378.2,197.2l-0.1-0.3"/>
		<path id="XMLID_585_" class="st0" d="M378.1,197.1l0.2,0.2"/>
		<path id="XMLID_584_" class="st0" d="M378.2,197.2l1.9,1.6l54.5,31.5l0.5,0.2"/>
		<path id="XMLID_583_" class="st0" d="M378.1,193.1l-0.6,1v1.6"/>
		<path id="XMLID_582_" class="st0" d="M377.3,194.4l1.6-3.3l-0.5,0.8"/>
		<path id="XMLID_581_" class="st0" d="M377.5,194l-0.2,1.1l0.2,0.5"/>
		<path id="XMLID_580_" class="st0" d="M377.2,195l0.1-0.7"/>
		<path id="XMLID_579_" class="st0" d="M377.5,194.1L377.5,194.1"/>
		<path id="XMLID_578_" class="st0" d="M378.3,192.3l0.8-0.9l0.1,0.3l0,0.6"/>
		<path id="XMLID_577_" class="st0" d="M380.1,198.8l-0.1-0.1"/>
		<path id="XMLID_576_" class="st0" d="M379.1,191.3L379.1,191.3"/>
		<path id="XMLID_575_" class="st0" d="M383.7,242.3l0.5,0.7"/>
		<path id="XMLID_574_" class="st0" d="M392.1,243l24.1-16.4l1-0.9l0.1-0.2l0.4-0.8l-0.1-1l-0.6-0.9"/>
		<path id="XMLID_573_" class="st0" d="M409,222.5l-24.1,16.4l-1,1l-0.5,1.1l0.1,1.1l0.2,0.3"/>
		<path id="XMLID_572_" class="st0" d="M416.6,225.1v0.2l0-0.1l-0.3-0.8l-0.7-0.7"/>
		<path id="XMLID_571_" class="st0" d="M409.8,223.8l-24.1,16.3l-0.8,0.8l-0.4,0.9l0,0.5l0.3,0.9l0.6,0.7l0.3,0.1"/>
		<path id="XMLID_570_" class="st0" d="M385.8,241.7l11.9-6.9"/>
		<path id="XMLID_569_" class="st0" d="M392,242.9l20.9-14.2"/>
		<path id="XMLID_568_" class="st0" d="M395.4,249.5l-0.6-1l-0.1-1.1l0.5-1.1l1-1"/>
		<path id="XMLID_567_" class="st0" d="M428.2,229.4l0.6,0.9l0.1,1l-0.4,0.8l-0.1,0.1l-1,0.9"/>
		<path id="XMLID_566_" class="st0" d="M394,212.3v-0.2"/>
		<path id="XMLID_565_" class="st0" d="M403.3,249.5l23.4-15.9l0.8-0.7l0.3-0.7v-0.5l-0.2-0.7l-0.7-0.7"/>
		<path id="XMLID_564_" class="st0" d="M421.1,230.3l-24,16.3l-0.8,0.8l-0.4,0.9l0,0.5l0.3,0.9l0.6,0.7l0.3,0.1"/>
		<path id="XMLID_563_" class="st0" d="M397,248.2l12-6.9"/>
		<path id="XMLID_562_" class="st0" d="M407.2,256.4l-0.5-0.3l-0.6-1L406,254l0.5-1.1l1-1"/>
		<path id="XMLID_561_" class="st0" d="M439.5,235.9l0.6,0.9l0.1,1l-0.5,1l-1,0.9"/>
		<path id="XMLID_560_" class="st0" d="M408.4,256.9l-0.3-0.1l-0.6-0.7l-0.3-0.9l0-0.5l0.4-0.9l0.8-0.8"/>
		<path id="XMLID_559_" class="st0" d="M438.2,236.8l0.7,0.7l0.2,0.7v0.5l-0.4,0.7l-0.8,0.7L414.6,256"/>
		<path id="XMLID_558_" class="st0" d="M405.3,218.8v-0.2"/>
		<path id="XMLID_557_" class="st0" d="M408.3,254.7l12-6.9l-0.5,0.3"/>
		<path id="XMLID_556_" class="st0" d="M408.6,244.2l0.5-0.4"/>
		<path id="XMLID_555_" class="st0" d="M413,228.7L413,228.7l2.4-1.6l0.8-0.7l0.3-0.7v-0.3"/>
		<path id="XMLID_554_" class="st0" d="M418.4,262.8l-0.4-0.3l-0.6-1l-0.1-1.1l0.5-1.1l1-1"/>
		<path id="XMLID_553_" class="st0" d="M450.8,242.4l0.6,0.9l0.1,1l-0.5,1l-1,0.9"/>
		<path id="XMLID_552_" class="st0" d="M419.6,263.5l-0.3-0.1l-0.6-0.7l-0.3-0.9l0-0.5l0.4-0.9l0.8-0.8"/>
		<path id="XMLID_551_" class="st0" d="M449.5,243.3l0.7,0.7l0.2,0.6l0,0.6l-0.3,0.7l-0.8,0.7l-23.4,15.9"/>
		<path id="XMLID_550_" class="st0" d="M419.6,261.2l12-6.9"/>
		<path id="XMLID_549_" class="st0" d="M419.9,250.7l0.5-0.4"/>
		<path id="XMLID_548_" class="st0" d="M430,269.6l-0.8-0.5l-0.6-1l-0.1-1.1l0.5-1.1l1-1"/>
		<path id="XMLID_547_" class="st0" d="M462,248.9l0.6,0.9l0.1,1l-0.5,1l-1,0.9"/>
		<path id="XMLID_546_" class="st0" d="M430.9,270l-0.3-0.1l-0.6-0.7l-0.3-0.9l0-0.5l0.4-0.9l0.8-0.8"/>
		<path id="XMLID_545_" class="st0" d="M460.8,249.8l0.7,0.7l0.2,0.6v0.5l-0.3,0.7l-0.8,0.7L437.1,269"/>
		<path id="XMLID_544_" class="st0" d="M427.9,231.6v0.2"/>
		<path id="XMLID_543_" class="st0" d="M430.9,267.8l12-6.9"/>
		<path id="XMLID_542_" class="st0" d="M431.2,257.2l0.5-0.4"/>
		<path id="XMLID_541_" class="st0" d="M436,230.8l-1.6-0.6l6.3,1.6l-1.8-0.3"/>
		<path id="XMLID_540_" class="st0" d="M441.8,276.4l-0.2-0.1l-1-0.7l-0.6-1l-0.1-1.1l0.5-1.1l1-1"/>
		<path id="XMLID_539_" class="st0" d="M473.3,255.5l0.6,0.9l0.1,1l-0.5,1l-1,0.9"/>
		<path id="XMLID_538_" class="st0" d="M448.4,275.5l10.7-7.2v-0.1l12.7-8.6l0.8-0.7l0.3-0.7l0-0.4l-0.3-0.8l-0.7-0.7"/>
		<path id="XMLID_537_" class="st0" d="M466.2,256.3l-24.1,16.3l-0.8,0.8l-0.4,0.9l0,0.5l0.3,0.9l0.6,0.7l0.3,0.1"/>
		<path id="XMLID_536_" class="st0" d="M439.1,238.1v0.2"/>
		<path id="XMLID_535_" class="st0" d="M447.3,230.7l0.3,0.1l87.8,50.7"/>
		<path id="XMLID_534_" class="st0" d="M440.7,231.8L440.7,231.8"/>
		<path id="XMLID_533_" class="st0" d="M442.1,274.3l12-6.9"/>
		<path id="XMLID_532_" class="st0" d="M442.5,263.8l0.5-0.4"/>
		<path id="XMLID_531_" class="st0" d="M450.4,245.2l0-0.6"/>
		<path id="XMLID_530_" class="st0" d="M453.5,283l-0.2-0.1"/>
		<path id="XMLID_529_" class="st0" d="M459.7,282.1l24.1-16.4l1-0.9l0.5-1l-0.1-1l-0.6-0.9"/>
		<path id="XMLID_528_" class="st0" d="M476.7,261.6l-24.1,16.4l-1,1l-0.5,1.1l0.1,1.1l0.6,1l1.1,0.7l0.4,0.1l-0.7-0.7l-0.3-0.9
			l0-0.5l0.4-0.9l0.8-0.8"/>
		<path id="XMLID_527_" class="st0" d="M483.4,262.9l0.7,0.7l0.2,0.7v0.5l-0.3,0.7l-0.8,0.7L459.7,282"/>
		<path id="XMLID_526_" class="st0" d="M453.4,280.8l12-6.9"/>
		<path id="XMLID_525_" class="st0" d="M461.7,251.1v0.5"/>
		<path id="XMLID_524_" class="st0" d="M469.6,426.3l-9.1-3.5"/>
		<path id="XMLID_523_" class="st0" d="M464.8,289.5l-0.3-0.1l-0.6-0.6l-0.3-0.9l0-0.5l0.4-0.9l0.8-0.8"/>
		<path id="XMLID_522_" class="st0" d="M494.6,269.4l0.7,0.7l0.3,0.8l-0.1,0.5l-0.3,0.7l-0.8,0.7l-23.8,16.2l24.5-16.6l1-0.9l0.5-1
			l-0.1-1l-0.6-0.9"/>
		<path id="XMLID_521_" class="st0" d="M488,268.1l-24.1,16.4l-1,1l-0.5,1.1l0.1,1.1l0.6,1"/>
		<path id="XMLID_520_" class="st0" d="M470.6,288.8l-0.2,0.1"/>
		<path id="XMLID_519_" class="st0" d="M464.2,289.3L464.2,289.3"/>
		<path id="XMLID_518_" class="st0" d="M464.7,287.3l12-6.9"/>
		<path id="XMLID_517_" class="st0" d="M465,276.8l0.5-0.4"/>
		<path id="XMLID_516_" class="st0" d="M469.7,346.9l8.4,9.3l10.1,15.9"/>
		<path id="XMLID_515_" class="st0" d="M473,258.2l0-0.6"/>
		<path id="XMLID_514_" class="st0" d="M474,294.6l0.3,0.5"/>
		<path id="XMLID_513_" class="st0" d="M482.3,295.1l24.1-16.4l1-0.9l0.1-0.2l0.4-0.8l-0.1-1l-0.6-0.9"/>
		<path id="XMLID_512_" class="st0" d="M499.3,274.6L475.1,291l-1,1l-0.5,1.1l0.1,1.1l0.3,0.5"/>
		<path id="XMLID_511_" class="st0" d="M482.3,295l23.4-15.9l0.8-0.7l0.3-0.8l0-0.5l-0.2-0.6l-0.7-0.7"/>
		<path id="XMLID_510_" class="st0" d="M500.1,275.9L476,292.2l-0.8,0.8l-0.4,0.9l0,0.5l0.3,0.9l0.6,0.7l0.3,0.1"/>
		<path id="XMLID_509_" class="st0" d="M488,286.9l-12,6.9"/>
		<path id="XMLID_508_" class="st0" d="M476.3,283.3l0.4-0.4"/>
		<path id="XMLID_507_" class="st0" d="M479.4,426.1l2.7-1.6L479.4,426.1"/>
		<path id="XMLID_506_" class="st0" d="M485,300.5l-0.1-0.9l0.5-1.1l1-1"/>
		<path id="XMLID_505_" class="st0" d="M518.5,281.5l0.6,0.9l0.1,1l-0.4,0.8l-0.1,0.1l-1,0.9"/>
		<path id="XMLID_504_" class="st0" d="M485.7,301.6l-0.6-1l0-0.1"/>
		<path id="XMLID_503_" class="st0" d="M484.2,264.7l0.1-0.5l0-0.1"/>
		<path id="XMLID_502_" class="st0" d="M487.4,421.5l-5.2,3"/>
		<path id="XMLID_501_" class="st0" d="M493.5,301.6l23.4-15.9l0.8-0.7l0.3-0.7l0-0.5l-0.2-0.7l-0.7-0.7"/>
		<path id="XMLID_500_" class="st0" d="M511.3,282.4l-24.1,16.3l-0.8,0.8l-0.4,0.9l0,0.5l0.3,0.9l0.6,0.7l0.3,0.1"/>
		<path id="XMLID_499_" class="st0" d="M487.3,300.3l12-7"/>
		<path id="XMLID_498_" class="st0" d="M492.6,412.6l-4.7,8l1.2-2.1"/>
		<path id="XMLID_497_" class="st0" d="M495.5,270.7l0,0.2"/>
		<path id="XMLID_496_" class="st0" d="M506.8,277.2l0.1,0.1l-0.1,0.4"/>
		<path id="XMLID_495_" class="st0" d="M518.1,284.3l0.1-0.5l-0.1-0.1"/>
		<path id="XMLID_494_" class="st0" d="M295.5,189.6l-0.5,0.3l-0.5,0.7"/>
		<path id="XMLID_493_" class="st0" d="M464.7,287.3l-0.5,0.3l-0.5,0.7"/>
		<path id="XMLID_492_" class="st0" d="M261.7,170.1l-0.5,0.3l-0.5,0.7"/>
		<path id="XMLID_491_" class="st0" d="M284.2,183.1l-0.5,0.3l-0.5,0.7"/>
		<path id="XMLID_490_" class="st0" d="M318.1,202.6l-0.5,0.3l-0.5,0.7"/>
		<path id="XMLID_489_" class="st0" d="M340.6,215.7l-0.5,0.3l-0.5,0.7"/>
		<path id="XMLID_488_" class="st0" d="M329.4,209.1l-0.5,0.3l-0.5,0.7"/>
		<path id="XMLID_487_" class="st0" d="M306.8,196.1l-0.5,0.3l-0.5,0.7"/>
		<path id="XMLID_486_" class="st0" d="M351.9,222.2l-0.5,0.3l-0.5,0.7"/>
		<path id="XMLID_485_" class="st0" d="M476,293.8l-0.5,0.3l-0.5,0.7"/>
		<path id="XMLID_484_" class="st0" d="M397,248.2l-0.5,0.3l-0.5,0.7"/>
		<path id="XMLID_483_" class="st0" d="M272.9,176.6l-0.5,0.3l-0.6,0.7"/>
		<path id="XMLID_482_" class="st0" d="M419.6,261.2l-0.5,0.3l-0.5,0.7"/>
		<path id="XMLID_481_" class="st0" d="M363.2,228.7l-0.5,0.3l-0.5,0.7"/>
		<path id="XMLID_480_" class="st0" d="M374.5,235.2l-0.5,0.3l-0.5,0.7"/>
		<path id="XMLID_479_" class="st0" d="M385.8,241.7l-0.5,0.3l-0.5,0.7"/>
		<path id="XMLID_478_" class="st0" d="M408.3,254.7l-0.5,0.3l-0.5,0.7"/>
		<path id="XMLID_477_" class="st0" d="M430.9,267.8l-0.5,0.3l-0.5,0.7"/>
		<path id="XMLID_476_" class="st0" d="M442.1,274.3l-0.5,0.3l-0.5,0.7"/>
		<path id="XMLID_475_" class="st0" d="M487.3,300.3l-0.5,0.3l-0.5,0.7"/>
		<path id="XMLID_474_" class="st0" d="M453.4,280.8l-0.5,0.3l-0.5,0.7"/>
		<path id="XMLID_473_" class="st0" d="M193,193.7l-2,0.6"/>
		<path id="XMLID_472_" class="st0" d="M487.2,421l0.6-0.6L487.2,421"/>
		<path id="XMLID_471_" class="st0" d="M308.5,186.3c-1.9-0.6-2.6-2-1.6-3.1c0.1-0.1,0.3-0.3,0.5-0.4"/>
		<path id="XMLID_470_" class="st0" d="M535.4,281.4c26,15,47,51.4,47,81.4c0,17.4-7.2,29.5-19.4,32.7"/>
		<path id="XMLID_469_" class="st0" d="M234.6,152.4c6.2-6.1,15-8,25-5.4"/>
		<path id="XMLID_468_" class="st0" d="M342.4,205.9c-2-0.6-2.7-2-1.7-3.1c0.1-0.2,0.3-0.3,0.5-0.5"/>
		<path id="XMLID_467_" class="st0" d="M364.9,218.9c-1.9-0.6-2.6-2-1.6-3.1c0.1-0.1,0.3-0.3,0.5-0.4"/>
		<path id="XMLID_466_" class="st0" d="M297.2,179.8c-1.9-0.6-2.6-2-1.6-3.1c0.1-0.1,0.3-0.3,0.5-0.4"/>
		<path id="XMLID_465_" class="st0" d="M488.9,290.5c-1.9-0.6-2.6-2-1.6-3.1c0.1-0.1,0.3-0.3,0.5-0.4"/>
		<path id="XMLID_464_" class="st0" d="M353.6,212.4c-1.9-0.6-2.7-2-1.6-3.1c0.1-0.2,0.3-0.3,0.5-0.4"/>
		<path id="XMLID_463_" class="st0" d="M477.7,284c-1.9-0.6-2.7-2-1.6-3.1c0.1-0.1,0.3-0.3,0.5-0.4"/>
		<path id="XMLID_462_" class="st0" d="M319.7,192.8c-1.9-0.6-2.6-2-1.6-3.1c0.1-0.1,0.3-0.3,0.5-0.4"/>
		<path id="XMLID_461_" class="st0" d="M331,199.3c-1.9-0.6-2.7-2-1.6-3.1c0.1-0.1,0.3-0.3,0.5-0.4"/>
		<path id="XMLID_460_" class="st0" d="M274.6,166.8c-1.9-0.6-2.6-2-1.6-3.1c0.1-0.1,0.3-0.3,0.5-0.4"/>
		<path id="XMLID_459_" class="st0" d="M455.1,271c-1.9-0.6-2.7-2-1.7-3.1c0.1-0.1,0.3-0.3,0.5-0.4"/>
		<path id="XMLID_458_" class="st0" d="M432.5,257.9c-1.9-0.6-2.6-2-1.6-3.1c0.1-0.1,0.3-0.3,0.5-0.4"/>
		<path id="XMLID_457_" class="st0" d="M421.3,251.4c-1.9-0.6-2.6-2-1.6-3.1c0.1-0.1,0.3-0.3,0.4-0.4"/>
		<path id="XMLID_456_" class="st0" d="M398.7,238.4c-1.9-0.6-2.6-2-1.6-3.1c0.1-0.2,0.3-0.3,0.5-0.4"/>
		<path id="XMLID_455_" class="st0" d="M443.8,264.5c-1.9-0.6-2.6-2-1.6-3.1c0.1-0.1,0.3-0.3,0.5-0.4"/>
		<path id="XMLID_454_" class="st0" d="M376.1,225.4c-1.9-0.6-2.7-2-1.6-3.1c0.1-0.1,0.3-0.3,0.5-0.4"/>
		<path id="XMLID_453_" class="st0" d="M410,244.9c-1.9-0.6-2.6-2-1.6-3.1c0.1-0.1,0.3-0.3,0.5-0.4"/>
		<path id="XMLID_452_" class="st0" d="M285.9,173.3c-1.9-0.6-2.6-2-1.6-3.1c0.1-0.1,0.3-0.3,0.5-0.4"/>
		<path id="XMLID_451_" class="st0" d="M466.4,277.5c-1.9-0.6-2.6-2-1.6-3.1c0.1-0.1,0.3-0.3,0.5-0.4"/>
		<path id="XMLID_450_" class="st0" d="M500.2,297c-1.9-0.6-2.6-2-1.6-3.1c0.1-0.1,0.3-0.3,0.5-0.4"/>
		<path id="XMLID_449_" class="st0" d="M387.4,231.9c-1.9-0.6-2.7-2-1.6-3.1c0.1-0.2,0.3-0.3,0.5-0.4"/>
		<path id="XMLID_448_" class="st0" d="M213.7,280.4C194,269,178,241.4,178,218.6c0-12.8,5.1-21.9,13.9-24.6"/>
		<path id="XMLID_447_" class="st0" d="M323.3,320.1c-3.6,0.1-7.7-1.1-11.8-3.5"/>
		<path id="XMLID_446_" class="st0" d="M478.8,425.8c-6,1.5-13.3,0-20.7-4.3"/>
		<path id="XMLID_445_" class="st0" d="M492.4,388.5c1.9,8.7,1.9,16.8,0,23.2"/>
		<path id="XMLID_444_" class="st0" d="M201.2,221.8c0.2-2.7,0.8-5,1.9-6.9"/>
		<path id="XMLID_443_" class="st0" d="M229.4,260.6c-2.2,0-4.5-0.7-6.9-1.8"/>
		<path id="XMLID_442_" class="st0" d="M478.6,417.5c-5.1,1.2-11.2-0.1-17.4-3.7"/>
		<path id="XMLID_441_" class="st0" d="M216.8,272.7c-16.8-9.7-30.5-33.4-30.5-52.8c0-7.2,1.9-13.1,5.5-17"/>
		<path id="XMLID_440_" class="st0" d="M469.7,394.2c-7.4-1.5-15.4-10.7-17.8-20.7c-0.9-3.9-0.9-7.4,0-10.2"/>
		<path id="XMLID_439_" class="st0" d="M288.3,303.3c-14-8.1-25.4-27.8-25.4-44c0-4.8,1-8.9,3-12"/>
		<path id="XMLID_438_" class="st0" d="M389.2,330.4c0.2-2.7,0.8-5,1.9-6.9"/>
		<path id="XMLID_437_" class="st0" d="M417.4,369.1c-2.2,0-4.5-0.7-6.9-1.8"/>
		<path id="XMLID_436_" class="st0" d="M213.7,274.4c-16.8-9.7-30.5-33.3-30.5-52.8s13.6-27.3,30.5-17.6"/>
		<path id="XMLID_435_" class="st0" d="M458.1,345.1c16.8,9.7,30.5,33.4,30.5,52.8c0,19.4-13.6,27.3-30.5,17.6l0,0"/>
	</g>
	<g>
		<path id="XMLID_434_" class="st0" d="M286.8,134.5c1.6,0.5,1.6,0.5,3.2,0.9c2.1,0.8,2.1,0.8,4.2,1.6c2.8,1.3,2.8,1.3,5.6,2.7"/>
		<path id="XMLID_433_" class="st0" d="M380.3,190.8c1.3-0.1,1.3-0.1,2.7-0.1c1.4,0.2,1.4,0.2,2.8,0.4c0.7,0.2,0.7,0.2,1.5,0.4
			c0.7,0.2,0.7,0.2,1.5,0.5c1.4,0.6,1.4,0.6,2.8,1.2c1,0.6,1,0.6,2.1,1.1"/>
		<path id="XMLID_432_" class="st0" d="M393.7,194.3C421,210,421,210,448.2,225.8c0.7,0.4,0.7,0.4,1.3,0.8c0.6,0.5,0.6,0.5,1.2,1"/>
		<path id="XMLID_431_" class="st0" d="M448.3,230.1c44.1,25.4,44.2,25.4,88.2,50.9c5.2,3.5,5.2,3.5,10.2,7.2c4.3,4,4.3,4,8.5,8.1
			c4.5,5.4,4.5,5.4,8.8,10.9c3.8,6.1,3.8,6.1,7.5,12.2c3,6.4,3,6.4,5.9,13c2,6.5,2,6.5,3.9,13.1c1,6.3,1,6.3,1.8,12.6
			c0,5.3,0,5.3-0.3,10.6c-1,4.8-1,4.8-2.2,9.6c-2,3.9-2,4-4.1,7.8"/>
		<path id="XMLID_430_" class="st0" d="M290,135.4c4.9,2.1,4.9,2.1,9.8,4.3c1.5,0.7,1.5,0.7,2.9,1.5c4.7,2.7,4.7,2.7,9.4,5.4"/>
		<path id="XMLID_429_" class="st0" d="M314.9,148.2c9.4,5.3,9.4,5.3,18.8,10.7c14.6,8.4,14.6,8.4,29.3,16.9
			c29.7,17.3,29.7,17.3,59.3,34.6c9.8,5.6,9.8,5.6,19.5,11.2"/>
		<path id="XMLID_428_" class="st0" d="M495.1,252.2c25,14.4,25,14.4,49.9,28.9c4.9,3.1,4.9,3.1,9.7,6.4c5.8,5.2,5.8,5.2,11.5,10.7
			c5,6.7,5,6.7,9.8,13.6c3.7,7.5,3.7,7.6,7.1,15.2c2,7.6,1.9,7.7,3.8,15.3c0.1,0.6,0.1,0.6,0.1,1.2"/>
		<path id="XMLID_427_" class="st0" d="M576.6,386.1c1.5-2,1.5-2,2.9-4.1c1.7-3.8,1.7-3.8,3.4-7.6c2.1-6.2,2.1-6.2,4.2-12.3"/>
		<path id="XMLID_426_" class="st0" d="M587,362.1c0-7.8,0-7.8,0-15.5c-0.1-1.6-0.1-1.6-0.2-3.2c-1.9-7.9-1.8-7.9-3.9-15.8
			c-1.3-2.9-1.4-2.9-2.7-5.7c-2.3-5-2.2-5-4.6-10c-1.9-2.7-2-2.6-3.9-5.3c-3.1-4.4-3-4.5-6.2-8.8c-5.8-5.6-5.8-5.6-11.8-11"/>
		<path id="XMLID_425_" class="st0" d="M238.9,149l4.9-3.3"/>
		<path id="XMLID_424_" class="st0" d="M265.7,142.9l6.7-4.2l6.7-4l7.7-0.3"/>
		<path id="XMLID_423_" class="st0" d="M266.3,148.3v-0.2l3.7-2.4"/>
		<path id="XMLID_422_" class="st0" d="M266.3,148.1l-1-0.2"/>
		<path id="XMLID_421_" class="st0" d="M285.3,138v-1.4l-0.5,0.1l-9.3,5.5l-4.3,2.7"/>
		<path id="XMLID_420_" class="st0" d="M285.3,136.6l6.8,3.3l88.2,50.9"/>
		<path id="XMLID_419_" class="st0" d="M450.7,227.6l0.3,1l-0.8,0.9l-1.9,0.6"/>
		<path id="XMLID_418_" class="st0" d="M576.6,386.1l-2.6,2.5"/>
		<path id="XMLID_417_" class="st0" d="M312.1,146.5l-8.1-4.7l-1.3-0.7"/>
		<path id="XMLID_416_" class="st0" d="M312.8,146.9l-0.8-0.4l2.9,1.6L312.8,146.9"/>
		<path id="XMLID_415_" class="st0" d="M317.4,149.6l-2.5-1.4"/>
		<path id="XMLID_414_" class="st0" d="M441.8,221.5l-2.7-1.6"/>
		<path id="XMLID_413_" class="st0" d="M378,196.3l-0.2,0.1"/>
		<path id="XMLID_412_" class="st0" d="M380.3,190.8v0.5"/>
		<path id="XMLID_411_" class="st0" d="M441.8,221.5l8.6,4.9l-2-1.1"/>
		<path id="XMLID_410_" class="st0" d="M448.3,231.2v-1.1"/>
		<path id="XMLID_409_" class="st0" d="M450.5,226.4l2.4,1.4l-3-1.8"/>
		<path id="XMLID_408_" class="st0" d="M452.9,227.9l3.3,1.9l-2.9-1.6l1.4,0.8"/>
		<path id="XMLID_407_" class="st0" d="M456.2,229.7l2.9,1.7l-1.1-0.7"/>
		<path id="XMLID_406_" class="st0" d="M459.1,231.4l2.9,1.6L459.1,231.4"/>
		<path id="XMLID_405_" class="st0" d="M462,233l25.9,15l-2.9-1.7"/>
		<path id="XMLID_404_" class="st0" d="M487.9,248l2.9,1.7L487.9,248"/>
		<path id="XMLID_403_" class="st0" d="M490.8,249.7l4.2,2.5"/>
		<path id="XMLID_402_" class="st0" d="M572.3,390.2l-1.6,1.6l-3.6,1.5"/>
		<path id="XMLID_401_" class="st0" d="M579.5,382.1l1.3-3.7"/>
		<path id="XMLID_400_" class="st0" d="M580.7,378.3l3.2-9.3"/>
		<path id="XMLID_399_" class="st0" d="M450.7,229l-0.2-0.3"/>
		<path id="XMLID_398_" class="st0" d="M245.6,144.6c5.6-3,12.5-3.6,20.1-1.7"/>
		<path id="XMLID_397_" class="st0" d="M238.1,149.6c2.4-1.8,5.2-3.1,8.2-3.8"/>
		<path id="XMLID_396_" class="st0" d="M246.3,145.8c4-0.9,8.4-0.9,13.1,0.1"/>
	</g>
	<g>
		<path id="XMLID_395_" class="st0" d="M293.9,167.8l-9,5"/>
		<path id="XMLID_394_" class="st0" d="M288.9,157.1L288.9,157.1"/>
		<path id="XMLID_393_" class="st0" d="M296.2,179.4l9-5"/>
		<path id="XMLID_392_" class="st0" d="M300.2,163.6L300.2,163.6"/>
		<path id="XMLID_391_" class="st0" d="M307.5,185.9l9-5"/>
		<path id="XMLID_390_" class="st0" d="M311.5,170.1L311.5,170.1"/>
		<path id="XMLID_389_" class="st0" d="M318.8,192.4l9-5"/>
		<path id="XMLID_388_" class="st0" d="M322.8,176.6L322.8,176.6"/>
		<path id="XMLID_387_" class="st0" d="M339.1,193.9l-9,5"/>
		<path id="XMLID_386_" class="st0" d="M334,183.1L334,183.1"/>
		<path id="XMLID_385_" class="st0" d="M350.3,200.4l-9,5"/>
		<path id="XMLID_384_" class="st0" d="M345.3,189.6L345.3,189.6"/>
		<path id="XMLID_383_" class="st0" d="M352.6,211.9l9-5"/>
		<path id="XMLID_382_" class="st0" d="M356.5,196.1L356.5,196.1"/>
		<path id="XMLID_381_" class="st0" d="M363.9,218.4l9-5"/>
		<path id="XMLID_380_" class="st0" d="M367.9,202.7L367.9,202.7"/>
		<path id="XMLID_379_" class="st0" d="M379.1,209.2L379.1,209.2"/>
		<path id="XMLID_378_" class="st0" d="M390.4,215.7L390.4,215.7"/>
		<path id="XMLID_377_" class="st0" d="M401.7,222.2L401.7,222.2"/>
		<path id="XMLID_376_" class="st0" d="M409,244.5l9-5"/>
		<path id="XMLID_375_" class="st0" d="M413,228.7L413,228.7"/>
		<path id="XMLID_374_" class="st0" d="M429.2,246l-9,5"/>
		<path id="XMLID_373_" class="st0" d="M424.3,235.2L424.3,235.2"/>
		<path id="XMLID_372_" class="st0" d="M431.6,257.5l9-5"/>
		<path id="XMLID_371_" class="st0" d="M435.5,241.7L435.5,241.7"/>
		<path id="XMLID_370_" class="st0" d="M442.9,264l9-5"/>
		<path id="XMLID_369_" class="st0" d="M446.8,248.3L446.8,248.3"/>
		<path id="XMLID_368_" class="st0" d="M454.1,270.5l9-5"/>
		<path id="XMLID_367_" class="st0" d="M458.1,254.8L458.1,254.8"/>
		<path id="XMLID_366_" class="st0" d="M474.4,272l-9,5"/>
		<path id="XMLID_365_" class="st0" d="M469.4,261.3L469.4,261.3"/>
		<path id="XMLID_364_" class="st0" d="M485.7,278.6l-9,5"/>
		<path id="XMLID_363_" class="st0" d="M480.7,267.8L480.7,267.8"/>
		<path id="XMLID_362_" class="st0" d="M488,290.1l9-5"/>
		<path id="XMLID_361_" class="st0" d="M492,274.3L492,274.3"/>
		<path id="XMLID_360_" class="st0" d="M503.2,280.8L503.2,280.8"/>
		<path id="XMLID_359_" class="st0" d="M514.5,287.3L514.5,287.3"/>
	</g>
	<g>
		<path id="XMLID_358_" class="st0" d="M336.5,159.8l-0.6,0.3"/>
		<path id="XMLID_357_" class="st0" d="M347.6,162l188,108.5"/>
		<path id="XMLID_356_" class="st0" d="M336.5,159.8c3.2-0.8,7.1-0.1,11.1,2.2"/>
		<path id="XMLID_355_" class="st0" d="M535.6,270.6c4.5,2.6,8.9,7,12.3,12.3"/>
	</g>
	<g>
		<path id="XMLID_354_" class="st0" d="M210.3,293v-4.5v8.3"/>
		<path id="XMLID_353_" class="st0" d="M210.3,288.5v-8.7v2.9"/>
		<path id="XMLID_352_" class="st0" d="M210.3,279.8v-1.6"/>
		<path id="XMLID_351_" class="st0" d="M222.2,310.3l248.1,143.3"/>
		<path id="XMLID_350_" class="st0" d="M218.3,283.3l4,3.1l248.1,143.3"/>
		<path id="XMLID_349_" class="st0" d="M500.5,460.8v-23.9"/>
		<path id="XMLID_348_" class="st0" d="M530.5,453.6l86.5-49.9"/>
		<path id="XMLID_347_" class="st0" d="M650.9,425.4v-65.1l-120.3,69.5"/>
		<path id="XMLID_346_" class="st0" d="M562.5,435.1l35.7,20.6"/>
		<path id="XMLID_345_" class="st0" d="M579.2,318.9l71.7,41.4"/>
		<path id="XMLID_344_" class="st0" d="M614.2,457.3l30.1-17.3"/>
		<path id="XMLID_343_" class="st0" d="M619.7,403.5l-0.4-0.2l0.9,0.5"/>
		<path id="XMLID_342_" class="st0" d="M620.8,405.8v36.9"/>
		<path id="XMLID_341_" class="st0" d="M530.5,429.7c-16.6,9.6-43.5,9.6-60.2,0"/>
		<path id="XMLID_340_" class="st0" d="M376.8,399.5c-8.8-2.2-15.8-6.2-19.5-11.3"/>
		<path id="XMLID_339_" class="st0" d="M222.2,310.3c-6.3-3.7-10.5-8.4-11.9-13.5"/>
		<path id="XMLID_338_" class="st0" d="M609.8,407.9c5.3,10.4,4.5,20.9-1.9,23.4c-5.6,2.2-13.7-2.5-19.3-11.1"/>
		<path id="XMLID_337_" class="st0" d="M620.8,442.7c0,14.4-10.1,20.2-22.6,13c0,0,0,0,0,0"/>
		<path id="XMLID_336_" class="st0" d="M650.9,425.4c0,6.9-2.4,12.2-6.6,14.6"/>
		<path id="XMLID_335_" class="st0" d="M530.5,453.6c-16.6,9.6-43.5,9.6-60.2,0"/>
		<path id="XMLID_334_" class="st0" d="M617,403.7c2.1-1.2,3.8-0.2,3.8,2.2c0,0,0,0,0,0"/>
	</g>
	<g>
		<path id="XMLID_333_" class="st0" d="M656.5,412.3c-0.3,0-0.3,0-0.6,0c-0.1,0-0.1,0-0.3-0.1c-0.3-0.1-0.3-0.1-0.5-0.2"/>
		<path id="XMLID_332_" class="st0" d="M658.9,410.5c-0.3,0.3-0.3,0.3-0.5,0.5c-0.5,0.3-0.5,0.3-0.9,0.7c-0.5,0.2-0.5,0.2-1,0.4"/>
		<path id="XMLID_331_" class="st0" d="M660.6,404.5c-0.2,0.3-0.2,0.3-0.4,0.6c-0.3,0.4-0.3,0.4-0.7,0.8c-0.3,0.2-0.3,0.2-0.7,0.4
			c-0.3,0.1-0.3,0.1-0.5,0.1"/>
		<path id="XMLID_330_" class="st0" d="M650.9,395.4c3.7,2.1,3.7,2.1,7.3,4.3c0.1,0,0.1,0,0.2,0.1c0.1,0,0.1,0,0.2,0
			c0.1,0,0.1,0,0.2,0c0.1,0,0.1,0,0.3-0.1c0.2-0.1,0.3-0.1,0.5-0.3c0.3-0.2,0.3-0.2,0.5-0.5c0.2-0.3,0.2-0.3,0.4-0.6
			c0.2-0.3,0.2-0.3,0.4-0.7"/>
		<path id="XMLID_329_" class="st0" d="M660,407.6c-0.3,0.3-0.3,0.3-0.5,0.6c-0.4,0.3-0.4,0.4-0.8,0.7c-0.4,0.2-0.4,0.2-0.8,0.4
			c-0.1,0-0.1,0-0.1,0c-0.3,0-0.3,0-0.6,0.1"/>
		<path id="XMLID_328_" class="st0" d="M660.8,390.8c-0.2,0.3-0.2,0.3-0.4,0.7c-0.2,0.3-0.2,0.3-0.4,0.6c-0.2,0.2-0.2,0.2-0.5,0.5
			c-0.2,0.1-0.3,0.1-0.5,0.3c-0.1,0.1-0.1,0.1-0.3,0.1c-0.1,0-0.1,0-0.2,0c-0.1,0-0.1,0-0.2,0c-0.1,0-0.1,0-0.2-0.1"/>
		<path id="XMLID_327_" class="st0" d="M660.8,401.2c-0.2,0.3-0.2,0.3-0.4,0.7c-0.3,0.4-0.3,0.4-0.6,0.8c-0.3,0.2-0.3,0.2-0.6,0.4
			c-0.2,0.1-0.2,0.1-0.5,0.2"/>
		<path id="XMLID_326_" class="st0" d="M658.2,396.2c0.1,0.1,0.1,0.1,0.2,0.1c0.1,0,0.1,0,0.2,0c0.1,0,0.1,0,0.2,0s0.1,0,0.3-0.1"/>
		<path id="XMLID_325_" class="st0" d="M659.1,396.2c0.2-0.1,0.3-0.1,0.5-0.3c0.3-0.2,0.3-0.2,0.5-0.5c0.2-0.3,0.2-0.3,0.4-0.6
			c0.2-0.3,0.2-0.3,0.4-0.7"/>
		<path id="XMLID_324_" class="st0" d="M657.5,411.9l-0.3,0.2l-0.7,0.2"/>
		<path id="XMLID_323_" class="st0" d="M655.2,412l-4.3-2.5"/>
		<path id="XMLID_322_" class="st0" d="M658,410l0.8,0.5"/>
		<path id="XMLID_321_" class="st0" d="M656.4,412h-0.7l-0.4-0.1l-4.4-2.6"/>
		<path id="XMLID_320_" class="st0" d="M655.1,408.3l-4.3-2.5"/>
		<path id="XMLID_319_" class="st0" d="M660,404.2l-0.1-0.1l0.7,0.4"/>
		<path id="XMLID_318_" class="st0" d="M658.2,406.4l-0.4-0.1l-0.1-0.1l-6.8-3.9"/>
		<path id="XMLID_317_" class="st0" d="M650.9,398.9l7.5,4.3"/>
		<path id="XMLID_316_" class="st0" d="M660.8,397.7l-10-5.8"/>
		<path id="XMLID_315_" class="st0" d="M650.9,388.5l7.7,4.5"/>
		<path id="XMLID_314_" class="st0" d="M659.9,390l-9-5.2"/>
		<path id="XMLID_313_" class="st0" d="M650.9,385l7.2,4.1l-0.1-0.1"/>
		<path id="XMLID_312_" class="st0" d="M657.4,412l3.8-2.2l0.1-0.1l1.6-3.6l0.9-6.6v-12.1v-9l-13-7.5"/>
		<path id="XMLID_311_" class="st0" d="M659,407.1l-0.1-0.1l1.1,0.6"/>
		<path id="XMLID_310_" class="st0" d="M657.2,409.4l-0.4-0.1l-3.9-2.3l1.6,0.9"/>
		<path id="XMLID_309_" class="st0" d="M652.4,385.9l1.5,0.9l-0.6-0.3"/>
		<path id="XMLID_308_" class="st0" d="M657.1,409.4l-0.3-0.2l1.2,0.7l-0.1-0.1l0.1,0"/>
		<path id="XMLID_307_" class="st0" d="M658,410l0.3,0.2"/>
		<path id="XMLID_306_" class="st0" d="M657.2,412.1l4-2.3"/>
		<path id="XMLID_305_" class="st0" d="M657.4,409.6l-2.2-1.3L657.4,409.6"/>
		<path id="XMLID_304_" class="st0" d="M657.6,409.8l0.3,0.1L657.6,409.8"/>
		<path id="XMLID_303_" class="st0" d="M657.9,409.9l-0.3-0.2"/>
		<path id="XMLID_302_" class="st0" d="M657.9,409.9l-0.3-0.1"/>
		<path id="XMLID_301_" class="st0" d="M657.1,409.4l-1.9-1.1l1.6,0.9"/>
		<path id="XMLID_300_" class="st0" d="M657.4,409.6l-2.2-1.3L657.4,409.6"/>
		<path id="XMLID_299_" class="st0" d="M657.7,406.3l1.4,0.8"/>
		<path id="XMLID_298_" class="st0" d="M657.7,406.3l-2.6-1.5l2.8,1.6"/>
		<path id="XMLID_297_" class="st0" d="M657.8,406.4l-2.7-1.5l2.6,1.5"/>
		<path id="XMLID_296_" class="st0" d="M657.9,406.4l-2.8-1.6L657.9,406.4l-2.8-1.6L657.9,406.4"/>
		<path id="XMLID_295_" class="st0" d="M658,399.5L658,399.5"/>
		<path id="XMLID_294_" class="st0" d="M657,398.9l-1-0.6"/>
		<path id="XMLID_293_" class="st0" d="M658.7,393l2.1,1.2l-2.8-1.6l0,0"/>
		<path id="XMLID_292_" class="st0" d="M655.7,387.8l5.1,2.9"/>
		<path id="XMLID_291_" class="st0" d="M658.5,410.3l0.3,0.2"/>
		<path id="XMLID_290_" class="st0" d="M658.4,410.2L658.4,410.2"/>
		<path id="XMLID_289_" class="st0" d="M658.1,406.5l0.8,0.5l-0.4-0.2"/>
		<path id="XMLID_288_" class="st0" d="M658.9,407l-0.5-0.3"/>
		<path id="XMLID_287_" class="st0" d="M659.7,407.5l-0.4-0.2"/>
		<path id="XMLID_286_" class="st0" d="M659.5,407.4L659.5,407.4"/>
		<path id="XMLID_285_" class="st0" d="M660,404.2L660,404.2l0.1,0.1"/>
		<path id="XMLID_284_" class="st0" d="M660,404.2l-0.1-0.1l0.4,0.2"/>
		<path id="XMLID_283_" class="st0" d="M660.1,404.2l-0.2-0.1L660.1,404.2"/>
		<path id="XMLID_282_" class="st0" d="M658.9,407l-0.5-0.3"/>
		<path id="XMLID_281_" class="st0" d="M658.1,406.5L658.1,406.5"/>
		<path id="XMLID_280_" class="st0" d="M660,404.2l-0.5-0.3l0.4,0.3l-0.1,0"/>
		<path id="XMLID_279_" class="st0" d="M660.4,400.9l0.4,0.2"/>
		<path id="XMLID_278_" class="st0" d="M658.7,403.2l-0.4,0l-0.2-0.1l1.3,0.8"/>
		<path id="XMLID_277_" class="st0" d="M658.1,403.1L658,403L658.1,403.1"/>
		<path id="XMLID_276_" class="st0" d="M659.9,404.1L659.9,404.1L659.9,404.1"/>
		<path id="XMLID_275_" class="st0" d="M658.5,403.3l0.2,0.1"/>
		<path id="XMLID_274_" class="st0" d="M659.8,404.1l-0.4-0.2"/>
		<path id="XMLID_273_" class="st0" d="M659.5,403.9L659.5,403.9"/>
		<path id="XMLID_272_" class="st0" d="M659,403.6L659,403.6l0.9,0.5l-0.1,0"/>
		<path id="XMLID_271_" class="st0" d="M659.9,404.1l-0.1-0.1"/>
		<path id="XMLID_270_" class="st0" d="M659.8,404l-0.4-0.2"/>
		<path id="XMLID_269_" class="st0" d="M658,403l0.3,0.2"/>
		<path id="XMLID_268_" class="st0" d="M659.3,400.3v-0.8"/>
		<path id="XMLID_267_" class="st0" d="M658.2,399.7l0.4,0.2"/>
		<path id="XMLID_266_" class="st0" d="M658.6,399.9l1.8,1.1l-0.1-0.1"/>
		<path id="XMLID_265_" class="st0" d="M659,400.1l0.9,0.5"/>
		<path id="XMLID_264_" class="st0" d="M660.4,400.9L660.4,400.9L660.4,400.9"/>
		<path id="XMLID_263_" class="st0" d="M659,400.1l-0.5-0.3"/>
		<path id="XMLID_262_" class="st0" d="M658.4,399.7l1.5,0.9"/>
		<path id="XMLID_261_" class="st0" d="M659,400.1l-0.6-0.3"/>
		<path id="XMLID_260_" class="st0" d="M659.3,396.8v-0.8"/>
		<path id="XMLID_259_" class="st0" d="M658.7,396.5l2.1,1.2l-2.6-1.5"/>
		<path id="XMLID_258_" class="st0" d="M658.2,396.2L658.2,396.2"/>
		<path id="XMLID_257_" class="st0" d="M660.8,394.2l-1.8-1l0.8,0.5"/>
		<path id="XMLID_256_" class="st0" d="M658.7,396.5l0.3,0.2"/>
		<path id="XMLID_255_" class="st0" d="M660,397.2l-1.3-0.7"/>
		<path id="XMLID_254_" class="st0" d="M660,397.2l-0.9-0.5"/>
		<path id="XMLID_253_" class="st0" d="M659.3,393.4v-0.8"/>
		<path id="XMLID_252_" class="st0" d="M659.1,393.2l-0.5-0.3l1.8,1.1v0"/>
		<path id="XMLID_251_" class="st0" d="M660.4,394L660.4,394"/>
		<path id="XMLID_250_" class="st0" d="M658.7,393l0.4,0.2"/>
		<path id="XMLID_249_" class="st0" d="M659.3,389.9v-0.2l4.5-2.6"/>
		<path id="XMLID_248_" class="st0" d="M660.8,390.8l-1.3-0.7"/>
		<path id="XMLID_247_" class="st0" d="M659.2,389.8l-0.3-0.2l0.6,0.4"/>
		<path id="XMLID_246_" class="st0" d="M658.6,389.5l-0.4-0.2l0.3,0.2"/>
		<path id="XMLID_245_" class="st0" d="M658.8,389.6L658.8,389.6L658.8,389.6"/>
		<path id="XMLID_244_" class="st0" d="M658.6,389.5l-0.6-0.3l0.9,0.5"/>
		<path id="XMLID_243_" class="st0" d="M658,389.1l0.4,0.3"/>
		<path id="XMLID_242_" class="st0" d="M663.8,399.4v-8.7v-12.4"/>
		<path id="XMLID_241_" class="st0" d="M663.8,386.7v0.7"/>
		<path id="XMLID_240_" class="st0" d="M663.8,387.7v-1.5"/>
		<path id="XMLID_239_" class="st0" d="M663.8,387.6v0.7v2.4"/>
		<path id="XMLID_238_" class="st0" d="M663.8,386.3L663.8,386.3"/>
		<path id="XMLID_237_" class="st0" d="M663.8,386.3v-2.4"/>
	</g>
	<g>
		<path id="XMLID_236_" class="st0" d="M612.7,425.3l-1.9,1.1l-3.2,1.5l-0.3,0.1h-0.3l-3.9-0.3l-4.3-2.1l-0.1-0.1l-4.1-3.6l-2.9-3.8
			"/>
		<path id="XMLID_235_" class="st0" d="M605.1,410.5l0.4,0.5v7.7l-5.8,0.5l-3-3.8"/>
		<path id="XMLID_234_" class="st0" d="M612.5,415.1l0.4,3.8v0.8l-0.7,3.6l-0.3,0.6l-1.8,2.6l-0.5,0.3l-2.6,1.2l-0.7,0l-3.3-0.3
			l-0.7-0.3l-3.5-1.7l0,0"/>
		<path id="XMLID_233_" class="st0" d="M599.7,419.2l5.8-3.3"/>
		<path id="XMLID_232_" class="st0" d="M604.2,411.1l1.3,1.6"/>
		<path id="XMLID_231_" class="st0" d="M604.2,411.1l0.1,0.2l0.6,0.7l0.6,0.6"/>
	</g>
	<g>
		<path id="XMLID_230_" class="st0" d="M193.8,204l5.9-3.4l-6.4,3.7L193.8,204"/>
		<path id="XMLID_229_" class="st0" d="M192.9,204.6l0.5-0.3"/>
		<path id="XMLID_228_" class="st0" d="M199.8,200.6l4.8-0.1"/>
		<path id="XMLID_227_" class="st0" d="M484.1,412l0.5-0.3h-0.1"/>
		<path id="XMLID_226_" class="st0" d="M487.6,406.7l-3.5,5.3"/>
		<path id="XMLID_225_" class="st0" d="M487.9,407l-3.4,4.7"/>
		<path id="XMLID_224_" class="st0" d="M192.9,204.6c3.2-3.3,7.6-4.7,12.7-4.1"/>
	</g>
	<g>
		<path id="XMLID_223_" class="st0" d="M260.6,254.7c-0.7,3.9-0.7,4-1.2,8c0.5,4.6,0.5,4.7,1.2,9.4c1.6,4.9,1.6,4.9,3.4,9.8
			c2.6,4.7,2.6,4.7,5.4,9.3c3.3,4,3.3,4,6.8,7.9c3.7,2.9,3.7,2.9,7.5,5.7"/>
		<path id="XMLID_222_" class="st0" d="M192.8,204.6l0.1,0"/>
		<path id="XMLID_221_" class="st0" d="M199.2,201l0.1-0.1"/>
		<path id="XMLID_220_" class="st0" d="M216.2,271.2l244.4,141.1"/>
		<path id="XMLID_219_" class="st0" d="M227.2,261.5L227.2,261.5"/>
		<path id="XMLID_218_" class="st0" d="M263.9,248.9L263.9,248.9"/>
		<path id="XMLID_217_" class="st0" d="M283.6,304.7l23.1,13.4"/>
		<path id="XMLID_216_" class="st0" d="M306.8,318.1l-23.2-13.4"/>
		<path id="XMLID_215_" class="st0" d="M281.5,247.5l25.4,14.7"/>
		<path id="XMLID_214_" class="st0" d="M415.1,370.1L415.1,370.1"/>
		<path id="XMLID_213_" class="st0" d="M484,412L484,412"/>
		<path id="XMLID_212_" class="st0" d="M193.7,203.8l-0.9,0.8"/>
		<path id="XMLID_211_" class="st0" d="M484.1,412l3.5-5.3"/>
		<path id="XMLID_210_" class="st0" d="M228.9,260.5l1.4-0.9"/>
		<path id="XMLID_209_" class="st0" d="M265.2,247.8l-1.2,1l-3.4,5.8"/>
		
			<ellipse id="XMLID_208_" transform="matrix(-0.866 0.5 -0.5 -0.866 1049.0461 476.6142)" class="st0" cx="460.7" cy="378.9" rx="10.3" ry="17.8"/>
		<path id="XMLID_207_" class="st0" d="M468.6,394.7c-5.4,1.9-13.3-3.6-17.7-12.4c-3.4-6.9-3.7-13.9-0.8-17.5"/>
		<path id="XMLID_206_" class="st0" d="M216.2,271.2c-16-9.2-28.9-31.7-28.9-50.1c0-7.6,2.3-13.7,6.4-17.3"/>
		<path id="XMLID_205_" class="st0" d="M193.7,203.8c3.1-2.7,7.2-3.8,11.9-3.2"/>
		<path id="XMLID_204_" class="st0" d="M197.6,201.5c2.4-1,5.1-1.3,8-0.9"/>
		
			<ellipse id="XMLID_203_" transform="matrix(-0.866 0.5 -0.5 -0.866 927.5289 444.0458)" class="st0" cx="404.3" cy="346.3" rx="15.2" ry="26.4"/>
		<path id="XMLID_202_" class="st0" d="M415.2,370c-8.3,2.2-20-6.7-26-19.8c-4.5-9.8-4.8-19.6-0.6-24.7"/>
		<path id="XMLID_201_" class="st0" d="M487.5,406.7c-4.4,10.2-15,12.4-26.9,5.6"/>
		<path id="XMLID_200_" class="st0" d="M304.7,260.9c13.4,6.4,25.1,24.6,26.3,40.7c1.2,16.1-8.7,24-22.1,17.6
			c-0.7-0.3-1.4-0.7-2.1-1.1"/>
		<path id="XMLID_199_" class="st0" d="M323.3,320.1c-4.5,2.2-10.4,1.4-16.4-2.1"/>
		
			<ellipse id="XMLID_198_" transform="matrix(-0.866 0.5 -0.5 -0.866 522.4413 335.5058)" class="st0" cx="216.3" cy="237.7" rx="15.2" ry="26.4"/>
		<path id="XMLID_197_" class="st0" d="M229.4,260.6c-7.3,4.2-19.1-2.6-26.4-15.2c-5.9-10.2-7.2-21.3-3.2-27.4"/>
		<path id="XMLID_196_" class="st0" d="M283.6,304.7c-13.4-7.7-24.3-26.6-24.3-42c0-6.7,2.1-11.9,5.8-14.8"/>
		<path id="XMLID_195_" class="st0" d="M265.2,247.8c4.1-3.2,10-3.3,16.3-0.3"/>
	</g>
	<g>
		<path id="XMLID_194_" class="st0" d="M276.2,290.5l-1.8-2"/>
		<path id="XMLID_193_" class="st0" d="M276.4,290.4l-1.8-2"/>
		<path id="XMLID_192_" class="st0" d="M312.6,316l-23.2-13.4"/>
		<path id="XMLID_191_" class="st0" d="M312.8,315.9l-23.3-13.4"/>
		<path id="XMLID_190_" class="st0" d="M202.7,215.9l-0.6,3.9"/>
		<path id="XMLID_189_" class="st0" d="M203.2,215l-0.3,0.9l-0.9,3.9"/>
		<path id="XMLID_188_" class="st0" d="M224.4,258.8l3.7,1.4"/>
		<path id="XMLID_187_" class="st0" d="M229.4,260.4l-0.9-0.2l-3.5-1.1"/>
		<path id="XMLID_186_" class="st0" d="M390.7,324.8l-0.6,4.1"/>
		<path id="XMLID_185_" class="st0" d="M391.2,323.5l-0.3,0.9l-0.9,3.9"/>
		<path id="XMLID_184_" class="st0" d="M412.4,367.4l3.7,1.4"/>
		<path id="XMLID_183_" class="st0" d="M417.5,368.9l-1-0.1l-3.5-1.1"/>
		<path id="XMLID_182_" class="st0" d="M274.7,288.3c-10.2-14.4-13.4-32.1-7.6-41.6"/>
		<path id="XMLID_181_" class="st0" d="M274.7,288.3c-10.2-14.5-13.4-32.3-7.5-41.8"/>
		<path id="XMLID_180_" class="st0" d="M289.6,302.5c-4.7-2.7-9.3-6.9-13.3-12"/>
		<path id="XMLID_179_" class="st0" d="M289.6,302.5c-4.7-2.7-9.3-6.9-13.3-12"/>
		<path id="XMLID_178_" class="st0" d="M324.4,319.4c-3.6,0.1-7.6-1.1-11.7-3.5"/>
		<path id="XMLID_177_" class="st0" d="M324.7,319.4c-3.7,0.1-7.8-1.1-11.9-3.4"/>
		<path id="XMLID_176_" class="st0" d="M469.9,393.8c-7.9-2.5-15.8-12.7-17.6-22.9c-0.5-2.8-0.5-5.4,0-7.6"/>
		<path id="XMLID_175_" class="st0" d="M470.1,393.9c-7.9-2.3-15.8-12.4-17.7-22.6c-0.6-3-0.6-5.8,0-8.1"/>
	</g>
	<g>
		<path id="XMLID_174_" class="st0" d="M314.9,297.4c-0.8,0.1-0.8,0.1-1.7,0.1c-1.4,0-1.4,0-2.7-0.1c-0.9-0.3-0.9-0.3-1.9-0.6
			c-1.5-0.7-1.5-0.7-3-1.3c-1-0.6-0.9-0.7-1.9-1.3c-1.5-1.2-1.5-1.2-3-2.4c-0.9-0.9-0.9-0.9-1.7-1.8c-1.3-1.6-1.3-1.6-2.7-3.3
			c-0.7-1.1-0.7-1.1-1.4-2.2c-1.1-1.9-1.1-1.9-2.1-3.9c-0.5-1.1-0.5-1.1-0.9-2.3c-0.7-2-0.7-2-1.3-4.1c-0.2-1.1-0.2-1.1-0.4-2.2
			c-0.2-2-0.2-2-0.4-3.9c0.1-0.9,0.1-0.9,0.2-1.9c0.3-1.6,0.3-1.6,0.6-3.3c0.3-0.7,0.4-0.7,0.7-1.4c0.8-1.2,0.8-1.2,1.5-2.4"/>
		<path id="XMLID_173_" class="st0" d="M320.5,291.9l-2.1,3.6l-1.3,0.8l-2.2,1.2"/>
		<path id="XMLID_172_" class="st0" d="M292.8,259.2l1.2-0.7l2.3-1.3l2,0"/>
		<path id="XMLID_171_" class="st0" d="M294.3,258.9l2.8-1.6h1.3"/>
		<path id="XMLID_170_" class="st0" d="M297.1,257.2l-0.3,0"/>
		<path id="XMLID_169_" class="st0" d="M320.5,291.7l-1.8,3l-3,1.7l1.8-1.1"/>
		<path id="XMLID_168_" class="st0" d="M318.5,295.1l0.2-0.3l-3,1.7"/>
		<path id="XMLID_167_" class="st0" d="M320.5,291.9l0.8-5.3"/>
		<path id="XMLID_166_" class="st0" d="M395.9,322.3l-0.8,1.9"/>
		<path id="XMLID_165_" class="st0" d="M420.8,365.6l-2.2-0.3"/>
		<path id="XMLID_164_" class="st0" d="M207.2,213.8l-1.2,2.6"/>
		<path id="XMLID_163_" class="st0" d="M232.5,257.6l-2.8-0.3"/>
		<path id="XMLID_162_" class="st0" d="M295.9,257.9l-1.2,2.1"/>
		<path id="XMLID_161_" class="st0" d="M394.2,324.5l1-2.2"/>
		<path id="XMLID_160_" class="st0" d="M420.5,366.1l-2.9-0.3"/>
		<path id="XMLID_159_" class="st0" d="M207,215.8l0.9-2"/>
		<path id="XMLID_158_" class="st0" d="M232.8,257l-2.2-0.3"/>
		<path id="XMLID_157_" class="st0" d="M314.4,267.8c4.2,5.8,6.7,12.7,6.9,18.8"/>
		<path id="XMLID_156_" class="st0" d="M318.6,295.1c-1.1,0.5-2.4,0.7-3.8,0.6"/>
	</g>
	<g>
		<path id="XMLID_155_" class="st0" d="M275.1,291.1l-1.8-2.1"/>
		<path id="XMLID_154_" class="st0" d="M275.3,291l-1.8-2"/>
		<path id="XMLID_153_" class="st0" d="M288.3,303.3l23.2,13.4"/>
		<path id="XMLID_152_" class="st0" d="M288.5,303.2l23.2,13.4"/>
		<path id="XMLID_151_" class="st0" d="M323.2,320c-3.6,0.1-7.6-1.1-11.6-3.5"/>
		<path id="XMLID_150_" class="st0" d="M323.5,320c-3.7,0.1-7.8-1.1-11.9-3.4"/>
		<path id="XMLID_149_" class="st0" d="M273.5,289c-10.2-14.4-13.4-32.1-7.6-41.6"/>
		<path id="XMLID_148_" class="st0" d="M273.5,289c-10.2-14.5-13.4-32.3-7.5-41.8"/>
		<path id="XMLID_147_" class="st0" d="M288.3,303.1c-4.6-2.7-9.1-6.8-13.1-11.9"/>
		<path id="XMLID_146_" class="st0" d="M288.4,303.2c-4.7-2.7-9.3-6.9-13.3-12"/>
	</g>
	<g>
		<path id="XMLID_145_" class="st0" d="M274.6,288.3l1.8,2"/>
		<path id="XMLID_144_" class="st0" d="M312.8,315.9l-23.3-13.4"/>
		<path id="XMLID_143_" class="st0" d="M203.2,215l-0.3,0.9l-0.9,3.9"/>
		<path id="XMLID_142_" class="st0" d="M225,259.1l3.5,1.1l0.9,0.1"/>
		<path id="XMLID_141_" class="st0" d="M391.2,323.5l-0.3,0.9l-0.9,3.9"/>
		<path id="XMLID_140_" class="st0" d="M417.5,368.9l-1-0.1l-3.5-1.1"/>
		<path id="XMLID_139_" class="st0" d="M470.1,393.9c-7.9-2.3-15.8-12.4-17.7-22.6c-0.6-3-0.6-5.8,0-8.1"/>
		<path id="XMLID_138_" class="st0" d="M324.7,319.4c-3.7,0.1-7.8-1.1-11.9-3.4"/>
		<path id="XMLID_137_" class="st0" d="M274.7,288.3c-10.2-14.5-13.4-32.3-7.5-41.8"/>
		<path id="XMLID_136_" class="st0" d="M289.6,302.5c-4.7-2.7-9.3-6.9-13.3-12"/>
	</g>
	<g>
		<path id="XMLID_135_" class="st0" d="M211.8,232.5c0.1,0.3,0.1,0.3,0.1,0.6c0.7,2,0.7,2,1.4,3.9c1,1.9,1,1.9,2.1,3.7
			c1.3,1.6,1.3,1.6,2.7,3.1c0.3,0.2,0.3,0.2,0.5,0.4"/>
		<path id="XMLID_134_" class="st0" d="M406.5,352.8c-0.3-0.2-0.3-0.2-0.5-0.4c-1.4-1.6-1.4-1.5-2.7-3.1c-1.1-1.8-1.1-1.8-2.1-3.7
			c-0.7-1.9-0.7-1.9-1.4-3.9c-0.1-0.3-0.1-0.3-0.1-0.6"/>
		<path id="XMLID_133_" class="st0" d="M207.4,215.6l0.9-0.5l-4.6,2.7"/>
		<path id="XMLID_132_" class="st0" d="M209.4,227.2v0.1"/>
		<path id="XMLID_131_" class="st0" d="M208.3,215.1l2-1.2"/>
		<path id="XMLID_130_" class="st0" d="M221.9,248.9L221.9,248.9"/>
		<path id="XMLID_129_" class="st0" d="M226.4,258.8l-0.5-0.8h0l0,0.2l0.4,0.7"/>
		<path id="XMLID_128_" class="st0" d="M225.9,258l1.6-0.6"/>
		<path id="XMLID_127_" class="st0" d="M226.9,257.8l3.6-2.1l0.7-0.8"/>
		<path id="XMLID_126_" class="st0" d="M227.4,258.6l6.5-3.8"/>
		<path id="XMLID_125_" class="st0" d="M231.2,255v0.1l0.4,0.7"/>
		<path id="XMLID_124_" class="st0" d="M294,260.4l4.9-2.8"/>
		<path id="XMLID_123_" class="st0" d="M297.8,258.2l0.1-0.6l0.6-0.3"/>
		<path id="XMLID_122_" class="st0" d="M297.9,257.6l0.4,0.3"/>
		<path id="XMLID_121_" class="st0" d="M313.2,296.1l0.1-0.1l-0.7-1.2l0,0.3L313.2,296.1"/>
		<path id="XMLID_120_" class="st0" d="M314.5,295.9l5.4-3.2"/>
		<path id="XMLID_119_" class="st0" d="M318.3,293.7l0.5,0.2l0.6-0.4"/>
		<path id="XMLID_118_" class="st0" d="M318.7,293l-0.1,0.1l-0.6-1v-0.3"/>
		<path id="XMLID_117_" class="st0" d="M395.3,324.1l2.9-1.7"/>
		<path id="XMLID_116_" class="st0" d="M397.4,335.8v-0.1"/>
		<path id="XMLID_115_" class="st0" d="M409.9,357.5L409.9,357.5"/>
		<path id="XMLID_114_" class="st0" d="M414.3,367.4l-0.4-0.7v-0.2h0l0.5,0.8L414.3,367.4"/>
		<path id="XMLID_113_" class="st0" d="M413.9,366.6l1.6-0.6"/>
		<path id="XMLID_112_" class="st0" d="M418.6,364.2l-3.7,2.2"/>
		<path id="XMLID_111_" class="st0" d="M419.3,363.5l-0.1,0.2l0.4,0.7l0.1-0.1"/>
		<path id="XMLID_110_" class="st0" d="M419.1,365l2.8-1.6"/>
		<path id="XMLID_109_" class="st0" d="M419.6,364.4l-0.5,0.6l-3.7,2.2l-0.9,0.2"/>
		<path id="XMLID_108_" class="st0" d="M416.9,365.5l-1.3,0.5"/>
		<path id="XMLID_107_" class="st0" d="M418,364.6l1.3-1.1l-0.5,0.6"/>
		<path id="XMLID_106_" class="st0" d="M226,258.2l1-0.2l2-0.9l-0.4,0.3"/>
		<path id="XMLID_105_" class="st0" d="M231.2,255.1l-0.6,0.7l-1.6,1.3l0.3-0.2"/>
		<path id="XMLID_104_" class="st0" d="M230,256.1l1.2-1.1"/>
		<path id="XMLID_103_" class="st0" d="M395.9,322.4l-0.7,1.8"/>
		<path id="XMLID_102_" class="st0" d="M418.8,365.2l2,0.3"/>
		<path id="XMLID_101_" class="st0" d="M207.9,213.9l-0.8,1.8"/>
		<path id="XMLID_100_" class="st0" d="M232.8,256.9l-2-0.3"/>
		<path id="XMLID_99_" class="st0" d="M209.4,213.8l-0.3,0.9"/>
		<path id="XMLID_98_" class="st0" d="M233.6,255.7l-0.9-0.2"/>
		<path id="XMLID_97_" class="st0" d="M397.4,322.3l-0.3,0.9"/>
		<path id="XMLID_96_" class="st0" d="M421.6,364.3l-0.9-0.2"/>
		<path id="XMLID_95_" class="st0" d="M318.8,293.9l-0.1-0.5"/>
		<path id="XMLID_94_" class="st0" d="M414.3,367.4c-7.9,1.2-18.4-7.6-23.3-19.6c-5-12-2.6-22.7,5.3-23.9
			c7.9-1.2,18.4,7.6,23.3,19.6c3.5,8.4,3.5,16.4,0,20.8"/>
		<path id="XMLID_93_" class="st0" d="M413.9,366.7c-7.7,1-17.8-7.5-22.5-19.1s-2.4-21.9,5.3-22.9c7.7-1,17.8,7.5,22.5,19.1
			c3.3,8,3.3,15.6,0,19.9"/>
		<path id="XMLID_92_" class="st0" d="M419.2,363.6c-1.3,1.7-3.1,2.7-5.2,3.1"/>
		<path id="XMLID_91_" class="st0" d="M421.1,350.2c1.4,9.9-3.9,15.5-11.8,12.5c-7.9-3-15.4-13.4-16.7-23.3
			c-1.4-9.9,3.9-15.5,11.8-12.5c1.6,0.6,3.3,1.6,4.9,2.8"/>
		<path id="XMLID_90_" class="st0" d="M399.8,341.1c-1.8-7.4,1.2-12.5,6.7-11.4c2,0.4,4.1,1.5,6,3.3"/>
		<path id="XMLID_89_" class="st0" d="M419.9,345.7c1.5,7.4-1.7,12.2-7.3,10.7c-2-0.5-4.1-1.8-6-3.7"/>
		<path id="XMLID_88_" class="st0" d="M225.9,258.2c-7.7,1-17.8-7.5-22.5-19.1c-4.7-11.6-2.4-21.9,5.3-22.9
			c7.7-1,17.8,7.5,22.5,19.1c3.3,8,3.3,15.6,0,19.9"/>
		<path id="XMLID_87_" class="st0" d="M233.2,241.6c1.4,9.9-3.9,15.5-11.8,12.5c-7.9-3-15.4-13.4-16.7-23.3
			c-1.4-9.9,3.9-15.5,11.8-12.5c1.6,0.6,3.3,1.6,4.9,2.8"/>
		
			<ellipse id="XMLID_86_" transform="matrix(0.866 -0.5 0.5 0.866 -89.4608 140.4249)" class="st0" cx="217.3" cy="237.1" rx="13.8" ry="23.9"/>
		<path id="XMLID_85_" class="st0" d="M421.1,356.3c-3.3,5.2-11,3.4-17.1-4c-6.1-7.4-8.4-17.5-5.1-22.6c1.2-1.8,2.9-2.8,5.1-2.9"/>
		<path id="XMLID_84_" class="st0" d="M409.9,357.5c-6.9-4-12.5-13.7-12.5-21.7"/>
		<path id="XMLID_83_" class="st0" d="M397.4,335.8c0-5.4,2.5-8.8,6.6-9"/>
		<path id="XMLID_82_" class="st0" d="M421.1,356.3c-2.2,3.4-6.5,3.9-11.1,1.2"/>
		<path id="XMLID_81_" class="st0" d="M418.8,361.2c-6.2,2-15.3-4.5-20.1-14.5c-4-8.3-4-16.7,0-20.4"/>
		<path id="XMLID_80_" class="st0" d="M313.4,296.1c-7,0.8-16-7.1-20.1-17.5c-4.1-10.4-1.8-19.5,5.1-20.3c0.6-0.1,1.2-0.1,1.8,0"/>
		<path id="XMLID_79_" class="st0" d="M318.6,293c-1.3,1.8-3,2.8-5.2,3.1"/>
		<path id="XMLID_78_" class="st0" d="M313,266.5c7.1,8.6,9.6,20.4,5.7,26.3c0,0.1-0.1,0.1-0.1,0.2"/>
		<path id="XMLID_77_" class="st0" d="M312.7,295.1c-6.7,0.5-15.2-7.2-18.9-17.1c-3.8-9.9-1.4-18.3,5.3-18.8
			c1.1-0.1,2.3,0.1,3.6,0.5"/>
		<path id="XMLID_76_" class="st0" d="M309.2,263.5c7.5,6.4,12,17.7,10.2,25.3c-0.3,1.2-0.8,2.3-1.4,3.3"/>
		<path id="XMLID_75_" class="st0" d="M318,292.1c-1.2,1.8-3,2.9-5.2,3.1"/>
		
			<ellipse id="XMLID_74_" transform="matrix(0.866 -0.5 0.5 0.866 -96.5061 191.1831)" class="st0" cx="308.5" cy="275.7" rx="8.2" ry="14.1"/>
		
			<ellipse id="XMLID_73_" transform="matrix(-0.866 0.5 -0.5 -0.866 710.8896 362.7826)" class="st0" cx="306.8" cy="276.6" rx="10.1" ry="17.5"/>
		<path id="XMLID_72_" class="st0" d="M316.4,291.3c-5.3,2-13.1-3.4-17.5-12c-3.8-7.5-3.8-15.1,0-18.2"/>
		<path id="XMLID_71_" class="st0" d="M230.8,252.6c-6.3,2-15.3-4.5-20.1-14.5c-4-8.3-4-16.7,0-20.3"/>
		<path id="XMLID_70_" class="st0" d="M233.1,247.8c-3.3,5.2-11,3.4-17.1-4c-6.1-7.4-8.4-17.5-5.1-22.6c1.2-1.8,2.9-2.8,5.1-2.9"/>
		<path id="XMLID_69_" class="st0" d="M221.9,249c-6.9-4-12.5-13.7-12.5-21.7"/>
		<path id="XMLID_68_" class="st0" d="M209.4,227.2c0-5.4,2.5-8.8,6.6-9"/>
		<path id="XMLID_67_" class="st0" d="M233.1,247.8c-2.2,3.4-6.5,3.9-11.1,1.2"/>
		<path id="XMLID_66_" class="st0" d="M211.8,232.5c-1.8-7.4,1.2-12.5,6.8-11.4c2,0.4,4.1,1.6,6,3.3"/>
		<path id="XMLID_65_" class="st0" d="M231.9,237.2c1.5,7.4-1.7,12.2-7.3,10.7c-2-0.5-4.1-1.8-6.1-3.6"/>
	</g>
	<g>
		<path id="XMLID_64_" class="st0" d="M381.7,191.1c-0.6,0.1-0.6,0.1-1.2,0.2c-0.2,0.1-0.2,0.1-0.3,0.1c-0.1,0.1-0.1,0.1-0.3,0.2
			c-0.5,0.4-0.5,0.4-0.9,0.8c-0.3,0.5-0.3,0.5-0.7,0.9c-0.2,0.5-0.2,0.5-0.3,0.9c-0.1,0.5-0.1,0.5-0.1,1c0.1,0.5,0.1,0.5,0.2,0.9
			c0.2,0.3,0.2,0.3,0.4,0.7"/>
		<path id="XMLID_63_" class="st0" d="M450.3,228.3c-0.1-0.3-0.1-0.3-0.2-0.6c-0.2-0.3-0.2-0.3-0.4-0.5c-0.4-0.4-0.4-0.4-0.9-0.7
			c-0.6-0.4-0.6-0.4-1.1-0.7"/>
		<path id="XMLID_62_" class="st0" d="M447.8,225.7c-27.3-15.7-27.3-15.7-54.5-31.5c-0.7-0.4-0.7-0.4-1.4-0.8
			c-0.8-0.4-0.8-0.4-1.6-0.7c-0.9-0.3-0.9-0.3-1.7-0.7c-0.9-0.3-0.9-0.3-1.8-0.5"/>
		<path id="XMLID_61_" class="st0" d="M426.1,219.2c0.4,0.1,0.4,0.1,0.7,0.2c0.4,0,0.4,0,0.9,0c0.3-0.1,0.3-0.1,0.7-0.1
			c0.5-0.1,0.5-0.1,0.9-0.2c0.3-0.1,0.3-0.1,0.5-0.2"/>
		<path id="XMLID_60_" class="st0" d="M430,218.4c-0.1-0.2-0.1-0.2-0.3-0.3c-0.2-0.2-0.2-0.2-0.5-0.3c-0.3-0.1-0.3-0.1-0.7-0.3
			c-0.4-0.1-0.4-0.1-0.8-0.3c-0.4-0.1-0.4-0.1-0.9-0.2c-0.4,0-0.4,0-0.8,0c-0.3,0-0.3,0-0.6,0.1c-0.1,0-0.1,0-0.2,0
			c-0.1,0-0.1,0-0.1,0.1"/>
		<path id="XMLID_59_" class="st0" d="M450.4,229.3c0-0.1,0-0.1,0-0.2s0-0.1,0-0.2c0,0,0,0,0-0.1"/>
		<path id="XMLID_58_" class="st0" d="M450.3,227.9c-0.3-0.4-0.3-0.4-0.5-0.7c0,0,0,0-0.1-0.1c-0.1-0.1-0.1-0.1-0.1-0.1"/>
		<path id="XMLID_57_" class="st0" d="M381.9,191.1h-0.1"/>
		<path id="XMLID_56_" class="st0" d="M378,195.3L378,195.3v1.5"/>
		<path id="XMLID_55_" class="st0" d="M380.2,191.5L380.2,191.5l-0.8,0.7l-0.7,0.8l-0.2,0.9l-0.2,0.9l0.1,0.3"/>
		<path id="XMLID_54_" class="st0" d="M378.3,194.9l0.3,0.9l0.4,0.9"/>
		<path id="XMLID_53_" class="st0" d="M378.1,193.9l-0.1,0.1v0.1"/>
		<path id="XMLID_52_" class="st0" d="M380.4,198.2l54.5,31.5"/>
		<path id="XMLID_51_" class="st0" d="M380.6,191.3L380.6,191.3l1.4-0.2L380.6,191.3"/>
		<path id="XMLID_50_" class="st0" d="M380.6,191.3L380.6,191.3l-0.2,0.1"/>
		<path id="XMLID_49_" class="st0" d="M380.2,191.4l-0.3,0.2"/>
		<path id="XMLID_48_" class="st0" d="M382,191.1l1.4-0.1l0.2,0"/>
		<path id="XMLID_47_" class="st0" d="M383.4,191l1.7,0.2l1.7,0.3"/>
		<path id="XMLID_46_" class="st0" d="M450.3,228.2L450.3,228.2"/>
		<path id="XMLID_45_" class="st0" d="M425.9,219.2l0.1,0.1"/>
		<path id="XMLID_44_" class="st0" d="M429.8,219l0.3-0.3l-0.1-0.3"/>
		<path id="XMLID_43_" class="st0" d="M425.2,217.1l-0.3,0.3l-0.2,0.5l0.1,0.4l0.3,0.4l0.5,0.3l0.4,0.2"/>
		<path id="XMLID_42_" class="st0" d="M430,218.6v0.1"/>
		<path id="XMLID_41_" class="st0" d="M440.6,231.1l0.3,0l-3.1-0.4l-2.6-1l0.1-0.1"/>
		<path id="XMLID_40_" class="st0" d="M441.7,231.7l0.6-0.1"/>
		<path id="XMLID_39_" class="st0" d="M444.1,230.9L444.1,230.9l-3.1,0.2"/>
		<path id="XMLID_38_" class="st0" d="M444.6,231.4l1-0.3"/>
		<path id="XMLID_37_" class="st0" d="M447.5,230l-0.3,0.1"/>
		<path id="XMLID_36_" class="st0" d="M450.4,229.3l0-0.5"/>
		<path id="XMLID_29_" class="st0" d="M450.3,229l0.2-0.5l-0.1-0.6"/>
	</g>
	<g>
		<path id="XMLID_28_" class="st0" d="M275.3,291l-1.8-2"/>
		<path id="XMLID_27_" class="st0" d="M274.5,288.4l1.8,2"/>
		<path id="XMLID_26_" class="st0" d="M288.5,303.2l23.2,13.4"/>
		<path id="XMLID_25_" class="st0" d="M312.6,316l-23.2-13.4"/>
		<path id="XMLID_21_" class="st0" d="M202.7,215.9l-0.6,3.9"/>
		<path id="XMLID_20_" class="st0" d="M224.4,258.8l3.7,1.4"/>
		<path id="XMLID_19_" class="st0" d="M390.7,324.8l-0.6,4.1"/>
		<path id="XMLID_16_" class="st0" d="M412.4,367.4l3.7,1.4"/>
		<path id="XMLID_15_" class="st0" d="M323.5,320c-3.7,0.1-7.7-1.1-11.9-3.5"/>
		<path id="XMLID_14_" class="st0" d="M273.5,289c-10.2-14.5-13.4-32.3-7.5-41.8"/>
		<path id="XMLID_13_" class="st0" d="M288.4,303.2c-4.7-2.7-9.3-6.9-13.3-12"/>
		<path id="XMLID_12_" class="st0" d="M324.4,319.5c-3.7,0.1-7.7-1.1-11.8-3.5"/>
		<path id="XMLID_11_" class="st0" d="M274.5,288.4c-10.2-14.5-13.4-32.3-7.5-41.8"/>
		<path id="XMLID_9_" class="st0" d="M289.4,302.6c-4.7-2.7-9.2-6.8-13.2-11.9"/>
		<path id="XMLID_4_" class="st0" d="M470,394c-7.9-2.3-15.8-12.4-17.8-22.6c-0.6-3-0.6-5.9,0-8.2"/>
	</g>
</g>
<g id="XMLID_10_">
	<g id="XMLID_5_">
		<path id="XMLID_22_" d="M813.4,3c14,0,25.5,11.4,25.5,25.5v538.3c0,14-11.4,25.5-25.5,25.5H28.5c-14,0-25.5-11.4-25.5-25.5V28.5
			C3,14.4,14.4,3,28.5,3H813.4 M813.4,0H28.5C12.8,0,0,12.8,0,28.5v538.3c0,15.7,12.8,28.5,28.5,28.5h784.9
			c15.7,0,28.5-12.8,28.5-28.5V28.5C841.9,12.8,829.1,0,813.4,0L813.4,0z"/>
	</g>
	<g id="XMLID_3_">
		<path id="XMLID_35_" d="M1.5,83.5V28.5c0-14.9,12.1-27,27-27h55.1v55.1c0,14.9-12.1,27-27,27H1.5z"/>
		<g id="XMLID_31_">
			<path id="XMLID_32_" d="M82,3v53.6C82,70.6,70.6,82,56.6,82H3V28.5C3,14.4,14.4,3,28.5,3H82 M85,0H28.5C12.8,0,0,12.8,0,28.5V85
				h56.6C72.2,85,85,72.2,85,56.6V0L85,0z"/>
		</g>
	</g>
	<g id="XMLID_6_">
		<path id="XMLID_7_" class="st1" d="M37.1,48.3c0.3,1.5,0.8,2.6,1.5,3.4c0.7,0.8,1.8,1.2,3.3,1.2c1.7,0,2.9-0.6,3.8-1.7
			s1.3-2.6,1.3-4.4c0-1.7-0.4-3.2-1.2-4.4s-2.1-1.8-3.8-1.8c-0.8,0-1.5,0.1-2.1,0.3c-1,0.4-1.8,1.1-2.4,2.1l-6-0.3l2.4-18.8h18.7
			v5.7H38.7L37.5,37c1-0.7,1.8-1.1,2.4-1.3c1-0.4,2.1-0.5,3.5-0.5c2.8,0,5.3,0.9,7.3,2.8c2.1,1.9,3.1,4.6,3.1,8.2c0,3.1-1,5.9-3,8.4
			s-5,3.7-9,3.7c-3.2,0-5.9-0.9-8-2.6c-2.1-1.7-3.2-4.2-3.5-7.4H37.1z"/>
	</g>
</g>
</svg>
