<?xml version="1.0" encoding="utf-8"?>
<!-- Generator: Adobe Illustrator 19.0.0, SVG Export Plug-In . SVG Version: 6.00 Build 0)  -->
<svg version="1.1" id="Layer_1" xmlns="http://www.w3.org/2000/svg" xmlns:xlink="http://www.w3.org/1999/xlink" x="0px" y="0px"
	 width="841.9px" height="595.3px" viewBox="0 0 841.9 595.3" style="enable-background:new 0 0 841.9 595.3;" xml:space="preserve"
	>
<style type="text/css">
	.st0{fill:none;stroke:#0B0620;stroke-width:0.5;stroke-linecap:round;stroke-linejoin:round;}
	.st1{fill:none;stroke:#000000;stroke-linecap:round;stroke-linejoin:round;stroke-dasharray:4.7,3.1,1.6,3.1;}
	.st2{stroke:#000000;stroke-width:8.800000e-02;stroke-linecap:round;stroke-linejoin:round;}
	.st3{fill:#FFFFFF;stroke:#000000;stroke-linecap:round;stroke-linejoin:round;stroke-opacity:0.98;}
	.st4{fill:#FFFFFF;}
	.st5{fill:none;stroke:#000000;stroke-width:0.5;stroke-linecap:round;stroke-linejoin:round;}
	.st6{fill:none;stroke:#000000;stroke-width:0.25;stroke-linecap:round;stroke-linejoin:round;}
</style>
<g id="XMLID_1_">
	<g>
		<path id="XMLID_411_" class="st0" d="M556.8,349.1c-169.9-98-169.9-98-339.7-196.1c-1.6-1.2-1.6-1.2-3.1-2.4
			c-1.5-1.6-1.5-1.6-2.9-3.3"/>
		<path id="XMLID_410_" class="st0" d="M282.8,111.4c-1.5-1.7-1.5-1.7-3-3.5c-2.7-4.3-2.7-4.3-5.3-8.7c-2.9-6.8-3-6.8-5.7-13.6
			c-1.5-6.7-1.6-6.8-2.8-13.6c0-6.2,0.1-6.2,0.3-12.4c0.9-3,1-3,2.1-6c0.7-2,0.7-2,1.4-4"/>
		<path id="XMLID_409_" class="st0" d="M621,304.7C454.1,208.4,454.1,208.4,287.2,112c-1.4-1-1.4-1-2.7-2.1
			c-1.4-1.6-1.5-1.6-2.9-3.3"/>
		<path id="XMLID_408_" class="st0" d="M287.3,109.4c167.9,96.9,167.9,96.9,335.7,193.8c1.3,0.7,1.3,0.8,2.6,1.5
			c1.2,0.5,1.2,0.5,2.3,0.9"/>
		<path id="XMLID_407_" class="st0" d="M627.4,240.5c-167.7-96.8-167.7-96.8-335.3-193.6c-1.5-0.9-1.5-0.9-3-1.7
			c-1.1-0.5-1.1-0.5-2.3-0.9"/>
		<path id="XMLID_406_" class="st0" d="M642.6,301.4c1.9-4.9,1.9-5,3.5-10c0.3-6.2,0.2-6.2,0.3-12.4c0-0.5,0-0.5-0.1-1"/>
		<path id="XMLID_405_" class="st0" d="M204.1,78.6l72-35.7l5.6-2.4l3.3,0l3.1,1.3l338.3,195.3l1,0.8L289.2,42.6l-3.2-1.2l-2.6,0.1"
			/>
		<path id="XMLID_404_" class="st0" d="M560.1,350.4l67.6-39.9l3.1,0l5.6-2.4L572,346l-9,4.5l-2.9-0.1l-3.2-1.3"/>
		<path id="XMLID_403_" class="st0" d="M213.8,150.5l69-39"/>
		<path id="XMLID_402_" class="st0" d="M269.8,49.6l6.3-6.7"/>
		<path id="XMLID_401_" class="st0" d="M282.8,111.4l3.3,2.6l338.3,195.3l3.1,1.3h0.2"/>
		<path id="XMLID_400_" class="st0" d="M631.2,308.5l-2.6,0l-3.2-1.2l-4.5-2.6"/>
		<path id="XMLID_399_" class="st0" d="M283,105.4l1.9,2.3l2.3,1.8"/>
		<path id="XMLID_398_" class="st0" d="M627.9,305.7l2.3,0"/>
		<path id="XMLID_397_" class="st0" d="M631.6,244.5l-1.9-2.3l-2.3-1.8"/>
		<path id="XMLID_396_" class="st0" d="M286.8,44.2h-2"/>
		<path id="XMLID_395_" class="st0" d="M631.5,244.8l-2.2-2.6l-2.1-1.6L288.9,45.3l-2.5-0.9l-2,0l-1.4,0.8"/>
		<path id="XMLID_394_" class="st0" d="M362.2,242l4.7-2.5"/>
		<path id="XMLID_393_" class="st0" d="M367.9,253.1l11.6-6.3"/>
		<path id="XMLID_392_" class="st0" d="M627.5,237.9l2.8,2.1l2.8,3.3"/>
		<path id="XMLID_391_" class="st0" d="M636.4,308.2l6.3-6.7"/>
		<path id="XMLID_390_" class="st0" d="M644.3,282.9l-0.2,0.1"/>
		<path id="XMLID_389_" class="st0" d="M632.8,304.7l-2.6,0.9"/>
		<path id="XMLID_388_" class="st0" d="M641.3,295.2l0.9-1.3"/>
		<path id="XMLID_387_" class="st0" d="M367.9,253.1c-2,0.7-4.7-1.3-6.2-4.5c-1.3-2.8-1.1-5.5,0.4-6.6"/>
		<path id="XMLID_386_" class="st0" d="M282.8,105.3c-14-20.1-16.8-45.4-6.3-56.4c2.3-2.4,5.1-3.9,8.2-4.7"/>
		<path id="XMLID_385_" class="st0" d="M633.1,243.3c15,21.6,18,48.6,6.6,60.3c-2.3,2.4-5.2,4.1-8.5,4.9"/>
		<ellipse id="XMLID_384_" class="st0" cx="423.9" cy="229.7" rx="7.9" ry="4.6"/>
		<path id="XMLID_383_" class="st0" d="M211,147.3c-16.9-23.3-20.8-53.3-8.8-66.9c0.6-0.7,1.2-1.3,1.8-1.8"/>
		<path id="XMLID_382_" class="st0" d="M281.6,106.6c-15-21.6-18-48.6-6.6-60.3c2.3-2.4,5.2-4.1,8.5-4.9"/>
		<path id="XMLID_381_" class="st0" d="M631.5,244.8c14,20.2,16.8,45.4,6.2,56.4c-1.4,1.5-3.1,2.7-5,3.5"/>
		<path id="XMLID_380_" class="st0" d="M631.5,244.8c14,20.2,16.8,45.4,6.2,56.4c-1.4,1.5-3.1,2.7-5,3.5"/>
	</g>
	<g>
		<path id="XMLID_379_" class="st0" d="M298.9,320.2c23.1-13.4,23.1-13.4,46.1-26.6c1.2-0.6,1.2-0.6,2.5-1.2
			c1.4-0.5,1.4-0.5,2.8-0.9"/>
		<path id="XMLID_378_" class="st0" d="M300.1,323.2c10,1.8,10,1.8,20.1,3.7c0.4,0.1,0.4,0.1,0.9,0.1c0.4,0,0.4,0,0.8,0"/>
		<path id="XMLID_377_" class="st0" d="M309.1,355.6c0.6-1,0.6-1,1.1-2.1c0.5-1,0.5-1,1-2.1c0.8-1.3,0.8-1.4,1.6-2.7
			c1-1.1,1-1.1,2-2.2"/>
		<path id="XMLID_376_" class="st0" d="M318.7,350.6c-1.1,0.5-1.1,0.5-2.2,1.1c-1,0.9-1,0.9-1.9,1.8c-0.4,0.7-0.4,0.7-0.7,1.3
			c-0.2,0.7-0.3,0.7-0.5,1.4c-0.2,1.4-0.2,1.4-0.4,2.7c0,2.6,0,2.6,0,5.2"/>
		<path id="XMLID_375_" class="st0" d="M335.5,347.3c-0.5,0.1-0.5,0.1-0.9,0.1c-0.4,0.1-0.4,0.1-0.8,0.3c-0.3,0.2-0.3,0.2-0.6,0.4
			c-0.2,0.2-0.2,0.2-0.4,0.5"/>
		<path id="XMLID_374_" class="st0" d="M320.9,357.2c-0.9-0.1-0.9-0.1-1.8-0.2c-0.3-0.1-0.3-0.1-0.5-0.2c-0.3-0.2-0.3-0.2-0.5-0.4
			c-0.8-0.8-0.8-0.8-1.6-1.6"/>
		<path id="XMLID_373_" class="st0" d="M402.4,367.2c-12.8,12.6-12.8,12.6-25.5,25.2c-0.9,1-0.9,1.1-1.8,2.2
			c-0.7,1.2-0.7,1.2-1.4,2.5c-0.6,1.2-0.5,1.2-1.1,2.5c-0.3,0.5-0.3,0.5-0.5,0.9c-0.2,0.3-0.2,0.3-0.5,0.5c-0.3,0.2-0.3,0.2-0.6,0.4
			c-0.2,0.1-0.2,0.1-0.5,0.2"/>
		<path id="XMLID_372_" class="st0" d="M363.7,398.4c0-8.6,0-8.6,0-17.3c0.1-1.2,0.1-1.2,0.2-2.5c0.1-0.7,0.1-0.7,0.3-1.4
			c0.4-1.4,0.4-1.4,0.8-2.7c0.3-0.7,0.3-0.7,0.6-1.5c0.7-1.3,0.7-1.3,1.4-2.6c0.5-0.7,0.5-0.7,0.9-1.4c0.9-1.1,0.9-1.1,1.8-2.2
			c0.6-0.6,0.6-0.6,1.1-1.2c1-0.8,1-0.8,2-1.6c0.6-0.4,0.6-0.4,1.2-0.8c12.6-7.3,12.6-7.3,25.1-14.5"/>
		<path id="XMLID_371_" class="st0" d="M382.5,402.1c-0.2,0.5-0.2,0.5-0.4,0.9c-0.2,0.9-0.2,0.9-0.3,1.8c0,0.6,0.1,0.6,0.1,1.2
			c0.1,0.5,0.1,0.5,0.3,1c0.2,0.5,0.2,0.5,0.5,1c0.2,0.4,0.2,0.4,0.5,0.7c0.6,0.7,0.6,0.7,1.2,1.4c0.7,0.5,0.7,0.5,1.4,1"/>
		<path id="XMLID_370_" class="st0" d="M421.2,397.5c-0.2,0.2-0.2,0.2-0.4,0.5c-0.3,0.2-0.3,0.2-0.7,0.4c-0.4,0.1-0.4,0.1-0.8,0.3
			c-1.9,0.2-2,0.2-3.9,0.4c-2.1,0.5-2.1,0.5-4.2,1c-0.6,0.1-0.6,0-1.2,0.1c-0.5-0.1-0.5-0.1-0.9-0.1c-0.4-0.2-0.4-0.2-0.9-0.3"/>
		<path id="XMLID_369_" class="st0" d="M412.4,373.2c-0.4-0.1-0.4-0.1-0.9-0.1c-0.5,0-0.5,0-0.9,0c-0.1,0-0.1,0-0.3,0.1"/>
		<path id="XMLID_368_" class="st0" d="M415.4,411.8c0.9,0.9,0.9,0.9,1.7,1.8c0.3,0.2,0.3,0.2,0.5,0.4c0.3,0.1,0.3,0.1,0.5,0.2
			c0.9,0.1,0.9,0.1,1.7,0.3"/>
		<path id="XMLID_367_" class="st0" d="M431.3,338.1c0.4-0.2,0.4-0.2,0.9-0.4c0.4-0.3,0.4-0.3,0.7-0.6c1.2-1.2,1.2-1.2,2.4-2.4
			c0.4-0.5,0.4-0.5,0.7-0.9"/>
		<path id="XMLID_366_" class="st0" d="M429.5,338.3c0.4,0.1,0.4,0.1,0.8,0.1c1.6,0.4,1.6,0.4,3.2,0.8c1.4,0.6,1.4,0.6,2.9,1.3
			c1.2,0.9,1.2,0.9,2.4,1.8c1.1,1.3,1.1,1.3,2.2,2.7"/>
		<path id="XMLID_365_" class="st0" d="M440.8,343.6c0.1-0.4,0.1-0.4,0.3-0.7c0.3-0.4,0.3-0.4,0.5-0.7c1.2-1.2,1.2-1.2,2.4-2.4
			c0.4-0.3,0.4-0.3,0.8-0.6"/>
		<path id="XMLID_364_" class="st0" d="M440.8,437.9c0-2.6,0-2.6,0-5.2c0.1-1.4,0.1-1.4,0.4-2.7c0.4-1.5,0.5-1.4,0.9-2.9
			c0.6-2.2,0.6-2.2,1.2-4.5"/>
		<path id="XMLID_363_" class="st0" d="M444.9,434c-0.1-1.4-0.1-1.4-0.1-2.8c0.2-0.7,0.2-0.7,0.4-1.5c0.2-0.4,0.2-0.4,0.3-0.7
			c0.8-1.3,0.8-1.4,1.6-2.7c1-1.1,1-1.1,2-2.2"/>
		<path id="XMLID_362_" class="st0" d="M453.2,398.9c0-13.4,0-1.9,0-3.8c0-0.5,0-0.5,0.1-1c0.1-0.6,0.1-0.6,0.2-1.2
			c0.1-0.7,0.1-0.7,0.3-1.3c0.2-0.7,0.2-0.7,0.4-1.3c0.2-0.6,0.2-0.6,0.5-1.2"/>
		<path id="XMLID_361_" class="st0" d="M369.9,298c0.1,0.1,0.1,0.1,0.3,0.2c0.2,0.1,0.2,0.1,0.4,0.1c0.2,0,0.2,0,0.5,0.1
			c0.2,0,0.2,0,0.5,0c0.2-0.1,0.2-0.1,0.4-0.1c0.2-0.1,0.2-0.1,0.4-0.1"/>
		<path id="XMLID_360_" class="st0" d="M515.9,379.4c-0.2,0.1-0.2,0.1-0.3,0.2c-0.2,0.1-0.2,0.1-0.4,0.1c-0.2,0-0.2,0-0.5,0.1
			c-0.2,0-0.2,0-0.5,0c-0.2-0.1-0.2-0.1-0.4-0.1"/>
		<path id="XMLID_359_" class="st0" d="M365.3,293.2c0.1-0.1,0.1-0.1,0.3-0.3c0.2-0.1,0.2-0.1,0.4-0.2c0.2-0.1,0.2-0.1,0.4-0.1
			c0.3,0,0.3,0,0.5,0c0.3,0,0.3,0,0.5,0.1c0.2,0.1,0.2,0.1,0.4,0.1"/>
		<path id="XMLID_358_" class="st0" d="M507.9,374.9c0.2-0.1,0.2-0.1,0.4-0.2c0.2-0.1,0.2-0.1,0.5-0.1c0.3,0,0.3,0,0.5,0
			c0.3,0,0.3,0,0.5,0.1c0.2,0.1,0.2,0.1,0.4,0.2"/>
		<path id="XMLID_357_" class="st0" d="M444.7,339c0.5-0.1,0.5-0.1,1.1-0.2c0.5,0,0.5,0,1,0c0.5,0.1,0.5,0.1,0.9,0.2
			c0.4,0.2,0.4,0.2,0.8,0.3"/>
		<path id="XMLID_356_" class="st0" d="M269,355.2v-38.2l70.5-40.7"/>
		<path id="XMLID_355_" class="st0" d="M290.5,358.1l-17.6,10.2"/>
		<path id="XMLID_354_" class="st0" d="M282.3,378.1l154.1,89"/>
		<path id="XMLID_353_" class="st0" d="M286.6,345.1v-21.6"/>
		<path id="XMLID_352_" class="st0" d="M287.3,321.3l15,8.6"/>
		<path id="XMLID_351_" class="st0" d="M288.9,319.6l50.6-29.3"/>
		<path id="XMLID_350_" class="st0" d="M298,321.9V321"/>
		<path id="XMLID_349_" class="st0" d="M454,456.9l-154.1-89"/>
		<path id="XMLID_348_" class="st0" d="M321.9,326.9v-3.8"/>
		<path id="XMLID_347_" class="st0" d="M313.4,330.3l-8.8-1.6l-0.9-0.1l-0.5,0.1l-0.4,0.3l-0.3,0.5l-0.2,0.6l-0.1,1l0.2,0.8"/>
		<path id="XMLID_346_" class="st0" d="M321.8,321l-18.4-3.4"/>
		<path id="XMLID_345_" class="st0" d="M309.1,329.5v26.1"/>
		<path id="XMLID_344_" class="st0" d="M314.9,346.6l57.7-48.6l1.1-0.6"/>
		<path id="XMLID_343_" class="st0" d="M332.7,348.5l-0.7,2.2l-1.4,1.8l-0.5,0.8l0,0.6l0.3,0.5l0.5,0.5l-8.1-4.7l-1.2,3.3l-0.7,3.6"
			/>
		<path id="XMLID_342_" class="st0" d="M316.5,354.7l-3.2,2.7"/>
		<path id="XMLID_341_" class="st0" d="M314,331.8l9.4-5.4l-0.7,0.3l-0.8,0.2"/>
		<path id="XMLID_340_" class="st0" d="M400.3,368.4l2-1.2"/>
		<path id="XMLID_339_" class="st0" d="M370.7,401.5h-1.2l-1.4-0.5l-50.8-29.3"/>
		<path id="XMLID_338_" class="st0" d="M316.5,354.7l62.7-52.9"/>
		<path id="XMLID_337_" class="st0" d="M321.8,321l39.3-22.7"/>
		<path id="XMLID_336_" class="st0" d="M366.8,371L332,350.9"/>
		<path id="XMLID_335_" class="st0" d="M399.4,341.3l-55.1-10.1"/>
		<path id="XMLID_334_" class="st0" d="M351,337.2l46,8.4"/>
		<path id="XMLID_333_" class="st0" d="M403.1,335.8l-52.8-9.6"/>
		<path id="XMLID_332_" class="st0" d="M354.1,292.2l9.8,8.8"/>
		<path id="XMLID_331_" class="st0" d="M357.1,286.2v-14"/>
		<path id="XMLID_330_" class="st0" d="M363.6,303.2l9-5.2"/>
		<path id="XMLID_329_" class="st0" d="M365.5,294l4.4,4"/>
		<path id="XMLID_328_" class="st0" d="M367.7,292.8l1.5,0.7l4.4,2.6"/>
		<path id="XMLID_327_" class="st0" d="M371.2,401.3l-0.1,0.1"/>
		<path id="XMLID_326_" class="st0" d="M371.1,298.4v-3.7"/>
		<path id="XMLID_325_" class="st0" d="M373.8,397l8.8,5.1"/>
		<path id="XMLID_324_" class="st0" d="M385.7,411.2l50.8,29.3"/>
		<path id="XMLID_323_" class="st0" d="M372.6,308.7l32.1,28.6"/>
		<path id="XMLID_322_" class="st0" d="M374.1,296.7v-0.1"/>
		<path id="XMLID_321_" class="st0" d="M374.7,290.4L520,374.3"/>
		<path id="XMLID_320_" class="st0" d="M520,360.3l-145.3-83.9"/>
		<path id="XMLID_319_" class="st0" d="M377.6,304.7l33.7,30"/>
		<path id="XMLID_318_" class="st0" d="M412,328.9l-31-27.6"/>
		<path id="XMLID_317_" class="st0" d="M382.5,402.1l1.4-2.5l1.8-2.1l24.7-24.4"/>
		<path id="XMLID_316_" class="st0" d="M383.5,301.8l51.8,29.9"/>
		<path id="XMLID_315_" class="st0" d="M395.7,387.7l14.7,8.5"/>
		<path id="XMLID_314_" class="st0" d="M400.3,368.4l0.4-0.3l0.3-0.5v-0.6"/>
		<path id="XMLID_313_" class="st0" d="M402.9,340.6l-2.8,3.4l-0.9,3.3l0,15"/>
		<path id="XMLID_312_" class="st0" d="M401.1,367.5l0.1-0.5l-0.2-0.5"/>
		<path id="XMLID_311_" class="st0" d="M401.3,341.3v-3.8"/>
		<path id="XMLID_310_" class="st0" d="M404.5,339.4l4.3-2.2l6-1.6"/>
		<path id="XMLID_309_" class="st0" d="M421.2,394.6v2.9"/>
		<path id="XMLID_308_" class="st0" d="M408.3,399.6l8.1,4.7l-0.7,3.1l-0.3,4.4l0.1-2"/>
		<path id="XMLID_307_" class="st0" d="M412.8,335.5v-3.8"/>
		<path id="XMLID_306_" class="st0" d="M419.9,414.4l0.6-3.4l8.5,4.9l-0.4,3.5v14.7"/>
		<path id="XMLID_305_" class="st0" d="M420.5,411l1.4-3.5l8.2,4.8l-1.1,3.7"/>
		<path id="XMLID_304_" class="st0" d="M420.5,398.1V394"/>
		<path id="XMLID_303_" class="st0" d="M421.2,397.5l0.2-0.5"/>
		<path id="XMLID_302_" class="st0" d="M432,435.3v2.6"/>
		<path id="XMLID_301_" class="st0" d="M500.2,371.8l-69.8,58.9"/>
		<path id="XMLID_300_" class="st0" d="M430.1,412.2l23-13.3l-15.9-29"/>
		<path id="XMLID_299_" class="st0" d="M439,387.9l-8.3-15.1"/>
		<path id="XMLID_298_" class="st0" d="M431.3,332.3v5.8l-0.9,0.2h-0.9"/>
		<path id="XMLID_297_" class="st0" d="M441,344.9l-0.3-0.7l0.1-0.7"/>
		<path id="XMLID_296_" class="st0" d="M438.4,389.6v-2.8"/>
		<path id="XMLID_295_" class="st0" d="M436.1,333v-0.3"/>
		<path id="XMLID_294_" class="st0" d="M439.5,440.6l-0.5,0.3"/>
		<path id="XMLID_293_" class="st0" d="M485,374.2l-31.4,18.1l-13.5-24.7"/>
		<path id="XMLID_292_" class="st0" d="M445.1,468.1l-1,0.6l4.1-2.4L445.1,468.1"/>
		<path id="XMLID_291_" class="st0" d="M444.9,430.8v3.2"/>
		<path id="XMLID_290_" class="st0" d="M449.2,424.2l57.6-48.6l1.1-0.6"/>
		<path id="XMLID_289_" class="st0" d="M444.8,431.7v-0.5"/>
		<path id="XMLID_288_" class="st0" d="M442.7,360.4l0.1-17.3l0.2-0.8"/>
		<path id="XMLID_287_" class="st0" d="M488.4,375.5l-45.8-17.1"/>
		<path id="XMLID_286_" class="st0" d="M495.2,372.7l-52-19.4l-0.5-0.3"/>
		<path id="XMLID_285_" class="st0" d="M442.7,346.8l53.2,19.9"/>
		<path id="XMLID_284_" class="st0" d="M446.9,467.1l-1.3,0.7"/>
		<path id="XMLID_283_" class="st0" d="M448.3,466.3l6.3-3.7l-2.2,1.3"/>
		<path id="XMLID_282_" class="st0" d="M500.2,369.2l-51.7-29.9"/>
		<path id="XMLID_281_" class="st0" d="M454.6,462.6l10-5.8"/>
		<path id="XMLID_280_" class="st0" d="M467.9,425.5l-12-6.9"/>
		<path id="XMLID_279_" class="st0" d="M461.8,458.5L461,459l3.7-2.2"/>
		<path id="XMLID_278_" class="st0" d="M463.3,417.3l-1.9-3.4"/>
		<path id="XMLID_277_" class="st0" d="M467.2,427.7v21.6"/>
		<path id="XMLID_276_" class="st0" d="M465.5,418.6v-3.8"/>
		<path id="XMLID_275_" class="st0" d="M469.4,423.9l50.6-29.2"/>
		<path id="XMLID_274_" class="st0" d="M518.2,388.4l-1.6,1.6l-2,1.4l-46.1,26.6"/>
		<path id="XMLID_273_" class="st0" d="M462.2,415.4l52.2-30.2"/>
		<path id="XMLID_272_" class="st0" d="M488.9,378.3l10.1-5.9"/>
		<path id="XMLID_271_" class="st0" d="M497.2,372.9v-3.8"/>
		<path id="XMLID_270_" class="st0" d="M501.2,380.3l0.6,0.1l15.2,5.7"/>
		<path id="XMLID_269_" class="st0" d="M513.8,379.6l-6.9-2.6"/>
		<path id="XMLID_268_" class="st0" d="M510.2,374.9l4.4,2.5l1.3,0.9"/>
		<path id="XMLID_267_" class="st0" d="M527.1,384.5v-0.1v2.4"/>
		<path id="XMLID_266_" class="st0" d="M527.1,384.3v-9.6v3.2"/>
		<path id="XMLID_265_" class="st0" d="M527.1,370.5v4.3v-2"/>
		<path id="XMLID_264_" class="st0" d="M506.9,377.1l-0.3-0.2l-0.3-0.2l-0.1-0.3l0-0.3l0-0.1"/>
		<path id="XMLID_263_" class="st0" d="M314,331.8l0.3-0.3l0.1-0.3l0-0.3l-0.2-0.3l-0.4-0.2l-0.5-0.1"/>
		<path id="XMLID_262_" class="st0" d="M515.9,378.3l0.2,0.3l0.1,0.3l-0.1,0.3l-0.2,0.3"/>
		<path id="XMLID_261_" class="st0" d="M373.6,297.4l0.3-0.2l0.2-0.3v-0.3l-0.1-0.3l-0.3-0.2"/>
		<path id="XMLID_260_" class="st0" d="M365.5,294l-0.2-0.3l-0.1-0.3l0.1-0.3"/>
		<path id="XMLID_259_" class="st0" d="M377.6,304.7l-0.4-0.6l-0.1-0.6"/>
		<path id="XMLID_258_" class="st0" d="M397,345.6l0.9,0.3l0.7,0.4l0.5,0.5l0.1,0.6"/>
		<path id="XMLID_257_" class="st0" d="M324,348.3l-0.1,0.7l-0.5,0.7l-0.7,0.5"/>
		<path id="XMLID_256_" class="st0" d="M372.6,308.7l-0.6-0.4l-0.3-0.1"/>
		<path id="XMLID_255_" class="st0" d="M404.5,339.4l0.5-0.5l0.2-0.5l-0.1-0.6l-0.4-0.5"/>
		<path id="XMLID_254_" class="st0" d="M468.4,418.1c-1.2,0.7-3.2,0.7-4.4,0c-0.4-0.2-0.6-0.5-0.8-0.7"/>
		<path id="XMLID_253_" class="st0" d="M350.3,291.5c1.4-0.4,3-0.1,3.9,0.7"/>
		<path id="XMLID_252_" class="st0" d="M300.1,323.2c-1.6-0.3-2.6-1.3-2-2.3c0.2-0.3,0.4-0.5,0.8-0.7"/>
		<path id="XMLID_251_" class="st0" d="M364,300.9c0.8,0.7,0.6,1.7-0.4,2.3"/>
		<path id="XMLID_250_" class="st0" d="M517,386.2c1.3,0.5,1.8,1.4,1.2,2.2"/>
		<path id="XMLID_249_" class="st0" d="M416.4,404.3c1.5-0.9,4-0.9,5.5-0.1c1.5,0.9,1.6,2.3,0.1,3.2c0,0-0.1,0-0.1,0.1"/>
		<path id="XMLID_248_" class="st0" d="M414.8,335.5c-1.3,0.2-2.8-0.1-3.5-0.7"/>
		<path id="XMLID_247_" class="st0" d="M467.2,449.3c0,8.4-5.9,11.8-13.2,7.6"/>
		<path id="XMLID_246_" class="st0" d="M467.2,427.7c0-1.4,1-3.1,2.2-3.8c0,0,0,0,0,0"/>
		<path id="XMLID_245_" class="st0" d="M402.9,340.6c-0.8,0.7-2.2,0.9-3.5,0.7"/>
		<path id="XMLID_244_" class="st0" d="M520.1,360.3c5.6,3.3,8.2,7.9,7,12.4"/>
		<path id="XMLID_243_" class="st0" d="M339.5,290.4c9.7-5.6,25.5-5.6,35.2,0c0,0,0,0,0,0"/>
		<path id="XMLID_242_" class="st0" d="M520.1,374.3c9.7,5.6,9.7,14.7,0,20.3c0,0,0,0,0,0"/>
		<path id="XMLID_241_" class="st0" d="M435.3,331.7c1,0.6,1.2,1.5,0.4,2.2"/>
		<path id="XMLID_240_" class="st0" d="M500.2,369.2c1.2,0.7,1.2,1.8,0,2.5c0,0,0,0,0,0"/>
		<path id="XMLID_239_" class="st0" d="M439,387.9c0.5,0.9-0.4,2-2,2.3c-0.4,0.1-0.9,0.1-1.4,0.1"/>
		<path id="XMLID_238_" class="st0" d="M339.5,276.4c9.7-5.6,25.5-5.6,35.2,0"/>
		<path id="XMLID_237_" class="st0" d="M400.9,366.5c-4.7-6.4,0.5-13.8,11.6-16.5c11.1-2.7,23.9,0.3,28.6,6.7
			c4.7,6.4-0.5,13.8-11.6,16.5c-5.4,1.3-11.6,1.3-17,0"/>
		<path id="XMLID_236_" class="st0" d="M440.8,437.9c0,2.7-1.9,3.9-4.2,2.6"/>
		<path id="XMLID_235_" class="st0" d="M286.6,323.4c0-1.4,1-3.1,2.2-3.8c0,0,0,0,0,0"/>
		<path id="XMLID_234_" class="st0" d="M299.9,367.9c-7.3-4.2-13.2-14.5-13.2-22.9"/>
		<path id="XMLID_233_" class="st0" d="M347.1,339.2c-0.2-1,1-1.9,2.7-2c0.4,0,0.8,0,1.2,0"/>
		<path id="XMLID_232_" class="st0" d="M379.1,301.8c1.2-0.7,3.2-0.7,4.4,0"/>
		<path id="XMLID_231_" class="st0" d="M444.1,468.7c-2.3,0.6-5,0-7.8-1.6"/>
		<path id="XMLID_230_" class="st0" d="M428.7,434.2c0-1.2,0.7-2.6,1.7-3.5"/>
		<path id="XMLID_229_" class="st0" d="M421.4,397c0.4-4,6.3-7,13.2-6.8c0.3,0,0.7,0,1,0.1"/>
		<path id="XMLID_228_" class="st0" d="M282.2,378.1c-7.3-4.2-13.2-14.5-13.2-22.9"/>
		<path id="XMLID_227_" class="st0" d="M347.1,339.2c1,3.9-3.8,7.6-10.6,8.1c-0.3,0-0.6,0-1,0.1"/>
		<path id="XMLID_226_" class="st0" d="M317.3,371.7c-2.4-1.5-4.2-4.8-4.2-7.5"/>
		<path id="XMLID_225_" class="st0" d="M453.1,420.9c4.8,2.2,9.2,8.8,9.6,14.7c0.5,5.9-3.1,8.8-7.9,6.5c-4.3-2-8.3-7.5-9.4-13"/>
		
			<ellipse id="XMLID_224_" transform="matrix(-0.866 0.5 -0.5 -0.866 730.7922 489.1943)" class="st0" cx="299.9" cy="342.5" rx="7.2" ry="12.4"/>
		<path id="XMLID_223_" class="st0" d="M336.2,338.1c2,0.5,3,1.8,2.2,2.9c-0.8,1.2-3,1.7-5,1.3c-0.6-0.1-1-0.3-1.4-0.6"/>
		<ellipse id="XMLID_222_" class="st0" cx="421" cy="361.6" rx="16.1" ry="9.3"/>
		<path id="XMLID_221_" class="st0" d="M428.8,353.5c-3.9,2.5-10.5,2.7-14.9,0.5c-0.3-0.2-0.6-0.3-0.8-0.5"/>
		<path id="XMLID_220_" class="st0" d="M488.4,375.5c1.4,0.5,1.9,1.7,0.9,2.5c0,0,0,0,0,0"/>
		<ellipse id="XMLID_219_" class="st0" cx="433.8" cy="397.4" rx="3.9" ry="2.2"/>
		<path id="XMLID_218_" class="st0" d="M433.1,355.5c-5.8,3.9-16,4.3-22.7,0.9c-0.6-0.3-1.1-0.6-1.6-0.9"/>
		<path id="XMLID_217_" class="st0" d="M499.1,372.4c-1,0.6-2.7,0.7-3.9,0.2"/>
	</g>
	<g>
		<path id="XMLID_216_" class="st0" d="M311.5,282.4v10.1"/>
		<path id="XMLID_215_" class="st0" d="M313.6,276.2l5.7-3.3L313.6,276.2"/>
		<path id="XMLID_214_" class="st0" d="M318.1,288.8v-10.1"/>
		<path id="XMLID_213_" class="st0" d="M319.3,272.9l1.9-1.1"/>
		<path id="XMLID_212_" class="st0" d="M321.4,271.7l1.2-0.7"/>
		<path id="XMLID_211_" class="st0" d="M329.1,272.3l8.8,5.1"/>
		<path id="XMLID_210_" class="st0" d="M318.1,278.6c0-7,4.9-9.9,11-6.4c0,0,0,0,0,0"/>
		<path id="XMLID_209_" class="st0" d="M311.5,282.4c0-2.7,0.7-4.9,2.1-6.3"/>
	</g>
	<g>
		<path id="XMLID_208_" class="st0" d="M298.3,334.1c1.2,0.8,1.2,0.8,2.5,1.6c1.2,1.2,1.2,1.2,2.3,2.5c0.9,1.5,0.9,1.5,1.8,3
			c0.6,1.6,0.7,1.6,1.2,3.2c0.2,1.5,0.3,1.5,0.4,3.1"/>
		<path id="XMLID_207_" class="st0" d="M291.3,339.8L291.3,339.8l0.1-2.4l0.1-0.4l0.7-1.8l0.2-0.3l1.3-1.1l0.3-0.1l1.8-0.3l0.4,0.1
			l2,0.6"/>
		<path id="XMLID_206_" class="st0" d="M291.4,334.8l1.9-1.1l0.2-0.1l2.1-0.4h0.2l2.4,0.7l0.1,0.1"/>
		<path id="XMLID_205_" class="st0" d="M306.4,347.4v0.1l-0.4,2.6l-0.1,0.1l-1.2,1.9l-0.1,0.1l-2.4,1.4"/>
		<path id="XMLID_204_" class="st0" d="M299,338.5l3.4,4.2v4.5l-3.4,0.3l-3.4-4.2v-4.5L299,338.5l-3.4,2"/>
		<path id="XMLID_203_" class="st0" d="M302.3,342.7l-4.4,2.6l-2.4-2.9"/>
		<path id="XMLID_202_" class="st0" d="M306.4,347.5l-0.1,0.5l-0.3,2.1l-0.2,0.4l-1,1.5l-0.3,0.2l-1.5,0.7l-0.4,0l-1.8-0.2l-0.5-0.2
			l-2.4-1.2"/>
		<path id="XMLID_201_" class="st0" d="M298,346.2v-1"/>
		<path id="XMLID_200_" class="st0" d="M295.6,342.4c1,0.9,1.8,2.2,2.1,3.5"/>
	</g>
	<g>
		<path id="XMLID_199_" class="st0" d="M264.7,349.9c-0.1,0-0.1,0-0.1,0c-0.1,0-0.1,0-0.1,0c-0.1,0-0.1,0-0.1,0c-0.1,0-0.1,0-0.1,0"
			/>
		<path id="XMLID_198_" class="st0" d="M264.2,349.9c-0.1,0.1-0.1,0.1-0.3,0.2c-0.1,0.1-0.1,0.1-0.3,0.3c-0.1,0.2-0.1,0.2-0.3,0.3
			c-0.1,0.2-0.1,0.2-0.2,0.4"/>
		<path id="XMLID_197_" class="st0" d="M264.7,352c-0.1,0-0.1,0-0.1,0c-0.1,0-0.1,0-0.1,0c-0.1,0-0.1,0-0.1,0c-0.1,0-0.1,0-0.1,0.1"
			/>
		<path id="XMLID_196_" class="st0" d="M264.2,352c-0.1,0.1-0.1,0.1-0.3,0.2c-0.1,0.1-0.1,0.1-0.3,0.3c-0.1,0.2-0.1,0.2-0.3,0.3
			c-0.1,0.2-0.1,0.2-0.2,0.4"/>
		<path id="XMLID_195_" class="st0" d="M263.2,355.1c0.1-0.2,0.1-0.2,0.2-0.4c0.1-0.2,0.1-0.2,0.3-0.3c0.1-0.1,0.1-0.1,0.3-0.3
			c0.1-0.1,0.1-0.1,0.3-0.2c0.1,0,0.1,0,0.1-0.1c0.1,0,0.1,0,0.1,0c0.1,0,0.1,0,0.1,0c0.1,0,0.1,0,0.1,0.1"/>
		<path id="XMLID_194_" class="st0" d="M264.7,346c-0.1,0.1-0.1,0.1-0.3,0.1c-0.2,0.1-0.2,0.1-0.4,0.3c-0.2,0.2-0.2,0.2-0.4,0.4
			c-0.1,0.2-0.1,0.2-0.3,0.4"/>
		<path id="XMLID_193_" class="st0" d="M264.4,347.9c-0.1,0.1-0.1,0.1-0.3,0.1c-0.2,0.1-0.2,0.1-0.4,0.3c-0.2,0.2-0.2,0.2-0.4,0.5
			c-0.1,0.2-0.1,0.2-0.2,0.4"/>
		<path id="XMLID_192_" class="st0" d="M264.9,344.3c-0.2,0.1-0.2,0.1-0.5,0.2c-0.3,0.2-0.3,0.2-0.5,0.4c-0.1,0.2-0.1,0.2-0.3,0.3"
			/>
		<path id="XMLID_191_" class="st0" d="M266.5,342.7c-0.1-0.1-0.1-0.1-0.3-0.1c-0.1,0-0.1,0-0.1,0c-0.2,0-0.2,0-0.3,0"/>
		<path id="XMLID_190_" class="st0" d="M264.3,343.6c0.2-0.1,0.2-0.1,0.3-0.3c0.3-0.2,0.3-0.2,0.5-0.4c0.3-0.1,0.3-0.1,0.6-0.2"/>
		<path id="XMLID_189_" class="st0" d="M261.4,362.4v-5.8v-0.9V362.4l12.2,7"/>
		<path id="XMLID_188_" class="st0" d="M264.1,355.7v0.1l-2.7,1.5"/>
		<path id="XMLID_187_" class="st0" d="M265.2,342.7L263,344l-0.1,0.1l-0.9,2.1l-0.5,3.9v6.9"/>
		<path id="XMLID_186_" class="st0" d="M261.4,358.8v-1"/>
		<path id="XMLID_185_" class="st0" d="M269.4,358.9l-5.8-3.4"/>
		<path id="XMLID_184_" class="st0" d="M261.4,357.8L261.4,357.8"/>
		<path id="XMLID_183_" class="st0" d="M261.4,356.9v0.9"/>
		<path id="XMLID_182_" class="st0" d="M261.4,357.5v-0.4"/>
		<path id="XMLID_181_" class="st0" d="M263.8,349.4l0.3,0.1l-0.4-0.2l3.5,2l-2.5-1.4"/>
		<path id="XMLID_180_" class="st0" d="M263.2,351.1l2.4,1.4l-0.9-0.5"/>
		<path id="XMLID_179_" class="st0" d="M263.2,353.1l0.8,0.5L263.2,353.1"/>
		<path id="XMLID_178_" class="st0" d="M263.9,355.5l-0.7-0.4"/>
		<path id="XMLID_177_" class="st0" d="M264.7,354L264.7,354"/>
		<path id="XMLID_176_" class="st0" d="M263.2,355.1l0.8,0.5l-0.1-0.1"/>
		<path id="XMLID_175_" class="st0" d="M263.4,355.3L263.4,355.3"/>
		<path id="XMLID_174_" class="st0" d="M263.7,355.4L263.7,355.4"/>
		<path id="XMLID_173_" class="st0" d="M263.9,353.5l0.6,0.3"/>
		<path id="XMLID_172_" class="st0" d="M261.4,350.1v5.6"/>
		<path id="XMLID_171_" class="st0" d="M264,355.6l3.2,1.8L264,355.6"/>
		<path id="XMLID_170_" class="st0" d="M264,349.5l0.6,0.3l-1-0.6h0.1"/>
		<path id="XMLID_169_" class="st0" d="M263.7,351.4l0.3,0.2l-0.8-0.5"/>
		<path id="XMLID_168_" class="st0" d="M263.5,351.2L263.5,351.2L263.5,351.2"/>
		<path id="XMLID_167_" class="st0" d="M263.4,351.2l1.3,0.8"/>
		<path id="XMLID_166_" class="st0" d="M264.9,346l0.2,0.1L264.9,346l0.1,0.1L264.9,346h-0.2"/>
		<path id="XMLID_165_" class="st0" d="M263.3,347.1l0.7,0.4l-0.5-0.3"/>
		<path id="XMLID_164_" class="st0" d="M269,350.4l-4.4-2.6l0.2,0.1l-0.1,0l-0.2,0"/>
		<path id="XMLID_163_" class="st0" d="M263.2,349.1l0.4,0.3L263.2,349.1"/>
		<path id="XMLID_162_" class="st0" d="M263.7,347.4L263.7,347.4"/>
		<path id="XMLID_161_" class="st0" d="M264.6,347.8l-0.8-0.5"/>
		<path id="XMLID_160_" class="st0" d="M264,347.5L264,347.5L264,347.5"/>
		<path id="XMLID_159_" class="st0" d="M264,347.5L264,347.5"/>
		<path id="XMLID_158_" class="st0" d="M263.4,349.2L263.4,349.2"/>
		<path id="XMLID_157_" class="st0" d="M264.6,343.8L264.6,343.8l1,0.5h0l-0.2-0.1H265l-0.1,0"/>
		<path id="XMLID_156_" class="st0" d="M263.7,345.3l0.3,0.2l-0.2-0.1"/>
		<path id="XMLID_155_" class="st0" d="M264.1,345.5L264.1,345.5l0.8,0.5"/>
		<path id="XMLID_154_" class="st0" d="M265.1,342.8l0.2-0.1L263,344"/>
		<path id="XMLID_153_" class="st0" d="M264.1,355.7l3.1,1.8l-2.7-1.6"/>
		<path id="XMLID_152_" class="st0" d="M264.7,356.1l2.5,1.4l-3.1-1.8"/>
		<path id="XMLID_151_" class="st0" d="M269.6,358.8l-2.4-1.4l0.5,0.3"/>
		<path id="XMLID_150_" class="st0" d="M267.2,357.5l0.9,0.5"/>
		<path id="XMLID_149_" class="st0" d="M264.6,356l1.7,1"/>
		<path id="XMLID_148_" class="st0" d="M264.5,355.9l0.2,0.1"/>
		<path id="XMLID_147_" class="st0" d="M264.6,355.9l0.2,0.1"/>
		<path id="XMLID_146_" class="st0" d="M264.1,353.6v0.5"/>
		<path id="XMLID_145_" class="st0" d="M264.5,353.9l2.7,1.6l-3.2-1.8L264.5,353.9l-0.5-0.3l0.2,0.1"/>
		<path id="XMLID_144_" class="st0" d="M264.3,353.7l0.2,0.1"/>
		<path id="XMLID_143_" class="st0" d="M267.2,355.4l1.9,1.1"/>
		<path id="XMLID_142_" class="st0" d="M264.1,349.6v0.5"/>
		<path id="XMLID_141_" class="st0" d="M264.1,351.6v0.5"/>
		<path id="XMLID_140_" class="st0" d="M264.9,350l2.3,1.3l-1.7-1"/>
		<path id="XMLID_139_" class="st0" d="M269,352.4l-3.7-2.1"/>
		<path id="XMLID_138_" class="st0" d="M269,354.5l-4.3-2.5"/>
		<path id="XMLID_137_" class="st0" d="M264.6,347.8l2.6,1.5L264.6,347.8"/>
		<path id="XMLID_136_" class="st0" d="M264.8,347.9l2.4,1.4L264.8,347.9"/>
		<path id="XMLID_135_" class="st0" d="M264.6,347.8l2.6,1.5l-2.9-1.7"/>
		<path id="XMLID_134_" class="st0" d="M264.6,349.9l-0.3-0.2"/>
		<path id="XMLID_133_" class="st0" d="M264.6,349.9l0.1,0.1"/>
		<path id="XMLID_132_" class="st0" d="M264.3,349.7l0.3,0.2"/>
		<path id="XMLID_131_" class="st0" d="M264.5,351.8l-0.5-0.3l0.1,0.1"/>
		<path id="XMLID_130_" class="st0" d="M264,351.6l0.5,0.3"/>
		<path id="XMLID_129_" class="st0" d="M264.3,351.7l0.2,0.1"/>
		<path id="XMLID_128_" class="st0" d="M265.1,346.1l2.1,1.2L265,346"/>
		<path id="XMLID_127_" class="st0" d="M269,344.1l-2.5-1.4"/>
		<path id="XMLID_126_" class="st0" d="M265.7,342.5l-0.4,0.1"/>
		<path id="XMLID_125_" class="st0" d="M265.4,344.2l1.8,1l-1.6-0.9"/>
		<path id="XMLID_124_" class="st0" d="M264.6,343.8l-0.2-0.1"/>
		<path id="XMLID_123_" class="st0" d="M264.6,343.8l-0.3-0.2"/>
		<path id="XMLID_122_" class="st0" d="M265.8,342.7h0.4l0.3,0.1l2.6,1.5"/>
		<path id="XMLID_121_" class="st0" d="M264.8,343.9l0.2,0.1L264.8,343.9"/>
		<path id="XMLID_120_" class="st0" d="M265.2,344.1l-0.4-0.2"/>
		<path id="XMLID_119_" class="st0" d="M264.6,345.8L264.6,345.8"/>
		<path id="XMLID_118_" class="st0" d="M264.4,345.7l0.2,0.1"/>
		<path id="XMLID_117_" class="st0" d="M265.2,344.1l2,1.1L265.2,344.1"/>
		<path id="XMLID_116_" class="st0" d="M264.9,343.9l0.2,0.1"/>
		<path id="XMLID_115_" class="st0" d="M264.2,345.6l0.7,0.4"/>
		<path id="XMLID_114_" class="st0" d="M264.9,346l0.2,0.1L264.9,346"/>
		<path id="XMLID_113_" class="st0" d="M264.9,346l0.2,0.1L264.9,346"/>
		<path id="XMLID_112_" class="st0" d="M265.1,346.1L265,346"/>
		<path id="XMLID_111_" class="st0" d="M264.5,345.8L264.5,345.8"/>
		<path id="XMLID_110_" class="st0" d="M264.2,345.6l0.4,0.3"/>
		<path id="XMLID_109_" class="st0" d="M264.6,343.8l0.1,0.1"/>
		<path id="XMLID_108_" class="st0" d="M267.2,345.3l1.8,1.1"/>
		<path id="XMLID_107_" class="st0" d="M264.3,345.7l0.2,0.1"/>
		<path id="XMLID_106_" class="st0" d="M269,348.3l-1.8-1"/>
	</g>
	<g>
		<path id="XMLID_105_" class="st0" d="M452.4,423c1.2,0.8,1.2,0.8,2.5,1.7c1.2,1.2,1.2,1.2,2.3,2.4c0.9,1.5,0.9,1.5,1.8,3
			c0.6,1.6,0.6,1.6,1.2,3.2c0.2,1.5,0.2,1.5,0.4,3"/>
		<path id="XMLID_104_" class="st0" d="M456.5,431.7v4.5l-3.4,0.3l-3.4-4.2v-4.5l3.4-0.3L456.5,431.7l-4.4,2.6v1"/>
		<path id="XMLID_103_" class="st0" d="M449.7,431.3l2.4,2.9"/>
		<path id="XMLID_102_" class="st0" d="M453.1,427.5l-3.4,2"/>
		<path id="XMLID_101_" class="st0" d="M452.4,423l-1.3-0.4"/>
		<path id="XMLID_100_" class="st0" d="M451.1,422.6l1.2,0.4l0.1,0.1"/>
		<path id="XMLID_99_" class="st0" d="M460.6,436.4v0.1l-0.4,2.6l-0.1,0.1l-1.2,1.9l-0.1,0.1l-2.4,1.4"/>
		<path id="XMLID_98_" class="st0" d="M460.6,436.4l-0.1,0.5l-0.3,2.1l-0.2,0.4l-1,1.4l-0.3,0.2l-1.5,0.7l-0.4,0l-1.8-0.2l-0.5-0.2
			l-2.4-1.2"/>
		<path id="XMLID_97_" class="st0" d="M449.7,431.4c1,0.9,1.8,2.2,2.1,3.5"/>
	</g>
	<g>
		<path id="XMLID_96_" class="st0" d="M408.2,541.4c1.5-1.1,1.6-1.1,3.1-2.2c2.1-0.8,2.1-0.8,4.2-1.4c2.4-0.3,2.4-0.3,4.8-0.6
			c2.4,0.1,2.4,0.1,4.8,0.3c2.2,0.6,2.2,0.6,4.4,1.2c0.9,0.4,0.9,0.4,1.8,0.9c0.8,0.5,0.8,0.5,1.6,1.1c1.1,1.2,1.1,1.2,2.2,2.5"/>
		<path id="XMLID_95_" class="st0" d="M412.1,524.1c0.9-0.8,0.9-0.8,1.9-1.5c1.3-0.6,1.3-0.6,2.6-1.1c1.6-0.3,1.6-0.3,3.1-0.5
			c1.6,0,1.6,0,3.3,0.1c1.5,0.3,1.5,0.3,3,0.7c1.2,0.6,1.3,0.6,2.5,1.2"/>
		<path id="XMLID_94_" class="st0" d="M428.5,519.7c-1.2-0.6-1.2-0.6-2.5-1.2c-1.5-0.4-1.5-0.4-3-0.7c-1.6-0.1-1.6-0.1-3.3-0.1
			c-1.6,0.2-1.6,0.3-3.1,0.5c-0.1,0-0.1,0-0.1,0c-1.2,0.5-1.3,0.5-2.5,1c-1,0.7-1,0.7-1.9,1.5"/>
		<path id="XMLID_93_" class="st0" d="M412.9,522.8c1.1-0.7,1.1-0.7,2.3-1.3c1.4-0.5,1.4-0.5,2.9-0.9c1.6-0.1,1.6-0.1,3.2-0.2
			c1.6,0.2,1.6,0.2,3.2,0.4c1.4,0.5,1.4,0.5,2.8,1c1.1,0.7,1.1,0.7,2.1,1.4"/>
		<path id="XMLID_92_" class="st0" d="M428.5,516.5c-1.2-0.7-1.2-0.7-2.5-1.2c-1.5-0.4-1.5-0.4-3-0.7c-1.6-0.1-1.6-0.1-3.3-0.1
			c-1.6,0.2-1.6,0.3-3.1,0.5c-0.1,0-0.1,0-0.1,0c-1.2,0.5-1.3,0.5-2.5,1c-1,0.7-1,0.7-1.9,1.5"/>
		<path id="XMLID_91_" class="st0" d="M412.9,519.6c1.1-0.7,1.1-0.7,2.3-1.3c1.4-0.5,1.4-0.5,2.9-0.8c1.6-0.2,1.6-0.2,3.2-0.3
			c1.6,0.2,1.6,0.2,3.2,0.4"/>
		<path id="XMLID_90_" class="st0" d="M412.9,516.4c1.1-0.7,1.1-0.7,2.3-1.3c1.4-0.5,1.4-0.5,2.9-0.8c1.6-0.2,1.6-0.2,3.2-0.3
			c1.6,0.2,1.6,0.2,3.2,0.4c1.4,0.5,1.4,0.5,2.8,1c1.1,0.7,1.1,0.7,2.1,1.4"/>
		<path id="XMLID_89_" class="st0" d="M412.1,514.5c0.9-0.8,0.9-0.8,1.9-1.5c1.2-0.5,1.3-0.5,2.5-1c0.1,0,0.1,0,0.1,0
			c1.6-0.3,1.6-0.3,3.1-0.5c1.6,0,1.6,0,3.3,0.1c1.5,0.3,1.5,0.3,3,0.7c1.2,0.6,1.3,0.6,2.5,1.2"/>
		<path id="XMLID_88_" class="st0" d="M428.5,510.1c-1.2-0.7-1.2-0.7-2.5-1.2c-1.5-0.4-1.5-0.4-3-0.7c-1.6-0.1-1.6-0.1-3.3-0.1
			c-1.6,0.2-1.6,0.3-3.1,0.5c-0.1,0-0.1,0-0.1,0.1c-1.2,0.5-1.3,0.5-2.5,1c-1,0.7-1,0.8-1.9,1.5"/>
		<path id="XMLID_87_" class="st0" d="M412.9,513.1c1.1-0.7,1.1-0.7,2.3-1.3c1.4-0.5,1.4-0.5,2.9-0.8c1.6-0.1,1.6-0.1,3.2-0.2
			c1.6,0.1,1.6,0.1,3.2,0.4"/>
		<path id="XMLID_86_" class="st0" d="M412.9,509.9c1.1-0.7,1.1-0.7,2.3-1.3c1.4-0.5,1.4-0.5,2.9-0.8c1.6-0.1,1.6-0.1,3.2-0.2
			c1.6,0.1,1.6,0.1,3.2,0.4"/>
		<path id="XMLID_85_" class="st0" d="M412.1,508c0.9-0.8,0.9-0.8,1.9-1.5c1.3-0.6,1.3-0.6,2.6-1.1c1.6-0.3,1.6-0.3,3.1-0.5
			c1.6,0,1.6,0,3.3,0.1c1.5,0.3,1.5,0.3,3,0.7c1.2,0.6,1.3,0.6,2.5,1.2"/>
		<path id="XMLID_84_" class="st0" d="M412.1,504.8c0.9-0.8,0.9-0.8,1.9-1.5c1-0.5,1-0.4,2-0.8c0.3-0.1,0.3-0.2,0.7-0.3
			c1.6-0.3,1.6-0.3,3.1-0.5c1.6,0,1.6,0,3.3,0.1c1.5,0.3,1.5,0.3,3,0.7c1.2,0.6,1.3,0.6,2.5,1.2"/>
		<path id="XMLID_83_" class="st0" d="M412.9,506.7c1.1-0.7,1.1-0.7,2.3-1.3c1.4-0.5,1.4-0.4,2.9-0.8c0.4-0.1,0.4,0,0.8-0.1
			c0.6-0.1,0.6-0.1,1.1-0.1c0.7,0,0.7,0,1.3,0c1.6,0.2,1.6,0.2,3.2,0.4"/>
		<path id="XMLID_82_" class="st0" d="M412.1,501.6c0.9-0.8,0.9-0.8,1.9-1.5c1.2-0.6,1.3-0.5,2.5-1c0.1,0,0.1,0,0.1-0.1
			c1.6-0.3,1.6-0.3,3.1-0.5c1.6,0,1.6,0,3.3,0.1c1.5,0.3,1.5,0.3,3,0.7c1.2,0.6,1.3,0.6,2.5,1.2"/>
		<path id="XMLID_81_" class="st0" d="M412.9,503.4c1.1-0.7,1.1-0.7,2.3-1.3c1.4-0.5,1.4-0.5,2.9-0.8c1.6-0.1,1.6-0.1,3.2-0.2"/>
		<path id="XMLID_80_" class="st0" d="M412.9,500.2c1.1-0.7,1.1-0.7,2.3-1.3c1.4-0.5,1.4-0.5,2.9-0.8c1.6-0.1,1.6-0.1,3.2-0.2
			c1.6,0.2,1.6,0.2,3.2,0.4"/>
		<path id="XMLID_79_" class="st0" d="M412.1,498.3c0.9-0.8,0.9-0.8,1.9-1.5c1.2-0.6,1.2-0.5,2.5-1c0.1,0,0.1,0,0.1-0.1
			c1.6-0.3,1.6-0.3,3.1-0.5c1.6,0,1.6,0,3.2,0.1c1.5,0.3,1.5,0.3,3,0.7c1.2,0.6,1.2,0.6,2.5,1.2"/>
		<path id="XMLID_78_" class="st0" d="M411.9,552.6l-1.4-0.8l-2.8-2.3l-1.4-2.7l0.2-2.8l1.8-2.6"/>
		<path id="XMLID_77_" class="st0" d="M435.2,543.3l0.6,2.8l-1,2.7l-2.5,2.4l-1.5,0.9"/>
		<path id="XMLID_76_" class="st0" d="M406.2,546.8l-0.1-15.6"/>
		<path id="XMLID_75_" class="st0" d="M413.3,549l-0.6-0.4l2.2-4.8l8.3-1.3l6,3.5l-2.2,4.8l-8.3,1.3L413.3,549"/>
		<path id="XMLID_74_" class="st0" d="M411.9,524.6l0.2-0.5"/>
		<path id="XMLID_73_" class="st0" d="M428.5,523l1.6,1.6l0.1,0.1"/>
		<path id="XMLID_72_" class="st0" d="M430.5,524.7l0.3-1.6l-0.7-1.8l-1.6-1.6"/>
		<path id="XMLID_71_" class="st0" d="M412.1,520.9l-0.9,1.8l0.1,1.9l0.1,0.2"/>
		<path id="XMLID_70_" class="st0" d="M411.3,524.6l-0.2-1.5l0.1-0.3"/>
		<path id="XMLID_69_" class="st0" d="M411.4,524.8l0.1-0.3l1.4-1.7"/>
		<path id="XMLID_68_" class="st0" d="M429.5,523.2l1,1.6"/>
		<path id="XMLID_67_" class="st0" d="M430.5,521.5l0.3-1.6l-0.7-1.8l-1.6-1.6"/>
		<path id="XMLID_66_" class="st0" d="M412.1,517.7l-0.9,1.8l0.1,1.9l0.1,0.2"/>
		<path id="XMLID_65_" class="st0" d="M411.1,522.7l0.3-1.5l1.4-1.7"/>
		<path id="XMLID_64_" class="st0" d="M424.6,517.6l-2-0.3h-0.4"/>
		<path id="XMLID_63_" class="st0" d="M411.3,521.4l-0.2-1.5l0.1-0.3"/>
		<path id="XMLID_62_" class="st0" d="M411.1,519.5l0.3-1.5l1.4-1.7"/>
		<path id="XMLID_61_" class="st0" d="M429.5,516.8l1.2,1.7l0,0.5l0.2,1l-0.1,0.4l-0.2,0.8"/>
		<path id="XMLID_60_" class="st0" d="M411.4,518.3l-0.1-0.2l-0.1-1.9l0.9-1.8"/>
		<path id="XMLID_59_" class="st0" d="M428.5,513.3l1.6,1.6l0.7,1.8l-0.3,1.6"/>
		<path id="XMLID_58_" class="st0" d="M411.3,518.1l-0.2-1.5l0.1-0.3"/>
		<path id="XMLID_57_" class="st0" d="M430.5,515.1l0.3-1.6l-0.7-1.8l-1.6-1.6"/>
		<path id="XMLID_56_" class="st0" d="M412.1,511.2l-0.9,1.8l0.1,1.9l0.1,0.2"/>
		<path id="XMLID_55_" class="st0" d="M411.3,514.9l-0.2-1.5l0.1-0.3"/>
		<path id="XMLID_54_" class="st0" d="M411.1,516.3l0.3-1.5l1.4-1.7"/>
		<path id="XMLID_53_" class="st0" d="M424.6,511.1l-2-0.3h-0.4"/>
		<path id="XMLID_52_" class="st0" d="M411.2,509.9l-0.1,0.3l0.2,1.5l0.1,0.2"/>
		<path id="XMLID_51_" class="st0" d="M411.1,513l0.3-1.5l1.4-1.7"/>
		<path id="XMLID_50_" class="st0" d="M424.6,507.9l-2-0.3h-0.4"/>
		<path id="XMLID_49_" class="st0" d="M411.3,511.7l-0.1-1.9l0.9-1.8"/>
		<path id="XMLID_48_" class="st0" d="M428.5,506.8l1.6,1.6l0.7,1.8l-0.3,1.5"/>
		<path id="XMLID_47_" class="st0" d="M411.4,508.6l-0.1-0.2l-0.1-1.9l0.9-1.8"/>
		<path id="XMLID_46_" class="st0" d="M428.5,503.6l1.6,1.6l0.7,1.8l-0.3,1.6"/>
		<path id="XMLID_45_" class="st0" d="M411.1,509.8l0.3-1.5l1.4-1.7"/>
		<path id="XMLID_44_" class="st0" d="M424.6,504.6l-2-0.3h-0.4"/>
		<path id="XMLID_43_" class="st0" d="M411.4,505.4l-0.1-0.2l-0.1-1.9l0.9-1.8"/>
		<path id="XMLID_42_" class="st0" d="M428.5,500.4l1.6,1.6l0.7,1.8l-0.3,1.6"/>
		<path id="XMLID_41_" class="st0" d="M411.3,508.4l-0.2-1.5l0.1-0.3"/>
		<path id="XMLID_40_" class="st0" d="M411.1,506.6l0.3-1.4l1.4-1.7"/>
		<path id="XMLID_39_" class="st0" d="M421.4,501l-1.3,0l-1.1,0.1"/>
		<path id="XMLID_38_" class="st0" d="M411.1,503.3l0.3-1.4l1.4-1.7"/>
		<path id="XMLID_37_" class="st0" d="M424.6,498.2l-2-0.3h-0.4"/>
		<path id="XMLID_36_" class="st0" d="M411.3,505.2l-0.2-1.5l0.1-0.3"/>
		<path id="XMLID_35_" class="st0" d="M411.4,502.2l-0.1-0.2l-0.1-1.9l0.9-1.8"/>
		<path id="XMLID_34_" class="st0" d="M428.5,497.2l1.7,1.6l0.7,1.8l-0.3,1.5"/>
		<path id="XMLID_33_" class="st0" d="M414,496.8l1.2-0.7"/>
		<path id="XMLID_32_" class="st0" d="M418.7,552.2v-7.8l-1.5-0.9"/>
		<path id="XMLID_31_" class="st0" d="M418.7,544.4l6-0.9"/>
		<path id="XMLID_30_" class="st0" d="M418.9,543.7l0.1-0.5"/>
		<path id="XMLID_29_" class="st0" d="M418.9,520.6l1.1-0.1l1.3-0.1"/>
		<path id="XMLID_28_" class="st0" d="M421.4,517.2l-1.3,0.1l-1.1,0.1"/>
		<path id="XMLID_27_" class="st0" d="M418.9,514.1l1.1-0.1l1.3-0.1"/>
		<path id="XMLID_26_" class="st0" d="M418.9,510.9l1.1-0.1l1.3,0"/>
		<path id="XMLID_25_" class="st0" d="M418.9,507.7l1.1-0.1l1.3,0"/>
		<path id="XMLID_24_" class="st0" d="M418.9,504.4l2.4-0.2"/>
		<path id="XMLID_23_" class="st0" d="M418.9,498l1.1-0.1l1.3,0"/>
		<path id="XMLID_22_" class="st0" d="M422.1,520.5h0.4l2,0.3"/>
		<path id="XMLID_21_" class="st0" d="M422.1,514.1h0.4l2,0.3"/>
		<path id="XMLID_20_" class="st0" d="M422.1,501.1h0.4l2,0.3l-3.2-0.4"/>
		<path id="XMLID_19_" class="st0" d="M430.6,524.4l0.2-0.8l0.1-0.4l-0.2-1l0-0.5l-1.2-1.8l-2.1-1.4l-2.8-1"/>
		<path id="XMLID_18_" class="st0" d="M424.6,511.1l2.8,1l2.1,1.4l1.2,1.7l0,0.5l0.2,1l-0.1,0.4l-0.2,0.9"/>
		<path id="XMLID_17_" class="st0" d="M424.6,507.9l2.8,1l2.1,1.4l1.2,1.7l0,0.5l0.2,1l-0.1,0.4l-0.3,1.1"/>
		<path id="XMLID_16_" class="st0" d="M430.5,511.8l0.3-1.1l0.1-0.4l-0.2-1l0-0.5l-1.2-1.8l-2.1-1.4l-2.8-1"/>
		<path id="XMLID_15_" class="st0" d="M424.6,501.4l2.8,1l2.1,1.4l1.2,1.8l0,0.5l0.2,1l-0.1,0.4l-0.3,1.1"/>
		<path id="XMLID_14_" class="st0" d="M424.6,498.2l2.8,1l2.1,1.4l1.2,1.8l0,0.5l0.2,1l-0.1,0.4l-0.3,1.2"/>
		<path id="XMLID_13_" class="st0" d="M427,550.9v-6.1"/>
		<path id="XMLID_12_" class="st0" d="M428.5,497.2l-2.4-1.4"/>
		<path id="XMLID_11_" class="st0" d="M435.7,530.2l0.1,15.9"/>
		<path id="XMLID_10_" class="st0" d="M424.5,543.4c-2.1,0.7-4.7,0.7-6.9,0.1"/>
		<path id="XMLID_9_" class="st0" d="M406.1,531.3c0-4.7,6.6-8.6,14.8-8.6c7.5,0,13.9,3.2,14.8,7.5"/>
		<path id="XMLID_8_" class="st0" d="M415.2,496.1c2.7-1.8,7.4-2.1,10.6-0.5c0.2,0.1,0.4,0.2,0.5,0.3"/>
		<ellipse id="XMLID_7_" class="st0" cx="421" cy="547.4" rx="12.8" ry="7.4"/>
	</g>
	<g>
		<path id="XMLID_6_" class="st0" d="M416.4,405.8l0.6,0.3"/>
		<path id="XMLID_5_" class="st0" d="M421.6,406.3L421.6,406.3"/>
		<path id="XMLID_4_" class="st0" d="M421,406.5c-1.8,0.5-4,0.1-5-0.9"/>
	</g>
	<g>
		<path id="XMLID_3_" class="st1" d="M422.6,352.5L421,494.6"/>
		<path id="XMLID_2_" class="st1" d="M423.9,229.7l-0.8,74.6"/>
	</g>
	<g id="XMLID_412_">
		<path id="XMLID_7543_" class="st2" d="M533.2,473.3c0,0-30.5,36.8-102.4,63.9c85.4-7.7,113.9-48.3,113.9-48.3L533.2,473.3z"/>
		<g id="XMLID_413_">
			<circle id="XMLID_7704_" class="st3" cx="571.9" cy="466.3" r="54.9"/>
			<g id="XMLID_414_">
				<path id="XMLID_7539_" class="st4" d="M574.9,470.1l2.1,0.6l1.2,0.6l1.8,1.2l1.1,1l1,1.2l0.6,1.3l0.3,1.6l-0.1,1.4l-0.4,1.2
					l-0.5,0.9l-0.7,1l-0.5,0.6l-1.3,1l-1.6,0.9l-1.6,0.6l-1.7,0.4l-2.2,0.3l0.1,1.6l-0.2-0.1l-2.3-3l-0.1-0.1l0-0.2l2.2-3.3l0.1,1.6
					l0.8-0.1l1.4-0.3l1.5-0.6l1-0.8l0.7-0.8l0.5-1l0.1-0.4v-1.2l-0.1-0.5l-0.4-0.8l-0.6-0.8l-0.8-0.7l-1.4-0.7l-1.2-0.4l-1.1-0.2
					v-3.4l1,0L574.9,470.1z M570.9,473.3l-1.2,0.3l-0.8,0.3l-0.8,0.4L567,475l-0.5,0.6l-0.4,0.7l-0.3,0.6l-0.1,0.7v0.7l0.1,0.6
					l0.2,0.5l0.6,1l-3.7,1.7l-0.4,0.1l-0.9-1.3l-0.5-1.2l-0.2-1v-1.2l0.1-0.8l0.4-1.3l0.7-1.2l1-1.2l1.5-1.2l1.7-0.9l1.7-0.6l2-0.4
					l0.7,0V473.3z"/>
				<path id="XMLID_7538_" class="st4" d="M574.1,503.2l2.3,0.1l-1.9,1.8l-0.9,0.8l-1.7,1.7h-0.5l-1.8-1.8l-0.9-0.8l-1.1-1l-0.7-0.6
					l0-0.1l2.2-0.1l0.1-7.4h4.8L574.1,503.2z"/>
				<path id="XMLID_7537_" class="st5" d="M572.7,485.9l-0.4,0l0.1,1.7l-1.5-1.9"/>
				<path id="XMLID_7536_" class="st5" d="M572.7,482.4l-0.6,0.1l-0.1-1.7l-1.1,1.7"/>
				<path id="XMLID_7535_" class="st5" d="M570.9,473.3C570.9,473.3,570.8,473.3,570.9,473.3c-0.1,0-0.1,0-0.1,0c0,0,0,0,0,0
					c0,0,0,0-0.1,0c-0.4,0.1-0.8,0.1-1.1,0.3c-0.3,0.1-0.7,0.3-1,0.4c-1.8,0.9-3.4,2.7-2.8,4.9c0.2,0.6,0.5,1,0.8,1.5"/>
				<path id="XMLID_7534_" class="st5" d="M562.5,482.2c-2.4-3-2-6.9,0.9-9.4c0.8-0.7,1.7-1.2,2.6-1.7c0.6-0.2,1.1-0.4,1.7-0.7
					c0.6-0.1,1.2-0.3,1.8-0.4c0.4-0.1,0.9-0.1,1.3-0.1"/>
				<path id="XMLID_7533_" class="st5" d="M572.7,485.9L572.7,485.9c0.5-0.1,1-0.1,1.5-0.2c0.6-0.1,1.2-0.3,1.8-0.4
					c2.7-0.9,5.6-2.6,6.5-5.5c0.9-2.8-0.2-5.6-2.5-7.4c-1.4-1.1-3.1-1.8-4.8-2.3c-0.6-0.1-1.3-0.2-1.9-0.3c-0.3,0-0.5-0.1-0.8,0"/>
				<path id="XMLID_7532_" class="st5" d="M572.7,482.4L572.7,482.4c0.1,0,0.2,0,0.3,0c0.1,0,0.2,0,0.3,0c0.4-0.1,0.7-0.1,1-0.3
					c0.3-0.1,0.7-0.2,1-0.4c2.9-1,3.9-4.5,1.7-6.7c-0.5-0.5-1.3-1-2-1.3c-0.3-0.1-0.7-0.2-1-0.3c-0.4-0.1-0.7-0.1-1.1-0.2l0,0l0,0
					c0,0,0,0,0,0l0,0l0,0c0,0,0,0,0,0l0,0l0,0l0,0c0,0,0,0,0,0l0,0l0,0l0,0"/>
				<path id="XMLID_7531_" class="st5" d="M566.5,480.3l-4,1.8"/>
				<path id="XMLID_7530_" class="st5" d="M570.9,485.8l-1.2-1.5l1.2-1.8"/>
				<path id="XMLID_7529_" class="st5" d="M567.4,503.2h-0.5l4.7,4.5l4.7-4.5H574v-7.5h-4.8v7.5H567.4"/>
				<path id="XMLID_426_" class="st6" d="M568.3,440.6L568.3,440.6c0.1-0.9,0.2-1.8,0.2-2.7"/>
				<path id="XMLID_7528_" class="st6" d="M572.6,441.5c-0.1,0.5-0.3,0.9-0.7,1.2c0,0-0.1,0.1-0.1,0.1c0,0-0.1,0.1-0.1,0.1l0,0
					c-0.1,0-0.1,0.1-0.1,0.1c0,0,0,0-0.1,0c0,0,0,0,0,0l0,0c-0.6,0.4-1.6,0.3-2.2-0.1c0,0-0.1-0.1-0.1-0.1c-0.7-0.6-1-1.2-1-2.2"/>
				<path id="XMLID_7527_" class="st6" d="M568.5,437.9c-0.4-0.3-0.8-0.4-1.2-0.7c0,0-0.1,0-0.1-0.1c0,0,0-0.1-0.1-0.1
					c0,0-0.1-0.1-0.1-0.1"/>
				<path id="XMLID_7526_" class="st6" d="M567.1,436.9c-0.3,0.7-0.7,1.5-1.1,2.2c0,0,0,0,0,0.1c0,0,0,0,0,0c0,0,0,0-0.1,0.1
					c0,0.1-0.1,0.1-0.1,0.1c0,0,0,0.1-0.1,0.1c0,0,0,0,0,0c0,0,0,0,0,0c-0.1,0.1-0.1,0.1-0.1,0.1c0,0-0.1,0-0.1,0.1l0,0c0,0,0,0,0,0
					c0,0,0,0-0.1,0c0,0,0,0-0.1,0c0,0-0.1,0-0.1,0c0,0-0.1,0-0.1,0c0,0-0.1,0-0.1,0c0,0,0,0-0.1,0"/>
				<path id="XMLID_425_" class="st6" d="M564.5,436.3c0.6-1,1.3-2.3,1.4-3.5c0-0.1,0.1-0.1,0.1-0.2c0-0.1,0.1-0.1,0.1-0.1"/>
				<path id="XMLID_7525_" class="st6" d="M564.9,439.9C564.8,439.9,564.8,439.9,564.9,439.9c-0.1,0-0.1,0-0.2-0.1l0,0
					c0,0-0.1,0-0.1-0.1c0,0-0.1,0-0.1-0.1c0,0,0,0,0-0.1c0,0,0,0,0,0c0,0,0,0,0,0c0,0,0-0.1-0.1-0.1c-0.5-1-0.4-2.3,0.1-3.3"/>
				<path id="XMLID_7524_" class="st6" d="M565.8,443.8c-0.1-0.1-0.1-0.1-0.1-0.2c-0.2-0.3-0.4-0.7-0.7-1.1"/>
				<path id="XMLID_7523_" class="st6" d="M565,434.2L565,434.2L565,434.2L565,434.2L565,434.2L565,434.2L565,434.2l0.1-0.1l0,0h0v0
					l0,0l0,0l0,0v0c0,0,0,0,0.1-0.1l0,0c0-0.1,0.1-0.1,0.1-0.1v0c0,0,0,0,0.1-0.1v0l0,0v0c0.1-0.1,0.1-0.1,0.1-0.2l0,0l0,0h0v0l0,0
					l0,0v0l0,0l0,0h0v0l0,0l0,0v0l0,0h0"/>
				<path id="XMLID_7522_" class="st6" d="M565,434.2L565,434.2L565,434.2L565,434.2L565,434.2L565,434.2L565,434.2l0.1-0.1l0,0l0,0
					l0,0l0,0l0,0v0h0v0l0,0l0,0c0-0.1,0.1-0.1,0.1-0.2v0l0,0v0c0,0,0.1-0.1,0.1-0.1c0-0.1,0-0.1,0.1-0.2l0,0c0-0.1,0.1-0.1,0.1-0.1
					v0l0,0v0l0,0l0,0l0,0v0c0-0.1,0.1-0.1,0.1-0.2"/>
				<path id="XMLID_7519_" class="st6" d="M567.5,445.9c-0.6-1.2-1.6-2-2.3-2.9"/>
				<path id="XMLID_7518_" class="st6" d="M565.1,439.9L565.1,439.9C565.2,439.9,565.2,440,565.1,439.9c0.1,0,0.1,0,0.1,0
					c0,0,0.1,0,0.1,0l0,0c0,0,0,0,0.1,0l0,0c0,0,0,0,0.1,0l0,0c0,0,0,0,0.1,0c0,0,0.1-0.1,0.1-0.1l0,0c0,0,0,0,0,0l0,0c0,0,0,0,0,0
					s0,0,0,0l0,0c0,0,0,0,0.1-0.1c0,0,0,0,0,0c0,0,0,0,0,0c0.1-0.1,0.1-0.1,0.1-0.1c0-0.1,0.1-0.1,0.1-0.1c0,0,0,0,0,0
					c0.3-0.5,0.7-1.2,0.9-1.8c0-0.2,0.1-0.3,0.2-0.5"/>
				<path id="XMLID_7517_" class="st6" d="M566.2,445.6c0,0.3-0.1,0.9-0.3,1.2c0,0,0,0,0,0c0,0,0,0,0,0c0,0,0,0,0,0
					c-0.2,0.7-0.1,1.4,0.1,2c0,0,0,0.1,0,0.1c0,0,0.1,0.1,0.1,0.1c0,0,0,0.1,0.1,0.1c0,0,0,0,0,0c0,0,0,0,0,0s0,0,0,0
					c0,0,0,0,0.1,0.1l0,0c0,0,0,0,0,0c0,0,0,0,0.1,0c0,0,0,0,0,0c0,0,0.1,0,0.1,0l0,0c0,0,0,0,0,0c0,0,0,0,0.1,0c0,0,0.1,0,0.1,0
					c0,0,0,0,0,0c0,0,0.1,0,0.1,0l0,0l0,0c0,0,0,0,0,0l0,0l0,0c0,0,0,0,0,0l0,0l0,0c0,0,0,0,0,0"/>
				<path id="XMLID_7516_" class="st6" d="M566.2,444.2L566.2,444.2C566.2,444.2,566.3,444.2,566.2,444.2
					C566.3,444.2,566.3,444.3,566.2,444.2C566.3,444.3,566.3,444.3,566.2,444.2c0.5,0.5,1,1.1,1.2,1.6"/>
				<path id="XMLID_7515_" class="st6" d="M566,432.9L566,432.9c0,0,0-0.1,0-0.1l0,0l0,0l0,0v0l0,0c0,0,0-0.1,0-0.1l0,0l0,0v-0.1
					l0,0c0,0,0-0.1,0-0.1l0,0l0,0v0l0,0c0-0.1,0-0.1,0-0.2l0,0l0,0c0,0,0,0,0-0.1h0v0l0,0l0,0v0h0v0l0,0l0,0v0h0c0,0,0,0,0-0.1"/>
				<path id="XMLID_7514_" class="st6" d="M577.3,444.4L577.3,444.4C577.3,444.5,577.2,444.5,577.3,444.4l0,0.1l0,0v0l0,0v0l0,0l0,0
					c0,0,0,0.1,0,0.1c0,0.2-0.2,0.6-0.3,0.7v0l0,0v0l0,0l0,0l0,0v0.1c-0.1,0.2-0.3,0.4-0.5,0.6c-0.4,0.3-0.8,0.7-1.2,1
					c-0.2,0.1-0.3,0.1-0.5,0.2c-0.1,0-0.3,0.2-0.5,0.2l0,0l0,0l0,0l0,0c-0.2,0.1-0.4,0.1-0.5,0.1l0,0c-1.6,0.2-3.1,0.2-4.6-0.3
					c-0.6-0.3-1.2-0.6-1.6-1.1v0c-0.1-0.1-0.1-0.1-0.2-0.2c-0.1-0.2-0.3-0.3-0.4-0.5v-0.1c0,0,0-0.1-0.1-0.1v0l0,0v0l0,0
					c0-0.1,0-0.1-0.1-0.2c-0.1-0.1-0.2-0.4-0.2-0.5l0,0l0,0c0,0,0-0.1,0-0.1v0l0,0v0l0,0v0h0c0,0,0-0.1,0-0.1"/>
				<path id="XMLID_7513_" class="st6" d="M566.8,430.2L566.8,430.2C566.8,430.2,566.8,430.2,566.8,430.2L566.8,430.2L566.8,430.2
					L566.8,430.2L566.8,430.2L566.8,430.2L566.8,430.2L566.8,430.2L566.8,430.2C566.8,430.2,566.8,430.2,566.8,430.2L566.8,430.2
					c0.5,0.9,1,2,1.2,2.9c0.2,1-0.3,2-0.6,2.9"/>
				<path id="XMLID_7512_" class="st6" d="M567.5,435.9L567.5,435.9L567.5,435.9L567.5,435.9L567.5,435.9L567.5,435.9L567.5,435.9
					C567.5,436,567.5,436,567.5,435.9L567.5,435.9L567.5,435.9L567.5,435.9L567.5,435.9L567.5,435.9L567.5,435.9l0.1,0.1l0,0l0,0
					c0.1,0,0.2,0.1,0.2,0.2h0c0,0,0,0,0.1,0.1h0c0.1,0.1,0.1,0.1,0.2,0.1c0,0,0.1,0,0.1,0.1h0l0,0h0l0,0l0,0l0,0h0l0,0h0l0,0h0
					c0,0,0.1,0,0.1,0.1"/>
				<path id="XMLID_7511_" class="st6" d="M568.6,436.7c-0.1-1,0.2-2.1,0.2-2.9c0,0,0,0,0.1-0.1c0-0.1,0.1-0.2,0.2-0.2c0,0,0,0,0,0
					c0,0,0.1,0,0.1-0.1l0,0c0.1,0,0.3-0.1,0.5-0.1c0.3,0,0.6,0,0.9,0c0.2,0,0.4,0,0.5,0.1c0.3,0,0.7,0.2,1,0.3c0.1,0,0.1,0,0.2,0.1
					c0,0,0.1,0,0.1,0.1c0.1,0,0.1,0,0.1,0.1c0,0,0,0,0,0c0.1,0,0.1,0.1,0.2,0.2c0.1,0,0.1,0.1,0.2,0.2c0,0.1,0.1,0.1,0.1,0.2
					c0.2,0.9,0,1.9-0.1,2.8"/>
				<path id="XMLID_424_" class="st6" d="M573.8,434.7c0-0.4,0.1-0.6,0.2-1c0,0,0.1-0.1,0.1-0.1c0,0,0-0.1,0.1-0.1c0,0,0,0,0-0.1
					c0-0.1,0.1-0.2,0.2-0.2c0,0,0,0,0,0c0,0,0,0,0,0c0,0,0.1-0.1,0.1-0.1c0,0,0,0,0.1-0.1c0-0.1,0.1-0.1,0.1-0.1
					c0.1-0.2,0.4-0.4,0.6-0.6c0.2-0.1,0.3-0.2,0.5-0.4c0,0,0.1,0,0.1-0.1c0,0,0,0,0.1,0c0,0,0,0,0,0c0,0,0.1,0,0.1-0.1
					c0,0,0,0,0.1,0c0,0,0,0,0,0c0,0,0,0,0,0l0,0c0,0,0,0,0.1,0c0.1,0,0,0,0.1,0c0,0,0,0,0,0c0,0,0,0,0,0c0,0,0,0,0.1,0l0,0
					c0,0,0,0,0,0s0,0,0,0l0,0l0,0c0,0,0,0,0,0s0,0,0,0l0,0"/>
				<path id="XMLID_7510_" class="st6" d="M574.3,436.9L574.3,436.9c0,0,0-0.1,0-0.1l0,0c0,0,0-0.1,0-0.1l0,0c0,0,0-0.1,0-0.1l0,0
					c0,0,0-0.1,0-0.1l0,0c-0.1-0.3-0.2-0.6-0.2-0.9l0,0c-0.1-0.3-0.1-0.6-0.2-0.9"/>
				<path id="XMLID_7509_" class="st6" d="M576.3,453.4c0,0.2,0,0.3,0,0.5c0,0,0,0.1,0,0.1c0,0,0,0.1,0,0.1c-0.1,0.4-0.3,0.7-0.5,1
					c0,0,0,0,0,0c0,0,0,0,0,0c0,0,0,0,0,0.1c-0.1,0.1-0.1,0.1-0.2,0.2c-0.3,0.3-0.7,0.6-1,0.8c-0.1,0-0.1,0.1-0.2,0.1
					c-1.6,1-3.8,0.6-5.3-0.1c-0.3-0.2-0.7-0.5-1-0.7c0,0,0,0,0,0c0,0,0,0-0.1-0.1c0,0-0.1-0.1-0.1-0.1c0,0,0,0,0,0
					c0,0,0-0.1-0.1-0.1c-0.2-0.3-0.4-0.6-0.5-0.9c0,0,0,0,0-0.1c0-0.2-0.1-0.5-0.1-0.8"/>
				<path id="XMLID_7508_" class="st6" d="M567.7,446.7L567.7,446.7L567.7,446.7L567.7,446.7L567.7,446.7L567.7,446.7L567.7,446.7
					L567.7,446.7L567.7,446.7L567.7,446.7L567.7,446.7L567.7,446.7L567.7,446.7L567.7,446.7l0,0.1l0,0v0l0,0c0,0,0,0.1,0,0.1l0,0
					l0,0c0,0,0,0.1,0,0.1l0,0c0,0,0,0.1,0,0.1l0,0c0,0.1,0,0.2,0,0.3l0,0c0,0.1,0,0.1,0,0.2l0,0v0.1l0,0c0,0,0,0.1,0,0.1l0,0
					c0,0,0,0.1,0,0.1l0,0c0,0,0,0.1,0,0.1l0,0c0,0,0,0.1,0,0.1l0,0c0,0,0,0.1,0,0.1l0,0c0,0,0,0.1,0,0.1l0,0v0.1l0,0v0h0
					c0,0,0,0,0,0.1l0,0l0,0l0,0l0,0v0l0,0v0h0c0,0,0,0,0,0.1h0l0,0c0,0,0,0,0,0.1h0l0,0v0h0v0l0,0l0,0l0,0l0,0v0h0v0l0,0l0,0l0,0
					c0,0,0,0,0,0v0l0,0c0,0,0,0,0,0v0c0,0,0,0,0,0l0,0v0h0l0,0v0c0,0,0,0,0,0v0h0l0,0c0,0,0,0,0,0v0c0,0,0,0,0,0l0,0l0,0v0h0
					c0,0,0,0,0,0l0,0l0,0c0,0,0,0,0,0s0,0,0,0l0,0v0h0l0,0c0,0,0,0,0,0s0,0,0,0v0h0"/>
				<path id="XMLID_7507_" class="st6" d="M566.8,449.4L566.8,449.4c0.1,0,0.2-0.1,0.3-0.1l0,0c0.1,0,0,0,0.1,0c0,0,0,0,0.1,0
					c0,0,0-0.1,0.1-0.1c0,0,0,0,0,0l0,0l0,0c0,0,0,0,0,0l0,0c0,0,0,0,0,0l0,0c0,0,0-0.1,0.1-0.1c0,0,0,0,0,0l0,0
					c0,0,0.1-0.1,0.1-0.2c0,0,0,0,0-0.1l0,0c0,0,0-0.1,0-0.1c0.1-0.2,0.1-0.3,0.1-0.5c0-0.1,0.1-0.3,0.1-0.5c0.1-0.3,0-0.7,0-1"/>
				<path id="XMLID_7506_" class="st6" d="M568.6,447.3c0,0.8-0.1,1.8,0,2.6c0,0.1,0.1,0.3,0.1,0.4c0,0.1,0.1,0.2,0.1,0.3
					c0,0,0,0,0,0l0,0c0,0,0,0,0,0c0,0,0,0,0,0c0,0,0.1,0.1,0.1,0.1c0,0.1,0,0.1,0.1,0.1c0,0,0,0,0,0.1c0,0,0.1,0.1,0.1,0.1
					c0,0,0,0,0,0s0,0,0,0c0,0,0,0,0,0c0,0,0,0.1,0.1,0.1c0,0,0,0.1,0.1,0.1c0,0,0,0,0,0c0,0,0,0,0,0c0,0,0.1,0.1,0.1,0.1
					c0,0,0.1,0,0.1,0.1c0.1,0,0.1,0.1,0.2,0.1c0,0,0.1,0,0.1,0.1c0,0,0,0,0.1,0c0,0,0.1,0,0.1,0c0,0,0,0,0.1,0c0.1,0,0.2,0,0.2,0.1
					c0.1,0,0.1,0,0.1,0c0.5,0,1.1,0,1.4-0.3c0,0,0,0,0.1,0c0,0,0,0,0,0c0,0,0.1-0.1,0.1-0.1c0,0,0.1-0.1,0.1-0.1c0,0,0,0,0.1-0.1
					c0.1-0.1,0.1-0.1,0.2-0.2c0,0,0,0,0-0.1c0,0,0-0.1,0.1-0.1c0,0,0,0,0-0.1c0,0,0.1-0.1,0.1-0.1c0,0,0-0.1,0.1-0.1
					c0-0.1,0.1-0.2,0.1-0.2c0,0,0-0.1,0.1-0.1"/>
				<path id="XMLID_7505_" class="st6" d="M567.5,435.9c0.3-0.7,0.7-1.7,0.7-2.4c0-1.1-0.7-2.4-1.3-3.4"/>
				<path id="XMLID_7504_" class="st6" d="M567.5,445.9L567.5,445.9L567.5,445.9L567.5,445.9L567.5,445.9L567.5,445.9
					C567.6,445.9,567.6,445.9,567.5,445.9L567.5,445.9c0.1,0.1,0.1,0.1,0.1,0.1l0,0l0,0h0v0h0l0,0l0,0c0.1,0,0.1,0.1,0.2,0.1h0
					c0,0,0,0,0.1,0.1h0c0.1,0.1,0.2,0.1,0.3,0.2l0,0l0,0c0,0,0,0,0,0l0,0l0,0c0,0,0,0,0,0l0,0l0,0c0,0,0,0,0,0l0,0h0l0,0"/>
				<path id="XMLID_7503_" class="st6" d="M568.8,445.2C568.8,445.2,568.8,445.2,568.8,445.2L568.8,445.2l-0.1,0c0,0,0,0,0,0
					c0,0,0,0,0,0s0,0,0,0l0,0l0,0c0,0,0,0,0,0c0,0,0,0,0,0s0,0,0,0l0,0v0h0l0,0l0,0c0,0,0,0,0,0l0,0c0,0,0,0,0,0v0h0l0,0l0,0l0,0
					c0,0,0,0,0,0v0l0,0l0,0c0,0,0,0,0,0l0,0l0,0v0c0,0,0,0,0,0l0,0"/>
				<path id="XMLID_7502_" class="st6" d="M568.7,434c0.1-0.2,0.1-0.3,0.3-0.5c0.1,0,0.9-0.3,1.1-0.3c0.6,0,1.3,0.1,1.9,0.4
					c1.5,0.7,1,2.3,0.9,3.7l0,0l0,0l0,0c0,0,0,0,0,0l0,0l0,0l0,0l0,0l0,0l0,0l0,0"/>
				<path id="XMLID_7501_" class="st6" d="M572.6,463.1c-0.2,0-0.3,0.1-0.5,0.1c-0.2,0-0.5,0-0.8,0c0,0-0.1,0-0.1,0
					c-0.1,0-0.2,0-0.3-0.1c-0.1,0-0.1,0-0.2-0.1c-0.1,0-0.1-0.1-0.2-0.1c-0.1,0-0.1-0.1-0.2-0.1"/>
				<path id="XMLID_7499_" class="st6" d="M571.2,492.5L571.2,492.5L571.2,492.5l0.9,0.1"/>
				<path id="XMLID_7498_" class="st6" d="M572,492.7l0,1.8"/>
				<path id="XMLID_7497_" class="st6" d="M571.6,445.6c0.4,0.1,0.7,0.3,1,0.5c0,0,0.1,0.1,0.1,0.1l0,0c0,0,0,0,0,0l0,0c0,0,0,0,0,0
					c0.1,0.3,0.2,0.6,0.2,1"/>
				<path id="XMLID_7496_" class="st6" d="M572.9,447.2c0.1,0,0.3-0.1,0.4-0.1l0,0c0.3,0,0.7-0.2,1-0.3"/>
				<path id="XMLID_7495_" class="st6" d="M574.3,446.9c0-0.1,0-0.1,0.1-0.1c0,0,0-0.1,0-0.1c0.5-1,1.4-1.5,2.3-2.4"/>
				<path id="XMLID_7494_" class="st6" d="M572.9,447.2c0-0.3-0.1-0.8-0.3-1c0,0,0,0,0,0l0,0c-0.3-0.2-0.6-0.4-0.9-0.5"/>
				<path id="XMLID_7493_" class="st6" d="M572.8,438.5L572.8,438.5C572.8,438.5,572.8,438.5,572.8,438.5
					C572.9,438.5,572.9,438.5,572.8,438.5C572.9,438.5,572.9,438.5,572.8,438.5c0.1,0,0.1,0,0.1,0l0,0c0,0,0,0,0,0h0v0
					c0,0,0,0,0.1,0c0.1,0,0.3,0,0.4-0.1l0,0c0.1,0,0.2,0,0.3-0.1c0.1,0,0.1-0.1,0.2-0.1l0,0c0.1,0,0.1,0,0.1,0l0,0h0.1l0,0
					c0.1,0,0.2,0,0.3-0.1"/>
				<path id="XMLID_423_" class="st6" d="M578.5,438.4c-0.1-0.4-0.3-0.8-0.4-1.2c-0.2-0.5-0.3-1-0.5-1.5"/>
				<path id="XMLID_422_" class="st6" d="M575.5,440.6c-0.1,0.3,0.5,0.8,0.6,0.9c0.3,0.2,0.8,0.4,1.2,0.1c0.1,0,0.2-0.1,0.3-0.1
					c0.1,0,0.6-0.5,0.5-0.6c0.4-0.5,0.7-1.6,0.3-2.5"/>
				<path id="XMLID_7492_" class="st6" d="M574.6,438.1L574.6,438.1c0.1,0.3,0.2,0.6,0.3,1c0.1,0.3,0.2,0.6,0.3,1
					c0,0.2,0.1,0.4,0.2,0.6"/>
				<path id="XMLID_7491_" class="st6" d="M573,447.9L573,447.9c0,0.2,0,0.4,0,0.5l0,0c0,0.3,0,0.6,0,1l0,0c0,0.1,0,0.2,0,0.3l0,0v0
					l0,0c0,0.1,0,0.2,0,0.2l0,0l0,0c0,0,0,0.1,0,0.1h0v0l0,0c0,0,0,0,0,0.1l0,0v0l0,0c0,0,0,0.1,0,0.1"/>
				<path id="XMLID_7490_" class="st6" d="M572.9,450.3L572.9,450.3C572.9,450.2,572.9,450.2,572.9,450.3L572.9,450.3L572.9,450.3
					L572.9,450.3v-0.1l0,0v0l0,0v0l0,0c0,0,0,0,0-0.1h0v0l0,0c0-0.2,0-0.3,0-0.5l0,0v-0.1l0,0c0-0.3,0-0.6,0-1l0,0
					c0-0.2,0-0.4,0-0.6"/>
				<path id="XMLID_7489_" class="st6" d="M574.1,447.7c-0.1,0.9,0,1.9,0.3,2.5c0.1,0.1,0.1,0.1,0.1,0.2c0,0,0.1,0,0.1,0.1
					c0,0,0,0,0,0c0,0,0.1,0.1,0.1,0.1c0,0,0,0,0,0l0,0c0.1,0,0,0,0.1,0c0.1,0,0.2,0.1,0.3,0.1c0,0,0,0,0.1,0c0,0,0,0,0,0
					c0,0,0,0,0,0l0,0c0,0,0,0,0.1,0c0,0,0,0,0,0l0,0c0,0,0,0,0,0l0,0c0,0,0,0,0,0l0,0c0.1,0,0.3,0,0.4,0c0.1,0,0.1,0,0.1,0l0,0
					c0,0,0.1,0,0.1,0c0,0,0,0,0.1,0c0.1,0,0.1,0,0.1-0.1c0,0,0.1,0,0.1-0.1c0,0,0,0,0,0c0.8-0.6,1.1-1.7,0.9-3c0,0,0,0,0-0.1l0,0
					c0,0,0,0,0,0c0,0,0,0,0,0"/>
				<path id="XMLID_7488_" class="st6" d="M572.9,437.3L572.9,437.3C572.9,437.3,573,437.3,572.9,437.3l0.1,0c0,0,0,0,0.1,0
					c0,0,0,0,0,0c0,0,0,0,0.1,0l0,0c0,0,0.1,0,0.1,0c0.1,0,0.2-0.1,0.4-0.1l0,0h0.1l0,0c0.1,0,0.2,0,0.3-0.1l0,0l0,0l0,0
					c0,0,0,0,0,0s0,0,0,0l0,0l0,0l0,0c0,0,0,0,0,0c0,0,0,0,0,0l0,0"/>
				<path id="XMLID_421_" class="st6" d="M573.8,434.2C573.9,434.1,573.9,434.1,573.8,434.2c0.1-0.1,0.1-0.2,0.1-0.2
					c0-0.1,0.1-0.2,0.1-0.2c0,0,0,0,0-0.1c0,0,0,0,0-0.1c0,0,0,0,0.1-0.1c0,0,0-0.1,0.1-0.1c0,0,0,0,0,0c0,0,0,0,0.1-0.1
					c0-0.1,0.1-0.1,0.1-0.1c0,0,0,0,0,0c0,0,0,0,0,0c0-0.1,0.1-0.1,0.1-0.2c0.1-0.1,0.1-0.1,0.2-0.2c0.2-0.1,0.3-0.3,0.5-0.5
					c0.2-0.1,0.3-0.2,0.5-0.4l0,0c0,0,0,0,0,0c0,0,0,0,0,0c0,0,0,0,0.1,0l0,0c0,0,0,0,0,0c0,0,0,0,0.1,0l0,0c0,0,0,0,0,0
					c0,0,0,0,0,0c0,0,0,0,0,0l0,0l0,0c0,0,0,0,0.1-0.1l0,0c0,0,0.1,0,0.1,0l0,0c0,0,0,0,0,0c0.1,0,0,0,0.1,0c0,0,0,0,0,0
					c0,0,0,0,0,0l0,0c0,0,0,0,0.1,0"/>
				<path id="XMLID_7487_" class="st6" d="M574.3,437c-0.2-0.9-0.5-1.9-0.5-2.8"/>
				<path id="XMLID_7486_" class="st6" d="M574.8,450.6C574.8,450.5,574.8,450.5,574.8,450.6L574.8,450.6L574.8,450.6L574.8,450.6
					C574.8,450.5,574.8,450.5,574.8,450.6L574.8,450.6L574.8,450.6c-0.1-0.1-0.1-0.1-0.2-0.1l0,0c0,0,0,0,0,0c0,0,0,0,0,0
					c0,0,0-0.1-0.1-0.1c0,0,0,0,0,0c0,0,0,0,0,0c0,0,0,0-0.1-0.1c0-0.1-0.1-0.1-0.1-0.1c0-0.1-0.1-0.2-0.1-0.3
					c-0.2-0.7-0.1-1.4-0.1-2.2"/>
				<path id="XMLID_7485_" class="st6" d="M576.6,444.3c-0.9,0.6-1.7,1.4-2.2,2.2c0,0,0,0,0,0c0,0,0,0.1-0.1,0.1
					c0,0.1-0.1,0.2-0.1,0.3"/>
				<path id="XMLID_7484_" class="st6" d="M574.6,438.1L574.6,438.1c0.1,0.3,0.2,0.6,0.3,0.9c0.1,0.3,0.2,0.7,0.3,1
					c0.1,0.1,0.2,0.4,0.2,0.5l0,0c0,0,0,0,0,0.1l0,0c0,0,0,0,0,0l0,0v0l0,0l0,0c0,0,0,0,0,0v0l0,0c0,0,0,0,0,0l0,0l0,0v0l0,0l0,0
					l0,0l0,0l0,0l0,0v0l0,0l0,0c0,0,0,0,0,0l0,0l0,0v0.1c0,0,0.1,0,0.1,0.1v0h0v0l0,0c0,0,0,0.1,0.1,0.1v0.1l0,0c0,0,0,0,0.1,0v0h0
					v0h0v0l0,0h0v0h0v0h0v0l0,0c0,0,0,0,0.1,0v0h0v0c0,0,0,0,0.1,0v0l0,0h0v0c0,0,0,0,0.1,0"/>
				<path id="XMLID_7483_" class="st6" d="M576.6,431.7C576.6,431.7,576.6,431.7,576.6,431.7C576.6,431.7,576.6,431.7,576.6,431.7
					L576.6,431.7c0.1,0.1,0.1,0.1,0.1,0.2l0,0c0,0,0,0,0,0.1c0,0,0,0.1,0,0.1c0.1,0.2,0,0.5,0.1,0.7c0,0.3,0.1,0.6,0.2,0.9
					c0.1,0.3,0.1,0.6,0.2,0.9"/>
				<path id="XMLID_7482_" class="st6" d="M577.5,433.5c0,0,0-0.1-0.1-0.1c0-0.1,0-0.1-0.1-0.1c0,0,0-0.1-0.1-0.1
					c-0.2-0.5-0.3-1.1-0.5-1.6c-0.1-0.6-0.1-1.3-0.2-1.9c0-0.1,0-0.1,0-0.2"/>
				<path id="XMLID_7481_" class="st6" d="M577.5,433.5c0-0.1-0.1-0.1-0.1-0.2c-0.2-0.5-0.5-1.1-0.5-1.6c0-0.1-0.1-0.2-0.1-0.4
					c0-0.6-0.1-1.3-0.1-1.8"/>
				<path id="XMLID_7480_" class="st6" d="M577.2,444.7C577.2,444.7,577.2,444.7,577.2,444.7L577.2,444.7
					C577.2,444.7,577.2,444.7,577.2,444.7L577.2,444.7L577.2,444.7c0,0.1,0,0.1,0,0.1c0,0,0,0,0,0c-0.2,0.6-0.2,1.1-0.2,1.7
					c0,0.3,0.1,0.8,0.2,1"/>
				<path id="XMLID_7479_" class="st6" d="M577.2,444.9L577.2,444.9c0,0.1,0,0.1,0,0.2l0,0c0,0,0,0.1,0,0.1l0,0c0,0,0,0.1,0,0.1l0,0
					c0,0.1,0,0.2,0,0.2l0,0l0,0c0,0.1,0,0.1,0,0.2l0,0l0,0c0,0,0,0,0,0.1l0,0c0,0,0,0,0,0.1l0,0l0,0l0,0c0,0,0,0,0,0.1l0,0
					c0,0,0,0,0,0.1l0,0l0,0c0,0,0,0,0,0.1l0,0v0l0,0l0,0l0,0v0l0,0l0,0v0l0,0l0,0v0l0,0l0,0v0l0,0l0,0v0l0,0l0,0v0l0,0l0,0l0,0l0,0
					v0l0,0v0l0,0l0,0l0,0l0,0l0,0l0,0l0,0v0l0,0l0,0h0v0l0,0l0,0v0h0v0l0,0l0,0l0,0c0,0,0,0,0,0v0l0,0l0,0l0,0c0,0,0,0,0,0l0,0v0
					l0,0l0,0h0"/>
				<path id="XMLID_7478_" class="st6" d="M577.7,446.7L577.7,446.7L577.7,446.7L577.7,446.7L577.7,446.7L577.7,446.7L577.7,446.7
					C577.7,446.8,577.7,446.7,577.7,446.7L577.7,446.7L577.7,446.7L577.7,446.7L577.7,446.7C577.7,446.7,577.7,446.7,577.7,446.7
					L577.7,446.7L577.7,446.7C577.7,446.7,577.7,446.7,577.7,446.7L577.7,446.7c-0.1-0.1-0.1-0.1-0.1-0.1c0,0,0,0,0,0l0,0
					c0,0,0,0,0,0l0,0c0,0,0-0.1-0.1-0.1c0,0,0,0,0-0.1c0,0,0-0.1-0.1-0.1c0,0,0,0,0-0.1c0-0.1-0.1-0.1-0.1-0.2
					c-0.1-0.5-0.2-1.1-0.1-1.7"/>
				<path id="XMLID_7477_" class="st6" d="M577.2,434.4L577.2,434.4L577.2,434.4L577.2,434.4L577.2,434.4L577.2,434.4
					C577.2,434.4,577.2,434.4,577.2,434.4L577.2,434.4L577.2,434.4L577.2,434.4L577.2,434.4L577.2,434.4L577.2,434.4L577.2,434.4
					L577.2,434.4C577.2,434.4,577.3,434.4,577.2,434.4c0.1-0.2,0.1-0.2,0.1-0.3l0,0c0,0,0,0,0-0.1l0,0c0,0,0-0.1,0-0.1l0,0
					c0-0.1,0-0.1,0.1-0.2l0,0l0,0c0,0,0,0,0-0.1l0,0c0,0,0,0,0-0.1c0,0,0,0,0,0v0l0,0c0,0,0,0,0-0.1l0,0c0,0,0,0,0-0.1"/>
				<path id="XMLID_7476_" class="st6" d="M577.5,435.6L577.5,435.6c0-0.1,0.1-0.2,0.1-0.2c0,0,0,0,0-0.1l0,0v-0.1l0,0
					c0-0.1,0-0.2,0.1-0.2l0,0c0-0.1,0-0.2,0.1-0.4l0,0c0,0,0-0.1,0-0.1l0,0v-0.1l0,0v0l0,0v0l0,0l0,0v0l0,0l0,0l0,0v0l0,0l0,0v0l0,0
					v0"/>
				<path id="XMLID_7475_" class="st6" d="M577.9,434.3L577.9,434.3c0,0.1,0.3,0.6,0.4,0.7c0,0.1,0.4,0.6,0.4,0.7
					c0,0,0.1,0.1,0.1,0.1c0.1,0.1,0.1,0.2,0.2,0.3c0,0,0.1,0,0.1,0.1l0,0c0,0,0,0,0,0l0,0l0,0c0,0,0,0,0,0c0,0,0,0,0,0l0,0
					c0,0,0,0,0,0l0,0c0,0,0,0,0,0c0,0,0.1,0.1,0.1,0.1c0.1,0,0,0,0.1,0l0,0l0,0c0,0,0,0,0,0l0,0c0,0,0,0,0,0l0,0c0,0,0,0,0,0l0,0
					l0,0c0,0,0,0,0,0l0,0l0,0l0,0h0"/>
				<path id="XMLID_7474_" class="st6" d="M579.4,436.4L579.4,436.4C579.4,436.4,579.4,436.4,579.4,436.4L579.4,436.4L579.4,436.4
					C579.4,436.4,579.3,436.4,579.4,436.4C579.3,436.4,579.3,436.4,579.4,436.4L579.4,436.4c-0.1,0-0.1,0-0.1-0.1l0,0l0,0l0,0
					c0,0,0,0,0,0l0,0l0,0l0,0c0,0,0,0,0,0l0,0l0,0c-0.1-0.1-0.1-0.1-0.2-0.2l0,0c0,0,0,0,0,0l0,0c0,0,0,0,0,0l0,0l0,0c0,0,0,0,0,0
					l0,0c0,0,0,0,0,0c0-0.1-0.1-0.1-0.1-0.2c-0.3-0.4-0.7-0.9-0.9-1.5"/>
				<path id="XMLID_7473_" class="st6" d="M564.3,441.1l-0.1-0.3"/>
				<path id="XMLID_7472_" class="st6" d="M572.6,441.5l0-0.2L572.6,441.5L572.6,441.5"/>
				<path id="XMLID_7471_" class="st6" d="M565,434.3L565,434.3L565,434.3L565,434.3"/>
				<path id="XMLID_7470_" class="st6" d="M565.3,457.4l0-0.5"/>
				<path id="XMLID_7469_" class="st6" d="M568.3,445.4L568.3,445.4"/>
				<path id="XMLID_7468_" class="st6" d="M568.6,446.6c-0.4-0.2-0.8-0.4-1.1-0.7h0.1"/>
				<path id="XMLID_7467_" class="st6" d="M565.1,440L565.1,440"/>
				<path id="XMLID_7466_" class="st6" d="M565.4,433.6L565.4,433.6"/>
				<path id="XMLID_7465_" class="st6" d="M566.1,445.8l0-0.1"/>
				<path id="XMLID_7464_" class="st6" d="M566.8,449.4L566.8,449.4"/>
				<path id="XMLID_7463_" class="st6" d="M566.2,445.6l0.1-0.4"/>
				<path id="XMLID_7462_" class="st6" d="M566.4,444.5L566.4,444.5l-0.1-0.3"/>
				<path id="XMLID_7461_" class="st6" d="M566,432.5c-0.1,0.2-0.2,0.4-0.4,0.7"/>
				<path id="XMLID_7460_" class="st6" d="M566.2,432.6l-0.1,0.3"/>
				<path id="XMLID_7459_" class="st6" d="M566.3,431.8L566.3,431.8c-0.1,0.3-0.2,0.5-0.2,0.8c0.1-0.4,0.3-0.9,0.4-1.3"/>
				<path id="XMLID_7458_" class="st6" d="M566.5,454.8l-0.1,0.1L566.5,454.8"/>
				<path id="XMLID_7457_" class="st6" d="M566.3,445L566.3,445L566.3,445"/>
				<path id="XMLID_7456_" class="st6" d="M566.3,445.1l0,0.1"/>
				<path id="XMLID_7455_" class="st6" d="M566.2,444.2l0.2,0.2l0-0.1"/>
				<path id="XMLID_7454_" class="st6" d="M566.3,444.3l0.1,0.2"/>
				<path id="XMLID_7453_" class="st6" d="M566.4,444.5L566.4,444.5"/>
				<path id="XMLID_7452_" class="st6" d="M566.3,444.9l0-0.2"/>
				<path id="XMLID_7451_" class="st6" d="M566.4,431.8l0.1-0.3"/>
				<path id="XMLID_7450_" class="st6" d="M572.9,437.3c0.4,0,1.1-0.1,1.4-0.4"/>
				<path id="XMLID_7449_" class="st6" d="M576.3,431.6l0.1,0.1"/>
				<path id="XMLID_7448_" class="st6" d="M566.8,430.2L566.8,430.2L566.8,430.2L566.8,430.2"/>
				<path id="XMLID_7447_" class="st6" d="M566.8,430.2L566.8,430.2"/>
				<path id="XMLID_7446_" class="st6" d="M567.4,461.9v-0.5"/>
				<path id="XMLID_7445_" class="st6" d="M567.2,453.9l0-0.4"/>
				<path id="XMLID_7444_" class="st6" d="M567.1,454.1l-0.1,0.2v0"/>
				<path id="XMLID_7443_" class="st6" d="M567.1,453.9l-0.1,0.3"/>
				<path id="XMLID_7442_" class="st6" d="M566.9,454.4L566.9,454.4l0.1-0.2"/>
				<path id="XMLID_7441_" class="st6" d="M567.2,452.5l0.1,0.2"/>
				<path id="XMLID_7440_" class="st6" d="M567.3,452.9L567.3,452.9"/>
				<path id="XMLID_7439_" class="st6" d="M567,452.1l0.2,0.3"/>
				<path id="XMLID_7438_" class="st6" d="M567.3,452.5l-0.1-0.3"/>
				<path id="XMLID_7437_" class="st6" d="M567.7,446.7L567.7,446.7"/>
				<path id="XMLID_7436_" class="st6" d="M567.7,446.7c0.3,0.2,0.6,0.4,0.9,0.6"/>
				<path id="XMLID_7435_" class="st6" d="M572.9,450.3L572.9,450.3"/>
				<path id="XMLID_7434_" class="st6" d="M567.5,435.9L567.5,435.9"/>
				<path id="XMLID_7433_" class="st6" d="M566.9,429.8l0,0.2"/>
				<path id="XMLID_7432_" class="st6" d="M567.7,462.3L567.7,462.3"/>
				<path id="XMLID_7431_" class="st6" d="M567.5,435.9c0.3,0.3,0.7,0.5,1.1,0.7"/>
				<path id="XMLID_7430_" class="st6" d="M568.6,446.6c0-0.4-0.3-0.7-0.3-1l0,0c0,0,0,0,0,0c0-0.1,0.1-0.2,0.2-0.2
					c0.1-0.1,0.3-0.1,0.5-0.1"/>
				<path id="XMLID_7429_" class="st6" d="M568.7,434L568.7,434"/>
				<path id="XMLID_7428_" class="st6" d="M570.1,462.8v-0.1l2.5,0.4v0.1"/>
				<path id="XMLID_7427_" class="st6" d="M570.1,462.6H570"/>
				<path id="XMLID_7426_" class="st6" d="M570.9,469.8v3.5"/>
				<path id="XMLID_7425_" class="st6" d="M570.8,463.1L570.8,463.1l-0.1,5.2"/>
				<path id="XMLID_7424_" class="st6" d="M570.8,463.1l-0.1,0"/>
				<path id="XMLID_7423_" class="st6" d="M571.3,494.4v-1.5l0-0.2l-0.1-0.1l0,0"/>
				<path id="XMLID_7422_" class="st6" d="M572,492.6l0.1-0.1L572,492.6"/>
				<path id="XMLID_7421_" class="st6" d="M571.1,492.4L571.1,492.4"/>
				<path id="XMLID_7420_" class="st6" d="M572.9,447.2L572.9,447.2"/>
				<path id="XMLID_7419_" class="st6" d="M574.3,446.9L574.3,446.9"/>
				<path id="XMLID_7418_" class="st6" d="M572.2,492.5L572.2,492.5L572.2,492.5"/>
				<path id="XMLID_7417_" class="st6" d="M572,492.6L572,492.6L572,492.6"/>
				<path id="XMLID_7416_" class="st6" d="M572.2,492.5l0.3-0.3"/>
				<path id="XMLID_7415_" class="st6" d="M572.6,492.1L572.6,492.1"/>
				<path id="XMLID_7414_" class="st6" d="M572.6,469.8l0,3.5"/>
				<path id="XMLID_7413_" class="st6" d="M572.3,468.5v-5.3"/>
				<path id="XMLID_7412_" class="st6" d="M572.6,463.1c0.1,0,0.2,0,0.3-0.1l-0.3-0.1"/>
				<path id="XMLID_7411_" class="st6" d="M572.5,463.2l0.3-0.1l0,0"/>
				<path id="XMLID_7410_" class="st6" d="M572.6,441.6L572.6,441.6"/>
				<path id="XMLID_7409_" class="st6" d="M572.8,438.5c-0.1,0.9-0.2,1.9-0.3,2.8L572.8,438.5"/>
				<path id="XMLID_7408_" class="st6" d="M573.3,463.1l-0.4-0.1"/>
				<path id="XMLID_7407_" class="st6" d="M573,447.9c0.4-0.1,0.7-0.1,1.1-0.3"/>
				<path id="XMLID_7406_" class="st6" d="M572.9,447.2c0.5-0.1,0.9-0.2,1.4-0.3"/>
				<path id="XMLID_7405_" class="st6" d="M576.4,431.6l0.1,0L576.4,431.6"/>
				<path id="XMLID_7404_" class="st6" d="M574.1,447.7L574.1,447.7"/>
				<path id="XMLID_7403_" class="st6" d="M574.8,450.5L574.8,450.5"/>
				<path id="XMLID_7402_" class="st6" d="M576.3,453.2v0.3v-0.1"/>
				<path id="XMLID_7401_" class="st6" d="M576.3,453.7L576.3,453.7v-0.1"/>
				<path id="XMLID_7400_" class="st6" d="M576.2,453.2l0.1-0.4"/>
				<path id="XMLID_7399_" class="st6" d="M576.2,441.5L576.2,441.5"/>
				<path id="XMLID_7398_" class="st6" d="M576.9,454.6c-0.2-0.1-0.3-0.3-0.4-0.5"/>
				<path id="XMLID_7397_" class="st6" d="M576.7,454.4L576.7,454.4"/>
				<path id="XMLID_7396_" class="st6" d="M576.5,454.1L576.5,454.1"/>
				<path id="XMLID_7395_" class="st6" d="M576.4,453.9L576.4,453.9"/>
				<path id="XMLID_7394_" class="st6" d="M576.6,454.2l0.1,0.1L576.6,454.2"/>
				<path id="XMLID_7393_" class="st6" d="M576.7,454.4L576.7,454.4"/>
				<path id="XMLID_7392_" class="st6" d="M576.4,452.2l0.1-0.1"/>
				<path id="XMLID_7391_" class="st6" d="M576.4,452.3L576.4,452.3"/>
				<path id="XMLID_7390_" class="st6" d="M576.5,431.6L576.5,431.6"/>
				<path id="XMLID_7389_" class="st6" d="M577.2,434.5c0.1-0.3,0.2-0.7,0.3-1h-0.1"/>
				<path id="XMLID_7388_" class="st6" d="M576.6,429.5l-0.1-0.6"/>
				<path id="XMLID_7387_" class="st6" d="M577.5,455.8L577.5,455.8"/>
				<path id="XMLID_7386_" class="st6" d="M577.2,445.2l0-0.3"/>
				<path id="XMLID_7385_" class="st6" d="M577.6,446.7l0.1,0.1l0.1,0l-0.1,0"/>
				<path id="XMLID_7384_" class="st6" d="M577.3,445.1v-0.2"/>
				<path id="XMLID_7383_" class="st6" d="M577.3,445.1v0.1"/>
				<path id="XMLID_7382_" class="st6" d="M577.2,444.9v-0.1"/>
				<path id="XMLID_7381_" class="st6" d="M577.2,444.4L577.2,444.4l0.1-0.2l-0.2,0.3"/>
				<path id="XMLID_7380_" class="st6" d="M577.2,444.4l-0.1,0.2l0.1-0.3h0"/>
				<path id="XMLID_7379_" class="st6" d="M577.2,444.9L577.2,444.9v-0.2"/>
				<path id="XMLID_7378_" class="st6" d="M577.3,444.2L577.3,444.2"/>
				<path id="XMLID_7377_" class="st6" d="M577.4,432.3l-0.2-0.5"/>
				<path id="XMLID_7376_" class="st6" d="M577.8,446.7L577.8,446.7"/>
				<path id="XMLID_7375_" class="st6" d="M577.8,446.4L577.8,446.4"/>
				<path id="XMLID_7374_" class="st6" d="M579.4,436.4L579.4,436.4L579.4,436.4"/>
				<path id="XMLID_7373_" class="st6" d="M577.6,432.7L577.6,432.7"/>
				<path id="XMLID_7372_" class="st6" d="M578.3,458.5l0-0.2"/>
				<path id="XMLID_7371_" class="st6" d="M578.1,443.3l0.3-0.5l0,0"/>
				<path id="XMLID_7370_" class="st6" d="M578.4,442.8L578.4,442.8"/>
				<path id="XMLID_7369_" class="st6" d="M578.5,442.8l-0.1,0.1"/>
				<path id="XMLID_7368_" class="st6" d="M578.4,442.9L578.4,442.9"/>
				<path id="XMLID_7367_" class="st6" d="M579.4,436.1L579.4,436.1"/>
				<path id="XMLID_7366_" class="st6" d="M572.5,463.2c-0.5,0.2-1.2,0.1-1.7-0.1"/>
				<path id="XMLID_7365_" class="st6" d="M576.5,444.4L576.5,444.4c0.6-0.5,1.2-1,1.8-1.5h0l0,0"/>
				<path id="XMLID_7364_" class="st6" d="M576.5,444.4L576.5,444.4c0.5-0.5,1.1-1,1.7-1.4"/>
				<path id="XMLID_7363_" class="st6" d="M565,442.6L565,442.6C564.9,442.5,564.9,442.5,565,442.6l-0.1-0.1c0,0-0.1-0.1-0.1-0.1
					v-0.1c0,0-0.1-0.1-0.1-0.1c0,0,0,0-0.1-0.1V442c0,0,0,0-0.1-0.1v0c0,0-0.1-0.1-0.1-0.1c0,0,0,0-0.1-0.1c0,0,0-0.1,0-0.1l0,0v0
					l0,0v0l0,0v0l0,0"/>
				<path id="XMLID_7362_" class="st6" d="M565.2,443L565.2,443c-0.4-0.6-0.7-1.2-1-1.9l0,0V441l0,0c0-0.1,0-0.1,0-0.2"/>
				<path id="XMLID_7361_" class="st6" d="M569,445.2L569,445.2c0.9-0.1,1.8,0.1,2.6,0.4"/>
				<path id="XMLID_7360_" class="st6" d="M569,445.2L569,445.2c0.9-0.1,1.9,0.1,2.8,0.5"/>
				<path id="XMLID_7359_" class="st6" d="M564.2,440.8c-0.5-2.1-0.5-4.7,0.8-6.5"/>
				<path id="XMLID_7358_" class="st6" d="M565,434.2L565,434.2L565,434.2L565,434.2L565,434.2C565,434.2,565,434.2,565,434.2
					L565,434.2L565,434.2C565,434.2,565,434.2,565,434.2C565,434.2,565,434.2,565,434.2L565,434.2c0.9-1.3,1.5-2.5,1.8-4l0,0
					c0,0,0,0,0,0l0,0c0,0,0,0,0,0l0,0c0,0,0,0,0,0l0,0l0,0l0,0"/>
				<path id="XMLID_7357_" class="st6" d="M564.4,441.4c0.2,0.4,0.3,0.8,0.6,1.2c0.3,0.5,0.8,0.9,1.1,1.4c0,0,0.1,0.1,0.1,0.1
					c0,0,0,0,0,0c0,0,0.1,0.1,0.1,0.1"/>
				<path id="XMLID_7356_" class="st6" d="M566.2,444.2L566.2,444.2c0,0.1,0,0.1,0,0.2c0,0,0,0.1,0,0.2c0,0.2,0,0.3,0,0.5
					c0,0,0,0.1,0,0.1c0,0,0,0.1,0,0.1c-0.5,1-1,2.7-0.6,3.8c0,0.2,0.1,0.3,0.1,0.5c0.1,0.2,0.1,0.4,0.2,0.6c0,0.1,0.1,0.4,0.2,0.5
					c0,0.2,0.2,0.4,0.3,0.6c0.2,0.3,0.5,0.7,0.6,1l0,0c0,0,0,0,0,0c0,0,0,0,0,0l0,0c0,0,0,0,0,0c0.2,0.6,0.2,1.3,0,1.8l0,0
					c0,0.1,0,0.1-0.1,0.1l0,0c0,0,0,0,0,0l0,0l0,0c0,0,0,0,0,0.1c-0.1,0.1-0.1,0.1-0.2,0.2c0,0,0,0-0.1,0.1
					c-0.1,0.1-0.1,0.1-0.1,0.2c0,0-0.1,0.1-0.1,0.1"/>
				<path id="XMLID_420_" class="st6" d="M567.2,461.8L567.2,461.8c-0.6-1.4-1.3-2.7-1.9-4.1c0,0,0,0,0-0.1l0,0c0,0,0,0,0-0.1
					s0,0,0-0.1s0,0,0-0.1c0,0,0-0.1,0-0.1l0,0c0-0.1,0-0.2,0-0.3c0-0.1,0-0.1,0-0.2c0,0,0-0.1,0-0.1v0l0,0v0l0,0v0l0,0v0l0,0
					c0,0,0-0.1,0-0.1l0,0c0,0,0,0,0,0l0,0l0,0v0l0,0l0,0l0,0v0l0,0l0,0h0v0l0,0l0,0v0l0,0l0,0l0,0c0,0,0,0,0,0l0,0l0,0v0l0,0l0,0h0
					v0l0,0l0,0l0,0c0.2-0.3,0.4-0.6,0.6-0.9c0-0.1,0.1-0.1,0.1-0.2c0,0,0-0.1,0.1-0.1c0-0.1,0-0.1,0.1-0.1c0,0,0-0.1,0.1-0.1
					c0,0,0,0,0-0.1h0c0,0,0,0,0-0.1c0,0,0.1-0.1,0.1-0.1"/>
				<path id="XMLID_419_" class="st6" d="M567.8,462.3c-0.2,0-0.3-0.2-0.5-0.3c0,0,0,0-0.1-0.1l0,0c0,0,0,0,0,0c0,0-0.1-0.1-0.1-0.1
					"/>
				<path id="XMLID_7354_" class="st6" d="M570,462.6c-0.7-0.1-1.4-0.2-2.1-0.3"/>
				<path id="XMLID_7353_" class="st6" d="M572.6,425c-0.8-0.3-2,0-2.7,0.3c-0.7,0.3-1.3,0.8-1.8,1.3c0,0,0,0.1,0,0.1v0h0
					c0,0-0.1,0.1-0.1,0.1c-0.1,0-0.1,0.1-0.1,0.2c-0.1,0.1-0.2,0.3-0.3,0.5h0c0,0.1-0.1,0.2-0.1,0.3c-0.1,0.1-0.1,0.2-0.1,0.3
					c-0.1,0.2-0.1,0.5-0.2,0.7c-0.1,0.2,0,0.3-0.1,0.6c0,0.2-0.1,0.3-0.1,0.5"/>
				<path id="XMLID_418_" class="st6" d="M570.9,492l0.3,0.5"/>
				<path id="XMLID_7352_" class="st6" d="M570.9,485.8L570.9,485.8v6.2"/>
				<path id="XMLID_7351_" class="st6" d="M578.3,458.5c0,0.2,0,0.5,0,0.7c0,0,0,0,0,0l0,0c0,0.1,0,0.1,0,0.1c0,0.1-0.2,0.5-0.3,0.5
					"/>
				<path id="XMLID_417_" class="st6" d="M574.1,463l-0.4,0.2"/>
				<path id="XMLID_7350_" class="st6" d="M577.9,459.8L577.9,459.8c-1.3,1.1-2.5,2.1-3.8,3.2"/>
				<path id="XMLID_7348_" class="st6" d="M572.6,425L572.6,425L572.6,425L572.6,425C572.6,425,572.6,425,572.6,425
					C572.7,425,572.7,425,572.6,425L572.6,425L572.6,425C572.7,425,572.7,425,572.6,425c0.6,0,1.4,0.4,1.8,0.7
					c1.2,0.8,1.8,1.9,2.2,3.3c0.3,1.2,0.4,2.5,1,3.7c0.6,1.2,1.6,2.3,1.9,3.6l0,0c0,0,0,0,0,0c0,0,0,0,0,0l0,0c0,0,0,0,0,0"/>
				<path id="XMLID_7347_" class="st6" d="M579.5,436.4L579.5,436.4c0,0.1,0.1,0.2,0.1,0.3l0,0c0,0.1,0,0.2,0.1,0.3l0,0
					c0,0.1,0,0.2,0,0.3l0,0c0,0.1,0,0.3,0.1,0.4l0,0c0,0.2,0,0.4,0,0.7l0,0c0,0.1,0,0.3,0,0.4l0,0c0,0.1,0,0.2,0,0.3l0,0
					c-0.1,0.5-0.1,0.9-0.3,1.3l0,0c-0.1,0.4-0.3,0.9-0.5,1.3l0,0c-0.2,0.3-0.4,0.7-0.6,1"/>
				<path id="XMLID_7346_" class="st6" d="M578.5,442.9L578.5,442.9C578.4,442.9,578.4,442.9,578.5,442.9L578.5,442.9
					c-0.1,0.1-0.1,0.1-0.1,0.1v0l0,0v0h0l0,0v0c0,0-0.1,0.1-0.1,0.1l0,0c-0.1,0.1-0.1,0.2-0.2,0.3v0c-0.1,0-0.1,0.1-0.1,0.2l-0.1,0
					l0,0c0,0.1-0.1,0.1-0.2,0.2v0h0c0,0-0.1,0.1-0.1,0.1v0c0,0-0.1,0-0.1,0.1"/>
				<path id="XMLID_7345_" class="st6" d="M577.3,444.2c0,0.1,0,0,0,0.1c0,0,0,0.1,0,0.1c0,0,0,0.1,0,0.1c0,0.1,0,0,0,0.1
					c0,0,0,0.1,0,0.1c0,0.1,0,0.1,0,0.2c0,0,0,0,0,0.1c0.1,0.3,0.3,0.6,0.4,0.9c0,0,0.1,0.2,0.1,0.2c0,0.1,0.1,0.2,0.1,0.3
					c0,0,0,0,0,0c0,0,0,0,0,0.1c0,0,0,0,0,0.1l0,0l0,0c0,0,0,0,0,0l0,0l0,0c0,0,0,0,0,0l0,0l0,0c0,0,0,0,0,0"/>
				<path id="XMLID_7344_" class="st6" d="M577.8,446.7c0.4,2-0.1,3.9-1.3,5.4c0,0,0,0,0,0c0,0,0,0.1,0,0.1c0,0.1,0,0.1-0.1,0.1
					c-0.1,0.5-0.1,1.2,0.1,1.6c0,0,0,0.1,0.1,0.1"/>
				<path id="XMLID_7343_" class="st6" d="M576.5,454.1C576.5,454.2,576.5,454.2,576.5,454.1C576.6,454.2,576.6,454.2,576.5,454.1
					C576.6,454.2,576.6,454.2,576.5,454.1L576.5,454.1c0.1,0.1,0.1,0.1,0.1,0.1c0,0,0,0,0,0c0,0,0,0.1,0.1,0.1c0,0,0,0,0,0
					c0.8,0.9,1.1,2.6,1.6,4c0,0,0,0,0,0c0,0,0,0,0,0.1c0,0,0,0,0,0.1"/>
				<path id="XMLID_7342_" class="st6" d="M565,434.3L565,434.3"/>
				<path id="XMLID_7341_" class="st6" d="M566.8,430.2c0,0,0.1-0.1,0.1-0.1L566.8,430.2"/>
				<path id="XMLID_416_" class="st6" d="M570.3,467.2c0.1,0.2,0.3,0.6,0.3,0.9l0,0c0,0,0,0,0.1,0.1c0,0,0,0.1,0.1,0.1
					c0,0.1,0.2,0.1,0.3,0.2c0,0,0.1,0,0.1,0c0,0,0.1,0,0.1,0c0,0.1,0.2,0.1,0.2,0.1c0,0,0.1,0,0.1,0c0,0,0.1,0,0.1,0c0,0,0,0,0.1,0
					c0,0,0,0,0.1,0c0.1,0,0.2,0,0.3,0c0,0,0.1,0,0.1,0c0.1,0,0.2,0,0.2-0.1c0,0,0,0,0,0c0,0,0,0,0.1,0c0,0,0.2-0.1,0.2-0.1
					c0,0,0,0,0,0c0,0,0,0,0,0c0,0,0,0,0.1,0l0,0c0,0,0,0,0.1-0.1c0,0,0,0,0,0c0,0,0.2-0.2,0.2-0.2c0,0,0.1-0.1,0.1-0.1
					c0.1-0.1,0.1-0.2,0.2-0.2"/>
				<path id="XMLID_7340_" class="st6" d="M570.9,469.8v-1.5"/>
				<path id="XMLID_7339_" class="st6" d="M570.3,467.2v-4.4l-0.2-0.1l-0.1-0.1"/>
				<path id="XMLID_7338_" class="st6" d="M565.3,457.5L565.3,457.5"/>
				<path id="XMLID_7337_" class="st6" d="M566.8,430.1V430"/>
				<path id="XMLID_7336_" class="st6" d="M566.9,429.8l0,0.3l0.1-0.5"/>
				<path id="XMLID_7335_" class="st6" d="M572.6,424.9L572.6,424.9"/>
				<path id="XMLID_415_" class="st6" d="M572.7,492v-6.1"/>
				<path id="XMLID_7334_" class="st6" d="M571.1,492.4v1.5l0.2,0.5l0.7,0.1l0.4-0.3v-1.5l0.1-0.2l0.1-0.2l0.1-0.1l0-0.1"/>
				<path id="XMLID_7333_" class="st6" d="M570.9,473.3v9.2"/>
				<path id="XMLID_7332_" class="st6" d="M572.7,482.4v-9.1"/>
				<path id="XMLID_7331_" class="st6" d="M573.7,463.2l-0.3,0l-0.2,0v4.6"/>
				<path id="XMLID_7330_" class="st6" d="M572.6,468.3v1.5"/>
				<path id="XMLID_7329_" class="st6" d="M579.5,436.3L579.5,436.3"/>
				<path id="XMLID_7328_" class="st6" d="M578.4,442.8L578.4,442.8L578.4,442.8"/>
				<path id="XMLID_7327_" class="st6" d="M577.8,446.7L577.8,446.7"/>
				<path id="XMLID_7318_" class="st6" d="M576.8,454.5L576.8,454.5L576.8,454.5"/>
				<path id="XMLID_7317_" class="st6" d="M576.8,454.5L576.8,454.5"/>
				<path id="XMLID_7316_" class="st6" d="M576.7,454.3L576.7,454.3"/>
				<path id="XMLID_7311_" class="st6" d="M564.4,441.5c-0.1-0.2-0.2-0.4-0.2-0.7"/>
			</g>
		</g>
	</g>
</g>
<g id="XMLID_429_">
	<g id="XMLID_432_">
		<path id="XMLID_445_" d="M813.4,3c14,0,25.5,11.4,25.5,25.5v538.3c0,14-11.4,25.5-25.5,25.5H28.5c-14,0-25.5-11.4-25.5-25.5V28.5
			C3,14.4,14.4,3,28.5,3H813.4 M813.4,0H28.5C12.8,0,0,12.8,0,28.5v538.3c0,15.7,12.8,28.5,28.5,28.5h784.9
			c15.7,0,28.5-12.8,28.5-28.5V28.5C841.9,12.8,829.1,0,813.4,0L813.4,0z"/>
	</g>
	<g id="XMLID_431_">
		<path id="XMLID_458_" d="M1.5,83.5V28.5c0-14.9,12.1-27,27-27h55.1v55.1c0,14.9-12.1,27-27,27H1.5z"/>
		<g id="XMLID_454_">
			<path id="XMLID_455_" d="M82,3v53.6C82,70.6,70.6,82,56.6,82H3V28.5C3,14.4,14.4,3,28.5,3H82 M85,0H28.5C12.8,0,0,12.8,0,28.5V85
				h56.6C72.2,85,85,72.2,85,56.6V0L85,0z"/>
		</g>
	</g>
	<g id="XMLID_433_">
		<path id="XMLID_434_" class="st4" d="M37,47c0,1.4,0.2,2.5,0.7,3.4c0.8,1.6,2.3,2.5,4.4,2.5c1.3,0,2.5-0.4,3.4-1.3
			s1.5-2.2,1.5-3.9c0-2.2-0.9-3.7-2.7-4.5c-1-0.4-2.6-0.6-4.9-0.6v-4.8c2.2,0,3.7-0.2,4.5-0.6c1.5-0.7,2.2-2,2.2-4
			c0-1.3-0.4-2.4-1.1-3.2s-1.8-1.2-3.2-1.2c-1.6,0-2.7,0.5-3.5,1.5s-1.1,2.3-1.1,4H31c0.1-1.7,0.4-3.3,0.9-4.8
			c0.5-1.3,1.4-2.6,2.6-3.7c0.9-0.8,1.9-1.4,3.1-1.8s2.7-0.6,4.4-0.6c3.2,0,5.9,0.8,7.9,2.5c2,1.7,3,3.9,3,6.8c0,2-0.6,3.7-1.8,5.1
			c-0.8,0.9-1.5,1.4-2.3,1.8c0.6,0,1.5,0.5,2.6,1.6c1.7,1.6,2.6,3.7,2.6,6.5c0,2.9-1,5.4-3,7.6s-4.9,3.3-8.8,3.3
			c-4.8,0-8.1-1.6-10-4.7c-1-1.7-1.5-3.9-1.6-6.6H37z"/>
	</g>
</g>
</svg>
