<?xml version="1.0" encoding="utf-8"?>
<!-- Generator: Adobe Illustrator 19.0.0, SVG Export Plug-In . SVG Version: 6.00 Build 0)  -->
<svg version="1.1" id="Layer_1" xmlns="http://www.w3.org/2000/svg" xmlns:xlink="http://www.w3.org/1999/xlink" x="0px" y="0px"
	 width="841.9px" height="595.3px" viewBox="0 0 841.9 595.3" style="enable-background:new 0 0 841.9 595.3;" xml:space="preserve"
	>
<style type="text/css">
	.st0{fill:none;stroke:#0B0620;stroke-width:0.5;stroke-linecap:round;stroke-linejoin:round;}
	.st1{fill:#FFFFFF;}
</style>
<g id="XMLID_1_">
	<g>
		<path id="XMLID_324_" class="st0" d="M603.2,391.9c-1.8-2.1-1.8-2.1-3.6-4.1c-2-1.5-2-1.6-4-3c-30.5-17.7-30.6-17.7-61.1-35.3
			C350.2,243.1,350.3,243.1,166,136.8c-2-0.9-2-0.9-4.1-1.6"/>
		<path id="XMLID_323_" class="st0" d="M284.6,304.8c-60.7-35-60.7-35-121.4-70.1c-2-1.4-2-1.4-4-3c-1.8-2-1.8-2-3.6-4.1"/>
		<path id="XMLID_322_" class="st0" d="M165.9,140c163.9,94.6,163.9,94.6,327.8,189.2c50.9,29.4,50.9,29.4,101.8,58.8
			c1.6,1.2,1.6,1.2,3.2,2.4c1.4,1.5,1.4,1.5,2.7,3.1"/>
		<path id="XMLID_321_" class="st0" d="M701.4,422.5c0.9-2.5,0.9-2.5,1.7-5c1.3-3.8,1.5-3.8,2.6-7.7c0.4-7.8,0.4-7.9,0.5-15.6
			c-1.6-8.6-1.6-8.6-3.5-17.2c-3.4-8.7-3.5-8.7-7.2-17.3c-3.2-5.5-3.3-5.5-6.7-11c-1.8-2.2-1.8-2.2-3.7-4.4"/>
		<path id="XMLID_320_" class="st0" d="M138.5,170.7l0.3-0.1"/>
		<path id="XMLID_319_" class="st0" d="M161.9,135.1l-3.7-0.1l2.8-1.4l-14.2,7l0.1-0.1"/>
		<path id="XMLID_318_" class="st0" d="M157.2,225.8l2.8,3.3l3.2,2.4l122.4,70.7"/>
		<path id="XMLID_317_" class="st0" d="M157.4,225.6l2.9,3.4l3.2,2.4L285.9,302"/>
		<path id="XMLID_316_" class="st0" d="M159.5,138.6l3.2,0.1l3.2,1.3"/>
		<path id="XMLID_315_" class="st0" d="M161.8,135.1l87.1-42.6l-0.3-0.1l-3.6,0.1l-7.1,3.1L161,133.7l41.2-20.3"/>
		<path id="XMLID_314_" class="st0" d="M248.8,92.5l4.2,1.6l427.9,247l2.3,1.7"/>
		<path id="XMLID_313_" class="st0" d="M346.7,347.4l14.4-7.8"/>
		<path id="XMLID_312_" class="st0" d="M350.1,342.7l2.6,1.5"/>
		<path id="XMLID_311_" class="st0" d="M350.4,339.5l5.3,3.1"/>
		<path id="XMLID_310_" class="st0" d="M356,342.4l-5.6-3.2"/>
		<path id="XMLID_309_" class="st0" d="M354,361.3l23.2-12.5"/>
		<path id="XMLID_308_" class="st0" d="M368.7,353.4l27.3,15.8"/>
		<path id="XMLID_307_" class="st0" d="M397.2,366.5l-25.5-14.7"/>
		<path id="XMLID_306_" class="st0" d="M397.3,366.3l-25.3-14.6"/>
		<path id="XMLID_305_" class="st0" d="M461.8,407.1l131,75.7l4,1.6l3.7,0.1"/>
		<path id="XMLID_304_" class="st0" d="M461.8,403.8l131.1,75.7l3.2,1.3l2.8,0.1"/>
		<path id="XMLID_303_" class="st0" d="M461.8,403.5l131.4,75.9l3.2,1.3l3.1,0.1"/>
		<path id="XMLID_302_" class="st0" d="M612,478.9l81.5-47.9l7.9-8.5"/>
		<path id="XMLID_301_" class="st0" d="M685.1,344.3L599.8,388"/>
		<path id="XMLID_300_" class="st0" d="M610.2,475.4l-6.1,3.1"/>
		<path id="XMLID_299_" class="st0" d="M682,341.9l1.2,0.9l-1.1-0.8"/>
		<path id="XMLID_298_" class="st0" d="M689.3,348.9l-3.1-3.7l-1.4-1.1l0.3,0.3"/>
		<path id="XMLID_297_" class="st0" d="M684.8,344.1l-1.6-1.2"/>
		<path id="XMLID_296_" class="st0" d="M706.1,392.9l0.1,1.3"/>
		<path id="XMLID_295_" class="st0" d="M604.4,479.2l-3.3,1.2l-1.5,0.4"/>
		<path id="XMLID_294_" class="st0" d="M601.1,480.4l-2.2,0.5"/>
		<path id="XMLID_293_" class="st0" d="M138.8,167.5l-0.2,3.1"/>
		<path id="XMLID_292_" class="st0" d="M138.8,170.6l0.4,3.6"/>
		
			<ellipse id="XMLID_291_" transform="matrix(-0.8803 0.4745 -0.4745 -0.8803 827.5175 499.5371)" class="st0" cx="350.7" cy="354.2" rx="4.7" ry="7.9"/>
		<path id="XMLID_290_" class="st0" d="M603.2,391.9c21.3,29.5,26.3,67.4,11.1,84.6c-3.7,4.2-8.3,6.9-13.7,7.9"/>
		<path id="XMLID_289_" class="st0" d="M601.7,393.7c20.1,27.8,24.8,63.5,10.5,79.7c-3.2,3.7-7.3,6.1-11.9,7.3"/>
		<path id="XMLID_288_" class="st0" d="M157.4,225.7c-20.1-27.8-24.8-63.5-10.5-79.7c3.4-3.8,7.7-6.4,12.6-7.4"/>
		<path id="XMLID_287_" class="st0" d="M157.4,225.7c-13-18-20.1-40.2-18.6-58.3"/>
		<path id="XMLID_286_" class="st0" d="M138.8,167.5c1.1-13.1,6.6-22.7,15.3-27"/>
		<path id="XMLID_285_" class="st0" d="M689.3,348.9c9.4,13.5,15.4,29.3,16.8,44"/>
		<path id="XMLID_284_" class="st0" d="M155.6,227.6c-21.3-29.5-26.3-67.4-11.1-84.6c3.7-4.2,8.3-6.9,13.7-7.9"/>
	</g>
	<g>
		<path id="XMLID_283_" class="st0" d="M232.6,345.1v-34.2l31.2-18"/>
		<path id="XMLID_282_" class="st0" d="M232.6,310.9L461,442.7V491"/>
		<path id="XMLID_281_" class="st0" d="M249.3,388.1l194.9,112.5"/>
		<path id="XMLID_280_" class="st0" d="M457.8,500.4l22.3-12.9l-0.4,0.2"/>
		<path id="XMLID_279_" class="st0" d="M461,442.7l31.2-18"/>
		<path id="XMLID_278_" class="st0" d="M483.3,478.1v-27.3"/>
		<path id="XMLID_277_" class="st0" d="M486.1,445.9l21.4-12.4"/>
		<path id="XMLID_276_" class="st0" d="M483.3,450.8c0-1.8,1.2-3.9,2.8-4.8"/>
		<path id="XMLID_275_" class="st0" d="M483.3,478.1c0,4.1-1.1,7.4-3.2,9.5"/>
		<path id="XMLID_274_" class="st0" d="M249.3,388.1c-4-2.3-7.9-6.2-10.9-11"/>
		<path id="XMLID_273_" class="st0" d="M461,491c0,10.7-7.5,15-16.7,9.6c0,0,0,0,0,0"/>
		<path id="XMLID_272_" class="st0" d="M244.3,348.7c2.1-2,6-0.4,8.8,3.6c1.3,1.9,2.2,4.1,2.4,6.1"/>
		<path id="XMLID_271_" class="st0" d="M439.3,461.2c2.1-2,6-0.4,8.8,3.6c1.3,1.9,2.2,4.1,2.4,6.1"/>
	</g>
	<g>
		<path id="XMLID_270_" class="st0" d="M304.6,329.7c5.9-19.6,5.9-19.6,11.6-39.3c1.2-5.8,1.2-5.8,2.2-11.7c0.1-2.4,0-2.4,0-4.8
			c-0.1-0.8-0.1-0.8-0.2-1.5c-0.1-0.3-0.1-0.3-0.1-0.5c-0.2-0.8-0.2-0.8-0.5-1.6c-0.3-0.6-0.3-0.6-0.6-1.2"/>
		<path id="XMLID_269_" class="st0" d="M314.8,344.6c-0.2-0.1-0.2-0.1-0.3-0.2c-0.6-0.5-0.7-0.5-1.2-1.1c-0.6-1-0.6-1-1.2-2
			c-0.4-1.2-0.4-1.2-0.7-2.5c-0.1-1.2-0.1-1.2-0.1-2.5c0.2-1.3,0.2-1.3,0.5-2.6c1.7-5.8,1.7-5.8,3.4-11.7c0.5-1.1,0.5-1.1,1-2.2
			c0.7-0.9,0.7-0.9,1.4-1.7"/>
		<path id="XMLID_268_" class="st0" d="M322.9,317.5c34.9,20.1,34.9,20.1,69.8,40.3c0.6,0.4,0.6,0.3,1.3,0.7
			c0.8,0.7,0.8,0.7,1.6,1.4c0.7,1,0.7,1,1.2,2c0.4,1.2,0.4,1.2,0.7,2.4c0.1,1.3,0.1,1.3,0.1,2.6c-0.2,1.3-0.2,1.3-0.4,2.6
			c-1.7,5.8-1.7,5.8-3.4,11.6c-0.5,1.1-0.5,1.1-1,2.2c-0.7,0.9-0.7,0.9-1.4,1.7"/>
		<path id="XMLID_267_" class="st0" d="M332.4,278.7c-0.6,0.3-0.6,0.3-1.2,0.7c-0.6,0.5-0.6,0.5-1.2,1.1c-1.2,1.7-1.3,1.7-2.5,3.4
			c-2.2,5.2-2.2,5.2-4.3,10.5c-0.4,1.2-0.4,1.2-0.7,2.5c-0.2,1.3-0.3,1.3-0.4,2.6c0,1.3,0,1.3,0.1,2.6c0.3,1.2,0.3,1.2,0.7,2.4
			c0.6,1,0.6,1,1.2,2c0.8,0.7,0.8,0.7,1.6,1.4c9.4,5.5,9.4,5.5,18.8,10.9"/>
		<path id="XMLID_266_" class="st0" d="M402.2,348.2c0.7-0.9,0.7-0.9,1.4-1.7c0.5-1.1,0.5-1.1,1-2.2c0.4-1.2,0.4-1.2,0.7-2.5
			c1.1-5.8,1.2-5.8,2.2-11.7c0.1-2.4,0-2.4,0-4.8c-0.1-1-0.1-1-0.3-2c-0.2-0.8-0.2-0.8-0.5-1.6c-0.3-0.6-0.3-0.6-0.7-1.2"/>
		<path id="XMLID_265_" class="st0" d="M421.5,330.1c-0.6,0.3-0.6,0.3-1.1,0.7c-0.6,0.5-0.6,0.5-1.2,1.1c-1.2,1.7-1.3,1.7-2.5,3.4
			c-2.2,5.2-2.2,5.2-4.3,10.5"/>
		<path id="XMLID_264_" class="st0" d="M412.3,345.8c-5.8,19.7-5.8,19.7-11.7,39.3c-0.2,1.3-0.2,1.3-0.4,2.6
			c0.1,1.3,0.1,1.3,0.1,2.6c0.3,1.2,0.3,1.2,0.7,2.4c0.6,1,0.6,1,1.2,2c0.8,0.7,0.8,0.7,1.6,1.4c8,4.6,8,4.6,16,9.2"/>
		<path id="XMLID_263_" class="st0" d="M275.2,318.7v9.6v-0.1"/>
		<path id="XMLID_262_" class="st0" d="M280.8,325l16,9.2l1.8,0.6l1.9-0.2l1.7-1l1.4-1.7l1-2.2"/>
		<path id="XMLID_261_" class="st0" d="M284.6,304.7l13.2,7.6"/>
		<path id="XMLID_260_" class="st0" d="M286.3,299.2v-32.1"/>
		<path id="XMLID_259_" class="st0" d="M298.8,253.2l-8.4,4.8"/>
		<path id="XMLID_258_" class="st0" d="M439.5,339.4L300.2,259"/>
		<path id="XMLID_257_" class="st0" d="M447.8,334.6l-139.2-80.4"/>
		<path id="XMLID_256_" class="st0" d="M317.4,318.1l1.7-1l1.9-0.2l1.8,0.6"/>
		<path id="XMLID_255_" class="st0" d="M391.3,385l-1.8,1l-1.9,0.2l-1.4-0.4l-0.3-0.2"/>
		<path id="XMLID_254_" class="st0" d="M311.7,340.1l13.2-7.6"/>
		<path id="XMLID_253_" class="st0" d="M318.3,317.6l0.1-0.1"/>
		<path id="XMLID_252_" class="st0" d="M333.4,278.5l-1,0.2"/>
		<path id="XMLID_251_" class="st0" d="M344.6,318.7l52.2,30.1l1.8,0.6l1.9-0.2l1.7-1"/>
		<path id="XMLID_250_" class="st0" d="M322.5,355.8v-9.5"/>
		<path id="XMLID_249_" class="st0" d="M324.9,301.9l-2.3,1.4"/>
		<path id="XMLID_248_" class="st0" d="M330.9,344.3l5.6-3.2"/>
		<path id="XMLID_247_" class="st0" d="M328.8,320.9v4.8"/>
		<path id="XMLID_246_" class="st0" d="M340.4,336.9l-7.7-4.5"/>
		<path id="XMLID_245_" class="st0" d="M332.7,301.9l72.2,41.7"/>
		<path id="XMLID_244_" class="st0" d="M342,331.4v-2.8"/>
		<path id="XMLID_243_" class="st0" d="M350.4,339.5v-6.1"/>
		<path id="XMLID_242_" class="st0" d="M383.3,390.8v-1.4v2.4"/>
		<path id="XMLID_241_" class="st0" d="M383.3,386.3v-3.2v6.3"/>
		<path id="XMLID_240_" class="st0" d="M383.3,382.3v0.8v-1.9"/>
		<path id="XMLID_239_" class="st0" d="M383.3,383.1v-2.9"/>
		<path id="XMLID_238_" class="st0" d="M386.6,376.4l5.6-3.2"/>
		<path id="XMLID_237_" class="st0" d="M396.1,369l1,0.6"/>
		<path id="XMLID_236_" class="st0" d="M422.5,329.9l-1.1,0.2"/>
		<path id="XMLID_235_" class="st0" d="M400.8,391.5l13.2-7.6"/>
		<path id="XMLID_234_" class="st0" d="M423.1,384.7l-1.4-0.8"/>
		<path id="XMLID_233_" class="st0" d="M433.9,418.1v-9.4"/>
		<path id="XMLID_232_" class="st0" d="M438.6,393.6l13.2,7.6"/>
		<path id="XMLID_231_" class="st0" d="M449.3,349.8l8.4-4.8"/>
		<path id="XMLID_230_" class="st0" d="M453.4,395.7v-32.2"/>
		<path id="XMLID_229_" class="st0" d="M461.8,358.7v45.1"/>
		<path id="XMLID_228_" class="st0" d="M315.2,287.6c-2.3-1.6-4.2-4.7-4.3-7.5"/>
		<path id="XMLID_227_" class="st0" d="M435.2,395.8c-0.1,4-5.7,7.1-12.6,7.1c-6.9-0.1-12.3-3.3-12.2-7.3c0.1-3.8,5.2-6.8,11.7-7.1"
			/>
		<path id="XMLID_226_" class="st0" d="M447.8,334.6c7.7,4.4,13.9,15.2,13.9,24.1"/>
		<path id="XMLID_225_" class="st0" d="M298.7,253.2c2.6-1.5,6.2-1.2,9.8,1"/>
		<path id="XMLID_224_" class="st0" d="M440.5,359.9c-2.3-1.6-4.2-4.7-4.3-7.5"/>
		<path id="XMLID_223_" class="st0" d="M314.2,297.3c-2.9,2.8-8.4,0.4-12.3-5.2c-3.9-5.6-4.6-12.4-1.7-15.2s8.4-0.4,12.3,5.2
			c2,2.9,3.2,6.2,3.4,9.2"/>
		<path id="XMLID_222_" class="st0" d="M286.3,299.2c0,3.6-2.5,7.9-5.6,9.6c0,0,0,0,0,0"/>
		<path id="XMLID_221_" class="st0" d="M304.8,329.1c-5.5,2.3-13.3,1.6-17.3-1.6c-4-3.2-2.8-7.7,2.7-10c5.5-2.3,13.3-1.6,17.3,1.6
			c0.1,0.1,0.1,0.1,0.2,0.2"/>
		
			<ellipse id="XMLID_220_" transform="matrix(0.866 -0.5 0.5 0.866 -121.8147 264.4272)" class="st0" cx="432.5" cy="359.5" rx="7.2" ry="12.4"/>
		<path id="XMLID_219_" class="st0" d="M453.4,395.7c0,3.6-2.5,7.9-5.6,9.6"/>
		<path id="XMLID_218_" class="st0" d="M342,331.4c0,3.6-2.5,7.9-5.6,9.6c0,0,0,0,0,0"/>
		<path id="XMLID_217_" class="st0" d="M286.3,267.1c0-8.9,6.2-12.5,13.9-8c0,0,0,0,0,0"/>
		<path id="XMLID_216_" class="st0" d="M441,361.7c-0.9,2.3-3.7,2.1-6.1-0.4s-3.7-6.4-2.7-8.6c0.5-1.2,1.5-1.7,2.7-1.6"/>
		<path id="XMLID_215_" class="st0" d="M330.9,344.2c-4.4,2.5-11.4,2.7-16,0.4"/>
		<path id="XMLID_214_" class="st0" d="M447.8,405.3c-7.7,4.4-20.2,4.4-27.8,0"/>
		<path id="XMLID_213_" class="st0" d="M315.9,288.6c-0.5,2.7-3,3.2-5.6,1.1c-2.6-2.1-4.2-5.9-3.7-8.6c0.3-1.7,1.4-2.5,2.9-2.3"/>
		<path id="XMLID_212_" class="st0" d="M397.5,365.3c-0.7,3.2-2.9,6.4-5.4,7.9"/>
		<path id="XMLID_211_" class="st0" d="M439.5,339.4c7.7,4.4,13.9,15.2,13.9,24.1"/>
		<path id="XMLID_210_" class="st0" d="M386,385.7c-4-2.7-3.8-6.7,0.6-9.3"/>
		<path id="XMLID_209_" class="st0" d="M280.7,325c-7.7-4.4-7.7-11.6,0-16.1"/>
	</g>
	<g>
		<path id="XMLID_208_" class="st0" d="M240.2,359.8c5.9,0.4,5.9,0.4,11.8,0.9c0.2,0,0.2,0,0.3,0.1c0.2,0.1,0.2,0.1,0.4,0.1"/>
		<path id="XMLID_207_" class="st0" d="M223,344c1.8-1,1.8-1,3.5-2c0.1-0.1,0.1,0,0.2-0.1c0.1,0,0.1,0,0.2,0c0.1,0,0.1,0,0.2,0
			s0.1,0,0.1,0.1"/>
		<path id="XMLID_206_" class="st0" d="M243.9,380.3c4.7,0,4.7,0,9.5,0c0.3,0,0.3,0,0.5-0.1c0.2-0.1,0.2-0.1,0.5-0.1
			c0.1-0.1,0.1-0.1,0.2-0.1"/>
		<path id="XMLID_205_" class="st0" d="M230,360.9c0,2.6,0,0.9,0,1.8c0.1,0.5,0.1,0.5,0.3,1s0.1,0.5,0.3,1c0.5,1,0.5,1,0.9,1.9
			c0.6,0.9,0.6,0.9,1.2,1.7c0.7,0.7,0.7,0.7,1.5,1.3c0.7,0.4,0.7,0.4,1.5,0.7"/>
		<path id="XMLID_204_" class="st0" d="M243.2,351.2c6.1,3.5,6.1,3.5,12.2,7c0.1,0.1,0.1,0.1,0.3,0.2c0.1,0.1,0.1,0.1,0.1,0.1
			c0.1,0.2,0.1,0.2,0.1,0.3c0,0.1,0,0.1,0,0.3"/>
		<path id="XMLID_203_" class="st0" d="M252.8,360.9c0.1,0.1,0.1,0.1,0.1,0.1c0.1,0.1,0.1,0.1,0.1,0.1c0.1,0.1,0.1,0.1,0.1,0.2"/>
		<path id="XMLID_202_" class="st0" d="M253.2,361.4c0.6,2,0.6,2,1.2,4.1c0.4,2.8,0.4,2.8,0.7,5.6c0.1,4.1,0,4.1,0,8.2
			c0,0.1,0,0.1,0,0.1c0,0.1,0,0.1-0.1,0.1c-0.1,0.1-0.1,0.1-0.1,0.1c-0.1,0.1-0.1,0.1-0.1,0.1c-0.2,0.1-0.2,0.1-0.4,0.2"/>
		<path id="XMLID_201_" class="st0" d="M255.9,359.1c0.1,0.4,0.1,0.4,0.2,0.8c0,0.4-0.1,0.4-0.1,0.8c-0.1,0.3-0.1,0.3-0.2,0.6"/>
		<path id="XMLID_200_" class="st0" d="M257.3,377.5c0.1-0.2,0.1-0.2,0.3-0.5c0.1-0.2,0.1-0.2,0.2-0.5c0.1-0.3,0.1-0.3,0.1-0.5
			c0-0.4,0-0.4,0-0.8"/>
		<path id="XMLID_199_" class="st0" d="M257.9,372.7c0-0.4,0,0.4,0,0.8c-0.1,0.2-0.1,0.3-0.1,0.5c-0.1,0.2-0.1,0.2-0.2,0.5
			c-0.1,0.2-0.1,0.2-0.3,0.5"/>
		<path id="XMLID_198_" class="st0" d="M257.9,370.1c0,1.2,0,0.4,0,0.8c-0.1,0.3-0.1,0.3-0.1,0.5c-0.1,0.2-0.1,0.2-0.2,0.5
			c-0.1,0.2-0.1,0.2-0.3,0.5"/>
		<path id="XMLID_197_" class="st0" d="M257.3,369.8c0.1-0.2,0.1-0.2,0.3-0.5c0.1-0.3,0.1-0.3,0.3-0.7c0-0.3,0-0.3,0.1-0.5
			c0-0.3,0-0.3,0-0.5"/>
		<path id="XMLID_196_" class="st0" d="M256.8,361.8c0.1,0.3,0.1,0.3,0.1,0.5c0.1,0.3,0.1,0.3,0.1,0.7c-0.1,0.4-0.1,0.4-0.1,0.8
			c-0.1,0.3-0.1,0.3-0.2,0.5"/>
		<path id="XMLID_195_" class="st0" d="M257.5,364.8c0,0.3,0,0.3,0.1,0.5c0,0.3,0,0.3,0,0.6c-0.1,0.3-0.1,0.4-0.2,0.7
			c-0.1,0.3-0.1,0.3-0.2,0.5"/>
		<path id="XMLID_194_" class="st0" d="M223,358.9L223,358.9L223,358.9"/>
		<path id="XMLID_193_" class="st0" d="M223,359v-9.2v-4.8v2.3"/>
		<path id="XMLID_192_" class="st0" d="M223,349.9l17.2,9.9"/>
		<path id="XMLID_191_" class="st0" d="M252.8,360.9l3-1.7v0.2l0,0.2"/>
		<path id="XMLID_190_" class="st0" d="M223,344.4v3"/>
		<path id="XMLID_189_" class="st0" d="M223,344.4V344v0.1"/>
		<path id="XMLID_188_" class="st0" d="M227.2,342l7.7,4.5l2-1.2l-2,1.2"/>
		<path id="XMLID_187_" class="st0" d="M223,344.1L223,344.1"/>
		<path id="XMLID_186_" class="st0" d="M226.7,370.3l17.2,9.9"/>
		<path id="XMLID_185_" class="st0" d="M254.6,379.9L254.6,379.9"/>
		<path id="XMLID_184_" class="st0" d="M234.1,358.9l-1.4-0.4l-1.2,0.2l-0.9,0.9l-0.5,1.4"/>
		<path id="XMLID_183_" class="st0" d="M235.7,370.2l1.4,0.1l1.1-0.5l0.7-1.1l0.2-1.2"/>
		<path id="XMLID_182_" class="st0" d="M234.9,346.5l0.3,0.2"/>
		<path id="XMLID_181_" class="st0" d="M237.6,344.9l-0.6,0.4"/>
		<path id="XMLID_180_" class="st0" d="M237.3,345.1L237.3,345.1"/>
		<path id="XMLID_179_" class="st0" d="M244.3,348.7l-6.3-3.6"/>
		<path id="XMLID_178_" class="st0" d="M243.9,371.1v9.2"/>
		<path id="XMLID_177_" class="st0" d="M250.6,355.1l-0.3,0.2"/>
		<path id="XMLID_176_" class="st0" d="M254.6,379.9l3.3-1.9v-0.1l-0.6-0.3"/>
		<path id="XMLID_175_" class="st0" d="M256,379.2l2-1.1l-0.1-0.1"/>
		<path id="XMLID_174_" class="st0" d="M255.8,358.9l0.1,0.2"/>
		<path id="XMLID_173_" class="st0" d="M255.8,361.2l1,0.6v0"/>
		<path id="XMLID_172_" class="st0" d="M256.5,361.6l-0.6-0.3L256.5,361.6"/>
		<path id="XMLID_171_" class="st0" d="M255.7,358.5l0.2,0.5"/>
		<path id="XMLID_170_" class="st0" d="M257.9,378v-0.1l-0.6-0.4"/>
		<path id="XMLID_169_" class="st0" d="M257.9,375.3L257.9,375.3"/>
		<path id="XMLID_168_" class="st0" d="M257.5,377.6l0.3,0.2l-0.5-0.3"/>
		<path id="XMLID_167_" class="st0" d="M257.8,377.8l-0.3-0.2"/>
		<path id="XMLID_166_" class="st0" d="M257.4,377.6l0.4,0.3"/>
		<path id="XMLID_165_" class="st0" d="M257.8,377.8l-0.3-0.1"/>
		<path id="XMLID_164_" class="st0" d="M257.5,377.6L257.5,377.6"/>
		<path id="XMLID_163_" class="st0" d="M257.9,372.7L257.9,372.7"/>
		<path id="XMLID_162_" class="st0" d="M257.3,375l0.6,0.3"/>
		<path id="XMLID_161_" class="st0" d="M257.9,375.3l-0.3-0.2"/>
		<path id="XMLID_160_" class="st0" d="M257.3,375l0.3,0.1"/>
		<path id="XMLID_159_" class="st0" d="M257.9,370.1L257.9,370.1"/>
		<path id="XMLID_158_" class="st0" d="M257.3,372.4l0.3,0.1l-0.1,0"/>
		<path id="XMLID_157_" class="st0" d="M257.9,372.7l-0.6-0.3"/>
		<path id="XMLID_156_" class="st0" d="M257.8,372.7l-0.3-0.2v0"/>
		<path id="XMLID_155_" class="st0" d="M257.6,367.4l0.3,0.2L257.6,367.4"/>
		<path id="XMLID_154_" class="st0" d="M257.8,367.6l-0.5-0.3l0.4,0.2"/>
		<path id="XMLID_153_" class="st0" d="M257.5,369.9L257.5,369.9l-0.2-0.1"/>
		<path id="XMLID_152_" class="st0" d="M257.9,370.1l-0.3-0.2l0.1,0.1"/>
		<path id="XMLID_151_" class="st0" d="M257.7,367.5l-0.4-0.2L257.7,367.5l-0.2-0.1"/>
		<path id="XMLID_150_" class="st0" d="M257.6,370L257.6,370"/>
		<path id="XMLID_149_" class="st0" d="M256.5,361.7L256.5,361.7l0.3,0.1"/>
		<path id="XMLID_148_" class="st0" d="M256.7,364.3l0.9,0.5"/>
		<path id="XMLID_147_" class="st0" d="M257.1,367.1l0.2,0.1"/>
		<path id="XMLID_146_" class="st0" d="M256.8,364.4l-0.1-0.1l0.7,0.4"/>
		<path id="XMLID_145_" class="st0" d="M257.4,364.7l-0.7-0.4l0.3,0.2"/>
		<path id="XMLID_144_" class="st0" d="M257.4,364.7l-0.7-0.4l0.9,0.5"/>
		<path id="XMLID_143_" class="st0" d="M257.3,364.7L257.3,364.7"/>
		<path id="XMLID_142_" class="st0" d="M257.3,367.2l-0.1-0.1L257.3,367.2"/>
		<path id="XMLID_141_" class="st0" d="M256.8,361.8L256.8,361.8"/>
		<path id="XMLID_140_" class="st0" d="M256.8,361.8l-0.3-0.1h0"/>
		<path id="XMLID_139_" class="st0" d="M256.1,361.4l0.2,0.1"/>
		<path id="XMLID_138_" class="st0" d="M237.4,345.1l0.2-0.1h0.2l0.3,0.1"/>
		
			<ellipse id="XMLID_137_" transform="matrix(0.866 -0.5 0.5 0.866 -151.2488 165.6441)" class="st0" cx="233.5" cy="365.1" rx="4.6" ry="8.1"/>
		<path id="XMLID_136_" class="st0" d="M226.7,370.3c-2.3-3.6-3.7-7.8-3.7-11.3"/>
		<path id="XMLID_135_" class="st0" d="M240.3,359.8c2.3,3.6,3.7,7.8,3.7,11.3"/>
		<path id="XMLID_134_" class="st0" d="M244.8,348.9c2.3,1.4,4.6,3.8,6.2,6.7"/>
	</g>
	<g>
		<path id="XMLID_133_" class="st0" d="M446.8,468.6c-0.5-1-0.5-1-1.1-2.1c-0.8-1-0.8-1-1.6-1.9c-0.9-0.7-0.9-0.7-1.8-1.4
			c-0.2-0.1-0.2-0.1-0.5-0.2"/>
		<path id="XMLID_132_" class="st0" d="M442.2,461.4c0.9,0.3,0.9,0.3,1.8,0.7c0.9,0.7,0.9,0.7,1.8,1.4c0.2,0.2,0.2,0.2,0.4,0.5
			c0.6,0.7,0.6,0.7,1.2,1.4c0.7,1.1,0.7,1.1,1.2,2.3"/>
		<path id="XMLID_131_" class="st0" d="M448.8,469.1c-0.5-1.2-0.5-1.2-1-2.4c-0.7-1.1-0.7-1.1-1.4-2.2c-0.9-0.9-0.9-0.9-1.8-1.7
			c-0.9-0.6-0.9-0.6-1.8-1.1"/>
		<path id="XMLID_130_" class="st0" d="M427.6,472.9L427.6,472.9"/>
		<path id="XMLID_129_" class="st0" d="M432.4,480.9L432.4,480.9"/>
		<path id="XMLID_128_" class="st0" d="M446.9,468.8L446.9,468.8l-0.1-0.2"/>
		<path id="XMLID_127_" class="st0" d="M442.8,460.6l-1.3,0.4l-0.5,0.5"/>
		<path id="XMLID_126_" class="st0" d="M440.2,461.8l0.4-0.2l1.6-0.1"/>
		<path id="XMLID_125_" class="st0" d="M448.7,467.8l-1.2-2.3"/>
		<path id="XMLID_124_" class="st0" d="M449,470.1l-0.2-0.9"/>
		<path id="XMLID_123_" class="st0" d="M442.8,461.9l-1.7-0.3l-0.8,0.3"/>
		<path id="XMLID_122_" class="st0" d="M442.5,460.5l-1,0.5"/>
		<path id="XMLID_121_" class="st0" d="M445.6,466.5l0.1,0.2l0,0"/>
		<path id="XMLID_120_" class="st0" d="M446.3,468.5l-0.3-0.7l-1.4-2.2l-1.7-1.7l-0.1-0.1"/>
		<path id="XMLID_119_" class="st0" d="M445.7,466.7l1,1.9"/>
		<path id="XMLID_118_" class="st0" d="M449.5,470.3l0-0.2l-0.7-2.4"/>
		<path id="XMLID_117_" class="st0" d="M448.6,467.5L448.6,467.5"/>
		<path id="XMLID_116_" class="st0" d="M446.8,468.5L446.8,468.5"/>
		<path id="XMLID_115_" class="st0" d="M447.6,465.6L447.6,465.6"/>
		<path id="XMLID_114_" class="st0" d="M433.8,481.3c-2.3-0.2-4.9-2.9-5.9-6.1c-0.5-1.6-0.5-3.1,0-4.1"/>
	</g>
	<g>
		<path id="XMLID_113_" class="st0" d="M435.2,472.4c5.9,0.4,5.9,0.4,11.8,0.9c0.2,0,0.2,0,0.3,0.1c0.2,0.1,0.2,0.1,0.4,0.2"/>
		<path id="XMLID_112_" class="st0" d="M418,456.6c1.8-1,1.8-1,3.5-2c0.1,0,0.1,0,0.2-0.1c0.1,0,0.1,0,0.2,0c0.1,0,0.1,0,0.2,0
			c0.1,0,0.1,0,0.1,0.1"/>
		<path id="XMLID_111_" class="st0" d="M447.7,473.4c0.1,0,0.1,0,0.1,0.1c0.1,0.1,0.1,0.1,0.1,0.1c0.1,0.1,0.1,0.1,0.1,0.3"/>
		<path id="XMLID_110_" class="st0" d="M448.1,473.9c0.6,2,0.6,2,1.2,4.1c0.4,2.8,0.4,2.8,0.7,5.7c0.1,4.1,0,4.1,0,8.2
			c0,0.1,0,0.1,0,0.1c0,0.1,0,0.1-0.1,0.2c-0.1,0.1-0.1,0.1-0.1,0.1c-0.1,0.1-0.1,0.1-0.1,0.1c-0.2,0.1-0.2,0.1-0.4,0.2
			c-0.2,0.1-0.2,0.1-0.5,0.1c-0.3,0-0.3,0-0.5,0"/>
		<path id="XMLID_109_" class="st0" d="M425,473.5c0,0.9,0,0.9,0,1.8c0.1,0.5,0.1,0.5,0.3,1c0.1,0.5,0.1,0.5,0.3,1
			c0.5,1,0.5,1,0.9,1.9c0.6,0.9,0.6,0.9,1.2,1.7c0.3,0.3,0.3,0.3,0.6,0.5c0.4,0.4,0.4,0.4,0.9,0.8c0.7,0.4,0.7,0.4,1.5,0.7"/>
		<path id="XMLID_108_" class="st0" d="M450.7,471.7c0-0.1,0-0.1,0-0.3c0-0.1,0-0.1-0.1-0.3c0-0.1,0-0.1-0.1-0.1
			c-0.1-0.1-0.1-0.1-0.3-0.2"/>
		<path id="XMLID_107_" class="st0" d="M452.1,479.7c0.1-0.3,0.1-0.3,0.2-0.5c0.1-0.4,0.1-0.4,0.2-0.7c0-0.3,0-0.3,0-0.6
			c-0.1-0.3-0.1-0.3-0.1-0.5"/>
		<path id="XMLID_106_" class="st0" d="M451.6,476.8c0.1-0.3,0.1-0.3,0.2-0.5c0.1-0.4,0.1-0.4,0.1-0.8c0-0.3,0-0.3-0.1-0.7
			c-0.1-0.3-0.1-0.3-0.1-0.5"/>
		<path id="XMLID_105_" class="st0" d="M450.7,473.8c0.1-0.3,0.1-0.3,0.2-0.5c0-0.4,0.1-0.4,0.1-0.8c-0.1-0.4-0.1-0.4-0.2-0.8
			c0-0.1-0.1-0.1-0.1-0.2"/>
		<path id="XMLID_104_" class="st0" d="M452.2,490.1c0.1-0.3,0.1-0.3,0.3-0.5c0.1-0.3,0.1-0.3,0.2-0.5c0.1-0.2,0.1-0.2,0.1-0.5
			c0-0.4,0-0.4,0-0.8"/>
		<path id="XMLID_103_" class="st0" d="M452.2,487.5c0.1-0.2,0.1-0.2,0.3-0.5c0.1-0.2,0.1-0.2,0.2-0.5c0.1-0.2,0.1-0.2,0.1-0.5
			c0-0.4,0-0.4,0-0.8"/>
		<path id="XMLID_102_" class="st0" d="M452.2,484.9c0.1-0.2,0.1-0.2,0.3-0.5c0.1-0.2,0.1-0.2,0.2-0.5c0.1-0.3,0.1-0.3,0.1-0.5
			c0-0.4,0-0.4,0-0.8"/>
		<path id="XMLID_101_" class="st0" d="M452.8,480.1c0,0.3,0,0.3,0,0.5c0,0.3,0,0.3-0.1,0.5c-0.1,0.3-0.1,0.3-0.3,0.7
			c-0.1,0.3-0.1,0.3-0.3,0.5"/>
		<path id="XMLID_100_" class="st0" d="M418,471.6L418,471.6L418,471.6"/>
		<path id="XMLID_99_" class="st0" d="M418,471.6v-12.5v1.5"/>
		<path id="XMLID_98_" class="st0" d="M418,462.4l17.2,9.9"/>
		<path id="XMLID_97_" class="st0" d="M447.7,473.4l3-1.8v0.2l0,0.2"/>
		<path id="XMLID_96_" class="st0" d="M418,460.6v-3.6v2.2"/>
		<path id="XMLID_95_" class="st0" d="M418,456.8v0.1v-0.4"/>
		<path id="XMLID_94_" class="st0" d="M422.1,454.5l7.7,4.5l0.1-0.1l-0.1,0.1"/>
		<path id="XMLID_93_" class="st0" d="M418,456.6L418,456.6"/>
		<path id="XMLID_92_" class="st0" d="M418,456.7L418,456.7"/>
		<path id="XMLID_91_" class="st0" d="M418,456.9L418,456.9"/>
		<path id="XMLID_90_" class="st0" d="M448.3,492.8h-9.5l-17.2-9.9"/>
		<path id="XMLID_89_" class="st0" d="M429.1,471.4l-1.4-0.4l-1.2,0.2l-0.9,0.9l-0.5,1.4"/>
		<path id="XMLID_88_" class="st0" d="M430.6,482.8l1.4,0.1l1.1-0.5l0.7-1.1l0.2-1.2"/>
		<path id="XMLID_87_" class="st0" d="M432.4,457.5l-2.4,1.4L432.4,457.5"/>
		<path id="XMLID_86_" class="st0" d="M429.9,459l0.3,0.2"/>
		<path id="XMLID_85_" class="st0" d="M433,457.6l6.7,3.9"/>
		<path id="XMLID_84_" class="st0" d="M438.8,483.6v9.2"/>
		<path id="XMLID_83_" class="st0" d="M450.3,470.8l-12.2-7"/>
		<path id="XMLID_82_" class="st0" d="M445.6,467.7l-0.3,0.2"/>
		<path id="XMLID_81_" class="st0" d="M449.3,492.6l2.9-1.7l-2.5,1.4"/>
		<path id="XMLID_80_" class="st0" d="M452.6,480l-0.5-0.3l0.6,0.3l-0.7-0.4"/>
		<path id="XMLID_79_" class="st0" d="M452.4,477.3l-0.9-0.5"/>
		<path id="XMLID_78_" class="st0" d="M451.7,474.4L451.7,474.4L451.7,474.4L451.7,474.4"/>
		<path id="XMLID_77_" class="st0" d="M452.8,480.1L452.8,480.1l-0.6-0.3l0.1,0"/>
		<path id="XMLID_76_" class="st0" d="M452.2,479.8l0.2,0.1"/>
		<path id="XMLID_75_" class="st0" d="M452.1,479.7L452.1,479.7"/>
		<path id="XMLID_74_" class="st0" d="M451.9,477l-0.3-0.2l0.1,0.1"/>
		<path id="XMLID_73_" class="st0" d="M451.6,476.8l0.7,0.4l-0.1,0"/>
		<path id="XMLID_72_" class="st0" d="M451.7,474.3L451.7,474.3"/>
		<path id="XMLID_71_" class="st0" d="M451.2,474.1l-0.2-0.1"/>
		<path id="XMLID_70_" class="st0" d="M451.5,474.2l-0.7-0.4"/>
		<path id="XMLID_69_" class="st0" d="M451.5,474.2l-0.7-0.4l0.9,0.5L451.5,474.2L451.5,474.2"/>
		<path id="XMLID_68_" class="st0" d="M451.7,474.3l-0.2-0.1"/>
		<path id="XMLID_67_" class="st0" d="M450.6,471.1l0.2,0.5"/>
		<path id="XMLID_66_" class="st0" d="M452.8,490.4l-0.3-0.1L452.8,490.4l0.1,0.2l-0.7,0.4"/>
		<path id="XMLID_65_" class="st0" d="M452.8,487.8L452.8,487.8l-0.3-0.2"/>
		<path id="XMLID_64_" class="st0" d="M452.8,490.4l-0.5-0.3"/>
		<path id="XMLID_63_" class="st0" d="M452.4,490.2L452.4,490.2L452.4,490.2"/>
		<path id="XMLID_62_" class="st0" d="M452.8,490.4l-0.6-0.3"/>
		<path id="XMLID_61_" class="st0" d="M452.8,490.6l-0.1-0.1"/>
		<path id="XMLID_60_" class="st0" d="M452.8,487.8l-0.3-0.1L452.8,487.8"/>
		<path id="XMLID_59_" class="st0" d="M452.5,487.7l-0.3-0.2"/>
		<path id="XMLID_58_" class="st0" d="M452.8,485.3L452.8,485.3"/>
		<path id="XMLID_57_" class="st0" d="M452.3,490.1l0.5,0.3"/>
		<path id="XMLID_56_" class="st0" d="M452.4,490.2l0.3,0.2"/>
		<path id="XMLID_55_" class="st0" d="M452.3,490.1l0.5,0.3"/>
		<path id="XMLID_54_" class="st0" d="M452.4,485l0.1,0.1l-0.3-0.2"/>
		<path id="XMLID_53_" class="st0" d="M452.8,482.7L452.8,482.7"/>
		<path id="XMLID_52_" class="st0" d="M452.7,485.2l-0.2-0.1l0.3,0.2"/>
		<path id="XMLID_51_" class="st0" d="M452.5,485.1L452.5,485.1l0.3,0.1"/>
		<path id="XMLID_50_" class="st0" d="M452.2,482.3l0.3,0.2l-0.1,0"/>
		<path id="XMLID_49_" class="st0" d="M452.7,482.6l0.1,0.1l-0.3-0.2L452.7,482.6"/>
		<path id="XMLID_48_" class="st0" d="M452.5,482.5L452.5,482.5"/>
		<path id="XMLID_47_" class="st0" d="M452.7,480l-0.2-0.1"/>
		<path id="XMLID_46_" class="st0" d="M452.6,480L452.6,480"/>
		<path id="XMLID_45_" class="st0" d="M452.5,480l0.2,0.1"/>
		<path id="XMLID_44_" class="st0" d="M452.3,477.3l-0.1-0.1L452.3,477.3"/>
		<path id="XMLID_43_" class="st0" d="M452.4,477.3L452.4,477.3"/>
		<path id="XMLID_42_" class="st0" d="M452.3,477.3L452.3,477.3"/>
		<path id="XMLID_41_" class="st0" d="M433,457.6l-0.3-0.1l-0.2,0l-0.2,0.1"/>
		<path id="XMLID_40_" class="st0" d="M439.7,461.4c2.3,1.3,4.6,3.8,6.1,6.7"/>
		<path id="XMLID_39_" class="st0" d="M421.6,482.8c-2.3-3.6-3.7-7.7-3.7-11.3"/>
		<path id="XMLID_38_" class="st0" d="M435.2,472.4c2.3,3.6,3.7,7.8,3.7,11.3"/>
		
			<ellipse id="XMLID_37_" transform="matrix(0.866 -0.5 0.5 0.866 -181.4064 278.1936)" class="st0" cx="428.4" cy="477.6" rx="4.6" ry="8.1"/>
	</g>
	<g>
		<path id="XMLID_36_" class="st0" d="M247.3,348.9c0.9,0.3,0.9,0.3,1.8,0.7c0.9,0.7,0.9,0.7,1.8,1.4c0.8,1,0.8,1,1.6,2
			c0.6,1,0.6,1,1.1,2"/>
		<path id="XMLID_35_" class="st0" d="M253.9,356.6c-0.5-1.2-0.5-1.2-1-2.4c-0.7-1.1-0.7-1.1-1.4-2.1c-0.9-0.9-0.9-0.9-1.8-1.7
			c-0.9-0.5-0.9-0.5-1.8-1"/>
		<path id="XMLID_34_" class="st0" d="M247.3,350.6c0.9,0.7,0.9,0.7,1.8,1.4c0.8,0.9,0.8,1,1.6,1.9c0.2,0.3,0.2,0.3,0.3,0.6
			c0.5,0.8,0.5,0.8,0.9,1.6"/>
		<path id="XMLID_33_" class="st0" d="M232.6,360.4L232.6,360.4"/>
		<path id="XMLID_32_" class="st0" d="M237.5,368.3L237.5,368.3"/>
		<path id="XMLID_31_" class="st0" d="M245.3,349.2l0.4-0.2l1.6-0.1"/>
		<path id="XMLID_30_" class="st0" d="M254.1,357.5l-0.2-0.9"/>
		<path id="XMLID_29_" class="st0" d="M247.9,349.3l-1.8-0.3l-0.8,0.3"/>
		<path id="XMLID_28_" class="st0" d="M247.8,348l-1.3,0.4l-0.5,0.5"/>
		<path id="XMLID_27_" class="st0" d="M251.4,355.9l-0.3-0.7l-1.4-2.1l-1.7-1.7l-0.1-0.1"/>
		<path id="XMLID_26_" class="st0" d="M246.8,350.5l0.5,0.2"/>
		<path id="XMLID_25_" class="st0" d="M252,356.2L252,356.2"/>
		<path id="XMLID_24_" class="st0" d="M246.5,348.4l1-0.5"/>
		<path id="XMLID_23_" class="st0" d="M252,356.2l-1.2-2.1"/>
		<path id="XMLID_22_" class="st0" d="M251.8,356L251.8,356"/>
		<path id="XMLID_21_" class="st0" d="M252.5,352.9l1.2,2.3l0.7,2.4l0,0.2"/>
		<path id="XMLID_20_" class="st0" d="M250.7,354l0.1,0.1"/>
		<path id="XMLID_19_" class="st0" d="M252.6,353.1L252.6,353.1"/>
		<path id="XMLID_18_" class="st0" d="M253.6,354.9l0.1,0.3"/>
		<path id="XMLID_17_" class="st0" d="M238.9,368.7c-2.3-0.2-4.9-2.9-5.9-6.1c-0.5-1.6-0.5-3.1,0-4.1"/>
	</g>
	<g>
		<path id="XMLID_16_" class="st0" d="M411.9,395.7v1.4"/>
		<path id="XMLID_15_" class="st0" d="M420,397.6l1.6-0.9v-3.5l-3.2,1.9l1.2,2.5l4.4,0.7l3.2-1.8l-1.2-2.6l-4.4-0.7"/>
		<path id="XMLID_14_" class="st0" d="M423.5,398.2l0.3-1.1l-2.2-0.3"/>
		<path id="XMLID_13_" class="st0" d="M426,397.1v-3.2"/>
		<path id="XMLID_12_" class="st0" d="M423.8,397l1.8,0.3"/>
		<path id="XMLID_11_" class="st0" d="M433.6,396.5v1.1"/>
		<ellipse id="XMLID_10_" class="st0" cx="422.8" cy="395.7" rx="10.9" ry="6.3"/>
		<path id="XMLID_9_" class="st0" d="M420,397.6c1.4-0.8,3.7-0.9,5.3-0.1"/>
	</g>
	<g>
		<path id="XMLID_8_" class="st0" d="M286.6,323.3v1.4"/>
		<path id="XMLID_7_" class="st0" d="M296.3,320.8l4.4,0.7l1.2,2.5l-3.2,1.9l-4.4-0.7l-1.2-2.6L296.3,320.8v3.5l-1.6,0.9"/>
		<path id="XMLID_6_" class="st0" d="M296.3,324.4l2.2,0.3l-0.3,1.1"/>
		<path id="XMLID_5_" class="st0" d="M298.5,324.7l1.8,0.3"/>
		<path id="XMLID_4_" class="st0" d="M300.7,324.7v-3.2"/>
		<path id="XMLID_3_" class="st0" d="M305.2,327.8c-4.3,2.5-11.2,2.5-15.4,0c-4.3-2.5-4.3-6.4,0-8.9c4.3-2.5,11.2-2.5,15.4,0
			c0.9,0.5,1.6,1.1,2.1,1.7"/>
		<path id="XMLID_2_" class="st0" d="M294.7,325.3c1.4-0.8,3.7-0.9,5.3-0.1"/>
	</g>
</g>
<g id="XMLID_327_">
	<g id="XMLID_330_">
		<path id="XMLID_346_" d="M813.4,3c14,0,25.5,11.4,25.5,25.5v538.3c0,14-11.4,25.5-25.5,25.5H28.5c-14,0-25.5-11.4-25.5-25.5V28.5
			C3,14.4,14.4,3,28.5,3H813.4 M813.4,0H28.5C12.8,0,0,12.8,0,28.5v538.3c0,15.7,12.8,28.5,28.5,28.5h784.9
			c15.7,0,28.5-12.8,28.5-28.5V28.5C841.9,12.8,829.1,0,813.4,0L813.4,0z"/>
	</g>
	<g id="XMLID_329_">
		<path id="XMLID_359_" d="M1.5,83.5V28.5c0-14.9,12.1-27,27-27h55.1v55.1c0,14.9-12.1,27-27,27H1.5z"/>
		<g id="XMLID_355_">
			<path id="XMLID_356_" d="M82,3v53.6C82,70.6,70.6,82,56.6,82H3V28.5C3,14.4,14.4,3,28.5,3H82 M85,0H28.5C12.8,0,0,12.8,0,28.5V85
				h56.6C72.2,85,85,72.2,85,56.6V0L85,0z"/>
		</g>
	</g>
	<g id="XMLID_331_">
		<path id="XMLID_332_" class="st1" d="M54.3,50.1h-3.8v7.3h-6.5v-7.3H30.4v-5.8l12.5-20.6h7.5v21.2h3.8V50.1z M43.9,44.9V30.2
			l-8.5,14.6H43.9z"/>
	</g>
</g>
</svg>
