<?xml version="1.0" encoding="utf-8"?>
<!-- Generator: Adobe Illustrator 19.0.0, SVG Export Plug-In . SVG Version: 6.00 Build 0)  -->
<svg version="1.1" id="Layer_1" xmlns="http://www.w3.org/2000/svg" xmlns:xlink="http://www.w3.org/1999/xlink" x="0px" y="0px"
	 width="841.9px" height="595.3px" viewBox="0 0 841.9 595.3" style="enable-background:new 0 0 841.9 595.3;" xml:space="preserve"
	>
<style type="text/css">
	.st0{fill:none;stroke:#0B0620;stroke-width:0.5;stroke-linecap:round;stroke-linejoin:round;}
	.st1{fill:none;stroke:#000000;stroke-linecap:round;stroke-linejoin:round;stroke-dasharray:4.7,3.1,1.6,3.1;}
	.st2{stroke:#000000;stroke-width:8.800000e-02;stroke-linecap:round;stroke-linejoin:round;}
	.st3{fill:#FFFFFF;stroke:#000000;stroke-linecap:round;stroke-linejoin:round;stroke-opacity:0.98;}
	.st4{fill:#FFFFFF;}
	.st5{fill:none;stroke:#000000;stroke-width:0.5;stroke-linecap:round;stroke-linejoin:round;}
	.st6{fill:none;stroke:#000000;stroke-width:0.25;stroke-linecap:round;stroke-linejoin:round;}
</style>
<g id="XMLID_1_">
	<g>
		<path id="XMLID_567_" class="st0" d="M324.3,283.6l-93.5,54v35.9"/>
		<path id="XMLID_566_" class="st0" d="M470.4,526.5v-50.6L230.9,337.6"/>
		<path id="XMLID_565_" class="st0" d="M248.4,418.6l204.5,118.1"/>
		<path id="XMLID_564_" class="st0" d="M371.1,283.6L563.9,395"/>
		<path id="XMLID_563_" class="st0" d="M463.2,538.7L463.2,538.7"/>
		<path id="XMLID_562_" class="st0" d="M465.1,537.6l0.2-0.1"/>
		<path id="XMLID_561_" class="st0" d="M467.1,536.5l23.4-13.5l-0.7,0.4"/>
		<path id="XMLID_560_" class="st0" d="M470.4,475.9l93.5-54"/>
		<path id="XMLID_559_" class="st0" d="M493.8,513v-28.7"/>
		<path id="XMLID_558_" class="st0" d="M496.7,479.3l67.2-38.8"/>
		<path id="XMLID_557_" class="st0" d="M573.6,408.4V427"/>
		<path id="XMLID_556_" class="st0" d="M573.2,408.4L573.2,408.4"/>
		<path id="XMLID_555_" class="st0" d="M490.4,523l2.6-4.3l0.9-5.8"/>
		<path id="XMLID_554_" class="st0" d="M324.3,283.6c12.9-7.5,33.8-7.5,46.7,0c0,0,0,0,0,0"/>
		<path id="XMLID_553_" class="st0" d="M573.6,427c0,5.1-3.5,9.9-9.7,13.5"/>
		<path id="XMLID_552_" class="st0" d="M563.9,395c12.9,7.5,12.9,19.5,0,27c0,0,0,0,0,0"/>
		<ellipse id="XMLID_551_" class="st0" cx="432.4" cy="359.5" rx="13.9" ry="8.1"/>
		<path id="XMLID_550_" class="st0" d="M493.8,484.3c0-1.9,1.3-4.1,2.9-5.1c0,0,0,0,0,0"/>
		<ellipse id="XMLID_549_" class="st0" cx="430.1" cy="436.8" rx="5.2" ry="3"/>
		<path id="XMLID_548_" class="st0" d="M248.4,418.6c-4.2-2.4-8.2-6.5-11.4-11.5"/>
		<ellipse id="XMLID_547_" class="st0" cx="449.5" cy="425.6" rx="5.2" ry="3"/>
		<path id="XMLID_546_" class="st0" d="M470.4,526.5c0,11.2-7.8,15.7-17.5,10.1"/>
		<ellipse id="XMLID_545_" class="st0" cx="298.6" cy="360.9" rx="5.2" ry="3"/>
		<ellipse id="XMLID_544_" class="st0" cx="318.1" cy="349.7" rx="5.2" ry="3"/>
		<path id="XMLID_543_" class="st0" d="M243.1,377.2c2.2-2.1,6.3-0.4,9.2,3.8c1.4,2,2.3,4.3,2.6,6.4"/>
		<path id="XMLID_542_" class="st0" d="M447.6,495.3c2.2-2.1,6.3-0.4,9.2,3.8c1.4,2,2.3,4.3,2.6,6.4"/>
	</g>
	<g>
		<path id="XMLID_541_" class="st0" d="M319.4,141.9c0.4,0.6,0.4,0.6,0.7,1.2c0.3,0.8,0.3,0.8,0.5,1.7c0.1,1,0.2,1,0.3,2.1
			c0,2.6,0.1,2.6,0,5.1c-1.1,6.1-1.1,6.2-2.3,12.2"/>
		<path id="XMLID_540_" class="st0" d="M318.6,164.2c-6.1,20.6-6.1,20.6-12.2,41.3c-0.5,1.2-0.5,1.2-1,2.3c-0.7,0.9-0.7,0.9-1.5,1.8
			"/>
		<path id="XMLID_539_" class="st0" d="M319.8,193.4c-0.8,0.9-0.8,0.9-1.5,1.8c-0.5,1.2-0.5,1.2-1,2.4c-1.8,6.1-1.8,6.1-3.6,12.2
			c-0.3,1.3-0.3,1.4-0.5,2.7c0,1.4,0,1.4,0.1,2.7c0.4,1.3,0.4,1.3,0.8,2.6c0.6,1,0.6,1,1.3,2.1c0.6,0.6,0.7,0.6,1.3,1.2
			c0.2,0.1,0.2,0.1,0.4,0.2"/>
		<path id="XMLID_538_" class="st0" d="M325.5,192.8c37.3,21.5,37.3,21.5,74.5,43c0.9,0.7,0.9,0.7,1.7,1.4c0.7,1,0.7,1,1.3,2.1
			c0.4,1.2,0.4,1.3,0.8,2.6c0.1,1.4,0.1,1.4,0.1,2.7c-0.2,1.3-0.2,1.3-0.5,2.7c-1.8,6.1-1.8,6.1-3.6,12.2c-0.5,1.2-0.5,1.2-1,2.3
			c-0.7,0.9-0.7,0.9-1.5,1.8"/>
		<path id="XMLID_537_" class="st0" d="M335.5,152c-0.6,0.3-0.6,0.3-1.2,0.7c-0.6,0.6-0.7,0.6-1.2,1.2c-1.3,1.8-1.4,1.8-2.6,3.6
			c-2.4,5.4-2.3,5.5-4.6,11c-0.4,1.3-0.4,1.3-0.8,2.6c-0.3,1.3-0.3,1.3-0.5,2.7c0.1,1.4,0.1,1.4,0.1,2.7c0.4,1.3,0.4,1.3,0.8,2.5
			c0.6,1.1,0.6,1.1,1.3,2.1c0.8,0.7,0.8,0.8,1.7,1.4c4.9,2.9,5,2.9,9.9,5.7"/>
		<path id="XMLID_536_" class="st0" d="M408.8,225c0.8-0.9,0.8-0.9,1.5-1.8c0.5-1.1,0.5-1.2,1-2.3c0.4-1.3,0.4-1.3,0.8-2.6
			c1.2-6.1,1.2-6.1,2.3-12.2c0.1-2.6,0-2.6,0-5.1c-0.1-1-0.1-1-0.3-2.1c-0.2-0.9-0.2-0.9-0.5-1.7c-0.3-0.6-0.3-0.6-0.7-1.2"/>
		<path id="XMLID_535_" class="st0" d="M428.9,206c-0.6,0.3-0.6,0.3-1.2,0.7c-0.6,0.6-0.7,0.6-1.2,1.2c-1.3,1.8-1.4,1.8-2.6,3.6
			c-2.3,5.4-2.3,5.5-4.5,11"/>
		<path id="XMLID_534_" class="st0" d="M419.4,222.4c-6.1,20.6-6.1,20.6-12.2,41.2c-0.3,1.3-0.3,1.4-0.5,2.7
			c0.1,1.4,0.1,1.4,0.2,2.7c0.3,1.3,0.3,1.3,0.8,2.6c0.6,1,0.6,1,1.3,2.1c0.8,0.8,0.8,0.8,1.7,1.4c8.4,4.9,8.4,4.9,16.8,9.7"/>
		<path id="XMLID_533_" class="st0" d="M275.5,203.7v0.4V194"/>
		<path id="XMLID_532_" class="st0" d="M275.5,192.1L275.5,192.1"/>
		<path id="XMLID_531_" class="st0" d="M275.5,190.3L275.5,190.3"/>
		<path id="XMLID_530_" class="st0" d="M316.4,230.9l-35-20.3"/>
		<path id="XMLID_529_" class="st0" d="M303.8,209.7l-1.8,1l-2,0.2l-1.9-0.6l-16.8-9.7"/>
		<path id="XMLID_528_" class="st0" d="M285.5,179.4l13.8,7.9"/>
		<path id="XMLID_527_" class="st0" d="M287.2,173.6v-33.7"/>
		<path id="XMLID_526_" class="st0" d="M291.6,130.6L291.6,130.6"/>
		<path id="XMLID_525_" class="st0" d="M291.5,130.4l8.8-5.1"/>
		<path id="XMLID_524_" class="st0" d="M301.8,131.4l146.1,84.3"/>
		<path id="XMLID_523_" class="st0" d="M310.5,126.3l146.1,84.4"/>
		<path id="XMLID_522_" class="st0" d="M320.8,192.8l0.1-0.1l-1.1,0.6"/>
		<path id="XMLID_521_" class="st0" d="M313.8,216.4l13.9-8"/>
		<path id="XMLID_520_" class="st0" d="M320.9,192.8l0.8-0.4l2-0.2l1.9,0.7"/>
		<path id="XMLID_519_" class="st0" d="M397.3,263.6l-1.8,1l-2,0.2l-1.5-0.4l-0.3-0.2"/>
		<path id="XMLID_518_" class="st0" d="M320.9,146.9v0.1"/>
		<path id="XMLID_517_" class="st0" d="M336.6,151.8l-1.1,0.2"/>
		<path id="XMLID_516_" class="st0" d="M338.5,188.3l64.6,37.3l1.9,0.7l2-0.2l1.8-1"/>
		<path id="XMLID_515_" class="st0" d="M325.1,233v-10.1"/>
		<path id="XMLID_514_" class="st0" d="M327.6,176.3l-2.4,1.4"/>
		<path id="XMLID_513_" class="st0" d="M354.4,209.4v9.7l-20.4,11.8"/>
		<path id="XMLID_512_" class="st0" d="M333.9,220.8l5.8-3.3"/>
		<path id="XMLID_511_" class="st0" d="M331.7,196.3v5"/>
		<path id="XMLID_510_" class="st0" d="M335.8,208.4l8.1,4.7"/>
		<path id="XMLID_509_" class="st0" d="M335.8,176.3l75.7,43.7"/>
		<path id="XMLID_508_" class="st0" d="M345.6,207.3v-3"/>
		<path id="XMLID_507_" class="st0" d="M388.9,270.9v-3.4v2.2"/>
		<path id="XMLID_506_" class="st0" d="M388.9,268.6v-4.3v3.2"/>
		<path id="XMLID_505_" class="st0" d="M388.9,264.3v-3.6"/>
		<path id="XMLID_504_" class="st0" d="M388.9,258.5v2.7v-0.4"/>
		<path id="XMLID_503_" class="st0" d="M392.3,274.8l35,20.2"/>
		<path id="XMLID_502_" class="st0" d="M398.2,251.2l-5.8,3.4"/>
		<path id="XMLID_501_" class="st0" d="M402.3,246.8l1.1,0.6"/>
		<path id="XMLID_500_" class="st0" d="M430,205.8l-1.1,0.2"/>
		<path id="XMLID_499_" class="st0" d="M421.1,262.4l-13.9,8"/>
		<path id="XMLID_498_" class="st0" d="M430.7,263.2l-1.4-0.8"/>
		<path id="XMLID_497_" class="st0" d="M442,298.5v-10.1"/>
		<path id="XMLID_496_" class="st0" d="M446.9,272.5l13.9,8"/>
		<path id="XMLID_495_" class="st0" d="M471.2,236v50.6l-14.6,8.4"/>
		<path id="XMLID_494_" class="st0" d="M458.2,226.7l8.8-5.1"/>
		<path id="XMLID_493_" class="st0" d="M462.4,274.8v-33.7"/>
		<path id="XMLID_492_" class="st0" d="M392.3,274.8c-2.8-1.6-4.1-3.9-3.5-6.2"/>
		<path id="XMLID_491_" class="st0" d="M317.5,161.4c-2.4-1.6-4.4-5-4.6-7.9"/>
		<path id="XMLID_490_" class="st0" d="M436.7,281.3c-6.2,2.1-14.2,0.8-17.7-2.8c-3.6-3.6-1.4-8.2,4.9-10.2c1.8-0.6,3.7-0.9,5.7-1"
			/>
		<path id="XMLID_489_" class="st0" d="M456.6,295c-8.1,4.7-21.1,4.7-29.2,0"/>
		<path id="XMLID_488_" class="st0" d="M456.6,210.7c8.1,4.7,14.6,16,14.6,25.3c0,0,0,0,0,0"/>
		<path id="XMLID_487_" class="st0" d="M300.2,125.3c2.7-1.6,6.5-1.2,10.3,1"/>
		<path id="XMLID_486_" class="st0" d="M448.9,237.3c-2.4-1.6-4.4-5-4.6-7.9"/>
		<path id="XMLID_485_" class="st0" d="M316.4,171.6c-3.1,2.9-8.9,0.5-12.9-5.4c-4-5.9-4.8-13-1.7-15.9c3.1-2.9,8.9-0.5,12.9,5.4
			c2.1,3,3.4,6.5,3.6,9.6"/>
		<path id="XMLID_484_" class="st0" d="M425.8,281.8c2.8-1.4,7-1.3,9.6,0.3"/>
		<path id="XMLID_483_" class="st0" d="M333.9,230.9c-4.8,2.8-12.7,2.8-17.5,0c0,0,0,0,0,0"/>
		<path id="XMLID_482_" class="st0" d="M287.2,173.6c0,3.7-2.6,8.3-5.8,10.1c0,0,0,0,0,0"/>
		<path id="XMLID_481_" class="st0" d="M306.5,204.9c-5.8,2.5-13.9,1.7-18.2-1.6c-4.2-3.3-3-8.1,2.8-10.5c5.8-2.5,13.9-1.7,18.2,1.6
			c0.1,0.1,0.2,0.1,0.2,0.2"/>
		
			<ellipse id="XMLID_480_" transform="matrix(0.866 -0.5 0.5 0.866 -59.394 251.998)" class="st0" cx="440.5" cy="236.8" rx="7.5" ry="13"/>
		<path id="XMLID_479_" class="st0" d="M292.4,205.4c-1.6-2,0-4.4,3.6-5.3c3.5-0.9,7.7,0,9.3,2.1c0.6,0.7,0.7,1.5,0.5,2.3"/>
		<path id="XMLID_478_" class="st0" d="M462.4,274.8c0,3.7-2.6,8.3-5.8,10.1"/>
		<path id="XMLID_477_" class="st0" d="M294.3,205.9c2.6-1.3,6.5-1.3,9.1,0"/>
		<path id="XMLID_476_" class="st0" d="M345.6,207.3c0,3.7-2.6,8.3-5.8,10.1c0,0,0,0,0,0"/>
		<path id="XMLID_475_" class="st0" d="M287.2,139.9c0-9.3,6.5-13.1,14.6-8.4"/>
		<path id="XMLID_474_" class="st0" d="M281.3,210.7c-3.1-1.8-5.1-4.1-5.8-6.6"/>
		<path id="XMLID_473_" class="st0" d="M449.4,239.1c-1,2.4-3.9,2.2-6.4-0.4c-2.6-2.6-3.8-6.7-2.8-9.1c0.5-1.2,1.5-1.8,2.8-1.6"/>
		<path id="XMLID_472_" class="st0" d="M333.9,220.8c-4.6,2.6-11.9,2.8-16.8,0.4"/>
		<path id="XMLID_471_" class="st0" d="M456.6,284.9c-8.1,4.7-21.1,4.7-29.2,0"/>
		<path id="XMLID_470_" class="st0" d="M318.2,162.4c-0.5,2.8-3.1,3.3-5.8,1.2c-2.7-2.2-4.4-6.2-3.9-9c0.3-1.7,1.5-2.7,3.1-2.5"/>
		<path id="XMLID_469_" class="st0" d="M403.8,242.9c-0.7,3.3-3,6.7-5.6,8.3"/>
		<path id="XMLID_468_" class="st0" d="M447.8,215.8c8.1,4.7,14.6,16,14.6,25.3c0,0,0,0,0,0"/>
		<path id="XMLID_467_" class="st0" d="M391.7,264.3c-4.2-2.8-3.9-7.1,0.6-9.7"/>
		<path id="XMLID_466_" class="st0" d="M281.3,200.6c-8.1-4.7-8.1-12.2,0-16.9"/>
		<path id="XMLID_465_" class="st0" d="M423.9,281.3c-1.6-2,0-4.4,3.6-5.3c3.5-0.9,7.7,0,9.3,2.1c0.8,1,0.8,2.2,0,3.3"/>
	</g>
	<g>
		<path id="XMLID_464_" class="st0" d="M238.8,388.9c6.2,0.5,6.2,0.5,12.4,0.9c0.2,0,0.2,0,0.4,0.1c0.2,0.1,0.2,0.1,0.4,0.1"/>
		<path id="XMLID_463_" class="st0" d="M220.8,372.4c1.8-1,1.8-1,3.7-2.1c0.1,0,0.1,0,0.2-0.1c0.1,0,0.1,0,0.2,0c0.1,0,0.1,0,0.2,0
			c0.1,0,0.1,0,0.1,0.1"/>
		<path id="XMLID_462_" class="st0" d="M228.2,390.1c0,0.9,0,0.9,0,1.8c0.1,0.5,0.1,0.5,0.3,1c0.1,0.5,0.1,0.5,0.3,1
			c0.5,1,0.5,1,1,2c0.7,0.9,0.7,0.9,1.3,1.8c0.4,0.3,0.4,0.3,0.8,0.7c0.4,0.3,0.4,0.4,0.8,0.7c0.8,0.4,0.8,0.4,1.6,0.8"/>
		<path id="XMLID_461_" class="st0" d="M255.2,388.2c0-0.1,0-0.1,0-0.3c-0.1-0.2-0.1-0.2-0.1-0.3c0-0.1,0-0.1-0.1-0.1
			c-0.2-0.1-0.2-0.1-0.3-0.2"/>
		<path id="XMLID_460_" class="st0" d="M242.7,410.4c5,0,5,0,9.9,0c0.3,0,0.3,0,0.5,0c0.3-0.1,0.3-0.1,0.5-0.1
			c0.2-0.1,0.2-0.1,0.4-0.2c0.1-0.1,0.1-0.1,0.1-0.1c0.1-0.1,0.1-0.1,0.1-0.1c0-0.1,0-0.1,0.1-0.2c0-0.1,0-0.1,0-0.1"/>
		<path id="XMLID_459_" class="st0" d="M254.4,409.4c0-4.3,0-4.3,0-8.6c-0.3-3-0.3-3-0.7-5.9c-0.6-2.2-0.6-2.2-1.2-4.3
			c-0.1-0.1-0.1-0.1-0.1-0.3c-0.1-0.1-0.1-0.1-0.1-0.1c-0.1-0.1-0.1-0.1-0.2-0.1"/>
		<path id="XMLID_458_" class="st0" d="M256.7,407.5c0.2-0.3,0.2-0.3,0.3-0.5c0.1-0.2,0.1-0.2,0.2-0.5c0.1-0.3,0.1-0.3,0.1-0.5
			c0-0.4,0-1.2,0-0.8"/>
		<path id="XMLID_457_" class="st0" d="M257.4,402.5c0,1.2,0,0.4,0,0.8c-0.1,0.3-0.1,0.3-0.1,0.5c-0.1,0.3-0.1,0.3-0.2,0.5
			c-0.1,0.3-0.1,0.3-0.3,0.5"/>
		<path id="XMLID_456_" class="st0" d="M257.4,399.8c0,1.2,0,0.4,0,0.8c-0.1,0.3-0.1,0.3-0.1,0.5c-0.1,0.2-0.1,0.2-0.2,0.5
			c-0.1,0.3-0.1,0.3-0.3,0.5"/>
		<path id="XMLID_455_" class="st0" d="M257.3,397.1c0,0.3,0,0.3,0.1,0.5c0,0.3,0,0.3-0.1,0.6c-0.1,0.3-0.1,0.3-0.3,0.7
			c-0.1,0.3-0.1,0.3-0.3,0.5"/>
		<path id="XMLID_454_" class="st0" d="M256.6,396.6c0.1-0.3,0.1-0.3,0.2-0.5c0.1-0.4,0.1-0.4,0.2-0.7c0-0.3,0-0.3,0-0.7
			c-0.1-0.3-0.1-0.3-0.1-0.5"/>
		<path id="XMLID_453_" class="st0" d="M256.1,393.7c0.1-0.3,0.1-0.3,0.2-0.6c0.1-0.4,0.1-0.4,0.2-0.8c0-0.3,0-0.3-0.1-0.7
			c-0.1-0.3-0.1-0.3-0.1-0.6"/>
		<path id="XMLID_452_" class="st0" d="M255.3,388.2c0.1,0.4,0.1,0.4,0.2,0.8c0,0.4,0,0.4-0.1,0.9c-0.1,0.3-0.1,0.3-0.2,0.6"/>
		<path id="XMLID_451_" class="st0" d="M220.8,388.1v-1.6"/>
		<path id="XMLID_450_" class="st0" d="M220.8,387.4v0.4v-9.3v-5.7v3.4"/>
		<path id="XMLID_449_" class="st0" d="M220.8,378.5l18.1,10.4"/>
		<path id="XMLID_448_" class="st0" d="M252,390.1l3.2-1.8v0.2l0,0.2"/>
		<path id="XMLID_447_" class="st0" d="M220.8,375.1v1.1"/>
		<path id="XMLID_446_" class="st0" d="M220.8,372.6v0.1v-0.4v0.1"/>
		<path id="XMLID_445_" class="st0" d="M220.8,372.8L220.8,372.8v-0.3v0.1"/>
		<path id="XMLID_444_" class="st0" d="M225.2,370.2l8.1,4.7l2.7-1.6"/>
		<path id="XMLID_443_" class="st0" d="M242.7,400.8v9.6l-18.1-10.4"/>
		<path id="XMLID_442_" class="st0" d="M232.4,388l-1.4-0.4l-1.3,0.2l-1,0.9l-0.5,1.4"/>
		<path id="XMLID_441_" class="st0" d="M234.1,399.9l1.4,0.1l1.2-0.6l0.7-1.2l0.2-1.3"/>
		<path id="XMLID_440_" class="st0" d="M233.6,375.1L233.6,375.1l-0.3-0.2"/>
		<path id="XMLID_439_" class="st0" d="M235.8,373.5l-2.6,1.5"/>
		<path id="XMLID_438_" class="st0" d="M236.6,373.4l6.6,3.8"/>
		<path id="XMLID_437_" class="st0" d="M254.7,387.3l-12.8-7.4"/>
		<path id="XMLID_436_" class="st0" d="M249.8,384l-0.3,0.2"/>
		<path id="XMLID_435_" class="st0" d="M253.8,410.1l0.2-0.1l-0.4,0.3"/>
		<path id="XMLID_434_" class="st0" d="M254.1,410l3.3-1.9l-0.1-0.1"/>
		<path id="XMLID_433_" class="st0" d="M255.3,388.2l-0.2-0.5"/>
		<path id="XMLID_432_" class="st0" d="M255.1,409.3l2.2-1.3v-0.2l-0.7-0.4"/>
		<path id="XMLID_431_" class="st0" d="M257.4,405.2l-0.1-0.1L257.4,405.2"/>
		<path id="XMLID_430_" class="st0" d="M256.7,407.5l0.7,0.4"/>
		<path id="XMLID_429_" class="st0" d="M257.1,407.8l0.1,0.1l-0.4-0.2"/>
		<path id="XMLID_428_" class="st0" d="M257.1,407.7l-0.1-0.1"/>
		<path id="XMLID_427_" class="st0" d="M257,407.7l0.2,0.1"/>
		<path id="XMLID_426_" class="st0" d="M256.8,407.6l0.5,0.3"/>
		<path id="XMLID_425_" class="st0" d="M257,402.3l0.3,0.2"/>
		<path id="XMLID_424_" class="st0" d="M256.7,404.8l0.5,0.3L257,405"/>
		<path id="XMLID_423_" class="st0" d="M257.2,405.1L257,405"/>
		<path id="XMLID_422_" class="st0" d="M257.1,405.1L257.1,405.1"/>
		<path id="XMLID_421_" class="st0" d="M256.9,404.9l0.1,0.1"/>
		<path id="XMLID_420_" class="st0" d="M257,399.6l0.3,0.2"/>
		<path id="XMLID_419_" class="st0" d="M256.7,402.1l0.5,0.3"/>
		<path id="XMLID_418_" class="st0" d="M257.1,402.4L257.1,402.4"/>
		<path id="XMLID_417_" class="st0" d="M257.3,402.4l-0.2-0.1"/>
		<path id="XMLID_416_" class="st0" d="M257,402.3l-0.2-0.1"/>
		<path id="XMLID_415_" class="st0" d="M257.1,396.9L257.1,396.9l-0.5-0.3l0.7,0.5"/>
		<path id="XMLID_414_" class="st0" d="M256.7,399.4l0.4,0.2"/>
		<path id="XMLID_413_" class="st0" d="M257.1,399.7L257.1,399.7"/>
		<path id="XMLID_412_" class="st0" d="M257.4,399.8L257.4,399.8"/>
		<path id="XMLID_411_" class="st0" d="M256.9,396.8l-0.3-0.2"/>
		<path id="XMLID_410_" class="st0" d="M256.9,394.2L256.9,394.2L256.9,394.2"/>
		<path id="XMLID_409_" class="st0" d="M257.1,396.9l0.2,0.1"/>
		<path id="XMLID_408_" class="st0" d="M256.9,394.1L256.9,394.1l-0.8-0.5"/>
		<path id="XMLID_407_" class="st0" d="M257.3,397.1l-0.7-0.5l0.3,0.2"/>
		<path id="XMLID_406_" class="st0" d="M256.6,396.6l0.1,0.1"/>
		<path id="XMLID_405_" class="st0" d="M256.9,396.8l0.3,0.2l-0.2-0.1"/>
		<path id="XMLID_404_" class="st0" d="M256.2,391L256.2,391l-0.1-0.1L256.2,391"/>
		<path id="XMLID_403_" class="st0" d="M256.2,391L256.2,391"/>
		<path id="XMLID_402_" class="st0" d="M256.8,394.1l-0.7-0.4L256.8,394.1l-0.7-0.4L256.8,394.1"/>
		<path id="XMLID_401_" class="st0" d="M256.4,393.8l-0.3-0.2l0.1,0.1"/>
		<path id="XMLID_400_" class="st0" d="M255.1,388l0.1,0.2"/>
		<path id="XMLID_399_" class="st0" d="M255.2,390.4l0.7,0.4"/>
		<path id="XMLID_398_" class="st0" d="M255.9,390.9l-0.7-0.4l0.9,0.5"/>
		<path id="XMLID_397_" class="st0" d="M255.6,390.7L255.6,390.7"/>
		<path id="XMLID_396_" class="st0" d="M236.6,373.4l-0.3-0.1H236l-0.2,0.1"/>
		
			<ellipse id="XMLID_395_" transform="matrix(0.866 -0.5 0.5 0.866 -166.1777 168.7166)" class="st0" cx="231.7" cy="394.5" rx="4.9" ry="8.5"/>
		<path id="XMLID_394_" class="st0" d="M224.6,400c-2.4-3.8-3.8-8.1-3.8-11.8"/>
		<path id="XMLID_393_" class="st0" d="M238.9,388.9c2.4,3.8,3.8,8.1,3.8,11.8"/>
		<path id="XMLID_392_" class="st0" d="M243.6,377.5c2.4,1.4,4.8,3.9,6.4,7"/>
	</g>
	<g>
		<path id="XMLID_391_" class="st0" d="M450.7,495.6c1,0.3,1,0.3,1.9,0.7c1,0.7,1,0.7,1.9,1.4c0.9,1,0.9,1,1.7,2
			c0.6,1,0.6,1,1.2,2.1"/>
		<path id="XMLID_390_" class="st0" d="M451.4,496c1,0.5,1,0.5,1.9,1.1c0.9,0.9,0.9,0.9,1.8,1.8c0.8,1.1,0.8,1.1,1.5,2.2
			c0.6,1.2,0.5,1.2,1,2.5c0.1,0.5,0.1,0.5,0.2,1"/>
		<path id="XMLID_389_" class="st0" d="M454.3,500.9c-0.8-1-0.8-1-1.7-2c-0.9-0.7-0.9-0.7-1.9-1.4c-0.2-0.1-0.2-0.1-0.5-0.2"/>
		<path id="XMLID_388_" class="st0" d="M435.3,507.6L435.3,507.6"/>
		<path id="XMLID_387_" class="st0" d="M440.4,515.9l0.1,0.1"/>
		<path id="XMLID_386_" class="st0" d="M449.5,495.6l0.5-0.5l1.4-0.5"/>
		<path id="XMLID_385_" class="st0" d="M448.6,495.9l0.5-0.2l1.7-0.1"/>
		<path id="XMLID_384_" class="st0" d="M448.7,496l0.8-0.3l1.8,0.3"/>
		<path id="XMLID_383_" class="st0" d="M455.6,503.3L455.6,503.3l-0.8-1.5l-0.5-0.9"/>
		<path id="XMLID_382_" class="st0" d="M455,502.9l-0.3-0.7l-1.5-2.2l-1.8-1.8l-0.1-0.1"/>
		<path id="XMLID_381_" class="st0" d="M451,494.5l-1,0.5"/>
		<path id="XMLID_380_" class="st0" d="M455.4,503l-1-1.9"/>
		<path id="XMLID_379_" class="st0" d="M454.4,501.1l-0.1-0.2"/>
		<path id="XMLID_378_" class="st0" d="M458.3,504.9v-0.2l-0.8-2.5l-0.1-0.3"/>
		<path id="XMLID_377_" class="st0" d="M455.6,503.3l-0.1-0.3"/>
		<path id="XMLID_376_" class="st0" d="M457.5,502.2l-0.2-0.4l-1-1.8"/>
		<path id="XMLID_375_" class="st0" d="M456.3,500l-0.1-0.2"/>
		<path id="XMLID_374_" class="st0" d="M441.9,516.4c-2.4-0.2-5.2-3.1-6.2-6.4c-0.5-1.7-0.5-3.2,0-4.3"/>
	</g>
	<g>
		<path id="XMLID_373_" class="st0" d="M443.3,507c6.2,0.5,6.2,0.5,12.4,0.9c0.2,0,0.2,0,0.4,0.1c0.2,0.1,0.2,0.1,0.4,0.1
			c0.1,0.1,0.1,0.1,0.2,0.1c0.1,0.1,0.1,0.1,0.1,0.1c0.1,0.1,0.1,0.1,0.1,0.3c0.6,2.1,0.7,2.1,1.2,4.3c0.4,2.9,0.4,2.9,0.7,5.9"/>
		<path id="XMLID_372_" class="st0" d="M458.9,518.8c0,4.3,0,4.3,0,8.6c0,0.1,0,0.1,0,0.1c0,0.1,0,0.1-0.1,0.2
			c-0.1,0.1-0.1,0.1-0.1,0.1c-0.1,0.1-0.1,0.1-0.1,0.1c-0.2,0.1-0.2,0.1-0.4,0.2c-0.2,0.1-0.2,0.1-0.5,0.1c-0.3,0-0.3,0-0.5,0"/>
		<path id="XMLID_371_" class="st0" d="M437.8,493c-4.1-2.4-4.1-2.4-8.1-4.7c-0.1,0-0.1,0-0.1-0.1c-0.1,0-0.1,0-0.2,0
			c-0.1,0-0.1,0-0.2,0c-0.1,0-0.1,0-0.2,0.1c-1.8,1.1-1.8,1.1-3.7,2.1"/>
		<path id="XMLID_370_" class="st0" d="M432.7,508.2c0,0.9,0,0.9,0,1.8c0.1,0.5,0.1,0.5,0.3,1c0.1,0.5,0.1,0.5,0.3,1
			c0.5,1,0.5,1,1,2c0.7,0.9,0.7,0.9,1.3,1.8c0.8,0.7,0.8,0.7,1.5,1.3c0.8,0.4,0.8,0.4,1.6,0.8"/>
		<path id="XMLID_369_" class="st0" d="M459.6,506.3c0-0.1,0-0.1,0-0.3c-0.1-0.1-0.1-0.1-0.1-0.3c0-0.1,0-0.1-0.1-0.1
			c-0.1-0.1-0.1-0.1-0.3-0.2"/>
		<path id="XMLID_368_" class="st0" d="M460.7,509.1c0.1,0.3,0.1,0.3,0.1,0.6c0,0.3,0,0.3,0.1,0.7c-0.1,0.4-0.1,0.4-0.2,0.8
			c-0.1,0.3-0.1,0.3-0.2,0.6"/>
		<path id="XMLID_367_" class="st0" d="M461.4,512.2c0.1,0.3,0.1,0.3,0.1,0.5c0,0.3,0,0.3,0,0.6c-0.1,0.4-0.1,0.4-0.2,0.8
			c-0.1,0.3-0.1,0.3-0.3,0.5"/>
		<path id="XMLID_366_" class="st0" d="M461.8,515.1c0,0.3,0,0.3,0,0.6c0,0.3,0,0.3-0.1,0.6c-0.1,0.4-0.1,0.4-0.3,0.7
			c-0.1,0.3-0.1,0.3-0.3,0.5"/>
		<path id="XMLID_365_" class="st0" d="M459.8,506.2c0.1,0.4,0.1,0.4,0.2,0.8c0,0.4-0.1,0.4-0.1,0.9c-0.1,0.3-0.1,0.3-0.2,0.6"/>
		<path id="XMLID_364_" class="st0" d="M461.2,525.6c0.1-0.3,0.1-0.3,0.3-0.5c0.1-0.2,0.1-0.2,0.2-0.5c0.1-0.3,0.1-0.3,0.1-0.5
			c0-0.4,0-0.4,0-0.8"/>
		<path id="XMLID_363_" class="st0" d="M461.2,522.9c0.1-0.3,0.1-0.3,0.3-0.5c0.1-0.3,0.1-0.3,0.2-0.5c0.1-0.3,0.1-0.3,0.1-0.5
			c0-0.4,0-0.4,0-0.8"/>
		<path id="XMLID_362_" class="st0" d="M461.9,517.9c0,0.4,0,0.4,0,0.8c-0.1,0.3-0.1,0.3-0.1,0.5c-0.1,0.3-0.1,0.3-0.2,0.5
			c-0.2,0.3-0.2,0.3-0.3,0.5"/>
		<path id="XMLID_361_" class="st0" d="M425.3,506.2v-10.7v1.1"/>
		<path id="XMLID_360_" class="st0" d="M425.3,494v-1.7v3.1v-5v0.1"/>
		<path id="XMLID_359_" class="st0" d="M425.3,496.6l18.1,10.4"/>
		<path id="XMLID_358_" class="st0" d="M457.1,528.4h-9.9v-9.6"/>
		<path id="XMLID_357_" class="st0" d="M425.3,494v-3.4"/>
		<path id="XMLID_356_" class="st0" d="M425.3,490.6v-0.1V490.6"/>
		<path id="XMLID_355_" class="st0" d="M429.1,518l18.1,10.4"/>
		<path id="XMLID_354_" class="st0" d="M436.9,506l-1.4-0.4l-1.3,0.2l-1,0.9l-0.5,1.4"/>
		<path id="XMLID_353_" class="st0" d="M438.6,517.9l1.4,0.1l1.2-0.6l0.7-1.2l0.2-1.3"/>
		<path id="XMLID_352_" class="st0" d="M437.8,493l0.9-0.5L437.8,493"/>
		<path id="XMLID_351_" class="st0" d="M440.5,491.4l-1.8,1l1.6-0.9"/>
		<path id="XMLID_350_" class="st0" d="M441,491.5l7,4.1"/>
		<path id="XMLID_349_" class="st0" d="M456.5,508.1l3.2-1.8"/>
		<path id="XMLID_348_" class="st0" d="M459.2,505.3l-12.8-7.4"/>
		<path id="XMLID_347_" class="st0" d="M454.3,502.1l-0.3,0.2"/>
		<path id="XMLID_346_" class="st0" d="M458.1,528.3l2-1.2l-1.6,0.9"/>
		<path id="XMLID_345_" class="st0" d="M461.7,526.1l0.1,0.1v-0.2v0.2l-1.7,1"/>
		<path id="XMLID_344_" class="st0" d="M460.7,509.1L460.7,509.1"/>
		<path id="XMLID_343_" class="st0" d="M460.5,511.7L460.5,511.7"/>
		<path id="XMLID_342_" class="st0" d="M460.5,511.7l0.9,0.5"/>
		<path id="XMLID_341_" class="st0" d="M461,514.7l0.8,0.4"/>
		<path id="XMLID_340_" class="st0" d="M461.2,517.5l0.3,0.2l-0.1-0.1"/>
		<path id="XMLID_339_" class="st0" d="M461.3,512.1l-0.4-0.2L461.3,512.1L461.3,512.1l-0.4-0.2L461.3,512.1"/>
		<path id="XMLID_338_" class="st0" d="M460.9,511.9L460.9,511.9"/>
		<path id="XMLID_337_" class="st0" d="M460.4,508.9l-0.8-0.4l1,0.6L460.4,508.9"/>
		<path id="XMLID_336_" class="st0" d="M459.6,506l0.1,0.3"/>
		<path id="XMLID_335_" class="st0" d="M459.7,508.5l0.7,0.4"/>
		<path id="XMLID_334_" class="st0" d="M460.2,508.8l-0.2-0.1"/>
		<path id="XMLID_333_" class="st0" d="M460.6,509L460.6,509"/>
		<path id="XMLID_332_" class="st0" d="M460.7,509.1L460.7,509.1"/>
		<path id="XMLID_331_" class="st0" d="M460.7,509.1L460.7,509.1"/>
		<path id="XMLID_330_" class="st0" d="M459.6,506.3l0,0.2l-0.1,0.2"/>
		<path id="XMLID_329_" class="st0" d="M459.5,505.7l0.2,0.5"/>
		<path id="XMLID_328_" class="st0" d="M461.6,525.8l-0.4-0.3"/>
		<path id="XMLID_327_" class="st0" d="M461.9,523.3l-0.7-0.4"/>
		<path id="XMLID_326_" class="st0" d="M461.9,520.6L461.9,520.6"/>
		<path id="XMLID_325_" class="st0" d="M461.6,525.8l0.1,0.1l-0.3-0.2"/>
		<path id="XMLID_324_" class="st0" d="M461.4,525.7l0.3,0.2"/>
		<path id="XMLID_323_" class="st0" d="M461.4,525.7l0.2,0.1"/>
		<path id="XMLID_322_" class="st0" d="M461.9,525.9l-0.7-0.4"/>
		<path id="XMLID_321_" class="st0" d="M461.3,525.6l0.5,0.3"/>
		<path id="XMLID_320_" class="st0" d="M461.9,525.9l-0.5-0.3"/>
		<path id="XMLID_319_" class="st0" d="M461.9,523.3L461.9,523.3L461.9,523.3l-0.3-0.2"/>
		<path id="XMLID_318_" class="st0" d="M461.6,523.1l-0.1-0.1"/>
		<path id="XMLID_317_" class="st0" d="M461.5,523.1l-0.2-0.1"/>
		<path id="XMLID_316_" class="st0" d="M461.8,523.2l-0.3-0.1"/>
		<path id="XMLID_315_" class="st0" d="M461.6,517.7l-0.1-0.1l0.3,0.2v0"/>
		<path id="XMLID_314_" class="st0" d="M461.8,517.8L461.8,517.8"/>
		<path id="XMLID_313_" class="st0" d="M461.2,520.2l0.3,0.2l-0.1-0.1"/>
		<path id="XMLID_312_" class="st0" d="M461.6,520.4L461.6,520.4l-0.1-0.1l0.3,0.2l-0.1-0.1"/>
		<path id="XMLID_311_" class="st0" d="M461.7,520.5L461.7,520.5"/>
		<path id="XMLID_310_" class="st0" d="M461.5,517.7l0.1,0.1"/>
		<path id="XMLID_309_" class="st0" d="M461.3,520.2l0.2,0.1"/>
		<path id="XMLID_308_" class="st0" d="M461.8,515.1l-0.3-0.1"/>
		<path id="XMLID_307_" class="st0" d="M461.7,515.1l-0.6-0.4L461.7,515.1"/>
		<path id="XMLID_306_" class="st0" d="M461.8,515.1l-0.8-0.4l0.2,0.1"/>
		<path id="XMLID_305_" class="st0" d="M461.3,514.9l-0.3-0.2l0.1,0"/>
		<path id="XMLID_304_" class="st0" d="M461.5,515l0.2,0.1"/>
		<path id="XMLID_303_" class="st0" d="M461.5,515l0.1,0.1"/>
		<path id="XMLID_302_" class="st0" d="M461.4,512.2L461.4,512.2"/>
		<path id="XMLID_301_" class="st0" d="M461.3,512.1L461.3,512.1"/>
		<path id="XMLID_300_" class="st0" d="M440.5,491.4h0.3l0.3,0.1"/>
		<path id="XMLID_299_" class="st0" d="M440.5,491.4l-0.2,0.1"/>
		<path id="XMLID_298_" class="st0" d="M448.1,495.6c2.5,1.4,4.8,4,6.5,7"/>
		<path id="XMLID_297_" class="st0" d="M429.1,518c-2.4-3.8-3.8-8.1-3.8-11.8"/>
		<path id="XMLID_296_" class="st0" d="M443.3,507c2.4,3.8,3.8,8.1,3.8,11.8"/>
		
			<ellipse id="XMLID_295_" transform="matrix(0.866 -0.5 0.5 0.866 -197.8116 286.7778)" class="st0" cx="436.2" cy="512.5" rx="4.9" ry="8.5"/>
	</g>
	<g>
		<path id="XMLID_294_" class="st0" d="M253.8,386.6c-0.4-1.2-0.4-1.2-0.8-2.5c-0.7-1.2-0.7-1.2-1.3-2.4c-0.8-1-0.9-1-1.7-2
			c-0.9-0.8-0.9-0.8-1.9-1.5c-0.9-0.4-0.9-0.4-1.9-0.7"/>
		<path id="XMLID_293_" class="st0" d="M253.2,385.5c-0.5-1.2-0.5-1.2-1-2.5c-0.7-1.1-0.7-1.1-1.5-2.2c-0.9-0.9-0.9-0.9-1.8-1.8
			c-1-0.6-1-0.6-1.9-1.1"/>
		<path id="XMLID_292_" class="st0" d="M250.8,384.6c-0.5-0.9-0.5-0.9-1-1.8c-0.8-1-0.8-1-1.7-2c-0.9-0.8-0.9-0.8-1.9-1.5
			c-0.2-0.1-0.2-0.1-0.5-0.2"/>
		<path id="XMLID_291_" class="st0" d="M230.8,389.5L230.8,389.5"/>
		<path id="XMLID_290_" class="st0" d="M235.9,397.9l0.1,0.1"/>
		<path id="XMLID_289_" class="st0" d="M246.8,376.6l-1.4,0.5l-0.5,0.5"/>
		<path id="XMLID_288_" class="st0" d="M253.8,386.8v-0.2"/>
		<path id="XMLID_287_" class="st0" d="M246.2,377.5l-1.7,0.1l-0.5,0.2"/>
		<path id="XMLID_286_" class="st0" d="M253.4,386.5l-0.2-1"/>
		<path id="XMLID_285_" class="st0" d="M246.9,377.9l-1.8-0.3l-0.9,0.3"/>
		<path id="XMLID_284_" class="st0" d="M245.5,377l1-0.5"/>
		<path id="XMLID_283_" class="st0" d="M250.5,384.9l-0.3-0.7l-1.5-2.2l-1.8-1.8l-0.1-0.1"/>
		<path id="XMLID_282_" class="st0" d="M251,384.9L251,384.9l0.1,0.3l-0.3-0.6"/>
		<path id="XMLID_281_" class="st0" d="M251.1,385.2L251.1,385.2"/>
		<path id="XMLID_280_" class="st0" d="M249.9,383l1,1.9"/>
		<path id="XMLID_279_" class="st0" d="M251.8,381.9L251.8,381.9l-0.1-0.2"/>
		<path id="XMLID_278_" class="st0" d="M251.8,381.9l1,1.9"/>
		<path id="XMLID_277_" class="st0" d="M249.9,383l-0.1-0.2"/>
		<path id="XMLID_276_" class="st0" d="M252.9,383.8l0.2,0.3"/>
		<path id="XMLID_275_" class="st0" d="M237.4,398.3c-2.4-0.2-5.2-3.1-6.2-6.4c-0.5-1.7-0.5-3.2,0-4.3"/>
	</g>
	<g>
		<path id="XMLID_274_" class="st0" d="M435.6,166.7c-0.6,0.5-0.7,0.5-1.3,0.9c-0.7,0.3-0.7,0.2-1.3,0.5c-0.2,0.1-0.2,0.1-0.5,0.1
			c-1,0.1-1,0.1-2,0.3c-1-0.1-1-0.1-2-0.1c-0.9-0.3-0.9-0.3-1.8-0.5c-0.7-0.4-0.7-0.4-1.4-0.9"/>
		<path id="XMLID_273_" class="st0" d="M424.7,165.1c0.6,0.5,0.6,0.5,1.2,1c0.6,0.3,0.6,0.3,1.2,0.5c0.2,0.1,0.2,0.1,0.4,0.2
			c1,0.2,1,0.2,2,0.3c0.8,0,0.8,0,1.5-0.1"/>
		<path id="XMLID_272_" class="st0" d="M424.4,162.7c0.4,0.5,0.4,0.5,0.9,1c0.3,0.2,0.3,0.2,0.7,0.5c0.4,0.2,0.4,0.2,0.8,0.4
			c0.9,0.3,0.9,0.3,1.8,0.5c1,0.1,1,0.1,2,0.1c1-0.1,1-0.1,2-0.3c0.9-0.3,0.9-0.3,1.8-0.6c0.7-0.4,0.7-0.4,1.3-0.9"/>
		<path id="XMLID_271_" class="st0" d="M429.1,165.4c-0.7-0.1-0.7-0.1-1.5-0.2c-0.8-0.3-0.8-0.3-1.6-0.7c-0.6-0.5-0.6-0.5-1.2-0.9"
			/>
		<path id="XMLID_270_" class="st0" d="M435.6,165.1c-0.6,0.5-0.7,0.5-1.3,0.9c-0.9,0.3-0.9,0.3-1.8,0.6c-1,0.1-1,0.1-2,0.3
			c-1-0.1-1-0.1-2-0.1c-0.9-0.3-0.9-0.3-1.8-0.5c-0.4-0.2-0.4-0.2-0.8-0.4c-0.3-0.2-0.3-0.2-0.7-0.5c-0.5-0.5-0.5-0.5-0.9-1"/>
		<path id="XMLID_269_" class="st0" d="M435.6,160.4c-0.6,0.5-0.7,0.5-1.3,0.9c-0.9,0.3-0.9,0.3-1.8,0.6c-1,0.1-1,0.1-2,0.2
			c-1-0.1-1-0.1-2-0.1c-0.9-0.2-0.9-0.3-1.8-0.5c-0.4-0.2-0.4-0.2-0.8-0.4c-0.3-0.2-0.3-0.2-0.7-0.5c-0.5-0.5-0.5-0.5-0.9-1.1"/>
		<path id="XMLID_268_" class="st0" d="M424.7,160.4c0.6,0.5,0.6,0.5,1.2,1c0.8,0.4,0.8,0.4,1.6,0.7c1,0.2,1,0.2,2,0.3
			c0.8,0,0.8,0,1.5,0"/>
		<path id="XMLID_267_" class="st0" d="M435.6,162c-0.6,0.5-0.7,0.5-1.3,0.9c-0.9,0.3-0.9,0.3-1.8,0.6c-1,0.1-1,0.1-2,0.3
			c-1-0.1-1-0.1-2-0.2c-0.9-0.2-0.9-0.2-1.8-0.5c-0.4-0.2-0.4-0.2-0.8-0.4c-0.3-0.2-0.3-0.2-0.7-0.5c-0.5-0.5-0.5-0.5-0.9-1.1"/>
		<path id="XMLID_266_" class="st0" d="M429.1,163.8c-0.7-0.1-0.7-0.1-1.5-0.3c-0.8-0.3-0.8-0.3-1.6-0.7c-0.6-0.5-0.6-0.5-1.2-1"/>
		<path id="XMLID_265_" class="st0" d="M429.1,160.7c-0.7-0.1-0.7-0.1-1.5-0.3c-0.8-0.3-0.8-0.3-1.6-0.7c-0.6-0.5-0.6-0.5-1.2-1"/>
		<path id="XMLID_264_" class="st0" d="M424.4,158c0.4,0.5,0.4,0.5,0.9,1c0.3,0.3,0.3,0.3,0.7,0.5c0.4,0.2,0.4,0.2,0.8,0.4
			c0.9,0.3,0.9,0.3,1.8,0.5c1,0.1,1,0.1,2,0.1c1-0.1,1-0.1,2-0.2c0.9-0.3,0.9-0.3,1.8-0.6c0.7-0.4,0.7-0.4,1.3-0.9"/>
		<path id="XMLID_263_" class="st0" d="M429.1,157.6c-0.7-0.1-0.7-0.1-1.5-0.3c-0.8-0.3-0.8-0.3-1.6-0.7c-0.6-0.5-0.6-0.5-1.2-0.9"
			/>
		<path id="XMLID_262_" class="st0" d="M424.4,154.9c0.4,0.5,0.4,0.5,0.9,1c0.3,0.2,0.3,0.2,0.7,0.5c0.4,0.2,0.4,0.2,0.8,0.4
			c0.9,0.3,0.9,0.3,1.8,0.5c1,0.1,1,0.1,2,0.1c1-0.1,1-0.1,2-0.3c0.9-0.3,0.9-0.3,1.8-0.6c0.7-0.4,0.7-0.4,1.3-0.9"/>
		<path id="XMLID_261_" class="st0" d="M435.6,157.3c-0.6,0.5-0.7,0.5-1.3,0.9c-0.9,0.3-0.9,0.3-1.8,0.6c-1,0.1-1,0.1-2,0.3
			c-1-0.1-1-0.1-2-0.1c-0.9-0.3-0.9-0.3-1.8-0.5c-0.4-0.2-0.4-0.2-0.8-0.4c-0.3-0.2-0.3-0.2-0.7-0.5c-0.5-0.5-0.5-0.5-0.9-1"/>
		<path id="XMLID_260_" class="st0" d="M431.1,159.2c-0.8,0-0.8,0-1.5,0.1c-1-0.2-1-0.2-2-0.3c-0.8-0.3-0.8-0.3-1.6-0.7
			c-0.6-0.5-0.6-0.5-1.2-1"/>
		<path id="XMLID_259_" class="st0" d="M424.4,151.8c0.4,0.5,0.4,0.5,0.9,1.1c0.3,0.2,0.3,0.2,0.7,0.4c0.4,0.2,0.4,0.2,0.8,0.4
			c0.9,0.3,0.9,0.3,1.8,0.5c1,0.1,1,0.1,2,0.1c1-0.1,1-0.1,2-0.2c0.9-0.3,0.9-0.3,1.8-0.6c0.7-0.4,0.7-0.4,1.3-0.9"/>
		<path id="XMLID_258_" class="st0" d="M435,153.3c-0.8,0.4-0.8,0.4-1.6,0.8c-0.9,0.2-0.9,0.2-1.9,0.4c-1,0.1-1,0.1-2,0.1
			c-1-0.1-1-0.1-2-0.3c-0.8-0.3-0.8-0.3-1.6-0.7"/>
		<path id="XMLID_257_" class="st0" d="M429.5,156.1c1,0,1,0,2-0.1c1-0.2,1-0.2,1.9-0.4c0.8-0.3,0.8-0.4,1.6-0.8"/>
		<path id="XMLID_256_" class="st0" d="M435.6,154.2c-0.6,0.5-0.7,0.5-1.3,0.9c-0.9,0.3-0.9,0.3-1.8,0.6c-1,0.1-1,0.1-2,0.3
			c-1-0.1-1-0.1-2-0.2c-0.9-0.2-0.9-0.2-1.8-0.5c-0.4-0.2-0.4-0.2-0.8-0.4c-0.3-0.2-0.3-0.2-0.7-0.5c-0.5-0.5-0.5-0.5-0.9-1.1"/>
		<path id="XMLID_255_" class="st0" d="M424.7,154.1c0.6,0.5,0.6,0.5,1.2,1c0.8,0.4,0.8,0.4,1.6,0.7c0.7,0.1,0.7,0.1,1.5,0.3"/>
		<path id="XMLID_254_" class="st0" d="M435,151.7c-0.8,0.4-0.8,0.4-1.6,0.8c-0.9,0.2-0.9,0.2-1.9,0.4c-1,0.1-1,0.1-2,0.1
			c-1-0.2-1-0.2-2-0.3c-0.2-0.1-0.2-0.1-0.4-0.2c-0.6-0.3-0.7-0.3-1.2-0.5c-0.6-0.5-0.6-0.5-1.2-1"/>
		<path id="XMLID_253_" class="st0" d="M425.6,147.4c0.6,0.3,0.6,0.3,1.1,0.5c0.2,0.1,0.2,0.1,0.4,0.2c0.7,0.1,0.7,0.1,1.4,0.3
			c0.3,0.1,0.3,0.1,0.5,0.1c0.8,0,0.8,0,1.5,0c0.3,0,0.3,0,0.5,0c0.7-0.1,0.7-0.1,1.4-0.3c0.3,0,0.3,0,0.5-0.1
			c0.6-0.3,0.6-0.3,1.2-0.5c0.2-0.1,0.2-0.1,0.4-0.2"/>
		<path id="XMLID_252_" class="st0" d="M429.5,163.9c1,0,1,0,2-0.1c1-0.2,1-0.2,1.9-0.4c0.8-0.3,0.8-0.3,1.6-0.7"/>
		<path id="XMLID_251_" class="st0" d="M429.5,165.5c1,0,1,0,2,0c1-0.2,1-0.2,1.9-0.4c0.8-0.4,0.8-0.4,1.6-0.8"/>
		<path id="XMLID_250_" class="st0" d="M429.5,160.8c1,0,1,0,2-0.1c1-0.2,1-0.2,1.9-0.4c0.8-0.4,0.8-0.4,1.6-0.8"/>
		<path id="XMLID_249_" class="st0" d="M429.5,157.7c1,0,1,0,2,0c1-0.2,1-0.2,1.9-0.4c0.8-0.4,0.8-0.4,1.6-0.8"/>
		<path id="XMLID_248_" class="st0" d="M435,161.1c-0.8,0.4-0.8,0.4-1.6,0.8c-0.9,0.2-0.9,0.2-1.9,0.4c-0.3,0-0.3,0-0.5,0"/>
		<path id="XMLID_247_" class="st0" d="M418.9,138.8v2"/>
		<path id="XMLID_246_" class="st0" d="M421.6,145l3.9,2.3l0.1,0.1"/>
		<path id="XMLID_245_" class="st0" d="M436.3,164.2l0.1,0.2l-0.1,1.2l-0.7,1.1"/>
		<path id="XMLID_244_" class="st0" d="M425.3,166.9l-0.9-1l-0.3-1.2l0.2-0.4l0.4,0.9"/>
		<path id="XMLID_243_" class="st0" d="M431.1,167l-0.5,0.1h-1"/>
		<path id="XMLID_242_" class="st0" d="M426.5,167.6l-1.2-0.7"/>
		<path id="XMLID_241_" class="st0" d="M424.3,161.1l-0.2,0.5l0.3,1.2"/>
		<path id="XMLID_240_" class="st0" d="M435.6,163.5l0.7-1.1l0.1-1.2l-0.1-0.3"/>
		<path id="XMLID_239_" class="st0" d="M427.6,165.2l1.3,0.2h0.2"/>
		<path id="XMLID_238_" class="st0" d="M424.7,163.5l-0.6-1.1l0-0.5"/>
		<path id="XMLID_237_" class="st0" d="M431.1,167h0.5l1.9-0.4l1.6-0.8l1-1l0.4-1.1l-0.1-0.9l-0.1,1.2l-0.7,1.1"/>
		<path id="XMLID_236_" class="st0" d="M424.4,164.3l-0.2-0.9l0,0.5L424.4,164.3"/>
		<path id="XMLID_235_" class="st0" d="M424.2,163.4l-0.1-0.3l0.1,0.5"/>
		<path id="XMLID_234_" class="st0" d="M424.1,163.1l0.2-0.5"/>
		<path id="XMLID_233_" class="st0" d="M436.3,157.9l0.1,0.3l-0.1,1.2l-0.7,1.1"/>
		<path id="XMLID_232_" class="st0" d="M424.4,159.6l-0.2-0.9l0,0.5l0.6,1.1"/>
		<path id="XMLID_231_" class="st0" d="M431.1,162.3l-0.5,0.1l-1,0"/>
		<path id="XMLID_230_" class="st0" d="M436.3,159.5l0.1,0.3l-0.1,1.2l-0.7,1.1"/>
		<path id="XMLID_229_" class="st0" d="M424.4,161.2l-0.3-1.2l0.2-0.5"/>
		<path id="XMLID_228_" class="st0" d="M427.6,163.6l1.3,0.3h0.2"/>
		<path id="XMLID_227_" class="st0" d="M424.7,161.9l-0.6-1.1l0-0.5"/>
		<path id="XMLID_226_" class="st0" d="M424.1,161.6l0.1,0.5"/>
		<path id="XMLID_225_" class="st0" d="M427.6,160.5l1.3,0.2l0.2,0"/>
		<path id="XMLID_224_" class="st0" d="M424.7,158.8l-0.6-1.1l0-0.5l0.2,0.9"/>
		<path id="XMLID_223_" class="st0" d="M435.6,158.9l0.7-1.1l0.1-1.2l-0.1-0.3"/>
		<path id="XMLID_222_" class="st0" d="M424.2,160.5l-0.1-0.5"/>
		<path id="XMLID_221_" class="st0" d="M427.6,157.3l1.3,0.3h0.2"/>
		<path id="XMLID_220_" class="st0" d="M424.7,155.7l-0.6-1.1l0-0.5l0.2,0.9"/>
		<path id="XMLID_219_" class="st0" d="M435.6,155.7l0.7-1.1l0.1-1.2l-0.1-0.3"/>
		<path id="XMLID_218_" class="st0" d="M436.3,154.7l0.1,0.3l-0.1,1.2l-0.7,1.1"/>
		<path id="XMLID_217_" class="st0" d="M424.4,156.5l-0.3-1.2l0.2-0.5"/>
		<path id="XMLID_216_" class="st0" d="M429.5,159.3h1l0.5-0.1"/>
		<path id="XMLID_215_" class="st0" d="M424.7,157.3l-0.6-1.1l0-0.5"/>
		<path id="XMLID_214_" class="st0" d="M424.3,156.4l-0.2,0.5l0.1,0.5"/>
		<path id="XMLID_213_" class="st0" d="M424.2,158.7l-0.1-0.3l0.2-0.5"/>
		<path id="XMLID_212_" class="st0" d="M424.1,156.9l0.1,0.3"/>
		<path id="XMLID_211_" class="st0" d="M424.2,158.9l-0.1-0.5"/>
		<path id="XMLID_210_" class="st0" d="M425.9,153.5l-1.2-1l-0.6-1.1l0-0.5l0.2,0.9"/>
		<path id="XMLID_209_" class="st0" d="M435.6,152.6l0.7-1.1l0.1-1.2l0.1,0.8l-0.4,1.2l-1,1"/>
		<path id="XMLID_208_" class="st0" d="M429.1,156l0.5,0.1"/>
		<path id="XMLID_207_" class="st0" d="M435,154.9l1-1l0.4-1.2l-0.1-0.8l-0.1,1.2l-0.7,1.1"/>
		<path id="XMLID_206_" class="st0" d="M424.4,153.3l-0.2-0.9l0,0.5l0.6,1.1"/>
		<path id="XMLID_205_" class="st0" d="M429.1,156h-0.2l-1.3-0.3"/>
		<path id="XMLID_204_" class="st0" d="M424.1,155.3l0.1,0.5"/>
		<path id="XMLID_203_" class="st0" d="M424.2,154l-0.1-0.3l0.1,0.5"/>
		<path id="XMLID_202_" class="st0" d="M424.1,153.7l0.2-0.5"/>
		<path id="XMLID_201_" class="st0" d="M436.5,146.5l0,3.1l-0.4,1.1l-1,1"/>
		<path id="XMLID_200_" class="st0" d="M424.7,151l-0.6-1.1l0-3.4"/>
		<path id="XMLID_199_" class="st0" d="M424.3,150.1l-0.2,0.5l0.1,0.5"/>
		<path id="XMLID_198_" class="st0" d="M424.2,152.5l-0.1-0.3l0.2-0.5"/>
		<path id="XMLID_197_" class="st0" d="M424.1,150.6l0.1,0.3"/>
		<path id="XMLID_196_" class="st0" d="M424.2,152.6l-0.1-0.5"/>
		<path id="XMLID_195_" class="st0" d="M425.5,147.3l0.1,0.1"/>
		<path id="XMLID_194_" class="st0" d="M434.7,147.6l0.2-0.1"/>
		<path id="XMLID_193_" class="st0" d="M429.1,136.1l4.6,0.7l1.2,2.7l-3.4,2l-4.6-0.7l-1.2-2.7L429.1,136.1v3.7l-1.7,1"/>
		<path id="XMLID_192_" class="st0" d="M429.1,167l-0.2,0l-1.3-0.2"/>
		<path id="XMLID_191_" class="st0" d="M429.1,163.8l0.5,0.1"/>
		<path id="XMLID_190_" class="st0" d="M435,162.7l1-1l0.4-1.2l-0.1-0.8"/>
		<path id="XMLID_189_" class="st0" d="M429.1,165.4l0.5,0.1"/>
		<path id="XMLID_188_" class="st0" d="M435,164.3l1-1l0.4-1.2l-0.1-0.8"/>
		<path id="XMLID_187_" class="st0" d="M429.1,160.7l0.5,0.1"/>
		<path id="XMLID_186_" class="st0" d="M435,159.6l1-1l0.4-1.1l-0.1-0.9"/>
		<path id="XMLID_185_" class="st0" d="M429.1,162.3l-0.2,0l-1.3-0.2"/>
		<path id="XMLID_184_" class="st0" d="M429.1,157.6l0.5,0.1"/>
		<path id="XMLID_183_" class="st0" d="M435,156.4l1-1l0.4-1.2l-0.1-0.8"/>
		<path id="XMLID_182_" class="st0" d="M427.6,158.9l1.3,0.2l0.2,0"/>
		<path id="XMLID_181_" class="st0" d="M429.1,154.5l-0.2,0l-1.3-0.2"/>
		<path id="XMLID_180_" class="st0" d="M427.6,152.6l1.3,0.2l0.2,0"/>
		<path id="XMLID_179_" class="st0" d="M429.1,139.8l2.3,0.4l-0.3,1.2"/>
		<path id="XMLID_178_" class="st0" d="M431.1,163.9l-0.5,0.1l-1,0"/>
		<path id="XMLID_177_" class="st0" d="M431.1,165.5l-0.5,0.1l-1,0"/>
		<path id="XMLID_176_" class="st0" d="M431.1,160.8l-0.5,0.1h-1"/>
		<path id="XMLID_175_" class="st0" d="M436.5,158.1l0.1,0.8l-0.4,1.2l-1,1"/>
		<path id="XMLID_174_" class="st0" d="M431.1,159.2h0.5l1.9-0.4l1.6-0.8l1-1l0.4-1.1l-0.1-0.9"/>
		<path id="XMLID_173_" class="st0" d="M431.1,157.6l-0.5,0.1l-1,0"/>
		<path id="XMLID_172_" class="st0" d="M431.1,154.5l-0.5,0.1l-1,0"/>
		<path id="XMLID_171_" class="st0" d="M429.5,156.1l1,0l0.5-0.1"/>
		<path id="XMLID_170_" class="st0" d="M431.1,152.9l-0.5,0.1h-1"/>
		<path id="XMLID_169_" class="st0" d="M431.4,140.2l1.8,0.3"/>
		<path id="XMLID_168_" class="st0" d="M434.3,167.5l-0.3,0.2"/>
		<path id="XMLID_167_" class="st0" d="M434.9,147.5l3.5-2"/>
		<path id="XMLID_166_" class="st0" d="M433.7,140.2v-3.4"/>
		<path id="XMLID_165_" class="st0" d="M436.3,162.6l0.1,0.3"/>
		<path id="XMLID_164_" class="st0" d="M436.5,151.9l-0.1-0.3"/>
		<path id="XMLID_163_" class="st0" d="M436.3,150.1l0.1,0.3"/>
		<path id="XMLID_162_" class="st0" d="M441.8,140.7v-2"/>
		<ellipse id="XMLID_161_" class="st0" cx="430.3" cy="138.8" rx="11.5" ry="6.6"/>
		<path id="XMLID_160_" class="st0" d="M441.8,140.7c0,3.6-5.1,6.6-11.4,6.6c-6.3,0-11.4-3-11.4-6.6"/>
		<path id="XMLID_159_" class="st0" d="M427.4,140.8c1.5-0.9,3.9-0.9,5.5-0.2"/>
		<path id="XMLID_158_" class="st0" d="M434,167.7c-1.9,1.2-5.1,1.2-7.1,0.1c-0.1-0.1-0.3-0.2-0.4-0.2"/>
	</g>
	<g>
		<path id="XMLID_157_" class="st0" d="M304.2,87.7c-0.7,0.5-0.7,0.5-1.3,0.9c-0.9,0.3-0.9,0.3-1.8,0.6c-1,0.1-1,0.1-2,0.2
			c-1-0.1-1-0.1-2-0.1c-0.9-0.2-0.9-0.3-1.8-0.5c-0.4-0.2-0.4-0.2-0.8-0.4c-0.3-0.2-0.3-0.2-0.7-0.4c-0.5-0.5-0.5-0.5-0.9-1.1"/>
		<path id="XMLID_156_" class="st0" d="M293.3,87.6c0.6,0.5,0.6,0.5,1.2,1c0.8,0.4,0.8,0.4,1.7,0.7c1,0.2,1,0.2,2,0.3
			c0.5,0,0.5,0,1,0c0.3,0,0.3,0,0.6-0.1"/>
		<path id="XMLID_155_" class="st0" d="M304.2,89.2c-0.7,0.5-0.7,0.5-1.3,0.9c-0.9,0.3-0.9,0.3-1.8,0.6c-1,0.1-1,0.1-2,0.3
			c-1-0.1-1-0.1-2-0.2c-0.9-0.2-0.9-0.2-1.8-0.5c-0.4-0.2-0.4-0.2-0.8-0.4c-0.3-0.2-0.3-0.2-0.7-0.5c-0.5-0.5-0.5-0.5-0.9-1.1"/>
		<path id="XMLID_154_" class="st0" d="M302.9,91.6c-0.9,0.3-0.9,0.3-1.8,0.6c-1,0.1-1,0.1-2,0.2c-1,0-1,0-2-0.1
			c-0.9-0.2-0.9-0.2-1.8-0.5c-0.7-0.4-0.7-0.4-1.4-0.8"/>
		<path id="XMLID_153_" class="st0" d="M293.3,89.2c0.6,0.5,0.6,0.5,1.2,1c0.8,0.4,0.9,0.4,1.7,0.7c0.6,0.1,0.7,0.1,1.3,0.3
			c0.1,0,0.1,0,0.2,0"/>
		<path id="XMLID_152_" class="st0" d="M304.2,84.5c-0.7,0.5-0.7,0.5-1.3,0.9c-0.9,0.3-0.9,0.3-1.8,0.6c-1,0.1-1,0.1-2,0.3
			c-1-0.1-1-0.1-2-0.1c-0.9-0.3-0.9-0.3-1.8-0.5c-0.4-0.2-0.4-0.2-0.8-0.4c-0.3-0.2-0.3-0.2-0.7-0.5c-0.5-0.5-0.5-0.5-0.9-1"/>
		<path id="XMLID_151_" class="st0" d="M304.2,86.1c-0.7,0.5-0.7,0.5-1.3,0.9c-0.9,0.3-0.9,0.3-1.8,0.6c-1,0.1-1,0.1-2,0.2
			c-1-0.1-1-0.1-2-0.1c-0.9-0.2-0.9-0.3-1.8-0.5c-0.4-0.2-0.4-0.2-0.8-0.4c-0.3-0.2-0.3-0.2-0.7-0.5c-0.5-0.5-0.5-0.5-0.9-1"/>
		<path id="XMLID_150_" class="st0" d="M293.3,86.1c0.6,0.5,0.6,0.5,1.2,1c0.8,0.4,0.9,0.3,1.7,0.7c0.6,0.1,0.7,0.1,1.3,0.2
			c0.1,0,0.1,0,0.2,0"/>
		<path id="XMLID_149_" class="st0" d="M304.2,81.4c-0.7,0.5-0.7,0.5-1.3,0.9c-0.9,0.3-0.9,0.3-1.8,0.6c-1,0.1-1,0.1-2,0.2
			c-1,0-1,0-2-0.1c-0.9-0.2-0.9-0.2-1.8-0.5c-0.4-0.2-0.4-0.2-0.8-0.4c-0.3-0.2-0.3-0.2-0.7-0.5c-0.5-0.5-0.5-0.5-0.9-1.1"/>
		<path id="XMLID_148_" class="st0" d="M304.2,82.9c-0.7,0.5-0.7,0.5-1.3,0.9c-0.9,0.3-0.9,0.3-1.8,0.6c-1,0.1-1,0.1-2,0.3
			c-1-0.1-1-0.1-2-0.1c-0.9-0.3-0.9-0.3-1.8-0.5c-0.4-0.2-0.4-0.2-0.8-0.4c-0.3-0.2-0.3-0.2-0.7-0.5c-0.5-0.5-0.5-0.5-0.9-1"/>
		<path id="XMLID_147_" class="st0" d="M298.1,84.9c-1-0.1-1-0.1-2-0.3c-0.9-0.3-0.9-0.3-1.7-0.7c-0.6-0.5-0.6-0.5-1.2-1"/>
		<path id="XMLID_146_" class="st0" d="M293.3,84.5c0.6,0.5,0.6,0.5,1.2,1c0.8,0.3,0.9,0.3,1.7,0.7c0.7,0.1,0.7,0.1,1.5,0.3"/>
		<path id="XMLID_145_" class="st0" d="M303.6,82.1c-0.8,0.4-0.8,0.4-1.6,0.8c-0.9,0.3-1,0.2-1.9,0.4c-0.3,0-0.3,0-0.5,0
			c-0.3,0-0.3,0-0.6,0.1c-0.5,0-0.5,0-1,0c-1-0.1-1-0.1-2-0.3c-0.8-0.3-0.9-0.3-1.7-0.7c-0.6-0.5-0.6-0.5-1.2-1"/>
		<path id="XMLID_144_" class="st0" d="M304.2,78.3c-0.7,0.5-0.7,0.5-1.3,0.9c-0.9,0.3-0.9,0.3-1.8,0.6c-1,0.1-1,0.1-2,0.2
			c-1-0.1-1-0.1-2-0.1c-0.9-0.3-0.9-0.3-1.8-0.5c-0.4-0.2-0.4-0.2-0.8-0.4c-0.3-0.2-0.3-0.2-0.7-0.5c-0.5-0.5-0.5-0.5-0.9-1"/>
		<path id="XMLID_143_" class="st0" d="M304.2,79.8c-0.7,0.5-0.7,0.5-1.3,0.9c-0.9,0.3-0.9,0.3-1.8,0.6c-1,0.1-1,0.1-2,0.2
			c-1-0.1-1-0.1-2-0.1c-0.9-0.2-0.9-0.3-1.8-0.5c-0.4-0.2-0.4-0.2-0.8-0.4c-0.3-0.2-0.3-0.2-0.7-0.4c-0.5-0.5-0.5-0.5-0.9-1.1"/>
		<path id="XMLID_142_" class="st0" d="M297.6,81.7c-0.7-0.1-0.7-0.1-1.5-0.3c-0.8-0.3-0.9-0.3-1.7-0.7c-0.6-0.5-0.6-0.5-1.2-1"/>
		<path id="XMLID_141_" class="st0" d="M299.6,80.2c-0.8,0.1-0.8,0.1-1.5,0.1c-1-0.2-1-0.2-2-0.3c-0.9-0.3-0.9-0.3-1.7-0.7
			c-0.6-0.5-0.6-0.5-1.2-1"/>
		<path id="XMLID_140_" class="st0" d="M304.2,76.7c-0.7,0.5-0.7,0.5-1.3,0.9c-0.9,0.3-0.9,0.3-1.8,0.6c-1,0.1-1,0.1-2,0.3
			c-1-0.1-1-0.1-2-0.1c-0.9-0.3-0.9-0.3-1.8-0.5c-0.4-0.2-0.4-0.2-0.8-0.4c-0.3-0.2-0.3-0.2-0.7-0.5c-0.5-0.5-0.5-0.5-0.9-1"/>
		<path id="XMLID_139_" class="st0" d="M298.1,78.6c-1-0.1-1-0.1-2-0.3c-0.8-0.3-0.9-0.3-1.7-0.7c-0.6-0.5-0.6-0.5-1.2-0.9"/>
		<path id="XMLID_138_" class="st0" d="M293.3,75.1c0.6,0.5,0.6,0.5,1.2,1c0.8,0.4,0.8,0.4,1.7,0.7c1,0.2,1,0.2,2,0.3
			c0.5,0,0.5,0,1,0c0.3,0,0.3,0,0.6-0.1c0.3,0,0.3,0,0.5,0c0.9-0.2,1-0.2,1.9-0.5c0.8-0.3,0.8-0.3,1.6-0.7"/>
		<path id="XMLID_137_" class="st0" d="M302.8,71.9c-0.6,0.3-0.6,0.3-1.2,0.5c-0.3,0.1-0.3,0.1-0.5,0.1c-0.7,0.1-0.7,0.1-1.4,0.3
			c-0.3,0-0.3,0-0.5,0c-0.8,0-0.8,0-1.5,0c-0.3,0-0.3-0.1-0.5-0.1c-0.7-0.1-0.7-0.1-1.4-0.3c-0.2-0.1-0.2-0.1-0.4-0.2
			c-0.6-0.3-0.6-0.3-1.2-0.6"/>
		<path id="XMLID_136_" class="st0" d="M299.6,91.1c-0.3,0-0.3,0-0.6,0.1c-0.5,0-0.5,0-1,0c-0.3,0-0.3,0-0.5-0.1"/>
		<path id="XMLID_135_" class="st0" d="M297.6,88c0.2,0,0.2,0,0.5,0.1c0.5,0,0.5,0,1,0c0.3,0,0.3,0,0.6-0.1"/>
		<path id="XMLID_134_" class="st0" d="M297.6,86.4c0.2,0,0.2,0,0.5,0.1c0.5,0,0.5,0,1,0c0.3,0,0.3,0,0.6-0.1c0.3,0,0.3,0,0.5,0"/>
		<path id="XMLID_133_" class="st0" d="M303.6,79c-0.8,0.4-0.8,0.4-1.6,0.8c-0.9,0.2-1,0.2-1.9,0.4c-0.3,0-0.3,0-0.5,0"/>
		<path id="XMLID_132_" class="st0" d="M287.4,64.9v-2"/>
		<path id="XMLID_131_" class="st0" d="M304.9,85.1l0.1,0.3l-0.1,1.2l-0.7,1.1"/>
		<path id="XMLID_130_" class="st0" d="M292.9,86.8l-0.2-0.9l0,0.5l0.6,1.1"/>
		<path id="XMLID_129_" class="st0" d="M299.6,89.6l-1.5,0"/>
		<path id="XMLID_128_" class="st0" d="M304.9,86.7l0.1,0.3l-0.1,1.2l-0.7,1.1"/>
		<path id="XMLID_127_" class="st0" d="M292.9,88.4l-0.2-1.2l0,0.5"/>
		<path id="XMLID_126_" class="st0" d="M302.4,91.9l0.4-0.3"/>
		<path id="XMLID_125_" class="st0" d="M293.8,91l-0.9-1l-0.2-1.2l0.1-0.4l-0.1-0.3l0-0.6"/>
		<path id="XMLID_124_" class="st0" d="M292.7,87.2l0.2-0.5"/>
		<path id="XMLID_123_" class="st0" d="M292.8,88.4l0.5,0.8"/>
		<path id="XMLID_122_" class="st0" d="M297.6,91.1l-1.5-0.3"/>
		<path id="XMLID_121_" class="st0" d="M304.9,82l0.1,0.3l-0.1,1.2l-0.7,1.1"/>
		<path id="XMLID_120_" class="st0" d="M292.9,83.7l-0.2-1.2l0.2-0.5"/>
		<path id="XMLID_119_" class="st0" d="M304.6,85.8l0.4-1.1l0-0.8l-0.1,1.2l-0.7,1.1"/>
		<path id="XMLID_118_" class="st0" d="M292.9,85.3l-0.2-1.2l0.2-0.5"/>
		<path id="XMLID_117_" class="st0" d="M292.7,84.1l0,0.5"/>
		<path id="XMLID_116_" class="st0" d="M292.7,84.4l0,0.5l0.6,1.1"/>
		<path id="XMLID_115_" class="st0" d="M297.6,88l-1.5-0.3"/>
		<path id="XMLID_114_" class="st0" d="M292.8,85.2l-0.2,0.5l0.1,0.3"/>
		<path id="XMLID_113_" class="st0" d="M292.7,85.7l0,0.5"/>
		<path id="XMLID_112_" class="st0" d="M304.6,81.1l0.4-1.2l0-0.8l-0.1,1.2l-0.6,0.8l-0.2,0.3"/>
		<path id="XMLID_111_" class="st0" d="M292.9,80.6l-0.2-1.2l0.2-0.5"/>
		<path id="XMLID_110_" class="st0" d="M304.6,82.7l0.4-1.2l0-0.8l-0.1,1.2l-0.7,1.1"/>
		<path id="XMLID_109_" class="st0" d="M292.9,82.2l-0.2-1.2l0.2-0.5"/>
		<path id="XMLID_108_" class="st0" d="M292.7,81l0,0.5"/>
		<path id="XMLID_107_" class="st0" d="M298.1,84.9l1.5,0l-0.6,0.1L298.1,84.9"/>
		<path id="XMLID_106_" class="st0" d="M293.3,82.9l-0.6-1.1l0-0.5"/>
		<path id="XMLID_105_" class="st0" d="M292.7,82.5l0,0.5"/>
		<path id="XMLID_104_" class="st0" d="M292.7,82.8l0,0.5l0.6,1.1"/>
		<path id="XMLID_103_" class="st0" d="M297.6,86.4l-0.2,0l-1-0.2"/>
		<path id="XMLID_102_" class="st0" d="M304.6,81.1l-1,1"/>
		<path id="XMLID_101_" class="st0" d="M293.3,81.4l-0.6-1.1l0-0.5"/>
		<path id="XMLID_100_" class="st0" d="M304.9,75.7L305,76l-0.1,1.2l-0.7,1.1"/>
		<path id="XMLID_99_" class="st0" d="M292.9,77.4l-0.2-1.2l0.2-0.5"/>
		<path id="XMLID_98_" class="st0" d="M304.9,77.3l0.1,0.3l-0.1,1.2l-0.7,1.1"/>
		<path id="XMLID_97_" class="st0" d="M292.9,79l-0.2-1.2l0.2-0.5"/>
		<path id="XMLID_96_" class="st0" d="M292.7,77.8l0,0.5"/>
		<path id="XMLID_95_" class="st0" d="M296.4,81.5l1,0.2l0.2,0"/>
		<path id="XMLID_94_" class="st0" d="M293.3,79.8l-0.6-1.1l0-0.5"/>
		<path id="XMLID_93_" class="st0" d="M292.7,79.4l0,0.5"/>
		<path id="XMLID_92_" class="st0" d="M298.1,80.2h1l0.6-0.1"/>
		<path id="XMLID_91_" class="st0" d="M293.3,78.2l-0.6-1.1l0-0.5"/>
		<path id="XMLID_90_" class="st0" d="M304.9,74.2l0.1,0.3l-0.1,1.2l-0.7,1.1"/>
		<path id="XMLID_89_" class="st0" d="M292.9,75.9l-0.2-1.2l0.2-0.5"/>
		<path id="XMLID_88_" class="st0" d="M292.7,74.7l0,0.5"/>
		<path id="XMLID_87_" class="st0" d="M298.1,78.6l1.5,0l-0.6,0.1L298.1,78.6"/>
		<path id="XMLID_86_" class="st0" d="M293.3,76.7l-0.6-1.1l0-0.5"/>
		<path id="XMLID_85_" class="st0" d="M292.7,76.3l0,0.5"/>
		<path id="XMLID_84_" class="st0" d="M292.7,70.6l0,3.4l0.6,1.1"/>
		<path id="XMLID_83_" class="st0" d="M303.6,75.9l1-1l0.4-1.2l0-3"/>
		<path id="XMLID_82_" class="st0" d="M294.1,71.4L294.1,71.4l-4-2.3"/>
		<path id="XMLID_81_" class="st0" d="M293.8,91l1.2,0.7"/>
		<path id="XMLID_80_" class="st0" d="M296.4,83.1l1,0.2h0.2"/>
		<path id="XMLID_79_" class="st0" d="M303.4,71.6l-0.2,0.1l-0.4,0.2"/>
		<path id="XMLID_78_" class="st0" d="M294.1,71.5L294.1,71.5"/>
		<path id="XMLID_77_" class="st0" d="M295.9,64.9l1.7-1v-3.7l-3.4,1.9l1.2,2.7l4.6,0.7l3.4-1.9l-1.2-2.7l-4.6-0.7"/>
		<path id="XMLID_76_" class="st0" d="M298.1,91.2l1.5,0"/>
		<path id="XMLID_75_" class="st0" d="M297.6,89.5l-0.2,0l-1.3-0.2"/>
		<path id="XMLID_74_" class="st0" d="M299.6,88l-1.5,0.1"/>
		<path id="XMLID_73_" class="st0" d="M297.6,84.8h-0.2l-1-0.2"/>
		<path id="XMLID_72_" class="st0" d="M300.1,86.4L302,86l1.6-0.8l1-1"/>
		<path id="XMLID_71_" class="st0" d="M298.1,86.5l1.5-0.1"/>
		<path id="XMLID_70_" class="st0" d="M297.6,81.7l0.5,0.1l1.5,0l-0.6,0.1l-1,0"/>
		<path id="XMLID_69_" class="st0" d="M298.1,83.3l1.5,0"/>
		<path id="XMLID_68_" class="st0" d="M297.6,78.6h-0.2l-1-0.2"/>
		<path id="XMLID_67_" class="st0" d="M297.6,80.1l-0.2,0l-1-0.2"/>
		<path id="XMLID_66_" class="st0" d="M297.6,77h-0.2l-1-0.2"/>
		<path id="XMLID_65_" class="st0" d="M298.1,77.1l1.5,0"/>
		<path id="XMLID_64_" class="st0" d="M297.6,63.9l2.3,0.3l-0.3,1.2"/>
		<path id="XMLID_63_" class="st0" d="M299.6,91.1l0.5,0l1.9-0.4l1.6-0.8l1-1"/>
		<path id="XMLID_62_" class="st0" d="M299.6,88h0.5l1.9-0.4l1.6-0.8l1-1"/>
		<path id="XMLID_61_" class="st0" d="M299.6,89.6l0.5,0l1.9-0.4l1.6-0.8l1-1"/>
		<path id="XMLID_57_" class="st0" d="M299.6,84.9h0.5l1.9-0.5l1.6-0.7l1-1"/>
		<path id="XMLID_56_" class="st0" d="M299.6,81.8l0.5,0l1.9-0.4l1.6-0.8l1-1"/>
		<path id="XMLID_55_" class="st0" d="M299.6,78.6h0.5l1.9-0.4l1.6-0.8l1-1"/>
		<path id="XMLID_54_" class="st0" d="M304.6,78l-1,1"/>
		<path id="XMLID_53_" class="st0" d="M302.2,64.3v-3.4"/>
		<path id="XMLID_52_" class="st0" d="M299.9,64.3l1.8,0.3"/>
		<path id="XMLID_51_" class="st0" d="M304.9,88.3l0.1,0.2l-0.1,1.2l-0.7,1.1l-1.3,0.9"/>
		<path id="XMLID_50_" class="st0" d="M304.6,88.9l0.4-1.2l0-0.8"/>
		<path id="XMLID_49_" class="st0" d="M304.6,87.4l0.4-1.2l0-0.8"/>
		<path id="XMLID_45_" class="st0" d="M304.6,84.2l0.4-1.2l0-0.8"/>
		<path id="XMLID_37_" class="st0" d="M305,83.8L305,83.8l-0.1-0.3"/>
		<path id="XMLID_36_" class="st0" d="M305,80.7l-0.1-0.3"/>
		<path id="XMLID_32_" class="st0" d="M304.6,79.5l0.4-1.2l0-0.8"/>
		<path id="XMLID_30_" class="st0" d="M305,76l0,0.9l-0.4,1.1"/>
		<path id="XMLID_29_" class="st0" d="M305,79.1l-0.1-0.3"/>
		<path id="XMLID_25_" class="st0" d="M304.6,76.4l0.4-1.2l0-0.8"/>
		<path id="XMLID_24_" class="st0" d="M306.9,69.5l-3.5,2"/>
		<path id="XMLID_22_" class="st0" d="M310.3,64.9v-2"/>
		<ellipse id="XMLID_16_" class="st0" cx="298.9" cy="62.9" rx="11.5" ry="6.6"/>
		<path id="XMLID_15_" class="st0" d="M295.9,64.9c1.5-0.9,3.9-0.9,5.5-0.2"/>
		<path id="XMLID_14_" class="st0" d="M302.5,91.8c-1.9,1.2-5.1,1.2-7.1,0.1c-0.1-0.1-0.3-0.2-0.4-0.2"/>
		<path id="XMLID_13_" class="st0" d="M310.3,64.9c0,3.6-5.1,6.6-11.5,6.6c-6.3,0-11.4-3-11.4-6.6"/>
	</g>
	<g>
		<path id="XMLID_12_" class="st1" d="M298.6,360.9l0.1-140.1"/>
		<path id="XMLID_11_" class="st1" d="M298.9,92.7l-0.1,113.6"/>
	</g>
	<g>
		<path id="XMLID_9_" class="st1" d="M430.2,296.2l-0.1,140.6"/>
		<path id="XMLID_4_" class="st1" d="M430.3,168.6l-0.1,113.6"/>
	</g>
	<g id="XMLID_19_">
		<path id="XMLID_7543_" class="st2" d="M530.8,108.9c0,0-55.8-19.3-95.9,31.8c46.3-35.3,88.9-12.8,88.9-12.8L530.8,108.9z"/>
		<g id="XMLID_21_">
			<circle id="XMLID_7704_" class="st3" cx="566.3" cy="134.6" r="54.9"/>
			<g id="XMLID_20_">
				<path id="XMLID_7539_" class="st4" d="M569.2,138.3l2.1,0.6l1.2,0.6l1.8,1.2l1.1,1l1,1.2l0.6,1.3l0.3,1.6l-0.1,1.4l-0.4,1.2
					l-0.5,0.9l-0.7,1l-0.5,0.6l-1.3,1l-1.6,0.9l-1.6,0.6L569,154l-2.2,0.3l0.1,1.6l-0.2-0.1l-2.3-3l-0.1-0.1l0-0.2l2.2-3.3l0.1,1.6
					l0.8-0.1l1.4-0.3l1.5-0.6l1-0.8l0.7-0.8l0.5-1l0.1-0.4v-1.2l-0.1-0.5l-0.4-0.8l-0.6-0.8l-0.8-0.7l-1.4-0.7l-1.2-0.4l-1.1-0.2
					v-3.4l1,0L569.2,138.3z M565.2,141.5l-1.2,0.3l-0.8,0.3l-0.8,0.4l-1.1,0.7l-0.5,0.6l-0.4,0.7l-0.3,0.6l-0.1,0.7v0.7l0.1,0.6
					l0.2,0.5l0.6,1l-3.7,1.7l-0.4,0.1L556,149l-0.5-1.2l-0.2-1v-1.2l0.1-0.8l0.4-1.3l0.7-1.2l1-1.2l1.5-1.2l1.7-0.9l1.7-0.6l2-0.4
					l0.7,0V141.5z"/>
				<path id="XMLID_7538_" class="st4" d="M568.4,171.4l2.3,0.1l-1.9,1.8l-0.9,0.8l-1.7,1.7h-0.5L564,174l-0.9-0.8l-1.1-1l-0.7-0.6
					l0-0.1l2.2-0.1l0.1-7.4h4.8L568.4,171.4z"/>
				<path id="XMLID_7537_" class="st5" d="M567,154.2l-0.4,0l0.1,1.7l-1.5-1.9"/>
				<path id="XMLID_7536_" class="st5" d="M567,150.7l-0.6,0.1l-0.1-1.7l-1.1,1.7"/>
				<path id="XMLID_7535_" class="st5" d="M565.2,141.6C565.2,141.6,565.2,141.6,565.2,141.6c-0.1,0-0.1,0-0.1,0c0,0,0,0,0,0
					c0,0,0,0-0.1,0c-0.4,0.1-0.8,0.1-1.1,0.3c-0.3,0.1-0.7,0.3-1,0.4c-1.8,0.9-3.4,2.7-2.8,4.9c0.2,0.6,0.5,1,0.8,1.5"/>
				<path id="XMLID_7534_" class="st5" d="M556.9,150.4c-2.4-3-2-6.9,0.9-9.4c0.8-0.7,1.7-1.2,2.6-1.7c0.6-0.2,1.1-0.4,1.7-0.7
					c0.6-0.1,1.2-0.3,1.8-0.4c0.4-0.1,0.9-0.1,1.3-0.1"/>
				<path id="XMLID_7533_" class="st5" d="M567,154.2L567,154.2c0.5-0.1,1-0.1,1.5-0.2c0.6-0.1,1.2-0.3,1.8-0.4
					c2.7-0.9,5.6-2.6,6.5-5.5c0.9-2.8-0.2-5.6-2.5-7.4c-1.4-1.1-3.1-1.8-4.8-2.3c-0.6-0.1-1.3-0.2-1.9-0.3c-0.3,0-0.5-0.1-0.8,0"/>
				<path id="XMLID_7532_" class="st5" d="M567,150.7L567,150.7c0.1,0,0.2,0,0.3,0c0.1,0,0.2,0,0.3,0c0.4-0.1,0.7-0.1,1-0.3
					c0.3-0.1,0.7-0.2,1-0.4c2.9-1,3.9-4.5,1.7-6.7c-0.5-0.5-1.3-1-2-1.3c-0.3-0.1-0.7-0.2-1-0.3c-0.4-0.1-0.7-0.1-1.1-0.2l0,0l0,0
					c0,0,0,0,0,0l0,0l0,0c0,0,0,0,0,0l0,0l0,0l0,0c0,0,0,0,0,0l0,0l0,0l0,0"/>
				<path id="XMLID_7531_" class="st5" d="M560.9,148.6l-4,1.8"/>
				<path id="XMLID_7530_" class="st5" d="M565.2,154.1l-1.2-1.5l1.2-1.8"/>
				<path id="XMLID_7529_" class="st5" d="M561.8,171.5h-0.5l4.7,4.5l4.7-4.5h-2.4V164h-4.8v7.5H561.8"/>
				<path id="XMLID_33_" class="st6" d="M562.6,108.9L562.6,108.9c0.1-0.9,0.2-1.8,0.2-2.7"/>
				<path id="XMLID_7528_" class="st6" d="M566.9,109.8c-0.1,0.5-0.3,0.9-0.7,1.2c0,0-0.1,0.1-0.1,0.1c0,0-0.1,0.1-0.1,0.1l0,0
					c-0.1,0-0.1,0.1-0.1,0.1c0,0,0,0-0.1,0c0,0,0,0,0,0l0,0c-0.6,0.4-1.6,0.3-2.2-0.1c0,0-0.1-0.1-0.1-0.1c-0.7-0.6-1-1.2-1-2.2"/>
				<path id="XMLID_7527_" class="st6" d="M562.8,106.1c-0.4-0.3-0.8-0.4-1.2-0.7c0,0-0.1,0-0.1-0.1c0,0,0-0.1-0.1-0.1
					c0,0-0.1-0.1-0.1-0.1"/>
				<path id="XMLID_7526_" class="st6" d="M561.4,105.2c-0.3,0.7-0.7,1.5-1.1,2.2c0,0,0,0,0,0.1c0,0,0,0,0,0c0,0,0,0-0.1,0.1
					c0,0.1-0.1,0.1-0.1,0.1c0,0,0,0.1-0.1,0.1c0,0,0,0,0,0c0,0,0,0,0,0c-0.1,0.1-0.1,0.1-0.1,0.1c0,0-0.1,0-0.1,0.1l0,0c0,0,0,0,0,0
					c0,0,0,0-0.1,0c0,0,0,0-0.1,0c0,0-0.1,0-0.1,0c0,0-0.1,0-0.1,0c0,0-0.1,0-0.1,0c0,0,0,0-0.1,0"/>
				<path id="XMLID_34_" class="st6" d="M558.8,104.6c0.6-1,1.3-2.3,1.4-3.5c0-0.1,0.1-0.1,0.1-0.2c0-0.1,0.1-0.1,0.1-0.1"/>
				<path id="XMLID_7525_" class="st6" d="M559.2,108.2C559.2,108.2,559.2,108.2,559.2,108.2c-0.1,0-0.1,0-0.2-0.1l0,0
					c0,0-0.1,0-0.1-0.1c0,0-0.1,0-0.1-0.1c0,0,0,0,0-0.1c0,0,0,0,0,0c0,0,0,0,0,0c0,0,0-0.1-0.1-0.1c-0.5-1-0.4-2.3,0.1-3.3"/>
				<path id="XMLID_7524_" class="st6" d="M560.2,112.1c-0.1-0.1-0.1-0.1-0.1-0.2c-0.2-0.3-0.4-0.7-0.7-1.1"/>
				<path id="XMLID_7523_" class="st6" d="M559.3,102.4L559.3,102.4L559.3,102.4L559.3,102.4L559.3,102.4L559.3,102.4L559.3,102.4
					l0.1-0.1l0,0h0v0l0,0l0,0l0,0v0c0,0,0,0,0.1-0.1l0,0c0-0.1,0.1-0.1,0.1-0.1v0c0,0,0,0,0.1-0.1v0l0,0v0c0.1-0.1,0.1-0.1,0.1-0.2
					l0,0l0,0h0v0l0,0l0,0v0l0,0l0,0h0v0l0,0l0,0v0l0,0h0"/>
				<path id="XMLID_7522_" class="st6" d="M559.4,102.4L559.4,102.4L559.4,102.4L559.4,102.4L559.4,102.4L559.4,102.4L559.4,102.4
					l0.1-0.1l0,0l0,0l0,0l0,0l0,0v0h0v0l0,0l0,0c0-0.1,0.1-0.1,0.1-0.2v0l0,0v0c0,0,0.1-0.1,0.1-0.1c0-0.1,0-0.1,0.1-0.2l0,0
					c0-0.1,0.1-0.1,0.1-0.1v0l0,0v0l0,0l0,0l0,0v0c0-0.1,0.1-0.1,0.1-0.2"/>
				<path id="XMLID_7519_" class="st6" d="M561.9,114.1c-0.6-1.2-1.6-2-2.3-2.9"/>
				<path id="XMLID_7518_" class="st6" d="M559.5,108.2L559.5,108.2C559.5,108.2,559.5,108.2,559.5,108.2c0.1,0,0.1,0,0.1,0
					c0,0,0.1,0,0.1,0l0,0c0,0,0,0,0.1,0l0,0c0,0,0,0,0.1,0l0,0c0,0,0,0,0.1,0c0,0,0.1-0.1,0.1-0.1l0,0c0,0,0,0,0,0l0,0c0,0,0,0,0,0
					c0,0,0,0,0,0l0,0c0,0,0,0,0.1-0.1c0,0,0,0,0,0c0,0,0,0,0,0c0.1-0.1,0.1-0.1,0.1-0.1c0-0.1,0.1-0.1,0.1-0.1c0,0,0,0,0,0
					c0.3-0.5,0.7-1.2,0.9-1.8c0-0.2,0.1-0.3,0.2-0.5"/>
				<path id="XMLID_7517_" class="st6" d="M560.5,113.9c0,0.3-0.1,0.9-0.3,1.2c0,0,0,0,0,0s0,0,0,0c0,0,0,0,0,0
					c-0.2,0.7-0.1,1.4,0.1,2c0,0,0,0.1,0,0.1c0,0,0.1,0.1,0.1,0.1c0,0,0,0.1,0.1,0.1c0,0,0,0,0,0c0,0,0,0,0,0c0,0,0,0,0,0
					c0,0,0,0,0.1,0.1l0,0c0,0,0,0,0,0c0,0,0,0,0.1,0c0,0,0,0,0,0c0,0,0.1,0,0.1,0l0,0c0,0,0,0,0,0c0,0,0,0,0.1,0c0,0,0.1,0,0.1,0
					c0,0,0,0,0,0c0,0,0.1,0,0.1,0l0,0l0,0c0,0,0,0,0,0l0,0l0,0c0,0,0,0,0,0l0,0l0,0c0,0,0,0,0,0"/>
				<path id="XMLID_7516_" class="st6" d="M560.6,112.5L560.6,112.5C560.6,112.5,560.6,112.5,560.6,112.5
					C560.7,112.5,560.7,112.5,560.6,112.5C560.7,112.5,560.7,112.5,560.6,112.5c0.5,0.5,1,1.1,1.2,1.6"/>
				<path id="XMLID_7515_" class="st6" d="M560.4,101.1L560.4,101.1c0,0,0-0.1,0-0.1l0,0l0,0l0,0v0l0,0c0,0,0-0.1,0-0.1l0,0l0,0
					v-0.1l0,0c0,0,0-0.1,0-0.1l0,0l0,0v0l0,0c0-0.1,0-0.1,0-0.2l0,0l0,0c0,0,0,0,0-0.1h0v0l0,0l0,0v0h0v0l0,0l0,0v0h0c0,0,0,0,0-0.1
					"/>
				<path id="XMLID_7514_" class="st6" d="M571.6,112.7L571.6,112.7C571.6,112.7,571.6,112.7,571.6,112.7l0,0.1l0,0v0l0,0v0l0,0l0,0
					c0,0,0,0.1,0,0.1c0,0.2-0.2,0.6-0.3,0.7v0l0,0v0l0,0l0,0l0,0v0.1c-0.1,0.2-0.3,0.4-0.5,0.6c-0.4,0.3-0.8,0.7-1.2,1
					c-0.2,0.1-0.3,0.1-0.5,0.2c-0.1,0-0.3,0.2-0.5,0.2l0,0l0,0l0,0l0,0c-0.2,0.1-0.4,0.1-0.5,0.1l0,0c-1.6,0.2-3.1,0.2-4.6-0.3
					c-0.6-0.3-1.2-0.6-1.6-1.1v0c-0.1-0.1-0.1-0.1-0.2-0.2c-0.1-0.2-0.3-0.3-0.4-0.5v-0.1c0,0,0-0.1-0.1-0.1v0l0,0v0l0,0
					c0-0.1,0-0.1-0.1-0.2c-0.1-0.1-0.2-0.4-0.2-0.5l0,0l0,0c0,0,0-0.1,0-0.1v0l0,0v0l0,0v0h0c0,0,0-0.1,0-0.1"/>
				<path id="XMLID_7513_" class="st6" d="M561.2,98.4L561.2,98.4C561.2,98.4,561.2,98.4,561.2,98.4L561.2,98.4L561.2,98.4
					L561.2,98.4L561.2,98.4L561.2,98.4L561.2,98.4L561.2,98.4L561.2,98.4C561.2,98.4,561.2,98.5,561.2,98.4L561.2,98.4
					c0.5,0.9,1,2,1.2,2.9c0.2,1-0.3,2-0.6,2.9"/>
				<path id="XMLID_7512_" class="st6" d="M561.8,104.2L561.8,104.2L561.8,104.2L561.8,104.2L561.8,104.2L561.8,104.2L561.8,104.2
					C561.9,104.3,561.9,104.3,561.8,104.2L561.8,104.2L561.8,104.2L561.8,104.2L561.8,104.2L561.8,104.2L561.8,104.2l0.1,0.1l0,0
					l0,0c0.1,0,0.2,0.1,0.2,0.2h0c0,0,0,0,0.1,0.1h0c0.1,0.1,0.1,0.1,0.2,0.1c0,0,0.1,0,0.1,0.1h0l0,0h0l0,0l0,0l0,0h0l0,0h0l0,0h0
					c0,0,0.1,0,0.1,0.1"/>
				<path id="XMLID_7511_" class="st6" d="M562.9,104.9c-0.1-1,0.2-2.1,0.2-2.9c0,0,0,0,0.1-0.1c0-0.1,0.1-0.2,0.2-0.2c0,0,0,0,0,0
					c0,0,0.1,0,0.1-0.1l0,0c0.1,0,0.3-0.1,0.5-0.1c0.3,0,0.6,0,0.9,0c0.2,0,0.4,0,0.5,0.1c0.3,0,0.7,0.2,1,0.3c0.1,0,0.1,0,0.2,0.1
					c0,0,0.1,0,0.1,0.1c0.1,0,0.1,0,0.1,0.1c0,0,0,0,0,0c0.1,0,0.1,0.1,0.2,0.2c0.1,0,0.1,0.1,0.2,0.2c0,0.1,0.1,0.1,0.1,0.2
					c0.2,0.9,0,1.9-0.1,2.8"/>
				<path id="XMLID_60_" class="st6" d="M568.1,102.9c0-0.4,0.1-0.6,0.2-1c0,0,0.1-0.1,0.1-0.1c0,0,0-0.1,0.1-0.1c0,0,0,0,0-0.1
					c0-0.1,0.1-0.2,0.2-0.2c0,0,0,0,0,0c0,0,0,0,0,0c0,0,0.1-0.1,0.1-0.1c0,0,0,0,0.1-0.1c0-0.1,0.1-0.1,0.1-0.1
					c0.1-0.2,0.4-0.4,0.6-0.6c0.2-0.1,0.3-0.2,0.5-0.4c0,0,0.1,0,0.1-0.1c0,0,0,0,0.1,0c0,0,0,0,0,0c0,0,0.1,0,0.1-0.1
					c0,0,0,0,0.1,0c0,0,0,0,0,0c0,0,0,0,0,0l0,0c0,0,0,0,0.1,0c0.1,0,0,0,0.1,0c0,0,0,0,0,0c0,0,0,0,0,0c0,0,0,0,0.1,0l0,0
					c0,0,0,0,0,0c0,0,0,0,0,0l0,0l0,0c0,0,0,0,0,0c0,0,0,0,0,0l0,0"/>
				<path id="XMLID_7510_" class="st6" d="M568.6,105.2L568.6,105.2c0,0,0-0.1,0-0.1l0,0c0,0,0-0.1,0-0.1l0,0c0,0,0-0.1,0-0.1l0,0
					c0,0,0-0.1,0-0.1l0,0c-0.1-0.3-0.2-0.6-0.2-0.9l0,0c-0.1-0.3-0.1-0.6-0.2-0.9"/>
				<path id="XMLID_7509_" class="st6" d="M570.7,121.7c0,0.2,0,0.3,0,0.5c0,0,0,0.1,0,0.1c0,0,0,0.1,0,0.1c-0.1,0.4-0.3,0.7-0.5,1
					c0,0,0,0,0,0c0,0,0,0,0,0c0,0,0,0,0,0.1c-0.1,0.1-0.1,0.1-0.2,0.2c-0.3,0.3-0.7,0.6-1,0.8c-0.1,0-0.1,0.1-0.2,0.1
					c-1.6,1-3.8,0.6-5.3-0.1c-0.3-0.2-0.7-0.5-1-0.7c0,0,0,0,0,0c0,0,0,0-0.1-0.1c0,0-0.1-0.1-0.1-0.1c0,0,0,0,0,0
					c0,0,0-0.1-0.1-0.1c-0.2-0.3-0.4-0.6-0.5-0.9c0,0,0,0,0-0.1c0-0.2-0.1-0.5-0.1-0.8"/>
				<path id="XMLID_7508_" class="st6" d="M562,115L562,115L562,115L562,115L562,115L562,115L562,115L562,115L562,115L562,115
					L562,115L562,115L562,115L562,115l0,0.1l0,0v0l0,0c0,0,0,0.1,0,0.1l0,0l0,0c0,0,0,0.1,0,0.1l0,0c0,0,0,0.1,0,0.1l0,0
					c0,0.1,0,0.2,0,0.3l0,0c0,0.1,0,0.1,0,0.2l0,0v0.1l0,0c0,0,0,0.1,0,0.1l0,0c0,0,0,0.1,0,0.1l0,0c0,0,0,0.1,0,0.1l0,0
					c0,0,0,0.1,0,0.1l0,0c0,0,0,0.1,0,0.1l0,0c0,0,0,0.1,0,0.1l0,0v0.1l0,0v0h0c0,0,0,0,0,0.1l0,0l0,0l0,0l0,0v0l0,0v0h0
					c0,0,0,0,0,0.1h0l0,0c0,0,0,0,0,0.1h0l0,0v0h0v0l0,0l0,0l0,0l0,0v0h0v0l0,0l0,0l0,0c0,0,0,0,0,0v0l0,0c0,0,0,0,0,0v0
					c0,0,0,0,0,0l0,0v0h0l0,0v0c0,0,0,0,0,0v0h0l0,0c0,0,0,0,0,0v0c0,0,0,0,0,0l0,0l0,0v0h0c0,0,0,0,0,0l0,0l0,0c0,0,0,0,0,0
					s0,0,0,0l0,0v0h0l0,0c0,0,0,0,0,0c0,0,0,0,0,0v0h0"/>
				<path id="XMLID_7507_" class="st6" d="M561.2,117.7L561.2,117.7c0.1,0,0.2-0.1,0.3-0.1l0,0c0.1,0,0,0,0.1,0c0,0,0,0,0.1,0
					c0,0,0-0.1,0.1-0.1c0,0,0,0,0,0l0,0l0,0c0,0,0,0,0,0l0,0c0,0,0,0,0,0l0,0c0,0,0-0.1,0.1-0.1c0,0,0,0,0,0l0,0
					c0,0,0.1-0.1,0.1-0.2c0,0,0,0,0-0.1l0,0c0,0,0-0.1,0-0.1c0.1-0.2,0.1-0.3,0.1-0.5c0-0.1,0.1-0.3,0.1-0.5c0.1-0.3,0-0.7,0-1"/>
				<path id="XMLID_7506_" class="st6" d="M563,115.6c0,0.8-0.1,1.8,0,2.6c0,0.1,0.1,0.3,0.1,0.4c0,0.1,0.1,0.2,0.1,0.3c0,0,0,0,0,0
					l0,0c0,0,0,0,0,0c0,0,0,0,0,0c0,0,0.1,0.1,0.1,0.1c0,0.1,0,0.1,0.1,0.1c0,0,0,0,0,0.1c0,0,0.1,0.1,0.1,0.1c0,0,0,0,0,0
					c0,0,0,0,0,0c0,0,0,0,0,0c0,0,0,0.1,0.1,0.1c0,0,0,0.1,0.1,0.1c0,0,0,0,0,0c0,0,0,0,0,0c0,0,0.1,0.1,0.1,0.1c0,0,0.1,0,0.1,0.1
					c0.1,0,0.1,0.1,0.2,0.1c0,0,0.1,0,0.1,0.1c0,0,0,0,0.1,0c0,0,0.1,0,0.1,0c0,0,0,0,0.1,0c0.1,0,0.2,0,0.2,0.1c0,0,0.1,0,0.1,0
					c0.5,0,1.1,0,1.4-0.3c0,0,0,0,0.1,0c0,0,0,0,0,0c0,0,0.1-0.1,0.1-0.1c0,0,0.1-0.1,0.1-0.1c0,0,0,0,0.1-0.1
					c0.1-0.1,0.1-0.1,0.2-0.2c0,0,0,0,0-0.1c0,0,0-0.1,0.1-0.1c0,0,0,0,0-0.1c0,0,0.1-0.1,0.1-0.1c0,0,0-0.1,0.1-0.1
					c0-0.1,0.1-0.2,0.1-0.2c0,0,0-0.1,0.1-0.1"/>
				<path id="XMLID_7505_" class="st6" d="M561.8,104.2c0.3-0.7,0.7-1.7,0.7-2.4c0-1.1-0.7-2.4-1.3-3.4"/>
				<path id="XMLID_7504_" class="st6" d="M561.9,114.1L561.9,114.1L561.9,114.1L561.9,114.1L561.9,114.1L561.9,114.1
					C561.9,114.2,561.9,114.2,561.9,114.1L561.9,114.1c0.1,0.1,0.1,0.1,0.1,0.1l0,0l0,0h0v0h0l0,0l0,0c0.1,0,0.1,0.1,0.2,0.1h0
					c0,0,0,0,0.1,0.1h0c0.1,0.1,0.2,0.1,0.3,0.2l0,0l0,0c0,0,0,0,0,0l0,0l0,0c0,0,0,0,0,0l0,0l0,0c0,0,0,0,0,0l0,0h0l0,0"/>
				<path id="XMLID_7503_" class="st6" d="M563.2,113.4C563.2,113.4,563.1,113.4,563.2,113.4L563.2,113.4l-0.1,0c0,0,0,0,0,0
					s0,0,0,0c0,0,0,0,0,0l0,0l0,0c0,0,0,0,0,0s0,0,0,0s0,0,0,0l0,0v0h0l0,0l0,0c0,0,0,0,0,0l0,0c0,0,0,0,0,0v0h0l0,0l0,0l0,0
					c0,0,0,0,0,0v0l0,0l0,0c0,0,0,0,0,0l0,0l0,0v0c0,0,0,0,0,0l0,0"/>
				<path id="XMLID_7502_" class="st6" d="M563.1,102.2c0.1-0.2,0.1-0.3,0.3-0.5c0.1,0,0.9-0.3,1.1-0.3c0.6,0,1.3,0.1,1.9,0.4
					c1.5,0.7,1,2.3,0.9,3.7l0,0l0,0l0,0c0,0,0,0,0,0l0,0l0,0l0,0l0,0l0,0l0,0l0,0"/>
				<path id="XMLID_7501_" class="st6" d="M566.9,131.4c-0.2,0-0.3,0.1-0.5,0.1c-0.2,0-0.5,0-0.8,0c0,0-0.1,0-0.1,0
					c-0.1,0-0.2,0-0.3-0.1c-0.1,0-0.1,0-0.2-0.1c-0.1,0-0.1-0.1-0.2-0.1c-0.1,0-0.1-0.1-0.2-0.1"/>
				<path id="XMLID_7499_" class="st6" d="M565.6,160.8L565.6,160.8L565.6,160.8l0.9,0.1"/>
				<path id="XMLID_7498_" class="st6" d="M566.4,160.9l0,1.8"/>
				<path id="XMLID_7497_" class="st6" d="M565.9,113.8c0.4,0.1,0.7,0.3,1,0.5c0,0,0.1,0.1,0.1,0.1l0,0c0,0,0,0,0,0l0,0c0,0,0,0,0,0
					c0.1,0.3,0.2,0.6,0.2,1"/>
				<path id="XMLID_7496_" class="st6" d="M567.3,115.5c0.1,0,0.3-0.1,0.4-0.1l0,0c0.3,0,0.7-0.2,1-0.3"/>
				<path id="XMLID_7495_" class="st6" d="M568.6,115.1c0-0.1,0-0.1,0.1-0.1c0,0,0-0.1,0-0.1c0.5-1,1.4-1.5,2.3-2.4"/>
				<path id="XMLID_7494_" class="st6" d="M567.3,115.5c0-0.3-0.1-0.8-0.3-1c0,0,0,0,0,0l0,0c-0.3-0.2-0.6-0.4-0.9-0.5"/>
				<path id="XMLID_7493_" class="st6" d="M567.2,106.8L567.2,106.8C567.2,106.8,567.2,106.8,567.2,106.8
					C567.2,106.8,567.2,106.8,567.2,106.8C567.2,106.8,567.2,106.8,567.2,106.8c0.1,0,0.1,0,0.1,0l0,0c0,0,0,0,0,0h0v0
					c0,0,0,0,0.1,0c0.1,0,0.3,0,0.4-0.1l0,0c0.1,0,0.2,0,0.3-0.1c0.1,0,0.1-0.1,0.2-0.1l0,0c0.1,0,0.1,0,0.1,0l0,0h0.1l0,0
					c0.1,0,0.2,0,0.3-0.1"/>
				<path id="XMLID_31_" class="st6" d="M572.8,106.6c-0.1-0.4-0.3-0.8-0.4-1.2c-0.2-0.5-0.3-1-0.5-1.5"/>
				<path id="XMLID_23_" class="st6" d="M569.8,108.8c-0.1,0.3,0.5,0.8,0.6,0.9c0.3,0.2,0.8,0.4,1.2,0.1c0.1,0,0.2-0.1,0.3-0.1
					c0.1,0,0.6-0.5,0.5-0.6c0.4-0.5,0.7-1.6,0.3-2.5"/>
				<path id="XMLID_7492_" class="st6" d="M569,106.3L569,106.3c0.1,0.3,0.2,0.6,0.3,1c0.1,0.3,0.2,0.6,0.3,1c0,0.2,0.1,0.4,0.2,0.6
					"/>
				<path id="XMLID_7491_" class="st6" d="M567.3,116.2L567.3,116.2c0,0.2,0,0.4,0,0.5l0,0c0,0.3,0,0.6,0,1l0,0c0,0.1,0,0.2,0,0.3
					l0,0v0l0,0c0,0.1,0,0.2,0,0.2l0,0l0,0c0,0,0,0.1,0,0.1h0v0l0,0c0,0,0,0,0,0.1l0,0v0l0,0c0,0,0,0.1,0,0.1"/>
				<path id="XMLID_7490_" class="st6" d="M567.3,118.5L567.3,118.5C567.3,118.5,567.3,118.5,567.3,118.5L567.3,118.5L567.3,118.5
					L567.3,118.5v-0.1l0,0v0l0,0v0l0,0c0,0,0,0,0-0.1h0v0l0,0c0-0.2,0-0.3,0-0.5l0,0v-0.1l0,0c0-0.3,0-0.6,0-1l0,0
					c0-0.2,0-0.4,0-0.6"/>
				<path id="XMLID_7489_" class="st6" d="M568.4,115.9c-0.1,0.9,0,1.9,0.3,2.5c0.1,0.1,0.1,0.1,0.1,0.2c0,0,0.1,0,0.1,0.1
					c0,0,0,0,0,0c0,0,0.1,0.1,0.1,0.1c0,0,0,0,0,0l0,0c0.1,0,0,0,0.1,0c0.1,0,0.2,0.1,0.3,0.1c0,0,0,0,0.1,0c0,0,0,0,0,0
					c0,0,0,0,0,0l0,0c0,0,0,0,0.1,0c0,0,0,0,0,0l0,0c0,0,0,0,0,0l0,0c0,0,0,0,0,0l0,0c0.1,0,0.3,0,0.4,0c0.1,0,0.1,0,0.1,0l0,0
					c0,0,0.1,0,0.1,0c0,0,0,0,0.1,0c0.1,0,0.1,0,0.1-0.1c0,0,0.1,0,0.1-0.1c0,0,0,0,0,0c0.8-0.6,1.1-1.7,0.9-3c0,0,0,0,0-0.1l0,0
					c0,0,0,0,0,0c0,0,0,0,0,0"/>
				<path id="XMLID_7488_" class="st6" d="M567.3,105.5L567.3,105.5C567.3,105.5,567.3,105.5,567.3,105.5l0.1,0c0,0,0,0,0.1,0
					c0,0,0,0,0,0c0,0,0,0,0.1,0l0,0c0,0,0.1,0,0.1,0c0.1,0,0.2-0.1,0.4-0.1l0,0h0.1l0,0c0.1,0,0.2,0,0.3-0.1l0,0l0,0l0,0
					c0,0,0,0,0,0s0,0,0,0l0,0l0,0l0,0c0,0,0,0,0,0s0,0,0,0l0,0"/>
				<path id="XMLID_35_" class="st6" d="M568.2,102.4C568.2,102.4,568.2,102.4,568.2,102.4c0.1-0.1,0.1-0.2,0.1-0.2
					c0-0.1,0.1-0.2,0.1-0.2c0,0,0,0,0-0.1c0,0,0,0,0-0.1c0,0,0,0,0.1-0.1c0,0,0-0.1,0.1-0.1c0,0,0,0,0,0c0,0,0,0,0.1-0.1
					c0-0.1,0.1-0.1,0.1-0.1c0,0,0,0,0,0c0,0,0,0,0,0c0-0.1,0.1-0.1,0.1-0.2c0.1-0.1,0.1-0.1,0.2-0.2c0.2-0.1,0.3-0.3,0.5-0.5
					c0.2-0.1,0.3-0.2,0.5-0.4l0,0c0,0,0,0,0,0c0,0,0,0,0,0c0,0,0,0,0.1,0l0,0c0,0,0,0,0,0c0,0,0,0,0.1,0l0,0c0,0,0,0,0,0
					c0,0,0,0,0,0c0,0,0,0,0,0l0,0l0,0c0,0,0,0,0.1-0.1l0,0c0,0,0.1,0,0.1,0l0,0c0,0,0,0,0,0c0.1,0,0,0,0.1,0c0,0,0,0,0,0s0,0,0,0
					l0,0c0,0,0,0,0.1,0"/>
				<path id="XMLID_7487_" class="st6" d="M568.6,105.2c-0.2-0.9-0.5-1.9-0.5-2.8"/>
				<path id="XMLID_7486_" class="st6" d="M569.2,118.8C569.2,118.8,569.2,118.8,569.2,118.8L569.2,118.8L569.2,118.8L569.2,118.8
					C569.2,118.8,569.2,118.8,569.2,118.8L569.2,118.8L569.2,118.8c-0.1-0.1-0.1-0.1-0.2-0.1l0,0c0,0,0,0,0,0c0,0,0,0,0,0
					c0,0,0-0.1-0.1-0.1c0,0,0,0,0,0c0,0,0,0,0,0c0,0,0,0-0.1-0.1c0-0.1-0.1-0.1-0.1-0.1c0-0.1-0.1-0.2-0.1-0.3
					c-0.2-0.7-0.1-1.4-0.1-2.2"/>
				<path id="XMLID_7485_" class="st6" d="M570.9,112.6c-0.9,0.6-1.7,1.4-2.2,2.2c0,0,0,0,0,0c0,0,0,0.1-0.1,0.1
					c0,0.1-0.1,0.2-0.1,0.3"/>
				<path id="XMLID_7484_" class="st6" d="M568.9,106.3L568.9,106.3c0.1,0.3,0.2,0.6,0.3,0.9c0.1,0.3,0.2,0.7,0.3,1
					c0.1,0.1,0.2,0.4,0.2,0.5l0,0c0,0,0,0,0,0.1l0,0c0,0,0,0,0,0l0,0v0l0,0l0,0c0,0,0,0,0,0v0l0,0c0,0,0,0,0,0l0,0l0,0v0l0,0l0,0
					l0,0l0,0l0,0l0,0v0l0,0l0,0c0,0,0,0,0,0l0,0l0,0v0.1c0,0,0.1,0,0.1,0.1v0h0v0l0,0c0,0,0,0.1,0.1,0.1v0.1l0,0c0,0,0,0,0.1,0v0h0
					v0h0v0l0,0h0v0h0v0h0v0l0,0c0,0,0,0,0.1,0v0h0v0c0,0,0,0,0.1,0v0l0,0h0v0c0,0,0,0,0.1,0"/>
				<path id="XMLID_7483_" class="st6" d="M570.9,100C570.9,100,570.9,100,570.9,100C570.9,100,571,100,570.9,100L570.9,100
					c0.1,0.1,0.1,0.1,0.1,0.2l0,0c0,0,0,0,0,0.1c0,0,0,0.1,0,0.1c0.1,0.2,0,0.5,0.1,0.7c0,0.3,0.1,0.6,0.2,0.9
					c0.1,0.3,0.1,0.6,0.2,0.9"/>
				<path id="XMLID_7482_" class="st6" d="M571.9,101.7c0,0,0-0.1-0.1-0.1c0-0.1,0-0.1-0.1-0.1c0,0,0-0.1-0.1-0.1
					c-0.2-0.5-0.3-1.1-0.5-1.6c-0.1-0.6-0.1-1.3-0.2-1.9c0-0.1,0-0.1,0-0.2"/>
				<path id="XMLID_7481_" class="st6" d="M571.8,101.7c0-0.1-0.1-0.1-0.1-0.2c-0.2-0.5-0.5-1.1-0.5-1.6c0-0.1-0.1-0.2-0.1-0.4
					c0-0.6-0.1-1.3-0.1-1.8"/>
				<path id="XMLID_7480_" class="st6" d="M571.6,112.9C571.6,112.9,571.6,112.9,571.6,112.9L571.6,112.9
					C571.6,113,571.5,113,571.6,112.9L571.6,112.9L571.6,112.9c0,0.1,0,0.1,0,0.1c0,0,0,0,0,0c-0.2,0.6-0.2,1.1-0.2,1.7
					c0,0.3,0.1,0.8,0.2,1"/>
				<path id="XMLID_7479_" class="st6" d="M571.5,113.2L571.5,113.2c0,0.1,0,0.1,0,0.2l0,0c0,0,0,0.1,0,0.1l0,0c0,0,0,0.1,0,0.1l0,0
					c0,0.1,0,0.2,0,0.2l0,0l0,0c0,0.1,0,0.1,0,0.2l0,0l0,0c0,0,0,0,0,0.1l0,0c0,0,0,0,0,0.1l0,0l0,0l0,0c0,0,0,0,0,0.1l0,0
					c0,0,0,0,0,0.1l0,0l0,0c0,0,0,0,0,0.1l0,0v0l0,0l0,0l0,0v0l0,0l0,0v0l0,0l0,0v0l0,0l0,0v0l0,0l0,0v0l0,0l0,0v0l0,0l0,0l0,0l0,0
					v0l0,0v0l0,0l0,0l0,0l0,0l0,0l0,0l0,0v0l0,0l0,0h0v0l0,0l0,0v0h0v0l0,0l0,0l0,0c0,0,0,0,0,0v0l0,0l0,0l0,0c0,0,0,0,0,0l0,0v0
					l0,0l0,0h0"/>
				<path id="XMLID_7478_" class="st6" d="M572.1,115L572.1,115L572.1,115L572.1,115L572.1,115L572.1,115L572.1,115
					C572.1,115,572.1,115,572.1,115L572.1,115L572.1,115L572.1,115L572.1,115C572.1,115,572.1,115,572.1,115L572.1,115L572.1,115
					C572,115,572,115,572.1,115L572.1,115c-0.1-0.1-0.1-0.1-0.1-0.1c0,0,0,0,0,0l0,0c0,0,0,0,0,0l0,0c0,0,0-0.1-0.1-0.1
					c0,0,0,0,0-0.1c0,0,0-0.1-0.1-0.1c0,0,0,0,0-0.1c0-0.1-0.1-0.1-0.1-0.2c-0.1-0.5-0.2-1.1-0.1-1.7"/>
				<path id="XMLID_7477_" class="st6" d="M571.6,102.7L571.6,102.7L571.6,102.7L571.6,102.7L571.6,102.7L571.6,102.7
					C571.6,102.7,571.6,102.7,571.6,102.7L571.6,102.7L571.6,102.7L571.6,102.7L571.6,102.7L571.6,102.7L571.6,102.7L571.6,102.7
					L571.6,102.7C571.6,102.6,571.6,102.6,571.6,102.7c0.1-0.2,0.1-0.2,0.1-0.3l0,0c0,0,0,0,0-0.1l0,0c0,0,0-0.1,0-0.1l0,0
					c0-0.1,0-0.1,0.1-0.2l0,0l0,0c0,0,0,0,0-0.1l0,0c0,0,0,0,0-0.1c0,0,0,0,0,0v0l0,0c0,0,0,0,0-0.1l0,0c0,0,0,0,0-0.1"/>
				<path id="XMLID_7476_" class="st6" d="M571.9,103.9L571.9,103.9c0-0.1,0.1-0.2,0.1-0.2c0,0,0,0,0-0.1l0,0v-0.1l0,0
					c0-0.1,0-0.2,0.1-0.2l0,0c0-0.1,0-0.2,0.1-0.4l0,0c0,0,0-0.1,0-0.1l0,0v-0.1l0,0v0l0,0v0l0,0l0,0v0l0,0l0,0l0,0v0l0,0l0,0v0l0,0
					v0"/>
				<path id="XMLID_7475_" class="st6" d="M572.2,102.5L572.2,102.5c0,0.1,0.3,0.6,0.4,0.7c0,0.1,0.4,0.6,0.4,0.7
					c0,0,0.1,0.1,0.1,0.1c0.1,0.1,0.1,0.2,0.2,0.3c0,0,0.1,0,0.1,0.1l0,0c0,0,0,0,0,0l0,0l0,0c0,0,0,0,0,0c0,0,0,0,0,0l0,0
					c0,0,0,0,0,0l0,0c0,0,0,0,0,0c0,0,0.1,0.1,0.1,0.1c0.1,0,0,0,0.1,0l0,0l0,0c0,0,0,0,0,0l0,0c0,0,0,0,0,0l0,0c0,0,0,0,0,0l0,0
					l0,0c0,0,0,0,0,0l0,0l0,0l0,0h0"/>
				<path id="XMLID_7474_" class="st6" d="M573.7,104.7L573.7,104.7C573.7,104.7,573.7,104.7,573.7,104.7L573.7,104.7L573.7,104.7
					C573.7,104.7,573.7,104.7,573.7,104.7C573.7,104.6,573.7,104.6,573.7,104.7L573.7,104.7c-0.1,0-0.1,0-0.1-0.1l0,0l0,0l0,0
					c0,0,0,0,0,0l0,0l0,0l0,0c0,0,0,0,0,0l0,0l0,0c-0.1-0.1-0.1-0.1-0.2-0.2l0,0c0,0,0,0,0,0l0,0c0,0,0,0,0,0l0,0l0,0c0,0,0,0,0,0
					l0,0c0,0,0,0,0,0c0-0.1-0.1-0.1-0.1-0.2c-0.3-0.4-0.7-0.9-0.9-1.5"/>
				<path id="XMLID_7473_" class="st6" d="M558.6,109.3l-0.1-0.3"/>
				<path id="XMLID_7472_" class="st6" d="M566.9,109.8l0-0.2L566.9,109.8L566.9,109.8"/>
				<path id="XMLID_7471_" class="st6" d="M559.3,102.5L559.3,102.5L559.3,102.5L559.3,102.5"/>
				<path id="XMLID_7470_" class="st6" d="M559.6,125.7l0-0.5"/>
				<path id="XMLID_7469_" class="st6" d="M562.7,113.6L562.7,113.6"/>
				<path id="XMLID_7468_" class="st6" d="M562.9,114.8c-0.4-0.2-0.8-0.4-1.1-0.7h0.1"/>
				<path id="XMLID_7467_" class="st6" d="M559.4,108.2L559.4,108.2"/>
				<path id="XMLID_7466_" class="st6" d="M559.7,101.9L559.7,101.9"/>
				<path id="XMLID_7465_" class="st6" d="M560.5,114l0-0.1"/>
				<path id="XMLID_7464_" class="st6" d="M561.2,117.7L561.2,117.7"/>
				<path id="XMLID_7463_" class="st6" d="M560.5,113.9l0.1-0.4"/>
				<path id="XMLID_7462_" class="st6" d="M560.7,112.8L560.7,112.8l-0.1-0.3"/>
				<path id="XMLID_7461_" class="st6" d="M560.4,100.8c-0.1,0.2-0.2,0.4-0.4,0.7"/>
				<path id="XMLID_7460_" class="st6" d="M560.5,100.8l-0.1,0.3"/>
				<path id="XMLID_7459_" class="st6" d="M560.7,100.1L560.7,100.1c-0.1,0.3-0.2,0.5-0.2,0.8c0.1-0.4,0.3-0.9,0.4-1.3"/>
				<path id="XMLID_7458_" class="st6" d="M560.9,123l-0.1,0.1L560.9,123"/>
				<path id="XMLID_7457_" class="st6" d="M560.7,113.2L560.7,113.2L560.7,113.2"/>
				<path id="XMLID_7456_" class="st6" d="M560.6,113.3l0,0.1"/>
				<path id="XMLID_7455_" class="st6" d="M560.6,112.5l0.2,0.2l0-0.1"/>
				<path id="XMLID_7454_" class="st6" d="M560.6,112.5l0.1,0.2"/>
				<path id="XMLID_7453_" class="st6" d="M560.7,112.8L560.7,112.8"/>
				<path id="XMLID_7452_" class="st6" d="M560.7,113.1l0-0.2"/>
				<path id="XMLID_7451_" class="st6" d="M560.7,100.1l0.1-0.3"/>
				<path id="XMLID_7450_" class="st6" d="M567.3,105.6c0.4,0,1.1-0.1,1.4-0.4"/>
				<path id="XMLID_7449_" class="st6" d="M570.7,99.8l0.1,0.1"/>
				<path id="XMLID_7448_" class="st6" d="M561.2,98.4L561.2,98.4L561.2,98.4L561.2,98.4"/>
				<path id="XMLID_7447_" class="st6" d="M561.2,98.4L561.2,98.4"/>
				<path id="XMLID_7446_" class="st6" d="M561.7,130.2v-0.5"/>
				<path id="XMLID_7445_" class="st6" d="M561.6,122.2l0-0.4"/>
				<path id="XMLID_7444_" class="st6" d="M561.4,122.4l-0.1,0.2v0"/>
				<path id="XMLID_7443_" class="st6" d="M561.5,122.1l-0.1,0.3"/>
				<path id="XMLID_7442_" class="st6" d="M561.2,122.7L561.2,122.7l0.1-0.2"/>
				<path id="XMLID_7441_" class="st6" d="M561.6,120.8l0.1,0.2"/>
				<path id="XMLID_7440_" class="st6" d="M561.6,121.2L561.6,121.2"/>
				<path id="XMLID_7439_" class="st6" d="M561.4,120.3l0.2,0.3"/>
				<path id="XMLID_7438_" class="st6" d="M561.6,120.8l-0.1-0.3"/>
				<path id="XMLID_7437_" class="st6" d="M562.1,115L562.1,115"/>
				<path id="XMLID_7436_" class="st6" d="M562.1,115c0.3,0.2,0.6,0.4,0.9,0.6"/>
				<path id="XMLID_7435_" class="st6" d="M567.3,118.5L567.3,118.5"/>
				<path id="XMLID_7434_" class="st6" d="M561.8,104.2L561.8,104.2"/>
				<path id="XMLID_7433_" class="st6" d="M561.2,98l0,0.2"/>
				<path id="XMLID_7432_" class="st6" d="M562.1,130.5L562.1,130.5"/>
				<path id="XMLID_7431_" class="st6" d="M561.8,104.2c0.3,0.3,0.7,0.5,1.1,0.7"/>
				<path id="XMLID_7430_" class="st6" d="M562.9,114.8c0-0.4-0.3-0.7-0.3-1l0,0c0,0,0,0,0,0c0-0.1,0.1-0.2,0.2-0.2
					c0.1-0.1,0.3-0.1,0.5-0.1"/>
				<path id="XMLID_7429_" class="st6" d="M563.1,102.2L563.1,102.2"/>
				<path id="XMLID_7428_" class="st6" d="M564.5,131v-0.1l2.5,0.4v0.1"/>
				<path id="XMLID_7427_" class="st6" d="M564.5,130.9h-0.1"/>
				<path id="XMLID_7426_" class="st6" d="M565.2,138.1v3.5"/>
				<path id="XMLID_7425_" class="st6" d="M565.2,131.4L565.2,131.4l-0.1,5.2"/>
				<path id="XMLID_7424_" class="st6" d="M565.1,131.3l-0.1,0"/>
				<path id="XMLID_7423_" class="st6" d="M565.7,162.6v-1.5l0-0.2l-0.1-0.1l0,0"/>
				<path id="XMLID_7422_" class="st6" d="M566.4,160.9l0.1-0.1L566.4,160.9"/>
				<path id="XMLID_7421_" class="st6" d="M565.5,160.7L565.5,160.7"/>
				<path id="XMLID_7420_" class="st6" d="M567.3,115.5L567.3,115.5"/>
				<path id="XMLID_7419_" class="st6" d="M568.6,115.1L568.6,115.1"/>
				<path id="XMLID_7418_" class="st6" d="M566.5,160.8L566.5,160.8L566.5,160.8"/>
				<path id="XMLID_7417_" class="st6" d="M566.4,160.9L566.4,160.9L566.4,160.9"/>
				<path id="XMLID_7416_" class="st6" d="M566.6,160.8l0.3-0.3"/>
				<path id="XMLID_7415_" class="st6" d="M567,160.4L567,160.4"/>
				<path id="XMLID_7414_" class="st6" d="M567,138.1l0,3.5"/>
				<path id="XMLID_7413_" class="st6" d="M566.6,136.8v-5.3"/>
				<path id="XMLID_7412_" class="st6" d="M566.9,131.4c0.1,0,0.2,0,0.3-0.1l-0.3-0.1"/>
				<path id="XMLID_7411_" class="st6" d="M566.9,131.4l0.3-0.1l0,0"/>
				<path id="XMLID_7410_" class="st6" d="M566.9,109.8L566.9,109.8"/>
				<path id="XMLID_7409_" class="st6" d="M567.2,106.8c-0.1,0.9-0.2,1.9-0.3,2.8L567.2,106.8"/>
				<path id="XMLID_7408_" class="st6" d="M567.6,131.4l-0.4-0.1"/>
				<path id="XMLID_7407_" class="st6" d="M567.3,116.2c0.4-0.1,0.7-0.1,1.1-0.3"/>
				<path id="XMLID_7406_" class="st6" d="M567.3,115.5c0.5-0.1,0.9-0.2,1.4-0.3"/>
				<path id="XMLID_7405_" class="st6" d="M570.7,99.8l0.1,0L570.7,99.8"/>
				<path id="XMLID_7404_" class="st6" d="M568.4,115.9L568.4,115.9"/>
				<path id="XMLID_7403_" class="st6" d="M569.1,118.8L569.1,118.8"/>
				<path id="XMLID_7402_" class="st6" d="M570.6,121.5v0.3v-0.1"/>
				<path id="XMLID_7401_" class="st6" d="M570.7,122L570.7,122v-0.1"/>
				<path id="XMLID_7400_" class="st6" d="M570.6,121.5l0.1-0.4"/>
				<path id="XMLID_7399_" class="st6" d="M570.6,109.8L570.6,109.8"/>
				<path id="XMLID_7398_" class="st6" d="M571.3,122.9c-0.2-0.1-0.3-0.3-0.4-0.5"/>
				<path id="XMLID_7397_" class="st6" d="M571.1,122.7L571.1,122.7"/>
				<path id="XMLID_7396_" class="st6" d="M570.9,122.4L570.9,122.4"/>
				<path id="XMLID_7395_" class="st6" d="M570.8,122.2L570.8,122.2"/>
				<path id="XMLID_7394_" class="st6" d="M570.9,122.5l0.1,0.1L570.9,122.5"/>
				<path id="XMLID_7393_" class="st6" d="M571.1,122.6L571.1,122.6"/>
				<path id="XMLID_7392_" class="st6" d="M570.8,120.4l0.1-0.1"/>
				<path id="XMLID_7391_" class="st6" d="M570.7,120.6L570.7,120.6"/>
				<path id="XMLID_7390_" class="st6" d="M570.8,99.9L570.8,99.9"/>
				<path id="XMLID_7389_" class="st6" d="M571.6,102.8c0.1-0.3,0.2-0.7,0.3-1h-0.1"/>
				<path id="XMLID_7388_" class="st6" d="M571,97.7l-0.1-0.6"/>
				<path id="XMLID_7387_" class="st6" d="M571.9,124L571.9,124"/>
				<path id="XMLID_7386_" class="st6" d="M571.5,113.5l0-0.3"/>
				<path id="XMLID_7385_" class="st6" d="M572,114.9l0.1,0.1l0.1,0l-0.1,0"/>
				<path id="XMLID_7384_" class="st6" d="M571.6,113.4v-0.2"/>
				<path id="XMLID_7383_" class="st6" d="M571.7,113.4v0.1"/>
				<path id="XMLID_7382_" class="st6" d="M571.5,113.2V113"/>
				<path id="XMLID_7381_" class="st6" d="M571.5,112.7L571.5,112.7l0.1-0.2l-0.2,0.3"/>
				<path id="XMLID_7380_" class="st6" d="M571.6,112.7l-0.1,0.2l0.1-0.3h0"/>
				<path id="XMLID_7379_" class="st6" d="M571.6,113.1L571.6,113.1v-0.2"/>
				<path id="XMLID_7378_" class="st6" d="M571.7,112.5L571.7,112.5"/>
				<path id="XMLID_7377_" class="st6" d="M571.7,100.5l-0.2-0.5"/>
				<path id="XMLID_7376_" class="st6" d="M572.2,115L572.2,115"/>
				<path id="XMLID_7375_" class="st6" d="M572.2,114.7L572.2,114.7"/>
				<path id="XMLID_7374_" class="st6" d="M573.8,104.7L573.8,104.7L573.8,104.7"/>
				<path id="XMLID_7373_" class="st6" d="M571.9,100.9L571.9,100.9"/>
				<path id="XMLID_7372_" class="st6" d="M572.6,126.8l0-0.2"/>
				<path id="XMLID_7371_" class="st6" d="M572.5,111.5l0.3-0.5l0,0"/>
				<path id="XMLID_7370_" class="st6" d="M572.7,111.1L572.7,111.1"/>
				<path id="XMLID_7369_" class="st6" d="M572.8,111.1l-0.1,0.1"/>
				<path id="XMLID_7368_" class="st6" d="M572.8,111.1L572.8,111.1"/>
				<path id="XMLID_7367_" class="st6" d="M573.8,104.3L573.8,104.3"/>
				<path id="XMLID_7366_" class="st6" d="M566.9,131.4c-0.5,0.2-1.2,0.1-1.7-0.1"/>
				<path id="XMLID_7365_" class="st6" d="M570.9,112.7L570.9,112.7c0.6-0.5,1.2-1,1.8-1.5h0l0,0"/>
				<path id="XMLID_7364_" class="st6" d="M570.9,112.7L570.9,112.7c0.5-0.5,1.1-1,1.7-1.4"/>
				<path id="XMLID_7363_" class="st6" d="M559.3,110.8L559.3,110.8C559.3,110.8,559.3,110.8,559.3,110.8l-0.1-0.1
					c0,0-0.1-0.1-0.1-0.1v-0.1c0,0-0.1-0.1-0.1-0.1c0,0,0,0-0.1-0.1v-0.1c0,0,0,0-0.1-0.1v0c0,0-0.1-0.1-0.1-0.1c0,0,0,0-0.1-0.1
					c0,0,0-0.1,0-0.1l0,0v0l0,0v0l0,0v0l0,0"/>
				<path id="XMLID_7362_" class="st6" d="M559.6,111.2L559.6,111.2c-0.4-0.6-0.7-1.2-1-1.9l0,0v-0.1l0,0c0-0.1,0-0.1,0-0.2"/>
				<path id="XMLID_7361_" class="st6" d="M563.3,113.5L563.3,113.5c0.9-0.1,1.8,0.1,2.6,0.4"/>
				<path id="XMLID_7360_" class="st6" d="M563.3,113.5L563.3,113.5c0.9-0.1,1.9,0.1,2.8,0.5"/>
				<path id="XMLID_7359_" class="st6" d="M558.5,109.1c-0.5-2.1-0.5-4.7,0.8-6.5"/>
				<path id="XMLID_7358_" class="st6" d="M559.3,102.5L559.3,102.5L559.3,102.5L559.3,102.5L559.3,102.5
					C559.3,102.5,559.3,102.5,559.3,102.5L559.3,102.5L559.3,102.5C559.3,102.4,559.3,102.4,559.3,102.5
					C559.3,102.4,559.3,102.4,559.3,102.5L559.3,102.5c0.9-1.3,1.5-2.5,1.8-4l0,0c0,0,0,0,0,0l0,0c0,0,0,0,0,0l0,0c0,0,0,0,0,0l0,0
					l0,0l0,0"/>
				<path id="XMLID_7357_" class="st6" d="M558.7,109.7c0.2,0.4,0.3,0.8,0.6,1.2c0.3,0.5,0.8,0.9,1.1,1.4c0,0,0.1,0.1,0.1,0.1
					c0,0,0,0,0,0c0,0,0.1,0.1,0.1,0.1"/>
				<path id="XMLID_7356_" class="st6" d="M560.6,112.5L560.6,112.5c0,0.1,0,0.1,0,0.2c0,0,0,0.1,0,0.2c0,0.2,0,0.3,0,0.5
					c0,0,0,0.1,0,0.1c0,0,0,0.1,0,0.1c-0.5,1-1,2.7-0.6,3.8c0,0.2,0.1,0.3,0.1,0.5c0.1,0.2,0.1,0.4,0.2,0.6c0,0.1,0.1,0.4,0.2,0.5
					c0,0.2,0.2,0.4,0.3,0.6c0.2,0.3,0.5,0.7,0.6,1l0,0c0,0,0,0,0,0c0,0,0,0,0,0l0,0c0,0,0,0,0,0c0.2,0.6,0.2,1.3,0,1.8l0,0
					c0,0.1,0,0.1-0.1,0.1l0,0c0,0,0,0,0,0l0,0l0,0c0,0,0,0,0,0.1c-0.1,0.1-0.1,0.1-0.2,0.2c0,0,0,0-0.1,0.1
					c-0.1,0.1-0.1,0.1-0.1,0.2c0,0-0.1,0.1-0.1,0.1"/>
				<path id="XMLID_59_" class="st6" d="M561.5,130.1L561.5,130.1c-0.6-1.4-1.3-2.7-1.9-4.1c0,0,0,0,0-0.1l0,0c0,0,0,0,0-0.1
					c0,0,0,0,0-0.1c0,0,0,0,0-0.1c0,0,0-0.1,0-0.1l0,0c0-0.1,0-0.2,0-0.3c0-0.1,0-0.1,0-0.2c0,0,0-0.1,0-0.1v0l0,0v0l0,0v0l0,0v0
					l0,0c0,0,0-0.1,0-0.1l0,0c0,0,0,0,0,0l0,0l0,0v0l0,0l0,0l0,0v0l0,0l0,0h0v0l0,0l0,0v0l0,0l0,0l0,0c0,0,0,0,0,0l0,0l0,0v0l0,0
					l0,0h0v0l0,0l0,0l0,0c0.2-0.3,0.4-0.6,0.6-0.9c0-0.1,0.1-0.1,0.1-0.2c0,0,0-0.1,0.1-0.1c0-0.1,0-0.1,0.1-0.1c0,0,0-0.1,0.1-0.1
					c0,0,0,0,0-0.1h0c0,0,0,0,0-0.1c0,0,0.1-0.1,0.1-0.1"/>
				<path id="XMLID_58_" class="st6" d="M562.2,130.6c-0.2,0-0.3-0.2-0.5-0.3c0,0,0,0-0.1-0.1l0,0c0,0,0,0,0,0c0,0-0.1-0.1-0.1-0.1"
					/>
				<path id="XMLID_7354_" class="st6" d="M564.3,130.9c-0.7-0.1-1.4-0.2-2.1-0.3"/>
				<path id="XMLID_7353_" class="st6" d="M567,93.2c-0.8-0.3-2,0-2.7,0.3c-0.7,0.3-1.3,0.8-1.8,1.3c0,0,0,0.1,0,0.1v0h0
					c0,0-0.1,0.1-0.1,0.1c-0.1,0-0.1,0.1-0.1,0.2c-0.1,0.1-0.2,0.3-0.3,0.5h0c0,0.1-0.1,0.2-0.1,0.3c-0.1,0.1-0.1,0.2-0.1,0.3
					c-0.1,0.2-0.1,0.5-0.2,0.7c-0.1,0.2,0,0.3-0.1,0.6c0,0.2-0.1,0.3-0.1,0.5"/>
				<path id="XMLID_39_" class="st6" d="M565.2,160.2l0.3,0.5"/>
				<path id="XMLID_7352_" class="st6" d="M565.2,154.1L565.2,154.1v6.2"/>
				<path id="XMLID_7351_" class="st6" d="M572.6,126.7c0,0.2,0,0.5,0,0.7c0,0,0,0,0,0l0,0c0,0.1,0,0.1,0,0.1c0,0.1-0.2,0.5-0.3,0.5
					"/>
				<path id="XMLID_48_" class="st6" d="M568.5,131.2l-0.4,0.2"/>
				<path id="XMLID_7350_" class="st6" d="M572.3,128L572.3,128c-1.3,1.1-2.5,2.1-3.8,3.2"/>
				<path id="XMLID_7348_" class="st6" d="M567,93.2L567,93.2L567,93.2L567,93.2C567,93.2,567,93.2,567,93.2
					C567,93.2,567,93.2,567,93.2L567,93.2L567,93.2C567,93.2,567.1,93.2,567,93.2c0.6,0,1.4,0.4,1.8,0.7c1.2,0.8,1.8,1.9,2.2,3.3
					c0.3,1.2,0.4,2.5,1,3.7c0.6,1.2,1.6,2.3,1.9,3.6l0,0c0,0,0,0,0,0c0,0,0,0,0,0l0,0c0,0,0,0,0,0"/>
				<path id="XMLID_7347_" class="st6" d="M573.8,104.7L573.8,104.7c0,0.1,0.1,0.2,0.1,0.3l0,0c0,0.1,0,0.2,0.1,0.3l0,0
					c0,0.1,0,0.2,0,0.3l0,0c0,0.1,0,0.3,0.1,0.4l0,0c0,0.2,0,0.4,0,0.7l0,0c0,0.1,0,0.3,0,0.4l0,0c0,0.1,0,0.2,0,0.3l0,0
					c-0.1,0.5-0.1,0.9-0.3,1.3l0,0c-0.1,0.4-0.3,0.9-0.5,1.3l0,0c-0.2,0.3-0.4,0.7-0.6,1"/>
				<path id="XMLID_7346_" class="st6" d="M572.8,111.1L572.8,111.1C572.8,111.1,572.8,111.2,572.8,111.1L572.8,111.1
					c-0.1,0.1-0.1,0.1-0.1,0.1v0l0,0v0h0l0,0v0c0,0-0.1,0.1-0.1,0.1l0,0c-0.1,0.1-0.1,0.2-0.2,0.3v0c-0.1,0-0.1,0.1-0.1,0.2l-0.1,0
					l0,0c0,0.1-0.1,0.1-0.2,0.2v0h0c0,0-0.1,0.1-0.1,0.1v0c0,0-0.1,0-0.1,0.1"/>
				<path id="XMLID_7345_" class="st6" d="M571.7,112.5c0,0.1,0,0,0,0.1c0,0,0,0.1,0,0.1c0,0,0,0.1,0,0.1c0,0.1,0,0,0,0.1
					c0,0,0,0.1,0,0.1c0,0.1,0,0.1,0,0.2c0,0,0,0,0,0.1c0.1,0.3,0.3,0.6,0.4,0.9c0,0,0.1,0.2,0.1,0.2c0,0.1,0.1,0.2,0.1,0.3
					c0,0,0,0,0,0c0,0,0,0,0,0.1c0,0,0,0,0,0.1l0,0l0,0c0,0,0,0,0,0l0,0l0,0c0,0,0,0,0,0l0,0l0,0c0,0,0,0,0,0"/>
				<path id="XMLID_7344_" class="st6" d="M572.2,115c0.4,2-0.1,3.9-1.3,5.4c0,0,0,0,0,0c0,0,0,0.1,0,0.1c0,0.1,0,0.1-0.1,0.1
					c-0.1,0.5-0.1,1.2,0.1,1.6c0,0,0,0.1,0.1,0.1"/>
				<path id="XMLID_7343_" class="st6" d="M570.9,122.4C570.9,122.4,570.9,122.4,570.9,122.4C570.9,122.4,570.9,122.4,570.9,122.4
					C570.9,122.5,571,122.5,570.9,122.4L570.9,122.4c0.1,0.1,0.1,0.1,0.1,0.1c0,0,0,0,0,0c0,0,0,0.1,0.1,0.1c0,0,0,0,0,0
					c0.8,0.9,1.1,2.6,1.6,4c0,0,0,0,0,0c0,0,0,0,0,0.1c0,0,0,0,0,0.1"/>
				<path id="XMLID_7342_" class="st6" d="M559.3,102.5L559.3,102.5"/>
				<path id="XMLID_7341_" class="st6" d="M561.1,98.5c0,0,0.1-0.1,0.1-0.1L561.1,98.5"/>
				<path id="XMLID_47_" class="st6" d="M564.6,135.5c0.1,0.2,0.3,0.6,0.3,0.9l0,0c0,0,0,0,0.1,0.1c0,0,0,0.1,0.1,0.1
					c0,0.1,0.2,0.1,0.3,0.2c0,0,0.1,0,0.1,0c0,0,0.1,0,0.1,0c0,0.1,0.2,0.1,0.2,0.1c0,0,0.1,0,0.1,0c0,0,0.1,0,0.1,0c0,0,0,0,0.1,0
					c0,0,0,0,0.1,0c0.1,0,0.2,0,0.3,0c0,0,0.1,0,0.1,0c0.1,0,0.2,0,0.2-0.1c0,0,0,0,0,0c0,0,0,0,0.1,0c0,0,0.2-0.1,0.2-0.1
					c0,0,0,0,0,0c0,0,0,0,0,0c0,0,0,0,0.1,0l0,0c0,0,0,0,0.1-0.1c0,0,0,0,0,0c0,0,0.2-0.2,0.2-0.2c0,0,0.1-0.1,0.1-0.1
					c0.1-0.1,0.1-0.2,0.2-0.2"/>
				<path id="XMLID_7340_" class="st6" d="M565.2,138.1v-1.5"/>
				<path id="XMLID_7339_" class="st6" d="M564.6,135.5v-4.4l-0.2-0.1l-0.1-0.1"/>
				<path id="XMLID_7338_" class="st6" d="M559.6,125.7L559.6,125.7"/>
				<path id="XMLID_7337_" class="st6" d="M561.2,98.4v-0.1"/>
				<path id="XMLID_7336_" class="st6" d="M561.2,98l0,0.3l0.1-0.5"/>
				<path id="XMLID_7335_" class="st6" d="M566.9,93.2L566.9,93.2"/>
				<path id="XMLID_46_" class="st6" d="M567,160.2v-6.1"/>
				<path id="XMLID_7334_" class="st6" d="M565.5,160.7v1.5l0.2,0.5l0.7,0.1l0.4-0.3v-1.5l0.1-0.2l0.1-0.2l0.1-0.1l0-0.1"/>
				<path id="XMLID_7333_" class="st6" d="M565.2,141.6v9.2"/>
				<path id="XMLID_7332_" class="st6" d="M567,150.7v-9.1"/>
				<path id="XMLID_7331_" class="st6" d="M568.1,131.4l-0.3,0l-0.2,0v4.6"/>
				<path id="XMLID_7330_" class="st6" d="M567,136.6v1.5"/>
				<path id="XMLID_7329_" class="st6" d="M573.9,104.6L573.9,104.6"/>
				<path id="XMLID_7328_" class="st6" d="M572.8,111.1L572.8,111.1L572.8,111.1"/>
				<path id="XMLID_7327_" class="st6" d="M572.2,114.9L572.2,114.9"/>
				<path id="XMLID_7318_" class="st6" d="M571.2,122.8L571.2,122.8L571.2,122.8"/>
				<path id="XMLID_7317_" class="st6" d="M571.1,122.7L571.1,122.7"/>
				<path id="XMLID_7316_" class="st6" d="M571.1,122.6L571.1,122.6"/>
				<path id="XMLID_7311_" class="st6" d="M558.7,109.7c-0.1-0.2-0.2-0.4-0.2-0.7"/>
			</g>
		</g>
	</g>
</g>
<g id="XMLID_10_">
	<g id="XMLID_5_">
		<path id="XMLID_26_" d="M813.4,3c14,0,25.5,11.4,25.5,25.5v538.3c0,14-11.4,25.5-25.5,25.5H28.5c-14,0-25.5-11.4-25.5-25.5V28.5
			C3,14.4,14.4,3,28.5,3H813.4 M813.4,0H28.5C12.8,0,0,12.8,0,28.5v538.3c0,15.7,12.8,28.5,28.5,28.5h784.9
			c15.7,0,28.5-12.8,28.5-28.5V28.5C841.9,12.8,829.1,0,813.4,0L813.4,0z"/>
	</g>
	<g id="XMLID_3_">
		<path id="XMLID_44_" d="M1.5,83.5V28.5c0-14.9,12.1-27,27-27h55.1v55.1c0,14.9-12.1,27-27,27H1.5z"/>
		<g id="XMLID_40_">
			<path id="XMLID_41_" d="M82,3v53.6C82,70.6,70.6,82,56.6,82H3V28.5C3,14.4,14.4,3,28.5,3H82 M85,0H28.5C12.8,0,0,12.8,0,28.5V85
				h56.6C72.2,85,85,72.2,85,56.6V0L85,0z"/>
		</g>
	</g>
	<g id="XMLID_6_">
		<path id="XMLID_7_" class="st4" d="M32.2,50.7c1-2.3,3.2-4.7,6.8-7.2c3.1-2.2,5.1-3.8,6-4.7c1.4-1.5,2.1-3.1,2.1-4.9
			c0-1.4-0.4-2.6-1.2-3.6s-1.9-1.4-3.4-1.4c-2,0-3.4,0.8-4.1,2.3c-0.4,0.9-0.7,2.3-0.8,4.2H31c0.1-2.9,0.6-5.2,1.6-7
			c1.8-3.4,5-5.1,9.5-5.1c3.6,0,6.5,1,8.6,3c2.1,2,3.2,4.6,3.2,7.9c0,2.5-0.8,4.8-2.3,6.7c-1,1.3-2.6,2.7-4.9,4.3l-2.7,1.9
			c-1.7,1.2-2.8,2-3.4,2.6s-1.1,1.1-1.6,1.9h14.8v5.9H30.7C30.7,55,31.3,52.7,32.2,50.7z"/>
	</g>
</g>
</svg>
