<?xml version="1.0" encoding="utf-8"?>
<!-- Generator: Adobe Illustrator 19.0.0, SVG Export Plug-In . SVG Version: 6.00 Build 0)  -->
<svg version="1.1" id="Layer_1" xmlns="http://www.w3.org/2000/svg" xmlns:xlink="http://www.w3.org/1999/xlink" x="0px" y="0px"
	 width="841.9px" height="595.3px" viewBox="0 0 841.9 595.3" style="enable-background:new 0 0 841.9 595.3;" xml:space="preserve"
	>
<style type="text/css">
	.st0{fill:none;stroke:#0B0620;stroke-width:0.5;stroke-linecap:round;stroke-linejoin:round;}
	.st1{display:none;fill:#E6E6E6;stroke:#000000;stroke-width:0.5;stroke-linecap:round;stroke-linejoin:round;}
	.st2{display:none;fill-opacity:0.118;}
	.st3{opacity:0;}
	.st4{display:none;opacity:0.2;enable-background:new    ;}
	.st5{display:none;fill:#F7FAE0;stroke:#000000;stroke-linecap:round;stroke-linejoin:round;}
	.st6{display:none;enable-background:new    ;}
	.st7{font-family:'ArialMT';}
	.st8{font-size:34.0157px;}
	.st9{fill:#FFFFFF;}
</style>
<g id="XMLID_1_">
	<g>
		<path id="XMLID_496_" class="st0" d="M446.4,523c84-40.6,84-40.6,168-81.1c1.6-0.8,1.6-0.8,3.1-1.7c12.7-7.3,12.7-7.3,25.4-14.7"
			/>
		<path id="XMLID_495_" class="st0" d="M509.1,519.9c-0.3,0.9-0.3,0.9-0.7,1.7c-1.2,1.9-1.2,1.9-2.5,3.7c-1.2,1.2-1.2,1.2-2.5,2.4
			c-1.6,1-1.6,0.9-3.2,1.9c-1.3,0.7-1.3,0.7-2.7,1.3c-1.6,0.4-1.6,0.4-3.2,0.8c-1.8,0.1-1.8,0.1-3.5,0.2c-1.7-0.2-1.7-0.2-3.4-0.5
			c-0.6-0.2-0.6-0.2-1.2-0.4"/>
		<path id="XMLID_494_" class="st0" d="M187.7,400.5v27.2l3.1,7.1"/>
		<path id="XMLID_493_" class="st0" d="M198.5,379.9l5.6-3.9"/>
		<path id="XMLID_492_" class="st0" d="M274,507.6v-27.2"/>
		<path id="XMLID_491_" class="st0" d="M423.4,556.2v-27.2"/>
		<path id="XMLID_490_" class="st0" d="M446.4,550.2L616,468.3v32.3"/>
		<path id="XMLID_489_" class="st0" d="M642.9,425.6l-80-46.2"/>
		<path id="XMLID_488_" class="st0" d="M488.3,531.5l-8.7,2.6"/>
		<path id="XMLID_487_" class="st0" d="M577.5,504.4l-1.3,0.9l-71.7,21.4"/>
		<path id="XMLID_486_" class="st0" d="M580.8,485.2v18.3"/>
		<path id="XMLID_485_" class="st0" d="M584.4,504.3l11.5,6.6"/>
		<path id="XMLID_484_" class="st0" d="M610.1,512.4l26.9-15.5"/>
		<path id="XMLID_483_" class="st0" d="M642.9,425.6v58.2"/>
		<path id="XMLID_482_" class="st0" d="M398.3,554.7c-94.8-21.8-169.9-65.1-207.6-119.9"/>
		<path id="XMLID_481_" class="st0" d="M577.5,504.4c1.8-1.1,4.8-1.2,6.7-0.2c0,0,0.1,0,0.1,0.1"/>
		<path id="XMLID_480_" class="st0" d="M446.4,550.2c-13.4,6.5-31.9,8.2-48.1,4.5"/>
		<path id="XMLID_479_" class="st0" d="M616,500.6c-0.6,12-9.4,16.6-20.1,10.4"/>
		<path id="XMLID_478_" class="st0" d="M190.7,407.6c-6.5-9.4-3.5-20,7.7-27.8"/>
		<path id="XMLID_477_" class="st0" d="M446.4,523c-13.4,6.5-31.9,8.2-48.1,4.5"/>
		<path id="XMLID_476_" class="st0" d="M607.9,472.2c3.3,9.6,0.6,17.4-6,17.3c-4.1,0-9.1-3.1-13-8.2"/>
		<path id="XMLID_475_" class="st0" d="M398.3,527.5c-94.8-21.8-169.9-65.1-207.6-119.9"/>
		<path id="XMLID_474_" class="st0" d="M642.9,483.8c0,6.2-2.1,10.9-5.9,13.1"/>
		<path id="XMLID_473_" class="st0" d="M471.1,468.9c0.4,2.6-3,4.8-7.4,5c-0.4,0-0.9,0-1.3,0"/>
	</g>
	<g>
		<path id="XMLID_472_" class="st0" d="M648,472.1c-0.3,0-0.3,0-0.5,0c-0.1,0-0.1,0-0.2-0.1c-0.2-0.1-0.2-0.1-0.5-0.2"/>
		<path id="XMLID_471_" class="st0" d="M651.1,467.9c-0.2,0.3-0.2,0.3-0.5,0.5c-0.3,0.3-0.3,0.3-0.7,0.6c-0.3,0.2-0.3,0.2-0.7,0.3
			c-0.1,0-0.1,0-0.1,0c-0.3,0-0.3,0-0.5,0.1"/>
		<path id="XMLID_470_" class="st0" d="M650.1,470.5c-0.3,0.2-0.3,0.2-0.5,0.5c-0.4,0.3-0.4,0.3-0.8,0.6c-0.4,0.2-0.5,0.2-0.9,0.3"
			/>
		<path id="XMLID_469_" class="st0" d="M651.6,465.2c-0.2,0.3-0.2,0.3-0.4,0.5c-0.3,0.3-0.3,0.3-0.7,0.7c-0.3,0.2-0.3,0.2-0.6,0.4
			c-0.2,0.1-0.3,0.1-0.5,0.1"/>
		<path id="XMLID_468_" class="st0" d="M645.7,458.6c1.9,1.1,1.9,1.1,3.7,2.2c0.1,0,0.1,0,0.2,0.1c0.1,0,0.1,0,0.2,0
			c0.1,0,0.1,0,0.2,0c0.1,0,0.1,0,0.2-0.1c0.2-0.1,0.2-0.1,0.5-0.3c0.2-0.2,0.2-0.2,0.4-0.4c0.2-0.3,0.2-0.3,0.4-0.5
			c0.2-0.3,0.2-0.3,0.3-0.6"/>
		<path id="XMLID_467_" class="st0" d="M654.5,450.1c0-5.3,0,5.3,0,10.5c-0.4,2.9-0.3,3-0.8,5.9c-0.7,1.6-0.7,1.6-1.4,3.2
			c0,0.1,0,0.1-0.1,0.1"/>
		<path id="XMLID_466_" class="st0" d="M651.8,462.2c-0.2,0.3-0.2,0.3-0.3,0.6c-0.3,0.4-0.3,0.4-0.6,0.7c-0.3,0.2-0.3,0.2-0.5,0.4
			c-0.2,0.1-0.2,0.1-0.4,0.2"/>
		<path id="XMLID_465_" class="st0" d="M649.5,457.7c0.1,0.1,0.1,0.1,0.2,0.1c0.1,0,0.1,0,0.2,0c0.1,0,0.1,0,0.2,0
			c0.1,0,0.1,0,0.2-0.1"/>
		<path id="XMLID_464_" class="st0" d="M650.2,457.7c0.2-0.1,0.2-0.1,0.5-0.3c0.2-0.2,0.2-0.2,0.4-0.4s0.2-0.3,0.4-0.5
			c0.2-0.3,0.2-0.3,0.3-0.6"/>
		<path id="XMLID_463_" class="st0" d="M649.5,454.6c0.1,0,0.1,0,0.2,0.1c0.1,0,0.1,0,0.2,0c0.1,0,0.1,0,0.2,0c0.1,0,0.1,0,0.2-0.1"
			/>
		<path id="XMLID_462_" class="st0" d="M650.2,454.6c0.2-0.1,0.2-0.1,0.5-0.3c0.2-0.2,0.2-0.2,0.4-0.4c0.2-0.3,0.2-0.3,0.4-0.5
			c0.2-0.3,0.2-0.3,0.3-0.6"/>
		<path id="XMLID_461_" class="st0" d="M648.8,471.8l-0.2,0.1l-0.6,0.2"/>
		<path id="XMLID_460_" class="st0" d="M646.7,471.9l-3.8-2.2"/>
		<path id="XMLID_459_" class="st0" d="M651.1,467.9L651.1,467.9"/>
		<path id="XMLID_458_" class="st0" d="M648.6,469.5l-0.3-0.1h0l1.9,1.1"/>
		<path id="XMLID_457_" class="st0" d="M647.8,471.9h-0.6l-0.4-0.1l-3.9-2.3"/>
		<path id="XMLID_456_" class="st0" d="M648.5,469.6l-5.6-3.2"/>
		<path id="XMLID_455_" class="st0" d="M645.4,467.8L645.4,467.8"/>
		<path id="XMLID_454_" class="st0" d="M651.1,464.8l-0.1-0.1l0.7,0.4"/>
		<path id="XMLID_453_" class="st0" d="M649.5,466.9l-0.3-0.1l-0.1-0.1l-6.1-3.5"/>
		<path id="XMLID_452_" class="st0" d="M649.6,464l-6.7-3.9"/>
		<path id="XMLID_451_" class="st0" d="M642.9,457l5.6,3.2"/>
		<path id="XMLID_450_" class="st0" d="M642.9,453.9l6.5,3.8"/>
		<path id="XMLID_449_" class="st0" d="M642.9,450.8l8.6,5l-0.4-0.3l0.1,0.1"/>
		<path id="XMLID_448_" class="st0" d="M651.2,452.3l-8.3-4.8"/>
		<path id="XMLID_447_" class="st0" d="M645,448.9l0.4,0.2l-2.5-1.4"/>
		<path id="XMLID_446_" class="st0" d="M645,448.9l3.5,2l-1.4-0.8"/>
		<path id="XMLID_445_" class="st0" d="M642.9,435.1l11.6,6.7v10.7v-1.8v-1.3v0.7"/>
		<path id="XMLID_444_" class="st0" d="M648.2,469.4L648.2,469.4"/>
		<path id="XMLID_443_" class="st0" d="M648.7,469.7l-3.2-1.8l0.3,0.2"/>
		<path id="XMLID_442_" class="st0" d="M648.7,469.7l-0.2-0.1l0,0"/>
		<path id="XMLID_441_" class="st0" d="M648.7,469.7l-0.2-0.1L648.7,469.7"/>
		<path id="XMLID_440_" class="st0" d="M647.2,468.8l-1.7-1"/>
		<path id="XMLID_439_" class="st0" d="M648.7,466.6l-0.2-0.1l0.8,0.4l-0.3-0.1"/>
		<path id="XMLID_438_" class="st0" d="M649,466.7l-0.5-0.3l0.7,0.4"/>
		<path id="XMLID_437_" class="st0" d="M649.1,466.8l-0.6-0.3L649.1,466.8"/>
		<path id="XMLID_436_" class="st0" d="M648.5,466.5l0.7,0.4"/>
		<path id="XMLID_435_" class="st0" d="M651.8,459l-0.7-0.4l0.4,0.2"/>
		<path id="XMLID_434_" class="st0" d="M650.5,458.3l0.6,0.4l-2.6-1.5l3,1.7h0"/>
		<path id="XMLID_433_" class="st0" d="M652.1,469.9l-3.3,1.9"/>
		<path id="XMLID_432_" class="st0" d="M648.6,471.9l3.5-2"/>
		<path id="XMLID_431_" class="st0" d="M649.3,470l-0.4-0.2"/>
		<path id="XMLID_430_" class="st0" d="M649.8,470.3l0.3,0.2"/>
		<path id="XMLID_429_" class="st0" d="M649.2,470l-0.2-0.1"/>
		<path id="XMLID_428_" class="st0" d="M651.1,467.9l-1.8-1"/>
		<path id="XMLID_427_" class="st0" d="M649.3,470l-0.4-0.2"/>
		<path id="XMLID_426_" class="st0" d="M649.6,470.2L649.6,470.2"/>
		<path id="XMLID_425_" class="st0" d="M649.2,470l-0.2-0.1"/>
		<path id="XMLID_424_" class="st0" d="M649.6,470.2l-0.2-0.1"/>
		<path id="XMLID_423_" class="st0" d="M651.2,464.9l-0.2-0.1L651.2,464.9"/>
		<path id="XMLID_422_" class="st0" d="M651.3,465l-0.4-0.2l0.2,0.1"/>
		<path id="XMLID_421_" class="st0" d="M651.1,464.8L651.1,464.8"/>
		<path id="XMLID_420_" class="st0" d="M651.2,464.9l-0.2-0.1L651.2,464.9"/>
		<path id="XMLID_419_" class="st0" d="M650,467.3l-0.4-0.2"/>
		<path id="XMLID_418_" class="st0" d="M649.4,466.9l0.3,0.1"/>
		<path id="XMLID_417_" class="st0" d="M650.2,467.4l-0.9-0.5"/>
		<path id="XMLID_416_" class="st0" d="M650.2,467.4l-0.5-0.3"/>
		<path id="XMLID_415_" class="st0" d="M650.5,467.6l0.3,0.2"/>
		<path id="XMLID_414_" class="st0" d="M650.3,467.5l-0.7-0.4"/>
		<path id="XMLID_413_" class="st0" d="M651,461.7l-1.4-0.8l2.2,1.3"/>
		<path id="XMLID_412_" class="st0" d="M650,464l-0.3,0l-0.2-0.1l0.8,0.4"/>
		<path id="XMLID_411_" class="st0" d="M649.8,464.1l-0.1-0.1"/>
		<path id="XMLID_410_" class="st0" d="M650.9,464.7l-0.3-0.2"/>
		<path id="XMLID_409_" class="st0" d="M650.9,464.7L650.9,464.7l-0.7-0.4L650.9,464.7L650.9,464.7"/>
		<path id="XMLID_408_" class="st0" d="M648.5,463.3l1.1,0.6"/>
		<path id="XMLID_407_" class="st0" d="M650.6,464.5L650.6,464.5"/>
		<path id="XMLID_406_" class="st0" d="M650.9,464.7L650.9,464.7l-0.3-0.2"/>
		<path id="XMLID_405_" class="st0" d="M650.9,464.7l-0.3-0.2"/>
		<path id="XMLID_404_" class="st0" d="M650.9,464.7L650.9,464.7"/>
		<path id="XMLID_403_" class="st0" d="M650.5,461.4v-0.7"/>
		<path id="XMLID_402_" class="st0" d="M648.5,460.2l0.6,0.4"/>
		<path id="XMLID_401_" class="st0" d="M649.6,460.9l-0.2-0.1"/>
		<path id="XMLID_400_" class="st0" d="M650.2,461.2l0.8,0.4"/>
		<path id="XMLID_399_" class="st0" d="M650.2,461.2l-0.5-0.3"/>
		<path id="XMLID_398_" class="st0" d="M651.1,458.6l-1.2-0.7"/>
		<path id="XMLID_397_" class="st0" d="M651.5,458.8L651.5,458.8"/>
		<path id="XMLID_396_" class="st0" d="M650.2,461.2l-0.5-0.3"/>
		<path id="XMLID_395_" class="st0" d="M650.5,458.3v-0.7"/>
		<path id="XMLID_394_" class="st0" d="M651.8,455.9l-0.3-0.1"/>
		<path id="XMLID_393_" class="st0" d="M649.9,454.8l1.2,0.7l-2.7-1.5l0.6,0.4"/>
		<path id="XMLID_392_" class="st0" d="M651.2,455.6l-1.3-0.7"/>
		<path id="XMLID_391_" class="st0" d="M650,458L650,458"/>
		<path id="XMLID_390_" class="st0" d="M649.9,457.9l0.3,0.2"/>
		<path id="XMLID_389_" class="st0" d="M650.5,455.2v-0.7"/>
		<path id="XMLID_388_" class="st0" d="M651.2,455.6l-1-0.5"/>
		<path id="XMLID_387_" class="st0" d="M651.8,452.8l-0.3-0.2"/>
		<path id="XMLID_386_" class="st0" d="M649.9,454.8l0.3,0.2"/>
		<path id="XMLID_385_" class="st0" d="M651.5,452.6l-0.4-0.2"/>
		<path id="XMLID_384_" class="st0" d="M651.5,452.6l-0.5-0.3"/>
		<path id="XMLID_383_" class="st0" d="M650.5,452.1v-0.2l4.1-2.3"/>
		<path id="XMLID_382_" class="st0" d="M651.1,452.4l-2.6-1.5l2,1.1"/>
		<path id="XMLID_381_" class="st0" d="M650.4,452l-1.9-1.1l1.3,0.8"/>
		<path id="XMLID_380_" class="st0" d="M649.7,451.6l-1.2-0.7l2.4,1.4"/>
		<path id="XMLID_379_" class="st0" d="M649.8,451.7l-0.3-0.2"/>
		<path id="XMLID_378_" class="st0" d="M649.7,451.6l-0.3-0.1"/>
		<path id="XMLID_377_" class="st0" d="M654.5,458.6v-6.2"/>
		<path id="XMLID_376_" class="st0" d="M654.5,448.8v-2.4v3.7"/>
		<path id="XMLID_375_" class="st0" d="M654.5,449.2v0.2v-0.6"/>
		<path id="XMLID_374_" class="st0" d="M654.5,448.8L654.5,448.8"/>
		<path id="XMLID_373_" class="st0" d="M654.5,443.3v3.1"/>
	</g>
	<g>
		<path id="XMLID_372_" class="st0" d="M592,479.8l0.7,0.9l3.7,3.2l0.1,0.1l3.8,1.8l3.5,0.3l0.2,0l0.2-0.1l2.9-1.4l1.7-1"/>
		<path id="XMLID_371_" class="st0" d="M608.6,474.5l0.4,3.4l0,0.7l-0.6,3.3l-0.3,0.5l-1.6,2.3l-0.5,0.3l-2.4,1.1h-0.6l-2.9-0.3
			l-0.7-0.3l-3.1-1.5h0"/>
		<path id="XMLID_370_" class="st0" d="M602.4,474.8v3l-5.2,0.5l-0.5-0.7"/>
		<path id="XMLID_369_" class="st0" d="M597.2,478.3l5.2-3"/>
	</g>
	<g>
		<path id="XMLID_368_" class="st0" d="M463.9,473.3c1.1-0.2,1.1-0.2,2.3-0.4c1-0.4,1-0.4,1.9-0.8c0.7-0.5,0.7-0.5,1.4-1.1"/>
		<path id="XMLID_367_" class="st0" d="M463.4,473.3h0.5"/>
		<path id="XMLID_366_" class="st0" d="M469.4,471l0.7-1.3l-0.3,1l-1,1.2l-0.8,0.5l-0.9,0.4l-2.1,0.6l-2.3,0.2"/>
		<path id="XMLID_365_" class="st0" d="M470.2,471.4l0-0.1l-0.1-1l0.1,1.3"/>
		<path id="XMLID_364_" class="st0" d="M470,470.2L470,470.2"/>
		<path id="XMLID_363_" class="st0" d="M470.1,469.7l0-0.3"/>
		<path id="XMLID_362_" class="st0" d="M470.2,469.4l-0.1,0.3"/>
		<path id="XMLID_361_" class="st0" d="M467.9,470.7l0.1-0.1l0.1-0.1"/>
	</g>
	<g>
		<path id="XMLID_360_" class="st0" d="M582.4,331.9c-0.4-3.9-0.4-3.9-1-7.8c-1.4-4.1-1.4-4.1-2.9-8.2c-1.8-3.2-1.8-3.2-3.6-6.3"/>
		<path id="XMLID_359_" class="st0" d="M575.1,345.4l-0.2,0.1l0.8-0.5L575.1,345.4"/>
		<path id="XMLID_358_" class="st0" d="M582.4,330.7v1.2l-1,6.7l-2.9,4.9l-2.8,1.6l1.5-0.9"/>
		<path id="XMLID_357_" class="st0" d="M581.5,338.1l1.4-0.8"/>
		<path id="XMLID_356_" class="st0" d="M585,334.1l-0.5,0.5"/>
		<path id="XMLID_355_" class="st0" d="M574.9,300.9c9.3,9.6,13.9,24.3,10.2,33c-0.6,1.3-1.3,2.5-2.2,3.4"/>
		<path id="XMLID_354_" class="st0" d="M574.9,297.5c9.1,7.4,15,21.1,13.2,30.5c-0.5,2.6-1.6,4.7-3.1,6.1"/>
		<path id="XMLID_353_" class="st0" d="M574.9,308.7c4.7,7,7.5,15.1,7.5,22"/>
	</g>
	<g>
		<path id="XMLID_352_" class="st0" d="M204,390.6c0-22.7,0-22.8-0.1-45.5c-0.1-2.4-0.2-2.4-0.4-4.8c-0.5-3-0.5-3-1-6"/>
		<path id="XMLID_351_" class="st0" d="M347.2,441.9c-1,0-1,0-2-0.1c-10.4-2.6-10.4-2.5-20.7-5.2c-9.9-3.5-9.9-3.5-19.8-7.1
			c-11-5.3-11-5.3-21.9-10.9c-9.9-6.5-10-6.5-19.8-13.2c-8.7-7.3-8.7-7.3-17.2-14.9c-6.3-6.5-6.2-6.6-12.4-13.3
			c-0.7-0.9-0.7-0.9-1.3-1.9c-0.6-1.2-0.6-1.2-1.1-2.4c-0.4-1.2-0.4-1.2-0.8-2.5c-0.2-1.2-0.2-1.2-0.4-2.4c-0.1-1.1-0.1-1.1-0.1-2.2
			"/>
		<path id="XMLID_350_" class="st0" d="M202.5,287.7c0-0.3,0-0.3,0-0.5c0.1-0.5,0.1-0.6,0.2-1.1c0.3-0.8,0.3-0.8,0.6-1.6
			c0.2-0.8,0.2-0.8,0.4-1.5"/>
		<path id="XMLID_349_" class="st0" d="M230.1,365.3c0.1,1.6,0.1,1.6,0.2,3.3c0.1,1,0.1,1,0.3,2c0.4,1.2,0.4,1.2,0.7,2.3
			c0.5,1,0.5,1,1,2c0.6,0.8,0.5,0.8,1.1,1.6c8.2,8.5,8.2,8.6,16.5,17c9.2,7.6,9.2,7.6,18.6,14.9c10,6.3,10,6.3,20.1,12.4
			c10.7,5,10.7,5,21.5,9.9c4.8,1.6,4.8,1.6,9.6,3.1"/>
		<path id="XMLID_348_" class="st0" d="M205,232.9c0.5-0.4,0.5-0.4,1-0.7c0.7-0.4,0.7-0.4,1.4-0.8c0.2-0.1,0.2-0.1,0.5-0.2"/>
		<path id="XMLID_347_" class="st0" d="M239,427.6c-7.9-6.7-8-6.7-15.8-13.5c-1.7-1.8-1.7-1.8-3.4-3.6c-6.7-8.2-6.7-8.2-13.5-16.4"
			/>
		<path id="XMLID_346_" class="st0" d="M206.3,394.2c6.6,8.5,6.6,8.6,13.4,16.9c9,9,9.1,8.9,18.2,17.8c0.9,0.8,0.9,0.8,1.9,1.5"/>
		<path id="XMLID_345_" class="st0" d="M379.2,338c-20.8-6.9-20.9-6.9-41.5-14.3c-23.8-11.2-23.9-11.1-47.3-22.8
			c-20-13.3-20-13.4-39.6-27.3c-12.6-11.7-12.6-11.8-24.7-24"/>
		<path id="XMLID_344_" class="st0" d="M212.9,247.6c-0.1-1.4-0.1-1.4-0.2-2.7c0.1-0.4,0.1-0.4,0.1-0.7c0.2-0.3,0.2-0.3,0.3-0.6"/>
		<path id="XMLID_343_" class="st0" d="M380.3,334.6c-5.4-2-5.4-2-10.7-4c-10.6-4.2-10.6-4.2-21.2-8.4c-4.6-2-4.6-2-9.1-4
			c-14.2-6.7-14.2-6.7-28.4-13.4c-4.3-2.3-4.3-2.3-8.6-4.6c-12.4-7.2-12.5-7.1-24.9-14.4c-10.9-7.4-10.9-7.4-21.7-14.9
			c-3.6-2.6-3.6-2.6-7.1-5.3c-9-7.7-8.9-7.8-17.9-15.6c-2.5-2.3-2.5-2.3-4.9-4.6"/>
		<path id="XMLID_342_" class="st0" d="M215.9,234.7c0.9,0.4,0.9,0.4,1.7,0.8c2.5,0.8,2.5,0.8,5,1.5c3.1,0.2,3.1,0.2,6.1,0.3
			c3.1-0.4,3.1-0.4,6.1-0.9c2.6-1,2.6-1,5.2-2.1"/>
		<path id="XMLID_341_" class="st0" d="M234.6,221c-0.4-0.1-0.4-0.2-0.9-0.3c-0.7,0-0.7,0-1.5,0c-0.6-0.1-0.6-0.1-1.1-0.3"/>
		<path id="XMLID_340_" class="st0" d="M228.3,219.7c-0.5,0.2-0.5,0.2-0.9,0.4c-0.6,0.1-0.6,0.1-1.2,0.1c-0.8-0.1-0.8-0.1-1.6-0.2"
			/>
		<path id="XMLID_339_" class="st0" d="M233,225.1c-0.5-0.3-0.5-0.3-1-0.6c-0.3-0.1-0.3-0.1-0.6-0.2c-0.3-0.1-0.3-0.1-0.6-0.1
			c-0.3,0-0.3,0-0.6,0.1c-0.3,0.1-0.3,0.1-0.5,0.2c-0.2,0.1-0.2,0.2-0.4,0.3"/>
		<path id="XMLID_338_" class="st0" d="M226.9,224.2c-0.2-0.1-0.2-0.1-0.4-0.3c-0.3-0.1-0.3-0.1-0.5-0.2c-0.3,0-0.3,0-0.6,0
			c-0.3,0.1-0.3,0.1-0.6,0.1c-0.3,0.1-0.3,0.1-0.6,0.3"/>
		<path id="XMLID_337_" class="st0" d="M226.1,272c17.4,14.9,17.5,15,35.3,29.3c22.3,13.4,22.4,13.4,45.1,26.1
			c25.1,10.5,25.2,10.2,50.4,20.3c1,0.3,1,0.3,2.1,0.7c21.5,6,21.5,6,42.9,12c0.7,0.1,0.7,0.1,1.4,0.2c0.7,0,0.7,0,1.3-0.1"/>
		<path id="XMLID_336_" class="st0" d="M226.1,244.9c5.5,5,5.5,5,11.1,9.9c5.9,5.2,5.8,5.2,11.8,10.3c6.9,5.1,7,5,14,10
			c7.4,5.1,7.4,5.1,14.7,10.2c1,0.6,1,0.6,2.1,1.2"/>
		<path id="XMLID_335_" class="st0" d="M239.9,215.6c3.3,0.3,3.3,0.3,6.7,0.6c0.5,0,0.5,0,1-0.1c0.3-0.1,0.3-0.1,0.5-0.1"/>
		<path id="XMLID_334_" class="st0" d="M246.3,350.1c0.1,0.3,0.1,0.3,0.2,0.6c0,0.2,0,0.2,0,0.4c0,0.1,0,0.1,0,0.3"/>
		<path id="XMLID_333_" class="st0" d="M263,325.6c0.3,0.4,0.3,0.4,0.5,0.8c0.1,0.3,0.1,0.3,0.2,0.6c0,0.3,0,0.3,0.1,0.6
			c0,0.3,0,0.3,0,0.6"/>
		<path id="XMLID_332_" class="st0" d="M252,321c0.2,1.3,0.2,1.3,0.4,2.6c0.1,0.4,0.1,0.4,0.3,0.9c0.5,1,0.5,1,0.9,2
			c0.5,0.9,0.5,0.9,1.1,1.7c0.7,0.7,0.7,0.7,1.3,1.3c3.9,2.7,3.9,2.8,7.8,5.5"/>
		<path id="XMLID_331_" class="st0" d="M258.2,307.8c2.7,1.8,2.7,1.8,5.3,3.7c0.7,0.7,0.7,0.7,1.4,1.3c0.4,0.5,0.4,0.5,0.8,1
			c0.6,1,0.6,1,1.1,2c0.4,1,0.4,1,0.7,2c0.1,1,0.1,1,0.3,1.9"/>
		<path id="XMLID_330_" class="st0" d="M256.2,313.1c0,0.3,0,0.3,0,0.6c0.1,0.6,0.1,0.6,0.3,1.2c0.2,0.4,0.2,0.4,0.5,0.8"/>
		<path id="XMLID_329_" class="st0" d="M396.6,504.9c-10.5-2.7-10.5-2.7-21-5.5c-2.9-0.8-2.9-0.8-5.8-1.7
			c-11.1-3.7-11.1-3.7-22.2-7.4c-4.3-1.5-4.3-1.5-8.6-3.1c-8.9-3.6-8.9-3.7-17.8-7.3c-5.5-2.4-5.6-2.4-11.1-4.9
			c-6.8-3.4-6.8-3.4-13.6-6.9c-6.5-3.5-6.5-3.5-13-7c-4.9-3-4.9-3-9.8-6c-7.1-4.6-7.1-4.6-14.3-9.3c-0.6-0.5-0.6-0.5-1.2-0.9"/>
		<path id="XMLID_328_" class="st0" d="M267.9,236c13.4-59.9,13.4-60,26.2-120c1.9-17.8,1.5-17.9,3-35.7c0.1-0.3,0.1-0.3,0.1-0.7
			c3.7-6.6,3.7-6.6,7.3-13.2"/>
		<path id="XMLID_327_" class="st0" d="M297.2,91.9c1.9,5.1,1.9,5.1,3.9,10.2c0.7,1.3,0.7,1.3,1.4,2.6c4.2,4.6,4.2,4.6,8.5,9.2
			c1.3,1.2,1.3,1.2,2.7,2.3c6.2,3.8,6.2,3.8,12.4,7.6c1.9,0.9,1.9,0.9,3.8,1.7c7.7,2.7,7.7,2.7,15.4,5.4c2.2,0.6,2.2,0.5,4.5,1
			c8.6,1.4,8.6,1.4,17.3,2.8c2.4,0.2,2.4,0.2,4.9,0.3c8.9,0,8.9,0,17.8,0c2.5-0.2,2.5-0.2,5-0.5c8.6-1.3,8.6-1.3,17.1-2.7
			c2.3-0.6,2.3-0.6,4.6-1.2c7.5-2.6,7.5-2.6,15.1-5.3c2-0.9,2-0.9,4-2c6-3.7,6-3.7,11.8-7.4c1.6-1.2,1.6-1.2,3.1-2.5
			c4-4.5,4-4.5,7.9-9c1-1.4,1-1.4,1.9-2.9c1.7-4.9,1.6-4.9,3.2-9.9c0.3-1.6,0.3-1.6,0.6-3.1"/>
		<path id="XMLID_326_" class="st0" d="M464.1,88.5c-0.8-5-0.8-5-1.6-10c-0.4-1.6-0.4-1.6-0.8-3.1c-0.7-1.2-0.7-1.2-1.4-2.3
			c-2.7-4.1-2.7-4.1-5.4-8.2"/>
		<path id="XMLID_325_" class="st0" d="M295.7,336.6c-1-2.2-1-2.2-2.2-4.3c-1.6-2.1-1.6-2.1-3.2-4.1c-1.6-1.4-1.6-1.4-3.3-2.7
			c-1.7-0.9-1.7-0.9-3.4-1.6"/>
		<path id="XMLID_324_" class="st0" d="M276.3,327.3c-0.3,1.8-0.3,1.8-0.6,3.5c0,0.3,0,0.3,0,0.5c0.3,2.1,0.3,2.1,0.6,4.1
			c0.7,2.1,0.7,2.1,1.5,4.2c1.2,2.1,1.2,2.1,2.5,4.2c1.5,1.7,1.5,1.8,3.1,3.4c1.7,1.2,1.7,1.2,3.5,2.3"/>
		<path id="XMLID_323_" class="st0" d="M328.8,314.4c-9.1-4.5-9.1-4.5-18.2-9.1c-11.1-5.9-11.1-5.9-22.2-11.9
			c-5.9-3.8-5.9-3.8-11.7-7.7"/>
		<path id="XMLID_322_" class="st0" d="M307.4,64c4.9-4.5,4.9-4.6,10.1-8.8c8.5-4.5,8.6-4.4,17.3-8.7c1.6-0.5,1.6-0.5,3.3-0.9"/>
		<path id="XMLID_321_" class="st0" d="M338.2,45.6c-1.5,0.4-1.5,0.4-2.9,0.9c-2.7,1.3-2.7,1.3-5.4,2.6c-5.8,2.9-5.9,2.8-11.6,5.9
			c-6.3,5.3-6.3,5.3-12.4,10.9"/>
		<path id="XMLID_320_" class="st0" d="M320.9,381.8c2,0.2,2,0.2,4,0.6c2.4,1,2.4,1,4.7,2.1c2.2,1.6,2.2,1.7,4.4,3.4
			c1.3,1.4,1.3,1.4,2.6,2.9c1.3,2.1,1.4,2.1,2.6,4.3c0.7,2.1,0.7,2.1,1.3,4.3c0.1,1.9,0.1,1.9,0,3.8"/>
		<path id="XMLID_319_" class="st0" d="M328.7,409.3c-2.4-1-2.4-1-4.8-2.1c-2.2-1.7-2.2-1.7-4.2-3.4c-1.6-1.9-1.6-1.9-3.1-3.8
			c-1.1-2.1-1.1-2.1-2.2-4.3c-0.5-1.6-0.5-1.7-0.9-3.3"/>
		<path id="XMLID_318_" class="st0" d="M316.7,397.9c-0.5-0.9-0.5-0.9-1-1.8c-0.1-0.3-0.1-0.3-0.2-0.7c-0.5-1.8-0.5-1.8-0.9-3.7
			c-0.1-0.6-0.1-0.6-0.1-1.2c0.2-1.6,0.2-1.6,0.5-3.1c0.1-0.2,0.1-0.2,0.1-0.4c0.9-1.2,0.9-1.2,1.8-2.5"/>
		<path id="XMLID_317_" class="st0" d="M323.6,383.2c2.2,0.7,2.2,0.7,4.3,1.4c2.2,1.4,2.2,1.4,4.4,2.9c1.7,1.7,1.7,1.7,3.3,3.5
			c0.2,0.3,0.2,0.3,0.4,0.5c1.1,1.9,1.1,1.9,2.2,3.8c0.1,0.3,0.1,0.3,0.3,0.6c0.5,1.8,0.5,1.8,0.9,3.7c0.1,0.6,0.1,0.6,0.1,1.2
			c-0.3,1.6-0.3,1.6-0.5,3.2c-0.1,0.2-0.1,0.2-0.2,0.4c-1,1.3-1,1.3-2,2.6"/>
		<path id="XMLID_316_" class="st0" d="M330,408.4c-2.2-0.7-2.2-0.7-4.3-1.4c-2.2-1.4-2.2-1.4-4.3-2.9c-1.6-1.7-1.6-1.8-3.2-3.5
			c-0.2-0.3-0.2-0.3-0.4-0.6c-0.6-1-0.6-1-1.1-2"/>
		<path id="XMLID_315_" class="st0" d="M319.7,433.9c6.5,2.2,6.5,2.2,13.2,4.2c6.1,1.5,6.1,1.5,12.2,2.8c0.9,0,1,0,1.9,0"/>
		<path id="XMLID_314_" class="st0" d="M386.2,89.1c-1.9,0.4-1.9,0.4-3.7,0.7c-2,0-2,0-4,0c-1.9-0.3-1.9-0.3-3.8-0.7"/>
		<path id="XMLID_313_" class="st0" d="M529.8,435c-61.6,35.6-61.6,35.6-123.1,71.1c-0.5,0.2-0.5,0.2-1.1,0.4
			c-0.5,0.1-0.5,0.1-1.1,0.2"/>
		<path id="XMLID_312_" class="st0" d="M574.9,262.3c0,46.3,0,46,0,92c0,0.9,0,0.9,0,1.7c-0.1,0.9-0.1,0.9-0.2,1.8
			c-0.3,1-0.3,1-0.6,1.9c-0.4,0.9-0.4,0.9-0.8,1.8c-10,17.2-10.1,17.2-20.1,34.4c-8.1,14.4-8.1,14.5-16.2,28.9
			c-1.3,2.5-1.3,2.5-2.7,5c-0.5,0.9-0.5,0.9-1.1,1.8c-0.3,0.5-0.3,0.5-0.7,0.9c-0.7,0.7-0.7,0.7-1.4,1.4c-0.2,0.1-0.2,0.1-0.3,0.3"
			/>
		<path id="XMLID_311_" class="st0" d="M409.9,324.6c-0.5,0.2-0.5,0.2-1,0.4c-0.6,0.1-0.6,0.1-1.2,0.1c-0.8-0.1-0.8-0.1-1.6-0.2"/>
		<path id="XMLID_310_" class="st0" d="M410.8,329.6c0.2-0.2,0.2-0.2,0.4-0.3c0.3-0.1,0.3-0.1,0.5-0.2c0.3-0.1,0.3-0.1,0.6-0.1
			c0.3,0.1,0.3,0.1,0.6,0.1c0.3,0.1,0.3,0.1,0.6,0.2c0.3,0.3,0.3,0.3,0.7,0.5"/>
		<path id="XMLID_309_" class="st0" d="M414.2,327.7c0.1,0.2,0.1,0.2,0.2,0.4c0.2,0.2,0.2,0.2,0.4,0.4c0.3,0.3,0.3,0.3,0.7,0.5"/>
		<path id="XMLID_308_" class="st0" d="M542.5,271.5c-0.4,0-0.4,0-0.8,0c-5.2-0.8-5.2-0.8-10.4-1.6c-0.4,0-0.4,0-0.7,0"/>
		<path id="XMLID_307_" class="st0" d="M493.6,239.9c-14.3-64.9-14.3-64.9-28-129.9c-0.6-9.9-0.2-10-0.6-19.9
			c-1.1-6.6-1.2-6.6-2.4-13.2c-0.1-0.3-0.1-0.3-0.2-0.6"/>
		<path id="XMLID_306_" class="st0" d="M543.9,249c0.6-0.3,0.6-0.3,1.2-0.5c0.3-0.1,0.3-0.1,0.6-0.1c0.3,0,0.3,0,0.6,0
			c0.3,0.1,0.3,0.1,0.5,0.1c0.2,0.1,0.2,0.1,0.4,0.3"/>
		<path id="XMLID_305_" class="st0" d="M549.7,249.4c0.2-0.2,0.2-0.2,0.4-0.3c0.3-0.1,0.3-0.1,0.5-0.2c0.3,0,0.3,0,0.6-0.1
			c0.3,0,0.3,0,0.6,0.1c0.3,0.1,0.3,0.1,0.6,0.2c0.4,0.3,0.3,0.3,0.7,0.5c0.3,0.1,0.3,0.1,0.5,0.2"/>
		<path id="XMLID_304_" class="st0" d="M548.7,244.4c-0.5,0.2-0.5,0.2-0.9,0.4c-0.6,0.1-0.6,0.1-1.2,0.1c-0.8-0.1-0.8-0.1-1.6-0.2"
			/>
		<path id="XMLID_303_" class="st0" d="M575.9,339.1c0.1-0.4,0.1-0.4,0.1-0.8c0-3.3,0-3.3,0-6.5c-0.1-0.6-0.1-0.6-0.2-1.2"/>
		<path id="XMLID_302_" class="st0" d="M574.9,280c0.3,0.5,0.3,0.5,0.7,1c0.1,0.3,0.1,0.3,0.3,0.6c0.1,0.3,0.1,0.3,0.2,0.5
			c0,0.2,0,0.2,0,0.5c0,4.2,0,4.2,0,8.4"/>
		<path id="XMLID_301_" class="st0" d="M403.4,343.2c1.2,0.3,1.2,0.3,2.3,0.6c1.2,0.2,1.2,0.2,2.4,0.3c2.2,0,2.2,0,4.5,0
			c1.2-0.1,1.2-0.1,2.4-0.3"/>
		<path id="XMLID_300_" class="st0" d="M202.6,334.3l0.1,0.2"/>
		<path id="XMLID_299_" class="st0" d="M345.3,441l0.9,0.3l2.1,0.1l1.2-0.4l-0.4,0.4l-1.9,0.6"/>
		<path id="XMLID_298_" class="st0" d="M229.6,365.9l-24.5-28.4v-0.2l-2.4-3.4l-0.3-0.6l0.1-0.6l0.4-0.6l1,1"/>
		<path id="XMLID_297_" class="st0" d="M202.5,333.4l0.2,1.2"/>
		<path id="XMLID_296_" class="st0" d="M203,332.2l1-0.7"/>
		<path id="XMLID_295_" class="st0" d="M205.2,292L205.2,292l-2.5-3.5l-0.3-0.6l0-0.2l0.1,0.5l-0.1-0.4"/>
		<path id="XMLID_294_" class="st0" d="M202.5,287.6L202.5,287.6"/>
		<path id="XMLID_293_" class="st0" d="M202.8,285.6L202.8,285.6"/>
		<path id="XMLID_292_" class="st0" d="M205.5,393.3l0.5,0.7l-1.4-1.8l-0.6-1.4l0-2.8l0,2.6"/>
		<path id="XMLID_291_" class="st0" d="M204.4,391.8l0.2,0.4"/>
		<path id="XMLID_290_" class="st0" d="M204,375.8l0-0.1"/>
		<path id="XMLID_289_" class="st0" d="M204,348.2l0-3.1l0,0.9"/>
		<path id="XMLID_288_" class="st0" d="M204,344.4v0.7l-0.1-3.1L204,344.4"/>
		<path id="XMLID_287_" class="st0" d="M203.9,342l0-1.3"/>
		<path id="XMLID_286_" class="st0" d="M203.9,290.4v43.9l0.8,1.8l25.4,29.2"/>
		<path id="XMLID_285_" class="st0" d="M319.7,433.9l-3.9-1l-1.7-0.8"/>
		<path id="XMLID_284_" class="st0" d="M205.1,337.5l0.6-0.3"/>
		<path id="XMLID_283_" class="st0" d="M205.1,337.4l0.5-0.3"/>
		<path id="XMLID_282_" class="st0" d="M203.9,284l0.1-4.7v-33.8l0.3,0.7l21.3,25.4l2,46.3l-22.4-25.9v0.1"/>
		<path id="XMLID_281_" class="st0" d="M230.1,365.3l-2-45.7l-23.4-27.3"/>
		<path id="XMLID_280_" class="st0" d="M203.7,283l0.3-3.7"/>
		<path id="XMLID_279_" class="st0" d="M204,280.7l0-1.3"/>
		<path id="XMLID_278_" class="st0" d="M204,245.5l0.2-10.6l0.2-1.1l0.6-0.9"/>
		<path id="XMLID_277_" class="st0" d="M207.9,231.2h0.5l9.1,4.3"/>
		<path id="XMLID_276_" class="st0" d="M239.9,430.4l-0.6-0.4"/>
		<path id="XMLID_275_" class="st0" d="M206.3,394.2L206,394"/>
		<path id="XMLID_274_" class="st0" d="M210.2,232.1l4.4-2.5"/>
		<path id="XMLID_273_" class="st0" d="M380.5,334.3l3.3,8.2l-0.4,0.6l-0.7,2.5l-3.5-7.6"/>
		<path id="XMLID_272_" class="st0" d="M226.1,249.6l-13.1-2"/>
		<path id="XMLID_271_" class="st0" d="M379.2,338l0.8-3l0.2-0.5"/>
		<path id="XMLID_270_" class="st0" d="M225.8,245.3l0.1-0.2l-12.9-1.2"/>
		<path id="XMLID_269_" class="st0" d="M214.6,231.2v-5.4"/>
		<path id="XMLID_268_" class="st0" d="M240.1,234.4l-0.1,0.1l3.1-2.6l0.5-0.8"/>
		<path id="XMLID_267_" class="st0" d="M223.1,414.1l15.2,14.4"/>
		<path id="XMLID_266_" class="st0" d="M234.2,221.8l0.6-0.1l0.3-0.2l0-0.2l-0.3-0.3"/>
		<path id="XMLID_265_" class="st0" d="M231.2,220.4l-0.7-0.5l-0.1-0.3l0.1-0.3l0-0.1l-0.4-0.2l-0.9-0.1l-0.6,0.2l-0.1,0.4l-0.3,0.2
			"/>
		<path id="XMLID_264_" class="st0" d="M224.6,220l-0.9,0.3l-0.3,0.3l0.1,0.3l1,0.3l0.3,0.2l0.2,0.3v0.3l-0.2,0.4l-0.4,0.3l-1,0.5"
			/>
		<path id="XMLID_263_" class="st0" d="M223,224.3l0.1,0"/>
		<path id="XMLID_262_" class="st0" d="M233.2,223.6l0.9,0.7l0.1,0.4l-0.3,0.3l-0.3,0.1l-0.6,0"/>
		<path id="XMLID_261_" class="st0" d="M229.3,224.8l-0.3,0.4l-0.1,0.7l-0.1,0.2l-0.5,0.3l-0.3,0l-0.6-0.1l-0.4-0.4l-0.1-0.2
			l0.2-0.7l-0.1-0.5l-0.3-0.4"/>
		<path id="XMLID_260_" class="st0" d="M227.5,317.8l0.4-0.2l0.1,0.1"/>
		<path id="XMLID_259_" class="st0" d="M225.6,271.6l0.5,0.5l2,47.6"/>
		<path id="XMLID_258_" class="st0" d="M404.6,360.4l0,146.2"/>
		<path id="XMLID_257_" class="st0" d="M226.1,249.6l-0.4-3.4l0.1-0.9"/>
		<path id="XMLID_256_" class="st0" d="M225.9,245.1l0.4-0.6"/>
		<path id="XMLID_255_" class="st0" d="M279.8,286.5l-1.2-0.7"/>
		<path id="XMLID_254_" class="st0" d="M227.2,225v1"/>
		<path id="XMLID_253_" class="st0" d="M225,223.8l0-2"/>
		<path id="XMLID_252_" class="st0" d="M229.6,365.9l0.5-0.3"/>
		<path id="XMLID_251_" class="st0" d="M230.1,224.3l-0.5-0.1l-0.6,0.1l-0.3,0.3l0,0.2"/>
		<path id="XMLID_250_" class="st0" d="M230.4,224.2v-4.6"/>
		<path id="XMLID_249_" class="st0" d="M232.1,237.3l4.6-1.2l-1.9,0.5"/>
		<path id="XMLID_248_" class="st0" d="M232.7,224.9l0-2.4"/>
		<path id="XMLID_247_" class="st0" d="M235.7,215.2l1,0.1L235.7,215.2l-0.6,0.1l-4,2.3"/>
		<path id="XMLID_246_" class="st0" d="M236.8,236.1l0.5-0.1"/>
		<path id="XMLID_245_" class="st0" d="M239.6,348.2l6.3-10.2l6.6,20.6l-3.6-2.8L239.6,348.2"/>
		<path id="XMLID_244_" class="st0" d="M238,215.4l1.9,0.2l-3.1-0.3L238,215.4"/>
		<path id="XMLID_243_" class="st0" d="M248.1,216l-0.1,0l27.7-15.9"/>
		<path id="XMLID_242_" class="st0" d="M237.1,215.3l40.3-23.3"/>
		<path id="XMLID_241_" class="st0" d="M239.9,430.4l18.4,14.5l-5.1-3.9l-7.2-5.7"/>
		<path id="XMLID_240_" class="st0" d="M241.7,358.5v-3.1l8.5,6.8v3.1L241.7,358.5"/>
		<path id="XMLID_239_" class="st0" d="M240.9,348.2l10,8l-5.1-15.9L240.9,348.2"/>
		<path id="XMLID_238_" class="st0" d="M242.9,232v-7.4"/>
		<path id="XMLID_237_" class="st0" d="M242.9,226.4l0.7,0.8"/>
		<path id="XMLID_236_" class="st0" d="M245.3,348.2v0.4l1.1,0.9v-6.2l-1.1-0.9V348.2"/>
		<path id="XMLID_235_" class="st0" d="M243.1,231.7l0.2-0.2l-0.3,0.3"/>
		<path id="XMLID_234_" class="st0" d="M243.9,229.1l0.1,0.5"/>
		<path id="XMLID_233_" class="st0" d="M243.3,231.6l1.2-3.3l-1.2-3.1"/>
		<path id="XMLID_232_" class="st0" d="M244,229.7l0.1-0.8l-0.1,0.4"/>
		<path id="XMLID_231_" class="st0" d="M243.2,231.5l0.4-0.7"/>
		<path id="XMLID_230_" class="st0" d="M246.5,351.4l-0.2,0.2l-0.2,0"/>
		<path id="XMLID_229_" class="st0" d="M248.4,265.9l19.1,13.4l-2.3-1.6"/>
		<path id="XMLID_228_" class="st0" d="M255.8,320.3l4.1,3.1l3.1,2.2"/>
		<path id="XMLID_227_" class="st0" d="M263.8,328.1l-0.2,0.4l-0.3,0.2l-0.3,0l-0.4-0.1L252,321"/>
		<path id="XMLID_226_" class="st0" d="M249.1,266.3l1.2,0.8"/>
		<path id="XMLID_225_" class="st0" d="M255.3,271.5l21.5,14.2l-9.2-6.5"/>
		<path id="XMLID_224_" class="st0" d="M267.7,319.7l-10.5-7.2l-0.3-0.1l-0.3,0l-0.3,0.2l-0.2,0.4"/>
		<path id="XMLID_223_" class="st0" d="M257,315.6l4.3,3.1"/>
		<path id="XMLID_222_" class="st0" d="M369.8,497.6l26.8,7.3"/>
		<path id="XMLID_221_" class="st0" d="M258.3,444.9l0.9,0.7"/>
		<path id="XMLID_220_" class="st0" d="M259.5,445.1l44.8,26.3l-20.6-10.8"/>
		<path id="XMLID_219_" class="st0" d="M270.6,339.3l-0.6-0.4v-23.2l4.6,2.9v23.2L270.6,339.3"/>
		<path id="XMLID_218_" class="st0" d="M304.6,66.4l2.8-2.5l-2.5,2.2l-5.6,9.9l-1.3,2.6l-0.9,10.4l0.1,2.7"/>
		<path id="XMLID_217_" class="st0" d="M291.3,336.8l4.4-0.3"/>
		<path id="XMLID_216_" class="st0" d="M283.6,323.9l-3.2-0.2l-2.5,1.2l-1.5,2.4"/>
		<path id="XMLID_215_" class="st0" d="M287,349.6l3.6,0.9l2.9-0.7l2.1-2l-4.4-4.9"/>
		<path id="XMLID_214_" class="st0" d="M279.4,385l-1.4-0.9v-3.1l10.1,5.8v3.1L279.4,385"/>
		<path id="XMLID_213_" class="st0" d="M279.3,375.8v1.4l8.8-0.8l-8.8-10.8V375.8"/>
		<path id="XMLID_212_" class="st0" d="M328.6,314.3l0.2,0.1"/>
		<path id="XMLID_211_" class="st0" d="M276.7,285.7l0.7,0.4"/>
		<path id="XMLID_210_" class="st0" d="M279.8,286.5l14.3,8.2l16.5,9.2l-1.6-0.9"/>
		<path id="XMLID_209_" class="st0" d="M281.5,417.8l1,40.8"/>
		<path id="XMLID_208_" class="st0" d="M282.9,340.5l-0.3-0.4"/>
		<path id="XMLID_207_" class="st0" d="M282.9,329.9l0.6-0.2l1.8,0.3l-1.8-0.3"/>
		<path id="XMLID_206_" class="st0" d="M298.2,354.3l0.1-22.3l5.1,2.6v9.2l2,0.9l5.9-6.3l6.7,3l-7.6,8.1l7.6,15.1l-6.7-3.1l-5.9-12
			l-2-0.9v9.2l-5.1-2.6L298.2,354.3"/>
		<path id="XMLID_205_" class="st0" d="M308.8,62.8l-1.4,1.2"/>
		<path id="XMLID_204_" class="st0" d="M305.7,66l-2.6,4.6l-4.6,8.5"/>
		<path id="XMLID_203_" class="st0" d="M304.4,471.4l6,3.1"/>
		<path id="XMLID_202_" class="st0" d="M313.6,392.3l-0.1-4.3l1.1-3l2.4-2.3l3.8-1"/>
		<path id="XMLID_201_" class="st0" d="M340.5,403.1l-1.2,3.3l-2.3,2.2l-3.7,1.2l-4.6-0.4"/>
		<path id="XMLID_200_" class="st0" d="M310.5,303.9l19,9l19,8.7"/>
		<path id="XMLID_199_" class="st0" d="M313.6,58.6l3.6-3.2l0.3-0.2"/>
		<path id="XMLID_198_" class="st0" d="M317,384.5l2.7-1.2l3.8,0"/>
		<path id="XMLID_197_" class="st0" d="M336.7,406.9l-2.9,1.4l-3.8,0.1"/>
		<path id="XMLID_196_" class="st0" d="M347,441l1.5-0.7l1-1.2l0.4-1.6l7-89.8"/>
		<path id="XMLID_195_" class="st0" d="M319.7,394.2l-0.6-0.7l3.2-0.3l3.5-0.6l-0.1,3.4l5.2,1.9l0.1-3.1l1.7,0.5l-0.1,4.6l-6.9-2.4
			l0.1,3.1l-3.5-3.5L319.7,394.2"/>
		<path id="XMLID_194_" class="st0" d="M322.4,434.8l-2.1-0.7h0.1"/>
		<path id="XMLID_193_" class="st0" d="M327.8,110.2l-5.4,8.9l0,0.4l0.3,0.3l0.5,0.1l0.5-0.1l13.4-4.3l0.5-0.3l0.1-0.4l-0.3-0.3
			l-8.1-4.6"/>
		<path id="XMLID_192_" class="st0" d="M328.8,314.4l19.4,8.3l17,7l-0.2-0.1"/>
		<path id="XMLID_191_" class="st0" d="M338.1,126.8l-3.8-1.2"/>
		<path id="XMLID_190_" class="st0" d="M338.9,486.5l17.7,6.1l-17.3-7.1"/>
		<path id="XMLID_189_" class="st0" d="M346.6,43.3l0.8-0.2l-4.6,1.2l-4.6,1.3l2.3-0.7"/>
		<path id="XMLID_188_" class="st0" d="M347.4,43.1l8.1-2.2l7.3-0.7l-7.1,0.7l-5.2,1.4"/>
		<path id="XMLID_187_" class="st0" d="M348.5,440.3l0.7-0.4l1.2-1.2l0.5-1.5l0-0.3l6.9-88.9"/>
		<path id="XMLID_186_" class="st0" d="M349.5,440.9l0.9-0.9l0.7-1.8l0-0.3l7-89.8"/>
		<path id="XMLID_185_" class="st0" d="M353.5,41.5l2.1-0.6"/>
		<path id="XMLID_184_" class="st0" d="M369.7,497.1l-13.1-4.4"/>
		<path id="XMLID_183_" class="st0" d="M362.7,40.2L375,39l-2.2,0.2"/>
		<path id="XMLID_182_" class="st0" d="M365.2,329.8l0.7,0.3"/>
		<path id="XMLID_181_" class="st0" d="M371.6,87.8l-0.1-0.1l3.2,1.3"/>
		<path id="XMLID_180_" class="st0" d="M368.9,39.6l1-0.1"/>
		<path id="XMLID_179_" class="st0" d="M378.1,499.9l6.2,1.7"/>
		<path id="XMLID_178_" class="st0" d="M377.6,84.1l0.8-1.6"/>
		<path id="XMLID_177_" class="st0" d="M377.9,38.7L375,39L377.9,38.7l3.3,0.2L377.9,38.7"/>
		<path id="XMLID_176_" class="st0" d="M380.3,334.6l0.4-0.5"/>
		<path id="XMLID_175_" class="st0" d="M381.4,38.9h-0.2l6.3,0.3l9.1,0.7l-0.9-0.1"/>
		<path id="XMLID_174_" class="st0" d="M384.3,342.1l-0.5,0.5"/>
		<path id="XMLID_173_" class="st0" d="M382.6,82.6l0.7,1.6"/>
		<path id="XMLID_172_" class="st0" d="M386.2,89.1l3.2-1.3l-0.1,0.1"/>
		<path id="XMLID_171_" class="st0" d="M396.6,504.9l6.1,1.6l-0.4-0.1"/>
		<path id="XMLID_170_" class="st0" d="M395.9,336.7l0.3,0.5L396,337"/>
		<path id="XMLID_169_" class="st0" d="M396.2,337.3l3.3,3.3l-0.1-0.1"/>
		<path id="XMLID_168_" class="st0" d="M395.3,333.1l-0.1,1.5l0.9,2.6l-0.2-0.5"/>
		<path id="XMLID_167_" class="st0" d="M395.1,334.1l-0.1-0.4l0.1,0.5"/>
		<path id="XMLID_166_" class="st0" d="M395.2,334.6l-0.4-1.2l1.2-3.7l0.3-0.3"/>
		<path id="XMLID_165_" class="st0" d="M395.7,335.9l0.6-1.3"/>
		<path id="XMLID_164_" class="st0" d="M396.3,334.6v-5.2"/>
		<path id="XMLID_163_" class="st0" d="M393.9,331.1l2.4-3.7"/>
		<path id="XMLID_162_" class="st0" d="M396.3,330.6l-0.7,1.1"/>
		<path id="XMLID_161_" class="st0" d="M399.6,505.7l2,0.5"/>
		<path id="XMLID_160_" class="st0" d="M399.5,340.5l9.1,6.2l0.3,0.6l0.1,2.3"/>
		<path id="XMLID_159_" class="st0" d="M414.5,43.2l0.5,0.1l-14.4-3.2l-4-0.2l4,0.3"/>
		<path id="XMLID_158_" class="st0" d="M530,434.8l1.1-0.7l-1.2,0.9"/>
		<path id="XMLID_157_" class="st0" d="M404.5,506.7l-0.6-0.1"/>
		<path id="XMLID_156_" class="st0" d="M404.5,506.7l-1,0l-0.8-0.1"/>
		<path id="XMLID_155_" class="st0" d="M403.1,360.5l0.3,0"/>
		<path id="XMLID_154_" class="st0" d="M405.3,360.3l0.4-0.1l-1.1,0.2"/>
		<path id="XMLID_153_" class="st0" d="M404.6,360.4l0-8"/>
		<path id="XMLID_152_" class="st0" d="M405.7,360.3l1.3-0.6l167.2-96.5l0.5-0.4l0.2-0.5"/>
		<path id="XMLID_151_" class="st0" d="M405.4,329.1l1.1-0.4v-2l-0.2,0.3l-0.3,0.4l-1.1,0.5"/>
		<path id="XMLID_150_" class="st0" d="M415.3,325.6h-1.4l-1.1-0.3l-0.7-0.5l-0.1-0.3l0.1-0.3l-0.1-0.2l-0.3-0.2l-0.9-0.1l-0.6,0.2
			l-0.1,0.4l-0.2,0.2"/>
		<path id="XMLID_149_" class="st0" d="M406.1,324.8l-0.6,0.1l-0.4,0.3l-0.1,0.1l0.1,0.3l0.9,0.2l0.3,0.2l0.2,0.3v0.3"/>
		<path id="XMLID_148_" class="st0" d="M406.8,505.8l123-71"/>
		<path id="XMLID_147_" class="st0" d="M406.1,505.5l-0.3,0.1"/>
		<path id="XMLID_146_" class="st0" d="M406.9,505.9l-0.3,0.2"/>
		<path id="XMLID_145_" class="st0" d="M405.8,360.2l1.2-0.5"/>
		<path id="XMLID_144_" class="st0" d="M406.7,348.2l1.5-0.9"/>
		<path id="XMLID_143_" class="st0" d="M408.5,350.2l23.3-13.5"/>
		<path id="XMLID_142_" class="st0" d="M408.5,346.7l-2.3-1.6"/>
		<path id="XMLID_141_" class="st0" d="M406.5,328.6l0.9-0.1l0.5,0.2l0.4,0.3l0.3,0.4l0.1,0.4l-0.1,0.7l0.1,0.2l0.3,0.4l0.3,0.1
			l0.5,0l0.5-0.3l0.1-0.2l0.1-0.7l0.3-0.4"/>
		<path id="XMLID_140_" class="st0" d="M414.3,329.8l0.6,0.2"/>
		<path id="XMLID_139_" class="st0" d="M408.8,330.9v-1"/>
		<path id="XMLID_138_" class="st0" d="M411.9,329l0.1-4.6"/>
		<path id="XMLID_137_" class="st0" d="M410.2,329.6l0.2-0.3l0.2-0.1l0.6-0.1l0.5,0.1"/>
		<path id="XMLID_136_" class="st0" d="M414.2,329.8l-0.1-2.4l0,0.4"/>
		<path id="XMLID_135_" class="st0" d="M414.2,327.3l0.2-0.3l0.3-0.3l0.5-0.1l0.6,0"/>
		<path id="XMLID_134_" class="st0" d="M415,43.3l2.9,0.6"/>
		<path id="XMLID_133_" class="st0" d="M417.8,43.9l-0.3-0.1"/>
		<path id="XMLID_132_" class="st0" d="M445.7,46.9l3.1,1.8L435.7,41l-0.5-0.1h-0.7l-16.6,3"/>
		<path id="XMLID_131_" class="st0" d="M430.1,336.6l-5.4-3.1"/>
		<path id="XMLID_130_" class="st0" d="M424.6,330.6v5.4"/>
		<path id="XMLID_129_" class="st0" d="M431.1,334.2l-6.5-4.5"/>
		<path id="XMLID_128_" class="st0" d="M431.1,334.2l4.6-2.7"/>
		<path id="XMLID_127_" class="st0" d="M433.3,324.3l3,6.9"/>
		<path id="XMLID_126_" class="st0" d="M436.3,333l0.2-0.1l0.2-0.5l-0.2-1l-0.7-1.6l0.7,1.6"/>
		<path id="XMLID_125_" class="st0" d="M434.9,327.6l1,2.2l-2.4-5.5l0,0.1"/>
		<path id="XMLID_124_" class="st0" d="M436.5,332.8l106.7-61.6l-0.7,0.2"/>
		<path id="XMLID_123_" class="st0" d="M530.7,269.9l-0.7,0.2l-96,55.5"/>
		<path id="XMLID_122_" class="st0" d="M530.4,266.8l-97.6,56.4"/>
		<path id="XMLID_121_" class="st0" d="M435,122.5l11.5-7.9"/>
		<path id="XMLID_120_" class="st0" d="M455.2,65.2l-0.3-0.3l-0.4-0.1l-0.7,0.4l8.5-8.2l0.3-0.2l-13.9-8.2l14.3,8.2l0.2,0.3l0.1,0.4
			l27.2,140.7l-4.7,5.8"/>
		<path id="XMLID_119_" class="st0" d="M462.4,76.2l-7.1-10.9"/>
		<path id="XMLID_118_" class="st0" d="M460.9,75.5l2.4,13.1"/>
		<path id="XMLID_117_" class="st0" d="M462.7,56.8l0.4,0"/>
		<path id="XMLID_116_" class="st0" d="M497.7,202.3l0.3,0.1l-7.4-4.3"/>
		<path id="XMLID_115_" class="st0" d="M498,202.5l9.2,5.4l-16.6-10.1"/>
		<path id="XMLID_114_" class="st0" d="M490.5,197.5l63,39.1l2.8-0.1l-2.8,0.1"/>
		<path id="XMLID_113_" class="st0" d="M563.6,236.4l-73.9-42.6"/>
		<path id="XMLID_112_" class="st0" d="M507.2,207.9l46.1,29.1"/>
		<path id="XMLID_111_" class="st0" d="M531,434.1l0.2-0.2"/>
		<path id="XMLID_110_" class="st0" d="M542.7,269.7l-12.4-2.9"/>
		<path id="XMLID_109_" class="st0" d="M534.9,256.9l-0.1-0.1l0.2,0.3l-0.3-0.5l0.1,0.2l-0.7-2.4l0.1-1.5"/>
		<path id="XMLID_108_" class="st0" d="M534.1,254.4l-0.4-1.2l0-0.1l1.1-3.5l0.2-0.2"/>
		<path id="XMLID_107_" class="st0" d="M533.9,254l0-0.4l0.1,0.5"/>
		<path id="XMLID_106_" class="st0" d="M532.7,250.9l2.4-3.7"/>
		<path id="XMLID_105_" class="st0" d="M535,250.7l-0.5,0.8"/>
		<path id="XMLID_104_" class="st0" d="M547.8,269.5l-0.1-2.3l-0.3-0.6l-9.1-6.3l-3.2-3.2"/>
		<path id="XMLID_103_" class="st0" d="M535.1,257.2v-5.4"/>
		<path id="XMLID_102_" class="st0" d="M538.5,260.5l-0.3-0.2"/>
		<path id="XMLID_101_" class="st0" d="M542.4,269.9l5.2-3"/>
		<path id="XMLID_100_" class="st0" d="M543.8,247.8l-0.5,0.3l-0.2,0.4l0.1,0.4l0.2,0.1l0.6,0.1"/>
		<path id="XMLID_99_" class="st0" d="M547.3,248.8l0.3,0.4l0.1,0.5l-0.2,0.7l0.1,0.2l0.4,0.4l0.3,0.1l0.6,0l0.5-0.3l0.1-0.2
			l0.1-0.7l0.3-0.4"/>
		<path id="XMLID_98_" class="st0" d="M553.6,249.8h0.4l0.5-0.2l0.1-0.2l-0.1-0.4l-1.2-1l-0.2-0.4v-0.4l0,2.4"/>
		<path id="XMLID_97_" class="st0" d="M553.9,245.4l-1.2,0l-1.1-0.3l-0.7-0.5l-0.1-0.3l0.1-0.3l0-0.1l-0.4-0.2l-0.6-0.1l-0.8,0.1
			l-0.1,0.1l-0.1,0.3l-0.3,0.3"/>
		<path id="XMLID_96_" class="st0" d="M545,244.7l-0.6,0.1l-0.5,0.4v0.2l0.3,0.2l0.8,0.2"/>
		<path id="XMLID_95_" class="st0" d="M545.4,246.5v1.9"/>
		<path id="XMLID_94_" class="st0" d="M571,256.4L547.4,270"/>
		<path id="XMLID_93_" class="st0" d="M547.7,250.7l0-1.1"/>
		<path id="XMLID_92_" class="st0" d="M549,249.4l0.1-0.2l0.3-0.3l0.6-0.1l0.5,0.1"/>
		<path id="XMLID_91_" class="st0" d="M553,247.1l0.2-0.3l0.3-0.2l0.5-0.1h0.6"/>
		<path id="XMLID_90_" class="st0" d="M550.8,244.3v4.6"/>
		<path id="XMLID_89_" class="st0" d="M555.1,245.7l-0.1-0.1"/>
		<path id="XMLID_88_" class="st0" d="M557.2,236.5l-0.9,0l3.1-0.1L557.2,236.5"/>
		<path id="XMLID_87_" class="st0" d="M568.6,236.7l0.5,0.4l-1.2-0.7l-8.6,0.1h1.2"/>
		<path id="XMLID_86_" class="st0" d="M561.9,259.6l1.4-2.4v-5.4"/>
		<path id="XMLID_85_" class="st0" d="M568.9,256.4l-5.6-3.2"/>
		<path id="XMLID_84_" class="st0" d="M569.9,254l-6.5-4.5"/>
		<path id="XMLID_83_" class="st0" d="M566.8,236.4l-1.3,0l1.4,0"/>
		<path id="XMLID_82_" class="st0" d="M569.8,367.5l0.5-0.9"/>
		<path id="XMLID_81_" class="st0" d="M571.6,364.5L571.6,364.5"/>
		<path id="XMLID_80_" class="st0" d="M574.1,251.6l-4.2,2.4"/>
		<path id="XMLID_79_" class="st0" d="M574.1,251.7l-3.9-13.8l0.3,0.4"/>
		<path id="XMLID_78_" class="st0" d="M570.3,237.9l-0.3-0.2L570.3,237.9"/>
		<path id="XMLID_77_" class="st0" d="M570.6,238.3l3.7,13.4l0.1,0.5"/>
		<path id="XMLID_76_" class="st0" d="M569.4,237.3l0.6,0.4l-0.9-0.6L569.4,237.3"/>
		<path id="XMLID_75_" class="st0" d="M574.7,357.8l0.2-1.8"/>
		<path id="XMLID_74_" class="st0" d="M574.7,357.3l0.2-1.4v-1.6"/>
		<path id="XMLID_73_" class="st0" d="M574.5,263l0.1-0.3l-0.1-0.5l0,0.5"/>
		<path id="XMLID_72_" class="st0" d="M574.6,262.5L574.6,262.5"/>
		<path id="XMLID_71_" class="st0" d="M574.6,262.3l-0.2-10.1"/>
		<path id="XMLID_70_" class="st0" d="M574.6,260.8l0.3,1.2v0.3"/>
		<path id="XMLID_69_" class="st0" d="M574.4,253l0-0.9"/>
		<path id="XMLID_68_" class="st0" d="M574.8,262.6l0,93.5"/>
		<path id="XMLID_67_" class="st0" d="M574.9,342.5l0.7-2.2l0.3-1.3"/>
		<path id="XMLID_66_" class="st0" d="M574.9,339v-0.7"/>
		<path id="XMLID_65_" class="st0" d="M576,338.5l-0.4,1.8"/>
		<path id="XMLID_64_" class="st0" d="M575.9,330.5l-0.9-1.3"/>
		<path id="XMLID_63_" class="st0" d="M574.9,334l0.7-1.2l0.4-1"/>
		<path id="XMLID_62_" class="st0" d="M576.1,291l-0.4,1.1l-0.8,1.3"/>
		<path id="XMLID_61_" class="st0" d="M576.1,282.6l-0.4,0.6l-0.8,0.5"/>
		<path id="XMLID_60_" class="st0" d="M228.6,224.8l-0.1,0.4l-0.3,0.3l-0.4,0.3l-0.7,0.2"/>
		<path id="XMLID_59_" class="st0" d="M243.6,230.8l-0.5-1"/>
		<path id="XMLID_58_" class="st0" d="M246.3,350.1l-0.3-0.4l-0.4-0.3l-0.2,0l-0.2,0.2v0.7l0.3,0.7l0.5,0.5l0.3,0.1"/>
		<path id="XMLID_57_" class="st0" d="M246,349.7l-0.2-0.2"/>
		<path id="XMLID_56_" class="st0" d="M329.4,109.8l-0.3-0.1l-0.6,0l-0.3,0.1l-0.4,0.3"/>
		<path id="XMLID_55_" class="st0" d="M535.1,257.2l0-2.8"/>
		<path id="XMLID_54_" class="st0" d="M542.3,263.1l4.7,0.9l-2.6-0.4"/>
		<path id="XMLID_53_" class="st0" d="M542.7,263.2l-0.6-0.3"/>
		<path id="XMLID_52_" class="st0" d="M553.3,263.8l-1.9,0.2"/>
		<path id="XMLID_51_" class="st0" d="M561.9,259.6l-2.5,2"/>
		<path id="XMLID_50_" class="st0" d="M563.3,254.6v1.8"/>
		<path id="XMLID_49_" class="st0" d="M396.3,334.8v2.6"/>
		<path id="XMLID_48_" class="st0" d="M420.9,341.7l2.2-1.9l-2.6,2.1l-2.3,1.1"/>
		<path id="XMLID_47_" class="st0" d="M423.1,339.8l0.6-0.8"/>
		<path id="XMLID_46_" class="st0" d="M204.7,292.3l-0.8-1.9"/>
		<path id="XMLID_45_" class="st0" d="M214.7,232.5l1.2,2.2"/>
		<path id="XMLID_44_" class="st0" d="M415.8,326.6l0.5-0.1l0.2-0.1l0.1-0.3l-0.5-0.4l-0.7-0.2"/>
		<path id="XMLID_43_" class="st0" d="M405,327.9l-0.5,0.3l-0.2,0.2l-0.1,0.4l0.3,0.3l0.3,0.1l0.6-0.1"/>
		<path id="XMLID_42_" class="st0" d="M267.9,332.9l-0.8,1.4"/>
		<path id="XMLID_41_" class="st0" d="M255.2,306.3l0.5,0"/>
		<path id="XMLID_40_" class="st0" d="M554.6,246.4h0.3l0.4-0.1l0.1-0.3l-0.3-0.3"/>
		<path id="XMLID_39_" class="st0" d="M555,245.6l-0.5-0.2l-0.6-0.1"/>
		<path id="XMLID_38_" class="st0" d="M544.9,245.7l0.3,0.2l0.2,0.3v0.3l-0.2,0.3l-0.6,0.5l-0.9,0.4"/>
		<path id="XMLID_37_" class="st0" d="M414.9,330l0.6-0.1l0.3-0.3v-0.2l-0.3-0.4"/>
		<path id="XMLID_36_" class="st0" d="M410.2,329.6l-0.1,0.3l-0.3,0.3l-0.4,0.3l-0.7,0.2"/>
		<path id="XMLID_35_" class="st0" d="M547.7,250.6l0.7-0.2l0.4-0.3l0.3-0.3l0.1-0.3"/>
		<path id="XMLID_34_" class="st0" d="M223.4,223.1l-0.3,0.1l-0.4,0.3l-0.1,0.4l0.3,0.3l0.5,0l0.6-0.2"/>
		<path id="XMLID_33_" class="st0" d="M547.4,270l0.4-0.5v-0.3"/>
		<path id="XMLID_32_" class="st0" d="M409,349.5v0.3l-0.4,0.5"/>
		<path id="XMLID_31_" class="st0" d="M430.1,336.6l0.8,0.2l0.9-0.1l0.3-0.2"/>
		<path id="XMLID_30_" class="st0" d="M534.4,255.5l0.7-1.1"/>
		<path id="XMLID_29_" class="st0" d="M535.1,254.3l-0.7,1.1"/>
		<path id="XMLID_28_" class="st0" d="M571,256.4l-0.4,0.2l-0.9,0.1l-0.8-0.2"/>
		<path id="XMLID_27_" class="st0" d="M405,343.7l-0.5-0.2"/>
		<path id="XMLID_26_" class="st0" d="M542.5,263.2l4.5,0.9"/>
		<path id="XMLID_25_" class="st0" d="M547,264.2l4.1,0.1l2.2-0.4"/>
		<path id="XMLID_24_" class="st0" d="M553.3,263.9l2-0.5"/>
		<path id="XMLID_23_" class="st0" d="M383.3,84.1c0.2,0.9-0.8,1.7-2.4,1.9c-1.6,0.1-3-0.5-3.3-1.4c0-0.2,0-0.3,0-0.5"/>
		<ellipse id="XMLID_22_" class="st0" cx="380.5" cy="82.6" rx="2.1" ry="1.2"/>
		<path id="XMLID_21_" class="st0" d="M553.3,263.8c-2,0.4-4.2,0.4-6.3,0.2"/>
		<path id="XMLID_20_" class="st0" d="M561.9,259.6c-1.8,2-4.9,3.5-8.6,4.2"/>
		<path id="XMLID_19_" class="st0" d="M420.5,341.9c-1.5,0.9-3.4,1.5-5.4,2"/>
		<path id="XMLID_18_" class="st0" d="M424.6,336.1c0,1-0.3,2-0.9,2.9"/>
		<path id="XMLID_17_" class="st0" d="M215.9,234.7c-1.4-1.7-1.7-3.6-0.9-5.4"/>
		<ellipse id="XMLID_16_" class="st0" cx="549.2" cy="250.5" rx="14.3" ry="8.2"/>
		<path id="XMLID_15_" class="st0" d="M291.3,343c-1.5,2.2-5,1.4-7.8-2c-0.3-0.3-0.5-0.7-0.8-1.1"/>
		<path id="XMLID_14_" class="st0" d="M282.7,340c-2.5-3.7-3-8-1-9.6c0.5-0.4,1.1-0.6,1.7-0.6"/>
		<path id="XMLID_13_" class="st0" d="M285.2,330c2.4,0.9,4.9,3.6,6.1,6.8"/>
		<ellipse id="XMLID_12_" class="st0" cx="410.4" cy="330.6" rx="14.3" ry="8.2"/>
		<path id="XMLID_11_" class="st0" d="M267.9,332.9c-0.7,1.9-2.2,2.6-4.1,2"/>
		<path id="XMLID_10_" class="st0" d="M261.3,318.7c3.3,1.5,6.4,6.3,6.9,10.7c0.2,1.3,0.1,2.5-0.3,3.5"/>
		<path id="XMLID_9_" class="st0" d="M255.8,320.3c-2.9-3.4-4.5-8.8-3.5-11.9c0.8-2.7,3.3-3,5.9-0.6"/>
		<ellipse id="XMLID_8_" class="st0" cx="228.8" cy="225.8" rx="14.3" ry="8.2"/>
		<path id="XMLID_7_" class="st0" d="M233.2,223.7c-0.8-0.6-0.8-1.4-0.1-1.7c0.3-0.1,0.6-0.2,1-0.2"/>
		<path id="XMLID_6_" class="st0" d="M493.6,239.9c3.3,38.4-44,69.2-105.6,68.7c-2,0-3.9-0.1-5.9-0.1"/>
		<path id="XMLID_5_" class="st0" d="M382.1,308.6c-63-2.4-114.4-31.6-115-65.2c0-2.5,0.2-5,0.7-7.5"/>
		<path id="XMLID_4_" class="st0" d="M416.4,343.5c-3.9,1.3-8.7,1.2-12.5-0.2"/>
		<path id="XMLID_3_" class="st0" d="M416.4,343.5c-3.5,1.2-7.8,1.3-11.4,0.2"/>
		<path id="XMLID_2_" class="st0" d="M382.7,345.6c-74.5-20.4-134.5-55-169.8-98"/>
	</g>
</g>
<path class="st1" d="M90.4,41.4h1.2v1.2h-1.2V41.4z M91,42L91,42L91,42L91,42L91,42z"/>
<path class="st2" d="M91,42.1L91,42.1L91,42.1L91,42.1L91,42.1L91,42.1L91,42.1z"/>
<g id="ToolTip" transform="translate(0,0)" class="st3">
	<rect id="ToolTipShadow" x="91" y="42" class="st4" width="85" height="22.7"/>
	<rect id="ToolTipBG" x="91" y="42" class="st5" width="85" height="22.7"/>
	<text id="ToolTipText" transform="matrix(1 0 0 1 0.9993 0.7209)" class="st6 st7 st8">tooltip</text>
</g>
<g id="XMLID_499_">
	<g id="XMLID_502_">
		<path id="XMLID_517_" d="M813.4,3c14,0,25.5,11.4,25.5,25.5v538.3c0,14-11.4,25.5-25.5,25.5H28.5c-14,0-25.5-11.4-25.5-25.5V28.5
			C3,14.4,14.4,3,28.5,3H813.4 M813.4,0H28.5C12.8,0,0,12.8,0,28.5v538.3c0,15.7,12.8,28.5,28.5,28.5h784.9
			c15.7,0,28.5-12.8,28.5-28.5V28.5C841.9,12.8,829.1,0,813.4,0L813.4,0z"/>
	</g>
	<g id="XMLID_501_">
		<path id="XMLID_530_" d="M1.5,83.5V28.5c0-14.9,12.1-27,27-27h55.1v55.1c0,14.9-12.1,27-27,27H1.5z"/>
		<g id="XMLID_526_">
			<path id="XMLID_527_" d="M82,3v53.6C82,70.6,70.6,82,56.6,82H3V28.5C3,14.4,14.4,3,28.5,3H82 M85,0H28.5C12.8,0,0,12.8,0,28.5V85
				h56.6C72.2,85,85,72.2,85,56.6V0L85,0z"/>
		</g>
	</g>
	<g id="XMLID_503_">
		<path id="XMLID_504_" class="st9" d="M37,47c0,1.4,0.2,2.5,0.7,3.4c0.8,1.6,2.3,2.5,4.4,2.5c1.3,0,2.5-0.4,3.4-1.3
			s1.5-2.2,1.5-3.9c0-2.2-0.9-3.7-2.7-4.5c-1-0.4-2.6-0.6-4.9-0.6v-4.8c2.2,0,3.7-0.2,4.5-0.6c1.5-0.7,2.2-2,2.2-4
			c0-1.3-0.4-2.4-1.1-3.2s-1.8-1.2-3.2-1.2c-1.6,0-2.7,0.5-3.5,1.5s-1.1,2.3-1.1,4H31c0.1-1.7,0.4-3.3,0.9-4.8
			c0.5-1.3,1.4-2.6,2.6-3.7c0.9-0.8,1.9-1.4,3.1-1.8s2.7-0.6,4.4-0.6c3.2,0,5.9,0.8,7.9,2.5c2,1.7,3,3.9,3,6.8c0,2-0.6,3.7-1.8,5.1
			c-0.8,0.9-1.5,1.4-2.3,1.8c0.6,0,1.5,0.5,2.6,1.6c1.7,1.6,2.6,3.7,2.6,6.5c0,2.9-1,5.4-3,7.6s-4.9,3.3-8.8,3.3
			c-4.8,0-8.1-1.6-10-4.7c-1-1.7-1.5-3.9-1.6-6.6H37z"/>
	</g>
</g>
</svg>
