<?xml version="1.0" encoding="utf-8"?>
<!-- Generator: Adobe Illustrator 19.0.0, SVG Export Plug-In . SVG Version: 6.00 Build 0)  -->
<svg version="1.1" id="Layer_1" xmlns="http://www.w3.org/2000/svg" xmlns:xlink="http://www.w3.org/1999/xlink" x="0px" y="0px"
	 width="841.9px" height="595.3px" viewBox="0 0 841.9 595.3" style="enable-background:new 0 0 841.9 595.3;" xml:space="preserve"
	>
<style type="text/css">
	.st0{fill:none;stroke:#0B0620;stroke-width:0.5;stroke-linecap:round;stroke-linejoin:round;stroke-opacity:0.8;}
	.st1{fill:none;stroke:#0B0620;stroke-width:0.5;stroke-linecap:round;stroke-linejoin:round;}
	.st2{fill:#FFFFFF;}
</style>
<g id="XMLID_1_">
	<g id="XMLID_1035_">
		<path id="XMLID_1051_" class="st0" d="M382.4,249l-79.5-45.9"/>
		<path id="XMLID_1048_" class="st0" d="M383.3,248.5L305,203.3"/>
		<path id="XMLID_1045_" class="st0" d="M382,220.1l-33.6-19.4"/>
		<path id="XMLID_1042_" class="st0" d="M391,249.8l0.9-0.5"/>
		<path id="XMLID_1039_" class="st0" d="M394.6,241.7c0,7.9-5.6,11.1-12.4,7.2"/>
		<path id="XMLID_1036_" class="st0" d="M392.3,249c-2.4,1.7-5.7,1.5-9.3-0.5"/>
	</g>
	<g id="XMLID_1027_">
		<path id="XMLID_1034_" class="st1" d="M385.6,233.2c-0.1-0.2-0.1-0.2-0.1-0.3c-0.1-0.2-0.1-0.2-0.2-0.3c-0.1-0.1-0.1-0.1-0.2-0.3
			c-0.1-0.1-0.1-0.1-0.3-0.2"/>
		<path id="XMLID_1033_" class="st1" d="M387.3,235l-0.1,0.2l-0.5,0.3l-0.7-0.7l-0.7-0.8"/>
		<path id="XMLID_1032_" class="st1" d="M384.3,232.1l-0.3-1l-0.2-1l0.5-0.3l0.2,0"/>
		<path id="XMLID_1031_" class="st1" d="M388.1,235.6l-0.1-0.2l-0.3-0.2l-0.2-0.1l-0.3-0.1L387,235l-0.1,0.2l-0.1,0.3"/>
		<path id="XMLID_1030_" class="st1" d="M385.4,234l0.1-0.2l0.1-0.3v0l0-0.3"/>
		<path id="XMLID_1029_" class="st1" d="M384.8,232.1l-0.2-0.1l-0.2,0"/>
		<path id="XMLID_1028_" class="st1" d="M384.3,229l0.1,0.2l0.1,0.3v0.2v0.1l-0.1,0.2l-0.2,0.2l-0.2,0l-0.3-0.1"/>
	</g>
	<g id="XMLID_1023_">
		<path id="XMLID_1026_" class="st1" d="M382.8,230.5L382.8,230.5"/>
		<path id="XMLID_1025_" class="st1" d="M388.3,237.6c-2.7-1.1-5.2-4.7-5.7-8c-0.1-0.6-0.1-1.2,0-1.8"/>
		<path id="XMLID_1024_" class="st1" d="M387.6,239.6c-3.2-1.1-6.4-5.2-7.1-9.4c-0.2-1.1-0.2-2.1,0-2.9"/>
	</g>
	<g id="XMLID_940_">
		<path id="XMLID_1022_" class="st1" d="M396,236.6c-0.9-2.6-0.9-2.6-1.8-5.2c-1.6-2.9-1.6-2.9-3.3-5.7c-2-2.4-2-2.5-4.2-4.8
			c-2.2-1.8-2.3-1.8-4.6-3.5"/>
		<path id="XMLID_1021_" class="st1" d="M375.5,191.7c0.1,0,0.1,0,0.3,0.1c0.3,0,0.3,0,0.7,0.1c0.2,0,0.2,0,0.3-0.1
			c0.3-0.1,0.3-0.1,0.7-0.2c0.3-0.1,0.3-0.2,0.6-0.3c0.9-0.6,0.9-0.6,1.8-1.3"/>
		<path id="XMLID_1020_" class="st1" d="M379.4,194c0.2,0.2,0.2,0.2,0.4,0.3c0.3,0.1,0.3,0.1,0.6,0.2c0.3,0,0.3,0,0.7,0
			c0.2,0,0.2,0,0.4,0c0.3-0.1,0.3-0.1,0.7-0.2c0.3-0.2,0.3-0.2,0.6-0.3"/>
		<path id="XMLID_1019_" class="st1" d="M392.5,186.1c-0.2-0.1-0.2-0.1-0.4-0.2c-0.3,0-0.3,0-0.5-0.1c-0.1,0-0.2,0-0.3,0"/>
		<path id="XMLID_1018_" class="st1" d="M384.1,196.7c0.2,0.2,0.2,0.2,0.5,0.3c0.3,0.1,0.3,0.1,0.6,0.2c0.4,0,0.4,0,0.8,0
			c0.1,0,0.1,0,0.3,0c0.3-0.1,0.3-0.1,0.7-0.2c0.3-0.1,0.3-0.1,0.6-0.3"/>
		<path id="XMLID_1017_" class="st1" d="M397.6,188.4c-0.2-0.1-0.2-0.1-0.3-0.2c-0.1,0-0.1,0-0.1-0.1c-0.3-0.1-0.3-0.1-0.6-0.2
			c-0.3,0-0.3,0-0.7-0.1c-0.2,0-0.2,0-0.3,0c-0.3,0.1-0.3,0.1-0.7,0.1c-0.3,0.1-0.3,0.1-0.6,0.3"/>
		<path id="XMLID_1016_" class="st1" d="M384.8,195.5c5-3.4,5-3.4,10-6.8c0.2-0.1,0.2-0.1,0.5-0.2c0.3-0.1,0.3-0.1,0.5-0.1
			c0.3,0,0.3,0,0.5,0c0.3,0,0.3,0,0.5,0.1c0.2,0.1,0.2,0.1,0.3,0.1c0,0,0,0,0.1,0.1"/>
		<path id="XMLID_1015_" class="st1" d="M391.4,188.1c-0.2,0-0.2,0-0.4,0c-0.2,0.1-0.2,0.1-0.5,0.1c-0.2,0.1-0.2,0.1-0.4,0.2"/>
		<path id="XMLID_1014_" class="st1" d="M386.8,253.7c1.8,0.1,1.8,0.1,3.6,0.1c0.3-0.1,0.3-0.1,0.6-0.2c1.3-0.6,1.3-0.6,2.6-1.2"/>
		<path id="XMLID_1013_" class="st1" d="M389.4,198.2c5-3.4,5-3.4,10-6.7c0.2-0.1,0.2-0.1,0.4-0.2c0.3-0.1,0.3-0.1,0.5-0.1
			c0.3,0,0.3,0,0.5,0c0.3,0.1,0.3,0.1,0.5,0.1c0.2,0.1,0.2,0.1,0.4,0.2"/>
		<path id="XMLID_1012_" class="st1" d="M402.3,191.1c-0.2-0.2-0.2-0.2-0.4-0.3c-0.3-0.1-0.3-0.1-0.6-0.2c-0.4,0-0.4,0-0.7-0.1
			c-0.2,0-0.2,0-0.3,0c-0.3,0.1-0.3,0.1-0.7,0.1c-0.3,0.1-0.3,0.1-0.6,0.3"/>
		<path id="XMLID_1011_" class="st1" d="M388.8,199.4c0.2,0.2,0.2,0.2,0.4,0.3c0.3,0.1,0.3,0.1,0.6,0.2c0.3,0,0.3,0,0.7,0.1
			c0.2,0,0.2,0,0.4-0.1c0.3-0.1,0.3-0.1,0.6-0.2c0.2-0.1,0.2-0.1,0.4-0.2"/>
		<path id="XMLID_1010_" class="st1" d="M390.3,253.8c2.9-0.6,2.9-0.6,5.8-1.3c2.9-0.8,2.9-0.8,5.8-1.6c6.2-2.2,6.2-2.1,12.4-4.4
			c5.6-2.7,5.6-2.7,11.1-5.5"/>
		<path id="XMLID_1009_" class="st1" d="M396,190.8c-0.2,0-0.2,0-0.4,0c-0.3,0-0.3,0-0.5,0.1c-0.2,0.1-0.2,0.1-0.4,0.2"/>
		<path id="XMLID_1008_" class="st1" d="M394,202.5c0.2,0.1,0.2,0.1,0.4,0.1c0.3,0,0.3,0,0.7,0c0.2,0,0.2,0,0.4,0
			c0.3-0.1,0.3-0.1,0.7-0.2c0.3-0.2,0.3-0.2,0.6-0.3"/>
		<path id="XMLID_1007_" class="st1" d="M407,193.8c-0.2-0.1-0.2-0.1-0.3-0.2c0,0,0-0.1-0.1-0.1c-0.3-0.1-0.3-0.1-0.6-0.2
			c-0.3,0-0.3,0-0.7-0.1c-0.2,0-0.2,0-0.4,0c-0.3,0.1-0.3,0-0.6,0.1c-0.3,0.1-0.3,0.1-0.6,0.2"/>
		<path id="XMLID_1006_" class="st1" d="M406.5,194.1c-0.1,0-0.1,0-0.1,0c-0.1-0.1-0.1-0.1-0.3-0.2c-0.2,0-0.2,0-0.5-0.1
			c-0.3,0-0.3,0-0.5,0c-0.3,0-0.3,0-0.5,0.1c-0.2,0.1-0.2,0.1-0.5,0.2"/>
		<path id="XMLID_1005_" class="st1" d="M400.7,193.5c-0.2,0-0.2,0-0.4,0c-0.3,0-0.3,0-0.5,0.1c-0.2,0.1-0.2,0.1-0.4,0.2"/>
		<path id="XMLID_1004_" class="st1" d="M399.4,193.8c-2.3,1.5-2.3,1.5-4.5,3c-0.2,0.1-0.2,0.1-0.4,0.2c-0.1,0.1-0.1,0.1-0.2,0.2"/>
		<path id="XMLID_1003_" class="st1" d="M395.8,235.2c0.7,2.7,0.7,2.7,1.2,5.4c0,2.4,0,2.4,0,4.9c-0.3,1.2-0.3,1.2-0.7,2.4"/>
		<path id="XMLID_1002_" class="st1" d="M405.4,196.2c-0.2,0-0.2,0-0.4,0c-0.3,0.1-0.3,0.1-0.5,0.1c-0.2,0.1-0.2,0.1-0.4,0.2"/>
		<path id="XMLID_1001_" class="st1" d="M389.4,198.9c-0.1,0.1-0.1,0.1-0.2,0.1c-0.1,0.1-0.1,0.1-0.1,0.2c0,0,0,0-0.1,0.1"/>
		<path id="XMLID_1000_" class="st1" d="M294.1,201l88,50.8l4.7,1.8l-0.3-0.1l-3.4-1.4"/>
		<path id="XMLID_999_" class="st1" d="M302,203l80.1,46.2"/>
		<path id="XMLID_998_" class="st1" d="M383.1,248.3l-78.2-45.1"/>
		<path id="XMLID_997_" class="st1" d="M321.4,208.3l-7.7-4.5"/>
		<path id="XMLID_996_" class="st1" d="M382.1,220.2l-33.7-19.4"/>
		<path id="XMLID_995_" class="st1" d="M382.1,217.4l-29.9-17.3"/>
		<path id="XMLID_994_" class="st1" d="M387,187.4l-7.3,4.9l-0.4,0.4l-0.2,0.5l0,0.4l0.3,0.4"/>
		<path id="XMLID_993_" class="st1" d="M382.7,194l10-6.8l0.4-0.4l0.2-0.4l0-0.4l-0.3-0.4l-0.4-0.3l-0.2,0"/>
		<path id="XMLID_992_" class="st1" d="M380.1,194.4l-0.1-0.1l-0.3-0.3l-0.1-0.4l0-0.2l0.1-0.4l0.3-0.3l9.4-6.4"/>
		<path id="XMLID_991_" class="st1" d="M379.9,193.6l5.1-3"/>
		<path id="XMLID_990_" class="st1" d="M379.8,190.1l-1.7,1.2"/>
		<path id="XMLID_989_" class="st1" d="M382.7,194L382.7,194"/>
		<path id="XMLID_988_" class="st1" d="M382.7,194l9.7-6.6l0.3-0.3l0.2-0.3v-0.2l-0.1-0.3l-0.3-0.3"/>
		<path id="XMLID_987_" class="st1" d="M384.7,194.8l-0.3,0.2l-0.4,0.4l-0.2,0.4l0,0.5l0.3,0.4"/>
		<path id="XMLID_986_" class="st1" d="M387.4,196.7l10-6.8l0.4-0.4l0-0.1l0.2-0.3l0-0.4l-0.3-0.4"/>
		<path id="XMLID_985_" class="st1" d="M394.4,188.2l-9.7,6.6"/>
		<path id="XMLID_984_" class="st1" d="M384.6,196.3l5.1-3"/>
		<path id="XMLID_983_" class="st1" d="M384.8,197.1l-0.1-0.1l-0.3-0.3l-0.1-0.3v-0.2l0.2-0.4l0.3-0.3"/>
		<path id="XMLID_982_" class="st1" d="M397.1,188.8l0.3,0.3l0.1,0.3v0.2l-0.1,0.3l-0.3,0.3l-9.7,6.6"/>
		<path id="XMLID_981_" class="st1" d="M384.6,197L384.6,197"/>
		<path id="XMLID_980_" class="st1" d="M390.1,188.4l-5,3.3l-0.2,0.2"/>
		<path id="XMLID_979_" class="st1" d="M386.6,253.6L386.6,253.6"/>
		<path id="XMLID_978_" class="st1" d="M393.5,252.4L393.5,252.4"/>
		<path id="XMLID_977_" class="st1" d="M394.5,231.3l-4.2-6.6l-3.5-3.9"/>
		<path id="XMLID_976_" class="st1" d="M389.4,199.8L389.4,199.8l-0.4-0.3l-0.1-0.4l0-0.2l0.1-0.4l0.3-0.4"/>
		<path id="XMLID_975_" class="st1" d="M401.8,191.5l0.3,0.3l0.1,0.3v0.1l-0.2,0.3l-0.3,0.3l-9.8,6.7l0.2-0.1l10-6.8l0.4-0.4
			l0.2-0.4v-0.4l-0.3-0.4"/>
		<path id="XMLID_974_" class="st1" d="M399.1,190.9l-10,6.8l-0.4,0.4l-0.2,0.5l0,0.5l0.3,0.4"/>
		<path id="XMLID_973_" class="st1" d="M391.9,199.5L391.9,199.5"/>
		<path id="XMLID_972_" class="st1" d="M389.4,198.9l4.9-2.9"/>
		<path id="XMLID_971_" class="st1" d="M389.2,199.7L389.2,199.7"/>
		<path id="XMLID_970_" class="st1" d="M394.7,191.1l-5,3.3l-0.2,0.1"/>
		<path id="XMLID_969_" class="st1" d="M396.7,202.1l10-6.8l0.4-0.4l0-0.1l0.2-0.3l0-0.4l-0.3-0.4"/>
		<path id="XMLID_968_" class="st1" d="M403.7,193.6l-10,6.8l-0.4,0.4l0,0.1l-0.2,0.4l0,0.4l0.3,0.4l0.5,0.3l0.1,0"/>
		<path id="XMLID_967_" class="st1" d="M396.7,202.1l9.7-6.6l0.3-0.3l0.1-0.3v-0.2l-0.1-0.3l-0.3-0.3"/>
		<path id="XMLID_966_" class="st1" d="M404,194.2l-10,6.7l-0.3,0.3l-0.2,0.4v0.2l0.1,0.4l0.3,0.3l0.1,0.1"/>
		<path id="XMLID_965_" class="st1" d="M394.1,201.6l5-2.9"/>
		<path id="XMLID_964_" class="st1" d="M392.8,186.6v0.2"/>
		<path id="XMLID_963_" class="st1" d="M390.9,253.6l3.3-1.9l2.2-3.7l-0.5,1.6"/>
		<path id="XMLID_962_" class="st1" d="M397.5,189.3v0.3"/>
		<path id="XMLID_961_" class="st1" d="M414.3,193.9l-17.6-10.2"/>
		<path id="XMLID_960_" class="st1" d="M404,196.5l-5,3.3l-0.2,0.2"/>
		<path id="XMLID_959_" class="st1" d="M402.2,192v0.2"/>
		<path id="XMLID_958_" class="st1" d="M406.8,194.9v-0.1v-0.1"/>
		<path id="XMLID_957_" class="st1" d="M384.8,196.2l-0.2,0.1l-0.2,0.3"/>
		<path id="XMLID_956_" class="st1" d="M394.8,197.5l-0.4-0.2l-0.3-0.3l-0.2-0.3l0.1-0.3l0.2-0.3l0.2-0.2"/>
		<path id="XMLID_955_" class="st1" d="M389.7,193.3l-0.2,0.1l-0.2,0.3l0,0.3l0.1,0.3l0.3,0.3l0.4,0.2"/>
		<path id="XMLID_954_" class="st1" d="M394.1,201.6l-0.2,0.2l-0.2,0.2"/>
		<path id="XMLID_953_" class="st1" d="M380.1,193.5l-0.2,0.1l-0.2,0.3"/>
		<path id="XMLID_952_" class="st1" d="M385.1,190.6l-0.2,0.1l-0.2,0.3l-0.1,0.3l0.2,0.3l0.3,0.3l0.4,0.2"/>
		<path id="XMLID_951_" class="st1" d="M399.1,198.7l-0.2,0.1l-0.2,0.3l0,0.3l0.1,0.3l0.3,0.3l0.4,0.2"/>
		<path id="XMLID_950_" class="st1" d="M394.8,250.6l-0.6,1.1l-0.1,0.1"/>
		<path id="XMLID_949_" class="st1" d="M395.9,248.4l0.2-0.5l0.7-4.8l-0.8-6.5"/>
		<path id="XMLID_948_" class="st1" d="M354.3,211.1l-0.4,1l-0.4,1.7"/>
		<path id="XMLID_947_" class="st1" d="M362.5,229.4l1.7,0.5l1,0.1"/>
		<path id="XMLID_946_" class="st1" d="M414,193.8c10.7,6.2,19.4,21.3,19.4,33.7c0,7.2-3,12.2-8,13.5"/>
		<path id="XMLID_945_" class="st1" d="M326.3,209.8c-1.5,0-3.2-0.4-4.9-1.4"/>
		<path id="XMLID_944_" class="st1" d="M390.6,253.5c-2.5,0.6-5.5,0-8.5-1.8"/>
		<path id="XMLID_943_" class="st1" d="M390.5,250c-2.1,0.5-4.6-0.1-7.2-1.5"/>
		<path id="XMLID_942_" class="st1" d="M386.8,240.4c-3.1-0.6-6.4-4.4-7.4-8.5c-0.4-1.6-0.4-3.1,0-4.2"/>
		<path id="XMLID_941_" class="st1" d="M382,220.1c7,4,12.6,13.8,12.6,21.8c0,8-5.6,11.3-12.6,7.3c0,0,0,0,0,0"/>
	</g>
	<g id="XMLID_931_">
		<path id="XMLID_939_" class="st1" d="M397.1,183.6c8.7,5,8.7,5,17.3,10c2.1,1.5,2.1,1.5,4.2,3c1.8,1.7,1.8,1.7,3.5,3.4
			c1.8,2.2,1.8,2.2,3.7,4.5c1.6,2.5,1.6,2.5,3.1,5c1.3,2.7,1.3,2.7,2.4,5.4c0.9,2.7,0.9,2.7,1.6,5.4c0.4,2.6,0.4,2.6,0.7,5.2
			c0,2.2,0,2.2-0.1,4.4c-0.4,2-0.4,2-0.9,4c-0.8,1.6-0.8,1.6-1.7,3.2"/>
		<path id="XMLID_938_" class="st1" d="M431,237.1c0.6-0.8,0.6-0.9,1.2-1.7c0.7-1.5,0.7-1.5,1.4-3.1c0.9-2.5,0.9-2.5,1.7-5.1"/>
		<path id="XMLID_937_" class="st1" d="M435.3,227.1c0-3.2,0-3.2,0-6.4c0-0.9,0-0.9-0.1-1.8c-0.8-3.2-0.7-3.2-1.5-6.3
			c-1.4-3.2-1.4-3.2-3-6.3c-1.9-2.9-1.9-2.9-4-5.6c-2.3-2.3-2.3-2.2-4.7-4.4c-0.7-0.5-0.8-0.5-1.5-1c-1.2-0.8-1.2-0.8-2.5-1.6"/>
		<path id="XMLID_936_" class="st1" d="M435.3,219.4c-0.3-1.2-0.3-1.2-0.6-2.3c-0.5-2.1-0.5-2.1-1-4.2c-0.5-1.2-0.6-1.2-1.2-2.4
			c-1-2.1-0.9-2.1-1.9-4.1c-0.8-1.1-0.8-1.1-1.6-2.2c-1.3-1.8-1.3-1.8-2.6-3.7c-1-0.9-1-0.9-1.9-1.7c-1.5-1.4-1.5-1.4-3-2.8"/>
		<path id="XMLID_935_" class="st1" d="M431,237.1l-1.1,1"/>
		<path id="XMLID_934_" class="st1" d="M418,193.6l-18.7-10.8"/>
		<path id="XMLID_933_" class="st1" d="M429.3,238.7l-0.7,0.7l-1.5,0.6"/>
		<path id="XMLID_932_" class="st1" d="M432.2,235.4l1.8-5.3"/>
	</g>
	<g id="XMLID_923_">
		<path id="XMLID_930_" class="st1" d="M385,191.9l3.7-2"/>
		<path id="XMLID_929_" class="st1" d="M393.4,192.6l-3.7,2.1"/>
		<path id="XMLID_928_" class="st1" d="M391.3,188.1L391.3,188.1"/>
		<path id="XMLID_927_" class="st1" d="M394.4,197.3l3.7-2.1"/>
		<path id="XMLID_926_" class="st1" d="M396,190.8L396,190.8"/>
		<path id="XMLID_925_" class="st1" d="M400.7,193.5L400.7,193.5"/>
		<path id="XMLID_924_" class="st1" d="M405.4,196.2L405.4,196.2"/>
	</g>
	<g id="XMLID_897_">
		<path id="XMLID_922_" class="st1" d="M634.6,426.6c-1.1,0.2-1.1,0.2-2.2,0.3c-2.3-0.2-2.3-0.2-4.6-0.5c-0.8-0.2-0.8-0.2-1.5-0.4
			c-1.8-0.8-1.8-0.8-3.7-1.6c-5-3.1-5-3.1-10-6.3"/>
		<path id="XMLID_921_" class="st1" d="M629.9,416.6c-2-2.2-2-2.2-3.9-4.4c-0.7-0.7-0.7-0.7-1.4-1.4c-0.4-0.5-0.4-0.5-0.9-1
			c-0.2-0.2-0.2-0.2-0.5-0.4c-0.2-0.2-0.2-0.2-0.5-0.4"/>
		<path id="XMLID_920_" class="st1" d="M618.2,405.2c-22.2-14-22.2-14-44.3-28c-6.5-4.1-6.5-4.1-13.1-8.3
			c-22.8-14.4-22.8-14.4-45.6-28.8"/>
		<path id="XMLID_919_" class="st1" d="M515.4,326c49.8,31.4,49.8,31.4,99.5,62.8c1.2,1.1,1.2,1.1,2.4,2.2c0.1,0.2,0.1,0.2,0.3,0.3
			c0.3,0.4,0.3,0.4,0.5,0.8c0.7,1.6,0.6,1.6,1.3,3.3c0,0.2,0,0.3,0.1,0.5c0.1,0.8,0.1,0.8,0.2,1.7c0.2,2,0.1,2,0.3,4.1
			c0.1,0.8,0.1,0.8,0.2,1.5"/>
		<path id="XMLID_918_" class="st1" d="M644.2,420.1c0.1-8.4,0.1-8.5,0.2-16.9c-0.2-1.5-0.2-1.5-0.4-2.9c-0.1-0.3-0.1-0.3-0.1-0.5"
			/>
		<path id="XMLID_917_" class="st1" d="M641.6,396.6c-1.8-1.2-1.8-1.2-3.7-2.3c-2.1-0.7-2.1-0.7-4.2-1.3c-2.4-0.3-2.4-0.3-4.7-0.4
			c-2.3,0.2-2.4,0.2-4.7,0.5c-2.1,0.6-2.1,0.6-4.2,1.3c-0.4,0.3-0.5,0.3-0.9,0.5"/>
		<path id="XMLID_916_" class="st1" d="M606.6,415.2l-0.6-0.4L505,351"/>
		<path id="XMLID_915_" class="st1" d="M612.6,418.1l-106.9-67.6"/>
		<path id="XMLID_914_" class="st1" d="M514.8,341.6l91.1,57.5"/>
		<path id="XMLID_913_" class="st1" d="M622.8,409l-16.5-10.4L515,341"/>
		<path id="XMLID_912_" class="st1" d="M515.8,326.9l98.8,62.4"/>
		<path id="XMLID_911_" class="st1" d="M515.2,326.3l0.9,0.4"/>
		<path id="XMLID_910_" class="st1" d="M515,325.7l0.4,0.2L515,325.7"/>
		<path id="XMLID_909_" class="st1" d="M606.6,415.2l15.9,9.2"/>
		<path id="XMLID_908_" class="st1" d="M625.4,425.7l-3-6.1l-6.1-12.3"/>
		<path id="XMLID_907_" class="st1" d="M618.1,404.7v-0.4l0,0.2l0.1,1l0.3,0.8l0.1,0.1"/>
		<path id="XMLID_906_" class="st1" d="M618.1,404.4v-0.2l0,0.1l0.1-0.5"/>
		<path id="XMLID_905_" class="st1" d="M620,404.7l0.2-1.3"/>
		<path id="XMLID_904_" class="st1" d="M619.9,405.2l-0.4-0.4"/>
		<path id="XMLID_903_" class="st1" d="M619.1,404.2L619.1,404.2"/>
		<path id="XMLID_902_" class="st1" d="M619.8,401.7l-0.2-4.1"/>
		<path id="XMLID_901_" class="st1" d="M620.2,403.5l-0.2-0.6"/>
		<path id="XMLID_900_" class="st1" d="M643.9,399.7l-0.3-0.5l-2-2.6"/>
		<path id="XMLID_899_" class="st1" d="M644.2,420c-0.7,2.5-3.3,4.8-7.1,6.1"/>
		<path id="XMLID_898_" class="st1" d="M619.6,399c1.6-3,7-4.7,12.3-3.8c5.2,0.9,8.2,4.1,6.6,7.1c-1.6,3-7,4.7-12.3,3.8
			c-2.7-0.5-5-1.6-6.2-3.1"/>
	</g>
	<g id="XMLID_868_">
		<path id="XMLID_896_" class="st1" d="M211.7,193.4c119.1,68.7,119.1,68.7,238.1,137.5c0.8,0.6,0.8,0.6,1.6,1.2
			c0.7,0.8,0.7,0.8,1.4,1.6"/>
		<path id="XMLID_895_" class="st1" d="M211,191.3c116.5,67.2,116.5,67.2,232.9,134.5c3,1.7,3,1.7,5.9,3.4c1,0.7,1,0.7,2,1.5
			c1.1,1.1,1.1,1.1,2.1,2.3"/>
		<path id="XMLID_894_" class="st1" d="M212.3,236.9c110.2,63.6,110.2,63.6,220.3,127.1c9.3,5.4,9.3,5.4,18.6,10.7
			c0.8,0.3,0.8,0.3,1.6,0.7"/>
		<path id="XMLID_893_" class="st1" d="M211.7,189.9c119.5,68.9,119.5,68.9,238.8,137.9c1.3,0.9,1.3,0.9,2.5,1.9c1,1.1,1,1.1,2,2.3
			c2,3,2,3,4,6c2.3,4.7,2.3,4.7,4.4,9.4c1.3,4.6,1.3,4.6,2.4,9.3c0.2,4.2,0.2,4.3,0.2,8.5c-0.5,2-0.6,2-1.2,4.1
			c-0.4,1.4-0.4,1.4-0.8,2.7"/>
		<path id="XMLID_892_" class="st1" d="M244.3,163.2l-40.8,27.3l-4,4.5l-1.9,6.8l0.3,8.5"/>
		<path id="XMLID_891_" class="st1" d="M197.8,210.3l0,0.8"/>
		<path id="XMLID_890_" class="st1" d="M199,207.7l0.1-0.1"/>
		<path id="XMLID_889_" class="st1" d="M203.5,190.4l3.7-1.6l2.1,0.1l36.3-24.2"/>
		<path id="XMLID_888_" class="st1" d="M208.3,234.9l2.1,2.3l2,1.5L452,377l2.2,0.9l2.2,0.1l3.7-1.6l50.8-28.8"/>
		<path id="XMLID_887_" class="st1" d="M207.8,192.4h1.5l1.6,0.7l0.7,0.4"/>
		<path id="XMLID_886_" class="st1" d="M207,190.4h1.7l2.2,0.9"/>
		<path id="XMLID_885_" class="st1" d="M209.3,234.1l1.4,1.6l1.6,1.3"/>
		<path id="XMLID_884_" class="st1" d="M452.8,375.5h1.6"/>
		<path id="XMLID_883_" class="st1" d="M209.3,233.9l1.6,1.8l1.5,1.1l238.9,137.9l1.7,0.7l1.4,0l4.9-2.7"/>
		<path id="XMLID_882_" class="st1" d="M209.4,188.9h0.1l2.2,0.9"/>
		<path id="XMLID_881_" class="st1" d="M464.2,371.9l-4,4.5"/>
		<path id="XMLID_880_" class="st1" d="M503.5,300.5l-2.1-2.3l-2.2-1.7l-71-41"/>
		<path id="XMLID_879_" class="st1" d="M451.4,376.7l2,0.8h1.7"/>
		<path id="XMLID_878_" class="st1" d="M452.9,329.5l48.6-31.2"/>
		<path id="XMLID_877_" class="st1" d="M201.3,197.4l-1.3,2.8"/>
		<path id="XMLID_876_" class="st1" d="M199.9,212.2l0.5,2.9"/>
		<path id="XMLID_875_" class="st1" d="M201.6,197.6l1.5-2.7"/>
		<path id="XMLID_874_" class="st1" d="M209.2,234c-10.4-13.9-13.3-31.2-6.5-38.6c1.4-1.5,3.1-2.5,5.1-3"/>
		<path id="XMLID_873_" class="st1" d="M209.2,234c-9.4-12.6-12.8-28.3-8-36.6"/>
		<path id="XMLID_872_" class="st1" d="M453.9,332.9c11.1,14.9,14.2,33.4,6.9,41.3c-1.5,1.6-3.4,2.7-5.6,3.2"/>
		<path id="XMLID_871_" class="st1" d="M208.3,234.9c-11.1-14.9-14.2-33.4-6.9-41.3c1.5-1.6,3.4-2.7,5.6-3.2"/>
		<path id="XMLID_870_" class="st1" d="M503.5,300.5c12.4,16.2,16.3,36.7,8.6,45.9c-0.4,0.4-0.8,0.8-1.2,1.2"/>
		<path id="XMLID_869_" class="st1" d="M453.1,333.7c10.4,13.9,13.3,31.3,6.5,38.7c-1.4,1.5-3.2,2.6-5.3,3"/>
	</g>
	<g id="XMLID_843_">
		<path id="XMLID_867_" class="st1" d="M385.7,348.5c1-0.6,1-0.6,2-1.2c0.2-0.1,0.2-0.1,0.3-0.2c0.2-0.1,0.2-0.1,0.4-0.1
			c0.2-0.1,0.2-0.1,0.4-0.1c0.2,0,0.2,0,0.5-0.1c0.2,0,0.2,0,0.4,0c0.3,0,0.3,0,0.6,0"/>
		<path id="XMLID_866_" class="st1" d="M389.2,351.1c0.3,0,0.3,0,0.6,0c0.7,0.1,0.7,0.1,1.4,0.3c0.4,0.1,0.4,0.1,0.8,0.3"/>
		<path id="XMLID_865_" class="st1" d="M406,359.8c-0.2,0.2-0.2,0.2-0.3,0.4c-0.1,0.2-0.1,0.2-0.2,0.4c-0.1,0.3-0.1,0.3-0.1,0.7
			c0,0.3,0,0.3,0,0.5"/>
		<path id="XMLID_864_" class="st1" d="M437.1,433.3c0,0.4,0,0.4,0,0.8c0.2,1.3,0.2,1.3,0.4,2.5c0.1,0.2,0.1,0.2,0.2,0.4
			c0.6,0.9,0.6,0.9,1.1,1.8"/>
		<path id="XMLID_863_" class="st1" d="M437.1,415.9c0-8.9,0-8.9,0-17.9c0.2-1.4,0.2-1.4,0.4-2.8c0.3-0.9,0.3-0.9,0.7-1.8
			c0.2-0.6,0.2-0.6,0.4-1.1c0.2-0.4,0.2-0.4,0.5-0.8"/>
		<path id="XMLID_862_" class="st1" d="M437.1,397.8c0.2-1.4,0.2-1.4,0.4-2.7c0.5-1.5,0.5-1.5,1-2.9c0.2-0.4,0.2-0.4,0.5-0.9"/>
		<path id="XMLID_861_" class="st1" d="M388.7,350.9l0.5,0.2"/>
		<path id="XMLID_860_" class="st1" d="M389.8,348.5v1.8"/>
		<path id="XMLID_859_" class="st1" d="M391.5,351.4l47.4,27.4"/>
		<path id="XMLID_858_" class="st1" d="M394.5,353.2v25.6"/>
		<path id="XMLID_857_" class="st1" d="M439,374.5l-46.6-26.9"/>
		<path id="XMLID_856_" class="st1" d="M405.4,361.8V385"/>
		<path id="XMLID_855_" class="st1" d="M409.1,375.2v-2.9v14.9"/>
		<path id="XMLID_854_" class="st1" d="M409.1,372.2v-10.6"/>
		<path id="XMLID_853_" class="st1" d="M430.8,422.6l6.3,3.6"/>
		<path id="XMLID_852_" class="st1" d="M437.1,421.9l-5.9-3.5"/>
		<path id="XMLID_851_" class="st1" d="M437.1,416.5l-6.5-3.7"/>
		<path id="XMLID_850_" class="st1" d="M430.6,409.2l6.5,3.7"/>
		<path id="XMLID_849_" class="st1" d="M430.4,404.8l6.7,3.9"/>
		<path id="XMLID_848_" class="st1" d="M437.1,433.9v-0.6"/>
		<path id="XMLID_847_" class="st1" d="M438.8,438.9l0.2,0.2"/>
		<path id="XMLID_846_" class="st1" d="M437.1,418.8v-2.9v17.4"/>
		<path id="XMLID_845_" class="st1" d="M437.1,398.5v-0.6"/>
		<path id="XMLID_844_" class="st1" d="M386.5,352.3c2.2,0.5,2.8,3.6,1.4,7.1"/>
	</g>
	<g id="XMLID_824_">
		<path id="XMLID_842_" class="st1" d="M279.8,198.4v-1.5v3.1"/>
		<path id="XMLID_841_" class="st1" d="M387.3,264.8l-102.6-59.2"/>
		<path id="XMLID_840_" class="st1" d="M387.3,254.9l-93.1-53.8"/>
		<path id="XMLID_839_" class="st1" d="M399.8,267.8v-9.9"/>
		<path id="XMLID_838_" class="st1" d="M412.2,264.8l35.7-20.6"/>
		<path id="XMLID_837_" class="st1" d="M412.2,254.9l49.8-28.7v26.9"/>
		<path id="XMLID_836_" class="st1" d="M431.9,208.9l30,17.3"/>
		<path id="XMLID_835_" class="st1" d="M447.7,265.6l12.5-7.2l0,0"/>
		<path id="XMLID_834_" class="st1" d="M449.5,260.3V245"/>
		<path id="XMLID_833_" class="st1" d="M449,244.1l-0.2-0.1l0.3,0.2"/>
		<path id="XMLID_832_" class="st1" d="M449.5,245l-0.1-0.5l-0.2-0.4l-0.3-0.2h-0.4l-0.5,0.2"/>
		<path id="XMLID_831_" class="st1" d="M412.2,254.9c-6.9,4-18,4-24.9,0c0,0,0,0,0,0"/>
		<path id="XMLID_830_" class="st1" d="M348.6,242.5c-3.6-0.9-6.5-2.6-8.1-4.7"/>
		<path id="XMLID_829_" class="st1" d="M284.7,205.6c-2.6-1.5-4.4-3.5-4.9-5.6"/>
		<path id="XMLID_828_" class="st1" d="M445,245.9c2.2,4.3,1.9,8.6-0.8,9.7c-2.3,0.9-5.7-1-8-4.6"/>
		<path id="XMLID_827_" class="st1" d="M449.5,260.3c0,2.8-1,5-2.7,6"/>
		<path id="XMLID_826_" class="st1" d="M462,253.1c0,2.3-0.6,4.1-1.8,5.3"/>
		<path id="XMLID_825_" class="st1" d="M412.2,264.8c-6.9,4-18,4-24.9,0c0,0,0,0,0,0"/>
	</g>
	<g id="XMLID_817_">
		<path id="XMLID_823_" class="st1" d="M279.8,279.2v-1.5v3.2"/>
		<path id="XMLID_822_" class="st1" d="M284.7,286.4l102.6,59.2"/>
		<path id="XMLID_821_" class="st1" d="M399.8,348.6v-1.7"/>
		<path id="XMLID_820_" class="st1" d="M284.7,286.4c-2.6-1.5-4.4-3.5-4.9-5.6"/>
		<path id="XMLID_819_" class="st1" d="M402.5,348.5c-5.6,0.5-11.2-0.6-15.2-2.9"/>
		<path id="XMLID_818_" class="st1" d="M348.6,323.3c-3.6-0.9-6.5-2.6-8.1-4.7"/>
	</g>
	<g id="XMLID_800_">
		<path id="XMLID_816_" class="st1" d="M360.2,197.5c35.4-13.3,35.4-13.3,70.8-26.8c6.2-2.7,6.1-2.8,12.2-5.6
			c0.9-0.4,0.9-0.4,1.8-0.7c0.1,0,0.1,0,0.2,0"/>
		<path id="XMLID_815_" class="st1" d="M379.4,177.7c25.8-9.7,25.8-9.7,51.6-19.5c7.1-3.2,7.1-3.2,14-6.6c8.5-4.8,8.5-4.8,16.9-9.8"
			/>
		<path id="XMLID_814_" class="st1" d="M272.4,193.8v0.8l0.3,1.6l0.8,1.2l-2.6-1.4l-3.4-2l-0.9-1.1l-0.4-1.5v-1.1"/>
		<path id="XMLID_813_" class="st1" d="M273.4,197.4l1.2,0.5l1.5-0.2l2.7-1.1"/>
		<path id="XMLID_812_" class="st1" d="M462,141.8l-49.7-28.7"/>
		<path id="XMLID_811_" class="st1" d="M425.5,172.8l14.7,8.5"/>
		<path id="XMLID_810_" class="st1" d="M446.2,165.8l-0.5-1.1l-0.3-0.3"/>
		<path id="XMLID_809_" class="st1" d="M447.7,181.3l12.5-7.2h0"/>
		<path id="XMLID_808_" class="st1" d="M449.5,175.9v-7.2"/>
		<path id="XMLID_807_" class="st1" d="M462,141.8v26.9"/>
		<path id="XMLID_806_" class="st1" d="M445.1,164.4c2.6-0.6,4.4,1.2,4.4,4.3"/>
		<path id="XMLID_805_" class="st1" d="M462,168.8c0,2.3-0.6,4.1-1.8,5.3"/>
		<path id="XMLID_804_" class="st1" d="M449.5,175.9c0,5.9-4.2,8.4-9.3,5.4c0,0,0,0,0,0"/>
		<path id="XMLID_803_" class="st1" d="M266.2,190.2c-9.7-6.3-15.8-14.2-17.7-22.5"/>
		<path id="XMLID_802_" class="st1" d="M360.2,197.5c-27.4,10.4-63.4,8.8-87.9-3.7"/>
		<path id="XMLID_801_" class="st1" d="M446.4,166.1c0.4,4.2-2,6.3-5.4,4.8c-1.3-0.6-2.6-1.6-3.7-3"/>
	</g>
	<g id="XMLID_797_">
		<path id="XMLID_799_" class="st1" d="M414,189.3l-12.7-7.3"/>
		<path id="XMLID_798_" class="st1" d="M414,189.3c1.8,1.1,3.6,2.8,5,5"/>
	</g>
	<g id="XMLID_782_">
		<path id="XMLID_796_" class="st1" d="M345.1,57c-1.6,0-1.6,0-3.1,0c-0.1,0-0.1,0-0.3,0c-0.1,0-0.1,0-0.3,0.1
			c-0.1,0.1-0.1,0.1-0.2,0.1c-1,0.6-1,0.6-2,1.2"/>
		<path id="XMLID_795_" class="st1" d="M339.9,63.3c-0.1,0.1-0.1,0.1-0.3,0.1c-0.2,0-0.2,0-0.3,0.1c-0.2,0-0.2,0-0.3,0
			c-0.2,0-0.2,0-0.3-0.1c-0.1-0.1-0.1-0.1-0.3-0.1"/>
		<path id="XMLID_794_" class="st1" d="M330.1,57.8v10.4"/>
		<path id="XMLID_793_" class="st1" d="M338.4,63.3l-7-4"/>
		<path id="XMLID_792_" class="st1" d="M331.4,55.7l12.4-7.2"/>
		<path id="XMLID_791_" class="st1" d="M339.1,63.5v1.3"/>
		<path id="XMLID_790_" class="st1" d="M338.8,58.8L338.8,58.8L338.8,58.8"/>
		<path id="XMLID_789_" class="st1" d="M339.1,59.3l3.1,1.8"/>
		<path id="XMLID_788_" class="st1" d="M339.9,63.3l1.9-1.1"/>
		<path id="XMLID_787_" class="st1" d="M341.5,57.1v3.6"/>
		<path id="XMLID_786_" class="st1" d="M339.1,58.4l-0.2,0.1l-0.1,0.2v0.2l0.1,0.2l0.2,0.2"/>
		<path id="XMLID_785_" class="st1" d="M342.3,61l0.2,0.2v0"/>
		<path id="XMLID_784_" class="st1" d="M331.4,59.3c-1.7-1-1.7-2.6,0-3.6c0,0,0,0,0,0"/>
		<path id="XMLID_783_" class="st1" d="M343.8,48.5c3-1.8,6.9-3,11.1-3.5"/>
	</g>
	<g id="XMLID_770_">
		<path id="XMLID_781_" class="st1" d="M437.1,197.5c-14.1-8.1-14.1-8.1-28.1-16.3c-0.3-0.2-0.3-0.2-0.5-0.3
			c-0.3-0.3-0.3-0.3-0.6-0.6c-0.2-0.2-0.2-0.2-0.4-0.4c-0.1-0.1-0.1-0.1-0.2-0.2"/>
		<path id="XMLID_780_" class="st1" d="M429.7,188.9c-8.5-4.9-8.5-4.9-17-9.8c-0.6-0.4-0.6-0.4-1.1-0.9c0,0,0-0.1-0.1-0.1"/>
		<path id="XMLID_779_" class="st1" d="M437.1,197.7c0-7.6,0-7.6,0-15.1c0.1-0.9,0.1-0.9,0.2-1.7c0.1-0.5,0.1-0.6,0.1-1.1
			c0,0,0,0,0,0"/>
		<path id="XMLID_778_" class="st1" d="M402.9,181.4l34.2,19.7"/>
		<path id="XMLID_777_" class="st1" d="M426.8,187.2l2.9,1.7"/>
		<path id="XMLID_776_" class="st1" d="M411.5,178.1l0.2,0.2l1.2,0.9l1.8,1.1"/>
		<path id="XMLID_775_" class="st1" d="M437.1,206.5l-10.9-6.3"/>
		<path id="XMLID_774_" class="st1" d="M429.7,188.9l7.4,4.3"/>
		<path id="XMLID_773_" class="st1" d="M431.2,207.4l5.8,3.4"/>
		<path id="XMLID_772_" class="st1" d="M437.1,201.1v-3.4v14.1"/>
		<path id="XMLID_771_" class="st1" d="M437.1,183.2v-0.8l0.4-2.7"/>
	</g>
	<g id="XMLID_691_">
		<path id="XMLID_769_" class="st1" d="M465.1,132c0.3,0.1,0.3,0.1,0.6,0.2c0.2,0,0.2,0,0.4,0c0.3-0.1,0.3-0.1,0.6-0.2"/>
		<path id="XMLID_768_" class="st1" d="M460.4,130.1c0.3-0.1,0.3-0.1,0.6-0.2c0.2,0,0.2,0,0.3,0c0.3,0.1,0.3,0.1,0.6,0.2"/>
		<path id="XMLID_767_" class="st1" d="M448.7,126.1c-0.3,0.1-0.3,0.1-0.6,0.2c-0.2,0-0.2,0-0.3,0c-0.3-0.1-0.3-0.1-0.6-0.2"/>
		<path id="XMLID_766_" class="st1" d="M440.2,553l7,4"/>
		<path id="XMLID_765_" class="st1" d="M439,551.2v-1.5v1.8"/>
		<path id="XMLID_764_" class="st1" d="M439,549.7v-28"/>
		<path id="XMLID_763_" class="st1" d="M439,468.3v1.4V369.5"/>
		<path id="XMLID_762_" class="st1" d="M439,180.6v32.3"/>
		<path id="XMLID_761_" class="st1" d="M439,120.7v7.9"/>
		<path id="XMLID_760_" class="st1" d="M440.2,122.1l7,4.1"/>
		<path id="XMLID_759_" class="st1" d="M439,122.1v-1.4"/>
		<path id="XMLID_758_" class="st1" d="M440.2,118.5l12.5-7.2"/>
		<path id="XMLID_757_" class="st1" d="M448,557.2v-34.9"/>
		<path id="XMLID_756_" class="st1" d="M448.6,557.1l2.5-1.5"/>
		<path id="XMLID_755_" class="st1" d="M448,374.7v100.2"/>
		<path id="XMLID_754_" class="st1" d="M448,267v-1.5"/>
		<path id="XMLID_753_" class="st1" d="M448,181.1v37"/>
		<path id="XMLID_752_" class="st1" d="M448,133.7v-7.5"/>
		<path id="XMLID_751_" class="st1" d="M451.1,124.8l-2.3,1.4"/>
		<path id="XMLID_750_" class="st1" d="M451.1,123.9l-3.1-1.8"/>
		<path id="XMLID_749_" class="st1" d="M447.7,121.6L447.7,121.6"/>
		<path id="XMLID_748_" class="st1" d="M450,120l-2,1.2"/>
		<path id="XMLID_747_" class="st1" d="M451.4,555.3v-2.7V555.3"/>
		<path id="XMLID_746_" class="st1" d="M451.4,555.1v-34.9"/>
		<path id="XMLID_745_" class="st1" d="M451.4,550.7h4.7"/>
		<path id="XMLID_744_" class="st1" d="M451.4,376.7v100.2"/>
		<path id="XMLID_743_" class="st1" d="M451.4,269v-5.4"/>
		<path id="XMLID_742_" class="st1" d="M451.4,220.1v-41"/>
		<path id="XMLID_741_" class="st1" d="M451.4,135.7v-11.3"/>
		<path id="XMLID_740_" class="st1" d="M450.3,119.9v3.5"/>
		<path id="XMLID_739_" class="st1" d="M451.4,124.4v0.6v-0.8"/>
		<path id="XMLID_738_" class="st1" d="M450.8,119.8h5.3"/>
		<path id="XMLID_737_" class="st1" d="M457.7,516.6v46.4"/>
		<path id="XMLID_736_" class="st1" d="M458.1,563.3l7,4"/>
		<path id="XMLID_735_" class="st1" d="M456.5,517.3v33.5"/>
		<path id="XMLID_734_" class="st1" d="M456.8,550.9l0.9,0.5"/>
		<path id="XMLID_733_" class="st1" d="M457.7,480.3v0.3v-0.6V480.3"/>
		<path id="XMLID_732_" class="st1" d="M457.7,480.5V377.5"/>
		<path id="XMLID_731_" class="st1" d="M456.5,378v101.8"/>
		<path id="XMLID_730_" class="st1" d="M456.5,271.9v-11.3"/>
		<path id="XMLID_729_" class="st1" d="M457.7,272.6v-12.8"/>
		<path id="XMLID_728_" class="st1" d="M457.7,223.5v0.3V221V223.5"/>
		<path id="XMLID_727_" class="st1" d="M456.5,223.1v-46.9"/>
		<path id="XMLID_726_" class="st1" d="M457.7,175.4v48.3"/>
		<path id="XMLID_725_" class="st1" d="M457.7,139.1v0.3v-2.8V139.1"/>
		<path id="XMLID_724_" class="st1" d="M456.5,119.9v18.7"/>
		<path id="XMLID_723_" class="st1" d="M457.7,132.1v7.4"/>
		<path id="XMLID_722_" class="st1" d="M465.1,136.4l-7-4.1"/>
		<path id="XMLID_721_" class="st1" d="M458.1,131.5l2.3-1.4"/>
		<path id="XMLID_720_" class="st1" d="M457.7,133.7v-1.8"/>
		<path id="XMLID_719_" class="st1" d="M456.8,120l11.8,6.8"/>
		<path id="XMLID_718_" class="st1" d="M465.1,132l-3.1-1.8"/>
		<path id="XMLID_717_" class="st1" d="M469,129.3v1.1l-0.2,0.3l-2.2,1.3"/>
		<path id="XMLID_716_" class="st1" d="M468.2,568.1V371.9"/>
		<path id="XMLID_715_" class="st1" d="M468.2,278.6V137.2"/>
		<path id="XMLID_714_" class="st1" d="M468.9,127v3.5"/>
		<path id="XMLID_713_" class="st1" d="M469,130.3v-3.1"/>
		<path id="XMLID_712_" class="st1" d="M483.7,560.1l-12.4,7.2"/>
		<path id="XMLID_711_" class="st1" d="M483.7,129.3l-12.4,7.2"/>
		<path id="XMLID_710_" class="st1" d="M489.9,553.2l0.2-193.7"/>
		<path id="XMLID_709_" class="st1" d="M489.9,118.3l0.2,173"/>
		<path id="XMLID_708_" class="st1" d="M456.8,550.9l-0.8-0.2"/>
		<path id="XMLID_707_" class="st1" d="M448,121.2l-0.3,0.4v0.2l0.3,0.3"/>
		<path id="XMLID_706_" class="st1" d="M450.8,119.8L450,120"/>
		<path id="XMLID_705_" class="st1" d="M469,127.3l0-0.2l-0.3-0.3"/>
		<path id="XMLID_704_" class="st1" d="M458.1,563.3l-0.3-0.4"/>
		<path id="XMLID_703_" class="st1" d="M451.1,123.9l0.3,0.3v0.2l-0.3,0.4"/>
		<path id="XMLID_702_" class="st1" d="M456.8,120l-0.8-0.2"/>
		<path id="XMLID_701_" class="st1" d="M448.7,557l-0.3,0.1l-0.7,0l-0.6-0.2"/>
		<path id="XMLID_700_" class="st1" d="M439,551.6l0.4,0.8l0.8,0.7"/>
		<path id="XMLID_699_" class="st1" d="M451.1,555.7l0.2-0.2l0.1-0.2v-0.2"/>
		<path id="XMLID_698_" class="st1" d="M458.1,132.4l-0.3-0.3v-0.2l0.1-0.2l0.2-0.2"/>
		<path id="XMLID_697_" class="st1" d="M440.2,122.1c-1.7-1-1.7-2.6,0-3.6c0,0,0,0,0,0"/>
		<path id="XMLID_696_" class="st1" d="M489.9,553.2c-0.7,2.6-2.9,5.1-6.2,7"/>
		<path id="XMLID_695_" class="st1" d="M471.3,567.3c-1.7,1-4.5,1-6.2,0"/>
		<path id="XMLID_694_" class="st1" d="M452.6,111.3c8.6-5,22.5-5,31.1,0c8.6,5,8.6,13,0,18"/>
		<path id="XMLID_693_" class="st1" d="M471.3,136.4c-1.7,1-4.5,1-6.2,0"/>
		<ellipse id="XMLID_692_" class="st1" cx="468.2" cy="120.3" rx="5.5" ry="3.2"/>
	</g>
	<g id="XMLID_665_">
		<path id="XMLID_690_" class="st1" d="M462,483c-5.9,3.4-5.9,3.4-11.8,6.8c-0.7,0.4-0.7,0.4-1.4,0.8
			c-38.8,18.8-38.8,18.8-77.7,37.6"/>
		<path id="XMLID_689_" class="st1" d="M400.1,526.6c-0.1,0.4-0.1,0.4-0.3,0.8c-0.6,0.9-0.6,0.9-1.2,1.7c-0.6,0.6-0.6,0.6-1.2,1.1
			c-0.7,0.5-0.7,0.5-1.5,0.9c-0.6,0.3-0.6,0.3-1.2,0.6c-0.8,0.2-0.8,0.2-1.5,0.4c-0.8,0.1-0.8,0.1-1.6,0.1c-0.8-0.1-0.8-0.1-1.6-0.2
			c-0.3-0.1-0.3-0.1-0.6-0.2"/>
		<path id="XMLID_688_" class="st1" d="M434.9,519.4c-0.3-0.1-0.3-0.1-0.6-0.2c-0.4-0.1-0.4-0.1-0.7-0.1c-0.4,0-0.4,0-0.7,0
			c-0.3,0.1-0.3,0.1-0.7,0.2c-0.3,0.1-0.3,0.1-0.5,0.3"/>
		<path id="XMLID_687_" class="st1" d="M251.4,471.4v12.6l1.4,3.3"/>
		<path id="XMLID_686_" class="st1" d="M256.4,461.8l2.7-1.8"/>
		<path id="XMLID_685_" class="st1" d="M291.3,520.9v-12.6"/>
		<path id="XMLID_684_" class="st1" d="M360.5,543.4v-12.6"/>
		<path id="XMLID_683_" class="st1" d="M371.1,540.6l78.4-37.9v15"/>
		<path id="XMLID_682_" class="st1" d="M462,509.9V483"/>
		<path id="XMLID_681_" class="st1" d="M390.5,532l-4,1.2"/>
		<path id="XMLID_680_" class="st1" d="M397.9,529.7l33.2-9.9l0.6-0.4"/>
		<path id="XMLID_679_" class="st1" d="M425.5,461.9l36.4,21"/>
		<path id="XMLID_678_" class="st1" d="M433.3,510.6v8.5"/>
		<path id="XMLID_677_" class="st1" d="M434.9,519.4l5.3,3.1"/>
		<path id="XMLID_676_" class="st1" d="M445.7,523.5L445.7,523.5"/>
		<path id="XMLID_675_" class="st1" d="M446.7,523l0.2-0.1"/>
		<path id="XMLID_674_" class="st1" d="M447.7,522.4l12.5-7.2l0,0"/>
		<path id="XMLID_673_" class="st1" d="M348.8,542.6c-43.8-10.1-78.6-30.1-96-55.4"/>
		<path id="XMLID_672_" class="st1" d="M371.1,540.6c-6.2,3-14.7,3.8-22.2,2.1"/>
		<path id="XMLID_671_" class="st1" d="M449.5,517.6c-0.3,5.6-4.4,7.7-9.3,4.8"/>
		<path id="XMLID_670_" class="st1" d="M252.8,474.7c-3-4.3-1.6-9.3,3.6-12.8"/>
		<path id="XMLID_669_" class="st1" d="M371.1,528c-6.2,3-14.7,3.8-22.2,2.1"/>
		<path id="XMLID_668_" class="st1" d="M445.8,504.5c1.5,4.4,0.3,8-2.8,8c-1.9,0-4.2-1.4-6-3.8"/>
		<path id="XMLID_667_" class="st1" d="M348.8,530.1c-43.8-10.1-78.6-30.1-96-55.4"/>
		<path id="XMLID_666_" class="st1" d="M462,509.9c0,2.3-0.6,4.1-1.8,5.3"/>
	</g>
	<g id="XMLID_470_">
		<path id="XMLID_664_" class="st1" d="M219.6,109.8c-3.1-9.1-3.1-9.1-6.2-18.2c-0.4-1.1-0.4-1.1-0.7-2.2c-0.4-1.5-0.4-1.5-0.9-2.9
			c-0.2-1.2-0.2-1.2-0.3-2.3c-0.1-1.1-0.1-1.1-0.2-2.2c0.1-1.5,0.2-1.5,0.3-2.9c0.1-0.2,0.1-0.2,0.1-0.4"/>
		<path id="XMLID_663_" class="st1" d="M219.3,61.7c-0.2,0.5-0.2,0.5-0.5,1c-0.4,0.7-0.4,0.7-0.8,1.5c-1.1,1.8-1.1,1.8-2.1,3.6
			c-1.1,1.9-1.1,1.9-2.1,3.8c-0.5,1.1-0.5,1.1-1,2.3c-0.5,1.6-0.5,1.6-1,3.3c-0.1,0.7-0.1,0.7-0.3,1.4"/>
		<path id="XMLID_662_" class="st1" d="M254.8,173.2c-1.4-1.2-1.4-1.2-2.8-2.4c-0.9-1-0.9-1-1.8-2.1c-0.6-1-0.6-1-1.2-2
			c-0.4-1.3-0.4-1.3-0.8-2.6c-0.1-0.3-0.1-0.4-0.1-0.7"/>
		<path id="XMLID_661_" class="st1" d="M249.9,161.4c0.7,0.1,0.7,0.1,1.4,0.3c1.6,0.7,1.6,0.7,3.2,1.5c1.7,1.1,1.7,1.1,3.3,2.3
			c1.5,1.3,1.5,1.3,3,2.5c1.5,1.5,1.5,1.5,3,3c1.3,1.5,1.3,1.5,2.5,3c1.1,1.9,1.1,1.9,2.1,3.9c0.3,0.8,0.3,0.8,0.5,1.6"/>
		<path id="XMLID_660_" class="st1" d="M267.8,180.6c-1-0.3-1-0.3-2-0.7c-1.6-0.8-1.6-0.8-3.1-1.7c-2.1-1.3-2.1-1.3-4.3-2.5
			c-1.8-1.2-1.8-1.2-3.6-2.5c-1.9-1.5-1.9-1.5-3.8-3c-1.2-1.2-1.2-1.2-2.4-2.4c-4-4.3-4.1-4.3-8-8.7c-1.2-1.8-1.2-1.9-2.2-3.8
			c-3-5.9-2.9-5.9-5.8-11.8c-1.5-2.9-1.5-2.9-2.9-5.7c-1.4-3.3-1.4-3.3-2.7-6.6c-1.8-5.2-1.8-5.2-3.7-10.5c-0.9-2.8-0.9-2.8-1.7-5.5
			c-0.9-2.8-0.9-2.8-1.9-5.5"/>
		<path id="XMLID_659_" class="st1" d="M220.4,58c0.8-1.4,0.8-1.4,1.7-2.8c1.6-1.6,1.6-1.6,3.3-3.3c0.4-0.3,0.4-0.3,0.8-0.6
			c1.6-0.8,1.6-0.8,3.3-1.5c0.6-0.2,0.6-0.3,1.1-0.4c2.4-0.3,2.4-0.3,4.9-0.6c1.3,0.1,1.3,0.1,2.6,0.2c1.6,0.3,1.6,0.3,3.2,0.7
			c1.6,0.6,1.6,0.6,3.2,1.2c1,0.5,1,0.6,2,1.1c0.4,0.3,0.4,0.3,0.9,0.5"/>
		<path id="XMLID_658_" class="st1" d="M228.8,100.8c-0.8-0.7-0.8-0.7-1.6-1.4c-1.5-2-1.5-2-2.9-4.1c-0.5-1-0.5-1-0.9-2
			c0-0.1,0-0.1-0.1-0.2c-0.3-1.4-0.3-1.4-0.5-2.8"/>
		<path id="XMLID_657_" class="st1" d="M223.2,87.9c0.6-1.1,0.6-1.2,1.2-2.2c0.9-0.9,0.9-0.9,1.8-1.8c0.7-0.4,0.7-0.4,1.3-0.8
			c1.4-0.5,1.4-0.5,2.8-0.9c1.5-0.1,1.5-0.1,3.1,0"/>
		<path id="XMLID_656_" class="st1" d="M247.4,52.6c1.5,1.2,1.5,1.2,2.9,2.4c1.5,1.5,1.5,1.5,2.9,3.1c8,9.5,8,9.6,16,19.1
			c1.1,0.9,1.2,0.9,2.3,1.7"/>
		<path id="XMLID_655_" class="st1" d="M271.9,80.8c-1.2-0.9-1.2-0.9-2.2-1.9c-3.7-4.4-3.7-4.4-7.3-8.8c-4.8-5.7-4.8-5.7-9.7-11.5"
			/>
		<path id="XMLID_654_" class="st1" d="M266.7,180.3c3.7,1.7,3.8,1.7,7.6,3.3c7.2,2.3,7.3,2.2,14.5,4.5c0.8,0.2,0.8,0.2,1.5,0.4
			c7.5,1.3,7.5,1.4,15,2.6c4.5,0.4,4.5,0.4,9,0.6"/>
		<path id="XMLID_653_" class="st1" d="M314.2,191.6c-2.1-0.2-2.1-0.2-4.2-0.5c-1.4-0.4-1.4-0.4-2.8-0.8c-0.8-0.4-0.8-0.4-1.6-1"/>
		<path id="XMLID_652_" class="st1" d="M326.3,68.7c-7.7,0.1-7.7,0.1-15.4,0.4c-6.5,0.7-6.5,0.7-13,1.5c-6.3,1.2-6.3,1.2-12.6,2.5
			c-1,0.3-1,0.3-2,0.5c-6.9,2-6.9,2-13.7,4"/>
		<path id="XMLID_651_" class="st1" d="M324.4,77.9c-1.9-0.9-1.9-0.9-3.9-1.7c-2.2-0.7-2.2-0.7-4.5-1.3c-2.3-0.4-2.3-0.4-4.6-0.7
			c-2.5-0.1-2.5-0.1-5.1-0.1c-2.3,0.2-2.3,0.2-4.6,0.4c-2.3,0.5-2.3,0.5-4.5,1c-1.9,0.7-1.9,0.7-3.8,1.4c-1.5,0.9-1.5,0.9-3,1.8
			c-1.3,1.2-1.3,1.2-2.5,2.5"/>
		<path id="XMLID_650_" class="st1" d="M340.3,103.6c-2.2-1.3-2.2-1.3-4.4-2.5c-0.4-0.2-0.4-0.2-0.8-0.3c-0.3-0.1-0.3-0.1-0.6-0.1
			c-0.2,0-0.2,0-0.4-0.1c-0.5,0-0.5,0-1.1,0"/>
		<path id="XMLID_649_" class="st1" d="M333,100.6c-16.7,2.6-16.7,2.6-33.3,5.1c-0.4,0.1-0.4,0.1-0.8,0.2c-0.2,0-0.2,0-0.4,0.1
			c-0.3,0.1-0.3,0.1-0.5,0.3c-0.3,0.3-0.3,0.3-0.7,0.5c-0.1,0.1-0.1,0.1-0.2,0.2c-0.1,0.3-0.1,0.3-0.3,0.6c-0.7,1.5-0.7,1.5-1.4,3
			c0,0.1,0,0.1-0.1,0.3c0,0.1,0,0.1,0,0.2"/>
		<path id="XMLID_648_" class="st1" d="M296.1,111.9c0-0.5,0-0.5,0.1-1c0-0.2,0-0.2,0.1-0.4c0.7-1.5,0.7-1.5,1.4-3"/>
		<path id="XMLID_647_" class="st1" d="M300,105.9c16.4-2.5,16.4-2.5,32.8-5.1c0.3,0,0.3,0,0.6,0c0.4,0,0.4,0,0.8,0
			c0.3,0.1,0.4,0.1,0.7,0.2c0.3,0.1,0.3,0.1,0.5,0.2c2.1,1.2,2.1,1.2,4.3,2.4"/>
		<path id="XMLID_646_" class="st1" d="M303.3,85.6c0.9,0.1,0.9,0.1,1.8,0.2c0.2,0,0.2,0,0.4,0c0.9-0.2,0.9-0.2,1.8-0.4
			c0.8-0.4,0.8-0.4,1.5-0.8c0.3-0.3,0.3-0.3,0.5-0.5c0.2-0.3,0.2-0.3,0.4-0.6"/>
		<path id="XMLID_645_" class="st1" d="M310.1,80.7c-0.4-0.7-0.4-0.7-0.8-1.3c-0.6-0.6-0.6-0.6-1.2-1.1c-0.9-0.5-0.9-0.5-1.7-0.9"/>
		<path id="XMLID_644_" class="st1" d="M307.9,110.5c0.5-0.5,0.5-0.5,1.1-0.9c0.5-0.3,0.5-0.3,1.1-0.5c0.2-0.1,0.2-0.1,0.4-0.1"/>
		<path id="XMLID_643_" class="st1" d="M316.3,129.6c-0.6,2.1-0.6,2.1-1.1,4.2c-0.8,2.5-0.8,2.5-1.5,5.1c-0.4,1.2-0.4,1.2-0.8,2.3
			c-0.4,1-0.4,1-0.9,1.9c-0.3,0.5-0.3,0.5-0.6,0.9c-0.5,0.6-0.5,0.6-1.1,1.1c-1,0.6-1,0.6-2,1.2"/>
		<path id="XMLID_642_" class="st1" d="M318.4,127.5c-1,0.9-1,0.9-2,1.7c-0.2,0.2-0.2,0.2-0.5,0.5c-1.5,1.7-1.5,1.7-2.9,3.4
			c-1.6,2-1.6,2-3.2,4c-0.2,0.4-0.2,0.4-0.5,0.7"/>
		<path id="XMLID_641_" class="st1" d="M310.5,108.9c3.6-1,3.6-1,7.1-1.8c4.1-0.4,4.2-0.3,8.3-0.6c1,0.1,1,0.1,1.9,0.2
			c0.9,0.3,0.9,0.3,1.7,0.6c0.7,0.4,0.7,0.4,1.3,0.8"/>
		<path id="XMLID_640_" class="st1" d="M315.8,150.2c-1.4-1.4-1.4-1.4-2.7-2.8c-0.3-0.5-0.3-0.6-0.6-1.1c-0.2-0.4-0.2-0.4-0.5-0.8
			c-0.3-0.7-0.3-0.7-0.6-1.5"/>
		<path id="XMLID_639_" class="st1" d="M313.4,117c3,1.3,3,1.3,6,2.5c1.1,0.2,1.1,0.2,2.2,0.4c1.2,0,1.2,0,2.3-0.1
			c1.1-0.3,1.1-0.3,2.1-0.6c0.1-0.1,0.1-0.1,0.3-0.1"/>
		<path id="XMLID_638_" class="st1" d="M397.1,162.8c-2.1,2.3-2.1,2.3-4.3,4.6c-1.2,1.2-1.2,1.2-2.4,2.4c-5.1,3.7-5.1,3.8-10.3,7.4
			c-6.2,3.2-6.3,3.2-12.6,6.1c-7.2,2.4-7.2,2.3-14.4,4.5c-0.8,0.2-0.8,0.2-1.5,0.4c-7.5,1.4-7.5,1.5-15,2.7
			c-7.8,0.6-7.8,0.5-15.6,0.9c-3.3-0.1-3.3-0.1-6.6-0.3"/>
		<path id="XMLID_637_" class="st1" d="M314.2,191.6c2.1,0.1,2.1,0.1,4.2,0.1c2-0.1,2-0.1,4.1-0.3c1.4-0.3,1.4-0.3,2.7-0.7
			c0.8-0.4,0.8-0.4,1.5-0.9"/>
		<path id="XMLID_636_" class="st1" d="M326.5,185.4c-0.8-0.8-0.9-0.8-1.7-1.5c-1.2-0.6-1.2-0.6-2.3-1.2c-1.5-0.5-1.5-0.4-3-0.9
			c-0.8-0.1-0.8-0.1-1.6-0.2"/>
		<path id="XMLID_635_" class="st1" d="M331.6,121.7c-2.4,0.5-2.5,0.5-4.9,1c-1.5,0.6-1.5,0.6-3.1,1.2c-1.4,0.8-1.4,0.8-2.8,1.6
			c-0.8,0.6-0.9,0.6-1.6,1.2c-1.5,1.4-1.5,1.4-2.9,2.8"/>
		<path id="XMLID_634_" class="st1" d="M327.9,68.6c1.3-0.2,1.3-0.2,2.6-0.4c2.1-0.5,2.1-0.5,4.1-1.1c0.7-0.2,0.7-0.2,1.3-0.5"/>
		<path id="XMLID_633_" class="st1" d="M334.9,149.4c0.1-0.9,0.1-0.9,0.2-1.8c0.1-0.5,0.1-0.5,0.3-1c0.7-1.3,0.7-1.3,1.4-2.5
			c1.2-1.4,1.2-1.4,2.5-2.7c1.9-1.4,1.9-1.5,4-2.8c2.2-0.9,2.2-0.9,4.4-1.6c2.4-0.2,2.4-0.2,4.9-0.3c2.7,0.4,2.7,0.4,5.4,1
			c2.1,0.9,2.1,0.9,4.3,1.8c0.4,0.3,0.4,0.3,0.7,0.5c0.9,0.9,0.9,0.9,1.7,1.8c0.3,0.4,0.3,0.4,0.5,0.9c0.2,0.8,0.1,0.8,0.3,1.5
			c0,0.2,0,0.2,0,0.4c-0.2,0.6-0.1,0.6-0.3,1.2c-0.6,0.9-0.6,0.9-1.2,1.8c-1.5,1.4-1.5,1.4-3.1,2.6c-2.1,1.2-2.1,1.2-4.2,2.4
			c-0.9,0.4-0.9,0.4-1.8,0.8c-2.2,0.7-2.2,0.7-4.4,1.3c-1.1,0.2-1.1,0.2-2.2,0.3c-2.1,0.1-2.1,0-4.3,0.1c-0.6-0.1-0.6-0.1-1.3-0.2
			c-1.8-0.5-1.9-0.5-3.7-1c-1.1-0.6-1.1-0.6-2.1-1.3"/>
		<path id="XMLID_632_" class="st1" d="M336.4,116.3c2.1-4.5,2.1-4.5,4.2-9.1c0,0,0,0,0-0.1c0-0.7,0-0.7,0.1-1.3"/>
		<path id="XMLID_631_" class="st1" d="M335.5,66.9c1.5-0.9,1.5-0.9,3.1-1.7c0.8-0.6,0.8-0.6,1.5-1.1c0.8-0.8,0.8-0.8,1.5-1.6"/>
		<path id="XMLID_630_" class="st1" d="M340.8,120.4c4.6-0.8,4.6-0.8,9.2-1.5c2-0.2,2-0.2,4.1-0.4c1,0,1,0,1.9,0
			c2.2,0.3,2.2,0.3,4.5,0.7c1.4,0.5,1.4,0.5,2.8,1c1.5,0.7,1.5,0.7,3.1,1.3"/>
		<path id="XMLID_629_" class="st1" d="M366.5,121.3c0.1,0.4,0.1,0.4,0.2,0.8c0.4,0.8,0.4,0.8,0.8,1.6c0.6,1.1,0.6,1.1,1.2,2.2
			c2.1,3.7,2.1,3.7,4.2,7.3c1.5,2.6,1.5,2.6,3,5.2c0.5,0.6,0.5,0.6,1,1.2"/>
		<path id="XMLID_628_" class="st1" d="M378.3,138.7c-0.1-0.7-0.1-0.7-0.2-1.4c-0.3-0.8-0.3-0.8-0.6-1.5c-0.3-0.7-0.3-0.7-0.7-1.4
			c-0.6-0.9-0.6-0.9-1.1-1.8c-0.9-1.2-0.9-1.2-1.7-2.4c-1.3-1.5-1.3-1.5-2.5-3.1c-1-1.1-1-1.1-1.9-2.3c-1.3-1.6-1.3-1.6-2.6-3.3"/>
		<path id="XMLID_627_" class="st1" d="M341.6,62.5c0.7-1,0.7-1,1.4-2c1.6-2.6,1.5-2.6,3.1-5.3c0.5-0.6,0.5-0.6,1.1-1.2
			c2.1-2.1,2.1-2.1,4.2-4.2"/>
		<path id="XMLID_626_" class="st1" d="M391.7,34.7c-1.8-1.1-1.8-1.1-3.6-2.3c-1.5-1.1-1.5-1.2-3-2.3c-1.2-0.6-1.2-0.6-2.3-1.2
			c-2.3-0.8-2.3-0.8-4.6-1.5c-0.8-0.1-0.8-0.1-1.6-0.2c-0.9,0-0.9,0-1.8,0c-1.9,0.4-1.9,0.4-3.7,0.8c-1.2,0.3-1.2,0.3-2.4,0.6
			c-1.8,0.8-1.8,0.8-3.5,1.6c-0.7,0.4-0.7,0.4-1.5,0.9c-0.4,0.4-0.4,0.5-0.9,0.9c-0.6,0.8-0.6,0.8-1.2,1.6c-0.6,1-0.6,1-1.3,2
			c-1.8,3.3-1.8,3.3-3.6,6.5c-1.1,1.7-1.1,1.8-2.2,3.5c-1.5,2-1.5,2-3,4c-1.4,1.6-1.4,1.6-2.9,3.2c-0.9,0.9-0.9,0.9-1.8,1.8
			c-0.4,0.3-0.4,0.3-0.7,0.6"/>
		<path id="XMLID_625_" class="st1" d="M357.8,185.1c1,0,1,0,1.9,0c1.7-0.4,1.7-0.4,3.4-0.8c1.9-0.7,1.9-0.7,3.9-1.5c2-1,2-1,4-2.1
			c1.5-1.1,1.5-1.1,2.9-2.2c1.1-1.2,1.1-1.2,2.2-2.4c0.8-1.3,0.8-1.3,1.6-2.6c0.5-1.2,0.6-1.2,1-2.4c0.2-1,0.2-1,0.3-2"/>
		<path id="XMLID_624_" class="st1" d="M376.9,167.1c-1.1,0-1.1,0-2.3,0c-0.9,0.2-0.9,0.2-1.8,0.4c-1.4,0.5-1.4,0.5-2.8,1
			c-1.9,0.9-1.9,0.9-3.8,1.9c-1.1,0.6-1.1,0.6-2.1,1.3c-1.1,0.8-1.1,0.8-2.2,1.6c-1.1,1-1.1,1-2.1,2"/>
		<path id="XMLID_623_" class="st1" d="M375.5,132.3c3-0.5,3-0.5,5.9-1c1.9-0.6,2-0.6,3.9-1.4c1.6-1,1.6-1,3.1-2"/>
		<path id="XMLID_622_" class="st1" d="M390.3,120.2c-0.9-1.7-0.9-1.7-1.9-3.5c-1.6-1.7-1.6-1.7-3.3-3.4c-2.2-1.5-2.2-1.5-4.5-3"/>
		<path id="XMLID_621_" class="st1" d="M386.8,123.8c-0.7-0.3-0.7-0.3-1.4-0.5c-0.9-0.1-0.9-0.1-1.8-0.2c-0.3,0-0.3,0-0.6,0
			c-1,0.1-1,0.1-1.9,0.2c-1,0.3-1,0.3-1.9,0.6c-0.4,0.2-0.4,0.2-0.8,0.3c-0.7,0.4-0.7,0.4-1.5,0.9c-0.5,0.5-0.5,0.5-1,1
			c-0.1,0.1-0.1,0.1-0.1,0.2"/>
		<path id="XMLID_620_" class="st1" d="M379.1,39.4c0.2-0.2,0.2-0.2,0.3-0.3c0.1-0.1,0.1-0.1,0.3-0.1c0.2,0,0.2,0,0.3-0.1
			c0.1,0,0.1,0,0.3,0c0.1,0,0.1,0,0.3,0"/>
		<path id="XMLID_619_" class="st1" d="M394.4,82.4c-0.5-0.5-0.5-0.5-0.9-1.1c-0.7-1.3-0.7-1.3-1.3-2.7c-0.7-2.8-0.7-2.8-1.2-5.6
			c0-3,0-3,0.1-6c0.5-2.1,0.5-2.1,1-4.3c0.9-1.9,0.9-1.9,1.8-3.7c1.1-1.3,1.1-1.3,2.3-2.5c1.3-0.8,1.3-0.8,2.6-1.5
			c1.4-0.3,1.4-0.4,2.7-0.6"/>
		<path id="XMLID_618_" class="st1" d="M408.6,57.7c0.6,1.3,0.6,1.3,1.2,2.7c0.2,1.3,0.2,1.3,0.4,2.5c0,0.8,0,0.8,0,1.5
			c0,0.5,0,0.5,0,1.1c-0.4,2.5-0.4,2.5-0.8,5c-0.9,2.8-0.9,2.8-1.9,5.6c-1.3,2.3-1.3,2.3-2.6,4.6c-1.3,1.5-1.3,1.5-2.7,2.8"/>
		<path id="XMLID_617_" class="st1" d="M391.7,34.7c1.9,1,1.9,1,3.8,2c2.1,1,2.1,1,4.2,2c1.5,0.8,1.5,0.8,2.9,1.5
			c0.6,0.4,0.6,0.4,1.2,0.8c0.7,0.5,0.7,0.5,1.4,0.9c1.2,1,1.2,1,2.3,2.1c1,1,1,1,2,2c0.8,1.2,0.8,1.2,1.6,2.5
			c0.6,1.5,0.5,1.5,1.1,3c0.2,0.7,0.2,0.7,0.5,1.5c0.2,1.3,0.3,1.3,0.5,2.5c0.1,1.3,0.1,1.3,0.1,2.5c-0.1,1.9-0.1,1.9-0.2,3.9
			c-0.1,1.4-0.1,1.4-0.3,2.7c-1,8.9-1,8.9-2,17.9c-0.2,2.3-0.3,2.3-0.5,4.6c0,2.7,0,2.7,0,5.4c0.1,2.7,0.1,2.7,0.3,5.5
			c0.2,2.5,0.2,2.5,0.5,5.1c0.6,4.6,0.6,4.6,1.2,9.2"/>
		<path id="XMLID_616_" class="st1" d="M399.8,159.9c0.2-0.3,0.2-0.3,0.4-0.5c0.4-0.7,0.4-0.7,0.9-1.4c1.3-2.4,1.3-2.4,2.5-4.8
			c1.8-3.4,1.8-3.4,3.7-6.9c0.8-1.5,0.8-1.5,1.5-3c0.5-1.1,0.5-1.1,1-2.2"/>
		<path id="XMLID_615_" class="st1" d="M404.6,148.8c3-4.5,3-4.5,5.9-9.2c1-2.7,1-2.7,1.8-5.4c0.5-1.7,0.5-1.7,0.9-3.4"/>
		<path id="XMLID_614_" class="st1" d="M413.1,130.8c-0.3,1.5-0.3,1.5-0.6,2.9c-1.1,3.2-1.1,3.2-2.2,6.3c-0.2,0.4-0.2,0.4-0.4,0.9"
			/>
		<path id="XMLID_613_" class="st1" d="M413.1,130.8c0.1-0.4,0.1-0.4,0.2-0.9c0.2-2.7,0.2-2.7,0.3-5.3c-0.2-2.4-0.2-2.4-0.4-4.9
			c-0.5-3.7-0.5-3.7-1.1-7.3"/>
		<path id="XMLID_612_" class="st1" d="M220.2,111.4l-0.6-1.6"/>
		<path id="XMLID_611_" class="st1" d="M211.6,78.7l0.1-0.2l0,0.1"/>
		<path id="XMLID_610_" class="st1" d="M222.8,60.6l-3.4,1.1"/>
		<path id="XMLID_609_" class="st1" d="M211.7,78.4l0-0.2"/>
		<path id="XMLID_608_" class="st1" d="M212.9,73.8l-0.3,0.6l-0.6,2.4"/>
		<path id="XMLID_607_" class="st1" d="M212.1,76.6l-0.1,0.2"/>
		<path id="XMLID_606_" class="st1" d="M248.2,163.3l0.3-1.4l0.3-0.3l1.1-0.2"/>
		<path id="XMLID_605_" class="st1" d="M268.9,179.5l-0.2,0.9l-0.9,0.2"/>
		<path id="XMLID_604_" class="st1" d="M219.6,109.8l0.1,0.1"/>
		<path id="XMLID_603_" class="st1" d="M219.3,61.7l0.8-2.2l0.3-1.5"/>
		<path id="XMLID_602_" class="st1" d="M222.8,90.4l0.4-2.4"/>
		<path id="XMLID_601_" class="st1" d="M224.2,53.5l-2.2,2.5l-0.4,0.6l0,0"/>
		<path id="XMLID_600_" class="st1" d="M233.1,49.2L233.1,49.2"/>
		<path id="XMLID_599_" class="st1" d="M249,166.7l-1-0.9l-1-1"/>
		<path id="XMLID_598_" class="st1" d="M251.4,56.8l-2.4-2.5l-1.6-1.6"/>
		<path id="XMLID_597_" class="st1" d="M255.5,75.2l13.9,13.7l5.2,4.3"/>
		<path id="XMLID_596_" class="st1" d="M266.7,180.3L266.7,180.3"/>
		<path id="XMLID_595_" class="st1" d="M265.8,179.9l0.8,0.3l-0.5-0.2"/>
		<path id="XMLID_594_" class="st1" d="M266.2,180.1L266.2,180.1"/>
		<path id="XMLID_593_" class="st1" d="M269.7,77.6l3.2-0.5"/>
		<path id="XMLID_592_" class="st1" d="M272.7,78.7l-2.6-0.8"/>
		<path id="XMLID_591_" class="st1" d="M270.9,77.9l-1-0.1"/>
		<path id="XMLID_590_" class="st1" d="M295.3,111.1l0.1,0.6l0.4,0.6l0.1,0.1l-0.4-0.5l-0.1-0.5"/>
		<path id="XMLID_589_" class="st1" d="M295.7,112l0.5-1.2"/>
		<path id="XMLID_588_" class="st1" d="M295.6,111.9l-0.1-0.1"/>
		<path id="XMLID_587_" class="st1" d="M307.6,119.2l2.9,1.7l-14.1-8.1l-0.4-0.3l0.1,0l0-0.8l0.1,0.5l0.3,0.5l0.5,0.3l23,13.3"/>
		<path id="XMLID_586_" class="st1" d="M297.5,113.3l-1.1-0.6l-0.4-0.3"/>
		<path id="XMLID_585_" class="st1" d="M298.5,106.5l0.3-0.2l-0.6,0.4l-0.2,0.4l-1.5,3.3l-0.1,0.4v0.2l0.1,0.2l0.3,0.4l0.4,0.3
			l23.7,13.7"/>
		<path id="XMLID_584_" class="st1" d="M296.2,111.2l-0.1,0.5"/>
		<path id="XMLID_583_" class="st1" d="M320,126.2l-23-13.3l-0.6-0.5l-0.3-0.6"/>
		<path id="XMLID_582_" class="st1" d="M297.7,107.5l-1.4,2.9"/>
		<path id="XMLID_581_" class="st1" d="M296.3,110.6l0,0.1"/>
		<path id="XMLID_580_" class="st1" d="M296.5,110.3l1.5-3.3l0.2-0.3l-0.4,0.5l-1.5,3.3"/>
		<path id="XMLID_579_" class="st1" d="M296.4,110.3l1.4-3l0.3-0.5l-0.2,0.4"/>
		<path id="XMLID_578_" class="st1" d="M298.4,106.6l-0.3,0.2"/>
		<path id="XMLID_577_" class="st1" d="M298.8,106.3l0.6-0.3l0.6-0.1"/>
		<path id="XMLID_576_" class="st1" d="M339.6,103.7l-3.4-2"/>
		<path id="XMLID_575_" class="st1" d="M303.4,146l0.3-0.3l-0.4,0.5l1.5-2l-1.2,1.3"/>
		<path id="XMLID_574_" class="st1" d="M303.6,145.6l3.9-5"/>
		<path id="XMLID_573_" class="st1" d="M304.7,144.2l5.1-7"/>
		<path id="XMLID_572_" class="st1" d="M309.9,83.5l0.4-1.4l-0.2-1.4"/>
		<path id="XMLID_571_" class="st1" d="M307.4,110.3l-0.2,1.4l0.2,0.4l0-0.8l0.5-0.8"/>
		<path id="XMLID_570_" class="st1" d="M310.5,108.9l-0.4,0.1"/>
		<path id="XMLID_569_" class="st1" d="M307.5,111.3V111"/>
		<path id="XMLID_568_" class="st1" d="M307.4,112l0.1,0.1l-0.1-0.4L307.4,112"/>
		<path id="XMLID_567_" class="st1" d="M307.5,112.2l0.3,0.5l0.2,0.3l2.5,2l-2.6-2l-0.1-0.2"/>
		<path id="XMLID_566_" class="st1" d="M308.4,146.4l-0.6,0"/>
		<path id="XMLID_565_" class="st1" d="M330.8,108.2l0.8,1l0.1,0.6"/>
		<path id="XMLID_564_" class="st1" d="M317.6,106.7l-7.6,1.9"/>
		<path id="XMLID_563_" class="st1" d="M309,109.2l-0.5,0.4"/>
		<path id="XMLID_562_" class="st1" d="M310.5,120.8l9.4,5.4"/>
		<path id="XMLID_561_" class="st1" d="M312.8,116.8l-0.6-0.5L312.8,116.8L312.8,116.8"/>
		<path id="XMLID_560_" class="st1" d="M312.9,116.8l0.6,0.2L312.9,116.8L312.9,116.8"/>
		<path id="XMLID_559_" class="st1" d="M312.2,116.3l-1.6-1.3L312.2,116.3"/>
		<path id="XMLID_558_" class="st1" d="M312.7,116.7L312.7,116.7"/>
		<path id="XMLID_557_" class="st1" d="M396.9,163.1l0.3-0.3"/>
		<path id="XMLID_556_" class="st1" d="M326.8,190l0.8-1.1v-1.4l-0.1-0.3l-1-1.7"/>
		<path id="XMLID_555_" class="st1" d="M314.2,148.5L314.2,148.5"/>
		<path id="XMLID_554_" class="st1" d="M318.4,127.6l-2.2,1.9"/>
		<path id="XMLID_553_" class="st1" d="M316.3,129.6L316.3,129.6"/>
		<path id="XMLID_552_" class="st1" d="M318,127.9l0.4-0.4"/>
		<path id="XMLID_551_" class="st1" d="M317.6,106.6l4.2-0.4l-0.4,0"/>
		<path id="XMLID_550_" class="st1" d="M322,153.3l-2.4-0.8"/>
		<path id="XMLID_549_" class="st1" d="M319.4,119.6L319.4,119.6"/>
		<path id="XMLID_548_" class="st1" d="M319.2,119.5L319.2,119.5"/>
		<path id="XMLID_547_" class="st1" d="M321.8,106.2L321.8,106.2h0.3H321.8"/>
		<path id="XMLID_546_" class="st1" d="M322.1,106.2l2.1-0.1L322.1,106.2"/>
		<path id="XMLID_545_" class="st1" d="M326.3,68.8l1.6-0.2l-7.3,0.3"/>
		<path id="XMLID_544_" class="st1" d="M325.4,154.1l-1.5-0.1"/>
		<path id="XMLID_543_" class="st1" d="M327.6,118.4l-1.6,0.9l0.2-0.1"/>
		<path id="XMLID_542_" class="st1" d="M331.7,109.8l-0.9,4.4l0,0l-1.4,2.2l-2,2.1"/>
		<path id="XMLID_541_" class="st1" d="M327.5,118.4L327.5,118.4"/>
		<path id="XMLID_540_" class="st1" d="M327,106.3l0.9,0.1"/>
		<path id="XMLID_539_" class="st1" d="M328.1,68.5l-0.2,0"/>
		<path id="XMLID_538_" class="st1" d="M328.5,154.4h0.4"/>
		<path id="XMLID_537_" class="st1" d="M332.3,121.6l-1,0.1l-3.2,0.7"/>
		<path id="XMLID_536_" class="st1" d="M331,108.1l0.7,1"/>
		<path id="XMLID_535_" class="st1" d="M333.5,121.4l7.1-15.3v-0.9l-0.1-0.6L340,104l-0.5-0.3l0.4,0.3l0.3,0.4l0.1,0.5l-0.1,0.4
			l-7.6,16.4"/>
		<path id="XMLID_534_" class="st1" d="M340.6,105.3l0.1,0.5l-0.1,0.4l-7.1,15.2"/>
		<path id="XMLID_533_" class="st1" d="M331.9,121.7l-0.3,0l8.9-1.4l1.4-0.2"/>
		<path id="XMLID_532_" class="st1" d="M336.7,152.7l-0.2-0.1l-1.2-1.5l-0.4-1.6"/>
		<path id="XMLID_531_" class="st1" d="M341.2,105.9l-7.2,15.4"/>
		<path id="XMLID_530_" class="st1" d="M335.3,118.6l1.1-2.4l-2.4,5.1"/>
		<path id="XMLID_529_" class="st1" d="M336.4,116.3l1.3-2.8"/>
		<path id="XMLID_528_" class="st1" d="M335.3,101.3l0.8,0.5"/>
		<path id="XMLID_527_" class="st1" d="M338.4,186.5L338.4,186.5"/>
		<path id="XMLID_526_" class="st1" d="M340.8,120.4l-1.3,0.2L340.8,120.4"/>
		<path id="XMLID_525_" class="st1" d="M376.9,139.5l1,0.2l0.4-1.1"/>
		<path id="XMLID_524_" class="st1" d="M366.8,121.5l-0.4-0.2"/>
		<path id="XMLID_523_" class="st1" d="M340.6,105.5L340.6,105.5"/>
		<path id="XMLID_522_" class="st1" d="M340.7,105.6l0.3,0.3l0.1,0.2"/>
		<path id="XMLID_521_" class="st1" d="M341.2,105.6L341.2,105.6l-0.1,0.4l-0.2,0.5l0.2-0.5"/>
		<path id="XMLID_520_" class="st1" d="M340.9,106.5l-0.3,0.7"/>
		<path id="XMLID_519_" class="st1" d="M341.2,105.6L341.2,105.6L341.2,105.6"/>
		<path id="XMLID_518_" class="st1" d="M341.7,105.6v-1.2"/>
		<path id="XMLID_517_" class="st1" d="M381.6,31.1l6.4,3.7l3.7-0.1"/>
		<path id="XMLID_516_" class="st1" d="M379,169.2l-0.6-1.5l-1.5-0.7"/>
		<path id="XMLID_515_" class="st1" d="M363.4,120l2.4,0.9l1.1,0.7"/>
		<path id="XMLID_514_" class="st1" d="M374.8,167.1l-2.1,0.4"/>
		<path id="XMLID_513_" class="st1" d="M388.4,128l1.9-2.4l0.5-2.1l-0.5-3.3"/>
		<path id="XMLID_512_" class="st1" d="M387.7,124.5l-0.9-0.7"/>
		<path id="XMLID_511_" class="st1" d="M375.9,126.4l-0.2,1l0,0.1"/>
		<path id="XMLID_510_" class="st1" d="M379.7,145.3l-0.6-2.9L379.7,145.3"/>
		<path id="XMLID_509_" class="st1" d="M379.9,144.6l-0.6-1.5l-0.8-3.5l0.6,2.9l-0.6-2.9"/>
		<path id="XMLID_508_" class="st1" d="M379.3,143L379.3,143"/>
		<path id="XMLID_507_" class="st1" d="M378,137.3l0.5,2.3l-0.2-1"/>
		<path id="XMLID_506_" class="st1" d="M378.1,41.9l-0.3,0.3l1.4-1.3"/>
		<path id="XMLID_505_" class="st1" d="M379,40.8L379,40.8L379,40.8l-0.2-0.2l0,0l-0.1-0.1"/>
		<path id="XMLID_504_" class="st1" d="M378.9,40.8v-0.2"/>
		<path id="XMLID_503_" class="st1" d="M379.6,40.9h-0.2l0.5,0l0.2-0.1l-0.3,0.1"/>
		<path id="XMLID_502_" class="st1" d="M379.9,40.9l0.3-0.1L379.9,40.9l0.5-0.2l0.5-0.4l-0.8,0.4"/>
		<path id="XMLID_501_" class="st1" d="M379.1,40.9l0.3,0h0"/>
		<path id="XMLID_500_" class="st1" d="M379.1,40.9l-0.2-0.1"/>
		<path id="XMLID_499_" class="st1" d="M379.4,40.6l0.2,0"/>
		<path id="XMLID_498_" class="st1" d="M379,40.3L379,40.3"/>
		<path id="XMLID_497_" class="st1" d="M378.7,40.1v0.1"/>
		<path id="XMLID_496_" class="st1" d="M378.7,40.5l0-0.3"/>
		<path id="XMLID_495_" class="st1" d="M378.5,39.5l0.3-0.5l0.5-0.3l0.6-0.2l-1.1,0.6l-0.4,0.9L378.5,39.5"/>
		<path id="XMLID_494_" class="st1" d="M379.9,38.5l0.6,0.1L379.9,38.5"/>
		<path id="XMLID_493_" class="st1" d="M380.2,38.6h0.2l0.6,0.1l-0.6-0.1l0.5,0.2l-0.5-0.2"/>
		<path id="XMLID_492_" class="st1" d="M378.9,39.9v-0.2l0.2-0.3"/>
		<path id="XMLID_491_" class="st1" d="M380.5,38.9l0.3,0.2l-0.1-0.1"/>
		<path id="XMLID_490_" class="st1" d="M378.9,39.9V40"/>
		<path id="XMLID_489_" class="st1" d="M378.9,40.5v-0.4"/>
		<path id="XMLID_488_" class="st1" d="M378.9,39.9v0.2"/>
		<path id="XMLID_487_" class="st1" d="M378.9,40.6v-0.4"/>
		<path id="XMLID_486_" class="st1" d="M380.9,40.1L380.9,40.1"/>
		<path id="XMLID_485_" class="st1" d="M381.3,39.6L381.3,39.6L381.3,39.6v0.1v-0.3V39.6"/>
		<path id="XMLID_484_" class="st1" d="M380.6,38.6l3.4-2.1l0.4-0.2"/>
		<path id="XMLID_483_" class="st1" d="M381.3,39.7l-0.1,0.3l0.1-0.1l-0.2,0.5l0.3-0.4l0.1-0.4l-0.2,0.3L381.3,39.7"/>
		<path id="XMLID_482_" class="st1" d="M381,40.3L381,40.3"/>
		<path id="XMLID_481_" class="st1" d="M380.7,40.5l0.3-0.2"/>
		<path id="XMLID_480_" class="st1" d="M381.2,40l-0.3,0.4l-0.2,0.1"/>
		<path id="XMLID_479_" class="st1" d="M381.4,39l0.1,0.5L381.4,39"/>
		<path id="XMLID_478_" class="st1" d="M381.1,40.2v-0.5"/>
		<path id="XMLID_477_" class="st1" d="M380.9,39.1l0.1,0.2l0.1,0.2v0.2"/>
		<path id="XMLID_476_" class="st1" d="M381.1,39.7L381.1,39.7"/>
		<path id="XMLID_475_" class="st1" d="M401.6,54.4l2.9,0.3l2.2,1l1.9,1.9"/>
		<path id="XMLID_474_" class="st1" d="M402,83.6l-1.4,0.7"/>
		<path id="XMLID_473_" class="st1" d="M397.1,162.8l2.7-2.9l-0.5,0.7L397.1,162.8"/>
		<path id="XMLID_472_" class="st1" d="M413.3,129.9l-0.2,0.9"/>
		<path id="XMLID_471_" class="st1" d="M410.2,86.9l-0.1,0.9"/>
	</g>
	<g id="XMLID_463_">
		<path id="XMLID_469_" class="st1" d="M613.7,429.4v-5.4"/>
		<path id="XMLID_468_" class="st1" d="M620.2,424.5v-1.5"/>
		<path id="XMLID_467_" class="st1" d="M644.4,429.4v-5.4"/>
		<path id="XMLID_466_" class="st1" d="M637.1,426.1c-2.1,2.6-7.4,3.7-11.8,2.5c-2.8-0.8-4.7-2.3-5.1-4.1"/>
		<path id="XMLID_465_" class="st1" d="M643.1,420.3c3.5,4.5,0,9.7-7.8,11.7c-7.8,2-16.9,0-20.3-4.5c-1.8-2.4-1.8-5.1,0.2-7.4"/>
		<path id="XMLID_464_" class="st1" d="M644.4,429.3c0,4.9-6.9,8.9-15.4,8.9c-8.5,0-15.4-4-15.4-8.9l0,0"/>
	</g>
	<g id="XMLID_458_">
		<path id="XMLID_462_" class="st1" d="M446.1,505.6l0.2,1.5v0.3L446,509l-0.1,0.3l-0.7,1.1l-0.2,0.1l-1.1,0.5h-0.3l-1.4-0.1
			l-0.3-0.1l-1.5-0.7v0"/>
		<path id="XMLID_461_" class="st1" d="M438.4,508.1l0.3,0.4l1.7,1.5l0.1,0l1.7,0.9l1.6,0.1l0.1,0l0.1,0l1.3-0.7l0.8-0.4"/>
		<path id="XMLID_460_" class="st1" d="M443.2,505.7v1.4l-2.4,0.2l-0.2-0.3"/>
		<path id="XMLID_459_" class="st1" d="M440.8,507.3l2.4-1.4"/>
	</g>
	<g id="XMLID_451_">
		<path id="XMLID_457_" class="st1" d="M446.2,253.1l-0.8,0.4l-1.3,0.7l-0.1,0l-0.1,0l-1.6-0.1l-1.7-0.9l-0.1,0l-1.7-1.5l-1.2-1.5"
			/>
		<path id="XMLID_456_" class="st1" d="M446.1,248.9l0.2,1.5v0.3l-0.3,1.5l-0.1,0.3l-0.7,1.1l-0.2,0.1l-1.1,0.5h-0.3l-1.4-0.1
			l-0.3-0.1l-1.5-0.7v0"/>
		<path id="XMLID_455_" class="st1" d="M443,247l0.2,0.2v3.2l-2.4,0.2l-1.3-1.6"/>
		<path id="XMLID_454_" class="st1" d="M440.8,250.6l2.4-1.4"/>
		<path id="XMLID_453_" class="st1" d="M442.7,247.2l0.5,0.7"/>
		<path id="XMLID_452_" class="st1" d="M442.7,247.2L442.7,247.2l0.3,0.4l0.2,0.2"/>
	</g>
	<g id="XMLID_447_">
		<path id="XMLID_450_" class="st1" d="M446.2,165.8l0,0.3v0.3l-0.3,1.5l-0.1,0.2l-0.7,1.1l-0.2,0.1l-1.1,0.5h-0.3l-1.4-0.1
			l-0.3-0.1l-1.5-0.7l0,0"/>
		<path id="XMLID_449_" class="st1" d="M438.7,167.3L438.7,167.3l1.8,1.6l0.1,0l1.7,0.9l1.6,0.1h0.1l0.1,0l1.3-0.6l0.8-0.5"/>
		<path id="XMLID_448_" class="st1" d="M441,166.2l2.2-0.2v-0.8"/>
	</g>
	<g id="XMLID_433_">
		<path id="XMLID_446_" class="st1" d="M620.8,400v1.2"/>
		<path id="XMLID_445_" class="st1" d="M631.3,401.6v-2.2l0.8,1.8l-2.3,1.3l-3.1-0.5l-0.8-1.8l2.2-1.3v2.7l2.4,0.4"/>
		<path id="XMLID_444_" class="st1" d="M628.2,401.5l-0.8,0.5"/>
		<path id="XMLID_443_" class="st1" d="M628.2,398.9l3.1,0.5"/>
		<path id="XMLID_442_" class="st1" d="M630.4,402l-0.1,0.1"/>
		<path id="XMLID_441_" class="st1" d="M637.3,401.6v-1"/>
		<path id="XMLID_440_" class="st1" d="M621.3,403.4l0.5,0.7"/>
		<path id="XMLID_439_" class="st1" d="M620.9,402.7l-0.1-1.4"/>
		<path id="XMLID_438_" class="st1" d="M622.8,404.9l-0.2-0.1"/>
		<path id="XMLID_437_" class="st1" d="M637.1,402.7l0.2-0.8"/>
		<path id="XMLID_436_" class="st1" d="M636.3,404.1l0.6-0.7"/>
		<path id="XMLID_435_" class="st1" d="M627.4,402l0.4-0.1l0.9-0.2l0.9,0l0.1,0l0.7,0.2l0.1,0"/>
		<ellipse id="XMLID_434_" class="st1" cx="629" cy="400.6" rx="8.3" ry="4.8"/>
	</g>
	<g id="XMLID_425_">
		<path id="XMLID_432_" class="st1" d="M433.6,443.6c0.3-1.4,0.3-1.4,0.4-2.9c-0.2-1.8-0.2-1.8-0.5-3.6c-0.6-1.9-0.6-1.9-1.3-3.8
			c-0.8-1.5-0.8-1.5-1.7-2.9"/>
		<path id="XMLID_431_" class="st1" d="M431.9,446.3l-1.3,0.7l1.7-1l1.3-2.2l0-0.2l0.7-0.4l-0.7,0.4"/>
		<path id="XMLID_430_" class="st1" d="M434.1,440.7v-0.5"/>
		<path id="XMLID_429_" class="st1" d="M435.3,441.8l-0.2,0.2"/>
		<path id="XMLID_428_" class="st1" d="M430.6,426.4c4.3,4.4,6.4,11.3,4.7,15.3c-0.4,0.9-1,1.7-1.7,2.1"/>
		<path id="XMLID_427_" class="st1" d="M430.6,424.8c4.2,3.4,7,9.7,6.1,14.1c-0.2,1.2-0.7,2.2-1.5,2.9"/>
		<path id="XMLID_426_" class="st1" d="M430.6,430c2.3,3.4,3.6,7.4,3.5,10.6"/>
	</g>
	<g id="XMLID_97_">
		<path id="XMLID_424_" class="st1" d="M275.7,486.3c-0.5-0.3-0.5-0.3-0.9-0.7c-4.2-4.1-4.3-4.1-8.4-8.2c-3.6-4.3-3.6-4.3-7-8.7"/>
		<path id="XMLID_423_" class="st1" d="M275.3,485c-3.7-3.1-3.7-3.1-7.3-6.2c-0.8-0.8-0.8-0.8-1.6-1.7c-3.5-4.2-3.5-4.2-7-8.5
			c-0.1-0.3-0.1-0.3-0.2-0.5c0-0.1,0-0.1-0.1-0.2c0-1.3,0-1.3,0-2.5"/>
		<path id="XMLID_422_" class="st1" d="M325.3,491.6c-0.5,0-0.5,0-0.9-0.1c-4.8-1.2-4.8-1.2-9.6-2.4c-4.6-1.6-4.6-1.6-9.2-3.3
			c-5.1-2.5-5.1-2.5-10.1-5c-4.6-3-4.6-3-9.1-6.1c-4-3.4-4-3.4-8-6.9c-2.9-3-2.9-3.1-5.8-6.2c-0.3-0.4-0.3-0.4-0.6-0.9
			c-0.3-0.5-0.3-0.5-0.5-1.1c-0.2-0.6-0.2-0.6-0.4-1.2c-0.1-0.6-0.1-0.6-0.2-1.1c0-0.5,0-0.5,0-1"/>
		<path id="XMLID_421_" class="st1" d="M271.1,456.2c0,0.8,0,0.8,0.1,1.5c0.1,0.5,0.1,0.5,0.2,0.9c0.2,0.6,0.2,0.6,0.4,1.1
			c0.2,0.5,0.2,0.5,0.4,0.9c0.3,0.4,0.3,0.4,0.5,0.8c3.8,3.9,3.8,4,7.6,7.9c4.3,3.5,4.3,3.5,8.6,6.9c4.6,2.9,4.6,2.9,9.3,5.7
			c4.9,2.3,4.9,2.3,10,4.5c5.2,1.7,5.2,1.7,10.5,3.4c2.7,0.7,2.7,0.7,5.5,1.3c0.5,0,0.5,0,1,0"/>
		<path id="XMLID_420_" class="st1" d="M260.9,394.2c-0.1,0-0.1,0-0.2,0.1c-0.3,0.2-0.3,0.2-0.7,0.4c-0.2,0.2-0.2,0.2-0.5,0.3"/>
		<path id="XMLID_419_" class="st1" d="M340.1,443.6c-9.6-3.2-9.7-3.2-19.2-6.6c-11-5.2-11-5.1-21.9-10.6
			c-9.2-6.2-9.3-6.2-18.3-12.6c-5.8-5.4-5.8-5.4-11.4-11.1"/>
		<path id="XMLID_418_" class="st1" d="M263.2,401.7c-0.1-0.6-0.1-0.6-0.1-1.2c0-0.2,0-0.2,0.1-0.3c0.1-0.1,0.1-0.1,0.2-0.3"/>
		<path id="XMLID_417_" class="st1" d="M340.6,441.9c-2.5-0.9-2.5-0.9-5-1.8c-4.9-1.9-4.9-1.9-9.8-3.9c-2.1-0.9-2.1-0.9-4.2-1.8
			c-6.6-3.1-6.6-3.1-13.1-6.2c-2-1.1-2-1.1-4-2.1c-5.7-3.3-5.8-3.3-11.5-6.7c-5-3.4-5-3.4-10-6.9c-1.6-1.2-1.6-1.2-3.3-2.4
			c-4.1-3.6-4.1-3.6-8.2-7.2c-1.2-1.1-1.2-1.1-2.3-2.1"/>
		<path id="XMLID_416_" class="st1" d="M264.1,395.5c0.6,0.3,0.6,0.3,1.3,0.6c1.2,0.4,1.2,0.4,2.3,0.7c1.4,0.1,1.4,0.1,2.8,0.2
			c1.4-0.2,1.5-0.2,2.8-0.4c1.2-0.4,1.2-0.5,2.4-1"/>
		<path id="XMLID_415_" class="st1" d="M269.3,413c8,6.9,8.1,6.9,16.4,13.5c10.3,6.2,10.4,6.2,20.9,12.1c11.6,4.8,11.6,4.8,23.3,9.4
			"/>
		<path id="XMLID_414_" class="st1" d="M269.3,400.5c2.6,2.3,2.6,2.3,5.1,4.5c2.7,2.4,2.7,2.4,5.5,4.8c3.2,2.3,3.2,2.3,6.5,4.6
			c3.4,2.4,3.4,2.4,6.8,4.7c3.8,2.2,3.8,2.2,7.6,4.4c3.9,2.2,3.9,2.2,7.9,4.4c4.3,2,4.3,2,8.5,4c4.4,2,4.4,2,8.8,4.1"/>
		<path id="XMLID_413_" class="st1" d="M270.8,391.2c0.1-0.1,0.1-0.1,0.2-0.1c0.1-0.1,0.1-0.1,0.3-0.1c0.1,0,0.1,0,0.3,0
			c0.1,0,0.1,0,0.3,0c0.1,0.1,0.1,0.1,0.3,0.1c0.2,0.2,0.2,0.2,0.5,0.3"/>
		<path id="XMLID_412_" class="st1" d="M268.6,389c0.4,0.1,0.4,0.1,0.7,0.1c0.3,0,0.3,0,0.6-0.1c0.2-0.1,0.2-0.1,0.5-0.2"/>
		<path id="XMLID_411_" class="st1" d="M271.7,389.2c0.3,0.1,0.3,0.1,0.5,0.2c0.3,0,0.3,0,0.7,0c0.2,0.1,0.2,0.1,0.4,0.1"/>
		<path id="XMLID_410_" class="st1" d="M292.2,379.8c-6.4,3.7-6.4,3.7-12.8,7.4c-0.1,0-0.1,0-0.2,0.1c-0.2,0-0.2,0-0.5,0
			c-2.5-0.2-2.5-0.2-5-0.5"/>
		<path id="XMLID_409_" class="st1" d="M278.8,449.8c0-0.1,0-0.1,0-0.1c0-0.1,0-0.1,0-0.2c-0.1-0.2-0.1-0.2-0.1-0.3"/>
		<path id="XMLID_408_" class="st1" d="M286.7,442c-1.8-1.2-1.8-1.2-3.5-2.5c-0.3-0.3-0.3-0.3-0.6-0.6c-0.3-0.4-0.3-0.4-0.5-0.8
			c-0.2-0.5-0.2-0.5-0.4-1c-0.1-0.2-0.1-0.2-0.1-0.4c-0.1-0.6-0.1-0.6-0.2-1.2"/>
		<path id="XMLID_407_" class="st1" d="M286.7,439c0-0.1,0-0.1,0-0.3c0-0.1,0-0.1,0-0.3c-0.1-0.1-0.1-0.1-0.1-0.3
			c-0.1-0.2-0.1-0.2-0.2-0.4"/>
		<path id="XMLID_406_" class="st1" d="M348.3,520.8c-4.9-1.3-4.9-1.3-9.9-2.6c-1.3-0.4-1.3-0.4-2.7-0.8c-5.1-1.7-5.1-1.7-10.2-3.4
			c-2-0.7-2-0.7-4-1.5c-4.1-1.7-4.1-1.7-8.2-3.4c-2.6-1.1-2.6-1.1-5.1-2.3c-3.1-1.6-3.1-1.6-6.3-3.2c-3-1.6-3-1.6-6-3.2
			c-2.3-1.4-2.3-1.4-4.5-2.8c-3.3-2.1-3.3-2.1-6.6-4.3c-0.2-0.2-0.2-0.2-0.4-0.3"/>
		<path id="XMLID_405_" class="st1" d="M283.6,433.2c-0.1-0.2-0.1-0.2-0.2-0.4c-0.1-0.3-0.1-0.3-0.1-0.5c0-0.1,0-0.1,0-0.3"/>
		<path id="XMLID_404_" class="st1" d="M288.5,435.1c-0.1-0.4-0.1-0.4-0.1-0.9c-0.1-0.5-0.1-0.5-0.3-1c-0.3-0.5-0.3-0.5-0.5-0.9
			c-0.2-0.3-0.2-0.3-0.4-0.5c-0.3-0.3-0.3-0.3-0.6-0.6c-1.2-0.9-1.2-0.9-2.5-1.7"/>
		<path id="XMLID_403_" class="st1" d="M282.8,412.8c7.6,5.1,7.6,5.1,15.3,10.1c5.1,2.8,5.1,2.8,10.3,5.5c4.3,2.1,4.3,2.1,8.6,4.3"
			/>
		<path id="XMLID_402_" class="st1" d="M288.6,396.3c6.2-27.7,6.2-27.7,12.1-55.5c0.9-8.2,0.7-8.2,1.4-16.5c0-0.2,0-0.2,0.1-0.3
			c1.6-2.9,1.6-2.9,3.2-5.9c0.1-0.1,0.1-0.1,0.2-0.2c0.5-0.5,0.5-0.5,1.1-0.9c0,0,0,0,0.1,0"/>
		<path id="XMLID_401_" class="st1" d="M302.2,329.7c0.9,2.3,0.9,2.3,1.8,4.7c0.3,0.6,0.3,0.6,0.7,1.2c1.9,2.1,1.9,2.1,3.9,4.3
			c0.6,0.5,0.6,0.5,1.3,1c2.9,1.8,2.9,1.8,5.7,3.5c0.9,0.4,0.9,0.4,1.7,0.8c3.6,1.3,3.6,1.3,7.1,2.5c1.1,0.3,1.1,0.2,2.1,0.5
			c4,0.7,4,0.7,8,1.3c1.1,0.1,1.1,0.1,2.3,0.1c4.1,0,4.1,0,8.2,0c1.2-0.1,1.2-0.1,2.3-0.2c3.9-0.6,3.9-0.6,7.9-1.3
			c1.1-0.3,1.1-0.3,2.1-0.6c3.5-1.2,3.5-1.2,7-2.4c1-0.4,1-0.4,1.9-0.9c2.7-1.7,2.7-1.7,5.5-3.5c0.7-0.6,0.7-0.6,1.5-1.2
			c0.7-0.8,0.7-0.8,1.3-1.5"/>
		<path id="XMLID_400_" class="st1" d="M301.5,442.9c-0.5-1-0.5-1-1-2c-0.7-1-0.7-1-1.5-1.9c-0.7-0.7-0.7-0.7-1.5-1.3
			c-0.8-0.4-0.8-0.4-1.6-0.8"/>
		<path id="XMLID_399_" class="st1" d="M292.5,438.6c-0.2,0.8-0.2,0.8-0.3,1.6c0,0.1,0,0.1,0,0.2c0.2,1,0.1,1,0.3,1.9
			c0.3,1,0.3,1,0.7,1.9c0.6,1,0.6,1,1.2,1.9c0.7,0.8,0.7,0.8,1.5,1.6c0.8,0.6,0.8,0.6,1.6,1.1"/>
		<path id="XMLID_398_" class="st1" d="M306.7,317c2.3-2.2,2.4-2.2,4.8-4.2c4-2.1,4-2.1,8-4c1.3-0.4,1.3-0.4,2.5-0.7"/>
		<path id="XMLID_397_" class="st1" d="M322.1,308.1c-1.2,0.3-1.2,0.3-2.4,0.7c-1.3,0.6-1.3,0.6-2.5,1.2c-2.7,1.4-2.7,1.3-5.4,2.8
			c-2.9,2.4-3,2.4-5.8,5"/>
		<path id="XMLID_396_" class="st1" d="M313.1,463.8c1,0.1,1,0.1,1.9,0.3c1.1,0.4,1.1,0.5,2.1,1c1,0.8,1,0.8,2,1.5
			c0.6,0.7,0.6,0.7,1.2,1.3c0.6,1,0.6,1,1.2,2c0.3,1,0.3,1,0.6,2c0,0.9,0,0.9,0,1.8"/>
		<path id="XMLID_395_" class="st1" d="M316.8,476.5c-1.1-0.5-1.1-0.5-2.2-1c-1-0.8-1-0.8-2-1.6c-0.7-0.9-0.7-0.9-1.4-1.7
			c-0.5-1-0.5-1-1-2c-0.2-0.8-0.2-0.8-0.4-1.6c0-0.9,0-0.9,0-1.8"/>
		<path id="XMLID_394_" class="st1" d="M310.2,468.4c0-0.3,0-0.3,0-0.6c0.1-0.7,0.1-0.7,0.2-1.5c0-0.1,0-0.1,0.1-0.2
			c0.4-0.6,0.4-0.6,0.9-1.1"/>
		<path id="XMLID_393_" class="st1" d="M314.4,464.4c1,0.3,1,0.3,2,0.7c1,0.6,1,0.7,2,1.4c0.8,0.8,0.8,0.8,1.5,1.6
			c0.1,0.1,0.1,0.1,0.2,0.2c0.5,0.9,0.5,0.9,1,1.7c0.1,0.2,0.1,0.2,0.1,0.3c0.2,0.9,0.2,0.9,0.4,1.7c0,0.1,0,0.1,0,0.2
			c0,0.2,0,0.2,0,0.4c-0.1,0.7-0.1,0.7-0.3,1.5c0,0.1,0,0.1-0.1,0.1c-0.5,0.6-0.5,0.6-0.9,1.2"/>
		<path id="XMLID_392_" class="st1" d="M317.4,476.1c-1-0.3-1-0.3-2-0.7c-1-0.6-1-0.7-2-1.4c-0.8-0.8-0.8-0.8-1.5-1.6
			c-0.1-0.1-0.1-0.1-0.2-0.3c-0.5-0.9-0.5-0.9-1-1.7c-0.1-0.2-0.1-0.2-0.1-0.3c-0.2-0.8-0.2-0.8-0.4-1.7"/>
		<path id="XMLID_391_" class="st1" d="M330.3,448.2c-1.6,20.8-1.6,20.8-3.2,41.5c0,0.1,0,0.1,0,0.2c-0.1,0.4-0.1,0.4-0.3,0.8"/>
		<path id="XMLID_390_" class="st1" d="M343.3,328.4c-0.9,0.2-0.9,0.2-1.7,0.3c-0.9,0-0.9,0-1.8,0c-0.9-0.2-0.9-0.2-1.8-0.3"/>
		<path id="XMLID_389_" class="st1" d="M352.8,521.3c28.5-16.4,28.5-16.4,56.9-32.9c0.4-0.2,0.4-0.2,0.7-0.5
			c0.3-0.3,0.3-0.3,0.7-0.7c0.1-0.2,0.1-0.2,0.3-0.4c0.3-0.4,0.3-0.4,0.5-0.8c4.4-7.8,4.3-7.8,8.7-15.7c4-6.9,4-6.9,8-13.7"/>
		<path id="XMLID_388_" class="st1" d="M352.2,439.4c0.2-0.1,0.2-0.1,0.4-0.2c0.1,0,0.1,0,0.3-0.1c0.1,0,0.1,0,0.3,0
			c0.1,0,0.1,0,0.3,0.1c0.1,0,0.1,0,0.2,0.1"/>
		<path id="XMLID_387_" class="st1" d="M354.7,439.6c0.1-0.1,0.1-0.1,0.2-0.1c0.1-0.1,0.1-0.1,0.2-0.1c0.1,0,0.1,0,0.3,0
			c0.1,0,0.1,0,0.3,0c0.1,0.1,0.1,0.1,0.3,0.1c0.2,0.1,0.2,0.1,0.3,0.3"/>
		<path id="XMLID_386_" class="st1" d="M352.6,437.5c0.4,0.1,0.4,0.1,0.7,0.1c0.3,0,0.3,0,0.6-0.1c0.2-0.1,0.2-0.1,0.4-0.2"/>
		<path id="XMLID_385_" class="st1" d="M356.3,438.8c0,0.1,0,0.1,0.1,0.2c0.1,0.1,0.1,0.1,0.2,0.2c0.2,0.1,0.2,0.1,0.3,0.2"/>
		<path id="XMLID_384_" class="st1" d="M416.3,402.4c0.3-0.1,0.3-0.1,0.5-0.2c0.1,0,0.1,0,0.3,0c0.2,0,0.2,0,0.3,0
			c0.1,0,0.1,0,0.2,0.1c0.1,0.1,0.1,0.1,0.2,0.1"/>
		<path id="XMLID_383_" class="st1" d="M419,402.6c0.1-0.1,0.1-0.1,0.2-0.2c0.1,0,0.1,0,0.3-0.1c0.1,0,0.1,0,0.3,0
			c0.1,0,0.2,0,0.3,0c0.1,0,0.1,0,0.3,0.1c0.2,0.1,0.2,0.1,0.3,0.2c0.1,0,0.1,0,0.2,0.1"/>
		<path id="XMLID_382_" class="st1" d="M418.5,400.2c-0.2,0.1-0.2,0.1-0.5,0.2c-0.3,0-0.3,0-0.6,0c-0.3,0-0.4,0-0.7-0.1"/>
		<path id="XMLID_381_" class="st1" d="M429.4,455.3c0.2-0.4,0.2-0.4,0.5-0.8c0.2-0.4,0.2-0.4,0.4-0.9c0.1-0.4,0.1-0.4,0.3-0.9
			c0.1-0.4,0.1-0.4,0.1-0.9"/>
		<path id="XMLID_380_" class="st1" d="M431.1,417.9c0-0.1,0-0.1,0-0.2c0-0.1,0-0.1-0.1-0.3c-0.1-0.1-0.1-0.1-0.1-0.3
			c-0.1-0.2-0.1-0.2-0.3-0.5"/>
		<path id="XMLID_379_" class="st1" d="M341.9,326.6c-0.1,0.1-0.1,0.1-0.2,0.2c-0.2,0.1-0.2,0.1-0.3,0.2c-0.2,0-0.2,0-0.4,0.1
			c-0.2,0-0.2,0-0.4,0c-0.2,0-0.2,0-0.4-0.1c-0.2-0.1-0.2-0.1-0.3-0.2c-0.1-0.1-0.1-0.1-0.2-0.2"/>
		<path id="XMLID_378_" class="st1" d="M415.5,408.9c0.5,0.2,0.5,0.2,1,0.3c0.6,0.1,0.6,0.1,1.2,0.2c1.1,0,1.1,0,2.1,0
			c0.6-0.1,0.6-0.1,1.2-0.2"/>
		<path id="XMLID_377_" class="st1" d="M355.5,446.4c0.8-0.1,0.8-0.1,1.5-0.2c0.2-0.1,0.2-0.1,0.5-0.2c0.8-0.4,0.9-0.3,1.6-0.7
			c0.6-0.5,0.6-0.5,1.2-1"/>
		<path id="XMLID_376_" class="st1" d="M364.6,442.9c-0.2,0.1-0.2,0.1-0.4,0.1c-0.1,0-0.1,0-0.2,0c-0.2,0-0.2,0-0.4-0.1"/>
		<path id="XMLID_375_" class="st1" d="M352,446.2c0.8,0.2,0.8,0.2,1.6,0.3c0.9,0,0.9,0,1.7,0c0.8-0.1,0.8-0.2,1.6-0.3
			c0.1-0.1,0.1-0.1,0.3-0.1"/>
		<path id="XMLID_374_" class="st1" d="M275.4,486.1l0.3,0.2"/>
		<path id="XMLID_373_" class="st1" d="M259.1,465.4v2.5"/>
		<path id="XMLID_372_" class="st1" d="M259.4,468.6l-0.1-0.2"/>
		<path id="XMLID_371_" class="st1" d="M259.1,467.9v-20.6L259,445l0,2.3"/>
		<path id="XMLID_370_" class="st1" d="M259.1,462.5V461"/>
		<path id="XMLID_369_" class="st1" d="M324.4,491.1l0.5,0.1l1,0.1l0.5-0.2l-0.2,0.2l-0.9,0.3"/>
		<path id="XMLID_368_" class="st1" d="M270.9,456.5l-11.3-13.1v-0.1l-1.1-1.6l-0.1-0.3l0-0.3l0.2-0.3l0.5,0.5"/>
		<path id="XMLID_367_" class="st1" d="M259,445v-0.2"/>
		<path id="XMLID_366_" class="st1" d="M259.1,447.3l-0.2-2.7l-0.5-2.8l0,0.1"/>
		<path id="XMLID_365_" class="st1" d="M259.1,421.5v20.3l0.4,0.8l11.7,13.5"/>
		<path id="XMLID_364_" class="st1" d="M325.2,491.2l1-0.5l0.6-0.6l0.3-0.7v-0.2l3.2-41.1"/>
		<path id="XMLID_363_" class="st1" d="M259.8,443.1l-0.2,0.1"/>
		<path id="XMLID_362_" class="st1" d="M259.6,443.3l0.3-0.2"/>
		<path id="XMLID_361_" class="st1" d="M259.1,440.5l-0.5,0.3"/>
		<path id="XMLID_360_" class="st1" d="M258.4,441.4l0.1,0.5"/>
		<path id="XMLID_359_" class="st1" d="M259.6,422.3L259.6,422.3l-1.1-1.6l-0.1-0.3l0-0.1l0,0.2l-0.1-0.2"/>
		<path id="XMLID_358_" class="st1" d="M265.3,396.1l-4.2-1.9h-0.3"/>
		<path id="XMLID_357_" class="st1" d="M259.5,395l-0.3,0.4l-0.1,0.5l-0.1,4.9l0.2,0.4l9.6,11.4l0.3,0.3l0.9,21.4l-10.4-12v0.1"/>
		<path id="XMLID_356_" class="st1" d="M271.1,456.2l-0.9-21.1l-10.8-12.6"/>
		<path id="XMLID_355_" class="st1" d="M258.4,420.2L258.4,420.2"/>
		<path id="XMLID_354_" class="st1" d="M258.6,419.3L258.6,419.3l0.2-0.4l0.2-0.7"/>
		<path id="XMLID_353_" class="st1" d="M258.5,419.3l-0.1,0.5v0.5"/>
		<path id="XMLID_352_" class="st1" d="M259,418.6l0.1-2.2l0-15.7"/>
		<path id="XMLID_351_" class="st1" d="M259.1,416.4l-0.2,2.2v-0.2"/>
		<path id="XMLID_350_" class="st1" d="M259.1,417.3v-0.9"/>
		<path id="XMLID_349_" class="st1" d="M340.7,441.8l1.5,3.8l-0.2,0.3l-0.3,1.2l-1.6-3.5"/>
		<path id="XMLID_348_" class="st1" d="M269.3,402.7l-6.1-1"/>
		<path id="XMLID_347_" class="st1" d="M340.1,443.6l0.4-1.4l0.1-0.2"/>
		<path id="XMLID_346_" class="st1" d="M269.2,400.7l0-0.1l-6-0.5"/>
		<path id="XMLID_345_" class="st1" d="M261.9,394.6l2.1-1.2"/>
		<path id="XMLID_344_" class="st1" d="M266.4,477.1l-2.3-2.8"/>
		<path id="XMLID_343_" class="st1" d="M275.8,395.6L275.8,395.6l1.5-1.3l0.6-1.5l-0.6-1.5"/>
		<path id="XMLID_342_" class="st1" d="M264,393.6v-2.5"/>
		<path id="XMLID_341_" class="st1" d="M274.9,485.4l-7-6.6"/>
		<path id="XMLID_340_" class="st1" d="M270.2,435.1l-1-22l-0.2-0.2"/>
		<path id="XMLID_339_" class="st1" d="M329.8,448l-3.2,41.5l-0.2,0.7l-0.5,0.5"/>
		<path id="XMLID_338_" class="st1" d="M269.3,402.7l-0.2-1.6l0.1-0.4"/>
		<path id="XMLID_337_" class="st1" d="M269.2,400.6l0.2-0.3"/>
		<path id="XMLID_336_" class="st1" d="M326,436l-0.9-0.4"/>
		<path id="XMLID_335_" class="st1" d="M268.4,390.9l0.4-0.1l0-0.9l-0.1,0.2l-0.2,0.1l-0.5,0.3"/>
		<path id="XMLID_334_" class="st1" d="M267.9,390.9L267.9,390.9"/>
		<path id="XMLID_333_" class="st1" d="M268.8,390.7l0.4,0l0.2,0.1l0.2,0.1l0.1,0.2l0,0.2l-0.1,0.3l0,0.1l0.2,0.2l0.3,0.1l0.1,0
			l0.2-0.1l0-0.1l0.1-0.3l0.1-0.2"/>
		<path id="XMLID_332_" class="st1" d="M272.5,391.3l0.3,0l0.1,0l0.1-0.2l0-0.2l-0.4-0.3"/>
		<path id="XMLID_331_" class="st1" d="M269.8,391.3v0.5"/>
		<path id="XMLID_330_" class="st1" d="M268.8,389.9v-0.2l-0.1-0.1l-0.1-0.1l-0.5-0.1l0-0.1l0.1-0.1l0.2-0.1l0.3-0.1"/>
		<path id="XMLID_329_" class="st1" d="M270.3,388.9l0.1-0.1l0.1-0.2l0.1,0l0.3-0.1l0.3,0l0.2,0.1l0,0.1l-0.1,0.2l0,0.1l0.3,0.2"/>
		<path id="XMLID_328_" class="st1" d="M273.2,389.5l0.2,0.1l0,0.1l-0.2,0.1H273"/>
		<path id="XMLID_327_" class="st1" d="M270.9,456.5l0.2-0.1"/>
		<path id="XMLID_326_" class="st1" d="M270.2,434.2L270.2,434.2l-0.2,0.1"/>
		<path id="XMLID_325_" class="st1" d="M272.8,396.8l0.7-0.2l-1.4,0.3"/>
		<path id="XMLID_324_" class="st1" d="M272.4,391.2l0-1.1"/>
		<path id="XMLID_323_" class="st1" d="M271.2,391l-0.3,0l-0.3,0l-0.1,0.1l0,0.1"/>
		<path id="XMLID_322_" class="st1" d="M271.3,390.9v-2.1"/>
		<path id="XMLID_321_" class="st1" d="M271.6,387.9l1.8-1.1l0.2-0.1l2,0.2l-2-0.2"/>
		<path id="XMLID_320_" class="st1" d="M275.7,486.3l2.9,2.3L275.7,486.3"/>
		<path id="XMLID_319_" class="st1" d="M278.5,443.5l3,9.5l-1.7-1.3l-4.3-3.5L278.5,443.5l-0.9,1.5"/>
		<path id="XMLID_318_" class="st1" d="M273.8,396.5l-0.4,0.1l1-0.3"/>
		<path id="XMLID_317_" class="st1" d="M274.4,386.8l18.7-10.7"/>
		<path id="XMLID_316_" class="st1" d="M278.6,454.7l-2-1.6v-1.4l3.9,3.1v1.4L278.6,454.7"/>
		<path id="XMLID_315_" class="st1" d="M278.6,450.2l2.2,1.8l-2.3-7.4l-2.3,3.7L278.6,450.2l-2.4-1.9"/>
		<path id="XMLID_314_" class="st1" d="M278.6,448.7l-0.4-0.3v-2.9l0.5,0.4v2.9L278.6,448.7"/>
		<path id="XMLID_313_" class="st1" d="M277.6,393.2l0,0.2"/>
		<path id="XMLID_312_" class="st1" d="M277.1,394.5v-3.4"/>
		<path id="XMLID_311_" class="st1" d="M277.6,393.5l0.1-0.4v0.2"/>
		<path id="XMLID_310_" class="st1" d="M277.4,394.1l-0.2,0.3"/>
		<path id="XMLID_309_" class="st1" d="M277.2,394.3l0.2-0.3"/>
		<path id="XMLID_308_" class="st1" d="M277.4,392.3l-0.3-0.4"/>
		<path id="XMLID_307_" class="st1" d="M278.7,488.6L278.7,488.6l3.2,2.5l2.5,2L278.7,488.6"/>
		<path id="XMLID_306_" class="st1" d="M278.7,450.8l1.2,0.9"/>
		<path id="XMLID_305_" class="st1" d="M278.6,449.9L278.6,449.9l0.2-0.1"/>
		<path id="XMLID_304_" class="st1" d="M281.3,435.7l4.9,3.5l0.2,0.1h0.1l0.1-0.1l0.1-0.2"/>
		<path id="XMLID_303_" class="st1" d="M286.4,437.8l-1.5-1l-1.9-1.4"/>
		<path id="XMLID_302_" class="st1" d="M279.7,410.3l1.7,1.2L279.7,410.3"/>
		<path id="XMLID_301_" class="st1" d="M281.5,411.4l11.5,8"/>
		<path id="XMLID_300_" class="st1" d="M279.5,387.2L279.5,387.2"/>
		<path id="XMLID_299_" class="st1" d="M335.8,517.4l12.5,3.4"/>
		<path id="XMLID_298_" class="st1" d="M284.4,493.1l0.4,0.3l-0.1-0.1"/>
		<path id="XMLID_297_" class="st1" d="M285.6,434.6l-2-1.4"/>
		<path id="XMLID_296_" class="st1" d="M283.2,432l0.1-0.2l0.1-0.1h0.1l0.1,0.1l4.8,3.3"/>
		<path id="XMLID_295_" class="st1" d="M317,432.7l-0.6-0.3"/>
		<path id="XMLID_294_" class="st1" d="M296,500.2l9.5,5l-21-12.4"/>
		<path id="XMLID_293_" class="st1" d="M290.2,444.4l-0.6-0.4v-10.7l2.1,1.4v10.7L290.2,444.4"/>
		<path id="XMLID_292_" class="st1" d="M288.5,416.4l-0.7-0.5"/>
		<path id="XMLID_291_" class="st1" d="M306.7,317l-1,0.9l-2.6,4.6l-0.6,1.2l-0.4,4.8l0,1.3"/>
		<path id="XMLID_290_" class="st1" d="M299.4,443l2-0.1"/>
		<path id="XMLID_289_" class="st1" d="M295.9,437l-1.5-0.1l-1.2,0.6l-0.7,1.1"/>
		<path id="XMLID_288_" class="st1" d="M297.5,448.9l1.7,0.4l1.3-0.3l1-0.9l-2-2.2"/>
		<path id="XMLID_287_" class="st1" d="M292.7,418.8l-0.4-0.3"/>
		<path id="XMLID_286_" class="st1" d="M294.9,480.4l0.5,18.9"/>
		<path id="XMLID_285_" class="st1" d="M295.6,466.2l-2.3-1.3v-1.5l4.6,2.7v1.5L295.6,466.2"/>
		<path id="XMLID_284_" class="st1" d="M296,461.5l-2.1,0.2v-5.4l4.1,5L296,461.5"/>
		<path id="XMLID_283_" class="st1" d="M295.6,444.7l-0.2-0.2"/>
		<path id="XMLID_282_" class="st1" d="M295.6,439.8l0.2-0.1"/>
		<path id="XMLID_281_" class="st1" d="M302.6,451.5v-10.7l2.4,1.2v4.2l0.9,0.5l2.7-3l3.1,1.4l-3.5,3.8l3.5,7l-3.1-1.4l-2.7-5.5
			l-0.9-0.5v4.3L302.6,451.5"/>
		<path id="XMLID_280_" class="st1" d="M311.6,312.8l-0.1,0.1l-4.7,4.2"/>
		<path id="XMLID_279_" class="st1" d="M306.1,317.7l-1.2,2.1l-2.1,3.9"/>
		<path id="XMLID_278_" class="st1" d="M305.5,505.3l2.7,1.4"/>
		<path id="XMLID_277_" class="st1" d="M312.9,488l-2.1-0.6l-0.8-0.4"/>
		<path id="XMLID_276_" class="st1" d="M310.2,465.4l1.2-1.1l1.7-0.5"/>
		<path id="XMLID_275_" class="st1" d="M322.2,473.6l-0.6,1.5l-1.1,1l-1.7,0.5l-2.1-0.2"/>
		<path id="XMLID_274_" class="st1" d="M309.7,466.7l0.5-1.4L309.7,466.7"/>
		<path id="XMLID_273_" class="st1" d="M311.4,465.1l1.3-0.6h1.7"/>
		<path id="XMLID_272_" class="st1" d="M320.5,475.4l-1.4,0.6l-1.7,0.1"/>
		<path id="XMLID_271_" class="st1" d="M308.6,427.9l0.4,0.2"/>
		<path id="XMLID_270_" class="st1" d="M312.6,473.9l-1.4-1.7"/>
		<path id="XMLID_269_" class="st1" d="M312.3,469.2l1.5,1.7l1.6,1.6l-0.1-1.5l3.2,1.1l0.1-2.1l-0.8-0.2l-0.1,1.5l-2.4-0.9l0.1-1.6
			l-1.6,0.3L312.3,469.2"/>
		<path id="XMLID_268_" class="st1" d="M317.1,338l3.7,2.1l0.1,0.2l-0.1,0.2l-0.2,0.1l-6.2,2l-0.2,0.1l-0.3-0.1l-0.1-0.1l0-0.2
			l2.5-4.2"/>
		<path id="XMLID_267_" class="st1" d="M317.4,476.1l-1-0.4"/>
		<path id="XMLID_266_" class="st1" d="M316.8,476.5l2.1,0.2"/>
		<path id="XMLID_265_" class="st1" d="M317.3,432.8l-0.3-0.1l8.8,3.8l8,3.3l-0.3-0.1"/>
		<path id="XMLID_264_" class="st1" d="M321.4,512.2l8.5,2.9l-8.3-3.3"/>
		<path id="XMLID_263_" class="st1" d="M321.1,345.9l-1.7-0.6"/>
		<path id="XMLID_262_" class="st1" d="M322.1,308.1L322.1,308.1"/>
		<path id="XMLID_261_" class="st1" d="M351.8,448.8l0,5.1l-0.6,0l-0.7-0.1l-20.3-5.7"/>
		<path id="XMLID_260_" class="st1" d="M326.8,490.7l-0.4,0.4"/>
		<path id="XMLID_259_" class="st1" d="M329.9,515.1l5.8,2"/>
		<path id="XMLID_258_" class="st1" d="M330.3,448.2l-0.5-0.2"/>
		<path id="XMLID_257_" class="st1" d="M333.8,439.8l0.2,0.1"/>
		<path id="XMLID_256_" class="st1" d="M338,328.4l-1.5-0.6l0,0"/>
		<path id="XMLID_255_" class="st1" d="M339.4,326.1l0.4-0.8"/>
		<path id="XMLID_254_" class="st1" d="M339.6,518.4l2.9,0.8"/>
		<path id="XMLID_253_" class="st1" d="M342.5,445.4l-0.2,0.2"/>
		<path id="XMLID_252_" class="st1" d="M340.6,441.9l0.2-0.2"/>
		<path id="XMLID_251_" class="st1" d="M342,326.1l-0.3-0.7"/>
		<path id="XMLID_250_" class="st1" d="M343.3,328.4l1.5-0.6l-0.1,0"/>
		<path id="XMLID_249_" class="st1" d="M345.4,520l1.2,0.3"/>
		<path id="XMLID_248_" class="st1" d="M347.8,442.9l0.1,0.3l-0.1-0.1"/>
		<path id="XMLID_247_" class="st1" d="M348,443.2l-0.1-0.2"/>
		<path id="XMLID_246_" class="st1" d="M353.9,448.9l0-1l-0.2-0.3l-4.2-2.9l-1.6-1.5l-0.4-1.2l0-0.7"/>
		<path id="XMLID_245_" class="st1" d="M348,442.2v0.7v-0.9V442.2"/>
		<path id="XMLID_244_" class="st1" d="M348,443v0.3v-3.7v2.5v-1.4"/>
		<path id="XMLID_243_" class="st1" d="M348,438.6l-1.1,1.7"/>
		<path id="XMLID_242_" class="st1" d="M348,440.1l-0.3,0.5"/>
		<path id="XMLID_241_" class="st1" d="M347.5,441.9l-0.2-0.6l0.6-1.7l0.1-0.1"/>
		<path id="XMLID_240_" class="st1" d="M347.5,441.7l0-0.2L347.5,441.7"/>
		<path id="XMLID_239_" class="st1" d="M350.8,521.4l-2.5-0.7l2.8,0.7l0.7,0.1l-0.3-0.1"/>
		<path id="XMLID_238_" class="st1" d="M351.1,521.5l-0.3-0.1"/>
		<path id="XMLID_237_" class="st1" d="M349.9,445l-0.4-0.3"/>
		<path id="XMLID_236_" class="st1" d="M351.9,521.5v-67.6l-0.2,0"/>
		<path id="XMLID_235_" class="st1" d="M352.9,521.2l56.9-32.9"/>
		<path id="XMLID_234_" class="st1" d="M352.5,521l-0.1,0.1"/>
		<path id="XMLID_233_" class="st1" d="M351.8,521.6l0.5-0.1l0.5-0.2"/>
		<path id="XMLID_232_" class="st1" d="M428.6,456.6l-0.4,0.6"/>
		<path id="XMLID_231_" class="st1" d="M352.9,521.2l-0.1,0.1"/>
		<path id="XMLID_230_" class="st1" d="M351.3,453.9L351.3,453.9"/>
		<path id="XMLID_229_" class="st1" d="M352.2,453.9L352.2,453.9L352.2,453.9L352.2,453.9"/>
		<path id="XMLID_228_" class="st1" d="M352.1,453.9l-0.3,0"/>
		<path id="XMLID_227_" class="st1" d="M352.5,453.8l-0.3,0.1L352.5,453.8l0.5-0.2l77.3-44.6l0.2-0.2v43.2"/>
		<path id="XMLID_226_" class="st1" d="M353.5,447.9l-0.7,0.4"/>
		<path id="XMLID_225_" class="st1" d="M364.6,442.9l-10.9,6.3"/>
		<path id="XMLID_224_" class="st1" d="M353.7,447.6l-2.3-1.6"/>
		<path id="XMLID_223_" class="st1" d="M353.6,439.4l0.1,0.2l0,0.2l-0.1,0.3l0,0.1l0.2,0.2l0.2,0h0.2l0.2-0.1l0.1-0.1l0-0.3l0.1-0.2
			"/>
		<path id="XMLID_222_" class="st1" d="M356.3,439.8l0.3,0.1"/>
		<path id="XMLID_221_" class="st1" d="M352.8,439.2l0-1.1l-0.1-0.1l-0.2-0.1l-0.4-0.1l-0.1-0.1l0-0.1l0.2-0.1l0.3-0.1"/>
		<path id="XMLID_220_" class="st1" d="M354.3,437.3l0.1-0.1l0-0.2l0.1-0.1l0.4-0.1l0.3,0l0.2,0.1l0,0.1l-0.1,0.2l0,0.1l0.3,0.2
			l0.5,0.2h0.7"/>
		<path id="XMLID_219_" class="st1" d="M353.8,439.8v0.5"/>
		<path id="XMLID_218_" class="st1" d="M352.8,438.3l-0.1,0.2l-0.2,0.2l-0.5,0.2"/>
		<path id="XMLID_217_" class="st1" d="M356.3,439.7v-1.2v0.2"/>
		<path id="XMLID_216_" class="st1" d="M355.1,439.4l-0.2,0l-0.3,0l-0.1,0.1l-0.1,0.2"/>
		<path id="XMLID_215_" class="st1" d="M355.3,439.4v-2.1"/>
		<path id="XMLID_214_" class="st1" d="M356.3,438.6l0.1-0.1l0.2-0.1l0.2-0.1h0.3"/>
		<path id="XMLID_213_" class="st1" d="M363.6,442.9l-2.6-1.5"/>
		<path id="XMLID_212_" class="st1" d="M364.1,441.8l-3.1-2.1"/>
		<path id="XMLID_211_" class="st1" d="M361,439.5v3.7"/>
		<path id="XMLID_210_" class="st1" d="M364.1,441.8l2.4-1.4"/>
		<path id="XMLID_209_" class="st1" d="M366.5,440.4l-1.4-3.2"/>
		<path id="XMLID_208_" class="st1" d="M364.8,436.7l45.2-26.1"/>
		<path id="XMLID_207_" class="st1" d="M365.2,437.2L365.2,437.2l1.4,3.2l0.1,0.5l-0.1,0.2l-0.1,0.1l49.4-28.5l-0.3,0.1h-0.4
			l-4.8-0.7h-0.4l-0.3,0.1l-44.4,25.7"/>
		<path id="XMLID_206_" class="st1" d="M366.1,439.2l-0.2-0.5"/>
		<path id="XMLID_205_" class="st1" d="M366.6,440.4L366.6,440.4l-0.4-0.8"/>
		<path id="XMLID_204_" class="st1" d="M365.9,343.9l5.3-3.7"/>
		<path id="XMLID_203_" class="st1" d="M393,398.2l-12.2-56.3"/>
		<path id="XMLID_202_" class="st1" d="M389.4,381.6l2.2-2.7l-6.7-34.7"/>
		<path id="XMLID_201_" class="st1" d="M420.6,396.8l-21.1-13.3l-7.9-4.6"/>
		<path id="XMLID_200_" class="st1" d="M399.6,383.5l-8-4.8"/>
		<path id="XMLID_199_" class="st1" d="M420.8,396.6l3,0L420.8,396.6l-29.2-18.1"/>
		<path id="XMLID_198_" class="st1" d="M391.2,376.9l34.2,19.7"/>
		<path id="XMLID_197_" class="st1" d="M392,393.3L392,393.3"/>
		<path id="XMLID_196_" class="st1" d="M409.8,488.3l0.6-0.4l-0.2,0.1"/>
		<path id="XMLID_195_" class="st1" d="M415.7,412l-4.9-1.2"/>
		<path id="XMLID_194_" class="st1" d="M411.8,404.2l-0.1,0.7"/>
		<path id="XMLID_193_" class="st1" d="M418.1,411.7l0-1l-0.2-0.3l-4.2-2.9l-1.5-1.5l-0.1-0.2l0.2,0.2l-0.1-0.1"/>
		<path id="XMLID_192_" class="st1" d="M411.7,404.7v-0.2V404.7"/>
		<path id="XMLID_191_" class="st1" d="M412.2,406.1l-0.6-1.8l0.5-1.7l0.1-0.1"/>
		<path id="XMLID_190_" class="st1" d="M412.2,403.6v2.5"/>
		<path id="XMLID_189_" class="st1" d="M412.2,401.5l-1.1,1.7"/>
		<path id="XMLID_188_" class="st1" d="M412.2,403.2l-0.3,0.4"/>
		<path id="XMLID_187_" class="st1" d="M413.8,407.7l-0.1-0.1"/>
		<path id="XMLID_186_" class="st1" d="M415.6,412l2.4-1.4"/>
		<path id="XMLID_185_" class="st1" d="M417.9,412.1l10.9-6.3"/>
		<path id="XMLID_184_" class="st1" d="M416.2,401.8l-0.1,0.1l-0.2,0.2l0,0.1l0.1,0.2l0.1,0l0.3,0"/>
		<path id="XMLID_183_" class="st1" d="M417.8,402.3l0.1,0.2l0,0.2l-0.1,0.3l0,0.1l0.2,0.2l0.3,0h0.1l0.2-0.1l0-0.1l0.1-0.3l0.1-0.2
			"/>
		<path id="XMLID_182_" class="st1" d="M420.8,402.7h0.2l0.2-0.1l0.1-0.1l0-0.2l-0.6-0.5l-0.1-0.2v-0.2l0.1-0.1l0.2-0.1l0.2-0.1h0.3
			"/>
		<path id="XMLID_181_" class="st1" d="M418,402.7v0.5"/>
		<path id="XMLID_180_" class="st1" d="M417,401.2l0,0.9"/>
		<path id="XMLID_179_" class="st1" d="M420.9,400.7h-0.5l-0.5-0.2l-0.3-0.2l0-0.1l0.1-0.1V400l-0.2-0.1l-0.3,0l-0.4,0.1l-0.1,0
			l-0.1,0.2l-0.1,0.1"/>
		<path id="XMLID_178_" class="st1" d="M416.8,400.4l-0.3,0.1l-0.2,0.2l0,0.1l0.1,0.1l0.4,0.1"/>
		<path id="XMLID_177_" class="st1" d="M420.5,402.6v-1.1"/>
		<path id="XMLID_176_" class="st1" d="M418.6,402.6L418.6,402.6l0.2-0.2l0.3-0.1l0.2,0"/>
		<path id="XMLID_175_" class="st1" d="M419.5,402.3v-2.1"/>
		<path id="XMLID_174_" class="st1" d="M420.8,396.6l-0.2,0"/>
		<path id="XMLID_173_" class="st1" d="M421.4,400.9L421.4,400.9"/>
		<path id="XMLID_172_" class="st1" d="M427.9,405.9l-2.7-1.6"/>
		<path id="XMLID_171_" class="st1" d="M425.2,406.2v-2.5"/>
		<path id="XMLID_170_" class="st1" d="M428.3,404.7l-3-2.1"/>
		<path id="XMLID_169_" class="st1" d="M427,396.5l-3.1,0"/>
		<path id="XMLID_168_" class="st1" d="M427,396.5h-0.2h0.7l1,0.7l1.8,6.4"/>
		<path id="XMLID_167_" class="st1" d="M428.6,456.6l0.8-1.4l-0.3,0.6"/>
		<path id="XMLID_166_" class="st1" d="M428.3,404.7l1.9-1.1"/>
		<path id="XMLID_165_" class="st1" d="M428.6,397.4L428.6,397.4l1.7,6.2l0,0.3"/>
		<path id="XMLID_164_" class="st1" d="M428.5,397.2l0.1,0.1"/>
		<path id="XMLID_163_" class="st1" d="M427.4,396.5l1.1,0.7"/>
		<path id="XMLID_162_" class="st1" d="M430.5,452.7l0.1-0.9L430.5,452.7"/>
		<path id="XMLID_161_" class="st1" d="M430.6,451.9v-1.1V451.9"/>
		<path id="XMLID_160_" class="st1" d="M430.6,450.8v-42.3l-0.1,0.2"/>
		<path id="XMLID_159_" class="st1" d="M431.1,444.1l-0.1,0.5l-0.3,1.1"/>
		<path id="XMLID_158_" class="st1" d="M430.6,443.9v-0.2"/>
		<path id="XMLID_157_" class="st1" d="M430.6,441.7l0.4-0.6l0.2-0.5v3l-0.2,0.9l0.2-0.8"/>
		<path id="XMLID_156_" class="st1" d="M431.1,440.7l-0.1-0.6l-0.4-0.6"/>
		<path id="XMLID_155_" class="st1" d="M430.6,418.4l0.4-0.2l0.2-0.3v3.9l-0.2,0.5l-0.4,0.6"/>
		<path id="XMLID_154_" class="st1" d="M430.4,408.9l0.1-0.1l0-1.6L430.4,408.9"/>
		<path id="XMLID_153_" class="st1" d="M430.6,408.5v-0.2l-0.1-0.4"/>
		<path id="XMLID_152_" class="st1" d="M430.5,408.6L430.5,408.6"/>
		<path id="XMLID_151_" class="st1" d="M430.4,407.2l-0.1-3.3"/>
		<path id="XMLID_150_" class="st1" d="M430.4,404.3v-0.4"/>
		<path id="XMLID_149_" class="st1" d="M269.8,391.7l0.3-0.1l0.2-0.1l0.1-0.1l0-0.2"/>
		<path id="XMLID_148_" class="st1" d="M277.4,393.9l-0.2-0.5"/>
		<path id="XMLID_147_" class="st1" d="M342,326.1v0.3l-0.1,0.2"/>
		<path id="XMLID_146_" class="st1" d="M339.5,326.6l-0.1-0.2v-0.3"/>
		<path id="XMLID_145_" class="st1" d="M278.6,449.1l-0.2-0.3l-0.1,0h-0.1l-0.1,0.1v0.3l0.1,0.4l0.2,0.2l0.1,0"/>
		<path id="XMLID_144_" class="st1" d="M317.1,338l-0.1,0h-0.3l-0.1,0l-0.2,0.1"/>
		<path id="XMLID_143_" class="st1" d="M412.2,406.2v-1.3"/>
		<path id="XMLID_142_" class="st1" d="M415.5,408.8l0.3,0.1"/>
		<path id="XMLID_141_" class="st1" d="M423.4,408.3l-1.6,0.7"/>
		<path id="XMLID_140_" class="st1" d="M425.2,405v0.8"/>
		<path id="XMLID_139_" class="st1" d="M352.4,446.2l-0.9-0.2l2,0.4L352.4,446.2"/>
		<path id="XMLID_138_" class="st1" d="M351.3,446l0.2,0.1"/>
		<path id="XMLID_137_" class="st1" d="M360.4,444.4l0.7-1.2"/>
		<path id="XMLID_136_" class="st1" d="M259.4,422.4l-0.3-0.7l0-0.2"/>
		<path id="XMLID_135_" class="st1" d="M264,393.3v1.4l0.6,1.1"/>
		<path id="XMLID_134_" class="st1" d="M264.6,395.8l-0.6-1"/>
		<path id="XMLID_133_" class="st1" d="M357,438.3h0.2l0.1-0.1l0-0.1l-0.2-0.2l-0.3-0.1"/>
		<path id="XMLID_132_" class="st1" d="M352,438.9l-0.2,0.1l-0.1,0.1l0,0.2l0.1,0.1h0.1l0.3,0"/>
		<path id="XMLID_131_" class="st1" d="M286.4,441.9l0.8,0.2l0.7-0.1l-0.7,0.1"/>
		<path id="XMLID_130_" class="st1" d="M282.3,428.9l0.8,0"/>
		<path id="XMLID_129_" class="st1" d="M421.4,400.8l-0.2-0.1h-0.3"/>
		<path id="XMLID_128_" class="st1" d="M421.4,400.9l0.1,0.1l0,0.1l-0.2,0.1h-0.1"/>
		<path id="XMLID_127_" class="st1" d="M416.7,400.9l0.1,0.1l0.1,0.1v0.2l-0.1,0.2l-0.3,0.2l-0.4,0.2"/>
		<path id="XMLID_126_" class="st1" d="M356.6,439.8l0.3,0l0.1-0.2v-0.1l-0.1-0.2"/>
		<path id="XMLID_125_" class="st1" d="M354.5,439.7l0,0.2l-0.1,0.1l-0.2,0.1l-0.3,0.1"/>
		<path id="XMLID_124_" class="st1" d="M418,403.1l0.3-0.1l0.2-0.1l0.1-0.2l0-0.2"/>
		<path id="XMLID_123_" class="st1" d="M268.1,390.4l-0.1,0.1l-0.2,0.2l0,0.2l0.2,0.1l0.2,0l0.3-0.1"/>
		<path id="XMLID_122_" class="st1" d="M272.6,390.7l-0.2-0.2l-0.1-0.2v-0.2l0.1-0.1l0.2-0.1l0.4,0"/>
		<path id="XMLID_121_" class="st1" d="M418.1,411.7v0.1l-0.2,0.2"/>
		<path id="XMLID_120_" class="st1" d="M353.9,448.8L353.9,448.8l-0.2,0.3"/>
		<path id="XMLID_119_" class="st1" d="M348,441.9l-0.3,0.6"/>
		<path id="XMLID_118_" class="st1" d="M411.9,405.4l0.3-0.5"/>
		<path id="XMLID_117_" class="st1" d="M412.2,404.9l-0.3,0.5"/>
		<path id="XMLID_116_" class="st1" d="M428.8,405.8l-0.4,0.1l-0.4,0l-0.2-0.1"/>
		<path id="XMLID_115_" class="st1" d="M351.8,446.1l0.2,0.1"/>
		<path id="XMLID_114_" class="st1" d="M416,409l0.3,0.1l1.7,0.3h1.6l1.4-0.3"/>
		<path id="XMLID_113_" class="st1" d="M421,409.2l0.5-0.1"/>
		<ellipse id="XMLID_112_" class="st1" cx="340.7" cy="325.4" rx="1" ry="0.6"/>
		<path id="XMLID_111_" class="st1" d="M425.2,406.2c-0.4,1.4-2,2.5-4.3,3"/>
		<path id="XMLID_110_" class="st1" d="M357.3,446.1c-1.2,0.3-2.5,0.4-3.8,0.3"/>
		<ellipse id="XMLID_109_" class="st1" cx="418.7" cy="403.1" rx="6.6" ry="3.8"/>
		<path id="XMLID_108_" class="st1" d="M299.5,445.9c-0.7,1-2.3,0.6-3.6-0.9c-0.1-0.2-0.3-0.3-0.4-0.5"/>
		<path id="XMLID_107_" class="st1" d="M295.5,444.5c-1.2-1.7-1.4-3.7-0.5-4.4c0.2-0.2,0.5-0.3,0.8-0.3"/>
		<path id="XMLID_106_" class="st1" d="M295.8,439.7c1.3,0,2.9,1.4,3.6,3.3"/>
		<ellipse id="XMLID_105_" class="st1" cx="354.5" cy="440.1" rx="6.6" ry="3.8"/>
		<path id="XMLID_104_" class="st1" d="M285.6,434.6c1.5,0.7,2.9,2.9,3.2,4.9c0.2,1.2-0.2,2.2-0.9,2.5"/>
		<path id="XMLID_103_" class="st1" d="M283,435.3c-1.3-1.6-2.1-4.1-1.6-5.5c0.4-1.2,1.5-1.3,2.7-0.3"/>
		<ellipse id="XMLID_102_" class="st1" cx="270.6" cy="391.7" rx="6.6" ry="3.8"/>
		<path id="XMLID_101_" class="st1" d="M393,398.2c1.5,17.8-20.3,32-48.9,31.8c-0.9,0-1.8,0-2.7-0.1"/>
		<path id="XMLID_100_" class="st1" d="M341.4,430c-29.1-1.1-52.9-14.6-53.2-30.2c0-1.2,0.1-2.3,0.3-3.5"/>
		<path id="XMLID_99_" class="st1" d="M357.3,446.1c-1.6,0.5-3.6,0.6-5.3,0.1"/>
		<path id="XMLID_98_" class="st1" d="M341.7,447.1c-34.5-9.4-62.2-25.4-78.5-45.3"/>
	</g>
	<g id="XMLID_81_">
		<path id="XMLID_96_" class="st1" d="M362.2,230.4c-1.2-0.4-1.2-0.4-2.4-0.9c-1.2-0.9-1.2-0.9-2.4-1.8c-1.1-1.2-1.1-1.3-2.1-2.5
			c-0.9-1.5-0.9-1.5-1.7-3c-0.6-1.5-0.6-1.5-1.1-3.1c-0.2-1.5-0.2-1.5-0.4-3c0.1-1.3,0.1-1.3,0.4-2.5"/>
		<path id="XMLID_95_" class="st1" d="M306.3,203.5l76.6,44.2"/>
		<path id="XMLID_94_" class="st1" d="M310.2,203.6l9.2,5.3"/>
		<path id="XMLID_93_" class="st1" d="M310.2,203.5l9.3,5.4"/>
		<path id="XMLID_92_" class="st1" d="M353.5,211.8L353.5,211.8"/>
		<path id="XMLID_91_" class="st1" d="M364.3,230.4L364.3,230.4"/>
		<path id="XMLID_90_" class="st1" d="M392.7,247.8L392.7,247.8l1.4-2.3"/>
		<path id="XMLID_89_" class="st1" d="M365.5,229.8l-1.2,0.6l-2.1,0"/>
		<path id="XMLID_88_" class="st1" d="M352.4,213.6l1.1-1.8"/>
		
			<ellipse id="XMLID_87_" transform="matrix(-0.8661 0.5 -0.5 -0.8661 831.8769 245.201)" class="st1" cx="383.1" cy="234" rx="4.3" ry="7.4"/>
		<path id="XMLID_86_" class="st1" d="M386.1,240.7c-2.4,0.5-5.6-2-7.3-5.7c-1.3-2.9-1.2-5.7,0.1-7"/>
		
			<ellipse id="XMLID_85_" transform="matrix(-0.8661 0.5 -0.5 -0.8661 781.6303 231.7395)" class="st1" cx="359.8" cy="220.6" rx="6.3" ry="10.9"/>
		<path id="XMLID_84_" class="st1" d="M394.1,245.7c-1.8,4.1-6.2,5-11.1,2.2"/>
		<path id="XMLID_83_" class="st1" d="M329.5,204c-0.4,5.8-4.8,7.9-10,4.9"/>
		<path id="XMLID_82_" class="st1" d="M326.3,209.8c-1.9,0.9-4.3,0.6-6.8-0.9"/>
	</g>
	<g id="XMLID_76_">
		<path id="XMLID_80_" class="st1" d="M356,211.5l0.3-0.8"/>
		<path id="XMLID_79_" class="st1" d="M365.7,228.4l0.9,0.1"/>
		<path id="XMLID_78_" class="st1" d="M356,210.7l-0.5,1.1l0,0"/>
		<path id="XMLID_77_" class="st1" d="M365.3,228.7L365.3,228.7l1.2,0.1"/>
	</g>
	<g id="XMLID_70_">
		<path id="XMLID_75_" class="st1" d="M314.6,203.8l7.4,4.3"/>
		<path id="XMLID_74_" class="st1" d="M354.4,211.2l-0.1,0.4l-0.4,1.6"/>
		<path id="XMLID_73_" class="st1" d="M365.2,229.9l-0.4-0.1l-1.6-0.5"/>
		<path id="XMLID_72_" class="st1" d="M387,240.3c-3.3-0.9-6.5-5.1-7.3-9.4c-0.2-1.2-0.2-2.4,0-3.4"/>
		<path id="XMLID_71_" class="st1" d="M326.8,209.4c-1.5,0-3.2-0.4-4.9-1.4"/>
	</g>
	<g id="XMLID_40_">
		<path id="XMLID_69_" class="st1" d="M364.2,228.9c0.4-0.2,0.4-0.2,0.8-0.3c0.3-0.3,0.3-0.3,0.7-0.6c0.1-0.1,0.1-0.1,0.3-0.3"/>
		<path id="XMLID_68_" class="st1" d="M356.9,216.3L356.9,216.3"/>
		<path id="XMLID_67_" class="st1" d="M356.1,211.4l1.2-0.7"/>
		<path id="XMLID_66_" class="st1" d="M360.7,223.3l-0.2-0.2l-1.1-1.3l-0.9-1.5h0l-0.6-1.6l0-0.2"/>
		<path id="XMLID_65_" class="st1" d="M362.1,225.2L362.1,225.2"/>
		<path id="XMLID_64_" class="st1" d="M363.8,229l0.2,0.3l-0.1,0L363.8,229L363.8,229L363.8,229l0.7-0.2"/>
		<path id="XMLID_63_" class="st1" d="M365.7,228l-1.5,0.9"/>
		<path id="XMLID_62_" class="st1" d="M364.4,229.2L364.4,229.2L364.4,229.2"/>
		<path id="XMLID_61_" class="st1" d="M364.4,227.6L364.4,227.6"/>
		<path id="XMLID_60_" class="st1" d="M366.2,228L366.2,228l-0.2-0.3v-0.1v0"/>
		<path id="XMLID_59_" class="st1" d="M367,227.7l-1.1,0.7"/>
		<path id="XMLID_58_" class="st1" d="M366.1,228l-0.2,0.3l-1.5,0.9l-0.4,0.1"/>
		<path id="XMLID_57_" class="st1" d="M365.4,228.2l0.5-0.5"/>
		<path id="XMLID_56_" class="st1" d="M363.8,229l0.4-0.1"/>
		<path id="XMLID_55_" class="st1" d="M365.7,228l0.3-0.3"/>
		<path id="XMLID_54_" class="st1" d="M356.3,210.7l-0.3,0.8"/>
		<path id="XMLID_53_" class="st1" d="M365.8,228.4l0.8,0.1"/>
		<path id="XMLID_52_" class="st1" d="M356.8,211l0.1-0.4"/>
		<path id="XMLID_51_" class="st1" d="M366.6,227.9l0.4,0.1"/>
		<path id="XMLID_50_" class="st1" d="M364.2,229.3c-3.2,0.7-7.5-2.7-9.7-7.7c-2.2-4.9-1.4-9.5,1.8-10.2c3.2-0.7,7.5,2.7,9.7,7.7
			c1.6,3.6,1.7,7.1,0.2,9"/>
		<path id="XMLID_49_" class="st1" d="M363.8,229c-3.2,0.4-7.3-3.1-9.3-7.9c-2-4.8-1-9,2.2-9.5c3.2-0.4,7.3,3.1,9.3,7.9
			c1.3,3.3,1.3,6.5,0,8.2"/>
		<path id="XMLID_48_" class="st1" d="M366.8,222.2c0.6,4.1-1.6,6.4-4.9,5.2c-3.3-1.2-6.4-5.5-6.9-9.6c-0.6-4.1,1.6-6.4,4.9-5.2
			c0.7,0.3,1.4,0.6,2,1.2"/>
		<path id="XMLID_47_" class="st1" d="M357.9,218.4c-0.7-3.1,0.5-5.2,2.8-4.7c0.8,0.2,1.7,0.6,2.5,1.4"/>
		<path id="XMLID_46_" class="st1" d="M366.2,220.3c0.6,3-0.7,5-3,4.4c-0.8-0.2-1.7-0.7-2.5-1.5"/>
		<path id="XMLID_45_" class="st1" d="M366.7,224.7c-1.4,2.1-4.5,1.4-7.1-1.7c-2.5-3-3.5-7.2-2.1-9.4c0.5-0.7,1.2-1.2,2.1-1.2"/>
		<path id="XMLID_44_" class="st1" d="M356.9,216.3c0-2.2,1-3.7,2.7-3.8"/>
		<path id="XMLID_43_" class="st1" d="M362.1,225.2c-2.9-1.7-5.2-5.7-5.2-9"/>
		<path id="XMLID_42_" class="st1" d="M366.7,224.7c-0.9,1.4-2.7,1.6-4.6,0.5"/>
		<path id="XMLID_41_" class="st1" d="M365.8,226.7c-2.6,0.8-6.3-1.8-8.3-6c-1.7-3.4-1.7-6.9,0-8.4"/>
	</g>
	<g id="XMLID_9_">
		<path id="XMLID_39_" class="st1" d="M321.5,208.3l-7.9-4.6"/>
		<path id="XMLID_38_" class="st1" d="M314.7,203.9l7.2,4.2"/>
		<path id="XMLID_17_" class="st1" d="M353.9,213.2l0.3-1.6"/>
		<path id="XMLID_14_" class="st1" d="M364.8,229.9l-1.5-0.6"/>
		<path id="XMLID_13_" class="st1" d="M326.4,209.7c-1.5,0-3.2-0.5-5-1.5"/>
		<path id="XMLID_12_" class="st1" d="M326.8,209.5c-1.5,0-3.2-0.4-4.9-1.4"/>
		<path id="XMLID_11_" class="st1" d="M386.9,240.3c-3.2-0.9-6.5-5.1-7.4-9.3c-0.2-1.3-0.2-2.4,0-3.4"/>
	</g>
</g>
<g id="XMLID_10_">
	<g id="XMLID_5_">
		<path id="XMLID_22_" d="M813.4,3c14,0,25.5,11.4,25.5,25.5v538.3c0,14-11.4,25.5-25.5,25.5H28.5c-14,0-25.5-11.4-25.5-25.5V28.5
			C3,14.4,14.4,3,28.5,3H813.4 M813.4,0H28.5C12.8,0,0,12.8,0,28.5v538.3c0,15.7,12.8,28.5,28.5,28.5h784.9
			c15.7,0,28.5-12.8,28.5-28.5V28.5C841.9,12.8,829.1,0,813.4,0L813.4,0z"/>
	</g>
	<g id="XMLID_3_">
		<path id="XMLID_35_" d="M1.5,83.5V28.5c0-14.9,12.1-27,27-27h55.1v55.1c0,14.9-12.1,27-27,27H1.5z"/>
		<g id="XMLID_31_">
			<path id="XMLID_32_" d="M82,3v53.6C82,70.6,70.6,82,56.6,82H3V28.5C3,14.4,14.4,3,28.5,3H82 M85,0H28.5C12.8,0,0,12.8,0,28.5V85
				h56.6C72.2,85,85,72.2,85,56.6V0L85,0z"/>
		</g>
	</g>
	<g id="XMLID_6_">
		<path id="XMLID_7_" class="st2" d="M32.2,50.7c1-2.3,3.2-4.7,6.8-7.2c3.1-2.2,5.1-3.8,6-4.7c1.4-1.5,2.1-3.1,2.1-4.9
			c0-1.4-0.4-2.6-1.2-3.6s-1.9-1.4-3.4-1.4c-2,0-3.4,0.8-4.1,2.3c-0.4,0.9-0.7,2.3-0.8,4.2H31c0.1-2.9,0.6-5.2,1.6-7
			c1.8-3.4,5-5.1,9.5-5.1c3.6,0,6.5,1,8.6,3c2.1,2,3.2,4.6,3.2,7.9c0,2.5-0.8,4.8-2.3,6.7c-1,1.3-2.6,2.7-4.9,4.3l-2.7,1.9
			c-1.7,1.2-2.8,2-3.4,2.6s-1.1,1.1-1.6,1.9h14.8v5.9H30.7C30.7,55,31.3,52.7,32.2,50.7z"/>
	</g>
</g>
</svg>
