<?xml version="1.0" encoding="utf-8"?>
<!-- Generator: Adobe Illustrator 19.0.0, SVG Export Plug-In . SVG Version: 6.00 Build 0)  -->
<svg version="1.0" id="Layer_1" xmlns="http://www.w3.org/2000/svg" xmlns:xlink="http://www.w3.org/1999/xlink" x="0px" y="0px"
	 width="17.9px" height="15.1px" viewBox="0 0 17.9 15.1" enable-background="new 0 0 17.9 15.1" xml:space="preserve">
<g>
	<path fill="none" stroke="#000000" stroke-width="0.5" stroke-linecap="round" stroke-linejoin="round" stroke-miterlimit="10" d="
		M6.65,0.35l-0.4,0.1l-0.4,0.1l-0.6,0.2l-0.6,0.3l-0.6,0.2l-0.6,0.4 M10.95,0.45h-0.3l-0.7-0.1l-0.6-0.1h-0.7h-0.7h-0.6l-0.7,0.1
		 M16.45,3.65v-0.2l-0.2-0.4l-0.2-0.3l-0.2-0.3l-0.2-0.3l-0.1-0.2l-0.2-0.3 M15.35,1.65l-0.7-0.2l-0.7-0.3l-0.7-0.2l-0.8-0.2
		l-0.7-0.2l-0.8-0.1 M10.75,7.05l-0.2-0.1h-0.2l-0.2-0.1h-0.3l-0.2-0.1h-0.3h-0.2h-0.2h-0.3h-0.2l-0.3,0.1h-0.2h-0.3l-0.2,0.1
		l-0.2,0.1h-0.1 M3.45,1.65l-0.4,0.2l-0.5,0.3l-0.5,0.4l-0.6,0.5l-0.6,0.5l-0.6,0.5 M11.85,6.45h-0.1l-0.2-0.1l-0.2-0.1l-0.2-0.1
		l-0.2-0.1l-0.2-0.1l-0.2-0.1h-0.2l-0.2-0.1h-0.3h-0.2l-0.3-0.1h-0.2h-0.2h-0.3h-0.2l-0.3,0.1h-0.2l-0.3,0.1h-0.2l-0.2,0.1l-0.2,0.1
		h-0.2l-0.2,0.1l-0.2,0.1 M6.45,6.25l-0.2,0.1l-0.1,0.1 M11.15,6.85h-0.2l-0.2-0.1h-0.2l-0.2-0.1l-0.2-0.1h-0.3h-0.2l-0.3-0.1h-0.2
		h-0.2h-0.3l-0.2,0.1h-0.3h-0.2l-0.3,0.1h-0.2l-0.2,0.1l-0.2,0.1h-0.2 M12.35,5.95l-0.1-0.1l-0.1-0.1l-0.1-0.2l-0.2-0.1l-0.1-0.1
		l-0.2-0.1l-0.2-0.1l-0.2-0.1l-0.2-0.1l-0.2-0.1h-0.2l-0.2-0.1l-0.2-0.1h-0.3h-0.2l-0.3-0.1h-0.2h-0.2h-0.3l-0.2,0.1h-0.3h-0.2
		l-0.3,0.1h-0.2l-0.2,0.1l-0.2,0.1h-0.2l-0.2,0.1l-0.2,0.1 M6.45,5.15l-0.2,0.1l-0.1,0.1l-0.2,0.2l-0.1,0.1l-0.1,0.1l-0.1,0.1v0.1
		 M11.95,6.35l-0.1-0.1l-0.1-0.1l-0.2-0.1l-0.2-0.1l-0.2-0.1l-0.2-0.1l-0.2-0.1h-0.2l-0.2-0.1h-0.2l-0.3-0.1h-0.2h-0.3l-0.2-0.1
		h-0.2l-0.3,0.1h-0.2h-0.3h-0.2l-0.3,0.1h-0.2l-0.2,0.1l-0.2,0.1l-0.2,0.1h-0.2l-0.2,0.1 M6.45,5.95l-0.2,0.1l-0.1,0.2l-0.2,0.1
		 M12.55,5.45l-0.1-0.2v-0.1l-0.1-0.1v-0.2l-0.1-0.1l-0.1-0.1l-0.1-0.2l-0.2-0.1l-0.1-0.1l-0.2-0.1l-0.2-0.1l-0.2-0.1l-0.2-0.1
		l-0.2-0.1h-0.2l-0.2-0.1h-0.2l-0.3-0.1h-0.2h-0.3l-0.2-0.1h-0.2l-0.3,0.1h-0.2h-0.3h-0.2l-0.3,0.1h-0.2l-0.2,0.1l-0.2,0.1l-0.2,0.1
		h-0.2l-0.2,0.1 M6.45,4.05l-0.2,0.1l-0.1,0.2l-0.2,0.1l-0.1,0.1l-0.1,0.1l-0.1,0.2l-0.1,0.1v0.1l-0.1,0.2v0.1v0.1 M12.35,5.85v-0.2
		l-0.1-0.1l-0.1-0.1l-0.1-0.2l-0.2-0.1l-0.1-0.1l-0.2-0.1l-0.2-0.1l-0.2-0.1l-0.2-0.1l-0.2-0.1h-0.2l-0.2-0.1h-0.2l-0.3-0.1h-0.2
		h-0.3h-0.2h-0.2h-0.3h-0.2h-0.3h-0.2l-0.3,0.1h-0.2l-0.2,0.1l-0.2,0.1l-0.2,0.1l-0.2,0.1l-0.2,0.1 M6.45,4.95l-0.2,0.1l-0.1,0.1
		l-0.2,0.1l-0.1,0.1l-0.1,0.1l-0.1,0.2l-0.1,0.1v0.1 M17.65,6.75l-0.3-0.9l-0.1-0.4l-0.2-0.4l-0.1-0.4l-0.2-0.3l-0.1-0.4l-0.2-0.3
		 M7.15,7.05l-0.2-0.1l-0.2-0.1l-0.2-0.1l-0.2-0.1l-0.1-0.1l-0.2-0.1l-0.1-0.1l-0.1-0.2l-0.1-0.1l-0.1-0.1l-0.1-0.2l-0.1-0.1v-0.1
		v-0.2v-0.1v-0.2v-0.1l0.1-0.1v-0.2l0.1-0.1l0.1-0.2l0.1-0.1l0.1-0.1l0.2-0.1l0.1-0.1l0.2-0.1 M6.45,3.85l0.2-0.1l0.2-0.1l0.2-0.1
		l0.2-0.1h0.2l0.2-0.1h0.3l0.2-0.1h0.3h0.2h0.3h0.2h0.2h0.3h0.2l0.3,0.1h0.2l0.2,0.1l0.2,0.1h0.2l0.2,0.1l0.2,0.1l0.2,0.1l0.2,0.1
		l0.1,0.1l0.2,0.2l0.1,0.1l0.1,0.1l0.1,0.1v0.2l0.1,0.1v0.2l0.1,0.1v0.1l-0.1,0.2v0.1v0.2l-0.1,0.1l-0.1,0.1l-0.1,0.2l-0.1,0.1
		l-0.1,0.1l-0.2,0.1l-0.1,0.2l-0.2,0.1l-0.2,0.1h-0.2l-0.2,0.1l-0.1,0.1 M4.75,4.85v-0.1v-0.2v-0.1l0.1-0.2l0.1-0.1l0.1-0.2l0.1-0.1
		l0.1-0.2l0.1-0.1l0.2-0.1l0.1-0.2l0.2-0.1l0.2-0.1l0.2-0.1l0.2-0.1l0.2-0.1h0.3l0.2-0.1l0.3-0.1h0.2l0.3-0.1h0.2h0.3h0.3h0.3h0.2
		h0.3h0.3h0.2l0.3,0.1h0.2l0.3,0.1l0.2,0.1l0.2,0.1h0.3l0.2,0.1l0.2,0.1l0.2,0.2l0.1,0.1l0.2,0.1l0.1,0.1l0.2,0.2l0.1,0.1l0.1,0.2
		l0.1,0.1l0.1,0.1v0.2v0.2l0.1,0.1v0.1 M0.25,4.05v4.4 M0.25,8.45l0.2,0.6l0.2,0.5l0.2,0.5l0.2,0.5l0.2,0.5l0.2,0.5 M1.45,11.55
		l0.1,0.1l0.2,0.4l0.1,0.3l0.2,0.3l0.2,0.3l0.2,0.3l0.2,0.2 M0.25,4.05l0.2,0.2l0.2,0.3l0.2,0.3l0.2,0.3l0.2,0.4l0.2,0.4
		 M17.65,11.15l-0.4,0.3l-0.4,0.4l-0.6,0.5l-0.6,0.4l-0.6,0.4l-0.6,0.4 M17.65,6.75v4.4 M17.65,6.75l-0.4,0.1l-0.4,0.1l-0.6,0.2
		l-0.6,0.2l-0.6,0.3l-0.6,0.3 M14.45,13.55l-0.4,0.2l-0.4,0.2l-0.6,0.3l-0.6,0.2l-0.6,0.2l-0.6,0.2 M1.45,5.95l0.1,0.2l0.2,0.4
		l0.1,0.5l0.2,0.4l0.2,0.5l0.2,0.6l0.2,0.5 M14.45,7.95l-0.4,0.3l-0.4,0.3l-0.6,0.4l-0.6,0.4l-0.6,0.5l-0.6,0.5 M11.95,6.55l0.2-0.1
		l0.2-0.1l0.1-0.2l0.2-0.1l0.1-0.1l0.1-0.2l0.1-0.1l0.1-0.2l0.1-0.1v-0.2l0.1-0.1v-0.2v-0.1l-0.1-0.2v-0.2v-0.1l-0.1-0.2l-0.1-0.1
		l-0.1-0.2l-0.1-0.1l-0.2-0.1l-0.1-0.2l-0.2-0.1l-0.1-0.1l-0.2-0.1l-0.2-0.1l-0.2-0.1l-0.3-0.1l-0.2-0.1l-0.2-0.1h-0.3l-0.2-0.1
		h-0.3l-0.2-0.1h-0.3h-0.3h-0.2h-0.3h-0.3h-0.3l-0.2,0.1h-0.3l-0.2,0.1h-0.3l-0.2,0.1l-0.3,0.1l-0.2,0.1l-0.2,0.1l-0.2,0.1l-0.2,0.1
		l-0.2,0.1l-0.1,0.1l-0.2,0.1l-0.1,0.2l-0.1,0.1l-0.1,0.2l-0.1,0.1l-0.1,0.2l-0.1,0.1v0.2v0.1v0.2v0.1v0.2v0.1l0.1,0.2l0.1,0.1
		l0.1,0.2l0.1,0.1l0.1,0.2l0.2,0.1l0.1,0.1l0.2,0.1l0.2,0.2l0.2,0.1l0.2,0.1l0.2,0.1h0.2l0.2,0.1l0.3,0.1h0.2l0.3,0.1h0.2l0.3,0.1
		h0.3h0.2h0.3h0.3h0.3l0.2-0.1h0.3h0.2l0.3-0.1l0.2-0.1h0.3l0.2-0.1l0.2-0.1l0.2-0.1L11.95,6.55 M14.45,7.95l-0.2,0.2l-0.3,0.1
		l-0.3,0.2l-0.3,0.1l-0.3,0.1l-0.3,0.1l-0.4,0.1l-0.3,0.1l-0.4,0.1h-0.3l-0.4,0.1h-0.3l-0.4,0.1h-0.4h-0.3h-0.4h-0.4h-0.3h-0.4h-0.4
		l-0.3-0.1h-0.4 M14.45,7.95l0.3-0.1l0.2-0.2l0.3-0.2l0.2-0.1l0.2-0.2l0.2-0.2l0.1-0.2l0.2-0.2l0.1-0.2l0.1-0.2l0.1-0.2l0.1-0.2
		l0.1-0.2l0.1-0.2v-0.2v-0.2v-0.3v-0.2v-0.2l-0.1-0.2l-0.1-0.2l-0.1-0.2 M16.45,3.65l-0.1-0.2l-0.1-0.2l-0.1-0.2l-0.2-0.2l-0.1-0.2
		l-0.2-0.2l-0.2-0.2l-0.2-0.1l-0.3-0.2l-0.2-0.2l-0.3-0.1l-0.2-0.2l-0.3-0.1l-0.3-0.2l-0.3-0.1l-0.3-0.1l-0.3-0.1l-0.4-0.1l-0.3-0.1
		l-0.4-0.1h-0.3l-0.4-0.1 M10.95,0.45h-0.3l-0.4-0.1h-0.4h-0.3h-0.4h-0.4h-0.3h-0.4h-0.4l-0.3,0.1h-0.4l-0.4,0.1h-0.3l-0.4,0.1
		l-0.3,0.1l-0.3,0.1l-0.3,0.1l-0.4,0.1l-0.3,0.1l-0.2,0.2l-0.3,0.1l-0.3,0.2 M3.45,1.65l-0.3,0.1l-0.2,0.2l-0.2,0.2l-0.2,0.1
		l-0.2,0.2l-0.2,0.2l-0.2,0.2l-0.1,0.2l-0.2,0.2l-0.1,0.2l-0.1,0.2l-0.1,0.2l-0.1,0.2v0.2l-0.1,0.2v0.2v0.3v0.2l0.1,0.2v0.2l0.1,0.2
		l0.1,0.2 M1.45,5.95l0.1,0.2l0.1,0.2l0.2,0.2l0.1,0.2l0.2,0.2l0.2,0.2l0.2,0.2l0.2,0.1l0.2,0.2l0.2,0.2l0.3,0.1l0.3,0.2l0.3,0.1
		l0.2,0.2l0.3,0.1l0.4,0.1l0.3,0.1l0.3,0.1l0.3,0.1l0.4,0.1h0.3l0.4,0.1 M2.65,9.05v4.4 M2.65,13.45l0.7,0.3l0.7,0.2l0.7,0.3
		l0.7,0.2l0.8,0.1l0.7,0.2 M6.95,14.75h0.3l0.7,0.1h0.7h0.6h0.7h0.7h0.6 M11.25,10.35v4.5 M6.95,9.15h0.3l0.7,0.2l0.7,0.1l0.6,0.2
		l0.7,0.2l0.7,0.3l0.6,0.2 M2.65,9.05l0.7-0.1h0.7h0.7h0.7l0.8,0.1l0.7,0.1"/>
</g>
</svg>
