<?xml version="1.0" encoding="utf-8"?>
<!-- Generator: Adobe Illustrator 19.0.0, SVG Export Plug-In . SVG Version: 6.00 Build 0)  -->
<svg version="1.0" id="Layer_1" xmlns="http://www.w3.org/2000/svg" xmlns:xlink="http://www.w3.org/1999/xlink" x="0px" y="0px"
	 width="22.6px" height="19.4px" viewBox="0 0 22.6 19.4" enable-background="new 0 0 22.6 19.4" xml:space="preserve">
<g>
	<path fill="none" stroke="#000000" stroke-width="0.5" stroke-linecap="round" stroke-linejoin="round" stroke-miterlimit="10" d="
		M8.35,0.35l-0.5,0.1l-0.5,0.2l-0.8,0.2l-0.7,0.3l-0.8,0.4l-0.8,0.4 M13.85,0.45h-0.4l-0.8-0.1l-0.9-0.1h-0.8h-0.9h-0.9l-0.8,0.1
		 M20.85,4.55l-0.1-0.2l-0.2-0.5l-0.2-0.4l-0.3-0.4l-0.2-0.4l-0.2-0.3l-0.2-0.3 M19.45,2.05l-0.9-0.3l-0.9-0.3l-1-0.3l-0.9-0.3
		l-0.9-0.2l-1-0.2 M13.65,8.95h-0.1h-0.2l-0.3-0.1l-0.3-0.1h-0.3l-0.4-0.1h-0.3h-0.3h-0.3h-0.3h-0.3l-0.4,0.1h-0.3l-0.3,0.1
		l-0.3,0.1h-0.2h-0.1 M4.25,1.95l-0.5,0.4l-0.6,0.3l-0.7,0.5l-0.7,0.6l-0.8,0.6l-0.7,0.7 M15.05,8.25L15.05,8.25l-0.2-0.1l-0.2-0.2
		l-0.3-0.1l-0.2-0.1l-0.3-0.1l-0.3-0.1l-0.2-0.1l-0.3-0.1h-0.3l-0.3-0.1h-0.4l-0.3-0.1h-0.3h-0.3h-0.3l-0.3,0.1h-0.4l-0.3,0.1h-0.3
		l-0.3,0.1l-0.2,0.1l-0.3,0.1l-0.3,0.1l-0.2,0.1l-0.3,0.1 M7.95,7.95l-0.2,0.2l-0.2,0.1 M14.05,8.85l-0.2-0.1l-0.3-0.1l-0.2-0.1
		h-0.3l-0.3-0.1l-0.3-0.1h-0.4h-0.3h-0.3h-0.3h-0.3h-0.3h-0.4l-0.3,0.1l-0.3,0.1h-0.3l-0.2,0.1l-0.3,0.1l-0.2,0.1 M15.75,7.55
		l-0.1-0.1l-0.1-0.2l-0.2-0.1l-0.1-0.2l-0.2-0.2l-0.2-0.1l-0.2-0.1l-0.3-0.2l-0.2-0.1l-0.3-0.1l-0.3-0.1l-0.2-0.1h-0.3l-0.3-0.1
		h-0.3l-0.4-0.1h-0.3h-0.3h-0.3h-0.3h-0.3l-0.4,0.1h-0.3l-0.3,0.1h-0.3l-0.2,0.1l-0.3,0.1l-0.3,0.1l-0.2,0.1l-0.3,0.2 M7.95,6.55
		l-0.2,0.1l-0.2,0.1l-0.2,0.2l-0.1,0.2l-0.2,0.1l-0.1,0.2l-0.1,0.1 M15.25,8.15v-0.1l-0.2-0.1l-0.2-0.2l-0.2-0.1l-0.3-0.1l-0.2-0.1
		l-0.3-0.1l-0.3-0.1l-0.2-0.1l-0.3-0.1l-0.3-0.1h-0.3h-0.4l-0.3-0.1h-0.3h-0.3h-0.3l-0.3,0.1h-0.4h-0.3l-0.3,0.1l-0.3,0.1l-0.2,0.1
		l-0.3,0.1l-0.3,0.1l-0.2,0.1l-0.3,0.1 M7.95,7.65l-0.2,0.1l-0.2,0.2l-0.2,0.1v0.1 M15.95,6.85v-0.2v-0.1l-0.1-0.2l-0.1-0.2
		l-0.1-0.2l-0.1-0.1l-0.2-0.2l-0.1-0.2l-0.2-0.1l-0.2-0.2l-0.2-0.1l-0.3-0.1l-0.2-0.1l-0.3-0.1l-0.3-0.1l-0.2-0.1l-0.3-0.1l-0.3-0.1
		h-0.3h-0.4l-0.3-0.1h-0.3h-0.3h-0.3l-0.3,0.1h-0.4h-0.3l-0.3,0.1l-0.3,0.1l-0.2,0.1l-0.3,0.1l-0.3,0.1l-0.2,0.1l-0.3,0.1
		 M7.95,5.05l-0.2,0.1l-0.2,0.2l-0.2,0.1l-0.1,0.2l-0.2,0.2l-0.1,0.1l-0.1,0.2l-0.1,0.2l-0.1,0.2v0.1v0.2 M15.85,7.35l-0.1-0.1
		l-0.1-0.1l-0.1-0.2l-0.2-0.2l-0.1-0.1l-0.2-0.2l-0.2-0.1l-0.2-0.2l-0.3-0.1l-0.2-0.1l-0.3-0.1l-0.3-0.1l-0.2-0.1l-0.3-0.1h-0.3
		l-0.3-0.1h-0.4h-0.3h-0.3h-0.3h-0.3h-0.3h-0.4l-0.3,0.1h-0.3l-0.3,0.1l-0.2,0.1l-0.3,0.1l-0.3,0.1l-0.2,0.1l-0.3,0.1 M7.95,6.15
		l-0.2,0.2l-0.2,0.1l-0.2,0.2l-0.1,0.1l-0.2,0.2l-0.1,0.2l-0.1,0.1l-0.1,0.1 M22.35,8.45l-0.2-0.7l-0.3-0.7l-0.2-0.7l-0.3-0.6
		l-0.2-0.6l-0.3-0.6 M9.25,9.05l-0.2-0.1h-0.3l-0.3-0.2l-0.2-0.1l-0.3-0.1l-0.2-0.1l-0.2-0.2l-0.2-0.1l-0.1-0.2l-0.2-0.1l-0.1-0.2
		l-0.1-0.2l-0.1-0.2l-0.1-0.1v-0.2v-0.2v-0.2v-0.2v-0.2l0.1-0.1l0.1-0.2l0.1-0.2l0.1-0.2l0.2-0.1l0.1-0.2l0.2-0.1l0.2-0.2l0.2-0.1
		 M7.95,4.75l0.3-0.1l0.2-0.2l0.3-0.1l0.3-0.1h0.2l0.3-0.1l0.3-0.1h0.3l0.4-0.1h0.3h0.3h0.3h0.3h0.3l0.4,0.1h0.3l0.3,0.1l0.3,0.1
		h0.2l0.3,0.1l0.3,0.1l0.2,0.2l0.3,0.1l0.2,0.1l0.2,0.2l0.2,0.1l0.1,0.2l0.2,0.1l0.1,0.2l0.1,0.2l0.1,0.2l0.1,0.1v0.2v0.2v0.2v0.2
		v0.2l-0.1,0.1l-0.1,0.2l-0.1,0.2l-0.1,0.2l-0.2,0.1l-0.1,0.2l-0.2,0.1l-0.2,0.2l-0.2,0.1l-0.3,0.1l-0.2,0.1l-0.3,0.2h-0.3l-0.2,0.1
		 M5.65,6.05v-0.2v-0.2l0.1-0.2l0.1-0.2l0.1-0.2l0.1-0.2l0.1-0.2l0.2-0.2l0.2-0.1l0.2-0.2l0.2-0.2l0.2-0.1l0.3-0.2l0.2-0.1l0.3-0.1
		l0.3-0.1l0.3-0.1l0.3-0.1l0.3-0.1l0.4-0.1h0.3l0.4-0.1h0.3h0.4h0.3h0.4h0.3h0.4l0.3,0.1h0.3l0.4,0.1l0.3,0.1h0.3l0.3,0.1l0.3,0.2
		l0.3,0.1l0.3,0.1l0.2,0.2l0.3,0.1l0.2,0.2l0.2,0.1l0.2,0.2l0.1,0.2l0.2,0.2l0.1,0.2l0.1,0.1l0.1,0.2l0.1,0.2v0.2v0.3 M0.25,5.05
		v5.9 M0.25,10.95l0.3,1.1l0.2,0.5l0.2,0.5l0.2,0.5l0.2,0.5l0.2,0.4l0.2,0.5 M1.75,14.95l0.1,0.2l0.1,0.3l0.2,0.4l0.2,0.3l0.2,0.3
		l0.1,0.2l0.2,0.3l0.4,0.4 M0.25,5.05l0.2,0.3l0.3,0.3l0.2,0.4l0.3,0.5l0.2,0.4l0.3,0.6 M22.35,14.45l-0.5,0.4l-0.5,0.5l-0.7,0.6
		l-0.8,0.5l-0.8,0.6l-0.7,0.4 M22.35,8.45v6 M22.35,8.45l-0.5,0.1l-0.5,0.2l-0.7,0.2l-0.8,0.3l-0.8,0.4l-0.7,0.4 M18.35,17.45
		l-0.6,0.3l-0.5,0.3l-0.8,0.3l-0.7,0.3l-0.8,0.2l-0.7,0.2 M1.75,7.55l0.1,0.2l0.1,0.4l0.2,0.4l0.2,0.4l0.2,0.5l0.1,0.5l0.2,0.5
		l0.4,1 M18.35,10.05l-0.6,0.4l-0.5,0.3l-0.8,0.5l-0.7,0.6l-0.8,0.6l-0.7,0.7 M7.25,3.75l0.3-0.2l0.3-0.1l0.3-0.1l0.3-0.1l0.3-0.1
		l0.3-0.1l0.3-0.1l0.3-0.1h0.4l0.3-0.1h0.4h0.3h0.4h0.3h0.4l0.3,0.1h0.4l0.3,0.1l0.3,0.1h0.4l0.3,0.1l0.3,0.1l0.3,0.2l0.2,0.1
		l0.3,0.1l0.2,0.2l0.3,0.1l0.2,0.2l0.2,0.2l0.2,0.1l0.1,0.2l0.1,0.2l0.2,0.2l0.1,0.2v0.2l0.1,0.2v0.2v0.2v0.2v0.2l-0.1,0.2l-0.1,0.2
		l-0.1,0.2l-0.1,0.2l-0.1,0.2l-0.2,0.2l-0.2,0.1l-0.2,0.2l-0.2,0.2l-0.2,0.1l-0.3,0.2l-0.2,0.1l-0.3,0.1l-0.3,0.1l-0.3,0.1l-0.3,0.1
		l-0.3,0.1l-0.4,0.1h-0.3l-0.4,0.1h-0.3h-0.4h-0.3h-0.4h-0.3h-0.4l-0.3-0.1h-0.3l-0.4-0.1l-0.3-0.1h-0.3l-0.3-0.1l-0.3-0.2l-0.3-0.1
		l-0.3-0.1l-0.2-0.2l-0.3-0.1l-0.2-0.2l-0.2-0.1l-0.2-0.2l-0.1-0.2l-0.2-0.2l-0.1-0.2l-0.1-0.1l-0.1-0.2l-0.1-0.2v-0.3v-0.2v-0.2
		v-0.2l0.1-0.2v-0.2l0.1-0.2l0.1-0.2l0.2-0.1l0.1-0.2l0.2-0.2l0.2-0.2l0.2-0.1l0.2-0.2L7.25,3.75 M4.25,1.95l0.4-0.2l0.3-0.1
		l0.4-0.2l0.4-0.2l0.4-0.1l0.4-0.2l0.4-0.1l0.4-0.1l0.5-0.1l0.4-0.1l0.5-0.1h0.4l0.5-0.1h0.5h0.4l0.5-0.1h0.5l0.5,0.1h0.4h0.5
		l0.5,0.1h0.4 M1.75,7.55l-0.1-0.3l-0.1-0.3l-0.1-0.2v-0.3l-0.1-0.3v-0.3l0.1-0.2v-0.3l0.1-0.3l0.1-0.2l0.1-0.3l0.1-0.3l0.2-0.2
		l0.1-0.3l0.2-0.2l0.2-0.3l0.3-0.2l0.2-0.2l0.3-0.3l0.3-0.2l0.3-0.2l0.3-0.2 M8.75,11.55l-0.5-0.1l-0.4-0.1l-0.5-0.1l-0.4-0.1
		l-0.4-0.1l-0.4-0.1l-0.4-0.2l-0.4-0.1l-0.4-0.2l-0.3-0.2l-0.4-0.2l-0.3-0.2l-0.3-0.2l-0.3-0.2l-0.3-0.2l-0.2-0.2l-0.3-0.3l-0.2-0.2
		l-0.2-0.3l-0.1-0.2l-0.2-0.3l-0.1-0.2 M18.35,10.05l-0.4,0.2l-0.3,0.2l-0.4,0.2l-0.4,0.1l-0.4,0.2l-0.4,0.1l-0.4,0.1l-0.4,0.1
		l-0.5,0.1l-0.4,0.1l-0.5,0.1l-0.4,0.1h-0.5l-0.5,0.1h-0.4h-0.5h-0.5h-0.5h-0.4l-0.5-0.1h-0.5l-0.4-0.1 M20.85,4.55l0.1,0.3l0.1,0.2
		l0.1,0.3v0.3l0.1,0.2v0.3l-0.1,0.3v0.3l-0.1,0.2l-0.1,0.3l-0.1,0.3l-0.1,0.2l-0.2,0.3l-0.1,0.2l-0.2,0.3l-0.2,0.2l-0.3,0.3
		l-0.2,0.2l-0.3,0.2l-0.3,0.2l-0.3,0.2l-0.3,0.2 M13.85,0.45l0.5,0.1l0.4,0.1l0.5,0.1l0.4,0.1l0.4,0.1l0.4,0.2l0.4,0.1l0.4,0.2
		l0.4,0.2l0.3,0.1l0.4,0.2l0.3,0.2l0.3,0.2l0.3,0.2l0.3,0.3l0.2,0.2l0.3,0.2l0.2,0.3l0.2,0.2l0.1,0.3l0.2,0.2l0.1,0.3 M3.25,11.45
		v5.9 M3.25,17.35l1.3,0.5l0.7,0.3l0.7,0.2l0.7,0.2l0.7,0.1l0.7,0.2l0.7,0.1 M8.75,18.95l0.4,0.1l0.8,0.1h0.9h0.9h0.8h0.9l0.8-0.1
		 M14.25,13.15v5.9 M8.75,11.55l0.4,0.1l0.8,0.1l0.9,0.2l0.9,0.3l0.8,0.3l0.9,0.3l0.8,0.3 M3.25,11.45l1.3-0.1h0.7h0.7h0.7h0.7
		l0.7,0.1l0.7,0.1"/>
</g>
</svg>
