<?xml version="1.0" encoding="utf-8"?>
<!-- Generator: Adobe Illustrator 19.0.0, SVG Export Plug-In . SVG Version: 6.00 Build 0)  -->
<svg version="1.0" id="Layer_1" xmlns="http://www.w3.org/2000/svg" xmlns:xlink="http://www.w3.org/1999/xlink" x="0px" y="0px"
	 width="31.7px" height="25.2px" viewBox="0 0 31.7 25.2" enable-background="new 0 0 31.7 25.2" xml:space="preserve">
<g>
	
		<path fill="none" stroke="#000000" stroke-width="0.25" stroke-linecap="round" stroke-linejoin="round" stroke-miterlimit="10" d="
		M21.15,0.35h-0.1 M0.85,12.05v-0.1 M30.85,7.75v0.1 M0.35,13.45L0.35,13.45v0.1 M0.25,15.15v-1.5 M2.55,16.05l-0.1-0.1l-0.2-0.1
		l-0.1-0.1l-0.1-0.1l-0.1-0.2 M1.35,14.85l-0.1-0.1l-0.1-0.1l-0.1-0.1l-0.1-0.2 M3.95,17.05l-0.1-0.1l-0.2-0.1l-0.1-0.1l-0.1-0.1
		l-0.2-0.1 M10.45,13.55v-2.1 M15.25,14.25v2 M6.35,18.35l0.8,0.5 M4.75,17.45l0.8,0.5 M4.35,19.05v-1.3 M7.95,19.35l0.8,0.5
		 M10.55,19.45h0.1 M9.35,20.15h0.1 M9.45,20.55v1.4 M31.25,8.15v2.2 M21.25,11.45v1.6 M16.45,15.85v-1.7 M10.65,22.45v-2.4"/>
	<path fill="none" stroke="#000000" stroke-width="0.5" stroke-linecap="round" stroke-linejoin="round" stroke-miterlimit="10" d="
		M21.05,0.25h0.1h0.1h0.2h0.1l0.1,0.1 M23.05,1.15L23.05,1.15h-0.1l-0.1,0.1h-0.1 M24.65,2.05L24.65,2.05h-0.1v0.1h-0.1l-0.1,0.1
		 M26.25,2.95L26.25,2.95l-0.1,0.1h-0.1l-0.1,0.1 M21.05,0.25l-3.2,1.9 M22.35,1.05l0.2,0.3 M21.15,0.35h0.1l0.1-0.1l0.2,0.1h0.1
		l0.1,0.1l0.2,0.1l0.1,0.1l0.1,0.1l0.1,0.1l0.1,0.2 M17.95,2.25l3.2-1.9 M27.85,3.95L27.85,3.95h-0.1l-0.1,0.1h-0.1 M23.95,1.95
		l0.2,0.4 M22.75,1.25h0.1h0.1h0.2h0.1l0.1,0.1l0.2,0.1l0.1,0.1l0.1,0.1l0.1,0.2l0.1,0.1 M22.75,1.25l-3.2,1.9 M29.25,4.95
		L29.25,4.95h-0.1v0.1h-0.2v0.1 M25.55,2.95l0.2,0.3 M24.35,2.25l0.1-0.1h0.1h0.2l0.1,0.1h0.1l0.2,0.1l0.1,0.1l0.1,0.1l0.1,0.2
		l0.1,0.2 M24.35,2.25l-3.2,1.8 M27.15,3.85l0.2,0.3 M25.95,3.15l0.1-0.1h0.1h0.2l0.1,0.1h0.1l0.2,0.1l0.1,0.1l0.1,0.2l0.1,0.1
		l0.1,0.2 M22.55,5.05l3.4-1.9 M30.35,6.15L30.35,6.15l-0.1,0.1h-0.1l-0.1,0.1 M31.45,10.05v0.2v0.1l-0.1,0.2l-0.1,0.2 M28.75,4.85
		l0.1,0.3 M27.55,4.05h0.2h0.2h0.1l0.1,0.1l0.1,0.1l0.2,0.1l0.1,0.2l0.2,0.3 M23.55,6.45l4-2.4 M31.35,7.45L31.35,7.45h-0.1
		l-0.1,0.1l-0.1,0.1l-0.2,0.1 M31.45,7.75L31.45,7.75h-0.1h-0.1 M29.95,5.95l0.2,0.3 M28.95,5.15l0.1-0.1l0.2,0.1h0.2l0.1,0.1
		l0.1,0.1l0.1,0.2l0.1,0.2l0.1,0.2 M23.75,8.15l5.2-3 M31.05,7.15l0.1,0.4 M30.05,6.35l0.1-0.1l0.2,0.1h0.2l0.2,0.2l0.1,0.1l0.1,0.2
		l0.1,0.3 M23.75,9.95l6.3-3.6 M7.95,7.85l-7.1,4.1 M0.85,11.95l-0.2,0.1l-0.1,0.2h-0.1 M0.25,13.35v-0.1v-0.2v-0.1v-0.1v-0.1v-0.1
		l0.1-0.2l0.1-0.2 M0.85,12.05l7.1-4.1 M0.45,13.65v-0.3v-0.2v-0.3l0.1-0.3v-0.2l0.1-0.1l0.2-0.2 M30.85,7.75l-8.6,4.9 M1.65,13.45
		l-0.1,0.1l-0.2,0.1l-0.1,0.1l-0.2,0.1l-0.1,0.1h-0.1l-0.2,0.1 M7.95,9.85l-6.3,3.6 M1.45,14.95l-0.1-0.2v-0.3v-0.3v-0.3l0.1-0.1
		l0.1-0.1v-0.1l0.1-0.1 M7.95,9.95v0.5l0.1,0.6v0.6 M21.25,13.35l0.2-0.1h0.1l0.1-0.1l0.1-0.1l0.2-0.1l0.1-0.1l0.1-0.1l0.1-0.1
		 M23.55,11.95l0.1-0.5v-0.5l0.1-0.5v-0.5 M0.25,15.45v-0.1 M2.75,14.65l-0.1,0.1l-0.2,0.1l-0.2,0.1l-0.1,0.1h-0.1l-0.1,0.1
		l-0.1,0.1h-0.1 M8.35,11.45l-5.6,3.2 M2.65,16.15l-0.1-0.3v-0.2l-0.1-0.3l0.1-0.2v-0.1v-0.2l0.2-0.1v-0.1 M8.35,11.45l0.2,0.5
		l0.1,0.5l0.2,0.6 M19.55,10.15L19.55,10.15l0.2-0.2l0.2-0.1l0.2-0.2l0.1-0.2l0.1-0.2l0.1-0.2v-0.2l0.1-0.2v-0.2v-0.2l-0.1-0.2
		l-0.1-0.2l-0.1-0.2l-0.1-0.2l-0.1-0.2l-0.2-0.2l-0.2-0.1l-0.2-0.2l-0.3-0.1 M19.15,6.65l-0.2-0.2l-0.3-0.1l-0.3-0.1l-0.3-0.1
		l-0.3-0.1l-0.4-0.1h-0.3l-0.4-0.1h-0.3h-0.4h-0.3h-0.4h-0.3l-0.4,0.1h-0.3l-0.3,0.1l-0.3,0.1l-0.3,0.1l-0.3,0.1l-0.3,0.1l-0.3,0.2
		l-0.2,0.1l-0.2,0.2l-0.2,0.2l-0.2,0.2l-0.1,0.1l-0.1,0.2l-0.1,0.2l-0.1,0.2l-0.1,0.2v0.2v0.2l0.1,0.2v0.2l0.1,0.2l0.1,0.2l0.2,0.2
		l0.2,0.2l0.1,0.2l0.2,0.1 M0.65,14.05h-0.1 M0.55,14.05l-0.1-0.4 M4.35,19.35l-0.5-0.3l-0.4-0.3l-0.4-0.3l-0.4-0.3l-0.4-0.3
		l-0.4-0.3l-0.3-0.3l-0.3-0.4l-0.3-0.3l-0.2-0.4l-0.3-0.3l-0.2-0.4 M3.05,16.35l-0.2,0.1 M2.85,16.45l-0.2-0.3 M1.75,15.25l-0.2,0.1
		 M1.55,15.35l-0.1-0.4 M4.15,15.75l-0.2,0.1l-0.1,0.1l-0.2,0.1h-0.1l-0.1,0.1l-0.2,0.1l-0.1,0.1h-0.1 M9.45,12.65l-5.3,3.1
		 M4.15,17.15l-0.1-0.3l-0.1-0.2v-0.2v-0.2v-0.1v-0.2l0.1-0.1l0.1-0.1 M4.35,17.45l-0.2-0.3 M9.45,12.65l0.2,0.5l0.3,0.5l0.2,0.5
		 M5.75,16.65l-0.1,0.1h-0.1l-0.2,0.1l-0.1,0.1l-0.1,0.1h-0.1l-0.2,0.1l-0.1,0.1l-0.1,0.1h-0.1 M5.75,16.65l5.2-3 M5.75,18.05
		l-0.1-0.2l-0.1-0.1v-0.2l-0.1-0.2v-0.1v-0.2l0.1-0.1v-0.1l0.1-0.1l0.1-0.1 M10.95,13.65l0.8,1.4 M16.45,13.85h-0.1l-0.2,0.1h-0.1
		h-0.2h-0.2h-0.1l-0.2-0.1h-0.1 M21.25,4.15l0.3,0.2l0.4,0.2l0.2,0.2l0.3,0.2l0.2,0.3l0.3,0.2l0.2,0.3l0.1,0.2l0.2,0.3l0.1,0.2
		l0.1,0.3l0.1,0.3v0.3v0.2v0.3v0.3l-0.1,0.3l-0.1,0.2l-0.1,0.3l-0.2,0.3l-0.1,0.2l-0.2,0.3l-0.3,0.2l-0.2,0.2l-0.3,0.3l-0.2,0.2
		l-0.4,0.2l-0.3,0.2 M16.45,1.35l4.8,2.8 M15.25,1.35l0.1-0.1h0.2h0.1l0.2-0.1l0.2,0.1h0.1h0.2l0.1,0.1 M10.45,4.15l4.8-2.8
		 M10.45,11.05l-0.3-0.2l-0.3-0.2l-0.3-0.2l-0.3-0.3l-0.2-0.2l-0.3-0.2l-0.1-0.3l-0.2-0.2l-0.2-0.3l-0.1-0.3l-0.1-0.2v-0.3l-0.1-0.3
		v-0.3v-0.2l0.1-0.3v-0.3l0.1-0.3l0.1-0.2l0.2-0.3l0.2-0.2l0.1-0.3l0.3-0.2l0.2-0.3l0.3-0.2l0.3-0.2l0.3-0.2l0.3-0.2 M15.25,13.85
		l-4.8-2.8 M19.95,5.25l-0.3-0.2l-0.3-0.1l-0.3-0.2l-0.3-0.1l-0.4-0.1l-0.3-0.1l-0.4-0.1h-0.4l-0.4-0.1h-0.4h-0.3h-0.4h-0.4h-0.4
		l-0.4,0.1h-0.4l-0.4,0.1l-0.3,0.1l-0.4,0.1l-0.3,0.1l-0.3,0.1l-0.3,0.2l-0.3,0.1l-0.3,0.2l-0.3,0.2l-0.2,0.1l-0.2,0.2l-0.2,0.2
		l-0.2,0.2l-0.1,0.3l-0.1,0.2l-0.1,0.2l-0.1,0.2v0.2v0.3v0.2l0.1,0.2v0.2l0.1,0.3l0.1,0.2l0.2,0.2l0.2,0.2l0.2,0.2l0.2,0.2l0.2,0.2
		l0.3,0.1l0.2,0.2l0.3,0.1l0.3,0.2l0.4,0.1l0.3,0.1l0.4,0.1l0.3,0.1l0.4,0.1h0.4l0.4,0.1h0.4h0.4h0.4h0.3l0.4-0.1h0.4l0.4-0.1
		l0.4-0.1l0.3-0.1l0.4-0.1l0.3-0.1l0.3-0.1l0.3-0.2l0.3-0.1l0.2-0.2l0.3-0.2l0.2-0.2l0.2-0.2l0.2-0.2l0.1-0.2l0.2-0.2l0.1-0.2v-0.2
		l0.1-0.3v-0.2v-0.2v-0.2l-0.1-0.3l-0.1-0.2l-0.1-0.2l-0.1-0.2l-0.2-0.2l-0.1-0.2l-0.2-0.2l-0.3-0.2l-0.2-0.2L19.95,5.25
		 M7.35,17.55l-0.1,0.1l-0.1,0.1h-0.1l-0.2,0.1l-0.1,0.1l-0.1,0.1h-0.2l-0.1,0.1l-0.1,0.1h-0.1 M7.35,17.55l5.2-3 M7.35,18.95
		l-0.1-0.1l-0.1-0.2v-0.2v-0.1l-0.1-0.2l0.1-0.2v-0.1v-0.1l0.1-0.1l0.1-0.1 M12.55,14.55l0.8,1.4 M8.35,21.65l-4-2.3 M14.05,24.95
		l-5.7-3.3 M9.35,20.15l-0.2,0.1 M7.75,19.25l-0.2,0.1 M7.55,19.35l-0.2-0.4 M6.15,18.25l-0.2,0.2 M5.95,18.45l-0.2-0.4 M4.55,17.35
		l-0.2,0.1 M4.35,19.35l5.1,2.9 M8.95,18.55h-0.1l-0.1,0.1l-0.1,0.1h-0.2l-0.1,0.1l-0.1,0.1l-0.2,0.1h-0.1l-0.1,0.1l-0.1,0.1
		 M8.95,18.55l5.2-3 M8.95,19.95l-0.1-0.2l-0.1-0.2v-0.1v-0.2l-0.1-0.2l0.1-0.1v-0.2v-0.1l0.1-0.1h0.1 M8.95,19.95l0.2,0.3
		 M14.15,15.55l0.8,1.4 M16.05,16.25l-5.5,3.2 M16.05,16.25L16.05,16.25h0.1h0.1h0.1v-0.1h0.1 M10.55,19.45l-0.1,0.1h-0.1l-0.1,0.1
		l-0.2,0.1h-0.1l-0.1,0.1l-0.2,0.1l-0.1,0.1h-0.1l-0.1,0.1 M9.45,22.25l0.1,0.1l0.1,0.1h0.1l0.2,0.1l0.1,0.1l0.1,0.1h0.2l0.1,0.1
		l0.1,0.1h0.1 M10.65,19.55h-0.1l-0.1,0.1l-0.1,0.1h-0.2l-0.1,0.1l-0.1,0.1l-0.2,0.1h-0.1l-0.1,0.1l-0.1,0.1 M30.85,7.85l0.1-0.1
		h0.1h0.1h0.1 M21.25,13.35l9.6-5.5 M16.45,13.85l4.8-2.8 M10.65,19.55l5.8-3.4 M14.05,24.95l-3.4-2 M26.45,17.75l-12.4,7.2
		 M31.25,10.75l-1.2,1.8l-1.1,1.8l-0.6,0.8l-0.6,0.9l-0.7,0.9l-0.6,0.8 M21.75,0.45l-0.1-0.1 M23.35,1.35l-0.3-0.2 M24.95,2.25
		l-0.3-0.2 M26.55,3.15l-0.3-0.2 M28.15,4.15h-0.1l-0.2-0.2 M29.65,5.35l-0.1-0.1l-0.3-0.3 M30.75,6.65l-0.1-0.2l-0.2-0.3h-0.1
		 M31.45,10.05v-2.3 M31.45,7.75l-0.1-0.2v-0.1 M0.25,13.05v2.3 M7.95,7.55v2.4 M23.75,9.95v-2.4"/>
</g>
</svg>
