<?xml version="1.0" encoding="utf-8"?>
<!-- Generator: Adobe Illustrator 19.0.0, SVG Export Plug-In . SVG Version: 6.00 Build 0)  -->
<svg version="1.0" id="Layer_1" xmlns="http://www.w3.org/2000/svg" xmlns:xlink="http://www.w3.org/1999/xlink" x="0px" y="0px"
	 width="14px" height="21.9px" viewBox="0 0 14 21.9" enable-background="new 0 0 14 21.9" xml:space="preserve">
<g>
	<path fill="none" stroke="#000000" stroke-width="0.5" stroke-linecap="round" stroke-linejoin="round" stroke-miterlimit="10" d="
		M1.35,10.35L1.35,10.35l0.1,0.1 M12.75,14.25v0.1v0.3l-0.1,0.2v0.1 M3.25,20.75l0.3,0.1l0.2,0.1l0.3,0.1l0.2,0.1l0.3,0.1l0.3,0.1
		l0.2,0.1h0.3l0.3,0.1h0.3h0.3l0.3,0.1h0.4h0.3l0.3-0.1h0.3h0.3l0.3-0.1h0.3l0.3-0.1l0.3-0.1h0.2l0.3-0.1l0.2-0.1l0.3-0.1l0.2-0.2
		h0.1 M1.35,11.25l-0.1,0.1v0.1 M1.35,11.35L1.35,11.35l-0.1,0.1v0.1v0.1l0.1,0.1 M12.65,13.55l0.1,0.7l-0.1,0.8 M1.65,18.45v0.1
		v0.2v0.2l0.1,0.2l0.1,0.1l0.1,0.2l0.1,0.2l0.1,0.1l0.1,0.2l0.2,0.2l0.2,0.1l0.1,0.2l0.2,0.1l0.3,0.1 M3.25,20.65l0.2,0.2l0.2,0.1
		l0.3,0.1l0.2,0.1l0.3,0.1h0.3l0.3,0.1l0.3,0.1h0.3l0.3,0.1h0.3h0.3h0.3h0.3h0.3h0.4h0.3l0.3-0.1h0.3l0.3-0.1l0.3-0.1l0.2-0.1h0.3
		l0.3-0.2l0.2-0.1l0.2-0.1l0.3-0.1l0.2-0.1l0.2-0.2l0.2-0.1l0.1-0.2l0.2-0.1l0.1-0.2l0.1-0.2l0.1-0.1l0.1-0.2l0.1-0.2v-0.2l0.1-0.2
		v-0.1v-0.1 M2.05,15.95l-0.1,0.1l-0.1,0.2l-0.1,0.2v0.2l-0.1,0.1v0.2v0.2v0.2v0.2l0.1,0.1l0.1,0.2l0.1,0.2l0.1,0.2l0.1,0.1l0.1,0.2
		l0.2,0.1l0.2,0.2l0.1,0.1l0.2,0.2l0.3,0.1 M3.25,19.25l0.2,0.1l0.2,0.2l0.3,0.1l0.2,0.1h0.3l0.3,0.1l0.3,0.1l0.3,0.1h0.3l0.3,0.1
		h0.3h0.3h0.3h0.3h0.3h0.4l0.3-0.1h0.3l0.3-0.1h0.3l0.3-0.1l0.2-0.1l0.3-0.1l0.3-0.1l0.2-0.1l0.2-0.1l0.3-0.1l0.2-0.2l0.2-0.1
		l0.2-0.1l0.1-0.2l0.2-0.2l0.1-0.1l0.1-0.2l0.1-0.2l0.1-0.1l0.1-0.2v-0.2l0.1-0.2v-0.1v-0.2l-0.1-0.2v-0.2l-0.1-0.2v-0.1l-0.1-0.1
		 M12.75,12.95L12.75,12.95v0.3l-0.1,0.2v0.2v0.3v0.3l-0.1,0.2v0.2v0.2l-0.1,0.3v0.2l-0.1,0.3l-0.1,0.2v0.1 M2.15,11.65l-0.1,0.2
		 M1.85,12.25l-0.2,0.1l-0.2,0.2l-0.1,0.1l-0.1,0.1v0.1 M2.05,17.05v0.2v0.2v0.1l0.1,0.2l0.1,0.2l0.1,0.1l0.1,0.2l0.1,0.2l0.2,0.1
		l0.1,0.2l0.2,0.1l0.2,0.1l0.2,0.2 M3.45,19.15l0.2,0.1l0.3,0.1l0.2,0.1l0.3,0.1l0.2,0.1h0.3l0.3,0.1l0.3,0.1h0.3l0.3,0.1h0.3h0.3
		h0.3h0.3h0.3l0.3-0.1h0.3h0.3l0.2-0.1l0.3-0.1h0.3l0.3-0.1l0.2-0.1l0.3-0.1l0.2-0.2l0.2-0.1l0.2-0.1l0.2-0.1l0.2-0.2l0.1-0.1
		l0.2-0.2l0.1-0.1l0.1-0.2l0.1-0.2l0.1-0.1v-0.2l0.1-0.2v-0.2v-0.1 M1.95,12.35h-0.1l-0.1,0.1h-0.1l-0.1,0.1h-0.1v0.1h-0.1v0.1
		l-0.1,0.1v0.1v0.1h0.1v0.1 M12.65,12.15v0.1l0.1,0.8l-0.1,0.8l-0.1,0.7l-0.1,0.7l-0.2,0.8 M12.25,9.65L12.25,9.65 M12.75,11.55v0.2
		l-0.1,0.3v0.2v0.2v0.3v0.1l-0.1,0.4v0.3l-0.1,0.5l-0.1,0.2v0.2l-0.1,0.2l-0.1,0.3l-0.1,0.2l-0.1,0.3l-0.1,0.1v0.3l-0.2,0.2
		l-0.1,0.3l-0.1,0.2l-0.1,0.2v0.1 M2.95,12.55l-0.3,0.2l-0.3,0.1l-0.2,0.2l-0.1,0.2 M2.95,13.05l-0.4,0.2l-0.3,0.2l-0.3,0.2
		l-0.3,0.1l-0.2,0.1l-0.1,0.1l-0.1,0.1v0.1 M3.05,13.15h-0.1l-0.1,0.1h-0.1l-0.1,0.1h-0.1l-0.1,0.1h-0.1l-0.1,0.1h-0.1l-0.1,0.1
		h-0.1v0.1h-0.1h-0.1v0.1h-0.1l-0.1,0.1h-0.1v0.1h-0.1v0.1h-0.1v0.1v0.1 M3.45,17.35l0.2,0.1l0.3,0.1l0.2,0.1l0.3,0.1l0.2,0.1
		l0.3,0.1h0.3l0.3,0.1h0.3l0.3,0.1h0.3h0.3h0.3h0.3h0.3h0.3l0.3-0.1h0.3l0.2-0.1l0.3-0.1h0.3l0.3-0.1l0.2-0.1l0.3-0.1l0.2-0.1
		l0.1-0.1 M1.85,14.85h-0.1l-0.2-0.2l-0.3-0.3 M12.65,15.05L12.65,15.05v-0.1 M12.65,15.05l-0.2,0.4h-0.1 M12.25,16.05L12.25,16.05
		v-0.1 M12.25,16.05l-0.4,0.3l-0.4,0.3l-0.1,0.1 M11.25,16.85L11.25,16.85h0.1 M1.15,10.05L1.15,10.05v0.1 M1.15,10.05l-0.1-0.7
		v-0.2 M12.65,10.35l0.1,0.7v0.7l-0.1,0.8l-0.1,0.8l-0.2,0.7l-0.2,0.7l-0.3,0.8l-0.3,0.7l-0.3,0.6 M11.25,16.85l-0.5,0.3l-0.4,0.2
		l-0.6,0.3 M9.85,17.55L9.85,17.55h0.1 M4.05,13.15l-0.4,0.3l-0.4,0.2l-0.3,0.2l-0.3,0.2l-0.3,0.2l-0.2,0.2l-0.1,0.1v0.1
		 M4.35,13.65l-0.5,0.3l-0.4,0.3l-0.5,0.2l-0.3,0.2l-0.4,0.2l-0.3,0.1l-0.2,0.1l-0.2,0.2l-0.2,0.1 M1.35,15.35L1.35,15.35l0.1,0.1
		 M12.65,11.25v0.3l-0.1,0.3v0.3l-0.1,0.3l-0.1,0.3v0.3l-0.1,0.2l-0.1,0.2l-0.1,0.2v0.2l-0.1,0.3l-0.2,0.4l-0.2,0.4l-0.1,0.2
		l-0.1,0.2l-0.1,0.2l-0.1,0.2l-0.2,0.3l-0.1,0.2l-0.1,0.1l-0.1,0.2l-0.2,0.3l-0.2,0.2l-0.1,0.2l-0.1,0.1l-0.1,0.2 M9.75,17.65
		L9.75,17.65l0.1-0.1h0.1 M4.45,13.75h-0.1l-0.1,0.1l-0.2,0.1l-0.1,0.1l-0.2,0.1l-0.2,0.1h-0.1l-0.1,0.1l-0.2,0.1l-0.2,0.1l-0.1,0.1
		h-0.2l-0.1,0.1l-0.2,0.1l-0.2,0.1l-0.1,0.1h-0.1l-0.1,0.1h-0.1l-0.1,0.1h-0.1v0.1h-0.1v0.1 M2.05,15.95l-0.2-0.2l-0.2-0.1l-0.2-0.2
		 M12.65,11.25l-0.1,0.8l-0.2,0.7l-0.2,0.8l-0.3,0.7l-0.3,0.7l-0.4,0.7l-0.4,0.7l-0.5,0.6l-0.4,0.6 M9.85,17.55l-0.5,0.2l-0.5,0.1
		l-0.6,0.2 M1.15,10.15l0.3,0.1 M1.15,10.15v-0.7l-0.1-0.8l0.1-0.3 M8.15,17.95L8.15,17.95h0.1v-0.1 M5.45,13.55l-0.5,0.4l-0.5,0.3
		l-0.4,0.3l-0.4,0.2l-0.4,0.3l-0.3,0.2l-0.3,0.2l-0.2,0.2l-0.2,0.1l-0.2,0.2 M2.05,16.35l-0.1-0.2v-0.1l0.1-0.1 M6.05,14.05
		l-0.5,0.3l-0.6,0.4l-0.5,0.3l-0.5,0.3l-0.5,0.2l-0.4,0.2l-0.4,0.2l-0.3,0.2l-0.3,0.2 M2.05,16.35L2.05,16.35 M1.65,11.15
		L1.65,11.15h0.1 M1.65,11.15l-0.2-0.8l-0.2-0.7l-0.1-0.8l-0.1-0.7v-0.4 M9.25,16.95h-0.1l-0.4,0.6l-0.5,0.5 M12.15,12.15l-0.1,0.3
		l-0.1,0.4l-0.2,0.3l-0.1,0.2l-0.1,0.3l-0.2,0.3v0.1l-0.2,0.2l-0.1,0.3l-0.1,0.1l-0.2,0.3l-0.2,0.3l-0.3,0.4l-0.1,0.2l-0.1,0.1
		l-0.2,0.2l-0.1,0.3l-0.2,0.2l-0.2,0.1l-0.1,0.2l-0.2,0.2l-0.2,0.1l-0.2,0.2l-0.1,0.2l-0.2,0.1l-0.1,0.1 M8.25,18.05L8.25,18.05
		v-0.1v-0.1 M6.25,14.05l-0.3,0.1l-0.2,0.2l-0.2,0.1l-0.3,0.2l-0.2,0.1l-0.2,0.1l-0.1,0.1l-0.2,0.1l-0.1,0.1l-0.2,0.1l-0.2,0.1
		l-0.2,0.1l-0.2,0.1l-0.2,0.1l-0.2,0.1l-0.2,0.1l-0.1,0.1l-0.2,0.1h-0.1l-0.1,0.1h-0.1l-0.1,0.1h-0.1l-0.1,0.1h-0.1 M2.65,16.75
		l-0.1-0.1l-0.2-0.1l-0.3-0.2 M12.05,12.25l-0.2,0.7l-0.4,0.7l-0.4,0.7l-0.4,0.7l-0.4,0.6l-0.5,0.6l-0.5,0.6l-0.6,0.5l-0.5,0.6
		 M8.15,17.95h-0.5l-0.4,0.1l-0.6,0.1 M12.85,7.55L12.85,7.55v-0.1 M6.35,17.95L6.35,17.95h0.1 M7.05,13.65l-0.5,0.5l-0.6,0.4
		l-0.5,0.4l-0.5,0.3l-0.4,0.3l-0.5,0.3l-0.4,0.3l-0.3,0.2l-0.4,0.2l-0.3,0.2 M3.15,17.15l-0.2-0.1l-0.1-0.1l-0.2-0.2 M3.75,17.45
		l-0.2-0.1l-0.1-0.1l-0.2-0.1 M7.85,14.05l-0.5,0.4l-0.6,0.5l-0.6,0.4l-0.5,0.4l-0.6,0.3l-0.5,0.3l-0.5,0.3l-0.5,0.2l-0.4,0.3
		 M3.15,17.15L3.15,17.15h0.1 M7.95,14.05l-0.2,0.2l-0.2,0.2l-0.3,0.2l-0.2,0.1l-0.2,0.2l-0.2,0.2l-0.2,0.1l-0.1,0.1l-0.2,0.1
		l-0.2,0.1l-0.2,0.2l-0.3,0.1l-0.3,0.2l-0.2,0.2h-0.1l-0.2,0.1l-0.1,0.1l-0.2,0.1l-0.2,0.1l-0.1,0.1l-0.2,0.1h-0.1l-0.2,0.1
		l-0.1,0.1l-0.1,0.1h-0.1 M9.25,15.55l-0.1,0.1l-0.5,0.6l-0.5,0.5l-0.5,0.5l-0.5,0.4l-0.5,0.5 M11.15,13.05l-0.2,0.3l-0.2,0.2
		l-0.2,0.3l-0.1,0.3l-0.2,0.3l-0.2,0.2l-0.1,0.1l-0.2,0.2l-0.1,0.2l-0.2,0.1l-0.2,0.3l-0.3,0.3l-0.3,0.3l-0.2,0.2l-0.1,0.1l-0.1,0.1
		l-0.2,0.2l-0.2,0.2l-0.2,0.1l-0.2,0.1l-0.1,0.2l-0.2,0.1l-0.2,0.2l-0.2,0.1l-0.2,0.1l-0.1,0.1 M6.65,18.15l-0.1-0.1l-0.1-0.1
		 M11.05,13.05l-0.4,0.7l-0.5,0.6l-0.5,0.6l-0.5,0.6l-0.6,0.6l-0.5,0.5l-0.6,0.4l-0.5,0.5l-0.6,0.4 M6.35,17.95h-0.4h-0.4h-0.4
		 M4.65,17.65L4.65,17.65l0.1,0.1 M9.55,13.65l-0.5,0.6l-0.5,0.6l-0.6,0.5l-0.6,0.5l-0.5,0.4l-0.6,0.4l-0.6,0.4l-0.5,0.3l-0.5,0.3
		 M8.65,13.55l-0.6,0.5l-0.5,0.5l-0.5,0.5l-0.5,0.4l-0.5,0.5l-0.5,0.3l-0.5,0.4l-0.5,0.3l-0.4,0.3l-0.4,0.2 M4.65,17.65h-0.3
		l-0.3-0.1l-0.3-0.1 M9.25,14.25l-0.1,0.1l-0.5,0.5l-0.5,0.6l-0.6,0.5l-0.5,0.4l-0.5,0.5l-0.5,0.4l-0.5,0.3l-0.4,0.4 M9.65,13.65
		l-0.2,0.3l-0.2,0.2l-0.2,0.2l-0.2,0.3l-0.3,0.2l-0.1,0.2l-0.2,0.1l-0.1,0.1l-0.3,0.2l-0.1,0.1l-0.2,0.2l-0.3,0.3l-0.3,0.2l-0.2,0.2
		h-0.1l-0.2,0.2l-0.2,0.1l-0.2,0.2l-0.2,0.1l-0.1,0.1l-0.2,0.1l-0.2,0.1l-0.2,0.1l-0.2,0.1l-0.1,0.1l-0.1,0.1 M5.15,17.95l-0.2-0.1
		l-0.1-0.1h-0.1 M1.75,11.15l0.6,0.1 M1.75,11.15l-0.3-0.7l-0.1-0.7l-0.2-0.8v-0.7l-0.1-0.8 M12.75,7.95l0.1-0.1v-0.1v-0.1v-0.1
		h-0.1 M2.65,11.95h0.1v0.1h0.1 M2.65,11.95l-0.3-0.6l-0.4-0.8l-0.2-0.7l-0.3-0.7l-0.2-0.8l-0.1-0.7v-0.2 M2.05,11.25L2.05,11.25
		v0.2l0.1,0.2l0.1,0.1l0.1,0.2l0.2,0.2l0.1,0.1l0.2,0.2l0.2,0.1l0.2,0.1l0.2,0.2 M12.05,10.95v-0.2 M3.45,12.85l0.2,0.1l0.2,0.1
		l0.3,0.1l0.2,0.1l0.3,0.1l0.3,0.1h0.2l0.3,0.1h0.3l0.3,0.1h0.3h0.3h0.3h0.3h0.3h0.3l0.3-0.1h0.3l0.3-0.1h0.3l0.3-0.1l0.2-0.1
		l0.3-0.1l0.3-0.1l0.2-0.1l0.2-0.1l0.2-0.2l0.2-0.1l0.2-0.1l0.2-0.2l0.1-0.1l0.1-0.2l0.2-0.2l0.1-0.1v-0.2l0.1-0.1 M4.05,13.15h-0.6
		h-0.4 M4.35,13.65l-0.2-0.3l-0.1-0.2 M4.35,13.65v0.1h0.1 M5.45,13.55l-0.5,0.1l-0.5,0.1 M6.05,14.05l-0.3-0.3l-0.3-0.2
		 M6.05,14.05h0.1h0.1 M7.05,13.65l-0.5,0.2l-0.3,0.2 M7.85,14.05l-0.4-0.2l-0.4-0.2 M7.85,14.05L7.85,14.05h0.1 M8.65,13.55
		l-0.4,0.3l-0.3,0.2 M9.55,13.65h-0.5l-0.4-0.1 M9.55,13.65L9.55,13.65h0.1 M10.05,13.15l-0.2,0.3l-0.2,0.2 M11.05,13.05l-0.6,0.1
		h-0.4 M11.05,13.05L11.05,13.05h0.1 M11.15,12.45v0.3v0.3 M12.05,12.25l-0.5,0.1l-0.4,0.1 M12.05,12.25L12.05,12.25h0.1v-0.1
		 M11.85,11.65l0.2,0.3l0.1,0.2 M12.65,11.25l-0.5,0.2l-0.3,0.2 M12.65,11.25L12.65,11.25 M12.05,10.75l0.3,0.2l0.3,0.3
		 M12.45,10.35l-0.1,0.2l-0.3,0.2 M1.35,10.25L1.35,10.25v0.1 M1.45,10.45l-0.1-0.1 M1.35,11.25l0.3-0.2 M1.35,11.25L1.35,11.25v0.1
		 M2.15,11.65l-0.4-0.2l-0.4-0.1 M1.85,12.25l0.2-0.3l0.1-0.3 M1.85,12.25L1.85,12.25h0.1v0.1 M2.95,12.55l-0.6-0.1l-0.4-0.1
		 M2.95,13.05v-0.3v-0.2 M2.95,13.05L2.95,13.05v0.1h0.1 M12.85,8.95L12.85,8.95v-0.1l-0.1-0.1l-0.2-0.1l-0.2-0.1l-0.3-0.2l-0.2-0.1
		 M12.75,10.25L12.75,10.25h0.1v-0.1 M2.85,12.05h0.8 M2.85,12.05l-0.4-0.7l-0.4-0.7l-0.3-0.7l-0.2-0.7l-0.2-0.8l-0.1-0.7l-0.1-0.3
		 M12.15,9.65l0.7-0.4 M12.85,9.25v-0.1v-0.1l-0.1-0.1l-0.1-0.1l-0.2-0.1l-0.2-0.2l-0.3-0.1l-0.3-0.1 M4.15,12.65l-0.5-0.6l-0.5-0.6
		l-0.4-0.7l-0.4-0.7l-0.3-0.7l-0.3-0.7l-0.2-0.7l-0.1-0.2 M4.15,12.65L4.15,12.65h0.1h0.1 M10.35,9.05L10.35,9.05v-0.1h0.1
		 M5.35,6.35h0.3l0.5-0.1h0.4h0.4h0.5l0.4,0.1l0.4,0.1 M4.15,5.95l0.2-0.2l0.3-0.2l0.3-0.1l0.3-0.1l0.4-0.1l0.5-0.1h0.4h0.4h0.5
		l0.4,0.1l0.4,0.1l0.4,0.1l0.4,0.2l0.3,0.2l0.3,0.2 M3.65,5.45l0.1-0.2l0.1-0.2l0.2-0.2l0.3-0.2l0.3-0.2l0.3-0.1l0.3-0.1l0.4-0.1
		l0.5-0.1h0.4h0.4h0.5l0.4,0.1l0.4,0.1l0.4,0.1l0.4,0.2l0.3,0.2l0.3,0.2l0.2,0.2l0.2,0.3l0.1,0.1 M6.15,2.95h0.4h0.4h0.5l0.4,0.1
		l0.4,0.1l0.4,0.2l0.4,0.1l0.3,0.2l0.3,0.2l0.2,0.2l0.2,0.3l0.2,0.3l0.1,0.2v0.2 M10.35,8.85l0.1,0.1 M12.85,10.15l-0.2-0.1
		l-0.1-0.1l-0.3-0.1l-0.2-0.1l-0.4-0.2l-0.3-0.2l-0.4-0.2l-0.5-0.2 M11.85,9.35l-0.1-0.2l-0.2-0.1l-0.3-0.2l-0.2-0.2 M12.15,11.25
		L12.15,11.25h0.1v-0.1 M4.35,12.65l-0.5-0.6l-0.5-0.6l-0.4-0.6l-0.4-0.7l-0.4-0.7l-0.3-0.7l-0.3-0.7v-0.2 M4.35,12.65l0.9-0.2
		 M8.65,9.45L8.65,9.45h0.1h0.1 M10.35,9.05l-0.2-0.1 M11.85,10.65l0.9-0.4 M12.75,10.25l-0.1-0.1l-0.2-0.1l-0.2-0.1l-0.3-0.1
		l-0.4-0.2l-0.4-0.2l-0.4-0.2l-0.4-0.2 M5.85,12.95h0.1v0.1h0.1 M5.85,12.95l-0.5-0.5l-0.6-0.5l-0.5-0.6l-0.5-0.6l-0.5-0.6l-0.4-0.6
		l-0.4-0.7l-0.3-0.6 M11.05,12.15L11.05,12.15v-0.1h0.1 M6.85,9.65L6.85,9.65h0.1 M8.75,9.25l0.1,0.2 M12.25,11.15l-0.3-0.1
		l-0.3-0.1l-0.4-0.2l-0.4-0.2l-0.5-0.3l-0.5-0.2l-0.5-0.3l-0.5-0.3 M12.25,11.15l-0.4-0.5 M11.85,10.65l-0.3-0.2l-0.2-0.2l-0.4-0.2
		l-0.3-0.3l-0.5-0.3l-0.4-0.3h-0.1 M6.05,13.05l-0.6-0.5l-0.5-0.6l-0.5-0.5l-0.5-0.6l-0.5-0.6l-0.5-0.7l-0.4-0.6l-0.3-0.7
		 M6.05,13.05l0.9-0.5 M8.65,9.45l-0.3-0.1 M11.05,11.45l1.1-0.2 M12.15,11.25l-0.3-0.1l-0.4-0.2l-0.3-0.2l-0.5-0.2l-0.4-0.2
		l-0.5-0.3l-0.6-0.2l-0.5-0.4 M7.75,13.05L7.75,13.05h0.1h0.1 M3.35,8.95L3.35,8.95h0.1h0.1 M9.45,12.75h0.1l0.1-0.1 M4.95,9.45h0.1
		h0.1 M4.85,6.25h0.1l0.3-0.2h0.4l0.5-0.1h0.4h0.4h0.5l0.4,0.1l0.4,0.1l0.4,0.1l0.2,0.1 M3.95,5.75l0.1-0.1l0.3-0.2l0.3-0.2l0.3-0.1
		l0.3-0.2h0.4l0.5-0.1h0.4h0.4h0.5l0.4,0.1l0.4,0.1l0.4,0.1l0.4,0.2l0.3,0.2l0.3,0.2l0.2,0.2 M3.65,5.35v-0.2l0.1-0.2l0.1-0.2
		l0.2-0.2l0.3-0.2l0.3-0.2l0.3-0.1l0.3-0.2h0.4l0.5-0.1h0.4h0.4h0.5l0.4,0.1l0.4,0.1l0.4,0.1l0.4,0.2l0.3,0.2l0.3,0.2l0.2,0.2
		l0.2,0.3l0.2,0.2 M10.35,4.85v0.3l-0.1,0.2l-0.2,0.3l-0.1,0.2 M4.15,5.95L4.15,5.95l-0.2-0.1l-0.1-0.2l-0.1-0.1l-0.1-0.2l-0.1-0.2
		l-0.1-0.1v-0.2v-0.1v-0.2l0.1-0.2v-0.1l0.1-0.2l0.2-0.1l0.1-0.2l0.2-0.1l0.2-0.1l0.2-0.1l0.2-0.1l0.2-0.1l0.3-0.1l0.4-0.1l0.5-0.1
		 M6.75,1.75h0.2h0.3l0.3,0.1h0.4l0.2,0.1h0.1l0.3,0.1l0.4,0.1l0.3,0.1l0.1,0.1h0.1l0.4,0.2l0.3,0.3l0.1,0.1l0.1,0.1l0.3,0.2
		l0.2,0.3v0.1v0.1l0.1,0.3v0.4v0.1v0.1l-0.1,0.3l-0.2,0.3h-0.1v0.1l-0.3,0.3l-0.3,0.2l-0.1,0.1l-0.1,0.1 M10.35,4.85v-0.2v-0.3v-0.2
		l-0.1-0.3l-0.1-0.3l-0.2-0.2l-0.2-0.2l-0.2-0.3l-0.3-0.2l-0.3-0.2l-0.4-0.2l-0.3-0.1l-0.5-0.2l-0.4-0.1l-0.4-0.1h-0.2 M10.35,4.85
		v-0.2v-0.1l-0.1-0.1l-0.1-0.2v-0.1l-0.1-0.2l-0.2-0.1l-0.1-0.1l-0.2-0.1l-0.1-0.2l-0.2-0.1h-0.2l-0.2-0.1l-0.2-0.1l-0.3-0.1h-0.2
		l-0.3-0.1h-0.2h-0.3h-0.2h-0.3h-0.2h-0.3h-0.2 M3.35,8.95v-0.2 M6.95,12.55l-0.6-0.5l-0.6-0.5v-0.1 M6.95,12.55l0.8,0.5
		 M7.75,13.05l-0.6-0.4l-0.6-0.5l-0.6-0.4l-0.5-0.5l-0.6-0.6l-0.5-0.5l-0.5-0.6l-0.5-0.6 M6.95,9.45v0.2 M11.15,12.05l-0.4-0.2
		l-0.5-0.2l-0.5-0.3l-0.5-0.3l-0.6-0.3l-0.5-0.3l-0.6-0.4l-0.6-0.4 M11.15,12.05l-0.1-0.6 M11.05,11.45l-0.4-0.3l-0.4-0.2l-0.4-0.3
		l-0.5-0.3l-0.5-0.4l-0.6-0.4l-0.2-0.2 M3.55,8.85v0.1 M7.95,13.05l-0.6-0.4l-0.6-0.5l-0.6-0.4l-0.5-0.5l-0.6-0.5l-0.5-0.6l-0.5-0.6
		l-0.5-0.6 M7.95,13.05l0.5-0.6 M6.85,9.65l-0.3-0.2 M9.95,12.05l1.1,0.1 M11.05,12.15l-0.5-0.2l-0.4-0.3l-0.5-0.2l-0.6-0.3
		l-0.5-0.4l-0.6-0.3l-0.6-0.4l-0.5-0.4 M4.95,9.45l-0.1-0.2 M8.45,12.45l-0.5-0.4l-0.6-0.4l-0.6-0.5l-0.5-0.6l-0.5-0.4 M8.45,12.45
		l1,0.3 M9.45,12.75l-0.5-0.3l-0.5-0.4l-0.6-0.3l-0.6-0.4l-0.6-0.4l-0.5-0.5l-0.6-0.5l-0.6-0.5 M5.15,9.25v0.2 M9.65,12.65l-0.5-0.3
		l-0.6-0.3l-0.5-0.3l-0.6-0.4l-0.6-0.4l-0.6-0.5l-0.5-0.5l-0.6-0.5 M9.65,12.65l0.3-0.6 M9.95,12.05l-0.5-0.3l-0.5-0.4l-0.6-0.3
		l-0.5-0.5l-0.6-0.4l-0.6-0.5l-0.2-0.2 M9.95,2.45l0.2,0.1l0.2,0.1l0.1,0.2l0.2,0.1l0.1,0.1l0.1,0.2l0.1,0.1l0.1,0.2l0.1,0.1v0.2
		v0.2v0.1v0.2v0.1v0.2l-0.1,0.2l-0.1,0.1l-0.1,0.2l-0.1,0.1l-0.1,0.2l-0.2,0.1l-0.2,0.1l-0.1,0.1l-0.2,0.2l-0.2,0.1l-0.3,0.1
		l-0.2,0.1h-0.2l-0.3,0.1l-0.2,0.1h-0.3l-0.3,0.1h-0.2h-0.3h-0.3h-0.3h-0.2h-0.3h-0.3l-0.3-0.1h-0.2l-0.3-0.1h-0.2l-0.3-0.1
		l-0.2-0.1l-0.2-0.1l-0.2-0.1l-0.2-0.1l-0.2-0.2l-0.2-0.1l-0.1-0.1l-0.2-0.2l-0.1-0.1l-0.1-0.1l-0.1-0.2l-0.1-0.2v-0.1l-0.1-0.2
		v-0.1v-0.2l0.1-0.2v-0.1v-0.2l0.1-0.1l0.1-0.2l0.1-0.1l0.2-0.2l0.1-0.1l0.2-0.1l0.1-0.2l0.2-0.1l0.2-0.1l0.2-0.1l0.2-0.1l0.3-0.1
		l0.2-0.1h0.3l0.2-0.1h0.3l0.3-0.1h0.2h0.3h0.3h0.3h0.3h0.2l0.3,0.1h0.3l0.2,0.1h0.3l0.2,0.1l0.3,0.1l0.2,0.1l0.2,0.1L9.95,2.45
		 M0.25,5.55v0.2v0.2l0.1,0.2v0.2l0.1,0.2l0.1,0.2l0.1,0.2l0.2,0.2l0.1,0.1l0.2,0.2l0.2,0.2l0.2,0.2l0.2,0.1l0.2,0.2l0.3,0.1
		 M2.25,8.25l0.2,0.2l0.3,0.1l0.3,0.1l0.3,0.1l0.3,0.1l0.3,0.1l0.3,0.1l0.3,0.1l0.4,0.1h0.3l0.3,0.1h0.4h0.3l0.4,0.1h0.3h0.4
		l0.3-0.1h0.4h0.3l0.4-0.1h0.3l0.3-0.1l0.4-0.1l0.3-0.1l0.3-0.1l0.3-0.1l0.3-0.1l0.3-0.1l0.2-0.1l0.3-0.2l0.2-0.1l0.3-0.2l0.2-0.1
		l0.2-0.2l0.2-0.2l0.1-0.2l0.2-0.1l0.1-0.2l0.1-0.2l0.1-0.2l0.1-0.2l0.1-0.2v-0.2l0.1-0.2v-0.2 M2.25,6.95l0.2,0.1l0.3,0.1l0.3,0.2
		l0.3,0.1l0.3,0.1l0.3,0.1l0.3,0.1h0.3l0.4,0.1l0.3,0.1h0.3h0.4l0.3,0.1h0.4h0.3h0.4h0.3l0.4-0.1h0.3h0.4l0.3-0.1l0.3-0.1h0.4
		l0.3-0.1l0.3-0.1l0.3-0.1l0.3-0.1l0.3-0.2l0.2-0.1l0.3-0.1l0.2-0.2l0.3-0.1l0.2-0.2l0.2-0.2l0.2-0.1l0.1-0.2l0.2-0.2l0.1-0.2
		l0.1-0.2l0.1-0.2l0.1-0.2l0.1-0.2v-0.2l0.1-0.2v-0.2v-0.2l-0.1-0.2v-0.2l-0.1-0.2l-0.1-0.2l-0.1-0.2l-0.1-0.2l-0.1-0.2l-0.2-0.2
		l-0.1-0.1l-0.2-0.2l-0.2-0.2l-0.2-0.1l-0.3-0.2l-0.2-0.1l-0.3-0.2l-0.2-0.1l-0.3-0.1l-0.3-0.2l-0.3-0.1l-0.3-0.1h-0.3l-0.4-0.1
		l-0.3-0.1h-0.3l-0.4-0.1h-0.3l-0.4-0.1h-0.3h-0.4h-0.3h-0.4l-0.3,0.1h-0.4l-0.3,0.1h-0.3l-0.4,0.1l-0.3,0.1h-0.3l-0.3,0.1l-0.3,0.1
		l-0.3,0.2l-0.3,0.1l-0.3,0.1l-0.2,0.2l-0.3,0.1l-0.2,0.2l-0.2,0.1l-0.2,0.2l-0.2,0.2l-0.2,0.1l-0.1,0.2l-0.2,0.2l-0.1,0.2l-0.1,0.2
		l-0.1,0.2v0.2l-0.1,0.2v0.2v0.2v0.2v0.2l0.1,0.2v0.2l0.1,0.2l0.1,0.2l0.1,0.2l0.2,0.2l0.1,0.2l0.2,0.2l0.2,0.1l0.2,0.2l0.2,0.2
		l0.2,0.1L2.25,6.95 M1.45,10.45L1.45,10.45 M12.75,14.25v-0.1 M10.65,20.75l0.1-0.1 M3.25,20.65v0.1 M1.25,11.45v0.1 M1.35,11.75
		l0.2,0.2l0.2,0.2 M12.35,18.45v-1.4 M1.65,17.05v1.4 M12.75,12.95v-0.1 M2.05,11.85l-0.2,0.2l-0.1,0.2l-0.2,0.1l-0.2,0.2
		 M1.25,12.85v0.1 M11.95,17.05v-0.8 M2.05,16.35v0.7 M2.05,15.85v0.2 M1.35,13.15l0.2,0.2l0.2,0.2 M12.75,11.55v-0.1 M2.05,13.25
		l-0.2,0.2l-0.2,0.3l-0.3,0.2 M1.25,14.15v0.1 M10.45,17.35l0.5-0.3 M3.05,17.05l0.4,0.3 M1.05,8.95v0.2 M2.05,14.65l-0.2,0.1
		l-0.1,0.2l-0.1,0.1l-0.1,0.1v0.1l-0.2,0.1 M12.85,7.75v-0.2 M1.05,7.55v0.2 M12.85,9.15v-0.2 M12.25,8.35l0.1-0.1l0.2-0.1l0.2-0.2
		 M12.05,10.75v-0.2 M12.75,8.75l-0.2-0.1l-0.1-0.1l-0.1-0.1l-0.1-0.1l-0.1-0.2l-0.1-0.1 M12.75,10.15l-0.2-0.2l-0.2-0.2l-0.2-0.2
		l-0.2-0.2 M13.75,5.55v-1.4 M0.25,4.15v1.4"/>
</g>
</svg>
