<?xml version="1.0" encoding="utf-8"?>
<!-- Generator: Adobe Illustrator 19.0.0, SVG Export Plug-In . SVG Version: 6.00 Build 0)  -->
<svg version="1.0" id="Layer_1" xmlns="http://www.w3.org/2000/svg" xmlns:xlink="http://www.w3.org/1999/xlink" x="0px" y="0px"
	 width="18.2px" height="28.6px" viewBox="0 0 18.2 28.6" enable-background="new 0 0 18.2 28.6" xml:space="preserve">
<g>
	<path fill="none" stroke="#000000" stroke-width="0.5" stroke-linecap="round" stroke-linejoin="round" stroke-miterlimit="10" d="
		M1.65,13.45l0.1,0.1v0.1h0.1 M16.65,18.75v0.1v0.3v0.3v0.2 M4.25,27.15l0.3,0.2l0.3,0.2l0.4,0.1l0.3,0.1l0.4,0.1l0.3,0.1l0.4,0.1
		l0.4,0.1l0.4,0.1h0.4l0.4,0.1h0.4h0.4h0.4h0.4h0.4l0.4-0.1h0.4l0.4-0.1l0.4-0.1l0.3-0.1l0.4-0.1l0.3-0.1l0.4-0.2l0.3-0.1l0.3-0.2
		l0.2-0.1 M1.65,14.75v0.2 M1.75,14.85l-0.1,0.1v0.1v0.1v0.1v0.1h0.1v0.1 M16.65,17.75v1v1 M2.15,24.25v0.1v0.2v0.3l0.1,0.2l0.1,0.2
		l0.1,0.3l0.1,0.2l0.2,0.2l0.2,0.2l0.2,0.2l0.2,0.2l0.3,0.2l0.2,0.2l0.3,0.2 M4.15,27.15l0.3,0.1l0.3,0.2l0.4,0.1l0.3,0.2l0.4,0.1
		l0.3,0.1l0.4,0.1l0.4,0.1h0.4l0.4,0.1h0.4l0.4,0.1h0.4h0.4h0.5l0.4-0.1h0.4l0.4-0.1h0.4l0.4-0.1l0.3-0.1l0.4-0.1l0.4-0.2l0.3-0.1
		l0.3-0.1l0.3-0.2l0.3-0.2l0.3-0.1l0.3-0.2l0.2-0.2l0.2-0.2l0.2-0.2l0.2-0.2l0.2-0.3l0.1-0.2l0.1-0.2l0.1-0.2l0.1-0.3v-0.2v-0.3
		 M2.55,20.85l-0.1,0.2l-0.1,0.3l-0.1,0.2l-0.1,0.2v0.3v0.2v0.2v0.3v0.2l0.1,0.2l0.1,0.3l0.1,0.2l0.1,0.2l0.2,0.3l0.2,0.2l0.2,0.2
		l0.2,0.2l0.3,0.2l0.2,0.1l0.3,0.2 M4.15,25.25l0.3,0.2l0.3,0.1l0.4,0.2l0.3,0.1l0.4,0.1l0.3,0.1l0.4,0.1l0.4,0.1l0.4,0.1h0.4
		l0.4,0.1h0.4h0.4h0.4h0.5h0.4l0.4-0.1h0.4l0.4-0.1l0.4-0.1l0.3-0.1l0.4-0.1l0.4-0.1l0.3-0.2l0.3-0.1l0.3-0.2l0.3-0.1l0.3-0.2
		l0.3-0.2l0.2-0.2l0.2-0.2l0.2-0.2l0.2-0.2l0.2-0.2l0.1-0.2l0.1-0.3l0.1-0.2l0.1-0.2v-0.3v-0.2v-0.3v-0.2l-0.1-0.2l-0.1-0.3
		l-0.1-0.2v-0.1 M16.65,16.95v0.1v0.4v0.1v0.4v0.3l-0.1,0.4v0.3l-0.1,0.2v0.3l-0.1,0.4l-0.1,0.3l-0.1,0.3v0.3l-0.1,0.2 M2.75,15.35
		l-0.1,0.2h-0.1 M2.45,16.05l-0.3,0.2l-0.3,0.1l-0.1,0.2l-0.1,0.1v0.1 M2.55,22.35l0.1,0.2v0.3v0.2l0.1,0.2l0.1,0.3l0.2,0.2l0.1,0.2
		l0.2,0.2l0.2,0.2l0.2,0.2l0.2,0.2l0.3,0.1l0.3,0.2 M4.55,25.05l0.3,0.2l0.3,0.1l0.3,0.2l0.3,0.1l0.4,0.1l0.3,0.1l0.4,0.1l0.4,0.1
		h0.4l0.3,0.1h0.4h0.4h0.4h0.4h0.4h0.4l0.4-0.1l0.4-0.1h0.4l0.3-0.1l0.4-0.1l0.3-0.1l0.4-0.2l0.3-0.1l0.3-0.2l0.3-0.1l0.2-0.2
		l0.3-0.2l0.2-0.2l0.2-0.2l0.2-0.2l0.2-0.2l0.1-0.2l0.2-0.2l0.1-0.2v-0.2l0.1-0.3v-0.2v-0.2 M2.45,16.15l-0.1,0.1h-0.1l-0.1,0.1
		l-0.2,0.1l-0.1,0.1h-0.1v0.1h-0.1v0.1v0.1v0.1v0.1v0.1h0.1v0.1 M16.65,15.95v0.1v1v1l-0.2,1l-0.2,1l-0.2,1 M16.05,12.55v0.1
		 M16.65,15.15v0.3v0.3v0.2v0.3l-0.1,0.4v0.2l-0.1,0.5l-0.1,0.5l-0.1,0.5l-0.1,0.4v0.2l-0.1,0.3l-0.1,0.3l-0.1,0.4l-0.2,0.2v0.3
		l-0.2,0.3l-0.1,0.3l-0.2,0.3l-0.1,0.3l-0.1,0.3l-0.1,0.1 M3.75,16.35l-0.4,0.3l-0.3,0.2l-0.3,0.3l-0.1,0.2h-0.1 M3.85,17.15
		l-0.5,0.3l-0.5,0.2l-0.4,0.2l-0.3,0.2l-0.2,0.1l-0.2,0.2l-0.1,0.1v0.2 M3.95,17.25h-0.2l-0.1,0.1h-0.1l-0.1,0.1l-0.1,0.1h-0.2
		l-0.1,0.1h-0.1l-0.1,0.1l-0.1,0.1h-0.1l-0.1,0.1h-0.1l-0.1,0.1h-0.1l-0.1,0.1h-0.1l-0.1,0.1l-0.1,0.1l-0.1,0.1l-0.1,0.1v0.1v0.1
		v0.1 M4.55,22.75l0.3,0.1l0.3,0.2l0.3,0.1l0.3,0.1l0.4,0.1l0.3,0.1l0.4,0.1l0.4,0.1l0.4,0.1h0.3h0.4l0.4,0.1h0.4h0.4l0.4-0.1h0.4
		h0.4l0.4-0.1l0.4-0.1l0.3-0.1l0.4-0.1l0.3-0.1l0.4-0.1l0.3-0.2l0.3-0.1l0.2-0.1 M2.35,19.55l-0.1-0.1l-0.2-0.3l-0.4-0.3
		 M16.65,19.75v-0.1 M16.65,19.75l-0.4,0.5 M16.05,21.05L16.05,21.05v-0.1 M16.05,21.05l-0.5,0.4l-0.5,0.4l-0.2,0.1 M14.75,22.15
		L14.75,22.15l0.1-0.1 M1.45,13.15v0.1v0.1 M1.45,13.15l-0.1-1v-0.2 M16.55,13.55l0.1,0.9v1l-0.1,1l-0.1,1l-0.2,1l-0.3,0.9l-0.4,1
		l-0.4,0.9l-0.4,0.9 M14.75,22.15l-0.6,0.4l-0.6,0.3l-0.8,0.3 M12.85,23.05L12.85,23.05l0.1-0.1h0.1 M5.25,17.25l-0.5,0.3l-0.5,0.3
		l-0.5,0.3l-0.4,0.3l-0.3,0.2l-0.2,0.3l-0.2,0.2 M5.75,17.95l-0.7,0.4l-0.6,0.3l-0.6,0.3l-0.5,0.2l-0.4,0.3l-0.4,0.2l-0.3,0.1
		l-0.3,0.2l-0.2,0.2 M1.75,20.15L1.75,20.15v0.1 M16.55,14.65v0.4l-0.1,0.5v0.4l-0.1,0.4l-0.1,0.4l-0.1,0.3l-0.1,0.3l-0.1,0.2
		l-0.1,0.4l-0.1,0.2l-0.1,0.4l-0.2,0.5l-0.3,0.5l-0.1,0.4l-0.1,0.1l-0.2,0.3l-0.2,0.3l-0.2,0.4l-0.1,0.2l-0.2,0.2l-0.1,0.3l-0.2,0.3
		l-0.3,0.3l-0.1,0.2l-0.2,0.2l-0.1,0.2 M12.75,23.15L12.75,23.15l0.1-0.1l0.2-0.1 M5.85,17.95l-0.1,0.1l-0.2,0.1l-0.2,0.1l-0.2,0.2
		l-0.3,0.1l-0.2,0.1l-0.2,0.1l-0.1,0.1l-0.3,0.1l-0.2,0.1l-0.2,0.1l-0.2,0.1l-0.2,0.1l-0.3,0.1l-0.1,0.1l-0.1,0.1h-0.1l-0.1,0.1
		l-0.2,0.1h-0.1v0.1h-0.1l-0.1,0.1h-0.1l-0.1,0.1l-0.1,0.1 M2.65,20.85l-0.2-0.2l-0.3-0.2l-0.4-0.2 M16.55,14.75l-0.1,1l-0.3,1
		l-0.3,1l-0.3,0.9l-0.5,1l-0.4,0.9l-0.6,0.8l-0.6,0.9l-0.6,0.8 M12.85,23.05l-0.6,0.2l-0.6,0.2l-0.8,0.2 M1.45,13.35l0.4,0.1
		 M1.45,13.35l-0.1-1v-1l0.1-0.4 M10.65,23.45L10.65,23.45h0.1h0.1 M7.15,17.75l-0.7,0.5l-0.6,0.4l-0.6,0.4l-0.5,0.3l-0.5,0.3
		l-0.4,0.3l-0.4,0.3l-0.3,0.2l-0.3,0.2l-0.2,0.2 M2.55,21.35v-0.1v-0.2l0.1-0.2 M7.95,18.35l-0.7,0.5l-0.8,0.5l-0.6,0.4l-0.7,0.3
		l-0.6,0.4l-0.6,0.2l-0.5,0.3l-0.5,0.2l-0.4,0.2 M2.55,21.35h0.1v0.1 M2.15,14.55L2.15,14.55v0.1h0.1 M2.15,14.55l-0.3-1l-0.2-1
		l-0.2-1l-0.1-1v-0.5 M12.05,22.25L12.05,22.25l-0.6,0.7l-0.6,0.7 M15.95,15.95l-0.2,0.4l-0.1,0.4l-0.2,0.4l-0.2,0.4l-0.2,0.4
		l-0.1,0.3l-0.1,0.2l-0.2,0.3l-0.2,0.3l-0.1,0.2l-0.2,0.4l-0.3,0.4l-0.4,0.5l-0.2,0.3l-0.1,0.1l-0.2,0.3l-0.2,0.3l-0.3,0.2l-0.2,0.3
		l-0.2,0.2l-0.2,0.2l-0.2,0.2l-0.3,0.3l-0.2,0.2l-0.2,0.2l-0.1,0.1 M10.85,23.65h-0.1v-0.1l0.1-0.1 M8.15,18.35l-0.3,0.2l-0.4,0.3
		l-0.3,0.2l-0.3,0.1l-0.3,0.2l-0.2,0.2l-0.2,0.1l-0.2,0.1l-0.2,0.1l-0.2,0.1l-0.2,0.2l-0.4,0.1l-0.2,0.2l-0.3,0.1l-0.2,0.1l-0.3,0.2
		l-0.2,0.1l-0.2,0.1h-0.1l-0.1,0.1l-0.2,0.1l-0.2,0.1h-0.1l-0.1,0.1h-0.1 M3.45,21.95l-0.2-0.1l-0.2-0.2l-0.4-0.2 M15.85,16.05
		l-0.4,1l-0.4,0.9l-0.5,0.9l-0.6,0.9l-0.6,0.8l-0.6,0.8l-0.7,0.7l-0.7,0.8l-0.7,0.6 M10.65,23.45l-0.6,0.2l-0.6,0.1h-0.7
		 M16.85,9.95v-0.1v-0.1 M8.35,23.55L8.35,23.55h0.1 M9.25,17.95l-0.7,0.6l-0.7,0.5l-0.7,0.5l-0.6,0.5l-0.7,0.4l-0.5,0.4l-0.6,0.3
		l-0.4,0.3l-0.5,0.3l-0.4,0.2 M4.05,22.45l-0.2-0.1l-0.2-0.2l-0.2-0.2 M4.85,22.85l-0.2-0.1l-0.2-0.1l-0.3-0.1 M10.35,18.35
		l-0.8,0.6l-0.7,0.6l-0.8,0.6l-0.7,0.5l-0.8,0.4l-0.6,0.4l-0.7,0.4l-0.6,0.3l-0.6,0.3 M4.05,22.45L4.05,22.45h0.1v0.1 M10.45,18.35
		l-0.3,0.3l-0.3,0.2l-0.3,0.3l-0.3,0.2l-0.3,0.3l-0.3,0.2l-0.2,0.1l-0.2,0.1l-0.3,0.2l-0.1,0.2l-0.4,0.2l-0.3,0.2l-0.4,0.3l-0.3,0.1
		l-0.1,0.1l-0.2,0.1l-0.3,0.2l-0.2,0.1l-0.2,0.1l-0.2,0.1l-0.2,0.1l-0.2,0.1l-0.2,0.1l-0.2,0.1l-0.1,0.1l-0.2,0.1 M12.05,20.45
		l-0.1,0.1l-0.6,0.7l-0.7,0.7l-0.6,0.7l-0.7,0.6l-0.6,0.5 M14.55,17.05l-0.2,0.4l-0.2,0.4l-0.3,0.3l-0.2,0.4l-0.3,0.3l-0.2,0.3
		l-0.1,0.2l-0.2,0.2l-0.3,0.3l-0.1,0.2l-0.3,0.3l-0.4,0.4l-0.4,0.4l-0.2,0.2l-0.2,0.2l-0.2,0.2l-0.3,0.2l-0.2,0.2l-0.2,0.2l-0.2,0.2
		l-0.3,0.2l-0.2,0.2l-0.3,0.2l-0.2,0.2l-0.2,0.1l-0.2,0.1 M8.75,23.75h-0.1l-0.1-0.1l-0.1-0.1 M14.45,17.15l-0.5,0.9l-0.7,0.8
		l-0.6,0.8l-0.7,0.8l-0.7,0.7l-0.7,0.7l-0.8,0.6l-0.7,0.6l-0.7,0.5 M8.35,23.55h-0.6h-0.5h-0.6 M6.05,23.15v0.1h0.1 M12.55,17.95
		l-0.7,0.8l-0.7,0.7l-0.7,0.6l-0.8,0.7l-0.7,0.6l-0.8,0.5l-0.7,0.5l-0.7,0.4l-0.7,0.4 M11.25,17.75l-0.6,0.7l-0.7,0.7l-0.7,0.6
		l-0.7,0.6l-0.7,0.5l-0.7,0.5l-0.6,0.4l-0.6,0.4l-0.5,0.4l-0.6,0.3 M6.05,23.15h-0.4l-0.4-0.1l-0.4-0.2 M12.05,18.65l-0.1,0.1
		l-0.7,0.8l-0.6,0.7l-0.7,0.7l-0.7,0.6l-0.6,0.5l-0.7,0.5l-0.6,0.5l-0.7,0.5 M12.65,17.95l-0.2,0.3l-0.3,0.3l-0.3,0.3l-0.3,0.3
		l-0.3,0.3l-0.2,0.2l-0.2,0.2l-0.2,0.2l-0.3,0.2l-0.2,0.2l-0.3,0.2l-0.4,0.3l-0.4,0.4l-0.3,0.2l-0.1,0.1l-0.3,0.2l-0.2,0.1l-0.3,0.2
		l-0.2,0.2l-0.2,0.1l-0.2,0.1l-0.3,0.2l-0.2,0.2l-0.2,0.1l-0.2,0.1l-0.2,0.1 M6.65,23.55l-0.1-0.1l-0.2-0.1l-0.2-0.1 M2.25,14.65
		l0.7,0.1 M2.25,14.65l-0.3-1l-0.3-0.9l-0.1-1l-0.1-1l-0.1-1v-0.1 M16.65,10.45l0.2-0.2v-0.1v-0.1v-0.1l-0.1-0.1 M3.45,15.65
		l0.1,0.1h0.1 M3.45,15.65l-0.5-0.9l-0.4-0.9l-0.4-0.9l-0.3-1l-0.2-1l-0.2-1v-0.2 M2.55,14.75L2.55,14.75l0.1,0.2l0.1,0.3l0.2,0.2
		l0.1,0.2l0.2,0.2l0.2,0.2l0.2,0.2l0.3,0.2l0.2,0.2l0.3,0.1 M15.75,14.25v-0.2 M4.45,16.75l0.3,0.2l0.3,0.1l0.3,0.2l0.3,0.1l0.4,0.1
		l0.4,0.1l0.3,0.1l0.4,0.1l0.4,0.1h0.4h0.4l0.4,0.1h0.4h0.4l0.4-0.1h0.4h0.4l0.4-0.1l0.3-0.1l0.4-0.1l0.4-0.1l0.3-0.1l0.4-0.1
		l0.3-0.2l0.3-0.1l0.3-0.2l0.3-0.1l0.2-0.2l0.3-0.2l0.2-0.2l0.2-0.2l0.1-0.2l0.2-0.2l0.1-0.2l0.1-0.3l0.1-0.1 M5.25,17.25h-0.7h-0.6
		 M5.75,17.95l-0.3-0.4l-0.2-0.3 M5.75,17.95L5.75,17.95h0.1 M7.15,17.75l-0.7,0.1l-0.6,0.1 M7.95,18.35l-0.5-0.3l-0.3-0.3
		 M7.95,18.35L7.95,18.35h0.1h0.1 M9.25,17.95l-0.7,0.2l-0.4,0.2 M10.35,18.35l-0.7-0.2l-0.4-0.2 M10.35,18.35L10.35,18.35h0.1
		 M11.25,17.75l-0.4,0.3l-0.4,0.3 M12.55,17.95l-0.7-0.1l-0.6-0.1 M12.55,17.95L12.55,17.95h0.1 M13.15,17.15l-0.3,0.4l-0.2,0.4
		 M14.45,17.15h-0.7h-0.6 M14.45,17.15L14.45,17.15h0.1v-0.1 M14.55,16.35v0.4v0.3 M15.85,16.05l-0.7,0.2l-0.6,0.1 M15.85,16.05
		L15.85,16.05l0.1-0.1 M15.55,15.25l0.2,0.4l0.2,0.3 M16.55,14.75l-0.6,0.3l-0.4,0.2 M16.55,14.75L16.55,14.75v-0.1 M15.85,14.05
		l0.4,0.3l0.3,0.3 M16.35,13.65l-0.2,0.1l-0.3,0.3 M1.65,13.45L1.65,13.45 M1.85,13.65l-0.2-0.2 M1.65,14.75l0.4-0.3 M1.65,14.75
		L1.65,14.75h0.1v0.1 M2.75,15.35l-0.6-0.3l-0.4-0.2 M2.45,16.05l0.2-0.4l0.1-0.3 M2.45,16.05L2.45,16.05v0.1 M3.75,16.35l-0.7-0.1
		l-0.6-0.1 M3.85,17.15l-0.1-0.4v-0.4 M3.85,17.15L3.85,17.15v0.1h0.1 M16.85,11.75v-0.1v-0.1l-0.2-0.1l-0.2-0.2l-0.3-0.1l-0.3-0.2
		l-0.4-0.2 M16.75,13.45L16.75,13.45v-0.1 M3.65,15.75h1.1 M3.65,15.75l-0.5-0.8l-0.5-1l-0.4-0.9l-0.3-1l-0.2-0.9l-0.2-1l-0.1-0.4
		 M15.95,12.65l0.9-0.6 M16.85,12.05v-0.1v-0.1l-0.1-0.2l-0.1-0.1l-0.3-0.1l-0.3-0.2l-0.3-0.2l-0.4-0.2 M5.45,16.55l-0.7-0.8
		l-0.6-0.8l-0.6-0.9l-0.5-0.9l-0.4-0.9l-0.4-0.9l-0.3-1l-0.1-0.2 M5.45,16.55L5.45,16.55h0.1v0.1h0.1 M13.45,11.85l0.1-0.1h0.1
		 M7.05,8.35l0.4-0.1l0.5-0.1h0.6h0.6h0.6l0.5,0.1l0.6,0.2 M5.35,7.65l0.3-0.2l0.4-0.2l0.4-0.2l0.5-0.1l0.5-0.1l0.5-0.1l0.6-0.1h0.6
		l0.6,0.1l0.5,0.1l0.6,0.1l0.5,0.2l0.5,0.2l0.4,0.3l0.4,0.2 M4.75,7.05l0.1-0.2l0.2-0.3l0.3-0.3l0.3-0.2l0.4-0.2l0.4-0.2l0.5-0.2
		l0.5-0.1l0.5-0.1h0.6h0.6h0.6l0.5,0.1l0.6,0.2l0.5,0.2l0.5,0.2l0.4,0.2l0.4,0.3l0.3,0.3l0.3,0.3l0.1,0.2 M7.95,3.85l0.6-0.1
		l0.6,0.1h0.6l0.5,0.1l0.6,0.1l0.5,0.2l0.5,0.2l0.4,0.3l0.4,0.3l0.3,0.3l0.3,0.3l0.2,0.4l0.1,0.3v0.2 M13.65,11.65v0.1 M16.75,13.35
		l-0.1-0.2l-0.2-0.1l-0.3-0.2l-0.4-0.1l-0.4-0.2l-0.5-0.3l-0.6-0.2l-0.6-0.3 M15.65,12.25l-0.2-0.2l-0.3-0.3l-0.4-0.2l-0.3-0.3
		 M15.95,14.75L15.95,14.75h0.1v-0.1 M5.65,16.65l-0.7-0.8l-0.6-0.8l-0.6-0.9l-0.5-0.9l-0.5-0.9l-0.4-0.9l-0.3-1l-0.1-0.3
		 M5.65,16.65l1.2-0.3 M11.35,12.45L11.35,12.45v-0.1h0.1h0.1 M13.45,11.85l-0.2-0.1 M15.45,13.85l1.3-0.4 M16.75,13.45l-0.2-0.1
		l-0.2-0.2l-0.3-0.1l-0.4-0.2l-0.5-0.2l-0.5-0.3l-0.5-0.2l-0.7-0.3 M7.65,17.05h0.1h0.1h0.1 M7.65,17.05l-0.7-0.7l-0.7-0.7l-0.7-0.8
		l-0.7-0.7l-0.6-0.9l-0.6-0.8l-0.5-0.9l-0.3-0.8 M14.45,15.85L14.45,15.85h0.1l0.1-0.1 M8.85,12.55h0.1h0.1h0.1 M11.45,12.15
		l0.1,0.2 M16.05,14.65l-0.4-0.2l-0.4-0.2l-0.5-0.2l-0.6-0.3l-0.6-0.3l-0.6-0.3l-0.7-0.4l-0.7-0.4 M16.05,14.65l-0.6-0.8
		 M15.45,13.85l-0.3-0.2l-0.3-0.3l-0.4-0.3l-0.5-0.3l-0.6-0.3l-0.6-0.4l-0.2-0.1 M7.95,17.05l-0.8-0.7l-0.7-0.7l-0.7-0.7l-0.7-0.8
		l-0.6-0.8l-0.6-0.8l-0.5-0.9l-0.4-0.8 M7.95,17.05l1.1-0.6 M11.35,12.45l-0.4-0.2 M14.45,14.95l1.5-0.2 M15.95,14.75l-0.4-0.2
		l-0.5-0.2l-0.5-0.2l-0.6-0.3l-0.6-0.3l-0.6-0.3l-0.7-0.4l-0.7-0.4 M10.15,17.05L10.15,17.05h0.1h0.1 M4.35,11.65h0.1h0.1v0.1
		 M12.45,16.65L12.45,16.65h0.1h0.1 M6.55,12.35L6.55,12.35h0.1h0.1 M6.35,8.15h0.1l0.5-0.2l0.5-0.1l0.5-0.1h0.6h0.6h0.6l0.5,0.1
		l0.6,0.2l0.5,0.1l0.2,0.1 M5.15,7.55l0.2-0.2l0.3-0.3l0.4-0.2l0.4-0.2l0.5-0.2l0.5-0.1h0.5l0.6-0.1h0.6l0.6,0.1l0.5,0.1l0.6,0.1
		l0.5,0.2l0.5,0.2l0.4,0.3l0.4,0.2l0.3,0.3 M4.75,7.05v-0.3l0.1-0.3l0.2-0.3l0.3-0.3l0.3-0.2l0.4-0.3l0.4-0.1l0.5-0.2l0.5-0.1
		l0.5-0.1h0.6h0.6h0.6l0.5,0.1l0.6,0.2l0.5,0.1l0.5,0.3l0.4,0.2l0.4,0.3l0.3,0.3l0.3,0.3l0.2,0.4 M13.55,6.25v0.4l-0.1,0.4l-0.2,0.3
		l-0.3,0.3 M5.45,7.75L5.45,7.75l-0.3-0.2l-0.3-0.3l-0.2-0.3l-0.1-0.3l-0.1-0.2v-0.3l0.1-0.3l0.1-0.3l0.2-0.3l0.2-0.2l0.2-0.3
		l0.4-0.2l0.3-0.2l0.4-0.2l0.5-0.1l0.5-0.1l0.6-0.1 M8.85,2.25h0.6l0.6,0.1l0.6,0.1l0.5,0.1l0.6,0.2l0.5,0.2l0.5,0.3l0.4,0.2
		l0.3,0.3l0.3,0.4l0.3,0.3l0.2,0.3l0.1,0.4v0.4v0.3l-0.1,0.4l-0.2,0.3l-0.2,0.3l-0.3,0.4l-0.3,0.2l-0.3,0.3 M13.55,6.25l0.1-0.3
		v-0.3l-0.1-0.3l-0.1-0.3l-0.2-0.4l-0.2-0.3l-0.3-0.3l-0.3-0.3l-0.3-0.3l-0.5-0.3l-0.4-0.2l-0.5-0.2l-0.5-0.2l-0.6-0.2l-0.6-0.1
		h-0.2 M13.55,6.25v-0.1v-0.2l-0.1-0.2l-0.1-0.2l-0.1-0.2l-0.1-0.2l-0.2-0.2l-0.2-0.1l-0.2-0.2l-0.2-0.1l-0.3-0.2l-0.2-0.1l-0.3-0.1
		l-0.3-0.1l-0.3-0.1l-0.3-0.1h-0.3l-0.4-0.1h-0.3h-0.3h-0.4h-0.3h-0.3l-0.4,0.1 M4.35,11.65v-0.2 M9.05,16.45l-0.8-0.6l-0.7-0.8
		 M9.05,16.45l1.1,0.6 M10.15,17.05l-0.8-0.5l-0.8-0.6l-0.7-0.6l-0.8-0.7l-0.7-0.7l-0.7-0.7l-0.6-0.8l-0.7-0.8 M9.05,12.35l0.1,0.2
		 M14.65,15.75l-0.6-0.2l-0.6-0.3l-0.7-0.4l-0.6-0.3l-0.8-0.5l-0.7-0.4l-0.8-0.5l-0.7-0.6 M14.65,15.75l-0.2-0.8 M14.45,14.95
		l-0.4-0.3l-0.6-0.4l-0.6-0.3l-0.6-0.5l-0.7-0.4l-0.7-0.5l-0.3-0.3 M4.65,11.55l-0.1,0.2 M10.35,17.05l-0.8-0.5l-0.7-0.6l-0.8-0.6
		l-0.7-0.6l-0.8-0.7l-0.7-0.7l-0.6-0.8l-0.7-0.8 M10.35,17.05l0.8-0.7 M8.85,12.55l-0.3-0.2 M12.95,15.75l1.5,0.1 M14.45,15.85
		l-0.6-0.2l-0.6-0.4l-0.7-0.3l-0.7-0.4l-0.7-0.4l-0.7-0.5l-0.8-0.5l-0.8-0.6 M6.55,12.35l-0.3-0.3 M11.15,16.35l-0.8-0.6l-0.7-0.6
		l-0.8-0.6l-0.7-0.7l-0.6-0.6 M11.15,16.35l1.3,0.3 M12.45,16.65l-0.7-0.4l-0.7-0.4l-0.8-0.5l-0.7-0.5l-0.8-0.6l-0.8-0.6l-0.7-0.6
		l-0.7-0.7 M6.75,12.15v0.2 M12.65,16.65l-0.7-0.4l-0.7-0.4l-0.8-0.5l-0.7-0.5l-0.8-0.6l-0.7-0.6l-0.8-0.6l-0.7-0.7 M12.65,16.65
		l0.3-0.9 M12.95,15.75l-0.6-0.4l-0.7-0.4l-0.7-0.5l-0.7-0.6l-0.8-0.6l-0.7-0.6l-0.4-0.4 M13.05,3.15l0.3,0.1l0.2,0.2l0.2,0.2
		l0.2,0.2l0.2,0.1l0.1,0.2l0.1,0.2l0.1,0.2l0.1,0.2l0.1,0.2v0.3v0.2v0.2v0.2l-0.1,0.2l-0.1,0.2l-0.1,0.2l-0.1,0.2l-0.2,0.2l-0.2,0.2
		l-0.2,0.2l-0.2,0.1l-0.2,0.2l-0.3,0.1l-0.2,0.2l-0.3,0.1l-0.3,0.1l-0.3,0.1l-0.4,0.1l-0.3,0.1l-0.3,0.1l-0.4,0.1h-0.4h-0.3h-0.4
		h-0.4h-0.3h-0.4h-0.3l-0.4-0.1l-0.3-0.1h-0.4l-0.3-0.1l-0.3-0.1l-0.3-0.2l-0.3-0.1l-0.3-0.1l-0.3-0.2l-0.2-0.1l-0.2-0.2l-0.2-0.2
		l-0.2-0.2l-0.2-0.1l-0.1-0.2l-0.1-0.2l-0.1-0.2l-0.1-0.3v-0.2l-0.1-0.2l0.1-0.2v-0.2v-0.2l0.1-0.2l0.1-0.2l0.1-0.2l0.2-0.2l0.1-0.2
		l0.2-0.2l0.2-0.2l0.3-0.1l0.2-0.2l0.3-0.1l0.2-0.2l0.3-0.1l0.4-0.1l0.3-0.1l0.3-0.1l0.3-0.1h0.4l0.3-0.1h0.4h0.4l0.3-0.1l0.4,0.1
		h0.4h0.3l0.4,0.1h0.3l0.4,0.1l0.3,0.1l0.3,0.1l0.4,0.1l0.3,0.1l0.2,0.1L13.05,3.15 M0.25,7.25v0.2l0.1,0.3v0.3l0.1,0.2l0.1,0.3
		l0.2,0.2l0.1,0.3l0.2,0.2l0.2,0.3l0.2,0.2l0.3,0.2l0.2,0.3l0.3,0.2l0.3,0.2l0.3,0.2 M2.85,10.85l0.4,0.2l0.3,0.1l0.4,0.2l0.4,0.1
		l0.4,0.2l0.4,0.1l0.4,0.1l0.4,0.1l0.4,0.1l0.5,0.1l0.4,0.1h0.5h0.5l0.4,0.1h0.5h0.4l0.5-0.1h0.5h0.4l0.5-0.1l0.4-0.1l0.5-0.1
		l0.4-0.1l0.4-0.1l0.4-0.1l0.4-0.2l0.4-0.1l0.4-0.2l0.3-0.1l0.4-0.2l0.3-0.2l0.3-0.2l0.3-0.2l0.2-0.3l0.3-0.2l0.2-0.2l0.2-0.3
		l0.2-0.2l0.1-0.3l0.1-0.2l0.2-0.3v-0.2l0.1-0.3v-0.3v-0.2 M2.85,9.05l0.4,0.1l0.3,0.2l0.4,0.2l0.4,0.1l0.4,0.2l0.4,0.1l0.4,0.1
		l0.4,0.1l0.4,0.1l0.5,0.1h0.4l0.5,0.1h0.5l0.4,0.1h0.5h0.4l0.5-0.1h0.5l0.4-0.1h0.5l0.4-0.1l0.5-0.1l0.4-0.1l0.4-0.1l0.4-0.1
		l0.4-0.2l0.4-0.1l0.4-0.2l0.3-0.2l0.4-0.1l0.3-0.2l0.3-0.2l0.3-0.2l0.2-0.3l0.3-0.2l0.2-0.2l0.2-0.3l0.2-0.2l0.1-0.3l0.1-0.2
		l0.2-0.3v-0.3l0.1-0.2v-0.3v-0.3v-0.2v-0.3l-0.1-0.3v-0.2l-0.2-0.3l-0.1-0.2l-0.1-0.3l-0.2-0.2l-0.2-0.3l-0.2-0.2l-0.3-0.2
		l-0.2-0.3l-0.3-0.2l-0.3-0.2l-0.3-0.2l-0.4-0.2l-0.3-0.1l-0.4-0.2l-0.4-0.1l-0.4-0.2l-0.4-0.1l-0.4-0.1l-0.4-0.1l-0.5-0.1l-0.4-0.1
		l-0.5-0.1h-0.4h-0.5l-0.5-0.1h-0.4h-0.5l-0.4,0.1h-0.5h-0.5l-0.4,0.1l-0.5,0.1l-0.4,0.1l-0.4,0.1l-0.4,0.1l-0.4,0.1l-0.4,0.2
		l-0.4,0.1l-0.4,0.2l-0.3,0.1l-0.4,0.2l-0.3,0.2l-0.3,0.2l-0.3,0.2l-0.2,0.3l-0.3,0.2l-0.2,0.2l-0.2,0.3l-0.2,0.2l-0.1,0.3l-0.2,0.2
		l-0.1,0.3l-0.1,0.2v0.3l-0.1,0.3v0.2v0.3l0.1,0.3v0.2l0.1,0.3l0.1,0.3l0.2,0.2l0.1,0.3l0.2,0.2l0.2,0.3l0.2,0.2l0.3,0.2l0.2,0.3
		l0.3,0.2l0.3,0.2L2.85,9.05 M1.85,13.65L1.85,13.65 M16.65,18.75v-0.1 M14.05,27.15h0.1 M4.15,27.15h0.1 M1.65,14.95v0.2
		 M1.75,15.45l0.3,0.2l0.2,0.3 M16.15,24.25v-1.9 M2.15,22.35v1.9 M16.65,16.95v-0.2 M2.55,15.55l-0.1,0.2l-0.2,0.2l-0.2,0.3
		l-0.3,0.2 M1.65,16.75v0.2 M15.65,22.35v-1 M2.55,21.35v1 M2.55,20.85v0.2 M1.75,17.25l0.3,0.2l0.2,0.3 M16.65,15.15v-0.2
		 M2.55,17.35l-0.2,0.3l-0.3,0.3l-0.3,0.4 M1.65,18.65v0.1 M13.75,22.75l0.6-0.4 M3.95,22.35l0.6,0.4 M1.35,11.75v0.2 M2.55,19.15
		l-0.1,0.2l-0.1,0.2l-0.1,0.1l-0.1,0.1l-0.1,0.1l-0.1,0.1l-0.2,0.2 M16.85,10.05v-0.1 M1.35,9.95v0.1 M16.85,11.95v-0.2
		 M16.05,10.95l0.1-0.1l0.3-0.2l0.2-0.2 M15.75,14.05v-0.3 M16.65,11.45l-0.2-0.2l-0.1-0.1l-0.1-0.1l-0.1-0.1l-0.3-0.2l-0.1-0.2
		 M16.65,13.25l-0.2-0.2l-0.3-0.3l-0.3-0.2l-0.2-0.3 M17.95,7.25v-1.9 M0.25,5.35v1.9"/>
</g>
</svg>
