<?xml version="1.0" encoding="utf-8"?>
<!-- Generator: Adobe Illustrator 19.0.0, SVG Export Plug-In . SVG Version: 6.00 Build 0)  -->
<svg version="1.0" id="Layer_1" xmlns="http://www.w3.org/2000/svg" xmlns:xlink="http://www.w3.org/1999/xlink" x="0px" y="0px"
	 width="841.89px" height="595.28px" viewBox="0 0 841.89 595.28" enable-background="new 0 0 841.89 595.28" xml:space="preserve">
<g id="XMLID_1_">
	<g>
		<path id="XMLID_372_" fill="none" stroke="#0B0620" stroke-width="0.5" stroke-linecap="round" stroke-linejoin="round" d="
			M450.383,445.88l-0.283-0.028l-1.672-0.34l-0.425-0.255l-1.644-0.964l-1.559-1.474l-0.17-0.255"/>
	</g>
	<g>
		<path id="XMLID_371_" fill="none" stroke="#0B0620" stroke-width="0.5" stroke-linecap="round" stroke-linejoin="round" d="
			M570.799,310.469c0.765-0.51,0.765-0.51,1.531-1.049c0.737-0.765,0.737-0.765,1.446-1.531c0.567-0.935,0.595-0.935,1.134-1.899
			c0.397-0.992,0.397-0.992,0.737-2.013c0.142-0.935,0.17-0.964,0.255-1.899"/>
		<path id="XMLID_370_" fill="none" stroke="#0B0620" stroke-width="0.5" stroke-linecap="round" stroke-linejoin="round" d="
			M562.436,307.634l5.244,3.033l0.085,0.028l1.332,0.255h0.085l1.531-0.454l0.085-0.028"/>
		<path id="XMLID_369_" fill="none" stroke="#0B0620" stroke-width="0.5" stroke-linecap="round" stroke-linejoin="round" d="
			M575.901,302.078v-0.085l-0.255-1.644l-0.028-0.085l-0.765-1.162l-0.085-0.057l-5.102-2.976"/>
		<path id="XMLID_368_" fill="none" stroke="#0B0620" stroke-width="0.5" stroke-linecap="round" stroke-linejoin="round" d="
			M570.742,310.497l-0.284,0.085l-1.219,0.34l-0.255-0.028l-1.049-0.198l-0.227-0.142l-0.737-0.737l-0.142-0.255l-0.369-1.162
			l-0.057-0.312l0.057-1.502l0.057-0.369l0.454-1.644l0.113-0.369l0.85-1.616l0.198-0.312l1.106-1.417l0.227-0.283l1.276-1.049
			l0.283-0.17l1.304-0.567l0.227-0.057l1.191-0.057l0.198,0.057l0.964,0.51l0.113,0.17l0.624,0.992l0.057,0.255l0.198,1.361v0.028"
			/>
		<path id="XMLID_367_" fill="none" stroke="#0B0620" stroke-width="0.5" stroke-linecap="round" stroke-linejoin="round" d="
			M570.062,307.663l-1.02-0.085v-2.948l2.183-2.75l2.211,0.198v2.948l-2.211,2.721L570.062,307.663"/>
		<path id="XMLID_366_" fill="none" stroke="#0B0620" stroke-width="0.5" stroke-linecap="round" stroke-linejoin="round" d="
			M569.041,306.5l2.183,1.247"/>
		<path id="XMLID_365_" fill="none" stroke="#0B0620" stroke-width="0.5" stroke-linecap="round" stroke-linejoin="round" d="
			M571.054,302.107v1.559l-2.013,2.523"/>
		<path id="XMLID_364_" fill="none" stroke="#0B0620" stroke-width="0.5" stroke-linecap="round" stroke-linejoin="round" d="
			M569.325,304.261l0.737,0.624"/>
		<path id="XMLID_363_" fill="none" stroke="#0B0620" stroke-width="0.5" stroke-linecap="round" stroke-linejoin="round" d="
			M571.054,303.666l2.381,1.361"/>
		<path id="XMLID_362_" fill="none" stroke="#0B0620" stroke-width="0.5" stroke-linecap="round" stroke-linejoin="round" d="
			M571.054,302.192h-0.085"/>
		<path id="XMLID_361_" fill="none" stroke="#0B0620" stroke-width="0.5" stroke-linecap="round" stroke-linejoin="round" d="
			M562.428,307.654c-1.897-1.082-1.907-4.617-0.021-7.896c1.885-3.279,4.952-5.06,6.849-3.978c0.147,0.084,0.285,0.184,0.412,0.3"/>
		<path id="XMLID_360_" fill="none" stroke="#0B0620" stroke-width="0.5" stroke-linecap="round" stroke-linejoin="round" d="
			M571.059,302.101c0.041,1.338-0.856,3.013-2.032,3.796"/>
	</g>
	<g>
		<path id="XMLID_359_" fill="none" stroke="#0B0620" stroke-width="0.5" stroke-linecap="round" stroke-linejoin="round" d="
			M279.114,252.217c0,0.142,0,0.142,0.028,0.255s0.028,0.113,0.085,0.255c0.057,0.113,0.057,0.113,0.142,0.227
			c0.085,0.113,0.085,0.113,0.17,0.227c0.113,0.057,0.113,0.057,0.198,0.142"/>
		<path id="XMLID_358_" fill="none" stroke="#0B0620" stroke-width="0.5" stroke-linecap="round" stroke-linejoin="round" d="
			M307.828,134.834c0.028-3.487,0.028-3.515,0.028-7.002c-0.198-1.276-0.198-1.276-0.425-2.551c-0.198-0.879-0.17-0.907-0.397-1.757
			c-0.567-1.134-0.567-1.134-1.191-2.211c-0.51-0.765-0.51-0.765-1.049-1.474c-0.822-0.765-0.822-0.765-1.672-1.502
			c-0.68-0.539-0.68-0.539-1.361-1.02c-0.879-0.425-0.879-0.425-1.786-0.794c-0.624-0.17-0.624-0.17-1.247-0.34
			c-0.737-0.17-0.737-0.17-1.474-0.34c-0.794-0.085-0.794-0.085-1.587-0.113c-0.794,0.028-0.794,0.028-1.559,0.113
			c-1.389,0.312-1.389,0.312-2.75,0.68c-0.879,0.368-0.879,0.368-1.757,0.794c-0.709,0.482-0.709,0.482-1.389,1.02
			c-0.822,0.737-0.85,0.737-1.672,1.502c-0.539,0.709-0.539,0.709-1.049,1.474c-0.595,1.077-0.624,1.077-1.162,2.211
			c-0.227,0.85-0.227,0.879-0.425,1.757c-0.198,1.276-0.198,1.276-0.397,2.551c-0.028,0.425-0.028,0.51,0,0.822"/>
		<path id="XMLID_357_" fill="none" stroke="#0B0620" stroke-width="0.5" stroke-linecap="round" stroke-linejoin="round" d="
			M303.548,160.545c-1.729,0.595-1.729,0.595-3.458,1.191c-0.51,0.113-0.51,0.113-1.049,0.198c-1.417,0.142-1.446,0.17-2.863,0.255
			c-1.928-0.085-1.928-0.113-3.855-0.255c-0.283-0.057-0.283-0.057-0.539-0.142"/>
		<path id="XMLID_356_" fill="none" stroke="#0B0620" stroke-width="0.5" stroke-linecap="round" stroke-linejoin="round" d="
			M305.589,132.17c-0.17,0-0.17,0-0.34,0c-0.17,0.057-0.17,0.057-0.368,0.113c-0.312,0.142-0.312,0.142-0.595,0.312
			c-0.113,0.057-0.113,0.057-0.227,0.113c-0.567,0.425-0.567,0.425-1.106,0.85"/>
		<path id="XMLID_355_" fill="none" stroke="#0B0620" stroke-width="0.5" stroke-linecap="round" stroke-linejoin="round" d="
			M282.6,254.967l-2.863-1.644"/>
		<path id="XMLID_354_" fill="none" stroke="#0B0620" stroke-width="0.5" stroke-linecap="round" stroke-linejoin="round" d="
			M279.114,252.217v-1.219V252.217v-3.118"/>
		<path id="XMLID_353_" fill="none" stroke="#0B0620" stroke-width="0.5" stroke-linecap="round" stroke-linejoin="round" d="
			M279.737,253.323l1.304,0.737L279.737,253.323"/>
		<path id="XMLID_352_" fill="none" stroke="#0B0620" stroke-width="0.5" stroke-linecap="round" stroke-linejoin="round" d="
			M279.114,220.356v-3.118V220.356"/>
		<path id="XMLID_351_" fill="none" stroke="#0B0620" stroke-width="0.5" stroke-linecap="round" stroke-linejoin="round" d="
			M279.114,217.237v-15.335v3.061"/>
		<path id="XMLID_350_" fill="none" stroke="#0B0620" stroke-width="0.5" stroke-linecap="round" stroke-linejoin="round" d="
			M279.114,161.792v40.11"/>
		<path id="XMLID_349_" fill="none" stroke="#0B0620" stroke-width="0.5" stroke-linecap="round" stroke-linejoin="round" d="
			M283.507,133.899v11.339"/>
		<path id="XMLID_348_" fill="none" stroke="#0B0620" stroke-width="0.5" stroke-linecap="round" stroke-linejoin="round" d="
			M291.558,162.727l4.11,2.381"/>
		<path id="XMLID_347_" fill="none" stroke="#0B0620" stroke-width="0.5" stroke-linecap="round" stroke-linejoin="round" d="
			M295.668,229.908v-64.8"/>
		<path id="XMLID_346_" fill="none" stroke="#0B0620" stroke-width="0.5" stroke-linecap="round" stroke-linejoin="round" d="
			M295.668,165.108l4.11-2.381"/>
		<path id="XMLID_345_" fill="none" stroke="#0B0620" stroke-width="0.5" stroke-linecap="round" stroke-linejoin="round" d="
			M304.285,160.148l0.567-0.425"/>
		<path id="XMLID_344_" fill="none" stroke="#0B0620" stroke-width="0.5" stroke-linecap="round" stroke-linejoin="round" d="
			M306.439,134.041l0.028-0.198l-0.085-0.879l-0.312-0.567l-0.482-0.227"/>
		<path id="XMLID_343_" fill="none" stroke="#0B0620" stroke-width="0.5" stroke-linecap="round" stroke-linejoin="round" d="
			M306.468,132.652l-0.085,0.312l1.049-3.288l0.085-0.397"/>
		<path id="XMLID_342_" fill="none" stroke="#0B0620" stroke-width="0.5" stroke-linecap="round" stroke-linejoin="round" d="
			M312.251,218.797v1.984"/>
		<path id="XMLID_341_" fill="none" stroke="#0B0620" stroke-width="0.5" stroke-linecap="round" stroke-linejoin="round" d="
			M312.251,220.781v-61.115"/>
		<path id="XMLID_340_" fill="none" stroke="#0B0620" stroke-width="0.5" stroke-linecap="round" stroke-linejoin="round" d="
			M301.329,136.45c0.198-1.548,1.586-3.084,3.192-3.532"/>
		
			<ellipse id="XMLID_339_" transform="matrix(-0.866 -0.5 0.5 -0.866 468.3428 523.3151)" fill="none" stroke="#0B0620" stroke-width="0.5" stroke-linecap="round" stroke-linejoin="round" cx="304.282" cy="198.911" rx="2.098" ry="3.657"/>
		
			<ellipse id="XMLID_338_" transform="matrix(-0.866 -0.5 0.5 -0.866 474.555 500.1311)" fill="none" stroke="#0B0620" stroke-width="0.5" stroke-linecap="round" stroke-linejoin="round" cx="304.282" cy="186.487" rx="2.098" ry="3.657"/>
		<path id="XMLID_337_" fill="none" stroke="#0B0620" stroke-width="0.5" stroke-linecap="round" stroke-linejoin="round" d="
			M302.114,226.631c-0.775-0.936-0.432-2.98,0.765-4.565c1.197-1.585,2.796-2.112,3.571-1.176c0.552,0.667,0.552,1.934,0.001,3.238"
			/>
		
			<ellipse id="XMLID_336_" transform="matrix(-0.866 -0.5 0.5 -0.866 480.7671 476.9471)" fill="none" stroke="#0B0620" stroke-width="0.5" stroke-linecap="round" stroke-linejoin="round" cx="304.282" cy="174.063" rx="2.098" ry="3.657"/>
		
			<ellipse id="XMLID_335_" transform="matrix(-0.866 -0.5 0.5 -0.866 462.1307 546.499)" fill="none" stroke="#0B0620" stroke-width="0.5" stroke-linecap="round" stroke-linejoin="round" cx="304.282" cy="211.336" rx="2.098" ry="3.657"/>
	</g>
	<g>
		<path id="XMLID_334_" fill="none" stroke="#0B0620" stroke-width="0.5" stroke-linecap="round" stroke-linejoin="round" d="
			M274.38,153.94c-0.935-0.595-0.935-0.595-1.843-1.219c-0.822-0.709-0.822-0.709-1.616-1.417c-0.68-0.794-0.68-0.794-1.332-1.587
			c-0.567-0.85-0.567-0.879-1.106-1.729c-0.368-0.907-0.397-0.907-0.737-1.786c-0.198-0.935-0.198-0.935-0.369-1.871"/>
		<path id="XMLID_333_" fill="none" stroke="#0B0620" stroke-width="0.5" stroke-linecap="round" stroke-linejoin="round" d="
			M267.378,144.33c-0.028,2.92-0.028,2.92,0,5.839c0.17,0.935,0.17,0.935,0.369,1.899c0.34,0.907,0.368,0.907,0.737,1.814
			c0.539,0.879,0.539,0.879,1.077,1.757c0.68,0.794,0.68,0.822,1.361,1.616c0.794,0.709,0.794,0.709,1.616,1.417
			c0.907,0.624,0.907,0.624,1.843,1.219"/>
		<path id="XMLID_332_" fill="none" stroke="#0B0620" stroke-width="0.5" stroke-linecap="round" stroke-linejoin="round" d="
			M274.38,153.94c0.992,0.51,0.992,0.51,2.041,1.02c1.106,0.397,1.106,0.397,2.211,0.794c1.191,0.283,1.191,0.283,2.409,0.567
			c1.247,0.198,1.247,0.198,2.495,0.34c1.276,0.057,1.276,0.057,2.523,0.113c1.276-0.085,1.276-0.085,2.551-0.198
			c1.332-0.198,1.332-0.198,2.636-0.425c1.276-0.312,1.276-0.312,2.551-0.652"/>
		<path id="XMLID_331_" fill="none" stroke="#0B0620" stroke-width="0.5" stroke-linecap="round" stroke-linejoin="round" d="
			M293.797,161.253c-1.276,0.368-1.276,0.368-2.579,0.68c-1.304,0.255-1.304,0.255-2.608,0.482
			c-1.276,0.113-1.276,0.113-2.551,0.227c-1.247-0.028-1.247-0.028-2.523-0.057c-1.247-0.17-1.247-0.17-2.523-0.34
			c-1.191-0.255-1.191-0.255-2.381-0.539c-1.105-0.397-1.105-0.397-2.211-0.794c-1.02-0.482-1.049-0.51-2.041-1.02"/>
		<path id="XMLID_330_" fill="none" stroke="#0B0620" stroke-width="0.5" stroke-linecap="round" stroke-linejoin="round" d="
			M267.378,144.33c0-0.964,0-0.964,0-1.928c0.17-0.964,0.17-0.992,0.369-1.928c0.368-0.992,0.368-0.992,0.765-1.928
			c0.51-0.879,0.51-0.879,1.077-1.729c0.68-0.822,0.68-0.822,1.389-1.616c0.85-0.737,0.85-0.737,1.701-1.446
			c1.729-1.219,1.729-1.219,3.487-2.409c1.786-1.049,1.786-1.049,3.572-2.069"/>
		<path id="XMLID_329_" fill="none" stroke="#0B0620" stroke-width="0.5" stroke-linecap="round" stroke-linejoin="round" d="
			M280.304,139.823c0.028-0.567,0.028-0.567,0.113-1.134c0.227-0.624,0.227-0.624,0.454-1.219c0.34-0.595,0.34-0.624,0.737-1.191
			c0.539-0.595,0.539-0.595,1.106-1.162c0.397-0.312,0.397-0.312,0.794-0.595"/>
		<path id="XMLID_328_" fill="none" stroke="#0B0620" stroke-width="0.5" stroke-linecap="round" stroke-linejoin="round" d="
			M292.805,146.938c0.765-0.085,0.765-0.085,1.559-0.198c0.907-0.198,0.907-0.198,1.842-0.425c0.879-0.283,0.879-0.283,1.757-0.567
			c0.907-0.397,0.907-0.397,1.786-0.794c0.652-0.369,0.652-0.369,1.304-0.737c1.304-0.765,1.304-0.765,2.608-1.502"/>
		<path id="XMLID_327_" fill="none" stroke="#0B0620" stroke-width="0.5" stroke-linecap="round" stroke-linejoin="round" d="
			M293.797,161.253c1.502-0.539,1.502-0.539,3.005-1.106c0.935-0.425,0.935-0.425,1.871-0.85c1.077-0.595,1.077-0.595,2.154-1.219
			c0.992-0.652,0.992-0.652,1.984-1.304c0.68-0.482,0.68-0.482,1.361-0.992"/>
		<path id="XMLID_326_" fill="none" stroke="#0B0620" stroke-width="0.5" stroke-linecap="round" stroke-linejoin="round" d="
			M307.885,147.817c-0.794,0.454-0.794,0.454-1.587,0.907c-1.757,1.219-1.729,1.219-3.487,2.409
			c-0.992,0.652-0.992,0.68-1.984,1.304c-1.077,0.595-1.077,0.595-2.154,1.162c-1.162,0.51-1.162,0.51-2.324,1.02
			c-1.276,0.454-1.276,0.454-2.551,0.879"/>
		<path id="XMLID_325_" fill="none" stroke="#0B0620" stroke-width="0.5" stroke-linecap="round" stroke-linejoin="round" d="
			M323.958,136.167c-0.17-0.539-0.17-0.539-0.368-1.077c-0.34-0.567-0.34-0.567-0.709-1.105c-0.539-0.595-0.567-0.595-1.105-1.191
			c-0.68-0.595-0.68-0.595-1.361-1.162c-0.794-0.595-0.794-0.595-1.587-1.162c-0.935-0.567-0.935-0.567-1.843-1.134
			c-1.02-0.567-1.02-0.567-2.041-1.106c-1.105-0.539-1.105-0.539-2.239-1.049c-1.191-0.51-1.191-0.51-2.381-0.992
			c-1.247-0.454-1.276-0.454-2.523-0.907c-0.198-0.057-0.198-0.057-0.397-0.142"/>
		<path id="XMLID_324_" fill="none" stroke="#0B0620" stroke-width="0.5" stroke-linecap="round" stroke-linejoin="round" d="
			M323.589,138.293c-0.368,0.539-0.368,0.539-0.765,1.049c-0.51,0.454-0.51,0.454-1.049,0.907c-0.709,0.482-0.709,0.482-1.389,0.907
			c-0.454,0.227-0.454,0.227-0.879,0.425"/>
		<path id="XMLID_323_" fill="none" stroke="#0B0620" stroke-width="0.5" stroke-linecap="round" stroke-linejoin="round" d="
			M316.106,150.113c0.028-0.227,0.028-0.227,0.085-0.425c0.057-0.255,0.057-0.255,0.17-0.482c0.113-0.227,0.113-0.227,0.255-0.425
			c0.17-0.17,0.17-0.198,0.34-0.369c0.17-0.113,0.17-0.113,0.368-0.227"/>
		<path id="XMLID_322_" fill="none" stroke="#0B0620" stroke-width="0.5" stroke-linecap="round" stroke-linejoin="round" d="
			M274.38,159.893v-5.953"/>
		<path id="XMLID_321_" fill="none" stroke="#0B0620" stroke-width="0.5" stroke-linecap="round" stroke-linejoin="round" d="
			M293.797,155.499v5.754"/>
		<path id="XMLID_320_" fill="none" stroke="#0B0620" stroke-width="0.5" stroke-linecap="round" stroke-linejoin="round" d="
			M281.948,143.962v-1.134l-0.028-0.368l-0.142-0.227l-0.17-0.085l-0.227,0.113l-0.227,0.255l-0.085,0.255"/>
		<path id="XMLID_319_" fill="none" stroke="#0B0620" stroke-width="0.5" stroke-linecap="round" stroke-linejoin="round" d="
			M307.573,161.282l-6.208-3.543"/>
		<path id="XMLID_318_" fill="none" stroke="#0B0620" stroke-width="0.5" stroke-linecap="round" stroke-linejoin="round" d="
			M305.362,156.321v1.219"/>
		<path id="XMLID_317_" fill="none" stroke="#0B0620" stroke-width="0.5" stroke-linecap="round" stroke-linejoin="round" d="
			M323.504,143.905l0.085-5.613l0.368-1.049v-1.077"/>
		<path id="XMLID_316_" fill="none" stroke="#0B0620" stroke-width="0.5" stroke-linecap="round" stroke-linejoin="round" d="
			M311.088,136.223l-0.085,0.454"/>
		<path id="XMLID_315_" fill="none" stroke="#0B0620" stroke-width="0.5" stroke-linecap="round" stroke-linejoin="round" d="
			M312.08,145.408l2.239-1.304"/>
		<path id="XMLID_314_" fill="none" stroke="#0B0620" stroke-width="0.5" stroke-linecap="round" stroke-linejoin="round" d="
			M315.907,153.033l0.198-1.701v-1.219"/>
		<path id="XMLID_313_" fill="none" stroke="#0B0620" stroke-width="0.5" stroke-linecap="round" stroke-linejoin="round" d="
			M317.325,148.186l1.332-0.567l0.964-0.454"/>
		<path id="XMLID_312_" fill="none" stroke="#0B0620" stroke-width="0.5" stroke-linecap="round" stroke-linejoin="round" d="
			M323.561,143.934l0.397-0.879v-1.049"/>
		<path id="XMLID_311_" fill="none" stroke="#0B0620" stroke-width="0.5" stroke-linecap="round" stroke-linejoin="round" d="
			M323.958,142.006v-5.839"/>
		<path id="XMLID_310_" fill="none" stroke="#0B0620" stroke-width="0.5" stroke-linecap="round" stroke-linejoin="round" d="
			M304.172,155.782l0.34-0.17l0.34-0.028l0.283,0.113l0.17,0.255l0.057,0.368"/>
		<path id="XMLID_309_" fill="none" stroke="#0B0620" stroke-width="0.5" stroke-linecap="round" stroke-linejoin="round" d="
			M292.796,146.882c-6.547,0.881-12.14-2.019-12.491-6.476c-0.015-0.193-0.02-0.387-0.015-0.583"/>
		<path id="XMLID_308_" fill="none" stroke="#0B0620" stroke-width="0.5" stroke-linecap="round" stroke-linejoin="round" d="
			M307.834,131.957c2.28,1.404,3.439,3.072,3.195,4.598"/>
		<path id="XMLID_307_" fill="none" stroke="#0B0620" stroke-width="0.5" stroke-linecap="round" stroke-linejoin="round" d="
			M312.154,159.609c-2.867,2.556-5.824,2.31-6.605-0.55c-0.125-0.459-0.189-0.97-0.189-1.52"/>
	</g>
	<g>
		<path id="XMLID_306_" fill="none" stroke="#0B0620" stroke-width="0.5" stroke-linecap="round" stroke-linejoin="round" d="
			M270.808,134.778c0.34-1.02,0.34-1.02,0.737-2.013c0.567-0.964,0.567-0.964,1.162-1.871c0.68-0.794,0.68-0.794,1.417-1.559
			c0.482-0.34,0.482-0.34,0.964-0.652"/>
		<path id="XMLID_305_" fill="none" stroke="#0B0620" stroke-width="0.5" stroke-linecap="round" stroke-linejoin="round" d="
			M275.088,128.683c-0.482,0.312-0.482,0.312-0.935,0.652c-0.737,0.765-0.737,0.765-1.446,1.559
			c-0.113,0.142-0.085,0.17-0.198,0.312c-0.482,0.794-0.482,0.794-0.964,1.559c-0.057,0.198-0.057,0.198-0.113,0.368
			c-0.312,0.822-0.312,0.822-0.624,1.672c-0.057,0.34-0.057,0.34-0.085,0.68"/>
		<path id="XMLID_304_" fill="none" stroke="#0B0620" stroke-width="0.5" stroke-linecap="round" stroke-linejoin="round" d="
			M278.575,128.031c-0.595-0.113-0.595-0.113-1.219-0.227c-0.057,0-0.057,0-0.085,0.028c-0.765,0.198-0.765,0.198-1.531,0.425
			c-0.34,0.198-0.34,0.198-0.652,0.425"/>
		<path id="XMLID_303_" fill="none" stroke="#0B0620" stroke-width="0.5" stroke-linecap="round" stroke-linejoin="round" d="
			M270.723,135.515l0.085-0.737"/>
		<path id="XMLID_302_" fill="none" stroke="#0B0620" stroke-width="0.5" stroke-linecap="round" stroke-linejoin="round" d="
			M275.088,128.683l0.652-0.425"/>
		<path id="XMLID_301_" fill="none" stroke="#0B0620" stroke-width="0.5" stroke-linecap="round" stroke-linejoin="round" d="
			M312.364,159.723l-3.713-2.126"/>
		<path id="XMLID_300_" fill="none" stroke="#0B0620" stroke-width="0.5" stroke-linecap="round" stroke-linejoin="round" d="
			M315.227,159.269l-0.51,0.312"/>
		<path id="XMLID_299_" fill="none" stroke="#0B0620" stroke-width="0.5" stroke-linecap="round" stroke-linejoin="round" d="
			M316.389,153.316l-3.685-2.126"/>
		<path id="XMLID_298_" fill="none" stroke="#0B0620" stroke-width="0.5" stroke-linecap="round" stroke-linejoin="round" d="
			M317.154,155.3v-0.737"/>
		<path id="XMLID_297_" fill="none" stroke="#0B0620" stroke-width="0.5" stroke-linecap="round" stroke-linejoin="round" d="
			M314.72,159.569c-1.481,0.997-2.781,0.478-2.905-1.16c-0.124-1.638,0.976-3.775,2.457-4.772c1.396-0.94,2.647-0.538,2.878,0.924"
			/>
		
			<ellipse id="XMLID_296_" transform="matrix(0.866 0.5 -0.5 0.866 120.6607 -136.4951)" fill="none" stroke="#0B0620" stroke-width="0.5" stroke-linecap="round" stroke-linejoin="round" cx="315.043" cy="156.916" rx="1.757" ry="3.033"/>
	</g>
	<g>
		<path id="XMLID_295_" fill="none" stroke="#0B0620" stroke-width="0.5" stroke-linecap="round" stroke-linejoin="round" d="
			M251.561,275.149c0.17,0.369,0.17,0.369,0.34,0.709c0.17,0.227,0.17,0.227,0.312,0.454c0.34,0.312,0.34,0.312,0.68,0.595
			c0.283,0.198,0.283,0.198,0.567,0.368"/>
		<path id="XMLID_294_" fill="none" stroke="#0B0620" stroke-width="0.5" stroke-linecap="round" stroke-linejoin="round" d="
			M253.46,277.275c98.646,56.976,98.646,56.976,197.32,113.924c0.482,0.255,0.482,0.255,0.964,0.482
			c0.935,0.255,0.935,0.283,1.871,0.51c1.02,0.085,1.049,0.085,2.069,0.142c1.02-0.085,1.02-0.085,2.041-0.198
			c0.425-0.113,0.425-0.113,0.822-0.227c0.51-0.17,0.51-0.17,1.02-0.368c23.046-13.238,23.046-13.238,46.091-26.561"/>
		<path id="XMLID_293_" fill="none" stroke="#0B0620" stroke-width="0.5" stroke-linecap="round" stroke-linejoin="round" d="
			M262.701,273.534c0.085-0.255,0.085-0.255,0.198-0.482c0.255-0.368,0.227-0.368,0.482-0.737c0.227-0.227,0.227-0.227,0.454-0.425
			c0.425-0.312,0.425-0.312,0.85-0.595"/>
		<path id="XMLID_292_" fill="none" stroke="#0B0620" stroke-width="0.5" stroke-linecap="round" stroke-linejoin="round" d="
			M264.685,271.294c8.787-5.102,8.787-5.102,17.603-10.176c0.652-0.368,0.652-0.368,1.332-0.737
			c1.332-0.624,1.332-0.624,2.693-1.219c0.765-0.312,0.765-0.312,1.531-0.595c1.474-0.51,1.502-0.51,3.005-0.964
			c0.822-0.227,0.822-0.227,1.672-0.454c1.616-0.34,1.616-0.34,3.232-0.652c0.879-0.17,0.879-0.17,1.757-0.283
			c1.701-0.198,1.701-0.198,3.402-0.34c0.935-0.085,0.935-0.085,1.842-0.113c1.729-0.028,1.729-0.028,3.43-0.028
			c0.907,0.028,0.935,0.028,1.843,0.057c1.701,0.17,1.701,0.17,3.402,0.312c0.879,0.113,0.879,0.113,1.758,0.255
			c1.644,0.312,1.644,0.312,3.317,0.624c0.822,0.198,0.822,0.198,1.644,0.397c1.559,0.454,1.559,0.482,3.09,0.935
			c0.765,0.283,0.765,0.283,1.502,0.567c1.389,0.595,1.389,0.595,2.778,1.219c0.68,0.34,0.68,0.34,1.332,0.68
			c1.219,0.737,1.219,0.737,2.409,1.474c0.567,0.397,0.567,0.397,1.106,0.794c0.992,0.822,0.992,0.822,1.956,1.672
			c0.425,0.454,0.425,0.454,0.85,0.907c0.737,0.907,0.737,0.907,1.474,1.843c0.283,0.482,0.283,0.482,0.567,0.964
			c0.482,0.964,0.482,0.964,0.935,1.956c0.142,0.482,0.142,0.51,0.283,0.992c0.198,1.02,0.198,1.02,0.368,2.041
			c0,0.482,0,0.51-0.028,1.02c-0.085,0.992-0.057,1.02-0.17,2.013c-0.51,1.502-0.51,1.502-1.106,2.976
			c-0.907,1.446-0.935,1.446-1.899,2.835c-0.454,0.454-0.454,0.454-0.907,0.907c-0.907,0.85-0.879,0.879-1.814,1.729
			c-1.616,1.134-1.616,1.134-3.288,2.239"/>
		<path id="XMLID_291_" fill="none" stroke="#0B0620" stroke-width="0.5" stroke-linecap="round" stroke-linejoin="round" d="
			M295.668,234.926c-11.055-6.378-11.055-6.378-22.11-12.784c-0.34-0.312-0.34-0.312-0.68-0.624c-0.17-0.227-0.17-0.227-0.312-0.454
			c-0.17-0.34-0.17-0.34-0.34-0.709"/>
		<path id="XMLID_290_" fill="none" stroke="#0B0620" stroke-width="0.5" stroke-linecap="round" stroke-linejoin="round" d="
			M283.337,287.82c8.192,4.762,8.192,4.762,16.413,9.496c0.907,0.397,0.907,0.397,1.843,0.765c1.049,0.227,1.077,0.227,2.154,0.397
			c1.134,0.028,1.134,0.028,2.268,0c1.077-0.17,1.077-0.17,2.154-0.397c0.907-0.369,0.935-0.369,1.842-0.765
			c8.674-4.989,8.674-4.989,17.32-10.006c1.729-1.162,1.729-1.162,3.402-2.324c1.389-1.276,1.417-1.276,2.75-2.608
			c0.992-1.446,1.02-1.474,1.956-2.976"/>
		<path id="XMLID_289_" fill="none" stroke="#0B0620" stroke-width="0.5" stroke-linecap="round" stroke-linejoin="round" d="
			M296.603,246.888c0.992-0.539,0.992-0.567,1.984-1.134c0.85-0.624,0.879-0.624,1.701-1.276c0.539-0.709,0.539-0.709,1.049-1.446"
			/>
		<path id="XMLID_288_" fill="none" stroke="#0B0620" stroke-width="0.5" stroke-linecap="round" stroke-linejoin="round" d="
			M305.277,361.776c0.652,0,0.652,0,1.304,0c0.198-0.028,0.227-0.028,0.425-0.085c0.68-0.283,0.68-0.255,1.332-0.567
			c2.041-1.162,2.041-1.162,4.054-2.353c0.425-0.397,0.425-0.425,0.822-0.85c0.255-0.425,0.255-0.425,0.51-0.85"/>
		<path id="XMLID_287_" fill="none" stroke="#0B0620" stroke-width="0.5" stroke-linecap="round" stroke-linejoin="round" d="
			M305.731,360.812c0.567-1.049,0.567-1.049,1.105-2.069c0.539-0.85,0.51-0.85,1.049-1.701c0.539-0.737,0.567-0.709,1.106-1.446
			c0.765-0.879,0.737-0.879,1.502-1.729c0.652-0.595,0.652-0.595,1.304-1.191c0.85-0.709,0.85-0.709,1.729-1.389
			c0.737-0.454,0.765-0.454,1.502-0.907c0.964-0.51,0.964-0.539,1.928-1.049c1.871-0.652,1.899-0.652,3.798-1.276
			c2.013-0.34,2.041-0.312,4.082-0.595c0.935-0.028,0.935,0,1.871,0c1.247,0.028,1.247,0.028,2.466,0.085
			c2.268,0.34,2.296,0.34,4.564,0.737c2.353,0.709,2.353,0.709,4.677,1.446c2.409,1.02,2.409,1.02,4.791,2.098
			c1.304,0.709,1.304,0.709,2.551,1.446"/>
		<path id="XMLID_286_" fill="none" stroke="#0B0620" stroke-width="0.5" stroke-linecap="round" stroke-linejoin="round" d="
			M345.756,353.272c-1.049-0.624-1.077-0.624-2.154-1.219c-2.381-1.077-2.381-1.077-4.762-2.098
			c-2.296-0.737-2.324-0.737-4.649-1.417c-2.069-0.368-2.098-0.368-4.167-0.68"/>
		<path id="XMLID_285_" fill="none" stroke="#0B0620" stroke-width="0.5" stroke-linecap="round" stroke-linejoin="round" d="
			M318.77,349.644c1.842-0.68,1.842-0.68,3.713-1.276c1.984-0.312,2.013-0.312,3.997-0.595c1.757,0.028,1.786,0.028,3.543,0.085"/>
		<path id="XMLID_284_" fill="none" stroke="#0B0620" stroke-width="0.5" stroke-linecap="round" stroke-linejoin="round" d="
			M356.783,359.593c2.268,1.304,2.268,1.304,4.535,2.693c2.438,1.701,2.438,1.701,4.819,3.458c2.381,1.984,2.409,1.984,4.734,4.025
			c2.324,2.239,2.324,2.239,4.592,4.535c2.211,2.466,2.211,2.466,4.394,4.961c2.069,2.693,2.069,2.693,4.11,5.386
			c1.928,2.835,1.928,2.835,3.827,5.698c1.729,2.948,1.729,2.948,3.458,5.924c1.531,3.061,1.559,3.061,3.061,6.151
			c1.332,3.118,1.332,3.118,2.636,6.236c1.106,3.146,1.077,3.146,2.154,6.293c0.227,0.482,0.227,0.51,0.454,0.964
			c0.595,0.709,0.595,0.709,1.247,1.361"/>
		<path id="XMLID_283_" fill="none" stroke="#0B0620" stroke-width="0.5" stroke-linecap="round" stroke-linejoin="round" d="
			M471.728,494.296c-3.94,2.324-3.94,2.324-7.88,4.62c-0.51,0.198-0.51,0.198-1.02,0.368c-0.907,0.255-0.907,0.283-1.814,0.51
			c-0.51,0-0.51,0-1.049-0.028c-0.964-0.113-0.992-0.085-1.956-0.227c-1.417-0.567-1.446-0.567-2.835-1.219"/>
		<path id="XMLID_282_" fill="none" stroke="#0B0620" stroke-width="0.5" stroke-linecap="round" stroke-linejoin="round" d="
			M455.173,498.321c-32.287-18.624-32.287-18.624-64.545-37.276c-0.992-0.68-0.992-0.709-1.956-1.417
			c-0.935-0.935-0.935-0.935-1.843-1.899c-0.794-1.134-0.794-1.134-1.587-2.296c-0.624-1.219-0.624-1.219-1.247-2.494
			c-0.397-1.219-0.397-1.247-0.794-2.495c-0.198-1.219-0.198-1.247-0.34-2.466c0.085-1.559,0.113-1.559,0.255-3.09
			c0.595-3.572,0.652-3.572,1.247-7.143c0.425-3.798,0.425-3.798,0.85-7.597c0.227-3.657,0.227-3.657,0.397-7.313"/>
		<path id="XMLID_281_" fill="none" stroke="#0B0620" stroke-width="0.5" stroke-linecap="round" stroke-linejoin="round" d="
			M386.773,409.625c0.085,0.113,0.085,0.113,0.198,0.198c1.247,0.737,1.247,0.765,2.523,1.446c1.049,0.312,1.049,0.312,2.126,0.595
			c0.255,0.028,0.255,0.028,0.539,0.028c0.964-0.057,0.992-0.057,1.956-0.142c0.85-0.255,0.85-0.283,1.672-0.595"/>
		<path id="XMLID_280_" fill="none" stroke="#0B0620" stroke-width="0.5" stroke-linecap="round" stroke-linejoin="round" d="
			M393.236,411.609c0.51-0.255,0.51-0.255,0.992-0.482c0.284-0.17,0.284-0.17,0.567-0.368c0.369-0.425,0.369-0.425,0.737-0.85
			c0.198-0.312,0.198-0.312,0.368-0.595c0.227-0.595,0.227-0.595,0.454-1.219c0.057-0.255,0.057-0.255,0.113-0.539"/>
		<path id="XMLID_279_" fill="none" stroke="#0B0620" stroke-width="0.5" stroke-linecap="round" stroke-linejoin="round" d="
			M407.948,452.513c-0.028-4.45-0.028-4.45-0.113-8.901c-0.142-4.422-0.142-4.422-0.34-8.844c-0.283-4.309-0.283-4.309-0.595-8.617
			c-0.255-2.835-0.255-2.835-0.539-5.669"/>
		<path id="XMLID_278_" fill="none" stroke="#0B0620" stroke-width="0.5" stroke-linecap="round" stroke-linejoin="round" d="
			M407.948,453.505c0,0.85,0,0.822,0.028,1.644c0.085,0.992,0.057,1.02,0.198,2.013c0.283,0.822,0.312,0.822,0.624,1.616
			c0.255,0.51,0.227,0.51,0.482,1.02c0.539,0.624,0.539,0.624,1.077,1.247c0.425,0.397,0.425,0.397,0.879,0.765
			c2.154,1.276,2.154,1.247,4.309,2.495c0.709,0.368,0.709,0.368,1.446,0.737c0.539,0.198,0.539,0.227,1.106,0.397
			c0.822,0.085,0.822,0.085,1.672,0.142c1.02-0.085,1.049-0.085,2.069-0.198c1.899-0.425,1.899-0.482,3.827-0.907
			c1.276-0.113,1.276-0.113,2.551-0.17"/>
		<path id="XMLID_277_" fill="none" stroke="#0B0620" stroke-width="0.5" stroke-linecap="round" stroke-linejoin="round" d="
			M478.219,374.107c1.672-1.105,1.672-1.105,3.288-2.239c0.935-0.85,0.907-0.879,1.814-1.729c0.453-0.454,0.453-0.425,0.907-0.907
			c0.964-1.389,0.992-1.389,1.899-2.835c0.595-1.474,0.595-1.474,1.105-2.976c0.113-0.992,0.085-1.02,0.17-2.041
			c0.028-0.482,0.028-0.482,0.028-0.992c-0.17-0.992-0.17-0.992-0.369-1.984c-0.142-0.539-0.113-0.539-0.283-1.049
			c-0.454-0.992-0.454-0.992-0.935-1.956c-0.283-0.482-0.283-0.482-0.567-0.964c-0.737-0.935-0.737-0.935-1.474-1.843
			c-0.425-0.454-0.425-0.454-0.85-0.907c-0.964-0.822-0.964-0.822-1.956-1.672c-0.539-0.397-0.539-0.397-1.106-0.794
			c-1.191-0.737-1.191-0.737-2.409-1.474c-0.652-0.34-0.652-0.34-1.332-0.68c-1.389-0.624-1.389-0.624-2.778-1.219
			c-0.737-0.283-0.737-0.283-1.502-0.567c-1.531-0.454-1.531-0.454-3.09-0.935c-0.822-0.198-0.822-0.198-1.644-0.397
			c-1.672-0.312-1.672-0.312-3.317-0.624c-0.879-0.142-0.879-0.142-1.757-0.255c-1.701-0.142-1.701-0.142-3.43-0.312
			c-0.907-0.028-0.907-0.028-1.814-0.057c-1.729,0-1.729,0-3.458,0.028c-0.907,0.028-0.907,0.057-1.814,0.113
			c-1.701,0.17-1.701,0.142-3.373,0.34c-0.907,0.113-0.907,0.142-1.786,0.283c-1.616,0.312-1.616,0.312-3.232,0.652
			c-0.85,0.227-0.85,0.227-1.672,0.454c-1.502,0.482-1.502,0.454-3.005,0.964c-0.765,0.283-0.765,0.283-1.531,0.595
			c-1.332,0.595-1.361,0.595-2.693,1.219c-0.68,0.369-0.68,0.369-1.332,0.737c-8.816,5.074-8.816,5.074-17.603,10.176
			c-0.425,0.283-0.425,0.283-0.85,0.595c-0.227,0.198-0.227,0.198-0.454,0.425c-0.227,0.368-0.227,0.368-0.482,0.737
			c-0.085,0.227-0.085,0.227-0.198,0.482"/>
		<path id="XMLID_276_" fill="none" stroke="#0B0620" stroke-width="0.5" stroke-linecap="round" stroke-linejoin="round" d="
			M422.575,429.836c14.258,8.249,14.258,8.249,28.545,16.469c0.765,0.34,0.765,0.34,1.559,0.652c0.935,0.198,0.935,0.198,1.871,0.34
			c0.964,0.028,0.964,0.028,1.928,0c0.935-0.142,0.935-0.142,1.871-0.34c0.794-0.312,0.794-0.312,1.559-0.652
			c1.304-0.737,1.332-0.737,2.608-1.502"/>
		<path id="XMLID_275_" fill="none" stroke="#0B0620" stroke-width="0.5" stroke-linecap="round" stroke-linejoin="round" d="
			M462.515,444.803c-1.474,0.85-1.474,0.85-2.948,1.701c-0.737,0.312-0.737,0.312-1.474,0.595c-0.822,0.198-0.85,0.198-1.701,0.34
			c-0.879,0-0.879,0-1.786,0c-0.85-0.142-0.85-0.142-1.701-0.34c-0.737-0.283-0.737-0.283-1.446-0.595
			c-0.624-0.34-0.624-0.34-1.219-0.709"/>
		<path id="XMLID_274_" fill="none" stroke="#0B0620" stroke-width="0.5" stroke-linecap="round" stroke-linejoin="round" d="
			M428.216,464.305c0.17,0.028,0.17,0.028,0.368,0.057c0.51-0.085,0.51-0.057,1.02-0.142c0.539-0.17,0.539-0.17,1.049-0.34"/>
		<path id="XMLID_273_" fill="none" stroke="#0B0620" stroke-width="0.5" stroke-linecap="round" stroke-linejoin="round" d="
			M478.106,374.192c-8.731,5.046-8.731,5.046-17.461,10.091c-0.907,0.397-0.935,0.397-1.843,0.765
			c-1.077,0.227-1.077,0.227-2.154,0.397c-1.134,0.028-1.134,0.028-2.268,0c-1.077-0.17-1.077-0.17-2.154-0.397
			c-0.935-0.369-0.935-0.369-1.814-0.765c-7.795-4.45-7.795-4.479-15.534-8.957"/>
		<path id="XMLID_272_" fill="none" stroke="#0B0620" stroke-width="0.5" stroke-linecap="round" stroke-linejoin="round" d="
			M449.164,445.653c0.113,0.113,0.113,0.113,0.227,0.198c1.247,0.737,1.247,0.765,2.494,1.446c1.049,0.312,1.077,0.312,2.126,0.595
			c0.283,0.028,0.283,0.028,0.539,0.028c0.992-0.057,0.992-0.057,1.984-0.142c0.539-0.17,0.539-0.17,1.077-0.368"/>
		<path id="XMLID_271_" fill="none" stroke="#0B0620" stroke-width="0.5" stroke-linecap="round" stroke-linejoin="round" d="
			M486.071,366.368c-0.992,1.502-0.992,1.531-2.041,3.005c-0.794,0.822-0.822,0.794-1.672,1.616
			c-0.482,0.482-0.482,0.482-0.992,0.964c-1.616,1.134-1.616,1.134-3.26,2.239"/>
		<path id="XMLID_270_" fill="none" stroke="#0B0620" stroke-width="0.5" stroke-linecap="round" stroke-linejoin="round" d="
			M509.712,387.259c0.368-0.085,0.368-0.085,0.709-0.142c1.417-0.113,1.417-0.142,2.806-0.227c1.417,0.085,1.417,0.085,2.835,0.227
			c1.304,0.283,1.332,0.283,2.636,0.624c1.106,0.454,1.106,0.454,2.211,0.964"/>
		<path id="XMLID_269_" fill="none" stroke="#0B0620" stroke-width="0.5" stroke-linecap="round" stroke-linejoin="round" d="
			M520.909,388.705c12.274,7.115,12.302,7.115,24.605,14.202c0.879,0.397,0.879,0.397,1.758,0.737
			c1.02,0.227,1.02,0.227,2.069,0.397c1.077,0,1.077,0,2.154,0c1.021-0.17,1.021-0.198,2.069-0.397
			c0.567-0.198,0.567-0.227,1.134-0.454"/>
		<path id="XMLID_268_" fill="none" stroke="#0B0620" stroke-width="0.5" stroke-linecap="round" stroke-linejoin="round" d="
			M554.698,403.19c-0.624,0.283-0.624,0.283-1.276,0.539c-0.964,0.198-0.964,0.198-1.984,0.369c-1.02,0.028-1.02,0.028-2.069,0
			c-0.992-0.17-0.992-0.17-1.984-0.369c-0.935-0.397-0.935-0.397-1.871-0.822"/>
		<path id="XMLID_267_" fill="none" stroke="#0B0620" stroke-width="0.5" stroke-linecap="round" stroke-linejoin="round" d="
			M520.937,364.979c12.359,7.172,12.359,7.172,24.746,14.287c0.482,0.255,0.482,0.255,0.964,0.482
			c0.368,0.113,0.368,0.113,0.709,0.255c0.595,0.142,0.595,0.142,1.191,0.255c1.021,0.085,1.021,0.085,2.041,0.17
			c0.425-0.028,0.425-0.028,0.85-0.057c0.595-0.085,0.595-0.085,1.191-0.17c0.425-0.113,0.425-0.113,0.822-0.198
			c0.51-0.198,0.51-0.198,1.02-0.368c0.34-0.17,0.34-0.17,0.68-0.368c8.589-4.961,8.589-4.961,17.206-9.921
			c0.368-0.255,0.368-0.255,0.737-0.539c0.255-0.227,0.255-0.227,0.482-0.454c0.227-0.312,0.227-0.312,0.425-0.624
			c0.113-0.255,0.113-0.255,0.227-0.51"/>
		<path id="XMLID_266_" fill="none" stroke="#0B0620" stroke-width="0.5" stroke-linecap="round" stroke-linejoin="round" d="
			M568.077,379.294c-0.283-0.057-0.283-0.057-0.595-0.085c-0.482,0.028-0.51,0.028-0.992,0.057c-0.34,0.085-0.34,0.085-0.652,0.198
			c-0.567,0.227-0.567,0.227-1.106,0.51c-0.34,0.198-0.34,0.198-0.68,0.397c-0.539,0.454-0.539,0.454-1.105,0.935
			c-0.312,0.312-0.312,0.283-0.595,0.595c-0.51,0.624-0.51,0.624-0.992,1.247c-0.255,0.397-0.255,0.397-0.51,0.794
			c-0.567,1.077-0.567,1.077-1.106,2.183c-0.227,0.765-0.227,0.765-0.454,1.531c-0.085,0.368-0.085,0.368-0.17,0.765
			c-0.057,0.709-0.057,0.709-0.113,1.417c0.028,0.34,0.028,0.34,0.057,0.68c0.113,0.595,0.113,0.595,0.227,1.191
			c0.113,0.255,0.113,0.255,0.227,0.51c0.283,0.425,0.283,0.425,0.595,0.85"/>
		<path id="XMLID_265_" fill="none" stroke="#0B0620" stroke-width="0.5" stroke-linecap="round" stroke-linejoin="round" d="
			M253.46,332.182l0.113,0.085l-1.389-1.077l-0.595-0.879l-0.709-1.276l-0.227-1.134v-52.299l0.142-0.765l1.134-1.871l1.304-1.02
			l0.34-0.198l-1.361,1.049l-0.652,1.134l-0.028,0.737l0.028,0.482"/>
		<path id="XMLID_264_" fill="none" stroke="#0B0620" stroke-width="0.5" stroke-linecap="round" stroke-linejoin="round" d="
			M256.663,334.025l-3.09-1.758l2.75,1.587l-2.75-1.587"/>
		<path id="XMLID_263_" fill="none" stroke="#0B0620" stroke-width="0.5" stroke-linecap="round" stroke-linejoin="round" d="
			M253.573,271.748l24.605-14.202l-3.09,1.758"/>
		<path id="XMLID_262_" fill="none" stroke="#0B0620" stroke-width="0.5" stroke-linecap="round" stroke-linejoin="round" d="
			M256.323,333.855l46.998,27.128"/>
		<path id="XMLID_261_" fill="none" stroke="#0B0620" stroke-width="0.5" stroke-linecap="round" stroke-linejoin="round" d="
			M262.814,337.597l0.51,0.283"/>
		<path id="XMLID_260_" fill="none" stroke="#0B0620" stroke-width="0.5" stroke-linecap="round" stroke-linejoin="round" d="
			M263.636,276.226l1.162,0.907l1.077,0.624l-1.191-0.709l-1.304-1.02l-0.68-1.219v-1.276"/>
		<path id="XMLID_259_" fill="none" stroke="#0B0620" stroke-width="0.5" stroke-linecap="round" stroke-linejoin="round" d="
			M263.636,276.226l-0.567-0.964l0.028,0.085"/>
		<path id="XMLID_258_" fill="none" stroke="#0B0620" stroke-width="0.5" stroke-linecap="round" stroke-linejoin="round" d="
			M263.154,274.469v0.907"/>
		<path id="XMLID_257_" fill="none" stroke="#0B0620" stroke-width="0.5" stroke-linecap="round" stroke-linejoin="round" d="
			M281.24,286.63l2.098,1.191l-17.461-10.063"/>
		<path id="XMLID_256_" fill="none" stroke="#0B0620" stroke-width="0.5" stroke-linecap="round" stroke-linejoin="round" d="
			M272.225,220.356v-1.191l0.652-1.162l1.219-0.964l0.992-0.595l-1.219,0.709l-1.304,1.049l-1.105,1.843l-0.142,0.765v21.855
			l0.113,0.595l1.02,1.701l1.304,1.049l1.332,0.765l-1.304-0.765"/>
		<path id="XMLID_255_" fill="none" stroke="#0B0620" stroke-width="0.5" stroke-linecap="round" stroke-linejoin="round" d="
			M285.945,253.039l-10.857-6.265"/>
		<path id="XMLID_254_" fill="none" stroke="#0B0620" stroke-width="0.5" stroke-linecap="round" stroke-linejoin="round" d="
			M277.696,219.534l0.482,0.283l-0.737-0.425l1.672-0.964"/>
		<path id="XMLID_253_" fill="none" stroke="#0B0620" stroke-width="0.5" stroke-linecap="round" stroke-linejoin="round" d="
			M277.753,219.562l-0.567-0.312l-0.595-0.17"/>
		<path id="XMLID_252_" fill="none" stroke="#0B0620" stroke-width="0.5" stroke-linecap="round" stroke-linejoin="round" d="
			M275.088,216.444l4.025-2.296"/>
		<path id="XMLID_251_" fill="none" stroke="#0B0620" stroke-width="0.5" stroke-linecap="round" stroke-linejoin="round" d="
			M298.588,245.754l-20.409,11.792"/>
		<path id="XMLID_250_" fill="none" stroke="#0B0620" stroke-width="0.5" stroke-linecap="round" stroke-linejoin="round" d="
			M279.114,220.356l2.126,1.219l-3.061-1.757"/>
		<path id="XMLID_249_" fill="none" stroke="#0B0620" stroke-width="0.5" stroke-linecap="round" stroke-linejoin="round" d="
			M281.24,221.574l6.151,3.543l-3.033-1.729"/>
		<path id="XMLID_248_" fill="none" stroke="#0B0620" stroke-width="0.5" stroke-linecap="round" stroke-linejoin="round" d="
			M287.391,225.118l8.674,5.017l0.539-0.312l-0.539,0.312l-0.028,0.17"/>
		<path id="XMLID_247_" fill="none" stroke="#0B0620" stroke-width="0.5" stroke-linecap="round" stroke-linejoin="round" d="
			M296.065,230.135l-1.077-0.624"/>
		<path id="XMLID_246_" fill="none" stroke="#0B0620" stroke-width="0.5" stroke-linecap="round" stroke-linejoin="round" d="
			M296.603,229.823l9.213-5.329l-3.713,2.126"/>
		<path id="XMLID_245_" fill="none" stroke="#0B0620" stroke-width="0.5" stroke-linecap="round" stroke-linejoin="round" d="
			M300.884,243.628l0.368-1.474"/>
		<path id="XMLID_244_" fill="none" stroke="#0B0620" stroke-width="0.5" stroke-linecap="round" stroke-linejoin="round" d="
			M303.406,361.011l0.624,0.369l1.247,0.397"/>
		<path id="XMLID_243_" fill="none" stroke="#0B0620" stroke-width="0.5" stroke-linecap="round" stroke-linejoin="round" d="
			M313.725,357.071l-0.028,0.028"/>
		<path id="XMLID_242_" fill="none" stroke="#0B0620" stroke-width="0.5" stroke-linecap="round" stroke-linejoin="round" d="
			M305.816,224.494l7.228-4.167l-0.794,0.454"/>
		<path id="XMLID_241_" fill="none" stroke="#0B0620" stroke-width="0.5" stroke-linecap="round" stroke-linejoin="round" d="
			M329.202,347.83l-14.173,8.164l-1.134,0.879l-0.283,0.425"/>
		<path id="XMLID_240_" fill="none" stroke="#0B0620" stroke-width="0.5" stroke-linecap="round" stroke-linejoin="round" d="
			M313.98,355.285l-0.142-0.425l-0.028-0.765"/>
		<path id="XMLID_239_" fill="none" stroke="#0B0620" stroke-width="0.5" stroke-linecap="round" stroke-linejoin="round" d="
			M313.554,353.669l0.992-0.935l-0.255,0.227"/>
		<path id="XMLID_238_" fill="none" stroke="#0B0620" stroke-width="0.5" stroke-linecap="round" stroke-linejoin="round" d="
			M314.547,352.734l1.956-1.587l3.345-1.871"/>
		<path id="XMLID_237_" fill="none" stroke="#0B0620" stroke-width="0.5" stroke-linecap="round" stroke-linejoin="round" d="
			M313.639,354.718l0.227-0.85"/>
		<path id="XMLID_236_" fill="none" stroke="#0B0620" stroke-width="0.5" stroke-linecap="round" stroke-linejoin="round" d="
			M314.065,353.471l-0.454,0.935"/>
		<path id="XMLID_235_" fill="none" stroke="#0B0620" stroke-width="0.5" stroke-linecap="round" stroke-linejoin="round" d="
			M315.284,352.11l-0.907,0.964l-0.765,1.02"/>
		<path id="XMLID_234_" fill="none" stroke="#0B0620" stroke-width="0.5" stroke-linecap="round" stroke-linejoin="round" d="
			M313.044,220.327l1.304-0.765L313.044,220.327"/>
		<path id="XMLID_233_" fill="none" stroke="#0B0620" stroke-width="0.5" stroke-linecap="round" stroke-linejoin="round" d="
			M314.348,219.562l0.312-0.17l-2.409-1.417"/>
		<path id="XMLID_232_" fill="none" stroke="#0B0620" stroke-width="0.5" stroke-linecap="round" stroke-linejoin="round" d="
			M314.348,219.562l0.567-0.312l0.595-0.17"/>
		<path id="XMLID_231_" fill="none" stroke="#0B0620" stroke-width="0.5" stroke-linecap="round" stroke-linejoin="round" d="
			M435.302,284.759l2.636,1.502l-125.688-72.567"/>
		<path id="XMLID_230_" fill="none" stroke="#0B0620" stroke-width="0.5" stroke-linecap="round" stroke-linejoin="round" d="
			M327.586,287.14l-0.255,0.17"/>
		<path id="XMLID_229_" fill="none" stroke="#0B0620" stroke-width="0.5" stroke-linecap="round" stroke-linejoin="round" d="
			M336.147,277.077l-1.02,2.778"/>
		<path id="XMLID_228_" fill="none" stroke="#0B0620" stroke-width="0.5" stroke-linecap="round" stroke-linejoin="round" d="
			M336.345,274.384l-0.198,2.693"/>
		<path id="XMLID_227_" fill="none" stroke="#0B0620" stroke-width="0.5" stroke-linecap="round" stroke-linejoin="round" d="
			M346.947,353.924l-1.191-0.652l2.013,1.105L346.947,353.924"/>
		<path id="XMLID_226_" fill="none" stroke="#0B0620" stroke-width="0.5" stroke-linecap="round" stroke-linejoin="round" d="
			M347.769,354.378l4.422,3.061l4.904,2.296"/>
		<path id="XMLID_225_" fill="none" stroke="#0B0620" stroke-width="0.5" stroke-linecap="round" stroke-linejoin="round" d="
			M354.203,358.403l-1.984-0.935"/>
		<path id="XMLID_224_" fill="none" stroke="#0B0620" stroke-width="0.5" stroke-linecap="round" stroke-linejoin="round" d="
			M354.969,358.771l1.786,0.85"/>
		<path id="XMLID_223_" fill="none" stroke="#0B0620" stroke-width="0.5" stroke-linecap="round" stroke-linejoin="round" d="
			M400.805,417.278l0.255,0.142l-0.113-0.085"/>
		<path id="XMLID_222_" fill="none" stroke="#0B0620" stroke-width="0.5" stroke-linecap="round" stroke-linejoin="round" d="
			M379.885,397.776l-2.92-21.798"/>
		<path id="XMLID_221_" fill="none" stroke="#0B0620" stroke-width="0.5" stroke-linecap="round" stroke-linejoin="round" d="
			M381.302,395.395l-0.085-0.822l5.357-2.013l5.669,5.698"/>
		<path id="XMLID_220_" fill="none" stroke="#0B0620" stroke-width="0.5" stroke-linecap="round" stroke-linejoin="round" d="
			M463.762,498.774l7.965-4.479"/>
		<path id="XMLID_219_" fill="none" stroke="#0B0620" stroke-width="0.5" stroke-linecap="round" stroke-linejoin="round" d="
			M385.611,422.834l0.028,0.255"/>
		<path id="XMLID_218_" fill="none" stroke="#0B0620" stroke-width="0.5" stroke-linecap="round" stroke-linejoin="round" d="
			M384.194,453.137l-0.142-0.482"/>
		<path id="XMLID_217_" fill="none" stroke="#0B0620" stroke-width="0.5" stroke-linecap="round" stroke-linejoin="round" d="
			M383.287,447.071l0.028-0.34"/>
		<path id="XMLID_216_" fill="none" stroke="#0B0620" stroke-width="0.5" stroke-linecap="round" stroke-linejoin="round" d="
			M385.299,409.058l0.312,5.839v7.937v-0.539"/>
		<path id="XMLID_215_" fill="none" stroke="#0B0620" stroke-width="0.5" stroke-linecap="round" stroke-linejoin="round" d="
			M392.301,461.442l-0.51-0.227"/>
		<path id="XMLID_214_" fill="none" stroke="#0B0620" stroke-width="0.5" stroke-linecap="round" stroke-linejoin="round" d="
			M389.296,411.156l2.069,0.567l1.871-0.113"/>
		<path id="XMLID_213_" fill="none" stroke="#0B0620" stroke-width="0.5" stroke-linecap="round" stroke-linejoin="round" d="
			M393.236,400.299l0.992,7.427l-3.373,1.276"/>
		<path id="XMLID_212_" fill="none" stroke="#0B0620" stroke-width="0.5" stroke-linecap="round" stroke-linejoin="round" d="
			M388.871,409.738l0.085-0.028"/>
		<path id="XMLID_211_" fill="none" stroke="#0B0620" stroke-width="0.5" stroke-linecap="round" stroke-linejoin="round" d="
			M394.37,411.666l0.567,0.057l1.757-0.425l0.935-0.624"/>
		<path id="XMLID_210_" fill="none" stroke="#0B0620" stroke-width="0.5" stroke-linecap="round" stroke-linejoin="round" d="
			M394.597,411.581h0.085"/>
		<path id="XMLID_209_" fill="none" stroke="#0B0620" stroke-width="0.5" stroke-linecap="round" stroke-linejoin="round" d="
			M401.4,417.619l2.75,1.559l-3.09-1.757l21.515,12.416l-1.474-0.879"/>
		<path id="XMLID_208_" fill="none" stroke="#0B0620" stroke-width="0.5" stroke-linecap="round" stroke-linejoin="round" d="
			M401.06,417.42l0.34,0.198"/>
		<path id="XMLID_207_" fill="none" stroke="#0B0620" stroke-width="0.5" stroke-linecap="round" stroke-linejoin="round" d="
			M407.948,454.752v-1.247"/>
		<path id="XMLID_206_" fill="none" stroke="#0B0620" stroke-width="0.5" stroke-linecap="round" stroke-linejoin="round" d="
			M428.216,464.305h-0.085"/>
		<path id="XMLID_205_" fill="none" stroke="#0B0620" stroke-width="0.5" stroke-linecap="round" stroke-linejoin="round" d="
			M407.948,452.513v0.992v-1.162"/>
		<path id="XMLID_204_" fill="none" stroke="#0B0620" stroke-width="0.5" stroke-linecap="round" stroke-linejoin="round" d="
			M413.334,360.5v1.276l0.68,1.219l1.304,1.049l0.879,0.482l-0.765-0.425l-1.162-0.907"/>
		<path id="XMLID_203_" fill="none" stroke="#0B0620" stroke-width="0.5" stroke-linecap="round" stroke-linejoin="round" d="
			M416.197,364.526l18.68,10.8l-2.75-1.587"/>
		<path id="XMLID_202_" fill="none" stroke="#0B0620" stroke-width="0.5" stroke-linecap="round" stroke-linejoin="round" d="
			M414.269,363.193l-0.567-0.964l0.028,0.085"/>
		<path id="XMLID_201_" fill="none" stroke="#0B0620" stroke-width="0.5" stroke-linecap="round" stroke-linejoin="round" d="
			M413.788,361.464v-0.057v0.964"/>
		<path id="XMLID_200_" fill="none" stroke="#0B0620" stroke-width="0.5" stroke-linecap="round" stroke-linejoin="round" d="
			M416.764,459.826v-2.495"/>
		<path id="XMLID_199_" fill="none" stroke="#0B0620" stroke-width="0.5" stroke-linecap="round" stroke-linejoin="round" d="
			M424.021,464.702l-1.814,0.482l-0.935,0.113"/>
		<path id="XMLID_198_" fill="none" stroke="#0B0620" stroke-width="0.5" stroke-linecap="round" stroke-linejoin="round" d="
			M450.241,445.795l1.219,0.709"/>
		<path id="XMLID_197_" fill="none" stroke="#0B0620" stroke-width="0.5" stroke-linecap="round" stroke-linejoin="round" d="
			M427.536,464.362v-31.663"/>
		<path id="XMLID_196_" fill="none" stroke="#0B0620" stroke-width="0.5" stroke-linecap="round" stroke-linejoin="round" d="
			M534.232,341.848l-96.293-55.587"/>
		<path id="XMLID_195_" fill="none" stroke="#0B0620" stroke-width="0.5" stroke-linecap="round" stroke-linejoin="round" d="
			M442.361,441.231l-0.198-0.113"/>
		<path id="XMLID_194_" fill="none" stroke="#0B0620" stroke-width="0.5" stroke-linecap="round" stroke-linejoin="round" d="
			M452.424,496.167l-0.765-0.567"/>
		<path id="XMLID_193_" fill="none" stroke="#0B0620" stroke-width="0.5" stroke-linecap="round" stroke-linejoin="round" d="
			M456.052,447.439l-0.397,0.198l-1.871,0.113l-2.098-0.567"/>
		<path id="XMLID_192_" fill="none" stroke="#0B0620" stroke-width="0.5" stroke-linecap="round" stroke-linejoin="round" d="
			M455.513,447.297v-54.935"/>
		<path id="XMLID_191_" fill="none" stroke="#0B0620" stroke-width="0.5" stroke-linecap="round" stroke-linejoin="round" d="
			M459.17,486.217l0.17,0.255"/>
		<path id="XMLID_190_" fill="none" stroke="#0B0620" stroke-width="0.5" stroke-linecap="round" stroke-linejoin="round" d="
			M459.454,447.127l-0.964,0.425l-1.814,0.17"/>
		<path id="XMLID_189_" fill="none" stroke="#0B0620" stroke-width="0.5" stroke-linecap="round" stroke-linejoin="round" d="
			M460.786,496.96l-0.17,0.312"/>
		<path id="XMLID_188_" fill="none" stroke="#0B0620" stroke-width="0.5" stroke-linecap="round" stroke-linejoin="round" d="
			M461.523,491.858v0.397"/>
		<path id="XMLID_187_" fill="none" stroke="#0B0620" stroke-width="0.5" stroke-linecap="round" stroke-linejoin="round" d="
			M462.515,444.803l21.515-12.416l-3.061,1.757"/>
		<path id="XMLID_186_" fill="none" stroke="#0B0620" stroke-width="0.5" stroke-linecap="round" stroke-linejoin="round" d="
			M472.153,494.041l-0.425,0.255"/>
		<path id="XMLID_185_" fill="none" stroke="#0B0620" stroke-width="0.5" stroke-linecap="round" stroke-linejoin="round" d="
			M484.03,432.387l22.932-13.266"/>
		<path id="XMLID_184_" fill="none" stroke="#0B0620" stroke-width="0.5" stroke-linecap="round" stroke-linejoin="round" d="
			M486.78,364.044l-0.992,2.75"/>
		<path id="XMLID_183_" fill="none" stroke="#0B0620" stroke-width="0.5" stroke-linecap="round" stroke-linejoin="round" d="
			M486.978,361.351l-0.198,2.693"/>
		<path id="XMLID_182_" fill="none" stroke="#0B0620" stroke-width="0.5" stroke-linecap="round" stroke-linejoin="round" d="
			M505.885,419.773l1.077-0.652l1.247-0.964l1.304-2.154l0.198-1.134v-27.128v0.312"/>
		<path id="XMLID_181_" fill="none" stroke="#0B0620" stroke-width="0.5" stroke-linecap="round" stroke-linejoin="round" d="
			M507.586,387.571l0.765-0.028l1.361-0.283v0.482"/>
		<path id="XMLID_180_" fill="none" stroke="#0B0620" stroke-width="0.5" stroke-linecap="round" stroke-linejoin="round" d="
			M520.909,388.705l-0.142-0.085"/>
		<path id="XMLID_179_" fill="none" stroke="#0B0620" stroke-width="0.5" stroke-linecap="round" stroke-linejoin="round" d="
			M513.227,386.891l0.085-26.306"/>
		<path id="XMLID_178_" fill="none" stroke="#0B0620" stroke-width="0.5" stroke-linecap="round" stroke-linejoin="round" d="
			M521.561,389.074l-0.652-0.368"/>
		<path id="XMLID_177_" fill="none" stroke="#0B0620" stroke-width="0.5" stroke-linecap="round" stroke-linejoin="round" d="
			M574.228,367.219l0.057-0.68L574.228,366l-0.652-1.134l-1.219-0.992l-5.017-2.891"/>
		<path id="XMLID_176_" fill="none" stroke="#0B0620" stroke-width="0.5" stroke-linecap="round" stroke-linejoin="round" d="
			M532.049,366.397l1.134,0.652l-1.389-0.822l2.438-1.389"/>
		<path id="XMLID_175_" fill="none" stroke="#0B0620" stroke-width="0.5" stroke-linecap="round" stroke-linejoin="round" d="
			M533.183,367.048l3.09,1.757l-2.041-1.162"/>
		<path id="XMLID_174_" fill="none" stroke="#0B0620" stroke-width="0.5" stroke-linecap="round" stroke-linejoin="round" d="
			M532.106,366.425l-0.539-0.312l-0.624-0.198"/>
		<path id="XMLID_173_" fill="none" stroke="#0B0620" stroke-width="0.5" stroke-linecap="round" stroke-linejoin="round" d="
			M536.273,368.806l6.151,3.572l-2.948-1.701"/>
		<path id="XMLID_172_" fill="none" stroke="#0B0620" stroke-width="0.5" stroke-linecap="round" stroke-linejoin="round" d="
			M542.424,372.378l7.994,4.592v0.17"/>
		<path id="XMLID_171_" fill="none" stroke="#0B0620" stroke-width="0.5" stroke-linecap="round" stroke-linejoin="round" d="
			M550.417,404.041v-23.613"/>
		<path id="XMLID_170_" fill="none" stroke="#0B0620" stroke-width="0.5" stroke-linecap="round" stroke-linejoin="round" d="
			M567.34,365.263l1.672,0.992l-18.595,10.715l-0.312-0.17"/>
		<path id="XMLID_169_" fill="none" stroke="#0B0620" stroke-width="0.5" stroke-linecap="round" stroke-linejoin="round" d="
			M555.293,402.907l0.198-0.085l-0.794,0.368L555.293,402.907"/>
		<path id="XMLID_168_" fill="none" stroke="#0B0620" stroke-width="0.5" stroke-linecap="round" stroke-linejoin="round" d="
			M555.491,402.822l11.849-6.86"/>
		<path id="XMLID_167_" fill="none" stroke="#0B0620" stroke-width="0.5" stroke-linecap="round" stroke-linejoin="round" d="
			M569.977,381.052l-0.652-1.049l-0.454-0.312l-0.794-0.397"/>
		<path id="XMLID_166_" fill="none" stroke="#0B0620" stroke-width="0.5" stroke-linecap="round" stroke-linejoin="round" d="
			M560.112,393.071l0.397,0.283l0.85,0.454l0.992,0.028"/>
		<path id="XMLID_165_" fill="none" stroke="#0B0620" stroke-width="0.5" stroke-linecap="round" stroke-linejoin="round" d="
			M561.954,393.694l0.935,0.312l0.964-0.057"/>
		<path id="XMLID_164_" fill="none" stroke="#0B0620" stroke-width="0.5" stroke-linecap="round" stroke-linejoin="round" d="
			M569.523,380.57l-0.397-0.255l0.935,0.85L569.523,380.57"/>
		<path id="XMLID_163_" fill="none" stroke="#0B0620" stroke-width="0.5" stroke-linecap="round" stroke-linejoin="round" d="
			M569.126,380.315l-0.794-0.454"/>
		<path id="XMLID_162_" fill="none" stroke="#0B0620" stroke-width="0.5" stroke-linecap="round" stroke-linejoin="round" d="
			M569.863,365.915l-0.624,0.198l-0.227,0.142"/>
		<path id="XMLID_161_" fill="none" stroke="#0B0620" stroke-width="0.5" stroke-linecap="round" stroke-linejoin="round" d="
			M570.147,381.222l-0.085-0.057l0.425,0.369l0.283,0.652"/>
		<path id="XMLID_160_" fill="none" stroke="#0B0620" stroke-width="0.5" stroke-linecap="round" stroke-linejoin="round" d="
			M570.062,362.541l2.523,1.474l1.304,1.02l1.106,1.871l0.142,0.737v17.065v-1.757"/>
		<path id="XMLID_159_" fill="none" stroke="#0B0620" stroke-width="0.5" stroke-linecap="round" stroke-linejoin="round" d="
			M575.136,379.861V376.8"/>
		<path id="XMLID_158_" fill="none" stroke="#0B0620" stroke-width="0.5" stroke-linecap="round" stroke-linejoin="round" d="
			M575.136,370.677v-2.296"/>
		<path id="XMLID_157_" fill="none" stroke="#0B0620" stroke-width="0.5" stroke-linecap="round" stroke-linejoin="round" d="
			M473.927,486.432c-2.859-16.941-3.355-32.98-1.466-47.378"/>
		<path id="XMLID_156_" fill="none" stroke="#0B0620" stroke-width="0.5" stroke-linecap="round" stroke-linejoin="round" d="
			M396.794,454.075c-0.815,1.664-2.975,1.386-4.824-0.622c-1.849-2.008-2.687-4.985-1.871-6.65c0.367-0.75,1.032-1.136,1.865-1.082"
			/>
		<path id="XMLID_155_" fill="none" stroke="#0B0620" stroke-width="0.5" stroke-linecap="round" stroke-linejoin="round" d="
			M473.922,486.43c0.567,3.372-0.087,6.173-1.78,7.62"/>
		<path id="XMLID_154_" fill="none" stroke="#0B0620" stroke-width="0.5" stroke-linecap="round" stroke-linejoin="round" d="
			M452.299,496.521c-3.815-3.562-5.955-9.47-4.779-13.196c1.176-3.726,5.222-3.86,9.038-0.298c0.984,0.919,1.892,2.033,2.664,3.267"
			/>
		<path id="XMLID_153_" fill="none" stroke="#0B0620" stroke-width="0.5" stroke-linecap="round" stroke-linejoin="round" d="
			M460.95,497.139c-1.545,2.84-5.225,2.577-8.648-0.618"/>
		<path id="XMLID_152_" fill="none" stroke="#0B0620" stroke-width="0.5" stroke-linecap="round" stroke-linejoin="round" d="
			M459.221,486.294c1.183,1.895,1.99,3.987,2.296,5.956"/>
		<path id="XMLID_151_" fill="none" stroke="#0B0620" stroke-width="0.5" stroke-linecap="round" stroke-linejoin="round" d="
			M461.52,492.249c0.302,1.94,0.102,3.655-0.57,4.89"/>
		<path id="XMLID_150_" fill="none" stroke="#0B0620" stroke-width="0.5" stroke-linecap="round" stroke-linejoin="round" d="
			M391.649,461.632c-3.253-0.927-6.646-4.643-8.195-8.974"/>
		<path id="XMLID_149_" fill="none" stroke="#0B0620" stroke-width="0.5" stroke-linecap="round" stroke-linejoin="round" d="
			M383.454,452.66c-0.832-2.326-1.037-4.582-0.575-6.327"/>
		<path id="XMLID_148_" fill="none" stroke="#0B0620" stroke-width="0.5" stroke-linecap="round" stroke-linejoin="round" d="
			M382.879,446.334c1.022-3.87,4.983-4.242,8.846-0.831c3.863,3.411,6.166,9.314,5.144,13.185c-0.673,2.546-2.671,3.675-5.219,2.948
			"/>
		<path id="XMLID_147_" fill="none" stroke="#0B0620" stroke-width="0.5" stroke-linecap="round" stroke-linejoin="round" d="
			M461.118,491.73c-1.063,1.37-3.318,0.682-5.036-1.537c-1.718-2.219-2.249-5.129-1.185-6.5c0.386-0.498,0.951-0.741,1.621-0.7"/>
	</g>
	<g>
		<path id="XMLID_146_" fill="none" stroke="#0B0620" stroke-width="0.5" stroke-linecap="round" stroke-linejoin="round" d="
			M279.142,128.598c-0.283-0.283-0.283-0.283-0.567-0.567c-0.652-0.51-0.652-0.51-1.304-1.02c-0.737-0.482-0.737-0.482-1.502-0.964"
			/>
		<path id="XMLID_145_" fill="none" stroke="#0B0620" stroke-width="0.5" stroke-linecap="round" stroke-linejoin="round" d="
			M275.769,126.047c-6.151-3.487-6.151-3.487-12.274-7.058c-1.417-0.935-1.417-0.935-2.778-1.956
			c-1.191-1.191-1.191-1.191-2.353-2.438c-0.879-1.361-0.907-1.361-1.729-2.75c-0.567-1.474-0.595-1.474-1.077-2.948
			c-0.198-1.474-0.17-1.474-0.34-2.948c0.028-0.227,0.028-0.227,0.028-0.425c0.227-1.417,0.198-1.417,0.454-2.835
			c0.567-1.247,0.595-1.247,1.191-2.466c0.142-0.198,0.142-0.198,0.283-0.397c0.935-1.02,0.935-1.049,1.899-2.013
			c1.191-0.737,1.219-0.709,2.438-1.417c0.198-0.085,0.198-0.085,0.397-0.17c1.417-0.34,1.417-0.397,2.835-0.709
			c1.531-0.057,1.559-0.028,3.09,0c1.587,0.312,1.587,0.312,3.175,0.68c1.531,0.652,1.531,0.652,3.061,1.361
			c1.389,0.964,1.417,0.964,2.778,1.956c1.191,1.191,1.191,1.191,2.353,2.438c0.907,1.361,0.907,1.361,1.757,2.75
			c0.567,1.474,0.567,1.474,1.077,2.948"/>
		<path id="XMLID_144_" fill="none" stroke="#0B0620" stroke-width="0.5" stroke-linecap="round" stroke-linejoin="round" d="
			M278.121,121.908c-6.151-3.515-6.151-3.515-12.302-7.087c-0.992-0.68-0.992-0.68-1.984-1.389c-0.85-0.85-0.85-0.85-1.672-1.757
			c-0.624-0.964-0.652-0.964-1.247-1.984c-0.368-0.935-0.368-0.935-0.68-1.899"/>
		<path id="XMLID_143_" fill="none" stroke="#0B0620" stroke-width="0.5" stroke-linecap="round" stroke-linejoin="round" d="
			M277.328,108.642c-0.312-0.907-0.312-0.907-0.652-1.786c-0.624-0.992-0.624-1.02-1.276-1.984
			c-0.822-0.879-0.822-0.879-1.672-1.729c-0.992-0.737-0.992-0.737-1.984-1.417c-1.105-0.51-1.105-0.51-2.211-0.964
			c-1.134-0.283-1.134-0.283-2.268-0.51c-0.935,0-0.935,0-1.899,0.028"/>
		<path id="XMLID_142_" fill="none" stroke="#0B0620" stroke-width="0.5" stroke-linecap="round" stroke-linejoin="round" d="
			M283.706,126.586c-0.368-0.454-0.368-0.454-0.737-0.907c-0.624-0.624-0.595-0.624-1.247-1.247c-0.822-0.68-0.822-0.68-1.672-1.332
			c-0.935-0.595-0.935-0.595-1.899-1.219"/>
		<path id="XMLID_141_" fill="none" stroke="#0B0620" stroke-width="0.5" stroke-linecap="round" stroke-linejoin="round" d="
			M279.369,128.825c2.721,3.345,2.721,3.373,5.471,6.69c0.482,0.482,0.482,0.454,0.964,0.935c0.198,0.17,0.198,0.17,0.397,0.312
			c0.624,0.369,0.624,0.397,1.247,0.737c0.737,0.283,0.737,0.283,1.502,0.539"/>
		<path id="XMLID_140_" fill="none" stroke="#0B0620" stroke-width="0.5" stroke-linecap="round" stroke-linejoin="round" d="
			M314.093,147.874c-3.43-4.224-3.43-4.224-6.888-8.447c-0.482-0.454-0.51-0.454-0.992-0.907c-0.198-0.17-0.198-0.17-0.397-0.34
			c-0.624-0.368-0.624-0.368-1.247-0.709c-0.737-0.283-0.737-0.283-1.474-0.539c-2.041-0.567-2.041-0.567-4.082-1.106"/>
		<path id="XMLID_139_" fill="none" stroke="#0B0620" stroke-width="0.5" stroke-linecap="round" stroke-linejoin="round" d="
			M282.033,107.65l3.175,13.209l0.227,0.567"/>
		<path id="XMLID_138_" fill="none" stroke="#0B0620" stroke-width="0.5" stroke-linecap="round" stroke-linejoin="round" d="
			M260.235,107.792l-0.227-1.899l0.283-1.757"/>
		<path id="XMLID_137_" fill="none" stroke="#0B0620" stroke-width="0.5" stroke-linecap="round" stroke-linejoin="round" d="
			M262.049,101.584l-1.105,1.191l-0.652,1.361"/>
		<path id="XMLID_136_" fill="none" stroke="#0B0620" stroke-width="0.5" stroke-linecap="round" stroke-linejoin="round" d="
			M265.365,100.28l-1.871,0.482l-1.446,0.822"/>
		<path id="XMLID_135_" fill="none" stroke="#0B0620" stroke-width="0.5" stroke-linecap="round" stroke-linejoin="round" d="
			M278.15,121.88l-5.981-3.402"/>
		<path id="XMLID_134_" fill="none" stroke="#0B0620" stroke-width="0.5" stroke-linecap="round" stroke-linejoin="round" d="
			M281.551,124.289l-0.227-0.312l-0.17-0.368l-0.595-1.587l-3.146-13.124"/>
		<path id="XMLID_133_" fill="none" stroke="#0B0620" stroke-width="0.5" stroke-linecap="round" stroke-linejoin="round" d="
			M288.95,138.037l12.869,3.515l0.765,0.283"/>
		<path id="XMLID_132_" fill="none" stroke="#0B0620" stroke-width="0.5" stroke-linecap="round" stroke-linejoin="round" d="
			M283.365,126.16l0.227,0.17l0.142,0.085"/>
		<path id="XMLID_131_" fill="none" stroke="#0B0620" stroke-width="0.5" stroke-linecap="round" stroke-linejoin="round" d="
			M302.386,141.723l0.68,0.369l0.51,0.482l6.945,8.504"/>
		<path id="XMLID_130_" fill="none" stroke="#0B0620" stroke-width="0.5" stroke-linecap="round" stroke-linejoin="round" d="
			M325.602,145.096l-21.487-12.416"/>
		<path id="XMLID_129_" fill="none" stroke="#0B0620" stroke-width="0.5" stroke-linecap="round" stroke-linejoin="round" d="
			M323.079,149.178l-15.024-8.702"/>
		
			<ellipse id="XMLID_128_" transform="matrix(-0.6342 -0.7732 0.7732 -0.6342 394.7698 485.5616)" fill="none" stroke="#0B0620" stroke-width="0.5" stroke-linecap="round" stroke-linejoin="round" cx="312.251" cy="149.393" rx="1.786" ry="2.409"/>
		
			<ellipse id="XMLID_127_" transform="matrix(-0.866 -0.5 0.5 -0.866 531.5507 436.6056)" fill="none" stroke="#0B0620" stroke-width="0.5" stroke-linecap="round" stroke-linejoin="round" cx="324.269" cy="147.088" rx="1.389" ry="2.409"/>
	</g>
	<g>
		<path id="XMLID_126_" fill="none" stroke="#0B0620" stroke-width="0.5" stroke-linecap="round" stroke-linejoin="round" d="
			M529.469,301.228c-0.907-0.595-0.907-0.595-1.814-1.219c-0.822-0.709-0.822-0.709-1.616-1.417c-0.68-0.794-0.68-0.794-1.361-1.587
			c-0.539-0.85-0.567-0.879-1.077-1.729c-0.397-0.907-0.397-0.907-0.737-1.786c-0.198-0.935-0.198-0.935-0.369-1.871"/>
		<path id="XMLID_125_" fill="none" stroke="#0B0620" stroke-width="0.5" stroke-linecap="round" stroke-linejoin="round" d="
			M522.496,291.619c-0.028,0.964-0.028,2.92,0,5.839c0.142,0.935,0.17,0.935,0.369,1.899c0.34,0.907,0.34,0.907,0.737,1.814
			c0.51,0.879,0.539,0.879,1.077,1.757c0.68,0.794,0.68,0.822,1.361,1.616c0.794,0.709,0.794,0.709,1.616,1.417
			c0.907,0.624,0.907,0.624,1.814,1.219c1.02,0.539,1.02,0.539,2.041,1.02c1.134,0.397,1.134,0.397,2.239,0.794
			c1.191,0.283,1.191,0.283,2.381,0.539c1.276,0.17,1.276,0.17,2.523,0.34c1.247,0.028,1.276,0.028,2.523,0.057
			c1.276-0.113,1.276-0.113,2.551-0.227c1.304-0.227,1.304-0.227,2.608-0.482c1.276-0.312,1.276-0.312,2.58-0.68"/>
		<path id="XMLID_124_" fill="none" stroke="#0B0620" stroke-width="0.5" stroke-linecap="round" stroke-linejoin="round" d="
			M548.915,302.787c1.276-0.425,1.276-0.425,2.551-0.879c1.162-0.51,1.162-0.51,2.296-1.02c1.105-0.567,1.105-0.567,2.183-1.162
			c0.992-0.624,0.992-0.652,1.984-1.304c1.729-1.191,1.729-1.191,3.487-2.409"/>
		<path id="XMLID_123_" fill="none" stroke="#0B0620" stroke-width="0.5" stroke-linecap="round" stroke-linejoin="round" d="
			M561.416,296.012c4.422-2.58,4.422-2.58,8.872-5.131c1.729-0.822,1.757-0.794,3.487-1.587c0.85-0.425,0.85-0.425,1.701-0.85
			c0.284-0.17,0.284-0.17,0.567-0.368"/>
		<path id="XMLID_122_" fill="none" stroke="#0B0620" stroke-width="0.5" stroke-linecap="round" stroke-linejoin="round" d="
			M522.496,291.619c-0.028-0.964-0.028-0.964,0-1.928c0.17-0.964,0.17-0.992,0.369-1.928c0.368-0.992,0.368-0.992,0.765-1.928
			c0.51-0.879,0.51-0.879,1.049-1.729c0.709-0.822,0.709-0.822,1.417-1.616c0.822-0.737,0.85-0.737,1.701-1.446
			c1.729-1.219,1.729-1.219,3.487-2.409"/>
		<path id="XMLID_121_" fill="none" stroke="#0B0620" stroke-width="0.5" stroke-linecap="round" stroke-linejoin="round" d="
			M529.469,301.228c1.02,0.51,1.02,0.51,2.041,1.02c1.106,0.397,1.134,0.397,2.239,0.794c1.191,0.283,1.191,0.283,2.381,0.567
			c1.276,0.198,1.276,0.198,2.523,0.34c1.247,0.057,1.247,0.057,2.523,0.113c1.276-0.085,1.276-0.085,2.551-0.198
			c1.304-0.198,1.304-0.198,2.608-0.425c1.304-0.312,1.304-0.312,2.58-0.652"/>
		<path id="XMLID_120_" fill="none" stroke="#0B0620" stroke-width="0.5" stroke-linecap="round" stroke-linejoin="round" d="
			M535.394,287.111c0.057-0.567,0.057-0.567,0.142-1.134c0.198-0.624,0.198-0.624,0.453-1.219c0.34-0.595,0.34-0.624,0.709-1.191
			c0.567-0.595,0.567-0.595,1.134-1.162c0.397-0.312,0.397-0.312,0.794-0.595"/>
		<path id="XMLID_119_" fill="none" stroke="#0B0620" stroke-width="0.5" stroke-linecap="round" stroke-linejoin="round" d="
			M547.923,294.226c0.765-0.085,0.765-0.085,1.531-0.198c0.935-0.198,0.935-0.198,1.871-0.425c0.879-0.283,0.879-0.283,1.758-0.567
			c0.907-0.397,0.907-0.397,1.786-0.794c0.652-0.368,0.652-0.368,1.304-0.737"/>
		<path id="XMLID_118_" fill="none" stroke="#0B0620" stroke-width="0.5" stroke-linecap="round" stroke-linejoin="round" d="
			M548.915,308.541c1.502-0.539,1.502-0.539,3.005-1.106c0.935-0.425,0.935-0.425,1.843-0.85c1.105-0.595,1.105-0.595,2.183-1.219
			c0.992-0.652,0.992-0.652,1.984-1.304c0.68-0.482,0.68-0.482,1.332-0.992"/>
		<path id="XMLID_117_" fill="none" stroke="#0B0620" stroke-width="0.5" stroke-linecap="round" stroke-linejoin="round" d="
			M562.918,272.57c1.247,0.454,1.247,0.454,2.523,0.907c1.191,0.482,1.191,0.482,2.381,0.992c1.105,0.51,1.105,0.51,2.239,1.049
			c1.02,0.539,1.02,0.539,2.041,1.105c0.907,0.567,0.907,0.567,1.814,1.134c0.284,0.198,0.284,0.198,0.539,0.368"/>
		<path id="XMLID_116_" fill="none" stroke="#0B0620" stroke-width="0.5" stroke-linecap="round" stroke-linejoin="round" d="
			M578.622,291.335c-0.085,0.198-0.085,0.227-0.198,0.425c-0.312,0.369-0.312,0.369-0.652,0.737
			c-0.454,0.368-0.454,0.368-0.879,0.737c-0.709,0.425-0.709,0.425-1.417,0.85c-0.85,0.425-0.85,0.425-1.701,0.822
			c-0.68,0.283-0.68,0.283-1.361,0.567"/>
		<path id="XMLID_115_" fill="none" stroke="#0B0620" stroke-width="0.5" stroke-linecap="round" stroke-linejoin="round" d="
			M571.28,297.004c0.085-0.255,0.085-0.255,0.17-0.51c0.142-0.227,0.142-0.227,0.283-0.425c0.17-0.17,0.17-0.198,0.34-0.369
			c0.17-0.113,0.17-0.113,0.34-0.227"/>
		<path id="XMLID_114_" fill="none" stroke="#0B0620" stroke-width="0.5" stroke-linecap="round" stroke-linejoin="round" d="
			M529.469,307.181v-5.953"/>
		<path id="XMLID_113_" fill="none" stroke="#0B0620" stroke-width="0.5" stroke-linecap="round" stroke-linejoin="round" d="
			M548.915,308.541v-5.754"/>
		<path id="XMLID_112_" fill="none" stroke="#0B0620" stroke-width="0.5" stroke-linecap="round" stroke-linejoin="round" d="
			M531.284,278.636l7.455-4.309"/>
		<path id="XMLID_111_" fill="none" stroke="#0B0620" stroke-width="0.5" stroke-linecap="round" stroke-linejoin="round" d="
			M537.066,291.25v-1.134l-0.028-0.369l-0.142-0.227l-0.17-0.085l-0.227,0.113l-0.227,0.255l-0.113,0.255"/>
		<path id="XMLID_110_" fill="none" stroke="#0B0620" stroke-width="0.5" stroke-linecap="round" stroke-linejoin="round" d="
			M556.172,291.505l6.69-3.883"/>
		<path id="XMLID_109_" fill="none" stroke="#0B0620" stroke-width="0.5" stroke-linecap="round" stroke-linejoin="round" d="
			M556.484,305.026l6.208,3.543"/>
		<path id="XMLID_108_" fill="none" stroke="#0B0620" stroke-width="0.5" stroke-linecap="round" stroke-linejoin="round" d="
			M560.48,303.609v1.219"/>
		<path id="XMLID_107_" fill="none" stroke="#0B0620" stroke-width="0.5" stroke-linecap="round" stroke-linejoin="round" d="
			M562.521,272.428l0.397,0.142"/>
		<path id="XMLID_106_" fill="none" stroke="#0B0620" stroke-width="0.5" stroke-linecap="round" stroke-linejoin="round" d="
			M578.679,287.14l-0.057,4.195l0.454-0.992v-1.049"/>
		<path id="XMLID_105_" fill="none" stroke="#0B0620" stroke-width="0.5" stroke-linecap="round" stroke-linejoin="round" d="
			M579.076,289.294v-2.296"/>
		<path id="XMLID_104_" fill="none" stroke="#0B0620" stroke-width="0.5" stroke-linecap="round" stroke-linejoin="round" d="
			M578.509,282.066l-0.085-0.113"/>
		<path id="XMLID_103_" fill="none" stroke="#0B0620" stroke-width="0.5" stroke-linecap="round" stroke-linejoin="round" d="
			M559.262,303.071l0.369-0.17l0.34-0.028l0.255,0.113l0.17,0.255l0.085,0.368"/>
		<path id="XMLID_102_" fill="none" stroke="#0B0620" stroke-width="0.5" stroke-linecap="round" stroke-linejoin="round" d="
			M547.906,294.17c-6.547,0.881-12.14-2.018-12.491-6.476c-0.015-0.193-0.02-0.387-0.015-0.583"/>
		<path id="XMLID_101_" fill="none" stroke="#0B0620" stroke-width="0.5" stroke-linecap="round" stroke-linejoin="round" d="
			M564.092,308.607c-2.167,0.386-3.622-1.131-3.623-3.779"/>
	</g>
	<g>
		<path id="XMLID_100_" fill="none" stroke="#0B0620" stroke-width="0.5" stroke-linecap="round" stroke-linejoin="round" d="
			M534.232,398.286c-0.028,0.624-0.028,0.624,0,1.219c0,0.142,0,0.142,0.028,0.255c0.028,0.113,0.028,0.113,0.085,0.255
			c0.057,0.113,0.057,0.113,0.142,0.227c0.085,0.113,0.085,0.113,0.17,0.227c0.085,0.057,0.085,0.057,0.198,0.142
			c0.652,0.368,0.652,0.368,1.276,0.737"/>
		<path id="XMLID_99_" fill="none" stroke="#0B0620" stroke-width="0.5" stroke-linecap="round" stroke-linejoin="round" d="
			M538.682,292.554c-0.085-8.702-0.085-8.702-0.057-17.433c0.17-1.276,0.198-1.276,0.397-2.551c0.198-0.879,0.17-0.907,0.397-1.758
			c0.567-1.134,0.595-1.134,1.191-2.211c0.51-0.765,0.51-0.765,1.049-1.474c0.822-0.765,0.822-0.765,1.672-1.502
			c0.68-0.539,0.68-0.539,1.361-1.02c0.879-0.425,0.907-0.425,1.786-0.794c1.361-0.368,1.361-0.368,2.721-0.68
			c0.794-0.085,0.794-0.085,1.587-0.113c0.794,0.028,0.794,0.028,1.587,0.113c1.361,0.312,1.361,0.312,2.721,0.68
			c0.879,0.369,0.907,0.369,1.786,0.794c0.68,0.482,0.68,0.482,1.361,1.02c0.85,0.737,0.85,0.737,1.672,1.502
			c0.539,0.709,0.539,0.709,1.049,1.474c0.595,1.077,0.624,1.077,1.191,2.211c0.227,0.85,0.198,0.879,0.397,1.758
			c0.198,1.276,0.198,1.276,0.397,2.551c0.028,0.425,0.028,0,0,0.822"/>
		<path id="XMLID_98_" fill="none" stroke="#0B0620" stroke-width="0.5" stroke-linecap="round" stroke-linejoin="round" d="
			M546.846,309.08c0.284,0.085,0.284,0.085,0.567,0.142c0.935,0.113,0.935,0.113,1.871,0.227c1.984-0.028,1.984-0.057,3.997-0.113
			c0.425-0.057,0.425-0.057,0.879-0.113c1.417-0.34,1.446-0.34,2.863-0.709c1.191-0.51,1.191-0.51,2.381-1.077"/>
		<path id="XMLID_97_" fill="none" stroke="#0B0620" stroke-width="0.5" stroke-linecap="round" stroke-linejoin="round" d="
			M560.367,279.486c-0.397,0.113-0.397,0.113-0.765,0.255c-0.113,0.057-0.113,0.057-0.227,0.142
			c-0.312,0.198-0.312,0.198-0.652,0.425c-0.198,0.17-0.198,0.17-0.425,0.369c-0.227,0.198-0.227,0.198-0.425,0.425
			c-0.397,0.454-0.397,0.454-0.765,0.935c-0.255,0.51-0.255,0.51-0.51,1.049c-0.113,0.482-0.113,0.51-0.17,1.02"/>
		<path id="XMLID_96_" fill="none" stroke="#0B0620" stroke-width="0.5" stroke-linecap="round" stroke-linejoin="round" d="
			M534.232,399.505v-1.219"/>
		<path id="XMLID_95_" fill="none" stroke="#0B0620" stroke-width="0.5" stroke-linecap="round" stroke-linejoin="round" d="
			M536.131,401.348l-1.276-0.737"/>
		<path id="XMLID_94_" fill="none" stroke="#0B0620" stroke-width="0.5" stroke-linecap="round" stroke-linejoin="round" d="
			M542.424,404.976l3.061,1.757l-10.63-6.123"/>
		<path id="XMLID_93_" fill="none" stroke="#0B0620" stroke-width="0.5" stroke-linecap="round" stroke-linejoin="round" d="
			M534.232,396.387v3.118"/>
		<path id="XMLID_92_" fill="none" stroke="#0B0620" stroke-width="0.5" stroke-linecap="round" stroke-linejoin="round" d="
			M534.232,367.644v-3.118V367.644"/>
		<path id="XMLID_91_" fill="none" stroke="#0B0620" stroke-width="0.5" stroke-linecap="round" stroke-linejoin="round" d="
			M534.232,364.526V349.19v3.061"/>
		<path id="XMLID_90_" fill="none" stroke="#0B0620" stroke-width="0.5" stroke-linecap="round" stroke-linejoin="round" d="
			M534.232,349.19v-40.11"/>
		<path id="XMLID_89_" fill="none" stroke="#0B0620" stroke-width="0.5" stroke-linecap="round" stroke-linejoin="round" d="
			M545.485,406.734l4.677,2.721"/>
		<path id="XMLID_88_" fill="none" stroke="#0B0620" stroke-width="0.5" stroke-linecap="round" stroke-linejoin="round" d="
			M550.162,409.455l-1.616-0.935L550.162,409.455l0.255,0.085l0.624,0.028l0.368-0.142l0.227-0.113l-0.057,0.028"/>
		<path id="XMLID_87_" fill="none" stroke="#0B0620" stroke-width="0.5" stroke-linecap="round" stroke-linejoin="round" d="
			M547.81,408.094l-1.049-0.595"/>
		<path id="XMLID_86_" fill="none" stroke="#0B0620" stroke-width="0.5" stroke-linecap="round" stroke-linejoin="round" d="
			M550.786,312.397l-4.11-2.381"/>
		<path id="XMLID_85_" fill="none" stroke="#0B0620" stroke-width="0.5" stroke-linecap="round" stroke-linejoin="round" d="
			M550.786,409.568v-5.471"/>
		<path id="XMLID_84_" fill="none" stroke="#0B0620" stroke-width="0.5" stroke-linecap="round" stroke-linejoin="round" d="
			M551.636,409.313l3.061-1.758L551.636,409.313"/>
		<path id="XMLID_83_" fill="none" stroke="#0B0620" stroke-width="0.5" stroke-linecap="round" stroke-linejoin="round" d="
			M550.786,312.397v64.375"/>
		<path id="XMLID_82_" fill="none" stroke="#0B0620" stroke-width="0.5" stroke-linecap="round" stroke-linejoin="round" d="
			M550.786,312.397l4.11-2.381"/>
		<path id="XMLID_81_" fill="none" stroke="#0B0620" stroke-width="0.5" stroke-linecap="round" stroke-linejoin="round" d="
			M554.698,407.556l5.414-3.146l-2.353,1.361"/>
		<path id="XMLID_80_" fill="none" stroke="#0B0620" stroke-width="0.5" stroke-linecap="round" stroke-linejoin="round" d="
			M556.427,284.107l0.17,0.907l0.51,0.68l0.765,0.397h0.85l0.85-0.397"/>
		<path id="XMLID_79_" fill="none" stroke="#0B0620" stroke-width="0.5" stroke-linecap="round" stroke-linejoin="round" d="
			M560.112,404.409l6.605-3.798"/>
		<path id="XMLID_78_" fill="none" stroke="#0B0620" stroke-width="0.5" stroke-linecap="round" stroke-linejoin="round" d="
			M562.947,282.122v-0.028"/>
		<path id="XMLID_77_" fill="none" stroke="#0B0620" stroke-width="0.5" stroke-linecap="round" stroke-linejoin="round" d="
			M566.717,400.611l-1.304,0.737L566.717,400.611l0.283-0.255l0.312-0.567l0.028-0.283v-1.219v1.219v-3.543"/>
		<path id="XMLID_76_" fill="none" stroke="#0B0620" stroke-width="0.5" stroke-linecap="round" stroke-linejoin="round" d="
			M567.34,366.085v1.106v-2.665V366.085"/>
		<path id="XMLID_75_" fill="none" stroke="#0B0620" stroke-width="0.5" stroke-linecap="round" stroke-linejoin="round" d="
			M567.34,364.526v2.665v-18v3.061"/>
		<path id="XMLID_74_" fill="none" stroke="#0B0620" stroke-width="0.5" stroke-linecap="round" stroke-linejoin="round" d="
			M567.34,349.19v-38.693"/>
		<path id="XMLID_73_" fill="none" stroke="#0B0620" stroke-width="0.5" stroke-linecap="round" stroke-linejoin="round" d="
			M561.586,281.329l-0.028-0.68l-0.198-0.709l-0.397-0.397l-0.624,0.113"/>
		<path id="XMLID_72_" fill="none" stroke="#0B0620" stroke-width="0.5" stroke-linecap="round" stroke-linejoin="round" d="
			M556.892,373.239c-0.357-1.388,0.472-3.494,1.853-4.702c1.381-1.209,2.79-1.063,3.147,0.325c0.11,0.426,0.11,0.939,0,1.492"/>
		
			<ellipse id="XMLID_71_" transform="matrix(-0.866 -0.5 0.5 -0.866 883.164 879.3454)" fill="none" stroke="#0B0620" stroke-width="0.5" stroke-linecap="round" stroke-linejoin="round" cx="559.392" cy="321.351" rx="2.098" ry="3.657"/>
		
			<ellipse id="XMLID_70_" transform="matrix(0.866 0.5 -0.5 0.866 254.246 -231.6441)" fill="none" stroke="#0B0620" stroke-width="0.5" stroke-linecap="round" stroke-linejoin="round" cx="559.392" cy="358.624" rx="2.098" ry="3.657"/>
		
			<ellipse id="XMLID_69_" transform="matrix(-0.866 -0.5 0.5 -0.866 870.7397 925.7133)" fill="none" stroke="#0B0620" stroke-width="0.5" stroke-linecap="round" stroke-linejoin="round" cx="559.392" cy="346.2" rx="2.098" ry="3.657"/>
		
			<ellipse id="XMLID_68_" transform="matrix(0.866 0.5 -0.5 0.866 241.8221 -234.973)" fill="none" stroke="#0B0620" stroke-width="0.5" stroke-linecap="round" stroke-linejoin="round" cx="559.392" cy="333.775" rx="2.098" ry="3.657"/>
	</g>
	<g>
		<path id="XMLID_67_" fill="none" stroke="#0B0620" stroke-width="0.5" stroke-linecap="round" stroke-linejoin="round" d="
			M561.898,286.998c1.672,1.02,1.672,1.02,3.373,2.069c0.312,0.17,0.312,0.198,0.652,0.368c0.51,0.142,0.539,0.142,1.049,0.255
			c0.368,0.057,0.368,0.057,0.709,0.113c0.822-0.028,0.822-0.028,1.616-0.057c1.077-0.17,1.077-0.198,2.154-0.368
			c0.255-0.057,0.255-0.057,0.482-0.113c1.219-0.312,1.219-0.312,2.409-0.624c1.332-0.425,1.332-0.425,2.636-0.85
			c1.389-0.51,1.389-0.51,2.75-1.049c1.332-0.567,1.332-0.567,2.665-1.162c1.219-0.595,1.247-0.595,2.438-1.219
			c1.276-0.709,1.276-0.709,2.551-1.446c0.85-0.595,0.85-0.595,1.701-1.191c0.539-0.51,0.539-0.51,1.077-1.02
			c0.227-0.312,0.227-0.312,0.425-0.595c0.227-0.425,0.227-0.425,0.425-0.85c0.113-0.369,0.113-0.369,0.227-0.737"/>
		<path id="XMLID_66_" fill="none" stroke="#0B0620" stroke-width="0.5" stroke-linecap="round" stroke-linejoin="round" d="
			M591.208,277.757c-0.142-0.368-0.142-0.368-0.284-0.737c-0.17-0.312-0.17-0.312-0.34-0.595c-0.255-0.312-0.255-0.312-0.51-0.595"
			/>
		<path id="XMLID_65_" fill="none" stroke="#0B0620" stroke-width="0.5" stroke-linecap="round" stroke-linejoin="round" d="
			M590.074,275.83c-0.34-0.198-0.34-0.198-0.68-0.368c-0.51-0.142-0.51-0.142-1.02-0.255c-0.369-0.085-0.369-0.085-0.709-0.142
			c-0.794,0.028-0.822,0.028-1.616,0.085c-1.077,0.17-1.077,0.17-2.126,0.369c-0.255,0.057-0.255,0.057-0.51,0.113
			c-1.191,0.312-1.191,0.312-2.381,0.595"/>
		<path id="XMLID_64_" fill="none" stroke="#0B0620" stroke-width="0.5" stroke-linecap="round" stroke-linejoin="round" d="
			M567.312,285.042c0.737-0.028,0.737-0.028,1.446-0.057c0.935-0.17,0.935-0.17,1.899-0.34c1.106-0.283,1.106-0.283,2.239-0.567
			c1.247-0.397,1.247-0.397,2.466-0.794c1.304-0.482,1.304-0.482,2.579-0.964c1.247-0.539,1.247-0.539,2.495-1.106
			c1.134-0.539,1.134-0.539,2.268-1.134c0.992-0.539,0.992-0.539,1.956-1.106c0.737-0.51,0.737-0.51,1.446-1.02"/>
		<path id="XMLID_63_" fill="none" stroke="#0B0620" stroke-width="0.5" stroke-linecap="round" stroke-linejoin="round" d="
			M520.852,263.329l18,10.403"/>
		<path id="XMLID_62_" fill="none" stroke="#0B0620" stroke-width="0.5" stroke-linecap="round" stroke-linejoin="round" d="
			M523.403,259.275l16.951,9.78"/>
		<path id="XMLID_61_" fill="none" stroke="#0B0620" stroke-width="0.5" stroke-linecap="round" stroke-linejoin="round" d="
			M532.361,260.579l6.038,7.37"/>
		<path id="XMLID_60_" fill="none" stroke="#0B0620" stroke-width="0.5" stroke-linecap="round" stroke-linejoin="round" d="
			M535.932,257.376l6.973,8.504l0.057,0.057"/>
		<path id="XMLID_59_" fill="none" stroke="#0B0620" stroke-width="0.5" stroke-linecap="round" stroke-linejoin="round" d="
			M565.271,289.039l-3.203-1.899l-5.613-3.232"/>
		<path id="XMLID_58_" fill="none" stroke="#0B0620" stroke-width="0.5" stroke-linecap="round" stroke-linejoin="round" d="
			M567.709,284.957l-3.26-1.956l-5.216-3.033"/>
		<path id="XMLID_57_" fill="none" stroke="#0B0620" stroke-width="0.5" stroke-linecap="round" stroke-linejoin="round" d="
			M561.983,287.026l-0.085-0.028"/>
		<path id="XMLID_56_" fill="none" stroke="#0B0620" stroke-width="0.5" stroke-linecap="round" stroke-linejoin="round" d="
			M591.236,278.522l-0.028-0.765"/>
		<path id="XMLID_55_" fill="none" stroke="#0B0620" stroke-width="0.5" stroke-linecap="round" stroke-linejoin="round" d="
			M581.032,276.226l-12.161,3.515l-1.02,0.142"/>
		<path id="XMLID_54_" fill="none" stroke="#0B0620" stroke-width="0.5" stroke-linecap="round" stroke-linejoin="round" d="
			M563.032,282.179l-0.879-1.105"/>
		<path id="XMLID_53_" fill="none" stroke="#0B0620" stroke-width="0.5" stroke-linecap="round" stroke-linejoin="round" d="
			M567.312,279.798v-0.028l0.028,0.028l-0.227-0.198l-4.28-5.216"/>
		<path id="XMLID_52_" fill="none" stroke="#0B0620" stroke-width="0.5" stroke-linecap="round" stroke-linejoin="round" d="
			M567.964,285.014l-0.935-0.227"/>
		<path id="XMLID_51_" fill="none" stroke="#0B0620" stroke-width="0.5" stroke-linecap="round" stroke-linejoin="round" d="
			M570.232,284.277l5.981-1.672l-5.953,1.729l-2.58,0.368l-0.595-0.142"/>
		<path id="XMLID_50_" fill="none" stroke="#0B0620" stroke-width="0.5" stroke-linecap="round" stroke-linejoin="round" d="
			M568.701,284.56l-1.021,0.142"/>
		<path id="XMLID_49_" fill="none" stroke="#0B0620" stroke-width="0.5" stroke-linecap="round" stroke-linejoin="round" d="
			M567.34,279.798l0.51,0.085"/>
		<path id="XMLID_48_" fill="none" stroke="#0B0620" stroke-width="0.5" stroke-linecap="round" stroke-linejoin="round" d="
			M570.232,284.334h-0.028"/>
		<path id="XMLID_47_" fill="none" stroke="#0B0620" stroke-width="0.5" stroke-linecap="round" stroke-linejoin="round" d="
			M579.388,281.669l-3.175,0.935l1.106-0.34"/>
		<path id="XMLID_46_" fill="none" stroke="#0B0620" stroke-width="0.5" stroke-linecap="round" stroke-linejoin="round" d="
			M586.106,277.956l0.454-0.425l0,0"/>
		<path id="XMLID_45_" fill="none" stroke="#0B0620" stroke-width="0.5" stroke-linecap="round" stroke-linejoin="round" d="
			M520.846,263.337c-0.577-0.523-0.445-1.833,0.296-2.926c0.677-0.999,1.64-1.486,2.247-1.136"/>
		<path id="XMLID_44_" fill="none" stroke="#0B0620" stroke-width="0.5" stroke-linecap="round" stroke-linejoin="round" d="
			M532.349,260.579c-0.63-0.751-0.312-2.047,0.709-2.896c0.949-0.788,2.188-0.92,2.865-0.305"/>
	</g>
	<g>
		<path id="XMLID_43_" fill="none" stroke="#0B0620" stroke-width="0.5" stroke-linecap="round" stroke-linejoin="round" d="
			M379.658,398.938c-0.028,0.964-0.028,0.964,0,1.899c0.255,1.049,0.255,1.049,0.539,2.098c0.454,1.049,0.454,1.049,0.964,2.069
			c0.652,0.964,0.652,0.964,1.332,1.871c0.765,0.737,0.765,0.765,1.559,1.474c1.02,0.595,1.02,0.595,2.069,1.162"/>
		<path id="XMLID_42_" fill="none" stroke="#0B0620" stroke-width="0.5" stroke-linecap="round" stroke-linejoin="round" d="
			M385.696,403.899c-0.368-0.482-0.368-0.482-0.709-0.992c-0.283-0.539-0.283-0.539-0.567-1.105
			c-0.142-0.567-0.142-0.567-0.283-1.134c0-0.51,0-0.567,0-1.02"/>
		<path id="XMLID_41_" fill="none" stroke="#0B0620" stroke-width="0.5" stroke-linecap="round" stroke-linejoin="round" d="
			M388.446,404.494c-0.454-0.198-0.454-0.198-0.879-0.425c-0.425-0.368-0.425-0.368-0.85-0.737
			c-0.397-0.482-0.397-0.482-0.737-0.992c-0.283-0.539-0.283-0.567-0.567-1.105c-0.142-0.567-0.142-0.567-0.283-1.134
			c0-0.51,0-0.624,0-1.049"/>
		<path id="XMLID_40_" fill="none" stroke="#0B0620" stroke-width="0.5" stroke-linecap="round" stroke-linejoin="round" d="
			M386.206,399.817c0.085,0.425,0.085,0.425,0.198,0.822c0.283,0.567,0.283,0.567,0.567,1.134c0.34,0.482,0.369,0.482,0.737,0.992
			c0.198,0.17,0.198,0.17,0.397,0.34"/>
		<path id="XMLID_39_" fill="none" stroke="#0B0620" stroke-width="0.5" stroke-linecap="round" stroke-linejoin="round" d="
			M384.704,393.269l-2.75,1.531l-0.454,0.425l-1.077,1.105l-0.255,0.51l-0.51,1.616v0.482"/>
		<path id="XMLID_38_" fill="none" stroke="#0B0620" stroke-width="0.5" stroke-linecap="round" stroke-linejoin="round" d="
			M386.121,409.511l1.644,0.312l0.595,0.057l1.474-0.425l0.567-0.198l3.146-1.871l0.595-0.397"/>
		<path id="XMLID_37_" fill="none" stroke="#0B0620" stroke-width="0.5" stroke-linecap="round" stroke-linejoin="round" d="
			M385.725,403.927l-0.028-0.028"/>
		<path id="XMLID_36_" fill="none" stroke="#0B0620" stroke-width="0.5" stroke-linecap="round" stroke-linejoin="round" d="
			M384.137,399.647l0.283-0.822l0.34-0.283"/>
		<path id="XMLID_35_" fill="none" stroke="#0B0620" stroke-width="0.5" stroke-linecap="round" stroke-linejoin="round" d="
			M384.846,402.652l0.34,0.51"/>
		<path id="XMLID_34_" fill="none" stroke="#0B0620" stroke-width="0.5" stroke-linecap="round" stroke-linejoin="round" d="
			M384.392,401.66l0.113,0.255"/>
		<path id="XMLID_33_" fill="none" stroke="#0B0620" stroke-width="0.5" stroke-linecap="round" stroke-linejoin="round" d="
			M385.129,399.052l0.057-0.142"/>
		<path id="XMLID_32_" fill="none" stroke="#0B0620" stroke-width="0.5" stroke-linecap="round" stroke-linejoin="round" d="
			M385.384,401.093l0.113,0.312"/>
		<path id="XMLID_31_" fill="none" stroke="#0B0620" stroke-width="0.5" stroke-linecap="round" stroke-linejoin="round" d="
			M383.655,393.637v0.198"/>
		<path id="XMLID_30_" fill="none" stroke="#0B0620" stroke-width="0.5" stroke-linecap="round" stroke-linejoin="round" d="
			M388.446,405.061l-0.17,0.057l-0.822-0.057l-0.879-0.425l-0.85-0.737h-0.028"/>
		<path id="XMLID_29_" fill="none" stroke="#0B0620" stroke-width="0.5" stroke-linecap="round" stroke-linejoin="round" d="
			M386.717,403.332l-0.028-0.028"/>
		<path id="XMLID_28_" fill="none" stroke="#0B0620" stroke-width="0.5" stroke-linecap="round" stroke-linejoin="round" d="
			M386.178,402.595l-0.34-0.51"/>
		<path id="XMLID_27_" fill="none" stroke="#0B0620" stroke-width="0.5" stroke-linecap="round" stroke-linejoin="round" d="
			M387.709,402.765l-0.028-0.028"/>
		<path id="XMLID_26_" fill="none" stroke="#0B0620" stroke-width="0.5" stroke-linecap="round" stroke-linejoin="round" d="
			M386.802,401.433l0.34,0.567"/>
		<path id="XMLID_25_" fill="none" stroke="#0B0620" stroke-width="0.5" stroke-linecap="round" stroke-linejoin="round" d="
			M386.376,400.526l0.113,0.312"/>
		<path id="XMLID_24_" fill="none" stroke="#0B0620" stroke-width="0.5" stroke-linecap="round" stroke-linejoin="round" d="
			M392.839,407.811l0.482-0.283l0.227-0.142"/>
		<path id="XMLID_23_" fill="none" stroke="#0B0620" stroke-width="0.5" stroke-linecap="round" stroke-linejoin="round" d="
			M393.321,407.527l0.85-0.34"/>
		<path id="XMLID_22_" fill="none" stroke="#0B0620" stroke-width="0.5" stroke-linecap="round" stroke-linejoin="round" d="
			M388.443,405.999c-1.261,0.729-3.305-0.45-4.566-2.633c-1.261-2.183-1.261-4.544,0-5.273"/>
		<path id="XMLID_21_" fill="none" stroke="#0B0620" stroke-width="0.5" stroke-linecap="round" stroke-linejoin="round" d="
			M388.457,404.693c-1.399-0.228-2.939-1.957-3.44-3.861c-0.21-0.798-0.21-1.538-0.001-2.095"/>
		<path id="XMLID_20_" fill="none" stroke="#0B0620" stroke-width="0.5" stroke-linecap="round" stroke-linejoin="round" d="
			M388.485,405.098c-1.033,0.637-2.736-0.314-3.804-2.123c-1.068-1.809-1.096-3.792-0.062-4.429c0.02-0.013,0.041-0.025,0.062-0.036
			"/>
		<path id="XMLID_19_" fill="none" stroke="#0B0620" stroke-width="0.5" stroke-linecap="round" stroke-linejoin="round" d="
			M388.247,403.587c-1.251-0.881-2.239-2.591-2.378-4.116"/>
		<path id="XMLID_18_" fill="none" stroke="#0B0620" stroke-width="0.5" stroke-linecap="round" stroke-linejoin="round" d="
			M388.032,407.193c-1.957,0.049-4.371-2.222-5.392-5.071c-0.604-1.687-0.604-3.281,0-4.269"/>
		
			<ellipse id="XMLID_17_" transform="matrix(0.866 -0.5 0.5 0.866 -149.9919 246.2401)" fill="none" stroke="#0B0620" stroke-width="0.5" stroke-linecap="round" stroke-linejoin="round" cx="384.494" cy="403.009" rx="3.26" ry="5.641"/>
	</g>
	<g>
		<path id="XMLID_16_" fill="none" stroke="#0B0620" stroke-width="0.5" stroke-linecap="round" stroke-linejoin="round" d="
			M274.975,213.354c-0.794,0.51-0.794,0.51-1.559,1.049c-0.709,0.765-0.737,0.765-1.417,1.559c-0.595,0.935-0.595,0.935-1.162,1.871
			c-0.368,0.992-0.368,0.992-0.737,2.013c-0.142,0.964-0.142,0.964-0.255,1.928"/>
		<path id="XMLID_15_" fill="none" stroke="#0B0620" stroke-width="0.5" stroke-linecap="round" stroke-linejoin="round" d="
			M279.114,213.751l-1.02-0.595l-0.113-0.028l-1.332-0.227h-0.085l-1.531,0.425l-0.057,0.028"/>
		<path id="XMLID_14_" fill="none" stroke="#0B0620" stroke-width="0.5" stroke-linecap="round" stroke-linejoin="round" d="
			M269.844,221.773v0.057l0.255,1.644l0.057,0.085l0.765,1.191l0.057,0.057l0.34,0.198"/>
		<path id="XMLID_13_" fill="none" stroke="#0B0620" stroke-width="0.5" stroke-linecap="round" stroke-linejoin="round" d="
			M275.003,213.354L275.003,213.354l-0.255,0.17l-1.304,0.879l-0.255,0.255l-1.191,1.304l-0.198,0.34l-0.935,1.531l-0.142,0.397
			l-0.624,1.644l-0.028,0.368l-0.227,1.559v0.028"/>
	</g>
	<g>
		<path id="XMLID_12_" fill="none" stroke="#0B0620" stroke-width="0.5" stroke-linecap="round" stroke-linejoin="round" d="
			M575.447,392.135c-0.482,0.822-0.482,0.822-0.992,1.616c-0.68,0.794-0.68,0.794-1.417,1.559c-0.765,0.539-0.765,0.539-1.559,1.049
			"/>
		<path id="XMLID_11_" fill="none" stroke="#0B0620" stroke-width="0.5" stroke-linecap="round" stroke-linejoin="round" d="
			M570.373,381.959l5.102,2.948l0.085,0.057l0.737,1.191l0.057,0.085l0.255,1.644v0.057l-0.255,1.928l-0.737,2.013l-0.17,0.255"/>
		<path id="XMLID_10_" fill="none" stroke="#0B0620" stroke-width="0.5" stroke-linecap="round" stroke-linejoin="round" d="
			M571.479,396.359l-0.057,0.028l-1.531,0.425l-0.085,0.028l-1.332-0.255l-0.085-0.028l-5.272-3.033"/>
		<path id="XMLID_9_" fill="none" stroke="#0B0620" stroke-width="0.5" stroke-linecap="round" stroke-linejoin="round" d="
			M571.451,396.359l-0.283,0.085l-1.247,0.368l-0.255-0.028l-1.049-0.227l-0.198-0.142l-0.765-0.709l-0.113-0.255l-0.397-1.162
			l-0.028-0.34l0.028-1.474l0.057-0.368l0.454-1.644l0.142-0.368l0.822-1.616l0.198-0.34l1.106-1.417l0.255-0.255l1.276-1.049
			l0.255-0.17l1.304-0.595l0.255-0.057l1.191-0.028l0.198,0.057l0.935,0.482l0.142,0.198l0.624,0.964l0.028,0.283l0.227,1.361v0.028
			"/>
		<path id="XMLID_8_" fill="none" stroke="#0B0620" stroke-width="0.5" stroke-linecap="round" stroke-linejoin="round" d="
			M574.115,390.916l-2.183,2.721l-2.211-0.198v-2.92l2.211-2.75l2.183,0.198V390.916l-2.353-1.389v-1.531"/>
		<path id="XMLID_7_" fill="none" stroke="#0B0620" stroke-width="0.5" stroke-linecap="round" stroke-linejoin="round" d="
			M571.932,393.637l-2.211-1.276"/>
		<path id="XMLID_6_" fill="none" stroke="#0B0620" stroke-width="0.5" stroke-linecap="round" stroke-linejoin="round" d="
			M569.721,392.078l2.041-2.551"/>
		<path id="XMLID_5_" fill="none" stroke="#0B0620" stroke-width="0.5" stroke-linecap="round" stroke-linejoin="round" d="
			M570.033,390.122l0.737,0.652"/>
		<path id="XMLID_4_" fill="none" stroke="#0B0620" stroke-width="0.5" stroke-linecap="round" stroke-linejoin="round" d="
			M571.762,388.082h-0.085"/>
		<path id="XMLID_3_" fill="none" stroke="#0B0620" stroke-width="0.5" stroke-linecap="round" stroke-linejoin="round" d="
			M563.125,393.533c-1.893-1.088-1.897-4.627-0.008-7.904c1.889-3.277,4.955-5.051,6.849-3.962c0.144,0.083,0.279,0.182,0.404,0.295
			"/>
		<path id="XMLID_2_" fill="none" stroke="#0B0620" stroke-width="0.5" stroke-linecap="round" stroke-linejoin="round" d="
			M571.759,387.985c0.041,1.338-0.856,3.013-2.032,3.796"/>
	</g>
</g>
<g id="XMLID_375_">
	<g id="XMLID_378_">
		<path id="XMLID_389_" d="M813.412,3c14.049,0,25.478,11.43,25.478,25.478v538.323c0,14.049-11.43,25.478-25.478,25.478H28.478
			C14.43,592.28,3,580.85,3,566.802V28.478C3,14.43,14.43,3,28.478,3H813.412 M813.412,0H28.478C12.815,0,0,12.815,0,28.478v538.323
			c0,15.663,12.815,28.478,28.478,28.478h784.933c15.663,0,28.478-12.815,28.478-28.478V28.478C841.89,12.815,829.075,0,813.412,0
			L813.412,0z"/>
	</g>
	<g id="XMLID_377_">
		<path id="XMLID_402_" d="M1.5,83.54V28.479C1.5,13.603,13.603,1.5,28.479,1.5H83.54v55.061c0,14.876-12.103,26.979-26.979,26.979
			H1.5z"/>
		<g id="XMLID_398_">
			<path id="XMLID_399_" d="M82.039,3v53.561c0,14.049-11.43,25.478-25.478,25.478H3V28.478C3,14.43,14.43,3,28.478,3H82.039
				 M85.039,0H28.478C12.815,0,0,12.815,0,28.478v56.561h56.561c15.663,0,28.478-12.815,28.478-28.478V0L85.039,0z"/>
		</g>
	</g>
	<g id="XMLID_373_">
		<path id="XMLID_374_" fill="#FFFFFF" d="M54.273,50.092H50.43v7.312h-6.539v-7.312H30.438v-5.836L42.93,23.631h7.5v21.234h3.844
			V50.092z M43.891,44.865V30.228l-8.482,14.638H43.891z"/>
	</g>
</g>
</svg>
