<?xml version="1.0" encoding="utf-8"?>
<!-- Generator: Adobe Illustrator 19.0.0, SVG Export Plug-In . SVG Version: 6.00 Build 0)  -->
<svg version="1.0" id="Layer_1" xmlns="http://www.w3.org/2000/svg" xmlns:xlink="http://www.w3.org/1999/xlink" x="0px" y="0px"
	 width="841.89px" height="595.28px" viewBox="0 0 841.89 595.28" enable-background="new 0 0 841.89 595.28" xml:space="preserve">
<g id="XMLID_1_">
	<g>
		<path id="XMLID_174_" fill="none" stroke="#0B0620" stroke-width="0.5" stroke-linecap="round" stroke-linejoin="round" d="
			M378.025,270.637c-4.649,2.721-4.677,2.721-9.354,5.414c-1.616,0.737-1.616,0.737-3.232,1.417
			c-1.531,0.312-1.531,0.283-3.061,0.539c-0.51,0.057-0.51,0.057-1.02,0.057c-1.417-0.17-1.417-0.17-2.835-0.397
			c-0.51-0.17-0.51-0.17-1.02-0.368c-7.228-4.139-7.228-4.139-14.428-8.334c-0.227-0.17-0.227-0.17-0.425-0.34
			c-0.879-1.134-0.907-1.134-1.786-2.268c-0.113-0.227-0.113-0.227-0.227-0.454c-0.539-1.474-0.595-1.474-1.077-2.976
			c-0.227-1.786-0.198-1.786-0.368-3.572c-0.028-0.595-0.028-0.51,0-1.162"/>
		<path id="XMLID_173_" fill="none" stroke="#0B0620" stroke-width="0.5" stroke-linecap="round" stroke-linejoin="round" d="
			M339.191,190.246c-0.028-0.482-0.028-0.425,0-0.85c0.17-1.956,0.142-1.956,0.34-3.912c0.51-2.069,0.51-2.098,1.077-4.139
			c0.822-2.098,0.822-2.098,1.729-4.167c1.105-1.984,1.105-1.984,2.268-3.969c1.361-1.786,1.361-1.786,2.75-3.543
			c1.502-1.531,1.502-1.531,3.061-3.005c1.701-1.247,1.701-1.247,3.458-2.438"/>
		<path id="XMLID_172_" fill="none" stroke="#0B0620" stroke-width="0.5" stroke-linecap="round" stroke-linejoin="round" d="
			M365.723,141.348c0.255,1.134,0.255,1.134,0.51,2.239c0.17,1.106,0.17,1.106,0.34,2.211c-0.028,0.709-0.028,0.709-0.085,1.389
			c-0.142,1.361-0.142,1.361-0.312,2.693c-0.227,0.68-0.227,0.68-0.482,1.361c-0.51,1.332-0.51,1.332-1.049,2.636
			c-0.425,0.652-0.425,0.652-0.879,1.304c-0.879,1.247-0.85,1.276-1.729,2.494c-1.814,1.757-1.814,1.757-3.657,3.487
			c-0.624,0.454-0.624,0.454-1.276,0.879"/>
		<path id="XMLID_171_" fill="none" stroke="#0B0620" stroke-width="0.5" stroke-linecap="round" stroke-linejoin="round" d="
			M357.106,162.041c0.539-0.368,0.539-0.368,1.077-0.765c1.814-1.729,1.843-1.701,3.628-3.487c1.417-1.956,1.417-1.956,2.75-3.968"
			/>
		<path id="XMLID_170_" fill="none" stroke="#0B0620" stroke-width="0.5" stroke-linecap="round" stroke-linejoin="round" d="
			M368.983,173.578c4.535-2.608,4.535-2.608,9.043-5.216c0.283-0.142,0.283-0.142,0.567-0.283c0.425-0.142,0.425-0.142,0.85-0.283
			c0.34-0.113,0.34-0.113,0.68-0.198c0.482-0.057,0.482-0.057,0.964-0.113c0.368-0.028,0.368-0.028,0.737-0.057
			c0.482,0.028,0.482,0.028,0.992,0.057c0.369,0.028,0.369,0.028,0.709,0.085c0.482,0.085,0.482,0.113,0.935,0.227
			c0.312,0.085,0.312,0.085,0.624,0.198c0.397,0.17,0.397,0.17,0.794,0.368"/>
		<path id="XMLID_169_" fill="none" stroke="#0B0620" stroke-width="0.5" stroke-linecap="round" stroke-linejoin="round" d="
			M385.509,270.466c-0.51-0.227-0.51-0.227-1.049-0.425c-0.822-0.17-0.822-0.17-1.644-0.312c-0.85-0.028-0.879-0.028-1.729,0
			c-0.822,0.142-0.822,0.142-1.644,0.312c-0.539,0.198-0.539,0.198-1.049,0.425"/>
		<path id="XMLID_168_" fill="none" stroke="#0B0620" stroke-width="0.5" stroke-linecap="round" stroke-linejoin="round" d="
			M385.849,270.665c-0.567-0.255-0.567-0.255-1.162-0.482c-0.907-0.198-0.907-0.17-1.786-0.34c-0.198,0-0.198,0-0.397,0
			c-0.765,0-0.765,0-1.502,0c-0.879,0.142-0.879,0.142-1.786,0.34c-0.595,0.227-0.595,0.227-1.162,0.482"/>
		<path id="XMLID_167_" fill="none" stroke="#0B0620" stroke-width="0.5" stroke-linecap="round" stroke-linejoin="round" d="
			M379.896,263.663c0.454-0.737,0.454-0.765,0.935-1.502c0.624-0.822,0.624-0.822,1.247-1.644c0.283-0.283,0.283-0.283,0.567-0.595
			c0.624-0.51,0.624-0.51,1.219-0.992c0.539-0.34,0.539-0.34,1.106-0.652c1.077-0.454,1.077-0.482,2.154-0.907
			c1.871-0.425,1.899-0.397,3.798-0.822c2.296-0.652,2.296-0.652,4.62-1.332"/>
		<path id="XMLID_166_" fill="none" stroke="#0B0620" stroke-width="0.5" stroke-linecap="round" stroke-linejoin="round" d="
			M386.189,176.895c-0.737-0.34-0.737-0.34-1.531-0.624c-0.879-0.198-0.879-0.17-1.786-0.34c-0.482-0.057-0.482-0.057-0.935-0.113
			c-0.312,0-0.312,0.028-0.624,0c-0.255-0.057-0.255-0.057-0.482-0.113c-0.482-0.198-0.482-0.198-0.935-0.425"/>
		<path id="XMLID_165_" fill="none" stroke="#0B0620" stroke-width="0.5" stroke-linecap="round" stroke-linejoin="round" d="
			M473.524,295.525c-27.269-15.761-27.269-15.761-54.51-31.493c-0.482-0.312-0.482-0.312-0.935-0.595
			c-0.624-0.51-0.624-0.51-1.219-1.049c-0.425-0.425-0.425-0.425-0.85-0.85c-0.539-0.709-0.539-0.709-1.077-1.389
			c-0.369-0.539-0.369-0.51-0.709-1.049c-0.425-0.794-0.425-0.794-0.822-1.616c-0.255-0.567-0.255-0.567-0.482-1.134
			c-0.255-0.822-0.255-0.822-0.51-1.644c-0.113-0.567-0.113-0.567-0.227-1.106c-0.057-0.794-0.057-0.794-0.113-1.587"/>
		<path id="XMLID_164_" fill="none" stroke="#0B0620" stroke-width="0.5" stroke-linecap="round" stroke-linejoin="round" d="
			M412.069,252.013c0-27.808,0-27.808,0-55.644c0.028-0.482,0.028-0.482,0.057-0.964c0.142-0.652,0.142-0.652,0.284-1.304
			c0.17-0.368,0.17-0.368,0.34-0.709c0.255-0.425,0.283-0.425,0.567-0.85"/>
		<path id="XMLID_163_" fill="none" stroke="#0B0620" stroke-width="0.5" stroke-linecap="round" stroke-linejoin="round" d="
			M421.565,254.933c0.283,0.539,0.283,0.539,0.595,1.049c0.935,1.134,0.935,1.134,1.928,2.239c1.049,0.85,1.049,0.85,2.126,1.644
			c1.049,0.624,1.049,0.624,2.126,1.219"/>
		<path id="XMLID_162_" fill="none" stroke="#0B0620" stroke-width="0.5" stroke-linecap="round" stroke-linejoin="round" d="
			M428.34,261.084c-0.907-0.51-0.907-0.51-1.786-1.02c-1.134-0.85-1.134-0.85-2.239-1.729c-1.02-1.134-1.049-1.162-2.013-2.353
			c-0.85-1.361-0.85-1.389-1.616-2.778c-0.539-1.446-0.539-1.474-1.049-2.948c-0.198-1.389-0.17-1.389-0.34-2.778
			c-0.028-1.134-0.028,1.105,0-2.239"/>
		<path id="XMLID_161_" fill="none" stroke="#0B0620" stroke-width="0.5" stroke-linecap="round" stroke-linejoin="round" d="
			M419.298,245.238c-0.028,1.644-0.028,1.304,0,2.608c0.142,1.332,0.142,1.361,0.34,2.665c0.454,1.417,0.482,1.417,0.992,2.806
			c0.454,0.822,0.454,0.822,0.935,1.616"/>
		<path id="XMLID_160_" fill="none" stroke="#0B0620" stroke-width="0.5" stroke-linecap="round" stroke-linejoin="round" d="
			M473.524,335.833c0,0.369,0,0.369,0,0.765c0.198,1.757,0.142,1.757,0.369,3.515c0.51,1.446,0.539,1.446,1.077,2.891
			c0.227,0.482,0.227,0.482,0.454,0.935c0.85,1.106,0.85,1.106,1.729,2.183"/>
		<path id="XMLID_159_" fill="none" stroke="#0B0620" stroke-width="0.5" stroke-linecap="round" stroke-linejoin="round" d="
			M473.524,267.887c0-0.822,0-0.822,0-1.644c0.17-1.871,0.142-1.871,0.369-3.742c0.453-1.984,0.482-1.984,1.02-3.969
			c0.794-1.984,0.794-1.984,1.644-3.969c0.283-0.539,0.283-0.539,0.595-1.049"/>
		<path id="XMLID_158_" fill="none" stroke="#0B0620" stroke-width="0.5" stroke-linecap="round" stroke-linejoin="round" d="
			M339.191,258.192v1.162"/>
		<path id="XMLID_157_" fill="none" stroke="#0B0620" stroke-width="0.5" stroke-linecap="round" stroke-linejoin="round" d="
			M339.191,258.192v-35.603v3.231"/>
		<path id="XMLID_156_" fill="none" stroke="#0B0620" stroke-width="0.5" stroke-linecap="round" stroke-linejoin="round" d="
			M339.191,189.396v33.194"/>
		<path id="XMLID_155_" fill="none" stroke="#0B0620" stroke-width="0.5" stroke-linecap="round" stroke-linejoin="round" d="
			M353.874,164.224l-0.085,0.057"/>
		<path id="XMLID_154_" fill="none" stroke="#0B0620" stroke-width="0.5" stroke-linecap="round" stroke-linejoin="round" d="
			M356.312,182.621l-12.841-7.427"/>
		<path id="XMLID_153_" fill="none" stroke="#0B0620" stroke-width="0.5" stroke-linecap="round" stroke-linejoin="round" d="
			M353.874,164.224l3.232-2.183L353.874,164.224"/>
		<path id="XMLID_152_" fill="none" stroke="#0B0620" stroke-width="0.5" stroke-linecap="round" stroke-linejoin="round" d="
			M354.838,275.767v-77.669"/>
		<path id="XMLID_151_" fill="none" stroke="#0B0620" stroke-width="0.5" stroke-linecap="round" stroke-linejoin="round" d="
			M366.375,140.866l0.454-0.255l-0.765,0.425l-0.425,0.397l-0.425,0.794l-0.057,0.397v9.184"/>
		<path id="XMLID_150_" fill="none" stroke="#0B0620" stroke-width="0.5" stroke-linecap="round" stroke-linejoin="round" d="
			M365.581,150.703l-1.417,3.713"/>
		<path id="XMLID_149_" fill="none" stroke="#0B0620" stroke-width="0.5" stroke-linecap="round" stroke-linejoin="round" d="
			M365.921,147.131l-0.34,3.572"/>
		<path id="XMLID_148_" fill="none" stroke="#0B0620" stroke-width="0.5" stroke-linecap="round" stroke-linejoin="round" d="
			M366.828,140.611l-0.454,0.255"/>
		<path id="XMLID_147_" fill="none" stroke="#0B0620" stroke-width="0.5" stroke-linecap="round" stroke-linejoin="round" d="
			M366.828,140.611l0.255-0.142l0.822-0.34l1.304-0.028l0.51,0.17l90.992,52.554l-3.232-1.871"/>
		<path id="XMLID_146_" fill="none" stroke="#0B0620" stroke-width="0.5" stroke-linecap="round" stroke-linejoin="round" d="
			M385.877,168.363l91.276,52.724"/>
		<path id="XMLID_145_" fill="none" stroke="#0B0620" stroke-width="0.5" stroke-linecap="round" stroke-linejoin="round" d="
			M369.72,140.271l2.494,1.446"/>
		<path id="XMLID_144_" fill="none" stroke="#0B0620" stroke-width="0.5" stroke-linecap="round" stroke-linejoin="round" d="
			M381.937,268.029v-3.487"/>
		<path id="XMLID_143_" fill="none" stroke="#0B0620" stroke-width="0.5" stroke-linecap="round" stroke-linejoin="round" d="
			M381.937,170.63v3.487"/>
		<path id="XMLID_142_" fill="none" stroke="#0B0620" stroke-width="0.5" stroke-linecap="round" stroke-linejoin="round" d="
			M385.877,270.637l87.647,50.598"/>
		<path id="XMLID_141_" fill="none" stroke="#0B0620" stroke-width="0.5" stroke-linecap="round" stroke-linejoin="round" d="
			M382.334,260.262l91.191,52.639"/>
		<path id="XMLID_140_" fill="none" stroke="#0B0620" stroke-width="0.5" stroke-linecap="round" stroke-linejoin="round" d="
			M386.189,176.895l90.964,52.526"/>
		<path id="XMLID_139_" fill="none" stroke="#0B0620" stroke-width="0.5" stroke-linecap="round" stroke-linejoin="round" d="
			M390.98,256.52v-76.847"/>
		<path id="XMLID_138_" fill="none" stroke="#0B0620" stroke-width="0.5" stroke-linecap="round" stroke-linejoin="round" d="
			M392.964,255.953l80.561,46.517"/>
		<path id="XMLID_137_" fill="none" stroke="#0B0620" stroke-width="0.5" stroke-linecap="round" stroke-linejoin="round" d="
			M416.917,257.229l3.005-1.729"/>
		<path id="XMLID_136_" fill="none" stroke="#0B0620" stroke-width="0.5" stroke-linecap="round" stroke-linejoin="round" d="
			M419.298,245.238v-25.88v3.232"/>
		<path id="XMLID_135_" fill="none" stroke="#0B0620" stroke-width="0.5" stroke-linecap="round" stroke-linejoin="round" d="
			M419.298,219.358V196"/>
		<path id="XMLID_134_" fill="none" stroke="#0B0620" stroke-width="0.5" stroke-linecap="round" stroke-linejoin="round" d="
			M428.34,261.084l32.372,18.68l-3.232-1.871"/>
		<path id="XMLID_133_" fill="none" stroke="#0B0620" stroke-width="0.5" stroke-linecap="round" stroke-linejoin="round" d="
			M460.712,192.826l16.441,9.468"/>
		<path id="XMLID_132_" fill="none" stroke="#0B0620" stroke-width="0.5" stroke-linecap="round" stroke-linejoin="round" d="
			M473.524,287.163l-12.813-7.398"/>
		<path id="XMLID_131_" fill="none" stroke="#0B0620" stroke-width="0.5" stroke-linecap="round" stroke-linejoin="round" d="
			M473.524,336.202v-0.369V300.23v3.231"/>
		<path id="XMLID_130_" fill="none" stroke="#0B0620" stroke-width="0.5" stroke-linecap="round" stroke-linejoin="round" d="
			M473.524,266.243v33.987"/>
		
			<ellipse id="XMLID_129_" transform="matrix(-0.866 -0.5 0.5 -0.866 560.2264 670.1652)" fill="none" stroke="#0B0620" stroke-width="0.5" stroke-linecap="round" stroke-linejoin="round" cx="369.898" cy="260.026" rx="7.994" ry="13.833"/>
		
			<ellipse id="XMLID_128_" transform="matrix(-0.866 -0.5 0.5 -0.866 595.0104 540.3497)" fill="none" stroke="#0B0620" stroke-width="0.5" stroke-linecap="round" stroke-linejoin="round" cx="369.898" cy="190.459" rx="7.994" ry="13.833"/>
	</g>
	<g>
		<path id="XMLID_127_" fill="none" stroke="#0B0620" stroke-width="0.5" stroke-linecap="round" stroke-linejoin="round" d="
			M493.112,548.545c0.255,0.142,0.255,0.142,0.539,0.227c0.312,0.085,0.312,0.085,0.624,0.142c0.34,0,0.34,0,0.68,0
			c0.312-0.057,0.312-0.057,0.624-0.142c0.283-0.085,0.283-0.085,0.539-0.227"/>
		<path id="XMLID_126_" fill="none" stroke="#0B0620" stroke-width="0.5" stroke-linecap="round" stroke-linejoin="round" d="
			M521.713,191.153c-0.255-0.113-0.255-0.113-0.539-0.227c-0.312-0.057-0.312-0.057-0.624-0.113c-0.34,0-0.34,0-0.68,0
			c-0.312,0.057-0.312,0.057-0.624,0.113c-0.255,0.113-0.284,0.113-0.539,0.227"/>
		<path id="XMLID_125_" fill="none" stroke="#0B0620" stroke-width="0.5" stroke-linecap="round" stroke-linejoin="round" d="
			M496.117,183.329c-0.255,0.113-0.255,0.113-0.539,0.227c-0.312,0.057-0.312,0.057-0.624,0.113c-0.34,0-0.34,0-0.68,0
			c-0.312-0.057-0.312-0.057-0.624-0.113c-0.283-0.113-0.283-0.113-0.539-0.227"/>
		<path id="XMLID_124_" fill="none" stroke="#0B0620" stroke-width="0.5" stroke-linecap="round" stroke-linejoin="round" d="
			M527.751,194.64c0.255,0.113,0.255,0.113,0.539,0.227c0.312,0.057,0.312,0.057,0.624,0.113c0.34,0,0.34,0,0.68,0
			c0.312-0.057,0.312-0.057,0.624-0.113c0.283-0.113,0.283-0.113,0.539-0.227"/>
		<path id="XMLID_123_" fill="none" stroke="#0B0620" stroke-width="0.5" stroke-linecap="round" stroke-linejoin="round" d="
			M510.29,536.385c0.283,0.028,0.283,0.028,0.567,0.028c0.255,0.057,0.255,0.057,0.51,0.142c0.227,0.085,0.227,0.085,0.425,0.198"/>
		<path id="XMLID_122_" fill="none" stroke="#0B0620" stroke-width="0.5" stroke-linecap="round" stroke-linejoin="round" d="
			M511.792,171.509c-0.198-0.085-0.198-0.085-0.425-0.198c-0.255-0.057-0.255-0.057-0.51-0.113
			c-0.283-0.028-0.283-0.028-0.567-0.028"/>
		<path id="XMLID_121_" fill="none" stroke="#0B0620" stroke-width="0.5" stroke-linecap="round" stroke-linejoin="round" d="
			M500,171.169c-0.255,0-0.255,0-0.539,0.028c-0.255,0.057-0.255,0.057-0.51,0.113c-0.227,0.113-0.227,0.113-0.454,0.198"/>
		<path id="XMLID_120_" fill="none" stroke="#0B0620" stroke-width="0.5" stroke-linecap="round" stroke-linejoin="round" d="
			M479.562,540.722l13.55,7.824"/>
		<path id="XMLID_119_" fill="none" stroke="#0B0620" stroke-width="0.5" stroke-linecap="round" stroke-linejoin="round" d="
			M477.153,538.029V172.785"/>
		<path id="XMLID_118_" fill="none" stroke="#0B0620" stroke-width="0.5" stroke-linecap="round" stroke-linejoin="round" d="
			M479.562,175.506l13.55,7.824"/>
		<path id="XMLID_117_" fill="none" stroke="#0B0620" stroke-width="0.5" stroke-linecap="round" stroke-linejoin="round" d="
			M479.562,168.533l24.094-13.89"/>
		<path id="XMLID_116_" fill="none" stroke="#0B0620" stroke-width="0.5" stroke-linecap="round" stroke-linejoin="round" d="
			M494.614,548.914V183.67"/>
		<path id="XMLID_115_" fill="none" stroke="#0B0620" stroke-width="0.5" stroke-linecap="round" stroke-linejoin="round" d="
			M496.117,548.545l4.535-2.608"/>
		<path id="XMLID_114_" fill="none" stroke="#0B0620" stroke-width="0.5" stroke-linecap="round" stroke-linejoin="round" d="
			M496.117,183.329l4.535-2.608"/>
		<path id="XMLID_113_" fill="none" stroke="#0B0620" stroke-width="0.5" stroke-linecap="round" stroke-linejoin="round" d="
			M494.019,174.627v0.198"/>
		<path id="XMLID_112_" fill="none" stroke="#0B0620" stroke-width="0.5" stroke-linecap="round" stroke-linejoin="round" d="
			M494.614,175.506l6.009,3.458"/>
		<path id="XMLID_111_" fill="none" stroke="#0B0620" stroke-width="0.5" stroke-linecap="round" stroke-linejoin="round" d="
			M494.614,173.748l3.883-2.239"/>
		<path id="XMLID_110_" fill="none" stroke="#0B0620" stroke-width="0.5" stroke-linecap="round" stroke-linejoin="round" d="
			M499.206,171.254v6.888"/>
		<path id="XMLID_109_" fill="none" stroke="#0B0620" stroke-width="0.5" stroke-linecap="round" stroke-linejoin="round" d="
			M501.247,545.285v-2.409v2.013"/>
		<path id="XMLID_108_" fill="none" stroke="#0B0620" stroke-width="0.5" stroke-linecap="round" stroke-linejoin="round" d="
			M501.247,542.876V361.714v3.231"/>
		<path id="XMLID_107_" fill="none" stroke="#0B0620" stroke-width="0.5" stroke-linecap="round" stroke-linejoin="round" d="
			M501.247,536.413l9.043-0.028"/>
		<path id="XMLID_106_" fill="none" stroke="#0B0620" stroke-width="0.5" stroke-linecap="round" stroke-linejoin="round" d="
			M501.247,361.714V179.673"/>
		<path id="XMLID_105_" fill="none" stroke="#0B0620" stroke-width="0.5" stroke-linecap="round" stroke-linejoin="round" d="
			M501.247,179.644v0.879"/>
		<path id="XMLID_104_" fill="none" stroke="#0B0620" stroke-width="0.5" stroke-linecap="round" stroke-linejoin="round" d="
			M510.29,171.169L500,171.14"/>
		<path id="XMLID_103_" fill="none" stroke="#0B0620" stroke-width="0.5" stroke-linecap="round" stroke-linejoin="round" d="
			M511.112,536.498V171.254"/>
		<path id="XMLID_102_" fill="none" stroke="#0B0620" stroke-width="0.5" stroke-linecap="round" stroke-linejoin="round" d="
			M513.606,537.774l-1.814-1.021"/>
		<path id="XMLID_101_" fill="none" stroke="#0B0620" stroke-width="0.5" stroke-linecap="round" stroke-linejoin="round" d="
			M511.792,171.509l22.876,13.209"/>
		<path id="XMLID_100_" fill="none" stroke="#0B0620" stroke-width="0.5" stroke-linecap="round" stroke-linejoin="round" d="
			M514.202,560.734l13.55,7.824"/>
		<path id="XMLID_99_" fill="none" stroke="#0B0620" stroke-width="0.5" stroke-linecap="round" stroke-linejoin="round" d="
			M513.606,560.054V194.81"/>
		<path id="XMLID_98_" fill="none" stroke="#0B0620" stroke-width="0.5" stroke-linecap="round" stroke-linejoin="round" d="
			M514.202,195.518l13.55,7.824"/>
		<path id="XMLID_97_" fill="none" stroke="#0B0620" stroke-width="0.5" stroke-linecap="round" stroke-linejoin="round" d="
			M514.202,193.761l4.507-2.608"/>
		<path id="XMLID_96_" fill="none" stroke="#0B0620" stroke-width="0.5" stroke-linecap="round" stroke-linejoin="round" d="
			M527.751,194.64l-6.038-3.487"/>
		<path id="XMLID_95_" fill="none" stroke="#0B0620" stroke-width="0.5" stroke-linecap="round" stroke-linejoin="round" d="
			M530.756,194.64l3.912-2.268"/>
		<path id="XMLID_94_" fill="none" stroke="#0B0620" stroke-width="0.5" stroke-linecap="round" stroke-linejoin="round" d="
			M533.761,570.003V204.759"/>
		<path id="XMLID_93_" fill="none" stroke="#0B0620" stroke-width="0.5" stroke-linecap="round" stroke-linejoin="round" d="
			M535.093,191.975v-6.86"/>
		<path id="XMLID_92_" fill="none" stroke="#0B0620" stroke-width="0.5" stroke-linecap="round" stroke-linejoin="round" d="
			M535.291,191.522v-5.953"/>
		<path id="XMLID_91_" fill="none" stroke="#0B0620" stroke-width="0.5" stroke-linecap="round" stroke-linejoin="round" d="
			M539.798,568.558l24.094-13.918"/>
		<path id="XMLID_90_" fill="none" stroke="#0B0620" stroke-width="0.5" stroke-linecap="round" stroke-linejoin="round" d="
			M539.798,203.342l24.094-13.918"/>
		<path id="XMLID_89_" fill="none" stroke="#0B0620" stroke-width="0.5" stroke-linecap="round" stroke-linejoin="round" d="
			M576.365,537.263V172.019"/>
		<path id="XMLID_88_" fill="none" stroke="#0B0620" stroke-width="0.5" stroke-linecap="round" stroke-linejoin="round" d="
			M514.202,560.734l-0.397-0.312l-0.198-0.369"/>
		<path id="XMLID_87_" fill="none" stroke="#0B0620" stroke-width="0.5" stroke-linecap="round" stroke-linejoin="round" d="
			M501.247,544.888v0.397l-0.227,0.34l-0.369,0.312"/>
		<path id="XMLID_86_" fill="none" stroke="#0B0620" stroke-width="0.5" stroke-linecap="round" stroke-linejoin="round" d="
			M500.624,178.964l0.397,0.34l0.227,0.34v0.397l-0.227,0.369l-0.369,0.312"/>
		<path id="XMLID_85_" fill="none" stroke="#0B0620" stroke-width="0.5" stroke-linecap="round" stroke-linejoin="round" d="
			M494.614,173.748l-0.397,0.34l-0.198,0.34v0.397l0.198,0.368l0.397,0.312"/>
		<path id="XMLID_84_" fill="none" stroke="#0B0620" stroke-width="0.5" stroke-linecap="round" stroke-linejoin="round" d="
			M514.202,193.761l-0.397,0.312l-0.198,0.368v0.397l0.198,0.34l0.397,0.34"/>
		<path id="XMLID_83_" fill="none" stroke="#0B0620" stroke-width="0.5" stroke-linecap="round" stroke-linejoin="round" d="
			M534.668,192.372l0.34-0.255l0.198-0.255l0.085-0.34"/>
		<path id="XMLID_82_" fill="none" stroke="#0B0620" stroke-width="0.5" stroke-linecap="round" stroke-linejoin="round" d="
			M535.291,185.569l-0.085-0.312l-0.198-0.283l-0.34-0.255"/>
		<path id="XMLID_81_" fill="none" stroke="#0B0620" stroke-width="0.5" stroke-linecap="round" stroke-linejoin="round" d="
			M576.374,537.255c-0.001,6.523-4.49,12.778-12.478,17.391"/>
		<path id="XMLID_80_" fill="none" stroke="#0B0620" stroke-width="0.5" stroke-linecap="round" stroke-linejoin="round" d="
			M479.551,175.503c-3.328-1.92-3.329-5.034-0.002-6.955c0.001,0,0.001-0.001,0.002-0.001"/>
		<path id="XMLID_79_" fill="none" stroke="#0B0620" stroke-width="0.5" stroke-linecap="round" stroke-linejoin="round" d="
			M503.648,154.632c16.714-9.561,43.687-9.489,60.248,0.16c16.452,9.587,16.452,25.037,0,34.624"/>
		<path id="XMLID_78_" fill="none" stroke="#0B0620" stroke-width="0.5" stroke-linecap="round" stroke-linejoin="round" d="
			M539.796,203.331c-3.328,1.921-8.722,1.921-12.05,0"/>
		<path id="XMLID_77_" fill="none" stroke="#0B0620" stroke-width="0.5" stroke-linecap="round" stroke-linejoin="round" d="
			M539.798,568.558c-3.328,1.921-8.722,1.921-12.05,0"/>
		
			<ellipse id="XMLID_76_" fill="none" stroke="#0B0620" stroke-width="0.5" stroke-linecap="round" stroke-linejoin="round" cx="533.772" cy="172.025" rx="10.658" ry="6.151"/>
		<path id="XMLID_75_" fill="none" stroke="#0B0620" stroke-width="0.5" stroke-linecap="round" stroke-linejoin="round" d="
			M479.551,540.733c-1.273-0.735-2.111-1.683-2.392-2.71"/>
	</g>
	<g>
		<path id="XMLID_74_" fill="none" stroke="#0B0620" stroke-width="0.5" stroke-linecap="round" stroke-linejoin="round" d="
			M288.479,49.024c-0.283,0.028-0.283,0.028-0.567,0.028c-0.255,0.057-0.255,0.057-0.51,0.142c-0.198,0.085-0.227,0.085-0.425,0.198
			"/>
		<path id="XMLID_73_" fill="none" stroke="#0B0620" stroke-width="0.5" stroke-linecap="round" stroke-linejoin="round" d="
			M307.187,69.037c0.255-0.142,0.255-0.142,0.539-0.227c0.312-0.085,0.312-0.085,0.624-0.142c0.34,0,0.34,0,0.652,0
			c0.34,0.057,0.34,0.057,0.652,0.142c0.255,0.085,0.255,0.085,0.539,0.227"/>
		<path id="XMLID_72_" fill="none" stroke="#0B0620" stroke-width="0.5" stroke-linecap="round" stroke-linejoin="round" d="
			M300.271,49.392c-0.227-0.113-0.227-0.113-0.454-0.198c-0.255-0.085-0.255-0.085-0.51-0.142c-0.283,0-0.283,0-0.539-0.028"/>
		<path id="XMLID_71_" fill="none" stroke="#0B0620" stroke-width="0.5" stroke-linecap="round" stroke-linejoin="round" d="
			M284.595,426.429c-0.283,0.113-0.283,0.113-0.567,0.227c-0.312,0.057-0.312,0.057-0.624,0.113c-0.34,0-0.34,0-0.652,0
			c-0.34-0.057-0.34-0.057-0.652-0.113c-0.255-0.113-0.255-0.113-0.539-0.227"/>
		<path id="XMLID_70_" fill="none" stroke="#0B0620" stroke-width="0.5" stroke-linecap="round" stroke-linejoin="round" d="
			M319.235,72.495c-0.283,0.113-0.283,0.113-0.539,0.227c-0.34,0.085-0.34,0.085-0.652,0.113c-0.312,0.028-0.34,0.028-0.652,0
			c-0.312-0.028-0.34-0.028-0.652-0.113c-0.255-0.113-0.255-0.113-0.539-0.227"/>
		<path id="XMLID_69_" fill="none" stroke="#0B0620" stroke-width="0.5" stroke-linecap="round" stroke-linejoin="round" d="
			M298.769,414.268c0.255,0,0.255,0,0.539,0.028c0.255,0.057,0.255,0.057,0.51,0.113c0.227,0.113,0.227,0.113,0.454,0.198"/>
		<path id="XMLID_68_" fill="none" stroke="#0B0620" stroke-width="0.5" stroke-linecap="round" stroke-linejoin="round" d="
			M284.567,61.185c-0.255,0.142-0.255,0.142-0.539,0.227c-0.312,0.085-0.312,0.085-0.624,0.142c-0.34,0-0.34,0-0.652,0
			c-0.34-0.057-0.34-0.057-0.652-0.142c-0.255-0.085-0.255-0.085-0.539-0.227"/>
		<path id="XMLID_67_" fill="none" stroke="#0B0620" stroke-width="0.5" stroke-linecap="round" stroke-linejoin="round" d="
			M265.632,415.884V50.668"/>
		<path id="XMLID_66_" fill="none" stroke="#0B0620" stroke-width="0.5" stroke-linecap="round" stroke-linejoin="round" d="
			M281.562,426.429l-13.55-7.824"/>
		<path id="XMLID_65_" fill="none" stroke="#0B0620" stroke-width="0.5" stroke-linecap="round" stroke-linejoin="round" d="
			M268.013,53.361l13.55,7.824"/>
		<path id="XMLID_64_" fill="none" stroke="#0B0620" stroke-width="0.5" stroke-linecap="round" stroke-linejoin="round" d="
			M292.107,32.498l-24.094,13.918"/>
		<path id="XMLID_63_" fill="none" stroke="#0B0620" stroke-width="0.5" stroke-linecap="round" stroke-linejoin="round" d="
			M282.469,52.511v0.198"/>
		<path id="XMLID_62_" fill="none" stroke="#0B0620" stroke-width="0.5" stroke-linecap="round" stroke-linejoin="round" d="
			M283.065,426.769V61.553"/>
		<path id="XMLID_61_" fill="none" stroke="#0B0620" stroke-width="0.5" stroke-linecap="round" stroke-linejoin="round" d="
			M284.595,426.429l4.507-2.608"/>
		<path id="XMLID_60_" fill="none" stroke="#0B0620" stroke-width="0.5" stroke-linecap="round" stroke-linejoin="round" d="
			M284.567,61.185l4.535-2.608"/>
		<path id="XMLID_59_" fill="none" stroke="#0B0620" stroke-width="0.5" stroke-linecap="round" stroke-linejoin="round" d="
			M289.102,56.848l-6.038-3.487"/>
		<path id="XMLID_58_" fill="none" stroke="#0B0620" stroke-width="0.5" stroke-linecap="round" stroke-linejoin="round" d="
			M283.065,51.632l3.912-2.239"/>
		<path id="XMLID_57_" fill="none" stroke="#0B0620" stroke-width="0.5" stroke-linecap="round" stroke-linejoin="round" d="
			M287.657,49.137v6.888"/>
		<path id="XMLID_56_" fill="none" stroke="#0B0620" stroke-width="0.5" stroke-linecap="round" stroke-linejoin="round" d="
			M298.769,49.024h-10.29"/>
		<path id="XMLID_55_" fill="none" stroke="#0B0620" stroke-width="0.5" stroke-linecap="round" stroke-linejoin="round" d="
			M289.698,423.14v-3.203v2.806"/>
		<path id="XMLID_54_" fill="none" stroke="#0B0620" stroke-width="0.5" stroke-linecap="round" stroke-linejoin="round" d="
			M289.698,242.007v-3.231v181.162"/>
		<path id="XMLID_53_" fill="none" stroke="#0B0620" stroke-width="0.5" stroke-linecap="round" stroke-linejoin="round" d="
			M289.698,414.24h9.071"/>
		<path id="XMLID_52_" fill="none" stroke="#0B0620" stroke-width="0.5" stroke-linecap="round" stroke-linejoin="round" d="
			M289.698,57.528v181.247"/>
		<path id="XMLID_51_" fill="none" stroke="#0B0620" stroke-width="0.5" stroke-linecap="round" stroke-linejoin="round" d="
			M289.698,57.528v3.317"/>
		<path id="XMLID_50_" fill="none" stroke="#0B0620" stroke-width="0.5" stroke-linecap="round" stroke-linejoin="round" d="
			M299.562,414.353V49.137"/>
		<path id="XMLID_49_" fill="none" stroke="#0B0620" stroke-width="0.5" stroke-linecap="round" stroke-linejoin="round" d="
			M300.271,414.608l1.786,1.049"/>
		<path id="XMLID_48_" fill="none" stroke="#0B0620" stroke-width="0.5" stroke-linecap="round" stroke-linejoin="round" d="
			M300.271,49.392l22.847,13.181"/>
		<path id="XMLID_47_" fill="none" stroke="#0B0620" stroke-width="0.5" stroke-linecap="round" stroke-linejoin="round" d="
			M316.202,446.441l-13.55-7.852"/>
		<path id="XMLID_46_" fill="none" stroke="#0B0620" stroke-width="0.5" stroke-linecap="round" stroke-linejoin="round" d="
			M302.057,437.937V72.693"/>
		<path id="XMLID_45_" fill="none" stroke="#0B0620" stroke-width="0.5" stroke-linecap="round" stroke-linejoin="round" d="
			M316.202,81.197l-13.55-7.824"/>
		<path id="XMLID_44_" fill="none" stroke="#0B0620" stroke-width="0.5" stroke-linecap="round" stroke-linejoin="round" d="
			M302.652,71.644l4.535-2.608"/>
		<path id="XMLID_43_" fill="none" stroke="#0B0620" stroke-width="0.5" stroke-linecap="round" stroke-linejoin="round" d="
			M316.202,72.495l-6.009-3.458"/>
		<path id="XMLID_42_" fill="none" stroke="#0B0620" stroke-width="0.5" stroke-linecap="round" stroke-linejoin="round" d="
			M319.235,72.495l3.883-2.239"/>
		<path id="XMLID_41_" fill="none" stroke="#0B0620" stroke-width="0.5" stroke-linecap="round" stroke-linejoin="round" d="
			M322.239,447.859V82.643"/>
		<path id="XMLID_40_" fill="none" stroke="#0B0620" stroke-width="0.5" stroke-linecap="round" stroke-linejoin="round" d="
			M323.572,62.97v6.888"/>
		<path id="XMLID_39_" fill="none" stroke="#0B0620" stroke-width="0.5" stroke-linecap="round" stroke-linejoin="round" d="
			M323.742,69.377v-5.924"/>
		<path id="XMLID_38_" fill="none" stroke="#0B0620" stroke-width="0.5" stroke-linecap="round" stroke-linejoin="round" d="
			M328.249,446.441l24.123-13.918"/>
		<path id="XMLID_37_" fill="none" stroke="#0B0620" stroke-width="0.5" stroke-linecap="round" stroke-linejoin="round" d="
			M352.372,67.279l-24.123,13.918"/>
		<path id="XMLID_36_" fill="none" stroke="#0B0620" stroke-width="0.5" stroke-linecap="round" stroke-linejoin="round" d="
			M364.759,416.621V277.581"/>
		<path id="XMLID_35_" fill="none" stroke="#0B0620" stroke-width="0.5" stroke-linecap="round" stroke-linejoin="round" d="
			M364.759,152.829V51.377"/>
		<path id="XMLID_34_" fill="none" stroke="#0B0620" stroke-width="0.5" stroke-linecap="round" stroke-linejoin="round" d="
			M323.742,69.377l-0.085,0.312L323.458,70l-0.34,0.255"/>
		<path id="XMLID_33_" fill="none" stroke="#0B0620" stroke-width="0.5" stroke-linecap="round" stroke-linejoin="round" d="
			M289.102,56.848l0.397,0.312l0.198,0.368v0.397l-0.198,0.34l-0.397,0.312"/>
		<path id="XMLID_32_" fill="none" stroke="#0B0620" stroke-width="0.5" stroke-linecap="round" stroke-linejoin="round" d="
			M289.102,423.821l0.397-0.312l0.198-0.369v-0.397"/>
		<path id="XMLID_31_" fill="none" stroke="#0B0620" stroke-width="0.5" stroke-linecap="round" stroke-linejoin="round" d="
			M302.652,438.589l-0.397-0.312l-0.198-0.34"/>
		<path id="XMLID_30_" fill="none" stroke="#0B0620" stroke-width="0.5" stroke-linecap="round" stroke-linejoin="round" d="
			M302.652,73.374l-0.397-0.312l-0.198-0.368v-0.397l0.198-0.34l0.397-0.312"/>
		<path id="XMLID_29_" fill="none" stroke="#0B0620" stroke-width="0.5" stroke-linecap="round" stroke-linejoin="round" d="
			M283.065,51.632l-0.368,0.312l-0.227,0.368v0.369l0.227,0.368l0.368,0.312"/>
		<path id="XMLID_28_" fill="none" stroke="#0B0620" stroke-width="0.5" stroke-linecap="round" stroke-linejoin="round" d="
			M323.742,63.452l-0.085-0.312l-0.198-0.312l-0.34-0.255"/>
		<path id="XMLID_27_" fill="none" stroke="#0B0620" stroke-width="0.5" stroke-linecap="round" stroke-linejoin="round" d="
			M292.113,32.501c16.617-9.617,43.589-9.635,60.244-0.04c16.655,9.594,16.687,25.168,0.07,34.784
			c-0.023,0.013-0.046,0.027-0.069,0.04"/>
		
			<ellipse id="XMLID_26_" transform="matrix(-0.866 -0.5 0.5 -0.866 602.1254 382.8698)" fill="none" stroke="#0B0620" stroke-width="0.5" stroke-linecap="round" stroke-linejoin="round" cx="352.358" cy="110.765" rx="3.061" ry="5.329"/>
		<path id="XMLID_25_" fill="none" stroke="#0B0620" stroke-width="0.5" stroke-linecap="round" stroke-linejoin="round" d="
			M328.26,81.197c-3.328,1.921-8.722,1.921-12.05,0"/>
		
			<ellipse id="XMLID_24_" fill="none" stroke="#0B0620" stroke-width="0.5" stroke-linecap="round" stroke-linejoin="round" cx="322.237" cy="49.894" rx="10.658" ry="6.151"/>
		
			<ellipse id="XMLID_23_" transform="matrix(-0.866 -0.5 0.5 -0.866 462.9964 902.1276)" fill="none" stroke="#0B0620" stroke-width="0.5" stroke-linecap="round" stroke-linejoin="round" cx="352.36" cy="389.034" rx="3.061" ry="5.329"/>
		<path id="XMLID_22_" fill="none" stroke="#0B0620" stroke-width="0.5" stroke-linecap="round" stroke-linejoin="round" d="
			M328.26,446.427c-3.328,1.921-8.722,1.921-12.05,0"/>
		<path id="XMLID_21_" fill="none" stroke="#0B0620" stroke-width="0.5" stroke-linecap="round" stroke-linejoin="round" d="
			M364.759,416.609c-0.629,5.998-5.039,11.656-12.399,15.905"/>
		<path id="XMLID_20_" fill="none" stroke="#0B0620" stroke-width="0.5" stroke-linecap="round" stroke-linejoin="round" d="
			M268.013,53.372c-3.328-1.92-3.329-5.034-0.002-6.955c0.001,0,0.001-0.001,0.002-0.001"/>
		
			<ellipse id="XMLID_19_" transform="matrix(-0.866 -0.5 0.5 -0.866 497.7803 772.3121)" fill="none" stroke="#0B0620" stroke-width="0.5" stroke-linecap="round" stroke-linejoin="round" cx="352.36" cy="319.466" rx="3.061" ry="5.329"/>
		<path id="XMLID_18_" fill="none" stroke="#0B0620" stroke-width="0.5" stroke-linecap="round" stroke-linejoin="round" d="
			M268.013,418.602c-1.274-0.735-2.111-1.683-2.392-2.71"/>
	</g>
	<g>
		<path id="XMLID_17_" fill="none" stroke="#0B0620" stroke-width="0.5" stroke-linecap="round" stroke-linejoin="round" d="
			M368.614,268.624c1.276-0.907,1.276-0.907,2.494-1.899c1.162-1.276,1.162-1.304,2.268-2.636c0.907-1.531,0.907-1.531,1.786-3.09
			c0.595-1.616,0.595-1.644,1.162-3.26c0.227-1.559,0.227-1.587,0.369-3.146"/>
		<path id="XMLID_16_" fill="none" stroke="#0B0620" stroke-width="0.5" stroke-linecap="round" stroke-linejoin="round" d="
			M360.337,267.915l3.033,1.701l0.17,0.057l2.296,0.028h0.142l2.523-1.02l0.113-0.057"/>
		<path id="XMLID_15_" fill="none" stroke="#0B0620" stroke-width="0.5" stroke-linecap="round" stroke-linejoin="round" d="
			M376.693,254.592l0.028-0.113l-0.425-2.693l-0.057-0.113l-1.162-1.984l-0.142-0.113l-3.033-1.786"/>
		<path id="XMLID_14_" fill="none" stroke="#0B0620" stroke-width="0.5" stroke-linecap="round" stroke-linejoin="round" d="
			M368.699,264.485l3.855-4.819v-5.131l-3.855-0.34l-3.855,4.791v5.131L368.699,264.485l-3.855-2.239"/>
		<path id="XMLID_13_" fill="none" stroke="#0B0620" stroke-width="0.5" stroke-linecap="round" stroke-linejoin="round" d="
			M364.844,262.133l3.798-4.706l3.912,2.239"/>
		<path id="XMLID_12_" fill="none" stroke="#0B0620" stroke-width="0.5" stroke-linecap="round" stroke-linejoin="round" d="
			M368.643,257.427v-3.175"/>
		<path id="XMLID_11_" fill="none" stroke="#0B0620" stroke-width="0.5" stroke-linecap="round" stroke-linejoin="round" d="
			M368.416,256.407l-1.389-0.142"/>
		<path id="XMLID_10_" fill="none" stroke="#0B0620" stroke-width="0.5" stroke-linecap="round" stroke-linejoin="round" d="
			M368.606,254.303c0.267,2.286-1.23,5.378-3.344,6.906c-0.14,0.101-0.28,0.194-0.421,0.277"/>
	</g>
	<g>
		<path id="XMLID_9_" fill="none" stroke="#0B0620" stroke-width="0.5" stroke-linecap="round" stroke-linejoin="round" d="
			M376.693,185.03c-0.142,1.559-0.142,1.587-0.369,3.118c-0.567,1.644-0.567,1.672-1.162,3.288c-0.879,1.559-0.879,1.559-1.786,3.09
			c-1.106,1.332-1.106,1.332-2.268,2.636c-1.219,0.964-1.219,0.992-2.494,1.899"/>
		<path id="XMLID_8_" fill="none" stroke="#0B0620" stroke-width="0.5" stroke-linecap="round" stroke-linejoin="round" d="
			M371.902,178.227l3.033,1.786l0.142,0.113l1.162,1.984l0.057,0.113l0.425,2.693l-0.028,0.113"/>
		<path id="XMLID_7_" fill="none" stroke="#0B0620" stroke-width="0.5" stroke-linecap="round" stroke-linejoin="round" d="
			M368.614,199.062l-0.113,0.057l-2.523,0.992l-0.142,0.028l-2.296-0.028l-0.17-0.057l-3.033-1.701"/>
		<path id="XMLID_6_" fill="none" stroke="#0B0620" stroke-width="0.5" stroke-linecap="round" stroke-linejoin="round" d="
			M368.699,194.895l3.855-4.791v-5.131l-3.855-0.34l-3.855,4.791v5.131L368.699,194.895l-3.855-2.211"/>
		<path id="XMLID_5_" fill="none" stroke="#0B0620" stroke-width="0.5" stroke-linecap="round" stroke-linejoin="round" d="
			M368.643,184.69v3.146l-3.798,4.734"/>
		<path id="XMLID_4_" fill="none" stroke="#0B0620" stroke-width="0.5" stroke-linecap="round" stroke-linejoin="round" d="
			M368.643,187.837l3.912,2.268"/>
		<path id="XMLID_3_" fill="none" stroke="#0B0620" stroke-width="0.5" stroke-linecap="round" stroke-linejoin="round" d="
			M368.416,186.844l-1.389-0.142"/>
		<path id="XMLID_2_" fill="none" stroke="#0B0620" stroke-width="0.5" stroke-linecap="round" stroke-linejoin="round" d="
			M368.606,184.735c0.267,2.286-1.23,5.378-3.344,6.906c-0.14,0.101-0.28,0.193-0.421,0.277"/>
	</g>
</g>
<g id="XMLID_177_">
	<g id="XMLID_180_">
		<path id="XMLID_195_" d="M813.412,3c14.049,0,25.478,11.43,25.478,25.478v538.323c0,14.049-11.43,25.478-25.478,25.478H28.478
			C14.43,592.28,3,580.85,3,566.802V28.478C3,14.43,14.43,3,28.478,3H813.412 M813.412,0H28.478C12.815,0,0,12.815,0,28.478v538.323
			c0,15.663,12.815,28.478,28.478,28.478h784.933c15.663,0,28.478-12.815,28.478-28.478V28.478C841.89,12.815,829.075,0,813.412,0
			L813.412,0z"/>
	</g>
	<g id="XMLID_179_">
		<path id="XMLID_208_" d="M1.5,83.54V28.479C1.5,13.603,13.603,1.5,28.479,1.5H83.54v55.061c0,14.876-12.103,26.979-26.979,26.979
			H1.5z"/>
		<g id="XMLID_204_">
			<path id="XMLID_205_" d="M82.039,3v53.561c0,14.049-11.43,25.478-25.478,25.478H3V28.478C3,14.43,14.43,3,28.478,3H82.039
				 M85.039,0H28.478C12.815,0,0,12.815,0,28.478v56.561h56.561c15.663,0,28.478-12.815,28.478-28.478V0L85.039,0z"/>
		</g>
	</g>
	<g id="XMLID_181_">
		<path id="XMLID_182_" fill="#FFFFFF" d="M37,46.975c0,1.359,0.218,2.484,0.655,3.375c0.811,1.641,2.283,2.461,4.419,2.461
			c1.31,0,2.452-0.449,3.426-1.348s1.461-2.191,1.461-3.879c0-2.234-0.903-3.727-2.71-4.477c-1.028-0.422-2.648-0.633-4.86-0.633
			v-4.781c2.164-0.031,3.675-0.242,4.531-0.633c1.479-0.656,2.219-1.984,2.219-3.984c0-1.297-0.378-2.352-1.134-3.164
			s-1.82-1.219-3.191-1.219c-1.574,0-2.731,0.5-3.471,1.5s-1.095,2.336-1.063,4.008h-6.234c0.062-1.688,0.351-3.289,0.866-4.805
			c0.546-1.328,1.405-2.555,2.575-3.68c0.874-0.797,1.912-1.406,3.114-1.828s2.677-0.633,4.425-0.633c3.247,0,5.865,0.84,7.855,2.52
			c1.99,1.68,2.985,3.934,2.985,6.762c0,2-0.594,3.688-1.781,5.062c-0.75,0.859-1.531,1.445-2.344,1.758
			c0.609,0,1.484,0.523,2.625,1.57c1.703,1.578,2.555,3.734,2.555,6.469c0,2.875-0.995,5.402-2.985,7.582s-4.937,3.27-8.839,3.27
			c-4.808,0-8.148-1.57-10.021-4.711c-0.984-1.672-1.53-3.859-1.639-6.562H37z"/>
	</g>
</g>
</svg>
