<?xml version="1.0" encoding="utf-8"?>
<!-- Generator: Adobe Illustrator 19.0.0, SVG Export Plug-In . SVG Version: 6.00 Build 0)  -->
<svg version="1.0" id="Layer_1" xmlns="http://www.w3.org/2000/svg" xmlns:xlink="http://www.w3.org/1999/xlink" x="0px" y="0px"
	 width="841.89px" height="595.28px" viewBox="0 0 841.89 595.28" enable-background="new 0 0 841.89 595.28" xml:space="preserve">
<g id="XMLID_93_">
	<g id="XMLID_923_">
		<path id="XMLID_1026_" fill="none" stroke="#0B0620" stroke-width="0.5" stroke-linecap="round" stroke-linejoin="round" d="
			M189.978,232.925c-0.539-2.75-0.539-2.778-0.907-5.528c0.312-2.948,0.312-2.976,0.765-5.896c1.106-2.835,1.134-2.863,2.353-5.641
			c17.036-29.622,17.036-29.622,34.157-59.159c1.786-2.466,1.814-2.494,3.713-4.847c2.296-1.871,2.324-1.899,4.705-3.628
			c2.58-1.049,2.636-1.077,5.272-1.984"/>
		<path id="XMLID_1023_" fill="none" stroke="#0B0620" stroke-width="0.5" stroke-linecap="round" stroke-linejoin="round" d="
			M240.775,146.667c-2.636,0.907-2.693,0.935-5.272,1.984c-2.381,1.729-2.409,1.757-4.706,3.628
			c-1.899,2.353-1.928,2.381-3.713,4.847c-17.121,29.537-17.121,29.537-34.157,59.159c-1.219,2.778-1.247,2.806-2.353,5.641
			c-0.454,2.92-0.454,2.948-0.765,5.896c0.368,2.75,0.368,2.778,0.907,5.528"/>
		<path id="XMLID_1020_" fill="none" stroke="#0B0620" stroke-width="0.5" stroke-linecap="round" stroke-linejoin="round" d="
			M544.706,437.728c2.636-0.907,2.665-0.935,5.244-1.984c2.381-1.729,2.409-1.757,4.706-3.628c1.928-2.353,1.928-2.381,3.713-4.847
			c17.15-29.537,17.15-29.537,34.157-59.159"/>
		<path id="XMLID_1017_" fill="none" stroke="#0B0620" stroke-width="0.5" stroke-linecap="round" stroke-linejoin="round" d="
			M191.225,235.278l-1.247-2.353"/>
		<path id="XMLID_1014_" fill="none" stroke="#0B0620" stroke-width="0.5" stroke-linecap="round" stroke-linejoin="round" d="
			M240.038,146.242l5.272-0.17l4.762,1.644l0.737,0.425l-4.762-1.644l-5.272,0.17"/>
		<path id="XMLID_1011_" fill="none" stroke="#0B0620" stroke-width="0.5" stroke-linecap="round" stroke-linejoin="round" d="
			M190.715,233.35l2.494,4.649l3.798,3.317l-0.737-0.425l-3.798-3.317l-1.247-2.296"/>
		<path id="XMLID_1008_" fill="none" stroke="#0B0620" stroke-width="0.5" stroke-linecap="round" stroke-linejoin="round" d="
			M189.525,230.147l0.737,0.425"/>
		<path id="XMLID_1005_" fill="none" stroke="#0B0620" stroke-width="0.5" stroke-linecap="round" stroke-linejoin="round" d="
			M193.521,216.626l34.157-59.159"/>
		<path id="XMLID_1002_" fill="none" stroke="#0B0620" stroke-width="0.5" stroke-linecap="round" stroke-linejoin="round" d="
			M192.302,215.917l34.157-59.159"/>
		<path id="XMLID_999_" fill="none" stroke="#0B0620" stroke-width="0.5" stroke-linecap="round" stroke-linejoin="round" d="
			M197.518,241.032l0.113,0.085l-1.219-0.709"/>
		<path id="XMLID_996_" fill="none" stroke="#0B0620" stroke-width="0.5" stroke-linecap="round" stroke-linejoin="round" d="
			M197.008,241.316l0.624,0.368l-1.361-0.794"/>
		<path id="XMLID_993_" fill="none" stroke="#0B0620" stroke-width="0.5" stroke-linecap="round" stroke-linejoin="round" d="
			M197.632,241.684L535.38,436.679l5.074,1.757"/>
		<path id="XMLID_990_" fill="none" stroke="#0B0620" stroke-width="0.5" stroke-linecap="round" stroke-linejoin="round" d="
			M535.89,436.396l-338.4-195.364"/>
		<path id="XMLID_987_" fill="none" stroke="#0B0620" stroke-width="0.5" stroke-linecap="round" stroke-linejoin="round" d="
			M238.139,147.659l-0.737-0.425"/>
		<path id="XMLID_984_" fill="none" stroke="#0B0620" stroke-width="0.5" stroke-linecap="round" stroke-linejoin="round" d="
			M250.81,148.708l1.247,0.709l-2.494-1.417"/>
		<path id="XMLID_981_" fill="none" stroke="#0B0620" stroke-width="0.5" stroke-linecap="round" stroke-linejoin="round" d="
			M250.81,148.708l338.372,195.364"/>
		<path id="XMLID_978_" fill="none" stroke="#0B0620" stroke-width="0.5" stroke-linecap="round" stroke-linejoin="round" d="
			M250.81,148.141l1.247,0.709l-1.984-1.134"/>
		<path id="XMLID_975_" fill="none" stroke="#0B0620" stroke-width="0.5" stroke-linecap="round" stroke-linejoin="round" d="
			M593.235,347.02l-4.054-3.515L252.057,148.849"/>
		<path id="XMLID_972_" fill="none" stroke="#0B0620" stroke-width="0.5" stroke-linecap="round" stroke-linejoin="round" d="
			M533.509,435.602l1.871,1.077"/>
		<path id="XMLID_969_" fill="none" stroke="#0B0620" stroke-width="0.5" stroke-linecap="round" stroke-linejoin="round" d="
			M533.991,435.319l0.794,0.454"/>
		<path id="XMLID_966_" fill="none" stroke="#0B0620" stroke-width="0.5" stroke-linecap="round" stroke-linejoin="round" d="
			M534.643,436.254l4.791,1.644l5.272-0.17"/>
		<path id="XMLID_963_" fill="none" stroke="#0B0620" stroke-width="0.5" stroke-linecap="round" stroke-linejoin="round" d="
			M547.313,436.736l0.369,0.198"/>
		<path id="XMLID_960_" fill="none" stroke="#0B0620" stroke-width="0.5" stroke-linecap="round" stroke-linejoin="round" d="
			M557.802,426.9l34.724-58.791"/>
		<path id="XMLID_957_" fill="none" stroke="#0B0620" stroke-width="0.5" stroke-linecap="round" stroke-linejoin="round" d="
			M585.383,341.86l3.798,2.211"/>
		<path id="XMLID_954_" fill="none" stroke="#0B0620" stroke-width="0.5" stroke-linecap="round" stroke-linejoin="round" d="
			M589.181,343.505l-0.737-0.425"/>
		<path id="XMLID_951_" fill="none" stroke="#0B0620" stroke-width="0.5" stroke-linecap="round" stroke-linejoin="round" d="
			M595.191,353.823l0.369,0.198"/>
		<path id="XMLID_948_" fill="none" stroke="#0B0620" stroke-width="0.5" stroke-linecap="round" stroke-linejoin="round" d="
			M226.451,156.764c5.289-9.161,15.641-13.088,23.122-8.77"/>
		<path id="XMLID_945_" fill="none" stroke="#0B0620" stroke-width="0.5" stroke-linecap="round" stroke-linejoin="round" d="
			M588.453,343.071c7.676,4.431,9.5,15.644,4.073,25.047"/>
		<path id="XMLID_942_" fill="none" stroke="#0B0620" stroke-width="0.5" stroke-linecap="round" stroke-linejoin="round" d="
			M588.453,343.071c7.676,4.431,9.5,15.644,4.073,25.047"/>
		<path id="XMLID_939_" fill="none" stroke="#0B0620" stroke-width="0.5" stroke-linecap="round" stroke-linejoin="round" d="
			M589.19,344.063c2.908,1.679,5.077,4.458,6.188,7.928"/>
		<path id="XMLID_936_" fill="none" stroke="#0B0620" stroke-width="0.5" stroke-linecap="round" stroke-linejoin="round" d="
			M545.984,437.762c-3.609,0.818-7.157,0.339-10.106-1.363"/>
		<path id="XMLID_933_" fill="none" stroke="#0B0620" stroke-width="0.5" stroke-linecap="round" stroke-linejoin="round" d="
			M196.277,240.332c-7.484-4.322-9.261-15.256-3.969-24.423"/>
		<path id="XMLID_930_" fill="none" stroke="#0B0620" stroke-width="0.5" stroke-linecap="round" stroke-linejoin="round" d="
			M557.785,426.917c-5.293,9.167-15.652,13.095-23.136,8.773"/>
		<path id="XMLID_927_" fill="none" stroke="#0B0620" stroke-width="0.5" stroke-linecap="round" stroke-linejoin="round" d="
			M197.504,241.041c-7.484-4.322-9.261-15.256-3.969-24.423"/>
		<path id="XMLID_924_" fill="none" stroke="#0B0620" stroke-width="0.5" stroke-linecap="round" stroke-linejoin="round" d="
			M227.679,157.475c5.293-9.167,15.652-13.095,23.136-8.773"/>
	</g>
	<g id="XMLID_889_">
		<path id="XMLID_922_" fill="none" stroke="#0B0620" stroke-width="0.5" stroke-linecap="round" stroke-linejoin="round" d="
			M298.63,307.363c0.255,1.332,0.255,1.332,0.51,2.636c0.482,1.956,0.454,1.956,0.964,3.883c1.247,3.572,1.247,3.572,2.523,7.143
			c0.737,1.672,0.737,1.672,1.502,3.345"/>
		<path id="XMLID_921_" fill="none" stroke="#0B0620" stroke-width="0.5" stroke-linecap="round" stroke-linejoin="round" d="
			M329.159,178.642c-0.057-1.389-0.057-1.389-0.085-2.806c0.142-1.134,0.142-1.162,0.34-2.296c0.312-1.332,0.312-1.332,0.68-2.665
			c0.51-1.219,0.539-1.219,1.077-2.438c0.368-0.68,0.368-0.68,0.765-1.332c2.353-2.778,2.296-2.863,4.734-5.556
			c3.288-2.494,3.317-2.466,6.718-4.847c9.213-5.386,9.213-5.386,18.482-10.658"/>
		<path id="XMLID_920_" fill="none" stroke="#0B0620" stroke-width="0.5" stroke-linecap="round" stroke-linejoin="round" d="
			M646.753,310.509c-9.213,5.386-9.213,5.386-18.482,10.658c-4.167,2.013-4.167,2.013-8.391,3.883
			c-4.791,1.446-4.791,1.446-9.638,2.75"/>
		<path id="XMLID_919_" fill="none" stroke="#0B0620" stroke-width="0.5" stroke-linecap="round" stroke-linejoin="round" d="
			M465.307,403.542c-1.077-0.482-1.077-0.482-2.183-0.935c-1.106-0.255-1.106-0.255-2.211-0.482
			c-1.247-0.085-1.247-0.085-2.495-0.17c-1.247,0.057-1.247,0.057-2.495,0.142c-4.876,0.879-4.876,0.907-9.723,1.814
			c-1.191,0.198-1.191,0.17-2.381,0.368c-0.397,0.142-0.397,0.142-0.765,0.312"/>
		<path id="XMLID_918_" fill="none" stroke="#0B0620" stroke-width="0.5" stroke-linecap="round" stroke-linejoin="round" d="
			M467.49,421.883c5.301,3.09,5.301,3.09,10.602,6.123c1.361,0.539,1.361,0.539,2.721,1.02c1.502,0.113,1.531,0.085,3.033,0.142
			c0.765-0.113,0.794-0.142,1.531-0.283c3.373-1.02,3.373-1.02,6.69-2.069c3.515-1.247,3.515-1.276,7.002-2.551
			c0.539-0.255,0.539-0.283,1.077-0.539"/>
		<path id="XMLID_917_" fill="none" stroke="#0B0620" stroke-width="0.5" stroke-linecap="round" stroke-linejoin="round" d="
			M582.747,332.109c6.86-0.935,6.86-0.935,13.72-1.899c3.713-0.624,3.713-0.624,7.427-1.247c3.175-0.567,3.175-0.567,6.35-1.162"/>
		<path id="XMLID_916_" fill="none" stroke="#0B0620" stroke-width="0.5" stroke-linecap="round" stroke-linejoin="round" d="
			M298.715,321.564l-0.057,2.835l0.085-3.288"/>
		<path id="XMLID_915_" fill="none" stroke="#0B0620" stroke-width="0.5" stroke-linecap="round" stroke-linejoin="round" d="
			M298.658,324.399l1.417,0.822L298.658,324.399"/>
		<path id="XMLID_914_" fill="none" stroke="#0B0620" stroke-width="0.5" stroke-linecap="round" stroke-linejoin="round" d="
			M304.129,326.979l-0.397,0.085l-1.077-0.368l-3.912-2.239l-0.113-17.093"/>
		<path id="XMLID_913_" fill="none" stroke="#0B0620" stroke-width="0.5" stroke-linecap="round" stroke-linejoin="round" d="
			M301.068,325.788l-0.992-0.567l0.142,0.085"/>
		<path id="XMLID_912_" fill="none" stroke="#0B0620" stroke-width="0.5" stroke-linecap="round" stroke-linejoin="round" d="
			M300.076,325.221l3.203,1.843l-0.624-0.368"/>
		<path id="XMLID_911_" fill="none" stroke="#0B0620" stroke-width="0.5" stroke-linecap="round" stroke-linejoin="round" d="
			M459.666,402.04l-160.639-92.693"/>
		<path id="XMLID_910_" fill="none" stroke="#0B0620" stroke-width="0.5" stroke-linecap="round" stroke-linejoin="round" d="
			M303.988,325.816l140.428,81.071"/>
		<path id="XMLID_909_" fill="none" stroke="#0B0620" stroke-width="0.5" stroke-linecap="round" stroke-linejoin="round" d="
			M303.279,327.064l142.923,82.517l-2.381-1.644l-0.765-0.737"/>
		<path id="XMLID_908_" fill="none" stroke="#0B0620" stroke-width="0.5" stroke-linecap="round" stroke-linejoin="round" d="
			M329.783,186.352l-0.028-0.227l252.992,145.984l-0.397,0.057"/>
		<path id="XMLID_907_" fill="none" stroke="#0B0620" stroke-width="0.5" stroke-linecap="round" stroke-linejoin="round" d="
			M329.754,186.125l-0.539-4.932l-0.057-2.551l0.028,3.203l-0.028,4.139"/>
		<path id="XMLID_906_" fill="none" stroke="#0B0620" stroke-width="0.5" stroke-linecap="round" stroke-linejoin="round" d="
			M329.188,182.468l0.028-1.276"/>
		<path id="XMLID_905_" fill="none" stroke="#0B0620" stroke-width="0.5" stroke-linecap="round" stroke-linejoin="round" d="
			M361.871,146.043l284.882,164.466"/>
		<path id="XMLID_904_" fill="none" stroke="#0B0620" stroke-width="0.5" stroke-linecap="round" stroke-linejoin="round" d="
			M610.243,327.801v20.494"/>
		<path id="XMLID_903_" fill="none" stroke="#0B0620" stroke-width="0.5" stroke-linecap="round" stroke-linejoin="round" d="
			M429.704,400.056l-1.02-0.567"/>
		<path id="XMLID_902_" fill="none" stroke="#0B0620" stroke-width="0.5" stroke-linecap="round" stroke-linejoin="round" d="
			M446.202,409.58l1.106,0.652l-1.984-1.162"/>
		<path id="XMLID_901_" fill="none" stroke="#0B0620" stroke-width="0.5" stroke-linecap="round" stroke-linejoin="round" d="
			M450.879,412.273l2.835,1.644l-7.512-4.337"/>
		<path id="XMLID_900_" fill="none" stroke="#0B0620" stroke-width="0.5" stroke-linecap="round" stroke-linejoin="round" d="
			M453.714,413.917l3.203,1.871l-0.51-0.312"/>
		<path id="XMLID_899_" fill="none" stroke="#0B0620" stroke-width="0.5" stroke-linecap="round" stroke-linejoin="round" d="
			M456.917,415.788l10.573,6.094l-0.964-0.567"/>
		<path id="XMLID_898_" fill="none" stroke="#0B0620" stroke-width="0.5" stroke-linecap="round" stroke-linejoin="round" d="
			M465.279,403.571l7.2,4.167l-0.057-0.028"/>
		<path id="XMLID_897_" fill="none" stroke="#0B0620" stroke-width="0.5" stroke-linecap="round" stroke-linejoin="round" d="
			M467.405,421.826v-17.008"/>
		<path id="XMLID_896_" fill="none" stroke="#0B0620" stroke-width="0.5" stroke-linecap="round" stroke-linejoin="round" d="
			M472.479,407.738l3.43,1.984"/>
		<path id="XMLID_895_" fill="none" stroke="#0B0620" stroke-width="0.5" stroke-linecap="round" stroke-linejoin="round" d="
			M617.669,354.616v-6.718l-5.584,1.474"/>
		<path id="XMLID_894_" fill="none" stroke="#0B0620" stroke-width="0.5" stroke-linecap="round" stroke-linejoin="round" d="
			M612.822,400.226l27.808-16.044"/>
		<path id="XMLID_893_" fill="none" stroke="#0B0620" stroke-width="0.5" stroke-linecap="round" stroke-linejoin="round" d="
			M618.86,392.997l-1.191,1.304v-8.816"/>
		<path id="XMLID_892_" fill="none" stroke="#0B0620" stroke-width="0.5" stroke-linecap="round" stroke-linejoin="round" d="
			M646.753,370.689v-60.18"/>
		<path id="XMLID_891_" fill="none" stroke="#0B0620" stroke-width="0.5" stroke-linecap="round" stroke-linejoin="round" d="
			M617.672,394.273c-1.698,4.383-4.993,6.972-9.295,7.305"/>
		<path id="XMLID_890_" fill="none" stroke="#0B0620" stroke-width="0.5" stroke-linecap="round" stroke-linejoin="round" d="
			M646.736,370.694c0,6.384-2.196,11.239-6.106,13.496"/>
	</g>
	<g id="XMLID_760_">
		<path id="XMLID_888_" fill="none" stroke="#0B0620" stroke-width="0.5" stroke-linecap="round" stroke-linejoin="round" d="
			M183.714,233.407c-0.312-2.211-0.312-2.211-0.539-4.422c0.113-2.211,0.142-2.211,0.312-4.422c0.085-0.567,0.085-0.567,0.17-1.105"
			/>
		<path id="XMLID_887_" fill="none" stroke="#0B0620" stroke-width="0.5" stroke-linecap="round" stroke-linejoin="round" d="
			M185.783,239.36c0.567,0.907,0.567,0.907,1.191,1.814c0.907,1.162,0.907,1.162,1.843,2.268c0.85,0.709,0.85,0.709,1.701,1.389
			c1.219,0.765,1.219,0.765,2.438,1.531"/>
		<path id="XMLID_886_" fill="none" stroke="#0B0620" stroke-width="0.5" stroke-linecap="round" stroke-linejoin="round" d="
			M187.569,213.168c17.036-29.594,17.036-29.594,34.129-59.131c1.672-2.608,1.672-2.636,3.402-5.159
			c2.098-2.126,2.126-2.126,4.309-4.139c2.863-1.757,2.891-1.757,5.811-3.373c2.069-0.765,2.098-0.765,4.195-1.389
			c3.033-0.34,3.061-0.34,6.094-0.539"/>
		<path id="XMLID_866_" fill="none" stroke="#0B0620" stroke-width="0.5" stroke-linecap="round" stroke-linejoin="round" d="
			M466.526,404.308c32.003,18.482,32.003,18.482,64.035,36.964c1.729,0.935,1.701,0.992,3.458,1.871
			c2.438,0.68,2.466,0.68,4.932,1.247"/>
		<path id="XMLID_865_" fill="none" stroke="#0B0620" stroke-width="0.5" stroke-linecap="round" stroke-linejoin="round" d="
			M538.951,444.39c3.061-0.198,3.09-0.198,6.123-0.539c2.098-0.624,2.126-0.624,4.167-1.389c2.948-1.616,2.976-1.616,5.839-3.373
			c2.183-1.984,2.183-2.013,4.28-4.139c1.758-2.523,1.729-2.551,3.402-5.159c17.093-29.537,17.093-29.537,34.157-59.131
			c0.879-1.616,0.907-1.616,1.786-3.26c1.049-2.863,1.021-2.891,2.013-5.783c0.284-1.106,0.312-1.106,0.51-2.211
			c0.085-2.268,0.085-2.268,0.085-4.564"/>
		<path id="XMLID_861_" fill="none" stroke="#0B0620" stroke-width="0.5" stroke-linecap="round" stroke-linejoin="round" d="
			M537.307,445.155c6.917,3.997,6.917,3.997,13.833,7.994c1.332,0.709,1.304,0.737,2.665,1.417c2.438,0.68,2.466,0.68,4.932,1.276"
			/>
		<path id="XMLID_860_" fill="none" stroke="#0B0620" stroke-width="0.5" stroke-linecap="round" stroke-linejoin="round" d="
			M558.737,455.842c3.061-0.227,3.061-0.227,6.123-0.539c2.098-0.652,2.126-0.652,4.195-1.389c2.948-1.644,2.976-1.644,5.811-3.402
			c2.211-2.013,2.211-2.013,4.309-4.139c1.757-2.523,1.729-2.551,3.402-5.131c17.093-29.565,17.093-29.565,34.129-59.159
			c1.417-2.75,1.446-2.721,2.778-5.499c0.765-2.891,0.794-2.891,1.446-5.811c0.085-3.345,0.057-3.373,0-6.718
			c-0.397-2.183-0.397-2.211-0.879-4.365c-1.247-2.778-1.247-2.806-2.608-5.556"/>
		<path id="XMLID_859_" fill="none" stroke="#0B0620" stroke-width="0.5" stroke-linecap="round" stroke-linejoin="round" d="
			M617.443,354.135c-1.758-1.843-1.758-1.843-3.572-3.628c-1.247-0.822-1.276-0.822-2.551-1.616
			c-9.893-5.698-9.893-5.698-19.786-11.424"/>
		<path id="XMLID_858_" fill="none" stroke="#0B0620" stroke-width="0.5" stroke-linecap="round" stroke-linejoin="round" d="
			M620.787,363.262c0.454,1.106,0.454,1.106,0.85,2.239c0.397,2.608,0.397,2.608,0.709,5.187c-0.142,2.891-0.17,2.891-0.425,5.754
			c-0.425,1.559-0.425,1.587-0.935,3.118c-0.992,1.899-0.992,1.928-2.069,3.798"/>
		<path id="XMLID_857_" fill="none" stroke="#0B0620" stroke-width="0.5" stroke-linecap="round" stroke-linejoin="round" d="
			M618.917,383.36c-17.093,29.565-17.093,29.565-34.157,59.131c-0.283,0.595-0.283,0.624-0.567,1.191
			c-1.105,1.616-1.105,1.644-2.239,3.232c-1.247,1.219-1.247,1.219-2.551,2.381c-2.438,1.531-2.438,1.559-4.904,3.033
			c-2.409,0.907-2.438,0.879-4.904,1.701c-0.652,0.085-0.652,0.085-1.304,0.142"/>
		<path id="XMLID_856_" fill="none" stroke="#0B0620" stroke-width="0.5" stroke-linecap="round" stroke-linejoin="round" d="
			M593.717,338.742c0.992,0.794,0.992,0.794,1.928,1.644c1.077,1.191,1.077,1.191,2.126,2.409c0.482,0.822,0.482,0.822,0.935,1.672"
			/>
		<path id="XMLID_855_" fill="none" stroke="#0B0620" stroke-width="0.5" stroke-linecap="round" stroke-linejoin="round" d="
			M185.783,239.36l-1.417-3.742l-0.652-2.211L185.783,239.36l3.033,4.082l4.139,2.92l4.677,2.693l-2.098-1.219"/>
		<path id="XMLID_854_" fill="none" stroke="#0B0620" stroke-width="0.5" stroke-linecap="round" stroke-linejoin="round" d="
			M183.657,223.457l-0.283,3.203"/>
		<path id="XMLID_853_" fill="none" stroke="#0B0620" stroke-width="0.5" stroke-linecap="round" stroke-linejoin="round" d="
			M184.451,220.254l-0.709,1.956l-0.085,1.247l0.085-1.247l1.191-3.458L184.451,220.254"/>
		<path id="XMLID_852_" fill="none" stroke="#0B0620" stroke-width="0.5" stroke-linecap="round" stroke-linejoin="round" d="
			M184.961,218.752l0.595-1.701l-0.624,1.701"/>
		<path id="XMLID_851_" fill="none" stroke="#0B0620" stroke-width="0.5" stroke-linecap="round" stroke-linejoin="round" d="
			M185.556,217.051l0.227-0.624l1.786-3.26"/>
		<path id="XMLID_850_" fill="none" stroke="#0B0620" stroke-width="0.5" stroke-linecap="round" stroke-linejoin="round" d="
			M245.509,139.438l4.961,1.247l2.665,1.417l158.967,91.786l-1.304-0.765"/>
		<path id="XMLID_847_" fill="none" stroke="#0B0620" stroke-width="0.5" stroke-linecap="round" stroke-linejoin="round" d="
			M191.736,215.577l34.158-59.131"/>
		<path id="XMLID_846_" fill="none" stroke="#0B0620" stroke-width="0.5" stroke-linecap="round" stroke-linejoin="round" d="
			M195.902,241.259l338.372,195.364"/>
		<path id="XMLID_845_" fill="none" stroke="#0B0620" stroke-width="0.5" stroke-linecap="round" stroke-linejoin="round" d="
			M197.632,249.054l16.016,9.241l-3.203-1.843"/>
		<path id="XMLID_835_" fill="none" stroke="#0B0620" stroke-width="0.5" stroke-linecap="round" stroke-linejoin="round" d="
			M213.647,258.295l84.983,49.068"/>
		<path id="XMLID_821_" fill="none" stroke="#0B0620" stroke-width="0.5" stroke-linecap="round" stroke-linejoin="round" d="
			M588.699,342.654L250.186,147.205l1.105,0.652"/>
		<path id="XMLID_817_" fill="none" stroke="#0B0620" stroke-width="0.5" stroke-linecap="round" stroke-linejoin="round" d="
			M298.63,307.363l76.394,44.107l-0.227-0.142"/>
		<path id="XMLID_815_" fill="none" stroke="#0B0620" stroke-width="0.5" stroke-linecap="round" stroke-linejoin="round" d="
			M375.024,351.47l27.468,15.874l-2.183-1.276"/>
		<path id="XMLID_805_" fill="none" stroke="#0B0620" stroke-width="0.5" stroke-linecap="round" stroke-linejoin="round" d="
			M465.307,403.599l1.219,0.709l-64.035-36.964"/>
		<path id="XMLID_801_" fill="none" stroke="#0B0620" stroke-width="0.5" stroke-linecap="round" stroke-linejoin="round" d="
			M412.101,233.889l57.628,33.25l-1.871-1.049"/>
		<path id="XMLID_799_" fill="none" stroke="#0B0620" stroke-width="0.5" stroke-linecap="round" stroke-linejoin="round" d="
			M439.455,341.86l0.539,0.312"/>
		<path id="XMLID_796_" fill="none" stroke="#0B0620" stroke-width="0.5" stroke-linecap="round" stroke-linejoin="round" d="
			M469.276,405.867l-2.75-1.559"/>
		<path id="XMLID_795_" fill="none" stroke="#0B0620" stroke-width="0.5" stroke-linecap="round" stroke-linejoin="round" d="
			M601.313,354.843l-0.595,6.775l-0.935,3.6"/>
		<path id="XMLID_794_" fill="none" stroke="#0B0620" stroke-width="0.5" stroke-linecap="round" stroke-linejoin="round" d="
			M469.729,267.139l54.425,31.436l-1.134-0.652"/>
		<path id="XMLID_787_" fill="none" stroke="#0B0620" stroke-width="0.5" stroke-linecap="round" stroke-linejoin="round" d="
			M501.732,300.957l0.51,0.283"/>
		<path id="XMLID_785_" fill="none" stroke="#0B0620" stroke-width="0.5" stroke-linecap="round" stroke-linejoin="round" d="
			M524.154,298.575l67.38,38.891l4.11,2.92l3.061,4.082l1.644,3.883"/>
		<path id="XMLID_784_" fill="none" stroke="#0B0620" stroke-width="0.5" stroke-linecap="round" stroke-linejoin="round" d="
			M530.561,441.271l3.175,1.843l-2.409-1.389"/>
		<path id="XMLID_783_" fill="none" stroke="#0B0620" stroke-width="0.5" stroke-linecap="round" stroke-linejoin="round" d="
			M535.295,443.993l-1.559-0.879l3.203,1.843"/>
		<path id="XMLID_782_" fill="none" stroke="#0B0620" stroke-width="0.5" stroke-linecap="round" stroke-linejoin="round" d="
			M548.164,442.831l19.814,11.424"/>
		<path id="XMLID_780_" fill="none" stroke="#0B0620" stroke-width="0.5" stroke-linecap="round" stroke-linejoin="round" d="
			M558.595,427.382l34.157-59.131"/>
		<path id="XMLID_778_" fill="none" stroke="#0B0620" stroke-width="0.5" stroke-linecap="round" stroke-linejoin="round" d="
			M567.071,338.657l-1.304-0.737"/>
		<path id="XMLID_777_" fill="none" stroke="#0B0620" stroke-width="0.5" stroke-linecap="round" stroke-linejoin="round" d="
			M591.364,337.382l0.283,0.17"/>
		<path id="XMLID_776_" fill="none" stroke="#0B0620" stroke-width="0.5" stroke-linecap="round" stroke-linejoin="round" d="
			M601.313,354.843l-0.539-4.422l-2.069-5.953"/>
		<path id="XMLID_775_" fill="none" stroke="#0B0620" stroke-width="0.5" stroke-linecap="round" stroke-linejoin="round" d="
			M601.285,354.843l-0.028-2.154"/>
		<path id="XMLID_774_" fill="none" stroke="#0B0620" stroke-width="0.5" stroke-linecap="round" stroke-linejoin="round" d="
			M600.917,351.527l19.786,11.424"/>
		<path id="XMLID_772_" fill="none" stroke="#0B0620" stroke-width="0.5" stroke-linecap="round" stroke-linejoin="round" d="
			M558.604,427.39c-5.562,9.636-16.45,13.766-24.318,9.224c0,0,0,0,0,0"/>
		<path id="XMLID_768_" fill="none" stroke="#0B0620" stroke-width="0.5" stroke-linecap="round" stroke-linejoin="round" d="
			M225.879,156.435c5.563-9.636,16.45-13.766,24.318-9.224c0,0,0,0,0,0"/>
		<path id="XMLID_765_" fill="none" stroke="#0B0620" stroke-width="0.5" stroke-linecap="round" stroke-linejoin="round" d="
			M588.575,342.575c7.868,4.542,9.737,16.035,4.174,25.671c0,0.001-0.001,0.002-0.001,0.002"/>
		<path id="XMLID_761_" fill="none" stroke="#0B0620" stroke-width="0.5" stroke-linecap="round" stroke-linejoin="round" d="
			M195.905,241.25c-7.868-4.542-9.737-16.035-4.174-25.671c0-0.001,0.001-0.002,0.001-0.002"/>
	</g>
	<g id="XMLID_4_">
		<path id="XMLID_92_" fill="none" stroke="#0B0620" stroke-width="0.5" stroke-linecap="round" stroke-linejoin="round" d="
			M651.94,358.642c-0.255-0.028-0.255-0.028-0.482-0.028c-0.142-0.028-0.142-0.028-0.255-0.057
			c-0.227-0.113-0.227-0.113-0.482-0.198"/>
		<path id="XMLID_91_" fill="none" stroke="#0B0620" stroke-width="0.5" stroke-linecap="round" stroke-linejoin="round" d="
			M654.123,356.912c-0.255,0.255-0.255,0.255-0.51,0.51c-0.425,0.283-0.425,0.312-0.85,0.595c-0.454,0.17-0.454,0.17-0.935,0.312"/>
		<path id="XMLID_90_" fill="none" stroke="#0B0620" stroke-width="0.5" stroke-linecap="round" stroke-linejoin="round" d="
			M655.143,354.276c-0.198,0.283-0.198,0.283-0.425,0.567c-0.369,0.312-0.369,0.34-0.737,0.652c-0.368,0.17-0.368,0.17-0.737,0.34
			c-0.057,0.028-0.057,0.028-0.142,0.028c-0.255,0.028-0.255,0.028-0.51,0.057"/>
		<path id="XMLID_89_" fill="none" stroke="#0B0620" stroke-width="0.5" stroke-linecap="round" stroke-linejoin="round" d="
			M655.937,348.323c-0.17,0.312-0.17,0.312-0.34,0.595c-0.283,0.368-0.283,0.368-0.567,0.737c-0.284,0.198-0.284,0.198-0.567,0.397
			c-0.227,0.057-0.227,0.085-0.454,0.142"/>
		<path id="XMLID_88_" fill="none" stroke="#0B0620" stroke-width="0.5" stroke-linecap="round" stroke-linejoin="round" d="
			M646.753,336.588c3.373,1.956,3.373,1.956,6.775,3.912c0.057,0.028,0.085,0.057,0.17,0.085c0.085,0,0.085,0,0.17,0.028
			c0.113-0.028,0.113-0.028,0.227-0.028c0.113-0.028,0.113-0.028,0.227-0.057c0.227-0.142,0.227-0.142,0.454-0.283
			c0.227-0.198,0.227-0.198,0.454-0.425c0.198-0.255,0.198-0.255,0.368-0.51c0.17-0.312,0.17-0.312,0.34-0.624"/>
		<path id="XMLID_87_" fill="none" stroke="#0B0620" stroke-width="0.5" stroke-linecap="round" stroke-linejoin="round" d="
			M655.739,351.413c-0.17,0.312-0.17,0.312-0.397,0.595c-0.312,0.34-0.312,0.34-0.652,0.68c-0.312,0.198-0.312,0.198-0.652,0.369
			c-0.227,0.085-0.227,0.085-0.482,0.113"/>
		<path id="XMLID_86_" fill="none" stroke="#0B0620" stroke-width="0.5" stroke-linecap="round" stroke-linejoin="round" d="
			M655.937,345.12c-0.17,0.312-0.17,0.312-0.34,0.595c-0.17,0.283-0.17,0.283-0.368,0.539c-0.227,0.198-0.227,0.198-0.454,0.425
			c-0.227,0.142-0.227,0.113-0.454,0.255c-0.113,0.028-0.113,0.028-0.227,0.057c-0.113,0.028-0.113,0.028-0.227,0.028
			c-0.085,0-0.085,0-0.17-0.028s-0.085-0.028-0.17-0.057"/>
		<path id="XMLID_85_" fill="none" stroke="#0B0620" stroke-width="0.5" stroke-linecap="round" stroke-linejoin="round" d="
			M655.937,341.917c-0.17,0.283-0.17,0.283-0.34,0.595c-0.17,0.255-0.17,0.255-0.368,0.539c-0.227,0.198-0.227,0.198-0.454,0.397
			c-0.227,0.142-0.227,0.142-0.454,0.283c-0.113,0.028-0.113,0.028-0.227,0.057c-0.113,0.028-0.113,0.028-0.227,0.028
			c-0.085-0.028-0.085-0.028-0.17-0.028c-0.085-0.028-0.113-0.028-0.17-0.085"/>
		<path id="XMLID_84_" fill="none" stroke="#0B0620" stroke-width="0.5" stroke-linecap="round" stroke-linejoin="round" d="
			M652.876,358.245l-0.284,0.198l-0.652,0.198"/>
		<path id="XMLID_83_" fill="none" stroke="#0B0620" stroke-width="0.5" stroke-linecap="round" stroke-linejoin="round" d="
			M650.721,358.358l-3.969-2.296"/>
		<path id="XMLID_82_" fill="none" stroke="#0B0620" stroke-width="0.5" stroke-linecap="round" stroke-linejoin="round" d="
			M653.811,356.714l0.312,0.198"/>
		<path id="XMLID_81_" fill="none" stroke="#0B0620" stroke-width="0.5" stroke-linecap="round" stroke-linejoin="round" d="
			M651.827,358.33h-0.624l-0.368-0.113l-4.082-2.381"/>
		<path id="XMLID_80_" fill="none" stroke="#0B0620" stroke-width="0.5" stroke-linecap="round" stroke-linejoin="round" d="
			M646.753,352.632l5.811,3.373"/>
		<path id="XMLID_79_" fill="none" stroke="#0B0620" stroke-width="0.5" stroke-linecap="round" stroke-linejoin="round" d="
			M646.753,349.429l8.391,4.847"/>
		<path id="XMLID_78_" fill="none" stroke="#0B0620" stroke-width="0.5" stroke-linecap="round" stroke-linejoin="round" d="
			M652.592,355.92l-0.369-0.113l-0.028-0.028l0.369,0.227"/>
		<path id="XMLID_77_" fill="none" stroke="#0B0620" stroke-width="0.5" stroke-linecap="round" stroke-linejoin="round" d="
			M646.753,343.023l9.184,5.301"/>
		<path id="XMLID_76_" fill="none" stroke="#0B0620" stroke-width="0.5" stroke-linecap="round" stroke-linejoin="round" d="
			M654.01,350.194h-0.34l-0.198-0.085l0.794,0.454l-7.512-4.337"/>
		<path id="XMLID_75_" fill="none" stroke="#0B0620" stroke-width="0.5" stroke-linecap="round" stroke-linejoin="round" d="
			M646.753,339.791l6.775,3.912"/>
		<path id="XMLID_74_" fill="none" stroke="#0B0620" stroke-width="0.5" stroke-linecap="round" stroke-linejoin="round" d="
			M655.937,338.686l-1.162-0.652"/>
		<path id="XMLID_73_" fill="none" stroke="#0B0620" stroke-width="0.5" stroke-linecap="round" stroke-linejoin="round" d="
			M655.314,338.119l-8.561-4.932"/>
		<path id="XMLID_72_" fill="none" stroke="#0B0620" stroke-width="0.5" stroke-linecap="round" stroke-linejoin="round" d="
			M648.199,334.235l0.794,0.454l-2.239-1.304"/>
		<path id="XMLID_71_" fill="none" stroke="#0B0620" stroke-width="0.5" stroke-linecap="round" stroke-linejoin="round" d="
			M646.753,320.346l11.962,6.917v9.241v2.154v-11.395"/>
		<path id="XMLID_70_" fill="none" stroke="#0B0620" stroke-width="0.5" stroke-linecap="round" stroke-linejoin="round" d="
			M652.734,356.09l-0.539-0.312l1.502,0.879l-0.227-0.113"/>
		<path id="XMLID_69_" fill="none" stroke="#0B0620" stroke-width="0.5" stroke-linecap="round" stroke-linejoin="round" d="
			M652.195,355.779L652.195,355.779"/>
		<path id="XMLID_68_" fill="none" stroke="#0B0620" stroke-width="0.5" stroke-linecap="round" stroke-linejoin="round" d="
			M648.992,353.936l0.992,0.567"/>
		<path id="XMLID_67_" fill="none" stroke="#0B0620" stroke-width="0.5" stroke-linecap="round" stroke-linejoin="round" d="
			M653.754,350.279l-1.559-0.907l1.502,0.879"/>
		<path id="XMLID_66_" fill="none" stroke="#0B0620" stroke-width="0.5" stroke-linecap="round" stroke-linejoin="round" d="
			M653.754,350.279l-1.559-0.907l1.276,0.737"/>
		<path id="XMLID_65_" fill="none" stroke="#0B0620" stroke-width="0.5" stroke-linecap="round" stroke-linejoin="round" d="
			M653.754,350.279l-1.559-0.907l1.417,0.822"/>
		<path id="XMLID_64_" fill="none" stroke="#0B0620" stroke-width="0.5" stroke-linecap="round" stroke-linejoin="round" d="
			M655.228,344.695l0.17,0.113l-3.203-1.871L655.228,344.695l-0.964-0.539"/>
		<path id="XMLID_63_" fill="none" stroke="#0B0620" stroke-width="0.5" stroke-linecap="round" stroke-linejoin="round" d="
			M653.528,340.5l-1.332-0.765l3.203,1.842L653.528,340.5"/>
		<path id="XMLID_62_" fill="none" stroke="#0B0620" stroke-width="0.5" stroke-linecap="round" stroke-linejoin="round" d="
			M648.992,334.689l3.203,1.842l-1.077-0.624"/>
		<path id="XMLID_61_" fill="none" stroke="#0B0620" stroke-width="0.5" stroke-linecap="round" stroke-linejoin="round" d="
			M655.228,338.289L655.228,338.289l-3.033-1.757l2.353,1.361"/>
		<path id="XMLID_60_" fill="none" stroke="#0B0620" stroke-width="0.5" stroke-linecap="round" stroke-linejoin="round" d="
			M654.463,337.835l-2.268-1.304l1.701,0.992"/>
		<path id="XMLID_59_" fill="none" stroke="#0B0620" stroke-width="0.5" stroke-linecap="round" stroke-linejoin="round" d="
			M653.754,337.438l-1.559-0.907l2.778,1.616"/>
		<path id="XMLID_58_" fill="none" stroke="#0B0620" stroke-width="0.5" stroke-linecap="round" stroke-linejoin="round" d="
			M650.353,335.483l-1.361-0.794"/>
		<path id="XMLID_57_" fill="none" stroke="#0B0620" stroke-width="0.5" stroke-linecap="round" stroke-linejoin="round" d="
			M652.592,358.443l2.806-1.616l-2.58,1.446"/>
		<path id="XMLID_56_" fill="none" stroke="#0B0620" stroke-width="0.5" stroke-linecap="round" stroke-linejoin="round" d="
			M654.123,356.912l-0.425-0.255"/>
		<path id="XMLID_55_" fill="none" stroke="#0B0620" stroke-width="0.5" stroke-linecap="round" stroke-linejoin="round" d="
			M652.564,356.005l0.17,0.113"/>
		<path id="XMLID_54_" fill="none" stroke="#0B0620" stroke-width="0.5" stroke-linecap="round" stroke-linejoin="round" d="
			M653.273,356.402l-0.284-0.142L653.273,356.402"/>
		<path id="XMLID_53_" fill="none" stroke="#0B0620" stroke-width="0.5" stroke-linecap="round" stroke-linejoin="round" d="
			M653.329,356.459l-0.368-0.227L653.329,356.459"/>
		<path id="XMLID_52_" fill="none" stroke="#0B0620" stroke-width="0.5" stroke-linecap="round" stroke-linejoin="round" d="
			M653.329,356.431l-0.595-0.312"/>
		<path id="XMLID_51_" fill="none" stroke="#0B0620" stroke-width="0.5" stroke-linecap="round" stroke-linejoin="round" d="
			M653.273,356.402l-0.284-0.142"/>
		<path id="XMLID_50_" fill="none" stroke="#0B0620" stroke-width="0.5" stroke-linecap="round" stroke-linejoin="round" d="
			M653.726,353.483l0.369,0.198"/>
		<path id="XMLID_49_" fill="none" stroke="#0B0620" stroke-width="0.5" stroke-linecap="round" stroke-linejoin="round" d="
			M653.273,353.199l-1.077-0.624l1.049,0.624"/>
		<path id="XMLID_48_" fill="none" stroke="#0B0620" stroke-width="0.5" stroke-linecap="round" stroke-linejoin="round" d="
			M654.293,353.794l-0.964-0.567"/>
		<path id="XMLID_47_" fill="none" stroke="#0B0620" stroke-width="0.5" stroke-linecap="round" stroke-linejoin="round" d="
			M654.265,350.563l1.474,0.85"/>
		<path id="XMLID_46_" fill="none" stroke="#0B0620" stroke-width="0.5" stroke-linecap="round" stroke-linejoin="round" d="
			M653.556,353.171l-0.368-0.028l-0.113-0.057"/>
		<path id="XMLID_45_" fill="none" stroke="#0B0620" stroke-width="0.5" stroke-linecap="round" stroke-linejoin="round" d="
			M653.273,353.199l-1.077-0.624l0.992,0.567"/>
		<path id="XMLID_44_" fill="none" stroke="#0B0620" stroke-width="0.5" stroke-linecap="round" stroke-linejoin="round" d="
			M654.888,354.135l-0.312-0.17"/>
		<path id="XMLID_43_" fill="none" stroke="#0B0620" stroke-width="0.5" stroke-linecap="round" stroke-linejoin="round" d="
			M654.321,353.823l-0.595-0.34"/>
		<path id="XMLID_42_" fill="none" stroke="#0B0620" stroke-width="0.5" stroke-linecap="round" stroke-linejoin="round" d="
			M653.046,353.086l-0.85-0.51l0.992,0.567"/>
		<path id="XMLID_41_" fill="none" stroke="#0B0620" stroke-width="0.5" stroke-linecap="round" stroke-linejoin="round" d="
			M652.195,352.575l0.85,0.51"/>
		<path id="XMLID_40_" fill="none" stroke="#0B0620" stroke-width="0.5" stroke-linecap="round" stroke-linejoin="round" d="
			M654.293,353.794l-0.539-0.312"/>
		<path id="XMLID_39_" fill="none" stroke="#0B0620" stroke-width="0.5" stroke-linecap="round" stroke-linejoin="round" d="
			M654.548,350.733l0.51,0.283"/>
		<path id="XMLID_38_" fill="none" stroke="#0B0620" stroke-width="0.5" stroke-linecap="round" stroke-linejoin="round" d="
			M654.633,350.79l0.567,0.312"/>
		<path id="XMLID_37_" fill="none" stroke="#0B0620" stroke-width="0.5" stroke-linecap="round" stroke-linejoin="round" d="
			M655.058,351.016l0.142,0.085"/>
		<path id="XMLID_36_" fill="none" stroke="#0B0620" stroke-width="0.5" stroke-linecap="round" stroke-linejoin="round" d="
			M654.548,347.53v-0.737"/>
		<path id="XMLID_35_" fill="none" stroke="#0B0620" stroke-width="0.5" stroke-linecap="round" stroke-linejoin="round" d="
			M655.03,347.813l-0.765-0.454"/>
		<path id="XMLID_34_" fill="none" stroke="#0B0620" stroke-width="0.5" stroke-linecap="round" stroke-linejoin="round" d="
			M652.564,346.396l-0.369-0.227l3.742,2.154"/>
		<path id="XMLID_33_" fill="none" stroke="#0B0620" stroke-width="0.5" stroke-linecap="round" stroke-linejoin="round" d="
			M652.252,346.197l-0.057-0.028l1.332,0.765"/>
		<path id="XMLID_32_" fill="none" stroke="#0B0620" stroke-width="0.5" stroke-linecap="round" stroke-linejoin="round" d="
			M653.981,343.986l1.956,1.134"/>
		<path id="XMLID_31_" fill="none" stroke="#0B0620" stroke-width="0.5" stroke-linecap="round" stroke-linejoin="round" d="
			M654.265,347.36l-0.539-0.312"/>
		<path id="XMLID_30_" fill="none" stroke="#0B0620" stroke-width="0.5" stroke-linecap="round" stroke-linejoin="round" d="
			M655.228,347.898l-1.559-0.879"/>
		<path id="XMLID_29_" fill="none" stroke="#0B0620" stroke-width="0.5" stroke-linecap="round" stroke-linejoin="round" d="
			M654.265,347.36l-0.51-0.312"/>
		<path id="XMLID_28_" fill="none" stroke="#0B0620" stroke-width="0.5" stroke-linecap="round" stroke-linejoin="round" d="
			M654.548,344.327v-0.737"/>
		<path id="XMLID_27_" fill="none" stroke="#0B0620" stroke-width="0.5" stroke-linecap="round" stroke-linejoin="round" d="
			M653.953,340.755l1.984,1.162"/>
		<path id="XMLID_26_" fill="none" stroke="#0B0620" stroke-width="0.5" stroke-linecap="round" stroke-linejoin="round" d="
			M655.399,344.809l-1.446-0.85"/>
		<path id="XMLID_25_" fill="none" stroke="#0B0620" stroke-width="0.5" stroke-linecap="round" stroke-linejoin="round" d="
			M654.321,344.185l-0.369-0.227"/>
		<path id="XMLID_24_" fill="none" stroke="#0B0620" stroke-width="0.5" stroke-linecap="round" stroke-linejoin="round" d="
			M654.548,341.095v-0.709"/>
		<path id="XMLID_23_" fill="none" stroke="#0B0620" stroke-width="0.5" stroke-linecap="round" stroke-linejoin="round" d="
			M655.399,341.577l-1.134-0.624"/>
		<path id="XMLID_22_" fill="none" stroke="#0B0620" stroke-width="0.5" stroke-linecap="round" stroke-linejoin="round" d="
			M654.095,340.84L654.095,340.84"/>
		<path id="XMLID_21_" fill="none" stroke="#0B0620" stroke-width="0.5" stroke-linecap="round" stroke-linejoin="round" d="
			M654.265,340.953l-0.312-0.198"/>
		<path id="XMLID_20_" fill="none" stroke="#0B0620" stroke-width="0.5" stroke-linecap="round" stroke-linejoin="round" d="
			M655.937,341.917l-1.956-1.134"/>
		<path id="XMLID_19_" fill="none" stroke="#0B0620" stroke-width="0.5" stroke-linecap="round" stroke-linejoin="round" d="
			M658.715,335.284l-4.167,2.409v0.198"/>
		<path id="XMLID_18_" fill="none" stroke="#0B0620" stroke-width="0.5" stroke-linecap="round" stroke-linejoin="round" d="
			M655.228,338.289l0.709,0.397"/>
		<path id="XMLID_17_" fill="none" stroke="#0B0620" stroke-width="0.5" stroke-linecap="round" stroke-linejoin="round" d="
			M654.095,337.637L654.095,337.637L654.095,337.637"/>
		<path id="XMLID_16_" fill="none" stroke="#0B0620" stroke-width="0.5" stroke-linecap="round" stroke-linejoin="round" d="
			M653.783,337.438l-0.255-0.142"/>
		<path id="XMLID_15_" fill="none" stroke="#0B0620" stroke-width="0.5" stroke-linecap="round" stroke-linejoin="round" d="
			M653.839,337.495l-0.312-0.17"/>
		<path id="XMLID_14_" fill="none" stroke="#0B0620" stroke-width="0.5" stroke-linecap="round" stroke-linejoin="round" d="
			M655.71,356.657l-0.312,0.17l0.879-0.51l0.113-0.142l1.502-3.345l0.822-6.094v-10.913"/>
		<path id="XMLID_13_" fill="none" stroke="#0B0620" stroke-width="0.5" stroke-linecap="round" stroke-linejoin="round" d="
			M655.399,344.809l0.539,0.312"/>
		<path id="XMLID_12_" fill="none" stroke="#0B0620" stroke-width="0.5" stroke-linecap="round" stroke-linejoin="round" d="
			M655.569,341.69l0.028,0.028v-0.028"/>
		<path id="XMLID_11_" fill="none" stroke="#0B0620" stroke-width="0.5" stroke-linecap="round" stroke-linejoin="round" d="
			M655.597,338.487L655.597,338.487"/>
		<path id="XMLID_10_" fill="none" stroke="#0B0620" stroke-width="0.5" stroke-linecap="round" stroke-linejoin="round" d="
			M658.715,345.064v-6.406"/>
		<path id="XMLID_9_" fill="none" stroke="#0B0620" stroke-width="0.5" stroke-linecap="round" stroke-linejoin="round" d="
			M658.715,335.738v-0.255v0.113"/>
		<path id="XMLID_8_" fill="none" stroke="#0B0620" stroke-width="0.5" stroke-linecap="round" stroke-linejoin="round" d="
			M658.715,335.823v-1.332"/>
		<path id="XMLID_7_" fill="none" stroke="#0B0620" stroke-width="0.5" stroke-linecap="round" stroke-linejoin="round" d="
			M658.715,335.483v-0.539"/>
		<path id="XMLID_6_" fill="none" stroke="#0B0620" stroke-width="0.5" stroke-linecap="round" stroke-linejoin="round" d="
			M658.715,334.547v0.028"/>
		<path id="XMLID_5_" fill="none" stroke="#0B0620" stroke-width="0.5" stroke-linecap="round" stroke-linejoin="round" d="
			M658.715,332.279v2.239"/>
	</g>
</g>
<g id="XMLID_3_">
	<g id="XMLID_95_">
		<path id="XMLID_110_" d="M813.412,3c14.049,0,25.478,11.43,25.478,25.478v538.323c0,14.049-11.43,25.478-25.478,25.478H28.478
			C14.43,592.28,3,580.85,3,566.802V28.478C3,14.43,14.43,3,28.478,3H813.412 M813.412,0H28.478C12.815,0,0,12.815,0,28.478v538.323
			c0,15.663,12.815,28.478,28.478,28.478h784.933c15.663,0,28.478-12.815,28.478-28.478V28.478C841.89,12.815,829.075,0,813.412,0
			L813.412,0z"/>
	</g>
	<g id="XMLID_94_">
		<path id="XMLID_123_" d="M1.5,83.54V28.479C1.5,13.603,13.603,1.5,28.479,1.5H83.54v55.061c0,14.876-12.103,26.979-26.979,26.979
			H1.5z"/>
		<g id="XMLID_119_">
			<path id="XMLID_120_" d="M82.039,3v53.561c0,14.049-11.43,25.478-25.478,25.478H3V28.478C3,14.43,14.43,3,28.478,3H82.039
				 M85.039,0H28.478C12.815,0,0,12.815,0,28.478v56.561h56.561c15.663,0,28.478-12.815,28.478-28.478V0L85.039,0z"/>
		</g>
	</g>
	<g id="XMLID_96_">
		<path id="XMLID_97_" fill="#FFFFFF" d="M37,46.975c0,1.359,0.218,2.484,0.655,3.375c0.811,1.641,2.283,2.461,4.419,2.461
			c1.31,0,2.452-0.449,3.426-1.348s1.461-2.191,1.461-3.879c0-2.234-0.903-3.727-2.71-4.477c-1.028-0.422-2.648-0.633-4.86-0.633
			v-4.781c2.164-0.031,3.675-0.242,4.531-0.633c1.479-0.656,2.219-1.984,2.219-3.984c0-1.297-0.378-2.352-1.134-3.164
			s-1.82-1.219-3.191-1.219c-1.574,0-2.731,0.5-3.471,1.5s-1.095,2.336-1.063,4.008h-6.234c0.062-1.688,0.351-3.289,0.866-4.805
			c0.546-1.328,1.405-2.555,2.575-3.68c0.874-0.797,1.912-1.406,3.114-1.828s2.677-0.633,4.425-0.633c3.247,0,5.865,0.84,7.855,2.52
			c1.99,1.68,2.985,3.934,2.985,6.762c0,2-0.594,3.688-1.781,5.062c-0.75,0.859-1.531,1.445-2.344,1.758
			c0.609,0,1.484,0.523,2.625,1.57c1.703,1.578,2.555,3.734,2.555,6.469c0,2.875-0.995,5.402-2.985,7.582s-4.937,3.27-8.839,3.27
			c-4.808,0-8.148-1.57-10.021-4.711c-0.984-1.672-1.53-3.859-1.639-6.562H37z"/>
	</g>
</g>
</svg>
