<?xml version="1.0" encoding="utf-8"?>
<!-- Generator: Adobe Illustrator 19.0.0, SVG Export Plug-In . SVG Version: 6.00 Build 0)  -->
<svg version="1.0" id="Layer_1" xmlns="http://www.w3.org/2000/svg" xmlns:xlink="http://www.w3.org/1999/xlink" x="0px" y="0px"
	 width="841.89px" height="595.28px" viewBox="0 0 841.89 595.28" enable-background="new 0 0 841.89 595.28" xml:space="preserve">
<g id="XMLID_271_">
	<g id="XMLID_93_">
		<g id="XMLID_923_">
			<path id="XMLID_1026_" fill="none" stroke="#000000" stroke-width="0.5" stroke-linecap="round" stroke-linejoin="round" d="
				M263.798,181.177c-0.33-1.685-0.33-1.702-0.556-3.387c0.191-1.806,0.191-1.823,0.469-3.612c0.678-1.737,0.695-1.754,1.442-3.456
				c10.438-18.149,10.438-18.149,20.928-36.246c1.094-1.511,1.111-1.528,2.275-2.97c1.407-1.146,1.424-1.163,2.883-2.223
				c1.581-0.643,1.615-0.66,3.23-1.216"/>
			<path id="XMLID_1023_" fill="none" stroke="#000000" stroke-width="0.5" stroke-linecap="round" stroke-linejoin="round" d="
				M294.921,128.328c-1.615,0.556-1.65,0.573-3.23,1.216c-1.459,1.059-1.476,1.077-2.883,2.223c-1.164,1.442-1.181,1.459-2.275,2.97
				c-10.49,18.097-10.49,18.097-20.928,36.246c-0.747,1.702-0.764,1.719-1.442,3.456c-0.278,1.789-0.278,1.806-0.469,3.612
				c0.225,1.685,0.225,1.702,0.556,3.387"/>
			<path id="XMLID_1020_" fill="none" stroke="#000000" stroke-width="0.5" stroke-linecap="round" stroke-linejoin="round" d="
				M481.138,306.659c1.615-0.556,1.633-0.573,3.213-1.216c1.459-1.059,1.476-1.077,2.883-2.223c1.181-1.442,1.181-1.459,2.275-2.97
				c10.508-18.097,10.508-18.097,20.928-36.246"/>
			<path id="XMLID_1017_" fill="none" stroke="#000000" stroke-width="0.5" stroke-linecap="round" stroke-linejoin="round" d="
				M264.562,182.619l-0.764-1.442"/>
			<path id="XMLID_1014_" fill="none" stroke="#000000" stroke-width="0.5" stroke-linecap="round" stroke-linejoin="round" d="
				M294.47,128.067l3.23-0.104l2.918,1.007l0.452,0.26l-2.918-1.007l-3.23,0.104"/>
			<path id="XMLID_1011_" fill="none" stroke="#000000" stroke-width="0.5" stroke-linecap="round" stroke-linejoin="round" d="
				M264.25,181.438l1.528,2.848l2.327,2.032l-0.452-0.26l-2.327-2.032l-0.764-1.407"/>
			<path id="XMLID_1008_" fill="none" stroke="#000000" stroke-width="0.5" stroke-linecap="round" stroke-linejoin="round" d="
				M263.521,179.475l0.452,0.26"/>
			<path id="XMLID_1005_" fill="none" stroke="#000000" stroke-width="0.5" stroke-linecap="round" stroke-linejoin="round" d="
				M265.969,171.191l20.928-36.246"/>
			<path id="XMLID_1002_" fill="none" stroke="#000000" stroke-width="0.5" stroke-linecap="round" stroke-linejoin="round" d="
				M265.222,170.757l20.928-36.246"/>
			<path id="XMLID_999_" fill="none" stroke="#000000" stroke-width="0.5" stroke-linecap="round" stroke-linejoin="round" d="
				M268.418,186.144l0.069,0.052l-0.747-0.434"/>
			<path id="XMLID_996_" fill="none" stroke="#000000" stroke-width="0.5" stroke-linecap="round" stroke-linejoin="round" d="
				M268.106,186.318l0.382,0.225l-0.834-0.486"/>
			<path id="XMLID_993_" fill="none" stroke="#000000" stroke-width="0.5" stroke-linecap="round" stroke-linejoin="round" d="
				M268.488,186.544l206.936,119.472l3.109,1.077"/>
			<path id="XMLID_990_" fill="none" stroke="#000000" stroke-width="0.5" stroke-linecap="round" stroke-linejoin="round" d="
				M475.736,305.843L268.401,186.144"/>
			<path id="XMLID_987_" fill="none" stroke="#000000" stroke-width="0.5" stroke-linecap="round" stroke-linejoin="round" d="
				M293.306,128.935l-0.452-0.26"/>
			<path id="XMLID_984_" fill="none" stroke="#000000" stroke-width="0.5" stroke-linecap="round" stroke-linejoin="round" d="
				M301.07,129.578l0.764,0.434l-1.528-0.868"/>
			<path id="XMLID_981_" fill="none" stroke="#000000" stroke-width="0.5" stroke-linecap="round" stroke-linejoin="round" d="
				M301.07,129.578l207.318,119.698"/>
			<path id="XMLID_978_" fill="none" stroke="#000000" stroke-width="0.5" stroke-linecap="round" stroke-linejoin="round" d="
				M301.07,129.231l0.764,0.434l-1.216-0.695"/>
			<path id="XMLID_975_" fill="none" stroke="#000000" stroke-width="0.5" stroke-linecap="round" stroke-linejoin="round" d="
				M510.871,251.083l-2.484-2.154L301.834,129.665"/>
			<path id="XMLID_972_" fill="none" stroke="#000000" stroke-width="0.5" stroke-linecap="round" stroke-linejoin="round" d="
				M474.277,305.356l1.146,0.66"/>
			<path id="XMLID_969_" fill="none" stroke="#000000" stroke-width="0.5" stroke-linecap="round" stroke-linejoin="round" d="
				M474.573,305.183l0.486,0.278"/>
			<path id="XMLID_966_" fill="none" stroke="#000000" stroke-width="0.5" stroke-linecap="round" stroke-linejoin="round" d="
				M474.972,305.756l2.935,1.007l3.23-0.104"/>
			<path id="XMLID_963_" fill="none" stroke="#000000" stroke-width="0.5" stroke-linecap="round" stroke-linejoin="round" d="
				M482.735,306.051l0.226,0.121"/>
			<path id="XMLID_960_" fill="none" stroke="#000000" stroke-width="0.5" stroke-linecap="round" stroke-linejoin="round" d="
				M489.162,300.024l21.275-36.021"/>
			<path id="XMLID_957_" fill="none" stroke="#000000" stroke-width="0.5" stroke-linecap="round" stroke-linejoin="round" d="
				M506.06,247.921l2.327,1.355"/>
			<path id="XMLID_954_" fill="none" stroke="#000000" stroke-width="0.5" stroke-linecap="round" stroke-linejoin="round" d="
				M508.387,248.929l-0.452-0.26"/>
			<path id="XMLID_951_" fill="none" stroke="#000000" stroke-width="0.5" stroke-linecap="round" stroke-linejoin="round" d="
				M512.07,255.251l0.226,0.121"/>
			<path id="XMLID_948_" fill="none" stroke="#000000" stroke-width="0.5" stroke-linecap="round" stroke-linejoin="round" d="
				M286.145,134.514c3.241-5.613,9.583-8.019,14.167-5.373"/>
			<path id="XMLID_945_" fill="none" stroke="#000000" stroke-width="0.5" stroke-linecap="round" stroke-linejoin="round" d="
				M507.941,248.663c4.703,2.715,5.821,9.585,2.496,15.346"/>
			<path id="XMLID_942_" fill="none" stroke="#000000" stroke-width="0.5" stroke-linecap="round" stroke-linejoin="round" d="
				M507.941,248.663c4.703,2.715,5.821,9.585,2.496,15.346"/>
			<path id="XMLID_939_" fill="none" stroke="#000000" stroke-width="0.5" stroke-linecap="round" stroke-linejoin="round" d="
				M508.393,249.271c1.782,1.029,3.111,2.731,3.791,4.857"/>
			<path id="XMLID_936_" fill="none" stroke="#000000" stroke-width="0.5" stroke-linecap="round" stroke-linejoin="round" d="
				M481.921,306.68c-2.211,0.501-4.385,0.208-6.192-0.835"/>
			<path id="XMLID_933_" fill="none" stroke="#000000" stroke-width="0.5" stroke-linecap="round" stroke-linejoin="round" d="
				M267.658,185.716c-4.585-2.648-5.674-9.347-2.432-14.964"/>
			<path id="XMLID_930_" fill="none" stroke="#000000" stroke-width="0.5" stroke-linecap="round" stroke-linejoin="round" d="
				M489.151,300.035c-3.243,5.617-9.59,8.023-14.175,5.375"/>
			<path id="XMLID_927_" fill="none" stroke="#000000" stroke-width="0.5" stroke-linecap="round" stroke-linejoin="round" d="
				M268.409,186.15c-4.585-2.648-5.674-9.347-2.432-14.964"/>
			<path id="XMLID_924_" fill="none" stroke="#000000" stroke-width="0.5" stroke-linecap="round" stroke-linejoin="round" d="
				M286.897,134.95c3.243-5.617,9.59-8.023,14.175-5.375"/>
		</g>
		<g id="XMLID_889_">
			<path id="XMLID_922_" fill="none" stroke="#000000" stroke-width="0.5" stroke-linecap="round" stroke-linejoin="round" d="
				M330.369,226.785c0.156,0.816,0.156,0.816,0.312,1.615c0.295,1.198,0.278,1.198,0.591,2.379c0.764,2.189,0.764,2.189,1.546,4.376
				c0.452,1.024,0.452,1.024,0.92,2.049"/>
			<path id="XMLID_921_" fill="none" stroke="#000000" stroke-width="0.5" stroke-linecap="round" stroke-linejoin="round" d="
				M349.074,147.918c-0.035-0.851-0.035-0.851-0.052-1.719c0.087-0.695,0.087-0.712,0.208-1.407
				c0.191-0.816,0.191-0.816,0.417-1.633c0.312-0.747,0.33-0.747,0.66-1.494c0.225-0.417,0.225-0.417,0.469-0.816
				c1.442-1.702,1.407-1.754,2.9-3.404c2.015-1.528,2.032-1.511,4.116-2.97c5.645-3.3,5.645-3.3,11.324-6.53"/>
			<path id="XMLID_920_" fill="none" stroke="#000000" stroke-width="0.5" stroke-linecap="round" stroke-linejoin="round" d="
				M543.661,228.712c-5.645,3.3-5.645,3.3-11.324,6.53c-2.553,1.233-2.553,1.233-5.141,2.379c-2.935,0.886-2.935,0.886-5.905,1.685"
				/>
			<path id="XMLID_919_" fill="none" stroke="#000000" stroke-width="0.5" stroke-linecap="round" stroke-linejoin="round" d="
				M432.491,285.713c-0.66-0.295-0.66-0.295-1.338-0.573c-0.678-0.156-0.678-0.156-1.355-0.295
				c-0.764-0.052-0.764-0.052-1.529-0.104c-0.764,0.035-0.764,0.035-1.529,0.087c-2.988,0.539-2.988,0.556-5.957,1.111
				c-0.73,0.121-0.73,0.104-1.459,0.225c-0.243,0.087-0.243,0.087-0.469,0.191"/>
			<path id="XMLID_918_" fill="none" stroke="#000000" stroke-width="0.5" stroke-linecap="round" stroke-linejoin="round" d="
				M433.828,296.951c3.248,1.893,3.248,1.893,6.496,3.752c0.834,0.33,0.834,0.33,1.667,0.625c0.92,0.069,0.938,0.052,1.858,0.087
				c0.469-0.069,0.486-0.087,0.938-0.173c2.067-0.625,2.067-0.625,4.099-1.268c2.154-0.764,2.154-0.782,4.29-1.563
				c0.33-0.156,0.33-0.173,0.66-0.33"/>
			<path id="XMLID_917_" fill="none" stroke="#000000" stroke-width="0.5" stroke-linecap="round" stroke-linejoin="round" d="
				M504.445,241.947c4.203-0.573,4.203-0.573,8.406-1.163c2.275-0.382,2.275-0.382,4.55-0.764c1.945-0.347,1.945-0.347,3.891-0.712"
				/>
			<path id="XMLID_916_" fill="none" stroke="#000000" stroke-width="0.5" stroke-linecap="round" stroke-linejoin="round" d="
				M330.421,235.486l-0.035,1.737l0.052-2.015"/>
			<path id="XMLID_915_" fill="none" stroke="#000000" stroke-width="0.5" stroke-linecap="round" stroke-linejoin="round" d="
				M330.386,237.223l0.868,0.504L330.386,237.223"/>
			<path id="XMLID_914_" fill="none" stroke="#000000" stroke-width="0.5" stroke-linecap="round" stroke-linejoin="round" d="
				M333.738,238.804l-0.243,0.052l-0.66-0.225l-2.397-1.372l-0.069-10.473"/>
			<path id="XMLID_913_" fill="none" stroke="#000000" stroke-width="0.5" stroke-linecap="round" stroke-linejoin="round" d="
				M331.862,238.074l-0.608-0.347l0.087,0.052"/>
			<path id="XMLID_912_" fill="none" stroke="#000000" stroke-width="0.5" stroke-linecap="round" stroke-linejoin="round" d="
				M331.255,237.726l1.962,1.129l-0.382-0.225"/>
			<path id="XMLID_911_" fill="none" stroke="#000000" stroke-width="0.5" stroke-linecap="round" stroke-linejoin="round" d="
				M429.034,284.793l-98.422-56.792"/>
			<path id="XMLID_910_" fill="none" stroke="#000000" stroke-width="0.5" stroke-linecap="round" stroke-linejoin="round" d="
				M333.651,238.091l86.039,49.672"/>
			<path id="XMLID_909_" fill="none" stroke="#000000" stroke-width="0.5" stroke-linecap="round" stroke-linejoin="round" d="
				M333.217,238.856l87.568,50.558l-1.459-1.007l-0.469-0.452"/>
			<path id="XMLID_908_" fill="none" stroke="#000000" stroke-width="0.5" stroke-linecap="round" stroke-linejoin="round" d="
				M349.456,152.642l-0.017-0.139l155.006,89.443l-0.243,0.035"/>
			<path id="XMLID_907_" fill="none" stroke="#000000" stroke-width="0.5" stroke-linecap="round" stroke-linejoin="round" d="
				M349.438,152.503l-0.33-3.022l-0.035-1.563l0.017,1.962l-0.017,2.536"/>
			<path id="XMLID_906_" fill="none" stroke="#000000" stroke-width="0.5" stroke-linecap="round" stroke-linejoin="round" d="
				M349.091,150.263l0.017-0.782"/>
			<path id="XMLID_905_" fill="none" stroke="#000000" stroke-width="0.5" stroke-linecap="round" stroke-linejoin="round" d="
				M369.116,127.945l174.545,100.767"/>
			<path id="XMLID_904_" fill="none" stroke="#000000" stroke-width="0.5" stroke-linecap="round" stroke-linejoin="round" d="
				M521.292,239.307v12.557"/>
			<path id="XMLID_903_" fill="none" stroke="#000000" stroke-width="0.5" stroke-linecap="round" stroke-linejoin="round" d="
				M410.677,283.577l-0.625-0.347"/>
			<path id="XMLID_902_" fill="none" stroke="#000000" stroke-width="0.5" stroke-linecap="round" stroke-linejoin="round" d="
				M420.785,289.413l0.678,0.399l-1.216-0.712"/>
			<path id="XMLID_901_" fill="none" stroke="#000000" stroke-width="0.5" stroke-linecap="round" stroke-linejoin="round" d="
				M423.651,291.063l1.737,1.007l-4.603-2.657"/>
			<path id="XMLID_900_" fill="none" stroke="#000000" stroke-width="0.5" stroke-linecap="round" stroke-linejoin="round" d="
				M425.388,292.07l1.962,1.146l-0.312-0.191"/>
			<path id="XMLID_899_" fill="none" stroke="#000000" stroke-width="0.5" stroke-linecap="round" stroke-linejoin="round" d="
				M427.35,293.216l6.478,3.734l-0.591-0.347"/>
			<path id="XMLID_898_" fill="none" stroke="#000000" stroke-width="0.5" stroke-linecap="round" stroke-linejoin="round" d="
				M432.473,285.731l4.411,2.553l-0.035-0.017"/>
			<path id="XMLID_897_" fill="none" stroke="#000000" stroke-width="0.5" stroke-linecap="round" stroke-linejoin="round" d="
				M433.776,296.916v-10.421"/>
			<path id="XMLID_896_" fill="none" stroke="#000000" stroke-width="0.5" stroke-linecap="round" stroke-linejoin="round" d="
				M436.885,288.284l2.102,1.216"/>
			<path id="XMLID_895_" fill="none" stroke="#000000" stroke-width="0.5" stroke-linecap="round" stroke-linejoin="round" d="
				M525.842,255.737v-4.116l-3.421,0.903"/>
			<path id="XMLID_894_" fill="none" stroke="#000000" stroke-width="0.5" stroke-linecap="round" stroke-linejoin="round" d="
				M522.872,283.681l17.038-9.83"/>
			<path id="XMLID_893_" fill="none" stroke="#000000" stroke-width="0.5" stroke-linecap="round" stroke-linejoin="round" d="
				M526.571,279.252l-0.73,0.799v-5.402"/>
			<path id="XMLID_892_" fill="none" stroke="#000000" stroke-width="0.5" stroke-linecap="round" stroke-linejoin="round" d="
				M543.661,265.584v-36.872"/>
			<path id="XMLID_891_" fill="none" stroke="#000000" stroke-width="0.5" stroke-linecap="round" stroke-linejoin="round" d="
				M525.843,280.034c-1.04,2.685-3.059,4.272-5.695,4.476"/>
			<path id="XMLID_890_" fill="none" stroke="#000000" stroke-width="0.5" stroke-linecap="round" stroke-linejoin="round" d="
				M543.651,265.587c0,3.911-1.345,6.886-3.741,8.269"/>
		</g>
		<g id="XMLID_760_">
			<path id="XMLID_888_" fill="none" stroke="#000000" stroke-width="0.5" stroke-linecap="round" stroke-linejoin="round" d="
				M259.96,181.473c-0.191-1.355-0.191-1.355-0.33-2.709c0.069-1.355,0.087-1.355,0.191-2.709c0.052-0.347,0.052-0.347,0.104-0.677"
				/>
			<path id="XMLID_887_" fill="none" stroke="#000000" stroke-width="0.5" stroke-linecap="round" stroke-linejoin="round" d="
				M261.228,185.12c0.347,0.556,0.347,0.556,0.73,1.111c0.556,0.712,0.556,0.712,1.129,1.39c0.521,0.434,0.521,0.434,1.042,0.851
				c0.747,0.469,0.747,0.469,1.494,0.938"/>
			<path id="XMLID_886_" fill="none" stroke="#000000" stroke-width="0.5" stroke-linecap="round" stroke-linejoin="round" d="
				M262.322,169.072c10.438-18.132,10.438-18.132,20.911-36.229c1.024-1.598,1.024-1.615,2.084-3.161
				c1.285-1.303,1.303-1.303,2.64-2.536c1.754-1.076,1.771-1.076,3.56-2.067c1.268-0.469,1.285-0.469,2.57-0.851
				c1.858-0.208,1.875-0.208,3.734-0.33"/>
			<path id="XMLID_866_" fill="none" stroke="#000000" stroke-width="0.5" stroke-linecap="round" stroke-linejoin="round" d="
				M433.237,286.182c19.608,11.324,19.608,11.324,39.234,22.648c1.059,0.573,1.042,0.608,2.119,1.146
				c1.494,0.417,1.511,0.417,3.022,0.764"/>
			<path id="XMLID_865_" fill="none" stroke="#000000" stroke-width="0.5" stroke-linecap="round" stroke-linejoin="round" d="
				M477.612,310.74c1.875-0.121,1.893-0.121,3.751-0.33c1.285-0.382,1.303-0.382,2.553-0.851c1.806-0.99,1.823-0.99,3.578-2.067
				c1.337-1.216,1.337-1.233,2.622-2.536c1.077-1.546,1.059-1.563,2.084-3.161c10.473-18.097,10.473-18.097,20.928-36.229
				c0.539-0.99,0.556-0.99,1.094-1.997c0.643-1.754,0.626-1.771,1.233-3.543c0.174-0.678,0.191-0.678,0.312-1.355
				c0.052-1.39,0.052-1.39,0.052-2.796"/>
			<path id="XMLID_861_" fill="none" stroke="#000000" stroke-width="0.5" stroke-linecap="round" stroke-linejoin="round" d="
				M476.604,311.209c4.238,2.449,4.238,2.449,8.475,4.898c0.816,0.434,0.799,0.452,1.633,0.868c1.494,0.417,1.511,0.417,3.022,0.782
				"/>
			<path id="XMLID_860_" fill="none" stroke="#000000" stroke-width="0.5" stroke-linecap="round" stroke-linejoin="round" d="
				M489.734,317.757c1.875-0.139,1.875-0.139,3.752-0.33c1.285-0.399,1.303-0.399,2.57-0.851c1.806-1.007,1.823-1.007,3.56-2.084
				c1.355-1.233,1.355-1.233,2.64-2.536c1.077-1.546,1.059-1.563,2.084-3.144c10.473-18.114,10.473-18.114,20.911-36.246
				c0.868-1.685,0.886-1.667,1.702-3.369c0.469-1.771,0.487-1.771,0.886-3.56c0.052-2.049,0.035-2.067,0-4.116
				c-0.243-1.337-0.243-1.355-0.539-2.674c-0.764-1.702-0.764-1.719-1.598-3.404"/>
			<path id="XMLID_859_" fill="none" stroke="#000000" stroke-width="0.5" stroke-linecap="round" stroke-linejoin="round" d="
				M525.703,255.442c-1.077-1.129-1.077-1.129-2.189-2.223c-0.764-0.504-0.782-0.504-1.563-0.99
				c-6.061-3.491-6.061-3.491-12.123-6.999"/>
			<path id="XMLID_858_" fill="none" stroke="#000000" stroke-width="0.5" stroke-linecap="round" stroke-linejoin="round" d="
				M527.752,261.034c0.278,0.678,0.278,0.678,0.521,1.372c0.243,1.598,0.243,1.598,0.434,3.178c-0.087,1.771-0.104,1.771-0.26,3.525
				c-0.26,0.955-0.26,0.972-0.573,1.91c-0.608,1.163-0.608,1.181-1.268,2.327"/>
			<path id="XMLID_857_" fill="none" stroke="#000000" stroke-width="0.5" stroke-linecap="round" stroke-linejoin="round" d="
				M526.606,273.348c-10.473,18.114-10.473,18.114-20.928,36.229c-0.173,0.365-0.173,0.382-0.347,0.73
				c-0.677,0.99-0.677,1.007-1.372,1.98c-0.764,0.747-0.764,0.747-1.563,1.459c-1.494,0.938-1.494,0.955-3.005,1.858
				c-1.476,0.556-1.494,0.539-3.005,1.042c-0.399,0.052-0.399,0.052-0.799,0.087"/>
			<path id="XMLID_856_" fill="none" stroke="#000000" stroke-width="0.5" stroke-linecap="round" stroke-linejoin="round" d="
				M511.166,246.011c0.608,0.486,0.608,0.486,1.181,1.007c0.66,0.73,0.66,0.73,1.303,1.476c0.295,0.504,0.295,0.504,0.573,1.024"/>
			<path id="XMLID_855_" fill="none" stroke="#000000" stroke-width="0.5" stroke-linecap="round" stroke-linejoin="round" d="
				M261.228,185.12l-0.868-2.293l-0.399-1.355L261.228,185.12l1.858,2.501l2.536,1.789l2.866,1.65l-1.285-0.747"/>
			<path id="XMLID_854_" fill="none" stroke="#000000" stroke-width="0.5" stroke-linecap="round" stroke-linejoin="round" d="
				M259.926,175.376l-0.173,1.962"/>
			<path id="XMLID_853_" fill="none" stroke="#000000" stroke-width="0.5" stroke-linecap="round" stroke-linejoin="round" d="
				M260.412,173.414l-0.434,1.198l-0.052,0.764l0.052-0.764l0.73-2.119L260.412,173.414"/>
			<path id="XMLID_852_" fill="none" stroke="#000000" stroke-width="0.5" stroke-linecap="round" stroke-linejoin="round" d="
				M260.724,172.494l0.365-1.042l-0.382,1.042"/>
			<path id="XMLID_851_" fill="none" stroke="#000000" stroke-width="0.5" stroke-linecap="round" stroke-linejoin="round" d="
				M261.089,171.451l0.139-0.382l1.094-1.997"/>
			<path id="XMLID_850_" fill="none" stroke="#000000" stroke-width="0.5" stroke-linecap="round" stroke-linejoin="round" d="
				M297.822,123.898l3.04,0.764l1.633,0.868l97.398,56.237l-0.799-0.469"/>
			<path id="XMLID_847_" fill="none" stroke="#000000" stroke-width="0.5" stroke-linecap="round" stroke-linejoin="round" d="
				M264.875,170.548l20.928-36.229"/>
			<path id="XMLID_846_" fill="none" stroke="#000000" stroke-width="0.5" stroke-linecap="round" stroke-linejoin="round" d="
				M267.428,186.283l207.318,119.698"/>
			<path id="XMLID_845_" fill="none" stroke="#000000" stroke-width="0.5" stroke-linecap="round" stroke-linejoin="round" d="
				M268.488,191.059l9.813,5.662l-1.962-1.129"/>
			<path id="XMLID_835_" fill="none" stroke="#000000" stroke-width="0.5" stroke-linecap="round" stroke-linejoin="round" d="
				M278.3,196.721l52.068,30.064"/>
			<path id="XMLID_821_" fill="none" stroke="#000000" stroke-width="0.5" stroke-linecap="round" stroke-linejoin="round" d="
				M508.092,248.407l-207.405-119.75l0.677,0.399"/>
			<path id="XMLID_817_" fill="none" stroke="#000000" stroke-width="0.5" stroke-linecap="round" stroke-linejoin="round" d="
				M330.369,226.785l46.806,27.024l-0.139-0.087"/>
			<path id="XMLID_815_" fill="none" stroke="#000000" stroke-width="0.5" stroke-linecap="round" stroke-linejoin="round" d="
				M377.175,253.809l16.829,9.726l-1.338-0.782"/>
			<path id="XMLID_805_" fill="none" stroke="#000000" stroke-width="0.5" stroke-linecap="round" stroke-linejoin="round" d="
				M432.491,285.748l0.747,0.434l-39.234-22.648"/>
			<path id="XMLID_801_" fill="none" stroke="#000000" stroke-width="0.5" stroke-linecap="round" stroke-linejoin="round" d="
				M399.892,181.768L435.2,202.14l-1.146-0.643"/>
			<path id="XMLID_796_" fill="none" stroke="#000000" stroke-width="0.5" stroke-linecap="round" stroke-linejoin="round" d="
				M434.922,287.138l-1.685-0.955"/>
			<path id="XMLID_795_" fill="none" stroke="#000000" stroke-width="0.5" stroke-linecap="round" stroke-linejoin="round" d="
				M515.82,255.876l-0.365,4.151l-0.573,2.206"/>
			<path id="XMLID_794_" fill="none" stroke="#000000" stroke-width="0.5" stroke-linecap="round" stroke-linejoin="round" d="
				M435.2,202.14l33.346,19.261l-0.695-0.399"/>
			<path id="XMLID_785_" fill="none" stroke="#000000" stroke-width="0.5" stroke-linecap="round" stroke-linejoin="round" d="
				M468.546,221.401l41.283,23.828l2.518,1.789l1.875,2.501l1.007,2.379"/>
			<path id="XMLID_784_" fill="none" stroke="#000000" stroke-width="0.5" stroke-linecap="round" stroke-linejoin="round" d="
				M472.471,308.829l1.945,1.129l-1.476-0.851"/>
			<path id="XMLID_783_" fill="none" stroke="#000000" stroke-width="0.5" stroke-linecap="round" stroke-linejoin="round" d="
				M475.372,310.497l-0.955-0.539l1.962,1.129"/>
			<path id="XMLID_782_" fill="none" stroke="#000000" stroke-width="0.5" stroke-linecap="round" stroke-linejoin="round" d="
				M483.256,309.785l12.14,6.999"/>
			<path id="XMLID_780_" fill="none" stroke="#000000" stroke-width="0.5" stroke-linecap="round" stroke-linejoin="round" d="
				M489.647,300.32l20.928-36.229"/>
			<path id="XMLID_777_" fill="none" stroke="#000000" stroke-width="0.5" stroke-linecap="round" stroke-linejoin="round" d="
				M509.725,245.177l0.173,0.104"/>
			<path id="XMLID_776_" fill="none" stroke="#000000" stroke-width="0.5" stroke-linecap="round" stroke-linejoin="round" d="
				M515.82,255.876l-0.33-2.709l-1.268-3.647"/>
			<path id="XMLID_775_" fill="none" stroke="#000000" stroke-width="0.5" stroke-linecap="round" stroke-linejoin="round" d="
				M515.803,255.876l-0.017-1.32"/>
			<path id="XMLID_774_" fill="none" stroke="#000000" stroke-width="0.5" stroke-linecap="round" stroke-linejoin="round" d="
				M515.578,253.844l12.123,6.999"/>
			<path id="XMLID_772_" fill="none" stroke="#000000" stroke-width="0.5" stroke-linecap="round" stroke-linejoin="round" d="
				M489.653,300.325c-3.408,5.904-10.079,8.434-14.899,5.651l0,0"/>
			<path id="XMLID_768_" fill="none" stroke="#000000" stroke-width="0.5" stroke-linecap="round" stroke-linejoin="round" d="
				M285.795,134.312c3.408-5.904,10.079-8.434,14.899-5.651l0,0"/>
			<path id="XMLID_765_" fill="none" stroke="#000000" stroke-width="0.5" stroke-linecap="round" stroke-linejoin="round" d="
				M508.016,248.359c4.821,2.783,5.966,9.825,2.557,15.728c0,0.001-0.001,0.001-0.001,0.001"/>
			<path id="XMLID_761_" fill="none" stroke="#000000" stroke-width="0.5" stroke-linecap="round" stroke-linejoin="round" d="
				M267.43,186.278c-4.821-2.783-5.966-9.825-2.557-15.728c0-0.001,0.001-0.001,0.001-0.001"/>
		</g>
	</g>
	<g id="XMLID_1_">
		<g id="XMLID_419_">
			<path id="XMLID_250_" fill="none" stroke="#000000" stroke-width="0.5" stroke-linecap="round" stroke-linejoin="round" d="
				M509.754,324.565c0,0.26,0,0.26,0,0.539c0.14,1.239,0.1,1.239,0.26,2.478c0.36,1.019,0.38,1.019,0.759,2.038
				c0.16,0.34,0.16,0.34,0.32,0.659c0.599,0.78,0.599,0.78,1.219,1.539"/>
			<path id="XMLID_16_" fill="none" stroke="#000000" stroke-width="0.5" stroke-linecap="round" stroke-linejoin="round" d="
				M504.639,311.321l5.116,2.953"/>
			<path id="XMLID_15_" fill="none" stroke="#000000" stroke-width="0.5" stroke-linecap="round" stroke-linejoin="round" d="
				M507.205,306.927l2.55,1.472"/>
			<path id="XMLID_221_" fill="none" stroke="#000000" stroke-width="0.5" stroke-linecap="round" stroke-linejoin="round" d="
				M509.754,324.825v-0.26v-22.049"/>
		</g>
		<g id="XMLID_365_">
			<path id="XMLID_217_" fill="none" stroke="#000000" stroke-width="0.5" stroke-linecap="round" stroke-linejoin="round" d="
				M523.563,474.52c0.18,0.1,0.18,0.1,0.38,0.16c0.22,0.06,0.22,0.06,0.44,0.1c0.24,0,0.24,0,0.479,0c0.22-0.04,0.22-0.04,0.44-0.1
				c0.2-0.06,0.2-0.06,0.38-0.16"/>
			<path id="XMLID_216_" fill="none" stroke="#000000" stroke-width="0.5" stroke-linecap="round" stroke-linejoin="round" d="
				M543.726,222.57c-0.18-0.08-0.18-0.08-0.38-0.16c-0.22-0.04-0.22-0.04-0.44-0.08c-0.24,0-0.24,0-0.479,0
				c-0.22,0.04-0.22,0.04-0.44,0.08c-0.18,0.08-0.2,0.08-0.38,0.16"/>
			<path id="XMLID_215_" fill="none" stroke="#000000" stroke-width="0.5" stroke-linecap="round" stroke-linejoin="round" d="
				M525.681,217.055c-0.18,0.08-0.18,0.08-0.38,0.16c-0.22,0.04-0.22,0.04-0.44,0.08c-0.24,0-0.24,0-0.479,0
				c-0.22-0.04-0.22-0.04-0.44-0.08c-0.199-0.08-0.199-0.08-0.38-0.16"/>
			<path id="XMLID_214_" fill="none" stroke="#000000" stroke-width="0.5" stroke-linecap="round" stroke-linejoin="round" d="
				M547.982,225.029c0.18,0.08,0.18,0.08,0.38,0.16c0.22,0.04,0.22,0.04,0.44,0.08c0.24,0,0.24,0,0.479,0
				c0.22-0.04,0.22-0.04,0.44-0.08c0.199-0.08,0.199-0.08,0.38-0.16"/>
			<path id="XMLID_213_" fill="none" stroke="#000000" stroke-width="0.5" stroke-linecap="round" stroke-linejoin="round" d="
				M535.673,465.947c0.199,0.02,0.199,0.02,0.4,0.02c0.18,0.04,0.18,0.04,0.359,0.1c0.16,0.06,0.16,0.06,0.3,0.14"/>
			<path id="XMLID_212_" fill="none" stroke="#000000" stroke-width="0.5" stroke-linecap="round" stroke-linejoin="round" d="
				M536.732,208.722c-0.14-0.06-0.14-0.06-0.3-0.14c-0.18-0.04-0.18-0.04-0.359-0.08c-0.2-0.02-0.2-0.02-0.4-0.02"/>
			<path id="XMLID_211_" fill="none" stroke="#000000" stroke-width="0.5" stroke-linecap="round" stroke-linejoin="round" d="
				M528.419,208.482c-0.18,0-0.18,0-0.38,0.02c-0.18,0.04-0.18,0.04-0.36,0.08c-0.16,0.08-0.16,0.08-0.32,0.14"/>
			<path id="XMLID_210_" fill="none" stroke="#000000" stroke-width="0.5" stroke-linecap="round" stroke-linejoin="round" d="
				M514.011,469.005l9.552,5.516"/>
			<path id="XMLID_3_" fill="none" stroke="#000000" stroke-width="0.5" stroke-linecap="round" stroke-linejoin="round" d="
				M512.312,210.614v-0.992"/>
			<path id="XMLID_209_" fill="none" stroke="#000000" stroke-width="0.5" stroke-linecap="round" stroke-linejoin="round" d="
				M512.312,467.106V298.083"/>
			<path id="XMLID_208_" fill="none" stroke="#000000" stroke-width="0.5" stroke-linecap="round" stroke-linejoin="round" d="
				M514.011,211.54l9.552,5.516"/>
			<path id="XMLID_207_" fill="none" stroke="#000000" stroke-width="0.5" stroke-linecap="round" stroke-linejoin="round" d="
				M514.011,206.624l16.985-9.792"/>
			<path id="XMLID_13_" fill="none" stroke="#000000" stroke-width="0.5" stroke-linecap="round" stroke-linejoin="round" d="
				M524.622,217.721v-0.425"/>
			<path id="XMLID_206_" fill="none" stroke="#000000" stroke-width="0.5" stroke-linecap="round" stroke-linejoin="round" d="
				M524.622,474.78V282.672"/>
			<path id="XMLID_205_" fill="none" stroke="#000000" stroke-width="0.5" stroke-linecap="round" stroke-linejoin="round" d="
				M525.681,474.52l3.197-1.839"/>
			<path id="XMLID_204_" fill="none" stroke="#000000" stroke-width="0.5" stroke-linecap="round" stroke-linejoin="round" d="
				M525.681,217.055l3.197-1.839"/>
			<path id="XMLID_203_" fill="none" stroke="#000000" stroke-width="0.5" stroke-linecap="round" stroke-linejoin="round" d="
				M524.202,210.92v0.14"/>
			<path id="XMLID_202_" fill="none" stroke="#000000" stroke-width="0.5" stroke-linecap="round" stroke-linejoin="round" d="
				M524.622,211.54l4.236,2.438"/>
			<path id="XMLID_201_" fill="none" stroke="#000000" stroke-width="0.5" stroke-linecap="round" stroke-linejoin="round" d="
				M524.622,210.301l2.737-1.578"/>
			<path id="XMLID_200_" fill="none" stroke="#000000" stroke-width="0.5" stroke-linecap="round" stroke-linejoin="round" d="
				M527.859,208.542v4.856"/>
			<path id="XMLID_199_" fill="none" stroke="#000000" stroke-width="0.5" stroke-linecap="round" stroke-linejoin="round" d="
				M529.298,472.221v-1.698v1.419"/>
			<path id="XMLID_198_" fill="none" stroke="#000000" stroke-width="0.5" stroke-linecap="round" stroke-linejoin="round" d="
				M529.298,470.523V342.81v2.278"/>
			<path id="XMLID_197_" fill="none" stroke="#000000" stroke-width="0.5" stroke-linecap="round" stroke-linejoin="round" d="
				M529.298,465.967l6.375-0.02"/>
			<path id="XMLID_21_" fill="none" stroke="#000000" stroke-width="0.5" stroke-linecap="round" stroke-linejoin="round" d="
				M529.298,220.42v-5.943"/>
			<path id="XMLID_196_" fill="none" stroke="#000000" stroke-width="0.5" stroke-linecap="round" stroke-linejoin="round" d="
				M529.298,342.81v-62.836"/>
			<path id="XMLID_195_" fill="none" stroke="#000000" stroke-width="0.5" stroke-linecap="round" stroke-linejoin="round" d="
				M529.298,214.457v0.62"/>
			<path id="XMLID_194_" fill="none" stroke="#000000" stroke-width="0.5" stroke-linecap="round" stroke-linejoin="round" d="
				M535.673,208.482l-7.254-0.02"/>
			<path id="XMLID_22_" fill="none" stroke="#000000" stroke-width="0.5" stroke-linecap="round" stroke-linejoin="round" d="
				M536.252,224.435v-15.893"/>
			<path id="XMLID_193_" fill="none" stroke="#000000" stroke-width="0.5" stroke-linecap="round" stroke-linejoin="round" d="
				M536.252,466.027V275.962"/>
			<path id="XMLID_192_" fill="none" stroke="#000000" stroke-width="0.5" stroke-linecap="round" stroke-linejoin="round" d="
				M538.01,466.926l-1.279-0.72"/>
			<path id="XMLID_191_" fill="none" stroke="#000000" stroke-width="0.5" stroke-linecap="round" stroke-linejoin="round" d="
				M536.732,208.722l16.127,9.312"/>
			<path id="XMLID_190_" fill="none" stroke="#000000" stroke-width="0.5" stroke-linecap="round" stroke-linejoin="round" d="
				M538.431,483.112l9.552,5.516"/>
			<path id="XMLID_23_" fill="none" stroke="#000000" stroke-width="0.5" stroke-linecap="round" stroke-linejoin="round" d="
				M538.01,225.45v-0.302"/>
			<path id="XMLID_189_" fill="none" stroke="#000000" stroke-width="0.5" stroke-linecap="round" stroke-linejoin="round" d="
				M538.01,482.633V274.947"/>
			<path id="XMLID_188_" fill="none" stroke="#000000" stroke-width="0.5" stroke-linecap="round" stroke-linejoin="round" d="
				M538.431,225.648l9.552,5.516"/>
			<path id="XMLID_187_" fill="none" stroke="#000000" stroke-width="0.5" stroke-linecap="round" stroke-linejoin="round" d="
				M538.431,224.409l3.177-1.839"/>
			<path id="XMLID_186_" fill="none" stroke="#000000" stroke-width="0.5" stroke-linecap="round" stroke-linejoin="round" d="
				M547.982,225.029l-4.257-2.458"/>
			<path id="XMLID_185_" fill="none" stroke="#000000" stroke-width="0.5" stroke-linecap="round" stroke-linejoin="round" d="
				M550.101,225.029l2.758-1.599"/>
			<path id="XMLID_184_" fill="none" stroke="#000000" stroke-width="0.5" stroke-linecap="round" stroke-linejoin="round" d="
				M552.219,489.647V232.162"/>
			<path id="XMLID_183_" fill="none" stroke="#000000" stroke-width="0.5" stroke-linecap="round" stroke-linejoin="round" d="
				M553.158,223.15v-4.836"/>
			<path id="XMLID_182_" fill="none" stroke="#000000" stroke-width="0.5" stroke-linecap="round" stroke-linejoin="round" d="
				M553.298,222.831v-4.197"/>
			<path id="XMLID_181_" fill="none" stroke="#000000" stroke-width="0.5" stroke-linecap="round" stroke-linejoin="round" d="
				M556.475,488.628l16.985-9.812"/>
			<path id="XMLID_180_" fill="none" stroke="#000000" stroke-width="0.5" stroke-linecap="round" stroke-linejoin="round" d="
				M556.475,231.163l16.985-9.812"/>
			<path id="XMLID_179_" fill="none" stroke="#000000" stroke-width="0.5" stroke-linecap="round" stroke-linejoin="round" d="
				M582.253,466.566V209.082"/>
			<path id="XMLID_178_" fill="none" stroke="#000000" stroke-width="0.5" stroke-linecap="round" stroke-linejoin="round" d="
				M538.431,483.112l-0.28-0.22l-0.14-0.26"/>
			<path id="XMLID_177_" fill="none" stroke="#000000" stroke-width="0.5" stroke-linecap="round" stroke-linejoin="round" d="
				M529.298,471.942v0.28l-0.16,0.24l-0.26,0.22"/>
			<path id="XMLID_176_" fill="none" stroke="#000000" stroke-width="0.5" stroke-linecap="round" stroke-linejoin="round" d="
				M528.859,213.978l0.28,0.24l0.16,0.24v0.28l-0.16,0.26l-0.26,0.22"/>
			<path id="XMLID_175_" fill="none" stroke="#000000" stroke-width="0.5" stroke-linecap="round" stroke-linejoin="round" d="
				M524.622,210.301l-0.28,0.24l-0.14,0.24v0.28l0.14,0.259l0.28,0.22"/>
			<path id="XMLID_174_" fill="none" stroke="#000000" stroke-width="0.5" stroke-linecap="round" stroke-linejoin="round" d="
				M538.431,224.409l-0.28,0.22l-0.14,0.259v0.28l0.14,0.24l0.28,0.24"/>
			<path id="XMLID_173_" fill="none" stroke="#000000" stroke-width="0.5" stroke-linecap="round" stroke-linejoin="round" d="
				M552.859,223.43l0.24-0.18l0.14-0.18l0.06-0.24"/>
			<path id="XMLID_172_" fill="none" stroke="#000000" stroke-width="0.5" stroke-linecap="round" stroke-linejoin="round" d="
				M553.298,218.634l-0.06-0.22l-0.14-0.2l-0.24-0.18"/>
			<path id="XMLID_171_" fill="none" stroke="#000000" stroke-width="0.5" stroke-linecap="round" stroke-linejoin="round" d="
				M582.26,466.561c-0.001,4.599-3.165,9.008-8.797,12.26"/>
			<path id="XMLID_170_" fill="none" stroke="#000000" stroke-width="0.5" stroke-linecap="round" stroke-linejoin="round" d="
				M514.003,211.538c-2.346-1.354-2.347-3.549-0.001-4.903c0.001,0,0.001-0.001,0.001-0.001"/>
			<path id="XMLID_169_" fill="none" stroke="#000000" stroke-width="0.5" stroke-linecap="round" stroke-linejoin="round" d="
				M530.99,196.824c11.783-6.74,30.798-6.689,42.473,0.113c11.598,6.759,11.598,17.65,0,24.409"/>
			<path id="XMLID_168_" fill="none" stroke="#000000" stroke-width="0.5" stroke-linecap="round" stroke-linejoin="round" d="
				M556.474,231.156c-2.346,1.354-6.149,1.354-8.495,0"/>
			<path id="XMLID_167_" fill="none" stroke="#000000" stroke-width="0.5" stroke-linecap="round" stroke-linejoin="round" d="
				M556.475,488.628c-2.346,1.354-6.149,1.354-8.495,0"/>
			
				<ellipse id="XMLID_166_" fill="none" stroke="#000000" stroke-width="0.5" stroke-linecap="round" stroke-linejoin="round" cx="552.227" cy="209.086" rx="7.514" ry="4.336"/>
			<path id="XMLID_165_" fill="none" stroke="#000000" stroke-width="0.5" stroke-linecap="round" stroke-linejoin="round" d="
				M514.003,469.012c-0.897-0.518-1.488-1.186-1.686-1.91"/>
		</g>
		<g id="XMLID_307_">
			<path id="XMLID_164_" fill="none" stroke="#000000" stroke-width="0.5" stroke-linecap="round" stroke-linejoin="round" d="
				M379.304,122.374c-0.199,0.02-0.199,0.02-0.4,0.02c-0.18,0.04-0.18,0.04-0.36,0.1c-0.14,0.06-0.16,0.06-0.3,0.14"/>
			<path id="XMLID_163_" fill="none" stroke="#000000" stroke-width="0.5" stroke-linecap="round" stroke-linejoin="round" d="
				M392.492,136.483c0.18-0.1,0.18-0.1,0.38-0.16c0.22-0.06,0.22-0.06,0.44-0.1c0.24,0,0.24,0,0.46,0c0.24,0.04,0.24,0.04,0.46,0.1
				c0.18,0.06,0.18,0.06,0.38,0.16"/>
			<path id="XMLID_162_" fill="none" stroke="#000000" stroke-width="0.5" stroke-linecap="round" stroke-linejoin="round" d="
				M387.617,122.634c-0.16-0.08-0.16-0.08-0.32-0.14c-0.18-0.06-0.18-0.06-0.36-0.1c-0.2,0-0.2,0-0.38-0.02"/>
			<path id="XMLID_161_" fill="none" stroke="#000000" stroke-width="0.5" stroke-linecap="round" stroke-linejoin="round" d="
				M376.566,388.432c-0.199,0.08-0.199,0.08-0.4,0.16c-0.22,0.04-0.22,0.04-0.44,0.08c-0.24,0-0.24,0-0.46,0
				c-0.24-0.04-0.24-0.04-0.46-0.08c-0.18-0.08-0.18-0.08-0.38-0.16"/>
			<path id="XMLID_160_" fill="none" stroke="#000000" stroke-width="0.5" stroke-linecap="round" stroke-linejoin="round" d="
				M400.986,138.921c-0.199,0.08-0.199,0.08-0.38,0.16c-0.24,0.06-0.24,0.06-0.46,0.08s-0.24,0.02-0.46,0s-0.24-0.02-0.46-0.08
				c-0.18-0.08-0.18-0.08-0.38-0.16"/>
			<path id="XMLID_159_" fill="none" stroke="#000000" stroke-width="0.5" stroke-linecap="round" stroke-linejoin="round" d="
				M386.558,379.859c0.18,0,0.18,0,0.38,0.02c0.18,0.04,0.18,0.04,0.36,0.08c0.16,0.08,0.16,0.08,0.32,0.14"/>
			<path id="XMLID_158_" fill="none" stroke="#000000" stroke-width="0.5" stroke-linecap="round" stroke-linejoin="round" d="
				M376.546,130.948c-0.18,0.1-0.18,0.1-0.38,0.16c-0.22,0.06-0.22,0.06-0.44,0.1c-0.24,0-0.24,0-0.46,0
				c-0.24-0.04-0.24-0.04-0.46-0.1c-0.18-0.06-0.18-0.06-0.38-0.16"/>
			<path id="XMLID_5_" fill="none" stroke="#000000" stroke-width="0.5" stroke-linecap="round" stroke-linejoin="round" d="
				M363.197,131.325v-7.792"/>
			<path id="XMLID_157_" fill="none" stroke="#000000" stroke-width="0.5" stroke-linecap="round" stroke-linejoin="round" d="
				M363.197,380.998V256.165"/>
			<path id="XMLID_156_" fill="none" stroke="#000000" stroke-width="0.5" stroke-linecap="round" stroke-linejoin="round" d="
				M374.427,388.432l-9.552-5.516"/>
			<path id="XMLID_155_" fill="none" stroke="#000000" stroke-width="0.5" stroke-linecap="round" stroke-linejoin="round" d="
				M364.876,125.432l9.552,5.516"/>
			<path id="XMLID_154_" fill="none" stroke="#000000" stroke-width="0.5" stroke-linecap="round" stroke-linejoin="round" d="
				M381.861,110.724l-16.985,9.812"/>
			<path id="XMLID_153_" fill="none" stroke="#000000" stroke-width="0.5" stroke-linecap="round" stroke-linejoin="round" d="
				M375.067,124.833v0.14"/>
			<path id="XMLID_12_" fill="none" stroke="#000000" stroke-width="0.5" stroke-linecap="round" stroke-linejoin="round" d="
				M375.487,131.622v-0.415"/>
			<path id="XMLID_4_" fill="none" stroke="#000000" stroke-width="0.5" stroke-linecap="round" stroke-linejoin="round" d="
				M375.487,131.622"/>
			<path id="XMLID_152_" fill="none" stroke="#000000" stroke-width="0.5" stroke-linecap="round" stroke-linejoin="round" d="
				M375.487,388.672V263.261"/>
			<path id="XMLID_151_" fill="none" stroke="#000000" stroke-width="0.5" stroke-linecap="round" stroke-linejoin="round" d="
				M376.566,388.432l3.177-1.839"/>
			<path id="XMLID_150_" fill="none" stroke="#000000" stroke-width="0.5" stroke-linecap="round" stroke-linejoin="round" d="
				M376.546,130.948l3.197-1.839"/>
			<path id="XMLID_149_" fill="none" stroke="#000000" stroke-width="0.5" stroke-linecap="round" stroke-linejoin="round" d="
				M379.743,127.89l-4.257-2.458"/>
			<path id="XMLID_148_" fill="none" stroke="#000000" stroke-width="0.5" stroke-linecap="round" stroke-linejoin="round" d="
				M375.487,124.213l2.758-1.578"/>
			<path id="XMLID_147_" fill="none" stroke="#000000" stroke-width="0.5" stroke-linecap="round" stroke-linejoin="round" d="
				M378.724,122.454v4.856"/>
			<path id="XMLID_146_" fill="none" stroke="#000000" stroke-width="0.5" stroke-linecap="round" stroke-linejoin="round" d="
				M386.558,122.374h-7.254"/>
			<path id="XMLID_145_" fill="none" stroke="#000000" stroke-width="0.5" stroke-linecap="round" stroke-linejoin="round" d="
				M380.163,386.113v-2.258v1.978"/>
			<path id="XMLID_14_" fill="none" stroke="#000000" stroke-width="0.5" stroke-linecap="round" stroke-linejoin="round" d="
				M380.163,265.959v117.897"/>
			<path id="XMLID_143_" fill="none" stroke="#000000" stroke-width="0.5" stroke-linecap="round" stroke-linejoin="round" d="
				M380.163,379.839h6.395"/>
			<path id="XMLID_142_" fill="none" stroke="#000000" stroke-width="0.5" stroke-linecap="round" stroke-linejoin="round" d="
				M380.163,128.369v5.953"/>
			<path id="XMLID_141_" fill="none" stroke="#000000" stroke-width="0.5" stroke-linecap="round" stroke-linejoin="round" d="
				M380.163,128.369v2.338"/>
			<path id="XMLID_18_" fill="none" stroke="#000000" stroke-width="0.5" stroke-linecap="round" stroke-linejoin="round" d="
				M387.117,138.338v-15.884"/>
			<path id="XMLID_140_" fill="none" stroke="#000000" stroke-width="0.5" stroke-linecap="round" stroke-linejoin="round" d="
				M387.117,379.919V269.974"/>
			<path id="XMLID_139_" fill="none" stroke="#000000" stroke-width="0.5" stroke-linecap="round" stroke-linejoin="round" d="
				M387.617,380.099l1.259,0.74"/>
			<path id="XMLID_138_" fill="none" stroke="#000000" stroke-width="0.5" stroke-linecap="round" stroke-linejoin="round" d="
				M387.617,122.634l16.106,9.292"/>
			<path id="XMLID_137_" fill="none" stroke="#000000" stroke-width="0.5" stroke-linecap="round" stroke-linejoin="round" d="
				M398.847,402.54l-9.552-5.535"/>
			<path id="XMLID_136_" fill="none" stroke="#000000" stroke-width="0.5" stroke-linecap="round" stroke-linejoin="round" d="
				M388.876,396.545V270.991"/>
			<path id="XMLID_135_" fill="none" stroke="#000000" stroke-width="0.5" stroke-linecap="round" stroke-linejoin="round" d="
				M398.847,145.055l-9.552-5.516"/>
			<path id="XMLID_134_" fill="none" stroke="#000000" stroke-width="0.5" stroke-linecap="round" stroke-linejoin="round" d="
				M389.295,138.321l3.197-1.839"/>
			<path id="XMLID_133_" fill="none" stroke="#000000" stroke-width="0.5" stroke-linecap="round" stroke-linejoin="round" d="
				M398.847,138.921l-4.236-2.438"/>
			<path id="XMLID_132_" fill="none" stroke="#000000" stroke-width="0.5" stroke-linecap="round" stroke-linejoin="round" d="
				M400.986,138.921l2.737-1.578"/>
			<path id="XMLID_19_" fill="none" stroke="#000000" stroke-width="0.5" stroke-linecap="round" stroke-linejoin="round" d="
				M403.103,147.567v-1.492"/>
			<path id="XMLID_131_" fill="none" stroke="#000000" stroke-width="0.5" stroke-linecap="round" stroke-linejoin="round" d="
				M403.103,403.539V279.205"/>
			<path id="XMLID_130_" fill="none" stroke="#000000" stroke-width="0.5" stroke-linecap="round" stroke-linejoin="round" d="
				M404.043,132.206v4.856"/>
			<path id="XMLID_129_" fill="none" stroke="#000000" stroke-width="0.5" stroke-linecap="round" stroke-linejoin="round" d="
				M404.163,136.723v-4.176"/>
			<path id="XMLID_128_" fill="none" stroke="#000000" stroke-width="0.5" stroke-linecap="round" stroke-linejoin="round" d="
				M407.34,402.54l17.006-9.812"/>
			<path id="XMLID_127_" fill="none" stroke="#000000" stroke-width="0.5" stroke-linecap="round" stroke-linejoin="round" d="
				M424.346,135.244l-17.006,9.812"/>
			<path id="XMLID_126_" fill="none" stroke="#000000" stroke-width="0.5" stroke-linecap="round" stroke-linejoin="round" d="
				M433.078,381.518v-85"/>
			<path id="XMLID_20_" fill="none" stroke="#000000" stroke-width="0.5" stroke-linecap="round" stroke-linejoin="round" d="
				M433.078,164.871v-40.838"/>
			<path id="XMLID_124_" fill="none" stroke="#000000" stroke-width="0.5" stroke-linecap="round" stroke-linejoin="round" d="
				M404.163,136.723l-0.06,0.22l-0.14,0.219l-0.24,0.18"/>
			<path id="XMLID_123_" fill="none" stroke="#000000" stroke-width="0.5" stroke-linecap="round" stroke-linejoin="round" d="
				M379.743,127.89l0.28,0.22l0.14,0.259v0.28l-0.14,0.24l-0.28,0.22"/>
			<path id="XMLID_122_" fill="none" stroke="#000000" stroke-width="0.5" stroke-linecap="round" stroke-linejoin="round" d="
				M379.743,386.593l0.28-0.22l0.14-0.26v-0.28"/>
			<path id="XMLID_121_" fill="none" stroke="#000000" stroke-width="0.5" stroke-linecap="round" stroke-linejoin="round" d="
				M389.295,397.004l-0.28-0.22l-0.14-0.24"/>
			<path id="XMLID_120_" fill="none" stroke="#000000" stroke-width="0.5" stroke-linecap="round" stroke-linejoin="round" d="
				M389.295,139.54l-0.28-0.22l-0.14-0.259v-0.28l0.14-0.24l0.28-0.22"/>
			<path id="XMLID_119_" fill="none" stroke="#000000" stroke-width="0.5" stroke-linecap="round" stroke-linejoin="round" d="
				M375.487,124.213l-0.259,0.22l-0.16,0.259v0.26l0.16,0.259l0.259,0.22"/>
			<path id="XMLID_118_" fill="none" stroke="#000000" stroke-width="0.5" stroke-linecap="round" stroke-linejoin="round" d="
				M404.163,132.546l-0.06-0.22l-0.14-0.22l-0.24-0.18"/>
			<path id="XMLID_117_" fill="none" stroke="#000000" stroke-width="0.5" stroke-linecap="round" stroke-linejoin="round" d="
				M381.866,110.726c11.714-6.78,30.729-6.792,42.47-0.028c11.741,6.763,11.764,17.743,0.049,24.522
				c-0.016,0.009-0.032,0.019-0.049,0.028"/>
			<path id="XMLID_115_" fill="none" stroke="#000000" stroke-width="0.5" stroke-linecap="round" stroke-linejoin="round" d="
				M407.348,145.055c-2.346,1.354-6.149,1.354-8.495,0"/>
			
				<ellipse id="XMLID_114_" fill="none" stroke="#000000" stroke-width="0.5" stroke-linecap="round" stroke-linejoin="round" cx="403.102" cy="122.988" rx="7.514" ry="4.336"/>
			
				<ellipse id="XMLID_113_" transform="matrix(0.5 -0.866 0.866 0.5 -101.3807 548.5233)" fill="none" stroke="#000000" stroke-width="0.5" stroke-linecap="round" stroke-linejoin="round" cx="424.352" cy="362.061" rx="3.757" ry="2.158"/>
			<path id="XMLID_112_" fill="none" stroke="#000000" stroke-width="0.5" stroke-linecap="round" stroke-linejoin="round" d="
				M407.348,402.53c-2.346,1.354-6.149,1.354-8.495,0"/>
			<path id="XMLID_111_" fill="none" stroke="#000000" stroke-width="0.5" stroke-linecap="round" stroke-linejoin="round" d="
				M433.078,381.509c-0.443,4.228-3.552,8.217-8.741,11.212"/>
			<path id="XMLID_110_" fill="none" stroke="#000000" stroke-width="0.5" stroke-linecap="round" stroke-linejoin="round" d="
				M364.876,125.44c-2.346-1.354-2.347-3.549-0.001-4.903c0.001,0,0.001-0.001,0.001-0.001"/>
			
				<ellipse id="XMLID_109_" transform="matrix(0.5 -0.866 0.866 0.5 -58.9085 524.0006)" fill="none" stroke="#000000" stroke-width="0.5" stroke-linecap="round" stroke-linejoin="round" cx="424.35" cy="313.017" rx="3.757" ry="2.158"/>
			<path id="XMLID_108_" fill="none" stroke="#000000" stroke-width="0.5" stroke-linecap="round" stroke-linejoin="round" d="
				M364.876,382.914c-0.898-0.518-1.488-1.186-1.686-1.91"/>
		</g>
	</g>
</g>
<g id="XMLID_10_">
	<g id="XMLID_7_">
		<path d="M813.412,3c14.049,0,25.478,11.43,25.478,25.478v538.323c0,14.049-11.43,25.478-25.478,25.478H28.478
			C14.43,592.28,3,580.85,3,566.802V28.478C3,14.43,14.43,3,28.478,3H813.412 M813.412,0H28.478C12.815,0,0,12.815,0,28.478v538.323
			c0,15.663,12.815,28.478,28.478,28.478h784.933c15.663,0,28.478-12.815,28.478-28.478V28.478C841.89,12.815,829.075,0,813.412,0
			L813.412,0z"/>
	</g>
	<g id="XMLID_6_">
		<path d="M1.5,83.539V28.478C1.5,13.603,13.603,1.5,28.479,1.5H83.54v55.061c0,14.876-12.103,26.979-26.979,26.979H1.5z"/>
		<g>
			<path d="M82.039,3v53.561c0,14.049-11.43,25.479-25.478,25.479H3V28.478C3,14.43,14.43,3,28.478,3H82.039 M85.039,0H28.478
				C12.815,0,0,12.815,0,28.478v56.561h56.561c15.663,0,28.478-12.815,28.478-28.478V0L85.039,0z"/>
		</g>
	</g>
	<g>
		<path fill="#FFFFFF" d="M32.242,50.725c0.953-2.266,3.203-4.664,6.75-7.195c3.078-2.203,5.07-3.781,5.977-4.734
			c1.391-1.484,2.086-3.109,2.086-4.875c0-1.438-0.398-2.633-1.195-3.586s-1.938-1.43-3.422-1.43c-2.031,0-3.414,0.758-4.148,2.273
			c-0.422,0.875-0.672,2.266-0.75,4.172h-6.492c0.109-2.891,0.633-5.227,1.572-7.008c1.783-3.391,4.951-5.086,9.502-5.086
			c3.597,0,6.459,0.996,8.587,2.988c2.127,1.992,3.191,4.629,3.191,7.91c0,2.516-0.751,4.75-2.254,6.703
			c-0.986,1.297-2.606,2.742-4.861,4.336l-2.677,1.898c-1.675,1.188-2.821,2.047-3.438,2.578s-1.137,1.148-1.559,1.852h14.836v5.883
			H30.672C30.734,54.967,31.258,52.74,32.242,50.725z"/>
	</g>
</g>
</svg>
