<?xml version="1.0" encoding="utf-8"?>
<!-- Generator: Adobe Illustrator 19.0.0, SVG Export Plug-In . SVG Version: 6.00 Build 0)  -->
<svg version="1.0" id="Layer_1" xmlns="http://www.w3.org/2000/svg" xmlns:xlink="http://www.w3.org/1999/xlink" x="0px" y="0px"
	 width="265.2px" height="350.639px" viewBox="0 0 265.2 350.639" enable-background="new 0 0 265.2 350.639" xml:space="preserve">
<g id="XMLID_1_">
	<text transform="matrix(1.0002 0 0 1 246.4335 223.8521)" font-family="'ArialMT'" font-size="13.6276px">5</text>
	<text transform="matrix(1.0006 0 0 1 243.0268 246.815)" font-family="'ArialMT'" font-size="13.6276px">2x</text>
	<text transform="matrix(1.0002 0 0 1 246.4335 89.8111)" font-family="'ArialMT'" font-size="13.6276px">2</text>
	<text transform="matrix(1.0006 0 0 1 243.0268 112.774)" font-family="'ArialMT'" font-size="13.6276px">2x</text>
	<text transform="matrix(1.0002 0 0 1 246.4335 139.647)" font-family="'ArialMT'" font-size="13.6276px">3</text>
	<text transform="matrix(1.0006 0 0 1 243.0268 162.6099)" font-family="'ArialMT'" font-size="13.6276px">2x</text>
	<text transform="matrix(1.0002 0 0 1 246.4335 189.483)" font-family="'ArialMT'" font-size="13.6276px">1</text>
	<text transform="matrix(1.0002 0 0 1 246.4335 273.4156)" font-family="'ArialMT'" font-size="13.6276px">4</text>
	<text transform="matrix(1.0006 0 0 1 243.0268 296.3785)" font-family="'ArialMT'" font-size="13.6276px">2x</text>
	<text transform="matrix(1.0002 0 0 1 246.4335 323.2515)" font-family="'ArialMT'" font-size="13.6276px">6</text>
	<text transform="matrix(1.0006 0 0 1 243.0268 346.2144)" font-family="'ArialMT'" font-size="13.6276px">2x</text>
	<path fill="none" stroke="#000000" stroke-width="0.5" stroke-miterlimit="10" d="M236.75,325.15l0.4,0.9l0.5,0.8l0.5,0.7l0.5,0.7
		l0.7,0.7l0.6,0.7l0.7,0.6l0.7,0.6l0.8,0.5l0.8,0.5l0.8,0.4l0.8,0.4l0.9,0.3l0.9,0.3l0.9,0.2l0.9,0.1l0.9,0.1l0.9,0.1l1-0.1h0.9
		l0.9-0.2l0.9-0.2l0.9-0.2l0.9-0.3l0.8-0.4l0.8-0.4l0.8-0.4l0.8-0.5l0.8-0.6l0.7-0.6l0.6-0.6l0.7-0.7l0.5-0.7l0.6-0.8l0.5-0.8
		l0.4-0.8l0.4-0.8l0.3-0.9l0.3-0.9l0.2-0.9l0.2-0.9l0.1-0.9v-0.9v-0.9v-0.9l-0.1-1l-0.2-0.9l-0.3-0.9l-0.2-0.8l-0.4-0.9l-0.4-0.8
		l-0.4-0.8l-0.5-0.8l-0.6-0.8l-0.5-0.7l-0.7-0.7l-0.6-0.6l-0.8-0.6l-0.7-0.5l-0.8-0.5l-0.8-0.5l-0.8-0.4l-0.9-0.3l-0.8-0.3l-0.9-0.3
		l-0.9-0.1l-1-0.2h-0.9h-0.9h-0.9l-0.9,0.1l-1,0.2l-0.8,0.2l-0.9,0.3l-0.9,0.3l-0.8,0.4l-0.9,0.4l-0.7,0.5l-0.8,0.5l-0.7,0.6
		l-0.7,0.6l-0.6,0.7l-0.6,0.7l-0.6,0.7l-0.5,0.8l-0.5,0.8l-0.4,0.8l-0.3,0.9l-0.4,0.8l-0.2,0.9l-0.2,0.9l-0.1,0.9l-0.1,1v0.9v0.9
		l0.1,0.9l0.1,0.9l0.2,0.9l0.3,0.9l0.3,0.9L236.75,325.15 M236.75,275.35l0.4,0.8l0.5,0.8l0.5,0.8l0.5,0.7l0.7,0.7l0.6,0.7l0.7,0.6
		l0.7,0.5l0.8,0.6l0.8,0.4l0.8,0.5l0.8,0.3l0.9,0.3l0.9,0.3l0.9,0.2l0.9,0.2l0.9,0.1h0.9h1l0.9-0.1l0.9-0.1l0.9-0.2l0.9-0.3l0.9-0.3
		l0.8-0.3l0.8-0.4l0.8-0.5l0.8-0.5l0.8-0.5l0.7-0.6l0.6-0.7l0.7-0.7l0.5-0.7l0.6-0.7l0.5-0.8l0.4-0.8l0.4-0.9l0.3-0.8l0.3-0.9
		l0.2-0.9l0.2-0.9l0.1-0.9v-0.9v-1v-0.9l-0.1-0.9l-0.2-0.9l-0.3-0.9l-0.2-0.9l-0.4-0.8l-0.4-0.9l-0.4-0.8l-0.5-0.8l-0.6-0.7
		l-0.5-0.7l-0.7-0.7l-0.6-0.6l-0.8-0.6l-0.7-0.6l-0.8-0.5l-0.8-0.4l-0.8-0.4l-0.9-0.4l-0.8-0.3l-0.9-0.2l-0.9-0.2l-1-0.1l-0.9-0.1
		h-0.9l-0.9,0.1l-0.9,0.1l-1,0.1l-0.8,0.3l-0.9,0.2l-0.9,0.4l-0.8,0.3l-0.9,0.5l-0.7,0.5l-0.8,0.5l-0.7,0.6l-0.7,0.6l-0.6,0.6
		l-0.6,0.7l-0.6,0.8l-0.5,0.7l-0.5,0.8l-0.4,0.9l-0.3,0.8l-0.4,0.9l-0.2,0.9l-0.2,0.9l-0.1,0.9l-0.1,0.9v0.9v1l0.1,0.9l0.1,0.9
		l0.2,0.9l0.3,0.9l0.3,0.8L236.75,275.35 M236.75,191.45l0.4,0.8l0.5,0.8l0.5,0.7l0.5,0.8l0.7,0.7l0.6,0.6l0.7,0.6l0.7,0.6l0.8,0.5
		l0.8,0.5l0.8,0.4l0.8,0.4l0.9,0.3l0.9,0.3l0.9,0.2l0.9,0.1l0.9,0.1l0.9,0.1h1l0.9-0.1l0.9-0.1l0.9-0.2l0.9-0.3l0.9-0.3l0.8-0.3
		l0.8-0.4l0.8-0.5l0.8-0.5l0.8-0.6l0.7-0.6l0.6-0.6l0.7-0.7l0.5-0.7l0.6-0.8l0.5-0.7l0.4-0.9l0.4-0.8l0.3-0.9l0.3-0.8l0.2-0.9
		l0.2-0.9l0.1-1v-0.9v-0.9v-0.9l-0.1-0.9l-0.2-0.9l-0.3-0.9l-0.2-0.9l-0.4-0.9l-0.4-0.8l-0.4-0.8l-0.5-0.8l-0.6-0.7l-0.5-0.8
		l-0.7-0.6l-0.6-0.7l-0.8-0.6l-0.7-0.5l-0.8-0.5l-0.8-0.5l-0.8-0.3l-0.9-0.4l-0.8-0.3l-0.9-0.2l-0.9-0.2l-1-0.1l-0.9-0.1h-0.9h-0.9
		l-0.9,0.1l-1,0.2l-0.8,0.2l-0.9,0.3l-0.9,0.3l-0.8,0.4l-0.9,0.4l-0.7,0.5l-0.8,0.6l-0.7,0.5l-0.7,0.6l-0.6,0.7l-0.6,0.7l-0.6,0.7
		l-0.5,0.8l-0.5,0.8l-0.4,0.8l-0.3,0.9l-0.4,0.9l-0.2,0.8l-0.2,1l-0.1,0.9l-0.1,0.9v0.9v0.9l0.1,0.9l0.1,1l0.2,0.9l0.3,0.8l0.3,0.9
		L236.75,191.45 M236.75,141.55l0.4,0.8l0.5,0.8l0.5,0.8l0.5,0.7l0.7,0.7l0.6,0.7l0.7,0.6l0.7,0.6l0.8,0.5l0.8,0.5l0.8,0.4l0.8,0.4
		l0.9,0.3l0.9,0.2l0.9,0.2l0.9,0.2l0.9,0.1h0.9h1l0.9-0.1l0.9-0.1l0.9-0.2l0.9-0.2l0.9-0.3l0.8-0.4l0.8-0.4l0.8-0.4l0.8-0.6l0.8-0.5
		l0.7-0.6l0.6-0.6l0.7-0.7l0.5-0.7l0.6-0.8l0.5-0.8l0.4-0.8l0.4-0.8l0.3-0.9l0.3-0.9l0.2-0.9l0.2-0.9l0.1-0.9v-0.9v-0.9v-1l-0.1-0.9
		l-0.2-0.9l-0.3-0.9l-0.2-0.9l-0.4-0.8l-0.4-0.8l-0.4-0.9l-0.5-0.7l-0.6-0.8l-0.5-0.7l-0.7-0.7l-0.6-0.6l-0.8-0.6l-0.7-0.5l-0.8-0.5
		l-0.8-0.5l-0.8-0.4l-0.9-0.3l-0.8-0.3l-0.9-0.3l-0.9-0.1l-1-0.2h-0.9h-0.9h-0.9l-0.9,0.1l-1,0.2l-0.8,0.2l-0.9,0.3l-0.9,0.3
		l-0.8,0.4l-0.9,0.4l-0.7,0.5l-0.8,0.5l-0.7,0.6l-0.7,0.6l-0.6,0.7l-0.6,0.7l-0.6,0.7l-0.5,0.8l-0.5,0.8l-0.4,0.8l-0.3,0.8l-0.4,0.9
		l-0.2,0.9l-0.2,0.9l-0.1,0.9l-0.1,0.9v1v0.9l0.1,0.9l0.1,0.9l0.2,0.9l0.3,0.9l0.3,0.9L236.75,141.55 M236.75,91.75l0.4,0.8l0.5,0.8
		l0.5,0.8l0.5,0.7l0.7,0.7l0.6,0.6l0.7,0.7l0.7,0.5l0.8,0.5l0.8,0.5l0.8,0.4l0.8,0.4l0.9,0.3l0.9,0.3l0.9,0.2l0.9,0.2l0.9,0.1h0.9h1
		l0.9-0.1l0.9-0.1l0.9-0.2l0.9-0.3l0.9-0.3l0.8-0.3l0.8-0.4l0.8-0.5l0.8-0.5l0.8-0.5l0.7-0.6l0.6-0.7l0.7-0.7l0.5-0.7l0.6-0.7
		l0.5-0.8l0.4-0.8l0.4-0.9l0.3-0.8l0.3-0.9l0.2-0.9l0.2-0.9l0.1-0.9v-1v-0.9v-0.9l-0.1-0.9l-0.2-0.9l-0.3-0.9l-0.2-0.9l-0.4-0.9
		l-0.4-0.8l-0.4-0.8l-0.5-0.8l-0.6-0.7l-0.5-0.7l-0.7-0.7l-0.6-0.6l-0.8-0.6l-0.7-0.6l-0.8-0.5l-0.8-0.4l-0.8-0.4l-0.9-0.4l-0.8-0.3
		l-0.9-0.2l-0.9-0.2l-1-0.1l-0.9-0.1h-0.9l-0.9,0.1l-0.9,0.1l-1,0.1l-0.8,0.2l-0.9,0.3l-0.9,0.3l-0.8,0.4l-0.9,0.5l-0.7,0.4
		l-0.8,0.6l-0.7,0.5l-0.7,0.7l-0.6,0.6l-0.6,0.7l-0.6,0.8l-0.5,0.7l-0.5,0.8l-0.4,0.9l-0.3,0.8l-0.4,0.9l-0.2,0.9l-0.2,0.9l-0.1,0.9
		l-0.1,0.9v0.9v0.9l0.1,1l0.1,0.9l0.2,0.9l0.3,0.9l0.3,0.8L236.75,91.75 M236.75,225.75l0.4,0.8l0.5,0.8l0.5,0.8l0.5,0.7l0.7,0.7
		l0.6,0.7l0.7,0.6l0.7,0.6l0.8,0.5l0.8,0.4l0.8,0.5l0.8,0.3l0.9,0.4l0.9,0.2l0.9,0.2l0.9,0.2l0.9,0.1h0.9h1l0.9-0.1l0.9-0.1l0.9-0.2
		l0.9-0.2l0.9-0.3l0.8-0.4l0.8-0.4l0.8-0.5l0.8-0.5l0.8-0.5l0.7-0.6l0.6-0.7l0.7-0.6l0.5-0.8l0.6-0.7l0.5-0.8l0.4-0.8l0.4-0.8
		l0.3-0.9l0.3-0.9l0.2-0.9l0.2-0.9l0.1-0.9v-0.9v-1v-0.9l-0.1-0.9l-0.2-0.9l-0.3-0.9l-0.2-0.9l-0.4-0.8l-0.4-0.9l-0.4-0.8l-0.5-0.7
		l-0.6-0.8l-0.5-0.7l-0.7-0.7l-0.6-0.6l-0.8-0.6l-0.7-0.6l-0.8-0.5l-0.8-0.4l-0.8-0.4l-0.9-0.3l-0.8-0.3l-0.9-0.3l-0.9-0.2l-1-0.1
		h-0.9l-0.9-0.1l-0.9,0.1l-0.9,0.1l-1,0.2l-0.8,0.2l-0.9,0.2l-0.9,0.4l-0.8,0.4l-0.9,0.4l-0.7,0.5l-0.8,0.5l-0.7,0.6l-0.7,0.6
		l-0.6,0.7l-0.6,0.7l-0.6,0.7l-0.5,0.8l-0.5,0.8l-0.4,0.8l-0.3,0.8l-0.4,0.9l-0.2,0.9l-0.2,0.9l-0.1,0.9l-0.1,0.9v1v0.9l0.1,0.9
		l0.1,0.9l0.2,0.9l0.3,0.9l0.3,0.9L236.75,225.75"/>
	<path fill="none" stroke="#000000" stroke-width="0.5" stroke-linecap="round" stroke-linejoin="round" stroke-miterlimit="10" d="
		M235.35,319.75l-113.4,6.4 M235.35,267.55l-172.2-16.7 M235.65,188.15l-113.1,23.6 M239.95,145.95l-38.6,40.5 M235.85,89.25
		l-68.7,18.5 M235.35,220.65l-186.5,14.9"/>
	<path d="M121.05,326.15v0.3l0.1,0.2l0.2,0.2l0.1,0.1l0.3,0.1l0.2,0.1l0.2-0.1l0.3-0.1l0.2-0.1l0.1-0.2l0.1-0.2l0.1-0.2v-0.3
		l-0.1-0.2l-0.1-0.2l-0.2-0.2l-0.2-0.1l-0.3-0.1h-0.2l-0.2,0.1l-0.2,0.1l-0.2,0.2l-0.2,0.2v0.2V326.15h0.9 M62.25,250.75v0.3v0.2
		l0.1,0.2l0.2,0.2l0.2,0.1l0.3,0.1h0.2l0.2-0.1l0.2-0.1l0.2-0.2l0.2-0.2v-0.2l0.1-0.2l-0.1-0.3l-0.1-0.2l-0.1-0.2l-0.2-0.1l-0.2-0.1
		l-0.3-0.1l-0.2,0.1h-0.2l-0.2,0.2l-0.2,0.2l-0.1,0.2V250.75l0.9,0.1 M121.55,211.95l0.1,0.3l0.1,0.2l0.2,0.1l0.2,0.1l0.3,0.1h0.2
		l0.2-0.1l0.3-0.1l0.1-0.2l0.2-0.2v-0.2v-0.2v-0.3l-0.1-0.2l-0.2-0.2l-0.2-0.1l-0.2-0.1h-0.2h-0.3l-0.2,0.1l-0.2,0.2l-0.1,0.1
		l-0.1,0.3l-0.1,0.2V211.95l1-0.2 M200.65,187.15l0.2,0.2l0.2,0.1h0.2h0.3l0.2-0.1l0.2-0.2l0.2-0.1l0.1-0.3v-0.2v-0.2l-0.1-0.3
		l-0.1-0.2l-0.2-0.1l-0.2-0.2h-0.2h-0.3h-0.2l-0.2,0.2l-0.2,0.1l-0.1,0.2l-0.1,0.3v0.2v0.2l0.1,0.2L200.65,187.15l0.7-0.7
		 M166.25,107.95l0.1,0.2l0.1,0.2l0.2,0.2l0.2,0.1h0.2h0.3l0.2-0.1l0.2-0.1l0.2-0.2l0.1-0.2v-0.2v-0.3v-0.2l-0.1-0.2l-0.2-0.2
		l-0.2-0.1l-0.2-0.1h-0.3l-0.2,0.1l-0.2,0.1l-0.2,0.1l-0.2,0.2v0.2l-0.1,0.3L166.25,107.95l0.9-0.2 M47.85,235.55l0.1,0.3l0.1,0.2
		l0.1,0.2l0.2,0.1l0.3,0.1h0.2h0.2l0.3-0.1l0.2-0.2l0.1-0.1l0.1-0.3v-0.2v-0.2v-0.3l-0.2-0.2l-0.2-0.1l-0.2-0.1l-0.2-0.1h-0.2
		l-0.3,0.1l-0.2,0.1l-0.2,0.2l-0.1,0.2l-0.1,0.2V235.55h1"/>
	
		<path fill="none" stroke="#000000" stroke-width="0.25" stroke-linecap="round" stroke-linejoin="round" stroke-miterlimit="10" d="
		M83.05,197.95h-0.1v0.2 M40.35,86.95l0.1-0.1h0.2 M102.35,206.25v0.1l-0.1,0.3 M88.95,181.95h0.1 M86.55,205.25L86.55,205.25
		 M41.45,88.85l-6.1,3.6 M49.65,92.45l-6.2-3.6 M94.65,202.45v0.1l0.1,0.2 M30.95,103.35v0.3l0.2,0.4 M95.25,203.55v0.3l0.1,0.6
		l0.2,0.5 M32.35,91.55h0.1h0.1 M31.75,95.05l-0.2-0.2l-0.4-0.4 M95.25,202.15v0.9 M95.45,203.35l1.5,0.8 M101.65,206.35l-0.1,0.1
		l-0.2,0.3l-0.2,0.3 M97.25,204.65v0.3l0.1,0.6l0.2,0.5 M97.25,203.35v0.8 M99.85,204.55h-0.3l-0.4,0.1h-0.4h-0.5l-0.3-0.1
		 M32.15,105.15l-0.1-0.1v-0.1 M116.65,222.65L116.65,222.65 M120.95,222.65l0.5-0.6l0.4-0.8 M31.95,96.25v7.3 M32.75,105.15
		l4.6,2.6 M31.95,94.85l0.1-0.2l0.1-0.3l0.1-0.2l0.2-0.2l0.1-0.3 M42.05,100.95l-8.7-5 M89.15,180.15h-0.1h-0.2l-0.1-0.1
		 M102.25,206.05l-0.1,0.1 M105.35,206.15l-0.4-0.1l-0.4-0.1l-0.4-0.1h-0.5l-0.4,0.1 M43.45,104.65v-2.5 M43.55,101.55v-0.3l0.1-0.2
		l0.1-0.3l0.2-0.2l0.2-0.2 M44.85,103.45l-0.1-0.3l-0.3-0.5 M95.15,201.95l-0.2-0.1l-0.2-0.2 M100.25,204.15v-0.8 M101.45,206.15
		h-0.1l-0.2-0.1l-0.3-0.2l-0.2-0.2 M101.75,192.75v11.5 M121.55,219.25l-0.2,0.1l-0.3,0.1h-0.3l-0.3,0.1h-0.3 M97.55,203.35l0.4,0.1
		l0.3,0.1h0.5h0.4l0.4-0.1 M100.25,203.15l-0.4-10.5l-0.3-3 M118.25,199.75l0.3,0.2l0.4,0.1h0.4h0.4h0.4 M118.75,198.55l-0.5,0.6
		l-0.4,0.4 M91.45,207.35l19.6,11.3 M117.75,201.65L117.75,201.65l-0.1,2.1v2.1v2.2l0.1,2.2 M116.45,199.25l0.3,0.1 M105.75,204.75
		v-9.9 M89.85,182.65l-0.9,0.2 M84.75,183.25l0.1,1.5v2.2l-0.1,2.1l-0.1,2.1 M81.55,175.75v0.1v0.1 M35.25,113.25l-6.2,3.5
		 M43.85,104.85h0.1h0.2 M88.55,179.85l0.1-0.7 M80.65,167.25l1,7.5 M82.25,177.55l0.5,1.2l0.9,1.2l1,1l1.1,0.6l1,0.2 M21.35,143.05
		v0.3l0.2,0.4 M28.05,117.65v1.7 M51.55,155.65v0.1l-0.1,0.3 M50.85,156.25v0.3 M22.75,117.05L22.75,117.05h0.2 M22.15,120.55
		l-0.2-0.2l-0.4-0.4 M27.65,116.55l0.1,0.1l0.1,0.1v0.1l0.1,0.1v0.2 M27.85,117.45l-0.2,0.2l-0.3,0.3 M50.15,157.45l-0.1,0.1
		 M22.75,145.25l-0.2-0.1l-0.1-0.2 M45.95,158.65l-0.1-0.1l-0.2-0.2 M48.15,158.75l0.1-0.1 M36.25,122.95v-8.9 M35.85,111.85
		l0.1,0.1l0.1,0.1v0.1l0.1,0.1v0.1 M59.95,115.15l-0.1-0.1l-1.2-1.3l-1.7-1.1l-1.9-1l-2.3-0.7l-2.4-0.5l-2.5-0.3h-2.5 M48.65,158.25
		l1.3-0.7 M50.35,157.25l0.1-0.1l0.1-0.1l0.1-0.2l0.1-0.1v-0.2 M50.15,157.45l-0.1-1.2l0.4-0.8l0.8-0.8 M52.25,155.15l3.9-2.3
		 M50.85,155.35v0.8 M50.95,156.15L50.95,156.15v-0.1l0.1-0.1l0.1-0.1 M51.65,154.55v0.8 M27.85,119.55L27.85,119.55h-0.1
		 M57.45,124.25h-0.1h-0.1 M44.25,128.95h-0.1 M48.95,128.95h0.1 M51.35,154.65l0.1-0.1 M45.95,158.05l0.3,0.2l0.4,0.2l0.4,0.1
		l0.4,0.1h0.3 M50.95,154.95l-0.1,0.1l-0.4,0.4l-0.4,0.4l-0.3,0.5 M52.55,153.75l-1.2,0.8 M94.55,188.45l0.3,3.1 M95.45,202.15
		l1.5,0.9 M96.55,189.55l0.3,3.1 M120.85,199.55l-0.1-0.9 M121.45,216.55l-0.3-2.5l-0.3-2.5l-0.1-2.4l-0.1-2.4 M122.25,218.85
		l2.6-1.5 M90.95,183.95h-0.2 M142.05,183.55l-0.1,0.3l-0.2,0.4 M99.15,157.25l6.2-3.5 M98.15,159.85v-1.7 M44.65,86.95l-0.1-0.1
		h-0.2 M97.35,158.95v-0.2l0.2-0.3 M98.15,157.75v-0.1v-0.2l-0.1-0.1l-0.1-0.1l-0.1-0.1 M91.35,184.95l-0.1-0.1l-0.1-0.2
		 M140.65,185.75l0.1-0.1l0.1-0.2 M153.75,160.75l6.2-3.5 M161.95,157.25l6.2,3.5 M114.65,198.35l-0.1-0.1l-0.2-0.2 M118.85,198.35
		l0.2-0.1l0.1-0.2 M146.15,170.65l-0.7-0.2l-0.9-0.1l-0.9-0.1l-0.9,0.1l-0.9,0.1 M147.15,171.45h-0.1l-0.1-0.1 M171.25,173.55
		l0.1-0.1l0.1-0.1 M172.45,171.75v0.3l-0.2,0.3 M141.25,161.15l0.6-0.2l0.9-0.2h0.9h0.9l0.9,0.2 M171.65,163.35l0.3-0.1l0.3-0.4
		 M171.15,159.95h-0.1h-0.2 M158.65,178.15l-0.1-0.1v-0.1 M163.25,178.15l0.1-0.1v-0.1 M106.35,163.45v-8.9 M105.95,152.35l0.1,0.1
		l0.1,0.1l0.1,0.1v0.1l0.1,0.1 M109.95,151.65l0.6-0.2l2.4-0.5l2.5-0.3h2.6l2.5,0.3l2.4,0.5l2.2,0.7l2,1 M166.45,172.15l0.2-0.9
		l0.4-1l0.7-0.9l0.7-0.6l0.8-0.3l0.6,0.1l0.5,0.5l0.1,0.8l-0.1,1l-0.5,1l-0.6,0.9l-0.8,0.6l-0.7,0.3l-0.7-0.2l-0.4-0.5
		L166.45,172.15 M166.15,173.85l-0.1-0.1l-0.4-0.7l-0.2-0.9l0.2-1l0.4-1.2l0.7-1l0.8-0.8l0.9-0.5l0.8-0.1l0.5,0.1 M146.95,169.85
		v-7.2 M157.05,176.85l-8.7-5 M170.45,168.75l-0.1-1.1l-0.5-0.7l-0.7-0.4l-0.9,0.1l-1,0.5l-1,0.8l-0.8,1.1l-0.6,1.3l-0.4,1.2v1.2
		l0.4,0.9l0.6,0.5l0.8,0.2l0.9-0.3 M170.45,173.65l-6,3.5 M171.45,164.65v7.2 M164.45,167.55l6-3.5 M171.45,163.25l-0.1-0.2v-0.3
		l-0.2-0.2l-0.1-0.3l-0.2-0.2 M146.95,161.25v-0.3l0.1-0.2l0.2-0.3l0.1-0.2l0.2-0.2 M148.35,162.35l8.7,5 M158.45,169.35v7.2
		 M162.85,177.95l-0.5,0.2l-0.7,0.1h-0.7h-0.7l-0.7-0.1 M163.45,176.55v-7.2 M158.45,167.85l0.1-0.2l0.1-0.3l0.1-0.2l0.1-0.2
		l0.2-0.2 M159.05,168.45l0.5,0.1l0.7,0.1l0.7,0.1l0.7-0.1l0.7-0.1 M163.45,167.85l-0.1-0.2l-0.1-0.3l-0.1-0.2l-0.1-0.2l-0.2-0.2
		 M98.05,160.05h-0.1h-0.1 M127.55,164.75L127.55,164.75h-0.1 M119.35,169.55v-0.1h-0.1 M114.35,169.45L114.35,169.45h-0.1
		 M138.35,186.45l-16.4,9.4 M141.05,172.75v10.4 M140.45,169.85v-7.2 M46.85,155.65l1.3-1.5l1.6-1.3l1.9-0.9l2-0.6l2.3-0.1
		 M89.15,178.95l-0.7-1.5l-1.6-3.2l-1.9-3.1l-2-2.9l-2.3-2.7l-2.3-2.5l-2.5-2.2 M111.45,195.75l-17.6-10.1 M22.35,123.55v17.9
		 M25.15,146.05l17.6,10.1 M102.95,167.15l-69.3-40 M22.35,120.35l0.1-0.2l0.1-0.2l0.1-0.3l0.1-0.2l0.2-0.2 M121.85,172.15l16-9.2
		 M140.35,161.25v-0.3l-0.1-0.2l-0.1-0.3l-0.2-0.2l-0.2-0.2 M114.25,176.65v17.9 M118.65,197.65l-0.5,0.2l-0.7,0.1l-0.7,0.1
		l-0.7-0.1l-0.7-0.1 M119.25,194.55v-17.9 M114.25,173.45l0.1-0.2l0.1-0.3l0.1-0.2l0.1-0.3l0.2-0.2 M114.85,173.95l0.5,0.2l0.7,0.1
		h0.7h0.7l0.7-0.1 M119.25,173.45l-0.1-0.2l-0.1-0.3l-0.1-0.2l-0.1-0.3l-0.2-0.2 M34.25,91.85l7.1-4.1 M43.65,87.75l7.1,4.1
		 M50.75,93.15l-7.1,4.1 M41.35,97.25l-7.1-4.1 M40.55,109.95l2.1-0.5l2.6-0.3h2.7l2.6,0.3l2.5,0.5l2.4,0.8l2,1l1.7,1.2l1.4,1.3
		l0.9,1.5 M56.45,124.85l-6.2,3.6 M48.65,129.35l-0.6,0.2l-0.7,0.1h-0.8h-0.7l-0.7-0.1 M41.95,127.85l-12.4-7.1 M27.15,119.35
		l-0.1-0.1l-0.3-0.4l-0.3-0.4v-0.4 M28.55,115.95l6.2-3.6 M34.65,125.45l69.3,40 M117.85,172.15l-0.3,0.1h-0.4l-0.4,0.1l-0.4-0.1
		h-0.4 M136.85,161.25l-16,9.2 M146.85,159.25l-0.9-0.3l-1.1-0.2h-1.2h-1.2l-1.1,0.2 M158.05,165.55l-8.7-5 M162.05,166.55l-0.3,0.1
		l-0.4,0.1h-0.4h-0.4l-0.4-0.1 M169.45,162.35l-6,3.5 M170.65,160.15l0.1,0.1l0.2,0.2l0.1,0.2v0.3 M154.95,151.05l-95.5-55.1
		 M43.65,86.85l-0.3-0.1l-0.4-0.1h-0.5h-0.4l-0.4,0.1 M40.05,87.55l-6.1,3.5 M32.75,91.85L32.75,91.85l-0.2,0.2l-0.2,0.2v0.3
		 M34.35,94.25l8.7,5 M45.05,100.45l0.2,0.1l0.6,0.6l0.3,0.7l0.1,0.7 M41.95,106.45l-16,9.2 M23.15,117.35h-0.1l-0.2,0.2l-0.1,0.2
		v0.3 M162.05,165.65l7.1-4.1 M152.75,161.55l7.1,4.1 M159.85,156.15l-7.1,4.1 M169.15,160.25l-7.1-4.1 M130.85,162.05l0.8-1.2
		l0.4-1.5v-1.6l-0.4-1.5l-1-1.5l-1.3-1.3l-1.7-1.2l-2.1-1l-2.3-0.8l-2.5-0.5 M120.45,168.95l6.2-3.6 M114.75,169.85l0.6,0.2l0.7,0.1
		h0.7h0.7l0.8-0.1 M99.65,161.25l12.4,7.1 M97.35,157.25l-0.1,0.1l-0.4,0.3l-0.2,0.5l-0.1,0.4 M104.85,152.85l-6.2,3.6
		 M200.55,187.45l0.6-0.4l0.8-0.2l0.6,0.2 M155.65,80.75v-0.4l0.2-0.3l0.3-0.3l0.4-0.2l0.4-0.1l0.3,0.1l0.2,0.1 M166.85,87.15
		l0.1-0.4l0.2-0.4l0.3-0.3l0.3-0.2l0.4-0.1l0.4,0.1l0.2,0.1 M166.65,87.15l-0.2-0.1l-0.3,0.1l-0.3,0.3l-0.3,0.3l-0.2,0.4v0.4v0.3
		l0.2,0.2 M170.15,88.25L170.15,88.25l-0.2-0.1l-0.2-0.2l-0.2-0.3 M169.55,87.65l-0.2-0.4l-0.1-0.4v-0.4l0.1-0.2l0.2-0.2
		 M167.65,87.65L167.65,87.65l-0.4-0.1h-0.4l-0.4,0.2l-0.3,0.3l-0.2,0.5l0.1,0.4l0.1,0.4l0.3,0.3 M169.15,88.55L169.15,88.55
		l-0.4-0.1h-0.4l-0.4,0.2l-0.3,0.3l-0.2,0.5l0.1,0.4l0.1,0.4l0.3,0.3 M175.55,86.45l-0.1-0.1l-0.2-0.4 M175.25,85.95l-0.1-0.4
		l-0.1-0.4v-0.4l0.1-0.2l0.1-0.1 M35.25,12.65l0.1-0.2l0.1-0.2l0.4-0.2l0.4-0.1l0.4-0.1h0.4l0.3,0.1l0.1,0.2 M34.15,12.55v0.1
		l-0.1,0.2l-0.1,0.4l-0.3,0.3l-0.2,0.4l-0.2,0.3l-0.1,0.2l-0.1,0.1 M33.75,6.45l0.1-0.2l0.1-0.2l0.4-0.2l0.4-0.1l0.4-0.1h0.4
		l0.3,0.1l0.1,0.2 M28.45,9.25L28.45,9.25v0.1l-0.1,0.3l-0.2,0.3l-0.2,0.4l-0.2,0.3l-0.2,0.3l-0.2,0.2v0.1 M36.45,14.35l-0.1-0.1
		l-0.3-0.1h-0.4l-0.4,0.1l-0.3,0.3l-0.3,0.3l-0.1,0.4v0.4l0.1,0.1 M37.55,17.65v0.1l-0.3,0.3l-0.1,0.4v0.3l0.1,0.2 M39.25,18.65
		h-0.1l-0.1,0.5v0.4v0.3l0.1,0.2l0.1,0.1 M45.75,19.55h-0.1l-0.2,0.1l-0.2,0.3l-0.1,0.4l-0.1,0.4l-0.1,0.4v0.3l0.1,0.2l0.1,0.1
		 M36.65,14.65l-0.1-0.1v-0.4 M36.55,14.15v-0.3l0.2-0.4l0.3-0.4l0.1-0.1 M47.65,20.75l-0.1-0.1l-0.3-0.2h-0.4l-0.4,0.2l-0.3,0.2
		l-0.3,0.4l-0.1,0.4l0.1,0.3l0.1,0.2 M154.45,90.75l0.2,0.1 M164.85,97.25l0.7,0.4 M165.15,96.95l0.4,0.2 M171.85,90.85v2
		 M148.45,93.65v2.1 M164.45,95.15v1.9 M155.45,97.65v2.1 M35.85,22.25l-0.2-0.1 M46.75,29.15l-0.7-0.5 M46.75,28.55l-0.4-0.2
		 M53.05,24.15v0.3 M29.65,25.05v2.1 M36.65,29.15v2 M45.65,26.55v1.9 M170.15,95.35l0.6-0.4l0.8-0.2l0.6,0.2 M121.75,329.75
		l-0.1,0.3l-0.3,0.9l-0.8,0.7l-1.2,0.6l-1.3,0.3 M118.05,332.55l-1.5,0.1l-1.4-0.2l-1.3-0.4l-1.1-0.6l-0.7-0.7l-0.3-0.9v-0.1
		 M51.55,289.25v0.3l-0.4,0.9l-0.8,0.7l-1.1,0.6l-1.4,0.3l-1.4,0.1l-1.5-0.2l-1.3-0.4l-1-0.6l-0.7-0.7l-0.3-0.9v-0.1 M15.45,219.45
		l-0.3-1l-0.5-0.9l-0.7-0.8l-0.7-0.5l-0.8-0.1l-0.5,0.3l-0.3,0.6l-0.1,0.9l0.3,1l0.5,1l0.7,0.7l0.8,0.5l0.7,0.1l0.6-0.3l0.3-0.6
		V219.45 M16.25,221.65l0.5-0.5l0.3-0.8v-1 M17.05,219.35l-0.3-1.2l-0.6-1.2l-0.7-1l-0.9-0.7l-0.9-0.5h-0.8l-0.5,0.1 M44.55,236.95
		v-0.9l-0.4-1l-0.5-0.9l-0.7-0.7l-0.8-0.4l-0.7-0.1l-0.5,0.4l-0.3,0.6v0.9l0.3,1l0.6,1l0.7,0.7l0.8,0.4l0.7,0.1l0.5-0.4
		L44.55,236.95 M45.35,238.45l0.4-0.5l0.3-0.8 M46.05,237.15v-1.1l-0.2-1.1l-0.6-1.2l-0.8-1l-0.8-0.7l-0.9-0.5h-0.9l-0.4,0.1
		 M153.75,142.35h-0.1v-0.1 M168.55,142.35L168.55,142.35l0.1-0.1 M161.55,146.45L161.55,146.45v-0.1 M160.75,146.45L160.75,146.45
		l-0.1-0.1 M168.85,141.85L168.85,141.85l-0.1,0.1 M153.45,141.85L153.45,141.85v0.1 M163.15,100.55v-0.1v-0.1l-0.1-0.2l-0.1-0.1
		l-0.1-0.1 M161.35,100.65l1.2-0.7 M159.45,99.85l-0.1,0.1l-0.1,0.1v0.1l-0.1,0.2l-0.1,0.1 M159.75,99.95l1.2,0.7 M161.55,146.15
		l-0.2,0.1h-0.1h-0.1h-0.2h-0.1 M165.55,98.95h-0.4 M164.85,99.25l-0.2,0.2 M163.05,100.75l-1.2,0.7 M161.65,107.05v33.6
		 M162.45,145.65l5.3-3.1 M168.65,136.95v-31.5 M159.05,100.65h-0.1l-0.8-0.7 M153.65,104.85v32 M154.45,142.55l5.3,3.1
		 M160.65,140.65v-33.6 M160.45,101.45l-1.2-0.7 M161.65,101.45l-0.1-0.1v-0.1l-0.1-0.2v-0.1l-0.1-0.1 M161.05,100.75l-0.1,0.1
		l-0.1,0.1l-0.1,0.1v0.2l-0.1,0.1 M161.55,101.65h-0.2h-0.1l-0.1,0.1l-0.2-0.1h-0.1 M163.25,86.95L163.25,86.95l-1.6,0.2h-1.7
		l-1.5-0.3l-1.3-0.6 M166.75,84.15v0.1 M34.85,73.55v0.1 M49.85,73.55v0.1h-0.1 M41.85,77.55v0.1v0.1 M42.85,77.55v0.1l-0.1,0.1
		 M34.75,73.45L34.75,73.45l-0.1-0.1 M49.85,73.45h0.1v-0.1 M40.65,31.25l-0.1,0.1l-0.1,0.1l-0.1,0.1v0.2l-0.1,0.1 M40.95,31.35
		l1.2,0.7 M44.35,31.95v-0.1l-0.1-0.1v-0.2l-0.1-0.1l-0.1-0.1 M42.55,32.05l1.1-0.7 M42.65,77.65h-0.1h-0.1h-0.1h-0.2h-0.1
		 M41.85,72.05v-33.6 M41.65,32.85l-1.2-0.7 M40.25,32.05h-0.1l-0.8-0.7 M34.75,36.25v32.1 M35.65,73.95l5.3,3.1 M43.65,77.05
		l5.3-3.1 M49.85,68.25v-32.7 M46.75,30.35h-0.4 M46.05,30.65l-0.2,0.3 M44.15,32.15l-1.1,0.7 M42.85,38.45v33.6 M42.85,32.85
		l-0.1-0.1v-0.1l-0.1-0.2l-0.1-0.1v-0.1 M42.25,32.25h-0.1l-0.1,0.1l-0.1,0.1l-0.1,0.2v0.1 M42.65,33.05h-0.1l-0.1,0.1h-0.1h-0.2
		l-0.1-0.1 M47.95,15.55v0.1 M44.45,18.35h-0.1l-1.6,0.3l-1.6-0.1l-1.5-0.3l-1.3-0.6"/>
	<path fill="none" stroke="#000000" stroke-width="0.5" stroke-linecap="round" stroke-linejoin="round" stroke-miterlimit="10" d="
		M83.15,198.55l-0.1,0.8l0.1,0.9l0.2,0.9l0.4,0.9l0.5,0.9l0.7,0.8l0.6,0.7l0.8,0.5 M87.15,198.15l-0.5,0.1l-0.4,0.4l-0.1,0.7
		l0.1,0.8l0.4,0.9l0.5,0.7l0.7,0.5l0.7,0.3l0.5-0.2l0.4-0.3 M83.95,197.05l-0.3,0.2l-0.4,0.8l-0.1,0.5 M82.65,178.25l3-1.7
		 M85.75,181.35l2.4-1.4 M37.55,94.85l0.2-0.2l0.6-0.4l0.5-0.2l0.5,0.1l0.3,0.3l0.1,0.6l-0.1,0.7l-0.1,0.3 M42.45,97.65v-9.4
		 M86.55,175.25l0.1,0.2l0.3,0.9l0.6,0.7l0.3,0.3 M85.35,174.05l0.3,2.5 M85.65,176.55l2.4,2.3 M86.35,204.95l1,0.5l0.7,0.1h0.2
		 M42.45,87.15v0.1v0.1v0.2v0.1v0.2v0.2v0.1v0.1 M124.25,220.85l0.2-0.2l0.5-0.6l0.4-0.9l0.1-1l-0.1-1.1 M51.15,92.65h0.1l0.1-0.1
		h0.2h0.1h0.2 M33.15,92.55h0.2h0.2l0.1,0.1h0.2 M42.45,97.65v0.1v0.1v0.1 M116.35,222.35l-1.1-0.8l-0.8-0.8l-0.3-0.3
		 M119.55,219.55l0.1,0.9l-0.1,0.8l-0.3,0.6l-0.4,0.5l-0.5,0.3l-0.6,0.1l-0.7-0.1l-0.7-0.3 M119.45,219.35L119.45,219.35l-0.3,0.4
		l-0.6,0.1l-0.6-0.2l-0.7-0.5l-0.5-0.8l-0.4-0.8l-0.1-0.9 M116.25,216.65l0.1-0.6l0.4-0.5l0.5-0.1 M118.45,216.95l0.4,0.6l0.5,1.4
		l0.2,0.6 M119.25,198.15l-0.2,0.2l-0.3,0.2 M117.95,198.75L117.95,198.75 M88.25,205.55l0.7-0.5l0.5-0.9l0.1-1.1l-0.2-1.4l-0.6-1.4
		l-0.8-1.2l-1-1.1l-1-0.7l-1.1-0.3l-0.9,0.1 M114.15,220.45l-0.7-1.3l-0.4-1.4l-0.2-1.3l0.3-1l0.5-0.8l0.8-0.4l1,0.1l1.1,0.5l1,0.9
		l0.9,1.2 M104.05,206.75h0.6l1.1-0.4 M87.25,176.05l-2.6-2.7 M88.25,180.45l-0.5-3.5 M85.75,181.35l2.5-0.9 M82.65,178.25l3.1,3.1
		 M82.15,174.25l0.5,4 M84.65,173.35l-2.5,0.9 M61.25,118.65v-0.8l-0.1-0.4 M125.35,217.05l-0.7-5l-0.4-4.9l-0.1-4.8l0.2-4.6
		l0.3-2.7 M68.25,156.05l0.1,0.6l0.3,0.3l0.2,0.1 M141.05,171.05l0.4-0.1 M156.35,163.45L156.35,163.45l0.4-0.4l0.4-0.1l0.3,0.1
		l0.3,0.2v0.4v0.5v0.1 M160.95,166.05v-9.4 M160.95,156.65v-0.1v-0.1v-0.2v-0.1v-0.1v-0.2v-0.1v-0.1v-0.2 M167.05,171.85l0.1-0.7
		l0.3-0.7l0.5-0.6l0.5-0.5l0.6-0.2l0.4,0.1l0.4,0.4l0.1,0.5l-0.1,0.8l-0.4,0.7l-0.4,0.6l-0.6,0.5l-0.5,0.2l-0.5-0.1l-0.3-0.4
		L167.05,171.85 M152.25,161.05h-0.1l-0.2-0.1h-0.2h-0.2 M160.95,166.35v-0.1v-0.1v-0.1 M170.35,160.95h-0.2h-0.2l-0.2,0.1h-0.1
		 M140.45,171.05L140.45,171.05h0.6 M182.45,177.95l-0.3,0.3l-0.4,0.5l-0.2,0.5l-0.1,0.5 M183.65,177.75l-0.4-0.1l-0.5,0.2l-0.5,0.4
		l-0.4,0.5l-0.3,0.6l-0.1,0.7l0.1,0.5l0.3,0.3 M183.85,177.85l-0.2-0.1l-0.4-0.1l-0.5,0.2l-0.5,0.4l-0.4,0.5l-0.2,0.7l-0.1,0.6
		l0.1,0.5l0.2,0.3h0.2 M184.05,177.95l-0.4-0.1l-0.5,0.2l-0.5,0.4l-0.4,0.5l-0.3,0.7l-0.1,0.6l0.1,0.5l0.3,0.3 M184.25,178.15
		l-0.2-0.1l-0.4-0.1l-0.4,0.1l-0.5,0.4l-0.4,0.6l-0.3,0.6l-0.1,0.6l0.1,0.5l0.3,0.3l0.2,0.1 M184.45,178.25l-0.4-0.1l-0.5,0.2
		l-0.5,0.3l-0.4,0.6l-0.2,0.6l-0.1,0.6l0.1,0.5l0.2,0.3 M184.75,178.45l-0.2-0.2l-0.4-0.1l-0.5,0.2l-0.5,0.4l-0.4,0.5l-0.3,0.7v0.6
		v0.5l0.3,0.3l0.2,0.1 M184.85,178.45l-0.4-0.1l-0.4,0.2l-0.5,0.4l-0.4,0.5l-0.3,0.7l-0.1,0.6l0.1,0.5l0.3,0.3 M185.15,178.65
		l-0.2-0.1l-0.4-0.1l-0.5,0.2l-0.4,0.3l-0.4,0.6l-0.3,0.6l-0.1,0.6l0.1,0.5l0.3,0.3l0.2,0.1 M185.35,178.75l-0.4-0.1l-0.5,0.2
		l-0.5,0.4l-0.4,0.5l-0.3,0.6v0.6v0.5l0.3,0.3 M185.55,178.95l-0.1-0.2h-0.4l-0.5,0.1l-0.5,0.4l-0.4,0.6l-0.3,0.6l-0.1,0.6l0.1,0.5
		l0.3,0.3l0.2,0.1 M185.75,178.95h-0.4l-0.4,0.1l-0.5,0.4l-0.4,0.6l-0.3,0.6l-0.1,0.6l0.1,0.5l0.3,0.3 M186.05,179.15l-0.2-0.1
		l-0.4-0.1l-0.5,0.2l-0.4,0.4l-0.4,0.5l-0.3,0.6l-0.1,0.6l0.1,0.5l0.3,0.4h0.1 M186.25,179.25l-0.4-0.1l-0.5,0.2l-0.5,0.4l-0.4,0.5
		l-0.3,0.6l-0.1,0.7l0.1,0.4l0.3,0.4 M186.45,179.45l-0.1-0.2h-0.4l-0.5,0.1l-0.5,0.4l-0.4,0.6l-0.3,0.6l-0.1,0.6l0.1,0.5l0.3,0.3
		l0.2,0.1 M186.65,179.45h-0.4l-0.5,0.1l-0.4,0.4l-0.4,0.6l-0.3,0.6l-0.1,0.6l0.1,0.5l0.3,0.3 M186.95,179.65l-0.2-0.1l-0.4-0.1
		l-0.5,0.2l-0.5,0.4l-0.4,0.5l-0.2,0.6l-0.1,0.7l0.1,0.5l0.2,0.3h0.2 M187.15,179.75l-0.4-0.1l-0.5,0.2l-0.5,0.4l-0.4,0.5l-0.3,0.7
		l-0.1,0.6l0.1,0.5l0.3,0.3 M187.35,179.95l-0.1-0.1l-0.4-0.1l-0.5,0.1l-0.5,0.4l-0.4,0.6l-0.3,0.6l-0.1,0.6l0.1,0.5l0.3,0.3
		l0.2,0.1 M187.55,180.05l-0.4-0.1l-0.5,0.2l-0.4,0.3l-0.5,0.6l-0.2,0.6l-0.1,0.6l0.1,0.5l0.2,0.3 M187.85,180.15l-0.2-0.1l-0.4-0.1
		l-0.5,0.2l-0.5,0.4l-0.4,0.5l-0.2,0.7l-0.1,0.6l0.1,0.5l0.2,0.3l0.2,0.1 M188.05,180.25l-0.4-0.1l-0.5,0.2l-0.5,0.4l-0.4,0.5
		l-0.3,0.7l-0.1,0.6l0.1,0.5l0.3,0.3 M188.25,180.45l-0.2-0.1l-0.4-0.1l-0.4,0.2l-0.5,0.3l-0.4,0.6l-0.3,0.6l-0.1,0.6l0.1,0.5
		l0.3,0.3l0.2,0.1 M188.45,180.55l-0.4-0.1l-0.5,0.2l-0.5,0.4l-0.4,0.5l-0.2,0.6l-0.1,0.6l0.1,0.5l0.2,0.3 M188.75,180.75l-0.2-0.2
		l-0.4-0.1l-0.5,0.2l-0.5,0.4l-0.4,0.6l-0.2,0.6l-0.1,0.6l0.1,0.5l0.2,0.3l0.2,0.1 M188.95,180.75h-0.5l-0.4,0.1l-0.5,0.4l-0.4,0.6
		l-0.3,0.6l-0.1,0.6l0.1,0.5l0.3,0.3 M189.15,180.95l-0.2-0.1l-0.4-0.1l-0.4,0.2l-0.5,0.4l-0.4,0.5l-0.3,0.6l-0.1,0.6l0.1,0.5
		l0.3,0.4h0.2 M189.35,181.05l-0.4-0.1l-0.5,0.2l-0.5,0.4l-0.4,0.5l-0.2,0.6l-0.1,0.6l0.1,0.5l0.2,0.4 M189.55,181.25l-0.1-0.2h-0.4
		l-0.5,0.1l-0.5,0.4l-0.4,0.6l-0.3,0.6l-0.1,0.6l0.1,0.5l0.3,0.3l0.2,0.1 M189.75,181.25h-0.4l-0.4,0.1l-0.5,0.4l-0.4,0.6l-0.3,0.6
		l-0.1,0.6l0.1,0.5l0.3,0.3 M190.05,181.45l-0.2-0.1l-0.4-0.1l-0.5,0.2l-0.4,0.4l-0.4,0.5l-0.3,0.6l-0.1,0.7l0.1,0.5l0.3,0.3h0.2
		 M190.25,181.55l-0.4-0.1l-0.5,0.2l-0.5,0.4l-0.4,0.5l-0.3,0.7l-0.1,0.6l0.1,0.5l0.3,0.3 M190.45,181.75l-0.1-0.1l-0.4-0.1
		l-0.5,0.1l-0.5,0.4l-0.4,0.6l-0.3,0.6l-0.1,0.6l0.1,0.5l0.3,0.3l0.2,0.1 M190.65,181.85l-0.4-0.1l-0.5,0.1l-0.4,0.4l-0.4,0.6
		l-0.3,0.6l-0.1,0.6l0.1,0.5l0.3,0.3 M190.95,181.95l-0.2-0.1l-0.4-0.1l-0.5,0.2l-0.4,0.4l-0.5,0.5l-0.2,0.7l-0.1,0.6l0.1,0.5
		l0.2,0.3l0.2,0.1 M191.15,182.05l-0.4-0.1l-0.5,0.2l-0.5,0.4l-0.4,0.5l-0.3,0.7l-0.1,0.6l0.1,0.5l0.3,0.3 M191.35,182.25l-0.1-0.1
		l-0.4-0.1l-0.5,0.2l-0.5,0.3l-0.4,0.6l-0.3,0.6l-0.1,0.6l0.1,0.5l0.3,0.3l0.2,0.1 M191.55,182.35l-0.4-0.1l-0.5,0.2l-0.4,0.3
		l-0.5,0.6l-0.2,0.6l-0.1,0.6l0.1,0.5l0.2,0.3 M191.85,182.55l-0.2-0.2l-0.4-0.1l-0.5,0.2l-0.5,0.4l-0.4,0.5l-0.2,0.7l-0.1,0.6
		l0.1,0.5l0.2,0.3l0.2,0.1 M192.05,182.55h-0.4l-0.5,0.1l-0.5,0.4l-0.4,0.6l-0.3,0.6l-0.1,0.6l0.1,0.5l0.3,0.3 M192.25,182.75
		l-0.1-0.1l-0.5-0.1l-0.4,0.2l-0.5,0.4l-0.4,0.5l-0.3,0.6l-0.1,0.6l0.1,0.5l0.3,0.4h0.2 M192.45,182.85l-0.4-0.1l-0.5,0.2l-0.5,0.4
		l-0.4,0.5l-0.2,0.6l-0.1,0.6l0.1,0.5l0.2,0.4 M192.75,183.05l-0.2-0.2h-0.4l-0.5,0.1l-0.5,0.4l-0.4,0.6l-0.2,0.6l-0.1,0.6l0.1,0.5
		l0.2,0.3l0.2,0.1 M192.95,183.05h-0.5l-0.4,0.1l-0.5,0.4l-0.4,0.6l-0.3,0.6l-0.1,0.6l0.1,0.5l0.3,0.3 M193.15,183.25l-0.2-0.1
		l-0.4-0.1l-0.4,0.2l-0.5,0.4l-0.4,0.5l-0.3,0.6l-0.1,0.7l0.1,0.5l0.3,0.3h0.2 M193.35,183.35l-0.4-0.1l-0.5,0.2l-0.5,0.4l-0.4,0.5
		l-0.2,0.7l-0.1,0.6l0.1,0.5l0.2,0.3 M193.55,183.55l-0.1-0.1l-0.4-0.1l-0.5,0.1l-0.5,0.4l-0.4,0.6l-0.3,0.6v0.6v0.5l0.3,0.3
		l0.2,0.1 M193.75,183.65l-0.4-0.1l-0.4,0.1l-0.5,0.4l-0.4,0.6l-0.3,0.6l-0.1,0.6l0.1,0.5l0.3,0.3 M194.05,183.75l-0.2-0.1l-0.4-0.1
		l-0.5,0.2l-0.4,0.4l-0.4,0.5l-0.3,0.7l-0.1,0.6l0.1,0.5l0.3,0.3l0.2,0.1 M194.25,183.85l-0.4-0.1l-0.5,0.2l-0.5,0.4l-0.4,0.5
		l-0.3,0.7v0.6v0.5l0.3,0.3 M194.45,184.05l-0.1-0.1l-0.4-0.1l-0.5,0.2l-0.5,0.3l-0.4,0.6l-0.3,0.6l-0.1,0.6l0.1,0.5l0.3,0.3
		l0.2,0.1 M194.65,184.15l-0.4-0.1l-0.5,0.2l-0.4,0.3l-0.4,0.6l-0.3,0.6l-0.1,0.6l0.1,0.5l0.3,0.3 M194.95,184.35l-0.2-0.2l-0.4-0.1
		l-0.5,0.2l-0.4,0.4l-0.4,0.5l-0.3,0.7l-0.1,0.6l0.1,0.5l0.3,0.3l0.1,0.1 M195.15,184.35h-0.4l-0.5,0.1l-0.5,0.4l-0.4,0.6l-0.3,0.6
		l-0.1,0.6l0.1,0.5l0.3,0.3 M195.35,184.55l-0.1-0.1l-0.4-0.1l-0.5,0.2l-0.5,0.4l-0.4,0.5l-0.3,0.6l-0.1,0.6l0.1,0.5l0.3,0.3
		l0.2,0.1 M195.55,184.65l-0.4-0.1l-0.5,0.2l-0.4,0.4l-0.4,0.5l-0.3,0.6l-0.1,0.6l0.1,0.5l0.3,0.4 M195.85,184.85l-0.2-0.2h-0.4
		l-0.5,0.1l-0.5,0.4l-0.4,0.6l-0.2,0.6l-0.1,0.6l0.1,0.5l0.2,0.3l0.2,0.1 M196.05,184.85h-0.4l-0.5,0.1l-0.5,0.4l-0.4,0.6l-0.3,0.6
		l-0.1,0.6l0.1,0.5l0.3,0.3 M196.25,185.05l-0.1-0.1l-0.4-0.1l-0.5,0.2l-0.5,0.4l-0.4,0.5l-0.3,0.6l-0.1,0.7l0.1,0.5l0.3,0.3h0.2
		 M196.45,185.15l-0.4-0.1l-0.5,0.2l-0.5,0.4l-0.4,0.5l-0.2,0.6l-0.1,0.7l0.1,0.5l0.2,0.3 M196.75,185.35l-0.2-0.1l-0.4-0.1
		l-0.5,0.1l-0.5,0.4l-0.4,0.6l-0.2,0.6l-0.1,0.6l0.1,0.5l0.2,0.3l0.2,0.1 M196.95,185.45l-0.4-0.1l-0.5,0.1l-0.5,0.4l-0.4,0.6
		l-0.3,0.6l-0.1,0.6l0.1,0.5l0.3,0.3 M197.15,185.55l-0.2-0.1l-0.4-0.1l-0.4,0.2l-0.5,0.4l-0.4,0.5l-0.3,0.7l-0.1,0.6l0.1,0.5
		l0.3,0.3h0.2 M197.35,185.65l-0.4-0.1l-0.5,0.2l-0.5,0.4l-0.4,0.5l-0.2,0.7l-0.1,0.6l0.1,0.5l0.2,0.3 M197.65,185.85l-0.2-0.1
		l-0.4-0.1l-0.5,0.2l-0.5,0.3l-0.4,0.6l-0.3,0.6v0.6v0.5l0.3,0.3l0.2,0.1 M197.75,185.95l-0.4-0.1l-0.4,0.2l-0.5,0.3l-0.4,0.6
		l-0.3,0.6l-0.1,0.6l0.1,0.5l0.3,0.3 M198.05,186.15l-0.2-0.2l-0.4-0.1l-0.4,0.2l-0.5,0.4l-0.4,0.5l-0.3,0.7l-0.1,0.6l0.1,0.5
		l0.3,0.3l0.2,0.1 M200.95,189.25l-0.5,0.7 M200.45,189.95l-0.4,0.5 M200.95,188.65v-0.1 M200.95,189.25v-0.6 M200.95,189.25
		l1.1,0.7 M198.05,186.15l-0.2-0.1l-0.5,0.2l-0.5,0.4l-0.4,0.6l-0.2,0.6l-0.1,0.6l0.1,0.5l0.1,0.2 M200.05,190.65l1,0.6
		 M200.95,188.65v-0.1 M200.05,190.35v-0.1l0.2-0.1l0.1-0.1l0.1-0.1 M200.45,189.95l0.1-0.2l0.1-0.1l0.1-0.2l0.1-0.2v-0.1l0.1-0.2
		v-0.2v-0.1 M201.05,188.45l1,0.1 M202.05,189.95v-1.4 M202.05,189.95l-1,1.3 M201.05,191.25l-1-0.1 M200.05,189.75v1.4
		 M201.05,188.45l-1,1.3 M200.15,185.65l-0.6-0.2l-0.8,0.2l-0.8,0.6l-0.8,0.8l-0.5,1.1l-0.3,1v1l0.3,0.7l0.3,0.3 M202.55,187.05
		L202.55,187.05l0.5,0.6l0.1,0.8 M199.35,192.55l-0.4-0.3l-0.3-0.7v-1l0.3-1l0.6-1.1l0.7-0.8l0.3-0.2 M203.15,188.65l-0.1-0.9
		l-0.5-0.5l-0.7-0.2l-0.8,0.3l-0.8,0.7l-0.7,0.9l-0.5,1.1l-0.1,1l0.1,0.9l0.5,0.5l0.7,0.1l0.8-0.3l0.8-0.6l0.7-0.9l0.5-1.1
		L203.15,188.65 M0.25,76.45v-0.1l0.2-1l0.4-1.1l0.7-0.9l0.9-0.6v-0.1 M5.85,75.15l-0.4-0.1l-0.4,0.2l-0.5,0.4l-0.4,0.5l-0.3,0.6
		l-0.1,0.6l0.1,0.5l0.3,0.4 M5.35,78.85h-0.2l-0.2-0.3l-0.1-0.5l0.1-0.6l0.2-0.7l0.5-0.5l0.4-0.4l0.5-0.2l0.4,0.1l0.2,0.1
		 M5.55,79.05L5.55,79.05l-0.3-0.3l-0.1-0.5l0.1-0.6l0.3-0.7l0.4-0.5l0.5-0.4l0.5-0.2l0.4,0.1 M5.85,79.15l-0.2-0.1l-0.3-0.3
		l-0.1-0.5l0.1-0.6l0.3-0.6l0.4-0.6l0.5-0.3l0.5-0.2l0.4,0.1l0.1,0.1 M4.15,72.45l-0.3-0.1h-0.7l-0.8,0.4l-0.8,0.7l-0.7,1l-0.4,1.1
		l-0.2,1 M0.25,76.55l0.2,0.8l0.4,0.6l0.1,0.1 M4.35,78.35l-0.4-0.1l-0.3-0.3l-0.1-0.6l0.1-0.6l0.3-0.7l0.4-0.6l0.6-0.4l0.5-0.2
		l0.4,0.1l0.3,0.3 M5.35,78.85l-0.6,0.5l-0.8,0.2l-0.7-0.2l-0.4-0.6l-0.2-0.8 M2.65,77.95l0.2-1.1l0.4-1l0.7-1l0.8-0.7l0.8-0.4h0.7
		l0.6,0.4l0.3,0.7v1 M5.95,79.25L5.95,79.25l-0.2-0.3l-0.1-0.5l0.1-0.6l0.2-0.6l0.5-0.6l0.4-0.3l0.5-0.2l0.4,0.1 M6.25,79.45
		l-0.2-0.1l-0.2-0.3l-0.1-0.5l0.1-0.6l0.2-0.7l0.4-0.5l0.5-0.4l0.5-0.2l0.4,0.1l0.2,0.2 M6.45,79.55L6.45,79.55l-0.3-0.3l-0.1-0.5
		l0.1-0.6l0.3-0.7l0.4-0.5l0.5-0.4l0.5-0.2l0.4,0.1 M6.75,79.65l-0.2-0.1l-0.3-0.3l-0.1-0.5l0.1-0.6l0.3-0.6l0.4-0.5l0.5-0.4
		l0.4-0.2l0.5,0.1l0.1,0.1 M6.85,79.85L6.85,79.85l-0.2-0.4l-0.1-0.5l0.1-0.6l0.2-0.6l0.4-0.5l0.5-0.4l0.5-0.2l0.4,0.1 M7.15,79.95
		l-0.2-0.1l-0.2-0.3l-0.1-0.5l0.1-0.6l0.2-0.6l0.4-0.6l0.5-0.4l0.5-0.1h0.4l0.2,0.2 M7.35,80.05L7.35,80.05l-0.3-0.3l-0.1-0.5
		l0.1-0.6l0.3-0.6l0.4-0.6l0.5-0.4l0.4-0.1h0.5 M7.65,80.15h-0.2l-0.3-0.4l-0.1-0.5l0.1-0.6l0.3-0.6l0.4-0.5l0.5-0.4l0.4-0.2
		l0.4,0.1l0.2,0.1 M7.75,80.35L7.75,80.35l-0.2-0.3l-0.1-0.5l0.1-0.7l0.2-0.6l0.4-0.5l0.5-0.4l0.5-0.2l0.4,0.1 M8.05,80.45l-0.2-0.1
		l-0.3-0.3v-0.5v-0.6l0.3-0.6l0.4-0.6l0.5-0.4l0.5-0.1h0.4l0.1,0.2 M8.25,80.55L8.25,80.55l-0.3-0.3l-0.1-0.5l0.1-0.6l0.3-0.6
		l0.4-0.6l0.5-0.4l0.4-0.1l0.4,0.1 M8.55,80.65h-0.2l-0.3-0.3l-0.1-0.5l0.1-0.6l0.3-0.7l0.4-0.5l0.4-0.4l0.5-0.2l0.4,0.1l0.2,0.1
		 M8.65,80.85L8.65,80.85l-0.3-0.3v-0.5v-0.6l0.3-0.7l0.4-0.5l0.5-0.4l0.5-0.2l0.4,0.1 M8.95,80.95l-0.2-0.1l-0.3-0.3l-0.1-0.5
		l0.1-0.6l0.3-0.6l0.4-0.6l0.5-0.4l0.5-0.1l0.4,0.1l0.1,0.1 M9.15,81.05L9.15,81.05l-0.3-0.3l-0.1-0.5l0.1-0.6l0.3-0.6l0.4-0.6
		l0.4-0.3l0.5-0.2l0.4,0.1 M9.35,81.25l-0.1-0.1l-0.3-0.3l-0.1-0.5l0.1-0.6l0.3-0.7l0.4-0.5l0.4-0.4l0.5-0.2l0.4,0.1l0.2,0.2
		 M9.55,81.35L9.55,81.35l-0.3-0.3l-0.1-0.5l0.1-0.6l0.3-0.7l0.4-0.5l0.5-0.4l0.5-0.2l0.4,0.1 M9.85,81.45l-0.2-0.1l-0.3-0.3
		l-0.1-0.5l0.1-0.6l0.3-0.6l0.4-0.5l0.5-0.4l0.5-0.2l0.4,0.1l0.1,0.1 M10.05,81.55L10.05,81.55l-0.3-0.3l-0.1-0.5l0.1-0.6l0.3-0.6
		l0.4-0.5l0.4-0.4l0.5-0.2l0.4,0.1 M10.25,81.75l-0.2-0.1l-0.2-0.3l-0.1-0.5l0.1-0.6l0.2-0.6l0.4-0.6l0.5-0.4l0.5-0.1h0.4l0.2,0.2
		 M10.45,81.85L10.45,81.85l-0.3-0.3l-0.1-0.5l0.1-0.6l0.3-0.6l0.4-0.6l0.5-0.4l0.5-0.1h0.4 M10.75,81.95h-0.2l-0.3-0.4l-0.1-0.5
		l0.1-0.6l0.3-0.6l0.4-0.5l0.5-0.4l0.5-0.2l0.4,0.1l0.1,0.1 M10.85,82.15L10.85,82.15l-0.2-0.3l-0.1-0.5l0.1-0.7l0.2-0.6l0.4-0.5
		l0.5-0.4l0.5-0.2l0.4,0.1 M11.15,82.25l-0.2-0.1l-0.2-0.3l-0.1-0.5l0.1-0.6l0.2-0.6l0.4-0.6l0.5-0.4l0.5-0.1h0.4l0.2,0.2
		 M11.35,82.35L11.35,82.35l-0.3-0.3l-0.1-0.5l0.1-0.6l0.3-0.6l0.4-0.6l0.5-0.4l0.5-0.1l0.4,0.1 M11.65,82.45h-0.2l-0.3-0.3
		l-0.1-0.5l0.1-0.6l0.3-0.7l0.4-0.5l0.5-0.4l0.4-0.2l0.4,0.1l0.2,0.1 M11.75,82.65L11.75,82.65l-0.2-0.3l-0.1-0.5l0.1-0.6l0.2-0.7
		l0.4-0.5l0.5-0.4l0.5-0.2l0.4,0.1 M12.05,82.75l-0.2-0.1l-0.3-0.3v-0.5v-0.6l0.3-0.6l0.4-0.6l0.5-0.4l0.5-0.1l0.4,0.1l0.2,0.1
		 M12.25,82.85L12.25,82.85l-0.3-0.3l-0.1-0.5l0.1-0.6l0.3-0.6l0.4-0.6l0.5-0.3l0.4-0.2l0.4,0.1 M12.55,83.05l-0.2-0.1l-0.3-0.3
		l-0.1-0.5l0.1-0.6l0.3-0.7l0.4-0.5l0.5-0.4l0.4-0.2l0.4,0.1l0.2,0.2 M12.65,83.15L12.65,83.15l-0.2-0.3l-0.1-0.5l0.1-0.6l0.2-0.7
		l0.4-0.5l0.5-0.4l0.5-0.2l0.4,0.1 M12.95,83.25l-0.2-0.1l-0.3-0.3l-0.1-0.5l0.1-0.6l0.3-0.6l0.4-0.6l0.5-0.3l0.5-0.2l0.4,0.1
		l0.1,0.1 M13.15,83.35L13.15,83.35l-0.3-0.3l-0.1-0.5l0.1-0.6l0.3-0.6l0.4-0.5l0.5-0.4l0.4-0.2l0.4,0.1 M13.45,83.55l-0.2-0.1
		l-0.3-0.3l-0.1-0.5l0.1-0.6l0.3-0.6l0.4-0.6l0.4-0.4l0.5-0.1h0.4l0.2,0.2 M13.55,83.65L13.55,83.65l-0.3-0.3l-0.1-0.5l0.1-0.6
		l0.3-0.6l0.4-0.6l0.5-0.4l0.5-0.1h0.4 M13.85,83.75h-0.2l-0.3-0.4l-0.1-0.5l0.1-0.6l0.3-0.6l0.4-0.5l0.5-0.4l0.5-0.2l0.4,0.1
		l0.1,0.1 M14.05,83.95L14.05,83.95l-0.3-0.4l-0.1-0.4l0.1-0.7l0.3-0.6l0.4-0.5l0.4-0.4l0.5-0.2l0.4,0.1 M14.25,84.05l-0.2-0.1
		l-0.2-0.3l-0.1-0.5l0.1-0.6l0.2-0.6l0.5-0.6l0.4-0.4l0.5-0.1h0.4l0.2,0.2 M14.45,84.15L14.45,84.15l-0.3-0.3l-0.1-0.5l0.1-0.6
		l0.3-0.6l0.4-0.6l0.5-0.4l0.5-0.1h0.4 M14.75,84.25h-0.2l-0.3-0.3l-0.1-0.5l0.1-0.7l0.3-0.6l0.4-0.5l0.5-0.4l0.5-0.2l0.4,0.1
		l0.1,0.1 M14.85,84.45L14.85,84.45l-0.2-0.3l-0.1-0.5l0.1-0.6l0.2-0.7l0.5-0.5l0.4-0.4l0.5-0.2l0.4,0.1 M15.15,84.55l-0.2-0.1
		l-0.2-0.3l-0.1-0.5l0.1-0.6l0.2-0.6l0.4-0.6l0.5-0.4l0.5-0.1l0.4,0.1l0.2,0.1 M15.35,84.65L15.35,84.65l-0.3-0.3l-0.1-0.5l0.1-0.6
		l0.3-0.6l0.4-0.6l0.5-0.3l0.5-0.2l0.4,0.1 M15.65,84.85l-0.2-0.1l-0.3-0.3l-0.1-0.5l0.1-0.6l0.3-0.7l0.4-0.5l0.5-0.4l0.4-0.2
		l0.5,0.1l0.1,0.1 M15.75,84.95L15.75,84.95l-0.2-0.3l-0.1-0.5l0.1-0.6l0.2-0.7l0.4-0.5l0.5-0.4l0.5-0.2l0.4,0.1 M16.05,85.05
		l-0.2-0.1l-0.2-0.3l-0.1-0.5l0.1-0.6l0.2-0.6l0.4-0.6l0.5-0.3l0.5-0.2l0.4,0.1l0.2,0.1 M16.25,85.15L16.25,85.15l-0.3-0.3l-0.1-0.5
		l0.1-0.6l0.3-0.6l0.4-0.5l0.5-0.4l0.4-0.2l0.5,0.1 M16.55,85.35l-0.2-0.1l-0.3-0.3l-0.1-0.5l0.1-0.6l0.3-0.6l0.4-0.6l0.5-0.4
		l0.4-0.2l0.4,0.1l0.2,0.2 M16.65,85.45L16.65,85.45l-0.2-0.3l-0.1-0.5l0.1-0.6l0.2-0.6l0.4-0.6l0.5-0.4l0.5-0.1h0.4 M16.95,85.55
		h-0.2l-0.3-0.4l-0.1-0.5l0.1-0.6l0.3-0.6l0.4-0.5l0.5-0.4l0.5-0.2l0.4,0.1l0.1,0.1 M17.15,85.75L17.15,85.75l-0.3-0.4l-0.1-0.5
		l0.1-0.6l0.3-0.6l0.4-0.5l0.5-0.4l0.4-0.2l0.4,0.1 M17.45,85.85l-0.2-0.1l-0.3-0.3l-0.1-0.5l0.1-0.6l0.3-0.6l0.4-0.6l0.4-0.4
		l0.5-0.1h0.4l0.2,0.2 M17.55,85.95L17.55,85.95l-0.3-0.3l-0.1-0.5l0.1-0.6l0.3-0.6l0.4-0.6l0.5-0.4l0.5-0.1h0.4 M17.85,86.05h-0.2
		l-0.3-0.3l-0.1-0.5l0.1-0.7l0.3-0.6l0.4-0.5l0.5-0.4l0.5-0.2l0.4,0.1l0.1,0.1 M18.05,86.25L18.05,86.25l-0.3-0.3l-0.1-0.5l0.1-0.6
		l0.3-0.7l0.4-0.5l0.4-0.4l0.5-0.2l0.4,0.1 M18.25,86.35l-0.1-0.1l-0.3-0.3l-0.1-0.5l0.1-0.6l0.3-0.6l0.4-0.6l0.4-0.4l0.5-0.1
		l0.4,0.1l0.2,0.1 M18.45,86.45L18.45,86.45l-0.3-0.3l-0.1-0.5l0.1-0.6l0.3-0.6l0.4-0.6l0.5-0.4l0.5-0.1l0.4,0.1 M18.75,86.65
		l-0.2-0.1l-0.3-0.3l-0.1-0.5l0.1-0.6l0.3-0.7l0.4-0.5l0.5-0.4l0.5-0.2l0.4,0.1l0.1,0.1 M18.95,86.75L18.95,86.75l-0.3-0.3l-0.1-0.5
		l0.1-0.6l0.3-0.7l0.4-0.5l0.4-0.4l0.5-0.2l0.4,0.1 M19.15,86.85l-0.2-0.1l-0.2-0.3l-0.1-0.5l0.1-0.6l0.2-0.6l0.4-0.6l0.5-0.3
		l0.5-0.2l0.4,0.1l0.2,0.1 M19.35,86.95L19.35,86.95l-0.3-0.3l-0.1-0.5l0.1-0.6l0.3-0.6l0.4-0.6l0.5-0.3l0.5-0.2l0.4,0.1
		 M19.65,87.15l-0.2-0.1l-0.3-0.3l-0.1-0.5l0.1-0.6l0.3-0.7l0.4-0.5l0.5-0.4l0.5-0.2l0.4,0.1l0.1,0.2 M19.75,87.25L19.75,87.25
		l-0.2-0.3l-0.1-0.5l0.1-0.6l0.2-0.6l0.4-0.6l0.5-0.4l0.5-0.1h0.4 M20.65,87.15L20.65,87.15l-0.4,0.2l-0.4-0.1l-0.3-0.3l-0.1-0.5
		 M19.45,86.45l0.1-0.6l0.3-0.6l0.4-0.6l0.4-0.4l0.5-0.1h0.4l0.3,0.4l0.1,0.5 M19.95,86.45l0.1-0.5l0.2-0.5l0.3-0.4l0.4-0.3l0.4-0.2
		l0.3,0.1l0.2,0.2l0.1,0.4l-0.1,0.5l-0.2,0.5l-0.3,0.5l-0.4,0.3l-0.4,0.1l-0.3-0.1l-0.2-0.2L19.95,86.45 M152.55,77.15L152.55,77.15
		l-0.2-0.3 M152.35,76.85l0.1-0.4l0.2-0.4l0.3-0.3l0.4-0.2l0.4-0.1l0.3,0.1l0.2,0.2 M148.35,76.55l-0.2-0.1l-0.3,0.2l-0.3,0.2
		l-0.3,0.3l-0.2,0.4v0.4v0.3l0.2,0.2 M168.75,85.95v0.1 M45.15,21.75L45.15,21.75 M54.85,24.75l0.1-0.4l0.1-0.4l0.3-0.3l0.3-0.3
		l0.3-0.1l0.2,0.1l0.2,0.2l0.1,0.3l-0.1,0.4l-0.2,0.4l-0.2,0.3l-0.3,0.3l-0.3,0.1l-0.3-0.1l-0.1-0.2L54.85,24.75 M51.05,25.15v-0.3
		l-0.2-0.3l-0.3-0.1h-0.4l-0.4,0.1l-0.4,0.3l-0.2,0.3l-0.1,0.4v0.4l0.2,0.2l0.3,0.2h0.4l0.4-0.2l0.3-0.2l0.3-0.4L51.05,25.15
		 M174.35,90.75l-0.5,1.1l-1.4,1l-0.6,0.3 M148.45,96.05l-0.5-2.1v-0.1 M154.35,90.75l0.1-0.1l0.1-0.1l0.1,0.1l0.1,0.1v0.2
		 M154.75,90.95v0.5 M164.45,97.45l0.1-0.1l0.1-0.1l0.1-0.1h0.1l0.1-0.1l0.1-0.1 M165.05,96.95l0.1-0.1h0.1h0.1h0.1l0.1,0.1l0.1,0.1
		v0.1 M165.65,97.15v0.6 M165.65,97.75l0.1,0.9l0.5,0.6l0.6,0.3h0.5 M170.65,94.05L170.65,94.05l0.1-0.1l0.1-0.2l0.1-0.1v-0.1
		l0.2-0.1h0.1 M171.25,93.45v-0.1h0.1h0.1l0.1-0.1h0.1l0.1-0.1h0.1 M155.45,100.15l-3.3-0.8l-2.5-1.7l-1.2-1.6 M164.45,97.45
		l-2.3,1.3l-2.8,1l-2.9,0.4h-1 M163.65,91.55l0.4-0.2l0.3-0.3l0.4-0.2l0.4-0.2l0.4-0.2l0.3-0.2l0.4-0.2l0.4-0.2 M155.45,87.05
		l-0.9,0.9l-0.6,1.2l0.1,1.3l0.8,1.1l1.3,0.8l1.6,0.5h1.8l1.9-0.3l1.7-0.7l0.5-0.3 M171.85,90.55l0.7-0.5 M172.15,85.35l-0.2-0.2
		l-2.9-1.5l-2.3-0.9 M155.45,83.55l-0.4,0.2l-0.9,0.5l-1,0.6l-0.9,0.6l-0.9,0.6l-0.9,0.6 M150.45,86.65l-1.7,1.8l-0.8,2l0.2,2.2
		l0.3,0.7 M148.45,93.35l1.9,2.2l2.8,1.4l2.3,0.4 M155.45,97.35l2.9-0.1l2.8-0.7l2.6-1.3l0.7-0.5 M171.85,90.55l-0.9,0.4l-1,0.4
		l-0.9,0.5l-0.9,0.5l-0.9,0.6l-1,0.6l-0.9,0.6l-0.9,0.6 M53.45,24.35l-0.4,0.2 M55.45,22.15l-0.2,0.6 M29.65,27.45l-0.5-2.1v-0.1
		 M35.55,22.15l0.1-0.1h0.1h0.1l0.1,0.1v0.2 M35.95,22.35v0.5 M46.25,28.35l-0.1,0.1l-0.1,0.1h-0.1l-0.1,0.1h-0.1v0.1l-0.1,0.1
		 M46.85,28.65v-0.2h-0.1v-0.1l-0.1-0.1h-0.1h-0.1h-0.1l-0.1,0.1 M46.85,29.15v-0.5 M49.95,30.15l-0.2,0.2l-0.9,0.5l-0.8,0.1
		l-0.6-0.3l-0.5-0.6l-0.1-0.9 M51.85,26.25l-0.1,0.8 M51.85,25.75v0.5 M52.35,24.85h-0.1l-0.1,0.1l-0.1,0.1v0.1l-0.1,0.2l-0.1,0.1
		v0.1v0.2 M53.05,24.55h-0.1l-0.1,0.1h-0.1l-0.1,0.1h-0.1h-0.1l-0.1,0.1 M36.65,31.55l-3.3-0.8l-2.5-1.7l-1.2-1.6 M45.65,28.85
		l-2.4,1.3l-2.7,1l-2.9,0.4h-1 M44.85,22.95l0.3-0.2l0.4-0.2l0.4-0.3h0.1 M36.65,18.45l-0.9,0.9l-0.6,1.2l0.1,1.3l0.8,1.1l1.2,0.8
		l1.7,0.5h1.8l1.9-0.3l1.7-0.7l0.5-0.3 M49.45,19.25l-0.1-0.6l-0.7-0.9l-0.7-0.4 M31.65,18.05l-1.7,1.8l-0.8,2l0.2,2.2l0.3,0.7
		 M29.65,24.75l1.9,2.2l2.8,1.4l2.3,0.4 M36.65,28.75l2.8-0.1l2.9-0.7l2.5-1.3l0.8-0.5 M49.95,23.45l0.3-0.2l0.7-0.3 M45.65,26.15
		l0.9-0.6l0.9-0.6l0.5-0.3 M53.35,21.75l1.3-0.8l0.8-1.1l-0.2-1.2l-0.3-0.5 M54.95,18.15l-1.8-1.6l-2.9-1.5l-2.3-0.9 M31.65,18.05
		l0.9-0.6l0.9-0.6l0.9-0.6l0.5-0.3 M30.65,19.05l0.2-0.7l0.4-1l0.7-1l0.8-0.6l0.1-0.1 M34.55,15.45l-0.3-0.1h-0.7l-0.8,0.4l-0.8,0.8
		l-0.7,0.9l-0.4,1.1l-0.1,0.5 M51.05,30.15L51.05,30.15l-0.4,0.2l-0.5-0.1l-0.2-0.3l-0.1-0.5 M49.85,29.45l0.1-0.6l0.2-0.6l0.5-0.6
		l0.4-0.4l0.5-0.1l0.4,0.1l0.3,0.3l0.1,0.5 M50.35,29.45l0.1-0.5l0.2-0.5l0.3-0.4l0.4-0.3l0.4-0.2l0.3,0.1l0.2,0.3l0.1,0.4l-0.1,0.4
		l-0.2,0.5l-0.3,0.5l-0.4,0.3l-0.4,0.1h-0.3l-0.2-0.3L50.35,29.45 M170.55,97.25l-0.5,0.6 M170.05,97.85l-0.4,0.5 M170.55,96.55
		v-0.1 M170.55,97.25v-0.7 M170.55,97.25l1.1,0.6 M169.65,98.55l1,0.6 M170.55,96.55v-0.1 M169.65,98.25L169.65,98.25l0.2-0.1
		l0.1-0.2l0.1-0.1 M170.05,97.85l0.1-0.1l0.1-0.2l0.1-0.2l0.1-0.1v-0.2l0.1-0.2v-0.2v-0.1 M170.65,96.35l1,0.1 M171.65,97.85v-1.4
		 M171.65,97.85l-1,1.3 M170.65,99.15l-1-0.1 M169.65,97.65v1.4 M170.65,96.35l-1,1.3 M169.75,93.55l-0.6-0.1l-0.8,0.2l-0.8,0.5
		l-0.8,0.9l-0.5,1l-0.3,1.1v0.9l0.3,0.7l0.3,0.3 M172.15,94.95L172.15,94.95l0.5,0.6l0.1,0.8 M168.95,100.45l-0.3-0.3l-0.3-0.7v-1
		l0.3-1l0.5-1.1l0.8-0.8l0.2-0.2 M172.75,96.55l-0.1-0.9l-0.5-0.5l-0.7-0.1l-0.8,0.3l-0.8,0.6l-0.7,0.9l-0.5,1.1l-0.1,1l0.1,0.9
		l0.5,0.5l0.7,0.2l0.8-0.3l0.8-0.7l0.7-0.9l0.5-1.1L172.75,96.55 M120.25,322.05l-0.1-0.1l-1.9-0.8 M118.25,321.15h-0.7l-2.1,0.1
		 M112.75,322.05l-0.8,1.2 M115.45,321.25l-0.7,0.2l-2,0.6 M117.95,325.45L117.95,325.45l-0.9-0.2l-0.9,0.1 M116.15,325.35l-0.6,0.1
		 M122.25,323.55l-2-1.5 M118.65,325.15v-0.1l-0.7-0.3l-0.9-0.2l-0.9,0.1 M116.15,324.65l-0.8,0.2l-0.5,0.3 M118.15,325.45l-0.2-0.1
		l-0.9-0.2h-0.9 M116.15,325.15l-0.8,0.3 M118.95,324.75l-0.3-0.4l-0.7-0.3l-0.9-0.2l-0.9,0.1 M116.15,323.95l-0.8,0.2l-0.6,0.4
		l-0.2,0.2 M118.75,325.05l-0.1-0.1l-0.7-0.3l-0.9-0.2h-0.9 M116.15,324.45l-0.8,0.3l-0.6,0.3 M119.05,324.45v-0.3l-0.4-0.5
		l-0.7-0.3l-0.9-0.2h-0.9 M116.15,323.15l-0.8,0.3l-0.6,0.4l-0.3,0.5v0.1 M119.05,324.75l-0.4-0.5l-0.7-0.4l-0.9-0.1h-0.9
		 M116.15,323.75l-0.8,0.2l-0.6,0.4l-0.3,0.4 M115.75,325.55h-0.2l-0.7-0.4l-0.4-0.5v-0.5l0.3-0.5l0.6-0.4l0.8-0.2 M116.15,323.05
		h0.9l0.9,0.1l0.7,0.4l0.4,0.4v0.6l-0.3,0.5l-0.6,0.4l-0.4,0.1 M113.95,324.05v-0.2l0.3-0.6l0.8-0.5l1-0.3h1.1l1,0.2l0.9,0.4
		l0.4,0.6l0.1,0.4 M111.95,323.25v0.2l-0.7,1.8 M120.85,329.35l0.7-1.2 M121.55,328.15v-0.1l0.7-1.9 M122.25,323.55v2.6
		 M121.55,324.75v-0.1l0.7-1.1 M120.85,326.75l0.7-2 M120.85,329.35l-0.7,0.3l-2.1,0.5 M120.85,326.75v2.6 M120.85,326.75l-0.7-0.1
		l-2.1,0.1 M118.05,330.15l-0.8,0.1h-2 M118.05,326.75l-0.8,0.2l-2,0.6 M117.45,325.65l1-0.3l0.8-0.5l0.3-0.6l-0.1-0.6l-0.4-0.6
		l-0.9-0.4l-1-0.2h-1.1l-1,0.3l-0.8,0.5l-0.3,0.6l0.1,0.6l0.5,0.6l0.8,0.4l1,0.2H117.45 M118.05,326.75l-0.6,0.1h-0.7h-0.6l-0.7-0.1
		l-0.6-0.1l-0.6-0.1l-0.5-0.2l-0.5-0.3 M118.05,326.75l0.6-0.1l0.6-0.1l0.5-0.2l0.5-0.3l0.4-0.3l0.4-0.3l0.3-0.3l0.2-0.4
		 M121.55,324.75l0.1-0.3l0.1-0.4l-0.1-0.4l-0.1-0.4l-0.2-0.3l-0.3-0.4l-0.4-0.3l-0.4-0.2 M120.25,322.05l-0.5-0.3l-0.5-0.2
		l-0.6-0.2l-0.6-0.1l-0.6-0.1h-0.7h-0.6l-0.7,0.1 M115.45,321.25l-0.6,0.1l-0.6,0.2l-0.5,0.2l-0.5,0.3l-0.4,0.2l-0.4,0.3l-0.3,0.4
		l-0.2,0.3 M111.95,323.25l-0.1,0.4l-0.1,0.4l0.1,0.4l0.1,0.3l0.2,0.4l0.3,0.3l0.4,0.3l0.4,0.3 M111.25,325.25v2.6 M111.25,327.85
		l2,1.6 M113.25,329.45h0.1l1.9,0.8 M115.25,327.55v2.7 M113.25,326.05l0.1,0.1l1.9,1.4 M111.25,325.25l2,0.8 M48.05,280.65l0.5,0.2
		l1.6,0.7 M48.05,280.65l-2.7,0.1 M42.55,281.55l-0.7,1.2 M45.35,280.75h-0.2l-2.6,0.8 M47.85,284.95l-0.4-0.1l-0.9-0.1l-0.8,0.1
		l-0.4,0.1 M50.15,281.55l0.5,0.3l1.5,1.2 M48.45,284.65l-0.2-0.2l-0.8-0.3l-0.9-0.1l-0.8,0.1l-0.8,0.3l-0.2,0.2 M48.05,284.95
		l-0.6-0.2l-0.9-0.1l-0.8,0.1l-0.6,0.2 M48.85,284.25l-0.1-0.1l-0.5-0.4l-0.8-0.3l-0.9-0.1l-0.8,0.1l-0.8,0.3l-0.5,0.4l-0.1,0.1
		 M48.55,284.55l-0.3-0.2l-0.8-0.3l-0.9-0.1l-0.8,0.1l-0.8,0.3l-0.3,0.2 M48.95,283.95l-0.2-0.5l-0.5-0.4l-0.8-0.3l-0.9-0.1
		l-0.8,0.1l-0.8,0.3l-0.5,0.4l-0.2,0.5 M48.85,284.25l-0.1-0.2l-0.5-0.4l-0.8-0.3l-0.9-0.1l-0.8,0.1l-0.8,0.3l-0.5,0.4l-0.1,0.2
		 M41.85,282.75l-0.1,0.2l-0.7,1.8 M45.55,285.05l-0.6-0.3l-0.5-0.4l-0.2-0.5l0.2-0.5l0.5-0.5l0.8-0.3l0.8-0.1l0.9,0.1l0.8,0.3
		l0.5,0.5l0.2,0.5l-0.2,0.5l-0.5,0.4l-0.6,0.3 M43.75,283.55l0.2-0.6l0.6-0.5l1-0.4l1-0.1l1.1,0.1l1,0.4 M48.65,282.45l0.6,0.5
		l0.2,0.6 M50.65,288.85l0.7-1.2 M51.35,287.65l0.1-0.1l0.7-1.9 M52.15,283.05v2.6 M51.35,284.25l0.1-0.1l0.7-1.1 M41.05,284.75v2.6
		 M41.05,287.35l0.5,0.5l1.5,1.1 M43.05,288.95l0.6,0.3l1.5,0.5 M41.05,284.75l0.5,0.1l1.5,0.7 M50.65,286.25l0.7-2 M43.05,285.55
		l0.6,0.4l1.5,1.1 M48.65,282.35l-1-0.3l-1.1-0.2l-1,0.2l-1,0.3l-0.6,0.6l-0.2,0.6l0.2,0.6l0.6,0.5l1,0.4l1,0.1l1.1-0.1l1-0.4
		l0.6-0.5l0.2-0.6l-0.2-0.6L48.65,282.35 M50.15,281.55l0.4,0.2l0.3,0.3l0.3,0.4l0.2,0.3l0.2,0.4v0.4v0.4l-0.2,0.3 M50.15,281.55
		l-0.5-0.3l-0.6-0.2l-0.6-0.2l-0.6-0.1l-0.6-0.1h-0.7h-0.6l-0.6,0.1 M45.35,280.75l-0.6,0.1l-0.6,0.2l-0.6,0.2l-0.5,0.3l-0.4,0.2
		l-0.3,0.3l-0.3,0.4l-0.2,0.3 M41.85,282.75l-0.2,0.4v0.4v0.4l0.2,0.3l0.2,0.4l0.3,0.3l0.3,0.3l0.4,0.3 M43.05,285.55l0.5,0.3
		l0.6,0.2l0.6,0.1l0.6,0.1l0.6,0.1h0.6h0.7l0.6-0.1 M47.85,286.25l0.6-0.1l0.6-0.1l0.6-0.2l0.5-0.3l0.4-0.3l0.3-0.3l0.3-0.3l0.2-0.4
		 M45.15,287.05v2.7 M45.15,289.75l2.7-0.1 M47.85,289.65h0.2l2.6-0.8 M50.65,286.25v2.6 M47.85,286.25h0.2h2.6 M45.15,287.05
		l2.7-0.8 M13.15,214.45v-0.2 M14.85,213.25l-1.7,1 M13.15,214.25l1-0.4 M16.25,212.65h0.1l0.9-0.3 M14.85,213.25l1.4-0.6
		 M19.15,220.25l-1.5,0.6 M14.15,213.85h0.1l1.4-0.6 M19.15,220.25l-0.2-0.5l-0.3-1.4 M20.75,219.25l-1.6,1 M20.75,219.25l0.1-0.5
		l-0.1-1.6 M20.75,217.15l-0.1-0.5l-0.4-1.3 M18.65,218.35l-0.1-0.5v-1.6 M13.65,216.65L13.65,216.65l-0.4,0.2l-0.2,0.4v0.5l0.2,0.7
		l0.3,0.6l0.5,0.5l0.5,0.3h0.4l0.4-0.2 M17.25,212.35l-1.6,0.9 M15.65,213.25l1.2,1.7 M16.85,214.95l0.1,0.1l1.6,1.2 M20.25,215.35
		l-1.7,0.9 M19.05,213.65l0.1,0.1l1.1,1.6 M17.25,212.35l1.8,1.3 M12.65,216.35l-0.2,0.4v0.8l0.3,0.9l0.5,0.9l0.6,0.8l0.8,0.4
		l0.5,0.1 M15.35,219.45l-0.2-1l-0.5-0.9l-0.7-0.7l-0.7-0.4l-0.7-0.1l-0.5,0.2l-0.3,0.6l-0.1,0.9l0.3,0.9l0.5,0.9l0.7,0.7l0.7,0.5
		l0.7,0.1l0.5-0.3l0.3-0.6V219.45 M18.65,218.35v0.5v0.4l-0.1,0.4l-0.1,0.3l-0.1,0.3l-0.2,0.2l-0.3,0.2v0.1 M18.65,218.35l-0.1-0.4
		l-0.2-0.5l-0.1-0.4l-0.2-0.5l-0.3-0.4l-0.3-0.5l-0.3-0.4l-0.3-0.3 M14.15,213.85h0.3l0.3-0.1l0.3,0.1l0.4,0.1l0.3,0.2l0.4,0.2
		l0.4,0.3l0.3,0.3 M13.95,213.95l0.2-0.1 M42.45,231.05l0.3-0.8 M47.65,237.75h-1.1 M44.35,229.25l-1.6,1 M42.75,230.25l1.2,0.3
		 M46.15,229.35h0.1l1.1,0.4 M44.35,229.25l1.8,0.1 M47.65,237.75v-0.4v-1.1 M49.35,236.75l-1.7,1 M49.35,236.75l0.1-0.4l0.4-1.4
		 M49.85,234.95v-0.4v-1.1 M43.95,230.55l0.1,0.1h1.7 M47.65,236.25l0.1-0.5l0.4-1.3 M42.75,233.45h-0.1l-0.3,0.2l-0.2,0.4v0.6
		l0.2,0.6l0.4,0.6l0.4,0.5l0.5,0.3h0.5l0.3-0.2 M47.35,229.75l-1.6,0.9 M45.75,230.65l1,2 M46.75,232.65v0.2l1.4,1.6 M49.85,233.45
		l-1.7,1 M48.85,231.45l0.1,0.1l0.9,1.9 M47.35,229.75l1.5,1.7 M41.75,233.05l-0.2,0.6v0.8l0.3,1l0.5,0.8l0.7,0.7l0.7,0.4l0.5,0.1
		 M44.45,236.95v-0.9l-0.3-0.9l-0.6-0.9l-0.7-0.7l-0.7-0.4h-0.6l-0.5,0.3l-0.3,0.6v0.9l0.3,0.9l0.6,0.9l0.6,0.7l0.8,0.4h0.6l0.5-0.3
		L44.45,236.95 M47.65,236.25l-0.1,0.3l-0.1,0.4l-0.2,0.2l-0.2,0.2l-0.2,0.2 M47.65,236.25l0.1-0.4l-0.1-0.4v-0.5l-0.1-0.4l-0.2-0.5
		l-0.2-0.5l-0.2-0.4l-0.2-0.5 M43.95,230.55l0.4,0.1l0.3,0.2l0.4,0.2l0.4,0.2l0.3,0.3l0.3,0.3l0.4,0.4l0.3,0.4 M42.95,230.75h0.1
		l0.3-0.1l0.3-0.1h0.3 M33.25,233.25l-0.1-0.6l-0.2-0.6l-0.4-0.6l-0.5-0.4 M32.85,234.55L32.85,234.55l0.3-0.4l0.1-0.6
		 M33.25,233.55l-0.1-0.7l-0.3-0.8l-0.5-0.6l-0.6-0.5l-0.5-0.2l-0.5,0.1 M32.65,234.65l0.2-0.1l0.3-0.4l0.1-0.6l-0.1-0.7l-0.3-0.8
		l-0.5-0.6l-0.6-0.5l-0.5-0.2l-0.5,0.1l-0.2,0.1 M32.45,234.75L32.45,234.75l0.3-0.4l0.1-0.6l-0.1-0.7l-0.3-0.8l-0.5-0.6l-0.6-0.5
		l-0.5-0.2l-0.5,0.1 M32.15,234.85h0.2l0.3-0.4l0.1-0.6l-0.1-0.8l-0.3-0.7l-0.5-0.7l-0.6-0.4l-0.5-0.2l-0.5,0.1l-0.2,0.1
		 M31.95,235.05L31.95,235.05l0.3-0.4l0.1-0.6l-0.1-0.7l-0.3-0.8l-0.5-0.6l-0.6-0.5l-0.5-0.2l-0.5,0.1 M31.65,235.15l0.2-0.1
		l0.3-0.3l0.2-0.6l-0.2-0.8l-0.3-0.7l-0.5-0.7l-0.5-0.4l-0.6-0.2h-0.5l-0.2,0.2 M31.45,235.35L31.45,235.35l0.3-0.4l0.2-0.6
		l-0.2-0.7l-0.3-0.8l-0.5-0.7l-0.5-0.4l-0.6-0.2l-0.5,0.1 M31.15,235.45l0.2-0.1l0.4-0.4l0.1-0.6l-0.1-0.7l-0.4-0.7l-0.5-0.7
		l-0.5-0.5l-0.6-0.2l-0.5,0.1l-0.2,0.2 M30.95,235.55L30.95,235.55l0.4-0.3l0.1-0.6l-0.1-0.8l-0.4-0.7l-0.5-0.7l-0.5-0.4l-0.6-0.2
		l-0.5,0.1 M30.65,235.75l0.2-0.1l0.4-0.4l0.1-0.6l-0.1-0.7l-0.4-0.8l-0.4-0.6l-0.6-0.5l-0.6-0.2l-0.5,0.1l-0.2,0.2 M30.45,235.85
		L30.45,235.85l0.4-0.4l0.1-0.6l-0.1-0.7l-0.4-0.7l-0.4-0.7l-0.6-0.5l-0.6-0.2l-0.5,0.1 M30.15,236.05l0.3-0.1l0.3-0.4l0.1-0.6
		l-0.1-0.7l-0.3-0.8l-0.5-0.6l-0.6-0.5l-0.6-0.2l-0.5,0.1l-0.1,0.1 M30.05,236.15L30.05,236.15l0.3-0.4l0.1-0.6l-0.1-0.7l-0.3-0.8
		l-0.5-0.6l-0.6-0.5l-0.6-0.2l-0.5,0.1 M29.75,236.25h0.2l0.3-0.4l0.1-0.6l-0.1-0.7l-0.3-0.8l-0.5-0.7l-0.6-0.4l-0.6-0.2l-0.5,0.1
		l-0.1,0.1 M29.55,236.45L29.55,236.45l0.3-0.4l0.1-0.6l-0.1-0.7l-0.3-0.8l-0.5-0.6l-0.6-0.5l-0.6-0.2l-0.5,0.1 M29.25,236.55
		l0.2-0.1l0.3-0.3l0.1-0.6l-0.1-0.8l-0.3-0.7l-0.5-0.7l-0.6-0.4l-0.6-0.2l-0.4,0.1l-0.2,0.1 M29.05,236.75L29.05,236.75l0.3-0.4
		l0.1-0.6l-0.1-0.7l-0.3-0.8l-0.5-0.6l-0.6-0.5l-0.6-0.2l-0.4,0.1 M28.75,236.85l0.2-0.1l0.3-0.4l0.1-0.6l-0.1-0.7l-0.3-0.7
		l-0.5-0.7l-0.6-0.5l-0.5-0.2l-0.5,0.1l-0.2,0.2 M28.55,236.95L28.55,236.95l0.3-0.3l0.1-0.6l-0.1-0.8l-0.3-0.7l-0.5-0.7l-0.6-0.4
		l-0.5-0.2l-0.5,0.1 M28.25,237.15l0.2-0.1l0.3-0.4l0.1-0.6l-0.1-0.7l-0.3-0.8l-0.5-0.6l-0.6-0.5l-0.5-0.2l-0.5,0.1l-0.2,0.2
		 M28.05,237.25L28.05,237.25l0.3-0.3l0.2-0.6l-0.2-0.8l-0.3-0.7l-0.5-0.7l-0.6-0.4l-0.5-0.2h-0.5 M27.75,237.45l0.2-0.1l0.3-0.4
		l0.2-0.6l-0.2-0.7l-0.3-0.8l-0.5-0.6l-0.5-0.5l-0.6-0.2l-0.5,0.1l-0.2,0.1 M27.55,237.55L27.55,237.55l0.4-0.4l0.1-0.6l-0.1-0.7
		l-0.4-0.7l-0.5-0.7l-0.5-0.5l-0.6-0.2l-0.5,0.1 M27.25,237.65h0.2l0.4-0.4l0.1-0.6l-0.1-0.7l-0.4-0.8l-0.5-0.6l-0.5-0.5l-0.6-0.2
		l-0.5,0.1l-0.2,0.1 M27.05,237.85L27.05,237.85l0.4-0.4l0.1-0.6l-0.1-0.7l-0.4-0.8l-0.5-0.6l-0.5-0.5l-0.6-0.2l-0.5,0.1
		 M26.75,237.95l0.2-0.1l0.4-0.3l0.1-0.6l-0.1-0.8l-0.4-0.7l-0.4-0.7l-0.6-0.4l-0.6-0.2l-0.5,0.1l-0.2,0.1 M26.65,238.15
		L26.65,238.15l0.3-0.4l0.1-0.6l-0.1-0.7l-0.3-0.8l-0.5-0.6l-0.6-0.5l-0.6-0.2l-0.5,0.1 M26.25,238.25l0.3-0.1l0.3-0.3l0.1-0.6
		l-0.1-0.8l-0.3-0.7l-0.5-0.7l-0.6-0.5l-0.6-0.2l-0.5,0.1l-0.1,0.2 M26.15,238.45L26.15,238.45l0.3-0.4l0.1-0.6l-0.1-0.8l-0.3-0.7
		l-0.5-0.7l-0.6-0.4l-0.6-0.2l-0.5,0.1 M25.85,238.55l0.2-0.1l0.3-0.4l0.1-0.6l-0.1-0.7l-0.3-0.7l-0.5-0.7l-0.6-0.5l-0.6-0.2
		l-0.5,0.1l-0.1,0.2 M25.65,238.65L25.65,238.65l0.3-0.3l0.1-0.6l-0.1-0.8l-0.3-0.7l-0.5-0.7l-0.6-0.4l-0.6-0.2l-0.5,0.1
		 M25.35,238.85l0.2-0.1l0.3-0.4l0.1-0.6l-0.1-0.7l-0.3-0.8l-0.5-0.6l-0.6-0.5l-0.6-0.2l-0.4,0.1l-0.2,0.2 M25.15,238.95
		L25.15,238.95l0.3-0.4l0.1-0.6l-0.1-0.7l-0.3-0.7l-0.5-0.7l-0.6-0.5l-0.5-0.2l-0.5,0.1 M24.85,239.15l0.2-0.1l0.3-0.4l0.1-0.6
		l-0.1-0.7l-0.3-0.8l-0.5-0.6l-0.6-0.5l-0.5-0.2l-0.5,0.1l-0.2,0.1 M24.65,239.25L24.65,239.25l0.3-0.4l0.1-0.6l-0.1-0.7l-0.3-0.8
		l-0.5-0.6l-0.6-0.5l-0.5-0.2l-0.5,0.1 M24.35,239.35h0.2l0.3-0.4l0.1-0.6l-0.1-0.8l-0.3-0.7l-0.5-0.7l-0.6-0.4l-0.5-0.2l-0.5,0.1
		l-0.2,0.1 M24.15,239.55L24.15,239.55l0.3-0.4l0.2-0.6l-0.2-0.7l-0.3-0.8l-0.5-0.6l-0.5-0.5l-0.6-0.2l-0.5,0.1 M23.85,239.65
		l0.2-0.1l0.3-0.3l0.2-0.6l-0.2-0.8l-0.3-0.7l-0.5-0.7l-0.5-0.4l-0.6-0.2h-0.5l-0.2,0.2 M23.65,239.85L23.65,239.85l0.4-0.4l0.1-0.6
		l-0.1-0.7l-0.4-0.8l-0.5-0.7l-0.5-0.4l-0.6-0.2l-0.5,0.1 M23.35,239.95l0.2-0.1l0.4-0.4l0.1-0.6l-0.1-0.7l-0.4-0.7l-0.5-0.7
		l-0.5-0.5l-0.6-0.2l-0.5,0.1l-0.2,0.2 M23.15,240.05L23.15,240.05l0.4-0.3l0.1-0.6l-0.1-0.8l-0.4-0.7l-0.4-0.7l-0.6-0.4l-0.6-0.2
		l-0.5,0.1 M22.85,240.25l0.2-0.1l0.4-0.4l0.1-0.6l-0.1-0.7l-0.4-0.8l-0.4-0.6l-0.6-0.5l-0.6-0.2l-0.5,0.1l-0.2,0.2 M22.75,240.35
		L22.75,240.35l0.3-0.4l0.1-0.6l-0.1-0.7l-0.3-0.7l-0.5-0.7l-0.6-0.5l-0.6-0.2l-0.5,0.1 M22.35,240.55l0.3-0.1l0.3-0.4l0.1-0.6
		l-0.1-0.7l-0.3-0.8l-0.5-0.6l-0.6-0.5l-0.6-0.2l-0.5,0.1l-0.1,0.1 M22.25,240.65L22.25,240.65l0.3-0.4l0.1-0.6l-0.1-0.7l-0.3-0.8
		l-0.5-0.6l-0.6-0.5l-0.6-0.2l-0.5,0.1 M21.95,240.75h0.2l0.3-0.4l0.1-0.6l-0.1-0.7l-0.3-0.8l-0.5-0.7l-0.6-0.4l-0.6-0.2l-0.5,0.1
		l-0.1,0.1 M21.75,240.95L21.75,240.95l0.3-0.4l0.1-0.6l-0.1-0.7l-0.3-0.8l-0.5-0.6l-0.6-0.5l-0.6-0.2l-0.4,0.1 M21.45,241.05
		l0.2-0.1l0.3-0.3l0.1-0.6l-0.1-0.8l-0.3-0.7l-0.5-0.7l-0.6-0.4l-0.6-0.2l-0.4,0.1l-0.2,0.1 M21.25,241.25L21.25,241.25l0.3-0.4
		l0.1-0.6l-0.1-0.7l-0.3-0.8l-0.5-0.6l-0.6-0.5l-0.5-0.2l-0.5,0.1 M20.95,241.35l0.2-0.1l0.3-0.4l0.1-0.6l-0.1-0.7l-0.3-0.7
		l-0.5-0.7l-0.6-0.5l-0.5-0.2l-0.5,0.1l-0.2,0.2 M17.05,242.35l-0.4-0.5 M16.65,241.85l-0.5-0.6 M20.75,241.45L20.75,241.45l0.3-0.3
		l0.1-0.6l-0.1-0.8l-0.3-0.7l-0.5-0.7l-0.6-0.4l-0.5-0.2l-0.5,0.1 M16.15,241.25l-1.1,0.6 M16.15,241.25v-0.7 M20.45,241.65l0.2-0.1
		l0.3-0.4l0.2-0.6l-0.2-0.7l-0.3-0.8l-0.5-0.6l-0.6-0.5l-0.5-0.2l-0.5,0.1l-0.2,0.2 M17.05,242.55l-1,0.6 M16.15,240.55v0.2v0.1
		l0.1,0.2v0.2l0.1,0.1l0.1,0.2l0.1,0.1l0.1,0.2 M16.65,241.85l0.1,0.1l0.1,0.1l0.2,0.2 M20.25,241.75L20.25,241.75l0.3-0.3l0.2-0.6
		l-0.2-0.8l-0.3-0.7l-0.5-0.7l-0.5-0.4l-0.6-0.2h-0.5 M17.55,238.75l0.4,0.2l0.6,0.4l0.5,0.7l0.3,0.8l0.1,0.7 M19.45,241.55v0.4
		 M19.45,241.55l-0.2-0.7l-0.3-0.8l-0.5-0.6l-0.6-0.5 M18.55,244.85l0.3-0.2l0.4-0.7l0.2-0.9 M19.45,243.05l-0.2-1.1l-0.4-1.2
		l-0.7-1.1l-0.8-0.9l-1-0.7l-0.8-0.2l-0.8,0.1l-0.1,0.1 M18.85,243.35l-0.2-1.1l-0.4-1.2l-0.7-1.1l-0.8-0.9l-0.9-0.6l-0.9-0.3
		l-0.8,0.2l-0.6,0.5l-0.3,0.8v1.1l0.3,1.1l0.6,1.2l0.8,1l0.9,0.8l0.9,0.4l0.8,0.1l0.7-0.3l0.4-0.7L18.85,243.35 M17.05,243.05
		l-1,0.1 M16.05,243.15l-1-1.3 M15.05,241.85v-1.3 M15.05,240.55l1-0.1 M16.05,240.45l1,1.2 M17.05,241.65v1.4 M63.35,250.55
		l-0.1-0.6l-0.3-0.6l-0.3-0.5l-0.5-0.4 M62.95,251.85L62.95,251.85l0.3-0.4l0.1-0.6 M63.35,250.85l-0.1-0.7l-0.3-0.7l-0.5-0.7
		l-0.6-0.5l-0.6-0.2l-0.5,0.1 M62.65,251.95l0.3-0.1l0.3-0.3l0.1-0.6l-0.1-0.8l-0.3-0.7l-0.5-0.7l-0.6-0.5l-0.6-0.2l-0.5,0.1
		l-0.1,0.2 M62.55,252.15L62.55,252.15l0.3-0.4l0.1-0.6l-0.1-0.8l-0.3-0.7l-0.5-0.7l-0.6-0.4l-0.6-0.2l-0.5,0.1 M62.25,252.25
		l0.2-0.1l0.3-0.4l0.1-0.6l-0.1-0.7l-0.3-0.7l-0.5-0.7l-0.6-0.5l-0.6-0.2l-0.5,0.1l-0.1,0.2 M62.05,252.35L62.05,252.35l0.3-0.3
		l0.1-0.6l-0.1-0.8l-0.3-0.7l-0.5-0.7l-0.6-0.4l-0.6-0.2l-0.5,0.1 M61.75,252.55l0.2-0.1l0.3-0.4l0.1-0.6l-0.1-0.7l-0.3-0.8
		l-0.5-0.6l-0.6-0.5l-0.6-0.2l-0.4,0.1l-0.2,0.2 M61.55,252.65L61.55,252.65l0.3-0.4l0.1-0.6l-0.1-0.7l-0.3-0.7l-0.5-0.7l-0.6-0.5
		l-0.5-0.2l-0.5,0.1 M61.25,252.85l0.2-0.1l0.3-0.4l0.1-0.6l-0.1-0.7l-0.3-0.8l-0.5-0.6l-0.6-0.5l-0.5-0.2l-0.5,0.1l-0.2,0.1
		 M61.05,252.95L61.05,252.95l0.3-0.4l0.1-0.6l-0.1-0.7l-0.3-0.8l-0.5-0.6l-0.6-0.5l-0.5-0.2l-0.5,0.1 M60.75,253.05h0.2l0.3-0.4
		l0.1-0.6l-0.1-0.8l-0.3-0.7l-0.5-0.7l-0.6-0.4l-0.5-0.2l-0.5,0.1l-0.2,0.1 M60.55,253.25L60.55,253.25l0.3-0.4l0.2-0.6l-0.2-0.7
		l-0.3-0.8l-0.5-0.6l-0.5-0.5l-0.6-0.2l-0.5,0.1 M60.25,253.35l0.2-0.1l0.3-0.3l0.2-0.6l-0.2-0.8l-0.3-0.7l-0.5-0.7l-0.5-0.4
		l-0.6-0.2l-0.5,0.1l-0.2,0.1 M60.05,253.55L60.05,253.55l0.4-0.4l0.1-0.6l-0.1-0.7l-0.4-0.8l-0.5-0.7l-0.5-0.4l-0.6-0.2l-0.5,0.1
		 M59.75,253.65l0.2-0.1l0.4-0.4l0.1-0.6l-0.1-0.7l-0.4-0.7l-0.5-0.7l-0.5-0.5l-0.6-0.2l-0.5,0.1l-0.2,0.2 M59.55,253.75
		L59.55,253.75l0.4-0.3l0.1-0.6l-0.1-0.8l-0.4-0.7l-0.4-0.7l-0.6-0.4l-0.6-0.2l-0.5,0.1 M59.25,253.95l0.2-0.1l0.4-0.4l0.1-0.6
		l-0.1-0.7l-0.4-0.8l-0.4-0.6l-0.6-0.5l-0.6-0.2l-0.5,0.1l-0.2,0.2 M59.15,254.05L59.15,254.05l0.3-0.4l0.1-0.6l-0.1-0.7l-0.3-0.7
		l-0.5-0.7l-0.6-0.5l-0.6-0.2l-0.5,0.1 M58.75,254.25l0.3-0.1l0.3-0.4l0.1-0.6l-0.1-0.7l-0.3-0.8l-0.5-0.6l-0.6-0.5l-0.6-0.2
		l-0.5,0.1l-0.1,0.1 M58.65,254.35L58.65,254.35l0.3-0.4l0.1-0.6l-0.1-0.7l-0.3-0.8l-0.5-0.6l-0.6-0.5l-0.6-0.2l-0.5,0.1
		 M58.35,254.45h0.2l0.3-0.4l0.1-0.6l-0.1-0.7l-0.3-0.8l-0.5-0.7l-0.6-0.4l-0.6-0.2l-0.5,0.1l-0.1,0.1 M58.15,254.65L58.15,254.65
		l0.3-0.4l0.1-0.6l-0.1-0.7l-0.3-0.8l-0.5-0.6l-0.6-0.5l-0.6-0.2l-0.4,0.1 M57.85,254.75l0.2-0.1l0.3-0.3l0.1-0.6l-0.1-0.8l-0.3-0.7
		l-0.5-0.7l-0.6-0.4l-0.6-0.2l-0.4,0.1l-0.2,0.1 M57.65,254.95L57.65,254.95l0.3-0.4l0.1-0.6l-0.1-0.7l-0.3-0.8l-0.5-0.6l-0.6-0.5
		l-0.5-0.2l-0.5,0.1 M57.35,255.05l0.2-0.1l0.3-0.4l0.1-0.6l-0.1-0.7l-0.3-0.7l-0.5-0.7l-0.6-0.5l-0.5-0.2l-0.5,0.1l-0.2,0.2
		 M57.15,255.15L57.15,255.15l0.3-0.3l0.1-0.6l-0.1-0.8l-0.3-0.7l-0.5-0.7l-0.6-0.4l-0.5-0.2l-0.5,0.1 M56.85,255.35l0.2-0.1
		l0.3-0.4l0.2-0.6l-0.2-0.7l-0.3-0.8l-0.5-0.6l-0.6-0.5l-0.5-0.2l-0.5,0.1l-0.2,0.2 M56.65,255.45L56.65,255.45l0.3-0.3l0.2-0.6
		l-0.2-0.8l-0.3-0.7l-0.5-0.7l-0.5-0.4l-0.6-0.2h-0.5 M56.35,255.65l0.2-0.1l0.3-0.4l0.2-0.6l-0.2-0.7l-0.3-0.8l-0.5-0.6l-0.5-0.5
		l-0.6-0.2l-0.5,0.1l-0.2,0.1 M56.15,255.75L56.15,255.75l0.4-0.4l0.1-0.6l-0.1-0.7l-0.4-0.7l-0.5-0.7l-0.5-0.5l-0.6-0.2l-0.5,0.1
		 M55.85,255.85h0.2l0.4-0.4l0.1-0.6l-0.1-0.7l-0.4-0.8l-0.5-0.6l-0.5-0.5l-0.6-0.2l-0.5,0.1l-0.2,0.1 M55.65,256.05L55.65,256.05
		l0.4-0.4l0.1-0.6l-0.1-0.7l-0.4-0.8l-0.4-0.6l-0.6-0.5l-0.6-0.2l-0.5,0.1 M55.35,256.15l0.2-0.1l0.4-0.3l0.1-0.6l-0.1-0.8l-0.4-0.7
		l-0.4-0.7l-0.6-0.4l-0.6-0.2l-0.5,0.1l-0.2,0.1 M55.25,256.35L55.25,256.35l0.3-0.4l0.1-0.6l-0.1-0.7l-0.3-0.8l-0.5-0.6l-0.6-0.5
		l-0.6-0.2l-0.5,0.1 M54.85,256.45l0.3-0.1l0.3-0.3l0.1-0.6l-0.1-0.8l-0.3-0.7l-0.5-0.7l-0.6-0.5l-0.6-0.2l-0.5,0.1l-0.1,0.2
		 M54.75,256.65L54.75,256.65l0.3-0.4l0.1-0.6l-0.1-0.8l-0.3-0.7l-0.5-0.7l-0.6-0.4l-0.6-0.2l-0.5,0.1 M54.45,256.75l0.2-0.1
		l0.3-0.4l0.1-0.6l-0.1-0.7l-0.3-0.7l-0.5-0.7l-0.6-0.5l-0.6-0.2l-0.5,0.1l-0.1,0.2 M54.25,256.85L54.25,256.85l0.3-0.3l0.1-0.6
		l-0.1-0.8l-0.3-0.7l-0.5-0.7l-0.6-0.4l-0.6-0.2l-0.4,0.1 M53.95,257.05l0.2-0.1l0.3-0.4l0.1-0.6l-0.1-0.7l-0.3-0.8l-0.5-0.6
		l-0.6-0.5l-0.6-0.2l-0.4,0.1l-0.2,0.2 M53.75,257.15L53.75,257.15l0.3-0.4l0.1-0.6l-0.1-0.7l-0.3-0.7l-0.5-0.7l-0.6-0.5l-0.5-0.2
		l-0.5,0.1 M53.45,257.35l0.2-0.1l0.3-0.4l0.1-0.6l-0.1-0.7l-0.3-0.8l-0.5-0.6l-0.6-0.5l-0.5-0.2l-0.5,0.1l-0.2,0.1 M53.25,257.45
		L53.25,257.45l0.3-0.4l0.1-0.6l-0.1-0.7l-0.3-0.8l-0.5-0.6l-0.6-0.5l-0.5-0.2l-0.5,0.1 M52.95,257.55h0.2l0.3-0.4l0.2-0.6l-0.2-0.8
		l-0.3-0.7l-0.5-0.7l-0.6-0.4l-0.5-0.2l-0.5,0.1l-0.2,0.1 M52.75,257.75L52.75,257.75l0.3-0.4l0.2-0.6l-0.2-0.7l-0.3-0.8l-0.5-0.6
		l-0.5-0.5l-0.6-0.2l-0.5,0.1 M52.45,257.85l0.2-0.1l0.4-0.3l0.1-0.6l-0.1-0.8l-0.4-0.7l-0.5-0.7l-0.5-0.4l-0.6-0.2l-0.5,0.1
		l-0.2,0.1 M52.25,258.05L52.25,258.05l0.4-0.4l0.1-0.6l-0.1-0.7l-0.4-0.8l-0.5-0.7l-0.5-0.4l-0.6-0.2l-0.5,0.1 M51.95,258.15
		l0.2-0.1l0.4-0.4l0.1-0.6l-0.1-0.7l-0.4-0.7l-0.5-0.7l-0.5-0.5l-0.6-0.2l-0.5,0.1l-0.2,0.2 M51.75,258.25L51.75,258.25l0.4-0.3
		l0.1-0.6l-0.1-0.8l-0.4-0.7l-0.4-0.7l-0.6-0.4l-0.6-0.2l-0.5,0.1 M51.45,258.45l0.3-0.1l0.3-0.4l0.1-0.6l-0.1-0.7l-0.3-0.8
		l-0.5-0.6l-0.6-0.5l-0.6-0.2l-0.5,0.1l-0.2,0.2 M51.35,258.55L51.35,258.55l0.3-0.4l0.1-0.6l-0.1-0.7l-0.3-0.7l-0.5-0.7l-0.6-0.5
		l-0.6-0.2l-0.5,0.1 M50.95,258.75l0.3-0.1l0.3-0.4l0.1-0.6l-0.1-0.7l-0.3-0.8l-0.5-0.6l-0.6-0.5l-0.6-0.2l-0.5,0.1l-0.1,0.1
		 M47.15,259.65l-0.5-0.4 M46.65,259.25l-0.5-0.7 M50.85,258.85L50.85,258.85l0.3-0.4l0.1-0.6l-0.1-0.7l-0.3-0.8l-0.5-0.6l-0.6-0.5
		l-0.6-0.2l-0.5,0.1 M46.15,258.55l-1.1,0.7 M46.15,258.55v-0.6 M50.55,258.95h0.2l0.3-0.4l0.1-0.6l-0.1-0.7l-0.3-0.8l-0.5-0.7
		l-0.6-0.4l-0.6-0.2l-0.5,0.1l-0.1,0.1 M47.15,259.85l-1.1,0.6 M46.15,257.95l0.1,0.1v0.2v0.1l0.1,0.2l0.1,0.2v0.1l0.1,0.2l0.1,0.2
		 M46.65,259.25l0.2,0.1l0.1,0.1l0.1,0.1h0.1 M50.35,259.15L50.35,259.15l0.3-0.4l0.1-0.6l-0.1-0.7l-0.3-0.8l-0.5-0.6l-0.6-0.5
		l-0.6-0.2l-0.4,0.1 M47.65,256.15l0.4,0.1l0.5,0.5l0.5,0.7l0.3,0.7l0.2,0.7 M49.55,258.85l-0.1,0.4 M49.45,258.95l-0.1-0.7
		l-0.3-0.8l-0.5-0.7l-0.6-0.5 M48.65,262.15l0.2-0.1l0.5-0.7l0.1-1 M49.45,260.35l-0.1-1.1l-0.5-1.2l-0.6-1.1l-0.9-0.9l-0.9-0.6
		l-0.9-0.2l-0.7,0.1h-0.1 M48.85,260.75l-0.1-1.2l-0.5-1.1l-0.6-1.1l-0.9-0.9l-0.9-0.7l-0.9-0.2l-0.7,0.1l-0.6,0.5l-0.3,0.9v1
		l0.3,1.2l0.6,1.1l0.7,1.1l0.9,0.7l0.9,0.5h0.9l0.6-0.3l0.5-0.7L48.85,260.75 M47.15,260.35l-1.1,0.1 M46.05,260.45l-1-1.2
		 M45.05,259.25v-1.4 M45.05,257.85l1-0.1 M46.05,257.75l1.1,1.3 M47.15,259.05v1.3 M163.95,135.05l0.1-0.5l0.2-0.7l0.4-0.5l0.5-0.3
		l0.4-0.2l0.4,0.1l0.3,0.3l0.1,0.4l-0.1,0.6l-0.3,0.6l-0.4,0.6l-0.4,0.3l-0.5,0.2l-0.4-0.1l-0.2-0.3L163.95,135.05 M163.95,129.25
		l0.1-0.5l0.2-0.6l0.4-0.6l0.5-0.3l0.4-0.2l0.4,0.1l0.3,0.3l0.1,0.5l-0.1,0.5l-0.3,0.6l-0.4,0.6l-0.4,0.3l-0.5,0.2l-0.4-0.1
		l-0.2-0.3L163.95,129.25 M163.95,123.55l0.1-0.6l0.2-0.6l0.4-0.5l0.5-0.4l0.4-0.2l0.4,0.1l0.3,0.3l0.1,0.5l-0.1,0.6l-0.3,0.6
		l-0.4,0.5l-0.4,0.4l-0.5,0.1l-0.4-0.1l-0.2-0.3L163.95,123.55 M163.95,117.75l0.1-0.6l0.2-0.6l0.4-0.5l0.5-0.4l0.4-0.2l0.4,0.1
		l0.3,0.3l0.1,0.5l-0.1,0.6l-0.3,0.6l-0.4,0.5l-0.4,0.4l-0.5,0.1h-0.4l-0.2-0.3L163.95,117.75 M163.95,111.95l0.1-0.6l0.2-0.6
		l0.4-0.5l0.5-0.4l0.4-0.2l0.4,0.1l0.3,0.3l0.1,0.5l-0.1,0.6l-0.3,0.6l-0.4,0.5l-0.4,0.4l-0.5,0.1h-0.4l-0.2-0.3L163.95,111.95
		 M163.95,106.15l0.1-0.6l0.2-0.6l0.4-0.5l0.5-0.4l0.4-0.1h0.4l0.3,0.3l0.1,0.5l-0.1,0.6l-0.3,0.6l-0.4,0.5l-0.4,0.4l-0.5,0.2
		l-0.4-0.1l-0.2-0.3L163.95,106.15 M165.25,88.85h-0.1l-0.4,0.2h-0.4l-0.3-0.2l-0.2-0.4l-0.1-0.4l0.1-0.5l0.2-0.4l0.4-0.5l0.2-0.1
		 M165.55,85.95h0.3l0.2,0.2l0.1,0.4v0.3 M162.65,99.85h-0.3l-0.4,0.1h-0.4h-0.4h-0.4h-0.4l-0.4-0.1h-0.4 M165.15,98.95l-0.3,0.2
		l-0.3,0.1l-0.2,0.1l-0.3,0.1l-0.4,0.1l-0.3,0.1l-0.3,0.1l-0.4,0.1 M165.35,98.85L165.35,98.85l-0.2,0.1 M165.55,85.95l-0.3,0.1
		l-0.4,0.3l-0.2,0.2 M47.55,65.15l-0.1-0.5l-0.3-0.3l-0.4-0.1l-0.4,0.2l-0.5,0.3l-0.4,0.6l-0.2,0.6l-0.1,0.5l0.1,0.5l0.2,0.3
		l0.4,0.1l0.5-0.2l0.4-0.3l0.4-0.6l0.3-0.6L47.55,65.15 M47.55,59.35l-0.1-0.5l-0.3-0.3l-0.4-0.1l-0.4,0.2l-0.5,0.3l-0.4,0.6
		l-0.2,0.6l-0.1,0.6l0.1,0.4l0.2,0.3l0.4,0.1l0.5-0.1l0.4-0.4l0.4-0.5l0.3-0.6L47.55,59.35 M47.55,53.55l-0.1-0.5l-0.3-0.3l-0.4-0.1
		l-0.4,0.2l-0.5,0.4l-0.4,0.5l-0.2,0.6l-0.1,0.6l0.1,0.5l0.2,0.3h0.4l0.5-0.1l0.4-0.4l0.4-0.5l0.3-0.6L47.55,53.55 M47.55,47.75
		l-0.1-0.5l-0.3-0.3l-0.4-0.1l-0.4,0.2l-0.5,0.4l-0.4,0.5l-0.2,0.6l-0.1,0.6l0.1,0.5l0.2,0.3h0.4l0.5-0.1l0.4-0.4l0.4-0.5l0.3-0.6
		L47.55,47.75 M47.55,41.95l-0.1-0.5l-0.3-0.3h-0.4l-0.4,0.1l-0.5,0.4l-0.4,0.5l-0.2,0.6l-0.1,0.6l0.1,0.5l0.2,0.3l0.4,0.1l0.5-0.2
		l0.4-0.4l0.4-0.5l0.3-0.6L47.55,41.95 M47.55,36.15l-0.1-0.5l-0.3-0.3h-0.4l-0.4,0.1l-0.5,0.4l-0.4,0.5l-0.2,0.6l-0.1,0.6l0.1,0.5
		l0.2,0.3l0.4,0.1l0.5-0.2l0.4-0.4l0.4-0.5l0.3-0.6L47.55,36.15 M44.95,19.35l0.1-0.4l0.2-0.4l0.4-0.5l0.2-0.1 M46.75,17.35h0.3
		l0.2,0.2l0.1,0.4v0.3 M43.85,31.25h-0.4l-0.3,0.1h-0.4h-0.4h-0.4h-0.4l-0.4-0.1h-0.4 M46.35,30.35l-0.3,0.2l-0.3,0.1l-0.3,0.1
		l-0.3,0.1l-0.3,0.1l-0.3,0.1l-0.3,0.1l-0.4,0.1 M46.55,30.25L46.55,30.25l-0.2,0.1 M46.75,17.35l-0.3,0.1l-0.4,0.3l-0.2,0.2
		 M83.05,197.85l-0.1,0.8l0.1,1.3l0.3,1.4l0.7,1.3l0.9,1.2l1.1,1l0.6,0.5 M84.05,180.65l0.1,1.4v4.4l-0.1,4.2l-0.5,4l-0.5,3.2
		 M44.75,86.95l-0.6-0.3l-1.1-0.2h-1.2l-1.1,0.3l-0.5,0.2 M30.95,103.25l0.1,0.7l0.5,0.7l0.6,0.5 M40.25,86.95l-8,4.6
		 M100.35,207.35h0.4l1.1-0.3h0.2 M101.95,207.05l0.5-0.1l1-0.2l0.6,0.1 M94.55,202.35l0.1,0.8l0.3,1.1l0.6,0.9l0.8,0.6
		 M81.55,175.75l0.1,0.8l0.5,1.3l0.7,1.3l0.9,1.2l1,1l1.2,0.7l1.1,0.3h1l0.8-0.3 M86.65,205.35l30,17.3 M94.55,201.15v1.2
		 M30.95,93.65v9.6 M96.35,205.75l2,1.2 M32.25,91.55l-0.5,0.4l-0.6,0.7l-0.2,0.8v0.2 M98.35,206.95h0.1l1,0.4h0.9 M32.15,105.15
		l5.6,3.2 M120.65,222.85l3.6-2 M116.65,222.65l0.8,0.4l1.1,0.2h1.1l1-0.4h0.1 M51.15,92.65l-8.7,5 M42.45,97.65l-8.6-5
		 M44.85,103.65v0.2l-0.2,0.3l-0.4,0.5l-0.5,0.2 M93.85,186.35l0.4,3.7l0.3,5.9v5.2 M21.35,142.95l0.1,0.7l0.4,0.9l0.6,0.6l0.3,0.2
		 M113.15,197.55l0.7,0.6l1.1,0.7l1.1,0.3h1l0.9-0.4 M80.15,165.65l1.4,10.1 M43.75,104.85l-21.1,12.2 M51.15,156.45l6.8-3.9
		 M21.35,119.15v23.8 M50.75,156.75L50.75,156.75l0.2-0.2l0.2-0.1 M49.85,157.75l0.2-0.1l0.1-0.1l0.1-0.1l0.1-0.1l0.1-0.1l0.1-0.2
		l0.1-0.1l0.1-0.2 M22.65,117.05l-0.5,0.4l-0.6,0.7l-0.2,0.9v0.1 M27.85,119.55l-0.3-0.2l-0.3-0.4l-0.1-0.3 M48.15,158.75l1.7-1
		 M22.75,145.35l23.3,13.4 M46.05,158.75l0.2,0.1l0.3,0.1l0.3,0.1h0.2h0.3l0.3-0.1l0.3-0.1l0.2-0.1 M61.15,117.55l0.1,0.7l-0.1,1.2
		l-0.4,1.3l-0.8,1.3l-1.2,1.1l-1.4,1l-0.2,0.1 M50.75,155.35l0.1-0.1l0.2-0.3l0.4-0.5 M44.25,129.05l-16.4-9.5 M57.15,124.25
		l-8.2,4.8 M48.95,129.05l-0.4,0.2l-0.9,0.2l-1.1,0.1l-1.1-0.1l-0.9-0.3l-0.3-0.1 M51.45,154.45l0.7-0.5l0.5-0.3 M52.65,153.65
		l0.5-0.3l1.7-0.6l1.8-0.3l2,0.1l2.1,0.4l2.1,0.7l2.2,1.1l2.3,1.3l1.5,1.1 M90.45,183.75l0.1,0.2l0.1,0.2l0.1,0.1l0.1,0.2l0.1,0.2
		l0.2,0.1l0.1,0.1l0.2,0.1 M140.55,185.85l0.7-0.5l0.5-0.8l0.3-0.9v-0.2 M68.65,157.05l1.2,0.5l2.2,1.2l2.2,1.5l2.3,1.8l2.2,2
		l2.1,2.3l2,2.5l1.9,2.7l1.7,2.8l1.5,2.9l1.3,3l1,2.8l0.2,0.7 M142.05,183.45v-12.6 M141.55,170.95h0.2l1.2-0.2h1.4l1.2,0.2l1.1,0.3
		l0.5,0.3 M171.25,173.55l0.5-0.3l0.5-0.7l0.3-0.8l-0.1-0.1 M171.15,159.95l-126.4-73 M98.05,160.05l-0.3-0.2l-0.4-0.4l-0.1-0.3
		 M91.45,184.95l23.2,13.4 M118.85,198.35l21.7-12.5 M114.65,198.35l0.7,0.3l1.1,0.3l1.2-0.1l1-0.4l0.2-0.1 M147.15,171.55l11.5,6.6
		 M163.25,178.15l8-4.6 M172.55,171.65v-9.6 M172.45,162.05l-0.1-0.7l-0.4-0.7l-0.8-0.7 M158.65,178.15l0.6,0.3l1,0.2l1.2,0.1
		l1.1-0.3l0.7-0.3 M131.35,159.15v0.8l-0.5,1.3l-0.8,1.3l-1.1,1.1l-1.4,1l-0.3,0.1 M166.25,173.75l0.6,0.3l0.8-0.1l0.8-0.4l0.8-0.7
		l0.7-0.9l0.5-1l0.2-1.1l-0.1-1.1l-0.3-0.7l-0.5-0.3 M160.95,166.05l-8.7-5 M169.65,161.05l-8.7,5 M114.45,169.55l-16.4-9.5
		 M127.25,164.75l-8.2,4.8 M119.05,169.55l-0.4,0.1l-0.9,0.3l-1.1,0.1l-1-0.1l-0.9-0.3l-0.3-0.1 M181.45,179.75v0.3 M182.75,177.85
		l-0.3,0.1 M181.85,180.85L181.85,180.85 M183.65,177.75L183.65,177.75 M182.25,181.05h0.1 M184.05,178.05v-0.1 M182.65,181.25
		l0.1,0.1 M184.55,178.25h-0.1 M183.15,181.55h0.1 M184.95,178.55l-0.1-0.1 M183.55,181.75l0.1,0.1 M185.45,178.75h-0.1
		 M184.05,182.05l0.1,0.1 M185.85,179.05l-0.1-0.1 M184.45,182.35h0.1 M186.35,179.25h-0.1 M184.95,182.55v0.1 M186.75,179.55
		l-0.1-0.1 M185.35,182.85h0.1 M187.25,179.85l-0.1-0.1 M185.75,183.05l0.1,0.1 M187.65,180.05h-0.1 M186.25,183.35h0.1
		 M188.05,180.35v-0.1 M186.65,183.55l0.1,0.1 M188.55,180.55h-0.1 M187.15,183.85l0.1,0.1 M188.95,180.85v-0.1 M187.55,184.15h0.1
		 M189.45,181.05h-0.1 M188.05,184.35l0.1,0.1 M189.85,181.35l-0.1-0.1 M188.45,184.65h0.1 M190.35,181.65l-0.1-0.1 M188.95,184.85
		v0.1 M190.75,181.85h-0.1 M189.35,185.15h0.1 M191.25,182.15l-0.1-0.1 M189.75,185.35l0.1,0.1 M191.65,182.35h-0.1 M190.25,185.65
		l0.1,0.1 M192.15,182.65l-0.1-0.1 M190.65,185.95h0.1 M192.55,182.85h-0.1 M191.15,186.15l0.1,0.1 M192.95,183.15v-0.1
		 M191.55,186.45h0.1 M193.45,183.45l-0.1-0.1 M192.05,186.65l0.1,0.1 M193.85,183.65h-0.1 M192.45,186.95h0.1 M194.35,183.95
		l-0.1-0.1 M192.95,187.15l0.1,0.1 M194.75,184.15h-0.1 M193.35,187.45h0.1 M195.25,184.45l-0.1-0.1 M193.85,187.75L193.85,187.75
		 M195.65,184.65h-0.1 M194.25,187.95l0.1,0.1 M196.15,184.95l-0.1-0.1 M194.65,188.25h0.1 M196.55,185.25l-0.1-0.1 M195.15,188.45
		l0.1,0.1 M196.95,185.45L196.95,185.45 M195.55,188.75h0.1 M197.45,185.75l-0.1-0.1 M196.05,188.95l0.1,0.1 M197.85,185.95h-0.1
		 M196.95,191.15l2.4,1.4 M202.55,187.05l-2.4-1.4 M200.65,187.65l0.7-0.4l0.6-0.1l0.5,0.3 M6.95,75.75l-1.1-0.6 M4.15,78.25l1,0.6
		 M7.45,76.05l-0.1-0.1 M5.55,79.05h0.1 M6.55,73.85l-2.4-1.4 M0.95,78.05l2.4,1.3 M7.85,76.25h-0.1 M5.95,79.25l0.1,0.1
		 M8.35,76.55l-0.1-0.1 M6.45,79.55h0.1 M8.75,76.75h-0.1 M6.85,79.85h0.1 M9.15,77.05v-0.1 M7.35,80.05l0.1,0.1 M9.65,77.25h-0.1
		 M7.75,80.35h0.1 M10.05,77.55h-0.1 M8.25,80.55l0.1,0.1 M10.55,77.85l-0.1-0.1 M8.65,80.85h0.1 M10.95,78.05h-0.1 M9.15,81.05
		l0.1,0.1 M11.45,78.35l-0.1-0.1 M9.55,81.35h0.1 M11.85,78.55h-0.1 M10.05,81.55v0.1 M12.35,78.85l-0.1-0.1 M10.45,81.85l0.1,0.1
		 M12.75,79.05h-0.1 M10.85,82.15h0.1 M13.15,79.35L13.15,79.35 M11.35,82.35l0.1,0.1 M13.65,79.65l-0.1-0.1 M11.75,82.65h0.1
		 M14.05,79.85h-0.1 M12.25,82.85l0.1,0.1 M14.55,80.15l-0.1-0.1 M12.65,83.15h0.1 M14.95,80.35h-0.1 M13.15,83.35l0.1,0.1
		 M15.45,80.65l-0.1-0.1 M13.55,83.65l0.1,0.1 M15.85,80.85h-0.1 M14.05,83.95L14.05,83.95 M16.35,81.15l-0.1-0.1 M14.45,84.15
		l0.1,0.1 M16.75,81.45l-0.1-0.1 M14.85,84.45h0.1 M17.25,81.65h-0.1 M15.35,84.65l0.1,0.1 M17.65,81.95l-0.1-0.1 M15.75,84.95h0.1
		 M18.05,82.15L18.05,82.15 M16.25,85.15l0.1,0.1 M18.55,82.45l-0.1-0.1 M16.65,85.45l0.1,0.1 M18.95,82.65h-0.1 M17.15,85.75h0.1
		 M19.45,82.95l-0.1-0.1 M17.55,85.95l0.1,0.1 M19.85,83.25l-0.1-0.1 M18.05,86.25h0.1 M20.35,83.45h-0.1 M18.45,86.45l0.1,0.1
		 M20.75,83.75l-0.1-0.1 M18.95,86.75L18.95,86.75 M21.25,83.95h-0.1 M19.35,86.95l0.1,0.1 M21.55,84.15L21.55,84.15 M19.75,87.25
		h0.1 M21.95,85.25v-0.2 M20.65,87.15l0.3-0.1 M152.55,77.15l2.8,3.4 M157.45,79.65l-3.2-3.9 M166.45,86.75l0.3,0.4 M168.75,86.05
		l-2-2.4 M156.25,81.05l-7.9-4.5 M166.65,87.15l-1.6-1 M163.75,88.05l1.8,1 M147.25,78.45l8.2,4.8 M169.55,86.05l-0.3,0.1h-0.3
		l-0.2-0.1 M168.75,88.35h0.6l0.8-0.1 M165.55,89.05l0.4,0.2l0.4,0.3l0.1,0.1 M167.65,87.65l-0.2-0.1l-0.5-0.3l-0.3-0.1
		 M170.15,88.25l4.2-1.2 M175.25,84.45l-5.7,1.6 M169.15,88.55l-1.5-0.9 M166.45,89.65l1.5,0.9 M167.95,90.55l0.6,0.2h0.6l1.1-0.1
		l1.1-0.2l1.4-0.4l1.4-0.5l1.4-0.6l1.3-0.6l1.1-0.7l1-0.6l0.7-0.7l0.3-0.6v-0.6l-0.2-0.6l-0.5-0.4l-0.5-0.2h-0.6h-1l-1.1,0.3
		l-0.8,0.2 M177.85,85.05h-0.1l-0.3,0.3l-0.5,0.4l-0.9,0.5l-1.1,0.5l-1.3,0.6l-1.3,0.4l-1.2,0.4l-1.1,0.3l-0.7,0.1h-0.3
		 M36.55,14.55l0.2,0.2 M35.25,12.65l0.3,0.7l0.3,0.4 M33.75,6.45l1.5,6.2 M37.45,12.15l-1.5-6.2 M33.05,14.55l0.4,0.2l0.7,0.5
		l0.4,0.4l0.1,0.1 M36.45,14.35l-0.4-0.4l-0.8-0.7l-1-0.6l-0.1-0.1 M34.15,12.55l-5.7-3.3 M27.35,11.25l5.7,3.3 M35.95,5.95
		l-0.2-0.8l-0.7-1.4l-1-1.2l-1.3-1l-1.4-0.8l-1.5-0.4l-1.5-0.1l-1.5,0.3l-1.3,0.6l-1,0.9l-0.7,1.1l-0.3,1.3v1.4l0.3,1.4l0.7,1.4
		l1,1.2l1.2,1l0.6,0.4 M28.45,9.25l-0.6-0.3l-0.9-0.9l-0.7-1l-0.4-1l-0.1-1.1l0.2-0.9l0.5-0.7l0.8-0.6l0.9-0.2h1.2l1.2,0.3l1.1,0.6
		l1,0.9l0.7,1l0.4,1.1 M36.65,14.65l-0.2-0.3 M34.65,15.75l2.6,3.2 M37.25,18.95l0.5,0.4l0.9,0.5l0.6,0.3 M45.15,21.75l0.3,0.1
		l0.4,0.2l0.1,0.1 M47.65,20.75l-0.4-0.5l-0.9-0.5l-0.6-0.2 M45.75,19.55l-1.9-0.5 M40.25,20.35l4.9,1.4 M39.25,20.15h0.3
		 M48.05,21.25l7,4 M56.15,23.35l-9.9-5.8 M50.95,24.65l-3.3-3.9 M45.95,22.15l3.2,3.9 M174.35,90.75v-1.3 M147.95,91.15v2.7
		 M163.65,97.85l2.7,1.5 M55.55,22.15v-2.7 M29.15,22.55v2.7 M44.85,29.25l2.7,1.5 M51.95,27.25l-1.7-1 M48.45,29.25l1.7,1
		 M52.35,28.35v-0.3 M51.05,30.15l0.3-0.1 M166.55,99.05l2.4,1.4 M172.15,94.95l-2.4-1.4 M170.25,95.65l0.7-0.4l0.6-0.1l0.5,0.2
		 M117.85,333.15l0.7-0.1l1.3-0.5l0.9-0.7l0.6-0.8l0.3-0.9v-0.4 M111.85,329.65l-0.1,0.1l0.2,1l0.5,0.8l0.8,0.7l1,0.6l1.3,0.3
		l1.4,0.1l0.9-0.1 M111.75,328.35v1.4 M121.75,329.75v-2 M41.65,289.25v0.4l0.3,0.9l0.6,0.8l0.8,0.6l1.2,0.5l1.3,0.3h1.3l1.4-0.2
		l1.2-0.5l0.9-0.7l0.6-0.8l0.3-1v-0.3 M41.65,287.85v1.4 M51.55,289.25v-2 M13.95,213.95l-1.6,0.9 M16.25,221.65l1.6-0.9
		 M12.35,214.95l-0.5,0.4l-0.4,0.7l-0.2,0.9l0.1,1.1l0.4,1.1l0.6,1l0.8,0.9l1,0.6l0.9,0.3l0.8-0.1l0.4-0.2 M42.95,230.75l-1.5,0.9
		 M45.35,238.45l1.5-0.9 M41.45,231.65l-0.6,0.5l-0.4,0.7l-0.2,0.9l0.1,1l0.4,1.2l0.6,1l0.9,0.9l0.9,0.6l0.9,0.2l0.9-0.1l0.4-0.2
		 M32.05,231.05l-0.3-0.1 M33.25,233.55v-0.3 M30.75,230.85L30.75,230.85 M32.85,234.55L32.85,234.55 M30.35,231.05l-0.1,0.1
		 M32.35,234.85l0.1-0.1 M29.85,231.35h-0.1 M31.85,235.05h0.1 M29.35,231.65h-0.1 M31.35,235.35h0.1 M28.85,231.95h-0.1
		 M30.85,235.65l0.1-0.1 M28.35,232.15l-0.1,0.1 M30.45,235.95v-0.1 M27.85,232.45l-0.1,0.1 M29.95,236.25l0.1-0.1 M27.35,232.75
		v0.1 M29.45,236.45h0.1 M26.95,233.05h-0.1 M28.95,236.75h0.1 M26.45,233.35h-0.1 M28.45,237.05l0.1-0.1 M25.95,233.55l-0.1,0.1
		 M27.95,237.35l0.1-0.1 M25.45,233.85l-0.1,0.1 M27.45,237.65l0.1-0.1 M24.95,234.15l-0.1,0.1 M26.95,237.85h0.1 M24.45,234.45
		h-0.1 M26.55,238.15h0.1 M23.95,234.75h-0.1 M26.05,238.45h0.1 M23.45,235.05L23.45,235.05 M25.55,238.75l0.1-0.1 M23.05,235.25
		l-0.1,0.1 M25.05,239.05l0.1-0.1 M22.55,235.55l-0.1,0.1 M24.55,239.35l0.1-0.1 M22.05,235.85h-0.1 M24.05,239.55h0.1
		 M21.55,236.15h-0.1 M23.55,239.85h0.1 M21.05,236.45h-0.1 M23.05,240.15l0.1-0.1 M20.55,236.65l-0.1,0.1 M22.65,240.45l0.1-0.1
		 M20.05,236.95l-0.1,0.1 M22.15,240.75l0.1-0.1 M19.65,237.25l-0.1,0.1 M21.65,240.95h0.1 M19.15,237.55h-0.1 M21.15,241.25h0.1
		 M18.65,237.85h-0.1 M20.65,241.55l0.1-0.1 M18.15,238.05l-0.9,0.5 M19.45,242.25l0.8-0.5 M17.85,238.95l-1.2-0.7 M19.45,243.05
		v-1.5 M14.65,238.05l-0.6,0.3 M17.95,245.15l0.6-0.3 M62.15,248.45l-0.3-0.2 M63.35,250.85v-0.3 M60.75,248.15L60.75,248.15
		 M62.95,251.85L62.95,251.85 M60.35,248.45h-0.1 M62.45,252.15h0.1 M59.85,248.75L59.85,248.75 M61.95,252.45l0.1-0.1
		 M59.45,248.95l-0.1,0.1 M61.45,252.75l0.1-0.1 M58.95,249.25l-0.1,0.1 M60.95,253.05l0.1-0.1 M58.45,249.55l-0.1,0.1
		 M60.45,253.25h0.1 M57.95,249.85h-0.1 M59.95,253.55h0.1 M57.45,250.15h-0.1 M59.45,253.85l0.1-0.1 M56.95,250.35l-0.1,0.1
		 M59.05,254.15l0.1-0.1 M56.45,250.65l-0.1,0.1 M58.55,254.45l0.1-0.1 M56.05,250.95l-0.1,0.1 M58.05,254.65h0.1 M55.55,251.25
		h-0.1 M57.55,254.95h0.1 M55.05,251.55h-0.1 M57.05,255.25l0.1-0.1 M54.55,251.75l-0.1,0.1 M56.55,255.55l0.1-0.1 M54.05,252.05
		l-0.1,0.1 M56.05,255.85l0.1-0.1 M53.55,252.35l-0.1,0.1 M55.55,256.05h0.1 M53.05,252.65h-0.1 M55.15,256.35h0.1 M52.55,252.95
		h-0.1 M54.65,256.65h0.1 M52.15,253.25h-0.1 M54.15,256.95l0.1-0.1 M51.65,253.45l-0.1,0.1 M53.65,257.25l0.1-0.1 M51.15,253.75
		l-0.1,0.1 M53.15,257.55l0.1-0.1 M50.65,254.05l-0.1,0.1 M52.65,257.75h0.1 M50.15,254.35h-0.1 M52.15,258.05h0.1 M49.65,254.65
		h-0.1 M51.75,258.35v-0.1 M49.15,254.85l-0.1,0.1 M51.25,258.65l0.1-0.1 M48.65,255.15l-0.1,0.1 M50.75,258.95l0.1-0.1
		 M48.25,255.45l-0.9,0.5 M49.45,259.65l0.9-0.5 M47.95,256.25l-1.3-0.7 M49.45,260.35v-1.4 M44.75,255.35l-0.6,0.4 M48.05,262.55
		l0.6-0.4 M153.45,141.75v0.1v0.1v0.1v0.1l0.1,0.1h0.1v0.1l0.1,0.1 M168.45,142.45l0.1-0.1l0.1-0.1h0.1v-0.1v-0.1l0.1-0.1v-0.1v-0.1
		 M153.75,142.45l7,4 M161.45,146.45l7-4 M160.75,146.45l0.1,0.1h0.1h0.1h0.1h0.1h0.1l0.1-0.1 M168.85,141.75v-41.3 M153.45,99.65
		v42.1 M155.45,83.95v8 M166.75,84.35v-0.4 M166.75,87.15L166.75,87.15 M166.75,83.95l-0.2-1.6l-0.7-1.5l-1-1.2l-1.4-0.9l-1.5-0.4
		h-1.6l-1.6,0.4l-1.3,0.9l-1.1,1.2l-0.7,1.5l-0.2,1.6 M34.55,73.25v0.1h0.1v0.1v0.1l0.1,0.1v0.1h0.1l0.1,0.1 M49.65,73.85l0.1-0.1
		h0.1v-0.1l0.1-0.1v-0.1l0.1-0.1v-0.1 M34.95,73.85l7,4 M42.65,77.85l7-4 M41.95,77.85l0.1,0.1h0.1h0.1h0.1h0.1h0.1l0.1-0.1
		 M34.55,31.05v42.2 M50.05,73.25v-43.1 M36.65,18.15v5.2 M36.65,15.35v0.4 M47.95,18.55v-3.2 M47.95,15.35l-0.2-1.6l-0.7-1.5
		l-1-1.2l-1.4-0.9l-1.5-0.4h-1.6l-1.6,0.4l-1.3,0.9l-1.1,1.2l-0.7,1.5l-0.2,1.6"/>
	
		<polyline fill="none" stroke="#000000" stroke-width="0.51" stroke-linecap="round" stroke-linejoin="round" stroke-miterlimit="10" stroke-dasharray="18,3.6,3.6,3.6,3.6,3.6" points="
		116.263,216.631 116.392,215.953 116.762,215.528 117.28,215.418 	"/>
	
		<polyline fill="none" stroke="#000000" stroke-width="0.51" stroke-linecap="round" stroke-linejoin="round" stroke-miterlimit="10" stroke-dasharray="18,3.6,3.6,3.6,3.6,3.6" points="
		119.547,219.261 119.54,219.276 119.171,219.701 118.618,219.808 117.966,219.582 117.314,219.056 116.762,218.31 116.392,217.459 
		116.263,216.631 	"/>
	
		<polyline fill="none" stroke="#000000" stroke-width="0.51" stroke-linecap="round" stroke-linejoin="round" stroke-miterlimit="10" stroke-dasharray="18,3.6,3.6,3.6,3.6,3.6" points="
		63.406,250.523 63.313,249.929 63.048,249.318 62.652,248.784 62.184,248.406 	"/>
	
		<polyline fill="none" stroke="#000000" stroke-width="0.51" stroke-linecap="round" stroke-linejoin="round" stroke-miterlimit="10" stroke-dasharray="18,3.6,3.6,3.6,3.6,3.6" points="
		33.34,233.166 33.247,232.572 32.982,231.961 32.586,231.427 32.118,231.049 	"/>
	
		<polyline fill="none" stroke="#000000" stroke-width="0.51" stroke-linecap="round" stroke-linejoin="round" stroke-miterlimit="10" stroke-dasharray="18,3.6,3.6,3.6,3.6,3.6" points="
		87.214,198.061 86.695,198.171 86.326,198.596 86.196,199.274 86.326,200.102 86.695,200.954 87.248,201.699 87.9,202.225 
		88.552,202.452 89.104,202.345 89.459,201.951 	"/>
	
		<polyline fill="none" stroke="#000000" stroke-width="0.51" stroke-linecap="round" stroke-linejoin="round" stroke-miterlimit="10" stroke-dasharray="18,3.6,3.6,3.6,3.6,3.6" points="
		114.799,325.137 115.719,325.492 116.803,325.616 117.888,325.492 118.808,325.137 119.422,324.606 119.638,323.98 
		119.422,323.354 118.808,322.823 117.888,322.468 116.803,322.343 115.719,322.468 114.799,322.823 114.185,323.354 
		113.969,323.98 114.185,324.606 114.799,325.137 	"/>
	
		<polyline fill="none" stroke="#000000" stroke-width="0.51" stroke-linecap="round" stroke-linejoin="round" stroke-miterlimit="10" stroke-dasharray="18,3.6,3.6,3.6,3.6,3.6" points="
		44.645,284.638 45.565,284.993 46.649,285.117 47.734,284.993 48.654,284.638 49.268,284.107 49.484,283.481 49.268,282.855 
		48.654,282.324 47.734,281.969 46.649,281.844 45.565,281.969 44.645,282.324 44.031,282.855 43.815,283.481 44.031,284.107 
		44.645,284.638 	"/>
	
		<polyline fill="none" stroke="#000000" stroke-width="0.51" stroke-linecap="round" stroke-linejoin="round" stroke-miterlimit="10" stroke-dasharray="18,3.6,3.6,3.6,3.6,3.6" points="
		182.548,177.93 182.166,178.238 181.842,178.675 181.625,179.174 181.549,179.66 	"/>
	
		<polyline fill="none" stroke="#000000" stroke-width="0.51" stroke-linecap="round" stroke-linejoin="round" stroke-miterlimit="10" stroke-dasharray="18,3.6,3.6,3.6,3.6,3.6" points="
		156.408,163.376 156.423,163.359 156.817,163.042 157.21,162.906 157.543,162.97 157.766,163.227 157.844,163.635 157.766,164.135 
		157.759,164.156 	"/>
	
		<polyline fill="none" stroke="#000000" stroke-width="0.51" stroke-linecap="round" stroke-linejoin="round" stroke-miterlimit="10" stroke-dasharray="18,3.6,3.6,3.6,3.6,3.6" points="
		19.995,86.397 20.071,85.912 20.288,85.413 20.612,84.976 20.994,84.667 21.376,84.534 21.7,84.597 21.916,84.846 21.992,85.244 
		21.916,85.729 21.7,86.228 21.376,86.665 20.994,86.974 20.612,87.107 20.288,87.044 20.071,86.794 19.995,86.397 	"/>
	
		<line fill="none" stroke="#000000" stroke-width="0.51" stroke-linecap="round" stroke-linejoin="round" stroke-miterlimit="10" stroke-dasharray="18,3.6,3.6,3.6,3.6,3.6" x1="167.49" y1="170.39" x2="168.517" y2="170.983"/>
	
		<line fill="none" stroke="#000000" stroke-width="0.51" stroke-linecap="round" stroke-linejoin="round" stroke-miterlimit="10" stroke-dasharray="18,3.6,3.6,3.6,3.6,3.6" x1="165.185" y1="134.341" x2="164.335" y2="133.85"/>
	<g id="XMLID_756_">
		
			<polyline id="XMLID_755_" fill="none" stroke="#000000" stroke-width="0.51" stroke-linecap="round" stroke-linejoin="round" stroke-miterlimit="10" stroke-dasharray="18,3.6,3.6,3.6,3.6,3.6" stroke-dashoffset="16" points="
			45.524,65.262 49.695,67.67 49.695,83.293 43.404,79.662 43.404,97.144 		"/>
		
			<polyline id="XMLID_752_" fill="none" stroke="#000000" stroke-width="0.51" stroke-linecap="round" stroke-linejoin="round" stroke-miterlimit="10" stroke-dasharray="18,3.6,3.6,3.6,3.6,3.6" stroke-dashoffset="16" points="
			41.677,97.144 41.677,78.672 35.036,74.838 35.036,73.797 		"/>
		
			<line fill="none" stroke="#000000" stroke-width="0.51" stroke-linecap="round" stroke-linejoin="round" stroke-miterlimit="10" stroke-dasharray="18,3.6,3.6,3.6,3.6,3.6" stroke-dashoffset="16" x1="110.824" y1="196.082" x2="49.083" y2="231.724"/>
		
			<line fill="none" stroke="#000000" stroke-width="0.51" stroke-linecap="round" stroke-linejoin="round" stroke-miterlimit="10" stroke-dasharray="18,3.6,3.6,3.6,3.6,3.6" stroke-dashoffset="16" x1="87.385" y1="176.057" x2="20.038" y2="214.935"/>
		
			<line fill="none" stroke="#000000" stroke-width="0.51" stroke-linecap="round" stroke-linejoin="round" stroke-miterlimit="10" stroke-dasharray="18,3.6,3.6,3.6,3.6,3.6" stroke-dashoffset="16" x1="63.048" y1="249.318" x2="117.966" y2="217.614"/>
		
			<line fill="none" stroke="#000000" stroke-width="0.51" stroke-linecap="round" stroke-linejoin="round" stroke-miterlimit="10" stroke-dasharray="18,3.6,3.6,3.6,3.6,3.6" stroke-dashoffset="16" x1="87.9" y1="200.258" x2="32.982" y2="231.962"/>
		
			<line fill="none" stroke="#000000" stroke-width="0.51" stroke-linecap="round" stroke-linejoin="round" stroke-miterlimit="10" stroke-dasharray="18,3.6,3.6,3.6,3.6,3.6" stroke-dashoffset="16" x1="116.804" y1="323.98" x2="116.804" y2="198.837"/>
		
			<line fill="none" stroke="#000000" stroke-width="0.51" stroke-linecap="round" stroke-linejoin="round" stroke-miterlimit="10" stroke-dasharray="18,3.6,3.6,3.6,3.6,3.6" stroke-dashoffset="16" x1="46.65" y1="158.931" x2="46.65" y2="229.426"/>
		
			<line fill="none" stroke="#000000" stroke-width="0.51" stroke-linecap="round" stroke-linejoin="round" stroke-miterlimit="10" stroke-dasharray="18,3.6,3.6,3.6,3.6,3.6" stroke-dashoffset="16" x1="46.65" y1="237.652" x2="46.65" y2="255.477"/>
		
			<line fill="none" stroke="#000000" stroke-width="0.51" stroke-linecap="round" stroke-linejoin="round" stroke-miterlimit="10" stroke-dasharray="18,3.6,3.6,3.6,3.6,3.6" stroke-dashoffset="16" x1="46.65" y1="262.516" x2="46.65" y2="283.48"/>
		
			<line fill="none" stroke="#000000" stroke-width="0.51" stroke-linecap="round" stroke-linejoin="round" stroke-miterlimit="10" stroke-dasharray="18,3.6,3.6,3.6,3.6,3.6" stroke-dashoffset="16" x1="167.49" y1="170.39" x2="181.841" y2="178.675"/>
		
			<polyline id="XMLID_280_" fill="none" stroke="#000000" stroke-width="0.51" stroke-linecap="round" stroke-linejoin="round" stroke-miterlimit="10" stroke-dasharray="18,3.6,3.6,3.6,3.6,3.6" stroke-dashoffset="16" points="
			164.334,133.85 168.505,136.258 168.505,151.881 161.864,148.047 161.864,165.529 		"/>
		
			<polyline id="XMLID_753_" fill="none" stroke="#000000" stroke-width="0.51" stroke-linecap="round" stroke-linejoin="round" stroke-miterlimit="10" stroke-dasharray="18,3.6,3.6,3.6,3.6,3.6" stroke-dashoffset="16" points="
			160.137,165.529 160.137,147.162 153.847,143.531 153.847,142.385 		"/>
		
			<line fill="none" stroke="#000000" stroke-width="0.51" stroke-linecap="round" stroke-linejoin="round" stroke-miterlimit="10" stroke-dasharray="18,3.6,3.6,3.6,3.6,3.6" stroke-dashoffset="16" x1="20.993" y1="85.82" x2="31.71" y2="92.007"/>
	</g>
</g>
</svg>
