<?xml version="1.0" encoding="utf-8"?>
<!-- Generator: Adobe Illustrator 19.0.0, SVG Export Plug-In . SVG Version: 6.00 Build 0)  -->
<svg version="1.0" id="Layer_1" xmlns="http://www.w3.org/2000/svg" xmlns:xlink="http://www.w3.org/1999/xlink" x="0px" y="0px"
	 width="17.9px" height="19.1px" viewBox="0 0 17.9 19.1" enable-background="new 0 0 17.9 19.1" xml:space="preserve">
<g>
	
		<path fill="none" stroke="#000000" stroke-width="0.25" stroke-linecap="round" stroke-linejoin="round" stroke-miterlimit="10" d="
		M12.95,6.15l0.2-0.2l0.2-0.1l0.2-0.1l0.2-0.2l0.1-0.2l0.2-0.1l0.1-0.2l0.1-0.2l0.1-0.1l0.1-0.2l0.1-0.2v-0.2v-0.2v-0.2v-0.2v-0.1
		l-0.1-0.2l-0.1-0.2v-0.2l-0.2-0.2l-0.1-0.1l-0.1-0.2l-0.2-0.2l-0.1-0.1l-0.2-0.2l-0.2-0.1l-0.3-0.1l-0.2-0.2l-0.2-0.1l-0.3-0.1
		l-0.3-0.1l-0.2-0.1l-0.3-0.1l-0.3-0.1h-0.3l-0.3-0.1h-0.3l-0.3-0.1h-0.4h-0.3h-0.3h-0.3h-0.3h-0.4l-0.3,0.1h-0.3l-0.3,0.1l-0.3,0.1
		h-0.3l-0.3,0.1l-0.2,0.1l-0.3,0.1l-0.2,0.1l-0.3,0.2l-0.2,0.1l-0.2,0.1l-0.2,0.2l-0.2,0.1l-0.2,0.2l-0.1,0.2l-0.2,0.1l-0.1,0.2
		l-0.1,0.2l-0.1,0.1v0.2l-0.1,0.2v0.2v0.2v0.2v0.2v0.1l0.1,0.2l0.1,0.2l0.1,0.2l0.1,0.1l0.1,0.2l0.2,0.2l0.1,0.1l0.2,0.2l0.2,0.1
		l0.2,0.2l0.3,0.1l0.2,0.1l0.2,0.2l0.3,0.1l0.3,0.1l0.3,0.1h0.2l0.3,0.1l0.3,0.1h0.4l0.3,0.1h0.3h0.3h0.3h0.3h0.4h0.3h0.3l0.3-0.1
		h0.3l0.3-0.1l0.3-0.1l0.3-0.1l0.3-0.1l0.2-0.1l0.3-0.1l0.3-0.1L12.95,6.15 M1.15,5.65v0.1l0.1,0.2v0.2l0.1,0.3v0.2l0.1,0.2l0.1,0.2
		l0.1,0.2l0.2,0.2l0.1,0.2l0.2,0.2l0.2,0.2l0.2,0.2l0.2,0.1l0.3,0.2l0.2,0.2l0.3,0.1l0.3,0.2l0.3,0.1l0.3,0.2l0.3,0.1l0.3,0.1
		l0.3,0.1l0.4,0.1l0.3,0.1l0.4,0.1h0.3l0.4,0.1h0.4l0.4,0.1h0.3h0.4h0.4h0.4h0.3h0.4l0.4-0.1h0.4l0.3-0.1l0.4-0.1h0.3l0.4-0.1
		l0.3-0.1l0.4-0.1l0.3-0.1l0.3-0.2l0.3-0.1l0.3-0.1l0.3-0.2 M14.55,8.85l0.2-0.2l0.3-0.1l0.2-0.2l0.2-0.2l0.2-0.2l0.2-0.2l0.2-0.1
		l0.1-0.2l0.2-0.3l0.1-0.2l0.1-0.2l0.1-0.2v-0.2l0.1-0.2v-0.2v-0.3"/>
	<path fill="none" stroke="#000000" stroke-width="0.5" stroke-linecap="round" stroke-linejoin="round" stroke-miterlimit="10" d="
		M0.25,8.55l0.9-0.7v-0.1 M16.75,8.75l0.1,0.2l0.2,0.3l0.1,0.4l0.3,0.8l0.2,0.8 M7.15,6.75l0.2-0.1h0.2l0.2-0.1h0.3l0.2-0.1h0.3h0.2
		h0.3h0.2h0.3h0.2l0.3,0.1h0.2l0.3,0.1h0.2l0.1,0.1 M1.45,10.45l-0.1-0.2l-0.1-0.2l-0.1-0.3l-0.2-0.2l-0.1-0.3l-0.3-0.4l-0.3-0.3
		 M0.25,12.35v-3.8 M1.45,15.45l-0.1-0.2l-0.1-0.3l-0.1-0.3l-0.2-0.4l-0.1-0.3l-0.3-0.8l-0.3-0.8 M2.65,17.35l-0.3-0.4l-0.1-0.2
		l-0.2-0.2l-0.1-0.2l-0.2-0.3l-0.1-0.3l-0.2-0.3 M5.95,6.35l0.1-0.1l0.1-0.1l0.2-0.1l0.1-0.1 M6.45,5.95l0.2-0.1l0.2-0.1l0.2-0.1
		l0.3-0.1h0.2l0.2-0.1h0.3l0.2-0.1h0.3h0.2h0.3h0.2h0.3l0.2,0.1h0.3h0.2l0.3,0.1l0.2,0.1h0.2l0.2,0.1l0.2,0.1l0.2,0.1l0.2,0.1
		l0.1,0.2l0.2,0.1 M6.75,6.65l0.1-0.1l0.2-0.1h0.3l0.2-0.1l0.2-0.1h0.3h0.2l0.3-0.1h0.2h0.3h0.2h0.3l0.2,0.1h0.3l0.2,0.1h0.3
		l0.2,0.1l0.2,0.1h0.2l0.1,0.1 M5.45,6.15v-0.1l0.1-0.1v-0.2l0.1-0.1l0.1-0.2l0.1-0.1l0.2-0.1l0.1-0.1l0.2-0.2l0.1-0.1 M6.45,4.85
		l0.2-0.1l0.2-0.1h0.2l0.3-0.1l0.2-0.1h0.2l0.3-0.1h0.2h0.3l0.2-0.1h0.3h0.2l0.3,0.1h0.2h0.3l0.2,0.1h0.3l0.2,0.1l0.2,0.1l0.2,0.1
		l0.2,0.1l0.2,0.1l0.2,0.1l0.1,0.1l0.2,0.1l0.1,0.1l0.1,0.2l0.1,0.1l0.1,0.2v0.1l0.1,0.1v0.1 M5.75,6.25l0.1-0.1l0.2-0.1l0.1-0.1
		l0.2-0.1l0.1-0.2 M6.45,5.65l0.2-0.1h0.2l0.2-0.1l0.3-0.1l0.2-0.1h0.2l0.3-0.1h0.2h0.3l0.2-0.1h0.3l0.2,0.1h0.3h0.2h0.3l0.2,0.1
		h0.3l0.2,0.1l0.2,0.1l0.2,0.1l0.2,0.1l0.2,0.1l0.2,0.1l0.1,0.1l0.2,0.1l0.1,0.1v0.1 M11.35,18.75l0.8-0.3l0.6-0.2l0.6-0.2l0.6-0.3
		l0.6-0.3 M14.55,17.45l0.4-0.3l0.4-0.2l0.6-0.5l0.6-0.4l0.6-0.5l0.5-0.5 M17.65,15.05v-3.8 M14.55,12.45l0.4-0.2l0.4-0.2l0.6-0.3
		l0.6-0.2l0.6-0.2l0.5-0.1 M2.65,13.55l-0.3-0.9l-0.1-0.4l-0.2-0.4l-0.1-0.3l-0.2-0.4l-0.1-0.4l-0.2-0.3 M5.45,6.15v-0.1v-0.1v-0.2
		l0.1-0.1v-0.1l0.1-0.2l0.1-0.1l0.1-0.2l0.2-0.1l0.1-0.1l0.2-0.1l0.1-0.1 M6.45,4.65l0.2-0.1l0.2-0.1l0.2-0.1l0.3-0.1h0.2l0.2-0.1
		h0.3l0.2-0.1h0.3h0.2h0.3h0.2h0.3h0.2l0.3,0.1h0.2l0.3,0.1h0.2l0.2,0.1l0.2,0.1l0.2,0.1l0.2,0.1l0.2,0.1l0.1,0.1l0.2,0.2l0.1,0.1
		l0.1,0.1l0.1,0.2l0.1,0.1v0.1l0.1,0.2v0.1v0.2 M11.35,14.85l0.4-0.3l0.4-0.4l0.6-0.4l0.6-0.5l0.6-0.4l0.6-0.4 M4.75,5.65v-0.1v-0.2
		l0.1-0.1v-0.2l0.1-0.2l0.1-0.1l0.1-0.2l0.2-0.1l0.1-0.1l0.2-0.2l0.1-0.1l0.2-0.1 M5.95,3.95l0.2-0.1l0.3-0.1l0.2-0.1l0.2-0.1
		l0.3-0.1l0.2-0.1h0.3l0.3-0.1h0.2h0.3h0.3h0.3h0.3h0.2h0.3l0.3,0.1h0.3l0.2,0.1h0.3l0.2,0.1l0.3,0.1l0.2,0.1l0.2,0.1l0.2,0.1
		l0.2,0.1l0.2,0.2l0.1,0.1l0.2,0.1l0.1,0.2l0.1,0.1l0.1,0.2l0.1,0.1v0.2l0.1,0.2v0.1v0.1 M11.35,18.75v-3.9 M11.35,14.85l-1.1-0.4
		l-0.5-0.1l-0.6-0.2l-0.5-0.2l-0.6-0.1l-0.5-0.1l-0.6-0.1 M6.95,13.65l-0.3-0.1h-0.5l-0.5-0.1h-0.5h-0.5h-1l-1,0.1 M2.65,17.35v-3.8
		 M6.95,18.65l-0.3-0.1l-0.5-0.1l-0.5-0.1l-0.5-0.1l-0.5-0.2l-1-0.3l-1-0.4 M11.35,18.75h-1.1l-0.5,0.1h-0.6l-0.5-0.1h-0.6l-0.5-0.1
		h-0.6 M14.05,4.75l-0.1-0.1l-0.1-0.2l-0.1-0.1l-0.2-0.2l-0.1-0.1l-0.2-0.2l-0.2-0.1l-0.2-0.2l-0.2-0.1l-0.3-0.1l-0.2-0.1l-0.3-0.1
		l-0.2-0.1l-0.3-0.1l-0.3-0.1h-0.3l-0.3-0.1h-0.3l-0.3-0.1h-0.3h-0.3h-0.3h-0.3h-0.4h-0.3l-0.3,0.1h-0.3l-0.3,0.1l-0.3,0.1h-0.2
		l-0.3,0.1l-0.3,0.1l-0.2,0.1l-0.3,0.1l-0.2,0.2l-0.2,0.1l-0.2,0.1l-0.2,0.2l-0.1,0.1l-0.2,0.2l-0.1,0.2l-0.2,0.1l-0.1,0.2
		 M12.75,6.05l0.2-0.2l0.2-0.1l0.2-0.2l0.1-0.1l0.2-0.2l0.1-0.1l0.2-0.2l0.1-0.2v-0.1l0.1-0.2l0.1-0.2v-0.2v-0.2v-0.1v-0.2l-0.1-0.2
		v-0.2l-0.1-0.1l-0.1-0.2l-0.1-0.2l-0.1-0.1l-0.2-0.2l-0.1-0.2l-0.2-0.1l-0.2-0.1l-0.2-0.2l-0.2-0.1l-0.3-0.1l-0.2-0.1l-0.3-0.1
		l-0.2-0.1l-0.3-0.1l-0.3-0.1l-0.3-0.1h-0.3l-0.3-0.1h-0.3h-0.3h-0.3h-0.3h-0.3h-0.4h-0.3l-0.3,0.1h-0.3l-0.3,0.1h-0.3l-0.2,0.1
		l-0.3,0.1l-0.3,0.1l-0.2,0.1l-0.3,0.1l-0.2,0.2l-0.2,0.1l-0.2,0.1l-0.2,0.2l-0.1,0.1l-0.2,0.2l-0.1,0.1l-0.2,0.2l-0.1,0.2l-0.1,0.1
		v0.2l-0.1,0.2v0.2v0.2v0.1v0.2v0.2l0.1,0.2l0.1,0.1l0.1,0.2l0.1,0.2l0.1,0.2l0.2,0.1l0.1,0.2l0.2,0.1l0.2,0.2l0.2,0.1l0.2,0.1
		l0.3,0.1l0.2,0.1l0.3,0.1l0.2,0.1l0.3,0.1l0.3,0.1l0.3,0.1h0.3l0.3,0.1h0.3h0.3h0.3h0.3h0.3h0.3h0.4l0.3-0.1h0.3l0.2-0.1h0.3
		l0.3-0.1l0.3-0.1l0.2-0.1l0.3-0.1l0.2-0.1L12.75,6.05 M6.95,13.65h0.4l0.4,0.1h0.4h0.4h0.3h0.4h0.4h0.4h0.4l0.4-0.1h0.3l0.4-0.1
		l0.4-0.1l0.3-0.1l0.4-0.1l0.3-0.1l0.4-0.1l0.3-0.1l0.3-0.2l0.3-0.1l0.3-0.2 M14.55,12.45l0.2-0.1l0.3-0.2l0.2-0.2l0.2-0.2l0.2-0.2
		l0.2-0.2l0.2-0.2l0.2-0.2l0.1-0.2l0.1-0.2l0.1-0.2l0.1-0.2l0.1-0.2v-0.3v-0.2v-0.2 M1.15,9.25v0.1l0.1,0.2v0.2l0.1,0.3v0.2l0.1,0.2
		 M1.45,10.45l0.1,0.2l0.2,0.2l0.1,0.2l0.2,0.2l0.1,0.2l0.2,0.2l0.3,0.2l0.2,0.2l0.2,0.2l0.3,0.1l0.3,0.2l0.3,0.2l0.3,0.1l0.3,0.1
		l0.3,0.2l0.3,0.1l0.4,0.1l0.3,0.1l0.4,0.1h0.4l0.3,0.1 M16.75,9.25v-3.6 M1.15,5.65v3.6 M16.75,5.65v-0.1v-0.3v-0.2l-0.1-0.3v-0.3
		l-0.1-0.2l-0.1-0.2l-0.1-0.3l-0.2-0.2l-0.1-0.3l-0.2-0.2l-0.1-0.2l-0.2-0.2l-0.2-0.2l-0.3-0.2l-0.2-0.2l-0.2-0.2l-0.3-0.2l-0.3-0.2
		l-0.3-0.1l-0.3-0.2l-0.3-0.1l-0.3-0.1l-0.3-0.2l-0.3-0.1l-0.4-0.1h-0.3l-0.4-0.1l-0.3-0.1h-0.4l-0.3-0.1h-0.4h-0.3h-0.4h-0.4h-0.3
		h-0.4l-0.3,0.1h-0.4l-0.3,0.1h-0.4l-0.3,0.1l-0.4,0.1l-0.3,0.1l-0.3,0.1l-0.4,0.2l-0.3,0.1l-0.3,0.1l-0.3,0.2l-0.3,0.2l-0.2,0.1
		l-0.3,0.2l-0.2,0.2l-0.3,0.3l-0.2,0.2l-0.2,0.2l-0.2,0.2l-0.1,0.3l-0.2,0.2l-0.1,0.3l-0.1,0.2l-0.1,0.3l-0.1,0.2l-0.1,0.3v0.3v0.2
		l-0.1,0.3"/>
</g>
</svg>
