<?xml version="1.0" encoding="utf-8"?>
<!-- Generator: Adobe Illustrator 19.0.0, SVG Export Plug-In . SVG Version: 6.00 Build 0)  -->
<svg version="1.0" id="Layer_1" xmlns="http://www.w3.org/2000/svg" xmlns:xlink="http://www.w3.org/1999/xlink" x="0px" y="0px"
	 width="22.6px" height="24.8px" viewBox="0 0 22.6 24.8" enable-background="new 0 0 22.6 24.8" xml:space="preserve">
<g>
	
		<path fill="none" stroke="#000000" stroke-width="0.25" stroke-linecap="round" stroke-linejoin="round" stroke-miterlimit="10" d="
		M16.25,7.75l0.3-0.2l0.2-0.2l0.3-0.2l0.2-0.2l0.2-0.2l0.2-0.2l0.2-0.2l0.1-0.2l0.1-0.3l0.1-0.2l0.1-0.2v-0.3v-0.2v-0.2v-0.3v-0.2
		l-0.1-0.2l-0.1-0.3l-0.1-0.2l-0.2-0.2l-0.1-0.2l-0.2-0.3l-0.2-0.2l-0.3-0.2l-0.2-0.1l-0.3-0.2l-0.3-0.2l-0.3-0.2l-0.3-0.1l-0.3-0.1
		l-0.4-0.2l-0.3-0.1l-0.4-0.1l-0.4-0.1h-0.4l-0.4-0.1l-0.4-0.1h-0.4h-0.4h-0.4h-0.4h-0.4h-0.4l-0.4,0.1h-0.4l-0.4,0.1l-0.4,0.1
		l-0.4,0.1l-0.3,0.1l-0.4,0.1l-0.3,0.2l-0.3,0.1l-0.3,0.2l-0.3,0.1l-0.3,0.2l-0.3,0.2l-0.2,0.2l-0.2,0.2l-0.2,0.2l-0.2,0.2l-0.1,0.2
		l-0.2,0.3l-0.1,0.2v0.2l-0.1,0.3v0.2v0.2v0.3v0.2l0.1,0.2l0.1,0.3l0.1,0.2l0.1,0.2l0.2,0.2l0.1,0.3l0.2,0.2l0.3,0.2l0.2,0.2
		l0.3,0.1l0.2,0.2l0.3,0.2l0.3,0.1l0.4,0.2l0.3,0.1l0.4,0.1l0.3,0.1l0.4,0.1l0.4,0.1l0.4,0.1l0.4,0.1h0.4h0.4h0.4h0.4h0.4h0.4h0.4
		l0.4-0.1l0.4-0.1h0.4l0.4-0.1l0.3-0.1l0.4-0.2l0.3-0.1l0.4-0.1l0.3-0.2L16.25,7.75 M1.35,7.25L1.35,7.25v0.3l0.1,0.3v0.2l0.1,0.3
		l0.1,0.3l0.2,0.3l0.1,0.2l0.2,0.3l0.2,0.2l0.2,0.3l0.2,0.2l0.3,0.3l0.3,0.2l0.3,0.2l0.3,0.2l0.3,0.2l0.4,0.2l0.4,0.2l0.3,0.2
		l0.4,0.2l0.4,0.1l0.5,0.1l0.4,0.2l0.5,0.1l0.4,0.1l0.5,0.1l0.4,0.1h0.5l0.5,0.1h0.5h0.5h0.4h0.5h0.5h0.5l0.5-0.1h0.5l0.4-0.1
		l0.5-0.1l0.4-0.1l0.5-0.1l0.4-0.2l0.4-0.1l0.5-0.1l0.4-0.2l0.3-0.2l0.4-0.2l0.4-0.2 M18.35,11.25l0.3-0.2l0.3-0.2l0.3-0.2l0.3-0.2
		l0.3-0.3l0.2-0.2l0.2-0.3l0.2-0.2l0.2-0.3l0.1-0.2l0.2-0.3l0.1-0.3l0.1-0.3v-0.2l0.1-0.3v-0.3"/>
	<path fill="none" stroke="#000000" stroke-width="0.5" stroke-linecap="round" stroke-linejoin="round" stroke-miterlimit="10" d="
		M0.25,11.05l1-0.9l0.1-0.1 M21.25,11.35l0.1,0.2l0.2,0.5l0.1,0.4l0.4,1l0.3,1 M9.05,8.65v-0.1h0.3l0.3-0.1l0.3-0.1h0.4l0.3-0.1h0.3
		h0.3h0.4h0.3l0.3,0.1h0.4l0.3,0.1l0.3,0.1h0.3v0.1 M1.75,13.55l-0.1-0.3l-0.2-0.3l-0.2-0.3l-0.2-0.3l-0.1-0.3l-0.4-0.6l-0.3-0.4
		 M0.25,16.35v-5.3 M1.75,20.25l-0.1-0.3l-0.2-0.4l-0.2-0.4l-0.2-0.4l-0.1-0.5l-0.4-0.9l-0.3-1 M3.15,22.65l-0.3-0.4l-0.2-0.3
		l-0.2-0.3l-0.2-0.3l-0.2-0.4l-0.1-0.3l-0.2-0.4 M7.35,8.15v-0.1l0.2-0.1l0.2-0.2l0.2-0.1 M7.95,7.65l0.3-0.2l0.2-0.1l0.3-0.1
		l0.3-0.1l0.3-0.1h0.3l0.3-0.1h0.4l0.3-0.1h0.3h0.3h0.4h0.3l0.3,0.1h0.4l0.3,0.1h0.3l0.3,0.1l0.3,0.1l0.3,0.1l0.2,0.1l0.3,0.2
		l0.2,0.1l0.2,0.2l0.2,0.1v0.1 M8.55,8.45h0.2l0.3-0.1l0.3-0.1l0.3-0.1l0.3-0.1h0.4h0.3l0.3-0.1h0.3h0.4l0.3,0.1h0.3h0.4l0.3,0.1
		l0.3,0.1l0.3,0.1l0.3,0.1h0.2 M6.65,7.75L6.65,7.75l0.1-0.2l0.1-0.2l0.1-0.2l0.1-0.2l0.1-0.1l0.2-0.2l0.2-0.2l0.2-0.1l0.2-0.1
		 M7.95,6.25l0.3-0.2l0.2-0.1l0.3-0.1l0.3-0.1l0.3-0.1l0.3-0.1h0.3l0.4-0.1h0.3h0.3h0.3h0.4h0.3h0.3l0.4,0.1h0.3l0.3,0.1l0.3,0.1
		l0.3,0.1l0.3,0.1l0.2,0.1l0.3,0.2l0.2,0.1l0.2,0.1l0.2,0.2l0.2,0.2l0.1,0.1l0.1,0.2l0.1,0.2l0.1,0.2l0.1,0.2 M7.15,8.05v-0.1
		l0.2-0.2l0.2-0.1l0.2-0.2l0.2-0.1 M7.95,7.35l0.3-0.1l0.2-0.2l0.3-0.1l0.3-0.1l0.3-0.1h0.3l0.3-0.1h0.4l0.3-0.1h0.3h0.3h0.4h0.3
		l0.3,0.1h0.4l0.3,0.1h0.3l0.3,0.1l0.3,0.1l0.3,0.1l0.2,0.2l0.3,0.1l0.2,0.1l0.2,0.2l0.2,0.1l0.2,0.2v0.1 M14.25,24.45l0.5-0.2
		l0.5-0.1l0.8-0.3l0.7-0.3l0.8-0.3l0.8-0.5 M18.35,22.75l0.5-0.3l0.6-0.4l0.7-0.5l0.7-0.6l0.8-0.6l0.7-0.6 M22.35,19.75v-5.3
		 M18.35,16.05l0.5-0.3l0.6-0.2l0.7-0.4l0.7-0.3l0.8-0.2l0.7-0.2 M3.15,17.45l-0.3-1.1l-0.2-0.5l-0.2-0.5l-0.2-0.5l-0.2-0.5
		l-0.1-0.4l-0.2-0.4 M6.65,7.75v-0.1v-0.2l0.1-0.2l0.1-0.2l0.1-0.2l0.1-0.2l0.1-0.1l0.2-0.2l0.2-0.2l0.2-0.1l0.2-0.1 M7.95,5.95
		l0.3-0.2l0.2-0.1l0.3-0.1l0.3-0.1l0.3-0.1l0.3-0.1h0.3l0.4-0.1h0.3h0.3h0.3h0.4h0.3h0.3l0.4,0.1h0.3l0.3,0.1l0.3,0.1l0.3,0.1
		l0.3,0.1l0.2,0.1l0.3,0.2l0.2,0.1l0.2,0.1l0.2,0.2l0.2,0.2l0.1,0.1l0.1,0.2l0.1,0.2l0.1,0.2l0.1,0.2v0.2v0.1 M14.25,19.15l0.5-0.5
		l0.5-0.4l0.8-0.6l0.7-0.6l0.8-0.5l0.8-0.5 M5.65,7.15v-0.1v-0.3l0.1-0.2l0.1-0.2l0.1-0.2l0.1-0.2l0.2-0.2l0.1-0.1l0.2-0.2l0.3-0.2
		l0.2-0.2l0.2-0.1 M7.25,4.95l0.3-0.2l0.3-0.1l0.3-0.1l0.3-0.1l0.3-0.1l0.4-0.1l0.3-0.1l0.4-0.1h0.3h0.4l0.3-0.1h0.4h0.4h0.3
		l0.4,0.1h0.4l0.3,0.1l0.4,0.1h0.3l0.3,0.1l0.3,0.2l0.3,0.1l0.3,0.1l0.3,0.1l0.2,0.2l0.3,0.2l0.2,0.1l0.2,0.2l0.2,0.2l0.1,0.2
		l0.2,0.2l0.1,0.2l0.1,0.2v0.2l0.1,0.2v0.2 M14.25,24.45v-5.3 M14.25,19.15l-1.3-0.5l-0.7-0.2l-0.7-0.3l-0.7-0.1l-0.7-0.2l-0.7-0.2
		l-0.7-0.1 M8.75,17.55h-0.4l-0.7-0.1l-0.6-0.1h-0.6h-0.7h-1.3l-1.3,0.1 M3.15,22.65v-5.2 M8.75,24.25h-0.4l-0.7-0.2l-0.6-0.1
		l-0.6-0.2l-0.7-0.2l-1.3-0.4l-1.3-0.5 M14.25,24.45h-1.3l-0.7,0.1h-0.7l-0.7-0.1h-0.7l-0.7-0.1l-0.7-0.1 M17.85,6.05v-0.1l-0.2-0.2
		l-0.1-0.2l-0.2-0.2l-0.2-0.2l-0.3-0.2l-0.2-0.2l-0.3-0.2l-0.3-0.2l-0.3-0.1l-0.3-0.2l-0.3-0.1l-0.3-0.1l-0.4-0.1l-0.4-0.1l-0.3-0.1
		l-0.4-0.1l-0.4-0.1h-0.4h-0.4l-0.4-0.1h-0.4h-0.4h-0.4l-0.4,0.1h-0.4l-0.4,0.1l-0.4,0.1h-0.4l-0.3,0.1l-0.4,0.2l-0.3,0.1l-0.4,0.1
		l-0.3,0.2l-0.3,0.1l-0.3,0.2l-0.2,0.1l-0.3,0.2l-0.2,0.2l-0.2,0.2l-0.2,0.2l-0.2,0.2l-0.1,0.3l-0.1,0.1 M16.15,7.65l0.3-0.2
		l0.3-0.1l0.2-0.2l0.2-0.2l0.2-0.2l0.2-0.2l0.2-0.2l0.1-0.3l0.1-0.2l0.1-0.2l0.1-0.2v-0.3v-0.2v-0.2v-0.3l-0.1-0.2v-0.2l-0.1-0.3
		l-0.1-0.2l-0.2-0.2l-0.1-0.2l-0.2-0.2l-0.2-0.2l-0.3-0.2l-0.2-0.2l-0.3-0.2l-0.3-0.1l-0.3-0.2l-0.3-0.2l-0.3-0.1l-0.3-0.1l-0.4-0.1
		l-0.4-0.1l-0.3-0.1l-0.4-0.1l-0.4-0.1h-0.4h-0.4l-0.4-0.1h-0.4h-0.4l-0.4,0.1h-0.4h-0.4l-0.4,0.1l-0.4,0.1l-0.4,0.1h-0.3l-0.4,0.2
		l-0.3,0.1l-0.4,0.1l-0.3,0.2l-0.3,0.1l-0.3,0.2l-0.2,0.2l-0.3,0.1l-0.2,0.2l-0.2,0.2l-0.2,0.2l-0.2,0.2l-0.1,0.3l-0.2,0.2l-0.1,0.2
		v0.2l-0.1,0.3v0.2v0.2v0.3v0.2l0.1,0.2l0.1,0.3l0.1,0.2l0.1,0.2l0.2,0.2l0.1,0.2l0.2,0.2l0.2,0.2l0.3,0.2l0.2,0.2l0.3,0.2l0.3,0.1
		l0.3,0.2l0.3,0.1l0.4,0.2l0.3,0.1l0.4,0.1l0.3,0.1l0.4,0.1h0.4l0.4,0.1h0.4l0.4,0.1h0.4h0.4h0.4l0.4-0.1h0.4l0.4-0.1h0.4l0.4-0.1
		l0.3-0.1l0.4-0.1l0.3-0.1l0.4-0.1l0.3-0.2l0.3-0.1L16.15,7.65 M8.75,17.55l0.5,0.1h0.4l0.5,0.1h0.5h0.5h0.5h0.5h0.5l0.5-0.1
		l0.5-0.1h0.5l0.4-0.1l0.5-0.1l0.4-0.1l0.5-0.2l0.4-0.1l0.4-0.1l0.4-0.2l0.4-0.2l0.4-0.2l0.4-0.2 M18.35,16.05l0.3-0.2l0.3-0.2
		l0.3-0.2l0.3-0.3l0.3-0.2l0.2-0.2l0.2-0.3l0.2-0.3l0.2-0.2l0.2-0.3l0.1-0.3l0.1-0.3l0.1-0.2v-0.3l0.1-0.3v-0.2 M1.35,12.05v0.1v0.2
		l0.1,0.3l0.1,0.3v0.3l0.2,0.3 M1.75,13.55l0.1,0.2l0.2,0.3l0.2,0.3l0.2,0.2l0.2,0.3l0.2,0.2l0.3,0.3l0.3,0.2l0.3,0.2l0.4,0.2
		l0.3,0.2l0.4,0.2l0.4,0.2l0.4,0.2l0.4,0.1l0.4,0.2l0.4,0.1l0.5,0.1l0.4,0.1l0.5,0.1l0.5,0.1 M21.25,12.05v-4.8 M1.35,7.25v4.8
		 M21.25,7.25v-0.2l-0.1-0.3v-0.4l-0.1-0.3l-0.1-0.3l-0.1-0.3l-0.1-0.4l-0.1-0.3l-0.2-0.3l-0.2-0.3l-0.2-0.3l-0.2-0.3l-0.3-0.2
		l-0.2-0.3l-0.3-0.3l-0.3-0.2l-0.3-0.2l-0.4-0.3l-0.3-0.2l-0.4-0.2l-0.4-0.2l-0.4-0.2l-0.4-0.1l-0.4-0.2l-0.4-0.1l-0.5-0.1l-0.4-0.1
		l-0.5-0.1l-0.4-0.1l-0.5-0.1h-0.4h-0.5l-0.4-0.1h-0.5h-0.4l-0.5,0.1h-0.5h-0.4l-0.5,0.1l-0.4,0.1l-0.5,0.1l-0.4,0.1l-0.4,0.1
		l-0.5,0.2l-0.4,0.1l-0.4,0.2l-0.4,0.2l-0.4,0.1l-0.3,0.3l-0.4,0.2l-0.4,0.2l-0.3,0.3l-0.3,0.2l-0.3,0.3l-0.3,0.3l-0.2,0.3l-0.2,0.3
		l-0.2,0.3l-0.2,0.3l-0.2,0.4l-0.1,0.3l-0.1,0.3l-0.1,0.3l-0.1,0.4v0.3l-0.1,0.4v0.2"/>
</g>
</svg>
