<?xml version="1.0" encoding="utf-8"?>
<!-- Generator: Adobe Illustrator 19.0.0, SVG Export Plug-In . SVG Version: 6.00 Build 0)  -->
<svg version="1.0" id="Layer_1" xmlns="http://www.w3.org/2000/svg" xmlns:xlink="http://www.w3.org/1999/xlink" x="0px" y="0px"
	 width="316.2px" height="11.8px" viewBox="0 0 316.2 11.8" enable-background="new 0 0 316.2 11.8" xml:space="preserve">
<g>
	<path fill="none" stroke="#000000" stroke-width="0.5" stroke-linecap="round" stroke-linejoin="round" stroke-miterlimit="10" d="
		M314.45,9.65l0.1-0.1l0.6-1.5l0.4-1.6v-1.5l-0.2-1l-0.2-0.6 M315.45,3.95L315.45,3.95l0.3,0.7l0.2,0.8v0.9l-0.2,0.9l-0.3,0.7
		 M5.15,0.25h0.2l0.7,0.3l0.8,0.8l0.7,1.5l0.2,1.4l0.1,1.6l-0.2,1.5l-0.4,1.4l-0.7,1.3l-0.9,1 M7.45,0.35l0.7,0.1l1,0.9l0.6,1.1
		l0.3,1.4l0.1,1.5l-0.1,1.3l-0.2,0.9l-0.1,0.6l-0.3,0.8l-0.5,0.9l-0.8,0.9l-1,0.7l-0.9,0.1 M9.75,0.25l0.8,0.2l0.6,0.5l0.5,0.7
		l0.4,0.9l0.2,0.8l0.2,0.8v1.9l-0.4,2l-0.7,1.7l-1,1.2l-1.1,0.6h-0.6 M12.05,0.25h0.2l0.7,0.3l0.6,0.5l0.6,1.1l0.4,1.3l0.2,1.5
		l-0.1,1.7l-0.2,1.4l-0.4,1l-0.6,1.1l-0.8,0.8l-0.9,0.5l-0.8,0.1 M14.35,0.25h0.3l0.7,0.3l0.7,0.7l0.6,1.2l0.3,1.3l0.2,1.3l-0.1,1.3
		l-0.2,1.3l-0.4,1.2l-0.6,1l-0.8,1l-0.7,0.5l-0.7,0.2h-0.4 M16.75,0.25L16.75,0.25l0.7,0.2l0.5,0.4l0.5,0.5l0.5,1l0.2,0.8l0.2,1.2
		l0.1,0.8v0.6l-0.1,1l-0.3,1.3l-0.4,0.9l-0.3,0.7l-0.7,0.9l-0.8,0.7l-0.9,0.3h-0.4 M19.05,0.35l0.2-0.1l0.7,0.3l0.5,0.4l0.5,0.8
		l0.4,0.8l0.2,0.9l0.2,1.2v0.6v0.7l-0.2,1.1l-0.3,1.4l-0.4,0.8l-0.4,0.7l-0.7,0.9l-0.9,0.6l-0.9,0.1h-0.1 M21.35,0.35l0.2-0.1
		l0.7,0.3l0.7,0.6l0.5,1l0.4,1.1l0.2,1.3v1.6l-0.3,1.5l-0.4,1.2l-0.6,1.2l-1,1l-1,0.5h-0.6 M23.65,0.35l0.2-0.1l0.9,0.4l0.8,1
		l0.5,1.3l0.3,1.6v1.7l-0.4,1.9l-0.8,1.7l-1.3,1.3l-1.4,0.4 M25.95,0.35l0.3-0.1l0.7,0.3l0.7,0.8l0.6,1.2l0.3,1.4l0.1,1.6l-0.2,1.8
		l-0.5,1.6l-0.4,0.8l-0.5,0.7l-0.5,0.5l-0.6,0.4l-1.1,0.2 M28.25,0.25l0.7,0.2l0.8,0.7l0.9,1.6l0.3,2.1l-0.1,2.3l-0.6,1.8l-1.1,1.7
		l-1.2,0.8l-0.7,0.1h-0.1 M30.55,0.35l0.2-0.1l0.8,0.4l0.8,0.8l0.5,1.2l0.4,1.7v2l-0.4,2l-0.9,1.7l-1.2,1.2l-1,0.3h-0.3 M32.95,0.25
		h0.3l0.9,0.6l0.9,1.2l0.5,1.7l0.1,2.1l-0.4,2.1l-0.8,1.8l-1.1,1.3l-1.3,0.5h-0.3 M35.25,0.25h0.2l0.4,0.1l0.5,0.4l0.6,0.6l0.5,1.1
		l0.3,1.1l0.2,1.3v0.8v0.5l-0.1,0.5l-0.1,0.6l-0.3,1.2l-0.6,1.2l-0.9,1.1l-1.2,0.8h-0.7 M37.55,0.25h0.2l0.6,0.2l0.5,0.4l0.5,0.7
		l0.4,0.8l0.3,0.9l0.2,1.1v1.1l-0.1,1.2l-0.2,1.1l-0.4,1.1l-0.4,0.9l-0.6,0.8l-0.7,0.5l-0.3,0.3h-0.2l-0.1,0.1h-0.1h-0.1l-0.4,0.1
		h-0.3 M39.85,0.25h0.1l0.5,0.1l0.6,0.4l0.5,0.6l0.4,0.8l0.3,0.9l0.3,1v1.2v1.1l-0.2,1.2l-0.4,1l-0.4,1l-0.6,0.8l-0.6,0.6l-0.7,0.4
		l-0.7,0.2h-0.2 M42.15,0.25l1.1,0.4l0.2,0.2l0.2,0.2l0.5,0.8l0.2,0.5l0.2,0.4l0.1,0.4l0.1,0.5l0.1,2.1l-0.1,1.2l-0.3,1.2l-0.4,1.1
		l-0.6,0.9l-0.6,0.7l-0.7,0.5l-0.8,0.2h-0.3 M44.45,0.25l0.4,0.1l0.6,0.2l0.5,0.5l0.5,0.7l0.2,0.5l0.2,0.4l0.2,0.9l0.1,0.6v0.6v1.2
		l-0.1,1.1l-0.3,1.1l-0.4,1l-0.3,0.6l-0.4,0.6l-0.2,0.2l-0.3,0.3l-0.4,0.3l-0.3,0.2l-0.3,0.1l-0.2,0.1h-0.6 M46.75,0.25h0.3l0.6,0.3
		l0.2,0.1l0.1,0.1l0.1,0.1l0.2,0.2l0.3,0.4l0.2,0.4l0.2,0.3l0.1,0.2l0.2,0.9l0.1,0.6l0.1,0.6l0.1,0.6v0.2l-0.1,0.9l-0.2,1.6
		l-0.3,0.8l-0.2,0.5l-0.5,0.8l-0.6,0.8l-0.6,0.5l-0.5,0.3l-0.5,0.1h-0.4 M49.15,0.25h0.1l0.4,0.1l0.4,0.2l0.3,0.2l0.1,0.2l0.3,0.3
		l0.2,0.3l0.2,0.5l0.1,0.2l0.3,0.8l0.2,1.1l0.1,0.5v0.4v0.1v0.8l-0.2,1.4l-0.2,0.6l-0.2,0.5l-0.1,0.4l-0.5,0.9l-0.5,0.7l-0.7,0.6
		l-0.7,0.4l-0.6,0.1h-0.2 M51.45,0.25l0.7,0.2l0.6,0.4l0.5,0.7l0.4,0.9l0.4,2v2l-0.3,1.7l-0.2,0.4l-0.2,0.5l-0.3,0.6l-0.7,1
		l-0.9,0.6l-0.8,0.3h-0.4 M53.75,0.25l0.5,0.1l0.6,0.3l0.5,0.6l0.4,0.7l0.4,0.9l0.2,1l0.1,1.1v1.2l-0.2,1.1l-0.3,1.1l-0.4,1
		l-0.6,0.9l-0.6,0.6l-0.7,0.5l-0.7,0.2h-0.4 M56.05,0.25l0.4,0.1l0.6,0.2l0.2,0.3l0.2,0.1l0.1,0.1v0.1l0.3,0.3l0.1,0.3l0.3,0.5
		l0.1,0.4l0.3,1l0.1,1.1v1.2v0.5l-0.1,0.3v0.1v0.1v0.1l-0.1,0.2l-0.2,0.9l-0.6,1.3l-0.2,0.5l-0.4,0.4l-0.3,0.4l-0.7,0.5l-0.7,0.3
		h-0.5 M58.35,0.25h0.1h0.2l0.6,0.3l0.5,0.4l0.5,0.7l0.4,0.8l0.3,1l0.1,1.1v1.1l-0.1,1.2l-0.2,1.1l-0.4,1l-0.5,0.9l-0.6,0.8
		l-0.6,0.5l-0.8,0.4h-0.5h-0.1 M60.65,0.25h0.2l0.6,0.2l0.5,0.4l0.5,0.6l0.4,0.8l0.1,0.4l0.1,0.2l0.1,0.2l0.2,1v0.4v0.2v0.1v0.1
		l0.1,0.3l-0.1,1l-0.2,1.4l-0.2,0.7l-0.2,0.5l-0.5,1l-0.5,0.7l-0.7,0.6l-0.7,0.4l-0.7,0.1h-0.1 M63.05,0.25L63.05,0.25l0.6,0.1
		l0.5,0.4l0.5,0.6l0.5,0.7l0.3,1l0.2,1l0.1,1.1l-0.1,1.2l-0.2,1.1l-0.3,1.1l-0.4,1l-0.6,0.8l-0.6,0.6l-0.7,0.4l-0.8,0.2h-0.2
		 M65.35,0.25l1,0.4l0.6,0.6l0.4,0.7l0.3,0.9l0.3,1l0.1,1.1l-0.1,1.2l-0.1,1.1l-0.3,1.1l-0.4,1l-0.6,0.8l-0.6,0.7l-0.7,0.5l-0.7,0.2
		h-0.4 M67.65,0.25h0.1l0.3,0.1l0.3,0.1l0.5,0.3l0.5,0.6l0.5,1.1l0.2,0.7l0.2,0.5l0.1,1.1v1.2l-0.2,1.1l-0.2,1.1l-0.4,1l-0.5,0.9
		l-0.6,0.7l-0.7,0.5l-0.7,0.3h-0.6 M69.95,0.25h0.1h0.2l0.6,0.3l0.5,0.4l0.5,0.7l0.3,0.8l0.3,1l0.2,1.1v1.1l-0.1,1.2l-0.2,1.1
		l-0.4,1l-0.5,0.9l-0.6,0.8l-0.7,0.5l-0.7,0.3l-0.7,0.1 M72.25,0.25h0.2l0.5,0.2l0.3,0.2l0.2,0.1l0.1,0.1l0.3,0.3l0.3,0.5l0.3,0.7
		l0.3,1.1l0.2,1.5l-0.1,1.9l-0.1,0.7l-0.2,0.6l-0.2,0.6l-0.5,1l-0.6,0.7l-0.6,0.6l-0.7,0.4l-0.7,0.1h-0.1 M74.55,0.25h0.3l0.1,0.1
		h0.1l0.2,0.1l0.7,0.5l0.6,0.8l0.4,0.9l0.2,1l0.1,2v0.9l-0.2,0.9l-0.3,1.1l-0.5,1l-0.3,0.5l-0.4,0.5l-0.3,0.3l-0.2,0.1l-0.3,0.3
		l-0.6,0.2l-0.5,0.1h-0.2 M76.85,0.35h0.5l0.5,0.3l0.6,0.5l0.5,0.8l0.4,1.2l0.2,1.6l0.1,0.4v0.1v0.1v0.3l-0.2,1.3l-0.2,1l-0.4,1
		l-0.6,1.1l-0.8,0.9l-1.1,0.6h-0.6 M79.25,0.25l0.5,0.1l0.6,0.3l0.5,0.6l0.4,0.8l0.4,0.9l0.2,1l0.1,1.1l-0.2,2.3l-0.7,1.9l-0.5,0.8
		l-0.5,0.7l-0.7,0.5l-0.8,0.3h-0.5 M81.55,0.25h0.2l0.6,0.3l0.3,0.1l0.1,0.2l0.2,0.1l0.2,0.3l0.3,0.6l0.3,0.5l0.1,0.3l0.1,0.3
		l0.3,1.6v1.1l-0.2,1.3l-0.3,1.3l-0.5,1.3l-0.4,0.6l-0.4,0.4l-0.7,0.6l-0.7,0.4h-0.7 M83.85,0.25h0.1l0.6,0.2l0.6,0.4l0.4,0.6
		l0.5,0.8l0.3,1l0.1,1l0.1,1.1l-0.1,1.2l-0.2,1.1l-0.3,1.1l-0.5,0.9l-0.6,0.8l-0.6,0.6l-0.7,0.4l-0.8,0.1h-0.1 M86.15,0.25l0.6,0.1
		l0.7,0.5l0.7,1l0.2,0.6l0.2,0.6l0.2,1l0.1,1.1v1.2l-0.2,1.1l-0.3,1.1l-0.5,0.9l-0.5,0.9l-0.7,0.6l-0.8,0.5l-0.9,0.1 M88.45,0.25
		l0.5,0.1l0.6,0.3l0.5,0.5l0.4,0.8l0.2,0.4l0.2,0.7l0.3,2l-0.2,2.2l-0.6,1.8l-0.8,1.4l-1.1,0.9l-1.1,0.2 M90.75,0.25l0.4,0.1
		l0.6,0.2l0.5,0.5l0.5,0.7l0.3,0.9l0.3,1l0.1,1.1v1.1l-0.1,1.2l-0.3,1.1l-0.4,1l-0.5,0.9l-0.6,0.7l-0.7,0.5l-0.7,0.3h-0.5
		 M93.05,0.25h0.2l0.3,0.1l0.4,0.2l0.5,0.4l0.5,0.7l0.4,0.8l0.3,1l0.1,1.1l0.1,1.1l-0.2,1.1l-0.2,1.2l-0.4,1l-0.5,0.9l-0.5,0.8
		l-0.7,0.5l-0.7,0.3l-0.7,0.1 M95.45,0.25h0.1l0.6,0.2l0.5,0.4l0.5,0.6l0.4,0.8l0.3,0.9l0.2,1.1l0.1,1.1l-0.1,1.2l-0.2,1.1l-0.4,1.1
		l-0.4,0.9l-0.6,0.8l-0.6,0.6l-0.8,0.4l-0.7,0.1h-0.1 M97.75,0.25L97.75,0.25l0.6,0.1l0.6,0.4l0.1,0.1l0.1,0.2l0.2,0.3l0.4,0.5
		l0.2,0.7l0.2,0.4l0.2,1.1l0.1,1.1l-0.1,1.2v0.2v0.2v0.1l-0.1,0.1l-0.1,0.6l-0.3,1.1l-0.7,1.3l-0.3,0.4l-0.3,0.4l-0.3,0.2l-0.7,0.4
		l-0.7,0.2h-0.3 M100.05,0.25h0.1h0.2l0.2,0.1l0.5,0.3l0.6,0.5l0.4,0.7l0.3,0.9l0.3,1l0.1,1.2v0.6l-0.1,0.9l-0.2,1.4l-0.4,0.9
		l-0.2,0.6l-0.3,0.5l-0.8,1l-1.1,0.6l-0.8,0.1 M102.35,0.25h0.1l0.3,0.1l0.5,0.2l0.6,0.5l0.4,0.7l0.4,0.8l0.3,1l0.1,1.1v1.2
		l-0.1,1.1l-0.3,1.2l-0.4,1l-0.5,0.9l-0.6,0.7l-0.7,0.5l-0.7,0.3h-0.6 M104.65,0.35h0.4l0.5,0.2l0.5,0.4l0.7,1l0.4,1.2l0.2,1.2v1
		v0.8l-0.1,0.6l-0.1,0.4l-0.3,1.2l-0.6,1.4l-0.6,0.8l-0.7,0.6l-0.8,0.4h-0.6 M106.95,0.25h0.1l0.4,0.1l0.4,0.2l0.2,0.1l0.7,0.8
		l0.3,0.6l0.4,1l0.2,1.2v1.4l-0.2,1.6l-0.2,0.8l-0.2,0.7l-0.5,0.9l-0.5,0.8l-0.7,0.6l-0.7,0.4h-0.8 M109.25,0.25l0.6,0.1l0.7,0.5
		l0.7,0.9l0.5,1.3l0.2,1.8l0.1,0.8l-0.1,0.6l-0.2,1.2l-0.3,1l-0.4,1l-0.6,0.9l-0.6,0.6l-0.7,0.4l-0.7,0.2h-0.3 M111.65,0.25l0.7,0.2
		l0.5,0.4l0.5,0.5l0.6,1.4l0.3,1.4l0.1,1.2l-0.1,1l-0.1,0.5v0.2v0.2l-0.1,0.5l-0.4,1l-0.6,1.1l-0.2,0.4l-0.3,0.4l-0.2,0.2l-0.7,0.5
		l-0.8,0.2h-0.4 M113.95,0.25L113.95,0.25l0.3,0.1l0.6,0.2l0.5,0.5l0.5,0.7l0.4,0.8l0.2,1l0.2,1.1v0.4v0.4v0.6l-0.3,1.5l-0.3,1.1
		l-0.3,0.6l-0.2,0.4l-0.3,0.5l-0.8,0.8l-0.8,0.5l-0.8,0.1h-0.1 M116.25,0.25h0.2l0.6,0.2l0.5,0.5l0.5,0.6l0.4,0.9l0.3,0.9l0.1,0.7
		l0.1,0.8v0.4v0.6l-0.1,0.9l-0.1,0.4v0.3l-0.1,0.4l-0.4,1l-0.5,1l-0.6,0.7l-0.6,0.6l-0.7,0.3l-0.8,0.1 M118.55,0.25h0.2l0.5,0.2
		l0.6,0.4l0.5,0.6l0.4,0.8l0.2,0.6l0.1,0.7l0.1,0.6l0.1,0.7v1l-0.1,1.2l-0.4,1.4l-0.4,0.8l-0.2,0.4l-0.2,0.4l-0.5,0.6l-0.8,0.6
		l-1,0.3h-0.3 M120.85,0.25L120.85,0.25l0.6,0.1l0.6,0.4l0.5,0.5l0.4,0.8l0.3,0.9l0.2,1l0.1,1.1v1.2l-0.2,1.1l-0.3,1.1l-0.4,1
		l-0.6,0.8l-0.6,0.7l-0.3,0.2l-0.3,0.2l-0.4,0.1l-0.6,0.1h-0.1 M123.15,0.25h0.3l0.3,0.1l0.2,0.1l0.3,0.2l0.5,0.5l0.4,0.7l0.4,0.9
		l0.2,1l0.1,0.8v0.7v0.4v0.4l-0.1,0.7l-0.1,0.6l-0.1,0.6l-0.1,0.3l-0.4,1l-0.6,0.9l-0.6,0.7l-0.6,0.4l-0.8,0.3h-0.4 M125.45,0.25
		h0.3l1.1,0.7l0.5,0.6l0.4,0.9l0.3,1l0.1,1.2l0.1,0.5v0.3l-0.1,0.4v0.8l-0.2,0.9l-0.4,1.1l-0.5,1.1l-0.8,1l-1,0.7l-0.4,0.1h-0.4
		h-0.1 M127.85,0.25h0.2l0.6,0.2l0.5,0.5l0.5,0.6l0.4,0.8l0.3,1l0.1,1.1l0.1,1.1l-0.1,1.2l-0.3,1.1l-0.3,1l-0.5,0.9l-0.6,0.8
		l-0.6,0.6l-0.7,0.3l-0.8,0.1 M130.15,0.25h0.2l0.3,0.1l0.4,0.2l0.3,0.3l0.5,0.6l0.4,0.8l0.3,0.9l0.2,1.1l0.1,1.1l-0.1,1.2l-0.2,1.1
		l-0.3,1l-0.5,1l-0.5,0.8l-0.7,0.6l-0.7,0.4l-0.7,0.1h-0.2 M132.45,0.25l0.6,0.1l0.5,0.4l0.5,0.5l0.5,0.8l0.3,0.9l0.2,1l0.1,1.2v1.1
		l-0.2,1.1l-0.3,1.1l-0.5,1l-0.5,0.8l-0.6,0.7l-0.7,0.4l-0.8,0.2h-0.3 M134.75,0.25l0.5,0.1l0.5,0.3l0.2,0.1l0.1,0.1l0.1,0.1
		l0.2,0.2l0.2,0.4l0.2,0.4l0.2,0.5l0.2,0.3l0.2,1l0.1,1.1v1.2l-0.1,0.5v0.2v0.1v0.2l-0.1,0.3l-0.3,1l-0.5,1.3l-0.5,0.6l-0.5,0.5
		l-0.7,0.5l-0.7,0.3h-0.4 M137.05,0.35h0.5l1,0.7l0.7,1.3l0.4,1.6l0.1,1.8l-0.2,1.8l-0.6,1.5l-0.7,1.2l-0.9,0.9l-0.9,0.4h-0.5
		 M139.35,0.25h0.3l0.5,0.2l0.6,0.5l0.5,0.6l0.4,0.8l0.2,1l0.2,1.1v1.1l-0.1,1.2l-0.2,1.1l-0.3,1l-0.5,0.9l-0.6,0.8l-0.7,0.6
		l-0.7,0.3l-0.7,0.1 M141.65,0.25h0.1l0.6,0.2l0.6,0.4l0.5,0.6l0.4,0.7l0.3,1l0.2,1l0.1,1.2l-0.1,1.1l-0.2,1.2l-0.4,1l-0.4,1
		l-0.6,0.8l-0.6,0.6l-0.7,0.4l-0.8,0.1h-0.1 M144.05,0.35h0.5l0.3,0.2l0.3,0.2l0.5,0.5l0.4,0.8l0.4,0.9l0.1,0.5l0.1,0.4v0.6l0.1,0.9
		l-0.1,1.2l-0.3,1.5l-0.2,0.6l-0.2,0.5l-0.2,0.3l-0.5,0.8l-0.7,0.7l-0.7,0.4l-0.7,0.2h-0.3 M146.35,0.25h0.1l0.2,0.1l0.4,0.1
		l0.9,0.8l0.5,1l0.4,1l0.1,0.7l0.1,0.5v0.2v0.4l-0.1,1.5l-0.2,1l-0.3,1.2l-0.6,1.1l-0.9,1l-1.1,0.6l-0.4,0.1h-0.3 M148.65,0.25h0.3
		l0.6,0.3l0.5,0.5l0.5,0.6l0.4,0.9l0.2,1l0.2,1.1v1.1l-0.1,1.2l-0.3,1.1l-0.4,1l-0.5,0.9l-0.6,0.7l-0.6,0.6l-0.8,0.3h-0.6
		 M150.95,0.35l0.7,0.1l0.5,0.3l0.5,0.6l0.4,0.8l0.4,1l0.2,1.2v1.2l-0.1,1.1l-0.2,1.2l-0.4,1l-0.4,0.9l-0.3,0.3l-0.2,0.4l-0.4,0.4
		l-0.8,0.5l-0.9,0.2h-0.2 M153.25,0.25l0.9,0.3l0.9,0.9l0.6,1.3l0.3,1.7v1.7l-0.3,1.6l-0.5,1.5l-0.7,1.1l-0.8,0.8l-0.9,0.4h-0.6
		 M155.55,0.25l0.6,0.1l0.6,0.3l0.5,0.6l0.4,0.7l0.3,1l0.3,1l0.1,1.1l-0.1,1.2l-0.2,1.1l-0.3,1.1l-0.4,1l-0.5,0.8l-0.7,0.7l-0.6,0.4
		l-0.8,0.2h-0.3 M157.85,0.25h0.2l0.8,0.3l0.1,0.1h0.1v0.1l0.2,0.1l0.5,0.7l0.3,0.6l0.2,0.5v0.2l0.1,0.3l0.2,1.6v1.1l-0.1,1.3
		l-0.4,1.4l-0.6,1.3l-0.3,0.4l-0.3,0.3l-0.2,0.2l-0.7,0.6l-0.8,0.2h-0.4 M160.25,0.25l0.8,0.3l0.7,0.6l0.6,1l0.3,1.1l0.2,1.1
		l0.1,1.1l-0.3,2l-0.4,1.4l-0.5,0.9l-0.2,0.3v0.1h-0.1v0.1l-0.1,0.1l-0.3,0.3l-0.6,0.6l-0.8,0.3h-0.6 M162.55,0.25h0.2l0.6,0.2
		l0.2,0.2l0.2,0.1v0.1h0.1v0.1h0.1l0.2,0.2l0.2,0.5l0.4,0.7l0.1,0.3l0.1,0.3l0.1,0.4l0.1,1l0.1,1.2l-0.1,1.2v0.1v0.1l-0.1,0.1
		l-0.1,0.8l-0.5,1.2l-0.8,1.3l-0.4,0.5l-0.4,0.2l-0.7,0.4l-0.7,0.1h-0.1 M164.85,0.35l0.9,0.2l0.8,0.8l0.6,1.4l0.4,1.6v1.7l-0.3,1.7
		l-0.5,1.4l-0.7,1.1l-0.8,0.8l-0.9,0.5h-0.7 M167.15,0.25l0.6,0.1l0.5,0.4l0.5,0.5l0.5,0.8l0.3,0.9l0.2,1l0.1,1.1v1.2l-0.2,1.1
		l-0.3,1.1l-0.4,1l-0.6,0.8l-0.6,0.7l-0.7,0.4l-0.7,0.2h-0.3 M169.45,0.25l0.5,0.1l0.5,0.3l0.2,0.1l0.2,0.2h0.1l0.2,0.4l0.4,0.6
		l0.2,0.5l0.1,0.3l0.1,0.5l0.1,0.5l0.1,1.1v1.1l-0.1,1.2l-0.1,0.3v0.1l-0.1,0.3l-0.2,0.6l-0.3,0.7l-0.5,0.9l-0.7,0.8l-1,0.6
		l-0.8,0.1 M171.75,0.25h0.1l0.7,0.2l0.8,0.7l0.6,1.2l0.3,0.7l0.1,0.5l0.1,1.1v1.1l-0.1,1.1l-0.2,1.2l-0.4,1l-0.5,0.9l-0.6,0.7
		l-0.4,0.4l-0.4,0.2l-0.2,0.1l-0.5,0.2h-0.5 M174.15,0.25h0.1l0.6,0.2l0.6,0.4l0.5,0.7l0.4,0.8l0.2,0.9l0.2,1.1l0.1,1.1l-0.1,1.2
		l-0.3,1.1l-0.3,1.1l-0.5,0.9l-0.5,0.8l-0.7,0.5l-0.2,0.2l-0.3,0.1l-0.2,0.1l-0.8,0.1 M176.45,0.25L176.45,0.25l0.6,0.2l0.6,0.3
		l0.5,0.6l0.4,0.8l0.3,1l0.2,1l0.1,0.5v0.4v0.5l-0.1,0.8v0.4l-0.1,0.4l-0.1,0.4l-0.3,1.1l-0.5,0.9l-0.5,0.8l-0.7,0.6l-0.7,0.5
		l-0.7,0.1h-0.2 M178.75,0.25h0.1l0.3,0.1l0.7,0.3l0.5,0.6l0.4,0.7l0.4,1l0.2,1l0.1,1.1v0.2v0.2v0.4l-0.1,0.7l-0.1,0.8l-0.3,1.1
		l-0.4,0.9l-0.6,0.9l-0.6,0.6l-0.5,0.4l-0.4,0.2l-0.3,0.1h-0.6 M181.05,0.25l0.4,0.1l0.6,0.3l0.5,0.5l0.5,0.7l0.3,0.8l0.3,1l0.1,1.1
		v1.2l-0.2,1.2l-0.2,1.1l-0.5,1l-0.5,0.9l-0.6,0.7l-0.7,0.5l-0.7,0.2h-0.5 M183.35,0.25l0.4,0.1l0.5,0.2l0.5,0.4l0.5,0.7l0.4,0.8
		l0.3,1l0.1,1.1v1.1l-0.1,1.2l-0.3,1.1l-0.3,1.1l-0.5,0.9l-0.6,0.7l-0.7,0.5l-0.7,0.4h-0.6 M185.65,0.25h0.2l0.2,0.1h0.1l0.3,0.1
		l0.5,0.4l0.6,0.9l0.6,1.5l0.1,0.4v0.4l0.1,0.3v1.2l-0.1,1.1l-0.2,1.1l-0.3,1.1l-0.5,0.9l-0.6,0.8l-0.6,0.5l-0.7,0.4l-0.8,0.1
		 M187.95,0.25l0.4,0.1h0.3l0.3,0.2l0.2,0.2l0.5,0.6l0.5,0.8l0.3,0.9l0.2,1.1l0.1,1.1l-0.1,0.9l-0.3,1.9l-0.9,1.8l-0.6,0.8l-0.7,0.5
		l-0.8,0.4h-0.5 M190.35,0.25l0.4,0.1l0.6,0.3l0.4,0.4l0.5,0.8l0.3,0.5l0.1,0.4l0.2,1l0.1,0.4v0.4l0.1,0.4v0.8l-0.2,1.3l-0.3,1.2
		l-0.4,0.9l-0.2,0.5l-0.4,0.5l-0.2,0.3l-0.2,0.2l-0.7,0.6l-0.3,0.1l-0.4,0.2h-0.2h-0.4 M192.65,0.25l0.5,0.1l0.4,0.2l0.5,0.4
		l0.5,0.8l0.4,1l0.3,1.1l0.1,0.9v0.9l-0.2,1.3l-0.1,0.7l-0.2,0.6l-0.4,1l-0.5,0.8l-0.4,0.6l-0.7,0.5l-0.5,0.3l-0.4,0.1h-0.5
		 M194.95,0.35l0.7,0.1l0.9,0.7l0.6,1.3l0.4,1.6l0.1,1.8l-0.3,1.7l-0.5,1.4l-0.6,1.2l-0.9,0.9l-0.8,0.4l-0.8,0.1 M197.25,0.25h0.2
		l0.6,0.2l0.2,0.2l0.2,0.1v0.1l0.2,0.1l0.2,0.2l0.2,0.3l0.2,0.4l0.2,0.4l0.2,0.7l0.3,1.9v1.1l-0.2,1.2l-0.3,1.2l-0.5,1.2l-0.3,0.5
		l-0.4,0.4l-0.6,0.6l-0.7,0.4l-0.8,0.1h-0.1 M199.55,0.25h0.1h0.1h0.1l0.1,0.1l0.3,0.1l0.4,0.2l0.4,0.5l0.6,0.8l0.4,1.4l0.2,1.8v0.4
		v0.4v0.4l-0.2,1.2l-0.3,1l-0.5,1l-0.5,0.8l-0.7,0.6l-0.7,0.4l-0.7,0.2h-0.2 M201.85,0.25l0.5,0.1l0.6,0.3l0.5,0.6l0.5,0.7l0.3,0.9
		l0.2,1l0.1,1.1v1.2l-0.2,1.1l-0.3,1.2l-0.4,0.9l-0.5,0.9l-0.5,0.5l-0.2,0.2l-0.4,0.3l-0.6,0.2l-0.4,0.1h-0.3 M204.15,0.25l0.7,0.2
		l0.8,0.6l0.7,1.2l0.3,0.9l0.2,1.1l0.1,1.3l-0.2,1.4l-0.3,1.3l-0.6,1.3l-0.8,1.1l-1,0.7l-1,0.2 M206.55,0.25L206.55,0.25h0.3
		l0.6,0.3l0.6,0.5l0.7,1.5l0.3,0.9l0.1,1.1l0.1,1.2l-0.2,1.1l-0.2,1.1l-0.4,1l-0.5,0.9l-0.5,0.8l-0.7,0.5l-0.7,0.4h-0.7
		 M208.85,0.25l0.5,0.1l0.4,0.2l0.4,0.3l0.5,0.6l0.4,0.9l0.3,0.9l0.1,1.1l0.1,1.1l-0.1,1.1l-0.2,1.2l-0.2,0.4l-0.1,0.4l-0.1,0.4
		l-0.2,0.4l-0.2,0.4l-1,1.2l-1.4,0.6h-0.4 M211.15,0.25h0.1l0.5,0.2l0.5,0.2l0.4,0.5l0.6,0.9l0.2,0.6l0.2,0.6l0.1,0.7l0.1,0.8v0.5
		v0.7l-0.2,1.3l-0.1,0.4l-0.1,0.2v0.1v0.1l-0.1,0.2l-0.3,0.9l-0.7,1.1l-0.1,0.1v0.1l-0.1,0.1l-0.2,0.2l-0.7,0.5l-0.5,0.2l-0.5,0.1
		h-0.3 M213.45,0.25l0.5,0.1l0.6,0.3l0.5,0.6l0.4,0.7l0.4,0.9l0.2,1l0.1,1.1v1.2l-0.2,1.1l-0.2,0.8l-0.2,0.6l-0.2,0.5l-0.3,0.5
		l-0.2,0.3v0.1l-0.2,0.3l-0.4,0.4l-0.6,0.4l-0.8,0.4h-0.6 M215.75,0.25h0.2l0.4,0.1l0.7,0.5l0.6,0.8l0.3,0.8l0.3,0.7l0.1,0.6
		l0.1,0.6v0.8v0.8l-0.1,1.1l-0.3,1.1l-0.4,1l-0.5,0.9l-0.6,0.7l-0.7,0.5l-0.7,0.3h-0.5 M218.05,0.25l0.7,0.2l0.7,0.5l0.6,0.9l0.4,1
		l0.3,1.2v1.1l-0.1,2.1l-0.5,1.5l-0.6,1.1l-0.1,0.2l-0.2,0.3l-0.3,0.3l-0.6,0.5l-0.7,0.4h-0.7 M220.35,0.25h0.2l0.6,0.2l0.5,0.4
		l0.4,0.4l0.3,0.5l0.3,0.7l0.3,1.1l0.2,1.5v0.6l-0.1,0.5v0.4l-0.2,1.1l-0.4,1.1l-0.5,0.9l-0.5,0.8l-0.7,0.6l-0.7,0.4l-0.7,0.1h-0.1
		 M222.75,0.25L222.75,0.25l0.6,0.1l0.5,0.4l0.5,0.6l0.5,0.8l0.3,0.9l0.2,1l0.1,1.1l-0.1,1.2l-0.2,1.1l-0.3,1.1l-0.4,1l-0.6,0.8
		l-0.6,0.6l-0.7,0.4l-0.8,0.2h-0.2 M225.05,0.25l0.4,0.1l0.4,0.2l0.3,0.2l0.3,0.3l0.5,0.8l0.3,0.5l0.1,0.4l0.2,0.9l0.1,0.4l0.1,0.4
		v0.5l-0.1,1.6l-0.2,1l-0.3,1.2l-0.6,1.1l-0.8,1l-0.4,0.3l-0.3,0.2l-0.8,0.2h-0.4 M227.35,0.35l0.3-0.1l0.9,0.6l0.7,0.9l0.5,1.3
		l0.3,1.5v1.5l-0.2,1.3l-0.4,1.2l-0.4,1l-0.6,0.8l-1,0.9l-1,0.3h-0.3 M229.65,0.25h0.1h0.2l0.5,0.3l0.6,0.4l0.2,0.3l0.2,0.3l0.2,0.3
		l0.3,0.8l0.3,1.2l0.1,1.5v0.9l-0.1,0.5l-0.2,1.2l-0.4,1l-0.5,0.9l-0.6,0.8l-0.6,0.5l-0.8,0.3l-0.7,0.1 M231.95,0.25h0.2l0.6,0.2
		l0.1,0.1l0.1,0.1l0.3,0.2l0.4,0.5l0.5,0.8l0.3,1.3l0.2,1.7v0.8v0.6l-0.3,1.1l-0.3,1.1l-0.5,0.9l-0.5,0.8l-0.7,0.6l-0.7,0.4
		l-0.7,0.1h-0.1 M234.25,0.25l0.5,0.1l0.2,0.1l0.4,0.2l0.5,0.6l0.6,0.9l0.3,1.1l0.2,0.9v0.9v1.1l-0.2,1.3l-0.4,1.3l-0.4,0.9
		l-0.5,0.7l-0.6,0.6l-0.7,0.4l-0.8,0.2h-0.2 M236.55,0.25l0.7,0.2l0.9,0.7l0.7,1.4l0.2,0.8l0.1,0.5l0.2,1.1l-0.1,1.2l-0.1,1.1
		l-0.3,1.1l-0.5,1l-0.5,0.8l-0.6,0.7l-0.7,0.5l-0.7,0.2h-0.4 M238.95,0.35l0.6,0.1l0.5,0.3l0.4,0.4l0.6,1l0.4,1.2l0.1,1.1l0.1,1
		l-0.1,0.8l-0.1,0.8l-0.2,1.1l-0.4,1l-0.5,0.9l-0.6,0.7l-0.7,0.5l-0.4,0.2h-0.2v0.1h-0.3h-0.4 M241.25,0.25h0.2l0.6,0.3l0.6,0.4
		l0.4,0.6l0.4,0.9l0.3,1l0.2,1v0.6v0.3v0.1v0.1v0.3l-0.1,0.5l-0.1,0.8l-0.2,1l-0.5,1.2l-0.8,1.1l-1.1,0.9l-0.4,0.2h-0.5h-0.2
		 M243.55,0.25h0.2l0.2,0.1l1,0.6l0.5,0.7l0.4,1l0.3,1.3l0.1,0.7v0.7l-0.2,1.9l-0.7,2l-0.5,0.9l-0.7,0.8l-0.8,0.5l-0.3,0.1h-0.3
		h-0.2h-0.2 M245.85,0.25l0.6,0.1l0.5,0.4l0.3,0.2l0.3,0.4l0.5,0.9l0.3,1.1l0.2,0.9v0.9v1.2l-0.2,1.1l-0.3,1.1l-0.5,1l-0.5,0.8
		l-0.2,0.2l-0.2,0.2h-0.1l-0.2,0.2l-0.4,0.3l-0.6,0.3h-0.1h-0.1h-0.4h-0.1 M248.15,0.25l0.5,0.1l0.6,0.3l0.5,0.5l0.3,0.5l0.3,0.5
		l0.2,0.6l0.2,0.8l0.1,0.7v0.7v1.1l-0.2,1.2l-0.3,1.1l-0.4,1l-0.3,0.5l-0.4,0.5l-0.2,0.3l-0.3,0.2l-0.4,0.3l-0.3,0.2l-0.4,0.2h-0.2
		h-0.4 M250.45,0.25l0.4,0.1l0.6,0.2l0.2,0.2l0.2,0.2l0.2,0.2l0.2,0.3l0.3,0.6l0.3,0.6l0.2,1.1l0.1,0.4v0.2v0.1v0.5v1.1l-0.2,1.6
		l-0.2,0.6l-0.2,0.6l-0.2,0.3l-0.5,0.9l-0.6,0.7l-0.6,0.5l-0.2,0.1h-0.1h-0.1v0.1l-0.4,0.1h-0.5 M252.85,0.25h0.2l0.6,0.2l0.5,0.5
		l0.5,0.6l0.4,0.9l0.3,1l0.1,1l0.1,1.2l-0.2,1.1l-0.2,1.1l-0.4,1.1l-0.4,0.9l-0.6,0.7l-0.3,0.3l-0.4,0.3l-0.2,0.2h-0.1l-0.5,0.2
		h-0.6 M255.15,0.25h0.1l0.6,0.2l0.5,0.4l0.5,0.6l0.4,0.8l0.3,0.9l0.2,1.1l0.1,1.1l-0.1,1.2l-0.2,1.1l-0.3,1.1l-0.5,0.9l-0.6,0.8
		l-0.6,0.6l-0.7,0.4l-0.8,0.1h-0.1 M257.45,0.35l0.1-0.1l0.6,0.2l0.6,0.5l0.6,0.8l0.5,1.2l0.3,1.5l-0.1,1.8l-0.3,1.9l-0.8,1.7
		l-0.4,0.5l-0.3,0.4l-0.3,0.2l-0.6,0.4l-0.8,0.2h-0.3 M259.75,0.25l0.5,0.1l0.5,0.3l0.6,0.5l0.4,0.7l0.4,0.9l0.1,0.6v0.2l0.1,0.5
		l0.1,0.8v1.2l-0.2,1.1l-0.3,1.1l-0.4,1l-0.5,0.9l-0.6,0.7l-0.7,0.5l-0.7,0.2h-0.5 M262.05,0.25h0.1l0.3,0.1l0.3,0.1l0.2,0.1
		l0.3,0.2l0.5,0.6l0.6,1.2l0.1,0.3l0.1,0.3v0.4l0.2,2.1l-0.1,1.1l-0.2,1.1l-0.4,1.1l-0.5,1l-0.7,0.8l-0.6,0.5l-0.8,0.3h-0.6
		 M264.35,0.25l0.6,0.1l0.6,0.4l0.6,0.7l0.4,0.9l0.1,0.3h0.1v0.1v0.1l0.1,0.3l0.1,0.6l0.1,1v1.2l-0.2,1.5l-0.5,1.6l-1,1.5l-0.2,0.2
		l-0.2,0.2l-0.3,0.2l-0.7,0.3l-0.7,0.1 M266.65,0.25h0.2l0.5,0.2l0.6,0.4l0.5,0.6l0.4,0.8l0.3,0.9l0.2,1.1l0.1,1.1l-0.1,1.2
		l-0.2,1.1l-0.4,1l-0.4,1l-0.6,0.8l-0.6,0.6l-0.7,0.4l-0.8,0.1h-0.1 M269.05,0.25L269.05,0.25l1.1,0.5l0.2,0.1l0.2,0.2l0.5,0.9
		l0.2,0.5l0.2,0.5l0.2,1.1l0.1,1.1l-0.1,1.1l-0.2,1.2l-0.3,1.1v0.1l-0.1,0.1l-0.1,0.4l-0.2,0.3l-0.3,0.4l-0.3,0.4l-0.6,0.7l-0.7,0.4
		l-0.7,0.2h-0.3 M271.35,0.35l0.1-0.1l0.8,0.3l0.7,0.7l0.5,1l0.4,1.1l0.1,1.1l0.1,1.1l-0.3,1.9l-0.4,1.4l-0.5,0.9l-0.1,0.2l-0.3,0.4
		l-0.4,0.5l-0.7,0.5l-0.8,0.2h-0.4 M273.65,0.25l0.3,0.1l0.6,0.2l0.5,0.5l0.5,0.7l0.4,0.8l0.2,1l0.2,1.1v1.2l-0.1,1.1l-0.3,1.1
		l-0.4,1l-0.5,0.9l-0.6,0.7l-0.7,0.6l-0.7,0.3h-0.6 M275.95,0.25h0.2l0.6,0.2l0.5,0.5l0.5,0.6l0.4,0.9l0.2,0.4l0.1,0.4v0.3l0.1,0.7
		l0.1,0.7v0.5l-0.1,1.3l-0.2,1.1l-0.4,1l-0.5,1l-0.6,0.7l-0.6,0.6l-0.7,0.3l-0.8,0.1 M278.25,0.25h0.1l1,0.4l0.9,1.1l0.5,1.6
		l0.2,1.7l-0.1,1.8l-0.4,1.7l-0.7,1.3l-0.8,1l-0.9,0.6l-0.9,0.1 M280.55,0.25l0.6,0.1l0.6,0.4l0.5,0.5l0.4,0.8l0.3,0.9l0.3,1v1.2
		v1.1l-0.2,1.2l-0.3,1l-0.4,1l-0.6,0.8l-0.6,0.7l-0.7,0.4l-0.7,0.2h-0.3 M282.85,0.25l0.6,0.1l0.5,0.3l0.5,0.5l0.4,0.7l0.4,0.9
		l0.2,1l0.1,1.1v1.2l-0.1,1.1l-0.3,1.1l-0.4,1l-0.6,0.9l-0.6,0.7l-0.6,0.4l-0.8,0.3h-0.4 M285.25,0.35l0.6,0.1l0.3,0.1l0.3,0.3
		l0.3,0.2l0.5,0.9l0.4,1l0.2,1.1v1.9v0.3v0.3l-0.1,0.5l-0.4,1.4l-0.5,1.2l-0.6,0.9l-0.7,0.5l-0.7,0.4l-0.8,0.1 M287.55,0.25h0.1
		l0.5,0.1l0.3,0.2l0.3,0.2l0.4,0.6l0.3,0.4l0.2,0.3v0.2l0.1,0.1v0.2l0.1,0.3l0.3,1.1l0.1,0.5v0.7v0.3l-0.1,0.7l-0.3,1.9l-0.4,1
		l-0.5,1l-0.8,0.8l-0.9,0.6l-0.5,0.1h-0.4 M289.85,0.25h0.1l0.6,0.2l0.5,0.4l0.5,0.6l0.4,0.8l0.3,0.9l0.2,0.5v0.7l0.1,1.7l-0.3,1.5
		l-0.3,1l-0.3,0.7l-0.2,0.5l-0.3,0.4l-0.4,0.5l-0.5,0.4l-0.7,0.4l-0.7,0.1h-0.2 M292.15,0.35h0.4l0.7,0.3l0.7,0.9l0.3,0.4l0.1,0.5
		l0.2,0.5l0.2,1l0.1,1.2v1.1l-0.2,1.1l-0.3,1.1l-0.5,1l-0.5,0.8l-0.6,0.7l-0.7,0.4l-0.7,0.2h-0.4 M294.45,0.25l0.5,0.1l0.6,0.3v0.1
		h0.1l0.2,0.2l0.3,0.3l0.3,0.6l0.1,0.3l0.2,0.3l0.1,0.3l0.2,1l0.1,1.1v1.1l-0.1,1.2l-0.2,0.8l-0.2,0.5l-0.2,0.5l-0.7,1.2l-0.2,0.2
		l-0.2,0.2l-0.2,0.3l-0.7,0.4l-0.7,0.3h-0.4 M296.75,0.25h0.4l0.5,0.3l0.6,0.5l0.4,0.6l0.4,0.9l0.3,1l0.1,1.1v1.2l-0.1,1.1l-0.3,1.1
		l-0.4,1l-0.3,0.7l-0.5,0.6l-0.9,0.9l-0.9,0.3h-0.4 M299.05,0.25h0.2l0.6,0.2l0.6,0.5l0.5,0.6l0.4,0.8l0.2,1l0.2,1.1l0.1,1.2
		l-0.1,0.2v0.1v0.2v0.6l-0.2,0.9l-0.1,0.2v0.1v0.1h-0.1v0.1v0.2l-0.5,1.1l-0.5,0.7l-0.6,0.7l-0.9,0.6l-0.9,0.1 M301.45,0.25h0.1
		l0.5,0.2l0.6,0.4l0.5,0.6l0.4,0.7l0.3,1l0.2,1l0.1,1.2l-0.1,1.1l-0.2,1.1l-0.3,1.1l-0.5,1l-0.5,0.8l-0.7,0.6l-0.7,0.4l-0.7,0.1
		h-0.2 M303.75,0.25l0.5,0.1l0.6,0.4l0.5,0.5l0.4,0.8l0.4,0.9l0.2,1l0.1,0.7v0.8v0.3l-0.1,0.5l-0.1,0.8l-0.2,0.9l-0.2,0.6l-0.4,1
		l-0.1,0.1l-0.1,0.1v0.1l-0.1,0.1l-0.3,0.4l-0.7,0.6l-1,0.6h-0.5h-0.1 M306.05,0.25l0.4,0.1l0.6,0.3l0.5,0.5l0.5,0.7l0.3,0.9l0.3,1
		l0.1,1.1v1.2l-0.2,1.1l-0.3,1.1l-0.4,1l-0.5,0.9l-0.6,0.6l-0.7,0.5l-0.7,0.3h-0.5 M308.35,0.25h0.3l0.6,0.3l0.5,0.5l0.5,0.6
		l0.4,0.9l0.2,1l0.2,1v1.2l-0.1,1.1l-0.3,1.2l-0.4,1l-0.4,0.9l-0.6,0.7l-0.7,0.5l-0.7,0.4h-0.7 M310.65,0.25h0.2l0.6,0.2l0.5,0.4
		l0.5,0.7l0.4,0.8l0.3,1l0.2,1v0.6v0.3v0.1v0.1v0.1v0.1v0.4l-0.1,0.6l-0.1,0.8l-0.2,0.5v0.2v0.1l-0.1,0.3l-0.5,0.9l-0.3,0.6
		l-0.4,0.5l-0.7,0.6l-0.7,0.3l-0.7,0.1 M313.45,11.05l-0.7,0.4l-0.7,0.1h-0.2 M313.45,11.05l0.2-0.3l0.3-0.2l0.2-0.3l0.2-0.3
		l0.1-0.3l0.2-0.4l0.1-0.4l0.2-0.4 M315.15,3.35l0.1,0.1l0.1,0.3l0.2,0.5 M1.75,9.65l0.6,0.9l1,0.7l1.1,0.2l1.2-0.4 M1.45,9.15
		l0.7,0.4l0.7,0.1l0.8-0.3l0.7-0.6l0.6-1l0.3-1.3l0.1-1.4l-0.1-1.3l-0.4-1.2l-0.7-0.8l-0.7-0.4l-0.8,0.1l-0.8,0.6l-0.3,0.5
		 M2.95,7.95l0.3-0.7l0.2-0.9v-0.9l-0.2-0.8l-0.3-0.7l-0.4-0.5l-0.5-0.3h-0.5l-0.5,0.3l-0.4,0.5l-0.3,0.7l-0.1,0.8v0.9l0.1,0.9
		l0.3,0.7l0.4,0.5l0.5,0.3h0.5l0.5-0.3L2.95,7.95 M0.95,8.45l0.1,0.1l0.2,0.2l0.2,0.4 M7.05,8.45l-0.1,0.4l-0.1,0.4l-0.2,0.4
		l-0.2,0.3l-0.2,0.3l-0.2,0.3l-0.2,0.2l-0.2,0.3 M315.55,4.25v1.7v0.3 M7.05,8.45l-1.1,1.4l-1.1,0.6l-1.3,0.1l-1.1-0.5l-0.9-0.8
		l-0.5-0.8 M3.25,1.35l0.8-0.8l1.1-0.3l0.6,0.2l0.6,0.5l0.3,0.5l0.3,0.6l0.3,0.7l0.3,1.1l0.1,1.3l-0.1,1.6l-0.5,1.7 M6.15,0.65
		l0.4-0.2l0.7-0.2l0.9,0.3l0.7,0.7l0.5,0.9l0.5,1.5l0.1,1.6l-0.1,1.2l-0.4,1.9l-0.8,1.6l-0.9,1l-0.9,0.5l-0.8,0.1h-0.7l-0.5-0.3
		 M8.45,0.75l0.7-0.4h0.8l0.9,0.6l0.6,0.9l0.4,0.9l0.2,0.5l0.1,0.5v0.4l0.1,0.3v0.4l-0.1,1.7l-0.4,1.7l-0.6,1.3l-0.7,1.1l-0.6,0.5
		l-1,0.4h-0.4h-0.5l-0.7-0.2 M10.85,0.65l0.1-0.1l0.7-0.3l0.7,0.1l1,0.7l0.6,1.1l0.5,1.5l0.1,2.1l-0.3,2l-0.3,0.9l-0.4,1l-0.7,0.8
		l-0.9,0.8l-1.2,0.3l-1-0.1l-0.1-0.1 M13.15,0.75l0.7-0.5l1.1,0.3l0.8,0.6l0.6,1l0.4,1.4l0.1,1.5l-0.2,2.2l-0.4,1.4l-0.3,0.8
		l-0.3,0.4l-0.4,0.6l-0.8,0.7l-1.2,0.4h-0.9l-0.4-0.2 M15.45,0.75l0.4-0.4l0.8-0.1l0.6,0.2l0.8,0.7l0.7,1.4l0.4,1.7v1.6l-0.1,1.1
		l-0.3,1.1l-0.1,0.4l-0.2,0.6l-0.4,0.7l-0.5,0.7l-0.7,0.6l-0.9,0.5h-1.1l-0.5-0.2 M17.75,0.65l0.1-0.1l0.7-0.3l1.1,0.3l1,1.1
		l0.3,0.6l0.3,0.8l0.2,1l0.1,1.3l-0.2,1.9l-0.6,1.7l-0.7,1.2l-0.7,0.8l-0.7,0.4l-0.4,0.2h-0.4h-0.2h-0.2h-0.1h-0.2l-0.5-0.2
		 M20.05,0.65l0.3-0.2l0.9-0.2l0.9,0.4l0.6,0.7l0.5,0.8l0.3,0.9l0.2,0.8v0.6l0.1,0.9l-0.1,1.2l-0.3,1.4l-0.5,1.2l-0.3,0.7l-0.5,0.6
		l-0.5,0.5l-0.5,0.3l-0.3,0.2l-0.3,0.1h-0.5h-0.7l-0.4-0.2 M22.45,0.65l0.1-0.1l1.1-0.3l0.7,0.3l0.5,0.4l0.8,1.3l0.1,0.6l0.2,0.8
		l0.2,1.3l-0.1,1.4l-0.3,1.6l-0.7,1.7l-0.8,1.1l-0.7,0.5l-0.7,0.3h-1.2l-0.4-0.3 M24.75,0.65l0.3-0.2l0.7-0.2l0.8,0.3l0.8,0.7
		l0.7,1.3l0.4,1.8l-0.1,2l-0.3,1.8l-0.6,1.3l-0.7,1l-0.8,0.8l-1.3,0.3l-1.2-0.2 M27.05,0.65l0.7-0.4l0.9,0.1l0.9,0.7l0.7,1.2
		l0.2,0.9l0.3,1.6v1l-0.2,1.7l-0.2,0.7l-0.1,0.4l-0.2,0.4l-0.3,0.5l-0.3,0.5l-0.3,0.5l-0.8,0.6l-0.9,0.5h-1l-0.6-0.2 M29.25,0.65
		l0.4-0.2l0.6-0.2l0.5,0.1l0.6,0.3l0.3,0.2l0.1,0.1l0.1,0.2l0.3,0.3l0.3,0.6l0.2,0.7l0.3,1l0.1,1.1v1.1v0.6l-0.1,0.5l-0.2,0.8
		l-0.3,0.9l-0.5,1l-0.8,1l-1.2,0.7l-1.2,0.1l-0.6-0.3 M31.65,0.65l0.2-0.1l0.5-0.3h0.6l0.6,0.3l0.5,0.4l0.3,0.3v0.1l0.1,0.1l0.2,0.3
		l0.2,0.5l0.3,0.8l0.2,1.2v1.5l-0.2,1.8l-0.2,0.6l-0.2,0.6l-0.1,0.3l-0.5,0.9l-0.6,0.7l-0.7,0.5l-0.7,0.4h-0.7l-0.7-0.1l-0.3-0.1
		 M33.95,0.75l0.4-0.4l0.5-0.1l0.6,0.1l0.7,0.4l0.6,0.6l0.5,1.1l0.3,1.4l0.1,0.5l0.1,0.5v0.6l-0.1,1.2l-0.2,1.1l-0.4,1.1l-0.5,0.9
		l-0.6,0.8l-0.6,0.5l-0.7,0.4l-0.8,0.1h-0.7l-0.5-0.2 M36.25,0.65l0.5-0.3l0.6-0.1l0.6,0.2l0.3,0.1l0.3,0.2l0.1,0.2l0.1,0.1l0.3,0.3
		l0.3,0.5l0.2,0.5l0.1,0.4l0.1,0.3l0.2,1.1l0.1,1.1l-0.1,1.1l-0.1,1l-0.3,0.9l-0.4,0.9l-0.6,1l-0.3,0.5l-0.5,0.4l-1.3,0.5l-1.1-0.1
		l-0.3-0.1 M38.55,0.65l0.2-0.2l0.6-0.2l0.7,0.1l0.3,0.1l0.2,0.1h0.1v0.1l0.5,0.5l0.3,0.5l0.4,0.7l0.3,1.1l0.2,1.4l-0.1,1.6
		l-0.4,1.8l-0.2,0.7l-0.3,0.4l-0.5,0.9l-0.6,0.6l-0.7,0.5l-0.7,0.2h-0.8l-0.6-0.2 M40.95,0.65l0.2-0.2h0.1l0.1-0.1h0.1l0.3-0.1h0.3
		l0.5,0.1l0.6,0.4l0.6,0.7l0.5,1.2l0.3,1.6l0.1,0.6v0.7v0.4l-0.2,1.1l-0.2,1.1l-0.4,1l-0.5,0.9l-0.7,0.7l-0.6,0.5l-0.8,0.3h-0.7
		l-0.7-0.1l-0.1-0.1 M43.25,0.65l0.1-0.1l0.6-0.3h0.6l0.6,0.3l0.5,0.4l0.5,0.7l0.2,0.4l0.2,0.4v0.3l0.1,0.3l0.3,1.4v0.6v0.5
		l-0.1,1.2l-0.3,1.2l-0.3,1l-0.5,0.9l-0.6,0.8l-0.7,0.5l-0.4,0.3l-0.5,0.1h-0.3h-0.7l-0.3-0.1l-0.2-0.1 M45.55,0.65L45.55,0.65
		l0.6-0.3l0.6-0.1l0.6,0.2l0.5,0.4l0.5,0.6l0.3,0.6l0.5,1.6l0.1,2.1l-0.1,1.1l-0.3,1.2l-0.4,1.1l-0.6,1l-0.7,0.7l-0.8,0.6l-0.5,0.1
		h-0.4h-0.7l-0.4-0.2 M47.85,0.65l0.4-0.3l0.7-0.1l0.4,0.1l0.3,0.1l0.2,0.1l0.2,0.2l0.5,0.6l0.5,0.8l0.3,0.9l0.2,2.2v0.4v0.6l-0.1,1
		l-0.2,0.4v0.2v0.1l-0.1,0.2l-0.1,0.4l-0.3,0.6l-0.4,0.7l-0.6,0.8l-0.8,0.6l-1,0.3l-1.2-0.2h-0.1 M50.15,0.65l0.2-0.1l0.4-0.2
		l0.4-0.1l0.6,0.1l0.5,0.3l0.5,0.6l0.5,0.6l0.2,0.7l0.3,1l0.1,1.2l0.1,0.7l-0.1,0.8l-0.4,2l-0.7,1.5l-0.8,1l-0.7,0.5l-0.7,0.3h-0.4
		h-0.3h-0.1h-0.1l-0.7-0.2 M52.45,0.65l0.1-0.1l0.4-0.2l0.7-0.1l0.7,0.3l0.6,0.5l0.5,0.7l0.5,1.4l0.2,0.7v0.6l0.1,0.9l-0.1,1.2
		l-0.3,1.4l-0.3,0.8l-0.2,0.4l-0.5,0.9l-0.6,0.7l-0.7,0.5l-0.1,0.1h-0.1l-0.1,0.1l-0.3,0.1h-0.5h-0.7l-0.4-0.2 M54.75,0.65l0.2-0.1
		l0.6-0.3h0.6l0.5,0.3l0.3,0.2l0.1,0.1h0.1l0.1,0.2l0.2,0.3l0.4,0.5l0.1,0.4h0.1v0.1l0.1,0.4l0.3,1.4l0.1,1l-0.1,1.3l-0.3,1.5
		l-0.5,1.4l-0.3,0.5l-0.3,0.4l-0.3,0.4l-0.8,0.6l-0.7,0.3h-0.8l-0.8-0.2 M57.05,0.65l0.7-0.3l0.7-0.1l0.4,0.2l0.5,0.3l0.5,0.6l0.5,1
		l0.3,1.1l0.2,0.9v0.9l-0.1,1.2l-0.2,1.4l-0.4,1.1l-0.5,0.8l-0.4,0.6l-0.6,0.6l-0.9,0.5l-0.8,0.1l-0.7-0.1l-0.3-0.1 M59.45,0.65
		l0.5-0.3l0.6-0.1l0.5,0.1l0.7,0.5l0.1,0.1l0.1,0.1l0.2,0.3l0.4,0.6v0.2l0.1,0.1v0.1l0.1,0.2l0.3,1.1l0.1,0.9v1.2l-0.2,1.4l-0.4,1.5
		l-0.8,1.5l-0.5,0.5l-0.3,0.4l-0.8,0.4l-0.8,0.1l-0.8-0.1l-0.3-0.1 M61.75,0.65l0.1-0.1l0.5-0.2l0.4-0.1l0.5,0.1l0.6,0.3l0.5,0.5
		l0.5,0.8l0.3,0.9l0.2,1l0.1,0.7v0.6v0.8l-0.1,0.8l-0.1,0.8l-0.5,1.4l-0.6,1l-0.6,0.8l-0.7,0.5l-0.7,0.3h-1.2l-0.4-0.2 M64.05,0.65
		l0.3-0.2l0.6-0.2l0.5,0.1l0.3,0.1l0.3,0.1l0.2,0.2l0.1,0.1l0.3,0.3l0.3,0.5l0.3,0.5l0.1,0.5l0.3,1l0.1,1.1v1.1v0.6v0.1v0.1
		l-0.1,0.5l-0.3,1l-0.5,1.3l-0.3,0.4l-0.3,0.5l-0.4,0.4l-0.6,0.5l-0.8,0.3h-0.7l-0.8-0.1l-0.1-0.1 M66.35,0.65l0.7-0.3l0.3-0.1h0.3
		l0.6,0.3l0.5,0.4l0.5,0.7l0.4,0.9l0.3,1l0.2,2.2l-0.1,0.5l-0.1,0.6l-0.2,1.2l-0.5,1.1l-0.5,0.9l-0.6,0.7l-0.7,0.5l-1.4,0.3
		l-0.6-0.1l-0.2-0.1 M68.65,0.65l0.3-0.2l0.3-0.1l0.6-0.1l0.6,0.2l0.5,0.4l0.5,0.6l0.5,0.8l0.1,0.5l0.2,0.5l0.1,0.8l0.1,0.8v0.6
		l-0.1,1.1l-0.2,1.2l-0.4,1l-0.4,1l-0.6,0.7l-0.2,0.3l-0.4,0.3l-0.6,0.3l-0.3,0.2h-0.1h-0.2h-0.4h-0.6l-0.4-0.2 M70.95,0.65l0.7-0.3
		h0.7l0.7,0.3l0.5,0.5l0.4,0.6l0.6,1.5v0.4l0.1,0.5l0.1,1.4l-0.1,1.3l-0.3,1.2l-0.4,1.1l-0.5,0.8l-1,1.1l-0.3,0.2h-0.1l-0.3,0.2
		l-0.7,0.1l-1-0.1l-0.2-0.1 M74.35,0.25l0.6,0.1l0.6,0.4l0.6,0.9l0.6,1.2l0.1,0.5l0.1,0.5l0.1,1.1v1.2l-0.2,1.1l-0.3,1.1l-0.4,1
		l-0.5,0.8l-0.6,0.7l-0.7,0.5l-0.7,0.2h-0.8l-0.5-0.1l-0.2-0.1 M75.65,0.65l0.1-0.1l0.8-0.3l0.8,0.2l0.7,0.5l0.5,0.8l0.4,0.9
		l0.3,1.1l0.1,1.1l-0.1,2.1l-0.5,1.6l-0.5,1.2l-0.3,0.4l-0.3,0.4l-0.6,0.6l-0.5,0.2l-0.2,0.1l-0.2,0.1h-0.1h-0.5l-0.8-0.1l-0.2-0.1
		h-0.1 M77.95,0.65L77.95,0.65l0.6-0.3l0.6-0.1l0.7,0.3l0.7,0.6l0.6,1.2l0.2,0.6l0.1,0.5l0.2,1.1v1.1l-0.1,1.2l-0.2,1.1l-0.4,1
		l-0.5,0.9l-0.6,0.8l-0.3,0.3l-0.3,0.2l-0.9,0.4h-0.9l-0.7-0.2 M80.25,0.65L80.25,0.65l0.6-0.3l0.6-0.1l0.6,0.2l0.5,0.4l0.5,0.6
		l0.4,0.8l0.3,1l0.2,1l0.1,1.3v0.1l-0.1,0.1v0.4l-0.1,0.8l-0.1,0.7l-0.4,1.1l-0.5,0.9l-0.5,0.8l-0.7,0.7h-0.1l-0.1,0.1l-0.4,0.2
		l-0.8,0.1l-1.1-0.2h-0.1 M82.55,0.65l0.4-0.2l0.6-0.2l0.6,0.1l0.8,0.5l0.6,1l0.3,0.6l0.2,0.6l0.2,1l0.1,1.1l-0.1,1.2l-0.2,1.1
		l-0.3,1.2l-0.5,1l-1.1,1.3l-0.4,0.2l-0.4,0.3l-0.8,0.1h-0.8l-0.3-0.2 M84.85,0.65l0.4-0.2l0.6-0.2l0.6,0.1l0.5,0.3l0.3,0.2l0.2,0.2
		l0.2,0.3l0.3,0.6l0.2,0.5l0.1,0.4l0.3,1l0.1,1.1l-0.1,1.2l-0.1,1.1l-0.2,0.9l-0.7,1.5l-1.2,1.4l-0.7,0.4l-0.8,0.1l-0.9-0.1
		l-0.2-0.1 M87.15,0.65L87.15,0.65l0.6-0.3l0.6-0.1l0.7,0.3l0.8,0.7l0.6,1.2l0.2,0.7l0.1,0.5l0.2,1.1v1.1l-0.2,1.2l-0.2,1.1l-0.4,1
		l-0.5,0.9l-0.6,0.7l-0.5,0.3l-0.3,0.3l-0.3,0.1l-0.5,0.1h-0.6l-0.8-0.2 M89.55,0.65l0.6-0.3l0.4-0.1h0.3l0.5,0.3l0.6,0.4l0.2,0.3
		l0.1,0.1l0.2,0.3l0.3,0.7l0.4,1.3l0.1,1.9v0.4v0.4l-0.1,0.4l-0.2,1.1l-0.4,1.1l-0.5,0.9l-0.2,0.3l-0.2,0.3l-0.4,0.4l-1.3,0.7h-1.2
		l-0.4-0.2 M91.85,0.65l0.2-0.1l0.4-0.2l0.5-0.1l0.6,0.2l0.3,0.2l0.1,0.1h0.1v0.1h0.1l0.1,0.1l0.2,0.3l0.3,0.5l0.4,0.8l0.3,1.1
		l0.1,1.5l-0.1,1.8l-0.2,0.6l-0.1,0.7l-0.2,0.5l-0.5,0.9l-0.6,0.8l-0.6,0.6l-0.7,0.4l-0.7,0.1h-0.8l-0.4-0.2 M94.15,0.65l0.4-0.3
		l0.6-0.1l0.5,0.1l0.2,0.1l0.3,0.1l0.4,0.4l0.3,0.4l0.4,0.7l0.4,1l0.2,2.1v0.4v0.4l-0.2,1.3l-0.1,0.7l-0.2,0.5l-0.4,1l-0.4,0.6
		l-0.3,0.4l-0.3,0.3l-0.8,0.6l-0.3,0.1l-0.3,0.1h-0.2h-0.6l-0.8-0.2 M96.45,0.65l0.1-0.1l0.6-0.2l0.4-0.1h0.1h0.2l0.2,0.1l0.8,0.6
		l0.7,1l0.4,1.1l0.2,1.3l0.1,1.3l-0.2,1.2l-0.2,1.1l-0.7,1.7l-0.9,1.1l-0.2,0.2l-0.3,0.2l-0.3,0.2l-0.7,0.2h-0.7l-0.8-0.2
		 M98.75,0.65l0.2-0.2l0.3-0.1l0.3-0.1l0.6,0.1l0.6,0.2l0.5,0.5l0.3,0.3l0.1,0.2v0.1h0.1v0.1l0.2,0.3l0.2,0.8l0.3,1.3l0.1,0.5v0.6
		v0.6l-0.2,1.1l-0.2,1.1l-0.4,1.1l-0.5,0.9l-0.6,0.7l-0.7,0.5l-0.7,0.3h-0.8l-0.7-0.1l-0.1-0.1 M101.05,0.65l0.1-0.1l0.6-0.2
		l0.6-0.1l0.6,0.2l0.5,0.5l0.5,0.6l0.3,0.6l0.2,0.5l0.1,0.5l0.2,1.2l0.1,0.7v0.6l-0.1,1.1l-0.3,1.1l-0.3,1.1l-0.5,0.9l-0.7,0.8v0.1
		h-0.1l-0.1,0.2l-0.4,0.2l-0.6,0.3l-0.2,0.1h-0.1h-0.2h-0.4l-0.6-0.1l-0.4-0.1 M103.35,0.65l0.1-0.1l0.7-0.3l0.7,0.1l0.7,0.3
		l0.5,0.6l0.7,1.4l0.2,0.7l0.2,1v1.4l-0.2,1.3l-0.3,1.2l-0.4,1l-1,1.4l-0.3,0.3l-0.4,0.3h-0.1l-0.4,0.2l-0.7,0.1l-1.1-0.2
		 M105.75,0.65v-0.1l0.5-0.2l0.6-0.1l0.6,0.2l0.6,0.4l0.6,0.9l0.3,0.6l0.2,0.7l0.2,1l0.1,1.1v1.2l-0.2,1.1l-0.3,1.1l-0.5,0.9
		l-0.5,0.8l-0.6,0.7l-0.7,0.4l-0.8,0.2h-0.5l-0.5-0.1l-0.3-0.1 M108.05,0.65l0.3-0.2l0.6-0.2l1.2,0.4l0.2,0.2l0.2,0.3l0.4,0.6
		l0.3,0.6l0.2,0.4l0.2,1l0.1,1.1v1.2l-0.2,1.2l-0.3,1.1v0.2l-0.1,0.2l-0.1,0.3l-0.6,1l-0.2,0.3l-0.1,0.1l-0.2,0.2l-0.7,0.5l-0.4,0.3
		l-0.4,0.1h-0.6l-0.8-0.1l-0.2-0.1 M110.35,0.75l0.3-0.3l1.1-0.2l0.9,0.6l0.8,1.1l0.5,1.5l0.1,1.7l-0.1,1.7l-0.4,1.5l-0.6,1.3
		l-0.7,1l-0.9,0.6l-0.8,0.3h-0.9l-0.4-0.2 M112.65,0.65l0.1-0.1l0.6-0.2l0.6-0.1l0.6,0.2l0.5,0.5l0.5,0.6l0.4,0.9l0.3,0.9l0.1,1.1
		v1.1l-0.1,1.2l-0.2,1.1l-0.4,1.1l-0.4,0.9l-0.6,0.7l-0.7,0.6l-0.7,0.3l-0.7,0.1l-0.8-0.1l-0.2-0.1 M114.95,0.65L114.95,0.65
		l0.6-0.3l0.6-0.1l0.6,0.2l0.5,0.4l0.5,0.6l0.4,0.8l0.3,0.9l0.2,1.1l0.1,1.1l-0.1,1.2l-0.2,1.1l-0.4,1.1l-0.4,0.9l-0.6,0.8l-0.6,0.6
		l-0.7,0.4l-0.8,0.1h-0.7l-0.4-0.2 M117.25,0.65l0.2-0.1l0.3-0.2l0.4-0.1l0.7,0.1l0.3,0.1l0.2,0.2l0.4,0.3l0.5,0.8l0.2,0.5l0.2,0.4
		l0.1,0.3l0.2,1.1l0.1,1.1l-0.1,1.1l-0.1,1.2l-0.2,0.7l-0.3,0.6l-0.2,0.6l-0.2,0.3l-0.2,0.4l-0.2,0.2l-0.7,0.7l-0.6,0.4l-0.8,0.2
		h-0.7l-0.6-0.2 M119.65,0.75l0.5-0.4h1l0.9,0.7l0.8,1.2l0.4,1.6l0.1,1.7l-0.2,1.7l-0.4,1.5l-0.7,1.2l-0.8,0.9l-0.8,0.6l-0.9,0.1
		l-0.8-0.1l-0.3-0.1 M121.95,0.65l0.6-0.3l0.3-0.1h0.3l0.2,0.1l0.5,0.2l0.6,0.5l0.4,0.7l0.4,0.8l0.3,1l0.1,1.1v1.2l-0.1,1.1
		l-0.3,1.1l-0.4,1l-0.5,0.9l-0.6,0.8l-0.6,0.5l-0.8,0.3h-0.7l-0.7-0.1l-0.2-0.1 M124.25,0.65l0.1-0.1l0.6-0.2l0.6-0.1l0.5,0.2
		l0.6,0.5l0.4,0.6l0.4,0.9l0.3,0.9l0.2,1.1v1.1l-0.1,1.2l-0.2,1.1l-0.4,1l-0.5,1l-0.5,0.7l-0.7,0.6l-0.3,0.2l-0.4,0.1l-0.3,0.1h-0.7
		l-0.7-0.2h-0.1 M126.45,0.75l0.4-0.3l0.6-0.2l0.7,0.1l0.7,0.5l0.7,1l0.3,0.7l0.2,0.6l0.2,1.1v1.1v1.2l-0.2,1.1l-0.2,0.6l-0.3,0.6
		l-0.5,1l-0.5,0.7l-0.6,0.5l-0.6,0.4l-0.8,0.1h-0.7l-0.5-0.2 M128.85,0.75l0.7-0.4h1l0.8,0.7l0.7,1.2l0.4,1.5l0.2,1.6l-0.2,1.6
		l-0.4,1.5l-0.5,1.2l-0.7,0.9l-0.8,0.7l-0.8,0.3h-0.8l-0.7-0.2h-0.1 M131.15,0.65l0.3-0.2l0.3-0.1l0.3-0.1l0.6,0.1l0.6,0.3l0.2,0.2
		l0.2,0.2l0.4,0.5l0.2,0.5l0.2,0.4l0.1,0.3l0.2,1l0.2,1.1v1.2l-0.2,1.1l-0.3,1.1l-0.2,0.5l-0.2,0.5l-0.2,0.3v0.1l-0.3,0.5l-0.6,0.7
		l-1,0.6l-0.7,0.1h-0.5l-0.7-0.2h-0.1 M133.45,0.65l0.3-0.2l0.2-0.1h0.2l0.1-0.1h0.1h0.3l0.3,0.1l0.4,0.2l0.4,0.2l0.2,0.3l0.5,0.7
		l0.4,0.8l0.2,0.7l0.1,0.7v0.4l0.1,0.7v1l-0.3,1.5l-0.5,1.6l-0.8,1.2l-0.8,0.8l-0.6,0.3l-0.5,0.1h-0.5l-0.8-0.1l-0.1-0.1
		 M135.85,0.65v-0.1l0.6-0.2l0.6-0.1l0.6,0.2l0.5,0.5l0.5,0.6l0.4,0.8l0.3,1l0.2,1.1v1.1l-0.1,1.2l-0.2,1.1l-0.4,1l-0.5,0.9
		l-0.6,0.9l-0.1,0.1l-0.2,0.1l-0.3,0.3l-0.5,0.3l-0.6,0.1h-0.4l-0.7-0.1l-0.3-0.1 M138.05,0.75l0.4-0.3l0.7-0.2l0.6,0.2l0.6,0.3
		l0.5,0.6l0.6,1.3l0.2,0.7l0.2,0.9v1.1l-0.1,1.1l-0.2,1.2l-0.3,1l-0.5,1l-0.5,0.8l-0.6,0.6l-0.7,0.4l-0.8,0.1h-0.7l-0.5-0.2
		 M140.45,0.65l0.4-0.3l0.6-0.1h0.3l0.2,0.1h0.1l0.1,0.1l0.4,0.3l0.6,0.6l0.6,1.3l0.2,0.8l0.1,0.5l0.1,1.2v1.1l-0.2,1.2l-0.3,1
		l-0.4,1l-0.6,0.8l-0.6,0.7l-0.7,0.4l-0.7,0.2h-0.8l-0.6-0.2 M142.75,0.65l0.4-0.3l0.7-0.1l0.8,0.3l0.7,0.7l0.7,1.3l0.2,0.7l0.1,0.5
		l0.1,1.1v1.2l-0.1,1.1l-0.3,1.1l-0.4,1l-0.5,0.9l-0.7,0.7l-0.6,0.4l-0.3,0.2h-0.2l-0.4,0.1h-0.6l-0.7-0.2h-0.1 M145.05,0.65h0.1
		l0.6-0.4l0.8,0.1l0.9,0.6l0.8,1.3l0.3,1l0.2,1.1l0.1,1.3l-0.2,1.4l-0.3,1.3l-0.6,1.3l-0.8,1l-1,0.7l-1,0.2l-1-0.2 M147.35,0.75
		l0.4-0.4l0.4-0.1h0.3h0.2l0.6,0.2l0.5,0.5l0.5,0.6l0.4,0.8l0.3,1l0.1,1.1l0.1,1.1l-0.1,1.2l-0.3,1.1l-0.3,1l-0.5,0.9l-0.6,0.8
		l-0.6,0.6l-0.7,0.3l-0.8,0.1l-0.7-0.1l-0.4-0.1 M149.75,0.65l0.3-0.2l0.7-0.2l0.7,0.2l0.6,0.5l0.6,0.8l0.4,0.9l0.3,1.1l0.1,1.2v1.1
		l-0.5,2.2l-0.8,1.7l-1,1.1l-1,0.5h-0.5h-0.2h-0.4l-0.4-0.1l-0.1-0.1 M152.05,0.65l0.2-0.1l1-0.3l1.1,0.6l0.5,0.7l0.4,0.8l0.3,1
		l0.2,1.2v1.3l-0.2,1.3l-0.3,1.2l-0.2,0.6l-0.3,0.5l-0.5,0.8l-0.6,0.7l-0.7,0.4l-0.8,0.2h-0.7l-0.6-0.2 M154.25,0.65h0.1l0.7-0.4
		l0.7,0.1l0.6,0.3l0.5,0.4l0.7,1.3l0.2,0.5l0.1,0.4l0.1,0.5l0.1,1.1v1.2l-0.2,1.1l-0.2,1.1l-0.4,1l-0.6,0.9l-0.6,0.6l-0.6,0.5
		l-0.8,0.3h-0.7l-0.7-0.2h-0.1 M156.65,0.65l0.2-0.1l0.6-0.3h0.6l0.1,0.1h0.1l0.3,0.2l0.6,0.5l0.6,1l0.3,0.8l0.2,0.7l0.1,1.1v1.1
		l-0.1,1.2l-0.3,1.1l-0.3,1l-0.5,0.9l-0.6,0.7l-0.7,0.6l-0.7,0.3h-0.7l-0.8-0.1l-0.2-0.1 M158.95,0.65l0.2-0.2l0.6-0.2l0.7,0.1
		l0.8,0.5l0.8,1.1l0.2,0.5l0.2,0.5v0.4l0.2,1.1v1.1l-0.1,1.1l-0.2,1.2l-0.3,1l-0.5,0.9l-0.6,0.8l-0.6,0.6l-0.6,0.2l-0.3,0.2h-0.6
		h-0.7l-0.3-0.2 M161.25,0.65l0.5-0.3l0.6-0.1l0.6,0.2l0.6,0.3l0.5,0.6l0.4,0.8l0.3,1l0.2,1l0.1,1.1l-0.1,1.2l-0.2,1.1l-0.3,1.1
		l-0.5,1l-0.6,0.8l-0.6,0.6l-0.7,0.4l-0.7,0.1h-0.8l-0.5-0.2 M163.55,0.65l0.2-0.1l0.4-0.2l0.4-0.1l0.6,0.1l0.6,0.4l0.5,0.5l0.3,0.6
		l0.3,0.7l0.3,0.9l0.2,1.3v0.7l-0.1,0.7l-0.2,1.3l-0.3,1.1l-0.4,0.9l-0.5,0.8l-0.6,0.6l-0.7,0.5l-0.7,0.2h-0.8l-0.4-0.1l-0.3-0.1
		 M165.85,0.65l0.2-0.1l0.3-0.2l0.9-0.1l0.5,0.2l0.6,0.5l0.5,0.8l0.5,1.2l0.3,1.5v0.6v0.5v0.4l-0.2,1.2l-0.3,1.1l-0.4,1l-0.5,0.8
		l-0.6,0.7l-0.7,0.5l-0.7,0.3h-0.7h-0.3l-0.2-0.1h-0.1l-0.3-0.1 M168.25,0.65l0.1-0.1l0.6-0.3h0.6l0.6,0.3l0.5,0.5l0.5,0.6l0.4,0.9
		l0.2,1l0.2,1.1v1.1l-0.1,1.2l-0.3,1.1l-0.4,1l-0.4,0.8l-0.3,0.5l-0.6,0.6l-0.8,0.4l-1,0.2l-1-0.2 M170.55,0.65l0.5-0.3l0.4-0.1h0.4
		l0.9,0.6l0.7,0.8l0.4,1l0.2,0.8l0.1,0.5l0.1,0.3v0.6v1.6l-0.2,1l-0.3,1.1l-0.6,1.1l-0.7,1l-1,0.7l-0.5,0.2h-0.5l-0.8-0.1l-0.3-0.1
		 M172.85,0.65l0.3-0.2l0.6-0.2l0.5,0.1l0.3,0.1l0.2,0.1l0.6,0.5l0.4,0.6l0.4,0.9l0.3,1.1l0.1,1.5l-0.1,1.7l-0.5,1.8l-0.1,0.3
		l-0.2,0.3l-0.1,0.3l-0.6,0.8l-0.6,0.7l-0.7,0.4l-0.7,0.1h-0.8l-0.5-0.2 M175.15,0.65l0.4-0.3l0.7-0.1l0.8,0.3l0.8,0.8l0.7,1.4
		l0.2,0.7l0.1,0.5v1.1v1.2l-0.2,1.1l-0.3,1.1l-0.4,1l-0.5,0.8l-0.7,0.6l-0.6,0.5l-0.8,0.2h-0.7l-0.6-0.2 M177.45,0.65l0.1-0.1
		l0.8-0.3l0.9,0.2l0.9,0.8l0.6,1.3l0.4,1.3l0.1,1.2l-0.1,0.9v0.7l-0.1,0.3l-0.1,0.4l-0.1,0.6l-0.8,1.8l-0.5,0.8l-0.8,0.6l-0.8,0.4
		h-0.9h-0.3l-0.4-0.2h-0.1 M179.75,0.65l0.2-0.1l0.6-0.3h0.6l0.4,0.2l0.3,0.2l0.2,0.2l0.3,0.3l0.3,0.5l0.2,0.3l0.1,0.3l0.1,0.3
		l0.3,1l0.2,1v0.4v0.5l-0.1,0.7l-0.2,1.5l-0.2,0.6l-0.2,0.5l-0.1,0.3l-0.5,0.9l-0.6,0.7l-0.6,0.5l-0.7,0.4h-0.8l-0.7-0.1l-0.2-0.1
		 M182.05,0.65h0.1l0.7-0.4h0.6l0.5,0.2l0.5,0.4l0.5,0.7l0.4,0.8l0.3,0.9v0.4l0.1,0.4v0.1l0.1,0.5v0.8l-0.1,1l-0.2,1.3l-0.5,1.4
		l-0.3,0.5l-0.3,0.5l-0.3,0.4l-0.7,0.5l-0.7,0.4l-0.7,0.1l-0.8-0.1l-0.3-0.1 M184.45,0.65l0.1-0.1l0.2-0.1h0.1v-0.1l0.3-0.1l0.7,0.1
		l0.2,0.1l0.3,0.1l0.3,0.2l0.5,0.6l0.4,0.8l0.3,1l0.2,1l0.1,1.1l-0.1,1.1l-0.1,0.8l-0.1,0.8l-0.3,0.6l-0.4,0.9l-0.1,0.3l-0.1,0.1
		v0.1h-0.1v0.1l-0.3,0.4l-0.5,0.4l-0.7,0.5l-0.9,0.2l-1-0.1l-0.2-0.1 M186.75,0.65L186.75,0.65l0.6-0.3h1l0.4,0.3l0.5,0.4l0.5,0.9
		l0.3,0.5l0.1,0.5l0.2,1l0.1,0.9v1l-0.2,1.4l-0.1,0.6l-0.2,0.5l-0.4,1l-0.4,0.6l-0.2,0.4l-0.4,0.4l-0.7,0.5l-0.5,0.2l-0.3,0.1h-0.7
		l-0.8-0.2 M189.05,0.65l0.1-0.1l0.2-0.1l0.1-0.1h0.1h0.1l0.4-0.1l0.8,0.2l0.5,0.4l0.2,0.2l0.5,0.8l0.4,0.8l0.2,1.1l0.1,1v1.2
		l-0.1,1.1l-0.1,0.4l-0.1,0.4l-0.1,0.4l-0.3,0.8l-0.6,0.9l-1,1.1l-0.7,0.4l-0.8,0.1l-0.8-0.1l-0.3-0.1 M191.35,0.65l0.6-0.3l0.7-0.1
		l0.6,0.3l0.6,0.5l0.4,0.5l0.5,1.3l0.1,0.4l0.1,0.6l0.1,0.7v1.2l-0.1,1.1l-0.2,1.1l-0.4,1.1l-0.5,0.9l-0.6,0.7l-0.7,0.5l-0.7,0.4
		h-0.7l-0.7-0.1l-0.2-0.1 M193.65,0.65L193.65,0.65l1-0.4l0.9,0.3l0.8,0.7l0.5,1l0.4,1.3l0.1,1.2v1.2l-0.1,1l-0.4,1.6l-0.5,1
		l-0.3,0.5v0.1l-0.1,0.1l-0.4,0.4l-0.5,0.4l-0.7,0.4l-0.9,0.1l-0.9-0.2 M195.95,0.65L195.95,0.65l0.6-0.3l0.5-0.1l0.6,0.2l0.6,0.3
		l0.2,0.3l0.1,0.1l0.2,0.3l0.4,0.6l0.3,1l0.3,1.6v0.6v0.7l-0.1,0.4l-0.2,1.2l-0.3,1l-0.4,1l-0.6,0.8l-0.6,0.6l-0.7,0.4l-0.8,0.2
		h-0.7l-0.6-0.2 M199.35,0.25l0.3,0.1l0.6,0.2l0.9,1.1l0.7,1.6l0.2,1.9l-0.2,1.9l-0.4,1.7l-0.8,1.3l-0.8,0.9l-1,0.5l-0.9,0.1
		l-0.8-0.2 M200.65,0.65l0.2-0.2l0.8-0.2l0.8,0.2l0.6,0.5l0.5,0.7l0.3,0.8l0.3,0.7l0.1,0.8l0.1,0.6v0.5v0.7l-0.1,1l-0.3,1.3
		l-0.6,1.4l-0.9,1.3l-0.6,0.5l-0.6,0.2l-1.1,0.1l-0.7-0.2 M202.95,0.65l0.6-0.3l0.5-0.1l0.5,0.1l0.2,0.1l0.3,0.2l0.3,0.3l0.5,0.7
		l0.4,0.8l0.2,1l0.2,1.1v0.8v0.7l-0.1,0.5l-0.1,0.6l-0.2,0.9l-0.1,0.5l-0.2,0.5l-0.5,0.9l-0.6,0.7l-0.7,0.5l-0.7,0.4h-0.7l-0.8-0.1
		l-0.2-0.1 M205.15,0.65h0.1l0.6-0.3l0.7-0.1l0.8,0.4l0.8,1.1l0.3,0.4l0.2,0.6l0.1,0.5l0.2,1.1v1.1l-0.1,1.2l-0.2,1.1l-0.3,1l-0.5,1
		l-0.6,0.8l-0.6,0.5l-0.7,0.4l-0.7,0.1h-0.8l-0.4-0.2 M207.55,0.65l0.5-0.3l0.7-0.1l0.3,0.1l0.4,0.1l0.1,0.1l0.4,0.3l0.4,0.5
		l0.4,0.8l0.3,1.1l0.2,1.5l0.1,0.9l-0.1,0.7l-0.2,1.1l-0.3,1.1l-0.5,1l-0.5,0.8l-0.7,0.6l-0.7,0.4l-0.4,0.2h-0.4h-0.5l-0.6-0.2
		 M209.85,0.65l0.3-0.2l0.6-0.2h0.5l0.3,0.2l0.4,0.2l0.5,0.4l0.5,0.9l0.4,1.1l0.2,1l0.1,0.8v1.1l-0.2,1.3l-0.4,1.3l-0.4,1l-0.5,0.7
		l-0.6,0.6l-0.7,0.5l-0.7,0.2h-0.8l-0.7-0.2h-0.1 M212.15,0.65l0.3-0.2l0.6-0.2l0.8,0.1l0.8,0.7l0.8,1.2l0.2,0.6l0.1,0.5v0.3
		l0.2,1.1v1.2l-0.2,1.1l-0.3,1.1l-0.4,1l-0.5,0.9l-0.6,0.7l-0.6,0.5l-0.8,0.3h-0.7l-0.7-0.1l-0.1-0.1 M214.55,0.65l0.1-0.1l0.6-0.3
		h0.6l0.5,0.3l0.6,0.4l0.4,0.7l0.4,0.8l0.3,1l0.2,1.1v1.1v0.6l-0.1,0.3v0.1l-0.1,0.8l-0.4,1.3l-0.4,0.8l-0.5,0.7l-0.7,0.7l-0.8,0.5
		l-1,0.1l-0.9-0.2 M216.75,0.65h0.1l0.6-0.3l0.6-0.1l0.5,0.2l0.6,0.4l0.5,0.6l0.4,0.8l0.3,1l0.2,1v1.2l-0.1,1.1l-0.2,1.2l-0.3,1
		l-0.5,0.9l-0.6,0.8l-0.6,0.6l-0.7,0.4l-0.7,0.1h-0.8l-0.4-0.2 M219.15,0.65l0.3-0.2l0.3-0.1l0.3-0.1h0.2l0.5,0.1l0.6,0.4l0.5,0.6
		l0.4,0.8l0.4,0.9l0.1,1l0.1,0.6v0.4v0.5v0.8l-0.1,0.4v0.4l-0.1,0.3l-0.3,1.1l-0.5,1l-0.5,0.8l-0.7,0.6l-0.7,0.4l-0.7,0.2h-0.8
		l-0.5-0.2 M221.45,0.65l0.3-0.2l0.2-0.1h0.2l0.1-0.1h0.2l0.5,0.1l0.6,0.3l0.6,0.7l0.6,1.2l0.2,0.8l0.2,1v1.8l-0.2,1.4l-0.4,1.1
		l-0.3,0.8l-0.3,0.4l-0.1,0.2l-0.3,0.4l-0.4,0.4l-0.7,0.5l-0.8,0.2h-1l-0.3-0.2 M223.75,0.65l0.2-0.2l0.8-0.2l0.7,0.2l0.6,0.4
		l0.4,0.5l0.5,1l0.1,0.2l0.2,0.4l0.1,0.7l0.1,1.1v1.1l-0.1,1.2l-0.3,1.1l-0.2,0.5l-0.2,0.5l-0.4,0.8l-0.3,0.4l-0.2,0.2l-0.3,0.3
		l-0.4,0.3l-0.2,0.2l-0.4,0.1l-0.2,0.1h-0.6l-0.8-0.1l-0.3-0.1 M226.05,0.65l0.2-0.1l0.5-0.3h0.6l0.6,0.3l0.5,0.4l0.5,0.7l0.4,0.8
		l0.3,1l0.1,1.1l0.1,1.1l-0.2,1.2l-0.2,1.1l-0.4,1l-0.5,0.9l-0.5,0.8l-0.7,0.5l-0.7,0.4h-0.8l-0.7-0.1l-0.2-0.1 M228.35,0.75
		l0.6-0.4l0.6-0.1l0.6,0.2l0.7,0.6l0.6,1l0.5,1.4l0.2,1.9v0.6l-0.1,0.6l-0.2,1.1l-0.4,1.1l-0.4,0.9l-0.6,0.8l-0.6,0.6l-0.8,0.4
		l-0.7,0.1h-0.7l-0.4-0.2 M230.65,0.65l0.4-0.2l0.8-0.2l0.9,0.4l0.9,1l0.5,1.4l0.3,1.4v1.2l-0.1,0.8v0.5l-0.1,0.3l-0.2,0.7l-0.4,1
		l-0.6,1.2l-0.4,0.5l-0.4,0.3l-0.7,0.4l-0.7,0.2h-0.8l-0.5-0.2 M233.05,0.65l0.3-0.2l0.6-0.2h0.2h0.2l0.2,0.1l0.6,0.3l0.5,0.5
		l0.4,0.8l0.4,0.9l0.2,1l0.1,1.1v1.2l-0.2,1.1l-0.3,1.1l-0.4,1l-0.5,0.8l-0.6,0.7l-0.7,0.5l-0.8,0.2h-0.7l-0.7-0.2 M235.35,0.65
		l0.6-0.3l0.5-0.1l0.3,0.1l0.6,0.2l0.5,0.5l0.5,0.7l0.3,0.9l0.3,1l0.1,1.1v1.1l-0.1,1.2l-0.3,1.1l-0.4,1l-0.5,0.9l-0.6,0.7l-0.7,0.5
		l-0.7,0.3h-0.7l-0.8-0.1l-0.1-0.1 M237.65,0.75l0.1-0.2l1-0.3l0.9,0.4l0.8,0.8l0.6,1.2l0.3,1.4v1.5l-0.1,1.4l-0.3,1.2l-0.4,1.1
		l-1,1.4l-1.1,0.7l-0.8,0.2h-0.7l-0.3-0.1h-0.1l-0.1-0.1 M239.95,0.65l0.4-0.2l0.9-0.2l0.5,0.2l0.5,0.4l0.6,0.7l0.4,0.9l0.3,1.2
		l0.2,1.5l-0.1,1.6l-0.5,1.7l-0.7,1.4l-1,1.2l-1.2,0.5l-1.4-0.2h-0.1 M242.25,0.65l0.5-0.3l0.3-0.1h0.1h0.1h0.2l0.3,0.1l0.2,0.1
		l0.3,0.1l0.1,0.1l0.4,0.4l0.6,0.9l0.2,0.6l0.2,0.5l0.2,1l0.1,1.1l-0.1,1.2l-0.2,1.1l-0.3,1.1l-0.4,1l-0.6,0.8l-0.1,0.1l-0.1,0.1
		l-0.2,0.2l-0.4,0.3l-0.5,0.3l-0.8,0.2h-0.7l-0.3-0.1l-0.2-0.1 M244.55,0.75v-0.1l1-0.4h0.2h0.2l0.2,0.1l0.5,0.3l0.5,0.5l0.4,0.7
		l0.3,0.5l0.2,0.8l0.2,0.9l0.1,1.3l-0.1,1.4l-0.4,1.6l-0.2,0.5l-0.2,0.5l-0.5,0.8l-0.6,0.7l-0.7,0.5l-0.8,0.2h-0.7l-0.7-0.2
		 M246.95,0.65l0.2-0.2l0.7-0.2l0.5,0.1l0.5,0.2l0.5,0.4l0.5,0.7l0.4,1l0.3,1.1l0.1,0.9v0.9l-0.1,0.8l-0.1,1l-0.1,0.4l-0.3,0.8
		l-0.5,1.1l-0.3,0.4l-0.3,0.4l-0.2,0.3l-0.7,0.5l-0.7,0.3h-0.8l-0.7-0.1l-0.1-0.1 M249.25,0.65l0.1-0.1l0.6-0.3l0.8,0.1l0.8,0.5
		l0.3,0.4l0.2,0.3l0.4,0.9l0.3,0.9l0.2,1.1v1.2l-0.1,1.1l-0.1,0.4l-0.1,0.4l-0.1,0.7l-0.9,1.7l-1,1.1l-1,0.5h-1l-0.6-0.2
		 M251.55,0.65L251.55,0.65l0.6-0.3l0.6-0.1l0.5,0.2l0.3,0.2l0.2,0.1l0.4,0.5l0.2,0.3l0.3,0.4l0.1,0.3l0.3,0.9l0.2,1.1v1.1v1.2
		l-0.3,1.1l-0.3,0.9l-0.4,1l-0.3,0.5l-0.3,0.4l-0.7,0.6l-0.7,0.4l-0.7,0.1l-1.1-0.2 M253.85,0.65l0.3-0.2l0.3-0.1l0.3-0.1h0.2
		l0.5,0.1l0.6,0.4l0.5,0.5l0.4,0.8l0.3,0.6l0.1,0.7l0.1,0.4l0.1,0.6v0.8v0.5v0.6l-0.4,2l-0.9,1.8l-0.6,0.7l-0.7,0.5l-0.8,0.3h-0.8
		l-0.6-0.2 M256.15,0.65l0.2-0.2l0.7-0.2h0.5l0.3,0.2l0.3,0.1l0.5,0.5l0.6,0.8l0.4,1.1l0.2,1l0.1,0.8l-0.1,1.1l-0.1,1.3l-0.4,1.4
		l-0.4,0.9l-0.5,0.7l-0.6,0.7l-0.7,0.5l-0.7,0.2h-0.7l-0.8-0.2 M258.45,0.65l0.3-0.2l0.5-0.2l0.6,0.1l0.6,0.2l0.2,0.1l0.1,0.2
		l0.1,0.1l0.2,0.2l0.4,0.6l0.4,1.1l0.1,0.4l0.1,0.4l0.2,1.1v1.1l-0.2,1.2l-0.2,1.1l-0.4,1l-0.5,0.9l-0.6,0.7l-0.7,0.5l-0.7,0.3h-0.8
		l-0.7-0.1l-0.1-0.1 M260.75,0.65l0.2-0.1l0.5-0.2l0.6-0.1l0.6,0.2l0.5,0.5l0.5,0.6l0.4,0.9l0.3,0.9l0.2,1.1v1.2l-0.1,1.1l-0.3,1.1
		l-0.3,1.1l-0.5,0.9l-0.6,0.7l-0.7,0.6l-0.7,0.3l-0.7,0.1l-0.7-0.1l-0.3-0.1 M263.15,0.65l0.4-0.3l0.3-0.1h0.2h0.2l0.6,0.2l0.5,0.4
		l0.5,0.6l0.5,0.8l0.3,0.9l0.2,1.2v0.3v0.4v0.3v0.1v0.1v0.5l-0.1,0.4v0.6l-0.2,0.6l-0.4,1.2l-0.2,0.5l-0.2,0.3l-0.3,0.5l-0.5,0.6
		l-0.8,0.5l-0.3,0.2l-0.4,0.1h-0.3h-0.8l-0.4-0.2 M265.35,0.65h0.1l0.3-0.2l0.2-0.1h0.1l0.1-0.1h0.6l0.2,0.1l0.2,0.1l0.2,0.1
		l0.3,0.2l0.6,0.7l0.3,0.7l0.3,0.9l0.3,1.1v1.3l-0.1,1.5l-0.1,0.5l-0.2,0.6l-0.1,0.5l-0.5,0.9l-0.5,0.9l-0.6,0.6l-0.7,0.4l-0.8,0.2
		h-0.7l-0.6-0.2 M267.75,0.65l0.3-0.2l0.6-0.2l0.6,0.1l0.6,0.3l0.5,0.5l0.4,0.7l0.2,0.3l0.1,0.3l0.1,0.3v0.1v0.1l0.1,0.4l0.1,0.3
		v0.3l0.1,0.5v0.4v1v0.7l-0.2,0.6l-0.2,1.1l-0.5,1l-0.5,0.9l-0.6,0.7l-0.7,0.5l-0.2,0.1l-0.3,0.1h-0.2h-0.6h-0.4l-0.5-0.2
		 M270.05,0.65l0.2-0.2l0.2-0.1h0.2l0.2-0.1l1.1,0.3l0.9,0.9l0.7,1.5l0.2,1.8v1.9l-0.4,1.7l-0.7,1.4l-0.8,1l-0.9,0.6l-1,0.2
		l-0.9-0.1l-0.1-0.1 M272.35,0.65l0.1-0.1l0.3-0.1l0.5-0.2l0.6,0.1l0.3,0.1l0.3,0.2l0.3,0.3l0.5,0.6l0.4,0.8l0.3,1l0.1,1.1l0.1,1.1
		l-0.1,1.2l-0.3,1.1l-0.4,1.1l-0.4,0.9l-0.6,0.7l-0.7,0.6l-0.7,0.3l-0.7,0.1l-0.8-0.1l-0.2-0.1 M274.65,0.65L274.65,0.65l0.6-0.3
		l0.6-0.1l0.6,0.2l0.2,0.1l0.4,0.3l0.6,0.9l0.4,0.9l0.2,0.8l0.1,0.8l0.1,1.1l-0.1,1.2l-0.2,1.1l-0.4,1.1l-0.4,0.9l-0.6,0.8l-0.6,0.6
		l-0.7,0.4l-0.8,0.1h-0.7l-0.4-0.2 M276.95,0.65l0.5-0.3l0.3-0.1h0.1h0.1h0.1l0.3,0.1l0.4,0.1l0.4,0.3l0.5,0.5l0.5,0.8l0.3,0.9
		l0.2,1.1l0.1,0.7v0.7v0.4l-0.1,0.5l-0.1,0.7l-0.1,0.6l-0.1,0.5l-0.2,0.3l-0.4,1l-0.5,0.8l-0.6,0.7l-0.7,0.4l-0.8,0.2h-0.7l-0.4-0.1
		l-0.3-0.1 M279.35,0.65l0.5-0.3l0.7-0.1l0.6,0.3l0.7,0.5l0.5,0.7l0.3,1l0.3,1l0.1,2.2l-0.4,2l-0.6,1.6l-0.5,0.7l-0.3,0.4l-0.6,0.5
		l-0.3,0.2l-0.4,0.1l-0.3,0.1h-0.8l-0.7-0.2 M281.65,0.65l0.3-0.2l0.6-0.2l0.7,0.1l0.8,0.6l0.8,1.3l0.2,0.5l0.1,0.5l0.1,0.3l0.1,1.1
		v1.2l-0.1,1.1l-0.3,1.1l-0.4,1l-0.5,0.9l-0.5,0.7l-0.7,0.6l-0.7,0.3h-0.8h-0.4l-0.3-0.1l-0.2-0.1 M283.95,0.65l1-0.4l0.6,0.1
		l0.6,0.4l0.5,0.6l0.5,1l0.2,0.5l0.1,0.5l0.2,1.1v1.1l-0.1,1.2l-0.2,1.1l-0.4,1l-0.4,0.9l-0.6,0.8l-0.7,0.6l-0.7,0.3l-0.7,0.1
		l-0.8-0.1l-0.3-0.1 M286.25,0.65l0.5-0.3l0.4-0.1h0.2l0.6,0.2l0.6,0.4l0.5,0.6l0.4,0.8l0.3,0.9l0.2,1.1l0.1,1.1l-0.1,1.1l-0.2,1.2
		l-0.4,1l-0.4,1l-0.6,0.8l-0.3,0.3l-0.3,0.3l-0.4,0.2l-1.2,0.3l-1-0.2h-0.1 M288.55,0.65l0.5-0.3l0.6-0.1l1.1,0.5l0.2,0.1l0.1,0.2
		l0.6,0.8l0.2,0.6l0.2,0.5l0.2,1l0.1,1.1l-0.1,1.2l-0.2,1.1l-0.3,1.1v0.2l-0.1,0.2l-0.1,0.2l-0.2,0.4l-0.2,0.4l-0.3,0.4l-0.7,0.7
		l-0.7,0.4l-0.7,0.2h-0.8l-0.6-0.2 M290.95,0.75l0.4-0.4h1l0.8,0.5l0.7,0.9l0.4,1.1l0.3,1.2l0.1,1.2l-0.1,1.2l-0.4,1.7l-0.4,1.2
		l-0.4,0.6v0.1h-0.1v0.1l-0.6,0.7l-0.7,0.4l-0.7,0.3h-0.8l-0.7-0.2 M293.15,0.65l0.3-0.2l0.3-0.1l0.2-0.1l0.6,0.1l0.6,0.2l0.5,0.5
		l0.5,0.6l0.3,0.6l0.2,0.6l0.1,0.6l0.1,0.4l0.1,0.8v0.3v0.4v0.4l-0.1,1.2l-0.3,1.1l-0.4,1l-0.5,0.9l-0.6,0.7l-0.6,0.6l-0.8,0.3h-0.7
		l-0.7-0.1l-0.2-0.1 M296.55,0.25h0.2l0.4,0.1l0.4,0.2l0.2,0.2l0.2,0.2l0.3,0.4l0.2,0.3l0.2,0.4l0.1,0.3l0.3,1l0.2,1.1v1.1l-0.1,1.2
		l-0.2,1.1l-0.5,1.2l-0.5,1l-0.6,0.7l-0.6,0.5l-0.6,0.2l-0.7,0.1l-0.8-0.1l-0.3-0.1 M297.85,0.65l0.9-0.4l1,0.3l0.9,1l0.6,1.4
		l0.3,1.6v1.8l-0.4,1.6l-0.5,1.4l-0.8,1.1l-0.8,0.7l-0.9,0.4h-0.8l-0.7-0.2 M300.15,0.65l0.4-0.3l0.6-0.1l0.6,0.1l0.6,0.4l0.5,0.5
		l0.4,0.8l0.3,0.9l0.2,1l0.1,1.1v1.2l-0.2,1.1l-0.3,1.1l-0.4,1l-0.6,0.8l-0.6,0.7l-0.7,0.4l-0.7,0.2h-0.8l-0.6-0.2 M302.45,0.65
		l0.3-0.2l0.9-0.2l0.9,0.4l0.7,0.8l0.5,1l0.3,1.3l0.2,1.3l-0.1,1.2l-0.2,1.2l-0.3,1l-0.7,1.5l-0.9,1l-0.5,0.3l-0.4,0.2l-0.4,0.1h-1
		l-0.5-0.2 M304.75,0.65l0.7-0.3h0.9l0.5,0.3l0.5,0.4l0.6,1.1l0.4,1.3l0.1,1.1l0.1,1l-0.1,0.8l-0.1,0.5l-0.1,0.7l-0.5,1.6l-1,1.4
		l-0.6,0.5l-0.7,0.4l-0.8,0.1l-0.9-0.1l-0.2-0.1 M307.05,0.65l0.1-0.1l0.6-0.2l0.6-0.1l0.6,0.3l0.3,0.2h0.1l0.1,0.1v0.1h0.1l0.2,0.3
		l0.1,0.1l0.1,0.3l0.2,0.3l0.2,0.4l0.3,1.1l0.1,0.8l0.1,1.1l-0.1,1.2l-0.3,1.4l-0.5,1.4l-0.3,0.4l-0.2,0.4l-0.3,0.4l-0.7,0.6
		l-0.8,0.3l-0.8,0.1l-0.7-0.1l-0.2-0.1 M309.45,0.65l0.2-0.2l0.5-0.2h0.4l0.6,0.2l0.5,0.4l0.5,0.5l0.4,0.8l0.3,1l0.2,1l0.1,1.2
		l-0.1,1.1l-0.2,1.1l-0.3,1.1l-0.5,1l-0.5,0.8l-0.6,0.6l-0.8,0.4l-0.4,0.1h-0.1h-0.1h-0.1h-0.1h-0.3h-0.2h-0.2l-0.3-0.1l-0.1-0.1
		 M314.95,8.45l-0.5,1l-0.5,0.8l-0.6,0.7l-0.7,0.4l-0.7,0.2h-0.8l-0.6-0.2 M312.05,1.05l0.5-0.2l0.9,0.2l0.8,0.8l0.6,1.3l0.4,1.6
		v1.8l-0.3,1.9 M315.55,4.25l0.2,1v1.2l-0.3,1.2l-0.5,1.1l-0.2,0.3 M315.45,3.95l-0.3-0.6 M315.15,3.35l-0.7-1.2 M314.35,9.95
		l0.1-0.3 M315.05,8.75l0.4-0.8 M6.05,11.55h0.2 M8.35,11.55h0.3 M10.65,11.55h0.3 M13.05,11.55h0.2 M15.35,11.55h0.2 M17.65,11.55
		h0.2 M19.95,11.55h0.2 M22.25,11.55h0.2 M24.55,11.55h0.3 M26.85,11.55h0.3 M29.25,11.55h0.2 M31.55,11.55h0.2 M33.85,11.55h0.2
		 M36.15,11.55h0.2 M38.45,11.55h0.3 M40.75,11.55h0.3 M43.05,11.55h0.3 M45.45,11.55h0.2 M47.75,11.55h0.2 M50.05,11.55h0.2
		 M52.35,11.55h0.2 M54.65,11.55h0.3 M56.95,11.55h0.3 M59.35,11.55h0.2 M61.65,11.55h0.2 M63.95,11.55h0.2 M66.25,11.55h0.2
		 M68.55,11.55h0.2 M70.85,11.55h0.3 M73.15,11.55h0.3 M75.45,11.55h0.3 M77.85,11.55h0.2 M80.15,11.55h0.2 M82.45,11.55h0.2
		 M84.75,11.55h0.2 M87.05,11.55h0.3 M89.35,11.55h0.3 M91.65,11.55h0.3 M94.05,11.55h0.2 M96.35,11.55h0.2 M98.65,11.55h0.2
		 M100.95,11.55h0.2 M103.25,11.55h0.3 M105.55,11.55h0.3 M107.95,11.55h0.2 M110.25,11.55h0.2 M112.55,11.55h0.2 M114.85,11.55h0.2
		 M117.15,11.55h0.2 M119.45,11.55h0.3 M121.75,11.55h0.3 M124.15,11.55h0.2 M126.45,11.55h0.2 M128.75,11.55h0.2 M131.05,11.55h0.2
		 M133.35,11.55h0.3 M135.65,11.55h0.3 M137.95,11.55h0.3 M140.35,11.55h0.2 M142.65,11.55h0.2 M144.95,11.55h0.2 M147.25,11.55h0.2
		 M149.55,11.55h0.2 M151.85,11.55h0.3 M154.25,11.55h0.2 M156.55,11.55h0.2 M158.85,11.55h0.2 M161.15,11.55h0.2 M163.45,11.55h0.2
		 M165.75,11.55h0.3 M168.05,11.55h0.3 M170.35,11.55h0.3 M172.75,11.55h0.2 M175.05,11.55h0.2 M177.35,11.55h0.2 M179.65,11.55h0.2
		 M181.95,11.55h0.3 M184.25,11.55h0.3 M186.55,11.55h0.3 M188.95,11.55h0.2 M191.25,11.55h0.2 M193.55,11.55h0.2 M195.85,11.55h0.2
		 M198.15,11.55h0.3 M200.45,11.55h0.3 M202.85,11.55h0.2 M205.15,11.55h0.2 M207.45,11.55h0.2 M209.75,11.55h0.2 M212.05,11.55h0.2
		 M214.35,11.55h0.3 M216.65,11.55h0.3 M219.05,11.55h0.2 M221.35,11.55h0.2 M223.65,11.55h0.2 M225.95,11.55h0.2 M228.25,11.55h0.2
		 M230.55,11.55h0.3 M232.85,11.55h0.3 M235.25,11.55h0.2 M237.55,11.55h0.2 M239.85,11.55h0.2 M242.15,11.55h0.2 M244.45,11.55h0.2
		 M246.75,11.55h0.3 M249.05,11.55h0.3 M251.45,11.55h0.2 M253.75,11.55h0.2 M256.05,11.55h0.2 M258.35,11.55h0.2 M260.65,11.55h0.2
		 M262.95,11.55h0.3 M265.25,11.55h0.3 M267.65,11.55h0.2 M269.95,11.55h0.2 M272.25,11.55h0.2 M274.55,11.55h0.2 M276.85,11.55h0.3
		 M279.15,11.55h0.3 M281.55,11.55h0.2 M283.85,11.55h0.2 M286.15,11.55h0.2 M288.45,11.55h0.2 M290.75,11.55h0.2 M293.05,11.55h0.3
		 M295.35,11.55h0.3 M297.65,11.55h0.3 M300.05,11.55h0.2 M302.35,11.55h0.2 M304.65,11.55h0.2 M306.95,11.55h0.2 M309.25,11.55h0.3
		 M311.55,11.55h0.3 M310.65,0.25h-0.2 M308.35,0.25h-0.2 M306.05,0.25h-0.2 M303.75,0.25h-0.3 M301.45,0.25h-0.3 M299.05,0.25h-0.2
		 M296.75,0.25h-0.2 M294.45,0.25h-0.2 M292.15,0.25h-0.2 M289.85,0.25h-0.2 M287.55,0.25h-0.3 M285.25,0.25h-0.3 M282.85,0.25h-0.2
		 M280.55,0.25h-0.2 M278.25,0.25h-0.2 M275.95,0.25h-0.2 M273.65,0.25h-0.2 M271.35,0.25h-0.3 M269.05,0.25h-0.3 M266.65,0.25h-0.2
		 M264.35,0.25h-0.2 M262.05,0.25h-0.2 M259.75,0.25h-0.2 M257.45,0.25h-0.3 M255.15,0.25h-0.3 M252.85,0.25h-0.3 M250.45,0.25h-0.2
		 M248.15,0.25h-0.2 M245.85,0.25h-0.2 M243.55,0.25h-0.2 M241.25,0.25h-0.3 M238.95,0.25h-0.3 M236.55,0.25h-0.2 M234.25,0.25h-0.2
		 M231.95,0.25h-0.2 M229.65,0.25h-0.2 M227.35,0.25h-0.2 M225.05,0.25h-0.3 M222.75,0.25h-0.3 M220.35,0.25h-0.2 M218.05,0.25h-0.2
		 M215.75,0.25h-0.2 M213.45,0.25h-0.2 M211.15,0.25h-0.2 M208.85,0.25h-0.3 M206.55,0.25h-0.3 M204.15,0.25h-0.2 M201.85,0.25h-0.2
		 M199.55,0.25h-0.2 M197.25,0.25h-0.2 M194.95,0.25h-0.2 M192.65,0.25h-0.3 M190.35,0.25h-0.3 M187.95,0.25h-0.2 M185.65,0.25h-0.2
		 M183.35,0.25h-0.2 M181.05,0.25h-0.2 M178.75,0.25h-0.2 M176.45,0.25h-0.3 M174.15,0.25h-0.3 M171.75,0.25h-0.2 M169.45,0.25h-0.2
		 M167.15,0.25h-0.2 M164.85,0.25h-0.2 M162.55,0.25h-0.3 M160.25,0.25h-0.3 M157.85,0.25h-0.2 M155.55,0.25h-0.2 M153.25,0.25h-0.2
		 M150.95,0.25h-0.2 M148.65,0.25h-0.2 M146.35,0.25h-0.2 M144.05,0.25h-0.3 M141.65,0.25h-0.2 M139.35,0.25h-0.2 M137.05,0.25h-0.2
		 M134.75,0.25h-0.2 M132.45,0.25h-0.2 M130.15,0.25h-0.3 M127.85,0.25h-0.3 M125.45,0.25h-0.2 M123.15,0.25h-0.2 M120.85,0.25h-0.2
		 M118.55,0.25h-0.2 M116.25,0.25h-0.2 M113.95,0.25h-0.3 M111.65,0.25h-0.3 M109.25,0.25h-0.2 M106.95,0.25h-0.2 M104.65,0.25h-0.2
		 M102.35,0.25h-0.2 M100.05,0.25h-0.2 M97.75,0.25h-0.3 M95.45,0.25h-0.3 M93.05,0.25h-0.2 M90.75,0.25h-0.2 M88.45,0.25h-0.2
		 M86.15,0.25h-0.2 M83.85,0.25h-0.2 M81.55,0.25h-0.3 M79.25,0.25h-0.3 M76.85,0.25h-0.2 M74.55,0.25h-0.2 M72.25,0.25h-0.2
		 M69.95,0.25h-0.2 M67.65,0.25h-0.3 M65.35,0.25h-0.3 M62.95,0.25h-0.2 M60.65,0.25h-0.2 M58.35,0.25h-0.2 M56.05,0.25h-0.2
		 M53.75,0.25h-0.2 M51.45,0.25h-0.3 M49.15,0.25h-0.3 M46.75,0.25h-0.2 M44.45,0.25h-0.2 M42.15,0.25h-0.2 M39.85,0.25h-0.2
		 M37.55,0.25h-0.2 M35.25,0.25h-0.3 M32.95,0.25h-0.3 M30.55,0.25h-0.2 M28.25,0.25h-0.2 M25.95,0.25h-0.2 M23.65,0.25h-0.2
		 M21.35,0.25h-0.2 M19.05,0.25h-0.3 M16.75,0.25h-0.3 M14.35,0.25h-0.2 M12.05,0.25h-0.2 M9.75,0.25h-0.2 M7.45,0.25h-0.2
		 M5.15,0.25h-0.2 M0.65,7.95l0.3,0.5 M1.05,8.55l0.6,1.1 M1.45,2.55l-0.8,1.4"/>
</g>
</svg>
