<?xml version="1.0" encoding="utf-8"?>
<!-- Generator: Adobe Illustrator 19.0.0, SVG Export Plug-In . SVG Version: 6.00 Build 0)  -->
<svg version="1.0" id="Layer_1" xmlns="http://www.w3.org/2000/svg" xmlns:xlink="http://www.w3.org/1999/xlink" x="0px" y="0px"
	 width="628.7px" height="11.9px" viewBox="0 0 628.7 11.9" enable-background="new 0 0 628.7 11.9" xml:space="preserve">
<g>
	<path fill="none" stroke="#000000" stroke-width="0.5" stroke-linecap="round" stroke-linejoin="round" stroke-miterlimit="10" d="
		M626.95,9.75l0.1-0.2l0.6-1.5l0.4-1.6v-1.5l-0.2-1l-0.3-0.7 M627.95,3.95L627.95,3.95l0.4,0.9l0.1,1.1l-0.1,1.1l-0.4,0.9
		 M627.55,3.25l0.2,0.3l0.1,0.2l0.2,0.5 M5.15,0.25L5.15,0.25l1.1,0.5l0.9,1.2l0.6,1.9l0.1,2.1l-0.4,2.2l-0.8,1.8l-1,1.1 M7.45,0.25
		L7.45,0.25l1.1,0.5l1,1.2l0.5,1.9l0.1,2.1l-0.4,2.2l-0.8,1.8l-1,1.1l-1.6,0.6 M9.75,0.25h0.1l1,0.5l1,1.2l0.5,1.9l0.1,2.1l-0.4,2.2
		l-0.8,1.8l-1,1.1l-1.6,0.6 M12.15,0.25L12.15,0.25l1.1,0.5l0.9,1.2l0.6,1.9l0.1,2.1l-0.4,2.2l-0.9,1.8l-1,1.1l-1.6,0.6 M14.45,0.25
		L14.45,0.25l1.1,0.5l0.9,1.2l0.6,1.9l0.1,2.1l-0.4,2.2l-0.9,1.8l-0.9,1.1l-1.7,0.6 M16.75,0.25L16.75,0.25l1.1,0.5l0.9,1.2l0.6,1.9
		l0.1,2.1l-0.4,2.2l-0.9,1.8l-0.9,1.1l-1.7,0.6 M19.05,0.25L19.05,0.25l1.1,0.5l0.9,1.2l0.6,1.9l0.1,2.1l-0.4,2.2l-0.8,1.8l-1,1.1
		l-1.7,0.6 M21.35,0.25L21.35,0.25l1.1,0.5l0.9,1.2l0.6,1.9l0.1,2.1l-0.4,2.2l-0.8,1.8l-1,1.1l-1.6,0.6 M23.65,0.25L23.65,0.25
		l1.1,0.5l1,1.2l0.5,1.9l0.1,2.1l-0.4,2.2l-0.8,1.8l-1,1.1l-1.6,0.6 M25.95,0.25h0.1l1.1,0.5l0.9,1.2l0.5,1.9l0.2,2.1l-0.5,2.2
		l-0.8,1.8l-1,1.1l-1.6,0.6 M28.35,0.25L28.35,0.25l1.1,0.5l0.9,1.2l0.6,1.9l0.1,2.1l-0.4,2.2l-0.9,1.8l-1,1.1l-1.6,0.6 M30.65,0.25
		L30.65,0.25l1.1,0.5l0.9,1.2l0.6,1.9l0.1,2.1l-0.4,2.2l-0.9,1.8l-0.9,1.1l-1.7,0.6 M32.95,0.25L32.95,0.25l1.1,0.5l0.9,1.2l0.6,1.9
		l0.1,2.1l-0.4,2.2l-0.9,1.8l-0.9,1.1l-1.7,0.6 M35.25,0.25L35.25,0.25l1.1,0.5l0.9,1.2l0.6,1.9l0.1,2.1l-0.4,2.2l-0.8,1.8l-1,1.1
		l-1.7,0.6 M37.55,0.25L37.55,0.25l1.1,0.5l0.9,1.2l0.6,1.9l0.1,2.1l-0.4,2.2l-0.8,1.8l-1,1.1l-1.6,0.6 M39.85,0.25L39.85,0.25
		l1.1,0.5l1,1.2l0.5,1.9l0.1,2.1l-0.4,2.2l-0.8,1.8l-1,1.1l-1.6,0.6 M42.25,0.25L42.25,0.25l1.1,0.5l0.9,1.2l0.5,1.9l0.2,2.1
		l-0.5,2.2l-0.8,1.8l-1,1.1l-1.6,0.6 M44.55,0.25L44.55,0.25l1.1,0.5l0.9,1.2l0.6,1.9l0.1,2.1l-0.4,2.2l-0.9,1.8l-1,1.1l-1.6,0.6
		 M46.85,0.25L46.85,0.25l1.1,0.5l0.9,1.2l0.6,1.9l0.1,2.1l-0.4,2.2l-0.9,1.8l-0.9,1.1l-1.7,0.6 M49.15,0.25L49.15,0.25l1.1,0.5
		l0.9,1.2l0.6,1.9l0.1,2.1l-0.4,2.2l-0.9,1.8l-0.9,1.1l-1.7,0.6 M51.45,0.25L51.45,0.25l1.1,0.5l0.9,1.2l0.6,1.9l0.1,2.1l-0.4,2.2
		l-0.8,1.8l-1,1.1l-1.6,0.6 M53.75,0.25L53.75,0.25l1.1,0.5l1,1.2l0.5,1.9l0.1,2.1l-0.4,2.2l-0.8,1.8l-1,1.1l-1.6,0.6 M56.05,0.25
		h0.1l1,0.5l1,1.2l0.5,1.9l0.1,2.1l-0.4,2.2l-0.8,1.8l-1,1.1l-1.6,0.6 M58.45,0.25L58.45,0.25l1.1,0.5l0.9,1.2l0.5,1.9l0.2,2.1
		l-0.5,2.2l-0.8,1.8l-1,1.1l-1.6,0.6 M60.75,0.25L60.75,0.25l1.1,0.5l0.9,1.2l0.6,1.9l0.1,2.1l-0.4,2.2l-0.9,1.8l-1,1.1l-1.6,0.6
		 M63.05,0.25L63.05,0.25l1.1,0.5l0.9,1.2l0.6,1.9l0.1,2.1l-0.4,2.2l-0.9,1.8l-0.9,1.1l-1.7,0.6 M65.35,0.25L65.35,0.25l1.1,0.5
		l0.9,1.2l0.6,1.9l0.1,2.1l-0.4,2.2l-0.9,1.8l-0.9,1.1l-1.7,0.6 M67.65,0.25L67.65,0.25l1.1,0.5l0.9,1.2l0.6,1.9l0.1,2.1l-0.4,2.2
		l-0.8,1.8l-1,1.1l-1.6,0.6 M69.95,0.25L69.95,0.25l1.1,0.5l1,1.2l0.5,1.9l0.1,2.1l-0.4,2.2l-0.8,1.8l-1,1.1l-1.6,0.6 M72.25,0.25
		h0.1l1,0.5l1,1.2l0.5,1.9l0.1,2.1l-0.4,2.2l-0.8,1.8l-1,1.1l-1.6,0.6 M74.65,0.25L74.65,0.25l1.1,0.5l0.9,1.2l0.5,1.9l0.2,2.1
		l-0.4,2.2l-0.9,1.8l-1,1.1l-1.6,0.6 M76.95,0.25L76.95,0.25l1.1,0.5l0.9,1.2l0.6,1.9l0.1,2.1l-0.4,2.2l-0.9,1.8l-0.9,1.1l-1.7,0.6
		 M79.25,0.25L79.25,0.25l1.1,0.5l0.9,1.2l0.6,1.9l0.1,2.1l-0.4,2.2l-0.9,1.8l-0.9,1.1l-1.7,0.6 M81.55,0.25L81.55,0.25l1.1,0.5
		l0.9,1.2l0.6,1.9l0.1,2.1l-0.4,2.2l-0.9,1.8l-0.9,1.1l-1.7,0.6 M83.85,0.25L83.85,0.25l1.1,0.5l0.9,1.2l0.6,1.9l0.1,2.1l-0.4,2.2
		l-0.8,1.8l-1,1.1l-1.6,0.6 M86.15,0.25L86.15,0.25l1.1,0.5l1,1.2l0.5,1.9l0.1,2.1l-0.4,2.2l-0.8,1.8l-1,1.1l-1.6,0.6 M88.45,0.25
		h0.1l1,0.5l1,1.2l0.5,1.9l0.1,2.1l-0.4,2.2l-0.8,1.8l-1,1.1l-1.6,0.6 M90.85,0.25L90.85,0.25l1.1,0.5l0.9,1.2l0.6,1.9l0.1,2.1
		l-0.4,2.2l-0.9,1.8l-1,1.1l-1.6,0.6 M93.15,0.25L93.15,0.25l1.1,0.5l0.9,1.2l0.6,1.9l0.1,2.1l-0.4,2.2l-0.9,1.8l-0.9,1.1l-1.7,0.6
		 M95.45,0.25L95.45,0.25l1.1,0.5l0.9,1.2l0.6,1.9l0.1,2.1l-0.4,2.2l-0.9,1.8l-0.9,1.1l-1.7,0.6 M97.75,0.25L97.75,0.25l1.1,0.5
		l0.9,1.2l0.6,1.9l0.1,2.1l-0.4,2.2l-0.8,1.8l-1,1.1l-1.7,0.6 M100.05,0.25L100.05,0.25l1.1,0.5l0.9,1.2l0.6,1.9l0.1,2.1l-0.4,2.2
		l-0.8,1.8l-1,1.1l-1.6,0.6 M102.35,0.25L102.35,0.25l1.1,0.5l1,1.2l0.5,1.9l0.1,2.1l-0.4,2.2l-0.8,1.8l-1,1.1l-1.6,0.6
		 M104.65,0.25h0.1l1,0.5l1,1.2l0.5,1.9l0.1,2.1l-0.4,2.2l-0.8,1.8l-1,1.1l-1.6,0.6 M107.05,0.25L107.05,0.25l1.1,0.5l0.9,1.2
		l0.6,1.9l0.1,2.1l-0.4,2.2l-0.9,1.8l-1,1.1l-1.6,0.6 M109.35,0.25L109.35,0.25l1.1,0.5l0.9,1.2l0.6,1.9l0.1,2.1l-0.4,2.2l-0.9,1.8
		l-0.9,1.1l-1.7,0.6 M111.65,0.25L111.65,0.25l1.1,0.5l0.9,1.2l0.6,1.9l0.1,2.1l-0.4,2.2l-0.9,1.8l-0.9,1.1l-1.7,0.6 M113.95,0.25
		L113.95,0.25l1.1,0.5l0.9,1.2l0.6,1.9l0.1,2.1l-0.4,2.2l-0.8,1.8l-1,1.1l-1.7,0.6 M116.25,0.25L116.25,0.25l1.1,0.5l0.9,1.2
		l0.6,1.9l0.1,2.1l-0.4,2.2l-0.8,1.8l-1,1.1l-1.6,0.6 M118.55,0.25L118.55,0.25l1.1,0.5l1,1.2l0.5,1.9l0.1,2.1l-0.4,2.2l-0.8,1.8
		l-1,1.1l-1.6,0.6 M120.85,0.25h0.1l1.1,0.5l0.9,1.2l0.5,1.9l0.1,2.1l-0.4,2.2l-0.8,1.8l-1,1.1l-1.6,0.6 M123.25,0.25L123.25,0.25
		l1.1,0.5l0.9,1.2l0.6,1.9l0.1,2.1l-0.4,2.2l-0.9,1.8l-1,1.1l-1.6,0.6 M125.55,0.25L125.55,0.25l1.1,0.5l0.9,1.2l0.6,1.9l0.1,2.1
		l-0.4,2.2l-0.9,1.8l-0.9,1.1l-1.7,0.6 M127.85,0.25L127.85,0.25l1.1,0.5l0.9,1.2l0.6,1.9l0.1,2.1l-0.4,2.2l-0.9,1.8l-0.9,1.1
		l-1.7,0.6 M130.15,0.25L130.15,0.25l1.1,0.5l0.9,1.2l0.6,1.9l0.1,2.1l-0.4,2.2l-0.8,1.8l-1,1.1l-1.7,0.6 M132.45,0.25L132.45,0.25
		l1.1,0.5l0.9,1.2l0.6,1.9l0.1,2.1l-0.4,2.2l-0.8,1.8l-1,1.1l-1.6,0.6 M134.75,0.25L134.75,0.25l1.1,0.5l1,1.2l0.5,1.9l0.1,2.1
		l-0.4,2.2l-0.8,1.8l-1,1.1l-1.6,0.6 M137.05,0.25h0.1l1.1,0.5l0.9,1.2l0.5,1.9l0.2,2.1l-0.5,2.2l-0.8,1.8l-1,1.1l-1.6,0.6
		 M139.45,0.25L139.45,0.25l1.1,0.5l0.9,1.2l0.6,1.9l0.1,2.1l-0.4,2.2l-0.9,1.8l-1,1.1l-1.6,0.6 M141.75,0.25L141.75,0.25l1.1,0.5
		l0.9,1.2l0.6,1.9l0.1,2.1l-0.4,2.2l-0.9,1.8l-0.9,1.1l-1.7,0.6 M144.05,0.25L144.05,0.25l1.1,0.5l0.9,1.2l0.6,1.9l0.1,2.1l-0.4,2.2
		l-0.9,1.8l-0.9,1.1l-1.7,0.6 M146.35,0.25L146.35,0.25l1.1,0.5l0.9,1.2l0.6,1.9l0.1,2.1l-0.4,2.2l-0.8,1.8l-1,1.1l-1.7,0.6
		 M148.65,0.25L148.65,0.25l1.1,0.5l1,1.2l0.5,1.9l0.1,2.1l-0.4,2.2l-0.8,1.8l-1,1.1l-1.6,0.6 M150.95,0.25L150.95,0.25l1.1,0.5
		l1,1.2l0.5,1.9l0.1,2.1l-0.4,2.2l-0.8,1.8l-1,1.1l-1.6,0.6 M153.35,0.25L153.35,0.25l1.1,0.5l0.9,1.2l0.5,1.9l0.2,2.1l-0.5,2.2
		l-0.8,1.8l-1,1.1l-1.6,0.6 M155.65,0.25L155.65,0.25l1.1,0.5l0.9,1.2l0.6,1.9l0.1,2.1l-0.4,2.2l-0.9,1.8l-1,1.1l-1.6,0.6
		 M157.95,0.25L157.95,0.25l1.1,0.5l0.9,1.2l0.6,1.9l0.1,2.1l-0.4,2.2l-0.9,1.8l-0.9,1.1l-1.7,0.6 M160.25,0.25L160.25,0.25l1.1,0.5
		l0.9,1.2l0.6,1.9l0.1,2.1l-0.4,2.2l-0.9,1.8l-0.9,1.1l-1.7,0.6 M162.55,0.25L162.55,0.25l1.1,0.5l0.9,1.2l0.6,1.9l0.1,2.1l-0.4,2.2
		l-0.8,1.8l-1,1.1l-1.6,0.6 M164.85,0.25L164.85,0.25l1.1,0.5l1,1.2l0.5,1.9l0.1,2.1l-0.4,2.2l-0.8,1.8l-1,1.1l-1.6,0.6
		 M167.15,0.25h0.1l1,0.5l1,1.2l0.5,1.9l0.1,2.1l-0.4,2.2l-0.8,1.8l-1,1.1l-1.6,0.6 M169.55,0.25L169.55,0.25l1.1,0.5l0.9,1.2
		l0.5,1.9l0.2,2.1l-0.4,2.2l-0.9,1.8l-1,1.1l-1.6,0.6 M171.85,0.25L171.85,0.25l1.1,0.5l0.9,1.2l0.6,1.9l0.1,2.1l-0.4,2.2l-0.9,1.8
		l-1,1.1l-1.6,0.6 M174.15,0.25L174.15,0.25l1.1,0.5l0.9,1.2l0.6,1.9l0.1,2.1l-0.4,2.2l-0.9,1.8l-0.9,1.1l-1.7,0.6 M176.45,0.25
		L176.45,0.25l1.1,0.5l0.9,1.2l0.6,1.9l0.1,2.1l-0.4,2.2l-0.9,1.8l-0.9,1.1l-1.7,0.6 M178.75,0.25L178.75,0.25l1.1,0.5l0.9,1.2
		l0.6,1.9l0.1,2.1l-0.4,2.2l-0.8,1.8l-1,1.1l-1.6,0.6 M181.05,0.25L181.05,0.25l1.1,0.5l1,1.2l0.5,1.9l0.1,2.1l-0.4,2.2l-0.8,1.8
		l-1,1.1l-1.6,0.6 M183.35,0.25h0.1l1,0.5l1,1.2l0.5,1.9l0.1,2.1l-0.4,2.2l-0.8,1.8l-1,1.1l-1.6,0.6 M185.75,0.25L185.75,0.25
		l1.1,0.5l0.9,1.2l0.5,1.9l0.2,2.1l-0.4,2.2l-0.9,1.8l-1,1.1l-1.6,0.6 M188.05,0.25L188.05,0.25l1.1,0.5l0.9,1.2l0.6,1.9l0.1,2.1
		l-0.4,2.2l-0.9,1.8l-0.9,1.1l-1.7,0.6 M190.35,0.25L190.35,0.25l1.1,0.5l0.9,1.2l0.6,1.9l0.1,2.1l-0.4,2.2l-0.9,1.8l-0.9,1.1
		l-1.7,0.6 M192.65,0.25L192.65,0.25l1.1,0.5l0.9,1.2l0.6,1.9l0.1,2.1l-0.4,2.2l-0.9,1.8l-0.9,1.1l-1.7,0.6 M194.95,0.25
		L194.95,0.25l1.1,0.5l0.9,1.2l0.6,1.9l0.1,2.1l-0.4,2.2l-0.8,1.8l-1,1.1l-1.6,0.6 M197.25,0.25L197.25,0.25l1.1,0.5l1,1.2l0.5,1.9
		l0.1,2.1l-0.4,2.2l-0.8,1.8l-1,1.1l-1.6,0.6 M199.55,0.25h0.1l1,0.5l1,1.2l0.5,1.9l0.1,2.1l-0.4,2.2l-0.8,1.8l-1,1.1l-1.6,0.6
		 M201.95,0.25L201.95,0.25l1.1,0.5l0.9,1.2l0.6,1.9l0.1,2.1l-0.4,2.2l-0.9,1.8l-1,1.1l-1.6,0.6 M204.25,0.25L204.25,0.25l1.1,0.5
		l0.9,1.2l0.6,1.9l0.1,2.1l-0.4,2.2l-0.9,1.8l-0.9,1.1l-1.7,0.6 M206.55,0.25L206.55,0.25l1.1,0.5l0.9,1.2l0.6,1.9l0.1,2.1l-0.4,2.2
		l-0.9,1.8l-0.9,1.1l-1.7,0.6 M208.85,0.25L208.85,0.25l1.1,0.5l0.9,1.2l0.6,1.9l0.1,2.1l-0.4,2.2l-0.8,1.8l-1,1.1l-1.7,0.6
		 M211.15,0.25L211.15,0.25l1.1,0.5l0.9,1.2l0.6,1.9l0.1,2.1l-0.4,2.2l-0.8,1.8l-1,1.1l-1.6,0.6 M213.45,0.25L213.45,0.25l1.1,0.5
		l1,1.2l0.5,1.9l0.1,2.1l-0.4,2.2l-0.8,1.8l-1,1.1l-1.6,0.6 M215.75,0.25h0.1l1,0.5l1,1.2l0.5,1.9l0.1,2.1l-0.4,2.2l-0.8,1.8l-1,1.1
		l-1.6,0.6 M218.15,0.25L218.15,0.25l1.1,0.5l0.9,1.2l0.6,1.9l0.1,2.1l-0.4,2.2l-0.9,1.8l-1,1.1l-1.6,0.6 M220.45,0.25L220.45,0.25
		l1.1,0.5l0.9,1.2l0.6,1.9l0.1,2.1l-0.4,2.2l-0.9,1.8l-0.9,1.1l-1.7,0.6 M222.75,0.25L222.75,0.25l1.1,0.5l0.9,1.2l0.6,1.9l0.1,2.1
		l-0.4,2.2l-0.9,1.8l-0.9,1.1l-1.7,0.6 M225.05,0.25L225.05,0.25l1.1,0.5l0.9,1.2l0.6,1.9l0.1,2.1l-0.4,2.2l-0.8,1.8l-1,1.1
		l-1.7,0.6 M227.35,0.25L227.35,0.25l1.1,0.5l0.9,1.2l0.6,1.9l0.1,2.1l-0.4,2.2l-0.8,1.8l-1,1.1l-1.6,0.6 M229.65,0.25L229.65,0.25
		l1.1,0.5l1,1.2l0.5,1.9l0.1,2.1l-0.4,2.2l-0.8,1.8l-1,1.1l-1.6,0.6 M231.95,0.25h0.1l1.1,0.5l0.9,1.2l0.5,1.9l0.2,2.1l-0.5,2.2
		l-0.8,1.8l-1,1.1l-1.6,0.6 M234.35,0.25L234.35,0.25l1.1,0.5l0.9,1.2l0.6,1.9l0.1,2.1l-0.4,2.2l-0.9,1.8l-1,1.1l-1.6,0.6
		 M236.65,0.25L236.65,0.25l1.1,0.5l0.9,1.2l0.6,1.9l0.1,2.1l-0.4,2.2l-0.9,1.8l-0.9,1.1l-1.7,0.6 M238.95,0.25L238.95,0.25l1.1,0.5
		l0.9,1.2l0.6,1.9l0.1,2.1l-0.4,2.2l-0.9,1.8l-0.9,1.1l-1.7,0.6 M241.25,0.25L241.25,0.25l1.1,0.5l0.9,1.2l0.6,1.9l0.1,2.1l-0.4,2.2
		l-0.8,1.8l-1,1.1l-1.7,0.6 M243.55,0.25L243.55,0.25l1.1,0.5l0.9,1.2l0.6,1.9l0.1,2.1l-0.4,2.2l-0.8,1.8l-1,1.1l-1.6,0.6
		 M245.85,0.25L245.85,0.25l1.1,0.5l1,1.2l0.5,1.9l0.1,2.1l-0.4,2.2l-0.8,1.8l-1,1.1l-1.6,0.6 M248.25,0.25L248.25,0.25l1.1,0.5
		l0.9,1.2l0.5,1.9l0.2,2.1l-0.5,2.2l-0.8,1.8l-1,1.1l-1.6,0.6 M250.55,0.25L250.55,0.25l1.1,0.5l0.9,1.2l0.6,1.9l0.1,2.1l-0.4,2.2
		l-0.9,1.8l-1,1.1l-1.6,0.6 M252.85,0.25L252.85,0.25l1.1,0.5l0.9,1.2l0.6,1.9l0.1,2.1l-0.4,2.2l-0.9,1.8l-0.9,1.1l-1.7,0.6
		 M255.15,0.25L255.15,0.25l1.1,0.5l0.9,1.2l0.6,1.9l0.1,2.1l-0.4,2.2l-0.9,1.8l-0.9,1.1l-1.7,0.6 M257.45,0.25L257.45,0.25l1.1,0.5
		l0.9,1.2l0.6,1.9l0.1,2.1l-0.4,2.2l-0.8,1.8l-1,1.1l-1.6,0.6 M259.75,0.25L259.75,0.25l1.1,0.5l1,1.2l0.5,1.9l0.1,2.1l-0.4,2.2
		l-0.8,1.8l-1,1.1l-1.6,0.6 M262.05,0.25h0.1l1,0.5l1,1.2l0.5,1.9l0.1,2.1l-0.4,2.2l-0.8,1.8l-1,1.1l-1.6,0.6 M264.45,0.25
		L264.45,0.25l1.1,0.5l0.9,1.2l0.5,1.9l0.2,2.1l-0.5,2.2l-0.8,1.8l-1,1.1l-1.6,0.6 M266.75,0.25L266.75,0.25l1.1,0.5l0.9,1.2
		l0.6,1.9l0.1,2.1l-0.4,2.2l-0.9,1.8l-1,1.1l-1.6,0.6 M269.05,0.25L269.05,0.25l1.1,0.5l0.9,1.2l0.6,1.9l0.1,2.1l-0.4,2.2l-0.9,1.8
		l-0.9,1.1l-1.7,0.6 M271.35,0.25L271.35,0.25l1.1,0.5l0.9,1.2l0.6,1.9l0.1,2.1l-0.4,2.2l-0.9,1.8l-0.9,1.1l-1.7,0.6 M273.65,0.25
		L273.65,0.25l1.1,0.5l0.9,1.2l0.6,1.9l0.1,2.1l-0.4,2.2l-0.8,1.8l-1,1.1l-1.6,0.6 M275.95,0.25L275.95,0.25l1.1,0.5l1,1.2l0.5,1.9
		l0.1,2.1l-0.4,2.2l-0.8,1.8l-1,1.1l-1.6,0.6 M278.25,0.25h0.1l1,0.5l1,1.2l0.5,1.9l0.1,2.1l-0.4,2.2l-0.8,1.8l-1,1.1l-1.6,0.6
		 M280.65,0.25L280.65,0.25l1.1,0.5l0.9,1.2l0.5,1.9l0.2,2.1l-0.4,2.2l-0.9,1.8l-1,1.1l-1.6,0.6 M282.95,0.25L282.95,0.25l1.1,0.5
		l0.9,1.2l0.6,1.9l0.1,2.1l-0.4,2.2l-0.9,1.8l-0.9,1.1l-1.7,0.6 M285.25,0.25L285.25,0.25l1.1,0.5l0.9,1.2l0.6,1.9l0.1,2.1l-0.4,2.2
		l-0.9,1.8l-0.9,1.1l-1.7,0.6 M287.55,0.25L287.55,0.25l1.1,0.5l0.9,1.2l0.6,1.9l0.1,2.1l-0.4,2.2l-0.9,1.8l-0.9,1.1l-1.7,0.6
		 M289.85,0.25L289.85,0.25l1.1,0.5l0.9,1.2l0.6,1.9l0.1,2.1l-0.4,2.2l-0.8,1.8l-1,1.1l-1.6,0.6 M292.15,0.25L292.15,0.25l1.1,0.5
		l1,1.2l0.5,1.9l0.1,2.1l-0.4,2.2l-0.8,1.8l-1,1.1l-1.6,0.6 M294.45,0.25h0.1l1,0.5l1,1.2l0.5,1.9l0.1,2.1l-0.4,2.2l-0.8,1.8l-1,1.1
		l-1.6,0.6 M296.85,0.25L296.85,0.25l1.1,0.5l0.9,1.2l0.6,1.9l0.1,2.1l-0.4,2.2l-0.9,1.8l-1,1.1l-1.6,0.6 M299.15,0.25L299.15,0.25
		l1.1,0.5l0.9,1.2l0.6,1.9l0.1,2.1l-0.4,2.2l-0.9,1.8l-0.9,1.1l-1.7,0.6 M301.45,0.25L301.45,0.25l1.1,0.5l0.9,1.2l0.6,1.9l0.1,2.1
		l-0.4,2.2l-0.9,1.8l-0.9,1.1l-1.7,0.6 M303.75,0.25L303.75,0.25l1.1,0.5l0.9,1.2l0.6,1.9l0.1,2.1l-0.4,2.2l-0.9,1.8l-0.9,1.1
		l-1.7,0.6 M306.05,0.25L306.05,0.25l1.1,0.5l0.9,1.2l0.6,1.9l0.1,2.1l-0.4,2.2l-0.8,1.8l-1,1.1l-1.6,0.6 M308.35,0.25L308.35,0.25
		l1.1,0.5l1,1.2l0.5,1.9l0.1,2.1l-0.4,2.2l-0.8,1.8l-1,1.1l-1.6,0.6 M310.65,0.25h0.1l1,0.5l1,1.2l0.5,1.9l0.1,2.1l-0.4,2.2
		l-0.8,1.8l-1,1.1l-1.6,0.6 M313.05,0.25L313.05,0.25l1.1,0.5l0.9,1.2l0.6,1.9l0.1,2.1l-0.4,2.2l-0.9,1.8l-1,1.1l-1.6,0.6
		 M315.35,0.25L315.35,0.25l1.1,0.5l0.9,1.2l0.6,1.9l0.1,2.1l-0.4,2.2l-0.9,1.8l-0.9,1.1l-1.7,0.6 M317.65,0.25L317.65,0.25l1.1,0.5
		l0.9,1.2l0.6,1.9l0.1,2.1l-0.4,2.2l-0.9,1.8l-0.9,1.1l-1.7,0.6 M319.95,0.25L319.95,0.25l1.1,0.5l0.9,1.2l0.6,1.9l0.1,2.1l-0.4,2.2
		l-0.8,1.8l-1,1.1l-1.7,0.6 M322.25,0.25L322.25,0.25l1.1,0.5l0.9,1.2l0.6,1.9l0.1,2.1l-0.4,2.2l-0.8,1.8l-1,1.1l-1.6,0.6
		 M324.55,0.25L324.55,0.25l1.1,0.5l1,1.2l0.5,1.9l0.1,2.1l-0.4,2.2l-0.8,1.8l-1,1.1l-1.6,0.6 M326.85,0.25h0.1l1,0.5l1,1.2l0.5,1.9
		l0.1,2.1l-0.4,2.2l-0.8,1.8l-1,1.1l-1.6,0.6 M329.25,0.25L329.25,0.25l1.1,0.5l0.9,1.2l0.6,1.9l0.1,2.1l-0.4,2.2l-0.9,1.8l-1,1.1
		l-1.6,0.6 M331.55,0.25L331.55,0.25l1.1,0.5l0.9,1.2l0.6,1.9l0.1,2.1l-0.4,2.2l-0.9,1.8l-0.9,1.1l-1.7,0.6 M333.85,0.25
		L333.85,0.25l1.1,0.5l0.9,1.2l0.6,1.9l0.1,2.1l-0.4,2.2l-0.9,1.8l-0.9,1.1l-1.7,0.6 M336.15,0.25L336.15,0.25l1.1,0.5l0.9,1.2
		l0.6,1.9l0.1,2.1l-0.4,2.2l-0.8,1.8l-1,1.1l-1.7,0.6 M338.45,0.25L338.45,0.25l1.1,0.5l0.9,1.2l0.6,1.9l0.1,2.1l-0.4,2.2l-0.8,1.8
		l-1,1.1l-1.6,0.6 M340.75,0.25L340.75,0.25l1.1,0.5l1,1.2l0.5,1.9l0.1,2.1l-0.4,2.2l-0.8,1.8l-1,1.1l-1.6,0.6 M343.05,0.25h0.1
		l1.1,0.5l0.9,1.2l0.5,1.9l0.2,2.1l-0.5,2.2l-0.8,1.8l-1,1.1l-1.6,0.6 M345.45,0.25L345.45,0.25l1.1,0.5l0.9,1.2l0.6,1.9l0.1,2.1
		l-0.4,2.2l-0.9,1.8l-1,1.1l-1.6,0.6 M347.75,0.25L347.75,0.25l1.1,0.5l0.9,1.2l0.6,1.9l0.1,2.1l-0.4,2.2l-0.9,1.8l-0.9,1.1
		l-1.7,0.6 M350.05,0.25L350.05,0.25l1.1,0.5l0.9,1.2l0.6,1.9l0.1,2.1l-0.4,2.2l-0.9,1.8l-0.9,1.1l-1.7,0.6 M352.35,0.25
		L352.35,0.25l1.1,0.5l0.9,1.2l0.6,1.9l0.1,2.1l-0.4,2.2l-0.8,1.8l-1,1.1l-1.7,0.6 M354.65,0.25L354.65,0.25l1.1,0.5l0.9,1.2
		l0.6,1.9l0.1,2.1l-0.4,2.2l-0.8,1.8l-1,1.1l-1.6,0.6 M356.95,0.25L356.95,0.25l1.1,0.5l1,1.2l0.5,1.9l0.1,2.1l-0.4,2.2l-0.8,1.8
		l-1,1.1l-1.6,0.6 M359.35,0.25L359.35,0.25l1.1,0.5l0.9,1.2l0.5,1.9l0.2,2.1l-0.5,2.2l-0.8,1.8l-1,1.1l-1.6,0.6 M361.65,0.25
		L361.65,0.25l1.1,0.5l0.9,1.2l0.6,1.9l0.1,2.1l-0.4,2.2l-0.9,1.8l-1,1.1l-1.6,0.6 M363.95,0.25L363.95,0.25l1.1,0.5l0.9,1.2
		l0.6,1.9l0.1,2.1l-0.4,2.2l-0.9,1.8l-0.9,1.1l-1.7,0.6 M366.25,0.25L366.25,0.25l1.1,0.5l0.9,1.2l0.6,1.9l0.1,2.1l-0.4,2.2
		l-0.9,1.8l-0.9,1.1l-1.7,0.6 M368.55,0.25L368.55,0.25l1.1,0.5l0.9,1.2l0.6,1.9l0.1,2.1l-0.4,2.2l-0.8,1.8l-1,1.1l-1.6,0.6
		 M370.85,0.25L370.85,0.25l1.1,0.5l1,1.2l0.5,1.9l0.1,2.1l-0.4,2.2l-0.8,1.8l-1,1.1l-1.6,0.6 M373.15,0.25h0.1l1,0.5l1,1.2l0.5,1.9
		l0.1,2.1l-0.4,2.2l-0.8,1.8l-1,1.1l-1.6,0.6 M375.55,0.25L375.55,0.25l1.1,0.5l0.9,1.2l0.5,1.9l0.2,2.1l-0.5,2.2l-0.8,1.8l-1,1.1
		l-1.6,0.6 M377.85,0.25L377.85,0.25l1.1,0.5l0.9,1.2l0.6,1.9l0.1,2.1l-0.4,2.2l-0.9,1.8l-1,1.1l-1.6,0.6 M380.15,0.25L380.15,0.25
		l1.1,0.5l0.9,1.2l0.6,1.9l0.1,2.1l-0.4,2.2l-0.9,1.8l-0.9,1.1l-1.7,0.6 M382.45,0.25L382.45,0.25l1.1,0.5l0.9,1.2l0.6,1.9l0.1,2.1
		l-0.4,2.2l-0.9,1.8l-0.9,1.1l-1.7,0.6 M384.75,0.25L384.75,0.25l1.1,0.5l0.9,1.2l0.6,1.9l0.1,2.1l-0.4,2.2l-0.8,1.8l-1,1.1
		l-1.6,0.6 M387.05,0.25L387.05,0.25l1.1,0.5l1,1.2l0.5,1.9l0.1,2.1l-0.4,2.2l-0.8,1.8l-1,1.1l-1.6,0.6 M389.35,0.25h0.1l1,0.5
		l1,1.2l0.5,1.9l0.1,2.1l-0.4,2.2l-0.8,1.8l-1,1.1l-1.6,0.6 M391.75,0.25L391.75,0.25l1.1,0.5l0.9,1.2l0.5,1.9l0.2,2.1l-0.4,2.2
		l-0.9,1.8l-1,1.1l-1.6,0.6 M394.05,0.25L394.05,0.25l1.1,0.5l0.9,1.2l0.6,1.9l0.1,2.1l-0.4,2.2l-0.9,1.8l-0.9,1.1l-1.7,0.6
		 M396.35,0.25L396.35,0.25l1.1,0.5l0.9,1.2l0.6,1.9l0.1,2.1l-0.4,2.2l-0.9,1.8l-0.9,1.1l-1.7,0.6 M398.65,0.25L398.65,0.25l1.1,0.5
		l0.9,1.2l0.6,1.9l0.1,2.1l-0.4,2.2l-0.9,1.8l-0.9,1.1l-1.7,0.6 M400.95,0.25L400.95,0.25l1.1,0.5l0.9,1.2l0.6,1.9l0.1,2.1l-0.4,2.2
		l-0.8,1.8l-1,1.1l-1.6,0.6 M403.25,0.25L403.25,0.25l1.1,0.5l1,1.2l0.5,1.9l0.1,2.1l-0.4,2.2l-0.8,1.8l-1,1.1l-1.6,0.6
		 M405.55,0.25h0.1l1,0.5l1,1.2l0.5,1.9l0.1,2.1l-0.4,2.2l-0.8,1.8l-1,1.1l-1.6,0.6 M407.95,0.25L407.95,0.25l1.1,0.5l0.9,1.2
		l0.6,1.9l0.1,2.1l-0.4,2.2l-0.9,1.8l-1,1.1l-1.6,0.6 M410.25,0.25L410.25,0.25l1.1,0.5l0.9,1.2l0.6,1.9l0.1,2.1l-0.4,2.2l-0.9,1.8
		l-0.9,1.1l-1.7,0.6 M412.55,0.25L412.55,0.25l1.1,0.5l0.9,1.2l0.6,1.9l0.1,2.1l-0.4,2.2l-0.9,1.8l-0.9,1.1l-1.7,0.6 M414.85,0.25
		L414.85,0.25l1.1,0.5l0.9,1.2l0.6,1.9l0.1,2.1l-0.4,2.2l-0.8,1.8l-1,1.1l-1.7,0.6 M417.15,0.25L417.15,0.25l1.1,0.5l0.9,1.2
		l0.6,1.9l0.1,2.1l-0.4,2.2l-0.8,1.8l-1,1.1l-1.6,0.6 M419.45,0.25L419.45,0.25l1.1,0.5l1,1.2l0.5,1.9l0.1,2.1l-0.4,2.2l-0.8,1.8
		l-1,1.1l-1.6,0.6 M421.75,0.25h0.1l1,0.5l1,1.2l0.5,1.9l0.1,2.1l-0.4,2.2l-0.8,1.8l-1,1.1l-1.6,0.6 M424.15,0.25L424.15,0.25
		l1.1,0.5l0.9,1.2l0.6,1.9l0.1,2.1l-0.4,2.2l-0.9,1.8l-1,1.1l-1.6,0.6 M426.45,0.25L426.45,0.25l1.1,0.5l0.9,1.2l0.6,1.9l0.1,2.1
		l-0.4,2.2l-0.9,1.8l-0.9,1.1l-1.7,0.6 M428.75,0.25L428.75,0.25l1.1,0.5l0.9,1.2l0.6,1.9l0.1,2.1l-0.4,2.2l-0.9,1.8l-0.9,1.1
		l-1.7,0.6 M431.05,0.25L431.05,0.25l1.1,0.5l0.9,1.2l0.6,1.9l0.1,2.1l-0.4,2.2l-0.8,1.8l-1,1.1l-1.7,0.6 M433.35,0.25L433.35,0.25
		l1.1,0.5l0.9,1.2l0.6,1.9l0.1,2.1l-0.4,2.2l-0.8,1.8l-1,1.1l-1.6,0.6 M435.65,0.25L435.65,0.25l1.1,0.5l1,1.2l0.5,1.9l0.1,2.1
		l-0.4,2.2l-0.8,1.8l-1,1.1l-1.6,0.6 M437.95,0.25h0.1l1.1,0.5l0.9,1.2l0.5,1.9l0.1,2.1l-0.4,2.2l-0.8,1.8l-1,1.1l-1.6,0.6
		 M440.35,0.25L440.35,0.25l1.1,0.5l0.9,1.2l0.6,1.9l0.1,2.1l-0.4,2.2l-0.9,1.8l-1,1.1l-1.6,0.6 M442.65,0.25L442.65,0.25l1.1,0.5
		l0.9,1.2l0.6,1.9l0.1,2.1l-0.4,2.2l-0.9,1.8l-0.9,1.1l-1.7,0.6 M444.95,0.25L444.95,0.25l1.1,0.5l0.9,1.2l0.6,1.9l0.1,2.1l-0.4,2.2
		l-0.9,1.8l-0.9,1.1l-1.7,0.6 M447.25,0.25L447.25,0.25l1.1,0.5l0.9,1.2l0.6,1.9l0.1,2.1l-0.4,2.2l-0.8,1.8l-1,1.1l-1.7,0.6
		 M449.55,0.25L449.55,0.25l1.1,0.5l0.9,1.2l0.6,1.9l0.1,2.1l-0.4,2.2l-0.8,1.8l-1,1.1l-1.6,0.6 M451.85,0.25L451.85,0.25l1.1,0.5
		l1,1.2l0.5,1.9l0.1,2.1l-0.4,2.2l-0.8,1.8l-1,1.1l-1.6,0.6 M454.25,0.25L454.25,0.25l1.1,0.5l0.9,1.2l0.5,1.9l0.2,2.1l-0.5,2.2
		l-0.8,1.8l-1,1.1l-1.6,0.6 M456.55,0.25L456.55,0.25l1.1,0.5l0.9,1.2l0.6,1.9l0.1,2.1l-0.4,2.2l-0.9,1.8l-1,1.1l-1.6,0.6
		 M458.85,0.25L458.85,0.25l1.1,0.5l0.9,1.2l0.6,1.9l0.1,2.1l-0.4,2.2l-0.9,1.8l-0.9,1.1l-1.7,0.6 M461.15,0.25L461.15,0.25l1.1,0.5
		l0.9,1.2l0.6,1.9l0.1,2.1l-0.4,2.2l-0.9,1.8l-0.9,1.1l-1.7,0.6 M463.45,0.25L463.45,0.25l1.1,0.5l0.9,1.2l0.6,1.9l0.1,2.1l-0.4,2.2
		l-0.8,1.8l-1,1.1l-1.7,0.6 M465.75,0.25L465.75,0.25l1.1,0.5l1,1.2l0.5,1.9l0.1,2.1l-0.4,2.2l-0.8,1.8l-1,1.1l-1.6,0.6
		 M468.05,0.25h0.1l1,0.5l1,1.2l0.5,1.9l0.1,2.1l-0.4,2.2l-0.8,1.8l-1,1.1l-1.6,0.6 M470.45,0.25L470.45,0.25l1.1,0.5l0.9,1.2
		l0.5,1.9l0.2,2.1l-0.5,2.2l-0.8,1.8l-1,1.1l-1.6,0.6 M472.75,0.25L472.75,0.25l1.1,0.5l0.9,1.2l0.6,1.9l0.1,2.1l-0.4,2.2l-0.9,1.8
		l-1,1.1l-1.6,0.6 M475.05,0.25L475.05,0.25l1.1,0.5l0.9,1.2l0.6,1.9l0.1,2.1l-0.4,2.2l-0.9,1.8l-0.9,1.1l-1.7,0.6 M477.35,0.25
		L477.35,0.25l1.1,0.5l0.9,1.2l0.6,1.9l0.1,2.1l-0.4,2.2l-0.9,1.8l-0.9,1.1l-1.7,0.6 M479.65,0.25L479.65,0.25l1.1,0.5l0.9,1.2
		l0.6,1.9l0.1,2.1l-0.4,2.2l-0.8,1.8l-1,1.1l-1.6,0.6 M481.95,0.25L481.95,0.25l1.1,0.5l1,1.2l0.5,1.9l0.1,2.1l-0.4,2.2l-0.8,1.8
		l-1,1.1l-1.6,0.6 M484.25,0.25h0.1l1,0.5l1,1.2l0.5,1.9l0.1,2.1l-0.4,2.2l-0.8,1.8l-1,1.1l-1.6,0.6 M486.65,0.25L486.65,0.25
		l1.1,0.5l0.9,1.2l0.5,1.9l0.2,2.1l-0.4,2.2l-0.9,1.8l-1,1.1l-1.6,0.6 M488.95,0.25L488.95,0.25l1.1,0.5l0.9,1.2l0.6,1.9l0.1,2.1
		l-0.4,2.2l-0.9,1.8l-0.9,1.1l-1.7,0.6 M491.25,0.25L491.25,0.25l1.1,0.5l0.9,1.2l0.6,1.9l0.1,2.1l-0.4,2.2l-0.9,1.8l-0.9,1.1
		l-1.7,0.6 M493.55,0.25L493.55,0.25l1.1,0.5l0.9,1.2l0.6,1.9l0.1,2.1l-0.4,2.2l-0.9,1.8l-0.9,1.1l-1.7,0.6 M495.85,0.25
		L495.85,0.25l1.1,0.5l0.9,1.2l0.6,1.9l0.1,2.1l-0.4,2.2l-0.8,1.8l-1,1.1l-1.6,0.6 M498.15,0.25L498.15,0.25l1.1,0.5l1,1.2l0.5,1.9
		l0.1,2.1l-0.4,2.2l-0.8,1.8l-1,1.1l-1.6,0.6 M500.45,0.25h0.1l1,0.5l1,1.2l0.5,1.9l0.1,2.1l-0.4,2.2l-0.8,1.8l-1,1.1l-1.6,0.6
		 M502.85,0.25L502.85,0.25l1.1,0.5l0.9,1.2l0.5,1.9l0.2,2.1l-0.4,2.2l-0.9,1.8l-1,1.1l-1.6,0.6 M505.15,0.25L505.15,0.25l1.1,0.5
		l0.9,1.2l0.6,1.9l0.1,2.1l-0.4,2.2l-0.9,1.8l-0.9,1.1l-1.7,0.6 M507.45,0.25L507.45,0.25l1.1,0.5l0.9,1.2l0.6,1.9l0.1,2.1l-0.4,2.2
		l-0.9,1.8l-0.9,1.1l-1.7,0.6 M509.75,0.25L509.75,0.25l1.1,0.5l0.9,1.2l0.6,1.9l0.1,2.1l-0.4,2.2l-0.9,1.8l-0.9,1.1l-1.7,0.6
		 M512.05,0.25L512.05,0.25l1.1,0.5l0.9,1.2l0.6,1.9l0.1,2.1l-0.4,2.2l-0.8,1.8l-1,1.1l-1.6,0.6 M514.35,0.25L514.35,0.25l1.1,0.5
		l1,1.2l0.5,1.9l0.1,2.1l-0.4,2.2l-0.8,1.8l-1,1.1l-1.6,0.6 M516.65,0.25h0.1l1,0.5l1,1.2l0.5,1.9l0.1,2.1l-0.4,2.2l-0.8,1.8l-1,1.1
		l-1.6,0.6 M519.05,0.25L519.05,0.25l1.1,0.5l0.9,1.2l0.6,1.9l0.1,2.1l-0.4,2.2l-0.9,1.8l-1,1.1l-1.6,0.6 M521.35,0.25L521.35,0.25
		l1.1,0.5l0.9,1.2l0.6,1.9l0.1,2.1l-0.4,2.2l-0.9,1.8l-0.9,1.1l-1.7,0.6 M523.65,0.25L523.65,0.25l1.1,0.5l0.9,1.2l0.6,1.9l0.1,2.1
		l-0.4,2.2l-0.9,1.8l-0.9,1.1l-1.7,0.6 M525.95,0.25L525.95,0.25l1.1,0.5l0.9,1.2l0.6,1.9l0.1,2.1l-0.4,2.2l-0.8,1.8l-1,1.1
		l-1.7,0.6 M528.25,0.25L528.25,0.25l1.1,0.5l0.9,1.2l0.6,1.9l0.1,2.1l-0.4,2.2l-0.8,1.8l-1,1.1l-1.6,0.6 M530.55,0.25L530.55,0.25
		l1.1,0.5l1,1.2l0.5,1.9l0.1,2.1l-0.4,2.2l-0.8,1.8l-1,1.1l-1.6,0.6 M532.85,0.25h0.1l1,0.5l1,1.2l0.5,1.9l0.1,2.1l-0.4,2.2
		l-0.8,1.8l-1,1.1l-1.6,0.6 M535.25,0.25L535.25,0.25l1.1,0.5l0.9,1.2l0.6,1.9l0.1,2.1l-0.4,2.2l-0.9,1.8l-1,1.1l-1.6,0.6
		 M537.55,0.25L537.55,0.25l1.1,0.5l0.9,1.2l0.6,1.9l0.1,2.1l-0.4,2.2l-0.9,1.8l-0.9,1.1l-1.7,0.6 M539.85,0.25L539.85,0.25l1.1,0.5
		l0.9,1.2l0.6,1.9l0.1,2.1l-0.4,2.2l-0.9,1.8l-0.9,1.1l-1.7,0.6 M542.15,0.25L542.15,0.25l1.1,0.5l0.9,1.2l0.6,1.9l0.1,2.1l-0.4,2.2
		l-0.8,1.8l-1,1.1l-1.7,0.6 M544.45,0.25L544.45,0.25l1.1,0.5l0.9,1.2l0.6,1.9l0.1,2.1l-0.4,2.2l-0.8,1.8l-1,1.1l-1.6,0.6
		 M546.75,0.25L546.75,0.25l1.1,0.5l1,1.2l0.5,1.9l0.1,2.1l-0.4,2.2l-0.8,1.8l-1,1.1l-1.6,0.6 M549.05,0.25h0.1l1.1,0.5l0.9,1.2
		l0.5,1.9l0.2,2.1l-0.5,2.2l-0.8,1.8l-1,1.1l-1.6,0.6 M551.45,0.25L551.45,0.25l1.1,0.5l0.9,1.2l0.6,1.9l0.1,2.1l-0.4,2.2l-0.9,1.8
		l-1,1.1l-1.6,0.6 M553.75,0.25L553.75,0.25l1.1,0.5l0.9,1.2l0.6,1.9l0.1,2.1l-0.4,2.2l-0.9,1.8l-0.9,1.1l-1.7,0.6 M556.05,0.25
		L556.05,0.25l1.1,0.5l0.9,1.2l0.6,1.9l0.1,2.1l-0.4,2.2l-0.9,1.8l-0.9,1.1l-1.7,0.6 M558.35,0.25L558.35,0.25l1.1,0.5l0.9,1.2
		l0.6,1.9l0.1,2.1l-0.4,2.2l-0.8,1.8l-1,1.1l-1.7,0.6 M560.65,0.25L560.65,0.25l1.1,0.5l0.9,1.2l0.6,1.9l0.1,2.1l-0.4,2.2l-0.8,1.8
		l-1,1.1l-1.6,0.6 M562.95,0.25L562.95,0.25l1.1,0.5l1,1.2l0.5,1.9l0.1,2.1l-0.4,2.2l-0.8,1.8l-1,1.1l-1.6,0.6 M565.35,0.25
		L565.35,0.25l1.1,0.5l0.9,1.2l0.5,1.9l0.2,2.1l-0.5,2.2l-0.8,1.8l-1,1.1l-1.6,0.6 M567.65,0.25L567.65,0.25l1.1,0.5l0.9,1.2
		l0.6,1.9l0.1,2.1l-0.4,2.2l-0.9,1.8l-1,1.1l-1.6,0.6 M569.95,0.25L569.95,0.25l1.1,0.5l0.9,1.2l0.6,1.9l0.1,2.1l-0.4,2.2l-0.9,1.8
		l-0.9,1.1l-1.7,0.6 M572.25,0.25L572.25,0.25l1.1,0.5l0.9,1.2l0.6,1.9l0.1,2.1l-0.4,2.2l-0.9,1.8l-0.9,1.1l-1.7,0.6 M574.55,0.25
		L574.55,0.25l1.1,0.5l0.9,1.2l0.6,1.9l0.1,2.1l-0.4,2.2l-0.8,1.8l-1,1.1l-1.6,0.6 M576.85,0.25L576.85,0.25l1.1,0.5l1,1.2l0.5,1.9
		l0.1,2.1l-0.4,2.2l-0.8,1.8l-1,1.1l-1.6,0.6 M579.15,0.25h0.1l1,0.5l1,1.2l0.5,1.9l0.1,2.1l-0.4,2.2l-0.8,1.8l-1,1.1l-1.6,0.6
		 M581.55,0.25L581.55,0.25l1.1,0.5l0.9,1.2l0.5,1.9l0.2,2.1l-0.5,2.2l-0.8,1.8l-1,1.1l-1.6,0.6 M583.85,0.25L583.85,0.25l1.1,0.5
		l0.9,1.2l0.6,1.9l0.1,2.1l-0.4,2.2l-0.9,1.8l-1,1.1l-1.6,0.6 M586.15,0.25L586.15,0.25l1.1,0.5l0.9,1.2l0.6,1.9l0.1,2.1l-0.4,2.2
		l-0.9,1.8l-0.9,1.1l-1.7,0.6 M588.45,0.25L588.45,0.25l1.1,0.5l0.9,1.2l0.6,1.9l0.1,2.1l-0.4,2.2l-0.9,1.8l-0.9,1.1l-1.7,0.6
		 M590.75,0.25L590.75,0.25l1.1,0.5l0.9,1.2l0.6,1.9l0.1,2.1l-0.4,2.2l-0.8,1.8l-1,1.1l-1.6,0.6 M593.05,0.25L593.05,0.25l1.1,0.5
		l1,1.2l0.5,1.9l0.1,2.1l-0.4,2.2l-0.8,1.8l-1,1.1l-1.6,0.6 M595.35,0.25h0.1l1,0.5l1,1.2l0.5,1.9l0.1,2.1l-0.4,2.2l-0.8,1.8l-1,1.1
		l-1.6,0.6 M597.75,0.25L597.75,0.25l1.1,0.5l0.9,1.2l0.5,1.9l0.2,2.1l-0.4,2.2l-0.9,1.8l-1,1.1l-1.6,0.6 M600.05,0.25L600.05,0.25
		l1.1,0.5l0.9,1.2l0.6,1.9l0.1,2.1l-0.4,2.2l-0.9,1.8l-0.9,1.1l-1.7,0.6 M602.35,0.25L602.35,0.25l1.1,0.5l0.9,1.2l0.6,1.9l0.1,2.1
		l-0.4,2.2l-0.9,1.8l-0.9,1.1l-1.7,0.6 M604.65,0.25L604.65,0.25l1.1,0.5l0.9,1.2l0.6,1.9l0.1,2.1l-0.4,2.2l-0.9,1.8l-0.9,1.1
		l-1.7,0.6 M606.95,0.25L606.95,0.25l1.1,0.5l0.9,1.2l0.6,1.9l0.1,2.1l-0.4,2.2l-0.8,1.8l-1,1.1l-1.6,0.6 M609.25,0.25L609.25,0.25
		l1.1,0.5l1,1.2l0.5,1.9l0.1,2.1l-0.4,2.2l-0.8,1.8l-1,1.1l-1.6,0.6 M611.55,0.25h0.1l1,0.5l1,1.2l0.5,1.9l0.1,2.1l-0.4,2.2
		l-0.8,1.8l-1,1.1l-1.6,0.6 M613.95,0.25L613.95,0.25l1.1,0.5l0.9,1.2l0.6,1.9l0.1,2.1l-0.4,2.2l-0.9,1.8l-1,1.1l-1.6,0.6
		 M616.25,0.25L616.25,0.25l1.1,0.5l0.9,1.2l0.6,1.9l0.1,2.1l-0.4,2.2l-0.9,1.8l-0.9,1.1l-1.7,0.6 M618.55,0.25L618.55,0.25l1.1,0.5
		l0.9,1.2l0.6,1.9l0.1,2.1l-0.4,2.2l-0.9,1.8l-0.9,1.1l-1.7,0.6 M620.85,0.25L620.85,0.25l1.1,0.5l0.9,1.2l0.6,1.9l0.1,2.1l-0.4,2.2
		l-0.8,1.8l-1,1.1l-1.7,0.6 M623.15,0.25L623.15,0.25l1.1,0.5l0.9,1.2l0.6,1.9l0.1,2.1l-0.4,2.2l-0.8,1.8l-1,1.1l-1.6,0.6
		 M625.95,11.05l-1.6,0.6 M625.95,11.05l0.2-0.2l0.3-0.3l0.2-0.3l0.2-0.3l0.1-0.3l0.2-0.4l0.2-0.4l0.1-0.4 M1.75,9.65l0.6,0.9l1,0.8
		l1.1,0.1l1.2-0.4 M1.55,9.15l0.6,0.4l0.8,0.1l0.8-0.2l0.7-0.7l0.5-1l0.4-1.3l0.1-1.4l-0.2-1.3l-0.4-1.2l-0.6-0.8l-0.8-0.4l-0.8,0.1
		l-0.8,0.6l-0.3,0.5 M3.05,7.95l0.3-0.9l0.2-1.1l-0.2-1.1l-0.3-0.9l-0.6-0.6l-0.6-0.2l-0.6,0.2l-0.5,0.6l-0.4,0.9l-0.1,1.1l0.1,1.1
		l0.4,0.9l0.5,0.6l0.6,0.2l0.6-0.2L3.05,7.95 M7.15,8.45l-0.2,0.4l-0.1,0.4l-0.2,0.4l-0.1,0.3l-0.2,0.3l-0.3,0.3l-0.2,0.3l-0.2,0.2
		 M0.95,8.35l0.1,0.3l0.2,0.2l0.3,0.3 M622.95,11.25l1.1,0.4l1.5-0.5l1.1-1.2l0.8-1.5 M620.65,11.25l1.1,0.4l1.4-0.5l1.2-1.2
		l0.8-1.5l0.5-2.5l-0.1-2.1l-0.6-1.9l-0.9-1.2l-1.1-0.5l-1,0.4 M618.35,11.25l1.1,0.4l1.4-0.5l1.2-1.2l0.7-1.5l0.6-2.5l-0.1-2.1
		l-0.6-1.9l-0.9-1.2l-1.1-0.5l-1.1,0.4 M616.05,11.25l1.1,0.4l1.4-0.5l1.2-1.2l0.7-1.5l0.6-2.5l-0.2-2.1l-0.5-1.9l-0.9-1.2l-1.1-0.5
		l-1.1,0.4 M613.65,11.25l1.2,0.4l1.4-0.5l1.2-1.2l0.7-1.5l0.5-2.5l-0.1-2.1l-0.5-1.9l-1-1.2l-1-0.5l-1.1,0.4 M611.35,11.25l1.2,0.4
		l1.4-0.5l1.2-1.2l0.7-1.5l0.5-2.5l-0.1-2.1l-0.5-1.9l-1-1.2l-1.1-0.5l-1,0.4 M609.05,11.25l1.1,0.4l1.5-0.5l1.2-1.2l0.7-1.5
		l0.5-2.5l-0.1-2.1l-0.6-1.9l-0.9-1.2l-1.1-0.5l-1,0.4 M606.75,11.25l1.1,0.4l1.5-0.5l1.1-1.2l0.8-1.5l0.5-2.5l-0.1-2.1l-0.6-1.9
		l-0.9-1.2l-1.1-0.5l-1,0.4 M604.45,11.25l1.1,0.4l1.4-0.5l1.2-1.2l0.8-1.5l0.5-2.5l-0.1-2.1l-0.6-1.9l-0.9-1.2l-1.1-0.5l-1,0.4
		 M602.15,11.25l1.1,0.4l1.4-0.5l1.2-1.2l0.7-1.5l0.6-2.5l-0.1-2.1l-0.6-1.9l-0.9-1.2l-1.1-0.5l-1.1,0.4 M599.85,11.25l1.1,0.4
		l1.4-0.5l1.2-1.2l0.7-1.5l0.6-2.5l-0.2-2.1l-0.5-1.9l-0.9-1.2l-1.1-0.5l-1.1,0.4 M597.45,11.25l1.2,0.4l1.4-0.5l1.2-1.2l0.7-1.5
		l0.5-2.5l-0.1-2.1l-0.5-1.9l-1-1.2l-1-0.5l-1.1,0.4 M595.15,11.25l1.1,0.4l1.5-0.5l1.2-1.2l0.7-1.5l0.5-2.5l-0.1-2.1l-0.5-1.9
		l-1-1.2l-1.1-0.5l-1,0.4 M592.85,11.25l1.1,0.4l1.5-0.5l1.2-1.2l0.7-1.5l0.5-2.5l-0.1-2.1l-0.6-1.9l-0.9-1.2l-1.1-0.5l-1,0.4
		 M590.55,11.25l1.1,0.4l1.4-0.5l1.2-1.2l0.8-1.5l0.5-2.5l-0.1-2.1l-0.6-1.9l-0.9-1.2l-1.1-0.5l-1,0.4 M588.25,11.25l1.1,0.4
		l1.4-0.5l1.2-1.2l0.8-1.5l0.5-2.5l-0.1-2.1l-0.6-1.9l-0.9-1.2l-1.1-0.5l-1,0.4 M585.95,11.25l1.1,0.4l1.4-0.5l1.2-1.2l0.7-1.5
		l0.6-2.5l-0.1-2.1l-0.6-1.9l-0.9-1.2l-1.1-0.5l-1.1,0.4 M583.65,11.25l1.1,0.4l1.4-0.5l1.2-1.2l0.7-1.5l0.6-2.5l-0.2-2.1l-0.5-1.9
		l-0.9-1.2l-1.1-0.5l-1.1,0.4 M581.25,11.25l1.2,0.4l1.4-0.5l1.2-1.2l0.7-1.5l0.5-2.5l-0.1-2.1l-0.5-1.9l-1-1.2l-1.1-0.5l-1,0.4
		 M578.95,11.25l1.1,0.4l1.5-0.5l1.2-1.2l0.7-1.5l0.5-2.5l-0.1-2.1l-0.6-1.9l-0.9-1.2l-1.1-0.5l-1,0.4 M576.65,11.25l1.1,0.4
		l1.5-0.5l1.2-1.2l0.7-1.5l0.5-2.5l-0.1-2.1l-0.6-1.9l-0.9-1.2l-1.1-0.5l-1,0.4 M574.35,11.25l1.1,0.4l1.4-0.5l1.2-1.2l0.8-1.5
		l0.5-2.5l-0.1-2.1l-0.6-1.9l-0.9-1.2l-1.1-0.5l-1,0.4 M572.05,11.25l1.1,0.4l1.4-0.5l1.2-1.2l0.8-1.5l0.5-2.5l-0.1-2.1l-0.6-1.9
		l-0.9-1.2l-1.1-0.5l-1,0.4 M569.75,11.25l1.1,0.4l1.4-0.5l1.2-1.2l0.7-1.5l0.6-2.5l-0.1-2.1l-0.6-1.9l-0.9-1.2l-1.1-0.5l-1.1,0.4
		 M567.45,11.25l1.1,0.4l1.4-0.5l1.2-1.2l0.7-1.5l0.6-2.5l-0.2-2.1l-0.5-1.9l-0.9-1.2l-1.1-0.5l-1.1,0.4 M565.05,11.25l1.2,0.4
		l1.4-0.5l1.2-1.2l0.7-1.5l0.5-2.5l-0.1-2.1l-0.5-1.9l-1-1.2l-1.1-0.5l-1,0.4 M562.75,11.25l1.1,0.4l1.5-0.5l1.2-1.2l0.7-1.5
		l0.5-2.5l-0.1-2.1l-0.6-1.9l-0.9-1.2l-1.1-0.5l-1,0.4 M560.45,11.25l1.1,0.4l1.5-0.5l1.2-1.2l0.7-1.5l0.5-2.5l-0.1-2.1l-0.6-1.9
		l-0.9-1.2l-1.1-0.5l-1,0.4 M558.15,11.25l1.1,0.4l1.4-0.5l1.2-1.2l0.8-1.5l0.5-2.5l-0.1-2.1l-0.6-1.9l-0.9-1.2l-1.1-0.5l-1,0.4
		 M555.85,11.25l1.1,0.4l1.4-0.5l1.2-1.2l0.8-1.5l0.5-2.5l-0.1-2.1l-0.6-1.9l-0.9-1.2l-1.1-0.5l-1.1,0.4 M553.55,11.25l1.1,0.4
		l1.4-0.5l1.2-1.2l0.7-1.5l0.6-2.5l-0.1-2.1l-0.6-1.9l-0.9-1.2l-1.1-0.5l-1.1,0.4 M551.25,11.25l1.1,0.4l1.4-0.5l1.2-1.2l0.7-1.5
		l0.5-2.5l-0.1-2.1l-0.5-1.9l-1-1.2l-1-0.5l-1.1,0.4 M548.85,11.25l1.2,0.4l1.4-0.5l1.2-1.2l0.7-1.5l0.5-2.5l-0.1-2.1l-0.5-1.9
		l-1-1.2l-1.1-0.5l-1,0.4 M546.55,11.25l1.1,0.4l1.5-0.5l1.2-1.2l0.7-1.5l0.5-2.5l-0.1-2.1l-0.6-1.9l-0.9-1.2l-1.1-0.5l-1,0.4
		 M544.25,11.25l1.1,0.4l1.5-0.5l1.2-1.2l0.7-1.5l0.5-2.5l-0.1-2.1l-0.6-1.9l-0.9-1.2l-1.1-0.5l-1,0.4 M541.95,11.25l1.1,0.4
		l1.4-0.5l1.2-1.2l0.8-1.5l0.5-2.5l-0.1-2.1l-0.6-1.9l-0.9-1.2l-1.1-0.5l-1,0.4 M539.65,11.25l1.1,0.4l1.4-0.5l1.2-1.2l0.8-1.5
		l0.5-2.5l-0.1-2.1l-0.6-1.9l-0.9-1.2l-1.1-0.5l-1.1,0.4 M537.35,11.25l1.1,0.4l1.4-0.5l1.2-1.2l0.7-1.5l0.6-2.5l-0.1-2.1l-0.6-1.9
		l-0.9-1.2l-1.1-0.5l-1.1,0.4 M535.05,11.25l1.1,0.4l1.4-0.5l1.2-1.2l0.7-1.5l0.5-2.5l-0.1-2.1l-0.5-1.9l-1-1.2l-1-0.5l-1.1,0.4
		 M532.65,11.25l1.2,0.4l1.4-0.5l1.2-1.2l0.7-1.5l0.5-2.5l-0.1-2.1l-0.5-1.9l-1-1.2l-1.1-0.5l-1,0.4 M530.35,11.25l1.1,0.4l1.5-0.5
		l1.2-1.2l0.7-1.5l0.5-2.5l-0.1-2.1l-0.6-1.9l-0.9-1.2l-1.1-0.5l-1,0.4 M528.05,11.25l1.1,0.4l1.5-0.5l1.1-1.2l0.8-1.5l0.5-2.5
		l-0.1-2.1l-0.6-1.9l-0.9-1.2l-1.1-0.5l-1,0.4 M525.75,11.25l1.1,0.4l1.4-0.5l1.2-1.2l0.8-1.5l0.5-2.5l-0.1-2.1l-0.6-1.9l-0.9-1.2
		l-1.1-0.5l-1,0.4 M523.45,11.25l1.1,0.4l1.4-0.5l1.2-1.2l0.7-1.5l0.6-2.5l-0.1-2.1l-0.6-1.9l-0.9-1.2l-1.1-0.5l-1.1,0.4
		 M521.15,11.25l1.1,0.4l1.4-0.5l1.2-1.2l0.7-1.5l0.6-2.5l-0.2-2.1l-0.5-1.9l-0.9-1.2l-1.1-0.5l-1.1,0.4 M518.75,11.25l1.2,0.4
		l1.4-0.5l1.2-1.2l0.7-1.5l0.5-2.5l-0.1-2.1l-0.5-1.9l-1-1.2l-1-0.5l-1.1,0.4 M516.45,11.25l1.2,0.4l1.4-0.5l1.2-1.2l0.7-1.5
		l0.5-2.5l-0.1-2.1l-0.5-1.9l-1-1.2l-1.1-0.5l-1,0.4 M514.15,11.25l1.1,0.4l1.5-0.5l1.2-1.2l0.7-1.5l0.5-2.5l-0.1-2.1l-0.6-1.9
		l-0.9-1.2l-1.1-0.5l-1,0.4 M511.85,11.25l1.1,0.4l1.5-0.5l1.1-1.2l0.8-1.5l0.5-2.5l-0.1-2.1l-0.6-1.9l-0.9-1.2l-1.1-0.5l-1,0.4
		 M509.55,11.25l1.1,0.4l1.4-0.5l1.2-1.2l0.8-1.5l0.5-2.5l-0.1-2.1l-0.6-1.9l-0.9-1.2l-1.1-0.5l-1,0.4 M507.25,11.25l1.1,0.4
		l1.4-0.5l1.2-1.2l0.7-1.5l0.6-2.5l-0.1-2.1l-0.6-1.9l-0.9-1.2l-1.1-0.5l-1.1,0.4 M504.95,11.25l1.1,0.4l1.4-0.5l1.2-1.2l0.7-1.5
		l0.6-2.5l-0.2-2.1l-0.5-1.9l-0.9-1.2l-1.1-0.5l-1.1,0.4 M502.55,11.25l1.2,0.4l1.4-0.5l1.2-1.2l0.7-1.5l0.5-2.5l-0.1-2.1l-0.5-1.9
		l-1-1.2l-1-0.5l-1.1,0.4 M500.25,11.25l1.2,0.4l1.4-0.5l1.2-1.2l0.7-1.5l0.5-2.5l-0.1-2.1l-0.5-1.9l-1-1.2l-1.1-0.5l-1,0.4
		 M497.95,11.25l1.1,0.4l1.5-0.5l1.2-1.2l0.7-1.5l0.5-2.5l-0.1-2.1l-0.6-1.9l-0.9-1.2l-1.1-0.5l-1,0.4 M495.65,11.25l1.1,0.4
		l1.5-0.5l1.1-1.2l0.8-1.5l0.5-2.5l-0.1-2.1l-0.6-1.9l-0.9-1.2l-1.1-0.5l-1,0.4 M493.35,11.25l1.1,0.4l1.4-0.5l1.2-1.2l0.8-1.5
		l0.5-2.5l-0.1-2.1l-0.6-1.9l-0.9-1.2l-1.1-0.5l-1,0.4 M491.05,11.25l1.1,0.4l1.4-0.5l1.2-1.2l0.7-1.5l0.6-2.5l-0.1-2.1l-0.6-1.9
		l-0.9-1.2l-1.1-0.5l-1.1,0.4 M488.75,11.25l1.1,0.4l1.4-0.5l1.2-1.2l0.7-1.5l0.6-2.5l-0.2-2.1l-0.5-1.9l-0.9-1.2l-1.1-0.5l-1.1,0.4
		 M486.35,11.25l1.2,0.4l1.4-0.5l1.2-1.2l0.7-1.5l0.5-2.5l-0.1-2.1l-0.5-1.9l-1-1.2l-1-0.5l-1.1,0.4 M484.05,11.25l1.1,0.4l1.5-0.5
		l1.2-1.2l0.7-1.5l0.5-2.5l-0.1-2.1l-0.5-1.9l-1-1.2l-1.1-0.5l-1,0.4 M481.75,11.25l1.1,0.4l1.5-0.5l1.2-1.2l0.7-1.5l0.5-2.5
		l-0.1-2.1l-0.6-1.9l-0.9-1.2l-1.1-0.5l-1,0.4 M479.45,11.25l1.1,0.4l1.4-0.5l1.2-1.2l0.8-1.5l0.5-2.5l-0.1-2.1l-0.6-1.9l-0.9-1.2
		l-1.1-0.5l-1,0.4 M477.15,11.25l1.1,0.4l1.4-0.5l1.2-1.2l0.8-1.5l0.5-2.5l-0.1-2.1l-0.6-1.9l-0.9-1.2l-1.1-0.5l-1,0.4
		 M474.85,11.25l1.1,0.4l1.4-0.5l1.2-1.2l0.7-1.5l0.6-2.5l-0.1-2.1l-0.6-1.9l-0.9-1.2l-1.1-0.5l-1.1,0.4 M472.55,11.25l1.1,0.4
		l1.4-0.5l1.2-1.2l0.7-1.5l0.6-2.5l-0.2-2.1l-0.5-1.9l-0.9-1.2l-1.1-0.5l-1.1,0.4 M470.15,11.25l1.2,0.4l1.4-0.5l1.2-1.2l0.7-1.5
		l0.5-2.5l-0.1-2.1l-0.5-1.9l-1-1.2l-1.1-0.5l-1,0.4 M467.85,11.25l1.1,0.4l1.5-0.5l1.2-1.2l0.7-1.5l0.5-2.5l-0.1-2.1l-0.6-1.9
		l-0.9-1.2l-1.1-0.5l-1,0.4 M465.55,11.25l1.1,0.4l1.5-0.5l1.2-1.2l0.7-1.5l0.5-2.5l-0.1-2.1l-0.6-1.9l-0.9-1.2l-1.1-0.5l-1,0.4
		 M463.25,11.25l1.1,0.4l1.4-0.5l1.2-1.2l0.8-1.5l0.5-2.5l-0.1-2.1l-0.6-1.9l-0.9-1.2l-1.1-0.5l-1,0.4 M460.95,11.25l1.1,0.4
		l1.4-0.5l1.2-1.2l0.8-1.5l0.5-2.5l-0.1-2.1l-0.6-1.9l-0.9-1.2l-1.1-0.5l-1,0.4 M458.65,11.25l1.1,0.4l1.4-0.5l1.2-1.2l0.7-1.5
		l0.6-2.5l-0.1-2.1l-0.6-1.9l-0.9-1.2l-1.1-0.5l-1.1,0.4 M456.35,11.25l1.1,0.4l1.4-0.5l1.2-1.2l0.7-1.5l0.5-2.5l-0.1-2.1l-0.5-1.9
		l-0.9-1.2l-1.1-0.5l-1.1,0.4 M453.95,11.25l1.2,0.4l1.4-0.5l1.2-1.2l0.7-1.5l0.5-2.5l-0.1-2.1l-0.5-1.9l-1-1.2l-1.1-0.5l-1,0.4
		 M451.65,11.25l1.1,0.4l1.5-0.5l1.2-1.2l0.7-1.5l0.5-2.5l-0.1-2.1l-0.6-1.9l-0.9-1.2l-1.1-0.5l-1,0.4 M449.35,11.25l1.1,0.4
		l1.5-0.5l1.2-1.2l0.7-1.5l0.5-2.5l-0.1-2.1l-0.6-1.9l-0.9-1.2l-1.1-0.5l-1,0.4 M447.05,11.25l1.1,0.4l1.4-0.5l1.2-1.2l0.8-1.5
		l0.5-2.5l-0.1-2.1l-0.6-1.9l-0.9-1.2l-1.1-0.5l-1,0.4 M444.75,11.25l1.1,0.4l1.4-0.5l1.2-1.2l0.8-1.5l0.5-2.5l-0.1-2.1l-0.6-1.9
		l-0.9-1.2l-1.1-0.5l-1.1,0.4 M442.45,11.25l1.1,0.4l1.4-0.5l1.2-1.2l0.7-1.5l0.6-2.5l-0.1-2.1l-0.6-1.9l-0.9-1.2l-1.1-0.5l-1.1,0.4
		 M440.15,11.25l1.1,0.4l1.4-0.5l1.2-1.2l0.7-1.5l0.5-2.5l-0.1-2.1l-0.5-1.9l-1-1.2l-1-0.5l-1.1,0.4 M437.75,11.25l1.2,0.4l1.4-0.5
		l1.2-1.2l0.7-1.5l0.5-2.5l-0.1-2.1l-0.5-1.9l-1-1.2l-1.1-0.5l-1,0.4 M435.45,11.25l1.1,0.4l1.5-0.5l1.2-1.2l0.7-1.5l0.5-2.5
		l-0.1-2.1l-0.6-1.9l-0.9-1.2l-1.1-0.5l-1,0.4 M433.15,11.25l1.1,0.4l1.5-0.5l1.2-1.2l0.7-1.5l0.5-2.5l-0.1-2.1l-0.6-1.9l-0.9-1.2
		l-1.1-0.5l-1,0.4 M430.85,11.25l1.1,0.4l1.4-0.5l1.2-1.2l0.8-1.5l0.5-2.5l-0.1-2.1l-0.6-1.9l-0.9-1.2l-1.1-0.5l-1,0.4
		 M428.55,11.25l1.1,0.4l1.4-0.5l1.2-1.2l0.8-1.5l0.5-2.5l-0.1-2.1l-0.6-1.9l-0.9-1.2l-1.1-0.5l-1.1,0.4 M426.25,11.25l1.1,0.4
		l1.4-0.5l1.2-1.2l0.7-1.5l0.6-2.5l-0.1-2.1l-0.6-1.9l-0.9-1.2l-1.1-0.5l-1.1,0.4 M423.85,11.25l1.2,0.4l1.4-0.5l1.2-1.2l0.7-1.5
		l0.5-2.5l-0.1-2.1l-0.5-1.9l-1-1.2l-1-0.5l-1.1,0.4 M421.55,11.25l1.2,0.4l1.4-0.5l1.2-1.2l0.7-1.5l0.5-2.5l-0.1-2.1l-0.5-1.9
		l-1-1.2l-1.1-0.5l-1,0.4 M419.25,11.25l1.1,0.4l1.5-0.5l1.2-1.2l0.7-1.5l0.5-2.5l-0.1-2.1l-0.6-1.9l-0.9-1.2l-1.1-0.5l-1,0.4
		 M416.95,11.25l1.1,0.4l1.5-0.5l1.1-1.2l0.8-1.5l0.5-2.5l-0.1-2.1l-0.6-1.9l-0.9-1.2l-1.1-0.5l-1,0.4 M414.65,11.25l1.1,0.4
		l1.4-0.5l1.2-1.2l0.8-1.5l0.5-2.5l-0.1-2.1l-0.6-1.9l-0.9-1.2l-1.1-0.5l-1,0.4 M412.35,11.25l1.1,0.4l1.4-0.5l1.2-1.2l0.7-1.5
		l0.6-2.5l-0.1-2.1l-0.6-1.9l-0.9-1.2l-1.1-0.5l-1.1,0.4 M410.05,11.25l1.1,0.4l1.4-0.5l1.2-1.2l0.7-1.5l0.6-2.5l-0.2-2.1l-0.5-1.9
		l-0.9-1.2l-1.1-0.5l-1.1,0.4 M407.65,11.25l1.2,0.4l1.4-0.5l1.2-1.2l0.7-1.5l0.5-2.5l-0.1-2.1l-0.5-1.9l-1-1.2l-1-0.5l-1.1,0.4
		 M405.35,11.25l1.2,0.4l1.4-0.5l1.2-1.2l0.7-1.5l0.5-2.5l-0.1-2.1l-0.5-1.9l-1-1.2l-1.1-0.5l-1,0.4 M403.05,11.25l1.1,0.4l1.5-0.5
		l1.2-1.2l0.7-1.5l0.5-2.5l-0.1-2.1l-0.6-1.9l-0.9-1.2l-1.1-0.5l-1,0.4 M400.75,11.25l1.1,0.4l1.5-0.5l1.1-1.2l0.8-1.5l0.5-2.5
		l-0.1-2.1l-0.6-1.9l-0.9-1.2l-1.1-0.5l-1,0.4 M398.45,11.25l1.1,0.4l1.4-0.5l1.2-1.2l0.8-1.5l0.5-2.5l-0.1-2.1l-0.6-1.9l-0.9-1.2
		l-1.1-0.5l-1,0.4 M396.15,11.25l1.1,0.4l1.4-0.5l1.2-1.2l0.7-1.5l0.6-2.5l-0.1-2.1l-0.6-1.9l-0.9-1.2l-1.1-0.5l-1.1,0.4
		 M393.85,11.25l1.1,0.4l1.4-0.5l1.2-1.2l0.7-1.5l0.6-2.5l-0.2-2.1l-0.5-1.9l-0.9-1.2l-1.1-0.5l-1.1,0.4 M391.45,11.25l1.2,0.4
		l1.4-0.5l1.2-1.2l0.7-1.5l0.5-2.5l-0.1-2.1l-0.5-1.9l-1-1.2l-1-0.5l-1.1,0.4 M389.15,11.25l1.1,0.4l1.5-0.5l1.2-1.2l0.7-1.5
		l0.5-2.5l-0.1-2.1l-0.5-1.9l-1-1.2l-1.1-0.5l-1,0.4 M386.85,11.25l1.1,0.4l1.5-0.5l1.2-1.2l0.7-1.5l0.5-2.5l-0.1-2.1l-0.6-1.9
		l-0.9-1.2l-1.1-0.5l-1,0.4 M384.55,11.25l1.1,0.4l1.4-0.5l1.2-1.2l0.8-1.5l0.5-2.5l-0.1-2.1l-0.6-1.9l-0.9-1.2l-1.1-0.5l-1,0.4
		 M382.25,11.25l1.1,0.4l1.4-0.5l1.2-1.2l0.8-1.5l0.5-2.5l-0.1-2.1l-0.6-1.9l-0.9-1.2l-1.1-0.5l-1,0.4 M379.95,11.25l1.1,0.4
		l1.4-0.5l1.2-1.2l0.7-1.5l0.6-2.5l-0.1-2.1l-0.6-1.9l-0.9-1.2l-1.1-0.5l-1.1,0.4 M377.65,11.25l1.1,0.4l1.4-0.5l1.2-1.2l0.7-1.5
		l0.6-2.5l-0.2-2.1l-0.5-1.9l-0.9-1.2l-1.1-0.5l-1.1,0.4 M375.25,11.25l1.2,0.4l1.4-0.5l1.2-1.2l0.7-1.5l0.5-2.5l-0.1-2.1l-0.5-1.9
		l-1-1.2l-1.1-0.5l-1,0.4 M372.95,11.25l1.1,0.4l1.5-0.5l1.2-1.2l0.7-1.5l0.5-2.5l-0.1-2.1l-0.6-1.9l-0.9-1.2l-1.1-0.5l-1,0.4
		 M370.65,11.25l1.1,0.4l1.5-0.5l1.2-1.2l0.7-1.5l0.5-2.5l-0.1-2.1l-0.6-1.9l-0.9-1.2l-1.1-0.5l-1,0.4 M368.35,11.25l1.1,0.4
		l1.4-0.5l1.2-1.2l0.8-1.5l0.5-2.5l-0.1-2.1l-0.6-1.9l-0.9-1.2l-1.1-0.5l-1,0.4 M366.05,11.25l1.1,0.4l1.4-0.5l1.2-1.2l0.8-1.5
		l0.5-2.5l-0.1-2.1l-0.6-1.9l-0.9-1.2l-1.1-0.5l-1,0.4 M363.75,11.25l1.1,0.4l1.4-0.5l1.2-1.2l0.7-1.5l0.6-2.5l-0.1-2.1l-0.6-1.9
		l-0.9-1.2l-1.1-0.5l-1.1,0.4 M361.45,11.25l1.1,0.4l1.4-0.5l1.2-1.2l0.7-1.5l0.6-2.5l-0.2-2.1l-0.5-1.9l-0.9-1.2l-1.1-0.5l-1.1,0.4
		 M359.05,11.25l1.2,0.4l1.4-0.5l1.2-1.2l0.7-1.5l0.5-2.5l-0.1-2.1l-0.5-1.9l-1-1.2l-1.1-0.5l-1,0.4 M356.75,11.25l1.1,0.4l1.5-0.5
		l1.2-1.2l0.7-1.5l0.5-2.5l-0.1-2.1l-0.6-1.9l-0.9-1.2l-1.1-0.5l-1,0.4 M354.45,11.25l1.1,0.4l1.5-0.5l1.2-1.2l0.7-1.5l0.5-2.5
		l-0.1-2.1l-0.6-1.9l-0.9-1.2l-1.1-0.5l-1,0.4 M352.15,11.25l1.1,0.4l1.4-0.5l1.2-1.2l0.8-1.5l0.5-2.5l-0.1-2.1l-0.6-1.9l-0.9-1.2
		l-1.1-0.5l-1,0.4 M349.85,11.25l1.1,0.4l1.4-0.5l1.2-1.2l0.8-1.5l0.5-2.5l-0.1-2.1l-0.6-1.9l-0.9-1.2l-1.1-0.5l-1.1,0.4
		 M347.55,11.25l1.1,0.4l1.4-0.5l1.2-1.2l0.7-1.5l0.6-2.5l-0.1-2.1l-0.6-1.9l-0.9-1.2l-1.1-0.5l-1.1,0.4 M345.25,11.25l1.1,0.4
		l1.4-0.5l1.2-1.2l0.7-1.5l0.5-2.5l-0.1-2.1l-0.5-1.9l-1-1.2l-1-0.5l-1.1,0.4 M342.85,11.25l1.2,0.4l1.4-0.5l1.2-1.2l0.7-1.5
		l0.5-2.5l-0.1-2.1l-0.5-1.9l-1-1.2l-1.1-0.5l-1,0.4 M340.55,11.25l1.1,0.4l1.5-0.5l1.2-1.2l0.7-1.5l0.5-2.5l-0.1-2.1l-0.6-1.9
		l-0.9-1.2l-1.1-0.5l-1,0.4 M338.25,11.25l1.1,0.4l1.5-0.5l1.2-1.2l0.7-1.5l0.5-2.5l-0.1-2.1l-0.6-1.9l-0.9-1.2l-1.1-0.5l-1,0.4
		 M335.95,11.25l1.1,0.4l1.4-0.5l1.2-1.2l0.8-1.5l0.5-2.5l-0.1-2.1l-0.6-1.9l-0.9-1.2l-1.1-0.5l-1,0.4 M333.65,11.25l1.1,0.4
		l1.4-0.5l1.2-1.2l0.8-1.5l0.5-2.5l-0.1-2.1l-0.6-1.9l-0.9-1.2l-1.1-0.5l-1.1,0.4 M331.35,11.25l1.1,0.4l1.4-0.5l1.2-1.2l0.7-1.5
		l0.6-2.5l-0.1-2.1l-0.6-1.9l-0.9-1.2l-1.1-0.5l-1.1,0.4 M329.05,11.25l1.1,0.4l1.4-0.5l1.2-1.2l0.7-1.5l0.5-2.5l-0.1-2.1l-0.5-1.9
		l-1-1.2l-1-0.5l-1.1,0.4 M326.65,11.25l1.2,0.4l1.4-0.5l1.2-1.2l0.7-1.5l0.5-2.5l-0.1-2.1l-0.5-1.9l-1-1.2l-1.1-0.5l-1,0.4
		 M324.35,11.25l1.1,0.4l1.5-0.5l1.2-1.2l0.7-1.5l0.5-2.5l-0.1-2.1l-0.6-1.9l-0.9-1.2l-1.1-0.5l-1,0.4 M322.05,11.25l1.1,0.4
		l1.5-0.5l1.1-1.2l0.8-1.5l0.5-2.5l-0.1-2.1l-0.6-1.9l-0.9-1.2l-1.1-0.5l-1,0.4 M319.75,11.25l1.1,0.4l1.4-0.5l1.2-1.2l0.8-1.5
		l0.5-2.5l-0.1-2.1l-0.6-1.9l-0.9-1.2l-1.1-0.5l-1,0.4 M317.45,11.25l1.1,0.4l1.4-0.5l1.2-1.2l0.8-1.5l0.5-2.5l-0.1-2.1l-0.6-1.9
		l-0.9-1.2l-1.1-0.5l-1.1,0.4 M315.15,11.25l1.1,0.4l1.4-0.5l1.2-1.2l0.7-1.5l0.6-2.5l-0.2-2.1l-0.5-1.9l-0.9-1.2l-1.1-0.5l-1.1,0.4
		 M312.75,11.25l1.2,0.4l1.4-0.5l1.2-1.2l0.7-1.5l0.5-2.5l-0.1-2.1l-0.5-1.9l-1-1.2l-1-0.5l-1.1,0.4 M310.45,11.25l1.2,0.4l1.4-0.5
		l1.2-1.2l0.7-1.5l0.5-2.5l-0.1-2.1l-0.5-1.9l-1-1.2l-1.1-0.5l-1,0.4 M308.15,11.25l1.1,0.4l1.5-0.5l1.2-1.2l0.7-1.5l0.5-2.5
		l-0.1-2.1l-0.6-1.9l-0.9-1.2l-1.1-0.5l-1,0.4 M305.85,11.25l1.1,0.4l1.5-0.5l1.1-1.2l0.8-1.5l0.5-2.5l-0.1-2.1l-0.6-1.9l-0.9-1.2
		l-1.1-0.5l-1,0.4 M303.55,11.25l1.1,0.4l1.4-0.5l1.2-1.2l0.8-1.5l0.5-2.5l-0.1-2.1l-0.6-1.9l-0.9-1.2l-1.1-0.5l-1,0.4
		 M301.25,11.25l1.1,0.4l1.4-0.5l1.2-1.2l0.7-1.5l0.6-2.5l-0.1-2.1l-0.6-1.9l-0.9-1.2l-1.1-0.5l-1.1,0.4 M298.95,11.25l1.1,0.4
		l1.4-0.5l1.2-1.2l0.7-1.5l0.6-2.5l-0.2-2.1l-0.5-1.9l-0.9-1.2l-1.1-0.5l-1.1,0.4 M296.55,11.25l1.2,0.4l1.4-0.5l1.2-1.2l0.7-1.5
		l0.5-2.5l-0.1-2.1l-0.5-1.9l-1-1.2l-1-0.5l-1.1,0.4 M294.25,11.25l1.2,0.4l1.4-0.5l1.2-1.2l0.7-1.5l0.5-2.5l-0.1-2.1l-0.5-1.9
		l-1-1.2l-1.1-0.5l-1,0.4 M291.95,11.25l1.1,0.4l1.5-0.5l1.2-1.2l0.7-1.5l0.5-2.5l-0.1-2.1l-0.6-1.9l-0.9-1.2l-1.1-0.5l-1,0.4
		 M289.65,11.25l1.1,0.4l1.5-0.5l1.1-1.2l0.8-1.5l0.5-2.5l-0.1-2.1l-0.6-1.9l-0.9-1.2l-1.1-0.5l-1,0.4 M287.35,11.25l1.1,0.4
		l1.4-0.5l1.2-1.2l0.8-1.5l0.5-2.5l-0.1-2.1l-0.6-1.9l-0.9-1.2l-1.1-0.5l-1,0.4 M285.05,11.25l1.1,0.4l1.4-0.5l1.2-1.2l0.7-1.5
		l0.6-2.5l-0.1-2.1l-0.6-1.9l-0.9-1.2l-1.1-0.5l-1.1,0.4 M282.75,11.25l1.1,0.4l1.4-0.5l1.2-1.2l0.7-1.5l0.6-2.5l-0.2-2.1l-0.5-1.9
		l-0.9-1.2l-1.1-0.5l-1.1,0.4 M280.35,11.25l1.2,0.4l1.4-0.5l1.2-1.2l0.7-1.5l0.5-2.5l-0.1-2.1l-0.5-1.9l-1-1.2l-1-0.5l-1.1,0.4
		 M278.05,11.25l1.1,0.4l1.5-0.5l1.2-1.2l0.7-1.5l0.5-2.5l-0.1-2.1l-0.5-1.9l-1-1.2l-1.1-0.5l-1,0.4 M275.75,11.25l1.1,0.4l1.5-0.5
		l1.2-1.2l0.7-1.5l0.5-2.5l-0.1-2.1l-0.6-1.9l-0.9-1.2l-1.1-0.5l-1,0.4 M273.45,11.25l1.1,0.4l1.4-0.5l1.2-1.2l0.8-1.5l0.5-2.5
		l-0.1-2.1l-0.6-1.9l-0.9-1.2l-1.1-0.5l-1,0.4 M271.15,11.25l1.1,0.4l1.4-0.5l1.2-1.2l0.8-1.5l0.5-2.5l-0.1-2.1l-0.6-1.9l-0.9-1.2
		l-1.1-0.5l-1,0.4 M268.85,11.25l1.1,0.4l1.4-0.5l1.2-1.2l0.7-1.5l0.6-2.5l-0.1-2.1l-0.6-1.9l-0.9-1.2l-1.1-0.5l-1.1,0.4
		 M266.55,11.25l1.1,0.4l1.4-0.5l1.2-1.2l0.7-1.5l0.6-2.5l-0.2-2.1l-0.5-1.9l-0.9-1.2l-1.1-0.5l-1.1,0.4 M264.15,11.25l1.2,0.4
		l1.4-0.5l1.2-1.2l0.7-1.5l0.5-2.5l-0.1-2.1l-0.5-1.9l-1-1.2l-1.1-0.5l-1,0.4 M261.85,11.25l1.1,0.4l1.5-0.5l1.2-1.2l0.7-1.5
		l0.5-2.5l-0.1-2.1l-0.6-1.9l-0.9-1.2l-1.1-0.5l-1,0.4 M259.55,11.25l1.1,0.4l1.5-0.5l1.2-1.2l0.7-1.5l0.5-2.5l-0.1-2.1l-0.6-1.9
		l-0.9-1.2l-1.1-0.5l-1,0.4 M257.25,11.25l1.1,0.4l1.4-0.5l1.2-1.2l0.8-1.5l0.5-2.5l-0.1-2.1l-0.6-1.9l-0.9-1.2l-1.1-0.5l-1,0.4
		 M254.95,11.25l1.1,0.4l1.4-0.5l1.2-1.2l0.8-1.5l0.5-2.5l-0.1-2.1l-0.6-1.9l-0.9-1.2l-1.1-0.5l-1,0.4 M252.65,11.25l1.1,0.4
		l1.4-0.5l1.2-1.2l0.7-1.5l0.6-2.5l-0.1-2.1l-0.6-1.9l-0.9-1.2l-1.1-0.5l-1.1,0.4 M250.35,11.25l1.1,0.4l1.4-0.5l1.2-1.2l0.7-1.5
		l0.6-2.5l-0.2-2.1l-0.5-1.9l-0.9-1.2l-1.1-0.5l-1.1,0.4 M247.95,11.25l1.2,0.4l1.4-0.5l1.2-1.2l0.7-1.5l0.5-2.5l-0.1-2.1l-0.5-1.9
		l-1-1.2l-1.1-0.5l-1,0.4 M245.65,11.25l1.1,0.4l1.5-0.5l1.2-1.2l0.7-1.5l0.5-2.5l-0.1-2.1l-0.6-1.9l-0.9-1.2l-1.1-0.5l-1,0.4
		 M243.35,11.25l1.1,0.4l1.5-0.5l1.2-1.2l0.7-1.5l0.5-2.5l-0.1-2.1l-0.6-1.9l-0.9-1.2l-1.1-0.5l-1,0.4 M241.05,11.25l1.1,0.4
		l1.4-0.5l1.2-1.2l0.8-1.5l0.5-2.5l-0.1-2.1l-0.6-1.9l-0.9-1.2l-1.1-0.5l-1,0.4 M238.75,11.25l1.1,0.4l1.4-0.5l1.2-1.2l0.8-1.5
		l0.5-2.5l-0.1-2.1l-0.6-1.9l-0.9-1.2l-1.1-0.5l-1.1,0.4 M236.45,11.25l1.1,0.4l1.4-0.5l1.2-1.2l0.7-1.5l0.6-2.5l-0.1-2.1l-0.6-1.9
		l-0.9-1.2l-1.1-0.5l-1.1,0.4 M234.15,11.25l1.1,0.4l1.4-0.5l1.2-1.2l0.7-1.5l0.5-2.5l-0.1-2.1l-0.5-1.9l-1-1.2l-1-0.5l-1.1,0.4
		 M231.75,11.25l1.2,0.4l1.4-0.5l1.2-1.2l0.7-1.5l0.5-2.5l-0.1-2.1l-0.5-1.9l-1-1.2l-1.1-0.5l-1,0.4 M229.45,11.25l1.1,0.4l1.5-0.5
		l1.2-1.2l0.7-1.5l0.5-2.5l-0.1-2.1l-0.6-1.9l-0.9-1.2l-1.1-0.5l-1,0.4 M227.15,11.25l1.1,0.4l1.5-0.5l1.2-1.2l0.7-1.5l0.5-2.5
		l-0.1-2.1l-0.6-1.9l-0.9-1.2l-1.1-0.5l-1,0.4 M224.85,11.25l1.1,0.4l1.4-0.5l1.2-1.2l0.8-1.5l0.5-2.5l-0.1-2.1l-0.6-1.9l-0.9-1.2
		l-1.1-0.5l-1,0.4 M222.55,11.25l1.1,0.4l1.4-0.5l1.2-1.2l0.8-1.5l0.5-2.5l-0.1-2.1l-0.6-1.9l-0.9-1.2l-1.1-0.5l-1.1,0.4
		 M220.25,11.25l1.1,0.4l1.4-0.5l1.2-1.2l0.7-1.5l0.6-2.5l-0.1-2.1l-0.6-1.9l-0.9-1.2l-1.1-0.5l-1.1,0.4 M217.95,11.25l1.1,0.4
		l1.4-0.5l1.2-1.2l0.7-1.5l0.5-2.5l-0.1-2.1l-0.5-1.9l-1-1.2l-1-0.5l-1.1,0.4 M215.55,11.25l1.2,0.4l1.4-0.5l1.2-1.2l0.7-1.5
		l0.5-2.5l-0.1-2.1l-0.5-1.9l-1-1.2l-1.1-0.5l-1,0.4 M213.25,11.25l1.1,0.4l1.5-0.5l1.2-1.2l0.7-1.5l0.5-2.5l-0.1-2.1l-0.6-1.9
		l-0.9-1.2l-1.1-0.5l-1,0.4 M210.95,11.25l1.1,0.4l1.5-0.5l1.1-1.2l0.8-1.5l0.5-2.5l-0.1-2.1l-0.6-1.9l-0.9-1.2l-1.1-0.5l-1,0.4
		 M208.65,11.25l1.1,0.4l1.4-0.5l1.2-1.2l0.8-1.5l0.5-2.5l-0.1-2.1l-0.6-1.9l-0.9-1.2l-1.1-0.5l-1,0.4 M206.35,11.25l1.1,0.4
		l1.4-0.5l1.2-1.2l0.7-1.5l0.6-2.5l-0.1-2.1l-0.6-1.9l-0.9-1.2l-1.1-0.5l-1.1,0.4 M204.05,11.25l1.1,0.4l1.4-0.5l1.2-1.2l0.7-1.5
		l0.6-2.5l-0.2-2.1l-0.5-1.9l-0.9-1.2l-1.1-0.5l-1.1,0.4 M201.65,11.25l1.2,0.4l1.4-0.5l1.2-1.2l0.7-1.5l0.5-2.5l-0.1-2.1l-0.5-1.9
		l-1-1.2l-1-0.5l-1.1,0.4 M199.35,11.25l1.2,0.4l1.4-0.5l1.2-1.2l0.7-1.5l0.5-2.5l-0.1-2.1l-0.5-1.9l-1-1.2l-1.1-0.5l-1,0.4
		 M197.05,11.25l1.1,0.4l1.5-0.5l1.2-1.2l0.7-1.5l0.5-2.5l-0.1-2.1l-0.6-1.9l-0.9-1.2l-1.1-0.5l-1,0.4 M194.75,11.25l1.1,0.4
		l1.5-0.5l1.1-1.2l0.8-1.5l0.5-2.5l-0.1-2.1l-0.6-1.9l-0.9-1.2l-1.1-0.5l-1,0.4 M192.45,11.25l1.1,0.4l1.4-0.5l1.2-1.2l0.8-1.5
		l0.5-2.5l-0.1-2.1l-0.6-1.9l-0.9-1.2l-1.1-0.5l-1,0.4 M190.15,11.25l1.1,0.4l1.4-0.5l1.2-1.2l0.7-1.5l0.6-2.5l-0.1-2.1l-0.6-1.9
		l-0.9-1.2l-1.1-0.5l-1.1,0.4 M187.85,11.25l1.1,0.4l1.4-0.5l1.2-1.2l0.7-1.5l0.6-2.5l-0.2-2.1l-0.5-1.9l-0.9-1.2l-1.1-0.5l-1.1,0.4
		 M185.45,11.25l1.2,0.4l1.4-0.5l1.2-1.2l0.7-1.5l0.5-2.5l-0.1-2.1l-0.5-1.9l-1-1.2l-1-0.5l-1.1,0.4 M183.15,11.25l1.1,0.4l1.5-0.5
		l1.2-1.2l0.7-1.5l0.5-2.5l-0.1-2.1l-0.5-1.9l-1-1.2l-1.1-0.5l-1,0.4 M180.85,11.25l1.1,0.4l1.5-0.5l1.2-1.2l0.7-1.5l0.5-2.5
		l-0.1-2.1l-0.6-1.9l-0.9-1.2l-1.1-0.5l-1,0.4 M178.55,11.25l1.1,0.4l1.4-0.5l1.2-1.2l0.8-1.5l0.5-2.5l-0.1-2.1l-0.6-1.9l-0.9-1.2
		l-1.1-0.5l-1,0.4 M176.25,11.25l1.1,0.4l1.4-0.5l1.2-1.2l0.8-1.5l0.5-2.5l-0.1-2.1l-0.6-1.9l-0.9-1.2l-1.1-0.5l-1,0.4
		 M173.95,11.25l1.1,0.4l1.4-0.5l1.2-1.2l0.7-1.5l0.6-2.5l-0.1-2.1l-0.6-1.9l-0.9-1.2l-1.1-0.5l-1.1,0.4 M171.65,11.25l1.1,0.4
		l1.4-0.5l1.2-1.2l0.7-1.5l0.6-2.5l-0.2-2.1l-0.5-1.9l-0.9-1.2l-1.1-0.5l-1.1,0.4 M169.25,11.25l1.2,0.4l1.4-0.5l1.2-1.2l0.7-1.5
		l0.5-2.5l-0.1-2.1l-0.5-1.9l-1-1.2l-1.1-0.5l-1,0.4 M166.95,11.25l1.1,0.4l1.5-0.5l1.2-1.2l0.7-1.5l0.5-2.5l-0.1-2.1l-0.5-1.9
		l-1-1.2l-1.1-0.5l-1,0.4 M164.65,11.25l1.1,0.4l1.5-0.5l1.2-1.2l0.7-1.5l0.5-2.5l-0.1-2.1l-0.6-1.9l-0.9-1.2l-1.1-0.5l-1,0.4
		 M162.35,11.25l1.1,0.4l1.4-0.5l1.2-1.2l0.8-1.5l0.5-2.5l-0.1-2.1l-0.6-1.9l-0.9-1.2l-1.1-0.5l-1,0.4 M160.05,11.25l1.1,0.4
		l1.4-0.5l1.2-1.2l0.8-1.5l0.5-2.5l-0.1-2.1l-0.6-1.9l-0.9-1.2l-1.1-0.5l-1,0.4 M157.75,11.25l1.1,0.4l1.4-0.5l1.2-1.2l0.7-1.5
		l0.6-2.5l-0.1-2.1l-0.6-1.9l-0.9-1.2l-1.1-0.5l-1.1,0.4 M155.45,11.25l1.1,0.4l1.4-0.5l1.2-1.2l0.7-1.5l0.6-2.5l-0.2-2.1l-0.5-1.9
		l-0.9-1.2l-1.1-0.5l-1.1,0.4 M153.05,11.25l1.2,0.4l1.4-0.5l1.2-1.2l0.7-1.5l0.5-2.5l-0.1-2.1l-0.5-1.9l-1-1.2l-1.1-0.5l-1,0.4
		 M150.75,11.25l1.1,0.4l1.5-0.5l1.2-1.2l0.7-1.5l0.5-2.5l-0.1-2.1l-0.6-1.9l-0.9-1.2l-1.1-0.5l-1,0.4 M148.45,11.25l1.1,0.4
		l1.5-0.5l1.2-1.2l0.7-1.5l0.5-2.5l-0.1-2.1l-0.6-1.9l-0.9-1.2l-1.1-0.5l-1,0.4 M146.15,11.25l1.1,0.4l1.4-0.5l1.2-1.2l0.8-1.5
		l0.5-2.5l-0.1-2.1l-0.6-1.9l-0.9-1.2l-1.1-0.5l-1,0.4 M143.85,11.25l1.1,0.4l1.4-0.5l1.2-1.2l0.8-1.5l0.5-2.5l-0.1-2.1l-0.6-1.9
		l-0.9-1.2l-1.1-0.5l-1.1,0.4 M141.55,11.25l1.1,0.4l1.4-0.5l1.2-1.2l0.7-1.5l0.6-2.5l-0.1-2.1l-0.6-1.9l-0.9-1.2l-1.1-0.5l-1.1,0.4
		 M139.25,11.25l1.1,0.4l1.4-0.5l1.2-1.2l0.7-1.5l0.5-2.5l-0.1-2.1l-0.5-1.9l-0.9-1.2l-1.1-0.5l-1.1,0.4 M136.85,11.25l1.2,0.4
		l1.4-0.5l1.2-1.2l0.7-1.5l0.5-2.5l-0.1-2.1l-0.5-1.9l-1-1.2l-1.1-0.5l-1,0.4 M134.55,11.25l1.1,0.4l1.5-0.5l1.2-1.2l0.7-1.5
		l0.5-2.5l-0.1-2.1l-0.6-1.9l-0.9-1.2l-1.1-0.5l-1,0.4 M132.25,11.25l1.1,0.4l1.5-0.5l1.2-1.2l0.7-1.5l0.5-2.5l-0.1-2.1l-0.6-1.9
		l-0.9-1.2l-1.1-0.5l-1,0.4 M129.95,11.25l1.1,0.4l1.4-0.5l1.2-1.2l0.8-1.5l0.5-2.5l-0.1-2.1l-0.6-1.9l-0.9-1.2l-1.1-0.5l-1,0.4
		 M127.65,11.25l1.1,0.4l1.4-0.5l1.2-1.2l0.8-1.5l0.5-2.5l-0.1-2.1l-0.6-1.9l-0.9-1.2l-1.1-0.5l-1.1,0.4 M125.35,11.25l1.1,0.4
		l1.4-0.5l1.2-1.2l0.7-1.5l0.6-2.5l-0.1-2.1l-0.6-1.9l-0.9-1.2l-1.1-0.5l-1.1,0.4 M123.05,11.25l1.1,0.4l1.4-0.5l1.2-1.2l0.7-1.5
		l0.5-2.5l-0.1-2.1l-0.5-1.9l-1-1.2l-1-0.5l-1.1,0.4 M120.65,11.25l1.2,0.4l1.4-0.5l1.2-1.2l0.7-1.5l0.5-2.5l-0.1-2.1l-0.5-1.9
		l-1-1.2l-1.1-0.5l-1,0.4 M118.35,11.25l1.1,0.4l1.5-0.5l1.2-1.2l0.7-1.5l0.5-2.5l-0.1-2.1l-0.6-1.9l-0.9-1.2l-1.1-0.5l-1,0.4
		 M116.05,11.25l1.1,0.4l1.5-0.5l1.2-1.2l0.7-1.5l0.5-2.5l-0.1-2.1l-0.6-1.9l-0.9-1.2l-1.1-0.5l-1,0.4 M113.75,11.25l1.1,0.4
		l1.4-0.5l1.2-1.2l0.8-1.5l0.5-2.5l-0.1-2.1l-0.6-1.9l-0.9-1.2l-1.1-0.5l-1,0.4 M111.45,11.25l1.1,0.4l1.4-0.5l1.2-1.2l0.8-1.5
		l0.5-2.5l-0.1-2.1l-0.6-1.9l-0.9-1.2l-1.1-0.5l-1.1,0.4 M109.15,11.25l1.1,0.4l1.4-0.5l1.2-1.2l0.7-1.5l0.6-2.5l-0.1-2.1l-0.6-1.9
		l-0.9-1.2l-1.1-0.5l-1.1,0.4 M106.75,11.25l1.2,0.4l1.4-0.5l1.2-1.2l0.7-1.5l0.5-2.5l-0.1-2.1l-0.5-1.9l-1-1.2l-1-0.5l-1.1,0.4
		 M104.45,11.25l1.2,0.4l1.4-0.5l1.2-1.2l0.7-1.5l0.5-2.5l-0.1-2.1l-0.5-1.9l-1-1.2l-1.1-0.5l-1,0.4 M102.15,11.25l1.1,0.4l1.5-0.5
		l1.2-1.2l0.7-1.5l0.5-2.5l-0.1-2.1l-0.6-1.9l-0.9-1.2l-1.1-0.5l-1,0.4 M99.85,11.25l1.1,0.4l1.5-0.5l1.1-1.2l0.8-1.5l0.5-2.5
		l-0.1-2.1l-0.6-1.9l-0.9-1.2l-1.1-0.5l-1,0.4 M97.55,11.25l1.1,0.4l1.4-0.5l1.2-1.2l0.8-1.5l0.5-2.5l-0.1-2.1l-0.6-1.9l-0.9-1.2
		l-1.1-0.5l-1,0.4 M95.25,11.25l1.1,0.4l1.4-0.5l1.2-1.2l0.7-1.5l0.6-2.5l-0.1-2.1l-0.6-1.9l-0.9-1.2l-1.1-0.5l-1.1,0.4
		 M92.95,11.25l1.1,0.4l1.4-0.5l1.2-1.2l0.7-1.5l0.6-2.5l-0.2-2.1l-0.5-1.9l-0.9-1.2l-1.1-0.5l-1.1,0.4 M90.55,11.25l1.2,0.4
		l1.4-0.5l1.2-1.2l0.7-1.5l0.5-2.5l-0.1-2.1l-0.5-1.9l-1-1.2l-1-0.5l-1.1,0.4 M88.25,11.25l1.2,0.4l1.4-0.5l1.2-1.2l0.7-1.5l0.5-2.5
		l-0.1-2.1l-0.5-1.9l-1-1.2l-1.1-0.5l-1,0.4 M85.95,11.25l1.1,0.4l1.5-0.5l1.2-1.2l0.7-1.5l0.5-2.5l-0.1-2.1l-0.6-1.9l-0.9-1.2
		l-1.1-0.5l-1,0.4 M83.65,11.25l1.1,0.4l1.5-0.5l1.1-1.2l0.8-1.5l0.5-2.5l-0.1-2.1l-0.6-1.9l-0.9-1.2l-1.1-0.5l-1,0.4 M81.35,11.25
		l1.1,0.4l1.4-0.5l1.2-1.2l0.8-1.5l0.5-2.5l-0.1-2.1l-0.6-1.9l-0.9-1.2l-1.1-0.5l-1,0.4 M79.05,11.25l1.1,0.4l1.4-0.5l1.2-1.2
		l0.7-1.5l0.6-2.5l-0.1-2.1l-0.6-1.9l-0.9-1.2l-1.1-0.5l-1.1,0.4 M76.75,11.25l1.1,0.4l1.4-0.5l1.2-1.2l0.7-1.5l0.6-2.5l-0.2-2.1
		l-0.5-1.9l-0.9-1.2l-1.1-0.5l-1.1,0.4 M74.35,11.25l1.2,0.4l1.4-0.5l1.2-1.2l0.7-1.5l0.5-2.5l-0.1-2.1l-0.5-1.9l-1-1.2l-1-0.5
		l-1.1,0.4 M72.05,11.25l1.1,0.4l1.5-0.5l1.2-1.2l0.7-1.5l0.5-2.5l-0.1-2.1l-0.5-1.9l-1-1.2l-1.1-0.5l-1,0.4 M69.75,11.25l1.1,0.4
		l1.5-0.5l1.2-1.2l0.7-1.5l0.5-2.5l-0.1-2.1l-0.6-1.9l-0.9-1.2l-1.1-0.5l-1,0.4 M67.45,11.25l1.1,0.4l1.4-0.5l1.2-1.2l0.8-1.5
		l0.5-2.5l-0.1-2.1l-0.6-1.9l-0.9-1.2l-1.1-0.5l-1,0.4 M65.15,11.25l1.1,0.4l1.4-0.5l1.2-1.2l0.8-1.5l0.5-2.5l-0.1-2.1l-0.6-1.9
		l-0.9-1.2l-1.1-0.5l-1,0.4 M62.85,11.25l1.1,0.4l1.4-0.5l1.2-1.2l0.7-1.5l0.6-2.5l-0.1-2.1l-0.6-1.9l-0.9-1.2l-1.1-0.5l-1.1,0.4
		 M60.55,11.25l1.1,0.4l1.4-0.5l1.2-1.2l0.7-1.5l0.6-2.5l-0.2-2.1l-0.5-1.9l-0.9-1.2l-1.1-0.5l-1.1,0.4 M58.15,11.25l1.2,0.4
		l1.4-0.5l1.2-1.2l0.7-1.5l0.5-2.5l-0.1-2.1l-0.5-1.9l-1-1.2l-1.1-0.5l-1,0.4 M55.85,11.25l1.1,0.4l1.5-0.5l1.2-1.2l0.7-1.5l0.5-2.5
		l-0.1-2.1l-0.6-1.9l-0.9-1.2l-1.1-0.5l-1,0.4 M53.55,11.25l1.1,0.4l1.5-0.5l1.2-1.2l0.7-1.5l0.5-2.5l-0.1-2.1l-0.6-1.9l-0.9-1.2
		l-1.1-0.5l-1,0.4 M51.25,11.25l1.1,0.4l1.4-0.5l1.2-1.2l0.8-1.5l0.5-2.5l-0.1-2.1l-0.6-1.9l-0.9-1.2l-1.1-0.5l-1,0.4 M48.95,11.25
		l1.1,0.4l1.4-0.5l1.2-1.2l0.8-1.5l0.5-2.5l-0.1-2.1l-0.6-1.9l-0.9-1.2l-1.1-0.5l-1,0.4 M46.65,11.25l1.1,0.4l1.4-0.5l1.2-1.2
		l0.7-1.5l0.6-2.5l-0.1-2.1l-0.6-1.9l-0.9-1.2l-1.1-0.5l-1.1,0.4 M44.35,11.25l1.1,0.4l1.4-0.5l1.2-1.2l0.7-1.5l0.6-2.5l-0.2-2.1
		l-0.5-1.9l-0.9-1.2l-1.1-0.5l-1.1,0.4 M41.95,11.25l1.2,0.4l1.4-0.5l1.2-1.2l0.7-1.5l0.5-2.5l-0.1-2.1l-0.5-1.9l-1-1.2l-1.1-0.5
		l-1,0.4 M39.65,11.25l1.1,0.4l1.5-0.5l1.2-1.2l0.7-1.5l0.5-2.5l-0.1-2.1l-0.6-1.9l-0.9-1.2l-1.1-0.5l-1,0.4 M37.35,11.25l1.1,0.4
		l1.5-0.5l1.2-1.2l0.7-1.5l0.5-2.5l-0.1-2.1l-0.6-1.9l-0.9-1.2l-1.1-0.5l-1,0.4 M35.05,11.25l1.1,0.4l1.4-0.5l1.2-1.2l0.8-1.5
		l0.5-2.5l-0.1-2.1l-0.6-1.9l-0.9-1.2l-1.1-0.5l-1,0.4 M32.75,11.25l1.1,0.4l1.4-0.5l1.2-1.2l0.8-1.5l0.5-2.5l-0.1-2.1l-0.6-1.9
		l-0.9-1.2l-1.1-0.5l-1.1,0.4 M30.45,11.25l1.1,0.4l1.4-0.5l1.2-1.2l0.7-1.5l0.6-2.5l-0.1-2.1l-0.6-1.9l-0.9-1.2l-1.1-0.5l-1.1,0.4
		 M28.15,11.25l1.1,0.4l1.4-0.5l1.2-1.2l0.7-1.5l0.5-2.5l-0.1-2.1l-0.5-1.9l-1-1.2l-1-0.5l-1.1,0.4 M25.75,11.25l1.2,0.4l1.4-0.5
		l1.2-1.2l0.7-1.5l0.5-2.5l-0.1-2.1l-0.5-1.9l-1-1.2l-1.1-0.5l-1,0.4 M23.45,11.25l1.1,0.4l1.5-0.5l1.2-1.2l0.7-1.5l0.5-2.5
		l-0.1-2.1l-0.6-1.9l-0.9-1.2l-1.1-0.5l-1,0.4 M21.15,11.25l1.1,0.4l1.5-0.5l1.2-1.2l0.7-1.5l0.5-2.5l-0.1-2.1l-0.6-1.9l-0.9-1.2
		l-1.1-0.5l-1,0.4 M18.85,11.25l1.1,0.4l1.4-0.5l1.2-1.2l0.8-1.5l0.5-2.5l-0.1-2.1l-0.6-1.9l-0.9-1.2l-1.1-0.5l-1,0.4 M16.55,11.25
		l1.1,0.4l1.4-0.5l1.2-1.2l0.8-1.5l0.5-2.5l-0.1-2.1l-0.6-1.9l-0.9-1.2l-1.1-0.5l-1.1,0.4 M14.25,11.25l1.1,0.4l1.4-0.5l1.2-1.2
		l0.7-1.5l0.6-2.5l-0.1-2.1l-0.6-1.9l-0.9-1.2l-1.1-0.5l-1.1,0.4 M11.95,11.25l1.1,0.4l1.4-0.5l1.2-1.2l0.7-1.5l0.5-2.5l-0.1-2.1
		l-0.5-1.9l-1-1.2l-1-0.5l-1.1,0.4 M9.55,11.25l1.2,0.4l1.4-0.5l1.2-1.2l0.7-1.5l0.5-2.5l-0.1-2.1l-0.5-1.9l-1-1.2l-1.1-0.5l-1,0.4
		 M7.25,11.25l1.1,0.4l1.5-0.5l1.2-1.2l0.7-1.5l0.5-2.5l-0.1-2.1l-0.6-1.9l-0.9-1.2l-1.1-0.5l-1,0.4 M4.95,11.25l1.1,0.4l1.5-0.5
		l1.1-1.2l0.8-1.5l0.5-2.5l-0.1-2.1l-0.6-1.9l-0.9-1.2l-1.1-0.5l-1,0.4 M7.15,8.45l0.5-2.5l-0.1-2.1l-0.6-1.9l-0.9-1.2l-1.1-0.5
		l-1.1,0.5l-0.5,0.6 M624.55,1.05l0.5-0.2l0.9,0.3l0.8,0.7l0.6,1.3l0.4,1.6v1.8l-0.3,1.9 M628.05,4.25l0.2,1v1.2l-0.3,1.2l-0.5,1.1
		l-0.3,0.5 M628.05,4.25v1.7v0.4 M7.15,8.45l-1.2,1.4l-1.1,0.6l-1.2,0.1l-1.2-0.5l-0.9-0.7l-0.6-1 M627.95,3.95l-0.3-0.6
		 M627.65,3.35l-0.7-1.1 M626.85,9.95l0.1-0.2 M627.55,8.75l0.4-0.8 M6.05,11.65h0.3 M8.45,11.65h0.2 M10.75,11.65h0.2 M13.05,11.65
		h0.2 M15.35,11.65h0.2 M17.65,11.65h0.2 M19.95,11.65h0.3 M22.25,11.65h0.3 M24.65,11.65h0.2 M26.95,11.65h0.2 M29.25,11.65h0.2
		 M31.55,11.65h0.2 M33.85,11.65h0.2 M36.15,11.65h0.3 M38.45,11.65h0.3 M40.85,11.65h0.2 M43.15,11.65h0.2 M45.45,11.65h0.2
		 M47.75,11.65h0.2 M50.05,11.65h0.3 M52.35,11.65h0.3 M54.65,11.65h0.3 M57.05,11.65h0.2 M59.35,11.65h0.2 M61.65,11.65h0.2
		 M63.95,11.65h0.2 M66.25,11.65h0.3 M68.55,11.65h0.3 M70.95,11.65h0.2 M73.25,11.65h0.2 M75.55,11.65h0.2 M77.85,11.65h0.2
		 M80.15,11.65h0.2 M82.45,11.65h0.3 M84.75,11.65h0.3 M87.15,11.65h0.2 M89.45,11.65h0.2 M91.75,11.65h0.2 M94.05,11.65h0.2
		 M96.35,11.65h0.2 M98.65,11.65h0.3 M100.95,11.65h0.3 M103.35,11.65h0.2 M105.65,11.65h0.2 M107.95,11.65h0.2 M110.25,11.65h0.2
		 M112.55,11.65h0.2 M114.85,11.65h0.3 M117.15,11.65h0.3 M119.55,11.65h0.2 M121.85,11.65h0.2 M124.15,11.65h0.2 M126.45,11.65h0.2
		 M128.75,11.65h0.2 M131.05,11.65h0.3 M133.35,11.65h0.3 M135.75,11.65h0.2 M138.05,11.65h0.2 M140.35,11.65h0.2 M142.65,11.65h0.2
		 M144.95,11.65h0.2 M147.25,11.65h0.3 M149.55,11.65h0.3 M151.95,11.65h0.2 M154.25,11.65h0.2 M156.55,11.65h0.2 M158.85,11.65h0.2
		 M161.15,11.65h0.3 M163.45,11.65h0.3 M165.75,11.65h0.3 M168.15,11.65h0.2 M170.45,11.65h0.2 M172.75,11.65h0.2 M175.05,11.65h0.2
		 M177.35,11.65h0.3 M179.65,11.65h0.3 M182.05,11.65h0.2 M184.35,11.65h0.2 M186.65,11.65h0.2 M188.95,11.65h0.2 M191.25,11.65h0.2
		 M193.55,11.65h0.3 M195.85,11.65h0.3 M198.25,11.65h0.2 M200.55,11.65h0.2 M202.85,11.65h0.2 M205.15,11.65h0.2 M207.45,11.65h0.2
		 M209.75,11.65h0.3 M212.05,11.65h0.3 M214.45,11.65h0.2 M216.75,11.65h0.2 M219.05,11.65h0.2 M221.35,11.65h0.2 M223.65,11.65h0.2
		 M225.95,11.65h0.3 M228.25,11.65h0.3 M230.65,11.65h0.2 M232.95,11.65h0.2 M235.25,11.65h0.2 M237.55,11.65h0.2 M239.85,11.65h0.2
		 M242.15,11.65h0.3 M244.45,11.65h0.3 M246.85,11.65h0.2 M249.15,11.65h0.2 M251.45,11.65h0.2 M253.75,11.65h0.2 M256.05,11.65h0.3
		 M258.35,11.65h0.3 M260.65,11.65h0.3 M263.05,11.65h0.2 M265.35,11.65h0.2 M267.65,11.65h0.2 M269.95,11.65h0.2 M272.25,11.65h0.3
		 M274.55,11.65h0.3 M276.95,11.65h0.2 M279.25,11.65h0.2 M281.55,11.65h0.2 M283.85,11.65h0.2 M286.15,11.65h0.2 M288.45,11.65h0.3
		 M290.75,11.65h0.3 M293.15,11.65h0.2 M295.45,11.65h0.2 M297.75,11.65h0.2 M300.05,11.65h0.2 M302.35,11.65h0.2 M304.65,11.65h0.3
		 M306.95,11.65h0.3 M309.35,11.65h0.2 M311.65,11.65h0.2 M313.95,11.65h0.2 M316.25,11.65h0.2 M318.55,11.65h0.2 M320.85,11.65h0.3
		 M323.15,11.65h0.3 M325.55,11.65h0.2 M327.85,11.65h0.2 M330.15,11.65h0.2 M332.45,11.65h0.2 M334.75,11.65h0.2 M337.05,11.65h0.3
		 M339.35,11.65h0.3 M341.75,11.65h0.2 M344.05,11.65h0.2 M346.35,11.65h0.2 M348.65,11.65h0.2 M350.95,11.65h0.2 M353.25,11.65h0.3
		 M355.55,11.65h0.3 M357.95,11.65h0.2 M360.25,11.65h0.2 M362.55,11.65h0.2 M364.85,11.65h0.2 M367.15,11.65h0.3 M369.45,11.65h0.3
		 M371.75,11.65h0.3 M374.15,11.65h0.2 M376.45,11.65h0.2 M378.75,11.65h0.2 M381.05,11.65h0.2 M383.35,11.65h0.3 M385.65,11.65h0.3
		 M388.05,11.65h0.2 M390.35,11.65h0.2 M392.65,11.65h0.2 M394.95,11.65h0.2 M397.25,11.65h0.2 M399.55,11.65h0.3 M401.85,11.65h0.3
		 M404.25,11.65h0.2 M406.55,11.65h0.2 M408.85,11.65h0.2 M411.15,11.65h0.2 M413.45,11.65h0.2 M415.75,11.65h0.3 M418.05,11.65h0.3
		 M420.45,11.65h0.2 M422.75,11.65h0.2 M425.05,11.65h0.2 M427.35,11.65h0.2 M429.65,11.65h0.2 M431.95,11.65h0.3 M434.25,11.65h0.3
		 M436.65,11.65h0.2 M438.95,11.65h0.2 M441.25,11.65h0.2 M443.55,11.65h0.2 M445.85,11.65h0.2 M448.15,11.65h0.3 M450.45,11.65h0.3
		 M452.85,11.65h0.2 M455.15,11.65h0.2 M457.45,11.65h0.2 M459.75,11.65h0.2 M462.05,11.65h0.3 M464.35,11.65h0.3 M466.65,11.65h0.3
		 M469.05,11.65h0.2 M471.35,11.65h0.2 M473.65,11.65h0.2 M475.95,11.65h0.2 M478.25,11.65h0.3 M480.55,11.65h0.3 M482.95,11.65h0.2
		 M485.25,11.65h0.2 M487.55,11.65h0.2 M489.85,11.65h0.2 M492.15,11.65h0.2 M494.45,11.65h0.3 M496.75,11.65h0.3 M499.15,11.65h0.2
		 M501.45,11.65h0.2 M503.75,11.65h0.2 M506.05,11.65h0.2 M508.35,11.65h0.2 M510.65,11.65h0.3 M512.95,11.65h0.3 M515.35,11.65h0.2
		 M517.65,11.65h0.2 M519.95,11.65h0.2 M522.25,11.65h0.2 M524.55,11.65h0.2 M526.85,11.65h0.3 M529.15,11.65h0.3 M531.55,11.65h0.2
		 M533.85,11.65h0.2 M536.15,11.65h0.2 M538.45,11.65h0.2 M540.75,11.65h0.2 M543.05,11.65h0.3 M545.35,11.65h0.3 M547.75,11.65h0.2
		 M550.05,11.65h0.2 M552.35,11.65h0.2 M554.65,11.65h0.2 M556.95,11.65h0.2 M559.25,11.65h0.3 M561.55,11.65h0.3 M563.95,11.65h0.2
		 M566.25,11.65h0.2 M568.55,11.65h0.2 M570.85,11.65h0.2 M573.15,11.65h0.3 M575.45,11.65h0.3 M577.75,11.65h0.3 M580.15,11.65h0.2
		 M582.45,11.65h0.2 M584.75,11.65h0.2 M587.05,11.65h0.2 M589.35,11.65h0.3 M591.65,11.65h0.3 M594.05,11.65h0.2 M596.35,11.65h0.2
		 M598.65,11.65h0.2 M600.95,11.65h0.2 M603.25,11.65h0.2 M605.55,11.65h0.3 M607.85,11.65h0.3 M610.25,11.65h0.2 M612.55,11.65h0.2
		 M614.85,11.65h0.2 M617.15,11.65h0.2 M619.45,11.65h0.2 M621.75,11.65h0.3 M624.05,11.65h0.4 M623.15,0.25h-0.2 M620.85,0.25h-0.2
		 M618.55,0.25h-0.2 M616.25,0.25h-0.3 M613.95,0.25h-0.3 M611.55,0.25h-0.2 M609.25,0.25h-0.2 M606.95,0.25h-0.2 M604.65,0.25h-0.2
		 M602.35,0.25h-0.2 M600.05,0.25h-0.3 M597.75,0.25h-0.3 M595.35,0.25h-0.2 M593.05,0.25h-0.2 M590.75,0.25h-0.2 M588.45,0.25h-0.2
		 M586.15,0.25h-0.2 M583.85,0.25h-0.3 M581.55,0.25h-0.3 M579.15,0.25h-0.2 M576.85,0.25h-0.2 M574.55,0.25h-0.2 M572.25,0.25h-0.2
		 M569.95,0.25h-0.3 M567.65,0.25h-0.3 M565.35,0.25h-0.3 M562.95,0.25h-0.2 M560.65,0.25h-0.2 M558.35,0.25h-0.2 M556.05,0.25h-0.2
		 M553.75,0.25h-0.3 M551.45,0.25h-0.3 M549.05,0.25h-0.2 M546.75,0.25h-0.2 M544.45,0.25h-0.2 M542.15,0.25h-0.2 M539.85,0.25h-0.2
		 M537.55,0.25h-0.3 M535.25,0.25h-0.3 M532.85,0.25h-0.2 M530.55,0.25h-0.2 M528.25,0.25h-0.2 M525.95,0.25h-0.2 M523.65,0.25h-0.2
		 M521.35,0.25h-0.3 M519.05,0.25h-0.3 M516.65,0.25h-0.2 M514.35,0.25h-0.2 M512.05,0.25h-0.2 M509.75,0.25h-0.2 M507.45,0.25h-0.2
		 M505.15,0.25h-0.3 M502.85,0.25h-0.3 M500.45,0.25h-0.2 M498.15,0.25h-0.2 M495.85,0.25h-0.2 M493.55,0.25h-0.2 M491.25,0.25h-0.2
		 M488.95,0.25h-0.3 M486.65,0.25h-0.3 M484.25,0.25h-0.2 M481.95,0.25h-0.2 M479.65,0.25h-0.2 M477.35,0.25h-0.2 M475.05,0.25h-0.3
		 M472.75,0.25h-0.3 M470.45,0.25h-0.3 M468.05,0.25h-0.2 M465.75,0.25h-0.2 M463.45,0.25h-0.2 M461.15,0.25h-0.2 M458.85,0.25h-0.3
		 M456.55,0.25h-0.3 M454.15,0.25h-0.2 M451.85,0.25h-0.2 M449.55,0.25h-0.2 M447.25,0.25h-0.2 M444.95,0.25h-0.2 M442.65,0.25h-0.3
		 M440.35,0.25h-0.3 M437.95,0.25h-0.2 M435.65,0.25h-0.2 M433.35,0.25h-0.2 M431.05,0.25h-0.2 M428.75,0.25h-0.2 M426.45,0.25h-0.3
		 M424.15,0.25h-0.3 M421.75,0.25h-0.2 M419.45,0.25h-0.2 M417.15,0.25h-0.2 M414.85,0.25h-0.2 M412.55,0.25h-0.2 M410.25,0.25h-0.3
		 M407.95,0.25h-0.3 M405.55,0.25h-0.2 M403.25,0.25h-0.2 M400.95,0.25h-0.2 M398.65,0.25h-0.2 M396.35,0.25h-0.2 M394.05,0.25h-0.3
		 M391.75,0.25h-0.3 M389.35,0.25h-0.2 M387.05,0.25h-0.2 M384.75,0.25h-0.2 M382.45,0.25h-0.2 M380.15,0.25h-0.2 M377.85,0.25h-0.3
		 M375.55,0.25h-0.3 M373.15,0.25h-0.2 M370.85,0.25h-0.2 M368.55,0.25h-0.2 M366.25,0.25h-0.2 M363.95,0.25h-0.3 M361.65,0.25h-0.3
		 M359.35,0.25h-0.3 M356.95,0.25h-0.2 M354.65,0.25h-0.2 M352.35,0.25h-0.2 M350.05,0.25h-0.2 M347.75,0.25h-0.3 M345.45,0.25h-0.3
		 M343.05,0.25h-0.2 M340.75,0.25h-0.2 M338.45,0.25h-0.2 M336.15,0.25h-0.2 M333.85,0.25h-0.2 M331.55,0.25h-0.3 M329.25,0.25h-0.3
		 M326.85,0.25h-0.2 M324.55,0.25h-0.2 M322.25,0.25h-0.2 M319.95,0.25h-0.2 M317.65,0.25h-0.2 M315.35,0.25h-0.3 M313.05,0.25h-0.3
		 M310.65,0.25h-0.2 M308.35,0.25h-0.2 M306.05,0.25h-0.2 M303.75,0.25h-0.2 M301.45,0.25h-0.2 M299.15,0.25h-0.3 M296.85,0.25h-0.3
		 M294.45,0.25h-0.2 M292.15,0.25h-0.2 M289.85,0.25h-0.2 M287.55,0.25h-0.2 M285.25,0.25h-0.2 M282.95,0.25h-0.3 M280.65,0.25h-0.3
		 M278.25,0.25h-0.2 M275.95,0.25h-0.2 M273.65,0.25h-0.2 M271.35,0.25h-0.2 M269.05,0.25h-0.3 M266.75,0.25h-0.3 M264.45,0.25h-0.3
		 M262.05,0.25h-0.2 M259.75,0.25h-0.2 M257.45,0.25h-0.2 M255.15,0.25h-0.2 M252.85,0.25h-0.3 M250.55,0.25h-0.3 M248.15,0.25h-0.2
		 M245.85,0.25h-0.2 M243.55,0.25h-0.2 M241.25,0.25h-0.2 M238.95,0.25h-0.2 M236.65,0.25h-0.3 M234.35,0.25h-0.3 M231.95,0.25h-0.2
		 M229.65,0.25h-0.2 M227.35,0.25h-0.2 M225.05,0.25h-0.2 M222.75,0.25h-0.2 M220.45,0.25h-0.3 M218.15,0.25h-0.3 M215.75,0.25h-0.2
		 M213.45,0.25h-0.2 M211.15,0.25h-0.2 M208.85,0.25h-0.2 M206.55,0.25h-0.2 M204.25,0.25h-0.3 M201.95,0.25h-0.3 M199.55,0.25h-0.2
		 M197.25,0.25h-0.2 M194.95,0.25h-0.2 M192.65,0.25h-0.2 M190.35,0.25h-0.2 M188.05,0.25h-0.3 M185.75,0.25h-0.3 M183.35,0.25h-0.2
		 M181.05,0.25h-0.2 M178.75,0.25h-0.2 M176.45,0.25h-0.2 M174.15,0.25h-0.2 M171.85,0.25h-0.3 M169.55,0.25h-0.3 M167.15,0.25h-0.2
		 M164.85,0.25h-0.2 M162.55,0.25h-0.2 M160.25,0.25h-0.2 M157.95,0.25h-0.3 M155.65,0.25h-0.3 M153.35,0.25h-0.3 M150.95,0.25h-0.2
		 M148.65,0.25h-0.2 M146.35,0.25h-0.2 M144.05,0.25h-0.2 M141.75,0.25h-0.3 M139.45,0.25h-0.3 M137.05,0.25h-0.2 M134.75,0.25h-0.2
		 M132.45,0.25h-0.2 M130.15,0.25h-0.2 M127.85,0.25h-0.2 M125.55,0.25h-0.3 M123.25,0.25h-0.3 M120.85,0.25h-0.2 M118.55,0.25h-0.2
		 M116.25,0.25h-0.2 M113.95,0.25h-0.2 M111.65,0.25h-0.2 M109.35,0.25h-0.3 M107.05,0.25h-0.3 M104.65,0.25h-0.2 M102.35,0.25h-0.2
		 M100.05,0.25h-0.2 M97.75,0.25h-0.2 M95.45,0.25h-0.2 M93.15,0.25h-0.3 M90.85,0.25h-0.3 M88.45,0.25h-0.2 M86.15,0.25h-0.2
		 M83.85,0.25h-0.2 M81.55,0.25h-0.2 M79.25,0.25h-0.2 M76.95,0.25h-0.3 M74.65,0.25h-0.3 M72.25,0.25h-0.2 M69.95,0.25h-0.2
		 M67.65,0.25h-0.2 M65.35,0.25h-0.2 M63.05,0.25h-0.3 M60.75,0.25h-0.3 M58.45,0.25h-0.3 M56.05,0.25h-0.2 M53.75,0.25h-0.2
		 M51.45,0.25h-0.2 M49.15,0.25h-0.2 M46.85,0.25h-0.3 M44.55,0.25h-0.3 M42.15,0.25h-0.2 M39.85,0.25h-0.2 M37.55,0.25h-0.2
		 M35.25,0.25h-0.2 M32.95,0.25h-0.2 M30.65,0.25h-0.3 M28.35,0.25h-0.3 M25.95,0.25h-0.2 M23.65,0.25h-0.2 M21.35,0.25h-0.2
		 M19.05,0.25h-0.2 M16.75,0.25h-0.2 M14.45,0.25h-0.3 M12.15,0.25h-0.3 M9.75,0.25h-0.2 M7.45,0.25h-0.2 M5.15,0.25h-0.2
		 M0.75,7.95l0.3,0.6 M1.05,8.55l0.7,1.1 M1.55,2.55l-0.8,1.4"/>
</g>
</svg>
