<?xml version="1.0" encoding="utf-8"?>
<!-- Generator: Adobe Illustrator 19.0.0, SVG Export Plug-In . SVG Version: 6.00 Build 0)  -->
<svg version="1.0" id="Layer_1" xmlns="http://www.w3.org/2000/svg" xmlns:xlink="http://www.w3.org/1999/xlink" x="0px" y="0px"
	 width="27.5px" height="55.3px" viewBox="0 0 27.5 55.3" enable-background="new 0 0 27.5 55.3" xml:space="preserve">
<path fill="none" stroke="#000000" stroke-width="0.5" stroke-linecap="round" stroke-linejoin="round" stroke-miterlimit="10" d="
	M8.95,53.95h0.1l0.4,0.2l0.5,0.2l0.4,0.2l0.5,0.2l0.5,0.1l0.6,0.1l0.5,0.1h0.6h0.5h0.6h0.5l0.6-0.1h0.5l0.6-0.2l0.5-0.1l0.5-0.1
	l0.4-0.2l0.5-0.2l0.4-0.2 M22.55,48.15v0.1l0.1,0.4l0.1,0.4v0.3v0.4l-0.1,0.4l-0.1,0.3l-0.1,0.4l-0.3,0.3l-0.2,0.4l-0.3,0.3
	l-0.3,0.3l-0.4,0.3l-0.4,0.3l-0.4,0.3l-0.5,0.3l-0.5,0.2l-0.5,0.2l-0.6,0.2l-0.5,0.2l-0.6,0.1l-0.6,0.1l-0.7,0.1l-0.6,0.1h-0.6h-0.7
	h-0.6h-0.6l-0.7-0.1l-0.6-0.1l-0.6-0.1l-0.6-0.1l-0.6-0.2l-0.5-0.2l-0.5-0.2l-0.5-0.2l-0.5-0.3l-0.4-0.3l-0.4-0.3l-0.4-0.3l-0.3-0.3
	l-0.3-0.3l-0.3-0.4l-0.2-0.3l-0.1-0.4l-0.1-0.3l-0.1-0.4v-0.4v-0.3l0.1-0.4l0.1-0.4v-0.1 M4.75,46.95l0.1,0.4v0.3l0.1,0.4l0.2,0.4
	l0.2,0.3l0.3,0.4l0.2,0.3l0.4,0.3l0.3,0.3l0.4,0.3l0.5,0.3 M7.45,50.65l0.4,0.2l0.5,0.3l0.6,0.2l0.5,0.2l0.6,0.1l0.6,0.2l0.6,0.1
	l0.6,0.1h0.7l0.6,0.1h0.6h0.7l0.6-0.1h0.7l0.6-0.1l0.6-0.1l0.6-0.2l0.6-0.1l0.5-0.2l0.5-0.2l0.5-0.3l0.5-0.2l0.4-0.3l0.4-0.3
	l0.4-0.3l0.3-0.3l0.3-0.3l0.3-0.4l0.2-0.3l0.1-0.4l0.1-0.4l0.1-0.3v-0.4 M5.05,45.25l-0.1,0.1l-0.1,0.4v0.3l-0.1,0.4l0.1,0.4v0.4
	l0.1,0.3l0.2,0.4l0.2,0.3l0.3,0.4l0.2,0.3l0.4,0.3l0.3,0.3l0.4,0.3l0.5,0.3 M7.45,50.15l0.4,0.2l0.5,0.3l0.6,0.2l0.5,0.2l0.6,0.1
	l0.6,0.2l0.6,0.1l0.6,0.1l0.7,0.1h0.6h0.6h0.7h0.6l0.7-0.1l0.6-0.1l0.6-0.1l0.6-0.2l0.6-0.1l0.5-0.2l0.5-0.2l0.5-0.3l0.5-0.2
	l0.4-0.3l0.4-0.3l0.4-0.3l0.3-0.3l0.3-0.3l0.3-0.4l0.2-0.3l0.1-0.4l0.1-0.3l0.1-0.4v-0.4v-0.4l-0.1-0.3l-0.1-0.4v-0.1 M4.75,44.05
	l0.1,0.3v0.4l0.1,0.4l0.2,0.3l0.2,0.4l0.3,0.3l0.2,0.4l0.4,0.3l0.3,0.3l0.4,0.3l0.5,0.2 M7.45,47.65l0.4,0.3l0.5,0.2l0.6,0.2
	l0.5,0.2l0.6,0.2l0.6,0.1l0.6,0.1l0.6,0.1l0.7,0.1h0.6l0.6,0.1l0.7-0.1h0.6l0.7-0.1l0.6-0.1l0.6-0.1l0.6-0.1l0.6-0.2l0.5-0.2
	l0.5-0.2l0.5-0.2l0.5-0.3l0.4-0.2l0.4-0.3l0.4-0.3l0.3-0.3l0.3-0.4l0.3-0.3l0.2-0.4l0.1-0.3l0.1-0.4l0.1-0.4v-0.3 M5.05,42.25
	l-0.1,0.2l-0.1,0.3v0.4l-0.1,0.4l0.1,0.3v0.4l0.1,0.4l0.2,0.3l0.2,0.4l0.3,0.3l0.2,0.4l0.4,0.3l0.3,0.3l0.4,0.3l0.5,0.2 M7.45,47.15
	l0.4,0.3l0.5,0.2l0.6,0.2l0.5,0.2l0.6,0.2l0.6,0.1l0.6,0.2h0.6l0.7,0.1l0.6,0.1h0.6h0.7l0.6-0.1l0.7-0.1h0.6l0.6-0.2l0.6-0.1
	l0.6-0.2l0.5-0.2l0.5-0.2l0.5-0.2l0.5-0.3l0.4-0.2l0.4-0.3l0.4-0.3l0.3-0.3l0.3-0.4l0.3-0.3l0.2-0.4l0.1-0.3l0.1-0.4l0.1-0.4v-0.3
	v-0.4l-0.1-0.4l-0.1-0.3v-0.2 M4.75,41.05l0.1,0.4v0.4l0.1,0.3l0.2,0.4l0.2,0.3l0.3,0.4l0.2,0.3l0.4,0.3l0.3,0.3l0.4,0.3l0.5,0.3
	 M7.45,44.75l0.4,0.2l0.5,0.3l0.6,0.2l0.5,0.2l0.6,0.1l0.6,0.2l0.6,0.1l0.6,0.1l0.7,0.1h0.6h0.6h0.7h0.6l0.7-0.1l0.6-0.1l0.6-0.1
	l0.6-0.2l0.6-0.1l0.5-0.2l0.5-0.2l0.5-0.3l0.5-0.2l0.4-0.3l0.4-0.3l0.4-0.3l0.3-0.3l0.3-0.3l0.3-0.4l0.2-0.3l0.1-0.4l0.1-0.3
	l0.1-0.4v-0.4 M5.05,39.35l-0.1,0.1l-0.1,0.4v0.4l-0.1,0.3l0.1,0.4v0.4l0.1,0.3l0.2,0.4l0.2,0.3l0.3,0.4l0.2,0.3l0.4,0.3l0.3,0.3
	l0.4,0.3l0.5,0.3 M7.45,44.25l0.4,0.3l0.5,0.2l0.6,0.2l0.5,0.2l0.6,0.2l0.6,0.1l0.6,0.1l0.6,0.1l0.7,0.1h0.6h0.6h0.7h0.6l0.7-0.1
	l0.6-0.1l0.6-0.1l0.6-0.1l0.6-0.2l0.5-0.2l0.5-0.2l0.5-0.2l0.5-0.3l0.4-0.3l0.4-0.3l0.4-0.3l0.3-0.3l0.3-0.3l0.3-0.4l0.2-0.3
	l0.1-0.4l0.1-0.3l0.1-0.4v-0.4v-0.3l-0.1-0.4l-0.1-0.4v-0.1 M4.75,38.15l0.1,0.4v0.3l0.1,0.4l0.2,0.3l0.2,0.4l0.3,0.3l0.2,0.4
	l0.4,0.3l0.3,0.3l0.4,0.3l0.5,0.3 M7.45,41.85l0.4,0.2l0.5,0.2l0.6,0.3l0.5,0.1l0.6,0.2l0.6,0.2l0.6,0.1l0.6,0.1h0.7l0.6,0.1h0.6
	h0.7l0.6-0.1h0.7l0.6-0.1l0.6-0.1l0.6-0.2l0.6-0.2l0.5-0.1l0.5-0.3l0.5-0.2l0.5-0.2l0.4-0.3l0.4-0.3l0.4-0.3l0.3-0.3l0.3-0.4
	l0.3-0.3l0.2-0.4l0.1-0.3l0.1-0.4l0.1-0.3v-0.4 M5.05,36.45l-0.1,0.1l-0.1,0.4v0.3l-0.1,0.4l0.1,0.4v0.3l0.1,0.4l0.2,0.4l0.2,0.3
	l0.3,0.4l0.2,0.3l0.4,0.3l0.3,0.3l0.4,0.3l0.5,0.3 M7.45,41.35l0.4,0.2l0.5,0.3l0.6,0.2l0.5,0.2l0.6,0.1l0.6,0.2l0.6,0.1l0.6,0.1
	h0.7l0.6,0.1h0.6h0.7l0.6-0.1h0.7l0.6-0.1l0.6-0.1l0.6-0.2l0.6-0.1l0.5-0.2l0.5-0.2l0.5-0.3l0.5-0.2l0.4-0.3l0.4-0.3l0.4-0.3
	l0.3-0.3l0.3-0.3l0.3-0.4l0.2-0.3l0.1-0.4l0.1-0.4l0.1-0.3v-0.4v-0.4l-0.1-0.3l-0.1-0.4v-0.1 M4.75,35.15l0.1,0.4v0.4l0.1,0.3
	l0.2,0.4l0.2,0.4l0.3,0.3l0.2,0.3l0.4,0.4l0.3,0.3l0.4,0.2l0.5,0.3 M7.45,38.85l0.4,0.3l0.5,0.2l0.6,0.2l0.5,0.2l0.6,0.2l0.6,0.1
	l0.6,0.1l0.6,0.1l0.7,0.1h0.6h0.6h0.7h0.6l0.7-0.1l0.6-0.1l0.6-0.1l0.6-0.1l0.6-0.2l0.5-0.2l0.5-0.2l0.5-0.2l0.5-0.3l0.4-0.3
	l0.4-0.2l0.4-0.3l0.3-0.4l0.3-0.3l0.3-0.3l0.2-0.4l0.1-0.4l0.1-0.3l0.1-0.4v-0.4 M5.05,33.45l-0.1,0.1l-0.1,0.4v0.4l-0.1,0.4
	l0.1,0.3v0.4l0.1,0.4l0.2,0.3l0.2,0.4l0.3,0.3l0.2,0.3l0.4,0.4l0.3,0.3l0.4,0.3l0.5,0.2 M7.45,38.35l0.4,0.3l0.5,0.2l0.6,0.2
	l0.5,0.2l0.6,0.2l0.6,0.1l0.6,0.1l0.6,0.1l0.7,0.1h0.6h0.6h0.7h0.6l0.7-0.1l0.6-0.1l0.6-0.1l0.6-0.1l0.6-0.2l0.5-0.2l0.5-0.2
	l0.5-0.2l0.5-0.3l0.4-0.2l0.4-0.3l0.4-0.3l0.3-0.4l0.3-0.3l0.3-0.3l0.2-0.4l0.1-0.3l0.1-0.4l0.1-0.4v-0.3v-0.4l-0.1-0.4l-0.1-0.4
	v-0.1 M4.75,32.25l0.1,0.4v0.3l0.1,0.4l0.2,0.4l0.2,0.3l0.3,0.4l0.2,0.3l0.4,0.3l0.3,0.3l0.4,0.3l0.5,0.3 M7.45,35.95l0.4,0.2
	l0.5,0.3l0.6,0.2l0.5,0.2l0.6,0.1l0.6,0.2l0.6,0.1l0.6,0.1h0.7l0.6,0.1h0.6h0.7l0.6-0.1h0.7l0.6-0.1l0.6-0.1l0.6-0.2l0.6-0.1
	l0.5-0.2l0.5-0.2l0.5-0.3l0.5-0.2l0.4-0.3l0.4-0.3l0.4-0.3l0.3-0.3l0.3-0.3l0.3-0.4l0.2-0.3l0.1-0.4l0.1-0.4l0.1-0.3v-0.4
	 M5.05,30.55l-0.1,0.1l-0.1,0.4v0.3l-0.1,0.4l0.1,0.4v0.4l0.1,0.3l0.2,0.4l0.2,0.3l0.3,0.4l0.2,0.3l0.4,0.3l0.3,0.3l0.4,0.3l0.5,0.3
	 M7.45,35.45l0.4,0.2l0.5,0.3l0.6,0.2l0.5,0.2l0.6,0.1l0.6,0.2l0.6,0.1l0.6,0.1l0.7,0.1h0.6h0.6h0.7h0.6l0.7-0.1l0.6-0.1l0.6-0.1
	l0.6-0.2l0.6-0.1l0.5-0.2l0.5-0.2l0.5-0.3l0.5-0.2l0.4-0.3l0.4-0.3l0.4-0.3l0.3-0.3l0.3-0.3l0.3-0.4l0.2-0.3l0.1-0.4l0.1-0.3
	l0.1-0.4v-0.4v-0.4l-0.1-0.3l-0.1-0.4v-0.1 M4.75,29.35l0.1,0.3v0.4l0.1,0.4l0.2,0.3l0.2,0.4l0.3,0.3l0.2,0.4l0.4,0.3l0.3,0.3
	l0.4,0.3l0.5,0.2 M7.45,32.95l0.4,0.3l0.5,0.2l0.6,0.2l0.5,0.2l0.6,0.2l0.6,0.1l0.6,0.1l0.6,0.1l0.7,0.1h0.6l0.6,0.1l0.7-0.1h0.6
	l0.7-0.1l0.6-0.1l0.6-0.1l0.6-0.1l0.6-0.2l0.5-0.2l0.5-0.2l0.5-0.2l0.5-0.3l0.4-0.2l0.4-0.3l0.4-0.3l0.3-0.3l0.3-0.4l0.3-0.3
	l0.2-0.4l0.1-0.3l0.1-0.4l0.1-0.4v-0.3 M5.05,27.65l-0.1,0.1l-0.1,0.3v0.4l-0.1,0.4l0.1,0.3v0.4l0.1,0.4l0.2,0.3l0.2,0.4l0.3,0.3
	l0.2,0.4l0.4,0.3l0.3,0.3l0.4,0.3l0.5,0.2 M7.45,32.45l0.4,0.3l0.5,0.2l0.6,0.2l0.5,0.2l0.6,0.2l0.6,0.1l0.6,0.2l0.6,0.1h0.7
	l0.6,0.1h0.6h0.7l0.6-0.1h0.7l0.6-0.1l0.6-0.2l0.6-0.1l0.6-0.2l0.5-0.2l0.5-0.2l0.5-0.2l0.5-0.3l0.4-0.2l0.4-0.3l0.4-0.3l0.3-0.3
	l0.3-0.4l0.3-0.3l0.2-0.4l0.1-0.3l0.1-0.4l0.1-0.4v-0.3v-0.4l-0.1-0.4l-0.1-0.3v-0.1 M5.05,27.65l0.1,0.2l0.2,0.3l0.3,0.4l0.2,0.3
	l0.4,0.3l0.3,0.3l0.4,0.3l0.5,0.3 M7.45,30.05l0.4,0.3l0.5,0.2l0.6,0.2l0.5,0.2l0.6,0.2l0.6,0.1l0.6,0.1l0.6,0.1l0.7,0.1h0.6h0.6
	h0.7h0.6l0.7-0.1l0.6-0.1l0.6-0.1l0.6-0.1l0.6-0.2l0.5-0.2l0.5-0.2l0.5-0.2l0.5-0.3l0.4-0.3l0.4-0.3l0.4-0.3l0.3-0.3l0.3-0.3
	l0.3-0.4l0.2-0.3l0.1-0.2 M15.55,10.35l-3.8-0.6 M17.15,10.55l-1.6-0.2 M5.45,27.85l0.2,0.2l0.2,0.3l0.4,0.3l0.3,0.3l0.4,0.3
	l0.5,0.3 M7.45,29.55l0.4,0.3l0.5,0.2l0.6,0.2l0.5,0.2l0.6,0.2l0.6,0.1l0.6,0.1l0.6,0.1l0.7,0.1h0.6h0.6h0.7h0.6l0.7-0.1l0.6-0.1
	l0.6-0.1l0.6-0.1l0.6-0.2l0.5-0.2l0.5-0.2l0.5-0.2l0.5-0.3l0.4-0.3l0.4-0.3l0.4-0.3l0.3-0.3l0.3-0.3l0.2-0.2 M11.75,9.75l-1.4,0.8
	 M11.75,9.75v-7.1 M19.35,9.35v-5.5 M17.05,10.65l-0.4-0.1l-0.6-0.1l-0.5-0.1 M15.55,10.35l-0.6-0.1l-0.6-0.1h-0.6h-0.5l-0.6,0.1
	l-0.6,0.1l-0.6,0.1l-0.5,0.1h-0.2 M19.35,3.85l2,4.3 M15.85,11.35l5.5-3.2 M15.85,11.35l-7.6-1.1 M8.25,10.25l-2-4.4 M11.75,2.65
	l-5.5,3.2 M19.35,3.85l-7.6-1.2 M0.25,21.75v0.2l0.1,0.4l0.1,0.5l0.1,0.4l0.2,0.5l0.2,0.4l0.3,0.4l0.3,0.5l0.4,0.4l0.4,0.4l0.4,0.3
	l0.5,0.4l0.5,0.4l0.5,0.3l0.6,0.3l0.6,0.3l0.6,0.3l0.7,0.2l0.6,0.2l0.7,0.2l0.8,0.2l0.7,0.2l0.7,0.1l0.8,0.1l0.8,0.1h0.8l0.7,0.1
	h0.8l0.8-0.1h0.8l0.8-0.1l0.7-0.1l0.8-0.1l0.7-0.2l0.7-0.2l0.7-0.2l0.7-0.2l0.7-0.2l0.6-0.3l0.6-0.3l0.6-0.3 M23.35,27.25l0.5-0.3
	l0.5-0.4l0.5-0.4l0.4-0.3l0.4-0.4l0.4-0.4l0.3-0.5l0.3-0.4l0.2-0.4l0.2-0.5l0.1-0.4l0.1-0.5v-0.4v-0.2 M4.25,2.95l-0.5,0.4l-0.5,0.3
	l-0.5,0.4l-0.4,0.4l-0.4,0.3l-0.4,0.4l-0.3,0.5l-0.3,0.4l-0.2,0.4l-0.2,0.5l-0.1,0.4l-0.1,0.5l-0.1,0.4v0.5l0.1,0.4l0.1,0.5l0.1,0.4
	l0.2,0.5l0.2,0.4l0.3,0.4l0.3,0.4l0.4,0.4l0.4,0.4l0.4,0.4l0.5,0.4l0.5,0.3l0.5,0.4l0.6,0.3l0.6,0.3l0.6,0.2l0.7,0.3l0.6,0.2
	l0.7,0.2l0.8,0.2l0.7,0.1l0.7,0.2l0.8,0.1l0.8,0.1h0.8h0.7h0.8h0.8h0.8l0.8-0.1l0.7-0.1l0.8-0.2l0.7-0.1l0.7-0.2l0.7-0.2l0.7-0.2
	l0.7-0.3l0.6-0.2l0.6-0.3l0.6-0.3 M23.35,14.05l0.5-0.4l0.5-0.3l0.5-0.4l0.4-0.4l0.4-0.4l0.4-0.4l0.3-0.4l0.3-0.4l0.2-0.4l0.2-0.5
	l0.1-0.4l0.1-0.5v-0.4v-0.5v-0.4l-0.1-0.5l-0.1-0.4l-0.2-0.5l-0.2-0.4l-0.3-0.4l-0.3-0.5l-0.4-0.4l-0.4-0.3l-0.4-0.4l-0.5-0.4
	l-0.5-0.3l-0.5-0.4 M22.05,11.75l0.5-0.3l0.5-0.3l0.4-0.3l0.4-0.4l0.3-0.3l0.4-0.4l0.2-0.4l0.3-0.4l0.1-0.4l0.2-0.4l0.1-0.4v-0.5
	v-0.4v-0.4l-0.1-0.4l-0.1-0.4l-0.2-0.4l-0.2-0.4l-0.3-0.4l-0.3-0.4l-0.3-0.4l-0.4-0.3l-0.4-0.4l-0.5-0.3l-0.5-0.3l-0.5-0.3l-0.5-0.3
	l-0.6-0.2l-0.6-0.3l-0.7-0.2l-0.6-0.2l-0.7-0.1l-0.7-0.2l-0.7-0.1l-0.7-0.1h-0.7l-0.7-0.1h-0.8h-0.7l-0.7,0.1h-0.7l-0.7,0.1
	l-0.7,0.2l-0.7,0.1l-0.7,0.2l-0.6,0.2l-0.7,0.2l-0.6,0.2l-0.5,0.3l-0.6,0.3l-0.5,0.2l-0.5,0.4l-0.4,0.3l-0.4,0.3l-0.4,0.4l-0.3,0.4
	l-0.3,0.4l-0.3,0.4l-0.2,0.4l-0.1,0.4l-0.2,0.4v0.4l-0.1,0.4l0.1,0.4v0.5l0.1,0.4l0.2,0.4l0.2,0.4l0.2,0.4l0.3,0.4l0.3,0.4l0.4,0.3
	l0.4,0.4l0.4,0.3l0.5,0.3l0.5,0.3l0.5,0.3l0.6,0.3l0.6,0.2l0.6,0.2l0.7,0.2l0.6,0.2l0.7,0.2l0.7,0.1l0.7,0.1l0.7,0.1h0.7h0.8h0.7
	h0.7l0.7-0.1h0.8l0.7-0.2l0.7-0.1l0.6-0.1l0.7-0.2l0.6-0.2l0.6-0.2l0.6-0.3l0.6-0.3L22.05,11.75 M18.65,53.95l1.5-0.9 M7.45,53.05
	l1.5,0.9 M22.75,46.95v-0.5 M4.75,46.45v0.5 M22.75,44.05v-0.5 M4.75,43.55v0.5 M22.75,41.05v-0.5 M4.75,40.55v0.5 M22.75,38.15
	v-0.5 M4.75,37.65v0.5 M22.75,35.15v-0.4 M4.75,34.75v0.4 M22.75,32.25v-0.5 M4.75,31.75v0.5 M22.75,29.35v-0.5 M4.75,28.85v0.5
	 M27.25,21.75V8.45 M0.25,8.45v13.3 M5.55,2.25l-1.3,0.7 M23.35,2.95l-1.3-0.7"/>
</svg>
