<?xml version="1.0" encoding="utf-8"?>
<!-- Generator: Adobe Illustrator 19.0.0, SVG Export Plug-In . SVG Version: 6.00 Build 0)  -->
<svg version="1.0" id="Layer_1" xmlns="http://www.w3.org/2000/svg" xmlns:xlink="http://www.w3.org/1999/xlink" x="0px" y="0px"
	 width="13.3px" height="20.7px" viewBox="0 0 13.3 20.7" enable-background="new 0 0 13.3 20.7" xml:space="preserve">
<g>
	
		<path fill="none" stroke="#000000" stroke-width="0.25" stroke-linecap="round" stroke-linejoin="round" stroke-miterlimit="10" d="
		M13.05,4.05v0.2v0.2l-0.1,0.2v0.2l-0.1,0.1l-0.1,0.2l-0.1,0.2l-0.1,0.2l-0.2,0.2l-0.2,0.1l-0.1,0.2l-0.2,0.2l-0.2,0.1l-0.2,0.2
		l-0.3,0.1 M11.15,6.65l-0.2,0.1l-0.3,0.2l-0.2,0.1l-0.3,0.1l-0.3,0.1l-0.3,0.1l-0.3,0.1h-0.3l-0.3,0.1l-0.4,0.1h-0.3h-0.3l-0.4,0.1
		h-0.3h-0.3h-0.4h-0.3l-0.3-0.1h-0.4h-0.3l-0.3-0.1l-0.3-0.1h-0.3l-0.3-0.1l-0.3-0.1l-0.3-0.1l-0.3-0.1l-0.3-0.2l-0.2-0.1l-0.3-0.1
		l-0.2-0.2l-0.2-0.1l-0.2-0.2l-0.2-0.1l-0.2-0.2l-0.1-0.2l-0.2-0.2l-0.1-0.1l-0.1-0.2l-0.1-0.2v-0.2l-0.1-0.2v-0.2l-0.1-0.2v-0.1
		 M10.95,6.25l0.2-0.2l0.2-0.1l0.2-0.2l0.2-0.1l0.2-0.2l0.1-0.1l0.1-0.2l0.2-0.2l0.1-0.2l0.1-0.1v-0.2l0.1-0.2v-0.2v-0.2v-0.2v-0.2
		v-0.2l-0.1-0.1v-0.2l-0.1-0.2l-0.1-0.2l-0.2-0.2l-0.1-0.1l-0.1-0.2l-0.2-0.2l-0.2-0.1l-0.2-0.2l-0.2-0.1l-0.2-0.1l-0.3-0.2
		l-0.2-0.1l-0.3-0.1l-0.2-0.1l-0.3-0.1l-0.3-0.1l-0.3-0.1h-0.3l-0.3-0.1l-0.3-0.1h-0.3h-0.4h-0.3l-0.3-0.1h-0.3l-0.4,0.1h-0.3h-0.3
		h-0.3l-0.4,0.1l-0.3,0.1h-0.3l-0.3,0.1l-0.2,0.1l-0.3,0.1l-0.3,0.1l-0.3,0.1l-0.2,0.1l-0.2,0.2l-0.3,0.1l-0.2,0.1l-0.2,0.2
		l-0.2,0.1l-0.1,0.2l-0.2,0.2l-0.1,0.1l-0.1,0.2l-0.1,0.2l-0.1,0.2l-0.1,0.2l-0.1,0.1v0.2v0.2v0.2v0.2v0.2l0.1,0.2l0.1,0.2l0.1,0.1
		l0.1,0.2l0.1,0.2l0.1,0.2l0.2,0.1l0.1,0.2l0.2,0.1l0.2,0.2l0.2,0.1l0.3,0.2l0.2,0.1l0.2,0.1l0.3,0.1l0.3,0.1l0.3,0.1l0.2,0.1
		l0.3,0.1l0.3,0.1h0.3l0.4,0.1h0.3l0.3,0.1h0.3h0.4h0.3h0.3h0.3l0.4-0.1h0.3l0.3-0.1h0.3l0.3-0.1l0.3-0.1l0.3-0.1l0.3-0.1l0.2-0.1
		l0.3-0.1l0.2-0.1L10.95,6.25"/>
	<path fill="none" stroke="#000000" stroke-width="0.5" stroke-linecap="round" stroke-linejoin="round" stroke-miterlimit="10" d="
		M4.65,19.95l0.1,0.1l0.2,0.1h0.2l0.2,0.1l0.2,0.1h0.2h0.2l0.2,0.1h0.3h0.2h0.2h0.2l0.3-0.1h0.2h0.2l0.2-0.1h0.2l0.2-0.1l0.1-0.1
		l0.2-0.1 M3.15,18.25L3.15,18.25v0.2v0.1l0.1,0.2v0.1l0.1,0.1l0.1,0.2l0.1,0.1l0.2,0.1l0.1,0.1l0.2,0.1l0.2,0.1l0.1,0.1l0.2,0.1
		l0.2,0.1l0.3,0.1h0.2l0.2,0.1h0.3l0.2,0.1h0.2h0.3h0.2h0.3h0.2h0.3l0.2-0.1h0.3l0.2-0.1h0.2l0.2-0.1l0.2-0.1l0.2-0.1l0.2-0.1
		 M9.15,19.65l0.2-0.1l0.1-0.1l0.2-0.1l0.1-0.1l0.1-0.2l0.1-0.1l0.1-0.1l0.1-0.2v-0.1v-0.2l0.1-0.1 M3.15,17.75v0.2v0.1v0.2v0.1v0.2
		l0.1,0.1v0.1l0.1,0.2l0.1,0.1l0.1,0.1l0.1,0.2l0.2,0.1l0.1,0.1l0.2,0.1 M4.15,19.65l0.2,0.1l0.2,0.1l0.2,0.1h0.2l0.2,0.1l0.3,0.1
		h0.2h0.2l0.3,0.1h0.2h0.3h0.2h0.3h0.2l0.3-0.1h0.2l0.2-0.1h0.3l0.2-0.1l0.2-0.1l0.2-0.1l0.2-0.1l0.2-0.1l0.1-0.1l0.2-0.1l0.1-0.1
		l0.1-0.2l0.1-0.1l0.1-0.1l0.1-0.2v-0.1v-0.2l0.1-0.1v-0.1l-0.1-0.2v-0.1v-0.1 M3.15,17.35L3.15,17.35v0.2v0.1l0.1,0.2v0.1l0.1,0.2
		l0.1,0.1l0.1,0.1l0.1,0.1l0.2,0.2l0.1,0.1l0.2,0.1 M4.15,18.85l0.2,0.1l0.2,0.1h0.2l0.2,0.1l0.2,0.1h0.3l0.2,0.1h0.2l0.3,0.1h0.2
		h0.3h0.2h0.3l0.2-0.1h0.3h0.2l0.2-0.1l0.3-0.1h0.2l0.2-0.1l0.2-0.1l0.2-0.1l0.2-0.1l0.1-0.1l0.2-0.1l0.1-0.2l0.1-0.1l0.1-0.1
		l0.1-0.1l0.1-0.2v-0.1v-0.2l0.1-0.1v-0.1 M3.15,16.75v0.2v0.1v0.1v0.2v0.1l0.1,0.2v0.1l0.1,0.2l0.1,0.1l0.1,0.1l0.1,0.1l0.2,0.2
		l0.1,0.1l0.2,0.1 M4.15,18.65l0.2,0.1l0.2,0.1h0.2l0.2,0.1l0.2,0.1h0.3l0.2,0.1h0.2l0.3,0.1h0.2h0.3h0.2h0.3l0.2-0.1h0.3h0.2
		l0.2-0.1l0.3-0.1h0.2l0.2-0.1l0.2-0.1l0.2-0.1l0.2-0.1l0.1-0.1l0.2-0.1l0.1-0.2l0.1-0.1l0.1-0.1l0.1-0.2l0.1-0.1v-0.1v-0.2l0.1-0.1
		v-0.2l-0.1-0.1v-0.1v-0.1 M3.15,16.35L3.15,16.35v0.2v0.1l0.1,0.2v0.1l0.1,0.1l0.1,0.2l0.1,0.1l0.1,0.1l0.2,0.1l0.1,0.1l0.2,0.2
		 M4.15,17.85l0.2,0.1h0.2l0.2,0.1l0.2,0.1l0.2,0.1h0.3l0.2,0.1h0.2h0.3h0.2l0.3,0.1l0.2-0.1h0.3h0.2h0.3l0.2-0.1h0.2l0.3-0.1
		l0.2-0.1h0.2l0.2-0.1l0.2-0.1l0.2-0.1l0.1-0.1l0.2-0.2l0.1-0.1l0.1-0.1l0.1-0.1l0.1-0.2l0.1-0.1v-0.2v-0.1l0.1-0.1v-0.1
		 M3.15,15.75v0.1v0.2v0.1v0.2v0.1l0.1,0.2v0.1l0.1,0.1l0.1,0.2l0.1,0.1l0.1,0.1l0.2,0.1l0.1,0.1l0.2,0.2 M4.15,17.65l0.2,0.1h0.2
		l0.2,0.1l0.2,0.1l0.2,0.1h0.3l0.2,0.1h0.2h0.3h0.2l0.3,0.1l0.2-0.1h0.3h0.2h0.3l0.2-0.1h0.2l0.3-0.1l0.2-0.1h0.2l0.2-0.1l0.2-0.1
		l0.2-0.1l0.1-0.1l0.2-0.2l0.1-0.1l0.1-0.1l0.1-0.1l0.1-0.2l0.1-0.1v-0.2v-0.1l0.1-0.1v-0.2l-0.1-0.1v-0.2 M3.15,15.35L3.15,15.35
		v0.1v0.2l0.1,0.1v0.2l0.1,0.1l0.1,0.1l0.1,0.2l0.1,0.1l0.2,0.1l0.1,0.1l0.2,0.1 M4.15,16.75l0.2,0.1l0.2,0.1l0.2,0.1l0.2,0.1h0.2
		l0.3,0.1h0.2l0.2,0.1h0.3h0.2h0.3h0.2h0.3h0.2h0.3l0.2-0.1h0.2l0.3-0.1l0.2-0.1l0.2-0.1h0.2l0.2-0.1l0.2-0.1l0.1-0.2l0.2-0.1
		l0.1-0.1l0.1-0.1l0.1-0.2l0.1-0.1l0.1-0.1v-0.2v-0.1l0.1-0.2 M3.15,14.75v0.1v0.2v0.1v0.1v0.2l0.1,0.1v0.2l0.1,0.1l0.1,0.1l0.1,0.2
		l0.1,0.1l0.2,0.1l0.1,0.1l0.2,0.1 M4.15,16.55l0.2,0.1l0.2,0.1l0.2,0.1l0.2,0.1h0.2l0.3,0.1h0.2l0.2,0.1h0.3h0.2h0.3h0.2h0.3h0.2
		h0.3l0.2-0.1h0.2l0.3-0.1l0.2-0.1l0.2-0.1h0.2l0.2-0.1l0.2-0.1l0.1-0.2l0.2-0.1l0.1-0.1l0.1-0.1l0.1-0.2l0.1-0.1l0.1-0.1v-0.2v-0.1
		l0.1-0.2v-0.1l-0.1-0.2v-0.1 M3.15,14.35L3.15,14.35v0.1v0.2l0.1,0.1v0.1l0.1,0.2l0.1,0.1l0.1,0.1l0.1,0.2l0.2,0.1l0.1,0.1l0.2,0.1
		 M4.15,15.75l0.2,0.1l0.2,0.1l0.2,0.1l0.2,0.1h0.2l0.3,0.1h0.2l0.2,0.1h0.3h0.2h0.3h0.2h0.3h0.2l0.3-0.1h0.2l0.2-0.1h0.3l0.2-0.1
		l0.2-0.1l0.2-0.1l0.2-0.1l0.2-0.1l0.1-0.1l0.2-0.1l0.1-0.1l0.1-0.1l0.1-0.2l0.1-0.1l0.1-0.2v-0.1v-0.1l0.1-0.2 M3.15,13.75v0.1v0.1
		v0.2v0.1v0.2l0.1,0.1v0.1l0.1,0.2l0.1,0.1l0.1,0.1l0.1,0.2l0.2,0.1l0.1,0.1l0.2,0.1 M4.15,15.55l0.2,0.1l0.2,0.1l0.2,0.1l0.2,0.1
		h0.2l0.3,0.1h0.2l0.2,0.1h0.3h0.2h0.3h0.2h0.3h0.2l0.3-0.1h0.2l0.2-0.1h0.3l0.2-0.1l0.2-0.1l0.2-0.1l0.2-0.1l0.2-0.1l0.1-0.1
		l0.2-0.1l0.1-0.1l0.1-0.1l0.1-0.2l0.1-0.1l0.1-0.2v-0.1v-0.1l0.1-0.2v-0.1l-0.1-0.2v-0.1 M3.15,13.25v0.1v0.1v0.1l0.1,0.2v0.1
		l0.1,0.2l0.1,0.1l0.1,0.1l0.1,0.1l0.2,0.2l0.1,0.1l0.2,0.1 M4.15,14.75l0.2,0.1l0.2,0.1l0.2,0.1h0.2l0.2,0.1l0.3,0.1h0.2h0.2
		l0.3,0.1h0.2h0.3h0.2h0.3l0.2-0.1h0.3h0.2l0.2-0.1l0.3-0.1h0.2l0.2-0.1l0.2-0.1l0.2-0.1l0.2-0.1l0.1-0.1l0.2-0.1l0.1-0.1l0.1-0.2
		l0.1-0.1l0.1-0.1l0.1-0.2v-0.1v-0.2l0.1-0.1v-0.1 M3.15,12.65v0.2v0.1v0.2v0.1v0.1l0.1,0.2v0.1l0.1,0.2l0.1,0.1l0.1,0.1l0.1,0.1
		l0.2,0.2l0.1,0.1l0.2,0.1 M4.15,14.55l0.2,0.1l0.2,0.1l0.2,0.1h0.2l0.2,0.1l0.3,0.1h0.2h0.2l0.3,0.1h0.2h0.3h0.2h0.3l0.2-0.1h0.3
		h0.2l0.2-0.1l0.3-0.1h0.2l0.2-0.1l0.2-0.1l0.2-0.1l0.2-0.1l0.1-0.1l0.2-0.1l0.1-0.1l0.1-0.2l0.1-0.1l0.1-0.1l0.1-0.2v-0.1v-0.2
		l0.1-0.1v-0.2l-0.1-0.1v-0.1v-0.1 M7.45,4.65l-1.6-0.2 M8.75,4.95l-1.3-0.3 M4.65,5.15h-0.1 M5.85,4.45l-1.2,0.7 M5.85,4.45v-2.5
		 M3.15,12.65l0.1,0.1v0.1l0.1,0.1l0.1,0.2l0.1,0.1l0.1,0.1l0.2,0.1l0.1,0.2l0.2,0.1 M4.15,13.75l0.2,0.1l0.2,0.1h0.2l0.2,0.1
		l0.2,0.1h0.3l0.2,0.1h0.2h0.3l0.2,0.1h0.3h0.2l0.3-0.1h0.2h0.3l0.2-0.1h0.2l0.3-0.1h0.2l0.2-0.1l0.2-0.1l0.2-0.1l0.2-0.1l0.1-0.1
		l0.2-0.1l0.1-0.2l0.1-0.1l0.1-0.1l0.1-0.2l0.1-0.1v-0.1 M9.05,4.75v-2.3 M8.55,5.05l-0.1-0.1h-0.2l-0.2-0.1l-0.2-0.1h-0.2l-0.2-0.1
		 M7.45,4.65h-0.3h-0.2h-0.2h-0.3h-0.2h-0.2l-0.2,0.1h-0.3l-0.2,0.1h-0.2l-0.2,0.1l-0.2,0.1l-0.1,0.1 M4.65,5.15h-0.1 M9.05,2.45
		l0.8,1.8 M7.55,5.65l2.3-1.4 M7.55,5.65l-3.2-0.5 M4.35,5.15l-0.9-1.9 M5.85,1.95l-2.4,1.3 M9.05,2.45l-3.2-0.5 M0.25,9.55v0.1
		l0.1,0.2v0.2l0.1,0.2v0.2l0.1,0.2l0.1,0.2l0.1,0.1l0.2,0.2l0.1,0.2l0.2,0.2l0.2,0.1l0.2,0.2l0.2,0.1l0.2,0.2l0.3,0.1l0.2,0.1
		l0.3,0.2l0.3,0.1l0.3,0.1l0.3,0.1l0.3,0.1h0.3l0.3,0.1l0.3,0.1h0.3h0.4l0.3,0.1h0.3h0.4h0.3h0.3l0.4-0.1h0.3h0.3l0.4-0.1l0.3-0.1
		h0.3l0.3-0.1l0.3-0.1l0.3-0.1l0.3-0.1l0.2-0.1l0.3-0.2l0.2-0.1 M11.15,12.15l0.3-0.1l0.2-0.2l0.2-0.1l0.2-0.2l0.1-0.2l0.2-0.1
		l0.2-0.2l0.1-0.2l0.1-0.2l0.1-0.2l0.1-0.1v-0.2l0.1-0.2v-0.2v-0.2 M13.05,4.05L13.05,4.05 M0.25,4.05L0.25,4.05 M8.65,19.95
		l0.5-0.3 M4.15,19.65l0.5,0.3 M10.25,18.25L10.25,18.25 M3.15,18.25L3.15,18.25 M10.25,17.35v-0.2 M3.15,17.15v0.2 M10.25,16.35
		v-0.2 M3.15,16.15v0.2 M10.25,15.35v-0.2 M3.15,15.15v0.2 M10.25,14.35v-0.2 M3.15,14.15v0.2 M10.25,13.25v-0.2 M3.15,13.05v0.2
		 M13.05,9.55v-5.5 M0.25,4.05v5.5 M13.05,4.05v-0.1v-0.2l-0.1-0.2v-0.2l-0.1-0.2l-0.1-0.2l-0.1-0.2l-0.1-0.1l-0.1-0.2l-0.1-0.2
		l-0.2-0.2l-0.2-0.1l-0.2-0.2l-0.1-0.1l-0.3-0.2l-0.2-0.1l-0.2-0.2l-0.3-0.1l-0.2-0.1l-0.3-0.1l-0.2-0.1l-0.3-0.1l-0.3-0.1l-0.3-0.1
		h-0.3l-0.3-0.1h-0.3l-0.3-0.1h-0.3h-0.4h-0.3h-0.3h-0.3h-0.3h-0.3l-0.4,0.1h-0.3l-0.3,0.1h-0.3l-0.3,0.1l-0.2,0.1l-0.3,0.1
		l-0.3,0.1l-0.3,0.1l-0.2,0.1l-0.3,0.1l-0.2,0.1l-0.2,0.2l-0.3,0.1l-0.2,0.2l-0.1,0.1l-0.2,0.2l-0.2,0.2l-0.1,0.1l-0.2,0.2l-0.1,0.2
		l-0.1,0.2l-0.1,0.2v0.2l-0.1,0.1v0.2l-0.1,0.2v0.2"/>
</g>
</svg>
