<?xml version="1.0" encoding="utf-8"?>
<!-- Generator: Adobe Illustrator 19.0.0, SVG Export Plug-In . SVG Version: 6.00 Build 0)  -->
<svg version="1.0" id="Layer_1" xmlns="http://www.w3.org/2000/svg" xmlns:xlink="http://www.w3.org/1999/xlink" x="0px" y="0px"
	 width="13.3px" height="25.4px" viewBox="0 0 13.3 25.4" enable-background="new 0 0 13.3 25.4" xml:space="preserve">
<g>
	
		<path fill="none" stroke="#000000" stroke-width="0.25" stroke-linecap="round" stroke-linejoin="round" stroke-miterlimit="10" d="
		M13.05,4.05v0.2v0.2l-0.1,0.2l-0.1,0.2v0.2l-0.2,0.2l-0.1,0.2l-0.1,0.2l-0.2,0.2l-0.2,0.2l-0.2,0.2l-0.2,0.1l-0.2,0.2l-0.3,0.1
		 M11.15,6.65l-0.2,0.2l-0.3,0.1l-0.3,0.2l-0.3,0.1l-0.3,0.1l-0.4,0.1l-0.3,0.1h-0.3l-0.4,0.1h-0.3l-0.4,0.1h-0.4h-0.3h-0.4h-0.3
		h-0.4h-0.4l-0.3-0.1h-0.4l-0.3-0.1l-0.4-0.1l-0.3-0.1l-0.3-0.1l-0.3-0.1l-0.3-0.1l-0.3-0.1l-0.3-0.2l-0.2-0.1l-0.3-0.2l-0.2-0.2
		l-0.2-0.1l-0.2-0.2l-0.2-0.2l-0.1-0.2l-0.2-0.2l-0.1-0.2l-0.1-0.2l-0.1-0.2v-0.2l-0.1-0.2v-0.2v-0.1 M10.95,6.25l0.2-0.1l0.2-0.2
		l0.2-0.2l0.2-0.1l0.2-0.2l0.2-0.2l0.1-0.2l0.1-0.2l0.1-0.2l0.1-0.2l0.1-0.2v-0.2v-0.2v-0.2v-0.2v-0.2l-0.1-0.2l-0.1-0.2l-0.1-0.2
		l-0.1-0.2l-0.2-0.2l-0.1-0.1l-0.2-0.2l-0.2-0.2l-0.2-0.1l-0.2-0.2l-0.3-0.1l-0.3-0.2l-0.2-0.1l-0.3-0.1l-0.3-0.1l-0.3-0.1l-0.3-0.1
		l-0.4-0.1l-0.3-0.1h-0.3l-0.4-0.1h-0.3h-0.4h-0.3h-0.4h-0.4h-0.3l-0.4,0.1h-0.3l-0.3,0.1l-0.4,0.1h-0.3l-0.3,0.1l-0.3,0.1l-0.3,0.2
		l-0.3,0.1l-0.2,0.1l-0.3,0.2l-0.2,0.1l-0.2,0.2l-0.2,0.1l-0.2,0.2l-0.2,0.2l-0.1,0.2l-0.2,0.2l-0.1,0.2l-0.1,0.2v0.2l-0.1,0.2v0.2
		v0.2v0.2v0.2l0.1,0.2l0.1,0.2l0.1,0.2l0.1,0.2l0.1,0.2l0.2,0.2l0.1,0.1l0.2,0.2l0.2,0.2l0.2,0.1l0.3,0.2l0.2,0.1l0.3,0.2l0.3,0.1
		l0.3,0.1l0.3,0.1l0.3,0.1l0.3,0.1h0.4l0.3,0.1l0.3,0.1h0.4h0.3h0.4h0.3h0.4h0.3h0.4l0.3-0.1h0.4l0.3-0.1l0.3-0.1l0.4-0.1l0.3-0.1
		l0.3-0.1l0.2-0.1l0.3-0.1L10.95,6.25"/>
	<path fill="none" stroke="#000000" stroke-width="0.5" stroke-linecap="round" stroke-linejoin="round" stroke-miterlimit="10" d="
		M4.65,24.65h0.1l0.1,0.1l0.2,0.1l0.2,0.1h0.3l0.2,0.1h0.2h0.3l0.2,0.1h0.2h0.3l0.2-0.1h0.3h0.2l0.2-0.1l0.2-0.1h0.2l0.2-0.1
		l0.2-0.1 M10.15,22.55L10.15,22.55v0.2v0.1v0.2v0.1v0.2l-0.1,0.1l-0.1,0.2l-0.1,0.1l-0.1,0.2l-0.2,0.1l-0.1,0.1l-0.2,0.1l-0.2,0.1
		l-0.2,0.1l-0.2,0.1l-0.2,0.1l-0.3,0.1l-0.2,0.1h-0.3h-0.3l-0.2,0.1h-0.3h-0.3h-0.2h-0.3l-0.3-0.1h-0.2l-0.3-0.1h-0.2l-0.3-0.1
		l-0.2-0.1l-0.2-0.1l-0.2-0.1l-0.2-0.1l-0.1-0.1l-0.2-0.2l-0.1-0.1l-0.1-0.2l-0.1-0.1l-0.1-0.1l-0.1-0.2v-0.2v-0.1v-0.2v-0.1v-0.1
		 M3.15,22.05v0.1v0.1v0.2l0.1,0.1l0.1,0.2v0.1l0.2,0.2l0.1,0.1l0.1,0.1l0.2,0.2l0.2,0.1 M4.15,23.55l0.2,0.1l0.2,0.1l0.2,0.1
		l0.3,0.1h0.2l0.3,0.1h0.2l0.3,0.1h0.3h0.2h0.3h0.3l0.2-0.1h0.3l0.3-0.1h0.2l0.3-0.1l0.2-0.1l0.2-0.1l0.2-0.1l0.2-0.1l0.2-0.1
		l0.1-0.1l0.2-0.2l0.1-0.1l0.1-0.1l0.1-0.2l0.1-0.1v-0.2v-0.1l0.1-0.2 M3.15,21.55v0.1v0.2v0.1v0.2v0.1l0.1,0.2l0.1,0.1v0.2l0.2,0.1
		l0.1,0.2l0.1,0.1l0.2,0.1l0.2,0.1 M4.15,23.35l0.2,0.1l0.2,0.1l0.2,0.1l0.3,0.1l0.2,0.1h0.3l0.2,0.1h0.3h0.3h0.2h0.3h0.3h0.2
		l0.3-0.1h0.3l0.2-0.1h0.3l0.2-0.1l0.2-0.1l0.2-0.1l0.2-0.1l0.2-0.1l0.1-0.2l0.2-0.1l0.1-0.1l0.1-0.2l0.1-0.1l0.1-0.2v-0.1v-0.2
		l0.1-0.2l-0.1-0.1v-0.2 M3.15,21.15L3.15,21.15v0.2v0.1l0.1,0.2l0.1,0.1v0.2l0.2,0.1l0.1,0.1l0.1,0.2l0.2,0.1l0.2,0.1 M4.15,22.55
		l0.2,0.1l0.2,0.1l0.2,0.1l0.3,0.1h0.2l0.3,0.1h0.2l0.3,0.1h0.3h0.2h0.3h0.3h0.2l0.3-0.1h0.3l0.2-0.1l0.3-0.1h0.2l0.2-0.1l0.2-0.1
		l0.2-0.2l0.2-0.1l0.1-0.1l0.2-0.1l0.1-0.2l0.1-0.1l0.1-0.2l0.1-0.1v-0.2v-0.1l0.1-0.1 M3.15,20.55v0.1v0.2v0.1v0.2v0.2l0.1,0.1
		l0.1,0.2v0.1l0.2,0.1l0.1,0.2l0.1,0.1l0.2,0.1l0.2,0.1 M4.15,22.35l0.2,0.2l0.2,0.1h0.2l0.3,0.1l0.2,0.1h0.3l0.2,0.1h0.3h0.3h0.2
		h0.3h0.3h0.2h0.3l0.3-0.1h0.2l0.3-0.1l0.2-0.1l0.2-0.1l0.2-0.1l0.2-0.1l0.2-0.1l0.1-0.2l0.2-0.1l0.1-0.1l0.1-0.2l0.1-0.1l0.1-0.2
		v-0.1v-0.2l0.1-0.1l-0.1-0.2v-0.1v-0.1 M3.15,20.15L3.15,20.15v0.2v0.1l0.1,0.2l0.1,0.1v0.2l0.2,0.1l0.1,0.2l0.1,0.1l0.2,0.1
		l0.2,0.1 M4.15,21.55l0.2,0.1l0.2,0.1l0.2,0.1l0.3,0.1l0.2,0.1h0.3l0.2,0.1h0.3h0.3h0.2h0.3h0.3h0.2l0.3-0.1h0.3l0.2-0.1h0.3
		l0.2-0.1l0.2-0.1l0.2-0.1l0.2-0.1l0.2-0.1l0.1-0.2l0.2-0.1l0.1-0.1l0.1-0.2l0.1-0.1l0.1-0.2v-0.1v-0.2l0.1-0.1 M3.15,19.55v0.2v0.1
		v0.2v0.1v0.2l0.1,0.1l0.1,0.2v0.1l0.2,0.2l0.1,0.1l0.1,0.1l0.2,0.2l0.2,0.1 M4.15,21.45l0.2,0.1l0.2,0.1l0.2,0.1h0.3l0.2,0.1
		l0.3,0.1h0.2h0.3l0.3,0.1h0.2h0.3h0.3l0.2-0.1h0.3l0.3-0.1h0.2l0.3-0.1l0.2-0.1l0.2-0.1l0.2-0.1l0.2-0.1l0.2-0.1l0.1-0.1l0.2-0.2
		l0.1-0.1l0.1-0.1l0.1-0.2l0.1-0.1v-0.2v-0.2l0.1-0.1l-0.1-0.2v-0.1v-0.1 M3.15,19.15L3.15,19.15v0.2v0.2l0.1,0.1l0.1,0.2v0.1
		l0.2,0.1l0.1,0.2l0.1,0.1l0.2,0.1l0.2,0.1 M4.15,20.55l0.2,0.2l0.2,0.1h0.2l0.3,0.1l0.2,0.1h0.3l0.2,0.1h0.3h0.3h0.2h0.3h0.3h0.2
		h0.3l0.3-0.1h0.2l0.3-0.1l0.2-0.1l0.2-0.1l0.2-0.1l0.2-0.1l0.2-0.1l0.1-0.2l0.2-0.1l0.1-0.1l0.1-0.2l0.1-0.1l0.1-0.2v-0.1v-0.2
		l0.1-0.1 M3.15,18.55v0.2v0.1v0.2v0.1v0.2l0.1,0.2l0.1,0.1v0.1l0.2,0.2l0.1,0.1l0.1,0.2l0.2,0.1l0.2,0.1 M4.15,20.45l0.2,0.1
		l0.2,0.1l0.2,0.1l0.3,0.1h0.2l0.3,0.1h0.2l0.3,0.1h0.3h0.2h0.3h0.3l0.2-0.1h0.3h0.3l0.2-0.1l0.3-0.1l0.2-0.1l0.2-0.1l0.2-0.1
		l0.2-0.1l0.2-0.1l0.1-0.1l0.2-0.1l0.1-0.2l0.1-0.1l0.1-0.2l0.1-0.1v-0.2v-0.1l0.1-0.2l-0.1-0.1v-0.2v-0.1 M3.15,18.15v0.1v0.1v0.2
		l0.1,0.1l0.1,0.2v0.1l0.2,0.2l0.1,0.1l0.1,0.1l0.2,0.2l0.2,0.1 M4.15,19.65l0.2,0.1l0.2,0.1l0.2,0.1h0.3l0.2,0.1l0.3,0.1h0.2h0.3
		l0.3,0.1h0.2h0.3h0.3l0.2-0.1h0.3l0.3-0.1h0.2l0.3-0.1l0.2-0.1l0.2-0.1l0.2-0.1l0.2-0.1l0.2-0.1l0.1-0.1l0.2-0.2l0.1-0.1l0.1-0.1
		l0.1-0.2l0.1-0.1v-0.2v-0.2l0.1-0.1 M3.15,17.65v0.1v0.2v0.1v0.2v0.1l0.1,0.2l0.1,0.1v0.2l0.2,0.1l0.1,0.1l0.1,0.2l0.2,0.1l0.2,0.1
		 M4.15,19.45l0.2,0.1l0.2,0.1l0.2,0.1l0.3,0.1h0.2l0.3,0.1l0.2,0.1h0.3h0.3h0.2h0.3h0.3h0.2l0.3-0.1h0.3l0.2-0.1l0.3-0.1h0.2
		l0.2-0.1l0.2-0.1l0.2-0.1l0.2-0.2l0.1-0.1l0.2-0.1l0.1-0.2l0.1-0.1l0.1-0.2l0.1-0.1v-0.2v-0.1l0.1-0.2l-0.1-0.1v-0.2 M3.15,17.15
		v0.1v0.1v0.2l0.1,0.2l0.1,0.1v0.1l0.2,0.2l0.1,0.1l0.1,0.2l0.2,0.1l0.2,0.1 M4.15,18.65l0.2,0.1l0.2,0.1l0.2,0.1l0.3,0.1h0.2
		l0.3,0.1h0.2l0.3,0.1h0.3h0.2h0.3h0.3l0.2-0.1h0.3h0.3l0.2-0.1l0.3-0.1l0.2-0.1l0.2-0.1l0.2-0.1l0.2-0.1l0.2-0.1l0.1-0.1l0.2-0.1
		l0.1-0.2l0.1-0.1l0.1-0.2l0.1-0.1v-0.2v-0.1l0.1-0.2 M3.15,16.65v0.1v0.2v0.1v0.2v0.1l0.1,0.2l0.1,0.1v0.2l0.2,0.1l0.1,0.2l0.1,0.1
		l0.2,0.1l0.2,0.1 M4.15,18.45l0.2,0.1l0.2,0.1l0.2,0.1l0.3,0.1l0.2,0.1h0.3l0.2,0.1h0.3h0.3h0.2h0.3h0.3h0.2h0.3l0.3-0.1l0.2-0.1
		h0.3l0.2-0.1l0.2-0.1l0.2-0.1l0.2-0.1l0.2-0.1l0.1-0.2l0.2-0.1l0.1-0.1l0.1-0.2l0.1-0.1l0.1-0.2v-0.1v-0.2l0.1-0.2l-0.1-0.1v-0.2
		 M3.15,16.25L3.15,16.25v0.2v0.1l0.1,0.2l0.1,0.1v0.2l0.2,0.1l0.1,0.1l0.1,0.2l0.2,0.1l0.2,0.1 M4.15,17.65l0.2,0.1l0.2,0.1
		l0.2,0.1l0.3,0.1h0.2l0.3,0.1h0.2l0.3,0.1h0.3h0.2h0.3h0.3h0.2l0.3-0.1h0.3l0.2-0.1l0.3-0.1h0.2l0.2-0.1l0.2-0.1l0.2-0.1l0.2-0.2
		l0.1-0.1l0.2-0.1l0.1-0.2l0.1-0.1l0.1-0.2l0.1-0.1v-0.2v-0.1l0.1-0.1 M3.15,15.65v0.1v0.2v0.1v0.2v0.2l0.1,0.1l0.1,0.2v0.1l0.2,0.2
		l0.1,0.1l0.1,0.1l0.2,0.1l0.2,0.2 M4.15,17.55l0.2,0.1l0.2,0.1h0.2l0.3,0.1l0.2,0.1h0.3l0.2,0.1h0.3h0.3l0.2,0.1h0.3l0.3-0.1h0.2
		h0.3l0.3-0.1h0.2l0.3-0.1l0.2-0.1l0.2-0.1l0.2-0.1l0.2-0.1l0.2-0.1l0.1-0.1l0.2-0.2l0.1-0.1l0.1-0.2l0.1-0.1l0.1-0.2v-0.1v-0.2
		l0.1-0.1l-0.1-0.2v-0.1v-0.1 M3.15,15.25L3.15,15.25v0.2v0.1l0.1,0.2l0.1,0.1v0.2l0.2,0.1l0.1,0.2l0.1,0.1l0.2,0.1l0.2,0.1
		 M4.15,16.65l0.2,0.1l0.2,0.1l0.2,0.1l0.3,0.1l0.2,0.1h0.3l0.2,0.1h0.3h0.3h0.2h0.3h0.3h0.2h0.3l0.3-0.1l0.2-0.1h0.3l0.2-0.1
		l0.2-0.1l0.2-0.1l0.2-0.1l0.2-0.1l0.1-0.2l0.2-0.1l0.1-0.1l0.1-0.2l0.1-0.1l0.1-0.2v-0.1v-0.2l0.1-0.1 M3.15,14.65v0.2v0.1v0.2v0.1
		v0.2l0.1,0.1l0.1,0.2v0.1l0.2,0.2l0.1,0.1l0.1,0.1l0.2,0.2l0.2,0.1 M4.15,16.55l0.2,0.1l0.2,0.1l0.2,0.1h0.3l0.2,0.1l0.3,0.1h0.2
		h0.3l0.3,0.1h0.2h0.3h0.3l0.2-0.1h0.3l0.3-0.1h0.2l0.3-0.1l0.2-0.1l0.2-0.1l0.2-0.1l0.2-0.1l0.2-0.1l0.1-0.1l0.2-0.2l0.1-0.1
		l0.1-0.1l0.1-0.2l0.1-0.1v-0.2v-0.2l0.1-0.1l-0.1-0.2v-0.1v-0.1 M3.15,14.25L3.15,14.25v0.2v0.2l0.1,0.1l0.1,0.2v0.1l0.2,0.2
		l0.1,0.1l0.1,0.1l0.2,0.1l0.2,0.2 M4.15,15.75l0.2,0.1l0.2,0.1h0.2l0.3,0.1l0.2,0.1h0.3l0.2,0.1h0.3h0.3l0.2,0.1h0.3l0.3-0.1h0.2
		h0.3l0.3-0.1h0.2l0.3-0.1l0.2-0.1l0.2-0.1l0.2-0.1l0.2-0.1l0.2-0.1l0.1-0.1l0.2-0.2l0.1-0.1l0.1-0.2l0.1-0.1l0.1-0.2v-0.1v-0.2
		l0.1-0.1 M3.15,13.65v0.2v0.1v0.2v0.1v0.2l0.1,0.2l0.1,0.1v0.2l0.2,0.1l0.1,0.1l0.1,0.2l0.2,0.1l0.2,0.1 M4.15,15.55l0.2,0.1
		l0.2,0.1l0.2,0.1l0.3,0.1h0.2l0.3,0.1h0.2l0.3,0.1h0.3h0.2h0.3h0.3h0.2l0.3-0.1h0.3l0.2-0.1l0.3-0.1l0.2-0.1h0.2l0.2-0.1l0.2-0.2
		l0.2-0.1l0.1-0.1l0.2-0.1l0.1-0.2l0.1-0.1l0.1-0.2l0.1-0.1v-0.2v-0.1l0.1-0.2l-0.1-0.1v-0.2v-0.1 M3.15,13.25v0.1v0.1v0.2l0.1,0.1
		l0.1,0.2v0.1l0.2,0.2l0.1,0.1l0.1,0.1l0.2,0.2l0.2,0.1 M4.15,14.75l0.2,0.1l0.2,0.1l0.2,0.1h0.3l0.2,0.1l0.3,0.1h0.2h0.3l0.3,0.1
		h0.2h0.3h0.3l0.2-0.1h0.3l0.3-0.1h0.2l0.3-0.1l0.2-0.1l0.2-0.1l0.2-0.1l0.2-0.1l0.2-0.1l0.1-0.1l0.2-0.2l0.1-0.1l0.1-0.1l0.1-0.2
		l0.1-0.1v-0.2v-0.2l0.1-0.1 M3.15,12.75v0.1v0.2v0.1v0.2v0.1l0.1,0.2l0.1,0.1v0.2l0.2,0.1l0.1,0.2l0.1,0.1l0.2,0.1l0.2,0.1
		 M4.15,14.55l0.2,0.1l0.2,0.1l0.2,0.1l0.3,0.1l0.2,0.1h0.3l0.2,0.1h0.3h0.3h0.2h0.3h0.3h0.2l0.3-0.1h0.3l0.2-0.1h0.3l0.2-0.1
		l0.2-0.1l0.2-0.1l0.2-0.1l0.2-0.2l0.1-0.1l0.2-0.1l0.1-0.2l0.1-0.1l0.1-0.1l0.1-0.2v-0.2v-0.1l0.1-0.2l-0.1-0.1v-0.2 M7.45,4.75
		l-1.7-0.3 M8.75,4.95l-1.3-0.2 M4.65,5.15l-0.1,0.1 M5.75,4.45l-1.1,0.7 M5.75,4.45v-2.5 M3.15,12.65l0.1,0.2l0.1,0.1v0.2l0.2,0.1
		l0.1,0.1l0.1,0.2l0.2,0.1l0.2,0.1 M4.15,13.75l0.2,0.1l0.2,0.1l0.2,0.1l0.3,0.1h0.2l0.3,0.1h0.2l0.3,0.1h0.3h0.2h0.3h0.3h0.2
		l0.3-0.1h0.3l0.2-0.1l0.3-0.1l0.2-0.1h0.2l0.2-0.1l0.2-0.2l0.2-0.1l0.1-0.1l0.2-0.1l0.1-0.2l0.1-0.1l0.1-0.2l0.1-0.1v-0.1
		 M9.05,4.85v-2.4 M8.55,5.05L8.55,5.05l-0.2-0.1h-0.2l-0.3-0.1l-0.2-0.1h-0.2 M7.45,4.75h-0.3l-0.2-0.1h-0.3h-0.2l-0.3,0.1h-0.2
		h-0.3l-0.2,0.1l-0.2,0.1h-0.3l-0.2,0.1l-0.1,0.1 M4.65,5.15l-0.1,0.1 M9.05,2.45l0.8,1.9 M7.55,5.65l2.3-1.3 M7.55,5.65l-3.3-0.5
		 M4.25,5.15l-0.8-1.8 M5.75,1.95l-2.3,1.4 M9.05,2.45l-3.3-0.5 M0.25,9.55v0.1v0.2l0.1,0.2v0.2l0.1,0.2l0.1,0.2l0.1,0.2l0.2,0.2
		l0.1,0.2l0.2,0.2l0.2,0.2l0.2,0.1l0.2,0.2l0.3,0.2l0.2,0.1l0.3,0.2l0.3,0.1l0.3,0.1l0.3,0.1l0.3,0.1l0.3,0.1l0.4,0.1l0.3,0.1h0.4
		l0.3,0.1h0.4h0.4h0.3h0.4h0.3h0.4l0.4-0.1h0.3l0.4-0.1h0.3l0.3-0.1l0.4-0.1l0.3-0.1l0.3-0.2l0.3-0.1l0.3-0.1l0.2-0.2 M11.15,12.15
		l0.3-0.1l0.2-0.2l0.2-0.1l0.2-0.2l0.2-0.2l0.2-0.2l0.1-0.2l0.1-0.2l0.2-0.2v-0.2l0.1-0.2l0.1-0.2v-0.2v-0.2 M13.05,4.05L13.05,4.05
		 M8.65,24.65l0.5-0.3 M4.15,24.35l0.5,0.3 M10.25,22.05v-0.1 M3.15,21.95v0.1 M10.25,21.15v-0.2 M3.15,20.95v0.2 M10.25,20.15v-0.2
		 M3.15,19.95v0.2 M10.25,19.15v-0.2 M3.15,18.95v0.2 M10.25,18.15v-0.1 M3.15,18.05v0.1 M10.25,17.15v-0.1 M3.15,17.05v0.1
		 M10.25,16.25v-0.2 M3.15,16.05v0.2 M10.25,15.25v-0.2 M3.15,15.05v0.2 M10.25,14.25v-0.1 M3.15,14.15v0.1 M10.25,13.25v-0.1
		 M3.15,13.15v0.1 M13.05,9.55v-5.5 M0.25,4.05v5.5 M13.05,4.05v-0.1v-0.2l-0.1-0.3l-0.1-0.2v-0.2l-0.1-0.2l-0.1-0.2l-0.2-0.2
		l-0.1-0.1l-0.2-0.2l-0.2-0.2l-0.2-0.2l-0.2-0.1l-0.2-0.2l-0.3-0.1l-0.2-0.2l-0.3-0.1l-0.3-0.1l-0.3-0.1l-0.3-0.1l-0.3-0.1l-0.3-0.1
		l-0.3-0.1h-0.3l-0.4-0.1h-0.3l-0.4-0.1h-0.3h-0.3h-0.4h-0.3l-0.4,0.1h-0.3h-0.3l-0.4,0.1l-0.3,0.1h-0.3l-0.3,0.1l-0.3,0.1l-0.3,0.1
		l-0.3,0.2l-0.3,0.1l-0.2,0.1l-0.3,0.2l-0.2,0.1l-0.2,0.2l-0.2,0.2l-0.2,0.1l-0.2,0.2l-0.2,0.2l-0.1,0.2l-0.1,0.2l-0.1,0.2l-0.1,0.2
		l-0.1,0.2v0.2l-0.1,0.2v0.2"/>
</g>
</svg>
