<?xml version="1.0" encoding="utf-8"?>
<!-- Generator: Adobe Illustrator 19.0.0, SVG Export Plug-In . SVG Version: 6.00 Build 0)  -->
<svg version="1.0" id="Layer_1" xmlns="http://www.w3.org/2000/svg" xmlns:xlink="http://www.w3.org/1999/xlink" x="0px" y="0px"
	 width="13.3px" height="34.6px" viewBox="0 0 13.3 34.6" enable-background="new 0 0 13.3 34.6" xml:space="preserve">
<g>
	
		<path fill="none" stroke="#000000" stroke-width="0.25" stroke-linecap="round" stroke-linejoin="round" stroke-miterlimit="10" d="
		M13.05,4.15v0.2l-0.1,0.2v0.3l-0.1,0.2l-0.1,0.2l-0.2,0.3l-0.2,0.2l-0.2,0.2l-0.2,0.2l-0.2,0.2l-0.3,0.2l-0.3,0.2 M11.15,6.75
		l-0.3,0.1l-0.3,0.2l-0.3,0.1l-0.4,0.1l-0.4,0.2l-0.3,0.1h-0.4l-0.4,0.1l-0.4,0.1h-0.4h-0.5h-0.4h-0.4h-0.4h-0.4l-0.4-0.1l-0.4-0.1
		h-0.4l-0.4-0.1l-0.4-0.2l-0.3-0.1l-0.4-0.1l-0.3-0.2l-0.3-0.1l-0.3-0.2l-0.2-0.2l-0.3-0.2l-0.2-0.2l-0.2-0.2l-0.2-0.2l-0.1-0.3
		l-0.1-0.2l-0.1-0.2l-0.1-0.3v-0.2l-0.1-0.2 M10.95,6.25l0.3-0.1l0.2-0.2l0.3-0.2l0.2-0.2l0.2-0.2l0.1-0.2l0.2-0.3l0.1-0.2l0.1-0.2
		v-0.3v-0.2v-0.2v-0.3v-0.2l-0.1-0.2l-0.1-0.2l-0.1-0.3l-0.2-0.2l-0.2-0.2l-0.2-0.2l-0.2-0.2l-0.3-0.2l-0.2-0.2l-0.3-0.1l-0.4-0.2
		l-0.3-0.1l-0.3-0.1l-0.4-0.1l-0.3-0.1l-0.4-0.1l-0.4-0.1h-0.4l-0.4-0.1h-0.4h-0.4h-0.4h-0.4l-0.4,0.1h-0.4l-0.4,0.1l-0.4,0.1
		l-0.4,0.1l-0.3,0.1l-0.4,0.1l-0.3,0.2l-0.3,0.1l-0.3,0.2l-0.2,0.2l-0.3,0.2l-0.2,0.2l-0.2,0.2l-0.2,0.2l-0.1,0.2l-0.2,0.2l-0.1,0.2
		v0.3l-0.1,0.2v0.2v0.3v0.2l0.1,0.2l0.1,0.3l0.1,0.2l0.2,0.2l0.1,0.2l0.2,0.2l0.2,0.2l0.3,0.2l0.3,0.2l0.2,0.2l0.3,0.1l0.4,0.2
		l0.3,0.1l0.3,0.1l0.4,0.1l0.4,0.1l0.4,0.1l0.4,0.1h0.4h0.4h0.4h0.4h0.4h0.4l0.4-0.1h0.4l0.4-0.1l0.3-0.1l0.4-0.1l0.3-0.1l0.4-0.2
		l0.3-0.1L10.95,6.25"/>
	<path fill="none" stroke="#000000" stroke-width="0.5" stroke-linecap="round" stroke-linejoin="round" stroke-miterlimit="10" d="
		M4.65,33.95L4.65,33.95l0.2,0.1l0.3,0.1h0.2l0.2,0.1l0.3,0.1h0.3h0.2h0.3h0.3h0.3h0.2l0.3-0.1l0.3-0.1h0.2l0.2-0.1l0.2-0.1
		 M3.15,32.15v0.1v0.2l0.1,0.2l0.1,0.2l0.1,0.1l0.1,0.2l0.2,0.1l0.2,0.2l0.2,0.1l0.2,0.2l0.2,0.1l0.3,0.1l0.3,0.1h0.3l0.3,0.1h0.3
		h0.3l0.3,0.1h0.3l0.3-0.1h0.3l0.3-0.1h0.3l0.3-0.1l0.2-0.1l0.3-0.1l0.2-0.1 M9.15,33.65l0.2-0.2l0.2-0.1l0.2-0.2l0.1-0.1l0.2-0.2
		l0.1-0.2v-0.1l0.1-0.2v-0.2 M3.25,31.75h-0.1v0.2v0.2v0.2v0.1l0.1,0.2l0.1,0.2l0.1,0.2l0.1,0.1l0.2,0.2l0.2,0.1l0.2,0.2
		 M4.15,33.65l0.2,0.1l0.3,0.1l0.3,0.1l0.2,0.1h0.3l0.3,0.1h0.3h0.3l0.4,0.1l0.3-0.1h0.3h0.3l0.3-0.1l0.3-0.1h0.2l0.3-0.1l0.3-0.2
		l0.2-0.1l0.2-0.1l0.2-0.2l0.1-0.1l0.2-0.2l0.1-0.1l0.1-0.2v-0.2l0.1-0.2v-0.2l-0.1-0.1v-0.2 M3.15,31.35v0.1v0.2l0.1,0.2l0.1,0.2
		l0.1,0.1l0.1,0.2l0.2,0.2l0.2,0.1l0.2,0.1 M4.15,32.75l0.2,0.2l0.3,0.1l0.3,0.1h0.2l0.3,0.1l0.3,0.1h0.3h0.3h0.4h0.3h0.3h0.3
		l0.3-0.1l0.3-0.1l0.2-0.1l0.3-0.1l0.3-0.1l0.2-0.1l0.2-0.1l0.2-0.2l0.1-0.1l0.2-0.2l0.1-0.2l0.1-0.1v-0.2l0.1-0.2v-0.1 M3.25,30.75
		h-0.1v0.2v0.2v0.2v0.1l0.1,0.2l0.1,0.2l0.1,0.2l0.1,0.1l0.2,0.2l0.2,0.1l0.2,0.2 M4.15,32.65l0.2,0.1l0.3,0.1l0.3,0.1l0.2,0.1h0.3
		l0.3,0.1h0.3h0.3l0.4,0.1l0.3-0.1h0.3h0.3l0.3-0.1l0.3-0.1h0.2l0.3-0.1l0.3-0.2l0.2-0.1l0.2-0.1l0.2-0.2l0.1-0.1l0.2-0.2l0.1-0.1
		l0.1-0.2v-0.2l0.1-0.2v-0.2l-0.1-0.1v-0.2 M3.15,30.35v0.1v0.2l0.1,0.2l0.1,0.2l0.1,0.1l0.1,0.2l0.2,0.2l0.2,0.1l0.2,0.1
		 M4.15,31.75l0.2,0.2l0.3,0.1l0.3,0.1h0.2l0.3,0.1l0.3,0.1h0.3h0.3h0.4h0.3h0.3h0.3l0.3-0.1l0.3-0.1l0.2-0.1l0.3-0.1l0.3-0.1
		l0.2-0.1l0.2-0.1l0.2-0.2l0.1-0.1l0.2-0.2l0.1-0.2l0.1-0.1v-0.2l0.1-0.2v-0.1 M3.25,29.75h-0.1v0.2v0.2v0.2v0.1l0.1,0.2l0.1,0.2
		l0.1,0.2l0.1,0.1l0.2,0.2l0.2,0.1l0.2,0.2 M4.15,31.65l0.2,0.1l0.3,0.1l0.3,0.1l0.2,0.1h0.3l0.3,0.1h0.3h0.3l0.4,0.1l0.3-0.1h0.3
		h0.3l0.3-0.1l0.3-0.1h0.2l0.3-0.1l0.3-0.2l0.2-0.1l0.2-0.1l0.2-0.2l0.1-0.1l0.2-0.2l0.1-0.1l0.1-0.2v-0.2l0.1-0.2v-0.2l-0.1-0.1
		v-0.2 M3.15,29.35v0.1v0.2l0.1,0.2l0.1,0.2l0.1,0.1l0.1,0.2l0.2,0.2l0.2,0.1l0.2,0.1 M4.15,30.75l0.2,0.2l0.3,0.1l0.3,0.1h0.2
		l0.3,0.1l0.3,0.1h0.3h0.3h0.4h0.3h0.3h0.3l0.3-0.1l0.3-0.1l0.2-0.1l0.3-0.1l0.3-0.1l0.2-0.1l0.2-0.1l0.2-0.2l0.1-0.1l0.2-0.2
		l0.1-0.2l0.1-0.1v-0.2l0.1-0.2v-0.1 M3.25,28.75h-0.1v0.2v0.2v0.2v0.1l0.1,0.2l0.1,0.2l0.1,0.2l0.1,0.1l0.2,0.2l0.2,0.1l0.2,0.2
		 M4.15,30.65l0.2,0.1l0.3,0.1l0.3,0.1l0.2,0.1h0.3l0.3,0.1h0.3h0.3l0.4,0.1l0.3-0.1h0.3h0.3l0.3-0.1l0.3-0.1h0.2l0.3-0.1l0.3-0.2
		l0.2-0.1l0.2-0.1l0.2-0.2l0.1-0.1l0.2-0.2l0.1-0.1l0.1-0.2v-0.2l0.1-0.2v-0.2l-0.1-0.1v-0.2 M3.15,28.35v0.1v0.2l0.1,0.2l0.1,0.2
		l0.1,0.1l0.1,0.2l0.2,0.2l0.2,0.1l0.2,0.1 M4.15,29.75l0.2,0.2l0.3,0.1l0.3,0.1h0.2l0.3,0.1l0.3,0.1h0.3h0.3h0.4h0.3h0.3h0.3
		l0.3-0.1l0.3-0.1l0.2-0.1l0.3-0.1l0.3-0.1l0.2-0.1l0.2-0.1l0.2-0.2l0.1-0.1l0.2-0.2l0.1-0.2l0.1-0.1v-0.2l0.1-0.2v-0.1 M3.25,27.75
		h-0.1v0.2v0.2v0.2v0.1l0.1,0.2l0.1,0.2l0.1,0.2l0.1,0.1l0.2,0.2l0.2,0.1l0.2,0.2 M4.15,29.65l0.2,0.1l0.3,0.1l0.3,0.1l0.2,0.1h0.3
		l0.3,0.1h0.3h0.3l0.4,0.1l0.3-0.1h0.3h0.3l0.3-0.1l0.3-0.1h0.2l0.3-0.1l0.3-0.2l0.2-0.1l0.2-0.1l0.2-0.2l0.1-0.1l0.2-0.2l0.1-0.2
		l0.1-0.1v-0.2l0.1-0.2v-0.2l-0.1-0.1v-0.2 M3.15,27.35v0.1v0.2l0.1,0.2l0.1,0.2l0.1,0.1l0.1,0.2l0.2,0.2l0.2,0.1l0.2,0.1
		 M4.15,28.75l0.2,0.2l0.3,0.1l0.3,0.1h0.2l0.3,0.1l0.3,0.1h0.3h0.3h0.4h0.3h0.3h0.3l0.3-0.1l0.3-0.1l0.2-0.1l0.3-0.1l0.3-0.1
		l0.2-0.1l0.2-0.1l0.2-0.2l0.1-0.1l0.2-0.2l0.1-0.2l0.1-0.1v-0.2l0.1-0.2v-0.1 M3.25,26.75h-0.1v0.2v0.2v0.2v0.1l0.1,0.2l0.1,0.2
		l0.1,0.2l0.1,0.1l0.2,0.2l0.2,0.1l0.2,0.2 M4.15,28.65l0.2,0.1l0.3,0.1l0.3,0.1l0.2,0.1h0.3l0.3,0.1h0.3h0.3h0.4h0.3h0.3h0.3
		l0.3-0.1l0.3-0.1h0.2l0.3-0.1l0.3-0.2l0.2-0.1l0.2-0.1l0.2-0.2l0.1-0.1l0.2-0.2l0.1-0.2l0.1-0.1v-0.2l0.1-0.2v-0.2l-0.1-0.1v-0.2
		 M3.15,26.35v0.1v0.2l0.1,0.2l0.1,0.2l0.1,0.1l0.1,0.2l0.2,0.2l0.2,0.1l0.2,0.1 M4.15,27.75l0.2,0.2l0.3,0.1l0.3,0.1h0.2l0.3,0.1
		l0.3,0.1h0.3h0.3h0.4h0.3h0.3l0.3-0.1h0.3l0.3-0.1l0.2-0.1l0.3-0.1l0.3-0.1l0.2-0.1l0.2-0.1l0.2-0.2l0.1-0.1l0.2-0.2l0.1-0.2
		l0.1-0.1v-0.2l0.1-0.2v-0.1 M3.25,25.75h-0.1v0.2v0.2v0.2v0.1l0.1,0.2l0.1,0.2l0.1,0.2l0.1,0.1l0.2,0.2l0.2,0.1l0.2,0.1
		 M4.15,27.55l0.2,0.2l0.3,0.1l0.3,0.1l0.2,0.1h0.3l0.3,0.1h0.3h0.3h0.4h0.3h0.3h0.3l0.3-0.1l0.3-0.1h0.2l0.3-0.1l0.3-0.2l0.2-0.1
		l0.2-0.1l0.2-0.2l0.1-0.1l0.2-0.2l0.1-0.2l0.1-0.1v-0.2l0.1-0.2v-0.2l-0.1-0.1v-0.2 M3.15,25.35v0.1v0.2l0.1,0.2l0.1,0.2l0.1,0.1
		l0.1,0.2l0.2,0.2l0.2,0.1l0.2,0.1 M4.15,26.75l0.2,0.1l0.3,0.2l0.3,0.1h0.2l0.3,0.1l0.3,0.1h0.3h0.3h0.4h0.3h0.3l0.3-0.1h0.3
		l0.3-0.1l0.2-0.1l0.3-0.1l0.3-0.1l0.2-0.1l0.2-0.1l0.2-0.2l0.1-0.1l0.2-0.2l0.1-0.2l0.1-0.1v-0.2l0.1-0.2v-0.1 M3.25,24.75h-0.1
		v0.2v0.2v0.2v0.1l0.1,0.2l0.1,0.2l0.1,0.2l0.1,0.1l0.2,0.2l0.2,0.1l0.2,0.1 M4.15,26.55l0.2,0.2l0.3,0.1l0.3,0.1l0.2,0.1h0.3
		l0.3,0.1h0.3h0.3h0.4h0.3h0.3h0.3l0.3-0.1l0.3-0.1h0.2l0.3-0.1l0.3-0.2l0.2-0.1l0.2-0.1l0.2-0.2l0.1-0.1l0.2-0.2l0.1-0.2l0.1-0.1
		v-0.2l0.1-0.2v-0.2l-0.1-0.1v-0.2 M3.15,24.35v0.1v0.2l0.1,0.2l0.1,0.2l0.1,0.1l0.1,0.2l0.2,0.1l0.2,0.2l0.2,0.1 M4.15,25.75
		l0.2,0.1l0.3,0.2l0.3,0.1h0.2l0.3,0.1l0.3,0.1h0.3h0.3h0.4h0.3h0.3l0.3-0.1h0.3l0.3-0.1l0.2-0.1l0.3-0.1l0.3-0.1l0.2-0.1l0.2-0.1
		l0.2-0.2l0.1-0.1l0.2-0.2l0.1-0.2l0.1-0.1v-0.2l0.1-0.2v-0.1 M3.25,23.75h-0.1v0.2v0.2v0.2v0.1l0.1,0.2l0.1,0.2l0.1,0.2l0.1,0.1
		l0.2,0.2l0.2,0.1l0.2,0.1 M4.15,25.55l0.2,0.2l0.3,0.1l0.3,0.1l0.2,0.1h0.3l0.3,0.1h0.3h0.3h0.4h0.3h0.3h0.3l0.3-0.1l0.3-0.1h0.2
		l0.3-0.1l0.3-0.2l0.2-0.1l0.2-0.1l0.2-0.2l0.1-0.1l0.2-0.2l0.1-0.2l0.1-0.1v-0.2l0.1-0.2v-0.2l-0.1-0.1v-0.2 M3.15,23.35v0.1v0.2
		l0.1,0.2l0.1,0.2l0.1,0.1l0.1,0.2l0.2,0.1l0.2,0.2l0.2,0.1 M4.15,24.75l0.2,0.1l0.3,0.2l0.3,0.1h0.2l0.3,0.1l0.3,0.1h0.3h0.3h0.4
		h0.3h0.3l0.3-0.1h0.3l0.3-0.1l0.2-0.1l0.3-0.1l0.3-0.1l0.2-0.1l0.2-0.1l0.2-0.2l0.1-0.1l0.2-0.2l0.1-0.2l0.1-0.2v-0.1l0.1-0.2v-0.1
		 M3.25,22.75h-0.1v0.2v0.2v0.2v0.1l0.1,0.2l0.1,0.2l0.1,0.2l0.1,0.1l0.2,0.2l0.2,0.1l0.2,0.1 M4.15,24.55l0.2,0.2l0.3,0.1l0.3,0.1
		l0.2,0.1h0.3l0.3,0.1h0.3h0.3h0.4h0.3h0.3h0.3l0.3-0.1l0.3-0.1h0.2l0.3-0.1l0.3-0.2l0.2-0.1l0.2-0.1l0.2-0.2l0.1-0.1l0.2-0.2
		l0.1-0.2l0.1-0.1v-0.2l0.1-0.2v-0.2l-0.1-0.1v-0.2 M3.15,22.35v0.1v0.2l0.1,0.2l0.1,0.2l0.1,0.1l0.1,0.2l0.2,0.1l0.2,0.2l0.2,0.1
		 M4.15,23.75l0.2,0.1l0.3,0.2l0.3,0.1h0.2l0.3,0.1l0.3,0.1h0.3h0.3h0.4h0.3h0.3l0.3-0.1h0.3l0.3-0.1l0.2-0.1l0.3-0.1l0.3-0.1
		l0.2-0.1l0.2-0.1l0.2-0.2l0.1-0.1l0.2-0.2l0.1-0.2l0.1-0.2v-0.1l0.1-0.2v-0.1 M3.25,21.75h-0.1v0.2v0.2v0.2v0.1l0.1,0.2l0.1,0.2
		l0.1,0.2l0.1,0.1l0.2,0.2l0.2,0.1l0.2,0.1 M4.15,23.55l0.2,0.2l0.3,0.1l0.3,0.1l0.2,0.1h0.3l0.3,0.1h0.3h0.3h0.4h0.3h0.3h0.3
		l0.3-0.1l0.3-0.1h0.2l0.3-0.1l0.3-0.2l0.2-0.1l0.2-0.1l0.2-0.2l0.1-0.1l0.2-0.2l0.1-0.2l0.1-0.1v-0.2l0.1-0.2v-0.2l-0.1-0.1v-0.2
		 M3.15,21.35v0.1v0.2l0.1,0.2l0.1,0.2l0.1,0.1l0.1,0.2l0.2,0.1l0.2,0.2l0.2,0.1 M4.15,22.75l0.2,0.1l0.3,0.2l0.3,0.1h0.2l0.3,0.1
		l0.3,0.1h0.3h0.3h0.4h0.3h0.3l0.3-0.1h0.3l0.3-0.1l0.2-0.1l0.3-0.1l0.3-0.1l0.2-0.1l0.2-0.1l0.2-0.2l0.1-0.1l0.2-0.2l0.1-0.2
		l0.1-0.2v-0.1l0.1-0.2v-0.1 M3.25,20.75h-0.1v0.2v0.2v0.2v0.1l0.1,0.2l0.1,0.2l0.1,0.2l0.1,0.1l0.2,0.2l0.2,0.1l0.2,0.1
		 M4.15,22.55l0.2,0.2l0.3,0.1l0.3,0.1l0.2,0.1h0.3l0.3,0.1h0.3h0.3h0.4h0.3h0.3h0.3l0.3-0.1l0.3-0.1l0.2-0.1l0.3-0.1l0.3-0.1
		l0.2-0.1l0.2-0.1l0.2-0.2l0.1-0.1l0.2-0.2l0.1-0.2l0.1-0.1v-0.2l0.1-0.2v-0.2l-0.1-0.2v-0.1 M3.15,20.35v0.1v0.2l0.1,0.2l0.1,0.2
		l0.1,0.1l0.1,0.2l0.2,0.1l0.2,0.2l0.2,0.1 M4.15,21.75l0.2,0.1l0.3,0.2l0.3,0.1h0.2l0.3,0.1l0.3,0.1h0.3h0.3h0.4h0.3h0.3l0.3-0.1
		h0.3l0.3-0.1l0.2-0.1l0.3-0.1l0.3-0.1l0.2-0.1l0.2-0.1l0.2-0.2l0.1-0.1l0.2-0.2l0.1-0.2l0.1-0.2v-0.1l0.1-0.2v-0.1 M3.25,19.75
		h-0.1v0.2v0.2v0.2v0.1l0.1,0.2l0.1,0.2l0.1,0.2l0.1,0.1l0.2,0.2l0.2,0.1l0.2,0.1 M4.15,21.55l0.2,0.2l0.3,0.1l0.3,0.1l0.2,0.1h0.3
		l0.3,0.1h0.3h0.3h0.4h0.3h0.3h0.3l0.3-0.1l0.3-0.1l0.2-0.1l0.3-0.1l0.3-0.1l0.2-0.1l0.2-0.1l0.2-0.2l0.1-0.1l0.2-0.2l0.1-0.2
		l0.1-0.1v-0.2l0.1-0.2v-0.2l-0.1-0.2v-0.1 M3.15,19.35v0.1v0.2l0.1,0.2l0.1,0.2l0.1,0.1l0.1,0.2l0.2,0.1l0.2,0.2l0.2,0.1
		 M4.15,20.75l0.2,0.1l0.3,0.2h0.3l0.2,0.1l0.3,0.1l0.3,0.1h0.3h0.3h0.4h0.3h0.3l0.3-0.1h0.3l0.3-0.1l0.2-0.1l0.3-0.1l0.3-0.1
		l0.2-0.1l0.2-0.1l0.2-0.2l0.1-0.1l0.2-0.2l0.1-0.2l0.1-0.2v-0.1l0.1-0.2v-0.1 M3.25,18.75h-0.1v0.2v0.2v0.2v0.1l0.1,0.2l0.1,0.2
		l0.1,0.2l0.1,0.1l0.2,0.2l0.2,0.1l0.2,0.1 M4.15,20.55l0.2,0.2l0.3,0.1l0.3,0.1l0.2,0.1h0.3l0.3,0.1h0.3h0.3h0.4h0.3h0.3h0.3
		l0.3-0.1l0.3-0.1l0.2-0.1l0.3-0.1l0.3-0.1l0.2-0.1l0.2-0.1l0.2-0.2l0.1-0.1l0.2-0.2l0.1-0.2l0.1-0.1v-0.2l0.1-0.2v-0.2l-0.1-0.2
		v-0.1 M3.15,18.35v0.1v0.2l0.1,0.2l0.1,0.2l0.1,0.1l0.1,0.2l0.2,0.1l0.2,0.2l0.2,0.1 M4.15,19.75l0.2,0.1l0.3,0.2h0.3l0.2,0.1
		l0.3,0.1l0.3,0.1h0.3h0.3h0.4h0.3h0.3l0.3-0.1h0.3l0.3-0.1l0.2-0.1l0.3-0.1l0.3-0.1l0.2-0.1l0.2-0.1l0.2-0.2l0.1-0.1l0.2-0.2
		l0.1-0.2l0.1-0.2v-0.1l0.1-0.2v-0.1 M3.25,17.75h-0.1v0.2v0.2v0.2v0.1l0.1,0.2l0.1,0.2l0.1,0.1l0.1,0.2l0.2,0.2l0.2,0.1l0.2,0.1
		 M4.15,19.55l0.2,0.2l0.3,0.1l0.3,0.1l0.2,0.1h0.3l0.3,0.1h0.3h0.3h0.4h0.3h0.3h0.3l0.3-0.1l0.3-0.1l0.2-0.1l0.3-0.1l0.3-0.1
		l0.2-0.1l0.2-0.1l0.2-0.2l0.1-0.1l0.2-0.2l0.1-0.2l0.1-0.1v-0.2l0.1-0.2v-0.2l-0.1-0.2v-0.1 M3.15,17.35v0.1v0.2l0.1,0.2l0.1,0.2
		l0.1,0.1l0.1,0.2l0.2,0.1l0.2,0.2l0.2,0.1 M4.15,18.75l0.2,0.1l0.3,0.2h0.3l0.2,0.1l0.3,0.1l0.3,0.1h0.3h0.3h0.4h0.3h0.3l0.3-0.1
		h0.3l0.3-0.1l0.2-0.1l0.3-0.1l0.3-0.1l0.2-0.1l0.2-0.1l0.2-0.2l0.1-0.2l0.2-0.1l0.1-0.2l0.1-0.2v-0.1l0.1-0.2v-0.1 M3.25,16.75
		h-0.1v0.2v0.2v0.2v0.1l0.1,0.2l0.1,0.2l0.1,0.1l0.1,0.2l0.2,0.2l0.2,0.1l0.2,0.1 M4.15,18.55l0.2,0.2l0.3,0.1l0.3,0.1l0.2,0.1h0.3
		l0.3,0.1h0.3h0.3h0.4h0.3h0.3h0.3l0.3-0.1l0.3-0.1l0.2-0.1l0.3-0.1l0.3-0.1l0.2-0.1l0.2-0.1l0.2-0.2l0.1-0.1l0.2-0.2l0.1-0.2
		l0.1-0.1v-0.2l0.1-0.2v-0.2l-0.1-0.2v-0.1 M3.15,16.35v0.1v0.2l0.1,0.2l0.1,0.2l0.1,0.1l0.1,0.2l0.2,0.1l0.2,0.2l0.2,0.1
		 M4.15,17.75l0.2,0.1l0.3,0.1l0.3,0.1l0.2,0.1l0.3,0.1l0.3,0.1h0.3h0.3h0.4h0.3h0.3l0.3-0.1h0.3l0.3-0.1l0.2-0.1l0.3-0.1l0.3-0.1
		l0.2-0.1l0.2-0.2l0.2-0.1l0.1-0.2l0.2-0.1l0.1-0.2l0.1-0.2v-0.1l0.1-0.2v-0.1 M3.25,15.75h-0.1v0.2v0.2v0.2v0.1l0.1,0.2l0.1,0.2
		l0.1,0.1l0.1,0.2l0.2,0.2l0.2,0.1l0.2,0.1 M4.15,17.55l0.2,0.2l0.3,0.1l0.3,0.1l0.2,0.1h0.3l0.3,0.1h0.3h0.3h0.4h0.3h0.3h0.3
		l0.3-0.1l0.3-0.1l0.2-0.1l0.3-0.1l0.3-0.1l0.2-0.1l0.2-0.1l0.2-0.2l0.1-0.1l0.2-0.2l0.1-0.2l0.1-0.1v-0.2l0.1-0.2v-0.2l-0.1-0.2
		v-0.1 M3.15,15.35v0.1v0.2l0.1,0.2l0.1,0.2l0.1,0.1l0.1,0.2l0.2,0.1l0.2,0.2l0.2,0.1 M4.15,16.75l0.2,0.1l0.3,0.1l0.3,0.1l0.2,0.1
		l0.3,0.1l0.3,0.1h0.3h0.3h0.4h0.3h0.3l0.3-0.1h0.3l0.3-0.1l0.2-0.1l0.3-0.1l0.3-0.1l0.2-0.1l0.2-0.2l0.2-0.1l0.1-0.2l0.2-0.1
		l0.1-0.2l0.1-0.2v-0.1l0.1-0.2v-0.1 M3.25,14.75h-0.1v0.2v0.2v0.1v0.2l0.1,0.2l0.1,0.2l0.1,0.1l0.1,0.2l0.2,0.2l0.2,0.1l0.2,0.1
		 M4.15,16.55l0.2,0.2l0.3,0.1l0.3,0.1h0.2l0.3,0.1l0.3,0.1h0.3h0.3h0.4h0.3h0.3h0.3l0.3-0.1l0.3-0.1l0.2-0.1l0.3-0.1l0.3-0.1
		l0.2-0.1l0.2-0.1l0.2-0.2l0.1-0.1l0.2-0.2l0.1-0.2l0.1-0.1v-0.2l0.1-0.2v-0.2l-0.1-0.2v-0.1 M3.15,14.35v0.1v0.2l0.1,0.2l0.1,0.2
		l0.1,0.1l0.1,0.2l0.2,0.1l0.2,0.2l0.2,0.1 M4.15,15.75l0.2,0.1l0.3,0.1l0.3,0.1l0.2,0.1l0.3,0.1h0.3l0.3,0.1h0.3h0.4h0.3h0.3
		l0.3-0.1h0.3l0.3-0.1l0.2-0.1l0.3-0.1l0.3-0.1l0.2-0.1l0.2-0.2l0.2-0.1l0.1-0.2l0.2-0.1l0.1-0.2l0.1-0.2v-0.1l0.1-0.2v-0.1
		 M3.25,13.75h-0.1v0.2v0.2v0.1v0.2l0.1,0.2l0.1,0.2l0.1,0.1l0.1,0.2l0.2,0.2l0.2,0.1l0.2,0.1 M4.15,15.55l0.2,0.2l0.3,0.1l0.3,0.1
		h0.2l0.3,0.1l0.3,0.1h0.3h0.3h0.4h0.3h0.3h0.3l0.3-0.1l0.3-0.1l0.2-0.1l0.3-0.1l0.3-0.1l0.2-0.1l0.2-0.1l0.2-0.2l0.1-0.1l0.2-0.2
		l0.1-0.2l0.1-0.1v-0.2l0.1-0.2v-0.2l-0.1-0.2v-0.1 M3.15,13.35v0.1v0.2l0.1,0.2l0.1,0.2l0.1,0.1l0.1,0.2l0.2,0.1l0.2,0.2l0.2,0.1
		 M4.15,14.75l0.2,0.1l0.3,0.1l0.3,0.1l0.2,0.1l0.3,0.1h0.3l0.3,0.1h0.3h0.4h0.3h0.3l0.3-0.1h0.3l0.3-0.1l0.2-0.1l0.3-0.1l0.3-0.1
		l0.2-0.1l0.2-0.2l0.2-0.1l0.1-0.2l0.2-0.1l0.1-0.2l0.1-0.2v-0.1l0.1-0.2v-0.1 M3.25,12.75h-0.1v0.2v0.2v0.1v0.2l0.1,0.2l0.1,0.2
		l0.1,0.1l0.1,0.2l0.2,0.2l0.2,0.1l0.2,0.1 M4.15,14.55l0.2,0.2l0.3,0.1l0.3,0.1h0.2l0.3,0.1l0.3,0.1h0.3h0.3h0.4h0.3h0.3h0.3
		l0.3-0.1l0.3-0.1l0.2-0.1l0.3-0.1l0.3-0.1l0.2-0.1l0.2-0.1l0.2-0.2l0.1-0.1l0.2-0.2l0.1-0.2l0.1-0.1v-0.2l0.1-0.2v-0.2l-0.1-0.2
		v-0.1 M7.45,4.75l-1.6-0.3 M8.75,4.95l-1.3-0.2 M4.65,5.15l-0.1,0.1 M5.85,4.45l-1.2,0.7 M5.85,4.45v-2.5 M3.15,12.65l0.1,0.2
		l0.1,0.2l0.1,0.1l0.1,0.2l0.2,0.1l0.2,0.2l0.2,0.1 M4.15,13.75l0.2,0.1l0.3,0.1l0.3,0.1l0.2,0.1l0.3,0.1h0.3l0.3,0.1h0.3h0.4h0.3
		h0.3l0.3-0.1h0.3l0.3-0.1l0.2-0.1l0.3-0.1l0.3-0.1l0.2-0.1l0.2-0.2l0.2-0.1l0.1-0.2l0.2-0.1l0.1-0.2l0.1-0.2v-0.1 M9.05,4.85v-2.4
		 M8.55,5.05h-0.1l-0.2-0.1l-0.3-0.1h-0.2l-0.3-0.1 M7.45,4.75h-0.3l-0.3-0.1h-0.3l-0.3,0.1h-0.3l-0.3,0.1h-0.3l-0.3,0.1l-0.2,0.1
		l-0.2,0.1 M4.65,5.15l-0.1,0.1 M9.05,2.45l0.9,1.9 M7.55,5.65l2.4-1.3 M7.55,5.65l-3.2-0.5 M4.35,5.15l-0.9-1.8 M5.85,1.95
		l-2.4,1.4 M9.05,2.45l-3.2-0.5 M0.25,9.65l0.1,0.2v0.2l0.1,0.3l0.1,0.2l0.1,0.2l0.1,0.3l0.2,0.2l0.2,0.2l0.2,0.2l0.3,0.2l0.2,0.2
		l0.3,0.2l0.3,0.1l0.3,0.2l0.4,0.1l0.3,0.1l0.4,0.2l0.4,0.1h0.4l0.4,0.1l0.4,0.1h0.4h0.4h0.4h0.4h0.5h0.4l0.4-0.1l0.4-0.1h0.4
		l0.3-0.1l0.4-0.2l0.4-0.1l0.3-0.1l0.3-0.2l0.3-0.1 M11.15,12.25l0.3-0.2l0.3-0.2l0.2-0.2l0.2-0.2l0.2-0.2l0.2-0.2l0.2-0.3l0.1-0.2
		l0.1-0.2v-0.3l0.1-0.2v-0.2 M13.05,4.05v0.1 M8.65,33.95l0.5-0.3 M4.15,33.65l0.5,0.3 M10.25,32.15L10.25,32.15 M3.15,32.15
		L3.15,32.15 M10.25,31.35v-0.2 M3.15,31.15v0.2 M10.25,30.35v-0.2 M3.15,30.15v0.2 M10.25,29.35v-0.2 M3.15,29.15v0.2 M10.25,28.35
		v-0.2 M3.15,28.15v0.2 M10.25,27.35v-0.2 M3.15,27.15v0.2 M10.25,26.35v-0.2 M3.15,26.15v0.2 M10.25,25.35v-0.2 M3.15,25.15v0.2
		 M10.25,24.35v-0.2 M3.15,24.15v0.2 M10.25,23.35v-0.2 M3.15,23.15v0.2 M10.25,22.35v-0.2 M3.15,22.15v0.2 M10.25,21.35v-0.2
		 M3.15,21.15v0.2 M10.25,20.35v-0.2 M3.15,20.15v0.2 M10.25,19.35v-0.2 M3.15,19.15v0.2 M10.25,18.35v-0.2 M3.15,18.15v0.2
		 M10.25,17.35v-0.2 M3.15,17.15v0.2 M10.25,16.35v-0.2 M3.15,16.15v0.2 M10.25,15.35v-0.2 M3.15,15.15v0.2 M10.25,14.35v-0.2
		 M3.15,14.15v0.2 M10.25,13.35v-0.2 M3.15,13.15v0.2 M13.05,9.65v-5.5 M0.25,4.15v5.5 M13.05,4.05v-0.1v-0.3l-0.1-0.2l-0.1-0.2
		l-0.1-0.3l-0.1-0.2l-0.2-0.2l-0.1-0.2l-0.2-0.2l-0.2-0.2l-0.3-0.2l-0.2-0.2l-0.3-0.2l-0.3-0.2l-0.3-0.1l-0.3-0.1l-0.4-0.2l-0.3-0.1
		l-0.4-0.1l-0.4-0.1h-0.3l-0.4-0.1h-0.4l-0.4-0.1h-0.4h-0.4h-0.4l-0.4,0.1h-0.4l-0.3,0.1h-0.4l-0.4,0.1l-0.3,0.1l-0.4,0.1l-0.3,0.2
		l-0.4,0.1l-0.3,0.2l-0.3,0.1l-0.2,0.2l-0.3,0.2l-0.2,0.2l-0.2,0.2l-0.2,0.2l-0.2,0.2l-0.2,0.2l-0.1,0.3l-0.1,0.2l-0.1,0.2v0.3
		l-0.1,0.2v0.2"/>
</g>
</svg>
