<?xml version="1.0" encoding="utf-8"?>
<!-- Generator: Adobe Illustrator 19.0.0, SVG Export Plug-In . SVG Version: 6.00 Build 0)  -->
<svg version="1.0" id="Layer_1" xmlns="http://www.w3.org/2000/svg" xmlns:xlink="http://www.w3.org/1999/xlink" x="0px" y="0px"
	 width="13.3px" height="44.5px" viewBox="0 0 13.3 44.5" enable-background="new 0 0 13.3 44.5" xml:space="preserve">
<g id="XMLID_1_">
	
		<path fill="none" stroke="#000000" stroke-width="0.25" stroke-linecap="round" stroke-linejoin="round" stroke-miterlimit="10" d="
		M13.05,4.15v0.2l-0.1,0.2v0.3l-0.1,0.2l-0.1,0.2l-0.2,0.3l-0.2,0.2l-0.2,0.2l-0.2,0.2l-0.2,0.2l-0.3,0.2l-0.3,0.2 M11.15,6.75
		l-0.3,0.1l-0.3,0.2l-0.3,0.1l-0.4,0.1l-0.4,0.2l-0.3,0.1h-0.4l-0.4,0.1l-0.4,0.1h-0.4h-0.5h-0.4h-0.4h-0.4h-0.4l-0.4-0.1l-0.4-0.1
		h-0.4l-0.4-0.1l-0.4-0.2l-0.3-0.1l-0.4-0.1l-0.3-0.2l-0.3-0.1l-0.3-0.2l-0.2-0.2l-0.3-0.2l-0.2-0.2l-0.2-0.2l-0.2-0.2l-0.1-0.3
		l-0.1-0.2l-0.1-0.2l-0.1-0.3v-0.2l-0.1-0.2 M10.95,6.25l0.3-0.1l0.2-0.2l0.3-0.2l0.2-0.2l0.2-0.2l0.1-0.2l0.2-0.3l0.1-0.2l0.1-0.2
		v-0.3v-0.2v-0.2v-0.3v-0.2l-0.1-0.2l-0.1-0.2l-0.1-0.3l-0.2-0.2l-0.2-0.2l-0.2-0.2l-0.2-0.2l-0.3-0.2l-0.2-0.2l-0.3-0.1l-0.4-0.2
		l-0.3-0.1l-0.3-0.1l-0.4-0.1l-0.3-0.1l-0.4-0.1l-0.4-0.1h-0.4l-0.4-0.1h-0.4h-0.4h-0.4h-0.4l-0.4,0.1h-0.4l-0.4,0.1l-0.4,0.1
		l-0.4,0.1l-0.3,0.1l-0.4,0.1l-0.3,0.2l-0.3,0.1l-0.3,0.2l-0.2,0.2l-0.3,0.2l-0.2,0.2l-0.2,0.2l-0.2,0.2l-0.1,0.2l-0.2,0.2l-0.1,0.2
		v0.3l-0.1,0.2v0.2v0.3v0.2l0.1,0.2l0.1,0.3l0.1,0.2l0.2,0.2l0.1,0.2l0.2,0.2l0.2,0.2l0.3,0.2l0.3,0.2l0.2,0.2l0.3,0.1l0.4,0.2
		l0.3,0.1l0.3,0.1l0.4,0.1l0.4,0.1l0.4,0.1l0.4,0.1h0.4h0.4h0.4h0.4h0.4h0.4l0.4-0.1h0.4l0.4-0.1l0.3-0.1l0.4-0.1l0.3-0.1l0.4-0.2
		l0.3-0.1L10.95,6.25"/>
	
		<polyline fill="none" stroke="#000000" stroke-width="0.5" stroke-linecap="round" stroke-linejoin="round" stroke-miterlimit="10" points="
		4.65,33.95 4.65,33.95 4.85,34.05 5.15,34.15 5.35,34.15 5.55,34.25 5.85,34.35 6.15,34.35 6.35,34.35 6.65,34.35 6.95,34.35 
		7.25,34.35 7.45,34.35 7.75,34.25 8.05,34.15 8.25,34.15 8.45,34.05 8.65,33.95 	"/>
	
		<polyline fill="none" stroke="#000000" stroke-width="0.5" stroke-linecap="round" stroke-linejoin="round" stroke-miterlimit="10" points="
		3.15,32.15 3.15,32.25 3.15,32.45 3.25,32.65 3.35,32.85 3.45,32.95 3.55,33.15 3.75,33.25 3.95,33.45 4.15,33.55 4.35,33.75 
		4.55,33.85 4.85,33.95 5.15,34.05 5.45,34.05 5.75,34.15 6.05,34.15 6.35,34.15 6.65,34.25 6.95,34.25 7.25,34.15 7.55,34.15 
		7.85,34.05 8.15,34.05 8.45,33.95 8.65,33.85 8.95,33.75 9.15,33.65 	"/>
	
		<polyline fill="none" stroke="#000000" stroke-width="0.5" stroke-linecap="round" stroke-linejoin="round" stroke-miterlimit="10" points="
		9.15,33.65 9.35,33.45 9.55,33.35 9.75,33.15 9.85,33.05 10.05,32.85 10.15,32.65 10.15,32.55 10.25,32.35 10.25,32.15 	"/>
	
		<polyline fill="none" stroke="#000000" stroke-width="0.5" stroke-linecap="round" stroke-linejoin="round" stroke-miterlimit="10" points="
		3.25,31.75 3.15,31.75 3.15,31.95 3.15,32.15 3.15,32.35 3.15,32.45 3.25,32.65 3.35,32.85 3.45,33.05 3.55,33.15 3.75,33.35 
		3.95,33.45 4.15,33.65 	"/>
	
		<polyline fill="none" stroke="#000000" stroke-width="0.5" stroke-linecap="round" stroke-linejoin="round" stroke-miterlimit="10" points="
		4.15,33.65 4.35,33.75 4.65,33.85 4.95,33.95 5.15,34.05 5.45,34.05 5.75,34.15 6.05,34.15 6.35,34.15 6.75,34.25 7.05,34.15 
		7.35,34.15 7.65,34.15 7.95,34.05 8.25,33.95 8.45,33.95 8.75,33.85 9.05,33.65 9.25,33.55 9.45,33.45 9.65,33.25 9.75,33.15 
		9.95,32.95 10.05,32.85 10.15,32.65 10.15,32.45 10.25,32.25 10.25,32.05 10.15,31.95 10.15,31.75 	"/>
	
		<polyline fill="none" stroke="#000000" stroke-width="0.5" stroke-linecap="round" stroke-linejoin="round" stroke-miterlimit="10" points="
		3.15,31.35 3.15,31.45 3.15,31.65 3.25,31.85 3.35,32.05 3.45,32.15 3.55,32.35 3.75,32.55 3.95,32.65 4.15,32.75 	"/>
	
		<polyline fill="none" stroke="#000000" stroke-width="0.5" stroke-linecap="round" stroke-linejoin="round" stroke-miterlimit="10" points="
		4.15,32.75 4.35,32.95 4.65,33.05 4.95,33.15 5.15,33.15 5.45,33.25 5.75,33.35 6.05,33.35 6.35,33.35 6.75,33.35 7.05,33.35 
		7.35,33.35 7.65,33.35 7.95,33.25 8.25,33.15 8.45,33.05 8.75,32.95 9.05,32.85 9.25,32.75 9.45,32.65 9.65,32.45 9.75,32.35 
		9.95,32.15 10.05,31.95 10.15,31.85 10.15,31.65 10.25,31.45 10.25,31.35 	"/>
	
		<polyline fill="none" stroke="#000000" stroke-width="0.5" stroke-linecap="round" stroke-linejoin="round" stroke-miterlimit="10" points="
		3.25,30.75 3.15,30.75 3.15,30.95 3.15,31.15 3.15,31.35 3.15,31.45 3.25,31.65 3.35,31.85 3.45,32.05 3.55,32.15 3.75,32.35 
		3.95,32.45 4.15,32.65 	"/>
	
		<polyline fill="none" stroke="#000000" stroke-width="0.5" stroke-linecap="round" stroke-linejoin="round" stroke-miterlimit="10" points="
		4.15,32.65 4.35,32.75 4.65,32.85 4.95,32.95 5.15,33.05 5.45,33.05 5.75,33.15 6.05,33.15 6.35,33.15 6.75,33.25 7.05,33.15 
		7.35,33.15 7.65,33.15 7.95,33.05 8.25,32.95 8.45,32.95 8.75,32.85 9.05,32.65 9.25,32.55 9.45,32.45 9.65,32.25 9.75,32.15 
		9.95,31.95 10.05,31.85 10.15,31.65 10.15,31.45 10.25,31.25 10.25,31.05 10.15,30.95 10.15,30.75 	"/>
	
		<polyline fill="none" stroke="#000000" stroke-width="0.5" stroke-linecap="round" stroke-linejoin="round" stroke-miterlimit="10" points="
		3.15,30.35 3.15,30.45 3.15,30.65 3.25,30.85 3.35,31.05 3.45,31.15 3.55,31.35 3.75,31.55 3.95,31.65 4.15,31.75 	"/>
	
		<polyline fill="none" stroke="#000000" stroke-width="0.5" stroke-linecap="round" stroke-linejoin="round" stroke-miterlimit="10" points="
		4.15,31.75 4.35,31.95 4.65,32.05 4.95,32.15 5.15,32.15 5.45,32.25 5.75,32.35 6.05,32.35 6.35,32.35 6.75,32.35 7.05,32.35 
		7.35,32.35 7.65,32.35 7.95,32.25 8.25,32.15 8.45,32.05 8.75,31.95 9.05,31.85 9.25,31.75 9.45,31.65 9.65,31.45 9.75,31.35 
		9.95,31.15 10.05,30.95 10.15,30.85 10.15,30.65 10.25,30.45 10.25,30.35 	"/>
	
		<polyline fill="none" stroke="#000000" stroke-width="0.5" stroke-linecap="round" stroke-linejoin="round" stroke-miterlimit="10" points="
		3.25,29.75 3.15,29.75 3.15,29.95 3.15,30.15 3.15,30.35 3.15,30.45 3.25,30.65 3.35,30.85 3.45,31.05 3.55,31.15 3.75,31.35 
		3.95,31.45 4.15,31.65 	"/>
	
		<polyline fill="none" stroke="#000000" stroke-width="0.5" stroke-linecap="round" stroke-linejoin="round" stroke-miterlimit="10" points="
		4.15,31.65 4.35,31.75 4.65,31.85 4.95,31.95 5.15,32.05 5.45,32.05 5.75,32.15 6.05,32.15 6.35,32.15 6.75,32.25 7.05,32.15 
		7.35,32.15 7.65,32.15 7.95,32.05 8.25,31.95 8.45,31.95 8.75,31.85 9.05,31.65 9.25,31.55 9.45,31.45 9.65,31.25 9.75,31.15 
		9.95,30.95 10.05,30.85 10.15,30.65 10.15,30.45 10.25,30.25 10.25,30.05 10.15,29.95 10.15,29.75 	"/>
	
		<polyline fill="none" stroke="#000000" stroke-width="0.5" stroke-linecap="round" stroke-linejoin="round" stroke-miterlimit="10" points="
		3.15,29.35 3.15,29.45 3.15,29.65 3.25,29.85 3.35,30.05 3.45,30.15 3.55,30.35 3.75,30.55 3.95,30.65 4.15,30.75 	"/>
	
		<polyline fill="none" stroke="#000000" stroke-width="0.5" stroke-linecap="round" stroke-linejoin="round" stroke-miterlimit="10" points="
		4.15,30.75 4.35,30.95 4.65,31.05 4.95,31.15 5.15,31.15 5.45,31.25 5.75,31.35 6.05,31.35 6.35,31.35 6.75,31.35 7.05,31.35 
		7.35,31.35 7.65,31.35 7.95,31.25 8.25,31.15 8.45,31.05 8.75,30.95 9.05,30.85 9.25,30.75 9.45,30.65 9.65,30.45 9.75,30.35 
		9.95,30.15 10.05,29.95 10.15,29.85 10.15,29.65 10.25,29.45 10.25,29.35 	"/>
	
		<polyline fill="none" stroke="#000000" stroke-width="0.5" stroke-linecap="round" stroke-linejoin="round" stroke-miterlimit="10" points="
		3.25,28.75 3.15,28.75 3.15,28.95 3.15,29.15 3.15,29.35 3.15,29.45 3.25,29.65 3.35,29.85 3.45,30.05 3.55,30.15 3.75,30.35 
		3.95,30.45 4.15,30.65 	"/>
	
		<polyline fill="none" stroke="#000000" stroke-width="0.5" stroke-linecap="round" stroke-linejoin="round" stroke-miterlimit="10" points="
		4.15,30.65 4.35,30.75 4.65,30.85 4.95,30.95 5.15,31.05 5.45,31.05 5.75,31.15 6.05,31.15 6.35,31.15 6.75,31.25 7.05,31.15 
		7.35,31.15 7.65,31.15 7.95,31.05 8.25,30.95 8.45,30.95 8.75,30.85 9.05,30.65 9.25,30.55 9.45,30.45 9.65,30.25 9.75,30.15 
		9.95,29.95 10.05,29.85 10.15,29.65 10.15,29.45 10.25,29.25 10.25,29.05 10.15,28.95 10.15,28.75 	"/>
	
		<polyline fill="none" stroke="#000000" stroke-width="0.5" stroke-linecap="round" stroke-linejoin="round" stroke-miterlimit="10" points="
		3.15,28.35 3.15,28.45 3.15,28.65 3.25,28.85 3.35,29.05 3.45,29.15 3.55,29.35 3.75,29.55 3.95,29.65 4.15,29.75 	"/>
	
		<polyline fill="none" stroke="#000000" stroke-width="0.5" stroke-linecap="round" stroke-linejoin="round" stroke-miterlimit="10" points="
		4.15,29.75 4.35,29.95 4.65,30.05 4.95,30.15 5.15,30.15 5.45,30.25 5.75,30.35 6.05,30.35 6.35,30.35 6.75,30.35 7.05,30.35 
		7.35,30.35 7.65,30.35 7.95,30.25 8.25,30.15 8.45,30.05 8.75,29.95 9.05,29.85 9.25,29.75 9.45,29.65 9.65,29.45 9.75,29.35 
		9.95,29.15 10.05,28.95 10.15,28.85 10.15,28.65 10.25,28.45 10.25,28.35 	"/>
	
		<polyline fill="none" stroke="#000000" stroke-width="0.5" stroke-linecap="round" stroke-linejoin="round" stroke-miterlimit="10" points="
		3.25,27.75 3.15,27.75 3.15,27.95 3.15,28.15 3.15,28.35 3.15,28.45 3.25,28.65 3.35,28.85 3.45,29.05 3.55,29.15 3.75,29.35 
		3.95,29.45 4.15,29.65 	"/>
	
		<polyline fill="none" stroke="#000000" stroke-width="0.5" stroke-linecap="round" stroke-linejoin="round" stroke-miterlimit="10" points="
		4.15,29.65 4.35,29.75 4.65,29.85 4.95,29.95 5.15,30.05 5.45,30.05 5.75,30.15 6.05,30.15 6.35,30.15 6.75,30.25 7.05,30.15 
		7.35,30.15 7.65,30.15 7.95,30.05 8.25,29.95 8.45,29.95 8.75,29.85 9.05,29.65 9.25,29.55 9.45,29.45 9.65,29.25 9.75,29.15 
		9.95,28.95 10.05,28.75 10.15,28.65 10.15,28.45 10.25,28.25 10.25,28.05 10.15,27.95 10.15,27.75 	"/>
	
		<polyline fill="none" stroke="#000000" stroke-width="0.5" stroke-linecap="round" stroke-linejoin="round" stroke-miterlimit="10" points="
		3.15,27.35 3.15,27.45 3.15,27.65 3.25,27.85 3.35,28.05 3.45,28.15 3.55,28.35 3.75,28.55 3.95,28.65 4.15,28.75 	"/>
	
		<polyline fill="none" stroke="#000000" stroke-width="0.5" stroke-linecap="round" stroke-linejoin="round" stroke-miterlimit="10" points="
		4.15,28.75 4.35,28.95 4.65,29.05 4.95,29.15 5.15,29.15 5.45,29.25 5.75,29.35 6.05,29.35 6.35,29.35 6.75,29.35 7.05,29.35 
		7.35,29.35 7.65,29.35 7.95,29.25 8.25,29.15 8.45,29.05 8.75,28.95 9.05,28.85 9.25,28.75 9.45,28.65 9.65,28.45 9.75,28.35 
		9.95,28.15 10.05,27.95 10.15,27.85 10.15,27.65 10.25,27.45 10.25,27.35 	"/>
	
		<polyline fill="none" stroke="#000000" stroke-width="0.5" stroke-linecap="round" stroke-linejoin="round" stroke-miterlimit="10" points="
		3.25,26.75 3.15,26.75 3.15,26.95 3.15,27.15 3.15,27.35 3.15,27.45 3.25,27.65 3.35,27.85 3.45,28.05 3.55,28.15 3.75,28.35 
		3.95,28.45 4.15,28.65 	"/>
	
		<polyline fill="none" stroke="#000000" stroke-width="0.5" stroke-linecap="round" stroke-linejoin="round" stroke-miterlimit="10" points="
		4.15,28.65 4.35,28.75 4.65,28.85 4.95,28.95 5.15,29.05 5.45,29.05 5.75,29.15 6.05,29.15 6.35,29.15 6.75,29.15 7.05,29.15 
		7.35,29.15 7.65,29.15 7.95,29.05 8.25,28.95 8.45,28.95 8.75,28.85 9.05,28.65 9.25,28.55 9.45,28.45 9.65,28.25 9.75,28.15 
		9.95,27.95 10.05,27.75 10.15,27.65 10.15,27.45 10.25,27.25 10.25,27.05 10.15,26.95 10.15,26.75 	"/>
	
		<polyline fill="none" stroke="#000000" stroke-width="0.5" stroke-linecap="round" stroke-linejoin="round" stroke-miterlimit="10" points="
		3.15,26.35 3.15,26.45 3.15,26.65 3.25,26.85 3.35,27.05 3.45,27.15 3.55,27.35 3.75,27.55 3.95,27.65 4.15,27.75 	"/>
	
		<polyline fill="none" stroke="#000000" stroke-width="0.5" stroke-linecap="round" stroke-linejoin="round" stroke-miterlimit="10" points="
		4.15,27.75 4.35,27.95 4.65,28.05 4.95,28.15 5.15,28.15 5.45,28.25 5.75,28.35 6.05,28.35 6.35,28.35 6.75,28.35 7.05,28.35 
		7.35,28.35 7.65,28.25 7.95,28.25 8.25,28.15 8.45,28.05 8.75,27.95 9.05,27.85 9.25,27.75 9.45,27.65 9.65,27.45 9.75,27.35 
		9.95,27.15 10.05,26.95 10.15,26.85 10.15,26.65 10.25,26.45 10.25,26.35 	"/>
	
		<polyline fill="none" stroke="#000000" stroke-width="0.5" stroke-linecap="round" stroke-linejoin="round" stroke-miterlimit="10" points="
		3.25,25.75 3.15,25.75 3.15,25.95 3.15,26.15 3.15,26.35 3.15,26.45 3.25,26.65 3.35,26.85 3.45,27.05 3.55,27.15 3.75,27.35 
		3.95,27.45 4.15,27.55 	"/>
	
		<polyline fill="none" stroke="#000000" stroke-width="0.5" stroke-linecap="round" stroke-linejoin="round" stroke-miterlimit="10" points="
		4.15,27.55 4.35,27.75 4.65,27.85 4.95,27.95 5.15,28.05 5.45,28.05 5.75,28.15 6.05,28.15 6.35,28.15 6.75,28.15 7.05,28.15 
		7.35,28.15 7.65,28.15 7.95,28.05 8.25,27.95 8.45,27.95 8.75,27.85 9.05,27.65 9.25,27.55 9.45,27.45 9.65,27.25 9.75,27.15 
		9.95,26.95 10.05,26.75 10.15,26.65 10.15,26.45 10.25,26.25 10.25,26.05 10.15,25.95 10.15,25.75 	"/>
	
		<polyline fill="none" stroke="#000000" stroke-width="0.5" stroke-linecap="round" stroke-linejoin="round" stroke-miterlimit="10" points="
		3.15,25.35 3.15,25.45 3.15,25.65 3.25,25.85 3.35,26.05 3.45,26.15 3.55,26.35 3.75,26.55 3.95,26.65 4.15,26.75 	"/>
	
		<polyline fill="none" stroke="#000000" stroke-width="0.5" stroke-linecap="round" stroke-linejoin="round" stroke-miterlimit="10" points="
		4.15,26.75 4.35,26.85 4.65,27.05 4.95,27.15 5.15,27.15 5.45,27.25 5.75,27.35 6.05,27.35 6.35,27.35 6.75,27.35 7.05,27.35 
		7.35,27.35 7.65,27.25 7.95,27.25 8.25,27.15 8.45,27.05 8.75,26.95 9.05,26.85 9.25,26.75 9.45,26.65 9.65,26.45 9.75,26.35 
		9.95,26.15 10.05,25.95 10.15,25.85 10.15,25.65 10.25,25.45 10.25,25.35 	"/>
	
		<polyline fill="none" stroke="#000000" stroke-width="0.5" stroke-linecap="round" stroke-linejoin="round" stroke-miterlimit="10" points="
		3.25,24.75 3.15,24.75 3.15,24.95 3.15,25.15 3.15,25.35 3.15,25.45 3.25,25.65 3.35,25.85 3.45,26.05 3.55,26.15 3.75,26.35 
		3.95,26.45 4.15,26.55 	"/>
	
		<polyline fill="none" stroke="#000000" stroke-width="0.5" stroke-linecap="round" stroke-linejoin="round" stroke-miterlimit="10" points="
		4.15,26.55 4.35,26.75 4.65,26.85 4.95,26.95 5.15,27.05 5.45,27.05 5.75,27.15 6.05,27.15 6.35,27.15 6.75,27.15 7.05,27.15 
		7.35,27.15 7.65,27.15 7.95,27.05 8.25,26.95 8.45,26.95 8.75,26.85 9.05,26.65 9.25,26.55 9.45,26.45 9.65,26.25 9.75,26.15 
		9.95,25.95 10.05,25.75 10.15,25.65 10.15,25.45 10.25,25.25 10.25,25.05 10.15,24.95 10.15,24.75 	"/>
	
		<polyline fill="none" stroke="#000000" stroke-width="0.5" stroke-linecap="round" stroke-linejoin="round" stroke-miterlimit="10" points="
		3.15,24.35 3.15,24.45 3.15,24.65 3.25,24.85 3.35,25.05 3.45,25.15 3.55,25.35 3.75,25.45 3.95,25.65 4.15,25.75 	"/>
	
		<polyline fill="none" stroke="#000000" stroke-width="0.5" stroke-linecap="round" stroke-linejoin="round" stroke-miterlimit="10" points="
		4.15,25.75 4.35,25.85 4.65,26.05 4.95,26.15 5.15,26.15 5.45,26.25 5.75,26.35 6.05,26.35 6.35,26.35 6.75,26.35 7.05,26.35 
		7.35,26.35 7.65,26.25 7.95,26.25 8.25,26.15 8.45,26.05 8.75,25.95 9.05,25.85 9.25,25.75 9.45,25.65 9.65,25.45 9.75,25.35 
		9.95,25.15 10.05,24.95 10.15,24.85 10.15,24.65 10.25,24.45 10.25,24.35 	"/>
	
		<polyline fill="none" stroke="#000000" stroke-width="0.5" stroke-linecap="round" stroke-linejoin="round" stroke-miterlimit="10" points="
		3.25,23.75 3.15,23.75 3.15,23.95 3.15,24.15 3.15,24.35 3.15,24.45 3.25,24.65 3.35,24.85 3.45,25.05 3.55,25.15 3.75,25.35 
		3.95,25.45 4.15,25.55 	"/>
	
		<polyline fill="none" stroke="#000000" stroke-width="0.5" stroke-linecap="round" stroke-linejoin="round" stroke-miterlimit="10" points="
		4.15,25.55 4.35,25.75 4.65,25.85 4.95,25.95 5.15,26.05 5.45,26.05 5.75,26.15 6.05,26.15 6.35,26.15 6.75,26.15 7.05,26.15 
		7.35,26.15 7.65,26.15 7.95,26.05 8.25,25.95 8.45,25.95 8.75,25.85 9.05,25.65 9.25,25.55 9.45,25.45 9.65,25.25 9.75,25.15 
		9.95,24.95 10.05,24.75 10.15,24.65 10.15,24.45 10.25,24.25 10.25,24.05 10.15,23.95 10.15,23.75 	"/>
	
		<polyline fill="none" stroke="#000000" stroke-width="0.5" stroke-linecap="round" stroke-linejoin="round" stroke-miterlimit="10" points="
		3.15,23.35 3.15,23.45 3.15,23.65 3.25,23.85 3.35,24.05 3.45,24.15 3.55,24.35 3.75,24.45 3.95,24.65 4.15,24.75 	"/>
	
		<polyline fill="none" stroke="#000000" stroke-width="0.5" stroke-linecap="round" stroke-linejoin="round" stroke-miterlimit="10" points="
		4.15,24.75 4.35,24.85 4.65,25.05 4.95,25.15 5.15,25.15 5.45,25.25 5.75,25.35 6.05,25.35 6.35,25.35 6.75,25.35 7.05,25.35 
		7.35,25.35 7.65,25.25 7.95,25.25 8.25,25.15 8.45,25.05 8.75,24.95 9.05,24.85 9.25,24.75 9.45,24.65 9.65,24.45 9.75,24.35 
		9.95,24.15 10.05,23.95 10.15,23.75 10.15,23.65 10.25,23.45 10.25,23.35 	"/>
	
		<polyline fill="none" stroke="#000000" stroke-width="0.5" stroke-linecap="round" stroke-linejoin="round" stroke-miterlimit="10" points="
		3.25,22.75 3.15,22.75 3.15,22.95 3.15,23.15 3.15,23.35 3.15,23.45 3.25,23.65 3.35,23.85 3.45,24.05 3.55,24.15 3.75,24.35 
		3.95,24.45 4.15,24.55 	"/>
	
		<polyline fill="none" stroke="#000000" stroke-width="0.5" stroke-linecap="round" stroke-linejoin="round" stroke-miterlimit="10" points="
		4.15,24.55 4.35,24.75 4.65,24.85 4.95,24.95 5.15,25.05 5.45,25.05 5.75,25.15 6.05,25.15 6.35,25.15 6.75,25.15 7.05,25.15 
		7.35,25.15 7.65,25.15 7.95,25.05 8.25,24.95 8.45,24.95 8.75,24.85 9.05,24.65 9.25,24.55 9.45,24.45 9.65,24.25 9.75,24.15 
		9.95,23.95 10.05,23.75 10.15,23.65 10.15,23.45 10.25,23.25 10.25,23.05 10.15,22.95 10.15,22.75 	"/>
	
		<polyline fill="none" stroke="#000000" stroke-width="0.5" stroke-linecap="round" stroke-linejoin="round" stroke-miterlimit="10" points="
		3.15,22.35 3.15,22.45 3.15,22.65 3.25,22.85 3.35,23.05 3.45,23.15 3.55,23.35 3.75,23.45 3.95,23.65 4.15,23.75 	"/>
	
		<polyline fill="none" stroke="#000000" stroke-width="0.5" stroke-linecap="round" stroke-linejoin="round" stroke-miterlimit="10" points="
		4.15,23.75 4.35,23.85 4.65,24.05 4.95,24.15 5.15,24.15 5.45,24.25 5.75,24.35 6.05,24.35 6.35,24.35 6.75,24.35 7.05,24.35 
		7.35,24.35 7.65,24.25 7.95,24.25 8.25,24.15 8.45,24.05 8.75,23.95 9.05,23.85 9.25,23.75 9.45,23.65 9.65,23.45 9.75,23.35 
		9.95,23.15 10.05,22.95 10.15,22.75 10.15,22.65 10.25,22.45 10.25,22.35 	"/>
	
		<polyline fill="none" stroke="#000000" stroke-width="0.5" stroke-linecap="round" stroke-linejoin="round" stroke-miterlimit="10" points="
		3.25,21.75 3.15,21.75 3.15,21.95 3.15,22.15 3.15,22.35 3.15,22.45 3.25,22.65 3.35,22.85 3.45,23.05 3.55,23.15 3.75,23.35 
		3.95,23.45 4.15,23.55 	"/>
	
		<polyline fill="none" stroke="#000000" stroke-width="0.5" stroke-linecap="round" stroke-linejoin="round" stroke-miterlimit="10" points="
		4.15,23.55 4.35,23.75 4.65,23.85 4.95,23.95 5.15,24.05 5.45,24.05 5.75,24.15 6.05,24.15 6.35,24.15 6.75,24.15 7.05,24.15 
		7.35,24.15 7.65,24.15 7.95,24.05 8.25,23.95 8.45,23.95 8.75,23.85 9.05,23.65 9.25,23.55 9.45,23.45 9.65,23.25 9.75,23.15 
		9.95,22.95 10.05,22.75 10.15,22.65 10.15,22.45 10.25,22.25 10.25,22.05 10.15,21.95 10.15,21.75 	"/>
	
		<polyline fill="none" stroke="#000000" stroke-width="0.5" stroke-linecap="round" stroke-linejoin="round" stroke-miterlimit="10" points="
		3.15,21.35 3.15,21.45 3.15,21.65 3.25,21.85 3.35,22.05 3.45,22.15 3.55,22.35 3.75,22.45 3.95,22.65 4.15,22.75 	"/>
	
		<polyline fill="none" stroke="#000000" stroke-width="0.5" stroke-linecap="round" stroke-linejoin="round" stroke-miterlimit="10" points="
		4.15,22.75 4.35,22.85 4.65,23.05 4.95,23.15 5.15,23.15 5.45,23.25 5.75,23.35 6.05,23.35 6.35,23.35 6.75,23.35 7.05,23.35 
		7.35,23.35 7.65,23.25 7.95,23.25 8.25,23.15 8.45,23.05 8.75,22.95 9.05,22.85 9.25,22.75 9.45,22.65 9.65,22.45 9.75,22.35 
		9.95,22.15 10.05,21.95 10.15,21.75 10.15,21.65 10.25,21.45 10.25,21.35 	"/>
	
		<polyline fill="none" stroke="#000000" stroke-width="0.5" stroke-linecap="round" stroke-linejoin="round" stroke-miterlimit="10" points="
		3.25,20.75 3.15,20.75 3.15,20.95 3.15,21.15 3.15,21.35 3.15,21.45 3.25,21.65 3.35,21.85 3.45,22.05 3.55,22.15 3.75,22.35 
		3.95,22.45 4.15,22.55 	"/>
	
		<polyline fill="none" stroke="#000000" stroke-width="0.5" stroke-linecap="round" stroke-linejoin="round" stroke-miterlimit="10" points="
		4.15,22.55 4.35,22.75 4.65,22.85 4.95,22.95 5.15,23.05 5.45,23.05 5.75,23.15 6.05,23.15 6.35,23.15 6.75,23.15 7.05,23.15 
		7.35,23.15 7.65,23.15 7.95,23.05 8.25,22.95 8.45,22.85 8.75,22.75 9.05,22.65 9.25,22.55 9.45,22.45 9.65,22.25 9.75,22.15 
		9.95,21.95 10.05,21.75 10.15,21.65 10.15,21.45 10.25,21.25 10.25,21.05 10.15,20.85 10.15,20.75 	"/>
	
		<polyline fill="none" stroke="#000000" stroke-width="0.5" stroke-linecap="round" stroke-linejoin="round" stroke-miterlimit="10" points="
		3.15,20.35 3.15,20.45 3.15,20.65 3.25,20.85 3.35,21.05 3.45,21.15 3.55,21.35 3.75,21.45 3.95,21.65 4.15,21.75 	"/>
	
		<polyline fill="none" stroke="#000000" stroke-width="0.5" stroke-linecap="round" stroke-linejoin="round" stroke-miterlimit="10" points="
		4.15,21.75 4.35,21.85 4.65,22.05 4.95,22.15 5.15,22.15 5.45,22.25 5.75,22.35 6.05,22.35 6.35,22.35 6.75,22.35 7.05,22.35 
		7.35,22.35 7.65,22.25 7.95,22.25 8.25,22.15 8.45,22.05 8.75,21.95 9.05,21.85 9.25,21.75 9.45,21.65 9.65,21.45 9.75,21.35 
		9.95,21.15 10.05,20.95 10.15,20.75 10.15,20.65 10.25,20.45 10.25,20.35 	"/>
	
		<polyline fill="none" stroke="#000000" stroke-width="0.5" stroke-linecap="round" stroke-linejoin="round" stroke-miterlimit="10" points="
		3.25,19.75 3.15,19.75 3.15,19.95 3.15,20.15 3.15,20.35 3.15,20.45 3.25,20.65 3.35,20.85 3.45,21.05 3.55,21.15 3.75,21.35 
		3.95,21.45 4.15,21.55 	"/>
	
		<polyline fill="none" stroke="#000000" stroke-width="0.5" stroke-linecap="round" stroke-linejoin="round" stroke-miterlimit="10" points="
		4.15,21.55 4.35,21.75 4.65,21.85 4.95,21.95 5.15,22.05 5.45,22.05 5.75,22.15 6.05,22.15 6.35,22.15 6.75,22.15 7.05,22.15 
		7.35,22.15 7.65,22.15 7.95,22.05 8.25,21.95 8.45,21.85 8.75,21.75 9.05,21.65 9.25,21.55 9.45,21.45 9.65,21.25 9.75,21.15 
		9.95,20.95 10.05,20.75 10.15,20.65 10.15,20.45 10.25,20.25 10.25,20.05 10.15,19.85 10.15,19.75 	"/>
	
		<polyline fill="none" stroke="#000000" stroke-width="0.5" stroke-linecap="round" stroke-linejoin="round" stroke-miterlimit="10" points="
		3.15,19.35 3.15,19.45 3.15,19.65 3.25,19.85 3.35,20.05 3.45,20.15 3.55,20.35 3.75,20.45 3.95,20.65 4.15,20.75 	"/>
	
		<polyline fill="none" stroke="#000000" stroke-width="0.5" stroke-linecap="round" stroke-linejoin="round" stroke-miterlimit="10" points="
		4.15,20.75 4.35,20.85 4.65,21.05 4.95,21.05 5.15,21.15 5.45,21.25 5.75,21.35 6.05,21.35 6.35,21.35 6.75,21.35 7.05,21.35 
		7.35,21.35 7.65,21.25 7.95,21.25 8.25,21.15 8.45,21.05 8.75,20.95 9.05,20.85 9.25,20.75 9.45,20.65 9.65,20.45 9.75,20.35 
		9.95,20.15 10.05,19.95 10.15,19.75 10.15,19.65 10.25,19.45 10.25,19.35 	"/>
	
		<polyline fill="none" stroke="#000000" stroke-width="0.5" stroke-linecap="round" stroke-linejoin="round" stroke-miterlimit="10" points="
		3.25,18.75 3.15,18.75 3.15,18.95 3.15,19.15 3.15,19.35 3.15,19.45 3.25,19.65 3.35,19.85 3.45,20.05 3.55,20.15 3.75,20.35 
		3.95,20.45 4.15,20.55 	"/>
	
		<polyline fill="none" stroke="#000000" stroke-width="0.5" stroke-linecap="round" stroke-linejoin="round" stroke-miterlimit="10" points="
		4.15,20.55 4.35,20.75 4.65,20.85 4.95,20.95 5.15,21.05 5.45,21.05 5.75,21.15 6.05,21.15 6.35,21.15 6.75,21.15 7.05,21.15 
		7.35,21.15 7.65,21.15 7.95,21.05 8.25,20.95 8.45,20.85 8.75,20.75 9.05,20.65 9.25,20.55 9.45,20.45 9.65,20.25 9.75,20.15 
		9.95,19.95 10.05,19.75 10.15,19.65 10.15,19.45 10.25,19.25 10.25,19.05 10.15,18.85 10.15,18.75 	"/>
	
		<polyline fill="none" stroke="#000000" stroke-width="0.5" stroke-linecap="round" stroke-linejoin="round" stroke-miterlimit="10" points="
		3.15,18.35 3.15,18.45 3.15,18.65 3.25,18.85 3.35,19.05 3.45,19.15 3.55,19.35 3.75,19.45 3.95,19.65 4.15,19.75 	"/>
	
		<polyline fill="none" stroke="#000000" stroke-width="0.5" stroke-linecap="round" stroke-linejoin="round" stroke-miterlimit="10" points="
		4.15,19.75 4.35,19.85 4.65,20.05 4.95,20.05 5.15,20.15 5.45,20.25 5.75,20.35 6.05,20.35 6.35,20.35 6.75,20.35 7.05,20.35 
		7.35,20.35 7.65,20.25 7.95,20.25 8.25,20.15 8.45,20.05 8.75,19.95 9.05,19.85 9.25,19.75 9.45,19.65 9.65,19.45 9.75,19.35 
		9.95,19.15 10.05,18.95 10.15,18.75 10.15,18.65 10.25,18.45 10.25,18.35 	"/>
	
		<polyline fill="none" stroke="#000000" stroke-width="0.5" stroke-linecap="round" stroke-linejoin="round" stroke-miterlimit="10" points="
		3.25,17.75 3.15,17.75 3.15,17.95 3.15,18.15 3.15,18.35 3.15,18.45 3.25,18.65 3.35,18.85 3.45,18.95 3.55,19.15 3.75,19.35 
		3.95,19.45 4.15,19.55 	"/>
	
		<polyline fill="none" stroke="#000000" stroke-width="0.5" stroke-linecap="round" stroke-linejoin="round" stroke-miterlimit="10" points="
		4.15,19.55 4.35,19.75 4.65,19.85 4.95,19.95 5.15,20.05 5.45,20.05 5.75,20.15 6.05,20.15 6.35,20.15 6.75,20.15 7.05,20.15 
		7.35,20.15 7.65,20.15 7.95,20.05 8.25,19.95 8.45,19.85 8.75,19.75 9.05,19.65 9.25,19.55 9.45,19.45 9.65,19.25 9.75,19.15 
		9.95,18.95 10.05,18.75 10.15,18.65 10.15,18.45 10.25,18.25 10.25,18.05 10.15,17.85 10.15,17.75 	"/>
	
		<polyline fill="none" stroke="#000000" stroke-width="0.5" stroke-linecap="round" stroke-linejoin="round" stroke-miterlimit="10" points="
		3.15,17.35 3.15,17.45 3.15,17.65 3.25,17.85 3.35,18.05 3.45,18.15 3.55,18.35 3.75,18.45 3.95,18.65 4.15,18.75 	"/>
	
		<polyline fill="none" stroke="#000000" stroke-width="0.5" stroke-linecap="round" stroke-linejoin="round" stroke-miterlimit="10" points="
		4.15,18.75 4.35,18.85 4.65,19.05 4.95,19.05 5.15,19.15 5.45,19.25 5.75,19.35 6.05,19.35 6.35,19.35 6.75,19.35 7.05,19.35 
		7.35,19.35 7.65,19.25 7.95,19.25 8.25,19.15 8.45,19.05 8.75,18.95 9.05,18.85 9.25,18.75 9.45,18.65 9.65,18.45 9.75,18.25 
		9.95,18.15 10.05,17.95 10.15,17.75 10.15,17.65 10.25,17.45 10.25,17.35 	"/>
	
		<polyline fill="none" stroke="#000000" stroke-width="0.5" stroke-linecap="round" stroke-linejoin="round" stroke-miterlimit="10" points="
		3.25,16.75 3.15,16.75 3.15,16.95 3.15,17.15 3.15,17.35 3.15,17.45 3.25,17.65 3.35,17.85 3.45,17.95 3.55,18.15 3.75,18.35 
		3.95,18.45 4.15,18.55 	"/>
	
		<polyline fill="none" stroke="#000000" stroke-width="0.5" stroke-linecap="round" stroke-linejoin="round" stroke-miterlimit="10" points="
		4.15,18.55 4.35,18.75 4.65,18.85 4.95,18.95 5.15,19.05 5.45,19.05 5.75,19.15 6.05,19.15 6.35,19.15 6.75,19.15 7.05,19.15 
		7.35,19.15 7.65,19.15 7.95,19.05 8.25,18.95 8.45,18.85 8.75,18.75 9.05,18.65 9.25,18.55 9.45,18.45 9.65,18.25 9.75,18.15 
		9.95,17.95 10.05,17.75 10.15,17.65 10.15,17.45 10.25,17.25 10.25,17.05 10.15,16.85 10.15,16.75 	"/>
	
		<polyline fill="none" stroke="#000000" stroke-width="0.5" stroke-linecap="round" stroke-linejoin="round" stroke-miterlimit="10" points="
		3.15,16.35 3.15,16.45 3.15,16.65 3.25,16.85 3.35,17.05 3.45,17.15 3.55,17.35 3.75,17.45 3.95,17.65 4.15,17.75 	"/>
	
		<polyline fill="none" stroke="#000000" stroke-width="0.5" stroke-linecap="round" stroke-linejoin="round" stroke-miterlimit="10" points="
		4.15,17.75 4.35,17.85 4.65,17.95 4.95,18.05 5.15,18.15 5.45,18.25 5.75,18.35 6.05,18.35 6.35,18.35 6.75,18.35 7.05,18.35 
		7.35,18.35 7.65,18.25 7.95,18.25 8.25,18.15 8.45,18.05 8.75,17.95 9.05,17.85 9.25,17.75 9.45,17.55 9.65,17.45 9.75,17.25 
		9.95,17.15 10.05,16.95 10.15,16.75 10.15,16.65 10.25,16.45 10.25,16.35 	"/>
	
		<polyline fill="none" stroke="#000000" stroke-width="0.5" stroke-linecap="round" stroke-linejoin="round" stroke-miterlimit="10" points="
		3.25,15.75 3.15,15.75 3.15,15.95 3.15,16.15 3.15,16.35 3.15,16.45 3.25,16.65 3.35,16.85 3.45,16.95 3.55,17.15 3.75,17.35 
		3.95,17.45 4.15,17.55 	"/>
	
		<polyline fill="none" stroke="#000000" stroke-width="0.5" stroke-linecap="round" stroke-linejoin="round" stroke-miterlimit="10" points="
		4.15,17.55 4.35,17.75 4.65,17.85 4.95,17.95 5.15,18.05 5.45,18.05 5.75,18.15 6.05,18.15 6.35,18.15 6.75,18.15 7.05,18.15 
		7.35,18.15 7.65,18.15 7.95,18.05 8.25,17.95 8.45,17.85 8.75,17.75 9.05,17.65 9.25,17.55 9.45,17.45 9.65,17.25 9.75,17.15 
		9.95,16.95 10.05,16.75 10.15,16.65 10.15,16.45 10.25,16.25 10.25,16.05 10.15,15.85 10.15,15.75 	"/>
	
		<polyline fill="none" stroke="#000000" stroke-width="0.5" stroke-linecap="round" stroke-linejoin="round" stroke-miterlimit="10" points="
		3.15,15.35 3.15,15.45 3.15,15.65 3.25,15.85 3.35,16.05 3.45,16.15 3.55,16.35 3.75,16.45 3.95,16.65 4.15,16.75 	"/>
	
		<polyline fill="none" stroke="#000000" stroke-width="0.5" stroke-linecap="round" stroke-linejoin="round" stroke-miterlimit="10" points="
		4.15,16.75 4.35,16.85 4.65,16.95 4.95,17.05 5.15,17.15 5.45,17.25 5.75,17.35 6.05,17.35 6.35,17.35 6.75,17.35 7.05,17.35 
		7.35,17.35 7.65,17.25 7.95,17.25 8.25,17.15 8.45,17.05 8.75,16.95 9.05,16.85 9.25,16.75 9.45,16.55 9.65,16.45 9.75,16.25 
		9.95,16.15 10.05,15.95 10.15,15.75 10.15,15.65 10.25,15.45 10.25,15.35 	"/>
	
		<polyline fill="none" stroke="#000000" stroke-width="0.5" stroke-linecap="round" stroke-linejoin="round" stroke-miterlimit="10" points="
		3.25,14.75 3.15,14.75 3.15,14.95 3.15,15.15 3.15,15.25 3.15,15.45 3.25,15.65 3.35,15.85 3.45,15.95 3.55,16.15 3.75,16.35 
		3.95,16.45 4.15,16.55 	"/>
	
		<polyline fill="none" stroke="#000000" stroke-width="0.5" stroke-linecap="round" stroke-linejoin="round" stroke-miterlimit="10" points="
		4.15,16.55 4.35,16.75 4.65,16.85 4.95,16.95 5.15,16.95 5.45,17.05 5.75,17.15 6.05,17.15 6.35,17.15 6.75,17.15 7.05,17.15 
		7.35,17.15 7.65,17.15 7.95,17.05 8.25,16.95 8.45,16.85 8.75,16.75 9.05,16.65 9.25,16.55 9.45,16.45 9.65,16.25 9.75,16.15 
		9.95,15.95 10.05,15.75 10.15,15.65 10.15,15.45 10.25,15.25 10.25,15.05 10.15,14.85 10.15,14.75 	"/>
	
		<polyline fill="none" stroke="#000000" stroke-width="0.5" stroke-linecap="round" stroke-linejoin="round" stroke-miterlimit="10" points="
		3.15,14.35 3.15,14.45 3.15,14.65 3.25,14.85 3.35,15.05 3.45,15.15 3.55,15.35 3.75,15.45 3.95,15.65 4.15,15.75 	"/>
	
		<polyline fill="none" stroke="#000000" stroke-width="0.5" stroke-linecap="round" stroke-linejoin="round" stroke-miterlimit="10" points="
		4.15,15.75 4.35,15.85 4.65,15.95 4.95,16.05 5.15,16.15 5.45,16.25 5.75,16.25 6.05,16.35 6.35,16.35 6.75,16.35 7.05,16.35 
		7.35,16.35 7.65,16.25 7.95,16.25 8.25,16.15 8.45,16.05 8.75,15.95 9.05,15.85 9.25,15.75 9.45,15.55 9.65,15.45 9.75,15.25 
		9.95,15.15 10.05,14.95 10.15,14.75 10.15,14.65 10.25,14.45 10.25,14.35 	"/>
	
		<polyline fill="none" stroke="#000000" stroke-width="0.5" stroke-linecap="round" stroke-linejoin="round" stroke-miterlimit="10" points="
		3.25,13.75 3.15,13.75 3.15,13.95 3.15,14.15 3.15,14.25 3.15,14.45 3.25,14.65 3.35,14.85 3.45,14.95 3.55,15.15 3.75,15.35 
		3.95,15.45 4.15,15.55 	"/>
	
		<polyline fill="none" stroke="#000000" stroke-width="0.5" stroke-linecap="round" stroke-linejoin="round" stroke-miterlimit="10" points="
		4.15,15.55 4.35,15.75 4.65,15.85 4.95,15.95 5.15,15.95 5.45,16.05 5.75,16.15 6.05,16.15 6.35,16.15 6.75,16.15 7.05,16.15 
		7.35,16.15 7.65,16.15 7.95,16.05 8.25,15.95 8.45,15.85 8.75,15.75 9.05,15.65 9.25,15.55 9.45,15.45 9.65,15.25 9.75,15.15 
		9.95,14.95 10.05,14.75 10.15,14.65 10.15,14.45 10.25,14.25 10.25,14.05 10.15,13.85 10.15,13.75 	"/>
	
		<polyline fill="none" stroke="#000000" stroke-width="0.5" stroke-linecap="round" stroke-linejoin="round" stroke-miterlimit="10" points="
		3.15,13.35 3.15,13.45 3.15,13.65 3.25,13.85 3.35,14.05 3.45,14.15 3.55,14.35 3.75,14.45 3.95,14.65 4.15,14.75 	"/>
	
		<polyline fill="none" stroke="#000000" stroke-width="0.5" stroke-linecap="round" stroke-linejoin="round" stroke-miterlimit="10" points="
		4.15,14.75 4.35,14.85 4.65,14.95 4.95,15.05 5.15,15.15 5.45,15.25 5.75,15.25 6.05,15.35 6.35,15.35 6.75,15.35 7.05,15.35 
		7.35,15.35 7.65,15.25 7.95,15.25 8.25,15.15 8.45,15.05 8.75,14.95 9.05,14.85 9.25,14.75 9.45,14.55 9.65,14.45 9.75,14.25 
		9.95,14.15 10.05,13.95 10.15,13.75 10.15,13.65 10.25,13.45 10.25,13.35 	"/>
	
		<polyline fill="none" stroke="#000000" stroke-width="0.5" stroke-linecap="round" stroke-linejoin="round" stroke-miterlimit="10" points="
		3.25,12.75 3.15,12.75 3.15,12.95 3.15,13.15 3.15,13.25 3.15,13.45 3.25,13.65 3.35,13.85 3.45,13.95 3.55,14.15 3.75,14.35 
		3.95,14.45 4.15,14.55 	"/>
	
		<polyline fill="none" stroke="#000000" stroke-width="0.5" stroke-linecap="round" stroke-linejoin="round" stroke-miterlimit="10" points="
		4.15,14.55 4.35,14.75 4.65,14.85 4.95,14.95 5.15,14.95 5.45,15.05 5.75,15.15 6.05,15.15 6.35,15.15 6.75,15.15 7.05,15.15 
		7.35,15.15 7.65,15.15 7.95,15.05 8.25,14.95 8.45,14.85 8.75,14.75 9.05,14.65 9.25,14.55 9.45,14.45 9.65,14.25 9.75,14.15 
		9.95,13.95 10.05,13.75 10.15,13.65 10.15,13.45 10.25,13.25 10.25,13.05 10.15,12.85 10.15,12.75 	"/>
	
		<line fill="none" stroke="#000000" stroke-width="0.5" stroke-linecap="round" stroke-linejoin="round" stroke-miterlimit="10" x1="7.45" y1="4.75" x2="5.85" y2="4.45"/>
	
		<line fill="none" stroke="#000000" stroke-width="0.5" stroke-linecap="round" stroke-linejoin="round" stroke-miterlimit="10" x1="8.75" y1="4.95" x2="7.45" y2="4.75"/>
	
		<line fill="none" stroke="#000000" stroke-width="0.5" stroke-linecap="round" stroke-linejoin="round" stroke-miterlimit="10" x1="4.65" y1="5.15" x2="4.55" y2="5.25"/>
	
		<line fill="none" stroke="#000000" stroke-width="0.5" stroke-linecap="round" stroke-linejoin="round" stroke-miterlimit="10" x1="5.85" y1="4.45" x2="4.65" y2="5.15"/>
	
		<line fill="none" stroke="#000000" stroke-width="0.5" stroke-linecap="round" stroke-linejoin="round" stroke-miterlimit="10" x1="5.85" y1="4.45" x2="5.85" y2="1.95"/>
	
		<polyline fill="none" stroke="#000000" stroke-width="0.5" stroke-linecap="round" stroke-linejoin="round" stroke-miterlimit="10" points="
		3.15,12.65 3.25,12.85 3.35,13.05 3.45,13.15 3.55,13.35 3.75,13.45 3.95,13.65 4.15,13.75 	"/>
	
		<polyline fill="none" stroke="#000000" stroke-width="0.5" stroke-linecap="round" stroke-linejoin="round" stroke-miterlimit="10" points="
		4.15,13.75 4.35,13.85 4.65,13.95 4.95,14.05 5.15,14.15 5.45,14.25 5.75,14.25 6.05,14.35 6.35,14.35 6.75,14.35 7.05,14.35 
		7.35,14.35 7.65,14.25 7.95,14.25 8.25,14.15 8.45,14.05 8.75,13.95 9.05,13.85 9.25,13.75 9.45,13.55 9.65,13.45 9.75,13.25 
		9.95,13.15 10.05,12.95 10.15,12.75 10.15,12.65 	"/>
	
		<line fill="none" stroke="#000000" stroke-width="0.5" stroke-linecap="round" stroke-linejoin="round" stroke-miterlimit="10" x1="9.05" y1="4.85" x2="9.05" y2="2.45"/>
	
		<polyline fill="none" stroke="#000000" stroke-width="0.5" stroke-linecap="round" stroke-linejoin="round" stroke-miterlimit="10" points="
		8.55,5.05 8.45,5.05 8.25,4.95 7.95,4.85 7.75,4.85 7.45,4.75 	"/>
	
		<polyline fill="none" stroke="#000000" stroke-width="0.5" stroke-linecap="round" stroke-linejoin="round" stroke-miterlimit="10" points="
		7.45,4.75 7.15,4.75 6.85,4.65 6.55,4.65 6.25,4.75 5.95,4.75 5.65,4.85 5.35,4.85 5.05,4.95 4.85,5.05 4.65,5.15 	"/>
	
		<line fill="none" stroke="#000000" stroke-width="0.5" stroke-linecap="round" stroke-linejoin="round" stroke-miterlimit="10" x1="4.65" y1="5.15" x2="4.55" y2="5.25"/>
	
		<line fill="none" stroke="#000000" stroke-width="0.5" stroke-linecap="round" stroke-linejoin="round" stroke-miterlimit="10" x1="9.05" y1="2.45" x2="9.95" y2="4.35"/>
	
		<line fill="none" stroke="#000000" stroke-width="0.5" stroke-linecap="round" stroke-linejoin="round" stroke-miterlimit="10" x1="7.55" y1="5.65" x2="9.95" y2="4.35"/>
	
		<line fill="none" stroke="#000000" stroke-width="0.5" stroke-linecap="round" stroke-linejoin="round" stroke-miterlimit="10" x1="7.55" y1="5.65" x2="4.35" y2="5.15"/>
	
		<line fill="none" stroke="#000000" stroke-width="0.5" stroke-linecap="round" stroke-linejoin="round" stroke-miterlimit="10" x1="4.35" y1="5.15" x2="3.45" y2="3.35"/>
	
		<line fill="none" stroke="#000000" stroke-width="0.5" stroke-linecap="round" stroke-linejoin="round" stroke-miterlimit="10" x1="5.85" y1="1.95" x2="3.45" y2="3.35"/>
	
		<line fill="none" stroke="#000000" stroke-width="0.5" stroke-linecap="round" stroke-linejoin="round" stroke-miterlimit="10" x1="9.05" y1="2.45" x2="5.85" y2="1.95"/>
	
		<polyline fill="none" stroke="#000000" stroke-width="0.5" stroke-linecap="round" stroke-linejoin="round" stroke-miterlimit="10" points="
		0.25,9.65 0.35,9.85 0.35,10.05 0.45,10.35 0.55,10.55 0.65,10.75 0.75,11.05 0.95,11.25 1.15,11.45 1.35,11.65 1.65,11.85 
		1.85,12.05 2.15,12.25 2.45,12.35 2.75,12.55 3.15,12.65 3.45,12.75 3.85,12.95 4.25,13.05 4.65,13.05 5.05,13.15 5.45,13.25 
		5.85,13.25 6.25,13.25 6.65,13.25 7.05,13.25 7.55,13.25 7.95,13.25 8.35,13.15 8.75,13.05 9.15,13.05 9.45,12.95 9.85,12.75 
		10.25,12.65 10.55,12.55 10.85,12.35 11.15,12.25 	"/>
	
		<polyline fill="none" stroke="#000000" stroke-width="0.5" stroke-linecap="round" stroke-linejoin="round" stroke-miterlimit="10" points="
		11.15,12.25 11.45,12.05 11.75,11.85 11.95,11.65 12.15,11.45 12.35,11.25 12.55,11.05 12.75,10.75 12.85,10.55 12.95,10.35 
		12.95,10.05 13.05,9.85 13.05,9.65 	"/>
	
		<line fill="none" stroke="#000000" stroke-width="0.5" stroke-linecap="round" stroke-linejoin="round" stroke-miterlimit="10" x1="13.05" y1="4.05" x2="13.05" y2="4.15"/>
	
		<line fill="none" stroke="#000000" stroke-width="0.5" stroke-linecap="round" stroke-linejoin="round" stroke-miterlimit="10" x1="8.65" y1="33.95" x2="9.15" y2="33.65"/>
	
		<line fill="none" stroke="#000000" stroke-width="0.5" stroke-linecap="round" stroke-linejoin="round" stroke-miterlimit="10" x1="4.15" y1="33.65" x2="4.65" y2="33.95"/>
	
		<line fill="none" stroke="#000000" stroke-width="0.5" stroke-linecap="round" stroke-linejoin="round" stroke-miterlimit="10" x1="10.25" y1="32.15" x2="10.25" y2="32.15"/>
	
		<line fill="none" stroke="#000000" stroke-width="0.5" stroke-linecap="round" stroke-linejoin="round" stroke-miterlimit="10" x1="3.15" y1="32.15" x2="3.15" y2="32.15"/>
	
		<line fill="none" stroke="#000000" stroke-width="0.5" stroke-linecap="round" stroke-linejoin="round" stroke-miterlimit="10" x1="10.25" y1="31.35" x2="10.25" y2="31.15"/>
	
		<line fill="none" stroke="#000000" stroke-width="0.5" stroke-linecap="round" stroke-linejoin="round" stroke-miterlimit="10" x1="3.15" y1="31.15" x2="3.15" y2="31.35"/>
	
		<line fill="none" stroke="#000000" stroke-width="0.5" stroke-linecap="round" stroke-linejoin="round" stroke-miterlimit="10" x1="10.25" y1="30.35" x2="10.25" y2="30.15"/>
	
		<line fill="none" stroke="#000000" stroke-width="0.5" stroke-linecap="round" stroke-linejoin="round" stroke-miterlimit="10" x1="3.15" y1="30.15" x2="3.15" y2="30.35"/>
	
		<line fill="none" stroke="#000000" stroke-width="0.5" stroke-linecap="round" stroke-linejoin="round" stroke-miterlimit="10" x1="10.25" y1="29.35" x2="10.25" y2="29.15"/>
	
		<line fill="none" stroke="#000000" stroke-width="0.5" stroke-linecap="round" stroke-linejoin="round" stroke-miterlimit="10" x1="3.15" y1="29.15" x2="3.15" y2="29.35"/>
	
		<line fill="none" stroke="#000000" stroke-width="0.5" stroke-linecap="round" stroke-linejoin="round" stroke-miterlimit="10" x1="10.25" y1="28.35" x2="10.25" y2="28.15"/>
	
		<line fill="none" stroke="#000000" stroke-width="0.5" stroke-linecap="round" stroke-linejoin="round" stroke-miterlimit="10" x1="3.15" y1="28.15" x2="3.15" y2="28.35"/>
	
		<line fill="none" stroke="#000000" stroke-width="0.5" stroke-linecap="round" stroke-linejoin="round" stroke-miterlimit="10" x1="10.25" y1="27.35" x2="10.25" y2="27.15"/>
	
		<line fill="none" stroke="#000000" stroke-width="0.5" stroke-linecap="round" stroke-linejoin="round" stroke-miterlimit="10" x1="3.15" y1="27.15" x2="3.15" y2="27.35"/>
	
		<line fill="none" stroke="#000000" stroke-width="0.5" stroke-linecap="round" stroke-linejoin="round" stroke-miterlimit="10" x1="10.25" y1="26.35" x2="10.25" y2="26.15"/>
	
		<line fill="none" stroke="#000000" stroke-width="0.5" stroke-linecap="round" stroke-linejoin="round" stroke-miterlimit="10" x1="3.15" y1="26.15" x2="3.15" y2="26.35"/>
	
		<line fill="none" stroke="#000000" stroke-width="0.5" stroke-linecap="round" stroke-linejoin="round" stroke-miterlimit="10" x1="10.25" y1="25.35" x2="10.25" y2="25.15"/>
	
		<line fill="none" stroke="#000000" stroke-width="0.5" stroke-linecap="round" stroke-linejoin="round" stroke-miterlimit="10" x1="3.15" y1="25.15" x2="3.15" y2="25.35"/>
	
		<line fill="none" stroke="#000000" stroke-width="0.5" stroke-linecap="round" stroke-linejoin="round" stroke-miterlimit="10" x1="10.25" y1="24.35" x2="10.25" y2="24.15"/>
	
		<line fill="none" stroke="#000000" stroke-width="0.5" stroke-linecap="round" stroke-linejoin="round" stroke-miterlimit="10" x1="3.15" y1="24.15" x2="3.15" y2="24.35"/>
	
		<line fill="none" stroke="#000000" stroke-width="0.5" stroke-linecap="round" stroke-linejoin="round" stroke-miterlimit="10" x1="10.25" y1="23.35" x2="10.25" y2="23.15"/>
	
		<line fill="none" stroke="#000000" stroke-width="0.5" stroke-linecap="round" stroke-linejoin="round" stroke-miterlimit="10" x1="3.15" y1="23.15" x2="3.15" y2="23.35"/>
	
		<line fill="none" stroke="#000000" stroke-width="0.5" stroke-linecap="round" stroke-linejoin="round" stroke-miterlimit="10" x1="10.25" y1="22.35" x2="10.25" y2="22.15"/>
	
		<line fill="none" stroke="#000000" stroke-width="0.5" stroke-linecap="round" stroke-linejoin="round" stroke-miterlimit="10" x1="3.15" y1="22.15" x2="3.15" y2="22.35"/>
	
		<line fill="none" stroke="#000000" stroke-width="0.5" stroke-linecap="round" stroke-linejoin="round" stroke-miterlimit="10" x1="10.25" y1="21.35" x2="10.25" y2="21.15"/>
	
		<line fill="none" stroke="#000000" stroke-width="0.5" stroke-linecap="round" stroke-linejoin="round" stroke-miterlimit="10" x1="3.15" y1="21.15" x2="3.15" y2="21.35"/>
	
		<line fill="none" stroke="#000000" stroke-width="0.5" stroke-linecap="round" stroke-linejoin="round" stroke-miterlimit="10" x1="10.25" y1="20.35" x2="10.25" y2="20.15"/>
	
		<line fill="none" stroke="#000000" stroke-width="0.5" stroke-linecap="round" stroke-linejoin="round" stroke-miterlimit="10" x1="3.15" y1="20.15" x2="3.15" y2="20.35"/>
	
		<line fill="none" stroke="#000000" stroke-width="0.5" stroke-linecap="round" stroke-linejoin="round" stroke-miterlimit="10" x1="10.25" y1="19.35" x2="10.25" y2="19.15"/>
	
		<line fill="none" stroke="#000000" stroke-width="0.5" stroke-linecap="round" stroke-linejoin="round" stroke-miterlimit="10" x1="3.15" y1="19.15" x2="3.15" y2="19.35"/>
	
		<line fill="none" stroke="#000000" stroke-width="0.5" stroke-linecap="round" stroke-linejoin="round" stroke-miterlimit="10" x1="10.25" y1="18.35" x2="10.25" y2="18.15"/>
	
		<line fill="none" stroke="#000000" stroke-width="0.5" stroke-linecap="round" stroke-linejoin="round" stroke-miterlimit="10" x1="3.15" y1="18.15" x2="3.15" y2="18.35"/>
	
		<line fill="none" stroke="#000000" stroke-width="0.5" stroke-linecap="round" stroke-linejoin="round" stroke-miterlimit="10" x1="10.25" y1="17.35" x2="10.25" y2="17.15"/>
	
		<line fill="none" stroke="#000000" stroke-width="0.5" stroke-linecap="round" stroke-linejoin="round" stroke-miterlimit="10" x1="3.15" y1="17.15" x2="3.15" y2="17.35"/>
	
		<line fill="none" stroke="#000000" stroke-width="0.5" stroke-linecap="round" stroke-linejoin="round" stroke-miterlimit="10" x1="10.25" y1="16.35" x2="10.25" y2="16.15"/>
	
		<line fill="none" stroke="#000000" stroke-width="0.5" stroke-linecap="round" stroke-linejoin="round" stroke-miterlimit="10" x1="3.15" y1="16.15" x2="3.15" y2="16.35"/>
	
		<line fill="none" stroke="#000000" stroke-width="0.5" stroke-linecap="round" stroke-linejoin="round" stroke-miterlimit="10" x1="10.25" y1="15.35" x2="10.25" y2="15.15"/>
	
		<line fill="none" stroke="#000000" stroke-width="0.5" stroke-linecap="round" stroke-linejoin="round" stroke-miterlimit="10" x1="3.15" y1="15.15" x2="3.15" y2="15.35"/>
	
		<line fill="none" stroke="#000000" stroke-width="0.5" stroke-linecap="round" stroke-linejoin="round" stroke-miterlimit="10" x1="10.25" y1="14.35" x2="10.25" y2="14.15"/>
	
		<line fill="none" stroke="#000000" stroke-width="0.5" stroke-linecap="round" stroke-linejoin="round" stroke-miterlimit="10" x1="3.15" y1="14.15" x2="3.15" y2="14.35"/>
	
		<line fill="none" stroke="#000000" stroke-width="0.5" stroke-linecap="round" stroke-linejoin="round" stroke-miterlimit="10" x1="10.25" y1="13.35" x2="10.25" y2="13.15"/>
	
		<line fill="none" stroke="#000000" stroke-width="0.5" stroke-linecap="round" stroke-linejoin="round" stroke-miterlimit="10" x1="3.15" y1="13.15" x2="3.15" y2="13.35"/>
	
		<line fill="none" stroke="#000000" stroke-width="0.5" stroke-linecap="round" stroke-linejoin="round" stroke-miterlimit="10" x1="13.05" y1="9.65" x2="13.05" y2="4.15"/>
	
		<line fill="none" stroke="#000000" stroke-width="0.5" stroke-linecap="round" stroke-linejoin="round" stroke-miterlimit="10" x1="0.25" y1="4.15" x2="0.25" y2="9.65"/>
	
		<polyline fill="none" stroke="#000000" stroke-width="0.5" stroke-linecap="round" stroke-linejoin="round" stroke-miterlimit="10" points="
		13.05,4.05 13.05,3.95 13.05,3.65 12.95,3.45 12.85,3.25 12.75,2.95 12.65,2.75 12.45,2.55 12.35,2.35 12.15,2.15 11.95,1.95 
		11.65,1.75 11.45,1.55 11.15,1.35 10.85,1.15 10.55,1.05 10.25,0.95 9.85,0.75 9.55,0.65 9.15,0.55 8.75,0.45 8.45,0.45 8.05,0.35 
		7.65,0.35 7.25,0.25 6.85,0.25 6.45,0.25 6.05,0.25 5.65,0.35 5.25,0.35 4.95,0.45 4.55,0.45 4.15,0.55 3.85,0.65 3.45,0.75 
		3.15,0.95 2.75,1.05 2.45,1.25 2.15,1.35 1.95,1.55 1.65,1.75 1.45,1.95 1.25,2.15 1.05,2.35 0.85,2.55 0.65,2.75 0.55,3.05 
		0.45,3.25 0.35,3.45 0.35,3.75 0.25,3.95 0.25,4.15 	"/>
	
		<polyline id="XMLID_90_" fill="none" stroke="#000000" stroke-width="0.5" stroke-linecap="round" stroke-linejoin="round" stroke-miterlimit="10" points="
		4.65,43.75 4.75,43.75 4.85,43.85 5.05,43.95 5.25,44.05 5.55,44.05 5.75,44.15 5.95,44.15 6.25,44.15 6.45,44.25 6.65,44.25 
		6.95,44.25 7.15,44.15 7.45,44.15 7.65,44.15 7.85,44.05 8.05,43.95 8.25,43.95 8.45,43.85 8.65,43.75 	"/>
	
		<polyline id="XMLID_89_" fill="none" stroke="#000000" stroke-width="0.5" stroke-linecap="round" stroke-linejoin="round" stroke-miterlimit="10" points="
		10.15,41.65 10.15,41.65 10.15,41.85 10.15,41.95 10.15,42.15 10.15,42.25 10.15,42.45 10.05,42.55 9.95,42.75 9.85,42.85 
		9.75,43.05 9.55,43.15 9.45,43.25 9.25,43.35 9.05,43.45 8.85,43.55 8.65,43.65 8.45,43.75 8.15,43.85 7.95,43.95 7.65,43.95 
		7.35,43.95 7.15,44.05 6.85,44.05 6.55,44.05 6.35,44.05 6.05,44.05 5.75,43.95 5.55,43.95 5.25,43.85 5.05,43.85 4.75,43.75 
		4.55,43.65 4.35,43.55 4.15,43.45 3.95,43.35 3.85,43.25 3.65,43.05 3.55,42.95 3.45,42.75 3.35,42.65 3.25,42.55 3.15,42.35 
		3.15,42.15 3.15,42.05 3.15,41.85 3.15,41.75 3.15,41.65 	"/>
	
		<polyline id="XMLID_88_" fill="none" stroke="#000000" stroke-width="0.5" stroke-linecap="round" stroke-linejoin="round" stroke-miterlimit="10" points="
		3.15,41.15 3.15,41.25 3.15,41.35 3.15,41.55 3.25,41.65 3.35,41.85 3.35,41.95 3.55,42.15 3.65,42.25 3.75,42.35 3.95,42.55 
		4.15,42.65 	"/>
	
		<polyline id="XMLID_87_" fill="none" stroke="#000000" stroke-width="0.5" stroke-linecap="round" stroke-linejoin="round" stroke-miterlimit="10" points="
		4.15,42.65 4.35,42.75 4.55,42.85 4.75,42.95 5.05,43.05 5.25,43.05 5.55,43.15 5.75,43.15 6.05,43.25 6.35,43.25 6.55,43.25 
		6.85,43.25 7.15,43.25 7.35,43.15 7.65,43.15 7.95,43.05 8.15,43.05 8.45,42.95 8.65,42.85 8.85,42.75 9.05,42.65 9.25,42.55 
		9.45,42.45 9.55,42.35 9.75,42.15 9.85,42.05 9.95,41.95 10.05,41.75 10.15,41.65 10.15,41.45 10.15,41.35 10.25,41.15 	"/>
	
		<polyline id="XMLID_86_" fill="none" stroke="#000000" stroke-width="0.5" stroke-linecap="round" stroke-linejoin="round" stroke-miterlimit="10" points="
		3.15,40.65 3.15,40.75 3.15,40.95 3.15,41.05 3.15,41.25 3.15,41.35 3.25,41.55 3.35,41.65 3.35,41.85 3.55,41.95 3.65,42.15 
		3.75,42.25 3.95,42.35 4.15,42.45 	"/>
	
		<polyline id="XMLID_85_" fill="none" stroke="#000000" stroke-width="0.5" stroke-linecap="round" stroke-linejoin="round" stroke-miterlimit="10" points="
		4.15,42.45 4.35,42.55 4.55,42.65 4.75,42.75 5.05,42.85 5.25,42.95 5.55,42.95 5.75,43.05 6.05,43.05 6.35,43.05 6.55,43.05 
		6.85,43.05 7.15,43.05 7.35,43.05 7.65,42.95 7.95,42.95 8.15,42.85 8.45,42.85 8.65,42.75 8.85,42.65 9.05,42.55 9.25,42.45 
		9.45,42.35 9.55,42.15 9.75,42.05 9.85,41.95 9.95,41.75 10.05,41.65 10.15,41.45 10.15,41.35 10.15,41.15 10.25,40.95 
		10.15,40.85 10.15,40.65 	"/>
	
		<polyline id="XMLID_84_" fill="none" stroke="#000000" stroke-width="0.5" stroke-linecap="round" stroke-linejoin="round" stroke-miterlimit="10" points="
		3.15,40.25 3.15,40.25 3.15,40.45 3.15,40.55 3.25,40.75 3.35,40.85 3.35,41.05 3.55,41.15 3.65,41.25 3.75,41.45 3.95,41.55 
		4.15,41.65 	"/>
	
		<polyline id="XMLID_83_" fill="none" stroke="#000000" stroke-width="0.5" stroke-linecap="round" stroke-linejoin="round" stroke-miterlimit="10" points="
		4.15,41.65 4.35,41.75 4.55,41.85 4.75,41.95 5.05,42.05 5.25,42.05 5.55,42.15 5.75,42.15 6.05,42.25 6.35,42.25 6.55,42.25 
		6.85,42.25 7.15,42.25 7.35,42.25 7.65,42.15 7.95,42.15 8.15,42.05 8.45,41.95 8.65,41.95 8.85,41.85 9.05,41.75 9.25,41.55 
		9.45,41.45 9.55,41.35 9.75,41.25 9.85,41.05 9.95,40.95 10.05,40.75 10.15,40.65 10.15,40.45 10.15,40.35 10.25,40.25 	"/>
	
		<polyline id="XMLID_82_" fill="none" stroke="#000000" stroke-width="0.5" stroke-linecap="round" stroke-linejoin="round" stroke-miterlimit="10" points="
		3.15,39.65 3.15,39.75 3.15,39.95 3.15,40.05 3.15,40.25 3.15,40.45 3.25,40.55 3.35,40.75 3.35,40.85 3.55,40.95 3.65,41.15 
		3.75,41.25 3.95,41.35 4.15,41.45 	"/>
	
		<polyline id="XMLID_81_" fill="none" stroke="#000000" stroke-width="0.5" stroke-linecap="round" stroke-linejoin="round" stroke-miterlimit="10" points="
		4.15,41.45 4.35,41.65 4.55,41.75 4.75,41.75 5.05,41.85 5.25,41.95 5.55,41.95 5.75,42.05 6.05,42.05 6.35,42.05 6.55,42.05 
		6.85,42.05 7.15,42.05 7.35,42.05 7.65,42.05 7.95,41.95 8.15,41.95 8.45,41.85 8.65,41.75 8.85,41.65 9.05,41.55 9.25,41.45 
		9.45,41.35 9.55,41.15 9.75,41.05 9.85,40.95 9.95,40.75 10.05,40.65 10.15,40.45 10.15,40.35 10.15,40.15 10.25,40.05 
		10.15,39.85 10.15,39.75 10.15,39.65 	"/>
	
		<polyline id="XMLID_80_" fill="none" stroke="#000000" stroke-width="0.5" stroke-linecap="round" stroke-linejoin="round" stroke-miterlimit="10" points="
		3.15,39.25 3.15,39.25 3.15,39.45 3.15,39.55 3.25,39.75 3.35,39.85 3.35,40.05 3.55,40.15 3.65,40.35 3.75,40.45 3.95,40.55 
		4.15,40.65 	"/>
	
		<polyline id="XMLID_79_" fill="none" stroke="#000000" stroke-width="0.5" stroke-linecap="round" stroke-linejoin="round" stroke-miterlimit="10" points="
		4.15,40.65 4.35,40.75 4.55,40.85 4.75,40.95 5.05,41.05 5.25,41.15 5.55,41.15 5.75,41.25 6.05,41.25 6.35,41.25 6.55,41.25 
		6.85,41.25 7.15,41.25 7.35,41.25 7.65,41.15 7.95,41.15 8.15,41.05 8.45,41.05 8.65,40.95 8.85,40.85 9.05,40.75 9.25,40.65 
		9.45,40.55 9.55,40.35 9.75,40.25 9.85,40.15 9.95,39.95 10.05,39.85 10.15,39.65 10.15,39.55 10.15,39.35 10.25,39.25 	"/>
	
		<polyline id="XMLID_78_" fill="none" stroke="#000000" stroke-width="0.5" stroke-linecap="round" stroke-linejoin="round" stroke-miterlimit="10" points="
		3.15,38.65 3.15,38.85 3.15,38.95 3.15,39.15 3.15,39.25 3.15,39.45 3.25,39.55 3.35,39.75 3.35,39.85 3.55,40.05 3.65,40.15 
		3.75,40.25 3.95,40.45 4.15,40.55 	"/>
	
		<polyline id="XMLID_77_" fill="none" stroke="#000000" stroke-width="0.5" stroke-linecap="round" stroke-linejoin="round" stroke-miterlimit="10" points="
		4.15,40.55 4.35,40.65 4.55,40.75 4.75,40.85 5.05,40.85 5.25,40.95 5.55,41.05 5.75,41.05 6.05,41.05 6.35,41.15 6.55,41.15 
		6.85,41.15 7.15,41.15 7.35,41.05 7.65,41.05 7.95,40.95 8.15,40.95 8.45,40.85 8.65,40.75 8.85,40.65 9.05,40.55 9.25,40.45 
		9.45,40.35 9.55,40.25 9.75,40.05 9.85,39.95 9.95,39.85 10.05,39.65 10.15,39.55 10.15,39.35 10.15,39.15 10.25,39.05 
		10.15,38.85 10.15,38.75 10.15,38.65 	"/>
	
		<polyline id="XMLID_76_" fill="none" stroke="#000000" stroke-width="0.5" stroke-linecap="round" stroke-linejoin="round" stroke-miterlimit="10" points="
		3.15,38.25 3.15,38.25 3.15,38.45 3.15,38.65 3.25,38.75 3.35,38.95 3.35,39.05 3.55,39.15 3.65,39.35 3.75,39.45 3.95,39.55 
		4.15,39.65 	"/>
	
		<polyline id="XMLID_75_" fill="none" stroke="#000000" stroke-width="0.5" stroke-linecap="round" stroke-linejoin="round" stroke-miterlimit="10" points="
		4.15,39.65 4.35,39.85 4.55,39.95 4.75,39.95 5.05,40.05 5.25,40.15 5.55,40.15 5.75,40.25 6.05,40.25 6.35,40.25 6.55,40.25 
		6.85,40.25 7.15,40.25 7.35,40.25 7.65,40.25 7.95,40.15 8.15,40.15 8.45,40.05 8.65,39.95 8.85,39.85 9.05,39.75 9.25,39.65 
		9.45,39.55 9.55,39.35 9.75,39.25 9.85,39.15 9.95,38.95 10.05,38.85 10.15,38.65 10.15,38.55 10.15,38.35 10.25,38.25 	"/>
	
		<polyline id="XMLID_74_" fill="none" stroke="#000000" stroke-width="0.5" stroke-linecap="round" stroke-linejoin="round" stroke-miterlimit="10" points="
		3.15,37.65 3.15,37.85 3.15,37.95 3.15,38.15 3.15,38.25 3.15,38.45 3.25,38.65 3.35,38.75 3.35,38.85 3.55,39.05 3.65,39.15 
		3.75,39.35 3.95,39.45 4.15,39.55 	"/>
	
		<polyline id="XMLID_73_" fill="none" stroke="#000000" stroke-width="0.5" stroke-linecap="round" stroke-linejoin="round" stroke-miterlimit="10" points="
		4.15,39.55 4.35,39.65 4.55,39.75 4.75,39.85 5.05,39.95 5.25,39.95 5.55,40.05 5.75,40.05 6.05,40.15 6.35,40.15 6.55,40.15 
		6.85,40.15 7.15,40.15 7.35,40.05 7.65,40.05 7.95,40.05 8.15,39.95 8.45,39.85 8.65,39.75 8.85,39.65 9.05,39.55 9.25,39.45 
		9.45,39.35 9.55,39.25 9.75,39.15 9.85,38.95 9.95,38.85 10.05,38.65 10.15,38.55 10.15,38.35 10.15,38.25 10.25,38.05 
		10.15,37.95 10.15,37.75 10.15,37.65 	"/>
	
		<polyline id="XMLID_72_" fill="none" stroke="#000000" stroke-width="0.5" stroke-linecap="round" stroke-linejoin="round" stroke-miterlimit="10" points="
		3.15,37.25 3.15,37.35 3.15,37.45 3.15,37.65 3.25,37.75 3.35,37.95 3.35,38.05 3.55,38.25 3.65,38.35 3.75,38.45 3.95,38.65 
		4.15,38.75 	"/>
	
		<polyline id="XMLID_71_" fill="none" stroke="#000000" stroke-width="0.5" stroke-linecap="round" stroke-linejoin="round" stroke-miterlimit="10" points="
		4.15,38.75 4.35,38.85 4.55,38.95 4.75,39.05 5.05,39.05 5.25,39.15 5.55,39.25 5.75,39.25 6.05,39.25 6.35,39.35 6.55,39.35 
		6.85,39.35 7.15,39.35 7.35,39.25 7.65,39.25 7.95,39.15 8.15,39.15 8.45,39.05 8.65,38.95 8.85,38.85 9.05,38.75 9.25,38.65 
		9.45,38.55 9.55,38.45 9.75,38.25 9.85,38.15 9.95,38.05 10.05,37.85 10.15,37.75 10.15,37.55 10.15,37.35 10.25,37.25 	"/>
	
		<polyline id="XMLID_70_" fill="none" stroke="#000000" stroke-width="0.5" stroke-linecap="round" stroke-linejoin="round" stroke-miterlimit="10" points="
		3.15,36.75 3.15,36.85 3.15,37.05 3.15,37.15 3.15,37.35 3.15,37.45 3.25,37.65 3.35,37.75 3.35,37.95 3.55,38.05 3.65,38.15 
		3.75,38.35 3.95,38.45 4.15,38.55 	"/>
	
		<polyline id="XMLID_69_" fill="none" stroke="#000000" stroke-width="0.5" stroke-linecap="round" stroke-linejoin="round" stroke-miterlimit="10" points="
		4.15,38.55 4.35,38.65 4.55,38.75 4.75,38.85 5.05,38.95 5.25,38.95 5.55,39.05 5.75,39.15 6.05,39.15 6.35,39.15 6.55,39.15 
		6.85,39.15 7.15,39.15 7.35,39.15 7.65,39.05 7.95,39.05 8.15,38.95 8.45,38.85 8.65,38.85 8.85,38.75 9.05,38.65 9.25,38.55 
		9.45,38.35 9.55,38.25 9.75,38.15 9.85,37.95 9.95,37.85 10.05,37.65 10.15,37.55 10.15,37.35 10.15,37.25 10.25,37.05 
		10.15,36.95 10.15,36.75 	"/>
	
		<polyline id="XMLID_68_" fill="none" stroke="#000000" stroke-width="0.5" stroke-linecap="round" stroke-linejoin="round" stroke-miterlimit="10" points="
		3.15,36.25 3.15,36.35 3.15,36.45 3.15,36.65 3.25,36.85 3.35,36.95 3.35,37.05 3.55,37.25 3.65,37.35 3.75,37.55 3.95,37.65 
		4.15,37.75 	"/>
	
		<polyline id="XMLID_67_" fill="none" stroke="#000000" stroke-width="0.5" stroke-linecap="round" stroke-linejoin="round" stroke-miterlimit="10" points="
		4.15,37.75 4.35,37.85 4.55,37.95 4.75,38.05 5.05,38.15 5.25,38.15 5.55,38.25 5.75,38.25 6.05,38.35 6.35,38.35 6.55,38.35 
		6.85,38.35 7.15,38.35 7.35,38.25 7.65,38.25 7.95,38.25 8.15,38.15 8.45,38.05 8.65,37.95 8.85,37.85 9.05,37.75 9.25,37.65 
		9.45,37.55 9.55,37.45 9.75,37.35 9.85,37.15 9.95,37.05 10.05,36.85 10.15,36.75 10.15,36.55 10.15,36.45 10.25,36.25 	"/>
	
		<polyline id="XMLID_66_" fill="none" stroke="#000000" stroke-width="0.5" stroke-linecap="round" stroke-linejoin="round" stroke-miterlimit="10" points="
		3.15,35.75 3.15,35.85 3.15,36.05 3.15,36.15 3.15,36.35 3.15,36.45 3.25,36.65 3.35,36.75 3.35,36.95 3.55,37.05 3.65,37.25 
		3.75,37.35 3.95,37.45 4.15,37.55 	"/>
	
		<polyline id="XMLID_65_" fill="none" stroke="#000000" stroke-width="0.5" stroke-linecap="round" stroke-linejoin="round" stroke-miterlimit="10" points="
		4.15,37.55 4.35,37.65 4.55,37.75 4.75,37.85 5.05,37.95 5.25,38.05 5.55,38.05 5.75,38.15 6.05,38.15 6.35,38.15 6.55,38.15 
		6.85,38.15 7.15,38.15 7.35,38.15 7.65,38.15 7.95,38.05 8.15,37.95 8.45,37.95 8.65,37.85 8.85,37.75 9.05,37.65 9.25,37.55 
		9.45,37.45 9.55,37.25 9.75,37.15 9.85,37.05 9.95,36.85 10.05,36.75 10.15,36.55 10.15,36.45 10.15,36.25 10.25,36.05 
		10.15,35.95 10.15,35.75 	"/>
	
		<polyline id="XMLID_64_" fill="none" stroke="#000000" stroke-width="0.5" stroke-linecap="round" stroke-linejoin="round" stroke-miterlimit="10" points="
		3.15,35.35 3.15,35.35 3.15,35.55 3.15,35.65 3.25,35.85 3.35,35.95 3.35,36.15 3.55,36.25 3.65,36.35 3.75,36.55 3.95,36.65 
		4.15,36.75 	"/>
	
		<polyline id="XMLID_63_" fill="none" stroke="#000000" stroke-width="0.5" stroke-linecap="round" stroke-linejoin="round" stroke-miterlimit="10" points="
		4.15,36.75 4.35,36.85 4.55,36.95 4.75,37.05 5.05,37.15 5.25,37.15 5.55,37.25 5.75,37.25 6.05,37.35 6.35,37.35 6.55,37.35 
		6.85,37.35 7.15,37.35 7.35,37.35 7.65,37.25 7.95,37.25 8.15,37.15 8.45,37.05 8.65,37.05 8.85,36.95 9.05,36.85 9.25,36.75 
		9.45,36.55 9.55,36.45 9.75,36.35 9.85,36.15 9.95,36.05 10.05,35.85 10.15,35.75 10.15,35.55 10.15,35.45 10.25,35.35 	"/>
	
		<polyline id="XMLID_62_" fill="none" stroke="#000000" stroke-width="0.5" stroke-linecap="round" stroke-linejoin="round" stroke-miterlimit="10" points="
		3.15,34.75 3.15,34.85 3.15,35.05 3.15,35.15 3.15,35.35 3.15,35.55 3.25,35.65 3.35,35.85 3.35,35.95 3.55,36.15 3.65,36.25 
		3.75,36.35 3.95,36.45 4.15,36.65 	"/>
	
		<polyline id="XMLID_61_" fill="none" stroke="#000000" stroke-width="0.5" stroke-linecap="round" stroke-linejoin="round" stroke-miterlimit="10" points="
		4.15,36.65 4.35,36.75 4.55,36.85 4.75,36.85 5.05,36.95 5.25,37.05 5.55,37.05 5.75,37.15 6.05,37.15 6.35,37.15 6.55,37.25 
		6.85,37.25 7.15,37.15 7.35,37.15 7.65,37.15 7.95,37.05 8.15,37.05 8.45,36.95 8.65,36.85 8.85,36.75 9.05,36.65 9.25,36.55 
		9.45,36.45 9.55,36.35 9.75,36.15 9.85,36.05 9.95,35.85 10.05,35.75 10.15,35.55 10.15,35.45 10.15,35.25 10.25,35.15 
		10.15,34.95 10.15,34.85 10.15,34.75 	"/>
	
		<polyline id="XMLID_60_" fill="none" stroke="#000000" stroke-width="0.5" stroke-linecap="round" stroke-linejoin="round" stroke-miterlimit="10" points="
		3.15,34.35 3.15,34.35 3.15,34.55 3.15,34.65 3.25,34.85 3.35,34.95 3.35,35.15 3.55,35.25 3.65,35.45 3.75,35.55 3.95,35.65 
		4.15,35.75 	"/>
	
		<polyline id="XMLID_59_" fill="none" stroke="#000000" stroke-width="0.5" stroke-linecap="round" stroke-linejoin="round" stroke-miterlimit="10" points="
		4.15,35.75 4.35,35.85 4.55,35.95 4.75,36.05 5.05,36.15 5.25,36.25 5.55,36.25 5.75,36.35 6.05,36.35 6.35,36.35 6.55,36.35 
		6.85,36.35 7.15,36.35 7.35,36.35 7.65,36.35 7.95,36.25 8.15,36.15 8.45,36.15 8.65,36.05 8.85,35.95 9.05,35.85 9.25,35.75 
		9.45,35.65 9.55,35.45 9.75,35.35 9.85,35.25 9.95,35.05 10.05,34.95 10.15,34.75 10.15,34.65 10.15,34.45 10.25,34.35 	"/>
	
		<polyline id="XMLID_58_" fill="none" stroke="#000000" stroke-width="0.5" stroke-linecap="round" stroke-linejoin="round" stroke-miterlimit="10" points="
		3.15,33.75 3.15,33.95 3.15,34.05 3.15,34.25 3.15,34.35 3.15,34.55 3.25,34.65 3.35,34.85 3.35,34.95 3.55,35.15 3.65,35.25 
		3.75,35.35 3.95,35.55 4.15,35.65 	"/>
	
		<polyline id="XMLID_57_" fill="none" stroke="#000000" stroke-width="0.5" stroke-linecap="round" stroke-linejoin="round" stroke-miterlimit="10" points="
		4.15,35.65 4.35,35.75 4.55,35.85 4.75,35.95 5.05,35.95 5.25,36.05 5.55,36.15 5.75,36.15 6.05,36.15 6.35,36.25 6.55,36.25 
		6.85,36.25 7.15,36.25 7.35,36.15 7.65,36.15 7.95,36.05 8.15,36.05 8.45,35.95 8.65,35.85 8.85,35.75 9.05,35.65 9.25,35.55 
		9.45,35.45 9.55,35.35 9.75,35.15 9.85,35.05 9.95,34.95 10.05,34.75 10.15,34.65 10.15,34.45 10.15,34.25 10.25,34.15 
		10.15,33.95 10.15,33.85 10.15,33.75 	"/>
	
		<polyline id="XMLID_56_" fill="none" stroke="#000000" stroke-width="0.5" stroke-linecap="round" stroke-linejoin="round" stroke-miterlimit="10" points="
		3.15,33.35 3.15,33.35 3.15,33.55 3.15,33.75 3.25,33.85 3.35,34.05 3.35,34.15 3.55,34.35 3.65,34.45 3.75,34.55 3.95,34.65 
		4.15,34.85 	"/>
	
		<polyline id="XMLID_55_" fill="none" stroke="#000000" stroke-width="0.5" stroke-linecap="round" stroke-linejoin="round" stroke-miterlimit="10" points="
		4.15,34.85 4.35,34.95 4.55,35.05 4.75,35.05 5.05,35.15 5.25,35.25 5.55,35.25 5.75,35.35 6.05,35.35 6.35,35.35 6.55,35.45 
		6.85,35.45 7.15,35.35 7.35,35.35 7.65,35.35 7.95,35.25 8.15,35.25 8.45,35.15 8.65,35.05 8.85,34.95 9.05,34.85 9.25,34.75 
		9.45,34.65 9.55,34.55 9.75,34.35 9.85,34.25 9.95,34.05 10.05,33.95 10.15,33.75 10.15,33.65 10.15,33.45 10.25,33.35 	"/>
	
		<polyline id="XMLID_54_" fill="none" stroke="#000000" stroke-width="0.5" stroke-linecap="round" stroke-linejoin="round" stroke-miterlimit="10" points="
		3.15,32.75 3.15,32.95 3.15,33.05 3.15,33.25 3.15,33.35 3.15,33.55 3.25,33.75 3.35,33.85 3.35,34.05 3.55,34.15 3.65,34.25 
		3.75,34.45 3.95,34.55 4.15,34.65 	"/>
	
		<polyline id="XMLID_53_" fill="none" stroke="#000000" stroke-width="0.5" stroke-linecap="round" stroke-linejoin="round" stroke-miterlimit="10" points="
		4.15,34.65 4.35,34.75 4.55,34.85 4.75,34.95 5.05,35.05 5.25,35.05 5.55,35.15 5.75,35.15 6.05,35.25 6.35,35.25 6.55,35.25 
		6.85,35.25 7.15,35.25 7.35,35.25 7.65,35.15 7.95,35.15 8.15,35.05 8.45,34.95 8.65,34.85 8.85,34.85 9.05,34.75 9.25,34.55 
		9.45,34.45 9.55,34.35 9.75,34.25 9.85,34.05 9.95,33.95 10.05,33.75 10.15,33.65 10.15,33.45 10.15,33.35 10.25,33.15 
		10.15,33.05 10.15,32.85 10.15,32.75 	"/>
	
		<polyline id="XMLID_52_" fill="none" stroke="#000000" stroke-width="0.5" stroke-linecap="round" stroke-linejoin="round" stroke-miterlimit="10" points="
		3.15,32.35 3.15,32.45 3.15,32.55 3.15,32.75 3.25,32.85 3.35,33.05 3.35,33.15 3.55,33.35 3.65,33.45 3.75,33.55 3.95,33.75 
		4.15,33.85 	"/>
	
		<polyline id="XMLID_51_" fill="none" stroke="#000000" stroke-width="0.5" stroke-linecap="round" stroke-linejoin="round" stroke-miterlimit="10" points="
		4.15,33.85 4.35,33.95 4.55,34.05 4.75,34.15 5.05,34.15 5.25,34.25 5.55,34.35 5.75,34.35 6.05,34.35 6.35,34.45 6.55,34.45 
		6.85,34.45 7.15,34.45 7.35,34.35 7.65,34.35 7.95,34.25 8.15,34.25 8.45,34.15 8.65,34.05 8.85,33.95 9.05,33.85 9.25,33.75 
		9.45,33.65 9.55,33.55 9.75,33.35 9.85,33.25 9.95,33.15 10.05,32.95 10.15,32.85 10.15,32.65 10.15,32.45 10.25,32.35 	"/>
	
		<polyline id="XMLID_50_" fill="none" stroke="#000000" stroke-width="0.5" stroke-linecap="round" stroke-linejoin="round" stroke-miterlimit="10" points="
		3.15,31.85 3.15,31.95 3.15,32.15 3.15,32.25 3.15,32.45 3.15,32.55 3.25,32.75 3.35,32.85 3.35,33.05 3.55,33.15 3.65,33.35 
		3.75,33.45 3.95,33.55 4.15,33.65 	"/>
	
		<polyline id="XMLID_49_" fill="none" stroke="#000000" stroke-width="0.5" stroke-linecap="round" stroke-linejoin="round" stroke-miterlimit="10" points="
		4.15,33.65 4.35,33.75 4.55,33.85 4.75,33.95 5.05,34.05 5.25,34.15 5.55,34.15 5.75,34.25 6.05,34.25 6.35,34.25 6.55,34.25 
		6.85,34.25 7.15,34.25 7.35,34.25 7.65,34.15 7.95,34.15 8.15,34.05 8.45,34.05 8.65,33.95 8.85,33.85 9.05,33.75 9.25,33.65 
		9.45,33.45 9.55,33.35 9.75,33.25 9.85,33.05 9.95,32.95 10.05,32.85 10.15,32.65 10.15,32.45 10.15,32.35 10.25,32.15 
		10.15,32.05 10.15,31.85 	"/>
	
		<polyline id="XMLID_43_" fill="none" stroke="#000000" stroke-width="0.5" stroke-linecap="round" stroke-linejoin="round" stroke-miterlimit="10" points="
		3.15,31.75 3.25,31.95 3.35,32.05 3.35,32.25 3.55,32.35 3.65,32.45 3.75,32.65 3.95,32.75 4.15,32.85 	"/>
	
		<polyline id="XMLID_42_" fill="none" stroke="#000000" stroke-width="0.5" stroke-linecap="round" stroke-linejoin="round" stroke-miterlimit="10" points="
		4.15,32.85 4.35,32.95 4.55,33.05 4.75,33.15 5.05,33.25 5.25,33.25 5.55,33.35 5.75,33.35 6.05,33.45 6.35,33.45 6.55,33.45 
		6.85,33.45 7.15,33.45 7.35,33.45 7.65,33.35 7.95,33.35 8.15,33.25 8.45,33.15 8.65,33.05 8.85,33.05 9.05,32.95 9.25,32.75 
		9.45,32.65 9.55,32.55 9.75,32.45 9.85,32.25 9.95,32.15 10.05,31.95 10.15,31.85 10.15,31.75 	"/>
	
		<line id="XMLID_28_" fill="none" stroke="#000000" stroke-width="0.5" stroke-linecap="round" stroke-linejoin="round" stroke-miterlimit="10" x1="8.65" y1="43.75" x2="9.15" y2="43.45"/>
	
		<line id="XMLID_27_" fill="none" stroke="#000000" stroke-width="0.5" stroke-linecap="round" stroke-linejoin="round" stroke-miterlimit="10" x1="4.15" y1="43.45" x2="4.65" y2="43.75"/>
	
		<line id="XMLID_26_" fill="none" stroke="#000000" stroke-width="0.5" stroke-linecap="round" stroke-linejoin="round" stroke-miterlimit="10" x1="10.25" y1="41.15" x2="10.25" y2="41.05"/>
	
		<line id="XMLID_25_" fill="none" stroke="#000000" stroke-width="0.5" stroke-linecap="round" stroke-linejoin="round" stroke-miterlimit="10" x1="3.15" y1="41.05" x2="3.15" y2="41.15"/>
	
		<line id="XMLID_24_" fill="none" stroke="#000000" stroke-width="0.5" stroke-linecap="round" stroke-linejoin="round" stroke-miterlimit="10" x1="10.25" y1="40.25" x2="10.25" y2="40.05"/>
	
		<line id="XMLID_23_" fill="none" stroke="#000000" stroke-width="0.5" stroke-linecap="round" stroke-linejoin="round" stroke-miterlimit="10" x1="3.15" y1="40.05" x2="3.15" y2="40.25"/>
	
		<line id="XMLID_22_" fill="none" stroke="#000000" stroke-width="0.5" stroke-linecap="round" stroke-linejoin="round" stroke-miterlimit="10" x1="10.25" y1="39.25" x2="10.25" y2="39.05"/>
	
		<line id="XMLID_21_" fill="none" stroke="#000000" stroke-width="0.5" stroke-linecap="round" stroke-linejoin="round" stroke-miterlimit="10" x1="3.15" y1="39.05" x2="3.15" y2="39.25"/>
	
		<line id="XMLID_20_" fill="none" stroke="#000000" stroke-width="0.5" stroke-linecap="round" stroke-linejoin="round" stroke-miterlimit="10" x1="10.25" y1="38.25" x2="10.25" y2="38.05"/>
	
		<line id="XMLID_19_" fill="none" stroke="#000000" stroke-width="0.5" stroke-linecap="round" stroke-linejoin="round" stroke-miterlimit="10" x1="3.15" y1="38.05" x2="3.15" y2="38.25"/>
	
		<line id="XMLID_18_" fill="none" stroke="#000000" stroke-width="0.5" stroke-linecap="round" stroke-linejoin="round" stroke-miterlimit="10" x1="10.25" y1="37.25" x2="10.25" y2="37.15"/>
	
		<line id="XMLID_17_" fill="none" stroke="#000000" stroke-width="0.5" stroke-linecap="round" stroke-linejoin="round" stroke-miterlimit="10" x1="3.15" y1="37.15" x2="3.15" y2="37.25"/>
	
		<line id="XMLID_16_" fill="none" stroke="#000000" stroke-width="0.5" stroke-linecap="round" stroke-linejoin="round" stroke-miterlimit="10" x1="10.25" y1="36.25" x2="10.25" y2="36.15"/>
	
		<line id="XMLID_15_" fill="none" stroke="#000000" stroke-width="0.5" stroke-linecap="round" stroke-linejoin="round" stroke-miterlimit="10" x1="3.15" y1="36.15" x2="3.15" y2="36.25"/>
	
		<line id="XMLID_14_" fill="none" stroke="#000000" stroke-width="0.5" stroke-linecap="round" stroke-linejoin="round" stroke-miterlimit="10" x1="10.25" y1="35.35" x2="10.25" y2="35.15"/>
	
		<line id="XMLID_13_" fill="none" stroke="#000000" stroke-width="0.5" stroke-linecap="round" stroke-linejoin="round" stroke-miterlimit="10" x1="3.15" y1="35.15" x2="3.15" y2="35.35"/>
	
		<line id="XMLID_12_" fill="none" stroke="#000000" stroke-width="0.5" stroke-linecap="round" stroke-linejoin="round" stroke-miterlimit="10" x1="10.25" y1="34.35" x2="10.25" y2="34.15"/>
	
		<line id="XMLID_11_" fill="none" stroke="#000000" stroke-width="0.5" stroke-linecap="round" stroke-linejoin="round" stroke-miterlimit="10" x1="3.15" y1="34.15" x2="3.15" y2="34.35"/>
	
		<line id="XMLID_10_" fill="none" stroke="#000000" stroke-width="0.5" stroke-linecap="round" stroke-linejoin="round" stroke-miterlimit="10" x1="10.25" y1="33.35" x2="10.25" y2="33.25"/>
	
		<line id="XMLID_9_" fill="none" stroke="#000000" stroke-width="0.5" stroke-linecap="round" stroke-linejoin="round" stroke-miterlimit="10" x1="3.15" y1="33.25" x2="3.15" y2="33.35"/>
	
		<line id="XMLID_8_" fill="none" stroke="#000000" stroke-width="0.5" stroke-linecap="round" stroke-linejoin="round" stroke-miterlimit="10" x1="10.25" y1="32.35" x2="10.25" y2="32.25"/>
	
		<line id="XMLID_7_" fill="none" stroke="#000000" stroke-width="0.5" stroke-linecap="round" stroke-linejoin="round" stroke-miterlimit="10" x1="3.15" y1="32.25" x2="3.15" y2="32.35"/>
</g>
</svg>
