<?xml version="1.0" encoding="utf-8"?>
<!-- Generator: Adobe Illustrator 19.0.0, SVG Export Plug-In . SVG Version: 6.00 Build 0)  -->
<svg version="1.0" id="Layer_1" xmlns="http://www.w3.org/2000/svg" xmlns:xlink="http://www.w3.org/1999/xlink" x="0px" y="0px"
	 width="16.1px" height="32.3px" viewBox="0 0 16.1 32.3" enable-background="new 0 0 16.1 32.3" xml:space="preserve">
<g>
	
		<path fill="none" stroke="#000000" stroke-width="0.25" stroke-linecap="round" stroke-linejoin="round" stroke-miterlimit="10" d="
		M15.85,4.95v0.1v0.2l-0.1,0.3l-0.1,0.3l-0.1,0.2l-0.1,0.3l-0.1,0.2l-0.2,0.3l-0.2,0.2l-0.3,0.2l-0.2,0.2l-0.3,0.2l-0.3,0.2
		l-0.3,0.2 M13.55,8.05l-0.3,0.2l-0.4,0.2l-0.3,0.1l-0.4,0.2l-0.4,0.1l-0.4,0.1l-0.4,0.1l-0.4,0.1l-0.5,0.1l-0.4,0.1h-0.5h-0.4h-0.5
		h-0.4h-0.5h-0.4h-0.5l-0.4-0.1l-0.4-0.1l-0.5-0.1l-0.4-0.1l-0.4-0.1l-0.4-0.1l-0.4-0.2l-0.3-0.1l-0.4-0.2l-0.3-0.2l-0.3-0.2
		l-0.3-0.2l-0.3-0.2l-0.2-0.2l-0.2-0.2l-0.3-0.2l-0.1-0.3l-0.2-0.2l-0.1-0.3l-0.1-0.2l-0.1-0.3l-0.1-0.3v-0.2v-0.1 M13.25,7.55
		l0.3-0.2l0.3-0.2l0.3-0.2l0.2-0.2l0.2-0.2l0.2-0.2l0.2-0.3l0.1-0.2l0.2-0.3l0.1-0.2v-0.3l0.1-0.2v-0.3v-0.2l-0.1-0.3v-0.2l-0.1-0.3
		l-0.1-0.2l-0.2-0.3l-0.1-0.2l-0.2-0.2l-0.2-0.3l-0.3-0.2l-0.2-0.2l-0.3-0.2l-0.3-0.2l-0.3-0.1l-0.3-0.2l-0.4-0.2l-0.4-0.1l-0.3-0.1
		l-0.4-0.1l-0.4-0.1l-0.5-0.1l-0.4-0.1l-0.4-0.1h-0.4h-0.5h-0.4h-0.5h-0.4h-0.4h-0.5l-0.4,0.1l-0.4,0.1l-0.4,0.1l-0.4,0.1l-0.4,0.1
		l-0.4,0.1l-0.4,0.2l-0.3,0.1l-0.3,0.2l-0.4,0.2l-0.2,0.2l-0.3,0.2l-0.3,0.2l-0.2,0.2l-0.2,0.2l-0.2,0.3l-0.1,0.2l-0.2,0.2l-0.1,0.3
		l-0.1,0.2v0.3l-0.1,0.2v0.3l0.1,0.3v0.2l0.1,0.3l0.1,0.2l0.1,0.2l0.2,0.3l0.1,0.2l0.2,0.2l0.3,0.3l0.2,0.2l0.3,0.2l0.3,0.2l0.3,0.2
		l0.3,0.1l0.3,0.2l0.4,0.1l0.4,0.2l0.4,0.1l0.4,0.1l0.4,0.1l0.4,0.1h0.4l0.5,0.1h0.4l0.4,0.1h0.5l0.4-0.1h0.4h0.5l0.4-0.1h0.4
		l0.5-0.1l0.4-0.1l0.4-0.1l0.3-0.2l0.4-0.1l0.4-0.1l0.3-0.2L13.25,7.55"/>
	<path fill="none" stroke="#000000" stroke-width="0.5" stroke-linecap="round" stroke-linejoin="round" stroke-miterlimit="10" d="
		M5.65,31.45L5.65,31.45l0.2,0.1l0.2,0.1l0.3,0.1l0.3,0.1h0.2l0.3,0.1h0.3l0.3,0.1h0.3h0.3l0.3-0.1h0.3l0.3-0.1h0.3l0.2-0.1l0.3-0.1
		l0.2-0.1l0.3-0.1 M3.85,29.35v0.2v0.2l0.1,0.2l0.1,0.2l0.1,0.2l0.1,0.1l0.2,0.2l0.2,0.2l0.2,0.1l0.2,0.2l0.3,0.1l0.2,0.1l0.3,0.1
		l0.3,0.1l0.3,0.1l0.3,0.1h0.3h0.3l0.4,0.1h0.3h0.3l0.4-0.1h0.3h0.3l0.3-0.1l0.3-0.1l0.3-0.1l0.3-0.1l0.3-0.1l0.2-0.1 M11.05,31.15
		l0.2-0.2l0.3-0.1l0.1-0.2l0.2-0.2l0.1-0.1l0.2-0.2v-0.2l0.1-0.2l0.1-0.2v-0.2 M3.85,28.85v0.1v0.2v0.2v0.2v0.1l0.1,0.2l0.1,0.2
		l0.1,0.2l0.1,0.2l0.2,0.1l0.2,0.2l0.2,0.2l0.2,0.1 M5.05,31.05l0.3,0.1l0.2,0.1l0.3,0.2h0.3l0.3,0.1l0.3,0.1h0.3l0.3,0.1h0.4h0.3
		h0.3h0.4l0.3-0.1h0.3l0.3-0.1l0.3-0.1h0.3l0.3-0.2l0.3-0.1l0.2-0.1l0.2-0.1l0.3-0.2l0.1-0.2l0.2-0.1l0.1-0.2l0.2-0.2v-0.2l0.1-0.2
		l0.1-0.1v-0.2v-0.2l-0.1-0.2v-0.1 M3.85,28.45v0.1v0.2l0.1,0.2l0.1,0.2l0.1,0.2l0.1,0.2l0.2,0.1l0.2,0.2l0.2,0.1l0.2,0.2
		 M5.05,30.15l0.3,0.1l0.2,0.1l0.3,0.1l0.3,0.1l0.3,0.1l0.3,0.1h0.3l0.3,0.1h0.4h0.3h0.3h0.4l0.3-0.1h0.3l0.3-0.1l0.3-0.1l0.3-0.1
		l0.3-0.1l0.3-0.1l0.2-0.1l0.2-0.2l0.3-0.1l0.1-0.2l0.2-0.1l0.1-0.2l0.2-0.2v-0.2l0.1-0.2l0.1-0.2v-0.1 M3.85,27.75L3.85,27.75v0.2
		v0.2v0.2v0.2l0.1,0.2l0.1,0.2l0.1,0.1l0.1,0.2l0.2,0.2l0.2,0.1l0.2,0.2l0.2,0.1 M5.05,29.85l0.3,0.2l0.2,0.1l0.3,0.1l0.3,0.1
		l0.3,0.1h0.3l0.3,0.1h0.3l0.4,0.1h0.3h0.3l0.4-0.1h0.3l0.3-0.1h0.3l0.3-0.1l0.3-0.1l0.3-0.1l0.3-0.1l0.2-0.2l0.2-0.1l0.3-0.2
		l0.1-0.1l0.2-0.2l0.1-0.2l0.2-0.1v-0.2l0.1-0.2l0.1-0.2v-0.2v-0.2l-0.1-0.2 M3.85,27.25v0.2v0.2l0.1,0.2l0.1,0.2l0.1,0.1l0.1,0.2
		l0.2,0.2l0.2,0.1l0.2,0.2l0.2,0.1 M5.05,28.95l0.3,0.2l0.2,0.1l0.3,0.1l0.3,0.1l0.3,0.1h0.3l0.3,0.1h0.3h0.4l0.3,0.1l0.3-0.1h0.4
		h0.3l0.3-0.1h0.3l0.3-0.1l0.3-0.1l0.3-0.1l0.3-0.1l0.2-0.2l0.2-0.1l0.3-0.2l0.1-0.1l0.2-0.2l0.1-0.2l0.2-0.1v-0.2l0.1-0.2l0.1-0.2
		v-0.2 M3.85,26.55v0.1v0.2v0.1v0.2v0.2l0.1,0.2l0.1,0.2l0.1,0.2l0.1,0.2l0.2,0.1l0.2,0.2l0.2,0.1l0.2,0.2 M5.05,28.75l0.3,0.1
		l0.2,0.1l0.3,0.1l0.3,0.1l0.3,0.1l0.3,0.1h0.3l0.3,0.1h0.4h0.3h0.3h0.4l0.3-0.1h0.3l0.3-0.1l0.3-0.1l0.3-0.1l0.3-0.1l0.3-0.1
		l0.2-0.1l0.2-0.2l0.3-0.1l0.1-0.2l0.2-0.1l0.1-0.2l0.2-0.2v-0.2l0.1-0.2l0.1-0.2v-0.2v-0.1l-0.1-0.2v-0.1 M3.85,26.05v0.2v0.2
		l0.1,0.2l0.1,0.2l0.1,0.2l0.1,0.2l0.2,0.1l0.2,0.2l0.2,0.1l0.2,0.2 M5.05,27.85l0.3,0.1l0.2,0.1l0.3,0.1l0.3,0.1l0.3,0.1l0.3,0.1
		h0.3l0.3,0.1h0.4h0.3h0.3h0.4l0.3-0.1h0.3l0.3-0.1l0.3-0.1l0.3-0.1l0.3-0.1l0.3-0.1l0.2-0.1l0.2-0.2l0.3-0.1l0.1-0.2l0.2-0.1
		l0.1-0.2l0.2-0.2v-0.2l0.1-0.2l0.1-0.2v-0.2 M3.85,25.35v0.1v0.2v0.2v0.2v0.2l0.1,0.2l0.1,0.1l0.1,0.2l0.1,0.2l0.2,0.2l0.2,0.1
		l0.2,0.2l0.2,0.1 M5.05,27.55l0.3,0.2l0.2,0.1l0.3,0.1l0.3,0.1l0.3,0.1h0.3l0.3,0.1h0.3h0.4h0.3h0.3h0.4h0.3l0.3-0.1h0.3l0.3-0.1
		l0.3-0.1l0.3-0.1l0.3-0.1l0.2-0.2l0.2-0.1l0.3-0.2l0.1-0.1l0.2-0.2l0.1-0.2l0.2-0.2v-0.1l0.1-0.2l0.1-0.2v-0.2v-0.2l-0.1-0.2v-0.1
		 M3.85,24.95v0.2v0.2l0.1,0.2l0.1,0.1l0.1,0.2l0.1,0.2l0.2,0.2l0.2,0.1l0.2,0.2l0.2,0.1 M5.05,26.65l0.3,0.1l0.2,0.2l0.3,0.1
		l0.3,0.1h0.3l0.3,0.1l0.3,0.1h0.3h0.4h0.3h0.3h0.4h0.3l0.3-0.1l0.3-0.1h0.3l0.3-0.1l0.3-0.1l0.3-0.2l0.2-0.1l0.2-0.1l0.3-0.2
		l0.1-0.1l0.2-0.2l0.1-0.2l0.2-0.2v-0.1l0.1-0.2l0.1-0.2v-0.2 M3.85,24.25L3.85,24.25v0.2v0.2v0.2v0.2l0.1,0.2l0.1,0.2l0.1,0.2
		l0.1,0.1l0.2,0.2l0.2,0.2l0.2,0.1l0.2,0.2 M5.05,26.45l0.3,0.1l0.2,0.1l0.3,0.1l0.3,0.1l0.3,0.1l0.3,0.1h0.3l0.3,0.1h0.4h0.3h0.3
		h0.4l0.3-0.1h0.3l0.3-0.1l0.3-0.1l0.3-0.1l0.3-0.1l0.3-0.1l0.2-0.1l0.2-0.2l0.3-0.1l0.1-0.2l0.2-0.2l0.1-0.1l0.2-0.2v-0.2l0.1-0.2
		l0.1-0.2v-0.2v-0.2l-0.1-0.2 M3.85,23.75v0.2v0.2l0.1,0.2l0.1,0.2l0.1,0.2l0.1,0.1l0.2,0.2l0.2,0.2l0.2,0.1l0.2,0.2 M5.05,25.55
		l0.3,0.1l0.2,0.1l0.3,0.1l0.3,0.1l0.3,0.1l0.3,0.1h0.3h0.3l0.4,0.1h0.3h0.3l0.4-0.1h0.3h0.3l0.3-0.1l0.3-0.1l0.3-0.1l0.3-0.1
		l0.3-0.1l0.2-0.1l0.2-0.2l0.3-0.1l0.1-0.2l0.2-0.2l0.1-0.1l0.2-0.2v-0.2l0.1-0.2l0.1-0.2v-0.2 M3.85,23.05v0.1v0.2v0.2v0.2v0.2
		l0.1,0.1l0.1,0.2l0.1,0.2l0.1,0.2l0.2,0.2l0.2,0.1l0.2,0.2l0.2,0.1 M5.05,25.25l0.3,0.1l0.2,0.2l0.3,0.1l0.3,0.1h0.3l0.3,0.1
		l0.3,0.1h0.3h0.4h0.3h0.3h0.4h0.3l0.3-0.1l0.3-0.1h0.3l0.3-0.1l0.3-0.1l0.3-0.2l0.2-0.1l0.2-0.1l0.3-0.2l0.1-0.1l0.2-0.2l0.1-0.2
		l0.2-0.2v-0.2l0.1-0.1l0.1-0.2v-0.2v-0.2l-0.1-0.2v-0.1 M3.85,22.65v0.2v0.2l0.1,0.1l0.1,0.2l0.1,0.2l0.1,0.2l0.2,0.1l0.2,0.2
		l0.2,0.2l0.2,0.1 M5.05,24.35l0.3,0.1l0.2,0.2l0.3,0.1l0.3,0.1h0.3l0.3,0.1l0.3,0.1h0.3h0.4h0.3h0.3h0.4h0.3l0.3-0.1l0.3-0.1h0.3
		l0.3-0.1l0.3-0.1l0.3-0.2l0.2-0.1l0.2-0.1l0.3-0.2l0.1-0.2l0.2-0.1l0.1-0.2l0.2-0.2v-0.2l0.1-0.1l0.1-0.2v-0.2 M3.85,21.95
		L3.85,21.95v0.2v0.2v0.2v0.2l0.1,0.2l0.1,0.2l0.1,0.2l0.1,0.1l0.2,0.2l0.2,0.2l0.2,0.1l0.2,0.2 M5.05,24.15l0.3,0.1l0.2,0.1
		l0.3,0.1l0.3,0.1l0.3,0.1l0.3,0.1h0.3h0.3l0.4,0.1h0.3h0.3l0.4-0.1h0.3h0.3l0.3-0.1l0.3-0.1l0.3-0.1l0.3-0.1l0.3-0.1l0.2-0.1
		l0.2-0.2l0.3-0.1l0.1-0.2l0.2-0.2l0.1-0.1l0.2-0.2v-0.2l0.1-0.2l0.1-0.2v-0.2v-0.2l-0.1-0.2 M3.85,21.45v0.2v0.2l0.1,0.2l0.1,0.2
		l0.1,0.1l0.1,0.2l0.2,0.2l0.2,0.2l0.2,0.1l0.2,0.1 M5.05,23.15l0.3,0.2l0.2,0.1l0.3,0.1l0.3,0.1l0.3,0.1h0.3l0.3,0.1h0.3l0.4,0.1
		h0.3h0.3l0.4-0.1h0.3l0.3-0.1h0.3l0.3-0.1l0.3-0.1l0.3-0.1l0.3-0.1l0.2-0.2l0.2-0.1l0.3-0.1l0.1-0.2l0.2-0.2l0.1-0.2l0.2-0.1v-0.2
		l0.1-0.2l0.1-0.2v-0.2 M3.85,20.75v0.1v0.2v0.2v0.2v0.1l0.1,0.2l0.1,0.2l0.1,0.2l0.1,0.2l0.2,0.1l0.2,0.2l0.2,0.2l0.2,0.1
		 M5.05,22.95l0.3,0.1l0.2,0.1l0.3,0.2h0.3l0.3,0.1l0.3,0.1h0.3l0.3,0.1h0.4h0.3h0.3h0.4l0.3-0.1h0.3l0.3-0.1l0.3-0.1h0.3l0.3-0.2
		l0.3-0.1l0.2-0.1l0.2-0.1l0.3-0.2l0.1-0.2l0.2-0.1l0.1-0.2l0.2-0.2v-0.2l0.1-0.2l0.1-0.1v-0.2v-0.2l-0.1-0.2v-0.1 M3.85,20.35v0.1
		v0.2l0.1,0.2l0.1,0.2l0.1,0.2l0.1,0.2l0.2,0.1l0.2,0.2l0.2,0.1l0.2,0.2 M5.05,22.05l0.3,0.1l0.2,0.1l0.3,0.1l0.3,0.1l0.3,0.1
		l0.3,0.1h0.3l0.3,0.1h0.4h0.3h0.3h0.4l0.3-0.1h0.3l0.3-0.1l0.3-0.1l0.3-0.1l0.3-0.1l0.3-0.1l0.2-0.1l0.2-0.2l0.3-0.1l0.1-0.2
		l0.2-0.1l0.1-0.2l0.2-0.2v-0.2l0.1-0.2l0.1-0.2v-0.1 M3.85,19.55v0.1v0.2v0.2v0.2v0.2l0.1,0.2l0.1,0.2l0.1,0.1l0.1,0.2l0.2,0.2
		l0.2,0.1l0.2,0.2l0.2,0.1 M5.05,21.75l0.3,0.2l0.2,0.1l0.3,0.1l0.3,0.1l0.3,0.1h0.3l0.3,0.1h0.3l0.4,0.1h0.3h0.3l0.4-0.1h0.3
		l0.3-0.1h0.3l0.3-0.1l0.3-0.1l0.3-0.1l0.3-0.1l0.2-0.2l0.2-0.1l0.3-0.2l0.1-0.1l0.2-0.2l0.1-0.2l0.2-0.1v-0.2l0.1-0.2l0.1-0.2v-0.2
		v-0.2l-0.1-0.2v-0.1 M3.85,19.15v0.2v0.2l0.1,0.2l0.1,0.2l0.1,0.1l0.1,0.2l0.2,0.2l0.2,0.1l0.2,0.2l0.2,0.1 M5.05,20.85l0.3,0.2
		l0.2,0.1l0.3,0.1l0.3,0.1l0.3,0.1h0.3l0.3,0.1h0.3h0.4h0.3h0.3h0.4h0.3l0.3-0.1h0.3l0.3-0.1l0.3-0.1l0.3-0.1l0.3-0.1l0.2-0.2
		l0.2-0.1l0.3-0.2l0.1-0.1l0.2-0.2l0.1-0.2l0.2-0.1v-0.2l0.1-0.2l0.1-0.2v-0.2 M3.85,18.45v0.1v0.2v0.1v0.2v0.2l0.1,0.2l0.1,0.2
		l0.1,0.2l0.1,0.2l0.2,0.1l0.2,0.2l0.2,0.1l0.2,0.2 M5.05,20.65l0.3,0.1l0.2,0.1l0.3,0.1l0.3,0.1l0.3,0.1l0.3,0.1h0.3l0.3,0.1h0.4
		h0.3h0.3h0.4l0.3-0.1h0.3l0.3-0.1l0.3-0.1l0.3-0.1l0.3-0.1l0.3-0.1l0.2-0.1l0.2-0.2l0.3-0.1l0.1-0.2l0.2-0.1l0.1-0.2l0.2-0.2v-0.2
		l0.1-0.2l0.1-0.2v-0.2v-0.1l-0.1-0.2v-0.1 M3.85,17.95v0.2v0.2l0.1,0.2l0.1,0.2l0.1,0.2l0.1,0.2l0.2,0.1l0.2,0.2l0.2,0.1l0.2,0.2
		 M5.05,19.75l0.3,0.1l0.2,0.1l0.3,0.1l0.3,0.1l0.3,0.1l0.3,0.1h0.3l0.3,0.1h0.4h0.3h0.3h0.4l0.3-0.1h0.3l0.3-0.1l0.3-0.1l0.3-0.1
		l0.3-0.1l0.3-0.1l0.2-0.1l0.2-0.2l0.3-0.1l0.1-0.2l0.2-0.1l0.1-0.2l0.2-0.2v-0.2l0.1-0.2l0.1-0.2v-0.2 M3.85,17.25v0.1v0.2v0.2v0.2
		v0.2l0.1,0.2l0.1,0.1l0.1,0.2l0.1,0.2l0.2,0.2l0.2,0.1l0.2,0.2l0.2,0.1 M5.05,19.45l0.3,0.2l0.2,0.1l0.3,0.1l0.3,0.1l0.3,0.1h0.3
		l0.3,0.1h0.3h0.4h0.3h0.3h0.4h0.3l0.3-0.1h0.3l0.3-0.1l0.3-0.1l0.3-0.1l0.3-0.1l0.2-0.2l0.2-0.1l0.3-0.2l0.1-0.1l0.2-0.2l0.1-0.2
		l0.2-0.2v-0.1l0.1-0.2l0.1-0.2v-0.2v-0.2l-0.1-0.2v-0.1 M3.85,16.85v0.2v0.2l0.1,0.2l0.1,0.1l0.1,0.2l0.1,0.2l0.2,0.2l0.2,0.1
		l0.2,0.2l0.2,0.1 M5.05,18.55l0.3,0.1l0.2,0.2l0.3,0.1l0.3,0.1h0.3l0.3,0.1l0.3,0.1h0.3h0.4h0.3h0.3h0.4h0.3l0.3-0.1l0.3-0.1h0.3
		l0.3-0.1l0.3-0.1l0.3-0.2l0.2-0.1l0.2-0.1l0.3-0.2l0.1-0.1l0.2-0.2l0.1-0.2l0.2-0.2v-0.1l0.1-0.2l0.1-0.2v-0.2 M3.85,16.15
		L3.85,16.15v0.2v0.2v0.2v0.2l0.1,0.2l0.1,0.2l0.1,0.2l0.1,0.1l0.2,0.2l0.2,0.2l0.2,0.1l0.2,0.2 M5.05,18.35l0.3,0.1l0.2,0.1
		l0.3,0.1l0.3,0.1l0.3,0.1l0.3,0.1h0.3l0.3,0.1h0.4h0.3h0.3h0.4l0.3-0.1h0.3l0.3-0.1l0.3-0.1l0.3-0.1l0.3-0.1l0.3-0.1l0.2-0.1
		l0.2-0.2l0.3-0.1l0.1-0.2l0.2-0.2l0.1-0.1l0.2-0.2v-0.2l0.1-0.2l0.1-0.2v-0.2v-0.2l-0.1-0.2 M3.85,15.65v0.2v0.2l0.1,0.2l0.1,0.2
		l0.1,0.2l0.1,0.1l0.2,0.2l0.2,0.2l0.2,0.1l0.2,0.2 M5.05,17.45l0.3,0.1l0.2,0.1l0.3,0.1l0.3,0.1l0.3,0.1l0.3,0.1h0.3h0.3l0.4,0.1
		h0.3h0.3l0.4-0.1h0.3h0.3l0.3-0.1l0.3-0.1l0.3-0.1l0.3-0.1l0.3-0.1l0.2-0.1l0.2-0.2l0.3-0.1l0.1-0.2l0.2-0.2l0.1-0.1l0.2-0.2v-0.2
		l0.1-0.2l0.1-0.2v-0.2 M3.85,15.25v0.2v0.2v0.2l0.1,0.1l0.1,0.2l0.1,0.2l0.1,0.2l0.2,0.2l0.2,0.1l0.2,0.2l0.2,0.1 M5.05,17.15
		l0.3,0.1l0.2,0.2l0.3,0.1l0.3,0.1h0.3l0.3,0.1l0.3,0.1h0.3h0.4h0.3h0.3h0.4h0.3l0.3-0.1l0.3-0.1h0.3l0.3-0.1l0.3-0.1l0.3-0.2
		l0.2-0.1l0.2-0.1l0.3-0.2l0.1-0.1l0.2-0.2l0.1-0.2l0.2-0.2v-0.2l0.1-0.1l0.1-0.2v-0.2v-0.2 M9.05,5.55l-2.1-0.3 M10.95,5.85
		l-1.9-0.3 M5.45,6.05l-0.3,0.2 M6.95,5.25l-1.5,0.8 M6.95,5.25v-3 M4.05,15.35l0.1,0.1l0.1,0.2l0.2,0.1l0.2,0.2l0.2,0.2l0.2,0.1
		 M5.05,16.25l0.3,0.1l0.2,0.2l0.3,0.1l0.3,0.1h0.3l0.3,0.1l0.3,0.1h0.3h0.4h0.3h0.3h0.4h0.3l0.3-0.1l0.3-0.1h0.3l0.3-0.1l0.3-0.1
		l0.3-0.2l0.2-0.1l0.2-0.1l0.3-0.2l0.1-0.2l0.2-0.1l0.1-0.2l0.1-0.1 M11.05,5.85v-3 M10.55,6.05l-0.2-0.1l-0.2-0.1l-0.3-0.1
		l-0.3-0.1l-0.2-0.1h-0.3 M9.05,5.55h-0.4l-0.3-0.1h-0.3h-0.3l-0.3,0.1h-0.3h-0.3l-0.3,0.1l-0.3,0.1l-0.3,0.1l-0.2,0.1l-0.3,0.1
		 M5.45,6.05l-0.2,0.2h-0.1 M11.05,2.85l1.1,2.3 M9.15,6.85l3-1.7 M9.15,6.85l-4-0.6 M5.15,6.25l-1.1-2.3 M6.95,2.25l-2.9,1.7
		 M11.05,2.85l-4.1-0.6 M0.25,11.45v0.2v0.2l0.1,0.3l0.1,0.3l0.1,0.2l0.1,0.3l0.2,0.2l0.1,0.3l0.3,0.2l0.2,0.2l0.2,0.2l0.3,0.2
		l0.3,0.2l0.3,0.2l0.3,0.2l0.4,0.2l0.3,0.1l0.4,0.2l0.4,0.1l0.4,0.1l0.4,0.1l0.5,0.1l0.4,0.1l0.4,0.1h0.5h0.4h0.5h0.4h0.5h0.4h0.5
		l0.4-0.1l0.5-0.1l0.4-0.1l0.4-0.1l0.4-0.1l0.4-0.1l0.4-0.2l0.3-0.1l0.4-0.2l0.3-0.2 M13.55,14.65l0.3-0.2l0.3-0.2l0.3-0.2l0.2-0.2
		l0.3-0.2l0.2-0.2l0.2-0.3l0.1-0.2l0.1-0.3l0.1-0.2l0.1-0.3l0.1-0.3v-0.2v-0.2 M15.85,4.95L15.85,4.95 M10.55,31.45l0.5-0.3
		 M5.05,31.15l0.6,0.3 M12.35,29.35L12.35,29.35 M3.85,29.35L3.85,29.35 M12.35,28.45v-0.3 M3.85,28.15v0.3 M12.35,27.25v-0.3
		 M3.85,26.95v0.3 M12.35,26.05v-0.2 M3.85,25.85v0.2 M12.35,24.95v-0.3 M3.85,24.65v0.3 M12.35,23.75v-0.2 M3.85,23.55v0.2
		 M12.35,22.65v-0.3 M3.85,22.35v0.3 M12.35,21.45v-0.2 M3.85,21.25v0.2 M12.35,20.35v-0.3 M3.85,20.05v0.3 M12.35,19.15v-0.3
		 M3.85,18.85v0.3 M12.35,17.95v-0.2 M3.85,17.75v0.2 M12.35,16.85v-0.3 M3.85,16.55v0.3 M12.35,15.65v-0.2 M3.85,15.45v0.2
		 M15.85,11.45v-6.5 M0.25,4.95v6.5 M15.85,4.95v-0.1v-0.2v-0.3l-0.1-0.3l-0.1-0.2l-0.1-0.3l-0.1-0.2l-0.2-0.3l-0.2-0.2l-0.2-0.2
		l-0.2-0.2l-0.2-0.3l-0.3-0.2l-0.3-0.2l-0.2-0.2l-0.4-0.1l-0.3-0.2l-0.3-0.2l-0.4-0.1l-0.4-0.1l-0.3-0.2l-0.4-0.1l-0.4-0.1h-0.4
		l-0.4-0.1l-0.5-0.1h-0.4h-0.4h-0.4h-0.5h-0.4h-0.4l-0.4,0.1h-0.5l-0.4,0.1l-0.4,0.1l-0.4,0.1l-0.4,0.1l-0.3,0.1l-0.4,0.1l-0.3,0.2
		l-0.4,0.1l-0.3,0.2l-0.3,0.2l-0.3,0.2l-0.3,0.2l-0.2,0.2l-0.3,0.2l-0.2,0.3l-0.2,0.2l-0.1,0.2l-0.2,0.3l-0.1,0.2l-0.1,0.3l-0.1,0.2
		v0.3l-0.1,0.3v0.2"/>
</g>
</svg>
