<?xml version="1.0" encoding="utf-8"?>
<!-- Generator: Adobe Illustrator 19.0.0, SVG Export Plug-In . SVG Version: 6.00 Build 0)  -->
<svg version="1.0" id="Layer_1" xmlns="http://www.w3.org/2000/svg" xmlns:xlink="http://www.w3.org/1999/xlink" x="0px" y="0px"
	 width="16px" height="41.5px" viewBox="0 0 16 41.5" enable-background="new 0 0 16 41.5" xml:space="preserve">
<g>
	
		<path fill="none" stroke="#000000" stroke-width="0.25" stroke-linecap="round" stroke-linejoin="round" stroke-miterlimit="10" d="
		M15.75,4.85v0.1v0.3v0.3l-0.1,0.2l-0.1,0.3l-0.2,0.3l-0.2,0.3l-0.2,0.2l-0.2,0.3l-0.3,0.2l-0.3,0.3l-0.3,0.2l-0.3,0.2 M13.55,8.05
		l-0.4,0.2l-0.4,0.2l-0.4,0.2l-0.4,0.1l-0.5,0.2l-0.4,0.1l-0.5,0.1l-0.5,0.1h-0.5l-0.5,0.1h-0.5h-0.5h-0.5h-0.5h-0.5l-0.5-0.1
		l-0.5-0.1l-0.4-0.1l-0.5-0.1l-0.5-0.1l-0.4-0.2l-0.4-0.2l-0.4-0.1l-0.4-0.2l-0.3-0.2l-0.4-0.3l-0.3-0.2l-0.2-0.2l-0.3-0.3l-0.2-0.3
		l-0.2-0.2l-0.1-0.3l-0.2-0.3l-0.1-0.3v-0.3v-0.3 M13.25,7.55l0.3-0.2l0.3-0.2l0.3-0.3l0.2-0.2l0.3-0.3l0.2-0.2l0.1-0.3l0.2-0.3
		l0.1-0.2l0.1-0.3v-0.3v-0.3v-0.3l-0.1-0.2l-0.1-0.3l-0.1-0.3l-0.1-0.3l-0.2-0.2l-0.2-0.3l-0.3-0.2l-0.2-0.3l-0.3-0.2l-0.4-0.2
		l-0.3-0.2l-0.4-0.2l-0.4-0.2l-0.4-0.1l-0.4-0.2l-0.5-0.1l-0.4-0.1l-0.5-0.1l-0.5-0.1h-0.4h-0.5l-0.5-0.1h-0.5l-0.5,0.1h-0.5
		l-0.5,0.1h-0.5l-0.4,0.1l-0.5,0.2l-0.4,0.1l-0.4,0.1l-0.4,0.2l-0.4,0.2l-0.4,0.2l-0.3,0.2l-0.3,0.2l-0.3,0.2l-0.3,0.3l-0.2,0.2
		l-0.2,0.3l-0.2,0.3l-0.1,0.2l-0.1,0.3l-0.1,0.3v0.3v0.3v0.2l0.1,0.3v0.3l0.2,0.3l0.1,0.3l0.2,0.2l0.2,0.3l0.3,0.2l0.2,0.3l0.3,0.2
		l0.4,0.2l0.3,0.2l0.4,0.2l0.4,0.2l0.4,0.1l0.4,0.2l0.5,0.1l0.4,0.1l0.5,0.1h0.5l0.4,0.1h0.5h0.5h0.5h0.5h0.5l0.5-0.1l0.4-0.1
		l0.5-0.1l0.5-0.1l0.4-0.1l0.4-0.2l0.4-0.1l0.4-0.2L13.25,7.55"/>
	<path fill="none" stroke="#000000" stroke-width="0.5" stroke-linecap="round" stroke-linejoin="round" stroke-miterlimit="10" d="
		M5.55,40.65L5.55,40.65l0.3,0.2l0.2,0.1l0.3,0.1l0.3,0.1h0.3l0.4,0.1h0.3h0.3h0.4h0.3l0.3-0.1h0.4l0.3-0.1l0.3-0.1l0.2-0.1l0.3-0.2
		 M3.75,38.65v0.1v0.2l0.1,0.2l0.1,0.2l0.1,0.2l0.2,0.2l0.2,0.2l0.2,0.2l0.3,0.2l0.2,0.1l0.3,0.1l0.4,0.2l0.3,0.1l0.3,0.1h0.4
		l0.4,0.1h0.3h0.4h0.4h0.3l0.4-0.1h0.4l0.3-0.1l0.4-0.1l0.3-0.1l0.3-0.2l0.3-0.1 M11.05,40.35l0.2-0.2l0.2-0.1l0.2-0.2l0.2-0.2
		l0.2-0.2l0.1-0.2v-0.2l0.1-0.2v-0.2 M3.85,38.15l-0.1,0.2v0.2v0.2l0.1,0.2v0.2l0.1,0.2l0.2,0.2l0.2,0.2l0.2,0.2l0.2,0.2l0.2,0.1
		 M4.95,40.25l0.3,0.2l0.3,0.1l0.3,0.1l0.4,0.1l0.3,0.1l0.4,0.1h0.3l0.4,0.1h0.4h0.4l0.3-0.1h0.4l0.4-0.1l0.3-0.1l0.3-0.1l0.4-0.1
		l0.2-0.1l0.3-0.2l0.3-0.2l0.2-0.1l0.2-0.2l0.1-0.2l0.2-0.2l0.1-0.2l0.1-0.2v-0.3v-0.2v-0.2l-0.1-0.1 M3.75,37.65v0.2l0.1,0.2v0.2
		l0.1,0.2l0.2,0.2l0.2,0.2l0.2,0.2l0.2,0.2l0.2,0.1 M4.95,39.35l0.3,0.2l0.3,0.1l0.3,0.1l0.4,0.1l0.3,0.1l0.4,0.1h0.3h0.4l0.4,0.1
		l0.4-0.1h0.3h0.4l0.4-0.1l0.3-0.1l0.3-0.1l0.4-0.1l0.2-0.2l0.3-0.1l0.3-0.2l0.2-0.1l0.2-0.2l0.1-0.2l0.2-0.2l0.1-0.2l0.1-0.2v-0.3
		v-0.1 M3.85,36.95l-0.1,0.2v0.2v0.2l0.1,0.3v0.2l0.1,0.2l0.2,0.2l0.2,0.2l0.2,0.2l0.2,0.1l0.2,0.2 M4.95,39.15l0.3,0.1l0.3,0.2
		l0.3,0.1l0.4,0.1l0.3,0.1h0.4l0.3,0.1h0.4h0.4h0.4h0.3l0.4-0.1l0.4-0.1h0.3l0.3-0.1l0.4-0.2l0.2-0.1l0.3-0.2l0.3-0.1l0.2-0.2
		l0.2-0.2l0.1-0.2l0.2-0.2l0.1-0.2l0.1-0.2v-0.2v-0.2v-0.2l-0.1-0.2 M3.75,36.45v0.2l0.1,0.2v0.3l0.1,0.2l0.2,0.2l0.2,0.2l0.2,0.1
		l0.2,0.2l0.2,0.2 M4.95,38.25l0.3,0.1l0.3,0.2l0.3,0.1l0.4,0.1l0.3,0.1h0.4l0.3,0.1h0.4h0.4h0.4h0.3l0.4-0.1l0.4-0.1l0.3-0.1
		l0.3-0.1l0.4-0.1l0.2-0.1l0.3-0.2l0.3-0.1l0.2-0.2l0.2-0.2l0.1-0.2l0.2-0.2l0.1-0.2l0.1-0.2v-0.2v-0.2 M3.85,35.75l-0.1,0.2v0.3
		v0.2l0.1,0.2v0.2l0.1,0.2l0.2,0.2l0.2,0.2l0.2,0.2l0.2,0.2l0.2,0.1 M4.95,37.95l0.3,0.2l0.3,0.1l0.3,0.1l0.4,0.1l0.3,0.1l0.4,0.1
		h0.3h0.4h0.4h0.4h0.3h0.4l0.4-0.1l0.3-0.1l0.3-0.1l0.4-0.1l0.2-0.2l0.3-0.1l0.3-0.2l0.2-0.1l0.2-0.2l0.1-0.2l0.2-0.2l0.1-0.2
		l0.1-0.3v-0.2v-0.2v-0.2l-0.1-0.2 M3.75,35.35v0.2l0.1,0.2v0.2l0.1,0.2l0.2,0.2l0.2,0.2l0.2,0.2l0.2,0.2l0.2,0.1 M4.95,37.05
		l0.3,0.2l0.3,0.1l0.3,0.1l0.4,0.1l0.3,0.1l0.4,0.1h0.3h0.4h0.4h0.4h0.3l0.4-0.1h0.4l0.3-0.1l0.3-0.1l0.4-0.1l0.2-0.2l0.3-0.1
		l0.3-0.2l0.2-0.2l0.2-0.1l0.1-0.2l0.2-0.2l0.1-0.3l0.1-0.2v-0.2v-0.1 M3.85,34.65l-0.1,0.2v0.2v0.2l0.1,0.2v0.3l0.1,0.2l0.2,0.2
		l0.2,0.2l0.2,0.1l0.2,0.2l0.2,0.2 M4.95,36.85l0.3,0.1l0.3,0.2l0.3,0.1l0.4,0.1h0.3l0.4,0.1l0.3,0.1h0.4h0.4h0.4l0.3-0.1h0.4
		l0.4-0.1l0.3-0.1l0.3-0.1l0.4-0.1l0.2-0.1l0.3-0.2l0.3-0.1l0.2-0.2l0.2-0.2l0.1-0.2l0.2-0.2l0.1-0.2l0.1-0.2v-0.2v-0.2v-0.3
		l-0.1-0.1 M3.75,34.15v0.2l0.1,0.2v0.2l0.1,0.3l0.2,0.2l0.2,0.1l0.2,0.2l0.2,0.2l0.2,0.2 M4.95,35.95l0.3,0.1l0.3,0.1l0.3,0.2
		l0.4,0.1h0.3l0.4,0.1h0.3l0.4,0.1h0.4h0.4l0.3-0.1h0.4l0.4-0.1l0.3-0.1l0.3-0.1l0.4-0.1l0.2-0.1l0.3-0.2l0.3-0.1l0.2-0.2l0.2-0.2
		l0.1-0.2l0.2-0.2l0.1-0.2l0.1-0.2v-0.2v-0.2 M3.85,33.45l-0.1,0.2v0.3v0.2l0.1,0.2v0.2l0.1,0.2l0.2,0.2l0.2,0.2l0.2,0.2l0.2,0.2
		l0.2,0.1 M4.95,35.65l0.3,0.2l0.3,0.1l0.3,0.1l0.4,0.1l0.3,0.1l0.4,0.1h0.3h0.4h0.4h0.4h0.3l0.4-0.1h0.4l0.3-0.1l0.3-0.1l0.4-0.1
		l0.2-0.2l0.3-0.1l0.3-0.2l0.2-0.2l0.2-0.1l0.1-0.2l0.2-0.2l0.1-0.3l0.1-0.2v-0.2v-0.2v-0.2l-0.1-0.2 M3.75,33.05v0.2l0.1,0.2v0.2
		l0.1,0.2l0.2,0.2l0.2,0.2l0.2,0.2l0.2,0.1l0.2,0.2 M4.95,34.75l0.3,0.2l0.3,0.1l0.3,0.1l0.4,0.1l0.3,0.1h0.4l0.3,0.1h0.4h0.4h0.4
		h0.3l0.4-0.1h0.4l0.3-0.1l0.3-0.1l0.4-0.1l0.2-0.2l0.3-0.1l0.3-0.2l0.2-0.2l0.2-0.2l0.1-0.2l0.2-0.2l0.1-0.2l0.1-0.2v-0.2v-0.1
		 M3.85,32.35l-0.1,0.2v0.2v0.2l0.1,0.2v0.2l0.1,0.2l0.2,0.2l0.2,0.2l0.2,0.2l0.2,0.2l0.2,0.2 M4.95,34.55l0.3,0.1l0.3,0.1l0.3,0.2
		l0.4,0.1h0.3l0.4,0.1h0.3l0.4,0.1h0.4h0.4l0.3-0.1h0.4l0.4-0.1l0.3-0.1l0.3-0.1l0.4-0.1l0.2-0.1l0.3-0.2l0.3-0.1l0.2-0.2l0.2-0.2
		l0.1-0.2l0.2-0.2l0.1-0.2l0.1-0.2v-0.2v-0.3v-0.2l-0.1-0.1 M3.75,31.85v0.2l0.1,0.2v0.2l0.1,0.2l0.2,0.2l0.2,0.2l0.2,0.2l0.2,0.2
		l0.2,0.1 M4.95,33.55l0.3,0.2l0.3,0.1l0.3,0.1l0.4,0.1l0.3,0.1l0.4,0.1h0.3l0.4,0.1h0.4h0.4l0.3-0.1h0.4l0.4-0.1l0.3-0.1l0.3-0.1
		l0.4-0.1l0.2-0.1l0.3-0.2l0.3-0.2l0.2-0.1l0.2-0.2l0.1-0.2l0.2-0.2l0.1-0.2l0.1-0.2v-0.3v-0.1 M3.85,31.15l-0.1,0.2v0.2v0.3
		l0.1,0.2v0.2l0.1,0.2l0.2,0.2l0.2,0.2l0.2,0.2l0.2,0.1l0.2,0.2 M4.95,33.35l0.3,0.1l0.3,0.2l0.3,0.1l0.4,0.1l0.3,0.1h0.4l0.3,0.1
		h0.4h0.4h0.4h0.3l0.4-0.1h0.4l0.3-0.1l0.3-0.1l0.4-0.2l0.2-0.1l0.3-0.1l0.3-0.2l0.2-0.2l0.2-0.2l0.1-0.2l0.2-0.2l0.1-0.2l0.1-0.2
		v-0.2v-0.2v-0.2l-0.1-0.2 M3.75,30.75v0.1l0.1,0.3v0.2l0.1,0.2l0.2,0.2l0.2,0.2l0.2,0.2l0.2,0.1l0.2,0.2 M4.95,32.45l0.3,0.1
		l0.3,0.2l0.3,0.1l0.4,0.1l0.3,0.1h0.4l0.3,0.1h0.4h0.4h0.4h0.3l0.4-0.1l0.4-0.1h0.3l0.3-0.1l0.4-0.2l0.2-0.1l0.3-0.1l0.3-0.2
		l0.2-0.2l0.2-0.2l0.1-0.2l0.2-0.2l0.1-0.2l0.1-0.2v-0.2v-0.1 M3.85,30.05l-0.1,0.2v0.2v0.2l0.1,0.2v0.2l0.1,0.2l0.2,0.2l0.2,0.2
		l0.2,0.2l0.2,0.2l0.2,0.1 M4.95,32.15l0.3,0.2l0.3,0.1l0.3,0.1l0.4,0.1l0.3,0.1l0.4,0.1h0.3l0.4,0.1h0.4l0.4-0.1h0.3h0.4l0.4-0.1
		l0.3-0.1l0.3-0.1l0.4-0.1l0.2-0.1l0.3-0.2l0.3-0.2l0.2-0.1l0.2-0.2l0.1-0.2l0.2-0.2l0.1-0.2l0.1-0.2v-0.3v-0.2v-0.2l-0.1-0.1
		 M3.75,29.55v0.2l0.1,0.2v0.2l0.1,0.2l0.2,0.2l0.2,0.2l0.2,0.2l0.2,0.2l0.2,0.1 M4.95,31.25l0.3,0.2l0.3,0.1l0.3,0.1l0.4,0.1
		l0.3,0.1l0.4,0.1h0.3h0.4l0.4,0.1l0.4-0.1h0.3h0.4l0.4-0.1l0.3-0.1l0.3-0.1l0.4-0.1l0.2-0.2l0.3-0.1l0.3-0.2l0.2-0.1l0.2-0.2
		l0.1-0.2l0.2-0.2l0.1-0.2l0.1-0.3v-0.2v-0.1 M3.85,28.85l-0.1,0.2v0.2v0.2l0.1,0.3v0.2l0.1,0.2l0.2,0.2l0.2,0.2l0.2,0.2l0.2,0.1
		l0.2,0.2 M4.95,31.05l0.3,0.1l0.3,0.2l0.3,0.1l0.4,0.1l0.3,0.1h0.4l0.3,0.1h0.4h0.4h0.4h0.3l0.4-0.1l0.4-0.1h0.3l0.3-0.1l0.4-0.2
		l0.2-0.1l0.3-0.2l0.3-0.1l0.2-0.2l0.2-0.2l0.1-0.2l0.2-0.2l0.1-0.2l0.1-0.2v-0.2v-0.2v-0.2l-0.1-0.2 M3.75,28.35v0.2l0.1,0.2v0.3
		l0.1,0.2l0.2,0.2l0.2,0.2l0.2,0.1l0.2,0.2l0.2,0.2 M4.95,30.15l0.3,0.1l0.3,0.2l0.3,0.1l0.4,0.1l0.3,0.1h0.4l0.3,0.1h0.4h0.4h0.4
		h0.3l0.4-0.1l0.4-0.1l0.3-0.1l0.3-0.1l0.4-0.1l0.2-0.1l0.3-0.2l0.3-0.1l0.2-0.2l0.2-0.2l0.1-0.2l0.2-0.2l0.1-0.2l0.1-0.2v-0.2v-0.2
		 M3.85,27.65l-0.1,0.2v0.3v0.2l0.1,0.2v0.2l0.1,0.2l0.2,0.2l0.2,0.2l0.2,0.2l0.2,0.2l0.2,0.1 M4.95,29.85l0.3,0.2l0.3,0.1l0.3,0.1
		l0.4,0.1l0.3,0.1l0.4,0.1h0.3h0.4h0.4h0.4h0.3h0.4l0.4-0.1l0.3-0.1l0.3-0.1l0.4-0.1l0.2-0.2l0.3-0.1l0.3-0.2l0.2-0.1l0.2-0.2
		l0.1-0.2l0.2-0.2l0.1-0.2l0.1-0.3v-0.2v-0.2v-0.2l-0.1-0.2 M3.75,27.25v0.2l0.1,0.2v0.2l0.1,0.2l0.2,0.2l0.2,0.2l0.2,0.2l0.2,0.2
		l0.2,0.1 M4.95,28.95l0.3,0.2l0.3,0.1l0.3,0.1l0.4,0.1l0.3,0.1l0.4,0.1h0.3h0.4h0.4h0.4h0.3l0.4-0.1h0.4l0.3-0.1l0.3-0.1l0.4-0.1
		l0.2-0.2l0.3-0.1l0.3-0.2l0.2-0.2l0.2-0.1l0.1-0.2l0.2-0.2l0.1-0.3l0.1-0.2v-0.2v-0.1 M3.85,26.55l-0.1,0.2v0.2v0.2l0.1,0.2v0.3
		l0.1,0.2l0.2,0.2l0.2,0.2l0.2,0.1l0.2,0.2l0.2,0.2 M4.95,28.75l0.3,0.1l0.3,0.1l0.3,0.2l0.4,0.1h0.3l0.4,0.1l0.3,0.1h0.4h0.4h0.4
		l0.3-0.1h0.4l0.4-0.1l0.3-0.1l0.3-0.1l0.4-0.1l0.2-0.1l0.3-0.2l0.3-0.1l0.2-0.2l0.2-0.2l0.1-0.2l0.2-0.2l0.1-0.2l0.1-0.2v-0.2v-0.2
		v-0.3l-0.1-0.1 M3.75,26.05v0.2l0.1,0.2v0.2l0.1,0.3l0.2,0.2l0.2,0.1l0.2,0.2l0.2,0.2l0.2,0.2 M4.95,27.85l0.3,0.1l0.3,0.1l0.3,0.2
		l0.4,0.1h0.3l0.4,0.1h0.3l0.4,0.1h0.4h0.4l0.3-0.1h0.4l0.4-0.1l0.3-0.1l0.3-0.1l0.4-0.1l0.2-0.1l0.3-0.2l0.3-0.1l0.2-0.2l0.2-0.2
		l0.1-0.2l0.2-0.2l0.1-0.2l0.1-0.2v-0.2v-0.2 M3.85,25.35l-0.1,0.2v0.3v0.2l0.1,0.2v0.2l0.1,0.2l0.2,0.2l0.2,0.2l0.2,0.2l0.2,0.2
		l0.2,0.1 M4.95,27.55l0.3,0.2l0.3,0.1l0.3,0.1l0.4,0.1l0.3,0.1l0.4,0.1h0.3h0.4h0.4h0.4h0.3l0.4-0.1h0.4l0.3-0.1l0.3-0.1l0.4-0.1
		l0.2-0.2l0.3-0.1l0.3-0.2l0.2-0.2l0.2-0.2l0.1-0.1l0.2-0.2l0.1-0.3l0.1-0.2v-0.2v-0.2v-0.2l-0.1-0.2 M3.75,24.95v0.2l0.1,0.2v0.2
		l0.1,0.2l0.2,0.2l0.2,0.2l0.2,0.2l0.2,0.1l0.2,0.2 M4.95,26.65l0.3,0.2l0.3,0.1l0.3,0.1l0.4,0.1l0.3,0.1h0.4l0.3,0.1h0.4h0.4h0.4
		h0.3l0.4-0.1h0.4l0.3-0.1l0.3-0.1l0.4-0.1l0.2-0.2l0.3-0.1l0.3-0.2l0.2-0.2l0.2-0.2l0.1-0.2l0.2-0.2l0.1-0.2l0.1-0.2v-0.2v-0.1
		 M3.85,24.25l-0.1,0.2v0.2v0.2l0.1,0.2v0.2l0.1,0.2l0.2,0.2l0.2,0.2l0.2,0.2l0.2,0.2l0.2,0.2 M4.95,26.45l0.3,0.1l0.3,0.1l0.3,0.2
		l0.4,0.1h0.3l0.4,0.1h0.3l0.4,0.1h0.4h0.4l0.3-0.1h0.4l0.4-0.1l0.3-0.1l0.3-0.1l0.4-0.1l0.2-0.1l0.3-0.2l0.3-0.1l0.2-0.2l0.2-0.2
		l0.1-0.2l0.2-0.2l0.1-0.2l0.1-0.2v-0.2v-0.3v-0.2l-0.1-0.1 M3.75,23.75v0.2l0.1,0.2v0.2l0.1,0.2l0.2,0.2l0.2,0.2l0.2,0.2l0.2,0.2
		l0.2,0.1 M4.95,25.45l0.3,0.2l0.3,0.1l0.3,0.1l0.4,0.1l0.3,0.1l0.4,0.1h0.3l0.4,0.1h0.4h0.4l0.3-0.1h0.4l0.4-0.1l0.3-0.1l0.3-0.1
		l0.4-0.1l0.2-0.1l0.3-0.2l0.3-0.2l0.2-0.1l0.2-0.2l0.1-0.2l0.2-0.2l0.1-0.2l0.1-0.2v-0.3v-0.1 M3.85,23.05l-0.1,0.2v0.2v0.3
		l0.1,0.2v0.2l0.1,0.2l0.2,0.2l0.2,0.2l0.2,0.2l0.2,0.1l0.2,0.2 M4.95,25.25l0.3,0.1l0.3,0.2l0.3,0.1l0.4,0.1l0.3,0.1h0.4l0.3,0.1
		h0.4h0.4h0.4h0.3l0.4-0.1h0.4l0.3-0.1l0.3-0.1l0.4-0.2l0.2-0.1l0.3-0.1l0.3-0.2l0.2-0.2l0.2-0.2l0.1-0.2l0.2-0.2l0.1-0.2l0.1-0.2
		v-0.2v-0.2v-0.2l-0.1-0.2 M3.75,22.65v0.1l0.1,0.3v0.2l0.1,0.2l0.2,0.2l0.2,0.2l0.2,0.2l0.2,0.1l0.2,0.2 M4.95,24.35l0.3,0.1
		l0.3,0.2l0.3,0.1l0.4,0.1l0.3,0.1h0.4l0.3,0.1h0.4h0.4h0.4h0.3l0.4-0.1l0.4-0.1h0.3l0.3-0.1l0.4-0.2l0.2-0.1l0.3-0.1l0.3-0.2
		l0.2-0.2l0.2-0.2l0.1-0.2l0.2-0.2l0.1-0.2l0.1-0.2v-0.2v-0.1 M3.85,21.95l-0.1,0.2v0.2v0.2l0.1,0.2v0.2l0.1,0.2l0.2,0.2l0.2,0.2
		l0.2,0.2l0.2,0.2l0.2,0.1 M4.95,24.05l0.3,0.2l0.3,0.1l0.3,0.1l0.4,0.1l0.3,0.1l0.4,0.1h0.3l0.4,0.1h0.4l0.4-0.1h0.3h0.4l0.4-0.1
		l0.3-0.1l0.3-0.1l0.4-0.1l0.2-0.1l0.3-0.2l0.3-0.2l0.2-0.1l0.2-0.2l0.1-0.2l0.2-0.2l0.1-0.2l0.1-0.2v-0.3v-0.2v-0.2l-0.1-0.1
		 M3.75,21.45v0.2l0.1,0.2v0.2l0.1,0.2l0.2,0.2l0.2,0.2l0.2,0.2l0.2,0.2l0.2,0.1 M4.95,23.15l0.3,0.2l0.3,0.1l0.3,0.1l0.4,0.1
		l0.3,0.1l0.4,0.1h0.3h0.4l0.4,0.1l0.4-0.1h0.3h0.4l0.4-0.1l0.3-0.1l0.3-0.1l0.4-0.1l0.2-0.2l0.3-0.1l0.3-0.2l0.2-0.1l0.2-0.2
		l0.1-0.2l0.2-0.2l0.1-0.2l0.1-0.3v-0.2v-0.1 M3.85,20.75l-0.1,0.2v0.2v0.2l0.1,0.3v0.2l0.1,0.2l0.2,0.2l0.2,0.2l0.2,0.2l0.2,0.1
		l0.2,0.2 M4.95,22.95l0.3,0.1l0.3,0.2l0.3,0.1l0.4,0.1l0.3,0.1h0.4l0.3,0.1h0.4h0.4h0.4h0.3l0.4-0.1l0.4-0.1h0.3l0.3-0.1l0.4-0.2
		l0.2-0.1l0.3-0.2l0.3-0.1l0.2-0.2l0.2-0.2l0.1-0.2l0.2-0.2l0.1-0.2l0.1-0.2v-0.2v-0.2v-0.2l-0.1-0.2 M3.75,20.25v0.2l0.1,0.2v0.3
		l0.1,0.2l0.2,0.2l0.2,0.2l0.2,0.1l0.2,0.2l0.2,0.2 M4.95,22.05l0.3,0.1l0.3,0.2l0.3,0.1l0.4,0.1l0.3,0.1h0.4l0.3,0.1h0.4h0.4h0.4
		h0.3l0.4-0.1l0.4-0.1l0.3-0.1l0.3-0.1l0.4-0.1l0.2-0.1l0.3-0.2l0.3-0.1l0.2-0.2l0.2-0.2l0.1-0.2l0.2-0.2l0.1-0.2l0.1-0.2v-0.2v-0.2
		 M3.85,19.55l-0.1,0.2v0.3v0.2l0.1,0.2v0.2l0.1,0.2l0.2,0.2l0.2,0.2l0.2,0.2l0.2,0.2l0.2,0.1 M4.95,21.75l0.3,0.2l0.3,0.1l0.3,0.1
		l0.4,0.1l0.3,0.1l0.4,0.1h0.3h0.4h0.4h0.4h0.3h0.4l0.4-0.1l0.3-0.1l0.3-0.1l0.4-0.1l0.2-0.2l0.3-0.1l0.3-0.2l0.2-0.2l0.2-0.1
		l0.1-0.2l0.2-0.2l0.1-0.2l0.1-0.3v-0.2v-0.2v-0.2l-0.1-0.2 M3.75,19.15v0.2l0.1,0.2v0.2l0.1,0.2l0.2,0.2l0.2,0.2l0.2,0.2l0.2,0.2
		l0.2,0.1 M4.95,20.85l0.3,0.2l0.3,0.1l0.3,0.1l0.4,0.1l0.3,0.1l0.4,0.1h0.3h0.4h0.4h0.4h0.3l0.4-0.1h0.4l0.3-0.1l0.3-0.1l0.4-0.1
		l0.2-0.2l0.3-0.1l0.3-0.2l0.2-0.2l0.2-0.1l0.1-0.2l0.2-0.2l0.1-0.3l0.1-0.2v-0.2v-0.1 M3.85,18.45l-0.1,0.2v0.2v0.2l0.1,0.2v0.3
		l0.1,0.2l0.2,0.2l0.2,0.2l0.2,0.1l0.2,0.2l0.2,0.2 M4.95,20.65l0.3,0.1l0.3,0.1l0.3,0.2l0.4,0.1h0.3l0.4,0.1l0.3,0.1h0.4h0.4h0.4
		l0.3-0.1h0.4l0.4-0.1l0.3-0.1l0.3-0.1l0.4-0.1l0.2-0.1l0.3-0.2l0.3-0.1l0.2-0.2l0.2-0.2l0.1-0.2l0.2-0.2l0.1-0.2l0.1-0.2v-0.2v-0.2
		v-0.3l-0.1-0.1 M3.75,17.95v0.2l0.1,0.2v0.2l0.1,0.3l0.2,0.2l0.2,0.1l0.2,0.2l0.2,0.2l0.2,0.2 M4.95,19.75l0.3,0.1l0.3,0.1l0.3,0.2
		l0.4,0.1h0.3l0.4,0.1h0.3l0.4,0.1h0.4h0.4l0.3-0.1h0.4l0.4-0.1l0.3-0.1l0.3-0.1l0.4-0.1l0.2-0.1l0.3-0.2l0.3-0.1l0.2-0.2l0.2-0.2
		l0.1-0.2l0.2-0.2l0.1-0.2l0.1-0.2v-0.2v-0.2 M3.85,17.25l-0.1,0.2v0.2v0.3l0.1,0.2v0.2l0.1,0.2l0.2,0.2l0.2,0.2l0.2,0.2l0.2,0.2
		l0.2,0.1 M4.95,19.45l0.3,0.2l0.3,0.1l0.3,0.1l0.4,0.1l0.3,0.1l0.4,0.1h0.3h0.4h0.4h0.4h0.3l0.4-0.1h0.4l0.3-0.1l0.3-0.1l0.4-0.1
		l0.2-0.2l0.3-0.1l0.3-0.2l0.2-0.2l0.2-0.2l0.1-0.1l0.2-0.2l0.1-0.3l0.1-0.2v-0.2v-0.2v-0.2l-0.1-0.2 M3.75,16.85v0.2l0.1,0.2v0.2
		l0.1,0.2l0.2,0.2l0.2,0.2l0.2,0.2l0.2,0.1l0.2,0.2 M4.95,18.55l0.3,0.1l0.3,0.2l0.3,0.1l0.4,0.1l0.3,0.1h0.4l0.3,0.1h0.4h0.4h0.4
		h0.3l0.4-0.1h0.4l0.3-0.1l0.3-0.1l0.4-0.1l0.2-0.2l0.3-0.1l0.3-0.2l0.2-0.2l0.2-0.2l0.1-0.2l0.2-0.2l0.1-0.2l0.1-0.2v-0.2v-0.1
		 M3.85,16.15l-0.1,0.2v0.2v0.2l0.1,0.2v0.2l0.1,0.2l0.2,0.2l0.2,0.2l0.2,0.2l0.2,0.2l0.2,0.2 M4.95,18.35l0.3,0.1l0.3,0.1l0.3,0.1
		l0.4,0.1l0.3,0.1l0.4,0.1h0.3l0.4,0.1h0.4h0.4l0.3-0.1h0.4l0.4-0.1l0.3-0.1l0.3-0.1l0.4-0.1l0.2-0.1l0.3-0.2l0.3-0.1l0.2-0.2
		l0.2-0.2l0.1-0.2l0.2-0.2l0.1-0.2l0.1-0.2v-0.2v-0.3v-0.2l-0.1-0.1 M3.75,15.65v0.2l0.1,0.2v0.2l0.1,0.2l0.2,0.2l0.2,0.2l0.2,0.2
		l0.2,0.2l0.2,0.1 M4.95,17.35l0.3,0.2l0.3,0.1l0.3,0.1l0.4,0.1l0.3,0.1l0.4,0.1h0.3l0.4,0.1h0.4h0.4l0.3-0.1h0.4l0.4-0.1l0.3-0.1
		l0.3-0.1l0.4-0.1l0.2-0.1l0.3-0.2l0.3-0.2l0.2-0.1l0.2-0.2l0.1-0.2l0.2-0.2l0.1-0.2l0.1-0.2v-0.3v-0.1 M3.75,15.25v0.1v0.3l0.1,0.2
		v0.2l0.1,0.2l0.2,0.2l0.2,0.2l0.2,0.2l0.2,0.1l0.2,0.2 M4.95,17.15l0.3,0.1l0.3,0.2l0.3,0.1l0.4,0.1l0.3,0.1h0.4l0.3,0.1h0.4h0.4
		h0.4h0.3l0.4-0.1h0.4l0.3-0.1l0.3-0.1l0.4-0.2l0.2-0.1l0.3-0.1l0.3-0.2l0.2-0.2l0.2-0.2l0.1-0.2l0.2-0.2l0.1-0.2l0.1-0.2v-0.2v-0.2
		v-0.1 M8.95,5.55l-2-0.3 M10.85,5.85l-1.9-0.3 M5.45,6.05l-0.4,0.2 M6.95,5.25l-1.5,0.8 M6.95,5.25v-3 M4.05,15.35l0.1,0.2l0.2,0.2
		l0.2,0.2l0.2,0.1l0.2,0.2 M4.95,16.25l0.3,0.1l0.3,0.2l0.3,0.1l0.4,0.1l0.3,0.1h0.4l0.3,0.1h0.4h0.4h0.4h0.3l0.4-0.1l0.4-0.1h0.3
		l0.3-0.1l0.4-0.2l0.2-0.1l0.3-0.2l0.3-0.1l0.2-0.2l0.2-0.2l0.1-0.2l0.1-0.1 M10.95,5.75v-2.9 M10.55,6.05h-0.1l-0.3-0.2l-0.3-0.1
		l-0.3-0.1l-0.3-0.1h-0.3 M8.95,5.55l-0.4-0.1h-0.3h-0.3h-0.4l-0.3,0.1h-0.4l-0.3,0.1l-0.3,0.1l-0.3,0.1l-0.3,0.1l-0.2,0.1
		 M5.45,6.05l-0.3,0.2 M10.95,2.85l1.1,2.3 M9.05,6.85l3-1.7 M9.05,6.85l-4-0.6 M5.05,6.25l-1.1-2.3 M6.95,2.25l-3,1.7 M10.95,2.85
		l-4-0.6 M0.25,11.45v0.1v0.3v0.3l0.1,0.3l0.2,0.3l0.1,0.3l0.2,0.2l0.2,0.3l0.3,0.3l0.2,0.2l0.3,0.2l0.4,0.3l0.3,0.2l0.4,0.2
		l0.4,0.1l0.4,0.2l0.4,0.2l0.5,0.1l0.5,0.1l0.4,0.1l0.5,0.1l0.5,0.1h0.5h0.5h0.5h0.5h0.5l0.5-0.1h0.5l0.5-0.1l0.5-0.1l0.4-0.1
		l0.5-0.2l0.4-0.1l0.4-0.2l0.4-0.2l0.4-0.2 M13.55,14.65l0.3-0.2l0.3-0.2l0.3-0.3l0.3-0.2l0.2-0.3l0.2-0.2l0.2-0.3l0.2-0.3l0.1-0.3
		l0.1-0.2v-0.3v-0.3v-0.1 M15.75,4.85L15.75,4.85 M0.25,4.95v-0.1 M10.45,40.65l0.6-0.3 M4.95,40.35l0.6,0.3 M12.25,38.65v-0.1
		 M3.75,38.55v0.1 M12.25,37.65v-0.2 M3.75,37.45v0.2 M12.25,36.45v-0.2 M3.75,36.25v0.2 M12.25,35.35v-0.3 M3.75,35.05v0.3
		 M12.25,34.15v-0.2 M3.75,33.95v0.2 M12.25,33.05v-0.3 M3.75,32.75v0.3 M12.25,31.85v-0.2 M3.75,31.65v0.2 M12.25,30.75v-0.3
		 M3.75,30.45v0.3 M12.25,29.55v-0.3 M3.75,29.25v0.3 M12.25,28.35v-0.2 M3.75,28.15v0.2 M12.25,27.25v-0.3 M3.75,26.95v0.3
		 M12.25,26.05v-0.2 M3.75,25.85v0.2 M12.25,24.95v-0.3 M3.75,24.65v0.3 M12.25,23.75v-0.2 M3.75,23.55v0.2 M12.25,22.65v-0.3
		 M3.75,22.35v0.3 M12.25,21.45v-0.3 M3.75,21.15v0.3 M12.25,20.25v-0.2 M3.75,20.05v0.2 M12.25,19.15v-0.3 M3.75,18.85v0.3
		 M12.25,17.95v-0.2 M3.75,17.75v0.2 M12.25,16.85v-0.3 M3.75,16.55v0.3 M12.25,15.65v-0.2 M3.75,15.45v0.2 M15.75,11.45v-6.6
		 M0.25,4.85v6.6 M15.75,4.85v-0.2v-0.3l-0.1-0.2l-0.1-0.3l-0.1-0.3l-0.1-0.3l-0.2-0.3l-0.2-0.2l-0.2-0.3l-0.3-0.2l-0.3-0.2
		l-0.3-0.3l-0.3-0.2l-0.4-0.2l-0.4-0.2l-0.3-0.1l-0.5-0.2l-0.4-0.1l-0.4-0.1l-0.5-0.2h-0.4l-0.5-0.1l-0.4-0.1h-0.5h-0.5h-0.5h-0.4
		h-0.5l-0.5,0.1h-0.5l-0.4,0.1l-0.5,0.1l-0.4,0.1l-0.4,0.1l-0.5,0.2l-0.4,0.1l-0.3,0.2l-0.4,0.2l-0.3,0.2l-0.4,0.2l-0.3,0.3
		l-0.2,0.2l-0.3,0.3l-0.2,0.2l-0.2,0.3l-0.2,0.3l-0.1,0.3l-0.1,0.2l-0.1,0.3v0.3v0.3v0.1"/>
</g>
</svg>
