<?xml version="1.0" encoding="utf-8"?>
<!-- Generator: Adobe Illustrator 19.0.0, SVG Export Plug-In . SVG Version: 6.00 Build 0)  -->
<svg version="1.0" id="Layer_1" xmlns="http://www.w3.org/2000/svg" xmlns:xlink="http://www.w3.org/1999/xlink" x="0px" y="0px"
	 width="16.1px" height="50.8px" viewBox="0 0 16.1 50.8" enable-background="new 0 0 16.1 50.8" xml:space="preserve">
<g>
	
		<path fill="none" stroke="#000000" stroke-width="0.25" stroke-linecap="round" stroke-linejoin="round" stroke-miterlimit="10" d="
		M15.85,4.95v0.3l-0.1,0.3l-0.1,0.3l-0.1,0.3l-0.2,0.3l-0.2,0.3l-0.2,0.3l-0.3,0.3l-0.3,0.3l-0.4,0.2l-0.4,0.2 M13.55,8.05l-0.4,0.3
		l-0.4,0.2l-0.5,0.1l-0.4,0.2l-0.5,0.2l-0.5,0.1l-0.6,0.1l-0.5,0.1h-0.6h-0.5l-0.6,0.1l-0.5-0.1h-0.6h-0.5l-0.6-0.1l-0.5-0.1
		l-0.5-0.1l-0.5-0.2l-0.5-0.2l-0.4-0.1l-0.5-0.2l-0.4-0.3l-0.4-0.2l-0.3-0.2l-0.3-0.3l-0.3-0.3l-0.3-0.3l-0.2-0.3l-0.2-0.3l-0.1-0.3
		l-0.1-0.3v-0.3l-0.1-0.3 M13.25,7.55l0.4-0.2l0.3-0.3l0.4-0.2l0.2-0.3l0.3-0.3l0.2-0.3l0.1-0.3l0.2-0.3v-0.3l0.1-0.3v-0.3v-0.3
		l-0.1-0.3l-0.1-0.3l-0.2-0.3l-0.2-0.3l-0.2-0.3l-0.3-0.3l-0.3-0.3l-0.3-0.2l-0.4-0.2l-0.4-0.3l-0.4-0.2l-0.4-0.1l-0.5-0.2l-0.5-0.1
		l-0.5-0.2l-0.5-0.1h-0.5l-0.6-0.1h-0.5h-0.5h-0.6h-0.5l-0.6,0.1l-0.5,0.1l-0.5,0.1l-0.5,0.1l-0.5,0.1l-0.4,0.2l-0.5,0.2l-0.4,0.2
		l-0.4,0.2l-0.3,0.3l-0.4,0.2l-0.2,0.3l-0.3,0.3l-0.2,0.2l-0.2,0.3l-0.1,0.3l-0.2,0.3v0.4v0.3v0.3v0.3l0.1,0.3l0.2,0.3l0.1,0.3
		l0.2,0.3l0.3,0.3l0.3,0.3l0.3,0.2l0.3,0.2l0.4,0.3l0.4,0.2l0.4,0.2l0.5,0.1l0.5,0.2l0.5,0.1l0.5,0.1l0.5,0.1l0.5,0.1h0.6l0.5,0.1
		h0.6l0.5-0.1h0.5l0.6-0.1l0.5-0.1l0.5-0.1l0.5-0.1l0.5-0.2l0.4-0.2l0.4-0.2L13.25,7.55"/>
	<path fill="none" stroke="#000000" stroke-width="0.5" stroke-linecap="round" stroke-linejoin="round" stroke-miterlimit="10" d="
		M5.65,49.95l0.1,0.1l0.3,0.1l0.3,0.1l0.4,0.1l0.3,0.1h0.4l0.3,0.1h0.4h0.4l0.4-0.1h0.3l0.4-0.1l0.3-0.1l0.3-0.2l0.3-0.1
		 M3.85,47.85v0.3l0.1,0.2l0.1,0.3l0.1,0.2l0.2,0.2l0.2,0.2l0.2,0.2l0.3,0.2l0.3,0.1l0.4,0.2l0.3,0.1l0.4,0.1l0.4,0.1h0.4l0.4,0.1
		h0.4h0.4l0.5-0.1h0.4l0.4-0.1l0.3-0.1l0.4-0.1l0.3-0.2l0.3-0.1 M11.05,49.65l0.3-0.2l0.3-0.2l0.2-0.2l0.2-0.2l0.1-0.2l0.1-0.3
		l0.1-0.2v-0.3 M3.85,47.35v0.2v0.3v0.2l0.1,0.3l0.1,0.2l0.1,0.2l0.2,0.2l0.2,0.2l0.2,0.2l0.3,0.2 M5.05,49.55l0.3,0.2l0.4,0.1
		l0.3,0.2l0.4,0.1h0.4l0.4,0.1h0.4h0.4h0.4h0.5l0.4-0.1h0.4l0.3-0.1l0.4-0.2l0.3-0.1l0.3-0.2l0.3-0.2l0.3-0.2l0.2-0.2l0.2-0.2
		l0.1-0.2l0.1-0.2l0.1-0.3v-0.2v-0.3l-0.1-0.2 M3.85,46.95v0.2l0.1,0.3l0.1,0.2l0.1,0.2l0.2,0.2l0.2,0.2l0.2,0.2l0.3,0.2
		 M5.05,48.65l0.3,0.2l0.4,0.1l0.3,0.1l0.4,0.1l0.4,0.1l0.4,0.1h0.4h0.4h0.4h0.5l0.4-0.1l0.4-0.1l0.3-0.1l0.4-0.1l0.3-0.1l0.3-0.2
		l0.3-0.2l0.3-0.2l0.2-0.2l0.2-0.2l0.1-0.2l0.1-0.2l0.1-0.3v-0.2 M3.85,46.25v0.2v0.2v0.3l0.1,0.2l0.1,0.2l0.1,0.3l0.2,0.2l0.2,0.2
		l0.2,0.2l0.3,0.2 M5.05,48.45l0.3,0.1l0.4,0.2l0.3,0.1l0.4,0.1l0.4,0.1h0.4l0.4,0.1h0.4h0.4l0.5-0.1h0.4l0.4-0.1l0.3-0.1l0.4-0.1
		l0.3-0.2l0.3-0.1l0.3-0.2l0.3-0.2l0.2-0.2l0.2-0.2l0.1-0.3l0.1-0.2l0.1-0.2v-0.3v-0.2l-0.1-0.2 M3.85,45.75v0.3l0.1,0.2l0.1,0.2
		l0.1,0.3l0.2,0.2l0.2,0.2l0.2,0.2l0.3,0.2 M5.05,47.55l0.3,0.1l0.4,0.2l0.3,0.1l0.4,0.1l0.4,0.1h0.4l0.4,0.1h0.4h0.4l0.5-0.1h0.4
		l0.4-0.1l0.3-0.1l0.4-0.1l0.3-0.2l0.3-0.1l0.3-0.2l0.3-0.2l0.2-0.2l0.2-0.2l0.1-0.3l0.1-0.2l0.1-0.2v-0.3 M3.85,45.05v0.2v0.3v0.2
		l0.1,0.3l0.1,0.2l0.1,0.2l0.2,0.2l0.2,0.2l0.2,0.2l0.3,0.2 M5.05,47.25l0.3,0.2l0.4,0.1l0.3,0.1l0.4,0.1l0.4,0.1l0.4,0.1h0.4h0.4
		h0.4h0.5l0.4-0.1l0.4-0.1l0.3-0.1l0.4-0.1l0.3-0.1l0.3-0.2l0.3-0.2l0.3-0.2l0.2-0.2l0.2-0.2l0.1-0.2l0.1-0.2l0.1-0.3v-0.2v-0.3
		l-0.1-0.2 M3.85,44.65v0.2l0.1,0.2l0.1,0.3l0.1,0.2l0.2,0.2l0.2,0.2l0.2,0.2l0.3,0.2 M5.05,46.35l0.3,0.2l0.4,0.1l0.3,0.1l0.4,0.1
		l0.4,0.1l0.4,0.1h0.4h0.4h0.4h0.5l0.4-0.1l0.4-0.1l0.3-0.1l0.4-0.1l0.3-0.1l0.3-0.2l0.3-0.2l0.3-0.2l0.2-0.2l0.2-0.2l0.1-0.2
		l0.1-0.3l0.1-0.2v-0.2 M3.85,43.95v0.2v0.2v0.3l0.1,0.2l0.1,0.2l0.1,0.3l0.2,0.2l0.2,0.2l0.2,0.2l0.3,0.1 M5.05,46.05l0.3,0.2
		l0.4,0.2l0.3,0.1l0.4,0.1l0.4,0.1h0.4l0.4,0.1h0.4h0.4l0.5-0.1h0.4l0.4-0.1l0.3-0.1l0.4-0.1l0.3-0.2l0.3-0.2l0.3-0.1l0.3-0.2
		l0.2-0.2l0.2-0.2l0.1-0.3l0.1-0.2l0.1-0.2v-0.3v-0.2l-0.1-0.2 M3.85,43.45v0.2l0.1,0.3l0.1,0.2l0.1,0.2l0.2,0.3l0.2,0.2l0.2,0.2
		l0.3,0.1 M5.05,45.15l0.3,0.2l0.4,0.1l0.3,0.2l0.4,0.1l0.4,0.1h0.4h0.4l0.4,0.1l0.4-0.1h0.5h0.4l0.4-0.1l0.3-0.1l0.4-0.2l0.3-0.1
		l0.3-0.2l0.3-0.1l0.3-0.2l0.2-0.2l0.2-0.3l0.1-0.2l0.1-0.2l0.1-0.3v-0.2 M3.85,42.75v0.2v0.3v0.2l0.1,0.2l0.1,0.3l0.1,0.2l0.2,0.2
		l0.2,0.2l0.2,0.2l0.3,0.2 M5.05,44.95l0.3,0.2l0.4,0.1l0.3,0.1l0.4,0.1l0.4,0.1l0.4,0.1h0.4h0.4h0.4h0.5l0.4-0.1l0.4-0.1l0.3-0.1
		l0.4-0.1l0.3-0.1l0.3-0.2l0.3-0.2l0.3-0.2l0.2-0.2l0.2-0.2l0.1-0.2l0.1-0.3l0.1-0.2v-0.2v-0.3l-0.1-0.2 M3.85,42.25v0.3l0.1,0.2
		l0.1,0.3l0.1,0.2l0.2,0.2l0.2,0.2l0.2,0.2l0.3,0.2 M5.05,44.05l0.3,0.1l0.4,0.2l0.3,0.1l0.4,0.1l0.4,0.1l0.4,0.1h0.4h0.4h0.4h0.5
		l0.4-0.1l0.4-0.1l0.3-0.1l0.4-0.1l0.3-0.2l0.3-0.1l0.3-0.2l0.3-0.2l0.2-0.2l0.2-0.2l0.1-0.2l0.1-0.3l0.1-0.2v-0.3 M3.85,41.55v0.3
		v0.2v0.2l0.1,0.3l0.1,0.2l0.1,0.2l0.2,0.3l0.2,0.2l0.2,0.2l0.3,0.1 M5.05,43.75l0.3,0.2l0.4,0.1l0.3,0.2l0.4,0.1h0.4l0.4,0.1h0.4
		l0.4,0.1l0.4-0.1h0.5l0.4-0.1h0.4l0.3-0.1l0.4-0.2l0.3-0.1l0.3-0.2l0.3-0.1l0.3-0.2l0.2-0.2l0.2-0.3l0.1-0.2l0.1-0.2l0.1-0.3v-0.2
		v-0.2l-0.1-0.3 M3.85,41.15v0.2l0.1,0.3l0.1,0.2l0.1,0.2l0.2,0.2l0.2,0.3l0.2,0.1l0.3,0.2 M5.05,42.85l0.3,0.2l0.4,0.1l0.3,0.2
		l0.4,0.1h0.4l0.4,0.1h0.4h0.4h0.4h0.5l0.4-0.1h0.4l0.3-0.1l0.4-0.2l0.3-0.1l0.3-0.2l0.3-0.2l0.3-0.1l0.2-0.3l0.2-0.2l0.1-0.2
		l0.1-0.2l0.1-0.3v-0.2 M3.85,40.45v0.2v0.2v0.3l0.1,0.2l0.1,0.3l0.1,0.2l0.2,0.2l0.2,0.2l0.2,0.2l0.3,0.2 M5.05,42.65l0.3,0.1
		l0.4,0.2l0.3,0.1l0.4,0.1l0.4,0.1h0.4l0.4,0.1h0.4h0.4l0.5-0.1h0.4l0.4-0.1l0.3-0.1l0.4-0.1l0.3-0.2l0.3-0.1l0.3-0.2l0.3-0.2
		l0.2-0.2l0.2-0.2l0.1-0.2l0.1-0.3l0.1-0.2v-0.3v-0.2l-0.1-0.2 M3.85,39.95v0.3l0.1,0.2l0.1,0.2l0.1,0.3l0.2,0.2l0.2,0.2l0.2,0.2
		l0.3,0.2 M5.05,41.75l0.3,0.1l0.4,0.2l0.3,0.1l0.4,0.1l0.4,0.1h0.4l0.4,0.1h0.4h0.4l0.5-0.1h0.4l0.4-0.1l0.3-0.1l0.4-0.1l0.3-0.2
		l0.3-0.1l0.3-0.2l0.3-0.2l0.2-0.2l0.2-0.2l0.1-0.3l0.1-0.2l0.1-0.2v-0.3 M3.85,39.25v0.2v0.3v0.2l0.1,0.3l0.1,0.2l0.1,0.2l0.2,0.2
		l0.2,0.2l0.2,0.2l0.3,0.2 M5.05,41.45l0.3,0.2l0.4,0.1l0.3,0.1l0.4,0.2h0.4l0.4,0.1h0.4h0.4h0.4h0.5l0.4-0.1h0.4l0.3-0.2l0.4-0.1
		l0.3-0.1l0.3-0.2l0.3-0.2l0.3-0.2l0.2-0.2l0.2-0.2l0.1-0.2l0.1-0.2l0.1-0.3v-0.2v-0.3l-0.1-0.2 M3.85,38.85v0.2l0.1,0.3l0.1,0.2
		l0.1,0.2l0.2,0.2l0.2,0.2l0.2,0.2l0.3,0.2 M5.05,40.55l0.3,0.2l0.4,0.1l0.3,0.1l0.4,0.1l0.4,0.1l0.4,0.1h0.4h0.4h0.4h0.5l0.4-0.1
		l0.4-0.1l0.3-0.1l0.4-0.1l0.3-0.1l0.3-0.2l0.3-0.2l0.3-0.2l0.2-0.2l0.2-0.2l0.1-0.2l0.1-0.2l0.1-0.3v-0.2 M3.85,38.15v0.2v0.2v0.3
		l0.1,0.2l0.1,0.2l0.1,0.3l0.2,0.2l0.2,0.2l0.2,0.2l0.3,0.2 M5.05,40.35l0.3,0.1l0.4,0.2l0.3,0.1l0.4,0.1l0.4,0.1h0.4l0.4,0.1h0.4
		h0.4l0.5-0.1h0.4l0.4-0.1l0.3-0.1l0.4-0.1l0.3-0.2l0.3-0.1l0.3-0.2l0.3-0.2l0.2-0.2l0.2-0.2l0.1-0.3l0.1-0.2l0.1-0.2v-0.3v-0.2
		l-0.1-0.2 M3.85,37.65v0.3l0.1,0.2l0.1,0.2l0.1,0.3l0.2,0.2l0.2,0.2l0.2,0.2l0.3,0.2 M5.05,39.45l0.3,0.1l0.4,0.2l0.3,0.1l0.4,0.1
		l0.4,0.1h0.4l0.4,0.1h0.4h0.4l0.5-0.1h0.4l0.4-0.1l0.3-0.1l0.4-0.1l0.3-0.2l0.3-0.1l0.3-0.2l0.3-0.2l0.2-0.2l0.2-0.2l0.1-0.3
		l0.1-0.2l0.1-0.2v-0.3 M3.85,36.95v0.2v0.3v0.2l0.1,0.2l0.1,0.3l0.1,0.2l0.2,0.2l0.2,0.2l0.2,0.2l0.3,0.2 M5.05,39.15l0.3,0.2
		l0.4,0.1l0.3,0.1l0.4,0.1l0.4,0.1l0.4,0.1h0.4h0.4h0.4h0.5l0.4-0.1l0.4-0.1l0.3-0.1l0.4-0.1l0.3-0.1l0.3-0.2l0.3-0.2l0.3-0.2
		l0.2-0.2l0.2-0.2l0.1-0.2l0.1-0.3l0.1-0.2v-0.2v-0.3l-0.1-0.2 M3.85,36.55v0.2l0.1,0.2l0.1,0.3l0.1,0.2l0.2,0.2l0.2,0.2l0.2,0.2
		l0.3,0.2 M5.05,38.25l0.3,0.2l0.4,0.1l0.3,0.1l0.4,0.1l0.4,0.1l0.4,0.1h0.4h0.4h0.4h0.5l0.4-0.1l0.4-0.1l0.3-0.1l0.4-0.1l0.3-0.1
		l0.3-0.2l0.3-0.2l0.3-0.2l0.2-0.2l0.2-0.2l0.1-0.2l0.1-0.3l0.1-0.2v-0.2 M3.85,35.85v0.2v0.2v0.3l0.1,0.2l0.1,0.2l0.1,0.3l0.2,0.2
		l0.2,0.2l0.2,0.2l0.3,0.1 M5.05,37.95l0.3,0.2l0.4,0.2l0.3,0.1l0.4,0.1l0.4,0.1h0.4l0.4,0.1h0.4h0.4l0.5-0.1h0.4l0.4-0.1l0.3-0.1
		l0.4-0.1l0.3-0.2l0.3-0.2l0.3-0.1l0.3-0.2l0.2-0.2l0.2-0.2l0.1-0.3l0.1-0.2l0.1-0.2v-0.3v-0.2l-0.1-0.2 M3.85,35.35v0.2l0.1,0.3
		l0.1,0.2l0.1,0.2l0.2,0.3l0.2,0.2l0.2,0.2l0.3,0.1 M5.05,37.05l0.3,0.2l0.4,0.1l0.3,0.2l0.4,0.1l0.4,0.1h0.4h0.4l0.4,0.1l0.4-0.1
		h0.5h0.4l0.4-0.1l0.3-0.1l0.4-0.2l0.3-0.1l0.3-0.2l0.3-0.1l0.3-0.2l0.2-0.2l0.2-0.3l0.1-0.2l0.1-0.2l0.1-0.3v-0.2 M3.85,34.65v0.2
		v0.3v0.2l0.1,0.2l0.1,0.3l0.1,0.2l0.2,0.2l0.2,0.2l0.2,0.2l0.3,0.2 M5.05,36.85l0.3,0.2l0.4,0.1l0.3,0.1l0.4,0.1l0.4,0.1l0.4,0.1
		h0.4h0.4h0.4h0.5l0.4-0.1l0.4-0.1l0.3-0.1l0.4-0.1l0.3-0.1l0.3-0.2l0.3-0.2l0.3-0.2l0.2-0.2l0.2-0.2l0.1-0.2l0.1-0.3l0.1-0.2v-0.2
		v-0.3l-0.1-0.2 M3.85,34.15v0.3l0.1,0.2l0.1,0.3l0.1,0.2l0.2,0.2l0.2,0.2l0.2,0.2l0.3,0.2 M5.05,35.95l0.3,0.1l0.4,0.2l0.3,0.1
		l0.4,0.1l0.4,0.1l0.4,0.1h0.4h0.4h0.4h0.5l0.4-0.1l0.4-0.1l0.3-0.1l0.4-0.1l0.3-0.2l0.3-0.1l0.3-0.2l0.3-0.2l0.2-0.2l0.2-0.2
		l0.1-0.2l0.1-0.3l0.1-0.2v-0.3 M3.85,33.45v0.3v0.2v0.2l0.1,0.3l0.1,0.2l0.1,0.2l0.2,0.3l0.2,0.2l0.2,0.2l0.3,0.1 M5.05,35.65
		l0.3,0.2l0.4,0.1l0.3,0.2l0.4,0.1h0.4l0.4,0.1h0.4l0.4,0.1l0.4-0.1h0.5l0.4-0.1h0.4l0.3-0.1l0.4-0.2l0.3-0.1l0.3-0.2l0.3-0.1
		l0.3-0.2l0.2-0.2l0.2-0.3l0.1-0.2l0.1-0.2l0.1-0.3v-0.2v-0.2l-0.1-0.3 M3.85,33.05v0.2l0.1,0.3l0.1,0.2l0.1,0.2l0.2,0.2l0.2,0.3
		l0.2,0.1l0.3,0.2 M5.05,34.75l0.3,0.2l0.4,0.1l0.3,0.2l0.4,0.1h0.4l0.4,0.1h0.4h0.4h0.4h0.5l0.4-0.1h0.4l0.3-0.1l0.4-0.2l0.3-0.1
		l0.3-0.2l0.3-0.2l0.3-0.1l0.2-0.3l0.2-0.2l0.1-0.2l0.1-0.2l0.1-0.3v-0.2 M3.85,32.35v0.2v0.2v0.3l0.1,0.2l0.1,0.3l0.1,0.2l0.2,0.2
		l0.2,0.2l0.2,0.2l0.3,0.2 M5.05,34.55l0.3,0.1l0.4,0.2l0.3,0.1l0.4,0.1l0.4,0.1h0.4l0.4,0.1h0.4h0.4l0.5-0.1h0.4l0.4-0.1l0.3-0.1
		l0.4-0.1l0.3-0.2l0.3-0.1l0.3-0.2l0.3-0.2l0.2-0.2l0.2-0.2l0.1-0.2l0.1-0.3l0.1-0.2v-0.3v-0.2l-0.1-0.2 M3.85,31.85v0.3l0.1,0.2
		l0.1,0.2l0.1,0.3l0.2,0.2l0.2,0.2l0.2,0.2l0.3,0.2 M5.05,33.65l0.3,0.1l0.4,0.2l0.3,0.1l0.4,0.1l0.4,0.1h0.4l0.4,0.1h0.4h0.4
		l0.5-0.1h0.4l0.4-0.1l0.3-0.1l0.4-0.1l0.3-0.2l0.3-0.1l0.3-0.2l0.3-0.2l0.2-0.2l0.2-0.2l0.1-0.3l0.1-0.2l0.1-0.2v-0.3 M3.85,31.15
		v0.2v0.3v0.2l0.1,0.3l0.1,0.2l0.1,0.2l0.2,0.2l0.2,0.2l0.2,0.2l0.3,0.2 M5.05,33.35l0.3,0.2l0.4,0.1l0.3,0.1l0.4,0.2h0.4l0.4,0.1
		h0.4h0.4h0.4h0.5l0.4-0.1h0.4l0.3-0.2l0.4-0.1l0.3-0.1l0.3-0.2l0.3-0.2l0.3-0.2l0.2-0.2l0.2-0.2l0.1-0.2l0.1-0.2l0.1-0.3v-0.2v-0.3
		l-0.1-0.2 M3.85,30.75v0.2l0.1,0.3l0.1,0.2l0.1,0.2l0.2,0.2l0.2,0.2l0.2,0.2l0.3,0.2 M5.05,32.45l0.3,0.2l0.4,0.1l0.3,0.1l0.4,0.1
		l0.4,0.1l0.4,0.1h0.4h0.4h0.4h0.5l0.4-0.1l0.4-0.1l0.3-0.1l0.4-0.1l0.3-0.1l0.3-0.2l0.3-0.2l0.3-0.2l0.2-0.2l0.2-0.2l0.1-0.2
		l0.1-0.2l0.1-0.3v-0.2 M3.85,30.05v0.2v0.2v0.3l0.1,0.2l0.1,0.2l0.1,0.3l0.2,0.2l0.2,0.2l0.2,0.2l0.3,0.2 M5.05,32.25l0.3,0.1
		l0.4,0.2l0.3,0.1l0.4,0.1l0.4,0.1h0.4l0.4,0.1h0.4h0.4l0.5-0.1h0.4l0.4-0.1l0.3-0.1l0.4-0.1l0.3-0.2l0.3-0.1l0.3-0.2l0.3-0.2
		l0.2-0.2l0.2-0.2l0.1-0.3l0.1-0.2l0.1-0.2v-0.3v-0.2l-0.1-0.2 M3.85,29.55v0.3l0.1,0.2l0.1,0.2l0.1,0.3l0.2,0.2l0.2,0.2l0.2,0.2
		l0.3,0.2 M5.05,31.35l0.3,0.1l0.4,0.2l0.3,0.1l0.4,0.1l0.4,0.1h0.4l0.4,0.1h0.4h0.4l0.5-0.1h0.4l0.4-0.1l0.3-0.1l0.4-0.1l0.3-0.2
		l0.3-0.1l0.3-0.2l0.3-0.2l0.2-0.2l0.2-0.2l0.1-0.3l0.1-0.2l0.1-0.2v-0.3 M3.85,28.85v0.2v0.3v0.2l0.1,0.2l0.1,0.3l0.1,0.2l0.2,0.2
		l0.2,0.2l0.2,0.2l0.3,0.2 M5.05,31.05l0.3,0.2l0.4,0.1l0.3,0.1l0.4,0.1l0.4,0.1l0.4,0.1h0.4h0.4h0.4h0.5l0.4-0.1l0.4-0.1l0.3-0.1
		l0.4-0.1l0.3-0.1l0.3-0.2l0.3-0.2l0.3-0.2l0.2-0.2l0.2-0.2l0.1-0.2l0.1-0.3l0.1-0.2v-0.2v-0.3l-0.1-0.2 M3.85,28.45v0.2l0.1,0.2
		l0.1,0.3l0.1,0.2l0.2,0.2l0.2,0.2l0.2,0.2l0.3,0.2 M5.05,30.15l0.3,0.2l0.4,0.1l0.3,0.1l0.4,0.1l0.4,0.1l0.4,0.1h0.4h0.4h0.4h0.5
		l0.4-0.1l0.4-0.1l0.3-0.1l0.4-0.1l0.3-0.1l0.3-0.2l0.3-0.2l0.3-0.2l0.2-0.2l0.2-0.2l0.1-0.2l0.1-0.3l0.1-0.2v-0.2 M3.85,27.75v0.2
		v0.2v0.3l0.1,0.2l0.1,0.2l0.1,0.3l0.2,0.2l0.2,0.2l0.2,0.2l0.3,0.1 M5.05,29.85l0.3,0.2l0.4,0.2l0.3,0.1l0.4,0.1l0.4,0.1h0.4
		l0.4,0.1h0.4h0.4l0.5-0.1h0.4l0.4-0.1l0.3-0.1l0.4-0.1l0.3-0.2l0.3-0.2l0.3-0.1l0.3-0.2l0.2-0.2l0.2-0.2l0.1-0.3l0.1-0.2l0.1-0.2
		v-0.3v-0.2l-0.1-0.2 M3.85,27.25v0.2l0.1,0.3l0.1,0.2l0.1,0.2l0.2,0.3l0.2,0.2l0.2,0.2l0.3,0.1 M5.05,28.95l0.3,0.2l0.4,0.1
		l0.3,0.2l0.4,0.1l0.4,0.1h0.4h0.4l0.4,0.1l0.4-0.1h0.5h0.4l0.4-0.1l0.3-0.1l0.4-0.2l0.3-0.1l0.3-0.2l0.3-0.1l0.3-0.2l0.2-0.2
		l0.2-0.3l0.1-0.2l0.1-0.2l0.1-0.3v-0.2 M3.85,26.55v0.2v0.3v0.2l0.1,0.2l0.1,0.3l0.1,0.2l0.2,0.2l0.2,0.2l0.2,0.2l0.3,0.2
		 M5.05,28.75l0.3,0.2l0.4,0.1l0.3,0.1l0.4,0.1l0.4,0.1l0.4,0.1h0.4h0.4h0.4h0.5l0.4-0.1l0.4-0.1l0.3-0.1l0.4-0.1l0.3-0.1l0.3-0.2
		l0.3-0.2l0.3-0.2l0.2-0.2l0.2-0.2l0.1-0.2l0.1-0.3l0.1-0.2v-0.2v-0.3l-0.1-0.2 M3.85,26.05v0.3l0.1,0.2l0.1,0.3l0.1,0.2l0.2,0.2
		l0.2,0.2l0.2,0.2l0.3,0.2 M5.05,27.85l0.3,0.1l0.4,0.2l0.3,0.1l0.4,0.1l0.4,0.1l0.4,0.1h0.4h0.4h0.4h0.5l0.4-0.1l0.4-0.1l0.3-0.1
		l0.4-0.1l0.3-0.2l0.3-0.1l0.3-0.2l0.3-0.2l0.2-0.2l0.2-0.2l0.1-0.2l0.1-0.3l0.1-0.2v-0.3 M3.85,25.35v0.3v0.2v0.2l0.1,0.3l0.1,0.2
		l0.1,0.2l0.2,0.3l0.2,0.2l0.2,0.2l0.3,0.1 M5.05,27.55l0.3,0.2l0.4,0.1l0.3,0.2l0.4,0.1h0.4l0.4,0.1h0.4l0.4,0.1l0.4-0.1h0.5
		l0.4-0.1h0.4l0.3-0.1l0.4-0.2l0.3-0.1l0.3-0.2l0.3-0.1l0.3-0.2l0.2-0.2l0.2-0.3l0.1-0.2l0.1-0.2l0.1-0.3v-0.2v-0.2l-0.1-0.3
		 M3.85,24.95v0.2l0.1,0.3l0.1,0.2l0.1,0.2l0.2,0.2l0.2,0.3l0.2,0.1l0.3,0.2 M5.05,26.65l0.3,0.2l0.4,0.1l0.3,0.2l0.4,0.1h0.4
		l0.4,0.1h0.4h0.4h0.4h0.5l0.4-0.1h0.4l0.3-0.1l0.4-0.2l0.3-0.1l0.3-0.2l0.3-0.2l0.3-0.1l0.2-0.3l0.2-0.2l0.1-0.2l0.1-0.2l0.1-0.3
		v-0.2 M3.85,24.25v0.2v0.2v0.3l0.1,0.2l0.1,0.3l0.1,0.2l0.2,0.2l0.2,0.2l0.2,0.2l0.3,0.2 M5.05,26.45l0.3,0.1l0.4,0.2l0.3,0.1
		l0.4,0.1l0.4,0.1h0.4l0.4,0.1h0.4h0.4l0.5-0.1h0.4l0.4-0.1l0.3-0.1l0.4-0.1l0.3-0.2l0.3-0.1l0.3-0.2l0.3-0.2l0.2-0.2l0.2-0.2
		l0.1-0.2l0.1-0.3l0.1-0.2v-0.3v-0.2l-0.1-0.2 M3.85,23.75v0.3l0.1,0.2l0.1,0.2l0.1,0.3l0.2,0.2l0.2,0.2l0.2,0.2l0.3,0.2
		 M5.05,25.55l0.3,0.1l0.4,0.2l0.3,0.1l0.4,0.1l0.4,0.1h0.4l0.4,0.1h0.4h0.4l0.5-0.1h0.4l0.4-0.1l0.3-0.1l0.4-0.1l0.3-0.2l0.3-0.1
		l0.3-0.2l0.3-0.2l0.2-0.2l0.2-0.2l0.1-0.3l0.1-0.2l0.1-0.2v-0.3 M3.85,23.05v0.2v0.3v0.2l0.1,0.3l0.1,0.2l0.1,0.2l0.2,0.2l0.2,0.2
		l0.2,0.2l0.3,0.2 M5.05,25.25l0.3,0.2l0.4,0.1l0.3,0.1l0.4,0.2h0.4l0.4,0.1h0.4h0.4h0.4h0.5l0.4-0.1h0.4l0.3-0.2l0.4-0.1l0.3-0.1
		l0.3-0.2l0.3-0.2l0.3-0.2l0.2-0.2l0.2-0.2l0.1-0.2l0.1-0.2l0.1-0.3v-0.2v-0.3l-0.1-0.2 M3.85,22.65v0.2l0.1,0.3l0.1,0.2l0.1,0.2
		l0.2,0.2l0.2,0.2l0.2,0.2l0.3,0.2 M5.05,24.35l0.3,0.2l0.4,0.1l0.3,0.1l0.4,0.1l0.4,0.1l0.4,0.1h0.4h0.4h0.4h0.5l0.4-0.1l0.4-0.1
		l0.3-0.1l0.4-0.1l0.3-0.1l0.3-0.2l0.3-0.2l0.3-0.2l0.2-0.2l0.2-0.2l0.1-0.2l0.1-0.2l0.1-0.3v-0.2 M3.85,21.95v0.2v0.2v0.3l0.1,0.2
		l0.1,0.2l0.1,0.3l0.2,0.2l0.2,0.2l0.2,0.2l0.3,0.2 M5.05,24.15l0.3,0.1l0.4,0.2l0.3,0.1l0.4,0.1l0.4,0.1h0.4l0.4,0.1h0.4h0.4
		l0.5-0.1h0.4l0.4-0.1l0.3-0.1l0.4-0.1l0.3-0.2l0.3-0.1l0.3-0.2l0.3-0.2l0.2-0.2l0.2-0.2l0.1-0.3l0.1-0.2l0.1-0.2v-0.3v-0.2
		l-0.1-0.2 M3.85,21.45v0.3l0.1,0.2l0.1,0.2l0.1,0.3l0.2,0.2l0.2,0.2l0.2,0.2l0.3,0.2 M5.05,23.25l0.3,0.1l0.4,0.2l0.3,0.1l0.4,0.1
		l0.4,0.1h0.4l0.4,0.1h0.4h0.4l0.5-0.1h0.4l0.4-0.1l0.3-0.1l0.4-0.1l0.3-0.2l0.3-0.1l0.3-0.2l0.3-0.2l0.2-0.2l0.2-0.2l0.1-0.3
		l0.1-0.2l0.1-0.2v-0.3 M3.85,20.75v0.2v0.3v0.2l0.1,0.2l0.1,0.3l0.1,0.2l0.2,0.2l0.2,0.2l0.2,0.2l0.3,0.2 M5.05,22.95l0.3,0.2
		l0.4,0.1l0.3,0.1l0.4,0.1l0.4,0.1l0.4,0.1h0.4h0.4h0.4h0.5l0.4-0.1l0.4-0.1l0.3-0.1l0.4-0.1l0.3-0.1l0.3-0.2l0.3-0.2l0.3-0.2
		l0.2-0.2l0.2-0.2l0.1-0.2l0.1-0.3l0.1-0.2v-0.2v-0.3l-0.1-0.2 M3.85,20.35v0.2l0.1,0.2l0.1,0.3l0.1,0.2l0.2,0.2l0.2,0.2l0.2,0.2
		l0.3,0.2 M5.05,22.05l0.3,0.2l0.4,0.1l0.3,0.1l0.4,0.1l0.4,0.1l0.4,0.1h0.4h0.4h0.4h0.5l0.4-0.1l0.4-0.1l0.3-0.1l0.4-0.1l0.3-0.1
		l0.3-0.2l0.3-0.2l0.3-0.2l0.2-0.2l0.2-0.2l0.1-0.2l0.1-0.3l0.1-0.2v-0.2 M3.85,19.65v0.2v0.2v0.3l0.1,0.2l0.1,0.2l0.1,0.3l0.2,0.2
		l0.2,0.2l0.2,0.2l0.3,0.1 M5.05,21.75l0.3,0.2l0.4,0.2l0.3,0.1l0.4,0.1l0.4,0.1h0.4l0.4,0.1h0.4h0.4l0.5-0.1h0.4l0.4-0.1l0.3-0.1
		l0.4-0.1l0.3-0.2l0.3-0.2l0.3-0.1l0.3-0.2l0.2-0.2l0.2-0.2l0.1-0.3l0.1-0.2l0.1-0.2v-0.3v-0.2l-0.1-0.2 M3.85,19.15v0.2l0.1,0.3
		l0.1,0.2l0.1,0.2l0.2,0.3l0.2,0.2l0.2,0.2l0.3,0.1 M5.05,20.85l0.3,0.2l0.4,0.1l0.3,0.2l0.4,0.1l0.4,0.1h0.4h0.4l0.4,0.1l0.4-0.1
		h0.5h0.4l0.4-0.1l0.3-0.1l0.4-0.2l0.3-0.1l0.3-0.2l0.3-0.1l0.3-0.2l0.2-0.2l0.2-0.3l0.1-0.2l0.1-0.2l0.1-0.3v-0.2 M3.85,18.45v0.2
		v0.3v0.2l0.1,0.2l0.1,0.3l0.1,0.2l0.2,0.2l0.2,0.2l0.2,0.2l0.3,0.2 M5.05,20.65l0.3,0.2l0.4,0.1l0.3,0.1l0.4,0.1l0.4,0.1l0.4,0.1
		h0.4h0.4h0.4h0.5l0.4-0.1l0.4-0.1l0.3-0.1l0.4-0.1l0.3-0.1l0.3-0.2l0.3-0.2l0.3-0.2l0.2-0.2l0.2-0.2l0.1-0.2l0.1-0.3l0.1-0.2v-0.2
		v-0.3l-0.1-0.2 M3.85,17.95v0.3l0.1,0.2l0.1,0.3l0.1,0.2l0.2,0.2l0.2,0.2l0.2,0.2l0.3,0.2 M5.05,19.75l0.3,0.1l0.4,0.2l0.3,0.1
		l0.4,0.1l0.4,0.1l0.4,0.1h0.4h0.4h0.4h0.5l0.4-0.1l0.4-0.1l0.3-0.1l0.4-0.1l0.3-0.2l0.3-0.1l0.3-0.2l0.3-0.2l0.2-0.2l0.2-0.2
		l0.1-0.2l0.1-0.3l0.1-0.2v-0.3 M3.85,17.25v0.3v0.2v0.2l0.1,0.3l0.1,0.2l0.1,0.2l0.2,0.3l0.2,0.2l0.2,0.2l0.3,0.1 M5.05,19.45
		l0.3,0.2l0.4,0.1l0.3,0.2l0.4,0.1h0.4l0.4,0.1h0.4l0.4,0.1l0.4-0.1h0.5l0.4-0.1h0.4l0.3-0.1l0.4-0.2l0.3-0.1l0.3-0.2l0.3-0.1
		l0.3-0.2l0.2-0.2l0.2-0.3l0.1-0.2l0.1-0.2l0.1-0.3v-0.2v-0.2l-0.1-0.3 M3.85,16.85v0.2l0.1,0.3l0.1,0.2l0.1,0.2l0.2,0.2l0.2,0.3
		l0.2,0.1l0.3,0.2 M5.05,18.55l0.3,0.2l0.4,0.1l0.3,0.2l0.4,0.1h0.4l0.4,0.1h0.4h0.4h0.4h0.5l0.4-0.1h0.4l0.3-0.1l0.4-0.2l0.3-0.1
		l0.3-0.2l0.3-0.2l0.3-0.1l0.2-0.3l0.2-0.2l0.1-0.2l0.1-0.2l0.1-0.3v-0.2 M3.85,16.15v0.2v0.2v0.3l0.1,0.2l0.1,0.3l0.1,0.2l0.2,0.2
		l0.2,0.2l0.2,0.2l0.3,0.2 M5.05,18.35l0.3,0.1l0.4,0.2l0.3,0.1l0.4,0.1l0.4,0.1h0.4l0.4,0.1h0.4h0.4l0.5-0.1h0.4l0.4-0.1l0.3-0.1
		l0.4-0.1l0.3-0.2l0.3-0.1l0.3-0.2l0.3-0.2l0.2-0.2l0.2-0.2l0.1-0.2l0.1-0.3l0.1-0.2v-0.3v-0.2l-0.1-0.2 M3.85,15.65v0.3l0.1,0.2
		l0.1,0.2l0.1,0.3l0.2,0.2l0.2,0.2l0.2,0.2l0.3,0.2 M5.05,17.45l0.3,0.1l0.4,0.2l0.3,0.1l0.4,0.1l0.4,0.1h0.4l0.4,0.1h0.4h0.4
		l0.5-0.1h0.4l0.4-0.1l0.3-0.1l0.4-0.1l0.3-0.2l0.3-0.1l0.3-0.2l0.3-0.2l0.2-0.2l0.2-0.2l0.1-0.3l0.1-0.2l0.1-0.2v-0.3 M3.85,15.25
		v0.2v0.2l0.1,0.3l0.1,0.2l0.1,0.2l0.2,0.2l0.2,0.2l0.2,0.2l0.3,0.2 M5.05,17.15l0.3,0.2l0.4,0.1l0.3,0.1l0.4,0.1l0.4,0.1l0.4,0.1
		h0.4h0.4h0.4h0.5l0.4-0.1l0.4-0.1l0.3-0.1l0.4-0.1l0.3-0.1l0.3-0.2l0.3-0.2l0.3-0.2l0.2-0.2l0.2-0.2l0.1-0.2l0.1-0.2l0.1-0.3v-0.2
		v-0.2 M9.05,5.55l-2.1-0.3 M10.95,5.85l-1.9-0.3 M5.55,6.05l-0.4,0.2 M6.95,5.25l-1.4,0.8 M6.95,5.25v-3 M4.05,15.35l0.1,0.1
		l0.2,0.2l0.2,0.2l0.2,0.2l0.3,0.2 M5.05,16.25l0.3,0.2l0.4,0.1l0.3,0.1l0.4,0.1l0.4,0.1l0.4,0.1h0.4h0.4h0.4h0.5l0.4-0.1l0.4-0.1
		l0.3-0.1l0.4-0.1l0.3-0.1l0.3-0.2l0.3-0.2l0.3-0.2l0.2-0.2l0.2-0.2v-0.1 M11.05,5.85v-3 M10.65,6.05l-0.3-0.1l-0.3-0.1l-0.3-0.1
		l-0.4-0.1l-0.3-0.1 M9.05,5.55h-0.4l-0.4-0.1h-0.4l-0.3,0.1h-0.4l-0.4,0.1l-0.3,0.1l-0.4,0.1l-0.3,0.1l-0.2,0.1 M5.55,6.05
		l-0.3,0.2 M11.05,2.85l1.1,2.3 M9.15,6.85l3-1.7 M9.15,6.85l-4-0.6 M5.15,6.25l-1.1-2.3 M6.95,2.25l-2.9,1.7 M11.05,2.85l-4.1-0.6
		 M0.25,11.55l0.1,0.3v0.3l0.1,0.3l0.1,0.3l0.2,0.3l0.2,0.3l0.3,0.3l0.3,0.3l0.3,0.3l0.3,0.2l0.4,0.2l0.4,0.3l0.5,0.2l0.4,0.1
		l0.5,0.2l0.5,0.1l0.5,0.2l0.5,0.1l0.6,0.1h0.5h0.6l0.5,0.1l0.6-0.1h0.5h0.6l0.5-0.1l0.6-0.1l0.5-0.2l0.5-0.1l0.4-0.2l0.5-0.1
		l0.4-0.2l0.4-0.3 M13.55,14.65l0.4-0.2l0.4-0.2l0.3-0.3l0.3-0.3l0.2-0.3l0.2-0.3l0.2-0.3l0.1-0.3l0.1-0.3l0.1-0.3v-0.3 M15.85,4.85
		v0.1 M0.25,4.95L0.25,4.95 M10.55,49.95l0.5-0.3 M5.05,49.65l0.6,0.3 M12.35,47.85L12.35,47.85 M3.85,47.85L3.85,47.85
		 M12.35,46.95v-0.3 M3.85,46.65v0.3 M12.35,45.75v-0.2 M3.85,45.55v0.2 M12.35,44.65v-0.3 M3.85,44.35v0.3 M12.35,43.45v-0.2
		 M3.85,43.25v0.2 M12.35,42.25v-0.2 M3.85,42.05v0.2 M12.35,41.15v-0.3 M3.85,40.85v0.3 M12.35,39.95v-0.2 M3.85,39.75v0.2
		 M12.35,38.85v-0.3 M3.85,38.55v0.3 M12.35,37.65v-0.2 M3.85,37.45v0.2 M12.35,36.55v-0.3 M3.85,36.25v0.3 M12.35,35.35v-0.2
		 M3.85,35.15v0.2 M12.35,34.15v-0.2 M3.85,33.95v0.2 M12.35,33.05v-0.3 M3.85,32.75v0.3 M12.35,31.85v-0.2 M3.85,31.65v0.2
		 M12.35,30.75v-0.3 M3.85,30.45v0.3 M12.35,29.55v-0.2 M3.85,29.35v0.2 M12.35,28.45v-0.3 M3.85,28.15v0.3 M12.35,27.25v-0.2
		 M3.85,27.05v0.2 M12.35,26.05v-0.2 M3.85,25.85v0.2 M12.35,24.95v-0.3 M3.85,24.65v0.3 M12.35,23.75v-0.2 M3.85,23.55v0.2
		 M12.35,22.65v-0.3 M3.85,22.35v0.3 M12.35,21.45v-0.2 M3.85,21.25v0.2 M12.35,20.35v-0.3 M3.85,20.05v0.3 M12.35,19.15v-0.2
		 M3.85,18.95v0.2 M12.35,17.95v-0.2 M3.85,17.75v0.2 M12.35,16.85v-0.3 M3.85,16.55v0.3 M12.35,15.65v-0.2 M3.85,15.45v0.2
		 M15.85,11.55v-6.6 M0.25,4.95v6.6 M15.85,4.85v-0.2v-0.3l-0.1-0.4l-0.1-0.3l-0.2-0.3l-0.2-0.3l-0.2-0.3l-0.3-0.2l-0.3-0.3
		l-0.3-0.3l-0.3-0.2l-0.4-0.2l-0.4-0.3l-0.4-0.1l-0.5-0.2l-0.4-0.2l-0.5-0.1l-0.5-0.1l-0.5-0.1l-0.5-0.1l-0.5-0.1h-0.5h-0.6h-0.5
		h-0.5l-0.5,0.1h-0.6l-0.5,0.1l-0.5,0.1l-0.4,0.2l-0.5,0.1l-0.5,0.2l-0.4,0.2l-0.4,0.2l-0.4,0.2l-0.3,0.2l-0.4,0.3l-0.3,0.2
		l-0.2,0.3l-0.3,0.3l-0.2,0.3l-0.2,0.3l-0.1,0.3l-0.1,0.4v0.3l-0.1,0.3v0.1"/>
</g>
</svg>
