<?xml version="1.0" encoding="utf-8"?>
<!-- Generator: Adobe Illustrator 19.0.0, SVG Export Plug-In . SVG Version: 6.00 Build 0)  -->
<svg version="1.0" id="Layer_1" xmlns="http://www.w3.org/2000/svg" xmlns:xlink="http://www.w3.org/1999/xlink" x="0px" y="0px"
	 width="16.1px" height="36.9px" viewBox="0 0 16.1 36.9" enable-background="new 0 0 16.1 36.9" xml:space="preserve">
<g>
	
		<path fill="none" stroke="#000000" stroke-width="0.25" stroke-linecap="round" stroke-linejoin="round" stroke-miterlimit="10" d="
		M15.85,4.95v0.2v0.3l-0.1,0.2l-0.1,0.3l-0.1,0.3l-0.2,0.3l-0.2,0.2l-0.2,0.3l-0.2,0.2l-0.3,0.2l-0.2,0.3l-0.3,0.2l-0.4,0.2
		 M13.55,8.15l-0.3,0.2l-0.4,0.1l-0.4,0.2l-0.4,0.2l-0.4,0.1l-0.4,0.1l-0.5,0.1l-0.4,0.1l-0.5,0.1h-0.5l-0.4,0.1h-0.5h-0.5h-0.5
		l-0.5-0.1h-0.4l-0.5-0.1h-0.5l-0.4-0.1l-0.5-0.2l-0.4-0.1l-0.4-0.1l-0.4-0.2l-0.4-0.1l-0.3-0.2l-0.4-0.2l-0.3-0.2l-0.3-0.3
		l-0.2-0.2l-0.3-0.2l-0.2-0.3l-0.2-0.2l-0.2-0.3l-0.1-0.2l-0.1-0.3l-0.1-0.3l-0.1-0.3v-0.2v-0.1 M13.25,7.65l0.3-0.2l0.3-0.3
		l0.3-0.2l0.3-0.2l0.2-0.2l0.2-0.3l0.2-0.2l0.1-0.3l0.1-0.3l0.1-0.2l0.1-0.3v-0.3v-0.2l-0.1-0.3v-0.3l-0.1-0.2l-0.1-0.3l-0.2-0.2
		l-0.2-0.3l-0.2-0.2l-0.2-0.3l-0.2-0.2l-0.3-0.2l-0.3-0.2l-0.4-0.2l-0.3-0.2l-0.4-0.2l-0.3-0.1l-0.4-0.2l-0.5-0.1l-0.4-0.1l-0.4-0.1
		l-0.5-0.1h-0.4l-0.5-0.1h-0.5h-0.4h-0.5h-0.5l-0.4,0.1h-0.5l-0.4,0.1l-0.5,0.1l-0.4,0.1l-0.4,0.1l-0.4,0.1l-0.4,0.2l-0.4,0.2
		l-0.3,0.1l-0.4,0.2l-0.3,0.2l-0.3,0.2l-0.2,0.3l-0.3,0.2l-0.2,0.2l-0.1,0.3l-0.2,0.2l-0.1,0.3l-0.1,0.3l-0.1,0.2v0.3l-0.1,0.3
		l0.1,0.2v0.3l0.1,0.3l0.1,0.2l0.1,0.3l0.2,0.3l0.2,0.2l0.2,0.2l0.2,0.3l0.3,0.2l0.3,0.2l0.3,0.2l0.4,0.2l0.3,0.2l0.4,0.1l0.4,0.2
		l0.4,0.1l0.4,0.1l0.4,0.1l0.5,0.1l0.4,0.1h0.5l0.5,0.1h0.4h0.5h0.5h0.4l0.5-0.1l0.4-0.1h0.5l0.4-0.1l0.4-0.2l0.5-0.1l0.3-0.1
		l0.4-0.2l0.4-0.2L13.25,7.65"/>
	<path fill="none" stroke="#000000" stroke-width="0.5" stroke-linecap="round" stroke-linejoin="round" stroke-miterlimit="10" d="
		M5.65,36.05L5.65,36.05l0.2,0.2l0.3,0.1l0.2,0.1l0.3,0.1h0.3l0.3,0.1h0.3h0.4h0.3h0.3h0.3l0.3-0.1h0.3l0.3-0.1l0.3-0.1l0.2-0.1
		l0.3-0.2 M3.85,34.05L3.85,34.05v0.2v0.2l0.1,0.2l0.1,0.2l0.2,0.2l0.1,0.2l0.2,0.2l0.2,0.1l0.2,0.2l0.3,0.1l0.3,0.2l0.3,0.1
		l0.3,0.1l0.3,0.1h0.3l0.4,0.1h0.3h0.4h0.4h0.3h0.4l0.3-0.1h0.3l0.4-0.1l0.3-0.1l0.3-0.1l0.3-0.1l0.2-0.2 M11.05,35.75l0.3-0.1
		l0.2-0.2l0.2-0.2l0.1-0.1l0.2-0.2l0.1-0.2l0.1-0.2v-0.2l0.1-0.2v-0.1 M3.85,33.55v0.1v0.2v0.2v0.2v0.2l0.1,0.2l0.1,0.2l0.2,0.2
		l0.2,0.2l0.2,0.2l0.2,0.1l0.2,0.2 M5.05,35.75l0.3,0.1l0.3,0.1l0.3,0.1l0.3,0.1l0.3,0.1l0.3,0.1h0.4l0.3,0.1h0.4h0.3h0.4l0.3-0.1
		h0.4l0.3-0.1l0.3-0.1l0.4-0.1l0.3-0.1l0.2-0.1l0.3-0.2l0.2-0.1l0.2-0.2l0.2-0.2l0.2-0.1l0.1-0.2l0.1-0.2l0.1-0.2v-0.2l0.1-0.2v-0.2
		l-0.1-0.3 M3.85,33.05v0.1v0.2v0.2l0.1,0.2l0.1,0.2l0.2,0.2l0.2,0.2l0.2,0.1l0.2,0.2l0.2,0.2 M5.05,34.85l0.3,0.1l0.3,0.1l0.3,0.1
		l0.3,0.1l0.3,0.1l0.3,0.1h0.4l0.3,0.1h0.4h0.3h0.4l0.3-0.1h0.4l0.3-0.1l0.3-0.1l0.4-0.1l0.3-0.1l0.2-0.1l0.3-0.2l0.2-0.1l0.2-0.2
		l0.2-0.2l0.2-0.2l0.1-0.1l0.1-0.2l0.1-0.2v-0.2l0.1-0.3 M3.85,32.35v0.1v0.2v0.3v0.2v0.2l0.1,0.2l0.1,0.2l0.2,0.1l0.2,0.2l0.2,0.2
		l0.2,0.2l0.2,0.1 M5.05,34.55l0.3,0.1l0.3,0.2l0.3,0.1l0.3,0.1l0.3,0.1h0.3l0.4,0.1h0.3h0.4h0.3h0.4h0.3l0.4-0.1l0.3-0.1h0.3
		l0.4-0.1l0.3-0.2l0.2-0.1l0.3-0.1l0.2-0.2l0.2-0.1l0.2-0.2l0.2-0.2l0.1-0.2l0.1-0.2l0.1-0.2v-0.2l0.1-0.2v-0.2l-0.1-0.2v-0.1
		 M3.85,31.95L3.85,31.95v0.2v0.2l0.1,0.2l0.1,0.2l0.2,0.2l0.2,0.2l0.2,0.2l0.2,0.1l0.2,0.2 M5.05,33.65l0.3,0.1l0.3,0.2l0.3,0.1
		l0.3,0.1l0.3,0.1h0.3l0.4,0.1h0.3h0.4h0.3h0.4h0.3l0.4-0.1l0.3-0.1h0.3l0.4-0.1l0.3-0.2l0.2-0.1l0.3-0.1l0.2-0.2l0.2-0.2l0.2-0.1
		l0.2-0.2l0.1-0.2l0.1-0.2l0.1-0.2v-0.2l0.1-0.2 M3.85,31.25v0.1v0.2v0.2v0.2v0.2l0.1,0.2l0.1,0.2l0.2,0.2l0.2,0.2l0.2,0.1l0.2,0.2
		l0.2,0.2 M5.05,33.45l0.3,0.1l0.3,0.1l0.3,0.1l0.3,0.1l0.3,0.1l0.3,0.1h0.4l0.3,0.1h0.4h0.3l0.4-0.1h0.3h0.4l0.3-0.1l0.3-0.1
		l0.4-0.1l0.3-0.1l0.2-0.1l0.3-0.2l0.2-0.1l0.2-0.2l0.2-0.2l0.2-0.2l0.1-0.2l0.1-0.1l0.1-0.2v-0.3l0.1-0.2v-0.2l-0.1-0.2
		 M3.85,30.75v0.1v0.2v0.2l0.1,0.2l0.1,0.2l0.2,0.2l0.2,0.2l0.2,0.1l0.2,0.2l0.2,0.1 M5.05,32.45l0.3,0.2l0.3,0.1l0.3,0.1l0.3,0.1
		l0.3,0.1l0.3,0.1h0.4h0.3l0.4,0.1h0.3l0.4-0.1h0.3l0.4-0.1h0.3l0.3-0.1l0.4-0.1l0.3-0.1l0.2-0.2l0.3-0.1l0.2-0.1l0.2-0.2l0.2-0.2
		l0.2-0.2l0.1-0.2l0.1-0.2l0.1-0.2v-0.2l0.1-0.2 M3.85,30.05v0.1v0.2v0.2v0.2v0.2l0.1,0.2l0.1,0.2l0.2,0.2l0.2,0.2l0.2,0.2l0.2,0.1
		l0.2,0.2 M5.05,32.25l0.3,0.1l0.3,0.2l0.3,0.1l0.3,0.1l0.3,0.1h0.3l0.4,0.1h0.3h0.4h0.3h0.4h0.3l0.4-0.1l0.3-0.1l0.3-0.1l0.4-0.1
		l0.3-0.1l0.2-0.1l0.3-0.1l0.2-0.2l0.2-0.2l0.2-0.1l0.2-0.2l0.1-0.2l0.1-0.2l0.1-0.2v-0.2l0.1-0.2v-0.2l-0.1-0.2v-0.1 M3.85,29.55
		v0.1v0.2v0.2l0.1,0.2l0.1,0.2l0.2,0.2l0.2,0.2l0.2,0.2l0.2,0.1l0.2,0.2 M5.05,31.35l0.3,0.1l0.3,0.2l0.3,0.1l0.3,0.1h0.3l0.3,0.1
		l0.4,0.1h0.3h0.4h0.3h0.4l0.3-0.1h0.4l0.3-0.1l0.3-0.1l0.4-0.1l0.3-0.1l0.2-0.1l0.3-0.2l0.2-0.1l0.2-0.2l0.2-0.1l0.2-0.2l0.1-0.2
		l0.1-0.2l0.1-0.2v-0.2l0.1-0.2v-0.1 M3.85,28.85v0.2v0.2v0.2v0.2v0.2l0.1,0.2l0.1,0.2l0.2,0.2l0.2,0.2l0.2,0.1l0.2,0.2l0.2,0.1
		 M5.05,31.05l0.3,0.2l0.3,0.1l0.3,0.1l0.3,0.1l0.3,0.1l0.3,0.1h0.4h0.3l0.4,0.1h0.3l0.4-0.1h0.3l0.4-0.1h0.3l0.3-0.1l0.4-0.1
		l0.3-0.1l0.2-0.2l0.3-0.1l0.2-0.2l0.2-0.1l0.2-0.2l0.2-0.2l0.1-0.2l0.1-0.2l0.1-0.2v-0.2l0.1-0.2v-0.2l-0.1-0.2v-0.1 M3.85,28.45
		v0.1v0.2v0.2l0.1,0.2l0.1,0.2l0.2,0.2l0.2,0.1l0.2,0.2l0.2,0.2l0.2,0.1 M5.05,30.15l0.3,0.2l0.3,0.1l0.3,0.1l0.3,0.1l0.3,0.1h0.3
		l0.4,0.1h0.3h0.4h0.3h0.4h0.3l0.4-0.1h0.3l0.3-0.1l0.4-0.1l0.3-0.1l0.2-0.2l0.3-0.1l0.2-0.2l0.2-0.1l0.2-0.2l0.2-0.2l0.1-0.2
		l0.1-0.2l0.1-0.2v-0.2l0.1-0.2 M3.85,27.75v0.1v0.2v0.2v0.2v0.2l0.1,0.2l0.1,0.2l0.2,0.2l0.2,0.2l0.2,0.2l0.2,0.1l0.2,0.2
		 M5.05,29.95l0.3,0.1l0.3,0.1l0.3,0.2l0.3,0.1h0.3l0.3,0.1l0.4,0.1h0.3h0.4h0.3h0.4l0.3-0.1h0.4l0.3-0.1l0.3-0.1l0.4-0.1l0.3-0.1
		l0.2-0.1l0.3-0.2l0.2-0.1l0.2-0.2l0.2-0.2l0.2-0.1l0.1-0.2l0.1-0.2l0.1-0.2v-0.2l0.1-0.2v-0.2l-0.1-0.2v-0.1 M3.85,27.25v0.1v0.2
		v0.2l0.1,0.2l0.1,0.2l0.2,0.2l0.2,0.2l0.2,0.2l0.2,0.1l0.2,0.2 M5.05,29.05l0.3,0.1l0.3,0.1l0.3,0.1l0.3,0.1l0.3,0.1l0.3,0.1h0.4
		l0.3,0.1h0.4h0.3h0.4l0.3-0.1h0.4l0.3-0.1l0.3-0.1l0.4-0.1l0.3-0.1l0.2-0.1l0.3-0.2l0.2-0.1l0.2-0.2l0.2-0.2l0.2-0.1l0.1-0.2
		l0.1-0.2l0.1-0.2v-0.2l0.1-0.2v-0.1 M3.85,26.55v0.2v0.2v0.2v0.2v0.2l0.1,0.2l0.1,0.2l0.2,0.2l0.2,0.1l0.2,0.2l0.2,0.2l0.2,0.1
		 M5.05,28.75l0.3,0.2l0.3,0.1l0.3,0.1l0.3,0.1l0.3,0.1h0.3l0.4,0.1h0.3h0.4h0.3h0.4h0.3l0.4-0.1h0.3l0.3-0.1l0.4-0.1l0.3-0.1
		l0.2-0.2l0.3-0.1l0.2-0.2l0.2-0.1l0.2-0.2l0.2-0.2l0.1-0.2l0.1-0.2l0.1-0.2v-0.2l0.1-0.2v-0.2l-0.1-0.2v-0.1 M3.85,26.15v0.1v0.2
		v0.2l0.1,0.2l0.1,0.2l0.2,0.1l0.2,0.2l0.2,0.2l0.2,0.2l0.2,0.1 M5.05,27.85l0.3,0.2l0.3,0.1l0.3,0.1l0.3,0.1l0.3,0.1h0.3l0.4,0.1
		h0.3h0.4h0.3h0.4h0.3l0.4-0.1h0.3l0.3-0.1l0.4-0.1l0.3-0.2l0.2-0.1l0.3-0.1l0.2-0.2l0.2-0.1l0.2-0.2l0.2-0.2l0.1-0.2l0.1-0.2
		l0.1-0.2v-0.2l0.1-0.2 M3.85,25.45v0.1v0.2v0.2v0.2v0.2l0.1,0.2l0.1,0.2l0.2,0.2l0.2,0.2l0.2,0.2l0.2,0.1l0.2,0.2 M5.05,27.65
		l0.3,0.1l0.3,0.1l0.3,0.1l0.3,0.1l0.3,0.1l0.3,0.1h0.4l0.3,0.1h0.4h0.3h0.4l0.3-0.1h0.4l0.3-0.1l0.3-0.1l0.4-0.1l0.3-0.1l0.2-0.1
		l0.3-0.2l0.2-0.1l0.2-0.2l0.2-0.2l0.2-0.1l0.1-0.2l0.1-0.2l0.1-0.2v-0.2l0.1-0.2v-0.3l-0.1-0.2 M3.85,24.95v0.1v0.2v0.2l0.1,0.2
		l0.1,0.2l0.2,0.2l0.2,0.2l0.2,0.1l0.2,0.2l0.2,0.2 M5.05,26.75l0.3,0.1l0.3,0.1l0.3,0.1l0.3,0.1l0.3,0.1l0.3,0.1h0.4l0.3,0.1h0.4
		h0.3h0.4l0.3-0.1h0.4l0.3-0.1l0.3-0.1l0.4-0.1l0.3-0.1l0.2-0.1l0.3-0.2l0.2-0.1l0.2-0.2l0.2-0.2l0.2-0.2l0.1-0.1l0.1-0.2l0.1-0.2
		v-0.2l0.1-0.3 M3.85,24.25v0.1v0.2v0.2v0.3v0.2l0.1,0.2l0.1,0.2l0.2,0.1l0.2,0.2l0.2,0.2l0.2,0.2l0.2,0.1 M5.05,26.45l0.3,0.1
		l0.3,0.2l0.3,0.1l0.3,0.1l0.3,0.1h0.3l0.4,0.1h0.3h0.4h0.3h0.4h0.3l0.4-0.1l0.3-0.1h0.3l0.4-0.1l0.3-0.2l0.2-0.1l0.3-0.1l0.2-0.2
		l0.2-0.1l0.2-0.2l0.2-0.2l0.1-0.2l0.1-0.2l0.1-0.2v-0.2l0.1-0.2v-0.2l-0.1-0.2v-0.1 M3.85,23.85L3.85,23.85v0.2v0.2l0.1,0.2
		l0.1,0.2l0.2,0.2l0.2,0.2l0.2,0.2l0.2,0.1l0.2,0.2 M5.05,25.55l0.3,0.1l0.3,0.2l0.3,0.1l0.3,0.1l0.3,0.1h0.3l0.4,0.1h0.3h0.4h0.3
		h0.4h0.3l0.4-0.1l0.3-0.1h0.3l0.4-0.2l0.3-0.1l0.2-0.1l0.3-0.1l0.2-0.2l0.2-0.2l0.2-0.1l0.2-0.2l0.1-0.2l0.1-0.2l0.1-0.2v-0.2
		l0.1-0.2 M3.85,23.15v0.1v0.2v0.2v0.2v0.2l0.1,0.2l0.1,0.2l0.2,0.2l0.2,0.2l0.2,0.1l0.2,0.2l0.2,0.2 M5.05,25.35l0.3,0.1l0.3,0.1
		l0.3,0.1l0.3,0.1l0.3,0.1l0.3,0.1h0.4l0.3,0.1h0.4h0.3l0.4-0.1h0.3h0.4l0.3-0.1l0.3-0.1l0.4-0.1l0.3-0.1l0.2-0.1l0.3-0.2l0.2-0.1
		l0.2-0.2l0.2-0.2l0.2-0.2l0.1-0.2l0.1-0.1l0.1-0.3v-0.2l0.1-0.2v-0.2l-0.1-0.2 M3.85,22.65v0.1v0.2v0.2l0.1,0.2l0.1,0.2l0.2,0.2
		l0.2,0.2l0.2,0.1l0.2,0.2l0.2,0.1 M5.05,24.35l0.3,0.2l0.3,0.1l0.3,0.1l0.3,0.1l0.3,0.1l0.3,0.1h0.4h0.3l0.4,0.1h0.3l0.4-0.1h0.3
		l0.4-0.1h0.3l0.3-0.1l0.4-0.1l0.3-0.1l0.2-0.2l0.3-0.1l0.2-0.1l0.2-0.2l0.2-0.2l0.2-0.2l0.1-0.2l0.1-0.2l0.1-0.2v-0.2l0.1-0.2
		 M3.85,21.95v0.1v0.2v0.2v0.2v0.2l0.1,0.2l0.1,0.2l0.2,0.2l0.2,0.2l0.2,0.2l0.2,0.1l0.2,0.2 M5.05,24.15l0.3,0.1l0.3,0.2l0.3,0.1
		l0.3,0.1h0.3l0.3,0.1l0.4,0.1h0.3h0.4h0.3h0.4h0.3l0.4-0.1l0.3-0.1l0.3-0.1l0.4-0.1l0.3-0.1l0.2-0.1l0.3-0.1l0.2-0.2l0.2-0.2
		l0.2-0.1l0.2-0.2l0.1-0.2l0.1-0.2l0.1-0.2v-0.2l0.1-0.2v-0.2l-0.1-0.2v-0.1 M3.85,21.45v0.1v0.2v0.2l0.1,0.2l0.1,0.2l0.2,0.2
		l0.2,0.2l0.2,0.2l0.2,0.1l0.2,0.2 M5.05,23.25l0.3,0.1l0.3,0.1l0.3,0.2l0.3,0.1h0.3l0.3,0.1l0.4,0.1h0.3h0.4h0.3h0.4l0.3-0.1h0.4
		l0.3-0.1l0.3-0.1l0.4-0.1l0.3-0.1l0.2-0.1l0.3-0.2l0.2-0.1l0.2-0.2l0.2-0.1l0.2-0.2l0.1-0.2l0.1-0.2l0.1-0.2v-0.2l0.1-0.2v-0.1
		 M3.85,20.75v0.2v0.2v0.2v0.2v0.2l0.1,0.2l0.1,0.2l0.2,0.2l0.2,0.2l0.2,0.1l0.2,0.2l0.2,0.1 M5.05,22.95l0.3,0.2l0.3,0.1l0.3,0.1
		l0.3,0.1l0.3,0.1l0.3,0.1h0.4h0.3l0.4,0.1h0.3l0.4-0.1h0.3l0.4-0.1h0.3l0.3-0.1l0.4-0.1l0.3-0.1l0.2-0.2l0.3-0.1l0.2-0.2l0.2-0.1
		l0.2-0.2l0.2-0.2l0.1-0.2l0.1-0.2l0.1-0.2v-0.2l0.1-0.2v-0.2l-0.1-0.2v-0.1 M3.85,20.35v0.1v0.2v0.2l0.1,0.2l0.1,0.2l0.2,0.2
		l0.2,0.1l0.2,0.2l0.2,0.2l0.2,0.1 M5.05,22.05l0.3,0.2l0.3,0.1l0.3,0.1l0.3,0.1l0.3,0.1h0.3l0.4,0.1h0.3h0.4h0.3h0.4h0.3l0.4-0.1
		h0.3l0.3-0.1l0.4-0.1l0.3-0.1l0.2-0.2l0.3-0.1l0.2-0.2l0.2-0.1l0.2-0.2l0.2-0.2l0.1-0.2l0.1-0.2l0.1-0.2v-0.2l0.1-0.2 M3.85,19.65
		v0.1v0.2v0.2v0.2v0.2l0.1,0.2l0.1,0.2l0.2,0.2l0.2,0.2l0.2,0.2l0.2,0.1l0.2,0.2 M5.05,21.85l0.3,0.1l0.3,0.1l0.3,0.2l0.3,0.1h0.3
		l0.3,0.1h0.4l0.3,0.1h0.4h0.3h0.4l0.3-0.1h0.4l0.3-0.1l0.3-0.1l0.4-0.1l0.3-0.1l0.2-0.1l0.3-0.2l0.2-0.1l0.2-0.2l0.2-0.2l0.2-0.1
		l0.1-0.2l0.1-0.2l0.1-0.2v-0.2l0.1-0.2v-0.2l-0.1-0.2v-0.1 M3.85,19.15v0.1v0.2v0.2l0.1,0.2l0.1,0.2l0.2,0.2l0.2,0.2l0.2,0.2
		l0.2,0.1l0.2,0.2 M5.05,20.95l0.3,0.1l0.3,0.1l0.3,0.1l0.3,0.1l0.3,0.1l0.3,0.1h0.4l0.3,0.1h0.4h0.3h0.4l0.3-0.1h0.4l0.3-0.1
		l0.3-0.1l0.4-0.1l0.3-0.1l0.2-0.1l0.3-0.2l0.2-0.1l0.2-0.2l0.2-0.2l0.2-0.1l0.1-0.2l0.1-0.2l0.1-0.2v-0.2l0.1-0.2v-0.1 M3.85,18.45
		v0.2v0.2v0.2v0.2v0.2l0.1,0.2l0.1,0.2l0.2,0.2l0.2,0.1l0.2,0.2l0.2,0.2l0.2,0.1 M5.05,20.65l0.3,0.2l0.3,0.1l0.3,0.1l0.3,0.1
		l0.3,0.1h0.3l0.4,0.1h0.3h0.4h0.3h0.4h0.3l0.4-0.1h0.3l0.3-0.1l0.4-0.1l0.3-0.1l0.2-0.2l0.3-0.1l0.2-0.2l0.2-0.1l0.2-0.2l0.2-0.2
		l0.1-0.2l0.1-0.2l0.1-0.2v-0.2l0.1-0.2v-0.2l-0.1-0.2v-0.1 M3.85,18.05v0.1v0.2v0.2l0.1,0.2l0.1,0.2l0.2,0.1l0.2,0.2l0.2,0.2
		l0.2,0.2l0.2,0.1 M5.05,19.75l0.3,0.2l0.3,0.1l0.3,0.1l0.3,0.1l0.3,0.1h0.3l0.4,0.1h0.3h0.4h0.3h0.4h0.3l0.4-0.1l0.3-0.1h0.3
		l0.4-0.1l0.3-0.2l0.2-0.1l0.3-0.1l0.2-0.2l0.2-0.1l0.2-0.2l0.2-0.2l0.1-0.2l0.1-0.2l0.1-0.2v-0.2l0.1-0.2 M3.85,17.35v0.1v0.2v0.2
		v0.2v0.2l0.1,0.2l0.1,0.2l0.2,0.2l0.2,0.2l0.2,0.2l0.2,0.1l0.2,0.2 M5.05,19.55l0.3,0.1l0.3,0.1l0.3,0.1l0.3,0.1l0.3,0.1l0.3,0.1
		h0.4l0.3,0.1h0.4h0.3h0.4l0.3-0.1h0.4l0.3-0.1l0.3-0.1l0.4-0.1l0.3-0.1l0.2-0.1l0.3-0.2l0.2-0.1l0.2-0.2l0.2-0.2l0.2-0.1l0.1-0.2
		l0.1-0.2l0.1-0.2v-0.2l0.1-0.2v-0.3l-0.1-0.2 M3.85,16.85v0.1v0.2v0.2l0.1,0.2l0.1,0.2l0.2,0.2l0.2,0.2l0.2,0.1l0.2,0.2l0.2,0.2
		 M5.05,18.65l0.3,0.1l0.3,0.1l0.3,0.1l0.3,0.1l0.3,0.1l0.3,0.1h0.4l0.3,0.1h0.4h0.3h0.4l0.3-0.1h0.4l0.3-0.1l0.3-0.1l0.4-0.1
		l0.3-0.1l0.2-0.1l0.3-0.2l0.2-0.1l0.2-0.2l0.2-0.2l0.2-0.2l0.1-0.1l0.1-0.2l0.1-0.2v-0.2l0.1-0.3 M3.85,16.15v0.1v0.2v0.2v0.3v0.2
		l0.1,0.2l0.1,0.2l0.2,0.1l0.2,0.2l0.2,0.2l0.2,0.2l0.2,0.1 M5.05,18.35l0.3,0.1l0.3,0.2l0.3,0.1l0.3,0.1l0.3,0.1h0.3l0.4,0.1h0.3
		h0.4h0.3h0.4h0.3l0.4-0.1l0.3-0.1h0.3l0.4-0.1l0.3-0.2l0.2-0.1l0.3-0.1l0.2-0.2l0.2-0.1l0.2-0.2l0.2-0.2l0.1-0.2l0.1-0.2l0.1-0.2
		v-0.2l0.1-0.2v-0.2l-0.1-0.2v-0.1 M3.85,15.75L3.85,15.75v0.2v0.2l0.1,0.2l0.1,0.2l0.2,0.2l0.2,0.2l0.2,0.2l0.2,0.1l0.2,0.2
		 M5.05,17.45l0.3,0.1l0.3,0.2l0.3,0.1l0.3,0.1l0.3,0.1h0.3l0.4,0.1h0.3h0.4h0.3h0.4h0.3l0.4-0.1l0.3-0.1l0.3-0.1l0.4-0.1l0.3-0.1
		l0.2-0.1l0.3-0.1l0.2-0.2l0.2-0.2l0.2-0.1l0.2-0.2l0.1-0.2l0.1-0.2l0.1-0.2v-0.2l0.1-0.2 M3.85,15.35L3.85,15.35v0.2v0.2v0.2
		l0.1,0.2l0.1,0.2l0.2,0.2l0.2,0.2l0.2,0.1l0.2,0.2l0.2,0.1 M5.05,17.15l0.3,0.2l0.3,0.1l0.3,0.1l0.3,0.1l0.3,0.1l0.3,0.1h0.4
		l0.3,0.1h0.4h0.3l0.4-0.1h0.3h0.4l0.3-0.1l0.3-0.1l0.4-0.1l0.3-0.1l0.2-0.1l0.3-0.2l0.2-0.1l0.2-0.2l0.2-0.2l0.2-0.2l0.1-0.2
		l0.1-0.2l0.1-0.2v-0.2l0.1-0.2v-0.1 M9.05,5.55l-2.1-0.3 M10.95,5.85l-1.9-0.3 M5.55,6.15l-0.4,0.2 M6.95,5.25l-1.4,0.9 M6.95,5.25
		v-3 M4.05,15.45L4.05,15.45l0.2,0.2l0.2,0.2l0.2,0.1l0.2,0.2l0.2,0.1 M5.05,16.25l0.3,0.2l0.3,0.1l0.3,0.1l0.3,0.1l0.3,0.1l0.3,0.1
		h0.4h0.3l0.4,0.1h0.3l0.4-0.1h0.3l0.4-0.1h0.3l0.3-0.1l0.4-0.1l0.3-0.1l0.2-0.2l0.3-0.1l0.2-0.2l0.2-0.1l0.2-0.2l0.2-0.2l0.1-0.1
		 M11.05,5.85v-3 M10.55,6.05L10.55,6.05l-0.3-0.1l-0.3-0.1l-0.3-0.1l-0.3-0.1l-0.3-0.1 M9.05,5.55h-0.4h-0.3h-0.4h-0.3h-0.4
		l-0.3,0.1h-0.3l-0.3,0.1l-0.3,0.1l-0.3,0.1l-0.2,0.2 M5.55,6.15l-0.3,0.1l-0.1,0.1 M11.05,2.85l1.1,2.4 M9.15,6.95l3-1.7
		 M9.15,6.95l-4-0.6 M5.15,6.35l-1.1-2.4 M6.95,2.25l-2.9,1.7 M11.05,2.85l-4.1-0.6 M0.25,11.55v0.1v0.2l0.1,0.3l0.1,0.3l0.1,0.3
		l0.1,0.2l0.2,0.3l0.2,0.2l0.2,0.3l0.3,0.2l0.2,0.2l0.3,0.3l0.3,0.2l0.4,0.2l0.3,0.1l0.4,0.2l0.4,0.2l0.4,0.1l0.4,0.1l0.5,0.2
		l0.4,0.1h0.5l0.5,0.1h0.4l0.5,0.1h0.5h0.5h0.5l0.4-0.1h0.5l0.5-0.1l0.4-0.1l0.5-0.1l0.4-0.1l0.4-0.2l0.4-0.1l0.4-0.2l0.4-0.1
		l0.3-0.2 M13.55,14.75l0.4-0.2l0.3-0.2l0.2-0.3l0.3-0.2l0.2-0.2l0.2-0.3l0.2-0.3l0.2-0.2l0.1-0.3l0.1-0.3l0.1-0.2v-0.3v-0.2
		 M15.85,4.95L15.85,4.95 M0.25,4.95L0.25,4.95 M10.55,36.05l0.5-0.3 M5.05,35.75l0.6,0.3 M12.35,34.05v-0.1 M3.85,33.95v0.1
		 M12.35,33.05v-0.2 M3.85,32.85v0.2 M12.35,31.95v-0.3 M3.85,31.65v0.3 M12.35,30.75v-0.2 M3.85,30.55v0.2 M12.35,29.55v-0.2
		 M3.85,29.35v0.2 M12.35,28.45v-0.3 M3.85,28.15v0.3 M12.35,27.25v-0.2 M3.85,27.05v0.2 M12.35,26.15v-0.3 M3.85,25.85v0.3
		 M12.35,24.95v-0.2 M3.85,24.75v0.2 M12.35,23.85v-0.3 M3.85,23.55v0.3 M12.35,22.65v-0.2 M3.85,22.45v0.2 M12.35,21.45v-0.2
		 M3.85,21.25v0.2 M12.35,20.35v-0.3 M3.85,20.05v0.3 M12.35,19.15v-0.2 M3.85,18.95v0.2 M12.35,18.05v-0.3 M3.85,17.75v0.3
		 M12.35,16.85v-0.2 M3.85,16.65v0.2 M12.35,15.75v-0.3 M3.85,15.45v0.3 M15.85,11.55v-6.6 M0.25,4.95v6.6 M15.85,4.95L15.85,4.95
		v-0.3v-0.3l-0.1-0.2l-0.1-0.3l-0.1-0.3l-0.2-0.2l-0.1-0.3l-0.2-0.2l-0.2-0.3l-0.3-0.2l-0.2-0.2l-0.3-0.2l-0.3-0.2l-0.4-0.2
		l-0.3-0.2l-0.4-0.2l-0.3-0.1l-0.4-0.2l-0.4-0.1l-0.4-0.1l-0.5-0.1l-0.4-0.1l-0.4-0.1h-0.5l-0.4-0.1h-0.5h-0.4h-0.5h-0.4l-0.5,0.1
		h-0.4l-0.5,0.1l-0.4,0.1l-0.4,0.1l-0.4,0.1l-0.4,0.1l-0.4,0.2l-0.4,0.1l-0.3,0.2l-0.4,0.2l-0.3,0.2l-0.3,0.2l-0.3,0.2l-0.2,0.2
		l-0.3,0.3l-0.2,0.2l-0.2,0.3l-0.2,0.3l-0.1,0.2l-0.1,0.3l-0.1,0.3v0.2l-0.1,0.3v0.2"/>
</g>
</svg>
