<?xml version="1.0" encoding="utf-8"?>
<!-- Generator: Adobe Illustrator 19.0.0, SVG Export Plug-In . SVG Version: 6.00 Build 0)  -->
<svg version="1.0" id="Layer_1" xmlns="http://www.w3.org/2000/svg" xmlns:xlink="http://www.w3.org/1999/xlink" x="0px" y="0px"
	 width="16.1px" height="60.1px" viewBox="0 0 16.1 60.1" enable-background="new 0 0 16.1 60.1" xml:space="preserve">
<g>
	
		<path fill="none" stroke="#000000" stroke-width="0.25" stroke-linecap="round" stroke-linejoin="round" stroke-miterlimit="10" d="
		M15.85,4.95v0.4l-0.1,0.3l-0.1,0.3l-0.2,0.4l-0.2,0.3l-0.3,0.3l-0.3,0.4l-0.3,0.2l-0.4,0.3l-0.4,0.3 M13.55,8.15l-0.5,0.2l-0.4,0.2
		l-0.5,0.2l-0.6,0.2l-0.5,0.2l-0.6,0.1l-0.6,0.1h-0.6l-0.6,0.1h-0.6h-0.6l-0.6-0.1h-0.6l-0.6-0.1l-0.6-0.1l-0.6-0.2l-0.5-0.2
		l-0.5-0.2l-0.5-0.2l-0.4-0.2l-0.4-0.3l-0.4-0.3l-0.4-0.2l-0.3-0.4l-0.2-0.3l-0.2-0.3l-0.2-0.4l-0.1-0.3l-0.1-0.3v-0.4 M13.25,7.65
		l0.4-0.3l0.4-0.3l0.3-0.2l0.3-0.3l0.2-0.4l0.2-0.3l0.2-0.3l0.1-0.4v-0.3l0.1-0.3l-0.1-0.4l-0.1-0.3l-0.1-0.3l-0.2-0.4l-0.2-0.3
		l-0.3-0.3l-0.3-0.3l-0.3-0.3l-0.4-0.2l-0.4-0.3l-0.5-0.2l-0.5-0.2l-0.5-0.2l-0.5-0.1l-0.5-0.2l-0.6-0.1h-0.6l-0.6-0.1h-0.6h-0.6
		h-0.6l-0.5,0.1l-0.6,0.1l-0.6,0.1l-0.5,0.1l-0.5,0.2l-0.5,0.2l-0.5,0.2l-0.4,0.2l-0.4,0.3l-0.4,0.3l-0.3,0.3l-0.3,0.3l-0.3,0.3
		l-0.2,0.3l-0.1,0.3l-0.1,0.4l-0.1,0.3v0.3l0.1,0.4v0.3l0.2,0.4l0.1,0.3l0.3,0.3l0.2,0.3l0.3,0.3l0.4,0.3l0.4,0.2l0.4,0.3l0.4,0.2
		l0.5,0.2l0.5,0.2l0.6,0.1l0.5,0.2l0.6,0.1h0.6l0.5,0.1h0.6h0.6h0.6l0.6-0.1l0.6-0.1l0.5-0.1l0.6-0.1l0.5-0.2l0.5-0.2l0.5-0.2
		L13.25,7.65"/>
	<path fill="none" stroke="#000000" stroke-width="0.5" stroke-linecap="round" stroke-linejoin="round" stroke-miterlimit="10" d="
		M5.55,59.25h0.1l0.3,0.2l0.4,0.1l0.3,0.1l0.4,0.1l0.4,0.1h0.4h0.4l0.4-0.1h0.4l0.4-0.1l0.4-0.1l0.3-0.1l0.3-0.2 M3.75,57.15v0.1
		l0.1,0.2v0.3l0.2,0.2l0.1,0.3l0.2,0.2l0.3,0.2l0.3,0.2l0.3,0.2l0.4,0.2l0.4,0.1l0.4,0.1l0.4,0.1l0.5,0.1h0.4h0.5h0.4l0.4-0.1
		l0.5-0.1l0.4-0.1l0.4-0.1l0.4-0.2l0.3-0.1 M11.05,58.95l0.3-0.2l0.3-0.2l0.2-0.3l0.2-0.2l0.1-0.2l0.1-0.3v-0.3v-0.1 M3.85,56.65
		v0.1l-0.1,0.2v0.3l0.1,0.2l0.1,0.3l0.1,0.2l0.2,0.3l0.2,0.2l0.3,0.2l0.3,0.2 M5.05,58.85l0.3,0.2l0.4,0.1l0.4,0.2l0.4,0.1l0.4,0.1
		h0.5h0.4h0.5h0.4l0.5-0.1h0.4l0.4-0.2l0.4-0.1l0.3-0.1l0.4-0.2l0.3-0.2l0.2-0.2l0.2-0.3l0.2-0.2l0.1-0.3l0.1-0.2v-0.3v-0.2v-0.3
		 M3.75,56.25v0.1l0.1,0.2l0.1,0.3l0.1,0.2l0.2,0.3l0.2,0.2l0.3,0.2l0.3,0.2 M5.05,57.95l0.3,0.2l0.4,0.1l0.4,0.2l0.4,0.1l0.4,0.1
		h0.5h0.4h0.5h0.4l0.5-0.1l0.4-0.1l0.4-0.1l0.4-0.1l0.3-0.2l0.4-0.1l0.3-0.2l0.2-0.2l0.2-0.3l0.2-0.2l0.1-0.3l0.1-0.2v-0.3
		 M3.85,55.55L3.85,55.55l-0.1,0.3v0.2l0.1,0.3l0.1,0.2l0.1,0.3l0.2,0.2l0.2,0.3l0.3,0.2l0.3,0.2 M5.05,57.75l0.3,0.1l0.4,0.2
		l0.4,0.1l0.4,0.1l0.4,0.1l0.5,0.1h0.4h0.5l0.4-0.1h0.5l0.4-0.1l0.4-0.1l0.4-0.1l0.3-0.2l0.4-0.2l0.3-0.2l0.2-0.2l0.2-0.2l0.2-0.3
		l0.1-0.2l0.1-0.3v-0.2v-0.3v-0.2 M3.75,55.05v0.1l0.1,0.3l0.1,0.2l0.1,0.3l0.2,0.2l0.2,0.2l0.3,0.3l0.3,0.2 M5.05,56.85l0.3,0.1
		l0.4,0.2l0.4,0.1l0.4,0.1l0.4,0.1h0.5l0.4,0.1h0.5l0.4-0.1h0.5l0.4-0.1l0.4-0.1l0.4-0.2l0.3-0.1l0.4-0.2l0.3-0.2l0.2-0.2l0.2-0.2
		l0.2-0.3l0.1-0.2l0.1-0.3v-0.2v-0.1 M3.85,54.35L3.85,54.35l-0.1,0.3v0.3l0.1,0.2l0.1,0.3l0.1,0.2l0.2,0.3l0.2,0.2l0.3,0.2l0.3,0.2
		 M5.05,56.55l0.3,0.2l0.4,0.1l0.4,0.2l0.4,0.1h0.4l0.5,0.1h0.4h0.5h0.4l0.5-0.1l0.4-0.1l0.4-0.1l0.4-0.1l0.3-0.2l0.4-0.1l0.3-0.2
		l0.2-0.3l0.2-0.2l0.2-0.2l0.1-0.3l0.1-0.2v-0.3v-0.3v-0.2 M3.75,53.95v0.1l0.1,0.2l0.1,0.3l0.1,0.2l0.2,0.3l0.2,0.2l0.3,0.2
		l0.3,0.2 M5.05,55.65l0.3,0.2l0.4,0.1l0.4,0.2l0.4,0.1h0.4l0.5,0.1h0.4h0.5h0.4l0.5-0.1l0.4-0.1l0.4-0.1l0.4-0.1l0.3-0.2l0.4-0.1
		l0.3-0.2l0.2-0.3l0.2-0.2l0.2-0.2l0.1-0.3l0.1-0.2v-0.3 M3.85,53.25L3.85,53.25l-0.1,0.3v0.2l0.1,0.3l0.1,0.2l0.1,0.3l0.2,0.2
		l0.2,0.2l0.3,0.3l0.3,0.1 M5.05,55.35l0.3,0.2l0.4,0.2l0.4,0.1l0.4,0.1l0.4,0.1h0.5l0.4,0.1h0.5l0.4-0.1h0.5l0.4-0.1l0.4-0.1
		l0.4-0.2l0.3-0.1l0.4-0.2l0.3-0.2l0.2-0.2l0.2-0.2l0.2-0.3l0.1-0.2l0.1-0.3v-0.3v-0.2v-0.2 M3.75,52.75v0.1l0.1,0.3l0.1,0.2
		l0.1,0.3l0.2,0.2l0.2,0.2l0.3,0.2l0.3,0.2 M5.05,54.45l0.3,0.2l0.4,0.2l0.4,0.1l0.4,0.1l0.4,0.1h0.5l0.4,0.1h0.5l0.4-0.1h0.5
		l0.4-0.1l0.4-0.1l0.4-0.2l0.3-0.1l0.4-0.2l0.3-0.2l0.2-0.2l0.2-0.3l0.2-0.2l0.1-0.2l0.1-0.3v-0.3 M3.85,52.05L3.85,52.05l-0.1,0.3
		v0.3l0.1,0.2l0.1,0.3l0.1,0.2l0.2,0.3l0.2,0.2l0.3,0.2l0.3,0.2 M5.05,54.25l0.3,0.2l0.4,0.1l0.4,0.1l0.4,0.2h0.4l0.5,0.1h0.4h0.5
		h0.4l0.5-0.1l0.4-0.1l0.4-0.1l0.4-0.1l0.3-0.2l0.4-0.2l0.3-0.2l0.2-0.2l0.2-0.2l0.2-0.2l0.1-0.3l0.1-0.3v-0.2v-0.3v-0.2
		 M3.75,51.55v0.1l0.1,0.3l0.1,0.3l0.1,0.2l0.2,0.2l0.2,0.3l0.3,0.2l0.3,0.2 M5.05,53.35l0.3,0.2l0.4,0.1l0.4,0.1l0.4,0.1l0.4,0.1
		l0.5,0.1h0.4h0.5h0.4l0.5-0.1l0.4-0.1l0.4-0.1l0.4-0.1l0.3-0.2l0.4-0.2l0.3-0.2l0.2-0.2l0.2-0.2l0.2-0.3l0.1-0.2l0.1-0.3v-0.2v-0.1
		 M3.85,50.85v0.1l-0.1,0.2v0.3l0.1,0.3l0.1,0.2l0.1,0.3l0.2,0.2l0.2,0.2l0.3,0.2l0.3,0.2 M5.05,53.05l0.3,0.2l0.4,0.2l0.4,0.1
		l0.4,0.1l0.4,0.1h0.5l0.4,0.1l0.5-0.1h0.4h0.5l0.4-0.1l0.4-0.1l0.4-0.2l0.3-0.1l0.4-0.2l0.3-0.2l0.2-0.2l0.2-0.3l0.2-0.2l0.1-0.3
		l0.1-0.2v-0.3v-0.2v-0.3 M3.75,50.45v0.1l0.1,0.2l0.1,0.3l0.1,0.3l0.2,0.2l0.2,0.2l0.3,0.2l0.3,0.2 M5.05,52.15l0.3,0.2l0.4,0.2
		l0.4,0.1l0.4,0.1l0.4,0.1h0.5h0.4h0.5h0.4l0.5-0.1h0.4l0.4-0.1l0.4-0.2l0.3-0.1l0.4-0.2l0.3-0.2l0.2-0.2l0.2-0.3l0.2-0.2l0.1-0.3
		l0.1-0.2v-0.3 M3.85,49.75L3.85,49.75l-0.1,0.3v0.2l0.1,0.3l0.1,0.3l0.1,0.2l0.2,0.2l0.2,0.3l0.3,0.2l0.3,0.2 M5.05,51.95l0.3,0.2
		l0.4,0.1l0.4,0.1l0.4,0.1l0.4,0.1l0.5,0.1h0.4h0.5h0.4l0.5-0.1l0.4-0.1l0.4-0.1l0.4-0.1l0.3-0.2l0.4-0.2l0.3-0.2l0.2-0.2l0.2-0.2
		l0.2-0.3l0.1-0.2l0.1-0.3v-0.2v-0.3v-0.2 M3.75,49.25v0.1l0.1,0.3l0.1,0.2l0.1,0.3l0.2,0.2l0.2,0.3l0.3,0.2l0.3,0.2 M5.05,51.05
		l0.3,0.1l0.4,0.2l0.4,0.1l0.4,0.1l0.4,0.1l0.5,0.1h0.4h0.5h0.4l0.5-0.1l0.4-0.1l0.4-0.1l0.4-0.1l0.3-0.2l0.4-0.2l0.3-0.2l0.2-0.2
		l0.2-0.2l0.2-0.3l0.1-0.2l0.1-0.3v-0.2v-0.1 M3.85,48.55v0.1l-0.1,0.2v0.3l0.1,0.2l0.1,0.3l0.1,0.2l0.2,0.3l0.2,0.2l0.3,0.2
		l0.3,0.2 M5.05,50.75l0.3,0.2l0.4,0.1l0.4,0.2l0.4,0.1l0.4,0.1h0.5h0.4h0.5h0.4l0.5-0.1h0.4l0.4-0.2l0.4-0.1l0.3-0.1l0.4-0.2
		l0.3-0.2l0.2-0.2l0.2-0.3l0.2-0.2l0.1-0.3l0.1-0.2v-0.3v-0.2v-0.3 M3.75,48.15v0.1l0.1,0.2l0.1,0.3l0.1,0.2l0.2,0.3l0.2,0.2
		l0.3,0.2l0.3,0.2 M5.05,49.85l0.3,0.2l0.4,0.1l0.4,0.2l0.4,0.1l0.4,0.1h0.5h0.4h0.5h0.4l0.5-0.1l0.4-0.1l0.4-0.1l0.4-0.1l0.3-0.2
		l0.4-0.1l0.3-0.2l0.2-0.3l0.2-0.2l0.2-0.2l0.1-0.3l0.1-0.2v-0.3 M3.85,47.45L3.85,47.45l-0.1,0.3v0.2l0.1,0.3l0.1,0.2l0.1,0.3
		l0.2,0.2l0.2,0.3l0.3,0.2l0.3,0.2 M5.05,49.65l0.3,0.1l0.4,0.2l0.4,0.1l0.4,0.1l0.4,0.1l0.5,0.1h0.4h0.5l0.4-0.1h0.5l0.4-0.1
		l0.4-0.1l0.4-0.1l0.3-0.2l0.4-0.2l0.3-0.2l0.2-0.2l0.2-0.2l0.2-0.3l0.1-0.2l0.1-0.3v-0.2v-0.3v-0.2 M3.75,46.95v0.1l0.1,0.3
		l0.1,0.2l0.1,0.3l0.2,0.2l0.2,0.2l0.3,0.3l0.3,0.2 M5.05,48.75l0.3,0.1l0.4,0.2l0.4,0.1l0.4,0.1l0.4,0.1h0.5l0.4,0.1h0.5l0.4-0.1
		h0.5l0.4-0.1l0.4-0.1l0.4-0.2l0.3-0.1l0.4-0.2l0.3-0.2l0.2-0.2l0.2-0.2l0.2-0.3l0.1-0.2l0.1-0.3v-0.2v-0.1 M3.85,46.25L3.85,46.25
		l-0.1,0.3v0.3l0.1,0.2l0.1,0.3l0.1,0.2l0.2,0.3l0.2,0.2l0.3,0.2l0.3,0.2 M5.05,48.45l0.3,0.2l0.4,0.1l0.4,0.2l0.4,0.1h0.4l0.5,0.1
		h0.4h0.5h0.4l0.5-0.1l0.4-0.1l0.4-0.1l0.4-0.1l0.3-0.2l0.4-0.1l0.3-0.2l0.2-0.3l0.2-0.2l0.2-0.2l0.1-0.3l0.1-0.2v-0.3v-0.3v-0.2
		 M3.75,45.85v0.1l0.1,0.2l0.1,0.3l0.1,0.2l0.2,0.3l0.2,0.2l0.3,0.2l0.3,0.2 M5.05,47.55l0.3,0.2l0.4,0.1l0.4,0.2l0.4,0.1h0.4
		l0.5,0.1h0.4h0.5h0.4l0.5-0.1l0.4-0.1l0.4-0.1l0.4-0.1l0.3-0.2l0.4-0.2l0.3-0.1l0.2-0.3l0.2-0.2l0.2-0.2l0.1-0.3l0.1-0.2v-0.3
		 M3.85,45.15L3.85,45.15l-0.1,0.2v0.3l0.1,0.3l0.1,0.2l0.1,0.3l0.2,0.2l0.2,0.2l0.3,0.3l0.3,0.1 M5.05,47.25l0.3,0.2l0.4,0.2
		l0.4,0.1l0.4,0.1l0.4,0.1h0.5l0.4,0.1h0.5l0.4-0.1h0.5l0.4-0.1l0.4-0.1l0.4-0.2l0.3-0.1l0.4-0.2l0.3-0.2l0.2-0.2l0.2-0.2l0.2-0.3
		l0.1-0.2l0.1-0.3v-0.3v-0.2v-0.2 M3.75,44.65v0.1l0.1,0.3l0.1,0.2l0.1,0.3l0.2,0.2l0.2,0.2l0.3,0.2l0.3,0.2 M5.05,46.35l0.3,0.2
		l0.4,0.2l0.4,0.1l0.4,0.1l0.4,0.1h0.5l0.4,0.1h0.5l0.4-0.1h0.5l0.4-0.1l0.4-0.1l0.4-0.2l0.3-0.1l0.4-0.2l0.3-0.2l0.2-0.2l0.2-0.3
		l0.2-0.2l0.1-0.2l0.1-0.3v-0.3 M3.85,43.95L3.85,43.95l-0.1,0.3v0.3l0.1,0.2l0.1,0.3l0.1,0.2l0.2,0.3l0.2,0.2l0.3,0.2l0.3,0.2
		 M5.05,46.15l0.3,0.2l0.4,0.1l0.4,0.1l0.4,0.2h0.4l0.5,0.1h0.4h0.5h0.4l0.5-0.1l0.4-0.1l0.4-0.1l0.4-0.1l0.3-0.2l0.4-0.2l0.3-0.2
		l0.2-0.2l0.2-0.2l0.2-0.2l0.1-0.3l0.1-0.3v-0.2v-0.3v-0.2 M3.75,43.45v0.1l0.1,0.3l0.1,0.3l0.1,0.2l0.2,0.2l0.2,0.3l0.3,0.2
		l0.3,0.2 M5.05,45.25l0.3,0.2l0.4,0.1l0.4,0.1l0.4,0.1l0.4,0.1l0.5,0.1h0.4h0.5h0.4l0.5-0.1l0.4-0.1l0.4-0.1l0.4-0.1l0.3-0.2
		l0.4-0.2l0.3-0.2l0.2-0.2l0.2-0.2l0.2-0.3l0.1-0.2l0.1-0.3v-0.2v-0.1 M3.85,42.75v0.1l-0.1,0.2v0.3l0.1,0.3l0.1,0.2l0.1,0.3
		l0.2,0.2l0.2,0.2l0.3,0.2l0.3,0.2 M5.05,44.95l0.3,0.2l0.4,0.2l0.4,0.1l0.4,0.1l0.4,0.1h0.5l0.4,0.1l0.5-0.1h0.4h0.5l0.4-0.1
		l0.4-0.1l0.4-0.2l0.3-0.1l0.4-0.2l0.3-0.2l0.2-0.2l0.2-0.3l0.2-0.2l0.1-0.3l0.1-0.2v-0.3v-0.2v-0.3 M3.75,42.35v0.1l0.1,0.2
		l0.1,0.3l0.1,0.3l0.2,0.2l0.2,0.2l0.3,0.2l0.3,0.2 M5.05,44.05l0.3,0.2l0.4,0.2l0.4,0.1l0.4,0.1l0.4,0.1h0.5h0.4h0.5h0.4l0.5-0.1
		h0.4l0.4-0.1l0.4-0.2l0.3-0.1l0.4-0.2l0.3-0.2l0.2-0.2l0.2-0.3l0.2-0.2l0.1-0.3l0.1-0.2v-0.3 M3.85,41.65L3.85,41.65l-0.1,0.3v0.2
		l0.1,0.3l0.1,0.3l0.1,0.2l0.2,0.2l0.2,0.3l0.3,0.2l0.3,0.2 M5.05,43.85l0.3,0.2l0.4,0.1l0.4,0.1l0.4,0.1l0.4,0.1l0.5,0.1h0.4h0.5
		h0.4l0.5-0.1l0.4-0.1l0.4-0.1l0.4-0.1l0.3-0.2l0.4-0.2l0.3-0.2l0.2-0.2l0.2-0.2l0.2-0.3l0.1-0.2l0.1-0.3v-0.2v-0.3v-0.2
		 M3.75,41.15v0.1l0.1,0.3l0.1,0.2l0.1,0.3l0.2,0.2l0.2,0.3l0.3,0.2l0.3,0.2 M5.05,42.95l0.3,0.1l0.4,0.2l0.4,0.1l0.4,0.1l0.4,0.1
		l0.5,0.1h0.4h0.5l0.4-0.1h0.5l0.4-0.1l0.4-0.1l0.4-0.1l0.3-0.2l0.4-0.2l0.3-0.2l0.2-0.2l0.2-0.2l0.2-0.3l0.1-0.2l0.1-0.3v-0.2v-0.1
		 M3.85,40.45v0.1l-0.1,0.2v0.3l0.1,0.2l0.1,0.3l0.1,0.2l0.2,0.3l0.2,0.2l0.3,0.2l0.3,0.2 M5.05,42.65l0.3,0.2l0.4,0.1l0.4,0.2
		l0.4,0.1l0.4,0.1h0.5h0.4h0.5h0.4l0.5-0.1h0.4l0.4-0.2l0.4-0.1l0.3-0.1l0.4-0.2l0.3-0.2l0.2-0.2l0.2-0.3l0.2-0.2l0.1-0.3l0.1-0.2
		v-0.3v-0.2v-0.3 M3.75,40.05v0.1l0.1,0.2l0.1,0.3l0.1,0.2l0.2,0.3l0.2,0.2l0.3,0.2l0.3,0.2 M5.05,41.75l0.3,0.2l0.4,0.1l0.4,0.2
		l0.4,0.1l0.4,0.1h0.5h0.4h0.5h0.4l0.5-0.1l0.4-0.1l0.4-0.1l0.4-0.1l0.3-0.2l0.4-0.1l0.3-0.2l0.2-0.3l0.2-0.2l0.2-0.2l0.1-0.3
		l0.1-0.2v-0.3 M3.85,39.35L3.85,39.35l-0.1,0.3v0.2l0.1,0.3l0.1,0.2l0.1,0.3l0.2,0.2l0.2,0.3l0.3,0.2l0.3,0.2 M5.05,41.55l0.3,0.1
		l0.4,0.2l0.4,0.1l0.4,0.1l0.4,0.1l0.5,0.1h0.4h0.5l0.4-0.1h0.5l0.4-0.1l0.4-0.1l0.4-0.1l0.3-0.2l0.4-0.2l0.3-0.2l0.2-0.2l0.2-0.2
		l0.2-0.3l0.1-0.2l0.1-0.3v-0.2v-0.3v-0.2 M3.75,38.85v0.1l0.1,0.3l0.1,0.2l0.1,0.3l0.2,0.2l0.2,0.2l0.3,0.3l0.3,0.2 M5.05,40.65
		l0.3,0.1l0.4,0.2l0.4,0.1l0.4,0.1l0.4,0.1h0.5l0.4,0.1h0.5l0.4-0.1h0.5l0.4-0.1l0.4-0.1l0.4-0.2l0.3-0.1l0.4-0.2l0.3-0.2l0.2-0.2
		l0.2-0.2l0.2-0.3l0.1-0.2l0.1-0.3v-0.3 M3.85,38.15L3.85,38.15l-0.1,0.3v0.3l0.1,0.2l0.1,0.3l0.1,0.2l0.2,0.3l0.2,0.2l0.3,0.2
		l0.3,0.2 M5.05,40.35l0.3,0.2l0.4,0.1l0.4,0.2l0.4,0.1h0.4l0.5,0.1h0.4h0.5h0.4l0.5-0.1l0.4-0.1l0.4-0.1l0.4-0.1l0.3-0.2l0.4-0.1
		l0.3-0.2l0.2-0.3l0.2-0.2l0.2-0.2l0.1-0.3l0.1-0.2v-0.3v-0.3v-0.2 M3.75,37.75v0.1l0.1,0.2l0.1,0.3l0.1,0.2l0.2,0.3l0.2,0.2
		l0.3,0.2l0.3,0.2 M5.05,39.45l0.3,0.2l0.4,0.1l0.4,0.2l0.4,0.1h0.4l0.5,0.1h0.4h0.5h0.4l0.5-0.1l0.4-0.1l0.4-0.1l0.4-0.1l0.3-0.2
		l0.4-0.2l0.3-0.2l0.2-0.2l0.2-0.2l0.2-0.2l0.1-0.3l0.1-0.2v-0.3 M3.85,37.05L3.85,37.05l-0.1,0.2v0.3l0.1,0.3l0.1,0.2l0.1,0.3
		l0.2,0.2l0.2,0.2l0.3,0.3l0.3,0.1 M5.05,39.15l0.3,0.2l0.4,0.2l0.4,0.1l0.4,0.1l0.4,0.1h0.5l0.4,0.1h0.5l0.4-0.1h0.5l0.4-0.1
		l0.4-0.1l0.4-0.2l0.3-0.1l0.4-0.2l0.3-0.2l0.2-0.2l0.2-0.2l0.2-0.3l0.1-0.2l0.1-0.3v-0.3v-0.2v-0.2 M3.75,36.55v0.1l0.1,0.3
		l0.1,0.2l0.1,0.3l0.2,0.2l0.2,0.2l0.3,0.2l0.3,0.2 M5.05,38.25l0.3,0.2l0.4,0.2l0.4,0.1l0.4,0.1l0.4,0.1h0.5l0.4,0.1h0.5l0.4-0.1
		h0.5l0.4-0.1l0.4-0.1l0.4-0.2l0.3-0.1l0.4-0.2l0.3-0.2l0.2-0.2l0.2-0.3l0.2-0.2l0.1-0.2l0.1-0.3v-0.3 M3.85,35.85L3.85,35.85
		l-0.1,0.3v0.3l0.1,0.2l0.1,0.3l0.1,0.2l0.2,0.3l0.2,0.2l0.3,0.2l0.3,0.2 M5.05,38.05l0.3,0.2l0.4,0.1l0.4,0.1l0.4,0.2h0.4l0.5,0.1
		h0.4h0.5h0.4l0.5-0.1l0.4-0.1l0.4-0.1l0.4-0.1l0.3-0.2l0.4-0.2l0.3-0.2l0.2-0.2l0.2-0.2l0.2-0.2l0.1-0.3l0.1-0.3v-0.2v-0.3v-0.2
		 M3.75,35.35v0.1l0.1,0.3l0.1,0.3l0.1,0.2l0.2,0.2l0.2,0.3l0.3,0.2l0.3,0.2 M5.05,37.15l0.3,0.2l0.4,0.1l0.4,0.1l0.4,0.1l0.4,0.1
		l0.5,0.1h0.4h0.5h0.4l0.5-0.1l0.4-0.1l0.4-0.1l0.4-0.1l0.3-0.2l0.4-0.2l0.3-0.2l0.2-0.2l0.2-0.2l0.2-0.3l0.1-0.2l0.1-0.3v-0.2v-0.1
		 M3.85,34.65v0.1l-0.1,0.2v0.3l0.1,0.3l0.1,0.2l0.1,0.3l0.2,0.2l0.2,0.2l0.3,0.2l0.3,0.2 M5.05,36.85l0.3,0.2l0.4,0.2l0.4,0.1
		l0.4,0.1l0.4,0.1h0.5h0.4h0.5h0.4h0.5l0.4-0.1l0.4-0.1l0.4-0.2l0.3-0.1l0.4-0.2l0.3-0.2l0.2-0.2l0.2-0.3l0.2-0.2l0.1-0.3l0.1-0.2
		v-0.3v-0.2v-0.3 M3.75,34.25v0.1l0.1,0.2l0.1,0.3l0.1,0.3l0.2,0.2l0.2,0.2l0.3,0.2l0.3,0.2 M5.05,35.95l0.3,0.2l0.4,0.2l0.4,0.1
		l0.4,0.1l0.4,0.1h0.5h0.4h0.5h0.4l0.5-0.1h0.4l0.4-0.1l0.4-0.2l0.3-0.1l0.4-0.2l0.3-0.2l0.2-0.2l0.2-0.3l0.2-0.2l0.1-0.3l0.1-0.2
		v-0.3 M3.85,33.55L3.85,33.55l-0.1,0.3v0.2l0.1,0.3l0.1,0.3l0.1,0.2l0.2,0.2l0.2,0.3l0.3,0.2l0.3,0.2 M5.05,35.75l0.3,0.1l0.4,0.2
		l0.4,0.1l0.4,0.1l0.4,0.1l0.5,0.1h0.4h0.5h0.4l0.5-0.1l0.4-0.1l0.4-0.1l0.4-0.1l0.3-0.2l0.4-0.2l0.3-0.2l0.2-0.2l0.2-0.2l0.2-0.3
		l0.1-0.2l0.1-0.3v-0.2v-0.3v-0.2 M3.75,33.05v0.1l0.1,0.3l0.1,0.2l0.1,0.3l0.2,0.2l0.2,0.3l0.3,0.2l0.3,0.2 M5.05,34.85l0.3,0.1
		l0.4,0.2l0.4,0.1l0.4,0.1l0.4,0.1l0.5,0.1h0.4h0.5l0.4-0.1h0.5l0.4-0.1l0.4-0.1l0.4-0.1l0.3-0.2l0.4-0.2l0.3-0.2l0.2-0.2l0.2-0.2
		l0.2-0.3l0.1-0.2l0.1-0.3v-0.2v-0.1 M3.85,32.35v0.1l-0.1,0.2v0.3l0.1,0.2l0.1,0.3l0.1,0.2l0.2,0.3l0.2,0.2l0.3,0.2l0.3,0.2
		 M5.05,34.55l0.3,0.2l0.4,0.1l0.4,0.2l0.4,0.1l0.4,0.1h0.5h0.4h0.5h0.4l0.5-0.1h0.4l0.4-0.2l0.4-0.1l0.3-0.1l0.4-0.2l0.3-0.2
		l0.2-0.2l0.2-0.3l0.2-0.2l0.1-0.3l0.1-0.2v-0.3v-0.2v-0.3 M3.75,31.95v0.1l0.1,0.2l0.1,0.3l0.1,0.2l0.2,0.3l0.2,0.2l0.3,0.2
		l0.3,0.2 M5.05,33.65l0.3,0.2l0.4,0.1l0.4,0.2l0.4,0.1h0.4l0.5,0.1h0.4h0.5h0.4l0.5-0.1l0.4-0.1l0.4-0.1l0.4-0.1l0.3-0.2l0.4-0.1
		l0.3-0.2l0.2-0.3l0.2-0.2l0.2-0.2l0.1-0.3l0.1-0.2v-0.3 M3.85,31.25L3.85,31.25l-0.1,0.3v0.2l0.1,0.3l0.1,0.2l0.1,0.3l0.2,0.2
		l0.2,0.3l0.3,0.2l0.3,0.2 M5.05,33.45l0.3,0.1l0.4,0.2l0.4,0.1l0.4,0.1l0.4,0.1l0.5,0.1h0.4h0.5l0.4-0.1h0.5l0.4-0.1l0.4-0.1
		l0.4-0.1l0.3-0.2l0.4-0.2l0.3-0.2l0.2-0.2l0.2-0.2l0.2-0.3l0.1-0.2l0.1-0.3v-0.2v-0.3v-0.2 M3.75,30.75v0.1l0.1,0.3l0.1,0.2
		l0.1,0.3l0.2,0.2l0.2,0.2l0.3,0.3l0.3,0.2 M5.05,32.55l0.3,0.1l0.4,0.2l0.4,0.1l0.4,0.1l0.4,0.1h0.5l0.4,0.1h0.5l0.4-0.1h0.5
		l0.4-0.1l0.4-0.1l0.4-0.2l0.3-0.1l0.4-0.2l0.3-0.2l0.2-0.2l0.2-0.2l0.2-0.3l0.1-0.2l0.1-0.3v-0.3 M3.85,30.05L3.85,30.05l-0.1,0.3
		v0.3l0.1,0.2l0.1,0.3l0.1,0.2l0.2,0.3l0.2,0.2l0.3,0.2l0.3,0.2 M5.05,32.25l0.3,0.2l0.4,0.1l0.4,0.2l0.4,0.1h0.4l0.5,0.1h0.4h0.5
		h0.4l0.5-0.1l0.4-0.1l0.4-0.1l0.4-0.1l0.3-0.2l0.4-0.1l0.3-0.2l0.2-0.3l0.2-0.2l0.2-0.2l0.1-0.3l0.1-0.2v-0.3v-0.3v-0.2
		 M3.75,29.65v0.1l0.1,0.2l0.1,0.3l0.1,0.2l0.2,0.3l0.2,0.2l0.3,0.2l0.3,0.2 M5.05,31.35l0.3,0.2l0.4,0.1l0.4,0.2l0.4,0.1h0.4
		l0.5,0.1h0.4h0.5h0.4l0.5-0.1l0.4-0.1l0.4-0.1l0.4-0.1l0.3-0.2l0.4-0.2l0.3-0.2l0.2-0.2l0.2-0.2l0.2-0.2l0.1-0.3l0.1-0.2v-0.3
		 M3.85,28.95L3.85,28.95l-0.1,0.2v0.3l0.1,0.3l0.1,0.2l0.1,0.3l0.2,0.2l0.2,0.2l0.3,0.3l0.3,0.1 M5.05,31.05l0.3,0.2l0.4,0.2
		l0.4,0.1l0.4,0.1l0.4,0.1h0.5l0.4,0.1h0.5l0.4-0.1h0.5l0.4-0.1l0.4-0.1l0.4-0.2l0.3-0.1l0.4-0.2l0.3-0.2l0.2-0.2l0.2-0.2l0.2-0.3
		l0.1-0.2l0.1-0.3v-0.3v-0.2v-0.2 M3.75,28.45v0.1l0.1,0.3l0.1,0.2l0.1,0.3l0.2,0.2l0.2,0.2l0.3,0.2l0.3,0.2 M5.05,30.15l0.3,0.2
		l0.4,0.2l0.4,0.1l0.4,0.1l0.4,0.1h0.5l0.4,0.1l0.5-0.1h0.4h0.5l0.4-0.1l0.4-0.1l0.4-0.2l0.3-0.1l0.4-0.2l0.3-0.2l0.2-0.2l0.2-0.3
		l0.2-0.2l0.1-0.2l0.1-0.3v-0.3 M3.85,27.75L3.85,27.75l-0.1,0.3v0.3l0.1,0.2l0.1,0.3l0.1,0.2l0.2,0.3l0.2,0.2l0.3,0.2l0.3,0.2
		 M5.05,29.95l0.3,0.2l0.4,0.1l0.4,0.1l0.4,0.2h0.4l0.5,0.1h0.4h0.5h0.4l0.5-0.1l0.4-0.1l0.4-0.1l0.4-0.1l0.3-0.2l0.4-0.2l0.3-0.2
		l0.2-0.2l0.2-0.2l0.2-0.2l0.1-0.3l0.1-0.3v-0.2v-0.3v-0.2 M3.75,27.25v0.1l0.1,0.3l0.1,0.3l0.1,0.2l0.2,0.2l0.2,0.3l0.3,0.2
		l0.3,0.2 M5.05,29.05l0.3,0.2l0.4,0.1l0.4,0.1l0.4,0.1l0.4,0.1l0.5,0.1h0.4h0.5h0.4l0.5-0.1l0.4-0.1l0.4-0.1l0.4-0.1l0.3-0.2
		l0.4-0.2l0.3-0.2l0.2-0.2l0.2-0.2l0.2-0.3l0.1-0.2l0.1-0.3v-0.2v-0.1 M3.85,26.55v0.1l-0.1,0.2v0.3l0.1,0.3l0.1,0.2l0.1,0.3
		l0.2,0.2l0.2,0.2l0.3,0.2l0.3,0.2 M5.05,28.75l0.3,0.2l0.4,0.2l0.4,0.1l0.4,0.1l0.4,0.1h0.5h0.4h0.5h0.4h0.5l0.4-0.1l0.4-0.1
		l0.4-0.2l0.3-0.1l0.4-0.2l0.3-0.2l0.2-0.2l0.2-0.3l0.2-0.2l0.1-0.3l0.1-0.2v-0.3v-0.2v-0.3 M3.75,26.15v0.1l0.1,0.2l0.1,0.3
		l0.1,0.2l0.2,0.3l0.2,0.2l0.3,0.2l0.3,0.2 M5.05,27.85l0.3,0.2l0.4,0.1l0.4,0.2l0.4,0.1l0.4,0.1h0.5h0.4h0.5h0.4l0.5-0.1h0.4
		l0.4-0.2l0.4-0.1l0.3-0.1l0.4-0.2l0.3-0.2l0.2-0.2l0.2-0.3l0.2-0.2l0.1-0.3l0.1-0.2v-0.3 M3.85,25.45L3.85,25.45l-0.1,0.3v0.2
		l0.1,0.3l0.1,0.3l0.1,0.2l0.2,0.2l0.2,0.3l0.3,0.2l0.3,0.2 M5.05,27.65l0.3,0.1l0.4,0.2l0.4,0.1l0.4,0.1l0.4,0.1l0.5,0.1h0.4h0.5
		h0.4l0.5-0.1l0.4-0.1l0.4-0.1l0.4-0.1l0.3-0.2l0.4-0.2l0.3-0.2l0.2-0.2l0.2-0.2l0.2-0.3l0.1-0.2l0.1-0.3v-0.2v-0.3v-0.2
		 M3.75,24.95v0.1l0.1,0.3l0.1,0.2l0.1,0.3l0.2,0.2l0.2,0.3l0.3,0.2l0.3,0.2 M5.05,26.75l0.3,0.1l0.4,0.2l0.4,0.1l0.4,0.1l0.4,0.1
		l0.5,0.1h0.4h0.5l0.4-0.1h0.5l0.4-0.1l0.4-0.1l0.4-0.1l0.3-0.2l0.4-0.2l0.3-0.2l0.2-0.2l0.2-0.2l0.2-0.3l0.1-0.2l0.1-0.3v-0.2v-0.1
		 M3.85,24.25v0.1l-0.1,0.2v0.3l0.1,0.2l0.1,0.3l0.1,0.2l0.2,0.3l0.2,0.2l0.3,0.2l0.3,0.2 M5.05,26.45l0.3,0.2l0.4,0.1l0.4,0.2
		l0.4,0.1l0.4,0.1h0.5h0.4h0.5h0.4l0.5-0.1h0.4l0.4-0.2l0.4-0.1l0.3-0.2l0.4-0.1l0.3-0.2l0.2-0.2l0.2-0.3l0.2-0.2l0.1-0.3l0.1-0.2
		v-0.3v-0.2v-0.3 M3.75,23.85v0.1l0.1,0.2l0.1,0.3l0.1,0.2l0.2,0.3l0.2,0.2l0.3,0.2l0.3,0.2 M5.05,25.55l0.3,0.2l0.4,0.1l0.4,0.2
		l0.4,0.1h0.4l0.5,0.1h0.4h0.5h0.4l0.5-0.1l0.4-0.1l0.4-0.1l0.4-0.1l0.3-0.2l0.4-0.1l0.3-0.2l0.2-0.3l0.2-0.2l0.2-0.2l0.1-0.3
		l0.1-0.2v-0.3 M3.85,23.15L3.85,23.15l-0.1,0.3v0.2l0.1,0.3l0.1,0.2l0.1,0.3l0.2,0.2l0.2,0.3l0.3,0.2l0.3,0.2 M5.05,25.35l0.3,0.1
		l0.4,0.2l0.4,0.1l0.4,0.1l0.4,0.1l0.5,0.1h0.4h0.5l0.4-0.1h0.5l0.4-0.1l0.4-0.1l0.4-0.1l0.3-0.2l0.4-0.2l0.3-0.2l0.2-0.2l0.2-0.2
		l0.2-0.3l0.1-0.2l0.1-0.3v-0.2v-0.3v-0.2 M3.75,22.65v0.1l0.1,0.3l0.1,0.2l0.1,0.3l0.2,0.2l0.2,0.2l0.3,0.3l0.3,0.1 M5.05,24.35
		l0.3,0.2l0.4,0.2l0.4,0.1l0.4,0.1l0.4,0.1h0.5l0.4,0.1h0.5l0.4-0.1h0.5l0.4-0.1l0.4-0.1l0.4-0.2l0.3-0.1l0.4-0.2l0.3-0.2l0.2-0.2
		l0.2-0.2l0.2-0.3l0.1-0.2l0.1-0.3v-0.3 M3.85,21.95L3.85,21.95l-0.1,0.3v0.3l0.1,0.2l0.1,0.3l0.1,0.2l0.2,0.3l0.2,0.2l0.3,0.2
		l0.3,0.2 M5.05,24.15l0.3,0.2l0.4,0.1l0.4,0.2l0.4,0.1h0.4l0.5,0.1h0.4h0.5h0.4l0.5-0.1l0.4-0.1l0.4-0.1l0.4-0.1l0.3-0.2l0.4-0.1
		l0.3-0.2l0.2-0.3l0.2-0.2l0.2-0.2l0.1-0.3l0.1-0.2v-0.3v-0.3v-0.2 M3.75,21.55v0.1l0.1,0.2l0.1,0.3l0.1,0.2l0.2,0.3l0.2,0.2
		l0.3,0.2l0.3,0.2 M5.05,23.25l0.3,0.2l0.4,0.1l0.4,0.1l0.4,0.2h0.4l0.5,0.1h0.4h0.5h0.4l0.5-0.1l0.4-0.1l0.4-0.1l0.4-0.1l0.3-0.2
		l0.4-0.2l0.3-0.2l0.2-0.2l0.2-0.2l0.2-0.2l0.1-0.3l0.1-0.2v-0.3 M3.85,20.85L3.85,20.85l-0.1,0.2v0.3l0.1,0.3l0.1,0.2l0.1,0.3
		l0.2,0.2l0.2,0.2l0.3,0.3l0.3,0.1 M5.05,22.95l0.3,0.2l0.4,0.2l0.4,0.1l0.4,0.1l0.4,0.1h0.5l0.4,0.1h0.5l0.4-0.1h0.5l0.4-0.1
		l0.4-0.1l0.4-0.2l0.3-0.1l0.4-0.2l0.3-0.2l0.2-0.2l0.2-0.2l0.2-0.3l0.1-0.2l0.1-0.3v-0.3v-0.2v-0.2 M3.75,20.35v0.1l0.1,0.3
		l0.1,0.2l0.1,0.3l0.2,0.2l0.2,0.2l0.3,0.2l0.3,0.2 M5.05,22.05l0.3,0.2l0.4,0.2l0.4,0.1l0.4,0.1l0.4,0.1h0.5l0.4,0.1l0.5-0.1h0.4
		h0.5l0.4-0.1l0.4-0.1l0.4-0.2l0.3-0.1l0.4-0.2l0.3-0.2l0.2-0.2l0.2-0.3l0.2-0.2l0.1-0.2l0.1-0.3v-0.3 M3.85,19.65L3.85,19.65
		l-0.1,0.3v0.2l0.1,0.3l0.1,0.3l0.1,0.2l0.2,0.3l0.2,0.2l0.3,0.2l0.3,0.2 M5.05,21.85l0.3,0.2l0.4,0.1l0.4,0.1l0.4,0.1l0.4,0.1
		l0.5,0.1h0.4h0.5h0.4l0.5-0.1l0.4-0.1l0.4-0.1l0.4-0.1l0.3-0.2l0.4-0.2l0.3-0.2l0.2-0.2l0.2-0.2l0.2-0.2l0.1-0.3l0.1-0.3v-0.2v-0.3
		v-0.2 M3.75,19.15v0.1l0.1,0.3l0.1,0.3l0.1,0.2l0.2,0.2l0.2,0.3l0.3,0.2l0.3,0.2 M5.05,20.95l0.3,0.2l0.4,0.1l0.4,0.1l0.4,0.1
		l0.4,0.1l0.5,0.1h0.4h0.5h0.4l0.5-0.1l0.4-0.1l0.4-0.1l0.4-0.1l0.3-0.2l0.4-0.2l0.3-0.2l0.2-0.2l0.2-0.2l0.2-0.3l0.1-0.2l0.1-0.3
		v-0.2v-0.1 M3.85,18.45v0.1l-0.1,0.2v0.3l0.1,0.3l0.1,0.2l0.1,0.3l0.2,0.2l0.2,0.2l0.3,0.2l0.3,0.2 M5.05,20.65l0.3,0.2l0.4,0.2
		l0.4,0.1l0.4,0.1l0.4,0.1h0.5h0.4h0.5h0.4h0.5l0.4-0.1l0.4-0.1l0.4-0.2l0.3-0.1l0.4-0.2l0.3-0.2l0.2-0.2l0.2-0.3l0.2-0.2l0.1-0.3
		l0.1-0.2v-0.3v-0.2v-0.3 M3.75,18.05v0.1l0.1,0.2l0.1,0.3l0.1,0.2l0.2,0.3l0.2,0.2l0.3,0.2l0.3,0.2 M5.05,19.75l0.3,0.2l0.4,0.1
		l0.4,0.2l0.4,0.1l0.4,0.1h0.5h0.4h0.5h0.4l0.5-0.1h0.4l0.4-0.2l0.4-0.1l0.3-0.1l0.4-0.2l0.3-0.2l0.2-0.2l0.2-0.3l0.2-0.2l0.1-0.3
		l0.1-0.2v-0.3 M3.85,17.35L3.85,17.35l-0.1,0.3v0.2l0.1,0.3l0.1,0.3l0.1,0.2l0.2,0.2l0.2,0.3l0.3,0.2l0.3,0.2 M5.05,19.55l0.3,0.1
		l0.4,0.2l0.4,0.1l0.4,0.1l0.4,0.1l0.5,0.1h0.4h0.5h0.4l0.5-0.1l0.4-0.1l0.4-0.1l0.4-0.1l0.3-0.2l0.4-0.2l0.3-0.2l0.2-0.2l0.2-0.2
		l0.2-0.3l0.1-0.2l0.1-0.3v-0.2v-0.3v-0.2 M3.75,16.85v0.1l0.1,0.3l0.1,0.2l0.1,0.3l0.2,0.2l0.2,0.3l0.3,0.2l0.3,0.2 M5.05,18.65
		l0.3,0.1l0.4,0.2l0.4,0.1l0.4,0.1l0.4,0.1l0.5,0.1h0.4h0.5l0.4-0.1h0.5l0.4-0.1l0.4-0.1l0.4-0.1l0.3-0.2l0.4-0.2l0.3-0.2l0.2-0.2
		l0.2-0.2l0.2-0.3l0.1-0.2l0.1-0.3v-0.2v-0.1 M3.85,16.15v0.1l-0.1,0.2v0.3l0.1,0.2l0.1,0.3l0.1,0.2l0.2,0.3l0.2,0.2l0.3,0.2
		l0.3,0.2 M5.05,18.35l0.3,0.2l0.4,0.1l0.4,0.2l0.4,0.1l0.4,0.1h0.5h0.4h0.5h0.4l0.5-0.1h0.4l0.4-0.2l0.4-0.1l0.3-0.2l0.4-0.1
		l0.3-0.2l0.2-0.2l0.2-0.3l0.2-0.2l0.1-0.3l0.1-0.2v-0.3v-0.2v-0.3 M3.75,15.75v0.1l0.1,0.2l0.1,0.3l0.1,0.2l0.2,0.3l0.2,0.2
		l0.3,0.2l0.3,0.2 M5.05,17.45l0.3,0.2l0.4,0.1l0.4,0.2l0.4,0.1h0.4l0.5,0.1h0.4h0.5h0.4l0.5-0.1l0.4-0.1l0.4-0.1l0.4-0.1l0.3-0.2
		l0.4-0.1l0.3-0.2l0.2-0.3l0.2-0.2l0.2-0.2l0.1-0.3l0.1-0.2v-0.3 M3.75,15.35v0.2l0.1,0.3l0.1,0.2l0.1,0.3l0.2,0.2l0.2,0.3l0.3,0.2
		l0.3,0.2 M5.05,17.25l0.3,0.1l0.4,0.2l0.4,0.1l0.4,0.1l0.4,0.1l0.5,0.1h0.4h0.5l0.4-0.1h0.5l0.4-0.1l0.4-0.1l0.4-0.2l0.3-0.1
		l0.4-0.2l0.3-0.2l0.2-0.2l0.2-0.2l0.2-0.3l0.1-0.2l0.1-0.3v-0.2v-0.2 M8.95,5.55l-2-0.3 M10.95,5.85l-2-0.3 M5.45,6.15l-0.3,0.2
		 M6.95,5.25l-1.5,0.9 M6.95,5.25v-3 M4.05,15.45L4.05,15.45l0.2,0.2l0.2,0.2l0.3,0.3l0.3,0.1 M5.05,16.25l0.3,0.2l0.4,0.2l0.4,0.1
		l0.4,0.1l0.4,0.1h0.5l0.4,0.1h0.5l0.4-0.1h0.5l0.4-0.1l0.4-0.1l0.4-0.2l0.3-0.1l0.4-0.2l0.3-0.2l0.2-0.2l0.2-0.2l0.2-0.2
		 M10.95,5.85v-3 M10.55,6.15l-0.1-0.1l-0.3-0.2l-0.4-0.1l-0.4-0.1l-0.4-0.1 M8.95,5.55h-0.4h-0.4h-0.4h-0.5l-0.4,0.1l-0.4,0.1
		l-0.3,0.1l-0.4,0.1l-0.3,0.2 M5.45,6.15l-0.3,0.2 M10.95,2.85l1.1,2.4 M9.15,6.95l2.9-1.7 M9.15,6.95l-4.1-0.6 M5.05,6.35l-1.1-2.4
		 M6.95,2.25l-3,1.7 M10.95,2.85l-4-0.6 M0.25,11.55v0.3l0.1,0.4l0.1,0.3l0.2,0.4l0.2,0.3l0.2,0.3l0.3,0.3l0.4,0.3l0.4,0.3l0.4,0.3
		l0.4,0.2l0.5,0.2l0.5,0.2l0.5,0.2l0.6,0.2l0.6,0.1l0.6,0.1h0.6l0.6,0.1h0.6h0.6l0.6-0.1h0.6l0.6-0.1l0.6-0.1l0.5-0.2l0.6-0.2
		l0.5-0.2l0.4-0.2l0.5-0.2 M13.55,14.75l0.4-0.3l0.4-0.3l0.3-0.3l0.3-0.3l0.3-0.3l0.2-0.3l0.2-0.4l0.1-0.3l0.1-0.4v-0.3 M15.85,4.85
		v0.1 M0.25,4.95L0.25,4.95 M10.45,59.25l0.6-0.3 M5.05,58.95l0.5,0.3 M12.25,57.15L12.25,57.15 M3.75,57.15L3.75,57.15
		 M12.25,56.25v-0.3 M3.75,55.95v0.3 M12.25,55.05v-0.2 M3.75,54.85v0.2 M12.25,53.95v-0.3 M3.75,53.65v0.3 M12.25,52.75v-0.2
		 M3.75,52.55v0.2 M12.25,51.55v-0.2 M3.75,51.35v0.2 M12.25,50.45v-0.3 M3.75,50.15v0.3 M12.25,49.25v-0.2 M3.75,49.05v0.2
		 M12.25,48.15v-0.3 M3.75,47.85v0.3 M12.25,46.95v-0.2 M3.75,46.75v0.2 M12.25,45.85v-0.3 M3.75,45.55v0.3 M12.25,44.65v-0.2
		 M3.75,44.45v0.2 M12.25,43.45v-0.2 M3.75,43.25v0.2 M12.25,42.35v-0.3 M3.75,42.05v0.3 M12.25,41.15v-0.2 M3.75,40.95v0.2
		 M12.25,40.05v-0.3 M3.75,39.75v0.3 M12.25,38.85v-0.2 M3.75,38.65v0.2 M12.25,37.75v-0.3 M3.75,37.45v0.3 M12.25,36.55v-0.2
		 M3.75,36.35v0.2 M12.25,35.35v-0.2 M3.75,35.15v0.2 M12.25,34.25v-0.3 M3.75,33.95v0.3 M12.25,33.05v-0.2 M3.75,32.85v0.2
		 M12.25,31.95v-0.3 M3.75,31.65v0.3 M12.25,30.75v-0.2 M3.75,30.55v0.2 M12.25,29.65v-0.3 M3.75,29.35v0.3 M12.25,28.45v-0.2
		 M3.75,28.25v0.2 M12.25,27.25v-0.2 M3.75,27.05v0.2 M12.25,26.15v-0.3 M3.75,25.85v0.3 M12.25,24.95v-0.2 M3.75,24.75v0.2
		 M12.25,23.85v-0.3 M3.75,23.55v0.3 M12.25,22.65v-0.2 M3.75,22.45v0.2 M12.25,21.55v-0.3 M3.75,21.25v0.3 M12.25,20.35v-0.2
		 M3.75,20.15v0.2 M12.25,19.15v-0.2 M3.75,18.95v0.2 M12.25,18.05v-0.3 M3.75,17.75v0.3 M12.25,16.85v-0.2 M3.75,16.65v0.2
		 M12.25,15.75v-0.3 M3.75,15.45v0.3 M15.85,11.55v-6.6 M0.25,4.95v6.6 M15.85,4.85v-0.2l-0.1-0.3l-0.1-0.4l-0.1-0.3l-0.2-0.3
		l-0.2-0.4l-0.3-0.3l-0.3-0.3l-0.3-0.3l-0.4-0.2l-0.4-0.3l-0.4-0.2l-0.5-0.2l-0.5-0.2l-0.5-0.2l-0.5-0.1l-0.5-0.1l-0.6-0.1l-0.5-0.1
		l-0.6-0.1h-0.6h-0.6l-0.5,0.1h-0.6l-0.6,0.1l-0.5,0.1l-0.5,0.1l-0.6,0.2l-0.5,0.1l-0.4,0.2l-0.5,0.2l-0.4,0.3l-0.4,0.2l-0.4,0.3
		l-0.3,0.3l-0.3,0.3l-0.3,0.3l-0.2,0.3l-0.1,0.4l-0.2,0.3l-0.1,0.4v0.3v0.2"/>
</g>
</svg>
