<?xml version="1.0" encoding="utf-8"?>
<!-- Generator: Adobe Illustrator 19.0.0, SVG Export Plug-In . SVG Version: 6.00 Build 0)  -->
<svg version="1.0" id="Layer_1" xmlns="http://www.w3.org/2000/svg" xmlns:xlink="http://www.w3.org/1999/xlink" x="0px" y="0px"
	 width="16.1px" height="83.2px" viewBox="0 0 16.1 83.2" enable-background="new 0 0 16.1 83.2" xml:space="preserve">
<g>
	
		<path fill="none" stroke="#000000" stroke-width="0.25" stroke-linecap="round" stroke-linejoin="round" stroke-miterlimit="10" d="
		M15.85,4.95v0.2l-0.1,0.4l-0.1,0.4l-0.2,0.4l-0.3,0.4l-0.3,0.4l-0.4,0.3l-0.4,0.4l-0.5,0.3 M13.55,8.15l-0.6,0.3l-0.5,0.2l-0.6,0.2
		l-0.7,0.2l-0.7,0.2l-0.6,0.1l-0.8,0.1h-0.7h-0.7h-0.7l-0.7-0.1l-0.7-0.1l-0.7-0.2l-0.6-0.2l-0.6-0.2l-0.6-0.2l-0.5-0.3l-0.5-0.3
		l-0.5-0.4l-0.3-0.3l-0.4-0.4l-0.2-0.4l-0.2-0.4l-0.2-0.4v-0.4v-0.2 M13.25,7.65l0.5-0.3l0.4-0.4l0.3-0.3l0.3-0.4l0.3-0.4l0.2-0.3
		l0.1-0.4v-0.4v-0.5l-0.1-0.4l-0.1-0.3l-0.2-0.4l-0.3-0.4l-0.3-0.4l-0.4-0.3l-0.5-0.3l-0.5-0.3l-0.5-0.3l-0.6-0.2l-0.6-0.2l-0.7-0.1
		l-0.6-0.2h-0.7l-0.7-0.1h-0.7h-0.7l-0.7,0.1l-0.7,0.1l-0.6,0.1l-0.7,0.2l-0.6,0.2l-0.5,0.3l-0.5,0.2l-0.5,0.3l-0.4,0.4l-0.4,0.3
		l-0.3,0.4l-0.3,0.4l-0.1,0.3l-0.2,0.4v0.5v0.4l0.1,0.4l0.1,0.4l0.3,0.3l0.2,0.4l0.4,0.4l0.4,0.3l0.4,0.3l0.5,0.3l0.6,0.3l0.5,0.2
		l0.6,0.2l0.7,0.1l0.7,0.2h0.6l0.7,0.1h0.7h0.7l0.7-0.1l0.7-0.1l0.7-0.1l0.6-0.2l0.6-0.2l0.6-0.3L13.25,7.65"/>
	<path fill="none" stroke="#000000" stroke-width="0.5" stroke-linecap="round" stroke-linejoin="round" stroke-miterlimit="10" d="
		M5.55,82.35l0.1,0.1l0.4,0.2l0.4,0.1l0.4,0.1l0.5,0.1h0.5h0.5h0.4l0.5-0.1l0.4-0.1l0.4-0.2l0.4-0.2 M3.75,80.35v0.2l0.1,0.3
		l0.2,0.3l0.2,0.3l0.3,0.3l0.3,0.2l0.4,0.2l0.4,0.2l0.4,0.2l0.5,0.1l0.5,0.1h0.6h0.5h0.5l0.6-0.1l0.5-0.1l0.4-0.1l0.5-0.2l0.4-0.2
		 M11.05,82.05l0.3-0.2l0.3-0.3l0.3-0.2l0.2-0.3l0.1-0.3v-0.3v-0.1 M3.85,79.85l-0.1,0.2v0.3l0.1,0.3l0.1,0.3l0.2,0.3l0.2,0.3
		l0.3,0.2l0.4,0.3 M5.05,82.05l0.4,0.2l0.4,0.1l0.5,0.2l0.5,0.1l0.5,0.1h0.5h0.6l0.5-0.1l0.5-0.1l0.5-0.1l0.5-0.1l0.4-0.2l0.4-0.2
		l0.3-0.3l0.3-0.3l0.2-0.2l0.1-0.3l0.1-0.3v-0.3v-0.4h-0.1 M3.75,79.35v0.1l0.1,0.3l0.1,0.3l0.2,0.3l0.2,0.3l0.3,0.2l0.4,0.3
		 M5.05,81.15l0.4,0.2l0.4,0.1l0.5,0.2l0.5,0.1h0.5l0.5,0.1h0.6l0.5-0.1l0.5-0.1l0.5-0.1l0.5-0.1l0.4-0.2l0.4-0.3l0.3-0.2l0.3-0.3
		l0.2-0.2l0.1-0.3l0.1-0.3v-0.3 M3.85,78.65l-0.1,0.2v0.4l0.1,0.3l0.1,0.3l0.2,0.2l0.2,0.3l0.3,0.3l0.4,0.2 M5.05,80.85l0.4,0.2
		l0.4,0.2l0.5,0.1l0.5,0.1l0.5,0.1h0.5h0.6h0.5l0.5-0.1l0.5-0.1l0.5-0.2l0.4-0.2l0.4-0.2l0.3-0.2l0.3-0.3l0.2-0.3l0.1-0.3l0.1-0.3
		v-0.3v-0.3l-0.1-0.1 M3.75,78.25L3.75,78.25l0.1,0.3l0.1,0.4l0.2,0.2l0.2,0.3l0.3,0.3l0.4,0.2 M5.05,79.95l0.4,0.2l0.4,0.2l0.5,0.1
		l0.5,0.1l0.5,0.1h0.5h0.6h0.5l0.5-0.1l0.5-0.1l0.5-0.2l0.4-0.2l0.4-0.2l0.3-0.3l0.3-0.2l0.2-0.3l0.1-0.3l0.1-0.3v-0.2 M3.85,77.55
		l-0.1,0.2v0.3l0.1,0.3l0.1,0.3l0.2,0.3l0.2,0.3l0.3,0.2l0.4,0.3 M5.05,79.75l0.4,0.2l0.4,0.1l0.5,0.2l0.5,0.1h0.5l0.5,0.1h0.6
		l0.5-0.1l0.5-0.1l0.5-0.1l0.5-0.2l0.4-0.1l0.4-0.3l0.3-0.2l0.3-0.3l0.2-0.3l0.1-0.2l0.1-0.4v-0.3v-0.3h-0.1 M3.75,77.05v0.1
		l0.1,0.3l0.1,0.3l0.2,0.3l0.2,0.3l0.3,0.2l0.4,0.2 M5.05,78.75l0.4,0.2l0.4,0.2l0.5,0.2l0.5,0.1h0.5l0.5,0.1h0.6l0.5-0.1l0.5-0.1
		l0.5-0.1l0.5-0.2l0.4-0.2l0.4-0.2l0.3-0.2l0.3-0.3l0.2-0.3l0.1-0.3l0.1-0.3v-0.2 M3.85,76.35l-0.1,0.2v0.3l0.1,0.3l0.1,0.3l0.2,0.3
		l0.2,0.3l0.3,0.3l0.4,0.2 M5.05,78.55l0.4,0.2l0.4,0.2l0.5,0.1l0.5,0.1l0.5,0.1h0.5h0.6h0.5l0.5-0.1l0.5-0.2l0.5-0.1l0.4-0.2
		l0.4-0.2l0.3-0.3l0.3-0.2l0.2-0.3l0.1-0.3l0.1-0.3v-0.3v-0.3l-0.1-0.1 M3.75,75.95L3.75,75.95l0.1,0.3l0.1,0.3l0.2,0.3l0.2,0.3
		l0.3,0.3l0.4,0.2 M5.05,77.65l0.4,0.2l0.4,0.2l0.5,0.1l0.5,0.1l0.5,0.1h0.5h0.6l0.5-0.1h0.5l0.5-0.2l0.5-0.1l0.4-0.2l0.4-0.2
		l0.3-0.3l0.3-0.2l0.2-0.3l0.1-0.3l0.1-0.3v-0.2 M3.85,75.15l-0.1,0.3v0.3l0.1,0.3l0.1,0.3l0.2,0.3l0.2,0.3l0.3,0.2l0.4,0.2
		 M5.05,77.35l0.4,0.2l0.4,0.2l0.5,0.2l0.5,0.1h0.5l0.5,0.1l0.6-0.1h0.5l0.5-0.1l0.5-0.1l0.5-0.2l0.4-0.2l0.4-0.2l0.3-0.2l0.3-0.3
		l0.2-0.3l0.1-0.3l0.1-0.3v-0.3v-0.3l-0.1-0.1 M3.75,74.75v0.1l0.1,0.3l0.1,0.3l0.2,0.3l0.2,0.2l0.3,0.3l0.4,0.2 M5.05,76.45
		l0.4,0.2l0.4,0.2l0.5,0.1l0.5,0.2h0.5h0.5h0.6h0.5l0.5-0.1l0.5-0.1l0.5-0.2l0.4-0.2l0.4-0.2l0.3-0.2l0.3-0.3l0.2-0.3l0.1-0.3
		l0.1-0.3v-0.2 M3.85,74.05l-0.1,0.2v0.3l0.1,0.3l0.1,0.3l0.2,0.3l0.2,0.3l0.3,0.2l0.4,0.3 M5.05,76.25l0.4,0.2l0.4,0.2l0.5,0.1
		l0.5,0.1l0.5,0.1h0.5h0.6l0.5-0.1h0.5l0.5-0.2l0.5-0.1l0.4-0.2l0.4-0.2l0.3-0.3l0.3-0.2l0.2-0.3l0.1-0.3l0.1-0.3v-0.3v-0.3
		l-0.1-0.1 M3.75,73.55v0.1l0.1,0.3l0.1,0.3l0.2,0.3l0.2,0.3l0.3,0.2l0.4,0.3 M5.05,75.35l0.4,0.2l0.4,0.1l0.5,0.2l0.5,0.1l0.5,0.1
		h0.5h0.6l0.5-0.1l0.5-0.1l0.5-0.1l0.5-0.1l0.4-0.2l0.4-0.2l0.3-0.3l0.3-0.2l0.2-0.3l0.1-0.3l0.1-0.3v-0.3 M3.85,72.85l-0.1,0.3v0.3
		l0.1,0.3l0.1,0.3l0.2,0.3l0.2,0.2l0.3,0.3l0.4,0.2 M5.05,75.05l0.4,0.2l0.4,0.2l0.5,0.1l0.5,0.1l0.5,0.1h0.5h0.6h0.5l0.5-0.1
		l0.5-0.1l0.5-0.2l0.4-0.2l0.4-0.2l0.3-0.2l0.3-0.3l0.2-0.3l0.1-0.3l0.1-0.3v-0.3v-0.3l-0.1-0.1 M3.75,72.45v0.1l0.1,0.3l0.1,0.3
		l0.2,0.3l0.2,0.2l0.3,0.3l0.4,0.2 M5.05,74.15l0.4,0.2l0.4,0.2l0.5,0.1l0.5,0.1l0.5,0.1h0.5h0.6h0.5l0.5-0.1l0.5-0.1l0.5-0.2
		l0.4-0.2l0.4-0.2l0.3-0.2l0.3-0.3l0.2-0.3l0.1-0.3l0.1-0.3v-0.2 M3.85,71.75l-0.1,0.2v0.3l0.1,0.3l0.1,0.3l0.2,0.3l0.2,0.3l0.3,0.2
		l0.4,0.3 M5.05,73.95l0.4,0.2l0.4,0.1l0.5,0.2l0.5,0.1l0.5,0.1h0.5h0.6l0.5-0.1l0.5-0.1l0.5-0.1l0.5-0.1l0.4-0.2l0.4-0.2l0.3-0.3
		l0.3-0.3l0.2-0.2l0.1-0.3l0.1-0.3v-0.3v-0.4h-0.1 M3.75,71.25v0.1l0.1,0.3l0.1,0.3l0.2,0.3l0.2,0.3l0.3,0.2l0.4,0.3 M5.05,73.05
		l0.4,0.2l0.4,0.1l0.5,0.2l0.5,0.1h0.5l0.5,0.1h0.6l0.5-0.1l0.5-0.1l0.5-0.1l0.5-0.1l0.4-0.2l0.4-0.3l0.3-0.2l0.3-0.3l0.2-0.2
		l0.1-0.3l0.1-0.3v-0.3 M3.85,70.55l-0.1,0.2v0.4l0.1,0.3l0.1,0.3l0.2,0.2l0.2,0.3l0.3,0.3l0.4,0.2 M5.05,72.75l0.4,0.2l0.4,0.2
		l0.5,0.1l0.5,0.1l0.5,0.1h0.5h0.6h0.5l0.5-0.1l0.5-0.1l0.5-0.2l0.4-0.2l0.4-0.2l0.3-0.2l0.3-0.3l0.2-0.3l0.1-0.3l0.1-0.3v-0.3v-0.3
		l-0.1-0.1 M3.75,70.15L3.75,70.15l0.1,0.3l0.1,0.3l0.2,0.3l0.2,0.3l0.3,0.3l0.4,0.2 M5.05,71.85l0.4,0.2l0.4,0.2l0.5,0.1l0.5,0.1
		l0.5,0.1h0.5h0.6h0.5l0.5-0.1l0.5-0.1l0.5-0.2l0.4-0.2l0.4-0.2l0.3-0.3l0.3-0.2l0.2-0.3l0.1-0.3l0.1-0.3v-0.2 M3.85,69.45l-0.1,0.2
		v0.3l0.1,0.3l0.1,0.3l0.2,0.3l0.2,0.3l0.3,0.2l0.4,0.3 M5.05,71.65l0.4,0.2l0.4,0.1l0.5,0.2l0.5,0.1h0.5l0.5,0.1h0.6l0.5-0.1
		l0.5-0.1l0.5-0.1l0.5-0.2l0.4-0.1l0.4-0.3l0.3-0.2l0.3-0.3l0.2-0.3l0.1-0.2l0.1-0.4v-0.3v-0.3h-0.1 M3.75,68.95v0.1l0.1,0.3
		l0.1,0.3l0.2,0.3l0.2,0.3l0.3,0.2l0.4,0.2 M5.05,70.65l0.4,0.2l0.4,0.2l0.5,0.2l0.5,0.1h0.5l0.5,0.1h0.6l0.5-0.1l0.5-0.1l0.5-0.1
		l0.5-0.2l0.4-0.2l0.4-0.2l0.3-0.2l0.3-0.3l0.2-0.3l0.1-0.3l0.1-0.3v-0.2 M3.85,68.25l-0.1,0.2v0.3l0.1,0.3l0.1,0.3l0.2,0.3l0.2,0.3
		l0.3,0.3l0.4,0.2 M5.05,70.45l0.4,0.2l0.4,0.2l0.5,0.1l0.5,0.1l0.5,0.1h0.5h0.6h0.5l0.5-0.1l0.5-0.2l0.5-0.1l0.4-0.2l0.4-0.2
		l0.3-0.3l0.3-0.2l0.2-0.3l0.1-0.3l0.1-0.3v-0.3v-0.3l-0.1-0.1 M3.75,67.75v0.1l0.1,0.3l0.1,0.3l0.2,0.3l0.2,0.3l0.3,0.3l0.4,0.2
		 M5.05,69.55l0.4,0.2l0.4,0.2l0.5,0.1l0.5,0.1l0.5,0.1h0.5h0.6l0.5-0.1h0.5l0.5-0.2l0.5-0.1l0.4-0.2l0.4-0.2l0.3-0.3l0.3-0.2
		l0.2-0.3l0.1-0.3l0.1-0.3v-0.3 M3.85,67.05l-0.1,0.3v0.3l0.1,0.3l0.1,0.3l0.2,0.3l0.2,0.3l0.3,0.2l0.4,0.2 M5.05,69.25l0.4,0.2
		l0.4,0.2l0.5,0.2l0.5,0.1h0.5l0.5,0.1l0.6-0.1h0.5l0.5-0.1l0.5-0.1l0.5-0.2l0.4-0.2l0.4-0.2l0.3-0.2l0.3-0.3l0.2-0.3l0.1-0.3
		l0.1-0.3v-0.3v-0.3l-0.1-0.1 M3.75,66.65v0.1l0.1,0.3l0.1,0.3l0.2,0.3l0.2,0.2l0.3,0.3l0.4,0.2 M5.05,68.35l0.4,0.2l0.4,0.2
		l0.5,0.1l0.5,0.1l0.5,0.1h0.5h0.6h0.5l0.5-0.1l0.5-0.1l0.5-0.2l0.4-0.2l0.4-0.2l0.3-0.2l0.3-0.3l0.2-0.3l0.1-0.3l0.1-0.3v-0.2
		 M3.85,65.95l-0.1,0.2v0.3l0.1,0.3l0.1,0.3l0.2,0.3l0.2,0.3l0.3,0.2l0.4,0.3 M5.05,68.15l0.4,0.2l0.4,0.2l0.5,0.1l0.5,0.1l0.5,0.1
		h0.5h0.6l0.5-0.1h0.5l0.5-0.2l0.5-0.1l0.4-0.2l0.4-0.2l0.3-0.3l0.3-0.2l0.2-0.3l0.1-0.3l0.1-0.3v-0.3v-0.3l-0.1-0.1 M3.75,65.45
		v0.1l0.1,0.3l0.1,0.3l0.2,0.3l0.2,0.3l0.3,0.2l0.4,0.3 M5.05,67.25l0.4,0.2l0.4,0.1l0.5,0.2l0.5,0.1l0.5,0.1h0.5h0.6l0.5-0.1
		l0.5-0.1l0.5-0.1l0.5-0.1l0.4-0.2l0.4-0.2l0.3-0.3l0.3-0.3l0.2-0.2l0.1-0.3l0.1-0.3v-0.3 M3.85,64.75l-0.1,0.3v0.3l0.1,0.3l0.1,0.3
		l0.2,0.3l0.2,0.2l0.3,0.3l0.4,0.2 M5.05,66.95l0.4,0.2l0.4,0.2l0.5,0.1l0.5,0.1l0.5,0.1h0.5h0.6h0.5l0.5-0.1l0.5-0.1l0.5-0.2
		l0.4-0.2l0.4-0.2l0.3-0.2l0.3-0.3l0.2-0.3l0.1-0.3l0.1-0.3v-0.3v-0.3l-0.1-0.1 M3.75,64.35v0.1l0.1,0.3l0.1,0.3l0.2,0.3l0.2,0.2
		l0.3,0.3l0.4,0.2 M5.05,66.05l0.4,0.2l0.4,0.2l0.5,0.1l0.5,0.1l0.5,0.1h0.5h0.6h0.5l0.5-0.1l0.5-0.1l0.5-0.2l0.4-0.2l0.4-0.2
		l0.3-0.2l0.3-0.3l0.2-0.3l0.1-0.3l0.1-0.3v-0.2 M3.85,63.65l-0.1,0.2v0.3l0.1,0.3l0.1,0.3l0.2,0.3l0.2,0.3l0.3,0.2l0.4,0.3
		 M5.05,65.85l0.4,0.2l0.4,0.1l0.5,0.2l0.5,0.1l0.5,0.1h0.5h0.6l0.5-0.1l0.5-0.1l0.5-0.1l0.5-0.1l0.4-0.2l0.4-0.2l0.3-0.3l0.3-0.3
		l0.2-0.2l0.1-0.3l0.1-0.3v-0.3v-0.4h-0.1 M3.75,63.15v0.1l0.1,0.3l0.1,0.3l0.2,0.3l0.2,0.3l0.3,0.2l0.4,0.3 M5.05,64.95l0.4,0.2
		l0.4,0.1l0.5,0.2l0.5,0.1h0.5l0.5,0.1h0.6l0.5-0.1l0.5-0.1l0.5-0.1l0.5-0.1l0.4-0.2l0.4-0.3l0.3-0.2l0.3-0.3l0.2-0.2l0.1-0.3
		l0.1-0.3v-0.3 M3.85,62.45l-0.1,0.2v0.3l0.1,0.4l0.1,0.3l0.2,0.2l0.2,0.3l0.3,0.3l0.4,0.2 M5.05,64.65l0.4,0.2l0.4,0.2l0.5,0.1
		l0.5,0.1l0.5,0.1h0.5h0.6h0.5l0.5-0.1l0.5-0.1l0.5-0.2l0.4-0.2l0.4-0.2l0.3-0.2l0.3-0.3l0.2-0.3l0.1-0.3l0.1-0.3v-0.3v-0.3
		l-0.1-0.1 M3.75,62.05L3.75,62.05l0.1,0.3l0.1,0.3l0.2,0.3l0.2,0.3l0.3,0.3l0.4,0.2 M5.05,63.75l0.4,0.2l0.4,0.2l0.5,0.1l0.5,0.1
		l0.5,0.1h0.5h0.6h0.5l0.5-0.1l0.5-0.1l0.5-0.2l0.4-0.2l0.4-0.2l0.3-0.3l0.3-0.2l0.2-0.3l0.1-0.3l0.1-0.3v-0.2 M3.85,61.35l-0.1,0.2
		v0.3l0.1,0.3l0.1,0.3l0.2,0.3l0.2,0.3l0.3,0.2l0.4,0.3 M5.05,63.55l0.4,0.2l0.4,0.1l0.5,0.2l0.5,0.1h0.5l0.5,0.1h0.6l0.5-0.1
		l0.5-0.1l0.5-0.1l0.5-0.2l0.4-0.1l0.4-0.3l0.3-0.2l0.3-0.3l0.2-0.3l0.1-0.2l0.1-0.4v-0.3v-0.3h-0.1 M3.75,60.85v0.1l0.1,0.3
		l0.1,0.3l0.2,0.3l0.2,0.3l0.3,0.2l0.4,0.2 M5.05,62.55l0.4,0.2l0.4,0.2l0.5,0.2l0.5,0.1h0.5l0.5,0.1l0.6-0.1h0.5l0.5-0.1l0.5-0.1
		l0.5-0.2l0.4-0.2l0.4-0.2l0.3-0.2l0.3-0.3l0.2-0.3l0.1-0.3l0.1-0.3v-0.2 M3.85,60.15l-0.1,0.2v0.3l0.1,0.3l0.1,0.3l0.2,0.3l0.2,0.3
		l0.3,0.3l0.4,0.2 M5.05,62.35l0.4,0.2l0.4,0.2l0.5,0.1l0.5,0.1l0.5,0.1h0.5h0.6h0.5l0.5-0.1l0.5-0.2l0.5-0.1l0.4-0.2l0.4-0.2
		l0.3-0.3l0.3-0.2l0.2-0.3l0.1-0.3l0.1-0.3v-0.3v-0.3l-0.1-0.1 M3.75,59.65v0.1l0.1,0.3l0.1,0.3l0.2,0.3l0.2,0.3l0.3,0.3l0.4,0.2
		 M5.05,61.45l0.4,0.2l0.4,0.2l0.5,0.1l0.5,0.1l0.5,0.1h0.5h0.6l0.5-0.1h0.5l0.5-0.2l0.5-0.1l0.4-0.2l0.4-0.2l0.3-0.3l0.3-0.2
		l0.2-0.3l0.1-0.3l0.1-0.3v-0.3 M3.85,58.95l-0.1,0.3v0.3l0.1,0.3l0.1,0.3l0.2,0.3l0.2,0.3l0.3,0.2l0.4,0.2 M5.05,61.15l0.4,0.2
		l0.4,0.2l0.5,0.2l0.5,0.1h0.5l0.5,0.1l0.6-0.1h0.5l0.5-0.1l0.5-0.1l0.5-0.2l0.4-0.2l0.4-0.2l0.3-0.2l0.3-0.3l0.2-0.3l0.1-0.3
		l0.1-0.3v-0.3v-0.3l-0.1-0.1 M3.75,58.55v0.1l0.1,0.3l0.1,0.3l0.2,0.3l0.2,0.2l0.3,0.3l0.4,0.2 M5.05,60.25l0.4,0.2l0.4,0.2
		l0.5,0.1l0.5,0.1l0.5,0.1h0.5h0.6h0.5l0.5-0.1l0.5-0.1l0.5-0.2l0.4-0.2l0.4-0.2l0.3-0.2l0.3-0.3l0.2-0.3l0.1-0.3l0.1-0.3v-0.2
		 M3.85,57.85l-0.1,0.2v0.3l0.1,0.3l0.1,0.3l0.2,0.3l0.2,0.3l0.3,0.2l0.4,0.3 M5.05,60.05l0.4,0.2l0.4,0.2l0.5,0.1l0.5,0.1l0.5,0.1
		h0.5h0.6l0.5-0.1h0.5l0.5-0.2l0.5-0.1l0.4-0.2l0.4-0.2l0.3-0.3l0.3-0.2l0.2-0.3l0.1-0.3l0.1-0.3v-0.3v-0.3l-0.1-0.1 M3.75,57.35
		v0.1l0.1,0.3l0.1,0.3l0.2,0.3l0.2,0.3l0.3,0.2l0.4,0.3 M5.05,59.15l0.4,0.2l0.4,0.1l0.5,0.2l0.5,0.1l0.5,0.1h0.5h0.6l0.5-0.1
		l0.5-0.1l0.5-0.1l0.5-0.1l0.4-0.2l0.4-0.2l0.3-0.3l0.3-0.3l0.2-0.2l0.1-0.3l0.1-0.3v-0.3 M3.85,56.65l-0.1,0.3v0.3l0.1,0.3l0.1,0.3
		l0.2,0.3l0.2,0.2l0.3,0.3l0.4,0.2 M5.05,58.85l0.4,0.2l0.4,0.2l0.5,0.1l0.5,0.1l0.5,0.1h0.5h0.6h0.5l0.5-0.1l0.5-0.1l0.5-0.2
		l0.4-0.2l0.4-0.2l0.3-0.2l0.3-0.3l0.2-0.3l0.1-0.3l0.1-0.3v-0.3v-0.3l-0.1-0.1 M3.75,56.25v0.1l0.1,0.3l0.1,0.3l0.2,0.3l0.2,0.2
		l0.3,0.3l0.4,0.2 M5.05,57.95l0.4,0.2l0.4,0.2l0.5,0.1l0.5,0.1l0.5,0.1h0.5h0.6h0.5l0.5-0.1l0.5-0.1l0.5-0.2l0.4-0.2l0.4-0.2
		l0.3-0.2l0.3-0.3l0.2-0.3l0.1-0.3l0.1-0.3v-0.2 M3.85,55.55l-0.1,0.2v0.3l0.1,0.3l0.1,0.3l0.2,0.3l0.2,0.3l0.3,0.2l0.4,0.3
		 M5.05,57.75l0.4,0.2l0.4,0.1l0.5,0.2l0.5,0.1l0.5,0.1h0.5h0.6l0.5-0.1l0.5-0.1l0.5-0.1l0.5-0.1l0.4-0.2l0.4-0.2l0.3-0.3l0.3-0.3
		l0.2-0.2l0.1-0.3l0.1-0.3v-0.3v-0.4h-0.1 M3.75,55.05v0.1l0.1,0.3l0.1,0.3l0.2,0.3l0.2,0.3l0.3,0.2l0.4,0.3 M5.05,56.85l0.4,0.2
		l0.4,0.1l0.5,0.2l0.5,0.1h0.5l0.5,0.1h0.6l0.5-0.1l0.5-0.1l0.5-0.1l0.5-0.2l0.4-0.1l0.4-0.3l0.3-0.2l0.3-0.3l0.2-0.2l0.1-0.3
		l0.1-0.3v-0.3 M3.85,54.35l-0.1,0.2v0.3l0.1,0.4l0.1,0.3l0.2,0.2l0.2,0.3l0.3,0.3l0.4,0.2 M5.05,56.55l0.4,0.2l0.4,0.2l0.5,0.1
		l0.5,0.1l0.5,0.1h0.5h0.6h0.5l0.5-0.1l0.5-0.1l0.5-0.2l0.4-0.2l0.4-0.2l0.3-0.2l0.3-0.3l0.2-0.3l0.1-0.3l0.1-0.3v-0.3v-0.3
		l-0.1-0.1 M3.75,53.95L3.75,53.95l0.1,0.3l0.1,0.3l0.2,0.3l0.2,0.3l0.3,0.3l0.4,0.2 M5.05,55.65l0.4,0.2l0.4,0.2l0.5,0.1l0.5,0.1
		l0.5,0.1h0.5h0.6h0.5l0.5-0.1l0.5-0.2l0.5-0.1l0.4-0.2l0.4-0.2l0.3-0.3l0.3-0.2l0.2-0.3l0.1-0.3l0.1-0.3v-0.2 M3.85,53.25l-0.1,0.2
		v0.3l0.1,0.3l0.1,0.3l0.2,0.3l0.2,0.3l0.3,0.2l0.4,0.2 M5.05,55.35l0.4,0.3l0.4,0.1l0.5,0.2l0.5,0.1h0.5l0.5,0.1h0.6l0.5-0.1
		l0.5-0.1l0.5-0.1l0.5-0.2l0.4-0.1l0.4-0.3l0.3-0.2l0.3-0.3l0.2-0.3l0.1-0.3l0.1-0.3v-0.3v-0.3h-0.1 M3.75,52.75v0.1l0.1,0.3
		l0.1,0.3l0.2,0.3l0.2,0.3l0.3,0.2l0.4,0.2 M5.05,54.45l0.4,0.2l0.4,0.2l0.5,0.2l0.5,0.1h0.5l0.5,0.1l0.6-0.1h0.5l0.5-0.1l0.5-0.1
		l0.5-0.2l0.4-0.2l0.4-0.2l0.3-0.2l0.3-0.3l0.2-0.3l0.1-0.3l0.1-0.3v-0.2 M3.85,52.05l-0.1,0.2v0.3l0.1,0.3l0.1,0.3l0.2,0.3l0.2,0.3
		l0.3,0.3l0.4,0.2 M5.05,54.25l0.4,0.2l0.4,0.2l0.5,0.1l0.5,0.1l0.5,0.1h0.5h0.6h0.5l0.5-0.1l0.5-0.2l0.5-0.1l0.4-0.2l0.4-0.2
		l0.3-0.3l0.3-0.2l0.2-0.3l0.1-0.3l0.1-0.3v-0.3v-0.3l-0.1-0.1 M3.75,51.55v0.1l0.1,0.3l0.1,0.3l0.2,0.3l0.2,0.3l0.3,0.3l0.4,0.2
		 M5.05,53.35l0.4,0.2l0.4,0.2l0.5,0.1l0.5,0.1l0.5,0.1h0.5h0.6l0.5-0.1h0.5l0.5-0.2l0.5-0.1l0.4-0.2l0.4-0.2l0.3-0.3l0.3-0.2
		l0.2-0.3l0.1-0.3l0.1-0.3v-0.3 M3.85,50.85l-0.1,0.3v0.3l0.1,0.3l0.1,0.3l0.2,0.3l0.2,0.2l0.3,0.3l0.4,0.2 M5.05,53.05l0.4,0.2
		l0.4,0.2l0.5,0.2l0.5,0.1h0.5l0.5,0.1l0.6-0.1h0.5l0.5-0.1l0.5-0.1l0.5-0.2l0.4-0.2l0.4-0.2l0.3-0.2l0.3-0.3l0.2-0.3l0.1-0.3
		l0.1-0.3v-0.3v-0.3l-0.1-0.1 M3.75,50.45v0.1l0.1,0.3l0.1,0.3l0.2,0.3l0.2,0.2l0.3,0.3l0.4,0.2 M5.05,52.15l0.4,0.2l0.4,0.2
		l0.5,0.1l0.5,0.1l0.5,0.1h0.5h0.6h0.5l0.5-0.1l0.5-0.1l0.5-0.2l0.4-0.2l0.4-0.2l0.3-0.2l0.3-0.3l0.2-0.3l0.1-0.3l0.1-0.3v-0.2
		 M3.85,49.75l-0.1,0.2v0.3l0.1,0.3l0.1,0.3l0.2,0.3l0.2,0.3l0.3,0.2l0.4,0.3 M5.05,51.95l0.4,0.2l0.4,0.2l0.5,0.1l0.5,0.1l0.5,0.1
		h0.5h0.6l0.5-0.1h0.5l0.5-0.2l0.5-0.1l0.4-0.2l0.4-0.2l0.3-0.3l0.3-0.2l0.2-0.3l0.1-0.3l0.1-0.3v-0.3v-0.3l-0.1-0.1 M3.75,49.25
		v0.1l0.1,0.3l0.1,0.3l0.2,0.3l0.2,0.3l0.3,0.2l0.4,0.3 M5.05,51.05l0.4,0.2l0.4,0.1l0.5,0.2l0.5,0.1l0.5,0.1h0.5h0.6l0.5-0.1
		l0.5-0.1l0.5-0.1l0.5-0.1l0.4-0.2l0.4-0.2l0.3-0.3l0.3-0.3l0.2-0.2l0.1-0.3l0.1-0.3v-0.3 M3.85,48.55l-0.1,0.3v0.3l0.1,0.3l0.1,0.3
		l0.2,0.3l0.2,0.2l0.3,0.3l0.4,0.2 M5.05,50.75l0.4,0.2l0.4,0.2l0.5,0.1l0.5,0.1l0.5,0.1h0.5h0.6h0.5l0.5-0.1l0.5-0.1l0.5-0.2
		l0.4-0.2l0.4-0.2l0.3-0.2l0.3-0.3l0.2-0.3l0.1-0.3l0.1-0.3v-0.3v-0.3l-0.1-0.1 M3.75,48.15v0.1l0.1,0.3l0.1,0.3l0.2,0.3l0.2,0.2
		l0.3,0.3l0.4,0.2 M5.05,49.85l0.4,0.2l0.4,0.2l0.5,0.1l0.5,0.1l0.5,0.1h0.5h0.6h0.5l0.5-0.1l0.5-0.1l0.5-0.2l0.4-0.2l0.4-0.2
		l0.3-0.2l0.3-0.3l0.2-0.3l0.1-0.3l0.1-0.3v-0.2 M3.85,47.45l-0.1,0.2v0.3l0.1,0.3l0.1,0.3l0.2,0.3l0.2,0.3l0.3,0.2l0.4,0.3
		 M5.05,49.65l0.4,0.2l0.4,0.1l0.5,0.2l0.5,0.1l0.5,0.1h0.5h0.6l0.5-0.1l0.5-0.1l0.5-0.1l0.5-0.1l0.4-0.2l0.4-0.2l0.3-0.3l0.3-0.3
		l0.2-0.2l0.1-0.3l0.1-0.3v-0.3v-0.4h-0.1 M3.75,46.95v0.1l0.1,0.3l0.1,0.3l0.2,0.3l0.2,0.3l0.3,0.2l0.4,0.3 M5.05,48.75l0.4,0.2
		l0.4,0.1l0.5,0.2l0.5,0.1h0.5l0.5,0.1h0.6l0.5-0.1l0.5-0.1l0.5-0.1l0.5-0.2l0.4-0.1l0.4-0.3l0.3-0.2l0.3-0.3l0.2-0.3l0.1-0.2
		l0.1-0.4v-0.2 M3.85,46.25l-0.1,0.2v0.3l0.1,0.4l0.1,0.3l0.2,0.2l0.2,0.3l0.3,0.3l0.4,0.2 M5.05,48.45l0.4,0.2l0.4,0.2l0.5,0.1
		l0.5,0.1l0.5,0.1h0.5h0.6h0.5l0.5-0.1l0.5-0.1l0.5-0.2l0.4-0.2l0.4-0.2l0.3-0.3l0.3-0.2l0.2-0.3l0.1-0.3l0.1-0.3v-0.3v-0.3
		l-0.1-0.1 M3.75,45.85L3.75,45.85l0.1,0.3l0.1,0.3l0.2,0.3l0.2,0.3l0.3,0.3l0.4,0.2 M5.05,47.55l0.4,0.2l0.4,0.2l0.5,0.1l0.5,0.1
		l0.5,0.1h0.5h0.6h0.5l0.5-0.1l0.5-0.2l0.5-0.1l0.4-0.2l0.4-0.2l0.3-0.3l0.3-0.2l0.2-0.3l0.1-0.3l0.1-0.3v-0.2 M3.85,45.15l-0.1,0.2
		v0.3l0.1,0.3l0.1,0.3l0.2,0.3l0.2,0.3l0.3,0.2l0.4,0.2 M5.05,47.25l0.4,0.3l0.4,0.1l0.5,0.2l0.5,0.1h0.5l0.5,0.1h0.6l0.5-0.1
		l0.5-0.1l0.5-0.1l0.5-0.2l0.4-0.1l0.4-0.3l0.3-0.2l0.3-0.3l0.2-0.3l0.1-0.3l0.1-0.3v-0.3v-0.3h-0.1 M3.75,44.65v0.1l0.1,0.3
		l0.1,0.3l0.2,0.3l0.2,0.3l0.3,0.2l0.4,0.2 M5.05,46.35l0.4,0.2l0.4,0.2l0.5,0.2l0.5,0.1h0.5l0.5,0.1l0.6-0.1h0.5l0.5-0.1l0.5-0.1
		l0.5-0.2l0.4-0.2l0.4-0.2l0.3-0.2l0.3-0.3l0.2-0.3l0.1-0.3l0.1-0.3v-0.2 M3.85,43.95l-0.1,0.2v0.3l0.1,0.3l0.1,0.3l0.2,0.3l0.2,0.3
		l0.3,0.3l0.4,0.2 M5.05,46.15l0.4,0.2l0.4,0.2l0.5,0.1l0.5,0.1l0.5,0.1h0.5h0.6h0.5l0.5-0.1l0.5-0.2l0.5-0.1l0.4-0.2l0.4-0.2
		l0.3-0.3l0.3-0.2l0.2-0.3l0.1-0.3l0.1-0.3v-0.3v-0.3l-0.1-0.1 M3.75,43.45v0.1l0.1,0.3l0.1,0.3l0.2,0.3l0.2,0.3l0.3,0.3l0.4,0.2
		 M5.05,45.25l0.4,0.2l0.4,0.2l0.5,0.1l0.5,0.1l0.5,0.1h0.5h0.6l0.5-0.1h0.5l0.5-0.2l0.5-0.1l0.4-0.2l0.4-0.2l0.3-0.3l0.3-0.2
		l0.2-0.3l0.1-0.3l0.1-0.3v-0.3 M3.85,42.75l-0.1,0.3v0.3l0.1,0.3l0.1,0.3l0.2,0.3l0.2,0.2l0.3,0.3l0.4,0.2 M5.05,44.95l0.4,0.2
		l0.4,0.2l0.5,0.2l0.5,0.1h0.5l0.5,0.1l0.6-0.1h0.5l0.5-0.1l0.5-0.1l0.5-0.2l0.4-0.2l0.4-0.2l0.3-0.2l0.3-0.3l0.2-0.3l0.1-0.3
		l0.1-0.3v-0.3v-0.3l-0.1-0.1 M3.75,42.35v0.1l0.1,0.3l0.1,0.3l0.2,0.3l0.2,0.2l0.3,0.3l0.4,0.2 M5.05,44.05l0.4,0.2l0.4,0.2
		l0.5,0.1l0.5,0.1l0.5,0.1h0.5h0.6h0.5l0.5-0.1l0.5-0.1l0.5-0.2l0.4-0.2l0.4-0.2l0.3-0.2l0.3-0.3l0.2-0.3l0.1-0.3l0.1-0.3v-0.2
		 M3.85,41.65l-0.1,0.2v0.3l0.1,0.3l0.1,0.3l0.2,0.3l0.2,0.3l0.3,0.2l0.4,0.3 M5.05,43.85l0.4,0.2l0.4,0.2l0.5,0.1l0.5,0.1l0.5,0.1
		h0.5h0.6l0.5-0.1h0.5l0.5-0.2l0.5-0.1l0.4-0.2l0.4-0.2l0.3-0.3l0.3-0.2l0.2-0.3l0.1-0.3l0.1-0.3v-0.3v-0.3l-0.1-0.1 M3.75,41.15
		v0.1l0.1,0.3l0.1,0.3l0.2,0.3l0.2,0.3l0.3,0.2l0.4,0.3 M5.05,42.95l0.4,0.2l0.4,0.1l0.5,0.2l0.5,0.1l0.5,0.1h0.5h0.6l0.5-0.1
		l0.5-0.1l0.5-0.1l0.5-0.1l0.4-0.2l0.4-0.2l0.3-0.3l0.3-0.3l0.2-0.2l0.1-0.3l0.1-0.3v-0.3 M3.85,40.45l-0.1,0.3v0.3l0.1,0.3l0.1,0.3
		l0.2,0.3l0.2,0.2l0.3,0.3l0.4,0.2 M5.05,42.65l0.4,0.2l0.4,0.2l0.5,0.1l0.5,0.1l0.5,0.1h0.5h0.6h0.5l0.5-0.1l0.5-0.1l0.5-0.2
		l0.4-0.2l0.4-0.2l0.3-0.2l0.3-0.3l0.2-0.3l0.1-0.3l0.1-0.3v-0.3v-0.3l-0.1-0.1 M3.75,40.05v0.1l0.1,0.3l0.1,0.3l0.2,0.2l0.2,0.3
		l0.3,0.3l0.4,0.2 M5.05,41.75l0.4,0.2l0.4,0.2l0.5,0.1l0.5,0.1l0.5,0.1h0.5h0.6h0.5l0.5-0.1l0.5-0.1l0.5-0.2l0.4-0.2l0.4-0.2
		l0.3-0.2l0.3-0.3l0.2-0.3l0.1-0.3l0.1-0.3v-0.2 M3.85,39.35l-0.1,0.2v0.3l0.1,0.3l0.1,0.3l0.2,0.3l0.2,0.3l0.3,0.2l0.4,0.3
		 M5.05,41.55l0.4,0.2l0.4,0.1l0.5,0.2l0.5,0.1l0.5,0.1h0.5h0.6l0.5-0.1l0.5-0.1l0.5-0.1l0.5-0.1l0.4-0.2l0.4-0.3l0.3-0.2l0.3-0.3
		l0.2-0.2l0.1-0.3l0.1-0.3v-0.4v-0.3h-0.1 M8.95,5.55l-2-0.3 M10.95,5.85l-2-0.3 M5.45,6.15l-0.3,0.2 M6.95,5.25l-1.5,0.9
		 M6.95,5.25v-3 M3.75,38.85v0.1l0.1,0.3l0.1,0.3l0.2,0.3l0.2,0.3l0.3,0.2l0.4,0.3 M5.05,40.65l0.4,0.2l0.4,0.1l0.5,0.2l0.5,0.1h0.5
		l0.5,0.1h0.6l0.5-0.1l0.5-0.1l0.5-0.1l0.5-0.2l0.4-0.1l0.4-0.3l0.3-0.2l0.3-0.3l0.2-0.3l0.1-0.2l0.1-0.4v-0.2 M10.95,5.85v-3
		 M10.55,6.15l-0.3-0.2l-0.4-0.2l-0.4-0.1l-0.5-0.1 M8.95,5.55h-0.5h-0.4h-0.5h-0.5l-0.4,0.1l-0.4,0.1l-0.4,0.2l-0.4,0.2 M5.45,6.15
		l-0.3,0.2 M10.95,2.85l1.1,2.4 M9.15,6.95l2.9-1.7 M9.15,6.95l-4.1-0.6 M5.05,6.35l-1.1-2.4 M6.95,2.25l-3,1.7 M10.95,2.85l-4-0.6
		 M0.25,11.55v0.2v0.4l0.2,0.4l0.2,0.4l0.2,0.4l0.4,0.4l0.3,0.3l0.5,0.4l0.5,0.3l0.5,0.3l0.6,0.2l0.6,0.2l0.6,0.2l0.7,0.2l0.7,0.1
		l0.7,0.1h0.7h0.7h0.7l0.8-0.1l0.6-0.1l0.7-0.2l0.7-0.2l0.6-0.2l0.5-0.2l0.6-0.3 M13.55,14.75l0.5-0.3l0.4-0.4l0.4-0.3l0.3-0.4
		l0.3-0.4l0.2-0.4l0.1-0.4l0.1-0.4v-0.2 M0.25,4.95L0.25,4.95 M10.45,82.35l0.6-0.3 M5.05,82.05l0.5,0.3 M12.25,80.35v-0.1
		 M3.75,80.25v0.1 M12.25,79.35v-0.2 M3.75,79.15v0.2 M12.25,78.25v-0.3 M3.75,77.95v0.3 M12.25,77.05v-0.2 M3.75,76.85v0.2
		 M12.25,75.95v-0.3 M3.75,75.65v0.3 M12.25,74.75v-0.3 M3.75,74.45v0.3 M12.25,73.55v-0.2 M3.75,73.35v0.2 M12.25,72.45v-0.3
		 M3.75,72.15v0.3 M12.25,71.25v-0.2 M3.75,71.05v0.2 M12.25,70.15v-0.3 M3.75,69.85v0.3 M12.25,68.95v-0.2 M3.75,68.75v0.2
		 M12.25,67.75v-0.2 M3.75,67.55v0.2 M12.25,66.65v-0.3 M3.75,66.35v0.3 M12.25,65.45v-0.2 M3.75,65.25v0.2 M12.25,64.35v-0.3
		 M3.75,64.05v0.3 M12.25,63.15v-0.2 M3.75,62.95v0.2 M12.25,62.05v-0.3 M3.75,61.75v0.3 M12.25,60.85v-0.2 M3.75,60.65v0.2
		 M12.25,59.65v-0.2 M3.75,59.45v0.2 M12.25,58.55v-0.3 M3.75,58.25v0.3 M12.25,57.35v-0.2 M3.75,57.15v0.2 M12.25,56.25v-0.3
		 M3.75,55.95v0.3 M12.25,55.05v-0.2 M3.75,54.85v0.2 M12.25,53.95v-0.3 M3.75,53.65v0.3 M12.25,52.75v-0.2 M3.75,52.55v0.2
		 M12.25,51.55v-0.2 M3.75,51.35v0.2 M12.25,50.45v-0.3 M3.75,50.15v0.3 M12.25,49.25v-0.2 M3.75,49.05v0.2 M12.25,48.15v-0.3
		 M3.75,47.85v0.3 M12.25,46.95v-0.2 M3.75,46.75v0.2 M12.25,45.85v-0.3 M3.75,45.55v0.3 M12.25,44.65v-0.2 M3.75,44.45v0.2
		 M12.25,43.45v-0.2 M3.75,43.25v0.2 M12.25,42.35v-0.3 M3.75,42.05v0.3 M12.25,41.15v-0.2 M3.75,40.95v0.2 M12.25,40.05v-0.3
		 M3.75,39.75v0.3 M12.25,38.85v-23.5 M3.75,15.35v23.5 M15.85,11.55v-6.6 M0.25,4.95v6.6 M15.85,4.95v-0.2l-0.1-0.4l-0.1-0.4
		l-0.2-0.4l-0.2-0.4l-0.3-0.4l-0.3-0.3l-0.4-0.4l-0.5-0.3l-0.5-0.3l-0.5-0.2l-0.5-0.3l-0.6-0.2l-0.7-0.1l-0.6-0.2l-0.6-0.1h-0.7
		l-0.7-0.1h-0.7l-0.6,0.1h-0.7l-0.7,0.1l-0.6,0.2l-0.6,0.1l-0.6,0.2l-0.6,0.3l-0.5,0.2l-0.5,0.3l-0.4,0.3l-0.4,0.4l-0.4,0.3
		l-0.3,0.4l-0.2,0.4l-0.2,0.4l-0.1,0.4v0.5v0.1"/>
</g>
</svg>
