<?xml version="1.0" encoding="utf-8"?>
<!-- Generator: Adobe Illustrator 19.0.0, SVG Export Plug-In . SVG Version: 6.00 Build 0)  -->
<svg version="1.0" id="Layer_1" xmlns="http://www.w3.org/2000/svg" xmlns:xlink="http://www.w3.org/1999/xlink" x="0px" y="0px"
	 width="20.4px" height="41px" viewBox="0 0 20.4 41" enable-background="new 0 0 20.4 41" xml:space="preserve">
<g>
	
		<path fill="none" stroke="#000000" stroke-width="0.25" stroke-linecap="round" stroke-linejoin="round" stroke-miterlimit="10" d="
		M20.15,6.25v0.1l-0.1,0.3v0.4l-0.1,0.3l-0.2,0.3l-0.1,0.3l-0.2,0.3l-0.3,0.3l-0.2,0.3l-0.3,0.3l-0.3,0.3l-0.4,0.3l-0.3,0.2
		l-0.4,0.3 M17.25,10.25l-0.5,0.2l-0.4,0.2l-0.5,0.2l-0.4,0.2l-0.5,0.2l-0.6,0.1l-0.5,0.1l-0.5,0.2l-0.6,0.1h-0.5l-0.6,0.1h-0.6
		l-0.6,0.1h-0.5l-0.6-0.1h-0.6l-0.6-0.1h-0.5l-0.6-0.1l-0.5-0.2l-0.5-0.1l-0.6-0.1l-0.5-0.2l-0.4-0.2l-0.5-0.2l-0.4-0.2l-0.5-0.2
		l-0.4-0.3l-0.3-0.2l-0.4-0.3l-0.3-0.3l-0.3-0.3l-0.2-0.3l-0.3-0.3l-0.2-0.3l-0.1-0.3l-0.2-0.3l-0.1-0.3v-0.4l-0.1-0.3v-0.2
		 M16.85,9.55l0.3-0.3l0.4-0.2l0.3-0.3l0.3-0.2l0.3-0.3l0.3-0.3l0.2-0.3l0.2-0.3l0.1-0.3l0.1-0.3l0.1-0.4l0.1-0.3v-0.3v-0.3
		l-0.1-0.3v-0.4l-0.2-0.3l-0.1-0.3l-0.2-0.3l-0.2-0.3l-0.2-0.3l-0.3-0.3l-0.3-0.2l-0.3-0.3l-0.4-0.3l-0.3-0.2l-0.4-0.2l-0.5-0.2
		l-0.4-0.2l-0.5-0.2l-0.5-0.2l-0.5-0.1l-0.5-0.1l-0.5-0.2l-0.5-0.1h-0.6l-0.5-0.1h-0.6h-0.5h-0.6h-0.6h-0.5l-0.6,0.1l-0.5,0.1
		l-0.5,0.1l-0.6,0.1l-0.5,0.1l-0.5,0.2l-0.4,0.1l-0.5,0.2l-0.4,0.2l-0.5,0.2l-0.4,0.3l-0.3,0.2l-0.4,0.3l-0.3,0.2l-0.3,0.3l-0.3,0.3
		l-0.2,0.3l-0.2,0.3l-0.2,0.3l-0.1,0.3l-0.1,0.3l-0.1,0.3v0.4v0.3v0.3l0.1,0.3l0.1,0.3l0.1,0.4l0.2,0.3l0.2,0.3l0.2,0.3l0.2,0.3
		l0.3,0.2l0.3,0.3l0.4,0.3l0.3,0.2l0.4,0.2l0.4,0.3l0.5,0.2l0.4,0.1l0.5,0.2l0.5,0.2l0.5,0.1l0.5,0.1l0.6,0.1l0.5,0.1l0.5,0.1h0.6
		l0.6,0.1h0.5h0.6l0.5-0.1h0.6l0.5-0.1l0.6-0.1l0.5-0.1l0.5-0.1l0.5-0.2l0.5-0.1l0.5-0.2l0.4-0.2l0.5-0.2L16.85,9.55"/>
	<path fill="none" stroke="#000000" stroke-width="0.5" stroke-linecap="round" stroke-linejoin="round" stroke-miterlimit="10" d="
		M6.95,39.95l0.1,0.1l0.3,0.1l0.3,0.2l0.3,0.1l0.4,0.1l0.4,0.1h0.3l0.4,0.1h0.4h0.4h0.4h0.4l0.4-0.1l0.3-0.1l0.4-0.1l0.3-0.1
		l0.4-0.1l0.3-0.1l0.3-0.2 M15.75,36.65L15.75,36.65l0.1,0.3v0.2v0.3v0.2l-0.1,0.3l-0.1,0.2l-0.2,0.2l-0.1,0.3l-0.2,0.2l-0.3,0.2
		l-0.2,0.2l-0.3,0.2l-0.3,0.2l-0.3,0.1l-0.4,0.2l-0.4,0.1l-0.3,0.1l-0.4,0.1l-0.4,0.1l-0.5,0.1h-0.4h-0.4h-0.5h-0.4h-0.4l-0.4-0.1
		h-0.5l-0.4-0.1l-0.4-0.1l-0.3-0.2l-0.4-0.1l-0.3-0.1l-0.4-0.2l-0.3-0.2l-0.2-0.2l-0.3-0.2l-0.2-0.2l-0.2-0.2l-0.1-0.3l-0.1-0.2
		l-0.1-0.3l-0.1-0.2v-0.3v-0.2v-0.3l0.1-0.1 M4.55,35.95v0.1v0.2l0.1,0.3l0.1,0.2l0.1,0.3l0.1,0.2l0.2,0.2l0.2,0.2l0.3,0.2l0.2,0.2
		l0.3,0.2 M6.15,38.25l0.4,0.2l0.3,0.2l0.4,0.1l0.3,0.1l0.4,0.1l0.4,0.1l0.4,0.1h0.5l0.4,0.1h0.4h0.5h0.4l0.4-0.1l0.5-0.1h0.4
		l0.4-0.1l0.3-0.1l0.4-0.2l0.4-0.1l0.3-0.2l0.3-0.2l0.3-0.2l0.2-0.2l0.3-0.2l0.2-0.2l0.1-0.2l0.2-0.3l0.1-0.2l0.1-0.3v-0.2v-0.2
		 M4.65,35.05l-0.1,0.2v0.3v0.2v0.3l0.1,0.2l0.1,0.3l0.1,0.2l0.1,0.2l0.2,0.3l0.2,0.2l0.3,0.2l0.2,0.2l0.3,0.2 M6.15,38.05l0.4,0.1
		l0.3,0.2l0.4,0.1l0.3,0.2l0.4,0.1l0.4,0.1h0.4l0.5,0.1h0.4h0.4h0.5h0.4h0.4l0.5-0.1l0.4-0.1l0.4-0.1l0.3-0.1l0.4-0.1l0.4-0.2
		l0.3-0.1l0.3-0.2l0.3-0.2l0.2-0.2l0.3-0.2l0.2-0.3l0.1-0.2l0.2-0.2l0.1-0.3l0.1-0.2v-0.3v-0.2v-0.3l-0.1-0.2v-0.1 M4.55,34.45
		L4.55,34.45v0.3l0.1,0.2l0.1,0.3l0.1,0.2l0.1,0.3l0.2,0.2l0.2,0.2l0.3,0.2l0.2,0.2l0.3,0.2 M6.15,36.75l0.4,0.2l0.3,0.1l0.4,0.2
		l0.3,0.1l0.4,0.1l0.4,0.1l0.4,0.1h0.5h0.4l0.4,0.1h0.5l0.4-0.1h0.4l0.5-0.1l0.4-0.1l0.4-0.1l0.3-0.1l0.4-0.1l0.4-0.1l0.3-0.2
		l0.3-0.2l0.3-0.2l0.2-0.2l0.3-0.2l0.2-0.2l0.1-0.2l0.2-0.3l0.1-0.2l0.1-0.3v-0.2v-0.2 M4.65,33.55l-0.1,0.2v0.2v0.3v0.2l0.1,0.3
		l0.1,0.2l0.1,0.3l0.1,0.2l0.2,0.2l0.2,0.3l0.3,0.2l0.2,0.2l0.3,0.1 M6.15,36.45l0.4,0.2l0.3,0.2l0.4,0.1l0.3,0.1l0.4,0.1l0.4,0.1
		l0.4,0.1l0.5,0.1h0.4h0.4h0.5h0.4l0.4-0.1h0.5l0.4-0.1l0.4-0.1l0.3-0.1l0.4-0.2l0.4-0.1l0.3-0.2l0.3-0.1l0.3-0.2l0.2-0.2l0.3-0.3
		l0.2-0.2l0.1-0.2l0.2-0.2l0.1-0.3l0.1-0.2v-0.3v-0.2v-0.3l-0.1-0.2v-0.1 M4.55,32.95L4.55,32.95v0.3l0.1,0.2l0.1,0.3l0.1,0.2
		l0.1,0.2l0.2,0.3l0.2,0.2l0.3,0.2l0.2,0.2l0.3,0.2 M6.15,35.25l0.4,0.1l0.3,0.2l0.4,0.1l0.3,0.2l0.4,0.1l0.4,0.1h0.4l0.5,0.1h0.4
		h0.4h0.5h0.4h0.4l0.5-0.1l0.4-0.1l0.4-0.1l0.3-0.1l0.4-0.1l0.4-0.2l0.3-0.1l0.3-0.2l0.3-0.2l0.2-0.2l0.3-0.2l0.2-0.2l0.1-0.3
		l0.2-0.2l0.1-0.3l0.1-0.2v-0.2v-0.2 M4.65,32.05l-0.1,0.2v0.2v0.3v0.2l0.1,0.3l0.1,0.2l0.1,0.3l0.1,0.2l0.2,0.2l0.2,0.2l0.3,0.2
		l0.2,0.2l0.3,0.2 M6.15,34.95l0.4,0.2l0.3,0.1l0.4,0.2l0.3,0.1l0.4,0.1l0.4,0.1l0.4,0.1h0.5l0.4,0.1h0.4h0.5l0.4-0.1h0.4l0.5-0.1
		h0.4l0.4-0.1l0.3-0.2l0.4-0.1l0.4-0.1l0.3-0.2l0.3-0.2l0.3-0.2l0.2-0.2l0.3-0.2l0.2-0.2l0.1-0.2l0.2-0.3l0.1-0.2l0.1-0.3v-0.2v-0.3
		v-0.2l-0.1-0.3 M4.55,31.35v0.1v0.3l0.1,0.2l0.1,0.2l0.1,0.3l0.1,0.2l0.2,0.2l0.2,0.3l0.3,0.2l0.2,0.2l0.3,0.2 M6.15,33.75l0.4,0.1
		l0.3,0.2l0.4,0.1l0.3,0.1l0.4,0.2h0.4l0.4,0.1l0.5,0.1h0.4h0.4h0.5h0.4l0.4-0.1h0.5l0.4-0.1l0.4-0.1l0.3-0.1l0.4-0.1l0.4-0.2
		l0.3-0.2l0.3-0.1l0.3-0.2l0.2-0.2l0.3-0.2l0.2-0.3l0.1-0.2l0.2-0.2l0.1-0.3l0.1-0.2v-0.3v-0.2 M4.65,30.45l-0.1,0.2v0.3v0.2v0.3
		l0.1,0.2l0.1,0.3l0.1,0.2l0.1,0.3l0.2,0.2l0.2,0.2l0.3,0.2l0.2,0.2l0.3,0.2 M6.15,33.45l0.4,0.2l0.3,0.1l0.4,0.2l0.3,0.1l0.4,0.1
		l0.4,0.1l0.4,0.1h0.5h0.4l0.4,0.1l0.5-0.1h0.4h0.4l0.5-0.1l0.4-0.1l0.4-0.1l0.3-0.1l0.4-0.1l0.4-0.2l0.3-0.1l0.3-0.2l0.3-0.2
		l0.2-0.2l0.3-0.2l0.2-0.2l0.1-0.3l0.2-0.2l0.1-0.2l0.1-0.3v-0.2v-0.3v-0.2l-0.1-0.3v-0.1 M4.55,29.85v0.1v0.2l0.1,0.3l0.1,0.2
		l0.1,0.3l0.1,0.2l0.2,0.2l0.2,0.2l0.3,0.2l0.2,0.2l0.3,0.2 M6.15,32.15l0.4,0.2l0.3,0.2l0.4,0.1l0.3,0.1l0.4,0.1l0.4,0.1l0.4,0.1
		h0.5l0.4,0.1h0.4h0.5h0.4l0.4-0.1h0.5l0.4-0.1l0.4-0.1l0.3-0.1l0.4-0.2l0.4-0.1l0.3-0.2l0.3-0.2l0.3-0.2l0.2-0.2l0.3-0.2l0.2-0.2
		l0.1-0.2l0.2-0.3l0.1-0.2l0.1-0.2v-0.3v-0.2 M4.65,28.95l-0.1,0.2v0.3v0.2v0.3l0.1,0.2l0.1,0.3l0.1,0.2l0.1,0.2l0.2,0.3l0.2,0.2
		l0.3,0.2l0.2,0.2l0.3,0.2 M6.15,31.95l0.4,0.1l0.3,0.2l0.4,0.1l0.3,0.2l0.4,0.1l0.4,0.1h0.4l0.5,0.1h0.4h0.4h0.5h0.4h0.4l0.5-0.1
		l0.4-0.1l0.4-0.1l0.3-0.1l0.4-0.1l0.4-0.2l0.3-0.1l0.3-0.2l0.3-0.2l0.2-0.2l0.3-0.2l0.2-0.2l0.1-0.3l0.2-0.2l0.1-0.3l0.1-0.2v-0.3
		v-0.2v-0.3l-0.1-0.2v-0.1 M4.55,28.35v0.1v0.2l0.1,0.3l0.1,0.2l0.1,0.2l0.1,0.3l0.2,0.2l0.2,0.2l0.3,0.2l0.2,0.2l0.3,0.2
		 M6.15,30.65l0.4,0.2l0.3,0.1l0.4,0.2l0.3,0.1l0.4,0.1l0.4,0.1l0.4,0.1h0.5h0.4l0.4,0.1h0.5l0.4-0.1h0.4l0.5-0.1h0.4l0.4-0.1
		l0.3-0.2l0.4-0.1l0.4-0.1l0.3-0.2l0.3-0.2l0.3-0.2l0.2-0.2l0.3-0.2l0.2-0.2l0.1-0.2l0.2-0.3l0.1-0.2l0.1-0.3v-0.2v-0.2 M4.65,27.45
		l-0.1,0.2v0.2v0.3v0.2l0.1,0.3l0.1,0.2l0.1,0.3l0.1,0.2l0.2,0.2l0.2,0.3l0.3,0.2l0.2,0.2l0.3,0.1 M6.15,30.35l0.4,0.2l0.3,0.2
		l0.4,0.1l0.3,0.1l0.4,0.1l0.4,0.1l0.4,0.1l0.5,0.1h0.4h0.4h0.5h0.4l0.4-0.1h0.5l0.4-0.1l0.4-0.1l0.3-0.1l0.4-0.2l0.4-0.1l0.3-0.2
		l0.3-0.1l0.3-0.2l0.2-0.2l0.3-0.2l0.2-0.3l0.1-0.2l0.2-0.2l0.1-0.3l0.1-0.2v-0.3v-0.2v-0.3l-0.1-0.2v-0.1 M4.55,26.85L4.55,26.85
		v0.3l0.1,0.2l0.1,0.3l0.1,0.2l0.1,0.2l0.2,0.3l0.2,0.2l0.3,0.2l0.2,0.2l0.3,0.2 M6.15,29.15l0.4,0.2l0.3,0.1l0.4,0.1l0.3,0.2
		l0.4,0.1l0.4,0.1h0.4l0.5,0.1h0.4h0.4h0.5h0.4h0.4l0.5-0.1l0.4-0.1l0.4-0.1l0.3-0.1l0.4-0.1l0.4-0.2l0.3-0.1l0.3-0.2l0.3-0.2
		l0.2-0.2l0.3-0.2l0.2-0.2l0.1-0.3l0.2-0.2l0.1-0.2l0.1-0.3v-0.2v-0.2 M4.65,25.95l-0.1,0.2v0.2v0.3v0.2l0.1,0.3l0.1,0.2l0.1,0.3
		l0.1,0.2l0.2,0.2l0.2,0.2l0.3,0.2l0.2,0.2l0.3,0.2 M6.15,28.85l0.4,0.2l0.3,0.1l0.4,0.2l0.3,0.1l0.4,0.1l0.4,0.1l0.4,0.1h0.5
		l0.4,0.1h0.4h0.5h0.4l0.4-0.1l0.5-0.1h0.4l0.4-0.1l0.3-0.1l0.4-0.2l0.4-0.1l0.3-0.2l0.3-0.2l0.3-0.2l0.2-0.2l0.3-0.2l0.2-0.2
		l0.1-0.2l0.2-0.3l0.1-0.2l0.1-0.3v-0.2v-0.3v-0.2l-0.1-0.3 M4.55,25.25v0.1v0.3l0.1,0.2l0.1,0.3l0.1,0.2l0.1,0.2l0.2,0.3l0.2,0.2
		l0.3,0.2l0.2,0.2l0.3,0.2 M6.15,27.65l0.4,0.1l0.3,0.2l0.4,0.1l0.3,0.1l0.4,0.2h0.4l0.4,0.1l0.5,0.1h0.4h0.4h0.5h0.4l0.4-0.1h0.5
		l0.4-0.1l0.4-0.1l0.3-0.1l0.4-0.1l0.4-0.2l0.3-0.2l0.3-0.1l0.3-0.2l0.2-0.2l0.3-0.2l0.2-0.3l0.1-0.2l0.2-0.2l0.1-0.3l0.1-0.2v-0.3
		v-0.2 M4.65,24.45l-0.1,0.1v0.3v0.2v0.3l0.1,0.2l0.1,0.3l0.1,0.2l0.1,0.3l0.2,0.2l0.2,0.2l0.3,0.2l0.2,0.2l0.3,0.2 M6.15,27.35
		l0.4,0.2l0.3,0.1l0.4,0.2l0.3,0.1l0.4,0.1l0.4,0.1l0.4,0.1h0.5h0.4l0.4,0.1h0.5l0.4-0.1h0.4l0.5-0.1l0.4-0.1l0.4-0.1l0.3-0.1
		l0.4-0.1l0.4-0.2l0.3-0.1l0.3-0.2l0.3-0.2l0.2-0.2l0.3-0.2l0.2-0.2l0.1-0.3l0.2-0.2l0.1-0.2l0.1-0.3v-0.2v-0.3v-0.2l-0.1-0.3
		 M4.55,23.75v0.1v0.2l0.1,0.3l0.1,0.2l0.1,0.3l0.1,0.2l0.2,0.2l0.2,0.2l0.3,0.3l0.2,0.2l0.3,0.1 M6.15,26.05l0.4,0.2l0.3,0.2
		l0.4,0.1l0.3,0.1l0.4,0.1l0.4,0.1l0.4,0.1h0.5l0.4,0.1h0.4h0.5h0.4l0.4-0.1h0.5l0.4-0.1l0.4-0.1l0.3-0.1l0.4-0.2l0.4-0.1l0.3-0.2
		l0.3-0.2l0.3-0.1l0.2-0.2l0.3-0.3l0.2-0.2l0.1-0.2l0.2-0.3l0.1-0.2l0.1-0.2v-0.3v-0.2 M4.65,22.85l-0.1,0.2v0.3v0.2v0.3l0.1,0.2
		l0.1,0.3l0.1,0.2l0.1,0.2l0.2,0.3l0.2,0.2l0.3,0.2l0.2,0.2l0.3,0.2 M6.15,25.85l0.4,0.1l0.3,0.2l0.4,0.1l0.3,0.2l0.4,0.1l0.4,0.1
		h0.4l0.5,0.1h0.4h0.4h0.5h0.4h0.4l0.5-0.1l0.4-0.1l0.4-0.1l0.3-0.1l0.4-0.1l0.4-0.2l0.3-0.1l0.3-0.2l0.3-0.2l0.2-0.2l0.3-0.2
		l0.2-0.2l0.1-0.3l0.2-0.2l0.1-0.3l0.1-0.2v-0.3v-0.2v-0.3l-0.1-0.2v-0.1 M4.55,22.25v0.1v0.2l0.1,0.3l0.1,0.2l0.1,0.2l0.1,0.3
		l0.2,0.2l0.2,0.2l0.3,0.2l0.2,0.2l0.3,0.2 M6.15,24.55l0.4,0.2l0.3,0.1l0.4,0.2l0.3,0.1l0.4,0.1l0.4,0.1l0.4,0.1h0.5l0.4,0.1h0.4
		h0.5l0.4-0.1h0.4l0.5-0.1h0.4l0.4-0.1l0.3-0.2l0.4-0.1l0.4-0.1l0.3-0.2l0.3-0.2l0.3-0.2l0.2-0.2l0.3-0.2l0.2-0.2l0.1-0.2l0.2-0.3
		l0.1-0.2l0.1-0.3v-0.2v-0.2 M4.65,21.35l-0.1,0.2v0.2v0.3v0.3l0.1,0.2l0.1,0.2l0.1,0.3l0.1,0.2l0.2,0.2l0.2,0.3l0.3,0.2l0.2,0.2
		l0.3,0.2 M6.15,24.35l0.4,0.1l0.3,0.2l0.4,0.1l0.3,0.1l0.4,0.1l0.4,0.1l0.4,0.1l0.5,0.1h0.4h0.4h0.5h0.4l0.4-0.1h0.5l0.4-0.1
		l0.4-0.1l0.3-0.1l0.4-0.2l0.4-0.1l0.3-0.2l0.3-0.1l0.3-0.2l0.2-0.2l0.3-0.2l0.2-0.3l0.1-0.2l0.2-0.2l0.1-0.3l0.1-0.2v-0.3v-0.2
		v-0.3l-0.1-0.2v-0.1 M4.55,20.75L4.55,20.75v0.3l0.1,0.2l0.1,0.3l0.1,0.2l0.1,0.3l0.2,0.2l0.2,0.2l0.3,0.2l0.2,0.2l0.3,0.2
		 M6.15,23.05l0.4,0.2l0.3,0.1l0.4,0.2l0.3,0.1l0.4,0.1l0.4,0.1h0.4l0.5,0.1h0.4h0.4h0.5h0.4h0.4l0.5-0.1l0.4-0.1l0.4-0.1l0.3-0.1
		l0.4-0.1l0.4-0.2l0.3-0.1l0.3-0.2l0.3-0.2l0.2-0.2l0.3-0.2l0.2-0.2l0.1-0.3l0.2-0.2l0.1-0.2l0.1-0.3v-0.2v-0.2 M4.65,19.85
		l-0.1,0.2v0.2v0.3v0.2l0.1,0.3l0.1,0.2l0.1,0.3l0.1,0.2l0.2,0.2l0.2,0.2l0.3,0.2l0.2,0.2l0.3,0.2 M6.15,22.75l0.4,0.2l0.3,0.2
		l0.4,0.1l0.3,0.1l0.4,0.1l0.4,0.1l0.4,0.1h0.5l0.4,0.1h0.4h0.5h0.4l0.4-0.1h0.5l0.4-0.1l0.4-0.1l0.3-0.1l0.4-0.2l0.4-0.1l0.3-0.2
		l0.3-0.2l0.3-0.2l0.2-0.2l0.3-0.2l0.2-0.2l0.1-0.2l0.2-0.3l0.1-0.2l0.1-0.2v-0.3v-0.2v-0.3l-0.1-0.2v-0.1 M11.35,7.95l-2.5-0.4
		 M12.25,8.05l-0.9-0.1 M8.85,7.55l-0.7,0.4 M8.85,7.55v-4.6 M4.55,19.65l0.1,0.1l0.1,0.3l0.1,0.2l0.1,0.2l0.2,0.3l0.2,0.2l0.3,0.2
		l0.2,0.2l0.3,0.2 M6.15,21.55l0.4,0.1l0.3,0.2l0.4,0.1l0.3,0.2l0.4,0.1l0.4,0.1h0.4l0.5,0.1h0.4h0.4h0.5h0.4l0.4-0.1h0.5l0.4-0.1
		l0.4-0.1l0.3-0.1l0.4-0.1l0.4-0.2l0.3-0.1l0.3-0.2l0.3-0.2l0.2-0.2l0.3-0.2l0.2-0.3l0.1-0.2l0.2-0.2l0.1-0.3v-0.2 M13.75,7.25v-3.6
		 M12.15,8.15l-0.1-0.1l-0.3-0.1h-0.4 M11.35,7.95l-0.4-0.1h-0.4h-0.5h-0.4h-0.4l-0.4,0.1l-0.4,0.1 M13.75,3.65l1.3,2.8 M11.45,8.55
		l3.6-2.1 M11.45,8.55l-4.8-0.8 M6.65,7.75l-1.3-2.8 M8.85,2.95l-3.5,2 M13.75,3.65l-4.9-0.7 M0.25,14.95v0.2l0.1,0.3v0.4l0.1,0.3
		l0.2,0.3l0.1,0.3l0.2,0.3l0.3,0.3l0.2,0.3l0.3,0.3l0.3,0.3l0.4,0.3l0.3,0.2l0.4,0.3l0.5,0.2l0.4,0.2l0.5,0.2l0.4,0.2l0.5,0.2
		l0.6,0.1l0.5,0.1l0.5,0.2l0.6,0.1h0.5l0.6,0.1h0.6h0.6h0.5h0.6h0.6l0.6-0.1h0.5l0.6-0.1l0.5-0.2l0.5-0.1l0.6-0.1l0.5-0.2l0.4-0.2
		l0.5-0.2l0.4-0.2l0.5-0.2 M17.25,19.05l0.4-0.3l0.3-0.2l0.4-0.3l0.3-0.3l0.3-0.3l0.2-0.3l0.3-0.3l0.2-0.3l0.1-0.3l0.2-0.3l0.1-0.3
		v-0.4l0.1-0.3v-0.2 M20.15,6.15v0.1 M13.45,39.95l0.7-0.4 M6.15,39.55l0.8,0.4 M15.85,35.95v-0.2 M4.55,35.75v0.2 M15.85,34.45
		v-0.3 M4.55,34.15v0.3 M15.85,32.95v-0.3 M4.55,32.65v0.3 M15.85,31.35v-0.2 M4.55,31.15v0.2 M15.85,29.85v-0.2 M4.55,29.65v0.2
		 M15.85,28.35v-0.3 M4.55,28.05v0.3 M15.85,26.85v-0.3 M4.55,26.55v0.3 M15.85,25.25v-0.2 M4.55,25.05v0.2 M15.85,23.75v-0.2
		 M4.55,23.55v0.2 M15.85,22.25v-0.3 M4.55,21.95v0.3 M15.85,20.75v-0.3 M4.55,20.45v0.3 M20.15,14.95v-8.8 M0.25,6.15v8.8
		 M20.15,6.25v-0.1l-0.1-0.4v-0.3l-0.1-0.3l-0.1-0.3l-0.1-0.4l-0.2-0.3l-0.2-0.3l-0.2-0.3l-0.3-0.3l-0.2-0.3l-0.3-0.2l-0.4-0.3
		l-0.3-0.3l-0.4-0.2l-0.4-0.2l-0.4-0.2l-0.5-0.2l-0.4-0.2l-0.5-0.2l-0.5-0.1l-0.5-0.2l-0.5-0.1l-0.5-0.1l-0.5-0.1h-0.5l-0.6-0.1
		h-0.5h-0.6h-0.5h-0.6h-0.5l-0.5,0.1h-0.6l-0.5,0.1l-0.5,0.1l-0.5,0.2l-0.5,0.1l-0.5,0.2l-0.4,0.1l-0.5,0.2l-0.4,0.2l-0.4,0.2
		l-0.4,0.3l-0.4,0.2l-0.3,0.3l-0.4,0.3l-0.3,0.2l-0.2,0.3l-0.3,0.3l-0.2,0.3l-0.2,0.4l-0.1,0.3l-0.2,0.3l-0.1,0.3v0.4l-0.1,0.3v0.2"
		/>
</g>
</svg>
