<?xml version="1.0" encoding="utf-8"?>
<!-- Generator: Adobe Illustrator 19.0.0, SVG Export Plug-In . SVG Version: 6.00 Build 0)  -->
<svg version="1.0" id="Layer_1" xmlns="http://www.w3.org/2000/svg" xmlns:xlink="http://www.w3.org/1999/xlink" x="0px" y="0px"
	 width="20.3px" height="55px" viewBox="0 0 20.3 55" enable-background="new 0 0 20.3 55" xml:space="preserve">
<g>
	
		<path fill="none" stroke="#000000" stroke-width="0.25" stroke-linecap="round" stroke-linejoin="round" stroke-miterlimit="10" d="
		M20.05,6.25v0.3v0.4l-0.1,0.4l-0.2,0.4l-0.2,0.3l-0.2,0.4l-0.3,0.3l-0.3,0.4l-0.3,0.3l-0.4,0.3l-0.4,0.3l-0.5,0.3 M17.15,10.35
		l-0.5,0.2l-0.5,0.3l-0.5,0.2l-0.6,0.2l-0.5,0.2l-0.6,0.1l-0.6,0.1l-0.7,0.2h-0.6l-0.7,0.1h-0.6h-0.7h-0.6h-0.7l-0.6-0.1l-0.7-0.1
		l-0.6-0.1l-0.6-0.1l-0.6-0.2l-0.6-0.2l-0.5-0.2l-0.5-0.2l-0.5-0.2l-0.5-0.3l-0.5-0.3l-0.4-0.3l-0.3-0.3l-0.4-0.3l-0.3-0.4l-0.2-0.3
		l-0.2-0.4l-0.2-0.3l-0.2-0.4l-0.1-0.4v-0.3v-0.3 M16.75,9.65l0.5-0.3l0.4-0.3l0.3-0.3l0.4-0.3l0.3-0.3l0.2-0.4l0.2-0.3l0.2-0.4
		l0.1-0.3l0.1-0.4l0.1-0.4v-0.3l-0.1-0.4l-0.1-0.4l-0.1-0.3l-0.2-0.4l-0.2-0.3l-0.2-0.4l-0.3-0.3l-0.4-0.3l-0.3-0.3l-0.4-0.3
		l-0.5-0.3l-0.4-0.2l-0.5-0.3l-0.6-0.2l-0.5-0.2l-0.6-0.1l-0.6-0.2l-0.6-0.1l-0.6-0.1l-0.6-0.1h-0.6h-0.7h-0.6h-0.6h-0.7l-0.6,0.1
		l-0.6,0.1l-0.6,0.1l-0.6,0.2l-0.6,0.1l-0.5,0.2l-0.5,0.2l-0.5,0.3l-0.5,0.2l-0.4,0.3l-0.4,0.3l-0.4,0.3l-0.3,0.3l-0.3,0.3l-0.3,0.4
		l-0.2,0.3l-0.2,0.4l-0.1,0.3l-0.1,0.4v0.4v0.3v0.4l0.1,0.4l0.1,0.3l0.2,0.4l0.2,0.3l0.3,0.4l0.3,0.3l0.3,0.3l0.4,0.3l0.4,0.3
		l0.4,0.3l0.5,0.2l0.5,0.3l0.5,0.2l0.5,0.2l0.6,0.1l0.6,0.2l0.6,0.1l0.6,0.1l0.6,0.1h0.7h0.6h0.6h0.7h0.6l0.6-0.1l0.6-0.1l0.6-0.1
		l0.6-0.2l0.6-0.1l0.5-0.2l0.6-0.2l0.5-0.3L16.75,9.65"/>
	<path fill="none" stroke="#000000" stroke-width="0.5" stroke-linecap="round" stroke-linejoin="round" stroke-miterlimit="10" d="
		M6.95,53.95L6.95,53.95l0.3,0.2l0.4,0.1l0.4,0.2l0.4,0.1l0.4,0.1h0.4l0.5,0.1h0.4h0.5l0.4-0.1h0.4l0.5-0.1l0.4-0.1l0.3-0.2l0.4-0.1
		l0.3-0.2 M4.45,51.15l0.1,0.2v0.3l0.1,0.3l0.1,0.3l0.2,0.2l0.2,0.3l0.3,0.3l0.3,0.2l0.3,0.2l0.4,0.2l0.4,0.2l0.4,0.1l0.4,0.2
		l0.5,0.1l0.5,0.1l0.5,0.1h0.4h0.5h0.6h0.4l0.5-0.1l0.5-0.1l0.5-0.1l0.4-0.1l0.5-0.2l0.4-0.1l0.3-0.2 M14.15,53.55l0.4-0.3l0.3-0.2
		l0.2-0.2l0.3-0.3l0.2-0.3l0.1-0.2l0.1-0.3l0.1-0.3v-0.3 M4.55,50.45v0.1v0.2l-0.1,0.3l0.1,0.3v0.3l0.1,0.3l0.2,0.3l0.2,0.2l0.2,0.3
		l0.3,0.2l0.3,0.3l0.3,0.2 M6.15,53.45l0.4,0.2l0.4,0.2l0.4,0.1l0.4,0.1l0.5,0.1l0.5,0.1l0.5,0.1h0.5h0.5h0.5h0.5l0.5-0.1l0.4-0.1
		l0.5-0.1l0.4-0.1l0.5-0.2l0.3-0.2l0.4-0.2l0.3-0.2l0.3-0.2l0.3-0.3l0.2-0.2l0.2-0.3l0.1-0.3l0.1-0.3l0.1-0.3v-0.2l-0.1-0.3v-0.3
		 M4.45,49.85l0.1,0.3v0.2l0.1,0.3l0.2,0.3l0.2,0.3l0.2,0.2l0.3,0.3l0.3,0.2l0.3,0.2 M6.15,52.15l0.4,0.2l0.4,0.2l0.4,0.1l0.4,0.2
		l0.5,0.1l0.5,0.1h0.5l0.5,0.1h0.5h0.5l0.5-0.1h0.5l0.4-0.1l0.5-0.2l0.4-0.1l0.5-0.2l0.3-0.1l0.4-0.2l0.3-0.3l0.3-0.2l0.3-0.2
		l0.2-0.3l0.2-0.3l0.1-0.2l0.1-0.3l0.1-0.3v-0.2 M4.55,48.85L4.55,48.85v0.3l-0.1,0.3l0.1,0.3v0.3l0.1,0.3l0.2,0.3l0.2,0.2l0.2,0.3
		l0.3,0.2l0.3,0.3l0.3,0.2 M6.15,51.85l0.4,0.2l0.4,0.1l0.4,0.2l0.4,0.1l0.5,0.1l0.5,0.1l0.5,0.1h0.5h0.5h0.5h0.5l0.5-0.1l0.4-0.1
		l0.5-0.1l0.4-0.1l0.5-0.2l0.3-0.2l0.4-0.2l0.3-0.2l0.3-0.2l0.3-0.3l0.2-0.2l0.2-0.3l0.1-0.3l0.1-0.3l0.1-0.3v-0.3l-0.1-0.2v-0.3
		 M4.45,48.25l0.1,0.2v0.3l0.1,0.3l0.2,0.3l0.2,0.3l0.2,0.2l0.3,0.3l0.3,0.2l0.3,0.2 M6.15,50.55l0.4,0.2l0.4,0.2l0.4,0.1l0.4,0.2
		l0.5,0.1l0.5,0.1h0.5l0.5,0.1h0.5h0.5l0.5-0.1l0.5-0.1h0.4l0.5-0.2l0.4-0.1l0.5-0.2l0.3-0.1l0.4-0.2l0.3-0.3l0.3-0.2l0.3-0.2
		l0.2-0.3l0.2-0.3l0.1-0.3l0.1-0.2l0.1-0.3v-0.2 M4.55,47.25L4.55,47.25v0.3l-0.1,0.3l0.1,0.3v0.3l0.1,0.3l0.2,0.2l0.2,0.3l0.2,0.3
		l0.3,0.2l0.3,0.3l0.3,0.2 M6.15,50.25l0.4,0.2l0.4,0.1l0.4,0.2l0.4,0.1l0.5,0.1l0.5,0.1l0.5,0.1h0.5h0.5h0.5h0.5l0.5-0.1l0.4-0.1
		l0.5-0.1l0.4-0.1l0.5-0.2l0.3-0.2l0.4-0.2l0.3-0.2l0.3-0.2l0.3-0.3l0.2-0.2l0.2-0.3l0.1-0.3l0.1-0.3l0.1-0.3v-0.3l-0.1-0.2v-0.3
		 M4.45,46.65l0.1,0.2v0.3l0.1,0.3l0.2,0.3l0.2,0.3l0.2,0.2l0.3,0.3l0.3,0.2l0.3,0.2 M6.15,48.95l0.4,0.2l0.4,0.2l0.4,0.1l0.4,0.2
		l0.5,0.1l0.5,0.1h0.5h0.5l0.5,0.1l0.5-0.1h0.5l0.5-0.1l0.4-0.1l0.5-0.1l0.4-0.1l0.5-0.2l0.3-0.2l0.4-0.2l0.3-0.2l0.3-0.2l0.3-0.3
		l0.2-0.2l0.2-0.3l0.1-0.3l0.1-0.2l0.1-0.3v-0.2 M4.55,45.65L4.55,45.65v0.3l-0.1,0.3l0.1,0.3v0.3l0.1,0.3l0.2,0.2l0.2,0.3l0.2,0.3
		l0.3,0.2l0.3,0.2l0.3,0.3 M6.15,48.65l0.4,0.2l0.4,0.1l0.4,0.2l0.4,0.1l0.5,0.1l0.5,0.1l0.5,0.1h0.5h0.5h0.5h0.5l0.5-0.1l0.4-0.1
		l0.5-0.1l0.4-0.2l0.5-0.1l0.3-0.2l0.4-0.2l0.3-0.2l0.3-0.2l0.3-0.3l0.2-0.3l0.2-0.2l0.1-0.3l0.1-0.3l0.1-0.3v-0.3l-0.1-0.3v-0.2
		 M4.45,45.05l0.1,0.2v0.3l0.1,0.3l0.2,0.3l0.2,0.2l0.2,0.3l0.3,0.2l0.3,0.3l0.3,0.2 M6.15,47.35l0.4,0.2l0.4,0.2l0.4,0.1l0.4,0.1
		l0.5,0.2h0.5l0.5,0.1h0.5h0.5h0.5h0.5l0.5-0.1l0.4-0.1l0.5-0.1l0.4-0.1l0.5-0.2l0.3-0.2l0.4-0.2l0.3-0.2l0.3-0.2l0.3-0.3l0.2-0.2
		l0.2-0.3l0.1-0.3l0.1-0.3l0.1-0.2v-0.2 M4.55,44.05L4.55,44.05v0.3l-0.1,0.3l0.1,0.3v0.3l0.1,0.3l0.2,0.2l0.2,0.3l0.2,0.3l0.3,0.2
		l0.3,0.2l0.3,0.2 M6.15,46.95l0.4,0.2l0.4,0.2l0.4,0.2l0.4,0.1l0.5,0.1l0.5,0.1l0.5,0.1h0.5h0.5h0.5l0.5-0.1h0.5l0.4-0.1l0.5-0.1
		l0.4-0.2l0.5-0.1l0.3-0.2l0.4-0.2l0.3-0.2l0.3-0.3l0.3-0.2l0.2-0.3l0.2-0.2l0.1-0.3l0.1-0.3l0.1-0.3v-0.3l-0.1-0.3v-0.2
		 M4.45,43.45l0.1,0.2v0.3l0.1,0.3l0.2,0.3l0.2,0.2l0.2,0.3l0.3,0.2l0.3,0.3l0.3,0.2 M6.15,45.75l0.4,0.2l0.4,0.2l0.4,0.1l0.4,0.1
		l0.5,0.2h0.5l0.5,0.1h0.5h0.5h0.5h0.5l0.5-0.1l0.4-0.1l0.5-0.1l0.4-0.1l0.5-0.2l0.3-0.2l0.4-0.2l0.3-0.2l0.3-0.2l0.3-0.3l0.2-0.2
		l0.2-0.3l0.1-0.3l0.1-0.3l0.1-0.3v-0.1 M4.55,42.45L4.55,42.45v0.3l-0.1,0.3l0.1,0.3v0.3l0.1,0.2l0.2,0.3l0.2,0.3l0.2,0.2l0.3,0.3
		l0.3,0.2l0.3,0.2 M6.15,45.35l0.4,0.2l0.4,0.2l0.4,0.2l0.4,0.1l0.5,0.1l0.5,0.1l0.5,0.1h0.5h0.5h0.5l0.5-0.1h0.5l0.4-0.1l0.5-0.1
		l0.4-0.2l0.5-0.1l0.3-0.2l0.4-0.2l0.3-0.2l0.3-0.3l0.3-0.2l0.2-0.3l0.2-0.2l0.1-0.3l0.1-0.3l0.1-0.3v-0.3l-0.1-0.3v-0.2
		 M4.45,41.85l0.1,0.2v0.3l0.1,0.3l0.2,0.3l0.2,0.2l0.2,0.3l0.3,0.2l0.3,0.3l0.3,0.2 M6.15,44.15l0.4,0.2l0.4,0.1l0.4,0.2l0.4,0.1
		l0.5,0.1l0.5,0.1l0.5,0.1h0.5h0.5h0.5h0.5l0.5-0.1l0.4-0.1l0.5-0.1l0.4-0.1l0.5-0.2l0.3-0.2l0.4-0.2l0.3-0.2l0.3-0.2l0.3-0.3
		l0.2-0.2l0.2-0.3l0.1-0.3l0.1-0.3l0.1-0.3v-0.1 M4.55,40.85L4.55,40.85v0.3l-0.1,0.3l0.1,0.3v0.3l0.1,0.2l0.2,0.3l0.2,0.3l0.2,0.2
		l0.3,0.3l0.3,0.2l0.3,0.2 M6.15,43.75l0.4,0.2l0.4,0.2l0.4,0.2l0.4,0.1l0.5,0.1l0.5,0.1h0.5l0.5,0.1h0.5h0.5l0.5-0.1h0.5l0.4-0.1
		l0.5-0.1l0.4-0.2l0.5-0.1l0.3-0.2l0.4-0.2l0.3-0.2l0.3-0.3l0.3-0.2l0.2-0.3l0.2-0.3l0.1-0.2l0.1-0.3l0.1-0.3v-0.3l-0.1-0.3v-0.2
		 M4.45,40.25l0.1,0.2v0.3l0.1,0.3l0.2,0.3l0.2,0.2l0.2,0.3l0.3,0.2l0.3,0.3l0.3,0.2 M6.15,42.55l0.4,0.2l0.4,0.1l0.4,0.2l0.4,0.1
		l0.5,0.1l0.5,0.1l0.5,0.1h0.5h0.5h0.5h0.5l0.5-0.1l0.4-0.1l0.5-0.1l0.4-0.1l0.5-0.2l0.3-0.2l0.4-0.2l0.3-0.2l0.3-0.2l0.3-0.3
		l0.2-0.2l0.2-0.3l0.1-0.3l0.1-0.3l0.1-0.3v-0.1 M4.55,39.25L4.55,39.25v0.3l-0.1,0.3l0.1,0.3v0.2l0.1,0.3l0.2,0.3l0.2,0.3l0.2,0.2
		l0.3,0.3l0.3,0.2l0.3,0.2 M6.15,42.15l0.4,0.2l0.4,0.2l0.4,0.1l0.4,0.2l0.5,0.1l0.5,0.1h0.5l0.5,0.1h0.5h0.5l0.5-0.1h0.5l0.4-0.1
		l0.5-0.2l0.4-0.1l0.5-0.2l0.3-0.1l0.4-0.2l0.3-0.2l0.3-0.3l0.3-0.2l0.2-0.3l0.2-0.3l0.1-0.2l0.1-0.3l0.1-0.3v-0.3l-0.1-0.3v-0.2
		 M4.45,38.55l0.1,0.3v0.3l0.1,0.3l0.2,0.2l0.2,0.3l0.2,0.3l0.3,0.2l0.3,0.2l0.3,0.3 M6.15,40.95l0.4,0.2l0.4,0.1l0.4,0.2l0.4,0.1
		l0.5,0.1l0.5,0.1l0.5,0.1h0.5h0.5h0.5h0.5l0.5-0.1l0.4-0.1l0.5-0.1l0.4-0.2l0.5-0.1l0.3-0.2l0.4-0.2l0.3-0.2l0.3-0.2l0.3-0.3
		l0.2-0.3l0.2-0.2l0.1-0.3l0.1-0.3l0.1-0.3v-0.2 M4.55,37.65L4.55,37.65v0.3l-0.1,0.3l0.1,0.3v0.2l0.1,0.3l0.2,0.3l0.2,0.3l0.2,0.2
		l0.3,0.3l0.3,0.2l0.3,0.2 M6.15,40.55l0.4,0.2l0.4,0.2l0.4,0.1l0.4,0.2l0.5,0.1l0.5,0.1h0.5l0.5,0.1h0.5h0.5l0.5-0.1l0.5-0.1h0.4
		l0.5-0.2l0.4-0.1l0.5-0.2l0.3-0.1l0.4-0.2l0.3-0.3l0.3-0.2l0.3-0.2l0.2-0.3l0.2-0.3l0.1-0.2l0.1-0.3l0.1-0.3v-0.3l-0.1-0.3v-0.2
		 M4.45,36.95l0.1,0.3v0.3l0.1,0.3l0.2,0.2l0.2,0.3l0.2,0.3l0.3,0.2l0.3,0.2l0.3,0.2 M6.15,39.25l0.4,0.2l0.4,0.2l0.4,0.2l0.4,0.1
		l0.5,0.1l0.5,0.1l0.5,0.1h0.5h0.5h0.5l0.5-0.1h0.5l0.4-0.1l0.5-0.1l0.4-0.2l0.5-0.1l0.3-0.2l0.4-0.2l0.3-0.2l0.3-0.3l0.3-0.2
		l0.2-0.3l0.2-0.2l0.1-0.3l0.1-0.3l0.1-0.3v-0.2 M4.55,36.05L4.55,36.05v0.3l-0.1,0.3l0.1,0.2v0.3l0.1,0.3l0.2,0.3l0.2,0.3l0.2,0.2
		l0.3,0.3l0.3,0.2l0.3,0.2 M6.15,38.95l0.4,0.2l0.4,0.2l0.4,0.1l0.4,0.2l0.5,0.1l0.5,0.1h0.5l0.5,0.1h0.5l0.5-0.1h0.5l0.5-0.1
		l0.4-0.1l0.5-0.1l0.4-0.1l0.5-0.2l0.3-0.1l0.4-0.2l0.3-0.3l0.3-0.2l0.3-0.2l0.2-0.3l0.2-0.3l0.1-0.3l0.1-0.2l0.1-0.3v-0.3l-0.1-0.3
		v-0.2 M4.45,35.35l0.1,0.3v0.3l0.1,0.2l0.2,0.3l0.2,0.3l0.2,0.3l0.3,0.2l0.3,0.2l0.3,0.2 M6.15,37.65l0.4,0.2l0.4,0.2l0.4,0.2
		l0.4,0.1l0.5,0.1l0.5,0.1l0.5,0.1h0.5h0.5h0.5l0.5-0.1h0.5l0.4-0.1l0.5-0.1l0.4-0.2l0.5-0.1l0.3-0.2l0.4-0.2l0.3-0.2l0.3-0.3
		l0.3-0.2l0.2-0.3l0.2-0.2l0.1-0.3l0.1-0.3l0.1-0.3v-0.2 M4.55,34.35v0.1v0.3l-0.1,0.2l0.1,0.3v0.3l0.1,0.3l0.2,0.3l0.2,0.2l0.2,0.3
		l0.3,0.3l0.3,0.2l0.3,0.2 M6.15,37.35l0.4,0.2l0.4,0.2l0.4,0.1l0.4,0.2l0.5,0.1h0.5l0.5,0.1h0.5l0.5,0.1l0.5-0.1h0.5l0.5-0.1
		l0.4-0.1l0.5-0.1l0.4-0.1l0.5-0.2l0.3-0.2l0.4-0.2l0.3-0.2l0.3-0.2l0.3-0.3l0.2-0.2l0.2-0.3l0.1-0.3l0.1-0.3l0.1-0.2v-0.3l-0.1-0.3
		v-0.3 M4.45,33.75l0.1,0.3v0.3l0.1,0.2l0.2,0.3l0.2,0.3l0.2,0.2l0.3,0.3l0.3,0.2l0.3,0.2 M6.15,36.05l0.4,0.2l0.4,0.2l0.4,0.2
		l0.4,0.1l0.5,0.1l0.5,0.1h0.5l0.5,0.1h0.5h0.5l0.5-0.1h0.5l0.4-0.1l0.5-0.1l0.4-0.2l0.5-0.1l0.3-0.2l0.4-0.2l0.3-0.2l0.3-0.3
		l0.3-0.2l0.2-0.3l0.2-0.3l0.1-0.2l0.1-0.3l0.1-0.3v-0.2 M4.55,32.75v0.1v0.2l-0.1,0.3l0.1,0.3v0.3l0.1,0.3l0.2,0.3l0.2,0.2l0.2,0.3
		l0.3,0.2l0.3,0.3l0.3,0.2 M6.15,35.75l0.4,0.2l0.4,0.2l0.4,0.1l0.4,0.1l0.5,0.2h0.5l0.5,0.1h0.5h0.5h0.5h0.5l0.5-0.1l0.4-0.1
		l0.5-0.1l0.4-0.1l0.5-0.2l0.3-0.2l0.4-0.2l0.3-0.2l0.3-0.2l0.3-0.3l0.2-0.2l0.2-0.3l0.1-0.3l0.1-0.3l0.1-0.2v-0.3l-0.1-0.3v-0.3
		 M4.45,32.15l0.1,0.3v0.2l0.1,0.3l0.2,0.3l0.2,0.3l0.2,0.2l0.3,0.3l0.3,0.2l0.3,0.2 M6.15,34.45l0.4,0.2l0.4,0.2l0.4,0.1l0.4,0.2
		l0.5,0.1l0.5,0.1h0.5l0.5,0.1h0.5h0.5l0.5-0.1h0.5l0.4-0.1l0.5-0.2l0.4-0.1l0.5-0.1l0.3-0.2l0.4-0.2l0.3-0.2l0.3-0.3l0.3-0.2
		l0.2-0.3l0.2-0.3l0.1-0.2l0.1-0.3l0.1-0.3v-0.2 M4.55,31.15v0.1v0.2l-0.1,0.3l0.1,0.3v0.3l0.1,0.3l0.2,0.3l0.2,0.2l0.2,0.3l0.3,0.2
		l0.3,0.3l0.3,0.2 M6.15,34.15l0.4,0.2l0.4,0.1l0.4,0.2l0.4,0.1l0.5,0.1l0.5,0.1l0.5,0.1h0.5h0.5h0.5h0.5l0.5-0.1l0.4-0.1l0.5-0.1
		l0.4-0.1l0.5-0.2l0.3-0.2l0.4-0.2l0.3-0.2l0.3-0.2l0.3-0.3l0.2-0.2l0.2-0.3l0.1-0.3l0.1-0.3l0.1-0.3v-0.2l-0.1-0.3v-0.3
		 M4.45,30.55l0.1,0.3v0.2l0.1,0.3l0.2,0.3l0.2,0.3l0.2,0.2l0.3,0.3l0.3,0.2l0.3,0.2 M6.15,32.85l0.4,0.2l0.4,0.2l0.4,0.1l0.4,0.2
		l0.5,0.1l0.5,0.1h0.5l0.5,0.1h0.5h0.5l0.5-0.1l0.5-0.1h0.4l0.5-0.2l0.4-0.1l0.5-0.2l0.3-0.1l0.4-0.2l0.3-0.3l0.3-0.2l0.3-0.2
		l0.2-0.3l0.2-0.3l0.1-0.2l0.1-0.3l0.1-0.3v-0.2 M4.55,29.55L4.55,29.55v0.3l-0.1,0.3l0.1,0.3v0.3l0.1,0.3l0.2,0.3l0.2,0.2l0.2,0.3
		l0.3,0.2l0.3,0.3l0.3,0.2 M6.15,32.55l0.4,0.2l0.4,0.1l0.4,0.2l0.4,0.1l0.5,0.1l0.5,0.1l0.5,0.1h0.5h0.5h0.5h0.5l0.5-0.1l0.4-0.1
		l0.5-0.1l0.4-0.1l0.5-0.2l0.3-0.2l0.4-0.2l0.3-0.2l0.3-0.2l0.3-0.3l0.2-0.2l0.2-0.3l0.1-0.3l0.1-0.3l0.1-0.3v-0.3l-0.1-0.2v-0.3
		 M4.45,28.95l0.1,0.2v0.3l0.1,0.3l0.2,0.3l0.2,0.3l0.2,0.2l0.3,0.3l0.3,0.2l0.3,0.2 M6.15,31.25l0.4,0.2l0.4,0.2l0.4,0.1l0.4,0.2
		l0.5,0.1l0.5,0.1h0.5l0.5,0.1h0.5l0.5-0.1h0.5l0.5-0.1l0.4-0.1l0.5-0.1l0.4-0.1l0.5-0.2l0.3-0.1l0.4-0.2l0.3-0.3l0.3-0.2l0.3-0.2
		l0.2-0.3l0.2-0.3l0.1-0.3l0.1-0.2l0.1-0.3v-0.2 M4.55,27.95L4.55,27.95v0.3l-0.1,0.3l0.1,0.3v0.3l0.1,0.3l0.2,0.2l0.2,0.3l0.2,0.3
		l0.3,0.2l0.3,0.2l0.3,0.3 M6.15,30.95l0.4,0.2l0.4,0.1l0.4,0.2l0.4,0.1l0.5,0.1l0.5,0.1l0.5,0.1h0.5h0.5h0.5h0.5l0.5-0.1l0.4-0.1
		l0.5-0.1l0.4-0.2l0.5-0.1l0.3-0.2l0.4-0.2l0.3-0.2l0.3-0.2l0.3-0.3l0.2-0.3l0.2-0.2l0.1-0.3l0.1-0.3l0.1-0.3v-0.3l-0.1-0.3v-0.2
		 M4.45,27.35l0.1,0.2v0.3l0.1,0.3l0.2,0.3l0.2,0.3l0.2,0.2l0.3,0.3l0.3,0.2l0.3,0.2 M6.15,29.65l0.4,0.2l0.4,0.2l0.4,0.1l0.4,0.2
		l0.5,0.1h0.5l0.5,0.1h0.5l0.5,0.1l0.5-0.1h0.5l0.5-0.1l0.4-0.1l0.5-0.1l0.4-0.1l0.5-0.2l0.3-0.2l0.4-0.2l0.3-0.2l0.3-0.2l0.3-0.3
		l0.2-0.2l0.2-0.3l0.1-0.3l0.1-0.2l0.1-0.3v-0.2 M4.55,26.35L4.55,26.35v0.3l-0.1,0.3l0.1,0.3v0.3l0.1,0.3l0.2,0.2l0.2,0.3l0.2,0.3
		l0.3,0.2l0.3,0.2l0.3,0.3 M6.15,29.35l0.4,0.1l0.4,0.2l0.4,0.2l0.4,0.1l0.5,0.1l0.5,0.1l0.5,0.1h0.5h0.5h0.5h0.5l0.5-0.1l0.4-0.1
		l0.5-0.1l0.4-0.2l0.5-0.1l0.3-0.2l0.4-0.2l0.3-0.2l0.3-0.3l0.3-0.2l0.2-0.3l0.2-0.2l0.1-0.3l0.1-0.3l0.1-0.3v-0.3l-0.1-0.3v-0.2
		 M4.45,25.75l0.1,0.2v0.3l0.1,0.3l0.2,0.3l0.2,0.2l0.2,0.3l0.3,0.2l0.3,0.3l0.3,0.2 M6.15,28.05l0.4,0.2l0.4,0.2l0.4,0.1l0.4,0.1
		l0.5,0.2h0.5l0.5,0.1h0.5h0.5h0.5h0.5l0.5-0.1l0.4-0.1l0.5-0.1l0.4-0.1l0.5-0.2l0.3-0.2l0.4-0.2l0.3-0.2l0.3-0.2l0.3-0.3l0.2-0.2
		l0.2-0.3l0.1-0.3l0.1-0.3l0.1-0.2v-0.2 M4.55,24.75L4.55,24.75v0.3l-0.1,0.3l0.1,0.3v0.3l0.1,0.3l0.2,0.2l0.2,0.3l0.2,0.3l0.3,0.2
		l0.3,0.2l0.3,0.2 M6.15,27.65l0.4,0.2l0.4,0.2l0.4,0.2l0.4,0.1l0.5,0.1l0.5,0.1l0.5,0.1h0.5h0.5h0.5l0.5-0.1h0.5l0.4-0.1l0.5-0.1
		l0.4-0.2l0.5-0.1l0.3-0.2l0.4-0.2l0.3-0.2l0.3-0.3l0.3-0.2l0.2-0.3l0.2-0.2l0.1-0.3l0.1-0.3l0.1-0.3v-0.3l-0.1-0.3v-0.2
		 M4.45,24.15l0.1,0.2v0.3l0.1,0.3l0.2,0.3l0.2,0.2l0.2,0.3l0.3,0.2l0.3,0.3l0.3,0.2 M6.15,26.45l0.4,0.2l0.4,0.1l0.4,0.2l0.4,0.1
		l0.5,0.1l0.5,0.1l0.5,0.1h0.5h0.5h0.5h0.5l0.5-0.1l0.4-0.1l0.5-0.1l0.4-0.1l0.5-0.2l0.3-0.2l0.4-0.2l0.3-0.2l0.3-0.2l0.3-0.3
		l0.2-0.2l0.2-0.3l0.1-0.3l0.1-0.3l0.1-0.3v-0.1 M4.55,23.15L4.55,23.15v0.3l-0.1,0.3l0.1,0.3v0.3l0.1,0.2l0.2,0.3l0.2,0.3l0.2,0.2
		l0.3,0.3l0.3,0.2l0.3,0.2 M6.15,26.05l0.4,0.2l0.4,0.2l0.4,0.2l0.4,0.1l0.5,0.1l0.5,0.1h0.5l0.5,0.1h0.5h0.5l0.5-0.1h0.5l0.4-0.1
		l0.5-0.1l0.4-0.2l0.5-0.1l0.3-0.2l0.4-0.2l0.3-0.2l0.3-0.3l0.3-0.2l0.2-0.3l0.2-0.2l0.1-0.3l0.1-0.3l0.1-0.3v-0.3l-0.1-0.3v-0.2
		 M4.45,22.55l0.1,0.2v0.3l0.1,0.3l0.2,0.3l0.2,0.2l0.2,0.3l0.3,0.2l0.3,0.3l0.3,0.2 M6.15,24.85l0.4,0.2l0.4,0.1l0.4,0.2l0.4,0.1
		l0.5,0.1l0.5,0.1l0.5,0.1h0.5h0.5h0.5h0.5l0.5-0.1l0.4-0.1l0.5-0.1l0.4-0.1l0.5-0.2l0.3-0.2l0.4-0.2l0.3-0.2l0.3-0.2l0.3-0.3
		l0.2-0.2l0.2-0.3l0.1-0.3l0.1-0.3l0.1-0.3v-0.1 M4.55,21.55L4.55,21.55v0.3l-0.1,0.3l0.1,0.3v0.3l0.1,0.2l0.2,0.3l0.2,0.3l0.2,0.2
		l0.3,0.3l0.3,0.2l0.3,0.2 M6.15,24.45l0.4,0.2l0.4,0.2l0.4,0.2l0.4,0.1l0.5,0.1l0.5,0.1h0.5l0.5,0.1h0.5h0.5l0.5-0.1h0.5l0.4-0.1
		l0.5-0.1l0.4-0.2l0.5-0.1l0.3-0.2l0.4-0.2l0.3-0.2l0.3-0.3l0.3-0.2l0.2-0.3l0.2-0.3l0.1-0.2l0.1-0.3l0.1-0.3v-0.3l-0.1-0.3v-0.2
		 M4.45,20.85l0.1,0.3v0.3l0.1,0.3l0.2,0.2l0.2,0.3l0.2,0.3l0.3,0.2l0.3,0.2l0.3,0.3 M6.15,23.25l0.4,0.2l0.4,0.1l0.4,0.2l0.4,0.1
		l0.5,0.1l0.5,0.1l0.5,0.1h0.5h0.5h0.5h0.5l0.5-0.1l0.4-0.1l0.5-0.1l0.4-0.1l0.5-0.2l0.3-0.2l0.4-0.2l0.3-0.2l0.3-0.2l0.3-0.3
		l0.2-0.3l0.2-0.2l0.1-0.3l0.1-0.3l0.1-0.3v-0.2 M4.55,19.95L4.55,19.95v0.3l-0.1,0.3l0.1,0.3v0.2l0.1,0.3l0.2,0.3l0.2,0.3l0.2,0.2
		l0.3,0.3l0.3,0.2l0.3,0.2 M6.15,22.85l0.4,0.2l0.4,0.2l0.4,0.1l0.4,0.2l0.5,0.1l0.5,0.1h0.5l0.5,0.1h0.5h0.5l0.5-0.1h0.5l0.4-0.1
		l0.5-0.2l0.4-0.1l0.5-0.2l0.3-0.1l0.4-0.2l0.3-0.3l0.3-0.2l0.3-0.2l0.2-0.3l0.2-0.3l0.1-0.2l0.1-0.3l0.1-0.3v-0.3l-0.1-0.3v-0.2
		 M11.25,8.05l-2.4-0.4 M12.25,8.15l-1-0.1 M8.85,7.65l-0.8,0.4 M8.85,7.65v-4.7 M4.55,19.75v0.1l0.1,0.3l0.2,0.2l0.2,0.3l0.2,0.3
		l0.3,0.2l0.3,0.2l0.3,0.3 M6.15,21.65l0.4,0.1l0.4,0.2l0.4,0.2l0.4,0.1l0.5,0.1l0.5,0.1l0.5,0.1h0.5h0.5h0.5h0.5l0.5-0.1l0.4-0.1
		l0.5-0.1l0.4-0.2l0.5-0.1l0.3-0.2l0.4-0.2l0.3-0.2l0.3-0.3l0.3-0.2l0.2-0.3l0.2-0.2l0.1-0.3l0.1-0.3 M13.75,7.35v-3.6 M12.15,8.15
		L12.15,8.15l-0.4-0.1h-0.5 M11.25,8.05l-0.4-0.1h-0.5h-0.4h-0.5l-0.4,0.1h-0.4l-0.2,0.1 M13.75,3.75l1.3,2.8 M11.45,8.65l3.6-2.1
		 M11.45,8.65l-4.8-0.8 M6.65,7.85l-1.3-2.8 M8.85,2.95l-3.5,2.1 M13.75,3.75l-4.9-0.8 M0.25,15.05v0.2v0.4l0.1,0.4l0.2,0.4l0.2,0.3
		l0.2,0.4l0.2,0.3l0.3,0.4l0.4,0.3l0.3,0.3l0.4,0.3l0.5,0.3l0.5,0.3l0.5,0.2l0.5,0.2l0.5,0.2l0.6,0.2l0.6,0.2l0.6,0.1l0.6,0.1
		l0.7,0.1l0.6,0.1h0.7h0.6h0.7h0.6l0.7-0.1h0.6l0.7-0.2l0.6-0.1l0.6-0.1l0.5-0.2l0.6-0.2l0.5-0.2l0.5-0.3l0.5-0.2 M17.15,19.15
		l0.5-0.3l0.4-0.3l0.4-0.3l0.3-0.3l0.3-0.4l0.3-0.3l0.2-0.4l0.2-0.3l0.2-0.4l0.1-0.4v-0.4v-0.3 M0.25,6.25L0.25,6.25 M13.35,53.95
		l0.8-0.4 M6.15,53.55l0.8,0.4 M15.85,51.15L15.85,51.15 M4.45,51.15L4.45,51.15 M15.85,49.85v-0.3 M4.45,49.55v0.3 M15.85,48.25
		v-0.4 M4.45,47.85v0.4 M15.85,46.65v-0.4 M4.45,46.25v0.4 M15.85,45.05v-0.4 M4.45,44.65v0.4 M15.85,43.45v-0.4 M4.45,43.05v0.4
		 M15.85,41.85v-0.4 M4.45,41.45v0.4 M15.85,40.25v-0.4 M4.45,39.85v0.4 M15.85,38.55v-0.3 M4.45,38.25v0.3 M15.85,36.95v-0.3
		 M4.45,36.65v0.3 M15.85,35.35v-0.3 M4.45,35.05v0.3 M15.85,33.75v-0.3 M4.45,33.45v0.3 M15.85,32.15v-0.3 M4.45,31.85v0.3
		 M15.85,30.55v-0.3 M4.45,30.25v0.3 M15.85,28.95v-0.4 M4.45,28.55v0.4 M15.85,27.35v-0.4 M4.45,26.95v0.4 M15.85,25.75v-0.4
		 M4.45,25.35v0.4 M15.85,24.15v-0.4 M4.45,23.75v0.4 M15.85,22.55v-0.4 M4.45,22.15v0.4 M15.85,20.85v-0.3 M4.45,20.55v0.3
		 M20.05,15.05v-8.8 M0.25,6.25v8.8 M20.05,6.25v-0.3v-0.4l-0.1-0.4l-0.2-0.4l-0.1-0.3l-0.2-0.4l-0.3-0.3l-0.3-0.4l-0.3-0.3
		l-0.3-0.3l-0.4-0.3l-0.4-0.3l-0.5-0.2l-0.4-0.3l-0.5-0.2l-0.6-0.2l-0.5-0.2l-0.5-0.2l-0.6-0.1l-0.6-0.2l-0.6-0.1h-0.6l-0.6-0.1
		h-0.6l-0.7-0.1l-0.6,0.1h-0.6h-0.6l-0.6,0.1l-0.6,0.1l-0.6,0.2l-0.6,0.1l-0.5,0.2l-0.6,0.1l-0.5,0.3l-0.5,0.2l-0.5,0.2l-0.4,0.3
		l-0.4,0.3l-0.4,0.3l-0.4,0.3l-0.3,0.3l-0.3,0.4l-0.2,0.3l-0.2,0.4l-0.2,0.3l-0.1,0.4l-0.1,0.4l-0.1,0.4v0.3"/>
</g>
</svg>
