<?xml version="1.0" encoding="utf-8"?>
<!-- Generator: Adobe Illustrator 19.0.0, SVG Export Plug-In . SVG Version: 6.00 Build 0)  -->
<svg version="1.0" id="Layer_1" xmlns="http://www.w3.org/2000/svg" xmlns:xlink="http://www.w3.org/1999/xlink" x="0px" y="0px"
	 width="20.3px" height="45.7px" viewBox="0 0 20.3 45.7" enable-background="new 0 0 20.3 45.7" xml:space="preserve">
<g>
	
		<path fill="none" stroke="#000000" stroke-width="0.25" stroke-linecap="round" stroke-linejoin="round" stroke-miterlimit="10" d="
		M20.05,6.25v0.3l-0.1,0.3l-0.1,0.4l-0.1,0.3l-0.1,0.3l-0.2,0.4l-0.3,0.3l-0.2,0.3l-0.3,0.3l-0.3,0.3l-0.4,0.3l-0.4,0.3l-0.4,0.2
		 M17.15,10.25l-0.4,0.2l-0.5,0.3l-0.5,0.2l-0.5,0.2l-0.5,0.1l-0.6,0.2l-0.5,0.1l-0.6,0.1l-0.6,0.1l-0.6,0.1h-0.6l-0.6,0.1h-0.6
		h-0.6l-0.6-0.1h-0.6l-0.6-0.1l-0.6-0.1l-0.5-0.1l-0.6-0.1l-0.5-0.2l-0.6-0.2l-0.5-0.2l-0.5-0.2l-0.4-0.2l-0.4-0.3l-0.5-0.2
		l-0.3-0.3l-0.4-0.3l-0.3-0.3l-0.3-0.3l-0.2-0.3l-0.3-0.3l-0.2-0.3l-0.1-0.4l-0.1-0.3l-0.1-0.4v-0.3v-0.2 M16.75,9.55l0.4-0.2
		l0.4-0.3l0.3-0.3l0.3-0.3l0.3-0.3l0.3-0.3l0.2-0.3l0.2-0.3l0.1-0.3l0.1-0.4l0.1-0.3v-0.3v-0.4v-0.3l-0.1-0.3l-0.1-0.4l-0.1-0.3
		l-0.2-0.3l-0.2-0.3l-0.3-0.4l-0.3-0.3l-0.3-0.2l-0.3-0.3l-0.4-0.3l-0.4-0.2l-0.4-0.3l-0.5-0.2l-0.5-0.2l-0.5-0.2l-0.5-0.1l-0.5-0.2
		l-0.6-0.1l-0.5-0.1l-0.6-0.1h-0.6l-0.5-0.1h-0.6h-0.6h-0.6l-0.6,0.1h-0.6l-0.5,0.1l-0.6,0.1l-0.5,0.1l-0.6,0.2l-0.5,0.1l-0.5,0.2
		l-0.5,0.2l-0.4,0.2l-0.4,0.3l-0.4,0.2l-0.4,0.3l-0.4,0.3l-0.3,0.2l-0.3,0.3l-0.2,0.4l-0.2,0.3l-0.2,0.3l-0.2,0.3l-0.1,0.4v0.3
		l-0.1,0.3v0.4l0.1,0.3v0.3l0.1,0.4l0.2,0.3l0.2,0.3l0.2,0.3l0.2,0.3l0.3,0.3l0.3,0.3l0.4,0.3l0.4,0.3l0.4,0.2l0.4,0.2l0.4,0.3
		l0.5,0.2l0.5,0.1l0.5,0.2l0.6,0.2l0.5,0.1l0.6,0.1l0.5,0.1h0.6l0.6,0.1h0.6h0.6h0.6l0.5-0.1h0.6l0.6-0.1l0.5-0.1l0.6-0.1l0.5-0.2
		l0.5-0.2l0.5-0.1l0.5-0.2l0.5-0.3L16.75,9.55"/>
	<path fill="none" stroke="#000000" stroke-width="0.5" stroke-linecap="round" stroke-linejoin="round" stroke-miterlimit="10" d="
		M6.85,44.65l0.2,0.1l0.3,0.1l0.3,0.2l0.4,0.1l0.4,0.1l0.4,0.1h0.4h0.4l0.4,0.1h0.4l0.4-0.1h0.4l0.4-0.1l0.4-0.1l0.3-0.1l0.4-0.1
		l0.3-0.1l0.3-0.2 M15.65,41.25l0.1,0.2v0.2v0.3v0.3l-0.1,0.2l-0.1,0.3l-0.1,0.2l-0.2,0.3l-0.2,0.2l-0.2,0.2l-0.3,0.2l-0.3,0.2
		l-0.3,0.2l-0.3,0.2l-0.4,0.2l-0.4,0.1l-0.4,0.1l-0.4,0.1l-0.5,0.1h-0.4l-0.5,0.1h-0.4h-0.5h-0.4l-0.5-0.1h-0.4l-0.4-0.1l-0.5-0.1
		l-0.4-0.2l-0.3-0.1l-0.4-0.2l-0.3-0.2l-0.3-0.2l-0.3-0.2l-0.3-0.2l-0.2-0.2l-0.2-0.2l-0.1-0.3l-0.2-0.3v-0.2l-0.1-0.3v-0.2v-0.3
		l0.1-0.3 M4.45,40.65v0.2l0.1,0.2v0.3l0.2,0.2l0.1,0.3l0.2,0.2l0.2,0.3l0.3,0.2l0.3,0.2l0.3,0.2 M6.15,42.95l0.3,0.2l0.4,0.1
		l0.3,0.2l0.4,0.1l0.5,0.1l0.4,0.1l0.4,0.1h0.5h0.4h0.5h0.4h0.5l0.4-0.1h0.5l0.4-0.1l0.4-0.2l0.4-0.1l0.4-0.2l0.3-0.1l0.3-0.2
		l0.3-0.2l0.3-0.2l0.2-0.3l0.2-0.2l0.2-0.2l0.2-0.3l0.1-0.2v-0.3v-0.3 M4.55,39.75L4.55,39.75l-0.1,0.3v0.2v0.3l0.1,0.3v0.2l0.2,0.3
		l0.1,0.2l0.2,0.3l0.2,0.2l0.3,0.2l0.3,0.2l0.3,0.2 M6.15,42.65l0.3,0.2l0.4,0.2l0.3,0.1l0.4,0.1l0.5,0.1l0.4,0.1l0.4,0.1h0.5
		l0.4,0.1h0.5h0.4l0.5-0.1h0.4l0.5-0.1l0.4-0.1l0.4-0.1l0.4-0.2l0.4-0.1l0.3-0.2l0.3-0.2l0.3-0.2l0.3-0.2l0.2-0.2l0.2-0.3l0.2-0.2
		l0.2-0.2l0.1-0.3v-0.3v-0.2v-0.3v-0.3l-0.1-0.1 M4.45,39.05v0.2l0.1,0.3v0.3l0.2,0.2l0.1,0.3l0.2,0.2l0.2,0.2l0.3,0.3l0.3,0.2
		l0.3,0.2 M6.15,41.45l0.3,0.1l0.4,0.2l0.3,0.1l0.4,0.2l0.5,0.1l0.4,0.1h0.4l0.5,0.1h0.4h0.5h0.4h0.5l0.4-0.1l0.5-0.1l0.4-0.1
		l0.4-0.1l0.4-0.1l0.4-0.2l0.3-0.2l0.3-0.1l0.3-0.2l0.3-0.3l0.2-0.2l0.2-0.2l0.2-0.3l0.2-0.2l0.1-0.3v-0.2v-0.3v-0.1 M4.55,38.15
		v0.1l-0.1,0.2v0.3v0.3l0.1,0.2v0.3l0.2,0.3l0.1,0.2l0.2,0.2l0.2,0.3l0.3,0.2l0.3,0.2l0.3,0.2 M6.15,41.15l0.3,0.2l0.4,0.1l0.3,0.2
		l0.4,0.1l0.5,0.1l0.4,0.1l0.4,0.1h0.5h0.4l0.5,0.1l0.4-0.1h0.5l0.4-0.1h0.5l0.4-0.1l0.4-0.2l0.4-0.1l0.4-0.1l0.3-0.2l0.3-0.2
		l0.3-0.2l0.3-0.2l0.2-0.2l0.2-0.3l0.2-0.2l0.2-0.3l0.1-0.2v-0.3v-0.3v-0.2v-0.3l-0.1-0.2 M4.45,37.55v0.2l0.1,0.3v0.2l0.2,0.3
		l0.1,0.2l0.2,0.3l0.2,0.2l0.3,0.2l0.3,0.2l0.3,0.2 M6.15,39.85l0.3,0.2l0.4,0.2l0.3,0.1l0.4,0.1l0.5,0.2h0.4l0.4,0.1l0.5,0.1h0.4
		h0.5h0.4l0.5-0.1h0.4l0.5-0.1l0.4-0.1l0.4-0.1l0.4-0.2l0.4-0.1l0.3-0.2l0.3-0.2l0.3-0.2l0.3-0.2l0.2-0.2l0.2-0.2l0.2-0.3l0.2-0.2
		l0.1-0.3v-0.3v-0.2v-0.1 M4.55,36.65v0.1l-0.1,0.2v0.3v0.2l0.1,0.3v0.3l0.2,0.2l0.1,0.3l0.2,0.2l0.2,0.2l0.3,0.3l0.3,0.2l0.3,0.2
		 M6.15,39.65l0.3,0.1l0.4,0.2l0.3,0.2l0.4,0.1l0.5,0.1l0.4,0.1h0.4l0.5,0.1h0.4h0.5h0.4h0.5l0.4-0.1l0.5-0.1l0.4-0.1l0.4-0.1
		l0.4-0.1l0.4-0.2l0.3-0.1l0.3-0.2l0.3-0.2l0.3-0.2l0.2-0.3l0.2-0.2l0.2-0.3l0.2-0.2l0.1-0.3v-0.2v-0.3v-0.2v-0.3l-0.1-0.2
		 M4.45,36.05v0.2l0.1,0.2v0.3l0.2,0.3l0.1,0.2l0.2,0.2l0.2,0.3l0.3,0.2l0.3,0.2l0.3,0.2 M6.15,38.35l0.3,0.2l0.4,0.1l0.3,0.2
		l0.4,0.1l0.5,0.1l0.4,0.1l0.4,0.1h0.5l0.4,0.1h0.5l0.4-0.1h0.5l0.4-0.1h0.5l0.4-0.1l0.4-0.1l0.4-0.2l0.4-0.1l0.3-0.2l0.3-0.2
		l0.3-0.2l0.3-0.2l0.2-0.2l0.2-0.3l0.2-0.2l0.2-0.3l0.1-0.2v-0.3v-0.2v-0.1 M4.55,35.15L4.55,35.15l-0.1,0.3v0.3v0.2l0.1,0.3v0.2
		l0.2,0.3l0.1,0.2l0.2,0.3l0.2,0.2l0.3,0.2l0.3,0.2l0.3,0.2 M6.15,38.05l0.3,0.2l0.4,0.2l0.3,0.1l0.4,0.2l0.5,0.1h0.4l0.4,0.1
		l0.5,0.1h0.4h0.5h0.4l0.5-0.1h0.4l0.5-0.1l0.4-0.1l0.4-0.1l0.4-0.1l0.4-0.2l0.3-0.2l0.3-0.2l0.3-0.2l0.3-0.2l0.2-0.2l0.2-0.2
		l0.2-0.3l0.2-0.2l0.1-0.3v-0.2v-0.3v-0.3v-0.2l-0.1-0.2 M4.45,34.55v0.2l0.1,0.2v0.3l0.2,0.2l0.1,0.3l0.2,0.2l0.2,0.3l0.3,0.2
		l0.3,0.2l0.3,0.2 M6.15,36.85l0.3,0.2l0.4,0.1l0.3,0.2l0.4,0.1l0.5,0.1l0.4,0.1l0.4,0.1h0.5h0.4h0.5h0.4h0.5l0.4-0.1l0.5-0.1
		l0.4-0.1l0.4-0.1l0.4-0.1l0.4-0.2l0.3-0.1l0.3-0.2l0.3-0.2l0.3-0.2l0.2-0.3l0.2-0.2l0.2-0.2l0.2-0.3l0.1-0.3v-0.2v-0.3 M4.55,33.65
		L4.55,33.65l-0.1,0.3v0.2v0.3l0.1,0.3v0.2l0.2,0.3l0.1,0.2l0.2,0.3l0.2,0.2l0.3,0.2l0.3,0.2l0.3,0.2 M6.15,36.55l0.3,0.2l0.4,0.2
		l0.3,0.1l0.4,0.1l0.5,0.1l0.4,0.1l0.4,0.1h0.5l0.4,0.1h0.5h0.4l0.5-0.1h0.4l0.5-0.1l0.4-0.1l0.4-0.1l0.4-0.2l0.4-0.1l0.3-0.2
		l0.3-0.2l0.3-0.2l0.3-0.2l0.2-0.2l0.2-0.3l0.2-0.2l0.2-0.3l0.1-0.2v-0.3v-0.2v-0.3v-0.3l-0.1-0.1 M4.45,32.95v0.2l0.1,0.3v0.3
		l0.2,0.2l0.1,0.3l0.2,0.2l0.2,0.2l0.3,0.2l0.3,0.3l0.3,0.1 M6.15,35.25l0.3,0.2l0.4,0.2l0.3,0.1l0.4,0.2l0.5,0.1l0.4,0.1h0.4
		l0.5,0.1h0.4h0.5h0.4h0.5l0.4-0.1l0.5-0.1l0.4-0.1l0.4-0.1l0.4-0.1l0.4-0.2l0.3-0.2l0.3-0.1l0.3-0.2l0.3-0.3l0.2-0.2l0.2-0.2
		l0.2-0.3l0.2-0.2l0.1-0.3v-0.2v-0.3v-0.1 M4.55,32.05v0.1l-0.1,0.2v0.3v0.3l0.1,0.2v0.3l0.2,0.2l0.1,0.3l0.2,0.2l0.2,0.3l0.3,0.2
		l0.3,0.2l0.3,0.2 M6.15,35.05l0.3,0.2l0.4,0.1l0.3,0.2l0.4,0.1l0.5,0.1l0.4,0.1l0.4,0.1h0.5h0.4h0.5h0.4h0.5l0.4-0.1h0.5l0.4-0.1
		l0.4-0.2l0.4-0.1l0.4-0.2l0.3-0.1l0.3-0.2l0.3-0.2l0.3-0.2l0.2-0.3l0.2-0.2l0.2-0.2l0.2-0.3l0.1-0.2v-0.3v-0.3v-0.2v-0.3l-0.1-0.2
		 M4.45,31.45v0.2l0.1,0.3v0.2l0.2,0.3l0.1,0.2l0.2,0.3l0.2,0.2l0.3,0.2l0.3,0.2l0.3,0.2 M6.15,33.75l0.3,0.2l0.4,0.2l0.3,0.1
		l0.4,0.1l0.5,0.1l0.4,0.1l0.4,0.1h0.5l0.4,0.1h0.5h0.4l0.5-0.1h0.4l0.5-0.1l0.4-0.1l0.4-0.1l0.4-0.2l0.4-0.1l0.3-0.2l0.3-0.2
		l0.3-0.2l0.3-0.2l0.2-0.2l0.2-0.3l0.2-0.2l0.2-0.2l0.1-0.3v-0.3v-0.2v-0.1 M4.55,30.55v0.1l-0.1,0.2v0.3v0.2l0.1,0.3v0.3l0.2,0.2
		l0.1,0.3l0.2,0.2l0.2,0.2l0.3,0.3l0.3,0.2l0.3,0.2 M6.15,33.55l0.3,0.1l0.4,0.2l0.3,0.1l0.4,0.2l0.5,0.1l0.4,0.1h0.4l0.5,0.1h0.4
		h0.5h0.4h0.5l0.4-0.1l0.5-0.1l0.4-0.1l0.4-0.1l0.4-0.1l0.4-0.2l0.3-0.2l0.3-0.1l0.3-0.2l0.3-0.3l0.2-0.2l0.2-0.2l0.2-0.3l0.2-0.2
		l0.1-0.3v-0.2v-0.3v-0.3v-0.2l-0.1-0.2 M4.45,29.95v0.2l0.1,0.2v0.3l0.2,0.3l0.1,0.2l0.2,0.2l0.2,0.3l0.3,0.2l0.3,0.2l0.3,0.2
		 M6.15,32.25l0.3,0.2l0.4,0.1l0.3,0.2l0.4,0.1l0.5,0.1l0.4,0.1l0.4,0.1h0.5h0.4h0.5h0.4h0.5l0.4-0.1h0.5l0.4-0.1l0.4-0.2l0.4-0.1
		l0.4-0.1l0.3-0.2l0.3-0.2l0.3-0.2l0.3-0.2l0.2-0.2l0.2-0.3l0.2-0.2l0.2-0.3l0.1-0.2v-0.3v-0.3 M4.55,29.05L4.55,29.05l-0.1,0.3v0.2
		v0.3l0.1,0.3v0.2l0.2,0.3l0.1,0.2l0.2,0.3l0.2,0.2l0.3,0.2l0.3,0.2l0.3,0.2 M6.15,31.95l0.3,0.2l0.4,0.2l0.3,0.1l0.4,0.1l0.5,0.1
		l0.4,0.1l0.4,0.1l0.5,0.1h0.4h0.5h0.4l0.5-0.1h0.4l0.5-0.1l0.4-0.1l0.4-0.1l0.4-0.2l0.4-0.1l0.3-0.2l0.3-0.2l0.3-0.2l0.3-0.2
		l0.2-0.2l0.2-0.2l0.2-0.3l0.2-0.2l0.1-0.3v-0.3v-0.2v-0.3v-0.2l-0.1-0.2 M4.45,28.35v0.2l0.1,0.3v0.3l0.2,0.2l0.1,0.3l0.2,0.2
		l0.2,0.2l0.3,0.3l0.3,0.2l0.3,0.2 M6.15,30.75l0.3,0.1l0.4,0.2l0.3,0.1l0.4,0.2l0.5,0.1l0.4,0.1h0.4l0.5,0.1h0.4h0.5h0.4h0.5
		l0.4-0.1l0.5-0.1l0.4-0.1l0.4-0.1l0.4-0.1l0.4-0.2l0.3-0.1l0.3-0.2l0.3-0.2l0.3-0.2l0.2-0.3l0.2-0.2l0.2-0.3l0.2-0.2l0.1-0.3v-0.2
		v-0.3v-0.1 M4.55,27.55L4.55,27.55l-0.1,0.3v0.2v0.3l0.1,0.2v0.3l0.2,0.3l0.1,0.2l0.2,0.2l0.2,0.3l0.3,0.2l0.3,0.2l0.3,0.2
		 M6.15,30.45l0.3,0.2l0.4,0.1l0.3,0.2l0.4,0.1l0.5,0.1l0.4,0.1l0.4,0.1h0.5l0.4,0.1h0.5l0.4-0.1h0.5l0.4-0.1h0.5l0.4-0.1l0.4-0.1
		l0.4-0.2l0.4-0.1l0.3-0.2l0.3-0.2l0.3-0.2l0.3-0.2l0.2-0.2l0.2-0.3l0.2-0.2l0.2-0.3l0.1-0.2v-0.3v-0.2v-0.3v-0.3l-0.1-0.1
		 M4.45,26.85v0.2l0.1,0.3v0.2l0.2,0.3l0.1,0.2l0.2,0.3l0.2,0.2l0.3,0.2l0.3,0.2l0.3,0.2 M6.15,29.15l0.3,0.2l0.4,0.2l0.3,0.1
		l0.4,0.1l0.5,0.2h0.4l0.4,0.1l0.5,0.1h0.4h0.5h0.4l0.5-0.1h0.4l0.5-0.1l0.4-0.1l0.4-0.1l0.4-0.1l0.4-0.2l0.3-0.2l0.3-0.2l0.3-0.2
		l0.3-0.2l0.2-0.2l0.2-0.2l0.2-0.3l0.2-0.2l0.1-0.3v-0.2v-0.3v-0.1 M4.55,25.95v0.1l-0.1,0.2v0.3v0.3l0.1,0.2v0.3l0.2,0.2l0.1,0.3
		l0.2,0.2l0.2,0.3l0.3,0.2l0.3,0.2l0.3,0.2 M6.15,28.95l0.3,0.2l0.4,0.1l0.3,0.2l0.4,0.1l0.5,0.1l0.4,0.1l0.4,0.1h0.5h0.4h0.5h0.4
		h0.5l0.4-0.1l0.5-0.1l0.4-0.1l0.4-0.1l0.4-0.1l0.4-0.2l0.3-0.1l0.3-0.2l0.3-0.2l0.3-0.2l0.2-0.3l0.2-0.2l0.2-0.2l0.2-0.3l0.1-0.3
		v-0.2v-0.3v-0.2v-0.3l-0.1-0.2 M4.45,25.35v0.2l0.1,0.3v0.2l0.2,0.3l0.1,0.2l0.2,0.3l0.2,0.2l0.3,0.2l0.3,0.2l0.3,0.2 M6.15,27.65
		l0.3,0.2l0.4,0.1l0.3,0.2l0.4,0.1l0.5,0.1l0.4,0.1l0.4,0.1h0.5l0.4,0.1h0.5l0.4-0.1h0.5h0.4l0.5-0.1l0.4-0.1l0.4-0.1l0.4-0.2
		l0.4-0.1l0.3-0.2l0.3-0.2l0.3-0.2l0.3-0.2l0.2-0.2l0.2-0.3l0.2-0.2l0.2-0.3l0.1-0.2v-0.3v-0.2v-0.1 M4.55,24.45L4.55,24.45
		l-0.1,0.3v0.3v0.2l0.1,0.3v0.2l0.2,0.3l0.1,0.3l0.2,0.2l0.2,0.2l0.3,0.2l0.3,0.3l0.3,0.1 M6.15,27.35l0.3,0.2l0.4,0.2l0.3,0.1
		l0.4,0.2l0.5,0.1l0.4,0.1h0.4l0.5,0.1h0.4h0.5h0.4l0.5-0.1h0.4l0.5-0.1l0.4-0.1l0.4-0.1l0.4-0.1l0.4-0.2l0.3-0.2l0.3-0.2l0.3-0.2
		l0.3-0.2l0.2-0.2l0.2-0.2l0.2-0.3l0.2-0.2l0.1-0.3v-0.2v-0.3v-0.3v-0.2l-0.1-0.2 M4.45,23.85v0.2l0.1,0.2v0.3l0.2,0.2l0.1,0.3
		l0.2,0.2l0.2,0.3l0.3,0.2l0.3,0.2l0.3,0.2 M6.15,26.15l0.3,0.2l0.4,0.1l0.3,0.2l0.4,0.1l0.5,0.1l0.4,0.1l0.4,0.1h0.5h0.4h0.5h0.4
		h0.5l0.4-0.1l0.5-0.1h0.4l0.4-0.2l0.4-0.1l0.4-0.2l0.3-0.1l0.3-0.2l0.3-0.2l0.3-0.2l0.2-0.3l0.2-0.2l0.2-0.2l0.2-0.3l0.1-0.2v-0.3
		v-0.3 M4.55,22.95L4.55,22.95l-0.1,0.3v0.2v0.3l0.1,0.3v0.2l0.2,0.3l0.1,0.2l0.2,0.3l0.2,0.2l0.3,0.2l0.3,0.2l0.3,0.2 M6.15,25.85
		l0.3,0.2l0.4,0.2l0.3,0.1l0.4,0.1l0.5,0.1l0.4,0.1l0.4,0.1h0.5l0.4,0.1h0.5h0.4l0.5-0.1h0.4l0.5-0.1l0.4-0.1l0.4-0.1l0.4-0.2
		l0.4-0.1l0.3-0.2l0.3-0.2l0.3-0.2l0.3-0.2l0.2-0.2l0.2-0.3l0.2-0.2l0.2-0.3l0.1-0.2v-0.3v-0.2v-0.3v-0.3l-0.1-0.1 M4.45,22.25v0.2
		l0.1,0.3v0.3l0.2,0.2l0.1,0.3l0.2,0.2l0.2,0.2l0.3,0.3l0.3,0.2l0.3,0.2 M6.15,24.65l0.3,0.1l0.4,0.2l0.3,0.1l0.4,0.2l0.5,0.1
		l0.4,0.1h0.4l0.5,0.1h0.4h0.5h0.4h0.5l0.4-0.1l0.5-0.1l0.4-0.1l0.4-0.1l0.4-0.1l0.4-0.2l0.3-0.2l0.3-0.1l0.3-0.2l0.3-0.3l0.2-0.2
		l0.2-0.2l0.2-0.3l0.2-0.2l0.1-0.3v-0.2v-0.3v-0.1 M4.55,21.35v0.1l-0.1,0.2v0.3v0.3l0.1,0.2v0.3l0.2,0.2l0.1,0.3l0.2,0.2l0.2,0.3
		l0.3,0.2l0.3,0.2l0.3,0.2 M6.15,24.35l0.3,0.2l0.4,0.1l0.3,0.2l0.4,0.1l0.5,0.1l0.4,0.1l0.4,0.1h0.5h0.4h0.5h0.4h0.5l0.4-0.1h0.5
		l0.4-0.1l0.4-0.2l0.4-0.1l0.4-0.1l0.3-0.2l0.3-0.2l0.3-0.2l0.3-0.2l0.2-0.2l0.2-0.3l0.2-0.2l0.2-0.3l0.1-0.2v-0.3v-0.3v-0.2v-0.3
		l-0.1-0.2 M4.45,20.75v0.2l0.1,0.3v0.2l0.2,0.3l0.1,0.2l0.2,0.3l0.2,0.2l0.3,0.2l0.3,0.2l0.3,0.2 M6.15,23.05l0.3,0.2l0.4,0.2
		l0.3,0.1l0.4,0.1l0.5,0.1l0.4,0.1l0.4,0.1l0.5,0.1h0.4h0.5h0.4l0.5-0.1h0.4l0.5-0.1l0.4-0.1l0.4-0.1l0.4-0.2l0.4-0.1l0.3-0.2
		l0.3-0.2l0.3-0.2l0.3-0.2l0.2-0.2l0.2-0.2l0.2-0.3l0.2-0.2l0.1-0.3v-0.3v-0.2v-0.1 M4.55,19.85v0.1l-0.1,0.2v0.3v0.2l0.1,0.3v0.3
		l0.2,0.2l0.1,0.3l0.2,0.2l0.2,0.2l0.3,0.3l0.3,0.2l0.3,0.2 M6.15,22.85l0.3,0.1l0.4,0.2l0.3,0.1l0.4,0.2l0.5,0.1l0.4,0.1h0.4
		l0.5,0.1h0.4h0.5h0.4h0.5l0.4-0.1l0.5-0.1l0.4-0.1l0.4-0.1l0.4-0.1l0.4-0.2l0.3-0.1l0.3-0.2l0.3-0.2l0.3-0.2l0.2-0.3l0.2-0.2
		l0.2-0.3l0.2-0.2l0.1-0.3v-0.2v-0.3v-0.3v-0.2l-0.1-0.2 M11.25,7.95l-2.4-0.4 M12.25,8.05l-1-0.1 M8.85,7.55l-0.8,0.5 M8.85,7.55
		v-4.6 M4.55,19.75v0.2l0.2,0.3l0.1,0.2l0.2,0.2l0.2,0.3l0.3,0.2l0.3,0.2l0.3,0.2 M6.15,21.55l0.3,0.2l0.4,0.1l0.3,0.2l0.4,0.1
		l0.5,0.1l0.4,0.1l0.4,0.1h0.5h0.4l0.5,0.1l0.4-0.1h0.5l0.4-0.1h0.5l0.4-0.1l0.4-0.2l0.4-0.1l0.4-0.1l0.3-0.2l0.3-0.2l0.3-0.2
		l0.3-0.2l0.2-0.2l0.2-0.3l0.2-0.2l0.2-0.3l0.1-0.2v-0.1 M13.65,7.25v-3.6 M12.15,8.15h-0.1l-0.4-0.1l-0.4-0.1 M11.25,7.95l-0.4-0.1
		h-0.4h-0.4h-0.4l-0.4,0.1h-0.4l-0.4,0.1h-0.1 M13.65,3.65l1.3,2.8 M11.45,8.55l3.5-2.1 M11.45,8.55l-4.9-0.8 M6.55,7.75l-1.3-2.8
		 M8.85,2.95l-3.6,2 M13.65,3.65l-4.8-0.7 M0.25,15.05v0.2v0.3l0.1,0.4l0.1,0.3l0.1,0.3l0.2,0.4l0.3,0.3l0.2,0.3l0.3,0.3l0.3,0.3
		l0.4,0.3l0.3,0.3l0.5,0.2l0.4,0.3l0.4,0.2l0.5,0.2l0.5,0.2l0.6,0.2l0.5,0.1l0.6,0.2l0.5,0.1l0.6,0.1l0.6,0.1h0.6l0.6,0.1h0.6h0.6
		l0.6-0.1h0.6l0.6-0.1l0.6-0.1l0.6-0.1l0.5-0.1l0.6-0.2l0.5-0.1l0.5-0.2l0.5-0.2l0.5-0.3l0.4-0.2 M17.15,19.05l0.4-0.3l0.4-0.2
		l0.4-0.3l0.3-0.3l0.3-0.3l0.2-0.3l0.3-0.3l0.2-0.4l0.1-0.3l0.1-0.3l0.1-0.4l0.1-0.3v-0.3 M20.05,6.15v0.1 M0.25,6.25L0.25,6.25
		 M13.35,44.65l0.8-0.5 M6.15,44.15l0.7,0.5 M15.75,40.65v-0.3 M4.45,40.35v0.3 M15.75,39.05v-0.2 M4.45,38.85v0.2 M15.75,37.55
		v-0.2 M4.45,37.35v0.2 M15.75,36.05v-0.3 M4.45,35.75v0.3 M15.75,34.55v-0.3 M4.45,34.25v0.3 M15.75,32.95v-0.2 M4.45,32.75v0.2
		 M15.75,31.45v-0.3 M4.45,31.15v0.3 M15.75,29.95v-0.3 M4.45,29.65v0.3 M15.75,28.35v-0.2 M4.45,28.15v0.2 M15.75,26.85v-0.2
		 M4.45,26.65v0.2 M15.75,25.35v-0.3 M4.45,25.05v0.3 M15.75,23.85v-0.3 M4.45,23.55v0.3 M15.75,22.25v-0.2 M4.45,22.05v0.2
		 M15.75,20.75v-0.3 M4.45,20.45v0.3 M20.05,15.05v-8.8 M0.25,6.25v8.8 M20.05,6.15v-0.2l-0.1-0.4v-0.3l-0.1-0.4l-0.2-0.3l-0.1-0.3
		l-0.3-0.3l-0.2-0.4l-0.3-0.3l-0.2-0.3l-0.4-0.2l-0.3-0.3l-0.4-0.3l-0.4-0.2l-0.4-0.3l-0.5-0.2l-0.4-0.2l-0.5-0.2l-0.5-0.1l-0.5-0.2
		l-0.6-0.1l-0.5-0.1l-0.5-0.1l-0.6-0.1l-0.6-0.1h-0.5h-0.6h-0.6h-0.5l-0.6,0.1h-0.6l-0.5,0.1l-0.6,0.1l-0.5,0.1l-0.5,0.1l-0.5,0.2
		l-0.5,0.2l-0.5,0.2l-0.5,0.2l-0.4,0.2l-0.4,0.2l-0.4,0.3l-0.4,0.2l-0.4,0.3l-0.3,0.3l-0.3,0.3l-0.2,0.3l-0.3,0.3l-0.2,0.4l-0.1,0.3
		l-0.1,0.4l-0.1,0.3l-0.1,0.4v0.3v0.2"/>
</g>
</svg>
