<?xml version="1.0" encoding="utf-8"?>
<!-- Generator: Adobe Illustrator 19.0.0, SVG Export Plug-In . SVG Version: 6.00 Build 0)  -->
<svg version="1.0" id="Layer_1" xmlns="http://www.w3.org/2000/svg" xmlns:xlink="http://www.w3.org/1999/xlink" x="0px" y="0px"
	 width="20.4px" height="64.2px" viewBox="0 0 20.4 64.2" enable-background="new 0 0 20.4 64.2" xml:space="preserve">
<g>
	
		<path fill="none" stroke="#000000" stroke-width="0.25" stroke-linecap="round" stroke-linejoin="round" stroke-miterlimit="10" d="
		M20.15,6.25L20.15,6.25v0.4l-0.1,0.4l-0.1,0.4l-0.2,0.4l-0.2,0.4l-0.3,0.4l-0.3,0.3l-0.4,0.4l-0.4,0.3l-0.4,0.3l-0.5,0.3
		 M17.25,10.25l-0.5,0.3l-0.6,0.3l-0.6,0.2l-0.6,0.2l-0.6,0.2l-0.7,0.2l-0.6,0.1l-0.7,0.1l-0.7,0.1h-0.7h-0.7h-0.7h-0.7l-0.7-0.1
		l-0.7-0.1l-0.7-0.1l-0.7-0.2l-0.6-0.2l-0.6-0.2l-0.6-0.2l-0.5-0.3l-0.5-0.3l-0.5-0.3l-0.5-0.3l-0.4-0.3l-0.3-0.4l-0.4-0.3l-0.2-0.4
		l-0.3-0.4l-0.1-0.4l-0.2-0.4v-0.4l-0.1-0.4 M16.85,9.55l0.5-0.3l0.4-0.3l0.4-0.3l0.3-0.3l0.3-0.4l0.3-0.4l0.2-0.3l0.1-0.4l0.2-0.4
		v-0.4v-0.4v-0.4l-0.1-0.4l-0.2-0.4l-0.2-0.4l-0.2-0.4l-0.3-0.3l-0.3-0.4l-0.4-0.3l-0.4-0.3l-0.5-0.3l-0.5-0.3l-0.5-0.3l-0.6-0.2
		l-0.6-0.2l-0.6-0.2l-0.6-0.1l-0.7-0.2l-0.7-0.1h-0.6l-0.7-0.1h-0.7h-0.7l-0.7,0.1l-0.7,0.1l-0.6,0.1l-0.7,0.1l-0.6,0.2l-0.6,0.2
		l-0.6,0.2l-0.6,0.2l-0.5,0.3l-0.5,0.2l-0.4,0.3l-0.4,0.4l-0.4,0.3l-0.3,0.4l-0.3,0.3l-0.3,0.4l-0.1,0.4l-0.2,0.4l-0.1,0.4v0.4v0.4
		l0.1,0.4l0.1,0.4l0.2,0.3l0.2,0.4l0.3,0.4l0.3,0.3l0.4,0.4l0.4,0.3l0.4,0.3l0.5,0.3l0.5,0.3l0.5,0.2l0.6,0.2l0.6,0.2l0.6,0.2
		l0.7,0.1l0.7,0.2h0.6l0.7,0.1h0.7h0.7h0.7l0.7-0.1l0.6-0.1l0.7-0.1l0.6-0.1l0.7-0.2l0.6-0.2l0.5-0.2l0.6-0.3L16.85,9.55"/>
	<path fill="none" stroke="#000000" stroke-width="0.5" stroke-linecap="round" stroke-linejoin="round" stroke-miterlimit="10" d="
		M6.95,63.15l0.3,0.2l0.4,0.1l0.4,0.2l0.5,0.1l0.4,0.1l0.5,0.1h0.5h0.5h0.4l0.5-0.1l0.5-0.1l0.4-0.1l0.4-0.1l0.4-0.2l0.4-0.2
		 M4.55,60.45v0.2l0.1,0.3l0.1,0.3l0.2,0.3l0.2,0.3l0.2,0.3l0.3,0.2l0.4,0.3l0.4,0.2l0.4,0.2l0.4,0.2l0.5,0.1l0.5,0.1l0.5,0.1
		l0.5,0.1h0.6h0.5h0.5h0.6l0.5-0.1l0.5-0.1l0.5-0.2l0.4-0.1l0.5-0.2l0.4-0.2 M14.25,62.75l0.3-0.2l0.4-0.3l0.2-0.3l0.3-0.2l0.2-0.3
		l0.1-0.3l0.1-0.3v-0.4 M4.65,59.75v0.1l-0.1,0.3v0.3v0.3l0.1,0.3l0.2,0.3l0.2,0.3l0.2,0.3l0.3,0.2l0.3,0.3l0.4,0.2 M6.25,62.65
		l0.4,0.2l0.4,0.2l0.5,0.2l0.4,0.1l0.5,0.1l0.6,0.1l0.5,0.1h0.5h0.6l0.5-0.1h0.5l0.6-0.1l0.4-0.1l0.5-0.2l0.5-0.2l0.4-0.2l0.4-0.2
		l0.3-0.2l0.3-0.3l0.3-0.3l0.2-0.2l0.1-0.3l0.2-0.3v-0.4v-0.3v-0.3l-0.1-0.2 M4.55,59.05v0.1v0.3l0.1,0.3l0.2,0.3l0.2,0.3l0.2,0.3
		l0.3,0.3l0.3,0.2l0.4,0.3 M6.25,61.45l0.4,0.2l0.4,0.2l0.5,0.1l0.4,0.2l0.5,0.1h0.6l0.5,0.1h0.5h0.6h0.5l0.5-0.1l0.6-0.1l0.4-0.1
		l0.5-0.2l0.5-0.1l0.4-0.2l0.4-0.3l0.3-0.2l0.3-0.3l0.3-0.2l0.2-0.3l0.1-0.3l0.2-0.3v-0.3v-0.3 M4.65,58.15v0.1l-0.1,0.3v0.3v0.3
		l0.1,0.3l0.2,0.3l0.2,0.3l0.2,0.3l0.3,0.3l0.3,0.2l0.4,0.2 M6.25,61.05l0.4,0.2l0.4,0.2l0.5,0.2l0.4,0.1l0.5,0.1l0.6,0.1l0.5,0.1
		h0.5h0.6l0.5-0.1h0.5l0.6-0.1l0.4-0.1l0.5-0.2l0.5-0.2l0.4-0.2l0.4-0.2l0.3-0.2l0.3-0.3l0.3-0.3l0.2-0.2l0.1-0.3l0.2-0.3v-0.3v-0.4
		v-0.3l-0.1-0.2 M4.55,57.55L4.55,57.55v0.3l0.1,0.3l0.2,0.3l0.2,0.3l0.2,0.3l0.3,0.3l0.3,0.2l0.4,0.3 M6.25,59.85l0.4,0.2l0.4,0.2
		l0.5,0.1l0.4,0.2l0.5,0.1l0.6,0.1h0.5h0.5h0.6h0.5l0.5-0.1l0.6-0.1l0.4-0.1l0.5-0.2l0.5-0.1l0.4-0.2l0.4-0.2l0.3-0.3l0.3-0.2
		l0.3-0.3l0.2-0.3l0.1-0.3l0.2-0.3v-0.3v-0.2 M4.65,56.55v0.1l-0.1,0.3v0.3v0.3l0.1,0.3l0.2,0.3l0.2,0.3l0.2,0.3l0.3,0.3l0.3,0.2
		l0.4,0.2 M6.25,59.45l0.4,0.2l0.4,0.2l0.5,0.2l0.4,0.1l0.5,0.1l0.6,0.1l0.5,0.1h0.5h0.6h0.5l0.5-0.1l0.6-0.1l0.4-0.1l0.5-0.2
		l0.5-0.2l0.4-0.2l0.4-0.2l0.3-0.2l0.3-0.3l0.3-0.2l0.2-0.3l0.1-0.3l0.2-0.3v-0.3v-0.4v-0.3l-0.1-0.2 M4.55,55.95L4.55,55.95v0.3
		l0.1,0.4l0.2,0.3l0.2,0.2l0.2,0.3l0.3,0.3l0.3,0.2l0.4,0.3 M6.25,58.25l0.4,0.2l0.4,0.2l0.5,0.1l0.4,0.2l0.5,0.1l0.6,0.1h0.5h0.5
		h0.6h0.5l0.5-0.1l0.6-0.1l0.4-0.1l0.5-0.1l0.5-0.2l0.4-0.2l0.4-0.2l0.3-0.3l0.3-0.2l0.3-0.3l0.2-0.3l0.1-0.3l0.2-0.3v-0.3v-0.2
		 M4.65,54.95v0.1l-0.1,0.3v0.3v0.3l0.1,0.3l0.2,0.3l0.2,0.3l0.2,0.3l0.3,0.3l0.3,0.2l0.4,0.2 M6.25,57.85l0.4,0.3l0.4,0.1l0.5,0.2
		l0.4,0.1l0.5,0.1l0.6,0.1l0.5,0.1h0.5h0.6h0.5l0.5-0.1l0.6-0.1l0.4-0.1l0.5-0.2l0.5-0.2l0.4-0.1l0.4-0.3l0.3-0.2l0.3-0.3l0.3-0.2
		l0.2-0.3l0.1-0.3l0.2-0.3v-0.3v-0.3v-0.4l-0.1-0.2 M4.55,54.35L4.55,54.35v0.4l0.1,0.3l0.2,0.3l0.2,0.3l0.2,0.2l0.3,0.3l0.3,0.2
		l0.4,0.3 M6.25,56.65l0.4,0.2l0.4,0.2l0.5,0.1l0.4,0.2l0.5,0.1l0.6,0.1h0.5h0.5h0.6h0.5l0.5-0.1l0.6-0.1l0.4-0.1l0.5-0.1l0.5-0.2
		l0.4-0.2l0.4-0.2l0.3-0.3l0.3-0.2l0.3-0.3l0.2-0.3l0.1-0.3l0.2-0.3v-0.3v-0.2 M4.65,53.35v0.1l-0.1,0.3v0.3v0.3l0.1,0.3l0.2,0.3
		l0.2,0.3l0.2,0.3l0.3,0.3l0.3,0.2l0.4,0.3 M6.25,56.35l0.4,0.2l0.4,0.1l0.5,0.2l0.4,0.1l0.5,0.2h0.6l0.5,0.1h0.5h0.6h0.5l0.5-0.1
		l0.6-0.1l0.4-0.1l0.5-0.2l0.5-0.1l0.4-0.2l0.4-0.3l0.3-0.2l0.3-0.3l0.3-0.2l0.2-0.3l0.1-0.3l0.2-0.3v-0.3v-0.3v-0.4l-0.1-0.2
		 M4.55,52.75L4.55,52.75v0.4l0.1,0.3l0.2,0.3l0.2,0.3l0.2,0.2l0.3,0.3l0.3,0.3l0.4,0.2 M6.25,55.05l0.4,0.2l0.4,0.2l0.5,0.1
		l0.4,0.2l0.5,0.1l0.6,0.1h0.5h0.5h0.6h0.5l0.5-0.1l0.6-0.1l0.4-0.1l0.5-0.1l0.5-0.2l0.4-0.2l0.4-0.2l0.3-0.3l0.3-0.2l0.3-0.3
		l0.2-0.3l0.1-0.3l0.2-0.3v-0.3v-0.2 M4.65,51.75v0.1l-0.1,0.3v0.3v0.3l0.1,0.3l0.2,0.3l0.2,0.3l0.2,0.3l0.3,0.3l0.3,0.2l0.4,0.3
		 M6.25,54.75l0.4,0.2l0.4,0.2l0.5,0.1l0.4,0.2l0.5,0.1h0.6l0.5,0.1h0.5h0.6h0.5l0.5-0.1l0.6-0.1l0.4-0.1l0.5-0.2l0.5-0.1l0.4-0.2
		l0.4-0.3l0.3-0.2l0.3-0.3l0.3-0.2l0.2-0.3l0.1-0.3l0.2-0.3v-0.3v-0.3v-0.3l-0.1-0.3 M4.55,51.15v0.1v0.3l0.1,0.3l0.2,0.3l0.2,0.3
		l0.2,0.2l0.3,0.3l0.3,0.3l0.4,0.2 M6.25,53.45l0.4,0.2l0.4,0.2l0.5,0.2l0.4,0.1l0.5,0.1l0.6,0.1h0.5l0.5,0.1l0.6-0.1h0.5l0.5-0.1
		l0.6-0.1l0.4-0.1l0.5-0.1l0.5-0.2l0.4-0.2l0.4-0.2l0.3-0.3l0.3-0.2l0.3-0.3l0.2-0.3l0.1-0.3l0.2-0.3v-0.3v-0.2 M4.65,50.15v0.1
		l-0.1,0.3v0.3v0.3l0.1,0.3l0.2,0.3l0.2,0.3l0.2,0.3l0.3,0.3l0.3,0.2l0.4,0.3 M6.25,53.15l0.4,0.2l0.4,0.2l0.5,0.1l0.4,0.2l0.5,0.1
		h0.6l0.5,0.1h0.5h0.6h0.5l0.5-0.1l0.6-0.1l0.4-0.1l0.5-0.2l0.5-0.1l0.4-0.2l0.4-0.2l0.3-0.3l0.3-0.2l0.3-0.3l0.2-0.3l0.1-0.3
		l0.2-0.3v-0.3v-0.3v-0.3l-0.1-0.3 M4.55,49.55v0.1v0.3l0.1,0.3l0.2,0.3l0.2,0.3l0.2,0.3l0.3,0.2l0.3,0.3l0.4,0.2 M6.25,51.85
		l0.4,0.2l0.4,0.2l0.5,0.2l0.4,0.1l0.5,0.1l0.6,0.1h0.5l0.5,0.1l0.6-0.1h0.5l0.5-0.1h0.6l0.4-0.2l0.5-0.1l0.5-0.2l0.4-0.2l0.4-0.2
		l0.3-0.3l0.3-0.2l0.3-0.3l0.2-0.3l0.1-0.3l0.2-0.3v-0.3v-0.2 M4.65,48.55v0.1l-0.1,0.3v0.3v0.3l0.1,0.4l0.2,0.3l0.2,0.2l0.2,0.3
		l0.3,0.3l0.3,0.2l0.4,0.3 M6.25,51.55l0.4,0.2l0.4,0.2l0.5,0.1l0.4,0.2l0.5,0.1l0.6,0.1h0.5h0.5h0.6h0.5l0.5-0.1l0.6-0.1l0.4-0.1
		l0.5-0.1l0.5-0.2l0.4-0.2l0.4-0.2l0.3-0.3l0.3-0.2l0.3-0.3l0.2-0.3l0.1-0.3l0.2-0.3v-0.3v-0.3v-0.3l-0.1-0.3 M4.55,47.95v0.1v0.3
		l0.1,0.3l0.2,0.3l0.2,0.3l0.2,0.3l0.3,0.2l0.3,0.3l0.4,0.2 M6.25,50.25l0.4,0.2l0.4,0.2l0.5,0.2l0.4,0.1l0.5,0.1l0.6,0.1h0.5
		l0.5,0.1h0.6l0.5-0.1h0.5l0.6-0.1l0.4-0.2l0.5-0.1l0.5-0.2l0.4-0.2l0.4-0.2l0.3-0.2l0.3-0.3l0.3-0.3l0.2-0.3l0.1-0.3l0.2-0.3v-0.3
		v-0.2 M4.65,46.95v0.1l-0.1,0.3v0.3v0.4l0.1,0.3l0.2,0.3l0.2,0.3l0.2,0.2l0.3,0.3l0.3,0.2l0.4,0.3 M6.25,49.95l0.4,0.2l0.4,0.2
		l0.5,0.1l0.4,0.2l0.5,0.1l0.6,0.1h0.5h0.5h0.6h0.5l0.5-0.1l0.6-0.1l0.4-0.1l0.5-0.1l0.5-0.2l0.4-0.2l0.4-0.2l0.3-0.3l0.3-0.2
		l0.3-0.3l0.2-0.3l0.1-0.3l0.2-0.3v-0.3v-0.3v-0.3l-0.1-0.3 M4.55,46.35v0.1v0.3l0.1,0.3l0.2,0.3l0.2,0.3l0.2,0.3l0.3,0.2l0.3,0.3
		l0.4,0.2 M6.25,48.65l0.4,0.2l0.4,0.2l0.5,0.2l0.4,0.1l0.5,0.1l0.6,0.1h0.5l0.5,0.1h0.6l0.5-0.1h0.5l0.6-0.1l0.4-0.2l0.5-0.1
		l0.5-0.2l0.4-0.2l0.4-0.2l0.3-0.2l0.3-0.3l0.3-0.3l0.2-0.3l0.1-0.3l0.2-0.3v-0.3v-0.2 M4.65,45.35v0.1l-0.1,0.3v0.3v0.4l0.1,0.3
		l0.2,0.3l0.2,0.3l0.2,0.2l0.3,0.3l0.3,0.3l0.4,0.2 M6.25,48.35l0.4,0.2l0.4,0.2l0.5,0.1l0.4,0.2l0.5,0.1l0.6,0.1h0.5h0.5h0.6h0.5
		l0.5-0.1l0.6-0.1l0.4-0.1l0.5-0.1l0.5-0.2l0.4-0.2l0.4-0.2l0.3-0.3l0.3-0.2l0.3-0.3l0.2-0.3l0.1-0.3l0.2-0.3v-0.3v-0.3v-0.3
		l-0.1-0.3 M4.55,44.75v0.1v0.3l0.1,0.3l0.2,0.3l0.2,0.3l0.2,0.3l0.3,0.2l0.3,0.3l0.4,0.2 M6.25,47.05l0.4,0.2l0.4,0.2l0.5,0.2
		l0.4,0.1l0.5,0.1l0.6,0.1l0.5,0.1h0.5h0.6l0.5-0.1h0.5l0.6-0.1l0.4-0.2l0.5-0.1l0.5-0.2l0.4-0.2l0.4-0.2l0.3-0.2l0.3-0.3l0.3-0.3
		l0.2-0.3l0.1-0.2l0.2-0.4v-0.3v-0.2 M4.65,43.75v0.1l-0.1,0.3v0.4v0.3l0.1,0.3l0.2,0.3l0.2,0.3l0.2,0.2l0.3,0.3l0.3,0.3l0.4,0.2
		 M6.25,46.75l0.4,0.2l0.4,0.2l0.5,0.1l0.4,0.2l0.5,0.1l0.6,0.1h0.5h0.5h0.6h0.5l0.5-0.1l0.6-0.1l0.4-0.1l0.5-0.1l0.5-0.2l0.4-0.2
		l0.4-0.2l0.3-0.3l0.3-0.2l0.3-0.3l0.2-0.3l0.1-0.3l0.2-0.3v-0.3v-0.3v-0.3l-0.1-0.3 M4.55,43.15v0.1v0.3l0.1,0.3l0.2,0.3l0.2,0.3
		l0.2,0.3l0.3,0.2l0.3,0.3l0.4,0.2 M6.25,45.45l0.4,0.2l0.4,0.2l0.5,0.2l0.4,0.1l0.5,0.1l0.6,0.1l0.5,0.1h0.5h0.6l0.5-0.1h0.5
		l0.6-0.1l0.4-0.1l0.5-0.2l0.5-0.2l0.4-0.2l0.4-0.2l0.3-0.2l0.3-0.3l0.3-0.3l0.2-0.2l0.1-0.3l0.2-0.3v-0.4v-0.2 M4.65,42.15v0.1
		l-0.1,0.3v0.4v0.3l0.1,0.3l0.2,0.3l0.2,0.3l0.2,0.3l0.3,0.2l0.3,0.3l0.4,0.2 M6.25,45.15l0.4,0.2l0.4,0.2l0.5,0.2l0.4,0.1l0.5,0.1
		l0.6,0.1h0.5l0.5,0.1l0.6-0.1h0.5l0.5-0.1l0.6-0.1l0.4-0.1l0.5-0.1l0.5-0.2l0.4-0.2l0.4-0.2l0.3-0.3l0.3-0.2l0.3-0.3l0.2-0.3
		l0.1-0.3l0.2-0.3v-0.3v-0.3v-0.3l-0.1-0.3 M4.55,41.55v0.1v0.3l0.1,0.3l0.2,0.3l0.2,0.3l0.2,0.3l0.3,0.3l0.3,0.2l0.4,0.2
		 M6.25,43.85l0.4,0.2l0.4,0.2l0.5,0.2l0.4,0.1l0.5,0.1l0.6,0.1l0.5,0.1h0.5h0.6l0.5-0.1h0.5l0.6-0.1l0.4-0.1l0.5-0.2l0.5-0.2
		l0.4-0.2l0.4-0.2l0.3-0.2l0.3-0.3l0.3-0.3l0.2-0.2l0.1-0.3l0.2-0.3v-0.3v-0.3 M4.65,40.65L4.65,40.65l-0.1,0.4v0.3v0.3l0.1,0.3
		l0.2,0.3l0.2,0.3l0.2,0.3l0.3,0.2l0.3,0.3l0.4,0.2 M6.25,43.55l0.4,0.2l0.4,0.2l0.5,0.2l0.4,0.1l0.5,0.1l0.6,0.1h0.5l0.5,0.1h0.6
		l0.5-0.1l0.5-0.1h0.6l0.4-0.2l0.5-0.1l0.5-0.2l0.4-0.2l0.4-0.2l0.3-0.3l0.3-0.2l0.3-0.3l0.2-0.3l0.1-0.3l0.2-0.3v-0.3v-0.3v-0.3
		l-0.1-0.2 M4.55,39.95v0.1v0.3l0.1,0.3l0.2,0.3l0.2,0.3l0.2,0.3l0.3,0.3l0.3,0.2l0.4,0.2 M6.25,42.25l0.4,0.2l0.4,0.2l0.5,0.2
		l0.4,0.1l0.5,0.1l0.6,0.1l0.5,0.1h0.5h0.6h0.5l0.5-0.1l0.6-0.1l0.4-0.1l0.5-0.2l0.5-0.2l0.4-0.2l0.4-0.2l0.3-0.2l0.3-0.3l0.3-0.2
		l0.2-0.3l0.1-0.3l0.2-0.3v-0.3v-0.3 M4.65,39.05v0.1l-0.1,0.3v0.3v0.3l0.1,0.3l0.2,0.3l0.2,0.3l0.2,0.3l0.3,0.2l0.3,0.3l0.4,0.2
		 M6.25,41.95l0.4,0.2l0.4,0.2l0.5,0.2l0.4,0.1l0.5,0.1l0.6,0.1h0.5l0.5,0.1h0.6l0.5-0.1h0.5l0.6-0.1l0.4-0.2l0.5-0.1l0.5-0.2
		l0.4-0.2l0.4-0.2l0.3-0.2l0.3-0.3l0.3-0.3l0.2-0.3l0.1-0.3l0.2-0.3v-0.3v-0.3v-0.3l-0.1-0.2 M4.55,38.35v0.1v0.3l0.1,0.3l0.2,0.3
		l0.2,0.3l0.2,0.3l0.3,0.3l0.3,0.2l0.4,0.2 M6.25,40.65l0.4,0.3l0.4,0.1l0.5,0.2l0.4,0.1l0.5,0.1l0.6,0.1l0.5,0.1h0.5h0.6h0.5
		l0.5-0.1l0.6-0.1l0.4-0.1l0.5-0.2l0.5-0.1l0.4-0.2l0.4-0.3l0.3-0.2l0.3-0.3l0.3-0.2l0.2-0.3l0.1-0.3l0.2-0.3v-0.3v-0.3 M4.65,37.45
		v0.1l-0.1,0.3v0.3v0.3l0.1,0.3l0.2,0.3l0.2,0.3l0.2,0.3l0.3,0.2l0.3,0.3l0.4,0.2 M6.25,40.35l0.4,0.2l0.4,0.2l0.5,0.2l0.4,0.1
		l0.5,0.1l0.6,0.1l0.5,0.1h0.5h0.6l0.5-0.1h0.5l0.6-0.1l0.4-0.2l0.5-0.1l0.5-0.2l0.4-0.2l0.4-0.2l0.3-0.2l0.3-0.3l0.3-0.3l0.2-0.3
		l0.1-0.3l0.2-0.3v-0.3v-0.3v-0.3l-0.1-0.2 M4.55,36.75v0.1v0.3l0.1,0.3l0.2,0.3l0.2,0.3l0.2,0.3l0.3,0.3l0.3,0.2l0.4,0.3
		 M6.25,39.15l0.4,0.2l0.4,0.1l0.5,0.2l0.4,0.1l0.5,0.2h0.6l0.5,0.1h0.5h0.6h0.5l0.5-0.1l0.6-0.1l0.4-0.1l0.5-0.2l0.5-0.1l0.4-0.2
		l0.4-0.3l0.3-0.2l0.3-0.3l0.3-0.2l0.2-0.3l0.1-0.3l0.2-0.3v-0.3v-0.3 M4.65,35.85v0.1l-0.1,0.3v0.3v0.3l0.1,0.3l0.2,0.3l0.2,0.3
		l0.2,0.3l0.3,0.2l0.3,0.3l0.4,0.2 M6.25,38.75l0.4,0.2l0.4,0.2l0.5,0.2l0.4,0.1l0.5,0.1l0.6,0.1l0.5,0.1h0.5h0.6l0.5-0.1h0.5
		l0.6-0.1l0.4-0.1l0.5-0.2l0.5-0.2l0.4-0.2l0.4-0.2l0.3-0.2l0.3-0.3l0.3-0.3l0.2-0.2l0.1-0.3l0.2-0.3v-0.4v-0.3v-0.3l-0.1-0.2
		 M4.55,35.15v0.1v0.3l0.1,0.3l0.2,0.3l0.2,0.3l0.2,0.3l0.3,0.3l0.3,0.2l0.4,0.3 M6.25,37.55l0.4,0.2l0.4,0.2l0.5,0.1l0.4,0.2
		l0.5,0.1h0.6l0.5,0.1h0.5h0.6h0.5l0.5-0.1l0.6-0.1l0.4-0.1l0.5-0.2l0.5-0.1l0.4-0.2l0.4-0.3l0.3-0.2l0.3-0.3l0.3-0.2l0.2-0.3
		l0.1-0.3l0.2-0.3v-0.3v-0.3 M4.65,34.25v0.1l-0.1,0.3v0.3v0.3l0.1,0.3l0.2,0.3l0.2,0.3l0.2,0.3l0.3,0.2l0.3,0.3l0.4,0.2
		 M6.25,37.15l0.4,0.2l0.4,0.2l0.5,0.2l0.4,0.1l0.5,0.1l0.6,0.1l0.5,0.1h0.5h0.6l0.5-0.1h0.5l0.6-0.1l0.4-0.1l0.5-0.2l0.5-0.2
		l0.4-0.2l0.4-0.2l0.3-0.2l0.3-0.3l0.3-0.3l0.2-0.2l0.1-0.3l0.2-0.3v-0.4v-0.3v-0.3l-0.1-0.2 M4.55,33.55v0.1v0.3l0.1,0.3l0.2,0.3
		l0.2,0.3l0.2,0.3l0.3,0.3l0.3,0.2l0.4,0.3 M6.25,35.95l0.4,0.2l0.4,0.2l0.5,0.1l0.4,0.2l0.5,0.1h0.6l0.5,0.1h0.5h0.6h0.5l0.5-0.1
		l0.6-0.1l0.4-0.1l0.5-0.2l0.5-0.1l0.4-0.2l0.4-0.2l0.3-0.3l0.3-0.2l0.3-0.3l0.2-0.3l0.1-0.3l0.2-0.3v-0.3v-0.3 M4.65,32.65v0.1
		l-0.1,0.3v0.3v0.3l0.1,0.3l0.2,0.3l0.2,0.3l0.2,0.3l0.3,0.3l0.3,0.2l0.4,0.2 M6.25,35.55l0.4,0.2l0.4,0.2l0.5,0.2l0.4,0.1l0.5,0.1
		l0.6,0.1l0.5,0.1h0.5h0.6l0.5-0.1h0.5l0.6-0.1l0.4-0.1l0.5-0.2l0.5-0.2l0.4-0.2l0.4-0.2l0.3-0.2l0.3-0.3l0.3-0.2l0.2-0.3l0.1-0.3
		l0.2-0.3v-0.3v-0.4v-0.3l-0.1-0.2 M4.55,32.05L4.55,32.05v0.3l0.1,0.4l0.2,0.3l0.2,0.2l0.2,0.3l0.3,0.3l0.3,0.2l0.4,0.3
		 M6.25,34.35l0.4,0.2l0.4,0.2l0.5,0.1l0.4,0.2l0.5,0.1l0.6,0.1h0.5h0.5h0.6h0.5l0.5-0.1l0.6-0.1l0.4-0.1l0.5-0.1l0.5-0.2l0.4-0.2
		l0.4-0.2l0.3-0.3l0.3-0.2l0.3-0.3l0.2-0.3l0.1-0.3l0.2-0.3v-0.3v-0.2 M4.65,31.05v0.1l-0.1,0.3v0.3v0.3l0.1,0.3l0.2,0.3l0.2,0.3
		l0.2,0.3l0.3,0.3l0.3,0.2l0.4,0.2 M6.25,33.95l0.4,0.3l0.4,0.1l0.5,0.2l0.4,0.1l0.5,0.1l0.6,0.1l0.5,0.1h0.5h0.6h0.5l0.5-0.1
		l0.6-0.1l0.4-0.1l0.5-0.2l0.5-0.2l0.4-0.2l0.4-0.2l0.3-0.2l0.3-0.3l0.3-0.2l0.2-0.3l0.1-0.3l0.2-0.3v-0.3v-0.4v-0.3l-0.1-0.2
		 M4.55,30.45L4.55,30.45v0.4l0.1,0.3l0.2,0.3l0.2,0.3l0.2,0.2l0.3,0.3l0.3,0.2l0.4,0.3 M6.25,32.75l0.4,0.2l0.4,0.2l0.5,0.1
		l0.4,0.2l0.5,0.1l0.6,0.1h0.5h0.5h0.6h0.5l0.5-0.1l0.6-0.1l0.4-0.1l0.5-0.1l0.5-0.2l0.4-0.2l0.4-0.2l0.3-0.3l0.3-0.2l0.3-0.3
		l0.2-0.3l0.1-0.3l0.2-0.3v-0.3v-0.2 M4.65,29.45v0.1l-0.1,0.3v0.3v0.3l0.1,0.3l0.2,0.3l0.2,0.3l0.2,0.3l0.3,0.3l0.3,0.2l0.4,0.2
		 M6.25,32.35l0.4,0.3l0.4,0.1l0.5,0.2l0.4,0.1l0.5,0.2h0.6l0.5,0.1h0.5h0.6h0.5l0.5-0.1l0.6-0.1l0.4-0.1l0.5-0.2l0.5-0.1l0.4-0.2
		l0.4-0.3l0.3-0.2l0.3-0.3l0.3-0.2l0.2-0.3l0.1-0.3l0.2-0.3v-0.3v-0.3v-0.4l-0.1-0.2 M4.55,28.85L4.55,28.85v0.4l0.1,0.3l0.2,0.3
		l0.2,0.3l0.2,0.2l0.3,0.3l0.3,0.3l0.4,0.2 M6.25,31.15l0.4,0.2l0.4,0.2l0.5,0.1l0.4,0.2l0.5,0.1l0.6,0.1h0.5h0.5h0.6h0.5l0.5-0.1
		l0.6-0.1l0.4-0.1l0.5-0.1l0.5-0.2l0.4-0.2l0.4-0.2l0.3-0.3l0.3-0.2l0.3-0.3l0.2-0.3l0.1-0.3l0.2-0.3v-0.3v-0.2 M4.65,27.85v0.1
		l-0.1,0.3v0.3v0.3l0.1,0.3l0.2,0.3l0.2,0.3l0.2,0.3l0.3,0.3l0.3,0.2l0.4,0.3 M6.25,30.85l0.4,0.2l0.4,0.2l0.5,0.1l0.4,0.1l0.5,0.2
		h0.6l0.5,0.1h0.5h0.6h0.5l0.5-0.1l0.6-0.1l0.4-0.1l0.5-0.2l0.5-0.1l0.4-0.2l0.4-0.3l0.3-0.2l0.3-0.3l0.3-0.2l0.2-0.3l0.1-0.3
		l0.2-0.3v-0.3v-0.3v-0.3l-0.1-0.3 M4.55,27.25v0.1v0.3l0.1,0.3l0.2,0.3l0.2,0.3l0.2,0.2l0.3,0.3l0.3,0.3l0.4,0.2 M6.25,29.55
		l0.4,0.2l0.4,0.2l0.5,0.1l0.4,0.2l0.5,0.1l0.6,0.1h0.5h0.5h0.6h0.5l0.5-0.1l0.6-0.1l0.4-0.1l0.5-0.1l0.5-0.2l0.4-0.2l0.4-0.2
		l0.3-0.3l0.3-0.2l0.3-0.3l0.2-0.3l0.1-0.3l0.2-0.3v-0.3v-0.2 M4.65,26.25v0.1l-0.1,0.3v0.3v0.3l0.1,0.3l0.2,0.3l0.2,0.3l0.2,0.3
		l0.3,0.3l0.3,0.2l0.4,0.3 M6.25,29.25l0.4,0.2l0.4,0.2l0.5,0.1l0.4,0.2l0.5,0.1h0.6l0.5,0.1h0.5h0.6h0.5l0.5-0.1l0.6-0.1l0.4-0.1
		l0.5-0.2l0.5-0.1l0.4-0.2l0.4-0.3l0.3-0.2l0.3-0.3l0.3-0.2l0.2-0.3l0.1-0.3l0.2-0.3v-0.3v-0.3v-0.3l-0.1-0.3 M4.55,25.65v0.1v0.3
		l0.1,0.3l0.2,0.3l0.2,0.3l0.2,0.3l0.3,0.2l0.3,0.3l0.4,0.2 M6.25,27.95l0.4,0.2l0.4,0.2l0.5,0.2l0.4,0.1l0.5,0.1l0.6,0.1h0.5
		l0.5,0.1l0.6-0.1h0.5l0.5-0.1l0.6-0.1l0.4-0.1l0.5-0.1l0.5-0.2l0.4-0.2l0.4-0.2l0.3-0.3l0.3-0.2l0.3-0.3l0.2-0.3l0.1-0.3l0.2-0.3
		v-0.3v-0.2 M4.65,24.65v0.1l-0.1,0.3v0.3v0.3l0.1,0.3l0.2,0.3l0.2,0.3l0.2,0.3l0.3,0.3l0.3,0.2l0.4,0.3 M6.25,27.65l0.4,0.2
		l0.4,0.2l0.5,0.1l0.4,0.2l0.5,0.1l0.6,0.1h0.5h0.5h0.6h0.5l0.5-0.1l0.6-0.1l0.4-0.1l0.5-0.2l0.5-0.1l0.4-0.2l0.4-0.2l0.3-0.3
		l0.3-0.2l0.3-0.3l0.2-0.3l0.1-0.3l0.2-0.3v-0.3v-0.3v-0.3l-0.1-0.3 M4.55,24.05v0.1v0.3l0.1,0.3l0.2,0.3l0.2,0.3l0.2,0.3l0.3,0.2
		l0.3,0.3l0.4,0.2 M6.25,26.35l0.4,0.2l0.4,0.2l0.5,0.2l0.4,0.1l0.5,0.1l0.6,0.1h0.5l0.5,0.1h0.6l0.5-0.1h0.5l0.6-0.1l0.4-0.2
		l0.5-0.1l0.5-0.2l0.4-0.2l0.4-0.2l0.3-0.2l0.3-0.3l0.3-0.3l0.2-0.3l0.1-0.3l0.2-0.3v-0.3v-0.2 M4.65,23.05v0.1l-0.1,0.3v0.3v0.3
		l0.1,0.4l0.2,0.3l0.2,0.2l0.2,0.3l0.3,0.3l0.3,0.2l0.4,0.3 M6.25,26.05l0.4,0.2l0.4,0.2l0.5,0.1l0.4,0.2l0.5,0.1l0.6,0.1h0.5h0.5
		h0.6h0.5l0.5-0.1l0.6-0.1l0.4-0.1l0.5-0.1l0.5-0.2l0.4-0.2l0.4-0.2l0.3-0.3l0.3-0.2l0.3-0.3l0.2-0.3l0.1-0.3l0.2-0.3v-0.3v-0.3
		v-0.3l-0.1-0.3 M4.55,22.45v0.1v0.3l0.1,0.3l0.2,0.3l0.2,0.3l0.2,0.3l0.3,0.2l0.3,0.3l0.4,0.2 M6.25,24.75l0.4,0.2l0.4,0.2l0.5,0.2
		l0.4,0.1l0.5,0.1l0.6,0.1h0.5l0.5,0.1h0.6l0.5-0.1h0.5l0.6-0.1l0.4-0.2l0.5-0.1l0.5-0.2l0.4-0.2l0.4-0.2l0.3-0.2l0.3-0.3l0.3-0.3
		l0.2-0.3l0.1-0.3l0.2-0.3v-0.3v-0.2 M4.65,21.45v0.1l-0.1,0.3v0.3v0.4l0.1,0.3l0.2,0.3l0.2,0.3l0.2,0.2l0.3,0.3l0.3,0.2l0.4,0.3
		 M6.25,24.45l0.4,0.2l0.4,0.2l0.5,0.1l0.4,0.2l0.5,0.1l0.6,0.1h0.5h0.5h0.6h0.5l0.5-0.1l0.6-0.1l0.4-0.1l0.5-0.1l0.5-0.2l0.4-0.2
		l0.4-0.2l0.3-0.3l0.3-0.2l0.3-0.3l0.2-0.3l0.1-0.3l0.2-0.3v-0.3v-0.3v-0.3l-0.1-0.3 M4.55,20.85v0.1v0.3l0.1,0.3l0.2,0.3l0.2,0.3
		l0.2,0.3l0.3,0.2l0.3,0.3l0.4,0.2 M6.25,23.15l0.4,0.2l0.4,0.2l0.5,0.2l0.4,0.1l0.5,0.1l0.6,0.1l0.5,0.1h0.5h0.6l0.5-0.1h0.5
		l0.6-0.1l0.4-0.2l0.5-0.1l0.5-0.2l0.4-0.2l0.4-0.2l0.3-0.2l0.3-0.3l0.3-0.3l0.2-0.3l0.1-0.3l0.2-0.3v-0.3v-0.2 M4.65,19.85v0.1
		l-0.1,0.3v0.4v0.3l0.1,0.3l0.2,0.3l0.2,0.3l0.2,0.2l0.3,0.3l0.3,0.3l0.4,0.2 M6.25,22.85l0.4,0.2l0.4,0.2l0.5,0.1l0.4,0.2l0.5,0.1
		l0.6,0.1h0.5h0.5h0.6h0.5l0.5-0.1l0.6-0.1l0.4-0.1l0.5-0.1l0.5-0.2l0.4-0.2l0.4-0.2l0.3-0.3l0.3-0.2l0.3-0.3l0.2-0.3l0.1-0.3
		l0.2-0.3v-0.3v-0.3v-0.3l-0.1-0.3 M11.35,7.95l-2.4-0.4 M12.35,8.15l-1-0.2 M8.95,7.55l-0.8,0.5 M8.95,7.55v-4.6 M4.65,19.75v0.2
		l0.2,0.3l0.2,0.3l0.2,0.3l0.3,0.2l0.3,0.3l0.4,0.2 M6.25,21.55l0.4,0.2l0.4,0.2l0.5,0.2l0.4,0.1l0.5,0.1l0.6,0.1l0.5,0.1h0.5h0.6
		l0.5-0.1h0.5l0.6-0.1l0.4-0.1l0.5-0.2l0.5-0.2l0.4-0.2l0.4-0.2l0.3-0.2l0.3-0.3l0.3-0.3l0.2-0.2l0.1-0.3l0.2-0.3v-0.1 M13.75,7.25
		v-3.5 M12.25,8.15l-0.4-0.1l-0.5-0.1 M11.35,7.95h-0.5l-0.5-0.1h-0.5l-0.5,0.1l-0.5,0.1l-0.4,0.1 M13.75,3.75l1.3,2.8 M11.55,8.55
		l3.5-2 M11.55,8.55l-4.9-0.7 M6.65,7.85l-1.3-2.8 M8.95,2.95l-3.6,2.1 M13.75,3.75l-4.8-0.8 M0.25,15.05l0.1,0.4v0.4l0.2,0.4
		l0.1,0.4l0.3,0.4l0.2,0.4l0.4,0.3l0.3,0.4l0.4,0.3l0.5,0.3l0.5,0.3l0.5,0.3l0.5,0.3l0.6,0.2l0.6,0.2l0.6,0.2l0.7,0.1l0.7,0.2
		l0.7,0.1h0.7l0.7,0.1h0.7h0.7l0.7-0.1h0.7l0.7-0.1l0.6-0.2l0.7-0.1l0.6-0.2l0.6-0.2l0.6-0.2l0.6-0.3l0.5-0.3 M17.25,19.05l0.5-0.3
		l0.4-0.3l0.4-0.3l0.4-0.4l0.3-0.3l0.3-0.4l0.2-0.4l0.2-0.4l0.1-0.4l0.1-0.4v-0.4 M13.45,63.15l0.8-0.4 M6.25,62.75l0.7,0.4
		 M15.85,60.45v-0.1 M4.55,60.35v0.1 M15.85,59.05v-0.3 M4.55,58.75v0.3 M15.85,57.55v-0.4 M4.55,57.15v0.4 M15.85,55.95v-0.4
		 M4.55,55.55v0.4 M15.85,54.35v-0.4 M4.55,53.95v0.4 M15.85,52.75v-0.4 M4.55,52.35v0.4 M15.85,51.15v-0.4 M4.55,50.75v0.4
		 M15.85,49.55v-0.3 M4.55,49.25v0.3 M15.85,47.95v-0.3 M4.55,47.65v0.3 M15.85,46.35v-0.3 M4.55,46.05v0.3 M15.85,44.75v-0.3
		 M4.55,44.45v0.3 M15.85,43.15v-0.3 M4.55,42.85v0.3 M15.85,41.55v-0.3 M4.55,41.25v0.3 M15.85,39.95v-0.3 M4.55,39.65v0.3
		 M15.85,38.35v-0.3 M4.55,38.05v0.3 M15.85,36.75v-0.3 M4.55,36.45v0.3 M15.85,35.15v-0.3 M4.55,34.85v0.3 M15.85,33.55v-0.3
		 M4.55,33.25v0.3 M15.85,32.05v-0.4 M4.55,31.65v0.4 M15.85,30.45v-0.4 M4.55,30.05v0.4 M15.85,28.85v-0.4 M4.55,28.45v0.4
		 M15.85,27.25v-0.4 M4.55,26.85v0.4 M15.85,25.65v-0.3 M4.55,25.35v0.3 M15.85,24.05v-0.3 M4.55,23.75v0.3 M15.85,22.45v-0.3
		 M4.55,22.15v0.3 M15.85,20.85v-0.3 M4.55,20.55v0.3 M20.15,15.05v-8.8 M0.25,6.25v8.8 M20.15,6.25v-0.4l-0.1-0.4l-0.1-0.4
		l-0.1-0.4l-0.2-0.4l-0.3-0.3l-0.3-0.4l-0.3-0.4l-0.3-0.3l-0.4-0.3l-0.5-0.3l-0.4-0.3l-0.5-0.3l-0.6-0.3l-0.5-0.2l-0.6-0.2l-0.6-0.2
		l-0.6-0.1l-0.7-0.1l-0.6-0.1l-0.7-0.1l-0.6-0.1h-0.7h-0.7l-0.7,0.1h-0.6l-0.7,0.1l-0.6,0.1l-0.6,0.1l-0.7,0.2l-0.6,0.2l-0.5,0.2
		l-0.6,0.2l-0.5,0.3l-0.5,0.3l-0.5,0.3l-0.4,0.3l-0.4,0.3l-0.3,0.4l-0.3,0.3l-0.3,0.4l-0.2,0.4l-0.2,0.4l-0.1,0.4l-0.1,0.4v0.4v0.2"
		/>
</g>
</svg>
