<?xml version="1.0" encoding="utf-8"?>
<!-- Generator: Adobe Illustrator 19.0.0, SVG Export Plug-In . SVG Version: 6.00 Build 0)  -->
<svg version="1.0" id="Layer_1" xmlns="http://www.w3.org/2000/svg" xmlns:xlink="http://www.w3.org/1999/xlink" x="0px" y="0px"
	 width="20.4px" height="87.4px" viewBox="0 0 20.4 87.4" enable-background="new 0 0 20.4 87.4" xml:space="preserve">
<g>
	
		<path fill="none" stroke="#000000" stroke-width="0.25" stroke-linecap="round" stroke-linejoin="round" stroke-miterlimit="10" d="
		M20.15,6.25v0.2l-0.1,0.4l-0.1,0.5l-0.2,0.5l-0.3,0.4l-0.3,0.5l-0.4,0.4l-0.4,0.4l-0.6,0.4l-0.5,0.3 M17.25,10.25l-0.6,0.4
		l-0.7,0.3l-0.7,0.2l-0.7,0.2l-0.8,0.2l-0.8,0.2l-0.8,0.1l-0.8,0.1h-0.8h-0.8h-0.9l-0.8-0.1l-0.8-0.1l-0.8-0.2l-0.7-0.2l-0.8-0.2
		l-0.6-0.3l-0.7-0.3l-0.6-0.3l-0.5-0.4l-0.5-0.4l-0.5-0.4l-0.4-0.4l-0.3-0.5l-0.2-0.4l-0.2-0.5l-0.1-0.5l-0.1-0.4 M16.85,9.55
		l0.5-0.3l0.5-0.4l0.5-0.4l0.3-0.4l0.3-0.4l0.3-0.4l0.2-0.5l0.1-0.5v-0.4v-0.5l-0.1-0.4l-0.2-0.5l-0.2-0.4l-0.3-0.5l-0.3-0.4
		l-0.5-0.4l-0.4-0.4l-0.6-0.3l-0.6-0.3l-0.6-0.3l-0.7-0.3l-0.7-0.2l-0.7-0.2l-0.8-0.1l-0.7-0.2h-0.8l-0.8-0.1h-0.8l-0.8,0.1
		l-0.8,0.1l-0.8,0.1l-0.8,0.1l-0.7,0.2l-0.7,0.3l-0.6,0.2l-0.7,0.3l-0.5,0.4l-0.5,0.3l-0.5,0.4l-0.4,0.4l-0.4,0.4l-0.2,0.5l-0.2,0.4
		l-0.2,0.5l-0.1,0.4v0.5l0.1,0.5l0.1,0.4l0.2,0.5l0.3,0.4l0.3,0.4l0.4,0.4l0.4,0.4l0.5,0.4l0.6,0.3l0.6,0.3l0.7,0.3l0.6,0.3l0.8,0.2
		l0.7,0.1l0.8,0.2l0.8,0.1h0.8h0.8h0.8l0.8-0.1l0.8-0.1l0.7-0.1l0.8-0.2l0.7-0.2l0.7-0.3l0.6-0.2L16.85,9.55"/>
	<path fill="none" stroke="#000000" stroke-width="0.5" stroke-linecap="round" stroke-linejoin="round" stroke-miterlimit="10" d="
		M6.95,86.35l0.4,0.2l0.4,0.1l0.5,0.2l0.5,0.1l0.6,0.1l0.5,0.1h0.6l0.5-0.1l0.6-0.1l0.5-0.1l0.5-0.1l0.5-0.2l0.4-0.2 M4.55,83.55
		v0.2l0.1,0.3l0.1,0.4l0.2,0.3l0.2,0.3l0.4,0.3l0.3,0.3l0.5,0.3l0.4,0.2l0.6,0.2l0.5,0.2l0.6,0.1l0.6,0.1l0.6,0.1h0.6h0.7l0.6-0.1
		l0.6-0.1l0.6-0.1l0.5-0.2l0.5-0.2l0.5-0.3 M14.25,85.85l0.4-0.2l0.4-0.3l0.3-0.3l0.2-0.4l0.2-0.3l0.1-0.4v-0.3v-0.1 M4.65,82.85
		l-0.1,0.3v0.4v0.4l0.2,0.3l0.1,0.4l0.3,0.3l0.3,0.3l0.3,0.3l0.5,0.3 M6.25,85.85l0.4,0.2l0.5,0.2l0.6,0.2l0.6,0.1l0.6,0.1l0.6,0.1
		h0.6h0.6h0.6l0.6-0.1l0.6-0.2l0.6-0.1l0.5-0.2l0.5-0.3l0.4-0.2l0.4-0.3l0.3-0.3l0.3-0.4l0.1-0.3l0.2-0.3v-0.4v-0.4l-0.1-0.3v-0.1
		 M4.55,82.25L4.55,82.25v0.4l0.2,0.4l0.1,0.3l0.3,0.3l0.3,0.3l0.3,0.3l0.5,0.3 M6.25,84.55l0.4,0.3l0.5,0.2l0.6,0.1l0.6,0.2
		l0.6,0.1h0.6l0.6,0.1h0.6l0.6-0.1l0.6-0.1l0.6-0.1l0.6-0.2l0.5-0.2l0.5-0.2l0.4-0.3l0.4-0.3l0.3-0.3l0.3-0.3l0.1-0.4l0.2-0.3v-0.4
		v-0.1 M4.65,81.25l-0.1,0.3v0.4v0.4l0.2,0.3l0.1,0.4l0.3,0.3l0.3,0.3l0.3,0.3l0.5,0.3 M6.25,84.25l0.4,0.2l0.5,0.2l0.6,0.2l0.6,0.1
		l0.6,0.1l0.6,0.1h0.6h0.6h0.6l0.6-0.1l0.6-0.2l0.6-0.1l0.5-0.2l0.5-0.3l0.4-0.2l0.4-0.3l0.3-0.3l0.3-0.3l0.1-0.4l0.2-0.3v-0.4v-0.4
		l-0.1-0.3v-0.1 M4.55,80.65L4.55,80.65v0.4l0.2,0.4l0.1,0.3l0.3,0.3l0.3,0.4l0.3,0.2l0.5,0.3 M6.25,82.95l0.4,0.3l0.5,0.2l0.6,0.1
		l0.6,0.2l0.6,0.1h0.6l0.6,0.1h0.6l0.6-0.1l0.6-0.1l0.6-0.1l0.6-0.2l0.5-0.2l0.5-0.2l0.4-0.3l0.4-0.3l0.3-0.3l0.3-0.3l0.1-0.4
		l0.2-0.3v-0.4v-0.1 M4.65,79.65l-0.1,0.4v0.3v0.4l0.2,0.3l0.1,0.4l0.3,0.3l0.3,0.3l0.3,0.3l0.5,0.3 M6.25,82.65l0.4,0.2l0.5,0.2
		l0.6,0.2l0.6,0.1l0.6,0.2h0.6h0.6h0.6h0.6l0.6-0.1l0.6-0.2l0.6-0.1l0.5-0.2l0.5-0.3l0.4-0.2l0.4-0.3l0.3-0.3l0.3-0.3l0.1-0.4
		l0.2-0.3v-0.4v-0.4l-0.1-0.3v-0.1 M4.55,79.05L4.55,79.05v0.4l0.2,0.4l0.1,0.3l0.3,0.3l0.3,0.4l0.3,0.2l0.5,0.3 M6.25,81.35
		l0.4,0.3l0.5,0.2l0.6,0.1l0.6,0.2l0.6,0.1l0.6,0.1h0.6h0.6l0.6-0.1l0.6-0.1l0.6-0.1l0.6-0.2l0.5-0.2l0.5-0.2l0.4-0.3l0.4-0.3
		l0.3-0.3l0.3-0.3l0.1-0.3l0.2-0.4v-0.4v-0.1 M4.65,78.05l-0.1,0.4v0.3v0.4l0.2,0.3l0.1,0.4l0.3,0.3l0.3,0.3l0.3,0.3l0.5,0.3
		 M6.25,81.05l0.4,0.2l0.5,0.2l0.6,0.2l0.6,0.2l0.6,0.1h0.6h0.6h0.6h0.6l0.6-0.1l0.6-0.2l0.6-0.1l0.5-0.2l0.5-0.3l0.4-0.2l0.4-0.3
		l0.3-0.3l0.3-0.3l0.1-0.4l0.2-0.3v-0.4v-0.4l-0.1-0.3v-0.1 M4.55,77.45v0.1v0.3l0.2,0.4l0.1,0.3l0.3,0.3l0.3,0.4l0.3,0.3l0.5,0.2
		 M6.25,79.75l0.4,0.3l0.5,0.2l0.6,0.1l0.6,0.2l0.6,0.1l0.6,0.1h0.6h0.6l0.6-0.1l0.6-0.1l0.6-0.1l0.6-0.2l0.5-0.2l0.5-0.2l0.4-0.3
		l0.4-0.3l0.3-0.3l0.3-0.3l0.1-0.3l0.2-0.4v-0.4v-0.1 M4.65,76.45l-0.1,0.4v0.3v0.4l0.2,0.3l0.1,0.4l0.3,0.3l0.3,0.3l0.3,0.3
		l0.5,0.3 M6.25,79.45l0.4,0.2l0.5,0.2l0.6,0.2l0.6,0.2l0.6,0.1h0.6h0.6h0.6h0.6l0.6-0.1l0.6-0.1l0.6-0.2l0.5-0.2l0.5-0.2l0.4-0.3
		l0.4-0.3l0.3-0.3l0.3-0.3l0.1-0.4l0.2-0.3v-0.4v-0.4l-0.1-0.3v-0.1 M4.55,75.85v0.1v0.3l0.2,0.4l0.1,0.3l0.3,0.3l0.3,0.4l0.3,0.3
		l0.5,0.2 M6.25,78.15l0.4,0.3l0.5,0.2l0.6,0.2l0.6,0.1l0.6,0.1l0.6,0.1h0.6h0.6l0.6-0.1l0.6-0.1l0.6-0.1l0.6-0.2l0.5-0.2l0.5-0.2
		l0.4-0.3l0.4-0.3l0.3-0.3l0.3-0.3l0.1-0.3l0.2-0.4v-0.4v-0.1 M4.65,74.85l-0.1,0.4v0.3v0.4l0.2,0.3l0.1,0.4l0.3,0.3l0.3,0.3
		l0.3,0.3l0.5,0.3 M6.25,77.85l0.4,0.2l0.5,0.2l0.6,0.2l0.6,0.2l0.6,0.1h0.6l0.6,0.1l0.6-0.1h0.6l0.6-0.1l0.6-0.1l0.6-0.2l0.5-0.2
		l0.5-0.2l0.4-0.3l0.4-0.3l0.3-0.3l0.3-0.3l0.1-0.4l0.2-0.3v-0.4v-0.3l-0.1-0.4v-0.1 M4.55,74.25v0.1v0.3l0.2,0.4l0.1,0.3l0.3,0.4
		l0.3,0.3l0.3,0.3l0.5,0.2 M6.25,76.55l0.4,0.3l0.5,0.2l0.6,0.2l0.6,0.1l0.6,0.1l0.6,0.1h0.6h0.6l0.6-0.1l0.6-0.1l0.6-0.1l0.6-0.2
		l0.5-0.2l0.5-0.2l0.4-0.3l0.4-0.3l0.3-0.3l0.3-0.3l0.1-0.3l0.2-0.4v-0.4v-0.1 M4.65,73.35l-0.1,0.3v0.3v0.4l0.2,0.3l0.1,0.4
		l0.3,0.3l0.3,0.3l0.3,0.3l0.5,0.3 M6.25,76.25l0.4,0.2l0.5,0.2l0.6,0.2l0.6,0.2l0.6,0.1h0.6l0.6,0.1l0.6-0.1h0.6l0.6-0.1l0.6-0.1
		l0.6-0.2l0.5-0.2l0.5-0.2l0.4-0.3l0.4-0.3l0.3-0.3l0.3-0.3l0.1-0.4l0.2-0.3v-0.4v-0.3l-0.1-0.4 M4.55,72.65v0.1v0.3l0.2,0.4
		l0.1,0.3l0.3,0.4l0.3,0.3l0.3,0.3l0.5,0.2 M6.25,74.95l0.4,0.3l0.5,0.2l0.6,0.2l0.6,0.1l0.6,0.1l0.6,0.1h0.6h0.6l0.6-0.1l0.6-0.1
		l0.6-0.1l0.6-0.2l0.5-0.2l0.5-0.2l0.4-0.3l0.4-0.3l0.3-0.3l0.3-0.3l0.1-0.3l0.2-0.4v-0.3v-0.2 M4.65,71.75l-0.1,0.3v0.3v0.4
		l0.2,0.3l0.1,0.4l0.3,0.3l0.3,0.3l0.3,0.3l0.5,0.3 M6.25,74.65l0.4,0.2l0.5,0.3l0.6,0.1l0.6,0.2l0.6,0.1h0.6l0.6,0.1l0.6-0.1h0.6
		l0.6-0.1l0.6-0.1l0.6-0.2l0.5-0.2l0.5-0.2l0.4-0.3l0.4-0.3l0.3-0.3l0.3-0.3l0.1-0.4l0.2-0.3v-0.4v-0.3l-0.1-0.4 M4.55,71.05v0.1
		v0.3l0.2,0.4l0.1,0.3l0.3,0.4l0.3,0.3l0.3,0.3l0.5,0.2 M6.25,73.35l0.4,0.3l0.5,0.2l0.6,0.2l0.6,0.1l0.6,0.1l0.6,0.1h0.6h0.6
		l0.6-0.1l0.6-0.1l0.6-0.1l0.6-0.2l0.5-0.2l0.5-0.2l0.4-0.3l0.4-0.3l0.3-0.3l0.3-0.3l0.1-0.3l0.2-0.4v-0.3v-0.2 M4.65,70.15
		l-0.1,0.3v0.3v0.4l0.2,0.3l0.1,0.4l0.3,0.3l0.3,0.3l0.3,0.3l0.5,0.3 M6.25,73.05l0.4,0.2l0.5,0.3l0.6,0.1l0.6,0.2l0.6,0.1h0.6
		l0.6,0.1l0.6-0.1h0.6l0.6-0.1l0.6-0.1l0.6-0.2l0.5-0.2l0.5-0.2l0.4-0.3l0.4-0.3l0.3-0.3l0.3-0.3l0.1-0.4l0.2-0.3v-0.4v-0.3
		l-0.1-0.4 M4.55,69.45v0.1v0.3l0.2,0.4l0.1,0.3l0.3,0.4l0.3,0.3l0.3,0.3l0.5,0.2 M6.25,71.75l0.4,0.3l0.5,0.2l0.6,0.2l0.6,0.1
		l0.6,0.1l0.6,0.1h0.6h0.6l0.6-0.1l0.6-0.1l0.6-0.1l0.6-0.2l0.5-0.2l0.5-0.2l0.4-0.3l0.4-0.2l0.3-0.4l0.3-0.3l0.1-0.3l0.2-0.4v-0.3
		v-0.2 M4.65,68.55l-0.1,0.3v0.3v0.4l0.2,0.4l0.1,0.3l0.3,0.3l0.3,0.3l0.3,0.3l0.5,0.3 M6.25,71.45l0.4,0.2l0.5,0.3l0.6,0.1l0.6,0.2
		l0.6,0.1h0.6l0.6,0.1h0.6l0.6-0.1l0.6-0.1l0.6-0.1l0.6-0.2l0.5-0.2l0.5-0.2l0.4-0.3l0.4-0.3l0.3-0.3l0.3-0.3l0.1-0.4l0.2-0.3v-0.4
		v-0.3l-0.1-0.4 M4.55,67.85v0.1v0.3l0.2,0.4l0.1,0.3l0.3,0.4l0.3,0.3l0.3,0.3l0.5,0.2 M6.25,70.15l0.4,0.3l0.5,0.2l0.6,0.2l0.6,0.1
		l0.6,0.1l0.6,0.1h0.6h0.6l0.6-0.1l0.6-0.1l0.6-0.1l0.6-0.2l0.5-0.2l0.5-0.2l0.4-0.3l0.4-0.2l0.3-0.4l0.3-0.3l0.1-0.3l0.2-0.4v-0.3
		v-0.2 M4.65,66.95l-0.1,0.3v0.3v0.4l0.2,0.4l0.1,0.3l0.3,0.3l0.3,0.3l0.3,0.3l0.5,0.3 M6.25,69.85l0.4,0.3l0.5,0.2l0.6,0.1l0.6,0.2
		l0.6,0.1h0.6l0.6,0.1h0.6l0.6-0.1l0.6-0.1l0.6-0.1l0.6-0.2l0.5-0.2l0.5-0.2l0.4-0.3l0.4-0.3l0.3-0.3l0.3-0.3l0.1-0.4l0.2-0.3v-0.4
		v-0.3l-0.1-0.4 M4.55,66.25v0.1v0.3l0.2,0.4l0.1,0.3l0.3,0.4l0.3,0.3l0.3,0.3l0.5,0.2 M6.25,68.55l0.4,0.3l0.5,0.2l0.6,0.2l0.6,0.1
		l0.6,0.1l0.6,0.1h0.6h0.6l0.6-0.1l0.6-0.1l0.6-0.1l0.6-0.2l0.5-0.2l0.5-0.2l0.4-0.3l0.4-0.2l0.3-0.3l0.3-0.4l0.1-0.3l0.2-0.4v-0.3
		v-0.2 M4.65,65.35l-0.1,0.3v0.3v0.4l0.2,0.4l0.1,0.3l0.3,0.3l0.3,0.4l0.3,0.2l0.5,0.3 M6.25,68.25l0.4,0.3l0.5,0.2l0.6,0.1l0.6,0.2
		l0.6,0.1h0.6l0.6,0.1h0.6l0.6-0.1l0.6-0.1l0.6-0.1l0.6-0.2l0.5-0.2l0.5-0.2l0.4-0.3l0.4-0.3l0.3-0.3l0.3-0.3l0.1-0.4l0.2-0.3v-0.4
		v-0.3l-0.1-0.4 M4.55,64.65v0.1v0.3l0.2,0.4l0.1,0.3l0.3,0.4l0.3,0.3l0.3,0.3l0.5,0.3 M6.25,67.05l0.4,0.2l0.5,0.2l0.6,0.2l0.6,0.1
		l0.6,0.1l0.6,0.1h0.6h0.6l0.6-0.1l0.6-0.1l0.6-0.1l0.6-0.2l0.5-0.2l0.5-0.2l0.4-0.2l0.4-0.3l0.3-0.3l0.3-0.4l0.1-0.3l0.2-0.4v-0.3
		v-0.2 M4.65,63.75l-0.1,0.3v0.3v0.4l0.2,0.4l0.1,0.3l0.3,0.3l0.3,0.4l0.3,0.3l0.5,0.2 M6.25,66.65l0.4,0.3l0.5,0.2l0.6,0.1l0.6,0.2
		l0.6,0.1l0.6,0.1h0.6h0.6l0.6-0.1l0.6-0.1l0.6-0.1l0.6-0.2l0.5-0.2l0.5-0.2l0.4-0.3l0.4-0.3l0.3-0.3l0.3-0.3l0.1-0.3l0.2-0.4v-0.4
		v-0.3l-0.1-0.4 M4.55,63.05v0.1v0.3l0.2,0.4l0.1,0.3l0.3,0.4l0.3,0.3l0.3,0.3l0.5,0.3 M6.25,65.45l0.4,0.2l0.5,0.2l0.6,0.2l0.6,0.1
		l0.6,0.1l0.6,0.1h0.6h0.6l0.6-0.1h0.6l0.6-0.2l0.6-0.1l0.5-0.2l0.5-0.3l0.4-0.2l0.4-0.3l0.3-0.3l0.3-0.4l0.1-0.3l0.2-0.4v-0.3v-0.2
		 M4.65,62.15l-0.1,0.3v0.4v0.3l0.2,0.4l0.1,0.3l0.3,0.3l0.3,0.4l0.3,0.3l0.5,0.2 M6.25,65.05l0.4,0.3l0.5,0.2l0.6,0.1l0.6,0.2
		l0.6,0.1l0.6,0.1h0.6h0.6l0.6-0.1l0.6-0.1l0.6-0.1l0.6-0.2l0.5-0.2l0.5-0.2l0.4-0.3l0.4-0.3l0.3-0.3l0.3-0.3l0.1-0.3l0.2-0.4v-0.4
		v-0.3l-0.1-0.4 M4.55,61.45v0.1v0.3l0.2,0.4l0.1,0.3l0.3,0.4l0.3,0.3l0.3,0.3l0.5,0.3 M6.25,63.85l0.4,0.2l0.5,0.2l0.6,0.2l0.6,0.1
		l0.6,0.1l0.6,0.1h0.6h0.6l0.6-0.1h0.6l0.6-0.2l0.6-0.1l0.5-0.2l0.5-0.3l0.4-0.2l0.4-0.3l0.3-0.3l0.3-0.4l0.1-0.3l0.2-0.4v-0.3v-0.2
		 M4.65,60.55l-0.1,0.3v0.4v0.3l0.2,0.4l0.1,0.3l0.3,0.3l0.3,0.4l0.3,0.3l0.5,0.2 M6.25,63.45l0.4,0.3l0.5,0.2l0.6,0.2l0.6,0.1
		l0.6,0.1l0.6,0.1h0.6h0.6l0.6-0.1l0.6-0.1l0.6-0.1l0.6-0.2l0.5-0.2l0.5-0.2l0.4-0.3l0.4-0.3l0.3-0.3l0.3-0.3l0.1-0.3l0.2-0.4v-0.4
		v-0.3l-0.1-0.4 M4.55,59.85v0.1v0.4l0.2,0.3l0.1,0.4l0.3,0.3l0.3,0.3l0.3,0.3l0.5,0.3 M6.25,62.25l0.4,0.2l0.5,0.2l0.6,0.2l0.6,0.1
		l0.6,0.1l0.6,0.1h0.6h0.6h0.6l0.6-0.1l0.6-0.2l0.6-0.1l0.5-0.2l0.5-0.3l0.4-0.2l0.4-0.3l0.3-0.3l0.3-0.4l0.1-0.3l0.2-0.4v-0.3v-0.2
		 M4.65,58.95l-0.1,0.3v0.4v0.3l0.2,0.4l0.1,0.3l0.3,0.4l0.3,0.3l0.3,0.3l0.5,0.2 M6.25,61.85l0.4,0.3l0.5,0.2l0.6,0.2l0.6,0.1
		l0.6,0.1l0.6,0.1h0.6h0.6l0.6-0.1l0.6-0.1l0.6-0.1l0.6-0.2l0.5-0.2l0.5-0.2l0.4-0.3l0.4-0.3l0.3-0.3l0.3-0.3l0.1-0.3l0.2-0.4v-0.3
		v-0.4l-0.1-0.4 M4.55,58.35L4.55,58.35v0.4l0.2,0.3l0.1,0.4l0.3,0.3l0.3,0.3l0.3,0.3l0.5,0.3 M6.25,60.65l0.4,0.2l0.5,0.2l0.6,0.2
		l0.6,0.1l0.6,0.1l0.6,0.1h0.6h0.6h0.6l0.6-0.1l0.6-0.2l0.6-0.1l0.5-0.2l0.5-0.3l0.4-0.2l0.4-0.3l0.3-0.3l0.3-0.4l0.1-0.3l0.2-0.4
		v-0.3v-0.1 M4.65,57.35l-0.1,0.3v0.4v0.3l0.2,0.4l0.1,0.3l0.3,0.4l0.3,0.3l0.3,0.3l0.5,0.2 M6.25,60.25l0.4,0.3l0.5,0.2l0.6,0.2
		l0.6,0.1l0.6,0.1l0.6,0.1h0.6h0.6l0.6-0.1l0.6-0.1l0.6-0.1l0.6-0.2l0.5-0.2l0.5-0.2l0.4-0.3l0.4-0.3l0.3-0.3l0.3-0.3l0.1-0.3
		l0.2-0.4v-0.3v-0.4l-0.1-0.4 M4.55,56.75L4.55,56.75v0.4l0.2,0.3l0.1,0.4l0.3,0.3l0.3,0.3l0.3,0.3l0.5,0.3 M6.25,59.05l0.4,0.2
		l0.5,0.2l0.6,0.2l0.6,0.1l0.6,0.1l0.6,0.1h0.6h0.6h0.6l0.6-0.1l0.6-0.2l0.6-0.1l0.5-0.2l0.5-0.3l0.4-0.2l0.4-0.3l0.3-0.3l0.3-0.4
		l0.1-0.3l0.2-0.4v-0.3v-0.1 M4.65,55.75l-0.1,0.3v0.4v0.3l0.2,0.4l0.1,0.3l0.3,0.4l0.3,0.3l0.3,0.3l0.5,0.2 M6.25,58.65l0.4,0.3
		l0.5,0.2l0.6,0.2l0.6,0.1l0.6,0.1l0.6,0.1h0.6h0.6l0.6-0.1l0.6-0.1l0.6-0.1l0.6-0.2l0.5-0.2l0.5-0.2l0.4-0.3l0.4-0.2l0.3-0.4
		l0.3-0.3l0.1-0.3l0.2-0.4v-0.3v-0.4l-0.1-0.4 M4.55,55.15L4.55,55.15v0.4l0.2,0.3l0.1,0.4l0.3,0.3l0.3,0.3l0.3,0.3l0.5,0.3
		 M6.25,57.45l0.4,0.2l0.5,0.2l0.6,0.2l0.6,0.1l0.6,0.1l0.6,0.1h0.6h0.6h0.6l0.6-0.1l0.6-0.2l0.6-0.1l0.5-0.2l0.5-0.3l0.4-0.2
		l0.4-0.3l0.3-0.3l0.3-0.4l0.1-0.3l0.2-0.3v-0.4v-0.1 M4.65,54.15l-0.1,0.3v0.4v0.3l0.2,0.4l0.1,0.3l0.3,0.4l0.3,0.3l0.3,0.3
		l0.5,0.2 M6.25,57.05l0.4,0.3l0.5,0.2l0.6,0.2l0.6,0.1l0.6,0.1l0.6,0.1h0.6h0.6l0.6-0.1l0.6-0.1l0.6-0.1l0.6-0.2l0.5-0.2l0.5-0.2
		l0.4-0.3l0.4-0.2l0.3-0.4l0.3-0.3l0.1-0.3l0.2-0.4v-0.3v-0.4l-0.1-0.4 M4.55,53.55L4.55,53.55v0.4l0.2,0.3l0.1,0.4l0.3,0.3l0.3,0.3
		l0.3,0.3l0.5,0.3 M6.25,55.85l0.4,0.2l0.5,0.2l0.6,0.2l0.6,0.1l0.6,0.1l0.6,0.1h0.6h0.6h0.6l0.6-0.1l0.6-0.2l0.6-0.1l0.5-0.2
		l0.5-0.3l0.4-0.2l0.4-0.3l0.3-0.3l0.3-0.3l0.1-0.4l0.2-0.3v-0.4v-0.1 M4.65,52.55l-0.1,0.3v0.4v0.3l0.2,0.4l0.1,0.3l0.3,0.4
		l0.3,0.3l0.3,0.3l0.5,0.2 M6.25,55.45l0.4,0.3l0.5,0.2l0.6,0.2l0.6,0.1l0.6,0.1l0.6,0.1h0.6h0.6l0.6-0.1l0.6-0.1l0.6-0.1l0.6-0.2
		l0.5-0.2l0.5-0.2l0.4-0.3l0.4-0.2l0.3-0.4l0.3-0.3l0.1-0.3l0.2-0.4v-0.3v-0.4l-0.1-0.4 M4.55,51.95L4.55,51.95v0.4l0.2,0.3l0.1,0.4
		l0.3,0.3l0.3,0.3l0.3,0.3l0.5,0.3 M6.25,54.25l0.4,0.2l0.5,0.2l0.6,0.2l0.6,0.1l0.6,0.1l0.6,0.1h0.6h0.6h0.6l0.6-0.1l0.6-0.2
		l0.6-0.1l0.5-0.2l0.5-0.3l0.4-0.2l0.4-0.3l0.3-0.3l0.3-0.3l0.1-0.4l0.2-0.3v-0.4v-0.1 M4.65,50.95l-0.1,0.3v0.4v0.3l0.2,0.4
		l0.1,0.3l0.3,0.4l0.3,0.3l0.3,0.3l0.5,0.2 M6.25,53.85l0.4,0.3l0.5,0.2l0.6,0.2l0.6,0.1l0.6,0.1l0.6,0.1h0.6h0.6l0.6-0.1l0.6-0.1
		l0.6-0.1l0.6-0.2l0.5-0.2l0.5-0.2l0.4-0.3l0.4-0.2l0.3-0.3l0.3-0.4l0.1-0.3l0.2-0.4v-0.3v-0.4l-0.1-0.3v-0.1 M4.55,50.35
		L4.55,50.35v0.4l0.2,0.3l0.1,0.4l0.3,0.3l0.3,0.3l0.3,0.3l0.5,0.3 M6.25,52.65l0.4,0.2l0.5,0.2l0.6,0.2l0.6,0.2l0.6,0.1h0.6h0.6
		h0.6h0.6l0.6-0.1l0.6-0.2l0.6-0.1l0.5-0.2l0.5-0.3l0.4-0.2l0.4-0.3l0.3-0.3l0.3-0.3l0.1-0.4l0.2-0.3v-0.4v-0.1 M4.65,49.35
		l-0.1,0.3v0.4v0.3l0.2,0.4l0.1,0.3l0.3,0.4l0.3,0.3l0.3,0.3l0.5,0.3 M6.25,52.35l0.4,0.2l0.5,0.2l0.6,0.2l0.6,0.1l0.6,0.1l0.6,0.1
		h0.6h0.6l0.6-0.1l0.6-0.1l0.6-0.1l0.6-0.2l0.5-0.2l0.5-0.2l0.4-0.2l0.4-0.3l0.3-0.3l0.3-0.4l0.1-0.3l0.2-0.4v-0.3v-0.4l-0.1-0.3
		v-0.1 M4.55,48.75L4.55,48.75v0.4l0.2,0.3l0.1,0.4l0.3,0.3l0.3,0.3l0.3,0.3l0.5,0.3 M6.25,51.05l0.4,0.2l0.5,0.2l0.6,0.2l0.6,0.2
		l0.6,0.1h0.6h0.6h0.6h0.6l0.6-0.1l0.6-0.1l0.6-0.2l0.5-0.2l0.5-0.2l0.4-0.3l0.4-0.3l0.3-0.3l0.3-0.3l0.1-0.4l0.2-0.3v-0.4v-0.1
		 M4.65,47.75l-0.1,0.3v0.4v0.3l0.2,0.4l0.1,0.3l0.3,0.4l0.3,0.3l0.3,0.3l0.5,0.3 M6.25,50.75l0.4,0.2l0.5,0.2l0.6,0.2l0.6,0.1
		l0.6,0.1l0.6,0.1h0.6h0.6l0.6-0.1h0.6l0.6-0.2l0.6-0.1l0.5-0.2l0.5-0.3l0.4-0.2l0.4-0.3l0.3-0.3l0.3-0.4l0.1-0.3l0.2-0.4v-0.3v-0.4
		l-0.1-0.3v-0.1 M4.55,47.15L4.55,47.15v0.4l0.2,0.3l0.1,0.4l0.3,0.3l0.3,0.3l0.3,0.3l0.5,0.3 M6.25,49.45l0.4,0.2l0.5,0.2l0.6,0.2
		l0.6,0.2l0.6,0.1h0.6l0.6,0.1l0.6-0.1h0.6l0.6-0.1l0.6-0.1l0.6-0.2l0.5-0.2l0.5-0.2l0.4-0.3l0.4-0.3l0.3-0.3l0.3-0.3l0.1-0.4
		l0.2-0.3v-0.4v-0.1 M4.65,46.15l-0.1,0.3v0.4v0.4l0.2,0.3l0.1,0.4l0.3,0.3l0.3,0.3l0.3,0.3l0.5,0.3 M6.25,49.15l0.4,0.2l0.5,0.2
		l0.6,0.2l0.6,0.1l0.6,0.1l0.6,0.1h0.6h0.6l0.6-0.1h0.6l0.6-0.2l0.6-0.1l0.5-0.2l0.5-0.3l0.4-0.2l0.4-0.3l0.3-0.3l0.3-0.4l0.1-0.3
		l0.2-0.4v-0.3v-0.4l-0.1-0.3v-0.1 M4.55,45.55L4.55,45.55v0.4l0.2,0.3l0.1,0.4l0.3,0.3l0.3,0.3l0.3,0.3l0.5,0.3 M6.25,47.85
		l0.4,0.2l0.5,0.2l0.6,0.2l0.6,0.2l0.6,0.1h0.6l0.6,0.1l0.6-0.1h0.6l0.6-0.1l0.6-0.1l0.6-0.2l0.5-0.2l0.5-0.2l0.4-0.3l0.4-0.3
		l0.3-0.3l0.3-0.3l0.1-0.4l0.2-0.3v-0.4v-0.1 M4.65,44.55l-0.1,0.3v0.4v0.4l0.2,0.3l0.1,0.4l0.3,0.3l0.3,0.3l0.3,0.3l0.5,0.3
		 M6.25,47.55l0.4,0.2l0.5,0.2l0.6,0.2l0.6,0.1l0.6,0.1l0.6,0.1h0.6h0.6h0.6l0.6-0.1l0.6-0.2l0.6-0.1l0.5-0.2l0.5-0.3l0.4-0.2
		l0.4-0.3l0.3-0.3l0.3-0.4l0.1-0.3l0.2-0.4v-0.3v-0.4l-0.1-0.3v-0.1 M4.55,43.95L4.55,43.95v0.4l0.2,0.3l0.1,0.4l0.3,0.3l0.3,0.3
		l0.3,0.3l0.5,0.3 M6.25,46.25l0.4,0.2l0.5,0.2l0.6,0.2l0.6,0.2l0.6,0.1h0.6l0.6,0.1l0.6-0.1h0.6l0.6-0.1l0.6-0.1l0.6-0.2l0.5-0.2
		l0.5-0.2l0.4-0.3l0.4-0.3l0.3-0.3l0.3-0.3l0.1-0.4l0.2-0.3v-0.4v-0.1 M4.65,42.95l-0.1,0.3v0.4v0.4l0.2,0.3l0.1,0.4l0.3,0.3
		l0.3,0.3l0.3,0.3l0.5,0.3 M6.25,45.95l0.4,0.2l0.5,0.2l0.6,0.2l0.6,0.1l0.6,0.1l0.6,0.1h0.6h0.6h0.6l0.6-0.1l0.6-0.2l0.6-0.1
		l0.5-0.2l0.5-0.3l0.4-0.2l0.4-0.3l0.3-0.3l0.3-0.4l0.1-0.3l0.2-0.4v-0.3v-0.4l-0.1-0.3v-0.1 M4.55,42.35L4.55,42.35v0.4l0.2,0.3
		l0.1,0.4l0.3,0.3l0.3,0.3l0.3,0.3l0.5,0.3 M6.25,44.65l0.4,0.2l0.5,0.3l0.6,0.1l0.6,0.2l0.6,0.1h0.6l0.6,0.1l0.6-0.1h0.6l0.6-0.1
		l0.6-0.1l0.6-0.2l0.5-0.2l0.5-0.2l0.4-0.3l0.4-0.3l0.3-0.3l0.3-0.3l0.1-0.4l0.2-0.3v-0.4v-0.1 M4.65,41.35l-0.1,0.3v0.4v0.4
		l0.2,0.3l0.1,0.4l0.3,0.3l0.3,0.3l0.3,0.3l0.5,0.3 M6.25,44.35l0.4,0.2l0.5,0.2l0.6,0.2l0.6,0.1l0.6,0.1l0.6,0.1h0.6h0.6h0.6
		l0.6-0.1l0.6-0.2l0.6-0.1l0.5-0.2l0.5-0.3l0.4-0.2l0.4-0.3l0.3-0.3l0.3-0.4l0.1-0.3l0.2-0.3v-0.4v-0.4l-0.1-0.3v-0.1 M4.55,40.75
		L4.55,40.75v0.4l0.2,0.4l0.1,0.3l0.3,0.3l0.3,0.3l0.3,0.3l0.5,0.3 M6.25,43.05l0.4,0.2l0.5,0.3l0.6,0.1l0.6,0.2l0.6,0.1h0.6
		l0.6,0.1l0.6-0.1h0.6l0.6-0.1l0.6-0.1l0.6-0.2l0.5-0.2l0.5-0.2l0.4-0.3l0.4-0.3l0.3-0.3l0.3-0.3l0.1-0.4l0.2-0.3v-0.4v-0.1
		 M4.65,39.75l-0.1,0.3v0.4v0.4l0.2,0.3l0.1,0.4l0.3,0.3l0.3,0.3l0.3,0.3l0.5,0.3 M6.25,42.75l0.4,0.2l0.5,0.2l0.6,0.2l0.6,0.1
		l0.6,0.1l0.6,0.1h0.6h0.6h0.6l0.6-0.1l0.6-0.2l0.6-0.1l0.5-0.2l0.5-0.3l0.4-0.2l0.4-0.3l0.3-0.3l0.3-0.4l0.1-0.3l0.2-0.3v-0.4v-0.4
		l-0.1-0.3v-0.1 M4.55,39.15L4.55,39.15v0.4l0.2,0.4l0.1,0.3l0.3,0.3l0.3,0.3l0.3,0.3l0.5,0.3 M6.25,41.45l0.4,0.3l0.5,0.2l0.6,0.1
		l0.6,0.2l0.6,0.1h0.6l0.6,0.1h0.6l0.6-0.1l0.6-0.1l0.6-0.1l0.6-0.2l0.5-0.2l0.5-0.2l0.4-0.3l0.4-0.3l0.3-0.3l0.3-0.3l0.1-0.4
		l0.2-0.3v-0.4v-0.1 M4.65,38.15l-0.1,0.3v0.4v0.4l0.2,0.3l0.1,0.4l0.3,0.3l0.3,0.3l0.3,0.3l0.5,0.3 M6.25,41.15l0.4,0.2l0.5,0.2
		l0.6,0.2l0.6,0.1l0.6,0.1l0.6,0.1h0.6h0.6h0.6l0.6-0.1l0.6-0.2l0.6-0.1l0.5-0.2l0.5-0.3l0.4-0.2l0.4-0.3l0.3-0.3l0.3-0.3l0.1-0.4
		l0.2-0.3v-0.4v-0.4l-0.1-0.3v-0.1 M11.35,7.95l-2.4-0.3 M12.35,8.15l-1-0.2 M8.95,7.65l-0.8,0.4 M8.95,7.65v-4.7 M4.55,37.55
		L4.55,37.55v0.4l0.2,0.4l0.1,0.3l0.3,0.3l0.3,0.4l0.3,0.2l0.5,0.3 M6.25,39.85l0.4,0.3l0.5,0.2l0.6,0.1l0.6,0.2l0.6,0.1h0.6
		l0.6,0.1h0.6l0.6-0.1l0.6-0.1l0.6-0.1l0.6-0.2l0.5-0.2l0.5-0.2l0.4-0.3l0.4-0.3l0.3-0.3l0.3-0.3l0.1-0.4l0.2-0.3v-0.4v-0.1
		 M13.75,7.25v-3.5 M12.25,8.15l-0.4-0.1l-0.5-0.1 M11.35,7.95h-0.6l-0.5-0.1l-0.6,0.1h-0.6l-0.5,0.1l-0.1,0.1 M13.75,3.75l1.3,2.8
		 M11.55,8.55l3.5-2 M11.55,8.55l-4.9-0.7 M6.65,7.85l-1.3-2.8 M8.95,2.95l-3.6,2.1 M13.75,3.75l-4.8-0.8 M0.25,15.05L0.25,15.05
		l0.1,0.5l0.1,0.5l0.2,0.5l0.2,0.4l0.3,0.5l0.4,0.4l0.5,0.4l0.5,0.4l0.5,0.4l0.6,0.3l0.7,0.3l0.6,0.3l0.8,0.2l0.7,0.2l0.8,0.2
		l0.8,0.1l0.8,0.1h0.9h0.8h0.8l0.8-0.1l0.8-0.1l0.8-0.2l0.8-0.2l0.7-0.2l0.7-0.2l0.7-0.3l0.6-0.4 M17.25,19.05l0.5-0.3l0.6-0.4
		l0.4-0.4l0.4-0.4l0.3-0.5l0.3-0.4l0.2-0.5l0.1-0.5l0.1-0.4v-0.2 M0.25,6.35L0.25,6.35v-0.1 M13.45,86.35l0.8-0.5 M6.25,85.85
		l0.7,0.5 M15.85,83.55L15.85,83.55 M4.55,83.55L4.55,83.55 M15.85,82.25v-0.3 M4.55,81.95v0.3 M15.85,80.65v-0.3 M4.55,80.35v0.3
		 M15.85,79.05v-0.3 M4.55,78.75v0.3 M15.85,77.45v-0.3 M4.55,77.15v0.3 M15.85,75.85v-0.3 M4.55,75.55v0.3 M15.85,74.25v-0.3
		 M4.55,73.95v0.3 M15.85,72.65v-0.3 M4.55,72.35v0.3 M15.85,71.05v-0.3 M4.55,70.75v0.3 M15.85,69.45v-0.3 M4.55,69.15v0.3
		 M15.85,67.85v-0.3 M4.55,67.55v0.3 M15.85,66.25v-0.3 M4.55,65.95v0.3 M15.85,64.65v-0.3 M4.55,64.35v0.3 M15.85,63.05v-0.3
		 M4.55,62.75v0.3 M15.85,61.45v-0.3 M4.55,61.15v0.3 M15.85,59.85v-0.3 M4.55,59.55v0.3 M15.85,58.35v-0.4 M4.55,57.95v0.4
		 M15.85,56.75v-0.4 M4.55,56.35v0.4 M15.85,55.15v-0.4 M4.55,54.75v0.4 M15.85,53.55v-0.4 M4.55,53.15v0.4 M15.85,51.95v-0.4
		 M4.55,51.55v0.4 M15.85,50.35v-0.4 M4.55,49.95v0.4 M15.85,48.75v-0.4 M4.55,48.35v0.4 M15.85,47.15v-0.4 M4.55,46.75v0.4
		 M15.85,45.55v-0.4 M4.55,45.15v0.4 M15.85,43.95v-0.3 M4.55,43.65v0.3 M15.85,42.35v-0.3 M4.55,42.05v0.3 M15.85,40.75v-0.3
		 M4.55,40.45v0.3 M15.85,39.15v-0.3 M4.55,38.85v0.3 M15.85,37.55v-17.8 M4.55,19.75v17.8 M20.15,15.05v-8.8 M0.25,6.25v8.8
		 M20.15,6.25v-0.3l-0.1-0.4l-0.1-0.5l-0.2-0.5l-0.2-0.4l-0.3-0.5l-0.4-0.4l-0.4-0.4l-0.5-0.4l-0.5-0.3l-0.6-0.3l-0.6-0.4l-0.6-0.2
		l-0.7-0.3l-0.7-0.2l-0.7-0.1l-0.8-0.2l-0.7-0.1h-0.8l-0.8-0.1h-0.8l-0.8,0.1l-0.7,0.1l-0.8,0.1l-0.7,0.1l-0.7,0.2l-0.7,0.2
		l-0.7,0.3l-0.6,0.3l-0.6,0.3l-0.6,0.3l-0.5,0.4l-0.4,0.4l-0.4,0.4l-0.4,0.4l-0.2,0.5l-0.3,0.5l-0.1,0.4l-0.1,0.5l-0.1,0.5l0.1,0.1"
		/>
</g>
</svg>
