<?xml version="1.0" encoding="utf-8"?>
<!-- Generator: Adobe Illustrator 19.0.0, SVG Export Plug-In . SVG Version: 6.00 Build 0)  -->
<svg version="1.0" id="Layer_1" xmlns="http://www.w3.org/2000/svg" xmlns:xlink="http://www.w3.org/1999/xlink" x="0px" y="0px"
	 width="44.1px" height="41.2px" viewBox="0 0 44.1 41.2" enable-background="new 0 0 44.1 41.2" xml:space="preserve">
<g>
	
		<path fill="none" stroke="#000000" stroke-width="0.25" stroke-linecap="round" stroke-linejoin="round" stroke-miterlimit="10" d="
		M24.95,18.55L24.95,18.55h-0.1 M33.85,27.55h-0.1 M26.85,17.55L26.85,17.55v0.1l0.1,0.1 M27.85,13.05v0.1h0.1v0.1 M26.85,18.15
		L26.85,18.15l-0.3,0.3l-0.3,0.1l-0.2,0.1h-0.4 M30.95,22.15h0.1h0.1 M30.85,21.95l-0.1-0.1v-0.4l-0.1-0.2v-0.3v-0.4 M30.85,19.95
		L30.85,19.95l0.2,0.1h0.1h0.2h0.1 M31.35,15.15L31.35,15.15l0.1,0.1h0.1h0.2h0.1 M32.85,29.65L32.85,29.65l0.2-0.5l0.2-0.6
		 M32.15,15.75l-0.1,0.7 M31.85,20.25l-0.1,0.3v0.4l-0.1,0.3v0.3v0.3 M28.45,9.85L28.45,9.85l0.1,0.1 M30.75,19.45l0.2-1.9
		 M31.25,14.75l0.4-2.6 M28.55,10.45l-0.4,2.5 M27.95,13.85l-0.3,1.7 M27.55,18.15l2.6,1.5 M24.35,18.45L24.35,18.45v0.1
		 M31.25,11.55l-2.2-1.2 M37.65,0.35h-0.2h-0.4l-0.4,0.1l-0.4,0.1l-0.5,0.1l-0.4,0.2l-0.5,0.2l-0.4,0.2l-0.4,0.3l-0.5,0.3l-0.4,0.4
		l-0.5,0.4l-0.4,0.4l-0.4,0.5l-0.4,0.4l-0.4,0.5l-0.3,0.6 M32.35,16.15l1.2,10.4 M34.95,25.25l5.9-10.7 M32.65,12.25l-0.4,2.6
		 M31.85,11.85L31.85,11.85l0.1,0.1h0.1h0.2h0.1 M43.25,9.55l0.1-0.5l0.1-0.5l0.1-0.6l0.1-0.5v-0.5l-0.1-0.5v-0.4l-0.1-0.5l-0.1-0.4
		l-0.2-0.4l-0.1-0.3l-0.3-0.4l-0.2-0.2l-0.3-0.3l-0.3-0.2l-0.3-0.1l-0.3-0.2l-0.4-0.1h-0.3h-0.4l-0.4,0.1l-0.4,0.1l-0.4,0.1
		l-0.5,0.2 M42.25,12.45L42.25,12.45 M32.25,9.75v-0.2l0.3-0.6l0.2-0.6l0.3-0.6l0.3-0.5l0.3-0.5l0.4-0.6l0.3-0.5l0.4-0.4l0.4-0.5
		l0.4-0.4l0.5-0.4l0.4-0.4l0.4-0.3l0.5-0.3l0.4-0.3l0.5-0.2 M19.15,28.95v0.1v0.1v0.2v0.1 M17.75,28.55L17.75,28.55l0.3,0.1l0.4,0.1
		 M31.05,22.45l-0.1-0.3 M30.05,21.65l-4.3-2.5 M24.75,18.65l-0.4-0.1 M23.05,18.45L23.05,18.45h-0.7h-0.7h-0.6h-0.7l-0.6,0.1
		l-0.7,0.1l-0.6,0.2l-0.6,0.1 M17.35,27.85l1.6,0.9 M19.25,28.95h0.4 M19.75,29.05v0.1l-0.1,0.1v0.1v0.2v0.1 M31.05,22.45h0.1h0.1
		 M22.25,29.15h0.1l0.7-0.1h0.6l0.7-0.1l0.6-0.1l0.6-0.1l0.7-0.2l0.5-0.2l0.6-0.2l0.5-0.2l0.5-0.3l0.5-0.2l0.4-0.3l0.4-0.3l0.4-0.3
		l0.3-0.4l0.3-0.3l0.2-0.4 M31.85,25.25l-0.1,0.4l-0.2,0.4l-0.2,0.3l-0.3,0.4l-0.3,0.3l-0.4,0.4l-0.3,0.3l-0.5,0.3l-0.4,0.3
		l-0.6,0.3l-0.5,0.2l-0.5,0.3l-0.6,0.2l-0.6,0.1l-0.7,0.2l-0.6,0.1 M17.25,28.15v0.1l-0.1,0.1l-0.1,0.1l-0.1,0.1 M19.55,29.85
		l-0.4,6.8l-0.3,4 M19.55,29.85h-0.4 M18.95,29.85l-0.3-0.1h-0.5 M16.75,28.35l-0.2-0.9 M14.95,38.35l0.3,0.2 M16.25,24.25l-0.1,0.1
		v0.1h-0.1 M14.15,38.65h0.1h0.1h0.2l0.1-0.1h0.1 M13.55,38.35l-7.7-4.6 M11.65,37.25v0.1 M15.05,36.95l0.4-5.5 M15.95,24.45
		l-0.5-2.4 M6.65,33.35l7.8,4.7 M4.85,33.15l-2.3-1.3 M9.15,16.55h-0.3l-0.4,0.1l-0.4,0.1l-0.4,0.1l-0.5,0.2l-0.4,0.2l-0.5,0.3
		l-0.4,0.3l-0.5,0.3l-0.4,0.4l-0.4,0.4l-0.4,0.4l-0.4,0.5l-0.4,0.5l-0.4,0.5l-0.4,0.5l-0.3,0.5l-0.3,0.6l-0.3,0.5l-0.2,0.6l-0.3,0.6
		 M5.45,33.45h0.1h0.1h0.1l0.2-0.1h0.1 M14.65,20.25l-0.1-0.2l-0.2-0.2l-0.3-0.2l-0.3-0.2l-0.4-0.1l-0.3-0.1l-0.4-0.1h-0.4h-0.4
		l-0.4,0.1l-0.4,0.1l-0.4,0.2l-0.4,0.2l-0.4,0.2l-0.5,0.3l-0.4,0.3l-0.4,0.4l-0.4,0.4l-0.4,0.4l-0.4,0.4l-0.4,0.5l-0.3,0.5
		 M15.65,21.55v0.1l-0.1,0.1v0.1 M4.15,32.25l-0.1-0.3l-0.2-0.3l-0.1-0.5l-0.1-0.4l-0.1-0.5v-0.5v-0.5v-0.6l0.1-0.5l0.1-0.6l0.1-0.5
		l0.1-0.6l0.2-0.6l0.3-0.6l0.2-0.6l0.3-0.5l0.3-0.6l0.3-0.5l0.3-0.6l0.4-0.5l0.4-0.4"/>
	<path fill="none" stroke="#000000" stroke-width="0.5" stroke-linecap="round" stroke-linejoin="round" stroke-miterlimit="10" d="
		M20.05,26.85l0.3-0.1l0.5-0.1h0.4l0.5-0.1h0.5h0.4l0.5,0.1l0.4,0.1l0.5,0.1 M18.35,26.15l0.1-0.1l0.4-0.2l0.3-0.2l0.4-0.2l0.4-0.1
		l0.4-0.1l0.5-0.1h0.4l0.5-0.1h0.5h0.4l0.5,0.1l0.4,0.1l0.5,0.1l0.4,0.1l0.4,0.1l0.3,0.2l0.4,0.2l0.2,0.2 M19.45,26.65h0.1l0.4-0.2
		l0.4-0.1l0.5-0.1h0.4h0.5h0.5h0.4h0.5l0.4,0.1l0.5,0.1l0.4,0.1l0.2,0.1 M17.65,25.35l0.1-0.2l0.2-0.2l0.3-0.2l0.2-0.2l0.4-0.2
		l0.3-0.2l0.4-0.2l0.4-0.1l0.4-0.1l0.5-0.1h0.4l0.5-0.1h0.5h0.4l0.5,0.1l0.4,0.1l0.5,0.1l0.4,0.1l0.4,0.1l0.3,0.2l0.4,0.2l0.2,0.2
		l0.3,0.2l0.2,0.3l0.2,0.2 M18.15,25.95l0.1-0.1l0.2-0.2l0.4-0.2l0.3-0.2l0.4-0.1l0.4-0.2l0.4-0.1l0.5-0.1h0.4h0.5h0.5h0.4h0.5
		l0.4,0.1l0.5,0.1l0.4,0.1l0.4,0.2l0.3,0.1l0.4,0.2l0.2,0.2l0.2,0.2 M17.35,24.65v-0.2l0.1-0.3l0.1-0.2l0.2-0.3l0.2-0.2l0.3-0.2
		l0.2-0.2l0.4-0.2l0.3-0.2l0.4-0.2l0.4-0.1l0.4-0.1l0.5-0.1l0.4-0.1h0.5h0.5h0.4l0.5,0.1l0.4,0.1l0.5,0.1l0.4,0.1l0.4,0.1l0.3,0.2
		l0.4,0.2l0.2,0.2l0.3,0.2l0.2,0.3l0.2,0.2l0.1,0.3l0.1,0.2l0.1,0.3 M17.55,25.15v-0.1l0.2-0.2l0.2-0.3l0.3-0.2l0.2-0.2l0.4-0.2
		l0.3-0.2l0.4-0.1l0.4-0.2l0.4-0.1l0.5-0.1h0.4h0.5l0.5-0.1l0.4,0.1h0.5l0.4,0.1l0.5,0.1l0.4,0.1l0.4,0.2l0.3,0.1l0.4,0.2l0.2,0.2
		l0.3,0.3l0.2,0.2l0.2,0.3l0.1,0.1 M18.15,40.65l-0.4-0.1h-0.4l-0.2-0.1l-0.1-0.1 M19.25,26.65l-0.4-0.2l-0.3-0.2l-0.3-0.2l-0.2-0.2
		l-0.3-0.3l-0.1-0.2l-0.2-0.3v-0.2l-0.1-0.3v-0.3l0.1-0.2l0.1-0.3l0.1-0.3l0.2-0.2l0.2-0.2l0.3-0.3l0.3-0.2l0.3-0.2l0.4-0.1l0.4-0.2
		l0.4-0.1l0.5-0.1h0.4l0.5-0.1h0.4h0.5h0.5l0.4,0.1l0.4,0.1l0.5,0.1l0.4,0.1l0.3,0.2l0.4,0.2 M25.35,22.55l0.3,0.2l0.3,0.2l0.2,0.2
		l0.2,0.3l0.2,0.2l0.1,0.3v0.3l0.1,0.2l-0.1,0.3v0.3l-0.2,0.2l-0.1,0.3l-0.2,0.2l-0.3,0.2l-0.3,0.3l-0.3,0.2l-0.3,0.1l-0.1,0.1
		 M16.35,23.85v-0.1l0.1-0.3v-0.3l0.2-0.3l0.2-0.2l0.2-0.3l0.2-0.3l0.3-0.2l0.4-0.2l0.4-0.2l0.4-0.2l0.4-0.2l0.5-0.1l0.4-0.1
		l0.5-0.1l0.5-0.1h0.5h0.6h0.5h0.5l0.5,0.1l0.5,0.1l0.4,0.1l0.5,0.2l0.4,0.1l0.4,0.2l0.4,0.2l0.3,0.3l0.3,0.2l0.2,0.3l0.3,0.2
		l0.1,0.3l0.2,0.3v0.3l0.1,0.3 M17.55,28.45L17.55,28.45 M18.05,26.05l0.4,0.2l0.4,0.2l0.4,0.2l0.5,0.1l0.4,0.1l0.5,0.1l0.6,0.1h0.5
		h0.5h0.5l0.5-0.1l0.5-0.1l0.5-0.1l0.5-0.1l0.4-0.1l0.4-0.2l0.4-0.2l0.4-0.2l0.3-0.3l0.3-0.2l0.2-0.3l0.2-0.3l0.2-0.2l0.1-0.3v-0.3
		l0.1-0.3l-0.1-0.3v-0.3l-0.2-0.3l-0.1-0.3l-0.3-0.3l-0.2-0.2l-0.3-0.3l-0.3-0.2l-0.4-0.2l-0.4-0.2l-0.4-0.2l-0.5-0.1l-0.4-0.1
		l-0.5-0.1l-0.5-0.1h-0.5l-0.5-0.1l-0.6,0.1h-0.5l-0.5,0.1h-0.5l-0.4,0.2l-0.5,0.1l-0.4,0.2l-0.4,0.1l-0.4,0.3l-0.4,0.2l-0.3,0.2
		l-0.2,0.3l-0.2,0.2l-0.2,0.3l-0.2,0.3v0.3l-0.1,0.3v0.3l0.1,0.3l0.1,0.3l0.1,0.3l0.2,0.3l0.2,0.2l0.3,0.3l0.3,0.2L18.05,26.05
		 M31.95,23.85L31.95,23.85 M18.85,40.65l0.7,0.2h0.8l0.7,0.1h0.7h0.8h0.7l0.7-0.1l0.7-0.1l0.7-0.1l0.7-0.1l0.7-0.2l0.7-0.2l0.6-0.2
		l0.6-0.2l0.6-0.3l0.5-0.3l0.6-0.3l0.4-0.3l0.5-0.3l0.4-0.4l0.4-0.3l0.3-0.4l0.3-0.4l0.2-0.4l0.2-0.4l0.2-0.4l0.1-0.4v-0.5v-0.4
		v-0.3 M18.85,40.65h-0.7 M17.05,40.35l-5.3-3 M17.05,40.35l-0.5-0.3l-0.5-0.2l-0.5-0.3l-0.4-0.3l-0.6-0.3l-0.5-0.3 M2.15,31.55
		l8.4,5 M10.55,36.55l0.3,0.2l0.2,0.2l0.2,0.1l0.2,0.1l0.2,0.1 M32.85,30.15v-0.2l0.1-0.5l0.2-0.5l0.2-0.5l0.2-0.5l0.3-0.4
		 M24.95,18.45h-0.3h-0.2 M26.85,17.45L26.85,17.45l-0.1,0.2l-0.1,0.2l-0.1,0.1l-0.2,0.2l-0.2,0.1l-0.2,0.1l-0.2,0.1h-0.3l-0.4,0.1
		l-0.1-0.1 M33.85,27.55l8.4-15.1 M27.85,13.05l-0.2,0.9l-0.2,1.2l-0.3,1.1l-0.2,1l-0.1,0.2 M28.45,9.75l-0.6,3.3 M31.65,22.75v-0.1
		v-0.1 M31.65,22.55v-0.1 M38.85,0.75l-0.2-0.1l-0.3-0.2l-0.4-0.1h-0.3l-0.4-0.1h-0.4l-0.4,0.1l-0.5,0.1l-0.4,0.1l-0.4,0.2l-0.5,0.2
		l-0.4,0.2l-0.4,0.3l-0.5,0.3l-0.4,0.3l-0.4,0.4l-0.4,0.4l-0.4,0.4l-0.4,0.4l-0.4,0.5l-0.3,0.5l-0.3,0.5l-0.3,0.5l-0.3,0.5l-0.3,0.5
		l-0.2,0.6l-0.2,0.5l-0.2,0.5l-0.2,0.6l-0.1,0.5l-0.1,0.4 M24.45,18.45l-0.4-0.1h-0.6l-0.7-0.1h-0.6h-0.6l-0.7,0.1h-0.6l-0.7,0.1
		l-0.6,0.1l-0.6,0.1l-0.6,0.2l-0.6,0.2l-0.5,0.2l-0.6,0.2l-0.5,0.2l-0.5,0.3 M41.75,2.45l-2.9-1.7 M42.25,12.45l0.1-0.3l0.3-0.5
		l0.2-0.6l0.3-0.5l0.1-0.6l0.2-0.5l0.1-0.6l0.1-0.5l0.1-0.6l0.1-0.5v-0.5v-0.5l-0.1-0.5l-0.1-0.5l-0.1-0.4l-0.1-0.4l-0.2-0.4
		l-0.2-0.4l-0.3-0.3l-0.2-0.3l-0.3-0.3l-0.3-0.2l-0.2-0.1 M17.55,28.45L17.55,28.45l-0.1-0.1l-0.1-0.1l-0.1-0.2 M31.95,23.85v-0.2
		l-0.1-0.4l-0.1-0.4l-0.1-0.1 M33.35,33.95l-1.4-10.1 M17.25,28.05l-0.1-0.3l-0.3-0.9l-0.3-1l-0.2-1l-0.2-0.7 M16.15,24.15l-0.5-2.7
		 M10.75,16.95L10.75,16.95l-0.3-0.2l-0.4-0.1l-0.3-0.1l-0.4-0.1h-0.4l-0.4,0.1h-0.4l-0.4,0.1l-0.5,0.2l-0.4,0.2l-0.5,0.2l-0.4,0.2
		l-0.4,0.3l-0.5,0.3l-0.4,0.4l-0.4,0.4l-0.4,0.4l-0.4,0.4l-0.3,0.5l-0.4,0.4l-0.3,0.5l-0.4,0.5l-0.3,0.5l-0.2,0.6l-0.3,0.5l-0.2,0.5
		l-0.2,0.6l-0.2,0.5l-0.1,0.6l-0.1,0.5l-0.1,0.5l-0.1,0.6v0.5v0.5v0.4l0.1,0.5l0.1,0.4l0.2,0.5l0.1,0.3l0.2,0.4l0.3,0.3l0.2,0.3
		l0.3,0.3l0.3,0.2h0.1 M13.75,18.65l-3-1.7 M15.65,21.45l-0.1-0.2l-0.1-0.5l-0.2-0.4l-0.2-0.3l-0.2-0.4l-0.3-0.3l-0.2-0.3l-0.3-0.2
		l-0.3-0.2"/>
</g>
</svg>
