<?xml version="1.0" encoding="utf-8"?>
<!-- Generator: Adobe Illustrator 19.0.0, SVG Export Plug-In . SVG Version: 6.00 Build 0)  -->
<svg version="1.1" id="Layer_1" xmlns="http://www.w3.org/2000/svg" xmlns:xlink="http://www.w3.org/1999/xlink" x="0px" y="0px"
	 width="841.9px" height="595.3px" viewBox="0 0 841.9 595.3" style="enable-background:new 0 0 841.9 595.3;" xml:space="preserve"
	>
<style type="text/css">
	.st0{fill:none;stroke:#0B0620;stroke-width:0.5;stroke-linecap:round;stroke-linejoin:round;}
	.st1{fill:none;stroke:#000000;stroke-linecap:round;stroke-linejoin:round;stroke-dasharray:4.7,3.1,1.6,3.1;}
	.st2{fill:#FFFFFF;}
</style>
<g id="XMLID_1_">
	<g>
		<path id="XMLID_226_" class="st0" d="M300.7,301.4c-0.3-0.5-0.3-0.5-0.5-1c-0.3-1-0.3-1-0.7-2.1c-0.4-1.5-0.4-1.5-0.7-2.9
			c-0.3-1.6-0.3-1.6-0.7-3.3c-0.3-3-0.4-3-0.7-6c0-8.7,0-8.7,0.1-17.5"/>
		<path id="XMLID_225_" class="st0" d="M297.5,268.7c-0.1-24.7-0.1-24.8-0.1-49.5c0.1-1.4,0.2-1.4,0.4-2.9c0.3-1.1,0.3-1.1,0.6-2.2
			c0.4-0.9,0.4-0.9,0.7-1.8c0.5-0.9,0.5-0.9,0.9-1.7c0.2-0.3,0.3-0.3,0.5-0.7"/>
		<path id="XMLID_224_" class="st0" d="M318.6,174.8c-0.5-0.5-0.5-0.5-0.9-1.1c-0.7-0.9-0.7-0.9-1.3-1.9c-0.6-1-0.6-1-1.1-2.1
			c-0.5-1.1-0.5-1.1-0.9-2.3"/>
		<path id="XMLID_223_" class="st0" d="M297.5,94c-0.1-6-0.1-6-0.1-11.9c0.1-1.2,0.1-1.2,0.3-2.4c0.2-0.7,0.2-0.7,0.4-1.4
			c0.5-1,0.5-1,1-2.1c0.7-0.9,0.7-0.9,1.4-1.8c0.9-0.7,0.9-0.7,1.8-1.4c1.4-0.8,1.4-0.8,2.7-1.6"/>
		<path id="XMLID_222_" class="st0" d="M301.4,215c0.2,0.2,0.2,0.2,0.4,0.3c0.4,0.3,0.4,0.3,0.9,0.5c1.4,0.5,1.4,0.4,2.7,0.9
			c1,0.4,1,0.4,2,0.9c1,0.5,1,0.5,2.1,1.1c4.6,2.6,4.6,2.6,9.2,5.3"/>
		<path id="XMLID_221_" class="st0" d="M301.1,73.8c7.6,24.1,7.6,24.1,15.3,48.1c0.3,0.7,0.3,0.7,0.7,1.4c0.3,0.4,0.3,0.4,0.6,0.8
			c0.3,0.3,0.3,0.3,0.6,0.5c0.8,0.6,0.8,0.6,1.6,1.1"/>
		<path id="XMLID_220_" class="st0" d="M319.9,125.8C434,191.6,434,191.6,548.1,257.5c0.5,0.3,0.5,0.3,1,0.5c1,0.4,1,0.4,2.1,0.8
			c0.5,0.1,0.5,0.1,1,0.3c0.7,0.1,0.7,0.1,1.3,0.3c1.2,0.1,1.2,0.2,2.5,0.3c27.1-0.1,27.1-0.1,54.3-0.1"/>
		<path id="XMLID_219_" class="st0" d="M547.7,453.3c-114.1-65.8-114.1-65.8-228.2-131.7c-0.7-0.4-0.7-0.4-1.3-0.9
			c-0.5-0.4-0.5-0.4-0.9-0.7c-0.9-0.9-0.9-0.9-1.8-1.8c-4.5-5.9-4.5-5.9-8.9-11.8c-0.4-0.9-0.4-0.9-0.8-1.7"/>
		<path id="XMLID_218_" class="st0" d="M314.9,317.5c0-8,0-8,0-15.9c0-3.6,0-3.6,0.1-7.2c0-10.8,0-10.8-0.1-21.6"/>
		<path id="XMLID_217_" class="st0" d="M319.4,271.4c0.2,0.2,0.2,0.2,0.4,0.3c0.4,0.3,0.4,0.3,0.9,0.5c0.5,0.2,0.5,0.2,1.1,0.4"/>
		<path id="XMLID_216_" class="st0" d="M321.7,272.6c-1-0.2-1-0.2-2.1-0.4c-1,0-1,0-2,0c-1.4,0.2-1.4,0.2-2.8,0.5"/>
		<path id="XMLID_215_" class="st0" d="M606.8,477.7c-8.7-4.3-8.7-4.4-17.5-8.5c-6.4-2-6.4-1.9-12.8-3.8c-1-0.3-1-0.3-2.1-0.7
			c-10.5-4.3-10.5-4.3-20.9-8.6"/>
		<path id="XMLID_214_" class="st0" d="M615.7,481.4c0.9,0.3,0.9,0.3,1.7,0.5c0.9,0.2,0.9,0.2,1.8,0.3c0.8-0.1,0.8-0.1,1.6-0.2"/>
		<path id="XMLID_213_" class="st0" d="M620.6,482.1c1-0.1,1-0.1,1.9-0.2c0.9-0.4,0.9-0.4,1.9-0.8c1.1-0.6,1.1-0.6,2.2-1.2"/>
		<path id="XMLID_212_" class="st0" d="M305.7,304.4l-2.7-2.1l-2.4-0.9"/>
		<path id="XMLID_211_" class="st0" d="M297.5,268.7v2.6"/>
		<path id="XMLID_210_" class="st0" d="M300.7,301.4l-0.5-2.3l-2.2-15.3l5-2.9l-4-8.4l-1,11.3"/>
		<path id="XMLID_209_" class="st0" d="M297.7,219.1l-0.2,49.5"/>
		<path id="XMLID_208_" class="st0" d="M318.1,272.2l-18.3-57.4l-0.8-2.2"/>
		<path id="XMLID_207_" class="st0" d="M318.6,268.7v-93.8"/>
		<path id="XMLID_206_" class="st0" d="M314.4,167.5l-17-53l0.1-20.5l0.2,20.5"/>
		<path id="XMLID_205_" class="st0" d="M304.8,103.5l1,17.9l-2.8,1.7l-4-16.3l-1-17.9l3.2-1.8l0.9,4.5L304.8,103.5l-5.8,3.3"/>
		<path id="XMLID_204_" class="st0" d="M305,71.3l-1.9,1.1"/>
		<path id="XMLID_203_" class="st0" d="M297.5,90.7v-1.6"/>
		<path id="XMLID_202_" class="st0" d="M300.6,212.5v-2.1V212.5l0.1,1.2l0.7,1.2"/>
		<path id="XMLID_201_" class="st0" d="M300.6,210.4v-80.9v3.2"/>
		<path id="XMLID_200_" class="st0" d="M300.6,129.5v-5.2"/>
		<path id="XMLID_199_" class="st0" d="M300.6,124.7v-0.5"/>
		<path id="XMLID_198_" class="st0" d="M553.5,456.1l-2.3-1l-3.5-1.8"/>
		<path id="XMLID_197_" class="st0" d="M305.7,304.7l-0.1-2.1l0.2-1.8l-2.7,1.6"/>
		<path id="XMLID_196_" class="st0" d="M305.8,300.7l-2.9-19.8"/>
		<path id="XMLID_195_" class="st0" d="M338.9,52.9L303,72.4"/>
		<path id="XMLID_194_" class="st0" d="M305,71.3l16.8-9.7l-2.8,1.6"/>
		<path id="XMLID_193_" class="st0" d="M311.6,158.6l-0.2-0.7"/>
		<path id="XMLID_192_" class="st0" d="M318.6,268.7l0.1,1.5l0.7,1.2"/>
		<path id="XMLID_191_" class="st0" d="M314.9,168.8l0.1-45.9"/>
		<path id="XMLID_190_" class="st0" d="M314.2,166.9l-0.6-1.8"/>
		<path id="XMLID_189_" class="st0" d="M318.4,320.4l229.5,132.5"/>
		<path id="XMLID_188_" class="st0" d="M318.6,184.5v3.2"/>
		<path id="XMLID_187_" class="st0" d="M321.7,178l-2.1-2l-1-1.2"/>
		<path id="XMLID_186_" class="st0" d="M321.7,61.6l11.2-6.4"/>
		<path id="XMLID_185_" class="st0" d="M331.9,55.7l2.6-1.5"/>
		<path id="XMLID_184_" class="st0" d="M332.8,55.2l3.2-1.8"/>
		<path id="XMLID_183_" class="st0" d="M415.6,95.5L345.4,55"/>
		<path id="XMLID_182_" class="st0" d="M421.5,115.3v-2V115.3"/>
		<path id="XMLID_181_" class="st0" d="M421.5,103.8v11.5"/>
		<path id="XMLID_180_" class="st0" d="M547.1,193.2l-119.1-68.7"/>
		<path id="XMLID_179_" class="st0" d="M551.1,455L551,266.9"/>
		<path id="XMLID_178_" class="st0" d="M553.9,455.2l16.2,6.5l0.7-0.4l-1.1,0.7l2.8,1.8l2,0.9"/>
		<path id="XMLID_177_" class="st0" d="M562.9,196.9h20"/>
		<path id="XMLID_176_" class="st0" d="M568.2,284.4l-0.8-0.5l6.8-14.7l18.7-2.9l7.1-1.2l3.4,2.3l14.9,8.6l-6.8,14.7l-25.5,4
			L568.2,284.4"/>
		<path id="XMLID_175_" class="st0" d="M567.5,284l32.6-18.8"/>
		<path id="XMLID_174_" class="st0" d="M570.8,461.4l0.7-0.4L570.8,461.4"/>
		<path id="XMLID_173_" class="st0" d="M569.7,462l0.4-0.2"/>
		<path id="XMLID_172_" class="st0" d="M571.5,461l2.5-1.4L571.5,461"/>
		<path id="XMLID_171_" class="st0" d="M574,459.5l0.7-0.4L574,459.5"/>
		<path id="XMLID_170_" class="st0" d="M571.8,460.8L571.8,460.8"/>
		<path id="XMLID_169_" class="st0" d="M574.7,459.1l3.3-1.9L574.7,459.1"/>
		<path id="XMLID_168_" class="st0" d="M578,457.2l6.5-3.7l-2.8,1.6"/>
		<path id="XMLID_167_" class="st0" d="M584.4,453.5l1.7-1l25.5,3.9l6.8,14.6l-11.8,6.8l9.2,3.6l-0.1,0"/>
		<path id="XMLID_166_" class="st0" d="M586.1,294.7l30.6-17.7L615,274"/>
		<path id="XMLID_165_" class="st0" d="M589.4,469.2l21.5-12.4l1.6,1.5"/>
		<path id="XMLID_164_" class="st0" d="M649,230.3l-51.8-29.9"/>
		<path id="XMLID_163_" class="st0" d="M606.8,477.7l0.8-0.5"/>
		<path id="XMLID_162_" class="st0" d="M606.9,477.6l3.3-1.9l-2.6,1.5"/>
		<path id="XMLID_161_" class="st0" d="M609.7,476l0.5-0.3l-2.6,1.5l8.9,3.6"/>
		<path id="XMLID_160_" class="st0" d="M610.2,475.7l4.2-2.4"/>
		<path id="XMLID_159_" class="st0" d="M610.8,456.8l-0.1-0.6"/>
		<path id="XMLID_158_" class="st0" d="M615.6,481.4l0.6,0.3l1.3,0.2l-0.2-0.1"/>
		<path id="XMLID_157_" class="st0" d="M614.4,473.3l1.4-0.8"/>
		<path id="XMLID_156_" class="st0" d="M617.8,277.3l-1.1-0.3"/>
		<path id="XMLID_155_" class="st0" d="M618.9,482.2l-0.7-0.1"/>
		<path id="XMLID_154_" class="st0" d="M620.9,482l-0.3,0"/>
		<path id="XMLID_153_" class="st0" d="M626.5,479.8l-0.3,0.2"/>
		<path id="XMLID_152_" class="st0" d="M659.6,241.5l-33.3,19.2"/>
		<path id="XMLID_151_" class="st0" d="M641.4,471.2l1.3-0.7l-16.2,9.3"/>
		<path id="XMLID_150_" class="st0" d="M629.3,478.2V273"/>
		<path id="XMLID_149_" class="st0" d="M643.2,470.2l-0.5,0.3l2.1-1.2L643.2,470.2"/>
		<path id="XMLID_148_" class="st0" d="M644.8,469.2l13.5-7.8"/>
		<path id="XMLID_147_" class="st0" d="M645.2,362.8v-29.9"/>
		<path id="XMLID_146_" class="st0" d="M652.4,374.5l-2.6-1.5l10,5.8"/>
		<path id="XMLID_145_" class="st0" d="M649.8,317.4l10-17.3"/>
		<path id="XMLID_144_" class="st0" d="M656,462.7l2.9-1.6"/>
		<path id="XMLID_143_" class="st0" d="M658.9,461.1l1.8-1"/>
		<path id="XMLID_142_" class="st0" d="M664,451.1V388"/>
		<path id="XMLID_141_" class="st0" d="M664,256.3V286"/>
		<path id="XMLID_140_" class="st0" d="M428.1,124.4c-4.2-2.4-6.5-5.7-6.5-9.1"/>
		<path id="XMLID_139_" class="st0" d="M415.6,95.5c3.8,2.2,5.9,5.2,5.9,8.2"/>
		<path id="XMLID_138_" class="st0" d="M336,53.4c2.7-0.9,6-0.3,9.4,1.6"/>
		<path id="XMLID_137_" class="st0" d="M664,451.1c0,5.3-2.1,9.1-5.7,10.3"/>
		<ellipse id="XMLID_136_" class="st0" cx="616.4" cy="225.8" rx="6.6" ry="3.8"/>
		<path id="XMLID_135_" class="st0" d="M649.8,373c-3-1.7-4.6-5.4-4.6-10.2"/>
		<path id="XMLID_134_" class="st0" d="M664,286c0,4.4-1.5,9.4-4.2,14.1"/>
		<path id="XMLID_133_" class="st0" d="M562.9,196.9c-5.9,0-11.6-1.4-15.8-3.8"/>
		<path id="XMLID_132_" class="st0" d="M649,230.3c8.3,4.8,15,16.4,15,26"/>
		<path id="XMLID_131_" class="st0" d="M582.9,196.9c5.3,0,10.5,1.2,14.3,3.4"/>
		<ellipse id="XMLID_130_" class="st0" cx="362.4" cy="79.1" rx="6.6" ry="3.8"/>
		<path id="XMLID_129_" class="st0" d="M659.8,378.8c2.7,1.5,4.2,4.9,4.2,9.2"/>
		<path id="XMLID_128_" class="st0" d="M645.2,332.9c0-4.8,1.7-10.4,4.6-15.6"/>
	</g>
	<g>
		<path id="XMLID_127_" class="st0" d="M499.5,537.9c-3.3,1.9-3.3,1.9-6.7,3.8c-0.5,0.2-0.5,0.2-1,0.3c-0.9,0.1-0.9,0.2-1.9,0.3
			c-0.5,0-0.5,0-1-0.1c-1-0.1-1-0.1-2-0.3c-1-0.4-1-0.4-2.1-0.9c-0.3-0.2-0.3-0.2-0.7-0.4c-1-0.7-1-0.7-2-1.3
			c-0.9-0.9-1-0.9-1.9-1.8c-0.9-1-0.9-1-1.7-2.1c-0.7-1.2-0.7-1.2-1.5-2.4c-0.6-1.2-0.6-1.2-1.1-2.5c-0.4-1.2-0.4-1.2-0.8-2.5
			c-0.2-1.2-0.2-1.2-0.4-2.5c0-0.3,0-0.3,0-0.7c0-1.2,0-1.2,0.1-2.4c0.2-1,0.3-1,0.5-2.1c0.2-0.4,0.2-0.4,0.4-0.9
			c0.5-0.9,0.5-0.9,1-1.7"/>
		<path id="XMLID_126_" class="st0" d="M484.4,540.9c1,0.5,1.1,0.5,2.2,0.9c0.5,0.1,0.5,0.1,1.1,0.2c0.4,0.1,0.4,0.1,0.8,0.1
			c0.5-0.1,0.5-0.1,1-0.1c0.3-0.1,0.4-0.1,0.7-0.1c0.4-0.2,0.4-0.2,0.9-0.5c0.3-0.2,0.3-0.2,0.6-0.4c0.3-0.4,0.3-0.4,0.7-0.8
			c0.2-0.3,0.2-0.3,0.5-0.6c0.2-0.5,0.2-0.5,0.5-1c0.1-0.4,0.1-0.4,0.3-0.8c0.1-0.6,0.1-0.6,0.2-1.2c0-0.5,0-0.5,0.1-1
			c0-0.7,0-0.7,0-1.4c-0.1-0.5-0.1-0.5-0.1-1.1c-0.1-0.7-0.1-0.7-0.3-1.5c-0.2-0.6-0.2-0.6-0.3-1.1c-0.2-0.7-0.2-0.7-0.5-1.5
			c-0.2-0.6-0.2-0.6-0.5-1.2c-0.4-0.7-0.4-0.7-0.7-1.4c-0.3-0.5-0.3-0.5-0.7-1.1c-0.5-0.7-0.5-0.7-0.9-1.3c-0.4-0.5-0.4-0.5-0.8-1
			c-0.5-0.6-0.5-0.6-1-1.2c-0.4-0.4-0.5-0.4-0.9-0.9c-0.5-0.5-0.5-0.5-1.1-0.9c-0.5-0.3-0.5-0.3-0.9-0.7c-0.5-0.3-0.5-0.3-1.1-0.7
			c-0.5-0.2-0.5-0.2-0.9-0.5c-0.5-0.2-0.5-0.2-1.1-0.4c-0.5-0.1-0.5-0.1-0.9-0.2c-0.5,0-0.5,0-1-0.1c-0.4,0-0.4,0-0.8,0.1
			c-0.5,0.1-0.5,0.1-0.9,0.3c-0.4,0.1-0.4,0.1-0.7,0.3c-0.4,0.3-0.4,0.3-0.7,0.6c-0.3,0.3-0.3,0.3-0.6,0.5c-0.3,0.4-0.3,0.4-0.5,0.9
			c-0.2,0.4-0.2,0.4-0.4,0.7c-0.2,0.5-0.1,0.5-0.3,1.1c-0.1,0.5-0.1,0.5-0.2,0.9c0,1.3,0,1.3-0.1,2.6"/>
		<path id="XMLID_125_" class="st0" d="M487,512c1.3,0.1,1.3,0.1,2.5,0.3c1.4,0.5,1.4,0.5,2.7,1.2c1.3,0.9,1.3,0.9,2.6,1.9
			c1.2,1.3,1.2,1.3,2.5,2.6c1.1,1.6,1.1,1.6,2.2,3.2c0.9,1.7,0.9,1.7,1.7,3.5c0.5,1.7,0.5,1.7,1,3.4"/>
		<path id="XMLID_124_" class="st0" d="M501.6,519.9c-1.9-1.2-2-1.2-3.9-2.4c-1.4-1.1-1.4-1.1-2.8-2.2c-1.2-1.2-1.2-1.2-2.4-2.5
			c-1.2-1.6-1.2-1.6-2.4-3.2"/>
		<path id="XMLID_123_" class="st0" d="M496.3,506.1c1.9,1.2,1.9,1.2,3.8,2.4c1.4,1.1,1.4,1.1,2.9,2.2c1.2,1.2,1.2,1.2,2.4,2.5
			c1.2,1.6,1.2,1.6,2.4,3.2c0.8,1.8,0.8,1.8,1.5,3.7c0.5,1.6,0.5,1.7,0.9,3.3c0.3,1.8,0.3,1.8,0.5,3.6c0.1,2.2,0.1,2.2,0.1,4.5"/>
		<path id="XMLID_122_" class="st0" d="M502.2,527.9c0.2,1.6,0.2,1.6,0.3,3.3c-0.1,1.5-0.1,1.5-0.3,2.9c-0.5,1.2-0.5,1.2-1,2.3"/>
		<path id="XMLID_121_" class="st0" d="M497.8,538.9l2.5-1.4l0.6-0.4l-4.6,2.7l4-2.3l-0.7,0.4"/>
		<path id="XMLID_120_" class="st0" d="M476.8,517.9l2.2-1.9l5-2.9l-2.4,1.4l1.5-0.9"/>
		<path id="XMLID_119_" class="st0" d="M486.1,511.9l-1.2,0.7l2.1-0.7"/>
		<path id="XMLID_118_" class="st0" d="M502.2,527.9l-0.5-3.6l-0.1-4.5"/>
		<path id="XMLID_117_" class="st0" d="M490.1,509.7l-4,2.3"/>
		<path id="XMLID_116_" class="st0" d="M484.9,512.6l2.3-1.3l0.1,0l-3.2,1.9L484.9,512.6l-0.9,0.5"/>
		<path id="XMLID_115_" class="st0" d="M490.2,509.5l-2.9,1.7l9-5.2"/>
		<path id="XMLID_114_" class="st0" d="M510.9,531.4l-6.2,3.6l-4.5,2.6"/>
		<path id="XMLID_113_" class="st0" d="M488.9,510.3l-1.6,0.9L488.9,510.3"/>
		<path id="XMLID_112_" class="st0" d="M487.3,511.2l3-1.7"/>
		<path id="XMLID_111_" class="st0" d="M489.1,538.3l-1.6,0.9"/>
		<path id="XMLID_110_" class="st0" d="M490.3,509.5l3.5-2l-0.3,0.2"/>
		<path id="XMLID_109_" class="st0" d="M493.8,507.5l2.5-1.4"/>
		<path id="XMLID_108_" class="st0" d="M496.2,539.8L496.2,539.8"/>
		<path id="XMLID_107_" class="st0" d="M504.7,535l-1.6-3.7l-0.9-3.3"/>
		<path id="XMLID_106_" class="st0" d="M501.2,536.4l-1.6,1.5"/>
		<path id="XMLID_105_" class="st0" d="M503.5,535.7l-2.6,1.5l1.4-0.8"/>
		<path id="XMLID_104_" class="st0" d="M500.9,537.2L500.9,537.2"/>
		<path id="XMLID_103_" class="st0" d="M500.9,537.2l2.6-1.5L500.9,537.2"/>
		<path id="XMLID_102_" class="st0" d="M501.6,519.9l6.2-3.6"/>
		<path id="XMLID_101_" class="st0" d="M505.3,534.6l-1.9,1.1l0.2-0.1"/>
		<path id="XMLID_100_" class="st0" d="M503.5,535.7l3-1.7L503.5,535.7"/>
		<path id="XMLID_99_" class="st0" d="M506.5,533.9l1.3-0.7"/>
		<path id="XMLID_98_" class="st0" d="M510.9,531.4l-3.2,1.8"/>
		<path id="XMLID_97_" class="st0" d="M506.5,533.9l2.9-1.6"/>
		<path id="XMLID_96_" class="st0" d="M490.3,533.8c-1.4,1.8-4.2,0.9-6.5-1.9c-2.2-2.8-2.9-6.6-1.6-8.4c0.4-0.5,0.9-0.8,1.6-0.9"/>
		<path id="XMLID_95_" class="st0" d="M489.6,537.7c-3.4,0.1-7.6-3.9-9.4-8.8c-1.1-3-1.1-5.7,0-7.5"/>
		
			<ellipse id="XMLID_94_" transform="matrix(-0.866 0.5 -0.5 -0.866 1167.209 747.9946)" class="st0" cx="483.4" cy="530.4" rx="5.7" ry="9.9"/>
	</g>
	<g>
		<path id="XMLID_93_" class="st0" d="M202.3,179.5c-3.2,1.8-3.2,1.8-6.5,3.6c-0.5,0.2-0.5,0.2-1,0.3c-0.9,0.2-0.9,0.2-1.9,0.3
			c-0.5,0-0.5,0-1-0.1c-1-0.2-1-0.1-2-0.3c-1-0.4-1-0.4-2.1-0.9c-0.3-0.2-0.3-0.2-0.7-0.4c-1-0.7-1-0.7-2-1.3c-1-0.9-1-0.9-1.9-1.8
			c-0.9-1-0.9-1-1.7-2.1c-0.8-1.2-0.8-1.2-1.5-2.4c-0.6-1.2-0.6-1.3-1.2-2.5c-0.4-1.3-0.4-1.3-0.8-2.6c-0.2-1.2-0.2-1.2-0.4-2.4
			c0-0.3,0-0.3,0-0.7c0-1.2,0-1.2,0.1-2.4c0.2-1,0.2-1,0.5-2.1c0.2-0.4,0.2-0.4,0.4-0.9c0.5-0.9,0.5-0.9,1-1.7"/>
		<path id="XMLID_92_" class="st0" d="M190.1,153.4c1.2,0.1,1.3,0.1,2.5,0.2c1.4,0.5,1.4,0.6,2.7,1.2c1.3,0.9,1.3,1,2.7,1.9
			c1.4,1.1,1.4,1.1,2.8,2.2c1.9,1.2,1.9,1.2,3.8,2.4"/>
		<path id="XMLID_91_" class="st0" d="M205.2,169.4c-0.5-1.7-0.5-1.7-1-3.4c-0.8-1.8-0.8-1.8-1.6-3.5c-1-1.6-1.1-1.6-2.2-3.2
			c-1.2-1.3-1.2-1.3-2.4-2.6c-1.2-1.2-1.2-1.2-2.4-2.5c-1.2-1.6-1.2-1.6-2.4-3.2"/>
		<path id="XMLID_90_" class="st0" d="M187.5,182.3c1,0.5,1,0.5,2.1,0.9c0.6,0.1,0.6,0.1,1.1,0.2c0.4,0.1,0.4,0.1,0.8,0.1
			c0.5-0.1,0.5-0.1,1-0.1c0.4-0.1,0.4-0.1,0.7-0.1c0.4-0.2,0.4-0.2,0.9-0.5c0.3-0.2,0.3-0.2,0.6-0.4c0.3-0.4,0.3-0.4,0.7-0.7
			c0.2-0.3,0.2-0.3,0.4-0.6c0.3-0.5,0.3-0.5,0.5-1c0.1-0.4,0.1-0.4,0.3-0.8c0.1-0.6,0.1-0.6,0.2-1.2c0-0.5,0-0.5,0.1-1
			c0-0.7,0-0.7,0-1.4c-0.1-0.5-0.1-0.5-0.1-1.1c-0.1-0.7-0.1-0.7-0.3-1.5c-0.1-0.6-0.1-0.6-0.3-1.1c-0.3-0.8-0.3-0.8-0.5-1.5
			c-0.3-0.6-0.3-0.6-0.5-1.1c-0.4-0.7-0.4-0.7-0.7-1.4c-0.3-0.6-0.3-0.6-0.7-1.1c-0.4-0.7-0.4-0.7-0.9-1.3c-0.4-0.5-0.4-0.5-0.8-1
			c-0.5-0.6-0.5-0.6-1-1.2c-0.4-0.4-0.4-0.4-0.9-0.9c-0.5-0.5-0.5-0.5-1.1-0.9c-0.5-0.3-0.5-0.3-0.9-0.7c-0.6-0.3-0.6-0.3-1.1-0.7
			c-0.5-0.2-0.5-0.2-0.9-0.5c-0.5-0.2-0.5-0.2-1.1-0.4c-0.5-0.1-0.5-0.1-0.9-0.2c-0.5-0.1-0.5-0.1-1-0.1c-0.4,0-0.4,0-0.8,0
			c-0.5,0.1-0.5,0.1-0.9,0.3c-0.3,0.1-0.3,0.1-0.7,0.3c-0.3,0.3-0.3,0.3-0.7,0.6c-0.3,0.3-0.3,0.3-0.6,0.5c-0.3,0.4-0.3,0.4-0.5,0.9
			c-0.2,0.4-0.2,0.4-0.4,0.7c-0.1,0.5-0.1,0.5-0.3,1.1c-0.1,0.5-0.1,0.5-0.2,0.9c-0.1,1.3-0.1,1.3-0.1,2.6"/>
		<path id="XMLID_89_" class="st0" d="M199.3,147.4c1.9,1.2,1.9,1.2,3.8,2.4c1.4,1.1,1.4,1.1,2.9,2.2c1.2,1.2,1.2,1.2,2.4,2.5
			c1.2,1.6,1.2,1.6,2.4,3.2c0.8,1.8,0.8,1.8,1.6,3.7c0.5,1.7,0.5,1.7,0.9,3.3c0.3,1.8,0.3,1.8,0.5,3.6c0.1,2.3,0.1,2.3,0.1,4.5"/>
		<path id="XMLID_88_" class="st0" d="M205.2,169.4c0.2,1.6,0.2,1.6,0.4,3.3c-0.1,1.4-0.1,1.5-0.4,2.9c-0.5,1.2-0.5,1.2-1,2.3"/>
		<path id="XMLID_87_" class="st0" d="M202.3,179.5l-1.5,0.9L202.3,179.5"/>
		<path id="XMLID_86_" class="st0" d="M179.9,159.3l2.2-1.9l7.3-4.2l-1.4,0.8l2.1-0.7"/>
		<path id="XMLID_85_" class="st0" d="M204.6,161.3l0.1,4.5l0.5,3.6"/>
		<path id="XMLID_84_" class="st0" d="M193.1,151l-3.7,2.2l0.2-0.1"/>
		<path id="XMLID_83_" class="st0" d="M184.6,155.9l1.3-0.7"/>
		<path id="XMLID_82_" class="st0" d="M186,155.2l3.4-2l-1.4,0.8"/>
		<path id="XMLID_81_" class="st0" d="M187.9,154l-1.2,0.7"/>
		<path id="XMLID_80_" class="st0" d="M192.1,179.7l-1.6,0.9"/>
		<path id="XMLID_79_" class="st0" d="M189.4,153.2l3.8-2.2"/>
		<path id="XMLID_78_" class="st0" d="M198.7,147.8l0.5-0.3l-6,3.5l1.9-1.1"/>
		<path id="XMLID_77_" class="st0" d="M193.1,151l-0.5,0.3l2.4-1.4"/>
		<path id="XMLID_76_" class="st0" d="M199.2,181.2L199.2,181.2l1.6-0.9"/>
		<path id="XMLID_75_" class="st0" d="M202.3,179.5l2.4-1.4l-1,0.6"/>
		<path id="XMLID_74_" class="st0" d="M199.1,147.6l0.2-0.1"/>
		<path id="XMLID_73_" class="st0" d="M213.9,172.8l-6.2,3.6l-3.9,2.3"/>
		<path id="XMLID_72_" class="st0" d="M207.7,176.4l-1.6-3.7l-0.9-3.3"/>
		<path id="XMLID_71_" class="st0" d="M204.2,177.8l-1.6,1.5"/>
		<path id="XMLID_70_" class="st0" d="M209.7,175.3l0.7-0.4l-5.6,3.2"/>
		<path id="XMLID_69_" class="st0" d="M204.6,161.3l6.2-3.6"/>
		<path id="XMLID_68_" class="st0" d="M209.7,175.3l2.4-1.4l-1.7,1"/>
		<path id="XMLID_67_" class="st0" d="M212,173.9l1.4-0.9"/>
		
			<ellipse id="XMLID_66_" transform="matrix(-0.866 0.5 -0.5 -0.866 433.7593 227.3283)" class="st0" cx="186.4" cy="171.8" rx="5.7" ry="9.9"/>
		<path id="XMLID_65_" class="st0" d="M192.6,179.1c-3.4,0.1-7.6-3.9-9.4-8.8c-1.1-3-1.1-5.7,0-7.5"/>
		<path id="XMLID_64_" class="st0" d="M193.4,175.2c-1.4,1.8-4.2,0.9-6.5-1.9c-2.2-2.8-2.9-6.6-1.6-8.4c0.4-0.5,0.9-0.8,1.6-0.9"/>
	</g>
	<g>
		<path id="XMLID_63_" class="st0" d="M499.5,350.8c-2.6,1.5-2.6,1.5-5.2,3c-0.8,0.4-0.8,0.5-1.6,0.9c-0.5,0.2-0.5,0.2-1,0.4
			c-0.9,0.1-0.9,0.1-1.9,0.2c-0.5,0-0.5,0-1-0.1c-1-0.2-1-0.1-2-0.4c-1-0.4-1-0.5-2.1-0.9c-0.3-0.2-0.3-0.2-0.7-0.4
			c-1-0.7-1-0.7-2-1.4c-0.9-0.9-0.9-0.9-1.9-1.8c-0.9-1-0.9-1-1.7-2.1c-0.7-1.2-0.7-1.2-1.4-2.4c-0.6-1.2-0.6-1.2-1.1-2.5
			c-0.4-1.3-0.4-1.3-0.7-2.6c-0.2-1.2-0.2-1.2-0.3-2.4c0-0.3,0-0.3,0-0.7c0-1.2,0-1.2,0.1-2.4c0.3-1,0.3-1,0.5-2.1
			c0.2-0.4,0.2-0.4,0.5-0.9c0.5-0.9,0.5-0.9,1-1.7c0.4-0.4,0.4-0.3,0.8-0.7c0.7-0.6,0.7-0.6,1.4-1.1"/>
		<path id="XMLID_62_" class="st0" d="M487.1,324.8c1.2,0.1,1.2,0.1,2.4,0.3c1.4,0.3,1.4,0.3,2.9,0.6c1.9,0.2,1.9,0.2,3.8,0.4"/>
		<path id="XMLID_61_" class="st0" d="M502.5,322.5c-1.2-0.7-1.2-0.7-2.4-1.3c-1.2-0.4-1.2-0.4-2.4-0.8c-1.4-0.3-1.4-0.3-2.8-0.6
			c-1.9-0.2-1.9-0.2-3.9-0.4"/>
		<path id="XMLID_60_" class="st0" d="M484.7,323c1.2,0.6,1.2,0.6,2.4,1.2c1.2,0.4,1.2,0.4,2.4,0.8c1.3,0.5,1.3,0.5,2.6,1.1
			c1.4,1,1.4,1,2.7,2c1.3,1.3,1.3,1.3,2.5,2.7c1.1,1.5,1.1,1.5,2.1,3.1"/>
		<path id="XMLID_59_" class="st0" d="M484.2,353.6c1.1,0.5,1.1,0.5,2.2,1c0.5,0.1,0.6,0.1,1.1,0.2c0.4,0.1,0.4,0.1,0.8,0.1
			c0.5-0.1,0.5-0.1,1-0.1c0.4-0.1,0.4-0.1,0.7-0.1c0.5-0.2,0.5-0.2,0.9-0.4c0.3-0.2,0.3-0.2,0.6-0.4c0.3-0.4,0.3-0.4,0.7-0.7
			c0.2-0.3,0.2-0.3,0.5-0.6c0.3-0.5,0.2-0.5,0.5-1c0.1-0.4,0.1-0.4,0.3-0.8c0.1-0.6,0.1-0.6,0.2-1.2c0.1-0.5,0.1-0.5,0.1-1
			c0-0.7,0-0.7,0-1.4c-0.1-0.5-0.1-0.5-0.1-1c-0.1-0.7-0.1-0.7-0.3-1.5c-0.1-0.6-0.1-0.6-0.3-1.1c-0.3-0.7-0.3-0.7-0.5-1.5
			c-0.2-0.6-0.2-0.6-0.5-1.2c-0.3-0.7-0.3-0.7-0.7-1.4c-0.3-0.6-0.3-0.6-0.7-1.1c-0.4-0.7-0.4-0.7-0.9-1.4c-0.4-0.5-0.4-0.5-0.8-1
			c-0.5-0.6-0.5-0.6-1-1.2c-0.4-0.4-0.4-0.4-0.9-0.9c-0.5-0.5-0.5-0.5-1.1-1c-0.5-0.3-0.5-0.3-0.9-0.7c-0.5-0.4-0.5-0.4-1.1-0.7
			c-0.5-0.2-0.5-0.2-0.9-0.5c-0.5-0.2-0.5-0.2-1.1-0.4c-0.5-0.1-0.5-0.1-0.9-0.2c-0.5-0.1-0.5-0.1-1-0.1c-0.4,0-0.4,0-0.8,0
			c-0.5,0.1-0.5,0.1-0.9,0.2c-0.3,0.1-0.4,0.1-0.7,0.3c-0.4,0.3-0.4,0.3-0.7,0.5c-0.3,0.3-0.3,0.3-0.6,0.5c-0.3,0.4-0.3,0.4-0.5,0.8
			c-0.2,0.4-0.2,0.4-0.4,0.7c-0.2,0.5-0.2,0.5-0.3,1.1c-0.1,0.5-0.1,0.5-0.2,0.9c-0.1,1.3-0.1,1.3-0.1,2.6"/>
		<path id="XMLID_58_" class="st0" d="M499.5,333.9c0.9,1.7,0.9,1.7,1.6,3.4c0.5,1.8,0.5,1.8,1,3.5c0.2,1.7,0.2,1.7,0.3,3.3
			c-0.1,1.4-0.1,1.4-0.3,2.8"/>
		<path id="XMLID_57_" class="st0" d="M510.9,337.1c-0.1,1.3-0.1,1.3-0.1,2.7c-0.3,1.3-0.3,1.3-0.5,2.6c-0.5,1.4-0.5,1.4-0.9,2.7
			c-0.8,1.8-0.8,1.8-1.5,3.5"/>
		<path id="XMLID_56_" class="st0" d="M510.9,337.1c-0.8-2.2-0.8-2.2-1.6-4.4c-0.9-1.7-0.9-1.7-1.7-3.4c-1-1.6-1-1.6-2.1-3.2
			c-1.5-1.8-1.5-1.8-3-3.5"/>
		<path id="XMLID_55_" class="st0" d="M497.7,351.8l3.9,0.4l0.1-2.7l0.5-2.5l-1,2.3l-1.7,1.5"/>
		<path id="XMLID_54_" class="st0" d="M479.2,328.8l5.8-3.3l2.2-0.7"/>
		<path id="XMLID_53_" class="st0" d="M496.2,326.1l6.2-3.6"/>
		<path id="XMLID_52_" class="st0" d="M490.9,319.4l-6.2,3.6"/>
		<path id="XMLID_51_" class="st0" d="M499.5,333.9l-1.7-3.5l-1.6-4.4"/>
		<path id="XMLID_50_" class="st0" d="M484.7,323l-1.5,3.5"/>
		<path id="XMLID_49_" class="st0" d="M500.2,335l-0.7-1"/>
		<path id="XMLID_48_" class="st0" d="M502.2,347l0.9-2.7l1.6-3.5l-3-3.5l-1.4-2.2"/>
		<path id="XMLID_47_" class="st0" d="M497.6,320.4L497.6,320.4"/>
		<path id="XMLID_46_" class="st0" d="M504.7,340.7l6.2-3.6"/>
		<path id="XMLID_45_" class="st0" d="M507.8,348.6l-6.2,3.6"/>
		<path id="XMLID_44_" class="st0" d="M489.6,350.5c-3.4,0.1-7.6-3.9-9.4-8.8c-1.1-3-1.1-5.7,0-7.5"/>
		
			<ellipse id="XMLID_43_" transform="matrix(-0.866 0.5 -0.5 -0.866 1073.6373 398.7806)" class="st0" cx="483.4" cy="343.2" rx="5.7" ry="9.9"/>
		<path id="XMLID_42_" class="st0" d="M490.3,346.7c-1.4,1.8-4.2,0.9-6.5-1.9s-2.9-6.6-1.6-8.4c0.4-0.5,0.9-0.8,1.6-0.9"/>
	</g>
	<g>
		<path id="XMLID_41_" class="st0" d="M187.9,341.2c-3.3,1.9-3.3,1.9-6.5,3.8c-0.4,0.3-0.4,0.3-0.8,0.7c-0.6,0.7-0.6,0.7-1.2,1.4
			c-0.2,0.5-0.2,0.5-0.5,0.9c-0.4,0.9-0.4,0.9-0.7,1.8c-0.2,1.1-0.2,1.1-0.3,2.2c0,0.4,0,0.4,0,0.8c0.1,1.2,0.1,1.2,0.1,2.4
			c0.3,1.2,0.3,1.3,0.6,2.5c0.5,1.3,0.5,1.3,0.9,2.6c0.6,1.2,0.6,1.2,1.3,2.5c0.8,1.2,0.8,1.2,1.6,2.3c0.9,1,0.9,1,1.8,2
			c0.9,0.8,0.9,0.8,1.9,1.6c1.1,0.7,1.2,0.7,2.3,1.3c0.6,0.2,0.6,0.2,1.1,0.4c0.4,0.1,0.4,0.1,0.9,0.3c0.5,0,0.5,0,1.1,0.1
			c0.4,0,0.4,0,0.8,0c0.5-0.1,0.5-0.1,1-0.3c0.3-0.1,0.3-0.1,0.7-0.2c0.4-0.3,0.4-0.3,0.8-0.6c0.3-0.2,0.3-0.2,0.5-0.5
			c0.3-0.4,0.3-0.4,0.6-0.9c0.2-0.3,0.2-0.3,0.4-0.7c0.2-0.6,0.2-0.6,0.3-1.1c0.1-0.4,0.1-0.4,0.2-0.9c0.1-0.7,0.1-0.7,0.1-1.3
			c0-0.5,0-0.5,0-1c-0.1-0.7-0.1-0.7-0.1-1.4c-0.1-0.6-0.1-0.6-0.2-1.1c-0.2-0.7-0.2-0.7-0.4-1.5c-0.2-0.6-0.2-0.6-0.4-1.1
			c-0.3-0.7-0.3-0.7-0.6-1.5c-0.3-0.6-0.3-0.6-0.6-1.1c-0.4-0.7-0.4-0.7-0.8-1.4c-0.3-0.5-0.3-0.5-0.7-1c-0.5-0.7-0.5-0.7-0.9-1.3
			c-0.4-0.5-0.4-0.5-0.8-0.9c-0.5-0.5-0.5-0.5-1-1.1c-0.4-0.4-0.5-0.4-0.9-0.8c-0.6-0.4-0.6-0.4-1.1-0.8c-0.5-0.3-0.5-0.3-0.9-0.6
			c-0.6-0.3-0.6-0.3-1.1-0.6c-0.5-0.2-0.5-0.2-0.9-0.3c-0.5-0.1-0.5-0.1-1-0.2c-0.4-0.1-0.4-0.1-0.9-0.1c-0.5,0-0.5,0-1,0.1
			c-0.4,0.1-0.4,0.1-0.8,0.1c-0.4,0.2-0.4,0.2-0.8,0.4c-0.3,0.2-0.3,0.2-0.7,0.4c-0.3,0.3-0.3,0.3-0.6,0.7c-0.3,0.3-0.3,0.3-0.5,0.6
			c-0.2,0.5-0.2,0.5-0.4,1c-0.2,0.4-0.2,0.4-0.3,0.8c-0.2,1.1-0.2,1.1-0.3,2.2"/>
		<path id="XMLID_40_" class="st0" d="M194,335.1c1.9,0.2,1.9,0.2,3.8,0.4c1.4,0.3,1.4,0.3,2.9,0.6c1.2,0.4,1.2,0.4,2.4,0.8
			c1.2,0.6,1.2,0.6,2.4,1.2"/>
		<path id="XMLID_39_" class="st0" d="M199.3,341.8c0.7,2.2,0.8,2.2,1.6,4.4c0.9,1.8,0.9,1.7,1.7,3.5c0.8,1.7,0.9,1.7,1.6,3.4
			c0.6,1.7,0.6,1.8,1,3.5c0.2,1.6,0.2,1.7,0.4,3.3c-0.1,1.4-0.2,1.4-0.4,2.9c-0.2,1.3-0.3,1.3-0.5,2.6c-0.1,1.3-0.1,1.3-0.1,2.7"/>
		<path id="XMLID_38_" class="st0" d="M210.8,364.3c0.8-1.8,0.8-1.8,1.6-3.5c0.5-1.4,0.5-1.4,0.9-2.7c0.3-1.2,0.3-1.2,0.5-2.5
			c0.1-1.4,0.1-1.4,0.1-2.7"/>
		<path id="XMLID_37_" class="st0" d="M207.7,356.4c-0.8,1.8-0.8,1.8-1.6,3.5c-0.5,1.4-0.4,1.4-0.9,2.8c-0.5,1.1-0.5,1.1-1,2.3"/>
		<path id="XMLID_36_" class="st0" d="M202.5,366.5c-3,1.8-3,1.8-6,3.5c-0.5,0.2-0.5,0.2-1,0.4c-0.9,0.3-0.9,0.3-1.8,0.5"/>
		<path id="XMLID_35_" class="st0" d="M193.8,370.8c-1,0-1,0-2-0.1c-0.5,0-0.5,0-1-0.1c-1-0.3-1-0.3-2-0.7c-1.4-0.7-1.4-0.7-2.7-1.5
			"/>
		<path id="XMLID_34_" class="st0" d="M207.7,356.4c-1.5-1.8-1.5-1.8-3-3.5c-1.1-1.6-1-1.6-2.1-3.2c-1-1.6-1-1.6-2.1-3.1
			c-1.2-1.3-1.2-1.4-2.5-2.7c-1.3-1-1.4-1-2.7-2c-1.3-0.6-1.3-0.6-2.6-1.1"/>
		<path id="XMLID_33_" class="st0" d="M205.5,338.2c1.5,1.8,1.5,1.8,3,3.5c1.1,1.6,1.1,1.6,2.2,3.2c0.9,1.7,0.9,1.7,1.7,3.5
			c0.8,2.2,0.8,2.2,1.6,4.4"/>
		<path id="XMLID_32_" class="st0" d="M186.2,342.2l1.6-3.5l2.4,1.2l2.4,0.8l-2.5-0.2l-2.2,0.7"/>
		<path id="XMLID_31_" class="st0" d="M187.7,338.7l6.2-3.6"/>
		<path id="XMLID_30_" class="st0" d="M205.5,338.2l-6.2,3.6"/>
		<path id="XMLID_23_" class="st0" d="M204.6,367.9l6.2-3.6"/>
		<path id="XMLID_19_" class="st0" d="M213.9,352.8l-6.2,3.6"/>
		<path id="XMLID_18_" class="st0" d="M204.2,365l-1.7,1.5"/>
		<path id="XMLID_16_" class="st0" d="M192.6,340.7l2.8,0.6l3.9,0.4"/>
		<path id="XMLID_14_" class="st0" d="M200.8,367.5l3.8,0.4"/>
		<path id="XMLID_13_" class="st0" d="M193.4,362.4c-1.4,1.8-4.2,0.9-6.5-1.9s-2.9-6.6-1.6-8.4c0.4-0.5,0.9-0.8,1.6-0.9"/>
		
			<ellipse id="XMLID_12_" transform="matrix(-0.866 0.5 -0.5 -0.866 527.331 576.5424)" class="st0" cx="186.4" cy="358.9" rx="5.7" ry="9.9"/>
		<path id="XMLID_11_" class="st0" d="M192.6,366.2c-3.4,0.1-7.6-3.9-9.4-8.8c-1.1-3-1.1-5.7,0-7.5"/>
	</g>
	<g>
		<path id="XMLID_9_" class="st1" d="M304.4,290.8l-93.7,54.1"/>
	</g>
	<g>
		<path id="XMLID_8_" class="st1" d="M210.8,157.7l93.9-54.2"/>
	</g>
	<g>
		<path id="XMLID_7_" class="st1" d="M507.8,516.3l103.7-59.9"/>
	</g>
	<g>
		<path id="XMLID_6_" class="st1" d="M507.6,329.3l101.5-58.6"/>
	</g>
</g>
<g id="XMLID_10_">
	<g id="XMLID_5_">
		<path id="XMLID_229_" d="M813.4,3c14,0,25.5,11.4,25.5,25.5v538.3c0,14-11.4,25.5-25.5,25.5H28.5c-14,0-25.5-11.4-25.5-25.5V28.5
			C3,14.4,14.4,3,28.5,3H813.4 M813.4,0H28.5C12.8,0,0,12.8,0,28.5v538.3c0,15.7,12.8,28.5,28.5,28.5h784.9
			c15.7,0,28.5-12.8,28.5-28.5V28.5C841.9,12.8,829.1,0,813.4,0L813.4,0z"/>
	</g>
	<g id="XMLID_3_">
		<path id="XMLID_242_" d="M1.5,83.5V28.5c0-14.9,12.1-27,27-27h55.1v55.1c0,14.9-12.1,27-27,27H1.5z"/>
		<g id="XMLID_238_">
			<path id="XMLID_239_" d="M82,3v53.6C82,70.6,70.6,82,56.6,82H3V28.5C3,14.4,14.4,3,28.5,3H82 M85,0H28.5C12.8,0,0,12.8,0,28.5V85
				h56.6C72.2,85,85,72.2,85,56.6V0L85,0z"/>
		</g>
	</g>
	<g id="XMLID_2_">
		<path id="XMLID_15_" class="st2" d="M32.5,34v-4.5c2.1-0.1,3.6-0.2,4.4-0.4c1.3-0.3,2.4-0.9,3.3-1.8c0.6-0.6,1-1.4,1.3-2.4
			c0.2-0.6,0.3-1.1,0.3-1.4h5.6v34h-6.8V34H32.5z"/>
	</g>
</g>
</svg>
