<?xml version="1.0" encoding="utf-8"?>
<!-- Generator: Adobe Illustrator 19.0.0, SVG Export Plug-In . SVG Version: 6.00 Build 0)  -->
<svg version="1.1" id="Layer_1" xmlns="http://www.w3.org/2000/svg" xmlns:xlink="http://www.w3.org/1999/xlink" x="0px" y="0px"
	 width="841.9px" height="595.3px" viewBox="0 0 841.9 595.3" style="enable-background:new 0 0 841.9 595.3;" xml:space="preserve"
	>
<style type="text/css">
	.st0{fill:#FFFFFF;stroke:#000000;stroke-linecap:round;stroke-linejoin:round;stroke-opacity:0.98;}
	.st1{fill:none;stroke:#000000;stroke-width:0.25;stroke-linecap:round;stroke-linejoin:round;}
	.st2{fill:none;stroke:#0B0620;stroke-width:0.5;stroke-linecap:round;stroke-linejoin:round;}
	.st3{fill:#FFFFFF;}
</style>
<g id="XMLID_1_">
	<path id="XMLID_359_" class="st0" d="M540.1,347.2l3.6,2.5l-3.6,56.8l-0.5-0.1l-10.9-20.6l-0.6-0.1l-109.8,58.9l-0.5-43.9l-2-2.6
		l-6.3-3.6l-0.2-1l95.8-51.3l0.1-0.6l-10.9-20.1l-0.1-0.6L540.1,347.2z"/>
	<g>
		<path id="XMLID_358_" class="st1" d="M417.8,445.2l110.8-59.3l11.6,21.7l3.6-57.8l-50.1-29.1l11.6,21.7l-96.7,51.7"/>
	</g>
	<g>
		<path id="XMLID_357_" class="st2" d="M273.2,166.4c-0.4,0.1-0.4,0.1-0.8,0.3c-0.3,0.2-0.3,0.2-0.6,0.5c-0.3,0.3-0.3,0.3-0.5,0.7"
			/>
		<path id="XMLID_356_" class="st2" d="M271.4,167.9c-0.1,0.4-0.1,0.4-0.2,0.8c0,0.3,0,0.3,0,0.5c0.1,0.6,0.1,0.6,0.3,1.2
			c0.4,0.7,0.4,0.7,0.8,1.4"/>
		<path id="XMLID_355_" class="st2" d="M293.2,111.4c0.8-0.5,0.8-0.5,1.5-0.9c1.9-0.9,1.9-0.9,3.8-1.8c2-0.6,2-0.6,3.9-1.1
			c2.3-0.2,2.3-0.2,4.6-0.4"/>
		<path id="XMLID_354_" class="st2" d="M296.8,178.6c0,43.2,0,41.5,0,82.9c0.1,0.6,0.1,0.6,0.2,1.1c0.2,0.5,0.2,0.5,0.4,0.9"/>
		<path id="XMLID_353_" class="st2" d="M308.9,106.8c23-0.1,23-0.1,46-0.1c1,0.1,1,0.1,2,0.1c1,0.2,1,0.2,2,0.3
			c0.9,0.3,0.9,0.3,1.8,0.6c0.8,0.3,0.8,0.4,1.6,0.7c0.7,0.4,0.7,0.4,1.4,0.9"/>
		<path id="XMLID_352_" class="st2" d="M575,263.5c-5.9-18.7-5.9-18.7-11.9-37.4c-0.3-0.6-0.3-0.6-0.6-1.2c-0.5-0.6-0.5-0.6-1-1.1
			c-0.7-0.5-0.7-0.5-1.4-1c-48.6-28-48.6-28-97.1-56.1"/>
		<path id="XMLID_351_" class="st2" d="M504.8,304.6c17.7,10.2,17.7,10.2,35.4,20.4c0.5,0.4,0.5,0.4,1.1,0.7c0.5,0.5,0.5,0.5,1.1,1
			c1.4,1.5,1.3,1.5,2.7,3c0.7,0.6,0.7,0.6,1.4,1.2c8.4,4.9,8.4,4.9,16.8,9.7"/>
		<path id="XMLID_350_" class="st2" d="M543.1,405.2c0.4-0.5,0.5-0.5,0.9-1c1.3-2.6,1.2-2.6,2.6-5.2c4.3-7.5,4.3-7.5,8.6-15"/>
		<path id="XMLID_349_" class="st2" d="M576.3,263c-5.3-16.8-5.3-16.9-10.8-33.7c-0.7-1.5-0.7-1.5-1.4-2.9c-0.5-0.6-0.5-0.6-1-1.2
			c-0.6-0.6-0.5-0.6-1.1-1.2c-0.7-0.5-0.7-0.5-1.5-1c-0.8-0.5-0.8-0.5-1.6-0.9"/>
		<path id="XMLID_348_" class="st2" d="M576.7,397.3c-0.2,0.3-0.2,0.3-0.3,0.5c-0.3,0.2-0.3,0.2-0.5,0.5c-0.9,0.4-0.9,0.4-1.7,0.8"
			/>
		<path id="XMLID_347_" class="st2" d="M574.1,318.5c0.7-0.6,0.7-0.6,1.4-1.2c0.6-0.6,0.6-0.6,1.1-1.2c0.5-0.7,0.5-0.7,1-1.4
			c0.2-0.5,0.2-0.5,0.5-0.9c0.4-0.9,0.4-0.9,0.7-1.9c0.3-1,0.3-1,0.5-2c0.1-0.8,0.1-0.8,0.2-1.6c0.1-1.1,0.1-1.1,0.1-2.3
			c0-11.1,0-11.1-0.1-22.1"/>
		<path id="XMLID_346_" class="st2" d="M576.5,461.4c0.3-0.3,0.3-0.3,0.7-0.5c0.7-1,0.7-1,1.3-2.1c0.4-1.1,0.4-1.1,0.7-2.2
			c0.1-1,0.1-1,0.2-2.1c0-2.1,0-2.1,0-4.1"/>
		<path id="XMLID_345_" class="st2" d="M579.4,283.9c0-2.9,0-3,0.1-5.9c-0.1-1.1-0.1-1.1-0.2-2.2c-0.2-1.4-0.2-1.4-0.4-2.9
			c-0.3-1.4-0.3-1.4-0.5-2.8c-0.3-1.3-0.3-1.3-0.7-2.6c-0.7-2.1-0.7-2.1-1.3-4.2"/>
		<path id="XMLID_344_" class="st2" d="M262.4,303.8v-54.6"/>
		<path id="XMLID_343_" class="st2" d="M263.4,243.2l8.1,4.7"/>
		<path id="XMLID_342_" class="st2" d="M263.3,165.7l8.2,4.9"/>
		<path id="XMLID_341_" class="st2" d="M262.4,161v-25.7"/>
		<path id="XMLID_340_" class="st2" d="M266,237l8.6-14.9"/>
		<path id="XMLID_339_" class="st2" d="M304.7,157.7v25.5l-27.6-16l-2-0.8l-1.8,0"/>
		<path id="XMLID_338_" class="st2" d="M272.2,171.9l2,1.8L266,169l0.1,0"/>
		<path id="XMLID_337_" class="st2" d="M267.3,126.4l25.9-15.1l-3.2,1.8"/>
		<path id="XMLID_336_" class="st2" d="M270.5,276.6v-22.7"/>
		<path id="XMLID_335_" class="st2" d="M272.3,282.8l24.2-14"/>
		<path id="XMLID_334_" class="st2" d="M275.4,326.3l44.8,25.9"/>
		<path id="XMLID_333_" class="st2" d="M274.2,241.8l8.6-15"/>
		<path id="XMLID_332_" class="st2" d="M282.8,178.7l-8.1-4.7"/>
		<path id="XMLID_331_" class="st2" d="M275.4,127.8l44.8,25.9"/>
		<path id="XMLID_330_" class="st2" d="M285.8,220l-8.1-4.7"/>
		<path id="XMLID_329_" class="st2" d="M278.7,208.6v-25.8"/>
		<path id="XMLID_328_" class="st2" d="M285.8,182.1l-8.1-4.7"/>
		<path id="XMLID_327_" class="st2" d="M286.8,213.4v-25.9"/>
		<path id="XMLID_326_" class="st2" d="M290.4,302.7l6.2-3.6"/>
		<path id="XMLID_325_" class="st2" d="M294.8,110.5l-1.6,0.9"/>
		<path id="XMLID_324_" class="st2" d="M298.5,328.2l14.5-8.4"/>
		<path id="XMLID_323_" class="st2" d="M296.5,303.2v-34.3"/>
		<path id="XMLID_322_" class="st2" d="M297.5,262.9l8.1,4.7"/>
		<path id="XMLID_321_" class="st2" d="M300.2,256.8l8.6-14.9"/>
		<path id="XMLID_320_" class="st2" d="M303,332.9l17.3,9.9"/>
		<path id="XMLID_319_" class="st2" d="M320.3,324.1l-17.2-9.9"/>
		<path id="XMLID_318_" class="st2" d="M360.6,273.4l-55,31.7"/>
		<path id="XMLID_317_" class="st2" d="M304.7,302.1v-28.5"/>
		<path id="XMLID_316_" class="st2" d="M304.7,183.2l16.2-9.4v59.3"/>
		<path id="XMLID_315_" class="st2" d="M305.7,155.8l0.3-0.2"/>
		<path id="XMLID_314_" class="st2" d="M303.6,107.4l3.5-0.5l1.8-0.1"/>
		<path id="XMLID_313_" class="st2" d="M363.6,109.3l-0.9-0.6"/>
		<path id="XMLID_312_" class="st2" d="M307.9,307.5l12.4,7.1"/>
		<path id="XMLID_311_" class="st2" d="M308.3,261.5l8.6-15"/>
		<path id="XMLID_310_" class="st2" d="M307.9,156l12.4,7.1"/>
		<path id="XMLID_309_" class="st2" d="M311.8,235l8.1,4.7"/>
		<path id="XMLID_308_" class="st2" d="M312.8,228.3v-49.9"/>
		<path id="XMLID_307_" class="st2" d="M332.6,355.1h17.3"/>
		<path id="XMLID_306_" class="st2" d="M332.6,345.8h17.3"/>
		<path id="XMLID_305_" class="st2" d="M332.6,327h17.3"/>
		<path id="XMLID_304_" class="st2" d="M332.6,317.6h17.3"/>
		<path id="XMLID_303_" class="st2" d="M349.9,166h-17.3"/>
		<path id="XMLID_302_" class="st2" d="M332.6,156.6h17.3"/>
		<path id="XMLID_301_" class="st2" d="M437.2,378.9L347.3,327"/>
		<path id="XMLID_300_" class="st2" d="M357.3,356v-9.4"/>
		<path id="XMLID_299_" class="st2" d="M357.3,327.8v-9.4"/>
		<path id="XMLID_298_" class="st2" d="M357.3,166.9v-9.4"/>
		<path id="XMLID_297_" class="st2" d="M417.4,389.6l-53.9-31.1"/>
		<path id="XMLID_296_" class="st2" d="M363.5,349l62.3,36"/>
		<path id="XMLID_295_" class="st2" d="M442.7,376l-79.2-45.7"/>
		<path id="XMLID_294_" class="st2" d="M363.5,320.9l87.6,50.6"/>
		<path id="XMLID_293_" class="st2" d="M492.3,349.5l-131.8-76.1"/>
		<path id="XMLID_292_" class="st2" d="M360.6,273.4V167.9"/>
		<path id="XMLID_291_" class="st2" d="M363.5,169.3l103,59.4"/>
		<path id="XMLID_290_" class="st2" d="M363.5,159.9l103,59.4"/>
		<path id="XMLID_289_" class="st2" d="M461,165.5l1.8,1.1l-99.2-57.3"/>
		<path id="XMLID_288_" class="st2" d="M472.1,435.7l-0.1-19.6"/>
		<path id="XMLID_287_" class="st2" d="M472.1,246.6v-19.4"/>
		<path id="XMLID_286_" class="st2" d="M473.6,439.8v-9.4"/>
		<path id="XMLID_285_" class="st2" d="M473.6,241.2v9.4"/>
		<path id="XMLID_284_" class="st2" d="M538,477.9l-60.7-35.1"/>
		<path id="XMLID_283_" class="st2" d="M510.4,452.6l-33.2-19.2"/>
		<path id="XMLID_282_" class="st2" d="M494.4,424.6l-17.2-9.9l-1-0.8"/>
		<path id="XMLID_281_" class="st2" d="M477.2,253.7l12.3,7.1"/>
		<path id="XMLID_280_" class="st2" d="M477.2,244.3l60.7,35.1"/>
		<path id="XMLID_279_" class="st2" d="M484.5,409.5l5.1,2.9"/>
		<path id="XMLID_278_" class="st2" d="M491.8,412.6l0.4-0.2"/>
		<path id="XMLID_277_" class="st2" d="M492.8,410.7V405"/>
		<path id="XMLID_276_" class="st2" d="M492.8,294v-27.7"/>
		<path id="XMLID_275_" class="st2" d="M496.5,302l8,4.6l-1.3-1.1l-0.5-0.7v-0.5l0.4-0.2l-0.2,0.1"/>
		<path id="XMLID_274_" class="st2" d="M499.7,424.6l20.8-11.9l-0.5,0.3"/>
		<path id="XMLID_273_" class="st2" d="M501,420.9v-20.2"/>
		<path id="XMLID_272_" class="st2" d="M503.1,304.1l0.7,0.1l1,0.4"/>
		<path id="XMLID_271_" class="st2" d="M563.2,340.6l-0.1-0.1"/>
		<path id="XMLID_270_" class="st2" d="M505.1,307l8.1,4.7"/>
		<path id="XMLID_269_" class="st2" d="M530.5,432.8l-22.5-13"/>
		<path id="XMLID_268_" class="st2" d="M508.1,396.9l3.6,2.1v-4"/>
		<path id="XMLID_267_" class="st2" d="M509.1,315.9v13.8"/>
		<path id="XMLID_266_" class="st2" d="M516.2,315.1l-8.1-4.7"/>
		<path id="XMLID_265_" class="st2" d="M532.1,399.5l-10.7-6.2l-9.7,5.6"/>
		<path id="XMLID_264_" class="st2" d="M515.7,452.6l-0.9,0.5"/>
		<path id="XMLID_263_" class="st2" d="M517.2,320.5v13.8"/>
		<path id="XMLID_262_" class="st2" d="M520.5,412.7l3.2-1.8l-2,1.1"/>
		<path id="XMLID_261_" class="st2" d="M542.9,425.6L523.1,437"/>
		<path id="XMLID_260_" class="st2" d="M523.7,410.8l6.8-3.9"/>
		<path id="XMLID_259_" class="st2" d="M521.3,393.4v-3.6"/>
		<path id="XMLID_258_" class="st2" d="M522.4,314.7v22.6"/>
		<path id="XMLID_257_" class="st2" d="M530.4,389.2l-3.9-2.2"/>
		<path id="XMLID_256_" class="st2" d="M536.4,413.2l-5.8-3.4V404l0.4-3.8l7.8,4.5"/>
		<path id="XMLID_255_" class="st2" d="M530.9,400.2l4.1-2.4"/>
		<path id="XMLID_254_" class="st2" d="M542.9,433.9v-9.4"/>
		<path id="XMLID_253_" class="st2" d="M540.4,405.6l0.7,0.3l1-0.1l1-0.6"/>
		<path id="XMLID_252_" class="st2" d="M552.6,388.4l-10.7-6.2"/>
		<path id="XMLID_251_" class="st2" d="M552,409.8l-8.6-4.9"/>
		<path id="XMLID_250_" class="st2" d="M546.1,479.3l3.2-1.8l-2.2,1.2"/>
		<path id="XMLID_249_" class="st2" d="M547.2,289.1l31.3-18.1"/>
		<path id="XMLID_248_" class="st2" d="M549.3,477.5l12.3-7.1"/>
		<path id="XMLID_247_" class="st2" d="M551,415.9v54.6"/>
		<path id="XMLID_246_" class="st2" d="M551,301.9v25.7"/>
		<path id="XMLID_245_" class="st2" d="M563.2,388.7l-8.6,15"/>
		<path id="XMLID_244_" class="st2" d="M558.9,471.9l3.2-1.8l-0.5,0.3"/>
		<path id="XMLID_243_" class="st2" d="M558.1,377.2l8.1,4.7"/>
		<path id="XMLID_242_" class="st2" d="M558.1,339.3l8.1,4.7"/>
		<path id="XMLID_241_" class="st2" d="M559.1,370.6v-25.8"/>
		<path id="XMLID_240_" class="st2" d="M562.2,470L562.2,470l13.1-7.5l1.2-1.1l-1.2,1.1"/>
		<path id="XMLID_239_" class="st2" d="M563.2,340.6L563.2,340.6"/>
		<path id="XMLID_238_" class="st2" d="M567.2,349.4v25.9"/>
		<path id="XMLID_237_" class="st2" d="M576.8,396.8V396V396.8l-0.1,0.5"/>
		<path id="XMLID_236_" class="st2" d="M574.1,399l1.4-0.4l2.7-0.4l-0.3-0.6l-1-3.2"/>
		<path id="XMLID_235_" class="st2" d="M579.4,283.9v0.1"/>
		<path id="XMLID_234_" class="st2" d="M579.5,450.4l0,4.1"/>
		<path id="XMLID_233_" class="st2" d="M578,459.5L578,459.5"/>
		<path id="XMLID_232_" class="st2" d="M578.1,398.2l0.7,0v56.6"/>
		<path id="XMLID_231_" class="st2" d="M576.8,396v-3.2V396"/>
		<path id="XMLID_230_" class="st2" d="M578.8,398.2l0.6,0.1l-2.7-8.4v2.8v-3.2v0.4"/>
		<path id="XMLID_229_" class="st2" d="M576.8,389.5v-67.2v3.2"/>
		<path id="XMLID_228_" class="st2" d="M576.8,322.3l0-6.5"/>
		<path id="XMLID_227_" class="st2" d="M579.4,453.6l0-3.2"/>
		<path id="XMLID_226_" class="st2" d="M579.5,450.4l0-9"/>
		<path id="XMLID_225_" class="st2" d="M579.4,441.3v-43"/>
		<path id="XMLID_224_" class="st2" d="M578.8,311.3v-30.5"/>
		<path id="XMLID_223_" class="st2" d="M579.5,280.7l-0.1-1.7L579.5,280.7"/>
		<path id="XMLID_222_" class="st2" d="M567.2,375.3c0,4.2-1.4,9-4,13.5"/>
		<path id="XMLID_221_" class="st2" d="M551,415.8c0-3.8,1.3-8.2,3.6-12.2"/>
		<path id="XMLID_220_" class="st2" d="M466.5,219.4c3.6,2.1,5.7,4.9,5.7,7.9"/>
		<path id="XMLID_219_" class="st2" d="M477.3,244.3c-3.3-1.9-5.1-4.5-5.1-7.1"/>
		<path id="XMLID_218_" class="st2" d="M538,279.4c7.2,4.1,13,14.2,13,22.5"/>
		<path id="XMLID_217_" class="st2" d="M554.6,335.6c-2.3-1.3-3.6-4.2-3.6-8"/>
		<path id="XMLID_216_" class="st2" d="M563.2,340.6c2.6,1.5,4,4.7,4,8.8"/>
		<path id="XMLID_215_" class="st2" d="M275.4,326.3c-7.2-4.1-13-14.2-13-22.5"/>
		<ellipse id="XMLID_214_" class="st2" cx="303.6" cy="131.7" rx="5.8" ry="3.3"/>
		<path id="XMLID_213_" class="st2" d="M286.8,213.3c0,4.2-1.4,9-4,13.5"/>
		<path id="XMLID_212_" class="st2" d="M467.6,418.5c2.9,2,4.6,4.6,4.6,7.2"/>
		<path id="XMLID_211_" class="st2" d="M278.7,208.6c0,4.2-1.4,9-4,13.5"/>
		
			<ellipse id="XMLID_210_" transform="matrix(-0.866 0.5 -0.5 -0.866 674.1188 438.6712)" class="st2" cx="278.3" cy="309.7" rx="4.5" ry="7.8"/>
		<path id="XMLID_209_" class="st2" d="M551,470.4c0,8.3-5.8,11.6-13,7.5"/>
		<path id="XMLID_208_" class="st2" d="M349.9,355.2c5.1,0,10,1.2,13.6,3.3"/>
		<path id="XMLID_207_" class="st2" d="M505.1,307c2.6,1.5,4,4.7,4,8.8"/>
		<path id="XMLID_206_" class="st2" d="M304.7,157.7c0.1-2,1.5-2.7,3.2-1.7"/>
		<path id="XMLID_205_" class="st2" d="M266,169c-2.3-1.3-3.6-4.2-3.6-8"/>
		<path id="XMLID_204_" class="st2" d="M349.9,156.6c5.1,0,10,1.2,13.6,3.3"/>
		<path id="XMLID_203_" class="st2" d="M304.7,273.6c0-3.8,1.3-8.2,3.6-12.2"/>
		<path id="XMLID_202_" class="st2" d="M332.6,355.2c-4.6,0-9.1-1.1-12.3-3"/>
		<path id="XMLID_201_" class="st2" d="M307.9,307.6c-1.7-1-3.2-3.4-3.2-5.5"/>
		
			<ellipse id="XMLID_200_" transform="matrix(-0.866 0.5 -0.5 -0.866 1146.6017 284.9309)" class="st2" cx="535.1" cy="296.1" rx="4.5" ry="7.8"/>
		<path id="XMLID_199_" class="st2" d="M477.3,442.9c-3.3-1.9-5.1-4.4-5.1-7.1"/>
		<path id="XMLID_198_" class="st2" d="M262.4,135.3c0-8.3,5.8-11.6,13-7.5"/>
		
			<ellipse id="XMLID_197_" transform="matrix(-0.866 0.5 -0.5 -0.866 1227.5294 586.9572)" class="st2" cx="535.1" cy="457.9" rx="4.5" ry="7.8"/>
		<path id="XMLID_196_" class="st2" d="M332.6,156.6c-4.6,0-9.1-1.1-12.3-3"/>
		<ellipse id="XMLID_195_" class="st2" cx="523.3" cy="258.5" rx="5.8" ry="3.3"/>
		
			<ellipse id="XMLID_194_" transform="matrix(0.866 -0.5 0.5 0.866 -36.6128 158.9433)" class="st2" cx="278.3" cy="147.8" rx="4.5" ry="7.8"/>
		<path id="XMLID_193_" class="st2" d="M332.6,317.6c-4.6,0-9.1-1.1-12.3-3"/>
		<path id="XMLID_192_" class="st2" d="M320.9,233c0,4.2-1.4,9-4,13.5"/>
		<path id="XMLID_191_" class="st2" d="M349.9,317.6c5.1,0,10,1.2,13.6,3.3"/>
		<path id="XMLID_190_" class="st2" d="M492.8,410.7c-0.1,2-1.5,2.7-3.2,1.7"/>
		<path id="XMLID_189_" class="st2" d="M489.6,260.8c1.7,1,3.2,3.4,3.2,5.5"/>
		<path id="XMLID_188_" class="st2" d="M477.3,253.7c-3.3-1.9-5.1-4.5-5.1-7.1"/>
		<path id="XMLID_187_" class="st2" d="M466.5,228.7c3.6,2.1,5.7,4.9,5.7,7.9"/>
		<path id="XMLID_186_" class="st2" d="M262.4,249.2c0-3.8,1.3-8.2,3.6-12.2"/>
		<path id="XMLID_185_" class="st2" d="M274.7,174c2.6,1.5,4,4.7,4,8.8"/>
		<path id="XMLID_184_" class="st2" d="M496.4,302c-2.3-1.3-3.6-4.2-3.6-8"/>
		<path id="XMLID_183_" class="st2" d="M349.9,166c5.1,0,10,1.2,13.6,3.3"/>
		<path id="XMLID_182_" class="st2" d="M282.8,178.7c2.6,1.5,4,4.7,4,8.8"/>
		<path id="XMLID_181_" class="st2" d="M270.5,253.9c0-3.8,1.3-8.2,3.6-12.2"/>
		<path id="XMLID_180_" class="st2" d="M276.7,287.7c-3.4-2.2-6.1-7.1-6.1-11"/>
		<path id="XMLID_179_" class="st2" d="M276.7,287.7c10.7,6.9,19.2,21.7,19.8,34.4"/>
		<path id="XMLID_178_" class="st2" d="M332.6,166c-4.6,0-9.1-1.1-12.3-3"/>
		<path id="XMLID_177_" class="st2" d="M559.1,370.6c0,4.2-1.4,9-4,13.5"/>
		<path id="XMLID_176_" class="st2" d="M516.9,449.3c0.6-12,9.2-16.9,19.8-11.5"/>
		<path id="XMLID_175_" class="st2" d="M536.4,413.2c3.6,2.1,6.5,7.1,6.5,11.3c0,0,0,0,0,0"/>
		<path id="XMLID_174_" class="st2" d="M542.9,433.9c0,4-2.7,5.7-6.1,4"/>
		<path id="XMLID_173_" class="st2" d="M477.3,433.5c-3.3-1.9-5.1-4.4-5.1-7.1"/>
		<path id="XMLID_172_" class="st2" d="M501,420.9c0,4.1-2.9,5.8-6.5,3.8"/>
		<path id="XMLID_171_" class="st2" d="M296.5,268.9c0-3.8,1.3-8.2,3.6-12.2"/>
		<path id="XMLID_170_" class="st2" d="M349.9,327c5.1,0,10,1.2,13.6,3.3"/>
		<path id="XMLID_169_" class="st2" d="M332.6,345.8c-4.6,0-9.1-1.1-12.3-3"/>
		<path id="XMLID_168_" class="st2" d="M312.8,228.3c0,4.2-1.4,9-4,13.5"/>
		<path id="XMLID_167_" class="st2" d="M555.1,335.9c2.6,1.5,4,4.7,4,8.8"/>
		<path id="XMLID_166_" class="st2" d="M349.9,345.8c5.1,0,10,1.2,13.6,3.3"/>
		<path id="XMLID_165_" class="st2" d="M516.9,449.3c-0.2,3.8-3,5.3-6.5,3.3"/>
		<path id="XMLID_164_" class="st2" d="M332.6,327c-4.6,0-9.1-1.1-12.3-3"/>
		<path id="XMLID_163_" class="st2" d="M303,332.8c-3.4-2-6.3-6.7-6.5-10.8"/>
		<path id="XMLID_162_" class="st2" d="M513.2,311.7c2.6,1.5,4,4.7,4,8.8"/>
		<path id="XMLID_161_" class="st2" d="M303,314.1c-3.5-2-6.4-6.9-6.5-11"/>
	</g>
	<g>
		<path id="XMLID_160_" class="st2" d="M342.5,455c-0.1-0.1-0.1-0.1-0.1-0.1c-0.1-0.1-0.1-0.1-0.1-0.2c0-0.1,0-0.1,0-0.2"/>
		<path id="XMLID_159_" class="st2" d="M342.3,435c0-0.2,0-0.2,0-0.3c0-0.1,0-0.1,0.1-0.2c0-0.1,0-0.1,0.1-0.1
			c0.1-0.1,0.1-0.1,0.1-0.1c0.1-0.1,0.1-0.1,0.3-0.2"/>
		<path id="XMLID_158_" class="st2" d="M347.4,416.5c0-0.1,0-0.1,0-0.3c0-0.1,0-0.1,0.1-0.1c0-0.1,0-0.1,0.1-0.1
			c0.1-0.1,0.1-0.1,0.1-0.1c0.1-0.1,0.1-0.1,0.3-0.2"/>
		<path id="XMLID_157_" class="st2" d="M365.2,455.1C365.2,455.1,365.2,455.1,365.2,455.1c0.1-0.1,0.1-0.1,0.1-0.2
			c0-0.1,0-0.1,0-0.1c0-0.1,0-0.1,0-0.2"/>
		<path id="XMLID_156_" class="st2" d="M365.3,454.6c0-9.8,0-9.8,0-19.5c0-0.2,0-0.2,0-0.3c-0.1-0.2-0.1-0.2-0.1-0.3
			c-0.1-0.1-0.1-0.2-0.2-0.3c-0.1-0.1-0.1-0.1-0.3-0.3c-0.1-0.1-0.1-0.1-0.3-0.2c-5.2-3-5.2-3-10.4-6c-0.1-0.1-0.1-0.1-0.3-0.1"/>
		<path id="XMLID_155_" class="st2" d="M354.4,404.8c-0.1-0.2-0.1-0.2-0.3-0.3c-0.4-0.7-0.4-0.7-0.7-1.5c-0.2-0.7-0.2-0.7-0.4-1.5
			c-0.1-0.7-0.1-0.7-0.1-1.4c0-0.2,0-0.2,0-0.5c0.1-0.6,0.1-0.6,0.3-1.2c0.1-0.3,0.1-0.3,0.2-0.5c0.3-0.5,0.3-0.5,0.7-1
			c0.2-0.2,0.2-0.2,0.4-0.4c1.2-0.7,1.2-0.7,2.4-1.4"/>
		<path id="XMLID_154_" class="st2" d="M354.7,397.4c0.2,0,0.2,0,0.5,0c0.3,0,0.3,0,0.6,0.1c0.3,0.1,0.3,0.1,0.5,0.1
			c0.3,0.2,0.3,0.2,0.7,0.3c0.3,0.2,0.3,0.2,0.5,0.3c0.3,0.3,0.3,0.3,0.7,0.5c0.3,0.3,0.3,0.3,0.5,0.5c0.3,0.4,0.3,0.4,0.6,0.7
			c0.2,0.3,0.2,0.3,0.4,0.6c0.2,0.4,0.2,0.4,0.5,0.9c0.1,0.3,0.1,0.3,0.3,0.6c0.2,0.5,0.2,0.5,0.3,0.9c0.1,0.3,0.1,0.3,0.1,0.6
			c0.1,0.4,0.1,0.4,0.1,0.9c0,0.3,0,0.3,0,0.6c-0.1,0.4-0.1,0.4-0.1,0.8c-0.1,0.2-0.1,0.2-0.1,0.5c-0.1,0.3-0.1,0.3-0.3,0.6
			c-0.1,0.1-0.1,0.1-0.3,0.3c-0.2,0.2-0.2,0.2-0.5,0.4"/>
		<path id="XMLID_153_" class="st2" d="M358.3,469.7c-0.3-0.1-0.3-0.1-0.7-0.1c-0.2-0.1-0.2-0.1-0.4-0.2c-0.5-0.3-0.5-0.3-1-0.6
			c-0.3-0.3-0.3-0.3-0.7-0.6"/>
		<path id="XMLID_152_" class="st2" d="M363,406.6c-0.9,0.5-0.9,0.5-1.7,1c-0.3,0.1-0.3,0.1-0.6,0.2c-0.5,0.1-0.5,0.1-1.1,0.3
			c-0.3,0-0.3,0-0.5-0.1c-0.6-0.1-0.6-0.1-1.2-0.3c-0.8-0.4-0.8-0.4-1.6-0.9c-0.6-0.5-0.6-0.5-1.1-1c-0.4-0.5-0.4-0.5-0.7-1"/>
		<path id="XMLID_151_" class="st2" d="M354.4,396.7c0-2.7,0-2.5,0-5c0.1-0.5,0.1-0.5,0.1-0.9c0.2-0.5,0.2-0.5,0.5-0.9
			c0.2-0.4,0.2-0.4,0.5-0.7"/>
		<path id="XMLID_150_" class="st2" d="M364.4,473.2c0.1,0,0.1,0,0.2,0c0.1,0,0.1,0,0.2,0c0.1,0,0.1,0,0.2-0.1
			c0.3-0.2,0.3-0.2,0.6-0.4"/>
		<path id="XMLID_149_" class="st2" d="M381.5,481.7c0.2,0.4,0.2,0.4,0.4,0.8c0.5,0.6,0.5,0.6,0.9,1.3c0.5,0.5,0.5,0.5,1.1,1
			c0.7,0.4,0.7,0.4,1.4,0.8c0.6,0.1,0.6,0.1,1.2,0.3"/>
		<path id="XMLID_148_" class="st2" d="M387.5,485.6c0.2-0.2,0.2-0.2,0.5-0.4c0.1-0.1,0.1-0.1,0.3-0.3c0.2-0.3,0.2-0.3,0.3-0.6
			c0.1-0.2,0.1-0.2,0.1-0.5c0.1-0.4,0.1-0.4,0.1-0.8c0-0.3,0-0.3,0-0.6c-0.1-0.5-0.1-0.5-0.1-0.9c-0.1-0.3-0.1-0.3-0.1-0.7
			c-0.2-0.5-0.2-0.5-0.3-0.9c-0.1-0.3-0.1-0.3-0.3-0.7c-0.2-0.4-0.2-0.4-0.5-0.9c-0.2-0.3-0.2-0.3-0.4-0.6c-0.3-0.4-0.3-0.4-0.6-0.8
			c-0.3-0.2-0.3-0.2-0.5-0.5c-0.3-0.3-0.3-0.3-0.7-0.5c-0.3-0.2-0.3-0.2-0.5-0.3c-0.3-0.2-0.3-0.2-0.7-0.3c-0.3-0.1-0.3-0.1-0.5-0.1
			c-0.3-0.1-0.3-0.1-0.6-0.1c-0.2,0-0.2,0-0.5,0"/>
		<path id="XMLID_147_" class="st2" d="M380.7,477.7c0.1-0.6,0.1-0.6,0.3-1.2c0.1-0.3,0.1-0.3,0.2-0.5c0.3-0.5,0.3-0.5,0.7-1
			c0.2-0.2,0.2-0.2,0.5-0.4c1.2-0.7,1.2-0.7,2.4-1.4"/>
		<path id="XMLID_146_" class="st2" d="M376.3,476c-0.4,0.3-0.4,0.3-0.9,0.5c-0.1,0.1-0.1,0.1-0.1,0.1c-0.1,0-0.1,0-0.2,0
			c-0.1,0-0.1,0-0.2,0"/>
		<path id="XMLID_145_" class="st2" d="M373.2,378.7c1.2-0.7,1.2-0.7,2.4-1.4c0.4-0.2,0.4-0.2,0.8-0.3c0.5-0.1,0.5-0.1,1-0.1
			c0.4,0,0.4,0,0.9,0"/>
		<path id="XMLID_144_" class="st2" d="M381.5,481.7c-0.2-0.3-0.2-0.3-0.3-0.7c-0.2-0.7-0.3-0.7-0.4-1.5c-0.1-0.8-0.1-0.8-0.1-1.6"
			/>
		<path id="XMLID_143_" class="st2" d="M390.7,422.5c-0.9,0.5-0.9,0.5-1.7,1c-0.3,0.1-0.3,0.1-0.6,0.2c-0.5,0.1-0.5,0.1-1.1,0.3
			c-0.3,0-0.3,0-0.5-0.1c-0.6-0.1-0.6-0.1-1.2-0.3c-0.8-0.4-0.8-0.4-1.6-0.9c-0.6-0.5-0.6-0.5-1.1-1c-0.5-0.7-0.5-0.7-1-1.3
			c-0.4-0.7-0.4-0.7-0.7-1.5c-0.2-0.7-0.2-0.7-0.4-1.5c-0.1-0.7-0.1-0.7-0.1-1.4c0-0.2,0-0.2,0-0.5c0.1-0.6,0.1-0.6,0.3-1.2
			c0.1-0.3,0.1-0.3,0.2-0.5c0.3-0.5,0.3-0.5,0.7-1c0.2-0.2,0.2-0.2,0.5-0.4c1.2-0.7,1.2-0.7,2.4-1.4"/>
		<path id="XMLID_142_" class="st2" d="M382.4,413.4c0.2,0,0.2,0,0.5,0c0.3,0,0.3,0,0.6,0.1c0.3,0.1,0.3,0.1,0.5,0.1
			c0.3,0.2,0.3,0.2,0.7,0.3c0.3,0.1,0.3,0.1,0.5,0.3c0.3,0.3,0.3,0.3,0.7,0.5c0.2,0.3,0.2,0.3,0.5,0.5c0.3,0.4,0.3,0.4,0.6,0.8
			c0.2,0.3,0.2,0.3,0.4,0.6c0.3,0.4,0.3,0.4,0.5,0.9c0.2,0.3,0.2,0.3,0.3,0.7c0.1,0.5,0.1,0.5,0.3,0.9c0.1,0.3,0.1,0.3,0.1,0.6
			c0.1,0.4,0.1,0.4,0.1,0.9c0,0.3,0,0.3,0,0.6c0,0.4,0,0.4-0.1,0.8c-0.1,0.2-0.1,0.2-0.1,0.5c-0.1,0.3-0.1,0.3-0.3,0.6
			c-0.1,0.1-0.1,0.1-0.3,0.3c-0.3,0.2-0.3,0.2-0.5,0.4"/>
		<path id="XMLID_141_" class="st2" d="M385.5,485.7c0.6,0.1,0.6,0.1,1.2,0.3c0.3,0,0.3,0,0.5,0.1c0.6-0.1,0.6-0.1,1.1-0.3
			c0.1,0,0.1,0,0.1,0"/>
		<path id="XMLID_140_" class="st2" d="M386.2,456.6c0,6.8,0,6.8,0,13.6c0,0.1,0,0.1,0,0.2c0,0.1,0,0.1,0,0.1c0,0.1,0,0.1-0.1,0.1
			c0,0,0,0-0.1,0.1"/>
		<path id="XMLID_139_" class="st2" d="M383.1,472c0.5,0.3,0.5,0.3,1,0.5c0.1,0.1,0.1,0.1,0.2,0.1c0.1,0,0.1,0,0.2,0"/>
		<path id="XMLID_138_" class="st2" d="M382.8,417.1c2.1,1.2,2.1,1.2,4.2,2.4c0.1,0.1,0.1,0.1,0.2,0.1c0.1,0.1,0.1,0.1,0.3,0.1"/>
		<path id="XMLID_137_" class="st2" d="M392.5,488c0.2,0.1,0.2,0.1,0.3,0.2c0.4,0.2,0.4,0.2,0.8,0.3c0.5,0.1,0.5,0,1,0.1
			c0.4,0,0.4,0,0.9,0"/>
		<path id="XMLID_136_" class="st2" d="M396.7,488.2c9.6-5.6,9.6-5.6,19.2-11.1c0.3-0.2,0.3-0.2,0.6-0.5c0.3-0.3,0.3-0.3,0.5-0.6
			c0.2-0.4,0.2-0.4,0.4-0.7c0.1-0.4,0.1-0.4,0.3-0.8c0.1-0.4,0.1-0.4,0.1-0.7c0-0.5,0-1.6,0-1"/>
		<path id="XMLID_135_" class="st2" d="M399.6,485c0-35.7,0-35.7,0-71.3c-0.1-0.7-0.1-0.7-0.2-1.3c-0.2-0.7-0.2-0.7-0.5-1.3
			c-0.4-0.6-0.4-0.6-0.7-1.2"/>
		<path id="XMLID_134_" class="st2" d="M416.8,399.1c0.2,0.4,0.2,0.4,0.4,0.7c0.3,0.5,0.3,0.5,0.5,0.9c0.1,0.4,0.1,0.4,0.1,0.9"/>
		<path id="XMLID_133_" class="st2" d="M391.5,462.9c0-0.1,0-0.1,0-0.3c-0.1-0.1-0.1-0.1-0.1-0.3c-0.1-0.2-0.1-0.2-0.2-0.3
			c-0.1-0.1-0.1-0.1-0.2-0.3c-0.1-0.1-0.1-0.1-0.3-0.2"/>
		<path id="XMLID_132_" class="st2" d="M387.8,458.9c0,0.2,0,0.2,0.1,0.3c0,0.2,0,0.2,0.1,0.3c0.1,0.1,0.1,0.1,0.2,0.3
			c0.1,0.1,0.1,0.1,0.2,0.3c0.1,0.1,0.1,0.1,0.3,0.2"/>
		<path id="XMLID_131_" class="st2" d="M342.7,455.2l1.7,1L342.7,455.2l-0.2-0.2"/>
		<path id="XMLID_130_" class="st2" d="M342.3,454.5V435"/>
		<path id="XMLID_129_" class="st2" d="M344.4,456.2l6.4,3.7l-3.2-1.8"/>
		<path id="XMLID_128_" class="st2" d="M342.4,434.5l11.2,6.5"/>
		<path id="XMLID_127_" class="st2" d="M342.9,434.1L342.9,434.1"/>
		<path id="XMLID_126_" class="st2" d="M342.9,434.1l10.3-5.9"/>
		<path id="XMLID_125_" class="st2" d="M347.4,416.5v15"/>
		<path id="XMLID_124_" class="st2" d="M347.9,415.5L347.9,415.5"/>
		<path id="XMLID_123_" class="st2" d="M350.8,459.9l2.4,1.4"/>
		<path id="XMLID_122_" class="st2" d="M347.5,415.9l24.5,14.2"/>
		<path id="XMLID_121_" class="st2" d="M347.9,415.5l14.3-8.3"/>
		<path id="XMLID_120_" class="st2" d="M353.3,466.8l0.8,0.5L353.3,466.8l-0.2-0.1l-0.2-0.3l0-0.2v-3v3"/>
		<path id="XMLID_119_" class="st2" d="M354,467.3l6.4,3.7l-2.5-1.4"/>
		<path id="XMLID_118_" class="st2" d="M352.9,463.1v-2.1V463.1"/>
		<path id="XMLID_117_" class="st2" d="M352.9,461.1L352.9,461.1"/>
		<path id="XMLID_116_" class="st2" d="M353.6,461v-20.1"/>
		<path id="XMLID_115_" class="st2" d="M352.9,461l0.4,0.2l0.2,0.1h0.4l0.2-0.1l5.9-3.4l-2.7,1.6"/>
		<path id="XMLID_114_" class="st2" d="M359.9,457.8l4.5-2.6l0.2-0.1h0h0l0.1,0.1h0.3l0.1,0l0.1-0.1"/>
		<path id="XMLID_113_" class="st2" d="M353.8,427.6h-0.2l-0.1,0l-0.1,0.1l-0.1,0.1l-0.1,0.1l0,0.1l0,0l0,0l-0.2,0.2"/>
		<path id="XMLID_112_" class="st2" d="M354.4,411.8v-7"/>
		<path id="XMLID_111_" class="st2" d="M353,399.9l0.3-1.2l0.3-0.4l0.4-0.5l0.4-0.2l0.5-0.2"/>
		<path id="XMLID_110_" class="st2" d="M359.8,407.6l-0.4,0.1l-0.6,0.1l-1.2-0.3"/>
		<path id="XMLID_109_" class="st2" d="M355.7,403.4v2.3l0.1,0.5l1.3,0.8l0.3,0.2l-0.1-0.5v-2.3l2,1.1l0.5,0.2l0-1.5l0-0.3l-0.3-0.1
			l-0.2-0.1l-2-1.2L355.7,403.4l-2-1.2l-0.4-0.3l0-0.3l0-1.5l0.4,0.3l2,1.1v-2.3l0.1-0.5l0.3,0.2l1.4,0.8l-0.1,0.5v2.3l-2.4-1.4
			l-1.6,0.9"/>
		<path id="XMLID_108_" class="st2" d="M364.5,465.9l-9.3-5.4"/>
		<path id="XMLID_107_" class="st2" d="M354,461.2l0.4-0.3"/>
		<path id="XMLID_106_" class="st2" d="M353.6,440.9l11.5-6.6"/>
		<path id="XMLID_105_" class="st2" d="M355.8,406.1l1.6-0.9"/>
		<path id="XMLID_104_" class="st2" d="M355.7,401.5l1.6-0.9"/>
		<path id="XMLID_103_" class="st2" d="M355.5,389.2l0.9-0.8l3.6-2.1l-2,1.1l0.1-0.1"/>
		<path id="XMLID_102_" class="st2" d="M394.8,412.8l-39.7-22.9"/>
		<path id="XMLID_101_" class="st2" d="M357.6,469.6l0.2,0.1l0.6,0.1"/>
		<path id="XMLID_100_" class="st2" d="M360.4,471l3.7,2.2"/>
		<path id="XMLID_99_" class="st2" d="M372.4,464.5l0.9-0.5L372.4,464.5l-0.2,0.1l-0.4,0l-0.2-0.1l-11.7-6.7"/>
		<path id="XMLID_98_" class="st2" d="M359.5,408v0.9"/>
		<path id="XMLID_97_" class="st2" d="M357.3,402.4v1.9l1.6-0.9l0.9,0.5"/>
		<path id="XMLID_96_" class="st2" d="M357.3,399.5v0.6"/>
		<path id="XMLID_95_" class="st2" d="M360,386.4l6.9-4l-1.3,0.8"/>
		<path id="XMLID_94_" class="st2" d="M363.6,472.8l0.5,0.3l0.2,0.1"/>
		<path id="XMLID_93_" class="st2" d="M365.5,472.8l-0.6,0.4"/>
		<path id="XMLID_92_" class="st2" d="M362.5,406.9L362.5,406.9l-0.1,0.3l0-0.1v0l-0.2,0.1"/>
		<path id="XMLID_91_" class="st2" d="M380.7,417.4l-18.3-10.5"/>
		<path id="XMLID_90_" class="st2" d="M360.5,408.3v-0.5"/>
		<path id="XMLID_89_" class="st2" d="M396.4,408.1l-35.7-20.6l-0.2-0.1"/>
		<path id="XMLID_88_" class="st2" d="M364.5,473.2v-7.3"/>
		<path id="XMLID_87_" class="st2" d="M365.8,472.6l15.7,9.1"/>
		<path id="XMLID_86_" class="st2" d="M386.5,485.8l0.6-0.1l0.4-0.1"/>
		<path id="XMLID_85_" class="st2" d="M382.4,475.4l-0.5,0.2l-0.4,0.2l-0.3,0.5l-0.3,0.4l-0.3,1.2v-0.2"/>
		<path id="XMLID_84_" class="st2" d="M365.5,472.8l3.8-2.2"/>
		<path id="XMLID_83_" class="st2" d="M364.5,465.9l4.7-2.7"/>
		<path id="XMLID_82_" class="st2" d="M364.4,455.2l-0.8,0.5"/>
		<path id="XMLID_81_" class="st2" d="M366.8,382.4l8.8-5.1"/>
		<path id="XMLID_80_" class="st2" d="M374.7,476.4l-7.8-4.5l2.4-1.4l0.2-0.1h0h0l0.1,0.1h0.3l0.1-0.1l0.1-0.1l0.1-0.2l0-0.3v-6.3"
			/>
		<path id="XMLID_79_" class="st2" d="M372,464.6v-34.5l12.3-7.1"/>
		<path id="XMLID_78_" class="st2" d="M375.4,476.4l0.9-0.5"/>
		<path id="XMLID_77_" class="st2" d="M374.9,476.5l-0.2-0.1l-0.9-0.5"/>
		<path id="XMLID_76_" class="st2" d="M375.1,476.5V463"/>
		<path id="XMLID_75_" class="st2" d="M379.6,474l2.2-1.3l-5.5,3.2"/>
		<path id="XMLID_74_" class="st2" d="M373.2,464l7.1-4.1l-0.7,0.4"/>
		<path id="XMLID_73_" class="st2" d="M378.3,376.9l1.1,0.4l3.4,2l-3.4-2"/>
		<path id="XMLID_72_" class="st2" d="M381,479.9l1.6-0.9l0.3,0.1l-1.4-0.8L381,478l0,1.5V479.9l0.4,0.3l2,1.1v2.3l0.1,0.5l1.3,0.8
			l0.3,0.1l-0.1-0.3v-2.4l2,1.1l0.5,0.2l0-1.5l0-0.3l-0.3-0.1l-0.2-0.1l-2-1.1l-1.6,0.9"/>
		<path id="XMLID_71_" class="st2" d="M383,473.2l-1-0.6"/>
		<path id="XMLID_70_" class="st2" d="M381.9,472.8l3.4-2"/>
		<path id="XMLID_69_" class="st2" d="M380.3,459.9l6.5-3.8"/>
		<path id="XMLID_68_" class="st2" d="M380.7,415.9l0.3-1.2l0.3-0.4l0.3-0.5l0.4-0.2l0.5-0.2"/>
		<path id="XMLID_67_" class="st2" d="M387.5,423.6l-0.4,0.1l-0.6,0.1l-1.2-0.3"/>
		<path id="XMLID_66_" class="st2" d="M381,417.9l1.6-0.9l0.3,0.1l-1.4-0.8L381,416l0,1.5V417.9l0.4,0.3l2,1.1v2.3l0.1,0.5l1.3,0.8
			l0.3,0.2l-0.1-0.5v-4.2l-1.6,0.9"/>
		<path id="XMLID_65_" class="st2" d="M385.3,485.6l0.2,0.1"/>
		<path id="XMLID_64_" class="st2" d="M388.5,485.7l4,2.3"/>
		<path id="XMLID_63_" class="st2" d="M383.5,484.1l1.6-0.9"/>
		<path id="XMLID_62_" class="st2" d="M385,478.5l-1.6,0.9v-2.3l0.1-0.5l0.3,0.2l1.4,0.8l-0.1,0.5v4.2l1.6-1l0.9,0.5"/>
		<path id="XMLID_61_" class="st2" d="M385,480.4l-2.2-1.2l0.5,0.3"/>
		<path id="XMLID_60_" class="st2" d="M385,478.1v-0.6"/>
		<path id="XMLID_59_" class="st2" d="M382.8,479.1L382.8,479.1"/>
		<path id="XMLID_58_" class="st2" d="M383.3,473.3l1-0.6"/>
		<path id="XMLID_57_" class="st2" d="M383.6,473.3l3.1-1.8"/>
		<path id="XMLID_56_" class="st2" d="M387,471.4l-1,0.6"/>
		<path id="XMLID_55_" class="st2" d="M386,470.7L386,470.7l-0.2,0.1h-0.3l-0.1-0.1h0h0l-0.2,0.1l-2.3,1.3"/>
		<path id="XMLID_54_" class="st2" d="M384.5,472.7l0.2-0.1"/>
		<path id="XMLID_53_" class="st2" d="M383.5,422.1l1.6-0.9"/>
		<path id="XMLID_52_" class="st2" d="M385,418.4v-2.3l0.1-0.5l-1.4-0.8l-0.3-0.2l-0.1,0.5v2.3l-0.5-0.3"/>
		<path id="XMLID_51_" class="st2" d="M387.5,419.8l0,0.3l0,1.5l-0.5-0.2l-2-1.1l1.6-1L387.5,419.8"/>
		<path id="XMLID_50_" class="st2" d="M385,416.1v-0.6"/>
		<path id="XMLID_49_" class="st2" d="M383.4,417.4l1.6-0.9"/>
		<path id="XMLID_48_" class="st2" d="M382.8,379.3l16,9.2l-3.2-1.9"/>
		<path id="XMLID_47_" class="st2" d="M388.5,485.7l0.5-0.1l1.7-1"/>
		<path id="XMLID_46_" class="st2" d="M390.7,474.7l-4.4-2.6"/>
		<path id="XMLID_45_" class="st2" d="M391.5,473.9l-4.2-2.4"/>
		<path id="XMLID_44_" class="st2" d="M388.6,460.3l2.1,1.2"/>
		<path id="XMLID_43_" class="st2" d="M387.8,458.9v-35"/>
		<path id="XMLID_42_" class="st2" d="M387.8,455.8l-0.1,0.2l-0.1,0.1l-0.1,0.1l-0.1,0l-0.2,0l-0.1-0.1h0v0l-0.2,0.1l-0.7,0.4"/>
		<path id="XMLID_41_" class="st2" d="M391.5,474.2v-11.3"/>
		<path id="XMLID_40_" class="st2" d="M395.5,488.6l1.1-0.4"/>
		<path id="XMLID_39_" class="st2" d="M417.8,472.8v0.6"/>
		<path id="XMLID_38_" class="st2" d="M394.8,488.6v-75.8"/>
		<path id="XMLID_37_" class="st2" d="M398.6,410.5l18.5-10.7"/>
		<path id="XMLID_30_" class="st2" d="M398.9,388.5l17,9.8"/>
		<path id="XMLID_29_" class="st2" d="M414.9,397.8l1,0.6l0.9,0.8"/>
		<path id="XMLID_28_" class="st2" d="M417.8,401.7v72.1"/>
		<path id="XMLID_27_" class="st2" d="M417.8,440.7v-3.2"/>
		<path id="XMLID_26_" class="st2" d="M417.8,405.5v-3.2v-0.7"/>
		<path id="XMLID_22_" class="st2" d="M399.6,485l-0.2,1l-0.5,0.8l-0.4,0.3"/>
		<path id="XMLID_21_" class="st2" d="M398.3,409.9l-0.9-1"/>
		<path id="XMLID_20_" class="st2" d="M385.7,472.1l0.2-0.1h0.2l0.2,0.1"/>
		<path id="XMLID_15_" class="st2" d="M387.3,471.5l-0.2-0.1h-0.2l-0.2,0"/>
		<path id="XMLID_13_" class="st2" d="M358.7,387.1h0.9l0.9,0.3"/>
		<path id="XMLID_12_" class="st2" d="M390.7,474.7l0.3,0.1h0.2l0.2-0.1l0.1-0.2l0-0.3"/>
		<path id="XMLID_11_" class="st2" d="M383,473.2l0.2,0.1h0.2l0.2,0"/>
		<path id="XMLID_9_" class="st2" d="M396.4,408.1c0.7,0.4,1.4,1,1.9,1.8"/>
		<path id="XMLID_8_" class="st2" d="M384.7,411.2c2-0.6,4.8,1.4,6.4,4.6c1.4,2.9,1.2,5.8-0.4,6.7"/>
		<path id="XMLID_7_" class="st2" d="M384.7,473.2c2-0.6,4.9,1.5,6.4,4.7c1.4,2.9,1.2,5.7-0.4,6.7"/>
		<path id="XMLID_6_" class="st2" d="M357,395.2c2-0.6,4.8,1.4,6.4,4.6c1.4,2.9,1.2,5.8-0.4,6.7"/>
	</g>
</g>
<g id="XMLID_10_">
	<g id="XMLID_5_">
		<path id="XMLID_23_" d="M813.4,3c14,0,25.5,11.4,25.5,25.5v538.3c0,14-11.4,25.5-25.5,25.5H28.5c-14,0-25.5-11.4-25.5-25.5V28.5
			C3,14.4,14.4,3,28.5,3H813.4 M813.4,0H28.5C12.8,0,0,12.8,0,28.5v538.3c0,15.7,12.8,28.5,28.5,28.5h784.9
			c15.7,0,28.5-12.8,28.5-28.5V28.5C841.9,12.8,829.1,0,813.4,0L813.4,0z"/>
	</g>
	<g id="XMLID_3_">
		<path id="XMLID_36_" d="M1.5,83.5V28.5c0-14.9,12.1-27,27-27h55.1v55.1c0,14.9-12.1,27-27,27H1.5z"/>
		<g id="XMLID_32_">
			<path id="XMLID_33_" d="M82,3v53.6C82,70.6,70.6,82,56.6,82H3V28.5C3,14.4,14.4,3,28.5,3H82 M85,0H28.5C12.8,0,0,12.8,0,28.5V85
				h56.6C72.2,85,85,72.2,85,56.6V0L85,0z"/>
		</g>
	</g>
	<g id="XMLID_2_">
		<path id="XMLID_14_" class="st3" d="M32.2,50.7c1-2.3,3.2-4.7,6.8-7.2c3.1-2.2,5.1-3.8,6-4.7c1.4-1.5,2.1-3.1,2.1-4.9
			c0-1.4-0.4-2.6-1.2-3.6s-1.9-1.4-3.4-1.4c-2,0-3.4,0.8-4.1,2.3c-0.4,0.9-0.7,2.3-0.8,4.2H31c0.1-2.9,0.6-5.2,1.6-7
			c1.8-3.4,5-5.1,9.5-5.1c3.6,0,6.5,1,8.6,3c2.1,2,3.2,4.6,3.2,7.9c0,2.5-0.8,4.8-2.3,6.7c-1,1.3-2.6,2.7-4.9,4.3l-2.7,1.9
			c-1.7,1.2-2.8,2-3.4,2.6s-1.1,1.1-1.6,1.9h14.8v5.9H30.7C30.7,55,31.3,52.7,32.2,50.7z"/>
	</g>
</g>
</svg>
