<?xml version="1.0" encoding="utf-8"?>
<!-- Generator: Adobe Illustrator 19.0.0, SVG Export Plug-In . SVG Version: 6.00 Build 0)  -->
<svg version="1.1" id="Layer_1" xmlns="http://www.w3.org/2000/svg" xmlns:xlink="http://www.w3.org/1999/xlink" x="0px" y="0px"
	 width="841.9px" height="595.3px" viewBox="0 0 841.9 595.3" style="enable-background:new 0 0 841.9 595.3;" xml:space="preserve"
	>
<style type="text/css">
	.st0{fill:#FFFFFF;stroke:#000000;stroke-linecap:round;stroke-linejoin:round;}
	.st1{fill:none;stroke:#0B0620;stroke-width:0.5;stroke-linecap:round;stroke-linejoin:round;}
	.st2{fill:#FFFFFF;}
</style>
<g id="XMLID_1_">
	<g id="Actor_.1">
		<g id="XMLID_738_">
			<g id="XMLID_739_">
				<path id="XMLID_740_" class="st0" d="M399.1,295.2l123.3-69.8L512,207.1l54,17.7l-12.6,55.4L543,261.9l-102.7,58.2"/>
			</g>
		</g>
	</g>
	<g id="Actor_1.0">
		<g>
			<path id="XMLID_701_" class="st1" d="M413.4,151.2c-0.3-0.6-0.3-0.6-0.7-1.2c-0.2-0.5-0.1-0.5-0.3-1.1c0-0.2,0-0.2,0-0.5
				c0.1-0.3,0.1-0.3,0.2-0.7"/>
			<path id="XMLID_700_" class="st1" d="M412.7,147.8c0.2-0.3,0.2-0.3,0.4-0.6c0.3-0.2,0.3-0.2,0.5-0.4c0.3-0.2,0.3-0.2,0.7-0.3"/>
			<path id="XMLID_699_" class="st1" d="M431.7,99.3c0.5-0.3,0.5-0.3,0.9-0.6c1.6-0.8,1.6-0.8,3.3-1.5c1.7-0.5,1.7-0.5,3.3-1
				c2-0.2,2-0.2,3.9-0.3"/>
			<path id="XMLID_698_" class="st1" d="M434.3,156.9c0,35.3,0,35.3,0,70.7c0,0.5,0,0.5,0.1,1c0.1,0.4,0.1,0.4,0.3,0.8"/>
			<path id="XMLID_697_" class="st1" d="M444.6,95.7c19.6-0.1,19.6-0.1,39.3-0.1c0.9,0,0.9,0,1.7,0.1c0.8,0.1,0.8,0.1,1.6,0.3
				c0.8,0.2,0.8,0.2,1.6,0.5c0.7,0.3,0.7,0.3,1.3,0.6c0.4,0.2,0.4,0.2,0.8,0.5"/>
			<path id="XMLID_696_" class="st1" d="M611.8,264.4c15.1,8.7,15.1,8.7,30.2,17.5c0.5,0.3,0.5,0.3,0.9,0.6c0.5,0.4,0.5,0.4,0.9,0.8
				c1.2,1.3,1.1,1.3,2.3,2.6c0.6,0.5,0.6,0.5,1.2,1c7.1,4.2,7.1,4.2,14.3,8.3"/>
			<path id="XMLID_695_" class="st1" d="M644.4,350.2c0.4-0.4,0.4-0.4,0.7-0.9c1.1-2.2,1-2.2,2.2-4.4c3.7-6.4,3.7-6.4,7.3-12.8"/>
			<path id="XMLID_694_" class="st1" d="M672.8,229c-4.6-14.4-4.6-14.4-9.2-28.7c-0.5-1.2-0.5-1.3-1.2-2.5c-0.9-1-0.9-1-1.8-2.1
				c-0.6-0.5-0.7-0.5-1.3-0.9"/>
			<path id="XMLID_693_" class="st1" d="M659.3,194.8c0.4,0.3,0.4,0.3,0.8,0.5c0.4,0.5,0.5,0.5,0.9,1c0.3,0.5,0.3,0.5,0.5,1"/>
			<path id="XMLID_692_" class="st1" d="M675,344.2c-0.4,0-0.4,0-0.7,0c-0.8,0.1-0.8,0.1-1.5,0.2c-0.3,0.1-0.3,0.1-0.7,0.1
				c-0.6,0.2-0.6,0.2-1.2,0.4"/>
			<path id="XMLID_691_" class="st1" d="M670.9,345c0.7-0.3,0.7-0.3,1.4-0.7c0.2-0.2,0.2-0.2,0.5-0.4c0.1-0.2,0.1-0.2,0.3-0.4"/>
			<path id="XMLID_690_" class="st1" d="M670.9,276.3c0.6-0.5,0.6-0.5,1.2-1c0.5-0.5,0.5-0.5,0.9-1c0.4-0.6,0.4-0.6,0.8-1.2
				c0.2-0.4,0.2-0.4,0.4-0.8c0.3-0.8,0.3-0.8,0.6-1.6c0.1-0.3,0.1-0.3,0.1-0.6"/>
			<path id="XMLID_689_" class="st1" d="M673,398.2c0.3-0.2,0.3-0.2,0.5-0.5c0.6-0.9,0.6-0.9,1.2-1.8c0.3-0.9,0.3-0.9,0.6-1.8
				c0.1-0.9,0.1-0.9,0.2-1.8c0-2.4,0-2.4,0-4.9"/>
			<path id="XMLID_688_" class="st1" d="M675.5,246.9c0-2.6,0-2.6,0-5.2c-0.1-0.9-0.1-0.9-0.1-1.9c-0.2-1.2-0.2-1.2-0.4-2.4
				c-0.2-1.2-0.2-1.2-0.5-2.4c-0.3-1.1-0.3-1.1-0.5-2.2c-0.5-1.8-0.6-1.8-1.1-3.6"/>
			<path id="XMLID_687_" class="st1" d="M675.4,242.6c0.1,11.5,0.1,11.5,0.1,23.1c0,1,0,1-0.1,1.9c-0.1,0.7-0.1,0.7-0.2,1.4
				c-0.1,0.6-0.1,0.6-0.3,1.2"/>
			<path id="XMLID_686_" class="st1" d="M405,263.8v-46.6"/>
			<path id="XMLID_685_" class="st1" d="M405.9,212l6.9,4"/>
			<path id="XMLID_684_" class="st1" d="M405.7,145.9l7,4.2"/>
			<path id="XMLID_683_" class="st1" d="M405,141.9V120"/>
			<path id="XMLID_682_" class="st1" d="M408.1,206.8l7.4-12.8"/>
			<path id="XMLID_681_" class="st1" d="M408.1,148.8l6.9,4l-1.7-1.6"/>
			<path id="XMLID_680_" class="st1" d="M414.2,146.6l1.5,0l1.7,0.7l23.6,13.6l13.9-8v50.5"/>
			<path id="XMLID_679_" class="st1" d="M409.2,112.4l20.1-11.7l-0.8,0.5"/>
			<path id="XMLID_678_" class="st1" d="M412,221.2v19.4"/>
			<path id="XMLID_677_" class="st1" d="M413.5,245.8l20.7-11.9"/>
			<path id="XMLID_676_" class="st1" d="M422.4,198.1l-7.4,12.8"/>
			<path id="XMLID_675_" class="st1" d="M415.5,153l6.9,4"/>
			<path id="XMLID_674_" class="st1" d="M416.1,282.9l2.2,1.3"/>
			<path id="XMLID_673_" class="st1" d="M418,188.2l6.9,4"/>
			<path id="XMLID_672_" class="st1" d="M418.9,182.6v-22.1"/>
			<path id="XMLID_671_" class="st1" d="M424.9,159.9l-6.9-4"/>
			<path id="XMLID_670_" class="st1" d="M416.1,113.6l38.2,22.1"/>
			<path id="XMLID_669_" class="st1" d="M425.8,186.6v-22"/>
			<path id="XMLID_668_" class="st1" d="M434.1,259.7l-5.3,3.1"/>
			<path id="XMLID_667_" class="st1" d="M429.3,100.7l3.3-1.9"/>
			<path id="XMLID_666_" class="st1" d="M434.1,263.2v-29.3"/>
			<path id="XMLID_665_" class="st1" d="M441.9,232.8l-6.9-4"/>
			<path id="XMLID_664_" class="st1" d="M437.2,223.6l7.4-12.8"/>
			<path id="XMLID_663_" class="st1" d="M440.1,96.2l3-0.5l1.5-0.1"/>
			<path id="XMLID_662_" class="st1" d="M490.9,97.6l-0.4-0.2"/>
			<path id="XMLID_661_" class="st1" d="M443.8,266.9l2.5,1.4"/>
			<path id="XMLID_660_" class="st1" d="M441.9,264.9l46.9-27.1"/>
			<path id="XMLID_659_" class="st1" d="M441.1,238v24.3"/>
			<path id="XMLID_658_" class="st1" d="M444.2,227.6l7.4-12.8"/>
			<path id="XMLID_657_" class="st1" d="M441.1,139.1v21.7"/>
			<path id="XMLID_656_" class="st1" d="M442.2,137.3l-0.3,0.2"/>
			<path id="XMLID_655_" class="st1" d="M443.8,137.6l10.5,6.1"/>
			<path id="XMLID_654_" class="st1" d="M447.1,205.1l6.9,4"/>
			<path id="XMLID_653_" class="st1" d="M448,199.4v-42.5"/>
			<path id="XMLID_652_" class="st1" d="M462.7,307.4l2.2,0.2h14.7"/>
			<path id="XMLID_651_" class="st1" d="M479.6,146.2h-14.7"/>
			<path id="XMLID_650_" class="st1" d="M464.9,138.2h14.7"/>
			<path id="XMLID_649_" class="st1" d="M476.5,299.5h3.1"/>
			<path id="XMLID_648_" class="st1" d="M485.9,308.3v-8"/>
			<path id="XMLID_647_" class="st1" d="M485.9,146.9v-8"/>
			<path id="XMLID_646_" class="st1" d="M490.7,238.9l3.7,2.2"/>
			<path id="XMLID_645_" class="st1" d="M488.7,237.8v-90"/>
			<path id="XMLID_644_" class="st1" d="M490.9,97.6l84.2,48.6l-3.1-1.8"/>
			<path id="XMLID_643_" class="st1" d="M491.3,310.3l87.8,50.7"/>
			<path id="XMLID_642_" class="st1" d="M579.1,353l-87.8-50.7"/>
			<path id="XMLID_641_" class="st1" d="M491,291.3l92.9,53.7"/>
			<path id="XMLID_640_" class="st1" d="M579.1,199.7L491.3,149"/>
			<path id="XMLID_639_" class="st1" d="M491.3,141l87.8,50.7"/>
			<path id="XMLID_638_" class="st1" d="M495.5,288.8l83.6,48.2"/>
			<path id="XMLID_637_" class="st1" d="M579.1,329l-76.6-44.2"/>
			<path id="XMLID_636_" class="st1" d="M549.1,272.7l-12.5-7.2"/>
			<path id="XMLID_635_" class="st1" d="M596.4,300l-42-24.3"/>
			<path id="XMLID_634_" class="st1" d="M575.1,146.1l83.8,48.4l0.4,0.3v-0.1l-1-0.6"/>
			<path id="XMLID_633_" class="st1" d="M583.9,376.3v-16.5"/>
			<path id="XMLID_632_" class="st1" d="M583.9,352.3v-16.5"/>
			<path id="XMLID_631_" class="st1" d="M583.9,198.4v16.5"/>
			<path id="XMLID_630_" class="st1" d="M585.2,379.7v-8"/>
			<path id="XMLID_629_" class="st1" d="M585.2,355.7v-8"/>
			<path id="XMLID_628_" class="st1" d="M585.2,218.4v-8"/>
			<path id="XMLID_627_" class="st1" d="M588.3,382.4l51.8,29.9"/>
			<path id="XMLID_626_" class="st1" d="M616.6,390.7l-28.3-16.3"/>
			<path id="XMLID_625_" class="st1" d="M603,366.8l-14.7-8.5"/>
			<path id="XMLID_624_" class="st1" d="M588.3,350.4l10.5,6.1"/>
			<path id="XMLID_623_" class="st1" d="M588.3,221l10.5,6.1"/>
			<path id="XMLID_622_" class="st1" d="M588.3,213l51.8,29.9"/>
			<path id="XMLID_621_" class="st1" d="M600.7,356.6l0.3-0.2"/>
			<path id="XMLID_620_" class="st1" d="M601.6,354.9v-20.7"/>
			<path id="XMLID_619_" class="st1" d="M601.6,255.4v-23.6"/>
			<path id="XMLID_618_" class="st1" d="M608.8,264.6l-4.1-2.4"/>
			<path id="XMLID_617_" class="st1" d="M624.7,356.8l0.3-0.1l-17.5,10.1"/>
			<path id="XMLID_616_" class="st1" d="M608.5,363.6V346"/>
			<path id="XMLID_615_" class="st1" d="M610.2,342.5l0.6-0.3l-1.2,0.7"/>
			<path id="XMLID_614_" class="st1" d="M610.3,264l-0.2,0.1L610.3,264l0.6,0.1l0.8,0.4"/>
			<path id="XMLID_613_" class="st1" d="M633.7,373.8l-19.2-11.1"/>
			<path id="XMLID_612_" class="st1" d="M614.1,342.8l3.6,2.1v-2.6"/>
			<path id="XMLID_611_" class="st1" d="M619.9,343.6l-2.2,1.3"/>
			<path id="XMLID_610_" class="st1" d="M621.1,390.6l-0.7,0.4"/>
			<path id="XMLID_609_" class="st1" d="M644.3,367.7l-16.9,9.7"/>
			<path id="XMLID_608_" class="st1" d="M625,356.7l3.1-1.8l-2.4,1.4"/>
			<path id="XMLID_607_" class="st1" d="M628.1,354.9l5.6-3.2"/>
			<path id="XMLID_606_" class="st1" d="M638.7,357.1l-5-2.9v-2.5"/>
			<path id="XMLID_605_" class="st1" d="M641.8,350.4l0.9,0.3l0.9-0.1l0.8-0.5"/>
			<path id="XMLID_604_" class="st1" d="M644.3,374.7v-8.1"/>
			<path id="XMLID_603_" class="st1" d="M652,354.2l-7.3-4.2"/>
			<path id="XMLID_602_" class="st1" d="M647.9,413l1-0.6l-1.9,1.1"/>
			<path id="XMLID_601_" class="st1" d="M649,412.3l10.8-6.2l-0.5,0.3"/>
			<path id="XMLID_600_" class="st1" d="M648,251.2l26.7-15.4"/>
			<path id="XMLID_599_" class="st1" d="M651.2,405.9v-46.6"/>
			<path id="XMLID_598_" class="st1" d="M651.2,262.1v21.9"/>
			<path id="XMLID_597_" class="st1" d="M654.3,348.9l7.4-12.8"/>
			<path id="XMLID_596_" class="st1" d="M657.2,326.3l6.9,4"/>
			<path id="XMLID_595_" class="st1" d="M658.1,320.7v-22.1"/>
			<path id="XMLID_594_" class="st1" d="M657.2,294l6.9,4"/>
			<path id="XMLID_593_" class="st1" d="M661.5,197.4l10.2,31.9"/>
			<path id="XMLID_592_" class="st1" d="M659.8,406.1l12.2-7l1.1-0.9l-1.1,0.9"/>
			<path id="XMLID_591_" class="st1" d="M660.7,405.5l-0.5,0.3"/>
			<path id="XMLID_590_" class="st1" d="M665.1,302.6v22.1"/>
			<path id="XMLID_589_" class="st1" d="M675,392.5v-48.3"/>
			<path id="XMLID_588_" class="st1" d="M673.1,343.5l0.1-0.4v-2.4v2.4"/>
			<path id="XMLID_587_" class="st1" d="M675,270.1v-26.1"/>
			<path id="XMLID_586_" class="st1" d="M675.5,387.4l-0.1,4.9"/>
			<path id="XMLID_585_" class="st1" d="M674.2,396.6L674.2,396.6"/>
			<path id="XMLID_584_" class="st1" d="M674.3,344.3l-1.1-3.3"/>
			<path id="XMLID_583_" class="st1" d="M673.2,340.7v-3.1V340.7"/>
			<path id="XMLID_582_" class="st1" d="M675,344.2l0.5,0.1l-2.3-7.1v0.4v-3.1v0.3"/>
			<path id="XMLID_581_" class="st1" d="M673.2,336.9v0.3"/>
			<path id="XMLID_580_" class="st1" d="M673.2,334.5v-53v3.1"/>
			<path id="XMLID_579_" class="st1" d="M673.2,281.5l0-7.5"/>
			<path id="XMLID_578_" class="st1" d="M675.4,387.4v3.1"/>
			<path id="XMLID_577_" class="st1" d="M675.5,381.2l0,6.2"/>
			<path id="XMLID_576_" class="st1" d="M675.5,381.1v-36.7"/>
			<path id="XMLID_575_" class="st1" d="M675.4,244.1v-1.5"/>
			<path id="XMLID_574_" class="st1" d="M665.1,324.7c0,3.6-1.2,7.7-3.4,11.5"/>
			<path id="XMLID_573_" class="st1" d="M651.2,359.3c0-3.2,1.1-7,3.1-10.4"/>
			<path id="XMLID_572_" class="st1" d="M579.1,191.7c3.1,1.8,4.8,4.2,4.8,6.7"/>
			<path id="XMLID_571_" class="st1" d="M588.3,213c-2.8-1.6-4.4-3.8-4.4-6.1"/>
			<path id="XMLID_570_" class="st1" d="M640.1,242.9c6.1,3.5,11.1,12.1,11.1,19.2"/>
			<path id="XMLID_569_" class="st1" d="M654.3,290.9c-2-1.1-3.1-3.6-3.1-6.8"/>
			<path id="XMLID_568_" class="st1" d="M661.7,295.1c2.2,1.3,3.4,4,3.4,7.5"/>
			<path id="XMLID_567_" class="st1" d="M416.1,283c-6.1-3.5-11.1-12.1-11.1-19.2"/>
			<ellipse id="XMLID_566_" class="st1" cx="440.2" cy="116.9" rx="4.9" ry="2.8"/>
			<path id="XMLID_565_" class="st1" d="M425.8,186.6c0,3.6-1.2,7.7-3.4,11.5"/>
			<path id="XMLID_564_" class="st1" d="M579.1,361c3.1,1.8,4.8,4.2,4.8,6.7"/>
			<path id="XMLID_563_" class="st1" d="M418.9,182.6c0,3.6-1.2,7.7-3.4,11.5"/>
			
				<ellipse id="XMLID_562_" transform="matrix(-0.866 0.5 -0.5 -0.866 915.4247 292.1771)" class="st1" cx="418.6" cy="268.7" rx="3.9" ry="6.7"/>
			<path id="XMLID_561_" class="st1" d="M651.2,405.9c-0.1,6.7-5.2,9.3-11.1,6.4"/>
			<path id="XMLID_560_" class="st1" d="M479.6,307.5c4.4,0,8.6,1,11.6,2.8"/>
			<path id="XMLID_559_" class="st1" d="M441.1,139.1c0.1-1.7,1.3-2.3,2.8-1.5"/>
			<path id="XMLID_558_" class="st1" d="M408.1,148.7c-2-1.1-3.1-3.6-3.1-6.8"/>
			<path id="XMLID_557_" class="st1" d="M479.6,138.2c4.4,0,8.6,1,11.6,2.8"/>
			<path id="XMLID_556_" class="st1" d="M441.1,238c0-3.2,1.1-7,3.1-10.4"/>
			<path id="XMLID_555_" class="st1" d="M443.8,266.9c-1.5-0.9-2.7-2.9-2.8-4.7"/>
			
				<ellipse id="XMLID_554_" transform="matrix(-0.866 0.5 -0.5 -0.866 1318.474 161.027)" class="st1" cx="637.7" cy="257.2" rx="3.9" ry="6.7"/>
			<path id="XMLID_553_" class="st1" d="M588.3,382.4c-2.8-1.6-4.4-3.8-4.4-6.1"/>
			<path id="XMLID_552_" class="st1" d="M405,120c0.1-6.7,5.2-9.3,11.1-6.4"/>
			
				<ellipse id="XMLID_551_" transform="matrix(-0.866 0.5 -0.5 -0.866 1387.509 418.669)" class="st1" cx="637.7" cy="395.2" rx="3.9" ry="6.7"/>
			<path id="XMLID_550_" class="st1" d="M464.9,138.2c-3.9,0-7.7-0.9-10.5-2.5"/>
			<ellipse id="XMLID_549_" class="st1" cx="627.6" cy="225.1" rx="4.9" ry="2.8"/>
			
				<ellipse id="XMLID_548_" transform="matrix(0.866 -0.5 0.5 0.866 -9.2537 226.7895)" class="st1" cx="418.6" cy="130.7" rx="3.9" ry="6.7"/>
			<path id="XMLID_547_" class="st1" d="M454.9,203.4c0,3.6-1.2,7.7-3.4,11.5"/>
			<path id="XMLID_546_" class="st1" d="M579.1,329c3.1,1.8,4.8,4.2,4.8,6.7"/>
			<path id="XMLID_545_" class="st1" d="M601.6,354.9c-0.1,1.7-1.3,2.3-2.8,1.5"/>
			<path id="XMLID_544_" class="st1" d="M598.8,227.1c1.5,0.9,2.7,2.9,2.8,4.7"/>
			<path id="XMLID_543_" class="st1" d="M588.3,221c-2.8-1.6-4.4-3.8-4.4-6.1"/>
			<path id="XMLID_542_" class="st1" d="M579.1,199.7c3.1,1.8,4.8,4.2,4.8,6.7"/>
			<path id="XMLID_541_" class="st1" d="M405,217.2c0-3.2,1.1-7,3.1-10.4"/>
			<path id="XMLID_540_" class="st1" d="M415.5,153c2.2,1.3,3.4,4,3.4,7.5"/>
			<path id="XMLID_539_" class="st1" d="M588.3,350.4c-2.8-1.6-4.4-3.8-4.4-6.1"/>
			<path id="XMLID_538_" class="st1" d="M604.7,262.2c-2-1.1-3.1-3.6-3.1-6.8"/>
			<path id="XMLID_537_" class="st1" d="M479.6,146.2c4.4,0,8.6,1,11.6,2.8"/>
			<path id="XMLID_536_" class="st1" d="M422.4,157c2.2,1.3,3.4,4,3.4,7.5"/>
			<path id="XMLID_535_" class="st1" d="M412,221.2c0-3.2,1.1-7,3.1-10.4"/>
			<path id="XMLID_534_" class="st1" d="M417.2,250c-2.9-1.9-5.2-6-5.2-9.4"/>
			<path id="XMLID_533_" class="st1" d="M417.2,250c8,5.1,14.7,15.5,16.5,25.6"/>
			<path id="XMLID_532_" class="st1" d="M464.9,146.2c-3.9,0-7.7-0.9-10.5-2.5"/>
			<path id="XMLID_531_" class="st1" d="M579.1,353c3.1,1.8,4.8,4.2,4.8,6.7"/>
			<path id="XMLID_530_" class="st1" d="M658.1,320.7c0,3.6-1.2,7.7-3.4,11.5"/>
			<path id="XMLID_529_" class="st1" d="M622.1,387.9c0.5-10.2,7.8-14.4,16.9-9.8"/>
			<path id="XMLID_528_" class="st1" d="M638.7,357.1c3.1,1.8,5.5,6.1,5.5,9.6"/>
			<path id="XMLID_527_" class="st1" d="M644.3,374.7c0,3.4-2.3,4.9-5.2,3.4"/>
			<path id="XMLID_526_" class="st1" d="M588.3,374.4c-2.8-1.6-4.4-3.8-4.4-6.1"/>
			<path id="XMLID_525_" class="st1" d="M608.5,363.6c0,3.6-2.3,5.1-5.4,3.4c0,0-0.1-0.1-0.1-0.2"/>
			<path id="XMLID_524_" class="st1" d="M434.1,234c0-3.2,1.1-7,3.1-10.4"/>
			<path id="XMLID_523_" class="st1" d="M448,199.4c0,3.6-1.2,7.7-3.4,11.5"/>
			<path id="XMLID_522_" class="st1" d="M654.7,291.1c2.2,1.3,3.4,4,3.4,7.5"/>
			<path id="XMLID_521_" class="st1" d="M479.6,299.5c4.4,0,8.6,1,11.6,2.8"/>
			<path id="XMLID_520_" class="st1" d="M622.1,387.9c-0.2,3.3-2.6,4.5-5.5,2.8"/>
			<path id="XMLID_519_" class="st1" d="M588.3,358.4c-2.8-1.6-4.4-3.8-4.4-6.1"/>
			<path id="XMLID_518_" class="st1" d="M608.5,346c0-3.5,2.5-5,5.5-3.2c0,0,0,0,0,0"/>
			<path id="XMLID_517_" class="st1" d="M439.3,272.3c-2.8-1.8-5.1-5.8-5.2-9.2"/>
			<path id="XMLID_516_" class="st1" d="M579.1,337c3.1,1.8,4.8,4.2,4.8,6.7"/>
		</g>
	</g>
	<g id="Actor_4.0">
		<g>
			<path id="XMLID_515_" class="st1" d="M592.2,324.1c0-0.1,0-0.1-0.1-0.1c-0.1-0.1-0.1-0.1-0.1-0.2c0-0.1,0-0.1,0-0.1"/>
			<path id="XMLID_514_" class="st1" d="M592.1,307c0-0.1,0-0.1,0-0.3c0-0.1,0-0.1,0-0.1c0.1-0.1,0.1-0.1,0.1-0.1
				c0.1-0.1,0.1-0.1,0.1-0.1c0.1-0.1,0.1-0.1,0.2-0.1"/>
			<path id="XMLID_513_" class="st1" d="M596.8,290.4c-0.1,0.1-0.1,0.1-0.2,0.1c-0.1,0.1-0.1,0.1-0.1,0.1c-0.1,0.1-0.1,0.1-0.1,0.1
				c0,0.1,0,0.1-0.1,0.1c0,0.1,0,0.1,0,0.3"/>
			<path id="XMLID_512_" class="st1" d="M602.4,329.2c-0.2,0.1-0.2,0.1-0.4,0.2c-0.1,0-0.1,0-0.1,0.1c-0.1,0-0.1,0-0.2,0
				s-0.1,0-0.1,0"/>
			<path id="XMLID_511_" class="st1" d="M611.6,324.2C611.6,324.2,611.6,324.2,611.6,324.2c0.1-0.1,0.1-0.1,0.1-0.2
				c0-0.1,0-0.1,0-0.1c0-0.1,0-0.1,0-0.1"/>
			<path id="XMLID_510_" class="st1" d="M611.7,323.8c0,8.3,0-8.3,0-16.7c0-0.1,0-0.1,0-0.1c0-0.1,0-0.1-0.1-0.3
				c-0.1-0.1-0.1-0.1-0.1-0.3c-0.1-0.1-0.1-0.1-0.2-0.3c-0.1-0.1-0.1-0.1-0.2-0.2c-0.1,0-0.1,0-0.1-0.1c-4.4-2.6-4.4-2.6-8.9-5.1
				c-0.1-0.1-0.1-0.1-0.2-0.1"/>
			<path id="XMLID_509_" class="st1" d="M602.4,281.3c0.3,0.4,0.3,0.4,0.6,0.8c0.5,0.4,0.5,0.5,1,0.9c0.7,0.4,0.7,0.4,1.3,0.8
				c0.5,0.1,0.5,0.1,1,0.2c0.2,0,0.2,0,0.5,0c0.5-0.1,0.5-0.1,0.9-0.2c0.2-0.1,0.2-0.1,0.5-0.2c0.7-0.4,0.7-0.4,1.5-0.9"/>
			<path id="XMLID_508_" class="st1" d="M603.5,280c0,1,0,1,0,2c0,0.1,0,0.1,0,0.1c0,0.2,0,0.1,0.1,0.3"/>
			<path id="XMLID_507_" class="st1" d="M602.4,281.3c-0.1-0.1-0.1-0.1-0.2-0.3c-0.3-0.6-0.3-0.6-0.6-1.2c-0.2-0.6-0.2-0.6-0.4-1.2
				c-0.1-0.6,0-0.6-0.1-1.2c0-0.2,0-0.2,0-0.4c0.1-0.5,0.1-0.5,0.2-1.1c0.1-0.2,0.1-0.2,0.2-0.4c0.3-0.4,0.3-0.4,0.6-0.8
				c0.1-0.1,0.1-0.1,0.3-0.2"/>
			<path id="XMLID_506_" class="st1" d="M602.7,275c0.2,0,0.2,0,0.4,0c0.3,0,0.3,0,0.5,0.1c0.2,0.1,0.2,0.1,0.5,0.1
				c0.3,0.1,0.3,0.1,0.6,0.3c0.2,0.1,0.2,0.1,0.5,0.3c0.3,0.3,0.3,0.3,0.6,0.5c0.2,0.2,0.2,0.2,0.4,0.4c0.3,0.3,0.3,0.3,0.5,0.6
				c0.2,0.3,0.2,0.3,0.3,0.5c0.2,0.4,0.2,0.4,0.4,0.7c0.1,0.3,0.1,0.3,0.3,0.6c0.1,0.4,0.1,0.4,0.3,0.8c0.1,0.3,0.1,0.3,0.1,0.5
				c0.1,0.4,0.1,0.4,0.1,0.8c0,0.2,0,0.2,0,0.5c0,0.3,0,0.3-0.1,0.7c-0.1,0.2-0.1,0.2-0.1,0.4c-0.1,0.3-0.1,0.3-0.3,0.5
				c-0.1,0.1-0.1,0.1-0.2,0.2c-0.2,0.2-0.2,0.2-0.4,0.3"/>
			<path id="XMLID_505_" class="st1" d="M602.4,270.1c0.1-0.4,0.1-0.4,0.1-0.7c0.2-0.4,0.2-0.4,0.4-0.8c0.2-0.3,0.2-0.3,0.4-0.6"/>
			<path id="XMLID_504_" class="st1" d="M603.4,335.3c0.3,0.3,0.3,0.3,0.6,0.5c0.5,0.3,0.5,0.3,0.9,0.6c0.2,0.1,0.2,0.1,0.4,0.2
				c0.3,0.1,0.3,0.1,0.5,0.1"/>
			<path id="XMLID_503_" class="st1" d="M603.5,278.4c0-1,0-1,0-2c0-0.1,0-0.1,0-0.2c0-0.1,0-0.1,0.1-0.3"/>
			<path id="XMLID_502_" class="st1" d="M637.5,352.7c-0.4,0-0.4,0-0.7,0c-0.5,0-0.5,0-0.9-0.1c-0.4-0.1-0.4-0.1-0.7-0.3"/>
			<path id="XMLID_501_" class="st1" d="M631.4,350.3c-0.5,0.1-0.5,0.1-0.9,0.2c-0.2,0-0.2,0-0.5,0c-0.5-0.1-0.5-0.1-1-0.2
				c-0.2-0.1-0.2-0.1-0.3-0.2c-0.5-0.3-0.5-0.3-1-0.6c-0.5-0.4-0.5-0.4-0.9-0.9c-0.4-0.5-0.4-0.5-0.8-1.1c-0.2-0.3-0.2-0.3-0.3-0.7"
				/>
			<path id="XMLID_500_" class="st1" d="M615.7,337.3C615.7,337.2,615.7,337.2,615.7,337.3c0.1-0.1,0.1-0.1,0.1-0.2c0,0,0,0,0-0.1
				c0-0.1,0-0.1,0-0.1"/>
			<path id="XMLID_499_" class="st1" d="M621.5,341.7c-0.6,0.3-0.6,0.3-1.1,0.7c-0.1,0-0.1,0-0.1,0.1c-0.1,0-0.1,0-0.2,0
				c-0.1,0-0.1,0-0.1,0"/>
			<path id="XMLID_498_" class="st1" d="M630.6,350.2c0.2-0.1,0.2-0.1,0.4-0.3c0.1-0.1,0.1-0.1,0.2-0.3c0.1-0.2,0.1-0.3,0.3-0.5
				c0.1-0.2,0.1-0.2,0.1-0.4c0-0.3,0-0.3,0.1-0.7c0-0.3,0-0.3,0-0.5c0-0.4,0-0.4-0.1-0.8c-0.1-0.3-0.1-0.3-0.1-0.5
				c-0.1-0.4-0.1-0.4-0.3-0.8c-0.1-0.3-0.1-0.3-0.3-0.5c-0.2-0.4-0.2-0.4-0.4-0.7c-0.2-0.3-0.2-0.3-0.4-0.5
				c-0.3-0.3-0.3-0.3-0.5-0.7c-0.2-0.2-0.2-0.2-0.4-0.4c-0.3-0.3-0.3-0.3-0.6-0.5c-0.2-0.1-0.2-0.1-0.4-0.3
				c-0.3-0.1-0.3-0.1-0.6-0.3c-0.2-0.1-0.2-0.1-0.4-0.1c-0.3,0-0.3,0-0.5,0c-0.2,0-0.2,0-0.4,0"/>
			<path id="XMLID_497_" class="st1" d="M625,342.6c-0.1,0.5-0.1,0.5-0.2,1c0,0.7,0,0.7,0.1,1.4c0.2,0.7,0.2,0.7,0.4,1.3
				c0.1,0.3,0.1,0.3,0.3,0.6"/>
			<path id="XMLID_496_" class="st1" d="M624.8,343.4c0.1-0.5,0.1-0.5,0.2-1.1c0.1-0.2,0.1-0.2,0.2-0.4c0.3-0.4,0.3-0.4,0.6-0.8
				c0.2-0.2,0.2-0.2,0.4-0.3c1-0.6,1-0.6,2-1.2"/>
			<path id="XMLID_495_" class="st1" d="M633.3,296.4c-0.7,0.4-0.7,0.4-1.5,0.9c-0.2,0.1-0.2,0.1-0.5,0.2c-0.5,0.1-0.5,0.1-0.9,0.2
				c-0.2,0-0.2,0-0.5,0c-0.5-0.1-0.5-0.1-1-0.2c-0.7-0.4-0.7-0.4-1.3-0.8c-0.5-0.4-0.5-0.5-0.9-0.9c-0.4-0.6-0.4-0.6-0.8-1.1
				c-0.3-0.6-0.3-0.6-0.6-1.2c-0.2-0.6-0.2-0.6-0.4-1.2c0-0.6,0-0.6-0.1-1.2c0-0.2,0-0.2,0-0.4c0.1-0.5,0.1-0.5,0.2-1.1
				c0.1-0.2,0.1-0.2,0.2-0.4c0.3-0.4,0.3-0.4,0.6-0.8c0.2-0.2,0.2-0.2,0.4-0.3c1-0.6,1-0.6,2-1.2"/>
			<path id="XMLID_494_" class="st1" d="M626.3,288.6c0.2,0,0.2,0,0.4,0c0.3,0,0.3,0,0.5,0.1c0.2,0.1,0.2,0.1,0.4,0.1
				c0.3,0.1,0.3,0.1,0.6,0.3c0.2,0.1,0.2,0.1,0.4,0.3c0.3,0.3,0.3,0.3,0.6,0.5c0.2,0.2,0.2,0.2,0.4,0.4c0.3,0.3,0.3,0.3,0.5,0.6
				c0.2,0.3,0.2,0.3,0.4,0.5c0.2,0.4,0.2,0.4,0.4,0.7c0.1,0.3,0.1,0.3,0.3,0.6c0.1,0.4,0.1,0.4,0.3,0.8c0.1,0.3,0.1,0.3,0.1,0.5
				c0.1,0.4,0.1,0.4,0.1,0.8c0,0.2,0,0.3,0,0.5c-0.1,0.3-0.1,0.3-0.1,0.7c-0.1,0.2-0.1,0.2-0.1,0.4c-0.1,0.3-0.1,0.3-0.3,0.5
				c-0.1,0.1-0.1,0.1-0.2,0.2c-0.2,0.2-0.2,0.2-0.4,0.3"/>
			<path id="XMLID_493_" class="st1" d="M627.1,346.5c0,1,0,1,0,2c0,0.1,0,0.1,0,0.1c0,0.1,0,0.1,0,0.3"/>
			<path id="XMLID_492_" class="st1" d="M628.5,347.4c0.9,0.5,0.9,0.5,1.7,1c0.1,0.1,0.1,0.1,0.2,0.1c0.1,0.1,0.1,0.1,0.3,0.1"/>
			<path id="XMLID_491_" class="st1" d="M628.5,347.4c0-1.8,0-1.8,0-3.6c0-0.1,0-0.1,0-0.2c0-0.1,0-0.1,0-0.3"/>
			<path id="XMLID_490_" class="st1" d="M626.9,338.6c0.4,0.2,0.4,0.2,0.8,0.5c0.1,0,0.1,0,0.2,0.1c0.1,0,0.1,0,0.2,0"/>
			<path id="XMLID_489_" class="st1" d="M628.5,292.9c0,1,0-1,0-2c0-0.1,0-0.1,0-0.2c0-0.1,0-0.1,0-0.3"/>
			<path id="XMLID_488_" class="st1" d="M627.1,293.7c0,1,0,1,0,2c0,0.1,0,0.1,0,0.1c0,0.2,0,0.2,0,0.3"/>
			<path id="XMLID_487_" class="st1" d="M628.5,294.5c0.9,0.5,0.9,0.5,1.7,1c0.1,0,0.1,0,0.2,0.1c0.1,0.1,0.1,0.1,0.3,0.1"/>
			<path id="XMLID_486_" class="st1" d="M634,330.9c0-0.1,0-0.1,0-0.3c-0.1-0.1-0.1-0.1-0.1-0.3c-0.1-0.1-0.1-0.1-0.1-0.3
				c-0.1-0.1-0.1-0.1-0.2-0.2c-0.1-0.1-0.1-0.1-0.2-0.2"/>
			<path id="XMLID_485_" class="st1" d="M631.5,328.6c-0.1-0.1-0.1-0.1-0.2-0.2c-0.1-0.1-0.1-0.1-0.2-0.2c-0.1-0.1-0.1-0.1-0.2-0.3
				c-0.1-0.1-0.1-0.1-0.1-0.3c0-0.1,0-0.1-0.1-0.3"/>
			<path id="XMLID_484_" class="st1" d="M592.4,324.2l1.4,0.8L592.4,324.2l-0.2-0.1"/>
			<path id="XMLID_483_" class="st1" d="M592.1,323.7V307"/>
			<path id="XMLID_482_" class="st1" d="M601.7,312.1l-9.6-5.5"/>
			<path id="XMLID_481_" class="st1" d="M592.5,306.2L592.5,306.2"/>
			<path id="XMLID_480_" class="st1" d="M592.5,306.2l8.8-5.1"/>
			<path id="XMLID_479_" class="st1" d="M596.9,326.8l-3-1.7L596.9,326.8L596.9,326.8"/>
			<path id="XMLID_478_" class="st1" d="M593.9,325.1L593.9,325.1"/>
			<path id="XMLID_477_" class="st1" d="M596.9,326.9l4.5,2.6"/>
			<path id="XMLID_476_" class="st1" d="M596.4,291.2V304"/>
			<path id="XMLID_475_" class="st1" d="M596.5,290.7l20.9,12.1"/>
			<path id="XMLID_474_" class="st1" d="M596.8,290.5L596.8,290.5l12.3-7.1"/>
			<path id="XMLID_473_" class="st1" d="M603.4,335.3l2.9,1.7l-4.9-2.8"/>
			<path id="XMLID_472_" class="st1" d="M601.9,334.5l-0.5-0.3l-0.2-0.1l-0.1-0.3l0-0.2v-2.3v2.3"/>
			<path id="XMLID_471_" class="st1" d="M601.1,331.3v-2.1V331.3"/>
			<path id="XMLID_470_" class="st1" d="M601.1,329.3L601.1,329.3"/>
			<path id="XMLID_469_" class="st1" d="M611,333.4l-7.9-4.6"/>
			<path id="XMLID_468_" class="st1" d="M601.7,329.2v-17.2"/>
			<path id="XMLID_467_" class="st1" d="M602,329.4l0.4-0.2"/>
			<path id="XMLID_466_" class="st1" d="M601.6,329.5l-0.2-0.1l-0.3-0.2"/>
			<path id="XMLID_465_" class="st1" d="M602.4,329.2l7-4.1l-2.3,1.3"/>
			<path id="XMLID_464_" class="st1" d="M601.7,312.1l9.8-5.6"/>
			<path id="XMLID_463_" class="st1" d="M609.4,325.2l1.5-0.9l0.2-0.1v0h0l0.1,0h0.2l0.1,0l0.1-0.1"/>
			<path id="XMLID_462_" class="st1" d="M601.9,300.7l-0.2,0l-0.1,0l-0.1,0.1l-0.1,0.1l-0.1,0.1l0,0.1l0-0.1v0l-0.1,0.1"/>
			<path id="XMLID_461_" class="st1" d="M602.4,287.2v-5.9"/>
			<path id="XMLID_460_" class="st1" d="M603.5,282.4l1.1,0.7l0.3,0.1l-0.1-0.4v-3.5l-1.4,0.8l-1.7-1l-0.3-0.3v-0.3l0-1.3l0.3,0.3
				l1.4,0.8l-0.4-0.2l-1.4,0.8"/>
			<path id="XMLID_459_" class="st1" d="M602.4,274.4v-4.3v0.1"/>
			<path id="XMLID_458_" class="st1" d="M601.2,277.1l0.2-1l0.2-0.3l0.3-0.4l0.3-0.2l0.5-0.2"/>
			<path id="XMLID_457_" class="st1" d="M606.9,283.7l-0.3,0.1l-0.5,0.1l-1-0.2"/>
			<path id="XMLID_456_" class="st1" d="M603.2,278.2l1.7,1v-2.5"/>
			<path id="XMLID_455_" class="st1" d="M602.4,274.4l0.1-0.1l2-1.2"/>
			<path id="XMLID_454_" class="st1" d="M603.3,268l0.8-0.7l5.4-3.1l-3.1,1.8"/>
			<path id="XMLID_453_" class="st1" d="M605.1,336.5l0.5,0.1"/>
			<path id="XMLID_452_" class="st1" d="M603.5,282.4l1.3-0.8"/>
			<path id="XMLID_451_" class="st1" d="M606,281.5l0.8,0.4l0.3,0.1v-1.3v-0.3l-0.3-0.1l-0.5-0.3l-1.4,0.8L606,281.5"/>
			<path id="XMLID_450_" class="st1" d="M604.9,279.2l2.1,1.2"/>
			<path id="XMLID_449_" class="st1" d="M604.9,277.6l-1.4,0.8"/>
			<path id="XMLID_448_" class="st1" d="M603.5,276l0.2,0.1l1.2,0.7l-0.1,0.3v0.2"/>
			<path id="XMLID_447_" class="st1" d="M603.5,278.4l-0.1-0.1"/>
			<path id="XMLID_446_" class="st1" d="M636.8,288.1L603,268.5"/>
			<path id="XMLID_445_" class="st1" d="M606.5,265.9l-1,0.6l0.1-0.1"/>
			<path id="XMLID_444_" class="st1" d="M610.7,339.5l-4.4-2.5"/>
			<path id="XMLID_443_" class="st1" d="M617.7,332.2l1-0.6L617.7,332.2l-0.1,0.1h-0.3l-0.2-0.1l-9.9-5.7"/>
			<path id="XMLID_442_" class="st1" d="M606.7,284.7V284"/>
			<path id="XMLID_441_" class="st1" d="M609.2,283.1L609.2,283.1l-0.1,0.2l0,0l0,0l-0.1,0.1"/>
			<path id="XMLID_440_" class="st1" d="M607.6,284.2v-0.4"/>
			<path id="XMLID_439_" class="st1" d="M624.8,292l-15.6-9"/>
			<path id="XMLID_438_" class="st1" d="M638.2,284.1l-30.5-17.6"/>
			<path id="XMLID_437_" class="st1" d="M611.3,339.5l3.7-2.2"/>
			<path id="XMLID_436_" class="st1" d="M611,333.4v6.2"/>
			<path id="XMLID_435_" class="st1" d="M645.8,348.2l-7.3,4.3l-0.9,0.3"/>
			<path id="XMLID_434_" class="st1" d="M635.2,352.4l-3.7-2.2l-0.1,0.1"/>
			<path id="XMLID_433_" class="st1" d="M625.5,346.8l-13.4-7.7"/>
			<path id="XMLID_432_" class="st1" d="M609.4,338.8l1.3,0.7l0.2,0.1h0.3l0.1-0.1l0.7-0.4"/>
			<path id="XMLID_431_" class="st1" d="M611,333.4l4.1-2.3"/>
			<path id="XMLID_430_" class="st1" d="M610.9,324.3l-1.5,0.9"/>
			<path id="XMLID_429_" class="st1" d="M609.4,264.2L609.4,264.2l0.1-0.1"/>
			<path id="XMLID_428_" class="st1" d="M613,338.5l2.6,1.5L613,338.5l1.7-1l0.3-0.2l0.2-0.1h0h0l0.1,0.1h0.2l0.1-0.1l0.1-0.1"/>
			<path id="XMLID_427_" class="st1" d="M615.8,336.9v-5.3"/>
			<path id="XMLID_426_" class="st1" d="M615.6,340l4.1,2.4"/>
			<path id="XMLID_425_" class="st1" d="M617.4,332.3v-29.5"/>
			<path id="XMLID_424_" class="st1" d="M618.8,331.6l3.1-1.8L618.8,331.6"/>
			<path id="XMLID_423_" class="st1" d="M617.4,302.8l10.5-6"/>
			<path id="XMLID_422_" class="st1" d="M620.3,342.4l1.2-0.7"/>
			<path id="XMLID_421_" class="st1" d="M619.9,342.4l-0.2-0.1l-0.9-0.5"/>
			<path id="XMLID_420_" class="st1" d="M620,342.4v-11.6"/>
			<path id="XMLID_419_" class="st1" d="M621.5,341.7l3.5-2l-1.7,1"/>
			<path id="XMLID_418_" class="st1" d="M628.7,350.2l1,0.2l0.5-0.1l0.3-0.1"/>
			<path id="XMLID_417_" class="st1" d="M626.3,341.5l-0.5,0.2l-0.3,0.2l-0.3,0.4l-0.2,0.3"/>
			<path id="XMLID_416_" class="st1" d="M624.8,343.6v-0.2"/>
			<path id="XMLID_415_" class="st1" d="M621.9,329.8l2.7-1.6L621.9,329.8"/>
			<path id="XMLID_414_" class="st1" d="M624.6,328.2l5.4-3.1"/>
			<path id="XMLID_413_" class="st1" d="M624.8,290.7l0.2-1l0.2-0.3l0.3-0.4l0.3-0.2l0.5-0.2"/>
			<path id="XMLID_412_" class="st1" d="M630.6,297.3l-0.3,0.1l-0.5,0.1l-1-0.2"/>
			<path id="XMLID_411_" class="st1" d="M627.2,348.9l1.1,0.7l0.3,0.1l-0.1-0.4v-2"/>
			<path id="XMLID_410_" class="st1" d="M630.6,348.5V347l-0.7-0.4l-1.4,0.8"/>
			<path id="XMLID_409_" class="st1" d="M628.5,343.3l-1.2-0.7l-0.2-0.2l0,0.3l0,0.2v2l-1.7-1l-0.3-0.2l0,1.3l0,0.3l0.3,0.3l1.7,1
				l1.4-0.8l-2.1-1.2l-1.3,0.8"/>
			<path id="XMLID_408_" class="st1" d="M627.2,348.9l1.3-0.8"/>
			<path id="XMLID_407_" class="st1" d="M627.1,344.9l1.4-0.8"/>
			<path id="XMLID_406_" class="st1" d="M627,339.7l0.9-0.5"/>
			<path id="XMLID_405_" class="st1" d="M627.9,338l-2.9,1.7l3.1-1.8L627.9,338"/>
			<path id="XMLID_404_" class="st1" d="M626.8,339.6l-0.8-0.5"/>
			<path id="XMLID_403_" class="st1" d="M629.9,338.1l-2.6,1.5"/>
			<path id="XMLID_402_" class="st1" d="M628,339.2l0.1-0.1"/>
			<path id="XMLID_401_" class="st1" d="M628.1,337.9l0.6-0.3L628.1,337.9"/>
			<path id="XMLID_400_" class="st1" d="M627.1,293.7l1.4-0.8v1.6l1.4-0.8l0.5,0.3l-1.9-1"/>
			<path id="XMLID_399_" class="st1" d="M628.5,290.4l-1.2-0.7l-0.2-0.1l0,0.3l0,0.2v2l-1.7-1l-0.3-0.3l0,1.3l0,0.3l0.2,0.2l1.8,1"
				/>
			<path id="XMLID_398_" class="st1" d="M627.2,296l1.1,0.7l0.3,0.1l-0.1-0.4v-2"/>
			<path id="XMLID_397_" class="st1" d="M630.6,295.6v-1.3V294l-0.3-0.1l0.3,0.2"/>
			<path id="XMLID_396_" class="st1" d="M627.2,296l1.3-0.8"/>
			<path id="XMLID_395_" class="st1" d="M627.1,292l1.4-0.8"/>
			<path id="XMLID_394_" class="st1" d="M625.1,292.4l1.3-0.8l2.1,1.2"/>
			<path id="XMLID_393_" class="st1" d="M630.6,347L630.6,347l-0.3-0.1l-0.2-0.1l-1.7-1"/>
			<path id="XMLID_392_" class="st1" d="M628.5,343.3v0.5"/>
			<path id="XMLID_391_" class="st1" d="M629.3,338.6l0.9-0.5"/>
			<path id="XMLID_390_" class="st1" d="M629.5,338.7l3.8,2.2"/>
			<path id="XMLID_389_" class="st1" d="M634,340.3l-3.8-2.2"/>
			<path id="XMLID_388_" class="st1" d="M629.5,325.4v11.6l-0.1,0.2l-0.1,0.2l-0.2,0.1H629l-0.1,0h0l0,0l-0.2,0.1l0.1,0"/>
			<path id="XMLID_387_" class="st1" d="M630.8,327.4v-29.9"/>
			<path id="XMLID_386_" class="st1" d="M630,325.1l0.2-0.1l0,0l0,0l0.1,0.1h0.2l0.2-0.1l0-0.1l0.1-0.1"/>
			<path id="XMLID_385_" class="st1" d="M628.5,290.4v0.3"/>
			<path id="XMLID_384_" class="st1" d="M631.4,350.3l0.4-0.1l1.5-0.9"/>
			<path id="XMLID_383_" class="st1" d="M634,340.5v-9.6"/>
			<path id="XMLID_382_" class="st1" d="M633.3,329.7l-1.8-1"/>
			<path id="XMLID_381_" class="st1" d="M636.8,352.8v-64.7"/>
			<path id="XMLID_380_" class="st1" d="M640.1,286.2l4.1-2.4"/>
			<path id="XMLID_379_" class="st1" d="M640.9,349.7v-60.8"/>
			<path id="XMLID_378_" class="st1" d="M656.5,328.6v-22.2v3.1"/>
			<path id="XMLID_377_" class="st1" d="M656.5,306.4v-12.5v3.1"/>
			<path id="XMLID_376_" class="st1" d="M656.5,293.9v-1.1V293.9"/>
			<path id="XMLID_375_" class="st1" d="M640.9,349.7l-0.1,0.9l-0.4,0.7l-0.4,0.3"/>
			<path id="XMLID_374_" class="st1" d="M638.2,284.1l0.9,0.7l0.8,0.9"/>
			<path id="XMLID_373_" class="st1" d="M629.1,338.6l0.1-0.1l0.1,0l0.2,0.1"/>
			<path id="XMLID_372_" class="st1" d="M630.4,338.2l-0.2-0.1l-0.2,0l-0.1,0.1"/>
			<path id="XMLID_371_" class="st1" d="M606,266.1h0.8l0.9,0.3"/>
			<path id="XMLID_370_" class="st1" d="M633.3,340.9l0.2,0.1l0.2,0l0.1-0.1l0.1-0.2l0-0.2"/>
			<path id="XMLID_369_" class="st1" d="M627.3,339.6l-0.2,0.1H627l-0.2-0.1"/>
			<path id="XMLID_368_" class="st1" d="M639,284.7c1.1,1.1,1.9,2.8,1.9,4.1"/>
			<path id="XMLID_367_" class="st1" d="M639.8,285.6c0.7,1,1.1,2.2,1.1,3.2"/>
			<path id="XMLID_366_" class="st1" d="M628.2,286.7c1.7-0.5,4.1,1.2,5.4,3.9c1.2,2.5,1.1,5-0.3,5.8"/>
			<path id="XMLID_365_" class="st1" d="M628.2,339.6c1.7-0.5,4.1,1.2,5.4,3.9c1.2,2.5,1.1,4.9-0.3,5.7"/>
			<path id="XMLID_364_" class="st1" d="M604.6,273.1c1.7-0.5,4.1,1.2,5.4,3.9c1.2,2.5,1.1,5-0.3,5.8"/>
		</g>
	</g>
	<g id="Actor_3.0">
		<g>
			<path id="XMLID_363_" class="st1" d="M169.6,380c9.3,5.4,9.3,5.4,18.6,10.8c2,1,2,1,3.9,2c1.6,0.7,1.6,0.7,3.3,1.3
				c1.7,0.6,1.7,0.6,3.5,1.1c1.8,0.5,1.8,0.5,3.7,0.9c1.9,0.3,1.9,0.3,3.8,0.7c2,0.2,2,0.2,3.9,0.4c2,0.1,2,0.1,4,0.1
				c2-0.1,2-0.1,4-0.1c2-0.2,2-0.2,3.9-0.4c1.9-0.3,1.9-0.3,3.8-0.7c1.2-0.3,1.2-0.3,2.4-0.5"/>
			<path id="XMLID_362_" class="st1" d="M226.9,361.6c-1.2,0.3-1.2,0.3-2.4,0.6c-1.9,0.3-1.9,0.3-3.8,0.7c-2,0.2-2,0.2-3.9,0.4
				c-2,0.1-2,0.1-3.9,0.1c-2-0.1-2-0.1-4-0.1c-2-0.2-2-0.2-3.9-0.4c-1.9-0.3-1.9-0.3-3.8-0.7c-1.8-0.4-1.8-0.4-3.7-0.9
				c-1.7-0.5-1.7-0.5-3.5-1.1c-1.6-0.6-1.6-0.6-3.2-1.3c-2-1-2-1-3.9-2c-9.3-5.4-9.3-5.4-18.6-10.8"/>
			<path id="XMLID_361_" class="st1" d="M169.5,295.5c9.3,5.4,9.3,5.4,18.6,10.8c2,1,2,1,3.9,2c1.6,0.7,1.6,0.7,3.3,1.3
				c1.7,0.6,1.7,0.6,3.5,1.1c1.8,0.5,1.8,0.5,3.7,0.9c1.9,0.3,1.9,0.3,3.8,0.7c2,0.2,2,0.2,3.9,0.4c2,0.1,2,0.1,4,0.1
				c2-0.1,2-0.1,4-0.1c2-0.2,2-0.2,3.9-0.4c1.9-0.3,1.9-0.3,3.8-0.7c1.2-0.3,1.2-0.3,2.4-0.6"/>
			<path id="XMLID_360_" class="st1" d="M228.2,346.8c-0.6,0.3-0.6,0.3-1.2,0.5c-1.3,0.4-1.3,0.5-2.6,0.9c-1.4,0.3-1.4,0.3-2.7,0.7
				c-1.4,0.3-1.4,0.3-2.9,0.5c-1.5,0.2-1.5,0.2-2.9,0.3c-1.5,0.1-1.5,0.1-3,0.1c-1.5-0.1-1.5-0.1-3-0.1c-1.5-0.1-1.5-0.1-2.9-0.3
				c-1.4-0.2-1.4-0.2-2.9-0.5c-1.4-0.3-1.4-0.3-2.8-0.7c-1.3-0.4-1.3-0.4-2.6-0.9c-1.2-0.5-1.2-0.5-2.4-1c-1.1-0.6-1.1-0.6-2.2-1.1
				c-9.6-5.6-9.6-5.6-19.3-11.1"/>
			<path id="XMLID_359_" class="st1" d="M228.2,380.9c-1.2,0.4-1.2,0.4-2.5,0.8c-1.4,0.3-1.4,0.3-2.7,0.7c-1.4,0.3-1.4,0.3-2.9,0.5
				c-1.5,0.1-1.5,0.1-2.9,0.3c-1.5,0.1-1.5,0.1-2.9,0.1c-1.5,0-1.5,0-3-0.1c-1.5-0.1-1.5-0.1-2.9-0.3c-1.4-0.2-1.4-0.2-2.9-0.5
				c-1.4-0.3-1.4-0.3-2.7-0.7c-1.3-0.4-1.3-0.4-2.6-0.9c-1.2-0.5-1.2-0.5-2.4-1c-1.1-0.5-1.1-0.6-2.2-1.1
				c-9.6-5.6-9.6-5.6-19.3-11.1"/>
			<path id="XMLID_358_" class="st1" d="M242.5,288.8c-4.8,2.7-4.8,2.7-9.5,5.5c-1.1,0.6-1.1,0.6-2.2,1.1c-1.2,0.5-1.2,0.5-2.4,1
				c-1.3,0.4-1.3,0.4-2.6,0.8c-1.4,0.3-1.4,0.3-2.7,0.7c-1.4,0.2-1.4,0.2-2.9,0.5c-1.5,0.2-1.5,0.2-2.9,0.3
				c-1.5,0.1-1.5,0.1-2.9,0.1c-1.5,0-1.5,0-3-0.1c-1.5-0.1-1.5-0.1-2.9-0.3c-1.4-0.2-1.4-0.2-2.9-0.5c-1.4-0.3-1.4-0.3-2.7-0.7
				c-1.3-0.4-1.3-0.4-2.6-0.8c-1.2-0.5-1.2-0.5-2.4-1c-1.1-0.6-1.1-0.6-2.2-1.1c-9.6-5.6-9.6-5.6-19.3-11.1"/>
			<path id="XMLID_357_" class="st1" d="M228.4,352.8c0-18.4,0-18.4,0-36.8c0-0.4,0-0.4,0.1-0.9c0.1-0.5,0.1-0.5,0.2-0.9
				c0.2-0.4,0.2-0.4,0.4-0.8c0.3-0.3,0.3-0.3,0.5-0.6c0.3-0.2,0.3-0.2,0.7-0.4c0.3-0.1,0.3-0.1,0.5-0.1c0.1,0,0.1,0,0.3-0.1
				c0.4,0,0.4,0,0.9,0c0.5,0.1,0.5,0.1,0.9,0.2c0.5,0.2,0.5,0.2,1,0.5"/>
			<path id="XMLID_356_" class="st1" d="M233.8,312.9c36.9,21.3,36.9,21.3,73.7,42.6c0.4,0.3,0.4,0.3,0.8,0.5
				c0.5,0.4,0.5,0.4,0.9,0.8c0.5,0.5,0.5,0.5,0.9,1c0.4,0.5,0.4,0.5,0.8,1.1c0.3,0.6,0.3,0.6,0.7,1.2c0.3,0.6,0.3,0.6,0.6,1.2
				c0.2,0.6,0.2,0.6,0.4,1.2c0.1,0.6,0.1,0.6,0.3,1.2c0.1,0.6,0.1,0.6,0.1,1.1c0,45.8,0,45.8,0,91.5c0,0.5,0,0.5-0.1,0.9
				c-0.1,0.5-0.1,0.5-0.2,0.9c-0.2,0.4-0.2,0.4-0.4,0.8c-0.3,0.3-0.3,0.3-0.5,0.6c-0.3,0.2-0.3,0.2-0.7,0.4
				c-0.4,0.1-0.4,0.1-0.8,0.2c-0.5,0-0.5,0-0.9,0c-0.4-0.1-0.4-0.1-0.8-0.2c-0.5-0.2-0.5-0.2-1-0.5c-36.9-21.3-36.9-21.3-73.7-42.5
				c-0.4-0.3-0.4-0.3-0.8-0.5c-0.5-0.4-0.5-0.4-0.9-0.8c-0.5-0.5-0.5-0.5-0.9-0.9c-0.4-0.5-0.4-0.5-0.8-1.1
				c-0.3-0.6-0.3-0.6-0.7-1.2c-0.3-0.6-0.3-0.6-0.6-1.2c-0.2-0.6-0.2-0.6-0.4-1.2c-0.1-0.6-0.1-0.6-0.3-1.2c0-0.6,0-0.6-0.1-1.2
				c0-14.2,0-14.2,0-28.5"/>
			<path id="XMLID_355_" class="st1" d="M228.2,353.3c0,21.1,0-21.1,0-42.2c0-0.7,0-0.7,0.1-1.4c0.1-0.7,0.1-0.7,0.2-1.3
				c0.2-0.6,0.2-0.6,0.4-1.2c0.3-0.5,0.3-0.5,0.6-1c0.3-0.4,0.3-0.4,0.7-0.8c0.4-0.3,0.4-0.3,0.9-0.6c0.5-0.3,0.5-0.3,1.1-0.7"/>
			<path id="XMLID_354_" class="st1" d="M231,304.9c0.5-0.2,0.5-0.2,1-0.4c0.5-0.1,0.5-0.1,1.1-0.2c0.6,0,0.6,0,1.2,0
				c0.6,0.1,0.6,0.1,1.2,0.3c0.7,0.2,0.7,0.2,1.3,0.5c0.6,0.3,0.6,0.3,1.1,0.6"/>
			<path id="XMLID_353_" class="st1" d="M237.9,305.5c36.9,21.3,36.9,21.3,73.7,42.5c0.7,0.4,0.7,0.4,1.3,0.9c0.6,0.5,0.6,0.5,1.2,1
				c0.6,0.6,0.6,0.6,1.2,1.2c0.6,0.6,0.6,0.6,1.1,1.3c0.5,0.7,0.5,0.7,1,1.4c0.5,0.8,0.5,0.8,1,1.6c0.4,0.8,0.4,0.8,0.9,1.6
				c0.4,0.8,0.4,0.8,0.7,1.7c0.3,0.9,0.3,0.9,0.6,1.7c0.2,0.8,0.2,0.8,0.4,1.6c0.1,0.8,0.1,0.8,0.3,1.6c0.1,0.7,0.1,0.7,0.1,1.3
				c0,4.4,0,4.4,0,8.8"/>
			<path id="XMLID_352_" class="st1" d="M321.4,373.7c0.5-1.1,0.5-1.1,1-2.2c0.3-0.9,0.3-0.9,0.7-1.7c0.2-0.7,0.2-0.7,0.4-1.3
				c0.1-0.5,0.1-0.5,0.2-1.1c0-0.3,0-0.3,0-0.6"/>
			<path id="XMLID_351_" class="st1" d="M323.6,366.8c0,0.5,0,0.5,0.1,1c0.1,0.5,0.1,0.5,0.2,1c0.2,0.6,0.2,0.6,0.4,1.1
				c0.3,0.5,0.3,0.5,0.5,1c0.3,0.5,0.3,0.5,0.7,1c0.4,0.4,0.4,0.4,0.8,0.9c0.4,0.3,0.4,0.3,0.8,0.7c0.3,0.3,0.3,0.3,0.7,0.5"/>
			<path id="XMLID_350_" class="st1" d="M237.9,419.4c36.9,21.3,36.9,21.3,73.7,42.5c0.6,0.3,0.6,0.3,1.1,0.6
				c0.6,0.3,0.6,0.3,1.3,0.5c0.7,0.1,0.7,0.1,1.5,0.3c0.5,0,0.5,0,0.9,0c0.5-0.1,0.5-0.1,1.1-0.2c0.5-0.2,0.5-0.2,0.9-0.4
				c0.4-0.3,0.5-0.3,0.9-0.6c0.4-0.4,0.4-0.4,0.7-0.8c0.3-0.5,0.3-0.5,0.6-1c0.2-0.6,0.2-0.6,0.4-1.1c0.1-0.5,0.1-0.5,0.2-1
				c0.1-0.9,0.1-0.9,0.2-1.8c0-4.4,0-13.2,0-8.8"/>
			<path id="XMLID_349_" class="st1" d="M321.4,447.6c0.3,0.3,0.3,0.3,0.5,0.6c0.4,0.5,0.4,0.5,0.8,1.1c0.3,0.5,0.3,0.5,0.5,1
				c0.1,0.4,0.1,0.4,0.3,0.8c0.1,0.5,0.1,0.5,0.1,1"/>
			<path id="XMLID_348_" class="st1" d="M323.6,452c0-0.4,0-0.4,0.1-0.8c0.1-0.4,0.1-0.4,0.2-0.8c0.2-0.3,0.2-0.3,0.4-0.7"/>
			<path id="XMLID_347_" class="st1" d="M324.8,449.3c0.3-0.1,0.3-0.1,0.6-0.2c0.4-0.1,0.4-0.1,0.8-0.1c0.4,0.1,0.4,0.1,0.8,0.2
				c0.4,0.2,0.4,0.2,0.8,0.4c3.6,2.1,3.6,2.1,7.3,4.2"/>
			<path id="XMLID_346_" class="st1" d="M246.6,361.3c0-0.4,0-0.4,0.1-0.8c-0.1-0.4-0.1-0.4-0.2-0.9c-0.2-0.4-0.2-0.4-0.4-0.9
				c-0.3-0.4-0.3-0.4-0.5-0.8c-0.3-0.3-0.3-0.3-0.6-0.7c-0.3-0.2-0.3-0.2-0.7-0.5c-0.3-0.1-0.3-0.1-0.7-0.2"/>
			<path id="XMLID_345_" class="st1" d="M242.6,278.7c0.2-0.3,0.2-0.3,0.4-0.6c0.6-0.5,0.6-0.5,1.2-1c0.7-0.4,0.7-0.4,1.4-0.7
				c0.8-0.2,0.8-0.2,1.6-0.3c0.9,0.1,0.9,0.1,1.7,0.1c0.5,0.1,0.5,0.1,1,0.3c0.4,0.1,0.4,0.1,0.8,0.3c0.9,0.4,0.9,0.4,1.9,0.9
				c5.8,3.3,5.8,3.3,11.6,6.7"/>
			<path id="XMLID_344_" class="st1" d="M255.5,351.4c0.1,0.4,0.1,0.4,0.2,0.7c0.2,0.4,0.2,0.4,0.5,0.9c0.3,0.4,0.3,0.4,0.6,0.8
				c0.3,0.3,0.3,0.3,0.7,0.6c0.3,0.2,0.3,0.2,0.7,0.3"/>
			<path id="XMLID_343_" class="st1" d="M260,289.9c0.3-0.1,0.3-0.1,0.6-0.2c0.3-0.3,0.3-0.3,0.7-0.5c0.1-0.2,0.2-0.2,0.3-0.3
				c0.3-0.4,0.3-0.4,0.5-0.7"/>
			<path id="XMLID_342_" class="st1" d="M347.4,326.8c-3.4,5.8-3.4,5.8-6.8,11.5c-0.3,0.6-0.3,0.6-0.5,1.2c-0.1,0.5-0.1,0.5-0.1,1"
				/>
			<path id="XMLID_341_" class="st1" d="M340.2,340.4c-0.3-1.5-0.3-1.5-0.7-2.9c-0.3-0.7-0.3-0.7-0.7-1.4c-0.5-0.6-0.5-0.6-0.9-1.2"
				/>
			<path id="XMLID_340_" class="st1" d="M286.8,234.7c0.5-0.3,0.5-0.3,1-0.5c0.5-0.2,0.5-0.2,1-0.4c0.5-0.1,0.5-0.1,1-0.2
				c0.6,0,0.6,0,1.2,0c0.6,0.1,0.6,0.1,1.2,0.2c0.3,0.1,0.3,0.1,0.6,0.2c0.3,0.1,0.3,0.1,0.6,0.2c0.6,0.3,0.7,0.3,1.3,0.6"/>
			<path id="XMLID_339_" class="st1" d="M317.4,446.5c0.5-0.2,0.5-0.3,0.9-0.5c0.5-0.1,0.5-0.1,1-0.2c0.5,0,0.5,0,1.1,0
				c0.6,0.1,0.6,0.1,1.1,0.2c0.6,0.2,0.6,0.2,1.2,0.5c0.4,0.2,0.4,0.2,0.8,0.4"/>
			<path id="XMLID_338_" class="st1" d="M323.6,447c9.7,5.6,9.7,5.6,19.4,11.2c0.5,0.3,0.5,0.3,1,0.5c0.5,0.1,0.5,0.1,1.1,0.3
				c0.3,0,0.3,0,0.7,0c0.4-0.1,0.4-0.1,0.8-0.2c0.3-0.2,0.3-0.2,0.7-0.4c0.3-0.3,0.3-0.3,0.5-0.6c0.2-0.4,0.2-0.4,0.4-0.8
				c0.1-0.5,0.1-0.5,0.2-0.9c0-0.5,0-0.5,0.1-0.9"/>
			<path id="XMLID_337_" class="st1" d="M348.4,455.1c0-26.6,0-26.6,0-53.2c0-0.6,0-0.6-0.1-1.1c-0.1-0.6-0.1-0.6-0.3-1.2
				c-0.2-0.6-0.2-0.6-0.4-1.2c-0.3-0.6-0.3-0.6-0.6-1.2c-0.3-0.6-0.3-0.6-0.7-1.2c-0.4-0.5-0.4-0.5-0.8-1.1
				c-0.3-0.3-0.3-0.3-0.5-0.6c-0.2-0.2-0.2-0.2-0.3-0.3c-0.5-0.4-0.5-0.4-0.9-0.8c-0.4-0.3-0.4-0.3-0.8-0.5
				c-9.7-5.6-9.7-5.6-19.4-11.2c-0.6-0.4-0.6-0.4-1.2-0.8c-0.6-0.5-0.6-0.5-1.2-1c-0.6-0.5-0.6-0.5-1.1-1.1
				c-0.4-0.4-0.4-0.4-0.7-0.9c-0.5-0.7-0.5-0.7-1-1.4c-0.5-0.8-0.5-0.8-1-1.6"/>
			<path id="XMLID_336_" class="st1" d="M361.5,358.3c-4,2.3-4,2.3-7.9,4.6c-1.4,0.9-1.4,0.9-2.7,1.8c-1.2,1-1.2,1-2.4,2
				c-1,1-1,1-2,2.1c-0.5,0.5-0.5,0.5-0.9,1.1c-0.8,1.1-0.9,1.1-1.6,2.3c-0.6,1.2-0.6,1.2-1.2,2.4c-0.3,0.7-0.3,0.7-0.5,1.4
				c-0.4,1.2-0.4,1.2-0.7,2.4c-0.1,1.2-0.1,1.2-0.3,2.5c0,0.8,0,0.8,0,1.6c0.1,1.2,0.1,1.2,0.3,2.5c0.3,1.2,0.3,1.2,0.7,2.5
				c0.3,0.7,0.3,0.7,0.5,1.4c0.6,1.2,0.6,1.2,1.2,2.4c0.8,1.1,0.8,1.1,1.6,2.2c0.4,0.6,0.4,0.6,0.9,1.1c1,1,1,1,2,2.1
				c1.2,1,1.2,1,2.4,2c1.4,0.9,1.4,0.9,2.7,1.8c1.7,1,1.7,1,3.3,1.9"/>
			<path id="XMLID_335_" class="st1" d="M356.9,402.1c0,26.5,0,26.5,0,53.1c0,0.7,0,0.7-0.1,1.4c-0.1,0.7-0.1,0.7-0.3,1.3
				c-0.2,0.6-0.2,0.6-0.4,1.2c-0.3,0.5-0.3,0.5-0.6,1c-0.3,0.4-0.3,0.4-0.7,0.8c-0.4,0.3-0.4,0.3-0.9,0.7c-0.5,0.2-0.5,0.2-0.9,0.4
				c-0.5,0.1-0.5,0.1-1.1,0.2c-0.6,0-0.6,0-1.2,0c-0.6-0.1-0.6-0.1-1.2-0.3c-0.7-0.2-0.7-0.2-1.3-0.5c-0.6-0.3-0.6-0.3-1.1-0.6
				c-6.1-3.5-6.1-3.5-12.2-7"/>
			<path id="XMLID_334_" class="st1" d="M344.3,459.1c-0.2,0.3-0.2,0.3-0.4,0.6c-0.6,1.2-0.6,1.2-1.2,2.4c-0.3,0.7-0.3,0.7-0.5,1.4
				c-0.4,1.2-0.4,1.2-0.7,2.4c-0.1,1.2-0.1,1.2-0.3,2.5c0,0.8,0,0.8,0,1.5c0.1,1.2,0.1,1.2,0.3,2.5c0.3,1.2,0.3,1.2,0.7,2.5
				c0.3,0.7,0.3,0.7,0.5,1.4c0.6,1.2,0.6,1.2,1.2,2.4c0.8,1.1,0.8,1.1,1.6,2.3c0.4,0.5,0.4,0.5,0.9,1.1c1,1,1,1,2,2.1
				c1.2,1,1.2,1,2.4,1.9c1.4,0.9,1.4,0.9,2.7,1.8c9.7,5.6,9.7,5.6,19.4,11.1"/>
			<path id="XMLID_333_" class="st1" d="M370.7,375.5c0.5,0.5,0.5,0.5,1,1c1,1.3,1,1.3,2,2.6c0.5,0.7,0.5,0.7,0.9,1.4"/>
			<path id="XMLID_332_" class="st1" d="M358.1,376.7c-0.7,0.7-0.7,0.7-1.3,1.4c-0.4,0.6-0.4,0.6-0.8,1.2c-0.2,0.3-0.2,0.3-0.3,0.6
				c-0.1,0.5-0.1,0.5-0.3,1"/>
			<path id="XMLID_331_" class="st1" d="M380.3,487.1c-9.8-5.6-9.8-5.6-19.5-11.3c-1-0.6-1-0.6-2-1.3c-1.1-0.9-1.1-0.9-2.2-1.8"/>
			<path id="XMLID_330_" class="st1" d="M370.4,457.1c-4.8,2.8-4.8,2.8-9.6,5.6c-1,0.6-1,0.6-2,1.3c-0.3,0.3-0.3,0.3-0.7,0.6"/>
			<path id="XMLID_329_" class="st1" d="M380.3,399.4c-9.8-5.6-9.8-5.6-19.5-11.3c-1-0.6-1-0.6-2-1.3c-1.1-0.9-1.1-0.9-2.2-1.8"/>
			<path id="XMLID_328_" class="st1" d="M370.5,369.3c-4.8,2.8-4.8,2.8-9.7,5.6c-1,0.7-1,0.7-2,1.3c-0.3,0.3-0.3,0.3-0.7,0.6"/>
			<path id="XMLID_327_" class="st1" d="M385.1,374.1c0-3.4,0-3.4,0-6.8c-0.1-1.2-0.1-1.2-0.3-2.3c-0.3-1.2-0.3-1.2-0.6-2.4
				c-0.5-1.2-0.5-1.2-0.9-2.4c-0.5-1.2-0.5-1.2-1.1-2.4c-0.7-1.2-0.7-1.2-1.4-2.3c-0.8-1.1-0.8-1.1-1.6-2.1c-0.9-1-0.9-1-1.7-1.9
				c-0.9-0.8-0.9-0.8-1.8-1.6c-0.9-0.7-0.9-0.7-1.9-1.3c-0.5-0.3-0.5-0.3-1.1-0.6c-0.4-0.2-0.4-0.2-0.8-0.4
				c-0.6-0.2-0.6-0.2-1.1-0.4c-0.9-0.2-0.9-0.2-1.8-0.3c-0.9,0-0.9,0-1.7,0.1c-0.3,0.1-0.3,0.1-0.7,0.2c-0.4,0.1-0.4,0.1-0.9,0.3
				c-0.7,0.4-0.7,0.4-1.3,0.9c-0.5,0.5-0.5,0.5-0.9,1.1"/>
			<path id="XMLID_326_" class="st1" d="M385.1,444.9c0,2.3,0,3.3,0,6.5c0,0.6,0,0.6-0.1,1.2c-0.1,0.5-0.1,0.5-0.1,0.9
				c-0.2,0.9-0.2,0.9-0.5,1.8c-0.4,0.8-0.4,0.8-0.8,1.6c-0.5,0.7-0.5,0.7-1,1.2c-0.6,0.5-0.6,0.5-1.3,0.9c-0.7,0.3-0.8,0.3-1.5,0.5
				c-0.3,0-0.3,0-0.6,0"/>
			<path id="XMLID_325_" class="st1" d="M440,322c0.4,0.8,0.4,0.8,0.8,1.6c0.4,0.8,0.4,0.8,0.7,1.6c0.3,0.8,0.3,0.8,0.5,1.6
				c0.2,0.8,0.2,0.8,0.4,1.6c0.1,0.8,0.1,0.8,0.2,1.6c0,0.8,0,0.8,0.1,1.5"/>
			<path id="XMLID_324_" class="st1" d="M395.8,468.8c22.1-13.6,22.1-13.6,44.1-27.2c0.4-0.3,0.4-0.3,0.9-0.6
				c0.4-0.4,0.4-0.4,0.7-0.8c0.3-0.5,0.3-0.5,0.6-1c0.2-0.6,0.2-0.6,0.4-1.2c0.1-0.7,0.1-0.7,0.3-1.4c0-0.6,0-0.6,0.1-1.2
				c0-51.8,0-155.5,0-103.6"/>
			<path id="XMLID_323_" class="st1" d="M440,322c-0.5-0.8-0.5-0.8-1-1.5c-0.3-0.4-0.3-0.4-0.5-0.7c-0.3-0.4-0.3-0.4-0.5-0.7
				c-0.6-0.7-0.6-0.7-1.2-1.4c-0.6-0.6-0.6-0.6-1.2-1.2c-0.7-0.5-0.7-0.5-1.3-1c-0.6-0.4-0.6-0.4-1.1-0.7"/>
			<path id="XMLID_322_" class="st1" d="M434.7,315.7c1.3,0.7,1.3,0.7,2.6,1.5c0.5,0.3,0.5,0.3,1,0.6c0.5,0.4,0.5,0.4,0.9,0.9
				c0.6,0.7,0.6,0.7,1.2,1.3c0.3,0.4,0.3,0.4,0.5,0.7c0.3,0.6,0.3,0.6,0.7,1.2c0.3,0.6,0.3,0.6,0.5,1.2c0.1,0.4,0.1,0.4,0.3,0.9
				c0.2,0.8,0.2,0.8,0.4,1.6c0.1,0.5,0.1,0.5,0.1,1c0,2.4,0,2.5,0,4.9"/>
			<path id="XMLID_321_" class="st1" d="M287.7,385.8c-0.1-0.5-0.1-0.5-0.3-0.9c0-0.4,0-0.4,0-0.8c0-0.3,0-0.3,0.1-0.6"/>
			<path id="XMLID_320_" class="st1" d="M290.5,383.8c0.3,0.3,0.3,0.3,0.5,0.7c0.2,0.4,0.2,0.4,0.4,0.9c0.1,0.3,0.1,0.3,0.2,0.6"/>
			<path id="XMLID_319_" class="st1" d="M279.5,371.6c0.3,0.3,0.3,0.3,0.7,0.7c0.3,0.3,0.4,0.3,0.7,0.5c0.3,0.1,0.3,0.1,0.6,0.2"/>
			<path id="XMLID_318_" class="st1" d="M282.6,370.1c-0.2-0.4-0.2-0.4-0.3-0.8c-0.3-0.4-0.3-0.4-0.5-0.8c-0.2-0.2-0.2-0.2-0.4-0.5"
				/>
			<path id="XMLID_317_" class="st1" d="M375,416.6c0.4-0.3,0.4-0.3,0.8-0.6c0.4-0.4,0.4-0.4,0.7-0.8c0.2-0.3,0.2-0.3,0.4-0.7"/>
			<path id="XMLID_316_" class="st1" d="M375,439.6c0.4-0.3,0.4-0.3,0.8-0.6c0.4-0.4,0.4-0.4,0.7-0.8c0.2-0.3,0.2-0.3,0.5-0.7"/>
			<path id="XMLID_315_" class="st1" d="M377,426c-0.2,0.4-0.2,0.4-0.5,0.7c-0.3,0.4-0.3,0.4-0.7,0.8c-0.4,0.3-0.4,0.3-0.8,0.6"/>
			<path id="XMLID_314_" class="st1" d="M375,393.6c0.4-0.3,0.4-0.3,0.8-0.6c0.4-0.4,0.4-0.4,0.7-0.8c0.3-0.4,0.3-0.4,0.5-0.8"/>
			<path id="XMLID_313_" class="st1" d="M270.4,366.2c-0.3-0.2-0.3-0.2-0.7-0.3c-1.4-0.5-1.4-0.6-2.9-1.1c-1.3-0.2-1.3-0.2-2.6-0.4"
				/>
			<path id="XMLID_312_" class="st1" d="M287.8,396.3c0,0.4,0,0.4-0.1,0.8c-0.3,1.5-0.2,1.5-0.5,3.1c-0.5,1.2-0.5,1.2-1,2.5"/>
			<path id="XMLID_311_" class="st1" d="M228.4,407.5l-0.1-4.9v-24.3"/>
			<path id="XMLID_310_" class="st1" d="M232.1,304.2l-1.1,0.7"/>
			<path id="XMLID_309_" class="st1" d="M327.8,374l13.5,7.8"/>
			<path id="XMLID_308_" class="st1" d="M231,367.5l4.2-2.4"/>
			<path id="XMLID_307_" class="st1" d="M232.1,304.2l18.7-11.5l-3.2,2"/>
			<path id="XMLID_306_" class="st1" d="M231.2,287.7l-0.5-0.3v1.8l0.2,0.1"/>
			<path id="XMLID_305_" class="st1" d="M230.7,287.4l2.2-3.9v-14.9"/>
			<path id="XMLID_304_" class="st1" d="M233.8,416.9l4.1,2.6"/>
			<path id="XMLID_303_" class="st1" d="M324.2,449.8l0.5-0.5"/>
			<path id="XMLID_302_" class="st1" d="M335,453.8l-16.6,8.9"/>
			<path id="XMLID_301_" class="st1" d="M232.2,344.8l2.5-3.5"/>
			<path id="XMLID_300_" class="st1" d="M232.9,283.5l0.7,0.4"/>
			<path id="XMLID_299_" class="st1" d="M234.1,283.7l8.6-4.9"/>
			<path id="XMLID_298_" class="st1" d="M235.8,262.4l5.6-3.2"/>
			<path id="XMLID_297_" class="st1" d="M239.7,396.8L239.7,396.8"/>
			<path id="XMLID_296_" class="st1" d="M242.6,369.4l-4.1,2.4"/>
			<path id="XMLID_295_" class="st1" d="M239.6,348L239.6,348"/>
			<path id="XMLID_294_" class="st1" d="M243.5,392.7L243.5,392.7"/>
			<path id="XMLID_293_" class="st1" d="M243.6,381.1l0-0.2"/>
			<path id="XMLID_292_" class="st1" d="M243.6,368.3l0,0.1"/>
			<path id="XMLID_291_" class="st1" d="M245.9,362.7l0.5-0.8l0.3-0.6"/>
			<path id="XMLID_290_" class="st1" d="M243.6,356.6l-0.6,0.1l-0.5,0.4l-0.2,0.3"/>
			<path id="XMLID_289_" class="st1" d="M241.9,284.4l11.1,6.4l0.4,0.2l10.6-6.6"/>
			<path id="XMLID_288_" class="st1" d="M242.6,263.1l25.5,14.7"/>
			<path id="XMLID_287_" class="st1" d="M242.2,258.8l44.6-24.1l-1.7,0.9"/>
			<path id="XMLID_286_" class="st1" d="M245.9,407.6L245.9,407.6"/>
			<path id="XMLID_285_" class="st1" d="M246.4,390.8l-0.5-1.4"/>
			<path id="XMLID_284_" class="st1" d="M246,376.2l4.1-2.4"/>
			<path id="XMLID_283_" class="st1" d="M245.9,344.4L245.9,344.4"/>
			<path id="XMLID_282_" class="st1" d="M250,342.1v-0.3"/>
			<path id="XMLID_281_" class="st1" d="M248.2,259.9l30.5,17.6l-8.3,4.8l-3.6-2.1l1.4-0.8"/>
			<path id="XMLID_280_" class="st1" d="M251.4,406.3L251.4,406.3"/>
			<path id="XMLID_279_" class="st1" d="M251.5,352.1L251.5,352.1"/>
			<path id="XMLID_278_" class="st1" d="M251.8,292.1l-1,0.7l1.8-1.1"/>
			<path id="XMLID_277_" class="st1" d="M253.5,291h0.4"/>
			<path id="XMLID_276_" class="st1" d="M254.6,404.9l0.9,1.1"/>
			<path id="XMLID_275_" class="st1" d="M254.6,357.2h1"/>
			<path id="XMLID_274_" class="st1" d="M258.1,354.7l0.7,0.1h1"/>
			<path id="XMLID_273_" class="st1" d="M337.9,334.8l-1.5-1l-74.6-43l-2.3-0.8l0.4,0"/>
			<path id="XMLID_272_" class="st1" d="M262.1,288.1l4.7-7.9"/>
			<path id="XMLID_271_" class="st1" d="M261.6,412.2l-0.1-0.1"/>
			<path id="XMLID_270_" class="st1" d="M263.4,362.2L262,363"/>
			<path id="XMLID_269_" class="st1" d="M261.5,357.9l0.1,0.1"/>
			<path id="XMLID_268_" class="st1" d="M265.6,355.5l0.1,0.1"/>
			<path id="XMLID_267_" class="st1" d="M264.5,292.2l5.9-10"/>
			<path id="XMLID_266_" class="st1" d="M267,429.8l4.2-2.4"/>
			<path id="XMLID_265_" class="st1" d="M267,421.1l4.2-2.4"/>
			<path id="XMLID_264_" class="st1" d="M267,412.5l4.2-2.4"/>
			<path id="XMLID_263_" class="st1" d="M271.1,366.7l-4,2.3"/>
			<path id="XMLID_262_" class="st1" d="M271.2,358l-4.1,2.4"/>
			<path id="XMLID_261_" class="st1" d="M268.9,356.4v0.4"/>
			<path id="XMLID_260_" class="st1" d="M267,351.7l4.2-2.4"/>
			<path id="XMLID_259_" class="st1" d="M268.9,348.1v-0.4"/>
			<path id="XMLID_258_" class="st1" d="M268.9,294.4v0.4"/>
			<path id="XMLID_257_" class="st1" d="M268.6,294.6l8.7-5.2v-6.3l1.4-0.8v-4.8l73.5,42.4l-8.3,4.8l3.6,2.1"/>
			<path id="XMLID_256_" class="st1" d="M337.8,334.9l6-10.2"/>
			<path id="XMLID_255_" class="st1" d="M272.6,418.5l-0.1-0.1"/>
			<path id="XMLID_254_" class="st1" d="M272.5,364.2l0.1,0.1"/>
			<path id="XMLID_253_" class="st1" d="M278.5,419.3h1"/>
			<path id="XMLID_252_" class="st1" d="M278.5,370.5l1,1.1"/>
			<path id="XMLID_251_" class="st1" d="M281.5,420.3l-0.2-0.1"/>
			<path id="XMLID_250_" class="st1" d="M281.4,372.9l0.1,0"/>
			<path id="XMLID_249_" class="st1" d="M282.6,424.4L282.6,424.4"/>
			<path id="XMLID_248_" class="st1" d="M283.7,397.8l4-2.3"/>
			<path id="XMLID_247_" class="st1" d="M282.7,370.2L282.7,370.2"/>
			<path id="XMLID_246_" class="st1" d="M288.2,432L288.2,432"/>
			<path id="XMLID_245_" class="st1" d="M287.7,414.5l0.5-0.8"/>
			<path id="XMLID_244_" class="st1" d="M288.1,387.1l-0.5-1.3"/>
			<path id="XMLID_243_" class="st1" d="M287.5,383.5L287.5,383.5"/>
			<path id="XMLID_242_" class="st1" d="M288.2,368.8L288.2,368.8"/>
			<path id="XMLID_241_" class="st1" d="M287.8,234.2l-1,0.5"/>
			<path id="XMLID_240_" class="st1" d="M294.7,234.9l137,79.1l-1.1-0.6"/>
			<path id="XMLID_239_" class="st1" d="M288.7,439.9l4.3-0.4"/>
			<path id="XMLID_238_" class="st1" d="M290.5,419.8L290.5,419.8"/>
			<path id="XMLID_237_" class="st1" d="M290.5,408.2V408"/>
			<path id="XMLID_236_" class="st1" d="M291.2,402.1l4.1-2.4"/>
			<path id="XMLID_235_" class="st1" d="M290.5,395.5v-0.2"/>
			<path id="XMLID_234_" class="st1" d="M290.5,383.8L290.5,383.8"/>
			<path id="XMLID_233_" class="st1" d="M294.5,428.5L294.5,428.5"/>
			<path id="XMLID_232_" class="st1" d="M294.1,414.4l-2.5-1.5"/>
			<path id="XMLID_231_" class="st1" d="M292.3,411.3l-0.6,1"/>
			<path id="XMLID_230_" class="st1" d="M294.4,379.6L294.4,379.6"/>
			<path id="XMLID_229_" class="st1" d="M297.4,421.3l3,1.8"/>
			<path id="XMLID_228_" class="st1" d="M294.7,405.7l0,0.1"/>
			<path id="XMLID_227_" class="st1" d="M298.5,426l0.3,0.2"/>
			<path id="XMLID_226_" class="st1" d="M299.8,417.7l2,1.2"/>
			<path id="XMLID_225_" class="st1" d="M298.6,406.5l4.2-2.4"/>
			<path id="XMLID_224_" class="st1" d="M321.4,447.6l-4-1"/>
			<path id="XMLID_223_" class="st1" d="M317.4,374.6l4-1"/>
			<path id="XMLID_222_" class="st1" d="M317.4,374.6v71.9"/>
			<path id="XMLID_221_" class="st1" d="M318.5,355.3l32.2-18.6"/>
			<path id="XMLID_220_" class="st1" d="M325.4,443.1l0.7-0.4"/>
			<path id="XMLID_219_" class="st1" d="M324.6,440.4v-51.2"/>
			<path id="XMLID_218_" class="st1" d="M325.3,440v-51.2"/>
			<path id="XMLID_217_" class="st1" d="M324.8,370.9l30.1-17.3"/>
			<path id="XMLID_216_" class="st1" d="M327.4,445.2l11.1,6.4"/>
			<path id="XMLID_215_" class="st1" d="M339.2,451.2l-11.1-6.4"/>
			<path id="XMLID_214_" class="st1" d="M338.5,394l-11.1-6.4"/>
			<path id="XMLID_213_" class="st1" d="M340.4,451.7l0.3-0.2"/>
			<path id="XMLID_212_" class="st1" d="M341.2,450v-51.2"/>
			<path id="XMLID_211_" class="st1" d="M340.3,339.3l9.9-6.1"/>
			<path id="XMLID_210_" class="st1" d="M347.4,326.8l1.4-0.8"/>
			<path id="XMLID_209_" class="st1" d="M350.2,333.2v-7.6"/>
			<path id="XMLID_208_" class="st1" d="M352,363.7l0.1-0.1"/>
			<path id="XMLID_207_" class="st1" d="M351,363.7l0.7,0.4"/>
			<path id="XMLID_206_" class="st1" d="M352.4,361v1.8"/>
			<path id="XMLID_205_" class="st1" d="M382.6,343.9l-31-17.9"/>
			<path id="XMLID_204_" class="st1" d="M352.1,319.9l36,20.8l2.5,1.8"/>
			<path id="XMLID_203_" class="st1" d="M355.7,471.1l1,1.4l1.6,1.7"/>
			<path id="XMLID_202_" class="st1" d="M355.3,468.6l0-0.1l-0.1,0.7l0.1,0.6"/>
			<path id="XMLID_201_" class="st1" d="M355.2,469.2l0.5,1.6l0.3,0.6"/>
			<path id="XMLID_200_" class="st1" d="M355.4,467.7l-0.1,0.8l0.3-0.9l0.8-1.5"/>
			<path id="XMLID_199_" class="st1" d="M358.1,464.5l-1.3,1.4l-0.8,1.2"/>
			<path id="XMLID_198_" class="st1" d="M354,461.5l21-11.3l-0.3,0.4l-0.1,0.5v6"/>
			<path id="XMLID_197_" class="st1" d="M358.4,386.6l-1.6-1.7l-1-1.4"/>
			<path id="XMLID_196_" class="st1" d="M356.1,384l0.3,0l1-0.4l13.3-8.1"/>
			<path id="XMLID_195_" class="st1" d="M374.6,380.5l-13.5,7.8"/>
			<path id="XMLID_194_" class="st1" d="M355.3,381.8l0.4,1.3l0.3,0.6"/>
			<path id="XMLID_193_" class="st1" d="M355.4,379.9l-0.1,1.6l0.1,0.6"/>
			<path id="XMLID_192_" class="st1" d="M355.9,379.3l0.5-0.9"/>
			<path id="XMLID_191_" class="st1" d="M355.2,354.2l9.6-5.6"/>
			<path id="XMLID_190_" class="st1" d="M354.9,349.2V346"/>
			<path id="XMLID_189_" class="st1" d="M375,439.6l-15.4,8.6"/>
			<path id="XMLID_188_" class="st1" d="M359.7,436.7l15.4-8.6"/>
			<path id="XMLID_187_" class="st1" d="M359.7,425.2l15.4-8.6"/>
			<path id="XMLID_186_" class="st1" d="M368.4,408.8l-8.8,4.9"/>
			<path id="XMLID_185_" class="st1" d="M372.9,411.3l-16-9.2"/>
			<path id="XMLID_184_" class="st1" d="M361.4,452l17.7-9.9"/>
			<path id="XMLID_183_" class="st1" d="M379.2,436.3l-17.3,9.7"/>
			<path id="XMLID_182_" class="st1" d="M361.6,440.3l17.5-9.8"/>
			<path id="XMLID_181_" class="st1" d="M361.6,434.6l17.3-9.7"/>
			<path id="XMLID_180_" class="st1" d="M359.9,436.2l11.1-6.2l-0.7-0.4"/>
			<path id="XMLID_179_" class="st1" d="M361.6,428.8l17.5-9.8"/>
			<path id="XMLID_178_" class="st1" d="M361.8,423l17.5-9.8"/>
			<path id="XMLID_177_" class="st1" d="M361.6,417.3l11-6.1"/>
			<path id="XMLID_176_" class="st1" d="M361.6,411.5l5.9-3.3"/>
			<path id="XMLID_175_" class="st1" d="M361.6,405.8l0.8-0.5"/>
			<path id="XMLID_174_" class="st1" d="M364.5,275.2l-0.2-0.1"/>
			<path id="XMLID_173_" class="st1" d="M382.6,471.9l-12.5-7.2"/>
			<path id="XMLID_172_" class="st1" d="M371.8,463.9l8.4-4.8l0.5-0.2"/>
			<path id="XMLID_171_" class="st1" d="M370.7,454.8v-2.4"/>
			<path id="XMLID_170_" class="st1" d="M371,430.4v-0.3"/>
			<path id="XMLID_169_" class="st1" d="M371.7,394.4l7.6-4.2"/>
			<path id="XMLID_168_" class="st1" d="M370.7,375.5v-3.9"/>
			<path id="XMLID_167_" class="st1" d="M385.1,444.9l-10.4,5.6"/>
			<path id="XMLID_166_" class="st1" d="M372.6,394.9l2.4-1.4"/>
			<path id="XMLID_165_" class="st1" d="M374.6,380.5l0.3,0.5l-0.2-0.6l10.4-6.4"/>
			<path id="XMLID_164_" class="st1" d="M374.7,380.5l-0.1-0.5v-6.1"/>
			<path id="XMLID_163_" class="st1" d="M379.1,396l-2.4,1.3"/>
			<path id="XMLID_162_" class="st1" d="M395,469.4l-5.5,3.2"/>
			<path id="XMLID_161_" class="st1" d="M388.2,438.8v-54.4"/>
			<path id="XMLID_160_" class="st1" d="M389.5,351.1L440,322"/>
			<path id="XMLID_159_" class="st1" d="M392.3,466.3V360.7"/>
			<path id="XMLID_158_" class="st1" d="M397.9,463.1V357.5"/>
			<path id="XMLID_157_" class="st1" d="M433,314.8l1.7,1l-3-1.8L433,314.8"/>
			<path id="XMLID_156_" class="st1" d="M437.9,442.9l2-1.2"/>
			<path id="XMLID_155_" class="st1" d="M286.1,388.8l-0.4-0.9l-0.5-0.8"/>
			<path id="XMLID_154_" class="st1" d="M242.7,391.3l0.3,0.7l0.5,0.7"/>
			<path id="XMLID_153_" class="st1" d="M281.4,425l0.4,0l0.5-0.2l0.3-0.4"/>
			<path id="XMLID_152_" class="st1" d="M281.4,420.1l-0.6-0.5l-0.7-0.3l-0.6-0.1"/>
			<path id="XMLID_151_" class="st1" d="M286.1,409.6l-0.4,0.5l-0.5,0.2"/>
			<path id="XMLID_150_" class="st1" d="M251.4,406.3l0.3,0.8l0.4,0.7"/>
			<path id="XMLID_149_" class="st1" d="M248,387.7l0.4,0.9l0.5,0.8"/>
			<path id="XMLID_148_" class="st1" d="M248.9,366.2l-0.5,0.2l-0.4,0.4"/>
			<path id="XMLID_147_" class="st1" d="M276.1,371.5l0.6,0.8l0.4,0.9"/>
			<path id="XMLID_146_" class="st1" d="M258,405l-0.6-0.8l-0.4-0.9"/>
			<path id="XMLID_145_" class="st1" d="M252.2,351.5l-0.5,0.2l-0.3,0.4"/>
			<path id="XMLID_144_" class="st1" d="M291.4,419.5l-0.4,0.3l-0.5,0.1"/>
			<path id="XMLID_143_" class="st1" d="M342.4,375.1l-0.1,0.1l-0.4,0.7l0,0.9"/>
			<path id="XMLID_142_" class="st1" d="M352.4,362.8l-0.1,0.5l-0.2,0.3l-0.3,0.2h-0.4l-0.4-0.1"/>
			<path id="XMLID_141_" class="st1" d="M251.8,292.1l1.7-1l0.4-0.1"/>
			<path id="XMLID_140_" class="st1" d="M242.8,258.7l-1.1,0.3"/>
			<path id="XMLID_139_" class="st1" d="M243.8,258.6l1.2,0.1"/>
			<path id="XMLID_138_" class="st1" d="M246.1,258.9l0.5,0.2l1.6,0.8"/>
			<path id="XMLID_137_" class="st1" d="M360,424.6l0.6,0.1"/>
			<path id="XMLID_136_" class="st1" d="M395.3,469.2l0.9-0.9l-0.5,0.5l-0.8,0.6"/>
			<path id="XMLID_135_" class="st1" d="M396.3,468.4l0.5-0.8"/>
			<path id="XMLID_134_" class="st1" d="M396.8,467.6l0.3-0.4l0.2-0.8L396.8,467.6"/>
			<path id="XMLID_133_" class="st1" d="M397.4,466.4l0.2-0.6l0.3-2.7l-0.1,1.8l-0.1,0.5"/>
			<path id="XMLID_132_" class="st1" d="M391.2,343l1.4,1.5"/>
			<path id="XMLID_131_" class="st1" d="M393.5,345.7l1.1,1.6"/>
			<path id="XMLID_130_" class="st1" d="M397.3,353.5l-0.5-1.8"/>
			<path id="XMLID_129_" class="st1" d="M396.2,350.4l-0.9-1.8"/>
			<path id="XMLID_128_" class="st1" d="M397.7,354.9l0.1,0.6l0.1,2"/>
			<path id="XMLID_127_" class="st1" d="M268.2,277.8l0.3,0.3l0.2,0.3v0.4l-0.2,0.3l-0.4,0.3"/>
			<path id="XMLID_126_" class="st1" d="M325.3,388.7l0.1-0.9l0.4-0.6"/>
			<path id="XMLID_125_" class="st1" d="M339.2,451.2l0.9,0.3h0.7"/>
			<path id="XMLID_124_" class="st1" d="M282.1,388.7c-0.5-1.6-0.1-2.8,1-2.8c0.6,0,1.4,0.5,2,1.2"/>
			<path id="XMLID_123_" class="st1" d="M294.5,428.5c-1.2-1-1.9-2.8-1.6-4c0.1-0.2,0.2-0.5,0.3-0.6"/>
			<path id="XMLID_122_" class="st1" d="M296.8,428.8c-0.5,0.6-1.5,0.5-2.4-0.3"/>
			<path id="XMLID_121_" class="st1" d="M246.8,411c-0.8-1.1-1.2-2.4-0.9-3.3"/>
			<path id="XMLID_120_" class="st1" d="M245.9,407.6c0.3-1.2,1.6-1.2,2.8-0.2c0.2,0.2,0.4,0.4,0.6,0.7"/>
			
				<ellipse id="XMLID_119_" transform="matrix(-0.866 0.5 -0.5 -0.866 692.4062 590.9294)" class="st1" cx="267" cy="388.2" rx="11.3" ry="19.6"/>
			<path id="XMLID_118_" class="st1" d="M246.4,390.8c0.6,1.6,0.2,2.9-0.9,3c-0.6,0-1.3-0.3-2-1"/>
			<path id="XMLID_117_" class="st1" d="M281.4,420.1c1.2,1.2,1.8,3,1.3,4.1c0,0,0,0.1,0,0.1"/>
			<path id="XMLID_116_" class="st1" d="M245.9,389.4c-1.1-2.8-1.9-5.7-2.4-8.5"/>
			<path id="XMLID_115_" class="st1" d="M243.5,380.9c-0.8-4.7-0.8-9,0-12.6"/>
			<path id="XMLID_114_" class="st1" d="M243.6,368.3c0.5-2.1,1.3-4,2.3-5.6"/>
			<path id="XMLID_113_" class="st1" d="M252,387.8c-2.1-6.4-2.1-12.5,0-16.5"/>
			<path id="XMLID_112_" class="st1" d="M274.2,409.7c-4.5-0.1-9.7-3.2-14.3-8.2"/>
			<path id="XMLID_111_" class="st1" d="M259.9,366.7c4.5,0.1,9.7,3.2,14.3,8.2"/>
			<path id="XMLID_110_" class="st1" d="M282.1,388.7c2.1,6.4,2.1,12.5,0,16.5"/>
			<path id="XMLID_109_" class="st1" d="M254.6,357.3c2.2-0.3,4.5-0.1,7,0.7"/>
			<path id="XMLID_108_" class="st1" d="M261.6,358c3.6,1.1,7.3,3.2,10.8,6.3"/>
			<path id="XMLID_107_" class="st1" d="M272.4,364.2c2.1,1.8,4.2,3.9,6.1,6.2"/>
			<path id="XMLID_106_" class="st1" d="M274.2,409.7c1.1,0,2.4,1.3,3,2.9c0.5,1.6,0.1,2.8-1.1,2.8c0,0,0,0,0,0"/>
			<path id="XMLID_105_" class="st1" d="M284.8,428.7c1-0.2,2.4,0.9,3.1,2.5c0.1,0.3,0.3,0.7,0.3,1"/>
			<path id="XMLID_104_" class="st1" d="M288.2,432.1c0.2,1.2-0.1,2.1-0.9,2.2"/>
			<path id="XMLID_103_" class="st1" d="M285.1,410.2c-1.1,0.1-2.4-1.2-3-2.7c-0.3-0.9-0.4-1.8-0.1-2.4"/>
			<path id="XMLID_102_" class="st1" d="M251.4,406.3c-0.5-1.6,0-2.8,1.1-2.7c0.7,0,1.4,0.5,2.1,1.3"/>
			<path id="XMLID_101_" class="st1" d="M261.6,412.2c-2.1-1.8-4.2-3.9-6.1-6.2"/>
			<path id="XMLID_100_" class="st1" d="M272.4,418.5c-3.6-1.1-7.3-3.2-10.8-6.3"/>
			<path id="XMLID_99_" class="st1" d="M278.5,419.3c-1.9,0.1-3.9-0.1-6.1-0.8"/>
			<path id="XMLID_98_" class="st1" d="M252,387.8c0.5,1.6,0.1,2.8-1,2.8c-0.6,0-1.4-0.5-2-1.2"/>
			<path id="XMLID_97_" class="st1" d="M237.2,394.4c-8.3-18.9-8.3-37.5,0-46.8"/>
			<path id="XMLID_96_" class="st1" d="M287.3,434.3c-12.2,2.5-28.3-6.7-40.5-23.4"/>
			<path id="XMLID_95_" class="st1" d="M246.8,342.1c12.2-2.5,28.3,6.7,40.5,23.4"/>
			<path id="XMLID_94_" class="st1" d="M296.8,382c8.3,18.9,8.3,37.5,0,46.8"/>
			<path id="XMLID_93_" class="st1" d="M248,387.7c-2.7-8.2-2.7-15.8,0-20.9"/>
			<path id="XMLID_92_" class="st1" d="M276.1,415.4c-5.7-0.2-12.3-4-18-10.4"/>
			<path id="XMLID_91_" class="st1" d="M258,361c5.7,0.2,12.3,4,18,10.4"/>
			<path id="XMLID_90_" class="st1" d="M286.1,388.8c2.7,8.2,2.7,15.8,0,20.8"/>
			<path id="XMLID_89_" class="st1" d="M237.2,347.6c0.5-0.6,1.5-0.4,2.4,0.4"/>
			<path id="XMLID_88_" class="st1" d="M239.7,348c1.2,1.1,1.9,2.9,1.5,4c-0.1,0.2-0.2,0.4-0.3,0.6"/>
			<path id="XMLID_87_" class="st1" d="M248.9,366.2c1.1-0.1,2.4,1.2,3,2.8c0.3,0.9,0.4,1.8,0.1,2.4"/>
			<path id="XMLID_86_" class="st1" d="M288.2,368.8c-0.3,1.2-1.5,1.3-2.7,0.3c-0.2-0.2-0.5-0.5-0.7-0.8"/>
			<path id="XMLID_85_" class="st1" d="M287.3,365.5c0.8,1.1,1.1,2.4,0.9,3.3"/>
			<path id="XMLID_84_" class="st1" d="M287.5,383.4c0.5-1,1.7-0.9,2.9,0.3c0,0,0,0,0,0"/>
			<path id="XMLID_83_" class="st1" d="M259.9,366.8c-1.1,0-2.4-1.3-3-2.9c-0.5-1.6-0.1-2.8,1.1-2.8c0,0,0,0,0,0"/>
			<path id="XMLID_82_" class="st1" d="M277.1,373.1c0.6,1.6,0.2,2.9-0.9,3c-0.6,0-1.4-0.4-2-1.1"/>
			<path id="XMLID_81_" class="st1" d="M257,403.3c-0.6-1.6-0.2-2.9,0.9-3c0.6,0,1.4,0.4,2,1.1"/>
			<path id="XMLID_80_" class="st1" d="M240.9,393.7c-7.3-16.6-7.3-32.8,0-41"/>
			<path id="XMLID_79_" class="st1" d="M284.8,428.7c-10.7,2.2-24.8-5.9-35.5-20.5"/>
			<path id="XMLID_78_" class="st1" d="M249.3,347.8c10.7-2.2,24.8,5.9,35.5,20.5"/>
			<path id="XMLID_77_" class="st1" d="M293.2,382.8c7.3,16.6,7.3,32.8,0,41"/>
			<path id="XMLID_76_" class="st1" d="M249.3,347.8c-1,0.2-2.4-0.9-3.1-2.5c-0.1-0.3-0.2-0.6-0.3-0.9"/>
			<path id="XMLID_75_" class="st1" d="M245.9,344.4c-0.3-1.2,0.1-2.2,0.9-2.3"/>
			<path id="XMLID_74_" class="st1" d="M254.6,357.2c-1,0.1-2.4-1-3-2.6c-0.4-0.9-0.4-1.9-0.1-2.5"/>
			<path id="XMLID_73_" class="st1" d="M290.5,419.8c-1.1,0-2.4-1.4-3-3c-0.3-1-0.3-1.9,0.1-2.4"/>
			<path id="XMLID_72_" class="st1" d="M290.5,408c-0.6,2.5-1.5,4.6-2.9,6.4"/>
			<path id="XMLID_71_" class="st1" d="M288.1,387.1c1.1,2.8,1.9,5.7,2.4,8.4"/>
			<path id="XMLID_70_" class="st1" d="M290.5,395.5c0.8,4.6,0.8,8.9,0,12.5"/>
			<path id="XMLID_69_" class="st1" d="M282.7,370.2c0.5,1.6,0,2.8-1.2,2.7c0,0-0.1,0-0.1,0"/>
			<path id="XMLID_68_" class="st1" d="M239.7,396.8c-0.9-0.2-1.9-1.2-2.4-2.4"/>
			<path id="XMLID_67_" class="st1" d="M240.9,393.7c0.7,1.6,0.4,3-0.6,3.2c-0.2,0-0.4,0-0.6,0"/>
			<path id="XMLID_66_" class="st1" d="M242.7,391.3c-5.5-13.5-5.6-26.5-0.3-33.9"/>
			<path id="XMLID_65_" class="st1" d="M281.6,425c-9.1,1-20.4-5.6-29.4-17.2"/>
			<path id="XMLID_64_" class="st1" d="M252.2,351.5c9-1.1,20.4,5.4,29.5,16.9"/>
			<path id="XMLID_63_" class="st1" d="M291.5,385.4c5.5,13.7,5.4,26.8-0.1,34.1"/>
			<path id="XMLID_62_" class="st1" d="M356.6,361.1c1.1-3.8,5.1-4,9-0.5c3.1,2.8,5.2,7.3,5.2,11"/>
			<path id="XMLID_61_" class="st1" d="M241.3,259.2c1.8-1.1,4.3-0.8,6.9,0.7"/>
			<path id="XMLID_60_" class="st1" d="M231.4,295.1c-1.9-7.8,1.3-13.2,7.1-12c1.1,0.2,2.3,0.7,3.4,1.4"/>
			<path id="XMLID_59_" class="st1" d="M374.6,457.1c0,7.1-5,9.9-11.1,6.4c-0.6-0.4-1.3-0.8-1.9-1.3"/>
			<path id="XMLID_58_" class="st1" d="M348.9,325.9c0.8-0.4,2-0.4,2.7,0"/>
			<path id="XMLID_57_" class="st1" d="M293.2,382.8c-0.7-1.6-0.4-3,0.6-3.2c0.2,0,0.4,0,0.7,0"/>
			<path id="XMLID_56_" class="st1" d="M294.5,379.6c0.9,0.3,1.9,1.2,2.4,2.4"/>
			<path id="XMLID_55_" class="st1" d="M392.3,466.3c0,6.2-4.3,8.7-9.7,5.6"/>
			<path id="XMLID_54_" class="st1" d="M234.3,293.5c-0.3-5,2.9-7.4,7.1-5.3c2.4,1.2,4.7,3.6,6.3,6.6"/>
			
				<ellipse id="XMLID_53_" transform="matrix(0.866 -0.5 0.5 0.866 -158.3409 185.5286)" class="st1" cx="267" cy="388.2" rx="32.9" ry="56.9"/>
			<path id="XMLID_52_" class="st1" d="M352.4,361c0-7.1,5-9.9,11.1-6.4c6.1,3.5,11.1,12.1,11.1,19.2"/>
			<path id="XMLID_51_" class="st1" d="M232.9,268.7c0-6.2,4.3-8.7,9.7-5.6"/>
			<path id="XMLID_50_" class="st1" d="M234.7,341.3c11.5-16.3,37-9.4,56.8,15.3c19.9,24.8,26.6,58.1,15.1,74.4
				c-3.6,5.1-8.8,8.2-15.1,8.7"/>
			<path id="XMLID_49_" class="st1" d="M341.2,450c0,1.8-1.2,2.5-2.8,1.6"/>
			<path id="XMLID_48_" class="st1" d="M388.2,340.7c5.4,3.1,9.7,10.6,9.7,16.8"/>
			<path id="XMLID_47_" class="st1" d="M382.6,343.9c5.4,3.1,9.7,10.6,9.7,16.8"/>
			<path id="XMLID_46_" class="st1" d="M370.7,454.8c0,3.7-2.1,5.7-5.1,5"/>
			<path id="XMLID_45_" class="st1" d="M361.6,405.8c-1.4,0.8-2.5,0.1-2.5-1.5c0-0.3,0-0.5,0.1-0.8"/>
			<path id="XMLID_44_" class="st1" d="M338.5,393.9c1.5,0.9,2.8,3,2.8,4.8"/>
			<path id="XMLID_43_" class="st1" d="M253.4,345.4c5.2-1.1,11.4,0.3,17.8,3.9"/>
			<path id="XMLID_42_" class="st1" d="M302.8,404.1c0,7.3-1.9,13.4-5.5,17.3"/>
			<path id="XMLID_41_" class="st1" d="M235.5,370.5c-1-9.2,0.4-17.2,4-22.8"/>
			<path id="XMLID_40_" class="st1" d="M288.3,432.3c-6.7,0.3-14.3-2.5-21.8-8"/>
			<path id="XMLID_39_" class="st1" d="M379.2,390.2c1.4-0.7,2.5,0.1,2.4,1.7c-0.1,1.6-1.2,3.4-2.5,4.1"/>
			<path id="XMLID_38_" class="st1" d="M361.6,440.3c-1.4,0.8-2.5,0.1-2.5-1.5c0-1.6,1.1-3.5,2.5-4.3"/>
			<path id="XMLID_37_" class="st1" d="M327.4,445.2c-1.5-0.9-2.8-3-2.8-4.8"/>
			<path id="XMLID_36_" class="st1" d="M236.1,362.8c-0.1-3.2,0.1-6.2,0.6-9"/>
			<path id="XMLID_35_" class="st1" d="M281.8,431.7c-2.7-1-5.5-2.3-8.2-4"/>
			<path id="XMLID_34_" class="st1" d="M379.2,413.2c1.4-0.7,2.5,0.1,2.4,1.7c-0.1,1.6-1.2,3.4-2.5,4.1"/>
			<path id="XMLID_33_" class="st1" d="M361.6,417.3c-1.4,0.7-2.5,0-2.4-1.6c0-1.5,1.1-3.4,2.5-4.2"/>
			<path id="XMLID_32_" class="st1" d="M361.4,452c-1.4,0.7-2.4-0.1-2.3-1.8c0.1-1.7,1.3-3.5,2.7-4.2c0,0,0.1,0,0.1,0"/>
			<path id="XMLID_31_" class="st1" d="M298.8,426.2c-1.2-0.9-2-2.7-1.8-4c0.1-0.3,0.2-0.6,0.3-0.8"/>
			<path id="XMLID_30_" class="st1" d="M379.2,436.3c1.4-0.7,2.5,0,2.4,1.6c-0.1,1.6-1.2,3.4-2.6,4.2"/>
			<path id="XMLID_29_" class="st1" d="M324.6,389.1c0-1.8,1.2-2.5,2.8-1.6"/>
			<path id="XMLID_28_" class="st1" d="M361.6,428.8c-1.4,0.8-2.6,0.1-2.6-1.5c0-1.6,1.1-3.5,2.5-4.3c0.1,0,0.1-0.1,0.2-0.1"/>
			<path id="XMLID_27_" class="st1" d="M253.4,345.4c-1,0.2-2.4-0.9-3.1-2.5c-0.1-0.3-0.2-0.6-0.3-0.9"/>
			<path id="XMLID_26_" class="st1" d="M379.2,424.7c1.4-0.7,2.5,0.1,2.4,1.7c-0.1,1.6-1.2,3.3-2.5,4.1"/>
			
				<ellipse id="XMLID_25_" transform="matrix(0.866 0.5 -0.5 0.866 297.0973 -122.3269)" class="st1" cx="376.8" cy="493.2" rx="4.1" ry="7.1"/>
			<path id="XMLID_24_" class="st1" d="M287.2,406.7c-1.1-1.3-1.5-3.1-1-4c0,0,0-0.1,0-0.1"/>
			<path id="XMLID_23_" class="st1" d="M328.1,444.8c-1.5-0.9-2.8-3-2.8-4.8"/>
			<path id="XMLID_22_" class="st1" d="M169.6,380c-2.2-0.7-2.6-4.1-0.9-7.6c1.7-3.5,4.8-5.8,7-5.1c0.2,0.1,0.3,0.1,0.5,0.2"/>
			<path id="XMLID_21_" class="st1" d="M277.1,405c-5.6,2.8-14.4-2.7-19.6-12.2c-4.9-9-4.9-18.4,0-21.7"/>
			
				<ellipse id="XMLID_20_" transform="matrix(-0.866 -0.5 0.5 -0.866 500.385 945.1138)" class="st1" cx="376.8" cy="405.5" rx="4.1" ry="7.1"/>
			<path id="XMLID_19_" class="st1" d="M294.7,405.6c-0.6,2.5-1.6,4.7-2.9,6.4"/>
			<path id="XMLID_18_" class="st1" d="M295.3,400.1c0,2-0.2,3.8-0.6,5.5"/>
			<path id="XMLID_17_" class="st1" d="M168.2,346.1c-2.1-0.7-2.5-4-0.8-7.4c1.6-3.4,4.7-5.6,6.8-4.9c0.2,0,0.3,0.1,0.4,0.2"/>
			<path id="XMLID_16_" class="st1" d="M242.9,374c-0.7-6.5,0-12.2,2.2-16.6"/>
			<path id="XMLID_15_" class="st1" d="M282.2,422.6c-4.7-0.5-9.9-2.7-14.9-6.4"/>
			<path id="XMLID_14_" class="st1" d="M169.5,295.5c-2.2-0.7-2.6-4.1-0.9-7.6c1.7-3.5,4.8-5.7,7-5c0.2,0.1,0.3,0.1,0.5,0.2"/>
			<path id="XMLID_13_" class="st1" d="M264.2,364.4c-1.1,0.1-2.4-1.2-3-2.8c0,0,0-0.1,0-0.1"/>
			<path id="XMLID_12_" class="st1" d="M259.7,354.8c1.9-0.1,3.9,0.1,6.1,0.8"/>
			<path id="XMLID_11_" class="st1" d="M265.8,355.6c1.7,0.5,3.4,1.3,5.1,2.2"/>
			<path id="XMLID_10_" class="st1" d="M293.1,416.6c-1.2-1.1-1.8-2.9-1.5-4c0.1-0.2,0.1-0.3,0.2-0.5"/>
			<path id="XMLID_9_" class="st1" d="M250.4,377.7c-0.5-3.6-0.3-7,0.4-9.9"/>
			<path id="XMLID_8_" class="st1" d="M277.1,412.6c-3-0.7-6.2-2.3-9.3-4.7"/>
		</g>
	</g>
</g>
<g id="XMLID_706_">
	<g id="XMLID_709_">
		<path id="XMLID_722_" d="M813.4,3c14,0,25.5,11.4,25.5,25.5v538.3c0,14-11.4,25.5-25.5,25.5H28.5c-14,0-25.5-11.4-25.5-25.5V28.5
			C3,14.4,14.4,3,28.5,3H813.4 M813.4,0H28.5C12.8,0,0,12.8,0,28.5v538.3c0,15.7,12.8,28.5,28.5,28.5h784.9
			c15.7,0,28.5-12.8,28.5-28.5V28.5C841.9,12.8,829.1,0,813.4,0L813.4,0z"/>
	</g>
	<g id="XMLID_708_">
		<path id="XMLID_735_" d="M1.5,83.5V28.5c0-14.9,12.1-27,27-27h55.1v55.1c0,14.9-12.1,27-27,27H1.5z"/>
		<g id="XMLID_731_">
			<path id="XMLID_732_" d="M82,3v53.6C82,70.6,70.6,82,56.6,82H3V28.5C3,14.4,14.4,3,28.5,3H82 M85,0H28.5C12.8,0,0,12.8,0,28.5V85
				h56.6C72.2,85,85,72.2,85,56.6V0L85,0z"/>
		</g>
	</g>
	<g id="XMLID_710_">
		<path id="XMLID_711_" class="st2" d="M37,47c0,1.4,0.2,2.5,0.7,3.4c0.8,1.6,2.3,2.5,4.4,2.5c1.3,0,2.5-0.4,3.4-1.3
			s1.5-2.2,1.5-3.9c0-2.2-0.9-3.7-2.7-4.5c-1-0.4-2.6-0.6-4.9-0.6v-4.8c2.2,0,3.7-0.2,4.5-0.6c1.5-0.7,2.2-2,2.2-4
			c0-1.3-0.4-2.4-1.1-3.2s-1.8-1.2-3.2-1.2c-1.6,0-2.7,0.5-3.5,1.5s-1.1,2.3-1.1,4H31c0.1-1.7,0.4-3.3,0.9-4.8
			c0.5-1.3,1.4-2.6,2.6-3.7c0.9-0.8,1.9-1.4,3.1-1.8s2.7-0.6,4.4-0.6c3.2,0,5.9,0.8,7.9,2.5c2,1.7,3,3.9,3,6.8c0,2-0.6,3.7-1.8,5.1
			c-0.8,0.9-1.5,1.4-2.3,1.8c0.6,0,1.5,0.5,2.6,1.6c1.7,1.6,2.6,3.7,2.6,6.5c0,2.9-1,5.4-3,7.6s-4.9,3.3-8.8,3.3
			c-4.8,0-8.1-1.6-10-4.7c-1-1.7-1.5-3.9-1.6-6.6H37z"/>
	</g>
</g>
</svg>
