<?xml version="1.0" encoding="utf-8"?>
<!-- Generator: Adobe Illustrator 19.0.0, SVG Export Plug-In . SVG Version: 6.00 Build 0)  -->
<svg version="1.1" id="Layer_1" xmlns="http://www.w3.org/2000/svg" xmlns:xlink="http://www.w3.org/1999/xlink" x="0px" y="0px"
	 width="841.9px" height="595.3px" viewBox="0 0 841.9 595.3" style="enable-background:new 0 0 841.9 595.3;" xml:space="preserve"
	>
<style type="text/css">
	.st0{fill:#FFFFFF;stroke:#000000;stroke-linecap:round;stroke-linejoin:round;}
	.st1{fill:none;stroke:#0B0620;stroke-width:0.5;stroke-linecap:round;stroke-linejoin:round;}
	.st2{fill:#FFFFFF;}
</style>
<g id="XMLID_1_">
	<g>
		<g id="XMLID_820_">
			<path id="XMLID_822_" class="st0" d="M341,317.3l-45.7,14.5L281.5,288l5.6-1.8"/>
			<path id="XMLID_821_" class="st0" d="M342.3,268.7l73-23.1l-6.9-21.9l40.2,35.4l-12.5,52.1l-6.9-21.9L376.8,306"/>
		</g>
	</g>
	<g>
		<path id="XMLID_775_" class="st1" d="M389.7,118.3c-0.4,0.1-0.4,0.1-0.8,0.3c-0.3,0.2-0.3,0.2-0.6,0.5c-0.2,0.3-0.2,0.3-0.4,0.6"
			/>
		<path id="XMLID_774_" class="st1" d="M387.9,119.7c-0.1,0.3-0.1,0.3-0.2,0.7c0,0.3,0,0.3,0,0.5c0.1,0.6,0.1,0.6,0.3,1.2
			c0.3,0.7,0.4,0.7,0.7,1.3"/>
		<path id="XMLID_773_" class="st1" d="M421.3,63c-2.2,0.1-2.2,0.1-4.3,0.4c-1.8,0.5-1.8,0.5-3.7,1c-1.8,0.8-1.8,0.8-3.6,1.7
			c-1.3,0.7-1.3,0.7-2.6,1.5"/>
		<path id="XMLID_772_" class="st1" d="M422.9,62.7c21.5-0.1,21.5-0.1,42.9-0.1c0.9,0,0.9,0,1.9,0.1c0.9,0.1,0.9,0.1,1.8,0.3
			c0.9,0.3,0.9,0.3,1.7,0.5c0.7,0.3,0.7,0.3,1.5,0.7c1.1,0.7,1.1,0.7,2.3,1.3"/>
		<path id="XMLID_771_" class="st1" d="M474.9,65.6c91.1,52.6,91.1,52.6,182.3,105.2c0.7,0.4,0.7,0.4,1.3,0.9c0.5,0.5,0.5,0.5,1,1.1
			c0.3,0.5,0.3,0.6,0.6,1.1c5.4,17,5.4,17,10.8,33.9"/>
		<path id="XMLID_770_" class="st1" d="M605.7,247.2c16.5,9.5,16.5,9.5,33,19.1c0.5,0.3,0.5,0.3,1,0.7c0.5,0.4,0.5,0.4,1,0.9
			c1.3,1.4,1.3,1.4,2.6,2.8c0.7,0.6,0.7,0.6,1.4,1.1c7.8,4.5,7.8,4.5,15.6,9"/>
		<path id="XMLID_769_" class="st1" d="M641.4,341c0.4-0.5,0.4-0.5,0.8-1c1.2-2.4,1.2-2.4,2.4-4.8c4-7,4-7,8.1-13.9"/>
		<path id="XMLID_768_" class="st1" d="M656.9,170.6c0.4,0.2,0.4,0.2,0.7,0.4c0.7,0.5,0.7,0.5,1.4,1c1,1.1,1,1.1,2,2.2
			c0.7,1.3,0.7,1.4,1.3,2.7c4.9,15.2,4.9,15.2,9.7,30.4c0.8,2.6,0.8,2.6,1.6,5.2c0.3,1.2,0.3,1.2,0.6,2.4c0.3,1.3,0.3,1.3,0.5,2.6
			c0.2,1.3,0.2,1.3,0.4,2.7c0.1,1,0.1,1,0.1,2.1c0,2.8,0,2.8,0,5.6"/>
		<path id="XMLID_767_" class="st1" d="M674.7,334.5c-0.4,0-0.4,0-0.8,0c-0.8,0.1-0.8,0.1-1.6,0.2c-0.4,0.1-0.4,0.1-0.7,0.2
			c-0.7,0.2-0.7,0.2-1.3,0.4"/>
		<path id="XMLID_766_" class="st1" d="M670.3,335.3c0.8-0.4,0.8-0.4,1.6-0.8c0.3-0.2,0.3-0.2,0.5-0.4c0.2-0.3,0.2-0.3,0.3-0.5"/>
		<path id="XMLID_765_" class="st1" d="M670.3,260.2c0.7-0.5,0.7-0.5,1.3-1.1c0.5-0.6,0.5-0.6,1-1.1c0.5-0.7,0.5-0.7,0.9-1.4
			c0.2-0.4,0.2-0.4,0.4-0.9c0.3-0.9,0.3-0.9,0.7-1.7c0.1-0.3,0.1-0.3,0.1-0.6"/>
		<path id="XMLID_764_" class="st1" d="M672.4,393.7c0.4-0.3,0.5-0.4,0.9-0.7c0.7-0.9,0.7-1,1.2-1.9c0.4-1,0.4-1,0.7-2
			c0.1-1,0.1-1,0.2-2c0-1.9,0-1.9,0-3.8"/>
		<path id="XMLID_763_" class="st1" d="M674.7,253.4c0.2-0.6,0.2-0.6,0.3-1.3c0.1-0.7,0.1-0.7,0.2-1.5c0-1,0-1,0.1-2.1"/>
		<path id="XMLID_762_" class="st1" d="M379.8,248.3l-0.2-1.8v-19.4"/>
		<path id="XMLID_761_" class="st1" d="M379.6,211.9v-16.4"/>
		<path id="XMLID_760_" class="st1" d="M380.5,189.9l7.6,4.4"/>
		<path id="XMLID_759_" class="st1" d="M388.1,122.2l-7.7-4.6"/>
		<path id="XMLID_758_" class="st1" d="M379.6,89.3v24"/>
		<path id="XMLID_757_" class="st1" d="M383,184.2l6.7-11.5"/>
		<path id="XMLID_756_" class="st1" d="M412,129.9L393.2,119l-1.9-0.7l-1.7,0"/>
		<path id="XMLID_755_" class="st1" d="M388.7,123.4l1.8,1.7l-7.6-4.4h0.1"/>
		<path id="XMLID_754_" class="st1" d="M384.2,81l23-13.4l-1.8,1"/>
		<path id="XMLID_753_" class="st1" d="M387.2,199.9v13"/>
		<path id="XMLID_752_" class="st1" d="M399.8,172.2l-1.2,2.5l-8.1,13.9"/>
		<path id="XMLID_751_" class="st1" d="M391,125.4l7.6,4.4"/>
		<path id="XMLID_750_" class="st1" d="M394.8,157.2v-23.6"/>
		<path id="XMLID_749_" class="st1" d="M401.4,132.9l-7.6-4.4"/>
		<path id="XMLID_748_" class="st1" d="M433.5,106.4l-41.8-24.2"/>
		<path id="XMLID_747_" class="st1" d="M402.3,156.1V138"/>
		<path id="XMLID_746_" class="st1" d="M405.7,245.4l1.2-0.7"/>
		<path id="XMLID_745_" class="st1" d="M407.2,67.6l2.6-1.5"/>
		<path id="XMLID_744_" class="st1" d="M411.7,129.7v11.7"/>
		<path id="XMLID_743_" class="st1" d="M419,110.2v5.2"/>
		<path id="XMLID_742_" class="st1" d="M418,63.3l3.3-0.5l1.6-0.1"/>
		<path id="XMLID_741_" class="st1" d="M474.9,65.6l-2.3-1.3"/>
		<path id="XMLID_740_" class="st1" d="M420.3,108.2l-0.3,0.2"/>
		<path id="XMLID_739_" class="st1" d="M433.5,115.2l-11.5-6.6"/>
		<path id="XMLID_738_" class="st1" d="M445.1,117.9h16.1"/>
		<path id="XMLID_737_" class="st1" d="M445.1,109.2h16.1"/>
		<path id="XMLID_736_" class="st1" d="M468.1,118.7V110"/>
		<path id="XMLID_735_" class="st1" d="M570,176.4l-96-55.5"/>
		<path id="XMLID_734_" class="st1" d="M473.9,112.2l96,55.4"/>
		<path id="XMLID_733_" class="st1" d="M547.6,339.9l22.4,12.9"/>
		<path id="XMLID_732_" class="st1" d="M570,344.1l-8.8-5.1"/>
		<path id="XMLID_731_" class="st1" d="M564.5,117.2l1.3,0.8"/>
		<path id="XMLID_730_" class="st1" d="M576.6,364.5v8.8"/>
		<path id="XMLID_729_" class="st1" d="M575.2,369.5v-18.1"/>
		<path id="XMLID_728_" class="st1" d="M576.6,188.1v8.8"/>
		<path id="XMLID_727_" class="st1" d="M575.2,193.1V175"/>
		<path id="XMLID_726_" class="st1" d="M580,376.1l56.6,32.7"/>
		<path id="XMLID_725_" class="st1" d="M610.9,385.3L580,367.4"/>
		<path id="XMLID_724_" class="st1" d="M596,359.2l-16-9.3"/>
		<path id="XMLID_723_" class="st1" d="M591.5,206.4l-11.5-6.6"/>
		<path id="XMLID_722_" class="st1" d="M580,191l56.6,32.7"/>
		<path id="XMLID_721_" class="st1" d="M591.5,347.8l-4.4-2.6"/>
		<path id="XMLID_720_" class="st1" d="M593.6,347.9l0.3-0.2"/>
		<path id="XMLID_719_" class="st1" d="M594.5,346.2v-22.6"/>
		<path id="XMLID_718_" class="st1" d="M594.5,237.3v-25.8"/>
		<path id="XMLID_717_" class="st1" d="M602.4,247.4l-4.5-2.6"/>
		<path id="XMLID_716_" class="st1" d="M619.8,348.3l0.1-0.1l-19,10.9"/>
		<path id="XMLID_715_" class="st1" d="M602.1,355.7v-19.2"/>
		<path id="XMLID_714_" class="st1" d="M603.9,332.6l0.6-0.3l-1.3,0.7"/>
		<path id="XMLID_713_" class="st1" d="M604.5,332.2L604.5,332.2"/>
		<path id="XMLID_712_" class="st1" d="M603.9,246.8l0.2-0.1L603.9,246.8"/>
		<path id="XMLID_711_" class="st1" d="M604.1,246.7l0.7,0.1l0.9,0.4"/>
		<path id="XMLID_710_" class="st1" d="M629.6,366.8l-20.9-12.1"/>
		<path id="XMLID_709_" class="st1" d="M608.2,332.9l3.9,2.3v-2.8"/>
		<path id="XMLID_708_" class="st1" d="M612.1,335.2l2.4-1.4"/>
		<path id="XMLID_707_" class="st1" d="M615.8,385.2l-0.8,0.5"/>
		<path id="XMLID_706_" class="st1" d="M641.2,360.1l-18.5,10.6"/>
		<path id="XMLID_705_" class="st1" d="M622.3,346.8l-2.4,1.4l3.1-1.8L622.3,346.8"/>
		<path id="XMLID_704_" class="st1" d="M629.7,342.6l-6.7,3.8"/>
		<path id="XMLID_703_" class="st1" d="M635.1,348.5l-5.4-3.1v-2.7"/>
		<path id="XMLID_702_" class="st1" d="M641.2,367.8V359"/>
		<path id="XMLID_701_" class="st1" d="M638.6,341.3l1,0.3l1-0.1l0.9-0.5"/>
		<path id="XMLID_700_" class="st1" d="M644.2,410.2l3.5-2l-2.5,1.4"/>
		<path id="XMLID_699_" class="st1" d="M641.6,340.7l8.1,4.6"/>
		<path id="XMLID_698_" class="st1" d="M645.2,232.7l29.2-16.8"/>
		<path id="XMLID_697_" class="st1" d="M656.9,402.8l1.9-1.1l-11.1,6.4"/>
		<path id="XMLID_696_" class="st1" d="M648.8,401.9V351"/>
		<path id="XMLID_695_" class="st1" d="M648.8,268.7v-24"/>
		<path id="XMLID_694_" class="st1" d="M652.2,339.6l8.1-13.9"/>
		<path id="XMLID_693_" class="st1" d="M655.4,314.9l7.6,4.4"/>
		<path id="XMLID_692_" class="st1" d="M656.4,308.7v-24.1"/>
		<path id="XMLID_691_" class="st1" d="M655.4,279.6l7.6,4.4"/>
		<path id="XMLID_690_" class="st1" d="M671.5,394.5l0.9-0.8L671.5,394.5l-12.6,7.3l0.4-0.2"/>
		<path id="XMLID_689_" class="st1" d="M663.9,289v24.1"/>
		<path id="XMLID_688_" class="st1" d="M674.8,387.3l0-52.8"/>
		<path id="XMLID_687_" class="st1" d="M672.7,333.6l0.1-0.5v-2.4v2.4"/>
		<path id="XMLID_686_" class="st1" d="M674.7,253.4l0-27.5"/>
		<path id="XMLID_685_" class="st1" d="M672.4,208.4l0.1,0.2"/>
		<path id="XMLID_684_" class="st1" d="M675.3,383.2l-0.1,3.8"/>
		<path id="XMLID_683_" class="st1" d="M674,391.7L674,391.7"/>
		<path id="XMLID_682_" class="st1" d="M675.3,387v-3.8"/>
		<path id="XMLID_681_" class="st1" d="M675.3,383.2l0-8.5"/>
		<path id="XMLID_680_" class="st1" d="M675.3,374.7l0-40l-0.1-0.1l-0.5-0.1"/>
		<path id="XMLID_679_" class="st1" d="M674,334.5l-1.2-3.6"/>
		<path id="XMLID_678_" class="st1" d="M675.3,334.6l-2.5-7.8v4V266v3.1"/>
		<path id="XMLID_677_" class="st1" d="M672.8,326.5v0.3"/>
		<path id="XMLID_676_" class="st1" d="M672.8,266v-8.3"/>
		<path id="XMLID_675_" class="st1" d="M675.3,248.5l-0.1-25.2v2.8"/>
		<path id="XMLID_674_" class="st1" d="M389.5,228l1.6,2l1.8,1.5"/>
		<path id="XMLID_673_" class="st1" d="M580,349.9l-2.6-2l-0.6-0.7"/>
		<path id="XMLID_672_" class="st1" d="M663.9,313.1c0,3.9-1.3,8.4-3.7,12.5"/>
		<path id="XMLID_671_" class="st1" d="M648.8,351c0-3.5,1.2-7.6,3.4-11.4"/>
		<path id="XMLID_670_" class="st1" d="M570,167.7c3.4,2,5.3,4.6,5.3,7.4"/>
		<path id="XMLID_669_" class="st1" d="M580,191c-3.1-1.8-4.8-4.2-4.8-6.7"/>
		<path id="XMLID_668_" class="st1" d="M636.7,223.7c6.7,3.9,12.1,13.3,12.1,21"/>
		<path id="XMLID_667_" class="st1" d="M652.2,276.1c-2.2-1.2-3.4-3.9-3.4-7.5"/>
		<path id="XMLID_666_" class="st1" d="M660.2,280.8c2.4,1.4,3.7,4.3,3.7,8.2"/>
		<ellipse id="XMLID_665_" class="st1" cx="418" cy="85.9" rx="5.4" ry="3.1"/>
		<path id="XMLID_664_" class="st1" d="M570,352.9c3.4,2,5.3,4.6,5.3,7.4"/>
		<path id="XMLID_663_" class="st1" d="M389.3,249.7c-0.3-3.5,1.7-5.3,4.5-4c1.4,0.6,2.9,2,4,3.7"/>
		<path id="XMLID_662_" class="st1" d="M648.8,401.9c0,7.7-5.4,10.9-12.1,7"/>
		<path id="XMLID_661_" class="st1" d="M419,110.2c0.1-1.8,1.4-2.6,3-1.6"/>
		<path id="XMLID_660_" class="st1" d="M383,120.7c-2.2-1.2-3.4-3.9-3.4-7.5"/>
		<path id="XMLID_659_" class="st1" d="M461.2,109.2c4.8,0,9.4,1.1,12.7,3"/>
		
			<ellipse id="XMLID_658_" transform="matrix(-0.866 0.5 -0.5 -0.866 1302.6538 129.4532)" class="st1" cx="634" cy="239.2" rx="4.2" ry="7.3"/>
		<path id="XMLID_657_" class="st1" d="M580,376.2c-3.1-1.8-4.8-4.2-4.8-6.7"/>
		<path id="XMLID_656_" class="st1" d="M379.6,89.3c0-7.7,5.4-10.9,12.1-7c0,0,0,0,0,0"/>
		
			<ellipse id="XMLID_655_" transform="matrix(-0.866 0.5 -0.5 -0.866 1378.1405 411.173)" class="st1" cx="634" cy="390.2" rx="4.2" ry="7.3"/>
		<path id="XMLID_654_" class="st1" d="M445.1,109.2c-4.3,0-8.5-1-11.5-2.8"/>
		<ellipse id="XMLID_653_" class="st1" cx="622.9" cy="204.2" rx="5.4" ry="3.1"/>
		
			<ellipse id="XMLID_652_" transform="matrix(0.866 -0.5 0.5 0.866 2.3747 210.7277)" class="st1" cx="394.4" cy="100.9" rx="4.2" ry="7.3"/>
		<path id="XMLID_651_" class="st1" d="M594.5,346.2c-0.1,1.8-1.4,2.6-3,1.6"/>
		<path id="XMLID_650_" class="st1" d="M591.5,206.4c1.6,0.9,3,3.2,3,5.1"/>
		<path id="XMLID_649_" class="st1" d="M580,199.7c-3.1-1.8-4.8-4.2-4.8-6.7"/>
		<path id="XMLID_648_" class="st1" d="M570,176.4c3.4,2,5.3,4.6,5.3,7.4"/>
		<path id="XMLID_647_" class="st1" d="M379.6,195.6c0-3.5,1.2-7.6,3.4-11.4"/>
		<path id="XMLID_646_" class="st1" d="M391,125.4c2.4,1.4,3.7,4.3,3.7,8.2"/>
		<path id="XMLID_645_" class="st1" d="M597.9,244.8c-2.2-1.2-3.4-3.9-3.4-7.5"/>
		<path id="XMLID_644_" class="st1" d="M461.2,117.9c4.8,0,9.4,1.1,12.7,3"/>
		<path id="XMLID_643_" class="st1" d="M398.6,129.7c2.4,1.4,3.7,4.3,3.7,8.2"/>
		<path id="XMLID_642_" class="st1" d="M387.2,199.9c0-3.5,1.2-7.6,3.4-11.4"/>
		<path id="XMLID_641_" class="st1" d="M392.9,231.4c5.3,3.4,10.3,9.2,13.8,15.9"/>
		<path id="XMLID_640_" class="st1" d="M445.1,117.9c-4.3,0-8.5-1-11.5-2.8"/>
		<path id="XMLID_639_" class="st1" d="M570,344.1c3.4,2,5.3,4.6,5.3,7.4"/>
		<path id="XMLID_638_" class="st1" d="M656.4,308.7c0,3.9-1.3,8.4-3.7,12.5"/>
		<path id="XMLID_637_" class="st1" d="M617,382.2c0.6-11.2,8.5-15.8,18.5-10.7"/>
		<path id="XMLID_636_" class="st1" d="M635.2,348.5c3.3,1.9,6.1,6.6,6.1,10.5c0,0,0,0,0,0"/>
		<path id="XMLID_635_" class="st1" d="M641.2,367.8c0,3.7-2.5,5.3-5.7,3.7"/>
		<path id="XMLID_634_" class="st1" d="M580,367.4c-3.1-1.8-4.8-4.2-4.8-6.7"/>
		<path id="XMLID_633_" class="st1" d="M602.1,355.7c0,3.9-2.7,5.4-6.1,3.5c0,0,0,0,0,0"/>
		<path id="XMLID_632_" class="st1" d="M652.6,276.4c2.4,1.4,3.7,4.3,3.7,8.2"/>
		<path id="XMLID_631_" class="st1" d="M617,382.2c-0.2,3.6-2.8,4.9-6,3.1"/>
		<path id="XMLID_630_" class="st1" d="M602.1,336.4c0-3.9,2.7-5.4,6.1-3.5"/>
	</g>
	<g>
		<path id="XMLID_629_" class="st1" d="M183.6,393.1c-1.5-0.7-1.5-0.7-2.9-1.5c-1.4-0.8-1.4-0.8-2.7-1.6c-1.3-0.9-1.3-0.9-2.6-1.7
			c-0.6-0.5-0.6-0.5-1.1-0.9c-0.7-0.6-0.7-0.6-1.3-1.2c-0.5-0.6-0.5-0.6-1-1.2c-0.4-0.5-0.4-0.5-0.8-1.1c-0.5-0.7-0.5-0.7-0.9-1.3
			c-0.4-0.7-0.4-0.7-0.8-1.4c-0.3-0.6-0.3-0.6-0.6-1.2c-0.3-0.7-0.3-0.7-0.7-1.4c-0.5-1.4-0.5-1.4-0.9-2.8c-0.2-0.7-0.1-0.7-0.3-1.4
			c-0.1-0.7-0.1-0.7-0.2-1.4c-0.1-1.3-0.1-1.3-0.1-2.6c0-1.6,0-1.6,0-3.2c0.1-2.7,0.1-2.7,0.3-5.5"/>
		<path id="XMLID_628_" class="st1" d="M166.8,361.6c0-68.7,0-68.7,0-137.5c-0.1-2.6-0.1-2.6-0.3-5.2c0-1.6,0-1.6,0-3.1
			c0-0.7,0-0.7,0.1-1.5c0.1-1.3,0.1-1.3,0.3-2.7c0.1-0.7,0.1-0.7,0.3-1.5c0.2-0.6,0.2-0.6,0.4-1.1c0.7-1.4,0.7-1.4,1.5-2.7
			c0.3-0.4,0.3-0.4,0.6-0.8c1.2-1.1,1.2-1.1,2.4-2.2c5.3-3.1,5.4-3.1,10.7-6.1"/>
		<path id="XMLID_627_" class="st1" d="M168.6,376.2c0.7,1.8,0.7,1.8,1.4,3.6c1,1.7,1,1.7,2,3.4c1.2,1.4,1.2,1.4,2.5,2.9"/>
		<path id="XMLID_626_" class="st1" d="M166.8,212.7c0.1-0.7,0.1-0.7,0.3-1.4c0.2-0.6,0.2-0.6,0.4-1.1c0.3-0.5,0.3-0.5,0.5-1
			c0.3-0.4,0.3-0.4,0.5-0.7c0.4-0.4,0.4-0.4,0.7-0.7c0.4-0.3,0.4-0.3,0.9-0.5c0.4-0.2,0.4-0.2,0.8-0.3c0.3-0.1,0.3-0.1,0.5-0.1
			c0.3,0,0.3,0,0.5-0.1c0.5,0,0.5,0,1,0c0.5,0.1,0.5,0.1,0.9,0.1c0.6,0.2,0.6,0.2,1.1,0.3c0.9,0.5,0.9,0.5,1.8,0.9"/>
		<path id="XMLID_625_" class="st1" d="M185.3,380.7c-0.7-0.1-0.7-0.1-1.3-0.2c-0.7-0.3-0.7-0.3-1.4-0.7c-0.7-0.5-0.7-0.5-1.4-1.1
			c-0.6-0.7-0.6-0.7-1.2-1.4c-0.5-0.9-0.5-0.9-1-1.7c-0.4-0.9-0.4-0.9-0.7-1.8c-0.2-0.9-0.2-0.9-0.4-1.8c0-0.8,0-0.8,0-1.6
			c0.2-0.7,0.2-0.7,0.4-1.3"/>
		<path id="XMLID_624_" class="st1" d="M178.2,217.9c-0.2,0.7-0.2,0.7-0.4,1.3c0,0.8,0,0.8,0,1.6c0.2,0.9,0.2,0.9,0.4,1.8
			c0.4,0.9,0.4,0.9,0.7,1.8c0.5,0.9,0.5,0.9,1,1.7c0.6,0.7,0.6,0.7,1.2,1.4c0.7,0.6,0.7,0.6,1.4,1.1c0.7,0.4,0.7,0.4,1.4,0.7
			c0.7,0.1,0.7,0.1,1.3,0.2"/>
		<path id="XMLID_623_" class="st1" d="M432.3,525c0,0.6,0,0.6,0,1.2c-0.1,0.6-0.1,0.6-0.2,1.2c-0.1,0.4-0.1,0.4-0.2,0.8
			c-0.2,0.5-0.2,0.5-0.4,1c-0.1,0.3-0.1,0.3-0.3,0.5c-0.3,0.4-0.3,0.4-0.5,0.7c-0.4,0.4-0.4,0.4-0.7,0.7c-0.4,0.3-0.4,0.3-0.8,0.5
			c-0.4,0.2-0.4,0.2-0.8,0.3c-0.5,0.1-0.5,0.1-1,0.2c-0.5,0-0.5,0-1.1,0c-0.5-0.1-0.5-0.1-1-0.1c-0.6-0.1-0.6-0.1-1.2-0.3
			c-0.4-0.1-0.4-0.1-0.8-0.3c-0.7-0.3-0.7-0.3-1.5-0.7c-0.7-0.3-0.7-0.3-1.3-0.7c-1.4-0.8-1.4-0.8-2.7-1.6c-2.2-1.4-2.2-1.4-4.4-2.8
			"/>
		<path id="XMLID_622_" class="st1" d="M412.4,414.3c-4.1,7-4.1,7-8.1,14c-0.8,1.5-0.8,1.5-1.5,3c-0.3,0.6-0.3,0.6-0.5,1.2
			c-0.2,0.7-0.2,0.7-0.3,1.4c0,0.7,0,0.7,0.1,1.4c0.2,0.7,0.2,0.7,0.4,1.3c0.1,0.1,0.1,0.1,0.2,0.3"/>
		<path id="XMLID_621_" class="st1" d="M424.9,519c-0.7-0.1-0.7-0.1-1.3-0.2c-0.7-0.3-0.7-0.3-1.4-0.7c-0.7-0.6-0.7-0.6-1.4-1.1
			c-0.7-0.7-0.7-0.7-1.2-1.5c-0.5-0.8-0.5-0.8-1-1.7c-0.4-0.9-0.4-0.9-0.7-1.8c-0.2-0.8-0.2-0.8-0.3-1.6c0-0.9-0.1-0.9,0-1.8
			c0.1-0.7,0.2-0.7,0.4-1.4"/>
		<path id="XMLID_620_" class="st1" d="M417.8,356.2c-0.2,0.7-0.2,0.7-0.4,1.4c0,0.9,0,0.9,0,1.8c0.1,0.8,0.1,0.8,0.3,1.6
			c0.3,0.9,0.3,0.9,0.7,1.8c0.5,0.9,0.5,0.9,1,1.7c0.6,0.7,0.6,0.7,1.2,1.5c0.7,0.6,0.7,0.6,1.4,1.1c0.7,0.3,0.7,0.4,1.4,0.7
			c0.7,0.1,0.7,0.1,1.3,0.2"/>
		<path id="XMLID_619_" class="st1" d="M422.2,349.8c1,0.6,1,0.6,1.9,1.2c0.9,0.8,0.9,0.8,1.8,1.6c0.8,0.9,0.8,0.9,1.6,1.7
			c0.5,0.6,0.5,0.6,0.9,1.2c0.5,0.7,0.5,0.7,0.9,1.4c0.4,0.7,0.4,0.7,0.8,1.4c0.3,0.7,0.3,0.7,0.7,1.4c0.4,1.2,0.4,1.2,0.9,2.4
			c0.2,0.7,0.2,0.7,0.3,1.4c0.1,0.7,0.1,0.7,0.3,1.5c0.1,1.1,0.1,1.1,0.1,2.3"/>
		<path id="XMLID_618_" class="st1" d="M422.7,531.1c1.2,0.5,1.2,0.5,2.4,1c0.6,0.2,0.6,0.2,1.2,0.3c0.5,0.1,0.5,0.1,1,0.1
			c1,0,1,0,1.9,0.1c0.6,0,0.6,0,1.2,0c0.6-0.1,0.6-0.1,1.1-0.2c1.5-0.5,1.5-0.5,2.9-1c0.2-0.1,0.2-0.1,0.5-0.3"/>
		<path id="XMLID_617_" class="st1" d="M174.5,212.9c0.2,0,0.2,0,0.4,0.1c1.2,0.4,1.2,0.4,2.3,0.8c1.4,0.9,1.4,0.9,2.7,1.7"/>
		<path id="XMLID_616_" class="st1" d="M166.8,361.6v1.4"/>
		<path id="XMLID_615_" class="st1" d="M167.9,369.6l0.1-0.6"/>
		<path id="XMLID_614_" class="st1" d="M168,222.3l-0.1-0.7"/>
		<path id="XMLID_613_" class="st1" d="M168.6,215.8l1.4-1.9l0.4-0.2l1.6-0.8l2.5-0.1"/>
		<path id="XMLID_612_" class="st1" d="M187.7,379l-0.3,0.6l-0.9,0.8l-1.1,0.3"/>
		<path id="XMLID_611_" class="st1" d="M178.2,368.9l0.7-1l1-0.5l1,0"/>
		<path id="XMLID_610_" class="st1" d="M180.8,216.4l-0.9,0l-1,0.5l-0.7,1"/>
		<path id="XMLID_609_" class="st1" d="M185.3,229.7l1.1-0.3l0.9-0.8l0.3-0.6"/>
		<path id="XMLID_608_" class="st1" d="M179.8,389.5l0.2,0.1l2.6,0.4"/>
		<path id="XMLID_607_" class="st1" d="M179.8,215.4l0.3,0.1l2.6,2.6"/>
		<path id="XMLID_606_" class="st1" d="M183.7,393.2l1.4,0.8l-0.8-0.5"/>
		<path id="XMLID_605_" class="st1" d="M413.5,525.7L185.1,393.9l0.5,0.3"/>
		<path id="XMLID_604_" class="st1" d="M422.2,349.8L176.8,208.2"/>
		<path id="XMLID_603_" class="st1" d="M186.8,293.9l7.6-4.4"/>
		<path id="XMLID_602_" class="st1" d="M185.9,290.9v-38.3"/>
		<path id="XMLID_601_" class="st1" d="M186.8,250.9l0.3-0.2"/>
		<path id="XMLID_600_" class="st1" d="M208,307.2l-19.1-11"/>
		<path id="XMLID_599_" class="st1" d="M188.9,251l19,11"/>
		<path id="XMLID_598_" class="st1" d="M190.4,198.5l41.8,24.2"/>
		<path id="XMLID_597_" class="st1" d="M193.5,286.6v-32.9"/>
		<path id="XMLID_596_" class="st1" d="M196.5,291.8l0.9-1.6"/>
		<path id="XMLID_595_" class="st1" d="M201,278.3V258"/>
		<path id="XMLID_594_" class="st1" d="M208.6,291.8l10.6-6.1"/>
		<path id="XMLID_593_" class="st1" d="M211.2,355.1v-42.5"/>
		<path id="XMLID_592_" class="st1" d="M210.2,309.5l7.6-4.4"/>
		<path id="XMLID_591_" class="st1" d="M226.8,290.1l-16.7,9.6l5.4,3.1"/>
		<path id="XMLID_590_" class="st1" d="M211.2,260.4v-0.5"/>
		<path id="XMLID_589_" class="st1" d="M210.5,262.1l7.6-4.4"/>
		<path id="XMLID_588_" class="st1" d="M223.2,365.6l-7.6,4.4"/>
		<path id="XMLID_587_" class="st1" d="M218.7,350.7V308"/>
		<path id="XMLID_586_" class="st1" d="M218.7,255.5v0.5"/>
		<path id="XMLID_585_" class="st1" d="M229.3,308.6l-8.1,13.9"/>
		<path id="XMLID_584_" class="st1" d="M222.8,285l7.6,4.4"/>
		<path id="XMLID_583_" class="st1" d="M226.3,381.3l15,8.7v5.6l7.6,4.4v-5.6l76.7,44.3l7.5-4.4L256.5,390l-7.6,4.4"/>
		<path id="XMLID_582_" class="st1" d="M225.2,368.8l7,4.1"/>
		<path id="XMLID_581_" class="st1" d="M226.3,251.1l15,8.7v-5.6l5.5,3.1l2.1,1.2v5.6l76.7,44.3v-5.6l0.4,0.2l7.2,4.2v5.6l26.4,15.2
			"/>
		<path id="XMLID_580_" class="st1" d="M241.3,395.6l7.6-4.4v-5.6l-15-8.7"/>
		<path id="XMLID_579_" class="st1" d="M232.9,296.7v-3.1"/>
		<path id="XMLID_578_" class="st1" d="M241.3,390l7.6-4.4"/>
		<path id="XMLID_577_" class="st1" d="M241.3,259.8l4.8-2.8"/>
		<path id="XMLID_576_" class="st1" d="M244.4,375.7h16.1"/>
		<path id="XMLID_575_" class="st1" d="M260.5,225.6h-16.1"/>
		<path id="XMLID_574_" class="st1" d="M368.6,434.1l-96.1-55.5"/>
		<path id="XMLID_573_" class="st1" d="M368.6,283.9l-96.1-55.4"/>
		<path id="XMLID_572_" class="st1" d="M359.6,458.2L333.2,443v5.6l-7.6-4.4l7.5-4.3v-5.6"/>
		<path id="XMLID_571_" class="st1" d="M325.6,444.2v-5.6"/>
		<path id="XMLID_570_" class="st1" d="M325.6,308.4l4.8-2.8"/>
		<path id="XMLID_569_" class="st1" d="M333.2,443l7.6-4.4l26.4,15.2"/>
		<path id="XMLID_568_" class="st1" d="M374.7,449.5v-95.2"/>
		<path id="XMLID_567_" class="st1" d="M373.7,450.4v-9.3"/>
		<path id="XMLID_566_" class="st1" d="M373.7,290.9v9.3"/>
		<path id="XMLID_565_" class="st1" d="M435.3,339.9l-56.7-32.7"/>
		<path id="XMLID_564_" class="st1" d="M393.1,423.1l7.6-4.4l-2.4-1.4l-7.6,4.4L393.1,423.1v14.5l3.8-2.2l4.3,2.4l3.8-2.2l10.9,6.3"
			/>
		<path id="XMLID_563_" class="st1" d="M390.6,421.6v-36.1l27.6,15.9v36.1l-2.4-1.4v14.5l-22.7-13.1"/>
		<path id="XMLID_562_" class="st1" d="M396.8,435.4v-3.7l3.8-2.2v-10.9"/>
		<path id="XMLID_561_" class="st1" d="M402.3,436l-2.2,1.3"/>
		<path id="XMLID_560_" class="st1" d="M398.2,389.9v27.4"/>
		<path id="XMLID_559_" class="st1" d="M416.3,526.1l0.6,0.5l2.7,1.4"/>
		<path id="XMLID_558_" class="st1" d="M415.8,445.8l-0.5,0.3l0.5,0.3"/>
		<path id="XMLID_557_" class="st1" d="M415.8,436.2l2.4-1.4"/>
		<path id="XMLID_556_" class="st1" d="M415.9,402.4v-2.3"/>
		<path id="XMLID_555_" class="st1" d="M419.6,353.9l-2.7-1.8l-0.6-0.2"/>
		<path id="XMLID_554_" class="st1" d="M427.2,517.3l-0.3,0.6l-0.9,0.7l-1.2,0.3"/>
		<path id="XMLID_553_" class="st1" d="M417.8,507.2l0.7-1l1-0.5h0.9"/>
		<path id="XMLID_552_" class="st1" d="M420.5,354.7l-0.9,0l-1,0.5l-0.7,1"/>
		<path id="XMLID_551_" class="st1" d="M424.9,368l1.2-0.3l0.9-0.7l0.3-0.6"/>
		<path id="XMLID_550_" class="st1" d="M422.2,528.4l2.3-0.5l1.8-1.5"/>
		<path id="XMLID_549_" class="st1" d="M424.8,360.4l-0.4-0.8l-2.3-3.2"/>
		<path id="XMLID_548_" class="st1" d="M434.9,531.1l-0.1,0.1"/>
		<path id="XMLID_547_" class="st1" d="M427.3,524.3l0.1-0.2"/>
		<path id="XMLID_546_" class="st1" d="M426.2,514.1l0.1,0.1"/>
		<path id="XMLID_545_" class="st1" d="M426.2,375.4L426.2,375.4"/>
		<path id="XMLID_544_" class="st1" d="M427.1,365.8l0.3,0.9"/>
		<path id="XMLID_543_" class="st1" d="M434.9,531.1l3.1-1.8L434.9,531.1"/>
		<path id="XMLID_542_" class="st1" d="M432.3,515.6V376.7"/>
		<path id="XMLID_541_" class="st1" d="M443.9,349l-9.1,5.2"/>
		<path id="XMLID_540_" class="st1" d="M442.8,526.5l-4.8,2.8"/>
		<path id="XMLID_539_" class="st1" d="M441.1,527.5l3.7-2.2"/>
		<path id="XMLID_538_" class="st1" d="M447.5,467.2v50.9"/>
		<path id="XMLID_537_" class="st1" d="M447.5,360.9v24.7"/>
		<path id="XMLID_536_" class="st1" d="M451,455.2l8.1-13.9"/>
		<path id="XMLID_535_" class="st1" d="M453.4,394.8l-2.4-1.4l8.1,4.6"/>
		<path id="XMLID_534_" class="st1" d="M456.5,396.6l2.6,1.5"/>
		<path id="XMLID_533_" class="st1" d="M462.6,429.4v-23.4"/>
		<path id="XMLID_532_" class="st1" d="M422.2,528.4l-1.7-0.2l-0.9-0.3"/>
		<path id="XMLID_531_" class="st1" d="M426.2,526.3l1-2"/>
		<path id="XMLID_530_" class="st1" d="M374.3,453.2l-0.3-0.9l-0.3-1.9"/>
		<path id="XMLID_529_" class="st1" d="M218.7,256l-0.2,1l-0.4,0.7"/>
		<path id="XMLID_528_" class="st1" d="M462.6,429.4c0,3.7-1.3,8-3.5,11.9"/>
		<path id="XMLID_527_" class="st1" d="M426.3,375.3c-2.9,3.9-9.1,2.1-14-4c-4.8-6.1-6.4-14.2-3.5-18.2c1.7-2.3,4.7-2.7,8-1.1"/>
		<path id="XMLID_526_" class="st1" d="M419.6,353.9c0.9,0.7,1.8,1.6,2.6,2.6"/>
		<path id="XMLID_525_" class="st1" d="M424.5,359.7c1.3,2.1,2.2,4.5,2.8,6.7"/>
		<path id="XMLID_524_" class="st1" d="M427.3,366.7c0.8,3.5,0.4,6.6-1.1,8.6"/>
		<path id="XMLID_523_" class="st1" d="M447.5,467.2c0-3.7,1.3-8,3.6-12"/>
		<path id="XMLID_522_" class="st1" d="M447.5,518.1c0,3.2-0.9,5.7-2.6,7.2"/>
		<path id="XMLID_521_" class="st1" d="M416.8,526.5c-5.6-3.7-9.8-11.8-9.5-18c0.4-6.3,5.3-8.3,10.9-4.6c3.3,2.2,6.3,6,8,10.3"/>
		<path id="XMLID_520_" class="st1" d="M426.3,514.2c1.5,3.7,1.8,7.4,1,10.1"/>
		<path id="XMLID_519_" class="st1" d="M168.7,376.4c-0.9-2.7-1.1-5.3-0.8-7.4"/>
		<path id="XMLID_518_" class="st1" d="M167.9,369c1-5.8,6.3-7,11.9-2.6c5.5,4.4,9.2,12.6,8.2,18.4c-0.6,3.3-2.5,5.2-5.3,5.2"/>
		<path id="XMLID_517_" class="st1" d="M180,389.6c-1.8-0.6-3.7-1.9-5.5-3.6"/>
		<path id="XMLID_516_" class="st1" d="M182.6,218.2c5,5.9,7,14.1,4.4,18.4c-2.6,4.3-8.7,3-13.7-2.9c-3-3.5-5-8-5.4-12.1"/>
		<path id="XMLID_515_" class="st1" d="M167.8,221.5c-0.2-2.2,0-4.2,0.8-5.7"/>
		<path id="XMLID_514_" class="st1" d="M182.8,197.2c2.1-0.7,4.8-0.3,7.6,1.3"/>
		<path id="XMLID_513_" class="st1" d="M368.6,283.9c3.2,1.9,5,4.4,5,7"/>
		<path id="XMLID_512_" class="st1" d="M378.7,307.2c-3.2-1.9-5-4.4-5-7"/>
		<path id="XMLID_511_" class="st1" d="M435.3,339.9c6.7,3.9,12.1,13.3,12.1,21"/>
		<path id="XMLID_510_" class="st1" d="M451,393.4c-2.3-1.3-3.6-4.1-3.6-7.9"/>
		<path id="XMLID_509_" class="st1" d="M260.5,225.6c4.5,0,8.9,1,12.1,2.9"/>
		<path id="XMLID_508_" class="st1" d="M244.4,225.6c-4.5,0-8.9-1-12.1-2.9"/>
		<path id="XMLID_507_" class="st1" d="M459.1,398.1c2.3,1.3,3.6,4.1,3.6,7.9"/>
		<path id="XMLID_506_" class="st1" d="M368.6,434.1c3.2,1.9,5,4.4,5,7"/>
		<path id="XMLID_505_" class="st1" d="M244.4,375.7c-4.5,0-8.9-1-12.1-2.9"/>
		<path id="XMLID_504_" class="st1" d="M218.7,328.2c0.6-1.9,1.5-3.8,2.5-5.7"/>
		<path id="XMLID_503_" class="st1" d="M232.8,296.7c0,3.7-1.3,8-3.5,11.9"/>
		<path id="XMLID_502_" class="st1" d="M226.8,290.1c3.3-1.9,6.1-0.4,6.1,3.5c0,0,0,0,0,0"/>
		<path id="XMLID_501_" class="st1" d="M201,278.3c0,3.7-1.3,8-3.5,11.9"/>
		<path id="XMLID_500_" class="st1" d="M260.5,375.7c4.5,0,8.9,1,12.1,2.9"/>
		<path id="XMLID_499_" class="st1" d="M374.7,449.5c0,9.7-6.8,13.6-15.2,8.8c0,0,0,0,0,0"/>
		<path id="XMLID_498_" class="st1" d="M218.7,255.5c0-2.5,0.5-4.7,1.3-6.4"/>
		<path id="XMLID_497_" class="st1" d="M208.6,291.8c-3.3,1.9-8.8,1.9-12.1,0c0,0,0,0,0,0"/>
		<path id="XMLID_496_" class="st1" d="M196.5,291.8c-1.7-1-3-3.3-3-5.2c0,0,0,0,0,0"/>
		<path id="XMLID_495_" class="st1" d="M415.9,402.4c0,3.7-1.3,8-3.5,11.9"/>
		<path id="XMLID_494_" class="st1" d="M219.2,285.7c1.3-0.7,2.5-1,3.6-0.7"/>
		<path id="XMLID_493_" class="st1" d="M373.4,455.9c-2-0.1-4.1-0.8-6.2-2"/>
		<path id="XMLID_492_" class="st1" d="M359.6,328c8.4,4.8,15.2,16.6,15.2,26.3"/>
		<path id="XMLID_491_" class="st1" d="M215.6,302.8c1.7,0.9,3.1,3.2,3.2,5.2c0,0,0,0,0,0"/>
		<path id="XMLID_490_" class="st1" d="M211.2,259.9c0-9.7,6.8-13.6,15.2-8.8c0,0,0,0,0,0"/>
		<path id="XMLID_489_" class="st1" d="M208,307.2c1.7,0.9,3.1,3.2,3.2,5.2c0,0,0,0.1,0,0.1"/>
		<path id="XMLID_488_" class="st1" d="M226.3,381.3c-8.4-4.8-15.2-16.6-15.2-26.3c0,0,0,0,0,0"/>
		<path id="XMLID_487_" class="st1" d="M188.9,296.2c-1.7-1-3-3.3-3-5.2"/>
		<path id="XMLID_486_" class="st1" d="M233.9,376.9c-8.4-4.8-15.2-16.6-15.2-26.3c0,0,0,0,0,0"/>
		<path id="XMLID_485_" class="st1" d="M185.9,252.6c0.1-1.8,1.4-2.6,3-1.6"/>
		<path id="XMLID_484_" class="st1" d="M211.2,260.4c0,1.9-1.4,2.7-3,1.8c-0.1,0-0.1-0.1-0.2-0.1"/>
	</g>
	<g>
		<path id="XMLID_483_" class="st1" d="M584.3,312.5c0-0.1,0-0.1-0.1-0.1c0-0.1,0-0.1-0.1-0.2c0-0.1,0-0.1,0-0.2"/>
		<path id="XMLID_482_" class="st1" d="M584.1,293.8c0-0.1,0-0.1,0-0.3c0-0.1,0-0.1,0.1-0.1c0-0.1,0-0.1,0.1-0.1
			c0.1-0.1,0.1-0.1,0.1-0.1c0.1-0.1,0.1-0.1,0.2-0.1"/>
		<path id="XMLID_481_" class="st1" d="M588.8,276.5c0-0.1,0-0.1,0-0.3c0-0.1,0-0.1,0-0.1c0.1-0.1,0.1-0.1,0.1-0.1
			c0.1-0.1,0.1-0.1,0.1-0.1c0.1-0.1,0.1-0.1,0.2-0.2"/>
		<path id="XMLID_480_" class="st1" d="M594.2,323.3c-0.1-0.1-0.1-0.1-0.1-0.1c-0.1-0.1-0.1-0.1-0.1-0.2c0-0.1,0-0.1,0-0.2"/>
		<path id="XMLID_479_" class="st1" d="M605.6,312.1c0-9.1,0-9.1,0-18.2c0-0.1,0-0.1,0-0.1c0-0.1,0-0.1-0.1-0.3
			c-0.1-0.2-0.1-0.2-0.1-0.3c-0.1-0.1-0.1-0.1-0.2-0.3c-0.1-0.1-0.1-0.1-0.2-0.2c-0.1-0.1-0.1-0.1-0.1-0.1c-4.9-2.8-4.9-2.8-9.7-5.6
			c-0.1-0.1-0.1-0.1-0.2-0.1"/>
		<path id="XMLID_478_" class="st1" d="M595.4,265.6c-0.1-0.2-0.1-0.2-0.2-0.3c-0.3-0.7-0.3-0.7-0.7-1.4c-0.2-0.7-0.2-0.7-0.4-1.4
			c-0.1-0.6,0-0.6-0.1-1.3c0-0.2,0-0.2,0-0.4c0.1-0.6,0.1-0.6,0.3-1.2c0.1-0.2,0.1-0.2,0.2-0.5c0.3-0.5,0.3-0.5,0.6-0.9
			c0.1-0.1,0.1-0.1,0.3-0.3"/>
		<path id="XMLID_477_" class="st1" d="M595.4,258.1c0-2.3,0-2.3,0-4.7c0.1-0.4,0.1-0.4,0.1-0.8c0.2-0.5,0.2-0.5,0.4-0.9
			c0.2-0.3,0.2-0.3,0.4-0.7"/>
		<path id="XMLID_476_" class="st1" d="M595.7,258.7c0.2,0,0.2,0,0.5,0c0.3,0,0.3,0,0.6,0.1c0.3,0.1,0.3,0.1,0.5,0.1
			c0.3,0.1,0.3,0.1,0.7,0.3c0.2,0.1,0.2,0.1,0.5,0.3c0.3,0.3,0.3,0.3,0.6,0.5c0.2,0.2,0.2,0.2,0.5,0.5c0.3,0.4,0.3,0.4,0.6,0.7
			c0.2,0.3,0.2,0.3,0.4,0.5c0.2,0.4,0.2,0.4,0.5,0.8c0.1,0.3,0.1,0.3,0.3,0.6c0.1,0.4,0.1,0.4,0.3,0.9c0.1,0.3,0.1,0.3,0.1,0.6
			c0.1,0.4,0.1,0.4,0.1,0.8c0,0.3,0,0.3,0,0.5c0,0.4,0,0.4-0.1,0.7c-0.1,0.2-0.1,0.2-0.1,0.4c-0.1,0.3-0.1,0.3-0.3,0.6
			c-0.1,0.1-0.1,0.1-0.3,0.3c-0.2,0.2-0.2,0.2-0.4,0.3"/>
		<path id="XMLID_475_" class="st1" d="M599.5,268.4c-0.5-0.1-0.6-0.1-1.1-0.2c-0.7-0.3-0.7-0.4-1.3-0.7c-0.5-0.5-0.5-0.5-1-1
			c-0.3-0.4-0.3-0.4-0.7-0.9"/>
		<path id="XMLID_474_" class="st1" d="M596.6,262.5c0-1.1,0-1.1,0-2.2c0-0.1,0-0.1,0-0.2c0-0.1,0-0.1,0.1-0.3"/>
		<path id="XMLID_473_" class="st1" d="M599,326.2c-0.3-0.1-0.3-0.1-0.6-0.1c-0.1-0.1-0.1-0.1-0.2-0.1c-0.5-0.3-0.5-0.3-1-0.6
			c-0.3-0.3-0.3-0.3-0.6-0.6"/>
		<path id="XMLID_472_" class="st1" d="M598.1,263.4c0.9,0.5,0.9,0.5,1.9,1.1c0.1,0,0.1,0,0.2,0.1c0.1,0.1,0.1,0.1,0.3,0.1"/>
		<path id="XMLID_471_" class="st1" d="M613.8,320.4c-0.8,0.5-0.8,0.5-1.6,0.9c-0.1,0-0.1,0-0.1,0.1c-0.1,0-0.1,0-0.2,0
			c-0.1,0-0.1,0-0.2,0"/>
		<path id="XMLID_470_" class="st1" d="M603.4,267.3c-0.8,0.5-0.8,0.5-1.6,0.9c-0.3,0.1-0.3,0.1-0.5,0.2c-0.5,0.1-0.5,0.1-1,0.2
			c-0.3,0-0.3,0-0.5,0c-0.6-0.1-0.6-0.1-1.1-0.3c-0.1-0.1-0.1-0.1-0.2-0.1"/>
		<path id="XMLID_469_" class="st1" d="M626.2,341c0.2-0.2,0.2-0.2,0.4-0.3c0.1-0.1,0.1-0.1,0.3-0.3c0.2-0.3,0.2-0.3,0.3-0.6
			c0.1-0.2,0.1-0.2,0.1-0.4c0.1-0.3,0.1-0.3,0.1-0.7c0-0.3,0-0.3,0-0.5c-0.1-0.4-0.1-0.4-0.1-0.8c-0.1-0.3-0.1-0.3-0.1-0.6
			c-0.1-0.4-0.1-0.4-0.3-0.9c-0.1-0.3-0.1-0.3-0.3-0.6c-0.2-0.4-0.2-0.4-0.5-0.8c-0.2-0.3-0.2-0.3-0.4-0.5c-0.3-0.3-0.3-0.4-0.6-0.7
			c-0.2-0.2-0.2-0.2-0.5-0.5c-0.3-0.3-0.3-0.3-0.6-0.5c-0.2-0.2-0.3-0.2-0.5-0.3c-0.3-0.2-0.3-0.2-0.6-0.3c-0.3-0.1-0.3-0.1-0.5-0.1
			c-0.3,0-0.3,0-0.6-0.1c-0.2,0-0.2,0-0.4,0"/>
		<path id="XMLID_468_" class="st1" d="M620.1,332.7c-0.1,0.6-0.1,0.6-0.2,1.1c0,0.1,0,0.1,0,0.2c0,0.7,0,0.7,0.1,1.3
			c0.2,0.7,0.2,0.7,0.4,1.4c0.2,0.3,0.2,0.3,0.3,0.7"/>
		<path id="XMLID_467_" class="st1" d="M619.9,333.6c0.1-0.6,0.1-0.6,0.3-1.2c0.1-0.2,0.1-0.2,0.2-0.5c0.3-0.5,0.3-0.5,0.6-0.9
			c0.2-0.2,0.2-0.2,0.4-0.4c1.1-0.7,1.1-0.7,2.2-1.3"/>
		<path id="XMLID_466_" class="st1" d="M621.5,273.6c0.2,0,0.2,0,0.4,0c0.3,0,0.3,0,0.6,0.1c0.3,0.1,0.3,0.1,0.5,0.1
			c0.3,0.1,0.3,0.1,0.6,0.3c0.2,0.1,0.3,0.1,0.5,0.3c0.3,0.3,0.3,0.3,0.6,0.5c0.2,0.2,0.2,0.2,0.5,0.5c0.3,0.4,0.3,0.4,0.6,0.7
			c0.2,0.3,0.2,0.3,0.4,0.5c0.2,0.4,0.2,0.4,0.5,0.8c0.1,0.3,0.1,0.3,0.3,0.6c0.1,0.4,0.1,0.4,0.3,0.9c0.1,0.3,0.1,0.3,0.1,0.6
			c0.1,0.4,0.1,0.4,0.1,0.8c0,0.3,0,0.3,0,0.5c0,0.4,0,0.4-0.1,0.7c-0.1,0.2-0.1,0.2-0.1,0.4c-0.1,0.3-0.1,0.3-0.3,0.6
			c-0.1,0.1-0.1,0.1-0.3,0.3c-0.2,0.2-0.2,0.2-0.4,0.3"/>
		<path id="XMLID_465_" class="st1" d="M629.2,282.2c-0.8,0.5-0.8,0.5-1.6,0.9c-0.3,0.1-0.3,0.1-0.5,0.2c-0.5,0.1-0.5,0.1-1,0.2
			c-0.3,0-0.3,0-0.5,0c-0.6-0.1-0.6-0.1-1.1-0.3c-0.8-0.4-0.8-0.4-1.5-0.9c-0.5-0.5-0.5-0.5-1-1c-0.5-0.6-0.5-0.6-0.9-1.2
			c-0.3-0.7-0.3-0.7-0.7-1.4c-0.2-0.7-0.2-0.7-0.4-1.4c-0.1-0.6,0-0.6-0.1-1.3c0-0.2,0-0.2,0-0.4c0.1-0.6,0.1-0.6,0.3-1.2
			c0.1-0.2,0.1-0.2,0.2-0.5c0.3-0.5,0.3-0.5,0.6-0.9c0.2-0.2,0.2-0.2,0.4-0.4c1.1-0.7,1.1-0.7,2.2-1.3"/>
		<path id="XMLID_464_" class="st1" d="M633.8,343.8c-0.4,0-0.4,0-0.8,0c-0.5,0-0.5,0-1-0.1c-0.4-0.1-0.4-0.1-0.8-0.3"/>
		<path id="XMLID_463_" class="st1" d="M627.1,341.1c-0.5,0.1-0.5,0.1-1,0.2c-0.3,0-0.3,0-0.5,0c-0.6-0.1-0.6-0.1-1.1-0.3
			c-0.2-0.1-0.2-0.1-0.4-0.2c-0.5-0.3-0.5-0.3-1.1-0.6c-0.5-0.5-0.5-0.5-1-1c-0.5-0.6-0.5-0.6-0.9-1.2c-0.2-0.3-0.2-0.3-0.3-0.7"/>
		<path id="XMLID_462_" class="st1" d="M624,337.8c0,2,0-1.9,0-3.9c0-0.1,0-0.1,0-0.2c0-0.1,0-0.1,0-0.3"/>
		<path id="XMLID_461_" class="st1" d="M624,336.1c0.9,0.5,0.9,0.5,1.9,1.1c0.1,0,0.1,0,0.2,0.1c0.1,0.1,0.1,0.1,0.3,0.1"/>
		<path id="XMLID_460_" class="st1" d="M622.4,337c0,1.1,0,1.1,0,2.2c0,0.1,0,0.1,0,0.1c0,0.2,0,0.2,0.1,0.3"/>
		<path id="XMLID_459_" class="st1" d="M622.2,328.3c0.5,0.3,0.5,0.3,0.9,0.5c0.1,0.1,0.1,0.1,0.2,0.1c0.1,0,0.1,0,0.2,0"/>
		<path id="XMLID_458_" class="st1" d="M622.4,279.2c0,1.1,0,1.1,0,2.2c0,0.1,0,0.1,0,0.1c0,0.2,0,0.2,0.1,0.3"/>
		<path id="XMLID_457_" class="st1" d="M624,280.1c0.9,0.5,0.9,0.5,1.9,1.1c0.1,0,0.1,0,0.2,0.1c0.1,0.1,0.1,0.1,0.3,0.1"/>
		<path id="XMLID_456_" class="st1" d="M624.9,327C624.9,327,624.9,327,624.9,327c0.1-0.1,0.1-0.1,0.1-0.2c0-0.1,0-0.1,0-0.1
			c0-0.1,0-0.1,0-0.1"/>
		<path id="XMLID_455_" class="st1" d="M630,319.8c0-0.1,0-0.1,0-0.3c-0.1-0.2-0.1-0.2-0.1-0.3c-0.1-0.1-0.1-0.1-0.2-0.3
			c-0.1-0.1-0.1-0.1-0.2-0.3c-0.1-0.1-0.1-0.1-0.3-0.2"/>
		<path id="XMLID_454_" class="st1" d="M626.5,316.1c0,0.2,0,0.2,0.1,0.3c0,0.1,0,0.1,0.1,0.3c0.1,0.1,0.1,0.1,0.2,0.3
			c0.1,0.1,0.1,0.1,0.2,0.2c0.1,0.1,0.1,0.1,0.2,0.2"/>
		<path id="XMLID_453_" class="st1" d="M584.5,312.6l1.5,0.9L584.5,312.6l-0.2-0.1"/>
		<path id="XMLID_452_" class="st1" d="M584.1,312v-18.2"/>
		<path id="XMLID_451_" class="st1" d="M586,313.5l6.2,3.6l-2.9-1.7"/>
		<path id="XMLID_450_" class="st1" d="M594.7,299.3l-10.4-6"/>
		<path id="XMLID_449_" class="st1" d="M584.6,292.9l9.6-5.5"/>
		<path id="XMLID_448_" class="st1" d="M588.8,276.5v14"/>
		<path id="XMLID_447_" class="st1" d="M589.3,275.6L589.3,275.6"/>
		<path id="XMLID_446_" class="st1" d="M611.8,289.2L588.9,276"/>
		<path id="XMLID_445_" class="st1" d="M589.3,275.6l13.4-7.7"/>
		<path id="XMLID_444_" class="st1" d="M594.4,323.5l0.9,0.5L594.4,323.5l-0.2-0.1"/>
		<path id="XMLID_443_" class="st1" d="M594,322.9v-1.3V322.9"/>
		<path id="XMLID_442_" class="st1" d="M594,321.6v-3.1V321.6"/>
		<path id="XMLID_441_" class="st1" d="M595.3,324l6.2,3.6l-3-1.7"/>
		<path id="XMLID_440_" class="st1" d="M594,318.5v-0.4"/>
		<path id="XMLID_439_" class="st1" d="M594.7,318.1v-18.8"/>
		<path id="XMLID_438_" class="st1" d="M595.1,318.2l0.2-0.1L595.1,318.2l-0.2,0.1l-0.4,0l-0.2-0.1l-0.3-0.2l0.2,0.1"/>
		<path id="XMLID_437_" class="st1" d="M594,318.1l-1.8-1"/>
		<path id="XMLID_436_" class="st1" d="M594.7,299.3l10.7-6.2"/>
		<path id="XMLID_435_" class="st1" d="M595.3,318.1l9.4-5.4l0.2-0.1l0,0l0,0l0.1,0.1h0.2l0.2-0.1l0.1-0.2l0-0.3"/>
		<path id="XMLID_434_" class="st1" d="M594.9,286.8l-0.2,0l-0.1,0l-0.1,0.1l-0.1,0.1l-0.1,0.1l0,0.1l0-0.1v0l-0.2,0.1"/>
		<path id="XMLID_433_" class="st1" d="M594.8,263.2l-0.4-0.3l1.5-0.8l2.3,1.3l-1.5,0.9L594.8,263.2"/>
		<path id="XMLID_432_" class="st1" d="M595.4,272.1v-6.5"/>
		<path id="XMLID_431_" class="st1" d="M596.4,251.1l0.8-0.7l4.2-2.4l-2.7,1.6"/>
		<path id="XMLID_430_" class="st1" d="M594,261.1l0.3-1.1l0.3-0.4l0.3-0.5l0.4-0.2l0.5-0.2"/>
		<path id="XMLID_429_" class="st1" d="M600.4,268.2l-0.4,0.1l-0.6,0.1"/>
		<path id="XMLID_428_" class="st1" d="M594.4,262.9v-0.3l0-1.4l0.3,0.3l1.9,1.1"/>
		<path id="XMLID_427_" class="st1" d="M596.7,259.9l1.5,0.9l0,0.3l0,0.2v6l0.1,0.5l-0.3-0.1l-1.2-0.7l-0.1-0.3v-0.1v-2.2"/>
		<path id="XMLID_426_" class="st1" d="M604.8,322.6l-8.7-5"/>
		<path id="XMLID_425_" class="st1" d="M598.4,316.3l1.7-1"/>
		<path id="XMLID_424_" class="st1" d="M596.7,266.8l1.4-0.9"/>
		<path id="XMLID_423_" class="st1" d="M600.5,264.7v0.3v1.4l-0.3-0.1l-0.2-0.1l-1.9-1l1.5-0.9L600.5,264.7"/>
		<path id="XMLID_422_" class="st1" d="M598.1,261.2v-0.5"/>
		<path id="XMLID_421_" class="st1" d="M598.1,261.6l-1.5,0.9"/>
		<path id="XMLID_420_" class="st1" d="M595.4,258.1l0.1-0.1l2.2-1.3"/>
		<path id="XMLID_419_" class="st1" d="M633,273l-37-21.3"/>
		<path id="XMLID_418_" class="st1" d="M598.4,326l0.2,0.1l0.6,0.1"/>
		<path id="XMLID_417_" class="st1" d="M612.2,321.3l1.6-0.9"/>
		<path id="XMLID_416_" class="st1" d="M611.6,321.4l-0.2-0.1l-10.9-6.3"/>
		<path id="XMLID_415_" class="st1" d="M600.1,269.4v-0.8"/>
		<path id="XMLID_414_" class="st1" d="M601.1,268.8v-0.4"/>
		<path id="XMLID_413_" class="st1" d="M601.2,249.4l33.4,19.2"/>
		<path id="XMLID_412_" class="st1" d="M605.2,329.3l0.8-0.5L605.2,329.3l-0.1,0.1l-0.4,0l-0.2-0.1l-2.8-1.6l2.8,1.6"/>
		<path id="XMLID_411_" class="st1" d="M601.7,327.7l-0.2-0.1"/>
		<path id="XMLID_410_" class="st1" d="M602.9,267.6L602.9,267.6l-0.1,0.2l0-0.1v0l-0.1,0.1"/>
		<path id="XMLID_409_" class="st1" d="M602.9,267.6l17.1,9.9"/>
		<path id="XMLID_408_" class="st1" d="M601.4,247.9l1.7-1"/>
		<path id="XMLID_407_" class="st1" d="M602.4,247.4l0.9-0.5"/>
		<path id="XMLID_406_" class="st1" d="M606,328.9l3.3-1.9"/>
		<path id="XMLID_405_" class="st1" d="M604.8,322.6v6.8"/>
		<path id="XMLID_404_" class="st1" d="M624.2,340.9l1.1,0.2l0.6-0.1l0.4-0.1"/>
		<path id="XMLID_403_" class="st1" d="M621.5,331.4l-0.5,0.2l-0.4,0.2l-0.3,0.5l-0.3,0.4"/>
		<path id="XMLID_402_" class="st1" d="M620.7,337.3l-14.7-8.5"/>
		<path id="XMLID_401_" class="st1" d="M607.3,328.1l-0.3,0.1l3.6,2.1l-3.6-2.1"/>
		<path id="XMLID_400_" class="st1" d="M604.8,322.6l4.4-2.6"/>
		<path id="XMLID_399_" class="st1" d="M604.7,312.7l-0.2,0.1"/>
		<path id="XMLID_398_" class="st1" d="M608,327.7l1.3-0.7l0.2-0.1v0h0l0.1,0.1h0.2l0.1-0.1l0.1-0.1l0.1-0.2l0.1-0.3v-5.8"/>
		<path id="XMLID_397_" class="st1" d="M614.3,332.4l-3.7-2.1"/>
		<path id="XMLID_396_" class="st1" d="M611.8,321.4v-32.2l11.5-6.6"/>
		<path id="XMLID_395_" class="st1" d="M615.1,332.4l4.9-2.8l-2.1,1.2"/>
		<path id="XMLID_394_" class="st1" d="M614.7,319.9v12.6"/>
		<path id="XMLID_393_" class="st1" d="M613.8,332.1l0.6,0.3l0.2,0.1l0.3,0l0.2-0.1l1.2-0.7"/>
		<path id="XMLID_392_" class="st1" d="M615.2,319.5l1.6-0.9l-3.1,1.8L615.2,319.5"/>
		<path id="XMLID_391_" class="st1" d="M616.9,318.6l3.1-1.8L616.9,318.6"/>
		<path id="XMLID_390_" class="st1" d="M619.9,333.8v-0.2"/>
		<path id="XMLID_389_" class="st1" d="M619.9,276l0.2-1.1l0.3-0.4l0.3-0.4l0.4-0.2l0.5-0.2"/>
		<path id="XMLID_388_" class="st1" d="M626.2,283.1l-0.4,0.1l-0.6,0.1l-1.1-0.2"/>
		<path id="XMLID_387_" class="st1" d="M642.8,338.8l-8,4.6l-1,0.3"/>
		<path id="XMLID_386_" class="st1" d="M631.2,343.4l-4.1-2.4l-0.1,0"/>
		<path id="XMLID_385_" class="st1" d="M626.3,337.5l-0.8-0.5l-1.5,0.9"/>
		<path id="XMLID_384_" class="st1" d="M624,333.5l-1.2-0.7l-0.3-0.2l-0.1,0.3v0.2v2.2l-1.9-1.1l-0.3-0.3l0,1.4l0,0.3l0.3,0.3
			l1.9,1.1l1.5-0.9"/>
		<path id="XMLID_383_" class="st1" d="M626.3,337.4l0,0.3v1.4L626,339l-0.2-0.1l-1.9-1.1v2.2l0.1,0.5h0l-0.3-0.1l-1.2-0.7l1.4-0.9"
			/>
		<path id="XMLID_382_" class="st1" d="M624,336.1l-2.3-1.3l-1.4,0.9"/>
		<path id="XMLID_381_" class="st1" d="M622.4,335.2l1.5-0.9"/>
		<path id="XMLID_380_" class="st1" d="M622.4,329.5l1-0.5"/>
		<path id="XMLID_379_" class="st1" d="M622.1,329.4l-0.9-0.5"/>
		<path id="XMLID_378_" class="st1" d="M625.5,327.8l-2.9,1.7"/>
		<path id="XMLID_377_" class="st1" d="M623.4,328.9l0.2-0.1"/>
		<path id="XMLID_376_" class="st1" d="M624.2,327.2l-4.2,2.4"/>
		<path id="XMLID_375_" class="st1" d="M620,316.8l5.7-3.3"/>
		<path id="XMLID_374_" class="st1" d="M624,276.1l0-0.2l0-0.3l-1.2-0.7l-0.3-0.2l-0.1,0.3v0.2v2.2l-1.9-1.1l-0.3-0.3l0,1.4l0,0.3
			l0.3,0.2l2,1.1"/>
		<path id="XMLID_373_" class="st1" d="M622.5,281.8l1.2,0.7l0.3,0.1h0l-0.1-0.5v-2.1"/>
		<path id="XMLID_372_" class="st1" d="M626.3,281.3v-1.4l0-0.3l-0.3-0.1l-0.2-0.1l-1.9-1.1v-2.7"/>
		<path id="XMLID_371_" class="st1" d="M622.5,281.8l1.4-0.9"/>
		<path id="XMLID_370_" class="st1" d="M622.4,279.2l1.5-0.9l-2.3-1.3l-1.4,0.8"/>
		<path id="XMLID_369_" class="st1" d="M622.4,277.4l1.5-0.9"/>
		<path id="XMLID_368_" class="st1" d="M624,333.4v0.4"/>
		<path id="XMLID_367_" class="st1" d="M624.8,328.3l1-0.5"/>
		<path id="XMLID_366_" class="st1" d="M626.1,327.8l3.9,2.3"/>
		<path id="XMLID_365_" class="st1" d="M623.2,327.7l0.9-0.5l0.2-0.1l0,0h0l0.1,0.1h0.2l0.1,0l0.1-0.1"/>
		<path id="XMLID_364_" class="st1" d="M625,326.6v-12.7"/>
		<path id="XMLID_363_" class="st1" d="M626.5,313.2l-0.1,0.1l-0.1,0.1l-0.1,0.1l-0.1,0H626l-0.1,0h0l0,0l-0.2,0.1l-2.6,1.5"/>
		<path id="XMLID_362_" class="st1" d="M624,278.3v1.8l1.5-0.9l0.8,0.5"/>
		<path id="XMLID_361_" class="st1" d="M627.2,341.1l0.4-0.1l1.6-0.9"/>
		<path id="XMLID_360_" class="st1" d="M624.9,328.3l0.2,0.1l4.1,2.4"/>
		<path id="XMLID_359_" class="st1" d="M629.2,318.5l-2-1.1"/>
		<path id="XMLID_358_" class="st1" d="M626.5,283.4v32.7"/>
		<path id="XMLID_357_" class="st1" d="M630,319.8v10.5"/>
		<path id="XMLID_356_" class="st1" d="M635.1,343.2L635.1,343.2"/>
		<path id="XMLID_355_" class="st1" d="M633,343.8V273"/>
		<path id="XMLID_354_" class="st1" d="M636.7,271l4.5-2.6"/>
		<path id="XMLID_353_" class="st1" d="M636.7,342.4L636.7,342.4"/>
		<path id="XMLID_352_" class="st1" d="M637.6,340.4v-66.5"/>
		<path id="XMLID_351_" class="st1" d="M654.5,315.4v-3.1v5.1"/>
		<path id="XMLID_350_" class="st1" d="M654.5,312.3v-18.5v3.1"/>
		<path id="XMLID_349_" class="st1" d="M654.5,293.8v-15.4v3.1"/>
		<path id="XMLID_348_" class="st1" d="M654.5,278.4v-0.1"/>
		<path id="XMLID_347_" class="st1" d="M637.6,340.4l-0.2,1l-0.4,0.7l-0.3,0.2"/>
		<path id="XMLID_346_" class="st1" d="M634.6,268.7l0.9,0.7l0.8,1"/>
		<path id="XMLID_345_" class="st1" d="M637.6,273.9l-0.2-1.2l-0.2-0.6"/>
		<path id="XMLID_344_" class="st1" d="M636.3,270.4l0.7,1.2l0.2,0.7"/>
		<path id="XMLID_343_" class="st1" d="M624.5,328.4l0.2-0.1l0.2,0"/>
		<path id="XMLID_342_" class="st1" d="M625.5,327.8l0.1-0.1l0.2,0l0.2,0.1"/>
		<path id="XMLID_341_" class="st1" d="M599.4,249.1h0.9l0.9,0.4"/>
		<path id="XMLID_340_" class="st1" d="M598.9,249.4L598.9,249.4"/>
		<path id="XMLID_339_" class="st1" d="M629.2,330.8l0.3,0.1h0.2l0.2-0.1l0.1-0.2l0-0.2"/>
		<path id="XMLID_338_" class="st1" d="M622.6,329.5l-0.2,0.1l-0.1,0l-0.2-0.1"/>
		<path id="XMLID_337_" class="st1" d="M623.6,271.6c1.9-0.6,4.5,1.3,6,4.3c1.3,2.7,1.2,5.4-0.3,6.3"/>
		<path id="XMLID_336_" class="st1" d="M623.7,329.4c1.9-0.6,4.5,1.4,6,4.3c1.3,2.7,1.1,5.4-0.4,6.3"/>
		<path id="XMLID_335_" class="st1" d="M597.8,256.7c1.8-0.6,4.5,1.3,6,4.3c1.3,2.7,1.2,5.4-0.3,6.3"/>
	</g>
	<g>
		<path id="XMLID_334_" class="st1" d="M341.3,209.1c10.2,5.9,10.2,5.9,20.4,11.8c2.1,1.1,2.2,1.1,4.3,2.2c1.8,0.7,1.8,0.7,3.5,1.4
			c1.9,0.6,1.9,0.6,3.8,1.2c2,0.5,2,0.5,4,1c2.1,0.3,2.1,0.3,4.2,0.7c2.1,0.2,2.1,0.2,4.3,0.4c2.2,0.1,2.2,0.1,4.3,0.1
			c2.2-0.1,2.2-0.1,4.3-0.1c2.2-0.2,2.2-0.2,4.3-0.4c2.1-0.3,2.1-0.3,4.2-0.7c1.3-0.3,1.3-0.3,2.6-0.6"/>
		<path id="XMLID_333_" class="st1" d="M342.7,246.3c10.1,5.9,10.2,5.9,20.4,11.8c2.2,1.1,2.2,1.1,4.3,2.2c0.4,0.2,0.4,0.2,0.8,0.3"
			/>
		<path id="XMLID_332_" class="st1" d="M406.9,170.8c-1.3,0.3-1.3,0.3-2.6,0.6c-2.1,0.4-2.1,0.4-4.2,0.7c-2.1,0.2-2.1,0.2-4.3,0.4
			c-2.2,0.1-2.2,0.1-4.3,0.1c-2.2-0.1-2.2-0.1-4.3-0.1c-2.1-0.2-2.1-0.2-4.3-0.4c-2.1-0.3-2.1-0.3-4.2-0.7c-2-0.5-2-0.5-4-1
			c-1.9-0.6-1.9-0.6-3.8-1.2c-1.8-0.7-1.8-0.7-3.5-1.4c-2.2-1.1-2.2-1.1-4.3-2.2c-10.2-5.9-10.2-5.9-20.4-11.8"/>
		<path id="XMLID_331_" class="st1" d="M348.3,195.9c10.5,6.1,10.5,6.1,21.1,12.2c1.2,0.6,1.2,0.6,2.4,1.2c1.3,0.6,1.3,0.6,2.7,1.1
			c1.4,0.5,1.4,0.5,2.9,0.9c1.5,0.4,1.5,0.4,3,0.7c1.6,0.3,1.6,0.3,3.1,0.5c1.6,0.2,1.6,0.2,3.2,0.3c1.6,0.1,1.6,0.1,3.3,0.1
			c1.6-0.1,1.6-0.1,3.3-0.1c1.6-0.1,1.6-0.1,3.2-0.3c1.6-0.3,1.6-0.3,3.1-0.5c1.5-0.4,1.5-0.4,3-0.7c1.4-0.5,1.4-0.5,2.9-0.9
			c0.7-0.3,0.7-0.3,1.3-0.6"/>
		<path id="XMLID_330_" class="st1" d="M349.9,232.7c10.5,6.1,10.5,6.1,21.1,12.2c1.2,0.6,1.2,0.6,2.4,1.2c1.3,0.6,1.3,0.6,2.7,1.1
			c1.4,0.5,1.4,0.5,2.8,0.9c1.5,0.4,1.5,0.4,3,0.7c1.6,0.3,1.6,0.3,3.1,0.5c1.6,0.2,1.6,0.2,3.2,0.3c1.6,0.1,1.6,0.1,3.2,0.1
			c1.6,0,1.6,0,3.3-0.1c1.6-0.1,1.6-0.1,3.2-0.3c1.6-0.2,1.6-0.2,3.1-0.5c1.5-0.3,1.5-0.3,3-0.7c1.4-0.5,1.4-0.5,2.7-0.9"/>
		<path id="XMLID_329_" class="st1" d="M349.9,140.3c10.5,6.1,10.5,6.1,21.1,12.2c1.2,0.6,1.2,0.7,2.4,1.2c1.3,0.6,1.3,0.6,2.7,1.1
			c1.4,0.5,1.4,0.5,2.8,0.9c1.5,0.4,1.5,0.4,3,0.7c1.6,0.3,1.6,0.3,3.1,0.5c1.6,0.2,1.6,0.2,3.2,0.3c1.6,0.1,1.6,0.1,3.2,0.1
			c1.6,0,1.6,0,3.3-0.1c1.6-0.1,1.6-0.1,3.1-0.3c1.6-0.3,1.6-0.3,3.2-0.5c1.5-0.3,1.5-0.3,3-0.7c1.4-0.5,1.4-0.5,2.8-0.9
			c1.3-0.5,1.3-0.5,2.7-1.1c1.2-0.6,1.2-0.6,2.4-1.2c5.2-3,5.2-3,10.4-6"/>
		<path id="XMLID_328_" class="st1" d="M406.9,217c0-23,0-23,0-46.1c0-0.8,0-0.8,0.1-1.6c0.1-0.7,0.1-0.7,0.3-1.4
			c0.2-0.6,0.2-0.6,0.4-1.2c0.3-0.6,0.3-0.6,0.6-1.1c0.2-0.2,0.2-0.2,0.4-0.5c0.2-0.2,0.2-0.2,0.4-0.4c0.5-0.4,0.5-0.4,0.9-0.7
			c1.7-1,1.7-1,3.3-2"/>
		<path id="XMLID_327_" class="st1" d="M407.1,216.5c0-20.1,0-20.1,0-40.3c0-0.5,0-0.5,0.1-1c0.1-0.5,0.1-0.5,0.3-1
			c0.2-0.5,0.2-0.5,0.4-0.9c0.3-0.3,0.3-0.3,0.6-0.7c0.3-0.2,0.3-0.2,0.7-0.5c0.3-0.1,0.3-0.1,0.6-0.1c0.1,0,0.1-0.1,0.3-0.1
			c0.5,0,0.5,0,1,0c0.5,0.1,0.5,0.1,1,0.3c0.5,0.2,0.5,0.2,1,0.5"/>
		<path id="XMLID_326_" class="st1" d="M413,172.8c40.3,23.3,40.3,23.3,80.6,46.5c0.5,0.3,0.5,0.3,0.9,0.6c0.5,0.4,0.5,0.4,1,0.9
			c0.5,0.5,0.5,0.5,1,1c0.4,0.6,0.4,0.6,0.9,1.2c0.4,0.7,0.4,0.7,0.8,1.3c0.3,0.7,0.3,0.7,0.6,1.3c0.3,0.7,0.3,0.7,0.5,1.4
			c0.1,0.7,0.1,0.7,0.3,1.3c0.1,0.6,0.1,0.6,0.1,1.2c0,50,0,50,0,100.1c0,0.5,0,0.5-0.1,1c-0.1,0.5-0.1,0.5-0.3,1
			c-0.2,0.4-0.2,0.4-0.4,0.9c-0.3,0.3-0.3,0.3-0.6,0.7c-0.4,0.2-0.4,0.2-0.7,0.4c-0.4,0.1-0.4,0.1-0.8,0.2c-0.5,0-0.5,0-1,0
			c-0.5-0.1-0.5-0.1-1-0.3c-0.5-0.3-0.5-0.3-1-0.5c-27.5-15.9-27.5-15.9-55-31.8"/>
		<path id="XMLID_325_" class="st1" d="M410,164c0.5-0.2,0.5-0.2,1-0.5c0.6-0.1,0.6-0.1,1.2-0.2c0.7,0,0.7,0,1.3,0
			c0.7,0.1,0.7,0.1,1.4,0.3c0.7,0.3,0.7,0.3,1.4,0.5c0.6,0.3,0.6,0.3,1.2,0.6"/>
		<path id="XMLID_324_" class="st1" d="M417.5,164.8c40.3,23.2,40.3,23.2,80.6,46.5c0.7,0.5,0.7,0.5,1.4,0.9
			c0.3,0.3,0.3,0.3,0.7,0.5c0.3,0.3,0.3,0.3,0.7,0.5c0.7,0.7,0.7,0.7,1.3,1.3c0.6,0.7,0.6,0.7,1.2,1.4c0.6,0.8,0.6,0.8,1.2,1.6
			c0.5,0.8,0.5,0.9,1,1.7c0.5,0.9,0.5,0.9,0.9,1.7c0.4,0.9,0.4,0.9,0.8,1.8c0.3,0.9,0.3,0.9,0.6,1.9c0.3,0.9,0.3,0.9,0.5,1.8
			c0.2,0.9,0.1,0.9,0.3,1.8c0.1,0.7,0.1,0.7,0.1,1.5c0,4.8,0-4.8,0,9.6"/>
		<path id="XMLID_323_" class="st1" d="M504.4,240.3c0.5,0.9,0.5,0.9,1.1,1.8c0.5,0.7,0.5,0.7,1.1,1.5c0.4,0.5,0.4,0.5,0.8,1
			c0.6,0.6,0.6,0.6,1.2,1.2c0.7,0.5,0.7,0.5,1.3,1.1c0.7,0.4,0.7,0.4,1.3,0.9"/>
		<path id="XMLID_322_" class="st1" d="M511.2,247.7c10.6,6.1,10.6,6.1,21.2,12.2c0.5,0.3,0.5,0.3,0.9,0.6c0.5,0.4,0.5,0.4,1,0.9
			c0.5,0.5,0.5,0.5,1,1c0.5,0.6,0.5,0.6,0.9,1.2c0.2,0.4,0.2,0.4,0.4,0.7c0.2,0.3,0.2,0.3,0.3,0.5c0.3,0.7,0.3,0.7,0.6,1.3
			c0.2,0.7,0.2,0.7,0.5,1.4c0.1,0.7,0.1,0.7,0.3,1.3c0.1,0.7,0.1,0.7,0.1,1.3"/>
		<path id="XMLID_321_" class="st1" d="M538.3,270.2c0,29.1,0,29.1,0,58.1c0,0.5,0,0.5-0.1,1c-0.1,0.5-0.1,0.5-0.2,1
			c-0.2,0.4-0.2,0.4-0.4,0.9c-0.3,0.3-0.3,0.4-0.6,0.7c-0.4,0.2-0.4,0.2-0.7,0.5c-0.4,0.1-0.4,0.1-0.8,0.2c-0.4,0-0.4,0-0.8,0
			c-0.1,0-0.1,0-0.2,0c-0.5-0.1-0.5-0.1-1-0.3c-0.5-0.3-0.5-0.3-1-0.5c-10.6-6.1-10.6-6.1-21.2-12.2c-0.5-0.2-0.5-0.2-0.9-0.5
			c-0.7-0.3-0.7-0.3-1.3-0.5c-0.6-0.1-0.6-0.1-1.2-0.3c-0.6,0-0.6,0-1.2,0c-0.6,0.1-0.6,0.1-1.2,0.3c-0.5,0.2-0.5,0.2-1,0.5"/>
		<path id="XMLID_320_" class="st1" d="M508.7,320.1c0,4.8,0,4.8,0,9.6c-0.1,0.8-0.1,0.8-0.1,1.6c-0.1,0.7-0.1,0.7-0.3,1.4
			c-0.2,0.7-0.2,0.7-0.5,1.3c-0.3,0.5-0.3,0.5-0.6,1.1c-0.4,0.5-0.4,0.5-0.8,0.9c-0.5,0.3-0.5,0.3-0.9,0.7c-0.5,0.3-0.5,0.3-1,0.5
			c-0.6,0.1-0.6,0.1-1.2,0.2c-0.7,0-0.7,0-1.3,0c-0.7-0.1-0.7-0.1-1.3-0.3c-0.7-0.3-0.7-0.3-1.4-0.5c-0.6-0.3-0.6-0.3-1.2-0.7"/>
		<path id="XMLID_319_" class="st1" d="M423.7,220.7c0.4,0.1,0.4,0.1,0.7,0.2c0.4,0.2,0.4,0.2,0.8,0.5c0.4,0.3,0.4,0.3,0.7,0.7
			c0.3,0.5,0.3,0.5,0.6,0.9c0.2,0.5,0.2,0.5,0.4,1c0.1,0.5,0.1,0.5,0.2,0.9c0,0.4,0,0.4-0.1,0.9"/>
		<path id="XMLID_318_" class="st1" d="M422.6,135.5c0.2-0.3,0.2-0.3,0.5-0.6c0.6-0.6,0.6-0.6,1.3-1.1c0.7-0.4,0.8-0.4,1.5-0.7
			c0.9-0.1,0.9-0.1,1.7-0.3c0.5,0,0.5,0,1.1,0.1c0.4,0.1,0.4,0.1,0.8,0.1c0.6,0.1,0.6,0.1,1.2,0.3c0.4,0.1,0.4,0.1,0.8,0.3
			c0.6,0.3,0.6,0.3,1.2,0.5c0.4,0.2,0.4,0.2,0.9,0.5c6.4,3.7,6.4,3.7,12.7,7.3"/>
		<path id="XMLID_317_" class="st1" d="M436.7,215c0.1,0.4,0.1,0.4,0.2,0.8c0.3,0.5,0.3,0.5,0.5,1c0.3,0.4,0.3,0.4,0.6,0.8
			c0.4,0.3,0.4,0.3,0.7,0.7c0.4,0.2,0.4,0.2,0.8,0.4"/>
		<path id="XMLID_316_" class="st1" d="M441.6,147.7c0.3-0.1,0.3-0.1,0.6-0.2c0.4-0.3,0.4-0.3,0.8-0.6c0.2-0.2,0.2-0.2,0.4-0.4
			c0.3-0.4,0.3-0.4,0.6-0.8"/>
		<path id="XMLID_315_" class="st1" d="M508.7,320.1c0.3,0.3,0.3,0.3,0.6,0.6c0.5,0.6,0.5,0.6,0.9,1.2c0.3,0.5,0.3,0.5,0.6,1.1
			c0.1,0.5,0.1,0.5,0.3,0.9c0.1,0.5,0.1,0.5,0.1,1"/>
		<path id="XMLID_314_" class="st1" d="M511.2,324.9c0-0.4,0-0.4,0.1-0.8c0.1-0.4,0.1-0.4,0.2-0.9c0.2-0.4,0.2-0.4,0.4-0.7"/>
		<path id="XMLID_313_" class="st1" d="M512.4,322c0.4-0.1,0.4-0.2,0.7-0.3c0.4,0,0.4,0,0.8-0.1c0.4,0.1,0.4,0.1,0.9,0.2
			c0.5,0.2,0.5,0.2,0.9,0.4"/>
		<path id="XMLID_312_" class="st1" d="M515.7,322.3c10.6,6.2,10.6,6.2,21.2,12.3c0.6,0.3,0.6,0.3,1.2,0.6c0.7,0.3,0.7,0.3,1.4,0.5
			c0.7,0.1,0.7,0.1,1.4,0.3c0.6,0,0.6,0,1.2,0c0.6-0.1,0.6-0.1,1.2-0.2c0.5-0.2,0.5-0.2,1-0.5c0.5-0.3,0.5-0.3,0.9-0.7
			c0.4-0.4,0.4-0.4,0.8-0.9c0.3-0.5,0.3-0.5,0.6-1.1c0.2-0.6,0.2-0.6,0.5-1.3c0.1-0.7,0.1-0.7,0.3-1.4c0.1-0.8,0.1-0.8,0.1-1.6"/>
		<path id="XMLID_311_" class="st1" d="M508.7,239.3c0.5-1.2,0.5-1.2,1.1-2.4c0.3-0.9,0.3-0.9,0.7-1.9c0.2-0.7,0.2-0.7,0.4-1.4
			c0.1-0.6,0.1-0.6,0.2-1.2c0-0.3,0-0.3,0.1-0.6"/>
		<path id="XMLID_310_" class="st1" d="M511.2,231.7c0,0.5,0,0.5,0.1,1.1c0.1,0.6,0.1,0.6,0.2,1.1c0.2,0.6,0.2,0.6,0.5,1.2
			c0.3,0.6,0.3,0.6,0.6,1.2c0.4,0.5,0.4,0.5,0.7,1.1c0.4,0.5,0.4,0.5,0.8,0.9c0.5,0.4,0.5,0.4,0.9,0.8c0.4,0.3,0.4,0.3,0.7,0.5"/>
		<path id="XMLID_309_" class="st1" d="M526.7,196.9c0.5,0.7,0.5,0.7,1,1.4c0.4,0.7,0.4,0.7,0.7,1.5c0.4,1.6,0.4,1.6,0.8,3.2"/>
		<path id="XMLID_308_" class="st1" d="M529.3,202.9c0-0.5,0-0.5,0.1-1c0.1-0.5,0.1-0.5,0.3-0.9c0.1-0.2,0.1-0.2,0.2-0.4"/>
		<path id="XMLID_307_" class="st1" d="M565.1,376.4c-10.6-6.1-10.6-6.1-21.1-12.2c-1.5-1-1.5-1-3-2c-1.3-1-1.3-1-2.6-2.1
			c-1.1-1.1-1.1-1.1-2.2-2.3c-0.5-0.6-0.5-0.6-1-1.2c-0.9-1.2-0.9-1.2-1.8-2.5c-0.7-1.2-0.7-1.3-1.3-2.6c-0.3-0.8-0.3-0.8-0.5-1.6
			c-0.4-1.3-0.4-1.3-0.8-2.7c-0.1-1.3-0.1-1.3-0.3-2.7c0-0.9,0-0.9,0-1.7c0.1-1.4,0.1-1.4,0.3-2.7c0.4-1.4,0.4-1.4,0.8-2.7
			c0.3-0.8,0.3-0.8,0.5-1.6c0.7-1.3,0.7-1.3,1.3-2.6c0.2-0.3,0.2-0.3,0.5-0.7"/>
		<path id="XMLID_306_" class="st1" d="M552.6,222.4c-4.3,2.5-4.3,2.5-8.6,5c-1.5,1-1.5,1-3,1.9c-1.3,1-1.3,1-2.6,2.1
			c-1.1,1.1-1.1,1.1-2.2,2.3c-0.5,0.6-0.5,0.6-1,1.2c-0.9,1.2-0.9,1.2-1.8,2.5c-0.7,1.3-0.7,1.3-1.3,2.6c-0.3,0.8-0.3,0.8-0.5,1.6
			c-0.4,1.3-0.4,1.3-0.8,2.7c-0.1,1.4-0.1,1.4-0.3,2.7c0,0.9,0,0.9,0,1.7c0.1,1.4,0.1,1.4,0.3,2.7c0.4,1.3,0.4,1.3,0.8,2.7
			c0.3,0.8,0.3,0.8,0.5,1.6c0.7,1.3,0.6,1.3,1.3,2.6c0.9,1.2,0.9,1.2,1.8,2.5c0.5,0.6,0.5,0.6,1,1.2c1.1,1.2,1.1,1.2,2.2,2.3
			c1.3,1.1,1.3,1.1,2.6,2.1c1.5,1,1.5,1,3,2c10.5,6.1,10.5,6.1,21.1,12.2"/>
		<path id="XMLID_305_" class="st1" d="M547,340.3c-0.4,0.8-0.4,0.8-0.9,1.7c-0.1,0.5-0.1,0.5-0.3,0.9c-0.1,0.4-0.1,0.4-0.1,0.9
			c0,0.3,0,0.3,0.1,0.7"/>
		<path id="XMLID_304_" class="st1" d="M573.2,363.3c-10.7-6.2-10.7-6.2-21.3-12.3c-1.1-0.7-1.1-0.7-2.2-1.4c-1.2-1-1.2-1-2.4-2"/>
		<path id="XMLID_303_" class="st1" d="M562.4,330.5c-5.2,3-5.2,3-10.5,6.1c-1.1,0.7-1.1,0.7-2.2,1.4c-0.4,0.3-0.4,0.3-0.8,0.6"/>
		<path id="XMLID_302_" class="st1" d="M547.3,251.7c1.2,1,1.2,1,2.4,2c1.1,0.7,1.1,0.7,2.2,1.4c10.7,6.2,10.7,6.2,21.3,12.3"/>
		<path id="XMLID_301_" class="st1" d="M562.7,241.3c0.5,0.5,0.5,0.5,1,1c1.1,1.4,1.1,1.4,2.2,2.8c0.5,0.8,0.5,0.8,1,1.6"/>
		<path id="XMLID_300_" class="st1" d="M562.4,234.5c-5.3,3.1-5.3,3.1-10.6,6.1c-1.1,0.7-1.1,0.7-2.2,1.4c-0.4,0.3-0.4,0.3-0.8,0.6"
			/>
		<path id="XMLID_299_" class="st1" d="M555,212.6c0.5-0.6,0.5-0.6,1-1.2c0.7-0.5,0.7-0.5,1.4-0.9c0.5-0.2,0.5-0.2,0.9-0.3
			c0.3-0.1,0.3-0.1,0.7-0.2c0.5-0.1,0.5,0,1-0.1c0.4,0,0.4,0,0.8,0c0.6,0.1,0.6,0.1,1.1,0.2c0.4,0.1,0.4,0.1,0.8,0.2
			c0.6,0.2,0.6,0.2,1.2,0.4c0.5,0.2,0.5,0.2,0.9,0.4c0.6,0.3,0.6,0.3,1.2,0.6c0.5,0.3,0.5,0.3,0.9,0.6c0.6,0.4,0.6,0.4,1.2,0.9
			c1,0.9,1,0.9,2,1.8c1,1,1,1,1.9,2.1c0.9,1.2,0.9,1.2,1.7,2.3c0.8,1.3,0.8,1.3,1.5,2.5c0.6,1.3,0.6,1.3,1.2,2.6
			c0.5,1.3,0.5,1.3,1,2.7c0.3,1.3,0.3,1.3,0.7,2.7c0.2,1.3,0.2,1.3,0.3,2.6c0.1,3.7,0.1,3.7,0,7.4"/>
		<path id="XMLID_298_" class="st1" d="M578.5,317.2c0,3.6,0,3.6,0,7.1c0,0.7,0,0.7-0.1,1.3c-0.1,0.5-0.1,0.5-0.1,1
			c-0.1,0.6-0.1,0.6-0.3,1.2c-0.1,0.5-0.1,0.5-0.3,0.9c-0.2,0.5-0.2,0.5-0.4,1c-0.2,0.4-0.2,0.4-0.4,0.7c-0.3,0.4-0.3,0.4-0.6,0.8
			c-0.3,0.3-0.3,0.3-0.5,0.6c-0.7,0.5-0.7,0.5-1.4,1c-0.8,0.3-0.8,0.3-1.6,0.5c-0.3,0-0.3,0-0.7,0.1"/>
		<path id="XMLID_297_" class="st1" d="M471.9,252.6c-0.1-0.5-0.1-0.5-0.3-1c-0.1-0.5-0.1-0.5-0.1-0.9c0.1-0.3,0.1-0.3,0.1-0.6"/>
		<path id="XMLID_296_" class="st1" d="M475,250.3c0.3,0.4,0.3,0.4,0.6,0.7c0.3,0.5,0.3,0.5,0.5,1c0.1,0.3,0.1,0.3,0.2,0.6"/>
		<path id="XMLID_295_" class="st1" d="M462.9,237c0.4,0.4,0.4,0.4,0.7,0.7c0.4,0.3,0.4,0.3,0.7,0.5c0.3,0.1,0.3,0.1,0.6,0.2"/>
		<path id="XMLID_294_" class="st1" d="M465,233.1c0.2,0.2,0.2,0.2,0.4,0.5c0.3,0.5,0.3,0.5,0.6,0.9c0.2,0.4,0.2,0.4,0.3,0.9"/>
		<path id="XMLID_293_" class="st1" d="M567.4,286.2c0.5-0.3,0.5-0.3,0.9-0.7c0.4-0.4,0.4-0.4,0.8-0.9c0.3-0.4,0.3-0.4,0.5-0.8"/>
		<path id="XMLID_292_" class="st1" d="M567.4,311.4c0.5-0.3,0.5-0.3,0.9-0.7c0.4-0.4,0.4-0.4,0.8-0.9c0.3-0.4,0.3-0.4,0.5-0.8"/>
		<path id="XMLID_291_" class="st1" d="M567.4,298.8c0.4-0.3,0.4-0.3,0.9-0.7c0.4-0.4,0.4-0.4,0.8-0.9c0.3-0.4,0.3-0.4,0.5-0.8"/>
		<path id="XMLID_290_" class="st1" d="M567.4,261c0.4-0.3,0.4-0.3,0.9-0.6c0.4-0.4,0.4-0.4,0.8-0.9c0.3-0.4,0.3-0.4,0.5-0.8"/>
		<path id="XMLID_289_" class="st1" d="M453,231.1c-0.4-0.2-0.4-0.2-0.8-0.4c-1.6-0.6-1.6-0.6-3.2-1.2c-1.4-0.3-1.4-0.3-2.9-0.4"/>
		<path id="XMLID_288_" class="st1" d="M472.1,264.1c0,0.4,0,0.4-0.1,0.9c-0.3,1.7-0.3,1.7-0.6,3.3c-0.5,1.4-0.5,1.4-1.1,2.7"/>
		<path id="XMLID_287_" class="st1" d="M407.1,245.2v3.1"/>
		<path id="XMLID_286_" class="st1" d="M406.9,248.3v-3.9"/>
		<path id="XMLID_285_" class="st1" d="M413.3,162l-3.3,2"/>
		<path id="XMLID_284_" class="st1" d="M411,231.9l-1,0.6"/>
		<path id="XMLID_283_" class="st1" d="M508.7,239.3l-4.3,1"/>
		<path id="XMLID_282_" class="st1" d="M504.4,319l4.3,1.1"/>
		<path id="XMLID_281_" class="st1" d="M498.1,335.8l-59.7-34.4"/>
		<path id="XMLID_280_" class="st1" d="M410.2,145.3l-0.5-0.3v1.9l0.2,0.1"/>
		<path id="XMLID_279_" class="st1" d="M409.6,145l2.4-4.2l0.7,0.4"/>
		<path id="XMLID_278_" class="st1" d="M413.9,203.9l-2.7,3.8"/>
		<path id="XMLID_277_" class="st1" d="M412,140.8v-16.3"/>
		<path id="XMLID_276_" class="st1" d="M413.3,162l18.5-11.3l-3.7,2.3"/>
		<path id="XMLID_275_" class="st1" d="M413.3,140.8l9.4-5.4"/>
		<path id="XMLID_274_" class="st1" d="M421.2,114.1l-6.1,3.5"/>
		<path id="XMLID_273_" class="st1" d="M419.3,211.2L419.3,211.2"/>
		<path id="XMLID_272_" class="st1" d="M421.7,291.8l10,5.8"/>
		<path id="XMLID_271_" class="st1" d="M431.7,297.3l-9.8-5.6"/>
		<path id="XMLID_270_" class="st1" d="M421.5,235.3l1.1-0.7"/>
		<path id="XMLID_269_" class="st1" d="M422.4,221.5l0.2-0.4l0.5-0.4l0.7-0.1"/>
		<path id="XMLID_268_" class="st1" d="M427,225.8l-0.3,0.7l-0.5,0.9"/>
		<path id="XMLID_267_" class="st1" d="M446.1,141.7l-11.6,7.2l-0.5-0.2l-12.2-7"/>
		<path id="XMLID_266_" class="st1" d="M422.2,113.7l4.5-2.4"/>
		<path id="XMLID_265_" class="st1" d="M423.6,233.5l-0.5,3.2"/>
		<path id="XMLID_264_" class="st1" d="M422.7,118.3l27.9,16.1"/>
		<path id="XMLID_263_" class="st1" d="M430.9,239.4L428,241"/>
		<path id="XMLID_262_" class="st1" d="M426.2,207.3L426.2,207.3"/>
		<path id="XMLID_261_" class="st1" d="M428.7,114.8l33.3,19.2l-9.1,5.2l-3.9-2.3l1.5-0.9"/>
		<path id="XMLID_260_" class="st1" d="M430.8,204.7l0-0.3"/>
		<path id="XMLID_259_" class="st1" d="M432.7,150.1l-0.8,0.5l1.8-1.1"/>
		<path id="XMLID_258_" class="st1" d="M432.3,215.7L432.3,215.7"/>
		<path id="XMLID_257_" class="st1" d="M434.5,148.9h0.4"/>
		<path id="XMLID_256_" class="st1" d="M435.7,221.3h1"/>
		<path id="XMLID_255_" class="st1" d="M439.6,218.6l0.7,0.1h1.1"/>
		<path id="XMLID_254_" class="st1" d="M443.4,281.4l-0.1-0.1"/>
		<path id="XMLID_253_" class="st1" d="M443.8,227.7l1.6-0.9"/>
		<path id="XMLID_252_" class="st1" d="M443.2,222.1l0.2,0.1"/>
		<path id="XMLID_251_" class="st1" d="M526.8,196.7l-1.6-1.1l-81.5-47.1l-2.5-0.9l0.5,0"/>
		<path id="XMLID_250_" class="st1" d="M443.9,145.7l5.1-8.7"/>
		<path id="XMLID_249_" class="st1" d="M453,139.3l-6.4,10.9"/>
		<path id="XMLID_248_" class="st1" d="M449.3,300.7l4.5-2.6"/>
		<path id="XMLID_247_" class="st1" d="M449.3,291.2l4.5-2.6"/>
		<path id="XMLID_246_" class="st1" d="M453.8,279.1l-4.5,2.6"/>
		<path id="XMLID_245_" class="st1" d="M453.8,231.7l-4.4,2.6"/>
		<path id="XMLID_244_" class="st1" d="M449.4,224.8l4.5-2.6"/>
		<path id="XMLID_243_" class="st1" d="M447.9,219.5l-0.1-0.1"/>
		<path id="XMLID_242_" class="st1" d="M449.3,215.3l4.6-2.6"/>
		<path id="XMLID_241_" class="st1" d="M451.4,220.4v0.4"/>
		<path id="XMLID_240_" class="st1" d="M451.4,210.9v0.4"/>
		<path id="XMLID_239_" class="st1" d="M451.4,153v-0.4"/>
		<path id="XMLID_238_" class="st1" d="M451,152.8l9.5-5.7v-6.9l1.5-0.9v-5.2l119.7,69.1"/>
		<path id="XMLID_237_" class="st1" d="M455.4,288.4l-0.1-0.1"/>
		<path id="XMLID_236_" class="st1" d="M455.3,229l0.1,0.1"/>
		<path id="XMLID_235_" class="st1" d="M462.9,289.2h-1.1"/>
		<path id="XMLID_234_" class="st1" d="M461.9,235.8l1,1.2"/>
		<path id="XMLID_233_" class="st1" d="M465.2,290.3l-0.2-0.1"/>
		<path id="XMLID_232_" class="st1" d="M465,238.4l0.1,0"/>
		<path id="XMLID_231_" class="st1" d="M466.4,294.7L466.4,294.7"/>
		<path id="XMLID_230_" class="st1" d="M467.5,265.6l4.4-2.6"/>
		<path id="XMLID_229_" class="st1" d="M466.4,235.4l0.1,0.1"/>
		<path id="XMLID_228_" class="st1" d="M472,283.9l0.5-0.8"/>
		<path id="XMLID_227_" class="st1" d="M469.1,253.9L469.1,253.9"/>
		<path id="XMLID_226_" class="st1" d="M471.9,252.5l0.5,1.4"/>
		<path id="XMLID_225_" class="st1" d="M471.7,250l0-0.1"/>
		<path id="XMLID_224_" class="st1" d="M473,311.7l4.7-0.4"/>
		<path id="XMLID_223_" class="st1" d="M472.4,303.2L472.4,303.2"/>
		<path id="XMLID_222_" class="st1" d="M474.9,289.7L474.9,289.7"/>
		<path id="XMLID_221_" class="st1" d="M475,277l0-0.2"/>
		<path id="XMLID_220_" class="st1" d="M475,263.2l0-0.2"/>
		<path id="XMLID_219_" class="st1" d="M474.9,250.3L474.9,250.3"/>
		<path id="XMLID_218_" class="st1" d="M472.4,233.9L472.4,233.9"/>
		<path id="XMLID_217_" class="st1" d="M476.2,282.2l2.7,1.6"/>
		<path id="XMLID_216_" class="st1" d="M476.9,280.5l-0.6,1"/>
		<path id="XMLID_215_" class="st1" d="M480.2,267.7l-4.5,2.6"/>
		<path id="XMLID_214_" class="st1" d="M479.3,299.2L479.3,299.2"/>
		<path id="XMLID_213_" class="st1" d="M479.5,274.4l0-0.2"/>
		<path id="XMLID_212_" class="st1" d="M479.2,245.8L479.2,245.8"/>
		<path id="XMLID_211_" class="st1" d="M483.8,296.5l0.3,0.2"/>
		<path id="XMLID_210_" class="st1" d="M482.5,291.4l3.3,1.9"/>
		<path id="XMLID_209_" class="st1" d="M483.9,275.2l4.6-2.6"/>
		<path id="XMLID_208_" class="st1" d="M487.4,288.8l-2.2-1.3"/>
		<path id="XMLID_207_" class="st1" d="M505.6,336.6l18.1-9.7"/>
		<path id="XMLID_206_" class="st1" d="M504.4,319v-78.6"/>
		<path id="XMLID_205_" class="st1" d="M505.6,219.2l35.2-20.3"/>
		<path id="XMLID_204_" class="st1" d="M511.9,322.5l0.6-0.5"/>
		<path id="XMLID_203_" class="st1" d="M547.6,328.4v-58"/>
		<path id="XMLID_202_" class="st1" d="M515.7,239.6l14.7,8.5"/>
		<path id="XMLID_201_" class="st1" d="M513.2,315.2l0.8-0.5"/>
		<path id="XMLID_200_" class="st1" d="M512.3,312.2v-56"/>
		<path id="XMLID_199_" class="st1" d="M513,311.8v-56"/>
		<path id="XMLID_198_" class="st1" d="M512.5,236.2l32.9-19"/>
		<path id="XMLID_197_" class="st1" d="M527.4,324.4l-12.1-7"/>
		<path id="XMLID_196_" class="st1" d="M528.2,324l-12.1-7"/>
		<path id="XMLID_195_" class="st1" d="M527.4,261.5l-12.1-7"/>
		<path id="XMLID_194_" class="st1" d="M537.2,188l-3.9-2.3l-6.6,11.1"/>
		<path id="XMLID_193_" class="st1" d="M529.8,200.6l7.4-12.6l1.6-0.9"/>
		<path id="XMLID_192_" class="st1" d="M529.6,324.6l0.3-0.2"/>
		<path id="XMLID_191_" class="st1" d="M530.5,322.7v-56"/>
		<path id="XMLID_190_" class="st1" d="M529.4,201.7l10.9-6.6"/>
		<path id="XMLID_189_" class="st1" d="M533.3,185.7l9.1-5.2"/>
		<path id="XMLID_188_" class="st1" d="M542.2,228.4l0.2-0.1"/>
		<path id="XMLID_187_" class="st1" d="M541.2,228.3l0.7,0.4"/>
		<path id="XMLID_186_" class="st1" d="M542.7,225.5v2"/>
		<path id="XMLID_185_" class="st1" d="M540.3,195.1v-8.3"/>
		<path id="XMLID_184_" class="st1" d="M541.8,187.1l34,19.6"/>
		<path id="XMLID_183_" class="st1" d="M545.9,344.4l-0.2-0.6"/>
		<path id="XMLID_182_" class="st1" d="M545.9,343.1l0.1-1.1"/>
		<path id="XMLID_181_" class="st1" d="M545.9,344.4l0.3,1.1l0.3,0.7"/>
		<path id="XMLID_180_" class="st1" d="M544.4,335.3l22.9-12.4l-0.3,0.4l-0.1,0.5v6.6"/>
		<path id="XMLID_179_" class="st1" d="M546,246.1l-0.2,1.7l0.1,0.7l-0.2-0.6"/>
		<path id="XMLID_178_" class="st1" d="M546.5,250.3l-0.3-0.7l-0.3-1.1"/>
		<path id="XMLID_177_" class="st1" d="M545.9,247.2l0.3-1.1l0.9-1.7"/>
		<path id="XMLID_176_" class="st1" d="M545.7,217.9l10.5-6.1"/>
		<path id="XMLID_175_" class="st1" d="M545.4,212.5V209"/>
		<path id="XMLID_174_" class="st1" d="M546.5,346.2l0.9,1.3l1.8,1.9"/>
		<path id="XMLID_173_" class="st1" d="M548.9,338.6l-1.4,1.5l-0.9,1.3"/>
		<path id="XMLID_172_" class="st1" d="M549.2,253.4l-1.8-1.9l-0.9-1.2"/>
		<path id="XMLID_171_" class="st1" d="M546.8,250.6l0.3,0l1.1-0.4l14.5-8.8"/>
		<path id="XMLID_170_" class="st1" d="M566.9,246.8l-14.7,8.5"/>
		<path id="XMLID_169_" class="st1" d="M548.9,242.7l-1.4,1.5l-0.9,1.3"/>
		<path id="XMLID_168_" class="st1" d="M550.6,320.8l16.8-9.4"/>
		<path id="XMLID_167_" class="st1" d="M550.9,307.7L563,301v0.3"/>
		<path id="XMLID_166_" class="st1" d="M550.6,308.2l16.8-9.4"/>
		<path id="XMLID_165_" class="st1" d="M550.6,295.6l16.8-9.4"/>
		<path id="XMLID_164_" class="st1" d="M550.6,283l9.6-5.3"/>
		<path id="XMLID_163_" class="st1" d="M552.5,324.9l19.3-10.8"/>
		<path id="XMLID_162_" class="st1" d="M553,318.3l19-10.6"/>
		<path id="XMLID_161_" class="st1" d="M552.8,312.2l19.1-10.7"/>
		<path id="XMLID_160_" class="st1" d="M572,295.1l-19.2,10.7"/>
		<path id="XMLID_159_" class="st1" d="M552.8,299.6l19.1-10.7"/>
		<path id="XMLID_158_" class="st1" d="M552.9,293.2l19.1-10.6"/>
		<path id="XMLID_157_" class="st1" d="M552.7,287l12-6.7"/>
		<path id="XMLID_156_" class="st1" d="M552.8,280.7l6.4-3.6"/>
		<path id="XMLID_155_" class="st1" d="M552.7,274.4l0.9-0.5"/>
		<path id="XMLID_154_" class="st1" d="M575.7,346.7l-13.6-7.9"/>
		<path id="XMLID_153_" class="st1" d="M563.9,338l9.2-5.3l0.5-0.2"/>
		<path id="XMLID_152_" class="st1" d="M562.7,325.4v2.6"/>
		<path id="XMLID_151_" class="st1" d="M563,301l-0.7-0.4"/>
		<path id="XMLID_150_" class="st1" d="M572,257.3l-8.3,4.6"/>
		<path id="XMLID_149_" class="st1" d="M562.7,241.3V237"/>
		<path id="XMLID_148_" class="st1" d="M567.1,323.3l11.4-6.1"/>
		<path id="XMLID_147_" class="st1" d="M564.7,262.5l2.7-1.5"/>
		<path id="XMLID_146_" class="st1" d="M566.9,246.8l0.4,0.6l-0.3-0.7l11.4-7.1"/>
		<path id="XMLID_145_" class="st1" d="M567.1,246.7l-0.1-0.6v-6.7"/>
		<path id="XMLID_144_" class="st1" d="M569.3,265.1l2.6-1.4"/>
		<path id="XMLID_143_" class="st1" d="M581.8,310.5V251"/>
		<path id="XMLID_142_" class="st1" d="M583.2,347.5l6.1-3.5"/>
		<path id="XMLID_141_" class="st1" d="M583.2,214.7l10.4-6"/>
		<path id="XMLID_140_" class="st1" d="M586.3,340.6v-26.9"/>
		<path id="XMLID_139_" class="st1" d="M586.3,225.1v66.8"/>
		<path id="XMLID_138_" class="st1" d="M590.2,343.3l4.4-2.7"/>
		<path id="XMLID_137_" class="st1" d="M592,340.1l0.4-2.9v-20"/>
		<path id="XMLID_136_" class="st1" d="M592.4,221.6v52.3"/>
		<path id="XMLID_135_" class="st1" d="M470.1,255.8l-0.4-0.9l-0.6-0.9"/>
		<path id="XMLID_134_" class="st1" d="M465,295.4h0.4l0.6-0.2l0.4-0.5"/>
		<path id="XMLID_133_" class="st1" d="M465,290.1l-0.6-0.5l-0.7-0.4l-0.7-0.1"/>
		<path id="XMLID_132_" class="st1" d="M470.1,278.6l-0.4,0.5l-0.6,0.2"/>
		<path id="XMLID_131_" class="st1" d="M428.5,231.8l0.4-0.5l0.6-0.2"/>
		<path id="XMLID_130_" class="st1" d="M459.2,236.9l0.6,0.9l0.5,0.9"/>
		<path id="XMLID_129_" class="st1" d="M433.2,215.1l-0.5,0.2l-0.4,0.5"/>
		<path id="XMLID_128_" class="st1" d="M476,289.3l-0.4,0.3l-0.6,0.1"/>
		<path id="XMLID_127_" class="st1" d="M531.7,240.8l-0.1,0.1l-0.4,0.8l0,0.9"/>
		<path id="XMLID_126_" class="st1" d="M542.7,227.4l-0.1,0.5l-0.2,0.4l-0.3,0.2h-0.4l-0.5-0.2"/>
		<path id="XMLID_125_" class="st1" d="M432.7,150.1l1.9-1.1l0.4-0.1"/>
		<path id="XMLID_124_" class="st1" d="M421.5,113.9l0.7-0.3l0.7-0.1l-1.6,0.6"/>
		<path id="XMLID_123_" class="st1" d="M422.8,113.5l0.6-0.1l1.8,0.1l-1.4-0.1"/>
		<path id="XMLID_122_" class="st1" d="M425.2,113.5l0.7,0.2l2.7,1.2l-1.8-0.9l-0.5-0.2"/>
		<path id="XMLID_121_" class="st1" d="M551,295l0.6,0.1"/>
		<path id="XMLID_120_" class="st1" d="M591.1,342.3l0.7-1.5l-0.9,1.6l-1.7,1.6"/>
		<path id="XMLID_119_" class="st1" d="M590.6,342.9l-0.5,0.5l-0.6,0.5"/>
		<path id="XMLID_118_" class="st1" d="M581.8,203.2l1.8,1.2l0.5,0.4L581.8,203.2"/>
		<path id="XMLID_117_" class="st1" d="M585.3,205.9l1.4,1.5"/>
		<path id="XMLID_116_" class="st1" d="M587.7,208.7l1.2,1.8"/>
		<path id="XMLID_115_" class="st1" d="M591.2,215.3l0.6,1.9"/>
		<path id="XMLID_114_" class="st1" d="M592.4,221.6l-0.1-2.1l-0.1-0.7"/>
		<path id="XMLID_113_" class="st1" d="M589.7,211.9l0.9,1.9"/>
		<path id="XMLID_112_" class="st1" d="M450.5,134.4l0.4,0.3l0.2,0.4v0.4l-0.2,0.4l-0.4,0.3"/>
		<path id="XMLID_111_" class="st1" d="M456.7,298.4l5.6,3l3.5,1.4"/>
		<path id="XMLID_110_" class="st1" d="M513,255.8l0.1-1l0.4-0.7"/>
		<path id="XMLID_109_" class="st1" d="M528.2,324l0.9,0.4h0.8"/>
		<path id="XMLID_108_" class="st1" d="M465.8,255.7c-0.6-1.7-0.1-3.1,1.1-3.1c0.7,0,1.5,0.5,2.2,1.3"/>
		<path id="XMLID_107_" class="st1" d="M479.3,299.2c-1.3-1.1-2.1-3.1-1.7-4.4c0.1-0.3,0.2-0.5,0.3-0.7"/>
		<path id="XMLID_106_" class="st1" d="M481.9,299.6c-0.6,0.6-1.6,0.5-2.6-0.4"/>
		<path id="XMLID_105_" class="st1" d="M434.2,246.5c0-9.7,6.8-13.6,15.2-8.8c8.4,4.8,15.2,16.6,15.2,26.3c0,9.7-6.8,13.6-15.2,8.8
			c-1.1-0.7-2.3-1.5-3.4-2.4"/>
		<path id="XMLID_104_" class="st1" d="M465,290.1c1.3,1.3,1.9,3.3,1.5,4.4c0,0,0,0.1,0,0.1"/>
		<path id="XMLID_103_" class="st1" d="M423.6,233.5c0.6-2.4,1.4-4.5,2.6-6.2"/>
		<path id="XMLID_102_" class="st1" d="M431.1,243.8c0.1-2.7,0.7-5.1,1.7-7.1"/>
		<path id="XMLID_101_" class="st1" d="M441.5,231.7c4.9,0.1,10.7,3.5,15.6,9"/>
		<path id="XMLID_100_" class="st1" d="M457.1,278.7c-3.7-0.1-7.9-2-11.9-5.4"/>
		<path id="XMLID_99_" class="st1" d="M465.8,255.7c2.3,7,2.3,13.7,0,18"/>
		<path id="XMLID_98_" class="st1" d="M435.8,221.4c2.4-0.3,4.9-0.1,7.7,0.8"/>
		<path id="XMLID_97_" class="st1" d="M443.4,222.1c3.9,1.2,8.1,3.6,12,7"/>
		<path id="XMLID_96_" class="st1" d="M455.4,229.1c2.3,1.9,4.5,4.2,6.5,6.7"/>
		<path id="XMLID_95_" class="st1" d="M457.1,278.7c1.2,0,2.7,1.4,3.2,3.1c0.6,1.7,0.1,3.1-1.1,3.1c0,0,0,0-0.1,0"/>
		<path id="XMLID_94_" class="st1" d="M468.8,299.4c1.1-0.2,2.6,1,3.4,2.7c0.2,0.4,0.3,0.7,0.3,1.1"/>
		<path id="XMLID_93_" class="st1" d="M472.5,303.2c0.3,1.3-0.1,2.3-1,2.5"/>
		<path id="XMLID_92_" class="st1" d="M469.1,279.3c-1.2,0.1-2.6-1.3-3.3-3c-0.4-1-0.4-2-0.1-2.6"/>
		<path id="XMLID_91_" class="st1" d="M455.2,288.3c-3.9-1.2-7.9-3.5-11.8-6.8"/>
		<path id="XMLID_90_" class="st1" d="M461.9,289.1c-2.1,0.1-4.3-0.2-6.6-0.9"/>
		<path id="XMLID_89_" class="st1" d="M411.7,246.8c-1.4-6.3-2-12.3-1.6-17.8"/>
		<path id="XMLID_88_" class="st1" d="M410.4,225.5c0.9-6.1,3.1-11.1,6.3-14.7"/>
		<path id="XMLID_87_" class="st1" d="M427.2,204.8c13.4-2.8,30.9,7.4,44.3,25.6"/>
		<path id="XMLID_86_" class="st1" d="M471.5,305.6c-9.2,1.9-20.5-2.3-31.3-11.4"/>
		<path id="XMLID_85_" class="st1" d="M481.9,248.4c9.1,20.7,9.1,41,0,51.1"/>
		<path id="XMLID_84_" class="st1" d="M426.4,239.6c0.2-3,1-5.6,2.1-7.8"/>
		<path id="XMLID_83_" class="st1" d="M439.5,225.5c6.2,0.2,13.5,4.4,19.7,11.4"/>
		<path id="XMLID_82_" class="st1" d="M459.2,284.9c-4.7-0.1-10-2.6-15.1-6.9"/>
		<path id="XMLID_81_" class="st1" d="M470.1,255.8c3,8.9,3,17.3,0,22.8"/>
		<path id="XMLID_80_" class="st1" d="M416.7,210.8c0.6-0.7,1.7-0.5,2.7,0.4"/>
		<path id="XMLID_79_" class="st1" d="M419.4,211.2c1.3,1.2,2,3.1,1.7,4.4c-0.1,0.2-0.2,0.4-0.3,0.6"/>
		<path id="XMLID_78_" class="st1" d="M429.5,231.1c1.2-0.1,2.6,1.3,3.3,3c0.4,1,0.4,2,0.1,2.6"/>
		<path id="XMLID_77_" class="st1" d="M472.5,233.9c-0.3,1.3-1.7,1.4-3,0.3c-0.3-0.2-0.5-0.5-0.8-0.8"/>
		<path id="XMLID_76_" class="st1" d="M471.5,230.4c0.8,1.2,1.2,2.6,1,3.6"/>
		<path id="XMLID_75_" class="st1" d="M471.8,249.9c0.5-1.1,1.9-1,3.1,0.3c0,0,0,0,0,0"/>
		<path id="XMLID_74_" class="st1" d="M441.5,231.7c-1.2,0-2.7-1.4-3.2-3.1c-0.6-1.7-0.1-3.1,1.1-3.1c0,0,0,0,0.1,0"/>
		<path id="XMLID_73_" class="st1" d="M460.3,238.7c0.6,1.7,0.2,3.2-1,3.2c-0.7,0-1.5-0.4-2.2-1.2"/>
		<path id="XMLID_72_" class="st1" d="M415.1,229.7c0.8-5.5,2.7-10.1,5.6-13.4"/>
		<path id="XMLID_71_" class="st1" d="M429.9,211c11.7-2.4,27.1,6.5,38.8,22.4"/>
		<path id="XMLID_70_" class="st1" d="M468.7,299.4c-8,1.7-18-2-27.4-10"/>
		<path id="XMLID_69_" class="st1" d="M477.9,249.3c8,18.1,8,35.9,0,44.8"/>
		<path id="XMLID_68_" class="st1" d="M429.9,211c-1.1,0.2-2.6-1-3.4-2.7c-0.1-0.3-0.3-0.7-0.3-1"/>
		<path id="XMLID_67_" class="st1" d="M426.2,207.3c-0.3-1.3,0.1-2.4,1-2.5"/>
		<path id="XMLID_66_" class="st1" d="M435.7,221.3c-1.1,0.1-2.6-1.1-3.3-2.9c-0.4-1-0.5-2-0.1-2.7"/>
		<path id="XMLID_65_" class="st1" d="M475,289.8c-1.2-0.1-2.7-1.5-3.2-3.2c-0.3-1.1-0.3-2.1,0.2-2.6"/>
		<path id="XMLID_64_" class="st1" d="M475,276.9c-0.6,2.4-1.4,4.5-2.6,6.2"/>
		<path id="XMLID_63_" class="st1" d="M472.4,254c1.2,3.1,2.1,6.2,2.6,9.2"/>
		<path id="XMLID_62_" class="st1" d="M475,263.2c0.9,5,0.9,9.7,0,13.7"/>
		<path id="XMLID_61_" class="st1" d="M466.4,235.5c0.5,1.7-0.1,3.1-1.3,2.9c0,0-0.1,0-0.1,0"/>
		<path id="XMLID_60_" class="st1" d="M418.4,232.6c0.5-4.4,1.9-8.1,4-11.1"/>
		<path id="XMLID_59_" class="st1" d="M433.1,215.1c9.9-1.2,22.3,5.9,32.2,18.5"/>
		<path id="XMLID_58_" class="st1" d="M465.3,295.4c-7,0.8-15.3-2.6-23.2-9.3"/>
		<path id="XMLID_57_" class="st1" d="M476.1,252.1c6,14.9,5.9,29.3-0.1,37.3"/>
		<path id="XMLID_56_" class="st1" d="M547.3,225.5c1.2-4.1,5.6-4.3,9.8-0.5c3.4,3.1,5.7,8,5.7,12"/>
		<path id="XMLID_55_" class="st1" d="M410.3,153.3c-2.1-8.5,1.4-14.4,7.8-13.1c1.2,0.2,2.5,0.7,3.7,1.5"/>
		<path id="XMLID_54_" class="st1" d="M566.9,330.5c0,7.7-5.4,10.9-12.1,7c-0.7-0.4-1.4-0.9-2.1-1.4"/>
		<path id="XMLID_53_" class="st1" d="M538.8,187.1c0.8-0.4,2.2-0.4,3,0"/>
		<path id="XMLID_52_" class="st1" d="M477.9,249.3c-0.8-1.7-0.5-3.3,0.6-3.5c0.2,0,0.5,0,0.8,0"/>
		<path id="XMLID_51_" class="st1" d="M479.3,245.8c1,0.3,2,1.3,2.6,2.6"/>
		<path id="XMLID_50_" class="st1" d="M586.3,340.6c0.3,6.9-3.7,10.3-9.6,7.3c-0.4-0.2-0.7-0.4-1-1.2"/>
		<path id="XMLID_49_" class="st1" d="M413.6,151.6c-0.3-5.5,3.1-8.1,7.7-5.8c2.6,1.3,5.1,3.9,6.9,7.2"/>
		<path id="XMLID_48_" class="st1" d="M407.8,248c-8-31.1,4.1-53.2,27-49.2c23,4,48.1,32.5,56.1,63.6s-4.1,53.2-27,49.2
			c-8-1.4-16.6-5.8-24.8-12.8"/>
		<path id="XMLID_47_" class="st1" d="M542.7,225.5c0.1-7.7,5.5-10.8,12.2-6.8c6.6,3.9,12,13.1,12,20.8"/>
		<path id="XMLID_46_" class="st1" d="M412,124.5c-0.1-6.8,4.4-9.8,10.3-6.5c0.1,0.1,0.2,0.1,0.4,0.4"/>
		<path id="XMLID_45_" class="st1" d="M413.9,203.9c12.6-17.8,40.4-10.3,62.1,16.8c21.7,27.1,29.1,63.5,16.5,81.3
			c-4,5.6-9.7,8.9-16.5,9.6"/>
		<path id="XMLID_44_" class="st1" d="M530.5,322.7c0,1.9-1.4,2.7-3,1.8c0,0,0,0,0,0"/>
		<path id="XMLID_43_" class="st1" d="M592.4,337.1c0,1.4-0.2,2.6-0.6,3.7"/>
		<path id="XMLID_42_" class="st1" d="M584.1,204.8c4.9,4,8.3,11,8.3,16.8"/>
		<path id="XMLID_41_" class="st1" d="M575.7,206.7c5.9,3.4,10.6,11.6,10.6,18.4"/>
		<path id="XMLID_40_" class="st1" d="M562.7,328c0,4-2.3,6.2-5.6,5.5"/>
		<path id="XMLID_39_" class="st1" d="M552.8,274.4c-1.5,0.9-2.8,0.1-2.8-1.6c0-0.3,0-0.6,0.1-0.9"/>
		<path id="XMLID_38_" class="st1" d="M527.4,261.4c1.7,1,3,3.3,3,5.3c0,0,0,0,0,0"/>
		<path id="XMLID_37_" class="st1" d="M434.5,208.4c5.7-1.2,12.5,0.3,19.4,4.3"/>
		<path id="XMLID_36_" class="st1" d="M488.4,272.3c0,8.1-2,14.8-6,19.2"/>
		<path id="XMLID_35_" class="st1" d="M414.5,229.1c0.1-7.2,1.7-13.4,4.7-18.1"/>
		<path id="XMLID_34_" class="st1" d="M472.6,303.4c-7.3,0.3-15.6-2.7-23.8-8.7"/>
		<path id="XMLID_33_" class="st1" d="M572,257.3c1.5-0.7,2.7,0.1,2.6,1.9c-0.1,1.7-1.3,3.6-2.7,4.5"/>
		<path id="XMLID_32_" class="st1" d="M552.8,312.2c-1.5,0.9-2.8,0.1-2.8-1.6c0-1.7,1.2-3.8,2.8-4.7"/>
		<path id="XMLID_31_" class="st1" d="M515.3,317.5c-1.7-1-3-3.3-3-5.3c0,0,0,0,0,0"/>
		<path id="XMLID_30_" class="st1" d="M415.6,227.4c-0.1-3.5,0.1-6.8,0.7-9.9"/>
		<path id="XMLID_29_" class="st1" d="M572,282.5c1.5-0.7,2.7,0.1,2.6,1.9c-0.1,1.7-1.3,3.7-2.7,4.5"/>
		<path id="XMLID_28_" class="st1" d="M552.8,287c-1.5,0.8-2.7,0.1-2.7-1.7c0-1.7,1.2-3.8,2.7-4.6"/>
		<path id="XMLID_27_" class="st1" d="M552.5,324.9c-1.5,0.7-2.6-0.2-2.5-2c0.1-1.8,1.5-3.8,3-4.5l0,0"/>
		<path id="XMLID_26_" class="st1" d="M484,296.7c-1.3-1-2.2-3-1.9-4.4c0.1-0.3,0.2-0.6,0.4-0.9"/>
		<path id="XMLID_25_" class="st1" d="M572,307.7c1.5-0.8,2.7,0.1,2.6,1.8c-0.1,1.7-1.3,3.7-2.8,4.5"/>
		<path id="XMLID_24_" class="st1" d="M512.3,256.2c0-1.9,1.4-2.7,3-1.8c0,0,0,0,0,0"/>
		<path id="XMLID_23_" class="st1" d="M552.8,299.6c-1.5,0.8-2.8,0.1-2.7-1.7c0-1.8,1.3-3.8,2.8-4.7c0,0,0,0,0,0"/>
		<path id="XMLID_22_" class="st1" d="M434.5,208.4c-1.1,0.2-2.6-1-3.4-2.7c-0.1-0.3-0.3-0.7-0.3-1"/>
		<path id="XMLID_21_" class="st1" d="M572,295.1c1.5-0.8,2.7,0,2.7,1.8c-0.1,1.7-1.3,3.7-2.8,4.6"/>
		
			<ellipse id="XMLID_20_" transform="matrix(0.866 0.5 -0.5 0.866 261.2879 -235.1114)" class="st1" cx="569.4" cy="370" rx="4.5" ry="7.7"/>
		<path id="XMLID_19_" class="st1" d="M471.4,275.4c-1.2-1.4-1.7-3.3-1.1-4.4c0,0,0-0.1,0.1-0.1"/>
		<path id="XMLID_18_" class="st1" d="M516.1,317c-1.7-1-3-3.3-3-5.3c0,0,0,0,0,0"/>
		<path id="XMLID_17_" class="st1" d="M342.7,246.3c-2.4-0.8-2.8-4.5-1-8.3c1.8-3.8,5.3-6.3,7.7-5.5c0.2,0.1,0.4,0.1,0.5,0.2"/>
		<path id="XMLID_16_" class="st1" d="M435,247.1c-0.3-4.9,1.2-8.8,4-10.7"/>
		<path id="XMLID_15_" class="st1" d="M460.4,273.6c-3.8,1.9-9.2,0.3-14.2-4.2"/>
		
			<ellipse id="XMLID_14_" transform="matrix(-0.866 -0.5 0.5 -0.866 925.4013 796.1741)" class="st1" cx="569.4" cy="274.1" rx="4.5" ry="7.7"/>
		<path id="XMLID_13_" class="st1" d="M479.6,274.2c-0.6,2.4-1.4,4.5-2.6,6.2"/>
		<path id="XMLID_12_" class="st1" d="M480.2,268.2c0,2.2-0.3,4.2-0.7,6.1"/>
		<path id="XMLID_11_" class="st1" d="M341.3,209.1c-2.3-0.7-2.7-4.3-0.9-8.1c1.8-3.7,5.1-6.1,7.4-5.4c0.2,0.1,0.3,0.1,0.5,0.2"/>
		<path id="XMLID_10_" class="st1" d="M422.7,236.3c-0.2-5.8,0.7-10.8,2.6-14.8"/>
		<path id="XMLID_9_" class="st1" d="M465.9,292.8c-5.2-0.5-10.8-2.9-16.3-7"/>
		<path id="XMLID_8_" class="st1" d="M342.7,153.8c-2.4-0.8-2.8-4.5-0.9-8.3c1.9-3.8,5.3-6.3,7.7-5.5c0.2,0.1,0.3,0.1,0.5,0.2"/>
		<path id="XMLID_7_" class="st1" d="M446.2,229.1c-1.2,0.1-2.6-1.3-3.3-3c0,0,0-0.1,0-0.1"/>
		<path id="XMLID_6_" class="st1" d="M441.3,218.6c2.1-0.1,4.3,0.2,6.6,0.9"/>
		<path id="XMLID_5_" class="st1" d="M448,219.5c1.8,0.6,3.7,1.4,5.6,2.4"/>
		<path id="XMLID_4_" class="st1" d="M477.9,286.3c-1.3-1.2-2-3.1-1.6-4.4c0-0.1,0.1-0.3,0.2-0.4"/>
		<path id="XMLID_3_" class="st1" d="M431.2,243.8c-0.6-4.3-0.4-8.2,0.6-11.4"/>
		<path id="XMLID_2_" class="st1" d="M460.3,281.8c-3.3-0.8-6.8-2.6-10.2-5.2"/>
	</g>
</g>
<g id="XMLID_782_">
	<g id="XMLID_785_">
		<path id="XMLID_798_" d="M813.4,3c14,0,25.5,11.4,25.5,25.5v538.3c0,14-11.4,25.5-25.5,25.5H28.5c-14,0-25.5-11.4-25.5-25.5V28.5
			C3,14.4,14.4,3,28.5,3H813.4 M813.4,0H28.5C12.8,0,0,12.8,0,28.5v538.3c0,15.7,12.8,28.5,28.5,28.5h784.9
			c15.7,0,28.5-12.8,28.5-28.5V28.5C841.9,12.8,829.1,0,813.4,0L813.4,0z"/>
	</g>
	<g id="XMLID_784_">
		<path id="XMLID_811_" d="M1.5,83.5V28.5c0-14.9,12.1-27,27-27h55.1v55.1c0,14.9-12.1,27-27,27H1.5z"/>
		<g id="XMLID_807_">
			<path id="XMLID_808_" d="M82,3v53.6C82,70.6,70.6,82,56.6,82H3V28.5C3,14.4,14.4,3,28.5,3H82 M85,0H28.5C12.8,0,0,12.8,0,28.5V85
				h56.6C72.2,85,85,72.2,85,56.6V0L85,0z"/>
		</g>
	</g>
	<g id="XMLID_786_">
		<path id="XMLID_787_" class="st2" d="M54.3,50.1h-3.8v7.3h-6.5v-7.3H30.4v-5.8l12.5-20.6h7.5v21.2h3.8V50.1z M43.9,44.9V30.2
			l-8.5,14.6H43.9z"/>
	</g>
</g>
</svg>
