<?xml version="1.0" encoding="utf-8"?>
<!-- Generator: Adobe Illustrator 19.0.0, SVG Export Plug-In . SVG Version: 6.00 Build 0)  -->
<svg version="1.1" id="Layer_1" xmlns="http://www.w3.org/2000/svg" xmlns:xlink="http://www.w3.org/1999/xlink" x="0px" y="0px"
	 width="841.9px" height="595.3px" viewBox="0 0 841.9 595.3" style="enable-background:new 0 0 841.9 595.3;" xml:space="preserve"
	>
<style type="text/css">
	.st0{fill:#FFFFFF;stroke:#000000;stroke-linecap:round;stroke-linejoin:round;}
	.st1{fill:none;stroke:#0B0620;stroke-width:0.5;stroke-linecap:round;stroke-linejoin:round;}
	.st2{fill:#FFFFFF;}
</style>
<g>
	<g id="Actor_.1">
		<g>
			<path class="st0" d="M562.2,187.4l-145.8,84.2l-8.7-15.1l-32,58.8l66.9,1.8l-8.7-15.2l154.1-89"/>
			<path class="st0" d="M609.6,160.1l81.9-47.3l17.5,30.3l-73.6,42.5"/>
		</g>
	</g>
	<g id="Actor_.2">
		<g>
			<path class="st1" d="M582.5,278.7c0,1.3,0,1.3,0,2.6c0.1,1,0.1,1,0.3,2c0.1,0.2,0.1,0.2,0.2,0.4c0.5,0.8,0.5,0.8,0.9,1.6"/>
			<path class="st1" d="M582.5,269.1c0-3.3,0-3.3,0-6.7c0.1-1.1,0.1-1.1,0.3-2.2c0.4-1.2,0.4-1.2,0.8-2.4c0.6-1.1,0.6-1.1,1.2-2.3
				c0.8-1,0.8-1,1.6-2c0.9-0.7,0.9-0.7,1.8-1.5c1-0.7,1-0.7,2-1.3"/>
			<path class="st1" d="M590.2,250.8c-1.1,0.7-1.1,0.7-2.2,1.4c-0.9,0.7-0.9,0.7-1.8,1.4c-0.8,0.9-0.8,0.9-1.6,1.9
				c-0.6,1.1-0.6,1.1-1.2,2.2c-0.4,1.2-0.4,1.2-0.8,2.3c-0.1,1.1-0.1,1.1-0.3,2.2c0,0.2,0,0.2,0,0.4"/>
			<path class="st1" d="M598.4,254.9c-1.2,0.8-1.2,0.8-2.5,1.6c-0.6,0.4-0.6,0.4-1.2,0.9c-0.3,0.3-0.3,0.3-0.7,0.6
				c-0.5,0.6-0.5,0.6-1,1.2c-0.3,0.4-0.3,0.4-0.6,0.8c-0.4,0.7-0.4,0.7-0.8,1.4c-0.2,0.5-0.2,0.5-0.4,0.9c-0.3,0.7-0.3,0.7-0.6,1.4
				c-0.1,0.5-0.1,0.5-0.2,0.9c-0.1,0.7-0.1,0.7-0.3,1.4c0,0.4,0,0.4,0,0.9"/>
			<path class="st1" d="M590.2,266.9c0,28,0,9.4,0,18.7c0.1,0.7,0.1,0.7,0.1,1.3c0.1,0.4,0.1,0.4,0.2,0.7c0.2,0.5,0.3,0.5,0.5,0.9
				c0.2,0.3,0.2,0.3,0.4,0.5"/>
			<path class="st1" d="M596.7,288.8c-0.3,0.2-0.3,0.2-0.6,0.3c-1,0.4-1,0.4-1.9,0.7c-0.2,0-0.2,0-0.5,0c-0.9,0-0.9,0-1.8,0"/>
			<path class="st1" d="M599,257.5c-0.4-1.8-0.4-1.8-0.9-3.7c-0.7-2-0.7-2-1.4-3.9c-1-1.9-1.1-1.9-2.2-3.7c-0.7-1-0.7-1-1.5-2"/>
			<path class="st1" d="M596.5,272.3c0-3.2,0-2.8,0-5.5c0-0.5,0-0.5,0.1-0.9c0.2-0.5,0.2-0.5,0.3-1c0.3-0.5,0.3-0.5,0.5-0.9
				c0.2-0.3,0.2-0.3,0.5-0.5"/>
			<path class="st1" d="M637,240.8c0-2.9,0,2.9,0,5.8c-0.1,0.5-0.1,0.5-0.1,0.9c-0.2,0.5-0.2,0.5-0.4,1"/>
			<path class="st1" d="M644.7,236.1c0,7.7,0,7.7,0,15.5c-0.1,0.5-0.1,0.5-0.2,0.9c-0.1,0.3-0.1,0.3-0.2,0.5
				c-0.2,0.3-0.2,0.3-0.3,0.6"/>
			<path class="st1" d="M644.7,228.4c0.7-0.3,0.7-0.3,1.3-0.6c0.6-0.2,0.6-0.2,1.1-0.3c0.3,0,0.3,0,0.6,0c0.5,0.1,0.5,0.1,1,0.1"/>
			<path class="st1" d="M650,228.4c0.1,0.3,0.1,0.3,0.3,0.5c0.3,0.5,0.3,0.5,0.5,0.9c0.1,0.3,0.1,0.3,0.1,0.7
				c0.1,0.6,0.1,0.6,0.1,1.1"/>
			<path class="st1" d="M645.4,260.6c0.8-0.6,0.8-0.6,1.6-1.2c0.9-0.9,0.9-1,1.6-1.9c0.7-1.1,0.7-1.1,1.3-2.3
				c0.4-1.2,0.4-1.2,0.8-2.4c0.2-1.1,0.2-1.1,0.3-2.3"/>
			<path class="st1" d="M649.7,227.6c-0.2-0.2-0.2-0.2-0.4-0.3c-0.7-0.5-0.7-0.5-1.3-0.9c-2.4-1.4-2.4-1.4-4.9-2.8"/>
			<path class="st1" d="M485.1,146.9v85"/>
			<path class="st1" d="M484.9,232v-85.1"/>
			<path class="st1" d="M486.1,144.6l0.9-0.5l-1.3,0.8"/>
			<path class="st1" d="M487,144.1l22.6-13l-3.2,1.9"/>
			<path class="st1" d="M488.7,145l95.6,55.2"/>
			<path class="st1" d="M488.7,144.8l95.8,55.3"/>
			<path class="st1" d="M584.4,298.2l-72-41.6"/>
			<path class="st1" d="M584.4,298.4l-72.3-41.7"/>
			<path class="st1" d="M532.6,117.7l-23,13.3"/>
			<path class="st1" d="M528.9,119.9l2.8-1.6"/>
			<path class="st1" d="M531.2,205.3v-35.7"/>
			<path class="st1" d="M534.8,118.2l52.3,30.2"/>
			<path class="st1" d="M543.5,175.2l-3.7-16.9v0.2l3.7,16.9l40.9,23.6v-0.2L543.5,175.2v0.2"/>
			<path class="st1" d="M587.9,247l-29.5-17"/>
			<path class="st1" d="M560.4,146.4l29.2,2.1l40.9,23.6l-46.1,26.6"/>
			<path class="st1" d="M582.5,281.3v-2.6"/>
			<path class="st1" d="M583.9,285.3l0.4,0.3l4.8,2.8v1.8l0.2,0.1v-1.8"/>
			<path class="st1" d="M582.5,278.7v-9.6v3.2"/>
			<path class="st1" d="M586.9,298.4l0.4-0.2"/>
			<path class="st1" d="M587,298.6l1-0.6l-1.4,0.8"/>
			<path class="st1" d="M584.2,256.7l7.7,4.4"/>
			<path class="st1" d="M588.1,287.9v8.4"/>
			<path class="st1" d="M587.9,296.1v-8.4"/>
			<path class="st1" d="M588,298l22.3-12.9l-0.7,0.4"/>
			<path class="st1" d="M589.2,290.3l1.6-0.9"/>
			<path class="st1" d="M591.3,289l0.8,0.5l0.5,0.3h1h0.7l1.9-0.8l0.4-0.2"/>
			<path class="st1" d="M591.9,289.9l-0.5-0.2l-2.4-1.4"/>
			<path class="st1" d="M588.1,206.4v45.7"/>
			<path class="st1" d="M587.9,206.4v45.9"/>
			<path class="st1" d="M589.2,233v-26"/>
			<path class="st1" d="M589.1,233.1v-26"/>
			<path class="st1" d="M587,202.8l0.7-0.4"/>
			<path class="st1" d="M587.8,202.4l46.1-26.6"/>
			<path class="st1" d="M590.2,250.8l5.1-3.3"/>
			<path class="st1" d="M645.3,230.9l-0.9-3.6l-1.4-4l-46.1,26.6l-2.2-3.7l-1.5-2"/>
			<path class="st1" d="M590.3,238.7l46.1-26.6"/>
			<path class="st1" d="M596.7,279.5l-0.1-0.1l-0.1-0.7v0.3l0.1,0.7l0.3,0.5l0.5,0.3h0.5"/>
			<path class="st1" d="M596.6,279.6L596.6,279.6l-0.1-0.1L596.6,279.6"/>
			<path class="st1" d="M596.5,275.5v-3.2v6.4"/>
			<path class="st1" d="M597.9,263.4l-0.1,0.1l0.1-0.4"/>
			<path class="st1" d="M596.5,269.1v-2.3"/>
			<path class="st1" d="M596.5,271.5l38.8-22.4"/>
			<path class="st1" d="M596.7,288.8l0.8-0.5L596.7,288.8"/>
			<path class="st1" d="M597.8,289.5l46.1-26.6"/>
			<path class="st1" d="M597.5,288.3L597.5,288.3l1.4-0.8L597.5,288.3"/>
			<path class="st1" d="M597.9,263.4l39.1-22.6"/>
			<path class="st1" d="M599.2,257.5l-0.9-3.7l-1.4-4"/>
			<path class="st1" d="M613.4,261.7l-6.3-3.7"/>
			<path class="st1" d="M610.3,285.2l23.2-13.4"/>
			<path class="st1" d="M634.2,268.5v1.2"/>
			<path class="st1" d="M632.6,272.3l0.1-0.1"/>
			<path class="st1" d="M635.4,206.5v-26"/>
			<path class="st1" d="M636.6,248.4l0.3-0.9l0.1-1"/>
			<path class="st1" d="M637,246.9v-0.3"/>
			<path class="st1" d="M637,240.8l6.2-3.6l-1.4,0.9"/>
			<path class="st1" d="M643,223.2l-2.2-3.7l-1.5-2"/>
			<path class="st1" d="M644.1,236.7l-0.9,0.5l0.7-0.4"/>
			<path class="st1" d="M643.5,237.2h-0.4"/>
			<path class="st1" d="M648.7,227.6l0.5,0.2l0.8,0.6"/>
			<path class="st1" d="M651.1,250.6v-19l-0.3-2l-1-1.9"/>
			<path class="st1" d="M634.2,269.6l-0.2,1.2l-0.5,0.9l-0.8,0.5"/>
			<path class="st1" d="M531.7,118.2l0.8-0.5h1l1.2,0.5"/>
			<path class="st1" d="M635.3,249.1c2-1.7,5.6-0.1,8.1,3.6s2.9,8.1,1,9.9c-0.1,0.1-0.3,0.2-0.4,0.3"/>
			<path class="st1" d="M599,257.5c0.6,2.5,0.2,4.6-1.1,5.6"/>
			<path class="st1" d="M630.5,172.2c2.7,1.5,4.8,5.3,4.8,8.4l0,0"/>
			<path class="st1" d="M484.9,146.9c0-2.4,1.7-3.3,3.7-2.1l0,0"/>
			<path class="st1" d="M593.1,244.2c-2.5-3.5-4-7.6-4-11.2"/>
			<path class="st1" d="M588.1,296.2c0,2.4-1.7,3.3-3.7,2.2l0,0"/>
			<path class="st1" d="M599.2,257.5c0.7,2.7,0.1,5-1.3,5.9"/>
			<path class="st1" d="M584.4,199c2.6,1.5,4.6,5.1,4.6,8.1"/>
			<path class="st1" d="M584.4,200.3c1.9,1.1,3.5,3.9,3.5,6.1l0,0"/>
			<path class="st1" d="M593.2,244.1c-2.5-3.4-3.9-7.5-3.9-10.9"/>
			<path class="st1" d="M596.5,278.5c2.7,3.3,3.6,7.8,2.1,10c-0.7,1-1.9,1.4-3.3,1.1"/>
			<path class="st1" d="M539.8,158.3c-1.3-5.8,5.9-11.1,15.9-11.9c1.5-0.1,3.1-0.1,4.6,0"/>
			<path class="st1" d="M639.3,217.5c-2.5-3.4-3.9-7.5-3.9-10.9"/>
			<path class="st1" d="M587.9,296.1c0,2.3-1.6,3.2-3.5,2.1l0,0"/>
			<path class="st1" d="M584.4,200.1c2.1,1.2,3.7,4.1,3.7,6.4l0,0"/>
			<path class="st1" d="M584.4,198.8c2.7,1.5,4.8,5.3,4.8,8.4l0,0"/>
			<path class="st1" d="M645.3,230.9c0.7,2.8,0.1,5.1-1.4,5.9"/>
			<path class="st1" d="M485.1,147.1c0-2.3,1.6-3.2,3.5-2l0,0"/>
			<path class="st1" d="M596.5,278.2c2.8,3.4,3.8,8,2.3,10.3c-0.8,1.2-2.2,1.6-3.9,1.1"/>
		</g>
	</g>
	<g id="Actor_.3">
		<g>
			<path class="st1" d="M52.6,482.6c12.5,7.2,12.5,7.2,25,14.4c0.5,0.4,0.5,0.4,0.9,0.8c0.3,0.4,0.3,0.4,0.7,0.8"/>
			<path class="st1" d="M87,453.6c-0.6-0.4-0.6-0.4-1.2-0.7c-0.8-0.3-0.8-0.4-1.6-0.7c-0.9-0.2-0.9-0.2-1.9-0.3c-1,0-1,0-2,0
				c-0.9,0.2-0.9,0.2-1.8,0.3c-0.8,0.3-0.8,0.3-1.6,0.7c-0.3,0.2-0.3,0.2-0.6,0.3c-0.7,0.5-0.7,0.5-1.3,1"/>
			<path class="st1" d="M76.7,458.6c-0.3-0.2-0.3-0.2-0.6-0.4c-0.3-0.3-0.3-0.3-0.7-0.6c-0.1-0.2-0.1-0.2-0.3-0.4
				c-0.2-0.4-0.2-0.4-0.3-0.7"/>
			<path class="st1" d="M85.2,504.3c-0.4,0-0.4,0-0.7,0c-0.6,0-0.6,0-1.2,0c-0.6-0.1-0.6-0.1-1.1-0.2c-0.4-0.1-0.4-0.1-0.8-0.2
				c-0.5-0.2-0.5-0.2-1-0.4c-0.3-0.1-0.3-0.1-0.6-0.3c-0.4-0.3-0.4-0.3-0.8-0.5c-0.2-0.2-0.2-0.2-0.4-0.4c-0.3-0.3-0.3-0.3-0.5-0.7
				c-0.1-0.2-0.1-0.2-0.2-0.4c-0.1-0.4-0.1-0.4-0.2-0.7c0-0.3,0-0.3,0-0.7"/>
			<path class="st1" d="M138,534.1c-25.2-14.5-25.2-14.5-50.4-29.1c-0.7-0.5-0.7-0.5-1.5-1c-0.3-0.3-0.3-0.3-0.7-0.7"/>
			<path class="st1" d="M139.2,532.6c-25.3-14.6-25.3-14.6-50.7-29.3c-0.2-0.1-0.2-0.1-0.4-0.2c-1.4-0.5-1.4-0.5-2.9-0.9"/>
			<path class="st1" d="M278,347.1c-92.3,53.3-92.3,53.3-184.6,106.6c-0.7,0.3-0.7,0.3-1.3,0.5c-0.9,0.2-0.9,0.2-1.9,0.3
				c-0.9,0-0.9,0-1.7,0"/>
			<path class="st1" d="M88,454.2c0.3,0.1,0.3,0.1,0.5,0.2c0.3,0.1,0.3,0.1,0.7,0.1c0.9,0,0.9,0,1.8-0.1"/>
			<path class="st1" d="M273.8,339.6c0.7-0.5,0.7-0.5,1.3-1c0.3-0.2,0.3-0.2,0.6-0.4c0.8-0.3,0.8-0.3,1.6-0.7
				c0.9-0.2,0.9-0.2,1.9-0.4c1,0,1,0,2,0c0.9,0.2,0.9,0.2,1.9,0.4c0.8,0.3,0.8,0.3,1.6,0.7c1.1,0.6,1.1,0.6,2.2,1.3"/>
			<path class="st1" d="M273.5,341.7c0.2,0.4,0.2,0.4,0.3,0.7c0.2,0.2,0.2,0.2,0.3,0.5c0.3,0.3,0.3,0.3,0.7,0.6
				c0.3,0.2,0.3,0.2,0.6,0.4"/>
			<path class="st1" d="M287.2,339.8c0.9,0,0.9,0,1.7,0c0.9-0.1,0.9-0.1,1.9-0.3c0.3-0.1,0.3-0.1,0.6-0.2"/>
			<path class="st1" d="M286.7,339.5c0.2,0.1,0.2,0.1,0.5,0.2s0.3,0.1,0.7,0.1c0.9,0,0.9,0,1.9-0.1"/>
			<path class="st1" d="M310.6,334.7c16.4,3.4,16.5,3.4,32.9,7.5c14.2,5.9,14.2,6,28.1,12.3c19.5,11,19.5,11,38.8,22.4"/>
			<path class="st1" d="M310.9,332.9c16.6,3.5,16.7,3.5,33.2,7.5c14.3,5.9,14.3,6,28.4,12.4c19.6,11.1,19.6,11.1,38.9,22.5"/>
			<path class="st1" d="M311.1,330.6c19.4,4.6,19.4,4.6,38.7,9.1c0.7,0.1,0.7,0.2,1.4,0.3c1.7,0,1.7,0,3.5,0"/>
			<path class="st1" d="M353,340c0.2-0.1,0.2-0.1,0.4-0.2c0.5-0.1,0.5-0.2,1-0.3c1-0.1,1-0.1,2-0.2c1,0,1,0,2,0.1
				c0.9,0.2,0.9,0.2,1.8,0.5c1.1,0.6,1.1,0.6,2.2,1.2"/>
			<path class="st1" d="M362.3,341.1c0.5,0.6,0.5,0.6,1,1.2c0.3,0.4,0.3,0.4,0.5,0.8c0.2,0.7,0.2,0.7,0.4,1.4
				c0.1,0.6,0.1,0.6,0.2,1.2"/>
			<path class="st1" d="M377.3,352.4c-1-0.6-1-0.6-2-1.1c-6-3.1-6-3-11.9-6.1c-0.5-0.3-0.5-0.3-1-0.6"/>
			<path class="st1" d="M376.1,408.4c17.4-10,17.4-10,34.8-20.1c0.5-0.3,0.5-0.3,0.9-0.7c0.6-0.7,0.6-0.7,1.1-1.4
				c0.3-0.5,0.3-0.5,0.6-0.9"/>
			<path class="st1" d="M310.6,334.7c-0.5,0-0.5,0-0.9-0.1c-0.4,0.1-0.4,0.1-0.9,0.1c-0.4,0.1-0.4,0.1-0.7,0.3"/>
			<path class="st1" d="M49.5,506.4v-24.7"/>
			<path class="st1" d="M51.7,508.9l24.7,14.3"/>
			<path class="st1" d="M78.4,499.2l-0.7-0.1l-1-0.4l-25-14.4"/>
			<path class="st1" d="M86.1,453.1l0.9,0.5"/>
			<path class="st1" d="M75.1,454.4l-1.2,2.1l-0.2,1v7.7l-21.9,12.6"/>
			<path class="st1" d="M57.8,482.4l0.2,0.1l-1.4-0.8L57.8,482.4"/>
			<path class="st1" d="M58,482.5l6.5,3.7l-1.8-1"/>
			<path class="st1" d="M56.4,481.6l0.1,0.1L56.4,481.6"/>
			<path class="st1" d="M307.2,333.5L56.3,478.3"/>
			<path class="st1" d="M57.3,479.9l250.9-144.8"/>
			<path class="st1" d="M309.3,344.1L63.8,485.9"/>
			<path class="st1" d="M64.4,486.2l77.4,44.7l-2.1-1.2"/>
			<path class="st1" d="M73.6,465.2l5.9-3.4l0.9-0.8l0.5-1.1v-1.1"/>
			<path class="st1" d="M76.4,525.3v-22.4l0.3-1.2l-0.3,1.2"/>
			<path class="st1" d="M76.7,501v0.3"/>
			<path class="st1" d="M76.6,501.6l0.1-0.9L76.6,501.6"/>
			<path class="st1" d="M76.8,500.6l-0.1,0.3"/>
			<path class="st1" d="M74.8,456.5l-0.1-0.5l0.1-0.7l0.6-1.1L77,453"/>
			<path class="st1" d="M78.8,528.5v-25.7"/>
			<path class="st1" d="M80.4,499.7l-0.9-0.2"/>
			<path class="st1" d="M78.4,462.4l0.7-0.8l0.9-2"/>
			<path class="st1" d="M84,501.8l1.1,0.7"/>
			<path class="st1" d="M87,453.6l1,0.6L87,453.6"/>
			<path class="st1" d="M88.1,529.9l50,28.9"/>
			<path class="st1" d="M87.3,529.6v-24.9"/>
			<path class="st1" d="M279.6,344.1v1l-0.5,1.1l-1,0.9"/>
			<path class="st1" d="M88,454.2L88,454.2"/>
			<path class="st1" d="M90.2,454.5l0.8-0.1"/>
			<path class="st1" d="M92.7,454l-0.7,0.3"/>
			<path class="st1" d="M139.9,559.2v-24.7"/>
			<path class="st1" d="M141.8,558.8l37.4-21.6"/>
			<path class="st1" d="M142.6,533.6l-0.9,0.5"/>
			<path class="st1" d="M142.7,531.4l-0.8-0.5l0.3,0.3v0.3l-0.1,0.2l-1.2,0.7"/>
			<path class="st1" d="M143.4,540v-0.6v0.4l0.1,0.7h0.1l-0.1-0.1"/>
			<path class="st1" d="M143.4,539.4v-3.2V539.4"/>
			<path class="st1" d="M143.2,541.3l0.7,0.3l1.1,0.1l0.9-0.4l35.2-20.3"/>
			<path class="st1" d="M143.4,532.2v3.9"/>
			<path class="st1" d="M143.4,532.9v-0.7"/>
			<path class="st1" d="M141.8,530.9l0.8,0.5"/>
			<path class="st1" d="M181.1,508.2l-5.6-3.2"/>
			<path class="st1" d="M188.5,489.9l-13,7.5"/>
			<path class="st1" d="M175.5,492.1l13-7.5"/>
			<path class="st1" d="M180.8,527.8l0.5-0.7l-1,1.2"/>
			<path class="st1" d="M181.4,534.6V527l-0.2,0.2"/>
			<path class="st1" d="M181.4,527l1.2-1.4"/>
			<path class="st1" d="M185.7,520v-5.4"/>
			<path class="st1" d="M199.7,481.9v5.4"/>
			<path class="st1" d="M210.8,489.9l5.6,3.2"/>
			<path class="st1" d="M216.4,487.7l-5.6-3.2"/>
			<path class="st1" d="M227.5,495.8v-5.4"/>
			<path class="st1" d="M238.7,493.1l79.7-46.1"/>
			<path class="st1" d="M238.7,487.7l79.7-46"/>
			<path class="st1" d="M272.3,350.4v-7.7l0.2-1l1.2-2.1"/>
			<path class="st1" d="M286.7,339.5l-2.2-1.3L286.7,339.5"/>
			<path class="st1" d="M275.7,338.2l-1.5,1.2l-0.7,1.1v0.7v0.5"/>
			<path class="st1" d="M277.1,347.6l0.7-0.8l0.9-2.1"/>
			<path class="st1" d="M291.4,339.3l-0.7,0.3"/>
			<path class="st1" d="M289,339.8l0.8-0.1"/>
			<path class="st1" d="M304.9,331.6l-12.8,7.4l-0.8,0.3"/>
			<path class="st1" d="M308.4,420.6v-1.4"/>
			<path class="st1" d="M309.3,334.7v9.4"/>
			<path class="st1" d="M354.7,340H353"/>
			<path class="st1" d="M318.4,428.8l-5.6-3.2"/>
			<path class="st1" d="M325.9,410.6l-13,7.5"/>
			<path class="st1" d="M312.9,412.7l13-7.5"/>
			<path class="st1" d="M322.9,440.6v-1v2.4"/>
			<path class="st1" d="M322.9,433.8v5.8v-4.3"/>
			<path class="st1" d="M337,402.5v5.4"/>
			<path class="st1" d="M353.8,413.8l-5.6-3.2"/>
			<path class="st1" d="M348.2,405.2l5.6,3.2"/>
			<path class="st1" d="M353,340h-0.2"/>
			<path class="st1" d="M354.6,339.7h0.1"/>
			<path class="st1" d="M356.5,340h-1.8"/>
			<path class="st1" d="M356.5,340l-1.8-0.3"/>
			<path class="st1" d="M363.2,344.1l0.2-0.9L363,342l-1-1.1"/>
			<path class="st1" d="M375.4,351.2l2,1.1"/>
			<path class="st1" d="M362.5,344.5l-0.7-1"/>
			<path class="st1" d="M364.2,345.5l-2-2.2"/>
			<path class="st1" d="M364.9,416.5v-5.4"/>
			<path class="st1" d="M371.1,363.8l40.9,23.6"/>
			<path class="st1" d="M415,391.3l-38.9,22.5"/>
			<path class="st1" d="M412.8,372.9l2.2,1.3l-37.7-21.8"/>
			<path class="st1" d="M412.2,384.8v-7.5"/>
			<path class="st1" d="M415.8,390v-1.9v2.1"/>
			<path class="st1" d="M415.8,384.9v-3.2v6.4"/>
			<path class="st1" d="M415.8,375v6.7"/>
			<path class="st1" d="M415,376.3l-0.9,0.5"/>
			<path class="st1" d="M413.2,375.2l1.2-0.7l0.1-0.2V374l-0.1-0.2l-0.2-0.2"/>
			<path class="st1" d="M411.3,375.2l0.3,0.1l0.8,0.1l0.7-0.2"/>
			<path class="st1" d="M86.3,529.6h1l0.8,0.3"/>
			<path class="st1" d="M139,532.5l0.3,0.1l0.8,0.1l0.7-0.2"/>
			<path class="st1" d="M415,374.1l0.5,0.4l0.2,0.5v0.5l-0.3,0.4l-0.5,0.4"/>
			<path class="st1" d="M415.8,390v0.5l-0.3,0.4l-0.5,0.4"/>
			<path class="st1" d="M57.3,479.9l-0.5,0.4l-0.3,0.5v0.5l0.3,0.5l0.5,0.4"/>
			<path class="st1" d="M142.7,531.4l0.5,0.4l0.2,0.5v0.5l-0.3,0.5l-0.5,0.4"/>
			<path class="st1" d="M376.1,408.4c-6.2,3.6-16.1,3.6-22.3,0l0,0"/>
			<path class="st1" d="M188.5,484.5c6.2-3.6,16.1-3.6,22.3,0l0,0"/>
			<path class="st1" d="M325.9,405.2c6.2-3.6,16.2-3.6,22.3,0l0,0"/>
			<path class="st1" d="M238.7,487.8c-6.2,3.6-16.1,3.6-22.3,0"/>
			<path class="st1" d="M318.5,428.8c6.2,3.6,6.2,9.3,0,12.9"/>
			<path class="st1" d="M312.9,425.6c-6.2-3.6-6.2-9.3,0-12.9l0,0"/>
			<path class="st1" d="M181.4,534.6c-0.3,1-1,1.8-2.2,2.5"/>
			<path class="st1" d="M86.3,529.7c-4.2,0.6-8.5-0.8-9.6-3.2c-0.2-0.4-0.3-0.8-0.3-1.2"/>
			<path class="st1" d="M307.2,333.5c1-0.6,2.4-0.8,3.7-0.6"/>
			<path class="st1" d="M51.7,508.9c-1.2-0.7-1.9-1.6-2.2-2.5"/>
			<path class="st1" d="M141.7,558.8c-1,0.6-2.7,0.6-3.7,0c0,0,0,0-0.1,0"/>
			<path class="st1" d="M52.4,482.5c-2.4-1.5-2.3-3.8,0.2-5.2"/>
			<path class="st1" d="M305,331.6c1.6-0.9,3.9-1.3,6.2-1"/>
			<path class="st1" d="M181.1,508.2c6.2,3.6,6.2,9.3,0,12.9l0,0"/>
			<path class="st1" d="M175.5,504.9c-6.2-3.6-6.2-9.3,0-12.9l0,0"/>
			<path class="st1" d="M56.4,481.5c-1.5-0.9-1.5-2.2-0.1-3.1"/>
			<path class="st1" d="M325.9,410.6c6.2-3.6,16.2-3.6,22.3,0l0,0"/>
			<path class="st1" d="M141.7,534.1c-1,0.6-2.7,0.6-3.7,0c0,0,0,0-0.1,0"/>
			<path class="st1" d="M414.1,376.8c-1,0.6-2.7,0.6-3.7,0c0,0,0,0-0.1,0"/>
			<path class="st1" d="M171.6,501.2c0.8-1.4,2.1-2.7,3.9-3.7"/>
			<path class="st1" d="M322.9,439.2c0.8,2.9-0.9,5.8-4.4,7.9"/>
			<path class="st1" d="M309,421.8c0.8-1.4,2.1-2.7,3.9-3.8"/>
			<path class="st1" d="M376.1,413.8c-6.2,3.6-16.1,3.6-22.3,0l0,0"/>
			<path class="st1" d="M185.7,520c0,2.3-1.5,4.5-4.3,6.2"/>
			<path class="st1" d="M188.5,489.9c6.2-3.6,16.1-3.6,22.3,0l0,0"/>
			<path class="st1" d="M51.7,484.2c-3.1-1.8-3.1-4.7,0-6.4"/>
			<path class="st1" d="M238.7,493.1c-6.2,3.6-16.1,3.6-22.3,0"/>
		</g>
	</g>
	<g id="Actor_.4">
		<g>
			<path class="st1" d="M723.9,198.3c0,0.2,0,0.7,0,1.3c0.1,1,0.1,1,0.3,2c0.1,0.2,0.1,0.2,0.2,0.4c0.5,0.8,0.5,0.8,0.9,1.5"/>
			<path class="st1" d="M733.4,208.3c0.9,0,0.9,0,1.8,0c0.2,0,0.2,0,0.5,0c1-0.4,1-0.4,1.9-0.8c0.5-0.3,0.5-0.3,1-0.6"/>
			<path class="st1" d="M732.8,207.3c-0.2-0.3-0.2-0.3-0.4-0.5c-0.3-0.5-0.3-0.5-0.5-0.9c-0.1-0.3-0.1-0.4-0.2-0.7
				c-0.1-0.6-0.1-0.6-0.1-1.2"/>
			<path class="st1" d="M731.6,203.9c0-9.4,0-9.4,0-18.7c0-0.5,0-0.5,0-0.9c0.1-0.7,0.1-0.7,0.2-1.4c0.1-0.5,0.1-0.5,0.3-0.9
				c0.3-0.7,0.3-0.7,0.6-1.4c0.2-0.5,0.2-0.5,0.4-0.9c0.4-0.7,0.4-0.7,0.8-1.4c0.3-0.4,0.3-0.4,0.6-0.8c0.5-0.6,0.5-0.6,1-1.2
				c0.3-0.3,0.3-0.3,0.7-0.6c0.6-0.4,0.6-0.4,1.2-0.9c1.2-0.8,1.2-0.8,2.5-1.6"/>
			<path class="st1" d="M725.2,175.8c-0.1,0.2-0.1,0.2-0.2,0.4c-0.4,1.2-0.4,1.2-0.8,2.4c0,0.3,0,0.3,0,0.5"/>
			<path class="st1" d="M724.2,179c0-0.3,0-0.3,0-0.6c0.4-1.2,0.4-1.2,0.8-2.3c0.6-1.1,0.6-1.1,1.2-2.2c0.8-1,0.8-1,1.6-1.9
				c0.9-0.7,0.9-0.7,1.7-1.4c0.9-0.6,0.9-0.6,1.9-1.2"/>
			<path class="st1" d="M731.4,169.3c-0.9,0.5-0.9,0.5-1.7,1.1c-0.9,0.7-0.9,0.7-1.8,1.5c-0.8,1-0.8,1-1.6,2c-0.5,0.9-0.5,0.9-1,1.9
				"/>
			<path class="st1" d="M740.5,175.9c-0.4-1.9-0.4-1.9-0.9-3.7c-0.7-2-0.7-2-1.4-3.9c-1-1.8-1.1-1.8-2.2-3.7c-0.7-1-0.7-1-1.5-2"/>
			<path class="st1" d="M738,195.1c0-6.4,0-5,0-10c0-0.5,0-0.5,0.1-0.9c0.2-0.5,0.2-0.5,0.3-1c0.3-0.5,0.3-0.5,0.6-0.9
				c0.2-0.3,0.2-0.3,0.4-0.5"/>
			<path class="st1" d="M786.9,179c0.8-0.6,0.8-0.6,1.6-1.2c0.9-0.9,0.9-0.9,1.6-1.9c0.7-1.1,0.7-1.1,1.3-2.3
				c0.4-1.2,0.4-1.2,0.8-2.4c0.2-1.1,0.2-1.2,0.3-2.3"/>
			<path class="st1" d="M786.2,154.4c0,7.8,0,7.8,0,15.5c-0.1,0.4-0.1,0.4-0.2,0.9c-0.1,0.3-0.1,0.3-0.2,0.5
				c-0.2,0.3-0.2,0.3-0.3,0.6"/>
			<path class="st1" d="M784.6,142c2.4,1.4,2.4,1.4,4.9,2.8c0.7,0.5,0.7,0.5,1.3,0.9c0.2,0.2,0.2,0.2,0.4,0.3"/>
			<path class="st1" d="M790.2,145.9c-0.5-0.1-0.5-0.1-1-0.1c-0.3,0-0.3,0-0.6,0c-0.6,0.1-0.6,0.1-1.1,0.3c-0.7,0.3-0.7,0.3-1.3,0.6
				"/>
			<path class="st1" d="M626.6,65.3v85"/>
			<path class="st1" d="M626.4,150.3v-85"/>
			<path class="st1" d="M627.1,63.1l1.8-1l-1.4,0.8"/>
			<path class="st1" d="M628.9,62.1l22.6-13l-2,1.2"/>
			<path class="st1" d="M630.1,63.1l95.8,55.3"/>
			<path class="st1" d="M630.1,63.3l95.6,55.2"/>
			<path class="st1" d="M651.5,49.1L674,36"/>
			<path class="st1" d="M653.8,174.9l72,41.6"/>
			<path class="st1" d="M725.9,216.7L653.6,175"/>
			<path class="st1" d="M672.7,123.6V87.9"/>
			<path class="st1" d="M671.7,37.4l1.9-1.1"/>
			<path class="st1" d="M676.3,36.5l52.3,30.2"/>
			<path class="st1" d="M685,93.7l-3.7-16.9v-0.2l3.7,16.9l40.9,23.6v0.2L685,93.7v-0.2"/>
			<path class="st1" d="M729.4,165.3l-29.5-17"/>
			<path class="st1" d="M701.9,64.7l29.2,2.2L772,90.5l-46.1,26.6"/>
			<path class="st1" d="M723.9,199.6v-1.3"/>
			<path class="st1" d="M725.4,203.6l0.4,0.3l7.2,4.1l0.5,0.2"/>
			<path class="st1" d="M738.6,206.9l-0.9,0.5l-1.9,0.7h-0.7l-1-0.1l-0.6-0.3l-0.8-0.5"/>
			<path class="st1" d="M723.9,198.3v-9.6v3.2"/>
			<path class="st1" d="M723.9,188.6v-7.9l0.2-1.8l-0.2,1.6v1.6"/>
			<path class="st1" d="M728.5,216.9l0.4-0.3l-0.8,0.5"/>
			<path class="st1" d="M728.4,216.7l0.4-0.2"/>
			<path class="st1" d="M725.6,175l7.7,4.5"/>
			<path class="st1" d="M728.5,121.2l0.7-0.4"/>
			<path class="st1" d="M729.4,206.1v8.4"/>
			<path class="st1" d="M729.6,214.6v-8.4"/>
			<path class="st1" d="M728.9,216.7l25.8-14.9l-3.2,1.8"/>
			<path class="st1" d="M732.3,207.7l-1.6,0.9l-0.2-0.1v-1.8"/>
			<path class="st1" d="M730.7,208.7v-1.8"/>
			<path class="st1" d="M732.1,207.6L732.1,207.6"/>
			<path class="st1" d="M729.4,124.7v45.9"/>
			<path class="st1" d="M729.6,124.7v45.8"/>
			<path class="st1" d="M736.8,165.8l-5.4,3.5"/>
			<path class="st1" d="M731.8,157l46.1-26.6"/>
			<path class="st1" d="M730.7,151.4v-26"/>
			<path class="st1" d="M730.5,151.5v-26"/>
			<path class="st1" d="M729.3,120.7l46.1-26.6"/>
			<path class="st1" d="M786.8,149.2l-0.9-3.7l-1.4-4l-46.1,26.6l-2.2-3.8l-1.5-2"/>
			<path class="st1" d="M738.6,206.9l1.8-1L738.6,206.9"/>
			<path class="st1" d="M738.2,197.8l-0.1-0.1l-0.1-0.6V195v2.3l0.1,0.7l0.3,0.6l0.5,0.3h0.5"/>
			<path class="st1" d="M738.1,197.9L738.1,197.9L738.1,197.9L738.1,197.9"/>
			<path class="st1" d="M739.4,181.7l-0.1,0.1l0.1-0.4"/>
			<path class="st1" d="M738,191.1v0.8"/>
			<path class="st1" d="M776.7,167.4L738,189.8"/>
			<path class="st1" d="M738.4,168.2l1.4,4l0.9,3.7"/>
			<path class="st1" d="M739.2,207.8l46.1-26.6"/>
			<path class="st1" d="M778.5,165v-5.9l-39.1,22.6"/>
			<path class="st1" d="M748.6,176.4l6.3,3.7"/>
			<path class="st1" d="M754.7,201.8l20.3-11.7"/>
			<path class="st1" d="M774.1,190.6l0.1-0.1"/>
			<path class="st1" d="M775.7,188v-1.2"/>
			<path class="st1" d="M776.8,124.8v-26"/>
			<path class="st1" d="M778.5,165.2l-0.1,0.7l-0.3,0.9"/>
			<path class="st1" d="M778.5,165l-0.1,0.8l-0.3,1"/>
			<path class="st1" d="M778.5,159.1l5.2-3l-3.2,1.9"/>
			<path class="st1" d="M784.5,141.6l-2.2-3.7l-1.5-2"/>
			<path class="st1" d="M792.5,168.9V150l0,0"/>
			<path class="st1" d="M785.1,155.3l-0.4,0.2l0.7-0.4L785.1,155.3"/>
			<path class="st1" d="M785,155.6h-0.4"/>
			<path class="st1" d="M785.6,155l-0.2,0.1"/>
			<path class="st1" d="M784.7,155.5L784.7,155.5l-0.2,0.1L784.7,155.5"/>
			<path class="st1" d="M784.5,155.6l-0.8,0.5L784.5,155.6"/>
			<path class="st1" d="M791.2,146l1,1.9l0.3,2.1l-0.3-1.9l-0.5-1l-0.3-0.5l-0.8-0.6l-0.5-0.3"/>
			<path class="st1" d="M673.2,36.5L674,36h1l1.2,0.5"/>
			<path class="st1" d="M774.2,190.5l0.8-0.5l0.5-0.9l0.2-1.2"/>
			<path class="st1" d="M681.3,76.6c-1.3-5.8,5.9-11.1,15.9-11.9c1.5-0.1,3.1-0.1,4.6,0"/>
			<path class="st1" d="M740.7,175.8c0.7,2.7,0.1,5-1.3,5.9"/>
			<path class="st1" d="M734.7,162.4c-2.5-3.4-3.9-7.5-3.9-10.9"/>
			<path class="st1" d="M725.9,117.1c2.7,1.5,4.8,5.3,4.8,8.4l0,0"/>
			<path class="st1" d="M786.8,149.2c0.7,2.8,0.1,5.1-1.4,5.9"/>
			<path class="st1" d="M725.9,118.6c1.9,1.1,3.5,3.9,3.5,6.1l0,0"/>
			<path class="st1" d="M772,90.5c2.7,1.5,4.8,5.3,4.8,8.4l0,0"/>
			<path class="st1" d="M780.8,135.8c-2.5-3.4-3.9-7.5-3.9-10.9"/>
			<path class="st1" d="M626.4,65.3c0-2.4,1.7-3.3,3.7-2.1l0,0"/>
			<path class="st1" d="M626.6,65.4c0-2.3,1.6-3.2,3.5-2l0,0"/>
			<path class="st1" d="M729.6,214.6c0,2.4-1.7,3.3-3.7,2.2l0,0"/>
			<path class="st1" d="M738,196.6c2.8,3.4,3.8,8,2.3,10.3c-0.8,1.2-2.2,1.6-3.9,1.1"/>
			<path class="st1" d="M729.4,214.5c0,2.2-1.6,3.1-3.5,2"/>
			<path class="st1" d="M740.5,175.8c0.6,2.5,0.2,4.6-1.1,5.6"/>
			<path class="st1" d="M725.9,118.4c2.1,1.2,3.7,4.1,3.7,6.4l0,0"/>
			<path class="st1" d="M725.9,117.3c2.6,1.5,4.6,5.1,4.6,8.1"/>
			<path class="st1" d="M734.5,162.5c-2.5-3.5-4-7.6-4-11.2"/>
			<path class="st1" d="M776.7,167.4c2-1.7,5.6-0.1,8.1,3.6c2.5,3.7,2.9,8.1,1,9.9c-0.1,0.1-0.3,0.2-0.4,0.3"/>
			<path class="st1" d="M738,196.8c2.7,3.3,3.6,7.8,2.1,10c-0.7,1-1.9,1.4-3.3,1.1"/>
		</g>
	</g>
</g>
<g id="XMLID_1_">
	<g id="XMLID_6_">
		<path d="M813.4,3c14,0,25.5,11.4,25.5,25.5v538.3c0,14-11.4,25.5-25.5,25.5H28.5c-14,0-25.5-11.4-25.5-25.5V28.5
			C3,14.4,14.4,3,28.5,3H813.4 M813.4,0H28.5C12.8,0,0,12.8,0,28.5v538.3c0,15.7,12.8,28.5,28.5,28.5h784.9
			c15.7,0,28.5-12.8,28.5-28.5V28.5C841.9,12.8,829.1,0,813.4,0L813.4,0z"/>
	</g>
	<g id="XMLID_5_">
		<path d="M1.5,83.5V28.5c0-14.9,12.1-27,27-27h55.1v55.1c0,14.9-12.1,27-27,27H1.5z"/>
		<g>
			<path d="M82,3v53.6C82,70.6,70.6,82,56.6,82H3V28.5C3,14.4,14.4,3,28.5,3H82 M85,0H28.5C12.8,0,0,12.8,0,28.5V85h56.6
				C72.2,85,85,72.2,85,56.6V0L85,0z"/>
		</g>
	</g>
	<g>
		<path class="st2" d="M32.5,34v-4.5c2.1-0.1,3.6-0.2,4.4-0.4c1.3-0.3,2.4-0.9,3.3-1.8c0.6-0.6,1-1.4,1.3-2.4
			c0.2-0.6,0.3-1.1,0.3-1.4h5.6v34h-6.8V34H32.5z"/>
	</g>
</g>
</svg>
