<?xml version="1.0" encoding="utf-8"?>
<!-- Generator: Adobe Illustrator 19.0.0, SVG Export Plug-In . SVG Version: 6.00 Build 0)  -->
<svg version="1.1" id="Layer_1" xmlns="http://www.w3.org/2000/svg" xmlns:xlink="http://www.w3.org/1999/xlink" x="0px" y="0px"
	 width="214px" height="49.3px" viewBox="0 0 214 49.3" style="enable-background:new 0 0 214 49.3;" xml:space="preserve">
<style type="text/css">
	.st0{fill:none;stroke:#0B0620;stroke-width:0.5;stroke-linecap:round;stroke-linejoin:round;}
</style>
<g id="XMLID_1_">
	<path id="XMLID_7528_" class="st0" d="M162.6,27L162.6,27l-0.2-0.1h-0.1h-0.1l-0.1-0.1h-0.1H162h-0.1v-0.1h-0.1h-0.1h-0.1l-0.1-0.1
		h-0.1h-0.1l-0.1-0.1l0,0h-0.1l-0.1-0.1h-0.1l-0.1-0.1h-0.1l0,0l-0.1-0.1l0,0h-0.1l0,0l-0.1-0.1h-0.1l-0.1-0.1l0,0l-0.1-0.1l0,0
		h-0.1l-0.1-0.1h-0.1v-0.1H160l-0.1-0.1l0,0h-0.1v-0.1h-0.1v-0.1h-0.1v-0.1h-0.1l-0.1-0.1l0,0l-0.1-0.1h-0.1v-0.1l-0.1-0.1l0,0h-0.1
		v-0.1h-0.1V25l0,0l-0.1-0.1l0,0l-0.1-0.1l-0.1-0.1l0,0l0,0l-0.1-0.1l0,0v-0.1h-0.1l0,0v-0.1l0,0l0,0l0,0l-0.1-0.1l0,0l0,0v-0.1
		h-0.1l0,0l0,0v-0.1h-0.1v-0.1l0,0l0,0v-0.1h-0.1l0,0l0,0V24l0,0l0,0l-0.1-0.1l0,0l0,0l0,0l-0.1-0.1v-0.1v-0.1l-0.1-0.1l0,0v-0.1
		h-0.1v-0.1v-0.1l0,0l-0.1-0.1l0,0v-0.1l-0.1-0.1v-0.1l0,0v-0.1l-0.1-0.1v-0.1v-0.1l0,0l-0.1-0.1v-0.1l0,0v-0.1l0,0v-0.1l-0.1-0.1
		v-0.1V22v-0.1l0,0v-0.1l-0.1-0.1v-0.1l0,0v-0.1v-0.1l0,0v-0.1v-0.1l0,0v-0.1v-0.1V21v-0.1v-0.1l0,0v-0.1v-0.1v-0.1l0,0v-0.1v-0.1
		l0,0v-0.1v-0.1l0,0v-0.1v-0.1V20v-0.1l0.1-0.1l0,0v-0.1v-0.1v-0.1v-0.1l0,0l0.1-0.1l0,0v-0.1v-0.1l0,0v-0.1V19l0.1-0.1v-0.1v-0.1
		l0,0l0.1-0.1v-0.1v-0.1h0.1v-0.1v-0.1l0,0l0.1-0.1l0,0v-0.1v-0.1h0.1V18v-0.1l0.1-0.1l0,0v-0.1l0.1-0.1v-0.1l0.1-0.1l0,0v-0.1h0.1
		v-0.1l0,0l0.1-0.1v-0.1h0.1V17l0.1-0.1v-0.1l0,0l0.1-0.1l0.1-0.1l0,0l0.1-0.1l0,0v-0.1h0.1v-0.1h0.1v-0.1h0.1v-0.1l0.1-0.1v-0.1
		l0.1-0.1l0,0h0.1l0.1-0.1v-0.1h0.1l0.1-0.1l0,0l0.1-0.1l0,0h0.1v-0.1h0.1v-0.1h0.1l0.1-0.1l0.1-0.1l0,0l0.1-0.1l0,0l0.1-0.1h0.1V15
		h0.1h0.1v-0.1h0.1l0,0l0.1-0.1l0,0l0.1-0.1h0.1l0.1-0.1l0,0h0.1l0.1-0.1h0.1h0.1v-0.1h0.1h0.1v-0.1h0.1l0,0h0.1l0.1-0.1h0.1
		l0.1-0.1h0.1l0,0h0.1l0.1-0.1h0.1h0.1l0,0l0.1-0.1h0.1l0,0h0.1h0.1V14h0.1h0.1h0.1l0.1-0.1l0,0h0.2h0.1h0.1h0.1h0.1h0.1l0,0
		l0.1-0.1h0.1h0.1h0.1h0.1h0.1h0.1h0.2l0,0h0.1l0,0h0.1h0.1l0,0h0.1l0,0h0.1l0,0h0.1h0.1l0,0h0.1h0.1h0.1l0,0l0.8,0.1h0.7l0.6,0.1
		l0.5,0.1h0.5h0.4l0.4,0.1h0.4l0.4,0.1h0.4h0.5l0.5,0.1l0.6,0.1h0.7l0.8,0.1"/>
	<path id="XMLID_7527_" class="st0" d="M173.8,14.5L173.8,14.5l0.1-0.2l0.1-0.2l0.1-0.1l0.1-0.2v-0.1l0.1-0.1l0.1-0.1v-0.1l0.1-0.1
		v-0.1l0.1-0.2l0.1-0.1l0.1-0.2l0.1-0.1l0.1-0.2l0,0l0.1-0.2l0.1-0.2l0.1-0.1l0.1-0.2l0.1-0.1v-0.1l0.1-0.1l0.1-0.1l0.1-0.1v-0.1
		l0.1-0.1l0.1-0.2l0.1-0.1l0.1-0.2l0.2-0.2l0,0l0,0l0.1-0.1v-0.1h0.1v-0.1l0,0l0.1-0.1l0,0h0.1v-0.1l0,0l0.1-0.1l0,0l0.1-0.1
		l0.1-0.1"/>
	<path id="XMLID_7526_" class="st0" d="M176.7,10.2L176.7,10.2l-0.2-0.1h-0.2l-0.1-0.1h-0.1l-0.1-0.1H176h-0.1l-0.1-0.1h-0.1
		l-0.1-0.1h-0.1l-0.1-0.1h-0.1l-0.2-0.1h-0.1l0,0l-0.3-0.2l-0.3-0.1l-0.2-0.1l-0.2-0.1L174.2,9L174,8.9h-0.2l-0.1-0.1l-0.2-0.1h-0.1
		l-0.2-0.1l-0.2-0.1L173,8.5l-0.3-0.1l-0.2-0.2l0,0l-0.3-0.1L172,8l-0.2-0.1l-0.2-0.1l-0.2-0.1h-0.1l-0.2-0.1l-0.1-0.1L171,7.5
		l-0.2-0.1l-0.1-0.1l-0.2-0.1l-0.2-0.1L170.1,7l-0.3-0.2l0,0l0,0h-0.1l-0.1-0.1l0,0h-0.1V6.7l0,0h-0.1l0,0V6.6h-0.1l0,0l-0.1-0.1
		l0,0h-0.1l0,0l-0.1-0.1l-0.1-0.1l0,0L169,6.3h-0.1V6.2l0,0h-0.1V6.1h-0.1V6h-0.1l-0.1-0.1l0,0l-0.1-0.1l0,0l-0.1-0.1l0,0l-0.1-0.1
		l0,0V5.6h-0.1l0,0V5.5h-0.1l0,0V5.4H168V5.3l0,0l-0.1-0.1l0,0V5.1h-0.1V5l0,0l0,0l-0.1-0.1l0,0l0,0V4.9l0,0l-0.1-0.1l0,0l0,0V4.7
		l-0.1-0.1l0,0l0,0V4.5l0,0V4.4h-0.1V4.3l0,0l0,0V4.3l0,0V4.2l0,0V4.1l0,0L167.4,4l0,0l0,0V3.9l0,0V3.8l0,0l0,0V3.7l0,0l0,0V3.6l0,0
		l0,0l0.1-0.1l0,0V3.5"/>
	<path id="XMLID_7525_" class="st0" d="M167.5,3.5L167.5,3.5L167.5,3.5L167.5,3.5L167.5,3.5V3.3l0,0h0.1V3.2l0,0l0,0V3.1l0,0l0,0V3
		h0.1V2.9l0,0l0,0l0.1-0.1l0,0V2.8l0,0h0.1V2.7l0,0l0,0V2.6h0.1l0,0V2.5h0.1V2.4l0,0h0.1l0,0l0.1-0.1l0,0l0,0l0.1-0.1l0,0l0,0h0.1
		V2.2l0,0h0.1V2.1h0.1V2l0,0h0.1l0,0l0.1-0.1l0,0h0.1l0,0l0.1-0.1l0,0h0.1l0,0V1.7h0.1l0,0h0.1l0.1-0.1l0,0h0.1V1.6h0.1h0.1l0,0h0.1
		V1.5h0.1l0,0h0.1l0,0l0.1-0.1l0,0h0.1h0.1l0,0l0.1-0.1h0.1h0.1l0,0h0.1l0.1-0.1l0,0h0.1l0,0h0.1l0,0h0.1l0.1-0.1h0.1h0.1l0,0h0.1
		h0.1h0.1l0,0l0.1-0.1h0.1l0,0h0.1l0,0h0.1h0.1l0,0h0.1h0.1l0.1-0.1l0,0h0.1h0.2l0,0h0.1h0.1h0.1l0,0h0.1l0,0h0.1h0.1h0.1l0,0h0.1
		h0.1l0,0h0.2h0.1h0.1h0.1l0,0h0.1h0.1l0,0h0.1h0.1l0,0h0.1h0.1h0.1h0.1l0,0h0.2l0.1,0.1h0.1l0,0h0.1h0.1l0,0h0.1h0.1l0,0h0.1
		l0.1,0.1h0.1h0.1h0.1l0,0h0.1h0.1l0.1,0.1h0.1h0.1h0.1l0,0h0.1l0.1,0.1l0,0h0.1h0.1h0.1l0.1,0.1h0.1l0,0h0.1h0.1l0.1,0.1h0.1l0,0
		h0.1h0.1v0.1h0.1l0,0h0.1h0.1l0.1,0.1h0.1h0.1l0,0l0.1,0.1h0.1l0.1,0.1h0.1l0.1,0.1h0.1h0.1l0,0l0.1,0.1h0.1h0.1l0.1,0.1h0.1
		l0.1,0.1h0.1l0,0l0.3,0.2l0.2,0.1l0.1,0.1l0.2,0.1h0.1l0.2,0.1l0.1,0.1h0.1l0.2,0.1l0.1,0.1l0.1,0.1h0.2l0.2,0.1l0.2,0.2l0.2,0.1
		l0,0l0.3,0.1l0.3,0.1l0.2,0.2l0.2,0.1h0.2l0.1,0.1l0.2,0.1l0.1,0.1l0.2,0.1h0.2l0.1,0.1l0.2,0.1l0.2,0.1l0.3,0.2l0.3,0.1l0,0
		l0.3,0.1l0.2,0.1l0.2,0.1l0.2,0.1l0.2,0.1l0.2,0.1l0.1,0.1h0.2l0.1,0.1l0.2,0.1h0.2l0.2,0.1l0.2,0.1l0.2,0.1l0.3,0.2l0,0h0.2h0.1
		h0.1h0.1h0.1h0.1h0.1l0.1,0.1l0,0h0.1h0.1h0.1h0.1h0.2h0.1l0,0l0.2,0.1h0.2l0.1,0.1h0.1h0.1l0.2,0.1h0.1h0.1l0.1,0.1h0.1h0.1
		l0.1,0.1h0.1l0.2,0.1h0.2l0,0l0.1,0.1h0.1h0.1l0.1,0.1l0,0h0.1l0.1,0.1l0,0h0.1l0,0l0.1,0.1h0.1h0.1v0.1h0.2"/>
	<path id="XMLID_7524_" class="st0" d="M155.7,6.4L155.7,6.4L155.7,6.4l0.2-0.2h0.1V6.2h0.1V6.1h0.1l0,0l0.1-0.1l0,0l0.1-0.1h0.1
		V5.8l0.1-0.1h0.1l0,0l0.1-0.1l0.1-0.1h0.1V5.5h0.1h0.1V5.4h0.1V5.3h0.1l0,0l0.1-0.1h0.1l0.1-0.1l0.1-0.1l0,0l0.2-0.1l0.2-0.1
		l0.1-0.2l0.2-0.1h0.1l0.1-0.1l0.2-0.1l0.1-0.1l0.1-0.1h0.1l0.2-0.1l0.1-0.1l0.2-0.1l0.2-0.2l0.2-0.1"/>
	<path id="XMLID_7523_" class="st0" d="M185.2,3.8L185.2,3.8L185.2,3.8L185.2,3.8l0.2,0.2h0.1l0,0l0.1,0.1l0,0v0.1h0.1l0,0l0.1,0.1
		l0,0h0.1l0.1,0.1l0.1,0.1l0,0l0.1,0.1l0.2,0.1l0.1,0.1l0.1,0.1h0.1l0.1,0.1l0.1,0.1h0.1l0.1,0.1h0.1l0.1,0.1l0.1,0.1l0.1,0.1
		l0.2,0.1l0.2,0.1l0,0l0,0v0.1h0.1l0,0l0,0h0.1l0,0l0,0v0.1h0.1l0,0l0,0h0.1l0,0v0.1"/>
	<path id="XMLID_7522_" class="st0" d="M185.2,3.9L185.2,3.9L185.2,3.9l0.2,0.1v0.1h0.1v0.1h0.1l0,0l0.1,0.1l0,0l0,0l0.1,0.1h0.1
		v0.1h0.1l0.1,0.1l0,0l0.1,0.1l0.2,0.1l0.1,0.1l0.1,0.1l0.1,0.1h0.1l0.1,0.1h0.1l0.1,0.1l0.1,0.1l0.1,0.1h0.1l0.2,0.1l0.1,0.1
		l0.2,0.1l0,0l0.1,0.1l0.2,0.1l0.1,0.1l0.1,0.1h0.1l0.1,0.1h0.1l0.1,0.1l0,0l0.1,0.1h0.1l0.1,0.1l0.2,0.1h0.1l0.2,0.1"/>
	<path id="XMLID_7521_" class="st0" d="M151.3,16L151.3,16L151.3,16L151.3,16v-0.2l0,0l0,0v-0.1l0,0v-0.1l0,0l0,0v-0.1l0,0v-0.1l0,0
		v-0.1l0,0l-0.1-0.1l0,0v-0.1l0,0l0,0v-0.1l0,0V15l0,0l0,0l-0.1-0.1l0,0v-0.1l0,0v-0.1l0,0l0,0v-0.1l0,0h-0.1v-0.1l0,0l0,0l0,0v-0.1
		l0,0l0,0v-0.1H151l0,0v-0.1l0,0l0,0v-0.1h-0.1l0,0l0,0l0,0v-0.1l0,0l0,0h-0.1l0,0l0,0v-0.1l0,0l0,0"/>
	<path id="XMLID_7520_" class="st0" d="M150.5,13.9L150.5,13.9L150.5,13.9L150.5,13.9L150.5,13.9L150.5,13.9L150.5,13.9L150.5,13.9
		l-0.2,0.1l0,0l0,0l0,0l0,0l0,0h-0.1l0,0l0,0l0,0h-0.1l0,0l-0.1,0.1l0,0H150l0,0l0,0h-0.1v0.1l0,0h-0.1l0,0l0,0l-0.1,0.1h-0.1l0,0
		l0,0h-0.1l0,0l-0.1,0.1l0,0h-0.1l0,0l0,0h-0.1l0,0l0,0l-0.1,0.1l0,0h-0.1h-0.1l0,0H149l0,0h-0.1v0.1h-0.1l0,0h-0.1l0,0h-0.1l0,0
		h-0.1l0,0l-0.1,0.1h-0.1l0,0l0,0h-0.2h-0.1H148h-0.1v0.1h-0.1h-0.1h-0.1l0,0h-0.1h-0.1h-0.1l-0.1,0.1h-0.1h-0.1"/>
	<path id="XMLID_7519_" class="st0" d="M149.3,11.6L149.3,11.6l0.2-0.1h0.1l0.1-0.1h0.1l0.1-0.1l0,0h0.1l0.1-0.1h0.1v-0.1h0.1h0.1
		l0.1-0.1l0.1-0.1h0.2l0,0l0.1-0.1l0.1-0.1h0.1l0.1-0.1h0.1v-0.1h0.1l0.1-0.1l0,0h0.1l0.1-0.1h0.1l0.1-0.1l0.1-0.1l0.1-0.1l0,0h0.1
		l0.1-0.1L152,10l0.1-0.1h0.1l0.1-0.1l0,0l0.1-0.1h0.1V9.6h0.1l0.1-0.1l0.1-0.1l0.1-0.1h0.1l0,0l0.1-0.2l0.1-0.1h0.1l0.1-0.1V8.9
		h0.1l0.1-0.1V8.8h0.1V8.7h0.1l0.1-0.1l0.1-0.1l0.1-0.1l0.1-0.1l0,0l0.1-0.1l0.1-0.1l0.1-0.1l0.1-0.1l0.1-0.1V7.8h0.1l0.1-0.1V7.6
		l0.1-0.1h0.1l0.1-0.1l0.1-0.1l0.1-0.1l0.1-0.2l0,0h0.1V7h0.1V6.9h0.1V6.9h0.1V6.8h0.1l0,0l0.1-0.1l0,0l0.1-0.1l0,0l0.1-0.1l0,0
		l0.1-0.1h0.1l0.1-0.1l0,0l0.1-0.1l0,0l0.1-0.1l0,0h0.1V6.1h0.1V6h0.1l0.1-0.1l0.1-0.1l0,0h0.1V5.7l0.1-0.1h0.1l0,0l0.1-0.1h0.1V5.5
		h0.1l0,0l0.1-0.1l0,0l0.1-0.1h0.1l0.1-0.1l0,0l0.1-0.1h0.1V5h0.1l0.1-0.1l0,0h0.1V4.9h0.1l0,0l0.1-0.1l0,0l0.1-0.1h0.1l0.1-0.1"/>
	<path id="XMLID_7518_" class="st0" d="M167.5,4.2L167.5,4.2L167.5,4.2L167.5,4.2v0.2l0,0v0.1h0.1l0,0v0.1l0,0l0,0v0.1l0,0v0.1l0,0
		l0.1,0.1l0,0l0,0v0.1l0.1,0.1l0,0l0,0V5l0,0l0.1,0.1l0,0l0,0v0.1l0,0l0.1,0.1l0,0v0.1l0,0h0.1v0.1h0.1v0.1l0,0l0.1,0.1l0,0l0,0
		l0.1,0.1l0,0l0,0l0.1,0.1l0,0l0.1,0.1l0,0l0,0l0.1,0.1l0.1,0.1l0,0l0.1,0.1l0,0l0.1,0.1l0,0l0.1,0.1l0,0h0.1v0.1h0.1v0.1h0.1
		l0.1,0.1l0,0l0.1,0.1l0,0h0.1v0.1h0.1l0,0h0.1v0.1l0,0h0.1l0,0l0.1,0.1l0,0l0.1,0.1h0.1l0,0l0.2,0.1l0.3,0.2l0.2,0.1l0.2,0.1
		l0.2,0.1l0.1,0.1l0.2,0.1h0.2l0.1,0.1l0.2,0.1l0.1,0.1l0.2,0.1l0.3,0.1l0.2,0.1l0.3,0.2l0,0l0.3,0.1l0.2,0.1l0.2,0.1l0.2,0.1
		l0.2,0.1l0.2,0.1l0.1,0.1h0.2l0.1,0.1l0.2,0.1l0.2,0.1l0.2,0.1l0.2,0.1l0.2,0.1l0.3,0.1l0,0l0.2,0.1l0.1,0.1h0.1h0.1l0.1,0.1h0.1
		l0.1,0.1h0.1h0.1l0.1,0.1l0,0h0.2l0.1,0.1l0.1,0.1h0.2"/>
	<path id="XMLID_7517_" class="st0" d="M150,7.4L150,7.4l-0.3-0.1l-0.3-0.1l-0.3-0.1L149,7h-0.3l-0.2-0.1h-0.2l-0.2-0.1L148,6.8
		h-0.2l-0.2-0.1l-0.3-0.1h-0.2l-0.3-0.1l-0.3-0.1l0,0h-0.1l0,0l-0.1-0.1l0,0l0,0h-0.1l0,0l0,0h-0.1l0,0l0,0h-0.1l0,0l0,0l-0.1-0.1
		l0,0H146h-0.1h-0.1h-0.1h-0.1V6.2h-0.1h-0.1l0,0h-0.1h-0.1h-0.1h-0.1h-0.1L145,6.1l0,0h-0.1h-0.1h-0.1h-0.1h-0.1l0,0h-0.1h-0.1l0,0
		h-0.1h-0.1L144.1,6H144h-0.1h-0.1l0,0h-0.1h-0.1h-0.1h-0.1l0,0h-0.1h-0.1l0,0h-0.1h-0.1l0,0h-0.1H143h-0.1h-0.1l0,0l-0.1,0.1h-0.1
		h-0.1h-0.1l0,0h-0.1h-0.1l0,0h-0.1l0,0h-0.1L142,6.2h-0.1h-0.1h-0.1l0,0h-0.1h-0.1l0,0l-0.1,0.1h-0.1l0,0h-0.1l0,0h-0.1h-0.1v0.1
		h-0.1H141l0,0h-0.1l0,0l-0.1,0.1h-0.1h-0.1l0,0l-0.1,0.1l0,0h-0.1l0,0h-0.1l0,0l-0.1,0.1l0,0h-0.1h-0.1L140,6.7l0,0l0,0h-0.1
		l-0.1,0.1l0,0h-0.1l0,0v0.1h-0.1l0,0h-0.1v0.1h-0.1l0,0L139.4,7l0,0l0,0h-0.1v0.1h-0.1v0.1h-0.1l0,0l0,0l-0.1,0.1l0,0l0,0L139,7.4
		l0,0l0,0l-0.1,0.1l0,0l0,0l-0.1,0.1l0,0l-0.1,0.1l0,0l0,0v0.1h-0.1l0,0v0.1l0,0l0,0l-0.1,0.1l0,0V8h-0.1l0,0v0.1l0,0v0.1l0,0
		l-0.1,0.1l0,0l0,0v0.1l0,0l0,0v0.1l0,0l0,0l-0.1,0.1v0.1l0,0l0,0v0.1l0,0v0.1l0,0v0.1l0,0l0,0v0.1l0,0l0,0V9l0,0v0.1v0.1l0,0l0,0
		l0,0l0,0v0.1h0.1l0,0l0,0l0,0v0.1l0,0l0,0l0,0l0,0v0.1l0,0"/>
	<path id="XMLID_7516_" class="st0" d="M154.4,7.6L154.4,7.6L154.4,7.6L154.4,7.6L154.4,7.6l-0.1,0.2h-0.1l0,0v0.1h-0.1l0,0V8H154
		v0.1h-0.1v0.1h-0.1l0,0l-0.1,0.1l-0.1,0.1l-0.1,0.1v0.1l-0.1,0.1h-0.1v0.1h-0.1v0.1l-0.1,0.1h-0.1l-0.1,0.1V9L153,9.1l-0.2,0.1l0,0
		l-0.1,0.1l-0.1,0.1h-0.1l-0.1,0.1v0.1h-0.1l-0.1,0.1l0,0l-0.1,0.1h-0.1v0.1H152l-0.1,0.1l-0.1,0.1l-0.1,0.1l0,0l-0.2,0.1h-0.1
		l-0.1,0.1l0,0l-0.1,0.1h-0.1l-0.1,0.1l0,0l-0.1,0.1H151l-0.1,0.1l0,0l-0.1,0.1h-0.1l-0.2,0.1l0,0l-0.1,0.1h-0.1l-0.1,0.1h-0.1
		l-0.1,0.1H150h-0.1v0.1h-0.1l-0.1,0.1h-0.1h-0.1l-0.1,0.1h-0.1l-0.1,0.1"/>
	<path id="XMLID_7515_" class="st0" d="M189.2,7L189.2,7L189.2,7h0.2h0.1h0.1h0.1l0,0l0.1,0.1l0,0h0.1l0,0h0.1h0.1h0.1h0.1h0.1l0,0
		l0.1,0.1h0.2l0.1,0.1h0.1h0.2l0.1,0.1l0,0h0.1l0.1,0.1h0.1h0.1l0.2,0.1h0.1h0.2l0.1,0.1l0,0h0.1h0.1v0.1h0.1l0,0l0,0h0.1v0.1h0.1
		l0,0l0,0h0.1v0.1h0.1h0.1"/>
	<path id="XMLID_7514_" class="st0" d="M153.8,41.5L153.8,41.5L153.8,41.5h-0.2l-0.1-0.1l0,0h-0.1l0,0h-0.1l0,0h-0.1l-0.1-0.1l0,0
		h-0.1H153h-0.1l-0.1-0.1l0,0h-0.1l-0.2-0.1h-0.1l-0.1-0.1h-0.1h-0.1l-0.1-0.1H152h-0.1l-0.1-0.1h-0.1l-0.1-0.1h-0.1l-0.2-0.1h-0.1
		l0,0l-0.2-0.1l-0.2-0.1l-0.1-0.1h-0.1l-0.1-0.1h-0.1l-0.1-0.1h-0.1l-0.1-0.1l0,0l-0.1-0.1h-0.2L150,40l-0.1-0.1l-0.2-0.1l0,0
		l-0.1-0.1l-0.2-0.1l-0.1-0.1l-0.1-0.1l-0.1-0.1l-0.1-0.1l-0.1-0.1H149l-0.1-0.1l-0.1-0.1l-0.1-0.1h-0.1l-0.1-0.1l-0.1-0.2l-0.2-0.1
		l0,0l-0.1-0.1l-0.1-0.1l-0.1-0.1l-0.1-0.1l-0.1-0.1l-0.1-0.1l-0.1-0.1l0,0l-0.1-0.1l-0.1-0.1l-0.1-0.1v-0.1l-0.1-0.1l-0.2-0.1
		l-0.1-0.1l0,0l-0.1-0.2l-0.1-0.2l-0.1-0.1l-0.1-0.1l-0.1-0.1l-0.1-0.1v-0.1l-0.1-0.1l-0.1-0.1v-0.1l-0.1-0.1l-0.1-0.1l-0.1-0.1
		l-0.1-0.2l-0.1-0.2l0,0l-0.1-0.1l-0.1-0.2l-0.1-0.2l-0.1-0.1v-0.1l-0.1-0.1l-0.1-0.1v-0.1l-0.1-0.1v-0.1l-0.1-0.1l-0.1-0.2
		l-0.1-0.1v-0.2l-0.2-0.2l0,0v-0.2l-0.1-0.2l-0.1-0.1v-0.2l-0.1-0.1v-0.1l-0.1-0.1V33l-0.1-0.2v-0.1l-0.1-0.1v-0.1l-0.1-0.2
		l-0.1-0.2l-0.1-0.2l0,0l0,0V32l0,0l0,0l0,0l0,0v-0.1l0,0l0,0l0,0l0,0l-0.1-0.1l0,0l0,0l0,0l0,0v-0.2l-0.1-0.2v-0.1l-0.1-0.2v-0.1
		V31l-0.1-0.1v-0.1v-0.1l-0.1-0.1v-0.1v-0.2l-0.1-0.1v-0.2l-0.1-0.1l0,0v-0.3l-0.1-0.2v-0.2v-0.1l-0.1-0.2v-0.1V29V29l-0.1-0.2v-0.1
		v-0.1l-0.1-0.2v-0.2v-0.2l-0.1-0.2l0,0v-0.3v-0.2v-0.1v-0.2L143,27V27v-0.1v-0.1v-0.2v-0.1v-0.2l-0.1-0.1v-0.2v-0.2v-0.2l0,0v-0.3
		v-0.2v-0.2V25v-0.2v-0.1v-0.2v-0.1v-0.1v-0.2v-0.1V24v-0.1v-0.3v-0.2l0,0v-0.2v-0.2v-0.2l0.1-0.2v-0.1v-0.2v-0.1v-0.1v-0.1v-0.2
		l0.1-0.1v-0.2v-0.2v-0.2l0.1-0.2l0,0v-0.2v-0.2l0.1-0.2v-0.2v-0.1v-0.2l0.1-0.1v-0.1v-0.1v-0.2l0.1-0.1v-0.2v-0.1l0.1-0.3v-0.2l0,0
		l0.1-0.2l0.1-0.2v-0.2l0.1-0.1v-0.2v-0.1l0.1-0.1v-0.1V18l0.1-0.2v-0.1l0.1-0.2v-0.1l0.1-0.2v-0.2l0,0l0.1-0.2l0.1-0.2l0.1-0.2
		v-0.1l0.1-0.2v-0.1l0.1-0.1v-0.1l0.1-0.1v-0.1l0.1-0.1l0.1-0.2v-0.1l0.1-0.2l0.1-0.2l0,0l0.1-0.2l0.1-0.2l0.1-0.1l0.1-0.2v-0.1
		l0.1-0.1v-0.1l0.1-0.1l0.1-0.1v-0.1l0.1-0.1l0.1-0.2v-0.1l0.1-0.2l0.1-0.2l0,0l0.2-0.1l0.1-0.2l0.1-0.1l0.1-0.1v-0.1l0.1-0.1
		l0.1-0.1v-0.1l0.1-0.1l0.1-0.1v-0.1l0.1-0.1l0.1-0.1L147,12l0.2-0.2l0,0l0.1-0.1l0.1-0.1l0.1-0.1l0.1-0.1l0.1-0.1l0.1-0.1l0.1-0.1
		v-0.1l0.1-0.1h0.1l0.1-0.1l0.1-0.1l0.1-0.1l0.1-0.2l0.2-0.1l0,0l0.1-0.1l0.1-0.1l0.2-0.1l0.1-0.1l0.1-0.1l0,0l0.1-0.1l0.1-0.1h0.1
		l0.1-0.1l0.1-0.1l0.1-0.1l0.1-0.1l0.1-0.1l0.2-0.1l0,0l0.1-0.1h0.2l0.1-0.1l0.1-0.1h0.1l0.1-0.1h0.1l0.1-0.1h0.1l0.1-0.1h0.1
		l0.1-0.1l0.1-0.1l0.1-0.1h0.2l0,0l0.2-0.1l0.1-0.1h0.2l0.1-0.1h0.1h0.1l0.1-0.1h0.1h0.1l0.1-0.1h0.1h0.1l0.1-0.1h0.2l0.1-0.1l0,0
		h0.1h0.1l0.1-0.1l0,0h0.1l0,0h0.1l0,0h0.1V7.8h0.1h0.1l0,0h0.1h0.1"/>
	<path id="XMLID_7513_" class="st0" d="M197.5,9.4L197.5,9.4L197.5,9.4L197.5,9.4L197.5,9.4L197.5,9.4L197.5,9.4L197.5,9.4
		L197.5,9.4L197.5,9.4L197.5,9.4L197.5,9.4L197.5,9.4L197.5,9.4l-0.2,0.1l0,0l0,0l0,0l-0.2,0.1L197,9.6h-0.2l-0.1,0.1h-0.1l-0.2,0.1
		h-0.1l-0.1,0.1h-0.1l-0.1,0.1l-0.2,0.1h-0.1l-0.2,0.1l-0.2,0.1l-0.2,0.1l0,0l-0.3,0.2l-0.3,0.1l-0.3,0.1l-0.3,0.2l-0.2,0.1
		l-0.2,0.1l-0.2,0.1l-0.2,0.1l-0.3,0.1l-0.2,0.1l-0.2,0.1l-0.3,0.1l-0.3,0.2l-0.3,0.1l-0.3,0.2l0,0h-0.1l-0.1,0.1h-0.1v0.1h-0.1
		h-0.1l0,0l-0.1,0.1l0,0h-0.1h-0.1v0.1H191l-0.1,0.1h-0.1l0,0h-0.1l-0.1,0.1h-0.1h-0.1v0.1h-0.1h-0.1l0,0l-0.1,0.1l0,0h-0.1H190
		l-0.1,0.1h-0.1h-0.1l0,0l-0.1,0.1h-0.1l0,0h-0.1l-0.1,0.1l0,0h-0.1h-0.1l0,0h-0.1V13h-0.1H189h-0.1l-0.1,0.1l0,0h-0.1h-0.1h-0.1
		l0,0h-0.1l-0.1,0.1l0,0h-0.1l0,0h-0.1l0,0h-0.1H188l-0.1,0.1h-0.1l0,0h-0.1h-0.1l0,0h-0.1l0,0h-0.1h-0.1l0,0h-0.1l0,0h-0.1l0,0
		h-0.1h-0.1H187l0,0h-0.1l0,0h-0.1h-0.1l0,0h-0.1l0,0h-0.1l0,0h-0.1l0,0l-0.1-0.1h-0.1l0,0h-0.1l0,0H186h-0.1l-0.1-0.1h-0.1h-0.1
		h-0.1l-0.1-0.1h-0.1l0,0h-0.1h-0.1l-0.1-0.1h-0.1h-0.2l-0.1-0.1l0,0h-0.3l-0.2-0.1l-0.2-0.1H184h-0.2l-0.1-0.1h-0.2l-0.1-0.1h-0.2
		l-0.1-0.1h-0.2l-0.2-0.1h-0.2l-0.2-0.1l-0.3-0.1l0,0l-0.3-0.1h-0.2l-0.2-0.1l-0.2-0.1h-0.2l-0.2-0.1h-0.1l-0.1-0.1h-0.2l-0.2-0.1
		h-0.1l-0.2-0.1l-0.2-0.1h-0.3l-0.2-0.1"/>
	<path id="XMLID_7512_" class="st0" d="M179.8,11.4L179.8,11.4L179.8,11.4L179.8,11.4L179.8,11.4l-0.2,0.1l0,0v0.1l0,0l0,0l0,0
		l-0.1,0.1l0,0l0,0l0,0l-0.1,0.1l0,0l0,0l-0.1,0.2l-0.1,0.1l-0.1,0.2l-0.1,0.1l-0.1,0.1l-0.1,0.1v0.1l-0.1,0.1l-0.1,0.1v0.1
		l-0.1,0.1l-0.1,0.1l-0.1,0.2l-0.1,0.1l-0.1,0.2l0,0l-0.1,0.2l-0.1,0.1v0.1l-0.1,0.1v0.1l-0.1,0.1l0,0l-0.1,0.1v0.1l-0.1,0.1v0.1
		l-0.1,0.1v0.1l-0.1,0.1l-0.1,0.2"/>
	<path id="XMLID_7511_" class="st0" d="M177.5,14.8L177.5,14.8h0.7l0.6,0.1h0.6h0.4h0.4l0.4,0.1h0.3h0.3h0.3l0.4,0.1h0.4h0.4h0.6
		l0.5,0.1h0.7l0,0h0.1h0.1h0.1v0.1h0.1l0,0h0.1l0,0h0.1l0,0h0.1l0,0h0.1h0.1l0.1,0.1l0,0h0.1l0,0h0.1l0,0h0.1v0.1l0,0h0.1l0,0h0.1
		l0,0l0.1,0.1l0,0h0.1h0.1l0,0v0.1h0.1l0,0l0.1,0.1l0,0l0,0h0.1v0.1l0,0h0.1l0,0l0.1,0.1l0,0h0.1v0.1l0,0h0.1V16h0.1v0.1l0,0h0.1
		v0.1l0,0l0,0l0.1,0.1l0,0l0,0l0.1,0.1l0,0v0.1l0,0h0.1v0.1v0.1h0.1v0.1l0,0l0,0l0.1,0.1l0,0l0,0v0.1l0,0l0.1,0.1V17l0,0l0,0
		l0.1,0.1v0.1l0,0v0.1l0,0v0.1h0.1v0.1l0,0v0.1l0,0v0.1l0,0l0.1,0.1v0.1l0,0v0.1V18l0,0v0.1v0.1l0,0l0.1,0.1l0,0v0.1l0,0v0.1l0,0
		v0.1v0.1v0.1l0,0v0.1v0.1l0,0v0.1V19l0,0v0.1l0,0v0.1v0.1l0,0l0.1,0.1v0.1v0.1v0.1l0,0v0.1v0.1l0,0l-0.1,0.1V20l0,0v0.1v0.1l0,0
		v0.1l0,0v0.1v0.1v0.1v0.1l0,0v0.1v0.1v0.1v0.1l0,0V21l-0.1,0.1l0,0v0.1v0.1l0,0v0.1v0.1v0.1v0.1l0,0v0.1l-0.1,0.1v0.1V22v0.1l0,0
		v0.1l0,0l-0.1,0.1v0.1l0,0v0.1v0.1v0.1l-0.1,0.1l0,0v0.1v0.1v0.1V23v0.1h-0.1v0.1l0,0v0.1v0.1l0,0l-0.1,0.1v0.1v0.1v0.1l0,0
		l-0.1,0.1v0.1V24l0,0l-0.1,0.1v0.1l0,0v0.1v0.1h-0.1v0.1v0.1l0,0l-0.1,0.1v0.1l0,0v0.1l-0.1,0.1v0.1V25h-0.1v0.1l0,0v0.1H187v0.1
		v0.1l0,0l-0.1,0.1v0.1l-0.1,0.1l0,0v0.1v0.1h-0.1v0.1V26h-0.1v0.1l0,0l-0.1,0.1l0,0v0.1l0,0l-0.1,0.1v0.1l-0.1,0.1l0,0l0,0
		l-0.1,0.1v0.1h-0.1v0.1l0,0l-0.1,0.1l0,0l0,0L186,27l0,0V27h-0.1v0.1l-0.1,0.1l0,0h-0.1v0.1h-0.1v0.1l0,0h-0.1v0.1h-0.1l0,0v0.1
		h-0.1v0.1h-0.1v0.1h-0.1l0,0l-0.1,0.1l0,0h-0.1v0.1H185l0,0l-0.1,0.1l0,0l0,0h-0.1v0.1h-0.1l0,0l-0.1,0.1h-0.1l0,0h-0.1v0.1h-0.1
		h-0.1l0,0h-0.1l0,0l0,0l-0.1,0.1l0,0H184h-0.1l0,0h-0.1l-0.1,0.1l0,0h-0.1l0,0h-0.1h-0.1l0,0h-0.1l0,0h-0.1l0,0h-0.1l0,0h-0.1h-0.1
		l0,0H183l0,0h-0.7h-0.6l-0.5-0.1h-0.5h-0.4h-0.3l-0.4-0.1h-0.3h-0.3h-0.4l-0.4-0.1h-0.4h-0.5l-0.6-0.1h-0.7"/>
	<path id="XMLID_7510_" class="st0" d="M176.7,32.3L176.7,32.3L176.7,32.3l0.3-0.1h0.1h0.1l0.1-0.1h0.1h0.1h0.1l0.1-0.1h0.1h0.1h0.1
		l0.1-0.1h0.1h0.2l0,0l0.3-0.1l0.2-0.1h0.3l0.2-0.1h0.2h0.1l0.2-0.1h0.2h0.1l0.2-0.1h0.2l0.2-0.1h0.2l0.3-0.1h0.3l0,0l0.3-0.1h0.2
		l0.2-0.1h0.2l0.2-0.1h0.2h0.1h0.2l0.2-0.1h0.1h0.2l0.2-0.1h0.2l0.3-0.1h0.3l0,0h0.1l0,0h0.1h0.1l0,0h0.1l0,0h0.1l0,0h0.1l0,0h0.1
		l0,0h0.1h0.1l0,0h0.1h0.1h0.1l0,0h0.1l0,0h0.1l0,0h0.1l0,0h0.1v0.1h0.1h0.1h0.1l0,0h0.1l0.1,0.1l0,0h0.1h0.1V31h0.1l0,0h0.1l0,0
		h0.1v0.1h0.1h0.1l0.1,0.1l0,0h0.1l0.1,0.1l0,0h0.1l0.1,0.1l0,0h0.1l0,0l0.1,0.1l0,0h0.1v0.1h0.1l0.1,0.1h0.1l0,0l0.1,0.1h0.1v0.1
		h0.1l0,0l0.1,0.1h0.1l0,0V32h0.1h0.1v0.1h0.1l0.1,0.1l0.1,0.1l0,0h0.1v0.1l0.1,0.1h0.1l0,0l0.1,0.1l0,0l0.1,0.1l0,0l0.1,0.1l0,0
		h0.1l0.1,0.1v0.1h0.1l0,0l0.1,0.1l0.1,0.1l0,0l0.1,0.1h0.1v0.1h0.1v0.1l0,0l0.1,0.1l0,0l0.1,0.1h0.1v0.1l0.1,0.1l0,0l0.2,0.1
		l0.1,0.2l0.1,0.1l0.2,0.1l0.1,0.1v0.1l0.1,0.1l0.1,0.1l0.1,0.1l0.1,0.1l0.1,0.1l0.1,0.1l0.1,0.1l0.1,0.2l0.2,0.1l0,0l0.1,0.2
		l0.1,0.1l0.1,0.1l0.1,0.1l0.1,0.1l0.1,0.1v0.1l0.1,0.1h0.1V36l0.1,0.1l0.1,0.1l0.1,0.1l0.1,0.2l0.1,0.1l0,0l0.1,0.1v0.1h0.1l0,0
		v0.1h0.1v0.1l0,0l0,0l0.1,0.1l0,0V37h0.1v0.1h0.1l0,0v0.1l0,0l0.1,0.1l0,0v0.1l0,0l0,0l0.1,0.1l0,0l0,0v0.1l0,0l0.1,0.1l0,0v0.1
		l0,0h0.1v0.1l0,0l0,0v0.1l0,0h0.1l0,0V38l0,0l0,0v0.1l0,0l0.1,0.1l0,0l0,0v0.1l0,0l0,0v0.1l0,0l0,0l0,0l0,0v0.1l0,0l0,0v0.1l0,0
		l0,0l0.1,0.1"/>
	<path id="XMLID_7509_" class="st0" d="M126.1,38.5L126.1,38.5h-0.2h-0.1h-0.1h-0.1l0,0h-0.1h-0.1h-0.1l0,0h-0.1h-0.1h-0.1h-0.1H125
		h-0.1l0,0h-0.1l0,0h-0.1l0,0h-0.1l0,0h-0.1l0,0l0,0h-0.1l0,0h-0.1l0,0l-0.1-0.1h-0.1l0,0l0,0h-0.1H124l0,0h-0.1l0,0h-0.1l0,0l0,0
		h-0.1v-0.1h-0.1h-0.1l0,0h-0.1l0,0h-0.1l-0.2-0.1h-0.1l-0.1-0.1H123h-0.1l0,0l-0.1-0.1h-0.1h-0.1h-0.1l-0.1-0.1h-0.1l-0.1-0.1h-0.2
		l0,0l-0.1-0.1l-0.1-0.1h-0.1l-0.1-0.1h-0.1l-0.1-0.1h-0.1l0,0l-0.1-0.1h-0.1l-0.1-0.1h-0.1l-0.1-0.1H121l-0.1-0.1l0,0l-0.1-0.1
		h-0.1V37h-0.1l0,0l0,0l-0.1-0.1l0,0l0,0l-0.1-0.1l0,0l0,0l-0.1-0.1h-0.1l0,0l0,0l-0.1-0.1l0,0l-0.1-0.1l0,0l-0.1-0.1l0,0h-0.1l0,0
		v-0.1h-0.1l0,0l-0.1-0.1l0,0l-0.1-0.1l0,0l0,0l-0.2-0.1l-0.1-0.1l-0.1-0.1l-0.1-0.1v-0.1l-0.1-0.1h-0.1v-0.1l-0.1-0.1l-0.1-0.1l0,0
		l-0.1-0.1l-0.1-0.1l-0.1-0.1l-0.1-0.2l0,0l-0.1-0.1l-0.1-0.1l-0.1-0.1l-0.1-0.1v-0.1l-0.1-0.1l-0.1-0.1v-0.1h-0.1v-0.1l-0.1-0.1
		l-0.1-0.1l-0.1-0.1v-0.2l-0.2-0.1l0,0v-0.1l0,0l-0.1-0.1v-0.1l0,0v-0.1h-0.1l0,0v-0.1l0,0l-0.1-0.1l0,0v-0.1l-0.1-0.1l0,0l0,0
		l-0.1-0.1v-0.1v-0.1H117v-0.1l0,0v-0.1h-0.1v-0.1l0,0l-0.1-0.1l0,0v-0.1l-0.1-0.1l0,0l0,0l-0.1-0.2l-0.1-0.2v-0.1l-0.1-0.1v-0.1
		l-0.1-0.2l0,0v-0.1l-0.1-0.1v-0.1l-0.1-0.2V31l-0.1-0.1v-0.2l-0.1-0.2l0,0v-0.2l-0.1-0.1v-0.2l-0.1-0.1v-0.1v-0.1l-0.1-0.1v-0.1
		v-0.1l-0.1-0.1v-0.2v-0.1l-0.1-0.1V29l-0.1-0.2l0,0v-0.1v-0.1v-0.1l0,0v-0.1l0,0l-0.1-0.1l0,0v-0.1l0,0v-0.1v-0.1l0,0V28l-0.1-0.1
		l0,0v-0.1v-0.1v-0.1v-0.1l0,0v-0.1l0,0l-0.1-0.1v-0.1l0,0v-0.1v-0.1l0,0V27V27l0,0l-0.1-0.2v-0.2v-0.2v-0.1v-0.1v-0.2V26v-0.1v-0.1
		v-0.1l-0.1-0.1v-0.2v-0.1v-0.2V25l0,0v-0.2v-0.2v-0.1v-0.2v-0.1v-0.1v-0.1V24v-0.1v-0.1v-0.1v-0.1l0.1-0.2v-0.2v-0.2l0,0V23v-0.1
		l0,0v-0.1v-0.1l0,0v-0.1l0,0v-0.1l0,0v-0.1l0.1-0.1l0,0v-0.1v-0.1l0,0v-0.1v-0.1V22v-0.1l0,0l0.1-0.1l0,0v-0.1v-0.1l0,0v-0.1v-0.1
		l0,0v-0.1v-0.1l0,0l0.1-0.2v-0.2l0.1-0.2v-0.1v-0.1v-0.1l0.1-0.1v-0.1v-0.1v-0.2l0.1-0.1v-0.1v-0.2l0.1-0.1v-0.2l0,0l0.1-0.2
		l0.1-0.2V19l0.1-0.1v-0.2v-0.1l0.1-0.1v-0.1v-0.1l0.1-0.1v-0.1l0.1-0.1v-0.1l0.1-0.2v-0.2l0,0l0.1-0.1l0,0v-0.1l0.1-0.1l0,0v-0.1
		l0,0h0.1v-0.1l0,0v-0.1l0,0l0.1-0.1V17h0.1l0,0v-0.1v-0.1l0.1-0.1v-0.1l0,0v-0.1h0.1v-0.1l0,0v-0.1h0.1v-0.1l0,0l0.1-0.1v-0.1l0,0
		l0.1-0.2l0.1-0.1l0.1-0.1v-0.1l0.1-0.1l0.1-0.1v-0.1l0.1-0.1v-0.1l0.1-0.1v-0.1l0.1-0.1l0.1-0.1l0.1-0.1l0.1-0.2l0,0l0.1-0.1
		l0.1-0.1l0.1-0.1l0.1-0.1v-0.1l0.1-0.1h0.1v-0.1l0.1-0.1v-0.1h0.1l0.1-0.1l0.1-0.1l0.1-0.2l0.1-0.1l0,0h0.1v-0.1h0.1v-0.1l0,0h0.1
		v-0.1l0,0h0.1l0,0v-0.1h0.1l0,0l0.1-0.1l0,0l0,0l0.1-0.1l0.1-0.1l0,0h0.1v-0.1l0,0h0.1v-0.1l0,0h0.1v-0.1h0.1v-0.1h0.1v-0.1l0,0
		l0.2-0.1h0.1l0.1-0.1l0.1-0.1h0.1l0.1-0.1l0,0L121,12h0.1l0.1-0.1l0,0l0.1-0.1h0.1l0.2-0.1l0.1-0.1l0,0l0.1-0.1h0.2l0.1-0.1h0.1
		h0.1v-0.1h0.1h0.1l0.1-0.1h0.1l0.1-0.1h0.1h0.1l0.1-0.1h0.1l0,0L123,11h0.1l0,0h0.1l0,0l0,0h0.1l0,0l0.1-0.1l0,0l0,0h0.1l0,0h0.1
		h0.1l0,0h0.1v-0.1h0.1l0,0h0.1l0,0h0.1l0,0h0.1l0,0l0.1-0.1l0,0h0.1l0,0h0.1l0,0h0.2h0.1h0.1h0.1h0.1h0.1l0.1-0.1h0.1l0,0h0.1h0.1
		h0.1h0.1h0.2h0.1"/>
	<path id="XMLID_7508_" class="st0" d="M146.7,12.1L146.7,12.1L146.7,12.1L146.7,12.1L146.7,12.1L146.7,12.1l-0.2,0.1l0,0l0,0l0,0
		h-0.1l0,0l0,0l0,0h-0.1l0,0h-0.1l0,0h-0.1h-0.1h-0.2l-0.1,0.1l0,0h-0.1h-0.1h-0.1h-0.1h-0.1l0,0h-0.1h-0.2h-0.1H145l0,0h-0.2h-0.1
		h-0.1h-0.1h-0.1h-0.1h-0.1h-0.1h-0.1l0,0H144h-0.1h-0.2h-0.1h-0.1l0,0h-0.2l-0.1-0.1h-0.1h-0.2H143l0,0h-0.1h-0.1h-0.1h-0.1
		l-0.1-0.1h-0.1h-0.1h-0.1h-0.2l0,0l-0.2-0.1h-0.1h-0.1h-0.1l-0.1-0.1h-0.1h-0.1h-0.1h-0.1l-0.1-0.1h-0.1H141h-0.1l-0.1-0.1h-0.2
		l0,0h-0.1v-0.1h-0.1h-0.1l0,0l0,0l-0.1-0.1l0,0h-0.1l0,0h-0.1v-0.1H140h-0.1v-0.1l0,0h-0.1h-0.1v-0.1l0,0h-0.1v-0.1h-0.1l0,0l0,0
		l-0.1-0.1l0,0h-0.1V11h-0.1l0,0l0,0l-0.1-0.1l0,0v-0.1h-0.1l0,0l0,0v-0.1h-0.1l0,0v-0.1l0,0H139v-0.1l0,0h-0.1l0,0v-0.1h-0.1v-0.1
		l0,0l0,0v-0.1h-0.1l0,0v-0.1l0,0l0,0h-0.1v-0.1l0,0v-0.1l0,0l-0.1-0.1l0,0V9.9l0,0V9.8l0,0h-0.1V9.7l0,0l0,0V9.6l0,0V9.6h-0.1V9.5"
		/>
	<path id="XMLID_7507_" class="st0" d="M138.4,9.5L138.4,9.5L138.4,9.5L138.4,9.5l0.1,0.2v0.1l0,0v0.1l0,0h0.1v0.1l0,0V10l0,0v0.1
		h0.1v0.1l0,0v0.1l0,0l0.1,0.1l0,0l0,0v0.1l0,0h0.1v0.1l0,0l0,0v0.1h0.1v0.1l0,0l0,0l0.1,0.1l0,0h0.1v0.1l0,0l0,0l0.1,0.1l0,0l0,0
		l0,0l0.1,0.1l0,0l0,0l0.1,0.1l0,0l0,0l0.1,0.1l0,0h0.1v0.1h0.1l0,0v0.1h0.1l0,0l0,0l0.1,0.1l0,0h0.1v0.1h0.1l0,0h0.1l0.1,0.1l0,0
		h0.1l0,0l0.1,0.1l0,0h0.1l0,0l0,0l0.1,0.1l0,0h0.1h0.1h0.1l0,0l0.1,0.1h0.1h0.2l0.1,0.1h0.1h0.1h0.1v0.1h0.1h0.1h0.1h0.1l0.1,0.1
		h0.2h0.2l0,0l0.1,0.1h0.1h0.2h0.1h0.1l0,0h0.1l0.1,0.1h0.1h0.1h0.1h0.1h0.1h0.1h0.2l0,0l0.1,0.1h0.2h0.1h0.1h0.1h0.1h0.1l0,0h0.1
		h0.1h0.1h0.1h0.1h0.2h0.1l0,0h0.2h0.1h0.2l0.1-0.1h0.1h0.1h0.1h0.1h0.1h0.1h0.1h0.1h0.2h0.1l0.2-0.1"/>
	<path id="XMLID_7506_" class="st0" d="M144.9,14.9L144.9,14.9h-0.3h-0.2h-0.2h-0.2h-0.2h-0.2h-0.1h-0.2h-0.1h-0.2h-0.2h-0.2h-0.2
		h-0.2h-0.3l0,0h-0.3h-0.3h-0.3h-0.2h-0.3l-0.2-0.1h-0.2h-0.2h-0.2h-0.3h-0.2h-0.3h-0.3H139h-0.3l0,0h-0.1h-0.1h-0.1l0,0h-0.1h-0.1
		l0,0h-0.1l0,0H138h-0.1l0,0h-0.1h-0.1h-0.1l0,0h-0.1h-0.1h-0.1l-0.1,0.1l0,0h-0.1l0,0h-0.1h-0.1l0,0H137l0,0l-0.1,0.1h-0.1h-0.1
		l0,0h-0.1h-0.1l-0.1,0.1l0,0h-0.1l0,0h-0.1l0,0h-0.1v0.1h-0.1H136l0,0h-0.1l-0.1,0.1l0,0h-0.1h-0.1l0,0l-0.1,0.1l0,0h-0.1l0,0h-0.1
		v0.1h-0.1l0,0h-0.1l-0.1,0.1l0,0h-0.1l0,0H135v0.1h-0.1l0,0l0,0h-0.1l0,0l0,0v0.1h-0.1l0,0l0,0h-0.1l0,0l-0.1,0.1l0,0h-0.1v0.1
		h-0.1l-0.1,0.1h-0.1l0,0l-0.1,0.1l0,0H134v0.1h-0.1l-0.1,0.1l0,0l-0.1,0.1h-0.1l0,0l-0.1,0.1l-0.1,0.1h-0.1l-0.1,0.1l0,0l-0.1,0.1
		l0,0l-0.1,0.1l0,0l-0.1,0.1l0,0l-0.1,0.1h-0.1V17l-0.1,0.1l0,0l-0.1,0.1h-0.1v0.1l-0.1,0.1l0,0l-0.1,0.1l0,0l-0.1,0.1l0,0v0.1h-0.1
		v0.1l-0.1,0.1h-0.1l-0.1,0.1l0,0V18l-0.1,0.1v0.1l-0.1,0.1l0,0v0.1h-0.1v0.1l0,0l-0.1,0.1v0.1l0,0l-0.1,0.1v0.1l-0.1,0.1l0,0v0.1
		l-0.1,0.1v0.1l-0.1,0.1l0,0v0.1l0,0l-0.1,0.1l0,0v0.1v0.1l-0.1,0.1l0,0v0.1l-0.1,0.1l0,0v0.1V20v0.1l-0.1,0.1v0.1l0,0v0.1v0.1l0,0
		l-0.1,0.1l0,0v0.1v0.1v0.1l-0.1,0.1l0,0v0.1V21v0.1v0.1v0.1l0,0v0.1v0.1l0,0v0.1v0.1l0,0v0.1v0.1v0.1l0,0V22v0.1v0.1v0.1v0.1l0,0
		v0.1v0.1l0,0v0.1v0.1l0,0l0.1,0.1v0.1v0.1l0,0V23v0.1l0.1,0.1v0.1v0.1l0,0v0.1l0,0l0.1,0.1v0.1l0,0v0.1l0.1,0.1v0.1V24l0,0l0.1,0.1
		v0.1v0.1h0.1v0.1v0.1h0.1v0.1l0,0v0.1h0.1v0.1v0.1l0.1,0.1v0.1l0,0l0.1,0.1l0.1,0.1l0,0v0.1l0.1,0.1l0,0l0.1,0.1l0,0v0.1h0.1v0.1
		h0.1v0.1l0.1,0.1l0.1,0.1l0,0l0.1,0.1l0.1,0.1l0.1,0.1l0.1,0.1l0,0l0.1,0.1l0.1,0.1l0,0l0.1,0.1h0.1v0.1l0.1,0.1l0.1,0.1l0.1,0.1
		l0.1,0.1l0,0h0.1l0.1,0.1l0,0l0.1,0.1l0,0h0.1l0,0l0.1,0.1l0,0h0.1v0.1h0.1l0,0l0.1,0.1h0.1l0,0v0.1h0.1h0.1v0.1h0.1l0,0h0.1l0,0
		v0.1h0.1l0,0h0.1l0.1,0.1l0,0h0.1l0,0l0.1,0.1h0.1h0.1l0.1,0.1l0,0h0.1h0.1v0.1h0.1h0.1l0,0l0.1,0.1h0.1h0.1l0.1,0.1"/>
	<path id="XMLID_7505_" class="st0" d="M179.8,11.5L179.8,11.5l0.3,0.1l0.2,0.1l0.2,0.1h0.2l0.2,0.1h0.1l0.2,0.1h0.1l0.2,0.1h0.1
		l0.2,0.1l0.2,0.1h0.2l0.3,0.1l0.2,0.1l0,0l0.3,0.1l0.2,0.1h0.2l0.2,0.1h0.2l0.2,0.1h0.1h0.1l0.2,0.1h0.2l0.1,0.1h0.2l0.2,0.1h0.3
		l0.2,0.1l0,0h0.2l0.1,0.1h0.1h0.1h0.1l0.1,0.1h0.1h0.1h0.1l0,0l0.1,0.1h0.1h0.1l0.2,0.1h0.1l0,0h0.1h0.1h0.1l0,0h0.1l0,0h0.1l0,0
		h0.1v0.1h0.1l0,0h0.1h0.1h0.1l0,0l0,0h0.1h0.1h0.1l0,0h0.1l0,0h0.1l0,0h0.1l0,0h0.1l0.1-0.1h0.1h0.1l0,0h0.1h0.1l0,0h0.1h0.1v-0.1
		h0.1l0,0h0.1l0,0h0.1h0.1h0.1v-0.1h0.1l0,0h0.2l0,0l0.1-0.1h0.1h0.1l0,0h0.1l0,0l0.1-0.1h0.1l0,0h0.1l0.1-0.1h0.1h0.1l0,0l0.1-0.1
		h0.1h0.1l0,0l0.1-0.1h0.1l0,0h0.1v-0.1h0.1h0.1l0,0l0.1-0.1h0.1h0.1l0,0l0.1-0.1h0.1l0.1-0.1h0.1l0,0l0.1-0.1h0.1l0,0h0.1v-0.1h0.1
		h0.1l0,0l0.1-0.1h0.1l0,0l0.3-0.2l0.3-0.2l0.3-0.1l0.2-0.1l0.3-0.2l0.2-0.1l0.2-0.1l0.2-0.1l0.2-0.1L194,11l0.3-0.1l0.2-0.1
		l0.3-0.1l0.3-0.2l0.3-0.2l0,0l0.3-0.1l0.2-0.1l0.1-0.1h0.2l0.2-0.1l0.1-0.1h0.1l0.1-0.1h0.2l0.1-0.1h0.1l0.2-0.1l0.2-0.1l0.2-0.1
		l0.2-0.1"/>
	<path id="XMLID_7504_" class="st0" d="M149.3,11.6L149.3,11.6L149.3,11.6L149.3,11.6l-0.1,0.2h-0.1v0.1l0,0h-0.1v0.1l0,0L149,12
		l0,0v0.1h-0.1v0.1l-0.1,0.1l0,0l-0.1,0.2l-0.1,0.1l-0.1,0.2l-0.1,0.1l-0.1,0.1v0.1l-0.1,0.1l-0.1,0.1v0.1l-0.1,0.1l-0.1,0.1
		l-0.1,0.2l-0.1,0.1l-0.1,0.2l-0.1,0.2l0,0l0,0l-0.1,0.1v0.1l0,0l-0.1,0.1l0,0v0.1l0,0l-0.1,0.1l0,0v0.1l0,0l-0.1,0.1v0.1l-0.1,0.1"
		/>
	<path id="XMLID_7503_" class="st0" d="M151.4,15.6L151.4,15.6L151.4,15.6v-0.2v-0.1h-0.1v-0.1l0,0v-0.1l0,0v-0.1l0,0V15l0,0
		l-0.1-0.1l0,0v-0.1l0,0v-0.1l0,0v-0.1l0,0h-0.1v-0.1l0,0l0,0l0,0v-0.1l0,0l0,0v-0.1h-0.1v-0.1l0,0l0,0l0,0l0,0v-0.1H151l0,0l0,0
		l0,0v-0.1l0,0l0,0h-0.1l0,0v-0.1l0,0"/>
	<path id="XMLID_7502_" class="st0" d="M185.8,15.3L185.8,15.3L185.8,15.3L185.8,15.3l0.2,0.1l0,0h0.1l0,0h0.1l0,0h0.1v0.1h0.1l0,0
		h0.1v0.1h0.1l0,0h0.1v0.1h0.1l0,0h0.1v0.1l0,0h0.1l0,0v0.1h0.1l0,0l0,0l0.1,0.1l0,0l0,0l0.1,0.1l0,0l0.1,0.1l0,0l0,0l0.1,0.1l0,0
		l0,0v0.1h0.1l0,0v0.1h0.1v0.1h0.1l0,0v0.1l0,0l0.1,0.1l0,0v0.1l0,0v0.1h0.1l0,0v0.1l0,0l0.1,0.1l0,0V17v0.1l0,0h0.1v0.1v0.1l0,0
		v0.1h0.1v0.1l0,0v0.1l0,0v0.1l0,0l0.1,0.1v0.1l0,0l0,0v0.1V18v0.1h0.1v0.1v0.1l0,0v0.1l0,0v0.1l0,0v0.1l0,0v0.1v0.1l0,0v0.1v0.1
		v0.1V19l0,0l0.1,0.1l0,0v0.1l0,0v0.1v0.1l0,0v0.1v0.1v0.1l0,0v0.1v0.1v0.1V20l0,0v0.1l0,0v0.1l-0.1,0.1l0,0v0.1v0.1v0.1l0,0v0.2
		l0,0v0.1v0.1l0,0v0.1V21l0,0v0.1v0.1h-0.1v0.1v0.1l0,0v0.1v0.1v0.1l0,0v0.1l-0.1,0.1v0.1V22v0.1l0,0v0.1v0.1l0,0l-0.1,0.1v0.1l0,0
		v0.1v0.1v0.1l0,0l-0.1,0.2v0.1l0,0V23v0.1l-0.1,0.1l0,0v0.1l0,0v0.1v0.1l0,0l-0.1,0.1v0.1v0.1l0,0l-0.1,0.1v0.1V24v0.1l-0.1,0.1
		l0,0v0.1l0,0v0.1l-0.1,0.1l0,0v0.1v0.1l-0.1,0.1v0.1l0,0v0.1l-0.1,0.1l0,0V25l-0.1,0.1l0,0v0.1l0,0l-0.1,0.1l0,0v0.1v0.1H187v0.1
		v0.1l0,0l-0.1,0.1v0.1l-0.1,0.1l0,0V26l0,0l-0.1,0.1l0,0v0.1h-0.1v0.1l0,0l-0.1,0.1v0.1l-0.1,0.1l0,0v0.1h-0.1v0.1h-0.1v0.1l0,0
		v0.1h-0.1V27l0,0h-0.1V27l-0.1,0.1l0,0l-0.1,0.1l0,0v0.1h-0.1v0.1h-0.1v0.1h-0.1l0,0v0.1h-0.1l0,0l-0.1,0.1l0,0l0,0l-0.1,0.1
		l-0.1,0.1l0,0l0,0h-0.1l-0.1,0.1l0,0h-0.1V28l0,0H185l0,0l-0.1,0.1l0,0h-0.1l0,0l-0.1,0.1h-0.1l0,0v0.1h-0.1h-0.1l0,0h-0.1l0,0
		l-0.1,0.1l0,0h-0.1l0,0h-0.1l0,0l-0.1,0.1h-0.1h-0.1l0,0l0,0h-0.1h-0.1l0,0h-0.1l0,0h-0.1l0,0h-0.1l0,0h-0.1l-0.1,0.1l0,0h-0.1
		h-0.1l0,0l-0.4-0.1h-0.3h-0.3h-0.3h-0.3h-0.3H181l-0.3-0.1h-0.2h-0.3H180h-0.3h-0.3l-0.3-0.1h-0.4l0,0h-0.3h-0.3h-0.2h-0.2
		l-0.2-0.1h-0.2h-0.2h-0.2h-0.2h-0.1h-0.2h-0.3h-0.2l-0.3-0.1h-0.3l0,0l0,0l0,0l0,0l0,0l0,0h-0.1l0,0l0,0l0,0l0,0l0,0l0,0l0,0l0,0
		l0,0"/>
	<path id="XMLID_7501_" class="st0" d="M96.4,27.1L96.4,27.1L96.4,27.1V27l0,0v-0.1l-0.1-0.1l0,0v-0.1l0,0v-0.1l0,0v-0.1h-0.1v-0.1
		v-0.1v-0.1l0,0v-0.1l-0.1-0.1V26l0,0v-0.1l0,0v-0.1l0,0v-0.1v-0.1l0,0L96,25.6v-0.1l0,0v-0.1l0,0v-0.2l0,0v-0.1V25v-0.1l0,0v-0.1
		v-0.1l0,0v-0.1l0,0v-0.1v-0.1v-0.1v-0.1l0,0v-0.1v-0.1v-0.1V24l0,0v-0.1v-0.1l0,0v-0.1v-0.1l0,0v-0.1v-0.1v-0.1v-0.1l0,0l0.1-0.1
		v-0.1V23v-0.1v-0.1l0,0l0.1-0.1l0,0v-0.1v-0.1l0,0v-0.1l0.1-0.1v-0.1v-0.1l0,0v-0.1l0.1-0.1V22v-0.1l0,0l0.1-0.1v-0.1l0,0v-0.1h0.1
		v-0.1v-0.1v-0.1l0.1-0.1v-0.1l0,0l0.1-0.1V21l0.1-0.1v-0.1l0.1-0.1v-0.1l0,0l0.1-0.1v-0.1v-0.1H97v-0.1l0.1-0.1v-0.1l0.1-0.2"/>
	<path id="XMLID_7500_" class="st0" d="M80.4,27.3L80.4,27.3L80.4,27.3L80.4,27.3L80.4,27.3l-0.1-0.2l0,0V27h-0.1l0,0V27l0,0h-0.1
		v-0.1l0,0v-0.1l-0.1-0.1l0,0l0,0v-0.1H80v-0.1l0,0l0,0v-0.1l0,0l0,0l-0.1-0.1l0,0v-0.1l0,0v-0.1h-0.1l0,0v-0.1V26l0,0v-0.1l0,0
		v-0.1l0,0v-0.1l0,0l0,0l-0.1-0.1l0,0v-0.1v-0.1l0,0l0,0v-0.1v-0.1l0,0v-0.1l0,0v-0.1l0,0V25l0,0v-0.1l0,0v-0.1l0,0v-0.1v-0.1l0,0
		l0,0v-0.1v-0.1l0,0l0,0v-0.1l0,0v-0.1l0,0l0,0v-0.1l0,0v-0.1v-0.1l0,0l0,0V24v-0.1l0,0v-0.1h0.1v-0.1l0,0l0,0v-0.1l0,0v-0.1l0,0
		v-0.1l0,0v-0.1l0,0l0.1-0.1v-0.1l0,0v-0.1l0,0V23l0,0H80v-0.1l0,0v-0.1l0,0v-0.1l0.1-0.1l0,0l0,0v-0.1v-0.1l0.1-0.1l0,0v-0.1l0,0
		l0,0l0.1-0.1l0,0v-0.1l0,0v-0.1h0.1V22v-0.1"/>
	<path id="XMLID_7499_" class="st0" d="M6.3,22.9L6.3,22.9L6.3,22.9L6.3,22.9L6.3,22.9V23l0,0l0,0v0.1l0,0l0,0v0.1l0,0l0,0v0.1l0,0
		v0.1l0,0l-0.1,0.1v0.1l0,0v0.1v0.1l0,0v0.1l0,0v0.1l0,0V24l0,0l-0.1,0.1v0.1v0.1l0,0v0.1v0.1l0,0v0.1v0.1H6v0.1l0,0v0.1l0,0v0.1
		l0,0v0.1V25v0.1l0,0H5.9v0.1l0,0l0,0v0.1l0,0l0,0l0,0l0,0v0.1l0,0l0,0v0.1l0,0H5.8"/>
	<path id="XMLID_7498_" class="st0" d="M5.7,25.4L5.7,25.4L5.7,25.4L5.7,25.4L5.7,25.4L5.7,25.4L5.7,25.4L5.7,25.4L5.7,25.4H5.6l0,0
		l0,0v-0.1H5.5l0,0l0,0H5.4l0,0l0,0H5.3l0,0H5.2l0,0l0,0H5.1l0,0H5l0,0l0,0H4.9l0,0H4.9l0,0l0,0H4.4H4H3.6H3.4l-0.3-0.1H2.9H2.6H2.4
		H2.2H1.9H1.6l-0.3,0.1H1H0.7H0.2"/>
	<path id="XMLID_7497_" class="st0" d="M150.2,24L150.2,24L150.2,24l-0.1,0.2v0.1l0,0v0.1H150v0.1l0,0v0.1l0,0l-0.1,0.1l0,0v0.1v0.1
		l-0.1,0.1l0,0l0,0v0.1V25h-0.1v0.1l0,0v0.1h-0.1v0.1l0,0l0,0v0.1l-0.1,0.1l0,0v0.1l0,0l-0.1,0.1l0,0v0.1h-0.1v0.1l0,0v0.1l0,0h-0.1
		V26l0,0v0.1h-0.1v0.1v0.1l0,0h-0.1v0.1l0,0l0,0l-0.1,0.1l0,0l0,0v0.1l0,0H149v0.1l0,0l0,0l-0.1,0.1l0,0l0,0v0.1h-0.1l0,0v0.1l0,0
		h-0.1l0,0V27l0,0l0,0h-0.1V27l0,0l0,0l-0.1,0.1l0,0l0,0l0,0l0,0h-0.1l0,0v0.1l0,0l0,0l0,0h-0.1l0,0l0,0v0.1h-0.1l0,0l0,0l0,0l0,0
		l0,0h-0.1v0.1l0,0l0,0l0,0l0,0l0,0l0,0h-0.1l0,0l0,0l0,0l0,0l-0.1,0.1l0,0h-0.1l0,0h-0.1l0,0l0,0v0.1h-0.1l0,0l0,0h-0.1l0,0h-0.1
		v0.1l0,0h-0.1h-0.1l0,0h-0.1v0.1l0,0h-0.1l0,0h-0.1l0,0l0,0h-0.1H147v0.1h-0.1l0,0h-0.1h-0.1l0,0h-0.1l0,0l-0.1,0.1l0,0h-0.1l0,0
		h-0.1l0,0h-0.1l0,0h-0.1l-0.1,0.1l0,0H146h-0.1h-0.1l0,0h-0.1h-0.1l0,0h-0.1l0,0h-0.1h-0.1v0.1h-0.1h-0.1h-0.1"/>
	<path id="XMLID_7496_" class="st0" d="M145.2,28.1L145.2,28.1L145.2,28.1l0.1,0.2v0.1v0.1v0.1l0,0v0.1l0,0v0.1l0.1,0.1l0,0v0.1V29
		V29v0.1l0,0h0.1v0.1l0,0l0,0v0.1l0,0l0,0l0,0l0,0v0.1l0,0l0,0v0.1l0,0h0.1l0,0v0.2v0.2l0.1,0.1v0.2v0.1l0.1,0.1v0.1v0.1v0.1
		l0.1,0.1v0.1v0.2l0.1,0.1v0.2v0.2l0,0l0.1,0.1v0.1l0,0l0.1,0.1v0.1l0,0v0.1l0,0l0.1,0.1v0.1l0,0V32v0.1l0.1,0.1v0.1"/>
	<path id="XMLID_7495_" class="st0" d="M146.2,32.3L146.2,32.3L146.2,32.3h0.2v0.1h0.1l0,0h0.1l0,0l0.1,0.1l0,0l0,0h0.1l0,0l0.1,0.1
		h0.1l0,0l0,0l0.1,0.1h0.1l0.1,0.1h0.1h0.1v0.1h0.1l0,0l0.1,0.1h0.1l0,0l0.1,0.1h0.1l0.1,0.1h0.1l0,0l0.1,0.1l0.1,0.1l0,0l0.1,0.1
		h0.1l0,0l0.1,0.1l0,0l0.1,0.1l0,0h0.1l0.1,0.1l0,0l0.1,0.1l0.1,0.1l0,0h0.1l0.1,0.1l0.1,0.1l0,0l0.1,0.1l0,0l0.1,0.1l0,0l0.1,0.1
		l0,0h0.1v0.1l0.1,0.1h0.1v0.1l0,0l0.2,0.2l0.2,0.2L150,35l0.1,0.1l0.2,0.1l0.1,0.2l0.1,0.1l0.1,0.1l0.1,0.1l0.1,0.1l0.1,0.1
		l0.1,0.2l0.1,0.1l0.2,0.2l0.2,0.2l0,0l0.3,0.3l0.3,0.3l0.2,0.3l0.2,0.2l0.2,0.2l0.2,0.2l0.2,0.2l0.2,0.2l0.2,0.2l0.1,0.2l0.2,0.2
		l0.3,0.3l0.2,0.2l0.3,0.3l0.3,0.3"/>
	<path id="XMLID_7494_" class="st0" d="M145.2,28.1L145.2,28.1L145.2,28.1h0.2h0.1h0.1l0,0h0.1h0.1l0,0l0.1-0.1l0,0h0.1h0.1l0,0h0.1
		h0.1l0,0h0.1h0.1l0.1-0.1l0,0h0.1l0,0h0.1l0,0h0.1l0,0h0.1l0,0l0.1-0.1h0.1l0,0l0,0h0.1h0.1l0,0h0.1v-0.1h0.1l0,0l0,0h0.1l0,0h0.1
		l0,0l0.1-0.1l0,0h0.1l0,0h0.1l0.1-0.1l0,0h0.1l0,0l0.1-0.1l0,0h0.1l0,0l0,0h0.1v-0.1h0.1h0.1l0.1-0.1l0,0l0,0l0,0l0,0h0.1v-0.1l0,0
		l0,0l0,0l0,0h0.1l0,0l0,0v-0.1l0,0h0.1l0,0l0,0V27h0.1l0,0V27l0,0l0,0h0.1l0,0v-0.1l0,0l0,0h0.1v-0.1l0,0l0,0l0.1-0.1l0,0v-0.1l0,0
		h0.1v-0.1l0,0l0,0v-0.1h0.1l0,0v-0.1l0,0h0.1v-0.1l0,0v-0.1h0.1v-0.1l0,0V26h0.1v-0.1l0,0l0,0v-0.1h0.1v-0.1l0,0v-0.1h0.1l0,0v-0.2
		l0.1-0.1v-0.1l0,0l0.1-0.1v-0.1l0,0l0.1-0.1v-0.1l0,0v-0.1l0.1-0.1v-0.1l0,0l0.1-0.2"/>
	<path id="XMLID_7493_" class="st0" d="M171.9,27.8L171.9,27.8L171.9,27.8L171.9,27.8V28l0,0v0.1l0,0v0.1l0,0l0,0v0.1l0,0v0.1h0.1
		v0.1v0.1l0,0v0.2l0.1,0.3V29v0.2l0.1,0.2v0.1v0.2v0.1l0.1,0.1V30v0.1l0.1,0.2v0.2l0.1,0.2v0.3l0,0l0.1,0.2l0.1,0.2v0.3l0.1,0.1v0.2
		l0.1,0.2V32l0.1,0.1v0.2l0.1,0.1v0.2l0.1,0.2v0.2l0.1,0.2l0.1,0.3"/>
	<path id="XMLID_7492_" class="st0" d="M173.2,33.3L173.2,33.3l-0.3,0.1l-0.3,0.1h-0.2l-0.3,0.1l-0.1,0.1H172l-0.2,0.1h-0.2
		l-0.1,0.1l-0.2,0.1h-0.2l-0.2,0.1l-0.3,0.1l-0.3,0.1l-0.3,0.1l0,0l-0.3,0.1l-0.3,0.1l-0.2,0.1h-0.2l-0.2,0.1l-0.2,0.1h-0.2
		l-0.2,0.1h-0.2l-0.1,0.1l-0.2,0.1L168,35h-0.2l-0.3,0.1l-0.3,0.2l0,0h-0.2l-0.2,0.1h-0.1l-0.1,0.1h-0.2l-0.1,0.1h-0.1h-0.1
		l-0.1,0.1h-0.1l-0.1,0.1H166l-0.2,0.1h-0.1l-0.2,0.1l0,0h-0.1l-0.1,0.1l0,0h-0.1l0,0l-0.1,0.1l0,0h-0.1l0,0h-0.1v0.1H165l0,0
		l-0.1,0.1h-0.1l0,0l-0.1,0.1h-0.1l-0.1,0.1l0,0l-0.1,0.1h-0.1l0,0l-0.1,0.1l0,0h-0.1l-0.1,0.1l0,0l-0.1,0.1l-0.1,0.1h-0.1l0,0
		l-0.1,0.1l-0.1,0.1l0,0l-0.1,0.1l0,0h-0.1v0.1l0,0h-0.1v0.1h-0.1v0.1h-0.1v0.1h-0.1l0,0l-0.1,0.1v0.1v0.1H163v0.1h-0.1l0,0v0.1
		h-0.1V38l0,0l-0.1,0.1l0,0l-0.1,0.1v0.1l0,0l0,0l-0.1,0.1v0.1l0,0l-0.1,0.1l0,0v0.1l0,0l0,0l-0.1,0.1l0,0v0.1v0.1h-0.1V39l0,0V39
		v0.1h-0.1v0.1l0,0v0.1l0,0v0.1l0,0v0.1l0,0l-0.1,0.1l0,0v0.1v0.1l0,0v0.1v0.1l0,0V40l0,0v0.1l0,0v0.1l0,0v0.1l0,0v0.1l0,0v0.1v0.1
		l0,0v0.1v0.1l0,0l0.1,0.1l0,0v0.1l0,0V41l0,0V41l0,0v0.1l0.1,0.1v0.1l0,0l0,0v0.1l0.1,0.1v0.1l0,0v0.1h0.1l0,0v0.1l0,0v0.1h0.1v0.1
		l0,0l0.1,0.1v0.1l0,0v0.1h0.1v0.1l0.1,0.1l0,0v0.1h0.1l0,0v0.1l0,0l0.1,0.1l0,0l0.1,0.1v0.1l0.1,0.1l0,0l0,0l0.1,0.1l0.1,0.1l0,0
		l0,0l0.1,0.1l0,0l0.1,0.1l0,0l0,0l0.1,0.1l0,0l0.1,0.1l0.1,0.1l0,0l0,0l0.1,0.1h0.1l0.1,0.1l0,0l0.1,0.1l0,0l0.1,0.1l0,0h0.1v0.1
		h0.1l0,0l0.1,0.1l0.1,0.1h0.1l0,0v0.1h0.1l0.1,0.1h0.1l0,0l0.1,0.1l0,0h0.1l0.1,0.1l0,0h0.1v0.1h0.1l0.1,0.1h0.1l0,0l0.1,0.1h0.1
		h0.1l0.1,0.1l0,0h0.1l0,0l0.1,0.1h0.1l0,0h0.1l0.1,0.1l0,0h0.1l0.1,0.1l0,0h0.2h0.1v0.1h0.1h0.1h0.1l0,0l0.1,0.1h0.1l0,0h0.1h0.1
		l0.1,0.1h0.1h0.1l0,0h0.1l0.1,0.1h0.1h0.1h0.1l0,0h0.1h0.1l0,0l0.1,0.1h0.1l0,0h0.1h0.1h0.2l0,0h0.1h0.1h0.1h0.1l0,0h0.1h0.1l0,0
		h0.1h0.1h0.1l0,0l0.1,0.1h0.1h0.1l0,0h0.2l0.1-0.1h0.1h0.1l0,0h0.1h0.1l0,0h0.1h0.1l0,0h0.1h0.1h0.1h0.2l0,0l0.1-0.1h0.1h0.1h0.1
		h0.1l0.1-0.1h0.1l0,0h0.1h0.1l0.1-0.1h0.1h0.1h0.1l0.2-0.1l0,0l0.3-0.1l0.3-0.1l0.3-0.2l0.3-0.1h0.3l0.2-0.1l0.2-0.1l0.2-0.1
		l0.3-0.1l0.2-0.1h0.3l0.2-0.1l0.3-0.2l0.3-0.1l0.3-0.1l0,0l0.4-0.2l0.4-0.1l0.3-0.2l0.3-0.1l0.3-0.1l0.3-0.1l0.3-0.1l0.2-0.1h0.3
		l0.3-0.1l0.3-0.1l0.3-0.2l0.3-0.1l0.4-0.1l0.4-0.2"/>
	<path id="XMLID_7491_" class="st0" d="M143,28.3L143,28.3h-0.2h-0.1h-0.2h-0.1h-0.1h-0.1h-0.1h-0.1H142h-0.1h-0.1h-0.1h-0.1h-0.2
		h-0.2l0,0h-0.3h-0.3h-0.2h-0.2h-0.2h-0.2h-0.2h-0.1h-0.2h-0.2h-0.2h-0.2h-0.3h-0.2h-0.3l0,0h-0.1h-0.2H138h-0.1h-0.2h-0.1h-0.1l0,0
		h-0.1l-0.1-0.1h-0.2h-0.1h-0.1h-0.2h-0.2l0,0l0,0h-0.1h-0.1h-0.1v-0.1h-0.1l0,0h-0.1h-0.1l0,0h-0.1l0,0H136h-0.1h-0.1"/>
	<path id="XMLID_7490_" class="st0" d="M135.8,28.1L135.8,28.1L135.8,28.1h0.2l0,0h0.1l0,0h0.1l0,0h0.1l0,0h0.1l0,0h0.1h0.1v0.1h0.1
		l0,0h0.2h0.2h0.1h0.1h0.1h0.1h0.1h0.1h0.1h0.1h0.1h0.2h0.1l0.1,0.1h0.2l0,0h0.3h0.3h0.3h0.2h0.2h0.2h0.1h0.2h0.2h0.2h0.2h0.2h0.2
		h0.3h0.3l0,0h0.2h0.2h0.1h0.1h0.1h0.1h0.1h0.1h0.1h0.1h0.2h0.1h0.1h0.2h0.2"/>
	<path id="XMLID_7489_" class="st0" d="M143.8,31.6L143.8,31.6L143.8,31.6h-0.2h-0.1l-0.1-0.1h-0.1h-0.1h-0.1h-0.1l0,0H143h-0.1
		h-0.1h-0.1h-0.1h-0.2l0,0h-0.1h-0.2h-0.1H142h-0.1h-0.1l0,0h-0.1h-0.1h-0.1h-0.1h-0.1h-0.1h-0.1h-0.2l0,0H141h-0.2h-0.1h-0.1h-0.1
		h-0.1h-0.1h-0.1h-0.1h-0.1l-0.1,0.1h-0.1h-0.1h-0.1h-0.2l0,0h-0.2l-0.2,0.1h-0.1H139h-0.1h-0.1l-0.1,0.1h-0.1h-0.1h-0.2h-0.1
		l-0.1,0.1H138h-0.2l-0.2,0.1l0,0h-0.1l0,0h-0.1l-0.1,0.1l0,0h-0.1l0,0h-0.1l0,0l-0.1,0.1l0,0h-0.1l0,0H137l-0.1,0.1l0,0h-0.1
		l-0.1,0.1l0,0h-0.1v0.1h-0.1l0,0h-0.1v0.1l0,0h-0.1v0.1h-0.1h-0.1l-0.1,0.1l0,0l0,0l-0.1,0.1l0,0h-0.1v0.1l0,0h-0.1V33l0,0h-0.1V33
		l0,0h-0.1v0.1h-0.1l0,0v0.1l-0.1,0.1l0,0h-0.1v0.1l0,0l0,0l-0.1,0.1l0,0l0,0l-0.1,0.1l0,0v0.1h-0.1v0.1l0,0h-0.1v0.1l0,0l0,0v0.1
		H135l0,0l0,0V34l0,0l0,0h-0.1v0.1l0,0l0,0l0,0l-0.1,0.1v0.1v0.1h-0.1v0.1l0,0v0.1h-0.1v0.1l0,0v0.1h-0.1v0.1v0.1h-0.1l0,0V35l0,0
		V35l0,0l0,0v0.1l0,0l0,0v0.1h-0.1l0,0l0,0v0.1l0,0v0.1l0,0l0,0v0.1l0,0l0,0l0,0v0.1l0,0h-0.1l0,0l0,0v0.1l0,0l0,0l0,0v0.1l0,0v0.1
		l0,0v0.1V36l0,0v0.1l0,0v0.1l0,0v0.1l0,0v0.1l0,0v0.1v0.1l0,0v0.1v0.1l0,0v0.1v0.1h0.1V37l0,0l0,0V37v0.1l0,0v0.1l0.1,0.1l0,0l0,0
		v0.1v0.1l0.1,0.1l0,0v0.1l0,0l0.1,0.1l0,0v0.1l0,0v0.1h0.1V38v0.1h0.1l0,0v0.1l0.1,0.1v0.1l0,0l0.1,0.1l0,0l0,0l0.1,0.1l0,0v0.1
		h0.1v0.1l0,0l0.1,0.1v0.1l0,0l0.1,0.1h0.1V39h0.1v0.1h0.1v0.1l0,0h0.1v0.1h0.1v0.1h0.1v0.1l0.1,0.1l0,0h0.1l0.1,0.1l0,0l0.1,0.1
		l0,0h0.1v0.1h0.1v0.1h0.1l0,0l0.1,0.1h0.1v0.1h0.1l0,0l0.1,0.1h0.1l0.1,0.1h0.1v0.1h0.1l0,0h0.1v0.1h0.1h0.1v0.1h0.1l0.1,0.1h0.1
		l0,0l0.1,0.1h0.1h0.1l0.1,0.1l0,0h0.1l0,0h0.1l0.1,0.1l0,0h0.1h0.1V41h0.1h0.2l0,0l0.1,0.1h0.1h0.1v0.1h0.1h0.1h0.1l0,0h0.1
		l0.1,0.1l0,0h0.1h0.1h0.1l0.1,0.1l0,0h0.2h0.2h0.1h0.1h0.1h0.1l0.1,0.1h0.1h0.1h0.1h0.1h0.1h0.2h0.1h0.2l0,0h0.2h0.2h0.1h0.1h0.2
		h0.1h0.1h0.1h0.1h0.1h0.1h0.1h0.2l0.2-0.1h0.1l0,0h0.2h0.1l0,0h0.1h0.1l0,0h0.1h0.1l0,0l0.1-0.1l0,0h0.1h0.1h0.1h0.1l0,0h0.1l0,0
		l0,0h0.1l0,0v-0.1l0,0h0.1l0,0l0,0l0,0h0.1l0,0l0,0h0.1"/>
	<path id="XMLID_7488_" class="st0" d="M175.7,28.1L175.7,28.1L175.7,28.1v0.2v0.1l0.1,0.1v0.1v0.1l0,0v0.1l0,0v0.1v0.1l0.1,0.1V29
		v0.1v0.1l0,0l0.1,0.2v0.3l0.1,0.2v0.1l0.1,0.2v0.2v0.1l0.1,0.1v0.2l0.1,0.1v0.2V31l0.1,0.2l0.1,0.2v0.3l0,0l0,0l0.1,0.1l0,0v0.1
		l0,0v0.1l0,0l0,0l0.1,0.1l0,0v0.1l0,0v0.1l0,0l0.1,0.1"/>
	<path id="XMLID_7487_" class="st0" d="M176.6,32.3L176.6,32.3h0.2l0.1-0.1h0.1h0.1h0.1l0.1-0.1h0.1h0.1h0.1l0.1-0.1h0.1h0.1h0.1
		L178,32h0.1l0,0l0.3-0.1h0.3l0.2-0.1h0.2l0.2-0.1h0.2h0.1l0.2-0.1h0.1l0.2-0.1h0.2h0.2l0.2-0.1h0.3l0.3-0.1l0,0l0.3-0.1h0.2
		l0.3-0.1h0.1h0.2l0.2-0.1h0.1h0.2h0.2l0.1-0.1h0.2h0.2l0.2-0.1h0.3l0.3-0.1l0,0h0.1l0,0h0.1h0.1l0,0h0.1l0,0h0.1l0,0h0.1l0,0h0.1
		h0.1l0,0h0.1l0,0h0.1h0.1h0.1l0,0h0.1l0,0h0.1V31h0.1l0,0h0.1h0.1l0,0h0.1h0.1l0,0l0.1,0.1h0.1h0.1l0,0l0.1,0.1l0,0h0.1l0,0h0.1
		v0.1h0.1h0.1l0,0l0.1,0.1h0.1l0,0h0.1l0.1,0.1h0.1v0.1h0.1l0,0h0.1v0.1h0.1l0,0l0.1,0.1h0.1l0,0l0.1,0.1h0.1l0,0l0.1,0.1h0.1
		l0.1,0.1l0,0l0.1,0.1l0,0h0.1v0.1h0.1l0,0l0.1,0.1l0,0l0.1,0.1h0.1l0.1,0.1l0,0l0.1,0.1h0.1v0.1h0.1v0.1h0.1l0,0l0.1,0.1l0,0
		l0.1,0.1l0,0l0.1,0.1h0.1l0.1,0.1V33l0,0h0.1l0.1,0.1l0.1,0.1l0,0l0.1,0.1l0,0h0.1v0.1h0.1v0.1h0.1v0.1h0.1l0.1,0.1l0.1,0.1l0,0
		l0.1,0.2l0.2,0.1l0.1,0.1l0.1,0.1l0.1,0.1l0.1,0.1l0.1,0.1v0.1l0.1,0.1l0.1,0.1l0.1,0.1l0.1,0.1l0.1,0.1l0.2,0.2l0.1,0.1l0,0
		l0.1,0.2l0.2,0.1l0.1,0.1v0.1l0.1,0.1l0.1,0.1l0.1,0.1V36l0.1,0.1h0.1v0.1l0.1,0.1l0.1,0.2l0.1,0.1l0.2,0.2l0,0l0,0l0.1,0.1l0,0
		v0.1h0.1l0,0V37l0,0l0.1,0.1l0,0l0,0l0.1,0.1l0,0v0.1l0.1,0.1l0,0l0,0l0.1,0.1l0,0v0.1l0,0l0,0l0.1,0.1l0,0l0,0l0,0v0.1h0.1v0.1
		l0,0l0.1,0.1l0,0l0,0v0.1l0,0V38h0.1l0,0l0,0v0.1l0,0l0,0v0.1l0,0h0.1v0.1l0,0l0,0v0.1l0,0l0,0v0.1l0,0l0,0l0,0v0.1l0,0l0,0h0.1
		v0.1l0,0v0.1l0,0"/>
	<path id="XMLID_7486_" class="st0" d="M134.9,34L134.9,34L134.9,34L134.9,34L134.9,34L134.9,34L134.9,34L134.9,34L134.9,34
		L134.9,34L134.9,34l0.2-0.1l0,0v-0.1l0,0l0,0l0,0l0,0l0.1-0.1l0,0l0.1-0.1l0,0v-0.1l0,0h0.1v-0.1l0,0l0,0l0.1-0.1l0,0l0,0l0.1-0.1
		l0,0l0,0l0.1-0.1h0.1v-0.1l0,0l0.1-0.1l0,0l0,0h0.1V33l0,0h0.1v-0.1h0.1l0,0l0.1-0.1l0,0l0,0l0.1-0.1h0.1v-0.1h0.1l0,0h0.1v-0.1
		l0,0h0.1l0,0l0.1-0.1h0.1l0,0l0.1-0.1l0,0h0.1l0.1-0.1l0,0h0.1h0.1l0,0l0.1-0.1l0,0l0,0h0.1h0.1l0,0l0.1-0.1h0.1h0.1l0,0h0.1
		l0.2-0.1h0.1h0.2h0.1l0.1-0.1h0.1h0.1h0.1h0.1h0.1l0.1-0.1h0.1h0.2h0.2l0,0h0.2l0.1-0.1h0.2h0.1h0.1h0.2h0.1h0.1h0.1h0.1h0.1
		l0.1-0.1h0.2h0.2h0.2l0,0h0.1h0.2h0.1h0.1h0.1l0,0h0.1h0.1h0.1h0.1h0.1h0.1h0.1h0.1h0.2l0,0h0.1h0.1h0.1h0.1h0.1l0.1,0.1h0.1l0,0
		h0.1h0.1h0.1h0.1h0.1h0.1h0.2"/>
	<path id="XMLID_7485_" class="st0" d="M154.1,39.4L154.1,39.4l-0.3-0.3l-0.2-0.3l-0.2-0.3l-0.3-0.2l-0.1-0.2l-0.2-0.2l-0.2-0.2
		l-0.1-0.1l-0.2-0.2l-0.2-0.2l-0.2-0.2l-0.2-0.2l-0.2-0.3l-0.3-0.3l-0.3-0.3l0,0l-0.2-0.2l-0.1-0.2l-0.2-0.2l-0.1-0.2l-0.1-0.1
		l-0.2-0.2l-0.1-0.1l-0.1-0.1l-0.1-0.1l-0.1-0.2l-0.1-0.1l-0.2-0.2l-0.1-0.1l-0.2-0.2l-0.2-0.3l0,0h-0.1l-0.1-0.1V34h-0.1l-0.1-0.1
		l0,0v-0.1h-0.1l0,0l-0.1-0.1h-0.1v-0.1h-0.1l-0.1-0.1l-0.1-0.1l0,0l-0.1-0.1l0,0l-0.1-0.1h-0.1h-0.1v-0.1h-0.1v-0.1h-0.1l0,0
		L148,33h-0.1V33h-0.1l-0.1-0.1l0,0h-0.1h-0.1v-0.1h-0.1l0,0l0,0l-0.1-0.1l0,0l0,0h-0.1l0,0l-0.1-0.1l0,0h-0.1l-0.1-0.1l0,0l0,0H147
		h-0.1v-0.1h-0.1l0,0h-0.1v-0.1h-0.1l0,0h-0.1h-0.1v-0.1h-0.1h-0.1"/>
	<path id="XMLID_7484_" class="st0" d="M173.2,33.2L173.2,33.2l-0.3,0.1l-0.3,0.1h-0.2l-0.2,0.1l-0.2,0.1H172l-0.2,0.1h-0.1
		l-0.2,0.1h-0.2l-0.2,0.1l-0.2,0.1h-0.2l-0.3,0.1l-0.3,0.1l0,0l-0.3,0.1l-0.3,0.1l-0.3,0.1l-0.2,0.1l-0.2,0.1h-0.2l-0.1,0.1
		l-0.2,0.1h-0.2l-0.2,0.1h-0.2l-0.2,0.1l-0.2,0.1l-0.3,0.1l-0.3,0.1l0,0l-0.1,0.1l-0.2,0.1H167l-0.2,0.1h-0.1h-0.1l-0.1,0.1h-0.1
		h-0.1l-0.1,0.1h-0.1l-0.1,0.1h-0.2l-0.1,0.1h-0.2l0,0l-0.1,0.1h-0.1l0,0l-0.1,0.1l0,0l0,0h-0.1l0,0l0,0l-0.1,0.1l0,0h-0.1l0,0
		l-0.1,0.1l0,0l0,0l0,0H165l0,0l0,0l0,0l0,0l0,0l0,0h-0.1l0,0l0,0v0.1l0,0l0,0l0,0l0,0h-0.2v0.1l-0.1,0.1h-0.1l-0.1,0.1l0,0h-0.1
		v0.1h-0.1l0,0l-0.1,0.1h-0.1l-0.1,0.1v0.1h-0.2l0,0v0.1l-0.1,0.1l0,0h-0.1V37h-0.1v0.1h-0.1l0,0v0.1h-0.1v0.1h-0.1v0.1h-0.1l0,0
		l-0.1,0.1v0.1h-0.1v0.1H163v0.1l0,0v0.1h-0.1l0,0v0.1h-0.1V38l-0.1,0.1l0,0"/>
	<path id="XMLID_7483_" class="st0" d="M192.8,39.3L192.8,39.3L192.8,39.3L192.8,39.3L192.8,39.3l-0.2,0.1l0,0l0,0l0,0h-0.1v0.1l0,0
		l0,0h-0.1l0,0h-0.1v0.1l0,0h-0.1l0,0h-0.1l0,0l0,0l-0.1,0.1l0,0H192l0,0l0,0h-0.1l0,0h-0.1v0.1h-0.1l0,0h-0.2l-0.2,0.1h-0.2h-0.2
		l-0.1,0.1h-0.2h-0.1h-0.1l-0.1,0.1h-0.2h-0.1h-0.2l-0.2,0.1h-0.2l-0.2,0.1l0,0h-0.3l-0.3,0.1h-0.2l-0.2,0.1h-0.2h-0.1l-0.2,0.1
		h-0.2H188l-0.2,0.1h-0.2h-0.2l-0.2,0.1h-0.2l-0.3,0.1l0,0l-0.3,0.1h-0.3l-0.2,0.1H186l-0.2,0.1h-0.2h-0.1l-0.2,0.1h-0.2l-0.1,0.1
		H185l-0.2,0.1h-0.3l-0.2,0.1l-0.3,0.1"/>
	<path id="XMLID_7482_" class="st0" d="M187.3,42.3L187.3,42.3l0.2-0.1h0.1l0.1-0.1l0,0h0.1l0.1-0.1h0.1l0,0h0.1l0.1-0.1l0,0h0.1
		l0.1-0.1h0.1l0.1-0.1l0,0h0.3l0.2-0.1l0.2-0.1h0.1l0.2-0.1h0.1l0.1-0.1h0.2l0.1-0.1h0.1l0.2-0.1h0.1l0.2-0.1l0.2-0.1l0.3-0.1l0,0
		h0.2l0.2-0.1h0.2l0.1-0.1h0.2l0.1-0.1h0.2h0.1l0.1-0.1h0.2h0.1l0.2-0.1h0.2l0.2-0.1l0.2-0.1l0,0h0.1l0,0h0.1h0.1l0,0h0.1v-0.1l0,0
		h0.1l0,0h0.1l0,0h0.1h0.1h0.1l0,0h0.1v-0.1h0.1h0.1l0,0h0.1l0,0h0.1l0,0h0.1h0.1l0,0h0.1l0.1-0.1h0.1l0,0h0.3h0.3h0.3l0.3-0.1h0.3
		h0.3h0.2h0.3l0.2-0.1h0.3h0.2h0.3h0.3l0.3-0.1h0.3l0,0h0.1h0.1h0.1h0.1l0.1-0.1l0,0h0.1h0.1l0,0h0.1h0.1l0,0h0.1h0.1h0.1"/>
	<path id="XMLID_7481_" class="st0" d="M187.3,42.1L187.3,42.1L187.3,42.1l0.2-0.1h0.1l0.1-0.1h0.1l0,0h0.1l0.1-0.1l0,0h0.1l0.1-0.1
		h0.1h0.1l0.1-0.1h0.1l0,0l0.2-0.1l0.2-0.1h0.2l0.2-0.1l0.1-0.1h0.2h0.1l0.1-0.1h0.1l0.2-0.1h0.1l0.2-0.1l0.2-0.1h0.2l0.2-0.1l0,0
		l0.3-0.1h0.2l0.1-0.1h0.2l0.2-0.1h0.1l0.1-0.1h0.2h0.1l0.1-0.1h0.2l0.1-0.1h0.2l0.2-0.1h0.3l0,0l0,0l0.1-0.1h0.1l0,0h0.1l0,0h0.1
		l0,0h0.1l0,0h0.1v-0.1h0.1l0,0h0.1l0,0h0.1h0.1h0.1l0,0h0.1l0,0L194,40l0,0h0.1l0,0h0.1h0.1l0,0h0.1h0.1l0,0l0.4-0.1h0.3h0.3h0.3
		l0.3-0.1h0.2h0.3h0.2h0.3h0.2l0.3-0.1h0.3h0.3h0.3l0.4-0.1l0,0h0.1h0.1h0.1h0.1l0,0h0.1h0.1l0,0l0.1-0.1h0.1l0,0h0.1h0.1h0.1h0.1"
		/>
	<path id="XMLID_7480_" class="st0" d="M153.1,41.3L153.1,41.3L153.1,41.3L153.1,41.3h-0.2l0,0l0,0l0,0l-0.1-0.1l0,0l0,0l0,0h-0.1
		l0,0l0,0h-0.1l0,0l0,0h-0.1l-0.2-0.1h-0.1l-0.1-0.1h-0.1l0,0L152,41h-0.1h-0.1h-0.1l-0.1-0.1h-0.1h-0.1l-0.1-0.1h-0.1l0,0l-0.2-0.1
		H151h-0.1h-0.2h-0.1h-0.1h-0.1h-0.1h-0.1h-0.1h-0.1l-0.1-0.1h-0.2h-0.2h-0.1l0,0h-0.2h-0.1h-0.1h-0.2l0,0H149h-0.1h-0.1h-0.1h-0.1
		h-0.1h-0.1h-0.1h-0.1l-0.2,0.1l0,0H148h-0.2h-0.1h-0.1h-0.1h-0.1h-0.1h-0.1l0,0l-0.1,0.1h-0.1h-0.1h-0.2h-0.1h-0.2l0,0l-0.2,0.1
		h-0.3H146l-0.2,0.1h-0.1h-0.2h-0.1l-0.2,0.1h-0.1h-0.2H145l-0.2,0.1h-0.2l-0.2,0.1h-0.3"/>
	<path id="XMLID_7479_" class="st0" d="M152.3,41.2L152.3,41.2L152.3,41.2h-0.2H152h-0.1h-0.1h-0.1l0,0h-0.1h-0.1h-0.1l0,0h-0.1
		h-0.1h-0.1h-0.1l0,0H151h-0.1h-0.1h-0.1h-0.1h-0.1h-0.1l-0.1,0.1l0,0h-0.1h-0.1h-0.1H150h-0.2h-0.1l0,0l-0.1,0.1h-0.1h-0.1l0,0
		h-0.1h-0.1l0,0l-0.1,0.1l0,0h-0.1h-0.1l0,0H149h-0.1l-0.1,0.1l0,0h-0.1h-0.1l0,0h-0.1l0,0l-0.1,0.1l0,0h-0.1l0,0l0,0h-0.1l0,0
		l-0.1,0.1h-0.1l0,0l0,0H148l-0.1,0.1l0,0h-0.1l0,0l0,0h-0.1l0,0l-0.1,0.1l0,0l0,0h-0.1l0,0h-0.1l-0.1,0.1l0,0l0,0l0,0l-0.1,0.1l0,0
		l0,0h-0.1l0,0l0,0v0.1h-0.1l0,0l0,0h-0.1v0.1H147l0,0l0,0l0,0v0.1l0,0h-0.1l0,0l0,0l0,0v0.1l0,0l0,0h-0.1l0,0l0,0v0.1"/>
	<path id="XMLID_7478_" class="st0" d="M146.6,43L146.6,43L146.6,43L146.6,43L146.6,43L146.6,43L146.6,43L146.6,43L146.6,43
		L146.6,43L146.6,43L146.6,43L146.6,43L146.6,43L146.6,43L146.6,43L146.6,43L146.6,43L146.6,43l0.1-0.2l0,0l0,0l0,0l0,0l0,0v-0.1
		l0,0h0.1l0,0l0,0l0,0l0,0v-0.1l0,0l0,0h0.1l0,0v-0.1l0,0l0,0l0,0h0.1l0,0v-0.1l0,0l0,0l0,0h0.1l0,0l0,0v-0.1h0.1l0,0v-0.1h0.1l0,0
		l0,0h0.1l0,0v-0.1l0,0h0.1l0,0l0,0l0.1-0.1l0,0h0.1l0,0h0.1V42l0,0h0.1l0,0h0.1l0,0l0,0l0.1-0.1l0,0h0.1l0,0h0.1l0,0l0.1-0.1l0,0
		h0.1l0,0h0.1l0,0l0.1-0.1l0,0l0,0h0.1l0,0h0.1l0,0h0.1l0.1-0.1l0,0h0.1h0.1h0.1l0,0l0.1-0.1h0.1l0,0h0.1h0.1l0,0h0.1h0.1v-0.1h0.1
		h0.2l0,0h0.1h0.1h0.1l0.1-0.1h0.1h0.1h0.1h0.1h0.1l0,0h0.1h0.1h0.1h0.2l0.1-0.1l0,0h0.2h0.1h0.1h0.1h0.1h0.1h0.1l0,0h0.1h0.1h0.1
		h0.1h0.1h0.2h0.1l0,0h0.1l0.1,0.1h0.1h0.1h0.1l0,0h0.1h0.1l0,0h0.1l0,0h0.1h0.1l0.1,0.1h0.1"/>
	<path id="XMLID_7477_" class="st0" d="M184.4,41.3L184.4,41.3L184.4,41.3L184.4,41.3L184.4,41.3L184.4,41.3L184.4,41.3L184.4,41.3
		L184.4,41.3l0.2,0.1l0,0l0,0l0,0l0,0h0.1l0,0v0.1l0,0h0.2l0.2,0.1h0.2h0.1l0.1,0.1h0.1h0.1l0.1,0.1h0.2h0.1l0.1,0.1h0.1l0.2,0.1
		h0.2l0.2,0.1l0,0l0,0h0.1h0.1l0,0h0.1h0.1v0.1l0,0h0.1l0,0h0.1h0.1l0,0h0.1h0.1"/>
	<path id="XMLID_7476_" class="st0" d="M180.7,42.3L180.7,42.3l0.2,0.1l0.2,0.1h0.1l0.2,0.1l0.1,0.1h0.1h0.1l0.1,0.1h0.2l0.1,0.1
		h0.1l0.2,0.1h0.1l0.2,0.1l0.2,0.1l0,0h0.2l0.2,0.1h0.1h0.1h0.1l0.2,0.1h0.1h0.1h0.1h0.1l0.1,0.1h0.1h0.2l0.1,0.1h0.2l0,0h0.1l0,0
		h0.1l0,0l0,0h0.1l0,0l0,0l0,0h0.1l0,0l0,0h0.1l0,0h0.1"/>
	<path id="XMLID_7475_" class="st0" d="M184.9,43.4L184.9,43.4l-0.2,0.2l-0.2,0.1l-0.2,0.1h-0.1l-0.2,0.1l-0.1,0.1l-0.1,0.1h-0.1
		l-0.2,0.1l-0.1,0.1l-0.1,0.1h-0.2l-0.2,0.1l-0.1,0.1l-0.3,0.2l0,0l-0.2,0.1l-0.2,0.1l-0.1,0.1l-0.2,0.1l-0.1,0.1l-0.1,0.1l-0.2,0.1
		l-0.1,0.1h-0.1l-0.1,0.1l-0.2,0.1l-0.1,0.1l-0.2,0.1l-0.2,0.1l-0.2,0.2l0,0l-0.1,0.1l-0.1,0.1h-0.1l-0.1,0.1l0,0l-0.1,0.1h-0.1v0.1
		h-0.1l-0.1,0.1H180v0.1l-0.1,0.1h-0.1l-0.2,0.1l0,0v0.1l0,0h-0.1v0.1l0,0h-0.1l0,0l0,0l-0.1,0.1l0,0l0,0l0,0l-0.1,0.1l0,0l-0.1,0.1
		l0,0l0,0l-0.1,0.1l0,0l0,0l-0.1,0.1l0,0l0,0H179v0.1l0,0h-0.1v0.1h-0.1v0.1h-0.1l0,0v0.1l0,0l0,0h-0.1v0.1l0,0l0,0l0,0l0,0v0.1
		h-0.1l0,0l0,0v0.1h-0.1l0,0l0,0V48l0,0l0,0l0,0l0,0l0,0h-0.1v0.1l0,0l0,0l0,0l0,0l0,0v0.1"/>
	<path id="XMLID_7474_" class="st0" d="M178.4,48L178.4,48L178.4,48L178.4,48L178.4,48L178.4,48L178.4,48L178.4,48L178.4,48
		L178.4,48v-0.2l0,0l0,0h0.1l0,0l0,0v-0.1l0,0l0,0l0,0l0.1-0.1l0,0l0,0l0,0l0,0l0.1-0.1l0,0l0,0l0,0l0,0l0.1-0.1l0,0l0,0l0,0
		l0.1-0.1l0,0v-0.1h0.1l0,0v-0.1h0.1l0,0v-0.1h0.1l0,0V47h0.1l0,0l0.1-0.1l0,0l0,0l0.1-0.1l0,0l0,0l0.1-0.1l0,0l0,0l0,0l0.1-0.1l0,0
		l0,0h0.1v-0.1l0,0h0.1l0,0l0.1-0.1l0.1-0.1l0.1-0.1h0.1l0.1-0.1l0,0l0.1-0.1h0.1v-0.1h0.1l0.1-0.1h0.1v-0.1l0.2-0.1l0.1-0.1l0,0
		l0.2-0.1l0.2-0.1l0.1-0.2h0.2l0.1-0.1l0.1-0.1l0.2-0.1l0.1-0.1h0.1L182,45l0.2-0.1l0.1-0.1l0.2-0.1l0.2-0.1l0.2-0.2l0,0l0.2-0.1
		l0.2-0.1l0.1-0.1l0.1-0.1h0.2l0.1-0.1l0.1-0.1h0.1l0.1-0.1h0.1l0.1-0.1l0.2-0.1l0.1-0.1l0.2-0.1l0.2-0.1"/>
	<path id="XMLID_7473_" class="st0" d="M164.1,1.6l0.8-0.3"/>
	<path id="XMLID_7472_" class="st0" d="M162.6,27l0.6,0.1L162.6,27L162.6,27"/>
	<path id="XMLID_7471_" class="st0" d="M184.9,3.8L184.9,3.8l0.3,0.1h-0.1"/>
	<path id="XMLID_7470_" class="st0" d="M113.9,4.7l1.5-0.1"/>
	<path id="XMLID_7469_" class="st0" d="M150.8,14.1l-0.3-0.2"/>
	<path id="XMLID_7468_" class="st0" d="M147.1,14.8l1-1.8l1.2-1.6v0.2"/>
	<path id="XMLID_7467_" class="st0" d="M167.4,4.1L167.4,4.1"/>
	<path id="XMLID_7466_" class="st0" d="M186.9,5l0.3,0.2"/>
	<path id="XMLID_7465_" class="st0" d="M149.6,7.3l0.4,0.1"/>
	<path id="XMLID_7464_" class="st0" d="M138.4,9.5l-0.1-0.3"/>
	<path id="XMLID_7463_" class="st0" d="M150,7.4l1.3,0.3"/>
	<path id="XMLID_7462_" class="st0" d="M153.5,8L153.5,8l0.9-0.3"/>
	<path id="XMLID_7461_" class="st0" d="M190.2,6.9l-1-0.5l-1-0.6"/>
	<path id="XMLID_7460_" class="st0" d="M190.1,7.4l-1-0.3"/>
	<path id="XMLID_7459_" class="st0" d="M192.5,7.9L192.5,7.9L191,7.5l-0.9-0.1l3,0.9l1,0.3"/>
	<path id="XMLID_7458_" class="st0" d="M122,8.5l-0.4-0.3L122,8.5"/>
	<path id="XMLID_7457_" class="st0" d="M152,7.8l-0.3-0.1L152,7.8"/>
	<path id="XMLID_7456_" class="st0" d="M151.8,7.7l-0.4-0.1"/>
	<path id="XMLID_7455_" class="st0" d="M154.4,7.6l-0.7,0.7l0.2-0.1"/>
	<path id="XMLID_7454_" class="st0" d="M154.3,7.7l-0.5,0.3"/>
	<path id="XMLID_7453_" class="st0" d="M153.4,8.1L153.4,8.1"/>
	<path id="XMLID_7452_" class="st0" d="M152.4,7.9l0.6-0.1"/>
	<path id="XMLID_7451_" class="st0" d="M192.4,8l0.8,0.3"/>
	<path id="XMLID_7450_" class="st0" d="M175.6,28.1l0.4,2.3l0.6,1.9l0.1-0.1"/>
	<path id="XMLID_7449_" class="st0" d="M193.2,38.6l-0.2,0.3"/>
	<path id="XMLID_7448_" class="st0" d="M197.5,9.5L197.5,9.5L197.5,9.5L197.5,9.5"/>
	<path id="XMLID_7447_" class="st0" d="M197.5,9.4l0.2,0.1"/>
	<path id="XMLID_7446_" class="st0" d="M100.1,11.1h1.7"/>
	<path id="XMLID_7445_" class="st0" d="M124.5,10.6l1.1,0.1"/>
	<path id="XMLID_7444_" class="st0" d="M124,10.2l-0.7-0.3h0.1"/>
	<path id="XMLID_7443_" class="st0" d="M124.7,10.4l-0.9-0.3"/>
	<path id="XMLID_7442_" class="st0" d="M123.1,9.6L123.1,9.6l0.5,0.3"/>
	<path id="XMLID_7441_" class="st0" d="M128.9,10.6l-0.6,0.2"/>
	<path id="XMLID_7440_" class="st0" d="M127.8,10.9h-0.2"/>
	<path id="XMLID_7439_" class="st0" d="M130.4,10.1l-1,0.7"/>
	<path id="XMLID_7438_" class="st0" d="M129,10.8l0.9-0.4"/>
	<path id="XMLID_7437_" class="st0" d="M146.6,12.3l0.1-0.2"/>
	<path id="XMLID_7436_" class="st0" d="M146.6,12.3l-0.9,1.2l-0.9,1.5"/>
	<path id="XMLID_7435_" class="st0" d="M135.8,28.1L135.8,28.1"/>
	<path id="XMLID_7434_" class="st0" d="M179.8,11.4L179.8,11.4"/>
	<path id="XMLID_7433_" class="st0" d="M198.7,9.6L198,9.5"/>
	<path id="XMLID_7432_" class="st0" d="M99,12.2L99,12.2"/>
	<path id="XMLID_7431_" class="st0" d="M179.8,11.5l-0.8,1.1l-1.3,2.2"/>
	<path id="XMLID_7430_" class="st0" d="M150.9,14.1l-0.3-0.2"/>
	<path id="XMLID_7429_" class="st0" d="M185.8,15.3L185.8,15.3"/>
	<path id="XMLID_7428_" class="st0" d="M97.5,19.5h0.4l-1.1,7.7h-0.4"/>
	<path id="XMLID_7427_" class="st0" d="M97.9,19.5V19"/>
	<path id="XMLID_7426_" class="st0" d="M75.8,21.9H65.1"/>
	<path id="XMLID_7425_" class="st0" d="M96.4,21.7l0.2-0.2h-16"/>
	<path id="XMLID_7424_" class="st0" d="M96.5,21.6l0.1-0.3"/>
	<path id="XMLID_7423_" class="st0" d="M0.5,23.3h4.6l0.6-0.1l0.4-0.3l0.1-0.1"/>
	<path id="XMLID_7422_" class="st0" d="M5.8,25.5l0.3,0.4L5.8,25.5"/>
	<path id="XMLID_7421_" class="st0" d="M6.4,22.7l-0.2,0.2"/>
	<path id="XMLID_7420_" class="st0" d="M145.1,28.1L145.1,28.1"/>
	<path id="XMLID_7419_" class="st0" d="M146.3,32.3L146.3,32.3"/>
	<path id="XMLID_7418_" class="st0" d="M6.2,25.9l0.1,0.2L6.2,25.9"/>
	<path id="XMLID_7417_" class="st0" d="M5.8,25.5L5.8,25.5L6,25.7"/>
	<path id="XMLID_7416_" class="st0" d="M6.3,26.1l0.9,1"/>
	<path id="XMLID_7415_" class="st0" d="M7.4,27.3L7.4,27.3"/>
	<path id="XMLID_7414_" class="st0" d="M75.8,27.3l-10.6,0.1"/>
	<path id="XMLID_7413_" class="st0" d="M79.8,26.2H96"/>
	<path id="XMLID_7412_" class="st0" d="M96.4,27.1l0.1,0.4l0.2,0.4l0.2-0.9"/>
	<path id="XMLID_7411_" class="st0" d="M96.2,27l0.4,1l0,0"/>
	<path id="XMLID_7410_" class="st0" d="M162.5,27l-0.3-0.1"/>
	<path id="XMLID_7409_" class="st0" d="M171.9,27.9l-5-0.4l-3.7-0.3L171.9,27.9"/>
	<path id="XMLID_7408_" class="st0" d="M96.4,29.2l0.2-1.2"/>
	<path id="XMLID_7407_" class="st0" d="M143,28.3l0.3,1.7l0.4,1.7"/>
	<path id="XMLID_7406_" class="st0" d="M145.1,28.1l0.4,2.2l0.6,2.1"/>
	<path id="XMLID_7405_" class="st0" d="M193.2,38.7l-0.1,0.3l0.1-0.2"/>
	<path id="XMLID_7404_" class="st0" d="M143.8,31.7L143.8,31.7"/>
	<path id="XMLID_7403_" class="st0" d="M135.1,33.8L135.1,33.8"/>
	<path id="XMLID_7402_" class="st0" d="M126.7,38.4h-0.8h0.2"/>
	<path id="XMLID_7401_" class="st0" d="M125.2,38.6L125.2,38.6h0.3"/>
	<path id="XMLID_7400_" class="st0" d="M126.7,38.3l1.2,0.2"/>
	<path id="XMLID_7399_" class="st0" d="M162.6,38.3l0.1-0.2"/>
	<path id="XMLID_7398_" class="st0" d="M122.5,40.3l1.2-1l0.2-0.1"/>
	<path id="XMLID_7397_" class="st0" d="M123.1,39.8L123,40"/>
	<path id="XMLID_7396_" class="st0" d="M123.9,39.1l0.2-0.1"/>
	<path id="XMLID_7395_" class="st0" d="M124.6,38.9h-0.2"/>
	<path id="XMLID_7394_" class="st0" d="M123.7,39.3l-0.4,0.4L123.7,39.3"/>
	<path id="XMLID_7393_" class="st0" d="M123.2,39.7L123.2,39.7"/>
	<path id="XMLID_7392_" class="st0" d="M129.9,39l0.3,0.3"/>
	<path id="XMLID_7391_" class="st0" d="M129.5,38.8l0.2,0.1"/>
	<path id="XMLID_7390_" class="st0" d="M193.1,39l-0.3,0.3"/>
	<path id="XMLID_7389_" class="st0" d="M184.1,41.4l1.5,0.5l1.7,0.3v-0.2"/>
	<path id="XMLID_7388_" class="st0" d="M199.7,39.6l1.7-0.3"/>
	<path id="XMLID_7387_" class="st0" d="M119,42.2l-0.3,0.1"/>
	<path id="XMLID_7386_" class="st0" d="M151.2,41.1l1,0.1"/>
	<path id="XMLID_7385_" class="st0" d="M146.8,42.5l-0.2,0.3l0.1,0.3l-0.1-0.2"/>
	<path id="XMLID_7384_" class="st0" d="M151.7,41.5h0.6"/>
	<path id="XMLID_7383_" class="st0" d="M151.7,41.6h-0.4"/>
	<path id="XMLID_7382_" class="st0" d="M152.3,41.2h0.3"/>
	<path id="XMLID_7381_" class="st0" d="M153.8,41.2l-0.3-0.2l0.8,0.5l-0.8-0.7"/>
	<path id="XMLID_7380_" class="st0" d="M153.8,41.4l-0.5-0.2l1,0.4v-0.1"/>
	<path id="XMLID_7379_" class="st0" d="M152.4,41.4L152.4,41.4h0.6"/>
	<path id="XMLID_7378_" class="st0" d="M154.5,41.6L154.5,41.6"/>
	<path id="XMLID_7377_" class="st0" d="M191,41.8l1.6-0.5"/>
	<path id="XMLID_7376_" class="st0" d="M146.7,43.1L146.7,43.1"/>
	<path id="XMLID_7375_" class="st0" d="M147.7,43.1l0.3-0.1"/>
	<path id="XMLID_7374_" class="st0" d="M178.4,48.2L178.4,48.2V48"/>
	<path id="XMLID_7373_" class="st0" d="M189.8,42.4l-0.3,0.2"/>
	<path id="XMLID_7372_" class="st0" d="M110.5,44.6l0.6-0.1"/>
	<path id="XMLID_7371_" class="st0" d="M157.2,44.2l1.4,1l0,0"/>
	<path id="XMLID_7370_" class="st0" d="M158.6,44.9l0.1,0.2"/>
	<path id="XMLID_7369_" class="st0" d="M158.6,45.1l-0.2-0.3"/>
	<path id="XMLID_7368_" class="st0" d="M158.5,45L158.5,45"/>
	<path id="XMLID_7367_" class="st0" d="M179.3,48.2l0.2-0.1"/>
	<path id="XMLID_7366_" class="st0" d="M96.2,27L96.2,27v-0.2l-0.1-0.2v-0.1L96,26.3v-0.2L95.9,26v-0.2v-0.2v-0.2l-0.1-0.2v-0.1V25
		v-0.2v-0.2v-0.2v-0.2v-0.2V24l0.1-0.2v-0.2v-0.2v-0.2l0.1-0.1V23v-0.2l0.1-0.2v-0.2l0.1-0.2v-0.1l0.1-0.2l0.1-0.2v-0.2"/>
	<path id="XMLID_7365_" class="st0" d="M153.8,39.2L153.8,39.2l0.2,0.2l0.2,0.3l0.2,0.2l0.3,0.3l0.2,0.3l0.2,0.2l0.3,0.3l0.2,0.2
		l0.2,0.3l0.2,0.2l0.2,0.3l0.3,0.2l0.2,0.3l0.2,0.2l0.2,0.2l0.2,0.3l0.1,0.2l0.2,0.2l0.2,0.2l0.1,0.2l0.2,0.2l0.1,0.2l0.2,0.2
		l0.1,0.1l0.1,0.2l0.1,0.1l0.1,0.2l0.1,0.1l0.1,0.1l0.1,0.1v0.1l0.1,0.1"/>
	<path id="XMLID_7364_" class="st0" d="M153.8,39.2L153.8,39.2l0.1,0.2l0.2,0.2l0.2,0.2l0.2,0.2l0.2,0.2l0.2,0.3l0.2,0.2l0.2,0.2
		l0.2,0.2l0.2,0.2l0.1,0.2l0.2,0.2l0.2,0.2l0.2,0.2l0.1,0.2l0.2,0.2l0.2,0.2l0.2,0.2l0.1,0.2l0.2,0.2l0.1,0.2l0.2,0.2l0.1,0.1
		l0.1,0.2l0.2,0.2l0.1,0.1l0.1,0.2l0.1,0.1l0.1,0.2l0.1,0.1l0.1,0.1l0.1,0.1"/>
	<path id="XMLID_7363_" class="st0" d="M159.5,3.7L159.5,3.7L159.5,3.7l0.2-0.2h0.2l0.1-0.1l0.1-0.1l0.1-0.1h0.2l0.1-0.1l0.1-0.1
		l0.2-0.1h0.1l0.1-0.1l0.1-0.1h0.2l0.1-0.1l0.1-0.1h0.1l0.1-0.1l0.2-0.1h0.1l0.1-0.1l0.1-0.1h0.1l0.2-0.1h0.1l0.1-0.1h0.1l0.1-0.1
		h0.1l0.1-0.1h0.1l0.1-0.1"/>
	<path id="XMLID_7362_" class="st0" d="M158.2,4.5L158.2,4.5l0.3-0.2l0.3-0.2L159,4l0.3-0.2l0.3-0.2l0.3-0.1l0.3-0.2l0.3-0.2
		l0.3-0.2l0.3-0.1l0.3-0.2l0.3-0.2l0.3-0.1l0.3-0.2l0.2-0.1l0.3-0.1l0.3-0.2l0.2-0.1l0.3-0.1l0.2-0.1l0.2-0.1l0.3-0.1l0.2-0.1h0.2
		l0.1-0.1h0.2l0.1-0.1h0.2h0.1h0.1h0.1h0.1"/>
	<path id="XMLID_7361_" class="st0" d="M151.3,16L151.3,16v0.2l0.1,0.3v0.2v0.3V17v0.3v0.3v0.2V18l-0.1,0.3v0.3v0.3V19l-0.1,0.3v0.3
		l-0.1,0.3v0.3l-0.1,0.3v0.3l-0.1,0.3v0.3l-0.1,0.3l-0.1,0.3v0.3l-0.1,0.3l-0.1,0.3l-0.1,0.3l-0.1,0.2l-0.1,0.3v0.3l-0.1,0.3
		l-0.1,0.2"/>
	<path id="XMLID_7360_" class="st0" d="M151.3,16L151.3,16v0.3l0.1,0.2v0.3v0.2v0.3v0.3v0.3v0.3v0.3l-0.1,0.3v0.3V19l-0.1,0.3v0.3
		l-0.1,0.3v0.3l-0.1,0.3v0.3L151,21l-0.1,0.3v0.3l-0.1,0.3l-0.1,0.3l-0.1,0.3l-0.1,0.3l-0.1,0.3v0.3l-0.1,0.3l-0.1,0.3l-0.1,0.3
		l-0.1,0.2l-0.2,0.3"/>
	<path id="XMLID_7359_" class="st0" d="M164.9,1.3L164.9,1.3l0.3-0.1h0.2l0.2-0.1h0.2l0.1-0.1h0.2h0.1l0.1-0.1h0.2h0.1l0.2-0.1h0.1
		l0.2-0.1h0.2l0.3-0.1l0,0h0.2h0.2l0.1-0.1h0.2h0.1h0.1l0.1-0.1h0.2h0.1h0.1h0.1l0.2-0.1h0.1h0.2l0.2-0.1l0,0h0.3h0.2h0.2h0.1h0.2
		h0.1h0.1l0.2-0.1h0.1h0.1h0.2h0.1h0.2h0.2h0.3l0,0h0.2h0.2h0.1h0.2h0.1h0.1h0.2h0.1h0.1h0.1h0.1h0.2h0.2h0.1h0.3l0,0h0.2h0.2h0.2
		h0.2l0.1,0.1h0.1h0.2h0.1h0.1h0.2h0.1l0.2,0.1h0.2h0.2h0.2l0,0l0.2,0.1h0.2h0.2h0.1l0.1,0.1h0.1h0.2h0.1l0.1,0.1h0.1h0.1h0.2
		l0.1,0.1h0.2h0.2l0,0l0.3,0.1h0.2l0.1,0.1h0.2l0.1,0.1h0.2h0.1l0.1,0.1h0.1h0.2l0.1,0.1h0.2l0.2,0.1h0.2l0.2,0.1l0,0l0.2,0.1h0.2
		l0.1,0.1h0.1l0.2,0.1h0.1l0.1,0.1h0.1h0.1l0.1,0.1h0.1l0.1,0.1h0.2l0.2,0.1l0.2,0.1l0,0l0.2,0.1l0.2,0.1h0.1l0.2,0.1l0.1,0.1h0.1
		l0.2,0.1h0.1l0.1,0.1h0.1l0.1,0.1l0.2,0.1h0.2l0.1,0.1l0.3,0.1l0,0l0.1,0.1l0.2,0.1l0.1,0.1h0.1l0.1,0.1h0.1l0.1,0.1l0,0l0.1,0.1
		h0.1l0.1,0.1h0.1l0.1,0.1l0.2,0.1l0.1,0.1"/>
	<path id="XMLID_7358_" class="st0" d="M185.1,3.7L185.1,3.7L185.1,3.7L185.1,3.7L185.1,3.7L185.1,3.7L185.1,3.7L185.1,3.7
		L185.1,3.7L185.1,3.7L185.1,3.7L185.1,3.7L185.1,3.7L185.1,3.7l0.2,0.1l0,0l0,0l0,0l0.2,0.2l0.2,0.1l0.2,0.1l0.1,0.1l0.1,0.1
		l0.1,0.1l0.2,0.1h0.1l0.1,0.1l0.1,0.1l0.1,0.1l0.2,0.1l0.1,0.1L187,5l0.2,0.2l0,0l0.1,0.1h0.1l0.1,0.1h0.1l0.1,0.1l0,0h0.1v0.1h0.1
		l0.1,0.1l0,0h0.1l0.1,0.1l0.1,0.1h0.1l0,0l0.2,0.2l0.2,0.1l0.2,0.1h0.1l0.2,0.1l0.1,0.1h0.1l0.1,0.1l0.1,0.1h0.2l0.1,0.1l0.2,0.1
		l0.1,0.1l0.2,0.1l0.2,0.1l0,0l0.3,0.1l0.2,0.1l0.2,0.1l0.1,0.1h0.2l0.1,0.1h0.1l0.2,0.1l0.1,0.1h0.1l0.2,0.1l0.1,0.1h0.2l0.2,0.1
		l0.3,0.1l0,0l0.2,0.1l0.1,0.1h0.2h0.1l0.1,0.1h0.1l0.1,0.1h0.1h0.1l0.1,0.1h0.2l0.1,0.1h0.1l0.2,0.1h0.2l0,0l0.1,0.1h0.2h0.1
		l0.1,0.1h0.1h0.1h0.1h0.1l0.1,0.1l0,0h0.1h0.1l0.2,0.1h0.1h0.2l0,0l0.1,0.1h0.2h0.1l0.1,0.1h0.1h0.1h0.1h0.1l0.1,0.1h0.1h0.1h0.1
		h0.2l0.1,0.1h0.2l0,0l0,0l0,0h0.1l0,0l0,0v0.1l0,0l0,0l0,0l0,0h0.1l0,0l0,0l0,0l0,0"/>
	<path id="XMLID_7357_" class="st0" d="M162.9,1.9L162.9,1.9L162.9,1.9L162.6,2l-0.1,0.1h-0.1h-0.2v0.1h-0.1l-0.1,0.1H162l-0.1,0.1
		h-0.1l-0.1,0.1h-0.2l-0.1,0.1l-0.2,0.1l0,0l-0.2,0.1L161,2.8h-0.1l-0.1,0.1l-0.2,0.1h-0.1L160.5,3h-0.1l-0.1,0.1h-0.1l-0.1,0.1
		L160,3.3l-0.2,0.1l-0.1,0.1l-0.2,0.1l0,0l-0.2,0.1h-0.1l-0.1,0.1l-0.1,0.1h-0.1L159,3.9h-0.1V4h-0.1l-0.1,0.1l-0.1,0.1h-0.1
		l-0.1,0.1l-0.1,0.1l-0.2,0.1l0,0l-0.1,0.1l-0.2,0.1l-0.1,0.1l-0.2,0.1l-0.1,0.1h-0.1l-0.1,0.1V5h-0.1l-0.1,0.1l-0.1,0.1L157,5.3
		l-0.1,0.1l-0.1,0.1l-0.2,0.1l0,0l-0.2,0.2l-0.1,0.1l-0.2,0.1L156.1,6L156,6.1l-0.1,0.1l-0.1,0.1l-0.1,0.1l-0.1,0.1l-0.1,0.1h-0.1
		l-0.1,0.2l-0.1,0.1l-0.2,0.1L155,7l0,0l0,0l-0.1,0.1l0,0l-0.1,0.1l0,0l-0.1,0.1l0,0l0,0l-0.1,0.1l0,0l0,0l-0.1,0.1l0,0l-0.1,0.1
		l-0.1,0.1"/>
	<path id="XMLID_7356_" class="st0" d="M154.4,7.6L154.4,7.6L154.4,7.6L154.4,7.6L154.4,7.6h-0.2l0,0h-0.1v0.1l0,0H154l0,0h-0.1l0,0
		h-0.1l0,0l-0.1,0.1l0,0h-0.1l0,0h-0.1h-0.1l0,0h-0.1l0,0h-0.1l0,0l0,0h-0.1h-0.1l0,0h-0.1H153l0,0h-0.1h-0.1h-0.1h-0.1l0,0h-0.1
		h-0.1l0,0h-0.1l0,0h-0.1h-0.1h-0.1H152h-0.1l0,0l-0.1-0.1l0,0h-0.1l0,0h-0.1l0,0h-0.1l0,0l0,0h-0.1l0,0h-0.1V7.6h-0.1l0,0l0,0
		l-0.3-0.1l-0.3-0.1l-0.2-0.1l-0.2-0.1h-0.2l-0.1-0.1L150,7.1h-0.1L149.8,7h-0.1l-0.2-0.1l-0.2-0.1l-0.2-0.1l-0.3-0.1l-0.3-0.1l0,0
		h-0.2l-0.1-0.1h-0.2l-0.1-0.1H148h-0.2l-0.1-0.1h-0.1h-0.1l-0.1-0.1h-0.1h-0.2l-0.1-0.1H147l-0.2-0.1l0,0h-0.2h-0.1L146.4,6h-0.1
		h-0.1h-0.1H146l-0.1-0.1h-0.1h-0.1h-0.1h-0.1l-0.1-0.1h-0.2h-0.2l0,0H145l-0.1-0.1h-0.2h-0.1h-0.2h-0.1h-0.1h-0.1h-0.1H144h-0.2
		l-0.1-0.1h-0.2h-0.2h-0.2l0,0h-0.2H143h-0.2h-0.1h-0.1h-0.1h-0.1h-0.1h-0.1h-0.1h-0.1H142h-0.1h-0.2h-0.2l0,0h-0.2l-0.2,0.1h-0.1
		H141h-0.1h-0.1h-0.1h-0.1h-0.2l-0.1,0.1h-0.1h-0.1H140h-0.2l-0.2,0.1l0,0h-0.2h-0.1h-0.1L139.1,6h-0.1H139h-0.1v0.1h-0.1h-0.1h-0.1
		h-0.2l-0.1,0.1h-0.1h-0.2l0,0l-0.2,0.1h-0.2l-0.2,0.1h-0.1l-0.1,0.1h-0.1h-0.1l-0.2,0.1H137h-0.1l-0.1,0.1h-0.1l-0.2,0.1h-0.2
		l-0.2,0.1l0,0h-0.1l-0.2,0.1h-0.1l-0.1,0.1h-0.1L135.6,7h-0.1h-0.1v0.1h-0.1h-0.1l-0.1,0.1H135l-0.1,0.1l-0.1,0.1l0,0h-0.2
		l-0.2,0.1l-0.1,0.1l-0.2,0.1h-0.1L134,7.7h-0.1l-0.1,0.1h-0.1l-0.1,0.1L133.6,8h-0.1l-0.2,0.1l-0.1,0.1l-0.2,0.1l0,0l-0.3,0.2
		l-0.3,0.2l-0.2,0.1l-0.2,0.1L132,8.9L131.8,9l-0.1,0.1l-0.2,0.1l-0.1,0.1l-0.2,0.1l-0.2,0.1L131,9.6l-0.2,0.1l-0.2,0.2l-0.3,0.2
		l0,0h-0.1v0.1h-0.1l0,0h-0.1l0,0l0,0l-0.1,0.1l0,0l0,0h-0.1l0,0l0,0l-0.1,0.1l0,0l0,0h-0.1l-0.1,0.1h-0.1h-0.1l0,0h-0.1v0.1h-0.1
		h-0.1l0,0h-0.1v0.1h-0.1H129h-0.1l0,0h-0.1l-0.1,0.1h-0.1h-0.1h-0.1h-0.1l0,0h-0.1l-0.1,0.1l0,0h-0.1H128h-0.1h-0.1l-0.1,0.1l0,0
		h-0.1h-0.1h-0.1h-0.1h-0.1l0,0h-0.1l0,0h-0.1h-0.1l0,0H127h-0.1h-0.1h-0.1l0,0h-0.1h-0.1l-0.1-0.1h-0.1l0,0h-0.1l0,0h-0.1h-0.1l0,0
		H126h-0.1h-0.1v-0.1h-0.2l0,0h-0.1h-0.1v-0.1h-0.1h-0.1l0,0h-0.1h-0.1v-0.1h-0.1H125l0,0h-0.1l-0.1-0.1h-0.1l0,0h-0.1v-0.1h-0.1
		l0,0h-0.1l0,0l-0.1-0.1l0,0l0,0h-0.1l0,0h-0.1v-0.1h-0.1H124l0,0v-0.1h-0.1l0,0l0,0l0,0h-0.1V10l0,0l0,0l0,0h-0.1l0,0V9.9h-0.1l0,0
		l0,0l-0.1-0.1l-0.1-0.1l0,0l-0.1-0.1h-0.1V9.6h-0.1l0,0V9.5h-0.1l-0.1-0.1l0,0L123,9.3l-0.1-0.1l0,0l0,0l-0.1-0.1L122.7,9h-0.1V8.9
		h-0.1V8.9h-0.1l0,0l-0.1-0.1l0,0h-0.1V8.7l-0.1-0.1h-0.1L122,8.5"/>
	<path id="XMLID_7355_" class="st0" d="M80.5,21.6L80.5,21.6L80.5,21.6L80.5,21.6l0.2-0.1v-0.1l0,0h0.1l0,0v-0.1h0.1l0,0l0,0
		l0.1-0.1l0,0H81v-0.1l0,0h0.1l0,0l0,0l0.1-0.1l0,0l0,0l0,0h0.1l0,0l0,0v-0.1h0.1l0,0l0,0h0.1l0,0l0.1-0.1h0.1l0.1-0.1l0,0h0.1
		l0.1-0.1l0,0H82h0.1v-0.1h0.1h0.1l0.1-0.1h0.1l0.1-0.1l0,0h0.1h0.1l0.1-0.1h0.1H83l0.1-0.1h0.1h0.1v-0.1h0.1h0.1h0.1l0.1-0.1h0.2
		l0.1-0.1"/>
	<path id="XMLID_7354_" class="st0" d="M97.9,19L97.9,19l0.1-0.6l0.1-0.5l0.1-0.4l0.1-0.4v-0.4l0.1-0.3V16l0.1-0.3l0.1-0.3v-0.3
		l0.1-0.3l0.1-0.4v-0.5l0.1-0.5l0.1-0.6l0,0l0,0l0.1-0.1l0,0l0,0v-0.1l0,0l0,0l0,0v-0.1l0,0l0,0v-0.1l0,0l0,0v-0.1l0,0H99V12l0,0
		v-0.1h0.1v-0.1l0,0l0,0v-0.1l0,0h0.1v-0.1l0,0v-0.1l0,0l0,0l0.1-0.1l0,0l0.1-0.1l0,0v-0.1h0.1l0,0l0,0v-0.1h0.1l0,0v-0.1h0.1V11
		h0.1l0,0l0,0v-0.1l0,0l0,0h0.1l0,0l0,0v-0.1l0,0h0.1l0,0l0,0l0,0l0.1-0.1l0,0l0,0l0,0h0.1v-0.1l0,0h0.1l0,0l0,0v-0.1h0.1l0,0l0,0
		l0,0l0.1-0.1l0,0h0.1l0,0l1.1-0.5l1-0.5l0.9-0.3l0.9-0.4l0.7-0.3l0.7-0.3l0.6-0.3l0.7-0.3l0.6-0.3l0.7-0.3l0.7-0.3l0.8-0.3l1-0.4
		l1-0.4l1.2-0.5l0,0h0.1l0.1-0.1l0,0h0.1h0.1l0,0h0.1h0.1l0,0h0.1h0.1l0,0h0.1l0.1-0.1h0.1l0,0h0.2h0.1h0.1h0.1h0.1h0.1h0.1h0.1h0.1
		l0,0h0.1h0.1h0.1h0.2h0.1l0,0h0.1h0.1l0.1,0.1l0,0h0.1l0,0h0.1l0,0h0.1l0,0h0.1l0,0h0.1h0.1h0.1l0,0l0,0l0.1,0.1l0,0l0,0l0,0h0.1
		l0,0l0,0l0,0h0.1l0,0l0,0v0.1h0.1l0,0l0,0h0.1l0,0l0,0l0,0l0.1,0.1l0,0l0,0l0,0h0.1l0,0l0,0V5h0.1l0,0l0,0l0,0l0.3,0.2l0.3,0.2
		l0.2,0.1l0.2,0.2l0.2,0.1l0.2,0.1l0.1,0.1l0.2,0.1l0.2,0.1l0.1,0.1l0.2,0.1l0.2,0.2l0.2,0.1l0.3,0.2l0.3,0.2l0,0l0.1,0.1h0.1L120,7
		l0.1,0.1h0.1l0.1,0.1l0,0l0.1,0.1h0.1l0.1,0.1v0.1h0.1l0.1,0.1l0.1,0.1l0.2,0.1l0,0l0.1,0.1h0.1l0.1,0.1l0.1,0.1l0,0l0.1,0.1h0.1
		v0.1h0.1l0.1,0.1l0,0l0.1,0.1l0.1,0.1h0.1l0.1,0.1"/>
	<path id="XMLID_7353_" class="st0" d="M213.5,27.2L213.5,27.2l0.1-0.2v-0.2v-0.1v-0.1v-0.1l0.1-0.1v-0.1v-0.1v-0.1v-0.1v-0.1V26
		v-0.1l0.1-0.2v-0.1l0,0v-0.2v-0.2v-0.1v-0.1V25v-0.1v-0.1v-0.1v-0.1v-0.1v-0.1v-0.1v-0.2v-0.1V24l0,0v-0.2v-0.2l-0.1-0.2v-0.1v-0.1
		v-0.1V23v-0.1v-0.1v-0.1l-0.1-0.1v-0.2v-0.1v-0.2v-0.2l0,0l-0.1-0.2v-0.2v-0.1l-0.1-0.1v-0.2v-0.1v-0.1l-0.1-0.1V21v-0.1v-0.1
		l-0.1-0.1v-0.2v-0.2l-0.1-0.2l0,0v-0.1l-0.1-0.2l-0.1-0.1v-0.2v-0.1l-0.1-0.1v-0.1v-0.1l-0.1-0.1v-0.1l-0.1-0.1V19l-0.1-0.1v-0.2
		l-0.1-0.2l0,0l-0.1-0.1v-0.2l-0.1-0.1v-0.1l-0.1-0.1V18l-0.1-0.1v-0.1l-0.1-0.1v-0.1l-0.1-0.1v-0.1l-0.1-0.1l-0.1-0.1l-0.1-0.2l0,0
		l-0.1-0.2l-0.2-0.3l-0.1-0.1l-0.1-0.2l-0.2-0.2l-0.1-0.1v-0.1l-0.1-0.2l-0.1-0.1l-0.1-0.1l-0.1-0.2l-0.2-0.2l-0.1-0.1l-0.1-0.3
		l-0.2-0.2l0,0l-0.2-0.1l-0.1-0.1l-0.1-0.1v-0.1l-0.1-0.1l-0.1-0.1l-0.1-0.1l0,0l-0.1-0.1l-0.1-0.1l-0.1-0.1l-0.1-0.1l-0.1-0.1
		l-0.1-0.1l-0.1-0.1l0,0l-0.1-0.1l-0.1-0.1h-0.1l-0.1-0.1v-0.1h-0.1h-0.1v-0.1h-0.1v-0.1h-0.1l-0.1-0.1l-0.1-0.1H208l-0.1-0.1l0,0
		l-0.1-0.1l-0.2-0.1l-0.1-0.1l-0.1-0.1l-0.1-0.1h-0.1v-0.1l-0.1-0.1h-0.1l-0.1-0.1l-0.1-0.1h-0.1l-0.1-0.1l-0.2-0.1l-0.1-0.1l0,0
		l-0.2-0.1l-0.1-0.1h-0.1l-0.1-0.1h-0.2v-0.1h-0.1h-0.1l-0.1-0.1h-0.1l-0.1-0.1h-0.1l-0.2-0.1l-0.1-0.1H205l0,0l-0.1-0.1l-0.1-0.1
		h-0.1l-0.1-0.1h-0.1h-0.1l-0.1-0.1h-0.1h-0.1v-0.1h-0.1l-0.1-0.1h-0.1l-0.2-0.1h-0.1l0,0l-0.2-0.1h-0.2l-0.1-0.1h-0.1h-0.1H203
		l-0.1-0.1h-0.1h-0.1h-0.1l-0.1-0.1h-0.1h-0.2h-0.1l-0.2-0.1l0,0h-0.2l-0.2-0.1h-0.1h-0.2h-0.1l-0.1-0.1h-0.1h-0.1H201h-0.1
		l-0.2-0.1h-0.1h-0.1h-0.2l-0.2-0.1l0,0H200h-0.1h-0.1l-0.1-0.1h-0.1h-0.1h-0.1h-0.1h-0.1h-0.1h-0.1h-0.1L199,9.6h-0.1h-0.2"/>
	<path id="XMLID_7351_" class="st0" d="M110.6,44.6L110.6,44.6h-0.2h-0.2h-0.2H110h-0.2h-0.1h-0.1h-0.1h-0.2h-0.1h-0.1h-0.2h-0.2
		h-0.2h-0.2l0,0l0,0h-0.1l0,0l0,0l0,0h-0.1l0,0l0,0l0,0l0,0h-0.1l0,0l0,0h-0.1l0,0l0,0h-0.1v-0.1l0,0H108l0,0l0,0l0,0h-0.1l0,0l0,0
		l0,0h-0.1v-0.1h-0.1l0,0l0,0l0,0h-0.1v-0.1h-0.1l0,0l0,0h-0.1l0,0l0,0v-0.1h-0.1l0,0l0,0h-0.1v-0.1l0,0h-0.1l0,0v-0.1h-0.1l0,0l0,0
		l0,0l-0.1-0.1l0,0l0,0l0,0H107v-0.1l0,0h-0.1l0,0l0,0v-0.1h-0.1l0,0l0,0v-0.1l0,0h-0.1l0,0l0,0v-0.1h-0.1l0,0l0,0v-0.1"/>
	<path id="XMLID_7350_" class="st0" d="M106.6,43.6L106.6,43.6l-1-1l-0.8-1l-0.7-0.9l-0.6-0.8l-0.6-0.7l-0.5-0.6l-0.5-0.6l-0.4-0.5
		l-0.5-0.6l-0.5-0.6l-0.5-0.7l-0.6-0.8L98.5,34l-0.8-1l-0.9-1.1l0,0l0,0l-0.1-0.1l0,0l0,0l0,0v-0.1l0,0h-0.1l0,0l0,0v-0.1l0,0l0,0
		h-0.1v-0.1l0,0v-0.1v-0.1l-0.1-0.1l0,0v-0.1v-0.1h-0.1V31l0,0V31v-0.1h-0.1v-0.1v-0.1l-0.1-0.1"/>
	<path id="XMLID_7349_" class="st0" d="M82.4,29.2L82.4,29.2L82.4,29.2L82.4,29.2l-0.2-0.1V29h-0.1l0,0L82.1,29l0,0H82v-0.1h-0.1
		v-0.1h-0.1l-0.1-0.1l0,0l0,0l-0.1-0.1h-0.1v-0.1l0,0l-0.1-0.1l0,0l0,0h-0.1v-0.1l0,0h-0.1v-0.1h-0.1v-0.1h-0.1l0,0v-0.1H81V28l0,0
		H81v-0.1l0,0l0,0h-0.1v-0.1l0,0l0,0l-0.1-0.1l0,0l-0.1-0.1l0,0l0,0l0,0v-0.1h-0.1l0,0l0,0v-0.1l0,0l0,0h-0.1l0,0v-0.1l0,0l0,0
		l-0.1-0.1"/>
	<path id="XMLID_7348_" class="st0" d="M213.5,27.2L213.5,27.2L213.5,27.2L213.5,27.2L213.5,27.2L213.5,27.2L213.5,27.2v0.2l0,0l0,0
		l0,0l0,0v0.1l0,0l0,0v0.1l0,0l0,0l-0.1,0.2v0.1V28l-0.1,0.1v0.1v0.2v0.1l-0.1,0.1v0.1v0.1l-0.1,0.1v0.1V29l-0.1,0.1v0.2l0,0
		l-0.1,0.2v0.1l-0.1,0.2v0.1l-0.1,0.1V30l-0.1,0.1v0.1v0.1l-0.1,0.1v0.1l-0.1,0.1v0.2l-0.1,0.1V31l0,0l-0.1,0.1l-0.1,0.2l-0.1,0.1
		v0.1l-0.1,0.1v0.1l-0.1,0.1v0.1l-0.1,0.1v0.1l-0.1,0.1v0.1l-0.1,0.1l-0.1,0.1l-0.1,0.2l0,0v0.1l-0.1,0.1l0,0l-0.1,0.1l0,0l-0.1,0.1
		l0,0v0.1h-0.1V33l0,0l-0.1,0.1v0.1h-0.1l-0.1,0.1l0,0l-0.1,0.2l-0.1,0.1l-0.1,0.1v0.1l-0.1,0.1l-0.1,0.1v0.1l-0.1,0.1l-0.1,0.1v0.1
		l-0.1,0.1l-0.1,0.1l-0.1,0.1l-0.1,0.1l-0.1,0.2l0,0l-0.1,0.1l-0.1,0.1l-0.1,0.1l-0.1,0.1l-0.1,0.1h-0.1l-0.1,0.1v0.1l-0.1,0.1h-0.1
		l-0.1,0.1l-0.1,0.1l-0.1,0.1l-0.1,0.1l-0.1,0.1l0,0l-0.1,0.1l-0.1,0.1l-0.1,0.1h-0.1v0.1h-0.1l-0.1,0.1l0,0l-0.1,0.1l0,0l-0.1,0.1
		h-0.1l-0.1,0.1l-0.1,0.1l-0.1,0.1l0,0l-0.1,0.1l-0.2,0.1l-0.1,0.1h-0.1l-0.1,0.1l-0.1,0.1H207v0.1h-0.1l-0.1,0.1h-0.1l-0.1,0.1
		l-0.2,0.1l-0.1,0.1l-0.1,0.1l0,0h-0.2l-0.1,0.1l-0.1,0.1h-0.1h-0.1l-0.1,0.1h-0.1l0,0l-0.1,0.1h-0.1h-0.1l-0.1,0.1h-0.1l-0.1,0.1
		l-0.1,0.1l0,0h-0.2l-0.2,0.1h-0.1l-0.1,0.1h-0.1l-0.1,0.1h-0.1l-0.1,0.1H204l-0.1,0.1h-0.1h-0.1l-0.2,0.1l-0.1,0.1h-0.2l0,0
		l-0.2,0.1H203l-0.1,0.1h-0.2h-0.1h-0.1l-0.1,0.1h-0.2h-0.1h-0.1l-0.1,0.1h-0.2h-0.1l-0.2,0.1h-0.2l0,0h-0.1l-0.1,0.1l0,0h-0.1l0,0
		h-0.1l0,0l0,0l-0.1,0.1l0,0h-0.1l0,0h-0.1l0,0h-0.1l0,0l-0.1,0.1h-0.1h-0.1h-0.1l0,0h-0.1h-0.1l0,0l-0.1,0.1l0,0H200h-0.1h-0.1
		h-0.1l-0.1,0.1l0,0h-0.2h-0.2h-0.2l-0.1,0.1h-0.2h-0.1h-0.1h-0.2h-0.1l-0.1,0.1h-0.2h-0.1h-0.2l-0.2,0.1h-0.2l0,0l-0.3,0.1H197
		l-0.3,0.1l-0.2,0.1h-0.3l-0.2,0.1h-0.2h-0.1l-0.2,0.1h-0.2l-0.3,0.1l-0.2,0.1h-0.3l-0.3,0.1l-0.3,0.1l0,0h-0.1l-0.2,0.1h-0.1
		l-0.2,0.1h-0.1l-0.1,0.1h-0.1h-0.1l-0.1,0.1h-0.1h-0.1l-0.1,0.1h-0.2l-0.1,0.1h-0.2l0,0l-0.3,0.1l-0.2,0.1l-0.3,0.1l-0.2,0.1
		l-0.1,0.1l-0.2,0.1h-0.2l-0.1,0.1L191,42h-0.1l-0.2,0.1l-0.2,0.1l-0.2,0.1l-0.3,0.1l-0.3,0.1l0,0l-0.1,0.1l-0.2,0.1l-0.1,0.1h-0.1
		l-0.1,0.1h-0.1l-0.1,0.1l0,0l-0.1,0.1H189l-0.1,0.1h-0.1l-0.1,0.1l-0.2,0.1l-0.1,0.1l0,0l-0.3,0.1l-0.2,0.2l-0.3,0.2l-0.2,0.1
		l-0.1,0.1l-0.2,0.1l-0.1,0.1l-0.2,0.1l-0.1,0.1l-0.2,0.1l-0.2,0.1l-0.2,0.2l-0.2,0.1l-0.2,0.2l-0.3,0.2l0,0l-0.2,0.1l-0.2,0.1
		l-0.1,0.1l-0.2,0.1l-0.1,0.1h-0.1l-0.1,0.1l-0.1,0.1h-0.1l-0.1,0.1l-0.1,0.1l-0.2,0.1l-0.1,0.1l-0.2,0.1l-0.2,0.1l0,0l-0.3,0.1
		l-0.3,0.2l-0.3,0.1l-0.2,0.1l-0.2,0.1l-0.2,0.1l-0.2,0.1l-0.2,0.1l-0.2,0.1l-0.2,0.1l-0.2,0.1l-0.3,0.1l-0.2,0.1l-0.3,0.1l-0.3,0.2
		l0,0l-0.2,0.1h-0.2l-0.1,0.1h-0.2l-0.1,0.1H180h-0.2l-0.1,0.1h-0.1l-0.1,0.1h-0.1l-0.2,0.1h-0.1l-0.2,0.1h-0.2l0,0h-0.1l0,0l0,0
		l0,0h-0.1v0.1l0,0l0,0l0,0h-0.1l0,0l0,0l0,0h-0.1l0,0"/>
	<path id="XMLID_7347_" class="st0" d="M178.4,48.3L178.4,48.3l-0.2,0.1H178h-0.2l-0.2,0.1h-0.1h-0.2h-0.1l-0.1,0.1h-0.1H177h-0.1
		l-0.2,0.1h-0.2l-0.2,0.1h-0.2l0,0h-0.3l-0.2,0.1h-0.1h-0.2h-0.2l-0.1,0.1h-0.1h-0.1h-0.2h-0.1l-0.2,0.1h-0.1h-0.2h-0.2L174,49l0,0
		h-0.3h-0.1h-0.2h-0.2h-0.1h-0.1h-0.1H173h-0.2h-0.1h-0.1h-0.2h-0.1h-0.2H172l0,0h-0.3h-0.2h-0.2h-0.1h-0.2h-0.1H171h-0.2h-0.1
		l-0.1-0.1h-0.2h-0.1h-0.2H170h-0.3l0,0l-0.3-0.1h-0.3l-0.3-0.1h-0.3l-0.2-0.1H168l-0.2-0.1h-0.3l-0.2-0.1h-0.3l-0.2-0.1h-0.3
		l-0.3-0.1l-0.3-0.1l-0.3-0.1l0,0l-0.3-0.1L165,48l-0.3-0.1l-0.3-0.1l-0.3-0.1l-0.2-0.1l-0.2-0.1l-0.2-0.1l-0.3-0.1l-0.2-0.1
		l-0.3-0.1l-0.3-0.1l-0.3-0.1l-0.3-0.1l-0.4-0.2l0,0l-0.3-0.2l-0.3-0.1l-0.3-0.2l-0.2-0.1l-0.2-0.1l-0.2-0.1l-0.2-0.1l-0.1-0.1
		l-0.2-0.1l-0.2-0.1l-0.2-0.1l-0.2-0.2l-0.3-0.1l-0.3-0.2l-0.3-0.2"/>
	<path id="XMLID_7346_" class="st0" d="M158.5,45.1L158.5,45.1L158.5,45.1l-0.2-0.2h-0.1l-0.1-0.1l-0.1-0.1H158l-0.1-0.1h-0.1v-0.1
		l-0.1-0.1h-0.1l-0.1-0.1l-0.1-0.1l-0.1-0.1l-0.2-0.1l0,0l-0.2-0.1L157,44l-0.1-0.1l-0.1-0.1l-0.1-0.1l-0.1-0.1l-0.1-0.1l-0.1-0.1
		h-0.1l-0.1-0.1l-0.1-0.1l-0.1-0.1l-0.1-0.1l-0.2-0.1l-0.1-0.2l0,0l-0.2-0.1l-0.1-0.1l-0.1-0.1l-0.1-0.1l-0.1-0.1l-0.1-0.1h-0.1
		v-0.1l-0.1-0.1l-0.1-0.1l-0.1-0.1h-0.1l-0.1-0.2l-0.1-0.1l-0.1-0.1"/>
	<path id="XMLID_7345_" class="st0" d="M154.5,41.6L154.5,41.6L154.5,41.6h-0.2v-0.1h-0.1l0,0h-0.1l0,0l0,0H154l0,0h-0.1l0,0
		l-0.1-0.1l0,0h-0.1l0,0h-0.1l0,0h-0.1h-0.1l0,0h-0.1l0,0l0,0h-0.1l0,0h-0.1v-0.1h-0.1h-0.1H153l0,0l0,0h-0.1h-0.1l0,0h-0.1l0,0
		l-0.1,0.1l0,0h-0.1l0,0h-0.1l0,0h-0.1l0,0h-0.1l0,0h-0.1h-0.1l0,0l0,0H152v0.1h-0.1l0,0l0,0h-0.1l0,0h-0.1l0,0h-0.1v0.1l0,0
		l-0.3,0.1l-0.2,0.1l-0.3,0.1h-0.1l-0.2,0.1l-0.2,0.1h-0.1l-0.2,0.1l-0.1,0.1H150l-0.1,0.1l-0.2,0.1l-0.3,0.1l-0.2,0.1l-0.3,0.1l0,0
		H149l-0.2,0.1h-0.1h-0.1l-0.1,0.1h-0.1h-0.1l0,0l-0.1,0.1h-0.1h-0.1L148,43h-0.1h-0.2l-0.1,0.1l0,0h-0.1l0,0l0,0h-0.1l0,0l0,0h-0.1
		v0.1l0,0h-0.1l0,0l0,0h-0.1l0,0h-0.1l0,0l0,0l0,0l0,0h-0.1l0,0l0,0l0,0l0,0H147l0,0l0,0l0,0l0,0h-0.1l0,0"/>
	<path id="XMLID_7344_" class="st0" d="M146.7,43.1L146.7,43.1l-0.2,0.1h-0.2l-0.2,0.1H146h-0.1l-0.2,0.1h-0.1h-0.1h-0.1l-0.2,0.1
		h-0.1h-0.2h-0.2l-0.2,0.1h-0.2l0,0h-0.3h-0.3h-0.3h-0.3h-0.2H143h-0.2h-0.2h-0.2h-0.2H142h-0.2h-0.3h-0.3H141l0,0h-0.3h-0.1
		l-0.2-0.1h-0.1h-0.2h-0.1l-0.1-0.1h-0.1h-0.1h-0.1l-0.2-0.1h-0.1h-0.2h-0.2l-0.2-0.1l0,0h-0.1h-0.2l-0.1-0.1h-0.1h-0.1h-0.1h-0.1
		l-0.1-0.1h-0.1H138h-0.1h-0.1l-0.2-0.1h-0.1h-0.2l0,0l-0.2-0.1l-0.2-0.1H137l-0.2-0.1h-0.1l-0.1-0.1h-0.1h-0.1l-0.1-0.1h-0.1
		l-0.1-0.1H136l-0.1-0.1l-0.2-0.1h-0.2l0,0l-0.2-0.1l-0.1-0.1h-0.1h-0.1l-0.1-0.1H135h-0.1l-0.1-0.1h-0.1l0,0l-0.1-0.1h-0.1
		l-0.2-0.1h-0.1l-0.2-0.1l0,0l-0.1-0.1l-0.2-0.1l-0.1-0.1l-0.2-0.1h-0.1l-0.1-0.1h-0.1l-0.1-0.1l-0.1-0.1h-0.1L133,41l-0.1-0.1h-0.2
		l-0.1-0.1l-0.2-0.1l0,0l-0.2-0.2l-0.2-0.1l-0.2-0.2l-0.2-0.1l-0.1-0.1l-0.1-0.1l-0.2-0.1h-0.1l-0.1-0.1l-0.2-0.1l-0.1-0.1l-0.2-0.1
		l-0.1-0.2l-0.2-0.1l-0.3-0.1l0,0v-0.1h-0.1l0,0l-0.1-0.1l0,0H130l0,0l0,0h-0.1V39l0,0h-0.1l0,0l-0.1-0.1h-0.1l0,0l0,0h-0.1
		l-0.1-0.1h-0.1l0,0h-0.1l0,0h-0.1v-0.1l0,0h-0.1h-0.1l0,0l-0.1-0.1h-0.1l0,0h-0.1h-0.1h-0.1l0,0l-0.1-0.1l0,0h-0.1l0,0h-0.1h-0.1
		l0,0h-0.1h-0.1H128l-0.1-0.1l0,0h-0.1h-0.1h-0.1h-0.1h-0.1h-0.1l0,0h-0.1h-0.1h-0.1l0,0h-0.1H127h-0.1h-0.2l0,0h-0.1h-0.1h-0.1
		l-0.1,0.1h-0.1l0,0h-0.1h-0.1H126l0,0h-0.1h-0.1h-0.1l-0.1,0.1h-0.1l0,0h-0.1h-0.1l-0.1,0.1h-0.1l0,0h-0.1h-0.1l0,0l-0.1,0.1l0,0
		h-0.1h-0.1l0,0l-0.1,0.1h-0.1l0,0h-0.1l-0.1,0.1l0,0h-0.1l0,0h-0.1V39h-0.1l0,0l0,0h-0.1v0.1H124h-0.1v0.1"/>
	<path id="XMLID_7343_" class="st0" d="M123.9,39.2L123.9,39.2L123.9,39.2L123.9,39.2L123.9,39.2l-0.2,0.1l0,0v0.1h-0.1l0,0l0,0v0.1
		h-0.1l0,0l0,0l-0.1,0.1l0,0l0,0l-0.1,0.1h-0.1v0.1h-0.1l0,0v0.1h-0.1l0,0v0.1h-0.1l0,0L123,40l0,0h-0.1v0.1l0,0l-0.1,0.1h-0.1
		l-0.1,0.1h-0.1v0.1h-0.1l-0.1,0.1l0,0l-0.1,0.1l0,0h-0.1l-0.1,0.1v0.1H122l-0.1,0.1l0,0h-0.1l-0.1,0.1h-0.1V41h-0.1h-0.1l0,0
		l-0.1,0.1l0,0h-0.1v0.1h-0.1l0,0l-0.1,0.1h-0.1l0,0l-0.2,0.1l-0.1,0.1h-0.1l-0.1,0.1h-0.1l-0.1,0.1h-0.1h-0.1l-0.1,0.1h-0.1
		l-0.1,0.1h-0.1l-0.1,0.1h-0.2l-0.1,0.1l0,0l-0.3,0.1l-0.2,0.1l-0.2,0.1h-0.1l-0.2,0.1h-0.1l-0.1,0.1h-0.2l-0.1,0.1h-0.1l-0.2,0.1
		h-0.2l-0.1,0.1l-0.3,0.1l-0.2,0.1l0,0h-0.3l-0.2,0.1l-0.2,0.1h-0.1l-0.2,0.1h-0.2l-0.1,0.1h-0.1l-0.2,0.1h-0.1h-0.2l-0.1,0.1
		l-0.2,0.1h-0.3l-0.2,0.1l0,0l-0.3,0.1l-0.3,0.1l-0.3,0.1l-0.3,0.1l-0.2,0.1h-0.3l-0.2,0.1l-0.2,0.1h-0.2l-0.3,0.1l-0.2,0.1h-0.3
		l-0.3,0.1l-0.3,0.1l-0.3,0.1l0,0h-0.1v0.1H111l0,0l0,0h-0.1l0,0l0,0h-0.1l0,0h-0.1l0,0l0,0h-0.1h-0.1"/>
	<path id="XMLID_7342_" class="st0" d="M184.9,3.8l0.2-0.1"/>
	<path id="XMLID_7341_" class="st0" d="M197.4,9.3L197.4,9.3l0.4,0.2h-0.2"/>
	<path id="XMLID_7340_" class="st0" d="M75.8,21.9h4.5l0.2-0.3"/>
	<path id="XMLID_7339_" class="st0" d="M83.8,20h13.4l0.3-0.5l0.4-0.4"/>
	<path id="XMLID_7338_" class="st0" d="M113.7,4.7h0.2"/>
	<path id="XMLID_7337_" class="st0" d="M197.7,9.5h0.3"/>
	<path id="XMLID_7336_" class="st0" d="M198.7,9.6l-0.9-0.1l1.5,0.2"/>
	<path id="XMLID_7335_" class="st0" d="M213.6,27.1L213.6,27.1"/>
	<path id="XMLID_7333_" class="st0" d="M65.1,21.9H37H9.6H7.8l0,0l0,0H7.7l0,0V22l0,0l0,0H7.6l0,0l0,0l0,0l0,0l0,0H7.6l0,0l0,0l0,0
		H7.5v0.1l0,0l0,0H7.4l0,0l0,0l0,0l0,0H7.3v0.1l0,0l0,0H7.2l0,0l0,0l-0.1,0.1H7v0.1H6.9l0,0l-0.1,0.1l0,0H6.8v0.1H6.7l0,0l-0.1,0.1
		H6.5v0.1H6.4"/>
	<path id="XMLID_7332_" class="st0" d="M65.2,27.4h-28H7.8l-0.4-0.1L7.1,27l-0.5-0.3l-0.7-0.2H1.3l-1-1.2l0.3-2l1.4-0.6h4.5"/>
	<path id="XMLID_7331_" class="st0" d="M96.3,30.6l0.1-0.8l0.1-0.6h-14"/>
	<path id="XMLID_7330_" class="st0" d="M80.4,27.3h-4.6"/>
	<path id="XMLID_7329_" class="st0" d="M178.5,48.3l-0.2-0.1"/>
	<path id="XMLID_7328_" class="st0" d="M158.7,45L158.7,45l-0.2,0.1"/>
	<path id="XMLID_7327_" class="st0" d="M146.9,43.2l-0.2-0.1"/>
	<path id="XMLID_7318_" class="st0" d="M122.7,40.2l-0.2,0.2L122.7,40.2"/>
	<path id="XMLID_7317_" class="st0" d="M123,40l0.3-0.3"/>
	<path id="XMLID_7316_" class="st0" d="M123.3,39.7l-0.2,0.1"/>
	<path id="XMLID_7311_" class="st0" d="M162.8,1.9L162.8,1.9L162.8,1.9l0.3-0.1h0.1l0.1-0.1h0.1l0.1-0.1h0.1h0.1V1.6h0.1l0.1-0.1
		h0.1h0.1h0.1l0.1-0.1l0,0h0.1h0.1V1.3h0.1h0.1l0,0h0.1l0,0h0.1l0,0h0.1l0,0h0.1l0,0h0.1l0,0"/>
</g>
</svg>
