<?xml version="1.0" encoding="utf-8"?>
<!-- Generator: Adobe Illustrator 19.0.0, SVG Export Plug-In . SVG Version: 6.00 Build 0)  -->
<svg version="1.0" id="Layer_1" xmlns="http://www.w3.org/2000/svg" xmlns:xlink="http://www.w3.org/1999/xlink" x="0px" y="0px"
	 width="38.27px" height="126.757px" viewBox="19.813 418.489 38.27 126.757" enable-background="new 19.813 418.489 38.27 126.757"
	 xml:space="preserve">
<g>
	<g id="Actor_.0">
		<g>
			<path fill="none" stroke="#000000" stroke-width="0.5" stroke-linecap="round" stroke-linejoin="round" d="M57.245,516.216
				c0.291,5.903,0.291,5.903,0.574,11.807c-0.007,0.297-0.014,0.297-0.029,0.596c-0.057,0.404-0.057,0.404-0.12,0.815
				c-0.107,0.489-0.107,0.489-0.22,0.978c-0.163,0.468-0.163,0.468-0.347,0.936c-0.227,0.453-0.227,0.461-0.461,0.907
				c-0.475,0.751-0.475,0.751-0.964,1.503c-0.312,0.411-0.312,0.411-0.624,0.815c-0.347,0.397-0.347,0.397-0.695,0.786
				c-0.369,0.383-0.369,0.383-0.751,0.759c-0.404,0.368-0.404,0.368-0.808,0.73c-0.432,0.354-0.432,0.354-0.865,0.708
				c-0.461,0.348-0.461,0.348-0.922,0.688c-0.482,0.333-0.482,0.333-0.971,0.659c-0.681,0.425-0.688,0.425-1.368,0.844
				c-0.248,0.149-0.248,0.149-0.496,0.29c-0.702,0.383-0.702,0.39-1.403,0.773c-0.489,0.248-0.489,0.248-0.978,0.489
				c-0.673,0.312-0.673,0.312-1.354,0.624c-0.943,0.383-0.95,0.383-1.892,0.766c-0.567,0.206-0.567,0.206-1.141,0.404
				c-0.666,0.213-0.666,0.213-1.34,0.425c-0.794,0.22-0.794,0.227-1.588,0.44c-0.936,0.213-0.936,0.213-1.871,0.425
				c-0.518,0.092-0.518,0.092-1.035,0.191c-0.567,0.085-0.574,0.085-1.141,0.17c-0.624,0.071-0.624,0.071-1.247,0.142
				c-0.673,0.042-0.673,0.049-1.354,0.092c-0.744,0.014-0.744,0.014-1.488,0.021c-0.39-0.014-0.39-0.014-0.78-0.029
				c-0.411-0.029-0.411-0.021-0.822-0.057c-0.425-0.042-0.425-0.042-0.851-0.092c-0.44-0.071-0.44-0.071-0.879-0.149
				c-0.454-0.099-0.454-0.099-0.9-0.206c-0.454-0.135-0.454-0.135-0.907-0.276c-0.433-0.177-0.433-0.177-0.858-0.362
				c-0.277-0.135-0.277-0.135-0.553-0.284c-0.425-0.27-0.418-0.27-0.844-0.539c-0.22-0.156-0.22-0.156-0.44-0.312
				c-0.192-0.163-0.192-0.163-0.383-0.326c-0.17-0.163-0.17-0.163-0.34-0.34c-0.149-0.17-0.149-0.17-0.291-0.347
				c-0.156-0.227-0.156-0.227-0.312-0.461c-0.206-0.34-0.206-0.34-0.404-0.68c-0.177-0.362-0.177-0.362-0.34-0.723
				c-0.107-0.354-0.107-0.354-0.199-0.716c-0.099-0.659-0.099-0.659-0.184-1.325c-0.007-0.375-0.007-0.375,0-0.744"/>
			<path fill="none" stroke="#000000" stroke-width="0.5" stroke-linecap="round" stroke-linejoin="round" d="M21.471,507.011
				c0.51-12.331,0.51-12.331,1.035-24.669c0.036-0.29,0.042-0.29,0.092-0.588c0.085-0.383,0.085-0.383,0.17-0.766
				c0.121-0.432,0.121-0.432,0.248-0.858c0.177-0.418,0.184-0.418,0.369-0.829c0.149-0.277,0.149-0.277,0.305-0.546
				c0.447-0.652,0.44-0.652,0.893-1.304c0.248-0.305,0.248-0.312,0.503-0.61"/>
			<path fill="none" stroke="#000000" stroke-width="0.5" stroke-linecap="round" stroke-linejoin="round" d="M39.727,516.202
				c-0.021-0.319-0.021-0.319-0.042-0.638c0-0.17,0-0.17,0.014-0.34c0.057-0.369,0.057-0.375,0.128-0.744
				c0.107-0.29,0.107-0.29,0.227-0.581c0.141-0.234,0.141-0.234,0.291-0.468c0.199-0.227,0.199-0.227,0.404-0.446
				c0.241-0.177,0.248-0.177,0.489-0.355c0.12-0.064,0.128-0.064,0.248-0.12c0.184-0.042,0.184-0.042,0.361-0.085"/>
			<path fill="none" stroke="#000000" stroke-width="0.5" stroke-linecap="round" stroke-linejoin="round" d="M42.42,511.178
				c-0.283,0.064-0.283,0.064-0.56,0.134c-0.305,0.149-0.312,0.149-0.61,0.305c-0.319,0.206-0.326,0.206-0.638,0.425
				c-0.305,0.29-0.305,0.297-0.603,0.588c-0.085,0.099-0.085,0.099-0.17,0.206c-0.255,0.383-0.255,0.383-0.503,0.772
				c-0.177,0.383-0.177,0.383-0.347,0.78c-0.128,0.475-0.135,0.482-0.248,0.964c-0.042,0.418-0.042,0.425-0.071,0.851
				c0.007,0.219,0.007,0.219,0.021,0.447c0.071,0.347,0.071,0.347,0.156,0.688c0.128,0.255,0.128,0.262,0.27,0.51"/>
			<path fill="none" stroke="#000000" stroke-width="0.5" stroke-linecap="round" stroke-linejoin="round" d="M40.039,518.243
				c0.319-0.057,0.319-0.057,0.631-0.128c0.319-0.141,0.319-0.149,0.638-0.297c0.099-0.057,0.099-0.057,0.192-0.121
				c0.404-0.312,0.411-0.305,0.808-0.623c0.347-0.355,0.347-0.355,0.695-0.723c0.27-0.362,0.27-0.362,0.532-0.73"/>
			<path fill="none" stroke="#000000" stroke-width="0.5" stroke-linecap="round" stroke-linejoin="round" d="M42.519,515.571
				c-0.085,0.128-0.085,0.128-0.177,0.248c-0.27,0.297-0.262,0.297-0.539,0.588c-0.212,0.17-0.212,0.17-0.433,0.333"/>
			<path fill="none" stroke="#000000" stroke-width="0.5" stroke-linecap="round" stroke-linejoin="round" d="M43.313,515.494
				c-0.262,0.368-0.262,0.368-0.539,0.73c-0.34,0.362-0.34,0.369-0.695,0.723c-0.397,0.319-0.397,0.312-0.801,0.624
				c-0.092,0.056-0.092,0.056-0.192,0.12c-0.319,0.149-0.319,0.156-0.645,0.297c-0.312,0.071-0.312,0.071-0.624,0.128"/>
			<path fill="none" stroke="#000000" stroke-width="0.5" stroke-linecap="round" stroke-linejoin="round" d="M39.507,516.075
				c-0.029-0.319-0.029-0.319-0.042-0.638c0-0.17,0-0.17,0.007-0.34c0.064-0.375,0.057-0.375,0.135-0.744
				c0.107-0.29,0.107-0.29,0.22-0.581c0.141-0.234,0.141-0.234,0.291-0.468c0.199-0.227,0.199-0.227,0.411-0.446
				c0.241-0.177,0.241-0.177,0.489-0.355c0.113-0.056,0.113-0.064,0.234-0.113c0.184-0.049,0.191-0.049,0.376-0.092"/>
			<path fill="none" stroke="#000000" stroke-width="0.5" stroke-linecap="round" stroke-linejoin="round" d="M42.455,537.058
				c0.298-0.049,0.298-0.049,0.596-0.092c0.277-0.049,0.277-0.049,0.553-0.107c0.298-0.064,0.298-0.064,0.596-0.128
				c0.262-0.064,0.262-0.064,0.525-0.135c0.305-0.085,0.305-0.085,0.603-0.17c0.248-0.085,0.248-0.078,0.503-0.163
				c0.298-0.107,0.298-0.107,0.596-0.212c0.241-0.099,0.241-0.099,0.475-0.192c0.298-0.128,0.298-0.128,0.596-0.262
				c0.361-0.177,0.361-0.17,0.723-0.355c0.39-0.212,0.39-0.212,0.78-0.432c0.212-0.12,0.212-0.12,0.418-0.255
				c0.468-0.312,0.468-0.305,0.936-0.623c0.44-0.34,0.44-0.34,0.879-0.688c0.227-0.191,0.227-0.198,0.454-0.39
				c0.192-0.177,0.192-0.17,0.376-0.347c0.39-0.39,0.39-0.39,0.78-0.786c0.369-0.418,0.369-0.418,0.73-0.844
				c0.17-0.219,0.17-0.219,0.34-0.44"/>
			<path fill="none" stroke="#000000" stroke-width="0.5" stroke-linecap="round" stroke-linejoin="round" d="M48.933,508.889
				c0.007,0.943,0.007,0.943,0,1.885c-0.014,0.51-0.014,0.51-0.036,1.021c-0.007,0.092-0.007,0.092-0.021,0.184
				c-0.042,0.135-0.042,0.135-0.092,0.269c-0.078,0.156-0.078,0.156-0.156,0.305c-0.099,0.128-0.099,0.128-0.206,0.248
				c-0.128,0.099-0.128,0.099-0.255,0.198c-0.064,0.036-0.064,0.036-0.128,0.064c-0.078,0.014-0.078,0.014-0.163,0.021"/>
			<path fill="none" stroke="#000000" stroke-width="0.5" stroke-linecap="round" stroke-linejoin="round" d="M47.657,512.914
				c-0.021-0.107-0.021-0.107-0.042-0.212c-0.022-0.489-0.014-0.489-0.029-0.978c-0.007-1.027-0.007-1.027,0-2.055"/>
			<path fill="none" stroke="#000000" stroke-width="0.5" stroke-linecap="round" stroke-linejoin="round" d="M47.345,514.26
				c0.206-0.078,0.206-0.078,0.411-0.163c0.22-0.156,0.22-0.163,0.433-0.326c0.219-0.255,0.219-0.255,0.432-0.51
				c0.163-0.284,0.163-0.291,0.312-0.574"/>
			<path fill="none" stroke="#000000" stroke-width="0.5" stroke-linecap="round" stroke-linejoin="round" d="M48.713,512.553
				c-0.149,0.29-0.156,0.29-0.319,0.574c-0.206,0.262-0.212,0.262-0.432,0.518c-0.212,0.163-0.212,0.163-0.433,0.319
				c-0.199,0.092-0.206,0.092-0.411,0.17"/>
			<path fill="none" stroke="#000000" stroke-width="0.5" stroke-linecap="round" stroke-linejoin="round" d="M47.359,509.803
				c0,0.893,0,0.893,0,1.793c0.014,0.489,0.014,0.489,0.029,0.978c0.021,0.107,0.021,0.107,0.049,0.206"/>
			<path fill="none" stroke="#000000" stroke-width="0.5" stroke-linecap="round" stroke-linejoin="round" d="M52.979,506.55
				c-0.27,0.113-0.27,0.113-0.532,0.234c-0.107,0.064-0.107,0.064-0.206,0.128c-0.262,0.234-0.27,0.234-0.532,0.475
				c-0.234,0.312-0.234,0.312-0.46,0.638c-0.17,0.347-0.17,0.347-0.326,0.702c-0.099,0.355-0.099,0.355-0.184,0.716
				c-0.029,0.348-0.029,0.348-0.049,0.695c0,0.113,0,0.113,0.007,0.234c0.049,0.305,0.049,0.305,0.107,0.61"/>
			<path fill="none" stroke="#000000" stroke-width="0.5" stroke-linecap="round" stroke-linejoin="round" d="M51.966,511.589
				c0.291-0.128,0.291-0.128,0.574-0.255c0.121-0.071,0.121-0.071,0.234-0.149c0.277-0.234,0.283-0.234,0.553-0.482
				c0.17-0.199,0.17-0.199,0.326-0.404c0.163-0.29,0.163-0.29,0.319-0.581c0.121-0.333,0.121-0.333,0.227-0.673"/>
			<path fill="none" stroke="#000000" stroke-width="0.5" stroke-linecap="round" stroke-linejoin="round" d="M53.192,509.477
				c-0.071,0.212-0.071,0.212-0.142,0.425c-0.064,0.113-0.064,0.113-0.128,0.22c-0.078,0.092-0.078,0.099-0.163,0.184
				c-0.107,0.085-0.107,0.092-0.22,0.17c-0.141,0.057-0.141,0.057-0.283,0.107"/>
			<path fill="none" stroke="#000000" stroke-width="0.5" stroke-linecap="round" stroke-linejoin="round" d="M51.746,511.461
				c0.283-0.128,0.283-0.128,0.574-0.255c0.113-0.071,0.113-0.071,0.227-0.149c0.283-0.241,0.283-0.234,0.56-0.482
				c0.163-0.199,0.163-0.199,0.319-0.404c0.163-0.29,0.17-0.29,0.326-0.581c0.071-0.206,0.071-0.206,0.135-0.411"/>
			<path fill="none" stroke="#000000" stroke-width="0.5" stroke-linecap="round" stroke-linejoin="round" d="M52.596,507.386
				c-0.099,0.022-0.099,0.022-0.199,0.043c-0.064,0.029-0.064,0.029-0.128,0.056c-0.128,0.099-0.128,0.092-0.248,0.191
				c-0.099,0.113-0.099,0.113-0.191,0.227c-0.064,0.099-0.064,0.099-0.121,0.198c-0.071,0.191-0.078,0.191-0.149,0.39
				c-0.036,0.227-0.029,0.227-0.064,0.454c0,0.042,0,0.042,0,0.078"/>
			<path fill="none" stroke="#000000" stroke-width="0.5" stroke-linecap="round" stroke-linejoin="round" d="M52.816,507.521
				c-0.099,0.014-0.099,0.014-0.191,0.035c-0.071,0.029-0.071,0.029-0.135,0.064c-0.12,0.092-0.128,0.092-0.248,0.184
				c-0.092,0.113-0.092,0.113-0.191,0.234c-0.057,0.092-0.057,0.092-0.113,0.191c-0.078,0.192-0.078,0.192-0.149,0.39
				c-0.036,0.227-0.036,0.227-0.064,0.454c0,0.042,0,0.042,0,0.078"/>
			<path fill="none" stroke="#000000" stroke-width="0.5" stroke-linecap="round" stroke-linejoin="round" d="M52.653,472.399
				c0.099,0.078,0.099,0.078,0.191,0.156c0.184,0.17,0.192,0.17,0.376,0.347c0.163,0.184,0.17,0.177,0.333,0.361
				c0.404,0.539,0.411,0.539,0.808,1.084c0.227,0.397,0.227,0.397,0.44,0.801c0.149,0.397,0.149,0.397,0.283,0.808
				c0.099,0.376,0.099,0.376,0.184,0.751c0.078,0.447,0.078,0.447,0.141,0.9"/>
			<path fill="none" stroke="#000000" stroke-width="0.5" stroke-linecap="round" stroke-linejoin="round" d="M20.068,537.03
				l0.631-13.139l-0.007,0.213"/>
			<path fill="none" stroke="#000000" stroke-width="0.5" stroke-linecap="round" stroke-linejoin="round" d="M20.699,523.891
				l0.588-12.274l-0.036,0.766"/>
			<path fill="none" stroke="#000000" stroke-width="0.5" stroke-linecap="round" stroke-linejoin="round" d="M20.812,521.588
				l0.652-14.577l-0.029,0.638"/>
			<path fill="none" stroke="#000000" stroke-width="0.5" stroke-linecap="round" stroke-linejoin="round" d="M21.287,511.617
				l0.049-1.013"/>
			<path fill="none" stroke="#000000" stroke-width="0.5" stroke-linecap="round" stroke-linejoin="round" d="M21.464,507.011
				l1.134-24.662"/>
			<path fill="none" stroke="#000000" stroke-width="0.5" stroke-linecap="round" stroke-linejoin="round" d="M36.063,534.386
				l1.361-36.532"/>
			<path fill="none" stroke="#000000" stroke-width="0.5" stroke-linecap="round" stroke-linejoin="round" d="M35.964,537.073
				l21.685-12.515"/>
			<path fill="none" stroke="#000000" stroke-width="0.5" stroke-linecap="round" stroke-linejoin="round" d="M41.846,512.425
				l0.206,0.036l0.234,0.156l0.17,0.333l1.014-0.822L43.242,512l-0.22-0.56l-0.227-0.199l-0.376-0.064"/>
			<path fill="none" stroke="#000000" stroke-width="0.5" stroke-linecap="round" stroke-linejoin="round" d="M39.118,517.846
				l0.411,0.312l0.51,0.085"/>
			<path fill="none" stroke="#000000" stroke-width="0.5" stroke-linecap="round" stroke-linejoin="round" d="M43.533,515.621
				v-2.445l-2.296,1.333v1.014l1.283-0.744v0.794"/>
			<path fill="none" stroke="#000000" stroke-width="0.5" stroke-linecap="round" stroke-linejoin="round" d="M37.424,497.854
				l9.022-5.173l9.397-5.457"/>
			<path fill="none" stroke="#000000" stroke-width="0.5" stroke-linecap="round" stroke-linejoin="round" d="M43.313,513.311v2.182
				"/>
			<path fill="none" stroke="#000000" stroke-width="0.5" stroke-linecap="round" stroke-linejoin="round" d="M39.819,518.116
				l-0.447-0.078"/>
			<path fill="none" stroke="#000000" stroke-width="0.5" stroke-linecap="round" stroke-linejoin="round" d="M41.626,512.297
				l0.206,0.036l0.22,0.128"/>
			<path fill="none" stroke="#000000" stroke-width="0.5" stroke-linecap="round" stroke-linejoin="round" d="M40.166,516.982
				l-0.227-0.128"/>
			<path fill="none" stroke="#000000" stroke-width="0.5" stroke-linecap="round" stroke-linejoin="round" d="M41.237,515.26
				l1.063-0.609l0.22,0.128"/>
			<path fill="none" stroke="#000000" stroke-width="0.5" stroke-linecap="round" stroke-linejoin="round" d="M42.342,512.73
				l0.9-0.73"/>
			<path fill="none" stroke="#000000" stroke-width="0.5" stroke-linecap="round" stroke-linejoin="round" d="M43.533,515.621
				l-0.22-0.128"/>
			<path fill="none" stroke="#000000" stroke-width="0.5" stroke-linecap="round" stroke-linejoin="round" d="M43.469,512.127
				l-0.227-0.56l-0.361-0.312l-0.085-0.014"/>
			<path fill="none" stroke="#000000" stroke-width="0.5" stroke-linecap="round" stroke-linejoin="round" d="M45.092,515.557
				l-0.546,0.312v-6.081l1.014-0.588v6.088L45.092,515.557"/>
			<path fill="none" stroke="#000000" stroke-width="0.5" stroke-linecap="round" stroke-linejoin="round" d="M44.546,515.614
				l0.787-0.461l0.227,0.135"/>
			<path fill="none" stroke="#000000" stroke-width="0.5" stroke-linecap="round" stroke-linejoin="round" d="M45.333,509.335v5.818
				"/>
			<path fill="none" stroke="#000000" stroke-width="0.5" stroke-linecap="round" stroke-linejoin="round" d="M48.933,512.687v0.652
				l1.014-0.588v-4.444l-1.014,0.581"/>
			<path fill="none" stroke="#000000" stroke-width="0.5" stroke-linecap="round" stroke-linejoin="round" d="M47.877,513.084
				l-0.128-0.049l-0.092-0.12"/>
			<path fill="none" stroke="#000000" stroke-width="0.5" stroke-linecap="round" stroke-linejoin="round" d="M47.586,509.668
				l-1.014,0.588l0.007,3.026l0.085,0.596l0.149,0.248l0.212,0.128l0.319,0.007"/>
			<path fill="none" stroke="#000000" stroke-width="0.5" stroke-linecap="round" stroke-linejoin="round" d="M48.933,512.687
				l-0.219-0.135"/>
			<path fill="none" stroke="#000000" stroke-width="0.5" stroke-linecap="round" stroke-linejoin="round" d="M47.118,514.133
				l-0.305-0.007"/>
			<path fill="none" stroke="#000000" stroke-width="0.5" stroke-linecap="round" stroke-linejoin="round" d="M47.437,512.779
				l0.092,0.128l0.22,0.128"/>
			<path fill="none" stroke="#000000" stroke-width="0.5" stroke-linecap="round" stroke-linejoin="round" d="M48.933,513.077
				l0.794-0.453l0.22,0.128"/>
			<path fill="none" stroke="#000000" stroke-width="0.5" stroke-linecap="round" stroke-linejoin="round" d="M49.726,512.623
				v-4.188"/>
			<path fill="none" stroke="#000000" stroke-width="0.5" stroke-linecap="round" stroke-linejoin="round" d="M54.269,508.386
				l-0.057-0.886l-0.191-0.574l-0.177-0.227l-0.397-0.184l-0.468,0.035"/>
			<path fill="none" stroke="#000000" stroke-width="0.5" stroke-linecap="round" stroke-linejoin="round" d="M50.803,510.979
				l0.262,0.454l0.049,0.042l0.376,0.163l0.475-0.05"/>
			<path fill="none" stroke="#000000" stroke-width="0.5" stroke-linecap="round" stroke-linejoin="round" d="M54.198,509.045
				l-1.007,0.433"/>
			<path fill="none" stroke="#000000" stroke-width="0.5" stroke-linecap="round" stroke-linejoin="round" d="M52.256,510.582
				l-0.212-0.007l-0.17-0.114l-0.121-0.219l-0.049-0.376l2.566-1.481l-0.219-0.128l-2.566,1.481l0.05,0.376l0.113,0.219l0.397,0.241
				"/>
			<path fill="none" stroke="#000000" stroke-width="0.5" stroke-linecap="round" stroke-linejoin="round" d="M51.059,511.419
				l0.212,0.092l0.475-0.049"/>
			<path fill="none" stroke="#000000" stroke-width="0.5" stroke-linecap="round" stroke-linejoin="round" d="M51.824,510.441
				l0.021,0.007"/>
			<path fill="none" stroke="#000000" stroke-width="0.5" stroke-linecap="round" stroke-linejoin="round" d="M51.703,509.867
				l-0.22-0.128"/>
			<path fill="none" stroke="#000000" stroke-width="0.5" stroke-linecap="round" stroke-linejoin="round" d="M52.993,507.564
				l-0.22-0.121l-0.177-0.056"/>
			<path fill="none" stroke="#000000" stroke-width="0.5" stroke-linecap="round" stroke-linejoin="round" d="M51.498,509.023
				l0.227,0.128l1.531-0.886l-0.049-0.397l-0.107-0.212l-0.107-0.092l-0.177-0.042"/>
			<path fill="none" stroke="#000000" stroke-width="0.5" stroke-linecap="round" stroke-linejoin="round" d="M55.41,477.608
				l1.155,25.873"/>
			<path fill="none" stroke="#000000" stroke-width="0.5" stroke-linecap="round" stroke-linejoin="round" d="M54.049,508.258
				l-0.057-0.886l-0.191-0.574l-0.149-0.191"/>
			<path fill="none" stroke="#000000" stroke-width="0.5" stroke-linecap="round" stroke-linejoin="round" d="M56.728,522.453
				l-1.375-34.944"/>
			<path fill="none" stroke="#000000" stroke-width="0.5" stroke-linecap="round" stroke-linejoin="round" d="M57.238,516.06
				l-1.198-24.392"/>
			<path fill="none" stroke="#000000" stroke-width="0.5" stroke-linecap="round" stroke-linejoin="round" d="M56.04,491.668
				l-0.036-0.666"/>
			<path fill="none" stroke="#000000" stroke-width="0.5" stroke-linecap="round" stroke-linejoin="round" d="M57.366,518.519
				l0.468,9.078l-0.014,0.425"/>
			<path fill="none" stroke="#000000" stroke-width="0.5" stroke-linecap="round" stroke-linejoin="round" d="M57.125,514.239
				l0.036,0.715"/>
			<path fill="none" stroke="#000000" stroke-width="0.5" stroke-linecap="round" stroke-linejoin="round" d="M41.373,516.738
				c-0.763,0.581-1.48,0.395-1.601-0.416c-0.006-0.039-0.01-0.079-0.013-0.12"/>
			<path fill="none" stroke="#000000" stroke-width="0.5" stroke-linecap="round" stroke-linejoin="round" d="M39.94,516.854
				c-0.236-0.136-0.379-0.413-0.406-0.781"/>
		</g>
	</g>
	<g id="Actor_.1">
		<g>
			<path fill="none" stroke="#000000" stroke-width="0.5" stroke-linecap="round" stroke-linejoin="round" d="M25.086,477.147
				c-0.007-0.61-0.007-0.61,0-1.212c0.042-0.659,0.042-0.666,0.092-1.325c0.029-0.128,0.029-0.128,0.064-0.255"/>
			<path fill="none" stroke="#000000" stroke-width="0.5" stroke-linecap="round" stroke-linejoin="round" d="M25.242,476.325
				c-0.007,0.262-0.007,0.27,0,0.531c0.057,0.198,0.057,0.198,0.128,0.39c0.319,0.638,0.319,0.638,0.652,1.268
				c0.27,0.362,0.27,0.362,0.553,0.708"/>
			<path fill="none" stroke="#000000" stroke-width="0.5" stroke-linecap="round" stroke-linejoin="round" d="M29.118,481.25
				c-0.383-0.227-0.383-0.227-0.759-0.467c-0.666-0.539-0.666-0.539-1.333-1.077c-0.227-0.227-0.227-0.234-0.44-0.468"/>
			<path fill="none" stroke="#000000" stroke-width="0.5" stroke-linecap="round" stroke-linejoin="round" d="M27.467,467.389
				c-0.212-0.22-0.212-0.22-0.418-0.447c-0.184-0.227-0.184-0.227-0.361-0.46c-0.192-0.305-0.192-0.312-0.369-0.617"/>
			<path fill="none" stroke="#000000" stroke-width="0.5" stroke-linecap="round" stroke-linejoin="round" d="M26.567,465.724
				c0.141,0.27,0.141,0.27,0.298,0.546c0.191,0.262,0.191,0.262,0.383,0.518c0.241,0.262,0.241,0.262,0.482,0.518
				c0.283,0.241,0.283,0.248,0.574,0.482c0.44,0.297,0.447,0.297,0.886,0.596c0.036,0.007,0.036,0.007,0.064,0.021"/>
			<path fill="none" stroke="#000000" stroke-width="0.5" stroke-linecap="round" stroke-linejoin="round" d="M27.226,472.966
				c0.241-0.461,0.241-0.461,0.489-0.922c0.27-0.489,0.27-0.489,0.553-0.978c0.312-0.525,0.312-0.525,0.631-1.042
				c0.34-0.546,0.34-0.546,0.688-1.084"/>
			<path fill="none" stroke="#000000" stroke-width="0.5" stroke-linecap="round" stroke-linejoin="round" d="M29.692,468.877
				c0.333,0.865,0.333,0.865,0.673,1.736c0.355,0.85,0.355,0.85,0.716,1.701c0.39,0.851,0.383,0.851,0.773,1.701
				c0.411,0.815,0.411,0.815,0.815,1.63"/>
			<path fill="none" stroke="#000000" stroke-width="0.5" stroke-linecap="round" stroke-linejoin="round" d="M32.669,469.855
				c-0.411-0.092-0.411-0.092-0.815-0.191c-0.383-0.113-0.383-0.113-0.773-0.234c-0.355-0.128-0.355-0.128-0.716-0.262
				c-0.333-0.142-0.333-0.142-0.673-0.29c-0.397-0.212-0.397-0.212-0.801-0.425c-0.199-0.128-0.199-0.128-0.404-0.255
				c-0.27-0.191-0.27-0.191-0.539-0.39c-0.241-0.212-0.241-0.212-0.482-0.418"/>
			<path fill="none" stroke="#000000" stroke-width="0.5" stroke-linecap="round" stroke-linejoin="round" d="M27.36,462.605
				c0-4.288,0-4.316,0-8.632c0-0.021,0-0.021,0.007-0.043c0.021-0.042,0.021-0.042,0.042-0.092"/>
			<path fill="none" stroke="#000000" stroke-width="0.5" stroke-linecap="round" stroke-linejoin="round" d="M27.786,454.094
				c-0.113,0.141-0.113,0.141-0.227,0.284c-0.042,0.056-0.042,0.056-0.078,0.12c-0.036,0.071-0.036,0.071-0.057,0.142"/>
			<path fill="none" stroke="#000000" stroke-width="0.5" stroke-linecap="round" stroke-linejoin="round" d="M27.41,453.343
				c0.014-0.049,0.014-0.049,0.021-0.107c0.014-0.029,0.014-0.029,0.036-0.056c0.078-0.099,0.078-0.099,0.156-0.199"/>
			<path fill="none" stroke="#000000" stroke-width="0.5" stroke-linecap="round" stroke-linejoin="round" d="M27.594,452.648
				c0.014-0.049,0.014-0.049,0.036-0.099c0.042-0.064,0.042-0.064,0.092-0.128c0.17-0.177,0.17-0.177,0.347-0.354"/>
			<path fill="none" stroke="#000000" stroke-width="0.5" stroke-linecap="round" stroke-linejoin="round" d="M30.996,463.335
				c-0.312-0.695-0.312-0.695-0.61-1.382c-0.283-0.702-0.283-0.702-0.553-1.396c-0.255-0.716-0.255-0.716-0.503-1.439
				c-0.22-0.715-0.22-0.715-0.433-1.432c-0.241-0.943-0.22-0.949-0.468-1.885c-0.206-0.432-0.219-0.425-0.433-0.858
				c-0.071-0.227-0.078-0.227-0.141-0.461"/>
			<path fill="none" stroke="#000000" stroke-width="0.5" stroke-linecap="round" stroke-linejoin="round" d="M27.509,454.753
				c0.021-0.007,0.021-0.007,0.049-0.014c0.049-0.036,0.049-0.036,0.099-0.078c0.099-0.085,0.099-0.085,0.199-0.177"/>
			<path fill="none" stroke="#000000" stroke-width="0.5" stroke-linecap="round" stroke-linejoin="round" d="M27.46,453.364
				c0.014-0.007,0.014-0.007,0.036-0.014c0.05-0.029,0.05-0.029,0.092-0.064c0.099-0.078,0.099-0.078,0.191-0.156"/>
			<path fill="none" stroke="#000000" stroke-width="0.5" stroke-linecap="round" stroke-linejoin="round" d="M27.757,453.811
				c-0.099,0.085-0.099,0.085-0.199,0.163c-0.049,0.035-0.049,0.035-0.092,0.071c-0.021,0.007-0.021,0.007-0.042,0.014"/>
			<path fill="none" stroke="#000000" stroke-width="0.5" stroke-linecap="round" stroke-linejoin="round" d="M27.892,451.968
				c0.05-0.071,0.05-0.071,0.099-0.149c0.078-0.085,0.078-0.085,0.163-0.163c0.121-0.121,0.128-0.113,0.248-0.234
				c0.085-0.128,0.085-0.128,0.17-0.255"/>
			<path fill="none" stroke="#000000" stroke-width="0.5" stroke-linecap="round" stroke-linejoin="round" d="M29.104,452.84
				c0.064,0.29,0.064,0.29,0.141,0.581c0.277,0.539,0.27,0.539,0.567,1.07c0.333,0.383,0.34,0.39,0.702,0.759"/>
			<path fill="none" stroke="#000000" stroke-width="0.5" stroke-linecap="round" stroke-linejoin="round" d="M28.303,451.337
				c0.007-0.014,0.007-0.014,0.014-0.022c0.057-0.071,0.057-0.078,0.121-0.141c0.156-0.149,0.156-0.149,0.319-0.291"/>
			<path fill="none" stroke="#000000" stroke-width="0.5" stroke-linecap="round" stroke-linejoin="round" d="M32.619,482.732
				c-0.39-0.121-0.39-0.121-0.773-0.248c-0.936-0.383-0.936-0.376-1.864-0.766c-0.425-0.22-0.425-0.22-0.844-0.454"/>
			<path fill="none" stroke="#000000" stroke-width="0.5" stroke-linecap="round" stroke-linejoin="round" d="M29.586,468.941
				c0.369,0.957,0.369,0.957,0.737,1.907c0.397,0.936,0.397,0.936,0.794,1.871c0.411,0.886,0.411,0.886,0.822,1.765
				c0.425,0.858,0.425,0.858,0.858,1.715"/>
			<path fill="none" stroke="#000000" stroke-width="0.5" stroke-linecap="round" stroke-linejoin="round" d="M31.018,463.314
				c0.716-0.666,0.716-0.666,1.432-1.333c0.39-0.347,0.39-0.347,0.78-0.695c0.411-0.361,0.411-0.361,0.815-0.715
				c0.539-0.454,0.539-0.454,1.07-0.907"/>
			<path fill="none" stroke="#000000" stroke-width="0.5" stroke-linecap="round" stroke-linejoin="round" d="M35.943,458.155
				c-0.44-0.085-0.44-0.085-0.872-0.177c-0.815-0.241-0.815-0.248-1.63-0.496c-0.107-0.036-0.107-0.036-0.206-0.078"/>
			<path fill="none" stroke="#000000" stroke-width="0.5" stroke-linecap="round" stroke-linejoin="round" d="M31.018,463.314
				c-0.255-0.695-0.255-0.695-0.503-1.382c-0.219-0.695-0.219-0.695-0.44-1.396c-0.191-0.673-0.191-0.673-0.376-1.354
				c-0.163-0.666-0.163-0.666-0.312-1.34c-0.212-1.177-0.212-1.177-0.404-2.36"/>
			<path fill="none" stroke="#000000" stroke-width="0.5" stroke-linecap="round" stroke-linejoin="round" d="M30.685,469.09
				c0.312,0.113,0.312,0.113,0.631,0.22c0.454,0.135,0.454,0.135,0.914,0.27c0.475,0.107,0.475,0.107,0.957,0.212
				c0.603,0.092,0.603,0.092,1.212,0.184c0.411,0.042,0.411,0.042,0.822,0.085c0.532,0.029,0.539,0.029,1.07,0.049
				c0.539,0.007,0.539,0.007,1.077,0.007c0.525-0.022,0.525-0.022,1.042-0.049c0.525-0.043,0.525-0.043,1.049-0.092"/>
			<path fill="none" stroke="#000000" stroke-width="0.5" stroke-linecap="round" stroke-linejoin="round" d="M32.648,482.739
				c0.624,0.17,0.631,0.17,1.255,0.326c1.099,0.198,1.099,0.191,2.197,0.375c0.326,0.043,0.326,0.043,0.645,0.071"/>
			<path fill="none" stroke="#000000" stroke-width="0.5" stroke-linecap="round" stroke-linejoin="round" d="M36.191,470.259
				c-0.46-0.014-0.46-0.014-0.922-0.042c-0.447-0.036-0.447-0.036-0.886-0.078c-0.659-0.099-0.659-0.099-1.311-0.199
				c-0.206-0.042-0.206-0.042-0.404-0.085"/>
			<path fill="none" stroke="#000000" stroke-width="0.5" stroke-linecap="round" stroke-linejoin="round" d="M38.019,457.992
				c-0.496-0.042-0.503-0.042-0.999-0.085c-0.929-0.156-0.929-0.156-1.85-0.326c-0.886-0.262-0.886-0.262-1.765-0.546"/>
			<path fill="none" stroke="#000000" stroke-width="0.5" stroke-linecap="round" stroke-linejoin="round" d="M44.822,423.203
				c-0.107-0.773-0.107-0.78-0.227-1.552c-0.121-0.326-0.121-0.326-0.262-0.645c-0.22-0.298-0.22-0.305-0.454-0.596
				c-0.291-0.255-0.291-0.255-0.588-0.496c-0.305-0.184-0.312-0.184-0.617-0.355"/>
			<path fill="none" stroke="#000000" stroke-width="0.5" stroke-linecap="round" stroke-linejoin="round" d="M42.675,419.561
				c0.298,0.17,0.298,0.17,0.596,0.347c0.291,0.241,0.298,0.241,0.581,0.489c0.212,0.27,0.212,0.276,0.418,0.553
				c0.049,0.092,0.042,0.092,0.085,0.191c0.078,0.191,0.085,0.191,0.156,0.39c0.014,0.099,0.014,0.099,0.021,0.198
				c0.014,0.199,0.014,0.199,0.022,0.397c-0.007,0.099-0.014,0.099-0.029,0.198c-0.057,0.199-0.057,0.199-0.113,0.397
				c-0.042,0.092-0.042,0.092-0.092,0.184c-0.113,0.191-0.113,0.191-0.234,0.383c-0.071,0.085-0.071,0.085-0.149,0.17
				c-0.177,0.177-0.177,0.177-0.355,0.355c-0.099,0.078-0.099,0.078-0.192,0.149c-0.234,0.156-0.234,0.156-0.475,0.312
				c-0.113,0.064-0.113,0.064-0.234,0.128c-0.277,0.128-0.277,0.128-0.56,0.255c-0.135,0.049-0.135,0.049-0.262,0.099
				c-0.326,0.092-0.326,0.092-0.645,0.191c-0.141,0.035-0.141,0.035-0.283,0.071c-0.347,0.057-0.347,0.057-0.702,0.121
				c-0.149,0.014-0.149,0.021-0.298,0.035c-0.361,0.022-0.361,0.022-0.723,0.043c-0.156,0.007-0.156,0.007-0.305,0.007
				c-0.369-0.014-0.369-0.014-0.73-0.035c-0.149-0.007-0.149-0.007-0.298-0.021c-0.355-0.057-0.355-0.057-0.716-0.114
				c-0.135-0.029-0.135-0.029-0.277-0.056c-0.333-0.092-0.333-0.092-0.673-0.184c-0.128-0.042-0.128-0.042-0.248-0.085
				c-0.305-0.128-0.305-0.128-0.603-0.255c-0.113-0.049-0.113-0.049-0.22-0.106c-0.262-0.156-0.262-0.156-0.518-0.312
				c-0.085-0.064-0.085-0.064-0.177-0.134c-0.206-0.177-0.206-0.177-0.404-0.362c-0.071-0.071-0.071-0.071-0.135-0.149
				c-0.141-0.198-0.141-0.198-0.283-0.397c-0.042-0.078-0.042-0.085-0.085-0.163c-0.078-0.213-0.078-0.213-0.156-0.425
				c-0.014-0.078-0.014-0.078-0.029-0.163c-0.007-0.22-0.007-0.22-0.021-0.433c0.014-0.085,0.014-0.085,0.036-0.17
				c0.057-0.213,0.05-0.213,0.113-0.425c0.156-0.284,0.156-0.284,0.326-0.567c0.255-0.27,0.262-0.276,0.532-0.539"/>
			<path fill="none" stroke="#000000" stroke-width="0.5" stroke-linecap="round" stroke-linejoin="round" d="M34.292,420.156
				c-0.277,0.276-0.277,0.276-0.539,0.567c-0.177,0.284-0.177,0.284-0.34,0.574c-0.085,0.326-0.085,0.326-0.163,0.659
				c-0.064,0.447-0.064,0.447-0.128,0.9"/>
			<path fill="none" stroke="#000000" stroke-width="0.5" stroke-linecap="round" stroke-linejoin="round" d="M35.107,423.316
				c-0.078-0.085-0.078-0.092-0.149-0.177c-0.128-0.156-0.128-0.156-0.248-0.319c-0.042-0.085-0.042-0.085-0.078-0.17
				c-0.064-0.17-0.071-0.17-0.128-0.34c-0.014-0.085-0.014-0.085-0.021-0.17c0-0.177-0.007-0.177-0.007-0.354
				c0.021-0.085,0.021-0.085,0.042-0.17c0.057-0.17,0.057-0.17,0.121-0.347c0.042-0.078,0.049-0.078,0.099-0.163
				c0.113-0.156,0.113-0.163,0.234-0.319c0.078-0.078,0.078-0.078,0.149-0.149c0.177-0.149,0.177-0.149,0.355-0.29
				c0.092-0.064,0.092-0.064,0.192-0.128c0.227-0.12,0.227-0.12,0.447-0.241c0.121-0.056,0.121-0.056,0.234-0.107
				c0.262-0.092,0.262-0.092,0.525-0.184c0.135-0.035,0.135-0.035,0.262-0.071c0.291-0.064,0.291-0.064,0.581-0.12
				c0.141-0.022,0.141-0.022,0.277-0.043c0.312-0.029,0.312-0.029,0.617-0.049c0.141-0.007,0.141-0.007,0.283-0.014
				c0.312,0.014,0.312,0.014,0.624,0.029c0.141,0.007,0.141,0.007,0.277,0.022c0.305,0.043,0.305,0.049,0.61,0.092
				c0.128,0.029,0.128,0.029,0.262,0.056c0.277,0.078,0.277,0.085,0.56,0.163c0.113,0.043,0.113,0.043,0.234,0.085
				c0.248,0.113,0.248,0.113,0.496,0.227c0.099,0.057,0.099,0.049,0.199,0.107c0.206,0.142,0.206,0.142,0.411,0.284
				c0.078,0.064,0.078,0.064,0.149,0.128c0.156,0.163,0.156,0.163,0.312,0.319c0.049,0.071,0.049,0.078,0.099,0.149
				c0.099,0.177,0.099,0.17,0.192,0.347c0.029,0.078,0.021,0.078,0.049,0.156c0.036,0.184,0.036,0.184,0.064,0.368
				c0,0.078,0,0.078-0.007,0.156c-0.029,0.177-0.029,0.184-0.057,0.362c-0.036,0.078-0.036,0.078-0.071,0.156
				c-0.092,0.17-0.085,0.177-0.184,0.347c-0.206,0.241-0.206,0.241-0.418,0.468c-0.277,0.205-0.283,0.205-0.567,0.404"/>
			<path fill="none" stroke="#000000" stroke-width="0.5" stroke-linecap="round" stroke-linejoin="round" d="M41.116,483.511
				c0.9-0.107,0.9-0.107,1.793-0.234c1.063-0.227,1.063-0.234,2.133-0.475c0.085-0.029,0.085-0.029,0.177-0.056"/>
			<path fill="none" stroke="#000000" stroke-width="0.5" stroke-linecap="round" stroke-linejoin="round" d="M35.624,423.72
				c0.326,0.17,0.326,0.177,0.652,0.34c0.39,0.142,0.397,0.142,0.787,0.27c0.432,0.085,0.432,0.085,0.865,0.17
				c0.454,0.035,0.454,0.035,0.907,0.064c0.454-0.014,0.454-0.014,0.907-0.043c0.44-0.064,0.44-0.064,0.879-0.141
				c0.404-0.114,0.404-0.114,0.808-0.241c0.348-0.163,0.348-0.163,0.695-0.326"/>
			<path fill="none" stroke="#000000" stroke-width="0.5" stroke-linecap="round" stroke-linejoin="round" d="M42.675,419.561
				c-0.071-0.043-0.071-0.043-0.141-0.078c-0.432-0.17-0.432-0.177-0.865-0.34c-0.468-0.128-0.475-0.128-0.943-0.241
				c-0.503-0.078-0.503-0.078-1.007-0.141c-0.518-0.014-0.518-0.014-1.028-0.022c-0.51,0.035-0.518,0.035-1.028,0.078
				c-0.489,0.092-0.489,0.092-0.978,0.191c-0.447,0.134-0.447,0.142-0.9,0.29c-0.277,0.128-0.277,0.128-0.553,0.262"/>
			<path fill="none" stroke="#000000" stroke-width="0.5" stroke-linecap="round" stroke-linejoin="round" d="M36.779,483.511
				c0.794,0.056,0.794,0.056,1.595,0.092c1.148-0.014,1.148-0.021,2.289-0.049c0.212-0.014,0.212-0.014,0.425-0.035"/>
			<path fill="none" stroke="#000000" stroke-width="0.5" stroke-linecap="round" stroke-linejoin="round" d="M37.906,460.621
				c-0.042,0.007-0.042,0.007-0.085,0.014c-0.042,0-0.042,0-0.092-0.007c-0.029-0.007-0.029-0.007-0.057-0.014"/>
			<path fill="none" stroke="#000000" stroke-width="0.5" stroke-linecap="round" stroke-linejoin="round" d="M37.984,460.557
				c0.029-0.035,0.029-0.035,0.049-0.071c0.029-0.071,0.029-0.071,0.057-0.142c0.029-0.156,0.029-0.156,0.064-0.305"/>
			<path fill="none" stroke="#000000" stroke-width="0.5" stroke-linecap="round" stroke-linejoin="round" d="M39.451,421.849
				c-0.064-0.042-0.064-0.042-0.128-0.085c-0.092-0.035-0.092-0.035-0.192-0.071c-0.078-0.014-0.078-0.014-0.163-0.022
				c-0.085,0.007-0.085,0.007-0.17,0.014c-0.071,0.021-0.071,0.021-0.149,0.043c-0.092,0.049-0.092,0.049-0.177,0.099"/>
			<path fill="none" stroke="#000000" stroke-width="0.5" stroke-linecap="round" stroke-linejoin="round" d="M39.323,460.054
				c-0.021,0.149-0.021,0.149-0.042,0.305c-0.021,0.078-0.021,0.078-0.042,0.149c-0.021,0.036-0.021,0.036-0.049,0.071"/>
			<path fill="none" stroke="#000000" stroke-width="0.5" stroke-linecap="round" stroke-linejoin="round" d="M38.437,422.112
				c0.042,0.043,0.042,0.043,0.092,0.092c0.036,0.021,0.036,0.021,0.078,0.043c0.078,0.021,0.078,0.029,0.156,0.049
				c0.085,0.007,0.092,0.007,0.177,0.014c0.085,0,0.092,0,0.177-0.014c0.078-0.022,0.078-0.022,0.156-0.043
				c0.036-0.014,0.036-0.014,0.064-0.035c0.049-0.043,0.049-0.043,0.099-0.085"/>
			<path fill="none" stroke="#000000" stroke-width="0.5" stroke-linecap="round" stroke-linejoin="round" d="M40.393,460.529
				c0.021-0.035,0.021-0.035,0.042-0.071c0.021-0.078,0.021-0.078,0.036-0.156c0.007-0.156,0.007-0.156,0.021-0.312"/>
			<path fill="none" stroke="#000000" stroke-width="0.5" stroke-linecap="round" stroke-linejoin="round" d="M40.003,460.564
				c-0.021-0.022-0.021-0.022-0.036-0.036c-0.036-0.064-0.036-0.064-0.064-0.128c-0.049-0.185-0.049-0.185-0.099-0.362"/>
			<path fill="none" stroke="#000000" stroke-width="0.5" stroke-linecap="round" stroke-linejoin="round" d="M41.201,460.465
				c-0.022-0.022-0.022-0.022-0.042-0.036c-0.036-0.064-0.036-0.064-0.071-0.12c-0.064-0.177-0.064-0.184-0.12-0.362"/>
			<path fill="none" stroke="#000000" stroke-width="0.5" stroke-linecap="round" stroke-linejoin="round" d="M42.108,459.792
				c0.071,0.177,0.071,0.177,0.141,0.347c0.042,0.064,0.042,0.064,0.078,0.121c0.021,0.014,0.021,0.014,0.042,0.029"/>
			<path fill="none" stroke="#000000" stroke-width="0.5" stroke-linecap="round" stroke-linejoin="round" d="M43.214,459.565
				c0.078,0.17,0.078,0.177,0.163,0.34c0.042,0.056,0.042,0.056,0.085,0.113c0.021,0.014,0.021,0.014,0.042,0.029"/>
			<path fill="none" stroke="#000000" stroke-width="0.5" stroke-linecap="round" stroke-linejoin="round" d="M43.596,460.096
				c0.029-0.007,0.029-0.007,0.064-0.007c0.036-0.007,0.042-0.007,0.078-0.021c0.036-0.014,0.036-0.014,0.071-0.036"/>
			<path fill="none" stroke="#000000" stroke-width="0.5" stroke-linecap="round" stroke-linejoin="round" d="M44.27,459.281
				c0.092,0.163,0.092,0.163,0.184,0.326c0.042,0.057,0.042,0.057,0.092,0.107c0.021,0.014,0.021,0.014,0.042,0.029"/>
			<path fill="none" stroke="#000000" stroke-width="0.5" stroke-linecap="round" stroke-linejoin="round" d="M45.609,459.367
				c-0.021-0.007-0.021-0.007-0.042-0.021c-0.049-0.05-0.049-0.05-0.092-0.107c-0.107-0.156-0.107-0.156-0.206-0.312"/>
			<path fill="none" stroke="#000000" stroke-width="0.5" stroke-linecap="round" stroke-linejoin="round" d="M46.559,458.934
				c-0.021-0.007-0.021-0.007-0.042-0.022c-0.05-0.042-0.05-0.042-0.099-0.092c-0.107-0.156-0.107-0.156-0.212-0.305"/>
			<path fill="none" stroke="#000000" stroke-width="0.5" stroke-linecap="round" stroke-linejoin="round" d="M46.644,458.963
				c0.029-0.007,0.029-0.007,0.057-0.014c0.036-0.014,0.036-0.014,0.064-0.036c0.029-0.021,0.029-0.021,0.049-0.042"/>
			<path fill="none" stroke="#000000" stroke-width="0.5" stroke-linecap="round" stroke-linejoin="round" d="M46.842,458.771
				c0.007-0.036,0.007-0.036,0.007-0.078c-0.014-0.078-0.014-0.078-0.036-0.149c-0.049-0.149-0.049-0.149-0.099-0.297"/>
			<path fill="none" stroke="#000000" stroke-width="0.5" stroke-linecap="round" stroke-linejoin="round" d="M47.423,458.452
				c-0.021-0.007-0.021-0.007-0.042-0.022c-0.049-0.042-0.049-0.042-0.099-0.092c-0.113-0.142-0.113-0.142-0.227-0.291"/>
			<path fill="none" stroke="#000000" stroke-width="0.5" stroke-linecap="round" stroke-linejoin="round" d="M47.515,457.751
				c0.057,0.149,0.057,0.149,0.121,0.29c0.021,0.071,0.021,0.071,0.042,0.149c0,0.043,0,0.043,0,0.078"/>
			<path fill="none" stroke="#000000" stroke-width="0.5" stroke-linecap="round" stroke-linejoin="round" d="M47.813,457.538
				c0.121,0.135,0.121,0.135,0.241,0.277c0.049,0.042,0.049,0.042,0.099,0.085c0.022,0.007,0.022,0.007,0.042,0.014"/>
			<path fill="none" stroke="#000000" stroke-width="0.5" stroke-linecap="round" stroke-linejoin="round" d="M48.982,464.66
				c-0.029,0.021-0.029,0.021-0.049,0.035c-0.036,0.014-0.036,0.014-0.071,0.029c-0.036,0.007-0.036,0.007-0.071,0.007
				c-0.113-0.007-0.113-0.007-0.227-0.022"/>
			<path fill="none" stroke="#000000" stroke-width="0.5" stroke-linecap="round" stroke-linejoin="round" d="M48.224,457.212
				c0.064,0.141,0.064,0.141,0.135,0.283c0.021,0.071,0.029,0.071,0.049,0.142c0.007,0.056,0.007,0.056,0.014,0.113
				c-0.007,0.035-0.007,0.035-0.014,0.064"/>
			<path fill="none" stroke="#000000" stroke-width="0.5" stroke-linecap="round" stroke-linejoin="round" d="M48.862,457.34
				c-0.014-0.007-0.014-0.007-0.036-0.022c-0.049-0.035-0.049-0.035-0.099-0.078c-0.128-0.128-0.128-0.128-0.248-0.262"/>
			<path fill="none" stroke="#000000" stroke-width="0.5" stroke-linecap="round" stroke-linejoin="round" d="M49.429,456.716
				c-0.021-0.007-0.021-0.007-0.036-0.014c-0.049-0.035-0.057-0.029-0.099-0.071c-0.128-0.121-0.128-0.121-0.248-0.248"/>
			<path fill="none" stroke="#000000" stroke-width="0.5" stroke-linecap="round" stroke-linejoin="round" d="M48.826,456.631
				c0.078,0.142,0.078,0.142,0.149,0.277c0.036,0.071,0.036,0.071,0.064,0.141c0.014,0.057,0.014,0.057,0.021,0.107"/>
			<path fill="none" stroke="#000000" stroke-width="0.5" stroke-linecap="round" stroke-linejoin="round" d="M49.592,463.944
				c0-3.423,0-3.678,0-7.349c-0.007-0.036,0-0.036-0.007-0.064c-0.014-0.057-0.014-0.057-0.029-0.107
				c-0.036-0.071-0.036-0.071-0.071-0.142c-0.078-0.134-0.078-0.134-0.163-0.262"/>
			<path fill="none" stroke="#000000" stroke-width="0.5" stroke-linecap="round" stroke-linejoin="round" d="M49.492,455.759
				c0.128,0.12,0.128,0.12,0.248,0.234c0.049,0.036,0.049,0.036,0.099,0.064c0.014,0.007,0.014,0.007,0.036,0.014"/>
			<path fill="none" stroke="#000000" stroke-width="0.5" stroke-linecap="round" stroke-linejoin="round" d="M50.038,452.698
				c0.149,0.163,0.149,0.163,0.298,0.319c0.057,0.078,0.057,0.078,0.107,0.156c0.014,0.029,0.007,0.029,0.021,0.056
				c0.007,0.043,0.007,0.043,0.007,0.085"/>
			<path fill="none" stroke="#000000" stroke-width="0.5" stroke-linecap="round" stroke-linejoin="round" d="M50.01,462.825
				c0.064-0.007,0.064-0.007,0.128-0.014c0.036-0.014,0.036-0.014,0.064-0.022c0.029-0.021,0.029-0.021,0.049-0.035"/>
			<path fill="none" stroke="#000000" stroke-width="0.5" stroke-linecap="round" stroke-linejoin="round" d="M49.705,455.384
				c0.092,0.12,0.092,0.12,0.177,0.248c0.036,0.071,0.036,0.071,0.078,0.135c0.021,0.056,0.021,0.056,0.036,0.107
				c0.007,0.035,0.007,0.035,0.014,0.064c-0.007,0.021-0.007,0.021-0.007,0.042"/>
			<path fill="none" stroke="#000000" stroke-width="0.5" stroke-linecap="round" stroke-linejoin="round" d="M49.967,454.725
				c0.099,0.12,0.099,0.12,0.192,0.241c0.042,0.064,0.042,0.064,0.085,0.128c0.021,0.049,0.021,0.049,0.042,0.107
				c0.007,0.029,0.007,0.029,0.014,0.064c0.007,0.022,0.007,0.036,0,0.043"/>
			<path fill="none" stroke="#000000" stroke-width="0.5" stroke-linecap="round" stroke-linejoin="round" d="M50.144,454.087
				c0.128,0.156,0.128,0.156,0.255,0.319c0.042,0.078,0.036,0.078,0.078,0.163c0,0.022,0,0.022,0.007,0.043
				c-0.007,0.035-0.007,0.035-0.014,0.071"/>
			<path fill="none" stroke="#000000" stroke-width="0.5" stroke-linecap="round" stroke-linejoin="round" d="M50.137,453.378
				c0.149,0.163,0.149,0.163,0.291,0.333c0.036,0.049,0.036,0.049,0.064,0.099c0.021,0.057,0.021,0.057,0.042,0.114"/>
			<path fill="none" stroke="#000000" stroke-width="0.5" stroke-linecap="round" stroke-linejoin="round" d="M52.653,476.857
				c0.036-0.128,0.036-0.135,0.064-0.262c0.049-0.659,0.057-0.666,0.092-1.325c-0.064-0.447-0.064-0.454-0.156-0.9"/>
			<path fill="none" stroke="#000000" stroke-width="0.5" stroke-linecap="round" stroke-linejoin="round" d="M45.46,466.73
				c0.036,0.007,0.036,0.007,0.071,0.022c0.036,0,0.036,0,0.078,0.007c0.036-0.007,0.036-0.007,0.078-0.007
				c0.036-0.014,0.036-0.014,0.071-0.022"/>
			<path fill="none" stroke="#000000" stroke-width="0.5" stroke-linecap="round" stroke-linejoin="round" d="M49.726,463.484
				c0.042,0,0.042,0,0.078-0.007c0.036-0.007,0.036-0.007,0.071-0.021c0.029-0.014,0.029-0.014,0.057-0.029"/>
			<path fill="none" stroke="#000000" stroke-width="0.5" stroke-linecap="round" stroke-linejoin="round" d="M49.273,464.122
				c0.042,0,0.042,0,0.078,0c0.042-0.007,0.042-0.007,0.078-0.014c0.029-0.014,0.029-0.014,0.057-0.029
				c0.029-0.029,0.029-0.029,0.057-0.049"/>
			<path fill="none" stroke="#000000" stroke-width="0.5" stroke-linecap="round" stroke-linejoin="round" d="M48.04,465.306
				c0.036,0,0.036,0,0.078,0.007c0.036-0.007,0.036-0.007,0.078-0.007c0.036-0.014,0.036-0.014,0.071-0.022
				c0.029-0.021,0.029-0.021,0.049-0.035"/>
			<path fill="none" stroke="#000000" stroke-width="0.5" stroke-linecap="round" stroke-linejoin="round" d="M47.551,465.794
				c-0.029,0.014-0.029,0.014-0.057,0.029c-0.036,0.007-0.036,0.007-0.071,0.014c-0.042,0-0.042,0-0.078,0.007
				c-0.042-0.007-0.042-0.007-0.078-0.014"/>
			<path fill="none" stroke="#000000" stroke-width="0.5" stroke-linecap="round" stroke-linejoin="round" d="M43.37,467.389
				c0.029,0.021,0.029,0.021,0.057,0.035c0.036,0.007,0.036,0.007,0.078,0.014c0.036,0,0.036,0,0.078,0
				c0.036-0.007,0.036-0.007,0.078-0.014"/>
			<path fill="none" stroke="#000000" stroke-width="0.5" stroke-linecap="round" stroke-linejoin="round" d="M44.44,467.091
				c0.036,0.014,0.036,0.014,0.071,0.029c0.036,0.007,0.036,0.007,0.078,0.007c0.036,0,0.036,0,0.078,0
				c0.036-0.007,0.036-0.007,0.071-0.014"/>
			<path fill="none" stroke="#000000" stroke-width="0.5" stroke-linecap="round" stroke-linejoin="round" d="M46.403,466.305
				c0.036,0.007,0.036,0.007,0.071,0.022c0.042,0,0.042,0,0.085,0c0.036-0.007,0.036-0.007,0.071-0.014
				c0.036-0.007,0.036-0.007,0.071-0.022"/>
			<path fill="none" stroke="#000000" stroke-width="0.5" stroke-linecap="round" stroke-linejoin="round" d="M38.742,467.949
				c0.021,0.014,0.021,0.014,0.049,0.029c0.036,0.014,0.036,0.014,0.071,0.021c0.042,0.007,0.042,0.007,0.078,0.007"/>
			<path fill="none" stroke="#000000" stroke-width="0.5" stroke-linecap="round" stroke-linejoin="round" d="M42.243,467.623
				c0.029,0.022,0.029,0.022,0.057,0.036c0.036,0.014,0.036,0.014,0.071,0.021c0.036,0,0.036,0,0.078,0.007
				c0.036,0,0.036,0,0.071-0.007"/>
			<path fill="none" stroke="#000000" stroke-width="0.5" stroke-linecap="round" stroke-linejoin="round" d="M37.821,467.97
				c0.042,0,0.042,0,0.085,0c0.042-0.007,0.042-0.007,0.078-0.021c0.036-0.014,0.036-0.014,0.064-0.029"/>
			<path fill="none" stroke="#000000" stroke-width="0.5" stroke-linecap="round" stroke-linejoin="round" d="M30.685,469.09
				c-0.042-0.021-0.042-0.021-0.078-0.049c-0.036-0.028-0.036-0.029-0.071-0.064c-0.029-0.042-0.029-0.042-0.057-0.085
				c-0.021-0.043-0.021-0.043-0.042-0.085"/>
			<path fill="none" stroke="#000000" stroke-width="0.5" stroke-linecap="round" stroke-linejoin="round" d="M41.081,467.793
				c0.029,0.014,0.029,0.014,0.049,0.035c0.036,0.007,0.036,0.007,0.071,0.022c0.036,0.007,0.036,0.007,0.071,0.014
				c0.042,0,0.042,0,0.078-0.007"/>
			<path fill="none" stroke="#000000" stroke-width="0.5" stroke-linecap="round" stroke-linejoin="round" d="M27.658,462.194
				c-0.042-0.007-0.042-0.007-0.085-0.014c-0.036-0.014-0.036-0.014-0.071-0.029c-0.021-0.021-0.021-0.021-0.049-0.042"/>
			<path fill="none" stroke="#000000" stroke-width="0.5" stroke-linecap="round" stroke-linejoin="round" d="M40.244,467.963
				c0.042-0.007,0.042-0.007,0.085-0.014c0.036-0.014,0.036-0.014,0.071-0.029c0.021-0.022,0.021-0.022,0.042-0.043"/>
			<path fill="none" stroke="#000000" stroke-width="0.5" stroke-linecap="round" stroke-linejoin="round" d="M25.086,475.936
				l0.156,0.9v-0.51"/>
			<path fill="none" stroke="#000000" stroke-width="0.5" stroke-linecap="round" stroke-linejoin="round" d="M26.574,479.224
				l-1.021-2.396v-13.004l0.248,0.574l0.355-0.206v6.825l0.532,1.042l0.603,0.787"/>
			<path fill="none" stroke="#000000" stroke-width="0.5" stroke-linecap="round" stroke-linejoin="round" d="M25.553,476.828
				l-0.312,0.029"/>
			<path fill="none" stroke="#000000" stroke-width="0.5" stroke-linecap="round" stroke-linejoin="round" d="M25.242,476.325
				v-12.487l0.312-2.459l-0.312-0.029l1.34-1.899l0.007-0.489l0.773-0.531"/>
			<path fill="none" stroke="#000000" stroke-width="0.5" stroke-linecap="round" stroke-linejoin="round" d="M26.156,471.017
				l-0.355,0.206v-6.824"/>
			<path fill="none" stroke="#000000" stroke-width="0.5" stroke-linecap="round" stroke-linejoin="round" d="M25.801,471.223
				l0.787,1.836v6.18l0.277-0.078l2.254,2.091"/>
			<path fill="none" stroke="#000000" stroke-width="0.5" stroke-linecap="round" stroke-linejoin="round" d="M25.242,463.839v0.014
				l0.312-0.029"/>
			<path fill="none" stroke="#000000" stroke-width="0.5" stroke-linecap="round" stroke-linejoin="round" d="M25.242,464.051
				v-0.199"/>
			<path fill="none" stroke="#000000" stroke-width="0.5" stroke-linecap="round" stroke-linejoin="round" d="M25.242,463.824
				v-2.473"/>
			<path fill="none" stroke="#000000" stroke-width="0.5" stroke-linecap="round" stroke-linejoin="round" d="M26.588,473.058
				l0.277-0.078l2.254,2.098l0.021,0.007l0.22-0.128l3.288,1.602v6.18l0.141-0.163v-6.18l-0.141,0.163"/>
			<path fill="none" stroke="#000000" stroke-width="0.5" stroke-linecap="round" stroke-linejoin="round" d="M27.467,472.506
				v-5.117"/>
			<path fill="none" stroke="#000000" stroke-width="0.5" stroke-linecap="round" stroke-linejoin="round" d="M26.319,465.865
				l0.248-0.141"/>
			<path fill="none" stroke="#000000" stroke-width="0.5" stroke-linecap="round" stroke-linejoin="round" d="M29.253,468.402
				l0.057-0.007l0.042-0.036l0.021-0.056"/>
			<path fill="none" stroke="#000000" stroke-width="0.5" stroke-linecap="round" stroke-linejoin="round" d="M26.319,465.865
				l0.042-1.198l-0.206-0.475"/>
			<path fill="none" stroke="#000000" stroke-width="0.5" stroke-linecap="round" stroke-linejoin="round" d="M26.567,465.724
				l0.036-1.198l-0.241,0.141"/>
			<path fill="none" stroke="#000000" stroke-width="0.5" stroke-linecap="round" stroke-linejoin="round" d="M26.602,464.526
				l0.999-0.574"/>
			<path fill="none" stroke="#000000" stroke-width="0.5" stroke-linecap="round" stroke-linejoin="round" d="M26.581,459.452
				l0.283-0.404l-0.277-0.085"/>
			<path fill="none" stroke="#000000" stroke-width="0.5" stroke-linecap="round" stroke-linejoin="round" d="M26.864,479.16v-6.18"
				/>
			<path fill="none" stroke="#000000" stroke-width="0.5" stroke-linecap="round" stroke-linejoin="round" d="M29.586,468.941
				l0.107-0.064"/>
			<path fill="none" stroke="#000000" stroke-width="0.5" stroke-linecap="round" stroke-linejoin="round" d="M32.669,475.645v-5.79
				"/>
			<path fill="none" stroke="#000000" stroke-width="0.5" stroke-linecap="round" stroke-linejoin="round" d="M27.41,453.839v-0.496
				l0.014,0.022h0.036v0.411"/>
			<path fill="none" stroke="#000000" stroke-width="0.5" stroke-linecap="round" stroke-linejoin="round" d="M27.424,461.989v0.022
				v-1.028l-0.007,0.475"/>
			<path fill="none" stroke="#000000" stroke-width="0.5" stroke-linecap="round" stroke-linejoin="round" d="M27.424,460.982
				v-6.924l-0.021,0.007l-0.029-0.007l-0.014-0.021v-0.064"/>
			<path fill="none" stroke="#000000" stroke-width="0.5" stroke-linecap="round" stroke-linejoin="round" d="M27.757,454.13v-0.319
				l0.029,0.284"/>
			<path fill="none" stroke="#000000" stroke-width="0.5" stroke-linecap="round" stroke-linejoin="round" d="M27.424,454.64
				l0.014,0.099l0.021,0.021l0.05-0.007l-0.007,7.399"/>
			<path fill="none" stroke="#000000" stroke-width="0.5" stroke-linecap="round" stroke-linejoin="round" d="M27.424,454.64v0.206"
				/>
			<path fill="none" stroke="#000000" stroke-width="0.5" stroke-linecap="round" stroke-linejoin="round" d="M27.623,452.981
				v-0.304l-0.029-0.007v-0.022"/>
			<path fill="none" stroke="#000000" stroke-width="0.5" stroke-linecap="round" stroke-linejoin="round" d="M28.069,452.067
				l0.12-0.27l-0.177,0.134l-0.107,0.064v0.234"/>
			<path fill="none" stroke="#000000" stroke-width="0.5" stroke-linecap="round" stroke-linejoin="round" d="M27.41,453.839
				l0.107-0.156l0.241-0.276v0.007"/>
			<path fill="none" stroke="#000000" stroke-width="0.5" stroke-linecap="round" stroke-linejoin="round" d="M31.003,465.929
				l0.014-2.615l-0.021,0.022"/>
			<path fill="none" stroke="#000000" stroke-width="0.5" stroke-linecap="round" stroke-linejoin="round" d="M27.857,454.484
				l-0.078,7.718l-0.12-0.007"/>
			<path fill="none" stroke="#000000" stroke-width="0.5" stroke-linecap="round" stroke-linejoin="round" d="M27.779,453.13
				l-0.021,0.276"/>
			<path fill="none" stroke="#000000" stroke-width="0.5" stroke-linecap="round" stroke-linejoin="round" d="M27.623,452.677
				l0.113-0.071l0.192-0.142l-0.078,0.27l-0.227,0.248"/>
			<path fill="none" stroke="#000000" stroke-width="0.5" stroke-linecap="round" stroke-linejoin="round" d="M27.594,452.67v0.347"
				/>
			<path fill="none" stroke="#000000" stroke-width="0.5" stroke-linecap="round" stroke-linejoin="round" d="M27.594,452.648v0.199
				"/>
			<path fill="none" stroke="#000000" stroke-width="0.5" stroke-linecap="round" stroke-linejoin="round" d="M27.906,451.996
				l-0.014-0.007v-0.021"/>
			<path fill="none" stroke="#000000" stroke-width="0.5" stroke-linecap="round" stroke-linejoin="round" d="M28.572,451.167
				l-0.255,0.177v0.156"/>
			<path fill="none" stroke="#000000" stroke-width="0.5" stroke-linecap="round" stroke-linejoin="round" d="M27.892,451.989
				l-0.007,0.262"/>
			<path fill="none" stroke="#000000" stroke-width="0.5" stroke-linecap="round" stroke-linejoin="round" d="M28.431,455.802
				l0.638-1.177l-0.085,0.858L28.431,455.802"/>
			<path fill="none" stroke="#000000" stroke-width="0.5" stroke-linecap="round" stroke-linejoin="round" d="M32.917,424.408
				l0.042-0.248l-4.472,28.822l0.042,0.397l0.574-0.539"/>
			<path fill="none" stroke="#000000" stroke-width="0.5" stroke-linecap="round" stroke-linejoin="round" d="M28.53,453.378
				l4.592-29.962l-4.018,29.424"/>
			<path fill="none" stroke="#000000" stroke-width="0.5" stroke-linecap="round" stroke-linejoin="round" d="M33.285,421.963
				l-0.206,1.432l-0.12,0.766l0.099-0.766l-0.12,0.766l-4.451,28.588l0.042-0.404l4.592-29.488l-0.071,0.539"/>
			<path fill="none" stroke="#000000" stroke-width="0.5" stroke-linecap="round" stroke-linejoin="round" d="M28.53,452.712
				l-0.042,0.035"/>
			<path fill="none" stroke="#000000" stroke-width="0.5" stroke-linecap="round" stroke-linejoin="round" d="M28.317,451.344
				l-0.014-0.007v0.177"/>
			<path fill="none" stroke="#000000" stroke-width="0.5" stroke-linecap="round" stroke-linejoin="round" d="M29.359,481.137
				l3.26,1.595"/>
			<path fill="none" stroke="#000000" stroke-width="0.5" stroke-linecap="round" stroke-linejoin="round" d="M29.139,481.265
				l0.22-0.128v-6.18"/>
			<path fill="none" stroke="#000000" stroke-width="0.5" stroke-linecap="round" stroke-linejoin="round" d="M29.139,481.265v-6.18
				"/>
			<path fill="none" stroke="#000000" stroke-width="0.5" stroke-linecap="round" stroke-linejoin="round" d="M32.796,476.198
				l0.113-0.071l-0.241-0.482"/>
			<path fill="none" stroke="#000000" stroke-width="0.5" stroke-linecap="round" stroke-linejoin="round" d="M29.671,468.034h0.021
				"/>
			<path fill="none" stroke="#000000" stroke-width="0.5" stroke-linecap="round" stroke-linejoin="round" d="M29.309,468.395
				l0.546-0.312"/>
			<path fill="none" stroke="#000000" stroke-width="0.5" stroke-linecap="round" stroke-linejoin="round" d="M35.114,459.664
				l0.829-1.51"/>
			<path fill="none" stroke="#000000" stroke-width="0.5" stroke-linecap="round" stroke-linejoin="round" d="M33.236,457.404
				l-0.141,0.078l0.759-18.071l0.553-12.182l-3.388,36.085"/>
			<path fill="none" stroke="#000000" stroke-width="0.5" stroke-linecap="round" stroke-linejoin="round" d="M30.444,455.759
				l-0.872-0.964l-0.319-0.503l-0.156,0.092l0.603,0.851l0.716,0.702l2.36-17.15l1.637-11.672l-0.007,0.113"/>
			<path fill="none" stroke="#000000" stroke-width="0.5" stroke-linecap="round" stroke-linejoin="round" d="M29.068,454.626
				l0.029-0.241"/>
			<path fill="none" stroke="#000000" stroke-width="0.5" stroke-linecap="round" stroke-linejoin="round" d="M39.458,469.976
				l1.34-0.773"/>
			<path fill="none" stroke="#000000" stroke-width="0.5" stroke-linecap="round" stroke-linejoin="round" d="M31.315,469.31v-0.786
				"/>
			<path fill="none" stroke="#000000" stroke-width="0.5" stroke-linecap="round" stroke-linejoin="round" d="M36.744,483.511
				l-3.955-0.936"/>
			<path fill="none" stroke="#000000" stroke-width="0.5" stroke-linecap="round" stroke-linejoin="round" d="M32.789,476.396
				l2.92,0.695v-6.548l0.482-0.284"/>
			<path fill="none" stroke="#000000" stroke-width="0.5" stroke-linecap="round" stroke-linejoin="round" d="M32.91,476.127
				l1.474,0.376l1.325,0.227"/>
			<path fill="none" stroke="#000000" stroke-width="0.5" stroke-linecap="round" stroke-linejoin="round" d="M38.019,457.992
				l0.425-30.962l0.014-0.532l-0.404,32.379L38.019,457.992"/>
			<path fill="none" stroke="#000000" stroke-width="0.5" stroke-linecap="round" stroke-linejoin="round" d="M33.406,457.035
				l-0.17,0.369"/>
			<path fill="none" stroke="#000000" stroke-width="0.5" stroke-linecap="round" stroke-linejoin="round" d="M33.094,457.481
				l1.212,0.418l1.481,0.347l0.156-0.092"/>
			<path fill="none" stroke="#000000" stroke-width="0.5" stroke-linecap="round" stroke-linejoin="round" d="M33.406,457.035
				l0.617-15.024l0.659-15.052l-0.27,0.156"/>
			<path fill="none" stroke="#000000" stroke-width="0.5" stroke-linecap="round" stroke-linejoin="round" d="M34.341,420.127
				l-0.049,0.029"/>
			<path fill="none" stroke="#000000" stroke-width="0.5" stroke-linecap="round" stroke-linejoin="round" d="M33.108,423.061
				l-0.049,0.333"/>
			<path fill="none" stroke="#000000" stroke-width="0.5" stroke-linecap="round" stroke-linejoin="round" d="M34.717,422.813
				l0.39,0.503"/>
			<path fill="none" stroke="#000000" stroke-width="0.5" stroke-linecap="round" stroke-linejoin="round" d="M35.638,423.727
				l-0.532-0.411l0.518,0.404"/>
			<path fill="none" stroke="#000000" stroke-width="0.5" stroke-linecap="round" stroke-linejoin="round" d="M34.533,422.296
				l0.234,0.581"/>
			<path fill="none" stroke="#000000" stroke-width="0.5" stroke-linecap="round" stroke-linejoin="round" d="M34.341,420.127
				l0.638-0.44l0.128-0.064l-0.149,0.071L34.341,420.127"/>
			<path fill="none" stroke="#000000" stroke-width="0.5" stroke-linecap="round" stroke-linejoin="round" d="M35.709,470.543
				l1.07,0.121v12.848l0.049-0.177v-12.827l1.878-0.092l2.41,0.099v12.997"/>
			<path fill="none" stroke="#000000" stroke-width="0.5" stroke-linecap="round" stroke-linejoin="round" d="M45.219,482.746
				l-4.103,0.581"/>
			<path fill="none" stroke="#000000" stroke-width="0.5" stroke-linecap="round" stroke-linejoin="round" d="M35.114,459.664
				l1.488,0.248l0.865,0.085l0.014,7.767l0.029,0.092l0.029,0.042l0.05,0.036l0.007-7.392l-0.036-0.035l-0.042-0.135l-0.049-0.376"
				/>
			<path fill="none" stroke="#000000" stroke-width="0.5" stroke-linecap="round" stroke-linejoin="round" d="M35.787,458.247
				l-0.029,0.241"/>
			<path fill="none" stroke="#000000" stroke-width="0.5" stroke-linecap="round" stroke-linejoin="round" d="M35.107,419.624
				l0.128-0.064L35.107,419.624"/>
			<path fill="none" stroke="#000000" stroke-width="0.5" stroke-linecap="round" stroke-linejoin="round" d="M42.533,419.483
				l0.141,0.078"/>
			<path fill="none" stroke="#000000" stroke-width="0.5" stroke-linecap="round" stroke-linejoin="round" d="M35.234,419.561
				l0.553-0.262"/>
			<path fill="none" stroke="#000000" stroke-width="0.5" stroke-linecap="round" stroke-linejoin="round" d="M41.088,483.518
				l-4.259-0.184"/>
			<path fill="none" stroke="#000000" stroke-width="0.5" stroke-linecap="round" stroke-linejoin="round" d="M36.779,470.663
				l0.049-0.156"/>
			<path fill="none" stroke="#000000" stroke-width="0.5" stroke-linecap="round" stroke-linejoin="round" d="M37.984,467.949
				v-7.392l-0.078,0.064"/>
			<path fill="none" stroke="#000000" stroke-width="0.5" stroke-linecap="round" stroke-linejoin="round" d="M37.672,460.614
				l-0.057-0.036l-0.021-0.035"/>
			<path fill="none" stroke="#000000" stroke-width="0.5" stroke-linecap="round" stroke-linejoin="round" d="M37.587,467.935
				l0.064,0.029l0.078,0.007"/>
			<path fill="none" stroke="#000000" stroke-width="0.5" stroke-linecap="round" stroke-linejoin="round" d="M38.707,467.906
				l-0.05-0.085l-0.029-7.767l-0.475-0.014l-0.029,7.767l-0.036,0.064"/>
			<path fill="none" stroke="#000000" stroke-width="0.5" stroke-linecap="round" stroke-linejoin="round" d="M38.126,467.807
				l0.532,0.014"/>
			<path fill="none" stroke="#000000" stroke-width="0.5" stroke-linecap="round" stroke-linejoin="round" d="M38.749,458.899
				l0.092-0.886l-0.007-30.657l-0.014-0.851L38.749,458.899l-0.695-0.022"/>
			<path fill="none" stroke="#000000" stroke-width="0.5" stroke-linecap="round" stroke-linejoin="round" d="M39.77,424.521
				l-0.184-2.431l-0.021-0.078l-0.113-0.163"/>
			<path fill="none" stroke="#000000" stroke-width="0.5" stroke-linecap="round" stroke-linejoin="round" d="M38.473,421.828
				l-0.128,0.156l-0.049,0.199l-0.177,2.332"/>
			<path fill="none" stroke="#000000" stroke-width="0.5" stroke-linecap="round" stroke-linejoin="round" d="M38.629,460.054
				l0.078,0.368l0.057,0.128l0.036,0.042l-0.007,7.385"/>
			<path fill="none" stroke="#000000" stroke-width="0.5" stroke-linecap="round" stroke-linejoin="round" d="M38.799,460.592
				l0.029,0.029l0.064,0.036l0.141,0.014l0.078-0.022l0.078-0.071l0.007,7.392l0.057-0.035l0.029-0.043l0.029-0.071l0.014-7.767"/>
			<path fill="none" stroke="#000000" stroke-width="0.5" stroke-linecap="round" stroke-linejoin="round" d="M39.84,458.878
				l-0.404-32.379l0.014,0.531l0.425,30.962L39.84,458.878l-0.695,0.022l-0.092-0.886h-0.212"/>
			<path fill="none" stroke="#000000" stroke-width="0.5" stroke-linecap="round" stroke-linejoin="round" d="M38.65,421.729
				l-0.149,0.085l-0.078,0.092l-0.022,0.107l0.036,0.099"/>
			<path fill="none" stroke="#000000" stroke-width="0.5" stroke-linecap="round" stroke-linejoin="round" d="M39.437,422.133
				l0.057-0.099l-0.007-0.099l-0.071-0.099l-0.113-0.078"/>
			<path fill="none" stroke="#000000" stroke-width="0.5" stroke-linecap="round" stroke-linejoin="round" d="M39.196,467.97
				l-0.078,0.029l-0.078,0.007"/>
			<path fill="none" stroke="#000000" stroke-width="0.5" stroke-linecap="round" stroke-linejoin="round" d="M39.309,467.821
				l0.525-0.022l-0.029-7.76l-0.482,0.014"/>
			<path fill="none" stroke="#000000" stroke-width="0.5" stroke-linecap="round" stroke-linejoin="round" d="M39.146,458.899
				l-0.071-32.393l-0.014,0.851l-0.007,30.657"/>
			<path fill="none" stroke="#000000" stroke-width="0.5" stroke-linecap="round" stroke-linejoin="round" d="M39.876,457.992
				l0.212-0.014l-0.411-30.65l0.007-0.844l0.553,32.372l0.688-0.064l-0.362-13.153l0.007,0.099"/>
			<path fill="none" stroke="#000000" stroke-width="0.5" stroke-linecap="round" stroke-linejoin="round" d="M40.4,467.921
				l-0.007-7.392"/>
			<path fill="none" stroke="#000000" stroke-width="0.5" stroke-linecap="round" stroke-linejoin="round" d="M40.492,459.99
				l0.475-0.042l0.036,7.767l-0.525,0.049L40.492,459.99"/>
			<path fill="none" stroke="#000000" stroke-width="0.5" stroke-linecap="round" stroke-linejoin="round" d="M40.393,460.529
				l-0.014,0.022l-0.057,0.049l-0.078,0.029h-0.141l-0.071-0.036l-0.029-0.029v7.384l0.071,0.014l0.078,0.007"/>
			<path fill="none" stroke="#000000" stroke-width="0.5" stroke-linecap="round" stroke-linejoin="round" d="M40.003,467.949
				l-0.064-0.029l-0.107-0.121"/>
			<path fill="none" stroke="#000000" stroke-width="0.5" stroke-linecap="round" stroke-linejoin="round" d="M40.478,467.765
				l-0.007,0.071"/>
			<path fill="none" stroke="#000000" stroke-width="0.5" stroke-linecap="round" stroke-linejoin="round" d="M40.237,458.856
				l-0.149-0.879"/>
			<path fill="none" stroke="#000000" stroke-width="0.5" stroke-linecap="round" stroke-linejoin="round" d="M40.507,443.344
				l-0.042-1.538l0.099,3.834"/>
			<path fill="none" stroke="#000000" stroke-width="0.5" stroke-linecap="round" stroke-linejoin="round" d="M40.464,441.806
				l-0.206-7.668l0.021,0.766"/>
			<path fill="none" stroke="#000000" stroke-width="0.5" stroke-linecap="round" stroke-linejoin="round" d="M40.259,434.138
				l-0.192-7.158l-0.029-0.518l0.156,5.372"/>
			<path fill="none" stroke="#000000" stroke-width="0.5" stroke-linecap="round" stroke-linejoin="round" d="M41.109,457.878
				l-0.822-30.926v-0.489l1.028,32.28L41.109,457.878l-0.206,0.022"/>
			<path fill="none" stroke="#000000" stroke-width="0.5" stroke-linecap="round" stroke-linejoin="round" d="M40.287,426.463
				v-0.042"/>
			<path fill="none" stroke="#000000" stroke-width="0.5" stroke-linecap="round" stroke-linejoin="round" d="M40.039,426.463
				v-0.014"/>
			<path fill="none" stroke="#000000" stroke-width="0.5" stroke-linecap="round" stroke-linejoin="round" d="M45.248,482.526
				l3.487-1.248l-1.722,0.844l-1.765,0.617v-12.997l-4.181,0.588l0.049,0.184"/>
			<path fill="none" stroke="#000000" stroke-width="0.5" stroke-linecap="round" stroke-linejoin="round" d="M41.201,467.85v-7.384
				l0.029,0.029l0.071,0.029l0.141-0.014l0.071-0.029l0.057-0.05l0.014-0.029v7.399"/>
			<path fill="none" stroke="#000000" stroke-width="0.5" stroke-linecap="round" stroke-linejoin="round" d="M41.003,467.715
				l0.078,0.078"/>
			<path fill="none" stroke="#000000" stroke-width="0.5" stroke-linecap="round" stroke-linejoin="round" d="M41.315,458.743
				l0.673-0.099L40.896,432.6l0.014,0.39"/>
			<path fill="none" stroke="#000000" stroke-width="0.5" stroke-linecap="round" stroke-linejoin="round" d="M41.952,457.744
				l0.156-0.029l-1.219-30.551l-0.014-0.702l1.496,32.11l0.652-0.149l-1.673-29.658v0.007"/>
			<path fill="none" stroke="#000000" stroke-width="0.5" stroke-linecap="round" stroke-linejoin="round" d="M40.896,432.6
				l-0.12-3.069l0.029,0.766"/>
			<path fill="none" stroke="#000000" stroke-width="0.5" stroke-linecap="round" stroke-linejoin="round" d="M40.733,428.767
				l0.042,0.766l-0.092-2.325l-0.042-0.744L40.733,428.767"/>
			<path fill="none" stroke="#000000" stroke-width="0.5" stroke-linecap="round" stroke-linejoin="round" d="M41.208,426.201
				l0.036,0.567l0.107,1.999l-0.042-0.766"/>
			<path fill="none" stroke="#000000" stroke-width="0.5" stroke-linecap="round" stroke-linejoin="round" d="M41.222,426.477
				l0.049,0.786"/>
			<path fill="none" stroke="#000000" stroke-width="0.5" stroke-linecap="round" stroke-linejoin="round" d="M40.875,426.463
				v-0.106"/>
			<path fill="none" stroke="#000000" stroke-width="0.5" stroke-linecap="round" stroke-linejoin="round" d="M40.634,426.364
				l0.007,0.099"/>
			<path fill="none" stroke="#000000" stroke-width="0.5" stroke-linecap="round" stroke-linejoin="round" d="M41.64,465.887v1.822"
				/>
			<path fill="none" stroke="#000000" stroke-width="0.5" stroke-linecap="round" stroke-linejoin="round" d="M41.64,467.637
				l0.51-0.085l0.092,0.071"/>
			<path fill="none" stroke="#000000" stroke-width="0.5" stroke-linecap="round" stroke-linejoin="round" d="M41.64,465.887v-5.67
				l-0.021,0.113l-0.036,0.071"/>
			<path fill="none" stroke="#000000" stroke-width="0.5" stroke-linecap="round" stroke-linejoin="round" d="M41.64,460.217v-0.354
				l0.468-0.071"/>
			<path fill="none" stroke="#000000" stroke-width="0.5" stroke-linecap="round" stroke-linejoin="round" d="M42.37,460.288v7.392"
				/>
			<path fill="none" stroke="#000000" stroke-width="0.5" stroke-linecap="round" stroke-linejoin="round" d="M43.072,457.496
				L41.47,427.03l-0.014-0.567l1.928,31.869L43.072,457.496l-0.107,0.021"/>
			<path fill="none" stroke="#000000" stroke-width="0.5" stroke-linecap="round" stroke-linejoin="round" d="M43.384,458.332
				L44,458.147l-2.211-31.684l0.057,0.808"/>
			<path fill="none" stroke="#000000" stroke-width="0.5" stroke-linecap="round" stroke-linejoin="round" d="M41.456,426.463
				l-0.014-0.234"/>
			<path fill="none" stroke="#000000" stroke-width="0.5" stroke-linecap="round" stroke-linejoin="round" d="M43.986,457.219
				l-1.985-30.671l-0.029-0.525l2.374,32.01L43.986,457.219l-0.05,0.014"/>
			<path fill="none" stroke="#000000" stroke-width="0.5" stroke-linecap="round" stroke-linejoin="round" d="M41.789,426.463
				l-0.036-0.425"/>
			<path fill="none" stroke="#000000" stroke-width="0.5" stroke-linecap="round" stroke-linejoin="round" d="M42.746,467.602
				l-0.007-7.385l-0.057,0.071l-0.071,0.035l-0.141,0.022l-0.064-0.029l-0.036-0.029"/>
			<path fill="none" stroke="#000000" stroke-width="0.5" stroke-linecap="round" stroke-linejoin="round" d="M42.151,467.552
				l-0.042-7.76"/>
			<path fill="none" stroke="#000000" stroke-width="0.5" stroke-linecap="round" stroke-linejoin="round" d="M42.781,467.552
				v-7.576l-0.021-0.305l0.454-0.107l0.049,7.76l0.107,0.064"/>
			<path fill="none" stroke="#000000" stroke-width="0.5" stroke-linecap="round" stroke-linejoin="round" d="M42.739,460.217
				l0.036-0.085l0.007-0.156"/>
			<path fill="none" stroke="#000000" stroke-width="0.5" stroke-linecap="round" stroke-linejoin="round" d="M42.37,458.573
				l-0.262-0.858"/>
			<path fill="none" stroke="#000000" stroke-width="0.5" stroke-linecap="round" stroke-linejoin="round" d="M44.752,455.618
				l-2.424-29.155l0.064,0.723"/>
			<path fill="none" stroke="#000000" stroke-width="0.5" stroke-linecap="round" stroke-linejoin="round" d="M44.858,456.9
				l0.397,0.78l-2.771-31.855l0.049,0.836l2.218,28.956"/>
			<path fill="none" stroke="#000000" stroke-width="0.5" stroke-linecap="round" stroke-linejoin="round" d="M42.328,426.463
				l-0.05-0.56L42.328,426.463"/>
			<path fill="none" stroke="#000000" stroke-width="0.5" stroke-linecap="round" stroke-linejoin="round" d="M42.845,426.512
				l-0.078-0.815l3.026,31.727l-0.539,0.255"/>
			<path fill="none" stroke="#000000" stroke-width="0.5" stroke-linecap="round" stroke-linejoin="round" d="M43.1,422.941
				l-0.432,0.482l-0.56,0.397"/>
			<path fill="none" stroke="#000000" stroke-width="0.5" stroke-linecap="round" stroke-linejoin="round" d="M43.504,460.047v7.392
				"/>
			<path fill="none" stroke="#000000" stroke-width="0.5" stroke-linecap="round" stroke-linejoin="round" d="M43.263,467.325
				l-0.482,0.107"/>
			<path fill="none" stroke="#000000" stroke-width="0.5" stroke-linecap="round" stroke-linejoin="round" d="M43.504,460.047
				l0.036,0.029l0.057,0.021"/>
			<path fill="none" stroke="#000000" stroke-width="0.5" stroke-linecap="round" stroke-linejoin="round" d="M43.809,460.033
				l0.049-0.085v7.392"/>
			<path fill="none" stroke="#000000" stroke-width="0.5" stroke-linecap="round" stroke-linejoin="round" d="M44.964,448.708
				l-1.977-22.592l-0.029-0.418l3.133,31.578l-0.369-0.645"/>
			<path fill="none" stroke="#000000" stroke-width="0.5" stroke-linecap="round" stroke-linejoin="round" d="M46.091,457.276
				l0.496-0.284l-3.352-31.295l0.085,0.815"/>
			<path fill="none" stroke="#000000" stroke-width="0.5" stroke-linecap="round" stroke-linejoin="round" d="M45.148,443.585
				l-1.779-18.248l3.48,31.479l-0.34-0.525"/>
			<path fill="none" stroke="#000000" stroke-width="0.5" stroke-linecap="round" stroke-linejoin="round" d="M43.207,425.442
				l0.029,0.255"/>
			<path fill="none" stroke="#000000" stroke-width="0.5" stroke-linecap="round" stroke-linejoin="round" d="M42.952,425.591
				l0.007,0.107"/>
			<path fill="none" stroke="#000000" stroke-width="0.5" stroke-linecap="round" stroke-linejoin="round" d="M43.285,422.53
				l-0.227,0.454"/>
			<path fill="none" stroke="#000000" stroke-width="0.5" stroke-linecap="round" stroke-linejoin="round" d="M43.348,422.062
				l-0.064,0.467"/>
			<path fill="none" stroke="#000000" stroke-width="0.5" stroke-linecap="round" stroke-linejoin="round" d="M43.887,467.29
				l-0.007-7.42l-0.021,0.078"/>
			<path fill="none" stroke="#000000" stroke-width="0.5" stroke-linecap="round" stroke-linejoin="round" d="M44.44,467.091
				l-0.113-0.057l-0.057-7.753"/>
			<path fill="none" stroke="#000000" stroke-width="0.5" stroke-linecap="round" stroke-linejoin="round" d="M44.589,459.742v7.384
				"/>
			<path fill="none" stroke="#000000" stroke-width="0.5" stroke-linecap="round" stroke-linejoin="round" d="M43.88,459.87v-0.156
				l-0.036-0.312l0.425-0.121"/>
			<path fill="none" stroke="#000000" stroke-width="0.5" stroke-linecap="round" stroke-linejoin="round" d="M43.887,460.217
				l-0.007-0.347"/>
			<path fill="none" stroke="#000000" stroke-width="0.5" stroke-linecap="round" stroke-linejoin="round" d="M46.849,456.815
				l0.44-0.312l-3.629-30.806l0.085,0.716"/>
			<path fill="none" stroke="#000000" stroke-width="0.5" stroke-linecap="round" stroke-linejoin="round" d="M45.262,439.29
				l-1.432-13.408l-0.085-0.822l3.777,31.259l-0.305-0.425"/>
			<path fill="none" stroke="#000000" stroke-width="0.5" stroke-linecap="round" stroke-linejoin="round" d="M47.522,456.319
				l0.383-0.34l-3.955-31.033"/>
			<path fill="none" stroke="#000000" stroke-width="0.5" stroke-linecap="round" stroke-linejoin="round" d="M45.382,436.151
				l-1.262-10.878l-0.029-0.34l4.011,30.848l-0.27-0.333"/>
			<path fill="none" stroke="#000000" stroke-width="0.5" stroke-linecap="round" stroke-linejoin="round" d="M43.696,425.988
				l0.007,0.029"/>
			<path fill="none" stroke="#000000" stroke-width="0.5" stroke-linecap="round" stroke-linejoin="round" d="M43.66,425.698
				l-0.071-0.617"/>
			<path fill="none" stroke="#000000" stroke-width="0.5" stroke-linecap="round" stroke-linejoin="round" d="M44.092,424.932
				l-0.021-0.17"/>
			<path fill="none" stroke="#000000" stroke-width="0.5" stroke-linecap="round" stroke-linejoin="round" d="M44.22,424.457
				l4.203,30.969l-0.319,0.355"/>
			<path fill="none" stroke="#000000" stroke-width="0.5" stroke-linecap="round" stroke-linejoin="round" d="M44.929,467.006
				l-0.007-7.392l0.021-0.078v7.427"/>
			<path fill="none" stroke="#000000" stroke-width="0.5" stroke-linecap="round" stroke-linejoin="round" d="M44.922,459.615
				l-0.042,0.092l-0.064,0.043l-0.128,0.029l-0.064-0.014l-0.036-0.022"/>
			<path fill="none" stroke="#000000" stroke-width="0.5" stroke-linecap="round" stroke-linejoin="round" d="M45.46,466.73
				l-0.128-0.049l-0.064-7.753l-0.404,0.149l0.064,0.305l0.014,0.156"/>
			<path fill="none" stroke="#000000" stroke-width="0.5" stroke-linecap="round" stroke-linejoin="round" d="M44.348,458.034
				l0.588-0.219l-0.184-2.162"/>
			<path fill="none" stroke="#000000" stroke-width="0.5" stroke-linecap="round" stroke-linejoin="round" d="M44.971,448.779
				l-0.007-0.071"/>
			<path fill="none" stroke="#000000" stroke-width="0.5" stroke-linecap="round" stroke-linejoin="round" d="M45.396,433.153
				l-1.063-8.71l4.245,30.77l0.255-0.376l-3.501-24.541l0.05,0.369"/>
			<path fill="none" stroke="#000000" stroke-width="0.5" stroke-linecap="round" stroke-linejoin="round" d="M48.77,454.427
				l0.184,0.191l-4.401-30.459l0.78,6.137l-0.865-6.052v0.022"/>
			<path fill="none" stroke="#000000" stroke-width="0.5" stroke-linecap="round" stroke-linejoin="round" d="M45.311,428.469
				l-0.624-4.706l4.529,30.246l-0.135-0.142"/>
			<path fill="none" stroke="#000000" stroke-width="0.5" stroke-linecap="round" stroke-linejoin="round" d="M48.954,454.618
				l0.177-0.39l-4.514-30.451"/>
			<path fill="none" stroke="#000000" stroke-width="0.5" stroke-linecap="round" stroke-linejoin="round" d="M49.28,453.293
				l0.085,0.085l-4.592-29.962l0.397,2.934"/>
			<path fill="none" stroke="#000000" stroke-width="0.5" stroke-linecap="round" stroke-linejoin="round" d="M44.801,423.061
				l4.564,29.282l0.042,0.404l-4.564-29.353l0.099,0.787"/>
			<path fill="none" stroke="#000000" stroke-width="0.5" stroke-linecap="round" stroke-linejoin="round" d="M49.216,454.009
				l0.107-0.397l-4.578-30.047l0.007,0.057"/>
			<path fill="none" stroke="#000000" stroke-width="0.5" stroke-linecap="round" stroke-linejoin="round" d="M44.631,422.119
				l0.156,1.091l4.621,29.771l-0.042,0.397"/>
			<path fill="none" stroke="#000000" stroke-width="0.5" stroke-linecap="round" stroke-linejoin="round" d="M44.844,423.394
				l-0.057-0.333"/>
			<path fill="none" stroke="#000000" stroke-width="0.5" stroke-linecap="round" stroke-linejoin="round" d="M44.553,424.16
				l-0.014-0.049"/>
			<path fill="none" stroke="#000000" stroke-width="0.5" stroke-linecap="round" stroke-linejoin="round" d="M45.248,469.742
				l-0.141-0.163l3.65-1.311v12.997l1.481-1.007l1.056-0.999l-2.537,1.729"/>
			<path fill="none" stroke="#000000" stroke-width="0.5" stroke-linecap="round" stroke-linejoin="round" d="M45.609,466.758
				v-7.392"/>
			<path fill="none" stroke="#000000" stroke-width="0.5" stroke-linecap="round" stroke-linejoin="round" d="M45.333,466.68
				l-0.39,0.149"/>
			<path fill="none" stroke="#000000" stroke-width="0.5" stroke-linecap="round" stroke-linejoin="round" d="M46.7,466.291
				l-0.872,0.404l0.057-0.035l0.036-0.043l0.007-0.049l0.007-7.42l-0.014,0.078v7.392"/>
			<path fill="none" stroke="#000000" stroke-width="0.5" stroke-linecap="round" stroke-linejoin="round" d="M45.609,459.367
				l0.036,0.022l0.064,0.014l0.12-0.043l0.057-0.043l0.036-0.092"/>
			<path fill="none" stroke="#000000" stroke-width="0.5" stroke-linecap="round" stroke-linejoin="round" d="M46.403,466.305
				l-0.135-0.042l-0.064-7.746l-0.376,0.177l0.078,0.297l0.029,0.156"/>
			<path fill="none" stroke="#000000" stroke-width="0.5" stroke-linecap="round" stroke-linejoin="round" d="M46.559,466.326
				v-7.392"/>
			<path fill="none" stroke="#000000" stroke-width="0.5" stroke-linecap="round" stroke-linejoin="round" d="M46.268,466.262
				l-0.34,0.163"/>
			<path fill="none" stroke="#000000" stroke-width="0.5" stroke-linecap="round" stroke-linejoin="round" d="M46.559,458.934
				l0.036,0.021l0.049,0.007"/>
			<path fill="none" stroke="#000000" stroke-width="0.5" stroke-linecap="round" stroke-linejoin="round" d="M46.814,458.87
				l0.029-0.099v7.399"/>
			<path fill="none" stroke="#000000" stroke-width="0.5" stroke-linecap="round" stroke-linejoin="round" d="M46.715,458.247
				l0.34-0.199l0.071,7.746l0.142,0.035"/>
			<path fill="none" stroke="#000000" stroke-width="0.5" stroke-linecap="round" stroke-linejoin="round" d="M47.126,465.794
				l-0.283,0.163"/>
			<path fill="none" stroke="#000000" stroke-width="0.5" stroke-linecap="round" stroke-linejoin="round" d="M46.849,459.452
				v-0.759"/>
			<path fill="none" stroke="#000000" stroke-width="0.5" stroke-linecap="round" stroke-linejoin="round" d="M47.423,465.837
				v-7.384"/>
			<path fill="none" stroke="#000000" stroke-width="0.5" stroke-linecap="round" stroke-linejoin="round" d="M48.04,465.306
				l-0.149-0.029l-0.078-7.739l-0.298,0.212"/>
			<path fill="none" stroke="#000000" stroke-width="0.5" stroke-linecap="round" stroke-linejoin="round" d="M47.678,458.268v7.399
				l-0.014,0.043l-0.049,0.042l0.751-0.538"/>
			<path fill="none" stroke="#000000" stroke-width="0.5" stroke-linecap="round" stroke-linejoin="round" d="M47.891,465.277
				l-0.212,0.149"/>
			<path fill="none" stroke="#000000" stroke-width="0.5" stroke-linecap="round" stroke-linejoin="round" d="M47.678,458.304
				l-0.021,0.064l-0.029,0.035l-0.071,0.049l-0.049,0.022l-0.049-0.007l-0.036-0.014"/>
			<path fill="none" stroke="#000000" stroke-width="0.5" stroke-linecap="round" stroke-linejoin="round" d="M48.196,457.914v7.392
				"/>
			<path fill="none" stroke="#000000" stroke-width="0.5" stroke-linecap="round" stroke-linejoin="round" d="M48.755,468.268
				l-0.22-0.128l2.771-1.899v12.997l0.107-0.113l0.829-1.233l0.397-1.014l-1.333,1.885"/>
			<path fill="none" stroke="#000000" stroke-width="0.5" stroke-linecap="round" stroke-linejoin="round" d="M48.415,457.772
				l0.007,7.342l-0.014,0.049l-0.036,0.042l0.61-0.546"/>
			<path fill="none" stroke="#000000" stroke-width="0.5" stroke-linecap="round" stroke-linejoin="round" d="M48.564,464.71
				l-0.085-7.732l-0.255,0.234"/>
			<path fill="none" stroke="#000000" stroke-width="0.5" stroke-linecap="round" stroke-linejoin="round" d="M48.408,457.815
				l-0.021,0.042l-0.071,0.057l-0.042,0.014l-0.078-0.014"/>
			<path fill="none" stroke="#000000" stroke-width="0.5" stroke-linecap="round" stroke-linejoin="round" d="M48.862,464.724
				v-7.384"/>
			<path fill="none" stroke="#000000" stroke-width="0.5" stroke-linecap="round" stroke-linejoin="round" d="M48.564,464.71
				l-0.141,0.128"/>
			<path fill="none" stroke="#000000" stroke-width="0.5" stroke-linecap="round" stroke-linejoin="round" d="M48.422,457.914
				v-0.163"/>
			<path fill="none" stroke="#000000" stroke-width="0.5" stroke-linecap="round" stroke-linejoin="round" d="M48.862,457.34
				l0.071,0.007l0.049-0.021l0.057-0.057l0.014-0.042l0.007-0.071l0.064,6.959l0.149,0.007"/>
			<path fill="none" stroke="#000000" stroke-width="0.5" stroke-linecap="round" stroke-linejoin="round" d="M49.429,464.107
				v-7.392"/>
			<path fill="none" stroke="#000000" stroke-width="0.5" stroke-linecap="round" stroke-linejoin="round" d="M49.046,456.383
				l-0.22,0.248"/>
			<path fill="none" stroke="#000000" stroke-width="0.5" stroke-linecap="round" stroke-linejoin="round" d="M48.578,455.214
				l-0.227-0.262"/>
			<path fill="none" stroke="#000000" stroke-width="0.5" stroke-linecap="round" stroke-linejoin="round" d="M49.124,464.115
				l-0.071,0.078"/>
			<path fill="none" stroke="#000000" stroke-width="0.5" stroke-linecap="round" stroke-linejoin="round" d="M49.025,464.618
				l0.546-0.624"/>
			<path fill="none" stroke="#000000" stroke-width="0.5" stroke-linecap="round" stroke-linejoin="round" d="M49.053,464.568
				v-2.814"/>
			<path fill="none" stroke="#000000" stroke-width="0.5" stroke-linecap="round" stroke-linejoin="round" d="M49.592,463.484h0.135
				"/>
			<path fill="none" stroke="#000000" stroke-width="0.5" stroke-linecap="round" stroke-linejoin="round" d="M49.322,456.022
				l0.17-0.262l0.007,0.553"/>
			<path fill="none" stroke="#000000" stroke-width="0.5" stroke-linecap="round" stroke-linejoin="round" d="M49.06,461.684v-4.344
				"/>
			<path fill="none" stroke="#000000" stroke-width="0.5" stroke-linecap="round" stroke-linejoin="round" d="M49.592,456.596
				l-0.021,0.056l-0.064,0.071l-0.049,0.007l-0.029-0.014"/>
			<path fill="none" stroke="#000000" stroke-width="0.5" stroke-linecap="round" stroke-linejoin="round" d="M49.053,457.113
				l-0.007-0.73"/>
			<path fill="none" stroke="#000000" stroke-width="0.5" stroke-linecap="round" stroke-linejoin="round" d="M49.875,456.071v7.384
				"/>
			<path fill="none" stroke="#000000" stroke-width="0.5" stroke-linecap="round" stroke-linejoin="round" d="M49.407,452.748
				l-0.042-0.035"/>
			<path fill="none" stroke="#000000" stroke-width="0.5" stroke-linecap="round" stroke-linejoin="round" d="M49.188,451.189
				l0.277,0.191l0.433,0.858l0.141,0.461"/>
			<path fill="none" stroke="#000000" stroke-width="0.5" stroke-linecap="round" stroke-linejoin="round" d="M50.47,453.315
				l-0.036,0.007v0.397"/>
			<path fill="none" stroke="#000000" stroke-width="0.5" stroke-linecap="round" stroke-linejoin="round" d="M50.251,462.754
				l0.029-0.042"/>
			<path fill="none" stroke="#000000" stroke-width="0.5" stroke-linecap="round" stroke-linejoin="round" d="M50.201,462.789
				v-7.391l-0.029-0.007l-0.099-0.064l-0.248-0.212l-0.121,0.27"/>
			<path fill="none" stroke="#000000" stroke-width="0.5" stroke-linecap="round" stroke-linejoin="round" d="M50.003,455.979
				l-0.036,0.071l-0.029,0.021l-0.036,0.007l-0.029-0.007"/>
			<path fill="none" stroke="#000000" stroke-width="0.5" stroke-linecap="round" stroke-linejoin="round" d="M50.3,462.655v-0.135
				V462.655l0.17-0.638l-0.021,0.042l-0.042,0.043l-0.107,0.035"/>
			<path fill="none" stroke="#000000" stroke-width="0.5" stroke-linecap="round" stroke-linejoin="round" d="M50.01,455.937v7.349"
				/>
			<path fill="none" stroke="#000000" stroke-width="0.5" stroke-linecap="round" stroke-linejoin="round" d="M50.407,462.102
				v-7.392l-0.029-0.007l-0.092-0.056l-0.241-0.199l-0.078,0.277"/>
			<path fill="none" stroke="#000000" stroke-width="0.5" stroke-linecap="round" stroke-linejoin="round" d="M50.3,455.306
				l-0.021,0.064l-0.021,0.029h-0.057"/>
			<path fill="none" stroke="#000000" stroke-width="0.5" stroke-linecap="round" stroke-linejoin="round" d="M50.3,462.194v0.326
				v-0.766V462.194"/>
			<path fill="none" stroke="#000000" stroke-width="0.5" stroke-linecap="round" stroke-linejoin="round" d="M50.3,462.52v-7.214"
				/>
			<path fill="none" stroke="#000000" stroke-width="0.5" stroke-linecap="round" stroke-linejoin="round" d="M50.3,455.618v-0.099"
				/>
			<path fill="none" stroke="#000000" stroke-width="0.5" stroke-linecap="round" stroke-linejoin="round" d="M49.826,455.115
				l0.007,0.453"/>
			<path fill="none" stroke="#000000" stroke-width="0.5" stroke-linecap="round" stroke-linejoin="round" d="M50.478,461.96
				l0.007-7.944l-0.107-0.057l-0.241-0.185l0.007,0.312"/>
			<path fill="none" stroke="#000000" stroke-width="0.5" stroke-linecap="round" stroke-linejoin="round" d="M50.47,454.682
				l-0.014,0.022l-0.029,0.014l-0.021-0.007"/>
			<path fill="none" stroke="#000000" stroke-width="0.5" stroke-linecap="round" stroke-linejoin="round" d="M50.144,454.087
				l-0.029-0.035l0.021-0.277"/>
			<path fill="none" stroke="#000000" stroke-width="0.5" stroke-linecap="round" stroke-linejoin="round" d="M50.045,454.824
				v-0.375"/>
			<path fill="none" stroke="#000000" stroke-width="0.5" stroke-linecap="round" stroke-linejoin="round" d="M50.435,453.322
				l-0.099-0.049l-0.227-0.177l0.029,0.284"/>
			<path fill="none" stroke="#000000" stroke-width="0.5" stroke-linecap="round" stroke-linejoin="round" d="M50.534,453.924v7.392
				l-0.029,1.708"/>
			<path fill="none" stroke="#000000" stroke-width="0.5" stroke-linecap="round" stroke-linejoin="round" d="M50.534,461.11
				l0.999-0.574l0.206,0.475l0.355-0.206l0.248,0.574l0.312-0.029v0.014l-0.312,2.459l0.312,0.029l-1.623,2.303l0.277,0.085"/>
			<path fill="none" stroke="#000000" stroke-width="0.5" stroke-linecap="round" stroke-linejoin="round" d="M50.485,460.982v0.418
				"/>
			<path fill="none" stroke="#000000" stroke-width="0.5" stroke-linecap="round" stroke-linejoin="round" d="M50.485,454.817
				v-0.206"/>
			<path fill="none" stroke="#000000" stroke-width="0.5" stroke-linecap="round" stroke-linejoin="round" d="M50.485,454.016h0.021
				l0.021-0.007l0.007-0.029"/>
			<path fill="none" stroke="#000000" stroke-width="0.5" stroke-linecap="round" stroke-linejoin="round" d="M50.47,453.775v-0.46"
				/>
			<path fill="none" stroke="#000000" stroke-width="0.5" stroke-linecap="round" stroke-linejoin="round" d="M52.653,474.369v-0.34
				v2.828"/>
			<path fill="none" stroke="#000000" stroke-width="0.5" stroke-linecap="round" stroke-linejoin="round" d="M52.653,474.369v0.035
				"/>
			<path fill="none" stroke="#000000" stroke-width="0.5" stroke-linecap="round" stroke-linejoin="round" d="M52.653,474.029
				v-6.137v0.156"/>
			<path fill="none" stroke="#000000" stroke-width="0.5" stroke-linecap="round" stroke-linejoin="round" d="M52.653,467.892
				v-3.841v-0.199"/>
			<path fill="none" stroke="#000000" stroke-width="0.5" stroke-linecap="round" stroke-linejoin="round" d="M52.653,464.051
				v-2.686"/>
			<path fill="none" stroke="#000000" stroke-width="0.5" stroke-linecap="round" stroke-linejoin="round" d="M52.653,461.365v0.39"
				/>
			<path fill="none" stroke="#000000" stroke-width="0.5" stroke-linecap="round" stroke-linejoin="round" d="M52.809,476.857
				v-1.588"/>
			<path fill="none" stroke="#000000" stroke-width="0.5" stroke-linecap="round" stroke-linejoin="round" d="M44.326,467.035
				l-0.44,0.128"/>
			<path fill="none" stroke="#000000" stroke-width="0.5" stroke-linecap="round" stroke-linejoin="round" d="M27.424,462.01
				l-0.064-0.546v-0.099l0.014,0.049l0.049,0.049"/>
			<path fill="none" stroke="#000000" stroke-width="0.5" stroke-linecap="round" stroke-linejoin="round" d="M37.729,467.97
				l1.304,0.036"/>
			<path fill="none" stroke="#000000" stroke-width="0.5" stroke-linecap="round" stroke-linejoin="round" d="M41.35,467.857
				l-1.198,0.113"/>
			<path fill="none" stroke="#000000" stroke-width="0.5" stroke-linecap="round" stroke-linejoin="round" d="M43.738,467.41
				l-1.127,0.255"/>
			<path fill="none" stroke="#000000" stroke-width="0.5" stroke-linecap="round" stroke-linejoin="round" d="M43.738,467.403
				l0.999-0.291"/>
			<path fill="none" stroke="#000000" stroke-width="0.5" stroke-linecap="round" stroke-linejoin="round" d="M45.758,466.73
				l-0.943,0.355l0.064-0.036l0.049-0.042l0.014-0.043"/>
			<path fill="none" stroke="#000000" stroke-width="0.5" stroke-linecap="round" stroke-linejoin="round" d="M49.57,463.994
				l0.425-0.652"/>
			<path fill="none" stroke="#000000" stroke-width="0.5" stroke-linecap="round" stroke-linejoin="round" d="M50.01,463.285
				l-0.014,0.049l0.192-0.383l0.092-0.241"/>
			<path fill="none" stroke="#000000" stroke-width="0.5" stroke-linecap="round" stroke-linejoin="round" d="M50.478,461.407
				l0.042-0.042l0.014-0.049l-0.029,0.447l-0.029,0.199"/>
			<path fill="none" stroke="#000000" stroke-width="0.5" stroke-linecap="round" stroke-linejoin="round" d="M49.932,463.427
				l0.042-0.049"/>
			<path fill="none" stroke="#000000" stroke-width="0.5" stroke-linecap="round" stroke-linejoin="round" d="M49.57,463.994
				l0.021-0.049"/>
			<path fill="none" stroke="#000000" stroke-width="0.5" stroke-linecap="round" stroke-linejoin="round" d="M49.025,464.618
				l0.029-0.049v-0.05"/>
			<path fill="none" stroke="#000000" stroke-width="0.5" stroke-linecap="round" stroke-linejoin="round" d="M46.842,466.17
				l-0.021,0.043l-0.049,0.042"/>
			<path fill="none" stroke="#000000" stroke-width="0.5" stroke-linecap="round" stroke-linejoin="round" d="M42.611,467.665
				l0.078-0.029l0.057-0.036l0.029-0.042l0.007-0.049"/>
			<path fill="none" stroke="#000000" stroke-width="0.5" stroke-linecap="round" stroke-linejoin="round" d="M43.724,467.41
				l0.085-0.029l0.049-0.042l0.029-0.049"/>
			<path fill="none" stroke="#000000" stroke-width="0.5" stroke-linecap="round" stroke-linejoin="round" d="M41.449,467.85
				l0.071-0.022l0.064-0.029l0.042-0.042l0.014-0.049"/>
			<path fill="none" stroke="#000000" stroke-width="0.5" stroke-linecap="round" stroke-linejoin="round" d="M50.534,459.48
				l0.113,0.142l0.645,1.056"/>
			<path fill="none" stroke="#000000" stroke-width="0.5" stroke-linecap="round" stroke-linejoin="round" d="M38.707,467.906
				l0.036,0.042"/>
			<path fill="none" stroke="#000000" stroke-width="0.5" stroke-linecap="round" stroke-linejoin="round" d="M38.048,467.921
				l0.042-0.049"/>
			<path fill="none" stroke="#000000" stroke-width="0.5" stroke-linecap="round" stroke-linejoin="round" d="M29.388,468.303
				l0.049-0.156l0.107-0.092l0.128-0.021"/>
			<path fill="none" stroke="#000000" stroke-width="0.5" stroke-linecap="round" stroke-linejoin="round" d="M27.453,462.109
				l-0.021-0.043"/>
			<path fill="none" stroke="#000000" stroke-width="0.5" stroke-linecap="round" stroke-linejoin="round" d="M40.443,467.878
				l0.029-0.042"/>
			<path fill="none" stroke="#000000" stroke-width="0.5" stroke-linecap="round" stroke-linejoin="round" d="M41.442,424.131
				l-1.042-0.333l-0.695-0.113"/>
			<path fill="none" stroke="#000000" stroke-width="0.5" stroke-linecap="round" stroke-linejoin="round" d="M37.48,467.768
				c-5.037-0.382-9.009-2.662-9.7-5.567"/>
			<path fill="none" stroke="#000000" stroke-width="0.5" stroke-linecap="round" stroke-linejoin="round" d="M37.649,467.963
				c-5.371-0.35-9.61-2.797-10.216-5.898"/>
			<path fill="none" stroke="#000000" stroke-width="0.5" stroke-linecap="round" stroke-linejoin="round" d="M40.152,467.969
				c-0.37,0.022-0.741,0.034-1.113,0.036"/>
			<path fill="none" stroke="#000000" stroke-width="0.5" stroke-linecap="round" stroke-linejoin="round" d="M42.52,467.679
				c-0.353,0.066-0.712,0.122-1.074,0.169"/>
			<path fill="none" stroke="#000000" stroke-width="0.5" stroke-linecap="round" stroke-linejoin="round" d="M47.554,465.794
				c-0.249,0.16-0.512,0.312-0.786,0.457"/>
			<path fill="none" stroke="#000000" stroke-width="0.5" stroke-linecap="round" stroke-linejoin="round" d="M52.796,476.662
				c0.465,4.416-5.359,8.213-13.007,8.481c-7.648,0.268-14.225-3.094-14.689-7.51c-0.017-0.161-0.025-0.323-0.025-0.485"/>
			<path fill="none" stroke="#000000" stroke-width="0.5" stroke-linecap="round" stroke-linejoin="round" d="M32.801,476.191
				c-2.383-0.721-4.328-1.845-5.577-3.221"/>
			<path fill="none" stroke="#000000" stroke-width="0.5" stroke-linecap="round" stroke-linejoin="round" d="M39.461,469.978
				c-5.963,0.138-11.299-2.124-12.856-5.451"/>
			<path fill="none" stroke="#000000" stroke-width="0.5" stroke-linecap="round" stroke-linejoin="round" d="M29.672,468.032
				c0.269,0.012,0.607,0.335,0.754,0.72c0.012,0.031,0.023,0.064,0.031,0.095"/>
			<path fill="none" stroke="#000000" stroke-width="0.5" stroke-linecap="round" stroke-linejoin="round" d="M36.465,424.124
				c0.508-0.219,1.096-0.367,1.719-0.435"/>
			<path fill="none" stroke="#000000" stroke-width="0.5" stroke-linecap="round" stroke-linejoin="round" d="M50.509,463.025
				c-0.4,3.687-5.902,6.489-12.288,6.258c-6.108-0.221-10.865-3.146-10.862-6.68"/>
		</g>
	</g>
</g>
</svg>
