<?xml version="1.0" encoding="utf-8"?>
<!-- Generator: Adobe Illustrator 19.0.0, SVG Export Plug-In . SVG Version: 6.00 Build 0)  -->
<svg version="1.0" id="Layer_1" xmlns="http://www.w3.org/2000/svg" xmlns:xlink="http://www.w3.org/1999/xlink" x="0px" y="0px"
	 width="215.8px" height="114.409px" viewBox="-312 240.871 215.8 114.409" enable-background="new -312 240.871 215.8 114.409"
	 xml:space="preserve">
<path id="XMLID_317_" fill="none" stroke="#000000" stroke-width="0.5" stroke-linecap="round" stroke-linejoin="round" d="
	M-189.673,275.303l0.355-0.178l0.799-0.178h0.888l0.888,0.266l0.977,0.444l0.977,0.71l0.977,0.799l0.888,0.977l0.799,1.154
	l0.71,1.154l0.533,1.243l0.444,1.243l0.266,1.243l0.089,1.243l-0.089,1.065l-0.266,0.888l-0.444,0.799l-0.533,0.621l-0.355,0.178
	 M-196.065,279.387l0.178-0.178l0.533-0.621l0.71-0.355l0.799-0.266l0.888,0.089l0.888,0.266l0.977,0.444l0.977,0.621l0.977,0.888
	l0.888,0.977l0.799,1.065l0.71,1.243l0.533,1.243l0.444,1.243l0.178,1.243l0.089,1.154l-0.089,1.065l-0.178,0.977l-0.444,0.799
	l-0.533,0.621l-0.71,0.355l-0.799,0.178h-0.266 M-142.085,250.798l0.355-0.178l0.71-0.089l0.71,0.178l0.888,0.355 M-139.421,251.065
	l0.799,0.621l0.71,0.71l0.71,0.888l0.621,0.977l0.444,1.065l0.355,1.065l0.089,0.977v0.888l-0.266,0.799l-0.355,0.621l-0.355,0.355
	 M-143.416,251.509l0.178-0.089l0.621-0.355h0.621l0.799,0.089l0.888,0.355 M-140.309,251.509l0.799,0.621l0.799,0.71l0.71,0.977
	l0.533,0.977l0.533,1.065l0.266,1.065l0.178,0.977l-0.089,0.977l-0.178,0.799l-0.444,0.533l-0.533,0.444l-0.266,0.178
	 M-142.085,251.597h0.266l0.71,0.089l0.71,0.355 M-140.398,252.041l0.799,0.533l0.71,0.71l0.621,0.888l0.533,0.888l0.444,0.977
	l0.178,0.977l0.089,0.888l-0.089,0.799l-0.178,0.71l-0.178,0.266 M-143.86,251.686l0.355-0.178h0.71l0.799,0.178l0.799,0.355
	 M-141.197,252.041l0.799,0.533l0.71,0.71l0.71,0.888l0.622,0.977l0.444,0.977l0.355,1.065l0.178,1.065v0.888l-0.178,0.799
	l-0.355,0.71l-0.444,0.444h-0.089 M-145.192,252.485l0.178-0.178l0.621-0.266l0.71-0.089l0.71,0.178l0.888,0.355 M-142.085,252.485
	l0.799,0.533l0.71,0.799l0.71,0.799l0.622,1.065l0.533,0.977l0.266,1.065l0.178,1.065v0.888l-0.178,0.799l-0.266,0.71l-0.533,0.444
	l-0.533,0.266 M-143.949,252.574h0.266l0.799,0.089l0.71,0.355 M-142.173,253.018l0.799,0.533l0.71,0.71l0.71,0.888l0.533,0.888
	l0.355,0.977l0.266,1.065l0.089,0.888l-0.089,0.888l-0.266,0.621l-0.089,0.266 M-145.725,252.663l0.355-0.178l0.71-0.089
	l0.799,0.178l0.888,0.355 M-142.973,252.929l0.799,0.621l0.799,0.71l0.71,0.888l0.533,0.977l0.533,1.065l0.355,1.065l0.178,0.977
	v0.977l-0.178,0.888l-0.355,0.621l-0.533,0.533 M-147.057,253.373l0.178-0.178l0.621-0.266l0.71-0.089l0.799,0.178l0.888,0.355
	 M-143.86,253.373l0.799,0.621l0.799,0.71l0.71,0.977l0.621,0.977l0.444,1.065l0.355,1.065l0.178,0.977v0.977l-0.178,0.888
	l-0.355,0.621l-0.444,0.533l-0.533,0.266 M-145.725,253.462h0.266l0.71,0.089l0.799,0.355 M-143.949,253.906l0.799,0.621l0.799,0.71
	l0.621,0.888l0.533,0.977l0.444,0.977l0.266,0.977l0.089,0.977l-0.089,0.888l-0.266,0.71l-0.178,0.266 M-147.501,253.551
	l0.355-0.178h0.71l0.799,0.089l0.888,0.444 M-144.748,253.906l0.799,0.533l0.799,0.799l0.71,0.888l0.621,0.977l0.533,1.065
	l0.355,1.154l0.089,0.977v0.977l-0.089,0.888l-0.355,0.71l-0.533,0.444l-0.089,0.089 M-148.921,254.35l0.266-0.178l0.621-0.266
	l0.71-0.089l0.799,0.178l0.799,0.355 M-145.725,254.35l0.888,0.621l0.799,0.71l0.71,0.977l0.621,0.977l0.533,1.065l0.355,1.065
	l0.178,1.065v0.977l-0.178,0.888l-0.355,0.71l-0.533,0.533l-0.444,0.266 M-147.501,254.35h0.266l0.799,0.178l0.71,0.355
	 M-145.725,254.882l0.799,0.533l0.71,0.71l0.71,0.888l0.533,0.888l0.444,1.065l0.266,0.977l0.178,0.977l-0.089,0.888l-0.178,0.71
	l-0.266,0.444 M-149.365,254.439l0.355-0.089l0.799-0.089l0.799,0.178l0.799,0.355 M-146.613,254.794l0.888,0.621l0.799,0.799
	l0.799,0.888l0.621,1.065l0.444,1.065l0.355,1.065l0.178,1.065v1.065l-0.178,0.799l-0.355,0.71l-0.444,0.533h-0.089
	 M-150.697,255.238l0.266-0.178l0.622-0.266l0.71-0.089l0.799,0.178l0.799,0.444 M-147.501,255.326l0.888,0.533l0.799,0.71
	l0.71,0.977l0.622,0.977l0.533,1.065l0.355,1.065l0.178,1.065l0.089,0.977l-0.089,0.888l-0.355,0.71l-0.444,0.533l-0.533,0.444
	h-0.178 M-149.365,255.326h0.355l0.71,0.089l0.799,0.355 M-147.501,255.77l0.799,0.621l0.799,0.71l0.621,0.888l0.621,0.977
	l0.444,0.977l0.266,1.065l0.178,0.977l-0.089,0.888l-0.178,0.71l-0.266,0.444 M-151.229,255.415l0.533-0.178h0.71l0.799,0.089
	l0.799,0.444 M-148.388,255.77l0.888,0.533l0.799,0.799l0.71,0.888l0.71,0.977l0.444,1.065l0.444,1.154l0.178,1.065v0.977
	l-0.089,0.888l-0.266,0.71l-0.444,0.621l-0.266,0.178 M-152.561,256.125l0.266-0.178l0.621-0.266h0.799l0.799,0.178l0.799,0.355
	 M-149.276,256.214l0.888,0.621l0.799,0.71l0.799,0.977l0.621,0.977l0.533,1.065l0.355,1.065l0.178,1.154l0.089,0.977l-0.178,0.888
	l-0.266,0.799l-0.444,0.533l-0.621,0.355l-0.089,0.089 M-151.141,256.214h0.266l0.799,0.178l0.799,0.355 M-149.276,256.747
	l0.799,0.533l0.799,0.799l0.71,0.888l0.621,0.977l0.444,1.065l0.266,0.977l0.178,1.065l-0.089,0.888l-0.178,0.799l-0.266,0.444
	 M-153.005,256.303l0.444-0.178h0.799l0.799,0.178l0.799,0.355 M-150.164,256.658l0.888,0.621l0.799,0.799l0.799,0.888l0.621,1.065
	l0.533,1.065l0.355,1.065l0.266,1.154v0.977l-0.089,0.888l-0.355,0.799l-0.444,0.533l-0.266,0.266 M-154.337,257.102l0.178-0.178
	l0.71-0.266l0.71-0.089l0.888,0.178l0.799,0.444 M-151.052,257.191l0.888,0.533l0.799,0.799l0.799,0.977l0.621,0.977l0.533,1.154
	l0.444,1.065l0.178,1.154l0.089,0.977l-0.178,0.888l-0.266,0.799l-0.444,0.621l-0.622,0.355h-0.178 M-152.916,257.191h0.266
	l0.799,0.089l0.799,0.444 M-151.052,257.724l0.888,0.533l0.71,0.799l0.71,0.888l0.621,0.977l0.444,1.065l0.355,1.065l0.089,1.065
	v0.888l-0.266,0.799l-0.178,0.444 M-154.87,257.28l0.533-0.178l0.71-0.089l0.888,0.178l0.799,0.444 M-151.94,257.635l0.888,0.621
	l0.888,0.799l0.71,0.888l0.71,1.065l0.533,1.065l0.355,1.154l0.266,1.065v1.065l-0.089,0.977l-0.355,0.71l-0.444,0.621l-0.266,0.178
	 M-156.201,257.99l0.266-0.178l0.622-0.266h0.799l0.799,0.178l0.888,0.355 M-152.828,258.079l0.888,0.621l0.888,0.799l0.71,0.977
	l0.71,0.977l0.533,1.154l0.355,1.154l0.266,1.065v1.065l-0.089,0.977l-0.266,0.71l-0.533,0.621l-0.621,0.444h-0.089
	 M-154.781,258.079h0.355l0.799,0.178l0.799,0.355 M-152.828,258.611l0.799,0.621l0.799,0.71l0.71,0.888l0.622,0.977l0.444,1.065
	l0.355,1.065l0.178,0.977v0.977l-0.178,0.799l-0.355,0.71 M-156.734,258.167l0.621-0.178h0.71l0.888,0.178l0.799,0.355
	 M-153.715,258.523l0.888,0.621l0.799,0.799l0.799,0.888l0.621,0.977l0.621,1.154l0.355,1.065l0.266,1.154l0.089,0.977l-0.089,0.977
	l-0.266,0.799l-0.355,0.621l-0.444,0.444 M-158.066,258.966l0.355-0.266l0.71-0.266h0.71l0.888,0.178l0.799,0.444 M-154.603,259.055
	l0.888,0.533l0.888,0.799l0.71,0.977l0.71,0.977l0.533,1.065l0.444,1.154l0.178,1.154l0.089,0.977l-0.089,0.977l-0.178,0.799
	l-0.444,0.71l-0.533,0.444l-0.355,0.178 M-156.556,259.055h0.355l0.799,0.089l0.799,0.444 M-154.603,259.588l0.888,0.533l0.71,0.799
	l0.799,0.888l0.621,0.977l0.444,1.065l0.355,1.065l0.178,1.065v0.977l-0.178,0.799l-0.355,0.71 M-158.51,259.144l0.533-0.178
	l0.799-0.089l0.888,0.178l0.799,0.444 M-155.491,259.499l0.888,0.621l0.888,0.799l0.71,0.888l0.71,1.065l0.533,1.065l0.444,1.154
	l0.266,1.154l0.089,0.977l-0.089,0.977l-0.266,0.888l-0.444,0.621l-0.444,0.355 M-159.841,259.854l0.266-0.178l0.71-0.266h0.799
	l0.799,0.178l0.888,0.355 M-156.379,259.943l0.888,0.621l0.888,0.799l0.799,0.977l0.622,0.977l0.621,1.154l0.355,1.154l0.266,1.065
	l0.089,1.065l-0.089,0.977l-0.266,0.888l-0.355,0.621l-0.621,0.444l-0.355,0.178 M-158.421,259.943h0.355l0.888,0.178l0.799,0.355
	 M-156.379,260.476l0.888,0.621l0.799,0.799l0.71,0.888l0.621,0.977l0.533,1.154l0.355,1.065l0.178,1.065v0.977l-0.178,0.888
	l-0.355,0.621 M-160.374,260.032l0.621-0.178h0.799l0.799,0.178l0.888,0.444 M-157.267,260.476l0.888,0.533l0.888,0.799l0.799,0.977
	l0.71,1.065l0.533,1.154l0.444,1.154l0.266,1.065l0.089,1.154l-0.089,0.977l-0.266,0.799l-0.444,0.621l-0.444,0.444
	 M-161.706,260.831l0.355-0.266l0.71-0.266h0.71l0.888,0.178l0.888,0.444 M-158.155,260.92l0.888,0.621l0.888,0.799l0.799,0.977
	l0.71,0.977l0.533,1.154l0.444,1.154l0.266,1.154l0.089,1.154l-0.089,0.977l-0.266,0.799l-0.444,0.71l-0.533,0.444l-0.355,0.178
	 M-160.197,260.831h0.444l0.799,0.178l0.799,0.444 M-158.155,261.452l0.888,0.533l0.799,0.799l0.71,0.888l0.621,0.977l0.533,1.065
	l0.355,1.065l0.178,1.065l0.089,0.977l-0.178,0.888l-0.266,0.799l-0.089,0.178 M-162.15,261.008l0.533-0.178l0.799-0.089
	l0.888,0.178l0.888,0.444 M-159.042,261.364l0.888,0.621l0.888,0.799l0.799,0.977l0.71,1.065l0.621,1.154l0.444,1.154l0.266,1.154
	l0.089,1.154l-0.089,0.977l-0.266,0.799l-0.444,0.71l-0.533,0.444 M-163.57,261.719l0.444-0.266l0.71-0.178l0.799-0.089l0.799,0.266
	l0.888,0.355 M-159.93,261.808l0.888,0.621l0.888,0.799l0.799,0.888l0.71,1.065l0.533,1.154l0.444,1.154l0.266,1.065l0.178,1.154
	l-0.089,0.977l-0.178,0.888l-0.355,0.71l-0.533,0.533l-0.621,0.356 M-161.972,261.808h0.355l0.799,0.178l0.888,0.355
	 M-159.93,262.34l0.888,0.621l0.799,0.799l0.71,0.888l0.71,0.977l0.533,1.154l0.355,1.065l0.178,1.065l0.089,1.065l-0.178,0.888
	l-0.266,0.71l-0.089,0.178 M-164.014,261.896l0.71-0.178h0.799l0.799,0.178l0.888,0.444 M-160.818,262.34l0.888,0.621l0.888,0.71
	l0.799,0.977l0.71,1.065l0.621,1.065l0.444,1.154l0.266,1.154l0.089,1.154v0.977l-0.266,0.888l-0.355,0.71l-0.533,0.533
	l-0.089,0.089 M-165.346,262.695l0.355-0.266l0.71-0.266h0.799l0.888,0.178l0.888,0.444 M-161.706,262.784l0.888,0.621l0.888,0.799
	l0.799,0.888l0.71,1.065l0.621,1.154l0.444,1.154l0.266,1.154l0.178,1.154l-0.088,0.978l-0.178,0.888l-0.355,0.71l-0.533,0.621
	l-0.621,0.266 M-163.837,262.695h0.444l0.799,0.178l0.888,0.444 M-161.706,263.317l0.888,0.621l0.799,0.71l0.799,0.977l0.621,1.065
	l0.533,1.065l0.444,1.154l0.178,1.065l0.089,1.065l-0.178,0.888l-0.266,0.799l-0.178,0.178 M-165.879,262.873l0.71-0.266h0.799
	l0.888,0.178l0.888,0.444 M-162.594,263.228l0.888,0.621l0.888,0.799l0.799,0.977l0.799,1.065l0.533,1.154l0.444,1.154l0.355,1.154
	l0.089,1.154v0.977l-0.266,0.888l-0.355,0.799l-0.533,0.533l-0.089,0.089 M-167.21,263.583l0.444-0.266l0.71-0.266h0.799
	l0.888,0.266l0.888,0.355 M-163.482,263.672l0.977,0.71l0.799,0.799l0.888,0.888l0.71,1.154l0.621,1.065l0.444,1.243l0.266,1.154
	l0.178,1.154l-0.089,0.977l-0.178,0.977l-0.444,0.71l-0.533,0.533l-0.533,0.355 M-165.612,263.672h0.444l0.799,0.178l0.888,0.355
	 M-163.482,264.205l0.888,0.621l0.799,0.799l0.71,0.888l0.71,0.977l0.533,1.065l0.444,1.154l0.178,1.065l0.089,1.065l-0.089,0.977
	l-0.178,0.799l-0.266,0.355 M-167.654,263.761l0.71-0.178h0.799l0.888,0.178l0.888,0.444 M-164.369,264.205l0.977,0.621l0.888,0.799
	l0.799,0.977l0.71,1.065l0.621,1.154l0.444,1.243l0.355,1.154l0.089,1.154v0.977l-0.266,0.977l-0.355,0.71l-0.533,0.621
	l-0.178,0.089 M-168.986,264.56l0.355-0.266l0.71-0.266h0.888l0.888,0.178l0.888,0.444 M-165.257,264.649l0.977,0.621l0.888,0.799
	l0.799,0.977l0.71,1.154l0.621,1.154l0.533,1.154l0.266,1.243l0.089,1.154v1.066l-0.266,0.888l-0.355,0.71l-0.533,0.621
	l-0.622,0.266 M-167.388,264.56h0.444l0.799,0.178l0.888,0.444 M-165.257,265.181l0.888,0.621l0.799,0.71l0.799,0.977l0.71,0.977
	l0.533,1.154l0.355,1.154l0.266,1.065l0.089,1.065l-0.089,0.977l-0.266,0.799l-0.178,0.444 M-169.519,264.737l0.089-0.089
	l0.71-0.178h0.799l0.888,0.178l0.888,0.444 M-166.145,265.093l0.888,0.621l0.888,0.799l0.888,0.977l0.71,1.065l0.621,1.154
	l0.444,1.154l0.355,1.154l0.178,1.154v1.065l-0.178,0.888l-0.355,0.799l-0.444,0.621l-0.355,0.266 M-170.851,265.448l0.444-0.266
	l0.799-0.266h0.799l0.888,0.266l0.888,0.444 M-167.033,265.625l0.977,0.621l0.799,0.799l0.888,0.888l0.71,1.065l0.621,1.154
	l0.444,1.243l0.355,1.154l0.178,1.154v1.065l-0.178,0.888l-0.355,0.799l-0.444,0.621l-0.621,0.444l-0.178,0.089 M-169.252,265.536
	h0.444l0.888,0.178l0.888,0.355 M-167.033,266.069l0.888,0.621l0.888,0.799l0.71,0.977l0.71,1.065l0.621,1.065l0.355,1.154
	l0.266,1.154l0.089,1.065l-0.089,0.977l-0.266,0.799l-0.178,0.444 M-171.383,265.625h0.089l0.71-0.266h0.888l0.888,0.266
	l0.888,0.444 M-167.921,266.069l0.977,0.621l0.888,0.799l0.799,0.977l0.71,1.065l0.621,1.154l0.533,1.154l0.355,1.243l0.178,1.154
	v1.065l-0.178,0.977l-0.355,0.799l-0.533,0.621l-0.355,0.266 M-172.715,266.424l0.533-0.355l0.71-0.178h0.888l0.888,0.178
	l0.888,0.444 M-168.809,266.513l0.977,0.621l0.888,0.799l0.799,0.977l0.799,1.065l0.622,1.243l0.444,1.154l0.355,1.243l0.178,1.154
	v1.065l-0.178,0.977l-0.355,0.799l-0.444,0.621l-0.622,0.444l-0.178,0.089 M-171.028,266.424h0.444l0.888,0.178l0.888,0.444
	 M-168.809,267.046l0.888,0.621l0.888,0.799l0.799,0.977l0.71,1.065l0.533,1.154l0.444,1.154l0.266,1.154l0.089,1.065l-0.089,0.977
	l-0.266,0.888l-0.178,0.355 M-173.159,266.602v-0.089l0.799-0.178h0.799l0.977,0.178l0.888,0.444 M-169.696,266.957l0.977,0.71
	l0.888,0.799l0.799,0.977l0.799,1.065l0.621,1.154l0.533,1.243l0.266,1.243l0.178,1.154v1.065l-0.178,0.977l-0.266,0.799
	l-0.533,0.621l-0.355,0.266 M-174.491,267.312l0.444-0.266l0.799-0.266h0.799l0.888,0.266l0.977,0.444 M-170.584,267.49l0.977,0.621
	l0.888,0.799l0.888,0.977l0.71,1.154l0.621,1.154l0.533,1.243l0.355,1.154l0.178,1.243v1.065l-0.178,0.977l-0.355,0.799l-0.533,0.71
	l-0.621,0.444h-0.178 M-172.804,267.312l0.444,0.089l0.888,0.178l0.888,0.444 M-170.584,268.022l0.888,0.533l0.888,0.799
	l0.799,0.977l0.621,1.065l0.621,1.065l0.444,1.154l0.266,1.154l0.178,1.065l-0.089,1.065l-0.178,0.888l-0.355,0.621
	 M-175.023,267.49h0.089l0.71-0.266h0.888l0.888,0.266l0.977,0.444 M-171.472,267.934l0.977,0.621l0.888,0.888l0.888,0.977
	l0.71,1.065l0.71,1.243l0.444,1.154l0.355,1.243l0.178,1.243v1.065l-0.178,0.977l-0.355,0.888l-0.444,0.621l-0.355,0.266
	 M-176.355,268.289l0.444-0.355l0.799-0.178h0.888l0.888,0.178l0.977,0.444 M-172.36,268.378l0.977,0.71l0.888,0.799l0.888,0.977
	l0.799,1.154l0.622,1.154l0.533,1.243l0.355,1.243l0.178,1.243v1.065l-0.178,0.977l-0.355,0.888l-0.533,0.621l-0.622,0.444
	l-0.178,0.089 M-174.668,268.289h0.533l0.888,0.178l0.888,0.444 M-172.36,268.91l0.888,0.621l0.888,0.799l0.799,0.977l0.71,1.065
	l0.621,1.154l0.444,1.154l0.266,1.154l0.178,1.065l-0.089,1.065l-0.178,0.888l-0.355,0.621 M-176.799,268.466l0.089-0.089
	l0.799-0.178h0.799l0.977,0.178l0.888,0.444 M-173.248,268.821l0.977,0.71l0.888,0.799l0.799,0.977l0.799,1.065l0.622,1.154
	l0.533,1.243l0.355,1.154l0.266,1.243v1.065l-0.089,0.977l-0.266,0.888l-0.444,0.71l-0.621,0.533 M-178.22,269.177l0.622-0.355
	l0.71-0.178H-176l0.888,0.266l0.977,0.444 M-174.136,269.354l0.977,0.621l0.888,0.799l0.888,0.977l0.71,1.065l0.71,1.243
	l0.533,1.154l0.355,1.243l0.178,1.243l0.089,1.065l-0.178,1.065l-0.266,0.799l-0.444,0.71l-0.621,0.533l-0.444,0.266
	 M-176.444,269.177h0.533l0.888,0.266l0.888,0.444 M-174.136,269.887l0.888,0.621l0.888,0.799l0.799,0.977l0.799,1.065l0.533,1.154
	l0.533,1.154l0.266,1.243l0.089,1.065v1.065l-0.178,0.888l-0.355,0.71 M-178.752,269.443l0.266-0.178l0.71-0.178h0.888l0.888,0.267
	l0.977,0.444 M-175.023,269.798l0.977,0.621l0.888,0.888l0.888,0.977l0.799,1.065l0.621,1.154l0.533,1.243l0.355,1.243l0.266,1.243
	v1.065l-0.089,1.065l-0.355,0.888l-0.444,0.71l-0.533,0.533h-0.089 M-194.822,278.676l0.266-0.089l0.71-0.266l0.888,0.089
	l0.977,0.178l0.888,0.444 M-191.093,279.032l0.977,0.71l0.888,0.799l0.888,0.977l0.799,1.065l0.621,1.243l0.533,1.154l0.355,1.243
	l0.266,1.243v1.154l-0.089,0.977l-0.266,0.888l-0.533,0.71l-0.533,0.533h-0.089 M-229.359,296.611l0.533-0.266l0.888-0.089
	l0.977,0.089l1.065,0.266l0.977,0.533 M-224.92,297.143l1.065,0.71l1.065,0.888l0.977,1.065l0.888,1.154l0.799,1.243l0.71,1.332
	l0.444,1.421l0.444,1.332l0.178,1.332l0.089,1.243l-0.178,1.154l-0.266,0.977l-0.444,0.888l-0.621,0.621l-0.266,0.178
	 M-239.658,301.671l0.799-0.355l0.977-0.089l0.977,0.089l1.154,0.355l1.065,0.533 M-234.686,302.204l1.154,0.71l1.065,0.977
	l1.065,1.065l0.888,1.243l0.888,1.332l0.71,1.332l0.621,1.509l0.355,1.421l0.266,1.421l0.089,1.332l-0.089,1.243l-0.266,1.065
	l-0.355,0.977l-0.621,0.71l-0.71,0.621 M-240.99,302.47l0.444-0.266l0.799-0.355l0.977-0.089l0.977,0.089l1.154,0.266l1.065,0.621
	 M-235.574,302.737l1.154,0.71l1.065,0.888l1.065,1.154l0.888,1.154l0.888,1.332l0.71,1.421l0.621,1.421l0.355,1.509l0.266,1.332
	l0.089,1.332l-0.089,1.243l-0.266,1.154l-0.355,0.888l-0.621,0.799l-0.71,0.533l-0.444,0.266 M-240.013,302.293l0.444-0.178
	l0.888-0.089l0.977,0.089l1.065,0.355l1.065,0.444 M-235.574,302.914l1.065,0.799l1.065,0.888l0.977,1.065l0.977,1.154l0.799,1.243
	l0.71,1.421l0.533,1.332l0.444,1.421l0.266,1.332l0.089,1.332l-0.089,1.154l-0.266,1.065l-0.444,0.977l-0.533,0.71l-0.266,0.266
	 M-241.522,302.737l0.888-0.355l0.977-0.178l0.977,0.178l1.154,0.266l1.065,0.533 M-236.462,303.181l1.154,0.799l1.065,0.888
	l1.065,1.065l0.888,1.243l0.888,1.332l0.71,1.421l0.621,1.421l0.355,1.421l0.266,1.421l0.089,1.332l-0.089,1.243l-0.266,1.154
	l-0.355,0.888l-0.621,0.799l-0.71,0.533 M-242.765,303.536l0.355-0.355l0.888-0.266l0.977-0.178l0.977,0.089l1.154,0.355
	l1.065,0.533 M-237.349,303.713l1.154,0.71l1.065,0.977l1.065,1.065l0.888,1.243l0.888,1.332l0.71,1.421l0.621,1.421l0.355,1.421
	l0.266,1.421l0.089,1.332l-0.089,1.243l-0.266,1.065l-0.355,0.977l-0.621,0.799l-0.71,0.533l-0.444,0.178 M-241.789,303.269
	l0.444-0.089l0.888-0.178l0.977,0.178l1.065,0.266l1.065,0.533 M-237.349,303.98l1.065,0.71l1.065,0.888l0.977,1.065l0.977,1.154
	l0.799,1.332l0.71,1.332l0.533,1.421l0.444,1.421l0.266,1.332l0.089,1.332l-0.089,1.154l-0.266,1.065l-0.444,0.888l-0.533,0.799
	l-0.266,0.266 M-243.298,303.713l0.888-0.355l0.977-0.089l0.977,0.089l1.154,0.355l1.065,0.533 M-238.237,304.246l1.154,0.71
	l1.065,0.977l1.065,1.065l0.888,1.243l0.888,1.332l0.71,1.332l0.621,1.509l0.355,1.421l0.266,1.421l0.089,1.332l-0.089,1.243
	l-0.266,1.065l-0.355,0.977l-0.621,0.71l-0.71,0.621 M-244.541,304.512l0.355-0.266l0.888-0.355l0.977-0.089l0.977,0.089
	l1.154,0.355l1.065,0.533 M-239.125,304.779l1.154,0.71l1.065,0.888l1.065,1.154l0.888,1.243l0.888,1.332l0.71,1.332l0.621,1.421
	l0.355,1.509l0.266,1.332l0.089,1.421l-0.089,1.154l-0.266,1.154l-0.355,0.977l-0.621,0.71l-0.71,0.533l-0.444,0.266
	 M-243.564,304.335l0.355-0.178l0.977-0.089l0.977,0.089l1.065,0.355l1.065,0.533 M-239.125,305.045l1.065,0.71l1.065,0.888
	l0.977,1.065l0.977,1.154l0.799,1.332l0.71,1.332l0.533,1.332l0.444,1.421l0.266,1.421l0.089,1.243l-0.089,1.243l-0.266,1.065
	l-0.444,0.888l-0.533,0.71l-0.266,0.266 M-245.074,304.779l0.888-0.355l0.977-0.089l0.977,0.089l1.154,0.266l1.065,0.533
	 M-240.013,305.223l1.154,0.799l1.065,0.888l0.977,1.154l0.977,1.154l0.888,1.332l0.71,1.421l0.621,1.421l0.355,1.421l0.266,1.421
	l0.089,1.332l-0.089,1.243l-0.266,1.154l-0.355,0.888l-0.621,0.799l-0.71,0.533 M-246.317,305.578l0.355-0.266l0.888-0.355
	l0.977-0.178l0.977,0.089l1.154,0.355l1.065,0.533 M-240.901,305.755l1.154,0.799l1.065,0.888l0.977,1.065l0.977,1.243l0.888,1.332
	l0.71,1.421l0.621,1.421l0.355,1.421l0.266,1.421l0.089,1.332l-0.089,1.243l-0.266,1.065l-0.355,0.977l-0.621,0.799l-0.71,0.533
	l-0.444,0.266 M-245.34,305.311l0.355-0.089l0.977-0.089l0.977,0.089l1.065,0.266l1.065,0.533 M-240.901,306.022l1.065,0.71
	l1.065,0.888l0.977,1.065l0.977,1.243l0.799,1.243l0.71,1.332l0.533,1.421l0.444,1.421l0.266,1.332l0.089,1.332l-0.089,1.154
	l-0.266,1.065l-0.444,0.888l-0.533,0.799l-0.266,0.266 M-246.849,305.755l0.888-0.355l0.977-0.089l0.977,0.089l1.154,0.355
	l1.065,0.533 M-241.789,306.288l1.154,0.71l1.065,0.977l0.977,1.065l0.977,1.243l0.888,1.332l0.71,1.421l0.533,1.421l0.444,1.421
	l0.266,1.421l0.089,1.332l-0.089,1.243l-0.266,1.065l-0.444,0.977l-0.533,0.71l-0.71,0.621 M-248.092,306.554l0.355-0.266
	l0.888-0.355l0.977-0.089l0.977,0.089l1.065,0.355l1.154,0.533 M-242.676,306.821l1.154,0.71l1.065,0.977l0.977,1.065l0.977,1.243
	l0.888,1.332l0.71,1.332l0.533,1.509l0.444,1.421l0.266,1.421l0.089,1.332l-0.089,1.243l-0.266,1.065l-0.444,0.977l-0.533,0.71
	l-0.71,0.621l-0.533,0.178 M-247.116,306.377l0.355-0.178l0.977-0.089l0.977,0.089l1.065,0.355l1.065,0.533 M-242.676,307.087
	l1.065,0.71l1.065,0.888l0.977,1.065l0.977,1.154l0.799,1.332l0.71,1.332l0.533,1.421l0.444,1.332l0.266,1.421l0.089,1.243
	l-0.089,1.243l-0.266,1.065l-0.444,0.888l-0.533,0.71l-0.266,0.266 M-248.625,306.821l0.888-0.355l0.977-0.089l0.977,0.089
	l1.065,0.266l1.154,0.621 M-243.564,307.353l1.154,0.71l1.065,0.888l0.977,1.154l0.977,1.154l0.888,1.332l0.71,1.421l0.533,1.421
	l0.444,1.509l0.266,1.332l0.089,1.332l-0.089,1.243l-0.266,1.154l-0.444,0.888l-0.533,0.799l-0.71,0.533 M-249.868,307.62
	l0.355-0.266l0.888-0.355l0.977-0.178l0.977,0.178l1.065,0.266l1.154,0.533 M-244.452,307.797l1.154,0.799l1.065,0.888l0.977,1.065
	l0.977,1.243l0.888,1.332l0.71,1.421l0.533,1.421l0.444,1.421l0.266,1.421l0.089,1.332l-0.089,1.243l-0.266,1.154l-0.444,0.888
	l-0.533,0.799l-0.71,0.533l-0.533,0.266 M-248.891,307.353l0.355-0.089l0.977-0.089l0.977,0.089l1.065,0.266l1.065,0.533
	 M-244.452,308.064l1.065,0.71l1.065,0.977l0.977,0.977l0.977,1.243l0.799,1.243l0.71,1.421l0.533,1.332l0.444,1.421l0.266,1.332
	l0.089,1.332l-0.089,1.154l-0.266,1.065l-0.444,0.977l-0.533,0.71l-0.266,0.266 M-250.401,307.886l0.888-0.355l0.977-0.178
	l0.977,0.089l1.065,0.355l1.154,0.533 M-245.34,308.33l1.154,0.799l1.065,0.888l0.977,1.065l0.977,1.243l0.888,1.332l0.71,1.421
	l0.533,1.421l0.444,1.421l0.266,1.421l0.089,1.332l-0.089,1.243l-0.266,1.065l-0.444,0.977l-0.533,0.799l-0.71,0.533
	 M-251.732,308.685l0.444-0.355l0.888-0.355l0.977-0.089l0.977,0.089l1.065,0.355l1.154,0.533 M-246.228,308.863l1.065,0.71
	l1.154,0.977l0.977,1.065l0.977,1.243l0.888,1.332l0.71,1.421l0.533,1.421l0.444,1.421l0.266,1.421l0.089,1.332l-0.089,1.243
	l-0.266,1.065l-0.444,0.977l-0.533,0.71l-0.71,0.621l-0.533,0.176 M-250.667,308.419l0.355-0.089l0.977-0.178l0.977,0.089
	l1.065,0.355l1.065,0.533 M-246.228,309.129l1.065,0.71l1.065,0.888l0.977,1.065l0.977,1.154l0.799,1.332l0.71,1.332l0.533,1.421
	l0.444,1.332l0.266,1.421l0.089,1.243l-0.089,1.243l-0.266,1.065l-0.444,0.888l-0.533,0.799l-0.355,0.178 M-252.176,308.863
	l0.888-0.355l0.977-0.089l0.977,0.089l1.065,0.355l1.154,0.533 M-247.116,309.395l1.065,0.71l1.154,0.977l0.977,1.065l0.977,1.243
	l0.888,1.332l0.71,1.332l0.533,1.509l0.444,1.421l0.266,1.421l0.089,1.332l-0.089,1.243l-0.266,1.065l-0.444,0.977l-0.533,0.71
	l-0.71,0.621 M-253.508,309.662l0.444-0.266l0.888-0.355l0.888-0.089l1.065,0.089l1.065,0.266l1.154,0.621 M-248.003,309.928
	l1.065,0.71l1.154,0.888l0.977,1.154l0.977,1.154l0.888,1.332l0.71,1.421l0.533,1.421l0.444,1.509l0.266,1.332l0.089,1.332
	l-0.089,1.243l-0.266,1.154l-0.445,0.887l-0.533,0.799l-0.71,0.533l-0.533,0.266 M-252.443,309.484l0.355-0.178l0.977-0.089
	l0.977,0.089l1.065,0.355l1.065,0.444 M-248.003,310.106l1.065,0.799l1.065,0.888l0.977,1.065l0.977,1.154l0.799,1.243l0.71,1.421
	l0.533,1.332l0.444,1.421l0.266,1.332l0.089,1.332l-0.089,1.154l-0.266,1.065l-0.444,0.977l-0.533,0.71l-0.355,0.266
	 M-253.952,309.928l0.888-0.355l0.888-0.178l1.065,0.178l1.065,0.266l1.154,0.533 M-248.891,310.372l1.065,0.799l1.154,0.888
	l0.977,1.065l0.977,1.243l0.888,1.332l0.71,1.421l0.533,1.421l0.444,1.421l0.266,1.421l0.089,1.332l-0.089,1.243l-0.266,1.154
	l-0.444,0.888l-0.533,0.799l-0.71,0.533 M-255.284,310.727l0.444-0.355l0.888-0.266l0.888-0.178l1.065,0.089l1.065,0.355
	l1.154,0.533 M-249.779,310.905l1.065,0.71l1.154,0.977l0.977,1.065l0.977,1.243l0.888,1.332l0.71,1.421l0.533,1.421l0.444,1.421
	l0.266,1.421l0.089,1.332l-0.089,1.243l-0.266,1.065l-0.444,0.977l-0.533,0.799l-0.71,0.533l-0.533,0.178 M-254.218,310.461
	l0.355-0.089l0.977-0.178l0.977,0.178l1.065,0.266l1.065,0.533 M-249.779,311.171l1.065,0.71l1.065,0.888l0.977,1.065l0.977,1.154
	l0.799,1.332l0.71,1.332l0.533,1.421l0.444,1.421l0.266,1.332l0.089,1.332l-0.089,1.154l-0.266,1.065l-0.444,0.888l-0.533,0.799
	l-0.355,0.266 M-255.728,310.905l0.888-0.355l0.888-0.089l1.065,0.089l1.065,0.355l1.154,0.533 M-250.667,311.438l1.065,0.71
	l1.154,0.977l0.977,1.065l0.977,1.243l0.888,1.332l0.71,1.332l0.533,1.509l0.444,1.421l0.266,1.421l0.089,1.332l-0.089,1.243
	l-0.266,1.065l-0.444,0.977l-0.533,0.71l-0.71,0.621 M-257.059,311.704l0.444-0.266l0.888-0.355l0.888-0.089l1.065,0.089
	l1.065,0.355l1.154,0.533 M-251.555,311.97l1.065,0.71l1.154,0.888l0.977,1.154l0.977,1.243l0.799,1.332l0.799,1.332l0.533,1.421
	l0.444,1.509l0.266,1.332l0.089,1.421l-0.089,1.154l-0.266,1.154l-0.444,0.977l-0.533,0.71l-0.799,0.533l-0.444,0.266
	 M-255.994,311.526l0.355-0.178l0.977-0.089l0.977,0.089l1.065,0.355l1.065,0.533 M-251.555,312.237l1.065,0.71l1.065,0.888
	l0.977,1.065l0.888,1.154l0.888,1.332l0.71,1.332l0.533,1.332l0.444,1.421l0.266,1.332v1.332v1.243l-0.266,1.065l-0.444,0.888
	l-0.533,0.71l-0.355,0.266 M-257.503,311.97l0.888-0.355l0.888-0.089l1.065,0.089l1.065,0.266l1.154,0.533 M-252.443,312.414
	l1.065,0.799l1.154,0.888l0.977,1.154l0.977,1.154l0.799,1.332l0.799,1.421l0.533,1.421l0.444,1.421l0.266,1.421l0.089,1.332
	l-0.089,1.243l-0.266,1.154l-0.444,0.888l-0.533,0.799l-0.799,0.533 M-258.835,312.769l0.444-0.266l0.888-0.355l0.888-0.178
	l1.065,0.089l1.065,0.355l1.154,0.533 M-253.33,312.947l1.065,0.799l1.154,0.888l0.977,1.065l0.977,1.243l0.799,1.332l0.799,1.421
	l0.533,1.421l0.444,1.421l0.266,1.421l0.089,1.332l-0.089,1.243l-0.266,1.065l-0.444,0.977l-0.533,0.799l-0.799,0.533l-0.444,0.264
	 M-257.77,312.503l0.355-0.089l0.977-0.089l0.977,0.089l1.065,0.266l1.065,0.533 M-253.33,313.213l1.065,0.71l1.065,0.888
	l0.977,1.065l0.888,1.243l0.888,1.243l0.71,1.332l0.533,1.421l0.444,1.421l0.178,1.332l0.089,1.332l-0.089,1.154l-0.178,1.065
	l-0.444,0.888l-0.533,0.799l-0.355,0.266 M-259.279,312.947l0.888-0.355l0.888-0.089l1.065,0.089l1.065,0.355l1.154,0.533
	 M-254.218,313.48l1.065,0.71l1.154,0.977l0.977,1.065l0.977,1.243l0.799,1.332l0.799,1.421l0.533,1.421l0.444,1.421l0.266,1.421
	l0.089,1.332l-0.089,1.243l-0.266,1.065l-0.444,0.977l-0.533,0.71l-0.799,0.621 M-260.611,313.746l0.444-0.266l0.888-0.355
	l0.888-0.089l1.065,0.089l1.065,0.355l1.154,0.533 M-255.106,314.012l1.065,0.71l1.065,0.977l1.065,1.065l0.977,1.243l0.799,1.332
	l0.799,1.332l0.533,1.509l0.444,1.421l0.266,1.421l0.089,1.332l-0.089,1.243l-0.266,1.065l-0.444,0.977l-0.533,0.71l-0.799,0.621
	l-0.444,0.178 M-259.545,313.568l0.355-0.178l0.888-0.089l1.065,0.089l1.065,0.355l1.065,0.533 M-255.106,314.279l1.065,0.71
	l1.065,0.888l0.977,1.065l0.888,1.154l0.888,1.332l0.71,1.332l0.533,1.421l0.444,1.332l0.178,1.421l0.089,1.243l-0.089,1.243
	l-0.178,1.065l-0.444,0.888l-0.533,0.71l-0.355,0.266 M-261.055,314.012l0.888-0.355l0.888-0.089l1.065,0.089l1.065,0.266
	l1.154,0.621 M-255.994,314.545l1.065,0.71l1.065,0.888l1.065,1.154l0.977,1.154l0.799,1.332l0.799,1.421l0.533,1.421l0.444,1.509
	l0.266,1.332l0.089,1.332l-0.089,1.243l-0.266,1.154l-0.444,0.888l-0.533,0.799l-0.799,0.533 M-272.596,327.33v-0.178l-0.266-1.332
	l-0.089-1.332l0.089-1.154l0.266-1.065l0.444-0.888l0.533-0.799l0.71-0.533l0.799-0.355l0.977-0.089l0.977,0.089l1.065,0.355
	l1.065,0.533 M-266.026,320.582l1.065,0.71l1.065,0.888l0.977,1.065l0.977,1.154l0.799,1.332l0.71,1.332l0.533,1.421l0.444,1.332
	l0.266,1.421l0.089,1.243l-0.089,1.243l-0.266,1.065l-0.444,0.887l-0.533,0.71l-0.71,0.533l-0.799,0.355l-0.977,0.178l-0.977-0.178
	l-1.065-0.266l-1.065-0.533l-1.065-0.71l-1.065-0.888l-0.089-0.089 M-272.508,327.241l-0.089-0.799l-0.178-1.243l0.089-1.154
	l0.178-1.065l0.355-0.977l0.533-0.71l0.71-0.533l0.71-0.355l0.888-0.178l0.977,0.089l1.065,0.266l0.977,0.533 M-266.293,321.115
	l1.065,0.71l1.065,0.888l0.977,0.977l0.799,1.154l0.799,1.332l0.71,1.243l0.533,1.421l0.355,1.332l0.178,1.332l0.089,1.154
	l-0.177,1.153l-0.266,0.977l-0.444,0.888l-0.621,0.621l-0.71,0.444l-0.799,0.266h-0.977l-0.977-0.178l-1.065-0.444l-0.977-0.533
	l-1.065-0.799l-0.355-0.355 M-267.891,315.522l0.444-0.178l0.977-0.266l1.065-0.089l1.154,0.178l1.243,0.355l1.243,0.621
	 M-261.765,316.143l1.154,0.799l1.243,0.977l1.154,1.154l1.065,1.332l0.977,1.421l0.888,1.509l0.71,1.509l0.621,1.598l0.355,1.598
	l0.266,1.509l0.089,1.509l-0.089,1.332l-0.266,1.243l-0.355,1.065l-0.621,0.888l-0.71,0.71l-0.444,0.266 M-272.153,321.292
	l0.089-0.533l0.266-1.243l0.444-1.065l0.533-0.888l0.71-0.71l0.888-0.533l0.977-0.266h1.065l1.154,0.089l1.243,0.444l1.243,0.621
	 M-263.541,317.208l1.154,0.799l1.243,0.977l1.154,1.154l1.065,1.332l0.977,1.421l0.888,1.421l0.71,1.598l0.533,1.598l0.444,1.509
	l0.266,1.598l0.089,1.421l-0.089,1.421l-0.266,1.154l-0.444,1.154l-0.533,0.888l-0.71,0.71l-0.888,0.444l-0.977,0.266l-1.065,0.089
	l-1.154-0.178l-1.243-0.355l-0.443-0.178 M-271.531,320.582l0.089-0.444l0.355-1.065l0.533-0.888l0.71-0.71l0.799-0.533l0.977-0.266
	l1.065-0.089l1.065,0.178l1.154,0.355l1.243,0.533 M-263.541,317.652l1.154,0.799l1.154,0.977l1.065,1.154l1.065,1.243l0.977,1.421
	l0.799,1.421l0.71,1.509l0.533,1.598l0.355,1.509l0.266,1.421v1.421l-0.089,1.332l-0.355,1.154l-0.444,0.977l-0.621,0.799
	l-0.71,0.621l-0.888,0.444l-1.065,0.178l-1.065-0.089l-1.154-0.266 M-302.428,346.152l0.355-0.089h0.533l0.621,0.266
	 M-300.918,346.329l0.533,0.444l0.621,0.621l0.444,0.71l0.266,0.799l0.178,0.799l-0.089,0.621l-0.178,0.533l-0.355,0.355
	 M-311.75,353.876l2.042,1.154 M-309.708,354.764l-2.042-1.154 M-303.848,347.04l0.444-0.178h0.533l0.621,0.178 M-302.25,347.04
	l0.533,0.533l0.621,0.621l0.444,0.71l0.266,0.799l0.178,0.71l-0.089,0.71l-0.178,0.533l-0.444,0.355h-0.089 M-309.708,355.03
	l0.533-0.089l0.533-0.089l0.533-0.178l0.444-0.089l0.444-0.089 M-311.75,353.876v-0.089v-0.089v-0.089 M-311.75,353.61l0.533-0.533
	l0.533-0.533l0.621-0.533l0.533-0.444l0.621-0.444l0.533-0.355l0.444-0.266l0.444-0.178l0.355-0.089h0.266l0.178,0.089l0.089,0.178
	v0.355l-0.089,0.355l-0.266,0.444l-0.266,0.444l-0.444,0.533l-0.444,0.533l-0.533,0.533l-0.533,0.621l-0.533,0.444
	 M-309.708,354.764v0.089v0.089v0.089 M-100.712,249.911l0.266,0.089l0.71,0.178l0.799-0.178l0.799-0.266l0.622-0.621l0.533-0.71
	 M-96.983,248.401l0.355-0.799l0.178-0.888l-0.089-0.799l-0.266-0.71l-0.533-0.621l-0.266-0.178 M-189.673,275.303l-5.327,3.018
	 M-187.098,292.083l5.327-3.107 M-142.085,250.798l-0.888,0.444 M-137.557,260.565l0.888-0.533 M-143.86,251.686l-0.977,0.444
	 M-139.244,261.719l0.799-0.621 M-145.725,252.663l-0.888,0.444 M-141.019,262.784l0.888-0.533 M-147.501,253.551l-0.977,0.444
	 M-142.706,263.938l0.799-0.533 M-149.365,254.439l-0.888,0.533 M-144.482,265.093l0.888-0.621 M-151.229,255.415l-0.888,0.444
	 M-146.169,266.158l0.888-0.533 M-153.005,256.303l-0.977,0.533 M-147.856,267.312l0.799-0.533 M-154.87,257.28l-0.888,0.444
	 M-149.631,268.466l0.888-0.621 M-156.734,258.167l-0.888,0.533 M-151.318,269.532l0.888-0.533 M-158.51,259.144l-0.977,0.444
	 M-153.094,270.686l0.888-0.621 M-160.374,260.032l-0.888,0.533 M-154.781,271.751l0.888-0.533 M-162.15,261.008l-0.977,0.444
	 M-156.468,272.905l0.799-0.533 M-164.014,261.896l-0.888,0.533 M-158.243,274.06l0.888-0.621 M-165.879,262.873l-0.888,0.444
	 M-159.93,275.125l0.888-0.533 M-167.654,263.761l-0.977,0.444 M-161.617,276.279l0.799-0.533 M-169.519,264.737l-0.888,0.444
	 M-163.393,277.433l0.888-0.621 M-171.383,265.625l-0.888,0.444 M-165.08,278.499l0.799-0.533 M-173.159,266.602l-0.977,0.444
	 M-166.855,279.653l0.888-0.621 M-175.023,267.49l-0.888,0.444 M-168.542,280.718l0.888-0.533 M-176.799,268.466l-0.977,0.444
	 M-170.229,281.873l0.799-0.533 M-180.706,287.999l9.5-5.505 M-178.752,269.443l-9.5,5.505 M-218.35,309.751l31.074-18.023
	 M-194.822,278.676l-31.074,17.935 M-229.359,296.611l-10.121,4.972 M-229.448,318.984l9.411-6.304 M-230.513,319.606l0.888-0.444
	 M-239.658,301.671l-0.888,0.533 M-232.289,320.671l0.888-0.533 M-241.522,302.737l-0.888,0.444 M-234.064,321.648l0.888-0.444
	 M-243.298,303.713l-0.888,0.533 M-235.84,322.713l0.888-0.533 M-245.074,304.779l-0.888,0.533 M-237.616,323.778l0.888-0.533
	 M-246.849,305.755l-0.888,0.533 M-239.391,324.755l0.888-0.533 M-248.625,306.821l-0.888,0.533 M-241.167,325.82l0.888-0.533
	 M-250.401,307.886l-0.888,0.444 M-242.943,326.797l0.888-0.444 M-252.176,308.863l-0.888,0.533 M-244.718,327.862l0.888-0.533
	 M-253.952,309.928l-0.888,0.444 M-246.583,328.839l0.977-0.444 M-255.728,310.905l-0.888,0.533 M-248.359,329.904l0.888-0.533
	 M-257.503,311.97l-0.888,0.533 M-250.134,330.97l0.888-0.533 M-259.279,312.947l-0.888,0.533 M-253.863,334.432l0.089-0.089
	l0.266-0.533l0.444-0.621l0.71-0.71l0.977-0.799l0.444-0.178 M-261.055,314.012l-0.444,0.266l-1.154,0.444l-1.065,0.266h-0.799
	h-0.533 M-259.634,335.143l0.355-0.621l0.71-1.421l0.977-1.421l1.243-1.509l0.533-0.621 M-261.676,319.073l-1.065,0.266
	l-1.864,0.266l-1.687,0.178l-1.509-0.089l-0.799-0.089 M-257.503,337.629l1.776-1.065 M-267.891,315.522l-1.776,1.065
	 M-297.811,351.834l37.733-21.841 M-264.34,322.535l-37.733,21.841 M-300.83,351.923l1.332-0.71 M-302.428,346.152l-1.332,0.799
	 M-300.474,351.745l0.089,0.089l0.71,0.266h0.71l0.621-0.089l0.444-0.178 M-302.073,344.376l-0.355,0.266l-0.533,0.533l-0.266,0.621
	l-0.178,0.71v0.266 M-307.222,354.498l6.215-2.486 M-303.848,347.04l-5.86,4.617 M-97.604,244.406l-1.154-0.621l-2.042-0.888
	l-2.22-0.799l-2.22-0.533l-2.397-0.355l-2.397-0.089h-2.486l-2.575,0.266l-2.575,0.444l-2.664,0.621l-2.663,0.888l-2.752,1.065
	l-2.663,1.243l-2.752,1.421l-0.977,0.533 M-128.945,253.018l1.243-0.71l2.486-1.243l2.397-1.065l2.397-0.888l2.308-0.71l2.308-0.533
	l2.22-0.355l2.22-0.089h2.042l2.042,0.178l1.953,0.444l1.864,0.533l1.776,0.799l0.977,0.533 M-132.141,247.602l-6.748,3.906
	 M-135.692,256.924l6.748-3.906"/>
</svg>
