<?xml version="1.0" encoding="UTF-8" standalone="no"?>
<svg xmlns="http://www.w3.org/2000/svg" xmlns:xlink="http://www.w3.org/1999/xlink" width="297.000mm" height="210.000mm" viewBox="0.000000 0.000000 297.000000 210.000000" stroke-linejoin="round" stroke-linecap="round" fill="none" fill-rule="evenodd"><desc>Composer Export</desc><script type="text/ecmascript"><![CDATA[
if(typeof(top) != "undefined")
{
	top.ShowPaper = ShowPaper;
}
function ShowHotSpot(evt,hotspotid)
{
	var svgDocument = evt.target.ownerDocument;
	var strId = "hotspot."+hotspotid;
	var hotspot = svgDocument.getElementById(strId);
	if(hotspot)
		hotspot.setAttribute("opacity",".5");
}
function HideHotSpot(evt,hotspotid)
{
	var svgDocument = evt.target.ownerDocument;
	var strId = "hotspot."+hotspotid;
	var hotspot = svgDocument.getElementById(strId);
	if(hotspot)
		hotspot.setAttribute("opacity","0");

	var toolTip = svgDocument.getElementById('ToolTip');
	if(toolTip)
		toolTip.setAttribute("visibility","hidden");
}
function ShowToolTip(evt,hotspotid,strTooltip)
{
	if(strTooltip=="")
	return;

	// change text
	var svgDocument = evt.target.ownerDocument;
	var tiptext = svgDocument.getElementById('ToolTipText');
	if( !tiptext )
	return;
	tiptext.firstChild.nodeValue = " " + strTooltip + "  " ;

	// show tooltip before, else some refresh issue

	var toolTip = svgDocument.getElementById('ToolTip');
	if(!toolTip)
	return;

	toolTip.setAttribute("visibility","visible");
	toolTip.setAttribute("opacity",".95");

	// move tooltip
	// get viewbox

	var root = svgDocument.documentElement;
	var vbox = (root.getAttribute("viewBox")).split(' ');
	var x0 = parseFloat(vbox[0]);
	var y0 = parseFloat(vbox[1]);
	var vboxW = parseFloat(vbox[2]);
	var vboxH = parseFloat(vbox[3]);

	// get default width of svg

	var strW = root.getAttribute("width");
	var svgW = parseFloat(strW);
	if(strW.indexOf('mm') != -1)
	svgW *= 3.779;

	var strH = root.getAttribute("height");
	var svgH = parseFloat(strH);
	if(strH.indexOf('mm') != -1)
	svgH *= 3.779;  	// 96 dpi  -> 96/25.4 = 3.779

	// update the viewbox / width / height if svg is embedded in html with zoom fit all
	var realx0 = x0;
	var realy0 = y0;
	var realvboxW = vboxW;
	var realvboxH = vboxH;
	var realsvgW = svgW;
	var realsvgH = svgH;

	if ((typeof(top) == "undefined") || (typeof(top.svgctl1) != "undefined")) // embedded in html
	{
		// get window size in pxl

		svgW = window.innerWidth;
		svgH = window.innerHeight;

		// calculate real viewbox

		realsvgW = svgW;
		realsvgH = svgH;
		if((svgW / svgH) > (vboxW / vboxH))
		{
			realvboxW = (vboxH * svgW) / svgH;
			realvboxH = vboxH;
			realx0 = x0 - (realvboxW - vboxW)/2 ;
		}
		else
		{
			realvboxH = (vboxW * svgH) / svgW;
			realvboxW = vboxW;
			realy0 = y0 - (realvboxH - vboxH)/2 ;
		}
	}

	// get user zoom/pan

	var newScale = root.currentScale;
	var translation = root.currentTranslate;

	// transform pxl to user unit

	var xPos = (((evt.clientX+10- translation.x)/newScale) * realvboxW)/realsvgW  + realx0 ;
	var yPos = (((evt.clientY+5- translation.y)/newScale) * realvboxH)/ realsvgH  + realy0 ;
	var scaleForWidth = ( (1 / newScale) * realvboxH) / realsvgH;

	// move tooltip

	toolTip.setAttribute("transform", "translate(" + xPos + "," + yPos + ")" );

	// resize tooltip

	var fontsize = 12;
	tiptext.setAttribute("font-size",fontsize*scaleForWidth);
	tiptext.setAttribute("y", fontsize*scaleForWidth);
	var tipBG = svgDocument.getElementById('ToolTipBG');
	var outline = tiptext.getBBox();
	if(tipBG)
	{
		tipBG.setAttribute("stroke-width", 1*scaleForWidth);
		tipBG.setAttribute("width", Number(outline.width) );
		tipBG.setAttribute("height", Number(outline.height) + fontsize*.5*scaleForWidth );
	}
	var ToolTipShadow = svgDocument.getElementById('ToolTipShadow');
	if(ToolTipShadow)
	{
		ToolTipShadow.setAttribute("width", Number(outline.width) );
		ToolTipShadow.setAttribute("height", Number(outline.height) + fontsize*.5*scaleForWidth );
		ToolTipShadow.setAttribute("x", 3*scaleForWidth);
		ToolTipShadow.setAttribute("y", 3*scaleForWidth);
	}
}
function ShowPaper()
{
  var svgDocument = getDocument();
  var paper = svgDocument.getElementById("paperID");
  if(paper)
  {
    paper.setAttribute("transform","scale(1)");
    paper.setAttribute("opacity","1");
    paper.setAttribute("visibility","visible");
  }
  var svg = svgDocument.getRootElement();
  if(svg)
  {
    svg.setAttribute("width","307.000mm");
    svg.setAttribute("height","220.000mm");
    svg.setAttribute("viewBox","-5.000000 -5.000000 307.000000 220.000000");
  }
}
]]></script><defs/><g><g id="Actor_.0"><g style="stroke:#000020;stroke-width:0.079"><path d="M121.94,186.19 C121.89,187.27 121.89,187.27 121.85,188.36 C121.88,188.72 121.89,188.72 121.94,189.08 C122.02,189.66 122.01,189.66 122.10,190.23 C122.18,190.60 122.18,190.60 122.27,190.97 C122.40,191.34 122.40,191.34 122.54,191.71 C122.73,192.09 122.74,192.09 122.93,192.46 C123.22,192.94 123.22,192.94 123.50,193.41 C123.75,193.77 123.75,193.78 124.01,194.13 C124.34,194.49 124.34,194.49 124.67,194.85 C125.07,195.18 125.07,195.19 125.47,195.52 C126.30,196.06 126.30,196.06 127.13,196.60 C127.30,196.70 127.30,196.70 127.48,196.79 C127.87,196.98 127.87,196.98 128.27,197.17 C128.69,197.34 128.69,197.34 129.11,197.50 C129.56,197.65 129.56,197.65 130.00,197.79 C130.71,197.97 130.71,197.97 131.42,198.14 C132.14,198.27 132.14,198.27 132.85,198.39 C133.33,198.45 133.33,198.45 133.82,198.51 C134.45,198.56 134.45,198.56 135.09,198.61 C136.02,198.63 136.02,198.63 136.96,198.65 C137.87,198.63 137.87,198.63 138.79,198.60 C139.39,198.57 139.39,198.57 139.99,198.52 C141.17,198.39 141.17,198.40 142.35,198.26 C143.48,198.08 143.48,198.08 144.62,197.89 C145.35,197.75 145.35,197.75 146.09,197.60 C147.04,197.37 147.04,197.38 148.00,197.15 C149.21,196.81 149.21,196.81 150.42,196.46 C151.25,196.20 151.25,196.20 152.07,195.93 C152.97,195.61 152.97,195.61 153.87,195.28 C154.70,194.96 154.70,194.95 155.52,194.62 C156.32,194.28 156.32,194.28 157.12,193.93 C158.15,193.43 158.15,193.43 159.17,192.93 C159.89,192.56 159.89,192.55 160.61,192.17 C161.65,191.57 161.65,191.57 162.69,190.97 C163.37,190.55 163.37,190.55 164.04,190.13 C164.68,189.70 164.68,189.70 165.32,189.27 C165.93,188.82 165.93,188.82 166.54,188.37 C167.13,187.91 167.13,187.91 167.71,187.44 C168.26,186.96 168.26,186.96 168.81,186.47 C169.33,185.98 169.33,185.98 169.85,185.47 C170.42,184.86 170.42,184.86 170.98,184.23 C171.49,183.59 171.49,183.59 171.99,182.95 C172.29,182.51 172.29,182.51 172.59,182.07 C172.88,181.61 172.88,181.62 173.17,181.16 C173.52,180.54 173.53,180.54 173.87,179.92 C174.15,179.27 174.16,179.27 174.43,178.62 C174.63,177.95 174.63,177.95 174.81,177.27 C174.98,176.18 175.00,176.17 175.14,175.08 C175.04,172.52 175.04,172.51 174.88,169.95 "/><path d="M128.94,102.47 C128.76,102.67 128.76,102.67 128.59,102.87 C128.17,103.45 128.17,103.45 127.75,104.02 C127.45,104.46 127.45,104.46 127.15,104.89 C126.91,105.30 126.91,105.29 126.67,105.70 C126.40,106.25 126.40,106.25 126.14,106.81 C125.98,107.24 125.98,107.24 125.83,107.67 C125.73,108.11 125.73,108.11 125.63,108.54 C125.50,109.09 125.50,109.09 125.38,109.63 C125.32,110.07 125.32,110.07 125.27,110.52 "/><path d="M169.60,178.12 C169.09,178.75 169.09,178.75 168.59,179.37 C168.33,179.65 168.33,179.65 168.08,179.93 C167.79,180.24 167.79,180.24 167.50,180.54 C166.92,181.09 166.92,181.09 166.33,181.64 C165.72,182.15 165.71,182.15 165.09,182.66 C164.81,182.87 164.81,182.87 164.52,183.08 C164.01,183.43 164.01,183.43 163.49,183.79 C163.01,184.08 163.01,184.08 162.53,184.37 C162.14,184.59 162.14,184.59 161.74,184.81 C161.02,185.16 161.02,185.16 160.31,185.51 C159.58,185.81 159.57,185.81 158.84,186.11 C158.50,186.23 158.50,186.23 158.16,186.35 C157.75,186.48 157.75,186.48 157.34,186.61 C156.57,186.82 156.57,186.82 155.80,187.02 C155.01,187.18 155.01,187.18 154.23,187.33 C153.83,187.39 153.83,187.39 153.43,187.45 "/><path d="M153.29,152.45 C153.28,151.37 153.28,151.37 153.29,150.28 C153.32,149.91 153.32,149.91 153.36,149.53 C153.40,149.38 153.41,149.38 153.46,149.23 C153.52,149.11 153.52,149.11 153.59,148.99 C153.68,148.87 153.68,148.87 153.78,148.76 C153.89,148.67 153.89,148.67 154.01,148.58 C154.13,148.54 154.13,148.54 154.24,148.50 "/><path d="M154.75,147.42 C154.54,147.50 154.54,147.50 154.34,147.59 C154.20,147.68 154.20,147.68 154.07,147.77 C153.87,147.96 153.87,147.96 153.69,148.15 C153.48,148.45 153.48,148.45 153.29,148.75 "/><path d="M152.97,152.27 C152.97,151.18 152.97,151.18 152.97,150.10 C153.00,149.73 153.00,149.73 153.04,149.35 C153.09,149.20 153.09,149.20 153.14,149.04 C153.21,148.92 153.21,148.92 153.27,148.81 C153.37,148.69 153.37,148.69 153.46,148.58 C153.58,148.49 153.58,148.49 153.70,148.40 C153.74,148.38 153.74,148.38 153.78,148.36 C153.85,148.34 153.85,148.34 153.93,148.32 "/><path d="M155.64,160.41 C155.57,160.03 155.57,160.03 155.51,159.65 C155.51,159.60 155.51,159.60 155.51,159.54 C155.57,159.13 155.56,159.13 155.63,158.72 C155.75,158.35 155.75,158.35 155.89,157.98 C156.07,157.67 156.07,157.67 156.26,157.37 C156.49,157.10 156.49,157.10 156.72,156.84 C157.03,156.60 157.03,156.60 157.35,156.37 C157.66,156.24 157.67,156.24 157.99,156.12 "/><path d="M159.12,156.83 C159.16,157.14 159.16,157.14 159.19,157.46 C159.15,157.87 159.15,157.87 159.10,158.27 C158.98,158.64 158.98,158.64 158.84,158.99 C158.62,159.38 158.62,159.38 158.39,159.75 C158.16,160.03 158.15,160.03 157.91,160.29 C157.64,160.50 157.64,160.50 157.36,160.70 C157.04,160.83 157.04,160.83 156.71,160.95 "/><path d="M158.80,156.65 C158.85,156.96 158.85,156.96 158.88,157.28 C158.84,157.69 158.84,157.69 158.78,158.09 C158.66,158.45 158.66,158.46 158.53,158.81 C158.31,159.20 158.31,159.20 158.08,159.57 C157.84,159.85 157.84,159.85 157.59,160.11 C157.32,160.32 157.32,160.32 157.04,160.52 C156.72,160.65 156.72,160.65 156.40,160.77 "/><path d="M156.20,159.37 C156.17,159.12 156.17,159.12 156.15,158.87 C156.16,158.63 156.16,158.63 156.18,158.40 C156.25,158.15 156.25,158.15 156.32,157.91 C156.41,157.71 156.42,157.71 156.52,157.51 C156.62,157.37 156.62,157.37 156.73,157.24 C156.88,157.11 156.88,157.11 157.04,157.00 C157.18,156.94 157.18,156.94 157.33,156.89 "/><path d="M157.64,157.07 C157.50,157.12 157.50,157.12 157.35,157.18 C157.20,157.29 157.20,157.30 157.05,157.42 C156.94,157.55 156.94,157.56 156.83,157.70 C156.73,157.89 156.73,157.89 156.63,158.09 C156.56,158.33 156.56,158.33 156.50,158.58 C156.48,158.81 156.48,158.82 156.46,159.05 C156.49,159.30 156.49,159.30 156.52,159.56 "/><path d="M158.19,157.51 C158.22,157.76 158.22,157.76 158.24,158.01 C158.21,158.33 158.21,158.33 158.18,158.65 C158.12,158.85 158.12,158.85 158.05,159.04 C157.95,159.23 157.95,159.23 157.85,159.42 C157.74,159.55 157.74,159.55 157.63,159.68 C157.49,159.79 157.49,159.79 157.35,159.89 C157.21,159.95 157.21,159.95 157.07,160.00 "/><path d="M157.48,146.43 C157.62,146.12 157.62,146.12 157.76,145.81 C157.82,145.71 157.82,145.71 157.89,145.62 C157.99,145.52 157.99,145.52 158.09,145.43 C158.14,145.39 158.14,145.39 158.20,145.36 C158.34,145.30 158.34,145.30 158.49,145.25 "/><path d="M158.32,146.44 C158.21,146.48 158.21,146.48 158.10,146.52 C158.00,146.58 158.00,146.59 157.91,146.66 C157.85,146.73 157.85,146.73 157.78,146.81 C157.73,146.90 157.73,146.90 157.68,147.00 C157.61,147.20 157.61,147.20 157.55,147.40 C157.52,147.80 157.52,147.80 157.49,148.20 C157.48,149.11 157.48,149.12 157.48,150.03 "/><path d="M157.17,149.85 C157.17,148.96 157.17,148.93 157.17,148.02 C157.20,147.62 157.20,147.62 157.24,147.22 C157.30,147.02 157.30,147.02 157.36,146.82 C157.41,146.72 157.41,146.72 157.47,146.63 C157.53,146.55 157.53,146.55 157.60,146.48 C157.69,146.41 157.69,146.40 157.78,146.34 C157.89,146.29 157.89,146.29 158.01,146.26 "/><path d="M158.96,147.86 C158.91,147.51 158.91,147.51 158.88,147.16 C158.91,146.76 158.91,146.76 158.95,146.36 C159.05,146.01 159.05,146.01 159.16,145.66 C159.33,145.33 159.33,145.33 159.51,145.01 C159.70,144.76 159.70,144.76 159.90,144.51 C160.13,144.31 160.14,144.31 160.37,144.11 C160.45,144.06 160.45,144.06 160.53,144.01 C160.83,143.89 160.83,143.89 161.12,143.77 "/><path d="M160.35,147.59 C160.48,147.54 160.48,147.54 160.62,147.48 C160.72,147.41 160.72,147.41 160.83,147.33 C160.90,147.24 160.90,147.24 160.98,147.15 C161.04,147.05 161.04,147.05 161.10,146.95 C161.16,146.75 161.16,146.75 161.23,146.54 "/><path d="M162.18,146.14 C162.07,146.49 162.06,146.49 161.94,146.83 C161.77,147.13 161.77,147.13 161.59,147.42 C161.39,147.66 161.38,147.66 161.17,147.88 C160.90,148.09 160.90,148.09 160.62,148.29 C160.29,148.43 160.29,148.43 159.96,148.56 "/><path d="M161.74,146.33 C161.68,146.49 161.68,146.49 161.62,146.65 C161.45,146.95 161.45,146.95 161.27,147.24 C161.07,147.47 161.07,147.48 160.86,147.70 C160.58,147.91 160.58,147.91 160.30,148.11 C159.98,148.25 159.98,148.25 159.64,148.38 "/><path d="M160.49,158.43 C160.78,158.31 160.78,158.31 161.07,158.19 C161.23,158.09 161.24,158.09 161.40,157.98 C161.65,157.75 161.65,157.75 161.90,157.52 C162.07,157.30 162.07,157.30 162.23,157.06 C162.37,156.79 162.37,156.79 162.50,156.51 C162.55,156.33 162.55,156.33 162.59,156.14 "/><path d="M163.01,155.97 C162.92,156.33 162.92,156.33 162.81,156.69 C162.69,156.97 162.68,156.97 162.55,157.24 C162.38,157.48 162.38,157.48 162.21,157.71 C161.97,157.94 161.96,157.94 161.71,158.16 C161.55,158.27 161.55,158.27 161.38,158.37 C161.10,158.49 161.10,158.50 160.80,158.61 "/><path d="M159.81,158.00 C159.75,157.60 159.75,157.60 159.70,157.20 C159.73,156.80 159.73,156.79 159.78,156.39 C159.87,156.04 159.87,156.04 159.98,155.70 C160.13,155.40 160.13,155.40 160.28,155.11 C160.49,154.84 160.49,154.83 160.71,154.57 C160.94,154.36 160.95,154.37 161.19,154.17 C161.29,154.10 161.29,154.10 161.39,154.04 C161.67,153.92 161.67,153.92 161.94,153.80 "/><path d="M161.59,154.77 C161.49,154.81 161.49,154.81 161.38,154.85 C161.27,154.93 161.27,154.93 161.16,155.02 C161.07,155.12 161.07,155.12 160.98,155.23 C160.91,155.35 160.91,155.35 160.84,155.48 C160.78,155.64 160.78,155.64 160.73,155.80 C160.69,156.10 160.70,156.10 160.66,156.41 C160.66,156.49 160.66,156.49 160.66,156.57 C160.69,156.91 160.68,156.91 160.72,157.26 C160.77,157.39 160.77,157.39 160.83,157.51 "/><path d="M160.51,157.33 C160.45,157.21 160.45,157.21 160.41,157.08 C160.37,156.73 160.37,156.73 160.34,156.38 C160.34,156.31 160.34,156.31 160.34,156.23 C160.38,155.92 160.38,155.92 160.42,155.62 C160.47,155.46 160.47,155.46 160.53,155.30 C160.60,155.17 160.60,155.17 160.67,155.05 C160.76,154.94 160.76,154.94 160.85,154.84 C160.96,154.75 160.96,154.75 161.07,154.67 C161.17,154.62 161.17,154.62 161.28,154.58 "/><path d="M159.85,146.24 C159.87,145.99 159.87,145.99 159.91,145.74 C159.97,145.55 159.98,145.55 160.05,145.37 C160.10,145.28 160.10,145.28 160.16,145.19 C160.25,145.08 160.25,145.08 160.34,144.97 C160.45,144.88 160.46,144.88 160.57,144.79 C160.63,144.76 160.63,144.76 160.70,144.74 C160.79,144.72 160.79,144.72 160.88,144.70 "/><path d="M159.53,146.06 C159.56,145.81 159.56,145.80 159.59,145.55 C159.66,145.37 159.66,145.37 159.73,145.19 C159.79,145.10 159.79,145.10 159.85,145.01 C159.93,144.90 159.93,144.90 160.02,144.79 C160.14,144.70 160.14,144.70 160.26,144.61 C160.32,144.58 160.32,144.58 160.38,144.55 C160.47,144.53 160.47,144.53 160.56,144.52 "/><path d="M161.33,157.59 C161.47,157.50 161.48,157.50 161.61,157.40 C161.69,157.31 161.69,157.31 161.77,157.21 C161.82,157.13 161.82,157.13 161.87,157.04 C161.93,156.90 161.93,156.90 161.98,156.75 C162.02,156.56 162.02,156.56 162.05,156.37 "/><path d="M164.85,142.99 C164.63,143.19 164.63,143.19 164.41,143.40 C164.18,143.59 164.18,143.59 163.95,143.78 C163.68,144.02 163.68,144.02 163.40,144.27 C163.23,144.46 163.23,144.46 163.07,144.66 C162.98,144.82 162.98,144.82 162.89,144.98 C162.81,145.18 162.81,145.18 162.75,145.38 C162.71,145.61 162.71,145.61 162.69,145.84 C162.71,146.03 162.71,146.03 162.74,146.21 "/><path d="M163.45,146.59 C163.66,146.50 163.66,146.50 163.87,146.41 C163.97,146.35 163.97,146.35 164.06,146.29 C164.27,146.10 164.27,146.11 164.48,145.91 C164.73,145.57 164.73,145.56 164.98,145.21 "/><path d="M166.06,145.08 C165.98,144.95 165.98,144.95 165.92,144.82 C165.87,144.68 165.87,144.68 165.84,144.54 C165.81,144.20 165.82,144.20 165.80,143.86 C165.80,143.21 165.80,143.21 165.80,142.57 C165.79,142.27 165.79,142.27 165.77,141.97 C165.73,141.82 165.73,141.82 165.68,141.67 "/><path d="M165.29,141.46 C165.10,141.49 165.10,141.49 164.92,141.53 C164.62,141.67 164.62,141.67 164.33,141.82 C164.17,141.91 164.17,141.91 164.02,142.01 C163.76,142.23 163.76,142.23 163.51,142.45 C163.36,142.63 163.36,142.63 163.22,142.82 C163.10,143.05 163.10,143.05 162.99,143.27 C162.90,143.57 162.90,143.57 162.82,143.87 "/><path d="M163.64,143.54 C163.71,143.34 163.71,143.33 163.78,143.14 C163.83,143.05 163.83,143.05 163.89,142.97 C163.96,142.90 163.96,142.90 164.03,142.83 C164.13,142.75 164.13,142.75 164.23,142.68 C164.36,142.62 164.36,142.62 164.49,142.56 C164.57,142.53 164.57,142.53 164.65,142.52 "/><path d="M164.34,142.34 C164.25,142.35 164.25,142.35 164.17,142.37 C164.05,142.43 164.05,142.43 163.92,142.50 C163.82,142.57 163.81,142.57 163.71,142.65 C163.64,142.72 163.64,142.72 163.57,142.79 C163.52,142.87 163.52,142.87 163.47,142.95 C163.40,143.15 163.40,143.15 163.33,143.35 "/><path d="M164.66,145.03 C164.42,145.38 164.42,145.38 164.16,145.73 C163.96,145.92 163.95,145.92 163.74,146.11 C163.65,146.17 163.65,146.17 163.56,146.23 C163.35,146.32 163.35,146.32 163.14,146.41 "/><path d="M164.53,143.61 C164.15,143.94 164.15,143.94 163.76,144.28 C163.63,144.41 163.63,144.41 163.50,144.55 C163.44,144.64 163.44,144.64 163.39,144.74 C163.37,144.81 163.37,144.81 163.34,144.88 C163.33,144.95 163.33,144.95 163.33,145.02 C163.34,145.10 163.34,145.10 163.36,145.19 "/><path d="M163.68,145.38 C163.66,145.29 163.66,145.29 163.64,145.20 C163.65,145.13 163.65,145.13 163.66,145.06 C163.68,144.99 163.68,144.99 163.71,144.92 C163.76,144.82 163.76,144.82 163.82,144.73 C163.94,144.59 163.94,144.59 164.08,144.46 C164.46,144.13 164.46,144.13 164.85,143.79 "/><path d="M164.85,143.79 C164.85,144.02 164.85,144.03 164.84,144.26 C164.83,144.39 164.83,144.39 164.81,144.53 C164.78,144.65 164.77,144.65 164.73,144.77 C164.67,144.88 164.67,144.88 164.60,145.00 C164.49,145.13 164.49,145.13 164.38,145.26 C164.26,145.36 164.26,145.36 164.14,145.45 C164.08,145.48 164.08,145.48 164.02,145.50 C163.95,145.52 163.95,145.52 163.87,145.52 "/><path d="M165.74,144.89 C165.67,144.77 165.67,144.77 165.60,144.64 C165.56,144.50 165.56,144.50 165.52,144.36 C165.50,144.02 165.50,144.02 165.49,143.67 C165.48,143.03 165.49,143.03 165.49,142.39 C165.47,142.09 165.47,142.09 165.45,141.79 C165.41,141.63 165.41,141.63 165.36,141.48 "/><path d="M166.66,143.52 C166.61,143.10 166.60,143.10 166.56,142.68 C166.59,142.27 166.59,142.27 166.63,141.87 C166.72,141.52 166.72,141.52 166.82,141.18 C166.96,140.89 166.96,140.89 167.11,140.60 C167.28,140.37 167.28,140.37 167.46,140.14 C167.67,139.95 167.68,139.95 167.89,139.77 C167.96,139.72 167.96,139.72 168.03,139.68 C168.24,139.60 168.24,139.60 168.44,139.52 "/><path d="M169.04,142.75 C168.90,143.02 168.90,143.03 168.74,143.30 C168.58,143.50 168.58,143.51 168.40,143.71 C168.19,143.88 168.19,143.88 167.98,144.04 C167.78,144.12 167.78,144.12 167.57,144.20 "/><path d="M168.66,142.69 C168.55,142.90 168.55,142.90 168.43,143.11 C168.26,143.32 168.26,143.32 168.09,143.53 C167.88,143.70 167.88,143.70 167.67,143.86 C167.46,143.94 167.46,143.94 167.25,144.01 "/><path d="M168.33,140.32 C168.19,140.41 168.19,140.41 168.06,140.51 C167.96,140.63 167.96,140.63 167.87,140.75 C167.78,140.91 167.78,140.91 167.69,141.08 C167.65,141.18 167.65,141.18 167.62,141.29 C167.57,141.54 167.57,141.54 167.53,141.80 C167.52,141.93 167.52,141.93 167.52,142.06 C167.53,142.31 167.52,142.31 167.54,142.56 C167.60,142.76 167.60,142.76 167.67,142.97 "/><path d="M168.00,143.15 C168.10,143.13 168.10,143.13 168.20,143.10 C168.24,143.08 168.24,143.08 168.29,143.05 C168.39,142.97 168.39,142.97 168.50,142.89 C168.59,142.78 168.59,142.77 168.68,142.66 C168.78,142.48 168.78,142.48 168.87,142.30 C168.91,142.17 168.91,142.17 168.95,142.04 C169.00,141.74 169.00,141.74 169.04,141.45 C169.04,141.37 169.04,141.37 169.04,141.29 C169.01,140.97 169.01,140.97 168.98,140.65 C168.93,140.53 168.93,140.52 168.87,140.40 "/><path d="M168.01,140.14 C167.88,140.23 167.87,140.23 167.74,140.33 C167.65,140.44 167.65,140.45 167.55,140.56 C167.46,140.73 167.46,140.73 167.37,140.90 C167.34,141.00 167.34,141.00 167.30,141.10 C167.26,141.36 167.25,141.36 167.21,141.61 C167.20,141.75 167.21,141.75 167.20,141.88 C167.21,142.13 167.21,142.13 167.23,142.37 C167.29,142.58 167.29,142.58 167.35,142.79 "/><path d="M167.84,96.21 C167.93,96.28 167.93,96.28 168.02,96.35 C168.30,96.61 168.30,96.61 168.58,96.87 C168.98,97.32 168.98,97.32 169.37,97.77 C169.68,98.17 169.68,98.17 169.98,98.58 C170.29,99.06 170.29,99.06 170.60,99.55 C170.77,99.87 170.77,99.87 170.92,100.20 C171.08,100.65 171.08,100.65 171.23,101.09 C171.37,101.62 171.36,101.62 171.49,102.15 C171.51,102.26 171.51,102.26 171.53,102.37 "/><path d="M174.89,169.80 C174.01,152.01 174.01,152.01 173.13,134.23 C172.77,126.65 172.77,126.65 172.41,119.07 C172.06,111.28 172.08,111.28 171.72,103.49 C171.64,102.94 171.64,102.94 171.53,102.39 "/><path d="M121.90,187.03 L121.94,186.19 "/><path d="M122.12,182.56 L121.94,186.19 "/><path d="M123.67,147.93 L123.71,147.22 L123.60,149.43 L122.10,182.94 L122.12,182.56 "/><path d="M125.27,110.52 L123.71,147.22 L124.53,131.02 "/><path d="M146.33,132.14 L144.39,183.70 "/><path d="M144.25,187.50 L174.88,169.81 "/><path d="M149.29,149.99 L148.97,149.81 L147.82,150.47 L147.82,150.83 L149.29,149.99 L149.29,154.76 L150.24,154.21 L149.92,154.03 L149.92,149.26 L150.24,149.44 L150.24,154.21 "/><path d="M147.82,150.47 L147.82,149.88 L151.70,147.64 L151.70,148.60 L150.24,149.44 "/><path d="M146.33,132.14 L159.66,124.49 L172.32,117.13 "/><path d="M149.92,154.03 L149.29,154.39 "/><path d="M149.92,149.26 L151.38,148.41 L151.70,148.60 "/><path d="M154.75,161.17 L154.75,161.76 L151.57,163.60 "/><path d="M151.57,163.96 L151.57,158.24 L152.53,157.69 L152.53,162.46 L155.07,160.99 L155.07,161.95 L151.57,163.96 "/><path d="M151.38,148.41 L151.38,147.83 "/><path d="M152.53,162.46 L152.21,162.28 L152.21,157.87 "/><path d="M152.84,152.71 L152.33,153.00 L152.33,152.63 L152.97,152.27 L153.29,152.45 L152.84,152.71 "/><path d="M152.33,152.63 L152.33,147.28 L153.29,146.73 L153.29,148.75 L152.97,148.57 L152.97,146.91 "/><path d="M154.24,148.50 L154.37,148.52 L154.46,148.59 L154.52,148.73 L154.56,149.50 L154.56,151.71 L155.51,151.16 L155.51,148.48 L155.43,147.78 L155.26,147.51 L155.06,147.41 L154.75,147.42 "/><path d="M153.93,148.32 L154.05,148.33 L154.37,148.52 "/><path d="M154.75,161.76 L155.07,161.95 "/><path d="M155.51,151.16 L155.20,150.98 L154.56,151.35 "/><path d="M155.00,147.41 L155.11,147.60 L155.19,148.30 L155.20,150.98 "/><path d="M156.09,160.89 L155.87,160.78 L155.64,160.41 "/><path d="M157.99,156.12 L158.46,156.13 L158.86,156.36 L159.12,156.83 "/><path d="M156.71,160.95 L156.21,160.96 L156.09,160.89 "/><path d="M158.46,156.13 L158.55,156.18 L158.80,156.65 "/><path d="M156.40,160.77 L155.90,160.78 L155.86,160.75 "/><path d="M156.34,159.67 L156.20,159.37 "/><path d="M157.33,156.89 L157.54,156.91 L157.85,157.09 L157.64,157.07 "/><path d="M156.52,159.56 L156.66,159.85 L156.86,159.98 L156.34,159.67 "/><path d="M157.85,157.09 L158.05,157.22 L158.19,157.51 "/><path d="M157.07,160.00 L156.86,159.98 "/><path d="M157.17,146.25 L157.48,146.43 "/><path d="M158.49,145.25 L158.75,145.27 L158.53,146.45 L158.32,146.44 "/><path d="M157.48,150.03 L156.53,150.58 L156.53,146.40 L157.17,146.03 L157.17,146.25 L157.17,146.23 "/><path d="M156.53,150.21 L157.17,149.85 "/><path d="M158.01,146.26 L158.21,146.26 L158.53,146.45 "/><path d="M157.17,146.03 L157.48,145.85 L157.48,146.43 "/><path d="M157.48,150.03 L157.17,149.85 "/><path d="M158.40,145.28 L158.21,146.26 "/><path d="M158.86,156.36 L158.55,156.18 "/><path d="M159.23,148.38 L158.96,147.86 "/><path d="M161.12,143.77 L161.55,143.77 L161.89,143.98 L162.11,144.37 L162.24,145.20 L162.24,145.52 L159.83,146.91 L159.88,147.26 L159.99,147.47 L160.15,147.57 L160.35,147.59 "/><path d="M161.23,146.54 L162.18,146.14 "/><path d="M159.96,148.56 L159.51,148.55 L159.23,148.38 "/><path d="M159.64,148.38 L159.23,148.37 "/><path d="M160.08,158.42 L160.49,158.43 "/><path d="M162.59,156.14 L163.01,155.97 "/><path d="M160.80,158.61 L160.38,158.61 L160.03,158.39 L159.81,158.00 "/><path d="M161.94,153.80 L162.33,153.77 L162.48,153.92 L162.63,154.28 L162.94,154.46 L162.79,154.10 L162.56,153.85 L162.33,153.77 "/><path d="M161.82,154.80 L161.74,154.77 L161.59,154.77 "/><path d="M160.83,157.51 L160.98,157.63 L160.66,157.44 L160.51,157.33 "/><path d="M161.28,154.58 L161.43,154.59 L161.82,154.80 L161.92,154.92 L161.99,155.16 L162.94,154.46 "/><path d="M160.15,147.57 L159.84,147.39 L159.86,147.39 "/><path d="M159.84,147.39 L159.67,147.29 L159.57,147.08 L159.52,146.73 L159.83,146.91 "/><path d="M159.52,146.73 L161.93,145.34 L162.24,145.52 "/><path d="M160.88,144.70 L161.04,144.75 L161.14,144.83 L161.24,145.03 L161.29,145.41 L159.85,146.24 L159.53,146.06 "/><path d="M160.56,144.52 L160.73,144.57 L161.04,144.75 "/><path d="M160.98,157.63 L161.14,157.65 L161.33,157.59 "/><path d="M162.05,156.37 L162.59,156.14 "/><path d="M162.63,154.28 L161.86,154.85 "/><path d="M161.51,154.62 L161.52,154.64 "/><path d="M161.93,145.34 L161.93,145.02 L161.80,144.19 L161.58,143.80 L161.54,143.77 "/><path d="M164.73,142.54 L164.79,142.59 L164.83,142.70 L164.85,142.99 "/><path d="M162.74,146.21 L162.90,146.48 L163.14,146.60 L163.45,146.59 "/><path d="M164.98,145.21 L165.10,145.63 L166.06,145.08 "/><path d="M165.68,141.67 L165.55,141.53 L165.29,141.46 "/><path d="M162.82,143.87 L163.64,143.54 "/><path d="M164.65,142.52 L164.73,142.54 L164.42,142.35 L164.34,142.34 "/><path d="M163.33,143.35 L163.64,143.54 "/><path d="M164.98,145.21 L164.66,145.03 "/><path d="M163.14,146.41 L162.86,146.42 "/><path d="M164.85,143.79 L164.53,143.61 "/><path d="M163.36,145.19 L163.43,145.29 L163.75,145.47 L163.68,145.38 "/><path d="M163.87,145.52 L163.75,145.47 "/><path d="M163.33,143.35 L162.92,143.52 "/><path d="M164.41,150.83 L164.41,153.48 L164.72,153.66 L164.72,150.65 L163.77,151.20 L163.77,156.92 L164.72,156.37 L164.41,156.19 L163.77,156.56 "/><path d="M164.72,156.37 L164.72,155.03 L164.41,154.85 L164.41,156.19 "/><path d="M164.72,155.03 L165.11,154.30 L165.84,155.36 L166.66,154.89 L165.40,152.99 L165.72,153.17 L166.91,150.93 L165.83,151.55 L164.72,153.66 "/><path d="M164.41,154.85 L164.80,154.11 L165.11,154.30 "/><path d="M165.72,153.17 L166.98,155.07 L166.02,155.62 L165.84,155.36 "/><path d="M165.40,152.99 L166.31,151.27 "/><path d="M165.01,145.32 L165.74,144.89 L166.06,145.08 "/><path d="M166.66,154.89 L166.98,155.07 "/><path d="M166.88,143.94 L166.66,143.52 "/><path d="M168.44,139.52 L168.83,139.55 L169.04,139.67 L169.04,137.63 L169.99,137.08 L169.99,142.80 L169.04,143.35 L169.04,142.75 "/><path d="M167.57,144.20 L167.22,144.17 L166.88,143.94 "/><path d="M167.25,144.01 L166.96,144.00 "/><path d="M168.72,140.28 L168.54,140.25 L168.33,140.32 "/><path d="M167.67,142.97 L167.83,143.12 L168.00,143.15 "/><path d="M168.87,140.40 L168.72,140.28 L168.40,140.10 L168.22,140.07 L168.01,140.14 "/><path d="M167.35,142.79 L167.52,142.93 L167.83,143.12 "/><path d="M169.99,142.80 L169.68,142.62 L169.04,142.99 "/><path d="M168.73,142.57 L169.04,142.75 "/><path d="M169.68,142.62 L169.68,137.26 "/><path d="M173.56,166.86 L172.31,135.01 L171.70,119.10 "/><path d="M172.46,120.15 L173.30,139.37 "/><path d="M173.34,138.56 L173.37,139.37 "/><path d="M173.18,135.31 L173.17,135.06 "/><path d="M172.46,120.15 L172.41,119.07 "/><path d="M174.52,162.37 L174.42,160.37 "/><path d="M173.89,150.46 L173.93,151.30 "/><path d="M175.14,175.07 L175.14,173.99 L175.09,173.20 L175.13,173.99 "/><path d="M174.52,162.37 L175.09,173.20 L175.04,172.25 "/></g></g><g id="Actor_.1"><g style="stroke:#000020;stroke-width:0.079"><path d="M129.16,101.75 C129.15,102.12 129.15,102.13 129.16,102.50 C129.24,102.78 129.24,102.78 129.34,103.05 C129.79,103.95 129.79,103.95 130.26,104.84 C130.64,105.35 130.64,105.35 131.04,105.84 "/><path d="M131.06,105.86 C131.36,106.19 131.36,106.20 131.68,106.52 C132.62,107.28 132.62,107.28 133.56,108.04 C134.09,108.38 134.09,108.38 134.62,108.70 "/><path d="M139.57,110.79 C139.02,110.62 139.02,110.62 138.48,110.44 C137.16,109.90 137.16,109.91 135.85,109.36 C135.25,109.05 135.25,109.05 134.66,108.72 "/><path d="M132.30,89.14 C132.00,88.83 132.00,88.83 131.71,88.51 C131.45,88.19 131.45,88.19 131.20,87.86 C130.93,87.43 130.93,87.42 130.68,86.99 "/><path d="M131.03,86.79 C131.23,87.17 131.23,87.17 131.45,87.56 C131.72,87.93 131.72,87.93 131.99,88.29 C132.33,88.66 132.33,88.66 132.67,89.02 C133.07,89.36 133.07,89.37 133.48,89.70 C134.10,90.12 134.11,90.12 134.73,90.54 C134.78,90.55 134.78,90.55 134.82,90.57 "/><path d="M131.96,97.01 C132.30,96.36 132.30,96.36 132.65,95.71 C133.03,95.02 133.03,95.02 133.43,94.33 C133.87,93.59 133.87,93.59 134.32,92.86 C134.80,92.09 134.80,92.09 135.29,91.33 "/><path d="M135.44,91.24 C135.92,92.46 135.92,92.46 136.39,93.69 C136.89,94.89 136.89,94.89 137.40,96.09 C137.95,97.29 137.94,97.29 138.49,98.49 C139.07,99.64 139.07,99.64 139.64,100.79 "/><path d="M139.64,92.62 C139.06,92.49 139.06,92.49 138.49,92.35 C137.95,92.19 137.95,92.19 137.40,92.02 C136.90,91.84 136.90,91.84 136.39,91.65 C135.92,91.45 135.92,91.45 135.44,91.24 C134.88,90.94 134.88,90.94 134.31,90.64 C134.02,90.46 134.03,90.46 133.74,90.28 C133.36,90.01 133.36,90.01 132.98,89.73 C132.64,89.43 132.64,89.43 132.30,89.14 "/><path d="M132.24,71.15 C132.27,71.05 132.27,71.05 132.32,70.95 C132.37,70.86 132.37,70.86 132.43,70.78 C132.59,70.57 132.59,70.57 132.75,70.37 "/><path d="M132.22,70.02 C132.22,69.67 132.22,69.67 132.22,69.32 C132.23,69.27 132.23,69.27 132.24,69.23 C132.27,69.16 132.27,69.16 132.30,69.09 C132.40,68.95 132.40,68.95 132.52,68.81 "/><path d="M132.74,69.02 C132.61,69.13 132.61,69.13 132.47,69.24 C132.41,69.29 132.41,69.29 132.34,69.33 C132.31,69.34 132.31,69.34 132.29,69.35 "/><path d="M137.31,83.39 C136.95,82.41 136.95,82.41 136.60,81.44 C136.29,80.46 136.29,80.46 135.98,79.47 C135.71,78.52 135.71,78.52 135.45,77.56 C135.22,76.62 135.22,76.62 135.01,75.67 C134.71,74.01 134.70,74.01 134.44,72.34 C134.48,71.74 134.48,71.73 134.56,71.13 "/><path d="M132.36,71.31 C132.39,71.30 132.39,71.30 132.43,71.29 C132.50,71.24 132.50,71.24 132.57,71.18 C132.71,71.06 132.71,71.06 132.85,70.93 "/><path d="M132.71,69.98 C132.57,70.10 132.57,70.10 132.43,70.21 C132.36,70.26 132.36,70.26 132.30,70.31 C132.27,70.32 132.27,70.32 132.24,70.33 "/><path d="M133.15,67.52 C132.90,67.77 132.90,67.77 132.66,68.02 C132.59,68.11 132.59,68.11 132.53,68.20 C132.50,68.26 132.50,68.26 132.48,68.32 "/><path d="M132.90,67.38 C132.97,67.28 132.97,67.28 133.04,67.17 C133.15,67.05 133.15,67.05 133.27,66.94 C133.44,66.77 133.45,66.78 133.62,66.61 C133.74,66.43 133.74,66.43 133.86,66.24 "/><path d="M133.66,72.79 C133.98,74.12 133.98,74.12 134.32,75.45 C134.62,76.46 134.62,76.46 134.93,77.47 C135.28,78.49 135.28,78.49 135.64,79.50 C136.02,80.48 136.02,80.48 136.42,81.47 C136.84,82.44 136.84,82.44 137.28,83.42 "/><path d="M140.68,74.53 C141.92,74.93 141.92,74.93 143.17,75.30 C144.47,75.54 144.47,75.54 145.78,75.76 C146.48,75.82 146.49,75.82 147.19,75.88 "/><path d="M136.60,72.01 C136.09,71.49 136.08,71.48 135.61,70.94 C135.19,70.19 135.20,70.19 134.81,69.43 C134.70,69.02 134.70,69.02 134.61,68.61 "/><path d="M133.48,66.49 C133.49,66.47 133.49,66.47 133.50,66.46 C133.58,66.36 133.58,66.35 133.67,66.26 C133.89,66.05 133.89,66.05 134.12,65.85 "/><path d="M135.29,91.33 C135.81,92.68 135.81,92.68 136.33,94.02 C136.89,95.34 136.89,95.34 137.45,96.66 C138.03,97.91 138.03,97.91 138.61,99.15 C139.21,100.36 139.21,100.36 139.82,101.57 "/><path d="M137.31,83.39 C138.32,82.45 138.32,82.45 139.33,81.51 C139.88,81.02 139.88,81.02 140.43,80.53 C141.01,80.02 141.01,80.02 141.58,79.52 C142.34,78.88 142.34,78.88 143.09,78.24 "/><path d="M149.22,92.79 C148.48,92.86 148.48,92.86 147.74,92.92 C147.01,92.96 147.01,92.96 146.27,92.99 C145.51,92.99 145.51,92.99 144.75,92.98 C144.00,92.95 143.99,92.95 143.24,92.91 C142.66,92.85 142.66,92.85 142.08,92.79 C141.22,92.66 141.22,92.66 140.37,92.53 C139.69,92.38 139.69,92.38 139.02,92.23 C138.37,92.04 138.37,92.04 137.73,91.85 "/><path d="M145.39,111.89 C144.94,111.85 144.94,111.85 144.48,111.79 C142.93,111.53 142.93,111.54 141.38,111.26 C140.50,111.04 140.49,111.04 139.61,110.80 "/><path d="M145.44,111.89 C146.56,111.97 146.56,111.97 147.69,112.02 C149.31,112.00 149.31,111.99 150.92,111.95 C151.22,111.93 151.22,111.93 151.52,111.90 "/><path d="M139.64,92.62 C139.92,92.68 139.92,92.68 140.21,92.74 C141.13,92.88 141.13,92.88 142.06,93.02 C142.68,93.08 142.68,93.08 143.31,93.13 C143.96,93.17 143.96,93.17 144.61,93.19 "/><path d="M140.44,75.05 C140.58,75.11 140.58,75.11 140.73,75.16 C141.88,75.51 141.88,75.52 143.03,75.86 C143.64,75.99 143.64,75.99 144.26,76.11 "/><path d="M142.00,22.45 C142.41,22.11 142.44,22.13 142.90,21.83 C143.46,21.54 143.47,21.54 144.04,21.28 C144.68,21.06 144.68,21.06 145.31,20.87 C146.00,20.73 146.00,20.73 146.69,20.60 C147.41,20.54 147.41,20.54 148.14,20.49 C148.86,20.50 148.86,20.50 149.59,20.52 C150.30,20.61 150.30,20.61 151.01,20.72 C151.67,20.88 151.67,20.88 152.34,21.06 C152.59,21.15 152.59,21.15 152.84,21.25 C153.20,21.40 153.20,21.39 153.56,21.54 C154.08,21.83 154.09,21.83 154.60,22.14 C155.02,22.48 155.02,22.48 155.42,22.84 C155.73,23.21 155.72,23.22 156.01,23.61 C156.07,23.73 156.07,23.73 156.13,23.86 C156.24,24.14 156.24,24.14 156.35,24.43 C156.37,24.56 156.37,24.56 156.38,24.69 C156.40,24.98 156.40,24.98 156.42,25.27 C156.40,25.40 156.40,25.40 156.37,25.53 C156.30,25.82 156.30,25.82 156.21,26.11 C156.15,26.24 156.15,26.24 156.09,26.37 C155.92,26.64 155.92,26.64 155.75,26.91 C155.65,27.03 155.65,27.03 155.55,27.15 C155.29,27.40 155.29,27.40 155.04,27.65 C154.90,27.76 154.90,27.76 154.76,27.86 C154.43,28.08 154.43,28.08 154.10,28.30 C153.94,28.39 153.93,28.39 153.76,28.48 C153.37,28.66 153.37,28.66 152.98,28.83 C152.78,28.91 152.78,28.91 152.59,28.98 C152.14,29.12 152.14,29.12 151.70,29.24 C151.49,29.30 151.49,29.30 151.27,29.35 C150.79,29.43 150.79,29.43 150.31,29.51 C150.08,29.54 150.08,29.54 149.86,29.57 C149.36,29.60 149.36,29.60 148.87,29.63 C148.63,29.63 148.63,29.64 148.40,29.64 C147.90,29.62 147.90,29.62 147.41,29.59 C147.17,29.57 147.17,29.57 146.94,29.55 C146.46,29.47 146.46,29.47 145.98,29.40 C145.76,29.35 145.76,29.35 145.55,29.31 C145.09,29.18 145.09,29.18 144.64,29.06 C144.44,28.99 144.44,28.99 144.24,28.92 C143.84,28.75 143.84,28.75 143.44,28.58 C143.27,28.49 143.26,28.49 143.09,28.40 C142.75,28.19 142.75,28.19 142.41,27.98 C142.26,27.88 142.26,27.88 142.13,27.77 C141.85,27.53 141.85,27.53 141.58,27.29 C141.47,27.17 141.47,27.17 141.37,27.05 C141.18,26.78 141.18,26.78 140.99,26.51 C140.92,26.39 140.92,26.39 140.87,26.27 C140.76,25.98 140.76,25.98 140.65,25.69 C140.63,25.57 140.63,25.56 140.62,25.44 C140.60,25.14 140.60,25.14 140.59,24.85 C140.60,24.72 140.61,24.72 140.63,24.60 C140.71,24.31 140.70,24.30 140.79,24.01 C141.01,23.61 141.01,23.61 141.25,23.21 C141.61,22.83 141.60,22.79 142.00,22.45 "/><path d="M141.93,22.49 C141.54,22.88 141.54,22.88 141.16,23.29 C140.92,23.69 140.92,23.69 140.69,24.10 C140.57,24.56 140.57,24.56 140.46,25.03 C140.37,25.66 140.37,25.66 140.28,26.30 "/><path d="M144.25,27.77 C144.76,27.99 144.76,27.99 145.27,28.20 C145.80,28.35 145.80,28.35 146.33,28.49 C146.39,28.50 146.39,28.50 146.44,28.51 C147.07,28.60 147.07,28.61 147.70,28.68 C148.34,28.70 148.34,28.70 148.98,28.70 C149.62,28.64 149.62,28.64 150.25,28.57 C150.85,28.44 150.85,28.44 151.45,28.29 C151.99,28.10 151.99,28.10 152.52,27.89 C152.96,27.64 152.97,27.64 153.40,27.38 C153.76,27.08 153.76,27.07 154.11,26.76 C154.35,26.42 154.35,26.42 154.58,26.07 C154.67,25.82 154.67,25.82 154.75,25.56 C154.78,25.46 154.78,25.46 154.81,25.35 C154.81,25.09 154.80,25.09 154.80,24.83 C154.79,24.72 154.79,24.72 154.77,24.61 C154.69,24.35 154.68,24.35 154.59,24.10 C154.54,23.99 154.54,23.99 154.48,23.89 C154.31,23.65 154.31,23.65 154.13,23.41 C154.04,23.31 154.04,23.31 153.95,23.22 C153.70,23.00 153.70,23.00 153.44,22.79 C153.32,22.70 153.32,22.70 153.19,22.62 C152.87,22.44 152.87,22.44 152.55,22.26 C152.40,22.19 152.40,22.19 152.24,22.13 C151.87,21.99 151.87,21.99 151.49,21.85 C151.32,21.80 151.32,21.80 151.14,21.75 C150.73,21.66 150.73,21.66 150.31,21.57 C150.12,21.54 150.12,21.54 149.93,21.51 C149.49,21.47 149.49,21.47 149.06,21.43 C148.86,21.42 148.86,21.42 148.66,21.42 C148.22,21.43 148.22,21.43 147.78,21.44 C147.58,21.45 147.58,21.45 147.38,21.47 C146.96,21.53 146.96,21.53 146.53,21.60 C146.34,21.63 146.34,21.64 146.15,21.68 C145.76,21.78 145.76,21.78 145.37,21.89 C145.19,21.96 145.19,21.96 145.02,22.02 C144.67,22.17 144.67,22.17 144.33,22.32 C144.18,22.40 144.18,22.40 144.03,22.49 C143.74,22.67 143.74,22.67 143.46,22.86 C143.34,22.96 143.34,22.96 143.22,23.06 C143.01,23.28 143.01,23.28 142.80,23.49 C142.71,23.60 142.71,23.60 142.63,23.71 C142.50,23.95 142.50,23.95 142.37,24.19 C142.32,24.31 142.32,24.31 142.27,24.42 C142.23,24.67 142.23,24.67 142.19,24.92 C142.18,25.04 142.18,25.04 142.18,25.16 C142.22,25.41 142.22,25.41 142.27,25.65 C142.31,25.77 142.30,25.78 142.34,25.89 C142.54,26.25 142.54,26.25 142.75,26.59 C143.07,26.92 143.07,26.92 143.40,27.23 C143.78,27.48 143.78,27.48 144.16,27.72 "/><path d="M151.56,111.89 C152.83,111.74 152.83,111.74 154.09,111.56 C155.59,111.24 155.59,111.23 157.10,110.89 C157.22,110.85 157.22,110.85 157.35,110.81 "/><path d="M147.14,79.50 C147.18,79.45 147.18,79.45 147.21,79.40 C147.25,79.30 147.25,79.30 147.29,79.20 C147.33,78.98 147.33,78.98 147.38,78.77 "/><path d="M146.70,79.58 C146.74,79.59 146.74,79.59 146.78,79.60 C146.85,79.61 146.85,79.61 146.91,79.61 C146.97,79.60 146.97,79.60 147.03,79.59 "/><path d="M147.84,25.32 C147.88,25.35 147.88,25.35 147.93,25.39 C148.03,25.44 148.03,25.44 148.13,25.48 C148.24,25.51 148.25,25.51 148.36,25.53 C148.42,25.53 148.42,25.53 148.47,25.53 C148.54,25.53 148.54,25.53 148.62,25.53 C148.74,25.51 148.74,25.51 148.86,25.48 C148.96,25.44 148.96,25.44 149.06,25.40 C149.09,25.37 149.10,25.37 149.13,25.35 C149.19,25.28 149.19,25.28 149.24,25.21 "/><path d="M149.22,24.93 C149.16,24.86 149.16,24.86 149.09,24.80 C148.98,24.74 148.98,24.74 148.87,24.69 C148.76,24.66 148.76,24.66 148.65,24.64 C148.53,24.64 148.53,24.64 148.41,24.63 C148.30,24.65 148.30,24.65 148.18,24.67 C148.05,24.73 148.05,24.73 147.92,24.79 C147.84,24.85 147.84,24.85 147.76,24.92 C147.73,24.95 147.73,24.96 147.70,24.99 C147.66,25.08 147.66,25.08 147.62,25.16 C147.60,25.21 147.60,25.21 147.59,25.26 "/><path d="M149.71,78.77 C149.78,79.02 149.78,79.02 149.85,79.28 C149.89,79.37 149.89,79.37 149.94,79.46 C149.96,79.48 149.96,79.48 149.99,79.51 "/><path d="M149.06,24.78 C149.09,24.80 149.09,24.80 149.13,24.82 C149.20,24.88 149.20,24.88 149.27,24.95 C149.30,24.99 149.30,24.99 149.33,25.03 "/><path d="M150.54,79.46 C150.57,79.41 150.57,79.41 150.60,79.36 C150.63,79.25 150.63,79.25 150.65,79.14 C150.66,78.92 150.66,78.92 150.68,78.70 "/><path d="M151.68,79.37 C151.65,79.34 151.65,79.34 151.62,79.32 C151.57,79.23 151.57,79.23 151.52,79.15 C151.43,78.90 151.43,78.89 151.35,78.64 "/><path d="M154.69,25.54 C154.60,25.86 154.60,25.86 154.49,26.17 C154.29,26.48 154.29,26.48 154.06,26.79 C153.73,27.10 153.72,27.10 153.37,27.39 C152.94,27.65 152.94,27.65 152.51,27.89 "/><path d="M152.96,78.42 C153.06,78.67 153.06,78.67 153.16,78.91 C153.22,79.00 153.22,79.00 153.27,79.08 C153.30,79.10 153.30,79.10 153.33,79.12 "/><path d="M153.56,21.54 C154.10,21.84 154.10,21.84 154.63,22.15 C155.05,22.49 155.05,22.49 155.46,22.85 C155.79,23.26 155.79,23.27 156.10,23.69 C156.30,24.14 156.30,24.14 156.47,24.60 C156.63,25.59 156.63,25.60 156.76,26.59 "/><path d="M155.06,78.85 C155.10,78.84 155.10,78.84 155.15,78.84 C155.20,78.83 155.21,78.83 155.26,78.81 C155.31,78.79 155.31,78.78 155.36,78.76 "/><path d="M154.52,78.10 C154.63,78.34 154.63,78.35 154.75,78.58 C154.81,78.66 154.81,78.66 154.87,78.74 C154.90,78.76 154.90,78.76 154.93,78.78 "/><path d="M156.01,77.70 C156.14,77.93 156.14,77.93 156.27,78.16 C156.33,78.24 156.33,78.24 156.40,78.31 C156.43,78.33 156.43,78.33 156.46,78.35 "/><path d="M157.90,77.82 C157.87,77.81 157.87,77.81 157.84,77.79 C157.77,77.72 157.77,77.72 157.71,77.64 C157.56,77.42 157.56,77.42 157.42,77.20 "/><path d="M158.21,76.88 C158.27,77.08 158.27,77.08 158.32,77.29 C158.34,77.40 158.34,77.40 158.36,77.51 C158.35,77.56 158.35,77.56 158.34,77.62 "/><path d="M159.24,77.21 C159.21,77.20 159.21,77.20 159.18,77.18 C159.11,77.12 159.11,77.12 159.04,77.05 C158.89,76.83 158.89,76.83 158.74,76.62 "/><path d="M159.94,75.96 C160.10,76.17 160.10,76.17 160.26,76.37 C160.33,76.44 160.33,76.44 160.40,76.50 C160.43,76.52 160.43,76.52 160.46,76.53 "/><path d="M160.82,76.32 C160.82,76.24 160.82,76.24 160.82,76.16 C160.79,76.05 160.79,76.05 160.76,75.95 C160.67,75.75 160.67,75.75 160.59,75.54 "/><path d="M161.01,75.24 C161.18,75.43 161.18,75.43 161.35,75.63 C161.42,75.69 161.42,75.69 161.49,75.75 C161.52,75.76 161.52,75.76 161.55,75.77 "/><path d="M162.76,74.80 C162.77,74.75 162.77,74.75 162.77,74.70 C162.75,74.63 162.76,74.63 162.74,74.55 C162.70,74.45 162.70,74.45 162.65,74.35 C162.55,74.16 162.55,74.16 162.44,73.96 "/><path d="M162.75,73.61 C162.92,73.79 162.92,73.79 163.10,73.96 C163.16,74.02 163.17,74.01 163.24,74.06 C163.26,74.07 163.26,74.07 163.29,74.08 "/><path d="M161.85,75.63 C161.86,75.59 161.86,75.59 161.87,75.54 C161.86,75.46 161.86,75.46 161.85,75.38 C161.82,75.28 161.81,75.28 161.78,75.18 C161.68,74.98 161.68,74.98 161.58,74.78 "/><path d="M162.49,74.96 C162.47,74.95 162.47,74.95 162.44,74.93 C162.37,74.88 162.37,74.88 162.30,74.82 C162.12,74.64 162.12,74.64 161.95,74.45 "/><path d="M163.52,73.91 C163.52,73.86 163.52,73.86 163.51,73.82 C163.49,73.74 163.49,73.74 163.47,73.67 C163.42,73.57 163.42,73.57 163.37,73.47 C163.26,73.28 163.26,73.28 163.14,73.10 "/><path d="M163.38,72.73 C163.56,72.90 163.56,72.90 163.73,73.06 C163.80,73.11 163.80,73.11 163.87,73.15 C163.89,73.16 163.89,73.16 163.92,73.17 "/><path d="M164.76,69.28 C164.76,69.22 164.76,69.22 164.75,69.16 C164.73,69.12 164.73,69.12 164.72,69.08 C164.65,68.97 164.65,68.97 164.57,68.86 C164.36,68.64 164.36,68.64 164.15,68.41 "/><path d="M164.10,73.04 C164.10,73.01 164.10,73.01 164.11,72.98 C164.10,72.94 164.10,72.94 164.09,72.89 C164.07,72.82 164.07,72.82 164.04,72.74 C163.98,72.65 163.98,72.65 163.93,72.55 C163.81,72.37 163.81,72.37 163.68,72.20 "/><path d="M164.05,71.27 C164.19,71.44 164.19,71.44 164.32,71.61 C164.38,71.70 164.38,71.70 164.44,71.79 C164.47,71.86 164.47,71.86 164.50,71.94 C164.51,72.01 164.52,72.01 164.52,72.09 "/><path d="M164.74,71.24 C164.75,71.23 164.75,71.23 164.76,71.21 C164.77,71.16 164.77,71.16 164.78,71.11 C164.77,71.08 164.77,71.08 164.77,71.05 C164.71,70.93 164.72,70.93 164.66,70.82 C164.46,70.57 164.46,70.57 164.26,70.32 "/><path d="M167.84,102.50 C167.89,102.32 167.89,102.31 167.93,102.13 C168.00,101.20 168.01,101.19 168.06,100.26 C167.97,99.63 167.97,99.62 167.84,98.99 "/><path d="M147.23,89.89 C147.19,89.91 147.19,89.91 147.14,89.93 C147.09,89.95 147.09,89.95 147.03,89.96 C146.97,89.96 146.97,89.96 146.91,89.97 "/><path d="M148.49,90.01 C148.44,90.01 148.44,90.01 148.38,90.00 C148.33,89.99 148.33,89.99 148.28,89.97 C148.24,89.95 148.24,89.95 148.21,89.93 "/><path d="M154.74,89.14 C154.78,89.17 154.78,89.17 154.82,89.19 C154.87,89.20 154.87,89.20 154.93,89.21 C155.04,89.20 155.04,89.20 155.15,89.20 "/><path d="M161.33,86.20 C161.38,86.20 161.38,86.20 161.44,86.21 C161.49,86.20 161.49,86.20 161.55,86.20 C161.60,86.18 161.60,86.18 161.65,86.17 C161.69,86.14 161.69,86.14 161.73,86.12 "/><path d="M164.00,83.55 C163.96,83.57 163.96,83.57 163.92,83.59 C163.87,83.61 163.87,83.61 163.82,83.62 C163.77,83.63 163.77,83.63 163.71,83.63 "/><path d="M146.51,89.86 C146.55,89.88 146.55,89.88 146.58,89.91 C146.63,89.92 146.63,89.92 146.68,89.94 C146.73,89.95 146.73,89.95 146.79,89.96 "/><path d="M132.57,81.81 C132.51,81.80 132.51,81.80 132.45,81.79 C132.40,81.77 132.40,81.77 132.35,81.75 C132.32,81.72 132.32,81.72 132.28,81.69 "/><path d="M160.24,86.94 C160.29,86.95 160.29,86.95 160.35,86.96 C160.40,86.95 160.40,86.95 160.46,86.95 C160.51,86.94 160.51,86.94 160.56,86.93 C160.61,86.91 160.61,86.91 160.66,86.88 "/><path d="M148.93,89.91 C148.89,89.94 148.89,89.94 148.85,89.96 C148.79,89.98 148.79,89.98 148.74,90.00 C148.68,90.00 148.68,90.00 148.62,90.01 "/><path d="M159.02,87.61 C159.07,87.62 159.07,87.62 159.12,87.64 C159.18,87.64 159.18,87.64 159.24,87.64 C159.29,87.63 159.29,87.63 159.34,87.62 C159.39,87.60 159.39,87.60 159.44,87.59 "/><path d="M158.11,88.21 C158.06,88.22 158.06,88.22 158.01,88.24 C157.95,88.24 157.95,88.24 157.90,88.25 C157.84,88.24 157.84,88.24 157.79,88.24 C157.74,88.22 157.74,88.22 157.69,88.21 "/><path d="M149.84,89.84 C149.87,89.86 149.87,89.87 149.90,89.89 C149.94,89.91 149.94,89.91 149.99,89.93 C150.04,89.94 150.04,89.94 150.09,89.95 C150.15,89.96 150.15,89.96 150.21,89.96 "/><path d="M151.90,89.80 C151.84,89.81 151.84,89.81 151.78,89.81 C151.73,89.80 151.73,89.80 151.68,89.79 C151.63,89.77 151.63,89.77 151.58,89.76 C151.55,89.73 151.55,89.73 151.51,89.70 "/><path d="M162.28,85.39 C162.33,85.39 162.33,85.39 162.39,85.39 C162.44,85.39 162.44,85.39 162.49,85.38 C162.54,85.36 162.54,85.36 162.59,85.34 C162.63,85.31 162.63,85.31 162.68,85.28 "/><path d="M136.84,91.54 C136.78,91.51 136.78,91.51 136.73,91.47 C136.68,91.43 136.68,91.43 136.63,91.38 C136.59,91.32 136.59,91.32 136.55,91.26 C136.52,91.20 136.52,91.20 136.49,91.14 "/><path d="M153.15,89.47 C153.19,89.50 153.19,89.50 153.23,89.52 C153.28,89.54 153.28,89.54 153.33,89.55 C153.38,89.55 153.38,89.55 153.44,89.56 C153.49,89.55 153.49,89.55 153.55,89.55 "/><path d="M156.67,88.75 C156.62,88.76 156.62,88.76 156.57,88.77 C156.51,88.77 156.51,88.77 156.46,88.77 C156.40,88.77 156.40,88.77 156.35,88.76 C156.30,88.74 156.30,88.74 156.25,88.72 "/><path d="M128.94,102.91 L128.94,101.20 L129.16,102.47 L129.16,101.75 "/><path d="M131.04,105.84 L129.60,102.46 L129.16,102.50 "/><path d="M128.94,101.20 L129.07,99.33 L129.16,98.96 "/><path d="M129.16,101.75 L129.16,84.15 L129.60,84.11 L129.95,84.92 L129.95,94.55 L130.45,94.26 L131.20,95.73 L132.05,96.84 "/><path d="M129.60,102.46 L129.60,84.11 "/><path d="M129.95,94.55 L131.06,97.14 L131.06,105.86 "/><path d="M134.62,108.70 L131.45,105.75 L131.06,105.86 "/><path d="M129.95,84.92 L130.45,84.63 L130.45,94.26 "/><path d="M129.16,84.43 L129.16,84.13 L129.16,84.15 "/><path d="M129.16,84.13 L129.17,80.59 L131.05,77.94 L131.06,77.25 L132.15,76.50 "/><path d="M129.16,84.13 L129.60,80.66 L129.17,80.62 "/><path d="M131.06,97.14 L131.45,97.03 L134.62,99.99 L134.66,100.00 L134.97,99.82 L134.97,108.54 L139.57,110.79 "/><path d="M134.66,108.72 L134.97,108.54 "/><path d="M132.30,96.36 L132.30,89.14 "/><path d="M130.68,86.99 L130.74,85.30 L130.45,84.63 "/><path d="M130.68,86.99 L131.03,86.79 L131.08,85.10 L130.74,85.30 "/><path d="M134.82,90.57 L134.90,90.56 L135.49,90.22 L134.90,90.56 L134.96,90.51 L134.99,90.43 "/><path d="M132.24,84.43 L132.49,84.29 L131.08,85.10 "/><path d="M131.05,77.94 L131.45,77.37 L131.06,77.25 "/><path d="M131.45,105.75 L131.45,97.03 "/><path d="M135.29,91.33 L135.44,91.24 "/><path d="M139.64,100.79 L139.64,92.62 "/><path d="M132.23,80.77 L132.24,80.10 L132.24,81.55 L132.24,81.52 "/><path d="M132.24,81.55 L132.15,80.57 L132.15,70.21 L132.15,70.30 L132.17,70.33 L132.21,70.34 L132.24,70.33 L132.24,80.10 "/><path d="M132.16,82.39 L132.15,80.65 "/><path d="M132.15,80.57 L132.15,80.56 "/><path d="M132.24,71.44 L132.24,71.15 "/><path d="M132.75,70.37 L132.71,69.98 L132.71,70.42 "/><path d="M132.24,71.20 L132.26,71.29 L132.29,71.32 L132.36,71.31 L132.35,81.75 "/><path d="M132.15,70.21 L132.16,70.15 L132.22,70.02 "/><path d="M132.52,68.81 L132.52,68.38 L132.48,68.37 L132.48,68.86 "/><path d="M132.22,70.02 L132.37,69.80 L132.71,69.41 L132.74,69.02 "/><path d="M132.29,69.35 L132.29,69.93 "/><path d="M132.22,69.32 L132.24,69.35 L132.29,69.35 "/><path d="M137.29,87.08 L137.31,83.39 "/><path d="M134.56,71.13 L133.66,72.79 L133.05,71.58 L132.85,70.93 L132.74,81.82 L132.57,81.81 "/><path d="M132.52,68.38 L132.68,68.28 L132.95,68.08 L132.84,68.46 L132.52,68.81 "/><path d="M132.92,67.75 L132.92,67.42 L133.07,67.33 L133.32,67.14 L133.15,67.52 "/><path d="M132.48,68.32 L132.48,68.37 "/><path d="M132.48,68.33 L132.48,68.61 "/><path d="M132.92,67.42 L132.90,67.41 L132.90,67.38 "/><path d="M133.86,66.24 L133.50,66.50 L133.50,66.72 "/><path d="M132.90,67.41 L132.89,67.78 "/><path d="M134.44,72.34 L133.66,72.79 "/><path d="M137.28,83.42 L137.31,83.39 L137.32,83.35 L142.09,32.47 L141.31,49.66 L140.24,75.16 L140.44,75.05 L140.68,74.53 "/><path d="M147.19,75.88 L147.79,32.19 L147.81,31.44 L147.24,77.13 L148.22,77.16 L148.32,31.45 L148.34,32.65 L148.35,75.91 L148.65,75.91 L148.78,77.16 L149.76,77.13 L149.81,75.88 L149.21,32.19 L149.19,31.44 L149.76,77.13 "/><path d="M134.61,68.61 L140.28,27.09 L133.80,69.37 L133.74,68.81 L140.05,28.14 L139.99,28.49 "/><path d="M133.80,69.37 L134.61,68.61 "/><path d="M140.51,25.04 L140.22,27.06 L140.05,28.14 L140.19,27.06 L140.02,28.14 L133.74,68.48 L133.80,68.43 "/><path d="M133.74,68.48 L133.80,67.91 L140.28,26.30 L140.18,27.06 "/><path d="M133.50,66.50 L133.48,66.49 L133.48,66.73 "/><path d="M134.66,108.72 L134.66,100.00 "/><path d="M134.97,99.82 L139.57,102.07 L139.61,102.08 L139.81,101.85 L139.81,110.57 L139.61,110.80 L139.61,102.08 "/><path d="M139.82,101.57 L139.98,101.47 L139.64,100.79 "/><path d="M135.41,90.05 L135.44,90.05 "/><path d="M136.50,72.73 L135.27,71.37 L134.82,70.66 L134.60,70.79 L135.45,71.99 L136.46,72.98 L139.79,48.78 L142.10,32.31 L142.09,32.47 "/><path d="M134.56,71.13 L134.60,70.79 "/><path d="M135.49,90.22 L135.67,90.12 "/><path d="M137.73,90.74 L137.73,91.85 L136.84,91.54 "/><path d="M143.09,78.24 L145.19,78.59 L146.41,78.71 L146.43,89.67 L146.47,89.79 "/><path d="M151.06,91.71 L151.11,91.70 L149.22,92.79 "/><path d="M139.81,110.57 L145.39,111.89 "/><path d="M139.81,101.85 L143.93,102.83 L143.93,93.59 L145.44,93.76 L145.44,111.89 "/><path d="M151.52,111.90 L145.51,111.64 L145.44,111.89 "/><path d="M144.61,93.19 L143.93,93.59 "/><path d="M139.98,101.47 L142.06,102.00 L143.93,102.32 "/><path d="M144.26,76.11 L143.09,78.24 "/><path d="M140.24,75.16 L141.95,75.75 L144.04,76.24 L144.00,76.58 "/><path d="M140.68,74.53 L141.55,53.33 L142.48,32.09 L142.10,32.31 "/><path d="M140.19,27.06 L140.26,26.59 "/><path d="M144.04,21.28 L142.87,21.84 L142.00,22.45 L141.93,22.49 "/><path d="M144.16,27.72 L143.43,27.25 L142.81,26.64 "/><path d="M142.29,25.37 L142.29,25.35 L142.43,26.00 L142.81,26.64 "/><path d="M144.04,76.24 L144.26,76.11 "/><path d="M144.26,27.78 L144.16,27.72 L144.25,27.77 "/><path d="M145.44,93.76 L145.51,93.54 L145.51,111.64 "/><path d="M145.51,93.54 L148.16,93.41 L151.56,93.55 L151.56,111.89 "/><path d="M157.35,110.81 L151.56,111.63 "/><path d="M147.14,89.93 L147.14,79.50 "/><path d="M147.38,78.77 L148.05,78.79 L148.09,89.75 L148.16,89.87 "/><path d="M146.58,89.91 L146.59,79.48 L146.62,79.53 L146.70,79.58 "/><path d="M147.03,79.59 L147.14,79.50 "/><path d="M147.38,78.77 L147.34,89.73 L147.29,89.82 "/><path d="M147.34,89.73 L148.09,89.75 "/><path d="M146.59,79.48 L146.54,79.43 L146.48,79.24 L146.41,78.71 "/><path d="M147.24,77.13 L147.19,75.88 "/><path d="M147.97,24.77 L147.80,24.90 L147.73,25.03 L147.74,25.18 L147.84,25.32 "/><path d="M149.24,25.21 L149.26,25.13 L149.27,25.07 L149.22,24.93 "/><path d="M147.59,25.26 L147.33,28.63 "/><path d="M148.28,89.97 L148.29,79.55 L148.24,79.49 L148.16,79.31 L148.05,78.79 "/><path d="M148.29,79.55 L148.33,79.59 L148.42,79.64 L148.62,79.66 L148.73,79.63 L148.82,79.57 L148.84,79.53 L148.85,89.96 "/><path d="M148.22,77.16 L148.35,75.91 "/><path d="M148.97,89.85 L149.01,89.75 L149.03,78.79 L149.71,78.77 "/><path d="M149.99,79.51 L149.99,89.93 "/><path d="M149.01,89.75 L149.75,89.72 L149.84,89.84 "/><path d="M148.84,79.53 L148.91,79.43 L148.97,79.22 L149.03,78.79 "/><path d="M148.78,77.16 L148.68,31.45 L148.66,32.65 L148.65,75.91 "/><path d="M150.11,75.86 L149.53,32.61 L149.54,31.42 L150.32,77.10 L150.11,75.86 L149.81,75.88 "/><path d="M148.58,28.70 L148.50,28.70 "/><path d="M149.33,25.03 L149.42,25.30 L149.67,28.63 "/><path d="M150.33,89.95 L150.45,89.93 L150.55,89.89 L150.54,79.46 "/><path d="M150.68,78.70 L151.35,78.64 L151.40,89.60 L151.51,89.70 "/><path d="M150.55,89.89 L150.61,89.83 L150.65,89.77 L150.66,89.67 L150.68,78.70 "/><path d="M150.66,89.67 L151.40,89.60 "/><path d="M149.75,89.72 L149.71,78.77 "/><path d="M150.54,79.46 L150.52,79.49 L150.44,79.56 L150.33,79.60 L150.13,79.60 L150.03,79.55 L149.99,79.51 "/><path d="M150.32,77.10 L151.29,77.01 L150.76,57.37 L150.78,58.31 "/><path d="M150.76,57.37 L150.35,42.22 L150.38,43.30 "/><path d="M150.64,53.04 L150.70,55.21 "/><path d="M150.35,42.22 L150.08,32.12 L150.04,31.40 L150.26,38.97 "/><path d="M151.84,76.94 L150.39,31.39 L150.39,32.08 L151.55,75.72 L151.84,76.94 L152.79,76.80 L151.25,40.05 L151.28,40.71 "/><path d="M150.04,31.40 L150.04,31.37 "/><path d="M150.39,31.39 L150.39,31.33 "/><path d="M151.56,93.55 L151.49,93.29 L157.35,92.47 L157.39,92.46 L157.19,92.23 L162.31,90.40 L162.34,90.38 L162.03,90.20 L165.94,87.52 L165.94,105.86 L166.09,105.70 L167.26,103.96 L167.82,102.53 L165.94,105.19 "/><path d="M151.68,89.79 L151.68,79.37 L151.72,79.41 L151.82,79.45 L152.02,79.43 L152.12,79.39 L152.20,79.32 L152.22,79.28 L152.22,89.72 "/><path d="M151.55,75.72 L151.26,75.75 "/><path d="M152.96,75.49 L151.24,32.38 L151.22,31.39 L153.33,76.70 L152.96,75.49 L152.74,75.53 "/><path d="M151.25,40.05 L151.08,35.72 L151.12,36.80 "/><path d="M151.08,35.72 L150.95,32.44 L150.89,31.39 L151.08,35.72 "/><path d="M151.22,31.39 L151.22,31.24 "/><path d="M153.33,76.70 L154.25,76.49 L151.71,31.39 "/><path d="M150.89,31.39 L150.88,31.25 "/><path d="M151.71,31.41 L151.78,32.52 "/><path d="M152.30,89.59 L152.30,79.02 L152.27,79.18 L152.22,79.28 "/><path d="M152.30,79.02 L152.30,78.52 L152.96,78.42 L153.02,89.37 L153.15,89.47 "/><path d="M154.17,75.21 L154.32,75.18 L152.06,32.19 L152.04,31.39 L154.76,76.36 L155.63,76.10 L152.51,31.39 L152.59,32.53 "/><path d="M151.89,34.65 L151.83,33.56 "/><path d="M155.61,74.79 L156.12,75.94 L152.77,30.77 L152.81,31.51 L155.61,74.79 L155.54,74.81 "/><path d="M152.46,30.79 L152.51,31.39 "/><path d="M152.01,31.00 L152.04,31.39 "/><path d="M153.33,89.55 L153.33,79.12 L153.38,79.16 L153.47,79.20 L153.67,79.17 L153.77,79.12 L153.85,79.02 L153.86,89.44 L153.78,89.49 L153.64,89.53 "/><path d="M153.02,89.37 L152.30,89.49 "/><path d="M153.86,89.44 L153.90,89.38 L153.91,89.31 L153.91,78.68 L153.90,78.90 L153.85,79.02 "/><path d="M154.74,89.14 L154.59,89.05 L154.52,78.10 L153.88,78.25 L153.91,78.68 "/><path d="M153.36,32.41 L153.27,31.39 L156.95,75.63 L156.12,75.94 "/><path d="M156.69,72.53 L153.56,31.67 L153.49,30.49 L157.40,75.44 L158.16,75.08 L156.89,61.70 L156.95,62.34 "/><path d="M153.27,31.39 L153.20,30.60 L153.27,31.39 "/><path d="M153.99,31.36 L153.89,30.31 L156.89,61.70 L154.24,31.34 L154.16,30.31 L158.58,74.87 L158.06,73.96 "/><path d="M154.93,89.21 L154.93,78.78 L154.98,78.82 L155.06,78.85 "/><path d="M155.36,78.76 L155.43,78.64 L155.43,89.07 "/><path d="M154.59,89.05 L153.91,89.20 "/><path d="M154.76,76.36 L154.32,75.18 "/><path d="M159.17,73.48 L159.65,74.22 L154.74,29.80 L157.22,55.21 L154.59,30.68 L154.62,30.98 "/><path d="M154.67,31.46 L154.55,30.31 L154.59,30.68 "/><path d="M154.16,30.31 L154.15,30.16 "/><path d="M154.55,30.31 L154.51,29.95 "/><path d="M155.43,78.64 L155.46,78.53 L155.47,89.00 "/><path d="M156.25,88.72 L156.09,88.64 L156.01,77.70 L155.41,77.87 L155.46,78.31 L155.46,78.53 "/><path d="M155.47,79.02 L155.46,78.53 "/><path d="M156.46,78.35 L156.46,88.77 "/><path d="M160.17,72.92 L160.60,73.52 L155.27,29.41 L155.39,30.57 L157.45,49.79 L160.27,73.78 L159.65,74.22 "/><path d="M157.45,49.79 L155.15,30.31 L155.20,30.72 "/><path d="M160.60,73.52 L161.14,73.04 L155.56,29.25 "/><path d="M157.58,45.06 L155.80,29.71 L155.76,29.23 L161.42,72.76 L161.04,72.29 "/><path d="M155.15,30.31 L155.05,29.44 "/><path d="M155.21,30.78 L155.27,31.32 "/><path d="M155.94,28.57 L161.87,72.26 L161.42,72.76 "/><path d="M155.73,28.99 L155.76,29.23 "/><path d="M156.46,78.35 L156.51,78.38 L156.60,78.40 L156.78,78.36 L156.87,78.30 L156.92,78.21 L156.93,78.17 L156.94,88.60 "/><path d="M156.09,88.64 L155.47,88.82 "/><path d="M156.96,88.54 L156.96,78.06 L156.93,78.17 "/><path d="M156.96,78.06 L156.94,77.84 L156.85,77.41 L157.42,77.20 L157.51,88.14 L157.69,88.21 "/><path d="M157.40,75.44 L156.84,74.34 "/><path d="M156.69,72.60 L156.69,72.53 "/><path d="M161.77,71.59 L162.09,71.96 L156.10,28.54 L157.60,40.84 "/><path d="M162.09,71.96 L162.45,71.43 L157.65,37.84 L156.41,28.14 L162.62,71.12 L162.87,70.57 L157.39,33.56 L157.48,34.22 "/><path d="M157.65,37.84 L156.29,28.26 L156.29,28.29 "/><path d="M156.50,27.60 L157.39,33.56 L156.60,27.58 L162.99,70.26 L162.80,70.06 "/><path d="M162.99,70.26 L163.14,69.70 L156.68,27.30 L156.69,27.38 "/><path d="M157.00,28.47 L156.96,28.14 L163.26,68.81 L163.20,69.37 L156.72,27.09 L157.28,31.22 "/><path d="M156.76,26.59 L163.20,67.91 L163.26,68.48 L156.82,27.06 L156.96,28.14 L156.90,27.79 L156.52,25.26 "/><path d="M156.41,28.14 L156.39,28.07 "/><path d="M156.74,26.59 L156.82,27.06 "/><path d="M157.39,92.46 L157.39,110.80 L159.88,109.93 L162.31,108.74 L157.39,110.50 "/><path d="M157.90,88.25 L157.90,77.82 L157.95,77.85 L158.04,77.87 L158.21,77.81 L158.29,77.75 L158.34,77.62 L158.34,88.05 "/><path d="M158.21,76.88 L158.74,76.62 L158.83,87.55 L159.02,87.61 "/><path d="M158.58,74.87 L159.28,74.47 L157.22,55.21 L157.25,55.54 "/><path d="M158.36,77.51 L158.35,87.98 "/><path d="M159.24,87.64 L159.24,77.21 "/><path d="M158.83,87.55 L158.35,87.78 "/><path d="M159.24,77.21 L159.29,77.24 L159.38,77.25 L159.56,77.17 L159.60,77.12 L159.64,77.03 L159.65,76.87 L159.64,87.42 "/><path d="M160.24,86.94 L160.04,86.89 L159.94,75.96 L159.46,76.24 L159.60,76.66 L159.65,76.87 "/><path d="M160.04,86.89 L159.64,87.12 "/><path d="M159.64,77.02 L159.65,77.94 "/><path d="M160.46,76.53 L160.46,86.95 "/><path d="M160.82,86.71 L160.82,76.32 L160.79,76.41 L160.75,76.46 L160.65,76.53 L160.58,76.56 L160.51,76.55 L160.46,76.53 "/><path d="M160.59,75.54 L161.01,75.24 L161.12,86.16 L161.33,86.20 "/><path d="M161.12,86.16 L160.82,86.37 "/><path d="M161.55,75.77 L161.55,86.20 "/><path d="M162.34,90.38 L162.34,108.72 L164.43,107.30 L165.92,105.89 L162.34,108.33 "/><path d="M161.87,85.93 L161.86,75.57 "/><path d="M162.49,85.38 L162.49,74.96 L162.59,74.97 L162.66,74.94 L162.74,74.86 L162.76,74.80 "/><path d="M162.44,73.96 L162.75,73.61 "/><path d="M163.29,74.08 L163.29,84.51 L163.37,84.47 L163.44,84.41 L162.72,85.23 L162.76,85.16 L162.76,85.09 L162.76,81.19 "/><path d="M161.55,75.77 L161.66,75.79 L161.72,75.77 L161.82,75.69 L161.85,75.63 "/><path d="M161.58,74.78 L161.95,74.45 L162.07,85.36 L162.28,85.39 "/><path d="M162.07,85.36 L161.87,85.54 "/><path d="M161.87,75.54 L161.87,75.77 "/><path d="M162.62,71.12 L162.36,70.85 "/><path d="M163.29,84.51 L163.18,84.53 L162.86,84.52 L162.77,75.77 L162.77,80.43 "/><path d="M162.86,84.52 L162.76,84.63 "/><path d="M163.71,83.63 L163.52,83.63 "/><path d="M163.52,84.28 L163.52,73.91 L163.49,73.99 L163.40,74.09 L163.33,74.10 L163.29,74.08 "/><path d="M162.77,74.70 L162.77,75.77 L162.77,75.75 "/><path d="M163.14,73.10 L163.38,72.73 L163.39,73.51 "/><path d="M162.75,73.61 L162.76,74.64 "/><path d="M163.92,73.17 L163.92,83.59 "/><path d="M163.20,69.37 L163.08,69.25 "/><path d="M163.20,68.43 L163.26,68.48 "/><path d="M164.71,69.87 L164.71,69.29 L164.76,69.28 "/><path d="M164.15,68.41 L163.95,67.76 L163.34,66.55 L162.95,66.28 "/><path d="M163.92,73.17 L163.96,73.18 L164.01,73.17 L164.05,73.14 L164.10,73.04 "/><path d="M163.68,72.20 L163.85,71.82 L164.20,72.12 L164.34,72.21 L164.38,72.22 L164.38,82.65 L164.45,82.60 L164.49,82.54 L164.09,83.42 "/><path d="M164.52,82.39 L164.52,82.27 L164.52,82.46 L164.52,82.39 "/><path d="M164.38,82.65 L164.29,82.68 L164.11,82.70 "/><path d="M164.52,82.27 L164.52,72.09 L164.49,72.18 L164.46,72.22 L164.38,72.22 "/><path d="M164.11,83.35 L164.11,72.98 "/><path d="M164.76,81.56 L164.73,81.62 L164.67,81.68 L164.52,81.73 "/><path d="M164.67,81.68 L164.67,71.25 L164.63,71.24 L164.50,71.16 L164.16,70.88 L164.05,71.27 "/><path d="M164.52,72.53 L164.52,72.39 "/><path d="M163.86,72.46 L163.85,71.82 "/><path d="M164.67,71.25 L164.70,71.26 L164.74,71.24 "/><path d="M164.26,70.32 L164.29,69.93 L164.30,70.37 "/><path d="M164.16,70.88 L164.16,71.41 "/><path d="M164.71,69.29 L164.57,69.22 L164.25,68.97 L164.29,69.37 L164.57,69.67 L164.77,69.94 L164.76,69.28 L164.76,69.93 "/><path d="M164.29,69.93 L164.63,70.19 L164.78,70.27 L164.78,80.69 "/><path d="M165.94,87.52 L165.55,87.40 L167.83,84.18 L167.84,84.15 L167.84,102.50 "/><path d="M167.84,98.99 L167.84,99.04 "/><path d="M164.85,82.27 L164.85,80.57 L164.77,81.48 L164.78,80.32 "/><path d="M167.84,84.43 L167.84,83.35 L167.84,84.15 L167.40,84.11 L167.84,80.62 L167.40,80.66 L167.05,79.85 L166.55,80.14 L166.26,79.47 L164.85,80.28 "/><path d="M164.85,80.57 L164.85,70.22 L164.84,70.26 L164.81,70.27 L164.78,70.27 "/><path d="M164.78,71.40 L164.78,71.11 "/><path d="M164.77,69.94 L164.83,70.06 L164.85,70.22 "/><path d="M167.84,98.99 L167.84,98.51 "/><path d="M167.84,83.35 L167.84,80.64 "/><path d="M167.84,81.19 L167.84,80.62 "/><path d="M168.06,102.50 L168.06,100.26 "/><path d="M157.51,88.14 L156.96,88.35 "/><path d="M147.29,89.82 L147.23,89.89 "/><path d="M146.91,89.97 L148.49,90.01 "/><path d="M148.21,89.93 L148.16,89.87 "/><path d="M150.22,89.96 L148.62,90.01 "/><path d="M153.55,89.55 L152.02,89.79 "/><path d="M155.15,89.20 L153.55,89.55 "/><path d="M156.67,88.75 L155.16,89.19 "/><path d="M158.12,88.20 L156.78,88.71 "/><path d="M159.52,87.54 L160.72,86.85 "/><path d="M161.73,86.12 L161.05,86.62 L160.73,86.83 L160.80,86.77 L160.82,86.71 "/><path d="M161.87,86.00 L162.73,85.23 "/><path d="M163.52,84.28 L163.49,84.34 L163.93,83.69 L164.05,83.49 L164.00,83.55 "/><path d="M146.47,89.79 L146.51,89.86 "/><path d="M132.24,80.78 L132.17,80.71 L132.15,80.64 "/><path d="M132.28,81.69 L132.25,81.63 "/><path d="M161.80,86.06 L161.85,86.00 L161.87,85.93 "/><path d="M155.47,89.00 L155.43,89.07 L155.36,89.13 L155.26,89.16 "/><path d="M156.96,88.54 L156.94,88.60 L156.87,88.66 L156.78,88.71 "/><path d="M148.97,89.85 L148.93,89.91 "/><path d="M164.78,80.70 L164.83,80.64 L164.85,80.57 "/><path d="M164.85,77.98 L165.01,78.18 L165.92,79.67 "/><path d="M158.21,88.17 L158.29,88.11 L158.34,88.05 L158.35,87.98 "/><path d="M164.11,83.35 L164.09,83.42 "/><path d="M135.01,90.43 L135.08,90.21 L135.23,90.08 L135.41,90.05 "/><path d="M159.53,87.54 L159.61,87.48 L159.64,87.42 "/><path d="M152.30,89.59 L152.28,89.66 L152.22,89.72 L152.13,89.76 L152.02,89.79 "/><path d="M147.42,27.48 L147.26,27.50 L145.69,27.83 L145.00,28.09 "/><path d="M146.429 89.675 a15.907 9.184 -0.000 0 1 -13.688 -7.856"/><path d="M146.789 89.958 a16.351 9.440 -180.000 0 1 -14.536 -8.329"/><path d="M151.897 89.804 a16.351 9.440 -180.000 0 1 -1.687 0.154"/><path d="M159.440 87.586 a16.351 9.440 -180.000 0 1 -1.234 0.581"/><path d="M164.762 81.558 a16.351 9.440 -180.000 0 1 -0.242 0.905"/><path d="M168.041 102.225 a19.577 11.303 -180.000 1 1 -39.118 0.686"/><path d="M139.827 101.560 a18.674 10.782 -0.000 0 1 -7.869 -4.545"/><path d="M149.213 92.794 a18.042 10.417 -0.000 0 1 -18.131 -7.692"/><path d="M135.411 90.047 a1.106 0.602 -122.784 0 1 1.109 1.149"/><path d="M149.581 27.476 a5.856 3.381 -180.000 0 1 2.414 0.610"/><path d="M151.108 91.703 a16.349 9.439 -180.000 0 1 -18.903 -10.076"/><path d="M164.851 82.398 a16.349 9.439 -180.000 0 1 -13.743 9.306"/></g></g><g/><g id="paperID" visibility="hidden" opacity="0.00" transform="scale(0.000100)"><path style="stroke:#000000;stroke-width:0.500;fill:#e6e6e6;fill-rule:evenodd" d="M-2000.00,-2000.00L2297.00,-2000.00L2297.00,2210.00L-2000.00,2210.00zM0.00,0.00L297.00,0.00L297.00,210.00L0.00,210.00z"/><path style="fill:#000000;fill-opacity:0.118" d="M3.00,210.00L297.00,210.00L297.00,3.00L300.00,3.00L300.00,213.00L3.00,213.00z"/></g><g id="ToolTip" visibility="hidden" opacity="0" transform="translate(0,0)"><rect id="ToolTipShadow" opacity="0.20" fill="black" stroke="none" x="0" y="0" width="30" height="8"/><rect id="ToolTipBG" fill="#ffffe1" stroke="black" x="0" y="0" width="30" height="8"/><text xml:space="preserve" id="ToolTipText" fill="black" x="0" y="0" width="30" height="8">tooltip</text></g></g></svg>
