<?xml version="1.0" encoding="UTF-8" standalone="no"?>
<svg xmlns="http://www.w3.org/2000/svg" xmlns:xlink="http://www.w3.org/1999/xlink" width="297.000mm" height="210.000mm" viewBox="0.000000 0.000000 297.000000 210.000000" stroke-linejoin="round" stroke-linecap="round" fill="none" fill-rule="evenodd"><desc>Composer Export</desc><script type="text/ecmascript"><![CDATA[
if(typeof(top) != "undefined")
{
	top.ShowPaper = ShowPaper;
}
function ShowHotSpot(evt,hotspotid)
{
	var svgDocument = evt.target.ownerDocument;
	var strId = "hotspot."+hotspotid;
	var hotspot = svgDocument.getElementById(strId);
	if(hotspot)
		hotspot.setAttribute("opacity",".5");
}
function HideHotSpot(evt,hotspotid)
{
	var svgDocument = evt.target.ownerDocument;
	var strId = "hotspot."+hotspotid;
	var hotspot = svgDocument.getElementById(strId);
	if(hotspot)
		hotspot.setAttribute("opacity","0");

	var toolTip = svgDocument.getElementById('ToolTip');
	if(toolTip)
		toolTip.setAttribute("visibility","hidden");
}
function ShowToolTip(evt,hotspotid,strTooltip)
{
	if(strTooltip=="")
	return;

	// change text
	var svgDocument = evt.target.ownerDocument;
	var tiptext = svgDocument.getElementById('ToolTipText');
	if( !tiptext )
	return;
	tiptext.firstChild.nodeValue = " " + strTooltip + "  " ;

	// show tooltip before, else some refresh issue

	var toolTip = svgDocument.getElementById('ToolTip');
	if(!toolTip)
	return;

	toolTip.setAttribute("visibility","visible");
	toolTip.setAttribute("opacity",".95");

	// move tooltip
	// get viewbox

	var root = svgDocument.documentElement;
	var vbox = (root.getAttribute("viewBox")).split(' ');
	var x0 = parseFloat(vbox[0]);
	var y0 = parseFloat(vbox[1]);
	var vboxW = parseFloat(vbox[2]);
	var vboxH = parseFloat(vbox[3]);

	// get default width of svg

	var strW = root.getAttribute("width");
	var svgW = parseFloat(strW);
	if(strW.indexOf('mm') != -1)
	svgW *= 3.779;

	var strH = root.getAttribute("height");
	var svgH = parseFloat(strH);
	if(strH.indexOf('mm') != -1)
	svgH *= 3.779;  	// 96 dpi  -> 96/25.4 = 3.779

	// update the viewbox / width / height if svg is embedded in html with zoom fit all
	var realx0 = x0;
	var realy0 = y0;
	var realvboxW = vboxW;
	var realvboxH = vboxH;
	var realsvgW = svgW;
	var realsvgH = svgH;

	if ((typeof(top) == "undefined") || (typeof(top.svgctl1) != "undefined")) // embedded in html
	{
		// get window size in pxl

		svgW = window.innerWidth;
		svgH = window.innerHeight;

		// calculate real viewbox

		realsvgW = svgW;
		realsvgH = svgH;
		if((svgW / svgH) > (vboxW / vboxH))
		{
			realvboxW = (vboxH * svgW) / svgH;
			realvboxH = vboxH;
			realx0 = x0 - (realvboxW - vboxW)/2 ;
		}
		else
		{
			realvboxH = (vboxW * svgH) / svgW;
			realvboxW = vboxW;
			realy0 = y0 - (realvboxH - vboxH)/2 ;
		}
	}

	// get user zoom/pan

	var newScale = root.currentScale;
	var translation = root.currentTranslate;

	// transform pxl to user unit

	var xPos = (((evt.clientX+10- translation.x)/newScale) * realvboxW)/realsvgW  + realx0 ;
	var yPos = (((evt.clientY+5- translation.y)/newScale) * realvboxH)/ realsvgH  + realy0 ;
	var scaleForWidth = ( (1 / newScale) * realvboxH) / realsvgH;

	// move tooltip

	toolTip.setAttribute("transform", "translate(" + xPos + "," + yPos + ")" );

	// resize tooltip

	var fontsize = 12;
	tiptext.setAttribute("font-size",fontsize*scaleForWidth);
	tiptext.setAttribute("y", fontsize*scaleForWidth);
	var tipBG = svgDocument.getElementById('ToolTipBG');
	var outline = tiptext.getBBox();
	if(tipBG)
	{
		tipBG.setAttribute("stroke-width", 1*scaleForWidth);
		tipBG.setAttribute("width", Number(outline.width) );
		tipBG.setAttribute("height", Number(outline.height) + fontsize*.5*scaleForWidth );
	}
	var ToolTipShadow = svgDocument.getElementById('ToolTipShadow');
	if(ToolTipShadow)
	{
		ToolTipShadow.setAttribute("width", Number(outline.width) );
		ToolTipShadow.setAttribute("height", Number(outline.height) + fontsize*.5*scaleForWidth );
		ToolTipShadow.setAttribute("x", 3*scaleForWidth);
		ToolTipShadow.setAttribute("y", 3*scaleForWidth);
	}
}
function ShowPaper()
{
  var svgDocument = getDocument();
  var paper = svgDocument.getElementById("paperID");
  if(paper)
  {
    paper.setAttribute("transform","scale(1)");
    paper.setAttribute("opacity","1");
    paper.setAttribute("visibility","visible");
  }
  var svg = svgDocument.getRootElement();
  if(svg)
  {
    svg.setAttribute("width","307.000mm");
    svg.setAttribute("height","220.000mm");
    svg.setAttribute("viewBox","-5.000000 -5.000000 307.000000 220.000000");
  }
}
]]></script><defs/><g><g id="Actor_.0"><path style="fill:#ffffff;fill-rule:evenodd" d="M145.85,50.81L162.69,45.92L163.31,45.93L163.33,46.16L160.37,51.25L160.39,51.54L190.33,68.94L183.77,80.27L183.23,80.22L153.87,63.13L153.46,63.15L150.25,68.68z"/></g><g id="Actor_.1"><path style="fill:#ffffff;fill-rule:evenodd" d="M121.89,64.62L138.76,59.70L139.38,59.71L139.40,59.94L136.46,64.87L136.45,65.32L166.05,82.53L166.22,82.98L159.78,93.99L159.31,94.00L129.93,76.91L129.53,76.93L126.31,82.44L125.22,78.21z"/></g><g id="Actor_.2"><path style="fill:#ffffff;fill-rule:evenodd" d="M110.88,79.72L110.89,80.01L140.09,96.88L140.82,97.41L134.28,108.73L133.93,108.69L104.11,91.43L100.90,96.96L100.70,96.96L96.57,80.02L96.57,79.16L114.02,74.24z"/></g><g id="Actor_.3"><g style="stroke:#000000;stroke-width:0.250"><path d="M146.57,53.90 L145.83,50.90 L163.59,45.82 L160.25,51.57 L190.34,69.02 L183.67,80.53 L153.58,63.09 L150.24,68.84 L146.57,53.90 "/></g></g><g id="Actor_.4"><g style="stroke:#000000;stroke-width:0.250"><path d="M121.96,65.13 L126.26,82.63 L129.60,76.87 L159.69,94.32 L166.36,82.81 L136.27,65.36 L139.61,59.61 L121.85,64.69 L121.96,65.13 "/></g></g><g id="Actor_.5"><g style="stroke:#000000;stroke-width:0.250"><path d="M96.36,79.35 L114.12,74.26 L110.79,80.02 L140.88,97.46 L134.20,108.97 L104.11,91.53 L100.78,97.29 L96.36,79.35 "/></g></g><g id="Actor_25.0"><g style="stroke:#000020;stroke-width:0.079"><path d="M150.52,111.48 C149.55,110.92 149.55,110.92 148.58,110.36 C148.51,110.33 148.51,110.32 148.45,110.30 C148.40,110.28 148.40,110.28 148.35,110.28 "/><path d="M155.88,120.18 C153.53,118.84 153.53,118.83 151.19,117.48 C151.06,117.38 151.06,117.38 150.95,117.27 C150.61,116.82 150.61,116.82 150.28,116.36 C150.21,116.23 150.21,116.23 150.15,116.10 C150.01,115.47 150.01,115.47 149.87,114.83 C149.87,114.71 149.87,114.71 149.87,114.59 C149.93,113.87 149.91,113.86 149.99,113.14 C150.21,112.36 150.21,112.36 150.46,111.59 C150.85,110.83 150.85,110.83 151.26,110.08 C151.77,109.42 151.77,109.42 152.30,108.78 C152.88,108.27 152.89,108.28 153.48,107.79 C153.57,107.74 153.57,107.74 153.66,107.69 C154.29,107.39 154.29,107.39 154.92,107.10 "/><path d="M156.40,106.99 C156.55,107.03 156.55,107.03 156.69,107.09 C157.17,107.29 157.17,107.29 157.64,107.50 C158.39,107.93 158.40,107.93 159.15,108.37 "/><path d="M151.84,109.35 C151.11,108.92 151.11,108.92 150.37,108.50 C150.31,108.47 150.31,108.47 150.25,108.44 C150.20,108.43 150.20,108.43 150.15,108.42 "/><path d="M156.87,121.09 C156.67,120.97 156.66,120.96 156.47,120.83 C156.20,120.54 156.20,120.54 155.95,120.24 C155.84,120.05 155.84,120.05 155.74,119.85 C155.65,119.60 155.64,119.60 155.56,119.34 C155.48,118.86 155.48,118.86 155.41,118.37 C155.41,118.04 155.41,118.04 155.41,117.70 C155.49,117.13 155.49,117.13 155.57,116.57 C155.66,116.20 155.66,116.20 155.76,115.83 C155.80,115.72 155.80,115.72 155.84,115.62 C156.02,115.14 156.02,115.14 156.21,114.65 C156.38,114.29 156.38,114.29 156.57,113.93 C156.90,113.38 156.90,113.38 157.24,112.84 C157.48,112.53 157.48,112.53 157.73,112.21 C158.14,111.77 158.14,111.77 158.56,111.34 C158.83,111.11 158.83,111.11 159.11,110.88 C159.56,110.59 159.56,110.59 160.01,110.32 C160.29,110.19 160.29,110.19 160.57,110.07 C160.59,110.07 160.59,110.07 160.61,110.06 C161.02,109.97 161.02,109.97 161.43,109.88 C161.68,109.88 161.68,109.87 161.93,109.88 C162.29,109.98 162.29,109.98 162.64,110.08 C162.67,110.10 162.67,110.10 162.69,110.11 "/><path d="M162.69,110.11 C162.34,110.01 162.34,110.00 161.98,109.91 C161.73,109.90 161.73,109.90 161.47,109.91 C161.05,110.00 161.05,110.00 160.62,110.10 C160.34,110.22 160.34,110.22 160.06,110.34 C159.61,110.62 159.61,110.62 159.16,110.91 C158.88,111.13 158.88,111.14 158.61,111.37 C158.19,111.80 158.19,111.80 157.78,112.24 C157.53,112.55 157.53,112.55 157.29,112.87 C156.95,113.41 156.95,113.41 156.62,113.96 C156.43,114.32 156.43,114.32 156.25,114.68 C156.03,115.27 156.03,115.27 155.81,115.86 C155.71,116.22 155.71,116.23 155.62,116.60 C155.54,117.16 155.54,117.16 155.46,117.73 C155.46,118.07 155.46,118.07 155.46,118.40 C155.53,118.89 155.53,118.89 155.61,119.37 C155.69,119.63 155.70,119.63 155.79,119.88 C155.89,120.08 155.89,120.08 156.00,120.28 C156.25,120.57 156.25,120.57 156.52,120.86 C156.71,120.99 156.71,120.99 156.91,121.11 "/><path d="M156.15,114.26 C156.23,114.07 156.24,114.07 156.32,113.89 C156.38,113.80 156.38,113.81 156.44,113.72 C156.61,113.44 156.61,113.44 156.78,113.16 "/><path d="M156.78,113.16 C156.46,113.71 156.46,113.71 156.15,114.26 C155.99,114.60 155.99,114.60 155.84,114.95 C155.64,115.53 155.64,115.53 155.45,116.11 C155.38,116.45 155.38,116.45 155.31,116.80 C155.25,117.35 155.25,117.35 155.21,117.89 C155.22,118.20 155.22,118.21 155.24,118.51 C155.34,118.97 155.34,118.97 155.44,119.42 C155.54,119.66 155.54,119.66 155.66,119.89 C155.89,120.20 155.89,120.20 156.14,120.51 C156.20,120.55 156.20,120.55 156.26,120.59 "/><path d="M155.46,117.38 C155.45,117.14 155.45,117.15 155.46,116.92 C155.68,116.04 155.67,116.04 155.91,115.16 C156.30,114.32 156.31,114.31 156.73,113.48 C157.19,112.81 157.19,112.81 157.68,112.16 C158.32,111.54 158.33,111.54 158.98,110.93 C159.16,110.83 159.16,110.83 159.34,110.74 "/><path d="M155.31,116.80 C155.28,117.02 155.28,117.02 155.26,117.23 C155.24,117.32 155.24,117.32 155.22,117.40 C155.21,117.65 155.21,117.65 155.21,117.89 "/><path d="M155.45,116.11 C155.51,115.89 155.51,115.88 155.57,115.66 C155.60,115.57 155.61,115.57 155.64,115.48 C155.74,115.22 155.74,115.22 155.84,114.95 "/><path d="M157.19,121.21 C156.96,120.96 156.96,120.96 156.74,120.70 C156.63,120.51 156.63,120.51 156.53,120.31 C156.43,120.06 156.43,120.05 156.35,119.80 C156.27,119.32 156.27,119.31 156.20,118.83 C156.20,118.50 156.20,118.49 156.20,118.16 C156.28,117.59 156.28,117.59 156.36,117.03 C156.45,116.65 156.45,116.65 156.55,116.28 C156.77,115.70 156.77,115.70 156.99,115.11 C157.17,114.75 157.17,114.74 157.35,114.39 C157.69,113.84 157.69,113.84 158.03,113.30 C158.27,112.98 158.27,112.98 158.52,112.67 C158.93,112.23 158.93,112.23 159.35,111.80 C159.62,111.56 159.62,111.56 159.90,111.34 C160.35,111.05 160.35,111.05 160.80,110.77 C161.08,110.65 161.08,110.65 161.36,110.53 C161.79,110.43 161.79,110.43 162.21,110.34 C162.46,110.33 162.47,110.33 162.72,110.34 C163.08,110.43 163.08,110.44 163.43,110.54 C163.46,110.55 163.46,110.55 163.48,110.57 "/><path d="M163.48,110.57 C163.13,110.46 163.12,110.46 162.77,110.37 C162.52,110.36 162.51,110.36 162.26,110.37 C161.97,110.43 161.98,110.43 161.69,110.50 C161.55,110.53 161.55,110.52 161.41,110.56 C161.13,110.68 161.13,110.68 160.85,110.80 C160.40,111.08 160.40,111.08 159.95,111.37 C159.67,111.59 159.67,111.59 159.40,111.83 C158.98,112.26 158.98,112.26 158.57,112.70 C158.32,113.01 158.32,113.01 158.08,113.33 C157.74,113.87 157.74,113.87 157.40,114.41 C157.22,114.77 157.22,114.77 157.04,115.14 C156.82,115.72 156.82,115.72 156.60,116.31 C156.50,116.68 156.50,116.68 156.41,117.05 C156.33,117.62 156.32,117.62 156.25,118.19 C156.25,118.52 156.24,118.52 156.25,118.86 C156.32,119.34 156.32,119.35 156.40,119.83 C156.48,120.08 156.48,120.08 156.58,120.34 C156.68,120.54 156.68,120.54 156.79,120.73 C156.97,120.94 156.97,120.95 157.16,121.15 "/><path d="M156.71,120.88 C156.52,120.68 156.52,120.68 156.34,120.47 C156.23,120.28 156.23,120.28 156.13,120.08 C156.04,119.83 156.04,119.83 155.95,119.57 C155.87,119.09 155.87,119.09 155.81,118.60 C155.80,118.27 155.80,118.27 155.81,117.93 C155.88,117.36 155.88,117.36 155.96,116.80 C156.06,116.43 156.06,116.42 156.16,116.06 C156.37,115.47 156.37,115.47 156.60,114.88 C156.78,114.52 156.78,114.52 156.96,114.16 C157.29,113.61 157.29,113.61 157.64,113.07 C157.88,112.75 157.88,112.76 158.12,112.44 C158.15,112.42 158.15,112.42 158.17,112.39 C158.56,111.98 158.56,111.98 158.95,111.57 C159.23,111.34 159.23,111.33 159.51,111.11 C159.95,110.82 159.95,110.82 160.40,110.54 C160.68,110.42 160.68,110.42 160.97,110.30 C161.39,110.20 161.39,110.20 161.82,110.11 C162.07,110.10 162.07,110.10 162.32,110.11 C162.68,110.21 162.68,110.21 163.04,110.31 C163.06,110.33 163.06,110.33 163.09,110.34 "/><path d="M163.09,110.34 C162.73,110.24 162.73,110.24 162.37,110.14 C162.36,110.14 162.36,110.14 162.34,110.14 C162.11,110.14 162.10,110.13 161.87,110.14 C161.44,110.23 161.44,110.23 161.02,110.33 C160.73,110.45 160.73,110.45 160.45,110.57 C160.00,110.85 160.00,110.85 159.56,111.14 C159.28,111.36 159.28,111.36 159.00,111.60 C158.58,112.03 158.58,112.03 158.17,112.47 C157.92,112.78 157.92,112.78 157.69,113.10 C157.34,113.64 157.34,113.64 157.01,114.18 C156.83,114.54 156.82,114.55 156.65,114.91 C156.42,115.49 156.42,115.50 156.21,116.08 C156.11,116.45 156.10,116.45 156.01,116.83 C155.93,117.39 155.93,117.39 155.86,117.96 C155.85,118.29 155.85,118.30 155.86,118.63 C155.92,119.11 155.92,119.12 156.00,119.60 C156.09,119.85 156.09,119.85 156.18,120.11 C156.28,120.31 156.28,120.31 156.39,120.50 C156.65,120.80 156.65,120.80 156.91,121.09 C157.06,121.19 157.06,121.19 157.22,121.29 "/><path d="M157.15,120.91 C157.06,120.74 157.06,120.74 156.97,120.57 C156.88,120.31 156.88,120.31 156.79,120.05 C156.71,119.57 156.71,119.57 156.64,119.09 C156.64,118.75 156.64,118.75 156.65,118.42 C156.72,117.85 156.72,117.85 156.80,117.28 C156.89,116.91 156.89,116.91 157.00,116.54 C157.21,115.95 157.21,115.95 157.44,115.37 C157.61,115.00 157.61,115.00 157.80,114.64 C158.13,114.10 158.13,114.10 158.48,113.56 C158.71,113.24 158.71,113.24 158.96,112.93 C159.37,112.49 159.37,112.49 159.79,112.06 C160.07,111.82 160.07,111.82 160.35,111.59 C160.79,111.31 160.79,111.31 161.24,111.03 C161.52,110.90 161.52,110.90 161.80,110.79 C162.23,110.69 162.23,110.68 162.66,110.60 C162.91,110.59 162.91,110.59 163.16,110.60 C163.52,110.69 163.52,110.69 163.88,110.80 C164.01,110.88 164.02,110.88 164.15,110.97 "/><path d="M163.83,110.77 C163.47,110.66 163.47,110.66 163.11,110.57 C162.86,110.56 162.86,110.56 162.61,110.57 C162.18,110.66 162.18,110.66 161.75,110.76 C161.47,110.87 161.47,110.88 161.19,111.00 C160.74,111.28 160.74,111.28 160.30,111.57 C160.02,111.79 160.02,111.79 159.74,112.03 C159.32,112.46 159.32,112.46 158.91,112.90 C158.66,113.21 158.66,113.21 158.43,113.53 C158.08,114.07 158.08,114.07 157.75,114.61 C157.56,114.97 157.56,114.97 157.39,115.34 C157.16,115.92 157.16,115.92 156.95,116.51 C156.84,116.88 156.84,116.88 156.75,117.25 C156.67,117.82 156.67,117.82 156.60,118.39 C156.59,118.72 156.59,118.72 156.59,119.06 C156.66,119.54 156.66,119.55 156.74,120.03 C156.83,120.28 156.83,120.28 156.92,120.54 C157.03,120.74 157.03,120.74 157.14,120.94 "/><path d="M159.79,111.43 C159.60,111.54 159.60,111.54 159.41,111.67 C158.78,112.32 158.77,112.32 158.17,112.99 C157.63,113.81 157.63,113.81 157.13,114.65 C156.78,115.50 156.77,115.50 156.46,116.37 C156.31,117.22 156.32,117.23 156.19,118.09 C156.19,118.14 156.19,118.14 156.20,118.19 "/><path d="M160.00,111.74 C159.33,112.38 159.33,112.39 158.69,113.05 C158.13,113.87 158.15,113.88 157.61,114.71 C157.50,114.92 157.50,114.92 157.39,115.14 C157.08,116.00 157.07,116.00 156.78,116.87 C156.67,117.63 156.68,117.64 156.58,118.41 C156.59,118.47 156.59,118.47 156.60,118.53 "/><path d="M159.72,110.93 C159.05,111.46 159.04,111.47 158.39,112.04 C157.80,112.77 157.80,112.77 157.23,113.53 C156.79,114.36 156.79,114.36 156.38,115.21 C156.11,116.08 156.12,116.08 155.88,116.97 C155.87,117.19 155.86,117.20 155.86,117.43 "/><path d="M156.78,113.16 C156.99,112.85 156.99,112.85 157.22,112.55 C157.61,112.09 157.61,112.09 158.01,111.64 C158.26,111.40 158.27,111.40 158.52,111.17 C158.83,110.95 158.83,110.95 159.15,110.73 "/><path d="M157.28,120.65 C157.20,120.46 157.20,120.45 157.14,120.25 C157.06,119.77 157.06,119.77 156.99,119.29 C156.98,118.95 156.98,118.95 156.99,118.62 C157.06,118.05 157.06,118.05 157.15,117.48 C157.24,117.11 157.24,117.11 157.34,116.74 C157.56,116.15 157.56,116.15 157.78,115.57 C157.96,115.20 157.96,115.20 158.14,114.84 C158.48,114.30 158.48,114.30 158.82,113.76 C159.06,113.44 159.06,113.44 159.31,113.13 C159.72,112.69 159.72,112.69 160.14,112.26 C160.41,112.02 160.41,112.02 160.69,111.79 C161.14,111.51 161.14,111.51 161.59,111.23 C161.87,111.10 161.87,111.10 162.15,110.99 C162.57,110.89 162.58,110.88 163.00,110.80 C163.25,110.79 163.26,110.79 163.51,110.80 C163.82,110.88 163.82,110.88 164.14,110.98 "/><path d="M157.30,120.61 C157.24,120.45 157.24,120.45 157.19,120.28 C157.11,119.80 157.11,119.80 157.04,119.32 C157.03,118.98 157.03,118.98 157.04,118.64 C157.11,118.08 157.11,118.08 157.20,117.51 C157.29,117.14 157.29,117.14 157.39,116.77 C157.61,116.18 157.61,116.18 157.83,115.60 C158.01,115.23 158.01,115.23 158.19,114.87 C158.53,114.33 158.53,114.33 158.87,113.79 C159.11,113.47 159.11,113.47 159.35,113.16 C159.77,112.72 159.77,112.72 160.19,112.28 C160.46,112.05 160.46,112.05 160.74,111.82 C161.19,111.54 161.19,111.54 161.64,111.26 C161.91,111.13 161.92,111.13 162.20,111.02 C162.62,110.91 162.63,110.91 163.05,110.82 C163.30,110.82 163.31,110.82 163.56,110.83 C163.84,110.90 163.84,110.90 164.11,110.98 "/><path d="M157.41,118.21 C157.60,117.34 157.60,117.34 157.82,116.48 C158.20,115.63 158.20,115.62 158.60,114.79 C159.10,114.05 159.10,114.05 159.63,113.33 C160.27,112.70 160.28,112.71 160.94,112.09 C160.99,112.05 160.99,112.05 161.04,112.01 C161.21,111.92 161.21,111.92 161.39,111.83 "/><path d="M161.39,111.83 C161.24,111.93 161.24,111.93 161.09,112.02 C160.81,112.25 160.81,112.25 160.53,112.48 C160.11,112.92 160.11,112.92 159.70,113.36 C159.45,113.67 159.45,113.67 159.21,113.99 C158.87,114.53 158.87,114.53 158.54,115.07 C158.35,115.43 158.35,115.43 158.18,115.80 C157.95,116.38 157.95,116.38 157.73,116.97 C157.63,117.34 157.63,117.34 157.54,117.71 C157.46,118.28 157.46,118.28 157.39,118.84 C157.38,119.18 157.38,119.18 157.38,119.52 C157.43,119.87 157.43,119.87 157.49,120.21 "/><path d="M157.78,119.62 C157.77,119.35 157.77,119.34 157.78,119.07 C157.85,118.51 157.85,118.51 157.94,117.94 C158.03,117.57 158.03,117.57 158.13,117.20 C158.35,116.61 158.35,116.61 158.57,116.02 C158.75,115.66 158.75,115.66 158.93,115.30 C159.27,114.76 159.27,114.75 159.61,114.22 C159.85,113.90 159.85,113.90 160.09,113.59 C160.51,113.15 160.51,113.15 160.93,112.71 C161.09,112.58 161.09,112.58 161.25,112.44 "/><path d="M161.25,112.44 C160.97,112.63 160.97,112.63 160.71,112.84 C160.07,113.57 160.06,113.57 159.44,114.31 C158.95,115.15 158.95,115.16 158.49,116.01 C158.19,116.88 158.19,116.88 157.92,117.76 C157.87,118.21 157.87,118.21 157.84,118.66 "/><path d="M157.83,119.51 C157.83,119.31 157.83,119.31 157.83,119.10 C157.90,118.54 157.90,118.53 157.99,117.97 C158.08,117.60 158.08,117.60 158.18,117.23 C158.40,116.64 158.40,116.64 158.62,116.05 C158.80,115.69 158.80,115.69 158.98,115.33 C159.32,114.78 159.32,114.78 159.66,114.24 C159.90,113.93 159.90,113.93 160.14,113.62 C160.56,113.18 160.56,113.18 160.98,112.74 C161.08,112.65 161.08,112.65 161.19,112.56 "/><path d="M163.94,111.06 C163.70,111.05 163.69,111.05 163.45,111.05 C163.02,111.14 163.02,111.14 162.59,111.25 C162.31,111.36 162.31,111.36 162.03,111.49 C161.58,111.76 161.58,111.77 161.14,112.05 C160.86,112.28 160.86,112.28 160.58,112.51 C160.19,112.92 160.19,112.92 159.80,113.33 C159.77,113.36 159.77,113.36 159.75,113.39 C159.51,113.70 159.50,113.70 159.26,114.02 C158.92,114.55 158.92,114.56 158.59,115.10 C158.40,115.46 158.40,115.46 158.23,115.82 C158.00,116.41 158.00,116.41 157.78,117.00 C157.68,117.37 157.68,117.37 157.59,117.74 C157.51,118.31 157.51,118.31 157.44,118.87 C157.43,119.21 157.43,119.21 157.43,119.55 C157.47,119.84 157.47,119.85 157.52,120.14 "/><path d="M157.04,118.24 C157.04,117.97 157.04,117.97 157.06,117.69 C157.29,116.81 157.29,116.81 157.55,115.93 C157.97,115.06 157.97,115.06 158.42,114.20 C159.02,113.42 159.02,113.41 159.65,112.65 C160.10,112.26 160.11,112.25 160.58,111.88 "/><path d="M157.22,112.55 C157.31,112.42 157.31,112.42 157.41,112.28 C157.48,112.21 157.49,112.21 157.56,112.14 C157.79,111.89 157.79,111.89 158.01,111.64 "/><path d="M158.27,118.60 C158.30,118.38 158.30,118.38 158.33,118.17 C158.42,117.80 158.42,117.80 158.52,117.43 C158.74,116.84 158.74,116.84 158.97,116.25 C159.14,115.89 159.14,115.89 159.33,115.53 C159.66,114.98 159.66,114.98 160.00,114.44 C160.24,114.13 160.24,114.13 160.49,113.82 C160.59,113.71 160.59,113.71 160.69,113.61 "/><path d="M158.22,118.50 C158.44,117.61 158.44,117.61 158.69,116.73 C159.08,115.89 159.10,115.89 159.51,115.05 C159.52,115.03 159.52,115.03 159.53,115.01 C160.11,114.25 160.11,114.25 160.68,113.49 C160.73,113.44 160.73,113.44 160.79,113.40 "/><path d="M158.35,118.44 C158.36,118.32 158.36,118.32 158.38,118.20 C158.47,117.83 158.47,117.83 158.57,117.46 C158.79,116.87 158.79,116.87 159.02,116.28 C159.19,115.92 159.19,115.92 159.38,115.56 C159.71,115.01 159.71,115.01 160.05,114.47 C160.29,114.16 160.29,114.16 160.54,113.84 C160.57,113.81 160.57,113.81 160.61,113.77 "/><path d="M159.15,110.73 C159.27,110.64 159.27,110.64 159.40,110.55 C159.67,110.41 159.66,110.41 159.93,110.27 C160.36,110.13 160.36,110.14 160.79,110.00 C160.86,109.99 160.86,109.99 160.94,109.99 "/><path d="M163.90,111.03 C163.65,111.02 163.65,111.02 163.40,111.02 C162.97,111.11 162.97,111.11 162.54,111.22 C162.26,111.33 162.26,111.33 161.98,111.46 C161.68,111.64 161.68,111.64 161.39,111.83 "/><path d="M163.10,111.41 C163.02,111.42 163.02,111.42 162.94,111.45 C162.66,111.56 162.66,111.56 162.38,111.69 C162.32,111.72 162.32,111.72 162.26,111.76 "/><path d="M166.66,118.09 C167.20,118.40 167.20,118.40 167.74,118.71 C167.83,118.77 167.83,118.77 167.92,118.82 C167.97,118.87 167.97,118.87 168.03,118.92 C168.08,118.98 168.08,118.98 168.13,119.03 C168.16,119.09 168.16,119.09 168.20,119.14 C168.29,119.36 168.29,119.36 168.38,119.58 "/><path d="M168.22,120.52 C168.07,120.67 168.07,120.67 167.93,120.83 C167.87,120.87 167.87,120.88 167.82,120.92 C167.63,121.01 167.63,121.01 167.44,121.10 "/><path d="M167.44,121.10 C167.24,121.12 167.24,121.12 167.03,121.14 C166.96,121.13 166.96,121.13 166.89,121.13 C166.72,121.07 166.72,121.07 166.54,121.01 C166.49,120.99 166.49,120.99 166.45,120.97 "/><path d="M161.25,124.83 C161.28,124.79 161.28,124.79 161.31,124.75 C161.33,124.70 161.33,124.70 161.35,124.65 C161.36,124.63 161.36,124.63 161.37,124.62 "/><path d="M165.01,114.15 C165.04,114.14 165.04,114.14 165.07,114.12 C165.11,114.09 165.11,114.09 165.15,114.06 C165.18,114.02 165.18,114.02 165.21,113.97 C165.23,113.93 165.23,113.93 165.26,113.88 C165.27,113.83 165.27,113.83 165.28,113.78 C165.28,113.74 165.28,113.74 165.28,113.70 "/><path d="M166.14,113.10 C166.13,113.15 166.13,113.15 166.13,113.19 C166.11,113.24 166.11,113.24 166.09,113.29 C166.07,113.34 166.06,113.34 166.04,113.38 C166.00,113.42 166.00,113.42 165.97,113.46 C165.93,113.48 165.93,113.48 165.90,113.50 "/><path d="M167.68,112.66 C167.72,112.61 167.72,112.61 167.76,112.57 C167.78,112.53 167.78,112.53 167.81,112.48 C167.83,112.43 167.83,112.43 167.84,112.38 "/><path d="M162.06,117.84 C162.10,117.82 162.10,117.82 162.14,117.81 C162.17,117.78 162.17,117.78 162.21,117.75 C162.24,117.71 162.24,117.71 162.28,117.67 C162.30,117.63 162.30,117.63 162.33,117.58 C162.34,117.53 162.34,117.53 162.35,117.48 C162.36,117.44 162.36,117.44 162.36,117.39 "/><path d="M164.44,114.43 C164.45,114.47 164.45,114.47 164.46,114.51 C164.45,114.56 164.45,114.56 164.44,114.60 C164.43,114.65 164.43,114.65 164.41,114.70 C164.38,114.75 164.38,114.75 164.35,114.79 C164.32,114.83 164.32,114.83 164.28,114.86 C164.24,114.89 164.24,114.89 164.21,114.91 C164.18,114.92 164.18,114.92 164.15,114.92 "/><path d="M161.21,120.02 C161.25,119.99 161.25,119.99 161.28,119.96 C161.32,119.93 161.32,119.92 161.35,119.89 C161.38,119.84 161.38,119.84 161.40,119.79 C161.42,119.74 161.42,119.74 161.43,119.69 C161.44,119.65 161.44,119.65 161.44,119.61 "/><path d="M161.12,123.77 C161.10,123.83 161.10,123.83 161.08,123.89 C161.05,123.94 161.05,123.94 161.03,123.98 C160.99,124.02 160.99,124.02 160.96,124.06 "/><path d="M162.72,116.78 C162.76,116.76 162.76,116.75 162.80,116.73 C162.83,116.70 162.83,116.70 162.87,116.66 C162.90,116.62 162.90,116.62 162.92,116.57 C162.94,116.52 162.94,116.52 162.96,116.48 C162.97,116.43 162.97,116.43 162.98,116.38 C162.97,116.34 162.97,116.34 162.96,116.30 "/><path d="M161.00,122.81 C160.99,122.87 160.99,122.87 160.98,122.92 C160.96,122.97 160.96,122.97 160.94,123.02 C160.90,123.06 160.90,123.06 160.87,123.10 C160.84,123.14 160.84,123.14 160.80,123.17 "/><path d="M161.01,121.77 C161.01,121.82 161.01,121.82 161.01,121.87 C160.99,121.92 160.99,121.92 160.97,121.97 C160.95,122.01 160.95,122.01 160.92,122.06 C160.89,122.10 160.89,122.10 160.85,122.14 C160.82,122.16 160.82,122.16 160.78,122.19 "/><path d="M163.39,115.81 C163.43,115.79 163.43,115.79 163.47,115.78 C163.50,115.75 163.50,115.75 163.54,115.72 C163.57,115.68 163.57,115.68 163.61,115.64 C163.63,115.59 163.63,115.59 163.65,115.54 C163.67,115.49 163.67,115.49 163.68,115.44 C163.68,115.40 163.68,115.41 163.68,115.36 "/><path d="M167.00,112.66 C166.99,112.71 166.99,112.71 166.98,112.76 C166.96,112.80 166.95,112.80 166.93,112.85 C166.90,112.89 166.90,112.89 166.87,112.94 C166.83,112.97 166.83,112.97 166.79,113.00 "/><path d="M165.10,127.17 C165.06,127.19 165.06,127.19 165.02,127.22 C164.99,127.26 164.99,127.26 164.95,127.30 C164.93,127.34 164.93,127.34 164.90,127.39 "/><path d="M165.90,127.17 C165.86,127.19 165.86,127.19 165.82,127.21 C165.79,127.24 165.79,127.24 165.75,127.28 C165.72,127.32 165.72,127.32 165.69,127.36 C165.67,127.41 165.67,127.41 165.65,127.46 "/><path d="M166.68,127.04 C166.64,127.06 166.64,127.06 166.61,127.09 C166.57,127.13 166.57,127.13 166.54,127.17 C166.51,127.21 166.51,127.21 166.49,127.26 C166.47,127.31 166.47,127.31 166.45,127.36 "/><path d="M167.30,127.08 C167.31,127.03 167.31,127.03 167.32,126.98 C167.34,126.93 167.34,126.93 167.36,126.89 C167.39,126.84 167.39,126.84 167.43,126.80 C167.46,126.77 167.46,126.77 167.50,126.74 C167.54,126.72 167.54,126.72 167.57,126.70 "/><path d="M169.85,125.31 C169.84,125.27 169.84,125.27 169.84,125.23 C169.84,125.18 169.84,125.18 169.85,125.13 C169.87,125.09 169.87,125.09 169.89,125.04 C169.91,124.99 169.91,124.99 169.94,124.95 C169.98,124.91 169.98,124.91 170.01,124.88 C170.05,124.85 170.05,124.85 170.09,124.83 "/><path d="M170.62,124.38 C170.61,124.37 170.61,124.34 170.62,124.29 C170.63,124.25 170.63,124.25 170.64,124.20 C170.66,124.15 170.66,124.15 170.69,124.10 C170.72,124.06 170.72,124.06 170.75,124.02 C170.79,123.99 170.79,123.99 170.83,123.96 C170.87,123.95 170.87,123.95 170.90,123.93 "/><path d="M169.02,126.04 C169.02,126.00 169.02,126.00 169.02,125.95 C169.03,125.91 169.03,125.91 169.04,125.86 C169.06,125.81 169.06,125.81 169.09,125.76 C169.12,125.72 169.12,125.72 169.15,125.68 C169.19,125.65 169.19,125.65 169.22,125.62 C169.26,125.60 169.26,125.60 169.30,125.59 "/><path d="M164.56,127.29 C164.58,127.25 164.58,127.25 164.60,127.20 C164.61,127.15 164.61,127.15 164.61,127.10 C164.61,127.06 164.61,127.06 164.60,127.03 "/><path d="M164.44,126.95 C164.40,126.97 164.40,126.97 164.36,126.99 C164.33,127.03 164.33,127.03 164.29,127.06 C164.26,127.11 164.26,127.11 164.23,127.15 "/><path d="M163.94,126.97 C163.96,126.92 163.96,126.92 163.98,126.87 C164.00,126.83 164.00,126.83 164.01,126.78 C164.01,126.74 164.01,126.73 164.01,126.69 "/><path d="M163.87,126.58 C163.83,126.59 163.83,126.59 163.80,126.61 C163.76,126.63 163.76,126.63 163.72,126.66 C163.69,126.70 163.69,126.70 163.65,126.74 "/><path d="M163.41,126.48 C163.44,126.44 163.44,126.44 163.47,126.39 C163.49,126.34 163.49,126.34 163.50,126.30 C163.51,126.25 163.51,126.25 163.51,126.20 C163.51,126.16 163.51,126.16 163.50,126.13 "/><path d="M163.00,125.84 C163.03,125.80 163.03,125.80 163.06,125.76 C163.09,125.71 163.09,125.71 163.11,125.67 C163.12,125.62 163.12,125.62 163.13,125.57 C163.13,125.53 163.13,125.53 163.13,125.48 "/><path d="M168.16,126.64 C168.16,126.59 168.16,126.59 168.17,126.54 C168.19,126.50 168.19,126.50 168.20,126.45 C168.23,126.40 168.23,126.40 168.26,126.36 C168.29,126.32 168.29,126.32 168.33,126.28 C168.36,126.26 168.37,126.26 168.40,126.23 "/><path d="M162.88,124.72 C162.87,124.76 162.87,124.76 162.87,124.81 C162.85,124.86 162.85,124.86 162.83,124.91 C162.81,124.95 162.81,124.95 162.78,125.00 C162.75,125.04 162.75,125.04 162.71,125.07 "/><path d="M163.33,119.94 C163.37,119.92 163.37,119.92 163.41,119.90 C163.44,119.86 163.44,119.86 163.48,119.83 C163.51,119.79 163.51,119.78 163.54,119.74 C163.56,119.69 163.56,119.69 163.58,119.64 C163.59,119.60 163.59,119.60 163.59,119.55 C163.59,119.51 163.59,119.51 163.58,119.47 "/><path d="M161.83,118.45 C161.84,118.49 161.84,118.49 161.84,118.53 C161.83,118.58 161.83,118.58 161.82,118.63 C161.81,118.68 161.81,118.68 161.78,118.72 C161.76,118.77 161.76,118.77 161.72,118.81 C161.69,118.85 161.69,118.85 161.65,118.88 C161.62,118.90 161.62,118.90 161.58,118.92 "/><path d="M163.81,118.85 C163.85,118.84 163.85,118.84 163.89,118.83 C163.93,118.80 163.93,118.80 163.96,118.77 C164.00,118.73 164.00,118.73 164.03,118.69 C164.05,118.64 164.06,118.64 164.08,118.59 C164.09,118.55 164.09,118.55 164.11,118.50 C164.11,118.45 164.11,118.45 164.11,118.41 "/><path d="M165.14,116.82 C165.18,116.81 165.18,116.81 165.22,116.79 C165.26,116.76 165.26,116.76 165.29,116.73 C165.33,116.69 165.33,116.69 165.36,116.65 C165.38,116.61 165.38,116.61 165.41,116.56 C165.42,116.51 165.42,116.51 165.43,116.46 C165.43,116.42 165.43,116.44 165.43,116.37 "/><path d="M162.55,124.19 C162.59,124.15 162.59,124.15 162.63,124.12 C162.66,124.08 162.66,124.08 162.69,124.04 C162.71,123.99 162.71,123.99 162.73,123.94 C162.74,123.89 162.74,123.89 162.75,123.84 C162.75,123.80 162.75,123.80 162.75,123.76 "/><path d="M164.47,117.79 C164.51,117.77 164.51,117.77 164.55,117.75 C164.58,117.71 164.58,117.71 164.62,117.68 C164.65,117.63 164.65,117.63 164.68,117.59 C164.70,117.54 164.70,117.54 164.72,117.49 C164.72,117.45 164.72,117.45 164.73,117.40 C164.73,117.36 164.73,117.36 164.72,117.32 "/><path d="M173.40,118.60 C173.37,118.62 173.37,118.62 173.33,118.64 C173.29,118.67 173.29,118.67 173.26,118.71 C173.23,118.75 173.23,118.75 173.20,118.79 C173.17,118.84 173.17,118.84 173.15,118.89 C173.14,118.94 173.14,118.94 173.14,118.98 C173.14,119.03 173.14,119.03 173.14,119.07 "/><path d="M172.46,121.29 C172.46,121.25 172.46,121.25 172.45,121.20 C172.46,121.16 172.46,121.16 172.47,121.11 C172.49,121.06 172.49,121.06 172.51,121.01 C172.54,120.97 172.54,120.97 172.57,120.93 C172.61,120.89 172.61,120.89 172.64,120.86 C172.68,120.84 172.68,120.84 172.72,120.82 "/><path d="M167.03,114.71 C167.03,114.76 167.03,114.76 167.03,114.80 C167.02,114.85 167.02,114.85 167.01,114.90 C166.99,114.94 166.99,114.94 166.96,114.99 C166.93,115.03 166.93,115.03 166.90,115.07 C166.86,115.11 166.86,115.11 166.83,115.14 C166.79,115.15 166.79,115.15 166.75,115.17 "/><path d="M172.23,121.90 C172.20,121.91 172.20,121.91 172.16,121.93 C172.12,121.96 172.12,121.96 172.09,121.99 C172.05,122.03 172.05,122.03 172.02,122.07 C171.99,122.11 171.99,122.11 171.97,122.16 C171.95,122.21 171.95,122.21 171.94,122.26 C171.94,122.30 171.94,122.30 171.94,122.35 "/><path d="M166.20,115.45 C166.20,115.49 166.20,115.49 166.21,115.53 C166.21,115.57 166.21,115.57 166.20,115.62 C166.18,115.67 166.18,115.67 166.16,115.72 C166.13,115.76 166.13,115.76 166.11,115.81 C166.07,115.84 166.07,115.84 166.03,115.88 C166.00,115.90 166.00,115.90 165.96,115.93 "/><path d="M168.47,114.05 C168.51,114.03 168.51,114.03 168.55,114.02 C168.59,113.98 168.59,113.98 168.62,113.95 C168.65,113.91 168.65,113.91 168.69,113.87 C168.71,113.82 168.71,113.82 168.73,113.77 C168.74,113.72 168.74,113.72 168.75,113.68 "/><path d="M170.15,113.58 C170.19,113.56 170.19,113.56 170.22,113.54 C170.26,113.51 170.26,113.51 170.30,113.48 C170.33,113.43 170.33,113.43 170.36,113.39 C170.38,113.34 170.38,113.34 170.40,113.29 "/><path d="M167.65,114.52 C167.68,114.50 167.68,114.50 167.72,114.47 C167.76,114.44 167.76,114.44 167.79,114.40 C167.82,114.35 167.82,114.35 167.84,114.31 C167.86,114.26 167.86,114.26 167.88,114.21 C167.89,114.16 167.89,114.16 167.89,114.12 "/><path d="M170.95,113.59 C170.99,113.56 170.99,113.56 171.03,113.53 C171.06,113.50 171.06,113.50 171.10,113.46 C171.12,113.41 171.12,113.41 171.15,113.36 "/><path d="M169.37,113.72 C169.40,113.69 169.40,113.69 169.44,113.66 C169.48,113.63 169.48,113.63 169.51,113.59 C169.54,113.54 169.54,113.54 169.56,113.50 C169.58,113.45 169.58,113.45 169.59,113.40 "/><path d="M171.82,113.60 C171.79,113.65 171.79,113.65 171.76,113.69 C171.72,113.73 171.72,113.73 171.69,113.76 C171.65,113.78 171.65,113.78 171.61,113.80 "/><path d="M171.45,113.73 C171.44,113.69 171.44,113.69 171.43,113.65 C171.44,113.60 171.44,113.60 171.45,113.56 C171.47,113.51 171.47,113.51 171.49,113.46 "/><path d="M172.55,114.63 C172.54,114.59 172.54,114.59 172.53,114.55 C172.54,114.51 172.54,114.51 172.55,114.46 C172.56,114.41 172.56,114.41 172.58,114.36 C172.61,114.32 172.61,114.32 172.64,114.27 "/><path d="M173.50,116.57 C173.46,116.60 173.46,116.60 173.42,116.63 C173.39,116.67 173.39,116.68 173.36,116.72 C173.34,116.77 173.34,116.77 173.32,116.81 C173.30,116.86 173.30,116.86 173.30,116.91 C173.30,116.95 173.30,116.95 173.30,116.99 "/><path d="M171.58,122.96 C171.54,122.98 171.54,122.98 171.50,123.01 C171.46,123.04 171.46,123.04 171.43,123.08 C171.40,123.12 171.40,123.12 171.37,123.17 C171.35,123.21 171.35,123.21 171.33,123.26 C171.32,123.31 171.32,123.31 171.32,123.36 C171.32,123.40 171.32,123.40 171.33,123.44 "/><path d="M172.11,113.78 C172.09,113.83 172.09,113.83 172.06,113.88 C172.05,113.93 172.05,113.93 172.04,113.98 C172.04,114.02 172.04,114.02 172.04,114.06 "/><path d="M172.18,114.18 C172.22,114.16 172.22,114.16 172.25,114.15 C172.29,114.12 172.29,114.12 172.33,114.09 C172.36,114.05 172.36,114.05 172.39,114.01 "/><path d="M173.34,115.68 C173.30,115.72 173.30,115.72 173.27,115.76 C173.24,115.80 173.24,115.80 173.21,115.85 C173.20,115.90 173.20,115.90 173.18,115.94 C173.17,115.99 173.17,115.99 173.17,116.04 "/><path d="M173.52,117.55 C173.48,117.58 173.48,117.58 173.44,117.60 C173.41,117.64 173.41,117.64 173.37,117.68 C173.35,117.72 173.35,117.72 173.32,117.77 C173.30,117.82 173.30,117.82 173.29,117.87 C173.29,117.89 173.29,117.89 173.28,117.92 C173.28,117.94 173.28,117.94 173.28,117.96 C173.29,118.00 173.29,118.00 173.30,118.03 "/><path d="M173.09,119.72 C173.05,119.75 173.05,119.75 173.01,119.77 C172.98,119.81 172.98,119.81 172.94,119.85 C172.92,119.90 172.92,119.90 172.89,119.95 C172.88,119.99 172.88,119.99 172.86,120.04 C172.86,120.09 172.86,120.09 172.86,120.13 "/><path d="M163.19,120.62 C163.19,120.67 163.19,120.67 163.19,120.71 C163.17,120.76 163.17,120.76 163.16,120.81 C163.13,120.86 163.13,120.86 163.10,120.90 C163.07,120.94 163.07,120.94 163.04,120.98 C163.00,121.01 163.00,121.01 162.96,121.03 "/><path d="M173.05,114.91 C173.02,114.95 173.02,114.95 172.99,114.99 C172.96,115.04 172.96,115.04 172.94,115.09 C172.93,115.14 172.93,115.14 172.92,115.18 C172.92,115.23 172.92,115.23 172.92,115.27 "/><path d="M162.77,122.80 C162.76,122.84 162.76,122.84 162.76,122.89 C162.74,122.93 162.74,122.94 162.73,122.98 C162.70,123.03 162.70,123.03 162.67,123.08 C162.64,123.11 162.64,123.11 162.61,123.15 C162.57,123.18 162.57,123.18 162.53,123.20 "/><path d="M161.15,120.67 C161.16,120.71 161.16,120.71 161.16,120.75 C161.15,120.80 161.15,120.80 161.14,120.85 C161.12,120.90 161.12,120.90 161.10,120.95 C161.07,120.99 161.07,120.99 161.04,121.03 C161.00,121.07 161.00,121.07 160.97,121.10 C160.93,121.12 160.93,121.12 160.89,121.14 "/><path d="M162.64,122.15 C162.68,122.13 162.68,122.13 162.72,122.11 C162.76,122.08 162.76,122.08 162.79,122.05 C162.82,122.01 162.82,122.01 162.85,121.96 C162.87,121.91 162.87,121.91 162.89,121.87 C162.90,121.82 162.90,121.82 162.91,121.77 C162.91,121.73 162.91,121.73 162.91,121.69 "/><path d="M141.01,108.34 L149.96,113.53 "/><path d="M140.91,108.13 L149.97,113.37 "/><path d="M140.47,107.65 L140.38,107.44 "/><path d="M149.68,109.25 L143.37,105.59 "/><path d="M148.35,110.28 L148.31,110.29 L148.06,110.55 L148.07,110.59 L148.14,110.65 L150.36,111.93 "/><path d="M148.06,110.55 L148.11,110.53 L148.20,110.55 L148.33,110.61 L150.40,111.81 "/><path d="M154.92,107.10 L156.09,107.00 L156.40,106.99 "/><path d="M159.15,108.37 L157.69,107.52 L157.64,107.50 "/><path d="M149.77,108.82 L149.78,108.79 L149.82,108.72 L149.90,108.68 L150.00,108.69 L150.13,108.75 L151.63,109.62 "/><path d="M150.15,108.42 L150.07,108.46 L149.82,108.72 "/><path d="M156.91,121.11 L156.87,121.09 L156.88,121.09 "/><path d="M157.22,121.29 L156.86,121.06 L156.71,120.88 "/><path d="M163.88,110.80 L163.83,110.77 "/><path d="M160.53,111.41 L160.25,111.56 L160.00,111.74 "/><path d="M159.99,110.81 L159.72,110.93 "/><path d="M159.15,110.73 L158.88,110.91 L158.90,110.90 "/><path d="M158.03,123.08 L157.10,121.02 L158.42,121.78 L161.09,127.75 L159.77,126.99 L158.03,123.08 "/><path d="M156.98,121.13 L156.91,121.11 "/><path d="M157.10,121.02 L161.41,112.12 L162.72,112.88 L158.42,121.78 "/><path d="M157.42,118.60 L157.41,118.21 "/><path d="M157.78,119.30 L157.77,119.43 L157.78,119.48 "/><path d="M158.22,118.70 L158.22,118.50 "/><path d="M158.52,111.17 L158.72,111.01 L158.88,110.91 "/><path d="M160.24,110.18 L160.10,110.21 L159.93,110.27 "/><path d="M161.78,109.88 L159.15,108.37 L159.27,108.44 "/><path d="M161.09,127.75 L163.51,126.73 "/><path d="M161.25,124.83 L161.43,125.16 L163.19,126.18 L163.00,125.84 L161.25,124.83 "/><path d="M161.39,123.92 L160.86,123.62 L160.80,123.17 L162.55,124.19 L162.61,124.63 L161.39,123.92 "/><path d="M160.96,124.06 L161.08,124.45 L162.84,125.47 L162.71,125.07 L160.96,124.06 "/><path d="M161.39,123.04 L160.77,122.68 L160.78,122.19 L162.53,123.20 L162.52,123.70 L161.39,123.04 "/><path d="M161.39,121.43 L160.89,121.14 L160.82,121.66 L162.57,122.68 L162.64,122.15 L161.39,121.43 "/><path d="M161.39,120.19 L161.14,120.04 L161.00,120.58 L162.75,121.60 L162.89,121.06 L161.39,120.19 "/><path d="M161.39,119.26 L161.31,119.48 L163.06,120.49 L163.26,119.95 L161.51,118.93 L161.39,119.26 "/><path d="M160.69,111.80 L160.96,111.58 L161.21,111.47 "/><path d="M163.97,111.05 L163.90,111.03 "/><path d="M161.39,111.83 L161.40,111.83 "/><path d="M160.79,110.00 L160.97,109.98 "/><path d="M162.51,125.96 L161.66,125.47 L161.90,125.72 L163.65,126.74 L163.41,126.48 L162.51,125.96 "/><path d="M162.26,126.00 L162.18,125.95 L163.94,126.97 L164.23,127.15 L162.48,126.13 L162.26,126.00 "/><path d="M162.51,118.81 L161.74,118.37 L162.00,117.83 L163.75,118.85 L163.50,119.38 L162.51,118.81 "/><path d="M162.51,117.41 L162.29,117.28 L162.59,116.77 L164.34,117.78 L164.04,118.30 L162.51,117.41 "/><path d="M161.41,112.12 L168.39,109.19 L169.70,109.96 L162.72,112.88 "/><path d="M163.63,116.65 L162.93,116.25 L163.28,115.77 L165.03,116.78 L164.68,117.26 L163.63,116.65 "/><path d="M163.48,110.57 L163.77,110.75 "/><path d="M163.09,110.34 L163.38,110.53 "/><path d="M162.69,110.11 L162.98,110.30 "/><path d="M164.25,127.12 L164.56,127.29 L164.90,127.39 "/><path d="M164.75,115.93 L163.65,115.29 L164.03,114.86 L165.79,115.87 L165.41,116.31 L164.75,115.93 "/><path d="M164.64,114.55 L164.44,114.43 L164.85,114.06 L166.60,115.07 L166.20,115.45 L164.64,114.55 "/><path d="M164.97,127.28 L165.27,127.45 L165.65,127.46 "/><path d="M165.77,127.26 L166.05,127.43 L166.45,127.36 "/><path d="M168.38,119.58 L168.38,119.70 L168.38,120.13 L168.22,120.52 "/><path d="M166.45,120.97 L165.36,120.34 "/><path d="M165.87,114.04 L165.28,113.70 L165.70,113.39 L167.45,114.40 L167.03,114.71 L165.87,114.04 "/><path d="M166.62,127.08 L166.88,127.24 L167.30,127.08 "/><path d="M166.69,113.42 L167.89,114.12 L168.31,113.88 L166.56,112.86 L166.14,113.10 L166.69,113.42 "/><path d="M167.50,126.74 L167.74,126.87 L168.16,126.64 "/><path d="M168.11,113.31 L167.00,112.66 L167.42,112.50 L169.17,113.52 L168.75,113.68 L168.11,113.31 "/><path d="M167.84,112.38 L169.59,113.40 L170.00,113.33 L168.24,112.31 L167.84,112.38 "/><path d="M169.02,126.04 L168.60,126.35 L168.40,126.24 "/><path d="M168.69,112.30 L168.65,112.28 L169.02,112.29 L170.78,113.31 L170.40,113.29 L168.69,112.30 "/><path d="M169.29,125.59 L169.45,125.68 L169.85,125.31 "/><path d="M170.64,124.45 L170.26,124.88 L170.15,124.82 "/><path d="M169.42,112.35 L169.39,112.35 L171.15,113.36 L171.48,113.46 L169.73,112.44 L169.42,112.35 "/><path d="M171.16,113.23 L169.70,109.96 "/><path d="M171.37,123.49 L171.02,123.97 L170.96,123.93 "/><path d="M170.04,112.62 L170.06,112.59 L171.82,113.60 L172.11,113.78 "/><path d="M171.70,122.97 L172.01,122.46 "/><path d="M172.30,121.91 L172.55,121.37 L172.49,121.34 "/><path d="M171.48,113.46 L171.49,113.46 "/><path d="M172.09,113.84 L172.39,114.01 L172.64,114.27 "/><path d="M172.57,114.41 L172.86,114.58 L173.05,114.91 "/><path d="M172.79,120.81 L172.99,120.26 L172.88,120.20 "/><path d="M173.16,119.70 L173.30,119.16 L173.14,119.07 "/><path d="M173.28,117.97 L173.48,118.08 L173.40,118.60 "/><path d="M173.52,117.55 L173.52,117.06 L173.30,116.93 "/><path d="M172.93,115.12 L173.21,115.29 L173.34,115.68 "/><path d="M173.50,116.57 L173.43,116.12 L173.18,115.97 "/><path d="M161.44,119.61 L161.39,119.81 "/><path d="M161.82,118.43 L161.60,118.91 "/><path d="M162.09,117.83 L162.32,117.31 "/><path d="M163.68,115.39 L163.33,115.80 "/><path d="M162.97,116.34 L162.65,116.79 "/><path d="M161.66,125.47 L161.71,125.38 L161.73,125.33 "/><path d="M162.00,117.83 L162.06,117.84 "/><path d="M162.36,117.39 L162.33,117.32 L162.29,117.28 "/><path d="M168.65,112.28 L168.60,112.37 L168.53,112.47 "/><path d="M161.14,120.04 L161.21,120.02 "/><path d="M161.44,119.61 L161.42,119.54 "/><path d="M162.59,116.77 L162.65,116.79 L162.72,116.78 "/><path d="M162.96,116.30 L162.93,116.25 "/><path d="M163.34,115.81 L163.39,115.81 "/><path d="M163.68,115.36 L163.65,115.29 "/><path d="M169.39,112.35 L169.32,112.46 "/><path d="M165.27,127.45 L165.30,127.35 L165.30,127.26 L165.28,127.19 L165.23,127.15 L165.17,127.14 L165.10,127.17 "/><path d="M166.05,127.43 L166.07,127.33 L166.06,127.25 L166.02,127.20 L165.97,127.17 L165.90,127.17 "/><path d="M166.88,127.24 L166.88,127.15 L166.86,127.08 L166.82,127.03 L166.76,127.02 L166.68,127.04 "/><path d="M167.57,126.70 L167.64,126.70 L167.70,126.73 L167.73,126.79 L167.74,126.87 "/><path d="M170.09,124.83 L170.16,124.81 L170.22,124.83 L170.26,124.88 "/><path d="M170.64,124.45 L170.62,124.38 "/><path d="M170.90,123.93 L170.97,123.94 L171.02,123.97 "/><path d="M169.30,125.59 L169.37,125.59 L169.42,125.62 L169.45,125.68 "/><path d="M164.60,127.03 L164.57,126.97 L164.51,126.95 L164.44,126.95 "/><path d="M164.01,126.69 L163.98,126.62 L163.93,126.59 L163.87,126.58 "/><path d="M163.50,126.13 L163.46,126.07 L163.40,126.05 L163.33,126.06 L163.26,126.11 L163.19,126.18 "/><path d="M163.13,125.48 L163.10,125.42 L163.05,125.38 L162.98,125.38 L162.91,125.41 L162.84,125.47 "/><path d="M168.40,126.23 L168.48,126.22 L168.54,126.23 L168.58,126.28 L168.60,126.35 "/><path d="M162.61,124.63 L162.69,124.59 L162.76,124.57 L162.82,124.59 L162.86,124.64 L162.88,124.72 "/><path d="M163.26,119.95 L163.33,119.94 "/><path d="M163.58,119.47 L163.55,119.41 L163.50,119.38 "/><path d="M161.80,118.40 L161.83,118.45 "/><path d="M161.58,118.92 L161.51,118.93 "/><path d="M163.75,118.85 L163.81,118.85 "/><path d="M164.11,118.41 L164.09,118.34 L164.04,118.30 "/><path d="M165.03,116.78 L165.08,116.82 L165.14,116.82 "/><path d="M165.43,116.37 L165.41,116.31 "/><path d="M162.75,123.76 L162.72,123.70 L162.67,123.66 L162.60,123.66 L162.52,123.70 "/><path d="M164.34,117.78 L164.40,117.80 L164.47,117.79 "/><path d="M164.72,117.32 L164.68,117.26 "/><path d="M173.14,119.07 L173.17,119.13 L173.23,119.16 L173.30,119.16 "/><path d="M172.55,121.37 L172.50,121.34 L172.46,121.29 "/><path d="M172.72,120.82 L172.79,120.81 "/><path d="M166.75,115.17 L166.68,115.17 L166.63,115.13 L166.60,115.07 "/><path d="M172.30,121.91 L172.23,121.90 "/><path d="M171.94,122.35 L171.96,122.41 L172.01,122.46 "/><path d="M165.96,115.93 L165.89,115.94 L165.83,115.92 L165.79,115.87 "/><path d="M168.31,113.88 L168.32,113.96 L168.35,114.02 L168.41,114.05 L168.47,114.05 "/><path d="M170.00,113.33 L169.98,113.42 L169.99,113.50 L170.02,113.56 L170.08,113.59 L170.15,113.58 "/><path d="M167.45,114.40 L167.47,114.48 L167.51,114.52 L167.57,114.54 L167.65,114.52 "/><path d="M170.78,113.31 L170.75,113.40 L170.75,113.49 L170.77,113.56 L170.82,113.60 L170.88,113.61 L170.95,113.59 "/><path d="M169.17,113.52 L169.16,113.61 L169.19,113.68 L169.23,113.72 L169.29,113.74 L169.37,113.72 "/><path d="M171.61,113.80 L171.54,113.81 L171.48,113.78 L171.45,113.73 "/><path d="M172.86,114.58 L172.79,114.65 L172.72,114.69 L172.65,114.70 L172.59,114.68 L172.55,114.63 "/><path d="M173.30,116.99 L173.33,117.06 L173.38,117.09 L173.45,117.09 L173.52,117.06 "/><path d="M171.70,122.97 L171.65,122.95 L171.58,122.96 "/><path d="M171.33,123.44 L171.37,123.49 "/><path d="M172.04,114.06 L172.07,114.13 L172.11,114.17 L172.18,114.18 "/><path d="M173.17,116.04 L173.19,116.11 L173.23,116.16 L173.29,116.18 L173.36,116.17 L173.43,116.12 "/><path d="M173.30,118.03 L173.34,118.08 L173.40,118.10 L173.48,118.08 "/><path d="M173.16,119.70 L173.09,119.72 "/><path d="M172.86,120.13 L172.88,120.20 L172.92,120.25 L172.99,120.26 "/><path d="M163.06,120.49 L163.12,120.51 L163.17,120.55 L163.19,120.62 "/><path d="M162.96,121.03 L162.89,121.06 "/><path d="M172.92,115.27 L172.95,115.33 L173.00,115.37 L173.06,115.37 L173.14,115.35 L173.21,115.29 "/><path d="M162.57,122.68 L162.64,122.66 L162.70,122.67 L162.75,122.72 L162.77,122.80 "/><path d="M162.91,121.69 L162.87,121.63 L162.82,121.60 L162.75,121.60 "/><path d="M162.18,125.95 L162.21,125.90 "/><path d="M149.679 109.248 a1.180 0.682 -59.899 0 1 -1.076 1.124"/><path d="M141.342 107.326 a0.932 0.698 -23.316 0 1 1.688 -0.726"/><path d="M167.798 117.070 a3.602 2.084 -59.899 1 1 -2.756 4.758"/><path d="M140.914 108.125 a1.863 1.397 156.684 0 1 2.453 -2.536"/><ellipse rx="0.93" ry="0.70" transform="translate(142.141 106.857) rotate(156.684)"/><path d="M141.006 108.338 a1.863 1.397 156.684 0 1 -0.538 -0.689"/><ellipse rx="4.22" ry="2.44" transform="translate(168.024 120.377) rotate(-59.899)"/></g></g><g id="Actor_4.0"><g style="stroke:#000020;stroke-width:0.079"><path d="M203.02,88.06 C202.77,87.72 202.77,87.72 202.52,87.39 C202.45,87.30 202.45,87.30 202.37,87.22 C202.30,87.16 202.30,87.16 202.23,87.10 C202.19,87.08 202.19,87.08 202.14,87.06 "/><path d="M202.31,87.89 C202.27,87.87 202.27,87.87 202.23,87.85 C202.18,87.81 202.18,87.81 202.12,87.77 C202.08,87.72 202.08,87.72 202.04,87.67 C202.01,87.61 202.01,87.61 201.97,87.55 C201.95,87.49 201.95,87.48 201.93,87.42 C201.92,87.35 201.92,87.35 201.91,87.29 C201.92,87.23 201.92,87.23 201.93,87.17 "/><path d="M202.09,87.59 C202.13,87.64 202.13,87.64 202.16,87.69 C202.19,87.72 202.19,87.72 202.23,87.74 C202.26,87.75 202.26,87.75 202.29,87.77 "/><path d="M202.43,87.67 C202.43,87.63 202.43,87.63 202.44,87.59 C202.43,87.54 202.43,87.54 202.43,87.49 C202.41,87.45 202.41,87.45 202.40,87.41 C202.37,87.37 202.37,87.36 202.35,87.32 C202.32,87.29 202.32,87.29 202.29,87.25 C202.26,87.23 202.26,87.23 202.23,87.21 C202.19,87.20 202.19,87.20 202.16,87.18 "/><path d="M202.05,87.23 C202.04,87.26 202.04,87.26 202.02,87.30 C202.02,87.33 202.02,87.33 202.02,87.35 C202.03,87.41 202.03,87.41 202.03,87.46 C202.05,87.51 202.05,87.51 202.07,87.55 C202.08,87.57 202.08,87.57 202.09,87.59 "/><path d="M202.14,87.19 C202.12,87.22 202.12,87.22 202.11,87.25 C202.11,87.28 202.11,87.28 202.11,87.30 C202.11,87.36 202.11,87.36 202.12,87.41 C202.14,87.45 202.14,87.45 202.16,87.50 C202.18,87.54 202.18,87.54 202.20,87.57 C202.22,87.61 202.22,87.61 202.25,87.64 C202.28,87.66 202.28,87.67 202.32,87.69 C202.35,87.70 202.35,87.70 202.38,87.71 "/><path d="M210.66,101.30 C210.22,100.64 210.22,100.63 209.82,99.93 C209.58,99.05 209.58,99.04 209.38,98.15 C209.36,97.11 209.36,97.10 209.38,96.05 C209.58,94.91 209.58,94.91 209.82,93.77 C210.22,92.59 210.22,92.59 210.66,91.43 C211.25,90.29 211.25,90.29 211.87,89.16 C212.60,88.13 212.60,88.13 213.37,87.11 C214.20,86.24 214.20,86.24 215.07,85.39 C215.96,84.73 215.96,84.73 216.87,84.10 C217.70,83.72 217.71,83.74 218.55,83.37 C218.61,83.34 218.61,83.34 218.68,83.32 C219.53,83.20 219.53,83.20 220.38,83.08 "/><path d="M223.08,84.29 C223.52,84.96 223.53,84.96 223.93,85.66 C224.22,86.60 224.20,86.61 224.47,87.56 C224.67,88.32 224.67,88.32 224.85,89.09 C224.89,89.64 224.89,89.65 224.92,90.20 C224.87,90.72 224.87,90.72 224.80,91.24 C224.66,91.81 224.66,91.81 224.51,92.37 C224.27,92.98 224.27,92.98 224.02,93.59 C223.77,94.10 223.77,94.09 223.52,94.59 C223.45,94.71 223.46,94.71 223.39,94.83 C223.00,95.47 223.00,95.47 222.60,96.11 C222.16,96.71 222.16,96.71 221.71,97.31 C221.21,97.90 221.21,97.90 220.70,98.49 C220.20,98.99 220.20,98.99 219.69,99.49 C219.14,99.96 219.14,99.96 218.57,100.43 C218.03,100.82 218.03,100.82 217.48,101.20 C216.94,101.51 216.94,101.52 216.40,101.81 C215.89,102.03 215.89,102.03 215.38,102.23 C214.91,102.34 214.91,102.34 214.44,102.43 C214.04,102.44 214.03,102.44 213.63,102.43 C213.28,102.33 213.27,102.33 212.93,102.21 "/><path d="M212.41,101.79 C212.21,101.49 212.21,101.48 212.04,101.17 C211.93,100.78 211.94,100.78 211.85,100.39 C211.84,99.91 211.85,99.91 211.85,99.43 C211.94,98.90 211.94,98.90 212.03,98.38 C212.21,97.78 212.21,97.78 212.40,97.19 C212.55,96.84 212.56,96.84 212.71,96.49 C212.82,96.24 212.81,96.23 212.93,95.98 C213.27,95.34 213.27,95.34 213.62,94.71 C214.02,94.09 214.02,94.09 214.43,93.48 C214.90,92.87 214.90,92.87 215.38,92.26 C215.87,91.70 215.87,91.70 216.37,91.15 C216.92,90.63 216.92,90.63 217.47,90.12 C218.01,89.68 218.01,89.67 218.57,89.24 C219.10,88.88 219.11,88.89 219.65,88.53 C219.78,88.46 219.78,88.46 219.91,88.39 C220.44,88.14 220.44,88.13 220.97,87.90 C221.45,87.75 221.45,87.75 221.93,87.62 C222.37,87.57 222.37,87.57 222.81,87.55 C223.18,87.61 223.18,87.61 223.55,87.69 "/><path d="M218.56,98.31 C218.56,98.37 218.56,98.38 218.56,98.45 C218.51,98.70 218.51,98.70 218.46,98.95 C218.40,99.11 218.39,99.11 218.33,99.27 C218.27,99.38 218.27,99.39 218.21,99.50 C218.14,99.61 218.14,99.61 218.07,99.73 C217.99,99.83 217.99,99.83 217.91,99.93 C217.82,100.02 217.82,100.02 217.73,100.11 C217.68,100.15 217.68,100.15 217.63,100.20 C217.52,100.29 217.52,100.29 217.41,100.37 C217.31,100.44 217.31,100.44 217.20,100.50 C217.09,100.54 217.09,100.54 216.99,100.58 C216.83,100.62 216.83,100.63 216.66,100.66 C216.49,100.66 216.48,100.66 216.31,100.65 "/><path d="M215.92,100.12 C215.93,99.89 215.93,99.89 215.94,99.65 C216.02,99.39 216.02,99.38 216.11,99.12 C216.26,98.84 216.26,98.84 216.41,98.57 C216.61,98.33 216.61,98.32 216.81,98.08 C217.02,97.89 217.02,97.89 217.25,97.71 C217.46,97.59 217.46,97.59 217.68,97.49 "/><path d="M197.79,73.83 C197.75,73.81 197.75,73.81 197.71,73.80 C197.57,73.77 197.57,73.77 197.43,73.74 C197.28,73.73 197.28,73.73 197.12,73.73 C196.98,73.75 196.98,73.75 196.83,73.78 C196.75,73.80 196.75,73.80 196.68,73.83 "/><path d="M196.47,91.47 L193.28,89.62 L193.29,88.05 L196.28,86.33 L196.47,86.33 "/><path d="M196.47,90.61 L193.28,88.76 "/><path d="M196.47,83.86 L193.28,82.02 L193.28,81.15 L196.47,83.00 "/><path d="M196.81,78.72 L196.28,78.72 L193.29,80.44 L193.28,81.15 "/><path d="M198.46,76.55 L193.28,73.55 L193.28,74.41 L198.32,77.33 "/><path d="M193.28,73.55 L193.29,72.84 L193.89,72.49 L196.28,71.12 L197.51,71.12 L202.68,74.12 "/><path d="M196.47,91.29 L196.47,79.81 "/><path d="M205.52,83.84 L196.78,78.78 "/><path d="M198.17,77.62 L198.17,77.42 L198.34,77.52 "/><path d="M197.53,77.99 L199.90,76.62 L208.67,78.41 L211.58,82.31 "/><path d="M198.17,77.42 L198.45,77.26 "/><path d="M200.62,89.21 L199.68,88.15 L199.59,88.20 L200.90,89.68 L200.99,89.63 L200.62,89.21 "/><path d="M199.59,88.20 L199.59,88.35 L200.01,88.83 L200.01,89.51 L199.59,89.50 L199.59,89.64 L200.90,89.70 L200.90,89.68 "/><path d="M199.59,89.50 L199.68,89.44 L200.01,89.46 "/><path d="M200.62,89.54 L200.15,89.52 L200.15,88.98 L200.65,89.54 L200.62,89.54 "/><path d="M200.15,89.52 L200.23,89.47 L200.60,89.49 "/><path d="M200.23,89.47 L200.23,89.08 "/><path d="M200.30,85.47 L200.18,85.40 L200.18,84.95 L199.79,84.73 L199.79,84.59 L200.18,84.82 L200.18,84.37 L200.27,84.32 L200.39,84.39 L200.39,84.83 L200.30,84.89 L200.69,85.11 L200.69,85.25 L200.30,85.02 L200.30,85.47 L200.39,85.42 L200.39,85.07 "/><path d="M200.39,84.83 L200.77,85.06 L200.69,85.11 "/><path d="M200.39,84.39 L200.30,84.44 L200.30,84.89 "/><path d="M199.79,84.59 L199.88,84.54 L200.18,84.72 "/><path d="M200.18,84.37 L200.30,84.44 "/><path d="M211.26,82.62 L208.59,79.03 L201.60,77.61 L199.90,76.62 L203.69,74.45 L212.45,76.23 L208.67,78.41 "/><path d="M200.99,89.63 L200.99,89.65 L200.90,89.70 "/><path d="M200.77,85.06 L200.77,85.20 L200.69,85.25 "/><path d="M204.73,95.71 L202.42,94.37 "/><path d="M201.94,92.84 L201.94,92.83 L201.94,93.64 "/><path d="M202.03,92.22 L201.94,92.27 L201.94,92.38 L201.99,92.41 "/><path d="M201.94,92.27 L202.01,92.31 "/><path d="M202.80,89.02 L201.94,88.98 L201.94,88.86 L202.28,88.87 L202.28,88.32 L201.94,87.94 L201.94,87.82 L202.86,88.86 "/><path d="M202.28,88.82 L202.03,88.81 L201.94,88.86 "/><path d="M202.38,88.88 L202.79,88.90 L202.38,88.44 L202.38,88.88 L202.47,88.83 L202.74,88.84 "/><path d="M202.47,88.83 L202.47,88.54 "/><path d="M202.92,88.78 L202.03,87.77 L201.94,87.82 "/><path d="M202.45,87.15 L202.61,87.34 L203.11,88.01 L203.05,88.06 L202.96,88.11 L203.02,88.06 "/><path d="M202.14,87.06 L202.05,87.06 L201.98,87.10 L202.05,87.06 "/><path d="M202.63,87.66 L202.62,87.74 L202.57,87.81 L202.40,87.90 L202.31,87.89 "/><path d="M201.93,87.17 L201.98,87.10 "/><path d="M202.49,87.85 L202.53,87.79 L202.55,87.67 L202.54,87.54 L202.96,88.11 "/><path d="M202.29,87.77 L202.34,87.76 L202.40,87.73 L202.43,87.67 "/><path d="M202.16,87.18 L202.10,87.19 L202.05,87.23 "/><path d="M202.38,87.71 L202.40,87.71 "/><path d="M203.08,86.75 L202.99,86.80 L202.99,87.03 L203.08,86.98 L203.08,86.75 L202.97,86.62 L202.88,86.67 L202.88,86.86 L201.94,86.31 L202.03,86.26 L202.88,86.75 "/><path d="M202.99,87.03 L201.94,86.42 L201.94,86.31 "/><path d="M203.41,98.94 L203.69,99.10 "/><path d="M203.11,88.01 L203.02,88.06 "/><path d="M202.99,86.80 L202.88,86.67 "/><path d="M203.69,74.45 L206.06,73.08 "/><path d="M203.91,74.12 L204.20,73.95 L204.37,74.05 "/><path d="M204.99,100.11 L204.15,99.63 L203.41,98.79 "/><path d="M209.93,80.83 L206.17,82.99 L209.33,84.82 "/><path d="M206.68,72.96 L207.34,73.33 L206.80,73.02 "/><path d="M207.58,103.78 L208.28,104.18 "/><path d="M207.34,73.33 L212.31,76.20 "/><path d="M214.04,102.43 L213.37,102.51 L211.87,102.18 L210.66,101.30 "/><path d="M220.38,83.08 L221.87,83.41 L223.08,84.29 "/><path d="M212.93,102.21 L212.74,102.06 L212.41,101.79 "/><path d="M223.55,87.69 L224.16,88.04 L224.58,88.58 L224.85,89.32 L224.92,90.20 "/><path d="M215.07,79.75 L212.45,76.23 "/><path d="M215.44,78.01 L212.52,76.33 "/><path d="M214.44,102.43 L213.63,102.47 "/><path d="M216.79,79.01 L214.95,77.94 L214.09,78.43 "/><path d="M218.56,98.32 L218.56,98.31 "/><path d="M216.31,100.65 L216.05,100.47 L215.92,100.12 "/><path d="M217.68,97.49 L218.07,97.44 L218.37,97.57 L218.54,97.87 L218.55,98.09 L218.54,97.87 "/><path d="M216.97,78.65 L217.32,78.85 "/><path d="M218.56,98.31 L218.55,98.09 "/><path d="M221.79,79.27 L222.49,79.68 "/><path d="M224.81,91.13 L224.85,90.89 L224.89,90.48 "/><path d="M206.06,73.08 L206.39,72.95 L206.69,72.96 L206.92,73.09 "/><path d="M202.47,87.19 L202.32,87.05 L202.23,87.01 L202.14,87.01 L202.07,87.05 "/><path d="M196.47,88.31 L196.40,88.38 L196.31,88.55 L196.32,88.72 L196.43,88.89 L196.47,88.92 "/><path d="M196.47,80.70 L196.40,80.77 L196.31,80.94 L196.32,81.12 L196.43,81.28 L196.47,81.31 "/><path d="M198.46,76.55 L198.62,76.67 L198.70,76.82 L198.70,76.98 L198.62,77.13 L198.45,77.26 "/><path d="M196.469 79.814 a1.490 0.862 120.101 0 1 1.056 -1.824"/><path d="M201.862 93.539 a12.299 7.115 -59.899 0 1 4.306 -10.549"/><path d="M214.954 77.938 a12.299 7.115 -59.899 0 1 2.311 0.929"/><path d="M207.962 103.977 a14.162 8.193 120.101 1 1 14.205 -24.455"/><ellipse rx="0.93" ry="0.54" transform="translate(197.236 73.400) rotate(-180.000)"/><path d="M221.575 97.467 a14.161 8.193 -59.899 1 1 3.334 -7.389"/><path d="M203.912 74.119 a0.869 0.502 -0.000 0 1 -1.230 -0.001"/></g></g><g id="Actor_54.0"><g style="stroke:#000020;stroke-width:0.079"><path d="M59.88,149.59 L62.51,151.12 "/><path d="M59.72,65.70 L59.72,149.15 "/><path d="M62.59,66.52 L59.96,64.99 "/><path d="M60.52,64.40 L84.62,50.54 "/><path d="M62.35,150.72 L62.35,67.23 "/><path d="M63.15,151.13 L65.99,149.49 "/><path d="M63.14,65.93 L87.25,52.07 "/><path d="M66.81,148.01 L66.81,143.95 "/><path d="M67.69,142.43 L87.93,130.79 "/><path d="M86.18,131.79 L86.18,133.83 "/><path d="M85.14,50.44 L86.30,51.11 L85.33,50.55 "/><path d="M87.42,51.76 L86.30,51.11 L87.77,51.96 "/><path d="M88.98,135.85 L86.35,134.33 "/><path d="M87.42,51.76 L87.96,52.08 "/><path d="M88.13,52.52 L88.13,57.65 L102.93,49.14 L100.30,47.61 L88.13,54.61 "/><path d="M89.19,135.97 L91.62,137.38 "/><path d="M88.81,131.24 L88.81,135.41 "/><path d="M89.69,135.86 L91.45,134.85 L91.45,136.93 "/><path d="M125.61,118.26 L92.33,137.39 "/><path d="M100.30,47.61 L100.30,39.51 "/><path d="M100.56,38.63 L103.19,40.16 "/><path d="M101.10,38.03 L122.97,25.45 "/><path d="M102.93,49.14 L102.93,41.03 "/><path d="M103.73,39.55 L125.60,26.97 "/><path d="M107.79,62.32 L106.73,62.93 L106.73,67.49 L107.78,66.89 L106.73,66.28 "/><path d="M111.36,68.95 L113.99,70.47 L113.99,71.68 L117.96,69.40 L115.33,67.88 L112.41,69.56 "/><path d="M116.91,48.71 L117.96,49.32 L117.96,48.11 L113.99,50.38 L113.99,51.60 "/><path d="M115.33,67.88 L115.33,66.67 L117.96,68.19 L117.96,69.40 "/><path d="M119.30,61.81 L121.93,63.33 "/><path d="M121.54,51.38 L124.17,52.90 L125.22,52.30 L125.22,56.86 L124.17,57.47 L121.54,55.94 L122.59,55.34 L122.59,51.99 "/><path d="M122.59,55.34 L125.22,56.86 "/><path d="M124.33,25.83 L125.52,26.52 L123.49,25.34 "/><path d="M124.40,25.87 L123.69,25.46 "/><path d="M126.12,26.87 L125.52,26.52 L126.32,26.98 "/><path d="M126.48,116.78 L126.48,114.71 L128.24,113.69 "/><path d="M154.79,13.23 L126.48,29.51 L126.48,27.43 "/><path d="M125.96,26.77 L152.14,11.72 "/><path d="M129.79,49.67 L128.74,50.27 L128.74,54.84 L129.79,54.23 L128.74,53.63 "/><path d="M129.12,108.06 L129.12,112.23 "/><path d="M130.00,106.60 L130.05,106.57 "/><path d="M134.42,56.90 L137.33,55.23 L139.96,56.75 L136.00,59.03 L136.00,57.82 L133.37,56.30 "/><path d="M136.00,38.94 L136.00,37.73 L139.96,35.45 L139.96,36.66 L138.91,36.06 "/><path d="M137.33,55.23 L137.33,54.02 L139.96,55.54 L139.96,56.75 "/><path d="M150.25,94.96 L138.37,101.79 "/><path d="M143.94,50.68 L141.31,49.16 "/><path d="M144.59,39.33 L146.17,40.25 L147.22,39.64 L147.22,44.21 L146.17,44.81 L143.54,43.29 L144.59,42.67 L144.59,39.33 L143.54,38.72 "/><path d="M144.57,42.69 L147.22,44.21 "/><path d="M148.76,98.55 L149.06,98.73 L148.86,98.61 "/><path d="M148.50,97.98 L148.50,95.96 "/><path d="M149.06,98.73 L150.18,99.37 L149.06,98.73 "/><path d="M151.30,100.02 L150.18,99.37 "/><path d="M151.30,100.02 L151.49,100.13 "/><path d="M151.13,99.52 L151.13,95.47 "/><path d="M151.95,100.07 L154.79,98.43 "/><path d="M152.63,11.61 L153.54,12.15 L152.80,11.72 "/><path d="M155.43,13.24 L153.90,12.35 L155.26,13.14 "/><path d="M153.90,12.35 L153.54,12.15 "/><path d="M155.58,97.11 L155.58,91.94 "/><path d="M155.58,76.56 L155.58,64.25 "/><path d="M155.58,13.62 L155.58,48.11 "/><path d="M86.18,133.83 L86.23,134.12 L86.35,134.33 "/><path d="M84.62,50.54 L84.89,50.44 L85.14,50.44 L85.33,50.55 "/><path d="M59.88,149.59 L59.76,149.41 L59.72,149.15 "/><path d="M152.80,11.72 L152.63,11.61 L152.40,11.61 L152.14,11.72 "/><path d="M148.50,97.98 L148.54,98.28 L148.67,98.50 L148.86,98.61 "/><path d="M133.37,56.30 L131.23,56.56 L130.85,56.52 "/><path d="M143.54,38.72 L142.70,36.74 L142.48,36.44 "/><path d="M108.84,69.17 L109.22,69.21 L111.36,68.95 "/><path d="M121.54,51.38 L120.69,49.39 L120.48,49.10 "/><path d="M123.69,25.46 L123.49,25.34 L123.25,25.34 L122.97,25.45 "/><path d="M150.248 94.957 a1.243 0.719 -59.899 0 1 0.881 0.508"/><path d="M92.332 137.387 a1.242 0.718 120.101 0 1 -0.879 -0.459"/><path d="M102.927 41.030 a1.255 0.726 120.101 0 1 0.799 -1.479"/><path d="M59.725 65.704 a1.121 0.648 120.101 0 1 0.792 -1.299"/><path d="M154.790 13.234 a1.121 0.648 120.101 0 1 0.792 0.388"/><path d="M126.484 116.784 a1.242 0.718 120.101 0 1 -0.879 1.470"/><path d="M129.124 112.228 a1.245 0.720 120.101 0 1 -0.881 1.467"/><path d="M151.946 100.066 a1.243 0.719 120.101 0 1 -0.816 -0.543"/><path d="M125.605 26.972 a1.242 0.718 120.101 0 1 0.879 0.459"/><path d="M129.124 108.062 a1.249 0.723 -59.899 0 1 0.884 -1.468"/><path d="M155.582 97.109 a1.117 0.646 120.101 0 1 -0.790 1.318"/><path d="M135.998 57.820 a11.895 6.881 -59.899 0 1 -6.211 -3.586"/><path d="M129.787 49.669 a11.895 6.881 -59.899 0 1 6.211 -10.729"/><path d="M146.171 44.813 a11.895 6.881 -59.899 0 1 -6.211 10.729"/><path d="M139.959 36.662 a11.895 6.881 -59.899 0 1 6.211 3.586"/><path d="M87.248 52.068 a1.249 0.723 -59.899 0 1 0.883 0.452"/><path d="M63.145 151.126 a1.117 0.646 -59.899 0 1 -0.790 -0.410"/><path d="M62.355 67.229 a1.121 0.648 -59.899 0 1 0.792 -1.298"/><path d="M66.808 143.951 a1.243 0.719 120.101 0 1 0.881 -1.521"/><path d="M89.693 135.861 a1.245 0.720 -59.899 0 1 -0.881 -0.454"/><path d="M113.994 70.473 a11.893 6.880 -59.899 0 1 -6.209 -3.587"/><path d="M107.785 62.321 a11.893 6.880 -59.899 0 1 6.209 -10.724"/><path d="M124.166 57.466 a11.893 6.880 -59.899 0 1 -6.211 10.730"/><path d="M117.955 49.318 a11.893 6.880 -59.899 0 1 6.209 3.582"/><ellipse rx="6.83" ry="3.95" transform="translate(89.569 75.077) rotate(120.101)"/><path d="M143.541 43.289 a11.895 6.881 120.101 0 1 -6.211 10.729"/><path d="M66.806 148.010 a1.243 0.719 -59.899 0 1 -0.816 1.482"/><path d="M121.536 55.941 a11.895 6.881 120.101 0 1 -6.211 10.729"/><path d="M87.929 130.790 a1.249 0.723 120.101 0 1 0.883 0.451"/><path d="M91.419 68.859 a6.833 3.953 -59.899 0 1 -6.324 10.912"/><path d="M100.298 39.505 a1.255 0.726 -59.899 0 1 0.799 -1.479"/></g></g><g id="Actor_4.1"><g style="stroke:#000020;stroke-width:0.079"><path d="M181.01,100.71 C180.76,100.38 180.76,100.38 180.51,100.04 C180.44,99.96 180.44,99.95 180.37,99.87 C180.30,99.81 180.30,99.81 180.23,99.76 C180.18,99.73 180.18,99.73 180.13,99.72 "/><path d="M179.93,99.82 C179.92,99.88 179.92,99.88 179.91,99.94 C179.91,100.01 179.91,100.01 179.92,100.07 C179.95,100.14 179.95,100.14 179.97,100.20 C180.00,100.26 180.00,100.26 180.04,100.32 C180.08,100.37 180.08,100.37 180.12,100.42 C180.17,100.46 180.17,100.46 180.23,100.51 C180.27,100.52 180.27,100.52 180.31,100.54 "/><path d="M180.02,99.95 C180.02,99.98 180.02,99.98 180.02,100.01 C180.02,100.06 180.02,100.06 180.03,100.11 C180.05,100.16 180.05,100.16 180.06,100.20 C180.08,100.24 180.08,100.24 180.11,100.28 C180.13,100.31 180.13,100.31 180.16,100.34 C180.19,100.37 180.19,100.37 180.22,100.39 C180.26,100.41 180.26,100.41 180.29,100.42 "/><path d="M180.42,100.32 C180.43,100.28 180.43,100.28 180.43,100.24 C180.43,100.19 180.43,100.19 180.42,100.14 C180.41,100.10 180.41,100.10 180.39,100.06 C180.37,100.02 180.37,100.02 180.34,99.98 C180.31,99.94 180.31,99.94 180.28,99.90 C180.25,99.88 180.25,99.88 180.22,99.86 C180.19,99.85 180.19,99.85 180.15,99.84 "/><path d="M180.13,99.84 C180.12,99.87 180.12,99.87 180.11,99.90 C180.11,99.93 180.11,99.93 180.10,99.96 C180.11,100.01 180.11,100.01 180.12,100.06 C180.13,100.11 180.13,100.11 180.15,100.15 C180.17,100.19 180.17,100.19 180.19,100.23 C180.22,100.26 180.22,100.26 180.25,100.29 C180.28,100.32 180.28,100.32 180.31,100.34 C180.34,100.36 180.34,100.36 180.38,100.37 "/><path d="M202.91,102.85 C202.89,102.30 202.89,102.30 202.84,101.74 C202.67,100.98 202.66,100.98 202.47,100.21 C202.20,99.26 202.22,99.25 201.92,98.31 C201.52,97.62 201.52,97.61 201.08,96.94 "/><path d="M198.37,95.74 C197.52,95.83 197.52,95.83 196.67,95.97 C195.76,96.34 195.76,96.34 194.87,96.76 C193.95,97.38 193.95,97.39 193.06,98.05 C192.20,98.89 192.20,98.89 191.36,99.77 C190.60,100.78 190.60,100.78 189.87,101.82 C189.25,102.94 189.25,102.94 188.66,104.08 C188.22,105.24 188.22,105.25 187.81,106.42 C187.58,107.56 187.58,107.56 187.38,108.71 C187.36,109.75 187.36,109.76 187.38,110.80 C187.57,111.70 187.57,111.71 187.81,112.59 C188.21,113.28 188.22,113.29 188.66,113.96 "/><path d="M190.40,114.45 C190.21,114.14 190.21,114.14 190.03,113.82 C189.93,113.44 189.93,113.43 189.85,113.04 C189.84,112.78 189.85,112.78 189.85,112.52 C189.85,112.30 189.84,112.30 189.85,112.08 C189.93,111.55 189.93,111.55 190.03,111.03 C190.21,110.43 190.21,110.43 190.40,109.84 C190.65,109.24 190.66,109.24 190.92,108.64 C191.27,107.99 191.27,107.99 191.62,107.36 C192.02,106.74 192.02,106.74 192.43,106.13 C192.89,105.52 192.89,105.52 193.37,104.91 C193.87,104.35 193.87,104.35 194.37,103.80 C194.91,103.28 194.91,103.28 195.46,102.77 C196.01,102.33 196.01,102.33 196.56,101.89 C197.11,101.53 197.12,101.53 197.67,101.17 C197.79,101.10 197.79,101.10 197.91,101.04 C198.44,100.79 198.43,100.79 198.97,100.55 C199.44,100.40 199.44,100.40 199.92,100.27 C200.36,100.23 200.37,100.23 200.81,100.20 C201.18,100.26 201.18,100.26 201.54,100.34 "/><path d="M202.58,101.23 C202.72,101.60 202.72,101.60 202.84,101.97 C202.89,102.41 202.89,102.41 202.91,102.85 C202.86,103.37 202.86,103.38 202.80,103.90 C202.66,104.46 202.66,104.46 202.50,105.02 C202.27,105.64 202.27,105.64 202.02,106.25 C201.77,106.75 201.77,106.75 201.51,107.25 C201.45,107.37 201.45,107.37 201.39,107.49 C200.99,108.12 201.00,108.13 200.60,108.76 C200.16,109.36 200.16,109.36 199.71,109.96 C199.20,110.55 199.20,110.55 198.69,111.14 C198.19,111.64 198.19,111.64 197.69,112.14 C197.13,112.62 197.13,112.62 196.57,113.09 C196.03,113.48 196.03,113.48 195.48,113.86 C194.94,114.17 194.94,114.17 194.39,114.47 C193.89,114.68 193.89,114.68 193.38,114.88 C192.91,114.99 192.91,114.99 192.44,115.09 C192.24,115.09 192.24,115.09 192.04,115.08 "/><path d="M196.53,110.52 C196.54,110.74 196.54,110.74 196.55,110.96 C196.56,111.03 196.56,111.03 196.56,111.10 C196.51,111.36 196.51,111.36 196.45,111.61 C196.39,111.76 196.39,111.76 196.33,111.92 C196.27,112.04 196.27,112.04 196.21,112.16 C196.14,112.27 196.14,112.27 196.07,112.38 C195.99,112.48 195.99,112.48 195.90,112.58 C195.82,112.67 195.82,112.67 195.73,112.76 C195.68,112.81 195.68,112.81 195.63,112.85 C195.52,112.94 195.52,112.94 195.41,113.02 C195.30,113.09 195.30,113.09 195.19,113.15 C195.09,113.19 195.09,113.19 194.98,113.23 C194.82,113.27 194.82,113.28 194.66,113.31 C194.48,113.32 194.48,113.32 194.30,113.31 "/><path d="M193.92,112.78 C193.92,112.54 193.92,112.54 193.94,112.31 C194.02,112.04 194.02,112.04 194.11,111.77 C194.25,111.50 194.26,111.49 194.41,111.23 C194.60,110.98 194.60,110.98 194.80,110.74 C195.02,110.55 195.02,110.54 195.24,110.36 C195.46,110.25 195.46,110.24 195.68,110.14 "/><path d="M174.46,103.26 L171.28,101.41 L171.28,102.28 L174.46,104.12 "/><path d="M171.28,101.41 L171.28,100.70 L174.27,98.98 L174.46,98.98 "/><path d="M174.46,96.52 L171.28,94.67 L171.28,93.81 L174.46,95.65 "/><path d="M171.28,93.81 L171.28,93.10 L174.27,91.38 L174.80,91.38 "/><path d="M180.68,86.77 L175.50,83.77 L174.27,83.77 L171.28,85.49 L171.28,87.06 L176.32,89.98 "/><path d="M171.28,86.20 L176.45,89.20 "/><path d="M174.46,107.07 L174.46,92.47 "/><path d="M174.67,107.67 L181.32,111.54 "/><path d="M174.77,91.43 L183.52,96.50 "/><path d="M175.52,90.64 L177.90,89.28 L179.60,90.26 L186.59,91.69 L189.26,95.27 "/><path d="M176.16,90.27 L176.16,90.07 L176.34,90.17 "/><path d="M176.16,90.07 L176.45,89.91 "/><path d="M177.48,106.96 L177.46,107.76 L177.64,107.86 L177.72,107.81 L177.75,107.02 L177.57,106.91 L177.48,106.96 L177.66,107.07 L177.75,107.02 "/><path d="M177.64,107.86 L177.66,107.07 "/><path d="M178.17,107.81 L178.16,108.33 L178.07,108.38 L177.89,108.28 L177.93,106.98 L178.10,107.09 L178.19,107.04 L178.17,107.81 "/><path d="M178.07,108.38 L178.10,107.09 "/><path d="M177.93,106.98 L178.02,106.93 L178.19,107.04 "/><path d="M177.59,100.85 L177.59,101.00 L178.01,101.48 L178.01,102.17 L177.59,102.15 L177.59,102.30 L178.90,102.36 L178.90,102.34 L177.59,100.85 L177.67,100.80 L178.99,102.29 L178.90,102.34 "/><path d="M178.01,102.11 L177.67,102.10 L177.59,102.15 "/><path d="M178.14,101.63 L178.64,102.20 L178.14,102.17 L178.14,101.63 "/><path d="M178.14,102.17 L178.23,102.12 L178.59,102.14 "/><path d="M178.38,97.73 L178.38,98.07 L178.29,98.12 L178.18,98.05 L178.18,97.61 L177.79,97.38 L177.79,97.24 L178.18,97.47 L178.18,97.02 L178.26,96.97 L178.38,97.04 L178.38,97.49 L178.77,97.71 L178.77,97.85 L178.68,97.90 L178.68,97.76 L178.29,97.54 L178.38,97.49 "/><path d="M177.79,97.24 L177.88,97.19 L178.18,97.37 "/><path d="M178.18,97.02 L178.29,97.09 L178.38,97.04 "/><path d="M177.90,89.28 L186.66,91.06 L190.45,88.88 L181.68,87.10 L177.90,89.28 "/><path d="M178.61,108.16 L178.59,108.75 L178.50,108.80 L178.52,108.10 L178.92,108.35 L179.00,108.30 L179.01,108.10 L178.61,107.85 L178.53,107.91 L178.92,108.15 L179.01,108.10 "/><path d="M178.61,107.85 L178.63,107.15 L178.46,107.05 L178.37,107.10 L178.55,107.20 L178.63,107.15 "/><path d="M178.53,107.91 L178.55,107.20 "/><path d="M178.50,108.80 L178.33,108.69 L178.37,107.10 "/><path d="M178.92,108.15 L178.92,108.35 "/><path d="M178.99,102.29 L178.99,102.31 L178.90,102.36 "/><path d="M178.23,102.12 L178.23,101.73 "/><path d="M178.77,97.71 L178.68,97.76 "/><path d="M178.29,98.12 L178.29,97.67 L178.68,97.90 "/><path d="M178.29,97.54 L178.29,97.09 "/><path d="M179.84,106.69 L182.73,108.36 "/><path d="M179.94,106.95 L179.94,106.97 "/><path d="M179.94,105.49 L179.94,105.48 L179.94,106.31 "/><path d="M180.03,104.87 L179.93,104.92 L179.93,105.03 L179.98,105.06 "/><path d="M180.01,104.96 L179.93,104.92 "/><path d="M180.27,101.47 L180.02,101.46 L179.93,101.51 L179.93,101.63 L180.80,101.67 "/><path d="M180.73,101.49 L180.47,101.48 L180.38,101.53 L180.78,101.55 L180.38,101.10 L180.38,101.53 "/><path d="M179.93,101.51 L180.27,101.53 L180.27,100.97 L179.93,100.59 L179.93,100.47 L180.02,100.42 L180.92,101.43 "/><path d="M179.93,100.47 L180.86,101.51 "/><path d="M180.44,99.80 L180.60,99.99 L181.10,100.66 L181.04,100.71 L180.96,100.76 L181.01,100.71 "/><path d="M180.13,99.72 L180.04,99.71 L179.97,99.75 L179.93,99.82 "/><path d="M180.31,100.54 L180.39,100.55 L180.56,100.46 L180.61,100.39 L180.62,100.32 "/><path d="M180.29,100.42 L180.34,100.42 L180.39,100.38 L180.42,100.32 "/><path d="M180.15,99.84 L180.10,99.84 L180.05,99.88 L180.02,99.95 "/><path d="M180.38,100.37 L180.40,100.37 "/><path d="M180.88,99.41 L180.02,98.91 L179.93,98.96 L179.93,99.07 L180.99,99.68 L180.99,99.46 L181.07,99.40 L180.97,99.27 L180.88,99.32 L180.99,99.46 "/><path d="M179.93,98.96 L180.88,99.51 L180.88,99.32 "/><path d="M180.04,99.71 L179.97,99.75 "/><path d="M180.47,101.48 L180.47,101.20 "/><path d="M181.10,100.66 L181.01,100.71 "/><path d="M180.96,100.76 L180.53,100.19 L180.54,100.33 L180.52,100.44 L180.48,100.50 "/><path d="M181.07,99.40 L181.07,99.63 L180.99,99.68 "/><path d="M182.39,112.42 L182.99,112.77 "/><path d="M182.37,86.71 L182.19,86.61 L181.91,86.77 "/><path d="M184.06,85.73 L181.68,87.10 "/><path d="M187.92,93.48 L184.16,95.64 L187.32,97.48 "/><path d="M184.80,85.68 L184.92,85.75 L184.91,85.74 "/><path d="M185.57,116.43 L186.28,116.84 "/><path d="M184.92,85.75 L190.30,88.86 "/><path d="M186.66,91.06 L189.57,94.97 "/><path d="M201.08,96.94 L199.87,96.06 L198.37,95.74 "/><path d="M188.66,113.96 L189.87,114.83 L191.36,115.16 L192.04,115.08 L191.62,115.08 L190.93,114.86 L190.40,114.45 "/><path d="M201.54,100.34 L202.15,100.69 L202.58,101.23 "/><path d="M190.52,88.98 L193.44,90.66 "/><path d="M190.45,88.88 L193.07,92.40 "/><path d="M192.44,115.09 L191.63,115.13 "/><path d="M192.09,91.09 L192.95,90.59 L194.79,91.66 "/><path d="M194.30,113.31 L194.04,113.12 L193.92,112.78 "/><path d="M195.68,110.14 L196.07,110.09 L196.36,110.22 L196.53,110.52 L196.55,110.95 L196.55,110.98 "/><path d="M194.96,91.30 L195.32,91.50 "/><path d="M199.78,91.93 L200.48,92.33 "/><path d="M202.87,103.32 L202.84,103.54 L202.81,103.78 "/><path d="M176.45,89.91 L176.61,89.78 L176.70,89.63 L176.70,89.48 L176.61,89.33 L176.45,89.20 "/><path d="M174.46,93.97 L174.43,93.93 L174.32,93.77 L174.31,93.59 L174.40,93.42 L174.46,93.35 "/><path d="M174.67,107.67 L174.52,107.42 L174.46,107.07 "/><path d="M180.06,99.70 L180.13,99.66 L180.22,99.67 L180.32,99.71 L180.46,99.84 "/><path d="M174.46,100.96 L174.40,101.03 L174.31,101.20 L174.32,101.38 L174.43,101.54 L174.46,101.57 "/><path d="M184.06,85.73 L184.39,85.61 L184.68,85.61 L184.92,85.75 "/><path d="M185.958 116.629 a14.162 8.193 120.101 1 1 14.205 -24.455"/><path d="M174.465 92.467 a1.490 0.862 120.101 0 1 1.056 -1.824"/><path d="M181.907 86.772 a0.869 0.502 -0.000 0 1 -1.230 -0.001"/><path d="M174.675 86.484 a0.931 0.538 -180.000 0 1 1.114 -0.000"/><path d="M199.571 110.120 a14.161 8.193 -59.899 1 1 3.334 -7.389"/><path d="M182.388 112.430 a12.299 7.115 -59.899 0 1 1.775 -16.787"/><path d="M192.950 90.591 a12.299 7.115 -59.899 0 1 1.775 0.558"/><ellipse rx="0.93" ry="0.54" transform="translate(175.232 86.052) rotate(-180.000)"/></g></g><g/><g id="paperID" visibility="hidden" opacity="0.00" transform="scale(0.000100)"><path style="stroke:#000000;stroke-width:0.500;fill:#e6e6e6;fill-rule:evenodd" d="M-2000.00,-2000.00L2297.00,-2000.00L2297.00,2210.00L-2000.00,2210.00zM0.00,0.00L297.00,0.00L297.00,210.00L0.00,210.00z"/><path style="fill:#000000;fill-opacity:0.118" d="M3.00,210.00L297.00,210.00L297.00,3.00L300.00,3.00L300.00,213.00L3.00,213.00z"/></g><g id="hotspot.0" ident="" onmouseover="ShowHotSpot(evt,'0')" onmouseout="HideHotSpot(evt,'0')" onmousemove="ShowToolTip(evt,'0',&quot;DC Power Jack 5.5 2.5&quot;)" opacity="0"><path style="fill:#00ff00;fill-rule:evenodd" d="M143.65,105.81L149.16,109.01L149.78,108.92L150.36,108.55L151.90,109.45L152.55,108.55L154.50,107.36L157.03,107.36L163.28,110.54L165.55,110.54L168.46,109.36L169.65,110.06L171.18,113.25L171.95,113.66L173.11,115.25L173.51,117.69L172.34,122.06L171.10,123.95L169.12,125.91L167.23,127.16L164.87,127.47L163.68,127.00L162.01,127.45L160.15,127.42L157.06,121.48L155.45,119.95L150.75,117.18L149.85,114.81L149.95,113.70L141.28,108.58L140.45,107.80L140.46,106.72L141.16,105.80L142.52,105.44zM142.79,107.38L141.54,107.52L141.64,106.72L142.89,106.58z"/></g><g id="hotspot.1" ident="" onmouseover="ShowHotSpot(evt,'1')" onmouseout="HideHotSpot(evt,'1')" onmousemove="ShowToolTip(evt,'1',&quot;12V 20A DC Toggle Switch with LED&quot;)" opacity="0"><path style="fill:#00ff00;fill-rule:evenodd" d="M202.21,73.97L204.79,73.97L205.99,73.16L206.90,73.16L216.70,78.72L221.07,79.08L222.62,79.88L224.24,81.79L225.37,84.99L224.59,92.20L223.40,94.94L220.53,98.74L217.55,102.05L215.21,103.63L212.29,104.64L209.64,104.64L208.09,104.23L206.14,102.65L205.01,100.24L203.73,99.45L203.24,99.49L202.59,104.77L201.28,107.78L198.92,110.92L195.94,114.22L193.03,116.42L190.68,117.22L187.23,117.23L184.53,115.62L182.91,112.91L177.44,109.34L174.69,107.77L174.33,104.20L171.43,102.39L171.42,100.70L174.33,98.91L174.32,96.75L172.73,95.59L171.42,94.94L171.55,92.97L175.88,90.58L175.94,90.11L173.12,88.13L171.55,87.35L171.55,85.51L174.56,83.77L175.48,83.77L180.17,86.58L182.84,86.59L184.00,85.73L184.90,85.73L194.71,91.31L195.90,91.32L193.42,89.83L193.55,87.87L196.33,86.34L196.29,83.81L193.55,82.24L193.55,80.41L197.33,78.30L197.93,77.64L197.89,77.16L193.55,74.78L193.42,72.81L196.16,71.21L197.48,71.21z"/></g><g id="hotspot.2" ident="" onmouseover="ShowHotSpot(evt,'2')" onmouseout="HideHotSpot(evt,'2')" onmousemove="ShowToolTip(evt,'2',&quot;PC Case Angle Side Front&quot;)" opacity="0"><path style="fill:#00ff00;fill-rule:evenodd" d="M155.48,13.45L155.30,97.94L152.53,99.91L151.11,99.95L148.76,98.74L148.36,96.34L147.88,96.32L129.51,107.12L129.14,112.64L128.74,113.42L126.76,114.58L126.40,117.36L125.94,118.09L92.88,137.27L91.03,137.22L86.30,134.49L85.95,132.14L69.79,141.29L67.00,143.22L66.68,148.78L66.32,149.21L63.39,151.02L61.97,150.98L59.98,149.81L59.98,65.09L63.50,62.72L84.20,50.78L85.52,50.78L87.90,52.35L88.14,54.52L89.09,54.14L100.03,47.78L100.41,39.13L101.48,37.84L122.69,25.64L124.02,25.64L125.17,26.49L126.64,26.48L151.77,11.89L153.09,11.89zM139.71,36.70L142.53,36.62L143.22,38.28L144.48,39.38L144.48,42.73L143.56,43.38L142.35,46.88L140.51,50.54L137.96,53.50L137.35,55.24L134.88,56.75L130.69,56.31L129.55,54.31L129.13,53.94L129.13,50.16L129.91,49.37L131.09,45.84L134.05,40.94L135.81,39.17L136.08,37.87L138.98,36.27zM117.72,49.27L120.47,49.24L121.69,51.56L122.43,52.00L122.47,55.29L121.87,55.87L120.47,59.58L118.00,63.79L115.77,66.27L115.40,67.86L112.88,69.32L108.57,69.00L107.55,66.88L107.13,66.52L107.13,62.73L107.91,61.94L109.09,58.41L112.05,53.51L113.81,51.74L114.07,50.43L116.98,48.85zM91.42,73.35L90.10,75.96L88.30,78.08L86.18,79.52L85.00,79.66L85.09,75.67L87.11,71.79L90.09,69.25L91.41,69.25z"/></g><g id="ToolTip" visibility="hidden" opacity="0" transform="translate(0,0)"><rect id="ToolTipShadow" opacity="0.20" fill="black" stroke="none" x="0" y="0" width="30" height="8"/><rect id="ToolTipBG" fill="#ffffe1" stroke="black" x="0" y="0" width="30" height="8"/><text xml:space="preserve" id="ToolTipText" fill="black" x="0" y="0" width="30" height="8">tooltip</text></g></g></svg>
