<?xml version="1.0" encoding="UTF-8" standalone="no"?>
<svg xmlns="http://www.w3.org/2000/svg" xmlns:xlink="http://www.w3.org/1999/xlink" width="297.000mm" height="210.000mm" viewBox="0.000000 0.000000 297.000000 210.000000" stroke-linejoin="round" stroke-linecap="round" fill="none" fill-rule="evenodd"><desc>Composer Export</desc><script type="text/ecmascript"><![CDATA[
if(typeof(top) != "undefined")
{
	top.ShowPaper = ShowPaper;
}
function ShowHotSpot(evt,hotspotid)
{
	var svgDocument = evt.target.ownerDocument;
	var strId = "hotspot."+hotspotid;
	var hotspot = svgDocument.getElementById(strId);
	if(hotspot)
		hotspot.setAttribute("opacity",".5");
}
function HideHotSpot(evt,hotspotid)
{
	var svgDocument = evt.target.ownerDocument;
	var strId = "hotspot."+hotspotid;
	var hotspot = svgDocument.getElementById(strId);
	if(hotspot)
		hotspot.setAttribute("opacity","0");

	var toolTip = svgDocument.getElementById('ToolTip');
	if(toolTip)
		toolTip.setAttribute("visibility","hidden");
}
function ShowToolTip(evt,hotspotid,strTooltip)
{
	if(strTooltip=="")
	return;

	// change text
	var svgDocument = evt.target.ownerDocument;
	var tiptext = svgDocument.getElementById('ToolTipText');
	if( !tiptext )
	return;
	tiptext.firstChild.nodeValue = " " + strTooltip + "  " ;

	// show tooltip before, else some refresh issue

	var toolTip = svgDocument.getElementById('ToolTip');
	if(!toolTip)
	return;

	toolTip.setAttribute("visibility","visible");
	toolTip.setAttribute("opacity",".95");

	// move tooltip
	// get viewbox

	var root = svgDocument.documentElement;
	var vbox = (root.getAttribute("viewBox")).split(' ');
	var x0 = parseFloat(vbox[0]);
	var y0 = parseFloat(vbox[1]);
	var vboxW = parseFloat(vbox[2]);
	var vboxH = parseFloat(vbox[3]);

	// get default width of svg

	var strW = root.getAttribute("width");
	var svgW = parseFloat(strW);
	if(strW.indexOf('mm') != -1)
	svgW *= 3.779;

	var strH = root.getAttribute("height");
	var svgH = parseFloat(strH);
	if(strH.indexOf('mm') != -1)
	svgH *= 3.779;  	// 96 dpi  -> 96/25.4 = 3.779

	// update the viewbox / width / height if svg is embedded in html with zoom fit all
	var realx0 = x0;
	var realy0 = y0;
	var realvboxW = vboxW;
	var realvboxH = vboxH;
	var realsvgW = svgW;
	var realsvgH = svgH;

	if ((typeof(top) == "undefined") || (typeof(top.svgctl1) != "undefined")) // embedded in html
	{
		// get window size in pxl

		svgW = window.innerWidth;
		svgH = window.innerHeight;

		// calculate real viewbox

		realsvgW = svgW;
		realsvgH = svgH;
		if((svgW / svgH) > (vboxW / vboxH))
		{
			realvboxW = (vboxH * svgW) / svgH;
			realvboxH = vboxH;
			realx0 = x0 - (realvboxW - vboxW)/2 ;
		}
		else
		{
			realvboxH = (vboxW * svgH) / svgW;
			realvboxW = vboxW;
			realy0 = y0 - (realvboxH - vboxH)/2 ;
		}
	}

	// get user zoom/pan

	var newScale = root.currentScale;
	var translation = root.currentTranslate;

	// transform pxl to user unit

	var xPos = (((evt.clientX+10- translation.x)/newScale) * realvboxW)/realsvgW  + realx0 ;
	var yPos = (((evt.clientY+5- translation.y)/newScale) * realvboxH)/ realsvgH  + realy0 ;
	var scaleForWidth = ( (1 / newScale) * realvboxH) / realsvgH;

	// move tooltip

	toolTip.setAttribute("transform", "translate(" + xPos + "," + yPos + ")" );

	// resize tooltip

	var fontsize = 12;
	tiptext.setAttribute("font-size",fontsize*scaleForWidth);
	tiptext.setAttribute("y", fontsize*scaleForWidth);
	var tipBG = svgDocument.getElementById('ToolTipBG');
	var outline = tiptext.getBBox();
	if(tipBG)
	{
		tipBG.setAttribute("stroke-width", 1*scaleForWidth);
		tipBG.setAttribute("width", Number(outline.width) );
		tipBG.setAttribute("height", Number(outline.height) + fontsize*.5*scaleForWidth );
	}
	var ToolTipShadow = svgDocument.getElementById('ToolTipShadow');
	if(ToolTipShadow)
	{
		ToolTipShadow.setAttribute("width", Number(outline.width) );
		ToolTipShadow.setAttribute("height", Number(outline.height) + fontsize*.5*scaleForWidth );
		ToolTipShadow.setAttribute("x", 3*scaleForWidth);
		ToolTipShadow.setAttribute("y", 3*scaleForWidth);
	}
}
function ShowPaper()
{
  var svgDocument = getDocument();
  var paper = svgDocument.getElementById("paperID");
  if(paper)
  {
    paper.setAttribute("transform","scale(1)");
    paper.setAttribute("opacity","1");
    paper.setAttribute("visibility","visible");
  }
  var svg = svgDocument.getRootElement();
  if(svg)
  {
    svg.setAttribute("width","307.000mm");
    svg.setAttribute("height","220.000mm");
    svg.setAttribute("viewBox","-5.000000 -5.000000 307.000000 220.000000");
  }
}
]]></script><defs/><g><g id="Actor_.0"><path style="fill:#ffffff;fill-rule:evenodd" d="M106.91,138.76L109.65,139.14L109.66,139.35L104.53,148.63L104.33,148.63L103.13,146.33L102.94,146.19L80.56,158.19L80.27,158.17L78.80,155.45L78.75,152.18L100.03,140.81L99.84,140.21L98.71,138.01z"/></g><g id="Actor_.1"><path style="fill:#ffffff;fill-rule:evenodd" d="M226.94,67.87L229.66,68.23L229.86,69.74L226.58,75.73L225.33,77.92L224.06,75.63L223.62,75.46L201.74,87.15L201.14,87.34L200.09,85.47L200.05,81.11L220.94,69.93L219.63,67.31z"/></g><g id="Actor_.2"><g style="stroke:#000000;stroke-width:0.250"><path d="M78.65,152.33 L100.13,140.84 L98.69,138.14 L109.78,139.15 L104.46,148.94 L103.02,146.24 L80.31,158.38 L78.65,155.26 "/></g></g><g id="Actor_.3"><g style="stroke:#000000;stroke-width:0.250"><path d="M199.91,85.13 L201.21,87.57 L223.92,75.44 L225.36,78.13 L230.09,69.43 "/><path d="M229.77,68.27 L219.59,67.34 L221.03,70.04 L199.91,81.33 "/></g></g><g id="Actor_5.0"><g style="stroke:#000020;stroke-width:0.079"><path d="M67.73,176.77 C67.70,176.73 67.70,176.73 67.68,176.68 C67.63,176.51 67.63,176.51 67.58,176.33 C67.58,176.27 67.58,176.27 67.58,176.21 C67.58,176.08 67.57,176.08 67.58,175.95 C67.63,175.78 67.63,175.78 67.69,175.60 C67.71,175.55 67.71,175.55 67.73,175.50 C67.84,175.32 67.84,175.32 67.95,175.14 "/><path d="M67.63,137.48 C67.65,137.31 67.65,137.31 67.69,137.14 C67.74,137.01 67.74,137.01 67.80,136.89 C67.92,136.73 67.92,136.73 68.05,136.57 "/><path d="M68.05,136.57 C67.92,136.73 67.92,136.73 67.80,136.89 C67.71,137.06 67.71,137.06 67.63,137.24 C67.60,137.41 67.60,137.41 67.58,137.59 C67.57,137.65 67.57,137.65 67.57,137.71 C67.60,137.89 67.60,137.89 67.64,138.07 C67.65,138.12 67.66,138.12 67.68,138.18 C67.77,138.35 67.77,138.35 67.86,138.52 "/><path d="M69.01,175.95 C69.00,177.49 69.00,177.47 69.00,179.00 C69.01,179.04 69.01,179.04 69.02,179.08 C69.05,179.17 69.05,179.17 69.08,179.25 C69.09,179.28 69.09,179.28 69.09,179.32 C69.09,180.00 69.09,179.97 69.09,180.69 "/><path d="M69.34,179.95 C69.41,179.92 69.41,179.92 69.48,179.89 C69.65,179.82 69.65,179.82 69.82,179.76 C70.09,179.69 70.09,179.69 70.37,179.62 "/><path d="M68.28,136.38 C68.32,136.34 68.32,136.34 68.37,136.31 C68.58,136.18 68.57,136.18 68.78,136.06 C68.95,135.99 68.95,135.99 69.12,135.92 C69.38,135.84 69.38,135.84 69.65,135.76 C69.85,135.73 69.85,135.73 70.05,135.69 C70.34,135.67 70.34,135.67 70.63,135.65 C70.85,135.65 70.85,135.65 71.06,135.66 C71.35,135.69 71.35,135.69 71.63,135.73 C71.83,135.77 71.83,135.77 72.03,135.82 C72.28,135.90 72.28,135.90 72.53,136.00 C72.69,136.07 72.69,136.07 72.85,136.16 "/><path d="M75.61,137.61 C75.86,137.75 75.86,137.75 76.11,137.89 C76.14,137.92 76.14,137.92 76.18,137.95 C76.21,137.99 76.21,137.99 76.25,138.02 C76.28,138.08 76.28,138.08 76.31,138.14 "/><path d="M70.52,140.69 C70.57,140.73 70.57,140.73 70.62,140.77 C70.68,140.81 70.68,140.81 70.75,140.84 C70.83,140.86 70.83,140.86 70.92,140.88 C71.01,140.88 71.01,140.88 71.10,140.89 C71.18,140.88 71.18,140.88 71.27,140.86 "/><path d="M78.28,137.47 C78.21,137.44 78.21,137.44 78.14,137.41 C78.05,137.39 78.05,137.39 77.97,137.38 C77.88,137.37 77.88,137.37 77.79,137.38 C77.71,137.39 77.70,137.39 77.62,137.41 C77.55,137.44 77.55,137.44 77.48,137.47 "/><path d="M70.52,182.67 C70.57,182.72 70.57,182.72 70.62,182.76 C70.68,182.79 70.68,182.79 70.75,182.82 C70.83,182.85 70.83,182.85 70.92,182.86 C71.01,182.87 71.01,182.87 71.10,182.87 C71.18,182.86 71.18,182.86 71.27,182.85 "/><path d="M67.74,176.79 L67.88,177.02 L69.00,178.56 "/><path d="M69.01,173.60 L68.84,173.78 L67.85,175.30 L68.03,175.03 "/><path d="M68.20,174.77 L68.30,174.62 "/><path d="M69.23,140.01 L67.88,138.17 L67.69,137.84 L67.63,137.48 "/><path d="M67.86,138.52 L68.86,140.05 L69.03,140.28 L69.00,140.47 L69.01,140.64 L69.01,140.47 "/><path d="M68.05,136.57 L68.28,136.38 L68.05,136.57 "/><path d="M69.01,176.66 L69.01,175.95 "/><path d="M69.09,180.69 L69.14,180.79 L70.52,182.67 "/><path d="M69.12,179.35 L69.08,179.25 "/><path d="M68.75,178.22 L68.48,177.85 "/><path d="M69.00,178.55 L68.56,177.92 "/><path d="M69.02,179.08 L69.05,179.16 "/><path d="M69.01,175.95 L69.01,143.03 "/><path d="M69.01,142.53 L69.01,140.64 "/><path d="M69.41,140.46 L69.19,140.16 "/><path d="M69.59,139.89 L69.50,139.89 L69.36,139.93 L69.21,140.03 L69.26,139.99 "/><path d="M69.03,140.28 L69.10,140.15 L69.21,140.03 "/><path d="M68.30,136.36 L68.28,136.38 "/><path d="M72.85,136.16 L75.34,137.59 L75.35,137.60 L75.32,137.60 L75.31,137.62 L75.30,137.67 "/><path d="M69.56,140.64 L69.56,179.85 L70.37,180.95 "/><path d="M70.37,140.43 L70.37,180.95 "/><path d="M69.93,140.58 L70.37,140.47 "/><path d="M70.41,140.53 L70.52,140.69 "/><path d="M70.84,182.84 L70.84,140.86 "/><path d="M71.27,140.86 L73.90,140.22 L75.27,139.79 L75.27,181.77 L73.90,182.20 L71.27,182.85 "/><path d="M70.71,140.10 L72.82,139.59 L74.28,139.17 L74.23,139.14 L74.01,139.08 "/><path d="M76.27,138.07 L74.44,139.13 "/><path d="M74.28,139.17 L74.48,139.12 L75.86,138.40 L77.48,137.47 "/><path d="M75.27,181.77 L76.47,181.20 L78.49,180.04 "/><path d="M75.27,139.79 L76.47,139.22 L78.48,138.05 "/><path d="M76.11,137.89 L75.61,137.61 "/><path d="M75.35,137.60 L75.37,137.59 L75.54,137.58 L75.61,137.61 "/><path d="M78.28,137.47 L78.49,137.59 "/><path d="M78.65,179.85 L78.65,179.35 L78.65,179.75 "/><path d="M78.65,179.35 L78.65,157.78 L78.65,158.92 "/><path d="M78.65,137.87 L78.65,157.78 "/><path d="M78.65,138.49 L78.65,137.77 "/><path d="M70.41,140.53 L70.37,140.43 L70.38,140.33 L70.45,140.24 L70.56,140.16 L70.71,140.10 "/><path d="M78.49,180.04 L78.59,179.95 L78.65,179.85 L78.65,179.75 "/><path d="M78.48,138.05 L78.59,137.97 L78.65,137.87 L78.65,137.77 L78.59,137.67 L78.49,137.59 "/><ellipse rx="0.94" ry="0.54" transform="translate(70.729 137.305) rotate(-0.000)"/></g></g><g id="Actor_7.0"><g style="stroke:#000020;stroke-width:0.079"><path d="M121.87,148.70 C151.61,131.54 151.61,131.54 181.34,114.37 C181.40,114.32 181.40,114.32 181.46,114.27 C181.52,114.21 181.52,114.21 181.58,114.14 C181.62,114.07 181.62,114.07 181.67,113.99 C181.70,113.91 181.70,113.91 181.72,113.82 C181.73,113.75 181.74,113.75 181.74,113.67 C181.75,103.71 181.75,43.95 181.74,93.75 "/><path d="M180.53,93.98 C180.53,103.48 180.53,103.48 180.53,112.97 C180.52,113.05 180.52,113.05 180.51,113.12 C180.48,113.21 180.48,113.21 180.45,113.29 C180.41,113.37 180.41,113.37 180.36,113.44 C180.31,113.51 180.31,113.51 180.25,113.57 C180.19,113.62 180.19,113.62 180.13,113.67 "/><path d="M183.47,106.50 C183.47,73.46 183.47,95.49 183.47,84.47 C183.48,84.34 183.48,84.34 183.50,84.21 C183.54,84.06 183.54,84.06 183.58,83.92 C184.07,82.70 184.08,82.70 184.56,81.47 C184.61,81.33 184.61,81.33 184.65,81.19 C184.67,81.06 184.67,81.06 184.68,80.92 C184.68,80.35 184.68,79.20 184.68,79.77 "/><path d="M188.72,102.07 C188.72,91.06 188.72,91.06 188.72,80.04 C188.71,79.92 188.71,79.92 188.69,79.81 C188.65,79.72 188.65,79.72 188.61,79.63 C188.12,78.96 188.11,78.97 187.62,78.30 C187.58,78.22 187.58,78.21 187.54,78.12 "/><path d="M187.54,78.12 C187.52,78.01 187.52,78.01 187.51,77.89 C187.51,77.34 187.50,77.34 187.51,76.80 C187.52,76.64 187.52,76.64 187.55,76.48 C187.60,76.32 187.60,76.32 187.66,76.16 C187.75,76.00 187.75,76.00 187.84,75.85 C187.95,75.72 187.95,75.71 188.07,75.59 C188.19,75.49 188.19,75.49 188.32,75.40 C189.59,74.66 189.59,74.66 190.87,73.92 "/><path d="M188.75,78.82 C188.79,78.91 188.79,78.92 188.83,79.00 C189.32,79.67 189.33,79.66 189.82,80.33 C189.86,80.41 189.86,80.42 189.90,80.51 "/><path d="M188.75,78.82 C188.73,78.71 188.73,78.71 188.72,78.59 C188.72,78.04 188.72,78.04 188.72,77.50 C188.74,77.34 188.74,77.34 188.76,77.19 C188.81,77.02 188.81,77.02 188.87,76.86 C188.96,76.70 188.96,76.70 189.05,76.55 C189.16,76.42 189.16,76.41 189.28,76.29 C189.40,76.19 189.40,76.19 189.53,76.10 C190.82,75.34 190.82,75.34 192.12,74.60 "/><path d="M192.89,75.09 C192.89,76.73 192.89,75.64 192.89,76.18 C192.88,76.32 192.88,76.32 192.86,76.45 C192.82,76.59 192.82,76.59 192.77,76.73 C192.29,77.96 192.28,77.96 191.79,79.19 C191.75,79.33 191.75,79.33 191.71,79.47 C191.69,79.60 191.69,79.60 191.68,79.73 "/><path d="M196.96,74.08 C197.00,74.17 197.00,74.18 197.04,74.26 C197.53,74.93 197.54,74.92 198.03,75.59 C198.07,75.68 198.07,75.68 198.11,75.77 "/><path d="M196.90,75.07 C196.86,74.98 196.86,74.98 196.81,74.89 C196.33,74.22 196.32,74.23 195.83,73.56 C195.79,73.48 195.79,73.47 195.75,73.38 "/><path d="M135.98,104.06 C135.99,103.98 135.99,103.98 136.00,103.91 C136.03,103.82 136.03,103.82 136.06,103.74 C136.11,103.66 136.11,103.66 136.15,103.59 C136.21,103.52 136.21,103.52 136.26,103.46 C136.32,103.41 136.33,103.41 136.39,103.36 "/><path d="M117.91,130.14 C117.85,130.18 117.85,130.18 117.79,130.23 C117.73,130.30 117.73,130.30 117.68,130.36 C117.63,130.44 117.63,130.44 117.59,130.52 C117.56,130.60 117.56,130.60 117.53,130.68 C117.52,130.76 117.52,130.76 117.51,130.84 "/><path d="M159.98,131.72 C160.04,131.68 160.05,131.68 160.11,131.63 C160.16,131.56 160.16,131.56 160.22,131.50 C160.27,131.42 160.27,131.42 160.31,131.34 C160.34,131.26 160.34,131.26 160.37,131.18 C160.38,131.10 160.38,131.10 160.39,131.02 "/><path d="M134.77,103.36 C134.78,103.28 134.78,103.28 134.79,103.21 C134.82,103.12 134.82,103.12 134.85,103.04 C134.89,102.96 134.89,102.96 134.94,102.89 C134.99,102.82 134.99,102.82 135.05,102.76 C135.11,102.71 135.11,102.71 135.18,102.66 "/><path d="M111.08,156.93 L111.52,157.18 L110.98,156.87 "/><path d="M110.73,156.34 L110.73,119.16 "/><path d="M110.97,118.32 L112.19,119.02 "/><path d="M112.29,157.63 L111.52,157.18 L112.29,157.63 "/><path d="M111.94,157.04 L111.94,119.86 "/><path d="M112.79,118.39 L135.98,104.99 L134.77,104.29 L111.57,117.69 "/><path d="M112.79,157.53 L135.98,144.13 L135.98,145.11 "/><path d="M117.51,130.83 L117.51,150.75 L117.53,150.89 L117.59,150.98 L117.68,151.04 L117.79,151.04 L117.91,150.99 L121.87,148.70 "/><path d="M180.13,113.67 L117.51,149.82 "/><path d="M117.91,130.14 L181.35,93.51 "/><path d="M134.98,144.71 L136.06,145.34 "/><path d="M134.77,104.29 L134.77,103.36 "/><path d="M136.11,103.67 L134.90,102.97 "/><path d="M158.77,89.04 L135.18,102.66 "/><path d="M135.41,144.97 L136.15,145.39 "/><path d="M136.38,145.35 L159.98,131.72 "/><path d="M135.98,104.99 L135.98,104.06 "/><path d="M136.39,103.36 L159.98,89.74 "/><path d="M159.01,88.99 L159.31,89.17 L159.10,89.04 "/><path d="M160.31,89.74 L159.31,89.17 L160.22,89.69 "/><path d="M160.39,131.02 L160.39,130.04 L199.06,107.72 "/><path d="M183.02,77.84 L160.39,90.91 L160.39,89.95 "/><path d="M181.81,77.14 L160.14,89.65 "/><path d="M181.62,114.07 L180.41,113.37 "/><path d="M181.62,93.50 L181.58,93.47 "/><path d="M182.05,77.09 L183.26,77.79 "/><path d="M183.51,106.88 L183.87,106.73 L187.10,104.87 "/><path d="M184.51,79.30 L183.42,78.67 "/><path d="M183.42,78.08 L183.42,78.67 "/><path d="M185.08,107.43 L188.32,105.57 "/><path d="M187.54,78.12 L188.75,78.82 "/><path d="M189.90,80.51 L188.69,79.81 "/><path d="M189.46,104.36 L188.25,103.66 "/><path d="M188.96,76.70 L187.75,76.00 "/><path d="M189.93,102.77 L189.93,80.74 L189.90,80.51 "/><path d="M192.16,102.78 L191.99,102.68 "/><path d="M191.68,79.73 L191.68,101.76 "/><path d="M191.71,102.14 L192.08,102.00 L195.31,100.13 "/><path d="M191.34,73.83 L192.56,74.53 "/><path d="M193.29,102.70 L196.53,100.83 "/><path d="M195.72,72.06 L195.72,73.15 L195.75,73.38 L196.96,74.08 "/><path d="M198.11,75.77 L196.90,75.07 "/><path d="M196.46,98.92 L197.67,99.62 "/><path d="M195.95,71.26 L197.17,71.96 "/><path d="M196.48,70.68 L197.85,69.89 "/><path d="M196.93,97.33 L196.93,75.30 L196.90,75.07 "/><path d="M196.96,74.08 L196.93,73.85 L196.93,72.75 "/><path d="M197.74,71.36 L199.06,70.59 "/><path d="M198.14,98.03 L198.14,76.00 L198.11,75.77 "/><path d="M199.56,70.49 L198.34,69.79 "/><path d="M199.91,106.25 L199.91,71.08 "/><path d="M135.98,145.11 L136.00,145.24 L136.06,145.34 L136.15,145.39 L136.26,145.39 L136.38,145.35 "/><path d="M160.39,89.95 L160.37,89.84 L160.31,89.74 L160.22,89.69 L160.11,89.69 L159.98,89.74 "/><path d="M183.02,77.84 L183.14,77.79 L183.26,77.79 L183.35,77.84 L183.40,77.94 L183.42,78.08 "/><path d="M181.74,93.75 L181.72,93.62 L181.67,93.52 L181.58,93.47 L181.46,93.47 L181.35,93.51 "/><path d="M110.73,156.34 L110.77,156.62 L110.89,156.82 L111.08,156.93 "/><path d="M198.34,69.79 L198.11,69.79 L197.85,69.89 "/><path d="M158.77,89.04 L158.89,88.99 L159.01,88.99 L159.10,89.04 "/><path d="M191.34,73.83 L191.12,73.82 L190.87,73.92 "/><path d="M182.05,77.09 L181.93,77.09 L181.81,77.14 "/><path d="M184.067 79.219 a1.198 0.692 -59.999 0 1 -0.644 -0.550"/><path d="M184.067 79.220 a1.143 0.660 119.999 0 1 0.613 0.552"/><path d="M193.293 102.695 a2.285 1.319 -59.999 0 1 -1.616 -0.933"/><path d="M111.937 119.859 a1.201 0.693 119.999 0 1 0.849 -1.471"/><path d="M198.141 98.031 a2.285 1.319 -59.999 0 1 -1.616 2.798"/><path d="M199.057 70.595 a1.201 0.693 119.999 0 1 0.849 0.490"/><path d="M199.906 106.247 a1.201 0.693 119.999 0 1 -0.849 1.471"/><path d="M189.931 102.771 a2.285 1.319 -59.999 0 1 -1.616 2.798"/><path d="M110.725 119.159 a1.201 0.693 -59.999 0 1 0.849 -1.471"/><path d="M196.930 72.753 a1.139 0.658 119.999 0 1 0.805 -1.395"/><path d="M195.717 72.058 a1.146 0.662 -59.999 0 1 0.767 -1.377"/><path d="M196.929 97.331 a2.285 1.319 119.999 0 1 -1.615 2.798"/><path d="M185.084 107.435 a2.285 1.319 -59.999 0 1 -1.616 -0.933"/><path d="M192.122 74.599 a1.146 0.662 119.999 0 1 0.767 0.492"/><path d="M112.786 157.526 a1.201 0.693 119.999 0 1 -0.849 -0.490"/><path d="M188.719 102.071 a2.285 1.319 119.999 0 1 -1.615 2.798"/></g></g><g id="Actor_6.0"><g style="stroke:#000020;stroke-width:0.079"><path d="M211.90,94.22 C211.90,95.29 211.90,95.27 211.90,96.33 C211.90,96.35 211.90,96.35 211.91,96.38 C211.93,96.42 211.93,96.42 211.95,96.47 "/><path d="M211.90,94.22 C211.90,93.64 211.90,93.65 211.91,93.08 C211.92,92.96 211.92,92.96 211.94,92.84 C211.98,92.71 211.98,92.70 212.03,92.57 C212.11,92.43 212.11,92.43 212.19,92.30 C212.28,92.19 212.28,92.19 212.38,92.08 C212.48,92.00 212.48,92.00 212.59,91.92 C212.69,91.86 212.69,91.86 212.79,91.80 "/><path d="M212.79,91.80 C212.67,91.87 212.67,91.87 212.55,91.94 C212.45,92.02 212.44,92.02 212.35,92.10 C212.25,92.20 212.25,92.20 212.17,92.30 C212.09,92.43 212.09,92.43 212.02,92.55 C211.98,92.68 211.98,92.68 211.93,92.81 C211.92,92.94 211.92,92.95 211.91,93.08 "/><path d="M213.81,98.36 C213.81,96.32 213.81,96.32 213.81,94.28 C213.81,94.22 213.81,94.22 213.81,94.17 C213.83,94.08 213.83,94.08 213.84,93.99 C213.86,93.93 213.86,93.93 213.88,93.87 C213.94,93.72 213.94,93.72 214.01,93.57 C214.10,93.44 214.10,93.44 214.19,93.30 C214.26,93.23 214.26,93.23 214.32,93.16 C214.37,93.12 214.37,93.12 214.41,93.09 C214.48,93.03 214.48,93.03 214.55,92.99 C214.91,92.78 214.91,92.78 215.28,92.57 "/><path d="M215.23,97.03 C214.92,97.20 214.92,97.20 214.62,97.38 C214.49,97.47 214.49,97.47 214.37,97.57 C214.25,97.70 214.25,97.70 214.14,97.83 C214.02,98.03 214.02,98.03 213.90,98.23 C213.79,98.39 213.79,98.39 213.68,98.55 "/><path d="M213.95,61.45 C213.93,61.42 213.93,61.42 213.90,61.39 C213.87,61.33 213.87,61.33 213.84,61.27 C213.83,61.23 213.83,61.23 213.82,61.18 C213.81,61.10 213.81,61.10 213.81,61.03 "/><path d="M232.39,57.48 C232.39,69.13 232.39,69.13 232.39,80.77 C232.39,80.88 232.39,80.88 232.38,80.98 C232.36,81.13 232.35,81.13 232.33,81.29 C232.30,81.40 232.30,81.40 232.27,81.51 C232.20,81.67 232.20,81.67 232.14,81.83 C232.09,81.93 232.09,81.93 232.03,82.04 C231.94,82.19 231.94,82.19 231.84,82.34 C231.77,82.43 231.77,82.43 231.71,82.52 C231.59,82.65 231.59,82.65 231.47,82.77 C231.39,82.84 231.39,82.84 231.32,82.91 C231.19,83.00 231.19,83.00 231.06,83.08 C224.33,86.97 224.33,86.97 217.60,90.85 C217.46,90.95 217.46,90.95 217.31,91.05 C217.23,91.13 217.23,91.13 217.14,91.20 C217.01,91.34 217.01,91.34 216.87,91.49 C216.80,91.59 216.80,91.59 216.73,91.69 C216.62,91.86 216.62,91.86 216.51,92.03 C216.45,92.14 216.45,92.14 216.40,92.26 C216.32,92.44 216.32,92.44 216.25,92.62 C216.22,92.74 216.22,92.74 216.18,92.86 C216.15,93.04 216.15,93.04 216.12,93.21 C216.11,93.33 216.11,93.33 216.11,93.44 C216.11,96.94 216.11,96.94 216.11,100.44 "/><path d="M215.23,93.00 C215.25,92.69 215.25,92.69 215.30,92.38 C215.40,92.07 215.40,92.07 215.52,91.76 C215.68,91.47 215.68,91.46 215.85,91.17 C216.06,90.92 216.06,90.92 216.28,90.67 C216.54,90.48 216.54,90.47 216.80,90.29 "/><path d="M216.80,90.29 C216.55,90.47 216.55,90.47 216.30,90.67 C216.08,90.92 216.07,90.92 215.86,91.18 C215.69,91.47 215.69,91.47 215.52,91.77 C215.40,92.08 215.40,92.08 215.30,92.40 C215.25,92.70 215.25,92.70 215.22,93.00 "/><path d="M225.80,61.30 C223.46,62.65 223.46,62.65 221.12,64.00 C220.99,64.08 220.99,64.08 220.85,64.15 C220.61,64.24 220.61,64.24 220.36,64.33 C220.29,64.34 220.29,64.34 220.23,64.35 C219.99,64.38 219.99,64.39 219.75,64.40 C219.47,64.38 219.47,64.38 219.18,64.35 C218.92,64.28 218.92,64.28 218.65,64.21 C218.42,64.11 218.42,64.11 218.20,64.00 C216.83,63.22 216.83,63.21 215.46,62.42 C215.43,62.40 215.43,62.40 215.40,62.37 "/><path d="M216.21,89.83 C217.77,88.94 217.77,88.94 219.32,88.03 C219.47,87.93 219.47,87.93 219.61,87.81 C219.74,87.67 219.74,87.66 219.87,87.51 C219.98,87.34 219.98,87.33 220.08,87.16 C220.14,86.97 220.14,86.97 220.21,86.78 C220.23,86.63 220.23,86.63 220.25,86.47 "/><path d="M218.48,88.52 C218.88,88.29 218.88,88.29 219.28,88.06 C219.43,87.95 219.43,87.95 219.58,87.83 C219.72,87.67 219.72,87.67 219.85,87.51 C219.96,87.33 219.96,87.33 220.07,87.14 C220.14,86.94 220.14,86.94 220.21,86.75 C220.23,86.58 220.23,86.58 220.25,86.42 "/><path d="M220.26,85.20 C220.27,85.10 220.27,85.10 220.29,84.99 C220.33,84.85 220.33,84.85 220.38,84.71 C220.46,84.58 220.46,84.58 220.54,84.45 C220.63,84.34 220.63,84.34 220.73,84.23 C220.83,84.15 220.83,84.15 220.94,84.07 C221.00,84.03 221.00,84.03 221.06,84.00 "/><path d="M221.06,84.00 C220.98,84.04 220.98,84.04 220.90,84.09 C220.80,84.17 220.79,84.17 220.70,84.24 C220.60,84.35 220.60,84.35 220.52,84.45 C220.44,84.57 220.44,84.57 220.38,84.70 C220.33,84.83 220.33,84.83 220.28,84.96 C220.27,85.08 220.27,85.08 220.25,85.20 C220.25,85.81 220.25,85.81 220.25,86.42 "/><path d="M220.04,57.88 C220.07,57.90 220.07,57.91 220.10,57.93 C220.16,57.97 220.16,57.97 220.23,58.00 C220.26,58.02 220.26,58.02 220.30,58.03 "/><path d="M224.17,53.67 C223.95,53.54 223.95,53.54 223.74,53.41 C223.71,53.40 223.71,53.40 223.69,53.39 C223.64,53.39 223.63,53.39 223.58,53.38 "/><path d="M220.14,56.03 C220.16,56.08 220.16,56.08 220.18,56.13 C220.27,56.25 220.27,56.25 220.36,56.37 C220.41,56.42 220.41,56.42 220.47,56.47 "/><path d="M228.50,80.27 C225.02,82.27 225.02,82.27 221.55,84.28 C221.43,84.37 221.43,84.37 221.31,84.47 C221.23,84.57 221.23,84.58 221.16,84.68 "/><path d="M230.09,58.81 C230.09,74.12 230.09,69.75 230.09,80.68 C230.08,80.73 230.08,80.73 230.08,80.78 C230.06,80.84 230.06,80.84 230.04,80.89 C230.01,80.94 230.01,80.94 229.98,80.99 C229.94,81.03 229.94,81.03 229.91,81.07 C229.87,81.11 229.87,81.11 229.83,81.14 C226.37,83.14 226.36,83.13 222.91,85.13 C222.83,85.18 222.83,85.18 222.76,85.23 C222.65,85.34 222.65,85.34 222.54,85.45 C222.50,85.50 222.50,85.50 222.47,85.55 C222.41,85.64 222.41,85.63 222.36,85.72 C222.29,85.87 222.29,85.87 222.23,86.02 C222.21,86.08 222.21,86.08 222.19,86.14 C222.18,86.23 222.18,86.23 222.16,86.31 C222.16,86.75 222.16,86.76 222.16,87.20 "/><path d="M224.03,82.28 C224.03,81.58 224.03,81.57 224.03,80.87 C224.10,80.51 224.10,80.51 224.17,80.15 C224.23,79.90 224.23,79.90 224.29,79.66 "/><path d="M224.29,79.66 C224.48,79.36 224.48,79.36 224.68,79.07 C224.82,78.87 224.82,78.86 224.97,78.67 C225.19,78.49 225.19,78.49 225.42,78.32 C226.86,77.49 226.86,77.49 228.29,76.66 "/><path d="M226.13,80.96 C226.05,81.04 226.05,81.04 225.96,81.12 C225.82,81.23 225.82,81.23 225.67,81.34 C224.92,81.77 224.92,81.77 224.17,82.20 "/><path d="M225.60,54.49 C225.76,54.58 225.76,54.58 225.93,54.68 C225.99,54.70 225.99,54.71 226.05,54.73 C226.11,54.75 226.11,54.75 226.17,54.76 C226.23,54.76 226.23,54.76 226.30,54.76 C226.36,54.75 226.36,54.75 226.42,54.73 C226.48,54.71 226.48,54.71 226.54,54.68 "/><path d="M228.47,51.50 C228.47,52.28 228.47,52.30 228.48,53.09 C228.48,53.12 228.48,53.12 228.49,53.14 C228.51,53.18 228.51,53.18 228.54,53.22 "/><path d="M228.68,53.28 C228.65,53.29 228.65,53.29 228.62,53.29 C228.56,53.29 228.56,53.29 228.51,53.29 C228.47,53.28 228.47,53.28 228.44,53.26 C228.37,53.23 228.37,53.23 228.31,53.19 C228.28,53.17 228.28,53.17 228.25,53.14 "/><path d="M229.90,52.44 C229.28,52.09 229.28,52.09 228.67,51.73 C228.62,51.68 228.62,51.68 228.56,51.63 C228.48,51.51 228.48,51.51 228.39,51.39 C228.37,51.34 228.37,51.34 228.35,51.29 "/><path d="M231.37,48.54 C231.24,48.74 231.23,48.74 231.09,48.93 C230.82,49.14 230.81,49.14 230.53,49.35 C230.20,49.54 230.20,49.54 229.86,49.73 "/><path d="M230.23,82.53 C230.42,82.39 230.42,82.39 230.61,82.25 C230.79,82.04 230.79,82.04 230.97,81.82 C231.12,81.58 231.12,81.58 231.26,81.33 C231.35,81.07 231.35,81.07 231.44,80.81 C231.46,80.70 231.46,80.70 231.47,80.59 "/><path d="M231.47,80.59 C231.46,80.71 231.46,80.71 231.44,80.82 C231.35,81.08 231.35,81.08 231.26,81.34 C231.12,81.58 231.12,81.58 230.98,81.82 C230.81,82.03 230.80,82.03 230.62,82.24 C230.42,82.40 230.42,82.40 230.21,82.55 "/><path d="M231.03,47.02 C231.15,47.07 231.15,47.07 231.26,47.13 C231.44,47.26 231.43,47.27 231.61,47.41 C231.65,47.45 231.65,47.45 231.68,47.49 C231.79,47.66 231.80,47.66 231.90,47.83 C231.95,47.94 231.95,47.94 231.98,48.05 C232.01,48.39 232.01,48.39 232.03,48.73 "/><path d="M232.16,48.72 C232.22,48.84 232.22,48.84 232.29,48.96 C232.33,49.01 232.33,49.01 232.37,49.06 C232.50,49.17 232.50,49.17 232.62,49.27 C232.69,49.32 232.69,49.32 232.75,49.36 "/><path d="M235.58,55.64 C236.16,55.31 236.16,55.30 236.74,54.96 C237.20,54.65 237.20,54.65 237.65,54.33 C238.01,53.98 238.00,53.97 238.35,53.61 C238.46,53.45 238.46,53.45 238.57,53.28 C238.74,53.01 238.75,53.01 238.92,52.74 C239.04,52.47 239.04,52.47 239.15,52.20 C239.20,51.99 239.20,51.99 239.25,51.79 C239.28,51.58 239.29,51.58 239.32,51.37 C239.33,51.19 239.33,51.19 239.34,51.00 C239.34,50.47 239.34,50.47 239.34,49.95 "/><path d="M237.81,48.29 C237.76,48.14 237.76,48.14 237.69,47.99 C237.36,47.53 237.37,47.52 237.03,47.06 C236.51,46.65 236.50,46.65 235.96,46.26 "/><path d="M214.37,57.82 C214.45,57.79 214.45,57.79 214.52,57.76 C214.60,57.75 214.60,57.75 214.69,57.73 C214.78,57.73 214.78,57.73 214.87,57.73 C214.95,57.75 214.95,57.75 215.04,57.76 C215.11,57.79 215.11,57.79 215.18,57.82 "/><path d="M213.60,58.55 C213.64,58.56 213.64,58.56 213.68,58.58 C213.72,58.59 213.72,58.59 213.76,58.59 C213.81,58.59 213.81,58.59 213.85,58.59 C213.89,58.59 213.90,58.59 213.94,58.58 C213.97,58.56 213.97,58.56 214.01,58.55 "/><path d="M227.52,54.70 C227.62,54.74 227.62,54.75 227.71,54.79 C227.82,54.81 227.82,54.81 227.93,54.84 C228.03,54.84 228.03,54.84 228.13,54.85 "/><path d="M215.71,100.34 C215.78,100.38 215.78,100.38 215.85,100.40 C215.94,100.42 215.94,100.42 216.02,100.44 C216.11,100.44 216.11,100.44 216.20,100.44 C216.28,100.42 216.29,100.42 216.37,100.40 C216.44,100.38 216.44,100.38 216.51,100.34 "/><path d="M230.37,40.94 C230.44,40.91 230.44,40.91 230.52,40.88 C230.60,40.86 230.60,40.86 230.69,40.84 C230.77,40.84 230.78,40.84 230.86,40.84 C230.95,40.86 230.95,40.86 231.03,40.88 C231.11,40.91 231.11,40.91 231.18,40.94 "/><path d="M216.51,57.66 C216.44,57.63 216.44,57.63 216.37,57.60 C216.29,57.58 216.28,57.58 216.20,57.57 C216.11,57.57 216.11,57.57 216.02,57.57 C215.94,57.58 215.94,57.58 215.85,57.60 C215.78,57.63 215.78,57.63 215.71,57.66 "/><path d="M227.46,44.25 C227.47,44.21 227.47,44.21 227.47,44.17 C227.49,44.13 227.49,44.13 227.50,44.09 C227.52,44.05 227.52,44.05 227.55,44.01 C227.57,43.98 227.57,43.98 227.60,43.95 C227.63,43.92 227.63,43.92 227.66,43.90 "/><path d="M228.07,43.67 C228.14,43.63 228.14,43.63 228.21,43.61 C228.30,43.59 228.30,43.59 228.38,43.57 C228.47,43.57 228.47,43.57 228.56,43.57 C228.65,43.59 228.65,43.59 228.73,43.61 C228.80,43.63 228.81,43.63 228.88,43.67 "/><path d="M227.92,54.02 C227.79,54.06 227.79,54.06 227.67,54.11 C227.59,54.16 227.59,54.16 227.50,54.20 C227.44,54.26 227.44,54.26 227.38,54.32 "/><path d="M219.18,59.05 C219.24,59.00 219.24,59.00 219.30,58.94 C219.38,58.89 219.38,58.89 219.46,58.85 C219.58,58.80 219.58,58.80 219.71,58.76 "/><path d="M211.90,94.86 L211.90,94.22 "/><path d="M211.95,96.47 L212.02,96.54 L212.79,96.98 L212.48,96.80 "/><path d="M213.10,97.09 L213.04,97.12 L212.79,96.98 L213.04,97.12 L213.04,98.72 "/><path d="M211.91,93.08 L211.90,94.22 "/><path d="M212.11,92.44 L214.02,93.54 "/><path d="M213.20,98.90 L215.71,100.34 "/><path d="M213.04,97.12 L213.04,98.66 "/><path d="M212.79,91.80 L216.21,89.83 L215.07,90.49 "/><path d="M213.85,61.49 L213.83,61.48 "/><path d="M213.93,61.54 L214.01,61.57 L214.29,61.57 L214.58,61.45 L214.32,61.55 L214.12,61.55 L213.95,61.45 "/><path d="M213.81,61.03 L213.81,58.59 "/><path d="M213.93,61.54 L213.72,61.42 L213.67,61.37 L213.52,61.12 L213.49,60.87 L213.49,60.16 L213.49,60.87 "/><path d="M213.49,60.16 L213.49,59.03 L213.49,60.16 "/><path d="M214.37,57.82 L213.57,58.29 L213.51,58.33 L213.49,58.38 L213.49,59.03 L213.49,58.43 "/><path d="M213.49,58.38 L213.49,58.43 L213.51,58.48 L213.60,58.55 "/><path d="M215.23,98.67 L214.05,97.99 "/><path d="M215.43,92.02 L215.41,92.03 L214.80,91.67 L216.04,90.96 "/><path d="M215.22,61.07 L214.58,61.45 "/><path d="M214.96,59.56 L215.22,59.71 "/><path d="M214.01,58.55 L214.82,58.08 L214.82,59.12 "/><path d="M215.22,58.31 L214.82,58.08 "/><path d="M215.23,99.16 L215.23,98.76 L215.23,99.35 L215.26,99.46 "/><path d="M215.22,93.00 L215.23,98.76 L215.25,93.02 "/><path d="M215.69,91.47 L216.19,91.76 "/><path d="M225.31,61.58 L225.80,61.30 "/><path d="M215.40,62.37 L215.26,62.12 L215.22,61.87 L215.22,61.30 L215.22,61.87 "/><path d="M215.22,61.30 L215.22,60.16 L215.22,61.07 "/><path d="M215.22,60.16 L215.22,59.62 L215.22,60.16 "/><path d="M215.22,59.62 L215.22,57.98 "/><path d="M215.12,59.67 L215.22,59.73 "/><path d="M215.22,59.12 L215.22,57.98 L215.25,57.94 L215.31,57.89 L215.71,57.66 "/><path d="M217.86,59.61 L215.30,58.13 L215.25,58.09 L215.22,58.04 L215.22,57.98 "/><path d="M215.31,57.89 L215.18,57.82 "/><path d="M216.51,100.34 L233.20,90.71 "/><path d="M216.80,90.29 L230.23,82.54 "/><path d="M218.95,59.07 L216.51,57.66 "/><path d="M218.96,59.06 L219.62,58.68 L218.96,59.06 "/><path d="M219.62,58.68 L220.76,58.02 L219.62,58.68 "/><path d="M219.97,87.33 L220.95,87.90 "/><path d="M220.46,84.58 L222.12,85.54 "/><path d="M219.88,64.39 L219.88,60.09 "/><path d="M220.18,57.98 L220.16,57.97 "/><path d="M221.68,57.49 L220.76,58.02 L222.32,57.12 "/><path d="M219.94,57.61 L219.94,56.76 L219.94,57.61 L219.96,57.73 L219.99,57.79 L220.04,57.88 "/><path d="M220.30,58.03 L220.47,58.02 L220.63,57.95 L220.50,58.01 L220.40,58.01 L220.33,57.96 L220.28,57.88 L220.27,57.83 L220.26,56.24 "/><path d="M220.63,57.95 L221.69,57.34 L221.69,56.99 L221.71,56.94 "/><path d="M222.45,56.77 L220.08,55.40 "/><path d="M223.73,53.42 L224.17,53.67 "/><path d="M223.58,53.38 L223.48,53.41 L220.25,55.28 L220.08,55.40 L219.97,55.55 L219.94,55.69 L219.94,56.76 L219.94,55.69 "/><path d="M220.47,56.47 L221.69,57.18 "/><path d="M221.06,84.00 L224.17,82.20 L223.03,82.86 "/><path d="M227.88,81.91 L228.50,80.27 "/><path d="M221.16,84.68 L222.31,85.21 "/><path d="M221.16,84.68 L222.23,85.30 L222.41,85.11 L222.66,84.92 L229.61,80.91 L228.50,80.27 "/><path d="M221.02,64.05 L221.03,64.05 "/><path d="M220.85,64.15 L220.84,64.15 "/><path d="M235.96,50.32 L220.89,59.02 "/><path d="M221.69,57.48 L221.69,57.34 "/><path d="M221.90,57.36 L222.32,57.12 L222.37,57.07 "/><path d="M221.69,57.34 L221.69,56.99 "/><path d="M221.69,57.39 L221.68,57.48 "/><path d="M221.90,59.61 L236.97,50.91 "/><path d="M222.20,57.19 L222.20,57.18 "/><path d="M222.36,55.38 L222.24,55.72 L222.24,55.94 "/><path d="M225.25,54.28 L225.31,54.32 L224.17,53.67 L224.56,53.89 "/><path d="M226.47,80.39 L226.21,80.80 L226.13,80.96 "/><path d="M225.31,81.54 L225.67,81.34 "/><path d="M224.64,56.03 L224.64,55.78 L224.53,55.43 "/><path d="M226.33,80.67 L226.17,80.92 L226.09,81.00 "/><path d="M226.13,80.96 L226.25,80.85 L226.22,80.88 "/><path d="M225.71,80.32 L225.65,80.29 "/><path d="M225.80,61.30 L228.78,59.55 L234.41,56.31 L225.80,61.30 "/><path d="M225.93,54.68 L225.60,54.49 "/><path d="M226.54,54.68 L227.59,54.08 L226.54,54.68 "/><path d="M225.60,54.49 L225.31,54.32 "/><path d="M227.46,74.26 L227.46,77.14 "/><path d="M227.46,68.06 L227.46,60.33 "/><path d="M227.46,44.25 L227.46,54.15 "/><path d="M230.55,45.80 L227.52,44.05 "/><path d="M227.59,54.08 L228.72,53.42 L227.59,54.08 "/><path d="M228.39,53.24 L228.37,53.23 "/><path d="M228.54,53.22 L228.61,53.27 L228.72,53.27 L228.68,53.28 "/><path d="M228.25,53.14 L228.20,53.05 L228.17,52.99 L228.15,52.87 L228.15,52.22 L228.15,52.87 "/><path d="M228.15,52.22 L228.15,51.08 L228.15,52.22 "/><path d="M229.27,50.07 L229.86,49.73 L228.45,50.54 L228.29,50.66 L228.18,50.81 L228.15,50.95 L228.15,51.08 L228.15,50.98 "/><path d="M228.29,50.66 L230.65,52.03 "/><path d="M228.25,50.97 L228.26,50.94 "/><path d="M227.66,43.90 L228.07,43.67 "/><path d="M229.52,80.80 L229.67,80.71 L229.65,80.72 "/><path d="M229.72,80.67 L229.77,80.71 "/><path d="M229.67,80.71 L229.72,80.67 L229.76,80.56 L229.77,80.47 "/><path d="M229.77,80.56 L229.77,70.03 "/><path d="M229.48,76.90 L229.77,77.07 "/><path d="M229.77,59.00 L229.77,68.27 "/><path d="M228.72,53.42 L229.86,52.76 L228.72,53.42 "/><path d="M228.82,53.23 L228.72,53.27 L229.18,53.09 L228.82,53.23 "/><path d="M229.34,53.07 L229.21,53.07 L229.18,53.09 "/><path d="M229.29,53.09 L229.17,53.09 "/><path d="M229.86,49.73 L230.53,49.35 "/><path d="M228.88,43.67 L230.01,44.32 L230.01,41.34 "/><path d="M230.48,52.41 L230.41,52.45 L230.53,52.38 L230.48,52.41 "/><path d="M229.90,52.29 L229.90,52.74 L230.41,52.45 L229.86,52.76 "/><path d="M230.58,52.33 L230.53,52.38 L230.61,52.33 "/><path d="M229.92,52.20 L229.90,52.25 L229.90,52.50 "/><path d="M229.90,52.37 L229.90,52.31 "/><path d="M229.90,52.65 L229.90,52.74 "/><path d="M230.57,50.64 L230.45,50.98 L230.45,51.20 "/><path d="M235.96,46.26 L231.79,43.85 L230.49,44.60 L230.01,44.32 "/><path d="M230.01,42.00 L230.01,41.24 "/><path d="M235.96,44.87 L230.17,41.52 "/><path d="M230.37,40.94 L230.17,41.05 "/><path d="M231.62,81.87 L231.12,81.58 "/><path d="M231.30,58.11 L231.30,81.20 "/><path d="M231.50,80.33 L231.47,80.59 L231.51,80.31 "/><path d="M231.50,80.33 L231.50,57.99 "/><path d="M232.12,48.35 L232.13,48.61 L232.16,48.72 "/><path d="M232.75,49.36 L235.19,50.77 "/><path d="M231.48,48.04 L231.37,48.54 "/><path d="M236.97,44.28 L231.18,40.94 "/><path d="M232.85,51.29 L232.85,51.04 L232.74,50.69 "/><path d="M232.18,49.07 L232.18,49.41 "/><path d="M232.69,49.89 L234.70,51.05 "/><path d="M234.41,56.31 L236.74,54.96 "/><path d="M235.58,87.40 L235.58,55.64 "/><path d="M239.34,49.95 L239.34,51.00 "/><path d="M239.34,49.95 L239.35,47.60 "/><path d="M213.04,98.61 L213.04,98.72 L213.10,98.81 L213.20,98.90 "/><path d="M219.18,59.05 L219.14,59.14 "/><path d="M227.38,54.32 L227.35,54.40 L227.35,54.44 L227.40,54.58 L227.52,54.70 "/><path d="M230.17,41.05 L230.06,41.14 L230.01,41.24 L230.01,41.34 L230.06,41.44 L230.17,41.52 "/><path d="M232.03,48.84 L232.07,49.23 L232.30,49.59 L232.81,49.98 "/><path d="M214.82,59.12 L214.85,59.37 L214.96,59.56 L215.12,59.67 "/><path d="M232.854 51.289 a1.205 0.696 -180.000 1 1 -2.402 -0.086"/><path d="M219.707 58.756 a0.728 0.421 -180.000 0 1 0.891 0.445"/><path d="M227.916 54.016 a0.728 0.421 -180.000 0 1 0.892 0.438"/><path d="M236.973 44.282 a8.112 4.684 -180.000 0 1 0.000 6.624"/><path d="M224.645 56.028 a1.206 0.696 -0.000 1 1 -2.402 -0.087"/><path d="M228.295 76.663 a2.856 1.649 60.000 0 1 1.188 0.240"/><path d="M235.963 44.866 a6.684 3.859 -0.000 0 1 0.000 5.457"/><path d="M220.894 59.023 a1.428 0.825 -0.000 0 1 -2.020 0.000"/><path d="M221.904 59.606 a2.857 1.649 -180.000 0 1 -4.040 0.000"/><path d="M235.575 87.399 a8.112 4.684 -180.000 0 1 -2.376 3.312"/><ellipse rx="1.09" ry="0.63" transform="translate(231.648 50.720) rotate(-180.000)"/><path d="M233.573 48.905 a0.943 0.544 -0.000 1 1 1.475 -0.001"/><path d="M219.374 59.104 a0.586 0.338 -0.000 0 1 1.035 0.042"/><ellipse rx="1.16" ry="0.67" transform="translate(234.310 48.390) rotate(-0.000)"/><ellipse rx="1.09" ry="0.63" transform="translate(223.439 55.459) rotate(-180.000)"/><path d="M227.598 54.734 a0.586 0.338 -180.000 1 1 1.068 -0.198"/></g></g><g/><g id="paperID" visibility="hidden" opacity="0.00" transform="scale(0.000100)"><path style="stroke:#000000;stroke-width:0.500;fill:#e6e6e6;fill-rule:evenodd" d="M-2000.00,-2000.00L2297.00,-2000.00L2297.00,2210.00L-2000.00,2210.00zM0.00,0.00L297.00,0.00L297.00,210.00L0.00,210.00z"/><path style="fill:#000000;fill-opacity:0.118" d="M3.00,210.00L297.00,210.00L297.00,3.00L300.00,3.00L300.00,213.00L3.00,213.00z"/></g><g id="hotspot.0" ident="" onmouseover="ShowHotSpot(evt,'0')" onmouseout="HideHotSpot(evt,'0')" onmousemove="ShowToolTip(evt,'0',&quot;Case Corner Angle 1&quot;)" opacity="0"><path style="fill:#00ff00;fill-rule:evenodd" d="M76.08,138.06L76.74,138.07L77.53,137.58L78.43,137.59L78.44,180.19L75.29,181.75L71.62,182.85L70.60,182.84L69.42,181.22L69.04,178.86L67.79,176.94L67.79,175.45L69.03,173.53L69.03,140.37L67.80,138.43L67.83,136.99L68.86,136.04L72.57,136.04z"/></g><g id="hotspot.1" ident="" onmouseover="ShowHotSpot(evt,'1')" onmouseout="HideHotSpot(evt,'1')" onmousemove="ShowToolTip(evt,'1',&quot;Case PCI Corner v2&quot;)" opacity="0"><path style="fill:#00ff00;fill-rule:evenodd" d="M237.60,44.86L239.13,46.48L239.13,52.53L237.99,54.13L235.85,55.53L235.59,87.48L234.46,89.89L216.60,100.35L215.55,100.35L213.07,98.86L212.84,97.12L211.89,96.50L212.02,92.59L214.37,91.02L219.72,87.72L220.28,86.71L220.66,84.34L223.83,82.41L224.45,79.49L226.85,77.56L227.32,77.25L227.37,60.64L220.94,64.19L218.26,64.20L215.56,62.59L215.13,61.40L213.58,61.47L213.59,58.41L214.61,57.87L216.75,57.86L217.92,58.65L219.82,58.69L220.25,58.27L220.26,55.26L223.28,53.53L223.79,53.51L225.80,54.74L226.42,54.80L227.37,54.12L227.72,43.84L229.69,43.91L230.07,41.09L231.26,40.95z"/></g><g id="hotspot.2" ident="" onmouseover="ShowHotSpot(evt,'2')" onmouseout="HideHotSpot(evt,'2')" onmousemove="ShowToolTip(evt,'2',&quot;PC Case Front&quot;)" opacity="0"><path style="fill:#00ff00;fill-rule:evenodd" d="M199.87,70.81L199.85,106.74L199.46,107.53L160.44,130.19L160.03,131.74L136.86,145.13L134.49,145.05L113.30,157.30L111.39,157.33L110.92,157.01L111.05,118.12L134.65,104.40L135.01,102.80L158.45,89.26L160.82,89.34L181.23,77.49L182.57,77.48L183.30,77.95L183.64,78.79L184.55,79.45L184.52,81.59L183.71,83.53L183.61,106.77L184.33,106.61L187.70,104.42L188.46,103.21L188.46,79.47L187.62,78.34L187.63,76.45L188.70,75.16L191.07,73.94L191.58,73.96L192.75,74.79L192.76,76.88L191.96,78.81L191.86,102.06L192.58,101.89L196.30,99.27L196.71,98.50L196.72,74.75L195.91,73.98L195.91,71.38L197.74,70.02L198.65,70.02zM180.61,113.04L180.17,113.77L118.91,149.15L117.60,149.58L117.73,130.30L180.61,94.02z"/></g><g id="ToolTip" visibility="hidden" opacity="0" transform="translate(0,0)"><rect id="ToolTipShadow" opacity="0.20" fill="black" stroke="none" x="0" y="0" width="30" height="8"/><rect id="ToolTipBG" fill="#ffffe1" stroke="black" x="0" y="0" width="30" height="8"/><text xml:space="preserve" id="ToolTipText" fill="black" x="0" y="0" width="30" height="8">tooltip</text></g></g></svg>
