<?xml version="1.0" encoding="UTF-8" standalone="no"?>
<svg xmlns="http://www.w3.org/2000/svg" xmlns:xlink="http://www.w3.org/1999/xlink" width="297.000mm" height="210.000mm" viewBox="0.000000 0.000000 297.000000 210.000000" stroke-linejoin="round" stroke-linecap="round" fill="none" fill-rule="evenodd"><desc>Composer Export</desc><script type="text/ecmascript"><![CDATA[
if(typeof(top) != "undefined")
{
	top.ShowPaper = ShowPaper;
}
function ShowHotSpot(evt,hotspotid)
{
	var svgDocument = evt.target.ownerDocument;
	var strId = "hotspot."+hotspotid;
	var hotspot = svgDocument.getElementById(strId);
	if(hotspot)
		hotspot.setAttribute("opacity",".5");
}
function HideHotSpot(evt,hotspotid)
{
	var svgDocument = evt.target.ownerDocument;
	var strId = "hotspot."+hotspotid;
	var hotspot = svgDocument.getElementById(strId);
	if(hotspot)
		hotspot.setAttribute("opacity","0");

	var toolTip = svgDocument.getElementById('ToolTip');
	if(toolTip)
		toolTip.setAttribute("visibility","hidden");
}
function ShowToolTip(evt,hotspotid,strTooltip)
{
	if(strTooltip=="")
	return;

	// change text
	var svgDocument = evt.target.ownerDocument;
	var tiptext = svgDocument.getElementById('ToolTipText');
	if( !tiptext )
	return;
	tiptext.firstChild.nodeValue = " " + strTooltip + "  " ;

	// show tooltip before, else some refresh issue

	var toolTip = svgDocument.getElementById('ToolTip');
	if(!toolTip)
	return;

	toolTip.setAttribute("visibility","visible");
	toolTip.setAttribute("opacity",".95");

	// move tooltip
	// get viewbox

	var root = svgDocument.documentElement;
	var vbox = (root.getAttribute("viewBox")).split(' ');
	var x0 = parseFloat(vbox[0]);
	var y0 = parseFloat(vbox[1]);
	var vboxW = parseFloat(vbox[2]);
	var vboxH = parseFloat(vbox[3]);

	// get default width of svg

	var strW = root.getAttribute("width");
	var svgW = parseFloat(strW);
	if(strW.indexOf('mm') != -1)
	svgW *= 3.779;

	var strH = root.getAttribute("height");
	var svgH = parseFloat(strH);
	if(strH.indexOf('mm') != -1)
	svgH *= 3.779;  	// 96 dpi  -> 96/25.4 = 3.779

	// update the viewbox / width / height if svg is embedded in html with zoom fit all
	var realx0 = x0;
	var realy0 = y0;
	var realvboxW = vboxW;
	var realvboxH = vboxH;
	var realsvgW = svgW;
	var realsvgH = svgH;

	if ((typeof(top) == "undefined") || (typeof(top.svgctl1) != "undefined")) // embedded in html
	{
		// get window size in pxl

		svgW = window.innerWidth;
		svgH = window.innerHeight;

		// calculate real viewbox

		realsvgW = svgW;
		realsvgH = svgH;
		if((svgW / svgH) > (vboxW / vboxH))
		{
			realvboxW = (vboxH * svgW) / svgH;
			realvboxH = vboxH;
			realx0 = x0 - (realvboxW - vboxW)/2 ;
		}
		else
		{
			realvboxH = (vboxW * svgH) / svgW;
			realvboxW = vboxW;
			realy0 = y0 - (realvboxH - vboxH)/2 ;
		}
	}

	// get user zoom/pan

	var newScale = root.currentScale;
	var translation = root.currentTranslate;

	// transform pxl to user unit

	var xPos = (((evt.clientX+10- translation.x)/newScale) * realvboxW)/realsvgW  + realx0 ;
	var yPos = (((evt.clientY+5- translation.y)/newScale) * realvboxH)/ realsvgH  + realy0 ;
	var scaleForWidth = ( (1 / newScale) * realvboxH) / realsvgH;

	// move tooltip

	toolTip.setAttribute("transform", "translate(" + xPos + "," + yPos + ")" );

	// resize tooltip

	var fontsize = 12;
	tiptext.setAttribute("font-size",fontsize*scaleForWidth);
	tiptext.setAttribute("y", fontsize*scaleForWidth);
	var tipBG = svgDocument.getElementById('ToolTipBG');
	var outline = tiptext.getBBox();
	if(tipBG)
	{
		tipBG.setAttribute("stroke-width", 1*scaleForWidth);
		tipBG.setAttribute("width", Number(outline.width) );
		tipBG.setAttribute("height", Number(outline.height) + fontsize*.5*scaleForWidth );
	}
	var ToolTipShadow = svgDocument.getElementById('ToolTipShadow');
	if(ToolTipShadow)
	{
		ToolTipShadow.setAttribute("width", Number(outline.width) );
		ToolTipShadow.setAttribute("height", Number(outline.height) + fontsize*.5*scaleForWidth );
		ToolTipShadow.setAttribute("x", 3*scaleForWidth);
		ToolTipShadow.setAttribute("y", 3*scaleForWidth);
	}
}
function ShowPaper()
{
  var svgDocument = getDocument();
  var paper = svgDocument.getElementById("paperID");
  if(paper)
  {
    paper.setAttribute("transform","scale(1)");
    paper.setAttribute("opacity","1");
    paper.setAttribute("visibility","visible");
  }
  var svg = svgDocument.getRootElement();
  if(svg)
  {
    svg.setAttribute("width","307.000mm");
    svg.setAttribute("height","220.000mm");
    svg.setAttribute("viewBox","-5.000000 -5.000000 307.000000 220.000000");
  }
}
]]></script><defs/><g><g id="Actor_.0"><path style="fill:#ffffff;fill-rule:evenodd" d="M142.84,113.37L142.84,113.62L135.85,117.72L135.02,117.72L112.65,104.12L116.61,97.60zM171.64,135.14L171.24,135.33L160.52,136.41L159.05,136.40L160.78,133.56L160.61,133.11L152.76,128.41L152.72,128.25L159.97,124.06L160.58,124.06L164.93,126.67L166.92,123.35z"/></g><g id="Actor_.1"><g style="stroke:#000000;stroke-width:0.250"><path d="M135.44,118.03 L112.65,104.29 L116.65,97.67 L143.09,113.62 "/><path d="M160.33,124.02 L164.90,126.78 L166.90,123.47 L171.72,135.41 L158.91,136.71 L160.90,133.40 L152.68,128.44 "/></g></g><g id="Actor_5.0"><g style="stroke:#000020;stroke-width:0.079"><path d="M110.02,175.38 C109.99,175.32 109.99,175.32 109.96,175.27 C109.89,175.04 109.89,175.04 109.83,174.82 C109.83,174.75 109.83,174.75 109.83,174.67 C109.83,174.51 109.82,174.51 109.83,174.35 C109.89,174.12 109.90,174.12 109.97,173.90 C109.99,173.83 109.99,173.83 110.02,173.77 C110.16,173.54 110.16,173.54 110.30,173.32 "/><path d="M110.67,124.38 C110.54,124.48 110.54,124.48 110.42,124.59 C110.26,124.79 110.26,124.79 110.11,124.99 C110.03,125.14 110.03,125.14 109.96,125.30 C109.92,125.52 109.92,125.52 109.89,125.74 "/><path d="M110.42,124.59 C110.26,124.79 110.26,124.79 110.11,124.99 C110.00,125.21 110.00,125.21 109.90,125.43 C109.86,125.65 109.86,125.65 109.83,125.88 C109.82,125.95 109.82,125.95 109.82,126.02 C109.86,126.25 109.86,126.25 109.90,126.48 C109.92,126.55 109.93,126.55 109.95,126.62 C110.07,126.83 110.07,126.83 110.18,127.04 C110.81,128.01 110.81,128.01 111.45,128.98 C111.56,129.13 111.56,129.13 111.67,129.27 "/><path d="M111.74,180.33 C111.74,179.46 111.74,179.46 111.74,178.60 C111.73,178.55 111.73,178.55 111.72,178.51 C111.68,178.37 111.68,178.37 111.63,178.23 "/><path d="M111.67,129.27 C111.71,129.19 111.71,129.19 111.75,129.10 C111.82,129.03 111.82,129.03 111.88,128.95 C111.92,128.93 111.92,128.93 111.95,128.90 "/><path d="M110.74,124.32 C110.78,124.29 110.78,124.29 110.83,124.25 C111.09,124.10 111.09,124.10 111.35,123.94 C111.56,123.85 111.56,123.85 111.78,123.76 C112.11,123.66 112.11,123.66 112.44,123.57 C112.70,123.52 112.70,123.52 112.95,123.48 C113.32,123.45 113.32,123.45 113.69,123.42 C113.96,123.42 113.96,123.42 114.23,123.43 C114.59,123.48 114.59,123.48 114.95,123.52 C115.20,123.58 115.20,123.58 115.45,123.64 C115.77,123.74 115.77,123.74 116.09,123.86 C116.29,123.96 116.29,123.96 116.49,124.06 "/><path d="M119.98,125.90 C120.29,126.08 120.29,126.08 120.60,126.26 C120.65,126.29 120.65,126.29 120.70,126.33 C120.74,126.37 120.74,126.37 120.78,126.42 C120.80,126.45 120.80,126.45 120.81,126.48 "/><path d="M113.35,178.98 C113.06,179.05 113.06,179.05 112.78,179.12 C112.66,179.16 112.66,179.16 112.55,179.19 C112.39,179.25 112.39,179.25 112.23,179.31 C112.14,179.35 112.14,179.35 112.06,179.39 "/><path d="M113.55,129.79 C113.60,129.84 113.60,129.84 113.67,129.90 C113.75,129.94 113.75,129.94 113.84,129.98 C113.94,130.01 113.94,130.01 114.05,130.03 C114.16,130.04 114.16,130.04 114.27,130.04 C114.38,130.02 114.38,130.02 114.49,130.01 "/><path d="M113.55,182.83 C113.60,182.89 113.60,182.89 113.67,182.94 C113.75,182.99 113.75,182.99 113.84,183.03 C113.94,183.05 113.94,183.05 114.05,183.07 C114.16,183.08 114.16,183.08 114.27,183.08 C114.38,183.07 114.38,183.07 114.49,183.05 "/><path d="M111.63,177.63 L110.21,175.70 L110.03,175.40 "/><path d="M111.63,171.37 L111.42,171.60 L110.18,173.51 L110.40,173.17 "/><path d="M110.61,172.85 L110.74,172.66 "/><path d="M110.42,124.59 L110.67,124.38 "/><path d="M109.89,125.74 L109.97,126.19 L110.20,126.61 L111.92,128.93 "/><path d="M111.67,129.27 L111.63,129.51 L111.63,129.73 L111.63,129.51 "/><path d="M110.67,124.38 L110.74,124.32 L110.67,124.38 "/><path d="M111.63,178.23 L111.63,177.62 L111.07,176.83 "/><path d="M111.72,178.51 L111.77,178.64 "/><path d="M111.69,178.39 L111.65,178.30 "/><path d="M111.63,177.62 L111.63,175.00 L111.63,175.24 "/><path d="M111.35,177.26 L110.97,176.74 "/><path d="M111.63,175.00 L111.63,129.73 "/><path d="M111.63,133.23 L111.63,132.12 "/><path d="M116.49,124.06 L119.64,125.88 L119.67,125.87 L119.89,125.87 L119.98,125.90 "/><path d="M113.55,182.83 L111.80,180.45 "/><path d="M112.34,129.73 L112.34,179.27 L113.35,180.65 "/><path d="M112.80,129.65 L113.35,129.52 "/><path d="M112.14,129.50 L111.87,129.13 "/><path d="M111.88,128.95 L112.09,128.82 L112.25,128.77 L112.37,128.78 "/><path d="M112.09,128.82 L112.08,128.82 "/><path d="M113.94,183.05 L113.94,130.01 "/><path d="M113.35,180.65 L113.35,129.47 "/><path d="M113.79,129.05 L116.44,128.40 L118.30,127.87 L118.24,127.84 L117.95,127.75 "/><path d="M113.40,129.59 L113.55,129.79 "/><path d="M114.49,183.05 L117.81,182.24 L119.54,181.70 L119.54,128.65 L117.81,129.19 L114.49,130.01 "/><path d="M118.50,127.82 L119.78,127.08 "/><path d="M118.30,127.87 L118.55,127.80 L120.29,126.90 L122.33,125.72 "/><path d="M119.54,181.70 L121.06,180.97 L123.61,179.50 "/><path d="M123.61,126.46 L121.06,127.93 L119.54,128.65 "/><path d="M119.64,125.88 L119.62,125.89 L119.60,125.91 L119.58,125.97 "/><path d="M120.60,126.26 L119.98,125.90 "/><path d="M123.81,179.26 L123.81,178.39 L123.81,179.21 "/><path d="M123.81,178.39 L123.81,152.42 L123.81,153.55 "/><path d="M123.81,152.42 L123.81,126.23 "/><path d="M123.81,126.52 L123.81,126.10 "/><path d="M123.61,125.87 L123.35,125.72 "/><path d="M111.80,180.45 L111.74,180.33 "/><path d="M113.79,129.05 L113.60,129.12 L113.45,129.22 L113.37,129.34 L113.35,129.47 L113.40,129.59 "/><path d="M123.81,179.27 L123.74,179.40 L123.61,179.50 "/><path d="M123.81,179.27 L123.81,179.14 "/><path d="M123.61,126.46 L123.74,126.35 L123.81,126.23 L123.81,126.10 L123.74,125.97 L123.61,125.87 "/><ellipse rx="1.19" ry="0.69" transform="translate(113.809 125.513) rotate(-0.000)"/><path d="M122.334 125.720 a0.721 0.417 -180.000 0 1 1.020 0.000"/></g></g><g id="Actor_8.0"><g style="stroke:#000020;stroke-width:0.079"><path d="M127.79,169.15 C167.86,146.02 167.86,146.02 207.93,122.88 C208.01,122.82 208.01,122.82 208.09,122.76 C208.16,122.68 208.16,122.68 208.23,122.60 C208.29,122.50 208.29,122.50 208.34,122.40 C208.38,122.30 208.38,122.30 208.41,122.19 C208.43,122.10 208.43,122.09 208.44,122.00 C208.44,109.41 208.44,109.41 208.44,96.83 "/><path d="M127.28,167.67 C166.84,144.84 166.84,144.84 206.40,122.00 C206.48,121.94 206.48,121.94 206.55,121.88 C206.63,121.80 206.63,121.80 206.70,121.71 C206.75,121.61 206.75,121.61 206.81,121.52 C206.85,121.41 206.85,121.41 206.88,121.31 C206.90,121.21 206.90,121.21 206.91,121.11 C206.91,109.12 206.91,109.12 206.91,97.13 "/><path d="M210.62,112.94 C210.61,99.02 210.61,99.02 210.62,85.11 C210.63,84.94 210.63,84.94 210.65,84.77 C210.71,84.59 210.71,84.59 210.76,84.42 C211.23,83.23 211.23,83.23 211.71,82.05 "/><path d="M216.63,73.73 C216.53,73.80 216.53,73.80 216.43,73.88 C216.28,74.04 216.28,74.04 216.14,74.21 C216.03,74.41 216.03,74.41 215.92,74.60 C215.84,74.81 215.84,74.81 215.77,75.02 C215.74,75.21 215.74,75.21 215.72,75.41 C215.72,75.68 215.72,75.68 215.72,75.94 "/><path d="M123.81,126.52 L150.62,111.04 L149.09,110.15 L119.78,127.08 "/><path d="M123.81,175.97 L149.36,161.21 L150.19,161.71 L149.75,161.45 "/><path d="M127.28,143.68 L127.28,168.85 L127.31,169.02 L127.38,169.14 L127.49,169.21 L127.63,169.21 L127.79,169.15 "/><path d="M127.79,142.80 L207.94,96.53 "/><path d="M150.83,162.08 L150.19,161.71 L150.72,162.01 "/><path d="M149.36,161.21 L150.62,160.49 L150.62,161.73 "/><path d="M149.09,110.15 L149.09,108.95 "/><path d="M150.77,109.35 L149.24,108.47 "/><path d="M149.56,108.11 L179.41,90.88 "/><path d="M151.12,162.03 L180.94,144.81 "/><path d="M150.62,111.04 L150.62,109.84 "/><path d="M180.94,91.76 L151.09,109.00 "/><path d="M179.71,90.82 L180.68,91.38 L179.77,90.85 "/><path d="M180.68,91.38 L181.24,91.70 "/><path d="M181.45,143.99 L181.45,142.69 L209.61,126.43 "/><path d="M209.59,76.99 L181.45,93.24 L181.45,92.03 "/><path d="M181.15,91.65 L208.53,75.84 "/><path d="M181.36,91.77 L180.68,91.38 "/><path d="M206.75,121.61 L208.28,122.50 "/><path d="M208.28,96.51 L208.23,96.48 "/><path d="M209.59,76.23 L208.82,75.78 "/><path d="M210.67,113.42 L211.13,113.24 L215.21,110.88 "/><path d="M212.66,114.12 L216.74,111.76 "/><path d="M216.65,109.35 L218.19,110.24 "/><path d="M217.20,75.09 L216.03,74.41 "/><path d="M217.25,82.88 L217.25,107.34 "/><path d="M218.78,108.23 L218.78,81.99 "/><path d="M220.99,106.95 L220.99,80.72 "/><path d="M221.60,108.24 L221.38,108.11 "/><path d="M225.58,104.89 L221.50,107.25 L221.04,107.43 "/><path d="M223.03,108.13 L227.11,105.77 "/><path d="M226.09,69.95 L226.09,69.42 "/><path d="M226.39,68.42 L227.57,69.10 "/><path d="M228.56,104.25 L227.00,103.35 "/><path d="M227.63,101.35 L227.63,76.88 "/><path d="M229.16,102.24 L229.16,75.99 "/><path d="M150.62,161.73 L150.65,161.89 L150.72,162.01 L150.83,162.08 L150.98,162.08 L151.12,162.03 "/><path d="M180.94,91.76 L181.10,91.70 L181.24,91.70 L181.36,91.77 L181.43,91.89 L181.45,92.03 "/><path d="M208.44,96.83 L208.41,96.66 L208.34,96.54 L208.23,96.48 L208.09,96.47 L207.94,96.53 "/><path d="M119.43,127.35 L119.78,127.08 "/><path d="M179.41,90.88 L179.57,90.82 L179.71,90.82 L179.83,90.88 "/><path d="M208.82,75.78 L208.68,75.78 L208.53,75.84 "/><path d="M150.624 109.838 a0.730 0.421 120.000 0 1 0.470 -0.841"/><path d="M223.030 108.132 a2.887 1.667 -60.000 0 1 -2.041 -1.179"/><path d="M229.156 102.239 a2.887 1.667 -60.000 0 1 -2.041 3.535"/><path d="M218.783 108.227 a2.887 1.667 -60.000 0 1 -2.041 3.535"/><path d="M127.284 143.678 a0.714 0.412 -60.000 0 1 0.505 -0.874"/><path d="M181.454 143.987 a0.728 0.420 -60.000 0 1 -0.511 0.821"/><path d="M226.094 69.423 a1.448 0.836 -60.000 0 1 0.898 -1.692"/><path d="M227.625 101.355 a2.887 1.667 120.000 0 1 -2.041 3.535"/><path d="M212.659 114.120 a2.887 1.667 -60.000 0 1 -2.041 -1.178"/><path d="M149.093 108.954 a0.730 0.421 120.000 0 1 0.470 -0.841"/><path d="M217.252 107.343 a2.887 1.667 120.000 0 1 -2.041 3.535"/></g></g><g id="Actor_6.0"><g style="stroke:#000020;stroke-width:0.079"><path d="M205.40,120.81 C205.39,120.23 205.39,120.29 205.40,119.78 C205.42,119.61 205.42,119.61 205.44,119.44 C205.50,119.27 205.50,119.26 205.56,119.09 C205.66,118.92 205.66,118.92 205.76,118.76 C205.87,118.62 205.87,118.62 206.00,118.48 C206.13,118.37 206.13,118.37 206.27,118.27 C206.46,118.16 206.46,118.16 206.66,118.05 "/><path d="M206.66,118.05 C206.43,118.17 206.43,118.17 206.21,118.30 C206.08,118.40 206.08,118.40 205.96,118.50 C205.84,118.63 205.84,118.63 205.73,118.76 C205.64,118.91 205.64,118.91 205.55,119.07 C205.49,119.23 205.49,119.23 205.44,119.40 C205.41,119.55 205.41,119.55 205.40,119.71 C205.39,120.26 205.39,120.26 205.40,120.81 "/><path d="M209.61,126.45 C209.59,123.02 209.59,123.04 209.59,119.63 C209.63,119.26 209.63,119.25 209.69,118.88 C209.82,118.48 209.82,118.48 209.97,118.08 C210.18,117.70 210.18,117.70 210.40,117.33 C210.67,117.01 210.67,117.01 210.95,116.69 C211.06,116.60 211.06,116.60 211.17,116.52 "/><path d="M211.17,116.52 C211.05,116.61 211.05,116.61 210.93,116.70 C210.66,117.01 210.66,117.01 210.39,117.33 C210.17,117.70 210.17,117.70 209.96,118.07 C209.82,118.46 209.82,118.46 209.69,118.86 C209.63,119.24 209.63,119.24 209.60,119.63 "/><path d="M216.70,83.18 C216.39,83.30 216.39,83.30 216.08,83.42 C216.00,83.43 216.00,83.43 215.92,83.45 C215.62,83.48 215.62,83.48 215.31,83.51 C214.96,83.48 214.95,83.48 214.59,83.43 C214.26,83.35 214.26,83.35 213.93,83.26 C213.64,83.14 213.64,83.14 213.35,83.00 C211.62,82.01 211.62,82.00 209.89,81.00 C209.85,80.97 209.85,80.97 209.82,80.94 "/><path d="M231.28,74.76 C231.29,92.15 231.29,89.48 231.28,104.19 C231.28,104.32 231.28,104.32 231.27,104.45 C231.24,104.64 231.24,104.64 231.20,104.84 C231.17,104.98 231.17,104.98 231.13,105.11 C231.05,105.32 231.05,105.32 230.96,105.52 C230.90,105.65 230.90,105.65 230.83,105.79 C230.71,105.98 230.71,105.98 230.59,106.17 C230.51,106.28 230.51,106.28 230.42,106.40 C230.27,106.56 230.27,106.56 230.12,106.71 C230.02,106.80 230.02,106.80 229.93,106.89 C229.76,107.00 229.76,107.00 229.60,107.11 C221.10,112.02 221.10,112.01 212.60,116.92 C212.41,117.05 212.42,117.05 212.23,117.18 C212.12,117.27 212.12,117.27 212.02,117.37 C211.85,117.55 211.85,117.55 211.68,117.73 C211.58,117.85 211.58,117.85 211.49,117.98 C211.35,118.19 211.35,118.19 211.22,118.41 C211.14,118.56 211.15,118.56 211.08,118.70 C210.98,118.93 210.98,118.93 210.89,119.16 C210.85,119.31 210.85,119.31 210.81,119.47 C210.77,119.69 210.77,119.69 210.73,119.91 C210.72,120.05 210.72,120.05 210.71,120.19 C210.71,124.62 210.71,127.56 210.71,129.04 "/><path d="M221.00,70.00 C220.68,69.81 220.68,69.81 220.35,69.62 C220.29,69.60 220.29,69.60 220.22,69.58 C220.19,69.58 220.19,69.58 220.15,69.58 C220.09,69.60 220.09,69.60 220.03,69.62 "/><path d="M215.99,109.52 C216.05,109.34 216.05,109.34 216.11,109.17 C216.21,109.00 216.21,109.00 216.31,108.84 C216.42,108.69 216.42,108.69 216.55,108.55 C216.68,108.45 216.68,108.45 216.82,108.35 "/><path d="M216.82,108.35 C216.66,108.46 216.66,108.46 216.51,108.57 C216.39,108.70 216.39,108.70 216.28,108.84 C216.19,108.99 216.19,108.99 216.10,109.15 C216.04,109.31 216.04,109.31 215.99,109.48 "/><path d="M215.80,72.92 C215.83,72.99 215.83,72.99 215.86,73.05 C215.97,73.21 215.97,73.21 216.08,73.36 C216.14,73.42 216.14,73.42 216.22,73.49 C216.99,73.94 216.99,73.94 217.76,74.38 "/><path d="M223.38,104.42 C223.27,104.53 223.27,104.53 223.16,104.63 C222.98,104.77 222.98,104.77 222.79,104.90 C221.89,105.43 221.89,105.43 220.99,105.94 "/><path d="M226.11,99.00 C224.29,100.04 224.29,100.04 222.48,101.09 C222.19,101.30 222.19,101.30 221.90,101.53 C221.71,101.77 221.72,101.78 221.54,102.03 C221.29,102.41 221.29,102.41 221.04,102.78 "/><path d="M224.73,70.74 C224.31,70.98 224.31,70.98 223.89,71.22 C223.82,71.25 223.82,71.25 223.74,71.29 C223.67,71.31 223.67,71.31 223.59,71.32 C223.51,71.33 223.51,71.33 223.42,71.32 C223.35,71.31 223.34,71.31 223.27,71.29 C223.19,71.25 223.19,71.25 223.12,71.22 C222.79,71.03 222.79,71.03 222.47,70.84 "/><path d="M228.13,68.39 C227.36,67.95 227.36,67.95 226.59,67.50 C226.52,67.44 226.52,67.43 226.45,67.37 C226.34,67.22 226.34,67.22 226.23,67.06 C226.20,67.00 226.20,67.00 226.17,66.93 "/><path d="M229.99,63.46 C229.83,63.71 229.82,63.72 229.64,63.95 C229.29,64.23 229.29,64.22 228.93,64.48 C228.53,64.73 228.53,64.73 228.11,64.96 "/><path d="M228.93,106.13 C228.98,106.09 228.98,106.09 229.03,106.05 C229.27,105.78 229.27,105.79 229.50,105.52 C229.68,105.21 229.68,105.21 229.85,104.90 C229.97,104.58 229.97,104.58 230.08,104.25 C230.11,104.06 230.11,104.06 230.13,103.87 "/><path d="M230.13,103.87 C230.11,104.05 230.11,104.05 230.08,104.23 C229.97,104.56 229.97,104.56 229.85,104.89 C229.67,105.21 229.67,105.21 229.49,105.52 C229.27,105.78 229.27,105.78 229.05,106.04 C228.80,106.24 228.79,106.24 228.53,106.43 "/><path d="M229.57,61.54 C229.71,61.61 229.71,61.61 229.85,61.68 C230.08,61.85 230.08,61.85 230.30,62.03 C230.35,62.08 230.35,62.08 230.39,62.13 C230.53,62.35 230.53,62.35 230.67,62.56 C230.72,62.70 230.72,62.71 230.77,62.85 C230.81,63.35 230.81,63.35 230.83,63.85 "/><path d="M230.99,63.69 C231.07,63.84 231.07,63.84 231.16,64.00 C231.21,64.06 231.21,64.06 231.26,64.12 C231.42,64.26 231.42,64.26 231.58,64.39 C231.66,64.45 231.66,64.45 231.74,64.50 "/><path d="M240.07,65.48 C240.07,65.92 240.07,65.92 240.07,66.37 C240.06,66.71 240.06,66.71 240.04,67.04 C240.00,67.31 239.99,67.31 239.94,67.57 C239.88,67.83 239.89,67.83 239.82,68.09 C239.68,68.43 239.68,68.44 239.53,68.78 C239.18,69.33 239.18,69.33 238.81,69.87 C238.38,70.33 238.38,70.34 237.93,70.78 C237.37,71.19 237.36,71.18 236.78,71.58 C236.40,71.80 236.40,71.80 236.02,72.02 "/><path d="M207.55,76.11 C207.59,76.13 207.59,76.13 207.64,76.15 C207.69,76.16 207.69,76.16 207.75,76.17 C207.80,76.17 207.81,76.17 207.86,76.17 C207.92,76.16 207.92,76.16 207.97,76.15 C208.01,76.13 208.02,76.13 208.06,76.11 "/><path d="M225.14,71.24 C225.25,71.30 225.25,71.30 225.37,71.36 C225.51,71.39 225.51,71.39 225.65,71.42 C225.78,71.43 225.78,71.43 225.90,71.43 "/><path d="M225.06,58.04 C225.06,57.99 225.06,57.99 225.07,57.94 C225.09,57.89 225.09,57.89 225.11,57.84 C225.13,57.79 225.13,57.79 225.16,57.74 C225.20,57.70 225.20,57.70 225.23,57.66 C225.27,57.63 225.27,57.63 225.31,57.60 "/><path d="M225.63,70.38 C225.47,70.44 225.47,70.44 225.32,70.50 C225.21,70.56 225.21,70.56 225.11,70.62 C225.03,70.69 225.03,70.69 224.95,70.77 "/><path d="M214.59,76.75 C214.66,76.68 214.66,76.67 214.74,76.61 C214.84,76.55 214.84,76.55 214.95,76.49 C215.10,76.43 215.10,76.43 215.26,76.37 "/><path d="M205.40,121.99 L205.40,121.94 L205.40,122.58 "/><path d="M205.40,121.94 L205.40,120.81 L205.40,121.94 "/><path d="M205.66,118.92 L206.91,119.65 "/><path d="M206.66,118.05 L206.91,117.90 "/><path d="M210.20,128.92 L207.75,127.50 "/><path d="M208.52,75.19 L207.50,75.78 L207.43,75.84 L207.40,75.90 L207.40,76.49 L207.40,75.96 "/><path d="M207.40,75.90 L207.40,75.96 L207.43,76.03 L207.55,76.11 "/><path d="M207.81,76.25 L207.81,76.17 "/><path d="M209.59,75.81 L209.08,75.52 L208.06,76.11 "/><path d="M209.60,127.65 L209.61,126.45 L209.60,127.65 L209.64,127.79 "/><path d="M209.29,126.62 L209.61,126.80 "/><path d="M209.63,119.67 L209.61,126.45 "/><path d="M216.70,83.19 L216.70,83.18 "/><path d="M209.82,80.94 L209.64,80.63 L209.59,80.31 L209.59,80.16 L209.59,80.28 "/><path d="M209.59,80.16 L209.59,76.77 L209.59,77.90 "/><path d="M209.59,76.76 L209.59,76.22 L209.59,76.77 L209.59,76.76 "/><path d="M209.08,75.52 L209.08,75.93 "/><path d="M209.59,76.22 L209.59,75.46 "/><path d="M209.54,75.19 L209.69,75.28 L209.63,75.34 L209.59,75.40 L209.59,75.46 L209.63,75.52 L209.69,75.58 L212.93,77.45 "/><path d="M210.20,74.99 L209.69,75.28 "/><path d="M209.59,75.65 L209.59,75.40 "/><path d="M210.19,117.71 L210.82,118.07 "/><path d="M211.17,116.52 L211.48,116.29 L211.17,116.52 "/><path d="M211.20,128.93 L232.31,116.75 "/><path d="M211.56,116.23 L211.48,116.29 L211.59,116.21 L211.56,116.23 "/><path d="M211.59,116.21 L228.56,106.42 "/><path d="M214.30,76.76 L211.23,74.99 "/><path d="M214.70,76.53 L215.69,75.96 L214.30,76.76 "/><path d="M215.48,83.49 L215.48,78.06 "/><path d="M215.55,74.92 L215.55,74.52 L215.55,74.92 L215.58,75.07 L215.68,75.27 L215.73,75.31 "/><path d="M215.55,74.52 L215.55,73.39 L215.55,74.52 "/><path d="M221.00,70.01 L220.34,69.62 L221.00,70.00 "/><path d="M220.03,69.62 L215.94,71.98 L215.73,72.13 L215.59,72.33 L215.55,72.50 L215.55,73.39 L215.55,72.50 "/><path d="M215.96,109.79 L215.99,109.52 L215.95,109.79 L215.95,110.29 "/><path d="M215.99,109.48 L215.99,109.52 "/><path d="M216.46,109.15 L216.69,109.28 "/><path d="M216.70,83.18 L217.04,83.00 L223.60,79.21 L222.47,79.86 "/><path d="M215.69,75.96 L216.82,75.31 L215.69,75.96 "/><path d="M235.80,65.72 L216.76,76.71 "/><path d="M215.96,73.19 L215.96,74.53 "/><path d="M218.72,73.86 L215.73,72.13 "/><path d="M216.82,108.35 L217.14,108.16 "/><path d="M216.92,83.07 L216.94,83.06 "/><path d="M216.82,75.31 L218.56,74.30 "/><path d="M217.77,74.76 L217.76,74.14 L217.79,74.07 "/><path d="M217.76,74.64 L217.76,74.76 "/><path d="M217.76,74.38 L217.76,74.21 "/><path d="M218.03,77.45 L237.07,66.45 "/><path d="M217.95,74.65 L218.41,74.38 "/><path d="M218.41,74.39 L218.56,74.30 L218.63,74.24 "/><path d="M218.61,72.11 L218.46,72.54 L218.46,72.82 "/><path d="M220.99,106.65 L226.37,103.55 L225.96,104.63 "/><path d="M223.81,103.71 L223.48,104.22 L223.38,104.42 "/><path d="M221.04,102.78 L220.99,103.02 "/><path d="M221.00,70.00 L221.34,70.20 "/><path d="M221.50,72.93 L221.50,72.61 L221.35,72.17 "/><path d="M221.39,70.22 L222.47,70.84 L222.26,70.72 "/><path d="M223.89,71.22 L224.73,70.74 "/><path d="M222.47,70.84 L223.12,71.22 "/><path d="M222.79,104.90 L222.62,105.00 "/><path d="M223.63,104.06 L223.42,104.37 L223.33,104.47 "/><path d="M223.38,104.42 L223.52,104.28 L223.48,104.32 "/><path d="M222.85,103.62 L222.76,103.58 "/><path d="M223.90,79.03 L223.60,79.21 L226.72,77.38 L233.76,73.33 L223.90,79.03 "/><path d="M224.73,70.74 L225.86,70.09 L224.73,70.74 "/><path d="M225.06,78.36 L225.06,99.60 "/><path d="M225.06,70.55 L225.06,58.04 "/><path d="M228.96,60.00 L225.13,57.79 "/><path d="M225.31,57.60 L225.82,57.31 "/><path d="M226.37,103.55 L226.76,103.78 "/><path d="M225.86,70.09 L226.98,69.44 L225.86,70.09 "/><path d="M226.98,69.44 L228.11,68.79 L226.98,69.44 "/><path d="M225.93,68.90 L225.93,68.87 L225.95,69.08 L226.06,69.28 L226.10,69.31 "/><path d="M225.93,68.87 L225.93,66.61 L225.93,67.74 "/><path d="M226.33,67.20 L226.33,68.52 "/><path d="M229.09,67.87 L226.10,66.14 "/><path d="M227.20,65.48 L228.11,64.96 L226.31,65.99 L226.10,66.14 L225.96,66.34 L225.93,66.51 L225.93,66.61 L225.93,66.54 "/><path d="M226.05,66.54 L226.07,66.50 "/><path d="M226.84,57.31 L228.28,58.13 L228.27,54.37 "/><path d="M227.61,99.30 L227.63,99.31 "/><path d="M228.11,68.79 L228.93,68.31 "/><path d="M228.11,64.96 L228.93,64.48 "/><path d="M228.71,106.30 L228.55,106.41 "/><path d="M229.00,68.25 L228.93,68.31 L228.13,68.77 L228.13,68.20 "/><path d="M228.16,68.08 L228.13,68.16 L228.13,68.47 "/><path d="M228.13,68.30 L228.13,68.22 "/><path d="M228.14,68.66 L228.14,68.77 "/><path d="M228.98,66.12 L228.83,66.55 L228.83,66.83 "/><path d="M235.80,60.59 L230.52,57.54 L228.89,58.48 L228.28,58.13 "/><path d="M228.27,55.32 L228.27,54.24 "/><path d="M228.48,54.59 L235.80,58.82 "/><path d="M228.73,53.86 L228.48,54.01 "/><path d="M230.31,105.58 L229.68,105.21 "/><path d="M230.16,103.63 L230.13,103.87 L230.17,103.60 "/><path d="M230.16,103.63 L230.16,75.41 "/><path d="M230.14,62.83 L229.99,63.46 "/><path d="M237.07,58.08 L229.75,53.86 "/><path d="M231.02,64.13 L231.02,64.61 "/><path d="M230.94,63.23 L230.96,63.55 L230.99,63.69 "/><path d="M231.74,64.50 L234.83,66.28 "/><path d="M231.87,66.94 L231.87,66.62 L231.72,66.19 "/><path d="M234.20,66.64 L231.67,65.17 "/><path d="M233.76,73.33 L236.78,71.58 "/><path d="M235.31,112.56 L235.31,72.43 "/><path d="M240.06,66.37 L240.07,65.48 L240.08,62.28 "/><path d="M214.59,76.75 L214.54,76.86 "/><path d="M224.95,70.77 L224.92,70.86 L224.92,70.92 L224.98,71.09 L225.14,71.24 "/><path d="M228.48,54.01 L228.34,54.11 L228.27,54.24 L228.27,54.37 L228.34,54.49 L228.48,54.59 "/><path d="M231.869 66.937 a1.523 0.879 -180.000 1 1 -3.035 -0.108"/><path d="M235.798 60.589 a8.445 4.876 -180.000 0 1 2.331 2.555"/><path d="M208.520 75.194 a0.722 0.417 -180.000 0 1 1.021 0.000"/><path d="M215.258 76.371 a0.920 0.531 -180.000 0 1 1.126 0.562"/><path d="M225.630 70.383 a0.920 0.531 -180.000 0 1 1.127 0.553"/><path d="M237.073 58.085 a10.250 5.918 -180.000 0 1 0.000 8.369"/><path d="M211.203 128.929 a0.722 0.417 -180.000 0 1 -0.998 -0.013"/><path d="M231.666 65.172 a2.885 1.666 -180.000 0 1 -0.834 -1.321"/><path d="M228.732 53.858 a0.722 0.417 -180.000 0 1 1.021 0.000"/><path d="M210.204 74.988 a0.723 0.417 -180.000 0 1 1.022 -0.000"/><path d="M221.497 72.926 a1.523 0.879 -0.000 1 1 -3.035 -0.110"/><path d="M226.109 98.996 a3.609 2.084 60.000 0 1 1.516 0.312"/><path d="M235.798 58.822 a8.445 4.876 -0.000 0 1 0.000 6.895"/><path d="M216.759 76.709 a1.805 1.042 -0.000 0 1 -2.552 0.000"/><path d="M218.035 77.446 a3.609 2.084 -180.000 0 1 -5.104 0.000"/><path d="M225.823 57.306 a0.723 0.417 -0.000 0 1 1.022 0.000"/><path d="M235.308 112.561 a10.250 5.918 -180.000 0 1 -3.002 4.184"/><ellipse rx="1.38" ry="0.80" transform="translate(230.346 66.218) rotate(-180.000)"/><path d="M232.778 63.925 a1.191 0.688 -0.000 1 1 1.863 -0.002"/><path d="M214.838 76.812 a0.740 0.427 -0.000 0 1 1.356 0.143"/><ellipse rx="1.46" ry="0.84" transform="translate(233.708 63.274) rotate(-0.000)"/><ellipse rx="1.38" ry="0.80" transform="translate(219.974 72.206) rotate(-180.000)"/><path d="M225.229 71.290 a0.740 0.427 -180.000 1 1 1.350 -0.250"/></g></g><g id="Actor_7.0"><g style="stroke:#000020;stroke-width:0.079"><path d="M65.16,135.36 C65.43,134.87 65.43,134.87 65.72,134.38 C65.87,134.23 65.88,134.23 66.04,134.08 C66.12,134.04 66.12,134.04 66.20,133.99 C66.27,133.97 66.27,133.97 66.34,133.95 "/><path d="M68.28,108.93 C68.20,108.88 68.20,108.88 68.12,108.83 C67.94,108.67 67.94,108.66 67.76,108.49 C67.54,108.32 67.54,108.32 67.31,108.15 C66.88,107.88 66.87,107.89 66.43,107.63 C66.35,107.59 66.35,107.59 66.27,107.56 C66.15,107.52 66.15,107.52 66.04,107.50 C65.88,107.47 65.88,107.47 65.72,107.45 "/><path d="M65.64,107.61 C65.73,107.74 65.73,107.74 65.83,107.86 C65.95,107.98 65.95,107.98 66.08,108.10 C66.44,108.31 66.44,108.31 66.80,108.52 C67.04,108.64 67.04,108.64 67.28,108.75 C67.41,108.80 67.41,108.80 67.55,108.85 C67.79,108.92 67.79,108.92 68.03,108.99 C68.08,109.02 68.08,109.02 68.13,109.05 "/><path d="M68.27,109.13 C68.28,121.08 68.28,121.08 68.27,133.02 C68.24,133.20 68.23,133.20 68.19,133.37 C68.11,133.54 68.11,133.54 68.03,133.71 C67.92,133.84 67.92,133.84 67.81,133.95 C67.68,134.04 67.68,134.05 67.55,134.13 C67.42,134.19 67.42,134.19 67.29,134.23 C67.16,134.25 67.16,134.25 67.02,134.25 C66.97,134.24 66.96,134.24 66.91,134.23 C66.77,134.16 66.76,134.16 66.63,134.08 "/><path d="M66.63,134.08 C66.86,134.22 66.86,134.22 67.10,134.36 C67.15,134.38 67.15,134.38 67.20,134.40 C67.25,134.41 67.25,134.41 67.31,134.42 "/><path d="M67.53,134.38 C67.65,134.32 67.65,134.32 67.76,134.26 C67.86,134.15 67.86,134.15 67.96,134.04 C68.04,133.91 68.04,133.90 68.12,133.77 C68.20,133.59 68.20,133.59 68.28,133.42 C68.32,133.25 68.32,133.25 68.36,133.07 C68.37,132.92 68.36,132.92 68.36,132.76 C68.35,132.69 68.35,132.69 68.33,132.63 C68.30,132.56 68.30,132.56 68.27,132.50 "/><path d="M146.81,63.69 C147.10,63.52 147.10,63.52 147.39,63.35 C147.52,63.23 147.52,63.23 147.65,63.10 C147.76,62.95 147.76,62.95 147.87,62.79 C147.92,62.64 147.92,62.64 147.97,62.48 C147.98,62.33 147.98,62.33 147.99,62.17 C147.99,62.12 147.98,62.12 147.98,62.06 C147.96,61.97 147.97,61.97 147.95,61.88 C147.89,61.76 147.89,61.76 147.84,61.65 C147.80,61.60 147.80,61.60 147.76,61.56 C147.71,61.53 147.71,61.53 147.67,61.49 "/><path d="M147.67,61.49 C147.81,61.58 147.81,61.58 147.96,61.66 C148.01,61.70 148.01,61.70 148.05,61.73 C148.08,61.77 148.09,61.77 148.12,61.81 "/><path d="M148.20,62.03 C148.21,62.14 148.21,62.16 148.20,62.29 C148.16,62.43 148.16,62.43 148.12,62.57 C148.04,62.71 148.04,62.71 147.96,62.84 C147.85,63.00 147.85,63.00 147.74,63.15 C147.61,63.28 147.61,63.28 147.48,63.40 C147.35,63.48 147.35,63.48 147.21,63.56 C147.14,63.58 147.14,63.58 147.08,63.59 C147.01,63.60 147.01,63.60 146.94,63.61 "/><path d="M147.86,59.48 C147.57,59.96 147.57,59.97 147.30,60.46 C147.24,60.66 147.24,60.67 147.20,60.88 C147.19,60.98 147.19,60.97 147.19,61.08 "/><path d="M137.26,71.66 C137.07,71.69 137.07,71.69 136.89,71.72 C136.57,71.87 136.57,71.87 136.25,72.03 C135.94,72.29 135.94,72.29 135.63,72.57 "/><path d="M116.58,95.97 C116.63,95.84 116.63,95.84 116.67,95.71 C116.87,95.27 116.87,95.27 117.08,94.83 C117.25,94.54 117.25,94.54 117.43,94.26 "/><path d="M141.15,76.01 C141.10,76.08 141.10,76.08 141.05,76.16 C140.89,76.46 140.89,76.46 140.74,76.77 C140.70,76.87 140.70,76.87 140.66,76.97 C140.55,77.38 140.55,77.38 140.45,77.78 "/><path d="M138.16,80.44 C138.06,80.71 138.06,80.71 137.94,80.98 C137.71,81.36 137.72,81.37 137.47,81.75 C137.19,82.07 137.19,82.07 136.89,82.38 C136.58,82.60 136.58,82.60 136.25,82.81 "/><path d="M136.89,78.04 C136.57,78.18 136.57,78.18 136.25,78.35 C135.94,78.61 135.94,78.61 135.63,78.88 C135.57,78.95 135.57,78.95 135.52,79.02 C135.31,79.31 135.30,79.31 135.10,79.60 C134.95,79.87 134.95,79.87 134.81,80.16 "/><path d="M64.95,135.24 L65.16,135.36 "/><path d="M66.34,133.95 L66.43,133.97 L66.63,134.08 L66.14,133.80 L66.05,133.79 L65.99,133.81 L65.83,133.96 L65.07,135.31 L64.86,135.19 L64.86,107.16 L65.50,107.53 L65.45,107.50 "/><path d="M65.07,135.31 L65.07,107.28 "/><path d="M65.16,135.36 L66.99,134.30 "/><path d="M68.26,108.92 L68.28,108.93 "/><path d="M65.72,107.45 L64.96,107.01 L147.56,59.31 L147.77,59.43 L65.16,107.13 "/><path d="M65.50,107.53 L65.64,107.61 "/><path d="M68.13,109.05 L65.50,107.53 "/><path d="M65.88,107.91 L65.88,133.91 "/><path d="M66.15,134.02 L66.16,134.01 "/><path d="M68.13,109.05 L68.27,109.13 "/><path d="M67.31,134.42 L67.53,134.38 "/><path d="M65.72,107.45 L67.45,108.45 L67.39,108.42 L67.31,108.42 L67.28,108.35 "/><path d="M65.53,107.55 L65.63,107.61 "/><path d="M67.76,134.26 L116.08,106.36 "/><path d="M67.24,108.43 L67.45,108.55 "/><path d="M68.26,108.92 L67.45,108.45 "/><path d="M67.19,108.51 L67.27,108.50 L67.30,108.57 L67.37,108.61 "/><path d="M113.75,104.95 L68.27,131.20 "/><path d="M113.50,104.80 L68.27,130.91 "/><path d="M68.36,108.98 L68.89,108.67 L68.36,108.98 L68.28,108.93 "/><path d="M67.88,108.91 L67.82,108.87 "/><path d="M76.71,121.41 L76.71,125.25 L69.36,129.50 "/><path d="M76.91,125.37 L76.91,121.29 L69.35,125.65 L69.36,129.73 L76.91,125.37 L76.71,125.25 "/><path d="M69.35,124.27 L76.71,120.03 L76.91,120.14 L69.35,124.51 L69.35,120.42 L76.91,116.06 L76.91,120.14 "/><path d="M147.34,63.38 L68.89,108.67 "/><path d="M76.71,120.03 L76.71,116.18 "/><path d="M79.85,112.84 L79.85,110.30 L88.88,105.08 L88.88,108.83 L80.89,113.45 L79.85,112.84 L79.91,112.88 "/><path d="M80.38,121.69 L80.81,121.59 L81.02,121.71 L81.63,122.29 L87.09,119.14 L87.70,117.85 L87.50,117.73 L86.89,119.02 L87.09,119.14 "/><path d="M87.70,117.85 L88.34,117.26 L88.34,114.67 L80.38,119.27 L80.38,121.86 L81.02,121.71 "/><path d="M88.88,108.83 L88.68,108.71 L80.68,113.33 "/><path d="M81.48,122.15 L86.89,119.02 "/><path d="M88.34,117.26 L88.14,117.14 L87.50,117.73 "/><path d="M88.14,117.14 L88.14,114.79 "/><path d="M88.68,108.71 L88.68,105.20 "/><path d="M94.37,115.29 L101.92,110.93 L101.92,106.85 L94.37,111.21 L94.37,115.29 "/><path d="M101.92,110.93 L101.72,110.81 L94.37,115.06 "/><path d="M94.37,109.83 L101.72,105.59 L101.92,105.71 L94.37,110.07 L94.37,105.98 L101.92,101.62 L101.92,105.71 "/><path d="M101.72,110.81 L101.72,106.97 "/><path d="M101.72,105.59 L101.72,101.74 "/><path d="M112.37,104.29 L112.37,100.20 L104.81,104.56 L104.81,108.65 L112.37,104.29 L112.16,104.17 L104.81,108.41 "/><path d="M104.81,103.58 L112.16,99.34 L112.37,99.45 L112.37,95.37 L104.81,99.73 L104.81,103.82 L112.37,99.45 "/><path d="M104.81,98.56 L112.16,94.32 L112.37,94.44 L104.81,98.80 L104.81,92.14 L112.37,87.78 L112.37,94.44 "/><path d="M112.16,104.17 L112.16,100.32 "/><path d="M112.16,99.34 L112.16,95.49 "/><path d="M112.16,94.32 L112.16,87.89 "/><path d="M116.42,98.04 L116.38,97.92 L116.38,97.64 "/><path d="M116.67,88.54 L116.64,88.45 "/><path d="M117.38,84.15 L117.23,84.36 L117.07,84.68 "/><path d="M120.60,82.09 L120.80,82.18 "/><path d="M146.83,87.12 L147.69,87.62 L145.98,86.63 L145.83,86.50 L145.74,86.48 L121.40,100.53 "/><path d="M145.44,86.35 L121.15,100.38 "/><path d="M121.62,94.36 L121.65,94.11 "/><path d="M121.85,94.22 L121.82,94.48 "/><path d="M121.70,85.16 L121.50,85.69 "/><path d="M121.50,85.03 L121.31,85.53 "/><path d="M123.73,101.94 L147.99,87.93 L147.97,87.85 L147.87,87.72 L147.69,87.62 "/><path d="M133.93,91.45 L133.79,91.53 L133.79,86.29 L139.04,83.25 L139.04,88.50 L133.93,91.45 "/><path d="M133.79,91.30 L138.84,88.38 L138.84,83.37 "/><path d="M134.50,81.96 L134.71,82.54 L135.10,82.89 L135.51,82.96 "/><path d="M134.50,81.96 L134.67,82.42 "/><path d="M134.69,74.16 L134.71,74.09 "/><path d="M135.52,72.72 L135.63,72.57 "/><path d="M137.48,71.68 L137.27,71.69 "/><path d="M138.84,88.38 L139.04,88.50 "/><path d="M137.93,80.35 L138.04,80.03 L138.08,79.77 "/><path d="M138.15,80.43 L138.25,80.16 L138.28,79.88 "/><path d="M141.02,85.74 L140.66,85.42 L140.47,84.88 "/><path d="M140.63,79.01 L140.66,79.10 L140.69,79.13 "/><path d="M140.45,78.52 L140.49,78.62 "/><path d="M140.64,70.73 L140.66,70.65 "/><path d="M141.59,69.13 L141.16,69.70 "/><path d="M143.21,68.26 L143.43,68.24 "/><path d="M144.00,81.46 L143.67,80.96 "/><path d="M144.20,81.58 L144.19,81.56 "/><path d="M144.10,76.99 L144.20,76.72 L144.31,75.93 "/><path d="M143.88,76.91 L144.00,76.60 L144.03,76.33 "/><path d="M145.56,64.40 L145.56,86.14 "/><path d="M145.82,64.26 L145.82,86.35 L145.64,86.15 L145.58,86.13 "/><path d="M145.56,86.44 L145.48,86.42 L145.74,86.48 "/><path d="M145.48,86.42 L145.43,86.38 "/><path d="M145.82,86.35 L145.88,86.42 L146.07,86.47 L147.06,87.04 L146.91,86.96 "/><path d="M147.36,63.37 L146.81,63.69 "/><path d="M148.12,61.81 L148.20,62.03 "/><path d="M147.71,87.63 L147.77,87.67 L147.54,87.53 "/><path d="M147.71,87.63 L147.67,87.60 "/><path d="M147.80,87.68 L147.77,87.67 L147.83,87.70 L147.81,87.69 "/><path d="M147.78,87.46 L147.92,87.54 L147.74,87.44 L147.78,87.46 "/><path d="M147.14,87.09 L147.06,87.04 "/><path d="M147.09,87.06 L147.06,87.04 L147.43,87.26 "/><path d="M147.52,87.31 L147.74,87.44 "/><path d="M147.92,87.54 L147.96,87.56 L148.12,87.58 L148.20,87.57 L148.20,62.29 "/><path d="M147.38,63.35 L147.39,63.35 "/><path d="M147.86,61.60 L147.86,59.48 "/><path d="M147.19,61.08 L147.20,61.02 L147.20,61.05 "/><path d="M147.20,61.04 L147.23,61.21 L147.30,61.28 L146.97,61.08 L146.94,60.98 L146.98,60.76 L147.77,59.43 L147.86,59.48 "/><path d="M147.67,61.49 L147.30,61.28 "/><path d="M148.20,62.20 L148.20,62.03 "/><path d="M141.05,73.14 L140.66,72.78 L140.45,72.20 L140.45,71.47 L140.64,70.69 "/><path d="M140.66,70.65 L140.96,69.99 L141.15,69.69 "/><path d="M67.28,108.36 L67.20,108.51 "/><path d="M134.50,75.64 L134.71,76.22 L135.10,76.57 L135.63,76.67 L136.26,76.49 "/><path d="M134.50,75.64 L134.50,74.90 L134.68,74.16 "/><path d="M135.50,72.71 L135.04,73.38 "/><path d="M67.49,108.47 L67.47,108.53 L67.40,108.63 "/><path d="M116.67,95.71 L116.38,96.87 L116.35,97.62 "/><path d="M116.57,85.81 L116.67,85.51 L117.05,84.67 "/><path d="M116.67,85.51 L116.38,86.67 L116.38,87.71 L116.64,88.51 "/><path d="M117.23,89.04 L116.67,88.54 "/><path d="M120.60,82.09 L119.77,82.15 "/><path d="M140.67,79.12 L141.05,79.46 "/><path d="M144.12,77.00 L143.90,77.54 "/><path d="M140.64,79.10 L140.47,78.63 "/><path d="M136.25,82.81 L135.63,82.99 L135.50,82.99 "/><path d="M138.31,79.89 L138.35,79.37 L138.25,78.70 L137.94,78.23 L137.47,78.00 L136.89,78.04 "/><path d="M145.58,86.13 L145.53,86.16 L145.46,86.26 L145.43,86.38 "/><path d="M141.05,82.48 L140.66,83.29 L140.58,83.55 "/><path d="M141.54,85.86 L141.10,85.78 "/><path d="M121.649 94.119 a3.898 2.251 -60.000 0 1 -2.866 4.835"/><path d="M120.946 92.401 a3.898 2.251 -60.000 0 1 0.704 1.718"/><path d="M141.052 73.137 a2.743 1.584 -60.000 0 1 -0.600 -0.933"/><path d="M143.430 68.243 a2.743 1.584 -60.000 1 1 -2.377 4.894"/><path d="M141.588 69.128 a2.743 1.584 -60.000 0 1 1.842 -0.884"/><path d="M137.500 71.631 a2.743 1.584 -60.000 0 1 -2.474 4.875"/><path d="M137.861 80.590 a2.743 1.584 120.000 0 1 -2.833 2.235"/><path d="M137.780 78.146 a2.743 1.584 120.000 0 1 0.357 1.354"/><path d="M134.708 74.086 a2.743 1.584 120.000 0 1 0.797 -1.373"/><path d="M137.480 71.680 a2.743 1.584 120.000 0 1 -1.224 4.810"/><path d="M143.455 68.196 a2.743 1.584 120.000 0 1 -2.475 4.875"/><path d="M143.997 81.464 a2.741 1.583 -60.000 0 1 -3.026 4.236"/><path d="M117.427 94.260 a3.899 2.251 -60.000 0 1 4.428 -0.043"/><path d="M121.854 94.217 a3.899 2.251 -60.000 0 1 -2.871 4.858"/><path d="M121.606 85.484 a3.898 2.250 -60.000 0 1 -4.377 3.557"/><path d="M117.230 84.356 a3.898 2.250 -60.000 0 1 3.373 -2.269"/><path d="M120.603 82.087 a3.898 2.250 -60.000 0 1 1.097 3.069"/><path d="M144.117 77.000 a2.743 1.584 -60.000 0 1 -3.065 2.455"/><path d="M140.453 78.523 a2.743 1.584 -60.000 0 1 0.285 -1.751"/><path d="M141.148 76.008 a2.743 1.584 -60.000 0 1 3.141 0.220"/><path d="M134.501 81.959 a2.743 1.584 -60.000 0 1 1.014 -2.940"/><path d="M144.195 81.572 a2.736 1.580 120.000 0 1 -3.179 4.168"/><path d="M140.468 84.883 a2.736 1.580 120.000 0 1 0.586 -2.405"/><path d="M141.055 82.479 a2.736 1.580 120.000 0 1 3.140 -0.907"/><path d="M121.363 85.485 a3.898 2.251 -60.000 0 1 -4.200 3.496"/><path d="M120.742 82.077 a3.898 2.251 -60.000 0 1 0.758 2.949"/><path d="M143.875 76.992 a2.743 1.584 120.000 0 1 -2.900 2.396"/><path d="M143.629 74.620 a2.743 1.584 120.000 0 1 0.445 1.575"/></g></g><g/><g id="paperID" visibility="hidden" opacity="0.00" transform="scale(0.000100)"><path style="stroke:#000000;stroke-width:0.500;fill:#e6e6e6;fill-rule:evenodd" d="M-2000.00,-2000.00L2297.00,-2000.00L2297.00,2210.00L-2000.00,2210.00zM0.00,0.00L297.00,0.00L297.00,210.00L0.00,210.00z"/><path style="fill:#000000;fill-opacity:0.118" d="M3.00,210.00L297.00,210.00L297.00,3.00L300.00,3.00L300.00,213.00L3.00,213.00z"/></g><g id="hotspot.0" ident="" onmouseover="ShowHotSpot(evt,'0')" onmouseout="HideHotSpot(evt,'0')" onmousemove="ShowToolTip(evt,'0',&quot;Case Corner Angle 1&quot;)" opacity="0"><path style="fill:#00ff00;fill-rule:evenodd" d="M115.77,123.87L120.47,126.29L121.52,126.29L122.31,125.80L123.25,125.78L123.67,126.19L123.66,179.44L120.48,181.37L115.65,182.82L113.40,182.81L111.80,180.48L111.46,177.68L110.23,175.77L110.23,173.48L111.46,171.57L111.45,128.97L110.28,127.40L110.26,124.79L111.69,123.87L114.16,123.47z"/></g><g id="hotspot.1" ident="" onmouseover="ShowHotSpot(evt,'1')" onmouseout="HideHotSpot(evt,'1')" onmousemove="ShowToolTip(evt,'1',&quot;Case PCI Corner v2&quot;)" opacity="0"><path style="fill:#00ff00;fill-rule:evenodd" d="M238.79,59.39L239.92,61.40L239.91,67.84L239.51,69.01L238.29,70.54L235.46,72.42L235.08,113.69L233.46,116.00L211.09,129.03L210.09,128.99L208.04,127.77L207.96,127.42L209.69,126.41L210.02,118.09L211.49,116.42L229.32,105.96L230.10,104.39L230.11,75.56L227.73,76.87L227.35,102.82L226.19,104.41L222.89,106.60L221.31,107.15L221.41,102.38L222.48,101.09L225.01,99.69L224.96,78.66L224.49,78.64L216.22,83.44L214.34,83.44L209.92,81.19L209.65,76.35L208.87,75.89L208.34,75.93L207.67,76.49L207.67,75.74L208.75,75.14L211.24,75.13L214.02,76.75L214.58,76.75L217.59,74.91L217.53,74.41L216.77,73.96L215.95,74.54L215.94,72.15L220.31,69.67L223.01,71.28L224.07,71.29L225.01,70.62L225.35,57.60L226.95,57.46L228.16,58.00L228.50,54.05L229.69,53.91zM216.30,109.88L216.36,108.63L216.76,108.55zM206.82,121.56L205.74,122.49L205.73,118.92L206.93,117.98zM228.14,68.65L226.55,69.84L226.55,68.18L227.34,68.05z"/></g><g id="hotspot.2" ident="" onmouseover="ShowHotSpot(evt,'2')" onmouseout="HideHotSpot(evt,'2')" onmousemove="ShowToolTip(evt,'2',&quot;IO Cutout Plate&quot;)" opacity="0"><path style="fill:#00ff00;fill-rule:evenodd" d="M147.97,61.81L148.00,87.50L147.56,88.24L72.15,131.87L65.08,135.44L65.08,107.12L147.62,59.46zM144.11,68.84L143.65,71.37L142.34,72.80L140.77,72.96L140.88,70.16L141.94,68.88L142.74,68.45L143.68,68.42zM138.20,72.80L137.76,74.51L136.45,76.34L134.90,76.48L134.55,75.99L134.59,74.50L136.20,72.16L137.75,72.02zM144.11,75.13L143.65,77.65L142.34,79.09L140.77,79.25L140.88,76.45L141.94,75.16L142.74,74.73L143.68,74.70zM138.20,79.08L137.76,80.80L136.45,82.62L134.90,82.77L134.55,82.28L134.59,80.79L136.20,78.45L137.75,78.31zM144.10,81.84L143.64,83.93L142.39,85.42L140.77,85.54L140.93,82.78L141.93,81.44L142.75,81.01L143.63,81.04zM121.68,83.82L121.27,85.91L119.97,87.75L118.39,88.94L116.95,88.92L116.52,88.16L116.52,86.27L118.13,83.17L119.97,82.21L120.89,82.17zM138.54,88.65L134.23,91.05L134.10,86.17L138.59,83.82zM121.68,94.04L121.27,96.13L119.97,97.97L118.39,99.16L116.95,99.14L116.52,98.37L116.52,96.49L118.14,93.39L119.55,92.43L120.91,92.40zM111.82,94.53L105.16,98.52L105.03,92.06L111.34,88.45L111.83,88.49zM111.83,99.65L106.61,102.67L105.03,103.22L105.16,99.66L111.34,95.92L111.82,95.94zM111.87,104.41L105.16,108.34L105.16,104.37L111.87,100.71zM101.66,105.59L94.55,109.90L94.55,105.94L101.64,101.88zM79.89,113.02L80.01,110.26L88.69,105.42L88.69,108.73L81.22,113.08L80.38,113.36zM101.61,111.04L94.55,115.01L94.43,111.32L101.12,107.31L101.62,107.35zM80.67,121.65L80.67,119.17L87.38,115.17L87.85,115.19L87.88,117.35L86.67,119.28L82.20,121.92L81.16,121.99zM76.51,120.12L69.80,124.05L69.68,120.36L76.50,116.41zM76.35,125.45L70.98,128.72L69.67,129.15L69.80,125.58L75.98,121.85L76.47,121.88z"/></g><g id="hotspot.3" ident="" onmouseover="ShowHotSpot(evt,'3')" onmouseout="HideHotSpot(evt,'3')" onmousemove="ShowToolTip(evt,'3',&quot;PC Case Front&quot;)" opacity="0"><path style="fill:#00ff00;fill-rule:evenodd" d="M228.14,68.65L226.55,69.84L226.55,68.18L227.34,68.05zM217.53,74.41L217.59,74.90L216.59,75.63L215.79,75.70L215.94,74.50L216.76,73.97zM209.65,76.35L209.92,81.19L211.62,82.17L210.81,84.31L210.83,113.44L215.79,110.51L217.14,108.32L217.51,82.76L220.55,80.99L221.04,81.03L221.31,107.15L222.89,106.60L226.19,104.41L227.35,102.82L227.73,76.87L230.11,75.56L230.10,104.39L229.32,105.96L211.49,116.42L210.02,118.09L209.69,126.41L181.76,142.47L181.41,144.48L151.39,162.04L150.38,161.98L149.93,161.56L149.03,161.55L124.01,175.91L123.66,126.20L122.71,125.45L149.15,110.26L149.54,108.29L179.64,90.87L180.20,91.22L182.06,91.30L208.34,75.92zM206.93,121.29L206.49,122.03L127.55,167.66L127.43,143.14L206.41,97.49L206.90,97.53z"/></g><g id="ToolTip" visibility="hidden" opacity="0" transform="translate(0,0)"><rect id="ToolTipShadow" opacity="0.20" fill="black" stroke="none" x="0" y="0" width="30" height="8"/><rect id="ToolTipBG" fill="#ffffe1" stroke="black" x="0" y="0" width="30" height="8"/><text xml:space="preserve" id="ToolTipText" fill="black" x="0" y="0" width="30" height="8">tooltip</text></g></g></svg>
