<?xml version="1.0" encoding="UTF-8" standalone="no"?>
<svg xmlns="http://www.w3.org/2000/svg" xmlns:xlink="http://www.w3.org/1999/xlink" width="297.000mm" height="210.000mm" viewBox="0.000000 0.000000 297.000000 210.000000" stroke-linejoin="round" stroke-linecap="round" fill="none" fill-rule="evenodd"><desc>Composer Export</desc><script type="text/ecmascript"><![CDATA[
if(typeof(top) != "undefined")
{
	top.ShowPaper = ShowPaper;
}
function ShowHotSpot(evt,hotspotid)
{
	var svgDocument = evt.target.ownerDocument;
	var strId = "hotspot."+hotspotid;
	var hotspot = svgDocument.getElementById(strId);
	if(hotspot)
		hotspot.setAttribute("opacity",".5");
}
function HideHotSpot(evt,hotspotid)
{
	var svgDocument = evt.target.ownerDocument;
	var strId = "hotspot."+hotspotid;
	var hotspot = svgDocument.getElementById(strId);
	if(hotspot)
		hotspot.setAttribute("opacity","0");

	var toolTip = svgDocument.getElementById('ToolTip');
	if(toolTip)
		toolTip.setAttribute("visibility","hidden");
}
function ShowToolTip(evt,hotspotid,strTooltip)
{
	if(strTooltip=="")
	return;

	// change text
	var svgDocument = evt.target.ownerDocument;
	var tiptext = svgDocument.getElementById('ToolTipText');
	if( !tiptext )
	return;
	tiptext.firstChild.nodeValue = " " + strTooltip + "  " ;

	// show tooltip before, else some refresh issue

	var toolTip = svgDocument.getElementById('ToolTip');
	if(!toolTip)
	return;

	toolTip.setAttribute("visibility","visible");
	toolTip.setAttribute("opacity",".95");

	// move tooltip
	// get viewbox

	var root = svgDocument.documentElement;
	var vbox = (root.getAttribute("viewBox")).split(' ');
	var x0 = parseFloat(vbox[0]);
	var y0 = parseFloat(vbox[1]);
	var vboxW = parseFloat(vbox[2]);
	var vboxH = parseFloat(vbox[3]);

	// get default width of svg

	var strW = root.getAttribute("width");
	var svgW = parseFloat(strW);
	if(strW.indexOf('mm') != -1)
	svgW *= 3.779;

	var strH = root.getAttribute("height");
	var svgH = parseFloat(strH);
	if(strH.indexOf('mm') != -1)
	svgH *= 3.779;  	// 96 dpi  -> 96/25.4 = 3.779

	// update the viewbox / width / height if svg is embedded in html with zoom fit all
	var realx0 = x0;
	var realy0 = y0;
	var realvboxW = vboxW;
	var realvboxH = vboxH;
	var realsvgW = svgW;
	var realsvgH = svgH;

	if ((typeof(top) == "undefined") || (typeof(top.svgctl1) != "undefined")) // embedded in html
	{
		// get window size in pxl

		svgW = window.innerWidth;
		svgH = window.innerHeight;

		// calculate real viewbox

		realsvgW = svgW;
		realsvgH = svgH;
		if((svgW / svgH) > (vboxW / vboxH))
		{
			realvboxW = (vboxH * svgW) / svgH;
			realvboxH = vboxH;
			realx0 = x0 - (realvboxW - vboxW)/2 ;
		}
		else
		{
			realvboxH = (vboxW * svgH) / svgW;
			realvboxW = vboxW;
			realy0 = y0 - (realvboxH - vboxH)/2 ;
		}
	}

	// get user zoom/pan

	var newScale = root.currentScale;
	var translation = root.currentTranslate;

	// transform pxl to user unit

	var xPos = (((evt.clientX+10- translation.x)/newScale) * realvboxW)/realsvgW  + realx0 ;
	var yPos = (((evt.clientY+5- translation.y)/newScale) * realvboxH)/ realsvgH  + realy0 ;
	var scaleForWidth = ( (1 / newScale) * realvboxH) / realsvgH;

	// move tooltip

	toolTip.setAttribute("transform", "translate(" + xPos + "," + yPos + ")" );

	// resize tooltip

	var fontsize = 12;
	tiptext.setAttribute("font-size",fontsize*scaleForWidth);
	tiptext.setAttribute("y", fontsize*scaleForWidth);
	var tipBG = svgDocument.getElementById('ToolTipBG');
	var outline = tiptext.getBBox();
	if(tipBG)
	{
		tipBG.setAttribute("stroke-width", 1*scaleForWidth);
		tipBG.setAttribute("width", Number(outline.width) );
		tipBG.setAttribute("height", Number(outline.height) + fontsize*.5*scaleForWidth );
	}
	var ToolTipShadow = svgDocument.getElementById('ToolTipShadow');
	if(ToolTipShadow)
	{
		ToolTipShadow.setAttribute("width", Number(outline.width) );
		ToolTipShadow.setAttribute("height", Number(outline.height) + fontsize*.5*scaleForWidth );
		ToolTipShadow.setAttribute("x", 3*scaleForWidth);
		ToolTipShadow.setAttribute("y", 3*scaleForWidth);
	}
}
function ShowPaper()
{
  var svgDocument = getDocument();
  var paper = svgDocument.getElementById("paperID");
  if(paper)
  {
    paper.setAttribute("transform","scale(1)");
    paper.setAttribute("opacity","1");
    paper.setAttribute("visibility","visible");
  }
  var svg = svgDocument.getRootElement();
  if(svg)
  {
    svg.setAttribute("width","307.000mm");
    svg.setAttribute("height","220.000mm");
    svg.setAttribute("viewBox","-5.000000 -5.000000 307.000000 220.000000");
  }
}
]]></script><defs/><g><g id="Actor_.0"><g style="stroke:#000020;stroke-width:0.079"><path d="M168.59,173.52 C164.88,175.15 164.85,175.17 161.07,176.62 C156.68,177.47 156.65,177.47 152.22,178.14 C147.62,178.12 147.59,178.12 142.99,177.93 C138.68,177.04 138.65,177.05 134.39,175.99 C130.84,174.36 130.81,174.34 127.34,172.54 "/><path d="M127.23,165.55 C130.72,167.36 130.75,167.38 134.31,169.02 C138.60,170.08 138.63,170.08 142.96,170.96 C147.59,171.16 147.61,171.16 152.24,171.19 C156.69,170.51 156.72,170.51 161.14,169.66 C164.94,168.19 164.97,168.19 168.69,166.54 C171.44,164.46 171.47,164.43 174.09,162.18 "/><path d="M171.70,165.58 C168.49,167.56 168.46,167.57 165.14,169.37 C161.01,170.64 160.98,170.64 156.80,171.73 C152.21,172.15 152.19,172.15 147.59,172.39 C143.04,171.93 143.02,171.93 138.50,171.29 C134.50,170.01 134.46,170.01 130.53,168.55 C127.48,166.60 127.45,166.58 124.52,164.46 "/><path d="M127.23,158.43 C130.72,160.24 130.75,160.26 134.31,161.89 C138.60,162.96 138.63,162.96 142.96,163.84 C147.59,164.04 147.61,164.04 152.24,164.06 C156.69,163.39 156.72,163.39 161.14,162.53 C164.94,161.07 164.97,161.07 168.69,159.42 C171.44,157.34 171.47,157.31 174.09,155.06 "/><path d="M171.70,158.46 C168.49,160.43 168.46,160.45 165.14,162.25 C161.01,163.52 160.98,163.52 156.80,164.60 C152.21,165.02 152.19,165.02 147.59,165.27 C143.04,164.81 143.02,164.81 138.50,164.17 C134.50,162.89 134.46,162.89 130.53,161.42 C127.48,159.47 127.45,159.45 124.52,157.33 "/><path d="M124.52,150.21 C127.45,152.33 127.48,152.35 130.53,154.30 C134.46,155.76 134.50,155.76 138.50,157.04 C143.02,157.68 143.04,157.64 147.59,158.14 C149.58,158.13 149.59,158.10 151.59,158.03 C153.05,157.85 153.05,157.85 154.50,157.65 "/><path d="M127.23,151.31 C130.72,153.12 130.75,153.13 134.31,154.77 C138.60,155.84 138.63,155.83 142.96,156.72 C147.59,156.92 147.61,156.92 152.24,156.94 C156.69,156.27 156.72,156.27 161.14,155.41 C164.94,153.95 164.97,153.94 168.69,152.30 C171.44,150.21 171.47,150.18 174.09,147.93 "/><path d="M171.70,151.34 C168.49,153.31 168.46,153.33 165.14,155.13 C161.01,156.40 160.97,156.34 156.80,157.48 C155.66,157.60 155.65,157.60 154.50,157.65 "/><path d="M124.52,143.09 C127.45,145.21 127.48,145.23 130.53,147.18 C134.46,148.64 134.50,148.64 138.50,149.92 C143.02,150.56 143.04,150.55 147.59,151.02 C151.04,150.85 151.06,150.85 154.50,150.52 "/><path d="M154.50,150.52 C155.65,150.48 155.66,150.48 156.80,150.36 C160.97,149.22 161.01,149.27 165.14,148.00 C168.46,146.20 168.49,146.19 171.70,144.21 "/><path d="M174.09,140.81 C171.47,143.06 171.44,143.09 168.69,145.17 C164.97,146.82 164.94,146.82 161.14,148.29 C156.72,149.14 156.69,149.14 152.24,149.82 C147.61,149.80 147.59,149.80 142.96,149.60 C138.63,148.71 138.60,148.71 134.31,147.65 C130.75,146.01 130.72,146.00 127.23,144.18 "/><path d="M127.23,137.06 C130.72,138.87 130.75,138.89 134.31,140.52 C138.60,141.59 138.63,141.59 142.96,142.47 C147.59,142.67 147.61,142.67 152.24,142.69 C156.69,142.02 156.72,142.02 161.14,141.17 C164.94,139.70 164.97,139.70 168.69,138.05 C171.44,135.97 171.47,135.94 174.09,133.69 "/><path d="M171.70,137.09 C168.49,139.06 168.46,139.08 165.14,140.88 C161.01,142.15 160.98,142.15 156.80,143.24 C152.38,143.65 152.36,143.56 147.92,143.89 C147.75,143.89 147.75,143.90 147.59,143.90 C143.04,143.35 143.02,143.44 138.50,142.80 C134.50,141.52 134.46,141.52 130.53,140.05 C127.48,138.11 127.45,138.08 124.52,135.97 "/><path d="M174.09,126.57 C171.47,128.82 171.44,128.84 168.69,130.93 C164.97,132.58 164.94,132.58 161.14,134.04 C156.72,134.90 156.69,134.90 152.24,135.57 C147.61,135.55 147.59,135.55 142.96,135.35 C138.63,134.47 138.60,134.47 134.31,133.40 C130.75,131.76 130.72,131.75 127.23,129.94 "/><path d="M124.52,128.84 C127.45,130.96 127.48,130.98 130.53,132.93 C134.46,134.40 134.51,134.31 138.50,135.68 C138.59,135.69 138.59,135.69 138.68,135.70 C143.13,136.24 143.13,136.31 147.59,136.78 C151.04,136.60 151.06,136.60 154.50,136.28 "/><path d="M124.52,121.72 C127.45,123.84 127.48,123.86 130.53,125.81 C134.46,127.27 134.50,127.27 138.50,128.55 C143.02,129.19 143.04,129.18 147.59,129.65 C151.04,129.48 151.06,129.48 154.50,129.16 "/><path d="M154.50,129.16 C155.65,129.11 155.66,129.11 156.80,128.99 C160.97,127.85 161.01,127.90 165.14,126.64 C168.46,124.84 168.49,124.82 171.70,122.85 "/><path d="M174.09,119.44 C171.47,121.69 171.44,121.72 168.69,123.81 C164.97,125.45 164.94,125.46 161.14,126.92 C156.72,127.77 156.69,127.77 152.24,128.45 C147.61,128.43 147.59,128.43 142.96,128.23 C138.63,127.34 138.60,127.34 134.31,126.28 C130.75,124.64 130.72,124.63 127.23,122.81 "/><path d="M127.23,115.69 C130.72,117.50 130.75,117.52 134.31,119.16 C138.60,120.22 138.63,120.22 142.96,121.10 C147.59,121.30 147.61,121.30 152.24,121.33 C156.69,120.65 156.72,120.65 161.14,119.80 C164.94,118.33 164.97,118.33 168.69,116.68 C171.44,114.60 171.47,114.57 174.09,112.32 "/><path d="M171.70,115.72 C168.49,117.70 168.46,117.71 165.14,119.51 C161.01,120.78 160.98,120.78 156.80,121.87 C152.38,122.28 152.36,122.19 147.92,122.52 C147.75,122.53 147.75,122.53 147.59,122.53 C143.04,121.98 143.02,122.07 138.50,121.43 C134.50,120.15 134.46,120.15 130.53,118.69 C127.48,116.74 127.45,116.72 124.52,114.60 "/><path d="M127.23,108.57 C130.72,110.38 130.75,110.39 134.31,112.03 C138.60,113.10 138.63,113.10 142.96,113.98 C147.59,114.18 147.61,114.18 152.24,114.20 C156.69,113.53 156.72,113.53 161.14,112.67 C164.94,111.21 164.97,111.21 168.69,109.56 C171.44,107.48 171.47,107.45 174.09,105.20 "/><path d="M171.70,108.60 C168.49,110.57 168.46,110.59 165.14,112.39 C161.01,113.66 160.98,113.66 156.80,114.74 C152.38,115.16 152.36,115.07 147.92,115.40 C147.75,115.40 147.75,115.41 147.59,115.41 C143.04,114.86 143.02,114.95 138.50,114.31 C134.50,113.03 134.46,113.03 130.53,111.56 C127.48,109.61 127.45,109.59 124.52,107.47 "/><path d="M124.52,100.35 C127.45,102.47 127.48,102.49 130.53,104.44 C134.46,105.90 134.50,105.90 138.50,107.18 C143.02,107.82 143.04,107.82 147.59,108.28 C152.19,108.04 152.21,108.04 156.80,107.62 C160.98,106.53 161.01,106.54 165.14,105.27 C168.46,103.47 168.49,103.45 171.70,101.48 "/><path d="M128.70,83.64 C131.49,84.75 131.49,84.75 134.28,85.88 C135.29,86.32 135.28,86.36 136.30,86.77 C139.58,87.34 139.59,87.30 142.88,87.84 C144.06,88.07 144.06,88.11 145.24,88.30 C148.68,88.23 148.68,88.19 152.12,88.08 C153.35,88.07 153.35,88.12 154.57,88.08 C157.79,87.37 157.78,87.32 161.00,86.57 C162.13,86.34 162.15,86.39 163.27,86.12 C165.92,84.85 165.91,84.80 168.55,83.49 C169.47,83.06 169.47,83.06 170.39,82.64 "/><path d="M154.50,136.28 C155.65,136.23 155.66,136.23 156.80,136.11 C160.97,134.97 161.01,135.03 165.14,133.76 C168.46,131.96 168.49,131.94 171.70,129.97 "/><path d="M96.67,52.51 L96.67,43.45 "/><path d="M111.93,73.77 L128.78,83.50 "/><path d="M166.25,174.82 L168.59,173.52 "/><path d="M127.34,172.54 L122.61,167.96 L120.72,162.74 L121.36,159.77 "/><path d="M121.15,159.46 L121.05,158.08 L120.60,155.77 L122.48,160.95 L127.23,165.55 "/><path d="M174.09,162.18 L176.74,157.04 L175.78,160.77 L171.70,165.58 "/><path d="M124.52,164.46 L121.15,159.46 "/><path d="M120.60,155.77 L120.57,155.70 L121.26,152.51 "/><path d="M120.57,155.70 L120.77,154.11 L121.23,152.45 "/><path d="M121.15,152.34 L121.05,151.01 L120.57,148.58 L122.48,153.83 L127.23,158.43 "/><path d="M174.09,155.06 L176.74,149.92 L175.78,153.64 L171.70,158.46 "/><path d="M124.52,157.33 L121.15,152.34 "/><path d="M121.23,145.33 L120.77,146.98 L120.57,148.58 L121.26,145.38 L121.15,145.22 L121.05,143.88 L120.57,141.46 L121.26,138.26 "/><path d="M121.26,145.38 L124.52,150.21 "/><path d="M154.50,157.65 L147.59,158.14 "/><path d="M121.23,138.21 L120.77,139.86 L120.57,141.46 L122.48,146.70 L127.23,151.31 "/><path d="M174.09,147.93 L176.74,142.80 L175.78,146.52 L171.70,151.34 "/><path d="M121.26,131.14 L120.57,134.33 L121.05,136.76 L121.15,138.09 L124.52,143.09 "/><path d="M154.50,150.52 L151.59,150.90 L147.58,151.01 "/><path d="M171.70,144.21 L175.78,139.40 L176.74,135.67 L174.09,140.81 "/><path d="M127.23,144.18 L122.48,139.58 L120.57,134.33 L120.77,132.74 L121.23,131.09 "/><path d="M121.15,130.97 L121.05,129.64 L120.57,127.21 L122.48,132.46 L127.23,137.06 "/><path d="M174.09,133.69 L176.74,128.55 L175.78,132.28 L171.70,137.09 "/><path d="M124.52,135.97 L121.15,130.97 "/><path d="M121.23,123.96 L120.77,125.62 L120.57,127.21 L121.26,124.02 "/><path d="M176.70,120.90 L176.93,119.83 L176.35,116.07 L176.74,121.43 L174.09,126.57 "/><path d="M127.23,129.94 L122.50,125.35 L120.57,120.09 L121.05,122.51 L121.15,123.85 L124.52,128.84 "/><path d="M154.50,136.28 L151.59,136.66 L147.59,136.78 "/><path d="M120.57,120.09 L121.26,116.89 "/><path d="M120.58,120.09 L120.77,118.49 L121.23,116.84 "/><path d="M121.26,109.77 L120.57,112.97 L121.05,115.39 L121.15,116.73 L124.52,121.72 "/><path d="M154.50,129.16 L151.59,129.54 L147.59,129.65 "/><path d="M171.70,122.85 L175.78,118.03 L176.74,114.31 L174.09,119.44 "/><path d="M127.23,122.81 L122.48,118.21 L120.57,112.97 L120.77,111.37 L121.23,109.72 "/><path d="M121.16,109.62 L121.05,108.27 L120.57,105.84 L122.50,111.11 L127.23,115.69 "/><path d="M174.09,112.32 L176.74,107.18 L175.78,110.91 L171.70,115.72 "/><path d="M124.52,114.60 L121.16,109.62 "/><path d="M121.26,102.65 L120.57,105.84 L120.77,104.25 L121.23,102.59 "/><path d="M121.29,102.69 L121.15,102.48 L121.05,101.15 L120.57,98.72 L122.50,103.98 L127.23,108.57 "/><path d="M174.09,105.20 L176.74,100.06 L175.78,103.78 L171.70,108.60 "/><path d="M124.52,107.47 L121.29,102.69 "/><path d="M121.23,95.47 L120.77,97.12 L120.57,98.72 L121.26,95.52 "/><path d="M120.77,78.87 L120.77,90.00 L121.15,95.36 L124.52,100.35 "/><path d="M171.70,101.48 L175.78,96.66 L176.93,91.34 L176.93,78.66 "/><path d="M132.33,175.50 L127.34,172.54 "/><path d="M128.00,83.05 L128.70,83.64 "/><path d="M170.39,82.64 L170.85,82.19 "/><path d="M128.03,46.15 L127.78,46.69 L143.13,55.56 L164.10,52.31 L169.72,40.21 L154.37,31.34 L133.40,34.59 L128.03,46.15 "/><path d="M133.40,49.94 L133.40,34.59 "/><path d="M154.37,31.34 L154.37,48.23 L135.50,51.15 "/><path d="M138.50,171.29 L144.05,172.09 L145.40,172.12 "/><path d="M138.50,164.16 L144.05,164.97 L145.32,164.99 "/><path d="M138.50,142.80 L144.05,143.60 L145.40,143.63 "/><path d="M138.68,135.70 L144.05,136.48 L145.40,136.51 "/><path d="M138.50,121.43 L144.05,122.23 L145.40,122.26 "/><path d="M138.50,157.04 L144.05,157.85 L145.40,157.88 "/><path d="M145.40,150.76 L144.05,150.72 L138.50,149.92 "/><path d="M138.50,128.55 L144.05,129.36 L145.40,129.39 "/><path d="M145.40,115.14 L144.05,115.11 L138.50,114.31 "/><path d="M138.50,107.18 L144.05,107.99 L145.40,108.02 "/><path d="M147.58,165.25 L151.59,165.15 L154.50,164.77 "/><path d="M147.92,143.89 L151.59,143.78 L154.50,143.40 "/><path d="M147.59,115.41 L151.59,115.29 L154.50,114.91 "/><path d="M147.58,172.37 L151.59,172.27 L154.50,171.89 "/><path d="M147.92,122.52 L151.59,122.41 L154.50,122.03 "/><path d="M154.50,107.79 L151.59,108.17 L147.59,108.28 "/><path d="M171.70,129.97 L175.78,125.15 L176.74,121.43 "/><path d="M162.01,52.64 L154.37,48.23 "/><path d="M168.59,173.52 L173.96,169.18 L176.59,164.07 L176.23,159.01 "/><path d="M170.46,82.49 L170.69,82.28 L188.49,71.94 "/><path d="M176.74,157.04 L176.35,151.69 L176.30,151.61 "/><path d="M176.35,151.69 L176.93,155.45 L176.70,156.52 "/><path d="M176.74,149.92 L176.35,144.57 L176.30,144.49 "/><path d="M176.70,149.39 L176.93,148.33 L176.35,144.57 "/><path d="M176.74,142.80 L176.35,137.44 L176.30,137.37 "/><path d="M176.70,142.27 L176.93,141.20 L176.35,137.44 "/><path d="M176.74,135.67 L176.36,130.38 L176.93,134.08 L176.70,135.14 "/><path d="M176.36,130.38 L176.30,130.24 "/><path d="M176.74,128.55 L176.35,123.20 L176.30,123.12 "/><path d="M176.35,123.20 L176.93,126.96 L176.70,128.02 "/><path d="M176.35,116.07 L176.30,116.00 "/><path d="M176.74,114.31 L176.35,108.95 L176.30,108.88 "/><path d="M176.70,113.78 L176.93,112.71 L176.35,108.95 "/><path d="M176.74,107.18 L176.35,101.83 L176.30,101.75 "/><path d="M176.35,101.83 L176.93,105.59 L176.70,106.66 "/><path d="M176.74,100.06 L176.35,94.71 L176.93,98.47 L176.70,99.53 "/><path d="M176.35,94.71 L176.24,94.54 "/><path d="M200.83,52.51 L200.83,43.45 "/><path d="M200.831 52.507 a52.080 30.068 -180.000 0 1 -104.159 0.000"/><path d="M166.246 174.815 a22.928 13.238 -180.000 0 1 -33.920 0.681"/><path d="M136.854 51.932 a18.800 10.854 -180.000 0 1 25.148 0.706"/><ellipse rx="52.08" ry="30.07" transform="translate(148.751 43.450) rotate(-180.000)"/></g></g><g/><g/><g id="paperID" visibility="hidden" opacity="0.00" transform="scale(0.000100)"><path style="stroke:#000000;stroke-width:0.500;fill:#e6e6e6;fill-rule:evenodd" d="M-2000.00,-2000.00L2297.00,-2000.00L2297.00,2210.00L-2000.00,2210.00zM0.00,0.00L297.00,0.00L297.00,210.00L0.00,210.00z"/><path style="fill:#000000;fill-opacity:0.118" d="M3.00,210.00L297.00,210.00L297.00,3.00L300.00,3.00L300.00,213.00L3.00,213.00z"/></g><g id="ToolTip" visibility="hidden" opacity="0" transform="translate(0,0)"><rect id="ToolTipShadow" opacity="0.20" fill="black" stroke="none" x="0" y="0" width="30" height="8"/><rect id="ToolTipBG" fill="#ffffe1" stroke="black" x="0" y="0" width="30" height="8"/><text xml:space="preserve" id="ToolTipText" fill="black" x="0" y="0" width="30" height="8">tooltip</text></g></g></svg>
