<?xml version="1.0" encoding="UTF-8" standalone="no"?>
<svg xmlns="http://www.w3.org/2000/svg" xmlns:xlink="http://www.w3.org/1999/xlink" width="297.000mm" height="210.000mm" viewBox="0.000000 0.000000 297.000000 210.000000" stroke-linejoin="round" stroke-linecap="round" fill="none" fill-rule="evenodd"><desc>Composer Export</desc><script type="text/ecmascript"><![CDATA[
if(typeof(top) != "undefined")
{
	top.ShowPaper = ShowPaper;
}
function ShowHotSpot(evt,hotspotid)
{
	var svgDocument = evt.target.ownerDocument;
	var strId = "hotspot."+hotspotid;
	var hotspot = svgDocument.getElementById(strId);
	if(hotspot)
		hotspot.setAttribute("opacity",".5");
}
function HideHotSpot(evt,hotspotid)
{
	var svgDocument = evt.target.ownerDocument;
	var strId = "hotspot."+hotspotid;
	var hotspot = svgDocument.getElementById(strId);
	if(hotspot)
		hotspot.setAttribute("opacity","0");

	var toolTip = svgDocument.getElementById('ToolTip');
	if(toolTip)
		toolTip.setAttribute("visibility","hidden");
}
function ShowToolTip(evt,hotspotid,strTooltip)
{
	if(strTooltip=="")
	return;

	// change text
	var svgDocument = evt.target.ownerDocument;
	var tiptext = svgDocument.getElementById('ToolTipText');
	if( !tiptext )
	return;
	tiptext.firstChild.nodeValue = " " + strTooltip + "  " ;

	// show tooltip before, else some refresh issue

	var toolTip = svgDocument.getElementById('ToolTip');
	if(!toolTip)
	return;

	toolTip.setAttribute("visibility","visible");
	toolTip.setAttribute("opacity",".95");

	// move tooltip
	// get viewbox

	var root = svgDocument.documentElement;
	var vbox = (root.getAttribute("viewBox")).split(' ');
	var x0 = parseFloat(vbox[0]);
	var y0 = parseFloat(vbox[1]);
	var vboxW = parseFloat(vbox[2]);
	var vboxH = parseFloat(vbox[3]);

	// get default width of svg

	var strW = root.getAttribute("width");
	var svgW = parseFloat(strW);
	if(strW.indexOf('mm') != -1)
	svgW *= 3.779;

	var strH = root.getAttribute("height");
	var svgH = parseFloat(strH);
	if(strH.indexOf('mm') != -1)
	svgH *= 3.779;  	// 96 dpi  -> 96/25.4 = 3.779

	// update the viewbox / width / height if svg is embedded in html with zoom fit all
	var realx0 = x0;
	var realy0 = y0;
	var realvboxW = vboxW;
	var realvboxH = vboxH;
	var realsvgW = svgW;
	var realsvgH = svgH;

	if ((typeof(top) == "undefined") || (typeof(top.svgctl1) != "undefined")) // embedded in html
	{
		// get window size in pxl

		svgW = window.innerWidth;
		svgH = window.innerHeight;

		// calculate real viewbox

		realsvgW = svgW;
		realsvgH = svgH;
		if((svgW / svgH) > (vboxW / vboxH))
		{
			realvboxW = (vboxH * svgW) / svgH;
			realvboxH = vboxH;
			realx0 = x0 - (realvboxW - vboxW)/2 ;
		}
		else
		{
			realvboxH = (vboxW * svgH) / svgW;
			realvboxW = vboxW;
			realy0 = y0 - (realvboxH - vboxH)/2 ;
		}
	}

	// get user zoom/pan

	var newScale = root.currentScale;
	var translation = root.currentTranslate;

	// transform pxl to user unit

	var xPos = (((evt.clientX+10- translation.x)/newScale) * realvboxW)/realsvgW  + realx0 ;
	var yPos = (((evt.clientY+5- translation.y)/newScale) * realvboxH)/ realsvgH  + realy0 ;
	var scaleForWidth = ( (1 / newScale) * realvboxH) / realsvgH;

	// move tooltip

	toolTip.setAttribute("transform", "translate(" + xPos + "," + yPos + ")" );

	// resize tooltip

	var fontsize = 12;
	tiptext.setAttribute("font-size",fontsize*scaleForWidth);
	tiptext.setAttribute("y", fontsize*scaleForWidth);
	var tipBG = svgDocument.getElementById('ToolTipBG');
	var outline = tiptext.getBBox();
	if(tipBG)
	{
		tipBG.setAttribute("stroke-width", 1*scaleForWidth);
		tipBG.setAttribute("width", Number(outline.width) );
		tipBG.setAttribute("height", Number(outline.height) + fontsize*.5*scaleForWidth );
	}
	var ToolTipShadow = svgDocument.getElementById('ToolTipShadow');
	if(ToolTipShadow)
	{
		ToolTipShadow.setAttribute("width", Number(outline.width) );
		ToolTipShadow.setAttribute("height", Number(outline.height) + fontsize*.5*scaleForWidth );
		ToolTipShadow.setAttribute("x", 3*scaleForWidth);
		ToolTipShadow.setAttribute("y", 3*scaleForWidth);
	}
}
function ShowPaper()
{
  var svgDocument = getDocument();
  var paper = svgDocument.getElementById("paperID");
  if(paper)
  {
    paper.setAttribute("transform","scale(1)");
    paper.setAttribute("opacity","1");
    paper.setAttribute("visibility","visible");
  }
  var svg = svgDocument.getRootElement();
  if(svg)
  {
    svg.setAttribute("width","307.000mm");
    svg.setAttribute("height","220.000mm");
    svg.setAttribute("viewBox","-5.000000 -5.000000 307.000000 220.000000");
  }
}
]]></script><defs/><g><g id="Actor_10.0"><g style="stroke:#000020;stroke-width:0.079"><path d="M163.58,177.41 C159.70,178.60 159.67,178.60 155.75,179.63 C151.48,180.02 151.46,180.02 147.18,180.24 C142.95,179.81 142.93,179.81 138.72,179.22 C135.00,178.03 134.97,178.03 131.30,176.67 C128.47,174.85 128.44,174.83 125.72,172.86 "/><path d="M149.36,174.24 C150.43,174.30 150.44,174.30 151.51,174.29 C155.65,173.61 155.67,173.66 159.78,172.87 C163.32,171.50 163.36,171.50 166.82,169.97 C169.37,168.03 169.40,168.00 171.83,165.91 "/><path d="M173.41,162.20 C171.56,164.47 171.55,164.49 169.61,166.68 C168.26,167.68 168.23,167.66 166.82,168.59 C165.17,169.42 165.18,169.44 163.51,170.21 C159.64,171.35 159.64,171.39 155.75,172.40 C151.48,172.79 151.46,172.79 147.18,173.02 C142.95,172.59 142.93,172.59 138.72,171.99 C135.00,170.80 134.97,170.80 131.30,169.44 C128.47,167.63 128.44,167.61 125.72,165.64 "/><path d="M128.24,169.05 C131.48,170.73 131.51,170.75 134.83,172.27 C138.82,173.26 138.85,173.25 142.88,174.08 C146.11,174.23 146.13,174.23 149.36,174.24 "/><path d="M149.36,167.01 C146.13,167.01 146.11,167.01 142.88,166.86 C138.85,166.02 138.82,166.03 134.83,165.04 C131.51,163.52 131.48,163.51 128.24,161.82 "/><path d="M125.72,158.41 C128.44,160.38 128.47,160.40 131.30,162.22 C134.97,163.58 135.00,163.58 138.72,164.77 C142.93,165.36 142.95,165.36 147.18,165.79 C151.46,165.56 151.48,165.57 155.75,165.17 C159.64,164.16 159.64,164.12 163.51,162.98 C165.18,162.22 165.17,162.20 166.82,161.37 C168.23,160.43 168.26,160.45 169.61,159.46 C171.55,157.26 171.56,157.25 173.41,154.98 "/><path d="M171.83,158.68 C169.40,160.78 169.37,160.80 166.82,162.74 C163.36,164.28 163.32,164.28 159.78,165.64 C155.67,166.43 155.65,166.38 151.51,167.06 C150.44,167.07 150.43,167.07 149.36,167.01 "/><path d="M128.24,154.60 C131.48,156.28 131.51,156.29 134.83,157.82 C138.82,158.81 138.85,158.80 142.88,159.63 C146.11,159.78 146.13,159.78 149.36,159.79 "/><path d="M128.24,147.37 C131.48,149.06 131.51,149.07 134.83,150.59 C138.82,151.58 138.85,151.58 142.88,152.41 C147.18,152.59 147.20,152.59 151.51,152.61 C155.65,151.98 155.67,151.98 159.78,151.19 C163.32,149.83 163.36,149.82 166.82,148.29 C169.37,146.35 169.40,146.33 171.83,144.23 "/><path d="M173.41,147.75 C171.56,150.02 171.55,150.04 169.61,152.23 C168.26,153.23 168.23,153.21 166.82,154.14 C165.17,154.97 165.18,154.99 163.51,155.76 C159.64,156.90 159.64,156.94 155.75,157.95 C151.48,158.34 151.46,158.34 147.18,158.57 C142.95,158.14 142.93,158.14 138.72,157.54 C135.00,156.35 134.97,156.35 131.30,154.99 C128.47,153.18 128.44,153.16 125.72,151.18 "/><path d="M173.41,140.53 C171.56,142.80 171.55,142.81 169.61,145.01 C168.26,146.00 168.23,145.98 166.82,146.92 C165.17,147.75 165.18,147.77 163.51,148.53 C159.64,149.67 159.64,149.71 155.75,150.72 C151.48,151.11 151.46,151.11 147.18,151.34 C142.95,150.91 142.93,150.91 138.72,150.32 C135.00,149.13 134.97,149.13 131.30,147.76 C128.47,145.95 128.44,145.93 125.72,143.96 "/><path d="M173.41,126.08 C171.56,128.34 171.55,128.36 169.61,130.56 C168.26,131.55 168.23,131.53 166.82,132.46 C165.17,133.29 165.18,133.32 163.51,134.08 C159.64,135.22 159.64,135.26 155.75,136.27 C151.48,136.66 151.46,136.66 147.18,136.89 C142.95,136.46 142.93,136.46 138.72,135.87 C135.00,134.67 134.97,134.67 131.30,133.31 C128.47,131.50 128.44,131.48 125.72,129.51 "/><path d="M128.24,132.92 C131.48,134.60 131.51,134.62 134.83,136.14 C138.82,137.13 138.85,137.13 142.88,137.95 C147.18,138.14 147.20,138.14 151.51,138.16 C155.65,137.53 155.67,137.53 159.78,136.74 C163.32,135.37 163.36,135.37 166.82,133.84 C169.37,131.90 169.40,131.87 171.83,129.78 "/><path d="M173.41,133.30 C171.56,135.57 171.55,135.59 169.61,137.78 C168.26,138.78 168.23,138.76 166.82,139.69 C165.17,140.52 165.18,140.54 163.51,141.31 C159.64,142.44 159.64,142.49 155.75,143.50 C151.48,143.89 151.46,143.89 147.18,144.11 C142.95,143.69 142.93,143.69 138.72,143.09 C135.00,141.90 134.97,141.90 131.30,140.54 C128.47,138.73 128.44,138.70 125.72,136.73 "/><path d="M128.24,140.14 C131.48,141.83 131.51,141.84 134.83,143.37 C138.82,144.36 138.85,144.35 142.88,145.18 C146.11,145.33 146.13,145.33 149.36,145.33 "/><path d="M125.72,122.28 C128.44,124.25 128.47,124.27 131.30,126.09 C134.97,127.45 135.00,127.45 138.72,128.64 C142.93,129.23 142.95,129.23 147.18,129.66 C151.46,129.44 151.48,129.44 155.75,129.05 C159.64,128.03 159.64,127.99 163.51,126.86 C165.18,126.09 165.17,126.07 166.82,125.24 C168.23,124.31 168.26,124.33 169.61,123.33 C171.55,121.13 171.56,121.12 173.41,118.85 "/><path d="M171.83,122.56 C169.40,124.65 169.37,124.68 166.82,126.62 C163.36,128.15 163.32,128.15 159.78,129.51 C155.67,130.31 155.65,130.31 151.51,130.94 C147.20,130.92 147.18,130.92 142.88,130.73 C138.85,129.91 138.82,129.91 134.83,128.92 C131.51,127.39 131.48,127.38 128.24,125.70 "/><path d="M125.72,115.06 C128.44,117.03 128.47,117.05 131.30,118.86 C134.97,120.22 135.00,120.22 138.72,121.42 C142.93,122.01 142.95,122.01 147.18,122.44 C151.46,122.21 151.48,122.21 155.75,121.82 C159.64,120.81 159.64,120.77 163.51,119.63 C165.18,118.87 165.17,118.85 166.82,118.02 C168.23,117.08 168.26,117.10 169.61,116.11 C171.55,113.91 171.56,113.90 173.41,111.63 "/><path d="M171.83,115.33 C169.40,117.43 169.37,117.45 166.82,119.39 C163.36,120.92 163.32,120.93 159.78,122.29 C155.67,123.08 155.65,123.08 151.51,123.71 C147.20,123.69 147.18,123.69 142.88,123.51 C138.85,122.68 138.82,122.68 134.83,121.69 C131.51,120.17 131.48,120.15 128.24,118.47 "/><path d="M125.72,107.83 C128.44,109.80 128.47,109.82 131.30,111.64 C134.97,113.00 135.00,113.00 138.72,114.19 C142.93,114.79 142.95,114.78 147.18,115.21 C151.46,114.99 151.48,114.99 155.75,114.60 C159.64,113.59 159.64,113.54 163.51,112.41 C165.18,111.64 165.17,111.62 166.82,110.79 C168.23,109.86 168.26,109.88 169.61,108.88 C171.55,106.69 171.56,106.67 173.41,104.40 "/><path d="M171.83,108.11 C169.40,110.20 169.37,110.23 166.82,112.16 C163.36,113.70 163.32,113.70 159.78,115.06 C155.67,115.86 155.65,115.86 151.51,116.49 C147.20,116.46 147.18,116.47 142.88,116.28 C138.85,115.46 138.82,115.46 134.83,114.47 C131.51,112.94 131.48,112.93 128.24,111.24 "/><path d="M125.72,100.61 C128.44,102.58 128.47,102.60 131.30,104.41 C134.97,105.77 135.00,105.77 138.72,106.97 C142.93,107.56 142.95,107.56 147.18,107.99 C151.46,107.76 151.48,107.76 155.75,107.37 C159.64,106.36 159.64,106.32 163.51,105.18 C165.18,104.42 165.17,104.39 166.82,103.56 C168.23,102.63 168.26,102.65 169.61,101.66 C171.55,99.46 171.56,99.44 173.41,97.18 "/><path d="M171.83,100.88 C169.40,102.97 169.37,103.00 166.82,104.94 C163.36,106.47 163.32,106.47 159.79,107.84 C155.67,108.63 155.65,108.58 151.51,109.26 C150.44,109.27 150.43,109.23 149.36,109.21 C148.37,109.26 148.37,109.29 147.39,109.34 C145.13,109.21 145.12,109.24 142.88,109.05 C138.85,108.19 138.82,108.23 134.83,107.24 C131.51,105.72 131.48,105.70 128.24,104.02 "/><path d="M157.17,101.07 C155.73,101.35 155.73,101.35 154.29,101.62 C152.90,101.83 152.90,101.86 151.51,102.03 C147.41,101.98 147.40,101.95 143.30,101.86 C143.09,101.84 143.09,101.85 142.88,101.83 C138.85,100.93 138.82,101.01 134.83,100.02 C131.51,98.49 131.48,98.48 128.24,96.79 "/><path d="M126.73,76.38 C128.80,77.55 128.80,77.55 130.88,78.73 C131.89,79.33 131.87,79.38 132.90,79.94 C135.52,80.70 135.54,80.65 138.18,81.37 C139.45,81.75 139.44,81.80 140.71,82.15 C143.64,82.37 143.65,82.32 146.58,82.51 C147.97,82.63 147.97,82.68 149.36,82.77 C152.26,82.43 152.26,82.38 155.16,82.00 C156.52,81.86 156.53,81.91 157.88,81.74 C160.44,80.87 160.43,80.82 162.99,79.92 C164.17,79.54 164.20,79.58 165.36,79.16 C166.48,78.43 166.49,78.42 167.57,77.63 "/><path d="M157.17,144.41 C158.48,144.23 158.49,144.23 159.78,143.96 C163.31,142.56 163.36,142.60 166.82,141.07 C169.37,139.13 169.40,139.10 171.83,137.01 "/><path d="M157.17,101.07 C158.48,100.88 158.49,100.88 159.79,100.61 C163.31,99.20 163.36,99.25 166.82,97.71 C169.37,95.77 169.40,95.75 171.83,93.66 "/><path d="M157.17,158.86 C158.48,158.68 158.49,158.68 159.78,158.41 C163.31,157.01 163.36,157.05 166.82,155.52 C169.37,153.58 169.40,153.55 171.83,151.46 "/><path d="M133.02,177.56 C132.10,177.16 132.10,177.16 131.20,176.74 C129.05,175.40 129.04,175.40 126.91,174.03 C126.26,173.48 126.25,173.48 125.63,172.89 C124.36,171.24 124.35,171.23 123.12,169.55 C122.81,168.90 122.80,168.89 122.54,168.22 C122.27,166.42 122.27,166.41 122.05,164.60 C122.12,163.92 122.14,163.92 122.25,163.24 C122.47,162.48 122.47,162.48 122.72,161.73 "/><path d="M166.92,175.88 C165.28,176.73 165.28,176.73 163.61,177.52 C160.72,178.46 160.71,178.44 157.80,179.34 C156.81,179.55 156.80,179.55 155.81,179.74 C152.58,180.07 152.58,180.07 149.35,180.36 C148.26,180.38 148.26,180.38 147.17,180.36 C143.97,180.07 143.97,180.07 140.78,179.75 C139.71,179.55 139.71,179.55 138.65,179.32 C135.83,178.46 135.83,178.46 133.02,177.56 "/><path d="M98.87,40.87 L98.87,48.53 "/><path d="M126.62,76.17 L126.28,75.87 L108.06,65.10 "/><path d="M125.72,172.86 L122.58,168.22 L122.23,163.23 L122.83,162.05 "/><path d="M171.83,165.91 L174.30,161.13 L174.48,157.26 L173.41,162.20 "/><path d="M125.72,165.64 L122.58,160.99 L122.31,157.25 L122.05,159.88 L123.82,164.76 L128.24,169.05 "/><path d="M149.36,174.24 L147.39,174.36 L142.88,174.06 "/><path d="M122.27,157.25 L122.23,156.01 L122.31,157.25 "/><path d="M122.23,156.01 L122.83,154.83 "/><path d="M142.88,166.84 L147.39,167.14 L149.36,167.01 "/><path d="M128.24,161.82 L123.82,157.54 L122.05,152.66 L122.31,150.02 L122.23,148.85 L122.27,150.02 "/><path d="M122.31,150.02 L122.58,153.76 L125.72,158.41 "/><path d="M173.41,154.98 L174.48,150.03 L174.30,153.90 L171.83,158.68 "/><path d="M122.23,148.85 L122.23,148.78 L122.83,147.60 "/><path d="M122.28,143.15 L122.29,143.08 L122.05,145.43 L123.82,150.31 L128.24,154.60 "/><path d="M149.36,159.79 L147.39,159.91 L142.88,159.61 "/><path d="M122.27,135.57 L122.23,134.33 L122.31,135.57 L122.05,138.21 L123.82,143.09 L128.24,147.37 "/><path d="M171.83,144.23 L173.69,140.63 L174.48,142.80 L173.41,147.75 "/><path d="M125.72,151.18 L122.58,146.54 L122.25,141.92 L122.29,143.08 L122.31,142.80 "/><path d="M122.25,141.92 L122.23,141.56 L122.83,140.38 "/><path d="M173.69,140.63 L174.30,139.45 L174.48,135.58 L173.41,140.53 "/><path d="M125.72,143.96 L122.58,139.31 L122.31,135.57 "/><path d="M122.23,134.33 L122.83,133.15 "/><path d="M173.69,126.18 L174.30,125.00 L174.48,121.15 L173.41,126.08 "/><path d="M125.72,129.51 L122.58,124.86 L122.32,121.15 L122.05,123.75 L123.82,128.63 L128.24,132.92 "/><path d="M171.83,129.78 L173.69,126.18 L174.48,128.35 L173.41,133.30 "/><path d="M125.72,136.73 L122.58,132.09 L122.31,128.35 L122.05,130.98 L123.82,135.86 L128.24,140.14 "/><path d="M149.36,145.33 L147.39,145.46 L142.88,145.16 "/><path d="M122.31,128.35 L122.23,127.10 L122.27,128.35 "/><path d="M122.23,127.10 L122.83,125.92 "/><path d="M122.32,121.15 L122.23,120.00 L122.27,121.16 "/><path d="M122.23,120.00 L122.23,119.88 L122.83,118.70 "/><path d="M122.47,117.69 L122.05,116.54 L122.31,113.90 L122.58,117.64 L125.72,122.28 "/><path d="M173.41,118.85 L174.48,113.90 L174.30,117.78 L171.83,122.56 "/><path d="M128.24,125.70 L123.82,121.41 L122.47,117.69 "/><path d="M122.28,114.25 L122.26,113.08 L122.31,113.90 "/><path d="M122.83,111.47 L122.23,112.65 L122.26,113.08 "/><path d="M122.16,109.62 L122.05,109.31 L122.31,106.67 L122.58,110.41 L125.72,115.06 "/><path d="M173.41,111.63 L174.48,106.68 L174.30,110.55 L171.83,115.33 "/><path d="M128.24,118.47 L123.82,114.19 L122.16,109.62 "/><path d="M122.31,106.67 L122.23,105.43 L122.83,104.25 "/><path d="M122.27,106.67 L122.23,105.43 "/><path d="M122.50,103.32 L122.05,102.08 L122.31,99.45 L122.58,103.19 L125.72,107.83 "/><path d="M173.41,104.40 L174.48,99.45 L174.30,103.33 L171.83,108.11 "/><path d="M128.24,111.24 L123.82,106.96 L122.50,103.32 "/><path d="M122.27,99.45 L122.23,98.20 L122.31,99.45 "/><path d="M122.23,98.20 L122.83,97.02 "/><path d="M122.38,95.77 L122.05,94.85 L122.32,92.31 L122.58,95.96 L125.72,100.61 "/><path d="M173.41,97.18 L174.47,92.31 L174.30,96.10 L171.83,100.88 "/><path d="M128.24,104.02 L123.82,99.73 L122.38,95.77 "/><path d="M122.32,92.31 L122.24,91.15 L122.27,92.31 "/><path d="M122.24,91.15 L122.23,90.98 L122.83,89.80 "/><path d="M151.51,102.03 L157.17,101.07 "/><path d="M128.24,96.79 L123.82,92.51 L122.05,87.63 L122.05,73.36 "/><path d="M126.35,75.92 L126.73,76.38 "/><path d="M167.57,77.63 L165.25,78.97 "/><path d="M134.87,33.14 L153.16,30.31 L166.55,38.04 L161.65,48.60 L143.36,51.43 L129.97,43.70 L134.87,33.14 L134.87,46.53 "/><path d="M157.99,49.17 L153.16,46.38 L138.53,48.64 "/><path d="M142.88,152.39 L147.39,152.69 L149.36,152.56 "/><path d="M142.88,137.94 L147.39,138.24 L149.36,138.11 "/><path d="M142.88,130.73 L147.39,131.01 L149.36,130.89 "/><path d="M142.88,123.51 L147.39,123.79 L149.36,123.66 "/><path d="M147.20,116.54 L147.39,116.56 L142.88,116.28 "/><path d="M142.96,109.07 L149.36,109.21 "/><path d="M143.30,101.86 L147.39,102.11 L149.36,101.98 "/><path d="M147.39,116.56 L149.36,116.43 "/><path d="M149.36,159.79 L151.51,159.84 L157.17,158.86 L154.29,159.42 L151.51,159.84 "/><path d="M149.36,145.33 L151.52,145.38 L157.17,144.41 L154.29,144.97 L151.52,145.38 "/><path d="M151.51,174.29 L154.29,173.87 L157.17,173.31 "/><path d="M151.51,167.06 L154.29,166.64 L157.17,166.09 "/><path d="M151.51,152.61 L154.29,152.19 L157.17,151.64 "/><path d="M151.51,138.16 L154.29,137.74 L157.17,137.19 "/><path d="M151.51,130.94 L154.29,130.52 L157.17,129.97 "/><path d="M151.51,123.71 L154.29,123.29 L157.17,122.75 "/><path d="M151.51,116.49 L154.29,116.06 L157.17,115.52 "/><path d="M157.17,108.30 L154.29,108.84 L151.51,109.26 "/><path d="M153.16,46.38 L153.16,30.31 "/><path d="M154.93,49.64 L155.46,48.43 "/><path d="M171.83,137.01 L173.69,133.41 L174.48,135.58 "/><path d="M171.83,93.66 L173.68,90.07 L174.48,92.23 L174.47,92.31 "/><path d="M171.83,151.46 L174.30,146.68 L174.48,142.80 "/><path d="M161.92,178.71 L165.23,176.78 "/><path d="M180.18,70.29 L167.57,77.63 L167.61,77.61 "/><path d="M173.69,162.31 L174.48,164.48 L173.41,169.43 L169.30,174.28 "/><path d="M174.48,157.26 L173.69,155.09 "/><path d="M174.48,150.03 L173.69,147.86 "/><path d="M173.69,133.41 L174.30,132.23 L174.48,128.35 "/><path d="M174.48,121.15 L173.69,118.96 "/><path d="M174.48,113.90 L173.69,111.73 "/><path d="M174.48,106.68 L173.68,104.52 "/><path d="M174.48,99.45 L173.68,97.29 "/><path d="M173.68,90.07 L174.30,88.88 L174.30,73.71 "/><path d="M197.65,48.53 L197.65,40.87 "/><path d="M132.88,177.50 L133.02,177.56 "/><path d="M127.12,174.16 L127.25,174.23 "/><path d="M166.920 175.878 a26.237 15.148 -180.000 0 1 -3.311 1.636"/><path d="M173.877 161.947 a26.237 15.148 -180.000 0 1 -6.957 13.931"/><path d="M161.922 178.706 a21.121 12.194 -0.000 0 1 -30.265 -1.764"/><ellipse rx="49.39" ry="28.52" transform="translate(148.262 40.869) rotate(-180.000)"/><path d="M197.191 44.637 a49.392 28.517 -0.000 1 1 -98.322 3.891"/><path d="M139.220 49.038 a16.398 9.467 -0.000 0 1 18.510 0.168"/></g></g><g id="paperID" visibility="hidden" opacity="0.00" transform="scale(0.000100)"><path style="stroke:#000000;stroke-width:0.500;fill:#e6e6e6;fill-rule:evenodd" d="M-2000.00,-2000.00L2297.00,-2000.00L2297.00,2210.00L-2000.00,2210.00zM0.00,0.00L297.00,0.00L297.00,210.00L0.00,210.00z"/><path style="fill:#000000;fill-opacity:0.118" d="M3.00,210.00L297.00,210.00L297.00,3.00L300.00,3.00L300.00,213.00L3.00,213.00z"/></g><g id="hotspot.0" ident="" onmouseover="ShowHotSpot(evt,'0')" onmouseout="HideHotSpot(evt,'0')" onmousemove="ShowToolTip(evt,'0',&quot;socket countersunk head screw_iso&quot;)" opacity="0"><path style="fill:#00ff00;fill-rule:evenodd" d="M170.39,15.43L183.34,20.95L192.42,28.37L197.10,37.04L197.08,48.58L196.71,54.10L190.81,63.13L182.19,69.05L174.56,73.60L174.32,89.07L173.73,90.09L174.32,91.65L174.32,96.14L173.74,97.16L174.31,99.12L174.32,103.60L173.87,104.36L174.31,106.20L174.32,110.67L173.73,111.70L174.32,113.26L174.32,117.74L173.74,118.77L174.31,120.73L174.32,125.21L173.87,125.97L174.31,127.80L174.32,132.28L173.74,133.30L174.31,135.27L174.31,139.74L173.74,140.38L174.31,142.34L174.32,146.82L173.73,147.84L174.32,149.40L174.32,153.89L173.74,154.91L174.31,156.87L174.30,163.56L173.93,168.43L171.00,172.97L162.91,178.23L155.73,180.87L152.56,181.24L143.65,181.24L139.70,180.48L135.00,178.89L125.99,173.37L122.80,169.09L122.44,167.10L122.43,162.87L122.83,161.95L122.43,161.23L122.43,155.80L122.82,154.89L122.41,153.77L122.43,148.34L122.83,147.41L122.43,146.70L122.43,141.26L122.82,140.35L122.41,139.23L122.43,126.73L122.83,125.80L122.43,125.09L122.43,119.66L122.82,118.74L122.41,117.62L122.43,105.12L122.82,104.21L122.41,103.09L122.49,97.70L122.83,97.15L122.41,96.01L122.43,90.59L122.83,89.66L122.43,88.95L122.08,73.56L107.93,64.93L101.27,57.05L100.80,56.34L99.26,48.85L99.24,38.74L102.43,30.54L110.52,22.52L123.89,16.24L137.63,13.10L155.04,12.71z"/></g><g id="ToolTip" visibility="hidden" opacity="0" transform="translate(0,0)"><rect id="ToolTipShadow" opacity="0.20" fill="black" stroke="none" x="0" y="0" width="30" height="8"/><rect id="ToolTipBG" fill="#ffffe1" stroke="black" x="0" y="0" width="30" height="8"/><text xml:space="preserve" id="ToolTipText" fill="black" x="0" y="0" width="30" height="8">tooltip</text></g></g></svg>
