<?xml version="1.0" encoding="UTF-8" standalone="no"?>
<svg xmlns="http://www.w3.org/2000/svg" xmlns:xlink="http://www.w3.org/1999/xlink" width="297.000mm" height="210.000mm" viewBox="0.000000 0.000000 297.000000 210.000000" stroke-linejoin="round" stroke-linecap="round" fill="none" fill-rule="evenodd"><desc>Composer Export</desc><script type="text/ecmascript"><![CDATA[
if(typeof(top) != "undefined")
{
	top.ShowPaper = ShowPaper;
}
function ShowHotSpot(evt,hotspotid)
{
	var svgDocument = evt.target.ownerDocument;
	var strId = "hotspot."+hotspotid;
	var hotspot = svgDocument.getElementById(strId);
	if(hotspot)
		hotspot.setAttribute("opacity",".5");
}
function HideHotSpot(evt,hotspotid)
{
	var svgDocument = evt.target.ownerDocument;
	var strId = "hotspot."+hotspotid;
	var hotspot = svgDocument.getElementById(strId);
	if(hotspot)
		hotspot.setAttribute("opacity","0");

	var toolTip = svgDocument.getElementById('ToolTip');
	if(toolTip)
		toolTip.setAttribute("visibility","hidden");
}
function ShowToolTip(evt,hotspotid,strTooltip)
{
	if(strTooltip=="")
	return;

	// change text
	var svgDocument = evt.target.ownerDocument;
	var tiptext = svgDocument.getElementById('ToolTipText');
	if( !tiptext )
	return;
	tiptext.firstChild.nodeValue = " " + strTooltip + "  " ;

	// show tooltip before, else some refresh issue

	var toolTip = svgDocument.getElementById('ToolTip');
	if(!toolTip)
	return;

	toolTip.setAttribute("visibility","visible");
	toolTip.setAttribute("opacity",".95");

	// move tooltip
	// get viewbox

	var root = svgDocument.documentElement;
	var vbox = (root.getAttribute("viewBox")).split(' ');
	var x0 = parseFloat(vbox[0]);
	var y0 = parseFloat(vbox[1]);
	var vboxW = parseFloat(vbox[2]);
	var vboxH = parseFloat(vbox[3]);

	// get default width of svg

	var strW = root.getAttribute("width");
	var svgW = parseFloat(strW);
	if(strW.indexOf('mm') != -1)
	svgW *= 3.779;

	var strH = root.getAttribute("height");
	var svgH = parseFloat(strH);
	if(strH.indexOf('mm') != -1)
	svgH *= 3.779;  	// 96 dpi  -> 96/25.4 = 3.779

	// update the viewbox / width / height if svg is embedded in html with zoom fit all
	var realx0 = x0;
	var realy0 = y0;
	var realvboxW = vboxW;
	var realvboxH = vboxH;
	var realsvgW = svgW;
	var realsvgH = svgH;

	if ((typeof(top) == "undefined") || (typeof(top.svgctl1) != "undefined")) // embedded in html
	{
		// get window size in pxl

		svgW = window.innerWidth;
		svgH = window.innerHeight;

		// calculate real viewbox

		realsvgW = svgW;
		realsvgH = svgH;
		if((svgW / svgH) > (vboxW / vboxH))
		{
			realvboxW = (vboxH * svgW) / svgH;
			realvboxH = vboxH;
			realx0 = x0 - (realvboxW - vboxW)/2 ;
		}
		else
		{
			realvboxH = (vboxW * svgH) / svgW;
			realvboxW = vboxW;
			realy0 = y0 - (realvboxH - vboxH)/2 ;
		}
	}

	// get user zoom/pan

	var newScale = root.currentScale;
	var translation = root.currentTranslate;

	// transform pxl to user unit

	var xPos = (((evt.clientX+10- translation.x)/newScale) * realvboxW)/realsvgW  + realx0 ;
	var yPos = (((evt.clientY+5- translation.y)/newScale) * realvboxH)/ realsvgH  + realy0 ;
	var scaleForWidth = ( (1 / newScale) * realvboxH) / realsvgH;

	// move tooltip

	toolTip.setAttribute("transform", "translate(" + xPos + "," + yPos + ")" );

	// resize tooltip

	var fontsize = 12;
	tiptext.setAttribute("font-size",fontsize*scaleForWidth);
	tiptext.setAttribute("y", fontsize*scaleForWidth);
	var tipBG = svgDocument.getElementById('ToolTipBG');
	var outline = tiptext.getBBox();
	if(tipBG)
	{
		tipBG.setAttribute("stroke-width", 1*scaleForWidth);
		tipBG.setAttribute("width", Number(outline.width) );
		tipBG.setAttribute("height", Number(outline.height) + fontsize*.5*scaleForWidth );
	}
	var ToolTipShadow = svgDocument.getElementById('ToolTipShadow');
	if(ToolTipShadow)
	{
		ToolTipShadow.setAttribute("width", Number(outline.width) );
		ToolTipShadow.setAttribute("height", Number(outline.height) + fontsize*.5*scaleForWidth );
		ToolTipShadow.setAttribute("x", 3*scaleForWidth);
		ToolTipShadow.setAttribute("y", 3*scaleForWidth);
	}
}
function ShowPaper()
{
  var svgDocument = getDocument();
  var paper = svgDocument.getElementById("paperID");
  if(paper)
  {
    paper.setAttribute("transform","scale(1)");
    paper.setAttribute("opacity","1");
    paper.setAttribute("visibility","visible");
  }
  var svg = svgDocument.getRootElement();
  if(svg)
  {
    svg.setAttribute("width","307.000mm");
    svg.setAttribute("height","220.000mm");
    svg.setAttribute("viewBox","-5.000000 -5.000000 307.000000 220.000000");
  }
}
]]></script><defs/><g><g id="Actor_61.0"><g style="stroke:#000020;stroke-width:0.079"><path d="M109.08,24.60 C114.74,21.13 114.80,21.10 120.63,17.92 C127.59,15.78 127.64,15.79 134.70,13.95 C142.43,13.25 142.47,13.25 150.23,12.84 C157.89,13.62 157.94,13.61 165.55,14.69 C172.31,16.85 172.28,17.00 179.00,19.32 C179.20,19.42 179.19,19.43 179.38,19.54 C179.83,19.85 179.83,19.85 180.28,20.16 "/><path d="M195.75,43.93 C195.47,44.79 195.47,44.79 195.15,45.64 C193.22,49.15 193.24,49.17 191.26,52.64 C190.57,53.42 190.55,53.42 189.81,54.15 C185.98,57.12 185.97,57.13 182.10,60.05 C181.06,60.65 181.05,60.65 179.97,61.21 C174.64,63.30 174.64,63.29 169.28,65.33 C168.00,65.71 168.00,65.71 166.70,66.04 C160.45,67.01 160.45,67.00 154.18,67.93 C152.81,68.04 152.81,68.05 151.43,68.12 C144.94,67.86 144.94,67.85 138.45,67.55 C137.13,67.41 137.12,67.42 135.81,67.23 C129.79,65.76 129.78,65.76 123.77,64.25 C122.66,63.87 122.66,63.88 121.57,63.46 C116.65,60.94 116.64,60.94 111.75,58.37 C110.95,57.81 110.95,57.81 110.18,57.21 C106.91,53.90 106.90,53.90 103.69,50.55 C103.28,49.89 103.29,49.87 102.94,49.18 C101.67,45.42 101.67,45.42 100.45,41.65 "/><path d="M122.83,169.86 C124.70,172.15 124.71,172.17 126.67,174.39 C128.04,175.39 128.07,175.38 129.50,176.32 C131.16,177.16 131.16,177.18 132.85,177.95 C136.75,179.10 136.76,179.15 140.69,180.17 C145.01,180.57 145.03,180.56 149.36,180.79 C153.64,180.36 153.66,180.36 157.91,179.76 C161.68,178.55 161.71,178.55 165.42,177.18 C168.28,175.34 168.31,175.32 171.06,173.33 "/><path d="M124.42,166.54 C126.88,168.66 126.91,168.68 129.50,170.65 C133.00,172.20 133.04,172.19 136.61,173.58 C139.73,174.19 139.75,174.19 142.90,174.66 "/><path d="M171.06,158.88 C168.31,160.88 168.28,160.90 165.42,162.73 C161.71,164.11 161.68,164.11 157.91,165.31 C153.66,165.92 153.64,165.84 149.36,166.35 C149.22,166.34 149.22,166.34 149.08,166.33 C144.89,166.03 144.87,166.11 140.69,165.72 C136.76,164.70 136.75,164.66 132.85,163.51 C131.16,162.74 131.16,162.71 129.50,161.87 C128.07,160.93 128.04,160.95 126.67,159.94 C124.71,157.72 124.70,157.71 122.83,155.41 "/><path d="M171.06,166.11 C168.31,168.10 168.28,168.12 165.42,169.96 C161.92,171.26 161.87,171.18 158.32,172.40 C158.12,172.47 158.12,172.48 157.91,172.54 C153.64,173.06 153.64,173.14 149.36,173.57 C145.03,173.34 145.01,173.34 140.69,172.95 C136.76,171.93 136.75,171.88 132.85,170.73 C131.16,169.96 131.16,169.94 129.50,169.10 C128.07,168.15 128.04,168.17 126.67,167.17 C124.71,164.95 124.70,164.93 122.83,162.63 "/><path d="M122.83,148.19 C124.70,150.48 124.71,150.50 126.67,152.72 C128.04,153.73 128.07,153.71 129.50,154.65 C131.16,155.49 131.16,155.51 132.85,156.29 C136.75,157.44 136.76,157.48 140.69,158.50 C144.87,158.89 144.89,158.80 149.08,159.11 C149.22,159.12 149.22,159.12 149.36,159.13 C153.64,158.61 153.66,158.69 157.91,158.09 C161.68,156.89 161.71,156.89 165.42,155.51 C168.28,153.67 168.31,153.65 171.06,151.66 "/><path d="M168.52,155.27 C165.24,156.97 165.21,156.98 161.85,158.53 C157.82,159.53 157.79,159.53 153.71,160.36 C149.36,160.55 149.34,160.55 144.98,160.57 C140.79,159.93 140.77,159.93 136.61,159.13 C133.03,157.75 133.00,157.75 129.50,156.20 C126.91,154.24 126.88,154.21 124.42,152.09 "/><path d="M122.83,140.96 C124.70,143.26 124.71,143.28 126.67,145.50 C128.04,146.50 128.07,146.48 129.50,147.43 C131.16,148.27 131.16,148.29 132.85,149.06 C136.75,150.21 136.76,150.25 140.69,151.28 C144.87,151.66 144.89,151.58 149.08,151.88 C149.22,151.89 149.22,151.90 149.36,151.90 C153.64,151.39 153.66,151.47 157.91,150.87 C161.68,149.66 161.71,149.66 165.42,148.29 C168.28,146.45 168.31,146.43 171.06,144.44 "/><path d="M124.42,144.87 C126.88,146.99 126.91,147.01 129.50,148.98 C133.00,150.53 133.04,150.51 136.61,151.91 C139.34,152.48 139.36,152.42 142.11,152.92 C142.50,152.96 142.50,152.96 142.90,152.99 "/><path d="M122.83,133.74 C124.70,136.04 124.71,136.05 126.67,138.27 C128.04,139.28 128.07,139.26 129.50,140.20 C131.16,141.04 131.16,141.07 132.85,141.84 C136.75,142.99 136.76,143.03 140.69,144.05 C144.87,144.44 144.89,144.36 149.08,144.66 C149.22,144.67 149.22,144.67 149.36,144.68 C153.64,144.17 153.66,144.25 157.91,143.64 C161.68,142.44 161.71,142.44 165.42,141.06 C168.28,139.23 168.31,139.21 171.06,137.21 "/><path d="M122.83,126.52 C124.70,128.81 124.71,128.83 126.67,131.05 C128.04,132.06 128.07,132.04 129.50,132.98 C131.16,133.82 131.16,133.84 132.85,134.62 C136.75,135.77 136.76,135.81 140.69,136.83 C144.87,137.22 144.89,137.13 149.08,137.44 C149.22,137.45 149.22,137.45 149.36,137.46 C153.64,136.94 153.66,137.02 157.91,136.42 C161.68,135.22 161.71,135.22 165.42,133.84 C168.28,132.00 168.31,131.98 171.06,129.99 "/><path d="M124.42,130.43 C126.88,132.54 126.91,132.57 129.50,134.53 C133.00,136.08 133.04,136.07 136.61,137.46 C139.73,138.07 139.75,138.08 142.90,138.54 "/><path d="M122.83,119.30 C124.70,121.59 124.71,121.61 126.67,123.83 C128.04,124.84 128.07,124.82 129.50,125.76 C131.16,126.60 131.16,126.62 132.85,127.40 C136.75,128.55 136.76,128.59 140.69,129.61 C144.87,129.99 144.89,129.91 149.08,130.21 C149.22,130.22 149.22,130.23 149.36,130.23 C153.64,129.72 153.66,129.80 157.91,129.20 C161.68,127.99 161.71,127.99 165.42,126.62 C168.28,124.78 168.31,124.76 171.06,122.77 "/><path d="M168.52,126.37 C165.24,128.08 165.21,128.09 161.85,129.64 C157.82,130.64 157.79,130.64 153.71,131.47 C149.36,131.66 149.34,131.66 144.98,131.68 C140.79,131.04 140.77,131.04 136.61,130.24 C133.03,128.86 133.00,128.86 129.50,127.31 C126.91,125.35 126.88,125.32 124.42,123.20 "/><path d="M122.83,112.07 C124.70,114.37 124.71,114.38 126.67,116.60 C128.04,117.61 128.07,117.59 129.50,118.54 C131.16,119.38 131.16,119.40 132.85,120.17 C136.75,121.32 136.76,121.36 140.69,122.39 C144.87,122.77 144.89,122.69 149.08,122.99 C149.22,123.00 149.22,123.01 149.36,123.01 C153.64,122.50 153.66,122.58 157.91,121.98 C161.68,120.77 161.71,120.77 165.42,119.39 C168.28,117.56 168.31,117.54 171.06,115.55 "/><path d="M124.42,115.98 C126.88,118.10 126.91,118.12 129.50,120.08 C133.00,121.63 133.04,121.61 136.61,123.01 C139.34,123.58 139.36,123.53 142.11,124.03 C142.50,124.07 142.50,124.07 142.90,124.10 "/><path d="M142.90,167.43 C139.75,166.97 139.73,166.97 136.61,166.35 C133.04,164.96 133.00,164.97 129.50,163.42 C126.91,161.46 126.88,161.43 124.42,159.32 "/><path d="M124.42,137.65 C126.88,139.77 126.91,139.79 129.50,141.75 C133.00,143.30 133.04,143.29 136.61,144.68 C139.73,145.30 139.75,145.30 142.90,145.77 "/><path d="M124.42,108.76 C126.88,110.87 126.91,110.90 129.50,112.86 C133.00,114.41 133.04,114.40 136.61,115.79 C139.73,116.40 139.75,116.41 142.90,116.87 "/><path d="M142.90,124.10 C143.93,124.29 143.94,124.30 144.98,124.45 C147.07,124.51 147.07,124.51 149.16,124.53 C150.27,124.44 150.28,124.44 151.39,124.31 "/><path d="M151.39,174.87 C152.55,174.87 152.56,174.87 153.71,174.81 C157.78,173.92 157.82,173.97 161.85,172.97 C165.21,171.43 165.24,171.42 168.52,169.71 "/><path d="M151.39,145.98 C152.55,145.98 152.56,145.98 153.71,145.92 C157.78,145.03 157.82,145.08 161.85,144.08 C165.21,142.54 165.24,142.53 168.52,140.82 "/><path d="M151.39,138.76 C152.55,138.76 152.56,138.76 153.71,138.69 C157.78,137.81 157.82,137.86 161.85,136.86 C165.21,135.32 165.24,135.30 168.52,133.60 "/><path d="M151.39,124.31 C152.55,124.31 152.56,124.31 153.71,124.25 C157.78,123.36 157.82,123.41 161.85,122.41 C165.21,120.87 165.24,120.86 168.52,119.15 "/><path d="M151.39,117.09 C152.55,117.09 152.56,117.09 153.71,117.02 C157.78,116.14 157.82,116.19 161.85,115.19 C165.21,113.65 165.24,113.63 168.52,111.93 "/><path d="M151.39,167.65 C152.55,167.65 152.56,167.65 153.71,167.58 C157.78,166.70 157.82,166.75 161.85,165.75 C165.21,164.21 165.24,164.19 168.52,162.49 "/><path d="M168.52,148.04 C165.24,149.75 165.21,149.76 161.85,151.30 C157.82,152.31 157.78,152.25 153.71,153.14 C152.56,153.20 152.55,153.20 151.39,153.20 "/><path d="M195.76,35.61 C195.83,35.93 195.83,35.93 195.88,36.26 C196.22,40.88 196.27,40.88 196.55,45.50 C196.60,66.08 196.60,70.66 196.55,86.67 "/><path d="M99.65,83.20 L99.65,43.18 L101.76,33.36 L102.12,32.82 L109.08,24.60 "/><path d="M180.28,20.16 L179.00,19.32 "/><path d="M181.19,20.77 L180.28,20.16 L189.37,26.37 L190.55,27.96 L195.10,34.84 L195.40,36.58 L195.75,43.93 "/><path d="M100.45,41.65 L100.61,40.22 L102.40,32.63 L103.44,31.31 L109.32,24.46 "/><path d="M123.54,171.39 L122.83,169.86 L121.75,164.85 L121.75,166.45 L122.83,169.86 "/><path d="M171.06,173.33 L174.24,168.63 L172.11,172.55 "/><path d="M121.75,164.85 L122.50,162.81 L122.44,162.69 L121.75,164.85 "/><path d="M122.50,162.81 L124.42,166.54 "/><path d="M142.90,174.66 L142.11,174.59 L136.61,173.58 "/><path d="M174.04,148.05 L174.60,149.14 L174.24,154.18 L171.06,158.88 "/><path d="M122.83,155.41 L122.02,151.65 L121.93,154.48 L122.50,155.58 L121.75,157.63 L122.02,158.88 L121.93,161.71 L122.44,162.69 "/><path d="M174.04,155.27 L174.60,156.37 L174.24,161.41 L171.06,166.11 "/><path d="M122.83,162.63 L122.02,158.88 "/><path d="M121.98,160.04 L121.75,157.63 "/><path d="M121.98,152.82 L121.75,150.41 L122.02,151.65 "/><path d="M121.75,150.41 L122.50,148.36 L121.93,147.26 L122.02,144.43 L122.83,148.19 "/><path d="M171.06,151.66 L174.24,146.96 L174.60,141.92 L174.78,146.00 L172.99,150.93 L168.52,155.27 "/><path d="M124.42,152.09 L122.50,148.36 "/><path d="M121.98,145.60 L121.75,143.18 L122.02,144.43 "/><path d="M121.75,143.18 L122.50,141.14 L121.93,140.04 L122.02,137.21 L122.83,140.96 "/><path d="M171.06,144.44 L174.24,139.74 L174.60,134.70 L174.04,133.61 "/><path d="M122.50,141.14 L124.42,144.87 "/><path d="M142.90,152.99 L136.66,151.93 "/><path d="M122.02,137.21 L121.75,135.96 L121.98,138.37 "/><path d="M121.75,135.96 L122.50,133.91 L121.93,132.81 L122.02,129.98 L122.83,133.74 "/><path d="M171.06,137.21 L174.24,132.51 L174.60,127.47 L174.04,126.38 "/><path d="M121.98,131.15 L121.75,128.74 L122.50,126.69 L121.93,125.59 L122.02,122.76 L122.83,126.52 "/><path d="M171.06,129.99 L174.24,125.29 L174.60,120.25 L174.04,119.16 "/><path d="M122.02,129.98 L121.75,128.74 "/><path d="M122.50,126.69 L124.42,130.43 "/><path d="M142.90,138.54 L142.11,138.47 "/><path d="M121.98,123.93 L121.75,121.51 L122.02,122.76 "/><path d="M121.75,121.51 L122.50,119.47 L121.93,118.37 L122.02,115.54 L122.83,119.30 "/><path d="M171.06,122.77 L174.24,118.07 L174.60,113.08 L174.78,117.11 L172.99,122.04 L168.52,126.37 "/><path d="M124.42,123.20 L122.50,119.47 "/><path d="M121.98,116.71 L121.75,114.29 L122.02,115.54 "/><path d="M121.75,114.29 L122.50,112.24 L121.93,111.14 L122.02,108.32 L122.83,112.07 "/><path d="M171.06,115.55 L174.24,110.85 L174.56,106.37 "/><path d="M122.50,112.24 L124.42,115.98 "/><path d="M142.90,124.10 L136.66,123.04 "/><path d="M121.98,109.48 L121.75,107.07 L122.02,108.32 "/><path d="M121.75,107.07 L121.91,106.62 "/><path d="M136.61,166.35 L142.11,167.36 L142.90,167.43 "/><path d="M124.42,159.32 L122.50,155.58 "/><path d="M122.50,133.91 L124.42,137.65 "/><path d="M142.90,145.77 L142.11,145.70 L136.61,144.68 "/><path d="M123.46,36.92 L129.78,50.53 L155.03,54.44 L173.52,43.77 L166.76,29.18 L141.50,25.27 L123.01,35.95 L123.46,36.92 "/><path d="M123.76,107.46 L124.42,108.76 "/><path d="M142.90,116.87 L142.11,116.80 L136.61,115.79 "/><path d="M128.01,175.72 L131.79,177.92 "/><path d="M130.17,50.59 L141.50,44.05 L141.50,25.27 "/><path d="M137.40,51.71 L135.10,47.99 "/><path d="M142.90,160.21 L142.11,160.14 L136.61,159.13 "/><path d="M136.61,137.46 L142.07,138.46 "/><path d="M142.90,131.32 L142.11,131.25 L136.61,130.24 "/><path d="M141.50,44.05 L166.36,47.90 "/><path d="M142.90,174.66 L144.98,175.01 L151.39,174.87 L149.16,175.09 L144.98,175.01 "/><path d="M142.90,167.43 L144.98,167.79 L151.39,167.65 L149.16,167.87 L144.98,167.79 "/><path d="M142.90,152.99 L144.98,153.34 L151.39,153.20 L149.16,153.43 L144.98,153.34 "/><path d="M142.90,145.77 L144.98,146.12 L151.39,145.98 L149.16,146.20 L144.98,146.12 "/><path d="M142.90,138.54 L144.98,138.90 L151.39,138.76 L149.16,138.98 L144.98,138.90 "/><path d="M151.39,124.31 L144.98,124.45 "/><path d="M142.90,116.87 L144.98,117.23 L151.39,117.09 L149.16,117.31 L144.98,117.23 "/><path d="M151.39,160.43 L149.16,160.65 L144.98,160.57 "/><path d="M151.39,131.53 L149.16,131.76 L144.98,131.68 "/><path d="M168.52,169.71 L172.99,165.38 L174.78,160.44 L174.60,156.37 "/><path d="M168.52,140.82 L172.99,136.49 L174.78,131.55 L174.60,127.47 "/><path d="M168.52,133.60 L172.99,129.27 L174.78,124.33 L174.60,120.25 "/><path d="M168.52,119.15 L172.99,114.82 L174.04,111.94 L174.60,113.08 "/><path d="M168.52,111.93 L172.99,107.60 L173.22,106.95 "/><path d="M168.52,162.49 L172.99,158.16 L174.78,153.22 L174.60,149.14 "/><path d="M174.60,134.70 L174.78,138.77 L172.99,143.71 L168.52,148.04 "/><path d="M154.13,46.01 L152.12,53.99 "/><path d="M163.53,178.68 L167.04,176.65 "/><path d="M166.76,29.18 L166.76,47.67 "/><path d="M174.24,168.63 L174.60,163.85 L174.60,167.71 L174.24,168.63 "/><path d="M174.08,162.38 L174.24,162.67 L174.60,163.59 L174.04,162.50 "/><path d="M174.60,141.92 L174.04,140.83 "/><path d="M174.04,111.94 L174.78,109.88 L174.63,106.40 "/><path d="M174.60,163.59 L174.60,163.85 "/><path d="M186.06,24.10 L189.64,26.54 L195.76,35.61 "/><path d="M130.363 50.624 a22.649 13.077 -0.000 0 1 33.666 -1.377"/><path d="M163.525 178.677 a21.576 12.457 -0.000 0 1 -31.732 -0.760"/><path d="M172.106 172.550 a26.539 15.322 -180.000 0 1 -48.561 -1.159"/><path d="M196.546 86.669 a48.655 28.091 -0.000 0 1 -96.936 -3.474"/></g></g><g id="paperID" visibility="hidden" opacity="0.00" transform="scale(0.000100)"><path style="stroke:#000000;stroke-width:0.500;fill:#e6e6e6;fill-rule:evenodd" d="M-2000.00,-2000.00L2297.00,-2000.00L2297.00,2210.00L-2000.00,2210.00zM0.00,0.00L297.00,0.00L297.00,210.00L0.00,210.00z"/><path style="fill:#000000;fill-opacity:0.118" d="M3.00,210.00L297.00,210.00L297.00,3.00L300.00,3.00L300.00,213.00L3.00,213.00z"/></g><g id="hotspot.0" ident="" onmouseover="ShowHotSpot(evt,'0')" onmouseout="HideHotSpot(evt,'0')" onmousemove="ShowToolTip(evt,'0',&quot;socket head cap screw_iso&quot;)" opacity="0"><path style="fill:#00ff00;fill-rule:evenodd" d="M164.87,14.67L179.00,19.39L189.66,26.81L195.92,36.26L196.29,41.38L196.32,87.10L191.95,95.70L182.77,103.02L175.09,106.34L174.70,110.27L174.14,111.71L174.70,113.66L174.70,117.34L174.26,118.50L174.26,119.97L174.70,121.12L174.70,124.80L174.14,126.25L174.70,128.20L174.70,131.88L174.14,133.32L174.69,135.67L174.71,139.35L174.26,140.11L174.26,141.58L174.70,142.73L174.70,146.41L174.14,147.85L174.70,149.80L174.70,153.48L174.14,154.93L174.69,157.28L174.71,160.96L174.25,161.73L174.31,168.81L172.34,172.34L168.04,175.89L165.48,177.66L158.47,180.87L152.56,182.03L143.25,182.04L136.97,180.46L129.90,176.92L127.19,174.92L123.52,171.51L122.02,167.51L122.02,164.06L122.43,162.72L122.04,162.02L122.02,156.98L122.43,155.65L122.04,154.95L122.03,149.53L122.48,148.24L122.03,147.47L122.02,142.45L122.43,141.11L122.04,140.41L122.02,135.38L122.47,133.70L122.09,133.29L122.03,127.92L122.48,126.63L122.03,125.87L122.02,120.84L122.43,119.51L122.04,118.81L122.02,113.77L122.48,112.09L122.03,111.33L121.65,106.60L111.06,101.47L102.81,93.22L100.02,85.41L100.04,41.51L102.02,32.88L109.34,24.48L121.12,17.80L133.69,14.26L147.06,13.10L151.90,13.10z"/></g><g id="ToolTip" visibility="hidden" opacity="0" transform="translate(0,0)"><rect id="ToolTipShadow" opacity="0.20" fill="black" stroke="none" x="0" y="0" width="30" height="8"/><rect id="ToolTipBG" fill="#ffffe1" stroke="black" x="0" y="0" width="30" height="8"/><text xml:space="preserve" id="ToolTipText" fill="black" x="0" y="0" width="30" height="8">tooltip</text></g></g></svg>
