<?xml version="1.0" encoding="utf-8"?>
<!-- Generator: Adobe Illustrator 16.0.4, SVG Export Plug-In . SVG Version: 6.00 Build 0)  -->
<!DOCTYPE svg PUBLIC "-//W3C//DTD SVG 1.1//EN" "http://www.w3.org/Graphics/SVG/1.1/DTD/svg11.dtd" [
	<!ENTITY ns_extend "http://ns.adobe.com/Extensibility/1.0/">
	<!ENTITY ns_ai "http://ns.adobe.com/AdobeIllustrator/10.0/">
	<!ENTITY ns_graphs "http://ns.adobe.com/Graphs/1.0/">
	<!ENTITY ns_vars "http://ns.adobe.com/Variables/1.0/">
	<!ENTITY ns_imrep "http://ns.adobe.com/ImageReplacement/1.0/">
	<!ENTITY ns_sfw "http://ns.adobe.com/SaveForWeb/1.0/">
	<!ENTITY ns_custom "http://ns.adobe.com/GenericCustomNamespace/1.0/">
	<!ENTITY ns_adobe_xpath "http://ns.adobe.com/XPath/1.0/">
]>
<svg version="1.1" id="Ebene_1" xmlns:x="&ns_extend;" xmlns:i="&ns_ai;" xmlns:graph="&ns_graphs;"
	 xmlns="http://www.w3.org/2000/svg" xmlns:xlink="http://www.w3.org/1999/xlink" x="0px" y="0px" width="18px"
	 height="18px" viewBox="0 0 56.692 56.692" enable-background="new 0 0 56.692 56.692" xml:space="preserve">
<metadata>
	<sfw  xmlns="&ns_sfw;">
		<slices></slices>
		<sliceSourceBounds  height="56.692" width="56.692" y="376.776" x="273.386" bottomLeftOrigin="true"></sliceSourceBounds>
	</sfw>
</metadata>
<path fill="#000000" d="M28.345,0C12.691,0,0,12.69,0,28.345S12.691,56.69,28.345,56.69c15.654,0,28.347-12.691,28.347-28.346
	S43.999,0,28.345,0z M18.991,47.265c-3.408,2.389-9.937,1.434-14.422-9.141c-5.33-12.569,3.148-22.786,3.148-22.786
	s-0.443,11.858,5.885,15.654C20.287,35,25.178,42.933,18.991,47.265z M18.718,9.556c0-4.158,4.53-8.959,15.761-6.566
	c13.352,2.847,16.854,15.651,16.854,15.651s-9.458-7.167-16.197-4.158C28.022,17.656,18.718,17.11,18.718,9.556z M28.438,52.929
	c0,0,10.261-5.955,10.09-13.335c-0.178-7.789,3.919-16.159,10.887-13.241c3.835,1.606,6.516,7.637-0.032,17.074
	C41.602,54.646,28.438,52.929,28.438,52.929z"/>
</svg>
