<?xml version="1.0" encoding="utf-8"?>
<!-- Generator: Adobe Illustrator 16.0.4, SVG Export Plug-In . SVG Version: 6.00 Build 0)  -->
<!DOCTYPE svg PUBLIC "-//W3C//DTD SVG 1.1//EN" "http://www.w3.org/Graphics/SVG/1.1/DTD/svg11.dtd" [
	<!ENTITY ns_extend "http://ns.adobe.com/Extensibility/1.0/">
	<!ENTITY ns_ai "http://ns.adobe.com/AdobeIllustrator/10.0/">
	<!ENTITY ns_graphs "http://ns.adobe.com/Graphs/1.0/">
	<!ENTITY ns_vars "http://ns.adobe.com/Variables/1.0/">
	<!ENTITY ns_imrep "http://ns.adobe.com/ImageReplacement/1.0/">
	<!ENTITY ns_sfw "http://ns.adobe.com/SaveForWeb/1.0/">
	<!ENTITY ns_custom "http://ns.adobe.com/GenericCustomNamespace/1.0/">
	<!ENTITY ns_adobe_xpath "http://ns.adobe.com/XPath/1.0/">
]>
<svg version="1.1" id="Ebene_1" xmlns:x="&ns_extend;" xmlns:i="&ns_ai;" xmlns:graph="&ns_graphs;"
	 xmlns="http://www.w3.org/2000/svg" xmlns:xlink="http://www.w3.org/1999/xlink" x="0px" y="0px" width="18px"
	 height="18px" viewBox="0 0 56.693 56.693" enable-background="new 0 0 56.693 56.693" xml:space="preserve">
<metadata>
	<sfw  xmlns="&ns_sfw;">
		<slices></slices>
		<sliceSourceBounds  height="56.693" width="56.693" y="-169.993" x="113.109" bottomLeftOrigin="true"></sliceSourceBounds>
	</sfw>
</metadata>
<path fill="#000000" d="M28.348,56.693C12.717,56.693,0,43.977,0,28.347C0,12.716,12.717,0,28.348,0
	c15.629,0,28.345,12.716,28.345,28.347C56.693,43.977,43.977,56.693,28.348,56.693z M28.348,2.115
	c-14.466,0-26.233,11.768-26.233,26.232c0,14.466,11.768,26.235,26.233,26.235c14.465,0,26.233-11.769,26.233-26.235
	C54.582,13.882,42.813,2.115,28.348,2.115z"/>
<g>
	<path fill="#000000" d="M2.311,28.347c0-14.377,11.659-26.253,26.038-26.253c0-0.418,0-0.784,0-1.036
		c-15.072,0-27.291,12.217-27.291,27.289c0,15.071,12.219,27.291,27.291,27.291c0-0.215,0-0.587,0-1.082
		C14.03,54.481,2.311,42.68,2.311,28.347z"/>
	<path fill="#000000" d="M5.192,28.347c0,11.794,9.286,21.599,20.273,22.976c1.242,0.156,2.34,0.15,2.883,0.136
		c0-10.262,0-35.727,0-46.248c-0.796,0.006-2.082,0.033-2.883,0.162C14.053,6.796,5.192,16.556,5.192,28.347z"/>
</g>
</svg>
