<?xml version="1.0" encoding="utf-8"?>
<!-- Generator: Adobe Illustrator 16.0.4, SVG Export Plug-In . SVG Version: 6.00 Build 0)  -->
<!DOCTYPE svg PUBLIC "-//W3C//DTD SVG 1.1//EN" "http://www.w3.org/Graphics/SVG/1.1/DTD/svg11.dtd" [
	<!ENTITY ns_extend "http://ns.adobe.com/Extensibility/1.0/">
	<!ENTITY ns_ai "http://ns.adobe.com/AdobeIllustrator/10.0/">
	<!ENTITY ns_graphs "http://ns.adobe.com/Graphs/1.0/">
	<!ENTITY ns_vars "http://ns.adobe.com/Variables/1.0/">
	<!ENTITY ns_imrep "http://ns.adobe.com/ImageReplacement/1.0/">
	<!ENTITY ns_sfw "http://ns.adobe.com/SaveForWeb/1.0/">
	<!ENTITY ns_custom "http://ns.adobe.com/GenericCustomNamespace/1.0/">
	<!ENTITY ns_adobe_xpath "http://ns.adobe.com/XPath/1.0/">
]>
<svg version="1.1" id="Ebene_1" xmlns:x="&ns_extend;" xmlns:i="&ns_ai;" xmlns:graph="&ns_graphs;"
	 xmlns="http://www.w3.org/2000/svg" xmlns:xlink="http://www.w3.org/1999/xlink" x="0px" y="0px" width="18px"
	 height="18px" viewBox="0 0 56.693 56.693" enable-background="new 0 0 56.693 56.693" xml:space="preserve">
<metadata>
	<sfw  xmlns="&ns_sfw;">
		<slices></slices>
		<sliceSourceBounds  height="56.693" width="56.693" y="-170.038" x="113.52" bottomLeftOrigin="true"></sliceSourceBounds>
	</sfw>
</metadata>
<g>
	<path fill="#000000" d="M28.347,56.691C12.717,56.691,0,43.976,0,28.347C0,12.717,12.717,0,28.347,0
		c15.632,0,28.347,12.717,28.347,28.347C56.693,43.976,43.979,56.691,28.347,56.691z M28.347,2.362
		c-14.328,0-25.985,11.657-25.985,25.985c0,14.329,11.657,25.984,25.985,25.984c14.328,0,25.986-11.655,25.986-25.984
		C54.333,14.019,42.675,2.362,28.347,2.362z"/>
	<path fill="#000000" d="M28.347,1.181c-15.003,0-27.166,12.163-27.166,27.165c0,15.003,12.163,27.166,27.166,27.166
		c15.002,0,27.166-12.162,27.166-27.166C55.513,13.343,43.349,1.181,28.347,1.181z M28.347,1.883
		c13.173,0,24.07,9.634,26.099,22.235h-9.481C43.08,16.672,36.36,11.154,28.33,11.154c-8.034,0-14.752,5.518-16.638,12.964H2.249
		C4.276,11.517,15.173,1.883,28.347,1.883z M28.347,54.807c-13.172,0-24.07-9.632-26.098-22.231h9.434
		c1.888,7.444,8.613,12.963,16.647,12.963c8.03,0,14.756-5.519,16.644-12.963h9.472C52.417,45.175,41.52,54.807,28.347,54.807z"/>
</g>
</svg>
