<?xml version="1.0" encoding="utf-8"?>
<!-- Generator: Adobe Illustrator 16.0.4, SVG Export Plug-In . SVG Version: 6.00 Build 0)  -->
<!DOCTYPE svg PUBLIC "-//W3C//DTD SVG 1.1//EN" "http://www.w3.org/Graphics/SVG/1.1/DTD/svg11.dtd" [
	<!ENTITY ns_extend "http://ns.adobe.com/Extensibility/1.0/">
	<!ENTITY ns_ai "http://ns.adobe.com/AdobeIllustrator/10.0/">
	<!ENTITY ns_graphs "http://ns.adobe.com/Graphs/1.0/">
	<!ENTITY ns_vars "http://ns.adobe.com/Variables/1.0/">
	<!ENTITY ns_imrep "http://ns.adobe.com/ImageReplacement/1.0/">
	<!ENTITY ns_sfw "http://ns.adobe.com/SaveForWeb/1.0/">
	<!ENTITY ns_custom "http://ns.adobe.com/GenericCustomNamespace/1.0/">
	<!ENTITY ns_adobe_xpath "http://ns.adobe.com/XPath/1.0/">
]>
<svg version="1.1" id="Ebene_1" xmlns:x="&ns_extend;" xmlns:i="&ns_ai;" xmlns:graph="&ns_graphs;"
	 xmlns="http://www.w3.org/2000/svg" xmlns:xlink="http://www.w3.org/1999/xlink" x="0px" y="0px" width="18px"
	 height="18px" viewBox="0 0 56.695 56.695" enable-background="new 0 0 56.695 56.695" xml:space="preserve">
<metadata>
	<sfw  xmlns="&ns_sfw;">
		<slices></slices>
		<sliceSourceBounds  height="56.695" width="56.695" y="-166.021" x="113.653" bottomLeftOrigin="true"></sliceSourceBounds>
	</sfw>
</metadata>
<path fill="#000000" d="M28.348,0C12.692,0,0,12.69,0,28.348c0,15.653,12.692,28.347,28.348,28.347s28.345-12.693,28.345-28.347
	C56.692,12.69,44.003,0,28.348,0z M45.87,30.842c-0.139,1.466-0.5,2.908-1.014,4.281c-0.738,1.981-1.805,3.833-3.008,5.286
	c-0.811,0.973-1.682,1.773-2.557,2.316c-0.074,0.041-0.658-0.295-2.123-1.18c-0.732-0.439-1.688-1.014-2.906-1.748
	c-3.656-2.193-7.037-2.377-11.333-0.09c-0.214,0.113-0.421,0.227-0.626,0.342c-0.832,0.465-1.646,0.969-2.434,1.504
	c-0.719,0.486-1.35,0.947-1.876,1.355c-0.69-0.328-1.252-0.869-1.803-1.387c-0.59-0.559-1.147-1.145-1.66-1.771
	c-0.478-0.576-0.918-1.183-1.318-1.802c-0.248-0.387-0.479-0.772-0.696-1.168c-0.704-1.28-1.223-2.583-1.51-3.801
	c-0.07-0.293-0.126-0.573-0.168-0.851c-0.05-0.34-0.082-0.672-0.089-0.991c-0.003-0.062,0.306-0.256,1.043-0.673
	c0.096-0.054,0.198-0.108,0.308-0.173c0.499-0.276,1.15-0.636,1.979-1.093c0.504-0.277,1.078-0.593,1.719-0.948
	c3.731-2.068,5.582-4.903,5.755-9.765c0.033-0.885,0.033-1.781,0.011-2.637c-0.036-1.358-0.128-2.607-0.251-3.52
	c0.021-0.013,0.04-0.026,0.061-0.037c1.289-0.586,2.708-1,4.149-1.244c1.971-0.333,3.989-0.358,5.777-0.096
	c1.26,0.186,2.527,0.513,3.656,1.123c0.041,0.022,0.057,0.237,0.059,0.706c0,0.384-0.008,0.939-0.021,1.702
	c-0.018,0.857-0.041,1.977-0.068,3.409c-0.031,1.583,0.162,2.998,0.625,4.28c0.242,0.662,0.551,1.285,0.943,1.882
	c0.625,0.959,1.461,1.844,2.523,2.678c0.453,0.354,0.941,0.695,1.477,1.029c0.766,0.48,1.557,0.939,2.324,1.355
	c0.51,0.277,1.004,0.532,1.471,0.763c0.615,0.305,1.18,0.562,1.656,0.759C45.919,30.708,45.896,30.774,45.87,30.842z"/>
</svg>
