<?xml version="1.0" encoding="utf-8"?>
<!-- Generator: Adobe Illustrator 16.0.4, SVG Export Plug-In . SVG Version: 6.00 Build 0)  -->
<!DOCTYPE svg PUBLIC "-//W3C//DTD SVG 1.1//EN" "http://www.w3.org/Graphics/SVG/1.1/DTD/svg11.dtd" [
	<!ENTITY ns_extend "http://ns.adobe.com/Extensibility/1.0/">
	<!ENTITY ns_ai "http://ns.adobe.com/AdobeIllustrator/10.0/">
	<!ENTITY ns_graphs "http://ns.adobe.com/Graphs/1.0/">
	<!ENTITY ns_vars "http://ns.adobe.com/Variables/1.0/">
	<!ENTITY ns_imrep "http://ns.adobe.com/ImageReplacement/1.0/">
	<!ENTITY ns_sfw "http://ns.adobe.com/SaveForWeb/1.0/">
	<!ENTITY ns_custom "http://ns.adobe.com/GenericCustomNamespace/1.0/">
	<!ENTITY ns_adobe_xpath "http://ns.adobe.com/XPath/1.0/">
]>
<svg version="1.1" id="Ebene_2" xmlns:x="&ns_extend;" xmlns:i="&ns_ai;" xmlns:graph="&ns_graphs;"
	 xmlns="http://www.w3.org/2000/svg" xmlns:xlink="http://www.w3.org/1999/xlink" x="0px" y="0px" width="18px"
	 height="18px" viewBox="0 0 56.693 56.693" enable-background="new 0 0 56.693 56.693" xml:space="preserve">
<metadata>
	<sfw  xmlns="&ns_sfw;">
		<slices></slices>
		<sliceSourceBounds  y="300.834" x="131.075" height="56.693" width="56.693" bottomLeftOrigin="true"></sliceSourceBounds>
	</sfw>
</metadata>
<g>
	<circle fill="#000000" cx="28.388" cy="28.183" r="7.806"/>
	<path fill="#000000" d="M28.346,0C12.691,0,0,12.691,0,28.346s12.691,28.347,28.346,28.347s28.347-12.691,28.347-28.347
		S44.001,0,28.346,0z M43.136,32.414c-1.726,3.204,1.15,8.463,1.15,8.463s0.082,1.562-2.958,4.438
		c-3.041,2.875-6.163,2.054-6.163,2.054s-3.614-3.451-6.819-3.615c-3.204-0.164-7.312,3.861-7.312,3.861s-3.368,0-5.833-1.89
		c-2.465-1.89-3.369-4.766-3.369-4.766s2.958-3.943,1.232-8.134c-1.726-4.19-5.833-5.669-5.833-5.669s-1.15-2.712,0.164-5.998
		c1.315-3.287,3.697-4.519,3.697-4.519s5.669,1.561,8.463-1.479c2.794-3.04,2.465-6.573,2.465-6.573s2.3-2.465,6.244-2.218
		c3.944,0.247,5.752,2.054,5.752,2.054s0.082,3.861,2.629,6.491s8.709,1.561,8.709,1.561s2.712,1.89,3.533,4.766
		s-0.082,5.341-0.082,5.341S44.862,29.209,43.136,32.414z"/>
</g>
</svg>
