<?xml version="1.0" encoding="utf-8"?>
<!-- Generator: Adobe Illustrator 16.0.4, SVG Export Plug-In . SVG Version: 6.00 Build 0)  -->
<!DOCTYPE svg PUBLIC "-//W3C//DTD SVG 1.1//EN" "http://www.w3.org/Graphics/SVG/1.1/DTD/svg11.dtd" [
	<!ENTITY ns_extend "http://ns.adobe.com/Extensibility/1.0/">
	<!ENTITY ns_ai "http://ns.adobe.com/AdobeIllustrator/10.0/">
	<!ENTITY ns_graphs "http://ns.adobe.com/Graphs/1.0/">
	<!ENTITY ns_vars "http://ns.adobe.com/Variables/1.0/">
	<!ENTITY ns_imrep "http://ns.adobe.com/ImageReplacement/1.0/">
	<!ENTITY ns_sfw "http://ns.adobe.com/SaveForWeb/1.0/">
	<!ENTITY ns_custom "http://ns.adobe.com/GenericCustomNamespace/1.0/">
	<!ENTITY ns_adobe_xpath "http://ns.adobe.com/XPath/1.0/">
]>
<svg version="1.1" id="Ebene_2" xmlns:x="&ns_extend;" xmlns:i="&ns_ai;" xmlns:graph="&ns_graphs;"
	 xmlns="http://www.w3.org/2000/svg" xmlns:xlink="http://www.w3.org/1999/xlink" x="0px" y="0px" width="18px"
	 height="18px" viewBox="0 0 56.694 56.694" enable-background="new 0 0 56.694 56.694" xml:space="preserve">
<metadata>
	<sfw  xmlns="&ns_sfw;">
		<slices></slices>
		<sliceSourceBounds  height="56.694" width="56.694" y="375.195" x="228.652" bottomLeftOrigin="true"></sliceSourceBounds>
	</sfw>
</metadata>
<path fill="#000000" d="M0,28.346C0,12.691,12.692,0,28.348,0c15.654,0,28.346,12.691,28.346,28.346S44.002,56.694,28.348,56.694
	C12.692,56.694,0,44.001,0,28.346z M33,18.659V7.825c-0.728-0.286-4.451-0.673-4.451-0.673c-1.742,0-4.336,0.451-4.9,0.673v10.879
	l-1.85,3.125l-3.207,1.708H7.759c-0.287,0.729-0.674,4.451-0.674,4.451c0,1.741,0.452,4.335,0.674,4.9l10.901,0.022l3.141,1.908
	l1.849,3.217v10.832c0.729,0.288,4.451,0.675,4.451,0.675c1.741,0,4.335-0.45,4.9-0.675V37.988l1.895-3.224l3.207-1.833h10.834
	c0.287-0.728,0.674-4.45,0.674-4.45c0-1.741-0.452-4.335-0.674-4.9l-10.82-0.008l-3.227-1.902L33,18.659z"/>
</svg>
