<?xml version="1.0" encoding="utf-8"?>
<!-- Generator: Adobe Illustrator 16.0.4, SVG Export Plug-In . SVG Version: 6.00 Build 0)  -->
<!DOCTYPE svg PUBLIC "-//W3C//DTD SVG 1.1//EN" "http://www.w3.org/Graphics/SVG/1.1/DTD/svg11.dtd" [
	<!ENTITY ns_extend "http://ns.adobe.com/Extensibility/1.0/">
	<!ENTITY ns_ai "http://ns.adobe.com/AdobeIllustrator/10.0/">
	<!ENTITY ns_graphs "http://ns.adobe.com/Graphs/1.0/">
	<!ENTITY ns_vars "http://ns.adobe.com/Variables/1.0/">
	<!ENTITY ns_imrep "http://ns.adobe.com/ImageReplacement/1.0/">
	<!ENTITY ns_sfw "http://ns.adobe.com/SaveForWeb/1.0/">
	<!ENTITY ns_custom "http://ns.adobe.com/GenericCustomNamespace/1.0/">
	<!ENTITY ns_adobe_xpath "http://ns.adobe.com/XPath/1.0/">
]>
<svg version="1.1" id="Ebene_1" xmlns:x="&ns_extend;" xmlns:i="&ns_ai;" xmlns:graph="&ns_graphs;"
	 xmlns="http://www.w3.org/2000/svg" xmlns:xlink="http://www.w3.org/1999/xlink" x="0px" y="0px" width="18px"
	 height="18px" viewBox="0 0 56.693 56.693" enable-background="new 0 0 56.693 56.693" xml:space="preserve">
<metadata>
	<sfw  xmlns="&ns_sfw;">
		<slices></slices>
		<sliceSourceBounds  height="16383" width="16383" y="-7795.5" x="-7885.5" bottomLeftOrigin="true"></sliceSourceBounds>
	</sfw>
</metadata>
<g>
	<path fill="#000000" d="M9.988,10.791l12.69,9.175l0.281-3.101l0.784-10.537c1.348-0.531,2.461-0.768,3.475-0.772
		c0.588,0.043,2.542,0.276,3.8,0.772l0.784,10.537l0.281,3.1l13.347-9.557l-9.356,12.244l19.474,0C52.91,9.725,41.478,0,27.774,0
		C14.068,0,2.635,9.728,0,22.654l18.617-0.001L9.988,10.791z"/>
	<path fill="#000000" d="M45.185,45.979l-13.123-9.619l-0.281,3.101l-0.785,10.538c-1.346,0.53-2.46,0.768-3.478,0.771
		c-0.584-0.04-2.542-0.273-3.798-0.771L22.935,39.46l-0.279-3.099L9.861,45.858l8.563-11.815H0.001
		c2.637,12.925,14.069,22.65,27.773,22.65s25.136-9.725,27.774-22.65H36.361L45.185,45.979z"/>
</g>
</svg>
