<?xml version="1.0" encoding="utf-8"?>
<!-- Generator: Adobe Illustrator 16.0.4, SVG Export Plug-In . SVG Version: 6.00 Build 0)  -->
<!DOCTYPE svg PUBLIC "-//W3C//DTD SVG 1.1//EN" "http://www.w3.org/Graphics/SVG/1.1/DTD/svg11.dtd" [
	<!ENTITY ns_extend "http://ns.adobe.com/Extensibility/1.0/">
	<!ENTITY ns_ai "http://ns.adobe.com/AdobeIllustrator/10.0/">
	<!ENTITY ns_graphs "http://ns.adobe.com/Graphs/1.0/">
	<!ENTITY ns_vars "http://ns.adobe.com/Variables/1.0/">
	<!ENTITY ns_imrep "http://ns.adobe.com/ImageReplacement/1.0/">
	<!ENTITY ns_sfw "http://ns.adobe.com/SaveForWeb/1.0/">
	<!ENTITY ns_custom "http://ns.adobe.com/GenericCustomNamespace/1.0/">
	<!ENTITY ns_adobe_xpath "http://ns.adobe.com/XPath/1.0/">
]>
<svg version="1.1" id="Ebene_1" xmlns:x="&ns_extend;" xmlns:i="&ns_ai;" xmlns:graph="&ns_graphs;"
	 xmlns="http://www.w3.org/2000/svg" xmlns:xlink="http://www.w3.org/1999/xlink" x="0px" y="0px" width="18px"
	 height="18px" viewBox="0 0 56.693 56.693" enable-background="new 0 0 56.693 56.693" xml:space="preserve">
<metadata>
	<sfw  xmlns="&ns_sfw;">
		<slices></slices>
		<sliceSourceBounds  height="56.693" width="56.693" y="376.153" x="228.757" bottomLeftOrigin="true"></sliceSourceBounds>
	</sfw>
</metadata>
<g>
	<path fill="#000000" d="M20.98,22.031l1.793-3.03V8.453C23.321,8.237,25.836,7.8,27.525,7.8c0,0,3.609,0.375,4.315,0.653v10.504
		l1.831,2.92l1.315,0.775l20.562-0.001C52.91,9.725,41.478,0,27.774,0C14.068,0,2.635,9.728,0,22.654l19.812-0.001L20.98,22.031z"/>
	<path fill="#000000" d="M33.677,34.573l-1.837,3.125v10.549c-0.547,0.215-3.062,0.653-4.751,0.653c0,0-3.608-0.376-4.315-0.653
		V37.742l-1.792-3.118l-0.956-0.581H0.001c2.637,12.925,14.069,22.65,27.773,22.65s25.136-9.725,27.774-22.65H34.603L33.677,34.573z
		"/>
</g>
</svg>
