<?xml version="1.0" encoding="utf-8"?>
<!-- Generator: Adobe Illustrator 16.0.4, SVG Export Plug-In . SVG Version: 6.00 Build 0)  -->
<!DOCTYPE svg PUBLIC "-//W3C//DTD SVG 1.1//EN" "http://www.w3.org/Graphics/SVG/1.1/DTD/svg11.dtd" [
	<!ENTITY ns_extend "http://ns.adobe.com/Extensibility/1.0/">
	<!ENTITY ns_ai "http://ns.adobe.com/AdobeIllustrator/10.0/">
	<!ENTITY ns_graphs "http://ns.adobe.com/Graphs/1.0/">
	<!ENTITY ns_vars "http://ns.adobe.com/Variables/1.0/">
	<!ENTITY ns_imrep "http://ns.adobe.com/ImageReplacement/1.0/">
	<!ENTITY ns_sfw "http://ns.adobe.com/SaveForWeb/1.0/">
	<!ENTITY ns_custom "http://ns.adobe.com/GenericCustomNamespace/1.0/">
	<!ENTITY ns_adobe_xpath "http://ns.adobe.com/XPath/1.0/">
]>
<svg version="1.1" id="Ebene_1" xmlns:x="&ns_extend;" xmlns:i="&ns_ai;" xmlns:graph="&ns_graphs;"
	 xmlns="http://www.w3.org/2000/svg" xmlns:xlink="http://www.w3.org/1999/xlink" x="0px" y="0px" width="18px"
	 height="18px" viewBox="-18.347 -18.347 56.693 56.693" enable-background="new -18.347 -18.347 56.693 56.693"
	 xml:space="preserve">
<metadata>
	<sfw  xmlns="&ns_sfw;">
		<slices></slices>
		<sliceSourceBounds  height="56.693" width="56.693" y="113.153" x="113.153" bottomLeftOrigin="true"></sliceSourceBounds>
	</sfw>
</metadata>
<path fill="#000000" d="M34.128,9.791c-0.047,0.625-0.294,2.714-0.825,4.051l0,0l-11.258,0.842l-1.869,0.297l7.793,13.245
	l-12.958-8.063l-0.302,1.894l-0.836,11.247l0,0c-1.438,0.567-2.629,0.819-3.714,0.825c-0.624-0.045-2.713-0.294-4.057-0.825l0,0
	L5.267,22.056l-0.298-1.891l-12.923,8.061l7.79-13.168l-1.893-0.302l-11.246-0.839l0,0c-0.566-1.437-0.822-2.624-0.825-3.711
	c0.045-0.623,0.294-2.711,0.825-4.052l0,0l11.257-0.836l1.872-0.297L-8.111-9.112l13.104,8.95l0.298-1.894L6.13-13.304l0,0
	c1.438-0.566,2.628-0.819,3.708-0.825c0.63,0.045,2.715,0.294,4.06,0.825l0,0l0.836,9.834l0.299,3.308l13.255-8.95L20.17,4.945
	l1.886,0.297L33.309,6.08l0,0C33.87,7.52,34.122,8.707,34.128,9.791z M10-18.347C-5.653-18.347-18.347-5.653-18.347,10
	c0,15.651,12.694,28.347,28.347,28.347c15.657,0,28.347-12.695,28.347-28.347C38.347-5.653,25.657-18.347,10-18.347z"/>
</svg>
