<?xml version="1.0" encoding="utf-8"?>
<!-- Generator: Adobe Illustrator 21.0.2, SVG Export Plug-In . SVG Version: 6.00 Build 0)  -->
<svg version="1.1" id="Ebene_2" xmlns="http://www.w3.org/2000/svg" xmlns:xlink="http://www.w3.org/1999/xlink" x="0px" y="0px"
	 viewBox="0 0 163.8 163.8" style="enable-background:new 0 0 163.8 163.8;" xml:space="preserve">
<style type="text/css">
	.st0{fill:#000000;}
</style>
<g>
	<path class="st0" d="M81.9,0C36.7,0,0,36.7,0,81.9c0,45.2,36.7,81.9,81.9,81.9s81.9-36.7,81.9-81.9C163.8,36.7,127.1,0,81.9,0z
		 M124.6,93.7c-5,9.3,3.3,24.5,3.3,24.5s0.2,4.5-8.5,12.8s-17.8,5.9-17.8,5.9s-10.4-10-19.7-10.4c-9.3-0.5-21.1,11.2-21.1,11.2
		s-9.7,0-16.9-5.5c-7.1-5.5-9.7-13.8-9.7-13.8s8.5-11.4,3.6-23.5c-5-12.1-16.9-16.4-16.9-16.4s-3.3-7.8,0.5-17.3
		C25.2,51.6,32,48.1,32,48.1s16.4,4.5,24.5-4.3s7.1-19,7.1-19s6.6-7.1,18-6.4c11.4,0.7,16.6,5.9,16.6,5.9s0.2,11.2,7.6,18.8
		c7.4,7.6,25.2,4.5,25.2,4.5s7.8,5.5,10.2,13.8c2.4,8.3-0.2,15.4-0.2,15.4S129.6,84.4,124.6,93.7z"/>
</g>
</svg>
