<?xml version="1.0" encoding="utf-8"?>
<!-- Generator: Adobe Illustrator 16.0.4, SVG Export Plug-In . SVG Version: 6.00 Build 0)  -->
<!DOCTYPE svg PUBLIC "-//W3C//DTD SVG 1.1//EN" "http://www.w3.org/Graphics/SVG/1.1/DTD/svg11.dtd" [
	<!ENTITY ns_extend "http://ns.adobe.com/Extensibility/1.0/">
	<!ENTITY ns_ai "http://ns.adobe.com/AdobeIllustrator/10.0/">
	<!ENTITY ns_graphs "http://ns.adobe.com/Graphs/1.0/">
	<!ENTITY ns_vars "http://ns.adobe.com/Variables/1.0/">
	<!ENTITY ns_imrep "http://ns.adobe.com/ImageReplacement/1.0/">
	<!ENTITY ns_sfw "http://ns.adobe.com/SaveForWeb/1.0/">
	<!ENTITY ns_custom "http://ns.adobe.com/GenericCustomNamespace/1.0/">
	<!ENTITY ns_adobe_xpath "http://ns.adobe.com/XPath/1.0/">
]>
<svg version="1.1" id="Ebene_1" xmlns:x="&ns_extend;" xmlns:i="&ns_ai;" xmlns:graph="&ns_graphs;"
	 xmlns="http://www.w3.org/2000/svg" xmlns:xlink="http://www.w3.org/1999/xlink" x="0px" y="0px" width="18px"
	 height="18px" viewBox="0 0 56.694 56.694" enable-background="new 0 0 56.694 56.694" xml:space="preserve">
<metadata>
	<sfw  xmlns="&ns_sfw;">
		<slices></slices>
		<sliceSourceBounds  height="56.693" width="56.693" y="365.567" x="282.49" bottomLeftOrigin="true"></sliceSourceBounds>
	</sfw>
</metadata>
<path fill="#000000" d="M0,28.347C0,12.691,12.691,0,28.347,0c15.656,0,28.347,12.691,28.347,28.347
	c0,15.656-12.69,28.347-28.347,28.347C12.691,56.694,0,44.003,0,28.347z M36.692,14.027c-0.837-0.516-1.268-0.92-1.685-1.696
	c-0.376-0.699-1.294-2.583-1.732-3.809c-0.733-2.042-2.1-5.117-4.953-5.066l0,0c-2.854,0-4.354,2.879-5.052,4.934
	c-0.418,1.233-1.302,3.133-1.667,3.839c-0.404,0.783-0.715,1.157-1.541,1.688l-0.177,0.191c-0.861,0.473-1.425,0.649-2.307,0.629
	c-0.793-0.018-2.885-0.149-4.168-0.371c-2.138-0.369-5.486-0.697-6.85,1.811l0,0c-1.407,2.483,0.358,5.208,1.802,6.827
	c0.866,0.972,2.083,2.679,2.518,3.343c0.482,0.738,0.654,1.194,0.708,2.174l0.078,0.09c-0.024,0.981-0.154,1.558-0.613,2.311
	c-0.413,0.677-1.575,2.422-2.41,3.421c-1.391,1.664-3.354,4.396-1.868,6.835l0,0c1.442,2.462,4.685,2.301,6.811,1.863
	c1.274-0.262,3.362-0.461,4.155-0.503c0.879-0.048,1.36,0.032,2.235,0.478l0.117-0.022c0.838,0.513,1.271,0.914,1.692,1.688
	c0.379,0.696,1.306,2.575,1.752,3.799c0.743,2.039,2.124,5.106,4.977,5.044l0,0c2.854-0.014,4.34-2.9,5.027-4.956
	c0.413-1.237,1.289-3.142,1.647-3.848c0.4-0.785,0.712-1.162,1.535-1.697l0.037-0.111c0.865-0.467,1.431-0.642,2.311-0.617
	c0.793,0.021,2.885,0.161,4.166,0.389c2.136,0.38,5.483,0.725,6.858-1.775l0,0c1.419-2.477-0.334-5.21-1.77-6.837
	c-0.859-0.976-2.071-2.688-2.502-3.354c-0.478-0.739-0.646-1.196-0.698-2.178l-0.077-0.09c0.028-0.982,0.161-1.558,0.624-2.308
	c0.417-0.675,1.587-2.415,2.426-3.41c1.399-1.658,3.374-4.381,1.9-6.825l0,0c-1.43-2.47-4.674-2.324-6.8-1.897
	c-1.276,0.256-3.365,0.444-4.158,0.483c-0.88,0.043-1.36-0.038-2.232-0.487L36.692,14.027z M28.347,37.29
	c4.939,0,8.941-4.004,8.941-8.942c0-4.939-4.002-8.943-8.941-8.943s-8.943,4.003-8.943,8.943
	C19.404,33.286,23.408,37.29,28.347,37.29z"/>
</svg>
