<?xml version="1.0" encoding="utf-8"?>
<!-- Generator: Adobe Illustrator 16.0.4, SVG Export Plug-In . SVG Version: 6.00 Build 0)  -->
<!DOCTYPE svg PUBLIC "-//W3C//DTD SVG 1.1//EN" "http://www.w3.org/Graphics/SVG/1.1/DTD/svg11.dtd" [
	<!ENTITY ns_extend "http://ns.adobe.com/Extensibility/1.0/">
	<!ENTITY ns_ai "http://ns.adobe.com/AdobeIllustrator/10.0/">
	<!ENTITY ns_graphs "http://ns.adobe.com/Graphs/1.0/">
	<!ENTITY ns_vars "http://ns.adobe.com/Variables/1.0/">
	<!ENTITY ns_imrep "http://ns.adobe.com/ImageReplacement/1.0/">
	<!ENTITY ns_sfw "http://ns.adobe.com/SaveForWeb/1.0/">
	<!ENTITY ns_custom "http://ns.adobe.com/GenericCustomNamespace/1.0/">
	<!ENTITY ns_adobe_xpath "http://ns.adobe.com/XPath/1.0/">
]>
<svg version="1.1" id="Ebene_1" xmlns:x="&ns_extend;" xmlns:i="&ns_ai;" xmlns:graph="&ns_graphs;"
	 xmlns="http://www.w3.org/2000/svg" xmlns:xlink="http://www.w3.org/1999/xlink" x="0px" y="0px" width="18px"
	 height="18px" viewBox="0 0 56.693 56.693" enable-background="new 0 0 56.693 56.693" xml:space="preserve">
<metadata>
	<sfw  xmlns="&ns_sfw;">
		<slices></slices>
		<sliceSourceBounds  height="56.693" width="56.693" y="376.653" x="243.028" bottomLeftOrigin="true"></sliceSourceBounds>
	</sfw>
</metadata>
<path fill="#000000" d="M0,28.347C0,12.691,12.691,0,28.347,0s28.347,12.691,28.347,28.347S44.002,56.693,28.347,56.693
	S0,44.002,0,28.347z M45.528,28.333c0,0,0.039-1.178,0.279-2.222c0.203-0.881,2.083-2.605,2.405-2.919
	c0.955-0.932,1.747-1.743,1.696-3.851c-0.013-0.508-1.364-2.768-1.364-2.768s-1.293-2.326-1.727-2.59
	c-1.8-1.098-2.793-0.636-4.077-0.275c-0.433,0.122-2.867,0.889-3.73,0.624c-1.025-0.314-2.068-0.881-2.068-0.881
	s-1-0.622-1.785-1.352c-0.662-0.616-1.214-3.107-1.324-3.542c-0.33-1.293-0.636-2.384-2.489-3.394
	c-0.446-0.244-3.078-0.203-3.078-0.203s-2.661-0.044-3.106,0.2c-1.852,1.009-1.948,2.1-2.277,3.393
	c-0.111,0.436-0.664,2.927-1.326,3.542c-0.784,0.73-1.785,1.352-1.785,1.352s-1.056,0.573-2.081,0.889
	c-0.863,0.264-3.298-0.503-3.729-0.625c-1.285-0.361-2.382-0.641-4.184,0.458c-0.434,0.264-1.715,2.565-1.715,2.565
	s-1.368,2.282-1.38,2.79c-0.051,2.108,0.846,2.737,1.8,3.669c0.322,0.314,2.203,2.038,2.405,2.919
	c0.241,1.044,0.271,2.232,0.271,2.232s-0.039,1.177-0.278,2.221c-0.203,0.881-2.084,2.604-2.406,2.919
	c-0.955,0.932-1.747,1.742-1.695,3.851c0.012,0.508,1.364,2.769,1.364,2.769s1.292,2.325,1.726,2.59
	c1.8,1.098,2.793,0.636,4.077,0.275c0.434-0.122,2.867-0.889,3.73-0.624c1.025,0.314,2.063,0.869,2.063,0.869
	s1.017,0.652,1.801,1.382c0.662,0.616,1.215,3.108,1.325,3.543c0.33,1.294,0.636,2.385,2.489,3.393
	c0.445,0.245,3.078,0.204,3.078,0.204s2.66,0.043,3.106-0.198c1.852-1.012,1.948-2.103,2.276-3.395
	c0.112-0.437,0.664-2.927,1.326-3.543c0.784-0.729,1.797-1.351,1.797-1.351s1.039-0.555,2.063-0.869
	c0.863-0.265,3.298,0.502,3.729,0.624c1.285,0.36,2.382,0.641,4.184-0.458c0.434-0.265,1.715-2.565,1.715-2.565
	s1.368-2.281,1.38-2.789c0.051-2.109-0.846-2.738-1.8-3.67c-0.322-0.314-2.203-2.038-2.405-2.918
	C45.565,29.559,45.528,28.333,45.528,28.333z"/>
</svg>
