<?xml version="1.0" encoding="utf-8"?>
<!-- Generator: Adobe Illustrator 16.0.4, SVG Export Plug-In . SVG Version: 6.00 Build 0)  -->
<!DOCTYPE svg PUBLIC "-//W3C//DTD SVG 1.1//EN" "http://www.w3.org/Graphics/SVG/1.1/DTD/svg11.dtd" [
	<!ENTITY ns_extend "http://ns.adobe.com/Extensibility/1.0/">
	<!ENTITY ns_ai "http://ns.adobe.com/AdobeIllustrator/10.0/">
	<!ENTITY ns_graphs "http://ns.adobe.com/Graphs/1.0/">
	<!ENTITY ns_vars "http://ns.adobe.com/Variables/1.0/">
	<!ENTITY ns_imrep "http://ns.adobe.com/ImageReplacement/1.0/">
	<!ENTITY ns_sfw "http://ns.adobe.com/SaveForWeb/1.0/">
	<!ENTITY ns_custom "http://ns.adobe.com/GenericCustomNamespace/1.0/">
	<!ENTITY ns_adobe_xpath "http://ns.adobe.com/XPath/1.0/">
]>
<svg version="1.1" id="Ebene_1" xmlns:x="&ns_extend;" xmlns:i="&ns_ai;" xmlns:graph="&ns_graphs;"
	 xmlns="http://www.w3.org/2000/svg" xmlns:xlink="http://www.w3.org/1999/xlink" x="0px" y="0px" width="18px"
	 height="18px" viewBox="0 0 56.693 56.693" enable-background="new 0 0 56.693 56.693" xml:space="preserve">
<metadata>
	<sfw  xmlns="&ns_sfw;">
		<slices></slices>
		<sliceSourceBounds  height="56.693" width="56.693" y="376.653" x="244.682" bottomLeftOrigin="true"></sliceSourceBounds>
	</sfw>
</metadata>
<path fill="#000000" d="M28.347,0C12.691,0,0,12.691,0,28.347s12.691,28.347,28.347,28.347c15.656,0,28.346-12.691,28.346-28.347
	S44.003,0,28.347,0z M43.237,42.683c-1.28-0.228-3.373-0.367-4.166-0.39c-0.88-0.023-1.445,0.15-2.31,0.618l-0.038,0.111
	c-0.823,0.535-1.134,0.911-1.533,1.697c-0.36,0.706-1.236,2.61-1.65,3.848c-0.687,2.056-2.174,4.942-5.027,4.956
	c-2.853,0.062-4.233-3.005-4.977-5.044c-0.444-1.224-1.372-3.103-1.751-3.8c-0.421-0.774-0.854-1.175-1.692-1.688l-0.117,0.021
	c-0.875-0.444-1.356-0.524-2.235-0.477c-0.793,0.043-2.88,0.241-4.155,0.503c-2.125,0.437-5.368,0.598-6.811-1.864
	c-1.486-2.438,0.477-5.169,1.868-6.834c0.835-0.999,1.998-2.744,2.41-3.421c0.459-0.753,0.589-1.329,0.613-2.311l-0.078-0.09
	c-0.055-0.98-0.227-1.436-0.708-2.174c-0.434-0.664-1.652-2.371-2.518-3.343c-1.443-1.619-3.209-4.343-1.802-6.827
	c1.364-2.507,4.711-2.179,6.85-1.811c1.283,0.222,3.375,0.353,4.168,0.371c0.881,0.02,1.445-0.156,2.307-0.629l0.177-0.191
	c0.826-0.531,1.137-0.906,1.541-1.688c0.364-0.706,1.248-2.606,1.667-3.839c0.698-2.054,2.197-4.934,5.049-4.934
	c2.854-0.05,4.221,3.024,4.955,5.066c0.438,1.225,1.356,3.11,1.732,3.809c0.417,0.776,0.848,1.18,1.684,1.696l0.116-0.021
	c0.875,0.449,1.354,0.53,2.234,0.487c0.793-0.039,2.881-0.227,4.158-0.483c2.126-0.427,5.37-0.573,6.802,1.897
	c1.472,2.444-0.503,5.167-1.902,6.825c-0.839,0.995-2.009,2.734-2.426,3.41c-0.463,0.75-0.596,1.325-0.622,2.307l0.076,0.09
	c0.049,0.981,0.22,1.438,0.698,2.177c0.433,0.666,1.643,2.379,2.504,3.354c1.434,1.627,3.187,4.36,1.768,6.836
	C48.721,43.406,45.373,43.062,43.237,42.683z"/>
</svg>
