<?xml version="1.0" encoding="utf-8"?>
<!-- Generator: Adobe Illustrator 16.0.4, SVG Export Plug-In . SVG Version: 6.00 Build 0)  -->
<!DOCTYPE svg PUBLIC "-//W3C//DTD SVG 1.1//EN" "http://www.w3.org/Graphics/SVG/1.1/DTD/svg11.dtd" [
	<!ENTITY ns_extend "http://ns.adobe.com/Extensibility/1.0/">
	<!ENTITY ns_ai "http://ns.adobe.com/AdobeIllustrator/10.0/">
	<!ENTITY ns_graphs "http://ns.adobe.com/Graphs/1.0/">
	<!ENTITY ns_vars "http://ns.adobe.com/Variables/1.0/">
	<!ENTITY ns_imrep "http://ns.adobe.com/ImageReplacement/1.0/">
	<!ENTITY ns_sfw "http://ns.adobe.com/SaveForWeb/1.0/">
	<!ENTITY ns_custom "http://ns.adobe.com/GenericCustomNamespace/1.0/">
	<!ENTITY ns_adobe_xpath "http://ns.adobe.com/XPath/1.0/">
]>
<svg version="1.1" xmlns:x="&ns_extend;" xmlns:i="&ns_ai;" xmlns:graph="&ns_graphs;"
	 xmlns="http://www.w3.org/2000/svg" xmlns:xlink="http://www.w3.org/1999/xlink" x="0px" y="0px" width="18px"
	 height="18px" viewBox="0 0 56.693 56.693" enable-background="new 0 0 56.693 56.693" xml:space="preserve">
<metadata>
	<sfw  xmlns="&ns_sfw;">
		<slices></slices>
		<sliceSourceBounds  height="8640" width="8620.795" y="-3924" x="-3994.794" bottomLeftOrigin="true"></sliceSourceBounds>
	</sfw>
</metadata>
<g id="Ebene_1">
	<path fill="#000000" d="M28.347,56.693C12.692,56.693,0,44.001,0,28.346C0,12.691,12.692,0,28.347,0
		c15.655,0,28.347,12.691,28.347,28.346C56.693,44.001,44.002,56.693,28.347,56.693z M33.671,19.067l5.312-9.14
		c0.598-1.028,0.239-2.355-0.795-2.948l-3.255-1.867c-1.035-0.593-2.37-0.238-2.97,0.79c0,0-11.654,20.038-12.313,21.108
		c-0.658,1.071-1.377,1.396-2.493,1.396c-1.117,0-10.187,0-10.187,0c-1.195,0-2.172,0.972-2.172,2.159v3.733
		c0,1.188,0.977,2.158,2.172,2.158l24.646-0.005c1.263,0.032,1.757,0.482,2.315,1.443c0.559,0.963,5.154,8.812,5.154,8.812
		c0.599,1.028,1.934,1.383,2.968,0.79l3.256-1.867c1.034-0.594,1.392-1.92,0.795-2.948L33.833,21.526
		c-0.604-1.102-0.528-1.883,0.03-2.844"/>
</g>
<g id="vorlage">
</g>
</svg>
