<?xml version="1.0" encoding="utf-8"?>
<!-- Generator: Adobe Illustrator 16.0.4, SVG Export Plug-In . SVG Version: 6.00 Build 0)  -->
<!DOCTYPE svg PUBLIC "-//W3C//DTD SVG 1.1//EN" "http://www.w3.org/Graphics/SVG/1.1/DTD/svg11.dtd" [
	<!ENTITY ns_extend "http://ns.adobe.com/Extensibility/1.0/">
	<!ENTITY ns_ai "http://ns.adobe.com/AdobeIllustrator/10.0/">
	<!ENTITY ns_graphs "http://ns.adobe.com/Graphs/1.0/">
	<!ENTITY ns_vars "http://ns.adobe.com/Variables/1.0/">
	<!ENTITY ns_imrep "http://ns.adobe.com/ImageReplacement/1.0/">
	<!ENTITY ns_sfw "http://ns.adobe.com/SaveForWeb/1.0/">
	<!ENTITY ns_custom "http://ns.adobe.com/GenericCustomNamespace/1.0/">
	<!ENTITY ns_adobe_xpath "http://ns.adobe.com/XPath/1.0/">
]>
<svg version="1.1" id="Ebene_1" xmlns:x="&ns_extend;" xmlns:i="&ns_ai;" xmlns:graph="&ns_graphs;"
	 xmlns="http://www.w3.org/2000/svg" xmlns:xlink="http://www.w3.org/1999/xlink" x="0px" y="0px" width="18px"
	 height="18px" viewBox="0 0 56.694 56.694" enable-background="new 0 0 56.694 56.694" xml:space="preserve">
<metadata>
	<sfw  xmlns="&ns_sfw;">
		<slices></slices>
		<sliceSourceBounds  height="56.694" width="56.694" y="376.654" x="200.307" bottomLeftOrigin="true"></sliceSourceBounds>
	</sfw>
</metadata>
<path fill="#000000" d="M0,28.347C0,12.692,12.692,0,28.347,0s28.347,12.692,28.347,28.347c0,15.655-12.692,28.346-28.347,28.346
	S0,44.002,0,28.347z M45.724,18.489c-0.847-1.468,1.754-5.126-0.218-7.03l0,0c-1.938-1.938-5.449,0.765-7.025-0.19l-0.053-0.057
	c-1.467-0.848-1.042-5.316-3.703-5.979l0,0c-2.648-0.71-4.337,3.387-6.179,3.349l-0.075-0.023c-1.695,0-3.561-4.082-6.196-3.327l0,0
	c-2.648,0.71-2.063,5.103-3.676,5.99l-0.077,0.017c-1.469,0.848-5.126-1.754-7.03,0.218l0,0c-1.938,1.939,0.765,5.45-0.189,7.025
	l-0.058,0.054c-0.848,1.468-5.316,1.043-5.979,3.704l0,0c-0.709,2.647,3.386,4.337,3.349,6.179l-0.023,0.075
	c0,1.695-4.083,3.562-3.326,6.197l0,0c0.71,2.648,5.101,2.062,5.989,3.677l0.018,0.077c0.847,1.468-1.754,5.125,0.218,7.029l0,0
	c1.938,1.938,5.45-0.765,7.025,0.189l0.054,0.059c1.468,0.847,1.042,5.315,3.703,5.978l0,0c2.648,0.711,4.336-3.386,6.179-3.349
	l0.075,0.024c1.695,0,3.561,4.082,6.196,3.326l0,0c2.648-0.71,2.062-5.102,3.676-5.989l0.078-0.018
	c1.468-0.848,5.125,1.755,7.029-0.218l0,0c1.938-1.938-0.765-5.449,0.188-7.024l0.059-0.054c0.848-1.468,5.316-1.043,5.979-3.704
	l0,0c0.709-2.648-3.386-4.337-3.349-6.178l0.023-0.076c0-1.694,4.082-3.561,3.326-6.196l0,0c-0.709-2.648-5.101-2.062-5.989-3.677"
	/>
</svg>
