<?xml version="1.0" encoding="utf-8"?>
<!-- Generator: Adobe Illustrator 19.0.0, SVG Export Plug-In . SVG Version: 6.00 Build 0)  -->
<svg version="1.0" id="Layer_1" xmlns="http://www.w3.org/2000/svg" xmlns:xlink="http://www.w3.org/1999/xlink" x="0px" y="0px"
	 width="235px" height="137.5px" viewBox="0 0 235 137.5" enable-background="new 0 0 235 137.5" xml:space="preserve">
<path fill="none" stroke="#000000" stroke-width="0.25" stroke-linecap="round" stroke-linejoin="round" stroke-miterlimit="10" d="
	M76.55,4.35v0.8 M46.25,18.65v1.3 M47.65,20.25v-0.8 M33.95,25.75v1.3 M35.35,27.35v-0.8 M143.85,28.65v-0.9 M22.25,35.75v0.8
	 M2.25,47.45v1.2 M3.95,48.75v-0.5 M1.45,53.95v1.2 M3.95,55.65v-0.4 M201.35,62.35v-1.2 M199.55,61.95v0.5 M182.55,64.55v-0.6
	 M215.45,78.25v-1.2 M2.25,57.65v1.2 M37.65,79.35v-1.2 M38.65,78.15v1.2 M216.45,84.15v-0.7 M234.25,103.85v-1.2 M231.95,103.15
	v0.8 M232.05,108.35v1.2 M229.55,109.65v0.4 M231.25,113.25v-1.2 M229.35,113.85v-1.2 M230.35,112.65v1.2 M226.35,116.15v-1.2
	 M107.05,116.75v-1.2 M68.85,96.05v1.3 M104.25,117.75v-1.2 M105.35,116.55v1.2 M108.15,115.55v1.2 M110.65,116.95v1.2
	 M224.05,116.25v1.2 M112.05,117.45v1.3 M115.25,119.05v-0.8 M219.15,118.55v1.2 M220.55,120.05v-0.8 M220.25,121.95v1.2
	 M132.95,124.75v1.2 M206.85,125.65v1.2 M218.55,122.45v1.2 M211.55,126.55v1.2 M131.95,126.15v-1.2 M115.15,120.75v1.3
	 M208.25,127.15v-0.8 M210.65,127.45v1.3 M207.15,129.05v1.2 M203.35,129.05v1.2 M200.85,129.65v1.2 M197.55,132.15v-1.2
	 M198.55,130.95v1.2 M190.75,132.85v1.2 M194.55,134.45v-1.2 M192.45,135.05v-1.2 M193.55,133.85v1.2 M189.65,134.05v-1.2
	 M179.25,133.95v1.2 M178.25,135.45v-1.2 M187.15,134.25v1.2 M182.55,134.75v1.2 M177.25,135.55v1.2 M159.35,131.65v1.2
	 M176.25,136.95v-1.2"/>
<path fill="none" stroke="#000000" stroke-width="0.5" stroke-linecap="round" stroke-linejoin="round" stroke-miterlimit="10" d="
	M88.45,2.75l0.4-0.1l0.8-0.1h0.8l0.7,0.1l0.3,0.1 M88.35,2.85l0.1-0.1l0.2-0.3l0.5-0.2l0.5-0.1h0.6l0.6,0.2l0.4,0.2l0.2,0.3
	 M105.35,14.95h0.5h0.7h0.4 M105.25,14.95l0.1-0.1l0.3-0.1l0.5-0.1l0.5,0.1l0.4,0.1v0.1 M46.25,20.15h-0.1v-0.1l-0.1-0.1l-0.1-0.1
	v-0.1h-0.1v-0.1v-0.1 M47.15,20.65l-0.9-0.5 M45.85,19.25v-0.2l-0.3-0.4l-0.4-0.4l-0.7-0.3l-0.7-0.2l-0.8-0.1l-0.8,0.1l-0.8,0.2
	l-0.6,0.2l-0.5,0.4 M33.95,27.25h-0.1v-0.1l-0.1-0.1l-0.1-0.1l-0.1-0.1v-0.1v-0.1 M34.85,27.75l-0.9-0.5 M33.55,26.35v-0.2l-0.3-0.4
	l-0.4-0.4l-0.7-0.3l-0.7-0.2l-0.8-0.1l-0.8,0.1l-0.8,0.2l-0.6,0.2l-0.5,0.4 M2.25,48.85h-0.1l-0.1-0.1v-0.1l-0.1-0.1 M2.25,48.85
	l0.8,0.5 M0.25,53.75l0.1,0.4l0.2,0.5l0.4,0.4l0.5,0.4 M2.95,52.05l0.4-0.1l0.8-0.1h0.8l0.7,0.2h0.3 M2.85,52.15h0.1l0.3-0.3
	l0.4-0.2l0.6-0.2l0.5,0.1l0.6,0.1l0.4,0.2l0.2,0.3 M1.45,55.45l1.6,0.9 M2.25,59.15l-0.1-0.1l-0.1-0.1l-0.1-0.1 M27.75,59.85
	l0.4-0.1h0.7l0.4,0.1 M27.55,59.75l0.1-0.1l0.4-0.1l0.5-0.1l0.4,0.1l0.4,0.1l0.1,0.1 M201.55,62.25v0.1v0.1l-0.1,0.1h-0.1
	 M200.55,63.05l0.8-0.5 M177.55,62.05l-0.1-0.2l-0.4-0.3l-0.6-0.3l-0.6-0.1h-0.7l-0.6,0.1l-0.6,0.2 M181.45,64.85l-3.9-2.2
	 M177.55,62.65v-1.8 M172.85,67.15l0.4-0.1h0.7l0.4,0.1 M172.65,67.05h0.1l0.4-0.2h0.5h0.4l0.4,0.2h0.1 M197.65,65.75l0.4-0.1
	l0.8-0.1h0.8l0.7,0.2h0.3 M197.55,65.85h0.1l0.3-0.3l0.4-0.2l0.6-0.2l0.5,0.1l0.6,0.1l0.4,0.2l0.2,0.3 M177.65,71.85l0.5-0.1h0.7
	l0.4,0.1 M177.55,71.75h0.1l0.4-0.2h0.4h0.5l0.4,0.2 M215.95,78.15l-0.1,0.1v0.1h-0.1v0.1h-0.2l-0.1,0.1 M215.45,78.55h-0.2
	 M39.65,79.05l-1,0.5 M2.25,59.15l35.4,20.4 M38.65,79.55l-0.1,0.1h-0.1h-0.2l-0.1,0.1l-0.1-0.1h-0.2h-0.1l-0.1-0.1 M186.35,78.45
	h0.3l0.7-0.1l0.7,0.1h0.1 M186.25,78.35l0.2-0.1l0.4-0.1l0.4-0.1l0.5,0.1l0.4,0.1l0.1,0.1 M211.45,81.65l-0.2-0.2l-0.3-0.4l-0.6-0.2
	l-0.6-0.1l-0.7-0.1l-0.7,0.2l-0.5,0.2 M215.35,84.45l-3.9-2.3 M211.45,82.15v-1.7 M208.75,91.35h0.2l0.7-0.1l0.7,0.1h0.2
	 M208.65,91.25l0.1-0.1l0.4-0.1l0.5-0.1l0.4,0.1l0.4,0.1l0.2,0.1 M68.55,95.75l-28.9-16.7 M39.65,77.25v1.8 M68.85,97.55h-0.1
	l-0.1-0.1v-0.1l-0.1-0.1 M220.45,96.55l0.4-0.1h0.7l0.4,0.1 M220.25,96.45l0.1-0.1l0.4-0.1l0.5-0.1l0.4,0.1l0.4,0.1l0.1,0.1
	 M234.75,103.75l-0.1,0.1l-0.1,0.1l-0.1,0.1h-0.1l-0.1,0.1 M232.35,104.65l1.9-0.5 M122.65,103.65l0.4-0.1h0.7l0.5,0.1
	 M122.55,103.55v-0.1l0.4-0.1l0.5-0.1l0.4,0.1l0.4,0.1l0.1,0.1 M106.65,105.35l0.4-0.1h0.7l0.5,0.1 M106.55,105.25L106.55,105.25
	l0.4-0.2h0.5h0.4l0.4,0.2h0.1 M232.05,109.85l0.4-0.3l0.3-0.3l0.3-0.3l0.1-0.4l0.1-0.3v-0.1 M227.55,106.45l0.4-0.1l0.8-0.1l0.8,0.1
	l0.8,0.1h0.2 M227.55,106.65v-0.1l0.3-0.3l0.4-0.2l0.6-0.1h0.6l0.5,0.1l0.4,0.3l0.3,0.3 M230.45,110.75l1.6-0.9 M134.15,108.65
	l0.3-0.1h0.7l0.7,0.1h0.1 M134.05,108.55l0.1-0.1l0.4-0.1l0.5-0.1l0.4,0.1l0.4,0.1l0.2,0.1 M231.55,113.25l-0.1,0.1v0.1h-0.1
	l-0.1,0.1 M230.35,114.15l0.9-0.6 M229.35,114.15l-1-0.6 M230.35,114.15h-0.1h-0.2l-0.1,0.1h-0.1h-0.2l-0.1-0.1h-0.1h-0.1
	 M228.35,113.55l-1.8,1 M228.35,111.75v1.8 M226.55,116.15v0.1h-0.1v0.1l-0.1,0.1 M108.15,117.05l-0.1-0.1h-0.1l-0.2-0.1h-0.1h-0.2
	l-0.1,0.1h-0.2l-0.1,0.1 M224.05,117.75l2.3-1.3 M105.35,118.05l1.7-1 M68.85,97.55l35.4,20.5 M105.35,118.05h-0.1l-0.2,0.1h-0.1
	h-0.2h-0.1h-0.2l-0.1-0.1h-0.1 M108.15,117.05l2.5,1.4 M110.65,118.45l0.2,0.1l0.1,0.1h0.2l0.2,0.1l0.1,0.1h0.2l0.2,0.1h0.2
	 M112.15,115.15l0.4-0.1l0.8-0.1h0.8l0.8,0.1l0.2,0.1 M112.05,115.25l0.1-0.1l0.3-0.3l0.4-0.2l0.6-0.1h0.6l0.5,0.2l0.4,0.2l0.2,0.3
	 M223.05,119.15v-0.2v-0.2l0.1-0.2l0.1-0.2l0.2-0.2l0.2-0.1l0.2-0.2l0.2-0.1 M219.15,119.95h-0.1l-0.1-0.1l-0.1-0.1v-0.1h-0.1v-0.1
	v-0.1 M112.05,118.95l2.9,0.7 M219.95,120.45l-0.8-0.5 M218.75,119.05l-0.1-0.2l-0.2-0.4l-0.5-0.4l-0.6-0.3l-0.8-0.2l-0.8-0.1
	l-0.8,0.1l-0.7,0.2l-0.7,0.2l-0.4,0.4 M115.15,122.25h-0.2l-0.1-0.1h-0.1v-0.1l-0.1-0.1v-0.1 M220.25,123.35l0.6-0.1l0.5-0.1
	l0.5-0.2l0.4-0.3l0.3-0.3l0.3-0.3l0.1-0.3l0.1-0.4 M223.05,119.65v1.7 M218.55,123.95l0.2-0.1l0.2-0.1l0.2-0.1l0.2-0.1h0.2l0.3-0.1
	h0.2l0.2-0.1 M156.45,121.55l0.3-0.1h0.7l0.7,0.1h0.1 M156.35,121.45l0.2-0.1l0.3-0.2h0.5h0.5l0.4,0.2l0.1,0.1 M133.45,125.45
	l-0.5,0.7 M132.95,126.15l-0.1,0.1l-0.1,0.1h-0.1l-0.1,0.1h-0.1h-0.2h-0.1h-0.2 M206.85,127.05h-0.1l-0.1-0.1l-0.1-0.1v-0.1h-0.1
	v-0.1v-0.1 M207.65,127.55l-0.8-0.5 M211.55,127.95l7-4 M206.45,126.15l-0.1-0.2l-0.2-0.4l-0.5-0.4l-0.6-0.3l-0.8-0.2l-0.8-0.1
	l-0.8,0.1l-0.7,0.2l-0.7,0.3l-0.4,0.3 M210.65,128.95v-0.1l0.1-0.2l0.1-0.1l0.1-0.1l0.2-0.1l0.1-0.1l0.2-0.2l0.1-0.1 M115.15,122.25
	l16.8,4.2 M165.35,128.25h0.5h0.7h0.4 M165.25,128.25l0.1-0.1l0.3-0.1l0.5-0.1l0.5,0.1l0.4,0.1v0.1 M207.15,130.55h0.6l0.6-0.1
	l0.5-0.2l0.5-0.1l0.5-0.3l0.3-0.3l0.3-0.3l0.2-0.3 M200.85,131.15l0.2-0.1l0.3-0.2l0.3-0.1h0.3l0.3-0.1l0.4-0.1h0.3h0.4
	 M203.35,130.55h3.8 M197.55,132.45l-1-0.6 M198.55,132.45l2.3-1.3 M198.55,132.45h-0.1l-0.1,0.1h-0.2h-0.1h-0.1h-0.2l-0.1-0.1h-0.1
	 M159.35,133.15l-0.1-0.1h-0.1l-0.1-0.1v-0.1h-0.1v-0.1 M196.55,131.85l-1.8,1.1 M196.55,130.15v1.7 M190.75,134.25h-0.1l-0.2-0.1
	h-0.1h-0.2h-0.1h-0.2l-0.1,0.1h-0.1 M194.75,134.45v0.1l-0.1,0.1l-0.1,0.1 M190.75,134.25l1.7,1.1 M193.55,135.35l1-0.6
	 M193.55,135.35h-0.1l-0.1,0.1h-0.2h-0.1h-0.2h-0.1l-0.1-0.1h-0.2 M187.15,135.75l2.5-1.5 M179.25,135.45h-0.1h-0.2h-0.1h-0.2h-0.1
	l-0.1,0.1l-0.1,0.1h-0.1 M158.95,131.65l-25.5-6.2 M133.45,123.65v1.8 M182.65,132.45l0.4-0.1l0.8-0.1h0.8l0.8,0.1l0.2,0.1
	 M182.65,132.55v-0.1l0.3-0.3l0.4-0.2l0.6-0.1h0.6l0.5,0.1l0.4,0.3l0.3,0.3 M179.25,135.45l3.3,0.8 M177.25,137.05l1-1.4
	 M182.55,136.25l0.6,0.1l0.6,0.1h0.6h0.6l0.6-0.1l0.6-0.2l0.5-0.2l0.5-0.2 M177.25,137.05L177.25,137.05l-0.1,0.1l-0.2,0.1h-0.1
	h-0.1h-0.2h-0.1h-0.2 M159.35,133.15l16.9,4.1 M218.75,117.65l-0.1-0.5l-0.2-0.4l-0.5-0.4l-0.6-0.3l-0.8-0.2l-0.8-0.1l-0.8,0.1
	l-0.7,0.1l-0.7,0.3l-0.4,0.4l-0.3,0.4l-0.1,0.5l0.1,0.4l0.3,0.5l0.5,0.3l0.7,0.3l0.8,0.1l0.8,0.1 M218.75,117.65L218.75,117.65v0.1
	v0.1l0.1,0.1v0.1l0.1,0.1h0.1l0.1,0.1 M220.55,119.05l-1.4-0.8 M218.45,120.25l0.5,0.2l0.5,0.1l0.6-0.1l0.5-0.2l0.3-0.3l0.1-0.3
	l-0.1-0.3l-0.3-0.3 M218.45,120.25l-1.4-0.8 M217.05,119.45h-0.1l-0.1-0.1h-0.2l-0.1-0.1h-0.2h-0.1h-0.2h-0.1 M33.55,24.95v-0.5
	l-0.3-0.5l-0.4-0.3l-0.7-0.3l-0.7-0.2l-0.8-0.1h-0.8l-0.8,0.2l-0.6,0.3l-0.5,0.4l-0.3,0.4l-0.1,0.5l0.1,0.4l0.4,0.5l0.5,0.3l0.7,0.3
	l0.7,0.1l0.8,0.1 M33.55,24.95L33.55,24.95v0.1l0.1,0.1v0.1l0.1,0.1l0.1,0.1l0.1,0.1 M35.35,26.35l-1.4-0.8 M33.25,27.55l0.5,0.2
	l0.6,0.1l0.6-0.1l0.4-0.2l0.4-0.3l0.1-0.3l-0.1-0.3l-0.4-0.3 M33.25,27.55l-1.4-0.8 M31.85,26.75l-0.1-0.1h-0.1h-0.1l-0.2-0.1h-0.1
	h-0.2h-0.1h-0.2 M45.85,17.85v-0.5l-0.3-0.5l-0.4-0.3l-0.7-0.3l-0.7-0.2l-0.8-0.1h-0.8l-0.8,0.2l-0.6,0.3l-0.5,0.4l-0.3,0.4
	l-0.1,0.5l0.1,0.4l0.4,0.5l0.5,0.3l0.7,0.3l0.7,0.1l0.8,0.1 M45.85,17.85L45.85,17.85v0.1l0.1,0.1v0.1l0.1,0.1l0.1,0.1l0.1,0.1
	 M47.65,19.25l-1.4-0.8 M45.55,20.45l0.5,0.2l0.6,0.1l0.6-0.1l0.4-0.2l0.4-0.3l0.1-0.3l-0.1-0.3l-0.4-0.3 M45.55,20.45l-1.4-0.8
	 M44.15,19.65l-0.1-0.1h-0.1l-0.1-0.1h-0.2h-0.1h-0.2h-0.1h-0.2 M206.45,124.75l-0.1-0.5l-0.2-0.4l-0.5-0.4l-0.6-0.3l-0.8-0.2
	l-0.8-0.1l-0.8,0.1l-0.7,0.1l-0.7,0.3l-0.4,0.4l-0.3,0.4l-0.1,0.5l0.1,0.4l0.3,0.5l0.5,0.3l0.7,0.3l0.8,0.1l0.8,0.1 M206.45,124.75
	v0.1v0.1l0.1,0.1v0.1l0.1,0.1h0.1l0.1,0.1 M208.25,126.15l-1.4-0.8 M206.15,127.35l0.5,0.2l0.5,0.1l0.6-0.1l0.5-0.2l0.3-0.3l0.1-0.3
	l-0.1-0.3l-0.3-0.3 M206.15,127.35l-1.4-0.8 M204.75,126.55h-0.1l-0.2-0.1h-0.1l-0.1-0.1h-0.2h-0.1h-0.2h-0.1 M211.45,80.45v-0.4
	l-0.2-0.4l-0.3-0.3l-0.6-0.2l-0.6-0.2h-0.7l-0.7,0.1l-0.5,0.3l-0.4,0.3l-0.2,0.4v0.3l0.2,0.4l0.4,0.3l0.6,0.2l0.7,0.1h0.7
	 M216.45,83.35l-5-2.9 M214.85,84.25l0.3,0.2h0.5h0.4l0.4-0.2l0.2-0.2l0.1-0.2l-0.1-0.3l-0.2-0.2 M214.85,84.25l-5-2.9
	 M177.55,60.85v-0.3l-0.1-0.4l-0.4-0.4l-0.6-0.2l-0.6-0.1h-0.7l-0.6,0.1l-0.6,0.2l-0.4,0.3l-0.2,0.4v0.4l0.3,0.4l0.4,0.3l0.5,0.2
	l0.7,0.1h0.7 M182.55,63.75l-5-2.9 M180.95,64.75l0.4,0.1l0.4,0.1l0.4-0.1l0.4-0.1l0.2-0.3l0.1-0.2l-0.1-0.3l-0.2-0.2 M180.95,64.75
	l-5-2.9 M210.25,92.45l-0.3-0.1l-0.3-0.1l-0.4,0.1l-0.3,0.1l-0.2,0.2l-0.1,0.2l0.1,0.2l0.2,0.2l0.3,0.1h0.4h0.3l0.3-0.1l0.2-0.2
	l0.1-0.2l-0.1-0.2L210.25,92.45 M184.55,77.65l-0.3-0.2h-0.3h-0.4l-0.3,0.2l-0.2,0.1l-0.1,0.3l0.1,0.2l0.2,0.1l0.3,0.2h0.4h0.3
	l0.3-0.2l0.2-0.1l0.1-0.2l-0.1-0.3L184.55,77.65 M191.35,77.65l-0.3-0.2h-0.4h-0.4l-0.3,0.2l-0.2,0.1l-0.1,0.3l0.1,0.2l0.2,0.1
	l0.3,0.2h0.4h0.4l0.3-0.2l0.2-0.1v-0.2v-0.3L191.35,77.65 M135.65,105.85l-0.3-0.1l-0.3-0.1l-0.4,0.1l-0.3,0.1l-0.2,0.2l-0.1,0.2
	l0.1,0.2l0.2,0.2l0.3,0.1h0.4h0.3l0.3-0.1l0.3-0.2v-0.2v-0.2L135.65,105.85 M210.25,88.55l-0.3-0.1h-0.3h-0.4l-0.3,0.1l-0.2,0.2
	l-0.1,0.2l0.1,0.2l0.2,0.2l0.3,0.1l0.4,0.1l0.3-0.1l0.3-0.1l0.2-0.2l0.1-0.2l-0.1-0.2L210.25,88.55 M154.65,120.65l-0.3-0.1h-0.4
	h-0.3l-0.3,0.1l-0.2,0.2l-0.1,0.2l0.1,0.2l0.2,0.2l0.3,0.1l0.3,0.1l0.4-0.1l0.3-0.1l0.2-0.2l0.1-0.2l-0.1-0.2L154.65,120.65
	 M161.45,120.65l-0.4-0.1h-0.3h-0.4l-0.3,0.1l-0.2,0.2l-0.1,0.2l0.1,0.2l0.2,0.2l0.3,0.1l0.4,0.1l0.3-0.1l0.4-0.1l0.2-0.2v-0.2v-0.2
	L161.45,120.65 M135.65,109.75l-0.3-0.1l-0.3-0.1l-0.4,0.1l-0.3,0.1l-0.2,0.1l-0.1,0.3l0.1,0.2l0.2,0.2l0.3,0.1h0.4h0.3l0.3-0.1
	l0.3-0.2v-0.2v-0.3L135.65,109.75 M134.15,108.65l-0.2-0.2l-0.1-0.3l0.1-0.2l0.2-0.3l0.4-0.1l0.5-0.1l0.4,0.1l0.4,0.1l0.3,0.3
	l0.1,0.2l-0.1,0.3l-0.3,0.2l-0.4,0.2h-0.4h-0.5L134.15,108.65 M186.45,78.45l-0.3-0.2l-0.1-0.2l0.1-0.3l0.3-0.2l0.4-0.2h0.4h0.5
	l0.4,0.2l0.2,0.2l0.1,0.3l-0.1,0.2l-0.2,0.2l-0.4,0.2l-0.5,0.1l-0.4-0.1L186.45,78.45 M208.75,91.35l-0.3-0.2v-0.2v-0.3l0.3-0.2
	l0.4-0.2h0.5h0.4l0.4,0.2l0.3,0.2l0.1,0.3l-0.1,0.2l-0.3,0.2l-0.4,0.2h-0.4h-0.5L208.75,91.35 M156.55,121.55l-0.3-0.2l-0.1-0.3
	l0.1-0.3l0.3-0.2l0.3-0.1l0.5-0.1l0.5,0.1l0.4,0.1l0.2,0.2l0.1,0.3l-0.1,0.3l-0.2,0.2l-0.4,0.2h-0.5h-0.5L156.55,121.55
	 M165.45,130.05l-0.2-0.1v-0.2v-0.3l0.2-0.1l0.3-0.2h0.4h0.4l0.3,0.2l0.2,0.1l0.1,0.3l-0.1,0.2l-0.2,0.1l-0.3,0.2h-0.4h-0.4
	L165.45,130.05 M225.25,95.55l0.2,0.2l0.1,0.2l-0.1,0.2l-0.2,0.2l-0.3,0.1l-0.4,0.1l-0.3-0.1l-0.4-0.1l-0.2-0.2v-0.2v-0.2l0.2-0.2
	l0.4-0.1h0.3h0.4L225.25,95.55 M218.55,95.55l0.2,0.2v0.2v0.2l-0.2,0.2l-0.3,0.1l-0.4,0.1l-0.4-0.1l-0.3-0.1l-0.2-0.2l-0.1-0.2
	l0.1-0.2l0.2-0.2l0.3-0.1h0.4h0.4L218.55,95.55 M120.75,102.65l0.2,0.2l0.1,0.2l-0.1,0.3l-0.2,0.1l-0.3,0.1l-0.4,0.1l-0.4-0.1
	l-0.3-0.1l-0.2-0.1v-0.3v-0.2l0.2-0.2l0.3-0.1h0.4h0.4L120.75,102.65 M127.45,102.65l0.2,0.2l0.1,0.2l-0.1,0.3l-0.2,0.1l-0.3,0.1
	l-0.4,0.1l-0.3-0.1l-0.3-0.1l-0.2-0.1l-0.1-0.3l0.1-0.2l0.2-0.2l0.3-0.1h0.3h0.4L127.45,102.65 M177.75,73.65l-0.2-0.2v-0.2v-0.2
	l0.2-0.2l0.4-0.1l0.3-0.1l0.4,0.1l0.3,0.1l0.2,0.2l0.1,0.2l-0.1,0.2l-0.2,0.2l-0.3,0.1l-0.4,0.1l-0.3-0.1L177.75,73.65
	 M177.75,69.75l-0.2-0.2v-0.2v-0.2l0.2-0.2l0.4-0.1h0.3h0.4l0.3,0.1l0.2,0.2l0.1,0.2l-0.1,0.2l-0.2,0.2l-0.3,0.1l-0.4,0.1l-0.3-0.1
	L177.75,69.75 M165.45,126.25l-0.2-0.2v-0.2v-0.2l0.2-0.2l0.3-0.1l0.4-0.1l0.4,0.1l0.3,0.1l0.2,0.2l0.1,0.2l-0.1,0.2l-0.2,0.2
	l-0.3,0.1h-0.4h-0.4L165.45,126.25 M177.65,66.25l-0.3-0.1l-0.4-0.1l-0.3,0.1l-0.3,0.1l-0.3,0.2v0.2v0.2l0.3,0.2l0.3,0.1h0.3h0.4
	l0.3-0.1l0.2-0.2l0.1-0.2l-0.1-0.2L177.65,66.25 M108.15,106.35l-0.4-0.1h-0.3h-0.4l-0.3,0.1l-0.2,0.2l-0.1,0.2l0.1,0.2l0.2,0.2
	l0.3,0.1l0.4,0.1l0.3-0.1l0.4-0.1l0.2-0.2v-0.2v-0.2L108.15,106.35 M108.15,102.45l-0.4-0.1h-0.3h-0.4l-0.3,0.1l-0.2,0.2l-0.1,0.2
	l0.1,0.2l0.2,0.2l0.3,0.1l0.4,0.1l0.3-0.1l0.4-0.1l0.2-0.2v-0.2v-0.2L108.15,102.45 M25.85,58.85l-0.3-0.1h-0.4h-0.4l-0.3,0.1
	l-0.2,0.2l-0.1,0.2l0.1,0.2l0.2,0.2l0.3,0.1l0.4,0.1l0.4-0.1l0.3-0.1l0.2-0.2l0.1-0.2l-0.1-0.2L25.85,58.85 M32.55,58.85l-0.3-0.1
	h-0.4h-0.3l-0.3,0.1l-0.3,0.2v0.2v0.2l0.3,0.2l0.3,0.1l0.3,0.1l0.4-0.1l0.3-0.1l0.2-0.2l0.1-0.2l-0.1-0.2L32.55,58.85 M106.85,16.05
	l-0.3-0.2h-0.4h-0.4l-0.3,0.2l-0.2,0.1l-0.1,0.2l0.1,0.3l0.2,0.1l0.3,0.2h0.4h0.4l0.3-0.2l0.2-0.1l0.1-0.3l-0.1-0.2L106.85,16.05
	 M106.85,12.15l-0.3-0.1l-0.4-0.1l-0.4,0.1l-0.3,0.1l-0.2,0.1l-0.1,0.3l0.1,0.2l0.2,0.2l0.3,0.1h0.4h0.4l0.3-0.1l0.2-0.2l0.1-0.2
	l-0.1-0.3L106.85,12.15 M170.95,66.25l-0.3-0.1l-0.4-0.1l-0.4,0.1l-0.3,0.1l-0.2,0.2l-0.1,0.2l0.1,0.2l0.2,0.2l0.3,0.1h0.4h0.4
	l0.3-0.1l0.2-0.2l0.1-0.2l-0.1-0.2L170.95,66.25 M165.35,128.25l-0.3-0.2l-0.1-0.3l0.1-0.3l0.3-0.2l0.3-0.1l0.5-0.1l0.5,0.1l0.4,0.1
	l0.2,0.2l0.1,0.3l-0.1,0.3l-0.2,0.2l-0.4,0.2h-0.5h-0.5L165.35,128.25 M122.55,103.55l-0.2-0.2l-0.1-0.3l0.1-0.2l0.2-0.3l0.4-0.1
	l0.5-0.1l0.4,0.1l0.4,0.1l0.3,0.3l0.1,0.2l-0.1,0.3l-0.3,0.2l-0.4,0.2h-0.4h-0.5L122.55,103.55 M177.65,71.85l-0.3-0.3l-0.1-0.2
	l0.1-0.3l0.3-0.2l0.4-0.2h0.4h0.5l0.4,0.2l0.2,0.2l0.1,0.3l-0.1,0.2l-0.2,0.3l-0.4,0.1l-0.5,0.1l-0.4-0.1L177.65,71.85
	 M220.35,96.45l-0.3-0.2v-0.3v-0.2l0.3-0.3l0.4-0.1l0.5-0.1l0.4,0.1l0.4,0.1l0.3,0.3l0.1,0.2l-0.1,0.3l-0.3,0.2l-0.4,0.2h-0.4h-0.5
	L220.35,96.45 M27.65,59.75l-0.2-0.2l-0.1-0.3l0.1-0.2l0.2-0.3l0.4-0.1l0.5-0.1l0.4,0.1l0.4,0.1l0.3,0.3l0.1,0.2l-0.1,0.3l-0.3,0.2
	l-0.4,0.2h-0.4h-0.5L27.65,59.75 M106.55,105.35l-0.2-0.3l-0.1-0.2l0.1-0.3l0.2-0.2l0.4-0.2h0.5h0.4l0.4,0.2l0.3,0.2l0.1,0.3
	l-0.1,0.2l-0.3,0.3l-0.4,0.1l-0.4,0.1l-0.5-0.1L106.55,105.35 M105.35,14.95l-0.3-0.2l-0.1-0.3l0.1-0.3l0.3-0.2l0.3-0.1l0.5-0.1
	l0.5,0.1l0.4,0.1l0.2,0.2l0.1,0.3l-0.1,0.3l-0.2,0.2l-0.4,0.1l-0.5,0.1l-0.5-0.1L105.35,14.95 M172.75,67.15l-0.2-0.3l-0.1-0.2
	l0.1-0.3l0.2-0.2l0.4-0.2h0.5h0.4l0.4,0.2l0.3,0.2l0.1,0.3l-0.1,0.2l-0.3,0.3l-0.4,0.1l-0.4,0.1l-0.5-0.1L172.75,67.15 M3.25,52.65
	l-0.3-0.3l-0.1-0.3l0.1-0.4l0.3-0.3l0.4-0.2l0.6-0.1h0.5l0.6,0.2l0.4,0.2l0.2,0.3l0.1,0.3l-0.2,0.4l-0.4,0.2l-0.5,0.2h-0.6h-0.6
	L3.25,52.65 M88.75,3.25l-0.3-0.3l-0.1-0.3l0.1-0.3l0.2-0.3l0.5-0.2l0.5-0.1h0.6l0.6,0.1l0.4,0.2l0.2,0.4v0.3l-0.1,0.3l-0.4,0.3
	l-0.5,0.1l-0.6,0.1l-0.6-0.1L88.75,3.25 M112.55,115.65l-0.4-0.3l-0.1-0.3l0.1-0.3l0.3-0.3l0.4-0.2l0.6-0.1h0.6l0.5,0.1l0.4,0.2
	l0.2,0.4l0.1,0.3l-0.2,0.3l-0.4,0.3l-0.5,0.1l-0.6,0.1l-0.6-0.1L112.55,115.65 M198.05,66.35l-0.4-0.3l-0.1-0.3l0.1-0.4l0.3-0.3
	l0.4-0.2l0.6-0.1h0.5l0.6,0.2l0.4,0.2l0.2,0.3l0.1,0.3l-0.2,0.4l-0.4,0.2l-0.5,0.2h-0.6h-0.6L198.05,66.35 M227.95,107.05l-0.3-0.3
	l-0.2-0.3l0.1-0.4l0.3-0.3l0.4-0.2l0.6-0.1h0.6l0.5,0.2l0.4,0.2l0.3,0.3v0.4l-0.2,0.3l-0.4,0.2l-0.5,0.2h-0.6h-0.5L227.95,107.05
	 M183.05,132.95l-0.3-0.3l-0.2-0.3l0.1-0.3l0.3-0.3l0.4-0.3l0.6-0.1l0.6,0.1l0.5,0.1l0.4,0.2l0.3,0.3v0.4l-0.2,0.3l-0.4,0.3
	l-0.5,0.1l-0.6,0.1l-0.5-0.1L183.05,132.95 M234.65,101.85l-7.2-9.8 M227.45,92.05L227.45,92.05l-0.1-0.1l-0.1-0.1h-0.2h-0.1h-0.1
	h-0.2h-0.1 M225.25,92.15l1.3-0.3 M214.15,77.15l11.1,15 M215.45,76.75l-1.3,0.4 M215.45,76.75h0.1h0.2v-0.1l0.1-0.1v-0.1h0.1
	l-0.1-0.1v-0.1 M215.85,76.25l-7.2-9.7 M208.65,66.55v-0.1l-0.1-0.1h-0.1l-0.2-0.1h-0.1h-0.2h-0.1h-0.2 M207.65,66.25l-2.3,0.6
	 M205.35,66.85h-0.1h-0.2h-0.1h-0.2h-0.1l-0.1-0.1l-0.1-0.1h-0.1 M204.35,66.65l-1.4-1.9 M202.95,64.75l-0.1-0.1v-0.1l-0.1-0.1
	l-0.2-0.1l-0.1-0.1l-0.1-0.1l-0.1-0.1l-0.2-0.1 M202.05,63.95l-2.5-1.4 M199.55,62.55l-0.1-0.1v-0.1l-0.1-0.1v-0.1l0.1-0.1v-0.1
	l0.1-0.1 M199.55,61.85l1.8-1 M201.35,60.85l0.1-0.1h0.1v-0.1v-0.1v-0.1v-0.1l-0.1-0.1h-0.1 M201.35,60.25l-26.3-15.2 M175.05,45.05
	l-0.1-0.1h-0.2h-0.1h-0.1h-0.2h-0.1h-0.1l-0.1,0.1 M173.05,45.65l1-0.6 M142.85,28.15l30.2,17.5 M143.85,27.65l-1,0.5 M143.85,27.65
	l0.1-0.1l0.1-0.1v-0.1v-0.1v-0.1l-0.1-0.1h-0.1 M143.85,27.05l-26.3-15.2 M117.55,11.85l-0.1-0.1h-0.2h-0.1h-0.2h-0.1h-0.2h-0.1
	l-0.1,0.1 M116.45,11.85l-1.8,1 M114.65,12.85l-0.1,0.1h-0.1h-0.2h-0.1h-0.2h-0.1h-0.2l-0.1-0.1 M113.55,12.85l-20.7-11.9
	 M92.85,0.95l-0.6-0.3l-0.7-0.3l-0.8-0.1h-0.8h-0.9l-0.7,0.1l-0.8,0.3l-0.6,0.3 M86.95,0.95l-2.5,1.4 M84.45,2.35l-0.1,0.1h-0.2
	h-0.1h-0.1h-0.2h-0.1h-0.2l-0.1-0.1 M83.35,2.35l-1.8-1 M81.55,1.35l-0.1-0.1h-0.1h-0.2h-0.1h-0.2h-0.1h-0.1l-0.2,0.1 M80.45,1.35
	l-3.9,2.3 M76.55,3.65h-0.1l-0.1,0.1v0.1v0.1v0.1l0.1,0.1l0.1,0.1 M77.55,4.75l-1-0.5 M62.55,13.45l15-8.7 M61.55,12.85l1,0.6
	 M61.55,12.85h-0.2l-0.1-0.1h-0.1h-0.1h-0.2h-0.1l-0.1,0.1h-0.1 M60.55,12.85l-2.6,1.5 M57.95,14.35l-0.3,0.1l-0.2,0.2l-0.3,0.1
	l-0.4,0.1h-0.3l-0.3,0.1h-0.4h-0.3 M55.45,14.95h-12.3 M43.15,14.95h-0.5l-0.5,0.1h-0.5l-0.4,0.1l-0.5,0.1l-0.4,0.2l-0.4,0.2
	l-0.3,0.1 M39.65,15.75l-12.3,7.2 M27.35,22.95l-0.4,0.2l-0.2,0.2l-0.3,0.2l-0.2,0.3l-0.2,0.2l-0.1,0.3l-0.1,0.3v0.3 M25.85,24.95
	v7.1 M25.85,32.05v0.2l-0.1,0.2v0.2l-0.2,0.2l-0.1,0.1l-0.2,0.2l-0.2,0.2l-0.2,0.1 M24.85,33.45l-2.6,1.5 M22.25,34.95l-0.1,0.1
	l-0.1,0.1v0.1v0.1v0.1l0.1,0.1h0.1 M23.25,36.15l-1-0.6 M8.15,44.85l15.1-8.7 M7.15,44.25l1,0.6 M7.15,44.25l-0.1-0.1h-0.1h-0.1
	h-0.2h-0.1h-0.1h-0.2l-0.1,0.1 M6.15,44.25l-3.9,2.3 M2.25,46.55h-0.1l-0.1,0.1v0.1l-0.1,0.1l0.1,0.1v0.1h0.1l0.1,0.1 M2.25,47.15
	l1.7,1 M3.95,48.15l0.1,0.1l0.1,0.1v0.1h0.1l-0.1,0.1v0.1l-0.1,0.1l-0.1,0.1 M3.95,48.85l-2.5,1.4 M1.45,50.25l-0.5,0.4l-0.4,0.4
	l-0.2,0.4l-0.1,0.5l0.1,0.5l0.2,0.4l0.4,0.5l0.5,0.3 M1.45,53.65l2.5,1.5 M3.95,55.15h0.1l0.1,0.1v0.1l0.1,0.1l-0.1,0.1v0.1h-0.1
	l-0.1,0.1 M3.95,55.75l-1.7,1 M2.25,56.75l-0.1,0.1l-0.1,0.1l-0.1,0.1l0.1,0.1v0.1l0.1,0.1l0.1,0.1 M2.25,57.45l35.4,20.4
	 M37.65,77.85h0.1l0.1,0.1h0.2h0.1h0.1h0.2l0.1-0.1h0.1 M39.65,77.25l-1,0.6 M69.85,94.65l-30.2-17.4 M68.85,95.25l1-0.6
	 M68.85,95.25l-0.1,0.1h-0.1v0.1l-0.1,0.1l0.1,0.1v0.1h0.1l0.1,0.1 M68.85,95.85l35.4,20.4 M104.25,116.25l0.1,0.1h0.1l0.2,0.1h0.1
	h0.2l0.1-0.1h0.2l0.1-0.1 M105.35,116.25l1.7-1 M107.05,115.25h0.1l0.2-0.1h0.1h0.2h0.1h0.2l0.1,0.1h0.1 M108.15,115.25l2.5,1.5
	 M110.65,116.75l0.2,0.1h0.1l0.2,0.1l0.2,0.1h0.1l0.2,0.1h0.2l0.2,0.1 M112.05,117.25l3.2,0.8 M115.25,118.05h0.2l0.1,0.1l0.1,0.1
	l0.1,0.1v0.1v0.1l-0.1,0.1 M115.65,118.65l-0.9,1.3 M114.75,119.95l-0.1,0.1v0.1v0.1h0.1v0.1l0.1,0.1h0.1l0.2,0.1 M115.15,120.55
	l16.8,4.1 M131.95,124.65h0.2h0.1h0.2h0.1h0.1l0.1-0.1h0.1l0.1-0.1 M133.45,123.65l-0.5,0.8 M159.55,130.05l-26.1-6.4
	 M159.05,130.85l0.5-0.8 M159.05,130.85l-0.1,0.1v0.1l0.1,0.1v0.1h0.1l0.1,0.1h0.1 M159.35,131.35l16.9,4.2 M176.25,135.55h0.2h0.1
	h0.2h0.1l0.1-0.1h0.2l0.1-0.1v-0.1 M177.25,135.25l1-1.3 M178.25,133.95l0.1-0.1h0.1l0.1-0.1h0.1l0.2-0.1h0.1h0.2l0.1,0.1
	 M179.25,133.75l3.3,0.8 M182.55,134.55l0.6,0.1h0.6l0.6,0.1l0.6-0.1l0.6-0.1l0.6-0.1l0.5-0.2l0.5-0.2 M187.15,134.05l2.5-1.5
	 M189.65,132.55h0.1l0.1-0.1h0.2h0.1h0.2h0.1l0.2,0.1h0.1 M190.75,132.55l1.7,1 M192.45,133.55l0.2,0.1h0.1h0.1l0.2,0.1l0.1-0.1h0.2
	h0.1l0.1-0.1 M193.55,133.55l1-0.5 M194.55,133.05l0.1-0.1v-0.1h0.1v-0.1v-0.1l-0.1-0.1l-0.1-0.1 M193.55,131.85l1,0.6
	 M196.55,130.15l-3,1.7 M197.55,130.75l-1-0.6 M197.55,130.75h0.1h0.1l0.2,0.1h0.1h0.1l0.2-0.1h0.1h0.1 M198.55,130.75l2.3-1.3
	 M200.85,129.45l0.2-0.2l0.3-0.1l0.3-0.1l0.3-0.1l0.3-0.1h0.4h0.3h0.4 M203.35,128.85h3.8 M207.15,128.85l0.6-0.1l0.6-0.1l0.5-0.1
	l0.5-0.2l0.5-0.2l0.3-0.3l0.3-0.3l0.2-0.3 M210.65,127.25v-0.2l0.1-0.1l0.1-0.1l0.1-0.1l0.2-0.2l0.1-0.1l0.2-0.1l0.1-0.1
	 M211.55,126.25l7-4.1 M218.55,122.15h0.2l0.2-0.1l0.2-0.1l0.2-0.1l0.2-0.1h0.3l0.2-0.1h0.2 M220.25,121.65l0.6-0.1l0.5-0.2l0.5-0.2
	l0.4-0.2l0.3-0.3l0.3-0.3l0.1-0.3l0.1-0.4 M223.05,119.65v-2.2 M223.05,117.45v-0.2v-0.2l0.1-0.2l0.1-0.2l0.2-0.2l0.2-0.2l0.2-0.1
	l0.2-0.2 M224.05,115.95l2.3-1.3 M226.35,114.65h0.1v-0.1l0.1-0.1v-0.1l-0.1-0.1v-0.1h-0.1 M225.35,113.55l1,0.6 M228.35,111.75
	l-3,1.8 M229.35,112.35l-1-0.6 M229.35,112.35l0.1,0.1h0.1h0.1h0.2h0.1h0.1h0.2l0.1-0.1 M230.35,112.35l0.9-0.5 M231.25,111.85
	l0.1-0.1l0.1-0.1v-0.1l0.1-0.1h-0.1v-0.1l-0.1-0.1l-0.1-0.1 M231.25,111.15l-1.7-1 M229.55,110.15h-0.1l-0.1-0.1v-0.1l-0.1-0.1
	l0.1-0.1v-0.1h0.1l0.1-0.1 M229.55,109.55l2.5-1.5 M232.05,108.05l0.4-0.2l0.3-0.3l0.3-0.4l0.1-0.3l0.1-0.4v-0.3l-0.1-0.4l-0.2-0.3
	 M232.95,105.45l-1.4-1.9 M231.55,103.55l-0.1-0.1v-0.1v-0.1h0.1v-0.1l0.1-0.1h0.2l0.1-0.1 M231.95,102.95l2.3-0.5 M234.25,102.45
	l0.1-0.1h0.1l0.1-0.1l0.1-0.1v-0.1l0.1-0.1l-0.1-0.1 M76.35,3.95v1.5 M45.85,17.85v1.7 M33.55,24.95v1.7 M144.05,28.85v-1.5
	 M22.05,35.25v1.6 M1.95,46.85v1.7 M0.25,51.95v1.8 M1.95,57.05v1.8 M201.55,62.25v-1.7 M215.95,78.15v-1.7 M68.55,95.55v1.7
	 M234.75,103.75v-1.8 M233.25,108.15v-1.8 M231.55,113.25v-1.8 M226.55,116.15v-1.8 M218.75,117.65v1.8 M114.65,120.15v1.7
	 M206.45,124.75v1.8 M158.95,131.05v1.7 M194.75,134.45v-1.7"/>
</svg>
