<?xml version="1.0" encoding="utf-8"?>
<!-- Generator: Adobe Illustrator 19.0.0, SVG Export Plug-In . SVG Version: 6.00 Build 0)  -->
<svg version="1.0" id="Layer_1" xmlns="http://www.w3.org/2000/svg" xmlns:xlink="http://www.w3.org/1999/xlink" x="0px" y="0px"
	 width="39.8px" height="116.9px" viewBox="0 0 39.8 116.9" enable-background="new 0 0 39.8 116.9" xml:space="preserve">
<path fill="none" stroke="#000000" stroke-width="0.25" stroke-linecap="round" stroke-linejoin="round" stroke-miterlimit="10" d="
	M33.95,110.15l2.6-1.5 M3.55,108.85l2,1.2 M8.85,112.55v2.4 M30.95,112.55v2.4 M31.35,111.75L31.35,111.75 M8.35,111.75h0.1
	 M7.35,111.85l0.1,0.1l0.1,0.1l0.1,0.1 M8.35,111.85l-0.1,0.1l-0.1,0.1l-0.1,0.1 M31.45,111.85v0.1h0.1l0.1,0.1v0.1h0.1
	 M32.35,111.85v0.1h-0.1v0.1l-0.1,0.1h-0.1 M31.45,111.75v-0.1 M31.45,111.75h0.1l0.1,0.1h0.1h0.2h0.1 M31.45,111.65h0.1l0.1,0.1
	h0.1h0.2h0.1 M8.35,110.95v0.1 M13.85,104.35l-0.4,0.3 M10.05,102.35l0.5,0.2l1,0.4l0.5,0.2l0.5,0.3 M14.05,104.25L14.05,104.25
	 M13.95,100.35v0.1l0.2,0.8l0.4,0.7l0.5,0.6 M25.65,104.25h0.1 M25.85,100.15v0.1l-0.1,0.5l-0.2,0.5 M26.25,103.85h0.1l0.4-0.2
	l0.4-0.2l0.9-0.4l0.2-0.1 M26.05,104.45l0.2,0.2l0.6,0.5l0.4,0.7 M25.95,104.45l0.3,0.2l0.2,0.3l0.3,0.3l0.2,0.3l0.2,0.3
	 M13.95,104.35l-0.1,0.1l-0.3,0.2l-0.3,0.3 M30.05,102.45L30.05,102.45v0.3l-0.3,0.6 M29.55,103.95l-0.2,0.5l-0.1,0.2l-0.2,0.4
	 M31.45,109.15l-0.1,0.2v0.5v0.5 M11.85,106.35l-0.2-0.1l-0.4-0.4l-0.3-0.4l-0.3-0.5 M10.35,104.25L10.35,104.25l-0.3-0.6
	 M9.95,103.35L9.95,103.35l-0.2-0.6l-0.1-0.3 M8.35,110.65v-0.2v-0.4v-0.4v-0.4 M21.75,106.55l3.8-2.2 M25.35,104.15l-1.2-0.8
	 M23.15,102.85l-0.4-0.1l-0.7-0.2l-0.7-0.1l-0.7-0.1l-0.8-0.1l-0.7,0.1 M15.85,103.25l-1,0.6l-0.8,0.4 M14.65,104.65l2.9,1.6
	 M17.95,106.65l-0.1,0.1l-0.3,0.2l-0.2,0.3 M21.95,106.85l0.2,0.1l0.3,0.3l0.2,0.3l0.3,0.3l0.2,0.3 M18.45,106.75L18.45,106.75
	l0.5,0.1l0.8,0.2 M30.75,110.35l-0.7-0.8l-1.3-1.4l-0.6-0.7 M27.55,106.55h-0.1 M27.45,106.55l-4,2.3 M22.75,109.25l-0.7,0.2
	l-0.8,0.2l-0.8,0.1h-0.9 M16.35,108.85L16.35,108.85l-4-2.3 M12.25,106.55h-0.1 M11.75,107.15l-0.2,0.3l-0.5,0.7l-1.3,1.4
	 M10.35,112.15l0.5,0.3l1.3,0.8l1.3,0.8l1.4,0.6l1.5,0.6l1.4,0.3l1.5,0.1h1.3 M15.05,99.25l0.2-0.1l0.8-0.3l0.8-0.2l0.8-0.1l0.9-0.2
	h0.9h0.9h0.9 M32.55,10.35l-2.6,1.5 M9.55,11.65l-2-1.2 M11.75,21.35h-0.1l-0.1,0.2 M12.15,20.65l0.4,0.3v0.1 M27.55,20.65l-0.3,0.3
	 M29.85,23.15l-0.2-0.3l-0.6-0.6l-0.8-0.7 M30.45,103.25l0.3,0.7l0.2,0.9l0.2,0.8l0.1,0.9l0.1,0.6v0.5 M29.55,23.25l-2.5-1.5
	 M25.85,33.35v54.8 M26.55,100.15l3,1.7 M8.35,108.05v-0.4l0.1-0.5v-0.6l0.2-1.1l0.2-1 M9.65,102.25l2.3-1.4l1.9-1.1 M13.85,33.35
	v54.8 M13.15,21.45l-3.4,2 M3.15,22.95v70.7 M36.65,93.65v-70.7 M33.45,15.55l0.1-0.1 M32.45,13.85l0.1-0.1 M6.75,13.75L6.75,13.75
	h0.2h0.2 M5.95,15.05v0.1l0.1,0.2 M27.35,20.75v0.1 M12.35,20.75l0.1,0.1 M31.45,111.15h0.1h0.1h0.1l0.2,0.1l0.1-0.1 M31.45,18.05
	v-1.6 M31.45,95.45v-63.4 M31.45,110.75v-1.6 M7.45,111.75L7.45,111.75l0.1,0.1h0.2h0.1h0.1 M8.35,111.65v0.1 M8.35,111.05
	L8.35,111.05 M8.35,109.15v1.6 M8.35,31.85v63.6 M8.35,16.45v1.6 M7.25,13.95h-0.1l-0.2,0.2l-0.2,0.2 M33.35,15.35v-0.3l-0.1-0.2
	l-0.1-0.3l-0.2-0.2l-0.2-0.2 M8.35,14.45L8.35,14.45h0.1v0.1 M7.35,15.95L7.35,15.95l0.1-0.3l0.1-0.2 M7.45,16.25L7.45,16.25h0.1
	h0.2h0.1h0.1 M8.35,16.15L8.35,16.15 M31.45,16.25h0.1h0.1h0.1h0.2h0.1 M31.65,14.55l0.1,0.2l0.2,0.2l0.2,0.2l0.1,0.3l0.1,0.2
	 M31.25,14.55L31.25,14.55 M31.45,16.15L31.45,16.15 M9.25,22.95l-0.2-0.5l-0.3-0.5l-0.2-0.7l-0.1-0.7v-0.5l-0.1-0.5 M9.65,23.35
	v-0.1l0.1-0.5 M10.25,21.65l0.2-0.3v-0.2l0.3-0.3l0.3-0.2l0.3-0.2h0.2 M8.35,18.05v-0.2v-0.5v-0.5 M27.85,20.45h0.3l0.4,0.1l0.2,0.1
	 M29.45,21.45L29.45,21.45l0.2,0.6 M29.75,22.25l0.2,0.6 M31.35,19.45v0.5l-0.1,0.6l-0.1,0.9l-0.3,0.8l-0.3,0.6 M31.45,18.55v-0.2
	 M31.35,16.55v0.2v0.4v0.4l0.1,0.4 M6.85,112.45v2.4 M6.95,111.85l0.2-0.1 M7.35,97.55v-67.2 M7.25,16.05l-0.8-0.4 M6.35,30.05v68.3
	 M5.55,112.35l-3.6-2.1 M1.15,94.65v-71.6 M0.65,23.15v73.2 M32.45,111.65v0.1 M32.45,111.75h0.1 M32.95,112.45v2.4 M39.15,96.35
	v-73.2 M38.65,23.05v71.6 M38.45,109.85l-4.9,2.9 M33.45,98.35v-68.3 M33.35,15.65l-0.9,0.5 M32.45,30.25v66.7 M32.45,111.05v0.1
	v0.5 M31.65,8.05v-2.5 M8.15,8.05v-2.5 M16.35,23.05l0.1,0.2 M23.35,23.05l-0.1,0.2l-0.1,0.1 M23.45,23.05L23.45,23.05l4-2.4
	 M27.45,20.65h0.1 M28.05,20.05l0.1-0.2l0.6-0.7l1.3-1.4 M8.95,16.85l0.8,0.9l1.3,1.4l0.5,0.7 M12.15,20.65h0.1 M12.35,20.65l4,2.4
	 M16.95,23.35h0.1l0.9,0.3l0.8,0.1l0.8,0.1h0.9 M7.45,13.95l0.8,0.4 M8.35,14.45l0.2-0.1 M31.25,14.35l0.1,0.1 M31.45,14.45l0.9-0.6
	 M31.65,13.45l-3.5-2.1 M27.55,10.85l3.9-2.2 M8.75,8.85l3,1.7 M12.25,11.05l-4.7,2.7 M10.45,15.55l0.7,0.4l1.3,0.8l1.3,0.8l1.5,0.7
	l1.6,0.5l1.2,0.3l1.2,0.1h1.2 M29.35,17.45l-0.7,0.5l-1.4,0.8l-1.5,0.8l-1.6,0.7l-1.1,0.4l-1.2,0.2l-1.3,0.1h-1.3"/>
<path fill="none" stroke="#000000" stroke-width="0.5" stroke-linecap="round" stroke-linejoin="round" stroke-miterlimit="10" d="
	M27.95,113.75l3,1.7 M11.75,113.75l-2.9,1.7 M6.85,115.45l0.2,0.1h0.3l0.2,0.1h0.3h0.3l0.2-0.1h0.3l0.2-0.1 M30.95,115.45l0.2,0.1
	h0.2l0.3,0.1h0.3h0.2l0.3-0.1h0.2l0.3-0.1 M6.85,111.95h0.1l0.1,0.1h0.1l0.2,0.1h0.1h0.1h0.2h0.1 M31.95,112.15h0.1h0.1h0.2h0.1
	l0.1-0.1h0.1l0.2-0.1h0.1 M31.05,111.95l0.1,0.1h0.1l0.1,0.1h0.1h0.2h0.1h0.2 M7.85,112.15h0.1h0.2h0.1h0.1l0.2-0.1h0.1l0.1-0.1
	 M21.55,106.55l-0.4,0.1l-0.4,0.2h-0.5l-0.4,0.1l-0.5-0.1l-0.4-0.1l-0.5-0.1l-0.3-0.2l-0.3-0.2l-0.2-0.3l-0.1-0.2v-0.3l0.1-0.3
	l0.2-0.2l0.2-0.2l0.3-0.2l0.4-0.2l0.5-0.1h0.4h0.5h0.5l0.4,0.1l0.4,0.2l0.3,0.2l0.3,0.2l0.1,0.3l0.1,0.3l-0.1,0.3l-0.1,0.2l-0.2,0.3
	L21.55,106.55 M31.25,111.85l0.1-0.1 M31.45,111.65h-0.1v0.1 M31.45,111.05v0.1v0.1v0.1v0.1v0.1v0.1 M31.35,110.95L31.35,110.95v0.1
	h0.1 M8.35,111.05L8.35,111.05v-0.1 M8.45,111.75L8.45,111.75h-0.1v-0.1 M8.45,111.75l0.1,0.1 M0.65,111.85l-0.2-0.2l-0.1-0.1
	l-0.1-0.2v-0.1 M39.55,111.25v0.1l-0.1,0.2l-0.2,0.1l-0.1,0.2 M3.15,108.65l2.8-1.6 M7.15,10.25v3.2 M7.15,10.25v-0.2l0.1-0.3
	l0.1-0.2l0.1-0.3l0.1-0.2l0.2-0.2l0.2-0.2l0.2-0.1 M36.65,108.65l-2.8-1.6 M31.65,8.55l0.1,0.1l0.2,0.2l0.2,0.2l0.2,0.2l0.1,0.3
	l0.1,0.2v0.3l0.1,0.2 M32.65,10.25v3.2 M1.15,109.75l0.2-0.1l0.2-0.1l0.2-0.1l0.3-0.2l0.2-0.1l0.3-0.2l0.2-0.1l0.2-0.1l0.2-0.1
	 M36.65,108.65l0.2,0.1l0.2,0.1l0.2,0.1l0.2,0.2l0.3,0.1l0.2,0.2l0.3,0.1l0.2,0.1l0.2,0.1 M28.85,11.25h-0.2l-0.3-0.1l-0.3-0.1
	l-0.3-0.1h-0.4 M12.35,10.95h-0.4l-0.4,0.1l-0.3,0.1l-0.3,0.1 M33.85,111.35v0.2l-0.1,0.3l-0.1,0.3l-0.1,0.3l-0.1,0.3 M6.35,112.75
	l-0.2-0.3l-0.1-0.3l-0.1-0.3v-0.3v-0.2 M8.35,111.65v-0.3v-0.3 M6.85,115.45l-6.2-3.6 M32.95,115.45l6.2-3.6 M16.65,23.45h0.1
	 M23.05,23.45L23.05,23.45 M31.65,8.55l-1-0.5l-0.9-0.5l-1.1-0.4l-1-0.3l-1.1-0.3l-1.2-0.3l-1.2-0.2l-1.2-0.2l-1.2-0.1h-1.3h-1.2
	h-1.2l-1.3,0.1l-1.2,0.2l-1.2,0.2l-1.1,0.3l-1.1,0.3l-1.1,0.3l-1,0.4l-1,0.5l-0.9,0.5 M18.25,14.35l-0.3,0.2l-0.2,0.2l-0.2,0.3v0.3
	v0.2l0.2,0.3l0.2,0.2l0.4,0.2l0.3,0.2l0.5,0.1l0.4,0.1h0.5l0.5-0.1l0.4-0.1l0.4-0.1l0.3-0.2l0.3-0.2l0.2-0.3l0.1-0.3l-0.1-0.2
	l-0.1-0.3l-0.2-0.2l-0.2-0.3l-0.4-0.1l-0.4-0.2l-0.4-0.1h-0.5h-0.5l-0.4,0.1l-0.5,0.1L18.25,14.35 M31.45,16.15h-0.1v0.1
	 M31.45,16.15v-0.3v-0.3l-0.1-0.3v-0.4l-0.1-0.3 M31.25,14.55l-0.1-0.2 M8.55,14.35L8.55,14.35v0.2 M8.55,14.55L8.55,14.55l-0.1,0.3
	l-0.1,0.4v0.3v0.3v0.3 M8.35,16.25L8.35,16.25v-0.1 M38.65,7.95l0.5-0.3 M39.15,7.65l0.1-0.1l0.2-0.2l0.1-0.1v-0.2v-0.1l-0.1-0.2
	l-0.2-0.1l-0.1-0.2 M39.15,6.45l-5-2.8 M34.15,3.65l-1-0.6l-1.1-0.5l-1.1-0.4l-1.2-0.5l-1.2-0.3l-1.3-0.3l-1.3-0.3l-1.3-0.2
	l-1.4-0.2l-1.3-0.1h-1.4h-1.4h-1.3l-1.4,0.1l-1.3,0.2l-1.4,0.2l-1.3,0.3l-1.2,0.3l-1.2,0.3l-1.2,0.5l-1.1,0.4l-1.1,0.5l-1,0.6
	 M0.65,6.45l5-2.8 M0.65,6.45l-0.2,0.2l-0.1,0.1l-0.1,0.2v0.1v0.2l0.1,0.1l0.1,0.2l0.2,0.1 M1.15,7.95l-0.5-0.3 M1.15,7.95l0.2,0.1
	l0.2,0.1h0.3h0.3h0.3h0.2l0.3-0.1l0.2-0.1 M8.15,5.05l-5,2.9 M31.65,5.05l-1-0.5l-0.9-0.4l-1.1-0.4l-1-0.4l-1.1-0.3l-1.2-0.3
	l-1.2-0.2l-1.2-0.1l-1.2-0.1l-1.3-0.1h-1.2l-1.2,0.1l-1.3,0.1l-1.2,0.1l-1.2,0.2l-1.1,0.3l-1.1,0.3l-1.1,0.4l-1,0.4l-1,0.4l-0.9,0.5
	 M31.65,5.05l5,2.9 M36.65,7.95l0.2,0.1l0.2,0.1h0.3h0.3h0.2h0.3l0.3-0.1l0.2-0.1 M8.55,111.85l2.6,1.5l2.2,1.3l0.9,0.5l0.7,0.4
	l0.7,0.3l0.6,0.2l0.6,0.2l0.7,0.2l0.8,0.1h0.8l0.8,0.1l0.8-0.1h0.8l0.8-0.2l0.7-0.1l0.7-0.3l0.7-0.3l0.6-0.3l0.6-0.3l0.6-0.3
	l1.3-0.8l3.7-2.1 M12.55,21.05h0.1 M27.05,21.05h0.1 M11.95,21.25l0.2-0.1l0.2-0.1h0.1h0.1 M27.15,21.05L27.15,21.05h0.1h0.2
	l0.2,0.1l0.1,0.1 M0.25,7.05v104.2 M39.55,111.25V7.05 M33.15,13.75l-4.3-2.5 M10.95,11.25l-4.3,2.5 M33.85,111.35v-96.3
	 M5.95,15.05v96.3 M33.85,15.05v-0.2l-0.1-0.2v-0.2l-0.1-0.2l-0.1-0.1l-0.1-0.1l-0.2-0.2l-0.1-0.1 M6.65,13.75l-0.2,0.1l-0.1,0.2
	l-0.1,0.1l-0.1,0.1l-0.1,0.2l-0.1,0.2v0.2v0.2 M23.05,23.45l0.5-0.3l0.4-0.2l0.3-0.3h0.2l0.1-0.1l0.2-0.1l2.3-1.4 M12.65,21.05
	l1.2,0.7l0.8,0.5l0.4,0.2l0.2,0.1l0.2,0.1l0.2,0.1l0.4,0.3l0.5,0.3l0.2,0.1 M16.65,23.45h0.2l0.2,0.1l0.6,0.3l0.6,0.2l0.6,0.1h0.7
	h0.7h0.6l0.7-0.2l0.7-0.2l0.5-0.2l0.2-0.1h0.1"/>
</svg>
