<?xml version="1.0" encoding="utf-8"?>
<!-- Generator: Adobe Illustrator 19.0.0, SVG Export Plug-In . SVG Version: 6.00 Build 0)  -->
<svg version="1.0" id="Layer_1" xmlns="http://www.w3.org/2000/svg" xmlns:xlink="http://www.w3.org/1999/xlink" x="0px" y="0px"
	 width="83.2px" height="142.3px" viewBox="0 0 83.2 142.3" enable-background="new 0 0 83.2 142.3" xml:space="preserve">
<path fill="none" stroke="#000000" stroke-width="0.25" stroke-linecap="round" stroke-linejoin="round" stroke-miterlimit="10" d="
	M5.95,113.35l-0.7-0.4 M4.25,113.55l1.7,0.9 M8.95,118.55v1.9 M26.05,121.05L26.05,121.05v-0.1l0.1-0.1 M29.05,96.05h0.2h0.1
	l0.1-0.1h0.1 M29.85,95.45v0.1v0.1h0.1 M29.95,95.85L29.95,95.85v0.1v0.2 M30.35,96.25v-0.1l-0.1-0.1l-0.1-0.1 M37.75,94.45
	l-0.1-0.1l-0.5-0.5l-0.5-0.5l-0.4-0.6 M34.25,90.55v0.1l0.1,0.7l0.2,0.7l0.3,0.7 M25.85,121.15L25.85,121.15l0.1-0.1v-0.1
	 M14.05,121.15L14.05,121.15l-0.1-0.1v-0.1 M25.95,120.85l0.2-0.1 M26.15,118.95v-8.6 M26.75,120.45l0.6-0.2l0.7-0.1l0.7-0.1h0.8
	 M26.15,108.65h-0.2 M15.05,121.35l0.4,0.2l0.8,0.2l0.9,0.3l0.9,0.1l0.9,0.1h1h0.9 M25.95,119.05v-8.6 M30.45,102.95l-0.3-0.2
	l-1-0.5l-1.7-0.7 M26.05,107.75l-0.1-0.8l-0.2-0.8l-0.3-0.8l-0.3-0.9 M31.55,108.35l-0.6-0.2l-0.7-0.2l-0.7-0.1h-0.8 M30.75,96.25
	v-0.1h-0.1l-0.1,0.1 M49.85,112.25v0.1h-0.1 M47.05,105.85l-16-9.3 M30.45,96.25l-0.2,0.1 M25.95,107.85l-0.2-0.8l-0.2-0.8l-0.3-0.8
	l-0.3-0.9 M14.05,107.25l0.1-0.2l0.2-0.8l0.3-0.8l0.3-0.9l0.4-0.8l0.5-0.8l0.6-0.7l0.6-0.7l0.6-0.6 M24.85,109.25l-0.4,0.1l-0.8,0.3
	l-0.9,0.2l-0.9,0.2l-1,0.1h-0.9h-1 M47.95,106.15L47.95,106.15l-0.1-0.1l-0.1,0.1 M49.85,109.35v0.1l-0.1,0.1 M51.35,115.85
	l-0.1-0.1l-0.4-0.4l-0.3-0.4 M46.35,114.45l2.7-1.6 M49.65,112.05v-2 M45.85,115.05v0.2l0.1,0.5l0.2,0.5 M31.85,101.75l-0.2,0.2
	l-0.1,0.2l-0.2,0.2l-0.1,0.3l-0.1,0.2 M45.65,114.85h-0.1l-0.2,0.1h-0.3h-0.2h-0.3 M45.85,112.25v2.1 M49.05,109.95l-2.7,1.6
	 M49.65,109.35l-0.1-0.2l-0.1-0.5l-0.1-0.5 M47.45,106.25l0.1-0.1 M70.75,135.25l1.1-0.6 M43.55,108.55l-0.1,0.1l-0.2,0.2l-0.2,0.3
	l-0.1,0.2l-0.1,0.3 M45.65,111.95h-0.1l-0.2,0.1h-0.3h-0.2h-0.3 M44.05,108.55l0.1,0.1l0.4,0.3l0.4,0.5 M20.95,99.95h0.1
	 M22.25,99.95h1.3l2.4,0.1 M32.45,101.85l11,6.3 M43.95,108.35l0.5-0.4 M13.15,96.65l5.6,3.3 M19.15,100.15L19.15,100.15h0.3
	l0.2,0.1h0.3h0.3 M67.35,141.45v-2.2 M32.25,121.05L32.25,121.05l-0.1-0.1v-0.1 M64.65,139.75L64.65,139.75l-0.1-0.1v-0.1
	 M66.45,139.05L66.45,139.05l-0.2,0.3l-0.1,0.1 M38.25,94.65h0.1l0.2-0.1h0.2 M51.95,115.95L51.95,115.95h-0.1h-0.1 M70.45,113.35
	l-31.2-18 M38.05,94.75l-0.7,0.4 M37.05,95.35l-0.1,0.1v0.1l-0.1,0.1l-0.1,0.1v0.1 M38.25,95.85l31.2,18.1 M68.65,125.55
	L68.65,125.55h-0.1l-0.1,0.1 M70.55,128.85v0.1 M75.65,120.85l0.1-0.1l0.1-0.1 M71.65,113.95l0.1-0.1h0.2h0.2 M51.05,116.35
	l-2.7,1.5 M67.85,125.35l-15.7-9 M75.55,120.25L75.55,120.25l-0.1-0.7l-0.2-0.8l-0.3-0.7l-0.4-0.7 M70.75,114.45l0.7-0.4
	 M70.45,114.65h-0.1l-0.1,0.1l-0.1,0.2v0.1l-0.1,0.1 M74.45,121.55L74.45,121.55h-0.1h-0.1h-0.2h-0.1 M71.15,114.95L71.15,114.95
	l0.5,0.4l0.6,0.6l0.5,0.6l0.4,0.6 M47.55,118.35l-0.1,0.2l-0.2,0.2l-0.1,0.2l-0.2,0.3l-0.1,0.2 M48.35,118.55l15.6,9 M66.35,139.05
	l-0.2,0.2l-0.3,0.1l-0.2,0.1l-0.3,0.1 M65.05,127.55l2.7-1.6 M70.35,128.75v-0.1l-0.1-0.5l-0.2-0.5 M64.25,128.05l-0.1,0.1l-0.2,0.2
	l-0.1,0.3l-0.2,0.2l-0.1,0.3 M66.35,131.45L66.35,131.45l-0.3,0.1h-0.3h-0.2h-0.3 M64.75,128.05l0.2,0.1l0.3,0.3l0.4,0.4
	 M66.95,138.65l2-1.2 M69.35,137.95v3.2 M75.55,135.65v-12.2 M75.45,120.95l-0.7,0.4 M74.55,123.85v11.4 M73.95,138.05l-3,1.7
	 M70.35,138.45v-7.7 M69.75,129.45l-2.7,1.6 M66.55,132.45v5.3 M43.75,111.65L43.75,111.65v-0.3l-0.1-0.2 M42.45,109.85l-11-6.3
	 M31.35,104.05l0.2,0.6l0.2,0.7l0.1,0.7l0.1,0.6l0.1,0.7 M32.15,110.35v8.6 M33.15,121.35l30.3,17.5 M64.55,138.25v-5.7
	 M64.55,131.15v-0.1l-0.1-0.2l-0.1-0.3 M62.95,129.25l-15.6-9 M46.35,119.65l-0.1-0.1l-0.5-0.4l-0.4-0.5l-0.5-0.6 M43.85,114.35
	v-2.1 M35.25,89.45l0.1-0.1l0.1-0.1 M35.25,29.45h0.1l0.1-0.2 M35.15,80.55v-42.1 M35.15,29.05l0.1-0.4v-0.5l0.1-0.5l0.1-0.5
	l0.1-0.5 M34.35,89.95l0.7-0.4 M34.05,90.15L34.05,90.15h-0.1h-0.1h-0.2h-0.1 M34.15,36.05v44.6 M30.15,95.15L30.15,95.15v0.1
	 M29.85,95.45l0.1-0.1 M29.95,85.55v-46.6 M35.95,25.65h0.1h0.1 M28.95,95.45L28.95,95.45l0.1,0.1h0.2h0.1h0.2 M29.85,39.05v46.5
	 M35.65,25.85l-1.2,0.7 M35.95,25.55l0.3-0.7 M34.85,24.85l-0.3,0.3l-0.2,0.4 M37.65,9.85l-5.7,3.3 M38.65,24.55l0.1-0.1l0.1-0.1
	v-0.2 M36.75,24.95L36.75,24.95v-0.1l-0.1-0.1 M38.15,24.45v0.1v0.2l-0.1,0.1 M30.75,13.95v0.6 M29.95,29.15h-0.1 M30.15,14.05
	l-0.4,0.2l-0.5,0.2l-0.6,0.1l-0.6,0.1l-0.6,0.1 M30.25,13.05h0.1l0.1,0.1v0.1 M29.95,28.75l0.1-0.2l0.1-0.5l0.2-0.5 M30.15,28.85
	L30.15,28.85v0.1 M28.95,29.15v0.1h0.1h0.2h0.1h0.2 M30.55,27.35l-0.3,0.3l-0.2,0.4l-0.1,0.5 M38.25,24.25l0.5-0.2 M33.75,27.35h0.1
	v-0.2l0.1-0.2 M39.05,23.85L39.05,23.85l0.3-0.1h0.3h0.2h0.3 M38.85,23.25v-3.2 M38.05,24.35v0.1h-0.1h-0.1h-0.2h-0.1 M38.15,20.45
	v3.2 M32.35,27.15v0.1l0.1,0.1v0.1 M33.85,26.95v0.1l-0.1,0.2v0.1 M39.05,19.25L39.05,19.25l0.3-0.1l0.3-0.1h0.2h0.3 M26.25,14.85
	v0.6 M28.95,96.05v-0.1v-0.1l-0.1-0.1v-0.1v-0.1 M28.85,85.55v-46.5 M28.95,28.45l0.1-0.4l0.2-0.5l0.3-0.4l0.3-0.3l0.5-0.1
	 M32.45,27.15L32.45,27.15h0.1h0.1h0.1 M33.85,26.85l0.1-0.1 M33.95,26.05v-3.2 M34.15,26.55L34.15,26.55v0.1 M15.05,16.15
	L15.05,16.15l0.1,0.1l0.1,0.1 M24.55,14.75h-1l-1.2,0.1l-1.3,0.2l-1.3,0.3l-1.1,0.3l-1.2,0.4 M26.25,13.85L26.25,13.85v0.1v0.2v0.1
	v0.1 M17.55,5.65v2.4 M32.95,26.85L32.95,26.85l0.2,0.1h0.1h0.1h0.2 M33.85,22.85v3.3 M32.85,26.15v-3.3 M32.65,22.15l-5.1-3
	 M38.75,19.35l-0.5,0.3 M38.95,18.85v-0.1l0.1-0.4l0.1-0.4l0.2-0.4l0.2-0.4 M33.95,22.15l-0.1,0.1 M34.55,21.75l3-1.7 M3.25,28.35
	v71 M32.95,22.25L32.95,22.25h0.2l0.1,0.1h0.1h0.2 M33.45,20.35L33.45,20.35l0.1,0.3l0.1,0.2 M32.85,21.95l0.1-0.3v-0.2l0.1-0.3
	v-0.3l0.1-0.2 M27.35,18.75l0.1-0.2l0.1-0.3l0.1-0.2l0.2-0.2l0.1-0.2 M15.45,17.25v1.4 M15.45,16.95L15.45,16.95l-0.1,0.1
	 M27.35,30.35v53.5 M26.25,18.45l-0.5-0.1l-0.9-0.3l-0.9-0.2l-1-0.2h-1l-1-0.1l-1.1,0.1 M15.35,28.65v54.9 M14.25,17.65l-5.2,3
	 M14.95,16.25L14.95,16.25l0.1,0.1l0.1,0.1 M40.85,20.05v3.2 M40.85,24.15v0.1v0.1v0.2l-0.1,0.1v0.1 M49.85,25.05v-0.5 M39.95,16.55
	l0.1,0.2l0.2,0.4 M49.55,24.35l-8.4-4.9 M49.85,24.45l0.2,0.2l0.1,0.1l0.1,0.2 M49.95,24.25l0.1-0.2l0.3-0.1l0.4-0.1l0.4-0.1
	 M44.85,33.75l-0.1-0.1 M59.05,36.25L59.05,36.25l0.1-0.1l0.1-0.2 M57.05,36.45v0.1l0.1,0.1 M58.55,36.25v0.1l-0.1,0.2l-0.1,0.1
	 M52.55,23.95l-0.3,0.1l-0.5,0.2l-0.6,0.2 M6.45,34.65v70 M6.25,119.35l-4.9-2.9 M1.25,101.05v-72.4 M0.75,28.55v73.2 M6.95,120.25
	v-2.9 M7.15,116.95l6.6,3.8 M13.95,119.05v-8.6 M13.75,108.55l-5.6-3.2 M45.45,27.75h0.1l0.2-0.1 M44.85,29.15l-0.1-0.1
	 M57.15,36.45L57.15,36.45h0.1h0.1 M54.65,35.05l2.3,1.3 M45.35,34.65v0.1v0.1h0.1 M58.65,36.05l0.5-0.3 M54.15,39.15v-0.1l0.1-0.1
	l0.1-0.2 M59.45,35.65L59.45,35.65l0.3-0.1l0.2-0.1h0.3h0.3 M59.25,35.05v-3.3 M57.55,35.65v-2.2 M58.45,36.15L58.45,36.15h-0.1
	l-0.2,0.1h-0.1h-0.1 M58.55,32.15v3.3 M52.75,38.95L52.75,38.95v0.1l0.1,0.1 M54.25,38.75v0.1l-0.1,0.1l-0.1,0.2 M59.45,30.95
	L59.45,30.95l0.3-0.1h0.2h0.3h0.3 M44.85,29.85v3.2 M44.85,33.85L44.85,33.85v0.1l0.1,0.2 M45.55,34.75l7,4 M52.85,38.95
	L52.85,38.95h0.1h0.1 M54.25,38.55h0.1 M54.35,37.85v-3.3 M54.55,38.25v0.1l-0.1,0.1 M53.35,38.65L53.35,38.65h0.1l0.2,0.1h0.1h0.1
	 M54.25,34.65v3.3 M53.25,37.95v-3.3 M59.15,31.15l-0.5,0.3 M59.35,30.65v-0.2l0.1-0.3l0.1-0.4l0.1-0.4l0.2-0.4 M54.35,33.95h-0.1
	 M54.95,33.55l3-1.7 M52.95,33.85l-7.8-4.6 M46.05,27.75l-0.3,0.1l-0.2,0.2l-0.3,0.2l-0.2,0.2l-0.1,0.2 M40.05,9.35v1 M53.35,34.05
	L53.35,34.05h0.1h0.2h0.1h0.1 M53.85,32.05v0.1l0.1,0.2l0.1,0.3 M53.25,33.65v-0.2l0.1-0.3v-0.3l0.1-0.2l0.1-0.3 M82.95,37.85v0.2
	 M41.05,5.65v2.4 M61.25,31.75v3.3 M61.25,35.85v0.1v0.2l-0.1,0.1v0.1v0.1 M70.25,36.55v-0.2 M60.35,28.35l0.1,0.2l0.2,0.4
	 M69.95,36.05l-8.4-4.8 M70.25,36.25l0.1,0.1l0.1,0.1 M70.25,36.05l0.2-0.2l0.3-0.2l0.3-0.1 M78.45,27.15v2 M80.85,40.75v0.2
	l-0.1,0.4l-0.2,0.3 M72.15,45.35L72.15,45.35l-0.1-0.1v-0.1 M74.55,44.45v0.2l-0.1,0.3l-0.2,0.3 M65.85,46.65h-0.1v-0.1v-0.1
	 M73.55,133.95v-10.3 M73.55,120.95v-0.1l-0.2-0.7l-0.2-0.7l-0.3-0.7 M68.95,114.75l-31.2-18 M36.15,95.85v-0.1l-0.6-0.4l-0.5-0.6
	l-0.4-0.6 M33.15,80.75v-43.9 M34.35,24.35l0.3-0.1l0.4-0.1 M36.75,24.65L36.75,24.65l0.1,0.1h0.1l0.1-0.1 M37.15,23.85v-2.1
	 M81.35,40.25l0.4-0.3l0.3-0.3l0.3-0.3l0.3-0.4 M82.95,37.85v-0.2 M64.95,45.25h0.1 M69.95,47.85l0.1-0.1l0.2-0.3l0.1-0.4
	 M65.75,39.55l0.1-0.1h0.3 M64.95,40.55l0.1,0.1 M67.85,47.85L67.85,47.85l-0.1-0.1v-0.1 M70.25,46.95v0.2l-0.1,0.3l-0.2,0.3
	 M50.15,22.35l2.6,1.5 M51.85,24.45l-4.5,2.7 M46.55,27.85l7,4 M54.35,31.55l2.9-1.6 M60.05,28.35l0.2-0.1 M60.55,28.35l7.9,4.6
	 M70.45,34.05l1.6,1 M66.85,39.35l-0.1,0.1 M23.25,15.75h0.3l0.8,0.1l0.7,0.2 M28.55,17.35l4.7,2.7 M33.95,19.85l2.9-1.7
	 M39.65,16.55l0.2-0.1 M40.15,16.55l8,4.6 M66.75,39.45h0.1 M66.35,39.55l-0.2,0.1l-0.3,0.1l-0.2,0.2l-0.2,0.2l-0.1,0.3
	 M70.65,40.05l0.8-0.4 M75.55,43.65l4.4-2.6 M80.95,32.45v6.7 M72.55,34.65v2.4 M70.65,44.25l1.4,0.8 M72.35,45.15L72.35,45.15
	l0.3,0.1h0.2l0.3-0.1 M73.55,42.75v-6.7 M74.45,44.25L74.45,44.25h-0.1l-0.1,0.1h-0.2h-0.1 M74.55,36.05v6.7 M70.55,46.35v0.1
	 M70.25,46.65h0.1 M70.35,45.75v-4.3 M67.25,39.85v1.8 M67.15,42.05l-1.9-1.1 M65.25,41.55v3.3 M65.25,45.55v0.1v0.1v0.1
	 M65.75,46.45l1.9,1.1 M68.05,47.65L68.05,47.65l0.3,0.1h0.2l0.3-0.1 M69.25,45.75v-4.2 M70.15,46.75L70.15,46.75h-0.1h-0.2
	l-0.1,0.1l-0.1-0.1 M70.25,41.55v4.2 M31.45,12.25l5.7-3.3 M8.55,19.85l5.2-3 M14.85,16.15L14.85,16.15h0.1 M16.25,15.45l0.8-0.3
	l1.2-0.4l1.3-0.4l1.3-0.2l1.3-0.2l1.4-0.2 M26.85,13.75h0.5h0.5l0.6-0.1l0.5-0.1l0.4-0.2"/>
<path fill="none" stroke="#000000" stroke-width="0.5" stroke-linecap="round" stroke-linejoin="round" stroke-miterlimit="10" d="
	M8.95,120.85l2.3-1.3 M8.95,120.85l-0.2,0.1l-0.3,0.1h-0.3h-0.2h-0.3h-0.3l-0.2-0.1l-0.2-0.1 M7.55,117.45v-0.1l-0.5-0.3l-0.1-0.2
	v-0.1 M30.15,96.35l-0.3,0.1 M29.85,96.45l-0.1,0.1 M30.25,96.35l17.1,10 M30.25,96.35h-0.1 M32.55,100.95l-2.4-4.6 M48.45,107.25
	l-3,1.3 M48.45,107.25l-0.4-0.4l-0.3-0.3l-0.4-0.2 M45.75,108.85l2.7-1.6 M44.65,107.95l0.3,0.2l0.4,0.3l0.4,0.4 M67.35,141.85
	l-37.2-21.5 M44.65,107.95l-17.3-10 M27.35,97.95l2.4-1.4 M28.95,96.05l0.8,0.5 M69.35,141.85l-0.2,0.1l-0.3,0.1h-0.2h-0.3h-0.3
	h-0.2l-0.3-0.1l-0.2-0.1 M53.75,119.55v-1.7 M69.35,137.25l-0.2,0.3l-0.2,0.2l-0.2,0.3l-0.3,0.1l-0.1,0.1 M75.95,137.65v0.2
	l-0.1,0.1l-0.1,0.2l-0.2,0.1 M70.55,138.95v0.4l-0.2,0.8 M74.55,137.65L74.55,137.65l-0.3-0.4l-0.4-0.6l-0.3-0.5 M63.35,125.05
	l1.5-0.8 M52.25,118.65l11.1,6.4 M53.75,117.85l-1.5,0.8 M64.85,124.25l-11.1-6.4 M75.55,138.25l-6.2,3.6 M38.85,9.15v0.8
	 M38.35,8.25l0.1,0.2l0.2,0.1l0.1,0.2l0.1,0.2v0.2 M28.55,12.25l0.2-0.2l0.2-0.3l0.1-0.3v-0.3l-0.1-0.2l-0.3-0.3l-0.3-0.2
	 M28.35,10.45l-0.4-0.2l-0.4-0.1l-0.5-0.1h-0.5h-0.5l-0.5,0.1l-0.4,0.2l-0.3,0.2l-0.3,0.3l-0.1,0.3l-0.1,0.3l0.1,0.2l0.2,0.3
	l0.2,0.3 M40.65,24.95l-0.6-0.2l-1-0.2h-0.3 M39.65,15.25l0.1,0.3l-0.1,0.3l-0.1,0.4l-0.3,0.3l-0.3,0.2l-0.4,0.2l-0.5,0.2l-0.6,0.1
	l-0.5,0.1h-0.6l-0.5-0.1l-0.6-0.1l-0.4-0.2l-0.4-0.2l-0.4-0.3l-0.2-0.3l-0.1-0.3v-0.4v-0.2 M38.65,13.65l-0.4-0.2l-0.5-0.2h-0.6
	l-0.5-0.1l-0.5,0.1l-0.6,0.1l-0.4,0.1l-0.4,0.2l-0.4,0.3l-0.2,0.3l-0.1,0.3v0.3l0.1,0.3l0.2,0.3l0.3,0.3l0.4,0.2l0.4,0.2l0.5,0.1
	l0.6,0.1l0.5-0.1h0.5l0.5-0.2l0.5-0.1l0.4-0.3l0.2-0.3l0.2-0.3l0.1-0.3l-0.1-0.3l-0.1-0.3l-0.3-0.3L38.65,13.65 M0.75,117.25
	l-0.2-0.1l-0.2-0.2v-0.1l-0.1-0.2 M27.35,95.15l1.6,0.9 M37.15,21.25l0.3-0.3l0.4-0.6l0.3-0.6 M33.95,22.15L33.95,22.15l0.2,0.4v0.2
	 M3.25,114.35l0.1-0.1l0.1-0.1l0.1-0.2l0.1-0.1l0.2-0.1l0.1-0.1l0.1-0.1l0.2-0.1 M5.25,112.95l-1,0.5 M5.25,112.95l0.4-0.3l0.3-0.3
	v-0.1 M7.25,14.55v3.7 M37.45,17.85l0.9-0.2l0.7-0.4l0.5-0.5l0.1-0.2 M3.25,114.35l-0.5,0.6l-0.6,0.5l-0.4,0.4l-0.3,0.3l-0.2,0.2
	 M15.45,18.95L15.45,18.95l0.8-0.7l1.8-1.1l2-0.9l1.4-0.3l1.4-0.3 M27.35,95.15l-0.7-0.4l-0.8-0.3l-0.8-0.2l-0.9-0.3l-0.9-0.1
	l-1-0.1h-0.9h-1l-0.9,0.1l-0.9,0.1l-0.9,0.3l-0.8,0.2l-0.8,0.3l-0.7,0.4 M6.45,119.35L6.45,119.35l-0.2-0.4l-0.2-0.6l-0.1-0.6
	l0.1-0.1 M7.95,105.25v-0.8l0.1-0.8l0.2-0.9l0.3-0.8l0.4-0.8l0.4-0.9l0.5-0.7l0.6-0.8l0.6-0.7l0.6-0.6l0.6-0.5l0.7-0.4 M12.95,96.55
	l2.4-1.4 M51.35,22.05h0.1l0.1-0.2l0.1-0.3v-0.2l-0.2-0.2l-0.2-0.2 M51.25,20.95l-0.3-0.1l-0.4-0.1h-0.4h-0.4l-0.3,0.1l-0.3,0.2
	l-0.3,0.1l-0.1,0.3v0.2l0.1,0.2l0.2,0.2 M40.65,24.95l4.8,2.8 M48.35,21.35l0.1,0.2l0.3,0.4l0.5,0.2l0.5,0.1l0.3,0.1 M60.95,36.75
	l-0.6-0.3l-0.9-0.1h-0.3 M7.95,21.35v83.9 M7.95,21.35v-0.2l-0.1-0.1v-0.1l-0.1-0.1l-0.1-0.1v-0.1l-0.1-0.1l-0.1-0.1 M0.75,117.25
	l6.2,3.6 M60.05,27.05v0.3v0.3l-0.2,0.3l-0.2,0.3l-0.4,0.3l-0.4,0.2l-0.5,0.2l-0.5,0.1h-0.6h-0.5h-0.6l-0.5-0.2l-0.5-0.1l-0.4-0.3
	l-0.3-0.3l-0.2-0.3l-0.1-0.3v-0.3v-0.2 M58.95,25.35l-0.4-0.2l-0.5-0.1l-0.5-0.1h-0.5h-0.6l-0.5,0.1l-0.5,0.2l-0.4,0.2l-0.3,0.3
	l-0.2,0.2l-0.1,0.4l-0.1,0.3l0.1,0.3l0.2,0.3l0.3,0.2l0.4,0.3l0.5,0.1l0.5,0.2h0.5h0.6l0.5-0.1l0.5-0.1l0.4-0.2l0.4-0.2l0.3-0.3
	l0.2-0.3v-0.3v-0.3l-0.2-0.3l-0.2-0.3L58.95,25.35 M57.55,33.05h-0.1 M57.55,33.05l0.3-0.3l0.4-0.6l0.3-0.7 M54.35,33.95
	L54.35,33.95l0.2,0.4v0.1 M57.85,29.55l0.9-0.1l0.7-0.4l0.5-0.5v-0.2 M71.75,33.85v-0.1l0.2-0.2l0.1-0.2l-0.1-0.2l-0.1-0.2l-0.3-0.2
	 M71.55,32.75l-0.3-0.2l-0.3-0.1h-0.4l-0.4,0.1l-0.4,0.1l-0.3,0.1l-0.2,0.2l-0.1,0.2v0.2l0.1,0.3l0.2,0.2 M65.75,39.45l-4.8-2.7
	 M68.75,33.05l0.1,0.3l0.3,0.3l0.5,0.3l0.5,0.1h0.3 M72.05,134.45l0.2,0.2l0.2,0.1l0.2,0.2l0.2,0.2l0.2,0.3l0.2,0.2l0.2,0.2l0.1,0.3
	 M37.15,21.25l-0.1,0.1 M30.65,27.25v68.8 M70.55,133.65l1.5,0.8 M50.05,22.35l0.5-0.1h0.4l0.4-0.2l0.3-0.2l0.2-0.2l0.1-0.3v-0.2
	l-0.1-0.3l-0.2-0.2l-0.3-0.2l-0.4-0.1l-0.5-0.1h-0.4h-0.5l-0.4,0.2l-0.3,0.1l-0.3,0.3l-0.1,0.2l-0.1,0.3 M54.05,27.95l0.1,0.1
	l0.1,0.3l0.2,0.3l0.3,0.3l0.4,0.3l0.4,0.2l0.6,0.1l0.5,0.1h0.6l0.6-0.1 M59.95,28.35l0.1-0.3v-0.1 M72.35,33.05v-0.2l-0.1-0.2
	l-0.3-0.3l-0.3-0.2l-0.4-0.1l-0.4-0.1h-0.5l-0.4,0.1l-0.4,0.1l-0.4,0.2l-0.2,0.2l-0.2,0.3v0.2 M70.45,34.05h0.5l0.4-0.1l0.4-0.1
	l0.3-0.2l0.1-0.1 M75.65,31.15l-35.6-20.6 M38.85,9.95l0.2,0.1h0.1l0.2,0.1l0.1,0.1l0.2,0.1h0.1l0.1,0.1l0.2,0.1 M38.85,9.95
	l-8.1,4.7 M30.75,14.65l-0.5,0.2l-0.5,0.3l-0.5,0.1l-0.6,0.2l-0.6,0.1h-0.6l-0.6,0.1h-0.6 M22.85,15.65h0.4h0.4l0.4-0.1h0.5h0.4h0.4
	h0.4l0.5,0.1 M33.75,16.15v0.1l0.1,0.4l0.2,0.3l0.3,0.3l0.4,0.2l0.5,0.2l0.5,0.1l0.6,0.1h0.5h0.6 M39.65,16.55l0.1-0.3v-0.1
	 M67.25,42.05l-0.2-0.3l-0.1-0.3l-0.1-0.3v-0.3v-0.2 M71.55,39.55v-2.6 M71.55,39.55v0.3l-0.1,0.3l-0.1,0.3l-0.1,0.2l-0.2,0.2h-0.1
	 M28.75,9.75l-0.4-0.2l-0.5-0.1l-0.6-0.1l-0.5-0.1l-0.6,0.1l-0.5,0.1l-0.5,0.1l-0.5,0.2l-0.3,0.3l-0.3,0.2l-0.2,0.4v0.3v0.3l0.2,0.3
	l0.3,0.3l0.3,0.3l0.5,0.2l0.5,0.1l0.5,0.1h0.6h0.5l0.6-0.1l0.5-0.1l0.4-0.2l0.3-0.3l0.3-0.3l0.2-0.3v-0.3v-0.3l-0.2-0.4l-0.3-0.2
	L28.75,9.75 M40.05,9.15l-0.2-0.1l-0.2-0.1l-0.2-0.1l-0.3-0.2l-0.2-0.1l-0.2-0.1l-0.2-0.1l-0.2-0.1 M40.05,9.15l36.9,21.3
	 M72.15,35.55l-4.9,2.8 M67.25,38.35l-0.2,0.1l-0.1,0.1l-0.1,0.2v0.2v0.1l0.1,0.2l0.1,0.1l0.2,0.1 M67.25,39.45l2,1.2 M69.25,40.65
	h0.1l0.1,0.1h0.2h0.1h0.1h0.2l0.1-0.1h0.1 M70.25,40.65l0.1-0.1 M70.35,40.55h0.1l0.1-0.1v-0.1v-0.1v-0.1l-0.1-0.1h-0.1
	 M68.35,38.85l2,1.2 M71.55,36.95l-3.2,1.9 M72.55,37.55l-1-0.6 M72.55,37.55l-0.2-0.1l-0.1-0.1l-0.1-0.2v-0.2 M41.05,8.55
	l36.9,21.3 M41.05,8.55l-1-0.5l-1.1-0.5l-1.2-0.4l-1.2-0.4l-1.2-0.3l-1.3-0.3l-1.3-0.2l-1.4-0.1l-1.4-0.1h-1.3l-1.4,0.1l-1.3,0.1
	l-1.4,0.2l-1.3,0.3l-1.2,0.3l-1.2,0.4l-1.2,0.4l-1.1,0.5l-1,0.5 M7.25,14.55l10.3-6 M10.45,16.45l-3.2-1.9 M6.45,18.75l4-2.3
	 M6.45,18.75l-0.2,0.1l-0.1,0.1l-0.1,0.2l-0.1,0.1l0.1,0.2l0.1,0.2l0.1,0.1l0.2,0.1 M6.45,19.85l1,0.6 M15.05,3.65l-14.3,8.3
	 M0.75,11.95l-0.2,0.1l-0.2,0.2v0.1l-0.1,0.2l0.1,0.1v0.2l0.2,0.1l0.2,0.2 M0.75,13.15l0.5,0.2 M1.25,13.35l0.2,0.1l0.2,0.1l0.3,0.1
	h0.3h0.2l0.3-0.1l0.2-0.1l0.3-0.1 M3.25,13.35l14.3-8.3 M41.05,5.05l-1-0.5l-1.1-0.5l-1.2-0.4l-1.2-0.4l-1.2-0.3l-1.3-0.3l-1.3-0.2
	l-1.4-0.1l-1.4-0.1h-1.3l-1.4,0.1l-1.3,0.1l-1.4,0.2l-1.3,0.3l-1.2,0.3l-1.2,0.4l-1.2,0.4l-1.1,0.5l-1,0.5 M41.05,5.05l37.4,21.6
	 M78.45,26.65l0.4,0.3l0.3,0.3l0.2,0.3l0.1,0.4v0.3l-0.1,0.4l-0.2,0.3l-0.3,0.3l-0.4,0.3 M78.45,29.55l-5.9,3.4 M72.55,32.95
	l-0.2,0.1l-0.1,0.2l-0.1,0.1v0.2v0.1l0.1,0.2l0.1,0.1l0.2,0.2 M72.55,34.15l1,0.5 M73.55,34.65l0.1,0.1h0.1h0.2l0.1,0.1l0.2-0.1h0.1
	h0.1l0.1-0.1 M74.55,34.65l6.4-3.6 M80.95,25.25l0.6,0.4l0.5,0.4l0.4,0.5l0.3,0.5l0.2,0.5v0.6v0.5l-0.2,0.5l-0.3,0.5l-0.4,0.5
	l-0.5,0.5l-0.6,0.4 M80.95,25.25l-37.4-21.6 M43.55,3.65l-1.1-0.6l-1.2-0.5l-1.2-0.5l-1.3-0.5l-1.4-0.3l-1.4-0.4l-1.4-0.2l-1.5-0.2
	l-1.5-0.1l-1.5-0.1h-1.5l-1.5,0.1l-1.5,0.1l-1.5,0.2l-1.4,0.2l-1.4,0.4l-1.3,0.3l-1.4,0.5l-1.2,0.5l-1.2,0.5l-1.1,0.6 M25.85,121.15
	l0.1-0.1 M7.55,117.45l6.5,3.7 M25.95,121.05l0.3-0.1l0.5-0.2l0.5-0.2l0.6-0.1l0.6-0.1h0.7h0.6l0.6,0.1l0.6,0.1l0.6,0.2l0.5,0.2
	l0.2,0.1 M38.85,94.65l-0.2-0.2l-0.4-0.3l-0.4-0.3l-0.4-0.4l-0.4-0.5l-0.3-0.6l-0.4-0.5l-0.2-0.6l-0.2-0.6l-0.2-0.6l-0.1-0.5
	l-0.1-0.5v-0.1 M30.85,96.25l-0.1-0.1l-0.1-0.1l-0.2-0.2l-0.1-0.2l-0.1-0.3l-0.1-0.2v-0.1 M14.05,121.15l0.4,0.2l0.7,0.4l0.8,0.2
	l0.8,0.3l0.9,0.1l0.9,0.2h0.9h0.9h0.9l0.9-0.1l0.8-0.2l0.8-0.2l0.8-0.3l0.8-0.3l0.5-0.3 M51.95,115.95l-0.1-0.1l-0.4-0.3l-0.3-0.3
	l-0.3-0.4l-0.3-0.4l-0.3-0.5l-0.2-0.4l-0.1-0.5l-0.1-0.5v-0.3 M47.95,106.15l-17.1-9.9 M49.85,112.25v-2.9 M49.85,109.35v-0.3
	l-0.1-0.5l-0.2-0.4l-0.2-0.5l-0.2-0.5l-0.4-0.4l-0.3-0.3l-0.4-0.3h-0.1 M32.25,121.05l32.4,18.7 M65.85,139.75l2.5-1.5
	 M64.65,139.75l0.3,0.1h0.3h0.3l0.3-0.1l0.1-0.1 M72.25,113.85l-33.4-19.2 M75.95,137.65v-17.3 M68.75,125.65l-16.8-9.7
	 M70.55,138.95v-10.1 M70.55,128.85v-0.3l-0.1-0.5l-0.1-0.5l-0.3-0.4l-0.2-0.5l-0.3-0.4l-0.4-0.3l-0.4-0.3 M75.95,120.35v-0.4
	l-0.1-0.7l-0.1-0.7l-0.2-0.7l-0.3-0.6l-0.4-0.7l-0.4-0.6l-0.4-0.6l-0.5-0.5l-0.6-0.5l-0.5-0.4l-0.2-0.1 M35.55,88.95v-60
	 M35.55,28.95v-0.3l0.1-0.8l0.1-0.7l0.2-0.8l0.2-0.8 M30.15,95.05v-66.2 M36.25,25.55l0.2-0.5l0.1-0.2 M35.05,24.75L35.05,24.75
	l0.3-0.1l0.3-0.1l0.3,0.1l0.4,0.1l0.4,0.2h0.1 M37.85,24.95l0.7-0.4 M38.55,24.55h0.1h0.1 M36.85,24.95l0.2,0.1l0.3,0.1h0.3l0.2-0.1
	v-0.1 M30.15,28.85v-0.3l0.1-0.4l0.1-0.4l0.1-0.2l0.2-0.3l0.2-0.1 M30.75,27.25v-0.1l0.3-0.1h0.3l0.3,0.1l0.4,0.1l0.4,0.2h0.1
	 M33.65,27.45l0.3-0.2l0.1-0.2l0.1-0.3v-0.3 M33.55,27.45h0.1 M32.55,27.45l0.2,0.1l0.3,0.1l0.3-0.1l0.2-0.1 M33.75,15.65v0.5
	 M39.75,16.15v-0.5 M34.05,14.45l-0.3,0.8 M39.65,15.25l-0.3-0.8 M0.25,12.55v104.1 M34.15,22.95l2.9-1.6 M34.15,26.45v-3.7
	 M5.95,19.25v98.4 M44.65,33.45v0.2l0.1,0.4l0.1,0.3l0.3,0.3l0.2,0.2l0.1,0.1 M54.55,35.15l2.6,1.6 M44.65,28.85v4.6 M58.25,36.75
	l0.7-0.4 M58.95,36.35L58.95,36.35l0.2-0.1 M57.15,36.75l0.3,0.1h0.2h0.3l0.3-0.1 M50.75,24.65l-5.5,3.2 M45.35,27.75l-0.1,0.1
	l-0.3,0.2l-0.2,0.2l-0.1,0.3v0.3 M45.45,34.95l7.4,4.3 M54.05,39.15l0.2-0.2l0.2-0.2l0.1-0.2v-0.3 M53.95,39.25l0.1-0.1
	 M52.85,39.25l0.2,0.1h0.3h0.3l0.3-0.1 M54.05,27.35v0.6 M60.05,27.95v-0.6 M54.45,26.25l-0.3,0.8 M60.05,27.05l-0.3-0.8
	 M54.55,34.75l2.9-1.7 M54.55,38.25v-3.8 M82.95,38.05v-0.1v-0.4 M80.35,41.85l0.4-0.3l0.5-0.4l0.5-0.5l0.4-0.5l0.4-0.5l0.2-0.6
	l0.2-0.7v-0.3 M70.55,44.45l1.7,0.9 M64.95,45.25l0.1,0.2l0.1,0.3l0.1,0.4l0.2,0.3l0.3,0.2h0.1 M73.95,45.45l6.4-3.6 M72.25,45.35
	l0.2,0.2l0.4,0.1h0.4h0.3l0.4-0.1v-0.1 M65.85,46.65l2,1.2 M82.95,37.65v-9.5 M64.95,40.55v4.7 M70.55,41.05l0.4-0.2 M69.75,47.95
	l0.3-0.2l0.2-0.3l0.2-0.3l0.1-0.4v-0.4 M66.85,38.85l-1.2,0.7 M69.65,47.95h0.1 M65.75,39.55h-0.1l-0.3,0.2l-0.2,0.3l-0.1,0.2
	l-0.1,0.3 M67.85,47.85l0.3,0.1l0.4,0.2h0.4h0.3l0.3-0.1l0.1-0.1 M72.15,33.55v3.4 M66.85,38.95v1.7 M70.55,46.35v-6.1"/>
</svg>
