<?xml version="1.0" encoding="utf-8"?>
<!-- Generator: Adobe Illustrator 19.0.0, SVG Export Plug-In . SVG Version: 6.00 Build 0)  -->
<svg version="1.0" id="Layer_1" xmlns="http://www.w3.org/2000/svg" xmlns:xlink="http://www.w3.org/1999/xlink" x="0px" y="0px"
	 width="28px" height="117.7px" viewBox="0 0 28 117.7" enable-background="new 0 0 28 117.7" xml:space="preserve">
<path fill="none" stroke="#000000" stroke-width="0.25" stroke-linecap="round" stroke-linejoin="round" stroke-miterlimit="10" d="
	M24.05,105.75h0.1 M23.85,105.45l0.2-0.1l0.1-0.1l0.1-0.2 M3.65,109.65l1.9,1.2 M23.85,104.75v-0.4v-1.8 M8.15,113.15l-0.1,0.1h-0.1
	 M8.95,113.35v2.4 M7.45,113.05h-0.1l-0.3-0.2 M7.65,112.95L7.65,112.95v0.1 M8.85,112.85L8.85,112.85l-0.3,0.1l-0.1,0.1l-0.2,0.1
	 M8.25,113.15v-0.1l-0.1-0.1 M7.05,112.75l0.2,0.1 M8.15,112.95l0.4-0.1l0.2-0.1 M8.45,112.55L8.45,112.55 M7.45,112.65L7.45,112.65
	v0.1h0.1v0.1h0.1 M7.75,112.95h0.2 M8.45,112.65h-0.1v0.1l-0.1,0.1 M7.55,112.65L7.55,112.65h0.1h0.1h0.2h0.1 M8.45,112.45v0.1
	 M7.55,112.45L7.55,112.45l0.1,0.1h0.1h0.2h0.1 M7.55,111.95L7.55,111.95h0.1l0.1,0.1h0.2h0.1 M8.45,111.55v0.3 M22.25,103.25v-0.1
	l-0.1-0.3v-0.4 M19.85,102.45l-0.2-0.4l-0.2-0.5l-0.2-0.5l-0.1-0.5l-0.1-0.6 M17.55,103.05l-0.2-0.4l-0.2-0.5l-0.2-0.5l-0.1-0.6
	l-0.1-0.5 M7.55,111.55L7.55,111.55h0.1h0.1h0.2h0.1 M22.15,103.25l-0.2-0.2l-0.2-0.1l-0.3-0.1l-0.4-0.1 M15.45,103.75l-0.3-0.3
	l-0.3-0.4l-0.3-0.5l-0.3-0.5l-0.2-0.5 M8.45,107.45l-0.1,1.3v1.4 M8.45,111.75v-0.2 M13.75,104.75l-0.3-0.3l-0.4-0.4l-0.3-0.5
	l-0.2-0.4l-0.2-0.6 M11.95,107.15l-0.5-0.2l-0.5-0.2l-0.5-0.2l-0.5-0.1 M14.05,105.15l-0.2,0.1l-0.2,0.2l-0.3,0.3 M17.65,103.45
	h-0.2l-0.2,0.1 M15.85,104.15l-1.6,0.9 M14.75,105.45l2.8,1.6 M22.25,105.85l-2.2-3 M19.85,102.85l-1.9,0.5 M15.75,109.35l-2.8-1.6
	 M12.05,108.15l-0.1,0.2l-0.6,0.9l-0.8,0.8l-1,0.9 M9.35,112.25l4.2,2.5 M14.55,116.05L14.55,116.05l-0.1-0.1v-0.2v-0.3
	 M18.05,107.55h-0.1l-0.3,0.3l-0.3,0.2 M22.55,105.75h0.1h0.3h0.4l0.3,0.1l0.3,0.1 M18.65,107.65l0.3,0.1l0.9,0.1l0.8-0.1l0.8-0.2
	 M24.95,107.35v0.1v0.5l-0.2,0.5l-0.2,0.5l-0.5,0.4l-0.5,0.4l-0.7,0.3 M16.15,110.45l-1.4,4.1 M16.05,115.85l1,0.4l1.2,0.2l1.3,0.1
	h1.3l1.3-0.2l1.2-0.3l1.1-0.3 M23.85,100.75h0.2l0.1-0.2l0.1-0.1 M14.05,100.55l0.2-0.1l0.3-0.2 M19.95,8.15v-4.9 M23.65,100.45
	l0.1,0.3 M23.85,89.35v-54.1 M16.65,35.35v53 M16.85,99.55l1.9-0.5 M19.55,98.85h0.1h0.7h0.7l0.6,0.2l0.6,0.2 M23.35,9.05l-0.1-0.1
	l-0.2-0.1h-0.2 M24.15,10.85v-0.1l0.1-0.1 M23.05,9.55h0.1h0.2l0.3,0.1 M22.95,9.75L22.95,9.75v-0.1 M22.25,8.85v-0.1l-0.1-0.1
	 M9.65,12.45l-2-1.1 M8.45,106.75l0.1-0.3 M8.75,105.85l0.1-0.3l0.4-0.7l0.4-0.7 M12.25,101.55l1.6-0.9 M13.95,34.15v54.9
	 M13.35,22.25l-1.1,0.7 M7.55,106.85L7.55,106.85h0.1h0.1h0.2h0.1 M8.45,34.65v59.5 M12.15,22.75l0.1-0.3l0.1-0.3 M11.75,23.15
	l-0.1,0.1l-0.6,0.1l-0.5,0.1h-0.5 M3.25,23.75v70.7 M6.85,14.55L6.85,14.55h0.2h0.2 M6.05,15.95L6.05,15.95l0.1,0.2 M12.45,21.55
	l0.1,0.2 M7.55,22.15L7.55,22.15h0.1l0.1,0.1h0.2h0.1 M7.55,17.45L7.55,17.45l0.1,0.1h0.1h0.2h0.1 M8.45,17.05v0.3 M7.25,14.75v0.1
	l-0.2,0.1l-0.2,0.2 M8.45,15.25L8.45,15.25l0.1,0.1 M7.45,16.85v-0.1l0.1-0.3v-0.2 M7.55,17.05L7.55,17.05h0.1h0.1l0.2,0.1l0.1-0.1
	 M8.45,16.95L8.45,16.95 M8.45,17.35v-0.1 M8.35,18.15v0.5v1.7 M8.55,22.35l-0.1-0.1 M8.95,22.05L8.95,22.05l0.5-0.3l0.5-0.3
	l0.5-0.1l0.5-0.1 M6.95,113.25v2.5 M6.95,112.75l0.3-0.2 M7.45,112.55v-0.1 M7.45,112.35v-0.2 M7.45,111.85v-0.3 M7.45,110.75v-0.7
	v-1.4 M7.45,94.15v-59.5 M7.45,21.45v-1.1v-1.8 M7.45,17.35v-0.3 M7.25,16.95l-0.7-0.5 M6.45,30.85v68.3 M5.65,113.15l-3.7-2.1
	 M1.25,95.45v-71.5 M0.75,23.95v73.2 M16.45,23.85l0.1,0.2 M9.15,17.75l0.2,0.2l0.9,1l0.8,0.8l0.5,0.7 M12.95,21.85l2.8,1.6
	 M13.55,20.05l-4.2-2.5 M26.15,14.55l-3.3-4.5l-0.3-0.4 M22.65,9.65h0.2 M22.85,9.55l-0.5-0.6 M21.85,8.95l-5.5,1.4 M15.45,10.05
	l-1.7-2.4 M8.85,9.65l3,1.8 M12.25,11.85l-4.7,2.7 M7.55,14.75l0.7,0.4 M8.45,15.25l0.2-0.1 M9.65,15.65l4.5,2.7 M16.15,23.35
	l-1.4-2.3 M17.15,24.15L17.15,24.15l0.9,0.3l0.8,0.2h0.8h0.9 M15.05,18.95l-0.1,0.1l-0.2,0.2l-0.1,0.2l-0.1,0.2 M26.55,19.75
	l-0.5,0.4l-0.9,0.5l-1.1,0.5l-1.1,0.3l-1.3,0.3 M26.35,14.55h0.1h0.2 M16.55,19.45l0.5,0.2l1,0.2l1.2,0.2h1.1l1.1-0.1l1.1-0.2l1-0.3
	"/>
<path fill="none" stroke="#000000" stroke-width="0.5" stroke-linecap="round" stroke-linejoin="round" stroke-miterlimit="10" d="
	M8.95,116.25l2.9-1.7 M6.95,116.25l0.2,0.1l0.2,0.1h0.3h0.3h0.3h0.2l0.3-0.1l0.2-0.1 M8.45,111.95v-0.1v-0.1 M8.45,112.45v-0.1h-0.1
	v-0.1v-0.1v-0.1l0.1-0.1 M8.45,112.55L8.45,112.55v-0.1 M8.45,112.55l0.2,0.1 M21.65,107.35l-0.4,0.2l-0.4,0.1l-0.5,0.1h-0.5h-0.4
	l-0.5-0.1l-0.4-0.2l-0.3-0.2l-0.3-0.2l-0.2-0.2l-0.1-0.3v-0.3l0.1-0.2l0.1-0.3l0.3-0.2l0.3-0.2l0.4-0.2l0.5-0.1h0.4h0.5l0.5,0.1
	l0.4,0.1l0.4,0.1l0.3,0.2l0.2,0.3l0.2,0.2v0.3v0.3l-0.1,0.2l-0.2,0.3L21.65,107.35 M14.65,116.15L14.65,116.15 M24.55,106.55
	L24.55,106.55l0.1,0.1 M16.25,10.05L16.25,10.05l-0.2,0.1l-0.1,0.1l-0.2,0.2 M13.45,7.25h0.4l0.4,0.1l0.3,0.2v0.1 M14.75,3.55v4.3
	 M7.25,11.05v-0.4l0.2-0.4l0.2-0.4l0.3-0.4l0.2-0.1 M0.75,112.65l-0.2-0.1l-0.1-0.2l-0.1-0.1l-0.1-0.2 M6.05,107.85l-2.8,1.6
	 M7.25,11.05v3.3 M7.25,6.45v4.6 M3.25,109.45l-0.2,0.1l-0.3,0.2l-0.3,0.1l-0.2,0.2l-0.3,0.1l-0.3,0.2l-0.2,0.1l-0.2,0.2
	 M12.45,11.75l-0.4,0.1h-0.4l-0.3,0.1l-0.3,0.2 M6.45,113.65l-0.2-0.4l-0.1-0.3l-0.1-0.4v-0.3 M23.65,10.25l-0.1-0.1l-0.2-0.2
	l-0.4-0.2 M22.95,9.75l-0.3-0.1h-0.1 M19.95,2.25l-5.2,1.3 M19.95,2.25l0.3-0.1l0.2-0.1l0.2-0.1l0.1-0.2l0.1-0.1v-0.2v-0.1l-0.1-0.2
	 M20.45,0.75l0.3,0.4 M20.45,0.75l-0.1-0.1l-0.2-0.1l-0.2-0.1l-0.3-0.1h-0.2l-0.3-0.1l-0.3,0.1h-0.2 M12.05,1.95l6.6-1.6
	 M12.05,1.95l-0.8,0.2l-0.9,0.3l-0.8,0.3l-0.9,0.3l-0.7,0.3l-0.8,0.3l-0.7,0.4l-0.7,0.4 M5.75,4.45l-5,2.9 M0.75,7.35l-0.2,0.1
	l-0.1,0.1l-0.1,0.2l-0.1,0.2l0.1,0.1l0.1,0.2l0.1,0.1l0.2,0.1 M1.25,8.75l0.2,0.1l0.2,0.1h0.3l0.3,0.1l0.2-0.1h0.3l0.3-0.1l0.2-0.1
	 M3.25,8.75l4-2.3 M14.75,3.55l-1.1,0.2l-1,0.3l-1,0.3l-1,0.3l-0.9,0.4l-0.9,0.4l-0.9,0.5l-0.7,0.5 M0.75,8.45l0.5,0.3 M0.75,112.65
	l6.2,3.6 M8.45,17.05L8.45,17.05v-0.1 M8.65,15.15L8.65,15.15v0.2 M8.65,15.35L8.65,15.35l-0.1,0.4l-0.1,0.3l-0.1,0.3v0.3l0.1,0.3
	 M18.25,15.15l-0.3,0.2l-0.2,0.3l-0.1,0.2v0.3v0.3l0.2,0.2l0.2,0.3l0.3,0.2l0.4,0.1l0.4,0.1l0.5,0.1h0.5h0.4l0.5-0.1l0.4-0.2
	l0.3-0.2l0.3-0.2l0.2-0.3v-0.2v-0.3l-0.1-0.3l-0.2-0.2l-0.3-0.2l-0.3-0.2l-0.4-0.2h-0.5l-0.4-0.1h-0.5l-0.5,0.1l-0.4,0.1
	L18.25,15.15 M13.45,7.25l-0.7,0.2l-0.7,0.2l-0.7,0.3l-0.7,0.2l-0.7,0.3l-0.6,0.3l-0.6,0.3l-0.6,0.3 M24.25,106.05v-0.3v-0.2
	 M24.25,105.55v-0.5 M24.25,105.05v-1.4v-2.5v-0.7 M24.55,106.45L24.55,106.45l-0.1-0.1v-0.1l-0.1-0.1l-2-2.7 M8.65,112.65l6,3.5
	 M14.65,116.15l0.1,0.1l0.5,0.2l0.8,0.3l0.7,0.3l0.8,0.2l0.8,0.1l0.7,0.1h0.8h0.8l0.8-0.1l0.8-0.1l0.7-0.2l0.8-0.2l0.7-0.3l0.6-0.3
	l0.6-0.3l0.5-0.4l0.5-0.5l0.4-0.4l0.3-0.5l0.2-0.5l0.2-0.5v-0.5v-0.5l-0.1-0.5v-0.2 M27.15,110.55l-0.2-0.5l-0.3-0.4l-0.4-0.6
	l-0.4-0.6l-0.4-0.6l-0.3-0.5l-0.3-0.4l-0.2-0.3 M24.25,100.45v-77.1 M20.85,8.95v-7.5 M23.45,9.15l-0.1-0.1l-0.2-0.2l-0.2-0.1
	l-0.1-0.1h-0.2h-0.3h-0.2h-0.2 M24.25,10.95v-0.3 M24.05,9.95l-0.6-0.8 M24.25,10.65v-0.3l-0.1-0.2l-0.1-0.2 M16.35,10.05l-1.7-2.4
	 M21.95,8.65l-5.7,1.4 M0.25,7.95v104.1 M12.35,21.75L12.35,21.75h0.1l0.1,0.1h0.2v0.1 M11.05,12.15l-4.3,2.5 M6.05,15.85v96.4
	 M27.05,14.85v-0.1l-0.4-0.5l-0.4-0.6l-0.5-0.7l-2.1-2.7 M6.75,14.65l-0.2,0.1l-0.1,0.1l-0.1,0.1l-0.2,0.2v0.1l-0.1,0.2v0.2v0.2
	 M12.75,21.95l4,2.3 M16.75,24.25h0.1l0.2,0.1l0.6,0.3l0.6,0.2l0.7,0.1l0.6,0.1h0.7l0.6-0.1l0.7-0.1l0.7-0.2l0.5-0.2l0.6-0.4
	l0.5-0.3l0.4-0.4l0.3-0.4l0.1-0.1 M24.65,22.85l0.6-0.9l0.6-0.9l0.7-1.1l0.7-1 M27.15,18.95l0.1-0.2l0.3-0.4l0.1-0.5l0.1-0.5v-0.5
	v-0.5l-0.2-0.5l-0.2-0.5l-0.3-0.5"/>
</svg>
