<?xml version="1.0" encoding="utf-8"?>
<!-- Generator: Adobe Illustrator 19.0.0, SVG Export Plug-In . SVG Version: 6.00 Build 0)  -->
<svg version="1.0" id="Layer_1" xmlns="http://www.w3.org/2000/svg" xmlns:xlink="http://www.w3.org/1999/xlink" x="0px" y="0px"
	 width="35.4px" height="117px" viewBox="0 0 35.4 117" enable-background="new 0 0 35.4 117" xml:space="preserve">
<path fill="none" stroke="#000000" stroke-width="0.25" stroke-linecap="round" stroke-linejoin="round" stroke-miterlimit="10" d="
	M31.95,106.55l0.9-1.1 M31.05,109.75L31.05,109.75v-0.1v-0.1 M31.05,109.55l0.3-0.1l0.2-0.2 M31.05,109.85h-0.2v0.1 M31.55,109.25
	L31.55,109.25v0.1 M30.45,109.85h-0.2 M30.55,109.65v0.1v0.1 M30.15,109.65L30.15,109.65 M30.25,109.35h0.1 M30.35,109.45h0.1v0.1
	h0.1v0.1 M30.65,109.65L30.65,109.65h0.2l0.2-0.1 M31.25,109.25L31.25,109.25v0.1l-0.1,0.1 M30.35,109.35v-0.1 M30.45,109.35
	L30.45,109.35l0.2,0.1l0.1-0.1 M30.45,109.25L30.45,109.25h0.2h0.1 M29.75,110.65v2.1 M30.45,108.75L30.45,108.75h0.2h0.1
	 M30.35,108.65v-0.3 M3.55,108.95l2,1.1 M8.05,112.45h-0.1h-0.1 M8.85,112.65v2.3 M7.35,112.35h-0.1l-0.3-0.2 M7.55,112.25
	L7.55,112.25v0.1 M8.75,112.05L8.75,112.05l-0.3,0.2l-0.1,0.1l-0.2,0.1 M8.15,112.35L8.15,112.35v-0.1h-0.1 M6.95,112.05l0.2,0.1
	 M8.05,112.15h0.4l0.3-0.1 M8.35,111.85L8.35,111.85 M7.35,111.95L7.35,111.95h0.1v0.1l0.1,0.1 M7.65,112.25h0.2 M8.35,111.85
	l-0.1,0.1v0.1h-0.1 M7.45,111.85L7.45,111.85l0.1,0.1h0.1h0.2h0.1 M8.35,111.75v0.1 M7.45,111.75L7.45,111.75h0.1l0.1,0.1h0.2h0.1
	 M30.45,108.25h0.2 M7.45,111.25L7.45,111.25h0.1h0.1h0.2h0.1 M8.35,110.75v0.4 M30.35,108.35v0.2 M30.45,107.55v-0.4v-1.8
	 M7.45,110.75L7.45,110.75l0.1,0.1h0.1h0.2h0.1 M22.25,102.35L22.25,102.35l0.2-0.5l0.2-0.4l0.2-0.5 M15.35,103.05l-0.3-0.3
	l-0.3-0.4l-0.3-0.5l-0.3-0.5l-0.2-0.5 M26.85,104.85l0.1-0.1l0.4-0.3l0.4-0.3 M24.55,102.95v-0.1l0.3-0.4l0.1-0.5l0.2-0.5
	 M8.35,106.75l-0.1,1.2v1.4 M8.35,110.95v-0.1 M26.45,104.65l-0.1-0.2l-0.3-0.3l-0.3-0.3l-0.3-0.2l-0.4-0.2 M13.65,104.05l-0.3-0.3
	l-0.4-0.4l-0.3-0.5l-0.2-0.5l-0.2-0.5 M11.85,106.45l-0.5-0.2l-0.5-0.2l-0.5-0.2l-0.5-0.1 M13.95,104.45l-0.1,0.1l-0.3,0.2l-0.3,0.3
	 M21.45,102.55h-0.1l-0.7-0.1l-0.8-0.1l-0.7,0.1h-0.7 M15.75,103.35l-1.6,1 M14.65,104.75l2.8,1.6 M22.15,106.25l2.2-3
	 M24.05,103.15l-1.6-0.4 M15.75,108.65l-2.9-1.6 M11.95,107.45l-0.1,0.2l-0.6,0.9l-0.8,0.8l-1,0.8 M9.25,111.55l4.3,2.4
	 M26.95,113.85l0.1-0.1v-0.2v-0.2 M14.45,115.35L14.45,115.35l-0.1-0.2v-0.2v-0.2 M17.95,106.75l-0.1,0.1l-0.3,0.2l-0.3,0.3
	 M22.55,106.35l0.3,0.1l0.4,0.2l0.3,0.3l0.3,0.2l0.2,0.3 M18.45,106.85l0.3,0.1l0.8,0.1h0.9 M26.95,113.05L26.95,113.05l0.9-1.1
	l2.5-3.4 M29.75,108.25l-0.5-0.4l-1-0.8l-0.4-0.4 M26.75,105.05l-1.1,1.5l-1.2,1.5 M24.05,108.55l-0.2,0.2l-0.6,0.3l-0.7,0.3
	l-0.7,0.3l-0.8,0.1 M16.05,109.65l-1.4,4.2 M15.45,115.05h0.1l1.3,0.4l1.3,0.2l1.3,0.2l1.3-0.1 M14.55,99.45l0.7-0.2l0.8-0.3
	l0.9-0.2l0.8-0.2l0.9-0.1 M30.45,103.55l0.2,0.1 M27.55,8.15l-1.3,1.8 M30.15,103.15l0.2,0.4 M30.35,90.95v-59.5 M23.15,34.65v53
	 M23.55,98.95l1.6,0.4 M26.35,99.65l0.6,0.3l0.6,0.3l0.7,0.5l0.6,0.5l0.5,0.6 M32.85,90.45v-70.8 M9.55,11.75l-2-1.2 M31.85,12.85
	l0.1-0.2v-0.1v-0.1 M8.35,105.95l0.1-0.2 M8.65,105.15l0.1-0.3l0.4-0.7l0.4-0.7 M12.15,100.85l1.6-0.9 M13.85,33.45v54.8
	 M13.25,21.55l-1.1,0.6 M29.75,19.75l-0.4,0.4l-0.5,0.3l-0.6,0.2l-0.7,0.2h-0.6 M30.45,18.95h0.2 M30.45,14.25h0.2 M30.35,14.15
	v-0.3 M7.45,106.05L7.45,106.05l0.1,0.1h0.1h0.2h0.1 M8.35,33.95v59.5 M30.55,11.35l0.1-0.1 M31.85,12.55l-0.1-0.2l-0.1-0.2
	l-0.2-0.2l-0.2-0.2l-0.2-0.2 M30.45,13.75v0.1h0.2h0.1 M30.25,12.15l0.2,0.2l0.3,0.1l0.2,0.2l0.1,0.2l0.1,0.3 M29.85,12.25
	L29.85,12.25 M30.35,13.75L30.35,13.75 M12.05,21.95l0.1-0.2l0.1-0.4 M11.65,22.45h-0.1l-0.6,0.2l-0.5,0.1h-0.5 M30.35,18.95
	l-0.2,0.3 M30.35,18.25l0.1-1.2v-1.4 M30.35,13.95v0.2 M29.85,19.05l-0.2-0.1l-0.5-0.2l-0.5-0.1l-0.5-0.1 M3.15,22.95v70.8
	 M26.65,19.25l0.1-0.1 M31.25,109.05v0.1 M31.35,109.15L31.35,109.15 M31.55,109.75v2.5 M34.95,92.55v-73.2 M34.75,19.35v71.6
	 M34.65,106.25l-2.7,3.6 M31.85,95.55v-68.3 M31.85,12.85l-0.5,0.7 M31.25,13.65v0.3 M31.25,14.65v0.7v1.4 M31.25,31.25v59.5
	 M31.25,104.05v1.7v1.1 M31.25,108.15v0.3 M31.25,108.55v0.2 M6.75,13.85L6.75,13.85h0.2h0.2 M5.95,15.15v0.1l0.1,0.2 M12.35,20.85
	l0.1,0.1 M7.45,21.45L7.45,21.45h0.1h0.1h0.2h0.1 M7.45,16.75L7.45,16.75h0.1h0.1l0.2,0.1l0.1-0.1 M8.35,16.35v0.3 M7.15,14.05
	L7.15,14.05l-0.2,0.2l-0.2,0.2 M8.35,14.55L8.35,14.55h0.1v0.1 M7.35,16.05L7.35,16.05l0.1-0.3l0.1-0.2 M7.45,16.35L7.45,16.35h0.1
	h0.1h0.2h0.1 M8.35,16.25L8.35,16.25 M8.35,16.65v-0.2 M8.25,17.45v0.4v1.8 M8.45,21.65l-0.1-0.1 M8.85,21.35L8.85,21.35l0.5-0.3
	l0.5-0.3l0.5-0.2l0.5-0.1 M6.85,112.55v2.4 M6.95,111.95l0.2-0.1 M7.35,111.85v-0.1 M7.35,111.65v-0.2 M7.35,111.15v-0.4
	 M7.35,110.05v-0.7v-1.4 M7.35,93.45v-59.5 M7.35,20.65v-1v-1.8 M7.35,16.65v-0.3 M7.15,16.15l-0.7-0.4 M6.35,30.15v68.3
	 M5.55,112.45l-3.7-2.1 M1.15,94.75v-71.6 M0.65,23.25v73.2 M16.35,23.15l0.1,0.2 M9.05,17.05l0.2,0.2l0.9,0.9l0.8,0.9l0.5,0.6
	 M12.85,21.15l2.9,1.6 M13.55,19.25l-4.3-2.4 M26.15,16.95l3.3-4.6l0.3-0.3 M29.75,12.05h0.2 M30.05,12.05l0.5-0.7 M29.55,11.15
	l-4.6-1.2 M24.15,9.65l2.1-3 M8.75,8.95l3,1.7 M12.15,11.15l-4.7,2.7 M7.45,14.05l0.7,0.4 M8.35,14.55l0.2-0.1 M9.55,14.95l4.5,2.6
	 M24.45,22.15L24.45,22.15l2.3-3 M27.05,18.65l0.4-0.6l0.4-0.6l0.4-0.6 M30.35,13.85l-0.9,1.1l-2.5,3.4 M16.05,22.65l-1.4-2.4
	 M17.05,23.45l0.6,0.2l0.8,0.2l0.9,0.1h0.8l0.9-0.1 M14.95,18.25h-0.1l-0.2,0.2l-0.1,0.2l-0.1,0.3 M26.25,19.15L26.25,19.15l-1,0.7
	l-1,0.5l-1.1,0.3l-1.2,0.3 M26.35,17.05l0.2,0.1l0.2,0.2l0.2,0.2l0.1,0.2v0.2 M16.05,18.65h0.1l1,0.3l1.1,0.2l1.2,0.1h1.1"/>
<path fill="none" stroke="#000000" stroke-width="0.5" stroke-linecap="round" stroke-linejoin="round" stroke-miterlimit="10" d="
	M29.75,113.15l0.2,0.1h0.3h0.3l0.2-0.1l0.3-0.1l0.2-0.1l0.2-0.1l0.1-0.1 M29.75,113.15l-1.9-0.5 M8.85,115.45l2.9-1.6 M6.85,115.45
	l0.2,0.1l0.2,0.1l0.3,0.1h0.3h0.3l0.2-0.1l0.3-0.1l0.2-0.1 M30.35,108.55L30.35,108.55v0.1v0.1 M30.35,109.25L30.35,109.25v0.1h-0.1
	 M30.35,108.75L30.35,108.75v0.1l0.1,0.1v0.1l-0.1,0.1v0.1 M8.35,111.15L8.35,111.15v-0.1 M8.35,111.75v-0.1v-0.1l-0.1-0.1l0.1-0.1
	v-0.1v-0.1 M8.45,111.85h-0.1v-0.1 M8.45,111.85l0.1,0.1 M21.55,106.65l-0.4,0.1l-0.4,0.2h-0.5l-0.4,0.1l-0.5-0.1l-0.5-0.1l-0.4-0.1
	l-0.3-0.2l-0.3-0.2l-0.2-0.3l-0.1-0.2v-0.3l0.1-0.3l0.1-0.2l0.3-0.2l0.3-0.2l0.4-0.2l0.5-0.1h0.4h0.5h0.5l0.4,0.1l0.4,0.2l0.3,0.2
	l0.2,0.2l0.2,0.3v0.3v0.2l-0.1,0.3l-0.2,0.2L21.55,106.65 M14.55,115.45L14.55,115.45 M35.15,107.75L35.15,107.75l-0.1,0.1l-0.1,0.2
	 M34.75,106.15l-0.1-0.1l-0.2-0.1l-0.2-0.1l-0.2-0.1l-0.2-0.1h-0.3l-0.2-0.1l-0.3-0.1l-0.2-0.1 M27.65,8.05v2.3 M31.95,105.15
	l0.9,0.2 M31.95,109.25L31.95,109.25v0.4l-0.1,0.4 M25.15,9.75l-0.1-0.1h-0.3h-0.4l-0.3,0.1 M0.65,111.95l-0.2-0.2l-0.1-0.1
	l-0.1-0.2v-0.1 M5.95,107.15l-2.8,1.6 M7.15,10.35v3.2 M3.15,108.75l-0.2,0.1l-0.3,0.1l-0.3,0.2l-0.2,0.2l-0.3,0.1l-0.3,0.2
	l-0.2,0.1l-0.2,0.1 M12.35,11.05h-0.4l-0.4,0.1l-0.3,0.1l-0.3,0.1 M6.35,112.85l-0.2-0.3l-0.1-0.4l-0.1-0.3v-0.4 M34.95,108.05
	l-3.4,4.7 M26.35,6.55l0.4,0.2l0.4,0.3l0.3,0.3l0.2,0.4v0.3 M27.65,3.45v4.6 M7.15,5.75v4.6 M7.15,10.35v-0.4l0.2-0.5l0.2-0.4
	l0.3-0.3l0.2-0.2 M0.65,111.95l6.2,3.5 M24.45,22.15v0.2 M30.35,13.75L30.35,13.75v0.1 M30.35,13.75l0.1-0.3l-0.1-0.3l-0.1-0.3
	l-0.2-0.3l-0.2-0.3 M29.85,12.25l-0.1-0.2 M8.35,16.35L8.35,16.35v-0.1 M8.55,14.35v0.1v0.2 M8.55,14.65L8.55,14.65l-0.1,0.3
	l-0.1,0.4l-0.1,0.3v0.3l0.1,0.3 M32.85,4.75l-5.2-1.3 M32.85,4.75h0.3h0.3h0.2h0.3l0.2-0.1l0.3-0.1l0.1-0.1l0.2-0.2 M34.95,3.85
	l-0.2,0.4 M34.95,3.85l0.1-0.1l0.1-0.2l-0.1-0.1v-0.2l-0.2-0.1l-0.1-0.2l-0.3-0.1h-0.2 M27.75,1.25l6.5,1.6 M27.75,1.25l-1.3-0.3
	l-1.4-0.3l-1.3-0.1l-1.4-0.2h-1.4l-1.4-0.1l-1.4,0.1l-1.4,0.1l-1.4,0.1l-1.4,0.3l-1.3,0.2l-1.3,0.3l-1.2,0.4l-1.3,0.4l-1.1,0.5
	l-1.1,0.5l-1,0.6 M5.65,3.75l-5,2.8 M0.65,6.55l-0.2,0.2l-0.1,0.1l-0.1,0.2v0.1v0.2l0.1,0.1l0.1,0.2l0.2,0.1 M0.65,7.75l0.5,0.3
	 M1.15,8.05l0.2,0.1l0.2,0.1h0.3h0.3h0.2h0.3l0.3-0.1l0.2-0.1 M3.15,8.05l4-2.3 M27.65,3.45l-1.1-0.3l-1.2-0.3l-1.2-0.2l-1.2-0.2
	l-1.3-0.1h-1.2h-1.3h-1.2l-1.3,0.1l-1.2,0.2l-1.2,0.2l-1.1,0.3l-1.2,0.3l-1.1,0.4l-1,0.4l-1,0.4l-0.9,0.5l-0.8,0.6 M18.25,14.45
	l-0.3,0.2l-0.3,0.2l-0.1,0.3v0.3v0.2l0.2,0.3l0.2,0.2l0.3,0.2l0.4,0.2l0.5,0.1l0.4,0.1h0.5l0.5-0.1l0.4-0.1l0.4-0.1l0.3-0.2l0.3-0.2
	l0.2-0.3v-0.3v-0.2l-0.1-0.3l-0.2-0.2l-0.3-0.3l-0.3-0.2l-0.4-0.1l-0.5-0.1h-0.4h-0.5l-0.5,0.1l-0.4,0.1L18.25,14.45 M26.35,6.55
	l-1.2-0.3l-1.3-0.2l-1.3-0.1l-1.3-0.1l-1.3-0.1l-1.3,0.1h-1.3l-1.3,0.2l-1.3,0.2l-1.2,0.3l-1.2,0.3l-1.2,0.3l-1.1,0.5l-1,0.4l-1,0.5
	 M26.95,113.95l0.1-0.2l0.4-0.5l0.3-0.5l0.5-0.7l2-2.7 M8.55,111.95l6,3.5 M14.55,115.45l0.5,0.2l0.6,0.3l0.6,0.2l0.7,0.2l0.7,0.2
	l0.8,0.1h0.8l0.8,0.1l0.8-0.1l0.8-0.1l0.8-0.1l0.7-0.2l0.7-0.2l0.7-0.3l0.6-0.3l0.6-0.4l0.4-0.3l0.4-0.4l0.4-0.4 M35.15,107.75V3.55
	 M31.95,109.25v-96.8 M31.95,12.45v-0.2l-0.1-0.2l-0.1-0.2l-0.1-0.2l-0.2-0.2l-0.1-0.1l-0.3-0.2h-0.2 M30.85,11.15l-5.7-1.4
	 M0.25,7.15v104.2 M12.25,21.05L12.25,21.05h0.1h0.1l0.2,0.1 M10.95,11.35l-4.3,2.5 M5.95,15.05v96.4 M24.45,22.25l0.1-0.1l0.1-0.1
	v-0.1l0.2-0.3l1.8-2.4 M6.65,13.85l-0.2,0.1l-0.1,0.1l-0.1,0.2l-0.1,0.1l-0.1,0.2l-0.1,0.2v0.2v0.1 M12.65,21.15l4,2.3 M16.65,23.45
	l0.1,0.1l0.2,0.1l0.5,0.2l0.7,0.2l0.6,0.2h0.7h0.6h0.7l0.7-0.1l0.6-0.2l0.6-0.3l0.6-0.3l0.5-0.4l0.4-0.3l0.2-0.3l0.1-0.1"/>
</svg>
