<?xml version="1.0" encoding="utf-8"?>
<!-- Generator: Adobe Illustrator 19.0.0, SVG Export Plug-In . SVG Version: 6.00 Build 0)  -->
<svg version="1.0" id="Layer_1" xmlns="http://www.w3.org/2000/svg" xmlns:xlink="http://www.w3.org/1999/xlink" x="0px" y="0px"
	 width="111.1px" height="109.5px" viewBox="0 0 111.1 109.5" enable-background="new 0 0 111.1 109.5" xml:space="preserve">
<path fill="none" stroke="#000000" stroke-width="0.25" stroke-linecap="round" stroke-linejoin="round" stroke-miterlimit="10" d="
	M5.75,38.05l-1.1,0.6 M8.65,40.95l1.1-0.6 M15.85,43.85l-1,0.7 M18.85,46.85l1-0.7 M2.65,35.15l1.1-0.6 M3.75,7.25l-1.1,0.6
	 M2.75,7.35l1.1-0.7 M5.05,5.05l-1.1,0.6 M2.55,0.45l-1.1,0.7 M4.15,5.15l1.1-0.6 M5.25,3.15l-1.1,0.7 M3.15,2.05l1.1-0.6
	 M12.85,41.05l1-0.6 M13.85,13.05l-1,0.7 M22.95,54.55l1.1-0.6 M23.15,29.75l-0.3,0.2 M12.95,13.15l1.1-0.6 M15.25,10.95l-1.1,0.6
	 M11.25,5.45l-1.1,0.7 M14.35,11.05l1-0.6 M15.35,9.05l-1,0.6 M13.35,7.95l1-0.6 M20.55,11.55l-0.6,0.3 M79.65,93.55l0.8-0.4
	 M22.45,9.45l-1.1,0.7 M24.55,54.75l-1.1,0.7 M101.95,100.95l0.4-0.2 M51.05,24.25l-1.1,0.6 M79.25,41.75l1-0.6 M80.75,42.05l-1,0.6
	 M109.55,108.35l1.1-0.6 M108.55,60.35l1-0.6 M110.65,61.55l-1.1,0.7"/>
<path fill="none" stroke="#000000" stroke-width="0.5" stroke-linecap="round" stroke-linejoin="round" stroke-miterlimit="10" d="
	M3.95,34.45v0.4l0.1,0.5l0.2,0.5l0.3,0.5l0.3,0.5l0.3,0.4l0.4,0.4l0.4,0.2 M9.95,40.15l-4-2.3 M9.95,40.15l0.4,0.2 M14.05,40.25
	l0.1,0.5l0.1,0.5l0.2,0.5l0.2,0.5l0.3,0.5l0.4,0.4l0.4,0.3l0.4,0.3 M20.15,46.05l-4-2.3 M24.25,53.85v0.1v0.1l0.1,0.1l0.1,0.1v0.2
	l0.1,0.1l0.1,0.1h0.1 M20.15,46.05l0.4,0.2 M3.95,34.45V7.05 M4.05,6.55v0.1h-0.1v0.1v0.1v0.1v0.1 M4.05,6.55l1.2-1.6 M2.05,0.35
	l0.1-0.1h0.2h0.2l0.2,0.1 M5.45,4.45L5.45,4.45v0.1l-0.1,0.1v0.1v0.1l-0.1,0.1 M4.45,1.35l-1.7-1 M5.45,4.45v-1.4 M4.45,1.35
	l0.2,0.1l0.2,0.2l0.1,0.2l0.2,0.2l0.1,0.3l0.1,0.2l0.1,0.3v0.2 M14.05,40.25v-27.3 M14.25,12.45L14.25,12.45l-0.1,0.1v0.1v0.1v0.1
	l-0.1,0.1 M24.25,53.85v-23.6 M10.75,5.35l0.1-0.1h0.2h0.2l0.2,0.1 M14.25,12.45l1.2-1.6 M15.65,10.25l-0.1,0.1v0.1v0.1v0.1v0.1
	h-0.1v0.1 M14.55,7.15l-3.1-1.8 M15.65,10.25v-1.3 M14.55,7.15l0.2,0.2l0.2,0.2l0.2,0.2l0.2,0.2l0.1,0.2l0.1,0.3v0.2l0.1,0.3
	 M22.35,9.35v-0.1h0.1l0.1,0.1h0.1 M49.55,24.85l-26.9-15.5 M50.85,24.05h0.1h0.1h0.1l0.1,0.1 M102.45,99.55l-77.7-44.9
	 M110.85,107.55v0.3l-0.1,0.2l-0.1,0.1l-0.1,0.1 M80.55,41.05l-29.3-16.9 M81.05,43.05v-1.2 M80.55,41.05h0.1l0.1,0.1v0.1l0.1,0.1
	l0.1,0.2v0.1l0.1,0.1v0.1 M109.75,59.65l-28.7-16.6 M81.05,43.05l-1.5,0.9 M110.85,107.55v-46.1 M109.75,59.65l0.2,0.1l0.2,0.2
	l0.2,0.2l0.2,0.3l0.1,0.2l0.1,0.3l0.1,0.3v0.2 M49.25,26.45l-28.1-16.2 M21.15,10.25l-0.1-0.1h-0.1h-0.1l-0.1,0.1v0.1l-0.1,0.1v0.1
	 M20.65,10.55v0.7 M20.65,11.25v0.2v0.1l-0.1,0.2l-0.1,0.1l-0.1,0.1h-0.2h-0.1h-0.2 M19.85,11.95h-0.1h-0.2h-0.1l-0.1,0.1l-0.1,0.1
	l-0.1,0.1v0.2v0.2 M19.15,12.65v1.4 M19.15,14.05v0.1v0.1v0.1v0.1v0.1l0.1,0.1v0.1 M19.25,14.75l1.2,3 M20.45,17.75l0.1,0.1v0.1v0.1
	v0.1v0.1h0.1v0.1v0.1 M20.65,18.45v27.3 M20.65,45.75l-0.1,0.5l-0.1,0.3l-0.2,0.3l-0.2,0.2l-0.3,0.1l-0.4,0.1l-0.4-0.1l-0.3-0.2
	 M18.65,46.95l-4.1-2.3 M14.55,44.65l-0.3-0.3l-0.4-0.3l-0.4-0.5l-0.3-0.4l-0.2-0.5l-0.2-0.5l-0.1-0.5l-0.1-0.5 M12.55,41.15v-27.3
	 M12.55,13.85v-0.1l0.1-0.1v-0.1v-0.1l0.1-0.1 M12.75,13.35l1.2-1.7 M13.95,11.65L13.95,11.65l0.1-0.1v-0.1v-0.1v-0.1v-0.1
	 M14.05,11.15v-1.3 M14.05,9.85v-0.3v-0.2l-0.1-0.3l-0.1-0.2l-0.2-0.3l-0.2-0.2l-0.2-0.1l-0.2-0.2 M13.05,8.05l-3.1-1.8 M9.95,6.25
	l-0.2-0.1h-0.2h-0.2h-0.1l-0.2,0.1v0.2l-0.1,0.2v0.2 M8.95,6.85v1.3 M8.95,8.15v0.1v0.1v0.1v0.1l0.1,0.1v0.1v0.1 M9.05,8.85l1.2,3
	 M10.25,11.85l0.1,0.1v0.1v0.1v0.1l0.1,0.1v0.1v0.1 M10.45,12.55v27.4 M10.45,39.95l-0.1,0.4l-0.1,0.4l-0.2,0.2l-0.2,0.3l-0.3,0.1
	h-0.4l-0.3-0.1l-0.4-0.2 M8.45,41.05l-4-2.3 M4.45,38.75l-0.4-0.3l-0.4-0.3l-0.3-0.4l-0.4-0.5l-0.2-0.5l-0.2-0.5l-0.1-0.5v-0.5
	 M2.45,35.25V7.95 M2.45,7.95v-0.1v-0.1v-0.1v-0.1l0.1-0.1 M2.55,7.45l1.2-1.7 M3.75,5.75h0.1v-0.1v-0.1l0.1-0.1v-0.1v-0.1
	 M3.95,5.25v-1.3 M3.95,3.95l-0.1-0.3v-0.2l-0.1-0.3l-0.1-0.2l-0.2-0.2l-0.2-0.3l-0.1-0.1l-0.2-0.2 M2.95,2.15l-1.7-0.9 M1.25,1.25
	l-0.2-0.1h-0.2h-0.2h-0.1l-0.1,0.1l-0.1,0.2l-0.1,0.2v0.2 M0.25,1.85v43.6 M0.25,45.45v0.3l0.1,0.2l0.1,0.3l0.1,0.3l0.1,0.2l0.2,0.2
	l0.2,0.2l0.2,0.1 M1.25,47.25l48,27.7 M49.25,74.95v1.2 M49.25,76.15v0.2v0.1l0.1,0.1v0.1l0.1,0.2l0.1,0.1h0.1l0.1,0.1 M49.75,77.05
	l29.3,16.9 M79.05,93.95l0.1,0.1h0.1l0.1-0.1h0.1v-0.1l0.1-0.1v-0.1 M79.55,93.65v-1.2 M79.55,92.45l28.7,16.6 M108.25,109.05
	l0.2,0.1l0.2,0.1h0.2l0.2-0.1l0.1-0.1l0.1-0.2l0.1-0.2v-0.2 M109.35,108.45v-46.1 M109.35,62.35v-0.3l-0.1-0.2l-0.1-0.3l-0.1-0.2
	l-0.2-0.3l-0.2-0.2l-0.2-0.2l-0.2-0.1 M108.25,60.55l-28.7-16.6 M79.55,43.95v-1.2 M79.55,42.75v-0.1l-0.1-0.1v-0.2l-0.1-0.1
	l-0.1-0.1v-0.1l-0.1-0.1l-0.1-0.1 M79.05,41.85l-29.3-16.9 M49.75,24.95h-0.1h-0.1h-0.1h-0.1v0.1h-0.1v0.1v0.1 M49.25,25.25v1.2
	 M22.75,54.65v-24.7 M22.75,29.95v-0.1v-0.1l0.1-0.1h0.1h0.1h0.1h0.1 M23.25,29.65l78.7,45.4 M101.95,75.05l0.1,0.1l0.1,0.1l0.1,0.1
	v0.1l0.1,0.1v0.2l0.1,0.1v0.1 M102.45,75.95v24.7 M102.45,100.65v0.1l-0.1,0.1v0.1h-0.1v0.1h-0.1h-0.1l-0.1-0.1 M101.95,100.95
	l-78.7-45.4 M23.25,55.55l-0.1-0.1l-0.1-0.1l-0.1-0.1l-0.1-0.1v-0.1l-0.1-0.1v-0.2v-0.1 M2.05,0.35l-1.5,0.8 M10.75,5.35l-1.5,0.8
	 M20.65,11.25l-1.2,0.7 M22.35,9.35l-1.5,0.8 M79.35,93.95l1.4-0.8 M50.85,24.05l-1.5,0.9 M109.05,109.15l1.5-0.9"/>
</svg>
