<?xml version="1.0" encoding="utf-8"?>
<!-- Generator: Adobe Illustrator 19.0.0, SVG Export Plug-In . SVG Version: 6.00 Build 0)  -->
<svg version="1.0" id="Layer_1" xmlns="http://www.w3.org/2000/svg" xmlns:xlink="http://www.w3.org/1999/xlink" x="0px" y="0px"
	 width="110.1px" height="111.4px" viewBox="0 0 110.1 111.4" enable-background="new 0 0 110.1 111.4" xml:space="preserve">
<path fill="none" stroke="#000000" stroke-width="0.25" stroke-linecap="round" stroke-linejoin="round" stroke-miterlimit="10" d="
	M69.55,90.15l0.7-0.4 M2.55,0.55l-1.1,0.6 M41.05,20.95l-1,0.6 M70.65,38.65l-1.1,0.6 M69.05,38.35l1.1-0.6 M108.65,110.35l1-0.7
	 M109.65,63.55l-1,0.6 M107.65,62.35l1-0.6"/>
<path fill="none" stroke="#000000" stroke-width="0.5" stroke-linecap="round" stroke-linejoin="round" stroke-miterlimit="10" d="
	M28.95,55.25l-1-1.2 M27.95,54.05v-0.6 M26.45,54.95l1.5-0.9 M27.75,56.45l1.2-0.7 M32.45,57.35l-1-1.3 M31.45,56.05v-0.6
	 M29.95,56.95l1.5-0.9 M31.25,58.45l1.2-0.7 M30.75,52.75l-1-1.2 M29.75,51.55v-0.6 M28.25,52.45l1.5-0.9 M29.45,53.95l1.3-0.7
	 M28.95,48.25l-1-1.2 M27.95,47.05v-0.6 M26.45,47.85l1.5-0.8 M35.95,59.35l-1-1.3 M34.95,58.05v-0.6 M33.45,58.95l1.5-0.9
	 M27.75,49.45l1.2-0.7 M2.05,0.35l0.2-0.1h0.1l0.2,0.1h0.2 M34.75,60.55l1.2-0.8 M34.25,54.85l-1-1.3 M33.25,53.55v-0.6
	 M31.75,54.45l1.5-0.9 M32.95,56.05l1.3-0.8 M32.45,50.35l-1-1.3 M31.45,49.05v-0.6 M29.95,49.95l1.5-0.9 M39.45,61.35l-1-1.2
	 M38.45,60.15v-0.6 M36.95,60.95l1.5-0.8 M31.25,51.45l1.2-0.7 M30.75,45.75l-1-1.2 M29.75,44.55v-0.6 M28.25,45.45l1.5-0.9
	 M38.25,62.55l1.2-0.7 M37.75,56.85l-1-1.2 M36.75,55.65v-0.7 M35.25,56.45l1.5-0.8 M29.45,46.95l1.3-0.7 M28.95,41.25l-1-1.2
	 M27.95,40.05v-0.6 M26.45,40.85l1.5-0.8 M36.45,58.05l1.3-0.7 M35.95,52.35l-1-1.3 M34.95,51.05v-0.6 M33.45,51.95l1.5-0.9
	 M27.75,42.45l1.2-0.7 M42.95,63.35l-1-1.2 M41.95,62.15v-0.6 M40.45,63.05l1.5-0.9 M34.75,53.55l1.2-0.8 M34.25,47.85l-1-1.3
	 M33.25,46.55v-0.6 M31.75,47.45l1.5-0.9 M41.75,64.55l1.2-0.7 M41.25,58.85l-1-1.2 M40.25,57.65v-0.6 M38.75,58.45l1.5-0.8
	 M32.95,48.95l1.3-0.7 M32.45,43.25l-1-1.2 M31.45,42.05v-0.6 M29.95,42.95l1.5-0.9 M39.95,60.05l1.3-0.7 M39.45,54.35l-1-1.2
	 M38.45,53.15v-0.6 M36.95,53.95l1.5-0.8 M31.25,44.45l1.2-0.7 M30.75,38.75l-1-1.2 M29.75,37.55v-0.6 M28.25,38.35l1.5-0.8
	 M46.55,65.45l-1-1.3 M45.55,64.15v-0.6 M43.95,65.05l1.6-0.9 M38.25,55.55l1.2-0.7 M37.75,49.85l-1-1.3 M36.75,48.55v-0.6
	 M35.25,49.45l1.5-0.9 M29.45,39.95l1.3-0.7 M28.95,34.25l-1-1.3 M27.95,32.95v-0.6 M26.45,33.85l1.5-0.9 M45.25,66.55l1.3-0.7
	 M44.75,60.85l-1-1.2 M43.75,59.65v-0.6 M42.25,60.55l1.5-0.9 M36.45,51.05l1.3-0.8 M35.95,45.35l-1-1.3 M34.95,44.05v-0.6
	 M33.45,44.95l1.5-0.9 M27.75,35.45l1.2-0.7 M43.45,62.05l1.3-0.7 M42.95,56.35l-1-1.2 M41.95,55.15v-0.6 M40.45,55.95l1.5-0.8
	 M34.75,46.45l1.2-0.7 M34.25,40.75l-1-1.2 M33.25,39.55v-0.6 M31.75,40.45l1.5-0.9 M50.05,67.45l-1-1.3 M49.05,66.15v-0.6
	 M47.55,67.05l1.5-0.9 M41.75,57.55l1.2-0.7 M41.25,51.85l-1-1.2 M40.25,50.65v-0.6 M38.75,51.45l1.5-0.8 M32.95,41.95l1.3-0.7
	 M32.45,36.25l-1-1.2 M31.45,35.05v-0.6 M29.95,35.85l1.5-0.8 M48.75,68.65l1.3-0.8 M48.25,62.95l-1-1.3 M47.25,61.65v-0.6
	 M45.75,62.55l1.5-0.9 M39.95,53.05l1.3-0.7 M39.45,47.35l-1-1.3 M38.45,46.05v-0.6 M36.95,46.95l1.5-0.9 M31.25,37.45l1.2-0.7
	 M30.75,31.75l-1-1.2 M29.75,30.55v-0.6 M28.25,31.35l1.5-0.8 M47.05,64.15l1.2-0.8 M46.55,58.45l-1-1.3 M45.55,57.15v-0.6
	 M43.95,58.05l1.6-0.9 M38.25,48.55l1.2-0.8 M37.75,42.85l-1-1.3 M36.75,41.55v-0.6 M35.25,42.45l1.5-0.9 M29.45,32.95l1.3-0.7
	 M28.95,27.25l-1-1.3 M27.95,25.95v-0.6 M26.45,26.85l1.5-0.9 M53.55,69.45l-1-1.2 M52.55,68.25v-0.6 M51.05,69.05l1.5-0.8
	 M45.25,59.55l1.3-0.7 M44.75,53.85l-1-1.2 M43.75,52.65v-0.6 M42.25,53.55l1.5-0.9 M36.45,43.95l1.3-0.7 M35.95,38.25l-1-1.2
	 M34.95,37.05v-0.6 M33.45,37.95l1.5-0.9 M27.75,28.45l1.2-0.8 M52.25,70.65l1.3-0.7 M51.75,64.95l-1-1.2 M50.75,63.75v-0.7
	 M49.25,64.55l1.5-0.8 M43.45,55.05l1.3-0.7 M42.95,49.35l-1-1.2 M41.95,48.15v-0.6 M40.45,48.95l1.5-0.8 M34.75,39.45l1.2-0.7
	 M34.25,33.75l-1-1.2 M33.25,32.55v-0.6 M31.75,33.35l1.5-0.8 M50.55,66.15l1.2-0.7 M50.05,60.45l-1-1.3 M49.05,59.15v-0.6
	 M47.55,60.05l1.5-0.9 M41.75,50.55l1.2-0.7 M41.25,44.85l-1-1.3 M40.25,43.55v-0.6 M38.75,44.45l1.5-0.9 M32.95,34.95l1.3-0.7
	 M32.45,29.25l-1-1.2 M31.45,28.05v-0.6 M29.95,28.85l1.5-0.8 M57.05,71.45l-1-1.2 M56.05,70.25v-0.6 M54.55,71.15l1.5-0.9
	 M48.75,61.65l1.3-0.8 M48.25,55.95l-1-1.3 M47.25,54.65v-0.6 M45.75,55.55l1.5-0.9 M39.95,46.05l1.3-0.8 M39.45,40.35l-1-1.3
	 M38.45,39.05v-0.6 M36.95,39.95l1.5-0.9 M31.25,30.45l1.2-0.7 M55.75,72.65l1.3-0.7 M55.25,66.95l-1-1.2 M54.25,65.75v-0.6
	 M52.75,66.55l1.5-0.8 M47.05,57.05l1.2-0.7 M46.55,51.35l-1-1.2 M45.55,50.15v-0.6 M43.95,51.05l1.6-0.9 M38.25,41.55l1.2-0.8
	 M37.75,35.85l-1-1.3 M36.75,34.55v-0.6 M35.25,35.45l1.5-0.9 M54.05,68.15l1.2-0.7 M53.55,62.45l-1-1.2 M52.55,61.25v-0.6
	 M51.05,62.05l1.5-0.8 M45.25,52.55l1.3-0.7 M44.75,46.85l-1-1.2 M43.75,45.65v-0.6 M42.25,46.45l1.5-0.8 M36.45,36.95l1.3-0.7
	 M35.95,31.25l-1-1.2 M34.95,30.05v-0.6 M33.45,30.95l1.5-0.9 M52.25,63.65l1.3-0.7 M51.75,57.95l-1-1.3 M50.75,56.65v-0.6
	 M49.25,57.55l1.5-0.9 M43.45,48.05l1.3-0.7 M42.95,42.35l-1-1.3 M41.95,41.05v-0.6 M40.45,41.95l1.5-0.9 M34.75,32.45l1.2-0.7
	 M50.55,59.15l1.2-0.8 M50.05,53.45l-1-1.3 M49.05,52.15v-0.6 M47.55,53.05l1.5-0.9 M41.75,43.55l1.2-0.7 M41.25,37.85l-1-1.3
	 M40.25,36.55v-0.6 M38.75,37.45l1.5-0.9 M57.05,64.45l-1-1.2 M56.05,63.25v-0.6 M54.55,64.05l1.5-0.8 M48.75,54.55l1.3-0.7
	 M48.25,48.85l-1-1.2 M47.25,47.65v-0.6 M45.75,48.55l1.5-0.9 M39.95,39.05l1.3-0.8 M39.45,33.35l-1-1.3 M38.45,32.05v-0.6
	 M36.95,32.95l1.5-0.9 M55.75,65.65l1.3-0.7 M55.25,59.95l-1-1.2 M54.25,58.75v-0.6 M52.75,59.55l1.5-0.8 M47.05,50.05l1.2-0.7
	 M46.55,44.35l-1-1.2 M45.55,43.15v-0.6 M43.95,43.95l1.6-0.8 M38.25,34.45l1.2-0.7 M54.05,61.15l1.2-0.7 M53.55,55.45l-1-1.3
	 M52.55,54.15v-0.6 M51.05,55.05l1.5-0.9 M45.25,45.55l1.3-0.7 M44.75,39.85l-1-1.2 M43.75,38.65v-0.6 M42.25,39.45l1.5-0.8
	 M52.25,56.65l1.3-0.8 M51.75,50.95l-1-1.3 M50.75,49.65v-0.6 M49.25,50.55l1.5-0.9 M43.45,41.05l1.3-0.7 M42.95,35.35l-1-1.3
	 M41.95,34.05v-0.6 M40.45,34.95l1.5-0.9 M50.55,52.05l1.2-0.7 M50.05,46.35l-1-1.2 M49.05,45.15v-0.6 M47.55,46.05l1.5-0.9
	 M41.75,36.55l1.2-0.8 M57.05,57.45l-1-1.2 M56.05,56.25v-0.6 M54.55,57.05l1.5-0.8 M48.75,47.55l1.3-0.7 M48.25,41.85l-1-1.2
	 M47.25,40.65v-0.6 M45.75,41.45l1.5-0.8 M55.75,58.65l1.3-0.7 M55.25,52.95l-1-1.3 M54.25,51.65v-0.6 M52.75,52.55l1.5-0.9
	 M47.05,43.05l1.2-0.7 M46.55,37.35l-1-1.2 M45.55,36.15v-0.6 M43.95,36.95l1.6-0.8 M54.05,54.15l1.2-0.8 M53.55,48.45l-1-1.3
	 M52.55,47.15v-0.6 M51.05,48.05l1.5-0.9 M45.25,38.55l1.3-0.7 M52.25,49.55l1.3-0.7 M51.75,43.95l-1-1.3 M50.75,42.65v-0.6
	 M49.25,43.55l1.5-0.9 M50.55,45.05l1.2-0.7 M50.05,39.35l-1-1.2 M39.55,21.65L2.75,0.35 M49.05,38.15v-0.6 M47.55,39.05l1.5-0.9
	 M57.05,50.45l-1-1.3 M56.05,49.15v-0.6 M54.55,50.05l1.5-0.9 M48.75,40.55l1.3-0.7 M40.95,20.85l0.1-0.1h0.1h0.1l0.1,0.1
	 M55.75,51.65l1.3-0.7 M55.25,45.95l-1-1.3 M54.25,44.65v-0.6 M52.75,45.55l1.5-0.9 M54.05,47.15l1.2-0.8 M53.55,41.45l-1-1.3
	 M52.55,40.15v-0.6 M51.05,41.05l1.5-0.9 M52.25,42.55l1.3-0.7 M57.05,43.45l-1-1.3 M56.05,42.15v-0.6 M54.55,43.05l1.5-0.9
	 M55.75,44.65l1.3-0.8 M92.15,91.75l-1-1.3 M91.15,90.45v-0.6 M89.55,91.35l1.6-0.9 M90.85,92.95l1.3-0.8 M90.35,87.25l-1-1.3
	 M89.35,85.95v-0.6 M87.85,86.85l1.5-0.9 M89.05,88.45l1.3-0.8 M95.65,93.75l-1-1.2 M94.65,92.55v-0.6 M93.15,93.35l1.5-0.8
	 M94.35,94.95l1.3-0.7 M93.85,89.25l-1-1.2 M92.85,88.05v-0.7 M91.35,88.85l1.5-0.8 M92.65,90.45l1.2-0.7 M92.15,84.75l-1-1.3
	 M91.15,83.45v-0.6 M89.55,84.35l1.6-0.9 M99.15,95.75l-1-1.2 M98.15,94.55v-0.6 M96.65,95.45l1.5-0.9 M90.85,85.95l1.3-0.8
	 M90.35,80.25l-1-1.3 M89.35,78.95v-0.6 M87.85,79.85l1.5-0.9 M97.85,96.95l1.3-0.7 M97.35,91.25l-1-1.2 M96.35,90.05v-0.6
	 M94.85,90.85l1.5-0.8 M89.05,81.35l1.3-0.7 M96.15,92.45l1.2-0.7 M95.65,86.75l-1-1.2 M94.65,85.55v-0.6 M93.15,86.35l1.5-0.8
	 M109.85,109.55v0.2v0.2l-0.1,0.2l-0.2,0.1 M102.65,97.85l-1-1.3 M101.65,96.55v-0.6 M100.15,97.45l1.5-0.9 M94.35,87.95l1.3-0.7
	 M93.85,82.25l-1-1.3 M92.85,80.95v-0.6 M91.35,81.85l1.5-0.9 M101.35,98.95l1.3-0.7 M100.85,93.25l-1-1.2 M99.85,92.05v-0.6
	 M98.35,92.95l1.5-0.9 M92.65,83.45l1.2-0.8 M92.15,77.75l-1-1.3 M91.15,76.45v-0.6 M89.55,77.35l1.6-0.9 M99.65,94.45l1.2-0.7
	 M99.15,88.75l-1-1.2 M98.15,87.55v-0.6 M96.65,88.35l1.5-0.8 M90.85,78.85l1.3-0.7 M70.35,37.65l-29-16.8 M70.85,39.75v-1.3
	 M90.35,73.15l-1-1.2 M89.35,71.95v-0.6 M87.85,72.85l1.5-0.9 M70.35,37.65h0.1l0.1,0.1l0.1,0.1l0.1,0.1v0.2l0.1,0.1v0.1v0.1
	 M97.85,89.95l1.3-0.7 M97.35,84.25l-1-1.2 M96.35,83.05v-0.6 M94.85,83.85l1.5-0.8 M89.05,74.35l1.3-0.7 M96.15,85.45l1.2-0.7
	 M95.65,79.75l-1-1.3 M94.65,78.45v-0.6 M93.15,79.35l1.5-0.9 M102.65,90.85l-1-1.3 M101.65,89.55v-0.6 M100.15,90.45l1.5-0.9
	 M94.35,80.95l1.3-0.8 M93.85,75.25l-1-1.3 M92.85,73.95v-0.6 M91.35,74.85l1.5-0.9 M101.35,91.95l1.3-0.7 M100.85,86.25l-1-1.2
	 M99.85,85.05v-0.6 M98.35,85.95l1.5-0.9 M92.65,76.35l1.2-0.7 M92.15,70.65l-1-1.2 M91.15,69.45v-0.6 M89.55,70.35l1.6-0.9
	 M99.65,87.45l1.2-0.7 M99.15,81.75l-1-1.2 M98.15,80.55v-0.6 M96.65,81.35l1.5-0.8 M90.85,71.85l1.3-0.7 M90.35,66.15l-1-1.2
	 M89.35,64.95v-0.6 M87.85,65.75l1.5-0.8 M97.85,82.95l1.3-0.7 M97.35,77.25l-1-1.3 M96.35,75.95v-0.6 M94.85,76.85l1.5-0.9
	 M89.05,67.35l1.3-0.7 M96.15,78.45l1.2-0.8 M95.65,72.75l-1-1.3 M94.65,71.45v-0.6 M93.15,72.35l1.5-0.9 M102.65,83.75l-1-1.2
	 M101.65,82.55v-0.6 M100.15,83.45l1.5-0.9 M94.35,73.85l1.3-0.7 M93.85,68.15l-1-1.2 M92.85,66.95v-0.6 M91.35,67.85l1.5-0.9
	 M101.35,84.95l1.3-0.7 M100.85,79.25l-1-1.2 M99.85,78.05v-0.6 M98.35,78.85l1.5-0.8 M92.65,69.35l1.2-0.7 M92.15,63.65l-1-1.2
	 M91.15,62.45v-0.6 M89.55,63.35l1.6-0.9 M99.65,80.45l1.2-0.7 M99.15,74.75l-1-1.3 M98.15,73.45v-0.6 M96.65,74.35l1.5-0.9
	 M90.85,64.85l1.3-0.7 M97.85,75.95l1.3-0.7 M97.35,70.25l-1-1.3 M96.35,68.95v-0.6 M94.85,69.85l1.5-0.9 M96.15,71.45l1.2-0.8
	 M95.65,65.75l-1-1.3 M94.65,64.45v-0.6 M93.15,65.35l1.5-0.9 M102.65,76.75l-1-1.2 M101.65,75.55v-0.6 M100.15,76.35l1.5-0.8
	 M94.35,66.85l1.3-0.7 M101.35,77.95l1.3-0.7 M100.85,72.25l-1-1.2 M99.85,71.05v-0.7 M98.35,71.85l1.5-0.8 M99.65,73.45l1.2-0.7
	 M99.15,67.75l-1-1.3 M98.15,66.45v-0.6 M96.65,67.35l1.5-0.9 M97.85,68.95l1.3-0.8 M102.65,69.75l-1-1.2 M101.65,68.55v-0.6
	 M100.15,69.35l1.5-0.8 M101.35,70.95l1.3-0.7 M108.85,61.65l-38-21.9 M69.35,40.55l1.5-0.8 M109.85,109.55v-46.2 M108.85,61.65
	l0.2,0.1l0.2,0.2l0.2,0.2l0.1,0.3l0.2,0.2l0.1,0.3v0.2v0.2 M97.85,82.95l-1.2-1.6 M96.65,81.35v-1.6 M96.65,79.75l1.2-0.2
	 M97.85,79.55l1.3,1.6 M99.15,81.15v1.7 M99.15,82.85l-1.3,0.1 M96.15,78.45l-1.3-1.6 M94.85,76.85v-1.7 M94.85,75.15l1.3-0.1
	 M96.15,75.05l1.2,1.6 M97.35,76.65v1.7 M97.35,78.35l-1.2,0.1 M94.35,73.85l-1.2-1.5 M93.15,72.35v-1.7 M93.15,70.65l1.2-0.1
	 M94.35,70.55l1.3,1.6 M95.65,72.15v1.6 M95.65,73.75l-1.3,0.1 M92.65,69.35l-1.3-1.5 M91.35,67.85v-1.7 M91.35,66.15l1.3-0.1
	 M92.65,66.05l1.2,1.5 M93.85,67.55v1.7 M93.85,69.25l-1.2,0.1 M97.85,89.95l-1.2-1.6 M96.65,88.35v-1.6 M96.65,86.75l1.2-0.1
	 M97.85,86.65l1.3,1.5 M99.15,88.15v1.7 M99.15,89.85l-1.3,0.1 M99.65,94.45l-1.3-1.5 M98.35,92.95v-1.7 M98.35,91.25l1.3-0.1
	 M99.65,91.15l1.2,1.5 M100.85,92.65v1.7 M100.85,94.35l-1.2,0.1 M101.35,98.95l-1.2-1.5 M100.15,97.45v-1.7 M100.15,95.75l1.2-0.1
	 M101.35,95.65l1.3,1.6 M102.65,97.25v1.6 M102.65,98.85l-1.3,0.1 M90.85,64.85l-1.3-1.5 M89.55,63.35v-1.7 M89.55,61.65l1.3-0.1
	 M90.85,61.55l1.3,1.5 M92.15,63.05v1.7 M92.15,64.75l-1.3,0.1 M97.85,75.95l-1.2-1.6 M96.65,74.35v-1.7 M96.65,72.65l1.2-0.1
	 M97.85,72.55l1.3,1.6 M99.15,74.15v1.7 M99.15,75.85l-1.3,0.1 M99.65,80.45l-1.3-1.6 M98.35,78.85v-1.6 M98.35,77.25l1.3-0.1
	 M99.65,77.15l1.2,1.5 M100.85,78.65v1.7 M100.85,80.35l-1.2,0.1 M101.35,84.95l-1.2-1.5 M100.15,83.45v-1.7 M100.15,81.75l1.2-0.1
	 M101.35,81.65l1.3,1.5 M102.65,83.15v1.7 M102.65,84.85l-1.3,0.1 M97.85,68.95l-1.2-1.6 M96.65,67.35v-1.7 M96.65,65.65l1.2-0.1
	 M97.85,65.55l1.3,1.6 M99.15,67.15v1.6 M99.15,68.75l-1.3,0.2 M96.15,71.45l-1.3-1.6 M94.85,69.85v-1.7 M94.85,68.15l1.3-0.1
	 M96.15,68.05l1.2,1.6 M97.35,69.65v1.6 M97.35,71.25l-1.2,0.2 M94.35,66.85l-1.2-1.5 M93.15,65.35v-1.7 M93.15,63.65l1.2-0.1
	 M94.35,63.55l1.3,1.6 M95.65,65.15v1.6 M95.65,66.75l-1.3,0.1 M101.35,91.95l-1.2-1.5 M100.15,90.45v-1.7 M100.15,88.75l1.2-0.1
	 M101.35,88.65l1.3,1.5 M102.65,90.15v1.7 M102.65,91.85l-1.3,0.1 M99.65,87.45l-1.3-1.5 M98.35,85.95v-1.7 M98.35,84.25l1.3-0.1
	 M99.65,84.15l1.2,1.5 M100.85,85.65v1.7 M100.85,87.35l-1.2,0.1 M94.35,94.95l-1.2-1.6 M93.15,93.35v-1.6 M93.15,91.75l1.2-0.1
	 M94.35,91.65l1.3,1.5 M95.65,93.15v1.7 M95.65,94.85l-1.3,0.1 M89.05,74.35l-1.2-1.5 M87.85,72.85v-1.7 M87.85,71.15l1.2-0.1
	 M89.05,71.05l1.3,1.5 M90.35,72.55v1.7 M90.35,74.25l-1.3,0.1 M90.85,78.85l-1.3-1.5 M89.55,77.35v-1.7 M89.55,75.65l1.3-0.1
	 M90.85,75.55l1.3,1.6 M92.15,77.15v1.6 M92.15,78.75l-1.3,0.1 M92.65,83.45l-1.3-1.6 M91.35,81.85v-1.7 M91.35,80.15l1.3-0.1
	 M92.65,80.05l1.2,1.6 M93.85,81.65v1.6 M93.85,83.25l-1.2,0.2 M90.85,92.95l-1.3-1.6 M89.55,91.35v-1.7 M89.55,89.65l1.3-0.1
	 M90.85,89.55l1.3,1.6 M92.15,91.15v1.7 M92.15,92.85l-1.3,0.1 M89.05,81.35l-1.2-1.5 M87.85,79.85v-1.7 M87.85,78.15l1.2-0.1
	 M89.05,78.05l1.3,1.6 M90.35,79.65v1.6 M90.35,81.25l-1.3,0.1 M90.85,85.95l-1.3-1.6 M89.55,84.35v-1.7 M89.55,82.65l1.3-0.1
	 M90.85,82.55l1.3,1.6 M92.15,84.15v1.6 M92.15,85.75l-1.3,0.2 M92.65,90.45l-1.3-1.6 M91.35,88.85v-1.7 M91.35,87.15l1.3-0.1
	 M92.65,87.05l1.2,1.6 M93.85,88.65v1.7 M93.85,90.35l-1.2,0.1 M96.15,85.45l-1.3-1.6 M94.85,83.85v-1.6 M94.85,82.25l1.3-0.2
	 M96.15,82.05l1.2,1.6 M97.35,83.65v1.7 M97.35,85.35l-1.2,0.1 M94.35,80.95l-1.2-1.6 M93.15,79.35v-1.7 M93.15,77.65l1.2-0.1
	 M94.35,77.55l1.3,1.6 M95.65,79.15v1.7 M95.65,80.85l-1.3,0.1 M92.65,76.35l-1.3-1.5 M91.35,74.85v-1.7 M91.35,73.15l1.3-0.1
	 M92.65,73.05l1.2,1.6 M93.85,74.65v1.6 M93.85,76.25l-1.2,0.1 M90.85,71.85l-1.3-1.5 M89.55,70.35v-1.7 M89.55,68.65l1.3-0.1
	 M90.85,68.55l1.3,1.5 M92.15,70.05v1.7 M92.15,71.75l-1.3,0.1 M94.35,87.95l-1.2-1.6 M93.15,86.35v-1.6 M93.15,84.75l1.2-0.2
	 M94.35,84.55l1.3,1.6 M95.65,86.15v1.7 M95.65,87.85l-1.3,0.1 M96.15,92.45l-1.3-1.6 M94.85,90.85v-1.6 M94.85,89.25l1.3-0.1
	 M96.15,89.15l1.2,1.5 M97.35,90.65v1.7 M97.35,92.35l-1.2,0.1 M97.85,96.95l-1.2-1.5 M96.65,95.45v-1.7 M96.65,93.75l1.2-0.1
	 M97.85,93.65l1.3,1.5 M99.15,95.15v1.7 M99.15,96.85l-1.3,0.1 M89.05,67.35l-1.2-1.6 M87.85,65.75v-1.6 M87.85,64.15l1.2-0.1
	 M89.05,64.05l1.3,1.5 M90.35,65.55v1.7 M90.35,67.25l-1.3,0.1 M99.65,73.45l-1.3-1.6 M98.35,71.85v-1.6 M98.35,70.25l1.3-0.2
	 M99.65,70.05l1.2,1.6 M100.85,71.65v1.7 M100.85,73.35l-1.2,0.1 M101.35,77.95l-1.2-1.6 M100.15,76.35v-1.6 M100.15,74.75l1.2-0.1
	 M101.35,74.65l1.3,1.5 M102.65,76.15v1.7 M102.65,77.85l-1.3,0.1 M101.35,70.95l-1.2-1.6 M100.15,69.35v-1.6 M100.15,67.75l1.2-0.2
	 M101.35,67.55l1.3,1.6 M102.65,69.15v1.7 M102.65,70.85l-1.3,0.1 M89.05,88.45l-1.2-1.6 M87.85,86.85v-1.7 M87.85,85.15l1.2-0.1
	 M89.05,85.05l1.3,1.6 M90.35,86.65v1.6 M90.35,88.25l-1.3,0.2 M41.75,57.55l-1.3-1.6 M40.45,55.95v-1.6 M40.45,54.35l1.3-0.1
	 M41.75,54.25l1.2,1.5 M42.95,55.75v1.7 M42.95,57.45l-1.2,0.1 M43.45,62.05l-1.2-1.5 M42.25,60.55v-1.7 M42.25,58.85l1.2-0.1
	 M43.45,58.75l1.3,1.5 M44.75,60.25v1.7 M44.75,61.95l-1.3,0.1 M45.25,66.55l-1.3-1.5 M43.95,65.05v-1.7 M43.95,63.35l1.3-0.1
	 M45.25,63.25l1.3,1.6 M46.55,64.85v1.6 M46.55,66.45l-1.3,0.1 M34.75,32.45l-1.3-1.5 M33.45,30.95v-1.7 M33.45,29.25l1.3-0.1
	 M34.75,29.15l1.2,1.5 M35.95,30.65v1.7 M35.95,32.35l-1.2,0.1 M39.95,53.05l-1.2-1.6 M38.75,51.45v-1.6 M38.75,49.85l1.2-0.2
	 M39.95,49.65l1.3,1.6 M41.25,51.25v1.7 M41.25,52.95l-1.3,0.1 M38.25,48.55l-1.3-1.6 M36.95,46.95v-1.7 M36.95,45.25l1.3-0.1
	 M38.25,45.15l1.2,1.6 M39.45,46.75v1.7 M39.45,48.45l-1.2,0.1 M36.45,43.95l-1.2-1.5 M35.25,42.45v-1.7 M35.25,40.75l1.2-0.1
	 M36.45,40.65l1.3,1.6 M37.75,42.25v1.6 M37.75,43.85l-1.3,0.1 M34.75,39.45l-1.3-1.5 M33.45,37.95v-1.7 M33.45,36.25l1.3-0.1
	 M34.75,36.15l1.2,1.5 M35.95,37.65v1.7 M35.95,39.35l-1.2,0.1 M45.25,59.55l-1.3-1.5 M43.95,58.05v-1.7 M43.95,56.35l1.3-0.1
	 M45.25,56.25l1.3,1.5 M46.55,57.75v1.7 M46.55,59.45l-1.3,0.1 M47.05,64.15l-1.3-1.6 M45.75,62.55v-1.7 M45.75,60.85l1.3-0.1
	 M47.05,60.75l1.2,1.6 M48.25,62.35v1.6 M48.25,63.95l-1.2,0.2 M48.75,68.65l-1.2-1.6 M47.55,67.05v-1.7 M47.55,65.35l1.2-0.1
	 M48.75,65.25l1.3,1.6 M50.05,66.85v1.7 M50.05,68.55l-1.3,0.1 M38.25,34.45l-1.3-1.5 M36.95,32.95v-1.7 M36.95,31.25l1.3-0.1
	 M38.25,31.15l1.2,1.6 M39.45,32.75v1.6 M39.45,34.35l-1.2,0.1 M43.45,55.05l-1.2-1.5 M42.25,53.55v-1.7 M42.25,51.85l1.2-0.1
	 M43.45,51.75l1.3,1.5 M44.75,53.25v1.7 M44.75,54.95l-1.3,0.1 M39.95,46.05l-1.2-1.6 M38.75,44.45v-1.7 M38.75,42.75l1.2-0.1
	 M39.95,42.65l1.3,1.6 M41.25,44.25v1.7 M41.25,45.95l-1.3,0.1 M38.25,41.55l-1.3-1.6 M36.95,39.95v-1.7 M36.95,38.25l1.3-0.1
	 M38.25,38.15l1.2,1.6 M39.45,39.75v1.6 M39.45,41.35l-1.2,0.2 M36.45,36.95l-1.2-1.5 M35.25,35.45v-1.7 M35.25,33.75l1.2-0.1
	 M36.45,33.65l1.3,1.5 M37.75,35.15v1.7 M37.75,36.85l-1.3,0.1 M38.25,62.55l-1.3-1.6 M36.95,60.95v-1.6 M36.95,59.35l1.3-0.1
	 M38.25,59.25l1.2,1.5 M39.45,60.75v1.7 M39.45,62.45l-1.2,0.1 M27.75,28.45l-1.3-1.6 M26.45,26.85v-1.7 M26.45,25.15l1.3-0.1
	 M27.75,25.05l1.2,1.6 M28.95,26.65v1.6 M28.95,28.25l-1.2,0.2 M29.45,32.95l-1.2-1.6 M28.25,31.35v-1.6 M28.25,29.75l1.2-0.2
	 M29.45,29.55l1.3,1.6 M30.75,31.15v1.7 M30.75,32.85l-1.3,0.1 M31.25,37.45l-1.3-1.6 M29.95,35.85v-1.6 M29.95,34.25l1.3-0.1
	 M31.25,34.15l1.2,1.5 M32.45,35.65v1.7 M32.45,37.35l-1.2,0.1 M36.45,58.05l-1.2-1.6 M35.25,56.45v-1.7 M35.25,54.75l1.2-0.1
	 M36.45,54.65l1.3,1.6 M37.75,56.25v1.7 M37.75,57.95l-1.3,0.1 M34.75,53.55l-1.3-1.6 M33.45,51.95v-1.7 M33.45,50.25l1.3-0.1
	 M34.75,50.15l1.2,1.6 M35.95,51.75v1.6 M35.95,53.35l-1.2,0.2 M32.95,48.95l-1.2-1.5 M31.75,47.45v-1.7 M31.75,45.75l1.2-0.1
	 M32.95,45.65l1.3,1.6 M34.25,47.25v1.6 M34.25,48.85l-1.3,0.1 M31.25,44.45l-1.3-1.5 M29.95,42.95v-1.7 M29.95,41.25l1.3-0.1
	 M31.25,41.15l1.2,1.5 M32.45,42.65v1.7 M32.45,44.35l-1.2,0.1 M32.95,34.95l-1.2-1.6 M31.75,33.35v-1.6 M31.75,31.75l1.2-0.1
	 M32.95,31.65l1.3,1.5 M34.25,33.15v1.7 M34.25,34.85l-1.3,0.1 M31.25,30.45l-1.3-1.6 M29.95,28.85v-1.6 M29.95,27.25l1.3-0.2
	 M31.25,27.05l1.2,1.6 M32.45,28.65v1.7 M32.45,30.35l-1.2,0.1 M41.75,64.55l-1.3-1.5 M40.45,63.05v-1.7 M40.45,61.35l1.3-0.1
	 M41.75,61.25l1.2,1.5 M42.95,62.75v1.7 M42.95,64.45l-1.2,0.1 M39.95,60.05l-1.2-1.6 M38.75,58.45v-1.6 M38.75,56.85l1.2-0.1
	 M39.95,56.75l1.3,1.5 M41.25,58.25v1.7 M41.25,59.95l-1.3,0.1 M38.25,55.55l-1.3-1.6 M36.95,53.95v-1.6 M36.95,52.35l1.3-0.2
	 M38.25,52.15l1.2,1.6 M39.45,53.75v1.7 M39.45,55.45l-1.2,0.1 M36.45,51.05l-1.2-1.6 M35.25,49.45v-1.7 M35.25,47.75l1.2-0.1
	 M36.45,47.65l1.3,1.6 M37.75,49.25v1.6 M37.75,50.85l-1.3,0.2 M34.75,46.45l-1.3-1.5 M33.45,44.95v-1.7 M33.45,43.25l1.3-0.1
	 M34.75,43.15l1.2,1.6 M35.95,44.75v1.6 M35.95,46.35l-1.2,0.1 M32.95,41.95l-1.2-1.5 M31.75,40.45v-1.7 M31.75,38.75l1.2-0.1
	 M32.95,38.65l1.3,1.5 M34.25,40.15v1.7 M34.25,41.85l-1.3,0.1 M55.75,65.65l-1.2-1.6 M54.55,64.05v-1.6 M54.55,62.45l1.2-0.1
	 M55.75,62.35l1.3,1.5 M57.05,63.85v1.7 M57.05,65.55l-1.3,0.1 M54.05,61.15l-1.3-1.6 M52.75,59.55v-1.6 M52.75,57.95l1.3-0.2
	 M54.05,57.75l1.2,1.6 M55.25,59.35v1.7 M55.25,61.05l-1.2,0.1 M52.25,56.65l-1.2-1.6 M51.05,55.05v-1.7 M51.05,53.35l1.2-0.1
	 M52.25,53.25l1.3,1.6 M53.55,54.85v1.7 M53.55,56.55l-1.3,0.1 M50.55,52.05l-1.3-1.5 M49.25,50.55v-1.7 M49.25,48.85l1.3-0.1
	 M50.55,48.75l1.2,1.6 M51.75,50.35v1.6 M51.75,51.95l-1.2,0.1 M55.75,72.65l-1.2-1.5 M54.55,71.15v-1.7 M54.55,69.45l1.2-0.1
	 M55.75,69.35l1.3,1.5 M57.05,70.85v1.7 M57.05,72.55l-1.3,0.1 M45.25,38.55l-1.3-1.6 M43.95,36.95v-1.6 M43.95,35.35l1.3-0.2
	 M45.25,35.15l1.3,1.6 M46.55,36.75v1.7 M46.55,38.45l-1.3,0.1 M47.05,43.05l-1.3-1.6 M45.75,41.45v-1.6 M45.75,39.85l1.3-0.1
	 M47.05,39.75l1.2,1.5 M48.25,41.25v1.7 M48.25,42.95l-1.2,0.1 M48.75,47.55l-1.2-1.5 M47.55,46.05v-1.7 M47.55,44.35l1.2-0.1
	 M48.75,44.25l1.3,1.5 M50.05,45.75v1.7 M50.05,47.45l-1.3,0.1 M55.75,58.65l-1.2-1.6 M54.55,57.05v-1.6 M54.55,55.45l1.2-0.2
	 M55.75,55.25l1.3,1.6 M57.05,56.85v1.7 M57.05,58.55l-1.3,0.1 M52.25,42.55l-1.2-1.5 M51.05,41.05v-1.7 M51.05,39.35l1.2-0.1
	 M52.25,39.25l1.3,1.6 M53.55,40.85v1.6 M53.55,42.45l-1.3,0.1 M54.05,47.15l-1.3-1.6 M52.75,45.55v-1.7 M52.75,43.85l1.3-0.1
	 M54.05,43.75l1.2,1.6 M55.25,45.35v1.6 M55.25,46.95l-1.2,0.2 M55.75,51.65l-1.2-1.6 M54.55,50.05v-1.7 M54.55,48.35l1.2-0.1
	 M55.75,48.25l1.3,1.6 M57.05,49.85v1.7 M57.05,51.55l-1.3,0.1 M54.05,54.15l-1.3-1.6 M52.75,52.55v-1.7 M52.75,50.85l1.3-0.1
	 M54.05,50.75l1.2,1.6 M55.25,52.35v1.7 M55.25,54.05l-1.2,0.1 M52.25,49.55l-1.2-1.5 M51.05,48.05v-1.7 M51.05,46.35l1.2-0.1
	 M52.25,46.25l1.3,1.6 M53.55,47.85v1.6 M53.55,49.45l-1.3,0.1 M50.55,45.05l-1.3-1.5 M49.25,43.55v-1.7 M49.25,41.85l1.3-0.1
	 M50.55,41.75l1.2,1.5 M51.75,43.25v1.7 M51.75,44.95l-1.2,0.1 M48.75,40.55l-1.2-1.5 M47.55,39.05v-1.7 M47.55,37.35l1.2-0.1
	 M48.75,37.25l1.3,1.5 M50.05,38.75v1.7 M50.05,40.45l-1.3,0.1 M39.95,39.05l-1.2-1.6 M38.75,37.45v-1.7 M38.75,35.75l1.2-0.1
	 M39.95,35.65l1.3,1.6 M41.25,37.25v1.6 M41.25,38.85l-1.3,0.2 M41.75,43.55l-1.3-1.6 M40.45,41.95v-1.7 M40.45,40.25l1.3-0.1
	 M41.75,40.15l1.2,1.6 M42.95,41.75v1.7 M42.95,43.45l-1.2,0.1 M43.45,48.05l-1.2-1.6 M42.25,46.45v-1.6 M42.25,44.85l1.2-0.1
	 M43.45,44.75l1.3,1.5 M44.75,46.25v1.7 M44.75,47.95l-1.3,0.1 M45.25,52.55l-1.3-1.5 M43.95,51.05v-1.7 M43.95,49.35l1.3-0.1
	 M45.25,49.25l1.3,1.5 M46.55,50.75v1.7 M46.55,52.45l-1.3,0.1 M47.05,57.05l-1.3-1.5 M45.75,55.55v-1.7 M45.75,53.85l1.3-0.1
	 M47.05,53.75l1.2,1.6 M48.25,55.35v1.6 M48.25,56.95l-1.2,0.1 M48.75,61.65l-1.2-1.6 M47.55,60.05v-1.7 M47.55,58.35l1.2-0.1
	 M48.75,58.25l1.3,1.6 M50.05,59.85v1.6 M50.05,61.45l-1.3,0.2 M50.55,66.15l-1.3-1.6 M49.25,64.55v-1.7 M49.25,62.85l1.3-0.1
	 M50.55,62.75l1.2,1.6 M51.75,64.35v1.7 M51.75,66.05l-1.2,0.1 M52.25,70.65l-1.2-1.6 M51.05,69.05v-1.6 M51.05,67.45l1.2-0.1
	 M52.25,67.35l1.3,1.5 M53.55,68.85v1.7 M53.55,70.55l-1.3,0.1 M41.75,36.55l-1.3-1.6 M40.45,34.95v-1.7 M40.45,33.25l1.3-0.1
	 M41.75,33.15l1.2,1.6 M42.95,34.75v1.6 M42.95,36.35l-1.2,0.2 M43.45,41.05l-1.2-1.6 M42.25,39.45v-1.6 M42.25,37.85l1.2-0.2
	 M43.45,37.65l1.3,1.6 M44.75,39.25v1.7 M44.75,40.95l-1.3,0.1 M45.25,45.55l-1.3-1.6 M43.95,43.95v-1.6 M43.95,42.35l1.3-0.1
	 M45.25,42.25l1.3,1.5 M46.55,43.75v1.7 M46.55,45.45l-1.3,0.1 M47.05,50.05l-1.3-1.5 M45.75,48.55v-1.7 M45.75,46.85l1.3-0.1
	 M47.05,46.75l1.2,1.5 M48.25,48.25v1.7 M48.25,49.95l-1.2,0.1 M48.75,54.55l-1.2-1.5 M47.55,53.05v-1.7 M47.55,51.35l1.2-0.1
	 M48.75,51.25l1.3,1.6 M50.05,52.85v1.6 M50.05,54.45l-1.3,0.1 M50.55,59.15l-1.3-1.6 M49.25,57.55v-1.7 M49.25,55.85l1.3-0.1
	 M50.55,55.75l1.2,1.6 M51.75,57.35v1.6 M51.75,58.95l-1.2,0.2 M52.25,63.65l-1.2-1.6 M51.05,62.05v-1.6 M51.05,60.45l1.2-0.2
	 M52.25,60.25l1.3,1.6 M53.55,61.85v1.7 M53.55,63.55l-1.3,0.1 M54.05,68.15l-1.3-1.6 M52.75,66.55v-1.6 M52.75,64.95l1.3-0.1
	 M54.05,64.85l1.2,1.5 M55.25,66.35v1.7 M55.25,68.05l-1.2,0.1 M27.75,56.45l-1.3-1.5 M26.45,54.95v-1.7 M26.45,53.25l1.3-0.1
	 M27.75,53.15l1.2,1.5 M28.95,54.65v1.7 M28.95,56.35l-1.2,0.1 M27.75,49.45l-1.3-1.6 M26.45,47.85v-1.6 M26.45,46.25l1.3-0.1
	 M27.75,46.15l1.2,1.5 M28.95,47.65v1.7 M28.95,49.35l-1.2,0.1 M29.45,53.95l-1.2-1.5 M28.25,52.45v-1.7 M28.25,50.75l1.2-0.1
	 M29.45,50.65l1.3,1.5 M30.75,52.15v1.7 M30.75,53.85l-1.3,0.1 M29.45,39.95l-1.2-1.6 M28.25,38.35v-1.6 M28.25,36.75l1.2-0.1
	 M29.45,36.65l1.3,1.5 M30.75,38.15v1.7 M30.75,39.85l-1.3,0.1 M27.75,35.45l-1.3-1.6 M26.45,33.85v-1.7 M26.45,32.15l1.3-0.1
	 M27.75,32.05l1.2,1.6 M28.95,33.65v1.7 M28.95,35.35l-1.2,0.1 M34.75,60.55l-1.3-1.6 M33.45,58.95v-1.7 M33.45,57.25l1.3-0.1
	 M34.75,57.15l1.2,1.6 M35.95,58.75v1.7 M35.95,60.45l-1.2,0.1 M32.95,56.05l-1.2-1.6 M31.75,54.45v-1.7 M31.75,52.75l1.2-0.1
	 M32.95,52.65l1.3,1.6 M34.25,54.25v1.6 M34.25,55.85l-1.3,0.2 M31.25,58.45l-1.3-1.5 M29.95,56.95v-1.7 M29.95,55.25l1.3-0.1
	 M31.25,55.15l1.2,1.6 M32.45,56.75v1.6 M32.45,58.35l-1.2,0.1 M27.75,42.45l-1.3-1.6 M26.45,40.85v-1.6 M26.45,39.25l1.3-0.1
	 M27.75,39.15l1.2,1.5 M28.95,40.65v1.7 M28.95,42.35l-1.2,0.1 M29.45,46.95l-1.2-1.5 M28.25,45.45v-1.7 M28.25,43.75l1.2-0.1
	 M29.45,43.65l1.3,1.5 M30.75,45.15v1.7 M30.75,46.85l-1.3,0.1 M31.25,51.45l-1.3-1.5 M29.95,49.95v-1.7 M29.95,48.25l1.3-0.1
	 M31.25,48.15l1.2,1.5 M32.45,49.65v1.7 M32.45,51.35l-1.2,0.1 M55.75,44.65l-1.2-1.6 M54.55,43.05v-1.7 M54.55,41.35l1.2-0.1
	 M55.75,41.25l1.3,1.6 M57.05,42.85v1.6 M57.05,44.45l-1.3,0.2 M41.75,50.55l-1.3-1.6 M40.45,48.95v-1.6 M40.45,47.35l1.3-0.2
	 M41.75,47.15l1.2,1.6 M42.95,48.75v1.7 M42.95,50.45l-1.2,0.1 M39.25,71.75v1.2 M39.25,72.95l0.1,0.1v0.1v0.1l0.1,0.2l0.1,0.1
	l0.1,0.1l0.1,0.1 M39.75,73.75l29.1,16.8 M68.85,90.55l0.1,0.1h0.1h0.1h0.1v-0.1l0.1-0.1v-0.1v-0.1 M69.35,90.25v-1.2 M69.35,89.05
	l38,22 M107.35,111.05l0.2,0.1h0.2h0.2l0.1-0.1l0.2-0.1l0.1-0.1v-0.2v-0.2 M108.35,110.45v-46.2 M108.35,64.25v-0.2v-0.3l-0.1-0.2
	l-0.2-0.3l-0.1-0.2l-0.2-0.2l-0.2-0.2l-0.2-0.1 M107.35,62.55l-38-22 M69.35,40.55v-1.2 M69.35,39.35v-0.1v-0.1l-0.1-0.2v-0.1
	l-0.1-0.1l-0.1-0.1l-0.1-0.1l-0.1-0.1 M68.85,38.45l-29.1-16.7 M39.75,21.75v-0.1h-0.1h-0.1h-0.1l-0.1,0.1v0.1l-0.1,0.1
	 M39.25,21.95v1.3 M39.25,23.25l-38-22 M1.25,1.25l-0.2-0.1h-0.2h-0.1h-0.2l-0.1,0.1l-0.1,0.2l-0.1,0.2v0.2 M0.25,1.85v46.2
	 M0.25,48.05v0.2l0.1,0.3l0.1,0.2l0.1,0.3l0.2,0.2l0.1,0.2l0.2,0.2l0.2,0.1 M1.25,49.75l38,22 M2.05,0.35l-1.5,0.8 M69.25,90.65
	l1.4-0.9 M40.95,20.85l-1.5,0.8 M108.05,111.05l1.5-0.8"/>
</svg>
