<?xml version="1.0" encoding="utf-8"?>
<!-- Generator: Adobe Illustrator 19.0.0, SVG Export Plug-In . SVG Version: 6.00 Build 0)  -->
<svg version="1.0" id="Layer_1" xmlns="http://www.w3.org/2000/svg" xmlns:xlink="http://www.w3.org/1999/xlink" x="0px" y="0px"
	 width="45.8px" height="74.8px" viewBox="0 0 45.8 74.8" enable-background="new 0 0 45.8 74.8" xml:space="preserve">
<path id="XMLID_77_" fill="none" stroke="#000000" stroke-width="0.25" stroke-linecap="round" stroke-linejoin="round" stroke-miterlimit="10" d="
	M37.25,54.45l0.7,0.4 M30.55,56.35l1.1,0.7 M31.75,54.75l-0.1-0.1 M30.05,54.55l0.6,0.4 M18.25,63.45l1.1,0.7 M19.45,61.85l-0.1-0.1
	 M17.75,61.65l0.6,0.4 M5.45,72.75l0.7,0.5 M44.85,1.05l-1-0.7 M30.45,7.65l-1.1-0.6 M15.45,15.05l1,0.6 M15.95,16.55l-1-0.6
	 M0.45,73.45l1.1,0.7 M0.95,25.15l1.1,0.6 M1.55,26.55l-1.1-0.6"/>
<path id="XMLID_2_" fill="none" stroke="#000000" stroke-width="0.5" stroke-linecap="round" stroke-linejoin="round" stroke-miterlimit="10" d="
	M30.35,56.45L30.35,56.45v-0.1v-0.1 M30.35,56.25v-1.5 M18.05,63.55L18.05,63.55v-0.1v-0.1 M18.05,63.35v-1.5 M43.65,0.25
	L43.65,0.25h0.1h0.1h0.1 M0.35,73.65L0.35,73.65v-0.1l-0.1-0.1v-0.1 M43.65,0.25l-12.8,7.4 M29.15,6.85h0.1h0.1h0.1 M29.15,6.85
	l-14,8.1 M14.65,15.85v1.1 M14.65,15.85l0.1-0.2v-0.1v-0.1l0.1-0.1l0.1-0.2l0.1-0.1l0.1-0.1 M14.65,16.95l-13.9,8.1 M16.15,17.85
	l-1.5-0.9 M0.25,25.85v47.5 M0.25,25.85v-0.1l0.1-0.2v-0.1v-0.1l0.1-0.1l0.1-0.1l0.1-0.1h0.1 M31.85,57.15v-2.3 M31.85,57.15
	L31.85,57.15v0.1l0.1,0.1l0.1-0.1 M32.05,57.25l6-3.5 M38.05,53.75v1.2 M38.05,54.95l0.1,0.1v0.1v0.1h0.1l0.1,0.1h0.1l0.1-0.1
	 M38.55,55.25l2-1.1 M40.55,54.15v-0.1l0.1-0.1l0.1-0.1l0.1-0.1l0.1-0.1v-0.1v-0.2l0.1-0.1 M41.05,53.25v-1.1 M41.05,52.15l4.1-2.4
	 M45.15,49.75l0.1-0.1l0.1-0.1l0.1-0.1v-0.2l0.1-0.1v-0.1v-0.1 M45.55,48.95V1.35 M45.55,1.35v-0.1l-0.1-0.1l-0.1-0.1h-0.1l-0.1,0.1
	 M45.15,1.15l-14,8.1 M31.15,9.25v-1.2 M31.15,8.05v-0.1l-0.1-0.1v-0.1h-0.1v-0.1h-0.1l-0.1,0.1h-0.1 M30.65,7.75l-13.9,8.1
	 M16.75,15.85h-0.1l-0.1,0.1l-0.1,0.1l-0.1,0.1l-0.1,0.1v0.2v0.1l-0.1,0.1 M16.15,16.65v1.2 M16.15,17.85l-13.9,8 M2.25,25.85
	l-0.1,0.1l-0.1,0.1l-0.1,0.1v0.1l-0.1,0.1v0.1l-0.1,0.1v0.1 M1.75,26.65v47.6 M1.75,74.25v0.1l0.1,0.1l0.1,0.1h0.1h0.1h0.1
	 M2.25,74.55l4.1-2.4 M6.35,72.15v1.1 M6.35,73.25v0.1v0.1l0.1,0.1v0.1h0.1h0.1h0.1l0.1-0.1 M6.85,73.55l1.9-1.1 M8.75,72.45h0.1
	l0.1-0.1l0.1-0.1v-0.1l0.1-0.2v-0.1l0.1-0.1v-0.1 M9.25,71.65v-1.2 M9.25,70.45l6-3.5 M15.25,66.95h0.1v-0.1l0.1-0.1v-0.1h0.1v-0.1
	 M15.55,64.25v2.3 M15.55,64.25v-0.1v-0.1v-0.1h0.1v-0.1h0.1v-0.1 M16.35,63.45l-0.6,0.3 M16.35,63.45L16.35,63.45l0.1-0.1l0.1-0.1
	v-0.1 M18.45,62.05l-0.2-0.3l-0.2-0.1l-0.2-0.1h-0.2l-0.1,0.1l-0.2,0.1l-0.2,0.2l-0.2,0.3l-0.1,0.3l-0.3,0.6 M18.45,62.05v0.1h0.1
	h0.1 M19.25,61.75l-0.6,0.4 M19.25,61.75h0.1h0.1v0.1h0.1v0.1 M19.55,64.25v-2.3 M19.55,64.25L19.55,64.25v0.1l0.1,0.1l0.1-0.1
	 M19.75,64.35l7.8-4.5 M27.55,59.85h0.1v-0.1h0.1v-0.1v-0.1l0.1-0.1 M27.85,57.15v2.3 M27.85,57.15v-0.1v-0.1v-0.1h0.1v-0.1h0.1
	v-0.1 M28.65,56.35l-0.6,0.3 M28.65,56.35L28.65,56.35l0.1-0.1l0.1-0.1v-0.1 M30.75,54.95l-0.2-0.3l-0.2-0.1l-0.2-0.1h-0.2l-0.1,0.1
	l-0.2,0.1l-0.2,0.2l-0.2,0.3l-0.1,0.3l-0.3,0.6 M30.75,54.95v0.1h0.1h0.1 M31.55,54.65l-0.6,0.4 M31.55,54.65h0.1h0.1l0.1,0.1v0.1
	 M36.85,54.45l1.4,0.8 M30.35,56.45l1.5,0.8 M29.85,54.45l0.9,0.6 M18.05,63.55l1.5,0.8 M17.55,61.65l0.9,0.5 M5.15,72.85l1.3,0.8
	 M45.45,1.15l-1.5-0.9 M0.35,73.65l1.6,0.9 M30.95,7.75l-1.5-0.9"/>
</svg>
