<?xml version="1.0" encoding="utf-8"?>
<!-- Generator: Adobe Illustrator 19.0.0, SVG Export Plug-In . SVG Version: 6.00 Build 0)  -->
<svg version="1.0" id="Layer_1" xmlns="http://www.w3.org/2000/svg" xmlns:xlink="http://www.w3.org/1999/xlink" x="0px" y="0px"
	 width="86.4px" height="98.2px" viewBox="0 0 86.4 98.2" enable-background="new 0 0 86.4 98.2" xml:space="preserve">
<path fill="none" stroke="#000000" stroke-width="0.25" stroke-linecap="round" stroke-linejoin="round" stroke-miterlimit="10" d="
	M62.85,63.15l0.7,0.4 M50.85,68.15l1.1,0.6 M52.05,66.55l-0.1-0.1 M50.35,66.25l0.6,0.4 M38.55,75.25l1.1,0.6 M39.75,73.65l-0.1-0.1
	 M38.05,73.35l0.6,0.4 M85.55,1.05l-1.1-0.7 M8.55,94.45l0.7,0.4 M58.35,14.95l-1.1-0.6 M28.15,31.15l1,0.6 M28.65,32.65l-1-0.6
	 M0.55,96.95l1,0.6 M0.95,48.55l1.1,0.7 M1.55,49.95l-1-0.6"/>
<path fill="none" stroke="#000000" stroke-width="0.5" stroke-linecap="round" stroke-linejoin="round" stroke-miterlimit="10" d="
	M78.65,35.95l1.5,0.8 M79.75,34.75l1,0.5 M76.05,39.15l1.5,0.9 M81.25,29.25l1.5,0.8 M77.15,37.95l1,0.6 M73.45,42.45l1.5,0.8
	 M82.35,27.95l1,0.6 M78.65,32.45l1.5,0.9 M74.55,41.15l1,0.6 M70.85,45.65l1.5,0.8 M79.75,31.25l1,0.6 M76.05,35.65l1.5,0.9
	 M71.95,44.45l1,0.6 M81.25,25.75l1.5,0.8 M77.15,34.45l1,0.6 M73.45,38.95l1.5,0.8 M82.35,24.55l1,0.6 M78.65,28.95l1.5,0.9
	 M74.55,37.75l1,0.5 M70.85,42.15l1.5,0.9 M79.75,27.75l1,0.6 M76.05,32.25l1.5,0.8 M71.95,40.95l1,0.6 M81.25,22.25l1.5,0.9
	 M77.15,31.05l1,0.5 M73.45,35.45l1.5,0.9 M65.65,48.65l1.5,0.9 M82.35,21.05l1,0.6 M78.65,25.55l1.5,0.8 M74.55,34.25l1,0.6
	 M70.85,38.75l1.5,0.8 M66.65,47.45l1.1,0.6 M79.75,24.25l1,0.6 M76.05,28.75l1.5,0.9 M71.95,37.45l1,0.6 M81.25,18.85l1.5,0.8
	 M77.15,27.55l1,0.6 M73.45,31.95l1.5,0.9 M65.65,45.15l1.5,0.9 M82.35,17.55l1,0.6 M78.65,22.05l1.5,0.8 M74.55,30.75l1,0.6
	 M70.85,35.25l1.5,0.8 M66.65,43.95l1.1,0.6 M63.05,48.45l1.5,0.8 M79.75,20.85l1,0.5 M50.65,68.15L50.65,68.15v-0.1v-0.1
	 M76.05,25.25l1.5,0.9 M71.95,34.05l1,0.5 M64.05,47.15l1,0.6 M77.15,24.05l1,0.6 M73.45,28.55l1.5,0.8 M65.65,41.75l1.5,0.8
	 M74.55,27.25l1,0.6 M50.65,67.95v-1.5 M70.85,31.75l1.5,0.9 M66.65,40.45l1.1,0.6 M63.05,44.95l1.5,0.8 M71.95,30.55l1,0.6
	 M64.05,43.75l1,0.6 M60.45,48.15l1.5,0.9 M65.65,38.25l1.5,0.8 M61.45,46.95l1,0.6 M78.65,15.05l1.5,0.9 M66.65,37.05l1.1,0.5
	 M63.05,41.45l1.5,0.9 M79.75,13.85l1,0.6 M76.05,18.35l1.5,0.8 M64.05,40.25l1,0.6 M60.45,44.75l1.5,0.8 M77.15,17.15l1,0.5
	 M73.45,21.55l1.5,0.9 M65.65,34.75l1.5,0.9 M61.45,43.45l1,0.6 M57.85,47.95l1.5,0.9 M74.55,20.35l1,0.6 M84.25,0.25h0.1h0.1h0.1
	 M70.85,24.85l1.5,0.8 M66.65,33.55l1.1,0.6 M63.05,38.05l1.5,0.8 M58.85,46.75l1,0.6 M76.05,14.85l1.5,0.9 M71.95,23.55l1,0.6
	 M68.25,28.05l1.5,0.9 M64.05,36.75l1,0.6 M60.45,41.25l1.5,0.8 M77.15,13.65l1,0.6 M73.45,18.15l1.5,0.8 M69.35,26.85l1,0.6
	 M61.45,40.05l1,0.5 M57.85,44.45l1.5,0.9 M74.55,16.85l1,0.6 M70.85,21.35l1.5,0.8 M63.05,34.55l1.5,0.8 M58.85,43.25l1,0.6
	 M71.95,20.15l1,0.5 M38.35,75.25L38.35,75.25v-0.1v-0.1 M68.25,24.55l1.5,0.9 M64.05,33.35l1,0.5 M60.45,37.75l1.5,0.9
	 M73.45,14.65l1.5,0.8 M69.35,23.35l1,0.6 M65.65,27.85l1.5,0.8 M61.45,36.55l1,0.6 M57.85,41.05l1.5,0.8 M74.55,13.45l1,0.5
	 M70.85,17.85l1.5,0.9 M66.65,26.55l1.1,0.6 M38.35,75.05v-1.5 M58.85,39.75l1,0.6 M55.25,44.25l1.5,0.8 M71.95,16.65l1,0.6
	 M68.25,21.15l1.5,0.8 M60.45,34.25l1.5,0.9 M56.25,43.05l1,0.6 M69.35,19.85l1,0.6 M65.65,24.35l1.5,0.8 M61.45,33.05l1,0.6
	 M57.85,37.55l1.5,0.8 M48.45,53.45l1.4,0.8 M70.85,14.35l1.5,0.9 M66.65,23.15l1.1,0.6 M63.05,27.55l1.5,0.9 M58.85,36.35l1,0.5
	 M55.25,40.75l1.5,0.9 M49.45,52.15l1,0.6 M71.95,13.15l1,0.6 M45.85,56.65l1.4,0.8 M68.25,17.65l1.5,0.8 M64.05,26.35l1,0.6
	 M56.25,39.55l1,0.6 M51.05,46.65l1.4,0.9 M46.85,55.45l1,0.5 M69.35,16.45l1,0.5 M43.15,59.85l1.5,0.9 M65.65,20.85l1.5,0.9
	 M57.85,34.05l1.5,0.9 M52.05,45.45l1,0.6 M48.45,49.95l1.4,0.8 M44.25,58.65l1,0.6 M66.65,19.65l1.1,0.6 M40.55,63.15l1.5,0.8
	 M63.05,24.15l1.5,0.8 M58.85,32.85l1,0.6 M55.25,37.35l1.5,0.8 M49.45,48.75l1,0.5 M45.85,53.15l1.4,0.9 M41.65,61.85l1,0.6
	 M64.05,22.85l1,0.6 M60.45,27.35l1.5,0.9 M56.25,36.05l1,0.6 M51.05,43.25l1.4,0.8 M46.85,51.95l1,0.6 M43.15,56.45l1.5,0.8
	 M65.65,17.45l1.5,0.8 M61.45,26.15l1,0.6 M52.05,41.95l1,0.6 M48.45,46.45l1.4,0.9 M44.25,55.15l1,0.6 M66.65,16.15l1.1,0.6
	 M40.55,59.65l1.5,0.8 M63.05,20.65l1.5,0.8 M55.25,33.85l1.5,0.8 M49.45,45.25l1,0.6 M45.85,49.65l1.4,0.9 M41.65,58.45l1,0.6
	 M64.05,19.45l1,0.6 M60.45,23.85l1.5,0.9 M56.25,32.65l1,0.5 M51.05,39.75l1.4,0.8 M46.85,48.45l1,0.6 M43.15,52.95l1.5,0.8
	 M61.45,22.65l1,0.6 M35.35,66.15l1.5,0.8 M57.85,27.15l1.5,0.8 M52.05,38.55l1,0.6 M48.45,42.95l1.4,0.9 M44.25,51.75l1,0.5
	 M40.55,56.15l1.5,0.9 M36.45,64.95l1,0.5 M58.85,25.95l1,0.5 M49.45,41.75l1,0.6 M45.85,46.25l1.4,0.8 M41.65,54.95l1,0.6
	 M51.05,36.25l1.4,0.9 M46.85,45.05l1,0.5 M43.15,49.45l1.5,0.9 M35.35,62.65l1.5,0.9 M52.05,35.05l1,0.6 M48.45,39.55l1.4,0.8
	 M44.25,48.25l1,0.6 M40.55,52.75l1.5,0.8 M36.45,61.45l1,0.6 M32.75,65.85l1.5,0.9 M49.45,38.25l1,0.6 M45.85,42.75l1.4,0.9
	 M41.65,51.45l1,0.6 M33.85,64.65l1,0.6 M46.85,41.55l1,0.6 M43.15,45.95l1.5,0.9 M35.35,59.15l1.5,0.9 M44.25,44.75l1,0.6
	 M40.55,49.25l1.5,0.8 M36.45,57.95l1,0.6 M32.75,62.45l1.5,0.8 M41.65,48.05l1,0.5 M33.85,61.15l1,0.6 M30.15,65.65l1.5,0.9
	 M35.35,55.75l1.5,0.8 M31.25,64.45l1,0.6 M84.25,0.25l-25.5,14.7 M48.45,32.55l1.4,0.9 M36.45,54.45l1,0.6 M32.75,58.95l1.5,0.8
	 M49.45,31.35l1,0.6 M45.85,35.85l1.4,0.8 M33.85,57.75l1,0.6 M57.05,14.25l0.1-0.1h0.1h0.1h0.1 M30.15,62.15l1.5,0.9 M46.85,34.55
	l1,0.6 M43.15,39.05l1.5,0.8 M35.35,52.25l1.5,0.8 M31.25,60.95l1,0.6 M27.55,65.45l1.5,0.8 M44.25,37.85l1,0.6 M40.55,42.25
	l1.5,0.9 M36.45,51.05l1,0.5 M32.75,55.45l1.5,0.9 M28.65,64.25l1,0.5 M45.85,32.35l1.4,0.8 M41.65,41.05l1,0.6 M37.95,45.55
	l1.5,0.8 M33.85,54.25l1,0.6 M30.15,58.75l1.5,0.8 M46.85,31.15l1,0.5 M43.15,35.55l1.5,0.9 M39.05,44.35l1,0.5 M31.25,57.45l1,0.6
	 M27.55,61.95l1.5,0.9 M44.25,34.35l1,0.6 M40.55,38.85l1.5,0.8 M32.75,52.05l1.5,0.8 M28.65,60.75l1,0.6 M41.65,37.55l1,0.6
	 M37.95,42.05l1.5,0.9 M33.85,50.75l1,0.6 M30.15,55.25l1.5,0.8 M43.15,32.15l1.5,0.8 M39.05,40.85l1,0.6 M35.35,45.25l1.5,0.9
	 M31.25,54.05l1,0.6 M27.55,58.45l1.5,0.9 M44.25,30.85l1,0.6 M40.55,35.35l1.5,0.8 M36.45,44.05l1,0.6 M28.65,57.25l1,0.6
	 M24.95,61.75l1.5,0.8 M41.65,34.15l1,0.5 M37.95,38.55l1.5,0.9 M30.15,51.75l1.5,0.9 M26.05,60.45l1,0.6 M39.05,37.35l1,0.6
	 M35.35,41.85l1.5,0.8 M31.25,50.55l1,0.6 M27.55,55.05l1.5,0.8 M40.55,31.85l1.5,0.9 M36.45,40.55l1,0.6 M32.75,45.05l1.5,0.9
	 M28.65,53.75l1,0.6 M24.95,58.25l1.5,0.8 M41.65,30.65l1,0.6 M37.95,35.15l1.5,0.8 M33.85,43.85l1,0.6 M26.05,57.05l1,0.6
	 M39.05,33.85l1,0.6 M35.35,38.35l1.5,0.8 M27.55,51.55l1.5,0.8 M0.45,97.05L0.45,97.05h-0.1v-0.1l-0.1-0.1 M36.45,37.15l1,0.6
	 M32.75,41.55l1.5,0.9 M28.65,50.35l1,0.5 M24.95,54.75l1.5,0.9 M33.85,40.35l1,0.6 M30.15,44.85l1.5,0.8 M26.05,53.55l1,0.6
	 M35.35,34.85l1.5,0.9 M31.25,43.65l1,0.5 M36.45,33.65l1,0.6 M32.75,38.15l1.5,0.8 M24.95,51.35l1.5,0.8 M33.85,36.85l1,0.6
	 M30.15,41.35l1.5,0.9 M26.05,50.05l1,0.6 M31.25,40.15l1,0.6 M27.55,44.55l1.5,0.9 M28.65,43.35l1,0.6 M57.05,14.25l-29.1,16.8
	 M27.45,31.95v1.1 M27.45,31.95v-0.2v-0.1v-0.1l0.1-0.1l0.1-0.1l0.1-0.2h0.1l0.1-0.1 M27.45,33.05l-26.7,15.4 M28.95,33.95l-1.5-0.9
	 M0.25,49.25v47.6 M0.25,49.25l0.1-0.1v-0.1v-0.1l0.1-0.2v-0.1l0.1-0.1h0.1l0.1-0.1 M64.55,33.05l-1.2,0.7 M65.05,33.85l-0.5-0.8
	 M64.55,35.35l0.5-1.5 M63.35,36.05l1.2-0.7 M62.75,35.25l0.6,0.8 M63.35,33.75l-0.6,1.5 M67.15,33.25l-1.2,0.7 M67.75,34.15
	l-0.6-0.9 M67.15,35.65l0.6-1.5 M65.95,36.25l1.2-0.6 M65.35,35.45l0.6,0.8 M65.95,33.95l-0.6,1.5 M72.35,33.75l-1.2,0.7
	 M72.95,34.55l-0.6-0.8 M72.35,36.05l0.6-1.5 M71.15,36.75l1.2-0.7 M70.55,35.95l0.6,0.8 M71.15,34.45l-0.6,1.5 M74.95,33.95
	l-1.2,0.7 M75.55,34.85l-0.6-0.9 M74.95,36.35l0.6-1.5 M73.75,36.95l1.2-0.6 M73.15,36.15l0.6,0.8 M73.75,34.65l-0.6,1.5
	 M77.55,34.25l-1.2,0.6 M78.15,35.05l-0.6-0.8 M77.55,36.55l0.6-1.5 M76.35,37.25l1.2-0.7 M75.85,36.35l0.5,0.9 M76.35,34.85
	l-0.5,1.5 M80.15,34.45l-1.2,0.7 M80.75,35.25l-0.6-0.8 M80.15,36.75l0.6-1.5 M78.95,37.45l1.2-0.7 M78.45,36.65l0.5,0.8
	 M78.95,35.15l-0.5,1.5 M56.75,35.85l-1.2,0.7 M57.25,36.65l-0.5-0.8 M56.75,38.15l0.5-1.5 M55.55,38.85l1.2-0.7 M54.95,37.95
	l0.6,0.9 M55.55,36.55l-0.6,1.4 M59.35,36.05l-1.2,0.7 M59.85,36.85l-0.5-0.8 M59.35,38.35l0.5-1.5 M58.15,39.05l1.2-0.7
	 M57.55,38.25l0.6,0.8 M58.15,36.75l-0.6,1.5 M77.55,30.75l-1.2,0.7 M78.15,31.55l-0.6-0.8 M77.55,33.05l0.6-1.5 M76.35,33.75
	l1.2-0.7 M75.85,32.95l0.5,0.8 M76.35,31.45l-0.5,1.5 M74.95,30.55l-1.2,0.6 M75.55,31.35l-0.6-0.8 M74.95,32.85l0.6-1.5
	 M73.75,33.55l1.2-0.7 M73.15,32.65l0.6,0.9 M73.75,31.15l-0.6,1.5 M72.35,30.25l-1.2,0.7 M72.95,31.15l-0.6-0.9 M72.35,32.65
	l0.6-1.5 M71.15,33.25l1.2-0.6 M70.55,32.45l0.6,0.8 M71.15,30.95l-0.6,1.5 M82.75,27.75l-1.2,0.7 M83.35,28.55l-0.6-0.8
	 M82.75,30.05l0.6-1.5 M81.55,30.75l1.2-0.7 M81.05,29.95l0.5,0.8 M81.55,28.45l-0.5,1.5 M61.95,32.85l-1.2,0.7 M62.45,33.65
	l-0.5-0.8 M61.95,35.15l0.5-1.5 M60.75,35.85l1.2-0.7 M60.15,34.95l0.6,0.9 M60.75,33.55l-0.6,1.4 M59.35,32.55l-1.2,0.7
	 M59.85,33.45l-0.5-0.9 M59.35,34.95l0.5-1.5 M58.15,35.55l1.2-0.6 M57.55,34.75l0.6,0.8 M58.15,33.25l-0.6,1.5 M56.75,32.35
	l-1.2,0.7 M57.25,33.15l-0.5-0.8 M56.75,34.65l0.5-1.5 M55.55,35.35l1.2-0.7 M54.95,34.55l0.6,0.8 M55.55,33.05l-0.6,1.5
	 M80.15,30.95l-1.2,0.7 M80.75,31.85l-0.6-0.9 M80.15,33.35l0.6-1.5 M78.95,33.95l1.2-0.6 M78.45,33.15l0.5,0.8 M78.95,31.65
	l-0.5,1.5 M61.95,39.75l-1.2,0.7 M62.45,40.55l-0.5-0.8 M61.95,42.05l0.5-1.5 M60.75,42.75l1.2-0.7 M60.15,41.95l0.6,0.8
	 M60.75,40.45l-0.6,1.5 M64.55,40.05l-1.2,0.6 M65.05,40.85l-0.5-0.8 M64.55,42.35l0.5-1.5 M63.35,42.95l1.2-0.6 M62.75,42.15
	l0.6,0.8 M63.35,40.65l-0.6,1.5 M67.15,40.25l-1.2,0.7 M67.75,41.05l-0.6-0.8 M67.15,42.55l0.6-1.5 M65.95,43.25l1.2-0.7
	 M65.35,42.45l0.6,0.8 M65.95,40.95l-0.6,1.5 M72.35,40.75l-1.2,0.6 M72.95,41.55l-0.6-0.8 M72.35,43.05l0.6-1.5 M71.15,43.65
	l1.2-0.6 M70.55,42.85l0.6,0.8 M71.15,41.35l-0.6,1.5 M61.95,43.25l-1.2,0.7 M62.45,44.05l-0.5-0.8 M61.95,45.55l0.5-1.5
	 M60.75,46.25l1.2-0.7 M60.15,45.45l0.6,0.8 M60.75,43.95l-0.6,1.5 M59.35,43.05l-1.2,0.6 M59.85,43.85l-0.5-0.8 M59.35,45.35
	l0.5-1.5 M58.15,45.95l1.2-0.6 M57.55,45.15l0.6,0.8 M58.15,43.65l-0.6,1.5 M56.75,42.75l-1.2,0.7 M57.25,43.65l-0.5-0.9
	 M56.75,45.05l0.5-1.4 M55.55,45.75l1.2-0.7 M54.95,44.95l0.6,0.8 M55.55,43.45l-0.6,1.5 M74.95,40.95l-1.2,0.7 M75.55,41.75
	l-0.6-0.8 M74.95,43.25l0.6-1.5 M73.75,43.95l1.2-0.7 M73.15,43.05l0.6,0.9 M73.75,41.65l-0.6,1.4 M61.95,36.35l-1.2,0.6
	 M62.45,37.15l-0.5-0.8 M61.95,38.65l0.5-1.5 M60.75,39.25l1.2-0.6 M60.15,38.45l0.6,0.8 M60.75,36.95l-0.6,1.5 M64.55,36.55
	l-1.2,0.7 M65.05,37.35l-0.5-0.8 M64.55,38.85l0.5-1.5 M63.35,39.55l1.2-0.7 M62.75,38.65l0.6,0.9 M63.35,37.25l-0.6,1.4
	 M67.15,36.75l-1.2,0.7 M67.75,37.55l-0.6-0.8 M67.15,39.05l0.6-1.5 M65.95,39.75l1.2-0.7 M65.35,38.95l0.6,0.8 M65.95,37.45
	l-0.6,1.5 M72.35,37.25l-1.2,0.7 M72.95,38.05l-0.6-0.8 M72.35,39.55l0.6-1.5 M71.15,40.25l1.2-0.7 M70.55,39.35l0.6,0.9
	 M71.15,37.95l-0.6,1.4 M74.95,37.45l-1.2,0.7 M75.55,38.25l-0.6-0.8 M74.95,39.75l0.6-1.5 M73.75,40.45l1.2-0.7 M73.15,39.65
	l0.6,0.8 M73.75,38.15l-0.6,1.5 M77.55,37.75l-1.2,0.6 M78.15,38.55l-0.6-0.8 M77.55,40.05l0.6-1.5 M76.35,40.65l1.2-0.6
	 M75.85,39.85l0.5,0.8 M76.35,38.35l-0.5,1.5 M56.75,39.35l-1.2,0.6 M57.25,40.15l-0.5-0.8 M56.75,41.65l0.5-1.5 M55.55,42.25
	l1.2-0.6 M54.95,41.45l0.6,0.8 M55.55,39.95l-0.6,1.5 M59.35,39.55l-1.2,0.7 M59.85,40.35l-0.5-0.8 M59.35,41.85l0.5-1.5
	 M58.15,42.55l1.2-0.7 M57.55,41.75l0.6,0.8 M58.15,40.25l-0.6,1.5 M69.75,19.65l-1.2,0.7 M70.35,20.45l-0.6-0.8 M69.75,21.95
	l0.6-1.5 M68.55,22.65l1.2-0.7 M67.95,21.85l0.6,0.8 M68.55,20.35l-0.6,1.5 M67.15,19.45l-1.2,0.6 M67.75,20.25l-0.6-0.8
	 M67.15,21.75l0.6-1.5 M65.95,22.35l1.2-0.6 M65.35,21.55l0.6,0.8 M65.95,20.05l-0.6,1.5 M64.55,19.15l-1.2,0.7 M65.05,20.05
	l-0.5-0.9 M64.55,21.45l0.5-1.4 M63.35,22.15l1.2-0.7 M62.75,21.35l0.6,0.8 M63.35,19.85l-0.6,1.5 M82.75,17.35l-1.2,0.7
	 M83.35,18.15l-0.6-0.8 M82.75,19.65l0.6-1.5 M81.55,20.35l1.2-0.7 M81.05,19.45l0.5,0.9 M81.55,18.05l-0.5,1.4 M72.35,19.85
	l-1.2,0.7 M72.95,20.65l-0.6-0.8 M72.35,22.15l0.6-1.5 M71.15,22.85l1.2-0.7 M70.55,22.05l0.6,0.8 M71.15,20.55l-0.6,1.5
	 M74.95,20.15l-1.2,0.6 M75.55,20.95l-0.6-0.8 M74.95,22.45l0.6-1.5 M73.75,23.05l1.2-0.6 M73.15,22.25l0.6,0.8 M73.75,20.75
	l-0.6,1.5 M80.15,20.55l-1.2,0.7 M80.75,21.35l-0.6-0.8 M80.15,22.85l0.6-1.5 M78.95,23.55l1.2-0.7 M78.45,22.75l0.5,0.8
	 M78.95,21.25l-0.5,1.5 M82.75,20.85l-1.2,0.6 M83.35,21.65l-0.6-0.8 M82.75,23.15l0.6-1.5 M81.55,23.75l1.2-0.6 M81.05,22.95
	l0.5,0.8 M81.55,21.45l-0.5,1.5 M67.15,15.95l-1.2,0.7 M67.75,16.75l-0.6-0.8 M67.15,18.25l0.6-1.5 M65.95,18.95l1.2-0.7
	 M65.35,18.05l0.6,0.9 M65.95,16.65l-0.6,1.4 M80.15,13.65l-1.2,0.6 M80.75,14.45l-0.6-0.8 M80.15,15.95l0.6-1.5 M78.95,16.65
	l1.2-0.7 M78.45,15.75l0.5,0.9 M78.95,14.25l-0.5,1.5 M77.55,13.35l-1.2,0.7 M78.15,14.25l-0.6-0.9 M77.55,15.75l0.6-1.5
	 M76.35,16.35l1.2-0.6 M75.85,15.55l0.5,0.8 M76.35,14.05l-0.5,1.5 M74.95,13.15l-1.2,0.7 M75.55,13.95l-0.6-0.8 M74.95,15.45
	l0.6-1.5 M73.75,16.15l1.2-0.7 M73.15,15.35l0.6,0.8 M73.75,13.85l-0.6,1.5 M69.75,16.15l-1.2,0.7 M70.35,16.95l-0.6-0.8
	 M69.75,18.45l0.6-1.5 M68.55,19.15l1.2-0.7 M67.95,18.35l0.6,0.8 M68.55,16.85l-0.6,1.5 M72.35,16.45l-1.2,0.6 M72.95,17.25
	l-0.6-0.8 M72.35,18.75l0.6-1.5 M71.15,19.35l1.2-0.6 M70.55,18.55l0.6,0.8 M71.15,17.05l-0.6,1.5 M74.95,16.65l-1.2,0.7
	 M75.55,17.45l-0.6-0.8 M74.95,18.95l0.6-1.5 M73.75,19.65l1.2-0.7 M73.15,18.75l0.6,0.9 M73.75,17.35l-0.6,1.4 M77.55,16.85
	l-1.2,0.7 M78.15,17.65l-0.6-0.8 M77.55,19.15l0.6-1.5 M76.35,19.85l1.2-0.7 M75.85,19.05l0.5,0.8 M76.35,17.55l-0.5,1.5
	 M80.15,27.55l-1.2,0.6 M80.75,28.35l-0.6-0.8 M80.15,29.85l0.6-1.5 M78.95,30.55l1.2-0.7 M78.45,29.65l0.5,0.9 M78.95,28.15
	l-0.5,1.5 M77.55,27.25l-1.2,0.7 M78.15,28.15l-0.6-0.9 M77.55,29.65l0.6-1.5 M76.35,30.25l1.2-0.6 M75.85,29.45l0.5,0.8
	 M76.35,27.95l-0.5,1.5 M74.95,27.05l-1.2,0.7 M75.55,27.85l-0.6-0.8 M74.95,29.35l0.6-1.5 M73.75,30.05l1.2-0.7 M73.15,29.25
	l0.6,0.8 M73.75,27.75l-0.6,1.5 M69.75,26.55l-1.2,0.7 M70.35,27.45l-0.6-0.9 M69.75,28.95l0.6-1.5 M68.55,29.55l1.2-0.6
	 M67.95,28.75l0.6,0.8 M68.55,27.25l-0.6,1.5 M67.15,26.35l-1.2,0.7 M67.75,27.15l-0.6-0.8 M67.15,28.65l0.6-1.5 M65.95,29.35
	l1.2-0.7 M65.35,28.55l0.6,0.8 M65.95,27.05l-0.6,1.5 M64.55,26.15l-1.2,0.6 M65.05,26.95l-0.5-0.8 M64.55,28.45l0.5-1.5
	 M63.35,29.15l1.2-0.7 M62.75,28.25l0.6,0.9 M63.35,26.75l-0.6,1.5 M61.95,25.85l-1.2,0.7 M62.45,26.75l-0.5-0.9 M61.95,28.25
	l0.5-1.5 M60.75,28.85l1.2-0.6 M60.15,28.05l0.6,0.8 M60.75,26.55l-0.6,1.5 M59.35,25.65l-1.2,0.7 M59.85,26.45l-0.5-0.8
	 M59.35,27.95l0.5-1.5 M58.15,28.65l1.2-0.7 M57.55,27.85l0.6,0.8 M58.15,26.35l-0.6,1.5 M82.75,24.25l-1.2,0.7 M83.35,25.15
	l-0.6-0.9 M82.75,26.55l0.6-1.4 M81.55,27.25l1.2-0.7 M81.05,26.45l0.5,0.8 M81.55,24.95l-0.5,1.5 M80.15,24.05l-1.2,0.7
	 M80.75,24.85l-0.6-0.8 M80.15,26.35l0.6-1.5 M78.95,27.05l1.2-0.7 M78.45,26.25l0.5,0.8 M78.95,24.75l-0.5,1.5 M77.55,23.85
	l-1.2,0.6 M78.15,24.65l-0.6-0.8 M77.55,26.15l0.6-1.5 M76.35,26.75l1.2-0.6 M75.85,25.95l0.5,0.8 M76.35,24.45l-0.5,1.5
	 M72.35,23.35l-1.2,0.7 M72.95,24.15l-0.6-0.8 M72.35,25.65l0.6-1.5 M71.15,26.35l1.2-0.7 M70.55,25.55l0.6,0.8 M71.15,24.05
	l-0.6,1.5 M69.75,23.15l-1.2,0.6 M70.35,23.95l-0.6-0.8 M69.75,25.45l0.6-1.5 M68.55,26.05l1.2-0.6 M67.95,25.25l0.6,0.8
	 M68.55,23.75l-0.6,1.5 M67.15,22.85l-1.2,0.7 M67.75,23.75l-0.6-0.9 M67.15,25.15l0.6-1.4 M65.95,25.85l1.2-0.7 M65.35,25.05
	l0.6,0.8 M65.95,23.55l-0.6,1.5 M64.55,22.65l-1.2,0.7 M65.05,23.45l-0.5-0.8 M64.55,24.95l0.5-1.5 M63.35,25.65l1.2-0.7
	 M62.75,24.85l0.6,0.8 M63.35,23.35l-0.6,1.5 M61.95,22.45l-1.2,0.6 M62.45,23.25l-0.5-0.8 M61.95,24.75l0.5-1.5 M60.75,25.35
	l1.2-0.6 M60.15,24.55l0.6,0.8 M60.75,23.05l-0.6,1.5 M67.15,47.15l-1.2,0.7 M67.75,48.05l-0.6-0.9 M67.15,49.55l0.6-1.5
	 M65.95,50.15l1.2-0.6 M65.35,49.35l0.6,0.8 M65.95,47.85l-0.6,1.5 M64.55,46.95l-1.2,0.7 M65.05,47.75l-0.5-0.8 M64.55,49.25
	l0.5-1.5 M63.35,49.95l1.2-0.7 M62.75,49.15l0.6,0.8 M63.35,47.65l-0.6,1.5 M61.95,46.75l-1.2,0.6 M62.45,47.55l-0.5-0.8
	 M61.95,49.05l0.5-1.5 M60.75,49.75l1.2-0.7 M60.15,48.85l0.6,0.9 M60.75,47.35l-0.6,1.5 M64.55,43.45l-1.2,0.7 M65.05,44.35
	l-0.5-0.9 M64.55,45.75l0.5-1.4 M63.35,46.45l1.2-0.7 M62.75,45.65l0.6,0.8 M63.35,44.15l-0.6,1.5 M67.15,43.75l-1.2,0.6
	 M67.75,44.55l-0.6-0.8 M67.15,46.05l0.6-1.5 M65.95,46.65l1.2-0.6 M65.35,45.85l0.6,0.8 M65.95,44.35l-0.6,1.5 M72.35,44.15
	l-1.2,0.7 M72.95,45.05l-0.6-0.9 M72.35,46.45l0.6-1.4 M71.15,47.15l1.2-0.7 M70.55,46.35l0.6,0.8 M71.15,44.85l-0.6,1.5
	 M59.35,46.45l-1.2,0.7 M59.85,47.35l-0.5-0.9 M59.35,48.85l0.5-1.5 M58.15,49.45l1.2-0.6 M57.55,48.65l0.6,0.8 M58.15,47.15
	l-0.6,1.5 M72.35,12.95l-1.2,0.7 M72.95,13.75l-0.6-0.8 M72.35,15.25l0.6-1.5 M71.15,15.95l1.2-0.7 M70.55,15.05l0.6,0.9
	 M71.15,13.65l-0.6,1.4 M34.85,51.35l-0.6-0.8 M34.25,52.85l0.6-1.5 M33.05,53.55l1.2-0.7 M32.55,52.65l0.5,0.9 M33.05,51.25
	l-0.5,1.4 M34.25,50.55l-1.2,0.7 M37.45,51.55l-0.6-0.8 M36.85,53.05l0.6-1.5 M35.65,53.75l1.2-0.7 M35.15,52.95l0.5,0.8
	 M35.65,51.45l-0.5,1.5 M36.85,50.75l-1.2,0.7 M42.65,52.05l-0.6-0.8 M42.05,53.55l0.6-1.5 M40.95,54.25l1.1-0.7 M40.35,53.35
	l0.6,0.9 M40.95,51.95l-0.6,1.4 M42.05,51.25l-1.1,0.7 M45.25,52.25l-0.6-0.8 M44.65,53.75l0.6-1.5 M43.55,54.45l1.1-0.7
	 M42.95,53.65l0.6,0.8 M43.55,52.15l-0.6,1.5 M44.65,51.45l-1.1,0.7 M47.85,52.55l-0.6-0.8 M47.25,54.05l0.6-1.5 M46.15,54.65
	l1.1-0.6 M45.55,53.85l0.6,0.8 M46.15,52.35l-0.6,1.5 M47.25,51.75l-1.1,0.6 M50.45,52.75l-0.6-0.8 M49.85,54.25l0.6-1.5
	 M48.75,54.95l1.1-0.7 M48.15,54.05l0.6,0.9 M48.75,52.65l-0.6,1.4 M49.85,51.95l-1.1,0.7 M27.05,54.15l-0.6-0.8 M26.45,55.65
	l0.6-1.5 M25.25,56.25l1.2-0.6 M24.75,55.45l0.5,0.8 M25.25,53.95l-0.5,1.5 M26.45,53.35l-1.2,0.6 M29.65,54.35l-0.6-0.8
	 M29.05,55.85l0.6-1.5 M27.85,56.55l1.2-0.7 M27.35,55.75l0.5,0.8 M27.85,54.25l-0.5,1.5 M29.05,53.55l-1.2,0.7 M47.85,49.05
	l-0.6-0.8 M47.25,50.55l0.6-1.5 M46.15,51.25l1.1-0.7 M45.55,50.35l0.6,0.9 M46.15,48.85l-0.6,1.5 M47.25,48.25l-1.1,0.6
	 M45.25,48.85l-0.6-0.9 M44.65,50.35l0.6-1.5 M43.55,50.95l1.1-0.6 M42.95,50.15l0.6,0.8 M43.55,48.65l-0.6,1.5 M44.65,47.95
	l-1.1,0.7 M42.65,48.55l-0.6-0.8 M42.05,50.05l0.6-1.5 M40.95,50.75l1.1-0.7 M40.35,49.95l0.6,0.8 M40.95,48.45l-0.6,1.5
	 M42.05,47.75l-1.1,0.7 M53.05,46.05l-0.6-0.8 M52.45,47.55l0.6-1.5 M51.35,48.25l1.1-0.7 M50.75,47.35l0.6,0.9 M51.35,45.85
	l-0.6,1.5 M52.45,45.25l-1.1,0.6 M32.25,51.15l-0.6-0.8 M31.65,52.65l0.6-1.5 M30.45,53.25l1.2-0.6 M29.95,52.45l0.5,0.8
	 M30.45,50.95l-0.5,1.5 M31.65,50.35l-1.2,0.6 M29.65,50.85l-0.6-0.8 M29.05,52.35l0.6-1.5 M27.85,53.05l1.2-0.7 M27.35,52.25
	l0.5,0.8 M27.85,50.75l-0.5,1.5 M29.05,50.05l-1.2,0.7 M27.05,50.65l-0.6-0.8 M26.45,52.15l0.6-1.5 M25.25,52.85l1.2-0.7
	 M24.75,51.95l0.5,0.9 M25.25,50.55l-0.5,1.4 M26.45,49.85l-1.2,0.7 M50.45,49.25l-0.6-0.8 M49.85,50.75l0.6-1.5 M48.75,51.45
	l1.1-0.7 M48.15,50.65l0.6,0.8 M48.75,49.15l-0.6,1.5 M49.85,48.45l-1.1,0.7 M32.25,58.05l-0.6-0.8 M31.65,59.55l0.6-1.5
	 M30.45,60.25l1.2-0.7 M29.95,59.45l0.5,0.8 M30.45,57.95l-0.5,1.5 M31.65,57.25l-1.2,0.7 M34.85,58.35l-0.6-0.9 M34.25,59.75
	l0.6-1.4 M33.05,60.45l1.2-0.7 M32.55,59.65l0.5,0.8 M33.05,58.15l-0.5,1.5 M34.25,57.45l-1.2,0.7 M37.45,58.55l-0.6-0.8
	 M36.85,60.05l0.6-1.5 M35.65,60.65l1.2-0.6 M35.15,59.85l0.5,0.8 M35.65,58.35l-0.5,1.5 M36.85,57.75l-1.2,0.6 M42.65,59.05
	l-0.6-0.9 M42.05,60.45l0.6-1.4 M40.95,61.15l1.1-0.7 M40.35,60.35l0.6,0.8 M40.95,58.85l-0.6,1.5 M42.05,58.15l-1.1,0.7
	 M32.25,61.55l-0.6-0.8 M31.65,63.05l0.6-1.5 M30.45,63.75l1.2-0.7 M29.95,62.85l0.5,0.9 M30.45,61.35l-0.5,1.5 M31.65,60.75
	l-1.2,0.6 M29.65,61.35l-0.6-0.9 M29.05,62.85l0.6-1.5 M27.85,63.45l1.2-0.6 M27.35,62.65l0.5,0.8 M27.85,61.15l-0.5,1.5
	 M29.05,60.45l-1.2,0.7 M27.05,61.05l-0.6-0.8 M26.45,62.55l0.6-1.5 M25.25,63.25l1.2-0.7 M24.75,62.45l0.5,0.8 M25.25,60.95
	l-0.5,1.5 M26.45,60.25l-1.2,0.7 M45.25,59.25l-0.6-0.8 M44.65,60.75l0.6-1.5 M43.55,61.35l1.1-0.6 M42.95,60.55l0.6,0.8
	 M43.55,59.05l-0.6,1.5 M44.65,58.45l-1.1,0.6 M32.25,54.65l-0.6-0.9 M31.65,56.05l0.6-1.4 M30.45,56.75l1.2-0.7 M29.95,55.95
	l0.5,0.8 M30.45,54.45l-0.5,1.5 M31.65,53.75l-1.2,0.7 M34.85,54.85l-0.6-0.8 M34.25,56.35l0.6-1.5 M33.05,56.95l1.2-0.6
	 M32.55,56.15l0.5,0.8 M33.05,54.65l-0.5,1.5 M34.25,54.05l-1.2,0.6 M37.45,55.05l-0.6-0.8 M36.85,56.55l0.6-1.5 M35.65,57.25
	l1.2-0.7 M35.15,56.45l0.5,0.8 M35.65,54.95l-0.5,1.5 M36.85,54.25l-1.2,0.7 M42.65,55.55l-0.6-0.8 M42.05,57.05l0.6-1.5
	 M40.95,57.65l1.1-0.6 M40.35,56.85l0.6,0.8 M40.95,55.35l-0.6,1.5 M42.05,54.75l-1.1,0.6 M45.25,55.75l-0.6-0.8 M44.65,57.25
	l0.6-1.5 M43.55,57.95l1.1-0.7 M42.95,57.15l0.6,0.8 M43.55,55.65l-0.6,1.5 M44.65,54.95l-1.1,0.7 M47.85,55.95l-0.6-0.8
	 M47.25,57.45l0.6-1.5 M46.15,58.15l1.1-0.7 M45.55,57.35l0.6,0.8 M46.15,55.85l-0.6,1.5 M47.25,55.15l-1.1,0.7 M27.05,57.65
	l-0.6-0.9 M26.45,59.05l0.6-1.4 M25.25,59.75l1.2-0.7 M24.75,58.95l0.5,0.8 M25.25,57.45l-0.5,1.5 M26.45,56.75l-1.2,0.7
	 M29.65,57.85l-0.6-0.8 M29.05,59.35l0.6-1.5 M27.85,59.95l1.2-0.6 M27.35,59.15l0.5,0.8 M27.85,57.65l-0.5,1.5 M29.05,57.05
	l-1.2,0.6 M40.05,37.95l-0.6-0.8 M39.45,39.45l0.6-1.5 M38.35,40.05l1.1-0.6 M37.75,39.25l0.6,0.8 M38.35,37.75l-0.6,1.5
	 M39.45,37.15l-1.1,0.6 M37.45,37.75l-0.6-0.9 M36.85,39.15l0.6-1.4 M35.65,39.85l1.2-0.7 M35.15,39.05l0.5,0.8 M35.65,37.55
	l-0.5,1.5 M36.85,36.85l-1.2,0.7 M34.85,37.45l-0.6-0.8 M34.25,38.95l0.6-1.5 M33.05,39.65l1.2-0.7 M32.55,38.85l0.5,0.8
	 M33.05,37.35l-0.5,1.5 M34.25,36.65l-1.2,0.7 M53.05,35.65l-0.6-0.8 M52.45,37.15l0.6-1.5 M51.35,37.75l1.1-0.6 M50.75,36.95
	l0.6,0.8 M51.35,35.45l-0.6,1.5 M52.45,34.85l-1.1,0.6 M42.65,38.15l-0.6-0.8 M42.05,39.65l0.6-1.5 M40.95,40.35l1.1-0.7
	 M40.35,39.55l0.6,0.8 M40.95,38.05l-0.6,1.5 M42.05,37.35l-1.1,0.7 M45.25,38.45l-0.6-0.9 M44.65,39.85l0.6-1.4 M43.55,40.55
	l1.1-0.7 M42.95,39.75l0.6,0.8 M43.55,38.25l-0.6,1.5 M44.65,37.55l-1.1,0.7 M50.45,38.85l-0.6-0.8 M49.85,40.35l0.6-1.5
	 M48.75,41.05l1.1-0.7 M48.15,40.25l0.6,0.8 M48.75,38.75l-0.6,1.5 M49.85,38.05l-1.1,0.7 M53.05,39.15l-0.6-0.9 M52.45,40.55
	l0.6-1.4 M51.35,41.25l1.1-0.7 M50.75,40.45l0.6,0.8 M51.35,38.95l-0.6,1.5 M52.45,38.25l-1.1,0.7 M37.45,34.25l-0.6-0.8
	 M36.85,35.75l0.6-1.5 M35.65,36.35l1.2-0.6 M35.15,35.55l0.5,0.8 M35.65,34.05l-0.5,1.5 M36.85,33.45l-1.2,0.6 M50.45,31.95
	l-0.6-0.8 M49.85,33.45l0.6-1.5 M48.75,34.05l1.1-0.6 M48.15,33.25l0.6,0.8 M48.75,31.75l-0.6,1.5 M49.85,31.15l-1.1,0.6
	 M47.85,31.65l-0.6-0.8 M47.25,33.15l0.6-1.5 M46.15,33.85l1.1-0.7 M45.55,33.05l0.6,0.8 M46.15,31.55l-0.6,1.5 M47.25,30.85
	l-1.1,0.7 M45.25,31.45l-0.6-0.8 M44.65,32.95l0.6-1.5 M43.55,33.65l1.1-0.7 M42.95,32.75l0.6,0.9 M43.55,31.35l-0.6,1.4
	 M44.65,30.65l-1.1,0.7 M40.05,34.45l-0.6-0.8 M39.45,35.95l0.6-1.5 M38.35,36.65l1.1-0.7 M37.75,35.85l0.6,0.8 M38.35,34.35
	l-0.6,1.5 M39.45,33.65l-1.1,0.7 M42.65,34.65l-0.6-0.8 M42.05,36.15l0.6-1.5 M40.95,36.85l1.1-0.7 M40.35,36.05l0.6,0.8
	 M40.95,34.55l-0.6,1.5 M42.05,33.85l-1.1,0.7 M45.25,34.95l-0.6-0.8 M44.65,36.45l0.6-1.5 M43.55,37.05l1.1-0.6 M42.95,36.25
	l0.6,0.8 M43.55,34.75l-0.6,1.5 M44.65,34.15l-1.1,0.6 M47.85,35.15l-0.6-0.8 M47.25,36.65l0.6-1.5 M46.15,37.35l1.1-0.7
	 M45.55,36.55l0.6,0.8 M46.15,35.05l-0.6,1.5 M47.25,34.35l-1.1,0.7 M50.45,45.85l-0.6-0.9 M49.85,47.35l0.6-1.5 M48.75,47.95
	l1.1-0.6 M48.15,47.15l0.6,0.8 M48.75,45.65l-0.6,1.5 M49.85,44.95l-1.1,0.7 M47.85,45.55l-0.6-0.8 M47.25,47.05l0.6-1.5
	 M46.15,47.75l1.1-0.7 M45.55,46.95l0.6,0.8 M46.15,45.45l-0.6,1.5 M47.25,44.75l-1.1,0.7 M45.25,45.35l-0.6-0.8 M44.65,46.85
	l0.6-1.5 M43.55,47.55l1.1-0.7 M42.95,46.65l0.6,0.9 M43.55,45.15l-0.6,1.5 M44.65,44.55l-1.1,0.6 M40.05,44.85l-0.6-0.8
	 M39.45,46.35l0.6-1.5 M38.35,47.05l1.1-0.7 M37.75,46.25l0.6,0.8 M38.35,44.75l-0.6,1.5 M39.45,44.05l-1.1,0.7 M37.45,44.65
	l-0.6-0.8 M36.85,46.15l0.6-1.5 M35.65,46.85l1.2-0.7 M35.15,45.95l0.5,0.9 M35.65,44.45l-0.5,1.5 M36.85,43.85l-1.2,0.6
	 M34.85,44.45l-0.6-0.9 M34.25,45.95l0.6-1.5 M33.05,46.55l1.2-0.6 M32.55,45.75l0.5,0.8 M33.05,44.25l-0.5,1.5 M34.25,43.55
	l-1.2,0.7 M32.25,44.15l-0.6-0.8 M31.65,45.65l0.6-1.5 M30.45,46.35l1.2-0.7 M29.95,45.55l0.5,0.8 M30.45,44.05l-0.5,1.5
	 M31.65,43.35l-1.2,0.7 M29.65,43.95l-0.6-0.8 M29.05,45.45l0.6-1.5 M27.85,46.15l1.2-0.7 M27.35,45.25l0.5,0.9 M27.85,43.75
	l-0.5,1.5 M29.05,43.15l-1.2,0.6 M53.05,42.55l-0.6-0.8 M52.45,44.05l0.6-1.5 M51.35,44.75l1.1-0.7 M50.75,43.95l0.6,0.8
	 M51.35,42.45l-0.6,1.5 M52.45,41.75l-1.1,0.7 M50.45,42.35l-0.6-0.8 M49.85,43.85l0.6-1.5 M48.75,44.55l1.1-0.7 M48.15,43.65
	l0.6,0.9 M48.75,42.15l-0.6,1.5 M49.85,41.55l-1.1,0.6 M47.85,42.15l-0.6-0.9 M47.25,43.65l0.6-1.5 M46.15,44.25l1.1-0.6
	 M45.55,43.45l0.6,0.8 M46.15,41.95l-0.6,1.5 M47.25,41.25l-1.1,0.7 M42.65,41.65l-0.6-0.8 M42.05,43.15l0.6-1.5 M40.95,43.85
	l1.1-0.7 M40.35,42.95l0.6,0.9 M40.95,41.45l-0.6,1.5 M42.05,40.85l-1.1,0.6 M40.05,41.45l-0.6-0.9 M39.45,42.95l0.6-1.5
	 M38.35,43.55l1.1-0.6 M37.75,42.75l0.6,0.8 M38.35,41.25l-0.6,1.5 M39.45,40.55l-1.1,0.7 M37.45,41.15l-0.6-0.8 M36.85,42.65
	l0.6-1.5 M35.65,43.35l1.2-0.7 M35.15,42.55l0.5,0.8 M35.65,41.05l-0.5,1.5 M36.85,40.35l-1.2,0.7 M34.85,40.95l-0.6-0.8
	 M34.25,42.45l0.6-1.5 M33.05,43.15l1.2-0.7 M32.55,42.25l0.5,0.9 M33.05,40.75l-0.5,1.5 M34.25,40.15l-1.2,0.6 M32.25,40.75
	l-0.6-0.9 M31.65,42.25l0.6-1.5 M30.45,42.85l1.2-0.6 M29.95,42.05l0.5,0.8 M30.45,40.55l-0.5,1.5 M31.65,39.85l-1.2,0.7
	 M37.45,65.45l-0.6-0.8 M36.85,66.95l0.6-1.5 M35.65,67.65l1.2-0.7 M35.15,66.85l0.5,0.8 M35.65,65.35l-0.5,1.5 M36.85,64.65
	l-1.2,0.7 M34.85,65.25l-0.6-0.8 M34.25,66.75l0.6-1.5 M33.05,67.45l1.2-0.7 M32.55,66.55l0.5,0.9 M33.05,65.05l-0.5,1.5
	 M34.25,64.45l-1.2,0.6 M32.25,65.05l-0.6-0.9 M31.65,66.55l0.6-1.5 M30.45,67.15l1.2-0.6 M29.95,66.35l0.5,0.8 M30.45,64.85
	l-0.5,1.5 M31.65,64.15l-1.2,0.7 M34.85,61.75l-0.6-0.8 M34.25,63.25l0.6-1.5 M33.05,63.95l1.2-0.7 M32.55,63.15l0.5,0.8
	 M33.05,61.65l-0.5,1.5 M34.25,60.95l-1.2,0.7 M37.45,62.05l-0.6-0.9 M36.85,63.55l0.6-1.5 M35.65,64.15l1.2-0.6 M35.15,63.35
	l0.5,0.8 M35.65,61.85l-0.5,1.5 M36.85,61.15l-1.2,0.7 M42.65,62.45l-0.6-0.8 M42.05,63.95l0.6-1.5 M40.95,64.65l1.1-0.7
	 M40.35,63.85l0.6,0.8 M40.95,62.35l-0.6,1.5 M42.05,61.65l-1.1,0.7 M29.65,64.75l-0.6-0.8 M29.05,66.25l0.6-1.5 M27.85,66.95
	l1.2-0.7 M27.35,66.15l0.5,0.8 M27.85,64.65l-0.5,1.5 M29.05,63.95l-1.2,0.7 M42.65,31.25l-0.6-0.8 M42.05,32.75l0.6-1.5
	 M40.95,33.35l1.1-0.6 M40.35,32.55l0.6,0.8 M40.95,31.05l-0.6,1.5 M42.05,30.45l-1.1,0.6 M52.15,68.85v-2.3 M52.15,68.85v0.1v0.1
	h0.1h0.1v-0.1 M52.35,68.95l11.3-6.5 M63.65,62.45v1.2 M63.65,63.65v0.1l0.1,0.1l0.1,0.1h0.1h0.1h0.1 M64.15,63.95l14-8.1
	 M78.15,55.85h0.1l0.1-0.1v-0.1l0.1-0.2l0.1-0.1v-0.1l0.1-0.1v-0.1 M78.65,55.05v-1.2 M78.65,53.85l7.1-4.1 M85.75,49.75l0.1-0.1
	l0.1-0.1l0.1-0.1l0.1-0.2v-0.1v-0.1v-0.1 M86.15,48.95V1.35 M86.15,1.35v-0.1v-0.1h-0.1l-0.1-0.1h-0.1l-0.1,0.1 M85.75,1.15
	l-26.7,15.4 M59.05,16.55v-1.2 M59.05,15.35v-0.1v-0.1l-0.1-0.1h-0.1h-0.1h-0.1h-0.1 M58.55,15.05l-29.1,16.9 M29.45,31.95h-0.1
	l-0.1,0.1l-0.1,0.1l-0.1,0.1l-0.1,0.2v0.1v0.1v0.1 M28.95,32.75v1.2 M28.95,33.95l-26.7,15.4 M2.25,49.35h-0.1l-0.1,0.1v0.1
	l-0.1,0.1l-0.1,0.1v0.1v0.2v0.1 M1.85,50.15v47.5 M1.85,97.65v0.1v0.1v0.1h0.1h0.1h0.1h0.1 M2.25,97.95l7.1-4.1 M9.35,93.85v1.1
	 M9.35,94.95v0.1l0.1,0.1v0.1l0.1,0.1h0.1h0.1l0.1-0.1 M9.85,95.25l13.9-8 M23.75,87.25l0.1-0.1l0.1-0.1l0.1-0.1l0.1-0.1l0.1-0.1
	v-0.1v-0.2v-0.1 M24.25,86.35v-1.1 M24.25,85.25l11.3-6.5 M35.55,78.75l0.1-0.1l0.1-0.1v-0.1v-0.1h0.1v-0.1 M35.85,75.95v2.3
	 M35.85,75.95v-0.1v-0.1l0.1-0.1v-0.1h0.1 M36.65,75.15l-0.6,0.4 M36.65,75.15L36.65,75.15h0.1v-0.1h0.1v-0.1v-0.1 M38.75,73.85
	l-0.2-0.3l-0.2-0.2l-0.2-0.1h-0.2l-0.1,0.1l-0.2,0.1l-0.2,0.2l-0.2,0.3l-0.1,0.4l-0.3,0.5 M38.75,73.85L38.75,73.85h0.1h0.1
	 M39.55,73.45l-0.6,0.4 M39.55,73.45h0.1h0.1v0.1h0.1v0.1 M39.85,75.95v-2.3 M39.85,75.95v0.1v0.1h0.1h0.1v-0.1 M40.05,76.05
	l7.8-4.4 M47.85,71.65l0.1-0.1l0.1-0.1v-0.1v-0.1h0.1v-0.1 M48.15,68.85v2.3 M48.15,68.85v-0.1v-0.1l0.1-0.1v-0.1h0.1 M48.95,68.05
	l-0.6,0.4 M48.95,68.05L48.95,68.05h0.1v-0.1h0.1v-0.1v-0.1 M51.05,66.75l-0.2-0.3l-0.2-0.2l-0.2-0.1h-0.2l-0.1,0.1l-0.2,0.1
	l-0.2,0.2l-0.1,0.3l-0.2,0.3l-0.3,0.6 M51.05,66.75L51.05,66.75h0.1h0.1 M51.85,66.35l-0.6,0.4 M51.85,66.35h0.1h0.1v0.1h0.1v0.1
	 M62.45,63.15l1.4,0.8 M50.65,68.15l1.5,0.9 M50.15,66.25l0.9,0.5 M86.05,1.15l-1.5-0.9 M38.35,75.25l1.5,0.9 M37.85,73.35l0.9,0.5
	 M58.95,15.05l-1.5-0.9 M8.15,94.55l1.4,0.8 M0.45,97.05l1.5,0.9"/>
</svg>
