<?xml version="1.0" encoding="utf-8"?>
<!-- Generator: Adobe Illustrator 19.0.0, SVG Export Plug-In . SVG Version: 6.00 Build 0)  -->
<svg version="1.0" id="Layer_1" xmlns="http://www.w3.org/2000/svg" xmlns:xlink="http://www.w3.org/1999/xlink" x="0px" y="0px"
	 width="55.1px" height="80.2px" viewBox="0 0 55.1 80.2" enable-background="new 0 0 55.1 80.2" xml:space="preserve">
<path fill="none" stroke="#000000" stroke-width="0.25" stroke-linecap="round" stroke-linejoin="round" stroke-miterlimit="10" d="
	M3.05,50.25l1.1-0.6 M3.25,47.85l-0.4,0.2 M36.95,71.65l0.7-0.4 M38.55,70.75l1-0.6 M38.75,68.25l-0.4,0.2 M2.05,0.35l-1.1,0.7
	 M18.65,8.25l-1.1,0.6 M29.95,16.05l1.1-0.6 M31.55,16.25l-1.1,0.7 M40.45,22.55l-1,0.7 M53.55,79.45l1.1-0.6 M53.15,31.15l1.1-0.6
	 M54.65,31.25l-1.1,0.7"/>
<path fill="none" stroke="#000000" stroke-width="0.5" stroke-linecap="round" stroke-linejoin="round" stroke-miterlimit="10" d="
	M4.35,49.55v0.1h-0.1v0.1l-0.1,0.1 M4.35,48.35v1.2 M6.55,17.95l0.6,0.3 M10.65,24.45v0.7 M38.15,71.15L38.15,71.15 M6.55,16.05v1.9
	 M6.55,17.95l-1.5,0.9 M10.65,25.15l1.7,0.9 M10.65,25.15l-1.5,0.8 M7.15,18.25l0.1,0.6l0.2,0.7l0.2,0.6l0.3,0.6l0.3,0.6l0.3,0.6
	l0.4,0.5l0.4,0.6l0.4,0.5l0.5,0.4l0.4,0.5 M9.15,25.25l1.5-0.8 M7.15,18.25l-1.5,0.9 M39.85,69.95l-0.1,0.1v0.1v0.1l-0.1,0.1
	 M39.85,68.85v1.1 M1.95,0.25L1.95,0.25h0.1h0.1h0.1 M7.75,14.35l-0.1,0.1l-0.2,0.4l-0.2,0.4l-0.1,0.4 M5.65,16.55l1.5-0.9
	 M12.95,25.75l0.4,0.1h0.5h0.4h0.1 M12.95,25.75l-1.5,0.8 M9.75,14.15l-0.6,0.4 M14.95,24.55l0.6-0.4 M19.05,25.15l0.6,0.4
	 M23.25,31.65v0.7 M19.05,23.25v1.9 M19.05,25.15l-1.5,0.9 M23.25,32.35l1.6,0.9 M23.25,32.35l-1.5,0.9 M19.65,25.55l0.2,0.6
	l0.1,0.6l0.3,0.6l0.2,0.6l0.3,0.6l0.4,0.6l0.3,0.6l0.4,0.5l0.5,0.5l0.4,0.5l0.5,0.4 M21.75,32.55l1.5-0.9 M19.65,25.55l-1.5,0.8
	 M54.85,78.75v0.1v0.1h-0.1v0.1 M20.25,21.65v0.1l-0.3,0.3l-0.1,0.4l-0.2,0.5 M18.15,23.75l1.5-0.8 M25.45,32.95l0.5,0.1l0.4,0.1
	l0.4-0.1h0.1 M25.45,32.95l-1.5,0.9 M22.35,21.35l-0.6,0.4 M27.55,31.75l0.5-0.3 M17.15,8.85l-14.9-8.6 M18.55,8.05L18.55,8.05h0.1
	h0.1l0.1,0.1 M31.25,15.25l-12.4-7.1 M31.75,16.15v4.6 M36.85,32.95l-0.1,0.1l-0.1,0.3v0.4v0.5v0.4l0.1,0.5l0.2,0.5l0.2,0.4l0.2,0.5
	l0.2,0.4l0.3,0.5l0.4,0.4l0.3,0.3l0.4,0.3l0.3,0.3l0.4,0.2l0.4,0.1l0.3,0.1h0.1 M31.25,15.25l0.1,0.1l0.1,0.1l0.1,0.1l0.1,0.1v0.1
	l0.1,0.2v0.1v0.1 M31.75,20.75l6.9,4 M31.75,20.75l-1.5,0.9 M40.35,22.45h0.1l0.1-0.1v0.1h0.1 M54.45,30.35l-13.8-7.9 M54.85,78.75
	v-47.6 M54.45,30.35l0.1,0.1v0.1l0.1,0.1l0.1,0.1v0.1l0.1,0.1v0.1v0.1 M9.15,13.85v0.7 M11.45,15.15l-2.3-1.3 M11.45,15.85v-0.7
	 M14.95,21.95l-0.1-0.6l-0.2-0.6l-0.2-0.6l-0.3-0.7l-0.3-0.6l-0.3-0.5l-0.4-0.6l-0.4-0.5l-0.4-0.6l-0.5-0.4l-0.4-0.4 M15.55,22.25
	l-0.6-0.3 M15.55,24.85v-2.6 M14.95,24.55l0.6,0.3 M11.45,26.55l0.4,0.1l0.5,0.1h0.4l0.4-0.1l0.4-0.1l0.3-0.2l0.3-0.3l0.3-0.3
	l0.2-0.3l0.2-0.5l0.1-0.4 M11.45,27.25v-0.7 M9.15,25.95l2.3,1.3 M9.15,25.25v0.7 M5.65,19.15l0.1,0.6l0.2,0.6l0.2,0.6l0.3,0.7
	l0.3,0.6l0.3,0.5l0.4,0.6l0.4,0.5l0.4,0.5l0.5,0.5l0.4,0.4 M5.05,18.85l0.6,0.3 M5.05,16.25v2.6 M5.65,16.55l-0.6-0.3 M9.15,14.55
	l-0.4-0.1l-0.5-0.1h-0.4l-0.4,0.1l-0.4,0.1l-0.3,0.2l-0.3,0.3l-0.3,0.3l-0.2,0.3l-0.2,0.5l-0.1,0.4 M21.75,21.05v0.7 M23.95,22.35
	l-2.2-1.3 M23.95,23.05v-0.7 M27.55,29.15l-0.2-0.6l-0.2-0.6l-0.2-0.6l-0.3-0.6l-0.3-0.6l-0.3-0.6l-0.4-0.6l-0.4-0.5l-0.4-0.5
	l-0.4-0.5l-0.5-0.4 M28.05,29.55l-0.5-0.4 M28.05,32.15v-2.6 M27.55,31.75l0.5,0.4 M23.95,33.85l0.5,0.1h0.4h0.4l0.4-0.1l0.4-0.1
	l0.3-0.2l0.3-0.2l0.3-0.4l0.2-0.3l0.2-0.4l0.2-0.5 M23.95,34.55v-0.7 M21.75,33.25l2.2,1.3 M21.75,32.55v0.7 M18.15,26.35l0.2,0.6
	l0.1,0.7l0.3,0.6l0.2,0.6l0.3,0.6l0.4,0.6l0.3,0.5l0.4,0.6l0.5,0.5l0.4,0.4l0.5,0.5 M17.55,26.05l0.6,0.3 M17.55,23.45v2.6
	 M18.15,23.75l-0.6-0.3 M21.75,21.75l-0.5-0.1l-0.4-0.1l-0.5,0.1h-0.4l-0.3,0.2l-0.4,0.2l-0.3,0.2l-0.2,0.3l-0.3,0.4l-0.1,0.4
	l-0.2,0.4 M40.65,38.05v-0.4l-0.1-0.5l-0.1-0.5l-0.2-0.4l-0.2-0.5l-0.3-0.5l-0.2-0.4l-0.4-0.4l-0.3-0.4l-0.3-0.3l-0.4-0.3l-0.4-0.2
	l-0.3-0.2l-0.4-0.1h-0.3h-0.4l-0.3,0.1l-0.2,0.1l-0.3,0.2l-0.1,0.3l-0.2,0.3l-0.1,0.3v0.4v0.4v0.5l0.1,0.5l0.2,0.4l0.1,0.5l0.3,0.5
	l0.2,0.4l0.3,0.4l0.4,0.4l0.3,0.4l0.4,0.3l0.3,0.2l0.4,0.2l0.4,0.2l0.3,0.1h0.3l0.4-0.1l0.2-0.1l0.3-0.2l0.2-0.2l0.2-0.3l0.1-0.3
	l0.1-0.4V38.05 M0.25,1.35v47.6 M0.25,48.95v0.1l0.1,0.1v0.1l0.1,0.2v0.1l0.1,0.1h0.1l0.1,0.1 M0.75,49.75l1.6,0.9 M2.35,50.65
	l0.1,0.1h0.1h0.1v-0.1h0.1v-0.1l0.1-0.1v-0.1 M2.85,48.05v2.3 M2.85,48.05v-0.1v-0.1l0.1-0.1h0.1l0.1-0.1l0.1,0.1h0.1 M14.85,54.45
	l-11.5-6.7 M14.85,54.45h0.1l0.1,0.1l0.1,0.1l0.1,0.1v0.2l0.1,0.1v0.1v0.1 M15.35,57.65v-2.4 M15.35,57.65v0.1v0.1l0.1,0.1v0.1
	l0.1,0.2l0.1,0.1l0.1,0.1h0.1 M15.85,58.45l1,0.6 M16.85,59.05v1.2 M16.85,60.25v0.1v0.1l0.1,0.1l0.1,0.1v0.2l0.1,0.1l0.1,0.1h0.1
	 M17.35,61.05l18.9,11 M36.25,72.05h0.1h0.1h0.1h0.1l0.1-0.1v-0.1v-0.1 M36.75,71.75v-1.2 M36.75,70.55l1,0.6 M37.75,71.15h0.1
	l0.1,0.1h0.1l0.1-0.1h0.1v-0.1v-0.1l0.1-0.1 M38.35,68.55v2.3 M38.35,68.55v-0.1v-0.1v-0.1h0.1l0.1-0.1h0.1h0.1l0.1,0.1
	 M50.35,74.85l-11.5-6.6 M50.35,74.85l0.1,0.1l0.1,0.1l0.1,0.1v0.1l0.1,0.1v0.2l0.1,0.1v0.1 M50.85,78.05v-2.3 M50.85,78.05v0.1v0.2
	l0.1,0.1v0.1l0.1,0.1l0.1,0.1l0.1,0.1l0.1,0.1 M51.35,78.95l1.6,0.9 M52.95,79.85l0.1,0.1h0.1l0.1-0.1l0.1-0.1v-0.1 M53.35,79.65
	v-47.6 M53.35,32.05v-0.1v-0.1l-0.1-0.1v-0.2l-0.1-0.1l-0.1-0.1l-0.1-0.1 M52.95,31.25l-13.8-7.9 M39.15,23.35l-0.1-0.1h-0.1h-0.1
	l-0.1,0.1v0.1l-0.1,0.1v0.1 M38.65,26.55v-2.9 M30.25,21.65l8.4,4.9 M30.25,17.05v4.6 M30.25,17.05v-0.1v-0.2l-0.1-0.1v-0.1
	l-0.1-0.1l-0.1-0.1l-0.1-0.1l-0.1-0.1 M29.75,16.15l-12.4-7.2 M17.35,8.95h-0.1h-0.1h-0.1l-0.1,0.1h-0.1v0.1v0.1 M16.85,9.25v1.2
	 M16.85,10.45l-16.1-9.3 M0.75,1.15l-0.1-0.1h-0.1h-0.1v0.1h-0.1v0.1l-0.1,0.1 M2.65,50.65l1.5-0.8 M36.65,72.05l1.5-0.9
	 M38.15,71.15l1.5-0.8 M1.95,0.25l-1.5,0.9 M53.25,79.85l1.5-0.8 M18.55,8.05l-1.5,0.9 M40.35,22.45l-1.5,0.8"/>
</svg>
