<?xml version="1.0" encoding="utf-8"?>
<!-- Generator: Adobe Illustrator 19.0.0, SVG Export Plug-In . SVG Version: 6.00 Build 0)  -->
<svg version="1.0" id="Layer_1" xmlns="http://www.w3.org/2000/svg" xmlns:xlink="http://www.w3.org/1999/xlink" x="0px" y="0px"
	 width="55px" height="80.2px" viewBox="0 0 55 80.2" enable-background="new 0 0 55 80.2" xml:space="preserve">
<path fill="none" stroke="#000000" stroke-width="0.25" stroke-linecap="round" stroke-linejoin="round" stroke-miterlimit="10" d="
	M2.95,50.25l1.1-0.6 M3.15,47.85l-0.3,0.2 M36.85,71.65l0.7-0.4 M38.45,70.75l1.1-0.6 M38.65,68.35l-0.4,0.2 M1.95,0.45l-1.1,0.6
	 M18.55,8.25l-1.1,0.7 M29.95,16.05l1-0.6 M31.45,16.35l-1,0.6 M40.45,22.65l-1.1,0.6 M53.55,79.55l1-0.7 M53.05,31.15l1.1-0.6
	 M54.55,31.35l-1,0.6"/>
<path fill="none" stroke="#000000" stroke-width="0.5" stroke-linecap="round" stroke-linejoin="round" stroke-miterlimit="10" d="
	M4.25,49.55v0.1v0.1l-0.1,0.1 M4.25,48.35v1.2 M38.05,71.25L38.05,71.25 M39.75,70.05v0.1l-0.1,0.1l-0.1,0.1 M39.75,68.85v1.2
	 M1.85,0.25h0.1h0.1l0.1,0.1 M54.75,78.75v0.1v0.1v0.1h-0.1 M17.05,8.95l-14.9-8.6 M18.45,8.15h0.1v-0.1l0.1,0.1h0.1 M31.15,15.35
	l-12.4-7.2 M31.65,16.15v4.7 M31.15,15.35h0.1l0.1,0.1l0.1,0.1l0.1,0.2l0.1,0.1v0.1v0.1v0.1 M31.65,20.85l7,4 M31.65,20.85l-1.5,0.8
	 M40.25,22.45h0.1h0.1h0.1l0.1,0.1 M54.35,30.45l-13.7-7.9 M54.75,78.75v-47.5 M54.35,30.45h0.1l0.1,0.1v0.1l0.1,0.1l0.1,0.1v0.1
	v0.2v0.1 M0.25,1.45v47.6 M0.25,49.05v0.1v0.1v0.1l0.1,0.1l0.1,0.1v0.1l0.1,0.1h0.1 M0.65,49.75l1.6,0.9 M2.25,50.65l0.1,0.1h0.1
	h0.1h0.1v-0.1h0.1v-0.1v-0.1 M2.75,48.05v2.4 M2.75,48.05v-0.1v-0.1h0.1v-0.1h0.1h0.1h0.1l0.1,0.1 M14.75,54.45l-11.5-6.6
	 M14.75,54.45l0.1,0.1l0.1,0.1l0.1,0.1l0.1,0.1v0.1l0.1,0.1v0.2v0.1 M15.25,57.65v-2.3 M15.25,57.65v0.1l0.1,0.1v0.2l0.1,0.1v0.1
	l0.1,0.1l0.1,0.1l0.1,0.1 M15.75,58.55l1,0.5 M16.75,59.05v1.2 M16.75,60.25v0.1l0.1,0.1v0.2l0.1,0.1l0.1,0.1v0.1l0.1,0.1l0.1,0.1
	 M17.25,61.15l19,10.9 M36.25,72.05h0.1l0.1,0.1h0.1v-0.1h0.1v-0.1l0.1-0.1v-0.1 M36.75,71.75v-1.2 M36.75,70.55l1,0.6 M37.75,71.15
	l0.1,0.1h0.1h0.1l0.1-0.1v-0.1l0.1-0.1v-0.1 M38.25,68.55v2.3 M38.25,68.55v-0.1v-0.1h0.1v-0.1h0.1h0.1h0.1h0.1 M50.25,74.95
	l-11.5-6.7 M50.25,74.95l0.1,0.1h0.1l0.1,0.1l0.1,0.2v0.1l0.1,0.1v0.1v0.2 M50.75,78.15v-2.3 M50.75,78.15v0.1v0.1l0.1,0.1l0.1,0.2
	v0.1l0.1,0.1l0.1,0.1h0.1 M51.25,78.95l1.6,1 M52.85,79.95h0.1h0.1h0.1l0.1-0.1v-0.1v-0.1 M53.25,79.65v-47.6 M53.25,32.05v-0.1
	v-0.1v-0.1l-0.1-0.1l-0.1-0.1v-0.1l-0.1-0.1l-0.1-0.1 M52.85,31.25l-13.7-7.9 M39.15,23.35h-0.1h-0.1h-0.1h-0.1h-0.1v0.1v0.1v0.1
	 M38.65,26.55v-2.9 M30.15,21.65l8.5,4.9 M30.15,17.05v4.6 M30.15,17.05v-0.1v-0.1v-0.2l-0.1-0.1l-0.1-0.1l-0.1-0.1l-0.1-0.1
	l-0.1-0.1 M29.65,16.15l-12.4-7.1 M17.25,9.05l-0.1-0.1h-0.1h-0.1l-0.1,0.1v0.1l-0.1,0.1v0.1 M16.75,9.35v1.1 M16.75,10.45
	l-16.1-9.3 M0.65,1.15h-0.1h-0.1h-0.1h-0.1v0.1v0.1v0.1 M2.65,50.75l1.5-0.9 M36.55,72.05l1.5-0.8 M38.05,71.25l1.5-0.9 M1.85,0.25
	l-1.5,0.9 M53.15,79.95l1.5-0.9 M18.45,8.15l-1.5,0.8 M40.25,22.45l-1.5,0.9"/>
</svg>
