<?xml version="1.0" encoding="utf-8"?>
<!-- Generator: Adobe Illustrator 19.0.0, SVG Export Plug-In . SVG Version: 6.00 Build 0)  -->
<svg version="1.0" id="Layer_1" xmlns="http://www.w3.org/2000/svg" xmlns:xlink="http://www.w3.org/1999/xlink" x="0px" y="0px"
	 width="15.9px" height="21.2px" viewBox="0 0 15.9 21.2" enable-background="new 0 0 15.9 21.2" xml:space="preserve">
<path fill="none" stroke="#000000" stroke-width="0.25" stroke-linecap="round" stroke-linejoin="round" stroke-miterlimit="10" d="
	M11.85,3.85L11.85,3.85l-0.1,0.1v0.2l-0.1,0.1l-0.1,0.2 M12.05,3.65h0.1h0.1l0.1,0.1l0.1,0.1l0.1,0.1l0.1,0.1l0.1,0.2 M10.95,4.45
	L10.95,4.45l-0.3,0.5l-0.1,0.4 M14.35,12.75l-0.2-0.7l-0.5-1.5l-0.5-1.5l-0.3-1 M11.25,4.85l-0.1-0.1 M3.25,3.85l-0.1,0.4l-0.1,0.4
	l-0.2,0.9l-0.2,0.9l-0.1,0.9l-0.2,0.9l-0.2,0.9 M10.15,6.35l-0.1,0.1l-0.1,0.5l-0.2,0.6l-0.4,1.3l-0.3,1.4 M9.65,5.05l0.2,0.1h0.1
	l0.1,0.1h0.1l0.1,0.1 M3.85,17.55l0.1-0.6l0.5-1.6l0.4-1.4"/>
<path fill="none" stroke="#000000" stroke-width="0.5" stroke-linecap="round" stroke-linejoin="round" stroke-miterlimit="10" d="
	M14.45,14.45L14.45,14.45v0.2l-0.1,0.1v0.1l-0.1,0.1l-0.1,0.1h-0.1l-0.1,0.1 M13.95,15.15l-0.2,0.1l-0.1,0.1h-0.2l-0.1,0.1h-0.2
	h-0.2h-0.2h-0.2h-0.2h-0.2h-0.1 M4.95,19.95L4.95,19.95v0.1l-0.1,0.2v0.1l-0.1,0.1l-0.1,0.1h-0.1l-0.1,0.1 M4.45,20.65l-0.2,0.1
	l-0.1,0.1h-0.2l-0.2,0.1h-0.2h-0.1h-0.2h-0.2h-0.2h-0.2l-0.2-0.1h-0.1l-0.2-0.1h-0.1l-0.2-0.1l-0.1-0.1l-0.1-0.1l-0.1-0.1l-0.1-0.1
	v-0.1l-0.1-0.1v-0.1 M15.55,12.35l0.1,0.1v0.2l-0.1,0.2v0.2l-0.1,0.2l-0.1,0.1l-0.2,0.2l-0.2,0.2l-0.2,0.1 M13.15,5.05L13.15,5.05
	 M6.65,3.45l0.2,0.1h0.1l0.2,0.1h0.1l0.2,0.1h0.2h0.2h0.2h0.2h0.2l0.1-0.1h0.2l0.2-0.1h0.1l0.2-0.1l0.1-0.1l0.1-0.1l0.1-0.1v-0.1
	l0.1-0.1v-0.1v-0.1v-0.1v-0.1v-0.1l-0.1-0.1l-0.1-0.1l-0.1-0.1l-0.1-0.1l-0.1-0.1h-0.2l-0.2-0.1l-0.1-0.1h-0.2h-0.2h-0.2h-0.2h-0.1
	h-0.2h-0.2l-0.2,0.1h-0.2l-0.1,0.1h-0.2l-0.1,0.1l-0.1,0.1l-0.1,0.1l-0.1,0.1v0.1l-0.1,0.1v0.1v0.1v0.1l0.1,0.1v0.1l0.1,0.1l0.1,0.1
	l0.1,0.1L6.65,3.45 M4.95,0.95l-0.2,0.1l-0.1,0.1l-0.2,0.1l-0.1,0.1l-0.1,0.1l-0.1,0.1l-0.1,0.1l-0.1,0.2 M9.55,5.05l0.2-0.1h0.2
	l0.1-0.1l0.2-0.1h0.2l0.2-0.1l0.1-0.1l0.2-0.1 M10.95,4.45l0.1-0.1l0.2-0.1l0.1-0.1l0.1-0.1l0.1-0.1l0.1-0.1l0.1-0.1l0.1-0.1
	 M11.85,3.65l0.1-0.1l0.1-0.2v-0.2l0.1-0.1v-0.2v-0.2v-0.1v-0.2l-0.1-0.2l-0.1-0.1l-0.1-0.2l-0.1-0.2l-0.1-0.1l-0.2-0.2l-0.1-0.1
	l-0.2-0.1l-0.2-0.2l-0.2-0.1l-0.3-0.1l-0.2-0.1l-0.3-0.1h-0.2l-0.3-0.1l-0.3-0.1h-0.3h-0.2l-0.3-0.1h-0.3h-0.3h-0.3l-0.3,0.1h-0.3
	l-0.3,0.1h-0.2 M6.35,0.45l-0.2,0.1h-0.2l-0.2,0.1h-0.2l-0.2,0.1l-0.1,0.1l-0.2,0.1h-0.1 M7.15,18.25l7.6-4.4 M0.65,16.85l-0.2-0.2
	l-0.1-0.2l-0.1-0.1v-0.2v-0.2v-0.2 M1.95,17.75l0.1,0.1l0.2,0.1l0.2,0.1l0.2,0.1l0.3,0.1l0.2,0.1l0.2,0.1l0.2,0.1 M3.95,1.85
	l-0.1,0.1l-0.1,0.2v0.1l-0.1,0.2v0.2v0.1v0.2l0.1,0.2v0.2l0.1,0.1l0.1,0.2l0.1,0.1l0.2,0.2l0.1,0.1l0.2,0.2l0.2,0.1l0.2,0.1l0.2,0.1
	l0.2,0.1l0.2,0.1l0.3,0.1l0.3,0.1l0.2,0.1h0.3l0.3,0.1h0.3h0.3h0.3h0.3h0.2h0.3h0.3l0.3-0.1h0.3 M0.65,16.85l0.1,0.1l0.1,0.1
	l0.2,0.2l0.2,0.1l0.1,0.1l0.2,0.1l0.2,0.1l0.2,0.1 M7.15,18.25l-0.3,0.1l-0.3,0.1l-0.3,0.1l-0.3,0.1l-0.3,0.1h-0.4h-0.3h-0.3
	l-0.4-0.1h-0.3l-0.4-0.1 M14.45,14.45v-0.4 M4.95,19.95v-1.2 M1.35,17.45v2.5 M15.55,12.35l-0.5-1.6l-0.6-1.8l-0.4-1.3l-0.4-1.1
	l-0.2-0.7l-0.2-0.6l-0.1-0.2 M13.15,5.05l-1.1-2.8 M3.65,2.65l-0.1,0.1l-0.1,0.4l-0.1,0.3l-0.2,0.4l-0.1,0.6l-0.2,0.5l-0.1,0.6
	l-0.2,0.7l-0.2,0.9l-0.4,1.3l-0.3,1.4l-0.4,1.5l-0.4,1.9l-0.6,2.5 M3.75,2.25l-0.1,0.4"/>
</svg>
