<?xml version="1.0" encoding="utf-8"?>
<!-- Generator: Adobe Illustrator 19.0.0, SVG Export Plug-In . SVG Version: 6.00 Build 0)  -->
<svg version="1.0" id="Layer_1" xmlns="http://www.w3.org/2000/svg" xmlns:xlink="http://www.w3.org/1999/xlink" x="0px" y="0px"
	 width="16px" height="55.9px" viewBox="0 0 16 55.9" enable-background="new 0 0 16 55.9" xml:space="preserve">
<path fill="none" stroke="#000000" stroke-width="0.25" stroke-linecap="round" stroke-linejoin="round" stroke-miterlimit="10" d="
	M11.25,4.25L11.25,4.25v0.1 M11.75,4.45l0.2,0.2l0.2,0.4l0.1,0.4l0.1,0.4l0.2,0.8 M11.05,4.45L11.05,4.45l-0.1,0.2 M14.55,44.25
	l-0.4-7.1l-0.9-11.2 M11.15,4.55l-0.1-0.1 M10.25,8.85l-0.2,1.6l-0.2,2.9l-0.2,2.9 M10.75,4.55L10.75,4.55v0.1h0.1 M3.95,49.35
	l0.3-4l0.5-5.8l0.4-5.7 M2.95,11.85l-0.1,2.2l-0.2,3.2l-0.2,3.1l-0.4,6.2"/>
<path fill="none" stroke="#000000" stroke-width="0.5" stroke-linecap="round" stroke-linejoin="round" stroke-miterlimit="10" d="
	M14.55,49.15v0.1l-0.1,0.2l-0.1,0.1l-0.1,0.2l-0.2,0.1 M14.05,49.85l-0.3,0.1l-0.2,0.1h-0.3l-0.2,0.1h-0.3h-0.3l-0.3-0.1
	 M5.05,54.65l-0.1,0.1v0.2l-0.1,0.1l-0.2,0.2l-0.2,0.1 M4.45,55.35l-0.2,0.1l-0.2,0.1h-0.3l-0.3,0.1h-0.2h-0.3l-0.3-0.1l-0.3-0.1
	h-0.2l-0.2-0.2l-0.2-0.1l-0.1-0.1l-0.1-0.2l-0.1-0.1v-0.1 M15.75,47.25L15.75,47.25l-0.1,0.3l-0.1,0.2l-0.1,0.3l-0.3,0.2l-0.3,0.2
	 M7.05,3.25l0.1,0.1l0.3,0.1h0.2h0.3h0.2h0.3l0.2-0.1h0.2l0.2-0.1l0.2-0.1l0.1-0.2v-0.1l0.1-0.2v-0.1l-0.1-0.2l-0.1-0.1l-0.2-0.1
	l-0.1-0.1l-0.2-0.1l-0.3-0.1h-0.2h-0.3h-0.2l-0.3,0.1h-0.2l-0.2,0.1l-0.2,0.1l-0.1,0.1l-0.1,0.2l-0.1,0.1v0.2l0.1,0.1l0.1,0.2
	l0.1,0.1L7.05,3.25 M4.95,0.95L4.95,0.95l-0.1,0.1h-0.1v0.1h-0.1 M10.65,4.55h0.1h0.1v-0.1h0.1h0.1 M11.05,4.45v-0.1h0.1l0.1-0.1
	h0.1 M11.35,4.25l0.2-0.2l0.2-0.3l0.2-0.2l0.2-0.2l0.1-0.3v-0.3v-0.2v-0.3l-0.1-0.2l-0.2-0.3l-0.2-0.2l-0.2-0.2l-0.2-0.2l-0.3-0.2
	l-0.4-0.2l-0.3-0.1l-0.4-0.2l-0.4-0.1l-0.4-0.1h-0.5h-0.4h-0.5h-0.4h-0.4l-0.5,0.1l-0.4,0.1l-0.4,0.2l-0.3,0.1 M5.35,0.75h-0.1v0.1
	h-0.1h-0.1v0.1h-0.1 M0.65,51.45l-0.2-0.2l-0.1-0.3l-0.1-0.3v-0.1 M7.15,52.95l7.7-4.5 M7.15,52.95l-0.4,0.2l-0.4,0.1l-0.4,0.1
	l-0.5,0.1h-0.5l-0.5-0.1l-0.4-0.1l-0.4-0.1 M1.95,52.45l0.2,0.1l0.2,0.1l0.2,0.1l0.2,0.1l0.3,0.1l0.2,0.1l0.2,0.1h0.2 M4.65,1.15
	l-0.2,0.2l-0.2,0.2l-0.2,0.2l-0.2,0.3v0.2l-0.1,0.3v0.2l0.1,0.3v0.3l0.2,0.2l0.2,0.2l0.2,0.3l0.2,0.2l0.3,0.2l0.4,0.1l0.3,0.2
	l0.4,0.1l0.4,0.1l0.5,0.1h0.4l0.4,0.1h0.5l0.4-0.1h0.5l0.4-0.1l0.4-0.1l0.4-0.1l0.3-0.2 M3.25,7.85v0.1 M0.65,51.45l0.2,0.1l0.1,0.2
	l0.2,0.1l0.1,0.1l0.2,0.1l0.2,0.2l0.2,0.1l0.1,0.1 M14.55,49.15v-0.5 M5.05,54.65v-1.2 M1.45,52.15v2.5 M15.75,47.25l-0.3-3.3
	l-0.8-11.5l-0.6-8.8l-0.4-5l-0.3-4.1l-0.2-2.6l-0.2-1.8 M12.95,10.15l-0.7-7.6 M3.25,7.95v0.4l-0.2,1.5l-0.1,2l-0.3,4l-0.3,4.2
	l-0.4,5l-0.4,6.7l-0.8,10.9l-0.5,7.9 M3.75,2.55l-0.5,5.3"/>
</svg>
