<?xml version="1.0" encoding="utf-8"?>
<!-- Generator: Adobe Illustrator 19.0.0, SVG Export Plug-In . SVG Version: 6.00 Build 0)  -->
<svg version="1.0" id="Layer_1" xmlns="http://www.w3.org/2000/svg" xmlns:xlink="http://www.w3.org/1999/xlink" x="0px" y="0px"
	 width="43.4px" height="35.8px" viewBox="0 0 43.4 35.8" enable-background="new 0 0 43.4 35.8" xml:space="preserve">
<path fill="none" stroke="#000000" stroke-width="0.25" stroke-linecap="round" stroke-linejoin="round" stroke-miterlimit="10" d="
	M35.95,12.45l0.5,0.3 M18.95,1.25l-5.1,3 M30.75,25.05l4-2.3 M25.95,27.85l1.2-0.7 M34.15,11.85l-7,4.1 M26.05,13.75l7-4
	 M15.75,26.05v-0.1l-0.1-0.3l-0.1-0.3l-0.3-0.3l-0.2-0.2l-0.3-0.2h-0.2l-0.2,0.1l-0.1,0.2v0.2v0.2l0.1,0.3l0.1,0.3l0.3,0.3l0.2,0.2
	l0.3,0.1h0.2l0.2-0.1v-0.2L15.75,26.05"/>
<path fill="none" stroke="#000000" stroke-width="0.5" stroke-linecap="round" stroke-linejoin="round" stroke-miterlimit="10" d="
	M26.55,0.25l-3.6,2.1 M26.55,0.25l0.9,0.5 M25.45,3.85l0.1-0.1h0.1h0.2l0.1,0.1l0.1,0.1v0.2 M27.95,5.25l0.2-0.2 M28.15,1.15v3.9
	 M27.45,0.75l0.7,0.4 M23.75,2.85l3.7-2.1 M34.05,4.55l-3.6,2.1 M34.05,4.55l0.9,0.5 M32.95,8.15h0.1h0.2h0.1l0.1,0.1l0.1,0.1v0.1
	v0.1 M35.35,10.05l0.3-0.6 M35.65,5.45v4 M34.95,5.05l0.7,0.4 M31.25,7.15l3.7-2.1 M39.65,13.75l0.1-0.1l0.1-0.2l0.2-0.2l0.1-0.2
	v-0.2l0.1-0.2 M19.15,0.55L19.15,0.55l0.2-0.1h0.2l0.2,0.1l0.2,0.1 M41.65,8.95l-5.8,3.3 M41.65,8.95l0.8,0.5 M41.15,12.95l-0.1-0.1
	v-0.2l-0.1-0.1l-0.1-0.1h-0.1h-0.2l-0.1,0.1h-0.2l-0.1,0.2l-0.2,0.1l-0.1,0.2l-0.1,0.2l-0.1,0.2v0.2l-0.1,0.2l0.1,0.2v0.1l0.1,0.1
	l0.1,0.1h0.1h0.2h0.1l0.2-0.1l0.1-0.1l0.2-0.2l0.1-0.2l0.1-0.2l0.1-0.2v-0.2L41.15,12.95 M35.85,19.95l-0.3,0.2 M35.85,19.65v0.3
	 M36.55,18.35l-0.1,0.1l-0.2,0.2l-0.1,0.1l-0.1,0.2l-0.1,0.1l-0.1,0.2v0.2v0.2 M42.45,14.95l-5.9,3.4 M43.15,13.75l-0.7,1.2
	 M43.15,9.85v3.9 M43.15,9.85l-0.7-0.4 M42.45,9.45l-5.9,3.4 M36.55,12.85h-0.1l-0.2,0.1h-0.1l-0.1-0.1h-0.1l-0.1-0.1v-0.2v-0.1
	 M35.85,12.45v-0.4 M35.55,11.95l0.3,0.1 M35.85,12.05l-0.3,0.1 M35.55,22.25v0.3v0.2l-0.1,0.1l-0.1,0.2h-0.1 M24.15,29.75l0.2-0.1
	l0.4-0.3l0.4-0.3l0.3-0.3l0.3-0.4 M34.35,8.95l-14.4-8.3 M35.55,14.15v-3.1 M35.55,22.25v-3.1 M35.55,19.15l-6.7,7.7 M35.55,19.15
	v-5 M34.35,8.95l0.2,0.2l0.2,0.2l0.2,0.2l0.2,0.2l0.2,0.3l0.1,0.2l0.1,0.3v0.3v0.2 M25.75,21.75v-5 M25.75,28.35v-1.1 M23.65,29.55
	l2.1-1.2 M28.85,26.85l-5,0.6 M28.85,26.85v-5 M28.85,21.85l-5.5,0.7 M35.55,14.15l-6.7,7.7 M33.65,15.35l1.9-1.2 M28.25,21.45
	l5.4-6.1 M23.15,22.05l5.1-0.6 M25.75,16.75l-0.3-0.7l-0.3-0.7l-0.4-0.7l-0.4-0.7l-0.4-0.7l-0.4-0.7l-0.4-0.6l-0.5-0.7l-0.4-0.6
	l-0.5-0.6l-0.5-0.5l-0.5-0.6l-0.6-0.5l-0.5-0.5l-0.6-0.5l-0.5-0.4l-0.6-0.4l-0.5-0.3l-0.6-0.4l-0.5-0.2l-0.6-0.3l-0.5-0.2l-0.6-0.2
	l-0.5-0.1l-0.6-0.1h-0.5l-0.5-0.1l-0.5,0.1h-0.4l-0.5,0.2l-0.4,0.1l-0.4,0.2l-0.2,0.1 M22.15,18.85l3.6-2.1 M20.55,34.35
	L20.55,34.35l0.4-0.3l0.4-0.3l0.3-0.3l0.4-0.4l0.3-0.4l0.3-0.5l0.2-0.4l0.3-0.5l0.2-0.6l0.1-0.5l0.2-0.6l0.1-0.6l0.1-0.7v-0.6v-0.7
	 M23.85,26.95v-0.7v-0.7l-0.1-0.8l-0.1-0.7l-0.2-0.8l-0.1-0.7l-0.2-0.8l-0.3-0.8l-0.2-0.7l-0.3-0.8l-0.3-0.8l-0.4-0.7l-0.3-0.8
	l-0.4-0.8l-0.4-0.7l-0.5-0.7l-0.4-0.7l-0.5-0.7l-0.5-0.7l-0.5-0.7l-0.5-0.6l-0.6-0.6l-0.5-0.6l-0.6-0.5l-0.6-0.6l-0.5-0.5l-0.6-0.4
	l-0.6-0.5l-0.6-0.4l-0.6-0.3l-0.6-0.3l-0.6-0.3l-0.6-0.3l-0.6-0.2l-0.6-0.2l-0.5-0.1l-0.6-0.1l-0.6-0.1h-0.5h-0.5l-0.5,0.1l-0.5,0.1
	l-0.5,0.2l-0.5,0.2l-0.4,0.2 M0.75,18.55l-0.1-0.7l-0.2-0.8l-0.1-0.7l-0.1-0.7v-0.8v-0.7v-0.6v-0.7l0.1-0.6l0.1-0.7l0.2-0.5l0.1-0.6
	l0.2-0.5l0.3-0.6l0.2-0.4l0.3-0.5l0.3-0.4l0.3-0.4l0.4-0.3l0.4-0.3l0.4-0.3l0.4-0.2l0.5-0.2l0.5-0.1l0.5-0.1l0.5-0.1h0.5h0.5
	l0.6,0.1l0.6,0.1l0.5,0.1l0.6,0.2l0.6,0.2l0.6,0.2l0.6,0.3l0.6,0.3l0.6,0.4l0.6,0.4l0.6,0.4l0.6,0.5l0.5,0.5l0.6,0.5l0.6,0.6
	l0.5,0.6l0.6,0.6l0.5,0.6l0.5,0.7l0.5,0.6l0.5,0.7l0.4,0.7l0.5,0.8l0.4,0.7l0.4,0.8l0.3,0.7l0.4,0.8l0.3,0.8l0.3,0.7l0.2,0.8
	l0.3,0.8l0.2,0.7l0.1,0.8l0.2,0.7l0.1,0.8l0.1,0.7v0.7v0.7 M23.05,27.35v0.7v0.7l-0.1,0.6l-0.1,0.6l-0.2,0.6l-0.1,0.6l-0.2,0.5
	l-0.3,0.5l-0.2,0.5l-0.3,0.4l-0.3,0.5l-0.4,0.3l-0.3,0.4l-0.4,0.3l-0.4,0.2l-0.5,0.3l-0.4,0.1l-0.5,0.2l-0.5,0.1l-0.5,0.1h-0.5h-0.6
	l-0.5-0.1l-0.6-0.1l-0.6-0.1l-0.5-0.2l-0.6-0.2l-0.6-0.3l-0.6-0.2l-0.6-0.4l-0.6-0.3l-0.6-0.4l-0.6-0.5l-0.6-0.4l-0.6-0.5l-0.5-0.6
	h-0.1 M13.25,32.85h0.2h0.5h0.4l0.5-0.1l0.4-0.1l0.4-0.2l0.4-0.2l0.3-0.2l0.3-0.3l0.4-0.3l0.2-0.3l0.3-0.4l0.2-0.4l0.2-0.4l0.2-0.5
	l0.1-0.5l0.1-0.5l0.1-0.6l0.1-0.5v-0.6 M18.55,26.75v-0.6l-0.1-0.7l-0.1-0.6l-0.1-0.6l-0.1-0.7l-0.2-0.7l-0.2-0.6l-0.2-0.7l-0.3-0.7
	l-0.2-0.6l-0.4-0.7l-0.3-0.6l-0.3-0.7l-0.4-0.6l-0.4-0.6l-0.4-0.6l-0.5-0.6l-0.4-0.6l-0.5-0.5l-0.5-0.5l-0.5-0.5l-0.5-0.4l-0.5-0.4
	l-0.5-0.4l-0.5-0.4l-0.5-0.3l-0.5-0.3l-0.6-0.2l-0.5-0.2l-0.5-0.2l-0.5-0.1l-0.5-0.1l-0.4-0.1h-0.5l-0.5,0.1h-0.4l-0.4,0.2l-0.4,0.1
	l-0.4,0.2l-0.3,0.2l-0.4,0.3l-0.3,0.3l-0.3,0.3l-0.2,0.4l-0.2,0.4l-0.1,0.2 M13.85,25.15v-0.3v-0.3v-0.2l0.1-0.3l0.1-0.2l0.2-0.1
	l0.2-0.1l0.2-0.1h0.3l0.3,0.1l0.2,0.1l0.3,0.1l0.3,0.2l0.3,0.3l0.2,0.3l0.2,0.3l0.2,0.3l0.1,0.3l0.1,0.3v0.4 M17.15,26.25v0.3
	l-0.1,0.2l-0.1,0.2l-0.1,0.2l-0.2,0.1l-0.3,0.1h-0.2h-0.3l-0.1-0.1 M0.85,20.25l0.1,1l0.2,1l0.2,1l0.4,1l0.5,1l0.5,1l0.7,1l0.7,0.9
	l0.8,0.8l0.9,0.8l0.9,0.7l0.9,0.6l1,0.5l0.9,0.4l1,0.3l1,0.2l0.9,0.1h0.9l0.9-0.2l0.8-0.2l0.7-0.4l0.6-0.5l0.6-0.5l0.5-0.7l0.3-0.7
	l0.3-0.9l0.2-0.9v-0.9l-0.1-1l-0.1-0.9l-0.3-1l-0.4-1l-0.5-1l-0.6-1l-0.6-0.9l-0.8-0.9l-0.8-0.9l-0.8-0.8l-0.9-0.7l-1-0.6l-0.9-0.5
	l-1-0.4l-1-0.3l-0.9-0.2l-1-0.1l-0.9,0.1l-0.8,0.1l-0.8,0.3l-0.7,0.4l-0.7,0.4l-0.5,0.6l-0.5,0.7l-0.3,0.7l-0.3,0.8l-0.1,0.8
	L0.85,20.25 M19.15,0.55l-7.6,4.4 M28.95,26.75l6.3-3.7 M25.35,28.75l3.3-1.9 M23.45,30.15l0.7-0.4 M13.85,25.15v0.1l0.1,0.3
	l0.2,0.3l0.1,0.2l0.2,0.3l0.2,0.2l0.2,0.2l0.3,0.2l0.2,0.2l0.3,0.1h0.1 M10.15,5.45l-0.7,0.4 M2.05,13.35l-0.4,0.8l-0.2,0.7
	l-0.3,0.8l-0.1,0.8l-0.2,0.9l-0.1,0.8v0.8v0.8l0.1,0.8l0.1,0.9l0.2,0.8l0.2,0.8 M8.95,31.75l0.5,0.2l0.6,0.2l0.5,0.2l0.5,0.1
	l0.6,0.1l0.5,0.1l0.6,0.1l0.5,0.1 M19.75,34.75l0.8-0.4 M4.35,6.35l-0.8,0.4"/>
</svg>
