<?xml version="1.0" encoding="utf-8"?>
<!-- Generator: Adobe Illustrator 19.0.0, SVG Export Plug-In . SVG Version: 6.00 Build 0)  -->
<svg version="1.0" id="Layer_1" xmlns="http://www.w3.org/2000/svg" xmlns:xlink="http://www.w3.org/1999/xlink" x="0px" y="0px"
	 width="31.5px" height="23.4px" viewBox="0 0 31.5 23.4" enable-background="new 0 0 31.5 23.4" xml:space="preserve">
<path fill="none" stroke="#000000" stroke-width="0.25" stroke-linecap="round" stroke-linejoin="round" stroke-miterlimit="10" d="
	M26.85,10.45L26.85,10.45 M21.25,0.55l-0.1-0.1 M29.65,7.65l0.2,0.1 M28.35,8.45l0.1,0.1 M24.35,9.15v2.3 M22.95,11.45v-2.3
	 M29.85,5.45h-0.2 M16.65,18.75L16.65,18.75l0.3-0.2l0.2-0.2l0.2-0.2l0.2-0.3l0.2-0.3l0.2-0.3l0.1-0.4l0.1-0.4l0.1-0.4v-0.4v-0.5
	v-0.4v-0.5l-0.1-0.5l-0.1-0.5l-0.1-0.5l-0.2-0.5l-0.2-0.6l-0.2-0.5l-0.2-0.5l-0.2-0.5l-0.3-0.5l-0.3-0.4l-0.3-0.5l-0.3-0.5l-0.4-0.4
	l-0.3-0.4l-0.4-0.4l-0.4-0.3l-0.4-0.4l-0.3-0.3l-0.4-0.3l-0.4-0.2l-0.4-0.2l-0.4-0.2l-0.4-0.1l-0.4-0.2h-0.4l-0.4-0.1h-0.3l-0.3,0.1
	h-0.4l-0.3,0.2l-0.3,0.1 M9.05,18.15v0.3 M8.85,19.15v0.2l-0.2,0.4l-0.3,0.3 M7.95,20.35l-0.2,0.1 M7.15,20.55L7.15,20.55h-0.3
	l-0.3-0.1l-0.4-0.1l-0.3-0.1 M2.15,13.95v-0.3 M2.25,13.05l0.1-0.4 M2.85,12.05l0.1-0.1l0.3-0.2 M3.85,11.65h0.2h0.4 M4.95,11.75
	l0.2,0.1 M0.25,12.35L0.25,12.35 M10.25,22.45L10.25,22.45 M9.05,23.15h0.1 M8.75,23.15L8.75,23.15 M10.25,22.45L10.25,22.45
	l0.1-0.1 M7.95,22.95l0.1,0.1 M8.65,22.95h-0.1h-0.1h-0.1h-0.1h-0.2 M8.75,23.15v-0.2 M8.75,23.15h0.1h0.1 M4.55,7.75L4.55,7.75
	l-0.1-0.1h-0.1 M3.35,8.35L3.35,8.35h-0.1 M3.15,8.55h-0.1 M4.65,7.65L4.65,7.65 M3.15,8.55l-0.5,0.5l-0.1,0.1 M2.65,9.15h0.1h0.1
	h0.1h0.1l0.2-0.1 M3.35,8.45L3.35,8.45h-0.1 M3.45,9.05l-0.1-0.1 M13.15,18.25L13.15,18.25v0.1 M13.05,18.55v-0.1v-0.1 M13.05,18.25
	L13.05,18.25h0.1 M11.85,19.15L11.85,19.15v-0.1v-0.1 M9.25,22.45l-0.1,0.2v0.2 M9.15,23.05l1.1-0.6 M10.45,22.25l0.3-0.3l0.4-0.5
	 M12.85,19.15l0.1-0.1v-0.3 M12.95,18.55l-1.1,0.6 M11.65,19.45l-0.3,0.2l-0.4,0.5 M11.85,19.25L11.85,19.25h-0.1 M11.05,19.65h0.1
	 M10.05,10.45v0.1 M10.05,10.85L10.05,10.85h0.1h0.1 M10.75,11.45v-0.2l-0.2-0.1l-0.1-0.2l-0.1-0.1l-0.1-0.2 M11.05,18.65v0.2v0.1
	v0.2v0.1v0.2 M10.45,11.05l0.4,0.4 M10.35,10.95L10.35,10.95v0.1 M11.45,19.05l-0.1-0.2l-0.2-0.2 M11.65,19.15L11.65,19.15v-0.1
	 M10.25,11.15v-0.1h-0.1v-0.1h-0.1 M9.05,11.75L9.05,11.75v-0.1h-0.1v-0.1 M8.85,11.55l1.1-0.7 M9.95,10.75l-0.2-0.3l-0.3-0.4
	 M6.35,8.15l-0.4-0.1l-0.7-0.2 M4.55,7.75l-1.1,0.6 M3.55,8.55l0.1,0.2l0.3,0.5 M8.75,11.85L8.75,11.85v-0.1 M7.05,11.05l0.4,0.2
	l0.7,0.1 M8.65,11.85l-0.6-0.2 M9.05,11.85L9.05,11.85h-0.1h-0.1 M8.75,12.75v-0.1v-0.4 M7.95,11.85l0.1,0.1l0.2,0.1l0.1,0.2
	l0.1,0.1l0.1,0.2 M2.15,18.55l0.2,0.4l0.3,0.4l0.3,0.4l0.4,0.4l0.3,0.4 M7.25,22.65l0.2,0.1h0.4h0.3l0.3-0.1h0.3 M10.65,20.15v-0.3
	l0.1-0.4v-0.4v-0.4l-0.1-0.5 M8.95,13.55l-0.2-0.3l-0.3-0.4l-0.3-0.4l-0.3-0.4l-0.4-0.4 M3.95,9.45h-0.3h-0.3h-0.4h-0.3l-0.3,0.1
	 M0.55,11.95l-0.1,0.3v0.4v0.5v0.4v0.4 M10.65,17.55h0.1l0.2,0.3l0.2,0.3l0.2,0.2 M11.85,18.85l1.1-0.6 M12.95,17.95v-0.1v-0.4v-0.4
	v-0.4 M11.45,12.55l-0.3-0.3l-0.4-0.6 M10.25,11.25l-1.1,0.6 M9.15,12.15v0.1v0.3v0.4v0.4 M7.25,8.65v-0.1l0.1-0.1 M8.25,8.35h0.1
	l0.6,0.2l0.6,0.3l0.7,0.5l0.6,0.5l0.6,0.7l0.5,0.8l0.5,0.8l0.4,0.8l0.3,0.9l0.3,0.9l0.1,0.8 M8.65,6.15l0.3,0.1l0.7,0.3l0.7,0.3
	l0.7,0.5l0.7,0.6l0.7,0.7l0.6,0.8l0.6,0.8l0.5,0.9l0.5,0.9l0.4,0.9l0.3,1l0.2,0.9l0.1,0.9v0.9v0.8l-0.2,0.8 M8.05,6.55l0.3,0.1
	l0.7,0.2l0.7,0.4l0.7,0.5l0.7,0.6l0.7,0.6l0.6,0.8l0.6,0.8l0.5,0.9l0.5,0.9l0.4,1l0.3,0.9l0.2,1l0.1,0.9v0.9v0.8l-0.2,0.7
	 M7.25,6.85h0.3l0.7,0.1l0.6,0.3l0.7,0.3l0.7,0.5l0.7,0.6l0.6,0.6l0.6,0.8l0.6,0.8l0.5,0.8l0.4,0.9l0.4,0.9l0.3,0.9l0.2,0.9l0.1,0.9
	v0.9v0.7l-0.2,0.8l-0.2,0.6"/>
<path fill="none" stroke="#000000" stroke-width="0.5" stroke-linecap="round" stroke-linejoin="round" stroke-miterlimit="10" d="
	M21.55,2.35v-0.1l0.1-0.2l0.1-0.2v-0.1v-0.2l-0.1-0.1 M21.15,0.45l0.2-0.1h0.2l0.2-0.1l0.2,0.1h0.1 M26.85,10.35v0.1 M20.65,1.85
	l0.7-0.4 M21.35,1.45h0.1h0.1h0.1h0.1l0.1,0.1l0.1,0.1v0.2v0.2l-0.1,0.1l-0.1,0.2v0.1 M22.25,2.85v-0.1l0.2-0.3l0.1-0.3l0.1-0.2
	v-0.3l0.1-0.3 M22.75,1.35l-0.1-0.2v-0.2l-0.1-0.2l-0.1-0.1l-0.2-0.2h-0.1h-0.2h-0.2h-0.2l-0.2,0.1 M24.75,11.65l2.1-1.2
	 M21.35,0.55l-1.8,1.1 M19.05,1.65l2.1-1.2 M29.65,7.65l0.1-0.1l0.2-0.1l0.1-0.1l0.1-0.2v-0.2l0.1-0.1v-0.2v-0.2l-0.1-0.1
	 M28.25,8.45l1.4-0.8 M29.65,5.35l0.2-0.1h0.2h0.2h0.2h0.2 M27.95,8.55h0.1h0.1l0.1-0.1 M22.95,11.85h-0.1 M29.85,6.45l-1.4,0.7
	 M29.85,7.75h0.1l0.2-0.2l0.1-0.1l0.1-0.2v-0.2l0.1-0.1v-0.2v-0.1l-0.1-0.2v-0.1h-0.1h-0.1h-0.2l-0.1,0.1 M28.45,8.55l1.4-0.8
	 M28.45,7.15l-0.1,0.1l-0.1,0.2l-0.1,0.1l-0.1,0.2l-0.1,0.1v0.2l-0.1,0.2l0.1,0.1v0.1l0.1,0.1l0.1,0.1h0.1h0.1l0.1-0.1 M29.85,8.65
	l0.2-0.1l0.2-0.2l0.2-0.2l0.2-0.2l0.2-0.3l0.1-0.3l0.1-0.2l0.1-0.3l0.1-0.3v-0.2 M31.25,6.35v-0.3l-0.1-0.2l-0.1-0.2l-0.1-0.1
	l-0.1-0.1l-0.2-0.1h-0.2h-0.2l-0.2,0.1l-0.2,0.1 M29.85,8.65l-5.5,3.2 M24.25,8.45v-0.6 M24.35,11.85l-0.2,0.1h-0.1l-0.2,0.1h-0.2
	h-0.2l-0.2-0.1h-0.2l-0.1-0.1 M29.85,5.55l-5.5,3.1 M24.15,8.55l5.5-3.2 M24.15,8.55l-0.1,0.1h-0.1h-0.2h-0.1h-0.2h-0.1h-0.1
	l-0.1-0.1 M23.15,8.55L23.15,8.55 M22.95,8.65L22.95,8.65 M22.95,8.65l0.1,0.1l0.2,0.1h0.2h0.2h0.2h0.2l0.1-0.1l0.2-0.1
	 M24.75,11.65L24.75,11.65l-0.2,0.2l-0.2,0.2l-0.1,0.1 M22.65,12.55l0.8-0.5 M22.65,8.85l0.1,0.5l0.1,0.4v0.5l0.1,0.4v0.4l-0.1,0.4
	v0.4l-0.1,0.3l-0.1,0.4 M22.65,8.85l2.5-1.4 M18.35,1.95l0.1-0.1l0.3-0.1l0.3-0.1h0.3h0.3h0.3l0.3,0.1l0.4,0.1l0.3,0.2l0.4,0.2
	l0.3,0.2l0.4,0.3l0.3,0.2l0.3,0.4l0.4,0.3l0.3,0.4l0.3,0.3l0.2,0.4l0.3,0.5l0.2,0.4l0.3,0.4l0.2,0.5l0.1,0.4l0.2,0.5 M14.05,5.65
	l0.3,0.2l0.4,0.3l0.4,0.3l0.3,0.3l0.4,0.3l0.3,0.4l0.3,0.4l0.3,0.4l0.3,0.4l0.3,0.5l0.3,0.4l0.2,0.5l0.2,0.5l0.2,0.4l0.2,0.5
	l0.1,0.5l0.1,0.5l0.1,0.4l0.1,0.5v0.4v0.2 M13.35,5.25l0.3,0.2l0.4,0.2l0.4,0.3l0.4,0.3l0.4,0.3l0.3,0.4l0.4,0.4l0.3,0.4l0.3,0.4
	l0.3,0.4l0.3,0.5l0.3,0.5l0.3,0.5l0.2,0.5l0.2,0.4l0.2,0.5l0.1,0.5l0.2,0.5l0.1,0.5v0.5l0.1,0.5v0.4v0.3 M6.75,6.35l0.1-0.1l0.3-0.2
	l0.3-0.1l0.3-0.1l0.3-0.1h0.4h0.3h0.4l0.4,0.1l0.3,0.1l0.4,0.1l0.4,0.2l0.4,0.2 M11.05,6.45l0.4,0.3l0.4,0.3l0.4,0.3l0.4,0.3
	l0.4,0.4l0.3,0.3l0.4,0.5l0.3,0.4l0.4,0.4l0.3,0.5l0.3,0.5l0.2,0.5l0.3,0.5l0.2,0.5l0.2,0.5l0.2,0.5l0.1,0.5l0.2,0.5l0.1,0.5v0.5
	l0.1,0.5v0.5v0.4l-0.1,0.4v0.5l-0.1,0.3l-0.2,0.4l-0.1,0.3l-0.2,0.3l-0.2,0.3l-0.2,0.3l-0.3,0.2l-0.2,0.2l-0.3,0.1l-0.3,0.1
	 M5.45,12.75l-0.2-0.1l-0.3-0.1l-0.2-0.1h-0.3h-0.3h-0.2l-0.2,0.1l-0.2,0.1l-0.2,0.1l-0.2,0.2l-0.1,0.2l-0.1,0.3l-0.1,0.2l-0.1,0.3
	v0.3v0.4v0.3l0.1,0.4l0.1,0.3l0.1,0.4l0.1,0.4l0.2,0.3l0.2,0.4l0.2,0.3l0.2,0.4l0.2,0.3l0.3,0.3l0.3,0.3l0.2,0.2l0.3,0.2l0.3,0.2
	l0.3,0.1l0.3,0.2h0.3l0.2,0.1h0.3l0.2-0.1h0.3l0.2-0.1l0.1-0.2l0.2-0.2l0.2-0.2l0.1-0.2v-0.3l0.1-0.3v-0.3 M5.35,12.75l0.3,0.1
	l0.3,0.3l0.3,0.2l0.3,0.3l0.2,0.3l0.3,0.3l0.2,0.3l0.2,0.4l0.2,0.3l0.2,0.4l0.2,0.4l0.1,0.4l0.1,0.3l0.1,0.4v0.4v0.3v0.3v0.4
	l-0.1,0.3l-0.1,0.2l-0.1,0.3l-0.1,0.2l-0.2,0.2l-0.2,0.1l-0.2,0.1l-0.2,0.1h-0.3l-0.2,0.1l-0.3-0.1h-0.3l-0.2-0.1l-0.3-0.2l-0.3-0.1
	l-0.3-0.2l-0.3-0.3l-0.3-0.2l-0.3-0.3l-0.2-0.3l-0.3-0.3l-0.2-0.4l-0.2-0.3l-0.2-0.4l-0.2-0.4l-0.1-0.4l-0.1-0.3l-0.1-0.4l-0.1-0.4
	v-0.3v-0.4v-0.3l0.1-0.3v-0.3l0.1-0.2l0.2-0.3l0.1-0.2l0.2-0.1l0.2-0.2l0.2-0.1h0.3l0.2-0.1l0.3,0.1h0.2l0.3,0.1l0.3,0.1L5.35,12.75
	 M5.35,12.45l-0.3-0.2l-0.3-0.1l-0.3-0.1h-0.3l-0.3-0.1l-0.2,0.1h-0.3l-0.2,0.1l-0.2,0.1l-0.2,0.2l-0.2,0.2l-0.1,0.2l-0.1,0.3
	l-0.1,0.3l-0.1,0.3v0.3v0.4v0.3v0.4l0.1,0.4l0.1,0.4l0.1,0.4l0.2,0.4l0.2,0.4l0.2,0.3l0.2,0.4l0.2,0.4l0.3,0.3l0.3,0.3l0.3,0.3
	l0.3,0.3l0.3,0.2l0.3,0.2l0.3,0.2l0.3,0.1l0.3,0.1l0.3,0.1l0.2,0.1l0.3-0.1h0.3l0.2-0.1l0.2-0.1l0.2-0.1l0.2-0.2l0.2-0.2l0.1-0.3
	l0.1-0.2l0.1-0.3v-0.3l0.1-0.4v-0.3l-0.1-0.4v-0.4l-0.1-0.4l-0.1-0.4l-0.2-0.4l-0.2-0.4l-0.2-0.3l-0.2-0.4l-0.2-0.4l-0.2-0.3
	l-0.3-0.4l-0.3-0.3l-0.3-0.2l-0.3-0.3l-0.3-0.2L5.35,12.45 M5.55,12.05l0.3,0.2l0.3,0.3l0.4,0.2l0.3,0.3l0.3,0.4l0.2,0.3l0.3,0.4
	l0.2,0.3l0.3,0.4l0.2,0.4l0.2,0.4l0.1,0.4l0.1,0.5l0.1,0.4l0.1,0.4l0.1,0.4v0.3 M7.45,8.75l0.1-0.1l0.5-0.1l0.6,0.1l0.6,0.1
	 M8.25,9.15l0.2,0.1l0.6,0.2l0.6,0.4l0.6,0.5l0.6,0.5l0.5,0.7l0.2,0.2l0.3,0.4l0.4,0.7l0.4,0.8l0.2,0.7l0.2,0.8l0.1,0.7l0.1,0.7
	l-0.1,0.6 M7.45,8.65l0.3-0.2h0.1 M7.45,8.75l0.5-0.1h0.6l0.6,0.2l0.6,0.2l0.2,0.2 M8.65,9.45l0.3,0.1l0.6,0.4l0.6,0.4l0.6,0.6
	l0.5,0.6l0.5,0.7l0.4,0.7l0.4,0.8l0.3,0.7l0.1,0.6l0.1,0.5l0.1,0.6l-0.1,0.6v0.1 M9.35,9.65l0.1,0.1h0.1l0.5,0.3l0.5,0.4l0.5,0.5
	l0.5,0.5l0.4,0.7l0.4,0.6l0.3,0.7l0.3,0.6l0.2,0.7l0.1,0.6v0.6v0.2 M5.55,12.05l0.4,0.3l0.6,0.4l0.5,0.5l0.5,0.6l0.4,0.6l0.4,0.6
	l0.3,0.7l0.3,0.6l0.2,0.7l0.1,0.7v0.5l-0.1,0.6l-0.1,0.5l-0.3,0.4l-0.2,0.3 M5.55,12.05l0.3,0.2l0.3,0.1l0.3,0.2l0.3,0.2l0.3,0.2
	l0.2,0.2l0.3,0.3 M5.65,20.15l0.3,0.1l0.3,0.2l0.5,0.1l0.4,0.1h0.2l0.3-0.1l0.3-0.1l0.3-0.2l0.2-0.2l0.2-0.3l0.2-0.3l0.1-0.6
	l0.1-0.6v-0.2 M2.75,11.65l-0.1,0.1l-0.1,0.3l-0.2,0.2l-0.1,0.3l-0.1,0.3v0.4v0.3v0.2 M1.85,18.05l0.3,0.6l0.1,0.3l0.1,0.1
	 M3.55,20.55l0.2,0.2l0.3,0.2l0.3,0.2 M0.35,13.55l-0.1-0.1v-0.2v-0.2v-0.1v-0.2v-0.1v-0.2l0.1-0.1 M0.35,13.65v0.4l0.1,0.4l0.2,0.4
	 M0.65,11.55l-0.2,0.4l-0.1,0.2v0.2 M11.65,21.05h-0.1 M11.45,21.25l0.1-0.2 M6.75,22.55l0.5,0.3l0.3,0.1h0.3 M8.85,22.85
	L8.85,22.85l0.1-0.1l0.2-0.2l0.1-0.2 M6.65,8.25L6.65,8.25 M6.65,8.25l-0.3-0.2l-0.3-0.1h-0.2 M2.55,9.15h-0.1l-0.1,0.1l-0.1,0.2
	l-0.1,0.1l-0.1,0.1l-0.1,0.1l-0.1,0.1 M4.35,9.55l-0.5-0.2l-0.2-0.1l-0.2-0.1 M12.85,19.25v0.1 M13.05,18.65v0.2l-0.1,0.2l-0.1,0.2
	 M13.15,17.95v-0.2v-0.2v-0.1v-0.2 M12.85,15.95L12.85,15.95 M13.15,17.25v0.2v0.8 M12.85,15.95l0.2,0.6v0.4l0.1,0.3 M11.65,21.05
	l1.2-1.7 M9.05,9.65h0.1 M9.95,10.45L9.95,10.45l-0.2-0.3l-0.2-0.2l-0.4-0.3 M10.95,19.75L10.95,19.75l-0.1,0.3l-0.1,0.2l-0.2,0.4
	 M11.55,12.75l0.1,0.1 M11.55,12.75l-0.1-0.4l-0.2-0.3l-0.3-0.4v-0.1 M10.55,17.25l0.1,0.4l0.2,0.4l0.1,0.4 M9.05,9.65l-2.4-1.4
	 M3.25,18.25l-0.2-0.3l-0.4-0.7l-0.2-0.4l-0.1-0.3l-0.2-0.7l-0.1-0.4l-0.1-0.4l-0.1-0.4v-0.4v-0.4v-0.3l0.1-0.4l0.1-0.3l0.1-0.3
	l0.2-0.5l0.2-0.2l0.2-0.2l0.2-0.1l0.3-0.2h0.2l0.3-0.1h0.6l0.3,0.1h0.3l0.4,0.2l0.4,0.2 M8.45,21.05l-0.1,0.1l-0.5,0.1h-0.5
	l-0.6-0.1l-0.6-0.2l-0.6-0.3l-0.6-0.5l-0.6-0.6l-0.5-0.6l-0.5-0.7l-0.5-0.8l-0.4-0.8l-0.3-0.8l-0.2-0.8l-0.1-0.8 M9.45,18.05
	l-0.1-0.6l-0.1-0.6l-0.2-0.7l-0.2-0.6 M9.45,18.05l-0.1,0.6v0.4l-0.2,0.5l-0.2,0.4l-0.3,0.3l-0.4,0.2l-0.4,0.1h-0.4 M9.25,14.15
	l-0.2-0.7l-0.1-0.3l-0.1-0.3 M7.85,11.65L7.85,11.65l-0.4-0.3l-0.3-0.2l-0.4-0.1 M4.35,21.15L4.35,21.15 M4.35,21.15l2.4,1.4
	 M6.75,22.55L6.75,22.55 M9.25,22.35h0.1 M9.35,22.35l1.2-1.7 M10.55,20.65L10.55,20.65 M10.55,17.25L10.55,17.25 M9.35,14.15h-0.1
	 M6.75,11.05v-0.1 M6.75,10.95l-2.4-1.3 M4.35,9.65v-0.1 M1.85,9.85L1.85,9.85 M1.85,9.85l-1.2,1.7 M0.65,11.55L0.65,11.55
	 M0.65,14.85v0.1 M0.65,14.95l1.2,3.1 M1.85,18.05L1.85,18.05 M9.35,20.05l-0.1,0.2l-0.2,0.3l-0.2,0.2l-0.2,0.2l-0.3,0.2l-0.2,0.1
	l-0.3,0.1h-0.4h-0.3 M7.15,21.35l-0.5-0.1l-0.6-0.3l-0.4-0.2l-0.5-0.3l-0.4-0.4l-0.4-0.4l-0.4-0.4l-0.4-0.5l-0.3-0.5 M3.25,18.25
	l-0.3-0.4l-0.2-0.4l-0.3-0.4l-0.1-0.5l-0.2-0.4l-0.1-0.4l-0.2-0.5v-0.4l-0.1-0.4v-0.4v-0.4v-0.4l0.1-0.3v-0.3l0.2-0.3l0.1-0.3
	l0.2-0.2l0.2-0.2l0.2-0.2l0.2-0.1l0.3-0.1l0.2-0.1h0.3h0.3h0.4l0.3,0.1l0.3,0.1l0.3,0.2l0.4,0.2l0.3,0.2l0.3,0.3l0.4,0.3l0.3,0.3
	l0.3,0.3l0.3,0.4l0.2,0.3l0.3,0.4l0.2,0.4l0.3,0.5 M8.65,15.15l0.3,0.8l0.3,0.8l0.2,0.6l0.1,0.5v0.5v0.8l-0.1,0.7l-0.1,0.2
	 M12.85,15.95l-1.2-3.1 M10.55,17.25l-1.2-3.1 M22.25,0.45l-0.2-0.1 M30.85,5.45l-0.2-0.2 M18.75,15.25l5.5-3.1 M18.35,1.95
	l-5.4,3.1 M14.05,5.65l-0.4-0.2 M18.85,14.35v-0.4 M16.65,18.75l0.1-0.1l0.3-0.2l0.3-0.2l0.3-0.3l0.2-0.3l0.2-0.3l0.2-0.4l0.2-0.3
	l0.1-0.4l0.1-0.4l0.1-0.5l0.1-0.4v-0.5v-0.2 M13.65,5.45l-0.4-0.2l-0.4-0.2l-0.4-0.2l-0.5-0.1l-0.4-0.1h-0.4h-0.5h-0.4l-0.3,0.1
	l-0.4,0.1l-0.4,0.1l-0.3,0.2h-0.1 M15.05,19.75l1.6-1 M8.75,5.15l-1.6,0.9 M5.35,19.95l0.2,0.1 M2.15,14.05v0.3 M7.85,8.35v0.1h-0.1
	 M5.55,20.05l0.1,0.1 M2.15,13.75v0.1v0.2 M0.25,12.65v0.3 M2.35,19.05l0.1,0.2l0.3,0.4l0.3,0.4l0.4,0.4l0.1,0.1 M10.25,22.45
	L10.25,22.45l0.1-0.1 M0.35,13.65L0.35,13.65 M0.35,12.15v0.2l-0.1,0.2v0.1 M9.05,23.15l1.2-0.7 M8.75,23.15h0.1h0.1h0.1
	 M7.55,22.95h0.4l0.6,0.2h0.2 M10.35,22.35l0.1-0.1l0.4-0.4l0.3-0.4l0.3-0.2 M4.65,7.65L4.65,7.65h-0.1h-0.1h-0.1v0.1 M4.35,7.75
	l-1.1,0.6 M3.25,8.35h-0.1v0.1 M3.15,8.45l-0.2,0.1l-0.4,0.4l-0.3,0.4l-0.3,0.3 M5.85,7.95l-0.4-0.1l-0.5-0.1l-0.3-0.1 M13.05,18.65
	l0.1-0.1v-0.3 M13.15,18.25v-0.3 M13.15,17.25v-0.1 M11.05,11.85l-0.1-0.2l-0.3-0.4l-0.3-0.4l-0.4-0.4l-0.1-0.2 M7.25,8.65l0.1-0.2
	 M7.15,8.55h0.1l0.3-0.1h0.2h0.3h0.3l0.3,0.1l0.5,0.2l0.5,0.2l0.5,0.4l0.5,0.4l0.4,0.5l0.5,0.5l0.4,0.6l0.4,0.7l0.3,0.6l0.3,0.7
	l0.2,0.7l0.2,0.7l0.1,0.6v0.6v0.6v0.5l-0.2,0.4v0.2l-0.1,0.2 M7.05,6.25L7.05,6.25l-0.5,0.2 M13.95,20.35l0.3-0.3l0.3-0.2l0.2-0.2
	l0.2-0.2l0.2-0.5l0.2-0.4l0.1-0.3l0.1-0.3l0.1-0.4l0.1-0.5v-0.4v-0.3v-0.6l-0.1-0.7l-0.1-0.6l-0.2-0.7l-0.3-0.9l-0.3-0.9l-0.5-0.9
	l-0.5-0.8l-0.5-0.8l-0.6-0.7l-0.6-0.7l-0.7-0.6l-0.7-0.5l-0.3-0.2l-0.3-0.1l-0.4-0.2l-0.3-0.1l-0.4-0.2h-0.3l-0.3-0.1h-0.3h-0.3
	l-0.3,0.1l-0.3,0.1 M6.55,6.45l-0.3,0.2l-0.3,0.1 M13.35,20.65l0.3-0.2l0.3-0.1 M5.95,6.75l-0.3,0.3l-0.3,0.2l-0.2,0.3l-0.1,0.2
	 M11.55,21.05h0.2h0.2h0.3l0.3-0.1l0.4-0.1l0.4-0.2"/>
</svg>
