<?xml version="1.0" encoding="utf-8"?>
<!-- Generator: Adobe Illustrator 19.0.0, SVG Export Plug-In . SVG Version: 6.00 Build 0)  -->
<svg version="1.0" id="Layer_1" xmlns="http://www.w3.org/2000/svg" xmlns:xlink="http://www.w3.org/1999/xlink" x="0px" y="0px"
	 width="33.5px" height="141.1px" viewBox="0 0 33.5 141.1" enable-background="new 0 0 33.5 141.1" xml:space="preserve">
<path fill="none" stroke="#000000" stroke-width="0.51" stroke-miterlimit="10" d="M30.65,74.15l-0.1,0.3v0.3l-0.1,0.3l-0.2,0.3
	l-0.1,0.4l-0.2,0.2l-0.2,0.3l-0.3,0.2l-0.2,0.2l-0.3,0.2l-0.2,0.1h-0.2h-0.3l-0.2-0.1l-0.1-0.1l-0.2-0.1l-0.1-0.2v-0.3v-0.3v-0.3
	v-0.3l0.1-0.3l0.2-0.3l0.1-0.3l0.2-0.3l0.3-0.3l0.2-0.2l0.2-0.2l0.3-0.1l0.2-0.1l0.3-0.1h0.2l0.2,0.1l0.1,0.1l0.2,0.2l0.1,0.2v0.2
	L30.65,74.15 M30.65,97.25l-0.1,0.3v0.4l-0.1,0.3l-0.2,0.3l-0.1,0.3l-0.2,0.3l-0.2,0.3l-0.3,0.2l-0.2,0.2l-0.3,0.1l-0.2,0.1
	l-0.2,0.1l-0.3-0.1h-0.2l-0.1-0.1l-0.2-0.2l-0.1-0.2v-0.2v-0.3v-0.3v-0.3l0.1-0.3l0.2-0.4l0.1-0.3l0.2-0.3l0.3-0.2l0.2-0.3l0.2-0.1
	l0.3-0.2l0.2-0.1h0.3h0.2h0.2l0.1,0.2l0.2,0.1l0.1,0.2v0.3L30.65,97.25 M30.65,27.85l-0.1,0.3v0.3l-0.1,0.3l-0.2,0.4l-0.1,0.3
	l-0.2,0.3l-0.2,0.2l-0.3,0.2l-0.2,0.2l-0.3,0.2l-0.2,0.1h-0.2h-0.3l-0.2-0.1l-0.1-0.1l-0.2-0.1l-0.1-0.2v-0.3v-0.3v-0.3v-0.3
	l0.1-0.3l0.2-0.3l0.1-0.3l0.2-0.3l0.3-0.3l0.2-0.2l0.2-0.2l0.3-0.1l0.2-0.1l0.3-0.1h0.2l0.2,0.1l0.1,0.1l0.2,0.2l0.1,0.2v0.2
	L30.65,27.85 M30.65,51.05l-0.1,0.3v0.3l-0.1,0.3l-0.2,0.3l-0.1,0.3l-0.2,0.3l-0.2,0.3l-0.3,0.2l-0.2,0.2l-0.3,0.1l-0.2,0.1
	l-0.2,0.1l-0.3-0.1h-0.2l-0.1-0.1l-0.2-0.2l-0.1-0.2v-0.2v-0.3v-0.3v-0.3l0.1-0.3l0.2-0.4l0.1-0.3l0.2-0.3l0.3-0.2l0.2-0.2l0.2-0.2
	l0.3-0.2l0.2-0.1h0.3h0.2l0.2,0.1l0.1,0.1l0.2,0.1l0.1,0.2v0.3L30.65,51.05 M30.65,120.45l-0.1,0.3v0.3l-0.1,0.3l-0.2,0.3l-0.1,0.3
	l-0.2,0.3l-0.2,0.3l-0.3,0.2l-0.2,0.2l-0.3,0.2l-0.2,0.1h-0.2h-0.3l-0.2-0.1l-0.1-0.1l-0.2-0.2l-0.1-0.2v-0.2v-0.3v-0.3v-0.3
	l0.1-0.3l0.2-0.3l0.1-0.3l0.2-0.3l0.3-0.3l0.2-0.2l0.2-0.2l0.3-0.1l0.2-0.1l0.3-0.1h0.2l0.2,0.1l0.1,0.1l0.2,0.2l0.1,0.2v0.2
	L30.65,120.45"/>
<g id="XMLID_1_">
	
		<line fill="none" stroke="#000000" stroke-width="0.25" stroke-linecap="round" stroke-linejoin="round" stroke-miterlimit="10" x1="7.35" y1="8.45" x2="7.35" y2="10.15"/>
	
		<line fill="none" stroke="#000000" stroke-width="0.25" stroke-linecap="round" stroke-linejoin="round" stroke-miterlimit="10" x1="11.25" y1="19.05" x2="11.25" y2="118.85"/>
	
		<line fill="none" stroke="#000000" stroke-width="0.25" stroke-linecap="round" stroke-linejoin="round" stroke-miterlimit="10" x1="7.85" y1="8.45" x2="7.85" y2="10.45"/>
	
		<line fill="none" stroke="#000000" stroke-width="0.25" stroke-linecap="round" stroke-linejoin="round" stroke-miterlimit="10" x1="6.05" y1="9.15" x2="6.05" y2="9.55"/>
	
		<line fill="none" stroke="#000000" stroke-width="0.25" stroke-linecap="round" stroke-linejoin="round" stroke-miterlimit="10" x1="8.05" y1="22.15" x2="8.05" y2="122.05"/>
	
		<line fill="none" stroke="#000000" stroke-width="0.25" stroke-linecap="round" stroke-linejoin="round" stroke-miterlimit="10" x1="1.05" y1="20.45" x2="1.05" y2="120.35"/>
	
		<line fill="none" stroke="#000000" stroke-width="0.25" stroke-linecap="round" stroke-linejoin="round" stroke-miterlimit="10" x1="6.55" y1="23.05" x2="6.55" y2="122.95"/>
	
		<line fill="none" stroke="#000000" stroke-width="0.25" stroke-linecap="round" stroke-linejoin="round" stroke-miterlimit="10" x1="5.55" y1="23.05" x2="5.55" y2="122.95"/>
	
		<line fill="none" stroke="#000000" stroke-width="0.25" stroke-linecap="round" stroke-linejoin="round" stroke-miterlimit="10" x1="11.75" y1="19.15" x2="11.75" y2="118.95"/>
	
		<line fill="none" stroke="#000000" stroke-width="0.25" stroke-linecap="round" stroke-linejoin="round" stroke-miterlimit="10" x1="19.35" y1="12.95" x2="19.35" y2="15.05"/>
	
		<line fill="none" stroke="#000000" stroke-width="0.25" stroke-linecap="round" stroke-linejoin="round" stroke-miterlimit="10" x1="12.55" y1="27.15" x2="12.55" y2="126.95"/>
	
		<line fill="none" stroke="#000000" stroke-width="0.25" stroke-linecap="round" stroke-linejoin="round" stroke-miterlimit="10" x1="29.15" y1="31.95" x2="29.15" y2="48.65"/>
	
		<line fill="none" stroke="#000000" stroke-width="0.25" stroke-linecap="round" stroke-linejoin="round" stroke-miterlimit="10" x1="29.15" y1="15.45" x2="29.15" y2="26.15"/>
	
		<line fill="none" stroke="#000000" stroke-width="0.25" stroke-linecap="round" stroke-linejoin="round" stroke-miterlimit="10" x1="29.15" y1="123.95" x2="29.15" y2="134.65"/>
	
		<line fill="none" stroke="#000000" stroke-width="0.25" stroke-linecap="round" stroke-linejoin="round" stroke-miterlimit="10" x1="29.15" y1="101.45" x2="29.15" y2="118.05"/>
	
		<line fill="none" stroke="#000000" stroke-width="0.25" stroke-linecap="round" stroke-linejoin="round" stroke-miterlimit="10" x1="29.15" y1="78.25" x2="29.15" y2="94.95"/>
	
		<line fill="none" stroke="#000000" stroke-width="0.25" stroke-linecap="round" stroke-linejoin="round" stroke-miterlimit="10" x1="29.15" y1="55.15" x2="29.15" y2="71.75"/>
	
		<line fill="none" stroke="#000000" stroke-width="0.25" stroke-linecap="round" stroke-linejoin="round" stroke-miterlimit="10" x1="17.05" y1="129.55" x2="17.05" y2="29.75"/>
	
		<line fill="none" stroke="#000000" stroke-width="0.25" stroke-linecap="round" stroke-linejoin="round" stroke-miterlimit="10" x1="21.05" y1="29.75" x2="21.05" y2="129.55"/>
</g>
<g id="XMLID_2_">
	
		<polyline fill="none" stroke="#000000" stroke-width="0.5" stroke-linecap="round" stroke-linejoin="round" stroke-miterlimit="10" points="
		11.25,129.75 11.35,129.75 11.45,129.75 11.55,129.75 11.65,129.75 11.75,129.75 11.75,129.85 	"/>
	
		<line fill="none" stroke="#000000" stroke-width="0.5" stroke-linecap="round" stroke-linejoin="round" stroke-miterlimit="10" x1="8.25" y1="129.75" x2="11.25" y2="129.75"/>
	
		<polyline fill="none" stroke="#000000" stroke-width="0.5" stroke-linecap="round" stroke-linejoin="round" stroke-miterlimit="10" points="
		1.05,131.15 0.65,130.85 0.45,130.65 0.25,130.35 0.25,129.95 	"/>
	
		<polyline fill="none" stroke="#000000" stroke-width="0.5" stroke-linecap="round" stroke-linejoin="round" stroke-miterlimit="10" points="
		8.05,132.85 8.15,132.85 8.25,132.75 8.25,132.65 8.25,132.55 	"/>
	
		<line fill="none" stroke="#000000" stroke-width="0.5" stroke-linecap="round" stroke-linejoin="round" stroke-miterlimit="10" x1="6.55" y1="133.75" x2="8.05" y2="132.85"/>
	
		<line fill="none" stroke="#000000" stroke-width="0.5" stroke-linecap="round" stroke-linejoin="round" stroke-miterlimit="10" x1="1.05" y1="131.15" x2="5.55" y2="133.75"/>
	
		<polyline fill="none" stroke="#000000" stroke-width="0.5" stroke-linecap="round" stroke-linejoin="round" stroke-miterlimit="10" points="
		5.55,133.75 5.65,133.85 5.75,133.85 5.95,133.85 6.05,133.85 6.25,133.85 6.35,133.85 6.45,133.85 6.55,133.75 	"/>
	
		<line fill="none" stroke="#000000" stroke-width="0.5" stroke-linecap="round" stroke-linejoin="round" stroke-miterlimit="10" x1="11.75" y1="129.85" x2="12.35" y2="130.15"/>
	
		<polyline fill="none" stroke="#000000" stroke-width="0.5" stroke-linecap="round" stroke-linejoin="round" stroke-miterlimit="10" points="
		29.15,27.25 29.55,27.15 29.85,27.15 30.15,27.35 30.25,27.65 30.25,28.15 30.15,28.65 29.95,29.25 29.65,29.75 29.25,30.05 
		29.15,30.15 	"/>
	
		<polyline fill="none" stroke="#000000" stroke-width="0.5" stroke-linecap="round" stroke-linejoin="round" stroke-miterlimit="10" points="
		29.15,50.45 29.55,50.25 29.85,50.25 30.15,50.45 30.25,50.85 30.25,51.25 30.15,51.85 29.95,52.35 29.65,52.85 29.25,53.25 
		29.15,53.35 	"/>
	
		<polyline fill="none" stroke="#000000" stroke-width="0.5" stroke-linecap="round" stroke-linejoin="round" stroke-miterlimit="10" points="
		29.15,73.55 29.35,73.45 29.55,73.45 29.65,73.35 29.85,73.45 29.95,73.45 30.15,73.65 30.25,73.75 30.25,73.95 30.25,74.15 
		30.25,74.45 30.25,74.65 30.15,74.95 30.05,75.25 29.95,75.55 29.85,75.75 29.65,75.95 29.45,76.15 29.25,76.35 29.15,76.45 	"/>
	
		<polyline fill="none" stroke="#000000" stroke-width="0.5" stroke-linecap="round" stroke-linejoin="round" stroke-miterlimit="10" points="
		29.15,96.75 29.35,96.65 29.55,96.55 29.65,96.55 29.85,96.55 29.95,96.65 30.15,96.75 30.25,96.85 30.25,97.05 30.25,97.35 
		30.25,97.55 30.25,97.85 30.15,98.15 30.05,98.35 29.95,98.65 29.85,98.95 29.65,99.15 29.45,99.35 29.25,99.55 29.15,99.65 	"/>
	
		<polyline fill="none" stroke="#000000" stroke-width="0.5" stroke-linecap="round" stroke-linejoin="round" stroke-miterlimit="10" points="
		29.15,119.85 29.35,119.75 29.55,119.75 29.65,119.65 29.85,119.75 29.95,119.75 30.15,119.85 30.25,120.05 30.25,120.25 
		30.25,120.45 30.25,120.75 30.25,120.95 30.15,121.25 30.05,121.55 29.95,121.75 29.85,122.05 29.65,122.25 29.45,122.45 
		29.25,122.65 29.15,122.75 	"/>
	
		<polyline fill="none" stroke="#000000" stroke-width="0.5" stroke-linecap="round" stroke-linejoin="round" stroke-miterlimit="10" points="
		29.15,135.75 29.95,135.25 30.75,134.65 31.35,134.05 31.95,133.45 32.45,132.75 32.75,132.15 33.05,131.45 33.25,130.75 
		33.25,129.95 	"/>
	
		<polyline fill="none" stroke="#000000" stroke-width="0.5" stroke-linecap="round" stroke-linejoin="round" stroke-miterlimit="10" points="
		12.35,137.55 12.35,137.55 12.45,137.65 12.45,137.75 12.55,137.85 	"/>
	
		<line fill="none" stroke="#000000" stroke-width="0.5" stroke-linecap="round" stroke-linejoin="round" stroke-miterlimit="10" x1="12.55" y1="137.85" x2="17.05" y2="140.45"/>
	
		<polyline fill="none" stroke="#000000" stroke-width="0.5" stroke-linecap="round" stroke-linejoin="round" stroke-miterlimit="10" points="
		29.15,27.25 28.75,27.55 28.45,27.85 28.25,28.25 28.05,28.65 27.95,29.05 27.85,29.45 27.95,29.75 28.05,30.05 28.25,30.25 
		28.45,30.35 28.75,30.35 29.15,30.15 	"/>
	
		<line fill="none" stroke="#000000" stroke-width="0.5" stroke-linecap="round" stroke-linejoin="round" stroke-miterlimit="10" x1="21.05" y1="140.45" x2="29.15" y2="135.75"/>
	
		<polyline fill="none" stroke="#000000" stroke-width="0.5" stroke-linecap="round" stroke-linejoin="round" stroke-miterlimit="10" points="
		29.15,119.85 28.75,120.05 28.45,120.45 28.25,120.75 28.05,121.25 27.95,121.65 27.85,122.05 27.95,122.35 28.05,122.65 
		28.25,122.85 28.45,122.95 28.75,122.85 29.15,122.75 	"/>
	
		<polyline fill="none" stroke="#000000" stroke-width="0.5" stroke-linecap="round" stroke-linejoin="round" stroke-miterlimit="10" points="
		29.15,96.75 28.75,96.95 28.45,97.25 28.25,97.65 28.05,98.05 27.95,98.45 27.85,98.85 27.95,99.25 28.05,99.55 28.25,99.65 
		28.45,99.75 28.75,99.75 29.15,99.65 	"/>
	
		<polyline fill="none" stroke="#000000" stroke-width="0.5" stroke-linecap="round" stroke-linejoin="round" stroke-miterlimit="10" points="
		29.15,73.55 28.75,73.85 28.45,74.15 28.25,74.55 28.05,74.95 27.95,75.35 27.85,75.75 27.95,76.05 28.05,76.35 28.25,76.55 
		28.45,76.65 28.75,76.65 29.15,76.45 	"/>
	
		<polyline fill="none" stroke="#000000" stroke-width="0.5" stroke-linecap="round" stroke-linejoin="round" stroke-miterlimit="10" points="
		29.15,50.45 28.75,50.65 28.45,50.95 28.25,51.35 28.05,51.75 27.95,52.15 27.85,52.55 27.95,52.95 28.05,53.25 28.25,53.45 
		28.45,53.45 28.75,53.45 29.15,53.35 	"/>
	
		<line fill="none" stroke="#000000" stroke-width="0.5" stroke-linecap="round" stroke-linejoin="round" stroke-miterlimit="10" x1="9.05" y1="2.65" x2="1.05" y2="7.35"/>
	
		<polyline fill="none" stroke="#000000" stroke-width="0.5" stroke-linecap="round" stroke-linejoin="round" stroke-miterlimit="10" points="
		1.05,7.35 0.65,7.55 0.45,7.85 0.25,8.15 0.25,8.45 0.25,8.75 0.45,9.15 0.65,9.35 1.05,9.65 	"/>
	
		<line fill="none" stroke="#000000" stroke-width="0.5" stroke-linecap="round" stroke-linejoin="round" stroke-miterlimit="10" x1="1.05" y1="9.65" x2="5.55" y2="12.25"/>
	
		<polyline fill="none" stroke="#000000" stroke-width="0.5" stroke-linecap="round" stroke-linejoin="round" stroke-miterlimit="10" points="
		5.55,12.25 5.65,12.25 5.75,12.35 5.95,12.35 6.05,12.35 6.25,12.35 6.35,12.35 6.45,12.25 6.55,12.25 	"/>
	
		<line fill="none" stroke="#000000" stroke-width="0.5" stroke-linecap="round" stroke-linejoin="round" stroke-miterlimit="10" x1="6.55" y1="12.25" x2="8.05" y2="11.35"/>
	
		<polyline fill="none" stroke="#000000" stroke-width="0.5" stroke-linecap="round" stroke-linejoin="round" stroke-miterlimit="10" points="
		8.05,11.35 8.15,11.35 8.25,11.25 8.25,11.15 8.25,11.05 8.25,10.95 8.15,10.85 8.05,10.75 	"/>
	
		<line fill="none" stroke="#000000" stroke-width="0.5" stroke-linecap="round" stroke-linejoin="round" stroke-miterlimit="10" x1="8.05" y1="10.75" x2="6.05" y2="9.65"/>
	
		<polyline fill="none" stroke="#000000" stroke-width="0.5" stroke-linecap="round" stroke-linejoin="round" stroke-miterlimit="10" points="
		6.05,9.65 5.95,9.55 5.95,9.45 5.85,9.45 5.85,9.35 5.85,9.25 5.95,9.15 6.05,9.05 	"/>
	
		<line fill="none" stroke="#000000" stroke-width="0.5" stroke-linecap="round" stroke-linejoin="round" stroke-miterlimit="10" x1="6.05" y1="9.05" x2="7.35" y2="8.35"/>
	
		<polyline fill="none" stroke="#000000" stroke-width="0.5" stroke-linecap="round" stroke-linejoin="round" stroke-miterlimit="10" points="
		7.35,8.35 7.45,8.25 7.55,8.25 7.65,8.25 7.75,8.15 7.85,8.15 	"/>
	
		<line fill="none" stroke="#000000" stroke-width="0.5" stroke-linecap="round" stroke-linejoin="round" stroke-miterlimit="10" x1="7.85" y1="8.15" x2="11.25" y2="8.15"/>
	
		<polyline fill="none" stroke="#000000" stroke-width="0.5" stroke-linecap="round" stroke-linejoin="round" stroke-miterlimit="10" points="
		11.25,8.15 11.35,8.15 11.45,8.15 11.45,8.25 11.55,8.25 11.65,8.25 11.75,8.25 11.75,8.35 	"/>
	
		<line fill="none" stroke="#000000" stroke-width="0.5" stroke-linecap="round" stroke-linejoin="round" stroke-miterlimit="10" x1="11.75" y1="8.35" x2="19.35" y2="12.65"/>
	
		<polyline fill="none" stroke="#000000" stroke-width="0.5" stroke-linecap="round" stroke-linejoin="round" stroke-miterlimit="10" points="
		19.35,12.65 19.45,12.75 19.55,12.75 19.55,12.85 19.55,12.95 	"/>
	
		<line fill="none" stroke="#000000" stroke-width="0.5" stroke-linecap="round" stroke-linejoin="round" stroke-miterlimit="10" x1="19.55" y1="12.95" x2="19.55" y2="14.95"/>
	
		<polyline fill="none" stroke="#000000" stroke-width="0.5" stroke-linecap="round" stroke-linejoin="round" stroke-miterlimit="10" points="
		19.55,14.95 19.55,14.95 19.55,15.05 19.55,15.15 19.45,15.15 19.45,15.25 19.35,15.25 	"/>
	
		<line fill="none" stroke="#000000" stroke-width="0.5" stroke-linecap="round" stroke-linejoin="round" stroke-miterlimit="10" x1="19.35" y1="15.25" x2="18.05" y2="15.95"/>
	
		<polyline fill="none" stroke="#000000" stroke-width="0.5" stroke-linecap="round" stroke-linejoin="round" stroke-miterlimit="10" points="
		18.05,15.95 17.95,16.05 17.85,16.05 17.75,16.15 17.55,16.15 17.45,16.15 17.35,16.05 17.15,16.05 17.05,15.95 	"/>
	
		<line fill="none" stroke="#000000" stroke-width="0.5" stroke-linecap="round" stroke-linejoin="round" stroke-miterlimit="10" x1="17.05" y1="15.95" x2="15.05" y2="14.85"/>
	
		<polyline fill="none" stroke="#000000" stroke-width="0.5" stroke-linecap="round" stroke-linejoin="round" stroke-miterlimit="10" points="
		15.05,14.85 14.95,14.75 14.85,14.75 14.75,14.75 14.55,14.75 14.45,14.75 14.35,14.75 14.15,14.75 14.05,14.85 	"/>
	
		<line fill="none" stroke="#000000" stroke-width="0.5" stroke-linecap="round" stroke-linejoin="round" stroke-miterlimit="10" x1="14.05" y1="14.85" x2="12.55" y2="15.75"/>
	
		<polyline fill="none" stroke="#000000" stroke-width="0.5" stroke-linecap="round" stroke-linejoin="round" stroke-miterlimit="10" points="
		12.55,15.75 12.45,15.75 12.45,15.85 12.35,15.95 12.35,16.05 12.45,16.15 12.45,16.25 12.55,16.25 	"/>
	
		<line fill="none" stroke="#000000" stroke-width="0.5" stroke-linecap="round" stroke-linejoin="round" stroke-miterlimit="10" x1="12.55" y1="16.25" x2="17.05" y2="18.85"/>
	
		<line fill="none" stroke="#000000" stroke-width="0.5" stroke-linecap="round" stroke-linejoin="round" stroke-miterlimit="10" x1="21.05" y1="18.85" x2="29.15" y2="14.25"/>
	
		<polyline fill="none" stroke="#000000" stroke-width="0.5" stroke-linecap="round" stroke-linejoin="round" stroke-miterlimit="10" points="
		29.15,14.25 29.95,13.75 30.75,13.15 31.35,12.55 31.95,11.95 32.45,11.25 32.75,10.55 33.05,9.85 33.25,9.15 33.25,8.45 
		33.25,7.75 33.05,7.05 32.75,6.35 32.45,5.65 31.95,5.05 31.35,4.35 30.75,3.75 29.95,3.25 29.15,2.65 28.25,2.25 27.25,1.75 
		26.15,1.35 25.05,1.05 23.95,0.75 22.75,0.55 21.55,0.45 20.35,0.35 19.05,0.25 17.85,0.35 16.65,0.45 15.45,0.55 14.25,0.75 
		13.15,1.05 12.05,1.35 10.95,1.75 9.95,2.25 9.05,2.65 	"/>
	
		<polyline fill="none" stroke="#000000" stroke-width="0.5" stroke-linecap="round" stroke-linejoin="round" stroke-miterlimit="10" points="
		16.55,9.95 17.05,10.15 17.55,10.35 18.15,10.45 18.75,10.55 19.35,10.55 20.05,10.45 20.55,10.35 21.15,10.15 21.55,9.95 
		21.95,9.65 22.35,9.35 22.55,9.05 22.65,8.65 22.65,8.25 22.55,7.95 22.35,7.65 21.95,7.35 21.55,7.05 21.15,6.75 20.55,6.65 
		20.05,6.45 19.35,6.45 18.75,6.45 18.15,6.45 17.55,6.65 17.05,6.75 16.55,7.05 16.15,7.35 15.85,7.65 15.65,7.95 15.55,8.25 
		15.55,8.65 15.65,9.05 15.85,9.35 16.15,9.65 16.55,9.95 	"/>
	
		<polyline fill="none" stroke="#000000" stroke-width="0.5" stroke-linecap="round" stroke-linejoin="round" stroke-miterlimit="10" points="
		17.05,18.85 17.55,19.05 18.05,19.25 18.55,19.35 19.05,19.35 19.65,19.35 20.15,19.25 20.65,19.05 21.05,18.85 	"/>
	
		<polyline fill="none" stroke="#000000" stroke-width="0.5" stroke-linecap="round" stroke-linejoin="round" stroke-miterlimit="10" points="
		21.05,140.45 20.65,140.65 20.15,140.75 19.65,140.85 19.05,140.85 18.55,140.85 18.05,140.75 17.55,140.65 17.05,140.45 	"/>
	
		<line fill="none" stroke="#000000" stroke-width="0.5" stroke-linecap="round" stroke-linejoin="round" stroke-miterlimit="10" x1="0.25" y1="8.45" x2="0.25" y2="129.95"/>
	
		<line fill="none" stroke="#000000" stroke-width="0.5" stroke-linecap="round" stroke-linejoin="round" stroke-miterlimit="10" x1="8.25" y1="132.55" x2="8.25" y2="11.05"/>
	
		<line fill="none" stroke="#000000" stroke-width="0.5" stroke-linecap="round" stroke-linejoin="round" stroke-miterlimit="10" x1="33.25" y1="129.95" x2="33.25" y2="8.45"/>
	
		<line fill="none" stroke="#000000" stroke-width="0.5" stroke-linecap="round" stroke-linejoin="round" stroke-miterlimit="10" x1="12.35" y1="15.95" x2="12.35" y2="137.55"/>
</g>
</svg>
