<?xml version="1.0" encoding="utf-8"?>
<!-- Generator: Adobe Illustrator 19.0.0, SVG Export Plug-In . SVG Version: 6.00 Build 0)  -->
<svg version="1.0" id="Layer_1" xmlns="http://www.w3.org/2000/svg" xmlns:xlink="http://www.w3.org/1999/xlink" x="0px" y="0px"
	 width="100.9px" height="82.2px" viewBox="0 0 100.9 82.2" enable-background="new 0 0 100.9 82.2" xml:space="preserve">
<g id="XMLID_14_">
	
		<line fill="none" stroke="#000000" stroke-width="0.25" stroke-linecap="round" stroke-linejoin="round" stroke-miterlimit="10" x1="9.05" y1="16.95" x2="9.05" y2="11.05"/>
	
		<line fill="none" stroke="#000000" stroke-width="0.25" stroke-linecap="round" stroke-linejoin="round" stroke-miterlimit="10" x1="10.05" y1="22.95" x2="10.05" y2="20.45"/>
	
		<line fill="none" stroke="#000000" stroke-width="0.25" stroke-linecap="round" stroke-linejoin="round" stroke-miterlimit="10" x1="81.05" y1="63.55" x2="79.95" y2="62.95"/>
	
		<line fill="none" stroke="#000000" stroke-width="0.25" stroke-linecap="round" stroke-linejoin="round" stroke-miterlimit="10" x1="77.85" y1="64.05" x2="79.35" y2="64.85"/>
	
		<line fill="none" stroke="#000000" stroke-width="0.25" stroke-linecap="round" stroke-linejoin="round" stroke-miterlimit="10" x1="79.85" y1="64.95" x2="80.95" y2="64.25"/>
	
		<polyline fill="none" stroke="#000000" stroke-width="0.25" stroke-linecap="round" stroke-linejoin="round" stroke-miterlimit="10" points="
		79.75,65.15 80.05,65.25 80.35,65.35 	"/>
	
		<polyline fill="none" stroke="#000000" stroke-width="0.25" stroke-linecap="round" stroke-linejoin="round" stroke-miterlimit="10" points="
		78.65,66.55 78.65,66.55 78.65,66.35 78.75,66.05 78.95,65.85 	"/>
	
		<polyline fill="none" stroke="#000000" stroke-width="0.25" stroke-linecap="round" stroke-linejoin="round" stroke-miterlimit="10" points="
		81.55,64.95 81.45,64.95 81.35,64.75 81.25,64.65 	"/>
	
		<line fill="none" stroke="#000000" stroke-width="0.25" stroke-linecap="round" stroke-linejoin="round" stroke-miterlimit="10" x1="78.15" y1="66.55" x2="75.75" y2="65.15"/>
	
		<line fill="none" stroke="#000000" stroke-width="0.25" stroke-linecap="round" stroke-linejoin="round" stroke-miterlimit="10" x1="81.65" y1="62.25" x2="81.65" y2="64.75"/>
	
		<polyline fill="none" stroke="#000000" stroke-width="0.25" stroke-linecap="round" stroke-linejoin="round" stroke-miterlimit="10" points="
		81.55,65.45 81.55,65.55 81.45,66.05 81.25,66.45 81.05,66.75 	"/>
	
		<line fill="none" stroke="#000000" stroke-width="0.25" stroke-linecap="round" stroke-linejoin="round" stroke-miterlimit="10" x1="6.75" y1="53.85" x2="37.45" y2="71.55"/>
	
		<line fill="none" stroke="#000000" stroke-width="0.25" stroke-linecap="round" stroke-linejoin="round" stroke-miterlimit="10" x1="96.05" y1="67.65" x2="99.95" y2="65.45"/>
	
		<line fill="none" stroke="#000000" stroke-width="0.25" stroke-linecap="round" stroke-linejoin="round" stroke-miterlimit="10" x1="37.45" y1="73.15" x2="6.75" y2="55.45"/>
	
		<line fill="none" stroke="#000000" stroke-width="0.25" stroke-linecap="round" stroke-linejoin="round" stroke-miterlimit="10" x1="39.25" y1="70.95" x2="6.45" y2="51.95"/>
	
		<line fill="none" stroke="#000000" stroke-width="0.25" stroke-linecap="round" stroke-linejoin="round" stroke-miterlimit="10" x1="56.05" y1="80.75" x2="56.05" y2="76.05"/>
	
		<line fill="none" stroke="#000000" stroke-width="0.25" stroke-linecap="round" stroke-linejoin="round" stroke-miterlimit="10" x1="64.55" y1="72.65" x2="64.55" y2="65.25"/>
	
		<line fill="none" stroke="#000000" stroke-width="0.25" stroke-linecap="round" stroke-linejoin="round" stroke-miterlimit="10" x1="95.35" y1="66.55" x2="95.35" y2="52.35"/>
	
		<line fill="none" stroke="#000000" stroke-width="0.25" stroke-linecap="round" stroke-linejoin="round" stroke-miterlimit="10" x1="73.45" y1="65.05" x2="73.45" y2="57.65"/>
	
		<line fill="none" stroke="#000000" stroke-width="0.25" stroke-linecap="round" stroke-linejoin="round" stroke-miterlimit="10" x1="84.05" y1="60.15" x2="84.05" y2="54.35"/>
	
		<line fill="none" stroke="#000000" stroke-width="0.25" stroke-linecap="round" stroke-linejoin="round" stroke-miterlimit="10" x1="79.15" y1="46.85" x2="19.95" y2="12.65"/>
	
		<line fill="none" stroke="#000000" stroke-width="0.25" stroke-linecap="round" stroke-linejoin="round" stroke-miterlimit="10" x1="9.35" y1="48.75" x2="49.05" y2="71.65"/>
	
		<line fill="none" stroke="#000000" stroke-width="0.25" stroke-linecap="round" stroke-linejoin="round" stroke-miterlimit="10" x1="66.65" y1="51.15" x2="18.35" y2="23.25"/>
</g>
<g id="XMLID_15_">
	
		<polyline fill="none" stroke="#000000" stroke-width="0.5" stroke-linecap="round" stroke-linejoin="round" stroke-miterlimit="10" points="
		9.05,16.25 9.05,16.45 9.05,16.95 9.05,17.55 	"/>
	
		<line fill="none" stroke="#000000" stroke-width="0.5" stroke-linecap="round" stroke-linejoin="round" stroke-miterlimit="10" x1="9.15" y1="17.95" x2="9.75" y2="25.55"/>
	
		<polyline fill="none" stroke="#000000" stroke-width="0.5" stroke-linecap="round" stroke-linejoin="round" stroke-miterlimit="10" points="
		9.05,17.55 9.05,17.65 9.05,17.85 9.15,17.95 	"/>
	
		<polyline fill="none" stroke="#000000" stroke-width="0.5" stroke-linecap="round" stroke-linejoin="round" stroke-miterlimit="10" points="
		11.75,35.05 11.75,34.95 11.75,34.55 11.75,34.15 11.95,33.75 12.15,33.35 12.45,33.05 12.75,32.75 13.15,32.55 	"/>
	
		<line fill="none" stroke="#000000" stroke-width="0.5" stroke-linecap="round" stroke-linejoin="round" stroke-miterlimit="10" x1="0.25" y1="46.75" x2="0.25" y2="46.75"/>
	
		<polyline fill="none" stroke="#000000" stroke-width="0.5" stroke-linecap="round" stroke-linejoin="round" stroke-miterlimit="10" points="
		98.95,68.95 99.15,68.85 99.55,68.45 99.85,68.05 100.15,67.55 100.35,67.05 100.55,66.45 100.65,65.75 100.65,65.05 	"/>
	
		<polyline fill="none" stroke="#000000" stroke-width="0.5" stroke-linecap="round" stroke-linejoin="round" stroke-miterlimit="10" points="
		89.25,59.55 89.45,59.85 89.65,60.25 	"/>
	
		<polyline fill="none" stroke="#000000" stroke-width="0.5" stroke-linecap="round" stroke-linejoin="round" stroke-miterlimit="10" points="
		87.65,59.55 87.65,59.65 87.95,60.25 88.35,60.95 88.75,61.55 89.15,62.05 89.65,62.55 90.15,63.05 90.65,63.35 	"/>
	
		<polyline fill="none" stroke="#000000" stroke-width="0.5" stroke-linecap="round" stroke-linejoin="round" stroke-miterlimit="10" points="
		61.85,63.95 61.85,63.85 61.85,63.45 61.95,63.05 62.05,62.65 62.25,62.25 62.55,61.95 62.85,61.65 63.25,61.55 63.25,61.45 	"/>
	
		<polyline fill="none" stroke="#000000" stroke-width="0.5" stroke-linecap="round" stroke-linejoin="round" stroke-miterlimit="10" points="
		1.45,52.35 1.65,52.45 1.75,52.45 1.85,52.45 1.95,52.35 1.95,52.25 1.95,52.15 1.95,52.05 1.85,51.75 1.75,51.55 1.65,51.25 
		1.45,50.75 	"/>
	
		<polyline fill="none" stroke="#000000" stroke-width="0.5" stroke-linecap="round" stroke-linejoin="round" stroke-miterlimit="10" points="
		0.75,47.05 0.85,47.05 0.95,46.95 1.15,46.85 1.35,46.55 1.65,46.25 1.85,45.85 2.05,45.45 2.35,45.05 2.45,44.75 	"/>
	
		<line fill="none" stroke="#000000" stroke-width="0.5" stroke-linecap="round" stroke-linejoin="round" stroke-miterlimit="10" x1="86.65" y1="73.15" x2="73.75" y2="65.65"/>
	
		<polyline fill="none" stroke="#000000" stroke-width="0.5" stroke-linecap="round" stroke-linejoin="round" stroke-miterlimit="10" points="
		92.25,71.85 92.05,72.45 91.65,72.85 91.25,73.25 90.85,73.55 90.35,73.85 89.75,73.95 89.25,73.95 88.55,73.95 87.95,73.75 
		87.35,73.45 86.65,73.15 	"/>
	
		<polyline fill="none" stroke="#000000" stroke-width="0.5" stroke-linecap="round" stroke-linejoin="round" stroke-miterlimit="10" points="
		82.95,61.35 83.05,61.55 83.25,62.15 83.55,62.85 83.95,63.45 84.35,64.05 84.75,64.65 85.25,65.15 85.75,65.55 86.25,65.95 
		86.75,66.25 87.25,66.55 87.75,66.65 88.25,66.75 88.75,66.75 89.15,66.65 89.55,66.45 89.85,66.25 90.15,65.85 90.35,65.45 
		90.55,64.95 90.65,64.45 90.65,63.85 	"/>
	
		<polyline fill="none" stroke="#000000" stroke-width="0.5" stroke-linecap="round" stroke-linejoin="round" stroke-miterlimit="10" points="
		90.65,63.85 90.65,63.25 90.55,62.65 90.35,61.95 90.15,61.35 89.85,60.65 89.55,60.05 89.15,59.45 89.05,59.25 	"/>
	
		<polyline fill="none" stroke="#000000" stroke-width="0.5" stroke-linecap="round" stroke-linejoin="round" stroke-miterlimit="10" points="
		1.45,50.75 1.15,50.05 0.85,49.35 0.65,48.65 	"/>
	
		<line fill="none" stroke="#000000" stroke-width="0.5" stroke-linecap="round" stroke-linejoin="round" stroke-miterlimit="10" x1="100.65" y1="65.05" x2="100.65" y2="47.65"/>
	
		<polyline fill="none" stroke="#000000" stroke-width="0.5" stroke-linecap="round" stroke-linejoin="round" stroke-miterlimit="10" points="
		0.75,51.95 0.45,51.85 0.35,51.75 0.25,51.65 0.35,51.75 0.45,51.85 0.75,51.95 1.05,52.15 1.45,52.35 	"/>
	
		<line fill="none" stroke="#000000" stroke-width="0.5" stroke-linecap="round" stroke-linejoin="round" stroke-miterlimit="10" x1="52.05" y1="81.55" x2="0.75" y2="51.95"/>
	
		<line fill="none" stroke="#000000" stroke-width="0.5" stroke-linecap="round" stroke-linejoin="round" stroke-miterlimit="10" x1="0.25" y1="46.75" x2="48.25" y2="74.45"/>
	
		<polyline fill="none" stroke="#000000" stroke-width="0.5" stroke-linecap="round" stroke-linejoin="round" stroke-miterlimit="10" points="
		0.65,48.65 0.55,48.15 0.45,47.75 0.35,47.35 0.25,47.05 0.25,46.85 0.25,46.75 	"/>
	
		<line fill="none" stroke="#000000" stroke-width="0.5" stroke-linecap="round" stroke-linejoin="round" stroke-miterlimit="10" x1="60.65" y1="78.55" x2="64.55" y2="73.45"/>
	
		<line fill="none" stroke="#000000" stroke-width="0.5" stroke-linecap="round" stroke-linejoin="round" stroke-miterlimit="10" x1="56.05" y1="81.25" x2="58.05" y2="80.55"/>
	
		<polyline fill="none" stroke="#000000" stroke-width="0.5" stroke-linecap="round" stroke-linejoin="round" stroke-miterlimit="10" points="
		58.05,80.55 58.65,80.25 59.15,79.95 59.75,79.55 60.25,79.05 60.65,78.55 	"/>
	
		<polyline fill="none" stroke="#000000" stroke-width="0.5" stroke-linecap="round" stroke-linejoin="round" stroke-miterlimit="10" points="
		44.95,74.25 44.25,74.45 43.55,74.55 42.85,74.65 	"/>
	
		<polyline fill="none" stroke="#000000" stroke-width="0.5" stroke-linecap="round" stroke-linejoin="round" stroke-miterlimit="10" points="
		42.85,74.65 42.35,74.65 41.85,74.85 41.75,74.95 41.65,75.05 41.65,75.15 41.75,75.35 41.85,75.55 42.25,75.95 42.85,76.25 	"/>
	
		<polyline fill="none" stroke="#000000" stroke-width="0.5" stroke-linecap="round" stroke-linejoin="round" stroke-miterlimit="10" points="
		42.85,76.25 43.75,76.85 44.75,77.45 45.85,77.95 46.85,78.55 47.85,79.15 48.95,79.75 49.95,80.35 50.95,80.95 52.05,81.55 	"/>
	
		<polyline fill="none" stroke="#000000" stroke-width="0.5" stroke-linecap="round" stroke-linejoin="round" stroke-miterlimit="10" points="
		52.05,81.55 52.45,81.75 52.95,81.95 53.45,81.95 53.95,81.85 54.05,81.85 54.15,81.85 	"/>
	
		<polyline fill="none" stroke="#000000" stroke-width="0.5" stroke-linecap="round" stroke-linejoin="round" stroke-miterlimit="10" points="
		54.15,81.85 54.35,81.75 54.65,81.75 54.85,81.65 55.15,81.55 55.35,81.45 55.55,81.45 55.85,81.35 56.05,81.25 	"/>
	
		<polyline fill="none" stroke="#000000" stroke-width="0.5" stroke-linecap="round" stroke-linejoin="round" stroke-miterlimit="10" points="
		55.95,75.65 55.65,76.05 55.25,76.35 54.85,76.65 54.45,76.85 54.05,76.95 53.55,77.05 53.05,77.05 52.55,76.95 52.05,76.65 	"/>
	
		<polyline fill="none" stroke="#000000" stroke-width="0.5" stroke-linecap="round" stroke-linejoin="round" stroke-miterlimit="10" points="
		52.05,76.65 51.05,76.15 50.15,75.55 49.15,75.05 48.25,74.45 	"/>
	
		<polyline fill="none" stroke="#000000" stroke-width="0.5" stroke-linecap="round" stroke-linejoin="round" stroke-miterlimit="10" points="
		48.25,74.45 47.95,74.35 47.55,74.25 47.05,74.15 46.55,74.05 45.95,74.05 45.25,74.15 44.95,74.25 	"/>
	
		<line fill="none" stroke="#000000" stroke-width="0.5" stroke-linecap="round" stroke-linejoin="round" stroke-miterlimit="10" x1="95.35" y1="50.75" x2="100.65" y2="47.65"/>
	
		<line fill="none" stroke="#000000" stroke-width="0.5" stroke-linecap="round" stroke-linejoin="round" stroke-miterlimit="10" x1="100.65" y1="47.65" x2="18.45" y2="0.25"/>
	
		<line fill="none" stroke="#000000" stroke-width="0.5" stroke-linecap="round" stroke-linejoin="round" stroke-miterlimit="10" x1="13.15" y1="3.35" x2="18.45" y2="0.25"/>
	
		<polyline fill="none" stroke="#000000" stroke-width="0.5" stroke-linecap="round" stroke-linejoin="round" stroke-miterlimit="10" points="
		9.65,6.75 9.95,6.25 10.25,5.75 10.65,5.35 11.05,4.85 11.55,4.45 12.05,4.05 12.55,3.65 13.15,3.35 	"/>
	
		<polyline fill="none" stroke="#000000" stroke-width="0.5" stroke-linecap="round" stroke-linejoin="round" stroke-miterlimit="10" points="
		64.55,73.45 65.45,72.35 66.35,71.25 67.25,70.25 68.25,69.35 69.25,68.45 70.35,67.65 71.35,66.95 72.35,66.35 73.45,65.85 	"/>
	
		<polyline fill="none" stroke="#000000" stroke-width="0.5" stroke-linecap="round" stroke-linejoin="round" stroke-miterlimit="10" points="
		92.25,71.85 93.05,70.95 93.85,70.05 94.65,69.15 95.35,68.15 	"/>
	
		<polyline fill="none" stroke="#000000" stroke-width="0.5" stroke-linecap="round" stroke-linejoin="round" stroke-miterlimit="10" points="
		95.35,50.75 94.75,51.15 94.05,51.45 93.35,51.75 92.65,51.95 91.85,52.25 91.05,52.45 90.25,52.65 89.45,52.85 	"/>
	
		<polyline fill="none" stroke="#000000" stroke-width="0.5" stroke-linecap="round" stroke-linejoin="round" stroke-miterlimit="10" points="
		84.05,60.85 85.45,60.25 87.05,59.75 88.25,59.45 89.45,59.15 	"/>
	
		<polyline fill="none" stroke="#000000" stroke-width="0.5" stroke-linecap="round" stroke-linejoin="round" stroke-miterlimit="10" points="
		89.45,59.15 89.85,59.15 90.25,59.05 90.55,58.95 90.95,58.85 91.25,58.75 91.65,58.65 91.95,58.55 92.25,58.45 	"/>
	
		<line fill="none" stroke="#000000" stroke-width="0.5" stroke-linecap="round" stroke-linejoin="round" stroke-miterlimit="10" x1="92.25" y1="58.45" x2="92.25" y2="71.85"/>
	
		<line fill="none" stroke="#000000" stroke-width="0.5" stroke-linecap="round" stroke-linejoin="round" stroke-miterlimit="10" x1="73.45" y1="65.85" x2="83.65" y2="61.05"/>
	
		<polyline fill="none" stroke="#000000" stroke-width="0.5" stroke-linecap="round" stroke-linejoin="round" stroke-miterlimit="10" points="
		83.65,61.05 83.75,60.95 83.85,60.85 84.05,60.85 	"/>
	
		<polyline fill="none" stroke="#000000" stroke-width="0.5" stroke-linecap="round" stroke-linejoin="round" stroke-miterlimit="10" points="
		89.45,52.85 88.45,52.95 87.45,53.15 86.35,53.35 85.25,53.55 84.65,53.55 84.05,53.65 	"/>
	
		<polyline fill="none" stroke="#000000" stroke-width="0.5" stroke-linecap="round" stroke-linejoin="round" stroke-miterlimit="10" points="
		9.05,10.35 9.05,9.65 9.05,8.85 9.15,8.15 9.35,7.45 9.45,7.05 9.65,6.75 	"/>
	
		<polyline fill="none" stroke="#000000" stroke-width="0.5" stroke-linecap="round" stroke-linejoin="round" stroke-miterlimit="10" points="
		9.85,18.45 9.75,17.25 9.65,16.05 9.55,14.85 9.45,13.75 9.35,12.55 9.15,11.45 9.05,10.35 	"/>
	
		<polyline fill="none" stroke="#000000" stroke-width="0.5" stroke-linecap="round" stroke-linejoin="round" stroke-miterlimit="10" points="
		84.05,53.65 82.65,53.85 81.25,54.05 79.85,54.35 78.55,54.75 77.35,55.15 76.15,55.55 75.05,56.05 	"/>
	
		<polyline fill="none" stroke="#000000" stroke-width="0.5" stroke-linecap="round" stroke-linejoin="round" stroke-miterlimit="10" points="
		62.55,60.35 62.85,60.55 63.05,60.85 63.15,61.15 63.25,61.55 63.25,61.95 63.25,62.35 63.05,62.75 62.85,63.15 62.55,63.45 
		62.25,63.75 61.95,63.95 61.55,64.05 61.15,64.05 60.85,64.05 60.45,63.85 60.25,63.65 59.95,63.35 59.85,63.05 59.75,62.65 
		59.75,62.25 59.85,61.85 59.95,61.45 60.15,61.05 60.45,60.75 60.75,60.45 61.15,60.25 61.45,60.15 61.85,60.15 62.25,60.15 
		62.55,60.35 	"/>
	
		<polyline fill="none" stroke="#000000" stroke-width="0.5" stroke-linecap="round" stroke-linejoin="round" stroke-miterlimit="10" points="
		12.45,31.45 12.75,31.65 12.95,31.85 13.05,32.25 13.15,32.65 13.15,33.05 13.15,33.45 12.95,33.85 12.75,34.25 12.45,34.55 
		12.15,34.75 11.75,34.95 11.45,35.15 11.05,35.15 10.75,35.05 10.35,34.95 10.05,34.75 9.85,34.45 9.75,34.15 9.65,33.75 
		9.65,33.35 9.75,32.95 9.85,32.55 10.05,32.15 10.35,31.85 10.65,31.55 11.05,31.35 11.35,31.25 11.75,31.25 12.15,31.25 
		12.45,31.45 	"/>
	
		<line fill="none" stroke="#000000" stroke-width="0.5" stroke-linecap="round" stroke-linejoin="round" stroke-miterlimit="10" x1="2.45" y1="44.75" x2="2.45" y2="44.65"/>
	
		<line fill="none" stroke="#000000" stroke-width="0.5" stroke-linecap="round" stroke-linejoin="round" stroke-miterlimit="10" x1="56.05" y1="75.55" x2="55.95" y2="75.65"/>
	
		<line fill="none" stroke="#000000" stroke-width="0.5" stroke-linecap="round" stroke-linejoin="round" stroke-miterlimit="10" x1="64.55" y1="64.45" x2="56.05" y2="75.55"/>
	
		<polyline fill="none" stroke="#000000" stroke-width="0.5" stroke-linecap="round" stroke-linejoin="round" stroke-miterlimit="10" points="
		73.45,56.85 72.35,57.35 71.35,57.95 70.35,58.65 69.25,59.45 68.25,60.35 67.25,61.25 66.35,62.25 65.45,63.35 64.55,64.45 	"/>
	
		<line fill="none" stroke="#000000" stroke-width="0.5" stroke-linecap="round" stroke-linejoin="round" stroke-miterlimit="10" x1="75.05" y1="56.05" x2="73.45" y2="56.85"/>
	
		<line fill="none" stroke="#000000" stroke-width="0.5" stroke-linecap="round" stroke-linejoin="round" stroke-miterlimit="10" x1="10.05" y1="20.25" x2="9.85" y2="18.45"/>
	
		<polyline fill="none" stroke="#000000" stroke-width="0.5" stroke-linecap="round" stroke-linejoin="round" stroke-miterlimit="10" points="
		7.85,31.75 8.35,30.45 8.85,29.05 9.25,27.75 9.55,26.45 9.75,25.15 9.95,23.85 10.05,22.55 10.05,21.35 10.05,20.25 	"/>
	
		<line fill="none" stroke="#000000" stroke-width="0.5" stroke-linecap="round" stroke-linejoin="round" stroke-miterlimit="10" x1="2.45" y1="44.65" x2="7.85" y2="31.75"/>
	
		<line fill="none" stroke="#000000" stroke-width="0.5" stroke-linecap="round" stroke-linejoin="round" stroke-miterlimit="10" x1="9.05" y1="9.45" x2="9.05" y2="16.25"/>
	
		<line fill="none" stroke="#000000" stroke-width="0.5" stroke-linecap="round" stroke-linejoin="round" stroke-miterlimit="10" x1="0.25" y1="46.75" x2="0.25" y2="51.65"/>
	
		<polyline fill="none" stroke="#000000" stroke-width="0.5" stroke-linecap="round" stroke-linejoin="round" stroke-miterlimit="10" points="
		81.25,64.45 81.25,64.65 81.15,64.85 81.15,65.05 81.05,65.15 	"/>
	
		<line fill="none" stroke="#000000" stroke-width="0.5" stroke-linecap="round" stroke-linejoin="round" stroke-miterlimit="10" x1="81.25" y1="62.15" x2="81.25" y2="64.45"/>
	
		<line fill="none" stroke="#000000" stroke-width="0.5" stroke-linecap="round" stroke-linejoin="round" stroke-miterlimit="10" x1="90.85" y1="73.55" x2="98.95" y2="68.95"/>
</g>
</svg>
