<?xml version="1.0" encoding="utf-8"?>
<!-- Generator: Adobe Illustrator 19.0.0, SVG Export Plug-In . SVG Version: 6.00 Build 0)  -->
<svg version="1.0" id="Layer_1" xmlns="http://www.w3.org/2000/svg" xmlns:xlink="http://www.w3.org/1999/xlink" x="0px" y="0px"
	 width="118.4px" height="91.5px" viewBox="0 0 118.4 91.5" enable-background="new 0 0 118.4 91.5" xml:space="preserve">
<g id="XMLID_1_">
	
		<line fill="none" stroke="#000000" stroke-width="0.25" stroke-linecap="round" stroke-linejoin="round" stroke-miterlimit="10" x1="1.45" y1="25.55" x2="1.55" y2="25.55"/>
	
		<line fill="none" stroke="#000000" stroke-width="0.25" stroke-linecap="round" stroke-linejoin="round" stroke-miterlimit="10" x1="1.55" y1="9.45" x2="1.45" y2="9.45"/>
	
		<polyline fill="none" stroke="#000000" stroke-width="0.25" stroke-linecap="round" stroke-linejoin="round" stroke-miterlimit="10" points="
		2.15,5.15 2.75,4.95 3.75,4.95 	"/>
	
		<line fill="none" stroke="#000000" stroke-width="0.25" stroke-linecap="round" stroke-linejoin="round" stroke-miterlimit="10" x1="5.55" y1="32.75" x2="5.75" y2="32.65"/>
	
		<line fill="none" stroke="#000000" stroke-width="0.25" stroke-linecap="round" stroke-linejoin="round" stroke-miterlimit="10" x1="103.25" y1="89.05" x2="103.35" y2="88.95"/>
	
		<polyline fill="none" stroke="#000000" stroke-width="0.25" stroke-linecap="round" stroke-linejoin="round" stroke-miterlimit="10" points="
		108.55,87.85 108.55,88.45 108.25,89.35 	"/>
	
		<polyline fill="none" stroke="#000000" stroke-width="0.25" stroke-linecap="round" stroke-linejoin="round" stroke-miterlimit="10" points="
		116.85,81.85 116.95,81.85 117.55,81.25 	"/>
	
		<polyline fill="none" stroke="#000000" stroke-width="0.25" stroke-linecap="round" stroke-linejoin="round" stroke-miterlimit="10" points="
		16.85,1.15 16.75,1.05 16.05,0.95 	"/>
	
		<polyline fill="none" stroke="#000000" stroke-width="0.25" stroke-linecap="round" stroke-linejoin="round" stroke-miterlimit="10" points="
		112.15,57.65 112.25,57.55 113.05,57.35 	"/>
	
		<polyline fill="none" stroke="#000000" stroke-width="0.25" stroke-linecap="round" stroke-linejoin="round" stroke-miterlimit="10" points="
		118.15,63.85 118.15,64.05 117.95,64.55 	"/>
	
		<line fill="none" stroke="#000000" stroke-width="0.25" stroke-linecap="round" stroke-linejoin="round" stroke-miterlimit="10" x1="6.65" y1="5.15" x2="12.65" y2="1.65"/>
	
		<line fill="none" stroke="#000000" stroke-width="0.25" stroke-linecap="round" stroke-linejoin="round" stroke-miterlimit="10" x1="5.65" y1="5.75" x2="5.55" y2="5.75"/>
	
		<line fill="none" stroke="#000000" stroke-width="0.25" stroke-linecap="round" stroke-linejoin="round" stroke-miterlimit="10" x1="108.55" y1="87.35" x2="108.55" y2="87.35"/>
	
		<line fill="none" stroke="#000000" stroke-width="0.25" stroke-linecap="round" stroke-linejoin="round" stroke-miterlimit="10" x1="109.55" y1="86.75" x2="115.55" y2="83.25"/>
	
		<line fill="none" stroke="#000000" stroke-width="0.25" stroke-linecap="round" stroke-linejoin="round" stroke-miterlimit="10" x1="104.25" y1="61.55" x2="110.25" y2="58.05"/>
	
		<line fill="none" stroke="#000000" stroke-width="0.25" stroke-linecap="round" stroke-linejoin="round" stroke-miterlimit="10" x1="109.55" y1="70.75" x2="115.55" y2="67.25"/>
	
		<line fill="none" stroke="#000000" stroke-width="0.25" stroke-linecap="round" stroke-linejoin="round" stroke-miterlimit="10" x1="108.55" y1="71.25" x2="108.55" y2="71.25"/>
	
		<polyline fill="none" stroke="#000000" stroke-width="0.25" stroke-linecap="round" stroke-linejoin="round" stroke-miterlimit="10" points="
		104.45,62.85 105.15,63.45 106.15,64.65 107.05,66.05 107.75,67.45 108.25,68.95 	"/>
	
		<line fill="none" stroke="#000000" stroke-width="0.25" stroke-linecap="round" stroke-linejoin="round" stroke-miterlimit="10" x1="103.25" y1="62.05" x2="103.15" y2="62.05"/>
	
		<line fill="none" stroke="#000000" stroke-width="0.25" stroke-linecap="round" stroke-linejoin="round" stroke-miterlimit="10" x1="103.25" y1="88.95" x2="103.15" y2="88.85"/>
	
		<line fill="none" stroke="#000000" stroke-width="0.25" stroke-linecap="round" stroke-linejoin="round" stroke-miterlimit="10" x1="5.65" y1="7.15" x2="5.65" y2="7.25"/>
	
		<line fill="none" stroke="#000000" stroke-width="0.25" stroke-linecap="round" stroke-linejoin="round" stroke-miterlimit="10" x1="107.25" y1="86.65" x2="107.25" y2="86.55"/>
	
		<line fill="none" stroke="#000000" stroke-width="0.25" stroke-linecap="round" stroke-linejoin="round" stroke-miterlimit="10" x1="5.55" y1="7.35" x2="5.65" y2="7.25"/>
	
		<line fill="none" stroke="#000000" stroke-width="0.25" stroke-linecap="round" stroke-linejoin="round" stroke-miterlimit="10" x1="107.25" y1="86.65" x2="107.05" y2="86.65"/>
	
		<line fill="none" stroke="#000000" stroke-width="0.25" stroke-linecap="round" stroke-linejoin="round" stroke-miterlimit="10" x1="107.25" y1="70.45" x2="107.25" y2="70.55"/>
	
		<line fill="none" stroke="#000000" stroke-width="0.25" stroke-linecap="round" stroke-linejoin="round" stroke-miterlimit="10" x1="103.25" y1="63.55" x2="103.25" y2="63.55"/>
	
		<line fill="none" stroke="#000000" stroke-width="0.25" stroke-linecap="round" stroke-linejoin="round" stroke-miterlimit="10" x1="103.25" y1="63.65" x2="103.15" y2="63.75"/>
	
		<line fill="none" stroke="#000000" stroke-width="0.25" stroke-linecap="round" stroke-linejoin="round" stroke-miterlimit="10" x1="107.25" y1="70.55" x2="107.05" y2="70.55"/>
</g>
<g id="XMLID_2_">
	
		<polyline fill="none" stroke="#000000" stroke-width="0.5" stroke-linecap="round" stroke-linejoin="round" stroke-miterlimit="10" points="
		13.65,1.05 12.85,0.65 11.95,0.35 11.05,0.25 10.25,0.45 9.85,0.65 	"/>
	
		<polyline fill="none" stroke="#000000" stroke-width="0.5" stroke-linecap="round" stroke-linejoin="round" stroke-miterlimit="10" points="
		115.05,86.25 115.45,85.95 116.05,85.35 116.35,84.55 116.55,83.65 116.55,82.75 	"/>
	
		<line fill="none" stroke="#000000" stroke-width="0.5" stroke-linecap="round" stroke-linejoin="round" stroke-miterlimit="10" x1="118.15" y1="79.75" x2="118.15" y2="79.65"/>
	
		<line fill="none" stroke="#000000" stroke-width="0.5" stroke-linecap="round" stroke-linejoin="round" stroke-miterlimit="10" x1="17.05" y1="1.25" x2="17.05" y2="1.25"/>
	
		<line fill="none" stroke="#000000" stroke-width="0.5" stroke-linecap="round" stroke-linejoin="round" stroke-miterlimit="10" x1="111.25" y1="57.45" x2="13.65" y2="1.05"/>
	
		<line fill="none" stroke="#000000" stroke-width="0.5" stroke-linecap="round" stroke-linejoin="round" stroke-miterlimit="10" x1="116.55" y1="82.75" x2="116.55" y2="66.65"/>
	
		<polyline fill="none" stroke="#000000" stroke-width="0.5" stroke-linecap="round" stroke-linejoin="round" stroke-miterlimit="10" points="
		3.05,6.65 3.05,6.75 2.95,6.85 	"/>
	
		<line fill="none" stroke="#000000" stroke-width="0.5" stroke-linecap="round" stroke-linejoin="round" stroke-miterlimit="10" x1="106.15" y1="89.15" x2="106.45" y2="89.05"/>
	
		<polyline fill="none" stroke="#000000" stroke-width="0.5" stroke-linecap="round" stroke-linejoin="round" stroke-miterlimit="10" points="
		116.55,66.65 116.55,65.65 116.35,64.55 115.95,63.35 115.35,61.95 114.65,60.65 113.75,59.55 112.95,58.65 112.05,57.95 
		111.25,57.45 	"/>
	
		<line fill="none" stroke="#000000" stroke-width="0.5" stroke-linecap="round" stroke-linejoin="round" stroke-miterlimit="10" x1="103.15" y1="63.45" x2="5.55" y2="7.15"/>
	
		<polyline fill="none" stroke="#000000" stroke-width="0.5" stroke-linecap="round" stroke-linejoin="round" stroke-miterlimit="10" points="
		107.25,70.65 107.25,69.85 107.05,69.05 106.85,68.15 106.55,67.35 106.05,66.55 105.65,65.75 105.05,65.05 104.45,64.45 
		103.85,63.95 103.15,63.45 	"/>
	
		<line fill="none" stroke="#000000" stroke-width="0.5" stroke-linecap="round" stroke-linejoin="round" stroke-miterlimit="10" x1="107.25" y1="86.65" x2="107.25" y2="70.65"/>
	
		<polyline fill="none" stroke="#000000" stroke-width="0.5" stroke-linecap="round" stroke-linejoin="round" stroke-miterlimit="10" points="
		103.15,89.05 103.85,89.35 104.45,89.55 105.05,89.65 105.65,89.55 106.05,89.35 106.55,89.05 106.85,88.55 107.05,88.05 
		107.25,87.45 107.25,86.65 	"/>
	
		<line fill="none" stroke="#000000" stroke-width="0.5" stroke-linecap="round" stroke-linejoin="round" stroke-miterlimit="10" x1="5.55" y1="32.75" x2="103.15" y2="89.05"/>
	
		<polyline fill="none" stroke="#000000" stroke-width="0.5" stroke-linecap="round" stroke-linejoin="round" stroke-miterlimit="10" points="
		1.45,25.55 1.55,26.35 1.65,27.15 1.95,28.05 2.25,28.85 2.65,29.65 3.15,30.45 3.75,31.15 4.35,31.75 4.95,32.25 5.55,32.75 	"/>
	
		<line fill="none" stroke="#000000" stroke-width="0.5" stroke-linecap="round" stroke-linejoin="round" stroke-miterlimit="10" x1="1.45" y1="9.55" x2="1.45" y2="25.55"/>
	
		<polyline fill="none" stroke="#000000" stroke-width="0.5" stroke-linecap="round" stroke-linejoin="round" stroke-miterlimit="10" points="
		5.55,7.15 4.95,6.85 4.35,6.65 3.75,6.55 3.15,6.65 2.65,6.85 2.25,7.15 1.95,7.65 1.65,8.15 1.55,8.75 1.45,9.55 	"/>
	
		<polyline fill="none" stroke="#000000" stroke-width="0.5" stroke-linecap="round" stroke-linejoin="round" stroke-miterlimit="10" points="
		5.55,34.15 4.75,33.55 3.85,32.85 2.95,31.95 2.15,30.75 1.35,29.45 0.85,28.15 0.45,26.95 0.25,25.85 0.25,24.95 	"/>
	
		<line fill="none" stroke="#000000" stroke-width="0.5" stroke-linecap="round" stroke-linejoin="round" stroke-miterlimit="10" x1="103.15" y1="90.45" x2="5.55" y2="34.15"/>
	
		<polyline fill="none" stroke="#000000" stroke-width="0.5" stroke-linecap="round" stroke-linejoin="round" stroke-miterlimit="10" points="
		108.45,87.35 108.45,88.35 108.25,89.25 107.95,90.05 107.35,90.65 106.55,91.05 105.75,91.25 104.85,91.15 104.05,90.85 
		103.15,90.45 	"/>
	
		<line fill="none" stroke="#000000" stroke-width="0.5" stroke-linecap="round" stroke-linejoin="round" stroke-miterlimit="10" x1="108.45" y1="71.25" x2="108.45" y2="87.35"/>
	
		<line fill="none" stroke="#000000" stroke-width="0.5" stroke-linecap="round" stroke-linejoin="round" stroke-miterlimit="10" x1="5.55" y1="5.75" x2="103.15" y2="62.05"/>
	
		<polyline fill="none" stroke="#000000" stroke-width="0.5" stroke-linecap="round" stroke-linejoin="round" stroke-miterlimit="10" points="
		0.25,8.85 0.25,7.85 0.45,6.95 0.85,6.15 1.45,5.55 2.15,5.15 3.05,4.95 3.95,5.05 4.75,5.35 5.55,5.75 	"/>
	
		<line fill="none" stroke="#000000" stroke-width="0.5" stroke-linecap="round" stroke-linejoin="round" stroke-miterlimit="10" x1="0.25" y1="8.85" x2="0.25" y2="24.95"/>
	
		<polyline fill="none" stroke="#000000" stroke-width="0.5" stroke-linecap="round" stroke-linejoin="round" stroke-miterlimit="10" points="
		103.15,62.05 104.05,62.65 104.85,63.35 105.75,64.25 106.65,65.45 107.35,66.75 107.95,68.05 108.35,69.25 108.45,70.35 
		108.45,71.25 	"/>
	
		<line fill="none" stroke="#000000" stroke-width="0.5" stroke-linecap="round" stroke-linejoin="round" stroke-miterlimit="10" x1="3.55" y1="6.55" x2="3.05" y2="6.75"/>
	
		<polyline fill="none" stroke="#000000" stroke-width="0.5" stroke-linecap="round" stroke-linejoin="round" stroke-miterlimit="10" points="
		1.65,9.55 1.65,8.85 1.85,8.25 2.05,7.65 2.35,7.25 2.75,6.95 3.25,6.75 3.85,6.65 4.35,6.75 4.95,6.95 5.65,7.25 	"/>
	
		<line fill="none" stroke="#000000" stroke-width="0.5" stroke-linecap="round" stroke-linejoin="round" stroke-miterlimit="10" x1="1.65" y1="9.65" x2="1.65" y2="9.55"/>
	
		<line fill="none" stroke="#000000" stroke-width="0.5" stroke-linecap="round" stroke-linejoin="round" stroke-miterlimit="10" x1="5.55" y1="32.55" x2="5.65" y2="32.55"/>
	
		<line fill="none" stroke="#000000" stroke-width="0.5" stroke-linecap="round" stroke-linejoin="round" stroke-miterlimit="10" x1="103.25" y1="88.95" x2="5.65" y2="32.55"/>
	
		<polyline fill="none" stroke="#000000" stroke-width="0.5" stroke-linecap="round" stroke-linejoin="round" stroke-miterlimit="10" points="
		106.35,89.05 106.35,89.05 106.75,88.75 	"/>
	
		<polyline fill="none" stroke="#000000" stroke-width="0.5" stroke-linecap="round" stroke-linejoin="round" stroke-miterlimit="10" points="
		107.25,86.65 107.15,87.35 107.05,87.95 106.85,88.45 106.45,88.85 106.05,89.25 105.55,89.35 105.05,89.45 104.45,89.45 
		103.85,89.25 103.25,88.95 	"/>
	
		<line fill="none" stroke="#000000" stroke-width="0.5" stroke-linecap="round" stroke-linejoin="round" stroke-miterlimit="10" x1="5.65" y1="7.25" x2="103.25" y2="63.55"/>
	
		<line fill="none" stroke="#000000" stroke-width="0.5" stroke-linecap="round" stroke-linejoin="round" stroke-miterlimit="10" x1="107.25" y1="70.55" x2="107.25" y2="86.65"/>
	
		<polyline fill="none" stroke="#000000" stroke-width="0.5" stroke-linecap="round" stroke-linejoin="round" stroke-miterlimit="10" points="
		1.65,25.75 1.65,26.45 1.85,27.25 2.05,28.05 2.35,28.85 2.75,29.55 3.25,30.35 3.75,30.95 4.35,31.55 4.95,32.15 5.55,32.55 	"/>
	
		<line fill="none" stroke="#000000" stroke-width="0.5" stroke-linecap="round" stroke-linejoin="round" stroke-miterlimit="10" x1="5.55" y1="32.55" x2="103.15" y2="88.85"/>
	
		<polyline fill="none" stroke="#000000" stroke-width="0.5" stroke-linecap="round" stroke-linejoin="round" stroke-miterlimit="10" points="
		103.15,88.85 103.75,89.15 104.35,89.35 104.95,89.35 105.45,89.35 105.95,89.15 106.35,88.85 106.65,88.45 106.85,87.85 
		106.95,87.25 107.05,86.65 	"/>
	
		<line fill="none" stroke="#000000" stroke-width="0.5" stroke-linecap="round" stroke-linejoin="round" stroke-miterlimit="10" x1="107.05" y1="86.65" x2="107.05" y2="70.55"/>
	
		<line fill="none" stroke="#000000" stroke-width="0.5" stroke-linecap="round" stroke-linejoin="round" stroke-miterlimit="10" x1="103.15" y1="63.75" x2="5.55" y2="7.35"/>
	
		<polyline fill="none" stroke="#000000" stroke-width="0.5" stroke-linecap="round" stroke-linejoin="round" stroke-miterlimit="10" points="
		5.55,7.35 4.95,7.05 4.35,6.95 3.75,6.85 3.25,6.95 2.75,7.15 2.35,7.45 2.05,7.85 1.85,8.35 1.65,8.95 1.65,9.65 	"/>
	
		<line fill="none" stroke="#000000" stroke-width="0.5" stroke-linecap="round" stroke-linejoin="round" stroke-miterlimit="10" x1="1.65" y1="9.65" x2="1.65" y2="25.75"/>
	
		<polyline fill="none" stroke="#000000" stroke-width="0.5" stroke-linecap="round" stroke-linejoin="round" stroke-miterlimit="10" points="
		107.05,70.55 106.95,69.75 106.85,69.05 106.65,68.25 106.35,67.45 105.95,66.65 105.45,65.95 104.95,65.25 104.35,64.65 
		103.75,64.15 103.15,63.75 	"/>
	
		<polyline fill="none" stroke="#000000" stroke-width="0.5" stroke-linecap="round" stroke-linejoin="round" stroke-miterlimit="10" points="
		103.25,63.55 103.85,63.95 104.45,64.55 105.05,65.15 105.55,65.85 106.05,66.55 106.45,67.35 106.85,68.15 107.05,68.95 
		107.15,69.75 107.25,70.55 	"/>
	
		<polyline fill="none" stroke="#000000" stroke-width="0.5" stroke-linecap="round" stroke-linejoin="round" stroke-miterlimit="10" points="
		17.15,1.25 16.15,0.75 15.25,0.45 14.35,0.25 13.65,0.25 12.95,0.35 12.25,0.45 	"/>
	
		<line fill="none" stroke="#000000" stroke-width="0.5" stroke-linecap="round" stroke-linejoin="round" stroke-miterlimit="10" x1="9.85" y1="0.65" x2="1.85" y2="5.25"/>
	
		<line fill="none" stroke="#000000" stroke-width="0.5" stroke-linecap="round" stroke-linejoin="round" stroke-miterlimit="10" x1="1.85" y1="5.25" x2="1.75" y2="5.35"/>
	
		<polyline fill="none" stroke="#000000" stroke-width="0.5" stroke-linecap="round" stroke-linejoin="round" stroke-miterlimit="10" points="
		116.45,84.25 116.85,83.75 117.25,83.15 117.65,82.55 117.95,81.65 118.15,80.75 118.15,79.65 	"/>
	
		<line fill="none" stroke="#000000" stroke-width="0.5" stroke-linecap="round" stroke-linejoin="round" stroke-miterlimit="10" x1="107.05" y1="90.85" x2="115.05" y2="86.25"/>
	
		<line fill="none" stroke="#000000" stroke-width="0.5" stroke-linecap="round" stroke-linejoin="round" stroke-miterlimit="10" x1="106.95" y1="90.95" x2="107.05" y2="90.85"/>
	
		<line fill="none" stroke="#000000" stroke-width="0.5" stroke-linecap="round" stroke-linejoin="round" stroke-miterlimit="10" x1="118.15" y1="79.65" x2="118.15" y2="63.55"/>
	
		<line fill="none" stroke="#000000" stroke-width="0.5" stroke-linecap="round" stroke-linejoin="round" stroke-miterlimit="10" x1="114.75" y1="57.55" x2="17.05" y2="1.25"/>
	
		<polyline fill="none" stroke="#000000" stroke-width="0.5" stroke-linecap="round" stroke-linejoin="round" stroke-miterlimit="10" points="
		118.15,63.65 118.15,62.85 118.05,62.15 117.95,61.55 117.75,61.05 117.45,60.35 116.85,59.45 116.45,58.95 115.95,58.45 
		115.35,57.95 114.65,57.55 	"/>
	
		<line fill="none" stroke="#000000" stroke-width="0.5" stroke-linecap="round" stroke-linejoin="round" stroke-miterlimit="10" x1="3.05" y1="6.75" x2="2.75" y2="6.95"/>
	
		<line fill="none" stroke="#000000" stroke-width="0.5" stroke-linecap="round" stroke-linejoin="round" stroke-miterlimit="10" x1="106.05" y1="89.25" x2="106.35" y2="89.05"/>
</g>
</svg>
