<?xml version="1.0" encoding="utf-8"?>
<!-- Generator: Adobe Illustrator 19.0.0, SVG Export Plug-In . SVG Version: 6.00 Build 0)  -->
<svg version="1.0" id="Layer_1" xmlns="http://www.w3.org/2000/svg" xmlns:xlink="http://www.w3.org/1999/xlink" x="0px" y="0px"
	 width="288.6px" height="366.8px" viewBox="0 0 288.6 366.8" enable-background="new 0 0 288.6 366.8" xml:space="preserve">
<g id="XMLID_1_">
	
		<path fill="none" stroke="#000000" stroke-width="0.25" stroke-linecap="round" stroke-linejoin="round" stroke-miterlimit="10" d="
		M92.85,27.45v0.6 M93.35,28.05v0.3 M91.55,26.85v0.5 M86.55,28.05v4.2 M91.05,30.15v0.9 M92.05,30.05v0.3 M163.05,68.55v-0.6
		 M166.95,77.45v-5.6 M166.95,129.15v-22.5 M166.95,163.45v-5.2 M166.95,290.25v-49.4 M166.95,341.55v-16 M163.55,68.85v-0.3
		 M161.75,67.85v-0.5 M163.75,75.75v-5.3 M163.75,127.75v-19.7 M163.75,162.05v-2.4 M163.75,288.55v-48.8 M163.75,344.55v-17
		 M156.75,328.35v14.9 M156.75,235.75v48.7 M156.75,108.65v15.7 M156.75,68.45v3.5 M162.25,75.05v-3.9 M162.25,127.05v-18.3
		 M162.25,161.35v-1 M162.25,287.65v-48.7 M162.25,345.45v-17 M161.25,74.55v-3.5 M161.25,126.65v-17.5 M161.25,160.95v-0.2
		 M161.25,287.05v-48.7 M161.25,345.55v-16.6 M167.45,77.85v-5.5 M167.45,129.35v-22.9 M167.45,163.65v-5.6 M167.45,290.55v-49.7
		 M167.45,341.65v-16.4 M175.05,73.45v-0.5 M184.75,162.05v-77 M184.75,334.75v-95.9 M168.25,78.55v-3.5 M168.25,129.75v-23.6
		 M168.25,164.05v-6.3 M168.25,290.85v-50.2 M168.25,348.55v-22.7 M176.75,243.35v96 M176.75,88.45v70.1 M172.75,156.55v-68.3
		 M172.75,339.55v-94.2 M91.25,5.55v-0.4 M122.25,7.15v0.4 M91.25,5.85v-0.2 M117.05,2.25l-0.7-0.3 M98.25,0.25l-0.9,0.1
		 M121.65,9.15v-0.7 M91.35,4.75l0.1-0.6l0.7-1.3l1.1-1.1 M82.25,21.25l0.5,0.9l1.1,0.9 M84.85,11.15h0.1l0.5,0.4 M86.05,18.55
		l-0.8-0.1l-1.4-0.5 M121.65,8.35L121.65,8.35 M119.85,3.95l0.5,0.3l0.9,1.2l0.5,1.4 M86.95,24.25L86.95,24.25v-0.1 M86.95,23.25v-4
		 M88.15,24.05l0.5,0.1l1.6,0.4l1.6,0.5l1.3,0.7 M96.35,24.55v-0.4 M86.65,17.85l-0.2-0.6l-0.4-1.4l-0.2-1.4 M95.95,22.45l-1.5-2.3
		l-2.3-1.5 M96.45,23.75l0.2-0.5l0.9-0.8 M93.35,5.65l-0.2,0.2 M92.35,6.65l-0.7,0.7l-3.7,2.7 M85.05,11.85L85.05,11.85l-0.4,0.4
		l-0.2,0.4l-0.1,0.2v0.1l0.1,0.2l0.1,0.1 M87.25,13.05l2.3-0.3 M95.45,14.25l0.3,0.1 M96.55,14.95l1,0.8 M117.05,6.65v-0.3
		 M119.35,3.35L119.35,3.35l0.1-0.2l-0.1-0.2l-0.1-0.1l-0.2-0.1l-0.2-0.1 M115.75,2.15h-2.1 M106.75,1.85h-0.3 M105.05,1.65
		l-1.4-0.2 M96.95,0.35h-0.1l-0.5,0.1l-0.5,0.1h-0.3l-0.2,0.1h-0.2 M94.65,1.45l0.3,0.9 M161.45,46.05v-0.4 M192.35,47.65v0.4
		 M161.45,46.35v-0.2 M187.15,42.65l-0.6-0.2 M168.35,40.75l-0.8,0.1 M191.85,52.35v-3 M161.55,45.25l0.1-0.6l0.6-1.3l1.1-1.1
		 M152.35,61.75l0.6,0.9l1,0.9 M155.05,51.65h0.1l0.5,0.4 M156.25,59.05l-0.8-0.1l-1.4-0.5 M191.75,48.85l-0.1,0.1l-0.5,0.2
		 M190.05,44.45l0.5,0.3l0.8,1.2l0.5,1.4 M157.15,64.75L157.15,64.75l-0.1-0.1 M190.25,67.35h0.6l1.6-0.3l1.5-0.6 M195.45,59.75
		l-0.5,0.9l-1.1,0.8l-1.4,0.5 M192.45,55.35l0.9-0.2l0.6,0.1 M189.05,67.35v0.1 M157.05,63.75v-4 M158.75,64.65h0.1l1.6,0.4l1.5,0.5
		l1.4,0.7l1.1,0.8 M177.15,70.85v0.1 M178.15,69.95l1.1-0.8l1.3-0.6l1.6-0.6l1.6-0.4l1.7-0.2 M189.05,66.65v-4 M166.55,69.25v-4.1
		 M167.05,70.85l1,0.8l1.5,0.6l1.7,0.3h1.7 M177.15,70.15v-4 M156.75,58.35l-0.2-0.6l-0.3-1.4l-0.2-1.4 M166.15,62.95l-1.5-2.3
		l-2.4-1.5 M166.65,64.15l0.2-0.4l0.8-0.8 M176.05,66.55l-1.3,0.6l-1.7,0.4l-1.8,0.1l-1.8-0.4 M173.95,62.55l0.6,0.3l1.2,0.8
		 M187.15,61.35l-3.1-0.4l-3.1,0.8 M190.95,57.55l-0.2,0.5l-0.5,1.4l-0.6,1.3 M163.45,46.15l-0.1,0.2 M162.55,47.15l-0.8,0.7
		l-3.7,2.7 M155.25,52.35h-0.1l-0.4,0.4l-0.2,0.4v0.2v0.1l0.1,0.2l0.1,0.1 M157.45,53.55l2.3-0.3 M165.65,54.75l0.2,0.1
		 M166.75,55.55l0.9,0.7 M170.45,62.45l0.2,0.4l0.4,0.3l0.3,0.1l0.2,0.1h0.3l0.2-0.1l0.5-0.2 M173.95,61.15l1.2-1.7 M180.35,56.25
		l0.4-0.1 M182.25,55.85l1.1-0.2l5,0.3 M191.65,57.15L191.65,57.15l0.6,0.1l0.4-0.1h0.2l0.2-0.1v-0.2l0.1-0.2 M191.65,54.55
		l-1.6-1.7 M187.35,48.55v-0.2 M187.25,47.85l-0.1-1 M189.55,43.85L189.55,43.85l0.1-0.2l-0.1-0.2l-0.2-0.1l-0.1-0.1l-0.2-0.1
		 M185.95,42.65h-2.1 M176.95,42.35h-0.4 M175.15,42.15l-1.3-0.2 M167.05,40.85h-0.1l-0.5,0.1h-0.5l-0.2,0.1l-0.3,0.1h-0.2
		 M164.85,41.95l0.3,0.9 M138.25,104.65l-0.4-0.2 M136.65,104.75l0.2,0.2 M138.35,104.65l0.1-0.1h0.2 M152.65,112.95l-12.4-7.1
		 M138.15,104.75l-0.7,0.4 M139.45,106.45l13.1,7.6 M136.35,106.75v-0.2l0.1-0.3l0.1-0.2l0.2-0.3l0.1-0.2 M136.05,106.85l-0.4-0.3
		l-0.5-0.5 M151.15,122.55l3.1,1.7 M154.05,123.05l-4-2.3 M138.55,108.25l13.9,8.1 M134.25,105.75l1.7,1.1 M144.45,115.15l8.8,5.1
		 M153.05,118.95l-10.3-5.9 M155.15,123.75v-14 M154.75,106.95v0.1l0.1,0.1 M155.15,107.15l0.1-0.9 M155.25,107.55l0.5,0.3
		 M136.25,236.45v-12.4 M135.25,224.05v11.9 M135.75,221.85l-0.4,0.3 M154.15,252.75l-3.2-1.9 M123.45,215.05h0.3l0.2-0.1h0.3h0.3
		l0.2,0.1 M150.95,252.05l3.2,1.8 M125.05,213.95l-0.3-0.1h-0.2h-0.3h-0.3h-0.2 M133.55,222.25l0.2,0.1h0.2h0.3h0.3h0.3
		 M135.35,221.55v0.2 M133.25,234.95v-11 M133.25,221.95l0.1-0.4 M129.25,220.05v12.4 M123.25,213.75l-0.1-0.2l-0.1-0.2l-0.1-0.3
		l-0.1-0.2l-0.2-0.2 M125.25,230.15v-12.4 M123.25,215.05v-0.9 M123.05,214.15l-1,0.6 M151.35,261.55l2.9,1.6 M154.25,262.05
		l-2.9-1.7 M151.05,254.45l3.1,1.8 M151.05,257.85l3.1,1.8 M154.15,258.55l-3.1-1.8 M155.75,271.85l-0.2-0.4 M125.45,215.85v-0.1
		l-0.1-0.1 M125.25,214.15v0.9 M129.05,217.35l23.1,13.4 M152.15,229.55l-23.1-13.3 M125.25,213.95v-0.1l0.1-0.3 M154.75,268.95v0.1
		l0.1,0.2 M155.15,266.65v-17.5 M155.75,269.85l-0.5-0.3 M154.75,245.85v0.1l0.1,0.1 M121.55,212.75l0.6-0.4 M122.25,212.35l0.4-0.2
		l0.2-0.1 M132.15,215.65l20.4,11.9 M155.15,245.85l0.1-0.7l0.3-1.3 M155.25,246.35l0.5,0.4 M153.35,318.55v4.7 M164.15,321.65
		l5.7-3.3 M163.15,306.95v13.1 M124.05,332.15h-0.1 M151.25,323.35v-3.9 M162.25,312.45v-6.1 M112.15,330.55v6.1 M97.85,337.95v-6.1
		 M35.95,296.15v6.1 M162.65,147.05l-0.8-0.4 M56.55,121.15v-3.2 M163.75,156.45l6-3.5 M122.65,159.05v-4.8 M138.65,159.05v-4.8
		 M56.55,173.35v-2.9 M122.65,211.45v-2.8 M138.85,111.75l0.9-0.5 M162.45,97.85l-1.5-0.9 M163.75,102.05l6-3.5 M159.85,87.95v6.2
		 M150.85,98.25v-6.1 M45.05,112.65l0.8,0.5l1.3,0.7 M105.15,115.55v-5.7 M39.95,290.65L39.95,290.65 M40.05,277.75l-0.1-0.2v-0.2
		 M150.75,275.75l-0.2,0.5 M150.75,275.35v-1.6 M39.65,260.35l-0.1-0.2v-0.1 M39.65,259.45L39.65,259.45l-0.1,0.4 M47.75,283.95
		h-0.1 M49.25,238.55h0.1h0.1 M53.35,238.65h-0.1 M149.65,282.55l0.1,0.1 M138.55,302.15l0.1,0.1h-0.1l-0.1-0.1 M49.45,238.55v-0.1
		h0.1 M52.65,238.75L52.65,238.75l-0.1,0.1 M150.55,258.85v-0.1 M150.75,261.15v-2.1 M39.95,257.55L39.95,257.55 M40.95,243.35
		l0.1-0.1l0.1,0.1 M46.25,240.95v-0.9 M48.75,240.45v-0.3 M40.75,243.55h-0.1h-0.1 M40.15,244.55l-0.1-0.2v-0.1 M45.75,241.15v-0.3
		 M40.15,272.95v-9.9 M48.85,241.45v-0.3 M41.15,243.35l0.2-0.1 M46.85,241.65v-0.1 M50.35,243.55v0.7 M51.95,242.45l-0.3-0.5
		 M44.05,244.55h-0.1 M44.55,239.85L44.55,239.85h0.2h0.2h0.2 M48.95,241.65l0.2,0.2l0.2,0.3l0.2,0.2l0.2,0.2l0.2,0.3
		 M150.35,280.65h0.1l0.1-0.1 M40.15,244.55v-0.1l0.1-0.2l0.1-0.1 M150.35,249.55h0.1v-0.1 M52.65,278.25v-1.4 M52.35,278.25
		L52.35,278.25l0.1,0.1h0.1 M52.25,278.05v-1.4 M52.35,276.45L52.35,276.45h0.1v0.1h0.1 M52.65,278.85L52.65,278.85v-0.1l-0.1-0.1
		l-0.1-0.1l-0.1-0.1 M52.25,278.75L52.25,278.75l0.1,0.2v0.1l0.1,0.1h0.1 M150.25,249.65h0.1 M150.35,249.45L150.35,249.45
		 M150.35,249.35h-0.1 M150.35,249.35L150.35,249.35 M43.15,247.35l1.6,0.2 M150.25,249.25l-0.1-0.1 M150.35,249.35L150.35,249.35
		 M150.25,249.45v0.1 M150.05,249.25h0.1 M148.75,250.65v-0.4 M53.75,279.85l-0.6-2 M51.35,278.35v0.1l0.4,0.3l0.3,0.3l0.4,0.3
		l0.4,0.3 M52.45,275.75l-0.8,1.3l-0.7,1.1 M149.15,250.25h0.1 M149.35,250.15v-0.1 M148.85,250.25h0.1 M149.05,250.05v0.1
		 M149.25,249.85l-0.1-0.1 M149.05,250.05l-0.1-0.1 M149.15,250.05l0.1-0.1 M148.85,249.95l-0.1,0.1 M149.05,249.75l-0.1,0.1
		 M147.35,249.25l0.2,0.1 M40.05,256.55v-7.6 M39.65,260.35l0.3-1.2l0.1-1.3 M39.65,260.35L39.65,260.35 M141.75,248.25v-0.8
		 M144.25,247.75v-0.2 M141.25,248.55v-0.3 M144.35,248.75v-0.3 M142.35,249.05v-0.1 M138.35,249.95v-0.3 M142.35,254.25l0.1-0.1
		 M142.35,253.95h0.1 M142.35,253.95L142.35,253.95h-0.1 M142.35,253.85v-0.1 M142.25,253.75h-0.1h-0.1 M139.55,251.95v-0.1
		 M145.85,250.95v1.2 M137.15,254.25h0.1h0.1 M142.25,254.05l0.1,0.1 M142.05,253.75l0.1,0.1 M141.15,254.95l-0.1-0.1
		 M140.95,254.95h0.1 M141.05,254.65l-0.1-0.1 M140.95,254.75L140.95,254.75 M140.75,254.95h0.1 M140.95,254.85v0.1 M140.95,254.75
		h-0.1 M137.15,303.75v0.1 M140.05,247.25L140.05,247.25l0.2-0.1h0.2h0.2 M144.45,249.05l0.2,0.2l0.2,0.2l0.2,0.2l0.3,0.3l0.2,0.2
		 M100.45,325.15v-0.1 M137.55,254.65v-0.4 M140.75,255.05l-0.1,0.2 M140.75,254.75v0.1 M140.85,254.45v0.1 M137.55,254.15v-0.1
		l0.1-0.1 M140.25,254.85l-1.3-0.3 M99.15,325.25h-0.1 M82.35,305.85l-0.2,0.2 M74.55,291.75l0.2,0.1l0.2,0.2l0.2,0.1l0.3,0.1
		 M76.45,292.65l0.2,0.1l0.3,0.1l0.3,0.1l0.2,0.1l0.3,0.1 M78.25,293.35L78.25,293.35v0.1 M78.05,293.45l-0.3-0.1l-0.3-0.1h-0.2
		l-0.3-0.1l-0.2-0.1 M76.25,292.95L76.25,292.95v0.1v0.1v0.2v0.1 M75.95,293.45l-0.2-0.2l-0.3-0.2l-0.2-0.3l-0.3-0.3l-0.2-0.3
		 M78.55,293.35l0.2,0.1l0.3,0.1h0.3l0.2,0.1l0.3,0.1 M73.05,290.85L73.05,290.85l0.2,0.1l0.2,0.1l0.1,0.1l0.2,0.2 M74.45,291.65
		h0.1l0.2-0.1h0.2h0.3 M76.25,291.45v0.2v0.1v0.1v0.1 M76.45,292.45l0.2,0.1h0.2l0.2,0.1l0.1,0.1l0.2,0.1 M77.85,292.85v-0.1v-0.2
		v-0.1v-0.1 M77.95,292.05L77.95,292.05h0.1l0.1,0.1h0.1 M78.35,292.35v0.1v0.2v0.1l-0.1,0.1 M137.15,254.75v-0.4 M112.05,268.75
		l21.6-12.5 M136.95,253.85v0.1l0.1,0.1l0.1,0.1 M108.65,271.25l-0.1-0.4 M108.45,270.75v-0.1l-0.1-0.1v-0.1 M108.35,271.05v-0.1
		l0.1-0.1 M109.25,273.25l0.1-0.1 M109.25,273.35L109.25,273.35 M109.25,273.15L109.25,273.15 M109.25,273.05h-0.1 M109.25,273.05
		L109.25,273.05 M83.55,304.75l0.2-0.2 M109.15,272.95l-0.1-0.1 M109.25,273.05v-0.1 M108.05,270.85h0.1h0.1 M92.15,199.25l-0.1,0.5
		 M109.15,273.15v0.1 M108.95,272.95l0.1,0.1 M107.35,274.15v0.4 M107.75,274.15h0.1 M107.95,274.05v-0.1 M107.45,274.15h0.1
		 M107.65,273.95v0.1 M107.85,273.75l-0.1-0.1 M107.65,273.95l-0.1-0.1 M107.75,273.95l0.1-0.1 M107.45,273.85v0.1 M107.65,273.65
		h-0.1 M105.95,273.15l0.3,0.1 M94.25,197.85l-0.4-0.1l-0.6-0.2h-0.7h-0.6l-0.6,0.2 M94.55,197.15l-0.5-0.2l-0.7-0.1l-0.8-0.1
		l-0.7,0.1l-0.7,0.1 M47.25,271.35l0.2,5.9 M75.95,295.85L75.95,295.85l1.6,0.6l1.5-0.1l1.1-0.6l0.3-0.6l0.2-0.6l0.1-0.8
		 M77.25,288.85l-1.5-0.6l-1.4-0.1l-1.1,0.6l-0.6,1.2 M62.35,289.05L62.35,289.05l0.4,0.2l0.4,0.3l0.4,0.2l0.3,0.2 M62.05,288.75
		v-0.7 M62.35,288.15L62.35,288.15l0.4,0.2l0.4,0.2l0.4,0.2l0.3,0.3 M65.05,290.45v-0.7 M65.15,276.95L65.15,276.95l-0.5-0.1
		l-0.6-0.4l-0.5-0.5l-0.4-0.7l-0.3-0.7l-0.1-0.7l0.1-0.6l0.3-0.4 M66.15,276.75l0.6,0.6 M65.85,272.25h-0.1l-1-0.9l-1.1-0.5
		l-0.9-0.1l-0.7,0.4l-0.5,0.8l-0.2,1l0.2,1.3l0.5,1.3 M67.35,274.65h-0.8l-0.6,0.1 M53.75,283.15v-0.7 M51.45,281.45h0.1l0.3,0.3
		l0.3,0.2l0.3,0.3l0.3,0.2 M51.25,281.05v-0.7 M51.45,280.55h0.1l0.3,0.2l0.3,0.3l0.3,0.2l0.3,0.3 M69.55,276.45v-2.1 M69.65,276.85
		h0.1l0.1,0.1h0.1 M70.15,277.05l1-1l0.8-0.9 M72.15,275.25l0.3,0.1l0.2,0.2l0.3,0.1l0.2,0.1 M73.95,276.05l-1.3,1.4l-1,1
		 M71.95,279.15l1,1.9 M72.15,282.15l0.3,0.2l0.2,0.1l0.3,0.1l0.2,0.1 M71.65,281.55l-0.7-1.5 M69.65,278.25h0.1v0.1h0.1l0.1,0.1
		 M69.55,280.65v-2.1 M68.25,280.25l0.2,0.1l0.2,0.1l0.2,0.1l0.2,0.1 M68.05,279.35v-5.2 M68.25,273.35l0.2,0.1l0.2,0.1l0.2,0.1
		l0.2,0.1 M50.55,278.15l1.1-1.7l0.8-1.4 M52.75,275.95l0.8,2.6 M50.95,278.45l0.1,0.1l0.4,0.3l0.5,0.4l0.5,0.4l0.5,0.4
		 M59.85,275.45L59.85,275.45l0.1,0.1l0.2,0.1l0.2,0.1l0.1,0.1 M59.65,274.55v-5.3 M59.85,268.55L59.85,268.55l0.1,0.1l0.2,0.1
		l0.2,0.1l0.1,0.1 M61.05,275.35v-5.2 M62.45,286.35v-2.6 M62.85,283.75l1,1.4 M65.05,286.55l-1.5,0.1l-1.1,0.1 M54.65,270.25
		L54.65,270.25l0.4,0.3l0.4,0.3l0.4,0.3l0.4,0.3 M57.65,271.45L57.65,271.45l0.1,0.2v0.2l0.1,0.2l-0.1,0.1 M58.35,267.85
		L58.35,267.85l-0.7-0.7l-0.7-0.5l-1.3-0.9l-1,0.1l-0.3,0.5v0.8 M56.25,267.75L56.25,267.75l0.4,0.3l0.4,0.3l0.3,0.2l0.4,0.3
		 M55.75,268.35L55.75,268.35l-0.1-0.2l-0.1-0.2v-0.2v-0.1 M57.15,269.45l0.5,0.3l0.8,1l0.5,1l0.2,0.9l-0.1,0.8l-0.3,0.6l-1.2-0.1
		 M95.35,200.15L95.35,200.15l0.2-0.7l-0.2-0.6l-0.6-0.6l-1-0.4 M100.35,272.15v-0.8 M90.15,198.25l-0.2,0.1l-0.3,0.4 M94.75,200.75
		L94.75,200.75 M94.45,200.85l0.2-0.1 M90.15,198.55l-0.3,0.3l-0.3,0.6 M90.35,198.15L90.35,198.15l0.1,0.1 M102.85,271.65v-0.2
		 M96.25,199.35l0.1-0.4l-0.1-0.4 M94.95,197.95l0.2-0.4 M95.75,199.55v-0.1v-0.4 M95.25,200.45L95.25,200.45h0.1 M89.55,197.65
		l-0.1,0.1l-0.4,0.4l-0.2,0.4v0.4 M89.85,197.35L89.85,197.35v-0.1 M99.85,272.45v-0.3 M102.95,272.65v-0.3 M100.95,272.95v-0.1
		 M105.05,322.25l16-9.2 M138.35,302.45l-0.5,0.7 M150.35,280.95l-0.1,0.2l-0.1,0.6 M150.35,256.25v12.2 M96.95,273.85v-0.3
		 M99.15,325.05h0.1h0.3h0.3 M100.45,324.95l-0.3,0.1 M100.55,286.85v19 M93.35,276.45l-0.5-1.1 M100.95,278.15l0.1-0.1
		 M101.05,277.85L101.05,277.85 M100.95,277.75v0.1h-0.1 M100.95,277.75v-0.1 M100.85,277.65h-0.1h-0.1 M98.15,275.85v-0.1
		 M50.35,251.35l0.9,0.8l3.4,2.7l4.6,3.3l6.5,4l5.9,3.2 M109.25,273.55l-0.1-0.1 M108.15,274.05l0.9-0.6 M107.95,274.15v0.4
		 M100.95,278.25v0.4 M150.35,252.35l-0.1-2.3 M149.45,250.15l0.7-0.4 M149.35,250.65v-0.4 M142.35,254.75v-0.4 M141.25,254.85
		l0.9-0.5 M141.15,254.95l-0.1,0.2 M100.85,277.95l0.1,0.1 M100.75,277.65v0.1 M100.55,278.35l0.2-0.1 M104.55,274.85v1.2
		 M100.55,278.75v1.4 M99.15,278.55l0.2,0.1h0.4l0.4-0.1 M100.45,278.35v-0.1v-0.2l-0.1-0.1 M98.65,271.15L98.65,271.15l0.2-0.1h0.2
		h0.2 M103.05,272.95l0.2,0.2l0.2,0.2l0.3,0.2l0.2,0.3l0.2,0.2 M99.15,278.05l-0.1,0.1v0.1 M40.05,277.25l-0.1-1.6 M40.05,279.35v10
		 M44.45,296.45l0.1,0.1l5.5,5.4l6.3,4.9l7.2,4.6l7.9,4.2 M98.95,287.05v18.9 M98.95,278.95v2.4 M98.15,278.25l-3.9-1.3
		 M42.35,247.15l-2-2.3 M40.15,244.95l-0.1,2.4 M40.65,248.55l0.1,0.1l0.7,1l0.8,1l0.8,0.9 M54.35,238.15l6-3.5 M52.75,238.85h0.1
		h0.2 M52.15,238.75l-1.3-0.1 M48.35,239.15l0.9-0.5 M45.25,244.95l0.2,0.1l1.9,0.1l1.9-0.3l1.6-0.6l1.1-0.9 M41.45,243.45l1.2,0.6
		 M40.75,243.55l0.2-0.1 M40.45,244.05v-0.1 M42.85,246.85l-1.3-1.5l-1-1.2 M43.45,246.85l1.6,0.2 M50.65,250.75l1.5,1.4l6.5,4.8
		l7.4,4.7l8.2,4.4 M93.75,275.95l-0.5-1.1 M98.35,277.75l-2.2-0.7 M99.35,278.05h0.1h0.3 M100.25,277.85l0.2-0.1 M100.35,277.45
		l-1.2-0.8 M97.55,275.35l-0.6-0.6l-0.4-1.2 M105.75,272.25l0.8,0.5 M107.85,273.55l0.9-0.6 M108.15,271.05l0.4,0.9 M108.15,270.35
		l-0.1,0.1v0.1 M111.75,268.35l21.6-12.5 M137.55,253.75l-0.1-0.1h-0.3 M140.35,254.35l-1.3-0.3 M140.95,254.35l1-0.5
		 M141.75,253.55l-1.2-0.8 M138.95,251.45l-0.6-0.6l-0.4-1.2 M147.15,248.35l0.8,0.5 M149.25,249.65l0.6-0.4 M148.95,245.25l0.6,2.2
		l0.5,1.7 M148.45,244.95l0.2,0.1 M144.75,244.95h1.7 M75.25,209.85L75.25,209.85v0.1 M75.45,209.55v-0.1l0.2-0.3l0.2-0.3l0.2-0.4
		 M77.25,207.05L77.25,207.05h-0.1h-0.1 M77.45,207.15h0.1l0.1,0.1l0.2,0.1l0.1,0.1h0.2 M89.35,197.55h-0.1l-0.3,0.4l-0.3,0.5v0.4
		 M78.15,208.05l-0.4,0.3l-0.4,0.2l-0.4,0.3l-0.4,0.3 M72.75,208.35l-0.2-0.2l-2.2-2.1l-1.4-2.4l-0.8-2.4l0.1-2.5 M110.55,210.85
		l-0.3,0.3l-2.7,1.3l-3.1,1.1l-3.2,0.9l-3.5,0.5l-3.5,0.3h-3.6l-3.5-0.3l-3.4-0.6l-3.3-0.9 M88.35,201.35l-1.4,0.9l-1.4,0.9
		l-1.4,0.9l-1.4,0.9 M78.65,207.85h0.1l0.1,0.1l0.2,0.1l0.1,0.1h0.2 M79.75,208.75L79.75,208.75l0.1-0.1v-0.1 M79.05,208.95
		l-0.4,0.1l-0.5,0.2l-0.5,0.1l-0.5,0.2l-0.5,0.2 M75.35,210.05h0.1h0.1 M75.35,210.05L75.35,210.05 M110.35,209.75l-0.2,0.2
		l-3.3,1.6l-3.7,1.3l-4,0.8l-4.2,0.5h-4.3l-4.3-0.4 M95.85,197.05l-0.4,0.2 M95.75,200.25l0.1-0.1l0.4-0.4l0.2-0.4l0.1-0.5
		 M90.45,200.85l0.6,0.1l0.8,0.2h0.7h0.8l0.8-0.2 M154.55,271.05l-0.5,0.4 M151.15,274.25l1.4-0.8 M7.85,139.95v0.1 M6.55,111.05
		l-0.1,0.7 M9.65,108.95l6.4-4.3 M9.95,141.85h-0.1 M163.85,230.75h-0.1 M9.35,111.65l-0.3,0.7 M29.25,98.35l-12.9,8.6
		 M163.35,200.55l-0.4,0.7 M167.35,197.85l17.7-11.3 M165.85,231.15l-0.1,0.1 M166.45,232.55l0.6,0.3 M166.25,203.25l-0.6,0.4
		 M193.55,185.45l-6.1,4 M119.35,131.15L119.35,131.15 M140.15,113.95l1.7-0.1l1,0.4 M121.15,112.15v0.5 M124.45,110.45v-1.1
		 M117.95,113.55v0.3 M126.05,109.85l-0.1,0.1 M124.25,113.85v0.5 M127.45,112.15v-1.1 M127.35,110.85l-0.1-0.3 M120.95,115.25v0.3
		 M129.05,111.65l-0.1,0.1 M127.25,115.65v0.4 M130.45,113.95v-1.2 M130.35,112.55l-0.1-0.2 M124.05,116.95v0.4 M132.05,113.35
		l-0.1,0.1 M130.25,117.35v0.5 M133.45,115.65v-1.1 M133.35,114.25l-0.1-0.2 M127.05,118.75v0.3 M135.15,115.05l-0.2,0.1
		 M102.55,119.55l14.5,8.3 M124.05,122.45l-11.8-6.8 M119.25,149.75h0.2 M127.75,122.25l1.7-1.3l1.7-1.3l1.7-1.2l1.8-1.1
		 M116.85,128.05l-14.6-8.4 M70.45,123.25l42,24.2 M119.25,129.45v-0.1v-0.1h0.1 M119.25,151.55L119.25,151.55v-0.1 M129.45,126.25
		l0.6,0.5l1.9,2.2l1.6,2.4l1.4,2.5l1.1,2.7l0.7,2.7l0.4,2.5v2.4 M120.25,128.45l0.8-0.7l0.8-0.7l0.8-0.7l0.8-0.7l0.9-0.7
		 M67.55,37.35l0.3,1.2 M78.65,38.65l-4.8,2.1 M74.05,43.25h8.8 M59.55,41.55l4.8,0.4 M60.15,46.85l5.9-2.9 M73.55,43.65l8.4,0.9
		 M81.25,33.55l-0.6,0.1 M62.05,47.85l4.7-3.6 M73.25,48.25l-3.1-3.6 M117.45,14.55v-0.1 M118.45,14.65l-0.1,0.2 M117.55,15.05
		l0.6-0.6 M118.35,15.15v-0.1 M118.15,15.05v0.1h-0.3l-0.1,0.1h-0.1 M117.45,15.25L117.45,15.25v-0.1 M117.35,15.25l-0.1-0.1
		 M118.25,15.25h-0.1l-0.2,0.1h-0.2h-0.1 M117.45,14.45l0.1-0.1l0.3-0.1h0.2h0.2 M117.05,15.05l0.1-0.2 M118.55,14.05v0.1v0.1
		 M118.65,14.35L118.65,14.35v0.1l0.1,0.1v0.2 M117.25,15.55L117.25,15.55v-0.1 M93.85,28.75l-0.3,1.8 M106.65,19.75l-2.2-1.5
		 M120.25,8.45h-0.1l-1.6,0.6l-1.9,1.1l-2.1,1.7 M116.85,15.25v-0.1l-0.1-0.2l0.1-0.3l0.2-0.3l0.4-0.3l0.4-0.1 M89.85,54.25h-0.1
		l-0.1,0.1v0.1l-0.1,0.1 M91.95,56.05l0.3,0.2 M89.15,54.45h-0.1 M92.45,55.75v0.1l-0.1,0.1l-0.1,0.2 M86.35,42.55l1.3-0.4l3.2-1.7
		l2.9-2.3 M92.35,56.35l0.3,0.2 M97.15,35.95l2.9,2.4 M111.85,22.85l-2-1.2 M97.85,33.05l7.8-10.8 M91.65,56.05l0.1-0.1
		 M93.15,56.45v0.1l-0.2,0.1l-0.1,0.1 M92.85,56.95l0.1,0.2 M64.55,58.55l0.1-0.1l0.1-0.2 M116.25,16.55l-0.7,0.9l-1.3,2.1
		 M124.35,11.45l-2.4,0.5 M118.85,14.35l0.1,0.1v0.1l-0.1,0.4l-0.2,0.3l-0.4,0.2 M49.55,38.45l1.8-0.2 M83.75,57.65l0.7,0.1l1.2,0.5
		 M64.55,59.15v-0.5 M63.65,60.55l0.8-1.8 M64.15,58.15l0.1,0.1h0.1v0.1h0.1v0.1 M64.95,58.35v-0.1l0.1-0.1 M83.05,57.65v0.2
		 M74.25,58.85l3.5-0.9 M83.05,57.05v0.1v0.1v0.1v0.1 M63.55,60.85v0.5 M63.95,60.45L63.95,60.45l0.1-0.1 M66.05,57.05L66.05,57.05
		l0.1,0.1v0.1v0.1 M87.25,53.85L87.25,53.85v0.1v0.1 M63.25,60.35L63.25,60.35h0.1l0.1,0.1v0.1 M72.85,59.45v-0.2 M66.35,57.45
		L66.35,57.45v0.1 M71.15,60.95l0.1-0.4 M72.85,59.15v-0.1v-0.1h-0.1v-0.1v-0.1 M111.35,25.95l-5.7,12.6 M117.25,25.95l-2-1.2
		 M37.55,37.55l-0.6-0.3 M130.05,14.25l-2.5-0.1l-2.6,0.8l-2.4,1.6l-1.9,2.1 M113.45,45.35l-4-1.6 M103.35,43.35l-0.9,1.6l-0.1,0.1
		l-0.1,0.2l-0.5,0.7l-1.9,2.4l-3.2,3.2 M86.85,59.85v0.2 M86.85,59.85l-0.2,0.8 M87.15,59.45L87.15,59.45l-0.1,0.1h-0.1v0.1h-0.1
		 M35.85,32.45l-0.4,0.5 M112.05,60.25l4.6,7.5 M71.25,61.95L71.25,61.95h0.1h0.1 M31.35,31.55l0.5,0.6 M118.85,26.85l0.2,0.1
		l2.5,1.2 M115.25,42.95l2.2-13.7 M137.35,30.65l1.4-0.8l0.4-0.7l0.1-0.2 M46.15,38.85l0.8,1.1 M36.35,26.95l0.5,0.9 M37.25,39.25
		l-0.5-0.6 M78.75,66.25L78.75,66.25h0.1 M84.35,65.45L84.35,65.45h-0.1h-0.1v0.1 M121.15,63.05l-0.8,4.7 M33.15,38.25l0.1-0.5
		 M31.65,33.55l-0.5-0.4 M92.55,57.75v0.4 M92.45,57.55v-0.2 M92.05,58.25l-3.9,8.2 M92.45,57.15L92.45,57.15l-0.1-0.1l-0.2-0.1
		 M93.15,57.25L93.15,57.25l-0.2,0.1 M110.05,60.85l5.8,7.2 M64.35,62.05v-0.1 M64.45,61.95v-0.3 M64.45,61.55v-0.1l0.1-0.1l0.1-0.2
		 M78.05,69.45l-11.7-6.8 M63.85,61.85L63.85,61.85h0.1 M136.75,43.85l-0.4,0.5l-2.3,1.5l-3.1,1.1l-3.7,0.7h-4 M114.45,47.85l-0.4,2
		l-0.9,3.5l-0.9,3 M70.95,61.55l-0.2-0.5l0.1-0.9 M74.05,58.25l3.6-0.9 M83.85,57.15l0.8,0.1l1.3,0.5 M87.25,59.55l-0.1,0.7
		 M69.45,57.05l15-2.3 M65.45,58.05v-0.1l0.3-0.2 M64.45,60.05l0.8-1.7 M64.65,61.05l-0.2-0.1l-0.1-0.2 M78.35,68.95l-11.7-6.8
		 M91.55,57.85l-4,8.7 M91.75,56.15l0.1,0.1l0.2,0.2 M89.25,54.65l2.1,1.2 M87.75,54.25h0.2h0.3l0.4,0.1 M17.55,24.65l1.1-0.5
		l3.1-0.1l3.6,0.5l3.6,1.2 M48.65,43.85l1.4,1.1l2.9,1.3 M41.65,56.05l1.8-2.1l2-3.6 M37.75,32.45l8.3,8.9 M36.35,31.15l-0.2,0.5
		 M103.15,65.55l-0.6-0.3 M114.55,70.35l-3.6-1.5 M123.15,70.45l1.2-0.3 M115.25,71.95h-1.8 M18.05,49.05l-0.9,0.2 M27.05,45.35
		l-0.9,0.5 M20.05,43.45l-0.3-0.6 M26.95,45.15l-0.8,0.6 M18.05,49.15l-0.9,0.2 M25.55,55.05l-1.4-3.4 M115.55,72.15l-1.8,0.2
		 M115.75,74.25l2.1-1.6 M50.55,76.85l1.5-7.6 M33.05,38.35l-0.5,1.1 M16.15,28.45l1.8-0.6l4.8-0.3l2.4,0.5l2.3,0.8 M43.85,74.85
		l2.8,3.5 M49.65,76.85v-7.5 M54.65,77.65l6.9-5.3 M138.55,65.75l-0.3-0.2l-1.8-0.5l-2.4-0.5l-5.8-1 M39.45,54.75l-5.7-12.6
		 M32.05,40.25l-1.6,2.2 M16.05,49.35h-2.1 M66.05,77.95l-9.5,1.9 M48.15,67.15l-0.9-0.7l-2.7-2.8l-2-2.9 M16.75,61.45l0.9,0.4
		l3.5,0.9l4.2,0.3l4.4-0.3l4.2-1.1 M61.75,50.15l0.1,1.4l-0.5,3.5l-1.3,3.7 M95.75,54.35l5.3,2.6 M92.55,52.55l-4.7-3.2
		 M77.45,69.65l-11.7-6.7 M63.65,61.75l-0.3-0.2l-0.2-0.4 M63.25,60.15l0.8-1.8 M64.25,57.95l0.1-0.2l0.5-0.3 M69.15,56.55l14.9-2.3
		 M87.65,53.75h0.2h0.8l0.7,0.2 M90.15,54.35l2.1,1.2 M92.65,55.85l0.4,0.2 M93.25,56.45L93.25,56.45l0.1,0.4l-0.1,0.4 M92.85,58.25
		l-3.8,8.1 M47.65,81.65l-0.9,0.5 M25.85,83.65l1.2-0.9l2.2-1.2l2.5-1.2l5.7-2.8 M65.85,79.15l-9.4,1.2 M57.95,83.05l-4.6-0.9
		 M73.65,75.55l-0.7,0.1 M44.95,83.65l-1.8,1.6l-2.9,3.2l-2.2,3.1 M128.85,87.75l-0.2-1.7l-0.9-2.3l-1.6-2.3l-4.4-4 M75.55,74.45
		l0.4-0.8 M73.05,79.75l-2.3,1.5 M73.75,82.05l0.1-0.7 M70.65,79.75l-0.4-0.1 M53.65,99.75l-0.5-2l-0.2-2.4l0.3-2.6l1.9-5
		 M75.55,74.35l0.5-0.8 M73.75,81.95l0.1-0.7 M117.75,83.55l-0.2,2.2l-1.6,2.9 M109.55,84.65l-0.4-0.7 M110.75,84.45l1.1-0.5l1-0.6
		l0.6-0.4l0.3-0.3 M76.25,95.65l-1.5-0.6l-3.3-2.1l-2.4-2.6 M74.55,83.65l0.8,1.2l2.6,2.1l3.4,1.4 M93.15,66.95l0.4,0.1l0.6,0.8
		l0.6,1.3 M107.15,81.15l-5.2-0.4 M92.35,82.45l-2.9,1.6 M25.05,86.85l2.1,3.3 M32.95,92.35l-4-3.2 M24.45,84.15l-1.2-1.8
		 M136.75,80.85l-1.7,2.8 M126.45,92.15l-0.7,0.5l-2.4,1.1l-2.3,0.8 M112.55,91.55l-1.8-4.1l-1.1-2.6 M109.05,85.05l-3,0.8
		 M90.45,88.45l-4.5,0.2 M84.45,89.45l-4.8,6.4 M77.25,98.55l-2.4,1.7l-2.7,1.3l-3.1,1l-3.3,0.5 M53.15,101.65l-5.6-1.7
		 M49.05,104.95l2.4,0.9l5.7,1.6l6,1.3 M86.85,109.75l6.5-0.6 M117.75,101.55l2.7-1.5l4.5-3 M272.45,250.25l-0.2-0.2l-0.2-0.4
		l-0.1-0.5 M272.35,250.25l-0.1-0.1l-0.1-0.2l-0.1-0.2l-0.1-0.3l-0.1-0.2 M272.05,248.65h0.1l0.2-0.1l0.1-0.1 M271.55,249.35v0.1
		l0.1,0.5l0.2,0.4 M272.45,250.45L272.45,250.45l-0.2,0.1 M272.55,250.35L272.55,250.35 M271.85,245.95h0.1l0.2-0.1l0.1-0.1
		 M288.15,249.75l-0.1,0.3l-0.8,1.2l-1.3,1.1l-1.7,0.9l-1.9,0.6 M276.55,252.15l1.2,0.2l2.2-0.1l2-0.4l1.9-0.6l1.4-0.9l1.1-1.1
		l0.5-1.2v-1.2l-0.5-1.2l-1-1.1l-1.5-0.9 M272.05,250.75L272.05,250.75l-0.1,0.1h-0.1l-0.1,0.1 M279.75,259.15l0.2,1.4
		 M277.55,257.05l-8-5.4 M269.55,241.25L269.55,241.25l0.1-0.3v-0.2l0.1-0.3l-0.1-0.2 M205.45,200.55l0.1-0.1v-0.2v-0.3v-0.2
		 M271.75,248.75h0.2 M271.95,248.35v-0.6l-0.1-0.9 M271.75,245.25l-0.1-0.2l-0.7-2 M262.15,236.85l-49.4-31.2 M263.95,247.55
		L263.95,247.55l0.1-0.3l0.1-0.2v-0.3l-0.1-0.2 M212.95,211.65l51.2,32.4 M271.55,249.05v-0.1l0.1-0.1 M264.95,257.35l8,4.6
		 M267.35,257.35l-0.8-2l-1.4-3.7 M257.05,243.55l-45.8-29 M155.85,97.05l1,0.9l1.1,0.5h1l0.8-0.3l0.5-0.8l0.2-1.2 M160.45,96.15
		l-0.1-0.7 M155.65,316.65l0.1,0.2l1.1,0.9l1.1,0.6h1l0.8-0.4l0.5-0.8l0.2-1.1 M160.45,316.05l-0.2-1.3l-0.1-0.3 M155.05,150.45
		l0.7,0.9l1.1,0.9l1.1,0.6h1l0.8-0.3l0.5-0.9l0.2-1.1 M160.45,150.55l-0.2-1.3l-0.5-1.4l-0.1-0.1"/>
	<path fill="none" stroke="#000000" stroke-width="0.5" stroke-linecap="round" stroke-linejoin="round" stroke-miterlimit="10" d="
		M87.85,24.35l-1.3,0.7 M86.55,25.05l-0.3,0.3l-0.3,0.2l-0.2,0.3v0.4v0.3l0.2,0.3l0.3,0.3l0.3,0.2 M86.55,27.35l4.5,2.6
		 M91.05,29.95l0.1,0.1h0.2h0.1h0.1h0.2h0.1h0.1l0.1-0.1 M92.05,29.95l1.5-0.8 M93.55,28.55l-2-1.2 M91.55,27.35h-0.1v-0.1l-0.1-0.1
		v-0.1l0.1-0.1v-0.1l0.1-0.1 M91.55,26.75l0.7-0.4 M167.45,344.25L167.45,344.25h-0.1h-0.1l-0.1-0.1h-0.1h-0.1 M166.95,344.15h-3
		 M156.75,345.65l-0.4-0.3l-0.2-0.3l-0.2-0.3l-0.1-0.3 M163.95,347.05v0.1l-0.1,0.1l-0.1,0.1 M163.75,347.35l-1.5,0.9
		 M161.25,348.25l-4.5-2.6 M162.25,348.25h-0.1l-0.1,0.1h-0.2h-0.1h-0.2h-0.1l-0.1-0.1h-0.1 M168.05,344.65l-0.6-0.4 M188.95,344.45
		l-0.3,1.6l-0.8,1.5l-1.3,1.5l-1.8,1.2 M168.25,352.25h-0.1l-0.1-0.1v-0.1v-0.1 M184.75,350.25l-8,4.6 M172.75,354.85l-4.5-2.6
		 M176.75,354.85l-0.4,0.2l-0.5,0.2l-0.5,0.1h-0.6h-0.5l-0.6-0.1l-0.5-0.2l-0.4-0.2 M172.75,77.15l-4.5-2.6 M172.75,77.15l0.4,0.2
		l0.5,0.1l0.6,0.1l0.5,0.1l0.6-0.1l0.5-0.1l0.5-0.1l0.4-0.2 M184.75,72.55l-8,4.6 M188.85,67.65l-0.2,0.7l-0.8,1.5l-1.3,1.4
		l-1.8,1.3 M156.75,65.55l1.2-0.7 M156.75,65.55l-0.4,0.3l-0.2,0.2l-0.2,0.3l-0.1,0.4l0.1,0.3l0.2,0.3l0.2,0.3l0.4,0.2
		 M161.25,70.45l-4.5-2.6 M162.25,70.45l-0.1,0.1h-0.1h-0.2h-0.1h-0.2h-0.1h-0.1l-0.1-0.1 M163.75,69.65l-1.5,0.8 M163.75,69.05h0.1
		v0.1l0.1,0.1v0.1l-0.1,0.1v0.1l-0.1,0.1 M161.75,67.85l2,1.2 M161.75,67.25l-0.1,0.1l-0.1,0.1v0.1v0.1v0.1l0.1,0.1h0.1
		 M162.45,66.85l-0.7,0.4 M175.25,73.15v-0.3 M175.05,73.45h0.1v-0.1h0.1v-0.1v-0.1 M173.75,74.25l1.3-0.8 M172.75,74.25h0.1
		l0.1,0.1h0.2h0.1h0.1h0.2l0.1-0.1h0.1 M170.75,73.05l2,1.2 M169.75,73.05h0.1l0.1-0.1h0.2h0.1h0.1h0.2l0.1,0.1h0.1 M168.25,73.95
		l1.5-0.9 M168.25,74.55l-0.1-0.1l-0.1-0.1v-0.1v-0.1v-0.1h0.1l0.1-0.1 M91.25,5.15v-0.2 M91.95,25.55l0.1,0.2l0.7,1.5l1,1.1
		 M192.35,53.35v-0.1l0.1-0.5 M161.45,45.65v-0.2 M182.25,71.05l-0.4,0.2l-1.9,0.8l-2.1,0.5l-2.2,0.3h-2.2 M162.15,66.05l0.1,0.2
		l0.7,1.5l1.2,1.3l1.6,1.1 M175.25,72.35l2.4-0.2l2.4-0.5l2.3-0.7l1.9-1l1.5-1.2l0.9-1.2 M165.75,70.15l0.9,0.5 M122.95,220.85
		l0.4-1l0.1-1.3 M123.45,218.55l-0.1-1.1l-0.5-0.8l-0.7-0.4 M124.25,215.55h-0.4l-0.6-0.3 M153.35,323.95l-0.3-0.1l-0.2-0.1h-0.3
		h-0.3h-0.3l-0.3,0.1l-0.2,0.1l-0.2,0.1 M35.95,303.25l-0.6-1.1l-0.3-1l-0.1-0.9 M168.95,321.75L168.95,321.75l0.8-0.6l0.5-0.9
		l0.4-1.1l0.1-1.3 M162.75,322.85l-0.2,1.2l-0.4,1l-0.6,0.8l-0.7,0.6l-0.9,0.3h-1l-1.1-0.3l-1.1-0.5 M154.65,317.15l0.4,0.5l1.2,1
		l1.1,0.7l1.2,0.2l0.9-0.2l0.8-0.7l0.4-1l0.1-1.4l-0.3-1.5l-0.1-0.4 M156.75,325.95l-3.4-2 M170.75,317.85v-17.4 M162.75,313.25
		h-0.1l-0.1,0.1h-0.1h-0.1v0.1h-0.1 M162.75,322.85v-9.6 M163.15,322.25L163.15,322.25l-0.4,0.6 M129.55,330.65l21.3-6.4
		 M122.05,332.85l2.6-0.8 M150.85,324.25l0.4-0.2 M162.25,313.45l-50.1,24.2 M112.15,337.65l-1.5,0.6l-1.7,0.6l-1.8,0.3l-1.8,0.3
		l-1.9,0.1l-1.9-0.1l-1.9-0.1l-1.8-0.4 M97.85,338.95l-6.9-1.7l-6.6-2l-6.4-2.3l-6.1-2.5l-5.9-2.7l-5.4-3l-5.2-3.1l-4.7-3.4
		l-4.3-3.5l-3.9-3.7l-3.5-3.8l-3-4 M112.15,329.55l50.1-24.2 M162.25,305.35l0.1-0.1h0.1l0.2-0.1h0.1l0.1-0.1l0.1-0.1h0.1l0.1-0.1
		 M163.15,304.85l7.6-4.4 M170.75,300.45l-23.7-13.6 M39.95,285.65l-1.7,1.2 M38.25,286.85l-1.1,0.9l-0.9,1l-0.7,1l-0.4,1.1
		l-0.2,1.1l0.1,1.1l0.3,1l0.6,1.1 M35.95,295.15l3,4l3.5,3.8l3.9,3.7l4.3,3.5l4.7,3.4l5.2,3.1l5.4,3l5.9,2.7l6.1,2.5l6.4,2.3l6.6,2
		l6.9,1.7 M97.85,330.85l1.8,0.4l1.9,0.1l1.9,0.1l1.9-0.1l1.8-0.3l1.8-0.3l1.7-0.6l1.5-0.6 M56.55,121.65l-1.5-1l-1-1.1l-0.7-1.2
		l-0.2-1.3 M168.95,156.25L168.95,156.25l0.8-0.6l0.5-0.9l0.4-1.1l0.1-1.3 M97.65,145.45l-1.3-0.4l-1.8-0.8l-1.4-1l-0.7-0.8
		 M162.75,156.95l-0.1,1.3l-0.4,1.1l-0.5,0.9l-0.8,0.6 M154.15,150.95l0.1,0.1l1,1.3l1.2,1l1.2,0.6l1.1,0.1l0.9-0.3l0.7-0.8l0.3-1.1
		v-1.4l-0.3-1.5l-0.6-1.4 M122.65,159.85l-66.1-38.2 M161.75,146.55l-23.1,13.3 M161.75,146.55l0.2-0.1h0.2h0.1h0.2l0.1,0.1l0.1,0.2
		l0.1,0.2v0.2 M162.75,147.15v9.8 M170.75,152.35v-17.4 M138.65,159.85l-1.7,0.8l-1.9,0.6l-2.2,0.4l-2.2,0.1l-2.2-0.1l-2.1-0.4
		l-2-0.6l-1.7-0.8 M170.75,134.95l-19.2-11 M63.25,119.25l59.4,34.3 M122.65,153.55l1.7,0.8l2,0.6l2.1,0.3l2.2,0.2l2.2-0.2l2.2-0.3
		l1.9-0.6l1.7-0.8 M138.65,153.55l32.1-18.6 M56.55,173.75l-1.5-1l-1-1.1l-0.7-1.2l-0.2-1.3 M97.65,197.55l-1.3-0.4l-1.8-0.8l-1.4-1
		l-0.7-0.8 M122.65,211.95l-66.1-38.2 M132.45,213.75l-1.8,0.1l-2.2-0.1l-2.1-0.4l-2-0.6l-1.7-0.8 M139.85,111.15l-5.8-3.3
		 M134.05,107.85l-2.4-1.4 M139.85,111.15l1,0.7l0.9,0.9l0.9,1l0.2,0.3 M168.95,101.85L168.95,101.85l0.8-0.6l0.5-0.9l0.4-1.1
		l0.1-1.3 M156.75,106.05l-9.5-5.5 M162.75,102.55l-0.1,1.3l-0.4,1.1l-0.5,0.9l-0.8,0.6l-0.9,0.4h-1l-1.2-0.2l-1.1-0.6
		 M154.85,97.55l0.8,0.8l1.2,0.8l1.2,0.5l1.1-0.1l0.8-0.5l0.6-1l0.2-1.2 M160.75,96.85l-0.2-1l-0.4-0.8 M159.85,95.15l0.6-0.1
		l0.6,0.1l0.5,0.2l0.4,0.3l0.3,0.4l0.3,0.6l0.1,0.6l0.1,0.7 M162.75,97.95v4.6 M170.75,97.95v-17.3 M158.75,95.65l-1,0.5l-0.9,0.5
		l-1,0.4l-0.9,0.5l-1,0.4l-1,0.5l-1.1,0.4l-1,0.4 M158.75,95.65l1.1-0.5 M45.35,114.25L45.35,114.25l-0.6-0.7l-0.2-1v-0.2
		 M48.55,114.65l0.2,1l0.5,0.8l0.7,0.3l0.9-0.1l0.2-0.1 M51.05,116.55l1.6-0.6 M150.85,99.25l-45.7,17.2 M105.15,116.45l-4.4,1.5
		l-4.6,1.2l-4.9,0.9l-4.9,0.6l-5.1,0.2h-5.1l-5-0.4l-5-0.7l-4.7-1l-4.6-1.2l-4.3-1.6l-4-1.8 M44.55,112.35v-0.5 M48.55,114.65v-0.5
		 M44.55,111.85l-3.2-2.3l-2.7-2.5l-2.2-2.7l-1.7-2.7l-1.2-2.9l-0.3-1.1 M116.85,103.95l34-12.8 M150.85,91.15l1.2-0.5l1.2-0.5
		l1.1-0.5l1.2-0.5l1.1-0.5l1.1-0.6l1.1-0.6l1-0.6 M159.85,86.85l10.9-6.2 M170.75,80.65l-32-18.5 M40.05,290.95l-0.1-0.2
		 M39.65,273.85l-0.1,0.1v0.1h0.1 M39.95,273.15l-0.1,0.1 M39.65,273.85l-0.1-0.1v-0.2l0.1-0.2l0.2-0.1 M40.45,274.85l-0.1,0.1
		 M150.85,275.05v0.1l-0.1,0.5 M150.75,275.75v-0.1 M150.65,272.55l0.1,0.1l0.1,0.2v0.2v0.3l-0.1,0.2 M150.75,273.55l-0.2,0.3
		 M39.55,260.15l0.1,0.2 M40.15,274.55l-0.1-0.3l-0.1-0.3v-0.1 M40.35,261.35L40.35,261.35 M47.65,283.45l0.1-0.1 M40.45,274.85
		l-0.1,0.1 M150.75,261.45l0.1-0.3v-0.1 M150.75,258.75l0.1-0.1v-0.1v-0.2l-0.1-0.3l-0.2-0.2v-0.1 M61.85,231.65l-12,6.9
		 M149.75,282.65L149.75,282.65l-0.1-0.1 M150.75,261.45l-0.2,0.4 M150.75,258.75l-0.1,0.1 M40.15,261.45l-0.1-0.2l-0.1-0.3v-0.2
		 M39.95,247.35v0.1l0.1,0.3 M47.75,241.15h-0.1h-0.1l-0.1,0.1h-0.1v0.1 M46.95,241.65L46.95,241.65h0.2l0.1-0.1l0.1-0.1v-0.1
		 M40.15,261.45l0.8,1.1l0.8,1l0.8,1l0.9,1.1l0.9,1l0.9,1l0.9,1l1,1 M47.75,283.25l-1.1-1.1l-1-1l-1-1.1l-1-1.1l-0.9-1.1l-0.9-1.1
		l-0.8-1.1l-0.9-1.1 M51.65,243.25v0.2l-0.1,0.3 M46.25,239.95h-0.1h-0.1 M46.25,239.95h0.2h0.2h0.2h0.2l0.1-0.1l0.1-0.1h0.1v-0.1
		 M47.85,239.75h0.1l-0.1-0.1h-0.1l-0.1-0.1h-0.1h-0.1v0.1h-0.1 M47.85,239.75v0.1v0.1h0.2l0.1,0.1l0.2,0.1h0.2h0.2 M48.95,240.45
		h0.1h0.1l0.1-0.1v-0.1h-0.1l-0.1-0.1h-0.1h-0.1h-0.1 M48.95,240.45h-0.1l-0.2,0.1h-0.1v0.2v0.1l0.1,0.1l0.1,0.1h0.1 M48.65,241.45
		h0.1h0.1l0.1-0.1v-0.1v-0.1l-0.1-0.1 M48.75,239.35l1.1,0.3l1,0.6l0.6,0.8l0.2,0.8l-0.4,0.8l-0.9,0.7 M44.35,239.95l1.2-0.5
		l0.4-0.1 M147.15,244.85l-22-12.8 M43.15,242.75l-1.3,0.7 M51.65,242.85l0.2,0.4 M144.15,244.95l-13.2-8.3l-5.7-3.4 M43.55,244.35
		l-0.3-0.5l-0.1-0.6 M148.55,244.95v-0.1v-0.1l-0.1,0.1 M144.15,244.95v-0.1h-0.1v0.1 M51.35,243.85l0.3-0.4l0.3-0.5v-0.5
		 M44.15,244.75v-0.1l-0.1-0.1 M50.35,243.35l-1.2,0.5l-1.4,0.2h-1.5l-1.3-0.4l-1.1-0.6l-0.6-0.8l-0.1-0.8l0.4-0.8l0.8-0.7
		 M48.45,241.35l0.1,0.1h0.1 M48.45,241.35l-0.1-0.1l-0.2-0.1h-0.2h-0.2l-0.2,0.1l-0.1,0.1v0.2 M46.85,241.55v0.1l0.1,0.1l0.1,0.1
		h0.1h0.1l0.1-0.1l0.1-0.1v-0.1 M46.85,241.55l0.1-0.2l-0.1-0.1l-0.1-0.1l-0.1-0.1h-0.2h-0.2l-0.2,0.1h-0.1 M45.75,240.85h-0.1v0.1
		l-0.1,0.1v0.1h0.1l0.1,0.1l0.1-0.1h0.1 M45.75,240.85l0.2-0.1l0.2-0.1l0.1-0.1v-0.1v-0.1l-0.1-0.1l-0.2-0.1 M46.05,239.95h-0.1
		h-0.1v0.1h-0.1v0.1h0.1h0.1 M150.45,249.45h-0.1 M42.55,247.35L42.55,247.35 M42.85,246.85L42.85,246.85l-0.1,0.1l-0.1,0.1v0.1
		l-0.1,0.2 M150.35,249.45v-0.1 M149.25,245.45l0.7,2.2l0.4,1.7 M148.95,245.25L148.95,245.25h0.1h0.1l0.1,0.1v0.1 M39.65,260.35
		l0.3,0.6l0.4,0.4 M40.35,261.35L40.35,261.35 M46.95,269.05l-2.4-2.5l-2.2-2.6l-2-2.6 M46.95,269.05h0.2 M46.45,255.25l0.3,7.8
		l0.2,6 M143.25,248.55h-0.1h-0.1h-0.1l-0.1,0.1 M142.45,249.05L142.45,249.05l0.2-0.1l0.1-0.1l0.1-0.1v-0.1 M147.15,250.65v0.2
		l-0.4,0.8l-0.9,0.7 M138.45,250.55l0.2-0.3 M139.45,251.95l-0.7-0.7l-0.4-1.1v-0.1 M141.75,247.25L141.75,247.25h-0.1h-0.1
		 M141.75,247.25l0.2,0.1h0.2h0.2l0.2-0.1h0.1l0.1-0.1l0.1-0.1 M143.35,247.05h0.1H143.35v-0.1h-0.1h-0.1h-0.1h-0.1h-0.1v0.1
		 M143.35,247.05v0.1l0.1,0.1l0.1,0.1l0.1,0.1h0.2h0.2h0.2 M144.55,247.75L144.55,247.75h0.1h0.1v-0.1l-0.1-0.1h-0.1l-0.1-0.1h-0.1
		h-0.1 M144.55,247.75h-0.2l-0.2,0.1l-0.1,0.1v0.1v0.1l0.1,0.1l0.1,0.2h0.1 M144.25,248.75h0.1h0.1v-0.1v-0.1v-0.1h-0.1
		 M144.35,246.65l1,0.3l1,0.6l0.6,0.8l0.2,0.9l-0.4,0.8l-0.9,0.7 M139.85,247.25l1.2-0.5l0.4-0.1 M148.75,250.75h0.1l0.1,0.1h0.1
		h0.1h0.1l0.1-0.1 M147.15,249.85l1.6,0.9 M138.65,250.15l-0.2,0.4 M144.75,252.85l-0.5,0.1l-1.4,0.2l-1.3-0.2l-0.5-0.1
		 M142.35,254.85l0.1-0.1v-0.1 M139.35,251.95l-0.6-0.7l-0.1-0.6 M145.85,252.35l-1.2,0.5l-1.4,0.2l-1.5-0.1l-1.1-0.3
		 M145.85,250.75l-1.2,0.5l-1.4,0.2l-1.5-0.1l-1.3-0.4l-1-0.6l-0.7-0.7l-0.1-0.9l0.4-0.8l0.8-0.7 M143.95,248.65l0.1,0.1h0.1h0.1
		 M143.95,248.65l-0.1-0.1h-0.2h-0.2h-0.2l-0.2,0.1l-0.1,0.1v0.1v0.1 M142.35,248.85v0.1v0.1l0.1,0.1h0.1h0.1h0.1h0.1l0.1-0.1v-0.1
		 M142.35,248.85l0.1-0.1l-0.1-0.2l-0.1-0.1h-0.1l-0.2-0.1h-0.2l-0.2,0.1h-0.1 M141.25,248.15l-0.1,0.1l-0.1,0.1v0.1l0.1,0.1h0.1
		h0.1h0.1v-0.1 M141.25,248.15h0.2l0.2-0.1l0.1-0.2v-0.1v-0.1l-0.1-0.1h-0.2 M141.55,247.25h-0.1l-0.1,0.1l-0.1,0.1h0.1v0.1h0.1
		 M100.35,325.15l-0.3,0.2 M100.05,325.35h-0.2h-0.3h-0.2h-0.2 M100.15,325.05v0.2l-0.1,0.1 M44.65,296.65l0.3,0.4l5.4,5.3l6.3,4.9
		l7.2,4.6l7.9,4.1l8.5,3.6l9.2,3.2l9.6,2.5 M40.45,291.45l-0.2-0.1l-0.1-0.1l-0.1-0.1v-0.2 M80.35,293.85l-0.2,1l-0.6,0.8l-0.9,0.4
		h-1.1l-1.3-0.4l-1.3-0.9l-1.1-1.2l-0.7-1.4l-0.2-1.2v-0.2 M72.95,290.75l0.2-1.1l0.5-0.7l0.9-0.4h1.1l1.3,0.4l1.3,0.9l1.1,1.2
		l0.7,1.3l0.3,1.2v0.3 M121.05,211.05l4.4,22.4 M141.05,255.15v0.1h-0.1h-0.1h-0.1h-0.1 M140.65,255.25l-3.1-0.5 M137.15,254.85h0.1
		l0.1-0.1h0.1h0.1 M137.15,254.85l-28.5,16.5 M108.55,271.35L108.55,271.35h0.1 M109.35,273.35L109.35,273.35v0.1v0.1h-0.1
		 M109.35,273.15l-0.1-0.1 M92.15,199.25l-0.1-0.2l-0.1-0.1l0.1-0.1l0.1-0.1l0.2-0.1h0.2h0.3l0.2,0.1 M108.35,271.05l0.6,1.1
		l0.3,0.9 M93.05,198.75l0.1,0.1l0.1,0.1l-0.1,0.1l-0.1,0.2h-0.2l-0.3,0.1l-0.2-0.1h-0.2 M82.35,305.85h0.5h0.3l0.4-0.2
		 M83.75,304.55l1.2-15l0.9-11.8 M83.25,305.45l0.4-0.3l0.1-0.6 M47.75,283.25v0.5v0.4 M48.75,286.55l-0.3-0.4l-0.3-0.6l-0.2-0.7
		l-0.2-0.7 M48.75,286.55l6.8,6.8l7.9,5.5l8.9,4.2l9.6,2.7 M83.45,304.75l-0.1,0.5l-0.4,0.4l-0.5,0.1h-0.5 M83.45,304.75l1.2-15
		l0.9-11.8 M46.55,255.45l0.3,7.9l0.3,6.3 M91.95,199.85l-0.2-0.2v-0.2v-0.1 M93.45,199.35v0.1l-0.1,0.2l-0.2,0.2l-0.2,0.1h-0.4
		h-0.3l-0.3-0.1 M89.35,199.55l0.1,0.2l0.2,0.4l0.3,0.3l0.2,0.2 M95.25,200.45l0.5-0.3l0.3-0.4l0.1-0.2 M95.05,200.65l0.2-0.2
		l0.3-0.3l0.2-0.4 M89.95,200.45l0.5,0.3l0.7,0.2l0.7,0.1l0.7,0.1l0.8-0.1l0.7-0.1l0.6-0.2l0.6-0.3 M101.85,272.45h-0.1h-0.1h-0.1
		l-0.1,0.1 M101.05,272.95L101.05,272.95l0.2-0.1l0.1-0.1l0.1-0.1v-0.1 M138.45,302.15l1.3-2.5l1.4-2.5l1.3-2.4l1.4-2.5l1.4-2.5
		l1.5-2.4l1.4-2.4l1.5-2.4 M105.75,274.55v0.2l-0.4,0.8l-0.8,0.7 M98.05,275.75l-0.7-0.6l-0.4-1.1v-0.1 M150.45,252.15l0.1,0.3
		 M150.35,252.75h0.1v-0.1v-0.1 M150.35,252.75l-49.8,28.8 M150.35,252.75h0.1l0.1-0.1v-0.1v-0.1 M98.95,281.75h0.2h0.2h0.2h0.2h0.2
		l0.2-0.1h0.2l0.2-0.1 M100.35,271.15L100.35,271.15h-0.1h-0.1 M100.35,271.15l0.2,0.1h0.2h0.2l0.2-0.1h0.1l0.2-0.1v-0.1
		 M102.05,270.95L102.05,270.95l-0.1-0.1h-0.1h-0.1h-0.1h-0.1h-0.1v0.1 M102.05,270.95l-0.1,0.1l0.1,0.1l0.1,0.1l0.1,0.1h0.2h0.2
		h0.2 M103.15,271.65h0.1h0.1v-0.1l-0.1-0.1h-0.1l-0.1-0.1h-0.1h-0.1 M103.15,271.65h-0.2l-0.2,0.1l-0.1,0.1v0.1v0.1l0.1,0.1
		l0.1,0.2h0.1 M102.85,272.65h0.1h0.1v-0.1v-0.1v-0.1h-0.1 M102.95,270.55l1,0.3l1,0.6l0.7,0.8l0.1,0.8l-0.4,0.9l-0.8,0.7
		 M98.45,271.15l1.3-0.5l0.3-0.1 M107.35,274.65h0.1l0.1,0.1h0.1h0.1h0.1l0.1-0.1 M105.75,273.75l1.6,0.9 M97.25,274.05l-0.1,0.2
		l-0.1,0.2 M103.35,276.75l-0.5,0.1l-1.4,0.2l-1.3-0.2l-0.5-0.1 M92.25,275.05l0.1-0.4l0.1-0.4 M46.55,248.75l-0.1-0.6v-0.4
		 M100.95,278.75l0.1-0.1v-0.1 M46.75,247.15L46.75,247.15h-0.1v0.1l-0.1,0.1l-0.1,0.2v0.1 M46.45,247.75v-0.1 M92.45,274.25
		L92.45,274.25 M92.45,274.25v-0.2l0.1-0.1l0.1-0.1h0.1v-0.1h0.1 M107.95,274.65l-7,4.1 M100.55,281.55l49.8-28.8 M149.35,250.75
		l-7,4.1 M141.05,255.15l-31.8,18.4 M97.95,275.85l-0.6-0.7l-0.1-0.6 M104.55,276.25l-1.3,0.5l-1.4,0.2l-1.5-0.1l-1.1-0.3
		 M98.95,281.75h0.4h0.4l0.4-0.1l0.4-0.1 M104.55,274.65l-1.3,0.5l-1.4,0.2l-1.5-0.1l-1.3-0.4l-1-0.6l-0.7-0.7l-0.1-0.9l0.4-0.8
		l0.8-0.7 M102.65,272.55v0.1h0.1h0.1 M102.65,272.55l-0.2-0.1h-0.2h-0.2h-0.2l-0.1,0.1l-0.2,0.1v0.1v0.1 M100.95,272.75v0.1v0.1
		l0.1,0.1h0.1h0.1h0.1l0.1-0.1h0.1v-0.1 M100.95,272.75l0.1-0.1l-0.1-0.2l-0.1-0.1l-0.1-0.1h-0.2h-0.2l-0.2,0.1h-0.1 M99.85,272.05
		l-0.1,0.1l-0.1,0.1v0.1l0.1,0.1h0.1h0.1h0.1v-0.1 M99.85,272.05h0.2l0.2-0.2l0.1-0.1v-0.1v-0.1l-0.1-0.1h-0.1h-0.1 M100.15,271.15
		h-0.1v0.1h-0.1v0.1h-0.1h0.1v0.1h0.1 M92.25,275.05l-6.4-2l-6.2-2.3l-5.8-2.5l-5.5-2.8l-5.2-2.9l-4.7-3.2l-4.4-3.4l-4-3.5l-3.5-3.7
		 M46.55,248.75l-3.9-0.6 M93.25,277.35l-1-2.3 M93.85,276.25L93.85,276.25h-0.1l-0.1,0.1l-0.1,0.1l-0.1,0.1v0.1 M93.45,276.65v0.1
		 M83.85,304.85l1.1-15l1-11.8 M82.05,306.05h0.4h0.4l0.5-0.3l0.3-0.4l0.2-0.5 M48.75,286.75l3.9,4.3l4.4,3.7l4.9,3.4l5.3,2.9l7.1,3
		l7.7,2 M48.75,286.75l-0.3-0.3l-0.2-0.4l-0.3-0.8l-0.2-0.7l-0.1-0.6 M47.65,283.45v0.3v0.2 M47.65,283.45l-2.7-2.8l-2.5-2.8
		l-2.1-2.9 M40.35,274.95L40.35,274.95 M40.35,274.95l-0.4-0.6l-0.3-0.5 M98.95,281.75L98.95,281.75 M85.95,278.05l1.5,0.5l1.6,0.5
		l1.7,0.5l1.6,0.5l1.6,0.4l1.7,0.5l1.7,0.4l1.6,0.4 M93.25,277.35l0.1-0.4l0.1-0.2 M42.65,248.15l3.3,3.7l3.8,3.6l4.2,3.5l4.6,3.2
		l5,3.1l5.3,2.9l5.7,2.7l6,2.4l6.2,2.2l6.5,1.9 M42.65,248.15v-0.4l-0.1-0.4 M40.05,247.75L40.05,247.75 M46.55,255.45L46.55,255.45
		v-0.1h-0.1v-0.1 M46.55,255.45l3.7,3.4l4,3.3l4.5,3.1l4.7,2.9l5.1,2.8l5.4,2.5l5.7,2.4l5.9,2.1 M85.95,278.05h-0.1h-0.1h-0.1v-0.1
		h-0.1 M144.05,244.95l-15.8-9.9l-3-1.8 M125.45,233.45l-1.4,1.6 M95.35,197.25l-0.6-0.3l-0.6-0.2l-0.8-0.1l-0.8-0.1l-0.7,0.1
		l-0.8,0.1l-0.7,0.2l-0.6,0.3 M75.55,189.95l3.3-1.6l1.9-0.6 M70.05,207.25l-1.1-1.4l-1-2l-0.5-2l-0.1-1.7 M118.35,209.45l-0.1,1.9
		l-0.7,2.1l-1.1,2l-1.6,1.9l-2.1,1.7l-2.4,1.5l-2.8,1.3l-3.1,1.1l-3.3,0.9l-3.5,0.5l-3.6,0.3h-3.6l-3.6-0.4l-3.5-0.6l-3.2-0.9
		l-3.1-1.1l-2.7-1.4l-2.4-1.5l-1.9-1.8l-1.6-1.9l-1-2l-0.6-2v-1.8 M126.05,244.25l0.3,2.9l-0.5,3.6l-1.5,3.2l-2.5,3.2l-3.1,2.7
		l-4,2.4l-4.5,1.8l-5.1,1.3l-5.4,0.8l-5.6,0.2l-5.6-0.3l-5.6-0.9l-5.3-1.3l-4.9-1.8l-4.3-2.2l-3.7-2.6l-2.8-2.7l-2-3l-1-3l-0.1-3.2
		l0.3-0.8 M153.55,273.95l0.2-0.2l0.6-1.2l0.2-1.5 M154.55,271.05l-0.2-1.8l-0.6-1.8l-0.9-1.8l-1.2-1.6l-1.1-1 M150.55,264.05
		l0.7,0.8l1.1,1.7l0.9,1.7l0.5,1.8l0.2,1.8l-0.2,1.5l-0.5,1.2l-0.7,0.7 M152.75,273.25l-0.1,1.6l-0.6,1.3l-0.8,0.9l-0.2,0.1
		 M152.75,272.95v0.3 M150.65,266.45l0.5,0.8l0.9,1.9l0.5,1.9l0.2,1.9 M152.75,273.25L152.75,273.25 M150.65,266.65l0.6,1.1l0.8,1.9
		l0.6,1.8l0.1,1.8 M0.25,122.45v-0.6l0.1-2.8l0.5-2.4l0.9-2.1l1.3-1.7l1.6-1.2l1.9-0.7 M6.55,110.95h1.4l1.5,0.6 M163.85,231.95
		l0.5,0.3 M167.15,232.85h-1.3l-1.2-0.5 M9.45,111.55l154,88.9 M194.75,180.35l-45.8-26.4 M163.45,200.45l1.5,1.1l1.4,1.6
		 M194.75,180.35l1.4,1.1l1.4,1.4 M163.85,230.75l1.1,0.4h0.9 M165.85,231.15l1.7-0.6l0.3-0.2 M5.15,113.95l-1.2,0.9l-1.2,1.5
		l-0.8,1.9l-0.5,2.2l-0.1,2.5l0.3,2.8l0.6,2.8l1,2.9l1.2,3l1.6,2.8l1.8,2.7 M7.85,139.95l1,1.1l1.1,0.8 M9.95,141.85l153.9,88.9
		 M165.75,231.25l1.7-0.7l1.5-1.1l1.2-1.5l0.8-1.9l0.5-2.2l0.1-2.5l-0.3-2.7l-0.6-2.9l-1-2.9l-1.3-2.9l-1.5-2.9l-1.9-2.7
		 M163.75,230.75l1.1,0.5h0.9 M9.85,141.85l153.9,88.9 M7.75,140.05l1,1.1l1.1,0.7 M7.05,113.15l-1.8,0.7l-1.4,1.1l-1.2,1.5
		l-0.8,1.9l-0.5,2.2l-0.1,2.5l0.3,2.7l0.6,2.9l1,2.9l1.2,2.9l1.6,2.9l1.8,2.7 M8.95,113.65l-1-0.5h-0.9 M162.95,202.45l-154-88.8
		 M164.95,204.35l-0.9-1.1l-1.1-0.8 M163.85,231.95l1.3,0.5h1.2 M165.55,203.75l-1.3-1.4l-1.3-1 M162.95,201.35l-154-88.9
		 M8.95,112.45l-1.3-0.5h-1.2 M6.45,111.95l-1.9,0.6l-1.5,1.2l-1.3,1.6l-0.9,2.1l-0.5,2.3l-0.1,2.7l0.3,2.9l0.7,3.1l1,3.1l1.4,3.1
		l1.6,3.1l2,2.9 M7.25,140.65l1.2,1.4l1.4,1 M9.85,143.05l154,88.9 M166.35,232.45l1.9-0.7l1.5-1.1l1.3-1.7l0.8-2l0.5-2.4l0.2-2.6
		l-0.3-2.9l-0.7-3.1l-1-3.1l-1.4-3.2l-1.7-3l-1.9-2.9 M166.35,203.15l2,3l1.7,3.1l1.5,3.3l1,3.2l0.7,3.2l0.3,3l-0.1,2.7l-0.5,2.5
		l-1,2.1l-1.2,1.7l-1.7,1.2l-1.9,0.7 M200.95,214.25l1.2-0.9l1.4-1.5l1.1-2l0.7-2.4l0.3-2.6l-0.1-2.9l-0.5-3.2l-0.8-3.2l-1.2-3.3
		l-1.6-3.2l-1.8-3.2l-2.1-3 M125.55,149.85L125.55,149.85l0.4-0.2 M97.95,118.75l21.4,12.4 M86.75,130.85l-18.5-10.7 M86.75,130.85
		l32.6,18.8 M127.35,144.95l-0.2,1.8l-0.4,1.4l-0.7,1.2l-1,0.8l-1.3,0.5h-1.3l-1.5-0.3l-1.6-0.7 M127.35,144.05v0.9 M119.35,131.15
		l0.8,0.5 M140.15,113.95l2.4,1.7l2.4,2.2l2.1,2.5l1.9,2.9l1.6,3.1l1.1,3.2l0.7,3.1l0.3,2.9l-0.3,2.7l-0.7,2.3l-1.1,1.8l-1.5,1.2
		 M140.15,113.95l-11.2-6.4 M129.15,111.35l3,1.8 M124.45,110.65l0.1-0.1l0.2-0.1h0.2h0.3 M125.25,108.95h0.3l0.4,0.1l0.2,0.2
		l0.1,0.3l-0.1,0.2l-0.1,0.1l-0.1,0.1 M127.45,112.35l0.1-0.1h0.2l0.3-0.1h0.2 M127.45,110.85l0.1-0.1h0.2l0.4-0.1h0.4l0.4,0.2
		l0.2,0.2l0.1,0.2l-0.1,0.2l-0.1,0.2l-0.1,0.1 M117.65,111.75l-0.4,0.3l-0.8,0.6 M116.45,112.65l0.2-0.1 M124.45,110.65l-0.4,0.2
		l-0.5,0.3l-0.4,0.2l-0.4,0.3l-0.4,0.3l-0.4,0.2l-0.4,0.3l-0.4,0.3 M117.95,113.45l0.8-0.6l0.8-0.5l0.8-0.6l0.8-0.5l0.8-0.6l0.8-0.5
		l0.8-0.5l0.5-0.3 M130.45,114.15l0.1-0.1l0.2-0.1h0.3l0.2-0.1v0.1 M121.15,112.05l-0.2,0.2l-0.1,0.2l0.1,0.3l0.2,0.2l0.2,0.1
		 M117.95,113.95l3.2-1.9 M130.45,112.55h0.1l0.2-0.1l0.4-0.1l0.4,0.1l0.4,0.1l0.2,0.2l0.1,0.2l-0.1,0.3l-0.1,0.1l-0.1,0.1
		 M117.75,114.25v-0.1l0.2-0.2 M125.95,109.95l-0.8,0.6l-0.9,0.5l-0.8,0.5l-0.8,0.5l-0.8,0.6l-0.8,0.5l-0.8,0.6l-0.8,0.6
		 M117.75,113.15l0.2,0.3 M119.45,114.35l0.2-0.1 M118.15,114.55l-0.2-0.1l-0.2-0.2l-0.1-0.1v-0.1l0.1-0.3l0.1-0.1l0.1-0.2
		 M127.45,112.35l-0.4,0.3l-0.4,0.2l-0.4,0.3l-0.4,0.2l-0.4,0.3l-0.4,0.3l-0.4,0.2l-0.4,0.3 M120.95,115.25l0.8-0.6l0.8-0.6l0.8-0.5
		l0.8-0.6l0.8-0.5l0.9-0.6l0.8-0.5l0.8-0.5 M133.45,115.85l0.2-0.1l0.2-0.1h0.2h0.2 M124.25,113.75l-0.3,0.2l-0.1,0.3l0.1,0.2
		l0.3,0.2l0.1,0.1 M120.95,115.65l3.3-1.9 M133.45,114.35l0.2-0.1l0.1-0.1h0.4h0.4l0.4,0.1l0.2,0.2l0.1,0.3l-0.1,0.2l-0.1,0.1
		l-0.1,0.2 M120.65,116.05l0.1-0.2l0.2-0.2 M128.95,111.75l-0.8,0.5l-0.8,0.5l-0.8,0.5l-0.9,0.6l-0.8,0.5l-0.8,0.6l-0.8,0.6
		l-0.8,0.5 M120.75,114.85l0.2,0.4 M122.45,116.05l0.2-0.1 M121.15,116.25h-0.2l-0.2-0.2v-0.2l-0.1-0.1l0.1-0.3l0.1-0.1l0.1-0.1
		 M130.45,114.15l-0.4,0.2l-0.4,0.2l-0.3,0.3l-0.4,0.2l-0.4,0.2l-0.3,0.3l-0.4,0.2l-0.4,0.3 M127.25,116.15l0.2-0.1 M124.05,116.95
		l0.7-0.6l0.8-0.5l0.9-0.6l0.8-0.6l0.8-0.5l0.8-0.5l0.8-0.5l0.8-0.6 M127.25,115.55l-0.3,0.2l-0.1,0.2l0.1,0.2l0.3,0.2l0.1,0.1
		 M124.05,117.35l3.2-1.8 M123.65,117.85l0.1-0.3l0.3-0.2 M131.95,113.45l-0.8,0.5l-0.8,0.5l-0.8,0.6l-0.8,0.5l-0.8,0.6l-0.8,0.5
		l-0.8,0.6l-0.8,0.6 M123.75,116.65l0.3,0.3 M125.55,117.85l0.1-0.1 M124.15,118.05l-0.2-0.1l-0.2-0.2v-0.1l-0.1-0.2l0.1-0.2
		l0.1-0.1l0.2-0.2 M133.45,115.85l-0.4,0.2l-0.4,0.3l-0.4,0.3l-0.4,0.2l-0.4,0.3l-0.4,0.2l-0.4,0.3l-0.4,0.3 M127.05,118.65l0.8-0.5
		l0.8-0.6l0.8-0.6l0.8-0.5l0.8-0.6l0.8-0.5l0.8-0.5l0.8-0.5 M130.25,117.25l-0.3,0.2v0.2v0.3l0.3,0.2l0.1,0.1 M127.05,119.15
		l3.2-1.9 M126.75,119.45v-0.1l0.3-0.2 M134.95,115.25l-0.8,0.5l-0.8,0.5l-0.8,0.5l-0.8,0.5l-0.8,0.6l-0.8,0.6l-0.8,0.5l-0.8,0.6
		 M126.75,118.35l0.3,0.3 M128.55,119.55l0.1-0.1 M127.15,119.75l-0.1-0.1l-0.3-0.2v-0.1l-0.1-0.1l0.1-0.3l0.1-0.1l0.2-0.2
		 M128.65,107.65l11.2,6.4 M117.65,111.75l-0.2,0.2l-0.8,0.6 M114.95,112.75l0.2,0.1h0.5l0.6-0.1l0.4-0.2 M126.05,109.85l-0.8,0.5
		l-0.8,0.6l-0.8,0.5l-0.8,0.5l-0.8,0.6l-0.8,0.5l-0.8,0.6l-0.8,0.6 M117.75,113.15l-0.3,0.3l-0.1,0.4l0.1,0.3l0.3,0.2l0.4,0.2h0.6
		l0.5-0.1l0.4-0.2 M117.75,113.15l0.8-0.6l0.8-0.6l0.8-0.5l0.8-0.6l0.8-0.5l0.5-0.3 M126.05,109.85l0.3-0.2l0.1-0.3l-0.1-0.4
		l-0.2-0.2l-0.3-0.1 M129.15,111.65l-0.9,0.5l-0.8,0.5l-0.8,0.5l-0.8,0.6l-0.8,0.5l-0.8,0.6l-0.8,0.6l-0.8,0.5 M120.75,114.85
		l-0.3,0.3l-0.1,0.4l0.1,0.3l0.3,0.3l0.4,0.1l0.6,0.1l0.5-0.1l0.4-0.3 M120.75,114.85l0.8-0.5l0.8-0.6l0.8-0.6l0.8-0.5l0.8-0.6
		l0.8-0.5l0.8-0.5l0.8-0.5 M129.15,111.65l0.2-0.3l0.1-0.3l-0.1-0.3l-0.2-0.3l-0.5-0.1l-0.5-0.1l-0.5,0.1l-0.5,0.2 M132.15,113.35
		l-0.8,0.5l-0.9,0.5l-0.8,0.6l-0.8,0.5l-0.8,0.6l-0.8,0.5l-0.8,0.6l-0.8,0.6 M123.75,116.65l-0.3,0.3l-0.1,0.3l0.1,0.4l0.3,0.2
		l0.5,0.2h0.5l0.5-0.1l0.4-0.2 M123.75,116.65l0.8-0.6l0.8-0.6l0.8-0.5l0.8-0.6l0.8-0.5l0.8-0.6l0.8-0.5l0.9-0.5 M132.15,113.35
		l0.3-0.3l0.1-0.3l-0.1-0.3l-0.3-0.2l-0.5-0.2l-0.5-0.1l-0.5,0.1l-0.4,0.2 M135.15,115.05l-0.8,0.6l-0.8,0.5l-0.9,0.5l-0.8,0.5
		l-0.8,0.6l-0.8,0.6l-0.8,0.5l-0.8,0.6 M126.75,118.35l-0.3,0.3l-0.1,0.4l0.1,0.3l0.3,0.3l0.5,0.1h0.5l0.5-0.1l0.4-0.2
		 M126.75,118.35l0.8-0.6l0.8-0.5l0.8-0.6l0.8-0.6l0.8-0.5l0.9-0.5l0.8-0.5l0.8-0.6 M135.15,115.05l0.3-0.2l0.1-0.3l-0.1-0.3
		l-0.3-0.3l-0.5-0.2h-0.5l-0.5,0.1l-0.4,0.1 M125.35,150.15l-0.6,0.2 M148.65,143.85l0.8-0.5l1.2-1.3l1-1.8l0.5-2.1l0.2-2.4
		l-0.2-2.6l-0.5-2.8l-1-2.8l-1.2-2.8l-1.6-2.6l-1.8-2.5l-1.9-2.2l-2.1-1.9l-2.2-1.5 M119.25,149.85l-51.6-29.8 M97.95,118.75
		l21.3,12.3 M127.35,145.15l-0.1-2l-0.5-2l-0.8-2l-1-2l-1.2-1.9l-1.4-1.7l-1.5-1.4l-1.6-1.1 M119.25,149.85l1.6,0.7l1.5,0.3h1.4
		l1.2-0.5l1-0.8l0.8-1.2l0.5-1.5l0.1-1.7 M119.25,129.45l1.8,1.3l1.8,1.6l1.7,2l1.4,2.2l1.2,2.3l0.9,2.4l0.5,2.4l0.2,2.3l-0.2,2
		l-0.5,1.8l-0.9,1.3l-1.2,1l-1.4,0.6h-1.7l-1.8-0.4l-1.8-0.8 M119.35,151.55L119.35,151.55h-0.1 M119.35,151.55l1.9,0.8l1.8,0.5
		l1.7-0.1l1.4-0.6l1.2-1l0.9-1.4l0.6-1.7l0.2-2.1l-0.2-2.3l-0.6-2.4l-0.9-2.4l-1.2-2.4l-1.4-2.3l-1.7-2l-1.8-1.6l-1.9-1.3
		 M127.15,116.35l1.8-0.9 M121.15,112.95l1.8-1 M124.15,114.65l1.8-1 M67.85,38.85h1.6l1.5,0.5l1.2,0.8l0.7,1.1 M65.25,42.05
		l-0.2-1.1l0.2-0.5l0.3-0.5l0.5-0.4l0.5-0.4l1.3-0.3 M72.85,41.25l0.1,1l-0.4,0.9 M72.55,43.15l-0.3,0.4 M67.45,37.15l3.2-0.2h3.1
		l2.9,0.5l3,0.8 M58.65,41.45l1.5-1.5l2-1.2l2.4-0.9l2.9-0.7 M66.65,43.65l-0.9-0.7l-0.5-0.9 M66.65,43.65l0.5,0.3 M69.95,44.45
		l1.3-0.3l1-0.6 M81.85,33.45h-0.1h-0.2 M79.65,38.25l1.8,0.8l1.7,1l1.1,1.5l0.2,0.8l-0.2,1 M67.15,43.95l1.4,0.4l1.4,0.1
		 M117.45,15.15l-0.1-0.1v-0.1v-0.1v-0.2l0.1-0.1 M117.45,14.55l0.2-0.2h0.2l0.1-0.1l0.1,0.1h0.1h0.1 M118.45,14.45v-0.1h-0.1h-0.1
		 M118.25,14.35l0.1,0.1h0.1v0.1v0.1 M117.25,15.15v-0.1l-0.1-0.1l0.1-0.2l0.2-0.2 M117.45,14.55l0.1-0.1l0.1-0.1h0.2h0.2h0.1h0.2
		l0.1,0.1 M118.45,14.45L118.45,14.45l0.1,0.1l0.1,0.1v0.1l-0.1,0.2v0.1l-0.1,0.1 M117.15,15.35l-0.1-0.1v-0.1 M118.55,15.25h-0.1
		v0.1l-0.2,0.1l-0.3,0.2h-0.2h-0.2h-0.1l-0.1-0.1 M102.85,16.45l0.9-1.7l0.9-1.6l0.9-1.5l0.9-1.4l0.8-0.9h0.1 M102.85,16.45
		l-1.4,2.3 M96.05,24.75L96.05,24.75l0.1-0.1l0.2-0.2l0.3-0.4l0.8-0.8l1.1-1.1l0.6-0.6 M101.45,18.75l-2.7,3.4l-1.8,1.9l-0.5,0.5
		l-0.2,0.1 M125.15,11.35l-1.5-0.9l-1.3-1l-0.4-0.3l-0.3-0.3l-0.3-0.2l-0.1-0.1 M89.25,54.65v-0.1l-0.1-0.1 M83.25,44.65l0.6-0.6
		v-0.1h0.1l0.2-0.3l0.1-0.3 M91.95,56.15l0.3,0.3l0.2,0.2l0.1,0.3l-0.1,0.3 M91.85,56.05h0.1v0.1 M92.95,57.25l-0.1,0.3
		 M132.55,15.05l-1-0.5l-0.8-0.4l-0.1-0.1l-2-0.9l-3.5-1.8 M59.45,47.15l-0.8-0.8l-0.5-0.8l-0.4-1.6l0.3-1.3l0.6-1.2 M64.45,61.55
		l-0.3-0.2l-0.2-0.3l-0.1-0.2l0.1-0.3 M63.45,61.05L63.45,61.05v-0.2l0.1-0.1 M87.45,54.15L87.45,54.15l0.1,0.1 M71.55,62.15
		l-0.4-0.8v-0.2 M86.65,60.65l-0.4,2.2l-2.2,2.8 M109.05,59.55l2.2-0.7 M74.55,64.55l-3-2.4 M33.05,23.55l-0.2-0.2l-1.7-1l-2.1-0.9
		l-2.1-0.6l-1.8-0.2 M83.05,57.85l1.4,0.2l1.2,0.5l0.9,0.7l0.3,0.8 M72.85,59.45l4.9-1.3l5.3-0.3 M71.15,61.35l0.1-0.6l0.6-0.7
		l1-0.6 M86.85,60.05l-0.1,0.4 M36.65,38.55l-0.6,0.7l-0.4,0.1l-0.5-0.1l-0.5-0.2l-0.5-0.3l-0.9-1 M36.85,37.25v0.7l-0.2,0.6
		 M35.35,33.05l0.6,0.9l0.5,1.1l0.3,1.1l0.1,1.1 M35.35,33.05l-0.7-0.8l-0.8-0.6l-0.7-0.2l-0.6,0.2 M32.55,31.65l-0.6,0.6
		 M31.75,33.45l0.2-1.2 M31.75,33.65v-0.2 M33.25,37.75l-0.6-1l-0.5-1l-0.3-1.1l-0.1-1 M128.65,31.15l0.5,1.5l1,1.2l1.4,0.6h1.6
		l1.5-0.6l1.2-1.1l0.7-1.4l0.1-1.6 M136.65,29.75l-0.4-1.5l-1.1-1.1l-1.3-0.7h-1.6l-1.5,0.6l-1.2,1.1l-0.7,1.4l-0.2,1.6
		 M137.35,29.75v0.9 M125.75,29.65l0.9-2l1.4-1.7l2-1.3l2.1-0.4l2,0.4l1.2,0.6l0.5,0.5l1.1,1.8l0.4,2.2 M125.75,29.65l-0.6,2.7
		 M125.15,32.35l-0.1,3.8l0.8,3.7l0.2,0.6l0.6,1.2l1.2,1.4l0.8,0.5l0.8,0.3h0.9l0.8-0.3l1.5-1l1.2-1.3l1.8-3.2l1.2-3.6l0.5-3.8
		 M120.25,68.55l1.4,0.2l1,0.4l0.4,0.6l-0.2,0.8 M117.45,69.05l1.4-0.3l1.4-0.2 M117.45,69.05l-0.5,0.3 M116.95,69.35l-1,0.6
		l-0.7,0.7 M137.55,42.15v0.2 M111.25,58.85l1.5-0.1l1.5,0.1l2.8,0.8l2.4,1.3l1.8,1.3 M78.75,66.35l-4.4-1.9l-3.2-2.5 M87.05,60.35
		l-0.4,2.2l-2.2,2.9 M84.45,65.45l-1.2,0.7l-1.4,0.4h-1.6l-1.5-0.2 M92.85,57.55l-0.2-0.2 M63.75,60.95l0.2-0.3 M92.55,57.35
		L92.55,57.35l-0.1,0.3 M92.45,57.65l-4.5,9.8 M79.45,70.65l-15-8.7 M64.45,61.95l-0.3-0.2l-0.2-0.3l-0.1-0.3 M87.95,67.35l4.6-9.7
		 M92.55,57.35v0.3 M65.05,58.45l0.3-0.2l0.4-0.2l0.5-0.1 M64.35,61.95l-0.3-0.2l-0.2-0.3v-0.3v-0.3 M64.35,61.95l15.1,8.7
		 M15.05,26.55l-0.1,0.6l-0.3,1l-0.6,1.5 M15.05,26.45L15.05,26.45 M31.25,31.45l0.8-0.9l1.3-0.1l1.3,0.6l0.7,0.5l0.5,0.8
		 M15.45,26.05l0.4-0.4 M59.45,47.15l1,0.6l1.2,0.4 M37.65,37.65v0.9l-0.3,0.8 M37.35,39.35l-0.7,0.8l-1.1,0.1l-1.2-0.6l-0.6-0.6
		l-0.6-0.8 M35.85,32.35l0.8,1.3l0.6,1.4l0.3,1.5l0.1,1.1 M115.25,70.65l-0.1,0.7l0.4,0.6 M122.85,70.55l-0.7,0.7l-0.5,0.4l-0.7,0.3
		l-0.7,0.2l-0.8,0.2l-1.5,0.2 M115.95,72.15l-0.4-0.2 M52.25,68.25h-1.4l-1.2,0.1 M117.95,72.55l-1.1-0.1l-0.9-0.3 M25.95,45.85
		l-0.8-1.3l-1.3-1 M23.85,43.55l-0.9-0.3l-1-0.1l-0.9,0.1l-0.9,0.3 M18.15,49.05l-0.3-1.5v-0.8l0.2-0.8l0.4-0.8l0.5-0.6l1.2-1
		 M18.25,49.05h-0.1 M23.85,50.95l-1.6,0.4l-1.6-0.2l-1.4-0.8l-1-1.3 M26.15,47.35l-0.2,1.1l-0.5,1l-0.7,0.9l-0.9,0.6 M25.95,46.05
		l0.2,1.3 M25.95,45.85v0.2 M31.05,33.15l0.3,1.3l0.5,1.4l0.6,1.3l0.7,1.1 M31.25,31.45l-0.1,0.5l-0.1,0.3v0.9 M9.95,37.65l0.1-0.4
		l0.5-1.4l1.3-2.4l1.2-2.1l1-1.7 M16.95,49.35v-0.1 M16.95,49.25l-0.4-1.9l0.4-1.8l1.1-1.6l1.6-1.2 M19.65,42.75l2.1-0.6l2.2,0.1
		l1,0.4l0.9,0.6l0.8,0.8l0.5,1 M27.15,45.05v0.1l0.1,0.1 M32.45,39.55l-1.9-3.6l-1.6-1.8l-1.9-1.5l-2.3-1.1l-2.5-0.6l-2.6-0.1
		l-2.6,0.5l-2.4,1l-2,1.4l-1.6,1.8l-1.1,2.1l-0.3,1.2 M53.35,78.55l-0.6-0.3l-0.8-0.2l-0.8-0.2h-0.8 M50.35,77.85h-0.7 M47.15,78.85
		l1-0.6l1.5-0.4 M47.15,81.15l-0.4-0.5l-0.2-0.7l0.2-0.6l0.4-0.5 M47.75,81.55l-0.6-0.4 M54.55,80.25v-0.4l-0.2-0.5l-0.4-0.4
		l-0.6-0.4 M121.25,62.25l2,2l1.2,2l0.5,2l-0.4,1.9 M124.55,70.15l-1.2,1.6l-2,1.2l-2.5,0.9l-3.2,0.5 M27.25,45.25l0.4,2.6v2.8
		l-0.5,2.7l-0.8,1.9l-0.5,0.5 M25.85,55.75l-0.6,0.3l-0.8,0.2l-1.5-0.4l-2.6-1.6l-2-2.3l-1.4-2.6 M54.45,80.65l0.1-0.4 M43.45,74.35
		l0.9-2.2l1.4-1.8l1.8-1.3l1-0.4l1.1-0.3 M14.55,59.95v0.1l0.2,0.2 M83.25,44.65l-2,1.3l-2.3,1.1l-2.7,0.9l-2.8,0.6 M73.45,48.55
		l-3,0.3h-3l-2.9-0.2l-2.9-0.5 M52.25,68.25l3,0.4l2.7,0.7l2.6,0.9l2.3,1.1 M62.85,71.35l2,1.3l1.5,1.5l1.1,1.6l0.6,1.8
		 M102.35,65.25l1-1.7l1.5-1.5l1.9-1.3l2.3-1.2 M52.55,82.05l-1,0.2h-1.1l-1.1-0.1l-1-0.3 M47.75,81.55l0.6,0.3 M46.55,82.15
		l-1.7-1.4l-1.2-1.8l-0.5-2.2l0.3-2.4 M34.05,93.15l1,0.3l2,0.9 M41.95,103.85l-2.6-1.6l-2.1-1.4l-0.4-0.3l-1.1-1l-1-1l-0.8-1
		l-0.5-1 M37.75,94.85l-0.2,0.3l0.2,0.8l0.7,1l1.1,1.2l1.2,1.1l1.2,0.8 M41.95,100.05l1.1,0.5h0.6l0.2-0.2 M54.45,80.65l-0.3,0.4
		l-0.4,0.4l-0.5,0.3l-0.7,0.3 M68.05,77.55l-0.3,1.3 M110.85,101.35l1.5-0.4l1.5-0.6l1.2-0.8l0.9-0.9l0.3-0.7l-0.4-0.6l-0.8-0.3
		h-1.3 M110.05,98.45l-0.6,0.4l-0.9,0.8l-0.2,0.8l0.3,0.6l0.9,0.3h1.3 M81.75,108.95l-0.4-0.8l-1-0.8l-1.3-0.5l-1.6-0.2l-1.6,0.1
		l-1.3,0.4l-0.9,0.6l-0.3,0.8 M73.35,108.55l0.4,0.8l1,0.7l1.4,0.5l1.6,0.2h1.5l1.4-0.4l0.8-0.6l0.3-0.8 M58.75,83.15l-3.7,0.5h-3.4
		l-2.8-0.5l-2.3-1 M37.05,94.35l2.2,1.5l1.4,1.1 M115.65,74.35h-0.7 M130.75,92.15l0.2-0.2l0.5-1 M131.45,90.95l0.4-0.7
		 M115.35,102.75l-1.1,1.3l-1.4,1.2l-2.2,1.3l-1.1,0.5 M109.55,107.05l-2.3,0.9l-2.4,0.6h-1l-0.8-0.1l-0.5-0.5l-0.3-0.6
		 M84.15,109.95v0.8l-0.3,0.7l-0.7,0.5l-1,0.4h-0.1h-0.1l-0.4,0.1l-0.6,0.1l-1.3,0.2h-2.7l-2.8-0.2l-2.5-0.5l-1.1-0.5l-0.7-0.5
		l-0.4-0.7v-0.8 M46.05,103.75l0.2,0.9v0.6l-0.2,0.3l-0.4,0.1l-1.5-0.6l-2.2-1.2 M67.75,78.85l-0.4,0.6l-0.7,0.6l-2.1,1.2l-2.7,1.1
		l-3.1,0.8 M73.85,81.25L73.85,81.25l-0.4,0.4h-0.1l-0.2-0.2v-0.8l0.2-1.1 M73.85,81.25l0.1-0.1 M73.95,81.15l0.5-0.9l0.4-0.6
		l0.2-0.5 M76.45,74.35v-0.2l-0.1-0.3 M76.35,73.85h-0.1h-0.2l-0.5,0.6 M75.55,74.45l-0.1,0.1 M74.85,75.55l0.6-1 M73.35,79.55
		l0.2-0.8l0.3-0.8l0.5-1.2l0.3-0.8l0.2-0.4 M115.95,79.15l0.5,0.1l0.3-0.3v-0.9l-0.2-0.7l-0.3-0.7l-0.4-0.8l-0.5-0.9l-1.3-1.8
		l-1.5-1.8l-1.4-1.7 M115.95,79.15l-0.9-1.1l-0.6-1l-0.7-1.3 M109.55,67.65l0.6,0.8 M109.25,67.35l0.1,0.1 M113.75,75.75l-1.1-1.9
		l-1.1-1.9l-1.1-1.9l-0.7-1.4l-0.5-0.9v-0.3 M110.15,68.45l1,1.2 M100.75,80.65l-0.3,1.2l-0.3,0.7l-0.6,0.6l-0.6,0.6l-0.7,0.4
		l-1.5,0.5l-1.4,0.1l-0.8-0.2l-0.6-0.3l-0.5-0.4l-0.3-0.5l-0.3-1.2 M105.45,86.05l2-1.6l0.7-0.9l0.3-1.1 M108.35,81.25l0.1,0.6v0.6
		 M106.95,79.55l-1.7-3.2l-1.9-3.2l-1.8-3.1l-1.5-2.4l-1-1.4l-0.5-0.5 M76.05,73.45l-1.4,1.6l-1.5,1.9l-1.5,2.1l-0.7,1.2l-0.3,0.6
		l-0.2,0.6 M70.45,81.45l-0.2,0.6l-0.1,0.5l0.2,0.7l1,0.4l1.2-0.4l1.1-1.1 M77.95,72.15l-1.6,1.1 M76.05,73.45h0.1v-0.1
		 M76.15,73.35l0.4-0.4l0.2-0.3l0.1-0.1v0.1l-0.2,0.8l-0.2,0.9l-0.3,1.1 M76.15,75.45l-0.5,1.7l-0.6,1.9l-0.6,1.7l-0.7,1.3
		 M73.75,82.05l-0.1,0.1 M85.05,88.65l0.6-0.9l0.8-1.3l0.8-1.7l0.8-2.1l0.6-2.3l0.5-2.4l0.3-2.5v-2.3l-0.1-2l-0.4-1.7l-0.6-1.1
		l-0.7-0.7l-0.8-0.1h-0.1 M88.95,84.35l-0.1,1.2l0.4,1.2l0.9,1l1.2,0.7 M100.75,80.65l-0.2-1.2l-0.9-1l-1.3-0.4h-1.5l-1.5,0.6
		l-1.3,0.9l-0.9,1.3l-0.3,1.3 M106.95,79.55l0.9,0.8l0.5,0.9 M97.15,77.55l2.5-0.2l2.8,0.3l2.5,0.7l2,1.2 M97.15,77.55l-2.7,0.9
		l-2.4,1.6l-1.9,2l-0.7,1.1l-0.5,1.2 M33.45,96.55l-0.5-2.1l0.4-1.1l0.7-0.2 M21.15,78.45v-0.2 M137.55,79.15l-0.1,0.5
		 M105.45,86.05l-3.8,2l-4.3,1.1l-3.6-0.1l-2.4-0.6 M40.65,96.95l2.2,2.1l1.7,2.2l1.5,2.5 M69.45,109.55L69.45,109.55 M69.45,109.55
		l1-1.7l1.7-1l2.4-0.6l2.3-0.1l2.2,0.3l2,0.6l1.6,0.9l1.2,1.3l0.2,0.6 M84.05,109.85l0.1,0.1 M102.25,107.35l0.4-1.9l1.4-2.4
		l2.5-2.4l2.8-1.9l2.5-1.2l2.2-0.6l0.6-0.1l1.5,0.1l0.9,0.6l0.2,1.1l-0.4,1.6l-1.5,2.5 M131.85,90.25l1.6-3l1.6-3l1.3-2.4l0.5-1.1
		 M272.55,248.15L272.55,248.15 M264.05,256.85l-0.2-0.1l-0.2-0.2 M272.55,248.75l0.3,0.4l1.1,0.9 M273.95,250.05l1.5,0.6l1.7,0.3
		l1.8,0.1l1.7-0.2l1.6-0.5l1.3-0.7l0.9-1l0.3-1l-0.1-1l-0.6-1l-1.1-0.8l-1.4-0.7l-1.7-0.3l-1.8-0.1l-1.8,0.2l-1.6,0.5l-1.3,0.8
		l-0.8,0.9l-0.1,0.1 M272.75,249.15v0.1v0.6l-0.1,0.5h-0.1 M280.65,264.35l2.5-0.3 M283.15,264.05l1.9-0.8l1.5-0.9l1.1-1.2l0.6-1.2
		l0.1-1 M272.35,245.45L272.35,245.45v-0.1v-0.1 M269.35,239.75l1.9,2l0.9,2.5l0.2,1 M263.75,246.15l4.9,3l5.2,3.3l0.6,0.3
		 M275.65,254.05l0.8,0.8l3.2,3.6 M275.65,254.05l-0.4-0.5l-0.6-0.6l-0.2-0.2 M274.25,262.75l3.4,1.3l3,0.3 M205.25,199.35v-0.1
		 M271.65,251.05l-0.2-0.5l-0.1-0.7l0.1-0.7l0.1-0.1 M198.65,215.55l65,41 M274.25,262.75l-6.4-4 M199.15,215.25l68.7,43.5
		 M268.55,265.95l0.2,1.2l0.7,1.2 M269.45,268.35l1.2,1.1l1.5,0.9l1.9,0.7l2.1,0.4l2.2,0.2l2.2-0.1l2.1-0.4l1.9-0.7l1.6-0.9l1.2-1.1
		l0.8-1.2l0.2-1.2v-0.1 M269.55,259.95l-0.7,1.2l-0.3,1.2l0.2,1.3l0.7,1.2 M269.45,264.85l1.2,1.1l1.5,0.9l1.9,0.7l2.1,0.5l2.2,0.1
		l2.2-0.1l2.1-0.4l1.9-0.7l1.6-0.9l1.2-1l0.8-1.2l0.2-1.3l-0.2-1.3l-0.2-0.5 M272.75,262.45v0.5l0.5,0.9 M273.25,263.85l1,0.8
		l1.3,0.7l1.6,0.3l1.7,0.1l1.6-0.2l1.5-0.5l1.2-0.7l0.5-0.5 M158.65,96.15v-0.5 M158.65,96.15l-1.1,0.1 M160.75,97.15l-0.1,0.2
		l-0.6,0.9l-0.2,0.2 M158.65,315.35l-1.5,0.8 M158.65,316.05v-0.9 M158.65,316.05l-1.5,0.1 M157.15,316.15l-0.2-0.1 M160.75,316.95
		l-0.1,0.3l-0.6,0.9l-0.2,0.2 M158.65,148.95l-0.3-0.4 M158.35,148.55L158.35,148.55 M158.65,149.85l-1.5,0.9 M158.35,148.55
		L158.35,148.55 M158.35,148.55l0.2,0.2l0.1,0.2 M158.55,148.35l0.1,0.2 M158.65,150.55v-2 M158.65,150.55l-1.5,0.2 M157.15,150.75
		l-0.8-1.1 M160.75,151.45l-0.1,0.3l-0.6,0.9l-0.2,0.2 M277.95,248.05l1,0.1 M278.95,248.15l0.6,0.1 M277.45,248.35l0.5-0.3
		 M277.95,248.05v-1.8 M279.95,248.05v-1.5 M279.45,248.25h-0.1h-0.2l-0.2-0.1 M278.95,248.15h-0.3h-0.2h-0.2h-0.2l-0.3,0.1h-0.2
		l-0.1,0.1 M277.95,246.25l2,0.3 M279.95,246.55l0.5,1.2 M280.45,247.75l-1.5,0.8 M278.95,248.55l-1.9-0.3 M277.05,248.25l-0.6-1.1
		 M276.45,247.15l1.5-0.9 M282.55,250.25l0.7-0.6l0.5-0.9v-0.5 M273.15,248.25v0.5l0.6,0.9l0.6,0.6 M274.65,245.25l-0.9,0.8
		l-0.6,0.9v0.9l0.6,1l0.9,0.7l1.4,0.6l1.6,0.3h1.6l1.6-0.3l1.4-0.6l1-0.7l0.5-1v-0.9l-0.5-0.9l-1-0.8l-1.4-0.6l-1.6-0.3h-1.6
		l-1.6,0.3L274.65,245.25 M172.85,365.85h0.1l0.7,0.3l0.8,0.2h0.8l0.5-0.1l0.3-0.1 M175.75,366.35L175.75,366.35l-0.4,0.2h-0.6h-0.5
		l-0.5-0.2 M176.05,366.15l-0.1,0.1h-0.1l-0.2,0.1 M177.55,354.65L177.55,354.65l-0.2,0.6l-0.6,0.4l-0.9,0.3l-1.1,0.1l-1.1-0.2
		l-0.9-0.4l-0.5-0.5l-0.1-0.4 M177.55,355.85L177.55,355.85l-0.2,0.5l-0.6,0.5l-0.9,0.3h-1.1l-1.1-0.2l-0.9-0.4l-0.5-0.5l-0.3-0.8
		 M177.55,356.95v0.1l-0.2,0.5l-0.6,0.5l-0.9,0.2l-1.1,0.1l-1.1-0.2l-0.9-0.4l-0.5-0.5l-0.3-0.8 M177.55,358.15L177.55,358.15
		l-0.2,0.6l-0.6,0.4l-0.9,0.3l-1.1,0.1l-1.1-0.3l-0.9-0.4l-0.5-0.5l-0.3-0.8 M177.55,359.35L177.55,359.35l-0.2,0.5l-0.6,0.5
		l-0.9,0.3h-1.1l-1.1-0.2l-0.9-0.4l-0.5-0.5l-0.3-0.8 M177.55,360.45L177.55,360.45l-0.2,0.6l-0.6,0.4l-0.9,0.3l-1.1,0.1l-1.1-0.2
		l-0.9-0.5l-0.5-0.4l-0.3-0.9 M177.55,361.65L177.55,361.65l-0.2,0.5l-0.6,0.5l-0.9,0.3h-1.1l-1.1-0.2l-0.9-0.4l-0.5-0.5l-0.3-0.8
		 M177.55,362.75L177.55,362.75l-0.2,0.6l-0.6,0.4l-0.9,0.3l-1.1,0.1l-1.1-0.2l-0.9-0.4l-0.5-0.5l-0.3-0.8 M177.55,363.95
		L177.55,363.95l-0.2,0.5l-0.6,0.5l-0.9,0.3h-1.1l-1.1-0.2l-0.9-0.4l-0.5-0.5l-0.3-0.8 M172.25,365.35l-0.3-0.8 M172.25,365.35
		l0.1,0.1l0.1,0.1l0.2,0.1l0.1,0.1l0.2,0.1l0.2,0.1l0.1,0.1h0.2 M172.15,363.85l-0.2,0.5l0.2,0.8l0.6,0.6l0.7,0.3 M172.15,362.65
		l-0.2,0.6l0.2,0.7l0.6,0.6l0.7,0.4l1.3,0.2h1.1l0.9-0.3l0.6-0.5l0.2-0.5l-0.2-0.5 M172.15,361.55l-0.2,0.5l0.2,0.7l0.6,0.6l0.7,0.4
		l1.3,0.3l1.1-0.1l0.9-0.3l0.6-0.4l0.2-0.6l-0.2-0.5 M172.15,360.35l-0.2,0.6l0.2,0.7l0.6,0.6l0.7,0.3l1.3,0.3h1.1l0.9-0.3l0.6-0.5
		l0.2-0.5l-0.2-0.6 M172.15,359.25l-0.2,0.5l0.2,0.7l0.6,0.6l0.7,0.4l1.3,0.3l1.1-0.1l0.9-0.3l0.6-0.4l0.2-0.6l-0.2-0.5
		 M172.15,358.05l-0.2,0.6l0.2,0.7l0.6,0.6l0.7,0.3l1.3,0.3l1.1-0.1l0.9-0.2l0.6-0.5l0.2-0.6l-0.2-0.5 M172.15,356.85l-0.2,0.6
		l0.2,0.7l0.6,0.6l0.7,0.4l1.3,0.2h1.1l0.9-0.3l0.6-0.5l0.2-0.5l-0.2-0.5 M172.15,355.75l-0.2,0.5l0.2,0.8l0.6,0.6l0.7,0.3l1.3,0.3
		l1.1-0.1l0.9-0.3l0.6-0.4l0.2-0.6l-0.2-0.5 M172.15,354.55l-0.2,0.6l0.2,0.7l0.6,0.6l0.7,0.4l1.3,0.2h1.1l0.9-0.3l0.6-0.5l0.2-0.5
		l-0.2-0.5 M172.05,354.45l0.1,0.2l0.6,0.6l0.7,0.4l1.3,0.3l1.1-0.1l0.9-0.3l0.6-0.4l0.2-0.6 M177.25,364.65l0.1,0.2l-0.2,0.5
		l-0.4,0.4l-0.6,0.3l-0.8,0.2h-0.9l-1-0.2 M175.65,366.35l-0.5,0.1h-0.6l-0.7-0.1l-0.5-0.2l-0.2-0.2 M175.65,366.35l-0.9,0.1
		l-0.2-0.1 M85.75,26.25v6.9 M155.85,325.45v19 M155.85,227.35v64.6 M155.85,105.55v20.9 M155.85,66.75v5.3 M163.95,76.65v-7.3
		 M163.95,131.05v-26.3 M163.95,162.55v-3.4 M163.95,296.55v-64.6 M163.95,347.05v-22.4 M188.95,344.45v-123.5 M188.95,176.95V67.65
		 M168.05,322.25v29.7 M168.05,232.65v66.3 M168.05,156.75v8.2 M168.05,102.45v31 M168.05,74.25v4.8 M91.25,5.05v1 M122.35,9.45
		v-2.4 M98.35,0.25h-0.8l-0.9,0.1l-0.8,0.1l-0.7,0.2l-1.7,0.7l-0.5,0.3l-0.6,0.6l-0.7,1.1l-0.4,1.6 M122.35,7.05l-0.3-1.5l-0.5-0.9
		l-0.4-0.5l-0.1-0.2l-0.1-0.1l-1.4-0.9l-0.7-0.4l-0.8-0.3l-0.8-0.2l-0.9-0.1 M116.35,1.95l-0.8-0.1l-2.4-0.1h-2.3l-2.4-0.2l-2.4-0.2
		l-2.2-0.2l-2.2-0.4l-2-0.3l-1.3-0.2 M82.25,20.75v0.6l0.4,0.9l0.9,0.8l1.1,0.6l1.5,0.5l0.8,0.1 M91.45,5.55L91.45,5.55v0.2
		l-0.3,0.4l-0.7,0.7l-0.9,0.9l-1.4,1.1l-1.5,1.1l-1.7,1.1h-0.1 M82.15,15.75v4.9 M84.85,11.05l-1.1,0.9l-0.8,1.1l-0.6,1.3l-0.2,1.4
		 M86.95,24.25l1.2,0.1l2.1,0.5l1.9,0.6l1.6,0.9l1,0.8 M192.35,53.45l0.1-0.4v-0.3 M161.35,45.55v1 M192.45,52.75v-5.2
		 M168.55,40.75h-0.9l-0.8,0.1l-0.8,0.1l-0.7,0.2l-1.7,0.7l-0.5,0.3l-0.7,0.6l-0.7,1.1l-0.4,1.6 M192.45,47.55l-0.3-1.5l-0.4-0.9
		l-0.4-0.5l-0.2-0.2l-0.1-0.1l-1.4-0.9l-0.6-0.4l-0.8-0.3l-0.9-0.2l-0.9-0.1 M186.45,42.45l-0.8-0.1l-2.4-0.1h-2.3l-2.4-0.2
		l-2.3-0.2l-2.3-0.2l-2.1-0.4l-2.1-0.3l-1.2-0.2 M152.35,61.25v0.6l0.5,0.9l0.8,0.8l1.2,0.6l1.4,0.5l0.9,0.1 M161.65,46.05
		L161.65,46.05l-0.1,0.2l-0.3,0.4l-0.6,0.7l-0.9,0.9l-1.4,1.1l-1.6,1.1l-1.7,1.1h-0.1 M182.25,71.05l1.5-0.9 M165.75,70.15l1.5,0.9
		 M152.25,56.25v4.9 M189.05,67.65h0.9l1.5-0.1l1.5-0.4l1.2-0.7l0.9-0.9l0.5-0.9v-0.5 M154.95,51.55l-1,0.9l-0.9,1.1l-0.6,1.3
		l-0.2,1.4 M193.95,55.25l-0.9-0.9l-0.9-1.2l-0.8-1l-0.5-0.8l-0.2-0.5v-0.3 M157.15,64.75l1.1,0.1l2.1,0.5l1.9,0.6l1.6,0.9l1.3,1
		l0.9,1.1l0.5,1 M195.55,64.15v-5.1 M195.55,59.05l-0.4-2l-0.5-0.9l-0.7-0.9 M177.05,71.15l0.6-0.6l1.3-1l1.7-0.8l1.9-0.6l2.2-0.4
		l2.2-0.2l2.1,0.1 M166.55,69.95l0.2,0.6l0.7,0.9l1.1,0.7l1.3,0.5l1.6,0.3l1.4-0.1 M172.85,72.85h0.2l1.5-0.3l1.3-0.5l1-0.7l0.2-0.2
		 M138.95,104.65l-0.3-0.3l-0.4-0.4 M154.75,113.65l-15.8-9 M151.05,122.95l3.7,2.1 M154.75,106.85v18.9 M154.95,105.05l-0.2,1.4
		v0.4 M136.65,238.75v-16.5 M154.75,252.55l-4.3-2.5 M124.25,215.55h0.4l0.6,0.2l0.3,0.1 M150.65,261.65l4.1,2.3 M154.75,268.85v0.9
		l0.4,1.3l0.6,1l0.1,0.1 M125.55,215.85l30.3,17.5 M154.75,245.75v23.1 M155.85,241.45l-0.3,0.7l-0.6,1.6l-0.2,1.6v0.4
		 M34.95,292.15v8.1 M160.95,326.35l8-4.6 M123.95,331.95l0.6,0.1l1.4,0.1l1.4-0.2l1.3-0.6l1.1-0.9l0.9-1.2l0.3-0.7 M53.15,116.25
		v0.8 M161.05,160.85l7.9-4.6 M53.15,168.05v1.1 M160.95,106.45l8-4.6 M45.25,114.15l1,0.6l3.4,1.9 M39.95,290.75l0.1,0.2v0.2
		 M39.95,277.45v13.2 M39.55,273.55L39.55,273.55v0.1v0.2v0.1v0.1 M39.55,273.85l0.3,1.9l0.1,1.6 M150.85,275.25v-2.1
		 M150.55,276.45l0.2-0.7 M137.15,303.95l0.7-0.6 M137.85,303.35l0.1-0.1l0.7-1 M149.75,282.65l0.3-0.5l0.3-0.6l0.1-0.5l0.1-0.6
		 M39.65,259.35v0.2l-0.1,0.2v0.1v0.2 M39.95,260.85v13 M39.95,257.45l-0.1,1.2l-0.2,0.7 M49.45,238.45L49.45,238.45h-0.1l-0.1,0.1
		 M150.85,261.05v-2.5 M61.35,234.05l-8.1,4.6 M49.25,238.55l-1.2,0.7 M53.25,238.65l-0.2,0.1h-0.1h-0.1h-0.2 M52.65,238.75
		l-3.2-0.3 M39.95,247.45v10.1 M41.35,243.25h-0.1h-0.1h-0.1 M40.95,243.35l-0.4,0.2 M47.35,241.35v-1.6 M47.85,239.85v1.3
		 M40.05,244.15v1.6l-0.1,1.6 M46.25,241.05v-0.6 M40.55,243.55l-0.2,0.1l-0.1,0.2l-0.1,0.2l-0.1,0.2 M48.55,240.75v0.6
		 M46.95,241.75v-0.3 M44.05,244.55l-2.7-1.3 M47.45,241.55v0.1 M51.65,243.25v-1.6 M48.75,239.35l-0.3-0.1h-0.4l-0.3-0.1h-0.4h-0.3
		l-0.4,0.1h-0.3l-0.4,0.1 M149.25,245.25l-0.8-0.5 M43.15,241.65v1.6 M148.55,244.75l-4.6,0.1 M150.55,280.45v-12.6v-15.3
		 M150.45,252.65v-3.2 M150.45,249.55l-0.1-0.2 M150.35,249.35l-1.1-4.1 M142.85,248.65v-1.6 M143.35,247.15v1.4 M141.75,248.35
		v-0.6 M144.05,248.05v0.6 M142.45,249.05v-0.3 M142.95,248.95L142.95,248.95 M147.15,250.65v-1.7 M144.35,246.65h-0.4l-0.3-0.1
		h-0.4h-0.4h-0.3h-0.4l-0.3,0.1h-0.4 M142.45,253.95L142.45,253.95v-0.1h-0.1v-0.1 M142.45,254.65v-0.6 M142.25,253.75l-2.6-1.8
		 M138.65,248.95v1.7 M100.45,325.15l16.6-9.6l20.1-11.6 M82.95,305.65l0.4-0.2 M91.95,198.85l-0.2,0.5 M109.35,273.35v-0.2
		 M109.35,273.15l-0.1-0.1 M109.25,272.95l-0.9-2 M93.45,199.35l-0.3-0.5 M90.65,198.25l0.4-0.2l0.9-0.2h0.5 M101.45,272.55v-1.6
		 M101.95,271.05v1.4 M100.35,272.25v-0.6 M102.65,271.95v0.6 M101.05,272.95v-0.3 M101.55,272.85L101.55,272.85 M105.75,274.55
		v-1.7 M102.95,270.55h-0.4l-0.3-0.1h-0.4h-0.4h-0.3h-0.4l-0.3,0.1h-0.4 M101.05,277.85L101.05,277.85v-0.1h-0.1v-0.1
		 M101.05,278.55v-0.6 M100.85,277.65l-2.6-1.8 M97.25,272.85v1.7 M74.85,190.15l-2,1.3l-1.3,1.1 M67.35,200.15l-0.5,9.1
		 M66.85,208.55l-7.8,36 M126.05,244.25l-7.5-34.7 M150.55,277.45l0.5-0.3 M9.55,142.85l0.4,0.2 M0.25,122.45v0.6 M30.15,94.45
		l-26,17.5 M163.95,231.95l0.8,0.5 M169.15,232.05l31.8-17.8 M125.05,150.15l0.5-0.3 M142.85,114.15l-12.5-7.2 M150.75,142.05
		l0.2-0.3l0.4-0.4l0.6-1.1l0.9-1.8l0.6-2.2l0.3-2.3v-2.4l-0.3-2.1l-0.5-2.1l-0.6-1.5l-0.6-1.6l-1.1-2 M150.65,122.25l-1.6-2.4
		l-0.7-0.9l-1.2-1.4l-1.4-1.3l-1.6-1.3l-1.3-0.7 M63.35,119.25l55.9,32.3 M132.75,150.75l5.5-1.9l5.5-2.3l4.9-2.7 M124.65,152.65
		l2.8-0.5l5.3-1.4 M81.75,33.45l-6.7,0.1l-8,0.8l-6,1l-6.3,1.4l-6.4,1.9 M94.15,28.05l-1.4,1.9l-2.3,1.7l-3.5,1.3l-2.4,0.3l-2.8,0.2
		 M118.65,15.05v-0.4 M117.15,14.95v0.5 M118.75,14.75v0.2l-0.1,0.1l-0.1,0.1 M121.35,8.65l-3-1.4l-2.9-0.6l-2.6,0.3l-1.9,0.5
		l-1.9,0.8l-1.7,1.1 M96.05,24.75l-2,3.5 M89.15,54.45l-0.1-0.1l-0.4-0.1l-0.7-0.1 M91.85,56.05l-2.7-1.6 M92.55,57.95v-0.6
		 M92.55,57.35v-0.4 M66.35,57.45l-0.5,0.1l-0.4,0.2l-0.3,0.2l-0.2,0.3 M48.35,38.65l-1.2,0.5l-0.5,0.1h-0.1l0.1,0.1v-0.1h-0.1
		l-0.1-0.3l-0.4-0.5 M64.95,58.25l-1,2.2 M63.85,61.15v0.7 M63.85,60.75v0.4 M63.95,61.75l-0.1-0.1l-0.3-0.2l-0.1-0.2v-0.2
		 M87.55,54.15l-21.4,3.3 M139.25,29.15l0.1-2.7l-0.5-3.9l-0.9-2.2l-1.4-2l-1.7-1.7l-2.1-1.4 M36.25,26.75l-2.6-2.7l-0.7-0.4
		 M25.15,20.75l-0.4-0.1l-3.7,0.6l-3,1.6l-2.8,3.2 M137.75,42.25l0.8-6.3l0.7-7 M46.15,38.55l-3.3-4.1l-3.7-4.3l-3-3.5 M92.85,57.45
		l-4.5,9.9 M79.55,70.75l-15.5-8.9 M139.45,66.65l-0.5-3.3l-0.5-3.1l-0.3-2.9l-0.3-2.4l-0.2-2l-0.2-2.7v-3.7l0.3-4.4 M15.75,25.55
		l-0.7,1 M24.45,85.55l2,3.8l2,2.9l1.5,2l1.1,1.1l1.3,1.4l2.1,1.9l2.3,1.8 M9.95,37.65l-0.4,1.2 M9.55,38.75l-0.4,3.5l0.3,2.2
		l0.8,2.9 M137.55,79.15l1-2.4l0.8-3.6l0.3-3.4l-0.3-3.4 M10.25,47.25l1.7,5.3l2.8,7.8 M14.45,59.75l1.6,4.6l1.6,4.9l1.7,4.7
		l1.8,4.5 M43.35,104.55l4.2,2.2l6.1,2.2l6.1,1.7l5.9,1.2l5.7,0.7l5.2,0.3h7.2l6.2-0.5l6-0.9l5.8-1.4l7.3-2.3l6.5-3l5.5-3.3l3.3-2.5
		l2.8-2.6l1.2-1.3l1.7-1.9l0.7-1.1 M117.85,82.55l-1.2-4.9 M109.25,67.45l-1.2-0.7l-2.1-0.7l-3.3-0.6h-0.8h-0.9l-2.4,0.3
		 M98.65,65.75l-3,0.5l-2.9,0.4 M73.65,76.35l-0.3,0.4l-2.5,3.2l-2.1,3 M86.85,67.55l-1.1,0.2l-1.4,0.3l-3.2,1.3l-3,2.3l-0.4,0.4
		 M92.75,66.65l-6,0.9 M136.85,80.75l0.6-1.1 M21.15,78.45l3.3,7.2 M272.75,249.15l-0.1-0.5l-0.1-0.5 M272.55,248.15l-0.2-2.7
		 M263.85,256.75l10.7,6.2 M288.35,258.95v-10.4 M288.35,248.45v-0.5l-0.4-1.3l-0.8-1.2l-1.2-1.1l-1.5-0.9l-1.9-0.7l-2-0.4l-2.1-0.1
		l-2.1,0.1l-2,0.4l-1.8,0.7l-0.5,0.3 M269.35,239.85l-64.1-40.5 M263.75,246.15l-58.8-37.2 M272.75,261.85v0.6 M288.35,265.95v-3.5
		 M268.55,262.45v3.5 M159.85,98.45l0.7-0.5 M159.85,318.35l0.7-0.5 M159.85,152.85l0.7-0.5 M283.75,248.25v-0.8 M273.15,247.45v0.8
		 M175.75,366.35l0.3-0.2 M176.05,366.15l0.6-0.3 M172.75,365.75l0.1,0.1 M173.35,366.15l0.4,0.2 M171.95,355.15v0.1 M171.95,356.25
		v0.2 M171.95,357.45v0.1 M171.95,358.65v0.1 M171.95,359.75v0.1 M171.95,360.95v0.1 M171.95,362.05v0.2 M171.95,363.25v0.1
		 M171.95,364.45v0.2 M177.55,363.95v-0.1 M177.55,362.75v-0.1 M177.55,361.65v-0.1 M177.55,360.45v-0.1 M177.55,359.35v-0.2
		 M177.55,358.15v-0.1 M177.55,356.95v-0.1 M177.55,355.85v-0.1 M177.55,354.65v-0.1"/>
</g>
</svg>
