<?xml version="1.0" encoding="utf-8"?>
<!-- Generator: Adobe Illustrator 19.0.0, SVG Export Plug-In . SVG Version: 6.00 Build 0)  -->
<svg version="1.0" id="Layer_1" xmlns="http://www.w3.org/2000/svg" xmlns:xlink="http://www.w3.org/1999/xlink" x="0px" y="0px"
	 width="256.305px" height="350.828px" viewBox="0 0 256.305 350.828" enable-background="new 0 0 256.305 350.828"
	 xml:space="preserve">
<text id="XMLID_1490_" transform="matrix(1.0002 0 0 1 237.5008 89.741)" font-family="'ArialMT'" font-size="13.6276px">2</text>
<text id="XMLID_1489_" transform="matrix(1.0006 0 0 1 234.0936 112.7029)" font-family="'ArialMT'" font-size="13.6276px">2x</text>
<text id="XMLID_1488_" transform="matrix(1.0002 0 0 1 237.5008 139.5769)" font-family="'ArialMT'" font-size="13.6276px">1</text>
<text id="XMLID_1487_" transform="matrix(1.0002 0 0 1 237.5008 173.9187)" font-family="'ArialMT'" font-size="13.6276px">3</text>
<text id="XMLID_1486_" transform="matrix(1.0006 0 0 1 234.0936 196.8806)" font-family="'ArialMT'" font-size="13.6276px">2x</text>
<text id="XMLID_1485_" transform="matrix(1.0002 0 0 1 237.242 323.4402)" font-family="'ArialMT'" font-size="13.6276px">6</text>
<text id="XMLID_1484_" transform="matrix(1.0006 0 0 1 233.8348 346.4031)" font-family="'ArialMT'" font-size="13.6276px">2x</text>
<text id="XMLID_1483_" transform="matrix(1.0002 0 0 1 237.242 273.5906)" font-family="'ArialMT'" font-size="13.6276px">4</text>
<text id="XMLID_1482_" transform="matrix(1.0006 0 0 1 233.8348 296.5535)" font-family="'ArialMT'" font-size="13.6276px">2x</text>
<text id="XMLID_1481_" transform="matrix(1.0002 0 0 1 237.5008 223.4822)" font-family="'ArialMT'" font-size="13.6276px">5</text>
<text id="XMLID_1480_" transform="matrix(1.0006 0 0 1 234.0936 246.4441)" font-family="'ArialMT'" font-size="13.6276px">2x</text>
<path id="XMLID_1440_" fill="none" stroke="#000000" stroke-width="0.51" stroke-miterlimit="10" d="M227.75,225.45l0.5,0.9l0.4,0.7
	l0.6,0.8l0.5,0.7l0.6,0.7l0.7,0.7l0.7,0.6l0.7,0.6l0.8,0.5l0.7,0.5l0.9,0.4l0.8,0.4l0.9,0.3l0.9,0.2l0.9,0.3l0.9,0.1l0.9,0.1h0.9
	h0.9l1-0.1l0.9-0.1l0.9-0.2l0.9-0.2l0.8-0.3l0.9-0.4l0.8-0.4l0.8-0.4l0.8-0.5l0.7-0.6l0.7-0.6l0.7-0.6l0.6-0.7l0.6-0.7l0.5-0.8
	l0.5-0.8l0.5-0.8l0.3-0.8l0.4-0.9l0.3-0.9l0.2-0.9l0.1-0.9l0.2-0.9v-0.9v-0.9l-0.1-1l-0.1-0.9l-0.1-0.9l-0.3-0.9l-0.3-0.8l-0.3-0.9
	l-0.4-0.8l-0.4-0.8l-0.5-0.8l-0.6-0.8l-0.6-0.7l-0.6-0.7l-0.7-0.6l-0.7-0.6l-0.7-0.5l-0.8-0.5l-0.8-0.5l-0.8-0.4l-0.9-0.3l-0.9-0.3
	l-0.9-0.3l-0.9-0.1l-0.9-0.2h-0.9h-0.9h-1l-0.9,0.1l-0.9,0.2l-0.9,0.2l-0.9,0.3l-0.8,0.3l-0.9,0.4l-0.8,0.4l-0.8,0.5l-0.7,0.5
	l-0.7,0.6l-0.7,0.6l-0.7,0.7l-0.6,0.7l-0.5,0.7l-0.5,0.8l-0.5,0.8l-0.4,0.8l-0.4,0.9l-0.3,0.8l-0.2,0.9l-0.2,0.9l-0.2,0.9v0.9
	l-0.1,1l0.1,0.9l0.1,0.9l0.1,0.9l0.2,0.9l0.3,0.9l0.3,0.9L227.75,225.45 M227.55,275.55l0.4,0.9l0.5,0.7l0.5,0.8l0.6,0.7l0.6,0.7
	l0.6,0.7l0.7,0.6l0.7,0.6l0.8,0.5l0.8,0.5l0.8,0.4l0.9,0.4l0.8,0.3l0.9,0.2l0.9,0.3l0.9,0.1l0.9,0.1h1h0.9h0.9l0.9-0.2l0.9-0.2
	l0.9-0.2l0.9-0.3l0.8-0.4l0.9-0.4l0.8-0.4l0.7-0.5l0.8-0.6l0.7-0.6l0.6-0.6l0.7-0.7l0.5-0.7l0.6-0.8l0.5-0.8l0.4-0.8l0.4-0.8
	l0.3-0.9l0.3-0.9l0.2-0.9l0.2-0.9l0.1-0.9l0.1-0.9v-0.9l-0.1-1l-0.1-0.9l-0.2-0.9l-0.2-0.9l-0.3-0.8l-0.4-0.9l-0.4-0.8l-0.4-0.8
	l-0.5-0.8l-0.5-0.8l-0.6-0.7l-0.7-0.7l-0.6-0.6l-0.7-0.6l-0.8-0.5l-0.8-0.5l-0.8-0.5l-0.8-0.4l-0.9-0.3l-0.8-0.3l-0.9-0.3l-0.9-0.1
	l-0.9-0.2h-1h-0.9h-0.9l-0.9,0.1l-0.9,0.2l-0.9,0.2l-0.9,0.3l-0.9,0.3l-0.8,0.4l-0.8,0.4l-0.8,0.5l-0.8,0.5l-0.7,0.6l-0.7,0.6
	l-0.6,0.7l-0.6,0.7l-0.6,0.7l-0.5,0.8l-0.5,0.8l-0.4,0.8l-0.3,0.9l-0.3,0.8l-0.3,0.9l-0.2,0.9l-0.1,0.9l-0.1,0.9v1v0.9l0.1,0.9
	l0.1,0.9l0.2,0.9l0.3,0.9l0.3,0.9L227.55,275.55 M227.55,325.45l0.4,0.8l0.5,0.8l0.5,0.8l0.6,0.7l0.6,0.7l0.6,0.6l0.7,0.6l0.7,0.6
	l0.8,0.5l0.8,0.5l0.8,0.4l0.9,0.4l0.8,0.3l0.9,0.3l0.9,0.2l0.9,0.2h0.9l1,0.1h0.9l0.9-0.1l0.9-0.1l0.9-0.2l0.9-0.3l0.9-0.3l0.8-0.3
	l0.9-0.4l0.8-0.5l0.7-0.5l0.8-0.6l0.7-0.6l0.6-0.6l0.7-0.7l0.5-0.7l0.6-0.7l0.5-0.8l0.4-0.8l0.4-0.9l0.3-0.8l0.3-0.9l0.2-0.9
	l0.2-0.9l0.1-0.9l0.1-1v-0.9l-0.1-0.9l-0.1-0.9l-0.2-0.9l-0.2-0.9l-0.3-0.9l-0.4-0.9l-0.4-0.8l-0.4-0.8l-0.5-0.8l-0.5-0.7l-0.6-0.7
	l-0.7-0.7l-0.6-0.7l-0.7-0.5l-0.8-0.6l-0.8-0.5l-0.8-0.4l-0.8-0.4l-0.9-0.4l-0.8-0.3l-0.9-0.2l-0.9-0.2l-0.9-0.1l-1-0.1h-0.9h-0.9
	l-0.9,0.2l-0.9,0.1l-0.9,0.2l-0.9,0.3l-0.9,0.3l-0.8,0.4l-0.8,0.4l-0.8,0.5l-0.8,0.6l-0.7,0.5l-0.7,0.7l-0.6,0.6l-0.6,0.7l-0.6,0.8
	l-0.5,0.7l-0.5,0.8l-0.4,0.8l-0.3,0.9l-0.3,0.9l-0.3,0.9l-0.2,0.9l-0.1,0.9l-0.1,0.9v0.9v0.9l0.1,1l0.1,0.9l0.2,0.9l0.3,0.9l0.3,0.8
	L227.55,325.45 M227.75,175.85l0.5,0.9l0.4,0.8l0.6,0.7l0.5,0.8l0.6,0.7l0.7,0.6l0.7,0.6l0.7,0.6l0.8,0.5l0.7,0.5l0.9,0.4l0.8,0.4
	l0.9,0.3l0.9,0.3l0.9,0.2l0.9,0.1l0.9,0.1l0.9,0.1l0.9-0.1h1l0.9-0.2l0.9-0.2l0.9-0.2l0.8-0.3l0.9-0.4l0.8-0.4l0.8-0.4l0.8-0.5
	l0.7-0.6l0.7-0.6l0.7-0.6l0.6-0.7l0.6-0.7l0.5-0.8l0.5-0.8l0.5-0.8l0.3-0.8l0.4-0.9l0.3-0.9l0.2-0.8l0.1-1l0.2-0.9v-0.9v-0.9
	l-0.1-0.9l-0.1-1l-0.1-0.9l-0.3-0.9l-0.3-0.8l-0.3-0.9l-0.4-0.8l-0.4-0.8l-0.5-0.8l-0.6-0.8l-0.6-0.7l-0.6-0.6l-0.7-0.7l-0.7-0.6
	l-0.7-0.5l-0.8-0.5l-0.8-0.5l-0.8-0.4l-0.9-0.3l-0.9-0.3l-0.9-0.2l-0.9-0.2l-0.9-0.1l-0.9-0.1h-0.9h-1l-0.9,0.1l-0.9,0.2l-0.9,0.2
	l-0.9,0.3l-0.8,0.3l-0.9,0.4l-0.8,0.4l-0.8,0.5l-0.7,0.5l-0.7,0.6l-0.7,0.6l-0.7,0.7l-0.6,0.7l-0.5,0.7l-0.5,0.8l-0.5,0.8l-0.4,0.8
	l-0.4,0.9l-0.3,0.8l-0.2,0.9l-0.2,0.9l-0.2,0.9v1l-0.1,0.9l0.1,0.9l0.1,0.9l0.1,0.9l0.2,0.9l0.3,0.9l0.3,0.9L227.75,175.85
	 M227.75,141.55l0.5,0.8l0.4,0.8l0.6,0.8l0.5,0.7l0.6,0.7l0.7,0.7l0.7,0.6l0.7,0.5l0.8,0.6l0.7,0.4l0.9,0.5l0.8,0.3l0.9,0.4l0.9,0.2
	l0.9,0.2l0.9,0.2l0.9,0.1h0.9h0.9l1-0.1l0.9-0.1l0.9-0.2l0.9-0.2l0.8-0.3l0.9-0.4l0.8-0.4l0.8-0.5l0.8-0.5l0.7-0.5l0.7-0.6l0.7-0.7
	l0.6-0.6l0.6-0.8l0.5-0.7l0.5-0.8l0.5-0.8l0.3-0.9l0.4-0.8l0.3-0.9l0.2-0.9l0.1-0.9l0.2-0.9v-0.9v-1l-0.1-0.9l-0.1-0.9l-0.1-0.9
	l-0.3-0.9l-0.3-0.9l-0.3-0.8l-0.4-0.9l-0.4-0.8l-0.5-0.8l-0.6-0.7l-0.6-0.7l-0.6-0.7l-0.7-0.6l-0.7-0.6l-0.7-0.6l-0.8-0.5l-0.8-0.4
	l-0.8-0.4l-0.9-0.4l-0.9-0.3l-0.9-0.2l-0.9-0.2l-0.9-0.1l-0.9-0.1h-0.9l-1,0.1l-0.9,0.1l-0.9,0.1l-0.9,0.3l-0.9,0.2l-0.8,0.4
	l-0.9,0.3l-0.8,0.5l-0.8,0.5l-0.7,0.5l-0.7,0.6l-0.7,0.6l-0.7,0.6l-0.6,0.7l-0.5,0.8l-0.5,0.7l-0.5,0.8l-0.4,0.9l-0.4,0.8l-0.3,0.9
	l-0.2,0.9l-0.2,0.9l-0.2,0.9v0.9l-0.1,0.9l0.1,1l0.1,0.9l0.1,0.9l0.2,0.9l0.3,0.9l0.3,0.9L227.75,141.55 M227.75,91.75l0.5,0.8
	l0.4,0.8l0.6,0.7l0.5,0.8l0.6,0.7l0.7,0.6l0.7,0.6l0.7,0.6l0.8,0.5l0.7,0.5l0.9,0.4l0.8,0.4l0.9,0.3l0.9,0.3l0.9,0.2l0.9,0.1
	l0.9,0.1l0.9,0.1h0.9l1-0.1l0.9-0.2l0.9-0.1l0.9-0.3l0.8-0.3l0.9-0.3l0.8-0.5l0.8-0.4l0.8-0.5l0.7-0.6l0.7-0.6l0.7-0.6l0.6-0.7
	l0.6-0.7l0.5-0.8l0.5-0.7l0.5-0.9l0.3-0.8l0.4-0.9l0.3-0.8l0.2-0.9l0.1-0.9l0.2-1v-0.9v-0.9l-0.1-0.9l-0.1-0.9l-0.1-0.9l-0.3-0.9
	l-0.3-0.9l-0.3-0.9l-0.4-0.8l-0.4-0.8l-0.5-0.8l-0.6-0.8l-0.6-0.7l-0.6-0.6l-0.7-0.7l-0.7-0.6l-0.7-0.5l-0.8-0.5l-0.8-0.5l-0.8-0.4
	l-0.9-0.3l-0.9-0.3l-0.9-0.2l-0.9-0.2l-0.9-0.1l-0.9-0.1h-0.9h-1l-0.9,0.1l-0.9,0.2l-0.9,0.2l-0.9,0.3l-0.8,0.3l-0.9,0.4l-0.8,0.4
	l-0.8,0.5l-0.7,0.5l-0.7,0.6l-0.7,0.6l-0.7,0.7l-0.6,0.7l-0.5,0.7l-0.5,0.8l-0.5,0.8l-0.4,0.8l-0.4,0.9l-0.3,0.9l-0.2,0.8l-0.2,0.9
	l-0.2,1v0.9l-0.1,0.9l0.1,0.9l0.1,0.9l0.1,1l0.2,0.9l0.3,0.8l0.3,0.9L227.75,91.75"/>
<path id="XMLID_1400_" fill="none" stroke="#000000" stroke-width="0.51" stroke-linecap="round" stroke-linejoin="round" stroke-miterlimit="10" d="
	M226.65,222.05l-150.8,30.3 M226.15,269.05l-135.6-1.8 M226.15,319.55l-62,2 M232.05,181.25l-28.6,36 M228.75,143.25l-53.2,34.1
	 M228.05,92.25l-61,32.2"/>
<path id="XMLID_1360_" d="M74.85,252.55l0.1,0.3l0.1,0.2l0.2,0.1l0.2,0.1l0.3,0.1h0.2l0.2-0.1l0.2-0.1l0.2-0.2l0.1-0.2l0.1-0.2v-0.2
	v-0.3l-0.1-0.2l-0.2-0.2l-0.2-0.1l-0.2-0.1h-0.2h-0.3l-0.2,0.1l-0.2,0.1l-0.2,0.2l-0.1,0.2v0.3V252.55l1-0.2 M89.65,267.25v0.2
	l0.1,0.2l0.1,0.2l0.2,0.2l0.2,0.1h0.3h0.2h0.2l0.2-0.2l0.2-0.1l0.1-0.2l0.1-0.3v-0.2l-0.1-0.3l-0.1-0.2l-0.1-0.1l-0.3-0.2l-0.2-0.1
	h-0.2l-0.3,0.1l-0.2,0.1l-0.2,0.1l-0.1,0.2l-0.1,0.2V267.25h0.9 M163.25,321.55v0.2l0.1,0.2l0.1,0.2l0.2,0.2l0.3,0.1h0.2h0.2
	l0.3-0.1l0.2-0.1l0.1-0.2l0.1-0.2l0.1-0.3v-0.2l-0.1-0.2l-0.1-0.2l-0.2-0.2l-0.2-0.1l-0.2-0.1h-0.3h-0.2l-0.2,0.2l-0.2,0.1l-0.1,0.2
	l-0.1,0.2V321.55h0.9 M202.85,218.05l0.2,0.1l0.2,0.1h0.3l0.2-0.1l0.2-0.1l0.2-0.1l0.1-0.2l0.1-0.3l0.1-0.2l-0.1-0.2l-0.1-0.3
	l-0.1-0.1l-0.2-0.2l-0.2-0.1h-0.3h-0.2l-0.2,0.1l-0.2,0.1l-0.2,0.2l-0.1,0.2l-0.1,0.2v0.3l0.1,0.2l0.1,0.2L202.85,218.05l0.6-0.8
	 M174.75,177.85l0.1,0.2l0.2,0.1l0.2,0.1h0.3h0.2l0.2-0.1l0.2-0.1l0.2-0.2l0.1-0.2v-0.3v-0.2l-0.1-0.2l-0.1-0.2l-0.2-0.2l-0.2-0.1
	l-0.2-0.1h-0.3l-0.2,0.1l-0.2,0.1l-0.2,0.2l-0.1,0.2l-0.1,0.2v0.2l0.1,0.3L174.75,177.85l0.8-0.5 M166.25,124.85l0.1,0.2l0.2,0.2
	l0.2,0.1h0.3h0.2l0.2-0.1l0.2-0.1l0.2-0.2l0.1-0.2l0.1-0.2v-0.2l-0.1-0.3l-0.1-0.2l-0.1-0.2l-0.2-0.1l-0.3-0.1h-0.2l-0.2,0.1h-0.3
	l-0.2,0.2l-0.1,0.2l-0.1,0.2v0.3v0.2L166.25,124.85l0.8-0.4"/>
<path id="XMLID_1155_" fill="none" stroke="#000000" stroke-width="0.25" stroke-linecap="round" stroke-linejoin="round" stroke-miterlimit="10" d="
	M200.25,221.65l-0.1-0.1l-0.4-0.5l-0.1-0.7v-0.8l0.3-0.8l0.4-0.9l0.6-0.7l0.6-0.6l0.7-0.4l0.6-0.2l0.6,0.2 M200.25,221.35v0.1
	l0.5,0.2h0.6l0.7-0.2 M202.05,221.45l0.6-0.5l0.6-0.7l0.5-0.8l0.3-0.9l0.1-0.8l-0.1-0.7l-0.3-0.5l-0.5-0.3 M135.05,214.75l0.1,0.3
	l0.1,0.3 M141.85,224.45l0.1,0.2l0.3,0.2 M130.65,216.85l0.4-0.1l0.9-0.2l1-0.1 M130.85,219.15v-0.1l0.7-0.4l0.8-0.3l0.8-0.1
	l0.8-0.1 M134.25,216.35l1-0.6 M141.65,224.35h-0.1 M142.45,223.85l-0.1,0.1l-0.3,0.1 M136.95,214.55h-0.1l-0.1,0.2l-0.2,0.1
	 M136.35,216.95l4.4,6.1 M136.95,214.45v-0.1 M140.35,219.05l-2.8-3.8 M137.05,214.45l0.3-0.1 M130.35,216.85l0.6-0.6
	 M139.15,224.45l1.6,2.3 M136.15,225.75v-4 M135.65,225.95l-3-1.7 M132.65,211.15l1.5-0.8 M133.65,208.05v0.1l0.2,0.4l0.1,0.3
	 M133.95,207.75L133.95,207.75l-0.3,0.1 M129.65,215.05L129.65,215.05l0.7-0.4l0.8-0.3l0.8-0.2l0.8-0.1 M134.25,210.75l-0.4,0.2
	 M152.85,232.35l3.6-2 M147.05,219.15l6.1-3.5 M78.05,117.85l-5.7,3.3 M41.95,117.95l-5.8,3.3 M50.05,121.25l-6-3.4 M127.05,197.15
	l4.5-2.6 M134.85,205.05l0.8-0.5 M71.15,121.95v1.9 M70.95,121.95l-0.2,0.1l-0.2,0.3l-0.2,0.3 M70.75,120.95l0.1,0.1l0.1,0.1
	l0.1,0.1v0.2l0.1,0.1 M79.15,127.65v-9.5 M78.75,116.35l0.1,0.1l0.1,0.1l0.1,0.1l0.1,0.1v0.1 M102.95,120.25v-0.1l-0.9-1.1l-1.1-1
	l-1.4-0.9l-1.5-0.8l-1.7-0.6l-1.9-0.5l-2-0.4l-2-0.1h-2.1 M136.15,196.25l1-0.5 M70.75,123.95L70.75,123.95h0.1h0.1 M99.75,128.55
	h0.1 M87.05,133.25l-0.1-0.1l-0.1,0.1 M91.75,133.25v-0.1h0.1 M145.75,214.15l7.2-4.2 M128.95,194.05l-1-3.2 M131.95,204.35l-1-3.2
	 M134.85,214.25l-0.8-2.9 M137.05,221.95l-0.8-2.9 M124.95,221.25l3.7,2.1 M97.35,176.35l-3.8-2.1 M134.15,220.65v2.7
	 M131.45,221.95l2.2-1.3 M130.35,219.85l0.6,2 M130.15,217.35l-0.1,0.6 M129.15,215.75l0.2,0.4l0.4,0.6 M127.95,211.75l1,3.3
	 M132.85,208.35l-4.2,2.4 M133.65,207.15v0.6 M126.25,204.05l2.1-1.2 M122.25,192.45l3.1,10.4 M125.05,189.15l-2.7,1.5
	 M98.05,175.85l2.1-1.2 M142.45,161.65l5.8-3.3 M141.35,164.35v-1.9 M140.45,163.35v-0.2l0.2-0.3l0.3-0.3 M141.35,162.15l-0.1-0.1
	v-0.2l-0.1-0.1v-0.1l-0.1-0.1 M149.35,168.15v-9.5 M149.35,157.55v-0.2l-0.1-0.1l-0.1-0.1v-0.1l-0.1-0.1 M152.85,156.15l1.7-0.4
	l1.9-0.4l2.1-0.1h2l2.1,0.1l1.9,0.4l1.9,0.5l1.7,0.6l1.6,0.8l1.3,0.9 M141.15,164.45L141.15,164.45h-0.1h-0.1 M170.25,169.15
	l-0.1-0.1h-0.1 M156.95,173.75L156.95,173.75l0.1-0.1h0.1 M162.15,173.75L162.15,173.75l-0.1-0.1 M172.75,186.55v-14.4
	 M165.65,183.15v-7.6 M154.45,189.45l5.7-3.3 M162.35,186.15l5.9,3.4 M167.45,201.35l0.1-0.8l0.3-0.9l0.5-0.8l0.6-0.6l0.7-0.5
	l0.6-0.2l0.5,0.1l0.5,0.4l0.2,0.6v0.8l-0.2,0.8l-0.5,0.8l-0.5,0.8l-0.6,0.5l-0.7,0.3l-0.6,0.1l-0.5-0.2l-0.3-0.5L167.45,201.35
	 M167.15,202.95l-0.3-0.3l-0.3-0.6l-0.1-0.7 M166.45,201.35l0.1-0.9l0.3-0.9l0.4-0.9l0.6-0.8l0.7-0.6l0.7-0.4l0.7-0.2l0.6,0.1
	l0.2,0.1 M93.15,172.65l3.9,2.3 M31.85,124.15v9.6 M171.45,197.65l-0.1-0.6l-0.3-0.7l-0.5-0.4l-0.6-0.2h-0.7l-0.8,0.4l-0.8,0.5
	l-0.7,0.8l-0.6,0.9l-0.5,1l-0.3,1l-0.1,1 M165.45,201.35l0.1,0.8l0.3,0.7l0.5,0.4l0.6,0.2l0.7-0.1l0.5-0.1 M172.55,192.45v9.5
	 M50.95,122.15l-6.6,3.8 M41.85,126.05l-6.8-3.9 M35.15,120.65l6.6-3.8 M44.25,116.75l6.8,4 M71.85,120.25l5.7-3.3 M84.05,114.25
	h0.1l2-0.3l2.2-0.2h2.1l2.2,0.2l2,0.3l2,0.5l1.8,0.7l1.6,0.8l1.5,1l1.1,1l0.9,1.1l0.6,1.2l0.3,1.3 M98.95,129.25l-5.7,3.3
	 M91.45,133.55l-0.6,0.2l-0.7,0.1h-0.8h-0.7 M84.65,132.05l-11.9-6.9 M70.15,123.65l-0.3-0.4l-0.2-0.4l-0.1-0.4l0.1-0.4l0.2-0.4
	 M160.05,185.15l-6.6,3.8 M169.35,189.05l-6.8-4 M162.65,194.25l6.6-3.8 M153.25,190.35l6.9,4 M163.35,173.05l5.7-3.3
	 M157.45,174.05l0.6,0.2l0.8,0.1h0.7h0.7 M142.95,165.65l11.8,6.9 M140.35,161.75l-0.3,0.4l-0.3,0.4v0.4v0.4l0.3,0.4 M147.75,157.45
	l-5.8,3.3 M173.75,166.05L173.75,166.05l0.6-1.2l0.3-1.3v-1.2l-0.3-1.3l-0.6-1.2l-0.9-1.1l-1.2-1l-1.4-1l-1.6-0.8l-1.9-0.7l-1.9-0.5
	l-2.1-0.3l-2.1-0.2 M164.35,206.75v-9.5 M158.35,197.25v9.5 M50.45,67.75v0.1 M35.45,67.75v0.1v0.1 M42.45,71.85L42.45,71.85
	l0.1,0.1 M43.45,71.85L43.45,71.85 M35.35,67.65L35.35,67.65l-0.1-0.1 M50.55,67.65L50.55,67.65l0.1-0.1 M41.15,31.25L41.15,31.25
	l-0.1,0.1l-0.1,0.1 M41.55,31.15l1.2,0.6 M45.05,31.75l-0.1-0.1v-0.2l-0.1-0.1v-0.1l-0.1-0.1 M43.15,31.75l1.2-0.6 M43.35,71.85
	h-0.1h-0.1h-0.2h-0.1 M42.45,68.35v-32.1 M42.25,32.65l-1.2-0.7 M40.85,31.85h-0.1 M35.45,34.45v30 M36.35,68.25l5.2,3 M44.45,71.15
	l5-2.8 M50.45,64.35v-30.7 M46.75,30.45l-0.3,0.2 M44.85,31.95l-1.2,0.7 M43.45,36.25v32.1 M43.45,32.65v-0.1l-0.1-0.1v-0.2
	l-0.1-0.1l-0.1-0.1 M42.85,31.95L42.85,31.95l-0.1,0.1l-0.1,0.1v0.1 M43.35,32.85h-0.1h-0.1h-0.2h-0.1 M48.65,15.15l-0.1,0.3
	l-0.2,0.8l-0.6,0.6l-0.8,0.6l-1,0.4l-1.1,0.4l-1.3,0.1h-1.2l-1.3-0.1l-1.1-0.4l-1-0.4l-0.8-0.6l-0.5-0.6l-0.3-0.8l-0.1-0.3
	 M154.05,136.45l-0.1-0.1 M168.85,136.45v-0.1 M161.75,140.45h0.1 M161.05,140.45L161.05,140.45l-0.1-0.1 M153.75,135.85v0.1
	l0.1,0.1 M169.15,135.85v0.1h-0.1v0.1 M163.45,100.15v-0.1v-0.2l-0.1-0.1l-0.1-0.1l-0.1-0.1 M161.65,100.15l1.1-0.6 M159.65,99.65
	h-0.1v0.1l-0.1,0.1 M160.05,99.55l1.2,0.6 M161.85,140.25h-0.2h-0.1h-0.1h-0.2 M159.25,100.15L159.25,100.15 M153.95,102.85v30
	 M154.85,136.65l5.2,3 M160.95,136.65v-32 M160.75,101.05l-1.2-0.7 M165.15,98.85l-0.2,0.2l-0.7,0.6 M163.25,100.35l-1.1,0.7
	 M161.95,104.65v32 M162.95,139.55l5-2.9 M168.95,132.95v-29.6 M161.95,101.05l-0.1-0.1v-0.2l-0.1-0.1v-0.1l-0.1-0.1 M161.35,100.35
	L161.35,100.35l-0.1,0.1l-0.1,0.1l-0.1,0.1 M161.85,101.25h-0.2h-0.1h-0.1h-0.2 M167.05,83.55v0.3l-0.3,0.7l-0.5,0.7l-0.8,0.6
	l-1,0.4l-1.2,0.4l-1.2,0.1h-1.3l-1.2-0.1l-1.1-0.4l-1-0.4 M157.45,85.85l-0.8-0.6l-0.6-0.7l-0.3-0.7v-0.3 M35.95,12.65v-0.2l0.2-0.2
	l0.3-0.2l0.4-0.1l0.4-0.1h0.4l0.3,0.1l0.2,0.2 M34.85,12.55v0.1l-0.1,0.3l-0.2,0.3l-0.2,0.4l-0.2,0.3l-0.2,0.3l-0.2,0.2l-0.1,0.1
	 M34.45,6.45v-0.1l0.2-0.3l0.3-0.2l0.4-0.1l0.4-0.1h0.4l0.3,0.1l0.2,0.2 M29.05,9.25v0.1l-0.1,0.3l-0.1,0.3l-0.3,0.4l-0.2,0.3
	l-0.2,0.3l-0.1,0.2l-0.1,0.1 M37.05,14.35l-0.1-0.1l-0.3-0.1h-0.4l-0.3,0.1l-0.4,0.3l-0.2,0.3l-0.2,0.4l0.1,0.4l0.1,0.1
	 M38.25,17.65l-0.1,0.1l-0.2,0.3l-0.2,0.4l0.1,0.3l0.1,0.2 M39.85,18.65v0.1l-0.1,0.4l-0.1,0.4v0.3l0.1,0.2l0.1,0.1 M46.35,19.55
	L46.35,19.55l-0.2,0.1l-0.2,0.3l-0.2,0.4l-0.1,0.4v0.4v0.3l0.1,0.2v0.1 M37.35,14.65l-0.1-0.1l-0.1-0.3 M37.15,14.25l0.1-0.4
	l0.2-0.4l0.2-0.4 M48.35,20.75l-0.1-0.1l-0.3-0.2h-0.4l-0.4,0.2l-0.4,0.3l-0.2,0.3l-0.1,0.4v0.3l0.1,0.2 M155.95,80.55v-0.3l0.2-0.4
	l0.3-0.3l0.4-0.2l0.4-0.1l0.3,0.1 M167.15,86.95l0.1-0.4l0.2-0.4l0.3-0.3l0.3-0.2h0.4h0.4l0.2,0.2 M166.95,86.95l-0.2-0.1l-0.3,0.1
	l-0.3,0.3l-0.3,0.3l-0.2,0.4v0.4v0.3l0.2,0.2 M170.45,88.05L170.45,88.05h-0.2l-0.2-0.2l-0.2-0.4 M169.85,87.45l-0.2-0.4l-0.1-0.4
	v-0.4l0.1-0.2l0.2-0.2 M167.95,87.45L167.95,87.45l-0.4-0.1h-0.4l-0.4,0.2l-0.3,0.4l-0.2,0.4l0.1,0.4l0.1,0.4l0.3,0.3 M169.45,88.35
	L169.45,88.35l-0.4-0.1h-0.5l-0.3,0.2l-0.3,0.4l-0.2,0.4l0.1,0.4l0.1,0.4l0.3,0.3 M175.85,86.25l-0.1-0.1l-0.2-0.3 M175.55,85.85
	l-0.1-0.4l-0.1-0.5v-0.3l0.1-0.3l0.1-0.1 M154.75,90.55l0.2,0.1 M165.15,97.05l0.7,0.5 M165.45,96.75l0.4,0.2 M172.15,90.55v2.2
	 M148.75,93.35v2.3 M164.75,94.85v2.1 M155.75,97.45v2.2 M36.55,22.35l-0.3-0.2 M47.35,29.15l-0.7-0.4 M47.45,28.55l-0.4-0.2
	 M53.65,24.15v0.4 M30.25,24.95v2.3 M37.35,29.05v2.2 M46.25,26.45v2.1 M169.25,100.25h-0.1l-0.4-0.4l-0.2-0.7v-0.8l0.2-0.8l0.4-0.9
	l0.5-0.8l0.7-0.6l0.6-0.4l0.7-0.3l0.6,0.1l0.2,0.1 M169.25,100.05l0.4,0.2h0.6l0.7-0.2l0.7-0.5l0.5-0.7l0.5-0.8l0.3-0.9l0.1-0.8
	 M173.05,96.35l-0.1-0.7l-0.3-0.5l-0.5-0.3 M94.35,283.25v0.3l-0.3,0.7l-0.5,0.6l-0.8,0.5l-1,0.4l-1.1,0.3 M90.65,286.05l-1.2,0.1
	l-1.1-0.1l-1.2-0.2l-1-0.4l-0.8-0.5l-0.6-0.6l-0.3-0.7v-0.4 M164.55,323.75l-0.1,0.3l-0.2,0.7l-0.6,0.6l-0.7,0.5l-1,0.4l-1.1,0.3
	 M160.85,326.55l-1.2,0.1l-1.2-0.1l-1.1-0.2l-1-0.4l-0.8-0.5l-0.6-0.6l-0.3-0.7l-0.1-0.4 M71.65,253.45l-0.1-0.8l-0.3-0.9l-0.5-0.8
	l-0.6-0.6l-0.6-0.4l-0.7-0.2l-0.5,0.1l-0.4,0.3l-0.2,0.6v0.8l0.2,0.8l0.4,0.8l0.5,0.8l0.7,0.5l0.6,0.3l0.6,0.1l0.5-0.3l0.3-0.5
	L71.65,253.45 M72.45,255.15l0.4-0.3l0.3-0.6l0.1-0.8 M73.25,253.45l-0.1-1l-0.3-0.9l-0.5-1l-0.6-0.8l-0.7-0.7l-0.8-0.5l-0.7-0.3
	l-0.7,0.1l-0.3,0.1 M48.25,239.95l-0.1-0.8l-0.3-0.9l-0.5-0.7l-0.5-0.7l-0.7-0.4l-0.6-0.2l-0.6,0.1l-0.4,0.4l-0.2,0.5v0.8l0.2,0.8
	l0.4,0.8l0.6,0.8l0.6,0.5l0.7,0.3l0.5,0.1l0.5-0.3l0.3-0.4L48.25,239.95 M49.05,241.75l0.4-0.4l0.3-0.6l0.1-0.8 M49.85,239.95
	l-0.1-0.9l-0.3-1l-0.5-0.9l-0.6-0.9l-0.7-0.7l-0.7-0.5l-0.8-0.2h-0.6l-0.4,0.1"/>
<path id="XMLID_35_" fill="none" stroke="#000000" stroke-width="0.5" stroke-linecap="round" stroke-linejoin="round" stroke-miterlimit="10" d="
	M5.85,103.65h-0.4l-0.5,0.1l-0.4,0.4l-0.5,0.6l-0.2,0.6l-0.1,0.6l0.1,0.5l0.2,0.3 M5.35,107.45l-0.2-0.1l-0.3-0.3v-0.5 M4.85,106.55
	v-0.6l0.3-0.6l0.4-0.6l0.5-0.4l0.5-0.1l0.4,0.1l0.2,0.1 M5.55,107.55L5.55,107.55l-0.3-0.3l-0.1-0.5 M5.15,106.75l0.1-0.6l0.3-0.6
	l0.4-0.6l0.5-0.3l0.4-0.2l0.4,0.1 M5.85,107.75l-0.2-0.1l-0.3-0.3l-0.1-0.5 M5.25,106.85l0.1-0.6l0.3-0.7l0.4-0.5l0.4-0.4l0.5-0.2
	l0.4,0.1l0.2,0.2 M4.35,106.95l-0.4-0.1l-0.3-0.4l-0.1-0.5l0.1-0.7l0.3-0.6l0.4-0.6l0.5-0.4l0.5-0.2l0.5,0.1l0.3,0.3 M4.05,101.05
	l-0.3-0.1h-0.6l-0.7,0.2 M2.45,101.15l-0.6,0.5l-0.6,0.7l-0.5,0.8l-0.3,0.9l-0.2,0.8l0.1,0.8l0.2,0.6l0.4,0.3 M5.35,107.45l-0.1,0.1
	l-0.7,0.4l-0.6,0.1l-0.6-0.1l-0.4-0.4l-0.3-0.5v-0.8l0.1-0.8l0.4-0.9l0.5-0.8l0.6-0.7l0.6-0.5 M4.85,102.55l0.7-0.3h0.6l0.5,0.3
	l0.3,0.5l0.2,0.6l-0.1,0.8 M5.95,107.85L5.95,107.85l-0.3-0.3v-0.5 M5.65,107.05v-0.6l0.3-0.7l0.4-0.5l0.5-0.4l0.5-0.2l0.4,0.1
	 M6.25,107.95l-0.2-0.1l-0.3-0.3l-0.1-0.5 M5.65,107.05l0.1-0.6l0.3-0.6l0.4-0.6l0.5-0.3l0.5-0.2l0.4,0.1l0.1,0.1 M6.45,108.05
	L6.45,108.05l-0.3-0.3l-0.1-0.5 M6.05,107.25l0.1-0.6l0.3-0.6l0.4-0.5l0.5-0.4l0.4-0.2l0.4,0.1 M6.65,108.25l-0.1-0.1l-0.3-0.3
	l-0.1-0.5 M6.15,107.35l0.1-0.6l0.3-0.6l0.4-0.6l0.4-0.4l0.5-0.1h0.4l0.2,0.2 M6.85,108.35L6.85,108.35l-0.3-0.3l-0.1-0.5
	 M6.45,107.55l0.1-0.6l0.3-0.6l0.4-0.6l0.5-0.4l0.5-0.1h0.4 M7.15,108.45h-0.2l-0.3-0.4l-0.1-0.5 M6.55,107.55l0.1-0.6l0.3-0.6
	l0.4-0.5l0.5-0.4l0.5-0.2l0.4,0.1l0.1,0.1 M7.35,108.65L7.35,108.65l-0.3-0.3l-0.1-0.5 M6.95,107.85l0.1-0.7l0.3-0.6l0.4-0.5
	l0.4-0.4l0.5-0.2l0.4,0.1 M7.55,108.75l-0.2-0.1l-0.2-0.3l-0.1-0.5 M7.05,107.85l0.1-0.6l0.2-0.6l0.5-0.6l0.4-0.4l0.5-0.1h0.4
	l0.2,0.2 M7.75,108.85L7.75,108.85l-0.3-0.3l-0.1-0.5 M7.35,108.05l0.1-0.6l0.3-0.6l0.4-0.6l0.5-0.4l0.5-0.1l0.4,0.1 M8.05,108.95
	h-0.2l-0.3-0.3l-0.1-0.5 M7.45,108.15l0.1-0.6l0.3-0.7l0.4-0.5l0.5-0.4l0.5-0.2l0.4,0.1l0.1,0.1 M8.15,109.15L8.15,109.15l-0.2-0.3
	l-0.1-0.5 M7.85,108.35l0.1-0.6l0.2-0.7l0.5-0.5l0.4-0.4l0.5-0.2l0.4,0.1 M8.45,109.25l-0.2-0.1l-0.2-0.3l-0.1-0.5 M7.95,108.35
	l0.1-0.6l0.2-0.6l0.4-0.6l0.5-0.4l0.5-0.1l0.4,0.1l0.2,0.1 M8.65,109.35L8.65,109.35l-0.3-0.3l-0.1-0.5 M8.25,108.55l0.1-0.6
	l0.3-0.6l0.4-0.6l0.5-0.3l0.5-0.2l0.4,0.1 M8.95,109.55l-0.2-0.1l-0.3-0.3l-0.1-0.5 M8.35,108.65l0.1-0.6l0.3-0.7l0.4-0.5l0.5-0.4
	l0.4-0.2l0.4,0.1l0.2,0.1 M9.05,109.65L9.05,109.65l-0.2-0.3l-0.1-0.5 M8.75,108.85l0.1-0.6l0.2-0.7l0.4-0.5l0.5-0.4l0.5-0.2
	l0.4,0.1 M9.35,109.75l-0.2-0.1l-0.2-0.3l-0.1-0.5 M8.85,108.85l0.1-0.6l0.2-0.6l0.4-0.6l0.5-0.3l0.5-0.2l0.4,0.1l0.2,0.1
	 M9.55,109.85L9.55,109.85l-0.3-0.3l-0.1-0.5 M9.15,109.05l0.1-0.6l0.3-0.6l0.4-0.5l0.5-0.4l0.4-0.2l0.5,0.1 M9.85,110.05l-0.2-0.1
	l-0.3-0.3l-0.1-0.5 M9.25,109.15l0.1-0.6l0.3-0.6l0.4-0.6l0.5-0.4l0.4-0.1h0.4l0.2,0.2 M9.95,110.15L9.95,110.15l-0.2-0.3l-0.1-0.5
	 M9.65,109.35l0.1-0.6l0.2-0.6l0.4-0.6l0.5-0.4l0.5-0.1h0.4 M10.25,110.25h-0.2l-0.3-0.4l-0.1-0.5 M9.65,109.35l0.1-0.6l0.3-0.6
	l0.4-0.5l0.5-0.4l0.5-0.2l0.4,0.1l0.1,0.1 M10.45,110.45L10.45,110.45l-0.3-0.4l-0.1-0.5 M10.05,109.55l0.1-0.6l0.3-0.6l0.4-0.5
	l0.5-0.4l0.4-0.2l0.4,0.1 M10.75,110.55l-0.2-0.1l-0.3-0.3l-0.1-0.5 M10.15,109.65l0.1-0.6l0.3-0.6l0.4-0.6l0.4-0.4l0.5-0.1h0.4
	l0.2,0.2 M10.85,110.65L10.85,110.65l-0.3-0.3l-0.1-0.5 M10.45,109.85l0.1-0.6l0.3-0.6l0.4-0.6l0.5-0.4l0.5-0.1h0.4 M11.15,110.75
	h-0.2l-0.3-0.3l-0.1-0.5 M10.55,109.95l0.1-0.7l0.3-0.6l0.4-0.5l0.5-0.4l0.5-0.2l0.4,0.1l0.1,0.1 M11.35,110.95L11.35,110.95
	l-0.3-0.3l-0.1-0.5 M10.95,110.15l0.1-0.6l0.3-0.7l0.4-0.5l0.4-0.4l0.5-0.2l0.4,0.1 M11.55,111.05l-0.2-0.1l-0.2-0.3l-0.1-0.5
	 M11.05,110.15l0.1-0.6l0.2-0.6l0.5-0.6l0.4-0.4l0.5-0.1l0.4,0.1l0.2,0.1 M11.75,111.15L11.75,111.15l-0.3-0.3l-0.1-0.5
	 M11.35,110.35l0.1-0.6l0.3-0.6l0.4-0.6l0.5-0.3l0.5-0.2l0.4,0.1 M12.05,111.35l-0.2-0.1l-0.3-0.3l-0.1-0.5 M11.45,110.45l0.1-0.6
	l0.3-0.7l0.4-0.5l0.5-0.4l0.5-0.2l0.4,0.1l0.1,0.1 M12.15,111.45L12.15,111.45l-0.2-0.3l-0.1-0.5 M11.85,110.65l0.1-0.6l0.2-0.7
	l0.5-0.5l0.4-0.4l0.5-0.2l0.4,0.1 M12.45,111.55l-0.2-0.1l-0.2-0.3l-0.1-0.5 M11.95,110.65l0.1-0.6l0.2-0.6l0.4-0.6l0.5-0.3l0.5-0.2
	l0.4,0.1l0.2,0.1 M12.65,111.65L12.65,111.65l-0.3-0.3l-0.1-0.5 M12.25,110.85l0.1-0.6l0.3-0.6l0.4-0.5l0.5-0.4l0.5-0.2l0.4,0.1
	 M12.95,111.85l-0.2-0.1l-0.3-0.3l-0.1-0.5 M12.35,110.95l0.1-0.6l0.3-0.6l0.4-0.6l0.5-0.4l0.4-0.2l0.5,0.1l0.1,0.2 M13.05,111.95
	L13.05,111.95l-0.2-0.3l-0.1-0.5 M12.75,111.15l0.1-0.6l0.2-0.6l0.4-0.6l0.5-0.4l0.5-0.1h0.4 M13.35,112.05h-0.2l-0.2-0.4l-0.1-0.5
	 M12.85,111.15l0.1-0.6l0.2-0.6l0.4-0.5l0.5-0.4l0.5-0.2l0.4,0.1l0.2,0.1 M13.55,112.25L13.55,112.25l-0.3-0.4l-0.1-0.5
	 M13.15,111.35l0.1-0.6l0.3-0.6l0.4-0.5l0.5-0.4l0.4-0.2l0.5,0.1 M13.85,112.35l-0.2-0.1l-0.3-0.3l-0.1-0.5 M13.25,111.45l0.1-0.6
	l0.3-0.6l0.4-0.6l0.5-0.4l0.4-0.1h0.4l0.2,0.2 M13.95,112.45L13.95,112.45l-0.2-0.3l-0.1-0.5 M13.65,111.65l0.1-0.6l0.2-0.6l0.4-0.6
	l0.5-0.4l0.5-0.1h0.4 M14.25,112.55h-0.2l-0.3-0.3v-0.5 M13.75,111.75v-0.7l0.3-0.6l0.4-0.5l0.5-0.4l0.5-0.2l0.4,0.1l0.1,0.1
	 M14.45,112.75L14.45,112.75l-0.3-0.3l-0.1-0.5 M14.05,111.95l0.1-0.6l0.3-0.7l0.4-0.5l0.5-0.4l0.4-0.2l0.4,0.1 M14.75,112.85
	l-0.2-0.1l-0.3-0.3l-0.1-0.5 M14.15,111.95l0.1-0.6l0.3-0.6l0.4-0.6l0.4-0.4l0.5-0.1l0.4,0.1l0.2,0.1 M14.85,112.95L14.85,112.95
	l-0.3-0.3v-0.5 M14.55,112.15v-0.6l0.3-0.6l0.4-0.6l0.5-0.4l0.5-0.1l0.4,0.1 M15.15,113.15l-0.2-0.1l-0.3-0.3l-0.1-0.5
	 M14.55,112.25l0.1-0.6l0.3-0.7l0.4-0.5l0.5-0.4l0.5-0.2l0.4,0.1l0.1,0.1 M15.35,113.25L15.35,113.25l-0.3-0.3l-0.1-0.5
	 M14.95,112.45l0.1-0.6l0.3-0.7l0.4-0.5l0.4-0.4l0.5-0.2l0.4,0.1 M15.55,113.35l-0.1-0.1l-0.3-0.3l-0.1-0.5 M15.05,112.45l0.1-0.6
	l0.3-0.6l0.4-0.6l0.4-0.3l0.5-0.2l0.4,0.1l0.2,0.1 M15.75,113.45L15.75,113.45l-0.3-0.3l-0.1-0.5 M15.35,112.65l0.1-0.6l0.3-0.6
	l0.4-0.6l0.5-0.3l0.5-0.2l0.4,0.1 M16.05,113.65l-0.2-0.1l-0.3-0.3l-0.1-0.5 M15.45,112.75l0.1-0.6l0.3-0.7l0.4-0.5l0.5-0.4l0.5-0.2
	l0.4,0.1l0.1,0.2 M16.25,113.75L16.25,113.75l-0.3-0.3l-0.1-0.5 M15.85,112.95l0.1-0.6l0.3-0.6l0.4-0.6l0.4-0.4l0.5-0.1h0.4
	 M16.45,113.85h-0.2l-0.2-0.4l-0.1-0.5 M15.95,112.95l0.1-0.6l0.2-0.6l0.4-0.5l0.5-0.4l0.5-0.2l0.4,0.1l0.2,0.1 M16.65,114.05
	L16.65,114.05l-0.3-0.4l-0.1-0.5 M16.25,113.15l0.1-0.6l0.3-0.6l0.4-0.5l0.5-0.4l0.5-0.2l0.4,0.1 M16.95,114.15l-0.2-0.1l-0.3-0.3
	l-0.1-0.5 M16.35,113.25l0.1-0.6l0.3-0.6l0.4-0.6l0.5-0.4l0.5-0.1h0.4l0.1,0.2 M17.05,114.25L17.05,114.25l-0.2-0.3l-0.1-0.5
	 M16.75,113.45l0.1-0.6l0.2-0.6l0.4-0.6l0.5-0.4l0.5-0.1h0.4 M17.35,114.35h-0.2l-0.2-0.3l-0.1-0.5 M16.85,113.55l0.1-0.7l0.2-0.6
	l0.4-0.5l0.5-0.4l0.5-0.2l0.4,0.1l0.2,0.1 M17.55,114.55L17.55,114.55l-0.3-0.3l-0.1-0.5 M17.15,113.75l0.1-0.6l0.3-0.7l0.4-0.5
	l0.5-0.4l0.5-0.2l0.4,0.1 M17.85,114.65l-0.2-0.1l-0.3-0.3l-0.1-0.5 M17.25,113.75l0.1-0.6l0.3-0.6l0.4-0.6l0.5-0.4l0.4-0.1l0.4,0.1
	l0.2,0.1 M17.95,114.75L17.95,114.75l-0.2-0.3l-0.1-0.5 M17.65,113.95l0.1-0.6l0.2-0.6l0.4-0.6l0.5-0.4l0.5-0.1l0.4,0.1
	 M18.25,114.85h-0.2l-0.2-0.3l-0.1-0.5 M17.75,114.05l0.1-0.6l0.2-0.7l0.4-0.5l0.5-0.4l0.5-0.2l0.4,0.1l0.2,0.1 M18.45,115.05
	L18.45,115.05l-0.3-0.3l-0.1-0.5 M18.05,114.25l0.1-0.6l0.3-0.7l0.4-0.5l0.5-0.4l0.4-0.2l0.4,0.1 M18.75,115.15l-0.2-0.1l-0.3-0.3
	l-0.1-0.5 M18.15,114.25l0.1-0.6l0.3-0.6l0.4-0.6l0.5-0.3l0.4-0.2l0.4,0.1l0.2,0.1 M18.85,115.25L18.85,115.25l-0.2-0.3l-0.1-0.5
	 M18.55,114.45l0.1-0.6l0.2-0.6l0.4-0.6l0.5-0.3l0.5-0.2l0.4,0.1 M19.15,115.45l-0.2-0.1l-0.3-0.3l-0.1-0.5 M18.55,114.55l0.1-0.6
	l0.3-0.7l0.4-0.5l0.5-0.4l0.5-0.2l0.4,0.1l0.1,0.2 M19.35,115.55L19.35,115.55l-0.3-0.3l-0.1-0.5 M18.95,114.75l0.1-0.6l0.3-0.6
	l0.4-0.6l0.5-0.4l0.4-0.2l0.4,0.1 M19.65,115.65l-0.2-0.1l-0.3-0.3l-0.1-0.5 M19.05,114.75l0.1-0.6l0.3-0.6l0.4-0.5l0.4-0.4l0.5-0.2
	l0.4,0.1l0.2,0.1 M19.75,115.85L19.75,115.85l-0.3-0.4l-0.1-0.5 M19.35,114.95l0.1-0.6l0.3-0.6l0.4-0.5l0.5-0.4l0.5-0.2l0.4,0.1
	 M20.65,115.75L20.65,115.75l-0.5,0.1h-0.4l-0.2-0.4l-0.1-0.4l0.1-0.7l0.2-0.6l0.4-0.5l0.5-0.4 M20.65,112.85l0.5-0.2l0.4,0.1
	l0.3,0.3l0.1,0.5 M20.95,113.25l0.3-0.1l0.4,0.1l0.2,0.2l0.1,0.4l-0.1,0.5l-0.2,0.5l-0.4,0.4l-0.3,0.3l-0.4,0.2l-0.3-0.1l-0.3-0.3
	v-0.3v-0.5l0.3-0.5l0.3-0.5L20.95,113.25 M183.45,207.15l-0.4,0.3l-0.3,0.4l-0.2,0.5l-0.1,0.5 M184.65,206.85l-0.4-0.1l-0.5,0.2
	l-0.5,0.4l-0.4,0.6l-0.3,0.6l-0.1,0.6l0.1,0.5l0.3,0.3 M184.75,207.05l-0.1-0.2h-0.4l-0.5,0.1l-0.5,0.4l-0.4,0.6l-0.3,0.6l-0.1,0.6
	 M182.45,209.15l0.1,0.5l0.3,0.3l0.2,0.1 M184.95,207.05h-0.4l-0.5,0.1l-0.4,0.4l-0.4,0.6l-0.3,0.6l-0.1,0.6 M182.85,209.35l0.1,0.5
	l0.3,0.3 M185.25,207.25l-0.2-0.1l-0.4-0.1l-0.5,0.2l-0.4,0.4l-0.5,0.5l-0.2,0.6l-0.1,0.7 M182.95,209.45l0.1,0.4l0.2,0.4h0.2
	 M185.45,207.35l-0.4-0.1l-0.5,0.2l-0.5,0.4l-0.4,0.5l-0.3,0.6l-0.1,0.7 M183.25,209.65l0.1,0.5l0.3,0.3 M185.65,207.55l-0.1-0.2
	h-0.4l-0.5,0.1l-0.5,0.4l-0.4,0.6l-0.3,0.6l-0.1,0.6 M183.35,209.65l0.1,0.5l0.3,0.3l0.2,0.1 M185.85,207.65l-0.4-0.1l-0.5,0.1
	l-0.4,0.4l-0.5,0.6l-0.2,0.6l-0.1,0.6 M183.75,209.85l0.1,0.5l0.2,0.3 M186.15,207.75l-0.2-0.1l-0.4-0.1l-0.5,0.2l-0.5,0.4l-0.4,0.5
	l-0.2,0.7l-0.1,0.6 M183.85,209.95l0.1,0.5l0.2,0.3h0.2 M186.35,207.85l-0.4-0.1l-0.5,0.2l-0.5,0.4l-0.4,0.5l-0.3,0.7l-0.1,0.6
	 M184.15,210.15l0.1,0.5l0.3,0.3 M186.55,208.05l-0.1-0.1l-0.5-0.1l-0.4,0.2l-0.5,0.3l-0.4,0.6l-0.3,0.6l-0.1,0.6 M184.25,210.15
	l0.1,0.5l0.3,0.3l0.2,0.1 M186.75,208.15l-0.4-0.1l-0.5,0.2l-0.5,0.3l-0.4,0.6l-0.2,0.6l-0.1,0.6 M184.65,210.35l0.1,0.5l0.2,0.3
	 M187.05,208.35l-0.2-0.2l-0.4-0.1l-0.5,0.2l-0.5,0.4l-0.4,0.5l-0.2,0.7l-0.1,0.6 M184.75,210.45l0.1,0.5l0.2,0.3l0.2,0.1
	 M187.25,208.35l-0.5-0.1l-0.4,0.2l-0.5,0.4l-0.4,0.5l-0.3,0.7l-0.1,0.6 M185.05,210.65l0.1,0.5l0.3,0.3 M187.45,208.55l-0.2-0.1
	l-0.4-0.1l-0.4,0.2l-0.5,0.4l-0.4,0.5l-0.3,0.6l-0.1,0.6 M185.15,210.65l0.1,0.5l0.3,0.3l0.2,0.1 M187.65,208.65l-0.4-0.1l-0.5,0.2
	l-0.5,0.4l-0.4,0.5l-0.2,0.6l-0.1,0.6 M185.55,210.85l0.1,0.5l0.2,0.4 M187.85,208.85l-0.1-0.2h-0.4l-0.5,0.1l-0.5,0.4l-0.4,0.6
	l-0.3,0.6v0.6 M185.65,210.95v0.5l0.3,0.3l0.2,0.1 M188.05,208.85h-0.4l-0.4,0.1l-0.5,0.4l-0.4,0.6l-0.3,0.6l-0.1,0.6
	 M185.95,211.15l0.1,0.5l0.3,0.3 M188.35,209.05l-0.2-0.1l-0.4-0.1l-0.5,0.2l-0.4,0.4l-0.4,0.5l-0.3,0.6l-0.1,0.6 M186.05,211.15
	l0.1,0.5l0.3,0.4h0.2 M188.55,209.15l-0.4-0.1l-0.5,0.2l-0.5,0.4l-0.4,0.5l-0.3,0.6v0.7 M186.45,211.45v0.5l0.3,0.3 M188.75,209.35
	l-0.1-0.2h-0.4l-0.5,0.1l-0.5,0.4l-0.4,0.6l-0.3,0.6l-0.1,0.6 M186.45,211.45l0.1,0.5l0.3,0.3l0.2,0.1 M188.95,209.45l-0.4-0.1
	l-0.5,0.1l-0.4,0.4l-0.4,0.6l-0.3,0.6l-0.1,0.6 M186.85,211.65l0.1,0.5l0.3,0.3 M189.25,209.55l-0.2-0.1l-0.4-0.1l-0.5,0.2l-0.4,0.4
	l-0.4,0.5l-0.3,0.7l-0.1,0.6 M186.95,211.75l0.1,0.5l0.3,0.3h0.1 M189.45,209.65l-0.4-0.1l-0.5,0.2l-0.5,0.4l-0.4,0.5l-0.3,0.7
	l-0.1,0.6 M187.25,211.95l0.1,0.5l0.3,0.3 M189.65,209.85l-0.1-0.1l-0.4-0.1l-0.5,0.1l-0.5,0.4l-0.4,0.6l-0.3,0.6l-0.1,0.6
	 M187.35,211.95l0.1,0.5l0.3,0.3l0.2,0.1 M189.85,209.95l-0.4-0.1l-0.5,0.2l-0.4,0.3l-0.4,0.6l-0.3,0.6l-0.1,0.6 M187.75,212.15
	l0.1,0.5l0.3,0.3 M190.15,210.15l-0.2-0.2l-0.4-0.1l-0.5,0.2l-0.5,0.4l-0.4,0.5l-0.2,0.7l-0.1,0.6 M187.85,212.25l0.1,0.5l0.2,0.3
	l0.2,0.1 M190.35,210.15l-0.4-0.1l-0.5,0.2l-0.5,0.4l-0.4,0.5l-0.3,0.7l-0.1,0.6 M188.15,212.45l0.1,0.5l0.3,0.3 M190.55,210.35
	l-0.1-0.1l-0.4-0.1l-0.5,0.2l-0.5,0.3l-0.4,0.6l-0.3,0.6l-0.1,0.6 M188.25,212.45l0.1,0.5l0.3,0.3l0.2,0.1 M190.75,210.45l-0.4-0.1
	l-0.5,0.2l-0.5,0.4l-0.4,0.5l-0.2,0.6l-0.1,0.6 M188.65,212.65l0.1,0.5l0.2,0.3 M191.05,210.65l-0.2-0.2h-0.4l-0.5,0.1l-0.5,0.4
	l-0.4,0.6l-0.2,0.6l-0.1,0.6 M188.75,212.75l0.1,0.5l0.2,0.3l0.2,0.1 M191.25,210.65h-0.4l-0.5,0.1l-0.5,0.4l-0.4,0.6l-0.3,0.6
	l-0.1,0.6 M189.05,212.95l0.1,0.5l0.3,0.3 M191.45,210.85l-0.2-0.1l-0.4-0.1l-0.4,0.2l-0.5,0.4l-0.4,0.5l-0.3,0.6l-0.1,0.6
	 M189.15,212.95l0.1,0.5l0.3,0.4h0.2 M191.65,210.95l-0.4-0.1l-0.5,0.2l-0.5,0.4l-0.4,0.5l-0.2,0.6l-0.1,0.7 M189.55,213.25l0.1,0.4
	l0.2,0.4 M191.95,211.15l-0.2-0.2h-0.4l-0.5,0.1l-0.5,0.4l-0.4,0.6l-0.3,0.6v0.6 M189.65,213.25v0.5l0.3,0.3l0.2,0.1 M192.05,211.25
	l-0.4-0.1l-0.4,0.1l-0.5,0.4l-0.4,0.6l-0.3,0.6l-0.1,0.6 M189.95,213.45l0.1,0.5l0.3,0.3 M192.35,211.35l-0.2-0.1l-0.4-0.1l-0.4,0.2
	l-0.5,0.4l-0.4,0.5l-0.3,0.7l-0.1,0.6 M190.05,213.55l0.1,0.5l0.3,0.3h0.2 M192.55,211.45l-0.4-0.1l-0.5,0.2l-0.5,0.4l-0.4,0.5
	l-0.2,0.7l-0.1,0.6 M190.45,213.75l0.1,0.5l0.2,0.3 M192.75,211.65l-0.1-0.1l-0.4-0.1l-0.5,0.1l-0.5,0.4l-0.4,0.6l-0.3,0.6l-0.1,0.6
	 M190.45,213.75l0.1,0.5l0.3,0.3l0.2,0.1 M192.95,211.75l-0.4-0.1l-0.4,0.2l-0.5,0.3l-0.4,0.6l-0.3,0.6l-0.1,0.6 M190.85,213.95
	l0.1,0.5l0.3,0.3 M193.25,211.85l-0.2-0.1l-0.4-0.1l-0.5,0.2l-0.4,0.4l-0.4,0.5l-0.3,0.7l-0.1,0.6 M190.95,214.05l0.1,0.5l0.3,0.3
	l0.2,0.1 M193.45,211.95l-0.4-0.1l-0.5,0.2l-0.5,0.4l-0.4,0.5l-0.3,0.7l-0.1,0.6 M191.25,214.25l0.1,0.5l0.3,0.3 M193.65,212.15
	l-0.1-0.1l-0.4-0.1l-0.5,0.2l-0.5,0.3l-0.4,0.6l-0.3,0.6l-0.1,0.6 M191.35,214.25l0.1,0.5l0.3,0.3l0.2,0.1 M193.85,212.25l-0.4-0.1
	l-0.5,0.2l-0.4,0.4l-0.4,0.5l-0.3,0.6l-0.1,0.6 M191.75,214.45l0.1,0.5l0.3,0.3 M194.15,212.45l-0.2-0.2h-0.4l-0.5,0.1l-0.4,0.4
	l-0.5,0.6l-0.2,0.6l-0.1,0.6 M191.85,214.55l0.1,0.5l0.2,0.3l0.2,0.1 M194.35,212.45h-0.4l-0.5,0.1l-0.5,0.4l-0.4,0.6l-0.3,0.6
	l-0.1,0.6 M192.15,214.75l0.1,0.5l0.3,0.3 M194.55,212.65l-0.1-0.1l-0.4-0.1l-0.5,0.2l-0.5,0.4l-0.4,0.5l-0.3,0.6l-0.1,0.6
	 M192.25,214.75l0.1,0.5l0.3,0.4h0.2 M194.75,212.75l-0.4-0.1l-0.5,0.2l-0.4,0.4l-0.5,0.5l-0.2,0.6l-0.1,0.6 M192.65,214.95l0.1,0.5
	l0.2,0.4 M195.05,212.95l-0.2-0.2h-0.4l-0.5,0.1l-0.5,0.4l-0.4,0.6l-0.2,0.6l-0.1,0.6 M192.75,215.05l0.1,0.5l0.2,0.3l0.2,0.1
	 M195.25,212.95h-0.4l-0.5,0.1l-0.5,0.4l-0.4,0.6l-0.3,0.6l-0.1,0.6 M193.05,215.25l0.1,0.5l0.3,0.3 M195.45,213.15l-0.1-0.1
	l-0.5-0.1l-0.4,0.2l-0.5,0.4l-0.4,0.5l-0.3,0.6l-0.1,0.7 M193.15,215.35l0.1,0.5l0.3,0.3h0.2 M195.65,213.25l-0.4-0.1l-0.5,0.2
	l-0.5,0.4l-0.4,0.5l-0.2,0.7l-0.1,0.6 M193.55,215.55l0.1,0.5l0.2,0.3 M195.95,213.45l-0.2-0.1l-0.4-0.1l-0.5,0.1l-0.5,0.4l-0.4,0.6
	l-0.2,0.6l-0.1,0.6 M193.65,215.55l0.1,0.5l0.2,0.3l0.2,0.1 M196.15,213.55l-0.5-0.1l-0.4,0.2l-0.5,0.3l-0.4,0.6l-0.3,0.6l-0.1,0.6
	 M193.95,215.75l0.1,0.5l0.3,0.3 M196.35,213.65l-0.2-0.1l-0.4-0.1l-0.4,0.2l-0.5,0.4l-0.4,0.5l-0.3,0.7l-0.1,0.6 M194.05,215.85
	l0.1,0.5l0.3,0.3l0.2,0.1 M196.55,213.75l-0.4-0.1l-0.5,0.2l-0.5,0.4l-0.4,0.5l-0.2,0.7l-0.1,0.6 M194.45,216.05l0.1,0.5l0.2,0.3
	 M196.75,213.95l-0.1-0.1l-0.4-0.1l-0.5,0.2l-0.5,0.3l-0.4,0.6l-0.3,0.6l-0.1,0.6 M194.45,216.05l0.1,0.5l0.3,0.3l0.2,0.1
	 M196.95,214.05l-0.4-0.1l-0.4,0.2l-0.5,0.4l-0.4,0.5l-0.3,0.6l-0.1,0.6 M194.85,216.25l0.1,0.5l0.3,0.3 M197.25,214.25l-0.2-0.2
	l-0.4-0.1l-0.5,0.2l-0.4,0.4l-0.4,0.6l-0.3,0.6l-0.1,0.6 M194.95,216.35l0.1,0.5l0.3,0.3l0.2,0.1 M197.45,214.25h-0.4l-0.5,0.1
	l-0.5,0.4l-0.4,0.6l-0.3,0.6l-0.1,0.6 M195.25,216.55l0.1,0.5l0.3,0.3 M197.65,214.45l-0.1-0.1l-0.4-0.1l-0.5,0.2l-0.5,0.4l-0.4,0.5
	l-0.3,0.6l-0.1,0.6 M195.35,216.55l0.1,0.5l0.3,0.4h0.2 M197.85,214.55l-0.4-0.1l-0.5,0.2l-0.4,0.4l-0.4,0.5l-0.3,0.6l-0.1,0.6
	 M195.75,216.75l0.1,0.5l0.3,0.4 M198.15,214.75l-0.2-0.2h-0.4l-0.5,0.1l-0.4,0.4l-0.4,0.6l-0.3,0.6l-0.1,0.6 M195.85,216.85
	l0.1,0.5l0.3,0.3l0.1,0.1 M198.35,214.75h-0.4l-0.5,0.1l-0.5,0.4l-0.4,0.6l-0.3,0.6l-0.1,0.6 M196.15,217.05l0.1,0.5l0.3,0.3
	 M198.55,214.95l-0.1-0.1l-0.4-0.1l-0.5,0.2l-0.5,0.4l-0.4,0.5l-0.3,0.6l-0.1,0.7 M196.25,217.15l0.1,0.5l0.3,0.3h0.2
	 M198.75,215.05l-0.4-0.1l-0.5,0.2l-0.4,0.4l-0.4,0.5l-0.3,0.7l-0.1,0.6 M196.65,217.35l0.1,0.5l0.3,0.3 M199.05,215.25l-0.2-0.1
	l-0.4-0.1l-0.5,0.1l-0.5,0.4l-0.4,0.6l-0.2,0.6l-0.1,0.6 M196.75,217.35l0.1,0.5l0.2,0.3l0.3,0.1 M202.05,217.75l-0.3,0.7
	 M201.75,218.45l-0.2,0.7 M201.55,219.15l1.1,0.7 M200.95,219.55l0.6-0.4 M200.85,219.55h0.1 M199.05,215.25h-0.2l-0.5,0.1l-0.5,0.4
	l-0.4,0.6l-0.3,0.6l-0.1,0.6 M197.05,217.55l0.1,0.5l0.2,0.2 M202.15,217.65l1,0.6 M200.95,219.55l0.1-0.1l0.1-0.1l0.2-0.2l0.1-0.1
	l0.1-0.1l0.1-0.2l0.1-0.2v-0.1 M201.75,218.45l0.1-0.2v-0.2l0.1-0.1v-0.1 M200.85,219.55h0.1 M203.15,218.25l-0.5,1.6
	 M201.45,220.45l1.2-0.6 M201.45,220.45l-0.6-0.8 M200.85,219.65l0.6-1.5 M202.65,217.45l-1.2,0.7 M203.15,218.25l-0.5-0.8
	 M201.15,214.75h-0.1l-0.6-0.1l-0.6,0.1l-0.7,0.4l-0.6,0.6l-0.6,0.7l-0.4,0.9l-0.2,0.9l-0.1,0.8l0.2,0.6l0.3,0.5l0.2,0.1
	 M201.85,221.55l-0.6,0.2h-0.6l-0.4-0.1 M203.25,216.25h-0.6l-0.6,0.3l-0.7,0.5l-0.6,0.7l-0.5,0.8l-0.3,0.8l-0.1,0.8l0.1,0.7
	l0.3,0.5 M134.15,223.65l0.2,0.1l0.2,0.1l0.4,0.4l0.3,0.3l0.4,0.7l0.4,0.7l0.1,0.3 M124.75,221.35L124.75,221.35l-0.2-0.2l-0.3-0.3
	 M131.05,222.15L131.05,222.15l0.7-0.7l1-0.7l1-0.3h0.7l0.7,0.2 M135.15,220.65l0.6,0.4l0.7,0.5l0.5,0.5 M136.95,222.05l0.3,0.2
	 M133.55,214.85h-0.1l-0.1,0.1v0.2v0.2l0.2,0.3l0.1,0.3l0.2,0.2l0.2,0.3 M134.05,216.45l2.1,2.2 M157.15,229.85l0.4,1.4l0.2,1.2
	l-0.1,1.2l-0.2,1l-0.5,0.8l-0.6,0.6l-0.1,0.1 M133.75,214.75l1.2-0.1 M119.35,216.45l-0.1-0.7l-0.3-0.7l-0.5-0.7l-0.5-0.6l-0.6-0.3
	l-0.6-0.1l-0.4,0.1l-0.3,0.5l-0.1,0.6l0.1,0.7l0.3,0.8l0.4,0.7l0.6,0.5l0.6,0.4l0.5,0.1l0.5-0.2l0.3-0.4L119.35,216.45
	 M115.25,211.65l-0.5,0.4 M113.05,210.55l-0.3,0.6l-0.1,1.1v1.2l0.3,1.3l0.4,1.3l0.6,1.3l0.8,1.2l0.9,1.1l1,0.9l1,0.8
	 M147.65,238.65l-30-17.3 M152.15,232.75l0.4,1.4l0.1,1.2v1.2l-0.2,1l-0.5,0.8l-0.6,0.6l-0.8,0.3l-0.9,0.1l-0.9-0.2l-1.1-0.5
	 M144.85,229.45l0.4-0.5 M145.95,231.85l0.1-0.6l0.3-0.4l0.5-0.2l0.5,0.1l0.6,0.4l0.6,0.5l0.4,0.7l0.3,0.8l0.1,0.7l-0.1,0.6
	l-0.3,0.4l-0.4,0.2l-0.6-0.1l-0.6-0.3l-0.5-0.6l-0.5-0.7l-0.3-0.7L145.95,231.85 M133.75,210.95l-0.4,0.1l-0.4,0.2l-0.6,0.1
	 M132.35,211.35l-0.4,0.1h-0.4h-0.8l-1.1-0.1l-1.6-0.1h-0.2 M133.85,210.95h-0.1 M136.95,212.05l3-1.7 M140.25,215.25l2-1.1
	 M154.35,214.95l0.1,1.8l0.1,1.8l0.2,1.8l0.3,1.9l0.4,1.9l0.5,1.9l0.6,1.9l0.6,1.9 M151.95,232.95l0.2-0.2 M154.35,209.15v5.8
	 M38.35,123.85l0.1-0.1l0.5-0.4l0.5-0.2l0.4,0.1l0.3,0.3l0.1,0.5l-0.1,0.7v0.1 M43.05,126.55v-9.3 M43.05,117.25v-0.1v-0.1v-0.2
	v-0.1v-0.1v-0.2v-0.1v-0.1v-0.1 M31.85,134.75l-0.5-0.4l-0.4-0.4l-0.3-0.5l-0.1-0.5 M34.55,121.55h-0.1h-0.1l-0.2-0.1h-0.1h-0.2
	 M52.25,121.45h-0.1h-0.2l-0.2,0.1h-0.1h-0.1 M43.05,126.75v-0.1v-0.1 M125.75,204.35L125.75,204.35l0.2-0.2l0.4-0.4l0.5-0.4
	l0.5-0.4l0.5-0.2l0.5-0.1l0.4-0.1l0.4,0.1h0.3l0.3,0.2l0.3,0.1 M130.05,202.95l0.7,0.6l0.7,0.6l0.6,0.6 M130.85,200.75l-0.8-0.9
	l-1-0.8l-0.9-0.6l-1-0.5l-1-0.3 M126.15,197.65l-0.9-0.2h-0.2l-0.1-0.2l-0.1-0.1v-0.1l0.1-0.2l0.3-0.3l0.5-0.3 M125.75,196.25
	l0.7-0.4l0.8-0.4l0.7-0.4l0.6-0.3l0.5-0.3 M126.55,191.05l-0.1,0.1h-0.2h-0.2h-0.2h-0.3h-0.3h-0.5h-0.4l-0.7-0.1h-0.7l-0.6-0.1h-0.5
	 M103.85,123.05v-0.3 M126.55,191.05l1.4-0.8 M127.85,190.35l-0.4,0.2l-0.4,0.2l-0.5,0.3 M120.45,215.35l-0.4-0.7l-0.6-0.6l-0.5-0.6
	l-0.6-0.6l-0.6-0.4l-0.6-0.4l-0.6-0.3l-0.5-0.2h-0.4h-0.4l-0.3,0.2l-0.2,0.3 M120.65,215.45l-0.2-0.1 M112.95,210.45l0.4-1.6
	l0.1-1.8l-0.1-2l-0.1-0.8 M114.55,211.95l-1.6-1.5 M114.75,212.05l-0.2-0.1 M154.45,205.55v0.7l-0.1,2.9 M136.95,212.05l-0.9-3.2
	 M136.05,208.85h2.3 M138.35,208.85l3.3,3.2 M141.65,212.05l1,3.2 M142.65,215.25h-2.4 M140.25,215.25l-3.3-3.2 M137.95,195.95v0.4
	l0.1,1.4 M138.05,197.75v0.1l-0.1,0.2h-0.1l-0.1,0.1h-0.1l-0.2-0.1l-0.1-0.1l-0.2-0.1l-0.2-0.1l-0.2-0.2l-0.2-0.2l-0.1-0.2l-0.2-0.2
	l-0.1-0.2l-0.1-0.2l-0.1-0.2 M135.45,194.55l0.5,1.8 M144.85,229.45l0.2-0.3l0.3-0.2l0.3-0.1l0.5,0.1l0.5,0.2l0.6,0.2l0.5,0.4
	l0.6,0.5l0.6,0.5l0.6,0.6l0.5,0.7l0.5,0.7 M150.55,232.75l0.2,0.1 M150.75,232.85l1.2,0.1 M151.95,232.95l-1.6-2.8l-1.5-2.7
	l-1.2-2.6l-1.1-2.5l-0.8-2.4 M145.75,219.95l-1.4-5 M144.35,214.95l-1.1-4l-0.8-3.9l-0.6-3.7l-0.3-3.5l-0.1-1.8 M128.05,190.25
	l-0.2,0.1 M131.15,193.45l-2.1,1 M133.05,195.15v-0.2l-0.1-0.2l-0.1-0.2l-0.2-0.2l-0.2-0.2l-0.1-0.2l-0.2-0.2l-0.2-0.1l-0.2-0.1
	l-0.2-0.1l-0.1-0.1h-0.1l-0.2,0.1 M133.05,195.15l3.1,10.3 M136.15,205.45v0.2v0.1v0.1l-0.1,0.1l-0.1,0.1h-0.1l-0.1-0.1h-0.2
	l-0.2-0.1l-0.2-0.1l-0.1-0.2l-0.2-0.2l-0.2-0.2 M134.65,205.15l-3.8-4.4 M132.45,205.25l-0.4-0.5 M134.15,208.45l-0.1-0.6l-0.3-0.6
	l-0.3-0.7l-0.5-0.6l-0.5-0.7 M134.15,208.45v0.2l0.1,0.3l0.1,0.3 M133.85,210.95l0.3-0.1l0.2-0.3l0.1-0.3v-0.5l-0.1-0.5
	 M134.95,214.65l2-0.3 M138.05,214.85l-0.2-0.1l-0.2-0.2l-0.2-0.1l-0.2-0.1h-0.1h-0.2 M138.05,214.85l0.3,0.3l0.2,0.2l0.3,0.2
	 M139.65,216.75l-0.1-0.2l-0.1-0.2l-0.1-0.2l-0.2-0.2l-0.1-0.2l-0.2-0.2 M139.65,216.75l1,2.5l1,2.5l1.2,2.5 M141.55,224.35l0.2,0.2
	l0.2,0.2l0.2,0.1l0.2,0.1l0.1,0.1h0.2h0.1l0.1-0.1h0.1v-0.2v-0.1l-0.1-0.2v-0.2 M136.15,218.65l5.4,5.7 M141.15,227.25l0.2,0.1v-0.2
	l-0.2-0.3l-0.5-0.6l-0.6-0.8l-0.8-0.9l-1-1.1l-1-1.2 M141.15,227.25l3.7,2.2 M92.95,173.85l31.3,47 M92.95,173.85v-0.1l-0.1-0.1
	l-0.1-0.1v-0.1v-0.1v-0.1h-0.1 M92.45,172.35l0.2,0.9 M97.95,176.75v-0.1l-0.1-0.1v-0.1l-0.1-0.1v-0.1v-0.1l-0.1-0.1 M97.95,176.75
	l31.3,47 M131.95,224.05l-0.4,0.2l-0.4,0.1l-0.4,0.1h-0.4l-0.3-0.1l-0.3-0.1l-0.2-0.2l-0.3-0.3 M131.95,224.05l0.2-0.1
	 M134.15,223.65l-0.2-0.1h-0.2l-0.3-0.1l-0.2,0.1h-0.3l-0.2,0.1l-0.3,0.1l-0.3,0.2 M97.65,175.35v0.7 M173.95,163.25v0.3
	 M178.25,190.75l-0.2,1.4l-0.5,1.4l-0.8,1.3l-1,1.3l-1.4,1.1l-0.6,0.4 M156.85,192.15l0.4-0.2l0.4-0.2l0.3,0.1l0.2,0.3l0.1,0.4
	l-0.1,0.4 M161.35,194.75v-9.2 M161.35,184.35v0.1v0.2v0.1v0.1v0.2v0.1v0.1v0.2v0.1 M172.55,203.05l0.5-0.4l0.4-0.4l0.3-0.5v-0.5
	 M168.15,200.95l0.1-0.7l0.3-0.6l0.4-0.6l0.5-0.4l0.5-0.2l0.4,0.1l0.3,0.3l0.1,0.6l-0.1,0.6l-0.3,0.6l-0.4,0.6l-0.5,0.4l-0.5,0.2
	l-0.4-0.1l-0.3-0.3L168.15,200.95 M169.85,189.85L169.85,189.85l0.2-0.1h0.2h0.1l0.2-0.1 M161.35,194.75L161.35,194.75v0.1v0.1v0.1
	 M152.15,189.65l0.1,0.1h0.2h0.2l0.1,0.1h0.1 M31.85,134.75l57.7,33.3 M89.55,168.05l0.5,0.3l0.5,0.4l0.4,0.5l0.4,0.6l0.4,0.6
	l0.3,0.6l0.3,0.6l0.1,0.7 M100.55,174.45l-0.4-0.3l-0.5-0.1h-0.5h-0.4l-0.4,0.2l-0.3,0.3l-0.2,0.3l-0.2,0.5 M158.35,207.75
	l-57.8-33.3 M172.55,203.05l-8.2,4.7 M40.05,114.95l-8.2,4.7 M31.85,119.65l-0.5,0.4l-0.4,0.4l-0.3,0.5l-0.1,0.5l0.1,0.5l0.3,0.4
	l0.4,0.4l0.5,0.4 M31.85,123.15l126.5,73 M172.55,191.45l-8.2,4.7 M172.55,187.95l0.5,0.4l0.4,0.4l0.3,0.5v0.4v0.5l-0.3,0.5
	l-0.4,0.4l-0.5,0.4 M172.55,187.95l-6.9-4 M165.65,174.65l-1.3,0.9l-1,1l-0.7,1.1l-0.3,1.1v1.1l0.3,1.2l0.7,1l1,1l1.3,0.9
	 M172.75,170.55l-7.1,4.1 M172.75,155.35l1.6,1l1.4,1.2l1,1.3l0.8,1.3l0.5,1.4l0.2,1.4l-0.2,1.4l-0.5,1.4l-0.8,1.3l-1,1.3l-1.4,1.2
	l-1.6,1 M102.55,114.85l70.2,40.5 M102.55,114.85l-1.8-1l-2-0.7l-2.2-0.7l-2.3-0.4l-2.4-0.3l-2.5-0.1l-2.4,0.1l-2.4,0.3l-2.3,0.4
	l-2.2,0.7l-2,0.7l-1.9,1 M76.15,114.85l-7.1,4.1 M69.05,118.95l-1.5,0.7l-1.7,0.6l-1.9,0.4l-1.9,0.2h-2l-2-0.2l-1.8-0.4l-1.7-0.6
	l-1.5-0.7 M46.05,114.95l7,4 M46.05,114.95l-0.6-0.3l-0.8-0.2l-0.8-0.2h-0.8h-0.8l-0.8,0.2l-0.7,0.2l-0.7,0.3 M158.35,207.75
	l0.6,0.3l0.7,0.2l0.8,0.2h0.9h0.8l0.8-0.2l0.7-0.2l0.7-0.3 M164.35,196.15l-0.7,0.3l-0.7,0.3l-0.8,0.1h-0.8h-0.9l-0.8-0.1l-0.7-0.3
	l-0.6-0.3 M48.15,59.35l-0.1-0.5l-0.2-0.3l-0.4-0.1l-0.5,0.2l-0.4,0.4l-0.4,0.5l-0.3,0.6l-0.1,0.6l0.1,0.5l0.3,0.3h0.4l0.4-0.1
	l0.5-0.4l0.4-0.5l0.2-0.6L48.15,59.35 M48.15,53.55l-0.1-0.5l-0.2-0.3l-0.4-0.1l-0.5,0.2l-0.4,0.4l-0.4,0.5l-0.3,0.6l-0.1,0.6
	l0.1,0.5l0.3,0.3h0.4l0.4-0.1l0.5-0.4l0.4-0.5l0.2-0.6L48.15,53.55 M48.15,47.75l-0.1-0.5l-0.2-0.3h-0.4l-0.5,0.1l-0.4,0.4l-0.4,0.5
	l-0.3,0.6l-0.1,0.6l0.1,0.5l0.3,0.3l0.4,0.1l0.4-0.2l0.5-0.4l0.4-0.5l0.2-0.6L48.15,47.75 M48.15,41.95l-0.1-0.5l-0.2-0.3h-0.4
	l-0.5,0.1l-0.4,0.4l-0.4,0.5l-0.3,0.6l-0.1,0.6l0.1,0.5l0.3,0.3l0.4,0.1l0.4-0.2l0.5-0.4l0.4-0.5l0.2-0.6L48.15,41.95 M48.15,36.15
	l-0.1-0.4l-0.2-0.3l-0.4-0.1l-0.5,0.1l-0.4,0.4l-0.4,0.5l-0.3,0.6l-0.1,0.6l0.1,0.5l0.3,0.3l0.4,0.1l0.4-0.2l0.5-0.4l0.4-0.5
	l0.2-0.6L48.15,36.15 M45.65,19.35v-0.1v-0.2l0.1-0.2l0.2-0.3l0.1-0.2l0.2-0.2l0.2-0.2l0.2-0.2l0.3-0.2l0.1-0.1h0.2l0.2-0.1h0.1
	l0.2,0.1h0.1v0.2l0.1,0.1v0.2v0.2 M47.95,18.15v0.1 M44.55,31.05h-0.4h-0.4l-0.4,0.1h-0.4h-0.4l-0.4-0.1h-0.4h-0.4 M46.95,30.15
	l-0.2,0.2l-0.3,0.1l-0.3,0.1l-0.3,0.1l-0.3,0.1l-0.3,0.1l-0.4,0.1l-0.3,0.1 M164.25,129.15l0.1-0.6l0.2-0.6l0.4-0.6l0.5-0.3l0.4-0.2
	l0.4,0.1l0.3,0.3l0.1,0.5l-0.1,0.6l-0.3,0.6l-0.4,0.5l-0.4,0.4l-0.5,0.1l-0.4-0.1l-0.2-0.3L164.25,129.15 M164.25,123.35l0.1-0.6
	l0.2-0.6l0.4-0.5l0.5-0.4l0.4-0.2l0.4,0.1l0.3,0.3l0.1,0.5l-0.1,0.6l-0.3,0.6l-0.4,0.5l-0.4,0.4l-0.5,0.1h-0.4l-0.2-0.3
	L164.25,123.35 M164.25,117.55l0.1-0.6l0.2-0.6l0.4-0.5l0.5-0.4l0.4-0.2l0.4,0.1l0.3,0.3l0.1,0.5l-0.1,0.6l-0.3,0.6l-0.4,0.5
	l-0.4,0.4l-0.5,0.1h-0.4l-0.2-0.3L164.25,117.55 M164.25,111.75l0.1-0.6l0.2-0.6l0.4-0.5l0.5-0.4l0.4-0.1h0.4l0.3,0.3l0.1,0.5
	l-0.1,0.6l-0.3,0.6l-0.4,0.5l-0.4,0.4l-0.5,0.2l-0.4-0.1l-0.2-0.3L164.25,111.75 M164.25,105.95l0.1-0.6l0.2-0.6l0.4-0.5l0.5-0.4
	l0.4-0.1h0.4l0.3,0.3l0.1,0.5l-0.1,0.6l-0.3,0.6l-0.4,0.5l-0.4,0.4l-0.5,0.2l-0.4-0.1l-0.2-0.3L164.25,105.95 M165.55,88.65
	l-0.1,0.1l-0.2,0.1h-0.2h-0.2h-0.2l-0.2-0.1l-0.2-0.2l-0.1-0.1l-0.1-0.2v-0.2v-0.3v-0.2l0.1-0.2l0.1-0.3l0.2-0.2l0.2-0.2l0.2-0.2
	l0.2-0.2l0.2-0.2l0.2-0.1l0.2-0.1l0.2-0.1h0.1h0.2l0.1,0.1l0.1,0.1v0.1l0.1,0.2v0.2v0.2 M162.95,99.35l-0.3,0.1h-0.4l-0.4,0.1h-0.4
	h-0.4l-0.4-0.1h-0.4l-0.4-0.1 M165.45,98.55l-0.3,0.1l-0.3,0.2l-0.2,0.1l-0.3,0.1l-0.4,0.1l-0.3,0.1l-0.3,0.1h-0.4 M55.45,24.75
	l0.1-0.4l0.2-0.4l0.2-0.3l0.3-0.2l0.3-0.2l0.3,0.1l0.2,0.2v0.3v0.4l-0.2,0.4l-0.3,0.3l-0.3,0.3l-0.3,0.1l-0.2-0.1l-0.2-0.2
	L55.45,24.75 M51.65,25.25v-0.4l-0.2-0.3l-0.3-0.1h-0.4l-0.4,0.1l-0.3,0.3l-0.3,0.4l-0.1,0.3l0.1,0.4l0.2,0.2l0.3,0.2h0.3l0.4-0.2
	l0.4-0.2l0.2-0.4L51.65,25.25 M152.85,76.95L152.85,76.95l-0.2-0.3 M152.65,76.65l0.1-0.4l0.2-0.4l0.3-0.3l0.4-0.2l0.4-0.1l0.3,0.1
	l0.2,0.2 M148.65,76.35h-0.2l-0.3,0.1l-0.3,0.2l-0.3,0.4l-0.2,0.3v0.4v0.3l0.2,0.2 M169.85,85.85L169.85,85.85 M174.65,90.55
	l-0.1,0.3l-0.1,0.4l-0.2,0.2l-0.1,0.2l-0.1,0.1l-0.3,0.3l-0.3,0.2l-0.4,0.3l-0.3,0.1l-0.6,0.3 M148.75,95.85l-0.1-0.3l-0.3-0.6
	l-0.1-0.6v-0.6v-0.1 M154.65,90.55l0.1-0.1h0.1h0.1l0.1,0.1v0.2 M155.05,90.75v0.5 M164.75,97.25l0.1-0.1l0.1-0.1l0.1-0.1h0.1
	l0.1-0.1l0.1-0.1 M165.35,96.75l0.1-0.1h0.1h0.1h0.1l0.1,0.1l0.1,0.1v0.2 M165.95,97.05v0.5 M165.95,97.55l0.1,0.8l0.3,0.6l0.4,0.3
	l0.6,0.1h0.3 M170.95,93.95v-0.1l0.1-0.1l0.1-0.2v-0.1l0.1-0.1l0.1-0.1h0.2 M171.55,93.25v-0.1h0.1h0.1l0.1-0.1h0.1l0.1-0.1h0.1
	 M155.75,99.95l-1.7-0.3l-1.6-0.5l-1.3-0.7l-1.2-1l-0.7-0.7l-0.5-0.9 M164.75,97.25l-1.1,0.7l-1.2,0.6l-1.4,0.6l-1.4,0.4l-1.4,0.3
	l-1.5,0.1h-1 M163.95,91.35l0.4-0.2l0.3-0.3l0.4-0.2l0.4-0.2l0.4-0.2l0.3-0.2l0.4-0.2l0.4-0.2 M155.75,86.85l-0.9,0.9l-0.6,1.2
	l0.1,1.3l0.8,1.1l1.3,0.8l1.6,0.5h1.8l1.9-0.3l1.7-0.7l0.5-0.3 M174.35,86.95L174.35,86.95 M172.15,90.35l0.6-0.3l0.4-0.3
	 M172.45,85.15l-0.2-0.2l-1.3-0.8l-1.6-0.7l-2.3-0.9 M155.75,83.35l-0.4,0.2l-0.9,0.5l-1,0.6l-0.9,0.6l-0.9,0.6l-0.9,0.6
	 M150.75,86.45l-0.3,0.3l-0.6,0.5l-0.4,0.5l-0.4,0.5l-0.2,0.3l-0.3,0.6l-0.2,0.6l-0.1,0.5v0.6v0.5l0.1,0.5l0.1,0.6l0.1,0.3l0.2,0.4
	 M148.75,93.15l0.8,1.1l1.1,1.1l1.3,0.8l1.5,0.6l2.3,0.4 M155.75,97.15l2.9-0.1l2.8-0.7l2.6-1.3l0.7-0.5 M172.15,90.35l-0.9,0.4
	l-1,0.4l-0.9,0.5l-0.9,0.5l-0.9,0.6l-1,0.6l-0.9,0.6l-0.9,0.6 M54.15,24.35l-0.1,0.1l-0.4,0.1 M56.15,22.15v0.2l-0.1,0.3l-0.1,0.2
	 M30.25,27.45l-0.2-0.6l-0.2-0.6l-0.1-0.6v-0.3v-0.1 M36.25,22.15l0.1-0.1h0.1h0.1v0.1v0.2 M36.55,22.35v0.5 M46.95,28.35l-0.1,0.1
	h-0.1l-0.1,0.1l-0.1,0.1l-0.1,0.1h-0.1l-0.1,0.1 M47.45,28.65v-0.1v-0.1l-0.1-0.1v-0.1h-0.1h-0.1l-0.1,0.1h-0.1 M47.45,29.15v-0.5
	 M50.65,30.15l-0.3,0.2l-0.7,0.5l-0.7,0.1l-0.6-0.1l-0.5-0.3l-0.3-0.6l-0.1-0.8 M52.45,26.25l-0.1,0.8 M52.45,25.75v0.5
	 M53.05,24.85h-0.1l-0.1,0.1l-0.1,0.1l-0.1,0.2l-0.1,0.1v0.1l-0.1,0.2v0.1 M53.65,24.55h-0.1v0.1h-0.1h-0.1l-0.1,0.1h-0.1l-0.1,0.1
	 M37.35,31.55l-1.7-0.3l-1.6-0.5l-1.4-0.7l-1.2-1l-1.2-1.6 M46.25,28.85l-1,0.7l-1.3,0.6l-1.3,0.6l-1.4,0.4l-1.5,0.3l-1.5,0.1h-0.9
	 M45.45,22.95l0.4-0.2l0.4-0.2l0.3-0.3h0.1 M37.25,18.45l-0.4,0.4l-0.5,0.5l-0.3,0.6l-0.2,0.6l-0.1,0.7l0.2,0.6l0.3,0.6l0.4,0.5
	l0.6,0.5l0.7,0.3l0.8,0.3l0.8,0.2l0.9,0.1l1-0.1l0.9-0.1l1-0.2l0.8-0.3l0.8-0.4l0.3-0.1l0.2-0.2 M50.05,19.45l-0.1-0.8l-0.7-0.9
	l-0.6-0.4 M32.25,18.15l-0.6,0.5l-0.5,0.5l-0.4,0.4l-0.2,0.3l-0.3,0.6l-0.2,0.6l-0.2,0.6v0.2l-0.1,0.3v0.5l0.1,0.6l0.1,0.5v0.3
	l0.3,0.7 M30.25,24.75l0.8,1.1l1.1,1.1l1.3,0.8l1.6,0.6l2.3,0.4 M37.35,28.75l2.8-0.1l2.8-0.7l2.6-1.2l0.7-0.5 M50.55,23.45l0.4-0.2
	l0.7-0.3 M46.25,26.25l1-0.7l0.9-0.6l0.5-0.3 M54.05,21.75l0.5-0.2l0.4-0.3l0.4-0.3l0.2-0.1l0.3-0.4l0.1-0.3l0.2-0.3v-0.3v-0.3
	l-0.1-0.3l-0.1-0.3l-0.2-0.2l-0.1-0.2 M55.65,18.25l-0.8-0.8l-1.1-0.9l-1.3-0.7l-1.5-0.8l-2.3-0.9 M32.25,18.15l0.9-0.7l0.9-0.6
	l1-0.6l0.4-0.3 M170.85,97.05l-0.5,0.6 M170.35,97.65l-0.4,0.6 M170.85,96.35L170.85,96.35 M170.85,97.05v-0.7 M170.85,97.05
	l1.1,0.6 M169.95,98.35l1,0.6 M170.85,96.35L170.85,96.35 M169.95,98.05L169.95,98.05l0.2-0.1l0.1-0.1l0.1-0.2 M170.35,97.65
	l0.1-0.1l0.1-0.2l0.1-0.2l0.1-0.1v-0.2l0.1-0.2v-0.1v-0.2 M170.95,96.25h1 M171.95,97.65v-1.4 M171.95,97.65l-1,1.3 M170.95,98.95
	l-1-0.1 M169.95,97.45v1.4 M170.95,96.25l-1,1.2 M170.05,93.35l-0.2-0.1h-0.6l-0.6,0.2l-0.7,0.4l-0.6,0.7l-0.6,0.8l-0.3,0.8
	l-0.2,0.9v0.8l0.2,0.6l0.3,0.4h0.1 M172.45,94.75l0.2,0.2l0.3,0.5l0.1,0.7 M172.15,94.85h-0.5l-0.7,0.3l-0.7,0.5l-0.6,0.7l-0.4,0.8
	l-0.3,0.8l-0.1,0.9l0.1,0.7l0.3,0.5 M35.15,15.55l-0.5-0.2l-0.6,0.1l-0.7,0.3l-0.6,0.6l-0.6,0.7l-0.4,0.8l-0.3,0.9l-0.1,0.1
	 M51.75,30.15L51.75,30.15l-0.5,0.2l-0.4-0.1l-0.3-0.3l-0.1-0.5 M50.45,29.45l0.1-0.6l0.3-0.6l0.4-0.6l0.5-0.3l0.5-0.2l0.4,0.1
	l0.2,0.3l0.1,0.5 M50.95,29.45l0.1-0.5l0.2-0.5l0.4-0.4l0.3-0.3l0.4-0.1h0.3l0.3,0.3v0.4v0.5l-0.3,0.5l-0.3,0.4l-0.4,0.3l-0.3,0.1
	h-0.4l-0.2-0.3L50.95,29.45 M92.85,275.55l-0.1-0.1l-1.9-0.8 M90.85,274.65h-0.7l-2,0.1 M85.35,275.55l-0.8,1.2 M88.15,274.75
	l-0.8,0.2l-2,0.6 M94.95,277.05l-2.1-1.5 M88.35,279.05l-0.4-0.1l-0.6-0.4l-0.3-0.5v-0.5l0.4-0.4l0.6-0.4l0.7-0.2 M88.75,276.55
	l0.9-0.1l0.8,0.2l0.7,0.3l0.4,0.4l0.2,0.5l-0.2,0.5l-0.5,0.4l-0.6,0.3 M86.55,277.55v-0.2l0.3-0.6l0.6-0.4l0.8-0.3l0.9-0.1h0.9
	l0.9,0.2l0.7,0.4l0.4,0.5l0.2,0.5 M84.55,276.75v0.2l-0.7,1.8 M93.45,282.85l0.2-0.2l0.2-0.3l0.1-0.3l0.2-0.4 M94.15,281.65l0.1-0.1
	l0.2-0.4l0.1-0.5l0.2-0.5l0.2-0.5 M94.95,277.05v2.6 M94.15,278.25l0.1-0.1l0.2-0.3l0.1-0.3l0.2-0.3l0.2-0.2 M93.45,280.25l0.2-0.6
	l0.2-0.5l0.1-0.4l0.2-0.5 M93.45,282.85l-0.7,0.3l-1,0.3l-1.1,0.2 M93.45,280.25v2.6 M93.45,280.25l-0.7-0.1h-1l-1.1,0.1
	 M90.65,283.65l-0.7,0.1h-2 M90.65,280.25l-0.4,0.1l-0.3,0.1l-1,0.3l-1,0.3 M90.15,279.15l0.8-0.3l0.7-0.3l0.4-0.5l0.2-0.5l-0.2-0.6
	l-0.4-0.4l-0.7-0.4l-0.9-0.2h-0.9l-0.9,0.1l-0.8,0.3l-0.6,0.4l-0.3,0.5l0.1,0.6l0.3,0.5l0.5,0.4l0.8,0.3l0.9,0.1H90.15
	 M90.65,280.25l-0.6,0.1h-0.7h-0.6l-0.6-0.1l-0.7-0.1l-0.5-0.1l-0.6-0.2l-0.5-0.3 M90.65,280.25l0.6-0.1l0.6-0.1l0.6-0.2l0.4-0.3
	l0.5-0.3l0.3-0.3l0.3-0.3l0.2-0.4 M94.15,278.25l0.2-0.3v-0.4v-0.4l-0.2-0.4l-0.2-0.3l-0.3-0.4l-0.3-0.3l-0.5-0.2 M92.85,275.55
	l-0.4-0.3l-0.6-0.2l-0.6-0.2l-0.6-0.1l-0.6-0.1h-0.7h-0.6l-0.6,0.1 M88.15,274.75l-0.7,0.1l-0.5,0.2l-0.6,0.2l-0.5,0.3l-0.4,0.2
	l-0.4,0.3l-0.2,0.4l-0.3,0.3 M84.55,276.75l-0.1,0.4v0.4v0.4l0.1,0.3l0.3,0.4l0.2,0.3l0.4,0.3l0.4,0.3 M83.85,278.75v2.6
	 M83.85,281.35l2,1.6 M85.85,282.95h0.2l1.9,0.8 M87.95,281.05v2.7 M85.85,279.55l0.2,0.1l0.4,0.3l0.5,0.3l0.5,0.4l0.5,0.4
	 M83.85,278.75l2,0.8 M163.05,316.05l-0.1-0.1l-1.9-0.8 M161.05,315.15h-0.7l-2.1,0.1 M155.45,316.05l-0.7,1.2 M158.25,315.25
	l-0.7,0.2l-2.1,0.6 M165.05,317.55l-2-1.5 M158.55,319.55l-0.4-0.1l-0.6-0.4l-0.3-0.5v-0.5l0.3-0.4l0.6-0.4l0.8-0.2 M158.95,317.05
	l0.8-0.1l0.9,0.2l0.6,0.3l0.5,0.4l0.1,0.5l-0.1,0.5l-0.5,0.4l-0.7,0.3 M156.75,318.05v-0.2l0.3-0.6l0.5-0.4l0.8-0.3l0.9-0.1h1
	l0.8,0.2l0.7,0.4l0.5,0.5l0.1,0.5 M154.75,317.25l-0.1,0.2l-0.6,1.8 M163.55,323.35l0.2-0.2l0.2-0.3l0.2-0.3l0.2-0.4 M164.35,322.15
	v-0.1l0.2-0.4l0.2-0.5l0.2-0.5l0.1-0.5 M165.05,317.55v2.6 M164.35,318.75v-0.1l0.2-0.3l0.2-0.3l0.2-0.3l0.1-0.2 M163.55,320.75
	l0.2-0.6l0.2-0.5l0.2-0.4l0.2-0.5 M163.55,323.35l-0.7,0.3l-1,0.3l-1,0.2 M163.55,320.75v2.6 M163.55,320.75l-0.7-0.1h-1l-1,0.1
	 M160.85,324.15l-0.8,0.1h-2 M160.85,320.75l-0.4,0.1l-0.4,0.1l-1,0.3l-1,0.3 M160.25,319.65l0.9-0.3l0.7-0.3l0.4-0.5l0.1-0.5
	l-0.1-0.6l-0.5-0.4l-0.7-0.4l-0.8-0.2l-1-0.1l-0.9,0.2l-0.8,0.3l-0.5,0.4l-0.3,0.5v0.6l0.3,0.5l0.6,0.4l0.8,0.3l0.9,0.1H160.25
	 M160.85,320.75l-0.7,0.1h-0.6h-0.7l-0.6-0.1l-0.6-0.1l-0.6-0.1l-0.5-0.2l-0.5-0.3 M160.85,320.75l0.6-0.1l0.6-0.1l0.5-0.2l0.5-0.3
	l0.4-0.3l0.4-0.3l0.3-0.3l0.2-0.4 M164.35,318.75l0.1-0.3l0.1-0.4l-0.1-0.4l-0.1-0.4l-0.2-0.3l-0.3-0.4l-0.4-0.3l-0.4-0.2
	 M163.05,316.05l-0.5-0.3l-0.5-0.2l-0.6-0.2l-0.6-0.1l-0.7-0.1h-0.6h-0.7l-0.6,0.1 M158.25,315.25l-0.6,0.1l-0.6,0.2l-0.5,0.2
	l-0.5,0.3l-0.4,0.2l-0.4,0.3l-0.3,0.4l-0.2,0.3 M154.75,317.25l-0.1,0.4l-0.1,0.4l0.1,0.4l0.1,0.3l0.2,0.4l0.3,0.3l0.4,0.3l0.4,0.3
	 M154.05,319.25v2.6 M154.05,321.85l2,1.6 M156.05,323.45h0.1l1.9,0.8 M158.05,321.55v2.7 M156.05,320.05l0.1,0.1l0.5,0.3l0.5,0.3
	l0.4,0.4l0.5,0.4 M154.05,319.25l2,0.8 M60.75,249.75l-0.1-0.6l-0.3-0.6l-0.4-0.5l-0.5-0.4 M60.25,251.05h0.1l0.3-0.4l0.1-0.5
	 M60.75,250.15l-0.1-0.7l-0.3-0.7l-0.5-0.7l-0.5-0.5l-0.5-0.2h-0.5h-0.2 M60.05,251.15h0.2l0.3-0.4l0.1-0.5v-0.6l-0.3-0.8l-0.4-0.6
	l-0.5-0.5l-0.5-0.4h-0.5l-0.5,0.2 M59.85,251.35l0.3-0.3l0.1-0.6v-0.6l-0.2-0.7l-0.5-0.7l-0.5-0.5l-0.5-0.3l-0.5-0.1l-0.3,0.1
	 M59.55,251.45h0.2l0.3-0.4l0.1-0.5v-0.7l-0.3-0.7l-0.4-0.6l-0.5-0.6l-0.5-0.3h-0.5l-0.5,0.1v0.1 M59.35,251.65l0.3-0.3l0.1-0.6
	v-0.6l-0.2-0.7l-0.5-0.7l-0.5-0.5l-0.5-0.4h-0.5l-0.3,0.1 M59.05,251.75l0.2-0.1l0.3-0.3l0.1-0.5v-0.7l-0.3-0.7l-0.4-0.6l-0.5-0.6
	l-0.5-0.3l-0.5-0.1l-0.5,0.2v0.1 M58.85,251.85l0.3-0.2l0.1-0.6v-0.6l-0.3-0.8l-0.4-0.6l-0.5-0.5l-0.5-0.4h-0.5l-0.3,0.1
	 M58.55,252.05l0.2-0.1l0.3-0.3l0.1-0.5v-0.7l-0.3-0.7l-0.4-0.7l-0.5-0.5l-0.5-0.3l-0.5-0.1l-0.5,0.2v0.1 M58.35,252.15l0.3-0.3
	l0.1-0.5v-0.6l-0.3-0.8l-0.4-0.6l-0.5-0.6l-0.5-0.3h-0.5l-0.3,0.1 M58.05,252.35l0.2-0.1l0.3-0.3l0.1-0.5v-0.7l-0.3-0.7l-0.4-0.7
	l-0.5-0.5l-0.5-0.3l-0.6-0.1l-0.4,0.2v0.1 M57.85,252.45l0.3-0.3l0.1-0.5v-0.7l-0.3-0.7l-0.4-0.6l-0.5-0.6l-0.5-0.3l-0.5-0.1
	l-0.3,0.1 M57.55,252.65l0.2-0.1l0.3-0.3l0.1-0.5v-0.7l-0.3-0.7l-0.4-0.7l-0.5-0.5l-0.5-0.3l-0.6-0.1l-0.4,0.2 M57.35,252.75
	l0.3-0.3l0.1-0.5v-0.7l-0.3-0.7l-0.4-0.6l-0.5-0.6l-0.5-0.3l-0.5-0.1l-0.3,0.1 M57.05,252.95l0.2-0.1l0.3-0.3l0.1-0.5v-0.7l-0.3-0.7
	l-0.4-0.7l-0.5-0.5l-0.5-0.3l-0.6-0.1l-0.4,0.2 M56.85,253.05l0.3-0.3l0.1-0.5v-0.7l-0.3-0.7l-0.4-0.7l-0.5-0.5l-0.5-0.3l-0.5-0.1
	l-0.3,0.1 M56.55,253.15h0.2l0.3-0.3l0.1-0.6v-0.6l-0.3-0.7l-0.4-0.7l-0.5-0.5l-0.5-0.3l-0.6-0.1l-0.4,0.2 M56.35,253.35l0.3-0.3
	l0.1-0.5v-0.7l-0.3-0.7l-0.4-0.7l-0.5-0.5l-0.5-0.3l-0.5-0.1l-0.3,0.1 M56.05,253.45h0.1l0.4-0.3l0.1-0.6v-0.6l-0.3-0.7l-0.4-0.7
	l-0.5-0.5l-0.5-0.4h-0.6l-0.4,0.2 M55.85,253.65l0.3-0.3l0.1-0.5v-0.7l-0.3-0.7l-0.4-0.7l-0.5-0.5l-0.5-0.3l-0.5-0.1l-0.3,0.1
	 M55.55,253.75h0.1l0.4-0.3l0.1-0.6v-0.6l-0.3-0.8l-0.4-0.6l-0.5-0.5l-0.5-0.4h-0.6l-0.4,0.2 M55.35,253.95l0.3-0.3l0.1-0.5v-0.7
	l-0.3-0.7l-0.4-0.7l-0.5-0.5l-0.5-0.3l-0.5-0.1l-0.3,0.1 M55.05,254.05h0.1l0.4-0.4l0.1-0.5v-0.7l-0.3-0.7l-0.4-0.6l-0.5-0.6
	l-0.5-0.3h-0.6l-0.4,0.2 M54.85,254.25l0.3-0.3l0.1-0.6v-0.6l-0.3-0.7l-0.4-0.7l-0.5-0.5l-0.5-0.3l-0.6-0.1l-0.2,0.1 M54.55,254.35
	l0.1-0.1l0.4-0.3l0.1-0.5v-0.7l-0.3-0.7l-0.4-0.6l-0.5-0.6l-0.5-0.3l-0.6-0.1l-0.4,0.2v0.1 M54.35,254.45l0.3-0.2l0.1-0.6v-0.6
	l-0.3-0.7l-0.4-0.7l-0.5-0.5l-0.5-0.4h-0.6l-0.2,0.1 M54.05,254.65l0.1-0.1l0.4-0.3l0.1-0.5v-0.7l-0.3-0.7l-0.4-0.7l-0.5-0.5
	l-0.5-0.3l-0.6-0.1l-0.4,0.2v0.1 M53.85,254.75l0.3-0.3l0.1-0.5v-0.6l-0.3-0.8l-0.4-0.6l-0.5-0.6l-0.5-0.3h-0.6l-0.2,0.1
	 M53.55,254.95l0.1-0.1l0.4-0.3l0.1-0.5v-0.7l-0.3-0.7l-0.4-0.7l-0.5-0.5l-0.5-0.3l-0.6-0.1l-0.4,0.2v0.1 M53.35,255.05l0.3-0.3
	l0.1-0.5v-0.7l-0.3-0.7l-0.4-0.6l-0.5-0.6l-0.5-0.3h-0.6h-0.2 M53.05,255.25l0.1-0.1l0.4-0.3l0.1-0.5v-0.7l-0.3-0.7l-0.4-0.7
	l-0.5-0.5l-0.5-0.3l-0.6-0.1l-0.4,0.2v0.1 M52.85,255.35l0.3-0.3l0.1-0.5v-0.7l-0.3-0.7l-0.4-0.6l-0.5-0.6l-0.5-0.3l-0.6-0.1
	l-0.2,0.1 M52.55,255.55l0.1-0.1l0.4-0.3l0.1-0.5v-0.7l-0.3-0.7l-0.4-0.7l-0.5-0.5l-0.5-0.3l-0.6-0.1l-0.4,0.2 M52.35,255.65
	l0.3-0.3l0.1-0.5v-0.7l-0.3-0.7l-0.4-0.7l-0.5-0.5l-0.5-0.3l-0.6-0.1l-0.2,0.1 M52.05,255.75h0.1l0.4-0.3l0.1-0.5v-0.7l-0.3-0.7
	l-0.4-0.7l-0.5-0.5l-0.5-0.3l-0.6-0.1l-0.4,0.2 M51.85,255.95l0.3-0.3l0.1-0.5v-0.7l-0.3-0.7l-0.4-0.7l-0.5-0.5l-0.5-0.3l-0.6-0.1
	l-0.2,0.1 M51.55,256.05h0.1l0.4-0.3l0.1-0.6v-0.6l-0.3-0.7l-0.4-0.7l-0.5-0.5l-0.5-0.4h-0.6l-0.4,0.2 M51.35,256.25l0.3-0.3
	l0.1-0.5v-0.7l-0.3-0.7l-0.4-0.7l-0.5-0.5l-0.5-0.3l-0.6-0.1l-0.2,0.1 M51.05,256.35h0.1l0.4-0.3l0.1-0.6v-0.6l-0.3-0.7l-0.4-0.7
	l-0.5-0.5l-0.6-0.4h-0.5l-0.4,0.2 M50.85,256.55l0.3-0.3l0.1-0.5v-0.7l-0.3-0.7l-0.4-0.7l-0.5-0.5l-0.5-0.3l-0.6-0.1l-0.2,0.1
	 M50.55,256.65h0.1l0.4-0.4l0.1-0.5v-0.6l-0.3-0.8l-0.4-0.6l-0.5-0.6l-0.6-0.3h-0.5l-0.4,0.2 M46.85,257.65l-0.5-0.6 M46.35,257.05
	l-0.5-0.6 M45.85,256.45v-0.7 M45.85,255.75v-0.1 M45.85,256.45l-1,0.6 M50.35,256.85l0.3-0.3l0.1-0.6v-0.6l-0.3-0.7l-0.4-0.7
	l-0.5-0.5l-0.5-0.3l-0.6-0.1l-0.2,0.1 M50.25,256.85l0.3-0.3l0.1-0.5v-0.7l-0.3-0.7l-0.4-0.6l-0.5-0.6l-0.6-0.3h-0.5h-0.2
	 M50.25,256.65v-0.4v-0.6l-0.3-0.7l-0.4-0.7l-0.5-0.5l-0.5-0.4h-0.2 M50.15,256.45v-0.1v-0.7l-0.3-0.7l-0.4-0.6l-0.5-0.6l-0.5-0.3
	 M46.85,257.75l-1,0.6 M45.85,255.65v0.1 M45.85,255.75v0.2v0.2l0.1,0.1v0.2l0.1,0.2l0.1,0.1l0.1,0.2l0.1,0.1 M46.35,257.05l0.1,0.2
	l0.2,0.1l0.1,0.1l0.1,0.1 M46.85,256.85v1.4 M46.85,258.25l-1,0.1 M45.85,258.35l-1-1.3 M44.85,257.05v-1.3 M44.85,255.75l1-0.1
	 M45.85,255.65l1,1.2 M49.45,259.55l0.5-0.4l0.3-0.7l0.1-0.8 M50.35,257.65l-0.1-0.9l-0.3-1l-0.5-1l-0.7-0.9l-0.7-0.7l-0.8-0.5
	l-0.7-0.3h-0.7l-0.4,0.2 M48.05,259.85l0.4,0.1l0.6-0.2l0.5-0.4l0.3-0.6l0.1-0.9 M49.95,257.85l-0.1-0.9l-0.3-1l-0.5-1l-0.6-0.9
	l-0.8-0.7l-0.8-0.5l-0.7-0.3h-0.7l-0.6,0.3l-0.4,0.6l-0.1,0.1 M47.25,257.75l-0.1-0.7l-0.3-0.7l-0.5-0.6l-0.5-0.4l-0.6-0.2l-0.4,0.1
	l-0.3,0.3l-0.2,0.6l0.2,0.7l0.3,0.7l0.4,0.6l0.6,0.5l0.5,0.2l0.5-0.1l0.3-0.4L47.25,257.75 M90.75,267.15l-0.1-0.6l-0.2-0.6
	l-0.4-0.6l-0.5-0.3 M90.35,268.45L90.35,268.45l0.3-0.4l0.1-0.6 M90.75,267.45l-0.1-0.7l-0.3-0.7l-0.4-0.6l-0.5-0.5l-0.6-0.3h-0.5
	l-0.1,0.1 M90.15,268.55l0.1-0.1l0.4-0.3l0.1-0.5v-0.7l-0.3-0.7l-0.4-0.7l-0.5-0.5l-0.6-0.3l-0.5-0.1l-0.4,0.2v0.1 M89.95,268.65
	l0.3-0.3l0.1-0.5v-0.7l-0.3-0.7l-0.4-0.6l-0.5-0.6l-0.6-0.3l-0.5-0.1l-0.2,0.1 M89.65,268.85l0.1-0.1l0.4-0.3l0.1-0.5v-0.7l-0.3-0.7
	l-0.4-0.7l-0.5-0.5l-0.6-0.3l-0.5-0.1l-0.4,0.2 M89.45,268.95l0.3-0.3l0.1-0.5v-0.7l-0.3-0.7l-0.4-0.6l-0.5-0.6l-0.6-0.3l-0.5-0.1
	l-0.2,0.1 M89.15,269.15l0.1-0.1l0.4-0.3l0.1-0.5v-0.7l-0.3-0.7l-0.4-0.7l-0.5-0.5l-0.6-0.3l-0.5-0.1l-0.4,0.2 M88.95,269.25
	l0.3-0.3l0.1-0.5v-0.7l-0.3-0.7l-0.4-0.7l-0.5-0.5l-0.6-0.3l-0.5-0.1l-0.2,0.1 M88.65,269.35h0.1l0.4-0.3l0.1-0.6v-0.6l-0.3-0.7
	l-0.4-0.7l-0.5-0.5l-0.6-0.3l-0.5-0.1l-0.4,0.2 M88.45,269.55l0.3-0.3l0.1-0.5v-0.7l-0.3-0.7l-0.4-0.7l-0.5-0.5l-0.6-0.3l-0.5-0.1
	l-0.2,0.1 M88.15,269.65h0.1l0.4-0.3l0.1-0.6v-0.6l-0.3-0.7l-0.4-0.7l-0.5-0.5l-0.6-0.4h-0.5l-0.4,0.2 M87.95,269.85l0.3-0.3
	l0.1-0.5v-0.7l-0.3-0.7l-0.4-0.7l-0.5-0.5l-0.6-0.3l-0.5-0.1l-0.2,0.1 M87.65,269.95h0.1l0.4-0.3l0.1-0.6v-0.6l-0.3-0.8l-0.4-0.6
	l-0.5-0.5l-0.6-0.4h-0.5l-0.4,0.2 M87.45,270.15l0.3-0.3l0.1-0.5v-0.7l-0.3-0.7l-0.4-0.7l-0.5-0.5l-0.6-0.3l-0.5-0.1l-0.3,0.1
	 M87.15,270.25h0.1l0.4-0.4l0.1-0.5v-0.7l-0.3-0.7l-0.4-0.6l-0.5-0.6l-0.6-0.3h-0.5l-0.4,0.2 M86.95,270.45l0.3-0.3l0.1-0.6v-0.6
	l-0.3-0.7l-0.4-0.7l-0.5-0.5l-0.6-0.3l-0.5-0.1l-0.3,0.1 M86.65,270.55l0.1-0.1l0.3-0.3l0.2-0.5l-0.1-0.7l-0.2-0.7l-0.4-0.6
	l-0.5-0.6l-0.6-0.3l-0.5-0.1l-0.4,0.2v0.1 M86.45,270.65l0.3-0.2l0.1-0.6v-0.6l-0.3-0.7l-0.4-0.7l-0.5-0.5l-0.6-0.4h-0.5l-0.3,0.1
	 M86.15,270.85l0.1-0.1l0.3-0.3l0.2-0.5l-0.1-0.7l-0.2-0.7l-0.4-0.7l-0.5-0.5l-0.6-0.3l-0.5-0.1l-0.4,0.2v0.1 M85.95,270.95l0.3-0.3
	l0.1-0.5v-0.6l-0.3-0.8l-0.4-0.6l-0.5-0.6l-0.6-0.3h-0.5l-0.3,0.1 M85.55,271.15l0.2-0.1l0.3-0.3l0.2-0.5l-0.1-0.7l-0.2-0.7
	l-0.4-0.7l-0.5-0.5l-0.6-0.3l-0.5-0.1l-0.4,0.2v0.1 M85.45,271.25l0.3-0.3l0.1-0.5v-0.7l-0.3-0.7l-0.4-0.6l-0.5-0.6l-0.6-0.3h-0.5
	h-0.3 M85.05,271.45l0.2-0.1l0.3-0.3l0.2-0.5l-0.1-0.7l-0.2-0.7l-0.4-0.7l-0.5-0.5l-0.6-0.3l-0.5-0.1l-0.4,0.2v0.1 M84.95,271.55
	l0.3-0.3l0.1-0.5v-0.7l-0.3-0.7l-0.4-0.6l-0.5-0.6l-0.6-0.3l-0.5-0.1l-0.3,0.1 M84.55,271.75l0.2-0.1l0.3-0.3l0.2-0.5l-0.1-0.7
	l-0.2-0.7l-0.4-0.7l-0.5-0.5l-0.6-0.3l-0.5-0.1l-0.4,0.2 M84.45,271.85l0.3-0.3l0.1-0.5v-0.7l-0.3-0.7l-0.4-0.7l-0.5-0.5l-0.6-0.3
	l-0.5-0.1l-0.3,0.1 M84.05,271.95h0.2l0.3-0.3l0.2-0.6l-0.1-0.6l-0.2-0.7l-0.4-0.7l-0.5-0.5l-0.6-0.3l-0.5-0.1l-0.4,0.2
	 M83.95,272.15l0.3-0.3l0.1-0.5v-0.7l-0.3-0.7l-0.4-0.7l-0.5-0.5l-0.6-0.3l-0.5-0.1l-0.3,0.1 M83.55,272.25h0.2l0.3-0.3l0.2-0.6
	l-0.1-0.6l-0.2-0.7l-0.4-0.7l-0.5-0.5l-0.6-0.4h-0.5l-0.4,0.2 M83.45,272.45l0.2-0.3l0.2-0.5l-0.1-0.7l-0.2-0.7l-0.4-0.7l-0.5-0.5
	l-0.6-0.3l-0.5-0.1l-0.3,0.1 M83.05,272.55h0.2l0.3-0.3l0.2-0.6l-0.1-0.6l-0.2-0.7l-0.4-0.7l-0.5-0.5l-0.6-0.4h-0.5l-0.4,0.2
	 M82.95,272.75l0.2-0.3l0.2-0.5l-0.1-0.7l-0.2-0.7l-0.4-0.7l-0.5-0.5l-0.6-0.3l-0.5-0.1l-0.3,0.1 M82.55,272.85h0.2l0.3-0.4l0.2-0.5
	l-0.1-0.6l-0.2-0.8l-0.4-0.6l-0.5-0.6l-0.6-0.3h-0.5l-0.4,0.2 M82.45,273.05l0.2-0.3l0.2-0.6l-0.1-0.6l-0.2-0.7l-0.4-0.7l-0.5-0.5
	l-0.6-0.3l-0.5-0.1l-0.3,0.1 M82.05,273.15h0.2l0.3-0.4l0.2-0.5l-0.1-0.7l-0.2-0.7l-0.4-0.6l-0.5-0.6l-0.6-0.3l-0.5-0.1l-0.4,0.2
	v0.1 M81.95,273.35l0.2-0.3l0.2-0.6l-0.1-0.6l-0.2-0.7l-0.4-0.7l-0.5-0.5l-0.6-0.4h-0.5l-0.3,0.1 M81.55,273.45l0.2-0.1l0.3-0.3
	l0.2-0.5l-0.1-0.7l-0.2-0.7l-0.4-0.6l-0.5-0.6l-0.6-0.3l-0.5-0.1l-0.4,0.2v0.1 M81.45,273.55l0.2-0.3l0.2-0.5l-0.1-0.6l-0.2-0.8
	l-0.4-0.6l-0.5-0.5l-0.6-0.4h-0.5l-0.3,0.1 M81.05,273.75l0.2-0.1l0.3-0.3l0.2-0.5l-0.1-0.7l-0.2-0.7l-0.4-0.7l-0.5-0.5l-0.6-0.3
	l-0.5-0.1l-0.4,0.2v0.1 M80.95,273.85l0.2-0.3l0.2-0.5l-0.1-0.7l-0.2-0.7l-0.4-0.6l-0.5-0.6l-0.6-0.3h-0.5h-0.3 M80.55,274.05
	l0.2-0.1l0.3-0.3l0.2-0.5l-0.1-0.7l-0.2-0.7l-0.4-0.7l-0.5-0.5l-0.6-0.3l-0.5-0.1l-0.4,0.2l-0.1,0.1 M76.85,275.05l-0.4-0.6
	 M76.45,274.45l-0.5-0.6 M75.95,273.85v-0.7 M75.95,273.15v-0.1 M75.95,273.85l-1.1,0.6 M80.45,274.15l0.2-0.3l0.2-0.5l-0.1-0.7
	l-0.2-0.7l-0.4-0.6l-0.5-0.6l-0.6-0.3l-0.5-0.1l-0.3,0.1 M80.35,274.25l0.2-0.3l0.2-0.5l-0.1-0.7l-0.2-0.7l-0.4-0.7l-0.5-0.5
	l-0.6-0.3l-0.5-0.1l-0.3,0.1 M80.25,273.95l0.1-0.3l-0.1-0.7l-0.2-0.7l-0.4-0.7l-0.5-0.5l-0.6-0.3l-0.2-0.1 M80.25,273.75
	L80.25,273.75l-0.1-0.7l-0.2-0.7l-0.4-0.7l-0.5-0.5l-0.5-0.3 M76.85,275.05l-1,0.6 M75.95,273.05v0.1 M75.95,273.15v0.2v0.1l0.1,0.2
	v0.2l0.1,0.1l0.1,0.2l0.1,0.1l0.1,0.2 M76.45,274.45l0.1,0.1l0.1,0.1l0.1,0.1l0.1,0.1 M76.85,274.25v1.3 M76.85,275.55l-1,0.1
	 M75.85,275.65l-1-1.2 M74.85,274.45v-1.4 M74.85,273.05l1-0.1 M75.85,272.95l1,1.3 M79.55,276.85l0.4-0.4l0.3-0.6l0.1-0.8
	 M80.35,275.05l-0.1-1l-0.3-1l-0.5-1l-0.6-0.8l-0.7-0.8l-0.8-0.5l-0.8-0.2h-0.7l-0.3,0.1 M78.05,277.25h0.4l0.7-0.1l0.4-0.4l0.4-0.7
	l0.1-0.8 M80.05,275.25l-0.1-1l-0.4-1l-0.4-0.9l-0.7-0.9l-0.7-0.8l-0.8-0.5l-0.7-0.2h-0.7l-0.6,0.3l-0.4,0.5l-0.1,0.2 M77.35,275.15
	l-0.1-0.7l-0.4-0.7l-0.4-0.6l-0.6-0.5l-0.5-0.2l-0.5,0.1l-0.3,0.4l-0.1,0.6l0.1,0.6l0.3,0.8l0.5,0.6l0.5,0.4l0.6,0.2l0.4-0.1
	l0.4-0.3L77.35,275.15 M69.45,247.95l0.1-0.6 M75.05,254.25l-1.3,0.2 M71.35,252.35l-0.2-0.2l-0.4-0.5l-0.2-0.6l-0.1-0.3
	 M71.15,246.35l-1.6,1 M69.55,247.35h0.5h0.6 M72.85,246.15h0.1l0.2-0.1h0.3l0.3,0.1h0.2 M71.15,246.35l0.9-0.1l0.8-0.1
	 M71.55,252.95l-0.3-0.1l-0.5-0.4l-0.4-0.5l-0.3-0.7l-0.1-0.6 M69.95,250.65v-0.3 M71.45,252.55l-0.4-0.3l-0.4-0.6l-0.3-0.6v-0.4
	 M71.55,253.25h-0.3l-0.5-0.1l-0.5-0.4l-0.4-0.6l-0.3-0.6l-0.1-0.6 M69.45,250.95l0.1-0.5l0.2-0.3 M71.55,253.05l-0.5-0.1l-0.4-0.4
	l-0.4-0.6l-0.3-0.6l-0.1-0.6 M69.85,250.75l0.1-0.5 M75.05,254.25l-0.1-0.2v-0.3l-0.1-0.6l-0.1-0.6 M76.65,253.25l-1.6,1
	 M76.65,253.25l0.1-0.3v-0.2l0.2-0.8v-0.7 M76.95,251.25v-0.2v-0.3l-0.1-0.6l-0.2-0.6 M70.65,247.35h0.1l0.7-0.1l0.8-0.2
	 M71.55,253.25l-0.4,0.1l-0.5-0.2l-0.5-0.4l-0.4-0.5l-0.3-0.6l-0.1-0.7 M69.35,250.95l0.1-0.5l0.3-0.3 M74.75,252.55v-0.3l0.1-0.3
	v-0.7l0.2-0.7 M71.55,253.65l-0.2,0.1h-0.5l-0.5-0.3l-0.6-0.5l-0.4-0.6l-0.3-0.7l-0.1-0.7 M68.95,250.95l0.1-0.6l0.3-0.3v-0.1
	 M73.95,246.15l-1.7,0.9 M72.25,247.05l0.5,1l0.7,0.9 M73.45,248.95l0.1,0.1l1.5,1.5 M76.65,249.55l-1.6,1 M75.55,247.75l0.1,0.1
	l0.3,0.4l0.3,0.4l0.2,0.5l0.2,0.4 M73.95,246.15l0.4,0.3l0.4,0.4l0.4,0.4l0.4,0.5 M68.85,249.85l-0.2,0.6v0.7l0.2,0.7l0.3,0.8
	l0.6,0.7l0.6,0.5l0.6,0.3l0.4,0.1 M71.55,253.35l-0.1-0.8l-0.3-0.7l-0.5-0.8l-0.5-0.6l-0.6-0.4l-0.6-0.2l-0.5,0.1l-0.4,0.4l-0.2,0.5
	v0.7l0.2,0.8l0.4,0.8l0.5,0.7l0.6,0.5l0.6,0.3h0.5l0.5-0.2l0.3-0.5L71.55,253.35 M73.95,254.25L73.95,254.25l0.3-0.1l0.2-0.3
	l0.1-0.2l0.1-0.4l0.1-0.3v-0.4 M74.75,252.55v-0.5l-0.1-0.4l-0.1-0.5l-0.1-0.4l-0.2-0.5l-0.3-0.5l-0.2-0.4l-0.3-0.4 M73.45,248.95
	l-0.4-0.4l-0.3-0.3l-0.4-0.3l-0.3-0.2l-0.4-0.2l-0.3-0.1l-0.4-0.1h-0.3 M70.65,247.35l-0.3,0.1l-0.3,0.1 M46.05,234.45l0.1-0.6
	 M51.65,240.75l-1.2,0.2 M48.05,238.85l-0.2-0.1l-0.4-0.6l-0.3-0.6v-0.3 M47.85,232.95l-1.7,0.9 M46.15,233.85l0.5,0.1l0.6-0.1
	 M49.45,232.65h0.1h0.3h0.3h0.2h0.2 M47.85,232.95l0.8-0.2l0.8-0.1 M48.15,239.45l-0.3-0.1l-0.5-0.4l-0.4-0.5l-0.3-0.7v-0.6
	 M46.65,237.15v-0.3 M48.05,239.05l-0.3-0.3l-0.4-0.5l-0.3-0.7l-0.1-0.4 M48.15,239.75h-0.3l-0.5-0.1l-0.4-0.4l-0.4-0.6l-0.3-0.6
	l-0.1-0.6 M46.15,237.45l0.1-0.5l0.2-0.2 M48.15,239.55l-0.4-0.1l-0.5-0.4l-0.4-0.6l-0.3-0.6l-0.1-0.6 M46.45,237.25l0.1-0.4
	 M51.65,240.75v-0.2l-0.1-0.2l-0.1-0.7v-0.6 M53.35,239.75l-1.7,1 M53.35,239.75v-0.3l0.1-0.2l0.1-0.8v-0.7 M53.55,237.75v-0.2v-0.3
	l-0.1-0.6l-0.1-0.6 M47.25,233.85h0.1l0.8-0.1l0.8-0.1 M48.15,239.75l-0.4,0.1l-0.5-0.2l-0.4-0.4l-0.5-0.5l-0.2-0.6l-0.1-0.6
	 M46.05,237.55l0.1-0.5l0.2-0.3 M51.45,239.05v-0.3v-0.2l0.1-0.8l0.1-0.7 M48.15,240.15l-0.1,0.1h-0.5l-0.6-0.3l-0.5-0.4l-0.5-0.7
	l-0.2-0.7l-0.1-0.7 M45.65,237.45l0.1-0.5l0.2-0.4h0.1 M50.55,232.65l-1.6,1 M48.95,233.65l0.5,0.9l0.6,0.9 M50.05,235.45l0.1,0.1
	l1.5,1.5 M53.35,236.05l-1.7,1 M52.25,234.25l0.1,0.1l0.3,0.4l0.2,0.4l0.3,0.5l0.2,0.4 M50.55,232.65l0.5,0.4l0.4,0.3l0.4,0.5
	l0.4,0.4 M45.45,236.35l-0.2,0.6v0.7l0.2,0.8l0.4,0.7l0.5,0.7l0.6,0.5l0.6,0.3l0.4,0.1 M48.15,239.85l-0.1-0.7l-0.3-0.8l-0.4-0.8
	l-0.6-0.6l-0.6-0.4l-0.6-0.2l-0.5,0.1l-0.4,0.4l-0.2,0.5v0.7l0.2,0.8l0.4,0.8l0.5,0.7l0.6,0.5l0.6,0.3h0.6l0.4-0.2l0.3-0.4
	L48.15,239.85 M50.65,240.85L50.65,240.85l0.2-0.2l0.2-0.2l0.2-0.3l0.1-0.4l0.1-0.3v-0.4 M51.45,239.05v-0.5l-0.1-0.4l-0.1-0.5
	l-0.2-0.4l-0.2-0.5l-0.2-0.4l-0.3-0.5l-0.3-0.4 M50.05,235.45l-0.3-0.3l-0.4-0.4l-0.3-0.3l-0.4-0.2l-0.3-0.2l-0.4-0.1l-0.3-0.1h-0.4
	 M47.25,233.85l-0.3,0.1l-0.2,0.1 M6.95,104.35l-1.1-0.7 M4.05,106.75l1.1,0.6 M7.35,104.55h-0.1 M5.55,107.55l0.1,0.1 M6.45,102.45
	l-2.4-1.4 M0.95,106.55l2.3,1.4 M7.85,104.85l-0.1-0.1 M5.95,107.85h0.1 M8.25,105.05h-0.1 M6.45,108.05l0.1,0.1 M8.75,105.35
	l-0.1-0.1 M6.85,108.35l0.1,0.1 M9.15,105.55h-0.1 M7.35,108.65L7.35,108.65 M9.65,105.85h-0.1 M7.75,108.85l0.1,0.1 M10.05,106.15
	l-0.1-0.1 M8.15,109.15h0.1 M10.45,106.35L10.45,106.35 M8.65,109.35l0.1,0.1 M10.95,106.65l-0.1-0.1 M9.05,109.65h0.1
	 M11.35,106.85L11.35,106.85 M9.55,109.85l0.1,0.1 M11.85,107.15l-0.1-0.1 M9.95,110.15l0.1,0.1 M12.25,107.35h-0.1 M10.45,110.45
	h0.1 M12.75,107.65l-0.1-0.1 M10.85,110.65l0.1,0.1 M13.15,107.95l-0.1-0.1 M11.35,110.95L11.35,110.95 M13.65,108.15h-0.1
	 M11.75,111.15l0.1,0.1 M14.05,108.45l-0.1-0.1 M12.15,111.45h0.1 M14.55,108.65h-0.1 M12.65,111.65l0.1,0.1 M14.95,108.95l-0.1-0.1
	 M13.05,111.95l0.1,0.1 M15.35,109.15L15.35,109.15 M13.55,112.25h0.1 M15.85,109.45l-0.1-0.1 M13.95,112.45l0.1,0.1 M16.25,109.75
	l-0.1-0.1 M14.45,112.75h0.1 M16.75,109.95h-0.1 M14.85,112.95l0.1,0.1 M17.15,110.25l-0.1-0.1 M15.35,113.25h0.1 M17.65,110.45
	h-0.1 M15.75,113.45l0.1,0.1 M18.05,110.75l-0.1-0.1 M16.25,113.75v0.1 M18.55,110.95h-0.1 M16.65,114.05h0.1 M18.95,111.25
	l-0.1-0.1 M17.05,114.25l0.1,0.1 M19.35,111.55v-0.1 M17.55,114.55h0.1 M19.85,111.75h-0.1 M17.95,114.75l0.1,0.1 M20.25,112.05
	l-0.1-0.1 M18.45,115.05h0.1 M20.75,112.25h-0.1 M18.85,115.25l0.1,0.1 M21.15,112.55l-0.1-0.1 M19.35,115.55h0.1 M21.55,112.75
	L21.55,112.75 M19.75,115.85L19.75,115.85 M21.95,113.85v-0.3 M20.65,115.75l0.3-0.2 M182.45,208.85v0.3 M183.75,206.95l-0.3,0.2
	 M182.85,209.95L182.85,209.95 M184.65,206.85L184.65,206.85 M183.25,210.15v0.1 M185.05,207.15l-0.1-0.1 M183.65,210.45h0.1
	 M185.55,207.35h-0.1 M184.05,210.65l0.1,0.1 M185.95,207.65h-0.1 M184.55,210.95h0.1 M186.45,207.95l-0.1-0.1 M184.95,211.15
	l0.1,0.1 M186.85,208.15h-0.1 M185.45,211.45h0.1 M187.25,208.45v-0.1 M185.85,211.75h0.1 M187.75,208.65h-0.1 M186.35,211.95
	l0.1,0.1 M188.15,208.95l-0.1-0.1 M186.75,212.25h0.1 M188.65,209.15h-0.1 M187.25,212.45l0.1,0.1 M189.05,209.45h-0.1
	 M187.65,212.75h0.1 M189.55,209.75l-0.1-0.1 M188.15,212.95v0.1 M189.95,209.95h-0.1 M188.55,213.25h0.1 M190.45,210.25l-0.1-0.1
	 M188.95,213.45l0.1,0.1 M190.85,210.45h-0.1 M189.45,213.75l0.1,0.1 M191.25,210.75v-0.1 M189.85,214.05h0.1 M191.75,210.95h-0.1
	 M190.35,214.25l0.1,0.1 M192.15,211.25h-0.1 M190.75,214.55h0.1 M192.65,211.55l-0.1-0.1 M191.25,214.75l0.1,0.1 M193.05,211.75
	h-0.1 M191.65,215.05h0.1 M193.55,212.05l-0.1-0.1 M192.15,215.25v0.1 M193.95,212.25h-0.1 M192.55,215.55l0.1,0.1 M194.45,212.55
	l-0.1-0.1 M192.95,215.85h0.1 M194.85,212.75h-0.1 M193.45,216.05l0.1,0.1 M195.35,213.05l-0.1-0.1 M193.85,216.35h0.1
	 M195.75,213.35l-0.1-0.1 M194.35,216.55l0.1,0.1 M196.15,213.55L196.15,213.55 M194.75,216.85h0.1 M196.65,213.85l-0.1-0.1
	 M195.25,217.05l0.1,0.1 M197.05,214.05h-0.1 M195.65,217.35l0.1,0.1 M197.55,214.35l-0.1-0.1 M196.15,217.65h0.1 M197.95,214.55
	h-0.1 M196.55,217.85l0.1,0.1 M198.45,214.85l-0.1-0.1 M197.05,218.15L197.05,218.15 M198.85,215.15l-0.1-0.1 M197.95,220.25
	l2.3,1.4 M203.45,216.15l-2.3-1.4 M124.75,221.35l5,2.9 M151.25,239.05l5-2.9 M133.55,214.85l0.2-0.1 M30.55,121.45v11.5
	 M71.05,123.95l-0.3-0.2l-0.3-0.3l-0.2-0.3v-0.1 M43.05,126.55l-8.5-5 M51.55,121.55l-8.5,5 M103.75,122.85v0.8l-0.2,1l-0.6,1
	l-0.7,1l-1,0.9l-1.1,0.8l-0.4,0.2 M87.05,133.25l-16-9.3 M99.75,128.55l-8,4.7 M91.75,133.25l-0.4,0.1l-0.7,0.3l-0.8,0.1h-0.9
	l-0.9-0.1l-0.7-0.3l-0.3-0.1 M141.15,164.45l-0.2-0.2l-0.4-0.3l-0.1-0.3v-0.1 M173.95,163.35v0.8l-0.3,1l-0.5,1l-0.8,1l-1,0.9
	l-1.1,0.8l-0.4,0.2 M178.25,190.75v-27.8 M157.25,173.75l-16.1-9.3 M169.85,169.05l-8,4.7 M161.85,173.75l-0.3,0.1l-0.7,0.3
	l-0.9,0.1h-0.9l-0.8-0.1l-0.8-0.3l-0.2-0.1 M173.75,201.25v-11.6 M167.15,202.95l0.2,0.1l0.6,0.1l0.7-0.1l0.7-0.2l0.6-0.6l0.7-0.6
	l0.5-0.8l0.3-0.9l0.2-0.9v-0.9l-0.3-0.6l-0.3-0.5l-0.4-0.2 M169.85,189.85l-8.5,4.9 M161.35,194.75l-8.5-4.9 M35.25,67.45v0.1v0.1
	v0.1h0.1v0.1l0.1,0.1h0.1v0.1 M50.35,68.05l0.1-0.1l0.1-0.1v-0.1h0.1v-0.1v-0.1v-0.1 M43.35,72.05l7-4 M35.55,68.05l7.1,4
	 M42.65,72.05v0.1h0.1h0.1h0.1h0.1h0.1h0.1l0.1-0.1 M35.25,31.15v36.3 M50.65,67.45v-37.3 M37.25,18.15v5.3 M37.25,15.15v0.6
	 M48.65,18.65v-3.5 M48.65,15.15l-0.2-1.3l-0.4-1.2l-0.7-1.1l-0.9-0.9l-1-0.6l-1.2-0.5l-1.3-0.1l-1.2,0.1l-1.2,0.5l-1.1,0.6
	l-0.9,0.9l-0.7,1.1l-0.4,1.2l-0.2,1.3 M153.65,135.85l0.1,0.1v0.1v0.1l0.1,0.1l0.1,0.1l0.1,0.1 M168.75,136.45l0.1-0.1h0.1l0.1-0.1
	v-0.1v-0.1h0.1v-0.1v-0.1 M154.05,136.45l7,4 M161.75,140.45l7-4 M161.05,140.45l0.1,0.1h0.1h0.1h0.1h0.1h0.1l0.1-0.1 M153.65,99.55
	v36.3 M169.15,135.85v-35.6 M155.75,83.55v8.2 M167.05,84.15v-0.6 M167.05,86.95L167.05,86.95 M167.05,83.55l-0.1-1.3l-0.4-1.2
	l-0.7-1.1l-0.9-0.9l-1.1-0.6l-1.2-0.5l-1.2-0.1l-1.3,0.1l-1.2,0.5l-1.1,0.6l-0.9,0.9l-0.6,1.1l-0.5,1.2l-0.1,1.3 M35.95,12.65
	l0.2,0.6l0.3,0.5 M34.45,6.45l1.5,6.2 M38.15,12.15l-1.5-6.2 M33.65,14.55l0.4,0.2l0.6,0.4l0.5,0.4l0.2,0.2 M37.05,14.35l-0.3-0.3
	l-0.7-0.6l-0.7-0.6l-0.5-0.3 M34.85,12.55l-5.8-3.3 M27.95,11.25l5.7,3.3 M36.65,5.95l-0.2-0.7l-0.6-1.1l-0.7-1l-0.9-1l-1.1-0.7
	l-1.1-0.6l-1.3-0.4l-1.2-0.2l-1.3,0.1l-1.1,0.3l-1,0.6l-0.8,0.7l-0.7,0.9l-0.4,1l-0.1,1.1v1.1l0.3,1.2l0.6,1.1l0.7,1.1l0.9,0.9
	l1.1,0.7l0.2,0.2 M29.05,9.25l-0.4-0.2l-0.8-0.7l-0.7-0.8l-0.5-0.9l-0.2-0.8l-0.1-0.9l0.2-0.7l0.3-0.7l0.6-0.5l0.7-0.4l0.9-0.1h1
	l0.9,0.3l1,0.4l0.8,0.6l0.8,0.8l0.5,0.8l0.3,0.9l0.1,0.1 M37.35,14.65l-0.3-0.3 M35.35,15.75l2.6,3.2 M37.95,18.95l0.3,0.4l0.7,0.4
	l0.9,0.4 M45.75,21.75l0.3,0.1l0.4,0.2l0.1,0.1 M48.35,20.75l-0.4-0.4l-0.7-0.4l-0.9-0.4 M46.35,19.55l-1.9-0.5 M40.95,20.35
	l4.8,1.4 M39.85,20.15l0.3,0.1 M48.75,21.25l7,4 M56.85,23.35l-10-5.7 M51.55,24.65l-3.2-3.9 M46.55,22.15l3.3,4 M152.85,76.95
	l2.8,3.4 M157.65,79.25l-3.1-3.7 M166.75,86.55l0.3,0.4 M169.05,85.85l-2-2.4 M156.45,80.85l-7.8-4.5 M166.95,86.95l-1.6-1
	 M164.05,87.85l1.8,1 M147.55,78.25l8.2,4.8 M169.85,85.85l-0.3,0.1h-0.3l-0.2-0.1 M169.05,88.15h0.1h0.9l0.4-0.1 M165.85,88.85
	l0.3,0.2l0.4,0.2l0.2,0.2 M167.95,87.45h-0.1l-0.5-0.3l-0.4-0.2 M170.45,88.05l4.2-1.2 M175.55,84.25l-5.7,1.6 M169.45,88.35
	l-1.5-0.9 M166.75,89.45l1.5,0.9 M168.25,90.35l0.5,0.2h0.5h0.7l0.9-0.1l1.1-0.3l1.1-0.3l1.2-0.4l1.1-0.5l1.1-0.5l1.1-0.5l0.9-0.5
	l0.7-0.6l0.6-0.5l0.3-0.4l0.2-0.5v-0.5l-0.2-0.5l-0.4-0.4l-0.4-0.2l-0.4-0.1h-0.7l-0.9,0.1l-1,0.2l-0.7,0.2 M178.15,84.85h-0.1
	l-0.2,0.2l-0.4,0.3l-0.6,0.4l-0.8,0.4l-0.9,0.5l-1.1,0.4l-1,0.4l-1.1,0.4l-0.9,0.2l-0.8,0.2l-0.6,0.1h-0.3 M174.65,90.55v-1.3
	 M148.25,90.95v2.7 M164.05,97.65l2.6,1.5 M56.15,22.15v-2.7 M29.75,22.55v2.7 M45.55,29.25l2.7,1.6 M166.85,98.85l2.4,1.4
	 M172.45,94.75l-2.4-1.4 M52.65,27.25l-1.8-1 M49.05,29.25l1.8,1 M52.95,28.35v-0.3 M51.75,30.15l0.2-0.1 M90.55,286.65l0.6-0.1
	l1-0.3l0.9-0.6l0.6-0.6l0.5-0.7l0.2-0.7v-0.4 M84.45,283.25v0.5l0.3,0.8l0.4,0.6l0.7,0.6l0.8,0.5l1,0.3l1.1,0.2h1.1l0.7-0.1
	 M84.45,281.85v1.4 M94.35,283.25v-2 M160.65,327.15l0.6-0.1l1-0.3l1-0.6l0.6-0.6l0.4-0.7l0.2-0.8v-0.3 M154.65,323.75v0.5l0.2,0.8
	l0.5,0.6l0.6,0.6l0.9,0.5l1,0.3l1.1,0.2h1.1l0.6-0.1 M154.55,322.35v1.4 M164.55,323.75v-2 M59.45,247.65l-0.2-0.2 M60.75,250.15
	v-0.4 M58.15,247.35v0.1 M60.25,251.05L60.25,251.05 M57.75,247.65h-0.1 M59.75,251.35h0.1 M57.25,247.95h-0.1 M59.25,251.65h0.1
	 M56.75,248.25h-0.1 M58.75,251.95l0.1-0.1 M56.25,248.55h-0.1 M58.25,252.25l0.1-0.1 M55.75,248.75l-0.1,0.1 M57.75,252.55l0.1-0.1
	 M55.25,249.05l-0.1,0.1 M57.25,252.85l0.1-0.1 M54.75,249.35l-0.1,0.1 M56.75,253.15l0.1-0.1 M54.25,249.65l-0.1,0.1 M56.25,253.45
	l0.1-0.1 M53.75,249.95l-0.1,0.1 M55.75,253.65h0.1 M53.25,250.25h-0.1 M55.25,253.95h0.1 M52.75,250.55h-0.1 M54.75,254.25h0.1
	 M52.25,250.85h-0.1 M54.25,254.55l0.1-0.1 M51.75,251.15h-0.1 M53.75,254.85l0.1-0.1 M51.25,251.35l-0.1,0.1 M53.25,255.15l0.1-0.1
	 M50.75,251.65l-0.1,0.1 M52.75,255.45l0.1-0.1 M50.25,251.95l-0.1,0.1 M52.25,255.75l0.1-0.1 M49.75,252.25l-0.1,0.1 M51.75,256.05
	l0.1-0.1 M49.25,252.55l-0.1,0.1 M51.25,256.25h0.1 M48.75,252.85l-0.1,0.1 M50.75,256.55h0.1 M48.25,253.15h-0.1 M50.25,256.85h0.1
	 M45.45,252.55l-0.4,0.2 M49.15,259.75l0.3-0.2 M44.35,253.55l-0.2,1.1v1l0.2,1l0.4,0.9l0.6,0.9l0.8,0.7l0.9,0.4l1,0.3
	 M89.55,265.05l-0.3-0.2 M90.75,267.45v-0.3 M88.25,264.75h-0.1 M90.35,268.45L90.35,268.45 M87.85,264.95l-0.2,0.1 M89.85,268.75
	l0.1-0.1 M87.35,265.25l-0.2,0.1 M89.35,269.05l0.1-0.1 M86.85,265.55l-0.2,0.1 M88.85,269.35l0.1-0.1 M86.35,265.85l-0.2,0.1
	 M88.35,269.65l0.1-0.1 M85.85,266.15l-0.2,0.1 M87.85,269.85h0.1 M85.25,266.45h-0.1 M87.35,270.15h0.1 M84.75,266.75h-0.1
	 M86.85,270.45h0.1 M84.25,267.05h-0.1 M86.35,270.75l0.1-0.1 M83.75,267.35h-0.1 M85.85,271.05l0.1-0.1 M83.25,267.55l-0.1,0.1
	 M85.35,271.35l0.1-0.1 M82.75,267.85l-0.1,0.1 M84.85,271.65l0.1-0.1 M82.25,268.15l-0.1,0.1 M84.35,271.95l0.1-0.1 M81.75,268.45
	l-0.1,0.1 M83.85,272.25l0.1-0.1 M81.25,268.75l-0.1,0.1 M83.35,272.45h0.1 M80.75,269.05l-0.1,0.1 M82.85,272.75h0.1 M80.25,269.35
	h-0.1 M82.35,273.05h0.1 M79.75,269.65h-0.1 M81.85,273.35h0.1 M79.25,269.95h-0.1 M81.35,273.65l0.1-0.1 M78.75,270.15l-0.1,0.1
	 M80.85,273.95l0.1-0.1 M78.25,270.45l-0.1,0.1 M80.35,274.25l0.1-0.1 M75.55,269.85l-0.4,0.2 M79.15,277.05l0.4-0.2 M74.45,270.95
	l-0.2,1l-0.1,1l0.2,1.1l0.5,0.9l0.6,0.8l0.7,0.7l1,0.5l0.9,0.3 M70.05,247.55l-1.5,0.9 M72.45,255.15l1.5-0.9 M68.55,248.45
	l-0.4,0.3l-0.5,0.5l-0.2,0.7l-0.1,0.8l0.1,0.9l0.3,0.9l0.5,0.9l0.6,0.8l0.7,0.6l0.9,0.5l0.7,0.1h0.7l0.5-0.3 M46.75,234.05l-1.6,0.9
	 M49.05,241.75l1.6-0.9 M45.15,234.95l-0.4,0.3l-0.4,0.6l-0.2,0.6l-0.1,0.8l0.1,0.9l0.3,0.9l0.5,0.9l0.6,0.8l0.7,0.6l0.8,0.5
	l0.8,0.1h0.7l0.5-0.2"/>
<polyline id="XMLID_34_" fill="none" stroke="#000000" stroke-width="0.51" stroke-linecap="round" stroke-linejoin="round" stroke-miterlimit="10" stroke-dasharray="18,3.6,3.6,3.6,3.6,3.6" points="
	156.909,192.15 157.264,191.872 157.657,191.735 157.99,191.8 158.213,192.056 158.291,192.465 158.228,192.911 "/>
<polyline id="XMLID_33_" fill="none" stroke="#000000" stroke-width="0.51" stroke-linecap="round" stroke-linejoin="round" stroke-miterlimit="10" stroke-dasharray="18,3.6,3.6,3.6,3.6,3.6" points="
	183.521,207.063 183.139,207.371 182.815,207.808 182.598,208.307 182.522,208.793 "/>
<polyline id="XMLID_32_" fill="none" stroke="#000000" stroke-width="0.51" stroke-linecap="round" stroke-linejoin="round" stroke-miterlimit="10" stroke-dasharray="18,3.6,3.6,3.6,3.6,3.6" points="
	19.966,114.951 20.042,114.466 20.259,113.967 20.582,113.53 20.965,113.221 21.347,113.088 21.671,113.151 21.887,113.4 
	21.963,113.798 21.887,114.283 21.671,114.782 21.347,115.219 20.965,115.528 20.582,115.661 20.259,115.598 20.042,115.348 
	19.966,114.951 "/>
<polyline id="XMLID_31_" fill="none" stroke="#000000" stroke-width="0.51" stroke-linecap="round" stroke-linejoin="round" stroke-miterlimit="10" stroke-dasharray="18,3.6,3.6,3.6,3.6,3.6" points="
	161.248,317.336 161.734,317.745 161.93,318.228 161.812,318.72 161.394,319.153 160.732,319.47 160.633,319.5 "/>
<polyline id="XMLID_30_" fill="none" stroke="#000000" stroke-width="0.51" stroke-linecap="round" stroke-linejoin="round" stroke-miterlimit="10" stroke-dasharray="18,3.6,3.6,3.6,3.6,3.6" points="
	158.556,319.501 158.273,319.405 157.664,319.054 157.318,318.601 157.278,318.105 157.552,317.634 158.101,317.253 
	158.851,317.011 159.703,316.943 160.539,317.056 161.247,317.337 "/>
<polyline id="XMLID_29_" fill="none" stroke="#000000" stroke-width="0.51" stroke-linecap="round" stroke-linejoin="round" stroke-miterlimit="10" stroke-dasharray="18,3.6,3.6,3.6,3.6,3.6" points="
	87.436,278.636 88.195,278.949 89.09,279.103 90.022,279.08 90.891,278.885 91.603,278.536 92.081,278.074 92.273,277.547 
	92.157,277.012 91.747,276.528 91.088,276.147 90.249,275.911 89.323,275.844 88.41,275.954 87.608,276.23 87.005,276.641 
	86.666,277.143 86.628,277.681 86.894,278.198 87.436,278.636 "/>
<polyline id="XMLID_28_" fill="none" stroke="#000000" stroke-width="0.51" stroke-linecap="round" stroke-linejoin="round" stroke-miterlimit="10" stroke-dasharray="18,3.6,3.6,3.6,3.6,3.6" points="
	146.039,231.839 146.142,231.225 146.438,230.804 146.891,230.627 147.447,230.714 148.039,231.056 148.595,231.61 149.048,232.311 
	149.344,233.074 149.446,233.806 149.344,234.42 149.048,234.841 148.595,235.018 148.039,234.931 147.447,234.589 146.891,234.035 
	146.438,233.334 146.142,232.571 146.039,231.839 "/>
<polyline id="XMLID_27_" fill="none" stroke="#000000" stroke-width="0.51" stroke-linecap="round" stroke-linejoin="round" stroke-miterlimit="10" stroke-dasharray="18,3.6,3.6,3.6,3.6,3.6" points="
	90.838,267.084 90.745,266.49 90.48,265.879 90.084,265.345 89.616,264.967 "/>
<polyline id="XMLID_26_" fill="none" stroke="#000000" stroke-width="0.51" stroke-linecap="round" stroke-linejoin="round" stroke-miterlimit="10" stroke-dasharray="18,3.6,3.6,3.6,3.6,3.6" points="
	60.772,249.727 60.679,249.133 60.414,248.522 60.018,247.988 59.55,247.61 "/>
<polyline id="XMLID_25_" fill="none" stroke="#000000" stroke-width="0.51" stroke-linecap="round" stroke-linejoin="round" stroke-miterlimit="10" stroke-dasharray="18,3.6,3.6,3.6,3.6,3.6" points="
	119.381,216.449 119.278,215.717 118.982,214.954 118.529,214.253 117.973,213.699 117.381,213.357 116.825,213.27 116.372,213.447 
	116.076,213.868 115.974,214.482 116.076,215.214 116.372,215.977 116.825,216.678 117.381,217.232 117.973,217.574 
	118.529,217.661 118.982,217.484 119.278,217.063 119.381,216.449 "/>
<g id="XMLID_1_">
	
		<line id="XMLID_24_" fill="none" stroke="#000000" stroke-width="0.51" stroke-linecap="round" stroke-linejoin="round" stroke-miterlimit="10" stroke-dasharray="18,3.6,3.6,3.6,3.6,3.6" stroke-dashoffset="8" x1="160.258" y1="156.596" x2="160.258" y2="194.084"/>
	
		<line id="XMLID_23_" fill="none" stroke="#000000" stroke-width="0.51" stroke-linecap="round" stroke-linejoin="round" stroke-miterlimit="10" stroke-dasharray="18,3.6,3.6,3.6,3.6,3.6" x1="154.47" y1="153.254" x2="160.259" y2="156.596"/>
	
		<line id="XMLID_22_" fill="none" stroke="#000000" stroke-width="0.51" stroke-linecap="round" stroke-linejoin="round" stroke-miterlimit="10" stroke-dasharray="18,3.6,3.6,3.6,3.6,3.6" stroke-dashoffset="11" x1="154.47" y1="136.596" x2="154.47" y2="153.254"/>
	
		<line id="XMLID_21_" fill="none" stroke="#000000" stroke-width="0.51" stroke-linecap="round" stroke-linejoin="round" stroke-miterlimit="10" stroke-dasharray="18,3.6,3.6,3.6,3.6,3.6" x1="168.477" y1="130.093" x2="164.632" y2="127.873"/>
	
		<line id="XMLID_20_" fill="none" stroke="#000000" stroke-width="0.51" stroke-linecap="round" stroke-linejoin="round" stroke-miterlimit="10" stroke-dasharray="18,3.6,3.6,3.6,3.6,3.6" stroke-dashoffset="11" x1="168.477" y1="161.225" x2="168.477" y2="130.093"/>
	
		<line id="XMLID_19_" fill="none" stroke="#000000" stroke-width="0.51" stroke-linecap="round" stroke-linejoin="round" stroke-miterlimit="10" stroke-dasharray="18,3.6,3.6,3.6,3.6,3.6" x1="162.487" y1="157.767" x2="168.476" y2="161.224"/>
	
		<line id="XMLID_18_" fill="none" stroke="#000000" stroke-width="0.51" stroke-linecap="round" stroke-linejoin="round" stroke-miterlimit="10" stroke-dasharray="18,3.6,3.6,3.6,3.6,3.6" stroke-dashoffset="8" x1="162.487" y1="194.083" x2="162.487" y2="157.767"/>
	
		<line id="XMLID_17_" fill="none" stroke="#000000" stroke-width="0.51" stroke-linecap="round" stroke-linejoin="round" stroke-miterlimit="10" stroke-dasharray="18,3.6,3.6,3.6,3.6,3.6" x1="182.815" y1="207.808" x2="168.569" y2="199.584"/>
	
		<line id="XMLID_16_" fill="none" stroke="#000000" stroke-width="0.51" stroke-linecap="round" stroke-linejoin="round" stroke-miterlimit="10" stroke-dasharray="18,3.6,3.6,3.6,3.6,3.6" stroke-dashoffset="8" x1="44.228" y1="89.613" x2="44.228" y2="125.814"/>
	
		<line id="XMLID_15_" fill="none" stroke="#000000" stroke-width="0.51" stroke-linecap="round" stroke-linejoin="round" stroke-miterlimit="10" stroke-dasharray="18,3.6,3.6,3.6,3.6,3.6" x1="50.017" y1="92.954" x2="44.228" y2="89.612"/>
	
		<line id="XMLID_14_" fill="none" stroke="#000000" stroke-width="0.51" stroke-linecap="round" stroke-linejoin="round" stroke-miterlimit="10" stroke-dasharray="18,3.6,3.6,3.6,3.6,3.6" stroke-dashoffset="11" x1="50.017" y1="61.707" x2="50.017" y2="92.954"/>
	
		<line id="XMLID_13_" fill="none" stroke="#000000" stroke-width="0.51" stroke-linecap="round" stroke-linejoin="round" stroke-miterlimit="10" stroke-dasharray="18,3.6,3.6,3.6,3.6,3.6" x1="46.172" y1="59.487" x2="50.017" y2="61.707"/>
	
		<line id="XMLID_12_" fill="none" stroke="#000000" stroke-width="0.51" stroke-linecap="round" stroke-linejoin="round" stroke-miterlimit="10" stroke-dasharray="18,3.6,3.6,3.6,3.6,3.6" stroke-dashoffset="11" x1="36.01" y1="85.043" x2="36.01" y2="68.211"/>
	
		<line id="XMLID_11_" fill="none" stroke="#000000" stroke-width="0.51" stroke-linecap="round" stroke-linejoin="round" stroke-miterlimit="10" stroke-dasharray="18,3.6,3.6,3.6,3.6,3.6" x1="41.999" y1="88.5" x2="36.01" y2="85.043"/>
	
		<line id="XMLID_10_" fill="none" stroke="#000000" stroke-width="0.51" stroke-linecap="round" stroke-linejoin="round" stroke-miterlimit="10" stroke-dasharray="18,3.6,3.6,3.6,3.6,3.6" stroke-dashoffset="8" x1="41.999" y1="125.813" x2="41.999" y2="88.5"/>
	
		<line id="XMLID_9_" fill="none" stroke="#000000" stroke-width="0.51" stroke-linecap="round" stroke-linejoin="round" stroke-miterlimit="10" stroke-dasharray="18,3.6,3.6,3.6,3.6,3.6" x1="20.965" y1="114.374" x2="31.125" y2="120.239"/>
	
		<line id="XMLID_8_" fill="none" stroke="#000000" stroke-width="0.51" stroke-linecap="round" stroke-linejoin="round" stroke-miterlimit="10" stroke-dasharray="18,3.6,3.6,3.6,3.6,3.6" stroke-dashoffset="7" x1="159.594" y1="208.19" x2="159.594" y2="318.291"/>
	
		<line id="XMLID_7_" fill="none" stroke="#000000" stroke-width="0.51" stroke-linecap="round" stroke-linejoin="round" stroke-miterlimit="10" stroke-dasharray="18,3.6,3.6,3.6,3.6,3.6" x1="89.44" y1="277.479" x2="89.44" y2="268.935"/>
	
		<line id="XMLID_6_" fill="none" stroke="#000000" stroke-width="0.51" stroke-linecap="round" stroke-linejoin="round" stroke-miterlimit="10" stroke-dasharray="18,3.6,3.6,3.6,3.6,3.6" stroke-dashoffset="-3" x1="89.44" y1="264.866" x2="89.44" y2="167.906"/>
	
		<line id="XMLID_5_" fill="none" stroke="#000000" stroke-width="0.51" stroke-linecap="round" stroke-linejoin="round" stroke-miterlimit="10" stroke-dasharray="18,3.6,3.6,3.6,3.6,3.6" stroke-dashoffset="11" x1="90.48" y1="265.88" x2="147.743" y2="232.823"/>
	
		<line id="XMLID_4_" fill="none" stroke="#000000" stroke-width="0.51" stroke-linecap="round" stroke-linejoin="round" stroke-miterlimit="10" stroke-dasharray="18,3.6,3.6,3.6,3.6,3.6" stroke-dashoffset="11" x1="117.677" y1="215.466" x2="60.414" y2="248.523"/>
	
		<line id="XMLID_3_" fill="none" stroke="#000000" stroke-width="0.51" stroke-linecap="round" stroke-linejoin="round" stroke-miterlimit="10" stroke-dasharray="18,3.6,3.6,3.6,3.6,3.6" stroke-dashoffset="7" x1="140.833" y1="211.173" x2="76.19" y2="248.49"/>
	
		<line id="XMLID_2_" fill="none" stroke="#000000" stroke-width="0.51" stroke-linecap="round" stroke-linejoin="round" stroke-miterlimit="10" stroke-dasharray="18,3.6,3.6,3.6,3.6,3.6" stroke-dashoffset="11" x1="52.839" y1="235.01" x2="111.301" y2="201.26"/>
</g>
</svg>
