<?xml version="1.0" encoding="utf-8"?>
<!-- Generator: Adobe Illustrator 19.0.0, SVG Export Plug-In . SVG Version: 6.00 Build 0)  -->
<svg version="1.0" id="Layer_1" xmlns="http://www.w3.org/2000/svg" xmlns:xlink="http://www.w3.org/1999/xlink" x="0px" y="0px"
	 width="16.2px" height="25.6px" viewBox="-411.75 286.221 16.2 25.6" enable-background="new -411.75 286.221 16.2 25.6"
	 xml:space="preserve">
<g>
	
		<path fill="none" stroke="#000000" stroke-width="0.25" stroke-linecap="round" stroke-linejoin="round" stroke-miterlimit="10" d="
		M-400,296.671l-0.1,0.1l-0.1,0.1l-0.2,0.2l-0.2,0.1l-0.2,0.1l-0.3,0.1l-0.2,0.1l-0.3,0.1l-0.3,0.1h-0.2l-0.3,0.1h-0.3l-0.3,0.1
		h-0.3h-0.3h-0.3h-0.3l-0.3-0.1h-0.3l-0.3-0.1h-0.3l-0.3-0.1l-0.2-0.1l-0.3-0.1l-0.2-0.1l-0.2-0.1 M-406.6,297.171l-0.2-0.1
		l-0.2-0.2l-0.2-0.1l-0.1-0.1 M-406.7,297.071l0.2,0.1l0.3,0.1l0.2,0.1l0.3,0.1l0.3,0.1h0.3l0.3,0.1h0.3l0.3,0.1h0.3h0.3h0.3h0.3
		l0.3-0.1h0.3l0.3-0.1h0.3l0.3-0.1l0.2-0.1l0.2-0.1"/>
	<path fill="none" stroke="#000000" stroke-width="0.5" stroke-linecap="round" stroke-linejoin="round" stroke-miterlimit="10" d="
		M-406.1,310.971l0.2,0.1l0.2,0.1l0.3,0.1h0.2l0.3,0.1l0.2,0.1h0.3h0.3h0.2l0.3,0.1l0.3-0.1h0.3h0.2l0.3-0.1h0.2l0.3-0.1l0.2-0.1
		h0.3l0.2-0.1l0.1-0.1 M-399.5,308.471l0.1,0.1v0.1v0.2v0.2v0.2l-0.1,0.1l-0.1,0.2l-0.1,0.2l-0.1,0.1l-0.1,0.2l-0.2,0.1l-0.1,0.2
		l-0.2,0.1l-0.2,0.2 M-400.6,310.671l-0.3,0.1l-0.2,0.1l-0.2,0.1l-0.3,0.1l-0.3,0.1h-0.3l-0.3,0.1h-0.3h-0.3l-0.3,0.1h-0.3h-0.3
		l-0.3-0.1h-0.3h-0.3l-0.3-0.1l-0.2-0.1h-0.3l-0.3-0.1l-0.2-0.1l-0.3-0.2l-0.2-0.1l-0.2-0.1l-0.2-0.1l-0.1-0.2l-0.2-0.1l-0.1-0.2
		l-0.1-0.2l-0.1-0.1l-0.1-0.2v-0.2l-0.1-0.2v-0.1l0.1-0.2v-0.2 M-407.9,307.971L-407.9,307.971v0.2l0.1,0.2v0.2l0.1,0.1l0.1,0.2
		l0.1,0.2l0.1,0.1l0.2,0.2l0.2,0.1l0.2,0.1l0.2,0.2l0.2,0.1l0.2,0.1l0.3,0.1l0.2,0.1l0.3,0.1h0.3l0.3,0.1h0.3l0.3,0.1h0.3h0.3h0.3
		h0.3l0.3-0.1h0.3l0.3-0.1h0.2l0.3-0.1l0.3-0.1l0.2-0.1l0.3-0.1l0.2-0.1l0.2-0.2l0.2-0.1l0.1-0.1l0.2-0.2l0.1-0.1l0.2-0.2l0.1-0.2
		v-0.1l0.1-0.2v-0.2v-0.2 M-407.8,307.371v0.1l-0.1,0.2v0.2v0.1l0.1,0.2v0.2l0.1,0.2l0.1,0.1l0.1,0.2l0.1,0.1l0.2,0.2l0.2,0.1
		l0.2,0.2l0.2,0.1l0.2,0.1l0.2,0.1l0.3,0.1l0.2,0.1l0.3,0.1l0.3,0.1h0.3l0.3,0.1h0.3h0.3h0.3h0.3h0.3h0.3l0.3-0.1h0.3l0.2-0.1
		l0.3-0.1l0.3-0.1l0.2-0.1l0.3-0.1l0.2-0.1l0.2-0.1l0.2-0.2l0.1-0.1l0.2-0.2l0.1-0.1l0.2-0.2l0.1-0.1v-0.2l0.1-0.2v-0.2v-0.1v-0.2
		v-0.2v-0.1 M-407.9,306.971L-407.9,306.971v0.1l0.1,0.2v0.2l0.1,0.1l0.1,0.2l0.1,0.2l0.1,0.1l0.2,0.2l0.2,0.1l0.2,0.2l0.2,0.1
		l0.2,0.1l0.2,0.1l0.3,0.1l0.2,0.1l0.3,0.1l0.3,0.1h0.3l0.3,0.1h0.3h0.3h0.3h0.3h0.3h0.3l0.3-0.1h0.3l0.2-0.1l0.3-0.1l0.3-0.1
		l0.2-0.1l0.3-0.1l0.2-0.1l0.2-0.1l0.2-0.2l0.1-0.1l0.2-0.2l0.1-0.1l0.2-0.2l0.1-0.2v-0.1l0.1-0.2v-0.2v-0.1 M-407.8,306.271v0.1
		l-0.1,0.2v0.2v0.2l0.1,0.1v0.2l0.1,0.2l0.1,0.1l0.1,0.2l0.1,0.2l0.2,0.1l0.2,0.2l0.2,0.1l0.2,0.1l0.2,0.1l0.2,0.2l0.3,0.1h0.2
		l0.3,0.1l0.3,0.1h0.3l0.3,0.1h0.3h0.3h0.3h0.3h0.3h0.3l0.3-0.1h0.3l0.2-0.1l0.3-0.1h0.3l0.2-0.1l0.3-0.2l0.2-0.1l0.2-0.1l0.2-0.1
		l0.1-0.2l0.2-0.1l0.1-0.2l0.2-0.2l0.1-0.1v-0.2l0.1-0.2v-0.1v-0.2v-0.2v-0.2v-0.1 M-407.9,305.871L-407.9,305.871v0.2l0.1,0.1v0.2
		l0.1,0.2l0.1,0.1l0.1,0.2l0.1,0.2l0.2,0.1l0.2,0.2l0.2,0.1l0.2,0.1l0.2,0.1l0.2,0.1l0.3,0.1l0.2,0.1l0.3,0.1l0.3,0.1h0.3l0.3,0.1
		h0.3h0.3h0.3h0.3h0.3h0.3l0.3-0.1h0.3l0.2-0.1l0.3-0.1l0.3-0.1l0.2-0.1l0.3-0.1l0.2-0.1l0.2-0.1l0.2-0.1l0.1-0.2l0.2-0.1l0.1-0.2
		l0.2-0.2l0.1-0.1v-0.2l0.1-0.2v-0.1v-0.2 M-407.8,305.271v0.1l-0.1,0.1v0.2v0.2l0.1,0.2v0.1l0.1,0.2l0.1,0.2l0.1,0.1l0.1,0.2
		l0.2,0.1l0.2,0.2l0.2,0.1l0.2,0.2l0.2,0.1l0.2,0.1l0.3,0.1l0.2,0.1l0.3,0.1h0.3l0.3,0.1h0.3h0.3l0.3,0.1h0.3h0.3l0.3-0.1h0.3h0.3
		l0.3-0.1h0.2l0.3-0.1l0.3-0.1l0.2-0.1l0.3-0.1l0.2-0.1l0.2-0.2l0.2-0.1l0.1-0.2l0.2-0.1l0.1-0.2l0.2-0.1l0.1-0.2v-0.2l0.1-0.1v-0.2
		v-0.2v-0.2v-0.1v-0.1 M-407.9,304.771L-407.9,304.771v0.2l0.1,0.2v0.1l0.1,0.2l0.1,0.2l0.1,0.1l0.1,0.2l0.2,0.1l0.2,0.2l0.2,0.1
		l0.2,0.1l0.2,0.2l0.2,0.1l0.3,0.1l0.2,0.1h0.3l0.3,0.1l0.3,0.1h0.3h0.3l0.3,0.1h0.3h0.3l0.3-0.1h0.3h0.3l0.3-0.1l0.2-0.1h0.3
		l0.3-0.1l0.2-0.1l0.3-0.1l0.2-0.2l0.2-0.1l0.2-0.1l0.1-0.2l0.2-0.1l0.1-0.2l0.2-0.1l0.1-0.2v-0.2l0.1-0.1v-0.2v-0.2
		 M-407.8,304.171v0.1l-0.1,0.2v0.1v0.2l0.1,0.2v0.2l0.1,0.1l0.1,0.2l0.1,0.2l0.1,0.1l0.2,0.2l0.2,0.1l0.2,0.2l0.2,0.1l0.2,0.1
		l0.2,0.1l0.3,0.1l0.2,0.1l0.3,0.1h0.3l0.3,0.1h0.3l0.3,0.1h0.3h0.3h0.3h0.3l0.3-0.1h0.3l0.3-0.1h0.2l0.3-0.1l0.3-0.1l0.2-0.1
		l0.3-0.1l0.2-0.1l0.2-0.1l0.2-0.2l0.1-0.1l0.2-0.2l0.1-0.1l0.2-0.2l0.1-0.2v-0.1l0.1-0.2v-0.2v-0.2v-0.1v-0.2v-0.1 M-407.9,303.671
		L-407.9,303.671v0.2l0.1,0.2v0.2l0.1,0.1l0.1,0.2l0.1,0.2l0.1,0.1l0.2,0.2l0.2,0.1l0.2,0.1l0.2,0.2l0.2,0.1l0.2,0.1l0.3,0.1
		l0.2,0.1l0.3,0.1h0.3l0.3,0.1h0.3l0.3,0.1h0.3h0.3h0.3h0.3l0.3-0.1h0.3l0.3-0.1h0.2l0.3-0.1l0.3-0.1l0.2-0.1l0.3-0.1l0.2-0.1
		l0.2-0.2l0.2-0.1l0.1-0.1l0.2-0.2l0.1-0.1l0.2-0.2l0.1-0.2v-0.1l0.1-0.2v-0.2v-0.2 M-407.8,303.071v0.1l-0.1,0.2v0.2v0.1l0.1,0.2
		v0.2l0.1,0.2l0.1,0.1l0.1,0.2l0.1,0.1l0.2,0.2l0.2,0.1l0.2,0.2l0.2,0.1l0.2,0.1l0.2,0.1l0.3,0.1l0.2,0.1l0.3,0.1l0.3,0.1h0.3
		l0.3,0.1h0.3h0.3h0.3h0.3h0.3h0.3l0.3-0.1h0.3l0.2-0.1l0.3-0.1l0.3-0.1l0.2-0.1l0.3-0.1l0.2-0.1l0.2-0.1l0.2-0.2l0.1-0.1l0.2-0.2
		l0.1-0.1l0.2-0.2l0.1-0.1v-0.2l0.1-0.2v-0.2v-0.1v-0.2v-0.2v-0.1 M-407.9,302.671L-407.9,302.671v0.1l0.1,0.2v0.2l0.1,0.2l0.1,0.1
		l0.1,0.2l0.1,0.1l0.2,0.2l0.2,0.1l0.2,0.2l0.2,0.1l0.2,0.1l0.2,0.1l0.3,0.1l0.2,0.1l0.3,0.1l0.3,0.1h0.3l0.3,0.1h0.3h0.3h0.3h0.3
		h0.3h0.3l0.3-0.1h0.3l0.2-0.1l0.3-0.1l0.3-0.1l0.2-0.1l0.3-0.1l0.2-0.1l0.2-0.1l0.2-0.2l0.1-0.1l0.2-0.2l0.1-0.1l0.2-0.2l0.1-0.1
		v-0.2l0.1-0.2v-0.2v-0.1 M-407.8,301.971v0.1l-0.1,0.2v0.2v0.2l0.1,0.1v0.2l0.1,0.2l0.1,0.2l0.1,0.1l0.1,0.2l0.2,0.1l0.2,0.2
		l0.2,0.1l0.2,0.1l0.2,0.2l0.2,0.1l0.3,0.1l0.2,0.1h0.3l0.3,0.1l0.3,0.1h0.3h0.3h0.3l0.3,0.1l0.3-0.1h0.3h0.3h0.3l0.3-0.1l0.2-0.1
		h0.3l0.3-0.1l0.2-0.1l0.3-0.1l0.2-0.2l0.2-0.1l0.2-0.1l0.1-0.2l0.2-0.1l0.1-0.2l0.2-0.1l0.1-0.2v-0.2l0.1-0.2v-0.1v-0.2v-0.2v-0.2
		v-0.1 M-407.9,301.571L-407.9,301.571v0.2l0.1,0.1v0.2l0.1,0.2l0.1,0.1l0.1,0.2l0.1,0.2l0.2,0.1l0.2,0.2l0.2,0.1l0.2,0.1l0.2,0.1
		l0.2,0.2l0.3,0.1h0.2l0.3,0.1l0.3,0.1h0.3l0.3,0.1h0.3h0.3h0.3h0.3h0.3h0.3l0.3-0.1h0.3l0.2-0.1l0.3-0.1h0.3l0.2-0.1l0.3-0.2
		l0.2-0.1l0.2-0.1l0.2-0.1l0.1-0.2l0.2-0.1l0.1-0.2l0.2-0.2l0.1-0.1v-0.2l0.1-0.2v-0.1v-0.2 M-407.8,300.971v0.1l-0.1,0.1v0.2v0.2
		l0.1,0.2v0.1l0.1,0.2l0.1,0.2l0.1,0.1l0.1,0.2l0.2,0.1l0.2,0.2l0.2,0.1l0.2,0.2l0.2,0.1l0.2,0.1l0.3,0.1l0.2,0.1l0.3,0.1h0.3
		l0.3,0.1h0.3l0.3,0.1h0.3h0.3h0.3h0.3l0.3-0.1h0.3l0.3-0.1h0.2l0.3-0.1l0.3-0.1l0.2-0.1l0.3-0.1l0.2-0.1l0.2-0.2l0.2-0.1l0.1-0.2
		l0.2-0.1l0.1-0.2l0.2-0.1l0.1-0.2v-0.2l0.1-0.1v-0.2v-0.2v-0.2v-0.1v-0.1 M-407.9,300.471L-407.9,300.471v0.2l0.1,0.2v0.1l0.1,0.2
		l0.1,0.2l0.1,0.1l0.1,0.2l0.2,0.1l0.2,0.2l0.2,0.1l0.2,0.1l0.2,0.2l0.2,0.1l0.3,0.1l0.2,0.1h0.3l0.3,0.1l0.3,0.1h0.3h0.3l0.3,0.1
		h0.3h0.3l0.3-0.1h0.3h0.3l0.3-0.1l0.2-0.1h0.3l0.3-0.1l0.2-0.1l0.3-0.1l0.2-0.2l0.2-0.1l0.2-0.1l0.1-0.2l0.2-0.1l0.1-0.2l0.2-0.1
		l0.1-0.2v-0.2l0.1-0.1v-0.2v-0.2 M-407.8,299.871v0.1l-0.1,0.2v0.1v0.2l0.1,0.2v0.2l0.1,0.1l0.1,0.2l0.1,0.2l0.1,0.1l0.2,0.2
		l0.2,0.1l0.2,0.2l0.2,0.1l0.2,0.1l0.2,0.1l0.3,0.1l0.2,0.1l0.3,0.1h0.3l0.3,0.1h0.3l0.3,0.1h0.3h0.3h0.3h0.3l0.3-0.1h0.3l0.3-0.1
		h0.2l0.3-0.1l0.3-0.1l0.2-0.1l0.3-0.1l0.2-0.1l0.2-0.1l0.2-0.2l0.1-0.1l0.2-0.2l0.1-0.1l0.2-0.2l0.1-0.2v-0.1l0.1-0.2v-0.2v-0.2
		v-0.1v-0.2v-0.1 M-405.6,292.171l1.2-0.2 M-404.4,291.971l1.6-0.2 M-407.9,299.371L-407.9,299.371v0.2l0.1,0.2v0.2l0.1,0.1l0.1,0.2
		l0.1,0.2l0.1,0.1l0.2,0.2l0.2,0.1l0.2,0.1l0.2,0.2l0.2,0.1l0.2,0.1l0.3,0.1l0.2,0.1l0.3,0.1h0.3l0.3,0.1h0.3l0.3,0.1h0.3h0.3h0.3
		h0.3l0.3-0.1h0.3l0.3-0.1h0.2l0.3-0.1l0.3-0.1l0.2-0.1l0.3-0.1l0.2-0.1l0.2-0.2l0.2-0.1l0.1-0.1l0.2-0.2l0.1-0.1l0.2-0.2l0.1-0.2
		v-0.1l0.1-0.2v-0.2v-0.2 M-402.8,291.771v-2.6 M-402.8,291.771l1.2,0.6 M-407.8,298.771v0.1l-0.1,0.2v0.2v0.1l0.1,0.2v0.2l0.1,0.2
		l0.1,0.1l0.1,0.2l0.1,0.2l0.2,0.1l0.2,0.1l0.2,0.2l0.2,0.1l0.2,0.1l0.2,0.1l0.3,0.1l0.2,0.1l0.3,0.1l0.3,0.1h0.3l0.3,0.1h0.3h0.3
		h0.3h0.3h0.3h0.3l0.3-0.1h0.3l0.2-0.1l0.3-0.1l0.3-0.1l0.2-0.1l0.3-0.1l0.2-0.1l0.2-0.1l0.2-0.2l0.1-0.1l0.2-0.1l0.1-0.2l0.2-0.2
		l0.1-0.1v-0.2l0.1-0.2v-0.2v-0.1v-0.2v-0.2v-0.1 M-405.9,291.971v-2.3 M-401.6,292.371l-0.2-0.1l-0.2-0.1h-0.3l-0.2-0.1l-0.3-0.1
		h-0.2h-0.3h-0.3h-0.2h-0.3h-0.3 M-404.4,291.971l-0.2,0.1h-0.3l-0.2,0.1l-0.2,0.1h-0.1 M-407.9,298.371L-407.9,298.371v0.1l0.1,0.2
		v0.2l0.1,0.2l0.1,0.1l0.1,0.2l0.1,0.1l0.2,0.2l0.2,0.1l0.2,0.2l0.2,0.1l0.2,0.1l0.2,0.1l0.3,0.1l0.2,0.1l0.3,0.1l0.3,0.1h0.3
		l0.3,0.1h0.3h0.3h0.3h0.3h0.3h0.3l0.3-0.1h0.3l0.2-0.1l0.3-0.1l0.3-0.1l0.2-0.1l0.3-0.1l0.2-0.1l0.2-0.1l0.2-0.2l0.1-0.1l0.2-0.2
		l0.1-0.1l0.2-0.2l0.1-0.1v-0.2l0.1-0.2v-0.2v-0.1 M-401.1,297.271h0.1l0.2-0.1l0.2-0.1 M-411.5,292.371v0.2l0.1,0.3v0.2l0.1,0.2
		l0.1,0.3l0.1,0.2l0.1,0.2l0.2,0.2l0.2,0.3l0.2,0.2l0.2,0.2l0.2,0.2l0.3,0.2l0.2,0.1l0.3,0.2 M-409.2,295.571l0.3,0.2l0.3,0.1
		l0.4,0.2l0.3,0.1l0.4,0.1l0.3,0.2l0.4,0.1h0.4l0.4,0.1l0.4,0.1h0.4l0.4,0.1h0.4h0.4h0.4h0.4h0.5h0.4l0.4-0.1h0.4l0.4-0.1l0.4-0.1
		l0.3-0.1l0.4-0.1l0.4-0.1l0.3-0.1l0.4-0.2l0.3-0.1l0.3-0.2l0.3-0.1l0.3-0.2l0.2-0.2l0.3-0.2l0.2-0.2l0.2-0.2l0.2-0.2l0.2-0.2
		l0.1-0.2l0.2-0.3l0.1-0.2l0.1-0.2v-0.3l0.1-0.2v-0.2v-0.2 M-409.2,294.171l0.3,0.2l0.3,0.2l0.4,0.1l0.3,0.1l0.4,0.2l0.3,0.1
		l0.4,0.1l0.4,0.1l0.4,0.1h0.4l0.4,0.1h0.4l0.4,0.1h0.4h0.4h0.4l0.5-0.1h0.4h0.4l0.4-0.1l0.4-0.1h0.4l0.3-0.1l0.4-0.1l0.4-0.2
		l0.3-0.1l0.4-0.1l0.3-0.2l0.3-0.1l0.3-0.2l0.3-0.2l0.2-0.2l0.3-0.1l0.2-0.2l0.2-0.3l0.2-0.2l0.2-0.2l0.1-0.2l0.2-0.2l0.1-0.3
		l0.1-0.2v-0.2l0.1-0.3v-0.2v-0.2v-0.3v-0.2l-0.1-0.3l-0.1-0.2l-0.1-0.2l-0.1-0.3l-0.2-0.2l-0.1-0.2l-0.2-0.2l-0.2-0.2l-0.2-0.2
		l-0.3-0.2l-0.3-0.2l-0.2-0.2l-0.3-0.1l-0.3-0.2l-0.4-0.2l-0.3-0.1l-0.3-0.1l-0.4-0.1l-0.4-0.2l-0.3-0.1h-0.4l-0.4-0.1l-0.4-0.1
		h-0.4l-0.4-0.1h-0.5h-0.4h-0.4h-0.4l-0.4,0.1h-0.4h-0.4l-0.4,0.1l-0.4,0.1l-0.4,0.1l-0.4,0.1l-0.3,0.1l-0.4,0.1l-0.4,0.1l-0.3,0.2
		l-0.3,0.1l-0.3,0.2l-0.3,0.2l-0.3,0.1l-0.2,0.2l-0.3,0.2l-0.2,0.2l-0.2,0.2l-0.2,0.3l-0.1,0.2l-0.2,0.2l-0.1,0.2l-0.1,0.3l-0.1,0.2
		v0.2l-0.1,0.3v0.2v0.3l0.1,0.2v0.2l0.1,0.3l0.1,0.2l0.1,0.2l0.1,0.3l0.2,0.2l0.2,0.2l0.2,0.2l0.2,0.2l0.2,0.2l0.3,0.2l0.2,0.2
		L-409.2,294.171 M-406.8,291.471l0.9-1.8 M-405.9,289.671l3.1-0.5 M-402.8,289.171l2.3,1.4 M-400.5,290.571l-0.8,1.8
		 M-401.3,292.371l-3.2,0.5 M-404.5,292.871l-2.3-1.4 M-401.2,310.971l0.6-0.3 M-406.6,310.671l0.5,0.3 M-399.4,307.971v-0.1
		 M-407.9,307.871v0.1 M-399.4,306.971v-0.2 M-407.9,306.771v0.2 M-399.4,305.871v-0.2 M-407.9,305.671v0.2 M-399.4,304.771v-0.2
		 M-407.9,304.571v0.2 M-399.4,303.671v-0.1 M-407.9,303.571v0.1 M-399.4,302.671v-0.2 M-407.9,302.471v0.2 M-399.4,301.571v-0.2
		 M-407.9,301.371v0.2 M-399.4,300.471v-0.2 M-407.9,300.271v0.2 M-399.4,299.371v-0.1 M-407.9,299.271v0.1 M-399.4,298.371v-2
		 M-407.9,296.371v2 M-400.6,297.071l2.5-1.5 M-409.2,295.571l2.5,1.5 M-395.8,292.371v-1.4 M-411.5,290.971v1.4"/>
</g>
</svg>
