<?xml version="1.0" encoding="utf-8"?>
<!-- Generator: Adobe Illustrator 19.0.0, SVG Export Plug-In . SVG Version: 6.00 Build 0)  -->
<svg version="1.0" id="Layer_1" xmlns="http://www.w3.org/2000/svg" xmlns:xlink="http://www.w3.org/1999/xlink" x="0px" y="0px"
	 width="16.2px" height="44.1px" viewBox="0 0 16.2 44.1" enable-background="new 0 0 16.2 44.1" xml:space="preserve">
<g>
	
		<path fill="none" stroke="#000000" stroke-width="0.25" stroke-linecap="round" stroke-linejoin="round" stroke-miterlimit="10" d="
		M11.75,10.45l-0.2,0.2l-0.2,0.2l-0.3,0.1l-0.3,0.2l-0.3,0.1l-0.3,0.1l-0.4,0.1l-0.4,0.1h-0.3l-0.4,0.1h-0.4h-0.4h-0.4l-0.4-0.1
		h-0.3l-0.4-0.1l-0.3-0.1l-0.4-0.1l-0.3-0.2l-0.3-0.1 M5.05,10.95l-0.2-0.2l-0.2-0.2l-0.2-0.1 M5.05,10.75l0.3,0.2l0.3,0.1l0.3,0.2
		l0.4,0.1h0.3l0.4,0.1l0.4,0.1h0.4h0.4h0.3l0.4-0.1h0.4l0.4-0.1l0.3-0.1"/>
	<path fill="none" stroke="#000000" stroke-width="0.5" stroke-linecap="round" stroke-linejoin="round" stroke-miterlimit="10" d="
		M5.65,43.25l0.3,0.1l0.3,0.1l0.3,0.1l0.3,0.1l0.3,0.1h0.3l0.4,0.1h0.3h0.4l0.3-0.1h0.4l0.3-0.1l0.3-0.1l0.3-0.1l0.3-0.1l0.1-0.1
		 M3.85,41.15v0.2v0.2l0.1,0.2l0.1,0.2l0.2,0.2l0.1,0.2l0.3,0.2l0.2,0.2l0.2,0.2 M5.05,42.95l0.3,0.1l0.3,0.1l0.4,0.2l0.3,0.1h0.4
		l0.3,0.1l0.4,0.1h0.4h0.4h0.4l0.4-0.1h0.3l0.4-0.1l0.4-0.1l0.3-0.1l0.3-0.2l0.3-0.1l0.3-0.2l0.2-0.1l0.2-0.2l0.2-0.2l0.1-0.2
		l0.2-0.2v-0.3l0.1-0.2v-0.2 M3.95,40.65l-0.1,0.1v0.3v0.2v0.2l0.1,0.2l0.1,0.2l0.1,0.3l0.2,0.2l0.2,0.1l0.2,0.2l0.3,0.2l0.3,0.2
		l0.3,0.1l0.3,0.1l0.3,0.1l0.4,0.1l0.4,0.1h0.3h0.4l0.4,0.1l0.4-0.1h0.4h0.3l0.4-0.1l0.4-0.1l0.3-0.1l0.3-0.1l0.3-0.2l0.3-0.1
		l0.2-0.2l0.3-0.2l0.2-0.2l0.1-0.2l0.1-0.2l0.1-0.2l0.1-0.2v-0.3v-0.2l-0.1-0.2v-0.1 M3.85,40.25v0.1v0.2l0.1,0.2l0.1,0.2l0.1,0.2
		l0.2,0.2l0.2,0.2l0.2,0.2l0.3,0.2l0.3,0.1l0.3,0.2l0.3,0.1l0.3,0.1l0.4,0.1l0.4,0.1h0.3h0.4h0.4h0.4h0.4l0.3-0.1h0.4l0.4-0.1
		l0.3-0.1l0.3-0.2l0.3-0.1l0.3-0.2l0.2-0.1l0.3-0.2l0.2-0.2l0.1-0.2l0.1-0.2l0.1-0.2l0.1-0.3v-0.2 M3.95,39.55l-0.1,0.1v0.2v0.3v0.2
		l0.1,0.2l0.1,0.2l0.1,0.2l0.2,0.2l0.2,0.2l0.2,0.2l0.3,0.2l0.3,0.1l0.3,0.2l0.3,0.1l0.3,0.1l0.4,0.1h0.4l0.3,0.1h0.4h0.4h0.4h0.4
		l0.3-0.1h0.4l0.4-0.1l0.3-0.1l0.3-0.2l0.3-0.1l0.3-0.2l0.2-0.1l0.3-0.2l0.2-0.2l0.1-0.2l0.1-0.2l0.1-0.3l0.1-0.2v-0.2v-0.2
		l-0.1-0.2v-0.1 M3.85,39.15v0.1v0.2l0.1,0.2l0.1,0.2l0.1,0.2l0.2,0.2l0.2,0.2l0.2,0.2l0.3,0.2l0.3,0.1l0.3,0.2l0.3,0.1l0.3,0.1
		l0.4,0.1h0.4l0.3,0.1h0.4h0.4h0.4h0.4l0.3-0.1h0.4l0.4-0.1l0.3-0.2l0.3-0.1l0.3-0.1l0.3-0.2l0.2-0.1l0.3-0.2l0.2-0.2l0.1-0.2
		l0.1-0.2l0.1-0.3l0.1-0.2v-0.2 M3.95,38.45l-0.1,0.1v0.2v0.2v0.3l0.1,0.2l0.1,0.2l0.1,0.2l0.2,0.2l0.2,0.2l0.2,0.2l0.3,0.1l0.3,0.2
		l0.3,0.1l0.3,0.2l0.3,0.1l0.4,0.1h0.4l0.3,0.1h0.4h0.4h0.4h0.4l0.3-0.1l0.4-0.1l0.4-0.1l0.3-0.1l0.3-0.1l0.3-0.1l0.3-0.2l0.2-0.2
		l0.3-0.1l0.2-0.2l0.1-0.2l0.1-0.3l0.1-0.2l0.1-0.2v-0.2v-0.2l-0.1-0.3 M3.85,37.95v0.1v0.2l0.1,0.3l0.1,0.2l0.1,0.2l0.2,0.2
		l0.2,0.2l0.2,0.2l0.3,0.1l0.3,0.2l0.3,0.1l0.3,0.2l0.3,0.1h0.4l0.4,0.1l0.3,0.1h0.4h0.4h0.4h0.4l0.3-0.1l0.4-0.1l0.4-0.1l0.3-0.1
		l0.3-0.1l0.3-0.1l0.3-0.2l0.2-0.2l0.3-0.2l0.2-0.2l0.1-0.2l0.1-0.2l0.1-0.2l0.1-0.2v-0.2v-0.1 M3.95,37.35l-0.1,0.1v0.2v0.2v0.2
		l0.1,0.3l0.1,0.2l0.1,0.2l0.2,0.2l0.2,0.2l0.2,0.2l0.3,0.1l0.3,0.2l0.3,0.1l0.3,0.1l0.3,0.1l0.4,0.1l0.4,0.1h0.3l0.4,0.1h0.4h0.4
		l0.4-0.1h0.3l0.4-0.1l0.4-0.1l0.3-0.1l0.3-0.1l0.3-0.2l0.3-0.1l0.2-0.2l0.3-0.2l0.2-0.2l0.1-0.2l0.1-0.2l0.1-0.2l0.1-0.2v-0.2v-0.3
		l-0.1-0.2 M3.85,36.85v0.1v0.2l0.1,0.2l0.1,0.3l0.1,0.2l0.2,0.2l0.2,0.2l0.2,0.1l0.3,0.2l0.3,0.2l0.3,0.1l0.3,0.1l0.3,0.1l0.4,0.1
		l0.4,0.1h0.3l0.4,0.1h0.4h0.4l0.4-0.1h0.3l0.4-0.1l0.4-0.1l0.3-0.1l0.3-0.1l0.3-0.2l0.3-0.1l0.2-0.2l0.3-0.2l0.2-0.2l0.1-0.2
		l0.1-0.2l0.1-0.2l0.1-0.2v-0.3 M3.95,36.15l-0.1,0.1v0.3v0.2v0.2l0.1,0.2l0.1,0.2l0.1,0.3l0.2,0.2l0.2,0.1l0.2,0.2l0.3,0.2l0.3,0.2
		l0.3,0.1l0.3,0.1l0.3,0.1l0.4,0.1l0.4,0.1h0.3h0.4l0.4,0.1l0.4-0.1h0.4h0.3l0.4-0.1l0.4-0.1l0.3-0.1l0.3-0.1l0.3-0.2l0.3-0.1
		l0.2-0.2l0.3-0.2l0.2-0.2l0.1-0.2l0.1-0.2l0.1-0.2l0.1-0.2v-0.3v-0.2l-0.1-0.2v-0.1 M3.85,35.75v0.1v0.2l0.1,0.2l0.1,0.2l0.1,0.2
		l0.2,0.2l0.2,0.2l0.2,0.2l0.3,0.2l0.3,0.1l0.3,0.2l0.3,0.1l0.3,0.1l0.4,0.1l0.4,0.1h0.3h0.4h0.4h0.4h0.4l0.3-0.1h0.4l0.4-0.1
		l0.3-0.1l0.3-0.2l0.3-0.1l0.3-0.2l0.2-0.1l0.3-0.2l0.2-0.2l0.1-0.2l0.1-0.2l0.1-0.2l0.1-0.3v-0.2 M3.95,35.05l-0.1,0.1v0.2v0.3v0.2
		l0.1,0.2l0.1,0.2l0.1,0.2l0.2,0.2l0.2,0.2l0.2,0.2l0.3,0.2l0.3,0.1l0.3,0.2l0.3,0.1l0.3,0.1l0.4,0.1h0.4l0.3,0.1h0.4h0.4h0.4h0.4
		l0.3-0.1h0.4l0.4-0.1l0.3-0.1l0.3-0.2l0.3-0.1l0.3-0.2l0.2-0.1l0.3-0.2l0.2-0.2l0.1-0.2l0.1-0.2l0.1-0.3l0.1-0.2v-0.2v-0.2
		l-0.1-0.2v-0.1 M3.85,34.65v0.1v0.2l0.1,0.2l0.1,0.2l0.1,0.2l0.2,0.2l0.2,0.2l0.2,0.2l0.3,0.2l0.3,0.1l0.3,0.2l0.3,0.1l0.3,0.1
		l0.4,0.1h0.4l0.3,0.1h0.4h0.4h0.4h0.4l0.3-0.1h0.4l0.4-0.1l0.3-0.2l0.3-0.1l0.3-0.1l0.3-0.2l0.2-0.2l0.3-0.1l0.2-0.2l0.1-0.2
		l0.1-0.2l0.1-0.3l0.1-0.2v-0.2 M3.95,33.95l-0.1,0.1v0.2v0.2v0.3l0.1,0.2l0.1,0.2l0.1,0.2l0.2,0.2l0.2,0.2l0.2,0.2l0.3,0.1l0.3,0.2
		l0.3,0.1l0.3,0.2l0.3,0.1l0.4,0.1h0.4l0.3,0.1h0.4h0.4h0.4h0.4l0.3-0.1l0.4-0.1l0.4-0.1l0.3-0.1l0.3-0.1l0.3-0.1l0.3-0.2l0.2-0.2
		l0.3-0.2l0.2-0.1l0.1-0.2l0.1-0.3l0.1-0.2l0.1-0.2v-0.2v-0.2l-0.1-0.3 M3.85,33.45v0.1v0.2l0.1,0.3l0.1,0.2l0.1,0.2l0.2,0.2
		l0.2,0.2l0.2,0.2l0.3,0.1l0.3,0.2l0.3,0.1l0.3,0.2l0.3,0.1h0.4l0.4,0.1l0.3,0.1h0.4h0.4h0.4h0.4l0.3-0.1l0.4-0.1l0.4-0.1l0.3-0.1
		l0.3-0.1l0.3-0.1l0.3-0.2l0.2-0.2l0.3-0.2l0.2-0.2l0.1-0.2l0.1-0.2l0.1-0.2l0.1-0.2v-0.2v-0.1 M3.95,32.85l-0.1,0.1v0.2v0.2v0.2
		l0.1,0.3l0.1,0.2l0.1,0.2l0.2,0.2l0.2,0.2l0.2,0.2l0.3,0.1l0.3,0.2l0.3,0.1l0.3,0.1l0.3,0.1l0.4,0.1l0.4,0.1h0.3l0.4,0.1h0.4h0.4
		l0.4-0.1h0.3l0.4-0.1l0.4-0.1l0.3-0.1l0.3-0.1l0.3-0.2l0.3-0.1l0.2-0.2l0.3-0.2l0.2-0.2l0.1-0.2l0.1-0.2l0.1-0.2l0.1-0.2v-0.2v-0.3
		l-0.1-0.2 M3.85,32.35v0.1v0.2l0.1,0.2l0.1,0.3l0.1,0.2l0.2,0.2l0.2,0.2l0.2,0.1l0.3,0.2l0.3,0.2l0.3,0.1l0.3,0.1l0.3,0.1l0.4,0.1
		l0.4,0.1h0.3l0.4,0.1h0.4h0.4l0.4-0.1h0.3l0.4-0.1l0.4-0.1l0.3-0.1l0.3-0.1l0.3-0.2l0.3-0.1l0.2-0.2l0.3-0.2l0.2-0.2l0.1-0.2
		l0.1-0.2l0.1-0.2l0.1-0.2v-0.3 M3.95,31.65l-0.1,0.1v0.3v0.2v0.2l0.1,0.2l0.1,0.2l0.1,0.3l0.2,0.2l0.2,0.1l0.2,0.2l0.3,0.2l0.3,0.2
		l0.3,0.1l0.3,0.1l0.3,0.1l0.4,0.1l0.4,0.1h0.3h0.4l0.4,0.1l0.4-0.1h0.4h0.3l0.4-0.1l0.4-0.1l0.3-0.1l0.3-0.1l0.3-0.2l0.3-0.1
		l0.2-0.2l0.3-0.2l0.2-0.2l0.1-0.2l0.1-0.2l0.1-0.2l0.1-0.2v-0.3v-0.2l-0.1-0.2v-0.1 M3.85,31.25v0.1v0.2l0.1,0.2l0.1,0.2l0.1,0.2
		l0.2,0.2l0.2,0.2l0.2,0.2l0.3,0.2l0.3,0.1l0.3,0.2l0.3,0.1l0.3,0.1l0.4,0.1l0.4,0.1h0.3h0.4h0.4h0.4h0.4l0.3-0.1h0.4l0.4-0.1
		l0.3-0.1l0.3-0.2l0.3-0.1l0.3-0.2l0.2-0.1l0.3-0.2l0.2-0.2l0.1-0.2l0.1-0.2l0.1-0.2l0.1-0.3v-0.2 M3.95,30.55l-0.1,0.1v0.2v0.3v0.2
		l0.1,0.2l0.1,0.2l0.1,0.2l0.2,0.2l0.2,0.2l0.2,0.2l0.3,0.2l0.3,0.1l0.3,0.2l0.3,0.1l0.3,0.1l0.4,0.1h0.4l0.3,0.1h0.4h0.4h0.4h0.4
		l0.3-0.1h0.4l0.4-0.1l0.3-0.1l0.3-0.2l0.3-0.1l0.3-0.2l0.2-0.1l0.3-0.2l0.2-0.2l0.1-0.2l0.1-0.2l0.1-0.3l0.1-0.2v-0.2v-0.2
		l-0.1-0.2v-0.1 M3.85,30.15L3.85,30.15v0.3l0.1,0.2l0.1,0.2l0.1,0.2l0.2,0.2l0.2,0.2l0.2,0.2l0.3,0.2l0.3,0.1l0.3,0.2l0.3,0.1
		l0.3,0.1l0.4,0.1h0.4l0.3,0.1h0.4h0.4h0.4h0.4l0.3-0.1l0.4-0.1h0.4l0.3-0.2l0.3-0.1l0.3-0.1l0.3-0.2l0.2-0.2l0.3-0.1l0.2-0.2
		l0.1-0.2l0.1-0.2l0.1-0.3l0.1-0.2v-0.2 M3.95,29.45l-0.1,0.1v0.2v0.2v0.3l0.1,0.2l0.1,0.2l0.1,0.2l0.2,0.2l0.2,0.2l0.2,0.2l0.3,0.1
		l0.3,0.2l0.3,0.1l0.3,0.2l0.3,0.1l0.4,0.1h0.4l0.3,0.1h0.4h0.4h0.4h0.4l0.3-0.1l0.4-0.1l0.4-0.1l0.3-0.1l0.3-0.1l0.3-0.1l0.3-0.2
		l0.2-0.2l0.3-0.2l0.2-0.1l0.1-0.2l0.1-0.3l0.1-0.2l0.1-0.2v-0.2v-0.2l-0.1-0.3 M3.85,28.95v0.1v0.2l0.1,0.3l0.1,0.2l0.1,0.2
		l0.2,0.2l0.2,0.2l0.2,0.2l0.3,0.1l0.3,0.2l0.3,0.1l0.3,0.2l0.3,0.1h0.4l0.4,0.1l0.3,0.1h0.4h0.4h0.4l0.4-0.1h0.3l0.4-0.1l0.4-0.1
		l0.3-0.1l0.3-0.1l0.3-0.1l0.3-0.2l0.2-0.2l0.3-0.2l0.2-0.2l0.1-0.2l0.1-0.2l0.1-0.2l0.1-0.2v-0.2v-0.1 M3.95,28.35l-0.1,0.1v0.2
		v0.2v0.2l0.1,0.3l0.1,0.2l0.1,0.2l0.2,0.2l0.2,0.2l0.2,0.2l0.3,0.1l0.3,0.2l0.3,0.1l0.3,0.1l0.3,0.1l0.4,0.1l0.4,0.1h0.3l0.4,0.1
		h0.4h0.4l0.4-0.1h0.3l0.4-0.1l0.4-0.1l0.3-0.1l0.3-0.1l0.3-0.2l0.3-0.1l0.2-0.2l0.3-0.2l0.2-0.2l0.1-0.2l0.1-0.2l0.1-0.2l0.1-0.2
		v-0.2v-0.3l-0.1-0.2 M3.85,27.85v0.1v0.2l0.1,0.2l0.1,0.3l0.1,0.2l0.2,0.2l0.2,0.2l0.2,0.1l0.3,0.2l0.3,0.2l0.3,0.1l0.3,0.1
		l0.3,0.1l0.4,0.1l0.4,0.1h0.3l0.4,0.1h0.4h0.4l0.4-0.1h0.3l0.4-0.1l0.4-0.1l0.3-0.1l0.3-0.1l0.3-0.2l0.3-0.1l0.2-0.2l0.3-0.2
		l0.2-0.2l0.1-0.2l0.1-0.2l0.1-0.2l0.1-0.2v-0.3 M3.95,27.15l-0.1,0.1v0.3v0.2v0.2l0.1,0.2l0.1,0.2l0.1,0.3l0.2,0.2l0.2,0.1l0.2,0.2
		l0.3,0.2l0.3,0.1l0.3,0.2l0.3,0.1l0.3,0.1l0.4,0.1l0.4,0.1h0.3h0.4l0.4,0.1l0.4-0.1h0.4h0.3l0.4-0.1l0.4-0.1l0.3-0.1l0.3-0.1
		l0.3-0.2l0.3-0.1l0.2-0.2l0.3-0.2l0.2-0.2l0.1-0.2l0.1-0.2l0.1-0.2l0.1-0.2v-0.3v-0.2l-0.1-0.2v-0.1 M3.85,26.75v0.1v0.2l0.1,0.2
		l0.1,0.2l0.1,0.2l0.2,0.2l0.2,0.2l0.2,0.2l0.3,0.2l0.3,0.1l0.3,0.2l0.3,0.1l0.3,0.1l0.4,0.1l0.4,0.1h0.3h0.4h0.4h0.4h0.4l0.3-0.1
		h0.4l0.4-0.1l0.3-0.1l0.3-0.2l0.3-0.1l0.3-0.2l0.2-0.1l0.3-0.2l0.2-0.2l0.1-0.2l0.1-0.2l0.1-0.2l0.1-0.3v-0.2 M3.95,26.05l-0.1,0.1
		v0.2v0.3v0.2l0.1,0.2l0.1,0.2l0.1,0.2l0.2,0.2l0.2,0.2l0.2,0.2l0.3,0.2l0.3,0.1l0.3,0.2l0.3,0.1l0.3,0.1l0.4,0.1h0.4l0.3,0.1h0.4
		h0.4h0.4h0.4l0.3-0.1h0.4l0.4-0.1l0.3-0.1l0.3-0.2l0.3-0.1l0.3-0.2l0.2-0.1l0.3-0.2l0.2-0.2l0.1-0.2l0.1-0.2l0.1-0.3l0.1-0.2v-0.2
		v-0.2l-0.1-0.2v-0.1 M3.85,25.65L3.85,25.65v0.3l0.1,0.2l0.1,0.2l0.1,0.2l0.2,0.2l0.2,0.2l0.2,0.2l0.3,0.2l0.3,0.1l0.3,0.2l0.3,0.1
		l0.3,0.1l0.4,0.1h0.4l0.3,0.1h0.4h0.4h0.4h0.4l0.3-0.1l0.4-0.1h0.4l0.3-0.2l0.3-0.1l0.3-0.1l0.3-0.2l0.2-0.2l0.3-0.1l0.2-0.2
		l0.1-0.2l0.1-0.2l0.1-0.3l0.1-0.2v-0.2 M3.95,24.95l-0.1,0.1v0.2v0.2v0.3l0.1,0.2l0.1,0.2l0.1,0.2l0.2,0.2l0.2,0.2l0.2,0.2l0.3,0.1
		l0.3,0.2l0.3,0.1l0.3,0.2l0.3,0.1l0.4,0.1h0.4l0.3,0.1h0.4h0.4h0.4h0.4l0.3-0.1l0.4-0.1l0.4-0.1l0.3-0.1l0.3-0.1l0.3-0.1l0.3-0.2
		l0.2-0.2l0.3-0.2l0.2-0.1l0.1-0.3l0.1-0.2l0.1-0.2l0.1-0.2v-0.2v-0.2l-0.1-0.3 M3.85,24.45v0.1v0.2l0.1,0.3l0.1,0.2l0.1,0.2
		l0.2,0.2l0.2,0.2l0.2,0.2l0.3,0.1l0.3,0.2l0.3,0.1l0.3,0.2l0.3,0.1h0.4l0.4,0.1l0.3,0.1h0.4h0.4h0.4l0.4-0.1h0.3l0.4-0.1l0.4-0.1
		l0.3-0.1l0.3-0.1l0.3-0.1l0.3-0.2l0.2-0.2l0.3-0.2l0.2-0.2l0.1-0.2l0.1-0.2l0.1-0.2l0.1-0.2v-0.2v-0.1 M3.95,23.85l-0.1,0.1v0.2
		v0.2v0.2l0.1,0.3l0.1,0.2l0.1,0.2l0.2,0.2l0.2,0.2l0.2,0.2l0.3,0.1l0.3,0.2l0.3,0.1l0.3,0.1l0.3,0.1l0.4,0.1l0.4,0.1h0.3l0.4,0.1
		h0.4h0.4l0.4-0.1h0.3l0.4-0.1l0.4-0.1l0.3-0.1l0.3-0.1l0.3-0.2l0.3-0.1l0.2-0.2l0.3-0.2l0.2-0.2l0.1-0.2l0.1-0.2l0.1-0.2l0.1-0.2
		v-0.2v-0.3l-0.1-0.2 M3.85,23.35v0.1v0.2l0.1,0.2l0.1,0.3l0.1,0.2l0.2,0.2l0.2,0.2l0.2,0.1l0.3,0.2l0.3,0.2l0.3,0.1l0.3,0.1
		l0.3,0.1l0.4,0.1l0.4,0.1h0.3l0.4,0.1h0.4h0.4l0.4-0.1h0.3l0.4-0.1l0.4-0.1l0.3-0.1l0.3-0.1l0.3-0.2l0.3-0.1l0.2-0.2l0.3-0.2
		l0.2-0.2l0.1-0.2l0.1-0.2l0.1-0.2l0.1-0.2v-0.3 M3.95,22.65l-0.1,0.1v0.3v0.2v0.2l0.1,0.2l0.1,0.2l0.1,0.3l0.2,0.2l0.2,0.1l0.2,0.2
		l0.3,0.2l0.3,0.1l0.3,0.2l0.3,0.1l0.3,0.1l0.4,0.1l0.4,0.1h0.3h0.4l0.4,0.1l0.4-0.1h0.4h0.3l0.4-0.1l0.4-0.1l0.3-0.1l0.3-0.1
		l0.3-0.2l0.3-0.1l0.2-0.2l0.3-0.2l0.2-0.2l0.1-0.2l0.1-0.2l0.1-0.2l0.1-0.3v-0.2v-0.2l-0.1-0.2v-0.1 M3.85,22.25v0.1v0.2l0.1,0.2
		l0.1,0.2l0.1,0.2l0.2,0.2l0.2,0.2l0.2,0.2l0.3,0.2l0.3,0.1l0.3,0.2l0.3,0.1l0.3,0.1l0.4,0.1l0.4,0.1h0.3h0.4h0.4h0.4h0.4l0.3-0.1
		h0.4l0.4-0.1l0.3-0.1l0.3-0.2l0.3-0.1l0.3-0.2l0.2-0.1l0.3-0.2l0.2-0.2l0.1-0.2l0.1-0.2l0.1-0.2l0.1-0.3v-0.2 M3.95,21.55l-0.1,0.1
		v0.2v0.3v0.2l0.1,0.2l0.1,0.2l0.1,0.2l0.2,0.2l0.2,0.2l0.2,0.2l0.3,0.2l0.3,0.1l0.3,0.2l0.3,0.1l0.3,0.1l0.4,0.1h0.4l0.3,0.1h0.4
		h0.4h0.4h0.4l0.3-0.1h0.4l0.4-0.1l0.3-0.1l0.3-0.2l0.3-0.1l0.3-0.2l0.2-0.1l0.3-0.2l0.2-0.2l0.1-0.2l0.1-0.2l0.1-0.3l0.1-0.2v-0.2
		v-0.2l-0.1-0.2v-0.1 M3.85,21.15L3.85,21.15v0.3l0.1,0.2l0.1,0.2l0.1,0.2l0.2,0.2l0.2,0.2l0.2,0.2l0.3,0.2l0.3,0.1l0.3,0.2l0.3,0.1
		l0.3,0.1l0.4,0.1h0.4l0.3,0.1h0.4h0.4h0.4h0.4l0.3-0.1l0.4-0.1h0.4l0.3-0.2l0.3-0.1l0.3-0.1l0.3-0.2l0.2-0.2l0.3-0.1l0.2-0.2
		l0.1-0.2l0.1-0.2l0.1-0.3l0.1-0.2v-0.2 M3.95,20.45l-0.1,0.1v0.2v0.2v0.3l0.1,0.2l0.1,0.2l0.1,0.2l0.2,0.2l0.2,0.2l0.2,0.2l0.3,0.1
		l0.3,0.2l0.3,0.1l0.3,0.2l0.3,0.1l0.4,0.1h0.4l0.3,0.1h0.4h0.4h0.4h0.4l0.3-0.1l0.4-0.1l0.4-0.1l0.3-0.1l0.3-0.1l0.3-0.1l0.3-0.2
		l0.2-0.2l0.3-0.2l0.2-0.1l0.1-0.3l0.1-0.2l0.1-0.2l0.1-0.2v-0.2v-0.2l-0.1-0.3 M3.85,19.95v0.1v0.2l0.1,0.3l0.1,0.2l0.1,0.2
		l0.2,0.2l0.2,0.2l0.2,0.2l0.3,0.1l0.3,0.2l0.3,0.1l0.3,0.2l0.3,0.1h0.4l0.4,0.1l0.3,0.1h0.4h0.4h0.4l0.4-0.1h0.3l0.4-0.1l0.4-0.1
		l0.3-0.1l0.3-0.1l0.3-0.1l0.3-0.2l0.2-0.2l0.3-0.2l0.2-0.2l0.1-0.2l0.1-0.2l0.1-0.2l0.1-0.2v-0.2v-0.1 M3.95,19.35l-0.1,0.1v0.2
		v0.2v0.2l0.1,0.3l0.1,0.2l0.1,0.2l0.2,0.2l0.2,0.2l0.2,0.2l0.3,0.1l0.3,0.2l0.3,0.1l0.3,0.1l0.3,0.1l0.4,0.1l0.4,0.1h0.3l0.4,0.1
		h0.4h0.4l0.4-0.1h0.3l0.4-0.1l0.4-0.1l0.3-0.1l0.3-0.1l0.3-0.2l0.3-0.1l0.2-0.2l0.3-0.2l0.2-0.2l0.1-0.2l0.1-0.2l0.1-0.2l0.1-0.2
		v-0.2v-0.3l-0.1-0.2 M3.85,18.85v0.1v0.2l0.1,0.2l0.1,0.3l0.1,0.2l0.2,0.2l0.2,0.2l0.2,0.1l0.3,0.2l0.3,0.2l0.3,0.1l0.3,0.1
		l0.3,0.1l0.4,0.1l0.4,0.1h0.3l0.4,0.1h0.4h0.4l0.4-0.1h0.3l0.4-0.1l0.4-0.1l0.3-0.1l0.3-0.1l0.3-0.2l0.3-0.1l0.2-0.2l0.3-0.2
		l0.2-0.2l0.1-0.2l0.1-0.2l0.1-0.2l0.1-0.2v-0.3 M3.95,18.15l-0.1,0.1v0.3v0.2v0.2l0.1,0.2l0.1,0.2l0.1,0.3l0.2,0.2l0.2,0.1l0.2,0.2
		l0.3,0.2l0.3,0.1l0.3,0.2l0.3,0.1l0.3,0.1l0.4,0.1l0.4,0.1h0.3h0.4l0.4,0.1l0.4-0.1h0.4h0.3l0.4-0.1l0.4-0.1l0.3-0.1l0.3-0.1
		l0.3-0.2l0.3-0.1l0.2-0.2l0.3-0.2l0.2-0.2l0.1-0.2l0.1-0.2l0.1-0.2l0.1-0.3v-0.2v-0.2l-0.1-0.2v-0.1 M3.85,17.75v0.1v0.2l0.1,0.2
		l0.1,0.2l0.1,0.2l0.2,0.2l0.2,0.2l0.2,0.2l0.3,0.2l0.3,0.1l0.3,0.2l0.3,0.1l0.3,0.1l0.4,0.1l0.4,0.1h0.3h0.4h0.4h0.4h0.4l0.3-0.1
		h0.4l0.4-0.1l0.3-0.1l0.3-0.2l0.3-0.1l0.3-0.2l0.2-0.1l0.3-0.2l0.2-0.2l0.1-0.2l0.1-0.2l0.1-0.2l0.1-0.3v-0.2 M3.95,17.05l-0.1,0.1
		v0.2v0.3v0.2l0.1,0.2l0.1,0.2l0.1,0.2l0.2,0.2l0.2,0.2l0.2,0.2l0.3,0.2l0.3,0.1l0.3,0.2l0.3,0.1l0.3,0.1l0.4,0.1h0.4l0.3,0.1h0.4
		h0.4h0.4h0.4l0.3-0.1h0.4l0.4-0.1l0.3-0.1l0.3-0.2l0.3-0.1l0.3-0.2l0.2-0.1l0.3-0.2l0.2-0.2l0.1-0.2l0.1-0.2l0.1-0.3l0.1-0.2v-0.2
		v-0.2l-0.1-0.2v-0.1 M3.85,16.65L3.85,16.65v0.3l0.1,0.2l0.1,0.2l0.1,0.2l0.2,0.2l0.2,0.2l0.2,0.2l0.3,0.2l0.3,0.1l0.3,0.2l0.3,0.1
		l0.3,0.1l0.4,0.1h0.4l0.3,0.1h0.4h0.4h0.4h0.4l0.3-0.1l0.4-0.1h0.4l0.3-0.2l0.3-0.1l0.3-0.1l0.3-0.2l0.2-0.2l0.3-0.1l0.2-0.2
		l0.1-0.2l0.1-0.2l0.1-0.3l0.1-0.2v-0.2 M3.95,15.95l-0.1,0.1v0.2v0.2v0.3l0.1,0.2l0.1,0.2l0.1,0.2l0.2,0.2l0.2,0.2l0.2,0.2l0.3,0.1
		l0.3,0.2l0.3,0.1l0.3,0.2l0.3,0.1l0.4,0.1h0.4l0.3,0.1h0.4h0.4h0.4h0.4l0.3-0.1l0.4-0.1l0.4-0.1l0.3-0.1l0.3-0.1l0.3-0.1l0.3-0.2
		l0.2-0.2l0.3-0.2l0.2-0.1l0.1-0.3l0.1-0.2l0.1-0.2l0.1-0.2v-0.2v-0.2l-0.1-0.3 M3.85,15.45v0.1v0.2l0.1,0.3l0.1,0.2l0.1,0.2
		l0.2,0.2l0.2,0.2l0.2,0.2l0.3,0.1l0.3,0.2l0.3,0.1l0.3,0.2l0.3,0.1h0.4l0.4,0.1l0.3,0.1h0.4h0.4h0.4l0.4-0.1h0.3l0.4-0.1l0.4-0.1
		l0.3-0.1l0.3-0.1l0.3-0.1l0.3-0.2l0.2-0.2l0.3-0.2l0.2-0.2l0.1-0.2l0.1-0.2l0.1-0.2l0.1-0.2v-0.2v-0.1 M3.95,14.85l-0.1,0.1v0.2
		v0.2v0.2l0.1,0.2l0.1,0.3l0.1,0.2l0.2,0.2l0.2,0.2l0.2,0.2l0.3,0.1l0.3,0.2l0.3,0.1l0.3,0.1l0.3,0.1l0.4,0.1l0.4,0.1h0.3l0.4,0.1
		h0.4h0.4l0.4-0.1h0.3l0.4-0.1l0.4-0.1l0.3-0.1l0.3-0.1l0.3-0.2l0.3-0.1l0.2-0.2l0.3-0.2l0.2-0.2l0.1-0.2l0.1-0.2l0.1-0.2l0.1-0.2
		v-0.2v-0.3l-0.1-0.2 M3.85,14.35v0.1v0.2l0.1,0.2l0.1,0.3l0.1,0.2l0.2,0.2l0.2,0.2l0.2,0.1l0.3,0.2l0.3,0.2l0.3,0.1l0.3,0.1
		l0.3,0.1l0.4,0.1l0.4,0.1h0.3l0.4,0.1h0.4h0.4l0.4-0.1h0.3l0.4-0.1l0.4-0.1l0.3-0.1l0.3-0.1l0.3-0.2l0.3-0.1l0.2-0.2l0.3-0.2
		l0.2-0.2l0.1-0.2l0.1-0.2l0.1-0.2l0.1-0.2v-0.3 M3.95,13.65l-0.1,0.1v0.3v0.2v0.2l0.1,0.2l0.1,0.2l0.1,0.2l0.2,0.3l0.2,0.1l0.2,0.2
		l0.3,0.2l0.3,0.1l0.3,0.2l0.3,0.1l0.3,0.1l0.4,0.1l0.4,0.1h0.3h0.4l0.4,0.1l0.4-0.1h0.4h0.3l0.4-0.1l0.4-0.1l0.3-0.1l0.3-0.1
		l0.3-0.2l0.3-0.1l0.2-0.2l0.3-0.2l0.2-0.2l0.1-0.2l0.1-0.2l0.1-0.2l0.1-0.3v-0.2v-0.2l-0.1-0.2v-0.1 M6.15,5.95l1.2-0.2 M7.35,5.75
		l1.6-0.2 M3.85,13.25v0.1v0.2l0.1,0.2l0.1,0.2l0.1,0.2l0.2,0.2l0.2,0.2l0.2,0.2l0.3,0.2l0.3,0.1l0.3,0.2l0.3,0.1l0.3,0.1l0.4,0.1
		l0.4,0.1h0.3h0.4h0.4h0.4h0.4l0.3-0.1h0.4l0.4-0.1l0.3-0.1l0.3-0.2l0.3-0.1l0.3-0.2l0.2-0.1l0.3-0.2l0.2-0.2l0.1-0.2l0.1-0.2
		l0.1-0.2l0.1-0.3v-0.2 M8.95,5.55v-2.6 M8.95,5.55l1.2,0.6 M3.95,12.55l-0.1,0.1v0.2v0.3v0.2l0.1,0.2l0.1,0.2l0.1,0.2l0.2,0.2
		l0.2,0.2l0.2,0.2l0.3,0.2l0.3,0.1l0.3,0.2l0.3,0.1l0.3,0.1l0.4,0.1h0.4l0.3,0.1h0.4h0.4h0.4h0.4l0.3-0.1h0.4l0.4-0.1l0.3-0.1
		l0.3-0.2l0.3-0.1l0.3-0.2l0.2-0.1l0.3-0.2l0.2-0.2l0.1-0.2l0.1-0.2l0.1-0.3l0.1-0.2v-0.2v-0.2l-0.1-0.2v-0.1 M5.75,5.75v-2.3
		 M10.15,6.15l-0.3-0.1l-0.3-0.1l-0.2-0.1l-0.4-0.1h-0.3h-0.3h-0.3h-0.4h-0.3 M7.35,5.75l-0.3,0.1h-0.3l-0.3,0.1l-0.1,0.1
		 M3.85,12.15L3.85,12.15v0.3l0.1,0.2l0.1,0.2l0.1,0.2l0.2,0.2l0.2,0.2l0.2,0.2l0.3,0.2l0.3,0.1l0.3,0.2l0.3,0.1l0.3,0.1l0.4,0.1
		h0.4l0.3,0.1h0.4h0.4h0.4h0.4l0.3-0.1l0.4-0.1h0.4l0.3-0.2l0.3-0.1l0.3-0.1l0.3-0.2l0.2-0.2l0.3-0.1l0.2-0.2l0.1-0.2l0.1-0.2
		l0.1-0.3l0.1-0.2v-0.2 M10.05,11.25L10.05,11.25l0.4-0.1l0.3-0.1l0.3-0.2l0.1-0.1 M0.25,6.15v0.2l0.1,0.3v0.3l0.1,0.3l0.2,0.3
		l0.2,0.3l0.2,0.3l0.2,0.3l0.3,0.2l0.3,0.3l0.3,0.2l0.4,0.2 M2.55,9.35l0.4,0.2l0.4,0.2l0.4,0.2l0.5,0.1l0.4,0.2l0.5,0.1l0.5,0.1
		l0.5,0.1l0.5,0.1h0.5h0.6h0.5h0.5h0.5l0.5-0.1h0.6l0.5-0.1l0.4-0.1l0.5-0.2l0.5-0.1l0.4-0.2l0.4-0.2l0.4-0.2l0.4-0.2l0.3-0.2
		l0.4-0.3l0.2-0.2l0.3-0.3l0.2-0.3l0.2-0.2l0.2-0.3l0.1-0.3l0.1-0.3l0.1-0.3v-0.3v-0.1 M2.55,7.95l0.4,0.3l0.4,0.1l0.4,0.2l0.5,0.2
		l0.4,0.1l0.5,0.1l0.5,0.1l0.5,0.1l0.5,0.1h0.5l0.6,0.1h0.5h0.5l0.5-0.1h0.5l0.6-0.1l0.5-0.1l0.4-0.1l0.5-0.1l0.5-0.2l0.4-0.2
		l0.4-0.1l0.4-0.2l0.4-0.3l0.3-0.2l0.4-0.2l0.2-0.3l0.3-0.2l0.2-0.3l0.2-0.3l0.2-0.3l0.1-0.3l0.1-0.3l0.1-0.3v-0.3v-0.3v-0.3
		l-0.1-0.3l-0.1-0.3l-0.2-0.3l-0.2-0.3l-0.2-0.2l-0.2-0.3l-0.3-0.3l-0.3-0.2l-0.3-0.2l-0.4-0.3l-0.4-0.2l-0.4-0.2l-0.4-0.1l-0.5-0.2
		l-0.4-0.1l-0.5-0.2l-0.5-0.1l-0.5-0.1h-0.5l-0.5-0.1h-0.6h-0.5h-0.5l-0.5,0.1h-0.5l-0.5,0.1l-0.5,0.1l-0.5,0.1l-0.5,0.1l-0.5,0.2
		l-0.4,0.1l-0.4,0.2l-0.4,0.2l-0.4,0.2l-0.3,0.3l-0.3,0.2l-0.3,0.3l-0.3,0.2l-0.2,0.3l-0.2,0.3l-0.2,0.3l-0.1,0.3l-0.1,0.3l-0.1,0.3
		v0.3v0.3l0.1,0.3v0.3l0.1,0.3l0.2,0.3l0.2,0.2l0.2,0.3l0.2,0.3l0.3,0.2l0.3,0.3l0.3,0.2L2.55,7.95 M4.95,5.25l0.8-1.8 M5.75,3.45
		l3.2-0.5 M8.95,2.95l2.3,1.4 M11.25,4.35l-0.8,1.8 M10.45,6.15l-3.2,0.5 M7.25,6.65l-2.3-1.4 M10.55,43.25l0.6-0.3 M5.05,42.95
		l0.6,0.3 M12.35,41.15L12.35,41.15 M3.85,41.15L3.85,41.15 M12.35,40.25v-0.2 M3.85,40.05v0.2 M12.35,39.15v-0.2 M3.85,38.95v0.2
		 M12.35,37.95v-0.2 M3.85,37.75v0.2 M12.35,36.85v-0.2 M3.85,36.65v0.2 M12.35,35.75v-0.2 M3.85,35.55v0.2 M12.35,34.65v-0.2
		 M3.85,34.45v0.2 M12.35,33.45v-0.2 M3.85,33.25v0.2 M12.35,32.35v-0.2 M3.85,32.15v0.2 M12.35,31.25v-0.2 M3.85,31.05v0.2
		 M12.35,30.15v-0.3 M3.85,29.85v0.3 M12.35,28.95v-0.2 M3.85,28.75v0.2 M12.35,27.85v-0.2 M3.85,27.65v0.2 M12.35,26.75v-0.2
		 M3.85,26.55v0.2 M12.35,25.65v-0.3 M3.85,25.35v0.3 M12.35,24.45v-0.2 M3.85,24.25v0.2 M12.35,23.35v-0.2 M3.85,23.15v0.2
		 M12.35,22.25v-0.2 M3.85,22.05v0.2 M12.35,21.15v-0.3 M3.85,20.85v0.3 M12.35,19.95v-0.2 M3.85,19.75v0.2 M12.35,18.85v-0.2
		 M3.85,18.65v0.2 M12.35,17.75v-0.2 M3.85,17.55v0.2 M12.35,16.65v-0.3 M3.85,16.35v0.3 M12.35,15.45v-0.2 M3.85,15.25v0.2
		 M12.35,14.35v-0.2 M3.85,14.15v0.2 M12.35,13.25v-0.2 M3.85,13.05v0.2 M12.35,12.15v-2 M3.85,10.15v2 M11.15,10.75l2.5-1.4
		 M2.55,9.35l2.5,1.4 M15.95,6.15v-1.4 M0.25,4.75v1.4"/>
</g>
</svg>
