<?xml version="1.0" encoding="utf-8"?>
<!-- Generator: Adobe Illustrator 19.0.0, SVG Export Plug-In . SVG Version: 6.00 Build 0)  -->
<svg version="1.0" id="Layer_1" xmlns="http://www.w3.org/2000/svg" xmlns:xlink="http://www.w3.org/1999/xlink" x="0px" y="0px"
	 width="16.2px" height="30.2px" viewBox="-411.25 284.23 16.2 30.2" enable-background="new -411.25 284.23 16.2 30.2"
	 xml:space="preserve">
<g>
	
		<path fill="none" stroke="#000000" stroke-width="0.25" stroke-linecap="round" stroke-linejoin="round" stroke-miterlimit="10" d="
		M-399.5,294.68l-0.1,0.1l-0.2,0.2l-0.2,0.1l-0.2,0.1l-0.3,0.2l-0.2,0.1l-0.3,0.1l-0.3,0.1h-0.3l-0.3,0.1h-0.3l-0.3,0.1h-0.4h-0.3
		h-0.3h-0.3l-0.4-0.1h-0.3l-0.3-0.1l-0.3-0.1l-0.3-0.1l-0.2-0.1l-0.3-0.1l-0.2-0.1 M-406.1,295.18l-0.2-0.2l-0.2-0.1l-0.2-0.2
		 M-406.2,294.98l0.3,0.2l0.2,0.1l0.3,0.1l0.3,0.1l0.3,0.1h0.3l0.3,0.1h0.3l0.3,0.1h0.4h0.3h0.3l0.3-0.1h0.4l0.3-0.1h0.3l0.3-0.1
		l0.2-0.1"/>
	<path fill="none" stroke="#000000" stroke-width="0.5" stroke-linecap="round" stroke-linejoin="round" stroke-miterlimit="10" d="
		M-405.6,313.58l0.3,0.1l0.2,0.1l0.2,0.1l0.3,0.1l0.3,0.1h0.2h0.3l0.3,0.1h0.3h0.3h0.3l0.3-0.1h0.3l0.2-0.1l0.3-0.1h0.3l0.2-0.1
		l0.2-0.1l0.1-0.1 M-398.9,311.08v0.1v0.2v0.2v0.2v0.2l-0.1,0.1l-0.1,0.2l-0.1,0.2l-0.1,0.2l-0.2,0.1l-0.2,0.2l-0.2,0.1l-0.2,0.2
		 M-400.1,313.28l-0.3,0.1l-0.2,0.1l-0.3,0.1l-0.3,0.1l-0.3,0.1l-0.3,0.1h-0.3l-0.3,0.1h-0.3h-0.3h-0.4h-0.3l-0.3-0.1h-0.3l-0.3-0.1
		h-0.3l-0.3-0.1l-0.3-0.1l-0.3-0.1l-0.2-0.2l-0.2-0.1l-0.2-0.1l-0.2-0.2l-0.2-0.1l-0.2-0.2l-0.1-0.2l-0.1-0.2l-0.1-0.1v-0.2
		l-0.1-0.2v-0.2l0.1-0.2v-0.2 M-407.4,310.58v0.2l0.1,0.2v0.1l0.1,0.2l0.1,0.2l0.1,0.2l0.2,0.1l0.2,0.2l0.2,0.2l0.2,0.1l0.2,0.1
		l0.2,0.2l0.3,0.1l0.3,0.1l0.3,0.1h0.3l0.3,0.1h0.3l0.3,0.1h0.3h0.4h0.3h0.3l0.3-0.1h0.3l0.3-0.1l0.3-0.1l0.3-0.1l0.3-0.1l0.3-0.1
		l0.2-0.1l0.2-0.2l0.2-0.1l0.2-0.2l0.2-0.1l0.1-0.2l0.1-0.2l0.1-0.2l0.1-0.1v-0.2v-0.2v-0.1 M-407.3,309.98L-407.3,309.98v0.2
		l-0.1,0.2v0.2l0.1,0.2v0.2l0.1,0.1l0.1,0.2l0.1,0.2l0.2,0.2l0.2,0.1l0.2,0.2l0.2,0.1l0.2,0.1l0.2,0.2l0.3,0.1l0.3,0.1l0.3,0.1h0.3
		l0.3,0.1h0.3l0.3,0.1h0.3h0.4h0.3h0.3l0.3-0.1h0.3l0.3-0.1l0.3-0.1l0.3-0.1l0.3-0.1l0.3-0.1l0.2-0.1l0.2-0.2l0.2-0.1l0.2-0.2
		l0.2-0.1l0.1-0.2l0.1-0.2l0.1-0.2l0.1-0.1v-0.2v-0.2v-0.2v-0.2v-0.1 M-407.4,309.48v0.2l0.1,0.2v0.1l0.1,0.2l0.1,0.2l0.1,0.2
		l0.2,0.1l0.2,0.2l0.2,0.2l0.2,0.1l0.2,0.1l0.2,0.2l0.3,0.1l0.3,0.1l0.3,0.1h0.3l0.3,0.1h0.3l0.3,0.1h0.3h0.4h0.3h0.3l0.3-0.1h0.3
		l0.3-0.1l0.3-0.1l0.3-0.1l0.3-0.1l0.3-0.1l0.2-0.1l0.2-0.2l0.2-0.1l0.2-0.2l0.2-0.1l0.1-0.2l0.1-0.2l0.1-0.2l0.1-0.1v-0.2v-0.2
		v-0.1 M-407.3,308.88L-407.3,308.88v0.2l-0.1,0.2v0.2l0.1,0.2v0.2l0.1,0.1l0.1,0.2l0.1,0.2l0.2,0.2l0.2,0.1l0.2,0.2l0.2,0.1
		l0.2,0.1l0.2,0.2l0.3,0.1l0.3,0.1l0.3,0.1h0.3l0.3,0.1h0.3l0.3,0.1h0.3h0.4h0.3h0.3l0.3-0.1h0.3l0.3-0.1l0.3-0.1l0.3-0.1l0.3-0.1
		l0.3-0.1l0.2-0.1l0.2-0.2l0.2-0.1l0.2-0.2l0.2-0.1l0.1-0.2l0.1-0.2l0.1-0.1l0.1-0.2v-0.2v-0.2v-0.2v-0.2v-0.1 M-407.4,308.38v0.2
		l0.1,0.2v0.2l0.1,0.1l0.1,0.2l0.1,0.2l0.2,0.2l0.2,0.1l0.2,0.2l0.2,0.1l0.2,0.1l0.2,0.2l0.3,0.1l0.3,0.1l0.3,0.1h0.3l0.3,0.1h0.3
		l0.3,0.1h0.3h0.4h0.3h0.3l0.3-0.1h0.3l0.3-0.1l0.3-0.1l0.3-0.1l0.3-0.1l0.3-0.1l0.2-0.1l0.2-0.2l0.2-0.1l0.2-0.2l0.2-0.1l0.1-0.2
		l0.1-0.2l0.1-0.2l0.1-0.1v-0.2v-0.2v-0.1 M-407.3,307.78L-407.3,307.78v0.2l-0.1,0.2v0.2l0.1,0.2v0.2l0.1,0.1l0.1,0.2l0.1,0.2
		l0.2,0.2l0.2,0.1l0.2,0.2l0.2,0.1l0.2,0.2l0.2,0.1l0.3,0.1l0.3,0.1l0.3,0.1h0.3l0.3,0.1l0.3,0.1h0.3h0.3h0.4h0.3h0.3l0.3-0.1h0.3
		l0.3-0.1l0.3-0.1l0.3-0.1l0.3-0.1l0.3-0.1l0.2-0.1l0.2-0.2l0.2-0.1l0.2-0.2l0.2-0.1l0.1-0.2l0.1-0.2l0.1-0.1l0.1-0.2v-0.2v-0.2
		v-0.2v-0.2v-0.1 M-407.4,307.28v0.2l0.1,0.2v0.2l0.1,0.1l0.1,0.2l0.1,0.2l0.2,0.2l0.2,0.1l0.2,0.2l0.2,0.1l0.2,0.1l0.2,0.2l0.3,0.1
		l0.3,0.1l0.3,0.1h0.3l0.3,0.1h0.3l0.3,0.1h0.3h0.4h0.3h0.3l0.3-0.1h0.3l0.3-0.1l0.3-0.1l0.3-0.1l0.3-0.1l0.3-0.1l0.2-0.1l0.2-0.2
		l0.2-0.1l0.2-0.2l0.2-0.1l0.1-0.2l0.1-0.2l0.1-0.2l0.1-0.1v-0.2v-0.2v-0.1 M-407.3,306.68L-407.3,306.68v0.2l-0.1,0.2v0.2l0.1,0.2
		v0.2l0.1,0.1l0.1,0.2l0.1,0.2l0.2,0.2l0.2,0.1l0.2,0.2l0.2,0.1l0.2,0.2l0.2,0.1l0.3,0.1l0.3,0.1l0.3,0.1h0.3l0.3,0.1l0.3,0.1h0.3
		h0.3h0.4h0.3h0.3l0.3-0.1h0.3l0.3-0.1l0.3-0.1l0.3-0.1l0.3-0.1l0.3-0.1l0.2-0.1l0.2-0.2l0.2-0.1l0.2-0.2l0.2-0.1l0.1-0.2l0.1-0.2
		l0.1-0.1l0.1-0.2v-0.2v-0.2v-0.2v-0.2v-0.1 M-407.4,306.18v0.2l0.1,0.2v0.2l0.1,0.1l0.1,0.2l0.1,0.2l0.2,0.2l0.2,0.1l0.2,0.2
		l0.2,0.1l0.2,0.1l0.2,0.2l0.3,0.1l0.3,0.1l0.3,0.1h0.3l0.3,0.1h0.3l0.3,0.1h0.3h0.4h0.3h0.3l0.3-0.1h0.3l0.3-0.1l0.3-0.1l0.3-0.1
		l0.3-0.1l0.3-0.1l0.2-0.1l0.2-0.2l0.2-0.1l0.2-0.2l0.2-0.1l0.1-0.2l0.1-0.2l0.1-0.2l0.1-0.1v-0.2v-0.2v-0.1 M-407.3,305.58
		L-407.3,305.58v0.2l-0.1,0.2v0.2l0.1,0.2v0.2l0.1,0.1l0.1,0.2l0.1,0.2l0.2,0.2l0.2,0.1l0.2,0.2l0.2,0.1l0.2,0.2l0.2,0.1l0.3,0.1
		l0.3,0.1l0.3,0.1h0.3l0.3,0.1l0.3,0.1h0.3h0.3h0.4h0.3h0.3l0.3-0.1h0.3l0.3-0.1l0.3-0.1l0.3-0.1l0.3-0.1l0.3-0.1l0.2-0.1l0.2-0.1
		l0.2-0.2l0.2-0.2l0.2-0.1l0.1-0.2l0.1-0.2l0.1-0.1l0.1-0.2v-0.2v-0.2v-0.2v-0.2v-0.1 M-407.4,305.08v0.2l0.1,0.2v0.2l0.1,0.1
		l0.1,0.2l0.1,0.2l0.2,0.2l0.2,0.1l0.2,0.2l0.2,0.1l0.2,0.1l0.2,0.2l0.3,0.1l0.3,0.1l0.3,0.1h0.3l0.3,0.1h0.3l0.3,0.1h0.3h0.4h0.3
		h0.3l0.3-0.1h0.3l0.3-0.1l0.3-0.1l0.3-0.1l0.3-0.1l0.3-0.1l0.2-0.1l0.2-0.2l0.2-0.1l0.2-0.2l0.2-0.1l0.1-0.2l0.1-0.2l0.1-0.1
		l0.1-0.2v-0.2v-0.2v-0.1 M-407.3,304.48L-407.3,304.48v0.2l-0.1,0.2v0.2l0.1,0.2v0.2l0.1,0.2l0.1,0.1l0.1,0.2l0.2,0.2l0.2,0.1
		l0.2,0.2l0.2,0.1l0.2,0.2l0.2,0.1l0.3,0.1l0.3,0.1l0.3,0.1l0.3,0.1h0.3l0.3,0.1h0.3h0.3h0.4h0.3h0.3l0.3-0.1h0.3l0.3-0.1l0.3-0.1
		l0.3-0.1l0.3-0.1l0.3-0.1l0.2-0.1l0.2-0.1l0.2-0.2l0.2-0.1l0.2-0.2l0.1-0.2l0.1-0.2l0.1-0.1l0.1-0.2v-0.2v-0.2v-0.2v-0.2v-0.1
		 M-407.4,303.98v0.2l0.1,0.2v0.2l0.1,0.1l0.1,0.2l0.1,0.2l0.2,0.2l0.2,0.1l0.2,0.2l0.2,0.1l0.2,0.1l0.2,0.2l0.3,0.1l0.3,0.1
		l0.3,0.1h0.3l0.3,0.1h0.3l0.3,0.1h0.3h0.4h0.3h0.3l0.3-0.1h0.3l0.3-0.1l0.3-0.1l0.3-0.1l0.3-0.1l0.3-0.1l0.2-0.1l0.2-0.2l0.2-0.1
		l0.2-0.2l0.2-0.1l0.1-0.2l0.1-0.2l0.1-0.1l0.1-0.2v-0.2v-0.2v-0.1 M-407.3,303.38L-407.3,303.38v0.2l-0.1,0.2v0.2l0.1,0.2v0.2
		l0.1,0.2l0.1,0.1l0.1,0.2l0.2,0.2l0.2,0.1l0.2,0.2l0.2,0.1l0.2,0.2l0.2,0.1l0.3,0.1l0.3,0.1l0.3,0.1l0.3,0.1h0.3l0.3,0.1h0.3h0.3
		h0.4h0.3h0.3l0.3-0.1h0.3l0.3-0.1l0.3-0.1l0.3-0.1l0.3-0.1l0.3-0.1l0.2-0.1l0.2-0.1l0.2-0.2l0.2-0.1l0.2-0.2l0.1-0.2l0.1-0.2
		l0.1-0.1l0.1-0.2v-0.2v-0.2v-0.2v-0.2v-0.1 M-407.4,302.88v0.2l0.1,0.2v0.2l0.1,0.1l0.1,0.2l0.1,0.2l0.2,0.2l0.2,0.1l0.2,0.2
		l0.2,0.1l0.2,0.2l0.2,0.1l0.3,0.1l0.3,0.1l0.3,0.1h0.3l0.3,0.1l0.3,0.1h0.3h0.3h0.4h0.3h0.3l0.3-0.1h0.3l0.3-0.1l0.3-0.1l0.3-0.1
		l0.3-0.1l0.3-0.1l0.2-0.1l0.2-0.2l0.2-0.1l0.2-0.2l0.2-0.1l0.1-0.2l0.1-0.2l0.1-0.1l0.1-0.2v-0.2v-0.2v-0.1 M-407.3,302.28
		L-407.3,302.28v0.2l-0.1,0.2v0.2l0.1,0.2v0.2l0.1,0.2l0.1,0.1l0.1,0.2l0.2,0.2l0.2,0.1l0.2,0.2l0.2,0.1l0.2,0.2l0.2,0.1l0.3,0.1
		l0.3,0.1l0.3,0.1l0.3,0.1h0.3l0.3,0.1h0.3h0.3h0.4h0.3h0.3l0.3-0.1h0.3l0.3-0.1l0.3-0.1l0.3-0.1l0.3-0.1l0.3-0.1l0.2-0.1l0.2-0.1
		l0.2-0.2l0.2-0.1l0.2-0.2l0.1-0.2l0.1-0.2l0.1-0.1l0.1-0.2v-0.2v-0.2v-0.2v-0.2v-0.1 M-407.4,301.88v0.1l0.1,0.2v0.2l0.1,0.1
		l0.1,0.2l0.1,0.2l0.2,0.2l0.2,0.1l0.2,0.2l0.2,0.1l0.2,0.2l0.2,0.1l0.3,0.1l0.3,0.1l0.3,0.1h0.3l0.3,0.1l0.3,0.1h0.3h0.3h0.4h0.3
		h0.3l0.3-0.1h0.3l0.3-0.1l0.3-0.1l0.3-0.1l0.3-0.1l0.3-0.1l0.2-0.1l0.2-0.2l0.2-0.1l0.2-0.2l0.2-0.1l0.1-0.2l0.1-0.2l0.1-0.1
		l0.1-0.2v-0.2v-0.2 M-407.3,301.18L-407.3,301.18v0.2l-0.1,0.2v0.2l0.1,0.2v0.2l0.1,0.2l0.1,0.1l0.1,0.2l0.2,0.2l0.2,0.1l0.2,0.2
		l0.2,0.1l0.2,0.2l0.2,0.1l0.3,0.1l0.3,0.1l0.3,0.1l0.3,0.1h0.3l0.3,0.1h0.3h0.3h0.4h0.3h0.3l0.3-0.1h0.3l0.3-0.1l0.3-0.1l0.3-0.1
		l0.3-0.1l0.3-0.1l0.2-0.1l0.2-0.1l0.2-0.2l0.2-0.1l0.2-0.2l0.1-0.2l0.1-0.2l0.1-0.1l0.1-0.2v-0.2v-0.2v-0.2v-0.2v-0.1
		 M-407.4,300.78v0.1l0.1,0.2v0.2l0.1,0.2l0.1,0.1l0.1,0.2l0.2,0.2l0.2,0.1l0.2,0.2l0.2,0.1l0.2,0.2l0.2,0.1l0.3,0.1l0.3,0.1
		l0.3,0.1h0.3l0.3,0.1l0.3,0.1h0.3h0.3h0.4h0.3h0.3l0.3-0.1h0.3l0.3-0.1l0.3-0.1l0.3-0.1l0.3-0.1l0.3-0.1l0.2-0.1l0.2-0.1l0.2-0.2
		l0.2-0.2l0.2-0.1l0.1-0.2l0.1-0.2l0.1-0.1l0.1-0.2v-0.2v-0.2 M-407.3,300.08L-407.3,300.08v0.2l-0.1,0.2v0.2l0.1,0.2v0.2l0.1,0.2
		l0.1,0.1l0.1,0.2l0.2,0.2l0.2,0.1l0.2,0.2l0.2,0.1l0.2,0.2l0.2,0.1l0.3,0.1l0.3,0.1l0.3,0.1l0.3,0.1h0.3l0.3,0.1h0.3h0.3h0.4h0.3
		h0.3l0.3-0.1h0.3l0.3-0.1l0.3-0.1h0.3l0.3-0.2l0.3-0.1l0.2-0.1l0.2-0.1l0.2-0.2l0.2-0.1l0.2-0.2l0.1-0.2l0.1-0.1l0.1-0.2l0.1-0.2
		v-0.2v-0.2v-0.2v-0.2v-0.1 M-407.4,299.68v0.1l0.1,0.2v0.2l0.1,0.2l0.1,0.1l0.1,0.2l0.2,0.2l0.2,0.1l0.2,0.2l0.2,0.1l0.2,0.2
		l0.2,0.1l0.3,0.1l0.3,0.1l0.3,0.1l0.3,0.1h0.3l0.3,0.1h0.3h0.3h0.4h0.3h0.3l0.3-0.1h0.3l0.3-0.1l0.3-0.1l0.3-0.1l0.3-0.1l0.3-0.1
		l0.2-0.1l0.2-0.1l0.2-0.2l0.2-0.1l0.2-0.2l0.1-0.2l0.1-0.2l0.1-0.1l0.1-0.2v-0.2v-0.2 M-407.3,298.98L-407.3,298.98v0.2l-0.1,0.2
		v0.2l0.1,0.2v0.2l0.1,0.2l0.1,0.1l0.1,0.2l0.2,0.2l0.2,0.1l0.2,0.2l0.2,0.1l0.2,0.2l0.2,0.1l0.3,0.1l0.3,0.1l0.3,0.1l0.3,0.1h0.3
		l0.3,0.1h0.3h0.3h0.4h0.3h0.3l0.3-0.1h0.3l0.3-0.1l0.3-0.1h0.3l0.3-0.2l0.3-0.1l0.2-0.1l0.2-0.1l0.2-0.2l0.2-0.1l0.2-0.2l0.1-0.2
		l0.1-0.1l0.1-0.2l0.1-0.2v-0.2v-0.2v-0.2v-0.2v-0.1 M-407.4,298.58v0.1l0.1,0.2v0.2l0.1,0.2l0.1,0.1l0.1,0.2l0.2,0.2l0.2,0.1
		l0.2,0.2l0.2,0.1l0.2,0.2l0.2,0.1l0.3,0.1l0.3,0.1l0.3,0.1l0.3,0.1h0.3l0.3,0.1h0.3h0.3h0.4h0.3h0.3l0.3-0.1h0.3l0.3-0.1l0.3-0.1
		l0.3-0.1l0.3-0.1l0.3-0.1l0.2-0.1l0.2-0.1l0.2-0.2l0.2-0.1l0.2-0.2l0.1-0.2l0.1-0.2l0.1-0.1l0.1-0.2v-0.2v-0.2 M-407.3,297.88
		L-407.3,297.88v0.2l-0.1,0.2v0.2l0.1,0.2v0.2l0.1,0.2l0.1,0.1l0.1,0.2l0.2,0.2l0.2,0.1l0.2,0.2l0.2,0.1l0.2,0.2l0.2,0.1l0.3,0.1
		l0.3,0.1l0.3,0.1l0.3,0.1h0.3l0.3,0.1h0.3h0.3h0.4h0.3h0.3l0.3-0.1h0.3l0.3-0.1l0.3-0.1h0.3l0.3-0.1l0.3-0.2l0.2-0.1l0.2-0.1
		l0.2-0.2l0.2-0.1l0.2-0.2l0.1-0.2l0.1-0.1l0.1-0.2l0.1-0.2v-0.2v-0.2v-0.2v-0.2v-0.1 M-405.1,290.18l1.2-0.2 M-403.9,289.98
		l1.6-0.2 M-407.4,297.48v0.1l0.1,0.2v0.2l0.1,0.2l0.1,0.1l0.1,0.2l0.2,0.2l0.2,0.1l0.2,0.2l0.2,0.1l0.2,0.2l0.2,0.1l0.3,0.1
		l0.3,0.1l0.3,0.1l0.3,0.1h0.3l0.3,0.1h0.3h0.3h0.4h0.3h0.3l0.3-0.1h0.3l0.3-0.1l0.3-0.1l0.3-0.1l0.3-0.1l0.3-0.1l0.2-0.1l0.2-0.1
		l0.2-0.2l0.2-0.1l0.2-0.2l0.1-0.2l0.1-0.2l0.1-0.1l0.1-0.2v-0.2v-0.2 M-402.3,289.78v-2.6 M-402.3,289.78l1.2,0.6 M-407.3,296.78
		v0.1v0.1l-0.1,0.2v0.2l0.1,0.2v0.2l0.1,0.2l0.1,0.1l0.1,0.2l0.2,0.2l0.2,0.1l0.2,0.2l0.2,0.1l0.2,0.2l0.2,0.1l0.3,0.1l0.3,0.1
		l0.3,0.1l0.3,0.1h0.3l0.3,0.1h0.3h0.3h0.4h0.3h0.3h0.3l0.3-0.1l0.3-0.1h0.3l0.3-0.1l0.3-0.1l0.3-0.2l0.2-0.1l0.2-0.1l0.2-0.2
		l0.2-0.1l0.2-0.2l0.1-0.2l0.1-0.1l0.1-0.2l0.1-0.2v-0.2v-0.2v-0.2v-0.2v-0.1 M-405.4,289.98v-2.3 M-401.1,290.38l-0.2-0.1l-0.2-0.1
		h-0.3l-0.2-0.1l-0.3-0.1h-0.2h-0.3h-0.2h-0.3h-0.3h-0.3 M-403.9,289.98l-0.2,0.1h-0.3l-0.2,0.1l-0.2,0.1h-0.1 M-407.4,296.38v0.1
		l0.1,0.2v0.2l0.1,0.2l0.1,0.1l0.1,0.2l0.2,0.2l0.2,0.1l0.2,0.2l0.2,0.1l0.2,0.2l0.2,0.1l0.3,0.1l0.3,0.1l0.3,0.1l0.3,0.1h0.3
		l0.3,0.1h0.3h0.3h0.4h0.3h0.3l0.3-0.1h0.3l0.3-0.1l0.3-0.1l0.3-0.1l0.3-0.1l0.3-0.1l0.2-0.1l0.2-0.1l0.2-0.2l0.2-0.1l0.2-0.2
		l0.1-0.2l0.1-0.2l0.1-0.1l0.1-0.2v-0.2v-0.2 M-400.8,295.38L-400.8,295.38l0.3-0.1l0.3-0.2l0.1-0.1 M-411,290.38L-411,290.38v0.3
		l0.1,0.2v0.3l0.1,0.2l0.1,0.3l0.2,0.2l0.1,0.2l0.2,0.3l0.2,0.2l0.2,0.2l0.3,0.2l0.2,0.2l0.3,0.2l0.3,0.2 M-408.7,293.58l0.4,0.2
		l0.3,0.2l0.3,0.1l0.4,0.1l0.4,0.2l0.4,0.1l0.4,0.1l0.4,0.1l0.4,0.1h0.4l0.5,0.1h0.4h0.4h0.5h0.4h0.5h0.4l0.4-0.1h0.5l0.4-0.1
		l0.4-0.1l0.4-0.1l0.4-0.1l0.4-0.2l0.3-0.1l0.4-0.1l0.3-0.2l0.3-0.2l0.3-0.2l0.3-0.2l0.3-0.2l0.2-0.2l0.3-0.2l0.2-0.2l0.1-0.3
		l0.2-0.2l0.1-0.2l0.1-0.3l0.1-0.2l0.1-0.3v-0.2v-0.3 M-408.7,292.18l0.4,0.2l0.3,0.2l0.3,0.1l0.4,0.2l0.4,0.1l0.4,0.1l0.4,0.1
		l0.4,0.1l0.4,0.1l0.4,0.1h0.5h0.4l0.4,0.1h0.5h0.4l0.5-0.1h0.4h0.4l0.5-0.1l0.4-0.1l0.4-0.1l0.4-0.1l0.4-0.1l0.4-0.1l0.3-0.2
		l0.4-0.1l0.3-0.2l0.3-0.2l0.3-0.1l0.3-0.2l0.3-0.2l0.2-0.2l0.3-0.3l0.2-0.2l0.1-0.2l0.2-0.3l0.1-0.2l0.1-0.2l0.1-0.3l0.1-0.3v-0.2
		v-0.3v-0.2v-0.3l-0.1-0.2l-0.1-0.3l-0.1-0.2l-0.1-0.3l-0.2-0.2l-0.1-0.2l-0.2-0.3l-0.3-0.2l-0.2-0.2l-0.3-0.2l-0.3-0.2l-0.3-0.2
		l-0.3-0.1l-0.3-0.2l-0.4-0.2l-0.3-0.1l-0.4-0.1l-0.4-0.1l-0.4-0.1l-0.4-0.1l-0.4-0.1l-0.5-0.1h-0.4l-0.4-0.1h-0.5h-0.4h-0.5h-0.4
		l-0.4,0.1h-0.5l-0.4,0.1l-0.4,0.1l-0.4,0.1l-0.4,0.1l-0.4,0.1l-0.4,0.1l-0.4,0.1l-0.3,0.2l-0.3,0.2l-0.4,0.1l-0.3,0.2l-0.3,0.2
		l-0.2,0.2l-0.3,0.2l-0.2,0.2l-0.2,0.3l-0.2,0.2l-0.1,0.2l-0.2,0.3l-0.1,0.2l-0.1,0.3v0.2l-0.1,0.3v0.2v0.3l0.1,0.2v0.3l0.1,0.3
		l0.1,0.2l0.2,0.2l0.1,0.3l0.2,0.2l0.2,0.2l0.2,0.3l0.3,0.2l0.2,0.2l0.3,0.2L-408.7,292.18 M-406.3,289.48l0.9-1.8 M-405.4,287.68
		l3.1-0.5 M-402.3,287.18l2.3,1.4 M-400,288.58l-0.8,1.8 M-400.8,290.38l-3.2,0.5 M-404,290.88l-2.3-1.4 M-400.7,313.58l0.6-0.3
		 M-406.1,313.28l0.5,0.3 M-398.9,310.58v-0.2 M-407.4,310.38v0.2 M-398.9,309.48v-0.2 M-407.4,309.28v0.2 M-398.9,308.38v-0.2
		 M-407.4,308.18v0.2 M-398.9,307.28v-0.1 M-407.4,307.18v0.1 M-398.9,306.18v-0.1 M-407.4,306.08v0.1 M-398.9,305.08v-0.1
		 M-407.4,304.98v0.1 M-398.9,303.98v-0.1 M-407.4,303.88v0.1 M-398.9,302.88v-0.1 M-407.4,302.78v0.1 M-398.9,301.88v-0.2
		 M-407.4,301.68v0.2 M-398.9,300.78v-0.2 M-407.4,300.58v0.2 M-398.9,299.68v-0.2 M-407.4,299.48v0.2 M-398.9,298.58v-0.2
		 M-407.4,298.38v0.2 M-398.9,297.48v-0.2 M-407.4,297.28v0.2 M-398.9,296.38v-2 M-407.4,294.38v2 M-400.1,294.98l2.5-1.4
		 M-408.7,293.58l2.5,1.4 M-395.3,290.38v-1.4 M-411,288.98v1.4"/>
</g>
</svg>
