<?xml version="1.0" encoding="utf-8"?>
<!-- Generator: Adobe Illustrator 19.0.0, SVG Export Plug-In . SVG Version: 6.00 Build 0)  -->
<svg version="1.0" id="Layer_1" xmlns="http://www.w3.org/2000/svg" xmlns:xlink="http://www.w3.org/1999/xlink" x="0px" y="0px"
	 width="16.2px" height="34.8px" viewBox="0 0 16.2 34.8" enable-background="new 0 0 16.2 34.8" xml:space="preserve">
<g>
	
		<path fill="none" stroke="#000000" stroke-width="0.25" stroke-linecap="round" stroke-linejoin="round" stroke-miterlimit="10" d="
		M11.65,10.45v0.1l-0.2,0.1l-0.2,0.2l-0.2,0.1l-0.3,0.1l-0.3,0.2l-0.3,0.1l-0.3,0.1h-0.3l-0.3,0.1l-0.4,0.1h-0.3h-0.4h-0.3h-0.4
		l-0.3-0.1h-0.3l-0.4-0.1l-0.3-0.1l-0.3-0.1l-0.3-0.1l-0.2-0.1l-0.3-0.1 M5.05,10.95l-0.2-0.2l-0.2-0.1l-0.2-0.2 M4.95,10.85
		l0.3,0.1l0.3,0.1l0.3,0.1l0.3,0.1l0.3,0.1l0.3,0.1h0.4l0.3,0.1h0.3h0.4h0.3l0.4-0.1h0.3l0.4-0.1h0.3l0.3-0.1l0.3-0.1l0.1-0.1"/>
	<path fill="none" stroke="#000000" stroke-width="0.5" stroke-linecap="round" stroke-linejoin="round" stroke-miterlimit="10" d="
		M5.65,33.95l0.2,0.1l0.2,0.2l0.3,0.1h0.3l0.3,0.1l0.3,0.1h0.3h0.3h0.3h0.3h0.3l0.3-0.1h0.3l0.3-0.1l0.2-0.1l0.3-0.1l0.2-0.1
		l0.2-0.1 M3.85,31.95v0.1v0.2l0.1,0.2v0.2l0.2,0.2l0.1,0.2l0.2,0.1l0.2,0.2l0.2,0.2l0.2,0.1 M5.05,33.65l0.3,0.1l0.2,0.2l0.3,0.1
		l0.3,0.1h0.3l0.4,0.1l0.3,0.1h0.3h0.4h0.3h0.4h0.3l0.4-0.1h0.3l0.3-0.1l0.3-0.1l0.3-0.1l0.3-0.1l0.3-0.2l0.2-0.1l0.2-0.2l0.2-0.1
		l0.2-0.2l0.1-0.2l0.1-0.2l0.1-0.2l0.1-0.2v-0.2l0.1-0.1 M3.85,31.45v0.1v0.2v0.2v0.2v0.2l0.1,0.2l0.1,0.2l0.2,0.2l0.1,0.2l0.2,0.1
		l0.2,0.2l0.2,0.2l0.3,0.1l0.3,0.1l0.2,0.1l0.3,0.1l0.4,0.1l0.3,0.1h0.3l0.4,0.1h0.3h0.4h0.3h0.3l0.4-0.1h0.3l0.3-0.1l0.3-0.1
		l0.3-0.1l0.3-0.1l0.3-0.1l0.2-0.2l0.3-0.1l0.2-0.2l0.1-0.2l0.2-0.1l0.1-0.2l0.1-0.2l0.1-0.2v-0.2l0.1-0.2l-0.1-0.2v-0.2v-0.1
		 M3.85,31.05L3.85,31.05v0.2v0.2l0.1,0.2l0.1,0.2l0.2,0.2l0.1,0.2l0.2,0.1l0.2,0.2l0.2,0.2l0.3,0.1l0.3,0.1l0.2,0.1l0.3,0.1
		l0.4,0.1l0.3,0.1h0.3l0.4,0.1h0.3h0.4h0.3h0.3l0.4-0.1h0.3l0.3-0.1l0.3-0.1l0.3-0.1l0.3-0.1l0.3-0.1l0.2-0.2l0.3-0.1l0.2-0.2
		l0.1-0.2l0.2-0.2l0.1-0.1l0.1-0.2l0.1-0.2v-0.2l0.1-0.2 M3.85,30.35v0.1v0.2v0.2v0.2v0.2l0.1,0.2l0.1,0.2l0.2,0.2l0.1,0.2l0.2,0.1
		l0.2,0.2l0.2,0.1l0.3,0.2l0.3,0.1l0.2,0.1l0.3,0.1l0.4,0.1l0.3,0.1h0.3l0.4,0.1h0.3h0.4h0.3h0.3l0.4-0.1h0.3l0.3-0.1l0.3-0.1
		l0.3-0.1l0.3-0.1l0.3-0.1l0.2-0.2l0.3-0.1l0.2-0.2l0.1-0.2l0.2-0.2l0.1-0.1l0.1-0.2l0.1-0.2v-0.2l0.1-0.2l-0.1-0.2v-0.2v-0.1
		 M3.85,29.85v0.1v0.2v0.2l0.1,0.2l0.1,0.2l0.2,0.2l0.1,0.2l0.2,0.1l0.2,0.2l0.2,0.1l0.3,0.2l0.3,0.1l0.2,0.1l0.3,0.1l0.4,0.1
		l0.3,0.1h0.3l0.4,0.1h0.3h0.4h0.3h0.3l0.4-0.1h0.3l0.3-0.1l0.3-0.1l0.3-0.1l0.3-0.1l0.3-0.2l0.2-0.1l0.3-0.1l0.2-0.2l0.1-0.2
		l0.2-0.2l0.1-0.1l0.1-0.2l0.1-0.2v-0.2l0.1-0.2v-0.1 M3.85,29.25v0.1v0.2v0.2v0.2v0.2l0.1,0.2l0.1,0.2l0.2,0.2l0.1,0.2l0.2,0.1
		l0.2,0.2l0.2,0.1l0.3,0.2l0.3,0.1l0.2,0.1l0.3,0.1l0.4,0.1l0.3,0.1h0.3l0.4,0.1h0.3h0.4h0.3h0.3l0.4-0.1h0.3l0.3-0.1l0.3-0.1
		l0.3-0.1l0.3-0.1l0.3-0.2l0.2-0.1l0.3-0.2l0.2-0.1l0.1-0.2l0.2-0.2l0.1-0.2l0.1-0.1l0.1-0.2v-0.2l0.1-0.2l-0.1-0.2v-0.2v-0.1
		 M3.85,28.75v0.1v0.2v0.2l0.1,0.2l0.1,0.2l0.2,0.2l0.1,0.1l0.2,0.2l0.2,0.2l0.2,0.1l0.3,0.2l0.3,0.1l0.2,0.1l0.3,0.1l0.4,0.1
		l0.3,0.1h0.3l0.4,0.1h0.3h0.4h0.3l0.3-0.1h0.4l0.3-0.1h0.3l0.3-0.1l0.3-0.1l0.3-0.1l0.3-0.2l0.2-0.1l0.3-0.2l0.2-0.1l0.1-0.2
		l0.2-0.2l0.1-0.2l0.1-0.2l0.1-0.1v-0.2l0.1-0.2v-0.1 M3.85,28.15v0.1v0.2v0.2v0.2v0.2l0.1,0.2l0.1,0.2l0.2,0.2l0.1,0.1l0.2,0.2
		l0.2,0.2l0.2,0.1l0.3,0.2l0.3,0.1l0.2,0.1l0.3,0.1l0.4,0.1l0.3,0.1h0.3l0.4,0.1h0.3h0.4h0.3l0.3-0.1h0.4l0.3-0.1h0.3l0.3-0.1
		l0.3-0.1l0.3-0.1l0.3-0.2l0.2-0.1l0.3-0.2l0.2-0.1l0.1-0.2l0.2-0.2l0.1-0.2l0.1-0.2l0.1-0.1v-0.2l0.1-0.2l-0.1-0.2v-0.2v-0.1
		 M3.85,27.65v0.1v0.2v0.2l0.1,0.2l0.1,0.2l0.2,0.2l0.1,0.1l0.2,0.2l0.2,0.2l0.2,0.1l0.3,0.2l0.3,0.1l0.2,0.1l0.3,0.1l0.4,0.1
		l0.3,0.1h0.3h0.4l0.3,0.1h0.4h0.3l0.3-0.1h0.4l0.3-0.1h0.3l0.3-0.1l0.3-0.1l0.3-0.1l0.3-0.2l0.2-0.1l0.3-0.2l0.2-0.1l0.1-0.2
		l0.2-0.2l0.1-0.2l0.1-0.2l0.1-0.2v-0.2l0.1-0.2 M3.85,27.05v0.1v0.2v0.2v0.2v0.2l0.1,0.2l0.1,0.2l0.2,0.2l0.1,0.1l0.2,0.2l0.2,0.2
		l0.2,0.1l0.3,0.2l0.3,0.1l0.2,0.1l0.3,0.1l0.4,0.1h0.3l0.3,0.1h0.4l0.3,0.1h0.4h0.3l0.3-0.1h0.4l0.3-0.1h0.3l0.3-0.1l0.3-0.1
		l0.3-0.1l0.3-0.2l0.2-0.1l0.3-0.2l0.2-0.1l0.1-0.2l0.2-0.2l0.1-0.2l0.1-0.2l0.1-0.2v-0.2l0.1-0.2l-0.1-0.2v-0.2 M3.85,26.55v0.1
		v0.2v0.2l0.1,0.2l0.1,0.2l0.2,0.1l0.1,0.2l0.2,0.2l0.2,0.2l0.2,0.1l0.3,0.1l0.3,0.2l0.2,0.1l0.3,0.1l0.4,0.1h0.3l0.3,0.1h0.4
		l0.3,0.1h0.4h0.3l0.3-0.1h0.4l0.3-0.1h0.3l0.3-0.1l0.3-0.1l0.3-0.2l0.3-0.1l0.2-0.1l0.3-0.2l0.2-0.1l0.1-0.2l0.2-0.2l0.1-0.2
		l0.1-0.2l0.1-0.2v-0.2l0.1-0.2 M3.85,25.95v0.1v0.2v0.2v0.2v0.2l0.1,0.2l0.1,0.2l0.2,0.1l0.1,0.2l0.2,0.2l0.2,0.2l0.2,0.1l0.3,0.1
		l0.3,0.2l0.2,0.1l0.3,0.1l0.4,0.1h0.3l0.3,0.1h0.4l0.3,0.1h0.4h0.3l0.3-0.1h0.4l0.3-0.1l0.3-0.1h0.3l0.3-0.1l0.3-0.2l0.3-0.1
		l0.2-0.1l0.3-0.2l0.2-0.1l0.1-0.2l0.2-0.2l0.1-0.2l0.1-0.2l0.1-0.2v-0.2l0.1-0.2l-0.1-0.2v-0.2 M3.85,25.45v0.1v0.2v0.2l0.1,0.2
		l0.1,0.2l0.2,0.1l0.1,0.2l0.2,0.2l0.2,0.1l0.2,0.2l0.3,0.1l0.3,0.2l0.2,0.1l0.3,0.1l0.4,0.1h0.3l0.3,0.1h0.4h0.3l0.4,0.1l0.3-0.1
		h0.3h0.4l0.3-0.1l0.3-0.1h0.3l0.3-0.2l0.3-0.1l0.3-0.1l0.2-0.1l0.3-0.2l0.2-0.2l0.1-0.1l0.2-0.2l0.1-0.2l0.1-0.2l0.1-0.2v-0.2
		l0.1-0.2 M3.85,24.75v0.2v0.2v0.2v0.2v0.2l0.1,0.2l0.1,0.2l0.2,0.1l0.1,0.2l0.2,0.2l0.2,0.1l0.2,0.2l0.3,0.1l0.3,0.2l0.2,0.1
		l0.3,0.1l0.4,0.1h0.3l0.3,0.1h0.4h0.3h0.4h0.3h0.3h0.4l0.3-0.1l0.3-0.1l0.3-0.1l0.3-0.1l0.3-0.1l0.3-0.1l0.2-0.1l0.3-0.2l0.2-0.2
		l0.1-0.1l0.2-0.2l0.1-0.2l0.1-0.2l0.1-0.2v-0.2l0.1-0.2l-0.1-0.2v-0.2v-0.1 M3.85,24.35v0.1v0.2v0.2l0.1,0.2l0.1,0.1l0.2,0.2
		l0.1,0.2l0.2,0.2l0.2,0.1l0.2,0.2l0.3,0.1l0.3,0.2l0.2,0.1l0.3,0.1h0.4l0.3,0.1l0.3,0.1h0.4h0.3h0.4h0.3h0.3h0.4l0.3-0.1l0.3-0.1
		l0.3-0.1l0.3-0.1l0.3-0.1l0.3-0.1l0.2-0.2l0.3-0.1l0.2-0.2l0.1-0.1l0.2-0.2l0.1-0.2l0.1-0.2l0.1-0.2v-0.2l0.1-0.2 M3.85,23.65v0.2
		v0.2v0.2v0.2v0.2l0.1,0.2l0.1,0.1l0.2,0.2l0.1,0.2l0.2,0.2l0.2,0.1l0.2,0.2l0.3,0.1l0.3,0.1l0.2,0.2l0.3,0.1h0.4l0.3,0.1l0.3,0.1
		h0.4h0.3h0.4h0.3h0.3h0.4l0.3-0.1l0.3-0.1l0.3-0.1l0.3-0.1l0.3-0.1l0.3-0.1l0.2-0.2l0.3-0.1l0.2-0.2l0.1-0.1l0.2-0.2l0.1-0.2
		l0.1-0.2l0.1-0.2v-0.2l0.1-0.2l-0.1-0.2v-0.2v-0.1 M3.85,23.25L3.85,23.25v0.2v0.2l0.1,0.2l0.1,0.2l0.2,0.2l0.1,0.2l0.2,0.2
		l0.2,0.1l0.2,0.2l0.3,0.1l0.3,0.1l0.2,0.2l0.3,0.1h0.4l0.3,0.1l0.3,0.1h0.4h0.3h0.4h0.3h0.3h0.4l0.3-0.1l0.3-0.1l0.3-0.1l0.3-0.1
		l0.3-0.1l0.3-0.1l0.2-0.2l0.3-0.1l0.2-0.2l0.1-0.1l0.2-0.2l0.1-0.2l0.1-0.2l0.1-0.2v-0.2l0.1-0.2 M3.85,22.55v0.1v0.2v0.2v0.2v0.2
		l0.1,0.2l0.1,0.2l0.2,0.2l0.1,0.2l0.2,0.2l0.2,0.1l0.2,0.2l0.3,0.1l0.3,0.1l0.2,0.2l0.3,0.1h0.4l0.3,0.1l0.3,0.1h0.4h0.3h0.4h0.3
		h0.3l0.4-0.1h0.3l0.3-0.1l0.3-0.1l0.3-0.1l0.3-0.1l0.3-0.1l0.2-0.2l0.3-0.1l0.2-0.2l0.1-0.2l0.2-0.1l0.1-0.2l0.1-0.2l0.1-0.2v-0.2
		l0.1-0.2l-0.1-0.2v-0.2v-0.1 M3.85,22.15L3.85,22.15v0.2v0.2l0.1,0.2l0.1,0.2l0.2,0.2l0.1,0.2l0.2,0.2l0.2,0.1l0.2,0.2l0.3,0.1
		l0.3,0.1l0.2,0.1l0.3,0.1l0.4,0.1l0.3,0.1l0.3,0.1h0.4h0.3h0.4h0.3h0.3l0.4-0.1h0.3l0.3-0.1l0.3-0.1l0.3-0.1l0.3-0.1l0.3-0.1
		l0.2-0.2l0.3-0.1l0.2-0.2l0.1-0.2l0.2-0.1l0.1-0.2l0.1-0.2l0.1-0.2v-0.2l0.1-0.2 M3.85,21.45v0.1v0.2v0.2v0.2v0.2l0.1,0.2l0.1,0.2
		l0.2,0.2l0.1,0.2l0.2,0.2l0.2,0.1l0.2,0.2l0.3,0.1l0.3,0.1l0.2,0.1l0.3,0.1l0.4,0.1l0.3,0.1h0.3l0.4,0.1h0.3h0.4h0.3h0.3l0.4-0.1
		h0.3l0.3-0.1l0.3-0.1l0.3-0.1l0.3-0.1l0.3-0.1l0.2-0.2l0.3-0.1l0.2-0.2l0.1-0.2l0.2-0.1l0.1-0.2l0.1-0.2l0.1-0.2v-0.2l0.1-0.2
		l-0.1-0.2v-0.2v-0.1 M3.85,21.05L3.85,21.05v0.2v0.2l0.1,0.2l0.1,0.2l0.2,0.2l0.1,0.2l0.2,0.1l0.2,0.2l0.2,0.2l0.3,0.1l0.3,0.1
		l0.2,0.1l0.3,0.1l0.4,0.1l0.3,0.1h0.3l0.4,0.1h0.3h0.4h0.3h0.3l0.4-0.1h0.3l0.3-0.1l0.3-0.1l0.3-0.1l0.3-0.1l0.3-0.1l0.2-0.2
		l0.3-0.1l0.2-0.2l0.1-0.2l0.2-0.2l0.1-0.1l0.1-0.2l0.1-0.2v-0.2l0.1-0.2 M3.85,20.35v0.1v0.2v0.2v0.2v0.2l0.1,0.2l0.1,0.2l0.2,0.2
		l0.1,0.2l0.2,0.1l0.2,0.2l0.2,0.2l0.3,0.1l0.3,0.1l0.2,0.1l0.3,0.1l0.4,0.1l0.3,0.1h0.3l0.4,0.1h0.3h0.4h0.3h0.3l0.4-0.1h0.3
		l0.3-0.1l0.3-0.1l0.3-0.1l0.3-0.1l0.3-0.1l0.2-0.2l0.3-0.1l0.2-0.2l0.1-0.2l0.2-0.2l0.1-0.1l0.1-0.2l0.1-0.2v-0.2l0.1-0.2l-0.1-0.2
		v-0.2v-0.1 M3.85,19.85v0.1v0.2v0.2l0.1,0.2l0.1,0.2l0.2,0.2l0.1,0.2l0.2,0.1l0.2,0.2l0.2,0.1l0.3,0.2l0.3,0.1l0.2,0.1l0.3,0.1
		l0.4,0.1l0.3,0.1h0.3l0.4,0.1h0.3h0.4h0.3h0.3l0.4-0.1h0.3l0.3-0.1l0.3-0.1l0.3-0.1l0.3-0.1l0.3-0.2l0.2-0.1l0.3-0.1l0.2-0.2
		l0.1-0.2l0.2-0.2l0.1-0.1l0.1-0.2l0.1-0.2v-0.2l0.1-0.2v-0.1 M3.85,19.25v0.1v0.2v0.2v0.2v0.2l0.1,0.2l0.1,0.2l0.2,0.2l0.1,0.2
		l0.2,0.1l0.2,0.2l0.2,0.1l0.3,0.2l0.3,0.1l0.2,0.1l0.3,0.1l0.4,0.1l0.3,0.1h0.3l0.4,0.1h0.3h0.4h0.3h0.3l0.4-0.1h0.3l0.3-0.1
		l0.3-0.1l0.3-0.1l0.3-0.1l0.3-0.2l0.2-0.1l0.3-0.1l0.2-0.2l0.1-0.2l0.2-0.2l0.1-0.1l0.1-0.2l0.1-0.2v-0.2l0.1-0.2v-0.2l-0.1-0.2
		v-0.1 M3.85,18.75v0.1v0.2v0.2l0.1,0.2l0.1,0.2l0.2,0.2l0.1,0.2l0.2,0.1l0.2,0.2l0.2,0.1l0.3,0.2l0.3,0.1l0.2,0.1l0.3,0.1l0.4,0.1
		l0.3,0.1h0.3l0.4,0.1h0.3h0.4h0.3l0.3-0.1h0.4l0.3-0.1h0.3l0.3-0.1l0.3-0.1l0.3-0.1l0.3-0.2l0.2-0.1l0.3-0.2l0.2-0.1l0.1-0.2
		l0.2-0.2l0.1-0.2l0.1-0.1l0.1-0.2v-0.2l0.1-0.2v-0.1 M3.85,18.15v0.1v0.2v0.2v0.2v0.2l0.1,0.2l0.1,0.2l0.2,0.2l0.1,0.1l0.2,0.2
		l0.2,0.2l0.2,0.1l0.3,0.2l0.3,0.1l0.2,0.1l0.3,0.1l0.4,0.1l0.3,0.1h0.3l0.4,0.1h0.3h0.4h0.3l0.3-0.1h0.4l0.3-0.1h0.3l0.3-0.1
		l0.3-0.1l0.3-0.1l0.3-0.2l0.2-0.1l0.3-0.2l0.2-0.1l0.1-0.2l0.2-0.2l0.1-0.2l0.1-0.2l0.1-0.1v-0.2l0.1-0.2v-0.2l-0.1-0.2v-0.1
		 M3.85,17.65v0.1v0.2v0.2l0.1,0.2l0.1,0.2l0.2,0.2l0.1,0.1l0.2,0.2l0.2,0.2l0.2,0.1l0.3,0.2l0.3,0.1l0.2,0.1l0.3,0.1l0.4,0.1
		l0.3,0.1h0.3h0.4l0.3,0.1h0.4h0.3l0.3-0.1h0.4l0.3-0.1h0.3l0.3-0.1l0.3-0.1l0.3-0.1l0.3-0.2l0.2-0.1l0.3-0.2l0.2-0.1l0.1-0.2
		l0.2-0.2l0.1-0.2l0.1-0.2l0.1-0.2v-0.2l0.1-0.2 M3.85,17.05v0.1v0.2v0.2v0.2v0.2l0.1,0.2l0.1,0.2l0.2,0.2l0.1,0.1l0.2,0.2l0.2,0.2
		l0.2,0.1l0.3,0.2l0.3,0.1l0.2,0.1l0.3,0.1l0.4,0.1l0.3,0.1h0.3h0.4l0.3,0.1h0.4h0.3l0.3-0.1h0.4l0.3-0.1h0.3l0.3-0.1l0.3-0.1
		l0.3-0.1l0.3-0.2l0.2-0.1l0.3-0.2l0.2-0.1l0.1-0.2l0.2-0.2l0.1-0.2l0.1-0.2l0.1-0.2v-0.2l0.1-0.2v-0.2l-0.1-0.2 M3.85,16.55v0.1
		v0.2v0.2l0.1,0.2l0.1,0.2l0.2,0.2l0.1,0.1l0.2,0.2l0.2,0.2l0.2,0.1l0.3,0.1l0.3,0.2l0.2,0.1l0.3,0.1l0.4,0.1h0.3l0.3,0.1h0.4
		l0.3,0.1h0.4h0.3l0.3-0.1h0.4l0.3-0.1h0.3l0.3-0.1l0.3-0.1l0.3-0.2l0.3-0.1l0.2-0.1l0.3-0.2l0.2-0.1l0.1-0.2l0.2-0.2l0.1-0.2
		l0.1-0.2l0.1-0.2v-0.2l0.1-0.2 M3.85,15.95v0.1v0.2v0.2v0.2v0.2l0.1,0.2l0.1,0.2l0.2,0.1l0.1,0.2l0.2,0.2l0.2,0.2l0.2,0.1l0.3,0.1
		l0.3,0.2l0.2,0.1l0.3,0.1l0.4,0.1h0.3l0.3,0.1h0.4l0.3,0.1h0.4h0.3l0.3-0.1h0.4l0.3-0.1h0.3l0.3-0.1l0.3-0.1l0.3-0.2l0.3-0.1
		l0.2-0.1l0.3-0.2l0.2-0.1l0.1-0.2l0.2-0.2l0.1-0.2l0.1-0.2l0.1-0.2v-0.2l0.1-0.2v-0.2l-0.1-0.2 M3.85,15.45v0.1v0.2v0.2l0.1,0.2
		l0.1,0.2l0.2,0.1l0.1,0.2l0.2,0.2l0.2,0.1l0.2,0.2l0.3,0.1l0.3,0.2l0.2,0.1l0.3,0.1l0.4,0.1h0.3l0.3,0.1h0.4h0.3l0.4,0.1l0.3-0.1
		h0.3h0.4l0.3-0.1l0.3-0.1h0.3l0.3-0.2l0.3-0.1l0.3-0.1l0.2-0.1l0.3-0.2l0.2-0.2l0.1-0.1l0.2-0.2l0.1-0.2l0.1-0.2l0.1-0.2v-0.2
		l0.1-0.2 M3.85,14.75v0.2v0.2v0.2v0.2v0.2l0.1,0.2l0.1,0.2l0.2,0.1l0.1,0.2l0.2,0.2l0.2,0.1l0.2,0.2l0.3,0.1l0.3,0.2l0.2,0.1
		l0.3,0.1l0.4,0.1h0.3l0.3,0.1h0.4h0.3l0.4,0.1l0.3-0.1h0.3h0.4l0.3-0.1l0.3-0.1h0.3l0.3-0.2l0.3-0.1l0.3-0.1l0.2-0.1l0.3-0.2
		l0.2-0.2l0.1-0.1l0.2-0.2l0.1-0.2l0.1-0.2l0.1-0.2v-0.2l0.1-0.2v-0.2l-0.1-0.2v-0.1 M3.85,14.35v0.1v0.2v0.2l0.1,0.2l0.1,0.1
		l0.2,0.2l0.1,0.2l0.2,0.2l0.2,0.1l0.2,0.2l0.3,0.1l0.3,0.2l0.2,0.1l0.3,0.1l0.4,0.1h0.3l0.3,0.1h0.4h0.3h0.4h0.3h0.3h0.4l0.3-0.1
		l0.3-0.1l0.3-0.1l0.3-0.1l0.3-0.1l0.3-0.1l0.2-0.1l0.3-0.2l0.2-0.2l0.1-0.1l0.2-0.2l0.1-0.2l0.1-0.2l0.1-0.2v-0.2l0.1-0.2
		 M3.85,13.65v0.2v0.2v0.2v0.2v0.2l0.1,0.2l0.1,0.1l0.2,0.2l0.1,0.2l0.2,0.2l0.2,0.1l0.2,0.2l0.3,0.1l0.3,0.2l0.2,0.1l0.3,0.1h0.4
		l0.3,0.1l0.3,0.1h0.4h0.3h0.4h0.3h0.3h0.4l0.3-0.1l0.3-0.1l0.3-0.1l0.3-0.1l0.3-0.1l0.3-0.1l0.2-0.2l0.3-0.1l0.2-0.2l0.1-0.1
		l0.2-0.2l0.1-0.2l0.1-0.2l0.1-0.2v-0.2l0.1-0.2v-0.2l-0.1-0.2v-0.1 M6.05,5.95l1.3-0.2 M7.35,5.75l1.6-0.2 M3.85,13.25v0.1v0.2v0.1
		l0.1,0.2l0.1,0.2l0.2,0.2l0.1,0.2l0.2,0.2l0.2,0.1l0.2,0.2l0.3,0.1l0.3,0.1l0.2,0.2l0.3,0.1h0.4l0.3,0.1l0.3,0.1h0.4h0.3h0.4h0.3
		h0.3h0.4l0.3-0.1l0.3-0.1l0.3-0.1l0.3-0.1l0.3-0.1l0.3-0.1l0.2-0.2l0.3-0.1l0.2-0.2l0.1-0.1l0.2-0.2l0.1-0.2l0.1-0.2l0.1-0.2v-0.2
		l0.1-0.2 M8.95,5.55v-2.6 M8.95,5.55l1.1,0.6 M3.85,12.55v0.1v0.2v0.2v0.2v0.2l0.1,0.2l0.1,0.2l0.2,0.2l0.1,0.2l0.2,0.2l0.2,0.1
		l0.2,0.2l0.3,0.1l0.3,0.1l0.2,0.2l0.3,0.1h0.4l0.3,0.1l0.3,0.1h0.4h0.3h0.4h0.3h0.3l0.4-0.1h0.3l0.3-0.1l0.3-0.1l0.3-0.1l0.3-0.1
		l0.3-0.1l0.2-0.2l0.3-0.1l0.2-0.2l0.1-0.1l0.2-0.2l0.1-0.2l0.1-0.2l0.1-0.2v-0.2l0.1-0.2v-0.2l-0.1-0.2v-0.1 M5.75,5.75v-2.3
		 M10.05,6.15l-0.2-0.1l-0.2-0.1l-0.3-0.1h-0.3l-0.3-0.1h-0.2h-0.3h-0.3h-0.3h-0.3 M7.35,5.75l-0.3,0.1h-0.3l-0.2,0.1l-0.3,0.1
		 M3.85,12.15L3.85,12.15v0.2v0.2l0.1,0.2l0.1,0.2l0.2,0.2l0.1,0.2l0.2,0.2l0.2,0.1l0.2,0.2l0.3,0.1l0.3,0.1l0.2,0.1l0.3,0.1
		l0.4,0.1l0.3,0.1l0.3,0.1h0.4h0.3h0.4h0.3h0.3l0.4-0.1h0.3l0.3-0.1l0.3-0.1l0.3-0.1l0.3-0.1l0.3-0.1l0.2-0.2l0.3-0.1l0.2-0.2
		l0.1-0.2l0.2-0.1l0.1-0.2l0.1-0.2l0.1-0.2v-0.2l0.1-0.2 M10.55,11.05h0.2l0.2-0.2h0.2 M0.25,6.15L0.25,6.15v0.3v0.3l0.1,0.3
		l0.1,0.2l0.1,0.3l0.2,0.2l0.2,0.3l0.2,0.2l0.2,0.3l0.3,0.2l0.2,0.2l0.3,0.2l0.4,0.2 M2.55,9.35l0.3,0.2l0.4,0.2l0.3,0.1l0.4,0.2
		l0.4,0.1l0.5,0.1l0.4,0.1l0.4,0.1l0.5,0.1l0.5,0.1h0.4h0.5h0.5h0.4h0.5h0.5l0.4-0.1h0.5l0.4-0.1l0.4-0.1l0.5-0.2l0.4-0.1l0.4-0.1
		l0.4-0.2l0.3-0.2l0.4-0.1l0.3-0.2l0.3-0.2l0.3-0.3l0.3-0.2l0.2-0.2l0.2-0.3l0.2-0.2l0.2-0.3l0.1-0.2l0.1-0.3l0.1-0.2v-0.3l0.1-0.3
		v-0.1 M2.55,7.95l0.3,0.2l0.4,0.2l0.3,0.2l0.4,0.1l0.4,0.2l0.5,0.1l0.4,0.1l0.4,0.1h0.5l0.5,0.1h0.4l0.5,0.1h0.5h0.4l0.5-0.1h0.5
		h0.4l0.5-0.1l0.4-0.1l0.4-0.1l0.5-0.1l0.4-0.1l0.4-0.2l0.4-0.1l0.3-0.2l0.4-0.2l0.3-0.2l0.3-0.2l0.3-0.2l0.3-0.2l0.2-0.3l0.2-0.2
		l0.2-0.3l0.2-0.2l0.1-0.3l0.1-0.2l0.1-0.3v-0.3l0.1-0.3v-0.2l-0.1-0.3v-0.3l-0.1-0.2l-0.1-0.3l-0.2-0.3l-0.1-0.2l-0.2-0.3l-0.3-0.2
		l-0.2-0.2l-0.3-0.2l-0.3-0.3l-0.3-0.2l-0.3-0.2l-0.4-0.1l-0.3-0.2l-0.4-0.2l-0.4-0.1l-0.4-0.1l-0.5-0.1l-0.4-0.1l-0.4-0.1l-0.5-0.1
		h-0.5l-0.4-0.1h-0.5h-0.5h-0.4l-0.5,0.1h-0.5l-0.4,0.1h-0.5l-0.4,0.1l-0.4,0.1l-0.5,0.2l-0.4,0.1l-0.4,0.2l-0.3,0.1l-0.4,0.2
		l-0.3,0.2l-0.3,0.2l-0.3,0.2l-0.3,0.2l-0.3,0.2l-0.2,0.3l-0.2,0.2l-0.2,0.3l-0.1,0.2l-0.1,0.3l-0.1,0.3l-0.1,0.2v0.3v0.3v0.2v0.3
		l0.1,0.3l0.1,0.3l0.1,0.2l0.2,0.3l0.2,0.2l0.2,0.3l0.2,0.2l0.3,0.2l0.2,0.2l0.3,0.3L2.55,7.95 M4.85,5.25l0.9-1.8 M5.75,3.45
		l3.2-0.5 M8.95,2.95l2.3,1.4 M11.25,4.35l-0.9,1.8 M10.35,6.15l-3.1,0.5 M7.25,6.65l-2.4-1.4 M10.55,33.95l0.5-0.3 M5.05,33.65
		l0.6,0.3 M12.35,31.95L12.35,31.95 M3.85,31.95L3.85,31.95 M12.35,31.05v-0.3 M3.85,30.75v0.3 M12.35,29.85v-0.2 M3.85,29.65v0.2
		 M12.35,28.75v-0.2 M3.85,28.55v0.2 M12.35,27.65v-0.2 M3.85,27.45v0.2 M12.35,26.55v-0.2 M3.85,26.35v0.2 M12.35,25.45v-0.2
		 M3.85,25.25v0.2 M12.35,24.35v-0.2 M3.85,24.15v0.2 M12.35,23.25v-0.2 M3.85,23.05v0.2 M12.35,22.15v-0.2 M3.85,21.95v0.2
		 M12.35,21.05v-0.2 M3.85,20.85v0.2 M12.35,19.85v-0.2 M3.85,19.65v0.2 M12.35,18.75v-0.2 M3.85,18.55v0.2 M12.35,17.65v-0.2
		 M3.85,17.45v0.2 M12.35,16.55v-0.2 M3.85,16.35v0.2 M12.35,15.45v-0.2 M3.85,15.25v0.2 M12.35,14.35v-0.2 M3.85,14.15v0.2
		 M12.35,13.25v-0.2 M3.85,13.05v0.2 M12.35,12.15v-2 M3.85,10.15v2 M11.15,10.85l2.5-1.5 M2.55,9.35l2.4,1.5 M15.95,6.15v-1.4
		 M0.25,4.75v1.4"/>
</g>
</svg>
