<?xml version="1.0" encoding="utf-8"?>
<!-- Generator: Adobe Illustrator 19.0.0, SVG Export Plug-In . SVG Version: 6.00 Build 0)  -->
<svg version="1.0" id="Layer_1" xmlns="http://www.w3.org/2000/svg" xmlns:xlink="http://www.w3.org/1999/xlink" x="0px" y="0px"
	 width="16.2px" height="53.3px" viewBox="0 0 16.2 53.3" enable-background="new 0 0 16.2 53.3" xml:space="preserve">
<g>
	
		<path fill="none" stroke="#000000" stroke-width="0.25" stroke-linecap="round" stroke-linejoin="round" stroke-miterlimit="10" d="
		M11.75,10.45l-0.1,0.1l-0.2,0.2l-0.3,0.2l-0.3,0.1l-0.3,0.2l-0.4,0.1l-0.4,0.1l-0.4,0.1l-0.4,0.1h-0.4h-0.4h-0.4h-0.5l-0.4-0.1
		l-0.4-0.1l-0.4-0.1l-0.3-0.1l-0.4-0.1l-0.3-0.2 M5.05,10.95l-0.3-0.2l-0.2-0.2l-0.1-0.1"/>
	<path fill="none" stroke="#000000" stroke-width="0.5" stroke-linecap="round" stroke-linejoin="round" stroke-miterlimit="10" d="
		M5.65,52.55l0.3,0.1l0.3,0.1l0.3,0.1l0.4,0.1l0.3,0.1h0.4h0.4h0.4h0.3l0.4-0.1h0.4l0.3-0.1l0.3-0.2l0.3-0.1h0.1 M3.85,50.45v0.2
		l0.1,0.3l0.1,0.2l0.1,0.2l0.2,0.2l0.2,0.3l0.2,0.2l0.3,0.1 M5.05,52.15l0.3,0.2l0.4,0.1l0.3,0.2l0.4,0.1l0.4,0.1h0.4h0.5l0.4,0.1
		l0.4-0.1h0.4l0.4-0.1h0.4l0.4-0.2l0.4-0.1l0.3-0.1l0.3-0.2l0.3-0.2l0.2-0.2l0.2-0.2l0.2-0.2l0.1-0.3l0.1-0.2l0.1-0.2v-0.2
		 M3.95,49.95l-0.1,0.3v0.2v0.2l0.1,0.3l0.1,0.2l0.1,0.3l0.2,0.2l0.2,0.2l0.3,0.2l0.3,0.2l0.3,0.1l0.4,0.2l0.3,0.1l0.4,0.1h0.4
		l0.4,0.1h0.5h0.4h0.4h0.4l0.4-0.1l0.4-0.1l0.4-0.1l0.4-0.2l0.3-0.1l0.3-0.2l0.3-0.2l0.2-0.2l0.2-0.2l0.1-0.2l0.2-0.3v-0.2l0.1-0.2
		v-0.3l-0.1-0.2v-0.1 M3.85,49.55L3.85,49.55v0.2l0.1,0.3l0.1,0.2l0.1,0.2l0.2,0.3l0.2,0.2l0.3,0.2l0.3,0.1l0.3,0.2l0.4,0.1l0.3,0.2
		l0.4,0.1h0.4l0.4,0.1h0.5h0.4h0.4l0.4-0.1h0.4l0.4-0.1l0.4-0.1l0.4-0.2l0.3-0.1l0.3-0.2l0.3-0.2l0.2-0.2l0.2-0.2l0.1-0.2l0.2-0.3
		v-0.2l0.1-0.2v-0.1 M3.95,48.85l-0.1,0.2v0.3v0.2l0.1,0.3l0.1,0.2l0.1,0.2l0.2,0.2l0.2,0.2l0.3,0.2l0.3,0.2l0.3,0.2l0.4,0.1
		l0.3,0.1l0.4,0.1l0.4,0.1l0.4,0.1h0.5h0.4h0.4l0.4-0.1h0.4l0.4-0.1l0.4-0.1l0.4-0.2l0.3-0.1l0.3-0.2l0.3-0.2l0.2-0.2l0.2-0.2
		l0.1-0.2l0.2-0.3v-0.2l0.1-0.3v-0.2l-0.1-0.3 M3.85,48.35v0.1v0.2l0.1,0.2l0.1,0.3l0.1,0.2l0.2,0.2l0.2,0.2l0.3,0.2l0.3,0.2
		l0.3,0.2l0.4,0.1l0.3,0.1l0.4,0.1l0.4,0.1l0.4,0.1h0.5h0.4h0.4l0.4-0.1l0.4-0.1h0.4l0.4-0.2l0.4-0.1l0.3-0.1l0.3-0.2l0.3-0.2
		l0.2-0.2l0.2-0.2l0.1-0.3l0.2-0.2v-0.2l0.1-0.3v-0.1 M3.95,47.75l-0.1,0.2v0.2v0.3l0.1,0.2l0.1,0.3l0.1,0.2l0.2,0.2l0.2,0.2
		l0.3,0.2l0.3,0.2l0.3,0.1l0.4,0.2l0.3,0.1l0.4,0.1l0.4,0.1h0.4l0.5,0.1h0.4l0.4-0.1h0.4l0.4-0.1l0.4-0.1l0.4-0.1l0.4-0.1l0.3-0.2
		l0.3-0.1l0.3-0.2l0.2-0.2l0.2-0.3l0.1-0.2l0.2-0.2v-0.3l0.1-0.2v-0.2l-0.1-0.3 M3.85,47.25L3.85,47.25v0.3l0.1,0.2l0.1,0.3l0.1,0.2
		l0.2,0.2l0.2,0.2l0.3,0.2l0.3,0.2l0.3,0.1l0.4,0.2l0.3,0.1l0.4,0.1l0.4,0.1h0.4h0.5l0.4,0.1l0.4-0.1h0.4l0.4-0.1l0.4-0.1l0.4-0.1
		l0.4-0.1l0.3-0.2l0.3-0.2l0.3-0.1l0.2-0.2l0.2-0.3l0.1-0.2l0.2-0.2v-0.3l0.1-0.2v-0.1 M3.95,46.55l-0.1,0.3v0.2v0.2l0.1,0.3
		l0.1,0.2l0.1,0.3l0.2,0.2l0.2,0.2l0.3,0.2l0.3,0.2l0.3,0.1l0.4,0.2l0.3,0.1l0.4,0.1h0.4l0.4,0.1h0.5h0.4h0.4h0.4l0.4-0.1l0.4-0.1
		l0.4-0.1l0.4-0.2l0.3-0.1l0.3-0.2l0.3-0.2l0.2-0.2l0.2-0.2l0.1-0.2l0.2-0.2v-0.3l0.1-0.2v-0.3l-0.1-0.2v-0.1 M3.85,46.15
		L3.85,46.15v0.2l0.1,0.3l0.1,0.2l0.1,0.2l0.2,0.3l0.2,0.2l0.3,0.2l0.3,0.1l0.3,0.2l0.4,0.1l0.3,0.2l0.4,0.1h0.4l0.4,0.1h0.5h0.4
		h0.4h0.4l0.4-0.1l0.4-0.1l0.4-0.1l0.4-0.2l0.3-0.1l0.3-0.2l0.3-0.2l0.2-0.2l0.2-0.2l0.1-0.2l0.2-0.3v-0.2l0.1-0.2v-0.1 M3.95,45.45
		l-0.1,0.2v0.3v0.2l0.1,0.3l0.1,0.2l0.1,0.2l0.2,0.2l0.2,0.2l0.3,0.2l0.3,0.2l0.3,0.2l0.4,0.1l0.3,0.1l0.4,0.1l0.4,0.1l0.4,0.1h0.5
		h0.4h0.4l0.4-0.1h0.4l0.4-0.1l0.4-0.1l0.4-0.2l0.3-0.1l0.3-0.2l0.3-0.2l0.2-0.2l0.2-0.2l0.1-0.2l0.2-0.3v-0.2l0.1-0.3v-0.2
		l-0.1-0.3 M3.85,44.95v0.1v0.2l0.1,0.2l0.1,0.3l0.1,0.2l0.2,0.2l0.2,0.2l0.3,0.2l0.3,0.2l0.3,0.2l0.4,0.1l0.3,0.1l0.4,0.1l0.4,0.1
		l0.4,0.1h0.5h0.4h0.4l0.4-0.1l0.4-0.1h0.4l0.4-0.2l0.4-0.1l0.3-0.1l0.3-0.2l0.3-0.2l0.2-0.2l0.2-0.2l0.1-0.3l0.2-0.2v-0.2l0.1-0.3
		v-0.1 M3.95,44.35l-0.1,0.2v0.2v0.3l0.1,0.2l0.1,0.3l0.1,0.2l0.2,0.2l0.2,0.2l0.3,0.2l0.3,0.2l0.3,0.1l0.4,0.2l0.3,0.1l0.4,0.1
		l0.4,0.1h0.4l0.5,0.1h0.4l0.4-0.1h0.4l0.4-0.1l0.4-0.1l0.4-0.1l0.4-0.1l0.3-0.2l0.3-0.1l0.3-0.2l0.2-0.2l0.2-0.3l0.1-0.2l0.2-0.2
		v-0.3l0.1-0.2v-0.2l-0.1-0.3 M3.85,43.85L3.85,43.85v0.3l0.1,0.2l0.1,0.3l0.1,0.2l0.2,0.2l0.2,0.2l0.3,0.2l0.3,0.2l0.3,0.1l0.4,0.2
		l0.3,0.1l0.4,0.1l0.4,0.1h0.4h0.5l0.4,0.1l0.4-0.1h0.4l0.4-0.1l0.4-0.1l0.4-0.1l0.4-0.1l0.3-0.2l0.3-0.2l0.3-0.1l0.2-0.2l0.2-0.3
		l0.1-0.2l0.2-0.2v-0.3l0.1-0.2v-0.1 M3.95,43.15l-0.1,0.3v0.2v0.3l0.1,0.2l0.1,0.2l0.1,0.3l0.2,0.2l0.2,0.2l0.3,0.2l0.3,0.2
		l0.3,0.1l0.4,0.2l0.3,0.1l0.4,0.1h0.4l0.4,0.1h0.5h0.4h0.4h0.4l0.4-0.1l0.4-0.1l0.4-0.1l0.4-0.1l0.3-0.2l0.3-0.2l0.3-0.2l0.2-0.2
		l0.2-0.2l0.1-0.2l0.2-0.2v-0.3l0.1-0.2v-0.3l-0.1-0.2v-0.1 M3.85,42.75L3.85,42.75v0.2l0.1,0.3l0.1,0.2l0.1,0.2l0.2,0.3l0.2,0.2
		l0.3,0.2l0.3,0.1l0.3,0.2l0.4,0.1l0.3,0.2l0.4,0.1h0.4l0.4,0.1h0.5h0.4h0.4h0.4l0.4-0.1l0.4-0.1l0.4-0.1l0.4-0.2l0.3-0.1l0.3-0.2
		l0.3-0.2l0.2-0.2l0.2-0.2l0.1-0.2l0.2-0.3v-0.2l0.1-0.2v-0.1 M3.95,42.05l-0.1,0.2v0.3v0.2l0.1,0.3l0.1,0.2l0.1,0.2l0.2,0.2
		l0.2,0.3l0.3,0.1l0.3,0.2l0.3,0.2l0.4,0.1l0.3,0.1l0.4,0.1l0.4,0.1l0.4,0.1h0.5h0.4h0.4l0.4-0.1h0.4l0.4-0.1l0.4-0.1l0.4-0.2
		l0.3-0.1l0.3-0.2l0.3-0.2l0.2-0.2l0.2-0.2l0.1-0.2l0.2-0.3v-0.2l0.1-0.3v-0.2l-0.1-0.3 M3.85,41.55v0.1v0.2l0.1,0.3l0.1,0.2
		l0.1,0.2l0.2,0.2l0.2,0.2l0.3,0.2l0.3,0.2l0.3,0.2l0.4,0.1l0.3,0.1l0.4,0.1l0.4,0.1l0.4,0.1h0.5h0.4h0.4l0.4-0.1h0.4l0.4-0.1
		l0.4-0.2l0.4-0.1l0.3-0.1l0.3-0.2l0.3-0.2l0.2-0.2l0.2-0.2l0.1-0.3l0.2-0.2v-0.2l0.1-0.3v-0.1 M3.95,40.95l-0.1,0.2v0.2v0.3
		l0.1,0.2l0.1,0.3l0.1,0.2l0.2,0.2l0.2,0.2l0.3,0.2l0.3,0.2l0.3,0.1l0.4,0.2l0.3,0.1l0.4,0.1l0.4,0.1h0.4l0.5,0.1h0.4l0.4-0.1h0.4
		l0.4-0.1l0.4-0.1l0.4-0.1l0.4-0.1l0.3-0.2l0.3-0.1l0.3-0.2l0.2-0.2l0.2-0.3l0.1-0.2l0.2-0.2v-0.3l0.1-0.2v-0.2l-0.1-0.3
		 M3.85,40.45L3.85,40.45v0.3l0.1,0.2l0.1,0.3l0.1,0.2l0.2,0.2l0.2,0.2l0.3,0.2l0.3,0.2l0.3,0.1l0.4,0.2l0.3,0.1l0.4,0.1l0.4,0.1
		h0.4l0.5,0.1h0.4l0.4-0.1h0.4l0.4-0.1l0.4-0.1l0.4-0.1l0.4-0.1l0.3-0.2l0.3-0.2l0.3-0.1l0.2-0.2l0.2-0.3l0.1-0.2l0.2-0.2v-0.3
		l0.1-0.2v-0.1 M3.95,39.75l-0.1,0.3v0.2v0.3l0.1,0.2l0.1,0.2l0.1,0.3l0.2,0.2l0.2,0.2l0.3,0.2l0.3,0.2l0.3,0.1l0.4,0.2l0.3,0.1
		l0.4,0.1h0.4l0.4,0.1h0.5h0.4h0.4h0.4l0.4-0.1l0.4-0.1l0.4-0.1l0.4-0.1l0.3-0.2l0.3-0.2l0.3-0.2l0.2-0.2l0.2-0.2l0.1-0.2l0.2-0.2
		v-0.3l0.1-0.2v-0.3l-0.1-0.2v-0.1 M3.85,39.35L3.85,39.35v0.2l0.1,0.3l0.1,0.2l0.1,0.3l0.2,0.2l0.2,0.2l0.3,0.2l0.3,0.1l0.3,0.2
		l0.4,0.1l0.3,0.2l0.4,0.1h0.4l0.4,0.1h0.5h0.4h0.4h0.4l0.4-0.1l0.4-0.1l0.4-0.1l0.4-0.2l0.3-0.1l0.3-0.2l0.3-0.2l0.2-0.2l0.2-0.2
		l0.1-0.2l0.2-0.3v-0.2l0.1-0.2v-0.1 M3.95,38.65l-0.1,0.2v0.3v0.2l0.1,0.3l0.1,0.2l0.1,0.2l0.2,0.2l0.2,0.3l0.3,0.1l0.3,0.2
		l0.3,0.2l0.4,0.1l0.3,0.1l0.4,0.1l0.4,0.1l0.4,0.1h0.5h0.4h0.4l0.4-0.1h0.4l0.4-0.1l0.4-0.1l0.4-0.2l0.3-0.1l0.3-0.2l0.3-0.2
		l0.2-0.2l0.2-0.2l0.1-0.2l0.2-0.3v-0.2l0.1-0.3v-0.2l-0.1-0.3 M3.85,38.15v0.1v0.2l0.1,0.3l0.1,0.2l0.1,0.2l0.2,0.2l0.2,0.2
		l0.3,0.2l0.3,0.2l0.3,0.2l0.4,0.1l0.3,0.1l0.4,0.1l0.4,0.1l0.4,0.1h0.5h0.4h0.4l0.4-0.1h0.4l0.4-0.1l0.4-0.2l0.4-0.1l0.3-0.1
		l0.3-0.2l0.3-0.2l0.2-0.2l0.2-0.2l0.1-0.3l0.2-0.2v-0.2l0.1-0.3v-0.1 M3.95,37.55l-0.1,0.2v0.2v0.3l0.1,0.2l0.1,0.3l0.1,0.2
		l0.2,0.2l0.2,0.2l0.3,0.2l0.3,0.2l0.3,0.2l0.4,0.1l0.3,0.1l0.4,0.1l0.4,0.1h0.4l0.5,0.1h0.4l0.4-0.1h0.4l0.4-0.1l0.4-0.1l0.4-0.1
		l0.4-0.1l0.3-0.2l0.3-0.1l0.3-0.2l0.2-0.2l0.2-0.2l0.1-0.3l0.2-0.2v-0.3l0.1-0.2v-0.2l-0.1-0.3 M3.85,37.05L3.85,37.05v0.3l0.1,0.2
		l0.1,0.3l0.1,0.2l0.2,0.2l0.2,0.2l0.3,0.2l0.3,0.2l0.3,0.1l0.4,0.2l0.3,0.1l0.4,0.1l0.4,0.1h0.4l0.5,0.1h0.4l0.4-0.1h0.4l0.4-0.1
		l0.4-0.1l0.4-0.1l0.4-0.1l0.3-0.2l0.3-0.1l0.3-0.2l0.2-0.2l0.2-0.3l0.1-0.2l0.2-0.2v-0.3l0.1-0.2v-0.1 M3.95,36.35l-0.1,0.3v0.2
		v0.3l0.1,0.2l0.1,0.2l0.1,0.3l0.2,0.2l0.2,0.2l0.3,0.2l0.3,0.2l0.3,0.1l0.4,0.2l0.3,0.1l0.4,0.1l0.4,0.1h0.4h0.5h0.4h0.4h0.4
		l0.4-0.1l0.4-0.1l0.4-0.1l0.4-0.1l0.3-0.2l0.3-0.2l0.3-0.2l0.2-0.2l0.2-0.2l0.1-0.2l0.2-0.2v-0.3l0.1-0.2v-0.3l-0.1-0.2v-0.1
		 M3.85,35.95L3.85,35.95v0.2l0.1,0.3l0.1,0.2l0.1,0.3l0.2,0.2l0.2,0.2l0.3,0.2l0.3,0.1l0.3,0.2l0.4,0.1l0.3,0.2l0.4,0.1h0.4
		l0.4,0.1h0.5h0.4h0.4h0.4l0.4-0.1l0.4-0.1l0.4-0.1l0.4-0.2l0.3-0.1l0.3-0.2l0.3-0.2l0.2-0.2l0.2-0.2l0.1-0.2l0.2-0.3v-0.2l0.1-0.2
		v-0.1 M3.95,35.25l-0.1,0.2v0.3v0.2l0.1,0.3l0.1,0.2l0.1,0.2l0.2,0.2l0.2,0.3l0.3,0.1l0.3,0.2l0.3,0.2l0.4,0.1l0.3,0.1l0.4,0.1
		l0.4,0.1l0.4,0.1h0.5h0.4h0.4l0.4-0.1h0.4l0.4-0.1l0.4-0.1l0.4-0.2l0.3-0.1l0.3-0.2l0.3-0.2l0.2-0.2l0.2-0.2l0.1-0.2l0.2-0.3v-0.2
		l0.1-0.3v-0.2l-0.1-0.2v-0.1 M3.85,34.75v0.1v0.2l0.1,0.3l0.1,0.2l0.1,0.2l0.2,0.2l0.2,0.2l0.3,0.2l0.3,0.2l0.3,0.2l0.4,0.1
		l0.3,0.1l0.4,0.1l0.4,0.1l0.4,0.1h0.5h0.4h0.4l0.4-0.1h0.4l0.4-0.1l0.4-0.2l0.4-0.1l0.3-0.1l0.3-0.2l0.3-0.2l0.2-0.2l0.2-0.2
		l0.1-0.3l0.2-0.2v-0.2l0.1-0.3v-0.1 M3.95,34.15l-0.1,0.2v0.2v0.3l0.1,0.2l0.1,0.3l0.1,0.2l0.2,0.2l0.2,0.2l0.3,0.2l0.3,0.2
		l0.3,0.2l0.4,0.1l0.3,0.1l0.4,0.1l0.4,0.1h0.4l0.5,0.1h0.4l0.4-0.1h0.4l0.4-0.1l0.4-0.1l0.4-0.1l0.4-0.1l0.3-0.2l0.3-0.1l0.3-0.2
		l0.2-0.2l0.2-0.2l0.1-0.3l0.2-0.2v-0.2l0.1-0.3v-0.2l-0.1-0.3 M3.85,33.65L3.85,33.65v0.3l0.1,0.2l0.1,0.3l0.1,0.2l0.2,0.2l0.2,0.2
		l0.3,0.2l0.3,0.2l0.3,0.1l0.4,0.2l0.3,0.1l0.4,0.1l0.4,0.1h0.4l0.5,0.1h0.4l0.4-0.1h0.4l0.4-0.1l0.4-0.1l0.4-0.1l0.4-0.1l0.3-0.2
		l0.3-0.1l0.3-0.2l0.2-0.2l0.2-0.3l0.1-0.2l0.2-0.2v-0.3l0.1-0.2v-0.1 M3.95,32.95l-0.1,0.3v0.2v0.3l0.1,0.2l0.1,0.2l0.1,0.3
		l0.2,0.2l0.2,0.2l0.3,0.2l0.3,0.2l0.3,0.1l0.4,0.2l0.3,0.1l0.4,0.1l0.4,0.1h0.4h0.5h0.4h0.4h0.4l0.4-0.1l0.4-0.1l0.4-0.1l0.4-0.1
		l0.3-0.2l0.3-0.2l0.3-0.2l0.2-0.2l0.2-0.2l0.1-0.2l0.2-0.2v-0.3l0.1-0.2v-0.3l-0.1-0.2v-0.1 M3.85,32.55L3.85,32.55v0.2l0.1,0.3
		l0.1,0.2l0.1,0.3l0.2,0.2l0.2,0.2l0.3,0.2l0.3,0.2l0.3,0.1l0.4,0.2l0.3,0.1l0.4,0.1h0.4l0.4,0.1h0.5h0.4h0.4h0.4l0.4-0.1l0.4-0.1
		l0.4-0.1l0.4-0.2l0.3-0.1l0.3-0.2l0.3-0.2l0.2-0.2l0.2-0.2l0.1-0.2l0.2-0.3v-0.2l0.1-0.2v-0.1 M3.95,31.85l-0.1,0.2v0.3v0.2
		l0.1,0.3l0.1,0.2l0.1,0.2l0.2,0.2l0.2,0.3l0.3,0.2l0.3,0.1l0.3,0.2l0.4,0.1l0.3,0.1l0.4,0.1l0.4,0.1l0.4,0.1h0.5h0.4h0.4l0.4-0.1
		h0.4l0.4-0.1l0.4-0.1l0.4-0.2l0.3-0.1l0.3-0.2l0.3-0.2l0.2-0.2l0.2-0.2l0.1-0.2l0.2-0.3v-0.2l0.1-0.3v-0.2l-0.1-0.2v-0.1
		 M3.85,31.35v0.1v0.2l0.1,0.3l0.1,0.2l0.1,0.2l0.2,0.2l0.2,0.2l0.3,0.2l0.3,0.2l0.3,0.2l0.4,0.1l0.3,0.1l0.4,0.1l0.4,0.1l0.4,0.1
		h0.5h0.4h0.4l0.4-0.1h0.4l0.4-0.1l0.4-0.1l0.4-0.2l0.3-0.1l0.3-0.2l0.3-0.2l0.2-0.2l0.2-0.2l0.1-0.2l0.2-0.3v-0.2l0.1-0.3v-0.1
		 M3.95,30.75l-0.1,0.2v0.2v0.3l0.1,0.2l0.1,0.3l0.1,0.2l0.2,0.2l0.2,0.2l0.3,0.2l0.3,0.2l0.3,0.2l0.4,0.1l0.3,0.1l0.4,0.1l0.4,0.1
		h0.4l0.5,0.1h0.4l0.4-0.1h0.4l0.4-0.1l0.4-0.1l0.4-0.1l0.4-0.1l0.3-0.2l0.3-0.1l0.3-0.2l0.2-0.2l0.2-0.2l0.1-0.3l0.2-0.2v-0.2
		l0.1-0.3v-0.2l-0.1-0.3 M3.85,30.25L3.85,30.25v0.3l0.1,0.2l0.1,0.3l0.1,0.2l0.2,0.2l0.2,0.2l0.3,0.2l0.3,0.2l0.3,0.1l0.4,0.2
		l0.3,0.1l0.4,0.1l0.4,0.1h0.4l0.5,0.1h0.4l0.4-0.1h0.4l0.4-0.1l0.4-0.1l0.4-0.1l0.4-0.1l0.3-0.2l0.3-0.1l0.3-0.2l0.2-0.2l0.2-0.3
		l0.1-0.2l0.2-0.2v-0.3l0.1-0.2v-0.1 M3.95,29.55l-0.1,0.3v0.2v0.3l0.1,0.2l0.1,0.2l0.1,0.3l0.2,0.2l0.2,0.2l0.3,0.2l0.3,0.2
		l0.3,0.1l0.4,0.2l0.3,0.1l0.4,0.1l0.4,0.1h0.4h0.5h0.4h0.4h0.4l0.4-0.1l0.4-0.1l0.4-0.1l0.4-0.1l0.3-0.2l0.3-0.2l0.3-0.2l0.2-0.2
		l0.2-0.2l0.1-0.2l0.2-0.2v-0.3l0.1-0.2v-0.3l-0.1-0.2v-0.1 M3.85,29.15L3.85,29.15v0.2l0.1,0.3l0.1,0.2l0.1,0.3l0.2,0.2l0.2,0.2
		l0.3,0.2l0.3,0.2l0.3,0.1l0.4,0.2l0.3,0.1l0.4,0.1h0.4l0.4,0.1h0.5h0.4h0.4h0.4l0.4-0.1l0.4-0.1l0.4-0.1l0.4-0.2l0.3-0.1l0.3-0.2
		l0.3-0.2l0.2-0.2l0.2-0.2l0.1-0.2l0.2-0.2v-0.3l0.1-0.2v-0.1 M3.95,28.45l-0.1,0.2v0.3v0.2l0.1,0.3l0.1,0.2l0.1,0.2l0.2,0.3
		l0.2,0.2l0.3,0.2l0.3,0.1l0.3,0.2l0.4,0.1l0.3,0.1l0.4,0.1l0.4,0.1l0.4,0.1h0.5h0.4h0.4l0.4-0.1h0.4l0.4-0.1l0.4-0.1l0.4-0.2
		l0.3-0.1l0.3-0.2l0.3-0.2l0.2-0.2l0.2-0.2l0.1-0.2l0.2-0.3v-0.2l0.1-0.3v-0.2l-0.1-0.2v-0.1 M3.85,27.95v0.1v0.2l0.1,0.3l0.1,0.2
		l0.1,0.2l0.2,0.2l0.2,0.2l0.3,0.2l0.3,0.2l0.3,0.2l0.4,0.1l0.3,0.1l0.4,0.1l0.4,0.1l0.4,0.1h0.5h0.4h0.4l0.4-0.1h0.4l0.4-0.1
		l0.4-0.1l0.4-0.2l0.3-0.1l0.3-0.2l0.3-0.2l0.2-0.2l0.2-0.2l0.1-0.2l0.2-0.3v-0.2l0.1-0.3v-0.1 M3.95,27.35l-0.1,0.2v0.2v0.3
		l0.1,0.2l0.1,0.3l0.1,0.2l0.2,0.2l0.2,0.2l0.3,0.2l0.3,0.2l0.3,0.2l0.4,0.1l0.3,0.1l0.4,0.1l0.4,0.1h0.4l0.5,0.1h0.4h0.4l0.4-0.1
		l0.4-0.1l0.4-0.1l0.4-0.1l0.4-0.1l0.3-0.2l0.3-0.1l0.3-0.2l0.2-0.2l0.2-0.2l0.1-0.3l0.2-0.2v-0.2l0.1-0.3v-0.2l-0.1-0.3
		 M3.85,26.85L3.85,26.85v0.3l0.1,0.2l0.1,0.3l0.1,0.2l0.2,0.2l0.2,0.2l0.3,0.2l0.3,0.2l0.3,0.1l0.4,0.2l0.3,0.1l0.4,0.1l0.4,0.1
		h0.4l0.5,0.1h0.4l0.4-0.1h0.4l0.4-0.1l0.4-0.1l0.4-0.1l0.4-0.1l0.3-0.2l0.3-0.1l0.3-0.2l0.2-0.2l0.2-0.3l0.1-0.2l0.2-0.2v-0.3
		l0.1-0.2v-0.1 M3.95,26.15l-0.1,0.3v0.2v0.3l0.1,0.2l0.1,0.2l0.1,0.3l0.2,0.2l0.2,0.2l0.3,0.2l0.3,0.2l0.3,0.1l0.4,0.2l0.3,0.1
		l0.4,0.1l0.4,0.1h0.4h0.5h0.4h0.4h0.4l0.4-0.1l0.4-0.1l0.4-0.1l0.4-0.1l0.3-0.2l0.3-0.2l0.3-0.2l0.2-0.2l0.2-0.2l0.1-0.2l0.2-0.2
		v-0.3l0.1-0.2v-0.3l-0.1-0.2v-0.1 M3.85,25.75L3.85,25.75v0.3l0.1,0.2l0.1,0.2l0.1,0.3l0.2,0.2l0.2,0.2l0.3,0.2l0.3,0.2l0.3,0.1
		l0.4,0.2l0.3,0.1l0.4,0.1h0.4l0.4,0.1h0.5h0.4h0.4h0.4l0.4-0.1l0.4-0.1l0.4-0.1l0.4-0.1l0.3-0.2l0.3-0.2l0.3-0.2l0.2-0.2l0.2-0.2
		l0.1-0.2l0.2-0.2v-0.3l0.1-0.2v-0.1 M3.95,25.05l-0.1,0.2v0.3v0.2l0.1,0.3l0.1,0.2l0.1,0.2l0.2,0.3l0.2,0.2l0.3,0.2l0.3,0.1
		l0.3,0.2l0.4,0.1l0.3,0.2h0.4l0.4,0.1l0.4,0.1h0.5h0.4h0.4l0.4-0.1h0.4l0.4-0.1l0.4-0.1l0.4-0.2l0.3-0.1l0.3-0.2l0.3-0.2l0.2-0.2
		l0.2-0.2l0.1-0.2l0.2-0.3v-0.2l0.1-0.3v-0.2l-0.1-0.2v-0.1 M3.85,24.55v0.1v0.2l0.1,0.3l0.1,0.2l0.1,0.2l0.2,0.2l0.2,0.3l0.3,0.1
		l0.3,0.2l0.3,0.2l0.4,0.1l0.3,0.1l0.4,0.1l0.4,0.1l0.4,0.1h0.5h0.4h0.4l0.4-0.1h0.4l0.4-0.1l0.4-0.1l0.4-0.2l0.3-0.1l0.3-0.2
		l0.3-0.2l0.2-0.2l0.2-0.2l0.1-0.2l0.2-0.3v-0.2l0.1-0.3v-0.1 M3.95,23.95l-0.1,0.2v0.3v0.2l0.1,0.2l0.1,0.3l0.1,0.2l0.2,0.2
		l0.2,0.2l0.3,0.2l0.3,0.2l0.3,0.2l0.4,0.1l0.3,0.1l0.4,0.1l0.4,0.1h0.4l0.5,0.1h0.4h0.4l0.4-0.1l0.4-0.1l0.4-0.1l0.4-0.1l0.4-0.1
		l0.3-0.2l0.3-0.1l0.3-0.2l0.2-0.2l0.2-0.2l0.1-0.3l0.2-0.2v-0.2l0.1-0.3v-0.2l-0.1-0.3 M3.85,23.45L3.85,23.45v0.3l0.1,0.2l0.1,0.3
		l0.1,0.2l0.2,0.2l0.2,0.2l0.3,0.2l0.3,0.2l0.3,0.1l0.4,0.2l0.3,0.1l0.4,0.1l0.4,0.1h0.4l0.5,0.1h0.4l0.4-0.1h0.4l0.4-0.1l0.4-0.1
		l0.4-0.1l0.4-0.1l0.3-0.2l0.3-0.1l0.3-0.2l0.2-0.2l0.2-0.3l0.1-0.2l0.2-0.2v-0.3l0.1-0.2v-0.1 M3.95,22.75l-0.1,0.3v0.2v0.3
		l0.1,0.2l0.1,0.2l0.1,0.3l0.2,0.2l0.2,0.2l0.3,0.2l0.3,0.2l0.3,0.1l0.4,0.2l0.3,0.1l0.4,0.1l0.4,0.1h0.4h0.5h0.4h0.4h0.4l0.4-0.1
		l0.4-0.1l0.4-0.1l0.4-0.1l0.3-0.2l0.3-0.2l0.3-0.2l0.2-0.2l0.2-0.2l0.1-0.2l0.2-0.2v-0.3l0.1-0.2v-0.3l-0.1-0.2v-0.1 M3.85,22.35
		L3.85,22.35v0.3l0.1,0.2l0.1,0.2l0.1,0.3l0.2,0.2l0.2,0.2l0.3,0.2l0.3,0.2l0.3,0.1l0.4,0.2l0.3,0.1l0.4,0.1h0.4l0.4,0.1h0.5h0.4
		h0.4h0.4l0.4-0.1l0.4-0.1l0.4-0.1l0.4-0.1l0.3-0.2l0.3-0.2l0.3-0.2l0.2-0.2l0.2-0.2l0.1-0.2l0.2-0.2v-0.3l0.1-0.2v-0.1 M3.95,21.65
		l-0.1,0.2v0.3v0.2l0.1,0.3l0.1,0.2l0.1,0.2l0.2,0.3l0.2,0.2l0.3,0.2l0.3,0.1l0.3,0.2l0.4,0.1l0.3,0.2l0.4,0.1h0.4l0.4,0.1h0.5h0.4
		h0.4l0.4-0.1h0.4l0.4-0.1l0.4-0.1l0.4-0.2l0.3-0.1l0.3-0.2l0.3-0.2l0.2-0.2l0.2-0.2l0.1-0.2l0.2-0.3v-0.2l0.1-0.3v-0.2l-0.1-0.2
		v-0.1 M3.85,21.15v0.1v0.2l0.1,0.3l0.1,0.2l0.1,0.2l0.2,0.2l0.2,0.3l0.3,0.1l0.3,0.2l0.3,0.2l0.4,0.1l0.3,0.1l0.4,0.1l0.4,0.1
		l0.4,0.1h0.5h0.4h0.4l0.4-0.1h0.4l0.4-0.1l0.4-0.1l0.4-0.2l0.3-0.1l0.3-0.2l0.3-0.2l0.2-0.2l0.2-0.2l0.1-0.2l0.2-0.3v-0.2l0.1-0.3
		v-0.1 M3.95,20.55l-0.1,0.2v0.3v0.2l0.1,0.2l0.1,0.3l0.1,0.2l0.2,0.2l0.2,0.2l0.3,0.2l0.3,0.2l0.3,0.2l0.4,0.1l0.3,0.1l0.4,0.1
		l0.4,0.1h0.4l0.5,0.1h0.4h0.4l0.4-0.1l0.4-0.1l0.4-0.1l0.4-0.1l0.4-0.1l0.3-0.2l0.3-0.1l0.3-0.2l0.2-0.2l0.2-0.2l0.1-0.3l0.2-0.2
		v-0.2l0.1-0.3v-0.2l-0.1-0.3 M3.85,20.05L3.85,20.05v0.3l0.1,0.2l0.1,0.3l0.1,0.2l0.2,0.2l0.2,0.2l0.3,0.2l0.3,0.2l0.3,0.2l0.4,0.1
		l0.3,0.1l0.4,0.1l0.4,0.1h0.4l0.5,0.1h0.4l0.4-0.1h0.4l0.4-0.1l0.4-0.1l0.4-0.1l0.4-0.1l0.3-0.2l0.3-0.1l0.3-0.2l0.2-0.2l0.2-0.2
		l0.1-0.3l0.2-0.2v-0.3l0.1-0.2v-0.1 M3.95,19.35l-0.1,0.3v0.2v0.3l0.1,0.2l0.1,0.2l0.1,0.3l0.2,0.2l0.2,0.2l0.3,0.2l0.3,0.2
		l0.3,0.1l0.4,0.2l0.3,0.1l0.4,0.1l0.4,0.1h0.4h0.5h0.4h0.4h0.4l0.4-0.1l0.4-0.1l0.4-0.1l0.4-0.1l0.3-0.2l0.3-0.2l0.3-0.2l0.2-0.2
		l0.2-0.2l0.1-0.2l0.2-0.2v-0.3l0.1-0.2v-0.3l-0.1-0.2v-0.1 M3.85,18.95L3.85,18.95v0.3l0.1,0.2l0.1,0.2l0.1,0.3l0.2,0.2l0.2,0.2
		l0.3,0.2l0.3,0.2l0.3,0.1l0.4,0.2l0.3,0.1l0.4,0.1l0.4,0.1h0.4h0.5h0.4h0.4h0.4l0.4-0.1l0.4-0.1l0.4-0.1l0.4-0.1l0.3-0.2l0.3-0.2
		l0.3-0.2l0.2-0.2l0.2-0.2l0.1-0.2l0.2-0.2v-0.3l0.1-0.2v-0.1 M3.95,18.25l-0.1,0.2v0.3v0.2l0.1,0.3l0.1,0.2l0.1,0.2l0.2,0.3
		l0.2,0.2l0.3,0.2l0.3,0.1l0.3,0.2l0.4,0.1l0.3,0.2l0.4,0.1h0.4l0.4,0.1h0.5h0.4h0.4l0.4-0.1h0.4l0.4-0.1l0.4-0.1l0.4-0.2l0.3-0.1
		l0.3-0.2l0.3-0.2l0.2-0.2l0.2-0.2l0.1-0.2l0.2-0.3v-0.2l0.1-0.3v-0.2l-0.1-0.2v-0.1 M3.85,17.75v0.1v0.2l0.1,0.3l0.1,0.2l0.1,0.2
		l0.2,0.2l0.2,0.3l0.3,0.1l0.3,0.2l0.3,0.2l0.4,0.1l0.3,0.1l0.4,0.1l0.4,0.1l0.4,0.1h0.5h0.4h0.4l0.4-0.1h0.4l0.4-0.1l0.4-0.1
		l0.4-0.2l0.3-0.1l0.3-0.2l0.3-0.2l0.2-0.2l0.2-0.2l0.1-0.2l0.2-0.3v-0.2l0.1-0.3v-0.1 M3.95,17.15l-0.1,0.2v0.3v0.2l0.1,0.2
		l0.1,0.3l0.1,0.2l0.2,0.2l0.2,0.2l0.3,0.2l0.3,0.2l0.3,0.2l0.4,0.1l0.3,0.1l0.4,0.1l0.4,0.1h0.4l0.5,0.1h0.4h0.4l0.4-0.1l0.4-0.1
		l0.4-0.1l0.4-0.1l0.4-0.1l0.3-0.2l0.3-0.1l0.3-0.2l0.2-0.2l0.2-0.2l0.1-0.3l0.2-0.2v-0.2l0.1-0.3v-0.2l-0.1-0.3 M3.85,16.65
		L3.85,16.65v0.3l0.1,0.2l0.1,0.3l0.1,0.2l0.2,0.2l0.2,0.2l0.3,0.2l0.3,0.2l0.3,0.2l0.4,0.1l0.3,0.1l0.4,0.1l0.4,0.1h0.4l0.5,0.1
		h0.4l0.4-0.1h0.4l0.4-0.1l0.4-0.1l0.4-0.1l0.4-0.1l0.3-0.2l0.3-0.1l0.3-0.2l0.2-0.2l0.2-0.2l0.1-0.3l0.2-0.2v-0.2l0.1-0.3v-0.1
		 M3.95,15.95l-0.1,0.3v0.2v0.3l0.1,0.2l0.1,0.2l0.1,0.3l0.2,0.2l0.2,0.2l0.3,0.2l0.3,0.2l0.3,0.1l0.4,0.2l0.3,0.1l0.4,0.1l0.4,0.1
		h0.4h0.5h0.4h0.4h0.4l0.4-0.1l0.4-0.1l0.4-0.1l0.4-0.1l0.3-0.2l0.3-0.2l0.3-0.2l0.2-0.2l0.2-0.2l0.1-0.2l0.2-0.2v-0.3l0.1-0.2v-0.3
		l-0.1-0.2v-0.1 M3.85,15.55L3.85,15.55v0.3l0.1,0.2l0.1,0.2l0.1,0.3l0.2,0.2l0.2,0.2l0.3,0.2l0.3,0.2l0.3,0.1l0.4,0.2l0.3,0.1
		l0.4,0.1l0.4,0.1h0.4h0.5h0.4h0.4h0.4l0.4-0.1l0.4-0.1l0.4-0.1l0.4-0.1l0.3-0.2l0.3-0.2l0.3-0.2l0.2-0.2l0.2-0.2l0.1-0.2l0.2-0.2
		v-0.3l0.1-0.2v-0.1 M3.95,14.85l-0.1,0.2v0.3v0.2l0.1,0.3l0.1,0.2l0.1,0.2l0.2,0.3l0.2,0.2l0.3,0.2l0.3,0.1l0.3,0.2l0.4,0.1
		l0.3,0.2l0.4,0.1h0.4l0.4,0.1h0.5h0.4h0.4l0.4-0.1h0.4l0.4-0.1l0.4-0.1l0.4-0.2l0.3-0.1l0.3-0.2l0.3-0.2l0.2-0.2l0.2-0.2l0.1-0.2
		l0.2-0.3v-0.2l0.1-0.2v-0.3l-0.1-0.2v-0.1 M3.85,14.35v0.1v0.2l0.1,0.3l0.1,0.2l0.1,0.2l0.2,0.3l0.2,0.2l0.3,0.2l0.3,0.1l0.3,0.2
		l0.4,0.1l0.3,0.1l0.4,0.1l0.4,0.1l0.4,0.1h0.5h0.4h0.4l0.4-0.1h0.4l0.4-0.1l0.4-0.1l0.4-0.2l0.3-0.1l0.3-0.2l0.3-0.2l0.2-0.2
		l0.2-0.2l0.1-0.2l0.2-0.3v-0.2l0.1-0.3v-0.1 M3.95,13.75l-0.1,0.2v0.3v0.2l0.1,0.2l0.1,0.3l0.1,0.2l0.2,0.2l0.2,0.2l0.3,0.2
		l0.3,0.2l0.3,0.2l0.4,0.1l0.3,0.1l0.4,0.1l0.4,0.1h0.4l0.5,0.1h0.4h0.4l0.4-0.1l0.4-0.1h0.4l0.4-0.2l0.4-0.1l0.3-0.2l0.3-0.1
		l0.3-0.2l0.2-0.2l0.2-0.2l0.1-0.3l0.2-0.2v-0.2l0.1-0.3v-0.2l-0.1-0.3 M6.05,5.95l1.3-0.2 M7.35,5.75l1.6-0.2 M3.85,13.25
		L3.85,13.25v0.3l0.1,0.2l0.1,0.3l0.1,0.2l0.2,0.2l0.2,0.2l0.3,0.2l0.3,0.2l0.3,0.2l0.4,0.1l0.3,0.1l0.4,0.1l0.4,0.1h0.4l0.5,0.1
		h0.4l0.4-0.1h0.4l0.4-0.1l0.4-0.1l0.4-0.1l0.4-0.1l0.3-0.2l0.3-0.1l0.3-0.2l0.2-0.2l0.2-0.2l0.1-0.3l0.2-0.2v-0.2l0.1-0.3v-0.1
		 M8.95,5.55v-2.6 M8.95,5.55l1.1,0.6 M3.95,12.55l-0.1,0.3v0.2v0.3l0.1,0.2l0.1,0.2l0.1,0.3l0.2,0.2l0.2,0.2l0.3,0.2l0.3,0.2
		l0.3,0.1l0.4,0.2l0.3,0.1l0.4,0.1l0.4,0.1h0.4h0.5h0.4h0.4h0.4l0.4-0.1l0.4-0.1l0.4-0.1l0.4-0.1l0.3-0.2l0.3-0.2l0.3-0.1l0.2-0.3
		l0.2-0.2l0.1-0.2l0.2-0.2v-0.3l0.1-0.2v-0.3l-0.1-0.2v-0.1 M5.75,5.75v-2.3 M10.05,6.25l-0.2-0.2l-0.4-0.1l-0.3-0.1l-0.3-0.1h-0.4
		h-0.4h-0.3h-0.4 M7.35,5.75l-0.4,0.1l-0.3,0.1l-0.3,0.1h-0.1 M3.85,12.15L3.85,12.15v0.3l0.1,0.2l0.1,0.2l0.1,0.3l0.2,0.2l0.2,0.2
		l0.3,0.2l0.3,0.2l0.3,0.1l0.4,0.2l0.3,0.1l0.4,0.1l0.4,0.1h0.4h0.5h0.4h0.4h0.4l0.4-0.1l0.4-0.1l0.4-0.1l0.4-0.1l0.3-0.2l0.3-0.2
		l0.3-0.2l0.2-0.2l0.2-0.2l0.1-0.2l0.2-0.2v-0.3l0.1-0.2v-0.1 M5.05,10.85l0.3,0.1l0.3,0.2l0.4,0.1l0.4,0.1l0.4,0.1l0.4,0.1h0.4h0.4
		h0.5h0.4l0.4-0.1l0.4-0.1l0.4-0.1l0.3-0.1l0.4-0.2l0.3-0.1 M0.25,6.15v0.3v0.3l0.1,0.3l0.2,0.4l0.1,0.3l0.3,0.3l0.2,0.3l0.3,0.3
		l0.3,0.2l0.4,0.3l0.4,0.2 M2.55,9.35l0.4,0.3l0.4,0.2l0.5,0.2l0.5,0.1l0.5,0.2l0.6,0.1l0.5,0.1l0.6,0.1h0.5l0.6,0.1h0.6l0.5-0.1
		h0.6l0.6-0.1l0.5-0.1l0.6-0.1l0.5-0.1l0.5-0.2l0.5-0.1l0.4-0.2l0.5-0.3l0.4-0.2l0.4-0.2l0.3-0.3l0.3-0.3l0.3-0.3l0.2-0.3l0.2-0.3
		l0.2-0.3l0.1-0.3l0.1-0.4v-0.3v-0.1 M2.55,8.05l0.4,0.2l0.4,0.2l0.5,0.2l0.5,0.2l0.5,0.1l0.6,0.1l0.5,0.1l0.6,0.1l0.5,0.1h0.6h0.6
		h0.5l0.6-0.1h0.6l0.5-0.1l0.6-0.1l0.5-0.2l0.5-0.1l0.5-0.2l0.4-0.2l0.5-0.2l0.4-0.3l0.4-0.2l0.3-0.3l0.3-0.2l0.3-0.3l0.2-0.3
		l0.2-0.4l0.2-0.3l0.1-0.3l0.1-0.3v-0.4v-0.3l-0.1-0.3l-0.1-0.3l-0.1-0.4l-0.2-0.3l-0.2-0.3l-0.3-0.3l-0.2-0.3l-0.4-0.2l-0.3-0.3
		l-0.4-0.2l-0.4-0.3l-0.5-0.2l-0.5-0.2l-0.5-0.1l-0.5-0.2l-0.5-0.1l-0.5-0.1l-0.6-0.1h-0.6l-0.5-0.1h-0.6h-0.6l-0.6,0.1l-0.5,0.1
		h-0.6l-0.5,0.2l-0.5,0.1l-0.5,0.1l-0.5,0.2l-0.5,0.2l-0.4,0.2l-0.4,0.3l-0.4,0.2l-0.3,0.3l-0.3,0.3l-0.3,0.3l-0.2,0.3l-0.2,0.3
		l-0.2,0.3l-0.1,0.3l-0.1,0.3v0.4v0.3v0.3l0.1,0.4l0.2,0.3l0.1,0.3l0.3,0.3l0.2,0.3l0.3,0.3l0.3,0.3l0.4,0.2L2.55,8.05 M4.95,5.35
		l0.8-1.9 M5.75,3.45l3.2-0.5 M8.95,2.95l2.3,1.4 M11.25,4.35l-0.9,1.8 M10.35,6.15l-3.1,0.5 M7.25,6.65l-2.3-1.3 M10.55,52.55
		l0.5-0.4 M5.05,52.15l0.6,0.4 M12.35,50.45L12.35,50.45 M3.85,50.45L3.85,50.45 M12.35,49.55v-0.3 M3.85,49.25v0.3 M12.35,48.35
		v-0.2 M3.85,48.15v0.2 M12.35,47.25v-0.2 M3.85,47.05v0.2 M12.35,46.15v-0.3 M3.85,45.85v0.3 M12.35,44.95v-0.2 M3.85,44.75v0.2
		 M12.35,43.85v-0.2 M3.85,43.65v0.2 M12.35,42.75v-0.3 M3.85,42.45v0.3 M12.35,41.55v-0.2 M3.85,41.35v0.2 M12.35,40.45v-0.2
		 M3.85,40.25v0.2 M12.35,39.35v-0.3 M3.85,39.05v0.3 M12.35,38.15v-0.2 M3.85,37.95v0.2 M12.35,37.05v-0.2 M3.85,36.85v0.2
		 M12.35,35.95v-0.3 M3.85,35.65v0.3 M12.35,34.75v-0.2 M3.85,34.55v0.2 M12.35,33.65v-0.2 M3.85,33.45v0.2 M12.35,32.55v-0.3
		 M3.85,32.25v0.3 M12.35,31.35v-0.2 M3.85,31.15v0.2 M12.35,30.25v-0.2 M3.85,30.05v0.2 M12.35,29.15v-0.2 M3.85,28.95v0.2
		 M12.35,27.95v-0.2 M3.85,27.75v0.2 M12.35,26.85v-0.2 M3.85,26.65v0.2 M12.35,25.75v-0.2 M3.85,25.55v0.2 M12.35,24.55v-0.2
		 M3.85,24.35v0.2 M12.35,23.45v-0.2 M3.85,23.25v0.2 M12.35,22.35v-0.2 M3.85,22.15v0.2 M12.35,21.15v-0.2 M3.85,20.95v0.2
		 M12.35,20.05v-0.2 M3.85,19.85v0.2 M12.35,18.95v-0.2 M3.85,18.75v0.2 M12.35,17.75v-0.2 M3.85,17.55v0.2 M12.35,16.65v-0.2
		 M3.85,16.45v0.2 M12.35,15.55v-0.2 M3.85,15.35v0.2 M12.35,14.35v-0.2 M3.85,14.15v0.2 M12.35,13.25v-0.2 M3.85,13.05v0.2
		 M12.35,12.15v-2 M3.85,10.15v2 M11.15,10.85l2.5-1.5 M2.55,9.35l2.5,1.5 M15.95,6.15v-1.3 M0.25,4.85v1.3"/>
</g>
</svg>
