<?xml version="1.0" encoding="utf-8"?>
<!-- Generator: Adobe Illustrator 19.0.0, SVG Export Plug-In . SVG Version: 6.00 Build 0)  -->
<svg version="1.0" id="Layer_1" xmlns="http://www.w3.org/2000/svg" xmlns:xlink="http://www.w3.org/1999/xlink" x="0px" y="0px"
	 width="16.2px" height="64.9px" viewBox="0 0 16.2 64.9" enable-background="new 0 0 16.2 64.9" xml:space="preserve">
<g>
	
		<path fill="none" stroke="#000000" stroke-width="0.25" stroke-linecap="round" stroke-linejoin="round" stroke-miterlimit="10" d="
		M11.75,10.45l-0.1,0.1l-0.3,0.2l-0.3,0.2l-0.3,0.2l-0.4,0.1l-0.4,0.2l-0.5,0.1h-0.4l-0.5,0.1h-0.5h-0.4l-0.5-0.1l-0.4-0.1l-0.5-0.1
		l-0.4-0.1l-0.4-0.1l-0.3-0.2 M5.15,10.95l-0.3-0.2l-0.3-0.2v-0.1"/>
	<path fill="none" stroke="#000000" stroke-width="0.5" stroke-linecap="round" stroke-linejoin="round" stroke-miterlimit="10" d="
		M5.65,64.05l0.4,0.2l0.3,0.1l0.4,0.1l0.4,0.1l0.4,0.1h0.4h0.5h0.4l0.4-0.1l0.4-0.1l0.4-0.1l0.3-0.2l0.2-0.1 M3.85,61.95v0.1
		l0.1,0.3l0.1,0.2l0.1,0.3l0.2,0.2l0.2,0.3l0.3,0.2l0.3,0.2 M5.15,63.75l0.3,0.2l0.4,0.1l0.4,0.2l0.5,0.1h0.4l0.5,0.1h0.4h0.5h0.5
		l0.4-0.1l0.5-0.1l0.4-0.1l0.4-0.2l0.3-0.2l0.3-0.2l0.3-0.2l0.3-0.2l0.2-0.3l0.1-0.2l0.1-0.3v-0.2v-0.2 M3.95,61.55v0.1l-0.1,0.3
		l0.1,0.3v0.2l0.2,0.3l0.1,0.2l0.2,0.3l0.3,0.2l0.3,0.2l0.3,0.2l0.4,0.2l0.4,0.1l0.4,0.1l0.5,0.1h0.5l0.4,0.1h0.5l0.5-0.1h0.4
		l0.4-0.1l0.5-0.1l0.4-0.2l0.3-0.2l0.4-0.1l0.3-0.3l0.2-0.2l0.2-0.2l0.2-0.3l0.1-0.2v-0.3v-0.3v-0.3 M3.85,61.05l0.1,0.2v0.3
		l0.2,0.3l0.1,0.2l0.2,0.3l0.3,0.2l0.3,0.2l0.3,0.2l0.4,0.1l0.4,0.2l0.4,0.1l0.5,0.1h0.5l0.4,0.1h0.5l0.5-0.1h0.4l0.4-0.1l0.5-0.2
		l0.4-0.1l0.3-0.2l0.4-0.2l0.3-0.2l0.2-0.2l0.2-0.2l0.2-0.3l0.1-0.3v-0.2v-0.2 M3.95,60.35v0.2l-0.1,0.2l0.1,0.3v0.3l0.2,0.2
		l0.1,0.3l0.2,0.2l0.3,0.3l0.3,0.2l0.3,0.1l0.4,0.2l0.4,0.2l0.4,0.1h0.5l0.5,0.1h0.4h0.5h0.5l0.4-0.1l0.4-0.1l0.5-0.1l0.4-0.1
		l0.3-0.2l0.4-0.2l0.3-0.2l0.2-0.2l0.2-0.3l0.2-0.2l0.1-0.3v-0.3v-0.2v-0.3v-0.1 M3.85,59.95l0.1,0.2v0.3l0.2,0.2l0.1,0.3l0.2,0.2
		l0.3,0.2l0.3,0.3l0.3,0.1l0.4,0.2l0.4,0.1l0.4,0.2h0.5l0.5,0.1h0.4h0.5h0.5l0.4-0.1l0.4-0.1l0.5-0.1l0.4-0.1l0.3-0.2l0.4-0.2
		l0.3-0.2l0.2-0.2l0.2-0.3l0.2-0.2l0.1-0.3v-0.3v-0.1 M3.95,59.25v0.1l-0.1,0.3l0.1,0.3v0.2l0.2,0.3l0.1,0.3l0.2,0.2l0.3,0.2
		l0.3,0.2l0.3,0.2l0.4,0.2l0.4,0.1l0.4,0.1l0.5,0.1l0.5,0.1h0.4h0.5h0.5l0.4-0.1l0.4-0.1l0.5-0.1l0.4-0.2l0.3-0.1l0.4-0.2l0.3-0.2
		l0.2-0.3l0.2-0.2l0.2-0.3l0.1-0.2v-0.3v-0.3v-0.2v-0.1 M3.85,58.75l0.1,0.3v0.2l0.2,0.3l0.1,0.2l0.2,0.3l0.3,0.2l0.3,0.2l0.3,0.2
		l0.4,0.2l0.4,0.1l0.4,0.1l0.5,0.1l0.5,0.1h0.4h0.5l0.5-0.1h0.4l0.4-0.1l0.5-0.1l0.4-0.2l0.3-0.1l0.4-0.2l0.3-0.2l0.2-0.3l0.2-0.2
		l0.2-0.3l0.1-0.2v-0.3v-0.2 M3.95,58.05v0.2l-0.1,0.3l0.1,0.2v0.3l0.2,0.3l0.1,0.2l0.2,0.3l0.3,0.2l0.3,0.2l0.3,0.2l0.4,0.1
		l0.4,0.2l0.4,0.1l0.5,0.1h0.5l0.4,0.1l0.5-0.1h0.5h0.4l0.4-0.1l0.5-0.2l0.4-0.1l0.3-0.2l0.4-0.2l0.3-0.2l0.2-0.2l0.2-0.2l0.2-0.3
		l0.1-0.3v-0.2v-0.3v-0.3v-0.1 M3.85,57.65l0.1,0.2v0.3l0.2,0.3l0.1,0.2l0.2,0.2l0.3,0.3l0.3,0.2l0.3,0.2l0.4,0.1l0.4,0.2l0.4,0.1
		l0.5,0.1h0.5h0.4h0.5h0.5l0.4-0.1h0.4l0.5-0.2l0.4-0.1l0.3-0.2l0.4-0.2l0.3-0.2l0.2-0.2l0.2-0.3l0.2-0.2l0.1-0.3v-0.2v-0.2
		 M3.95,56.95v0.2l-0.1,0.2l0.1,0.3v0.3l0.2,0.2l0.1,0.3l0.2,0.2l0.3,0.2l0.3,0.2l0.3,0.2l0.4,0.2l0.4,0.1l0.4,0.1l0.5,0.1l0.5,0.1
		h0.4h0.5h0.5l0.4-0.1l0.4-0.1l0.5-0.1l0.4-0.1l0.3-0.2l0.4-0.2l0.3-0.2l0.2-0.2l0.2-0.3l0.2-0.2l0.1-0.3v-0.3v-0.2v-0.3v-0.1
		 M3.85,56.55l0.1,0.2v0.3l0.2,0.2l0.1,0.3l0.2,0.2l0.3,0.2l0.3,0.2l0.3,0.2l0.4,0.2l0.4,0.1l0.4,0.1l0.5,0.1l0.5,0.1h0.4h0.5h0.5
		l0.4-0.1l0.4-0.1l0.5-0.1l0.4-0.1l0.3-0.2l0.4-0.2l0.3-0.2l0.2-0.2l0.2-0.3l0.2-0.2l0.1-0.3v-0.3v-0.1 M3.95,55.85v0.1l-0.1,0.3
		l0.1,0.3v0.2l0.2,0.3l0.1,0.2l0.2,0.3l0.3,0.2l0.3,0.2l0.3,0.2l0.4,0.2l0.4,0.1l0.4,0.1l0.5,0.1h0.5l0.4,0.1h0.5l0.5-0.1h0.4
		l0.4-0.1l0.5-0.1l0.4-0.2l0.3-0.1l0.4-0.2l0.3-0.3l0.2-0.2l0.2-0.2l0.2-0.3l0.1-0.2v-0.3v-0.3v-0.2v-0.1 M3.85,55.35l0.1,0.3v0.2
		l0.2,0.3l0.1,0.2l0.2,0.3l0.3,0.2l0.3,0.2l0.3,0.2l0.4,0.2l0.4,0.1l0.4,0.1l0.5,0.1h0.5l0.4,0.1h0.5l0.5-0.1h0.4l0.4-0.1l0.5-0.1
		l0.4-0.2l0.3-0.2l0.4-0.1l0.3-0.3l0.2-0.2l0.2-0.2l0.2-0.3l0.1-0.2v-0.3v-0.2 M3.95,54.65v0.2l-0.1,0.3l0.1,0.2v0.3l0.2,0.2
		l0.1,0.3l0.2,0.2l0.3,0.3l0.3,0.2l0.3,0.2l0.4,0.1l0.4,0.2l0.4,0.1l0.5,0.1h0.5h0.4h0.5h0.5l0.4-0.1l0.4-0.1l0.5-0.1l0.4-0.1
		l0.3-0.2l0.4-0.2l0.3-0.2l0.2-0.2l0.2-0.3l0.2-0.2l0.1-0.3v-0.2v-0.3v-0.3v-0.1 M3.85,54.25l0.1,0.2v0.3l0.2,0.2l0.1,0.3l0.2,0.2
		l0.3,0.3l0.3,0.2l0.3,0.1l0.4,0.2l0.4,0.2l0.4,0.1h0.5l0.5,0.1h0.4h0.5h0.5l0.4-0.1l0.4-0.1l0.5-0.1l0.4-0.1l0.3-0.2l0.4-0.2
		l0.3-0.2l0.2-0.2l0.2-0.3l0.2-0.2l0.1-0.3v-0.3v-0.1 M3.95,53.55v0.1l-0.1,0.3l0.1,0.3v0.3l0.2,0.2l0.1,0.3l0.2,0.2l0.3,0.2
		l0.3,0.2l0.3,0.2l0.4,0.2l0.4,0.1l0.4,0.1l0.5,0.1l0.5,0.1h0.4h0.5h0.5l0.4-0.1l0.4-0.1l0.5-0.1l0.4-0.2l0.3-0.1l0.4-0.2l0.3-0.2
		l0.2-0.3l0.2-0.2l0.2-0.3l0.1-0.2v-0.3v-0.3v-0.2v-0.1 M3.85,53.05l0.1,0.3v0.2l0.2,0.3l0.1,0.3l0.2,0.2l0.3,0.2l0.3,0.2l0.3,0.2
		l0.4,0.2l0.4,0.1l0.4,0.1l0.5,0.1l0.5,0.1h0.4h0.5h0.5l0.4-0.1l0.4-0.1l0.5-0.1l0.4-0.2l0.3-0.1l0.4-0.2l0.3-0.2l0.2-0.3l0.2-0.2
		l0.2-0.3l0.1-0.2v-0.3v-0.2 M3.95,52.45v0.1l-0.1,0.3l0.1,0.2v0.3l0.2,0.3l0.1,0.2l0.2,0.3l0.3,0.2l0.3,0.2l0.3,0.2l0.4,0.1
		l0.4,0.2l0.4,0.1l0.5,0.1h0.5l0.4,0.1h0.5l0.5-0.1h0.4l0.4-0.1l0.5-0.1l0.4-0.2l0.3-0.2l0.4-0.2l0.3-0.2l0.2-0.2l0.2-0.2l0.2-0.3
		l0.1-0.3v-0.2v-0.3v-0.3 M3.85,51.95l0.1,0.2v0.3l0.2,0.3l0.1,0.2l0.2,0.3l0.3,0.2l0.3,0.2l0.3,0.2l0.4,0.1l0.4,0.2l0.4,0.1
		l0.5,0.1h0.5l0.4,0.1l0.5-0.1h0.5h0.4l0.4-0.1l0.5-0.2l0.4-0.1l0.3-0.2l0.4-0.2l0.3-0.2l0.2-0.2l0.2-0.2l0.2-0.3l0.1-0.3v-0.2v-0.2
		 M3.95,51.25v0.2l-0.1,0.2l0.1,0.3v0.3l0.2,0.2l0.1,0.3l0.2,0.2l0.3,0.3l0.3,0.2l0.3,0.1l0.4,0.2l0.4,0.1l0.4,0.2h0.5l0.5,0.1h0.4
		h0.5h0.5l0.4-0.1l0.4-0.1l0.5-0.1l0.4-0.1l0.3-0.2l0.4-0.2l0.3-0.2l0.2-0.2l0.2-0.3l0.2-0.2l0.1-0.3v-0.3v-0.2v-0.3v-0.1
		 M3.85,50.85l0.1,0.2v0.3l0.2,0.2l0.1,0.3l0.2,0.2l0.3,0.2l0.3,0.2l0.3,0.2l0.4,0.2l0.4,0.1l0.4,0.1l0.5,0.1l0.5,0.1h0.4h0.5h0.5
		l0.4-0.1l0.4-0.1l0.5-0.1l0.4-0.1l0.3-0.2l0.4-0.2l0.3-0.2l0.2-0.2l0.2-0.3l0.2-0.2l0.1-0.3v-0.3v-0.1 M3.95,50.15v0.1l-0.1,0.3
		l0.1,0.3v0.2l0.2,0.3l0.1,0.2l0.2,0.3l0.3,0.2l0.3,0.2l0.3,0.2l0.4,0.2l0.4,0.1l0.4,0.1l0.5,0.1l0.5,0.1h0.4h0.5l0.5-0.1h0.4
		l0.4-0.1l0.5-0.1l0.4-0.2l0.3-0.1l0.4-0.2l0.3-0.2l0.2-0.3l0.2-0.2l0.2-0.3l0.1-0.2v-0.3v-0.3v-0.2v-0.1 M3.85,49.65l0.1,0.3v0.2
		l0.2,0.3l0.1,0.2l0.2,0.3l0.3,0.2l0.3,0.2l0.3,0.2l0.4,0.2l0.4,0.1l0.4,0.1l0.5,0.1h0.5l0.4,0.1h0.5l0.5-0.1h0.4l0.4-0.1l0.5-0.1
		l0.4-0.2l0.3-0.1l0.4-0.2l0.3-0.3l0.2-0.2l0.2-0.2l0.2-0.3l0.1-0.2v-0.3v-0.2 M3.95,48.95v0.2l-0.1,0.3l0.1,0.2v0.3l0.2,0.3
		l0.1,0.2l0.2,0.3l0.3,0.2l0.3,0.2l0.3,0.2l0.4,0.1l0.4,0.2l0.4,0.1l0.5,0.1h0.5h0.4h0.5h0.5l0.4-0.1h0.4l0.5-0.2l0.4-0.1l0.3-0.2
		l0.4-0.2l0.3-0.2l0.2-0.2l0.2-0.3l0.2-0.2l0.1-0.3v-0.2v-0.3v-0.3v-0.1 M3.85,48.55l0.1,0.2v0.3l0.2,0.2l0.1,0.3l0.2,0.2l0.3,0.3
		l0.3,0.2l0.3,0.2l0.4,0.1l0.4,0.2l0.4,0.1l0.5,0.1h0.5h0.4h0.5h0.5l0.4-0.1l0.4-0.1l0.5-0.1l0.4-0.1l0.3-0.2l0.4-0.2l0.3-0.2
		l0.2-0.2l0.2-0.3l0.2-0.2l0.1-0.3v-0.2v-0.2 M3.95,47.85v0.2l-0.1,0.2l0.1,0.3v0.3l0.2,0.2l0.1,0.3l0.2,0.2l0.3,0.2l0.3,0.2
		l0.3,0.2l0.4,0.2l0.4,0.1l0.4,0.1l0.5,0.1l0.5,0.1h0.4h0.5h0.5l0.4-0.1l0.4-0.1l0.5-0.1l0.4-0.1l0.3-0.2l0.4-0.2l0.3-0.2l0.2-0.2
		l0.2-0.3l0.2-0.2l0.1-0.3v-0.3v-0.2v-0.3v-0.1 M3.85,47.35l0.1,0.3v0.2l0.2,0.3l0.1,0.3l0.2,0.2l0.3,0.2l0.3,0.2l0.3,0.2l0.4,0.2
		l0.4,0.1l0.4,0.1l0.5,0.1l0.5,0.1h0.4h0.5h0.5l0.4-0.1l0.4-0.1l0.5-0.1l0.4-0.2l0.3-0.1l0.4-0.2l0.3-0.2l0.2-0.3l0.2-0.2l0.2-0.3
		l0.1-0.2v-0.3v-0.2 M3.95,46.75v0.1l-0.1,0.3l0.1,0.3v0.2l0.2,0.3l0.1,0.2l0.2,0.3l0.3,0.2l0.3,0.2l0.3,0.2l0.4,0.2l0.4,0.1
		l0.4,0.1l0.5,0.1h0.5l0.4,0.1h0.5l0.5-0.1h0.4l0.4-0.1l0.5-0.1l0.4-0.2l0.3-0.2l0.4-0.1l0.3-0.3l0.2-0.2l0.2-0.2l0.2-0.3l0.1-0.2
		v-0.3v-0.3v-0.3 M3.85,46.25l0.1,0.2v0.3l0.2,0.3l0.1,0.2l0.2,0.3l0.3,0.2l0.3,0.2l0.3,0.2l0.4,0.1l0.4,0.2l0.4,0.1l0.5,0.1h0.5
		l0.4,0.1h0.5l0.5-0.1h0.4l0.4-0.1l0.5-0.1l0.4-0.2l0.3-0.2l0.4-0.2l0.3-0.2l0.2-0.2l0.2-0.2l0.2-0.3l0.1-0.3v-0.2v-0.2 M3.95,45.55
		v0.2l-0.1,0.2l0.1,0.3v0.3l0.2,0.2l0.1,0.3l0.2,0.2l0.3,0.3l0.3,0.2l0.3,0.2l0.4,0.1l0.4,0.2l0.4,0.1h0.5l0.5,0.1h0.4h0.5h0.5
		l0.4-0.1l0.4-0.1l0.5-0.1l0.4-0.1l0.3-0.2l0.4-0.2l0.3-0.2l0.2-0.2l0.2-0.3l0.2-0.2l0.1-0.3v-0.3v-0.2v-0.3v-0.1 M3.85,45.15
		l0.1,0.2v0.3l0.2,0.2l0.1,0.3l0.2,0.2l0.3,0.3l0.3,0.2l0.3,0.1l0.4,0.2l0.4,0.1l0.4,0.2h0.5l0.5,0.1h0.4h0.5h0.5l0.4-0.1l0.4-0.1
		l0.5-0.1l0.4-0.1l0.3-0.2l0.4-0.2l0.3-0.2l0.2-0.2l0.2-0.3l0.2-0.2l0.1-0.3v-0.3v-0.1 M3.95,44.45v0.1l-0.1,0.3l0.1,0.3v0.2
		l0.2,0.3l0.1,0.3l0.2,0.2l0.3,0.2l0.3,0.2l0.3,0.2l0.4,0.2l0.4,0.1l0.4,0.1l0.5,0.1l0.5,0.1h0.4h0.5h0.5l0.4-0.1l0.4-0.1l0.5-0.1
		l0.4-0.2l0.3-0.1l0.4-0.2l0.3-0.2l0.2-0.3l0.2-0.2l0.2-0.3l0.1-0.2v-0.3v-0.3v-0.2v-0.1 M3.85,43.95l0.1,0.3v0.2l0.2,0.3l0.1,0.2
		l0.2,0.3l0.3,0.2l0.3,0.2l0.3,0.2l0.4,0.2l0.4,0.1l0.4,0.1l0.5,0.1l0.5,0.1h0.4h0.5l0.5-0.1h0.4l0.4-0.1l0.5-0.1l0.4-0.2l0.3-0.1
		l0.4-0.2l0.3-0.2l0.2-0.3l0.2-0.2l0.2-0.3l0.1-0.2v-0.3v-0.2 M3.95,43.25v0.2l-0.1,0.3l0.1,0.2v0.3l0.2,0.3l0.1,0.2l0.2,0.3
		l0.3,0.2l0.3,0.2l0.3,0.2l0.4,0.1l0.4,0.2l0.4,0.1l0.5,0.1h0.5l0.4,0.1h0.5l0.5-0.1h0.4l0.4-0.1l0.5-0.2l0.4-0.1l0.3-0.2l0.4-0.2
		l0.3-0.2l0.2-0.2l0.2-0.2l0.2-0.3l0.1-0.3v-0.2v-0.3v-0.3v-0.1 M3.85,42.85l0.1,0.2v0.3l0.2,0.3l0.1,0.2l0.2,0.2l0.3,0.3l0.3,0.2
		l0.3,0.2l0.4,0.1l0.4,0.2l0.4,0.1l0.5,0.1h0.5h0.4h0.5h0.5l0.4-0.1h0.4l0.5-0.2l0.4-0.1l0.3-0.2l0.4-0.2l0.3-0.2l0.2-0.2l0.2-0.3
		l0.2-0.2l0.1-0.3v-0.2v-0.2 M3.95,42.15v0.2l-0.1,0.2l0.1,0.3v0.3l0.2,0.2l0.1,0.3l0.2,0.2l0.3,0.2l0.3,0.3l0.3,0.1l0.4,0.2
		l0.4,0.1l0.4,0.2h0.5l0.5,0.1h0.4h0.5h0.5l0.4-0.1l0.4-0.1l0.5-0.1l0.4-0.1l0.3-0.2l0.4-0.2l0.3-0.2l0.2-0.2l0.2-0.3l0.2-0.2
		l0.1-0.3v-0.3v-0.2v-0.3v-0.1 M3.85,41.75l0.1,0.2v0.3l0.2,0.2l0.1,0.3l0.2,0.2l0.3,0.2l0.3,0.2l0.3,0.2l0.4,0.2l0.4,0.1l0.4,0.1
		l0.5,0.1l0.5,0.1h0.4h0.5h0.5l0.4-0.1l0.4-0.1l0.5-0.1l0.4-0.1l0.3-0.2l0.4-0.2l0.3-0.2l0.2-0.2l0.2-0.3l0.2-0.2l0.1-0.3v-0.3v-0.1
		 M3.95,41.05v0.1l-0.1,0.3l0.1,0.3v0.2l0.2,0.3l0.1,0.2l0.2,0.3l0.3,0.2l0.3,0.2l0.3,0.2l0.4,0.2l0.4,0.1l0.4,0.1l0.5,0.1l0.5,0.1
		h0.4h0.5l0.5-0.1h0.4l0.4-0.1l0.5-0.1l0.4-0.2l0.3-0.1l0.4-0.2l0.3-0.2l0.2-0.3l0.2-0.2l0.2-0.3l0.1-0.2v-0.3v-0.3v-0.2v-0.1
		 M3.85,40.55l0.1,0.3v0.2l0.2,0.3l0.1,0.2l0.2,0.3l0.3,0.2l0.3,0.2l0.3,0.2l0.4,0.2l0.4,0.1l0.4,0.1l0.5,0.1h0.5l0.4,0.1h0.5
		l0.5-0.1h0.4l0.4-0.1l0.5-0.1l0.4-0.2l0.3-0.2l0.4-0.1l0.3-0.3l0.2-0.2l0.2-0.2l0.2-0.3l0.1-0.2v-0.3v-0.2 M3.95,39.85v0.2
		l-0.1,0.3l0.1,0.2v0.3l0.2,0.3l0.1,0.2l0.2,0.2l0.3,0.3l0.3,0.2l0.3,0.2l0.4,0.1l0.4,0.2l0.4,0.1l0.5,0.1h0.5h0.4h0.5h0.5l0.4-0.1
		l0.4-0.1l0.5-0.1l0.4-0.1l0.3-0.2l0.4-0.2l0.3-0.2l0.2-0.2l0.2-0.3l0.2-0.2l0.1-0.3v-0.2v-0.3v-0.3v-0.1 M3.85,39.45l0.1,0.2v0.3
		l0.2,0.2l0.1,0.3l0.2,0.2l0.3,0.3l0.3,0.2l0.3,0.2l0.4,0.1l0.4,0.2l0.4,0.1h0.5l0.5,0.1h0.4h0.5h0.5l0.4-0.1l0.4-0.1l0.5-0.1
		l0.4-0.1l0.3-0.2l0.4-0.2l0.3-0.2l0.2-0.2l0.2-0.3l0.2-0.2l0.1-0.3v-0.3v-0.1 M3.95,38.75v0.1l-0.1,0.3l0.1,0.3v0.3l0.2,0.2
		l0.1,0.3l0.2,0.2l0.3,0.2l0.3,0.2l0.3,0.2l0.4,0.2l0.4,0.1l0.4,0.1l0.5,0.1l0.5,0.1h0.4h0.5h0.5l0.4-0.1l0.4-0.1l0.5-0.1l0.4-0.2
		l0.3-0.1l0.4-0.2l0.3-0.2l0.2-0.3l0.2-0.2l0.2-0.3l0.1-0.2v-0.3v-0.3v-0.2v-0.1 M3.85,38.25l0.1,0.3v0.2l0.2,0.3l0.1,0.3l0.2,0.2
		l0.3,0.2l0.3,0.2l0.3,0.2l0.4,0.2l0.4,0.1l0.4,0.1l0.5,0.1l0.5,0.1h0.4h0.5h0.5l0.4-0.1l0.4-0.1l0.5-0.1l0.4-0.2l0.3-0.1l0.4-0.2
		l0.3-0.2l0.2-0.3l0.2-0.2l0.2-0.3l0.1-0.2v-0.3v-0.2 M3.95,37.65v0.1l-0.1,0.3l0.1,0.2v0.3l0.2,0.3l0.1,0.2l0.2,0.3l0.3,0.2
		l0.3,0.2l0.3,0.2l0.4,0.1l0.4,0.2l0.4,0.1l0.5,0.1h0.5l0.4,0.1h0.5l0.5-0.1h0.4l0.4-0.1l0.5-0.1l0.4-0.2l0.3-0.2l0.4-0.2l0.3-0.2
		l0.2-0.2l0.2-0.2l0.2-0.3l0.1-0.3v-0.2v-0.3v-0.3 M3.85,37.15l0.1,0.2v0.3l0.2,0.3l0.1,0.2l0.2,0.3l0.3,0.2l0.3,0.2l0.3,0.2
		l0.4,0.1l0.4,0.2l0.4,0.1l0.5,0.1h0.5l0.4,0.1h0.5l0.5-0.1h0.4l0.4-0.1l0.5-0.2l0.4-0.1l0.3-0.2l0.4-0.2l0.3-0.2l0.2-0.2l0.2-0.2
		l0.2-0.3l0.1-0.3v-0.2v-0.2 M3.95,36.45v0.2l-0.1,0.2l0.1,0.3v0.3l0.2,0.2l0.1,0.3l0.2,0.2l0.3,0.3l0.3,0.2l0.3,0.1l0.4,0.2
		l0.4,0.1l0.4,0.2h0.5l0.5,0.1h0.4h0.5h0.5l0.4-0.1l0.4-0.1l0.5-0.1l0.4-0.1l0.3-0.2l0.4-0.2l0.3-0.2l0.2-0.2l0.2-0.3l0.2-0.2
		l0.1-0.3v-0.3v-0.2v-0.3v-0.1 M3.85,36.05l0.1,0.2v0.3l0.2,0.2l0.1,0.3l0.2,0.2l0.3,0.2l0.3,0.3l0.3,0.1l0.4,0.2l0.4,0.1l0.4,0.2
		h0.5l0.5,0.1h0.4h0.5h0.5l0.4-0.1l0.4-0.1l0.5-0.1l0.4-0.1l0.3-0.2l0.4-0.2l0.3-0.2l0.2-0.2l0.2-0.3l0.2-0.2l0.1-0.3v-0.3v-0.1
		 M3.95,35.35v0.1l-0.1,0.3l0.1,0.3v0.2l0.2,0.3l0.1,0.3l0.2,0.2l0.3,0.2l0.3,0.2l0.3,0.2l0.4,0.2l0.4,0.1l0.4,0.1l0.5,0.1l0.5,0.1
		h0.4h0.5l0.5-0.1h0.4l0.4-0.1l0.5-0.1l0.4-0.2l0.3-0.1l0.4-0.2l0.3-0.2l0.2-0.3l0.2-0.2l0.2-0.3l0.1-0.2v-0.3v-0.3v-0.2v-0.1
		 M3.85,34.85l0.1,0.3v0.2l0.2,0.3l0.1,0.2l0.2,0.3l0.3,0.2l0.3,0.2l0.3,0.2l0.4,0.2l0.4,0.1l0.4,0.1l0.5,0.1l0.5,0.1h0.4h0.5
		l0.5-0.1h0.4l0.4-0.1l0.5-0.1l0.4-0.2l0.3-0.1l0.4-0.2l0.3-0.2l0.2-0.3l0.2-0.2l0.2-0.3l0.1-0.2v-0.3v-0.2 M3.95,34.15v0.2
		l-0.1,0.3l0.1,0.2v0.3l0.2,0.3l0.1,0.2l0.2,0.3l0.3,0.2l0.3,0.2l0.3,0.2l0.4,0.1l0.4,0.2l0.4,0.1l0.5,0.1h0.5h0.4h0.5h0.5l0.4-0.1
		h0.4l0.5-0.2l0.4-0.1l0.3-0.2l0.4-0.2l0.3-0.2l0.2-0.2l0.2-0.2l0.2-0.3l0.1-0.3v-0.2v-0.3v-0.3v-0.1 M3.85,33.75l0.1,0.2v0.3
		l0.2,0.3l0.1,0.2l0.2,0.2l0.3,0.3l0.3,0.2l0.3,0.2l0.4,0.1l0.4,0.2l0.4,0.1l0.5,0.1h0.5h0.4h0.5h0.5l0.4-0.1l0.4-0.1l0.5-0.1
		l0.4-0.1l0.3-0.2l0.4-0.2l0.3-0.2l0.2-0.2l0.2-0.3l0.2-0.2l0.1-0.3v-0.2v-0.2 M3.95,33.05v0.2l-0.1,0.2l0.1,0.3v0.3l0.2,0.2
		l0.1,0.3l0.2,0.2l0.3,0.2l0.3,0.2l0.3,0.2l0.4,0.2l0.4,0.1l0.4,0.1l0.5,0.1l0.5,0.1h0.4h0.5h0.5l0.4-0.1l0.4-0.1l0.5-0.1l0.4-0.1
		l0.3-0.2l0.4-0.2l0.3-0.2l0.2-0.2l0.2-0.3l0.2-0.2l0.1-0.3v-0.3v-0.2v-0.3v-0.1 M3.85,32.55l0.1,0.3v0.3l0.2,0.2l0.1,0.3l0.2,0.2
		l0.3,0.2l0.3,0.2l0.3,0.2l0.4,0.2l0.4,0.1l0.4,0.1l0.5,0.1l0.5,0.1h0.4h0.5h0.5l0.4-0.1l0.4-0.1l0.5-0.1l0.4-0.2l0.3-0.1l0.4-0.2
		l0.3-0.2l0.2-0.3l0.2-0.2l0.2-0.3l0.1-0.2v-0.3v-0.2 M3.95,31.95v0.1l-0.1,0.3l0.1,0.3v0.2l0.2,0.3l0.1,0.2l0.2,0.3l0.3,0.2
		l0.3,0.2l0.3,0.2l0.4,0.2l0.4,0.1l0.4,0.1l0.5,0.1h0.5l0.4,0.1h0.5l0.5-0.1h0.4l0.4-0.1l0.5-0.1l0.4-0.2l0.3-0.2l0.4-0.1l0.3-0.3
		l0.2-0.2l0.2-0.2l0.2-0.3l0.1-0.2v-0.3v-0.3v-0.3 M3.85,31.45l0.1,0.2v0.3l0.2,0.3l0.1,0.2l0.2,0.3l0.3,0.2l0.3,0.2l0.3,0.2
		l0.4,0.1l0.4,0.2l0.4,0.1l0.5,0.1h0.5l0.4,0.1h0.5l0.5-0.1h0.4l0.4-0.1l0.5-0.1l0.4-0.2l0.3-0.2l0.4-0.2l0.3-0.2l0.2-0.2l0.2-0.2
		l0.2-0.3l0.1-0.3v-0.2v-0.2 M3.95,30.75v0.2l-0.1,0.2l0.1,0.3v0.3l0.2,0.2l0.1,0.3l0.2,0.2l0.3,0.3l0.3,0.2l0.3,0.2l0.4,0.1
		l0.4,0.2l0.4,0.1l0.5,0.1h0.5h0.4h0.5h0.5l0.4-0.1l0.4-0.1l0.5-0.1l0.4-0.1l0.3-0.2l0.4-0.2l0.3-0.2l0.2-0.2l0.2-0.3l0.2-0.2
		l0.1-0.3v-0.2v-0.3v-0.3v-0.1 M3.85,30.35l0.1,0.2v0.3l0.2,0.2l0.1,0.3l0.2,0.2l0.3,0.3l0.3,0.2l0.3,0.1l0.4,0.2l0.4,0.1l0.4,0.2
		h0.5l0.5,0.1h0.4h0.5h0.5l0.4-0.1l0.4-0.1l0.5-0.1l0.4-0.1l0.3-0.2l0.4-0.2l0.3-0.2l0.2-0.2l0.2-0.3l0.2-0.2l0.1-0.3v-0.3v-0.1
		 M3.95,29.65v0.1l-0.1,0.3l0.1,0.3v0.2l0.2,0.3l0.1,0.3l0.2,0.2l0.3,0.2l0.3,0.2l0.3,0.2l0.4,0.2l0.4,0.1l0.4,0.1l0.5,0.1l0.5,0.1
		h0.4h0.5h0.5l0.4-0.1l0.4-0.1l0.5-0.1l0.4-0.2l0.3-0.1l0.4-0.2l0.3-0.2l0.2-0.3l0.2-0.2l0.2-0.3l0.1-0.2v-0.3v-0.3v-0.2v-0.1
		 M3.85,29.15l0.1,0.3v0.2l0.2,0.3l0.1,0.3l0.2,0.2l0.3,0.2l0.3,0.2l0.3,0.2l0.4,0.2l0.4,0.1l0.4,0.1l0.5,0.1l0.5,0.1h0.4h0.5
		l0.5-0.1h0.4l0.4-0.1l0.5-0.1l0.4-0.2l0.3-0.1l0.4-0.2l0.3-0.2l0.2-0.3l0.2-0.2l0.2-0.3l0.1-0.2v-0.3v-0.2 M3.95,28.45v0.2
		l-0.1,0.3l0.1,0.2v0.3l0.2,0.3l0.1,0.2l0.2,0.3l0.3,0.2l0.3,0.2l0.3,0.2l0.4,0.1l0.4,0.2l0.4,0.1l0.5,0.1h0.5l0.4,0.1h0.5l0.5-0.1
		h0.4l0.4-0.1l0.5-0.2l0.4-0.1l0.3-0.2l0.4-0.2l0.3-0.2l0.2-0.2l0.2-0.2l0.2-0.3l0.1-0.3v-0.2v-0.3v-0.3 M3.85,28.05l0.1,0.2v0.3
		l0.2,0.3l0.1,0.2l0.2,0.3l0.3,0.2l0.3,0.2l0.3,0.2l0.4,0.1l0.4,0.2l0.4,0.1l0.5,0.1h0.5h0.4h0.5h0.5l0.4-0.1h0.4l0.5-0.2l0.4-0.1
		l0.3-0.2l0.4-0.2l0.3-0.2l0.2-0.2l0.2-0.2l0.2-0.3l0.1-0.3v-0.2v-0.2 M3.95,27.35v0.2l-0.1,0.2l0.1,0.3v0.3l0.2,0.2l0.1,0.3
		l0.2,0.2l0.3,0.2l0.3,0.3l0.3,0.1l0.4,0.2l0.4,0.1l0.4,0.2h0.5l0.5,0.1h0.4h0.5h0.5l0.4-0.1l0.4-0.1l0.5-0.1l0.4-0.1l0.3-0.2
		l0.4-0.2l0.3-0.2l0.2-0.2l0.2-0.3l0.2-0.2l0.1-0.3v-0.3v-0.2v-0.3v-0.1 M3.85,26.95l0.1,0.2v0.3l0.2,0.2l0.1,0.3l0.2,0.2l0.3,0.2
		l0.3,0.2l0.3,0.2l0.4,0.2l0.4,0.1l0.4,0.1l0.5,0.1l0.5,0.1h0.4h0.5h0.5l0.4-0.1l0.4-0.1l0.5-0.1l0.4-0.1l0.3-0.2l0.4-0.2l0.3-0.2
		l0.2-0.2l0.2-0.3l0.2-0.2l0.1-0.3v-0.3v-0.1 M3.95,26.25v0.1l-0.1,0.3l0.1,0.3v0.2l0.2,0.3l0.1,0.2l0.2,0.3l0.3,0.2l0.3,0.2
		l0.3,0.2l0.4,0.2l0.4,0.1l0.4,0.1l0.5,0.1l0.5,0.1h0.4h0.5l0.5-0.1h0.4l0.4-0.1l0.5-0.1l0.4-0.2l0.3-0.1l0.4-0.2l0.3-0.2l0.2-0.3
		l0.2-0.2l0.2-0.3l0.1-0.2v-0.3v-0.3v-0.2v-0.1 M3.85,25.75l0.1,0.3v0.2l0.2,0.3l0.1,0.2l0.2,0.3l0.3,0.2l0.3,0.2l0.3,0.2l0.4,0.2
		l0.4,0.1l0.4,0.1l0.5,0.1h0.5l0.4,0.1h0.5l0.5-0.1h0.4l0.4-0.1l0.5-0.1l0.4-0.2l0.3-0.2l0.4-0.1l0.3-0.3l0.2-0.2l0.2-0.2l0.2-0.3
		l0.1-0.2v-0.3v-0.2 M3.95,25.05v0.2l-0.1,0.3l0.1,0.2v0.3l0.2,0.3l0.1,0.2l0.2,0.2l0.3,0.3l0.3,0.2l0.3,0.2l0.4,0.1l0.4,0.2
		l0.4,0.1l0.5,0.1h0.5h0.4h0.5h0.5l0.4-0.1h0.4l0.5-0.2l0.4-0.1l0.3-0.2l0.4-0.2l0.3-0.2l0.2-0.2l0.2-0.3l0.2-0.2l0.1-0.3v-0.2v-0.3
		v-0.3v-0.1 M3.85,24.65l0.1,0.2v0.3l0.2,0.2l0.1,0.3l0.2,0.2l0.3,0.3l0.3,0.2l0.3,0.2l0.4,0.1l0.4,0.2l0.4,0.1l0.5,0.1h0.5h0.4h0.5
		h0.5l0.4-0.1l0.4-0.1l0.5-0.1l0.4-0.1l0.3-0.2l0.4-0.2l0.3-0.2l0.2-0.2l0.2-0.3l0.2-0.2l0.1-0.3v-0.3v-0.1 M3.95,23.95v0.1
		l-0.1,0.3l0.1,0.3v0.3l0.2,0.2l0.1,0.3l0.2,0.2l0.3,0.2l0.3,0.2l0.3,0.2l0.4,0.2l0.4,0.1l0.4,0.1l0.5,0.1l0.5,0.1h0.4h0.5h0.5
		l0.4-0.1l0.4-0.1l0.5-0.1l0.4-0.2l0.3-0.1l0.4-0.2l0.3-0.2l0.2-0.3l0.2-0.2l0.2-0.2l0.1-0.3v-0.3v-0.3v-0.2v-0.1 M3.85,23.45
		l0.1,0.3v0.2l0.2,0.3l0.1,0.3l0.2,0.2l0.3,0.2l0.3,0.2l0.3,0.2l0.4,0.2l0.4,0.1l0.4,0.1l0.5,0.1l0.5,0.1h0.4h0.5h0.5l0.4-0.1
		l0.4-0.1l0.5-0.1l0.4-0.2l0.3-0.1l0.4-0.2l0.3-0.2l0.2-0.3l0.2-0.2l0.2-0.3l0.1-0.2v-0.3v-0.2 M3.95,22.85v0.1l-0.1,0.3l0.1,0.2
		v0.3l0.2,0.3l0.1,0.2l0.2,0.3l0.3,0.2l0.3,0.2l0.3,0.2l0.4,0.1l0.4,0.2l0.4,0.1l0.5,0.1h0.5l0.4,0.1h0.5l0.5-0.1h0.4l0.4-0.1
		l0.5-0.1l0.4-0.2l0.3-0.2l0.4-0.1l0.3-0.3l0.2-0.2l0.2-0.2l0.2-0.3l0.1-0.2v-0.3v-0.3v-0.3 M3.85,22.35l0.1,0.2v0.3l0.2,0.3
		l0.1,0.2l0.2,0.3l0.3,0.2l0.3,0.2l0.3,0.2l0.4,0.1l0.4,0.2l0.4,0.1l0.5,0.1h0.5l0.4,0.1h0.5l0.5-0.1h0.4l0.4-0.1l0.5-0.2l0.4-0.1
		l0.3-0.2l0.4-0.2l0.3-0.2l0.2-0.2l0.2-0.2l0.2-0.3l0.1-0.3v-0.2v-0.2 M3.95,21.65v0.2l-0.1,0.2l0.1,0.3v0.3l0.2,0.2l0.1,0.3
		l0.2,0.2l0.3,0.3l0.3,0.2l0.3,0.1l0.4,0.2l0.4,0.1l0.4,0.2h0.5l0.5,0.1h0.4h0.5h0.5l0.4-0.1l0.4-0.1l0.5-0.1l0.4-0.1l0.3-0.2
		l0.4-0.2l0.3-0.2l0.2-0.2l0.2-0.3l0.2-0.2l0.1-0.3v-0.3v-0.2v-0.3v-0.1 M3.85,21.25l0.1,0.2v0.3l0.2,0.2l0.1,0.3l0.2,0.2l0.3,0.2
		l0.3,0.3l0.3,0.1l0.4,0.2l0.4,0.1l0.4,0.2h0.5l0.5,0.1h0.4h0.5h0.5l0.4-0.1l0.4-0.1l0.5-0.1l0.4-0.1l0.3-0.2l0.4-0.2l0.3-0.2
		l0.2-0.2l0.2-0.3l0.2-0.2l0.1-0.3v-0.3v-0.1 M3.95,20.55v0.1l-0.1,0.3l0.1,0.3v0.2l0.2,0.3l0.1,0.3l0.2,0.2l0.3,0.2l0.3,0.2
		l0.3,0.2l0.4,0.2l0.4,0.1l0.4,0.1l0.5,0.1l0.5,0.1h0.4h0.5h0.5l0.4-0.1l0.4-0.1l0.5-0.1l0.4-0.2l0.3-0.1l0.4-0.2l0.3-0.2l0.2-0.3
		l0.2-0.2l0.2-0.3l0.1-0.2v-0.3v-0.3v-0.2v-0.1 M3.85,20.05l0.1,0.3v0.2l0.2,0.3l0.1,0.2l0.2,0.3l0.3,0.2l0.3,0.2l0.3,0.2l0.4,0.2
		l0.4,0.1l0.4,0.1l0.5,0.1l0.5,0.1h0.4h0.5l0.5-0.1h0.4l0.4-0.1l0.5-0.1l0.4-0.2l0.3-0.1l0.4-0.2l0.3-0.2l0.2-0.3l0.2-0.2l0.2-0.3
		l0.1-0.2v-0.3v-0.2 M3.95,19.35v0.2l-0.1,0.3l0.1,0.2v0.3l0.2,0.3l0.1,0.2l0.2,0.3l0.3,0.2l0.3,0.2l0.3,0.2l0.4,0.1l0.4,0.2
		l0.4,0.1l0.5,0.1h0.5l0.4,0.1l0.5-0.1h0.5h0.4l0.4-0.1l0.5-0.2l0.4-0.1l0.3-0.2l0.4-0.2l0.3-0.2l0.2-0.2l0.2-0.2l0.2-0.3l0.1-0.3
		v-0.2v-0.3v-0.3v-0.1 M3.85,18.95l0.1,0.2v0.3l0.2,0.3l0.1,0.2l0.2,0.2l0.3,0.3l0.3,0.2l0.3,0.2l0.4,0.1l0.4,0.2l0.4,0.1l0.5,0.1
		h0.5h0.4h0.5h0.5l0.4-0.1h0.4l0.5-0.2l0.4-0.1l0.3-0.2l0.4-0.2l0.3-0.2l0.2-0.2l0.2-0.3l0.2-0.2l0.1-0.3v-0.2v-0.2 M3.95,18.25v0.2
		l-0.1,0.2l0.1,0.3v0.3l0.2,0.2l0.1,0.3l0.2,0.2l0.3,0.2l0.3,0.2l0.3,0.2l0.4,0.2l0.4,0.1l0.4,0.1l0.5,0.1l0.5,0.1h0.4h0.5h0.5
		l0.4-0.1l0.4-0.1l0.5-0.1l0.4-0.1l0.3-0.2l0.4-0.2l0.3-0.2l0.2-0.2l0.2-0.3l0.2-0.2l0.1-0.3v-0.3v-0.2v-0.3v-0.1 M3.85,17.85
		l0.1,0.2v0.3l0.2,0.2l0.1,0.3l0.2,0.2l0.3,0.2l0.3,0.2l0.3,0.2l0.4,0.2l0.4,0.1l0.4,0.1l0.5,0.1l0.5,0.1h0.4h0.5h0.5l0.4-0.1
		l0.4-0.1l0.5-0.1l0.4-0.2l0.3-0.1l0.4-0.2l0.3-0.2l0.2-0.3l0.2-0.2l0.2-0.2l0.1-0.3v-0.3v-0.1 M3.95,17.15v0.1l-0.1,0.3l0.1,0.3
		v0.2l0.2,0.3l0.1,0.2l0.2,0.3l0.3,0.2l0.3,0.2l0.3,0.2l0.4,0.2l0.4,0.1l0.4,0.1l0.5,0.1h0.5l0.4,0.1h0.5l0.5-0.1h0.4l0.4-0.1
		l0.5-0.1l0.4-0.2l0.3-0.1l0.4-0.2l0.3-0.3l0.2-0.2l0.2-0.2l0.2-0.3l0.1-0.2v-0.3v-0.3v-0.2v-0.1 M3.85,16.65l0.1,0.2v0.3l0.2,0.3
		l0.1,0.2l0.2,0.3l0.3,0.2l0.3,0.2l0.3,0.2l0.4,0.1l0.4,0.2l0.4,0.1l0.5,0.1h0.5l0.4,0.1h0.5l0.5-0.1h0.4l0.4-0.1l0.5-0.1l0.4-0.2
		l0.3-0.2l0.4-0.1l0.3-0.3l0.2-0.2l0.2-0.2l0.2-0.3l0.1-0.2v-0.3v-0.2 M3.95,15.95v0.2l-0.1,0.2l0.1,0.3v0.3l0.2,0.2l0.1,0.3
		l0.2,0.2l0.3,0.3l0.3,0.2l0.3,0.2l0.4,0.1l0.4,0.2l0.4,0.1l0.5,0.1h0.5h0.4h0.5h0.5l0.4-0.1l0.4-0.1l0.5-0.1l0.4-0.1l0.3-0.2
		l0.4-0.2l0.3-0.2l0.2-0.2l0.2-0.3l0.2-0.2l0.1-0.3v-0.2v-0.3v-0.3v-0.1 M3.85,15.55l0.1,0.2v0.3l0.2,0.2l0.1,0.3l0.2,0.2l0.3,0.3
		l0.3,0.2l0.3,0.1l0.4,0.2l0.4,0.1l0.4,0.2h0.5l0.5,0.1h0.4h0.5h0.5l0.4-0.1l0.4-0.1l0.5-0.1l0.4-0.1l0.3-0.2l0.4-0.2l0.3-0.2
		l0.2-0.2l0.2-0.3l0.2-0.2l0.1-0.3v-0.3v-0.1 M3.95,14.85v0.1l-0.1,0.3l0.1,0.3v0.2l0.2,0.3l0.1,0.3l0.2,0.2l0.3,0.2l0.3,0.2
		l0.3,0.2l0.4,0.2l0.4,0.1l0.4,0.1l0.5,0.1l0.5,0.1h0.4h0.5h0.5l0.4-0.1l0.4-0.1l0.5-0.1l0.4-0.2l0.3-0.1l0.4-0.2l0.3-0.2l0.2-0.3
		l0.2-0.2l0.2-0.3l0.1-0.2v-0.3v-0.3v-0.2v-0.1 M3.85,14.35l0.1,0.3v0.2l0.2,0.3l0.1,0.3l0.2,0.2l0.3,0.2l0.3,0.2l0.3,0.2l0.4,0.2
		l0.4,0.1l0.4,0.1l0.5,0.1l0.5,0.1h0.4h0.5h0.5l0.4-0.1l0.4-0.1l0.5-0.1l0.4-0.2l0.3-0.1l0.4-0.2l0.3-0.2l0.2-0.3l0.2-0.2l0.2-0.3
		l0.1-0.2v-0.3v-0.2 M3.95,13.75v0.1l-0.1,0.3l0.1,0.2v0.3l0.2,0.3l0.1,0.2l0.2,0.3l0.3,0.2l0.3,0.2l0.3,0.2l0.4,0.1l0.4,0.2
		l0.4,0.1l0.5,0.1h0.5l0.4,0.1h0.5l0.5-0.1h0.4l0.4-0.1l0.5-0.2l0.4-0.1l0.3-0.2l0.4-0.2l0.3-0.2l0.2-0.2l0.2-0.2l0.2-0.3l0.1-0.3
		v-0.2v-0.3v-0.3 M6.15,5.95l1.3-0.2 M7.45,5.75l1.5-0.2 M3.85,13.25l0.1,0.2v0.3l0.2,0.3l0.1,0.2l0.2,0.3l0.3,0.2l0.3,0.2l0.3,0.2
		l0.4,0.1l0.4,0.2l0.4,0.1l0.5,0.1h0.5l0.4,0.1l0.5-0.1h0.5h0.4l0.4-0.1l0.5-0.2l0.4-0.1l0.3-0.2l0.4-0.2l0.3-0.2l0.2-0.2l0.2-0.2
		l0.2-0.3l0.1-0.3v-0.2v-0.2 M8.95,5.55v-2.6 M8.95,5.55l1.2,0.6 M3.95,12.55v0.2l-0.1,0.2l0.1,0.3v0.3l0.2,0.2l0.1,0.3l0.2,0.2
		l0.3,0.2l0.3,0.3l0.3,0.1l0.4,0.2l0.4,0.1l0.4,0.2h0.5l0.5,0.1h0.4h0.5h0.5l0.4-0.1l0.4-0.1l0.5-0.1l0.4-0.1l0.3-0.2l0.4-0.2
		l0.3-0.2l0.2-0.2l0.2-0.3l0.2-0.2l0.1-0.3v-0.3v-0.2v-0.3v-0.1 M5.85,5.75v-2.3 M10.15,6.15l-0.3-0.1l-0.3-0.1l-0.3-0.1l-0.4-0.1
		h-0.3l-0.4-0.1l-0.4,0.1h-0.3 M7.45,5.75l-0.4,0.1l-0.3,0.1l-0.3,0.1h-0.1 M3.85,12.15l0.1,0.2v0.3l0.2,0.2l0.1,0.3l0.2,0.2
		l0.3,0.2l0.3,0.2l0.3,0.2l0.4,0.2l0.4,0.1l0.4,0.1l0.5,0.1l0.5,0.1h0.4h0.5h0.5l0.4-0.1l0.4-0.1l0.5-0.1l0.4-0.1l0.3-0.2l0.4-0.2
		l0.3-0.2l0.2-0.2l0.2-0.3l0.2-0.2l0.1-0.3v-0.3v-0.1 M5.05,10.75l0.4,0.2l0.4,0.2l0.4,0.1l0.4,0.1l0.4,0.1l0.5,0.1h0.5h0.4l0.5-0.1
		h0.5l0.4-0.1l0.4-0.1l0.4-0.2l0.4-0.2l0.2-0.1 M0.25,6.15l0.1,0.3v0.3l0.1,0.4l0.2,0.4l0.2,0.3l0.3,0.3l0.3,0.3l0.3,0.4l0.4,0.2
		l0.4,0.3 M2.55,9.35l0.5,0.3l0.5,0.2l0.5,0.2l0.6,0.2l0.6,0.1l0.6,0.1l0.6,0.1l0.6,0.1h0.6h0.7h0.6h0.6l0.6-0.1l0.6-0.1l0.6-0.2
		l0.6-0.1l0.5-0.2l0.5-0.2l0.5-0.3l0.5-0.2l0.4-0.3l0.3-0.3l0.4-0.3l0.3-0.3l0.2-0.4l0.2-0.3l0.1-0.4l0.1-0.3v-0.4v-0.1 M2.55,7.95
		l0.5,0.3l0.5,0.2l0.5,0.2l0.6,0.2l0.6,0.1l0.6,0.2l0.6,0.1h0.6l0.6,0.1h0.7l0.6-0.1h0.6l0.6-0.1l0.6-0.1l0.6-0.1l0.6-0.2l0.5-0.2
		l0.5-0.2l0.5-0.2l0.5-0.3l0.4-0.3l0.3-0.3l0.4-0.3l0.3-0.3l0.2-0.3l0.2-0.4l0.1-0.3l0.1-0.4v-0.4v-0.3v-0.4l-0.1-0.4l-0.2-0.3
		l-0.2-0.4l-0.3-0.3l-0.3-0.3l-0.3-0.3l-0.4-0.3l-0.5-0.3l-0.4-0.2l-0.5-0.2l-0.5-0.2l-0.6-0.2l-0.6-0.2l-0.6-0.1l-0.6-0.1l-0.6-0.1
		h-0.6h-0.7h-0.6l-0.6,0.1l-0.6,0.1l-0.6,0.1l-0.6,0.1l-0.6,0.2l-0.5,0.2l-0.5,0.2l-0.5,0.2l-0.5,0.3l-0.4,0.2l-0.4,0.3l-0.3,0.4
		l-0.3,0.3l-0.2,0.3l-0.2,0.4l-0.1,0.3l-0.1,0.4l-0.1,0.3l0.1,0.4v0.4l0.1,0.3l0.2,0.4l0.2,0.3l0.3,0.4l0.3,0.3l0.3,0.3l0.4,0.3
		L2.55,7.95 M4.95,5.25l0.9-1.8 M5.85,3.45l3.1-0.5 M8.95,2.95l2.4,1.3 M11.35,4.25l-0.9,1.9 M10.45,6.15l-3.2,0.5 M7.25,6.65
		l-2.3-1.4 M10.55,64.05l0.6-0.3 M5.15,63.75l0.5,0.3 M12.35,61.95L12.35,61.95 M3.85,61.95L3.85,61.95 M12.35,61.05v-0.2
		 M3.85,60.85v0.2 M12.35,59.95v-0.3 M3.85,59.65v0.3 M12.35,58.75v-0.2 M3.85,58.55v0.2 M12.35,57.65v-0.2 M3.85,57.45v0.2
		 M12.35,56.55v-0.3 M3.85,56.25v0.3 M12.35,55.35v-0.2 M3.85,55.15v0.2 M12.35,54.25v-0.3 M3.85,53.95v0.3 M12.35,53.05v-0.2
		 M3.85,52.85v0.2 M12.35,51.95v-0.2 M3.85,51.75v0.2 M12.35,50.85v-0.3 M3.85,50.55v0.3 M12.35,49.65v-0.2 M3.85,49.45v0.2
		 M12.35,48.55v-0.2 M3.85,48.35v0.2 M12.35,47.35v-0.2 M3.85,47.15v0.2 M12.35,46.25v-0.2 M3.85,46.05v0.2 M12.35,45.15v-0.3
		 M3.85,44.85v0.3 M12.35,43.95v-0.2 M3.85,43.75v0.2 M12.35,42.85v-0.2 M3.85,42.65v0.2 M12.35,41.75v-0.3 M3.85,41.45v0.3
		 M12.35,40.55v-0.2 M3.85,40.35v0.2 M12.35,39.45v-0.3 M3.85,39.15v0.3 M12.35,38.25v-0.2 M3.85,38.05v0.2 M12.35,37.15v-0.2
		 M3.85,36.95v0.2 M12.35,36.05v-0.3 M3.85,35.75v0.3 M12.35,34.85v-0.2 M3.85,34.65v0.2 M12.35,33.75v-0.2 M3.85,33.55v0.2
		 M12.35,32.55v-0.2 M3.85,32.35v0.2 M12.35,31.45v-0.2 M3.85,31.25v0.2 M12.35,30.35v-0.3 M3.85,30.05v0.3 M12.35,29.15v-0.2
		 M3.85,28.95v0.2 M12.35,28.05v-0.2 M3.85,27.85v0.2 M12.35,26.95v-0.3 M3.85,26.65v0.3 M12.35,25.75v-0.2 M3.85,25.55v0.2
		 M12.35,24.65v-0.2 M3.85,24.45v0.2 M12.35,23.45v-0.2 M3.85,23.25v0.2 M12.35,22.35v-0.2 M3.85,22.15v0.2 M12.35,21.25v-0.3
		 M3.85,20.95v0.3 M12.35,20.05v-0.2 M3.85,19.85v0.2 M12.35,18.95v-0.2 M3.85,18.75v0.2 M12.35,17.85v-0.3 M3.85,17.55v0.3
		 M12.35,16.65v-0.2 M3.85,16.45v0.2 M12.35,15.55v-0.3 M3.85,15.25v0.3 M12.35,14.35v-0.2 M3.85,14.15v0.2 M12.35,13.25v-0.2
		 M3.85,13.05v0.2 M12.35,12.15v-2 M3.85,10.15v2 M11.25,10.75l2.4-1.4 M2.55,9.35l2.5,1.4 M15.95,6.15v-1.4 M0.25,4.75v1.4"/>
</g>
</svg>
