<?xml version="1.0" encoding="utf-8"?>
<!-- Generator: Adobe Illustrator 19.0.0, SVG Export Plug-In . SVG Version: 6.00 Build 0)  -->
<svg version="1.0" id="Layer_1" xmlns="http://www.w3.org/2000/svg" xmlns:xlink="http://www.w3.org/1999/xlink" x="0px" y="0px"
	 width="21.8px" height="27.8px" viewBox="0 0 21.8 27.8" enable-background="new 0 0 21.8 27.8" xml:space="preserve">
<g>
	
		<path fill="none" stroke="#000000" stroke-width="0.25" stroke-linecap="round" stroke-linejoin="round" stroke-miterlimit="10" d="
		M15.85,13.85l-0.1,0.1l-0.2,0.2l-0.2,0.2l-0.3,0.1l-0.2,0.2l-0.3,0.2l-0.3,0.1l-0.3,0.1l-0.4,0.1l-0.3,0.1l-0.4,0.1l-0.3,0.1h-0.4
		l-0.4,0.1h-0.3h-0.4h-0.4h-0.4h-0.4l-0.3-0.1h-0.4l-0.4-0.1l-0.3-0.1l-0.4-0.1l-0.3-0.1l-0.3-0.1l-0.3-0.2l-0.3-0.1 M6.85,14.65
		l-0.2-0.2l-0.3-0.2l-0.2-0.2l-0.2-0.1v-0.1 M6.75,14.35l0.3,0.2l0.3,0.1l0.3,0.1l0.3,0.1l0.4,0.2h0.3l0.4,0.1l0.4,0.1h0.4l0.4,0.1
		h0.3h0.4h0.4h0.4l0.4-0.1h0.4l0.3-0.1l0.4-0.1l0.4-0.1l0.3-0.1l0.3-0.1l0.3-0.2"/>
	<path fill="none" stroke="#000000" stroke-width="0.5" stroke-linecap="round" stroke-linejoin="round" stroke-miterlimit="10" d="
		M7.65,26.75l0.3,0.1l0.2,0.2l0.3,0.1l0.3,0.1l0.3,0.1h0.4l0.3,0.1h0.3l0.4,0.1h0.3h0.4l0.3-0.1h0.3h0.4l0.3-0.1l0.3-0.1l0.3-0.1
		l0.3-0.1l0.3-0.1l0.3-0.1l0.2-0.1 M5.25,23.95v0.2v0.2l0.1,0.2v0.2l0.1,0.2l0.2,0.2l0.1,0.2l0.2,0.2l0.2,0.2l0.2,0.2l0.3,0.2
		l0.2,0.1 M6.85,26.25l0.3,0.2l0.3,0.1l0.3,0.2l0.3,0.1l0.4,0.1l0.3,0.1h0.4l0.4,0.1l0.3,0.1h0.4h0.4h0.4h0.4h0.3l0.4-0.1h0.4
		l0.3-0.1l0.4-0.1l0.3-0.1l0.4-0.1l0.3-0.1l0.3-0.2l0.3-0.1l0.2-0.2l0.3-0.1l0.2-0.2l0.2-0.2l0.2-0.2l0.2-0.2l0.1-0.2l0.1-0.2
		l0.1-0.2l0.1-0.3v-0.2v-0.2 M5.35,23.25v0.1l-0.1,0.2v0.2v0.3v0.2v0.2l0.1,0.2l0.1,0.2l0.1,0.2l0.2,0.2l0.2,0.2l0.1,0.2l0.3,0.2
		l0.2,0.2l0.3,0.2l0.2,0.1l0.3,0.2l0.3,0.1l0.4,0.1l0.3,0.1l0.3,0.1l0.4,0.1h0.4l0.3,0.1h0.4h0.4l0.4,0.1l0.4-0.1h0.3h0.4l0.4-0.1
		h0.4l0.3-0.1l0.4-0.1l0.3-0.1l0.3-0.1l0.3-0.2l0.3-0.1l0.3-0.2l0.2-0.1l0.3-0.2l0.2-0.2l0.2-0.2l0.1-0.2l0.2-0.2l0.1-0.2l0.1-0.2
		v-0.3l0.1-0.2v-0.2v-0.2v-0.2l-0.1-0.3 M5.25,22.65v0.1v0.2v0.2l0.1,0.3l0.1,0.2l0.1,0.2l0.2,0.2l0.2,0.2l0.1,0.2l0.3,0.2l0.2,0.1
		l0.3,0.2l0.2,0.1l0.3,0.2l0.3,0.1l0.4,0.1l0.3,0.1l0.3,0.1l0.4,0.1l0.4,0.1h0.3l0.4,0.1h0.4h0.4h0.4h0.3l0.4-0.1h0.4l0.4-0.1
		l0.3-0.1l0.4-0.1l0.3-0.1l0.3-0.1l0.3-0.1l0.3-0.2l0.3-0.1l0.2-0.2l0.3-0.2l0.2-0.2l0.2-0.2l0.1-0.2l0.2-0.2l0.1-0.2l0.1-0.2v-0.2
		l0.1-0.2v-0.3 M5.35,21.75L5.35,21.75l-0.1,0.2v0.3v0.2v0.2v0.2l0.1,0.2l0.1,0.3l0.1,0.2l0.2,0.2l0.2,0.2l0.1,0.2l0.3,0.1l0.2,0.2
		l0.3,0.2l0.2,0.1l0.3,0.2l0.3,0.1l0.4,0.1l0.3,0.1l0.3,0.1l0.4,0.1l0.4,0.1h0.3h0.4l0.4,0.1h0.4h0.4l0.3-0.1h0.4l0.4-0.1h0.4
		l0.3-0.1l0.4-0.1l0.3-0.1l0.3-0.1l0.3-0.2l0.3-0.1l0.3-0.2l0.2-0.1l0.3-0.2l0.2-0.2l0.2-0.2l0.1-0.2l0.2-0.2l0.1-0.2l0.1-0.2v-0.2
		l0.1-0.3v-0.2v-0.2v-0.2l-0.1-0.2 M5.25,21.05v0.1v0.2v0.3l0.1,0.2l0.1,0.2l0.1,0.2l0.2,0.2l0.2,0.2l0.1,0.2l0.3,0.2l0.2,0.1
		l0.3,0.2l0.2,0.2l0.3,0.1l0.3,0.1l0.4,0.2l0.3,0.1l0.3,0.1h0.4l0.4,0.1h0.3l0.4,0.1h0.4h0.4h0.4h0.3l0.4-0.1h0.4l0.4-0.1l0.3-0.1
		l0.4-0.1l0.3-0.1l0.3-0.1l0.3-0.1l0.3-0.2l0.3-0.1l0.2-0.2l0.3-0.2l0.2-0.2l0.2-0.2l0.1-0.1l0.2-0.3l0.1-0.2l0.1-0.2v-0.2l0.1-0.2
		v-0.2v-0.1 M5.35,20.15L5.35,20.15l-0.1,0.3v0.2v0.2v0.2v0.2l0.1,0.3l0.1,0.2l0.1,0.2l0.2,0.2l0.2,0.2l0.1,0.2l0.3,0.2l0.2,0.1
		l0.3,0.2l0.2,0.1l0.3,0.2l0.3,0.1l0.4,0.1l0.3,0.1l0.3,0.1l0.4,0.1l0.4,0.1h0.3l0.4,0.1h0.4h0.4h0.4h0.3l0.4-0.1h0.4l0.4-0.1
		l0.3-0.1l0.4-0.1l0.3-0.1l0.3-0.1l0.3-0.1l0.3-0.2l0.3-0.1l0.2-0.2l0.3-0.2l0.2-0.2l0.2-0.2l0.1-0.2l0.2-0.2l0.1-0.2l0.1-0.2v-0.2
		l0.1-0.2v-0.3v-0.2v-0.2l-0.1-0.2 M5.25,19.55L5.25,19.55v0.3v0.2l0.1,0.2l0.1,0.2l0.1,0.2l0.2,0.2l0.2,0.2l0.1,0.2l0.3,0.2
		l0.2,0.2l0.3,0.1l0.2,0.2l0.3,0.1l0.3,0.2l0.4,0.1l0.3,0.1l0.3,0.1h0.4l0.4,0.1l0.3,0.1h0.4h0.4h0.4h0.4h0.3h0.4l0.4-0.1l0.4-0.1
		l0.3-0.1h0.4l0.3-0.2l0.3-0.1l0.3-0.1l0.3-0.2l0.3-0.1l0.2-0.2l0.3-0.2l0.2-0.1l0.2-0.2l0.1-0.2l0.2-0.2l0.1-0.2l0.1-0.3v-0.2
		l0.1-0.2v-0.2 M5.35,18.55v0.1l-0.1,0.2v0.2v0.2v0.2v0.3l0.1,0.2l0.1,0.2l0.1,0.2l0.2,0.2l0.2,0.2l0.1,0.2l0.3,0.2l0.2,0.1l0.3,0.2
		l0.2,0.2l0.3,0.1l0.3,0.1l0.4,0.2l0.3,0.1l0.3,0.1h0.4l0.4,0.1h0.3l0.4,0.1h0.4h0.4h0.4h0.3l0.4-0.1h0.4l0.4-0.1l0.3-0.1l0.4-0.1
		l0.3-0.1l0.3-0.1l0.3-0.1l0.3-0.2l0.3-0.1l0.2-0.2l0.3-0.2l0.2-0.2l0.2-0.2l0.1-0.2l0.2-0.2l0.1-0.2l0.1-0.2v-0.2l0.1-0.2v-0.2
		v-0.3v-0.2l-0.1-0.2 M5.25,17.95v0.1v0.2v0.2l0.1,0.2l0.1,0.2l0.1,0.2l0.2,0.2l0.2,0.2l0.1,0.2l0.3,0.2l0.2,0.2l0.3,0.1l0.2,0.2
		l0.3,0.1l0.3,0.2l0.4,0.1l0.3,0.1l0.3,0.1l0.4,0.1h0.4l0.3,0.1h0.4h0.4h0.4h0.4h0.3h0.4l0.4-0.1l0.4-0.1h0.3l0.4-0.1l0.3-0.1
		l0.3-0.2l0.3-0.1l0.3-0.1l0.3-0.2l0.2-0.2l0.3-0.1l0.2-0.2l0.2-0.2l0.1-0.2l0.2-0.2l0.1-0.2l0.1-0.2v-0.3l0.1-0.2v-0.2 M8.75,8.05
		l1.2-0.2 M9.95,7.85l2-0.3 M5.35,16.95v0.1l-0.1,0.2v0.2v0.2v0.3v0.2l0.1,0.2l0.1,0.2l0.1,0.2l0.2,0.2l0.2,0.2l0.1,0.2l0.3,0.2
		l0.2,0.2l0.3,0.1l0.2,0.2l0.3,0.1l0.3,0.2l0.4,0.1l0.3,0.1l0.3,0.1h0.4l0.4,0.1l0.3,0.1h0.4h0.4h0.4h0.4h0.3l0.4-0.1h0.4l0.4-0.1
		l0.3-0.1h0.4l0.3-0.2l0.3-0.1l0.3-0.1l0.3-0.2l0.3-0.1l0.2-0.2l0.3-0.2l0.2-0.1l0.2-0.2l0.1-0.2l0.2-0.2l0.1-0.3l0.1-0.2v-0.2
		l0.1-0.2v-0.2v-0.2v-0.3l-0.1-0.2 M11.95,7.55v-3.5 M11.95,7.55l1,0.6 M7.95,7.55v-2.9 M12.95,8.15L12.95,8.15l-0.3-0.1l-0.3-0.1
		h-0.3l-0.2-0.1h-0.3h-0.4l-0.3-0.1l-0.3,0.1h-0.3h-0.3 M9.95,7.85l-0.3,0.1h-0.3l-0.2,0.1l-0.2,0.1 M5.25,16.35v0.1v0.2v0.2
		l0.1,0.2l0.1,0.2l0.1,0.2l0.2,0.3l0.2,0.1l0.1,0.2l0.3,0.2l0.2,0.2l0.3,0.2l0.2,0.1l0.3,0.2l0.3,0.1l0.4,0.1l0.3,0.1l0.3,0.1
		l0.4,0.1h0.4l0.3,0.1h0.4l0.4,0.1h0.4l0.4-0.1h0.3h0.4l0.4-0.1h0.4l0.3-0.1l0.4-0.1l0.3-0.1l0.3-0.1l0.3-0.2l0.3-0.1l0.3-0.2
		l0.2-0.1l0.3-0.2l0.2-0.2l0.2-0.2l0.1-0.2l0.2-0.2l0.1-0.2l0.1-0.2v-0.2l0.1-0.3v-0.2 M14.55,14.55L14.55,14.55l0.3-0.1l0.2-0.1
		 M0.25,8.05v0.2v0.3l0.1,0.3l0.1,0.3l0.1,0.3l0.1,0.3l0.2,0.3l0.2,0.3l0.2,0.3l0.2,0.3l0.3,0.2l0.3,0.3l0.3,0.2l0.3,0.3l0.3,0.2
		l0.4,0.2 M3.35,12.35l0.4,0.2l0.4,0.2l0.4,0.2l0.4,0.2l0.5,0.2l0.4,0.1l0.5,0.1l0.5,0.2l0.5,0.1l0.5,0.1l0.5,0.1h0.5l0.5,0.1h0.5
		h0.6h0.5h0.5h0.6h0.5l0.5-0.1l0.5-0.1h0.5l0.5-0.1l0.5-0.2l0.5-0.1l0.5-0.1l0.4-0.2l0.5-0.1l0.4-0.2l0.4-0.2l0.4-0.2l0.4-0.2
		l0.3-0.2l0.4-0.3l0.3-0.2l0.3-0.3l0.3-0.2l0.2-0.3l0.3-0.3l0.2-0.3l0.1-0.2l0.2-0.3l0.1-0.3l0.1-0.3l0.1-0.3l0.1-0.3v-0.3v-0.2
		 M3.35,10.75l0.4,0.2l0.4,0.2l0.4,0.2l0.4,0.1l0.5,0.2l0.4,0.2l0.5,0.1l0.5,0.1l0.5,0.1l0.5,0.1l0.5,0.1l0.5,0.1h0.5l0.5,0.1h0.6
		h0.5h0.5l0.6-0.1h0.5h0.5l0.5-0.1l0.5-0.1l0.5-0.1l0.5-0.1l0.5-0.1l0.5-0.2l0.4-0.1l0.5-0.2l0.4-0.2l0.4-0.2l0.4-0.2l0.4-0.2
		l0.3-0.2l0.4-0.2l0.3-0.3l0.3-0.2l0.3-0.3l0.2-0.3l0.3-0.2l0.2-0.3l0.1-0.3l0.2-0.3l0.1-0.3l0.1-0.3l0.1-0.3l0.1-0.3v-0.3v-0.3
		v-0.3l-0.1-0.3v-0.3l-0.1-0.3l-0.2-0.3l-0.1-0.3l-0.2-0.3l-0.2-0.3l-0.2-0.2l-0.3-0.3l-0.2-0.3l-0.3-0.2l-0.3-0.3l-0.4-0.2
		l-0.3-0.2l-0.4-0.2l-0.4-0.3l-0.4-0.1l-0.4-0.2l-0.5-0.2l-0.4-0.2l-0.5-0.1l-0.5-0.1l-0.5-0.1l-0.5-0.1l-0.5-0.1l-0.5-0.1l-0.5-0.1
		h-0.5h-0.5h-0.6h-0.5h-0.5h-0.5l-0.6,0.1h-0.5l-0.5,0.1l-0.5,0.1l-0.5,0.1l-0.5,0.1l-0.5,0.1l-0.4,0.2l-0.5,0.1l-0.4,0.2l-0.4,0.2
		l-0.4,0.2l-0.4,0.2l-0.4,0.2l-0.3,0.3l-0.4,0.2l-0.3,0.2l-0.3,0.3l-0.2,0.3l-0.3,0.2l-0.2,0.3l-0.2,0.3l-0.2,0.3l-0.1,0.3l-0.1,0.3
		l-0.1,0.3l-0.1,0.3v0.3v0.3v0.3v0.3l0.1,0.3l0.1,0.3l0.1,0.3l0.1,0.3l0.2,0.3l0.2,0.3l0.2,0.2l0.2,0.3l0.3,0.3l0.3,0.2l0.3,0.3
		l0.3,0.2l0.3,0.3L3.35,10.75 M6.95,6.95l1-2.3 M7.95,4.65l4-0.6 M11.95,4.05l2.9,1.7 M14.85,5.75l-1.1,2.3 M13.75,8.05l-3.9,0.6
		 M9.85,8.65l-2.9-1.7 M14.15,26.75l0.7-0.5 M6.85,26.25l0.8,0.5 M16.55,23.95L16.55,23.95 M5.25,23.95L5.25,23.95 M16.55,22.65
		v-0.3 M5.25,22.35v0.3 M16.55,21.05v-0.3 M5.25,20.75v0.3 M16.55,19.55v-0.4 M5.25,19.15v0.4 M16.55,17.95v-0.4 M5.25,17.55v0.4
		 M16.55,16.35v-2.9 M5.25,13.45v2.9 M15.05,14.35l3.4-2 M3.35,12.35l3.4,2 M21.55,8.05v-1.7 M0.25,6.35v1.7"/>
</g>
</svg>
