<?xml version="1.0" encoding="utf-8"?>
<!-- Generator: Adobe Illustrator 19.0.0, SVG Export Plug-In . SVG Version: 6.00 Build 0)  -->
<svg version="1.0" id="Layer_1" xmlns="http://www.w3.org/2000/svg" xmlns:xlink="http://www.w3.org/1999/xlink" x="0px" y="0px"
	 width="21.8px" height="37px" viewBox="0 0 21.8 37" enable-background="new 0 0 21.8 37" xml:space="preserve">
<g id="XMLID_1_">
	
		<path id="XMLID_2_" fill="none" stroke="#000000" stroke-width="0.25" stroke-linecap="round" stroke-linejoin="round" stroke-miterlimit="10" d="
		M15.85,13.85l-0.2,0.2l-0.2,0.2l-0.3,0.2l-0.3,0.2l-0.3,0.2l-0.3,0.1l-0.4,0.1l-0.3,0.2l-0.4,0.1l-0.4,0.1h-0.4l-0.4,0.1h-0.4h-0.5
		h-0.4h-0.4h-0.4l-0.4-0.1h-0.4l-0.4-0.1l-0.4-0.1l-0.4-0.2l-0.3-0.1l-0.4-0.1l-0.3-0.2 M6.85,14.65l-0.3-0.2l-0.2-0.2l-0.3-0.2
		l-0.2-0.2 M6.75,14.35l0.3,0.2l0.3,0.1l0.4,0.2l0.4,0.1l0.3,0.1l0.4,0.1l0.4,0.1h0.5l0.4,0.1h0.4h0.4h0.5h0.4l0.4-0.1h0.4l0.4-0.1
		l0.4-0.1l0.4-0.1l0.3-0.2l0.3-0.1"/>
	
		<path id="XMLID_6_" fill="none" stroke="#000000" stroke-width="0.5" stroke-linecap="round" stroke-linejoin="round" stroke-miterlimit="10" d="
		M7.65,36.05l0.3,0.1l0.3,0.2l0.3,0.1l0.3,0.1l0.4,0.1h0.3l0.4,0.1h0.4h0.3h0.4h0.4h0.4l0.3-0.1h0.4l0.3-0.1l0.4-0.1l0.3-0.1
		l0.3-0.2l0.2-0.1 M5.25,33.25v0.1v0.3l0.1,0.2v0.3l0.2,0.2l0.1,0.2l0.2,0.2l0.2,0.3l0.3,0.2l0.2,0.1l0.3,0.2 M6.85,35.55l0.3,0.2
		l0.4,0.1l0.3,0.2l0.4,0.1l0.4,0.1l0.4,0.1l0.4,0.1h0.4l0.4,0.1h0.4h0.4h0.5l0.4-0.1h0.4l0.4-0.1l0.4-0.1l0.4-0.1l0.3-0.1l0.4-0.2
		l0.3-0.1l0.3-0.2l0.3-0.2l0.3-0.1l0.2-0.2l0.2-0.3l0.2-0.2l0.2-0.2l0.1-0.2l0.1-0.3l0.1-0.2v-0.3v-0.1 M5.35,32.65L5.35,32.65
		l-0.1,0.2v0.3v0.2v0.3l0.1,0.2v0.2l0.2,0.3l0.1,0.2l0.2,0.2l0.2,0.2l0.3,0.2l0.2,0.2l0.3,0.2l0.3,0.2l0.4,0.1l0.3,0.2l0.4,0.1
		l0.4,0.1l0.4,0.1h0.4l0.4,0.1h0.4l0.4,0.1h0.4l0.5-0.1h0.4l0.4-0.1h0.4l0.4-0.1l0.4-0.1l0.3-0.1l0.4-0.2l0.3-0.1l0.3-0.2l0.3-0.2
		l0.3-0.2l0.2-0.2l0.2-0.2l0.2-0.2l0.2-0.2l0.1-0.3l0.1-0.2l0.1-0.2v-0.3v-0.2v-0.3l-0.1-0.2 M5.25,31.95v0.1v0.3l0.1,0.2v0.3
		l0.2,0.2l0.1,0.2l0.2,0.3l0.2,0.2l0.3,0.2l0.2,0.2l0.3,0.1l0.3,0.2l0.4,0.2l0.3,0.1l0.4,0.1l0.4,0.1l0.4,0.1l0.4,0.1h0.4l0.4,0.1
		h0.4h0.4h0.5l0.4-0.1h0.4l0.4-0.1l0.4-0.1l0.4-0.1l0.3-0.1l0.4-0.1l0.3-0.2l0.3-0.2l0.3-0.1l0.3-0.2l0.2-0.2l0.2-0.2l0.2-0.3
		l0.2-0.2l0.1-0.2l0.1-0.3l0.1-0.2v-0.3v-0.1 M5.35,31.05L5.35,31.05l-0.1,0.3v0.2v0.2v0.3l0.1,0.2v0.3l0.2,0.2l0.1,0.2l0.2,0.3
		l0.2,0.2l0.3,0.2l0.2,0.2l0.3,0.1l0.3,0.2l0.4,0.2l0.3,0.1l0.4,0.1l0.4,0.1l0.4,0.1l0.4,0.1h0.4l0.4,0.1h0.4h0.4h0.5l0.4-0.1h0.4
		l0.4-0.1l0.4-0.1l0.4-0.1l0.3-0.1l0.4-0.1l0.3-0.2l0.3-0.2l0.3-0.1l0.3-0.2l0.2-0.2l0.2-0.2l0.2-0.3l0.2-0.2l0.1-0.2l0.1-0.3
		l0.1-0.2v-0.3v-0.2v-0.2l-0.1-0.3 M5.25,30.45v0.1v0.2l0.1,0.3v0.2l0.2,0.2l0.1,0.3l0.2,0.2l0.2,0.2l0.3,0.2l0.2,0.2l0.3,0.2
		l0.3,0.1l0.4,0.2l0.3,0.1l0.4,0.2l0.4,0.1h0.4l0.4,0.1l0.4,0.1h0.4h0.4h0.4h0.5h0.4l0.4-0.1l0.4-0.1h0.4l0.4-0.1l0.3-0.2l0.4-0.1
		l0.3-0.2l0.3-0.1l0.3-0.2l0.3-0.2l0.2-0.2l0.2-0.2l0.2-0.2l0.2-0.3l0.1-0.2l0.1-0.2l0.1-0.3v-0.2v-0.1 M5.35,29.45v0.1l-0.1,0.2
		v0.2v0.3v0.2l0.1,0.3v0.2l0.2,0.2l0.1,0.3l0.2,0.2l0.2,0.2l0.3,0.2l0.2,0.2l0.3,0.2l0.3,0.1l0.4,0.2l0.3,0.1l0.4,0.2l0.4,0.1
		l0.4,0.1h0.4l0.4,0.1h0.4h0.4h0.4h0.5h0.4l0.4-0.1h0.4l0.4-0.1l0.4-0.1l0.3-0.2l0.4-0.1l0.3-0.2l0.3-0.1l0.3-0.2l0.3-0.2l0.2-0.2
		l0.2-0.2l0.2-0.2l0.2-0.3l0.1-0.2l0.1-0.2l0.1-0.3v-0.2v-0.3v-0.2l-0.1-0.2v-0.1 M5.25,28.85v0.1v0.3l0.1,0.2v0.2l0.2,0.3l0.1,0.2
		l0.2,0.2l0.2,0.2l0.3,0.2l0.2,0.2l0.3,0.2l0.3,0.2l0.4,0.1l0.3,0.2l0.4,0.1l0.4,0.1l0.4,0.1l0.4,0.1h0.4l0.4,0.1h0.4h0.4h0.5
		l0.4-0.1h0.4l0.4-0.1l0.4-0.1l0.4-0.1l0.3-0.1l0.4-0.2l0.3-0.1l0.3-0.2l0.3-0.2l0.3-0.2l0.2-0.2l0.2-0.2l0.2-0.2l0.2-0.2l0.1-0.3
		l0.1-0.2l0.1-0.2v-0.3v-0.1 M5.35,27.95L5.35,27.95l-0.1,0.2v0.3v0.2v0.3l0.1,0.2v0.2l0.2,0.3l0.1,0.2l0.2,0.2l0.2,0.2l0.3,0.2
		l0.2,0.2l0.3,0.2l0.3,0.2l0.4,0.1l0.3,0.2l0.4,0.1l0.4,0.1l0.4,0.1l0.4,0.1h0.4l0.4,0.1h0.4h0.4h0.5l0.4-0.1h0.4l0.4-0.1l0.4-0.1
		l0.4-0.1l0.3-0.1l0.4-0.2l0.3-0.1l0.3-0.2l0.3-0.2l0.3-0.2l0.2-0.2l0.2-0.2l0.2-0.2l0.2-0.2l0.1-0.3l0.1-0.2l0.1-0.2v-0.3v-0.2
		v-0.3l-0.1-0.2 M5.25,27.25v0.2v0.2l0.1,0.2v0.3l0.2,0.2l0.1,0.2l0.2,0.3l0.2,0.2l0.3,0.2l0.2,0.2l0.3,0.2l0.3,0.1l0.4,0.2l0.3,0.1
		l0.4,0.1l0.4,0.1l0.4,0.1l0.4,0.1l0.4,0.1h0.4h0.4h0.4h0.5h0.4l0.4-0.1l0.4-0.1l0.4-0.1l0.4-0.1l0.3-0.1l0.4-0.1l0.3-0.2l0.3-0.1
		l0.3-0.2l0.3-0.2l0.2-0.2l0.2-0.2l0.2-0.3l0.2-0.2l0.1-0.2l0.1-0.3l0.1-0.2v-0.2v-0.2 M5.35,26.35L5.35,26.35l-0.1,0.3v0.2v0.3v0.2
		l0.1,0.2v0.3l0.2,0.2l0.1,0.2l0.2,0.3l0.2,0.2l0.3,0.2l0.2,0.2l0.3,0.2l0.3,0.1l0.4,0.2l0.3,0.1l0.4,0.1l0.4,0.1l0.4,0.1l0.4,0.1
		l0.4,0.1h0.4h0.4h0.4h0.5h0.4l0.4-0.1l0.4-0.1l0.4-0.1l0.4-0.1l0.3-0.1l0.4-0.1l0.3-0.2l0.3-0.1l0.3-0.2l0.3-0.2l0.2-0.2l0.2-0.2
		l0.2-0.3l0.2-0.2l0.1-0.2l0.1-0.3l0.1-0.2v-0.2v-0.3v-0.2l-0.1-0.3 M5.25,25.75v0.1v0.2l0.1,0.3v0.2l0.2,0.3l0.1,0.2l0.2,0.2
		l0.2,0.2l0.3,0.2l0.2,0.2l0.3,0.2l0.3,0.2l0.4,0.1l0.3,0.1l0.4,0.2l0.4,0.1l0.4,0.1h0.4l0.4,0.1h0.4h0.4h0.4h0.5h0.4l0.4-0.1h0.4
		l0.4-0.1l0.4-0.1l0.3-0.2l0.4-0.1l0.3-0.1l0.3-0.2l0.3-0.2l0.3-0.2l0.2-0.2l0.2-0.2l0.2-0.2l0.2-0.2l0.1-0.3l0.1-0.2l0.1-0.3v-0.2
		v-0.1 M5.35,24.75v0.1l-0.1,0.2v0.3v0.2v0.2l0.1,0.3v0.2l0.2,0.3l0.1,0.2l0.2,0.2l0.2,0.2l0.3,0.2l0.2,0.2l0.3,0.2l0.3,0.2l0.4,0.1
		l0.3,0.2l0.4,0.1l0.4,0.1l0.4,0.1h0.4l0.4,0.1h0.4l0.4,0.1h0.4l0.5-0.1h0.4l0.4-0.1h0.4l0.4-0.1l0.4-0.1l0.3-0.1l0.4-0.2l0.3-0.1
		l0.3-0.2l0.3-0.2l0.3-0.2l0.2-0.2l0.2-0.2l0.2-0.2l0.2-0.2l0.1-0.3l0.1-0.2l0.1-0.3v-0.2v-0.2v-0.3l-0.1-0.2v-0.1 M5.25,24.15v0.1
		v0.3l0.1,0.2v0.3l0.2,0.2l0.1,0.2l0.2,0.2l0.2,0.3l0.3,0.2l0.2,0.2l0.3,0.1l0.3,0.2l0.4,0.1l0.3,0.2l0.4,0.1l0.4,0.1l0.4,0.1
		l0.4,0.1h0.4l0.4,0.1h0.4h0.4h0.5l0.4-0.1h0.4l0.4-0.1l0.4-0.1l0.4-0.1l0.3-0.1l0.4-0.2l0.3-0.1l0.3-0.2l0.3-0.1l0.3-0.2l0.2-0.2
		l0.2-0.3l0.2-0.2l0.2-0.2l0.1-0.2l0.1-0.3l0.1-0.2v-0.3v-0.1 M5.35,23.25L5.35,23.25l-0.1,0.3v0.2v0.2v0.3l0.1,0.2v0.3l0.2,0.2
		l0.1,0.2l0.2,0.2l0.2,0.3l0.3,0.2l0.2,0.2l0.3,0.1l0.3,0.2l0.4,0.2l0.3,0.1l0.4,0.1l0.4,0.1l0.4,0.1l0.4,0.1h0.4l0.4,0.1h0.4h0.4
		h0.5l0.4-0.1h0.4l0.4-0.1l0.4-0.1l0.4-0.1l0.3-0.1l0.4-0.1l0.3-0.2l0.3-0.2l0.3-0.1l0.3-0.2l0.2-0.2l0.2-0.3l0.2-0.2l0.2-0.2
		l0.1-0.2l0.1-0.3l0.1-0.2v-0.3v-0.2v-0.2l-0.1-0.3 M5.25,22.65v0.1v0.2l0.1,0.3v0.2l0.2,0.2l0.1,0.3l0.2,0.2l0.2,0.2l0.3,0.2
		l0.2,0.2l0.3,0.2l0.3,0.1l0.4,0.2l0.3,0.1l0.4,0.1l0.4,0.2h0.4l0.4,0.1l0.4,0.1h0.4h0.4h0.4h0.5h0.4l0.4-0.1l0.4-0.1h0.4l0.4-0.2
		l0.3-0.1l0.4-0.1l0.3-0.2l0.3-0.1l0.3-0.2l0.3-0.2l0.2-0.2l0.2-0.2l0.2-0.2l0.2-0.3l0.1-0.2l0.1-0.2l0.1-0.3v-0.2v-0.1 M5.35,21.65
		L5.35,21.65l-0.1,0.3v0.2v0.3v0.2l0.1,0.3v0.2l0.2,0.2l0.1,0.3l0.2,0.2l0.2,0.2l0.3,0.2l0.2,0.2l0.3,0.2l0.3,0.1l0.4,0.2l0.3,0.1
		l0.4,0.2l0.4,0.1h0.4l0.4,0.1l0.4,0.1h0.4h0.4h0.4h0.5h0.4l0.4-0.1l0.4-0.1h0.4l0.4-0.1l0.3-0.2l0.4-0.1l0.3-0.2l0.3-0.1l0.3-0.2
		l0.3-0.2l0.2-0.2l0.2-0.2l0.2-0.2l0.2-0.3l0.1-0.2l0.1-0.2l0.1-0.3v-0.2v-0.3v-0.2l-0.1-0.3 M5.25,21.05v0.1v0.3l0.1,0.2v0.2
		l0.2,0.3l0.1,0.2l0.2,0.2l0.2,0.2l0.3,0.2l0.2,0.2l0.3,0.2l0.3,0.2l0.4,0.1l0.3,0.2l0.4,0.1l0.4,0.1l0.4,0.1l0.4,0.1h0.4h0.4
		l0.4,0.1h0.4l0.5-0.1h0.4h0.4l0.4-0.1l0.4-0.1l0.4-0.1l0.3-0.1l0.4-0.2l0.3-0.1l0.3-0.2l0.3-0.2l0.3-0.2l0.2-0.2l0.2-0.2l0.2-0.2
		l0.2-0.2l0.1-0.3l0.1-0.2l0.1-0.2v-0.3v-0.1 M5.35,20.15L5.35,20.15l-0.1,0.2v0.3v0.2v0.3l0.1,0.2v0.2l0.2,0.3l0.1,0.2l0.2,0.2
		l0.2,0.2l0.3,0.2l0.2,0.2l0.3,0.2l0.3,0.2l0.4,0.1l0.3,0.2l0.4,0.1l0.4,0.1l0.4,0.1l0.4,0.1h0.4h0.4l0.4,0.1h0.4l0.5-0.1h0.4h0.4
		l0.4-0.1l0.4-0.1l0.4-0.1l0.3-0.1l0.4-0.2l0.3-0.1l0.3-0.2l0.3-0.2l0.3-0.2l0.2-0.2l0.2-0.2l0.2-0.2l0.2-0.2l0.1-0.3l0.1-0.2
		l0.1-0.2v-0.3v-0.2v-0.3l-0.1-0.2 M5.25,19.45v0.2v0.2l0.1,0.2v0.3l0.2,0.2l0.1,0.2l0.2,0.3l0.2,0.2l0.3,0.2l0.2,0.2l0.3,0.1
		l0.3,0.2l0.4,0.2l0.3,0.1l0.4,0.1l0.4,0.1l0.4,0.1l0.4,0.1h0.4l0.4,0.1h0.4h0.4h0.5l0.4-0.1h0.4l0.4-0.1l0.4-0.1l0.4-0.1l0.3-0.1
		l0.4-0.1l0.3-0.2l0.3-0.2l0.3-0.1l0.3-0.2l0.2-0.2l0.2-0.2l0.2-0.3l0.2-0.2l0.1-0.2l0.1-0.3l0.1-0.2v-0.2v-0.2 M5.35,18.55
		L5.35,18.55l-0.1,0.3v0.2v0.3v0.2l0.1,0.2v0.3l0.2,0.2l0.1,0.2l0.2,0.3l0.2,0.2l0.3,0.2l0.2,0.2l0.3,0.1l0.3,0.2l0.4,0.2l0.3,0.1
		l0.4,0.1l0.4,0.1l0.4,0.1l0.4,0.1l0.4,0.1h0.4h0.4h0.4h0.5h0.4l0.4-0.1l0.4-0.1l0.4-0.1l0.4-0.1l0.3-0.1l0.4-0.1l0.3-0.2l0.3-0.2
		l0.3-0.1l0.3-0.2l0.2-0.2l0.2-0.2l0.2-0.3l0.2-0.2l0.1-0.2l0.1-0.3l0.1-0.2v-0.2v-0.3v-0.2l-0.1-0.3 M5.25,17.95v0.1v0.2l0.1,0.3
		v0.2l0.2,0.3l0.1,0.2l0.2,0.2l0.2,0.2l0.3,0.2l0.2,0.2l0.3,0.2l0.3,0.2l0.4,0.1l0.3,0.1l0.4,0.2l0.4,0.1l0.4,0.1h0.4l0.4,0.1h0.4
		h0.4h0.4h0.5h0.4l0.4-0.1h0.4l0.4-0.1l0.4-0.1l0.3-0.2l0.4-0.1l0.3-0.1l0.3-0.2l0.3-0.2l0.3-0.2l0.2-0.2l0.2-0.2l0.2-0.2l0.2-0.2
		l0.1-0.3l0.1-0.2l0.1-0.3v-0.2v-0.1 M8.75,8.05l1.2-0.2 M9.95,7.85l2-0.3 M5.35,16.95v0.1l-0.1,0.2v0.3v0.2v0.2l0.1,0.3v0.2
		l0.2,0.3l0.1,0.2l0.2,0.2l0.2,0.2l0.3,0.2l0.2,0.2l0.3,0.2l0.3,0.2l0.4,0.1l0.3,0.1l0.4,0.2l0.4,0.1l0.4,0.1h0.4l0.4,0.1h0.4h0.4
		h0.4h0.5h0.4l0.4-0.1h0.4l0.4-0.1l0.4-0.1l0.3-0.2l0.4-0.1l0.3-0.1l0.3-0.2l0.3-0.2l0.3-0.2l0.2-0.2l0.2-0.2l0.2-0.2l0.2-0.2
		l0.1-0.3l0.1-0.2l0.1-0.3v-0.2v-0.2v-0.3l-0.1-0.2v-0.1 M11.95,7.55v-3.4 M11.95,7.55l1,0.6 M7.95,7.65v-2.9 M12.95,8.15h-0.1
		l-0.3-0.1l-0.3-0.1h-0.3l-0.3-0.1h-0.4h-0.3h-0.3h-0.4h-0.3 M9.95,7.85l-0.3,0.1l-0.3,0.1l-0.3,0.1h-0.1 M5.25,16.35v0.1v0.3
		l0.1,0.2v0.3l0.2,0.2l0.1,0.2l0.2,0.2l0.2,0.3l0.3,0.2l0.2,0.1l0.3,0.2l0.3,0.2l0.4,0.1l0.3,0.2l0.4,0.1l0.4,0.1l0.4,0.1l0.4,0.1
		h0.4l0.4,0.1h0.4h0.4h0.5l0.4-0.1h0.4l0.4-0.1l0.4-0.1l0.4-0.1l0.3-0.1l0.4-0.2l0.3-0.1l0.3-0.2l0.3-0.2l0.3-0.1l0.2-0.2l0.2-0.3
		l0.2-0.2l0.2-0.2l0.1-0.2l0.1-0.3l0.1-0.2v-0.3v-0.1 M14.45,14.65h0.1l0.3-0.2l0.1-0.1 M0.25,8.05v0.2v0.3v0.3l0.1,0.4l0.2,0.3
		l0.1,0.3l0.2,0.3l0.2,0.3l0.3,0.3l0.2,0.3l0.3,0.3l0.4,0.3l0.3,0.3l0.4,0.2l0.4,0.3 M3.35,12.45l0.4,0.2l0.4,0.2l0.5,0.2l0.5,0.2
		l0.5,0.2l0.5,0.1l0.5,0.2l0.5,0.1l0.6,0.1l0.5,0.1h0.6l0.6,0.1h0.6l0.5,0.1h0.6l0.6-0.1h0.6l0.5-0.1h0.6l0.6-0.1l0.5-0.1l0.5-0.1
		l0.6-0.2l0.5-0.1l0.5-0.2l0.5-0.2l0.4-0.2l0.5-0.2l0.4-0.2l0.4-0.3l0.3-0.2l0.4-0.3l0.3-0.3l0.3-0.3l0.3-0.3l0.2-0.3l0.2-0.3
		l0.2-0.3l0.2-0.3l0.1-0.3l0.1-0.4l0.1-0.3v-0.3v-0.2 M3.35,10.75l0.4,0.2l0.4,0.2l0.5,0.2l0.5,0.2l0.5,0.2l0.5,0.2l0.5,0.1l0.5,0.1
		l0.6,0.1l0.5,0.1l0.6,0.1h0.6l0.6,0.1h0.5h0.6h0.6l0.6-0.1h0.5l0.6-0.1l0.6-0.1l0.5-0.1l0.5-0.1l0.6-0.1l0.5-0.2l0.5-0.2l0.5-0.2
		l0.4-0.2l0.5-0.2l0.4-0.2l0.4-0.2l0.3-0.3l0.4-0.3l0.3-0.2l0.3-0.3l0.3-0.3l0.2-0.3l0.2-0.3l0.2-0.3l0.2-0.4l0.1-0.3l0.1-0.3
		l0.1-0.4v-0.3v-0.3v-0.4l-0.1-0.3l-0.1-0.3l-0.1-0.3l-0.2-0.4l-0.2-0.3l-0.2-0.3l-0.2-0.3l-0.3-0.3l-0.3-0.3l-0.3-0.3l-0.4-0.2
		l-0.3-0.3l-0.4-0.2l-0.4-0.2l-0.5-0.3l-0.5-0.2l-0.4-0.2l-0.5-0.1l-0.5-0.2l-0.6-0.1l-0.5-0.1l-0.5-0.1l-0.6-0.1l-0.6-0.1l-0.5-0.1
		h-0.6h-0.6h-0.6h-0.5h-0.6l-0.6,0.1l-0.6,0.1l-0.5,0.1l-0.6,0.1l-0.5,0.1l-0.5,0.1l-0.5,0.2l-0.5,0.1l-0.5,0.2l-0.5,0.2l-0.4,0.3
		l-0.4,0.2l-0.4,0.2l-0.4,0.3l-0.3,0.2l-0.4,0.3l-0.3,0.3l-0.2,0.3l-0.3,0.3l-0.2,0.3l-0.2,0.3l-0.1,0.4l-0.2,0.3l-0.1,0.3v0.3v0.4
		v0.3v0.3v0.4l0.1,0.3l0.2,0.3l0.1,0.4l0.2,0.3l0.2,0.3l0.3,0.3l0.2,0.3l0.3,0.3l0.4,0.2l0.3,0.3l0.4,0.3L3.35,10.75 M6.95,7.05
		l1-2.3 M7.95,4.75l4-0.6 M11.95,4.15l2.9,1.6 M14.85,5.75l-1.1,2.3 M13.75,8.05l-3.9,0.6 M9.85,8.65l-2.9-1.6 M14.05,36.05l0.8-0.5
		 M6.85,35.55l0.8,0.5 M16.55,33.25L16.55,33.25 M5.25,33.25L5.25,33.25 M16.55,31.95v-0.3 M5.25,31.65v0.3 M16.55,30.45v-0.3
		 M5.25,30.15v0.3 M16.55,28.85v-0.3 M5.25,28.55v0.3 M16.55,27.25v-0.3 M5.25,26.95v0.3 M16.55,25.75v-0.3 M5.25,25.45v0.3
		 M16.55,24.15v-0.3 M5.25,23.85v0.3 M16.55,22.65v-0.3 M5.25,22.35v0.3 M16.55,21.05v-0.3 M5.25,20.75v0.3 M16.55,19.45v-0.3
		 M5.25,19.15v0.3 M16.55,17.95v-0.3 M5.25,17.65v0.3 M16.55,16.35v-2.9 M5.25,13.45v2.9 M14.95,14.35l3.5-1.9 M3.35,12.45l3.4,1.9
		 M21.55,8.05v-1.7 M0.25,6.35v1.7"/>
</g>
</svg>
