<?xml version="1.0" encoding="utf-8"?>
<!-- Generator: Adobe Illustrator 19.0.0, SVG Export Plug-In . SVG Version: 6.00 Build 0)  -->
<svg version="1.0" id="Layer_1" xmlns="http://www.w3.org/2000/svg" xmlns:xlink="http://www.w3.org/1999/xlink" x="0px" y="0px"
	 width="21.8px" height="46.3px" viewBox="0 0 21.8 46.3" enable-background="new 0 0 21.8 46.3" xml:space="preserve">
<g>
	
		<path fill="none" stroke="#000000" stroke-width="0.25" stroke-linecap="round" stroke-linejoin="round" stroke-miterlimit="10" d="
		M15.85,13.85l-0.1,0.2l-0.3,0.2l-0.3,0.2l-0.3,0.2l-0.4,0.2l-0.3,0.2l-0.4,0.1l-0.4,0.1l-0.5,0.1l-0.4,0.1l-0.5,0.1h-0.4h-0.5h-0.4
		h-0.5h-0.5l-0.4-0.1l-0.4-0.1l-0.5-0.1l-0.4-0.1l-0.4-0.2l-0.3-0.1l-0.4-0.2 M6.85,14.65l-0.3-0.2l-0.3-0.2l-0.2-0.2l-0.1-0.2
		 M6.75,14.35l0.4,0.2l0.3,0.2l0.4,0.1l0.4,0.2l0.5,0.1l0.4,0.1h0.5l0.4,0.1h0.5h0.5h0.4h0.5l0.5-0.1l0.4-0.1l0.4-0.1l0.5-0.1
		l0.4-0.1l0.2-0.2"/>
	<path fill="none" stroke="#000000" stroke-width="0.5" stroke-linecap="round" stroke-linejoin="round" stroke-miterlimit="10" d="
		M7.65,45.25l0.3,0.2l0.4,0.1l0.3,0.2l0.4,0.1l0.4,0.1h0.4l0.4,0.1h0.4h0.4h0.4l0.4-0.1h0.4l0.4-0.1l0.4-0.1l0.4-0.1l0.3-0.2
		l0.3-0.1l0.1-0.1 M5.25,42.55v0.1v0.3l0.1,0.3l0.1,0.2l0.2,0.3l0.2,0.2l0.2,0.3l0.2,0.2l0.3,0.2l0.3,0.2 M6.85,44.85l0.4,0.2
		l0.3,0.1l0.4,0.2l0.4,0.1l0.5,0.1l0.4,0.1l0.4,0.1h0.5h0.5h0.4h0.5h0.4l0.5-0.1l0.4-0.1l0.5-0.1l0.4-0.1l0.4-0.1l0.3-0.2l0.4-0.2
		l0.3-0.2l0.3-0.2l0.3-0.2l0.2-0.2l0.2-0.3l0.1-0.2l0.2-0.3l0.1-0.2v-0.3v-0.2 M5.35,41.85l-0.1,0.2v0.3v0.2v0.3l0.1,0.3l0.1,0.2
		l0.1,0.3l0.2,0.2l0.2,0.3l0.3,0.2l0.3,0.2l0.3,0.2l0.3,0.2l0.4,0.2l0.3,0.1l0.4,0.2l0.5,0.1l0.4,0.1h0.4l0.5,0.1h0.4h0.5h0.5h0.4
		l0.5-0.1l0.4-0.1l0.5-0.1l0.4-0.1l0.4-0.1l0.3-0.2l0.4-0.1l0.3-0.2l0.3-0.2l0.3-0.3l0.2-0.2l0.2-0.2l0.2-0.3l0.1-0.2l0.1-0.3
		l0.1-0.3v-0.2v-0.3v-0.3l-0.1-0.1 M5.25,41.25v0.1v0.2l0.1,0.3l0.1,0.3l0.1,0.2l0.2,0.3l0.2,0.2l0.3,0.2l0.3,0.3l0.3,0.2l0.3,0.1
		l0.4,0.2l0.3,0.2l0.4,0.1l0.5,0.1l0.4,0.1l0.4,0.1h0.5h0.4l0.5,0.1l0.5-0.1h0.4h0.5l0.4-0.1l0.5-0.1l0.4-0.1l0.4-0.2l0.3-0.1
		l0.4-0.2l0.3-0.2l0.3-0.2l0.3-0.2l0.2-0.2l0.2-0.3l0.2-0.2l0.1-0.3l0.1-0.3l0.1-0.2v-0.3 M5.35,40.35l-0.1,0.2v0.2v0.3v0.3l0.1,0.2
		l0.1,0.3l0.1,0.2l0.2,0.3l0.2,0.2l0.3,0.2l0.3,0.3l0.3,0.2l0.3,0.1l0.4,0.2l0.3,0.2l0.4,0.1l0.5,0.1l0.4,0.1l0.4,0.1h0.5l0.4,0.1
		h0.5h0.5l0.4-0.1h0.5l0.4-0.1l0.5-0.1l0.4-0.1l0.4-0.2l0.3-0.1l0.4-0.2l0.3-0.2l0.3-0.2l0.3-0.2l0.2-0.2l0.2-0.3l0.2-0.2l0.1-0.3
		l0.1-0.2l0.1-0.3v-0.3v-0.2v-0.3l-0.1-0.1 M5.25,39.65v0.1v0.3l0.1,0.3l0.1,0.2l0.1,0.3l0.2,0.2l0.2,0.3l0.3,0.2l0.3,0.2l0.3,0.2
		l0.3,0.2l0.4,0.1l0.3,0.2l0.4,0.1l0.5,0.1l0.4,0.1l0.4,0.1l0.5,0.1h0.4h0.5h0.5h0.4l0.5-0.1l0.4-0.1l0.5-0.1l0.4-0.1l0.4-0.1
		l0.3-0.2l0.4-0.2l0.3-0.2l0.3-0.2l0.3-0.2l0.2-0.2l0.2-0.2l0.2-0.3l0.1-0.2l0.1-0.3l0.1-0.3v-0.2v-0.1 M5.35,38.75l-0.1,0.2v0.3
		v0.2v0.3l0.1,0.3l0.1,0.2l0.1,0.3l0.2,0.2l0.2,0.3l0.3,0.2l0.3,0.2l0.3,0.2l0.3,0.2l0.4,0.2l0.3,0.1l0.4,0.1l0.5,0.2h0.4l0.4,0.1
		l0.5,0.1h0.4h0.5h0.5h0.4l0.5-0.1l0.4-0.1l0.5-0.1l0.4-0.1l0.4-0.1l0.3-0.2l0.4-0.2l0.3-0.1l0.3-0.2l0.3-0.3l0.2-0.2l0.2-0.2
		l0.2-0.3l0.1-0.2l0.1-0.3l0.1-0.3v-0.2v-0.3v-0.3l-0.1-0.1 M5.25,38.15v0.1v0.2l0.1,0.3l0.1,0.3l0.1,0.2l0.2,0.3l0.2,0.2l0.3,0.2
		l0.3,0.2l0.3,0.2l0.3,0.2l0.4,0.2l0.3,0.1l0.4,0.2l0.5,0.1l0.4,0.1l0.4,0.1h0.5h0.4h0.5h0.5h0.4l0.5-0.1h0.4l0.5-0.1l0.4-0.2
		l0.4-0.1l0.3-0.1l0.4-0.2l0.3-0.2l0.3-0.2l0.3-0.2l0.2-0.3l0.2-0.2l0.2-0.2l0.1-0.3l0.1-0.3l0.1-0.2v-0.3 M5.35,37.25l-0.1,0.2v0.2
		v0.3v0.2l0.1,0.3l0.1,0.3l0.1,0.2l0.2,0.3l0.2,0.2l0.3,0.2l0.3,0.2l0.3,0.2l0.3,0.2l0.4,0.2l0.3,0.2l0.4,0.1l0.5,0.1l0.4,0.1
		l0.4,0.1h0.5h0.4l0.5,0.1l0.5-0.1h0.4h0.5l0.4-0.1l0.5-0.1l0.4-0.1l0.4-0.2l0.3-0.1l0.4-0.2l0.3-0.2l0.3-0.2l0.3-0.2l0.2-0.2
		l0.2-0.3l0.2-0.2l0.1-0.3l0.1-0.3l0.1-0.2v-0.3v-0.3v-0.2l-0.1-0.1 M5.25,36.55v0.1v0.3l0.1,0.2l0.1,0.3l0.1,0.3l0.2,0.2l0.2,0.2
		l0.3,0.3l0.3,0.2l0.3,0.2l0.3,0.2l0.4,0.1l0.3,0.2l0.4,0.1l0.5,0.1l0.4,0.1l0.4,0.1l0.5,0.1h0.4h0.5h0.5l0.4-0.1h0.5l0.4-0.1
		l0.5-0.1l0.4-0.1l0.4-0.1l0.3-0.2l0.4-0.2l0.3-0.2l0.3-0.2l0.3-0.2l0.2-0.2l0.2-0.3l0.2-0.2l0.1-0.3l0.1-0.2l0.1-0.3v-0.2v-0.1
		 M5.35,35.65l-0.1,0.2v0.3v0.2v0.3l0.1,0.3l0.1,0.2l0.1,0.3l0.2,0.2l0.2,0.3l0.3,0.2l0.3,0.2l0.3,0.2l0.3,0.2l0.4,0.1l0.3,0.2
		l0.4,0.1l0.5,0.1l0.4,0.1l0.4,0.1l0.5,0.1h0.4h0.5h0.5h0.4l0.5-0.1l0.4-0.1l0.5-0.1l0.4-0.1l0.4-0.1l0.3-0.2l0.4-0.2l0.3-0.2
		l0.3-0.2l0.3-0.2l0.2-0.2l0.2-0.2l0.2-0.3l0.1-0.2l0.1-0.3l0.1-0.3v-0.2v-0.3v-0.3l-0.1-0.1 M5.25,35.05v0.1v0.2l0.1,0.3l0.1,0.3
		l0.1,0.2l0.2,0.3l0.2,0.2l0.3,0.2l0.3,0.2l0.3,0.2l0.3,0.2l0.4,0.2l0.3,0.1l0.4,0.2l0.5,0.1l0.4,0.1h0.4l0.5,0.1h0.4h0.5h0.5h0.4
		l0.5-0.1h0.4l0.5-0.1l0.4-0.2l0.4-0.1l0.3-0.2l0.4-0.1l0.3-0.2l0.3-0.2l0.3-0.2l0.2-0.3l0.2-0.2l0.2-0.3l0.1-0.2l0.1-0.3l0.1-0.2
		v-0.3 M5.35,34.05l-0.1,0.2v0.3v0.3v0.2l0.1,0.3l0.1,0.3l0.1,0.2l0.2,0.3l0.2,0.2l0.3,0.2l0.3,0.2l0.3,0.2l0.3,0.2l0.4,0.2l0.3,0.1
		l0.4,0.2l0.5,0.1l0.4,0.1l0.4,0.1h0.5h0.4h0.5h0.5h0.4l0.5-0.1h0.4l0.5-0.1l0.4-0.2l0.4-0.1l0.3-0.1l0.4-0.2l0.3-0.2l0.3-0.2
		l0.3-0.2l0.2-0.3l0.2-0.2l0.2-0.2l0.1-0.3l0.1-0.3l0.1-0.2v-0.3v-0.3v-0.2l-0.1-0.2 M5.25,33.45v0.1v0.3l0.1,0.2l0.1,0.3l0.1,0.3
		l0.2,0.2l0.2,0.2l0.3,0.3l0.3,0.2l0.3,0.2l0.3,0.2l0.4,0.1l0.3,0.2l0.4,0.1l0.5,0.1l0.4,0.1l0.4,0.1h0.5l0.4,0.1h0.5h0.5l0.4-0.1
		h0.5l0.4-0.1l0.5-0.1l0.4-0.1l0.4-0.2l0.3-0.1l0.4-0.2l0.3-0.2l0.3-0.2l0.3-0.2l0.2-0.2l0.2-0.3l0.2-0.2l0.1-0.3l0.1-0.2l0.1-0.3
		v-0.3 M5.35,32.55l-0.1,0.2v0.3v0.2v0.3l0.1,0.2l0.1,0.3l0.1,0.3l0.2,0.2l0.2,0.2l0.3,0.3l0.3,0.2l0.3,0.2l0.3,0.2l0.4,0.1l0.3,0.2
		l0.4,0.1l0.5,0.1l0.4,0.1l0.4,0.1l0.5,0.1h0.4h0.5h0.5l0.4-0.1h0.5l0.4-0.1l0.5-0.1l0.4-0.1l0.4-0.1l0.3-0.2l0.4-0.2l0.3-0.2
		l0.3-0.2l0.3-0.2l0.2-0.2l0.2-0.3l0.2-0.2l0.1-0.3l0.1-0.2l0.1-0.3v-0.2v-0.3v-0.3l-0.1-0.1 M5.25,31.95v0.1v0.2l0.1,0.3l0.1,0.2
		l0.1,0.3l0.2,0.2l0.2,0.3l0.3,0.2l0.3,0.2l0.3,0.2l0.3,0.2l0.4,0.2l0.3,0.1l0.4,0.2l0.5,0.1l0.4,0.1h0.4l0.5,0.1h0.4h0.5h0.5h0.4
		l0.5-0.1l0.4-0.1l0.5-0.1l0.4-0.1l0.4-0.1l0.3-0.2l0.4-0.1l0.3-0.2l0.3-0.2l0.3-0.2l0.2-0.3l0.2-0.2l0.2-0.3l0.1-0.2l0.1-0.3
		l0.1-0.2v-0.3 M5.35,30.95l-0.1,0.2v0.3v0.3v0.2l0.1,0.3l0.1,0.3l0.1,0.2l0.2,0.3l0.2,0.2l0.3,0.2l0.3,0.2l0.3,0.2l0.3,0.2l0.4,0.2
		l0.3,0.1l0.4,0.2l0.5,0.1l0.4,0.1h0.4l0.5,0.1h0.4h0.5h0.5h0.4l0.5-0.1h0.4l0.5-0.1l0.4-0.2l0.4-0.1l0.3-0.2l0.4-0.1l0.3-0.2
		l0.3-0.2l0.3-0.2l0.2-0.3l0.2-0.2l0.2-0.3l0.1-0.2l0.1-0.3l0.1-0.2v-0.3v-0.3v-0.2l-0.1-0.2 M5.25,30.35v0.1v0.3l0.1,0.2l0.1,0.3
		l0.1,0.2l0.2,0.3l0.2,0.2l0.3,0.3l0.3,0.2l0.3,0.2l0.3,0.2l0.4,0.1l0.3,0.2l0.4,0.1l0.5,0.1l0.4,0.1l0.4,0.1h0.5l0.4,0.1h0.5h0.5
		l0.4-0.1h0.5l0.4-0.1l0.5-0.1l0.4-0.1l0.4-0.2l0.3-0.1l0.4-0.2l0.3-0.2l0.3-0.2l0.3-0.2l0.2-0.2l0.2-0.3l0.2-0.2l0.1-0.3l0.1-0.2
		l0.1-0.3v-0.3 M5.35,29.45l-0.1,0.2v0.2v0.3v0.3l0.1,0.2l0.1,0.3l0.1,0.3l0.2,0.2l0.2,0.2l0.3,0.3l0.3,0.2l0.3,0.2l0.3,0.2l0.4,0.1
		l0.3,0.2l0.4,0.1l0.5,0.1l0.4,0.1l0.4,0.1h0.5l0.4,0.1h0.5h0.5l0.4-0.1h0.5l0.4-0.1l0.5-0.1l0.4-0.1l0.4-0.2l0.3-0.1l0.4-0.2
		l0.3-0.2l0.3-0.2l0.3-0.2l0.2-0.2l0.2-0.3l0.2-0.2l0.1-0.3l0.1-0.2l0.1-0.3v-0.3v-0.2v-0.3l-0.1-0.1 M5.25,28.75v0.1v0.3l0.1,0.3
		l0.1,0.2l0.1,0.3l0.2,0.2l0.2,0.3l0.3,0.2l0.3,0.2l0.3,0.2l0.3,0.2l0.4,0.2l0.3,0.1l0.4,0.1l0.5,0.2l0.4,0.1h0.4l0.5,0.1h0.4h0.5
		h0.5h0.4l0.5-0.1l0.4-0.1l0.5-0.1l0.4-0.1l0.4-0.1l0.3-0.2l0.4-0.1l0.3-0.2l0.3-0.2l0.3-0.3l0.2-0.2l0.2-0.2l0.2-0.3l0.1-0.2
		l0.1-0.3l0.1-0.3v-0.2v-0.1 M5.35,27.85l-0.1,0.2v0.3v0.3v0.2l0.1,0.3l0.1,0.2l0.1,0.3l0.2,0.2l0.2,0.3l0.3,0.2l0.3,0.2l0.3,0.2
		l0.3,0.2l0.4,0.2l0.3,0.1l0.4,0.2l0.5,0.1l0.4,0.1h0.4l0.5,0.1h0.4h0.5h0.5h0.4l0.5-0.1l0.4-0.1l0.5-0.1l0.4-0.1l0.4-0.1l0.3-0.2
		l0.4-0.1l0.3-0.2l0.3-0.2l0.3-0.2l0.2-0.3l0.2-0.2l0.2-0.3l0.1-0.2l0.1-0.3l0.1-0.2v-0.3v-0.3v-0.2l-0.1-0.2 M5.25,27.25v0.1v0.3
		l0.1,0.2l0.1,0.3l0.1,0.2l0.2,0.3l0.2,0.2l0.3,0.2l0.3,0.3l0.3,0.2l0.3,0.1l0.4,0.2l0.3,0.2l0.4,0.1l0.5,0.1l0.4,0.1l0.4,0.1h0.5
		l0.4,0.1h0.5h0.5l0.4-0.1h0.5l0.4-0.1l0.5-0.1l0.4-0.1l0.4-0.2l0.3-0.1l0.4-0.2l0.3-0.2l0.3-0.2l0.3-0.2l0.2-0.2l0.2-0.3l0.2-0.2
		l0.1-0.3l0.1-0.2l0.1-0.3v-0.3 M5.35,26.35l-0.1,0.2v0.2v0.3v0.3l0.1,0.2l0.1,0.3l0.1,0.2l0.2,0.3l0.2,0.2l0.3,0.3l0.3,0.2l0.3,0.2
		l0.3,0.2l0.4,0.1l0.3,0.2l0.4,0.1l0.5,0.1l0.4,0.1l0.4,0.1h0.5l0.4,0.1h0.5h0.5l0.4-0.1h0.5l0.4-0.1l0.5-0.1l0.4-0.1l0.4-0.2
		l0.3-0.1l0.4-0.2l0.3-0.2l0.3-0.2l0.3-0.2l0.2-0.2l0.2-0.3l0.2-0.2l0.1-0.3l0.1-0.2l0.1-0.3v-0.3v-0.2v-0.3l-0.1-0.1 M5.25,25.65
		v0.1v0.3l0.1,0.3l0.1,0.2l0.1,0.3l0.2,0.2l0.2,0.3l0.3,0.2l0.3,0.2l0.3,0.2l0.3,0.2l0.4,0.2l0.3,0.1l0.4,0.1l0.5,0.2h0.4l0.4,0.1
		l0.5,0.1h0.4h0.5h0.5h0.4l0.5-0.1l0.4-0.1l0.5-0.1l0.4-0.1l0.4-0.1l0.3-0.2l0.4-0.2l0.3-0.1l0.3-0.2l0.3-0.3l0.2-0.2l0.2-0.2
		l0.2-0.3l0.1-0.2l0.1-0.3l0.1-0.3v-0.2v-0.1 M5.35,24.75l-0.1,0.2v0.3v0.2v0.3l0.1,0.3l0.1,0.2l0.1,0.3l0.2,0.2l0.2,0.3l0.3,0.2
		l0.3,0.2l0.3,0.2l0.3,0.2l0.4,0.2l0.3,0.1l0.4,0.1l0.5,0.2l0.4,0.1h0.4l0.5,0.1h0.4h0.5h0.5h0.4l0.5-0.1l0.4-0.1l0.5-0.1l0.4-0.1
		l0.4-0.1l0.3-0.2l0.4-0.1l0.3-0.2l0.3-0.2l0.3-0.3l0.2-0.2l0.2-0.2l0.2-0.3l0.1-0.2l0.1-0.3l0.1-0.3v-0.2v-0.3v-0.3l-0.1-0.1
		 M5.25,24.15v0.1v0.2l0.1,0.3l0.1,0.3l0.1,0.2l0.2,0.3l0.2,0.2l0.3,0.2l0.3,0.2l0.3,0.2l0.3,0.2l0.4,0.2l0.3,0.2l0.4,0.1l0.5,0.1
		l0.4,0.1l0.4,0.1h0.5h0.4l0.5,0.1l0.5-0.1h0.4l0.5-0.1h0.4l0.5-0.1l0.4-0.1l0.4-0.2l0.3-0.1l0.4-0.2l0.3-0.2l0.3-0.2l0.3-0.2
		l0.2-0.3l0.2-0.2l0.2-0.2l0.1-0.3l0.1-0.3l0.1-0.2v-0.3 M5.35,23.25l-0.1,0.2v0.2v0.3v0.3l0.1,0.2l0.1,0.3l0.1,0.2l0.2,0.3l0.2,0.2
		l0.3,0.2l0.3,0.3l0.3,0.2l0.3,0.1l0.4,0.2l0.3,0.2l0.4,0.1l0.5,0.1l0.4,0.1l0.4,0.1h0.5l0.4,0.1h0.5l0.5-0.1h0.4h0.5l0.4-0.1
		l0.5-0.1l0.4-0.1l0.4-0.2l0.3-0.1l0.4-0.2l0.3-0.2l0.3-0.2l0.3-0.2l0.2-0.2l0.2-0.3l0.2-0.2l0.1-0.3l0.1-0.2l0.1-0.3v-0.3v-0.2
		v-0.3l-0.1-0.1 M5.25,22.55v0.1v0.3l0.1,0.3l0.1,0.2l0.1,0.3l0.2,0.2l0.2,0.3l0.3,0.2l0.3,0.2l0.3,0.2l0.3,0.2l0.4,0.1l0.3,0.2
		l0.4,0.1l0.5,0.1l0.4,0.1l0.4,0.1l0.5,0.1h0.4h0.5h0.5h0.4l0.5-0.1l0.4-0.1l0.5-0.1l0.4-0.1l0.4-0.1l0.3-0.2l0.4-0.2l0.3-0.2
		l0.3-0.2l0.3-0.2l0.2-0.2l0.2-0.2l0.2-0.3l0.1-0.2l0.1-0.3l0.1-0.3v-0.2v-0.1 M5.35,21.65l-0.1,0.2v0.3v0.2v0.3l0.1,0.3l0.1,0.2
		l0.1,0.3l0.2,0.2l0.2,0.3l0.3,0.2l0.3,0.2l0.3,0.2l0.3,0.2l0.4,0.2l0.3,0.1l0.4,0.1l0.5,0.2h0.4l0.4,0.1l0.5,0.1h0.4h0.5h0.5h0.4
		l0.5-0.1l0.4-0.1l0.5-0.1l0.4-0.1l0.4-0.1l0.3-0.2l0.4-0.2l0.3-0.1l0.3-0.2l0.3-0.3l0.2-0.2l0.2-0.2l0.2-0.3l0.1-0.2l0.1-0.3
		l0.1-0.3v-0.2v-0.3v-0.3l-0.1-0.1 M5.25,21.05v0.1v0.2l0.1,0.3l0.1,0.3l0.1,0.2l0.2,0.3l0.2,0.2l0.3,0.2l0.3,0.2l0.3,0.2l0.3,0.2
		l0.4,0.2l0.3,0.1l0.4,0.2l0.5,0.1l0.4,0.1l0.4,0.1h0.5h0.4h0.5h0.5h0.4l0.5-0.1h0.4l0.5-0.1l0.4-0.2l0.4-0.1l0.3-0.1l0.4-0.2
		l0.3-0.2l0.3-0.2l0.3-0.2l0.2-0.3l0.2-0.2l0.2-0.2l0.1-0.3l0.1-0.3l0.1-0.2v-0.3 M5.35,20.05l-0.1,0.2v0.3v0.3v0.2l0.1,0.3l0.1,0.3
		l0.1,0.2l0.2,0.3l0.2,0.2l0.3,0.2l0.3,0.2l0.3,0.2l0.3,0.2l0.4,0.2l0.3,0.2l0.4,0.1l0.5,0.1l0.4,0.1l0.4,0.1h0.5h0.4l0.5,0.1
		l0.5-0.1h0.4l0.5-0.1h0.4l0.5-0.1l0.4-0.1l0.4-0.2l0.3-0.1l0.4-0.2l0.3-0.2l0.3-0.2l0.3-0.2l0.2-0.3l0.2-0.2l0.2-0.2l0.1-0.3
		l0.1-0.3l0.1-0.2v-0.3v-0.3v-0.2l-0.1-0.2 M5.25,19.45v0.1v0.3l0.1,0.2l0.1,0.3l0.1,0.3l0.2,0.2l0.2,0.2l0.3,0.3l0.3,0.2l0.3,0.2
		l0.3,0.2l0.4,0.1l0.3,0.2l0.4,0.1l0.5,0.1l0.4,0.1l0.4,0.1l0.5,0.1h0.4h0.5h0.5l0.4-0.1h0.5l0.4-0.1l0.5-0.1l0.4-0.1l0.4-0.1
		l0.3-0.2l0.4-0.2l0.3-0.2l0.3-0.2l0.3-0.2l0.2-0.2l0.2-0.3l0.2-0.2l0.1-0.3l0.1-0.2l0.1-0.3v-0.2v-0.1 M5.35,18.55l-0.1,0.2v0.3
		v0.2v0.3l0.1,0.3l0.1,0.2l0.1,0.3l0.2,0.2l0.2,0.3l0.3,0.2l0.3,0.2l0.3,0.2l0.3,0.2l0.4,0.1l0.3,0.2l0.4,0.1l0.5,0.1l0.4,0.1
		l0.4,0.1l0.5,0.1h0.4h0.5h0.5h0.4l0.5-0.1l0.4-0.1l0.5-0.1l0.4-0.1l0.4-0.1l0.3-0.2l0.4-0.2l0.3-0.2l0.3-0.2l0.3-0.2l0.2-0.2
		l0.2-0.2l0.2-0.3l0.1-0.2l0.1-0.3l0.1-0.3v-0.2v-0.3v-0.3l-0.1-0.1 M5.25,17.95v0.1v0.2l0.1,0.3l0.1,0.3l0.1,0.2l0.2,0.3l0.2,0.2
		l0.3,0.2l0.3,0.2l0.3,0.2l0.3,0.2l0.4,0.2l0.3,0.1l0.4,0.2l0.5,0.1l0.4,0.1h0.4l0.5,0.1h0.4h0.5h0.5h0.4l0.5-0.1h0.4l0.5-0.1
		l0.4-0.2l0.4-0.1l0.3-0.2l0.4-0.1l0.3-0.2l0.3-0.2l0.3-0.2l0.2-0.3l0.2-0.2l0.2-0.3l0.1-0.2l0.1-0.3l0.1-0.2v-0.3 M8.75,8.05
		l1.2-0.2 M9.95,7.85l2-0.3 M5.35,16.95l-0.1,0.2v0.3v0.3v0.2l0.1,0.3l0.1,0.3l0.1,0.2l0.2,0.3l0.2,0.2l0.3,0.2l0.3,0.2l0.3,0.2
		l0.3,0.2l0.4,0.2l0.3,0.1l0.4,0.2l0.5,0.1l0.4,0.1l0.4,0.1h0.5h0.4h0.5h0.5h0.4l0.5-0.1h0.4l0.5-0.1l0.4-0.2l0.4-0.1l0.3-0.1
		l0.4-0.2l0.3-0.2l0.3-0.2l0.3-0.2l0.2-0.3l0.2-0.2l0.2-0.2l0.1-0.3l0.1-0.3l0.1-0.2v-0.3v-0.3v-0.2l-0.1-0.2 M11.95,7.55v-3.4
		 M11.95,7.55l1.1,0.6 M8.05,7.65v-2.9 M12.95,8.15h-0.1l-0.3-0.1l-0.4-0.1l-0.3-0.1h-0.4h-0.4h-0.3h-0.4h-0.4 M9.95,7.85l-0.3,0.1
		l-0.4,0.1l-0.3,0.1 M5.25,16.35v0.1v0.3l0.1,0.2l0.1,0.3l0.1,0.3l0.2,0.2l0.2,0.2l0.3,0.3l0.3,0.2l0.3,0.2l0.3,0.2l0.4,0.1l0.3,0.2
		l0.4,0.1l0.5,0.1l0.4,0.1l0.4,0.1h0.5l0.4,0.1h0.5h0.5l0.4-0.1h0.5l0.4-0.1l0.5-0.1l0.4-0.1l0.4-0.2l0.3-0.1l0.4-0.2l0.3-0.2
		l0.3-0.2l0.3-0.2l0.2-0.2l0.2-0.3l0.2-0.2l0.1-0.3l0.1-0.2l0.1-0.3v-0.3 M14.35,14.65h0.2l0.3-0.2l0.2-0.1 M0.25,8.05v0.1v0.4
		l0.1,0.3l0.1,0.4l0.1,0.3l0.2,0.4l0.2,0.3l0.3,0.4l0.2,0.3l0.3,0.3l0.4,0.3l0.4,0.3l0.4,0.3l0.4,0.3 M3.35,12.45l0.5,0.2l0.5,0.2
		l0.5,0.3l0.5,0.2l0.5,0.1l0.6,0.2l0.6,0.1l0.6,0.2l0.6,0.1h0.6l0.6,0.1h0.7l0.6,0.1h0.6l0.7-0.1h0.6l0.6-0.1l0.6-0.1l0.6-0.1
		l0.6-0.1l0.6-0.2l0.5-0.2l0.6-0.1l0.5-0.3l0.5-0.2l0.5-0.2l0.4-0.3l0.4-0.3l0.4-0.2l0.4-0.3l0.3-0.4l0.3-0.3l0.3-0.3l0.2-0.3
		l0.2-0.4l0.2-0.3l0.1-0.4l0.1-0.4v-0.3v-0.3 M3.35,10.75l0.5,0.2l0.5,0.3l0.5,0.2l0.5,0.2l0.5,0.2l0.6,0.1l0.6,0.2l0.6,0.1l0.6,0.1
		l0.6,0.1h0.6l0.7,0.1h0.6h0.6h0.7l0.6-0.1l0.6-0.1h0.6l0.6-0.2l0.6-0.1l0.6-0.1l0.5-0.2l0.6-0.2l0.5-0.2l0.5-0.2l0.5-0.3l0.4-0.2
		l0.4-0.3l0.4-0.3l0.4-0.3l0.3-0.3l0.3-0.3l0.3-0.4l0.2-0.3l0.2-0.3l0.2-0.4l0.1-0.4l0.1-0.3v-0.4v-0.4v-0.3l-0.1-0.4l-0.1-0.3
		l-0.1-0.4l-0.2-0.3l-0.2-0.4l-0.2-0.3l-0.3-0.4l-0.3-0.3l-0.4-0.3l-0.4-0.3l-0.4-0.3l-0.4-0.2l-0.5-0.3l-0.4-0.2l-0.6-0.2l-0.5-0.2
		l-0.5-0.2l-0.6-0.2l-0.6-0.1l-0.6-0.1l-0.6-0.1l-0.6-0.1l-0.6-0.1h-0.7h-0.6h-0.6h-0.7l-0.6,0.1h-0.6l-0.6,0.1l-0.6,0.1l-0.6,0.2
		l-0.6,0.1l-0.5,0.2l-0.6,0.2l-0.5,0.2l-0.5,0.2l-0.5,0.3l-0.4,0.2l-0.4,0.3l-0.4,0.3l-0.4,0.3l-0.3,0.3l-0.3,0.3l-0.3,0.3l-0.2,0.4
		l-0.2,0.3l-0.2,0.4l-0.1,0.3l-0.1,0.4v0.4v0.3v0.4l0.1,0.4l0.1,0.3l0.1,0.4l0.2,0.3l0.2,0.4l0.3,0.3l0.2,0.3l0.3,0.4l0.4,0.3
		l0.4,0.3l0.4,0.2L3.35,10.75 M6.95,7.05l1.1-2.3 M8.05,4.75l3.9-0.6 M11.95,4.15l2.9,1.6 M14.85,5.75l-1.1,2.3 M13.75,8.05
		l-3.9,0.6 M9.85,8.65l-2.9-1.6 M14.15,45.25l0.8-0.4 M6.85,44.85l0.8,0.4 M16.55,42.55v-0.1 M5.25,42.45v0.1 M16.55,41.25v-0.3
		 M5.25,40.95v0.3 M16.55,39.65v-0.3 M5.25,39.35v0.3 M16.55,38.15v-0.3 M5.25,37.85v0.3 M16.55,36.55v-0.3 M5.25,36.25v0.3
		 M16.55,35.05v-0.3 M5.25,34.75v0.3 M16.55,33.45v-0.3 M5.25,33.15v0.3 M16.55,31.95v-0.3 M5.25,31.65v0.3 M16.55,30.35v-0.3
		 M5.25,30.05v0.3 M16.55,28.75v-0.2 M5.25,28.55v0.2 M16.55,27.25v-0.3 M5.25,26.95v0.3 M16.55,25.65v-0.3 M5.25,25.35v0.3
		 M16.55,24.15v-0.3 M5.25,23.85v0.3 M16.55,22.55v-0.3 M5.25,22.25v0.3 M16.55,21.05v-0.3 M5.25,20.75v0.3 M16.55,19.45v-0.3
		 M5.25,19.15v0.3 M16.55,17.95v-0.3 M5.25,17.65v0.3 M16.55,16.35v-2.9 M5.25,13.45v2.9 M15.05,14.35l3.4-1.9 M3.35,12.45l3.4,1.9
		 M21.55,8.05v-1.7 M0.25,6.35v1.7"/>
</g>
</svg>
