<?xml version="1.0" encoding="utf-8"?>
<!-- Generator: Adobe Illustrator 19.0.0, SVG Export Plug-In . SVG Version: 6.00 Build 0)  -->
<svg version="1.0" id="Layer_1" xmlns="http://www.w3.org/2000/svg" xmlns:xlink="http://www.w3.org/1999/xlink" x="0px" y="0px"
	 width="21.9px" height="55.6px" viewBox="0 0 21.9 55.6" enable-background="new 0 0 21.9 55.6" xml:space="preserve">
<g>
	
		<path fill="none" stroke="#000000" stroke-width="0.25" stroke-linecap="round" stroke-linejoin="round" stroke-miterlimit="10" d="
		M15.95,13.95L15.95,13.95l-0.3,0.2l-0.3,0.3l-0.3,0.2l-0.3,0.2l-0.4,0.2l-0.5,0.1l-0.4,0.2l-0.5,0.1l-0.4,0.1h-0.5l-0.5,0.1h-0.5
		h-0.5h-0.5l-0.5-0.1l-0.5-0.1l-0.4-0.1l-0.5-0.1l-0.4-0.2l-0.4-0.2l-0.4-0.2 M6.95,14.65l-0.3-0.2l-0.3-0.2l-0.3-0.2l-0.1-0.1
		 M6.85,14.45l0.4,0.2l0.4,0.2l0.4,0.1l0.5,0.2l0.4,0.1l0.5,0.1h0.5l0.5,0.1h0.5h0.5l0.5-0.1h0.5l0.5-0.1l0.5-0.1l0.4-0.2l0.4-0.1"
		/>
	<path fill="none" stroke="#000000" stroke-width="0.5" stroke-linecap="round" stroke-linejoin="round" stroke-miterlimit="10" d="
		M7.75,54.65l0.3,0.1l0.4,0.2l0.4,0.1l0.4,0.1l0.4,0.1l0.4,0.1h0.5h0.4h0.5h0.4l0.4-0.1l0.5-0.1l0.4-0.1l0.4-0.1l0.3-0.2l0.3-0.1
		 M5.25,51.85l0.1,0.2v0.3l0.1,0.3l0.2,0.3l0.2,0.3l0.2,0.2l0.3,0.3l0.3,0.2l0.3,0.2 M6.95,54.15l0.4,0.2l0.4,0.2l0.4,0.1l0.4,0.2
		l0.5,0.1l0.5,0.1h0.5h0.5l0.5,0.1l0.5-0.1h0.5l0.5-0.1l0.4-0.1l0.5-0.1l0.4-0.1l0.5-0.2l0.4-0.2l0.3-0.2l0.3-0.2l0.3-0.2l0.3-0.3
		l0.2-0.2l0.2-0.3l0.1-0.3l0.1-0.2l0.1-0.3v-0.2 M5.45,51.15l-0.1,0.1v0.3v0.3v0.3v0.3l0.2,0.3l0.1,0.2l0.2,0.3l0.3,0.3l0.2,0.2
		l0.4,0.2l0.3,0.2l0.4,0.2l0.4,0.2l0.4,0.1l0.5,0.2l0.4,0.1l0.5,0.1h0.5h0.5h0.5h0.5h0.5l0.5-0.1l0.5-0.1l0.4-0.1l0.5-0.2l0.4-0.1
		l0.3-0.2l0.4-0.2l0.3-0.2l0.3-0.3l0.3-0.2l0.2-0.3l0.1-0.3l0.2-0.2v-0.3l0.1-0.3v-0.3l-0.1-0.3v-0.2 M5.25,50.55h0.1v0.3v0.3
		l0.2,0.3l0.1,0.3l0.2,0.2l0.3,0.3l0.2,0.2l0.4,0.3l0.3,0.2l0.4,0.2l0.4,0.1l0.4,0.2l0.5,0.1l0.4,0.1l0.5,0.1h0.5l0.5,0.1h0.5h0.5
		l0.5-0.1l0.5-0.1l0.5-0.1l0.4-0.1l0.5-0.1l0.4-0.2l0.3-0.2l0.4-0.2l0.3-0.2l0.3-0.2l0.3-0.3l0.2-0.3l0.1-0.2l0.2-0.3v-0.3l0.1-0.3
		v-0.1 M5.45,49.65l-0.1,0.1v0.3v0.3v0.2v0.3l0.2,0.3l0.1,0.3l0.2,0.3l0.3,0.2l0.2,0.2l0.4,0.3l0.3,0.2l0.4,0.2l0.4,0.1l0.4,0.2
		l0.5,0.1l0.4,0.1l0.5,0.1l0.5,0.1h0.5h0.5h0.5l0.5-0.1l0.5-0.1l0.5-0.1l0.4-0.1l0.5-0.1l0.4-0.2l0.3-0.2l0.4-0.2l0.3-0.2l0.3-0.2
		l0.3-0.3l0.2-0.2l0.1-0.3l0.2-0.3v-0.3l0.1-0.3v-0.3l-0.1-0.3v-0.1 M5.25,49.05h0.1v0.3v0.3l0.2,0.2l0.1,0.3l0.2,0.3l0.3,0.2
		l0.2,0.3l0.4,0.2l0.3,0.2l0.4,0.2l0.4,0.2l0.4,0.1l0.5,0.2l0.4,0.1h0.5l0.5,0.1h0.5h0.5h0.5h0.5l0.5-0.1l0.5-0.1l0.4-0.1l0.5-0.2
		l0.4-0.1l0.3-0.2l0.4-0.2l0.3-0.3l0.3-0.2l0.3-0.2l0.2-0.3l0.1-0.3l0.2-0.3v-0.2l0.1-0.3v-0.1 M5.45,48.05l-0.1,0.1v0.3v0.3v0.3
		v0.3l0.2,0.3l0.1,0.2l0.2,0.3l0.3,0.3l0.2,0.2l0.4,0.2l0.3,0.2l0.4,0.2l0.4,0.2l0.4,0.1l0.5,0.2l0.4,0.1l0.5,0.1h0.5h0.5h0.5h0.5
		h0.5l0.5-0.1l0.5-0.1l0.4-0.1l0.5-0.2l0.4-0.1l0.3-0.2l0.4-0.2l0.3-0.2l0.3-0.3l0.3-0.2l0.2-0.3l0.1-0.3l0.2-0.3v-0.2l0.1-0.3v-0.3
		l-0.1-0.3v-0.2 M5.25,47.45h0.1v0.3v0.3l0.2,0.3l0.1,0.3l0.2,0.2l0.3,0.3l0.2,0.2l0.4,0.3l0.3,0.2l0.4,0.2l0.4,0.1l0.4,0.2l0.5,0.1
		l0.4,0.1l0.5,0.1h0.5l0.5,0.1h0.5h0.5l0.5-0.1l0.5-0.1l0.5-0.1l0.4-0.1l0.5-0.1l0.4-0.2l0.3-0.2l0.4-0.2l0.3-0.2l0.3-0.2l0.3-0.3
		l0.2-0.3l0.1-0.2l0.2-0.3v-0.3l0.1-0.3v-0.1 M5.45,46.55l-0.1,0.1v0.3v0.3v0.2l0.1,0.3l0.1,0.3l0.1,0.3l0.2,0.2l0.3,0.3l0.2,0.2
		l0.4,0.3l0.3,0.2l0.4,0.2l0.4,0.1l0.4,0.2l0.5,0.1l0.4,0.1l0.5,0.1l0.5,0.1h0.5h0.5h0.5l0.5-0.1l0.5-0.1l0.5-0.1l0.4-0.1l0.5-0.1
		l0.4-0.2l0.3-0.2l0.4-0.2l0.3-0.2l0.3-0.2l0.3-0.3l0.2-0.2l0.1-0.3l0.2-0.3v-0.3l0.1-0.3v-0.3l-0.1-0.3v-0.1 M5.35,45.85v0.1v0.3
		l0.1,0.3l0.1,0.2l0.1,0.3l0.2,0.3l0.3,0.2l0.2,0.3l0.4,0.2l0.3,0.2l0.4,0.2l0.4,0.2l0.4,0.1l0.5,0.2l0.4,0.1h0.5l0.5,0.1h0.5h0.5
		h0.5h0.5l0.5-0.1l0.5-0.1l0.4-0.1l0.5-0.2l0.4-0.1l0.3-0.2l0.4-0.2l0.3-0.3l0.3-0.2l0.3-0.3l0.2-0.2l0.1-0.3l0.2-0.3v-0.3l0.1-0.2
		v-0.1 M5.45,44.95l-0.1,0.1v0.3v0.3v0.3l0.1,0.3l0.1,0.3l0.1,0.2l0.2,0.3l0.3,0.3l0.2,0.2l0.4,0.2l0.3,0.2l0.4,0.2l0.4,0.2l0.4,0.1
		l0.5,0.2l0.4,0.1h0.5l0.5,0.1h0.5h0.5h0.5h0.5l0.5-0.1l0.5-0.1l0.4-0.1l0.5-0.2l0.4-0.1l0.3-0.2l0.4-0.2l0.3-0.2l0.3-0.3l0.3-0.2
		l0.2-0.3l0.1-0.3l0.2-0.3v-0.2l0.1-0.3v-0.3l-0.1-0.3v-0.2 M5.35,44.35L5.35,44.35v0.3l0.1,0.3l0.1,0.3l0.1,0.3l0.2,0.2l0.3,0.3
		l0.2,0.2l0.4,0.3l0.3,0.2l0.4,0.2l0.4,0.1l0.4,0.2l0.5,0.1l0.4,0.1l0.5,0.1h0.5l0.5,0.1h0.5l0.5-0.1h0.5l0.5-0.1l0.5-0.1l0.4-0.1
		l0.5-0.1l0.4-0.2l0.3-0.2l0.4-0.2l0.3-0.2l0.3-0.3l0.3-0.2l0.2-0.3l0.1-0.2l0.2-0.3v-0.3l0.1-0.3v-0.1 M5.45,43.45l-0.1,0.1v0.3
		v0.2v0.3l0.1,0.3l0.1,0.3l0.1,0.3l0.2,0.2l0.3,0.3l0.2,0.2l0.4,0.3l0.3,0.2l0.4,0.2l0.4,0.1l0.4,0.2l0.5,0.1l0.4,0.1l0.5,0.1
		l0.5,0.1h0.5h0.5h0.5l0.5-0.1l0.5-0.1l0.5-0.1l0.4-0.1l0.5-0.1l0.4-0.2l0.3-0.2l0.4-0.2l0.3-0.2l0.3-0.2l0.3-0.3l0.2-0.3l0.1-0.2
		l0.2-0.3v-0.3l0.1-0.3v-0.3l-0.1-0.3v-0.1 M5.35,42.75v0.1v0.3l0.1,0.3l0.1,0.2l0.1,0.3l0.2,0.3l0.3,0.2l0.2,0.3l0.4,0.2l0.3,0.2
		l0.4,0.2l0.4,0.2l0.4,0.1l0.5,0.1l0.4,0.2h0.5l0.5,0.1h0.5h0.5h0.5l0.5-0.1h0.5l0.5-0.1l0.4-0.1l0.5-0.2l0.4-0.2l0.3-0.1l0.4-0.2
		l0.3-0.3l0.3-0.2l0.3-0.3l0.2-0.2l0.1-0.3l0.2-0.3v-0.3l0.1-0.2v-0.2 M5.45,41.85l-0.1,0.1v0.3v0.3v0.3l0.1,0.3l0.1,0.3l0.1,0.2
		l0.2,0.3l0.3,0.2l0.2,0.3l0.4,0.2l0.3,0.2l0.4,0.2l0.4,0.2l0.4,0.1l0.5,0.2l0.4,0.1h0.5l0.5,0.1h0.5h0.5h0.5h0.5l0.5-0.1l0.5-0.1
		l0.4-0.1l0.5-0.2l0.4-0.1l0.3-0.2l0.4-0.2l0.3-0.3l0.3-0.2l0.3-0.2l0.2-0.3l0.1-0.3l0.2-0.3v-0.2l0.1-0.3v-0.3l-0.1-0.3v-0.2
		 M5.35,41.25L5.35,41.25v0.3l0.1,0.3l0.1,0.3l0.1,0.3l0.2,0.2l0.3,0.3l0.2,0.2l0.4,0.3l0.3,0.2l0.4,0.2l0.4,0.1l0.4,0.2l0.5,0.1
		l0.4,0.1l0.5,0.1h0.5l0.5,0.1h0.5l0.5-0.1h0.5l0.5-0.1l0.5-0.1l0.4-0.1l0.5-0.1l0.4-0.2l0.3-0.2l0.4-0.2l0.3-0.2l0.3-0.3l0.3-0.2
		l0.2-0.3l0.1-0.2l0.2-0.3v-0.3l0.1-0.3v-0.1 M5.45,40.35l-0.1,0.1v0.3v0.2v0.3l0.1,0.3l0.1,0.3l0.1,0.3l0.2,0.2l0.3,0.3l0.2,0.2
		l0.4,0.3l0.3,0.2l0.4,0.2l0.4,0.1l0.4,0.2l0.5,0.1l0.4,0.1l0.5,0.1h0.5l0.5,0.1h0.5h0.5l0.5-0.1l0.5-0.1l0.5-0.1l0.4-0.1l0.5-0.1
		l0.4-0.2l0.3-0.2l0.4-0.2l0.3-0.2l0.3-0.2l0.3-0.3l0.2-0.3l0.1-0.2l0.2-0.3v-0.3l0.1-0.3v-0.3l-0.1-0.3v-0.1 M5.35,39.65v0.1v0.3
		l0.1,0.3l0.1,0.2l0.1,0.3l0.2,0.3l0.3,0.2l0.2,0.3l0.4,0.2l0.3,0.2l0.4,0.2l0.4,0.2l0.4,0.1l0.5,0.1l0.4,0.1l0.5,0.1l0.5,0.1h0.5
		h0.5h0.5l0.5-0.1h0.5l0.5-0.1l0.4-0.1l0.5-0.2l0.4-0.2l0.3-0.1l0.4-0.2l0.3-0.3l0.3-0.2l0.3-0.3l0.2-0.2l0.1-0.3l0.2-0.3v-0.3
		l0.1-0.2v-0.2 M5.45,38.75l-0.1,0.1v0.3v0.3v0.3l0.1,0.3l0.1,0.2l0.1,0.3l0.2,0.3l0.3,0.2l0.2,0.3l0.4,0.2l0.3,0.2l0.4,0.2l0.4,0.2
		l0.4,0.1l0.5,0.2l0.4,0.1h0.5l0.5,0.1h0.5h0.5h0.5h0.5l0.5-0.1l0.5-0.1l0.4-0.1l0.5-0.2l0.4-0.1l0.3-0.2l0.4-0.2l0.3-0.3l0.3-0.2
		l0.3-0.2l0.2-0.3l0.1-0.3l0.2-0.3v-0.2l0.1-0.3v-0.3l-0.1-0.3v-0.2 M5.35,38.15L5.35,38.15v0.3l0.1,0.3l0.1,0.3l0.1,0.3l0.2,0.2
		l0.3,0.3l0.2,0.2l0.4,0.2l0.3,0.3l0.4,0.1l0.4,0.2l0.4,0.2l0.5,0.1l0.4,0.1l0.5,0.1h0.5l0.5,0.1h0.5l0.5-0.1h0.5l0.5-0.1l0.5-0.1
		l0.4-0.1l0.5-0.1l0.4-0.2l0.3-0.2l0.4-0.2l0.3-0.2l0.3-0.3l0.3-0.2l0.2-0.3l0.1-0.2l0.2-0.3v-0.3l0.1-0.3v-0.1 M5.45,37.25
		l-0.1,0.1v0.3v0.2v0.3l0.1,0.3l0.1,0.3l0.1,0.3l0.2,0.2l0.3,0.3l0.2,0.2l0.4,0.3l0.3,0.2l0.4,0.2l0.4,0.1l0.4,0.2l0.5,0.1l0.4,0.1
		l0.5,0.1h0.5l0.5,0.1h0.5h0.5l0.5-0.1l0.5-0.1l0.5-0.1l0.4-0.1l0.5-0.1l0.4-0.2l0.3-0.2l0.4-0.2l0.3-0.2l0.3-0.2l0.3-0.3l0.2-0.3
		l0.1-0.2l0.2-0.3v-0.3l0.1-0.3v-0.3l-0.1-0.3v-0.1 M5.35,36.55v0.1v0.3l0.1,0.3l0.1,0.2l0.1,0.3l0.2,0.3l0.3,0.2l0.2,0.3l0.4,0.2
		l0.3,0.2l0.4,0.2l0.4,0.2l0.4,0.1l0.5,0.1l0.4,0.1l0.5,0.1l0.5,0.1h0.5h0.5h0.5l0.5-0.1h0.5l0.5-0.1l0.4-0.1l0.5-0.2l0.4-0.2
		l0.3-0.1l0.4-0.2l0.3-0.3l0.3-0.2l0.3-0.3l0.2-0.2l0.1-0.3l0.2-0.3v-0.3l0.1-0.3v-0.1 M5.45,35.65l-0.1,0.1v0.3v0.3v0.3l0.1,0.3
		l0.1,0.2l0.1,0.3l0.2,0.3l0.3,0.2l0.2,0.3l0.4,0.2l0.3,0.2l0.4,0.2l0.4,0.2l0.4,0.1l0.5,0.2l0.4,0.1h0.5l0.5,0.1h0.5h0.5h0.5h0.5
		l0.5-0.1l0.5-0.1l0.4-0.1l0.5-0.2l0.4-0.1l0.3-0.2l0.4-0.2l0.3-0.3l0.3-0.2l0.3-0.2l0.2-0.3l0.1-0.3l0.2-0.3v-0.3l0.1-0.2v-0.3
		l-0.1-0.3v-0.2 M5.35,35.05L5.35,35.05v0.3l0.1,0.3l0.1,0.3l0.1,0.3l0.2,0.2l0.3,0.3l0.2,0.2l0.4,0.2l0.3,0.3l0.4,0.1l0.4,0.2
		l0.4,0.2l0.5,0.1l0.4,0.1l0.5,0.1h0.5l0.5,0.1h0.5l0.5-0.1h0.5l0.5-0.1l0.5-0.1l0.4-0.1l0.5-0.1l0.4-0.2l0.3-0.2l0.4-0.2l0.3-0.2
		l0.3-0.3l0.3-0.2l0.2-0.3l0.1-0.2l0.2-0.3v-0.3l0.1-0.3v-0.1 M5.45,34.15l-0.1,0.1v0.2v0.3v0.3l0.1,0.3l0.1,0.3l0.1,0.3l0.2,0.2
		l0.3,0.3l0.2,0.2l0.4,0.3l0.3,0.2l0.4,0.2l0.4,0.1l0.4,0.2l0.5,0.1l0.4,0.1l0.5,0.1h0.5l0.5,0.1h0.5l0.5-0.1h0.5l0.5-0.1l0.5-0.1
		l0.4-0.1l0.5-0.1l0.4-0.2l0.3-0.2l0.4-0.2l0.3-0.2l0.3-0.2l0.3-0.3l0.2-0.3l0.1-0.2l0.2-0.3v-0.3l0.1-0.3v-0.3l-0.1-0.3v-0.1
		 M5.35,33.45v0.1v0.3l0.1,0.2l0.1,0.3l0.1,0.3l0.2,0.3l0.3,0.2l0.2,0.3l0.4,0.2l0.3,0.2l0.4,0.2l0.4,0.2l0.4,0.1l0.5,0.1l0.4,0.1
		l0.5,0.1l0.5,0.1h0.5h0.5h0.5l0.5-0.1h0.5l0.5-0.1l0.4-0.2l0.5-0.1l0.4-0.2l0.3-0.1l0.4-0.3l0.3-0.2l0.3-0.2l0.3-0.3l0.2-0.2
		l0.1-0.3l0.2-0.3v-0.3l0.1-0.3v-0.1 M5.45,32.55l-0.1,0.1v0.3v0.3v0.3l0.1,0.3l0.1,0.2l0.1,0.3l0.2,0.3l0.3,0.2l0.2,0.3l0.4,0.2
		l0.3,0.2l0.4,0.2l0.4,0.2l0.4,0.1l0.5,0.2l0.4,0.1h0.5l0.5,0.1h0.5h0.5h0.5h0.5l0.5-0.1l0.5-0.1l0.4-0.1l0.5-0.2l0.4-0.2l0.3-0.1
		l0.4-0.2l0.3-0.3l0.3-0.2l0.3-0.3l0.2-0.2l0.1-0.3l0.2-0.3v-0.3l0.1-0.2v-0.3l-0.1-0.3v-0.2 M5.35,31.95L5.35,31.95v0.3l0.1,0.3
		l0.1,0.3l0.1,0.3l0.2,0.2l0.3,0.3l0.2,0.2l0.4,0.2l0.3,0.3l0.4,0.1l0.4,0.2l0.4,0.2l0.5,0.1l0.4,0.1l0.5,0.1h0.5l0.5,0.1h0.5
		l0.5-0.1h0.5l0.5-0.1l0.5-0.1l0.4-0.1l0.5-0.1l0.4-0.2l0.3-0.2l0.4-0.2l0.3-0.2l0.3-0.3l0.3-0.2l0.2-0.3l0.1-0.3l0.2-0.2v-0.3
		l0.1-0.3v-0.1 M5.45,31.05l-0.1,0.1v0.2v0.3v0.3l0.1,0.3l0.1,0.3l0.1,0.3l0.2,0.2l0.3,0.3l0.2,0.2l0.4,0.3l0.3,0.2l0.4,0.2l0.4,0.1
		l0.4,0.2l0.5,0.1l0.4,0.1l0.5,0.1h0.5l0.5,0.1h0.5l0.5-0.1h0.5l0.5-0.1l0.5-0.1l0.4-0.1l0.5-0.1l0.4-0.2l0.3-0.2l0.4-0.2l0.3-0.2
		l0.3-0.3l0.3-0.2l0.2-0.3l0.1-0.2l0.2-0.3v-0.3l0.1-0.3v-0.3l-0.1-0.3v-0.1 M5.35,30.35v0.1v0.3l0.1,0.2l0.1,0.3l0.1,0.3l0.2,0.3
		l0.3,0.2l0.2,0.3l0.4,0.2l0.3,0.2l0.4,0.2l0.4,0.2l0.4,0.1l0.5,0.1l0.4,0.1l0.5,0.1l0.5,0.1h0.5h0.5h0.5l0.5-0.1h0.5l0.5-0.1
		l0.4-0.2l0.5-0.1l0.4-0.2l0.3-0.2l0.4-0.2l0.3-0.2l0.3-0.2l0.3-0.3l0.2-0.2l0.1-0.3l0.2-0.3v-0.3l0.1-0.3v-0.1 M5.45,29.45
		l-0.1,0.1v0.3v0.3v0.3l0.1,0.3l0.1,0.2l0.1,0.3l0.2,0.3l0.3,0.2l0.2,0.3l0.4,0.2l0.3,0.2l0.4,0.2l0.4,0.2l0.4,0.1l0.5,0.1l0.4,0.2
		h0.5l0.5,0.1h0.5h0.5h0.5l0.5-0.1h0.5l0.5-0.1l0.4-0.1l0.5-0.2l0.4-0.2l0.3-0.1l0.4-0.2l0.3-0.3l0.3-0.2l0.3-0.3l0.2-0.2l0.1-0.3
		l0.2-0.3v-0.3l0.1-0.2v-0.3l-0.1-0.3v-0.2 M5.35,28.85L5.35,28.85v0.3l0.1,0.3l0.1,0.3l0.1,0.3l0.2,0.2l0.3,0.3l0.2,0.2l0.4,0.2
		l0.3,0.2l0.4,0.2l0.4,0.2l0.4,0.2l0.5,0.1l0.4,0.1l0.5,0.1h0.5l0.5,0.1h0.5l0.5-0.1h0.5l0.5-0.1l0.5-0.1l0.4-0.1l0.5-0.2l0.4-0.1
		l0.3-0.2l0.4-0.2l0.3-0.2l0.3-0.3l0.3-0.2l0.2-0.3l0.1-0.3l0.2-0.2v-0.3l0.1-0.3v-0.1 M5.45,27.95l-0.1,0.1v0.2v0.3v0.3l0.1,0.3
		l0.1,0.3l0.1,0.3l0.2,0.2l0.3,0.3l0.2,0.2l0.4,0.3l0.3,0.2l0.4,0.2l0.4,0.1l0.4,0.2l0.5,0.1l0.4,0.1l0.5,0.1h0.5l0.5,0.1h0.5
		l0.5-0.1h0.5l0.5-0.1l0.5-0.1l0.4-0.1l0.5-0.1l0.4-0.2l0.3-0.2l0.4-0.2l0.3-0.2l0.3-0.3l0.3-0.2l0.2-0.3l0.1-0.2l0.2-0.3v-0.3
		l0.1-0.3v-0.3l-0.1-0.3v-0.1 M5.35,27.25v0.1v0.3l0.1,0.2l0.1,0.3l0.1,0.3l0.2,0.3l0.3,0.2l0.2,0.3l0.4,0.2l0.3,0.2l0.4,0.2
		l0.4,0.2l0.4,0.1l0.5,0.1l0.4,0.1l0.5,0.1l0.5,0.1h0.5h0.5h0.5l0.5-0.1h0.5l0.5-0.1l0.4-0.2l0.5-0.1l0.4-0.2l0.3-0.2l0.4-0.2
		l0.3-0.2l0.3-0.2l0.3-0.3l0.2-0.2l0.1-0.3l0.2-0.3v-0.3l0.1-0.3v-0.1 M5.45,26.35l-0.1,0.1v0.3v0.3v0.3l0.1,0.3l0.1,0.2l0.1,0.3
		l0.2,0.3l0.3,0.2l0.2,0.3l0.4,0.2l0.3,0.2l0.4,0.2l0.4,0.2l0.4,0.1l0.5,0.1l0.4,0.1l0.5,0.1l0.5,0.1h0.5h0.5h0.5l0.5-0.1h0.5
		l0.5-0.1l0.4-0.1l0.5-0.2l0.4-0.2l0.3-0.1l0.4-0.2l0.3-0.3l0.3-0.2l0.3-0.3l0.2-0.2l0.1-0.3l0.2-0.3v-0.3l0.1-0.2v-0.3l-0.1-0.3
		v-0.2 M5.35,25.75L5.35,25.75v0.3l0.1,0.3l0.1,0.3l0.1,0.2l0.2,0.3l0.3,0.3l0.2,0.2l0.4,0.2l0.3,0.2l0.4,0.2l0.4,0.2l0.4,0.2
		l0.5,0.1l0.4,0.1l0.5,0.1h0.5h0.5l0.5,0.1l0.5-0.1h0.5l0.5-0.1l0.5-0.1l0.4-0.1l0.5-0.2l0.4-0.1l0.3-0.2l0.4-0.2l0.3-0.2l0.3-0.3
		l0.3-0.2l0.2-0.3l0.1-0.3l0.2-0.2v-0.3l0.1-0.3v-0.1 M5.45,24.85l-0.1,0.1v0.2v0.3v0.3l0.1,0.3l0.1,0.3l0.1,0.3l0.2,0.2l0.3,0.3
		l0.2,0.2l0.4,0.2l0.3,0.3l0.4,0.1l0.4,0.2l0.4,0.2l0.5,0.1l0.4,0.1l0.5,0.1h0.5l0.5,0.1h0.5l0.5-0.1h0.5l0.5-0.1l0.5-0.1l0.4-0.1
		l0.5-0.1l0.4-0.2l0.3-0.2l0.4-0.2l0.3-0.2l0.3-0.3l0.3-0.2l0.2-0.3l0.1-0.2l0.2-0.3v-0.3l0.1-0.3v-0.3l-0.1-0.3v-0.1 M5.35,24.15
		v0.1v0.3l0.1,0.2l0.1,0.3l0.1,0.3l0.2,0.3l0.3,0.2l0.2,0.3l0.4,0.2l0.3,0.2l0.4,0.2l0.4,0.2l0.4,0.1l0.5,0.1l0.4,0.1l0.5,0.1
		l0.5,0.1h0.5h0.5h0.5l0.5-0.1h0.5l0.5-0.1l0.4-0.2l0.5-0.1l0.4-0.2l0.3-0.2l0.4-0.2l0.3-0.2l0.3-0.2l0.3-0.3l0.2-0.2l0.1-0.3
		l0.2-0.3v-0.3l0.1-0.3v-0.1 M5.45,23.25l-0.1,0.1v0.3v0.3v0.3l0.1,0.3l0.1,0.2l0.1,0.3l0.2,0.3l0.3,0.2l0.2,0.3l0.4,0.2l0.3,0.2
		l0.4,0.2l0.4,0.2l0.4,0.1l0.5,0.1l0.4,0.1l0.5,0.1l0.5,0.1h0.5h0.5h0.5l0.5-0.1h0.5l0.5-0.1l0.4-0.2l0.5-0.1l0.4-0.2l0.3-0.1
		l0.4-0.3l0.3-0.2l0.3-0.2l0.3-0.3l0.2-0.2l0.1-0.3l0.2-0.3v-0.3l0.1-0.3v-0.2l-0.1-0.3v-0.2 M5.35,22.65L5.35,22.65v0.3l0.1,0.3
		l0.1,0.3l0.1,0.2l0.2,0.3l0.3,0.3l0.2,0.2l0.4,0.2l0.3,0.2l0.4,0.2l0.4,0.2l0.4,0.2l0.5,0.1l0.4,0.1l0.5,0.1h0.5h0.5h0.5h0.5h0.5
		l0.5-0.1l0.5-0.1l0.4-0.1l0.5-0.2l0.4-0.1l0.3-0.2l0.4-0.2l0.3-0.2l0.3-0.3l0.3-0.2l0.2-0.3l0.1-0.3l0.2-0.2v-0.3l0.1-0.3v-0.1
		 M5.45,21.75h-0.1v0.3v0.3v0.3l0.1,0.3l0.1,0.3l0.1,0.3l0.2,0.2l0.3,0.3l0.2,0.2l0.4,0.2l0.3,0.3l0.4,0.1l0.4,0.2l0.4,0.2l0.5,0.1
		l0.4,0.1l0.5,0.1h0.5l0.5,0.1h0.5l0.5-0.1h0.5l0.5-0.1l0.5-0.1l0.4-0.1l0.5-0.1l0.4-0.2l0.3-0.2l0.4-0.2l0.3-0.2l0.3-0.3l0.3-0.2
		l0.2-0.3l0.1-0.2l0.2-0.3v-0.3l0.1-0.3v-0.3l-0.1-0.3v-0.1 M5.35,21.05v0.1v0.2l0.1,0.3l0.1,0.3l0.1,0.3l0.2,0.3l0.3,0.2l0.2,0.3
		l0.4,0.2l0.3,0.2l0.4,0.2l0.4,0.2l0.4,0.1l0.5,0.1l0.4,0.1l0.5,0.1l0.5,0.1h0.5h0.5h0.5l0.5-0.1h0.5l0.5-0.1l0.4-0.2l0.5-0.1
		l0.4-0.2l0.3-0.2l0.4-0.2l0.3-0.2l0.3-0.2l0.3-0.3l0.2-0.2l0.1-0.3l0.2-0.3v-0.3l0.1-0.3v-0.1 M5.45,20.15l-0.1,0.1v0.3v0.3v0.3
		l0.1,0.2l0.1,0.3l0.1,0.3l0.2,0.3l0.3,0.2l0.2,0.3l0.4,0.2l0.3,0.2l0.4,0.2l0.4,0.2l0.4,0.1l0.5,0.1l0.4,0.1l0.5,0.1l0.5,0.1h0.5
		h0.5h0.5l0.5-0.1h0.5l0.5-0.1l0.4-0.2l0.5-0.1l0.4-0.2l0.3-0.1l0.4-0.3l0.3-0.2l0.3-0.2l0.3-0.3l0.2-0.2l0.1-0.3l0.2-0.3v-0.3
		l0.1-0.3v-0.2l-0.1-0.3v-0.2 M5.35,19.55L5.35,19.55v0.3l0.1,0.3l0.1,0.3l0.1,0.2l0.2,0.3l0.3,0.3l0.2,0.2l0.4,0.2l0.3,0.2l0.4,0.2
		l0.4,0.2l0.4,0.1l0.5,0.2l0.4,0.1l0.5,0.1h0.5h0.5h0.5h0.5h0.5l0.5-0.1l0.5-0.1l0.4-0.1l0.5-0.2l0.4-0.1l0.3-0.2l0.4-0.2l0.3-0.2
		l0.3-0.3l0.3-0.2l0.2-0.3l0.1-0.3l0.2-0.2v-0.3l0.1-0.3v-0.1 M5.45,18.65h-0.1v0.3v0.3v0.3l0.1,0.3l0.1,0.3l0.1,0.3l0.2,0.2
		l0.3,0.3l0.2,0.2l0.4,0.2l0.3,0.2l0.4,0.2l0.4,0.2l0.4,0.2l0.5,0.1l0.4,0.1l0.5,0.1h0.5l0.5,0.1h0.5l0.5-0.1h0.5l0.5-0.1l0.5-0.1
		l0.4-0.1l0.5-0.1l0.4-0.2l0.3-0.2l0.4-0.2l0.3-0.2l0.3-0.3l0.3-0.2l0.2-0.3l0.1-0.3l0.2-0.2v-0.3l0.1-0.3v-0.3l-0.1-0.3v-0.1
		 M5.35,17.95v0.1v0.2l0.1,0.3l0.1,0.3l0.1,0.3l0.2,0.3l0.3,0.2l0.2,0.3l0.4,0.2l0.3,0.2l0.4,0.2l0.4,0.1l0.4,0.2l0.5,0.1l0.4,0.1
		l0.5,0.1l0.5,0.1h0.5h0.5h0.5l0.5-0.1l0.5-0.1h0.5l0.4-0.2l0.5-0.1l0.4-0.2l0.3-0.2l0.4-0.2l0.3-0.2l0.3-0.2l0.3-0.3l0.2-0.2
		l0.1-0.3l0.2-0.3v-0.3l0.1-0.3v-0.1 M8.85,8.15l1.2-0.2 M10.05,7.95l2-0.3 M5.45,17.05l-0.1,0.1v0.3v0.3v0.3l0.1,0.2l0.1,0.3
		l0.1,0.3l0.2,0.3l0.3,0.2l0.2,0.3l0.4,0.2l0.3,0.2l0.4,0.2l0.4,0.2l0.4,0.1l0.5,0.1l0.4,0.1l0.5,0.1l0.5,0.1h0.5h0.5h0.5l0.5-0.1
		h0.5l0.5-0.1l0.4-0.2l0.5-0.1l0.4-0.2l0.3-0.2l0.4-0.2l0.3-0.2l0.3-0.2l0.3-0.3l0.2-0.2l0.1-0.3l0.2-0.3v-0.3l0.1-0.3v-0.2
		l-0.1-0.3v-0.2 M12.05,7.65v-3.5 M12.05,7.65l1,0.6 M8.05,7.65v-2.9 M13.05,8.25l-0.2-0.1l-0.4-0.1l-0.4-0.1h-0.4l-0.4-0.1h-0.4
		h-0.4l-0.4,0.1 M10.05,7.95l-0.4,0.1l-0.4,0.1l-0.2,0.1 M5.35,16.45L5.35,16.45v0.3l0.1,0.3l0.1,0.3l0.1,0.2l0.2,0.3l0.3,0.3
		l0.2,0.2l0.4,0.2l0.3,0.2l0.4,0.2l0.4,0.2l0.4,0.1l0.5,0.2l0.4,0.1l0.5,0.1h0.5h0.5h0.5h0.5h0.5l0.5-0.1l0.5-0.1l0.4-0.1l0.5-0.2
		l0.4-0.1l0.3-0.2l0.4-0.2l0.3-0.2l0.3-0.3l0.3-0.2l0.2-0.3l0.1-0.3l0.2-0.2v-0.3l0.1-0.3v-0.1 M14.25,14.85h0.1l0.4-0.2l0.3-0.2
		 M0.25,8.15l0.1,0.1v0.3l0.1,0.4l0.1,0.4l0.1,0.4l0.2,0.4l0.3,0.4l0.3,0.3l0.3,0.4l0.4,0.3l0.4,0.3l0.4,0.3l0.5,0.3 M3.45,12.45
		l0.5,0.3l0.5,0.2l0.6,0.3l0.5,0.2l0.6,0.2l0.7,0.1l0.6,0.2l0.6,0.1l0.7,0.1l0.7,0.1h0.7h0.7h0.6h0.7l0.7-0.1l0.7-0.1l0.6-0.1
		l0.7-0.1l0.6-0.2l0.6-0.1l0.6-0.2l0.6-0.2l0.5-0.3l0.5-0.3l0.5-0.2l0.5-0.3l0.4-0.3l0.4-0.4l0.3-0.3l0.3-0.4l0.3-0.3l0.2-0.4
		l0.2-0.4l0.1-0.4l0.1-0.4l0.1-0.3v-0.3 M3.45,10.85l0.5,0.2l0.5,0.3l0.6,0.2l0.5,0.2l0.6,0.2l0.7,0.2l0.6,0.1l0.6,0.1l0.7,0.1
		l0.7,0.1h0.7l0.7,0.1h0.6l0.7-0.1h0.7l0.7-0.1l0.6-0.1l0.7-0.2l0.6-0.1l0.6-0.2l0.6-0.2l0.6-0.2l0.5-0.2l0.5-0.3l0.5-0.3l0.5-0.3
		l0.4-0.3l0.4-0.3l0.3-0.4l0.3-0.3l0.3-0.4l0.2-0.4l0.2-0.3l0.1-0.4l0.1-0.4l0.1-0.4v-0.4v-0.4l-0.1-0.4l-0.1-0.4l-0.2-0.4l-0.2-0.3
		l-0.3-0.4l-0.2-0.4l-0.4-0.3l-0.3-0.3l-0.4-0.4l-0.5-0.3l-0.4-0.3l-0.5-0.2l-0.6-0.3l-0.5-0.2l-0.6-0.2l-0.6-0.2l-0.6-0.2l-0.7-0.1
		l-0.6-0.1l-0.7-0.1l-0.6-0.1h-0.7l-0.7-0.1h-0.7l-0.7,0.1h-0.7l-0.6,0.1l-0.7,0.1l-0.6,0.2l-0.7,0.1l-0.6,0.2l-0.6,0.2l-0.5,0.2
		l-0.6,0.2l-0.5,0.3l-0.5,0.3l-0.4,0.3l-0.4,0.3l-0.4,0.3l-0.4,0.4l-0.3,0.3l-0.2,0.4l-0.3,0.4l-0.1,0.3l-0.2,0.4l-0.1,0.4v0.4v0.4
		v0.4l0.1,0.4l0.1,0.4l0.1,0.4l0.2,0.3l0.3,0.4l0.3,0.4l0.3,0.3l0.4,0.3l0.4,0.4l0.4,0.3L3.45,10.85 M7.05,7.05l1-2.3 M8.05,4.75
		l4-0.6 M12.05,4.15l2.9,1.7 M14.95,5.85l-1.1,2.3 M13.85,8.15l-3.9,0.6 M9.95,8.75l-2.9-1.7 M14.15,54.65l0.8-0.5 M6.95,54.15
		l0.8,0.5 M16.65,51.85L16.65,51.85 M5.25,51.85L5.25,51.85 M16.65,50.55v-0.3 M5.25,50.25v0.3 M16.65,49.05v-0.3 M5.25,48.75v0.3
		 M16.65,47.45v-0.3 M5.25,47.15v0.3 M16.65,45.95v-0.3 M5.35,45.65v0.2 M16.65,44.35v-0.3 M5.35,44.05v0.3 M16.65,42.75v-0.2
		 M5.35,42.55v0.2 M16.65,41.25v-0.3 M5.35,40.95v0.3 M16.65,39.65v-0.2 M5.35,39.45v0.2 M16.65,38.15v-0.3 M5.35,37.85v0.3
		 M16.65,36.55v-0.2 M5.35,36.35v0.2 M16.65,35.05v-0.3 M5.35,34.75v0.3 M16.65,33.45v-0.3 M5.35,33.15v0.3 M16.65,31.95v-0.3
		 M5.35,31.65v0.3 M16.65,30.35v-0.3 M5.35,30.05v0.3 M16.65,28.85v-0.3 M5.35,28.55v0.3 M16.65,27.25v-0.3 M5.35,26.95v0.3
		 M16.65,25.75v-0.3 M5.35,25.45v0.3 M16.65,24.15v-0.3 M5.35,23.85v0.3 M16.65,22.65v-0.3 M5.35,22.35v0.3 M16.65,21.05v-0.3
		 M5.35,20.75v0.3 M16.65,19.55v-0.3 M5.35,19.25v0.3 M16.65,17.95v-0.3 M5.35,17.65v0.3 M16.65,16.45v-2.9 M5.35,13.55v2.9
		 M15.05,14.45l3.5-2 M3.45,12.45l3.4,2 M21.65,8.15v-1.7 M0.25,6.45v1.7"/>
</g>
</svg>
