<?xml version="1.0" encoding="utf-8"?>
<!-- Generator: Adobe Illustrator 19.0.0, SVG Export Plug-In . SVG Version: 6.00 Build 0)  -->
<svg version="1.0" id="Layer_1" xmlns="http://www.w3.org/2000/svg" xmlns:xlink="http://www.w3.org/1999/xlink" x="0px" y="0px"
	 width="21.8px" height="67.1px" viewBox="0 0 21.8 67.1" enable-background="new 0 0 21.8 67.1" xml:space="preserve">
<g>
	
		<path fill="none" stroke="#000000" stroke-width="0.25" stroke-linecap="round" stroke-linejoin="round" stroke-miterlimit="10" d="
		M15.85,13.85v0.1l-0.3,0.3l-0.4,0.2l-0.3,0.2l-0.4,0.2l-0.5,0.2l-0.5,0.2l-0.5,0.1l-0.5,0.1l-0.5,0.1h-0.6h-0.5h-0.6h-0.5l-0.5-0.1
		l-0.5-0.1l-0.5-0.2l-0.5-0.1l-0.4-0.2l-0.5-0.2 M6.85,14.65l-0.3-0.3l-0.3-0.2l-0.3-0.3 M6.75,14.35l0.4,0.2l0.5,0.2l0.5,0.2
		l0.5,0.1l0.5,0.1l0.5,0.1l0.6,0.1h0.5h0.6h0.5l0.6-0.1l0.5-0.1l0.5-0.1l0.5-0.2"/>
	<path fill="none" stroke="#000000" stroke-width="0.5" stroke-linecap="round" stroke-linejoin="round" stroke-miterlimit="10" d="
		M7.65,66.15l0.4,0.1l0.4,0.2l0.4,0.1l0.5,0.2h0.5l0.4,0.1h0.5h0.5h0.5l0.5-0.1l0.5-0.1l0.4-0.1l0.4-0.2l0.4-0.2h0.2 M5.25,63.35
		L5.25,63.35v0.3l0.1,0.4l0.1,0.3l0.2,0.3l0.3,0.2l0.2,0.3l0.4,0.3l0.3,0.2 M6.85,65.65l0.5,0.2l0.4,0.2l0.5,0.2l0.5,0.1l0.5,0.1
		l0.5,0.1h0.5l0.6,0.1l0.5-0.1h0.6l0.5-0.1l0.5-0.1l0.5-0.1l0.5-0.2l0.4-0.1l0.5-0.2l0.3-0.3l0.4-0.2l0.3-0.3l0.2-0.3l0.2-0.3
		l0.2-0.3l0.1-0.3v-0.3v-0.1 M5.35,62.65l-0.1,0.3v0.3v0.3l0.1,0.3l0.1,0.3l0.2,0.3l0.2,0.3l0.3,0.3l0.3,0.3l0.3,0.2l0.4,0.2
		l0.5,0.2l0.4,0.2l0.5,0.1l0.5,0.1l0.6,0.1l0.5,0.1h0.5h0.6h0.5l0.6-0.1l0.5-0.1l0.5-0.1l0.5-0.2l0.4-0.1l0.5-0.2l0.4-0.3l0.3-0.2
		l0.3-0.3l0.3-0.2l0.2-0.3l0.1-0.3l0.2-0.3v-0.4v-0.3v-0.3l-0.1-0.2 M5.25,62.05v0.3l0.1,0.3l0.1,0.3l0.2,0.3l0.2,0.3l0.3,0.2
		l0.3,0.3l0.3,0.2l0.4,0.3l0.5,0.2l0.4,0.1l0.5,0.2l0.5,0.1l0.6,0.1h0.5l0.5,0.1l0.6-0.1h0.5l0.6-0.1h0.5l0.5-0.2l0.5-0.1l0.4-0.2
		l0.5-0.2l0.4-0.2l0.3-0.3l0.3-0.2l0.3-0.3l0.2-0.3l0.1-0.3l0.2-0.3v-0.3v-0.2 M5.35,61.05l-0.1,0.3v0.3v0.3l0.1,0.4l0.1,0.3
		l0.2,0.3l0.2,0.3l0.3,0.2l0.3,0.3l0.3,0.2l0.4,0.2l0.5,0.2l0.4,0.2l0.5,0.2l0.5,0.1l0.6,0.1h0.5h0.5h0.6h0.5l0.6-0.1l0.5-0.1
		l0.5-0.1l0.5-0.1l0.4-0.2l0.5-0.2l0.4-0.2l0.3-0.3l0.3-0.2l0.3-0.3l0.2-0.3l0.1-0.3l0.2-0.3v-0.3v-0.3v-0.4l-0.1-0.2 M5.25,60.45
		v0.3l0.1,0.3l0.1,0.3l0.2,0.3l0.2,0.3l0.3,0.3l0.3,0.2l0.3,0.3l0.4,0.2l0.5,0.2l0.4,0.1l0.5,0.2l0.5,0.1l0.6,0.1h0.5l0.5,0.1h0.6
		l0.5-0.1h0.6l0.5-0.1l0.5-0.1l0.5-0.2l0.4-0.2l0.5-0.2l0.4-0.2l0.3-0.2l0.3-0.3l0.3-0.3l0.2-0.3l0.1-0.3l0.2-0.3v-0.3v-0.2
		 M5.35,59.55l-0.1,0.2v0.4v0.3l0.1,0.3l0.1,0.3l0.2,0.3l0.2,0.3l0.3,0.3l0.3,0.2l0.3,0.3l0.4,0.2l0.5,0.2l0.4,0.1l0.5,0.2l0.5,0.1
		l0.6,0.1h0.5l0.5,0.1h0.6l0.5-0.1h0.6l0.5-0.1l0.5-0.2l0.5-0.1l0.4-0.2l0.5-0.2l0.4-0.2l0.3-0.3l0.3-0.2l0.3-0.3l0.2-0.3l0.1-0.3
		l0.2-0.3v-0.3v-0.3v-0.3l-0.1-0.2 M5.25,58.85v0.3l0.1,0.3l0.1,0.3l0.2,0.3l0.2,0.3l0.3,0.3l0.3,0.2l0.3,0.3l0.4,0.2l0.5,0.2
		l0.4,0.2l0.5,0.1l0.5,0.1l0.6,0.1l0.5,0.1h0.5h0.6h0.5l0.6-0.1l0.5-0.1l0.5-0.1l0.5-0.2l0.4-0.1l0.5-0.2l0.4-0.3l0.3-0.2l0.3-0.3
		l0.3-0.3l0.2-0.2l0.1-0.3l0.2-0.4v-0.3v-0.2 M5.35,57.95l-0.1,0.3v0.3v0.3l0.1,0.3l0.1,0.3l0.2,0.3l0.2,0.3l0.3,0.3l0.3,0.2
		l0.3,0.3l0.4,0.2l0.5,0.2l0.4,0.2l0.5,0.1l0.5,0.1l0.6,0.1l0.5,0.1h0.5h0.6h0.5l0.6-0.1l0.5-0.1l0.5-0.1l0.5-0.2l0.4-0.2l0.5-0.2
		l0.4-0.2l0.3-0.2l0.3-0.3l0.3-0.3l0.2-0.3l0.1-0.3l0.2-0.3v-0.3v-0.3v-0.3l-0.1-0.2 M5.25,57.35v0.2l0.1,0.3l0.1,0.4l0.2,0.3
		l0.2,0.2l0.3,0.3l0.3,0.3l0.3,0.2l0.4,0.2l0.5,0.2l0.4,0.2l0.5,0.1l0.5,0.2h0.6l0.5,0.1h0.5h0.6h0.5l0.6-0.1l0.5-0.1l0.5-0.1
		l0.5-0.1l0.4-0.2l0.5-0.2l0.4-0.2l0.3-0.3l0.3-0.3l0.3-0.2l0.2-0.3l0.1-0.3l0.2-0.3v-0.3v-0.2 M5.35,56.35l-0.1,0.3v0.3v0.3
		l0.1,0.3l0.1,0.3l0.2,0.3l0.2,0.3l0.3,0.3l0.3,0.3l0.3,0.2l0.4,0.2l0.5,0.2l0.4,0.2l0.5,0.1l0.5,0.1l0.6,0.1l0.5,0.1h0.5h0.6h0.5
		l0.6-0.1l0.5-0.1l0.5-0.1l0.5-0.2l0.4-0.1l0.5-0.2l0.4-0.3l0.3-0.2l0.3-0.3l0.3-0.2l0.2-0.3l0.1-0.3l0.2-0.3v-0.4v-0.3v-0.3
		l-0.1-0.2 M5.25,55.75v0.3l0.1,0.3l0.1,0.3l0.2,0.3l0.2,0.3l0.3,0.2l0.3,0.3l0.3,0.2l0.4,0.3l0.5,0.1l0.4,0.2l0.5,0.2l0.5,0.1
		l0.6,0.1h0.5h0.5h0.6h0.5l0.6-0.1h0.5l0.5-0.2l0.5-0.1l0.4-0.2l0.5-0.2l0.4-0.2l0.3-0.3l0.3-0.2l0.3-0.3l0.2-0.3l0.1-0.3l0.2-0.3
		v-0.3v-0.2 M5.35,54.75l-0.1,0.3v0.3v0.3l0.1,0.4l0.1,0.3l0.2,0.3l0.2,0.3l0.3,0.2l0.3,0.3l0.3,0.2l0.4,0.2l0.5,0.2l0.4,0.2
		l0.5,0.2l0.5,0.1l0.6,0.1h0.5h0.5h0.6h0.5l0.6-0.1l0.5-0.1l0.5-0.1l0.5-0.1l0.4-0.2l0.5-0.2l0.4-0.2l0.3-0.3l0.3-0.2l0.3-0.3
		l0.2-0.3l0.1-0.3l0.2-0.3v-0.3v-0.4v-0.3l-0.1-0.2 M5.25,54.15v0.3l0.1,0.3l0.1,0.3l0.2,0.3l0.2,0.3l0.3,0.3l0.3,0.2l0.3,0.3
		l0.4,0.2l0.5,0.2l0.4,0.1l0.5,0.2l0.5,0.1l0.6,0.1h0.5l0.5,0.1h0.6l0.5-0.1h0.6l0.5-0.1l0.5-0.1l0.5-0.2l0.4-0.2l0.5-0.2l0.4-0.2
		l0.3-0.2l0.3-0.3l0.3-0.3l0.2-0.3l0.1-0.3l0.2-0.3v-0.3v-0.2 M5.35,53.25l-0.1,0.2v0.4v0.3l0.1,0.3l0.1,0.3l0.2,0.3l0.2,0.3
		l0.3,0.3l0.3,0.2l0.3,0.3l0.4,0.2l0.5,0.2l0.4,0.1l0.5,0.2l0.5,0.1l0.6,0.1h0.5l0.5,0.1h0.6l0.5-0.1h0.6l0.5-0.1l0.5-0.2l0.5-0.1
		l0.4-0.2l0.5-0.2l0.4-0.2l0.3-0.3l0.3-0.2l0.3-0.3l0.2-0.3l0.1-0.3l0.2-0.3v-0.3v-0.3v-0.3l-0.1-0.2 M5.25,52.55v0.3l0.1,0.3
		l0.1,0.3l0.2,0.3l0.2,0.3l0.3,0.3l0.3,0.2l0.3,0.3l0.4,0.2l0.5,0.2l0.4,0.2l0.5,0.1l0.5,0.1l0.6,0.1l0.5,0.1h0.5h0.6h0.5l0.6-0.1
		l0.5-0.1l0.5-0.1l0.5-0.2l0.4-0.1l0.5-0.2l0.4-0.3l0.3-0.2l0.3-0.3l0.3-0.3l0.2-0.2l0.1-0.4l0.2-0.3v-0.3v-0.2 M5.35,51.65
		l-0.1,0.3v0.3v0.3l0.1,0.3l0.1,0.3l0.2,0.3l0.2,0.3l0.3,0.3l0.3,0.2l0.3,0.3l0.4,0.2l0.5,0.2l0.4,0.2l0.5,0.1l0.5,0.1l0.6,0.1
		l0.5,0.1h0.5h0.6l0.5-0.1h0.6l0.5-0.1l0.5-0.1l0.5-0.2l0.4-0.2l0.5-0.2l0.4-0.2l0.3-0.2l0.3-0.3l0.3-0.3l0.2-0.3l0.1-0.3l0.2-0.3
		v-0.3v-0.3v-0.3l-0.1-0.2 M5.25,51.05v0.2l0.1,0.3l0.1,0.4l0.2,0.3l0.2,0.2l0.3,0.3l0.3,0.3l0.3,0.2l0.4,0.2l0.5,0.2l0.4,0.2
		l0.5,0.1l0.5,0.2h0.6l0.5,0.1h0.5h0.6h0.5l0.6-0.1l0.5-0.1l0.5-0.1l0.5-0.1l0.4-0.2l0.5-0.2l0.4-0.2l0.3-0.3l0.3-0.3l0.3-0.2
		l0.2-0.3l0.1-0.3l0.2-0.3v-0.3v-0.2 M5.35,50.05l-0.1,0.3v0.3v0.3l0.1,0.3l0.1,0.3l0.2,0.3l0.2,0.3l0.3,0.3l0.3,0.3l0.3,0.2
		l0.4,0.2l0.5,0.2l0.4,0.2l0.5,0.1l0.5,0.1l0.6,0.1l0.5,0.1h0.5h0.6h0.5l0.6-0.1l0.5-0.1l0.5-0.1l0.5-0.2l0.4-0.1l0.5-0.2l0.4-0.3
		l0.3-0.2l0.3-0.3l0.3-0.2l0.2-0.3l0.1-0.3l0.2-0.3v-0.4v-0.3v-0.3l-0.1-0.2 M5.25,49.45v0.3l0.1,0.3l0.1,0.3l0.2,0.3l0.2,0.3
		l0.3,0.2l0.3,0.3l0.3,0.2l0.4,0.3l0.5,0.1l0.4,0.2l0.5,0.2l0.5,0.1l0.6,0.1h0.5h0.5h0.6h0.5l0.6-0.1h0.5l0.5-0.2l0.5-0.1l0.4-0.2
		l0.5-0.2l0.4-0.2l0.3-0.3l0.3-0.2l0.3-0.3l0.2-0.3l0.1-0.3l0.2-0.3v-0.3v-0.2 M5.35,48.45l-0.1,0.3v0.3v0.3l0.1,0.4l0.1,0.3
		l0.2,0.3l0.2,0.3l0.3,0.2l0.3,0.3l0.3,0.2l0.4,0.2l0.5,0.2l0.4,0.2l0.5,0.2l0.5,0.1l0.6,0.1h0.5h0.5h0.6h0.5l0.6-0.1l0.5-0.1
		l0.5-0.1l0.5-0.1l0.4-0.2l0.5-0.2l0.4-0.2l0.3-0.3l0.3-0.2l0.3-0.3l0.2-0.3l0.1-0.3l0.2-0.3v-0.3v-0.4v-0.3l-0.1-0.2 M5.25,47.85
		v0.3l0.1,0.3l0.1,0.3l0.2,0.3l0.2,0.3l0.3,0.3l0.3,0.2l0.3,0.3l0.4,0.2l0.5,0.2l0.4,0.1l0.5,0.2l0.5,0.1l0.6,0.1h0.5l0.5,0.1h0.6
		l0.5-0.1h0.6l0.5-0.1l0.5-0.1l0.5-0.2l0.4-0.2l0.5-0.2l0.4-0.2l0.3-0.2l0.3-0.3l0.3-0.3l0.2-0.3l0.1-0.3l0.2-0.3v-0.3v-0.2
		 M5.35,46.95l-0.1,0.2v0.4v0.3l0.1,0.3l0.1,0.3l0.2,0.3l0.2,0.3l0.3,0.3l0.3,0.2l0.3,0.2l0.4,0.3l0.5,0.2l0.4,0.1l0.5,0.2l0.5,0.1
		l0.6,0.1h0.5l0.5,0.1h0.6l0.5-0.1h0.6l0.5-0.1l0.5-0.2l0.5-0.1l0.4-0.2l0.5-0.2l0.4-0.2l0.3-0.3l0.3-0.2l0.3-0.3l0.2-0.3l0.1-0.3
		l0.2-0.3v-0.3v-0.3v-0.3l-0.1-0.2 M5.25,46.25v0.3l0.1,0.3l0.1,0.3l0.2,0.3l0.2,0.3l0.3,0.3l0.3,0.2l0.3,0.3l0.4,0.2l0.5,0.2
		l0.4,0.2l0.5,0.1l0.5,0.1l0.6,0.1l0.5,0.1h0.5h0.6h0.5l0.6-0.1l0.5-0.1l0.5-0.1l0.5-0.2l0.4-0.1l0.5-0.2l0.4-0.3l0.3-0.2l0.3-0.3
		l0.3-0.3l0.2-0.2l0.1-0.4l0.2-0.3v-0.3v-0.2 M5.35,45.35l-0.1,0.3v0.3v0.3l0.1,0.3l0.1,0.3l0.2,0.3l0.2,0.3l0.3,0.3l0.3,0.2
		l0.3,0.3l0.4,0.2l0.5,0.2l0.4,0.2l0.5,0.1l0.5,0.1l0.6,0.1l0.5,0.1h0.5h0.6l0.5-0.1h0.6l0.5-0.1l0.5-0.1l0.5-0.2l0.4-0.2l0.5-0.2
		l0.4-0.2l0.3-0.2l0.3-0.3l0.3-0.3l0.2-0.3l0.1-0.3l0.2-0.3v-0.3v-0.3v-0.3l-0.1-0.2 M5.25,44.75v0.2l0.1,0.3l0.1,0.3l0.2,0.3
		l0.2,0.3l0.3,0.3l0.3,0.3l0.3,0.2l0.4,0.2l0.5,0.2l0.4,0.2l0.5,0.1l0.5,0.2h0.6l0.5,0.1h0.5h0.6h0.5l0.6-0.1l0.5-0.1l0.5-0.1
		l0.5-0.1l0.4-0.2l0.5-0.2l0.4-0.2l0.3-0.3l0.3-0.3l0.3-0.2l0.2-0.3l0.1-0.3l0.2-0.3v-0.4v-0.1 M5.35,43.75l-0.1,0.3v0.3v0.3
		l0.1,0.3l0.1,0.3l0.2,0.3l0.2,0.3l0.3,0.3l0.3,0.3l0.3,0.2l0.4,0.2l0.5,0.2l0.4,0.2l0.5,0.1l0.5,0.1l0.6,0.1l0.5,0.1h0.5h0.6h0.5
		l0.6-0.1l0.5-0.1l0.5-0.1l0.5-0.2l0.4-0.1l0.5-0.2l0.4-0.3l0.3-0.2l0.3-0.3l0.3-0.2l0.2-0.3l0.1-0.3l0.2-0.3v-0.4v-0.3v-0.3
		l-0.1-0.2 M5.25,43.15v0.3l0.1,0.3l0.1,0.3l0.2,0.3l0.2,0.3l0.3,0.2l0.3,0.3l0.3,0.2l0.4,0.3l0.5,0.1l0.4,0.2l0.5,0.2l0.5,0.1
		l0.6,0.1h0.5h0.5h0.6h0.5l0.6-0.1h0.5l0.5-0.2l0.5-0.1l0.4-0.2l0.5-0.2l0.4-0.2l0.3-0.3l0.3-0.2l0.3-0.3l0.2-0.3l0.1-0.3l0.2-0.3
		v-0.3v-0.2 M5.35,42.15l-0.1,0.3v0.3v0.3l0.1,0.4l0.1,0.3l0.2,0.3l0.2,0.3l0.3,0.2l0.3,0.3l0.3,0.2l0.4,0.2l0.5,0.2l0.4,0.2
		l0.5,0.1l0.5,0.2l0.6,0.1h0.5h0.5h0.6h0.5l0.6-0.1l0.5-0.1l0.5-0.1l0.5-0.1l0.4-0.2l0.5-0.2l0.4-0.2l0.3-0.3l0.3-0.2l0.3-0.3
		l0.2-0.3l0.1-0.3l0.2-0.3v-0.3v-0.4v-0.3l-0.1-0.2 M5.25,41.55v0.3l0.1,0.3l0.1,0.3l0.2,0.3l0.2,0.3l0.3,0.3l0.3,0.2l0.3,0.3
		l0.4,0.2l0.5,0.2l0.4,0.1l0.5,0.2l0.5,0.1l0.6,0.1h0.5l0.5,0.1h0.6l0.5-0.1h0.6l0.5-0.1l0.5-0.1l0.5-0.2l0.4-0.2l0.5-0.2l0.4-0.2
		l0.3-0.2l0.3-0.3l0.3-0.3l0.2-0.3l0.1-0.3l0.2-0.3v-0.3v-0.2 M5.35,40.65l-0.1,0.2v0.3v0.4l0.1,0.3l0.1,0.3l0.2,0.3l0.2,0.3
		l0.3,0.2l0.3,0.3l0.3,0.2l0.4,0.3l0.5,0.2l0.4,0.1l0.5,0.2l0.5,0.1l0.6,0.1h0.5l0.5,0.1h0.6l0.5-0.1h0.6l0.5-0.1l0.5-0.2l0.5-0.1
		l0.4-0.2l0.5-0.2l0.4-0.2l0.3-0.3l0.3-0.2l0.3-0.3l0.2-0.3l0.1-0.3l0.2-0.3v-0.3v-0.3v-0.3l-0.1-0.2 M5.25,39.95v0.3l0.1,0.3
		l0.1,0.3l0.2,0.3l0.2,0.3l0.3,0.3l0.3,0.2l0.4,0.3l0.3,0.2l0.5,0.2l0.4,0.2l0.5,0.1l0.5,0.1l0.6,0.1l0.5,0.1h0.5h0.6h0.5l0.6-0.1
		l0.5-0.1l0.5-0.1l0.5-0.2l0.4-0.2l0.5-0.2l0.4-0.2l0.3-0.2l0.3-0.3l0.3-0.3l0.2-0.3l0.1-0.3l0.2-0.3v-0.3v-0.2 M5.35,39.05
		l-0.1,0.3v0.3v0.3l0.1,0.3l0.1,0.3l0.2,0.3l0.2,0.3l0.3,0.3l0.3,0.2l0.4,0.3l0.3,0.2l0.5,0.2l0.4,0.2l0.5,0.1l0.5,0.1l0.6,0.1
		l0.5,0.1h0.5h0.6l0.5-0.1h0.6l0.5-0.1l0.5-0.1l0.5-0.2l0.4-0.2l0.5-0.2l0.4-0.2l0.3-0.2l0.3-0.3l0.3-0.3l0.2-0.3l0.1-0.3l0.2-0.3
		v-0.3v-0.3v-0.3l-0.1-0.2 M5.25,38.35v0.3l0.1,0.3l0.1,0.3l0.2,0.3l0.2,0.3l0.3,0.3l0.3,0.3l0.4,0.2l0.3,0.2l0.5,0.2l0.4,0.2
		l0.5,0.1l0.5,0.2h0.6l0.5,0.1h0.5h0.6h0.5l0.6-0.1l0.5-0.1l0.5-0.1l0.5-0.1l0.4-0.2l0.5-0.2l0.4-0.3l0.3-0.2l0.3-0.3l0.3-0.2
		l0.2-0.3l0.1-0.3l0.2-0.3v-0.4v-0.1 M5.35,37.45l-0.1,0.3v0.3v0.3l0.1,0.3l0.1,0.3l0.2,0.3l0.2,0.3l0.3,0.3l0.3,0.3l0.4,0.2
		l0.3,0.2l0.5,0.2l0.4,0.2l0.5,0.1l0.5,0.1l0.6,0.1l0.5,0.1h0.5h0.6h0.5l0.6-0.1l0.5-0.1l0.5-0.1l0.5-0.2l0.4-0.1l0.5-0.2l0.4-0.3
		l0.3-0.2l0.3-0.3l0.3-0.2l0.2-0.3l0.1-0.3l0.2-0.3v-0.4v-0.3v-0.3l-0.1-0.2 M5.25,36.85v0.3l0.1,0.3l0.1,0.3l0.2,0.3l0.2,0.3
		l0.3,0.2l0.3,0.3l0.4,0.2l0.3,0.3l0.5,0.1l0.4,0.2l0.5,0.2l0.5,0.1l0.6,0.1h0.5h0.5h0.6h0.5l0.6-0.1l0.5-0.1l0.5-0.1l0.5-0.1
		l0.4-0.2l0.5-0.2l0.4-0.2l0.3-0.3l0.3-0.2l0.3-0.3l0.2-0.3l0.1-0.3l0.2-0.3v-0.3v-0.2 M5.35,35.85l-0.1,0.3v0.3v0.3l0.1,0.4
		l0.1,0.3l0.2,0.3l0.2,0.2l0.3,0.3l0.3,0.3l0.4,0.2l0.3,0.2l0.5,0.2l0.4,0.2l0.5,0.1l0.5,0.2l0.6,0.1h0.5h0.5h0.6h0.5l0.6-0.1
		l0.5-0.1l0.5-0.1l0.5-0.1l0.4-0.2l0.5-0.2l0.4-0.2l0.3-0.3l0.3-0.2l0.3-0.3l0.2-0.3l0.1-0.3l0.2-0.3v-0.3v-0.4v-0.3l-0.1-0.2
		 M5.25,35.25v0.3l0.1,0.3l0.1,0.3l0.2,0.3l0.2,0.3l0.3,0.3l0.3,0.2l0.4,0.3l0.3,0.2l0.5,0.2l0.4,0.1l0.5,0.2l0.5,0.1l0.6,0.1h0.5
		l0.5,0.1h0.6l0.5-0.1h0.6l0.5-0.1l0.5-0.1l0.5-0.2l0.4-0.2l0.5-0.2l0.4-0.2l0.3-0.2l0.3-0.3l0.3-0.3l0.2-0.3l0.1-0.3l0.2-0.3v-0.3
		v-0.2 M5.35,34.35l-0.1,0.2v0.3v0.4l0.1,0.3l0.1,0.3l0.2,0.3l0.2,0.3l0.3,0.2l0.3,0.3l0.4,0.2l0.3,0.3l0.5,0.2l0.4,0.1l0.5,0.2
		l0.5,0.1l0.6,0.1h0.5l0.5,0.1h0.6l0.5-0.1h0.6l0.5-0.1l0.5-0.2l0.5-0.1l0.4-0.2l0.5-0.2l0.4-0.2l0.3-0.3l0.3-0.2l0.3-0.3l0.2-0.3
		l0.1-0.3l0.2-0.3v-0.3v-0.3v-0.3l-0.1-0.2 M5.25,33.65v0.3l0.1,0.3l0.1,0.3l0.2,0.3l0.2,0.3l0.3,0.3l0.3,0.2l0.4,0.3l0.3,0.2
		l0.5,0.2l0.4,0.2l0.5,0.1l0.5,0.1l0.6,0.1l0.5,0.1h0.5h0.6h0.5l0.6-0.1l0.5-0.1l0.5-0.1l0.5-0.2l0.4-0.2l0.5-0.2l0.4-0.2l0.3-0.2
		l0.3-0.3l0.3-0.3l0.2-0.3l0.1-0.3l0.2-0.3v-0.3v-0.2 M5.35,32.75l-0.1,0.3v0.3v0.3l0.1,0.3l0.1,0.3l0.2,0.3l0.2,0.3l0.3,0.3
		l0.3,0.2l0.4,0.3l0.3,0.2l0.5,0.2l0.4,0.2l0.5,0.1l0.5,0.1l0.6,0.1l0.5,0.1h0.5h0.6l0.5-0.1h0.6l0.5-0.1l0.5-0.1l0.5-0.2l0.4-0.2
		l0.5-0.2l0.4-0.2l0.3-0.2l0.3-0.3l0.3-0.3l0.2-0.3l0.1-0.3l0.2-0.3v-0.3v-0.3v-0.3l-0.1-0.2 M5.25,32.05v0.3l0.1,0.3l0.1,0.3
		l0.2,0.3l0.2,0.3l0.3,0.3l0.3,0.3l0.4,0.2l0.3,0.2l0.5,0.2l0.4,0.2l0.5,0.1l0.5,0.1l0.6,0.1l0.5,0.1h0.5h0.6h0.5l0.6-0.1l0.5-0.1
		l0.5-0.1l0.5-0.2l0.4-0.1l0.5-0.2l0.4-0.3l0.3-0.2l0.3-0.3l0.3-0.2l0.2-0.3l0.1-0.3l0.2-0.3v-0.4v-0.2 M5.35,31.15l-0.1,0.3v0.3
		v0.3l0.1,0.3l0.1,0.3l0.2,0.3l0.2,0.3l0.3,0.3l0.3,0.3l0.4,0.2l0.3,0.2l0.5,0.2l0.4,0.2l0.5,0.1l0.5,0.1l0.6,0.1l0.5,0.1h0.5h0.6
		h0.5l0.6-0.1l0.5-0.1l0.5-0.1l0.5-0.2l0.4-0.1l0.5-0.2l0.4-0.3l0.3-0.2l0.3-0.3l0.3-0.2l0.2-0.3l0.1-0.3l0.2-0.4v-0.3v-0.3v-0.3
		l-0.1-0.2 M5.25,30.55v0.2l0.1,0.4l0.1,0.3l0.2,0.3l0.2,0.3l0.3,0.2l0.3,0.3l0.4,0.2l0.3,0.2l0.5,0.2l0.4,0.2l0.5,0.2l0.5,0.1
		l0.6,0.1h0.5h0.5h0.6h0.5l0.6-0.1l0.5-0.1l0.5-0.1l0.5-0.1l0.4-0.2l0.5-0.2l0.4-0.2l0.3-0.3l0.3-0.2l0.3-0.3l0.2-0.3l0.1-0.3
		l0.2-0.3v-0.3v-0.2 M5.35,29.55l-0.1,0.3v0.3v0.3l0.1,0.4l0.1,0.3l0.2,0.3l0.2,0.2l0.3,0.3l0.3,0.3l0.4,0.2l0.3,0.2l0.5,0.2
		l0.4,0.2l0.5,0.1l0.5,0.2h0.6l0.5,0.1h0.5h0.6h0.5l0.6-0.1l0.5-0.1l0.5-0.1l0.5-0.1l0.4-0.2l0.5-0.2l0.4-0.2l0.3-0.3l0.3-0.2
		l0.3-0.3l0.2-0.3l0.1-0.3l0.2-0.3v-0.3v-0.4v-0.3l-0.1-0.2 M5.25,28.95v0.3l0.1,0.3l0.1,0.3l0.2,0.3l0.2,0.3l0.3,0.3l0.3,0.2
		l0.4,0.3l0.3,0.2l0.5,0.2l0.4,0.1l0.5,0.2l0.5,0.1l0.6,0.1h0.5l0.5,0.1h0.6l0.5-0.1h0.6l0.5-0.1l0.5-0.2l0.5-0.1l0.4-0.2l0.5-0.2
		l0.4-0.2l0.3-0.2l0.3-0.3l0.3-0.3l0.2-0.3l0.1-0.3l0.2-0.3v-0.3v-0.2 M5.35,28.05l-0.1,0.2v0.3v0.4l0.1,0.3l0.1,0.3l0.2,0.3
		l0.2,0.3l0.3,0.2l0.3,0.3l0.4,0.2l0.3,0.3l0.5,0.2l0.4,0.1l0.5,0.2l0.5,0.1l0.6,0.1h0.5l0.5,0.1h0.6l0.5-0.1h0.6l0.5-0.1l0.5-0.2
		l0.5-0.1l0.4-0.2l0.5-0.2l0.4-0.2l0.3-0.3l0.3-0.2l0.3-0.3l0.2-0.3l0.1-0.3l0.2-0.3v-0.3v-0.3v-0.3l-0.1-0.2 M5.25,27.35v0.3
		l0.1,0.3l0.1,0.3l0.2,0.3l0.2,0.3l0.3,0.3l0.3,0.2l0.4,0.3l0.3,0.2l0.5,0.2l0.4,0.2l0.5,0.1l0.5,0.1l0.6,0.1l0.5,0.1h0.5h0.6h0.5
		l0.6-0.1l0.5-0.1l0.5-0.1l0.5-0.2l0.4-0.2l0.5-0.2l0.4-0.2l0.3-0.2l0.3-0.3l0.3-0.3l0.2-0.3l0.1-0.3l0.2-0.3v-0.3v-0.2 M5.35,26.45
		l-0.1,0.3v0.3v0.3l0.1,0.3l0.1,0.3l0.2,0.3l0.2,0.3l0.3,0.3l0.3,0.2l0.4,0.3l0.3,0.2l0.5,0.2l0.4,0.2l0.5,0.1l0.5,0.1l0.6,0.1
		l0.5,0.1h0.5h0.6l0.5-0.1h0.6l0.5-0.1l0.5-0.1l0.5-0.2l0.4-0.2l0.5-0.2l0.4-0.2l0.3-0.2l0.3-0.3l0.3-0.3l0.2-0.3l0.1-0.3l0.2-0.3
		v-0.3v-0.3v-0.3l-0.1-0.2 M5.25,25.75v0.3l0.1,0.3l0.1,0.3l0.2,0.3l0.2,0.3l0.3,0.3l0.3,0.3l0.4,0.2l0.3,0.2l0.5,0.2l0.4,0.2
		l0.5,0.1l0.5,0.1l0.6,0.1l0.5,0.1h0.5h0.6h0.5l0.6-0.1l0.5-0.1l0.5-0.1l0.5-0.2l0.4-0.1l0.5-0.2l0.4-0.3l0.3-0.2l0.3-0.3l0.3-0.2
		l0.2-0.3l0.1-0.3l0.2-0.3v-0.4v-0.2 M5.35,24.85l-0.1,0.3v0.3v0.3l0.1,0.3l0.1,0.3l0.2,0.3l0.2,0.3l0.3,0.3l0.3,0.3l0.4,0.2
		l0.3,0.2l0.5,0.2l0.4,0.2l0.5,0.1l0.5,0.1l0.6,0.1l0.5,0.1h0.5h0.6h0.5l0.6-0.1l0.5-0.1l0.5-0.1l0.5-0.2l0.4-0.1l0.5-0.2l0.4-0.3
		l0.3-0.2l0.3-0.3l0.3-0.2l0.2-0.3l0.1-0.3l0.2-0.4v-0.3v-0.3v-0.3l-0.1-0.2 M5.25,24.25v0.2l0.1,0.4l0.1,0.3l0.2,0.3l0.2,0.3
		l0.3,0.2l0.3,0.3l0.4,0.2l0.3,0.2l0.5,0.2l0.4,0.2l0.5,0.2l0.5,0.1l0.6,0.1h0.5h0.5h0.6h0.5l0.6-0.1l0.5-0.1l0.5-0.1l0.5-0.1
		l0.4-0.2l0.5-0.2l0.4-0.2l0.3-0.3l0.3-0.2l0.3-0.3l0.2-0.3l0.1-0.3l0.2-0.3v-0.3v-0.2 M5.35,23.25l-0.1,0.3v0.3v0.3l0.1,0.4
		l0.1,0.3l0.2,0.3l0.2,0.2l0.3,0.3l0.3,0.3l0.4,0.2l0.3,0.2l0.5,0.2l0.4,0.2l0.5,0.1l0.5,0.2h0.6l0.5,0.1h0.5h0.6h0.5l0.6-0.1
		l0.5-0.1l0.5-0.1l0.5-0.1l0.4-0.2l0.5-0.2l0.4-0.2l0.3-0.3l0.3-0.2l0.3-0.3l0.2-0.3l0.1-0.3l0.2-0.3v-0.3v-0.4v-0.3l-0.1-0.2
		 M5.25,22.65v0.3l0.1,0.3l0.1,0.3l0.2,0.3l0.2,0.3l0.3,0.3l0.3,0.2l0.4,0.3l0.3,0.2l0.5,0.2l0.4,0.1l0.5,0.2l0.5,0.1l0.6,0.1h0.5
		l0.6,0.1h0.5l0.5-0.1h0.6l0.5-0.1l0.5-0.2l0.5-0.1l0.4-0.2l0.5-0.2l0.4-0.2l0.3-0.2l0.3-0.3l0.3-0.3l0.2-0.3l0.1-0.3l0.2-0.3v-0.3
		v-0.2 M5.35,21.75l-0.1,0.2v0.3v0.4l0.1,0.3l0.1,0.3l0.2,0.3l0.2,0.3l0.3,0.2l0.3,0.3l0.4,0.2l0.3,0.3l0.5,0.2l0.4,0.1l0.5,0.2
		l0.5,0.1l0.6,0.1h0.5l0.6,0.1h0.5l0.5-0.1h0.6l0.5-0.1l0.5-0.2l0.5-0.1l0.4-0.2l0.5-0.2l0.4-0.2l0.3-0.3l0.3-0.2l0.3-0.3l0.2-0.3
		l0.1-0.3l0.2-0.3v-0.3v-0.3v-0.3l-0.1-0.2 M5.25,21.05v0.3l0.1,0.3l0.1,0.3l0.2,0.3l0.2,0.3l0.3,0.3l0.3,0.2l0.4,0.3l0.3,0.2
		l0.5,0.2l0.4,0.2l0.5,0.1l0.5,0.1l0.6,0.1l0.5,0.1h0.6h0.5h0.5l0.6-0.1l0.5-0.1l0.5-0.1l0.5-0.2l0.4-0.2l0.5-0.2l0.4-0.2l0.3-0.2
		l0.3-0.3l0.3-0.3l0.2-0.3l0.1-0.3l0.2-0.3v-0.3v-0.2 M5.35,20.15l-0.1,0.3v0.3v0.3l0.1,0.3l0.1,0.3l0.2,0.3l0.2,0.3l0.3,0.3
		l0.3,0.2l0.4,0.3l0.3,0.2l0.5,0.2l0.4,0.2l0.5,0.1l0.5,0.1l0.6,0.1l0.5,0.1h0.6h0.5l0.5-0.1h0.6l0.5-0.1l0.5-0.1l0.5-0.2l0.4-0.2
		l0.5-0.2l0.4-0.2l0.3-0.2l0.3-0.3l0.3-0.3l0.2-0.3l0.1-0.3l0.2-0.3v-0.3v-0.3v-0.3l-0.1-0.2 M5.25,19.45v0.3l0.1,0.3l0.1,0.3
		l0.2,0.3l0.2,0.3l0.3,0.3l0.3,0.3l0.4,0.2l0.3,0.2l0.5,0.2l0.4,0.2l0.5,0.1l0.5,0.1l0.6,0.1l0.5,0.1h0.6h0.5h0.5l0.6-0.1l0.5-0.1
		l0.5-0.1l0.5-0.2l0.4-0.1l0.5-0.2l0.4-0.3l0.3-0.2l0.3-0.3l0.3-0.2l0.2-0.3l0.1-0.3l0.2-0.3v-0.4v-0.2 M5.35,18.55l-0.1,0.3v0.3
		v0.3l0.1,0.3l0.1,0.3l0.2,0.3l0.2,0.3l0.3,0.3l0.3,0.3l0.4,0.2l0.3,0.2l0.5,0.2l0.4,0.2l0.5,0.1l0.5,0.1l0.6,0.1l0.5,0.1h0.6h0.5
		h0.5l0.6-0.1l0.5-0.1l0.5-0.1l0.5-0.2l0.4-0.1l0.5-0.2l0.4-0.3l0.3-0.2l0.3-0.3l0.3-0.3l0.2-0.2l0.1-0.3l0.2-0.4v-0.3v-0.3v-0.3
		l-0.1-0.2 M5.25,17.95v0.2l0.1,0.4l0.1,0.3l0.2,0.3l0.2,0.3l0.3,0.2l0.3,0.3l0.4,0.2l0.3,0.2l0.5,0.2l0.4,0.2l0.5,0.2l0.5,0.1
		l0.6,0.1h0.5h0.6h0.5h0.5l0.6-0.1l0.5-0.1l0.5-0.1l0.5-0.1l0.4-0.2l0.5-0.2l0.4-0.2l0.3-0.3l0.3-0.2l0.3-0.3l0.2-0.3l0.1-0.3
		l0.2-0.3v-0.3v-0.2 M8.85,8.05l1.1-0.2 M9.95,7.85l2-0.3 M5.35,16.95l-0.1,0.3v0.3v0.3l0.1,0.3l0.1,0.4l0.2,0.3l0.2,0.2l0.3,0.3
		l0.3,0.3l0.4,0.2l0.3,0.2l0.5,0.2l0.4,0.2l0.5,0.1l0.5,0.2h0.6l0.5,0.1h0.6h0.5h0.5l0.6-0.1l0.5-0.1l0.5-0.1l0.5-0.1l0.4-0.2
		l0.5-0.2l0.4-0.2l0.3-0.3l0.3-0.2l0.3-0.3l0.2-0.3l0.1-0.3l0.2-0.3v-0.3v-0.4v-0.3l-0.1-0.2 M11.95,7.55v-3.5 M11.95,7.55l1.1,0.6
		 M8.05,7.55v-2.8 M12.95,8.15l-0.3-0.1l-0.4-0.1l-0.4-0.1h-0.5h-0.4h-0.5h-0.5 M9.95,7.85l-0.4,0.1l-0.4,0.1l-0.2,0.1 M5.25,16.35
		v0.3l0.1,0.3l0.1,0.3l0.2,0.3l0.2,0.3l0.3,0.3l0.3,0.2l0.4,0.3l0.3,0.2l0.5,0.2l0.4,0.1l0.5,0.2l0.5,0.1l0.6,0.1h0.5l0.6,0.1h0.5
		l0.5-0.1h0.6l0.5-0.1l0.5-0.2l0.5-0.1l0.4-0.2l0.5-0.2l0.4-0.2l0.3-0.2l0.3-0.3l0.3-0.3l0.2-0.3l0.1-0.3l0.2-0.3v-0.3v-0.2
		 M13.95,14.85L13.95,14.85l0.5-0.2l0.4-0.2l0.2-0.1 M0.25,8.05L0.25,8.05v0.5l0.1,0.4l0.1,0.4l0.2,0.5l0.3,0.4l0.3,0.4l0.3,0.4
		l0.4,0.3l0.4,0.4l0.5,0.3l0.5,0.3 M3.35,12.35l0.6,0.3l0.5,0.3l0.7,0.3l0.6,0.2l0.7,0.2l0.7,0.1l0.7,0.2l0.7,0.1l0.8,0.1h0.7h0.8
		h0.7h0.8l0.7-0.1l0.7-0.1l0.8-0.1l0.7-0.2l0.6-0.2l0.7-0.2l0.6-0.2l0.6-0.3l0.6-0.3l0.5-0.3l0.5-0.3l0.4-0.4l0.4-0.4l0.4-0.3
		l0.3-0.4l0.2-0.4l0.2-0.5l0.2-0.4l0.1-0.4v-0.5v-0.1 M3.35,10.75l0.6,0.3l0.5,0.3l0.7,0.2l0.6,0.2l0.7,0.2l0.7,0.2l0.7,0.1l0.7,0.1
		l0.8,0.1l0.7,0.1h0.8h0.7l0.8-0.1h0.7l0.7-0.1l0.8-0.2l0.7-0.1l0.6-0.2l0.7-0.2l0.6-0.3l0.6-0.2l0.6-0.3l0.5-0.4l0.5-0.3l0.4-0.3
		l0.4-0.4l0.4-0.4l0.3-0.4l0.2-0.4l0.2-0.4l0.2-0.4l0.1-0.5v-0.4v-0.4v-0.5l-0.2-0.4l-0.1-0.4l-0.2-0.4l-0.3-0.5l-0.3-0.4l-0.4-0.3
		l-0.4-0.4l-0.4-0.3l-0.5-0.4l-0.6-0.3l-0.5-0.3l-0.6-0.2l-0.7-0.3l-0.6-0.2l-0.7-0.2l-0.7-0.1l-0.7-0.1l-0.8-0.1l-0.7-0.1h-0.8
		h-0.7h-0.8l-0.7,0.1h-0.8l-0.7,0.2l-0.7,0.1l-0.7,0.2l-0.7,0.2l-0.6,0.2l-0.6,0.3l-0.6,0.2l-0.5,0.3l-0.5,0.4l-0.5,0.3l-0.4,0.4
		l-0.4,0.4l-0.3,0.3l-0.3,0.4l-0.2,0.5l-0.2,0.4l-0.1,0.4l-0.1,0.4v0.5v0.4l0.1,0.4l0.1,0.5l0.2,0.4l0.3,0.4l0.3,0.4l0.3,0.4
		l0.4,0.4l0.4,0.3l0.5,0.4L3.35,10.75 M6.95,6.95l1.1-2.2 M8.05,4.75l3.9-0.7 M11.95,4.05l2.9,1.7 M14.85,5.75l-1.1,2.3 M13.75,8.05
		l-3.9,0.6 M9.85,8.65l-2.9-1.7 M14.15,66.15l0.8-0.5 M6.85,65.65l0.8,0.5 M16.55,63.35v-0.1 M5.25,63.25v0.1 M16.55,62.05v-0.3
		 M5.25,61.75v0.3 M16.55,60.45v-0.3 M5.25,60.15v0.3 M16.55,58.85v-0.3 M5.25,58.55v0.3 M16.55,57.35v-0.4 M5.25,56.95v0.4
		 M16.55,55.75v-0.3 M5.25,55.45v0.3 M16.55,54.15v-0.3 M5.25,53.85v0.3 M16.55,52.55v-0.3 M5.25,52.25v0.3 M16.55,51.05v-0.4
		 M5.25,50.65v0.4 M16.55,49.45v-0.3 M5.25,49.15v0.3 M16.55,47.85v-0.3 M5.25,47.55v0.3 M16.55,46.25v-0.3 M5.25,45.95v0.3
		 M16.55,44.75v-0.4 M5.25,44.35v0.4 M16.55,43.15v-0.3 M5.25,42.85v0.3 M16.55,41.55v-0.3 M5.25,41.25v0.3 M16.55,39.95v-0.3
		 M5.25,39.65v0.3 M16.55,38.45v-0.4 M5.25,38.05v0.3 M16.55,36.85v-0.3 M5.25,36.55v0.3 M16.55,35.25v-0.3 M5.25,34.95v0.3
		 M16.55,33.65v-0.3 M5.25,33.35v0.3 M16.55,32.05v-0.3 M5.25,31.75v0.3 M16.55,30.55v-0.3 M5.25,30.25v0.3 M16.55,28.95v-0.3
		 M5.25,28.65v0.3 M16.55,27.35v-0.3 M5.25,27.05v0.3 M16.55,25.75v-0.3 M5.25,25.45v0.3 M16.55,24.25v-0.3 M5.25,23.95v0.3
		 M16.55,22.65v-0.3 M5.25,22.35v0.3 M16.55,21.05v-0.3 M5.25,20.75v0.3 M16.55,19.45v-0.3 M5.25,19.15v0.3 M16.55,17.95v-0.3
		 M5.25,17.65v0.3 M16.55,16.35v-2.9 M5.25,13.45v2.9 M15.05,14.35l3.4-2 M3.35,12.35l3.4,2 M21.55,8.05v-1.7 M0.25,6.35v1.7"/>
</g>
</svg>
